  0
SECTION
  2
HEADER
  9
$ACADVER
  1
AC1024
  9
$ACADMAINTVER
 70
6
  9
$DWGCODEPAGE
  3
ANSI_1252
  9
$LASTSAVEDBY
  1
ezdxf
  9
$INSBASE
 10
0.0
 20
0.0
 30
0.0
  9
$EXTMIN
 10
1e+20
 20
1e+20
 30
1e+20
  9
$EXTMAX
 10
-1e+20
 20
-1e+20
 30
-1e+20
  9
$LIMMIN
 10
0.0
 20
0.0
  9
$LIMMAX
 10
420.0
 20
297.0
  9
$ORTHOMODE
 70
0
  9
$REGENMODE
 70
1
  9
$FILLMODE
 70
1
  9
$QTEXTMODE
 70
0
  9
$MIRRTEXT
 70
1
  9
$LTSCALE
 40
1.0
  9
$ATTMODE
 70
1
  9
$TEXTSIZE
 40
2.5
  9
$TRACEWID
 40
1.0
  9
$TEXTSTYLE
  7
OpenSans
  9
$CLAYER
  8
0
  9
$CELTYPE
  6
ByLayer
  9
$CECOLOR
 62
256
  9
$CELTSCALE
 40
1.0
  9
$DISPSILH
 70
0
  9
$DIMSCALE
 40
1.0
  9
$DIMASZ
 40
0.175
  9
$DIMEXO
 40
0.125
  9
$DIMDLI
 40
3.75
  9
$DIMRND
 40
0.0
  9
$DIMDLE
 40
0.0
  9
$DIMEXE
 40
0.375
  9
$DIMTP
 40
0.0
  9
$DIMTM
 40
0.0
  9
$DIMTXT
 40
0.25
  9
$DIMCEN
 40
2.5
  9
$DIMTSZ
 40
0.0
  9
$DIMTOL
 70
0
  9
$DIMLIM
 70
0
  9
$DIMTIH
 70
0
  9
$DIMTOH
 70
0
  9
$DIMSE1
 70
0
  9
$DIMSE2
 70
0
  9
$DIMTAD
 70
1
  9
$DIMZIN
 70
12
  9
$DIMBLK
  1
ARCHTICK
  9
$DIMASO
 70
1
  9
$DIMSHO
 70
1
  9
$DIMPOST
  1

  9
$DIMAPOST
  1

  9
$DIMALT
 70
0
  9
$DIMALTD
 70
3
  9
$DIMALTF
 40
0.03937007874
  9
$DIMLFAC
 40
100.0
  9
$DIMTOFL
 70
1
  9
$DIMTVP
 40
0.0
  9
$DIMTIX
 70
0
  9
$DIMSOXD
 70
0
  9
$DIMSAH
 70
0
  9
$DIMBLK1
  1

  9
$DIMBLK2
  1

  9
$DIMSTYLE
  2
EZDXF
  9
$DIMCLRD
 70
0
  9
$DIMCLRE
 70
0
  9
$DIMCLRT
 70
0
  9
$DIMTFAC
 40
0.5
  9
$DIMGAP
 40
0.1
  9
$DIMJUST
 70
0
  9
$DIMSD1
 70
0
  9
$DIMSD2
 70
0
  9
$DIMTOLJ
 70
0
  9
$DIMTZIN
 70
8
  9
$DIMALTZ
 70
0
  9
$DIMALTTZ
 70
0
  9
$DIMUPT
 70
1
  9
$DIMDEC
 70
2
  9
$DIMTDEC
 70
2
  9
$DIMALTU
 70
2
  9
$DIMALTTD
 70
3
  9
$DIMTXSTY
  7
OpenSansCondensed-Light
  9
$DIMAUNIT
 70
0
  9
$DIMADEC
 70
2
  9
$DIMALTRND
 40
0.0
  9
$DIMAZIN
 70
3
  9
$DIMDSEP
 70
46
  9
$DIMATFIT
 70
3
  9
$DIMFRAC
 70
0
  9
$DIMLDRBLK
  1

  9
$DIMLUNIT
 70
2
  9
$DIMLWD
 70
-2
  9
$DIMLWE
 70
-2
  9
$DIMTMOVE
 70
2
  9
$DIMFXL
 40
1.0
  9
$DIMFXLON
 70
0
  9
$DIMJOGANG
 40
0.785398163397
  9
$DIMTFILL
 70
0
  9
$DIMTFILLCLR
 70
0
  9
$DIMARCSYM
 70
0
  9
$DIMLTYPE
  6

  9
$DIMLTEX1
  6

  9
$DIMLTEX2
  6

  9
$DIMTXTDIRECTION
 70
0
  9
$LUNITS
 70
2
  9
$LUPREC
 70
4
  9
$SKETCHINC
 40
1.0
  9
$FILLETRAD
 40
10.0
  9
$AUNITS
 70
0
  9
$AUPREC
 70
2
  9
$MENU
  1
.
  9
$ELEVATION
 40
0.0
  9
$PELEVATION
 40
0.0
  9
$THICKNESS
 40
0.0
  9
$LIMCHECK
 70
0
  9
$CHAMFERA
 40
0.0
  9
$CHAMFERB
 40
0.0
  9
$CHAMFERC
 40
0.0
  9
$CHAMFERD
 40
0.0
  9
$SKPOLY
 70
0
  9
$TDCREATE
 40
2461293.710960648
  9
$TDUCREATE
 40
2458532.153996898
  9
$TDUPDATE
 40
2461293.710960648
  9
$TDUUPDATE
 40
2458532.1544311
  9
$TDINDWG
 40
0.0
  9
$TDUSRTIMER
 40
0.0
  9
$USRTIMER
 70
1
  9
$ANGBASE
 50
0.0
  9
$ANGDIR
 70
0
  9
$PDMODE
 70
0
  9
$PDSIZE
 40
0.0
  9
$PLINEWID
 40
0.0
  9
$SPLFRAME
 70
0
  9
$SPLINETYPE
 70
6
  9
$SPLINESEGS
 70
8
  9
$HANDSEED
  5
277
  9
$SURFTAB1
 70
6
  9
$SURFTAB2
 70
6
  9
$SURFTYPE
 70
6
  9
$SURFU
 70
6
  9
$SURFV
 70
6
  9
$UCSBASE
  2

  9
$UCSNAME
  2

  9
$UCSORG
 10
0.0
 20
0.0
 30
0.0
  9
$UCSXDIR
 10
1.0
 20
0.0
 30
0.0
  9
$UCSYDIR
 10
0.0
 20
1.0
 30
0.0
  9
$UCSORTHOREF
  2

  9
$UCSORTHOVIEW
 70
0
  9
$UCSORGTOP
 10
0.0
 20
0.0
 30
0.0
  9
$UCSORGBOTTOM
 10
0.0
 20
0.0
 30
0.0
  9
$UCSORGLEFT
 10
0.0
 20
0.0
 30
0.0
  9
$UCSORGRIGHT
 10
0.0
 20
0.0
 30
0.0
  9
$UCSORGFRONT
 10
0.0
 20
0.0
 30
0.0
  9
$UCSORGBACK
 10
0.0
 20
0.0
 30
0.0
  9
$PUCSBASE
  2

  9
$PUCSNAME
  2

  9
$PUCSORG
 10
0.0
 20
0.0
 30
0.0
  9
$PUCSXDIR
 10
1.0
 20
0.0
 30
0.0
  9
$PUCSYDIR
 10
0.0
 20
1.0
 30
0.0
  9
$PUCSORTHOREF
  2

  9
$PUCSORTHOVIEW
 70
0
  9
$PUCSORGTOP
 10
0.0
 20
0.0
 30
0.0
  9
$PUCSORGBOTTOM
 10
0.0
 20
0.0
 30
0.0
  9
$PUCSORGLEFT
 10
0.0
 20
0.0
 30
0.0
  9
$PUCSORGRIGHT
 10
0.0
 20
0.0
 30
0.0
  9
$PUCSORGFRONT
 10
0.0
 20
0.0
 30
0.0
  9
$PUCSORGBACK
 10
0.0
 20
0.0
 30
0.0
  9
$USERI1
 70
0
  9
$USERI2
 70
0
  9
$USERI3
 70
0
  9
$USERI4
 70
0
  9
$USERI5
 70
0
  9
$USERR1
 40
0.0
  9
$USERR2
 40
0.0
  9
$USERR3
 40
0.0
  9
$USERR4
 40
0.0
  9
$USERR5
 40
0.0
  9
$WORLDVIEW
 70
1
  9
$SHADEDGE
 70
3
  9
$SHADEDIF
 70
70
  9
$TILEMODE
 70
1
  9
$MAXACTVP
 70
64
  9
$PINSBASE
 10
0.0
 20
0.0
 30
0.0
  9
$PLIMCHECK
 70
0
  9
$PEXTMIN
 10
1e+20
 20
1e+20
 30
1e+20
  9
$PEXTMAX
 10
-1e+20
 20
-1e+20
 30
-1e+20
  9
$PLIMMIN
 10
0.0
 20
0.0
  9
$PLIMMAX
 10
420.0
 20
297.0
  9
$UNITMODE
 70
0
  9
$VISRETAIN
 70
1
  9
$PLINEGEN
 70
0
  9
$PSLTSCALE
 70
1
  9
$TREEDEPTH
 70
3020
  9
$CMLSTYLE
  2
Standard
  9
$CMLJUST
 70
0
  9
$CMLSCALE
 40
20.0
  9
$PROXYGRAPHICS
 70
1
  9
$MEASUREMENT
 70
1
  9
$CELWEIGHT
370
-1
  9
$ENDCAPS
280
0
  9
$JOINSTYLE
280
0
  9
$LWDISPLAY
290
0
  9
$INSUNITS
 70
4
  9
$HYPERLINKBASE
  1

  9
$STYLESHEET
  1

  9
$XEDIT
290
1
  9
$CEPSNTYPE
380
0
  9
$PSTYLEMODE
290
1
  9
$FINGERPRINTGUID
  2
{B8DEA1FF-D868-4DF9-ADCD-011A81B6235F}
  9
$VERSIONGUID
  2
{ADA9532A-6579-493E-B636-189B50A78BC2}
  9
$EXTNAMES
290
1
  9
$PSVPSCALE
 40
0.0
  9
$OLESTARTUP
290
0
  9
$SORTENTS
280
127
  9
$INDEXCTL
280
0
  9
$HIDETEXT
280
1
  9
$XCLIPFRAME
280
1
  9
$HALOGAP
280
0
  9
$OBSCOLOR
 70
257
  9
$OBSLTYPE
280
0
  9
$INTERSECTIONDISPLAY
280
0
  9
$INTERSECTIONCOLOR
 70
257
  9
$DIMASSOC
280
2
  9
$PROJECTNAME
  1

  9
$CAMERADISPLAY
290
0
  9
$LENSLENGTH
 40
50.0
  9
$CAMERAHEIGHT
 40
0.0
  9
$STEPSPERSEC
 40
24.0
  9
$STEPSIZE
 40
100.0
  9
$3DDWFPREC
 40
2.0
  9
$PSOLWIDTH
 40
0.005
  9
$PSOLHEIGHT
 40
0.08
  9
$LOFTANG1
 40
1.570796326795
  9
$LOFTANG2
 40
1.570796326795
  9
$LOFTMAG1
 40
0.0
  9
$LOFTMAG2
 40
0.0
  9
$LOFTPARAM
 70
7
  9
$LOFTNORMALS
280
1
  9
$LATITUDE
 40
37.795
  9
$LONGITUDE
 40
-122.394
  9
$NORTHDIRECTION
 40
0.0
  9
$TIMEZONE
 70
-8000
  9
$LIGHTGLYPHDISPLAY
280
1
  9
$TILEMODELIGHTSYNCH
280
1
  9
$CMATERIAL
347
20
  9
$SOLIDHIST
280
0
  9
$SHOWHIST
280
1
  9
$DWFFRAME
280
2
  9
$DGNFRAME
280
2
  9
$REALWORLDSCALE
290
1
  9
$INTERFERECOLOR
 62
256
  9
$CSHADOW
280
0
  9
$SHADOWPLANELOCATION
 40
0.0
  0
ENDSEC
  0
SECTION
  2
CLASSES
  0
CLASS
  1
ACDBDICTIONARYWDFLT
  2
AcDbDictionaryWithDefault
  3
ObjectDBX Classes
 90
0
 91
0
280
0
281
0
  0
CLASS
  1
SUN
  2
AcDbSun
  3
SCENEOE
 90
1153
 91
0
280
0
281
0
  0
CLASS
  1
VISUALSTYLE
  2
AcDbVisualStyle
  3
ObjectDBX Classes
 90
4095
 91
0
280
0
281
0
  0
CLASS
  1
MATERIAL
  2
AcDbMaterial
  3
ObjectDBX Classes
 90
1153
 91
0
280
0
281
0
  0
CLASS
  1
SCALE
  2
AcDbScale
  3
ObjectDBX Classes
 90
1153
 91
0
280
0
281
0
  0
CLASS
  1
TABLESTYLE
  2
AcDbTableStyle
  3
ObjectDBX Classes
 90
4095
 91
0
280
0
281
0
  0
CLASS
  1
MLEADERSTYLE
  2
AcDbMLeaderStyle
  3
ACDB_MLEADERSTYLE_CLASS
 90
4095
 91
0
280
0
281
0
  0
CLASS
  1
DICTIONARYVAR
  2
AcDbDictionaryVar
  3
ObjectDBX Classes
 90
0
 91
0
280
0
281
0
  0
CLASS
  1
CELLSTYLEMAP
  2
AcDbCellStyleMap
  3
ObjectDBX Classes
 90
1152
 91
0
280
0
281
0
  0
CLASS
  1
MENTALRAYRENDERSETTINGS
  2
AcDbMentalRayRenderSettings
  3
SCENEOE
 90
1024
 91
0
280
0
281
0
  0
CLASS
  1
ACDBDETAILVIEWSTYLE
  2
AcDbDetailViewStyle
  3
ObjectDBX Classes
 90
1025
 91
0
280
0
281
0
  0
CLASS
  1
ACDBSECTIONVIEWSTYLE
  2
AcDbSectionViewStyle
  3
ObjectDBX Classes
 90
1025
 91
0
280
0
281
0
  0
CLASS
  1
RASTERVARIABLES
  2
AcDbRasterVariables
  3
ISM
 90
0
 91
0
280
0
281
0
  0
CLASS
  1
LAYOUT
  2
AcDbLayout
  3
ObjectDBX Classes
 90
0
 91
0
280
0
281
0
  0
CLASS
  1
ACDBPLACEHOLDER
  2
AcDbPlaceHolder
  3
ObjectDBX Classes
 90
0
 91
0
280
0
281
0
  0
ENDSEC
  0
SECTION
  2
TABLES
  0
TABLE
  2
VPORT
  5
8
330
0
100
AcDbSymbolTable
 70
1
  0
VPORT
  5
23
330
8
100
AcDbSymbolTableRecord
100
AcDbViewportTableRecord
  2
*Active
 70
0
 10
0.0
 20
0.0
 11
1.0
 21
1.0
 12
0.0
 22
0.0
 13
0.0
 23
0.0
 14
0.5
 24
0.5
 15
0.5
 25
0.5
 16
0.0
 26
0.0
 36
1.0
 17
0.0
 27
0.0
 37
0.0
 40
1000.0
 41
1.34
 42
50.0
 43
0.0
 44
0.0
 50
0.0
 51
0.0
 71
0
 72
1000
 73
1
 74
3
 75
0
 76
0
 77
0
 78
0
281
0
 65
0
146
0.0
  0
ENDTAB
  0
TABLE
  2
LTYPE
  5
2
330
0
100
AcDbSymbolTable
 70
21
  0
LTYPE
  5
24
330
2
100
AcDbSymbolTableRecord
100
AcDbLinetypeTableRecord
  2
ByBlock
 70
0
  3

 72
65
 73
0
 40
0.0
  0
LTYPE
  5
25
330
2
100
AcDbSymbolTableRecord
100
AcDbLinetypeTableRecord
  2
ByLayer
 70
0
  3

 72
65
 73
0
 40
0.0
  0
LTYPE
  5
26
330
2
100
AcDbSymbolTableRecord
100
AcDbLinetypeTableRecord
  2
Continuous
 70
0
  3

 72
65
 73
0
 40
0.0
  0
LTYPE
  5
2F
330
2
100
AcDbSymbolTableRecord
100
AcDbLinetypeTableRecord
  2
CENTER
 70
0
  3
Center ____ _ ____ _ ____ _ ____ _ ____ _ ____
 72
65
 73
4
 40
5.08
 49
3.175
 74
0
 49
-0.635
 74
0
 49
0.635
 74
0
 49
-0.635
 74
0
  0
LTYPE
  5
30
330
2
100
AcDbSymbolTableRecord
100
AcDbLinetypeTableRecord
  2
CENTERX2
 70
0
  3
Center (2x) ________  __  ________  __  ________
 72
65
 73
4
 40
8.89
 49
6.35
 74
0
 49
-0.635
 74
0
 49
1.27
 74
0
 49
-0.635
 74
0
  0
LTYPE
  5
31
330
2
100
AcDbSymbolTableRecord
100
AcDbLinetypeTableRecord
  2
CENTER2
 70
0
  3
Center (.5x) ____ _ ____ _ ____ _ ____ _ ____
 72
65
 73
4
 40
2.54
 49
1.587
 74
0
 49
-0.318
 74
0
 49
0.318
 74
0
 49
-0.318
 74
0
  0
LTYPE
  5
32
330
2
100
AcDbSymbolTableRecord
100
AcDbLinetypeTableRecord
  2
DASHED
 70
0
  3
Dashed __ __ __ __ __ __ __ __ __ __ __ __ __ _
 72
65
 73
2
 40
1.524
 49
1.27
 74
0
 49
-0.254
 74
0
  0
LTYPE
  5
33
330
2
100
AcDbSymbolTableRecord
100
AcDbLinetypeTableRecord
  2
DASHEDX2
 70
0
  3
Dashed (2x) ____  ____  ____  ____  ____  ____
 72
65
 73
2
 40
3.048
 49
2.54
 74
0
 49
-0.508
 74
0
  0
LTYPE
  5
34
330
2
100
AcDbSymbolTableRecord
100
AcDbLinetypeTableRecord
  2
DASHED2
 70
0
  3
Dashed (.5x) _ _ _ _ _ _ _ _ _ _ _ _ _ _
 72
65
 73
2
 40
0.762
 49
0.635
 74
0
 49
-0.127
 74
0
  0
LTYPE
  5
35
330
2
100
AcDbSymbolTableRecord
100
AcDbLinetypeTableRecord
  2
PHANTOM
 70
0
  3
Phantom ______  __  __  ______  __  __  ______
 72
65
 73
6
 40
6.35
 49
3.175
 74
0
 49
-0.635
 74
0
 49
0.635
 74
0
 49
-0.635
 74
0
 49
0.635
 74
0
 49
-0.635
 74
0
  0
LTYPE
  5
36
330
2
100
AcDbSymbolTableRecord
100
AcDbLinetypeTableRecord
  2
PHANTOMX2
 70
0
  3
Phantom (2x)____________    ____    ____    ____________
 72
65
 73
6
 40
10.795
 49
6.35
 74
0
 49
-0.635
 74
0
 49
1.27
 74
0
 49
-0.635
 74
0
 49
1.27
 74
0
 49
-0.635
 74
0
  0
LTYPE
  5
37
330
2
100
AcDbSymbolTableRecord
100
AcDbLinetypeTableRecord
  2
PHANTOM2
 70
0
  3
Phantom (.5x) ___ _ _ ___ _ _ ___ _ _ ___ _ _ ___
 72
65
 73
6
 40
3.175
 49
1.587
 74
0
 49
-0.318
 74
0
 49
0.318
 74
0
 49
-0.318
 74
0
 49
0.318
 74
0
 49
-0.318
 74
0
  0
LTYPE
  5
38
330
2
100
AcDbSymbolTableRecord
100
AcDbLinetypeTableRecord
  2
DASHDOT
 70
0
  3
Dash dot __ . __ . __ . __ . __ . __ . __ . __
 72
65
 73
4
 40
3.556
 49
2.54
 74
0
 49
-0.508
 74
0
 49
0.0
 74
0
 49
-0.508
 74
0
  0
LTYPE
  5
39
330
2
100
AcDbSymbolTableRecord
100
AcDbLinetypeTableRecord
  2
DASHDOTX2
 70
0
  3
Dash dot (2x) ____  .  ____  .  ____  .  ____
 72
65
 73
4
 40
6.096
 49
5.08
 74
0
 49
-0.508
 74
0
 49
0.0
 74
0
 49
-0.508
 74
0
  0
LTYPE
  5
3A
330
2
100
AcDbSymbolTableRecord
100
AcDbLinetypeTableRecord
  2
DASHDOT2
 70
0
  3
Dash dot (.5x) _ . _ . _ . _ . _ . _ . _ . _
 72
65
 73
4
 40
1.778
 49
1.27
 74
0
 49
-0.254
 74
0
 49
0.0
 74
0
 49
-0.254
 74
0
  0
LTYPE
  5
3B
330
2
100
AcDbSymbolTableRecord
100
AcDbLinetypeTableRecord
  2
DOT
 70
0
  3
Dot .  .  .  .  .  .  .  .  .  .  .  .  .  .  .  .
 72
65
 73
2
 40
0.508
 49
0.0
 74
0
 49
-0.508
 74
0
  0
LTYPE
  5
3C
330
2
100
AcDbSymbolTableRecord
100
AcDbLinetypeTableRecord
  2
DOTX2
 70
0
  3
Dot (2x) .    .    .    .    .    .    .    . 
 72
65
 73
2
 40
1.016
 49
0.0
 74
0
 49
-1.016
 74
0
  0
LTYPE
  5
3D
330
2
100
AcDbSymbolTableRecord
100
AcDbLinetypeTableRecord
  2
DOT2
 70
0
  3
Dot (.5) . . . . . . . . . . . . . . . . . . . 
 72
65
 73
2
 40
0.254
 49
0.0
 74
0
 49
-0.254
 74
0
  0
LTYPE
  5
3E
330
2
100
AcDbSymbolTableRecord
100
AcDbLinetypeTableRecord
  2
DIVIDE
 70
0
  3
Divide __ . . __ . . __ . . __ . . __ . . __
 72
65
 73
6
 40
4.064
 49
2.54
 74
0
 49
-0.508
 74
0
 49
0.0
 74
0
 49
-0.508
 74
0
 49
0.0
 74
0
 49
-0.508
 74
0
  0
LTYPE
  5
3F
330
2
100
AcDbSymbolTableRecord
100
AcDbLinetypeTableRecord
  2
DIVIDEX2
 70
0
  3
Divide (2x) ____  . .  ____  . .  ____  . .  ____
 72
65
 73
6
 40
6.604
 49
5.08
 74
0
 49
-0.508
 74
0
 49
0.0
 74
0
 49
-0.508
 74
0
 49
0.0
 74
0
 49
-0.508
 74
0
  0
LTYPE
  5
40
330
2
100
AcDbSymbolTableRecord
100
AcDbLinetypeTableRecord
  2
DIVIDE2
 70
0
  3
Divide(.5x) _ . _ . _ . _ . _ . _ . _ . _
 72
65
 73
6
 40
2.032
 49
1.27
 74
0
 49
-0.254
 74
0
 49
0.0
 74
0
 49
-0.254
 74
0
 49
0.0
 74
0
 49
-0.254
 74
0
  0
ENDTAB
  0
TABLE
  2
LAYER
  5
1
330
0
100
AcDbSymbolTable
 70
26
  0
LAYER
  5
27
330
1
100
AcDbSymbolTableRecord
100
AcDbLayerTableRecord
  2
0
 70
0
 62
7
  6
Continuous
370
-3
390
13
347
21
  0
LAYER
  5
28
330
1
100
AcDbSymbolTableRecord
100
AcDbLayerTableRecord
  2
Defpoints
 70
0
 62
7
  6
Continuous
290
0
370
-3
390
13
347
21
  0
LAYER
  5
8A
330
1
100
AcDbSymbolTableRecord
100
AcDbLayerTableRecord
  2
S-CONCRETE
 70
0
 62
7
  6
Continuous
370
-3
390
13
347
21
1001
AcAecLayerStandard
1000

1000
Structural concrete outlines (cut)
  0
LAYER
  5
8C
330
1
100
AcDbSymbolTableRecord
100
AcDbLayerTableRecord
  2
S-CONCRETE-THIN
 70
0
 62
7
  6
Continuous
370
-3
390
13
347
21
1001
AcAecLayerStandard
1000

1000
Concrete beyond the cut plane
  0
LAYER
  5
8D
330
1
100
AcDbSymbolTableRecord
100
AcDbLayerTableRecord
  2
S-HIDDEN
 70
0
 62
8
  6
Continuous
370
-3
390
13
347
21
1001
AcAecLayerStandard
1000

1000
Concrete / features beyond, hidden
  0
LAYER
  5
8E
330
1
100
AcDbSymbolTableRecord
100
AcDbLayerTableRecord
  2
S-REBAR-MAIN
 70
0
 62
1
  6
Continuous
370
-3
390
13
347
21
1001
AcAecLayerStandard
1000

1000
Main reinforcement
  0
LAYER
  5
8F
330
1
100
AcDbSymbolTableRecord
100
AcDbLayerTableRecord
  2
S-REBAR-DIST
 70
0
 62
3
  6
Continuous
370
-3
390
13
347
21
1001
AcAecLayerStandard
1000

1000
Distribution reinforcement
  0
LAYER
  5
90
330
1
100
AcDbSymbolTableRecord
100
AcDbLayerTableRecord
  2
S-REBAR-STIRRUP
 70
0
 62
6
  6
Continuous
370
-3
390
13
347
21
1001
AcAecLayerStandard
1000

1000
Links and stirrups
  0
LAYER
  5
91
330
1
100
AcDbSymbolTableRecord
100
AcDbLayerTableRecord
  2
S-REBAR-TIE
 70
0
 62
6
  6
Continuous
370
-3
390
13
347
21
1001
AcAecLayerStandard
1000

1000
Ties, cross-ties, starters
  0
LAYER
  5
92
330
1
100
AcDbSymbolTableRecord
100
AcDbLayerTableRecord
  2
S-REBAR-SEC
 70
0
 62
4
  6
Continuous
370
-3
390
13
347
21
1001
AcAecLayerStandard
1000

1000
Trimmers, secondary and additional bars
  0
LAYER
  5
93
330
1
100
AcDbSymbolTableRecord
100
AcDbLayerTableRecord
  2
S-DIM
 70
0
 62
4
  6
Continuous
370
-3
390
13
347
21
1001
AcAecLayerStandard
1000

1000
Dimensions
  0
LAYER
  5
94
330
1
100
AcDbSymbolTableRecord
100
AcDbLayerTableRecord
  2
S-TEXT
 70
0
 62
7
  6
Continuous
370
-3
390
13
347
21
1001
AcAecLayerStandard
1000

1000
General annotation
  0
LAYER
  5
95
330
1
100
AcDbSymbolTableRecord
100
AcDbLayerTableRecord
  2
S-NOTE
 70
0
 62
7
  6
Continuous
370
-3
390
13
347
21
1001
AcAecLayerStandard
1000

1000
Note panels
  0
LAYER
  5
96
330
1
100
AcDbSymbolTableRecord
100
AcDbLayerTableRecord
  2
S-CALLOUT
 70
0
 62
2
  6
Continuous
370
-3
390
13
347
21
1001
AcAecLayerStandard
1000

1000
Bar-mark balloons and leaders
  0
LAYER
  5
97
330
1
100
AcDbSymbolTableRecord
100
AcDbLayerTableRecord
  2
S-SECTION
 70
0
 62
1
  6
Continuous
370
-3
390
13
347
21
1001
AcAecLayerStandard
1000

1000
Section and detail markers
  0
LAYER
  5
98
330
1
100
AcDbSymbolTableRecord
100
AcDbLayerTableRecord
  2
S-GRID
 70
0
 62
5
  6
Continuous
370
-3
390
13
347
21
1001
AcAecLayerStandard
1000

1000
Grid lines and bubbles
  0
LAYER
  5
99
330
1
100
AcDbSymbolTableRecord
100
AcDbLayerTableRecord
  2
S-CENTER
 70
0
 62
6
  6
Continuous
370
-3
390
13
347
21
1001
AcAecLayerStandard
1000

1000
Centrelines
  0
LAYER
  5
9A
330
1
100
AcDbSymbolTableRecord
100
AcDbLayerTableRecord
  2
S-HATCH
 70
0
 62
8
  6
Continuous
370
-3
390
13
347
21
1001
AcAecLayerStandard
1000

1000
Section hatch
  0
LAYER
  5
9B
330
1
100
AcDbSymbolTableRecord
100
AcDbLayerTableRecord
  2
S-TITLE
 70
0
 62
7
  6
Continuous
370
-3
390
13
347
21
1001
AcAecLayerStandard
1000

1000
Border, title block, view titles
  0
LAYER
  5
9C
330
1
100
AcDbSymbolTableRecord
100
AcDbLayerTableRecord
  2
S-EXISTING
 70
0
 62
8
  6
Continuous
370
-3
390
13
347
21
1001
AcAecLayerStandard
1000

1000
Soil, rock, berm, cover layers
  0
LAYER
  5
9D
330
1
100
AcDbSymbolTableRecord
100
AcDbLayerTableRecord
  2
S-REFERENCE
 70
0
 62
8
  6
Continuous
370
-3
390
13
347
21
1001
AcAecLayerStandard
1000

1000
Reference geometry, extents
  0
LAYER
  5
9E
330
1
100
AcDbSymbolTableRecord
100
AcDbLayerTableRecord
  2
S-WATERPROOF
 70
0
 62
30
  6
Continuous
370
-3
390
13
347
21
1001
AcAecLayerStandard
1000

1000
Membranes, waterstops, GWT
  0
LAYER
  5
9F
330
1
100
AcDbSymbolTableRecord
100
AcDbLayerTableRecord
  2
S-STEELWORK
 70
0
 62
2
  6
Continuous
370
-3
390
13
347
21
1001
AcAecLayerStandard
1000

1000
Cast-in frames, EMP straps, steel items
  0
LAYER
  5
A0
330
1
100
AcDbSymbolTableRecord
100
AcDbLayerTableRecord
  2
S-LEVEL
 70
0
 62
4
  6
Continuous
370
-3
390
13
347
21
1001
AcAecLayerStandard
1000

1000
Level markers
  0
LAYER
  5
A1
330
1
100
AcDbSymbolTableRecord
100
AcDbLayerTableRecord
  2
S-TABLE
 70
0
 62
7
  6
Continuous
370
-3
390
13
347
21
1001
AcAecLayerStandard
1000

1000
Tables and schedules
  0
LAYER
  5
A2
330
1
100
AcDbSymbolTableRecord
100
AcDbLayerTableRecord
  2
S-BLAST
 70
0
 62
1
  6
Continuous
370
-3
390
13
347
21
1001
AcAecLayerStandard
1000

1000
Blast arrows, findings, warnings
  0
ENDTAB
  0
TABLE
  2
STYLE
  5
5
330
0
100
AcDbSymbolTable
 70
26
  0
STYLE
  5
29
330
5
100
AcDbSymbolTableRecord
100
AcDbTextStyleTableRecord
  2
Standard
 70
0
 40
0.0
 41
1.0
 50
0.0
 71
0
 42
2.5
  3
txt
  4

  0
STYLE
  5
41
330
5
100
AcDbSymbolTableRecord
100
AcDbTextStyleTableRecord
  2
OpenSans-Light
 70
0
 40
0.0
 41
1.0
 50
0.0
 71
0
 42
2.5
  3
OpenSans-Light.ttf
  4

  0
STYLE
  5
42
330
5
100
AcDbSymbolTableRecord
100
AcDbTextStyleTableRecord
  2
OpenSans-Light-Italic
 70
0
 40
0.0
 41
1.0
 50
0.0
 71
0
 42
2.5
  3
OpenSans-LightItalic.ttf
  4

  0
STYLE
  5
43
330
5
100
AcDbSymbolTableRecord
100
AcDbTextStyleTableRecord
  2
OpenSans
 70
0
 40
0.0
 41
1.0
 50
0.0
 71
0
 42
2.5
  3
OpenSans-Regular.ttf
  4

  0
STYLE
  5
44
330
5
100
AcDbSymbolTableRecord
100
AcDbTextStyleTableRecord
  2
OpenSans-Italic
 70
0
 40
0.0
 41
1.0
 50
0.0
 71
0
 42
2.5
  3
OpenSans-Italic.ttf
  4

  0
STYLE
  5
45
330
5
100
AcDbSymbolTableRecord
100
AcDbTextStyleTableRecord
  2
OpenSans-SemiBold
 70
0
 40
0.0
 41
1.0
 50
0.0
 71
0
 42
2.5
  3
OpenSans-SemiBold.ttf
  4

  0
STYLE
  5
46
330
5
100
AcDbSymbolTableRecord
100
AcDbTextStyleTableRecord
  2
OpenSans-SemiBoldItalic
 70
0
 40
0.0
 41
1.0
 50
0.0
 71
0
 42
2.5
  3
OpenSans-SemiBoldItalic.ttf
  4

  0
STYLE
  5
47
330
5
100
AcDbSymbolTableRecord
100
AcDbTextStyleTableRecord
  2
OpenSans-Bold
 70
0
 40
0.0
 41
1.0
 50
0.0
 71
0
 42
2.5
  3
OpenSans-Bold.ttf
  4

  0
STYLE
  5
48
330
5
100
AcDbSymbolTableRecord
100
AcDbTextStyleTableRecord
  2
OpenSans-BoldItalic
 70
0
 40
0.0
 41
1.0
 50
0.0
 71
0
 42
2.5
  3
OpenSans-BoldItalic.ttf
  4

  0
STYLE
  5
49
330
5
100
AcDbSymbolTableRecord
100
AcDbTextStyleTableRecord
  2
OpenSans-ExtraBold
 70
0
 40
0.0
 41
1.0
 50
0.0
 71
0
 42
2.5
  3
OpenSans-ExtraBold.ttf
  4

  0
STYLE
  5
4A
330
5
100
AcDbSymbolTableRecord
100
AcDbTextStyleTableRecord
  2
OpenSans-ExtraBoldItalic
 70
0
 40
0.0
 41
1.0
 50
0.0
 71
0
 42
2.5
  3
OpenSans-ExtraBoldItalic.ttf
  4

  0
STYLE
  5
4B
330
5
100
AcDbSymbolTableRecord
100
AcDbTextStyleTableRecord
  2
OpenSansCondensed-Bold
 70
0
 40
0.0
 41
1.0
 50
0.0
 71
0
 42
2.5
  3
OpenSansCondensed-Bold.ttf
  4

  0
STYLE
  5
4C
330
5
100
AcDbSymbolTableRecord
100
AcDbTextStyleTableRecord
  2
OpenSansCondensed-Light
 70
0
 40
0.0
 41
1.0
 50
0.0
 71
0
 42
2.5
  3
OpenSansCondensed-Light.ttf
  4

  0
STYLE
  5
4D
330
5
100
AcDbSymbolTableRecord
100
AcDbTextStyleTableRecord
  2
OpenSansCondensed-Italic
 70
0
 40
0.0
 41
1.0
 50
0.0
 71
0
 42
2.5
  3
OpenSansCondensed-LightItalic.ttf
  4

  0
STYLE
  5
4E
330
5
100
AcDbSymbolTableRecord
100
AcDbTextStyleTableRecord
  2
LiberationSans
 70
0
 40
0.0
 41
1.0
 50
0.0
 71
0
 42
2.5
  3
LiberationSans-Regular.ttf
  4

  0
STYLE
  5
4F
330
5
100
AcDbSymbolTableRecord
100
AcDbTextStyleTableRecord
  2
LiberationSans-Bold
 70
0
 40
0.0
 41
1.0
 50
0.0
 71
0
 42
2.5
  3
LiberationSans-Bold.ttf
  4

  0
STYLE
  5
50
330
5
100
AcDbSymbolTableRecord
100
AcDbTextStyleTableRecord
  2
LiberationSans-BoldItalic
 70
0
 40
0.0
 41
1.0
 50
0.0
 71
0
 42
2.5
  3
LiberationSans-BoldItalic.ttf
  4

  0
STYLE
  5
51
330
5
100
AcDbSymbolTableRecord
100
AcDbTextStyleTableRecord
  2
LiberationSans-Italic
 70
0
 40
0.0
 41
1.0
 50
0.0
 71
0
 42
2.5
  3
LiberationSans-Italic.ttf
  4

  0
STYLE
  5
52
330
5
100
AcDbSymbolTableRecord
100
AcDbTextStyleTableRecord
  2
LiberationSerif
 70
0
 40
0.0
 41
1.0
 50
0.0
 71
0
 42
2.5
  3
LiberationSerif-Regular.ttf
  4

  0
STYLE
  5
53
330
5
100
AcDbSymbolTableRecord
100
AcDbTextStyleTableRecord
  2
LiberationSerif-Bold
 70
0
 40
0.0
 41
1.0
 50
0.0
 71
0
 42
2.5
  3
LiberationSerif-Bold.ttf
  4

  0
STYLE
  5
54
330
5
100
AcDbSymbolTableRecord
100
AcDbTextStyleTableRecord
  2
LiberationSerif-BoldItalic
 70
0
 40
0.0
 41
1.0
 50
0.0
 71
0
 42
2.5
  3
LiberationSerif-BoldItalic.ttf
  4

  0
STYLE
  5
55
330
5
100
AcDbSymbolTableRecord
100
AcDbTextStyleTableRecord
  2
LiberationSerif-Italic
 70
0
 40
0.0
 41
1.0
 50
0.0
 71
0
 42
2.5
  3
LiberationSerif-Italic.ttf
  4

  0
STYLE
  5
56
330
5
100
AcDbSymbolTableRecord
100
AcDbTextStyleTableRecord
  2
LiberationMono
 70
0
 40
0.0
 41
1.0
 50
0.0
 71
0
 42
2.5
  3
LiberationMono-Regular.ttf
  4

  0
STYLE
  5
57
330
5
100
AcDbSymbolTableRecord
100
AcDbTextStyleTableRecord
  2
LiberationMono-Bold
 70
0
 40
0.0
 41
1.0
 50
0.0
 71
0
 42
2.5
  3
LiberationMono-Bold.ttf
  4

  0
STYLE
  5
58
330
5
100
AcDbSymbolTableRecord
100
AcDbTextStyleTableRecord
  2
LiberationMono-BoldItalic
 70
0
 40
0.0
 41
1.0
 50
0.0
 71
0
 42
2.5
  3
LiberationMono-BoldItalic.ttf
  4

  0
STYLE
  5
59
330
5
100
AcDbSymbolTableRecord
100
AcDbTextStyleTableRecord
  2
LiberationMono-Italic
 70
0
 40
0.0
 41
1.0
 50
0.0
 71
0
 42
2.5
  3
LiberationMono-Italic.ttf
  4

  0
ENDTAB
  0
TABLE
  2
VIEW
  5
7
330
0
100
AcDbSymbolTable
 70
0
  0
ENDTAB
  0
TABLE
  2
UCS
  5
6
330
0
100
AcDbSymbolTable
 70
0
  0
ENDTAB
  0
TABLE
  2
APPID
  5
3
330
0
100
AcDbSymbolTable
 70
4
  0
APPID
  5
2A
330
3
100
AcDbSymbolTableRecord
100
AcDbRegAppTableRecord
  2
ACAD
 70
0
  0
APPID
  5
8B
330
3
100
AcDbSymbolTableRecord
100
AcDbRegAppTableRecord
  2
AcAecLayerStandard
 70
0
  0
APPID
  5
274
330
3
100
AcDbSymbolTableRecord
100
AcDbRegAppTableRecord
  2
HATCHBACKGROUNDCOLOR
 70
0
  0
APPID
  5
275
330
3
100
AcDbSymbolTableRecord
100
AcDbRegAppTableRecord
  2
EZDXF
 70
0
  0
ENDTAB
  0
TABLE
  2
DIMSTYLE
  5
4
330
0
100
AcDbSymbolTable
 70
14
100
AcDbDimStyleTable
  0
DIMSTYLE
105
2B
330
4
100
AcDbSymbolTableRecord
100
AcDbDimStyleTableRecord
  2
Standard
 70
0
 40
1.0
 41
2.5
 42
0.625
 43
3.75
 44
1.25
 45
0.0
 46
0.0
 47
0.0
 48
0.0
 49
2.5
140
2.5
141
2.5
142
0.0
143
0.03937007874
144
1.0
145
0.0
146
1.0
147
0.625
148
0.0
 69
0
 70
0
 71
0
 72
0
 73
0
 74
0
 75
0
 76
0
 77
1
 78
8
 79
3
170
0
171
3
172
1
173
0
174
0
175
0
176
0
177
0
178
0
179
2
271
2
272
2
273
2
274
3
275
0
276
0
277
2
278
44
279
0
280
0
281
0
282
0
283
0
284
8
285
0
286
0
288
0
289
3
290
0
371
-2
372
-2
  0
DIMSTYLE
105
73
330
4
100
AcDbSymbolTableRecord
100
AcDbDimStyleTableRecord
  2
EZDXF
 70
0
 40
1.0
 41
0.175
 42
0.125
 43
3.75
 44
0.375
 45
0.0
 46
0.0
 47
0.0
 48
0.0
 49
2.5
140
0.25
141
2.5
142
0.0
143
0.03937007874
144
100.0
145
0.0
146
0.5
147
0.1
148
0.0
 69
0
 70
0
 71
0
 72
0
 73
0
 74
0
 75
0
 76
0
 77
1
 78
12
 79
3
170
0
171
3
172
1
173
0
174
0
175
0
176
0
177
0
178
0
179
2
271
2
272
2
273
2
274
3
275
0
276
0
277
2
278
46
279
2
280
0
281
0
282
0
283
0
284
8
285
0
286
0
288
1
289
3
290
0
340
4C
342
74
371
-2
372
-2
  0
DIMSTYLE
105
7C
330
4
100
AcDbSymbolTableRecord
100
AcDbDimStyleTableRecord
  2
EZ_M_100_H25_CM
 70
0
 40
1.0
 41
0.25
 42
0.125
 43
3.75
 44
0.375
 45
0.0
 46
0.0
 47
0.0
 48
0.0
 49
2.5
140
0.25
141
2.5
142
0.125
143
0.03937007874
144
100.0
145
0.0
146
0.5
147
0.1
148
0.0
 69
0
 70
0
 71
0
 72
0
 73
0
 74
0
 75
0
 76
0
 77
1
 78
12
 79
3
170
0
171
3
172
1
173
0
174
0
175
0
176
0
177
0
178
0
179
2
271
2
272
2
273
2
274
3
275
0
276
0
277
2
278
46
279
2
280
0
281
0
282
0
283
0
284
8
285
0
286
0
288
1
289
3
290
0
340
4C
371
-2
372
-2
  0
DIMSTYLE
105
7D
330
4
100
AcDbSymbolTableRecord
100
AcDbDimStyleTableRecord
  2
EZ_M_50_H25_CM
 70
0
 40
1.0
 41
0.125
 42
0.0625
 43
3.75
 44
0.1875
 45
0.0
 46
0.0
 47
0.0
 48
0.0
 49
2.5
140
0.125
141
2.5
142
0.0625
143
0.03937007874
144
100.0
145
0.0
146
0.5
147
0.05
148
0.0
 69
0
 70
0
 71
0
 72
0
 73
0
 74
0
 75
0
 76
0
 77
1
 78
12
 79
3
170
0
171
3
172
1
173
0
174
0
175
0
176
0
177
0
178
0
179
2
271
2
272
2
273
2
274
3
275
0
276
0
277
2
278
46
279
2
280
0
281
0
282
0
283
0
284
8
285
0
286
0
288
1
289
3
290
0
340
4C
371
-2
372
-2
  0
DIMSTYLE
105
7E
330
4
100
AcDbSymbolTableRecord
100
AcDbDimStyleTableRecord
  2
EZ_M_25_H25_CM
 70
0
 40
1.0
 41
0.0625
 42
0.03125
 43
3.75
 44
0.09375
 45
0.0
 46
0.0
 47
0.0
 48
0.0
 49
2.5
140
0.0625
141
2.5
142
0.03125
143
0.03937007874
144
100.0
145
0.0
146
0.5
147
0.025
148
0.0
 69
0
 70
0
 71
0
 72
0
 73
0
 74
0
 75
0
 76
0
 77
1
 78
12
 79
3
170
0
171
3
172
1
173
0
174
0
175
0
176
0
177
0
178
0
179
2
271
2
272
2
273
2
274
3
275
0
276
0
277
2
278
46
279
2
280
0
281
0
282
0
283
0
284
8
285
0
286
0
288
1
289
3
290
0
340
4C
371
-2
372
-2
  0
DIMSTYLE
105
7F
330
4
100
AcDbSymbolTableRecord
100
AcDbDimStyleTableRecord
  2
EZ_M_20_H25_CM
 70
0
 40
1.0
 41
0.05
 42
0.025
 43
3.75
 44
0.07500000000000001
 45
0.0
 46
0.0
 47
0.0
 48
0.0
 49
2.5
140
0.05
141
2.5
142
0.025
143
0.03937007874
144
100.0
145
0.0
146
0.5
147
0.020000000000000004
148
0.0
 69
0
 70
0
 71
0
 72
0
 73
0
 74
0
 75
0
 76
0
 77
1
 78
12
 79
3
170
0
171
3
172
1
173
0
174
0
175
0
176
0
177
0
178
0
179
2
271
2
272
2
273
2
274
3
275
0
276
0
277
2
278
46
279
2
280
0
281
0
282
0
283
0
284
8
285
0
286
0
288
1
289
3
290
0
340
4C
371
-2
372
-2
  0
DIMSTYLE
105
80
330
4
100
AcDbSymbolTableRecord
100
AcDbDimStyleTableRecord
  2
EZ_M_10_H25_CM
 70
0
 40
1.0
 41
0.025
 42
0.0125
 43
3.75
 44
0.037500000000000006
 45
0.0
 46
0.0
 47
0.0
 48
0.0
 49
2.5
140
0.025
141
2.5
142
0.0125
143
0.03937007874
144
100.0
145
0.0
146
0.5
147
0.010000000000000002
148
0.0
 69
0
 70
0
 71
0
 72
0
 73
0
 74
0
 75
0
 76
0
 77
1
 78
12
 79
3
170
0
171
3
172
1
173
0
174
0
175
0
176
0
177
0
178
0
179
2
271
2
272
2
273
2
274
3
275
0
276
0
277
2
278
46
279
2
280
0
281
0
282
0
283
0
284
8
285
0
286
0
288
1
289
3
290
0
340
4C
371
-2
372
-2
  0
DIMSTYLE
105
81
330
4
100
AcDbSymbolTableRecord
100
AcDbDimStyleTableRecord
  2
EZ_M_5_H25_CM
 70
0
 40
1.0
 41
0.0125
 42
0.00625
 43
3.75
 44
0.018750000000000003
 45
0.0
 46
0.0
 47
0.0
 48
0.0
 49
2.5
140
0.0125
141
2.5
142
0.00625
143
0.03937007874
144
100.0
145
0.0
146
0.5
147
0.005000000000000001
148
0.0
 69
0
 70
0
 71
0
 72
0
 73
0
 74
0
 75
0
 76
0
 77
1
 78
12
 79
3
170
0
171
3
172
1
173
0
174
0
175
0
176
0
177
0
178
0
179
2
271
2
272
2
273
2
274
3
275
0
276
0
277
2
278
46
279
2
280
0
281
0
282
0
283
0
284
8
285
0
286
0
288
1
289
3
290
0
340
4C
371
-2
372
-2
  0
DIMSTYLE
105
82
330
4
100
AcDbSymbolTableRecord
100
AcDbDimStyleTableRecord
  2
EZ_M_1_H25_CM
 70
0
 40
1.0
 41
0.0025
 42
0.00125
 43
3.75
 44
0.00375
 45
0.0
 46
0.0
 47
0.0
 48
0.0
 49
2.5
140
0.0025
141
2.5
142
0.00125
143
0.03937007874
144
100.0
145
0.0
146
0.5
147
0.001
148
0.0
 69
0
 70
0
 71
0
 72
0
 73
0
 74
0
 75
0
 76
0
 77
1
 78
12
 79
3
170
0
171
3
172
1
173
0
174
0
175
0
176
0
177
0
178
0
179
2
271
2
272
2
273
2
274
3
275
0
276
0
277
2
278
46
279
2
280
0
281
0
282
0
283
0
284
8
285
0
286
0
288
1
289
3
290
0
340
4C
371
-2
372
-2
  0
DIMSTYLE
105
83
330
4
100
AcDbSymbolTableRecord
100
AcDbDimStyleTableRecord
  2
EZ_RADIUS
 70
0
 40
1.0
 41
0.25
 42
0.125
 43
3.75
 44
0.375
 45
0.0
 46
0.0
 47
0.0
 48
0.0
 49
2.5
140
0.25
141
0.0
142
0.0
143
0.03937007874
144
100.0
145
0.0
146
0.5
147
0.1
148
0.0
 69
0
 70
0
 71
0
 72
0
 73
0
 74
0
 75
0
 76
0
 77
1
 78
12
 79
3
170
0
171
3
172
0
173
0
174
0
175
0
176
0
177
0
178
0
179
2
271
2
272
2
273
2
274
3
275
0
276
0
277
2
278
46
279
1
280
0
281
0
282
0
283
0
284
8
285
0
286
0
288
1
289
3
290
0
340
4C
342
84
371
-2
372
-2
  0
DIMSTYLE
105
88
330
4
100
AcDbSymbolTableRecord
100
AcDbDimStyleTableRecord
  2
EZ_RADIUS_INSIDE
 70
0
 40
1.0
 41
0.25
 42
0.125
 43
3.75
 44
0.375
 45
0.0
 46
0.0
 47
0.0
 48
0.0
 49
2.5
140
0.25
141
0.0
142
0.0
143
0.03937007874
144
100.0
145
0.0
146
0.5
147
0.1
148
0.0
 69
0
 70
0
 71
0
 72
0
 73
0
 74
0
 75
0
 76
0
 77
0
 78
12
 79
3
170
0
171
3
172
0
173
0
174
1
175
0
176
0
177
0
178
0
179
2
271
2
272
2
273
2
274
3
275
0
276
0
277
2
278
46
279
0
280
0
281
0
282
0
283
0
284
8
285
0
286
0
288
1
289
0
290
0
340
4C
342
84
371
-2
372
-2
  0
DIMSTYLE
105
89
330
4
100
AcDbSymbolTableRecord
100
AcDbDimStyleTableRecord
  2
EZ_CURVED
 70
0
 40
1.0
 41
0.25
 42
0.125
 43
3.75
 44
0.375
 45
0.0
 46
0.0
 47
0.0
 48
0.0
 49
2.5
140
0.25
141
2.5
142
0.0
143
0.03937007874
144
100.0
145
0.0
146
0.5
147
0.1
148
0.0
 69
0
 70
0
 71
0
 72
0
 73
0
 74
0
 75
0
 76
0
 77
1
 78
12
 79
2
 90
2
170
0
171
3
172
1
173
0
174
0
175
0
176
0
177
0
178
0
179
2
271
2
272
2
273
2
274
3
275
0
276
0
277
2
278
46
279
2
280
0
281
0
282
0
283
0
284
8
285
0
286
0
288
1
289
3
290
0
340
4C
371
-2
372
-2
  0
DIMSTYLE
105
A3
330
4
100
AcDbSymbolTableRecord
100
AcDbDimStyleTableRecord
  2
SC-DIM
 70
0
 40
1.0
 41
1.6
 42
1.0
 43
3.75
 44
1.2
 45
0.0
 46
0.0
 47
0.0
 48
0.0
 49
2.5
140
1.8
141
2.5
142
0.0
143
0.03937007874
144
1.0
145
0.0
146
1.0
147
0.8
148
0.0
 69
0
 70
0
 71
0
 72
0
 73
0
 74
0
 75
0
 76
0
 77
1
 78
8
 79
3
170
0
171
3
172
1
173
0
174
0
175
0
176
4
177
4
178
4
179
2
271
0
272
2
273
2
274
3
275
0
276
0
277
2
278
44
279
0
280
0
281
0
282
0
283
0
284
8
285
0
286
0
288
0
289
3
290
0
342
74
371
13
372
13
  0
DIMSTYLE
105
A4
330
4
100
AcDbSymbolTableRecord
100
AcDbDimStyleTableRecord
  2
SC-DIM-S
 70
0
 40
1.0
 41
1.2
 42
1.0
 43
3.75
 44
1.2
 45
0.0
 46
0.0
 47
0.0
 48
0.0
 49
2.5
140
1.4
141
2.5
142
0.0
143
0.03937007874
144
1.0
145
0.0
146
1.0
147
0.8
148
0.0
 69
0
 70
0
 71
0
 72
0
 73
0
 74
0
 75
0
 76
0
 77
1
 78
8
 79
3
170
0
171
3
172
1
173
0
174
0
175
0
176
4
177
4
178
4
179
2
271
0
272
2
273
2
274
3
275
0
276
0
277
2
278
44
279
0
280
0
281
0
282
0
283
0
284
8
285
0
286
0
288
0
289
3
290
0
342
74
371
13
372
13
  0
ENDTAB
  0
TABLE
  2
BLOCK_RECORD
  5
9
330
0
100
AcDbSymbolTable
 70
15
  0
BLOCK_RECORD
  5
17
330
9
100
AcDbSymbolTableRecord
100
AcDbBlockTableRecord
  2
*Model_Space
340
1A
 70
0
280
1
281
0
  0
BLOCK_RECORD
  5
1B
330
9
100
AcDbSymbolTableRecord
100
AcDbBlockTableRecord
  2
*Paper_Space
340
1E
 70
0
280
1
281
0
  0
BLOCK_RECORD
  5
74
330
9
100
AcDbSymbolTableRecord
100
AcDbBlockTableRecord
  2
_ARCHTICK
340
0
 70
0
280
1
281
0
  0
BLOCK_RECORD
  5
78
330
9
100
AcDbSymbolTableRecord
100
AcDbBlockTableRecord
  2
_CLOSEDFILLED
340
0
 70
0
280
1
281
0
  0
BLOCK_RECORD
  5
84
330
9
100
AcDbSymbolTableRecord
100
AcDbBlockTableRecord
  2
_CLOSEDBLANK
340
0
 70
0
280
1
281
0
  0
BLOCK_RECORD
  5
A5
330
9
100
AcDbSymbolTableRecord
100
AcDbBlockTableRecord
  2
BARMARK
340
0
 70
0
280
1
281
0
  0
BLOCK_RECORD
  5
A9
330
9
100
AcDbSymbolTableRecord
100
AcDbBlockTableRecord
  2
SECMARK
340
0
 70
0
280
1
281
0
  0
BLOCK_RECORD
  5
AE
330
9
100
AcDbSymbolTableRecord
100
AcDbBlockTableRecord
  2
LEVELMK
340
0
 70
0
280
1
281
0
  0
BLOCK_RECORD
  5
B2
330
9
100
AcDbSymbolTableRecord
100
AcDbBlockTableRecord
  2
NORTH
340
0
 70
0
280
1
281
0
  0
BLOCK_RECORD
  5
FA
330
9
100
AcDbSymbolTableRecord
100
AcDbBlockTableRecord
  2
*D1
340
0
 70
0
280
1
281
0
  0
BLOCK_RECORD
  5
109
330
9
100
AcDbSymbolTableRecord
100
AcDbBlockTableRecord
  2
*D2
340
0
 70
0
280
1
281
0
  0
BLOCK_RECORD
  5
118
330
9
100
AcDbSymbolTableRecord
100
AcDbBlockTableRecord
  2
*D3
340
0
 70
0
280
1
281
0
  0
BLOCK_RECORD
  5
146
330
9
100
AcDbSymbolTableRecord
100
AcDbBlockTableRecord
  2
*D4
340
0
 70
0
280
1
281
0
  0
BLOCK_RECORD
  5
155
330
9
100
AcDbSymbolTableRecord
100
AcDbBlockTableRecord
  2
*D5
340
0
 70
0
280
1
281
0
  0
BLOCK_RECORD
  5
1A9
330
9
100
AcDbSymbolTableRecord
100
AcDbBlockTableRecord
  2
*D6
340
0
 70
0
280
1
281
0
  0
ENDTAB
  0
ENDSEC
  0
SECTION
  2
BLOCKS
  0
BLOCK
  5
18
330
17
100
AcDbEntity
  8
0
100
AcDbBlockBegin
  2
*Model_Space
 70
0
 10
0.0
 20
0.0
 30
0.0
  3
*Model_Space
  1

  0
ENDBLK
  5
19
330
17
100
AcDbEntity
  8
0
100
AcDbBlockEnd
  0
BLOCK
  5
1C
330
1B
100
AcDbEntity
  8
0
100
AcDbBlockBegin
  2
*Paper_Space
 70
0
 10
0.0
 20
0.0
 30
0.0
  3
*Paper_Space
  1

  0
ENDBLK
  5
1D
330
1B
100
AcDbEntity
  8
0
100
AcDbBlockEnd
  0
BLOCK
  5
75
330
74
100
AcDbEntity
  8
0
100
AcDbBlockBegin
  2
_ARCHTICK
 70
0
 10
0.0
 20
0.0
 30
0.0
  3
_ARCHTICK
  1

  0
LWPOLYLINE
  5
77
330
74
100
AcDbEntity
  8
0
  6
BYBLOCK
 62
0
100
AcDbPolyline
 90
2
 70
0
 43
0.15
 10
-0.5
 20
-0.5
 10
0.5
 20
0.5
  0
ENDBLK
  5
76
330
74
100
AcDbEntity
  8
0
100
AcDbBlockEnd
  0
BLOCK
  5
79
330
78
100
AcDbEntity
  8
0
100
AcDbBlockBegin
  2
_CLOSEDFILLED
 70
0
 10
0.0
 20
0.0
 30
0.0
  3
_CLOSEDFILLED
  1

  0
SOLID
  5
7B
330
78
100
AcDbEntity
  8
0
  6
BYBLOCK
 62
0
100
AcDbTrace
 10
-1.0
 20
0.16439898372402537
 30
0.0
 11
0.0
 21
0.0
 31
0.0
 12
-1.0
 22
-0.16439898372402537
 32
0.0
 13
-1.0
 23
-0.16439898372402537
 33
0.0
  0
ENDBLK
  5
7A
330
78
100
AcDbEntity
  8
0
100
AcDbBlockEnd
  0
BLOCK
  5
85
330
84
100
AcDbEntity
  8
0
100
AcDbBlockBegin
  2
_CLOSEDBLANK
 70
0
 10
0.0
 20
0.0
 30
0.0
  3
_CLOSEDBLANK
  1

  0
LWPOLYLINE
  5
87
330
84
100
AcDbEntity
  8
0
  6
BYBLOCK
 62
0
100
AcDbPolyline
 90
3
 70
1
 10
-1.0
 20
0.16439898372402537
 10
0.0
 20
0.0
 10
-1.0
 20
-0.16439898372402537
  0
ENDBLK
  5
86
330
84
100
AcDbEntity
  8
0
100
AcDbBlockEnd
  0
BLOCK
  5
A6
330
A5
100
AcDbEntity
  8
0
100
AcDbBlockBegin
  2
BARMARK
 70
0
 10
0.0
 20
0.0
 30
0.0
  3
BARMARK
  1

  0
CIRCLE
  5
A8
330
A5
100
AcDbEntity
  8
S-CALLOUT
100
AcDbCircle
 10
0.0
 20
0.0
 30
0.0
 40
3.2
  0
ENDBLK
  5
A7
330
A5
100
AcDbEntity
  8
0
100
AcDbBlockEnd
  0
BLOCK
  5
AA
330
A9
100
AcDbEntity
  8
0
100
AcDbBlockBegin
  2
SECMARK
 70
0
 10
0.0
 20
0.0
 30
0.0
  3
SECMARK
  1

  0
CIRCLE
  5
AC
330
A9
100
AcDbEntity
  8
S-SECTION
100
AcDbCircle
 10
0.0
 20
0.0
 30
0.0
 40
4.0
  0
LINE
  5
AD
330
A9
100
AcDbEntity
  8
S-SECTION
100
AcDbLine
 10
-4.0
 20
0.0
 30
0.0
 11
4.0
 21
0.0
 31
0.0
  0
ENDBLK
  5
AB
330
A9
100
AcDbEntity
  8
0
100
AcDbBlockEnd
  0
BLOCK
  5
AF
330
AE
100
AcDbEntity
  8
0
100
AcDbBlockBegin
  2
LEVELMK
 70
0
 10
0.0
 20
0.0
 30
0.0
  3
LEVELMK
  1

  0
LWPOLYLINE
  5
B1
330
AE
100
AcDbEntity
  8
S-LEVEL
100
AcDbPolyline
 90
4
 70
1
 10
0.0
 20
0.0
 10
-2.0
 20
3.0
 10
2.0
 20
3.0
 10
0.0
 20
0.0
  0
ENDBLK
  5
B0
330
AE
100
AcDbEntity
  8
0
100
AcDbBlockEnd
  0
BLOCK
  5
B3
330
B2
100
AcDbEntity
  8
0
100
AcDbBlockBegin
  2
NORTH
 70
0
 10
0.0
 20
0.0
 30
0.0
  3
NORTH
  1

  0
LWPOLYLINE
  5
B5
330
B2
100
AcDbEntity
  8
S-TITLE
100
AcDbPolyline
 90
5
 70
1
 10
0.0
 20
10.0
 10
-3.2
 20
-6.0
 10
0.0
 20
-2.4
 10
3.2
 20
-6.0
 10
0.0
 20
10.0
  0
CIRCLE
  5
B6
330
B2
100
AcDbEntity
  8
S-TITLE
100
AcDbCircle
 10
0.0
 20
0.0
 30
0.0
 40
12.0
  0
ENDBLK
  5
B4
330
B2
100
AcDbEntity
  8
0
100
AcDbBlockEnd
  0
BLOCK
  5
FB
330
FA
100
AcDbEntity
  8
0
100
AcDbBlockBegin
  2
*D1
 70
1
 10
0.0
 20
0.0
 30
0.0
  3
*D1
  1

  0
LINE
  5
FD
330
FA
100
AcDbEntity
  8
0
 62
4
370
13
100
AcDbLine
 10
214.16666666666666
 20
494.8333333333333
 30
0.0
 11
214.16666666666666
 21
479.6333333333333
 31
0.0
  0
LINE
  5
FE
330
FA
100
AcDbEntity
  8
0
 62
4
370
13
100
AcDbLine
 10
327.5
 20
494.8333333333333
 30
0.0
 11
327.5
 21
479.6333333333333
 31
0.0
  0
INSERT
  5
FF
330
FA
100
AcDbEntity
  8
S-DIM
 62
4
100
AcDbBlockReference
  2
_ARCHTICK
 10
214.16666666666666
 20
480.8333333333333
 30
0.0
 41
1.6
 42
1.6
 50
180.0
  0
INSERT
  5
101
330
FA
100
AcDbEntity
  8
S-DIM
 62
4
100
AcDbBlockReference
  2
_ARCHTICK
 10
327.5
 20
480.8333333333333
 30
0.0
 41
1.6
 42
1.6
  0
LINE
  5
103
330
FA
100
AcDbEntity
  8
0
 62
4
370
13
100
AcDbLine
 10
214.16666666666666
 20
480.8333333333333
 30
0.0
 11
327.5
 21
480.8333333333333
 31
0.0
  0
MTEXT
  5
104
330
FA
100
AcDbEntity
  8
S-DIM
 62
4
100
AcDbMText
 10
270.8333333333333
 20
482.5333333333333
 30
0.0
 40
1.8
 71
5
  1
6800
  7
OpenSansCondensed-Light
  0
POINT
  5
105
330
FA
100
AcDbEntity
  8
Defpoints
100
AcDbPoint
 10
214.16666666666666
 20
480.8333333333333
 30
0.0
  0
POINT
  5
106
330
FA
100
AcDbEntity
  8
Defpoints
100
AcDbPoint
 10
214.16666666666666
 20
495.8333333333333
 30
0.0
  0
POINT
  5
107
330
FA
100
AcDbEntity
  8
Defpoints
100
AcDbPoint
 10
327.5
 20
495.8333333333333
 30
0.0
  0
ENDBLK
  5
FC
330
FA
100
AcDbEntity
  8
0
100
AcDbBlockEnd
  0
BLOCK
  5
10A
330
109
100
AcDbEntity
  8
0
100
AcDbBlockBegin
  2
*D2
 70
1
 10
0.0
 20
0.0
 30
0.0
  3
*D2
  1

  0
LINE
  5
10C
330
109
100
AcDbEntity
  8
0
 62
4
370
13
100
AcDbLine
 10
243.33333333333334
 20
494.8333333333333
 30
0.0
 11
243.33333333333334
 21
487.9666666666667
 31
0.0
  0
LINE
  5
10D
330
109
100
AcDbEntity
  8
0
 62
4
370
13
100
AcDbLine
 10
298.33333333333337
 20
494.8333333333333
 30
0.0
 11
298.33333333333337
 21
487.9666666666667
 31
0.0
  0
INSERT
  5
10E
330
109
100
AcDbEntity
  8
S-DIM
 62
4
100
AcDbBlockReference
  2
_ARCHTICK
 10
243.33333333333334
 20
489.1666666666667
 30
0.0
 41
1.6
 42
1.6
 50
180.0
  0
INSERT
  5
110
330
109
100
AcDbEntity
  8
S-DIM
 62
4
100
AcDbBlockReference
  2
_ARCHTICK
 10
298.33333333333337
 20
489.1666666666667
 30
0.0
 41
1.6
 42
1.6
  0
LINE
  5
112
330
109
100
AcDbEntity
  8
0
 62
4
370
13
100
AcDbLine
 10
243.33333333333334
 20
489.1666666666667
 30
0.0
 11
298.33333333333337
 21
489.1666666666667
 31
0.0
  0
MTEXT
  5
113
330
109
100
AcDbEntity
  8
S-DIM
 62
4
100
AcDbMText
 10
270.83333333333337
 20
490.8666666666667
 30
0.0
 40
1.8
 71
5
  1
3300
  7
OpenSansCondensed-Light
  0
POINT
  5
114
330
109
100
AcDbEntity
  8
Defpoints
100
AcDbPoint
 10
243.33333333333334
 20
489.1666666666667
 30
0.0
  0
POINT
  5
115
330
109
100
AcDbEntity
  8
Defpoints
100
AcDbPoint
 10
243.33333333333334
 20
495.8333333333333
 30
0.0
  0
POINT
  5
116
330
109
100
AcDbEntity
  8
Defpoints
100
AcDbPoint
 10
298.33333333333337
 20
495.8333333333333
 30
0.0
  0
ENDBLK
  5
10B
330
109
100
AcDbEntity
  8
0
100
AcDbBlockEnd
  0
BLOCK
  5
119
330
118
100
AcDbEntity
  8
0
100
AcDbBlockBegin
  2
*D3
 70
1
 10
0.0
 20
0.0
 30
0.0
  3
*D3
  1

  0
LINE
  5
11B
330
118
100
AcDbEntity
  8
0
 62
4
370
13
100
AcDbLine
 10
213.16666666666666
 20
495.8333333333333
 30
0.0
 11
201.3
 21
495.8333333333333
 31
0.0
  0
LINE
  5
11C
330
118
100
AcDbEntity
  8
0
 62
4
370
13
100
AcDbLine
 10
213.16666666666666
 20
529.1666666666666
 30
0.0
 11
201.3
 21
529.1666666666666
 31
0.0
  0
INSERT
  5
11D
330
118
100
AcDbEntity
  8
S-DIM
 62
4
100
AcDbBlockReference
  2
_ARCHTICK
 10
202.5
 20
495.8333333333333
 30
0.0
 41
1.6
 42
1.6
 50
270.0
  0
INSERT
  5
11F
330
118
100
AcDbEntity
  8
S-DIM
 62
4
100
AcDbBlockReference
  2
_ARCHTICK
 10
202.5
 20
529.1666666666666
 30
0.0
 41
1.6
 42
1.6
 50
90.0
  0
LINE
  5
121
330
118
100
AcDbEntity
  8
0
 62
4
370
13
100
AcDbLine
 10
202.5
 20
495.8333333333333
 30
0.0
 11
202.5
 21
529.1666666666666
 31
0.0
  0
MTEXT
  5
122
330
118
100
AcDbEntity
  8
S-DIM
 62
4
100
AcDbMText
 10
200.8
 20
512.5
 30
0.0
 40
1.8
 71
5
  1
2000
  7
OpenSansCondensed-Light
 50
90.0
  0
POINT
  5
123
330
118
100
AcDbEntity
  8
Defpoints
100
AcDbPoint
 10
202.5
 20
495.8333333333333
 30
0.0
  0
POINT
  5
124
330
118
100
AcDbEntity
  8
Defpoints
100
AcDbPoint
 10
214.16666666666666
 20
495.8333333333333
 30
0.0
  0
POINT
  5
125
330
118
100
AcDbEntity
  8
Defpoints
100
AcDbPoint
 10
214.16666666666666
 20
529.1666666666666
 30
0.0
  0
ENDBLK
  5
11A
330
118
100
AcDbEntity
  8
0
100
AcDbBlockEnd
  0
BLOCK
  5
147
330
146
100
AcDbEntity
  8
0
100
AcDbBlockBegin
  2
*D4
 70
1
 10
0.0
 20
0.0
 30
0.0
  3
*D4
  1

  0
LINE
  5
149
330
146
100
AcDbEntity
  8
0
 62
4
370
13
100
AcDbLine
 10
76.66666666666667
 20
199.0
 30
0.0
 11
76.66666666666667
 21
185.46666666666667
 31
0.0
  0
LINE
  5
14A
330
146
100
AcDbEntity
  8
0
 62
4
370
13
100
AcDbLine
 10
110.0
 20
199.0
 30
0.0
 11
110.0
 21
185.46666666666667
 31
0.0
  0
INSERT
  5
14B
330
146
100
AcDbEntity
  8
S-DIM
 62
4
100
AcDbBlockReference
  2
_ARCHTICK
 10
76.66666666666667
 20
186.66666666666666
 30
0.0
 41
1.6
 42
1.6
 50
180.0
  0
INSERT
  5
14D
330
146
100
AcDbEntity
  8
S-DIM
 62
4
100
AcDbBlockReference
  2
_ARCHTICK
 10
110.0
 20
186.66666666666666
 30
0.0
 41
1.6
 42
1.6
  0
LINE
  5
14F
330
146
100
AcDbEntity
  8
0
 62
4
370
13
100
AcDbLine
 10
76.66666666666667
 20
186.66666666666666
 30
0.0
 11
110.0
 21
186.66666666666666
 31
0.0
  0
MTEXT
  5
150
330
146
100
AcDbEntity
  8
S-DIM
 62
4
100
AcDbMText
 10
93.33333333333334
 20
188.36666666666665
 30
0.0
 40
1.8
 71
5
  1
1000
  7
OpenSansCondensed-Light
  0
POINT
  5
151
330
146
100
AcDbEntity
  8
Defpoints
100
AcDbPoint
 10
76.66666666666667
 20
186.66666666666666
 30
0.0
  0
POINT
  5
152
330
146
100
AcDbEntity
  8
Defpoints
100
AcDbPoint
 10
76.66666666666667
 20
200.0
 30
0.0
  0
POINT
  5
153
330
146
100
AcDbEntity
  8
Defpoints
100
AcDbPoint
 10
110.0
 20
200.0
 30
0.0
  0
ENDBLK
  5
148
330
146
100
AcDbEntity
  8
0
100
AcDbBlockEnd
  0
BLOCK
  5
156
330
155
100
AcDbEntity
  8
0
100
AcDbBlockBegin
  2
*D5
 70
1
 10
0.0
 20
0.0
 30
0.0
  3
*D5
  1

  0
LINE
  5
158
330
155
100
AcDbEntity
  8
0
 62
4
370
13
100
AcDbLine
 10
75.66666666666667
 20
200.0
 30
0.0
 11
45.46666666666666
 21
200.0
 31
0.0
  0
LINE
  5
159
330
155
100
AcDbEntity
  8
0
 62
4
370
13
100
AcDbLine
 10
75.66666666666667
 20
270.0
 30
0.0
 11
45.46666666666666
 21
270.0
 31
0.0
  0
INSERT
  5
15A
330
155
100
AcDbEntity
  8
S-DIM
 62
4
100
AcDbBlockReference
  2
_ARCHTICK
 10
46.666666666666664
 20
200.0
 30
0.0
 41
1.6
 42
1.6
 50
270.0
  0
INSERT
  5
15C
330
155
100
AcDbEntity
  8
S-DIM
 62
4
100
AcDbBlockReference
  2
_ARCHTICK
 10
46.666666666666664
 20
270.0
 30
0.0
 41
1.6
 42
1.6
 50
90.0
  0
LINE
  5
15E
330
155
100
AcDbEntity
  8
0
 62
4
370
13
100
AcDbLine
 10
46.666666666666664
 20
200.0
 30
0.0
 11
46.666666666666664
 21
270.0
 31
0.0
  0
MTEXT
  5
15F
330
155
100
AcDbEntity
  8
S-DIM
 62
4
100
AcDbMText
 10
44.96666666666666
 20
235.0
 30
0.0
 40
1.8
 71
5
  1
2100
  7
OpenSansCondensed-Light
 50
90.0
  0
POINT
  5
160
330
155
100
AcDbEntity
  8
Defpoints
100
AcDbPoint
 10
46.666666666666664
 20
200.0
 30
0.0
  0
POINT
  5
161
330
155
100
AcDbEntity
  8
Defpoints
100
AcDbPoint
 10
76.66666666666667
 20
200.0
 30
0.0
  0
POINT
  5
162
330
155
100
AcDbEntity
  8
Defpoints
100
AcDbPoint
 10
76.66666666666667
 20
270.0
 30
0.0
  0
ENDBLK
  5
157
330
155
100
AcDbEntity
  8
0
100
AcDbBlockEnd
  0
BLOCK
  5
1AA
330
1A9
100
AcDbEntity
  8
0
100
AcDbBlockBegin
  2
*D6
 70
1
 10
0.0
 20
0.0
 30
0.0
  3
*D6
  1

  0
LINE
  5
1AC
330
1A9
100
AcDbEntity
  8
0
 62
4
370
13
100
AcDbLine
 10
199.0
 20
220.0
 30
0.0
 11
178.8
 21
220.0
 31
0.0
  0
LINE
  5
1AD
330
1A9
100
AcDbEntity
  8
0
 62
4
370
13
100
AcDbLine
 10
199.0
 20
235.0
 30
0.0
 11
178.8
 21
235.0
 31
0.0
  0
INSERT
  5
1AE
330
1A9
100
AcDbEntity
  8
S-DIM
 62
4
100
AcDbBlockReference
  2
_ARCHTICK
 10
180.0
 20
220.0
 30
0.0
 41
1.6
 42
1.6
 50
270.0
  0
INSERT
  5
1B0
330
1A9
100
AcDbEntity
  8
S-DIM
 62
4
100
AcDbBlockReference
  2
_ARCHTICK
 10
180.0
 20
235.0
 30
0.0
 41
1.6
 42
1.6
 50
90.0
  0
LINE
  5
1B2
330
1A9
100
AcDbEntity
  8
0
 62
4
370
13
100
AcDbLine
 10
180.0
 20
220.0
 30
0.0
 11
180.0
 21
235.0
 31
0.0
  0
MTEXT
  5
1B3
330
1A9
100
AcDbEntity
  8
S-DIM
 62
4
100
AcDbMText
 10
178.3
 20
227.5
 30
0.0
 40
1.8
 71
5
  1
300
  7
OpenSansCondensed-Light
 50
90.0
  0
POINT
  5
1B4
330
1A9
100
AcDbEntity
  8
Defpoints
100
AcDbPoint
 10
180.0
 20
220.0
 30
0.0
  0
POINT
  5
1B5
330
1A9
100
AcDbEntity
  8
Defpoints
100
AcDbPoint
 10
200.0
 20
220.0
 30
0.0
  0
POINT
  5
1B6
330
1A9
100
AcDbEntity
  8
Defpoints
100
AcDbPoint
 10
200.0
 20
235.0
 30
0.0
  0
ENDBLK
  5
1AB
330
1A9
100
AcDbEntity
  8
0
100
AcDbBlockEnd
  0
ENDSEC
  0
SECTION
  2
ENTITIES
  0
LWPOLYLINE
  5
B7
330
17
100
AcDbEntity
  8
S-TITLE
100
AcDbPolyline
 90
4
 70
1
 10
0.0
 20
0.0
 10
841.0
 20
0.0
 10
841.0
 20
594.0
 10
0.0
 20
594.0
  0
LWPOLYLINE
  5
B8
330
17
100
AcDbEntity
  8
S-TITLE
100
AcDbPolyline
 90
4
 70
1
 10
10.0
 20
10.0
 10
831.0
 20
10.0
 10
831.0
 20
584.0
 10
10.0
 20
584.0
  0
TEXT
  5
B9
330
17
100
AcDbEntity
  8
S-TITLE
100
AcDbText
 10
12.0
 20
576.5
 30
0.0
 40
5.0
  1
STRUCTURAL CAD - REINFORCEMENT PACKAGE
  7
OpenSans
 11
12.0
 21
576.5
 31
0.0
100
AcDbText
  0
TEXT
  5
BA
330
17
100
AcDbEntity
  8
S-TITLE
100
AcDbText
 10
12.0
 20
569.5
 30
0.0
 40
2.4
  1
R-702   ENTRANCE REINFORCEMENT
  7
OpenSans
 11
12.0
 21
569.5
 31
0.0
100
AcDbText
  0
LINE
  5
BB
330
17
100
AcDbEntity
  8
S-TITLE
100
AcDbLine
 10
10.0
 20
566.5
 30
0.0
 11
831.0
 21
566.5
 31
0.0
  0
TEXT
  5
BC
330
17
100
AcDbEntity
  8
S-BLAST
100
AcDbText
 10
829.0
 20
577.0
 30
0.0
 40
2.0
  1
SENTRY POST EXCLUDED FROM THIS PACKAGE
  7
OpenSans
 72
2
 11
829.0
 21
577.0
 31
0.0
100
AcDbText
  0
TEXT
  5
BD
330
17
100
AcDbEntity
  8
S-BLAST
100
AcDbText
 10
829.0
 20
570.5
 30
0.0
 40
1.4
  1
ALL DESIGN ACTIONS ARE MANUAL CALCULATION - NOT DIRECT STAAD OUTPUT
  7
OpenSans
 72
2
 11
829.0
 21
570.5
 31
0.0
100
AcDbText
  0
TEXT
  5
BE
330
17
100
AcDbEntity
  8
S-BLAST
100
AcDbText
 10
12.0
 20
561.5
 30
0.0
 40
1.4
  1
OPEN ITEMS ON THIS SHEET:  C16 OPEN  NOT BLAST RATED
  7
OpenSans
 11
12.0
 21
561.5
 31
0.0
100
AcDbText
  0
LWPOLYLINE
  5
BF
330
17
100
AcDbEntity
  8
S-CONCRETE
100
AcDbPolyline
 90
4
 70
1
 10
214.16666666666666
 20
495.8333333333333
 10
327.5
 20
495.8333333333333
 10
327.5
 20
529.1666666666666
 10
214.16666666666666
 20
529.1666666666666
  0
LWPOLYLINE
  5
C0
330
17
100
AcDbEntity
  8
S-CONCRETE
100
AcDbPolyline
 90
4
 70
1
 10
218.33333333333334
 20
500.0
 10
323.3333333333333
 20
500.0
 10
323.3333333333333
 20
525.0
 10
218.33333333333334
 20
525.0
  0
HATCH
  5
C1
330
17
100
AcDbEntity
  8
S-HATCH
 62
7
100
AcDbHatch
 10
0.0
 20
0.0
 30
0.0
210
0.0
220
0.0
230
1.0
  2
ANSI31
 70
0
 71
0
 91
2
 92
3
 72
0
 73
1
 93
4
 10
214.16666666666666
 20
495.8333333333333
 10
327.5
 20
495.8333333333333
 10
327.5
 20
529.1666666666666
 10
214.16666666666666
 20
529.1666666666666
 97
0
 92
18
 72
0
 73
1
 93
4
 10
218.33333333333334
 20
500.0
 10
323.3333333333333
 20
500.0
 10
323.3333333333333
 20
525.0
 10
218.33333333333334
 20
525.0
 97
0
 75
1
 76
1
 52
0.0
 41
1.6
 77
0
 78
1
 53
45.0
 43
0.0
 44
0.0
 45
-3.5921024485
 46
3.5921024485
 79
0
 98
0
  0
LWPOLYLINE
  5
C2
330
17
100
AcDbEntity
  8
S-CONCRETE-THIN
100
AcDbPolyline
 90
4
 70
1
 10
218.33333333333334
 20
500.0
 10
243.33333333333334
 20
500.0
 10
243.33333333333334
 20
525.0
 10
218.33333333333334
 20
525.0
  0
TEXT
  5
C3
330
17
100
AcDbEntity
  8
S-TEXT
100
AcDbText
 10
230.83333333333334
 20
512.5
 30
0.0
 40
1.4
  1
TOP LANDING 0.000
  7
OpenSans
 72
1
 11
230.83333333333334
 21
512.5
 31
0.0
100
AcDbText
 73
2
  0
LINE
  5
C4
330
17
100
AcDbEntity
  8
S-CONCRETE-THIN
100
AcDbLine
 10
243.33333333333334
 20
500.0
 30
0.0
 11
243.33333333333334
 21
525.0
 31
0.0
  0
LINE
  5
C5
330
17
100
AcDbEntity
  8
S-CONCRETE-THIN
100
AcDbLine
 10
248.33333333333334
 20
500.0
 30
0.0
 11
248.33333333333334
 21
525.0
 31
0.0
  0
LINE
  5
C6
330
17
100
AcDbEntity
  8
S-CONCRETE-THIN
100
AcDbLine
 10
253.33333333333334
 20
500.0
 30
0.0
 11
253.33333333333334
 21
525.0
 31
0.0
  0
LINE
  5
C7
330
17
100
AcDbEntity
  8
S-CONCRETE-THIN
100
AcDbLine
 10
258.33333333333337
 20
500.0
 30
0.0
 11
258.33333333333337
 21
525.0
 31
0.0
  0
LINE
  5
C8
330
17
100
AcDbEntity
  8
S-CONCRETE-THIN
100
AcDbLine
 10
263.33333333333337
 20
500.0
 30
0.0
 11
263.33333333333337
 21
525.0
 31
0.0
  0
LINE
  5
C9
330
17
100
AcDbEntity
  8
S-CONCRETE-THIN
100
AcDbLine
 10
268.33333333333337
 20
500.0
 30
0.0
 11
268.33333333333337
 21
525.0
 31
0.0
  0
LINE
  5
CA
330
17
100
AcDbEntity
  8
S-CONCRETE-THIN
100
AcDbLine
 10
273.33333333333337
 20
500.0
 30
0.0
 11
273.33333333333337
 21
525.0
 31
0.0
  0
LINE
  5
CB
330
17
100
AcDbEntity
  8
S-CONCRETE-THIN
100
AcDbLine
 10
278.33333333333337
 20
500.0
 30
0.0
 11
278.33333333333337
 21
525.0
 31
0.0
  0
LINE
  5
CC
330
17
100
AcDbEntity
  8
S-CONCRETE-THIN
100
AcDbLine
 10
283.33333333333337
 20
500.0
 30
0.0
 11
283.33333333333337
 21
525.0
 31
0.0
  0
LINE
  5
CD
330
17
100
AcDbEntity
  8
S-CONCRETE-THIN
100
AcDbLine
 10
288.33333333333337
 20
500.0
 30
0.0
 11
288.33333333333337
 21
525.0
 31
0.0
  0
LINE
  5
CE
330
17
100
AcDbEntity
  8
S-CONCRETE-THIN
100
AcDbLine
 10
293.33333333333337
 20
500.0
 30
0.0
 11
293.33333333333337
 21
525.0
 31
0.0
  0
LINE
  5
CF
330
17
100
AcDbEntity
  8
S-CONCRETE-THIN
100
AcDbLine
 10
298.33333333333337
 20
500.0
 30
0.0
 11
298.33333333333337
 21
525.0
 31
0.0
  0
TEXT
  5
D0
330
17
100
AcDbEntity
  8
S-TEXT
100
AcDbText
 10
270.83333333333337
 20
512.5
 30
0.0
 40
1.4
  1
FLIGHT 12R @ 166.6667 / 300
  7
OpenSans
 72
1
 11
270.83333333333337
 21
512.5
 31
0.0
100
AcDbText
 73
2
  0
LWPOLYLINE
  5
D1
330
17
100
AcDbEntity
  8
S-CONCRETE-THIN
100
AcDbPolyline
 90
4
 70
1
 10
298.33333333333337
 20
500.0
 10
323.3333333333333
 20
500.0
 10
323.3333333333333
 20
525.0
 10
298.33333333333337
 20
525.0
  0
TEXT
  5
D2
330
17
100
AcDbEntity
  8
S-TEXT
100
AcDbText
 10
310.83333333333337
 20
512.5
 30
0.0
 40
1.4
  1
PLATFORM (-)2.000
  7
OpenSans
 72
1
 11
310.83333333333337
 21
512.5
 31
0.0
100
AcDbText
 73
2
  0
LINE
  5
D3
330
17
100
AcDbEntity
  8
S-REBAR-MAIN
100
AcDbLine
 10
220.0
 20
501.0
 30
0.0
 11
220.0
 21
524.0
 31
0.0
  0
LINE
  5
D4
330
17
100
AcDbEntity
  8
S-REBAR-MAIN
100
AcDbLine
 10
223.33333333333334
 20
501.0
 30
0.0
 11
223.33333333333334
 21
524.0
 31
0.0
  0
LINE
  5
D5
330
17
100
AcDbEntity
  8
S-REBAR-MAIN
100
AcDbLine
 10
226.66666666666666
 20
501.0
 30
0.0
 11
226.66666666666666
 21
524.0
 31
0.0
  0
LINE
  5
D6
330
17
100
AcDbEntity
  8
S-REBAR-MAIN
100
AcDbLine
 10
230.0
 20
501.0
 30
0.0
 11
230.0
 21
524.0
 31
0.0
  0
LINE
  5
D7
330
17
100
AcDbEntity
  8
S-REBAR-MAIN
100
AcDbLine
 10
233.33333333333334
 20
501.0
 30
0.0
 11
233.33333333333334
 21
524.0
 31
0.0
  0
LINE
  5
D8
330
17
100
AcDbEntity
  8
S-REBAR-MAIN
100
AcDbLine
 10
236.66666666666666
 20
501.0
 30
0.0
 11
236.66666666666666
 21
524.0
 31
0.0
  0
LINE
  5
D9
330
17
100
AcDbEntity
  8
S-REBAR-MAIN
100
AcDbLine
 10
240.0
 20
501.0
 30
0.0
 11
240.0
 21
524.0
 31
0.0
  0
LINE
  5
DA
330
17
100
AcDbEntity
  8
S-REBAR-MAIN
100
AcDbLine
 10
243.33333333333334
 20
501.0
 30
0.0
 11
243.33333333333334
 21
524.0
 31
0.0
  0
LINE
  5
DB
330
17
100
AcDbEntity
  8
S-REBAR-MAIN
100
AcDbLine
 10
246.66666666666666
 20
501.0
 30
0.0
 11
246.66666666666666
 21
524.0
 31
0.0
  0
LINE
  5
DC
330
17
100
AcDbEntity
  8
S-REBAR-MAIN
100
AcDbLine
 10
250.0
 20
501.0
 30
0.0
 11
250.0
 21
524.0
 31
0.0
  0
LINE
  5
DD
330
17
100
AcDbEntity
  8
S-REBAR-MAIN
100
AcDbLine
 10
253.33333333333334
 20
501.0
 30
0.0
 11
253.33333333333334
 21
524.0
 31
0.0
  0
LINE
  5
DE
330
17
100
AcDbEntity
  8
S-REBAR-MAIN
100
AcDbLine
 10
256.66666666666663
 20
501.0
 30
0.0
 11
256.66666666666663
 21
524.0
 31
0.0
  0
LINE
  5
DF
330
17
100
AcDbEntity
  8
S-REBAR-MAIN
100
AcDbLine
 10
260.0
 20
501.0
 30
0.0
 11
260.0
 21
524.0
 31
0.0
  0
LINE
  5
E0
330
17
100
AcDbEntity
  8
S-REBAR-MAIN
100
AcDbLine
 10
263.33333333333337
 20
501.0
 30
0.0
 11
263.33333333333337
 21
524.0
 31
0.0
  0
LINE
  5
E1
330
17
100
AcDbEntity
  8
S-REBAR-MAIN
100
AcDbLine
 10
266.66666666666663
 20
501.0
 30
0.0
 11
266.66666666666663
 21
524.0
 31
0.0
  0
LINE
  5
E2
330
17
100
AcDbEntity
  8
S-REBAR-MAIN
100
AcDbLine
 10
270.0
 20
501.0
 30
0.0
 11
270.0
 21
524.0
 31
0.0
  0
LINE
  5
E3
330
17
100
AcDbEntity
  8
S-REBAR-MAIN
100
AcDbLine
 10
273.33333333333337
 20
501.0
 30
0.0
 11
273.33333333333337
 21
524.0
 31
0.0
  0
LINE
  5
E4
330
17
100
AcDbEntity
  8
S-REBAR-MAIN
100
AcDbLine
 10
276.66666666666663
 20
501.0
 30
0.0
 11
276.66666666666663
 21
524.0
 31
0.0
  0
LINE
  5
E5
330
17
100
AcDbEntity
  8
S-REBAR-MAIN
100
AcDbLine
 10
280.0
 20
501.0
 30
0.0
 11
280.0
 21
524.0
 31
0.0
  0
LINE
  5
E6
330
17
100
AcDbEntity
  8
S-REBAR-MAIN
100
AcDbLine
 10
283.33333333333337
 20
501.0
 30
0.0
 11
283.33333333333337
 21
524.0
 31
0.0
  0
LINE
  5
E7
330
17
100
AcDbEntity
  8
S-REBAR-MAIN
100
AcDbLine
 10
286.66666666666663
 20
501.0
 30
0.0
 11
286.66666666666663
 21
524.0
 31
0.0
  0
LINE
  5
E8
330
17
100
AcDbEntity
  8
S-REBAR-MAIN
100
AcDbLine
 10
290.0
 20
501.0
 30
0.0
 11
290.0
 21
524.0
 31
0.0
  0
LINE
  5
E9
330
17
100
AcDbEntity
  8
S-REBAR-MAIN
100
AcDbLine
 10
293.33333333333337
 20
501.0
 30
0.0
 11
293.33333333333337
 21
524.0
 31
0.0
  0
LINE
  5
EA
330
17
100
AcDbEntity
  8
S-REBAR-MAIN
100
AcDbLine
 10
296.66666666666663
 20
501.0
 30
0.0
 11
296.66666666666663
 21
524.0
 31
0.0
  0
LINE
  5
EB
330
17
100
AcDbEntity
  8
S-REBAR-MAIN
100
AcDbLine
 10
300.0
 20
501.0
 30
0.0
 11
300.0
 21
524.0
 31
0.0
  0
LINE
  5
EC
330
17
100
AcDbEntity
  8
S-REBAR-MAIN
100
AcDbLine
 10
303.33333333333337
 20
501.0
 30
0.0
 11
303.33333333333337
 21
524.0
 31
0.0
  0
LINE
  5
ED
330
17
100
AcDbEntity
  8
S-REBAR-MAIN
100
AcDbLine
 10
306.66666666666663
 20
501.0
 30
0.0
 11
306.66666666666663
 21
524.0
 31
0.0
  0
LINE
  5
EE
330
17
100
AcDbEntity
  8
S-REBAR-MAIN
100
AcDbLine
 10
310.0
 20
501.0
 30
0.0
 11
310.0
 21
524.0
 31
0.0
  0
LINE
  5
EF
330
17
100
AcDbEntity
  8
S-REBAR-MAIN
100
AcDbLine
 10
313.33333333333337
 20
501.0
 30
0.0
 11
313.33333333333337
 21
524.0
 31
0.0
  0
LINE
  5
F0
330
17
100
AcDbEntity
  8
S-REBAR-MAIN
100
AcDbLine
 10
316.6666666666667
 20
501.0
 30
0.0
 11
316.6666666666667
 21
524.0
 31
0.0
  0
LINE
  5
F1
330
17
100
AcDbEntity
  8
S-REBAR-MAIN
100
AcDbLine
 10
320.0
 20
501.0
 30
0.0
 11
320.0
 21
524.0
 31
0.0
  0
LINE
  5
F2
330
17
100
AcDbEntity
  8
S-HIDDEN
100
AcDbLine
 10
286.66666666666663
 20
495.8333333333333
 30
0.0
 11
286.66666666666663
 21
493.8333333333333
 31
0.0
  0
LINE
  5
F3
330
17
100
AcDbEntity
  8
S-HIDDEN
100
AcDbLine
 10
286.66666666666663
 20
492.43333333333334
 30
0.0
 11
286.66666666666663
 21
490.43333333333334
 31
0.0
  0
LWPOLYLINE
  5
F4
330
17
100
AcDbEntity
  8
S-REFERENCE
100
AcDbPolyline
 90
4
 70
1
 10
286.66666666666663
 20
403.3333333333333
 10
366.6666666666667
 20
403.3333333333333
 10
366.6666666666667
 20
500.0
 10
286.66666666666663
 20
500.0
  0
TEXT
  5
F5
330
17
100
AcDbEntity
  8
S-REFERENCE
100
AcDbText
 10
326.6666666666667
 20
450.0
 30
0.0
 40
1.4
  1
HEADHOUSE
  7
OpenSans
 72
1
 11
326.6666666666667
 21
450.0
 31
0.0
100
AcDbText
 73
2
  0
LINE
  5
F6
330
17
100
AcDbEntity
  8
S-BLAST
100
AcDbLine
 10
327.5
 20
492.5
 30
0.0
 11
327.5
 21
532.5
 31
0.0
  0
TEXT
  5
F7
330
17
100
AcDbEntity
  8
S-BLAST
100
AcDbText
 10
251.66666666666666
 20
535.0
 30
0.0
 40
1.4
  1
MOVEMENT JOINT AT THE HEADHOUSE - THE ONLY ONE ON THE PROJECT
  7
OpenSans
 11
251.66666666666666
 21
535.0
 31
0.0
100
AcDbText
  0
LINE
  5
F8
330
17
100
AcDbEntity
  8
S-BLAST
100
AcDbLine
 10
327.5
 20
534.1666666666666
 30
0.0
 11
327.5
 21
533.3333333333334
 31
0.0
  0
DIMENSION
  5
F9
330
17
100
AcDbEntity
  8
S-DIM
100
AcDbDimension
280
0
  2
*D1
  3
SC-DIM
 10
214.16666666666666
 20
480.8333333333333
 30
0.0
 11
270.8333333333333
 21
482.5333333333333
 31
0.0
 70
32
 71
5
  1
<>
100
AcDbAlignedDimension
 13
214.16666666666666
 23
495.8333333333333
 33
0.0
 14
327.5
 24
495.8333333333333
 34
0.0
 50
0.0
100
AcDbRotatedDimension
1001
ACAD
1000
DSTYLE
1002
{
1070
144
1040
60.0
1002
}
  0
DIMENSION
  5
108
330
17
100
AcDbEntity
  8
S-DIM
100
AcDbDimension
280
0
  2
*D2
  3
SC-DIM
 10
243.33333333333334
 20
489.1666666666667
 30
0.0
 11
270.83333333333337
 21
490.8666666666667
 31
0.0
 70
32
 71
5
  1
<>
100
AcDbAlignedDimension
 13
243.33333333333334
 23
495.8333333333333
 33
0.0
 14
298.33333333333337
 24
495.8333333333333
 34
0.0
 50
0.0
100
AcDbRotatedDimension
1001
ACAD
1000
DSTYLE
1002
{
1070
144
1040
60.0
1002
}
  0
DIMENSION
  5
117
330
17
100
AcDbEntity
  8
S-DIM
100
AcDbDimension
280
0
  2
*D3
  3
SC-DIM
 10
202.5
 20
495.8333333333333
 30
0.0
 11
200.8
 21
512.5
 31
0.0
 70
32
 71
5
  1
<>
100
AcDbAlignedDimension
 13
214.16666666666666
 23
495.8333333333333
 33
0.0
 14
214.16666666666666
 24
529.1666666666666
 34
0.0
 50
90.0
100
AcDbRotatedDimension
1001
ACAD
1000
DSTYLE
1002
{
1070
144
1040
60.0
1002
}
  0
INSERT
  5
126
330
17
100
AcDbEntity
  8
S-TITLE
100
AcDbBlockReference
  2
NORTH
 10
560.0
 20
460.0
 30
0.0
  0
TEXT
  5
128
330
17
100
AcDbEntity
  8
S-TITLE
100
AcDbText
 10
560.0
 20
474.0
 30
0.0
 40
2.0
  1
N
  7
OpenSans
 72
1
 11
560.0
 21
474.0
 31
0.0
100
AcDbText
 73
2
  0
INSERT
  5
129
330
17
100
AcDbEntity
  8
S-CALLOUT
100
AcDbBlockReference
  2
BARMARK
 10
140.0
 20
462.0
 30
0.0
  0
TEXT
  5
12B
330
17
100
AcDbEntity
  8
S-CALLOUT
100
AcDbText
 10
140.0
 20
462.0
 30
0.0
 40
2.0
  1
E01
  7
OpenSans
 72
1
 11
140.0
 21
462.0
 31
0.0
100
AcDbText
 73
2
  0
LEADER
  5
12C
330
17
100
AcDbEntity
  8
S-CALLOUT
100
AcDbLeader
  3
SC-DIM
 73
3
 76
2
 10
268.33333333333337
 20
512.5
 30
0.0
 10
140.0
 20
462.0
 30
0.0
  0
INSERT
  5
12D
330
17
100
AcDbEntity
  8
S-CALLOUT
100
AcDbBlockReference
  2
BARMARK
 10
74.0
 20
386.0
 30
0.0
  0
TEXT
  5
12F
330
17
100
AcDbEntity
  8
S-CALLOUT
100
AcDbText
 10
74.0
 20
386.0
 30
0.0
 40
2.0
  1
E04A
  7
OpenSans
 72
1
 11
74.0
 21
386.0
 31
0.0
100
AcDbText
 73
2
  0
LEADER
  5
130
330
17
100
AcDbEntity
  8
S-CALLOUT
100
AcDbLeader
  3
SC-DIM
 73
3
 76
2
 10
223.33333333333334
 20
497.5
 30
0.0
 10
74.0
 20
386.0
 30
0.0
  0
INSERT
  5
131
330
17
100
AcDbEntity
  8
S-CALLOUT
100
AcDbBlockReference
  2
BARMARK
 10
250.0
 20
462.0
 30
0.0
  0
TEXT
  5
133
330
17
100
AcDbEntity
  8
S-CALLOUT
100
AcDbText
 10
250.0
 20
462.0
 30
0.0
 40
2.0
  1
E07
  7
OpenSans
 72
1
 11
250.0
 21
462.0
 31
0.0
100
AcDbText
 73
2
  0
LEADER
  5
134
330
17
100
AcDbEntity
  8
S-CALLOUT
100
AcDbLeader
  3
SC-DIM
 73
3
 76
2
 10
310.83333333333337
 20
506.6666666666667
 30
0.0
 10
250.0
 20
462.0
 30
0.0
  0
TEXT
  5
135
330
17
100
AcDbEntity
  8
S-TITLE
100
AcDbText
 10
30.0
 20
552.0
 30
0.0
 40
3.5
  1
V1   COVERED ENTRY STAIRWELL - PLAN
  7
OpenSans
 11
30.0
 21
552.0
 31
0.0
100
AcDbText
  0
LINE
  5
136
330
17
100
AcDbEntity
  8
S-TITLE
100
AcDbLine
 10
30.0
 20
550.2
 30
0.0
 11
127.68821165438715
 21
550.2
 31
0.0
  0
TEXT
  5
137
330
17
100
AcDbEntity
  8
S-TEXT
100
AcDbText
 10
30.0
 20
544.8
 30
0.0
 40
2.0
  1
SCALE 1:60
  7
OpenSans
 11
30.0
 21
544.8
 31
0.0
100
AcDbText
  0
TEXT
  5
138
330
17
100
AcDbEntity
  8
S-TEXT
100
AcDbText
 10
30.0
 20
358.0
 30
0.0
 40
1.4
  1
EXTERNAL 9250 - 16050 x 5750 - 7750  ·  INTERNAL 9500 - 15800 x 6000 - 7500  ·  WALLS 250  ·  POST-M1 (+200)  [CONFIRMED]
  7
OpenSans
 11
30.0
 21
358.0
 31
0.0
100
AcDbText
  0
LWPOLYLINE
  5
139
330
17
100
AcDbEntity
  8
S-CONCRETE
100
AcDbPolyline
 90
4
 70
1
 10
60.0
 20
200.0
 10
126.66666666666667
 20
200.0
 10
126.66666666666667
 20
296.6666666666667
 10
60.0
 20
296.6666666666667
  0
LWPOLYLINE
  5
13A
330
17
100
AcDbEntity
  8
S-CONCRETE
100
AcDbPolyline
 90
4
 70
1
 10
76.66666666666667
 20
200.0
 10
110.0
 20
200.0
 10
110.0
 20
270.0
 10
76.66666666666667
 20
270.0
  0
HATCH
  5
13B
330
17
100
AcDbEntity
  8
S-HATCH
 62
7
100
AcDbHatch
 10
0.0
 20
0.0
 30
0.0
210
0.0
220
0.0
230
1.0
  2
ANSI31
 70
0
 71
0
 91
2
 92
3
 72
0
 73
1
 93
4
 10
60.0
 20
200.0
 10
126.66666666666667
 20
200.0
 10
126.66666666666667
 20
296.6666666666667
 10
60.0
 20
296.6666666666667
 97
0
 92
18
 72
0
 73
1
 93
4
 10
76.66666666666667
 20
200.0
 10
110.0
 20
200.0
 10
110.0
 20
270.0
 10
76.66666666666667
 20
270.0
 97
0
 75
1
 76
1
 52
0.0
 41
1.6
 77
0
 78
1
 53
45.0
 43
0.0
 44
0.0
 45
-3.5921024485
 46
3.5921024485
 79
0
 98
0
  0
LWPOLYLINE
  5
13C
330
17
100
AcDbEntity
  8
S-REBAR-SEC
100
AcDbPolyline
 90
4
 70
1
 10
70.0
 20
270.0
 10
116.66666666666666
 20
270.0
 10
116.66666666666666
 20
281.6666666666667
 10
70.0
 20
281.6666666666667
  0
LINE
  5
13D
330
17
100
AcDbEntity
  8
S-REBAR-MAIN
100
AcDbLine
 10
63.333333333333336
 20
202.0
 30
0.0
 11
63.333333333333336
 21
294.6666666666667
 31
0.0
  0
LINE
  5
13E
330
17
100
AcDbEntity
  8
S-REBAR-MAIN
100
AcDbLine
 10
70.0
 20
202.0
 30
0.0
 11
70.0
 21
294.6666666666667
 31
0.0
  0
LINE
  5
13F
330
17
100
AcDbEntity
  8
S-REBAR-MAIN
100
AcDbLine
 10
76.66666666666667
 20
202.0
 30
0.0
 11
76.66666666666667
 21
294.6666666666667
 31
0.0
  0
LINE
  5
140
330
17
100
AcDbEntity
  8
S-REBAR-MAIN
100
AcDbLine
 10
110.0
 20
202.0
 30
0.0
 11
110.0
 21
294.6666666666667
 31
0.0
  0
LINE
  5
141
330
17
100
AcDbEntity
  8
S-REBAR-MAIN
100
AcDbLine
 10
116.66666666666666
 20
202.0
 30
0.0
 11
116.66666666666666
 21
294.6666666666667
 31
0.0
  0
LINE
  5
142
330
17
100
AcDbEntity
  8
S-REBAR-MAIN
100
AcDbLine
 10
123.33333333333334
 20
202.0
 30
0.0
 11
123.33333333333334
 21
294.6666666666667
 31
0.0
  0
LINE
  5
143
330
17
100
AcDbEntity
  8
S-REBAR-MAIN
100
AcDbLine
 10
62.0
 20
283.3333333333333
 30
0.0
 11
124.66666666666667
 21
283.3333333333333
 31
0.0
  0
LINE
  5
144
330
17
100
AcDbEntity
  8
S-REBAR-MAIN
100
AcDbLine
 10
62.0
 20
290.0
 30
0.0
 11
124.66666666666667
 21
290.0
 31
0.0
  0
DIMENSION
  5
145
330
17
100
AcDbEntity
  8
S-DIM
100
AcDbDimension
280
0
  2
*D4
  3
SC-DIM
 10
76.66666666666667
 20
186.66666666666666
 30
0.0
 11
93.33333333333334
 21
188.36666666666665
 31
0.0
 70
32
 71
5
  1
<>
100
AcDbAlignedDimension
 13
76.66666666666667
 23
200.0
 33
0.0
 14
110.0
 24
200.0
 34
0.0
 50
0.0
100
AcDbRotatedDimension
1001
ACAD
1000
DSTYLE
1002
{
1070
144
1040
30.0
1002
}
  0
DIMENSION
  5
154
330
17
100
AcDbEntity
  8
S-DIM
100
AcDbDimension
280
0
  2
*D5
  3
SC-DIM
 10
46.666666666666664
 20
200.0
 30
0.0
 11
44.96666666666666
 21
235.0
 31
0.0
 70
32
 71
5
  1
<>
100
AcDbAlignedDimension
 13
76.66666666666667
 23
200.0
 33
0.0
 14
76.66666666666667
 24
270.0
 34
0.0
 50
90.0
100
AcDbRotatedDimension
1001
ACAD
1000
DSTYLE
1002
{
1070
144
1040
30.0
1002
}
  0
INSERT
  5
163
330
17
100
AcDbEntity
  8
S-CALLOUT
100
AcDbBlockReference
  2
BARMARK
 10
94.0
 20
288.0
 30
0.0
  0
TEXT
  5
165
330
17
100
AcDbEntity
  8
S-CALLOUT
100
AcDbText
 10
94.0
 20
288.0
 30
0.0
 40
2.0
  1
E08A
  7
OpenSans
 72
1
 11
94.0
 21
288.0
 31
0.0
100
AcDbText
 73
2
  0
LEADER
  5
166
330
17
100
AcDbEntity
  8
S-CALLOUT
100
AcDbLeader
  3
SC-DIM
 73
3
 76
2
 10
70.0
 20
246.66666666666666
 30
0.0
 10
94.0
 20
288.0
 30
0.0
  0
INSERT
  5
167
330
17
100
AcDbEntity
  8
S-CALLOUT
100
AcDbBlockReference
  2
BARMARK
 10
128.0
 20
286.0
 30
0.0
  0
TEXT
  5
169
330
17
100
AcDbEntity
  8
S-CALLOUT
100
AcDbText
 10
128.0
 20
286.0
 30
0.0
 40
2.0
  1
E10
  7
OpenSans
 72
1
 11
128.0
 21
286.0
 31
0.0
100
AcDbText
 73
2
  0
LEADER
  5
16A
330
17
100
AcDbEntity
  8
S-CALLOUT
100
AcDbLeader
  3
SC-DIM
 73
3
 76
2
 10
93.33333333333334
 20
275.6666666666667
 30
0.0
 10
128.0
 20
286.0
 30
0.0
  0
TEXT
  5
16B
330
17
100
AcDbEntity
  8
S-TITLE
100
AcDbText
 10
30.0
 20
316.0
 30
0.0
 40
3.5
  1
V2   HEADWALL ELEVATION AND ENTRY DOOR 1000 x 2100
  7
OpenSans
 11
30.0
 21
316.0
 31
0.0
100
AcDbText
  0
LINE
  5
16C
330
17
100
AcDbEntity
  8
S-TITLE
100
AcDbLine
 10
30.0
 20
314.2
 30
0.0
 11
173.90321500334898
 21
314.2
 31
0.0
  0
TEXT
  5
16D
330
17
100
AcDbEntity
  8
S-TEXT
100
AcDbText
 10
30.0
 20
308.8
 30
0.0
 40
2.0
  1
SCALE 1:30
  7
OpenSans
 11
30.0
 21
308.8
 31
0.0
100
AcDbText
  0
LWPOLYLINE
  5
16E
330
17
100
AcDbEntity
  8
S-CONCRETE
100
AcDbPolyline
 90
4
 70
1
 10
200.0
 20
220.0
 10
280.0
 20
220.0
 10
280.0
 20
235.0
 10
200.0
 20
235.0
  0
LWPOLYLINE
  5
16F
330
17
100
AcDbEntity
  8
S-CONCRETE
100
AcDbPolyline
 90
4
 70
1
 10
285.0
 20
220.0
 10
360.0
 20
220.0
 10
360.0
 20
265.0
 10
285.0
 20
265.0
  0
HATCH
  5
170
330
17
100
AcDbEntity
  8
S-HATCH
 62
7
100
AcDbHatch
 10
0.0
 20
0.0
 30
0.0
210
0.0
220
0.0
230
1.0
  2
ANSI31
 70
0
 71
0
 91
1
 92
3
 72
0
 73
1
 93
4
 10
200.0
 20
220.0
 10
280.0
 20
220.0
 10
280.0
 20
235.0
 10
200.0
 20
235.0
 97
0
 75
1
 76
1
 52
0.0
 41
1.6
 77
0
 78
1
 53
45.0
 43
0.0
 44
0.0
 45
-3.5921024485
 46
3.5921024485
 79
0
 98
0
  0
HATCH
  5
171
330
17
100
AcDbEntity
  8
S-HATCH
 62
7
100
AcDbHatch
 10
0.0
 20
0.0
 30
0.0
210
0.0
220
0.0
230
1.0
  2
ANSI31
 70
0
 71
0
 91
1
 92
3
 72
0
 73
1
 93
4
 10
285.0
 20
220.0
 10
360.0
 20
220.0
 10
360.0
 20
265.0
 10
285.0
 20
265.0
 97
0
 75
1
 76
1
 52
0.0
 41
1.6
 77
0
 78
1
 53
45.0
 43
0.0
 44
0.0
 45
-3.5921024485
 46
3.5921024485
 79
0
 98
0
  0
LINE
  5
172
330
17
100
AcDbEntity
  8
S-BLAST
100
AcDbLine
 10
282.5
 20
210.0
 30
0.0
 11
282.5
 21
275.0
 31
0.0
  0
TEXT
  5
173
330
17
100
AcDbEntity
  8
S-BLAST
100
AcDbText
 10
260.0
 20
282.5
 30
0.0
 40
1.4
  1
MOVEMENT JOINT
  7
OpenSans
 11
260.0
 21
282.5
 31
0.0
100
AcDbText
  0
CIRCLE
  5
174
330
17
100
AcDbEntity
  8
S-REBAR-MAIN
100
AcDbCircle
 10
205.0
 20
222.8
 30
0.0
 40
0.7
  0
HATCH
  5
175
330
17
100
AcDbEntity
  8
S-REBAR-MAIN
 62
1
100
AcDbHatch
 10
0.0
 20
0.0
 30
0.0
210
0.0
220
0.0
230
1.0
  2
SOLID
 70
1
 71
0
 91
1
 92
3
 72
0
 73
1
 93
16
 10
205.7
 20
222.8
 10
205.6467156727579
 20
223.06787840265557
 10
205.4949747468306
 20
223.2949747468306
 10
205.26787840265555
 20
223.4467156727579
 10
205.0
 20
223.5
 10
204.73212159734445
 20
223.4467156727579
 10
204.5050252531694
 20
223.2949747468306
 10
204.3532843272421
 20
223.06787840265557
 10
204.3
 20
222.8
 10
204.3532843272421
 20
222.53212159734446
 10
204.5050252531694
 20
222.30502525316942
 10
204.73212159734445
 20
222.15328432724212
 10
205.0
 20
222.10000000000002
 10
205.26787840265555
 20
222.15328432724212
 10
205.4949747468306
 20
222.30502525316942
 10
205.6467156727579
 20
222.53212159734446
 97
0
 75
0
 76
1
 98
0
  0
CIRCLE
  5
176
330
17
100
AcDbEntity
  8
S-REBAR-MAIN
100
AcDbCircle
 10
215.0
 20
222.8
 30
0.0
 40
0.7
  0
HATCH
  5
177
330
17
100
AcDbEntity
  8
S-REBAR-MAIN
 62
1
100
AcDbHatch
 10
0.0
 20
0.0
 30
0.0
210
0.0
220
0.0
230
1.0
  2
SOLID
 70
1
 71
0
 91
1
 92
3
 72
0
 73
1
 93
16
 10
215.7
 20
222.8
 10
215.6467156727579
 20
223.06787840265557
 10
215.4949747468306
 20
223.2949747468306
 10
215.26787840265555
 20
223.4467156727579
 10
215.0
 20
223.5
 10
214.73212159734445
 20
223.4467156727579
 10
214.5050252531694
 20
223.2949747468306
 10
214.3532843272421
 20
223.06787840265557
 10
214.3
 20
222.8
 10
214.3532843272421
 20
222.53212159734446
 10
214.5050252531694
 20
222.30502525316942
 10
214.73212159734445
 20
222.15328432724212
 10
215.0
 20
222.10000000000002
 10
215.26787840265555
 20
222.15328432724212
 10
215.4949747468306
 20
222.30502525316942
 10
215.6467156727579
 20
222.53212159734446
 97
0
 75
0
 76
1
 98
0
  0
CIRCLE
  5
178
330
17
100
AcDbEntity
  8
S-REBAR-MAIN
100
AcDbCircle
 10
225.0
 20
222.8
 30
0.0
 40
0.7
  0
HATCH
  5
179
330
17
100
AcDbEntity
  8
S-REBAR-MAIN
 62
1
100
AcDbHatch
 10
0.0
 20
0.0
 30
0.0
210
0.0
220
0.0
230
1.0
  2
SOLID
 70
1
 71
0
 91
1
 92
3
 72
0
 73
1
 93
16
 10
225.7
 20
222.8
 10
225.6467156727579
 20
223.06787840265557
 10
225.4949747468306
 20
223.2949747468306
 10
225.26787840265555
 20
223.4467156727579
 10
225.0
 20
223.5
 10
224.73212159734445
 20
223.4467156727579
 10
224.5050252531694
 20
223.2949747468306
 10
224.3532843272421
 20
223.06787840265557
 10
224.3
 20
222.8
 10
224.3532843272421
 20
222.53212159734446
 10
224.5050252531694
 20
222.30502525316942
 10
224.73212159734445
 20
222.15328432724212
 10
225.0
 20
222.10000000000002
 10
225.26787840265555
 20
222.15328432724212
 10
225.4949747468306
 20
222.30502525316942
 10
225.6467156727579
 20
222.53212159734446
 97
0
 75
0
 76
1
 98
0
  0
CIRCLE
  5
17A
330
17
100
AcDbEntity
  8
S-REBAR-MAIN
100
AcDbCircle
 10
235.0
 20
222.8
 30
0.0
 40
0.7
  0
HATCH
  5
17B
330
17
100
AcDbEntity
  8
S-REBAR-MAIN
 62
1
100
AcDbHatch
 10
0.0
 20
0.0
 30
0.0
210
0.0
220
0.0
230
1.0
  2
SOLID
 70
1
 71
0
 91
1
 92
3
 72
0
 73
1
 93
16
 10
235.7
 20
222.8
 10
235.6467156727579
 20
223.06787840265557
 10
235.4949747468306
 20
223.2949747468306
 10
235.26787840265555
 20
223.4467156727579
 10
235.0
 20
223.5
 10
234.73212159734445
 20
223.4467156727579
 10
234.5050252531694
 20
223.2949747468306
 10
234.3532843272421
 20
223.06787840265557
 10
234.3
 20
222.8
 10
234.3532843272421
 20
222.53212159734446
 10
234.5050252531694
 20
222.30502525316942
 10
234.73212159734445
 20
222.15328432724212
 10
235.0
 20
222.10000000000002
 10
235.26787840265555
 20
222.15328432724212
 10
235.4949747468306
 20
222.30502525316942
 10
235.6467156727579
 20
222.53212159734446
 97
0
 75
0
 76
1
 98
0
  0
CIRCLE
  5
17C
330
17
100
AcDbEntity
  8
S-REBAR-MAIN
100
AcDbCircle
 10
245.0
 20
222.8
 30
0.0
 40
0.7
  0
HATCH
  5
17D
330
17
100
AcDbEntity
  8
S-REBAR-MAIN
 62
1
100
AcDbHatch
 10
0.0
 20
0.0
 30
0.0
210
0.0
220
0.0
230
1.0
  2
SOLID
 70
1
 71
0
 91
1
 92
3
 72
0
 73
1
 93
16
 10
245.7
 20
222.8
 10
245.6467156727579
 20
223.06787840265557
 10
245.4949747468306
 20
223.2949747468306
 10
245.26787840265555
 20
223.4467156727579
 10
245.0
 20
223.5
 10
244.73212159734445
 20
223.4467156727579
 10
244.5050252531694
 20
223.2949747468306
 10
244.3532843272421
 20
223.06787840265557
 10
244.3
 20
222.8
 10
244.3532843272421
 20
222.53212159734446
 10
244.5050252531694
 20
222.30502525316942
 10
244.73212159734445
 20
222.15328432724212
 10
245.0
 20
222.10000000000002
 10
245.26787840265555
 20
222.15328432724212
 10
245.4949747468306
 20
222.30502525316942
 10
245.6467156727579
 20
222.53212159734446
 97
0
 75
0
 76
1
 98
0
  0
CIRCLE
  5
17E
330
17
100
AcDbEntity
  8
S-REBAR-MAIN
100
AcDbCircle
 10
255.0
 20
222.8
 30
0.0
 40
0.7
  0
HATCH
  5
17F
330
17
100
AcDbEntity
  8
S-REBAR-MAIN
 62
1
100
AcDbHatch
 10
0.0
 20
0.0
 30
0.0
210
0.0
220
0.0
230
1.0
  2
SOLID
 70
1
 71
0
 91
1
 92
3
 72
0
 73
1
 93
16
 10
255.7
 20
222.8
 10
255.6467156727579
 20
223.06787840265557
 10
255.4949747468306
 20
223.2949747468306
 10
255.26787840265555
 20
223.4467156727579
 10
255.0
 20
223.5
 10
254.73212159734445
 20
223.4467156727579
 10
254.5050252531694
 20
223.2949747468306
 10
254.3532843272421
 20
223.06787840265557
 10
254.3
 20
222.8
 10
254.3532843272421
 20
222.53212159734446
 10
254.5050252531694
 20
222.30502525316942
 10
254.73212159734445
 20
222.15328432724212
 10
255.0
 20
222.10000000000002
 10
255.26787840265555
 20
222.15328432724212
 10
255.4949747468306
 20
222.30502525316942
 10
255.6467156727579
 20
222.53212159734446
 97
0
 75
0
 76
1
 98
0
  0
CIRCLE
  5
180
330
17
100
AcDbEntity
  8
S-REBAR-MAIN
100
AcDbCircle
 10
265.0
 20
222.8
 30
0.0
 40
0.7
  0
HATCH
  5
181
330
17
100
AcDbEntity
  8
S-REBAR-MAIN
 62
1
100
AcDbHatch
 10
0.0
 20
0.0
 30
0.0
210
0.0
220
0.0
230
1.0
  2
SOLID
 70
1
 71
0
 91
1
 92
3
 72
0
 73
1
 93
16
 10
265.7
 20
222.8
 10
265.6467156727579
 20
223.06787840265557
 10
265.49497474683056
 20
223.2949747468306
 10
265.2678784026556
 20
223.4467156727579
 10
265.0
 20
223.5
 10
264.7321215973444
 20
223.4467156727579
 10
264.50502525316944
 20
223.2949747468306
 10
264.3532843272421
 20
223.06787840265557
 10
264.3
 20
222.8
 10
264.3532843272421
 20
222.53212159734446
 10
264.50502525316944
 20
222.30502525316942
 10
264.7321215973444
 20
222.15328432724212
 10
265.0
 20
222.10000000000002
 10
265.2678784026556
 20
222.15328432724212
 10
265.49497474683056
 20
222.30502525316942
 10
265.6467156727579
 20
222.53212159734446
 97
0
 75
0
 76
1
 98
0
  0
CIRCLE
  5
182
330
17
100
AcDbEntity
  8
S-REBAR-MAIN
100
AcDbCircle
 10
275.0
 20
222.8
 30
0.0
 40
0.7
  0
HATCH
  5
183
330
17
100
AcDbEntity
  8
S-REBAR-MAIN
 62
1
100
AcDbHatch
 10
0.0
 20
0.0
 30
0.0
210
0.0
220
0.0
230
1.0
  2
SOLID
 70
1
 71
0
 91
1
 92
3
 72
0
 73
1
 93
16
 10
275.7
 20
222.8
 10
275.6467156727579
 20
223.06787840265557
 10
275.49497474683056
 20
223.2949747468306
 10
275.2678784026556
 20
223.4467156727579
 10
275.0
 20
223.5
 10
274.7321215973444
 20
223.4467156727579
 10
274.50502525316944
 20
223.2949747468306
 10
274.3532843272421
 20
223.06787840265557
 10
274.3
 20
222.8
 10
274.3532843272421
 20
222.53212159734446
 10
274.50502525316944
 20
222.30502525316942
 10
274.7321215973444
 20
222.15328432724212
 10
275.0
 20
222.10000000000002
 10
275.2678784026556
 20
222.15328432724212
 10
275.49497474683056
 20
222.30502525316942
 10
275.6467156727579
 20
222.53212159734446
 97
0
 75
0
 76
1
 98
0
  0
CIRCLE
  5
184
330
17
100
AcDbEntity
  8
S-REBAR-MAIN
100
AcDbCircle
 10
205.0
 20
232.2
 30
0.0
 40
0.7
  0
HATCH
  5
185
330
17
100
AcDbEntity
  8
S-REBAR-MAIN
 62
1
100
AcDbHatch
 10
0.0
 20
0.0
 30
0.0
210
0.0
220
0.0
230
1.0
  2
SOLID
 70
1
 71
0
 91
1
 92
3
 72
0
 73
1
 93
16
 10
205.7
 20
232.2
 10
205.6467156727579
 20
232.46787840265554
 10
205.4949747468306
 20
232.69497474683058
 10
205.26787840265555
 20
232.84671567275788
 10
205.0
 20
232.89999999999998
 10
204.73212159734445
 20
232.84671567275788
 10
204.5050252531694
 20
232.69497474683058
 10
204.3532843272421
 20
232.46787840265554
 10
204.3
 20
232.2
 10
204.3532843272421
 20
231.93212159734443
 10
204.5050252531694
 20
231.7050252531694
 10
204.73212159734445
 20
231.5532843272421
 10
205.0
 20
231.5
 10
205.26787840265555
 20
231.5532843272421
 10
205.4949747468306
 20
231.7050252531694
 10
205.6467156727579
 20
231.93212159734443
 97
0
 75
0
 76
1
 98
0
  0
CIRCLE
  5
186
330
17
100
AcDbEntity
  8
S-REBAR-MAIN
100
AcDbCircle
 10
215.0
 20
232.2
 30
0.0
 40
0.7
  0
HATCH
  5
187
330
17
100
AcDbEntity
  8
S-REBAR-MAIN
 62
1
100
AcDbHatch
 10
0.0
 20
0.0
 30
0.0
210
0.0
220
0.0
230
1.0
  2
SOLID
 70
1
 71
0
 91
1
 92
3
 72
0
 73
1
 93
16
 10
215.7
 20
232.2
 10
215.6467156727579
 20
232.46787840265554
 10
215.4949747468306
 20
232.69497474683058
 10
215.26787840265555
 20
232.84671567275788
 10
215.0
 20
232.89999999999998
 10
214.73212159734445
 20
232.84671567275788
 10
214.5050252531694
 20
232.69497474683058
 10
214.3532843272421
 20
232.46787840265554
 10
214.3
 20
232.2
 10
214.3532843272421
 20
231.93212159734443
 10
214.5050252531694
 20
231.7050252531694
 10
214.73212159734445
 20
231.5532843272421
 10
215.0
 20
231.5
 10
215.26787840265555
 20
231.5532843272421
 10
215.4949747468306
 20
231.7050252531694
 10
215.6467156727579
 20
231.93212159734443
 97
0
 75
0
 76
1
 98
0
  0
CIRCLE
  5
188
330
17
100
AcDbEntity
  8
S-REBAR-MAIN
100
AcDbCircle
 10
225.0
 20
232.2
 30
0.0
 40
0.7
  0
HATCH
  5
189
330
17
100
AcDbEntity
  8
S-REBAR-MAIN
 62
1
100
AcDbHatch
 10
0.0
 20
0.0
 30
0.0
210
0.0
220
0.0
230
1.0
  2
SOLID
 70
1
 71
0
 91
1
 92
3
 72
0
 73
1
 93
16
 10
225.7
 20
232.2
 10
225.6467156727579
 20
232.46787840265554
 10
225.4949747468306
 20
232.69497474683058
 10
225.26787840265555
 20
232.84671567275788
 10
225.0
 20
232.89999999999998
 10
224.73212159734445
 20
232.84671567275788
 10
224.5050252531694
 20
232.69497474683058
 10
224.3532843272421
 20
232.46787840265554
 10
224.3
 20
232.2
 10
224.3532843272421
 20
231.93212159734443
 10
224.5050252531694
 20
231.7050252531694
 10
224.73212159734445
 20
231.5532843272421
 10
225.0
 20
231.5
 10
225.26787840265555
 20
231.5532843272421
 10
225.4949747468306
 20
231.7050252531694
 10
225.6467156727579
 20
231.93212159734443
 97
0
 75
0
 76
1
 98
0
  0
CIRCLE
  5
18A
330
17
100
AcDbEntity
  8
S-REBAR-MAIN
100
AcDbCircle
 10
235.0
 20
232.2
 30
0.0
 40
0.7
  0
HATCH
  5
18B
330
17
100
AcDbEntity
  8
S-REBAR-MAIN
 62
1
100
AcDbHatch
 10
0.0
 20
0.0
 30
0.0
210
0.0
220
0.0
230
1.0
  2
SOLID
 70
1
 71
0
 91
1
 92
3
 72
0
 73
1
 93
16
 10
235.7
 20
232.2
 10
235.6467156727579
 20
232.46787840265554
 10
235.4949747468306
 20
232.69497474683058
 10
235.26787840265555
 20
232.84671567275788
 10
235.0
 20
232.89999999999998
 10
234.73212159734445
 20
232.84671567275788
 10
234.5050252531694
 20
232.69497474683058
 10
234.3532843272421
 20
232.46787840265554
 10
234.3
 20
232.2
 10
234.3532843272421
 20
231.93212159734443
 10
234.5050252531694
 20
231.7050252531694
 10
234.73212159734445
 20
231.5532843272421
 10
235.0
 20
231.5
 10
235.26787840265555
 20
231.5532843272421
 10
235.4949747468306
 20
231.7050252531694
 10
235.6467156727579
 20
231.93212159734443
 97
0
 75
0
 76
1
 98
0
  0
CIRCLE
  5
18C
330
17
100
AcDbEntity
  8
S-REBAR-MAIN
100
AcDbCircle
 10
245.0
 20
232.2
 30
0.0
 40
0.7
  0
HATCH
  5
18D
330
17
100
AcDbEntity
  8
S-REBAR-MAIN
 62
1
100
AcDbHatch
 10
0.0
 20
0.0
 30
0.0
210
0.0
220
0.0
230
1.0
  2
SOLID
 70
1
 71
0
 91
1
 92
3
 72
0
 73
1
 93
16
 10
245.7
 20
232.2
 10
245.6467156727579
 20
232.46787840265554
 10
245.4949747468306
 20
232.69497474683058
 10
245.26787840265555
 20
232.84671567275788
 10
245.0
 20
232.89999999999998
 10
244.73212159734445
 20
232.84671567275788
 10
244.5050252531694
 20
232.69497474683058
 10
244.3532843272421
 20
232.46787840265554
 10
244.3
 20
232.2
 10
244.3532843272421
 20
231.93212159734443
 10
244.5050252531694
 20
231.7050252531694
 10
244.73212159734445
 20
231.5532843272421
 10
245.0
 20
231.5
 10
245.26787840265555
 20
231.5532843272421
 10
245.4949747468306
 20
231.7050252531694
 10
245.6467156727579
 20
231.93212159734443
 97
0
 75
0
 76
1
 98
0
  0
CIRCLE
  5
18E
330
17
100
AcDbEntity
  8
S-REBAR-MAIN
100
AcDbCircle
 10
255.0
 20
232.2
 30
0.0
 40
0.7
  0
HATCH
  5
18F
330
17
100
AcDbEntity
  8
S-REBAR-MAIN
 62
1
100
AcDbHatch
 10
0.0
 20
0.0
 30
0.0
210
0.0
220
0.0
230
1.0
  2
SOLID
 70
1
 71
0
 91
1
 92
3
 72
0
 73
1
 93
16
 10
255.7
 20
232.2
 10
255.6467156727579
 20
232.46787840265554
 10
255.4949747468306
 20
232.69497474683058
 10
255.26787840265555
 20
232.84671567275788
 10
255.0
 20
232.89999999999998
 10
254.73212159734445
 20
232.84671567275788
 10
254.5050252531694
 20
232.69497474683058
 10
254.3532843272421
 20
232.46787840265554
 10
254.3
 20
232.2
 10
254.3532843272421
 20
231.93212159734443
 10
254.5050252531694
 20
231.7050252531694
 10
254.73212159734445
 20
231.5532843272421
 10
255.0
 20
231.5
 10
255.26787840265555
 20
231.5532843272421
 10
255.4949747468306
 20
231.7050252531694
 10
255.6467156727579
 20
231.93212159734443
 97
0
 75
0
 76
1
 98
0
  0
CIRCLE
  5
190
330
17
100
AcDbEntity
  8
S-REBAR-MAIN
100
AcDbCircle
 10
265.0
 20
232.2
 30
0.0
 40
0.7
  0
HATCH
  5
191
330
17
100
AcDbEntity
  8
S-REBAR-MAIN
 62
1
100
AcDbHatch
 10
0.0
 20
0.0
 30
0.0
210
0.0
220
0.0
230
1.0
  2
SOLID
 70
1
 71
0
 91
1
 92
3
 72
0
 73
1
 93
16
 10
265.7
 20
232.2
 10
265.6467156727579
 20
232.46787840265554
 10
265.49497474683056
 20
232.69497474683058
 10
265.2678784026556
 20
232.84671567275788
 10
265.0
 20
232.89999999999998
 10
264.7321215973444
 20
232.84671567275788
 10
264.50502525316944
 20
232.69497474683058
 10
264.3532843272421
 20
232.46787840265554
 10
264.3
 20
232.2
 10
264.3532843272421
 20
231.93212159734443
 10
264.50502525316944
 20
231.7050252531694
 10
264.7321215973444
 20
231.5532843272421
 10
265.0
 20
231.5
 10
265.2678784026556
 20
231.5532843272421
 10
265.49497474683056
 20
231.7050252531694
 10
265.6467156727579
 20
231.93212159734443
 97
0
 75
0
 76
1
 98
0
  0
CIRCLE
  5
192
330
17
100
AcDbEntity
  8
S-REBAR-MAIN
100
AcDbCircle
 10
275.0
 20
232.2
 30
0.0
 40
0.7
  0
HATCH
  5
193
330
17
100
AcDbEntity
  8
S-REBAR-MAIN
 62
1
100
AcDbHatch
 10
0.0
 20
0.0
 30
0.0
210
0.0
220
0.0
230
1.0
  2
SOLID
 70
1
 71
0
 91
1
 92
3
 72
0
 73
1
 93
16
 10
275.7
 20
232.2
 10
275.6467156727579
 20
232.46787840265554
 10
275.49497474683056
 20
232.69497474683058
 10
275.2678784026556
 20
232.84671567275788
 10
275.0
 20
232.89999999999998
 10
274.7321215973444
 20
232.84671567275788
 10
274.50502525316944
 20
232.69497474683058
 10
274.3532843272421
 20
232.46787840265554
 10
274.3
 20
232.2
 10
274.3532843272421
 20
231.93212159734443
 10
274.50502525316944
 20
231.7050252531694
 10
274.7321215973444
 20
231.5532843272421
 10
275.0
 20
231.5
 10
275.2678784026556
 20
231.5532843272421
 10
275.49497474683056
 20
231.7050252531694
 10
275.6467156727579
 20
231.93212159734443
 97
0
 75
0
 76
1
 98
0
  0
CIRCLE
  5
194
330
17
100
AcDbEntity
  8
S-REBAR-MAIN
100
AcDbCircle
 10
290.0
 20
222.8
 30
0.0
 40
0.7
  0
HATCH
  5
195
330
17
100
AcDbEntity
  8
S-REBAR-MAIN
 62
1
100
AcDbHatch
 10
0.0
 20
0.0
 30
0.0
210
0.0
220
0.0
230
1.0
  2
SOLID
 70
1
 71
0
 91
1
 92
3
 72
0
 73
1
 93
16
 10
290.7
 20
222.8
 10
290.6467156727579
 20
223.06787840265557
 10
290.49497474683056
 20
223.2949747468306
 10
290.2678784026556
 20
223.4467156727579
 10
290.0
 20
223.5
 10
289.7321215973444
 20
223.4467156727579
 10
289.50502525316944
 20
223.2949747468306
 10
289.3532843272421
 20
223.06787840265557
 10
289.3
 20
222.8
 10
289.3532843272421
 20
222.53212159734446
 10
289.50502525316944
 20
222.30502525316942
 10
289.7321215973444
 20
222.15328432724212
 10
290.0
 20
222.10000000000002
 10
290.2678784026556
 20
222.15328432724212
 10
290.49497474683056
 20
222.30502525316942
 10
290.6467156727579
 20
222.53212159734446
 97
0
 75
0
 76
1
 98
0
  0
CIRCLE
  5
196
330
17
100
AcDbEntity
  8
S-REBAR-MAIN
100
AcDbCircle
 10
297.5
 20
222.8
 30
0.0
 40
0.7
  0
HATCH
  5
197
330
17
100
AcDbEntity
  8
S-REBAR-MAIN
 62
1
100
AcDbHatch
 10
0.0
 20
0.0
 30
0.0
210
0.0
220
0.0
230
1.0
  2
SOLID
 70
1
 71
0
 91
1
 92
3
 72
0
 73
1
 93
16
 10
298.2
 20
222.8
 10
298.1467156727579
 20
223.06787840265557
 10
297.99497474683056
 20
223.2949747468306
 10
297.7678784026556
 20
223.4467156727579
 10
297.5
 20
223.5
 10
297.2321215973444
 20
223.4467156727579
 10
297.00502525316944
 20
223.2949747468306
 10
296.8532843272421
 20
223.06787840265557
 10
296.8
 20
222.8
 10
296.8532843272421
 20
222.53212159734446
 10
297.00502525316944
 20
222.30502525316942
 10
297.2321215973444
 20
222.15328432724212
 10
297.5
 20
222.10000000000002
 10
297.7678784026556
 20
222.15328432724212
 10
297.99497474683056
 20
222.30502525316942
 10
298.1467156727579
 20
222.53212159734446
 97
0
 75
0
 76
1
 98
0
  0
CIRCLE
  5
198
330
17
100
AcDbEntity
  8
S-REBAR-MAIN
100
AcDbCircle
 10
305.0
 20
222.8
 30
0.0
 40
0.7
  0
HATCH
  5
199
330
17
100
AcDbEntity
  8
S-REBAR-MAIN
 62
1
100
AcDbHatch
 10
0.0
 20
0.0
 30
0.0
210
0.0
220
0.0
230
1.0
  2
SOLID
 70
1
 71
0
 91
1
 92
3
 72
0
 73
1
 93
16
 10
305.7
 20
222.8
 10
305.6467156727579
 20
223.06787840265557
 10
305.49497474683056
 20
223.2949747468306
 10
305.2678784026556
 20
223.4467156727579
 10
305.0
 20
223.5
 10
304.7321215973444
 20
223.4467156727579
 10
304.50502525316944
 20
223.2949747468306
 10
304.3532843272421
 20
223.06787840265557
 10
304.3
 20
222.8
 10
304.3532843272421
 20
222.53212159734446
 10
304.50502525316944
 20
222.30502525316942
 10
304.7321215973444
 20
222.15328432724212
 10
305.0
 20
222.10000000000002
 10
305.2678784026556
 20
222.15328432724212
 10
305.49497474683056
 20
222.30502525316942
 10
305.6467156727579
 20
222.53212159734446
 97
0
 75
0
 76
1
 98
0
  0
CIRCLE
  5
19A
330
17
100
AcDbEntity
  8
S-REBAR-MAIN
100
AcDbCircle
 10
312.5
 20
222.8
 30
0.0
 40
0.7
  0
HATCH
  5
19B
330
17
100
AcDbEntity
  8
S-REBAR-MAIN
 62
1
100
AcDbHatch
 10
0.0
 20
0.0
 30
0.0
210
0.0
220
0.0
230
1.0
  2
SOLID
 70
1
 71
0
 91
1
 92
3
 72
0
 73
1
 93
16
 10
313.2
 20
222.8
 10
313.1467156727579
 20
223.06787840265557
 10
312.99497474683056
 20
223.2949747468306
 10
312.7678784026556
 20
223.4467156727579
 10
312.5
 20
223.5
 10
312.2321215973444
 20
223.4467156727579
 10
312.00502525316944
 20
223.2949747468306
 10
311.8532843272421
 20
223.06787840265557
 10
311.8
 20
222.8
 10
311.8532843272421
 20
222.53212159734446
 10
312.00502525316944
 20
222.30502525316942
 10
312.2321215973444
 20
222.15328432724212
 10
312.5
 20
222.10000000000002
 10
312.7678784026556
 20
222.15328432724212
 10
312.99497474683056
 20
222.30502525316942
 10
313.1467156727579
 20
222.53212159734446
 97
0
 75
0
 76
1
 98
0
  0
CIRCLE
  5
19C
330
17
100
AcDbEntity
  8
S-REBAR-MAIN
100
AcDbCircle
 10
320.0
 20
222.8
 30
0.0
 40
0.7
  0
HATCH
  5
19D
330
17
100
AcDbEntity
  8
S-REBAR-MAIN
 62
1
100
AcDbHatch
 10
0.0
 20
0.0
 30
0.0
210
0.0
220
0.0
230
1.0
  2
SOLID
 70
1
 71
0
 91
1
 92
3
 72
0
 73
1
 93
16
 10
320.7
 20
222.8
 10
320.6467156727579
 20
223.06787840265557
 10
320.49497474683056
 20
223.2949747468306
 10
320.2678784026556
 20
223.4467156727579
 10
320.0
 20
223.5
 10
319.7321215973444
 20
223.4467156727579
 10
319.50502525316944
 20
223.2949747468306
 10
319.3532843272421
 20
223.06787840265557
 10
319.3
 20
222.8
 10
319.3532843272421
 20
222.53212159734446
 10
319.50502525316944
 20
222.30502525316942
 10
319.7321215973444
 20
222.15328432724212
 10
320.0
 20
222.10000000000002
 10
320.2678784026556
 20
222.15328432724212
 10
320.49497474683056
 20
222.30502525316942
 10
320.6467156727579
 20
222.53212159734446
 97
0
 75
0
 76
1
 98
0
  0
CIRCLE
  5
19E
330
17
100
AcDbEntity
  8
S-REBAR-MAIN
100
AcDbCircle
 10
327.5
 20
222.8
 30
0.0
 40
0.7
  0
HATCH
  5
19F
330
17
100
AcDbEntity
  8
S-REBAR-MAIN
 62
1
100
AcDbHatch
 10
0.0
 20
0.0
 30
0.0
210
0.0
220
0.0
230
1.0
  2
SOLID
 70
1
 71
0
 91
1
 92
3
 72
0
 73
1
 93
16
 10
328.2
 20
222.8
 10
328.1467156727579
 20
223.06787840265557
 10
327.99497474683056
 20
223.2949747468306
 10
327.7678784026556
 20
223.4467156727579
 10
327.5
 20
223.5
 10
327.2321215973444
 20
223.4467156727579
 10
327.00502525316944
 20
223.2949747468306
 10
326.8532843272421
 20
223.06787840265557
 10
326.8
 20
222.8
 10
326.8532843272421
 20
222.53212159734446
 10
327.00502525316944
 20
222.30502525316942
 10
327.2321215973444
 20
222.15328432724212
 10
327.5
 20
222.10000000000002
 10
327.7678784026556
 20
222.15328432724212
 10
327.99497474683056
 20
222.30502525316942
 10
328.1467156727579
 20
222.53212159734446
 97
0
 75
0
 76
1
 98
0
  0
CIRCLE
  5
1A0
330
17
100
AcDbEntity
  8
S-REBAR-MAIN
100
AcDbCircle
 10
335.0
 20
222.8
 30
0.0
 40
0.7
  0
HATCH
  5
1A1
330
17
100
AcDbEntity
  8
S-REBAR-MAIN
 62
1
100
AcDbHatch
 10
0.0
 20
0.0
 30
0.0
210
0.0
220
0.0
230
1.0
  2
SOLID
 70
1
 71
0
 91
1
 92
3
 72
0
 73
1
 93
16
 10
335.7
 20
222.8
 10
335.6467156727579
 20
223.06787840265557
 10
335.49497474683056
 20
223.2949747468306
 10
335.2678784026556
 20
223.4467156727579
 10
335.0
 20
223.5
 10
334.7321215973444
 20
223.4467156727579
 10
334.50502525316944
 20
223.2949747468306
 10
334.3532843272421
 20
223.06787840265557
 10
334.3
 20
222.8
 10
334.3532843272421
 20
222.53212159734446
 10
334.50502525316944
 20
222.30502525316942
 10
334.7321215973444
 20
222.15328432724212
 10
335.0
 20
222.10000000000002
 10
335.2678784026556
 20
222.15328432724212
 10
335.49497474683056
 20
222.30502525316942
 10
335.6467156727579
 20
222.53212159734446
 97
0
 75
0
 76
1
 98
0
  0
CIRCLE
  5
1A2
330
17
100
AcDbEntity
  8
S-REBAR-MAIN
100
AcDbCircle
 10
342.5
 20
222.8
 30
0.0
 40
0.7
  0
HATCH
  5
1A3
330
17
100
AcDbEntity
  8
S-REBAR-MAIN
 62
1
100
AcDbHatch
 10
0.0
 20
0.0
 30
0.0
210
0.0
220
0.0
230
1.0
  2
SOLID
 70
1
 71
0
 91
1
 92
3
 72
0
 73
1
 93
16
 10
343.2
 20
222.8
 10
343.1467156727579
 20
223.06787840265557
 10
342.99497474683056
 20
223.2949747468306
 10
342.7678784026556
 20
223.4467156727579
 10
342.5
 20
223.5
 10
342.2321215973444
 20
223.4467156727579
 10
342.00502525316944
 20
223.2949747468306
 10
341.8532843272421
 20
223.06787840265557
 10
341.8
 20
222.8
 10
341.8532843272421
 20
222.53212159734446
 10
342.00502525316944
 20
222.30502525316942
 10
342.2321215973444
 20
222.15328432724212
 10
342.5
 20
222.10000000000002
 10
342.7678784026556
 20
222.15328432724212
 10
342.99497474683056
 20
222.30502525316942
 10
343.1467156727579
 20
222.53212159734446
 97
0
 75
0
 76
1
 98
0
  0
CIRCLE
  5
1A4
330
17
100
AcDbEntity
  8
S-REBAR-MAIN
100
AcDbCircle
 10
350.0
 20
222.8
 30
0.0
 40
0.7
  0
HATCH
  5
1A5
330
17
100
AcDbEntity
  8
S-REBAR-MAIN
 62
1
100
AcDbHatch
 10
0.0
 20
0.0
 30
0.0
210
0.0
220
0.0
230
1.0
  2
SOLID
 70
1
 71
0
 91
1
 92
3
 72
0
 73
1
 93
16
 10
350.7
 20
222.8
 10
350.6467156727579
 20
223.06787840265557
 10
350.49497474683056
 20
223.2949747468306
 10
350.2678784026556
 20
223.4467156727579
 10
350.0
 20
223.5
 10
349.7321215973444
 20
223.4467156727579
 10
349.50502525316944
 20
223.2949747468306
 10
349.3532843272421
 20
223.06787840265557
 10
349.3
 20
222.8
 10
349.3532843272421
 20
222.53212159734446
 10
349.50502525316944
 20
222.30502525316942
 10
349.7321215973444
 20
222.15328432724212
 10
350.0
 20
222.10000000000002
 10
350.2678784026556
 20
222.15328432724212
 10
350.49497474683056
 20
222.30502525316942
 10
350.6467156727579
 20
222.53212159734446
 97
0
 75
0
 76
1
 98
0
  0
TEXT
  5
1A6
330
17
100
AcDbEntity
  8
S-TEXT
100
AcDbText
 10
200.0
 20
185.0
 30
0.0
 40
1.4
  1
STAIRWELL RAFT 300 ON COMPACTED FILL
  7
OpenSans
 11
200.0
 21
185.0
 31
0.0
100
AcDbText
  0
TEXT
  5
1A7
330
17
100
AcDbEntity
  8
S-TEXT
100
AcDbText
 10
287.5
 20
185.0
 30
0.0
 40
1.4
  1
HEADHOUSE / BOX - INDEPENDENT
  7
OpenSans
 11
287.5
 21
185.0
 31
0.0
100
AcDbText
  0
DIMENSION
  5
1A8
330
17
100
AcDbEntity
  8
S-DIM
100
AcDbDimension
280
0
  2
*D6
  3
SC-DIM
 10
180.0
 20
220.0
 30
0.0
 11
178.3
 21
227.5
 31
0.0
 70
32
 71
5
  1
<>
100
AcDbAlignedDimension
 13
200.0
 23
220.0
 33
0.0
 14
200.0
 24
235.0
 34
0.0
 50
90.0
100
AcDbRotatedDimension
1001
ACAD
1000
DSTYLE
1002
{
1070
144
1040
20.0
1002
}
  0
INSERT
  5
1B7
330
17
100
AcDbEntity
  8
S-CALLOUT
100
AcDbBlockReference
  2
BARMARK
 10
216.0
 20
208.0
 30
0.0
  0
TEXT
  5
1B9
330
17
100
AcDbEntity
  8
S-CALLOUT
100
AcDbText
 10
216.0
 20
208.0
 30
0.0
 40
2.0
  1
E09A
  7
OpenSans
 72
1
 11
216.0
 21
208.0
 31
0.0
100
AcDbText
 73
2
  0
LEADER
  5
1BA
330
17
100
AcDbEntity
  8
S-CALLOUT
100
AcDbLeader
  3
SC-DIM
 73
3
 76
2
 10
235.0
 20
222.8
 30
0.0
 10
216.0
 20
208.0
 30
0.0
  0
TEXT
  5
1BB
330
17
100
AcDbEntity
  8
S-TITLE
100
AcDbText
 10
190.0
 20
316.0
 30
0.0
 40
3.5
  1
V3   STEPPED RAFT AND MOVEMENT JOINT
  7
OpenSans
 11
190.0
 21
316.0
 31
0.0
100
AcDbText
  0
LINE
  5
1BC
330
17
100
AcDbEntity
  8
S-TITLE
100
AcDbLine
 10
190.0
 20
314.2
 30
0.0
 11
292.51741460147355
 21
314.2
 31
0.0
  0
TEXT
  5
1BD
330
17
100
AcDbEntity
  8
S-TEXT
100
AcDbText
 10
190.0
 20
308.8
 30
0.0
 40
2.0
  1
SCALE 1:20
  7
OpenSans
 11
190.0
 21
308.8
 31
0.0
100
AcDbText
  0
TEXT
  5
1BE
330
17
100
AcDbEntity
  8
S-TITLE
100
AcDbText
 10
372.0
 20
547.5
 30
0.0
 40
2.5
  1
*** C16 - OPEN, NOT RESOLVED ***
  7
OpenSans
 11
372.0
 21
547.5
 31
0.0
100
AcDbText
  0
TEXT
  5
1BF
330
17
100
AcDbEntity
  8
S-NOTE
100
AcDbText
 10
372.0
 20
543.375
 30
0.0
 40
2.0
  1
THE ROOF / PLATFORM JUNCTION IS A GENUINE CONFLICT INSIDE THE PROJECT
  7
OpenSans
 11
372.0
 21
543.375
 31
0.0
100
AcDbText
  0
TEXT
  5
1C0
330
17
100
AcDbEntity
  8
S-NOTE
100
AcDbText
 10
372.0
 20
540.325
 30
0.0
 40
2.0
  1
RECORD AND IS NOT CLOSED BY THIS PACKAGE.
  7
OpenSans
 11
372.0
 21
540.325
 31
0.0
100
AcDbText
  0
TEXT
  5
1C1
330
17
100
AcDbEntity
  8
S-NOTE
100
AcDbText
 10
372.0
 20
534.2250000000001
 30
0.0
 40
2.0
  1
Master A.4.7 reads:  'over the platform it becomes the 500 headhouse roof'
  7
OpenSans
 11
372.0
 21
534.2250000000001
 31
0.0
100
AcDbText
  0
TEXT
  5
1C2
330
17
100
AcDbEntity
  8
S-NOTE
100
AcDbText
 10
372.0
 20
531.1750000000002
 30
0.0
 40
2.0
  1
Master B.6 designs, A.7.6 loads and F.2 registers:  a 250 stairwell roof
  7
OpenSans
 11
372.0
 21
531.1750000000002
 31
0.0
100
AcDbText
  0
TEXT
  5
1C3
330
17
100
AcDbEntity
  8
S-NOTE
100
AcDbText
 10
372.0
 20
528.1250000000002
 30
0.0
 40
2.0
  1
The headhouse footprint (Y 200 - 6000) DOES NOT OVERLAP the platform
  7
OpenSans
 11
372.0
 21
528.1250000000002
 31
0.0
100
AcDbText
  0
TEXT
  5
1C4
330
17
100
AcDbEntity
  8
S-NOTE
100
AcDbText
 10
372.0
 20
525.0750000000003
 30
0.0
 40
2.0
  1
(Y 6000 - 7500), so the two statements cannot both be describing the same
  7
OpenSans
 11
372.0
 21
525.0750000000003
 31
0.0
100
AcDbText
  0
TEXT
  5
1C5
330
17
100
AcDbEntity
  8
S-NOTE
100
AcDbText
 10
372.0
 20
522.0250000000003
 30
0.0
 40
2.0
  1
piece of concrete.
  7
OpenSans
 11
372.0
 21
522.0250000000003
 31
0.0
100
AcDbText
  0
TEXT
  5
1C6
330
17
100
AcDbEntity
  8
S-NOTE
100
AcDbText
 10
372.0
 20
515.9250000000004
 30
0.0
 40
2.0
  1
THIS PACKAGE DETAILS 250, on the authority of master rule M.2 (Parts A, B
  7
OpenSans
 11
372.0
 21
515.9250000000004
 31
0.0
100
AcDbText
  0
TEXT
  5
1C7
330
17
100
AcDbEntity
  8
S-NOTE
100
AcDbText
 10
372.0
 20
512.8750000000005
 30
0.0
 40
2.0
  1
and L are primary) and because the STAAD model is built at 250.
  7
OpenSans
 11
372.0
 21
512.8750000000005
 31
0.0
100
AcDbText
  0
TEXT
  5
1C8
330
17
100
AcDbEntity
  8
S-NOTE
100
AcDbText
 10
372.0
 20
509.82500000000044
 30
0.0
 40
2.0
  1
THE A.4.7 CLAUSE IS NOT EDITED.  A USER RULING IS REQUIRED.
  7
OpenSans
 11
372.0
 21
509.82500000000044
 31
0.0
100
AcDbText
  0
TEXT
  5
1C9
330
17
100
AcDbEntity
  8
S-NOTE
100
AcDbText
 10
372.0
 20
503.7250000000004
 30
0.0
 40
2.0
  1
AFFECTED DRAWINGS, ALL FLAGGED:  R-702  ·  R-703  ·  R-803  ·  R-804
  7
OpenSans
 11
372.0
 21
503.7250000000004
 31
0.0
100
AcDbText
  0
TEXT
  5
1CA
330
17
100
AcDbEntity
  8
S-NOTE
100
AcDbText
 10
372.0
 20
500.6750000000004
 30
0.0
 40
2.0
  1
AND R-603.
  7
OpenSans
 11
372.0
 21
500.6750000000004
 31
0.0
100
AcDbText
  0
LWPOLYLINE
  5
1CB
330
17
100
AcDbEntity
  8
S-TITLE
100
AcDbPolyline
 90
4
 70
1
 10
370.0
 20
495.6250000000004
 10
638.0
 20
495.6250000000004
 10
638.0
 20
552.0
 10
370.0
 20
552.0
  0
TEXT
  5
1CC
330
17
100
AcDbEntity
  8
S-TITLE
100
AcDbText
 10
372.0
 20
485.1250000000004
 30
0.0
 40
2.5
  1
ENTRY STAIRWELL - STATUS
  7
OpenSans
 11
372.0
 21
485.1250000000004
 31
0.0
100
AcDbText
  0
TEXT
  5
1CD
330
17
100
AcDbEntity
  8
S-NOTE
100
AcDbText
 10
372.0
 20
481.0000000000004
 30
0.0
 40
2.0
  1
STATUS: OUTSIDE THE PROTECTIVE BOUNDARY.  NOT BLAST RATED.
  7
OpenSans
 11
372.0
 21
481.0000000000004
 31
0.0
100
AcDbText
  0
TEXT
  5
1CE
330
17
100
AcDbEntity
  8
S-NOTE
100
AcDbText
 10
372.0
 20
477.9500000000004
 30
0.0
 40
2.0
  1
DECLARED EXPENDABLE - expected to be LOST in the design event.
  7
OpenSans
 11
372.0
 21
477.9500000000004
 31
0.0
100
AcDbText
  0
TEXT
  5
1CF
330
17
100
AcDbEntity
  8
S-NOTE
100
AcDbText
 10
372.0
 20
474.9000000000004
 30
0.0
 40
2.0
  1
Designed to IS 456 with NORMAL partial factors.
  7
OpenSans
 11
372.0
 21
474.9000000000004
 31
0.0
100
AcDbText
  0
TEXT
  5
1D0
330
17
100
AcDbEntity
  8
S-NOTE
100
AcDbText
 10
372.0
 20
468.80000000000035
 30
0.0
 40
2.0
  1
THIS IS A DELIBERATE DESIGN DECISION, NOT AN OVERSIGHT.  The protective
  7
OpenSans
 11
372.0
 21
468.80000000000035
 31
0.0
100
AcDbText
  0
TEXT
  5
1D1
330
17
100
AcDbEntity
  8
S-NOTE
100
AcDbText
 10
372.0
 20
465.75000000000034
 30
0.0
 40
2.0
  1
boundary is Blast Doors 1 and 2 at (-)6.100 together with walls W6/W7,
  7
OpenSans
 11
372.0
 21
465.75000000000034
 31
0.0
100
AcDbText
  0
TEXT
  5
1D2
330
17
100
AcDbEntity
  8
S-NOTE
100
AcDbText
 10
372.0
 20
462.70000000000033
 30
0.0
 40
2.0
  1
the perimeter walls, the mat and the pressure slab.  EVERYTHING ABOVE THE
  7
OpenSans
 11
372.0
 21
462.70000000000033
 31
0.0
100
AcDbText
  0
TEXT
  5
1D3
330
17
100
AcDbEntity
  8
S-NOTE
100
AcDbText
 10
372.0
 20
459.6500000000003
 30
0.0
 40
2.0
  1
BLAST DOORS IS OUTSIDE THE BOUNDARY.
  7
OpenSans
 11
372.0
 21
459.6500000000003
 31
0.0
100
AcDbText
  0
TEXT
  5
1D4
330
17
100
AcDbEntity
  8
S-NOTE
100
AcDbText
 10
372.0
 20
453.5500000000003
 30
0.0
 40
2.0
  1
THE ONE MOVEMENT JOINT ON THE PROJECT is where the stairwell raft meets
  7
OpenSans
 11
372.0
 21
453.5500000000003
 31
0.0
100
AcDbText
  0
TEXT
  5
1D5
330
17
100
AcDbEntity
  8
S-NOTE
100
AcDbText
 10
372.0
 20
450.5000000000003
 30
0.0
 40
2.0
  1
the headhouse.  There is NO movement joint anywhere inside the protective
  7
OpenSans
 11
372.0
 21
450.5000000000003
 31
0.0
100
AcDbText
  0
TEXT
  5
1D6
330
17
100
AcDbEntity
  8
S-NOTE
100
AcDbText
 10
372.0
 20
447.4500000000003
 30
0.0
 40
2.0
  1
envelope, because a movement joint is a guaranteed blast, gas and EMP
  7
OpenSans
 11
372.0
 21
447.4500000000003
 31
0.0
100
AcDbText
  0
TEXT
  5
1D7
330
17
100
AcDbEntity
  8
S-NOTE
100
AcDbText
 10
372.0
 20
444.40000000000026
 30
0.0
 40
2.0
  1
discontinuity.
  7
OpenSans
 11
372.0
 21
444.40000000000026
 31
0.0
100
AcDbText
  0
TEXT
  5
1D8
330
17
100
AcDbEntity
  8
S-NOTE
100
AcDbText
 10
372.0
 20
438.30000000000024
 30
0.0
 40
2.0
  1
ROOF IMPOSED LOAD 20 kPa is taken DELIBERATELY, for a stray vehicle on
  7
OpenSans
 11
372.0
 21
438.30000000000024
 31
0.0
100
AcDbText
  0
TEXT
  5
1D9
330
17
100
AcDbEntity
  8
S-NOTE
100
AcDbText
 10
372.0
 20
435.2500000000002
 30
0.0
 40
2.0
  1
the berm.  Conflicts C12, C13 and C14 (model imposed load, waterproofing
  7
OpenSans
 11
372.0
 21
435.2500000000002
 31
0.0
100
AcDbText
  0
TEXT
  5
1DA
330
17
100
AcDbEntity
  8
S-NOTE
100
AcDbText
 10
372.0
 20
432.2000000000002
 30
0.0
 40
2.0
  1
and fill density) were resolved against master A.7.6 before this package.
  7
OpenSans
 11
372.0
 21
432.2000000000002
 31
0.0
100
AcDbText
  0
LWPOLYLINE
  5
1DB
330
17
100
AcDbEntity
  8
S-TITLE
100
AcDbPolyline
 90
4
 70
1
 10
370.0
 20
427.1500000000002
 10
638.0
 20
427.1500000000002
 10
638.0
 20
489.6250000000004
 10
370.0
 20
489.6250000000004
  0
TEXT
  5
1DC
330
17
100
AcDbEntity
  8
S-TITLE
100
AcDbText
 10
648.0
 20
555.0
 30
0.0
 40
2.5
  1
BAR SCHEDULE EXTRACT - THIS SHEET
  7
OpenSans
 11
648.0
 21
555.0
 31
0.0
100
AcDbText
  0
LWPOLYLINE
  5
1DD
330
17
100
AcDbEntity
  8
S-TABLE
100
AcDbPolyline
 90
4
 70
1
 10
648.0
 20
547.8
 10
757.0
 20
547.8
 10
757.0
 20
552.0
 10
648.0
 20
552.0
  0
TEXT
  5
1DE
330
17
100
AcDbEntity
  8
S-TABLE
100
AcDbText
 10
649.4
 20
548.9454545454545
 30
0.0
 40
1.909090909090909
  1
MARK
  7
OpenSans
 11
649.4
 21
548.9454545454545
 31
0.0
100
AcDbText
  0
TEXT
  5
1DF
330
17
100
AcDbEntity
  8
S-TABLE
100
AcDbText
 10
666.4
 20
548.9454545454545
 30
0.0
 40
1.909090909090909
  1
DIA
  7
OpenSans
 11
666.4
 21
548.9454545454545
 31
0.0
100
AcDbText
  0
TEXT
  5
1E0
330
17
100
AcDbEntity
  8
S-TABLE
100
AcDbText
 10
679.4
 20
548.9454545454545
 30
0.0
 40
1.909090909090909
  1
SHP
  7
OpenSans
 11
679.4
 21
548.9454545454545
 31
0.0
100
AcDbText
  0
TEXT
  5
1E1
330
17
100
AcDbEntity
  8
S-TABLE
100
AcDbText
 10
691.4
 20
548.9454545454545
 30
0.0
 40
1.909090909090909
  1
SPAC
  7
OpenSans
 11
691.4
 21
548.9454545454545
 31
0.0
100
AcDbText
  0
TEXT
  5
1E2
330
17
100
AcDbEntity
  8
S-TABLE
100
AcDbText
 10
706.4
 20
548.9454545454545
 30
0.0
 40
1.909090909090909
  1
No.
  7
OpenSans
 11
706.4
 21
548.9454545454545
 31
0.0
100
AcDbText
  0
TEXT
  5
1E3
330
17
100
AcDbEntity
  8
S-TABLE
100
AcDbText
 10
721.4
 20
548.9454545454545
 30
0.0
 40
1.909090909090909
  1
CUT
  7
OpenSans
 11
721.4
 21
548.9454545454545
 31
0.0
100
AcDbText
  0
TEXT
  5
1E4
330
17
100
AcDbEntity
  8
S-TABLE
100
AcDbText
 10
738.4
 20
548.9454545454545
 30
0.0
 40
1.909090909090909
  1
kg
  7
OpenSans
 11
738.4
 21
548.9454545454545
 31
0.0
100
AcDbText
  0
TEXT
  5
1E5
330
17
100
AcDbEntity
  8
S-TABLE
100
AcDbText
 10
649.4
 20
544.7454545454544
 30
0.0
 40
1.909090909090909
  1
E04A
  7
OpenSans
 11
649.4
 21
544.7454545454544
 31
0.0
100
AcDbText
  0
TEXT
  5
1E6
330
17
100
AcDbEntity
  8
S-TABLE
100
AcDbText
 10
666.4
 20
544.7454545454544
 30
0.0
 40
1.909090909090909
  1
T12
  7
OpenSans
 11
666.4
 21
544.7454545454544
 31
0.0
100
AcDbText
  0
TEXT
  5
1E7
330
17
100
AcDbEntity
  8
S-TABLE
100
AcDbText
 10
679.4
 20
544.7454545454544
 30
0.0
 40
1.909090909090909
  1
00
  7
OpenSans
 11
679.4
 21
544.7454545454544
 31
0.0
100
AcDbText
  0
TEXT
  5
1E8
330
17
100
AcDbEntity
  8
S-TABLE
100
AcDbText
 10
691.4
 20
544.7454545454544
 30
0.0
 40
1.909090909090909
  1
200
  7
OpenSans
 11
691.4
 21
544.7454545454544
 31
0.0
100
AcDbText
  0
TEXT
  5
1E9
330
17
100
AcDbEntity
  8
S-TABLE
100
AcDbText
 10
706.4
 20
544.7454545454544
 30
0.0
 40
1.909090909090909
  1
136
  7
OpenSans
 11
706.4
 21
544.7454545454544
 31
0.0
100
AcDbText
  0
TEXT
  5
1EA
330
17
100
AcDbEntity
  8
S-TABLE
100
AcDbText
 10
721.4
 20
544.7454545454544
 30
0.0
 40
1.909090909090909
  1
3500
  7
OpenSans
 11
721.4
 21
544.7454545454544
 31
0.0
100
AcDbText
  0
TEXT
  5
1EB
330
17
100
AcDbEntity
  8
S-TABLE
100
AcDbText
 10
738.4
 20
544.7454545454544
 30
0.0
 40
1.909090909090909
  1
423
  7
OpenSans
 11
738.4
 21
544.7454545454544
 31
0.0
100
AcDbText
  0
LINE
  5
1EC
330
17
100
AcDbEntity
  8
S-TABLE
100
AcDbLine
 10
648.0
 20
543.5999999999999
 30
0.0
 11
757.0
 21
543.5999999999999
 31
0.0
  0
TEXT
  5
1ED
330
17
100
AcDbEntity
  8
S-TABLE
100
AcDbText
 10
649.4
 20
540.5454545454544
 30
0.0
 40
1.909090909090909
  1
E04B
  7
OpenSans
 11
649.4
 21
540.5454545454544
 31
0.0
100
AcDbText
  0
TEXT
  5
1EE
330
17
100
AcDbEntity
  8
S-TABLE
100
AcDbText
 10
666.4
 20
540.5454545454544
 30
0.0
 40
1.909090909090909
  1
T12
  7
OpenSans
 11
666.4
 21
540.5454545454544
 31
0.0
100
AcDbText
  0
TEXT
  5
1EF
330
17
100
AcDbEntity
  8
S-TABLE
100
AcDbText
 10
679.4
 20
540.5454545454544
 30
0.0
 40
1.909090909090909
  1
00
  7
OpenSans
 11
679.4
 21
540.5454545454544
 31
0.0
100
AcDbText
  0
TEXT
  5
1F0
330
17
100
AcDbEntity
  8
S-TABLE
100
AcDbText
 10
691.4
 20
540.5454545454544
 30
0.0
 40
1.909090909090909
  1
200
  7
OpenSans
 11
691.4
 21
540.5454545454544
 31
0.0
100
AcDbText
  0
TEXT
  5
1F1
330
17
100
AcDbEntity
  8
S-TABLE
100
AcDbText
 10
706.4
 20
540.5454545454544
 30
0.0
 40
1.909090909090909
  1
60
  7
OpenSans
 11
706.4
 21
540.5454545454544
 31
0.0
100
AcDbText
  0
TEXT
  5
1F2
330
17
100
AcDbEntity
  8
S-TABLE
100
AcDbText
 10
721.4
 20
540.5454545454544
 30
0.0
 40
1.909090909090909
  1
6700
  7
OpenSans
 11
721.4
 21
540.5454545454544
 31
0.0
100
AcDbText
  0
TEXT
  5
1F3
330
17
100
AcDbEntity
  8
S-TABLE
100
AcDbText
 10
738.4
 20
540.5454545454544
 30
0.0
 40
1.909090909090909
  1
357
  7
OpenSans
 11
738.4
 21
540.5454545454544
 31
0.0
100
AcDbText
  0
LINE
  5
1F4
330
17
100
AcDbEntity
  8
S-TABLE
100
AcDbLine
 10
648.0
 20
539.3999999999999
 30
0.0
 11
757.0
 21
539.3999999999999
 31
0.0
  0
TEXT
  5
1F5
330
17
100
AcDbEntity
  8
S-TABLE
100
AcDbText
 10
649.4
 20
536.3454545454543
 30
0.0
 40
1.909090909090909
  1
E05A
  7
OpenSans
 11
649.4
 21
536.3454545454543
 31
0.0
100
AcDbText
  0
TEXT
  5
1F6
330
17
100
AcDbEntity
  8
S-TABLE
100
AcDbText
 10
666.4
 20
536.3454545454543
 30
0.0
 40
1.909090909090909
  1
T12
  7
OpenSans
 11
666.4
 21
536.3454545454543
 31
0.0
100
AcDbText
  0
TEXT
  5
1F7
330
17
100
AcDbEntity
  8
S-TABLE
100
AcDbText
 10
679.4
 20
536.3454545454543
 30
0.0
 40
1.909090909090909
  1
00
  7
OpenSans
 11
679.4
 21
536.3454545454543
 31
0.0
100
AcDbText
  0
TEXT
  5
1F8
330
17
100
AcDbEntity
  8
S-TABLE
100
AcDbText
 10
691.4
 20
536.3454545454543
 30
0.0
 40
1.909090909090909
  1
200
  7
OpenSans
 11
691.4
 21
536.3454545454543
 31
0.0
100
AcDbText
  0
TEXT
  5
1F9
330
17
100
AcDbEntity
  8
S-TABLE
100
AcDbText
 10
706.4
 20
536.3454545454543
 30
0.0
 40
1.909090909090909
  1
68
  7
OpenSans
 11
706.4
 21
536.3454545454543
 31
0.0
100
AcDbText
  0
TEXT
  5
1FA
330
17
100
AcDbEntity
  8
S-TABLE
100
AcDbText
 10
721.4
 20
536.3454545454543
 30
0.0
 40
1.909090909090909
  1
1900
  7
OpenSans
 11
721.4
 21
536.3454545454543
 31
0.0
100
AcDbText
  0
TEXT
  5
1FB
330
17
100
AcDbEntity
  8
S-TABLE
100
AcDbText
 10
738.4
 20
536.3454545454543
 30
0.0
 40
1.909090909090909
  1
115
  7
OpenSans
 11
738.4
 21
536.3454545454543
 31
0.0
100
AcDbText
  0
LINE
  5
1FC
330
17
100
AcDbEntity
  8
S-TABLE
100
AcDbLine
 10
648.0
 20
535.1999999999998
 30
0.0
 11
757.0
 21
535.1999999999998
 31
0.0
  0
TEXT
  5
1FD
330
17
100
AcDbEntity
  8
S-TABLE
100
AcDbText
 10
649.4
 20
532.1454545454543
 30
0.0
 40
1.909090909090909
  1
E05B
  7
OpenSans
 11
649.4
 21
532.1454545454543
 31
0.0
100
AcDbText
  0
TEXT
  5
1FE
330
17
100
AcDbEntity
  8
S-TABLE
100
AcDbText
 10
666.4
 20
532.1454545454543
 30
0.0
 40
1.909090909090909
  1
T12
  7
OpenSans
 11
666.4
 21
532.1454545454543
 31
0.0
100
AcDbText
  0
TEXT
  5
1FF
330
17
100
AcDbEntity
  8
S-TABLE
100
AcDbText
 10
679.4
 20
532.1454545454543
 30
0.0
 40
1.909090909090909
  1
00
  7
OpenSans
 11
679.4
 21
532.1454545454543
 31
0.0
100
AcDbText
  0
TEXT
  5
200
330
17
100
AcDbEntity
  8
S-TABLE
100
AcDbText
 10
691.4
 20
532.1454545454543
 30
0.0
 40
1.909090909090909
  1
200
  7
OpenSans
 11
691.4
 21
532.1454545454543
 31
0.0
100
AcDbText
  0
TEXT
  5
201
330
17
100
AcDbEntity
  8
S-TABLE
100
AcDbText
 10
706.4
 20
532.1454545454543
 30
0.0
 40
1.909090909090909
  1
20
  7
OpenSans
 11
706.4
 21
532.1454545454543
 31
0.0
100
AcDbText
  0
TEXT
  5
202
330
17
100
AcDbEntity
  8
S-TABLE
100
AcDbText
 10
721.4
 20
532.1454545454543
 30
0.0
 40
1.909090909090909
  1
6700
  7
OpenSans
 11
721.4
 21
532.1454545454543
 31
0.0
100
AcDbText
  0
TEXT
  5
203
330
17
100
AcDbEntity
  8
S-TABLE
100
AcDbText
 10
738.4
 20
532.1454545454543
 30
0.0
 40
1.909090909090909
  1
119
  7
OpenSans
 11
738.4
 21
532.1454545454543
 31
0.0
100
AcDbText
  0
LINE
  5
204
330
17
100
AcDbEntity
  8
S-TABLE
100
AcDbLine
 10
648.0
 20
530.9999999999998
 30
0.0
 11
757.0
 21
530.9999999999998
 31
0.0
  0
TEXT
  5
205
330
17
100
AcDbEntity
  8
S-TABLE
100
AcDbText
 10
649.4
 20
527.9454545454543
 30
0.0
 40
1.909090909090909
  1
E06
  7
OpenSans
 11
649.4
 21
527.9454545454543
 31
0.0
100
AcDbText
  0
TEXT
  5
206
330
17
100
AcDbEntity
  8
S-TABLE
100
AcDbText
 10
666.4
 20
527.9454545454543
 30
0.0
 40
1.909090909090909
  1
T12
  7
OpenSans
 11
666.4
 21
527.9454545454543
 31
0.0
100
AcDbText
  0
TEXT
  5
207
330
17
100
AcDbEntity
  8
S-TABLE
100
AcDbText
 10
679.4
 20
527.9454545454543
 30
0.0
 40
1.909090909090909
  1
00
  7
OpenSans
 11
679.4
 21
527.9454545454543
 31
0.0
100
AcDbText
  0
TEXT
  5
208
330
17
100
AcDbEntity
  8
S-TABLE
100
AcDbText
 10
691.4
 20
527.9454545454543
 30
0.0
 40
1.909090909090909
  1
200
  7
OpenSans
 11
691.4
 21
527.9454545454543
 31
0.0
100
AcDbText
  0
TEXT
  5
209
330
17
100
AcDbEntity
  8
S-TABLE
100
AcDbText
 10
706.4
 20
527.9454545454543
 30
0.0
 40
1.909090909090909
  1
32
  7
OpenSans
 11
706.4
 21
527.9454545454543
 31
0.0
100
AcDbText
  0
TEXT
  5
20A
330
17
100
AcDbEntity
  8
S-TABLE
100
AcDbText
 10
721.4
 20
527.9454545454543
 30
0.0
 40
1.909090909090909
  1
1900
  7
OpenSans
 11
721.4
 21
527.9454545454543
 31
0.0
100
AcDbText
  0
TEXT
  5
20B
330
17
100
AcDbEntity
  8
S-TABLE
100
AcDbText
 10
738.4
 20
527.9454545454543
 30
0.0
 40
1.909090909090909
  1
54
  7
OpenSans
 11
738.4
 21
527.9454545454543
 31
0.0
100
AcDbText
  0
LINE
  5
20C
330
17
100
AcDbEntity
  8
S-TABLE
100
AcDbLine
 10
648.0
 20
526.7999999999997
 30
0.0
 11
757.0
 21
526.7999999999997
 31
0.0
  0
TEXT
  5
20D
330
17
100
AcDbEntity
  8
S-TABLE
100
AcDbText
 10
649.4
 20
523.7454545454542
 30
0.0
 40
1.909090909090909
  1
E07
  7
OpenSans
 11
649.4
 21
523.7454545454542
 31
0.0
100
AcDbText
  0
TEXT
  5
20E
330
17
100
AcDbEntity
  8
S-TABLE
100
AcDbText
 10
666.4
 20
523.7454545454542
 30
0.0
 40
1.909090909090909
  1
T12
  7
OpenSans
 11
666.4
 21
523.7454545454542
 31
0.0
100
AcDbText
  0
TEXT
  5
20F
330
17
100
AcDbEntity
  8
S-TABLE
100
AcDbText
 10
679.4
 20
523.7454545454542
 30
0.0
 40
1.909090909090909
  1
00
  7
OpenSans
 11
679.4
 21
523.7454545454542
 31
0.0
100
AcDbText
  0
TEXT
  5
210
330
17
100
AcDbEntity
  8
S-TABLE
100
AcDbText
 10
691.4
 20
523.7454545454542
 30
0.0
 40
1.909090909090909
  1
200
  7
OpenSans
 11
691.4
 21
523.7454545454542
 31
0.0
100
AcDbText
  0
TEXT
  5
211
330
17
100
AcDbEntity
  8
S-TABLE
100
AcDbText
 10
706.4
 20
523.7454545454542
 30
0.0
 40
1.909090909090909
  1
32
  7
OpenSans
 11
706.4
 21
523.7454545454542
 31
0.0
100
AcDbText
  0
TEXT
  5
212
330
17
100
AcDbEntity
  8
S-TABLE
100
AcDbText
 10
721.4
 20
523.7454545454542
 30
0.0
 40
1.909090909090909
  1
1900
  7
OpenSans
 11
721.4
 21
523.7454545454542
 31
0.0
100
AcDbText
  0
TEXT
  5
213
330
17
100
AcDbEntity
  8
S-TABLE
100
AcDbText
 10
738.4
 20
523.7454545454542
 30
0.0
 40
1.909090909090909
  1
54
  7
OpenSans
 11
738.4
 21
523.7454545454542
 31
0.0
100
AcDbText
  0
LINE
  5
214
330
17
100
AcDbEntity
  8
S-TABLE
100
AcDbLine
 10
648.0
 20
522.5999999999997
 30
0.0
 11
757.0
 21
522.5999999999997
 31
0.0
  0
TEXT
  5
215
330
17
100
AcDbEntity
  8
S-TABLE
100
AcDbText
 10
649.4
 20
519.5454545454542
 30
0.0
 40
1.909090909090909
  1
E08A
  7
OpenSans
 11
649.4
 21
519.5454545454542
 31
0.0
100
AcDbText
  0
TEXT
  5
216
330
17
100
AcDbEntity
  8
S-TABLE
100
AcDbText
 10
666.4
 20
519.5454545454542
 30
0.0
 40
1.909090909090909
  1
T12
  7
OpenSans
 11
666.4
 21
519.5454545454542
 31
0.0
100
AcDbText
  0
TEXT
  5
217
330
17
100
AcDbEntity
  8
S-TABLE
100
AcDbText
 10
679.4
 20
519.5454545454542
 30
0.0
 40
1.909090909090909
  1
00
  7
OpenSans
 11
679.4
 21
519.5454545454542
 31
0.0
100
AcDbText
  0
TEXT
  5
218
330
17
100
AcDbEntity
  8
S-TABLE
100
AcDbText
 10
691.4
 20
519.5454545454542
 30
0.0
 40
1.909090909090909
  1
200
  7
OpenSans
 11
691.4
 21
519.5454545454542
 31
0.0
100
AcDbText
  0
TEXT
  5
219
330
17
100
AcDbEntity
  8
S-TABLE
100
AcDbText
 10
706.4
 20
519.5454545454542
 30
0.0
 40
1.909090909090909
  1
20
  7
OpenSans
 11
706.4
 21
519.5454545454542
 31
0.0
100
AcDbText
  0
TEXT
  5
21A
330
17
100
AcDbEntity
  8
S-TABLE
100
AcDbText
 10
721.4
 20
519.5454545454542
 30
0.0
 40
1.909090909090909
  1
3500
  7
OpenSans
 11
721.4
 21
519.5454545454542
 31
0.0
100
AcDbText
  0
TEXT
  5
21B
330
17
100
AcDbEntity
  8
S-TABLE
100
AcDbText
 10
738.4
 20
519.5454545454542
 30
0.0
 40
1.909090909090909
  1
62
  7
OpenSans
 11
738.4
 21
519.5454545454542
 31
0.0
100
AcDbText
  0
LINE
  5
21C
330
17
100
AcDbEntity
  8
S-TABLE
100
AcDbLine
 10
648.0
 20
518.3999999999996
 30
0.0
 11
757.0
 21
518.3999999999996
 31
0.0
  0
TEXT
  5
21D
330
17
100
AcDbEntity
  8
S-TABLE
100
AcDbText
 10
649.4
 20
515.3454545454541
 30
0.0
 40
1.909090909090909
  1
E08B
  7
OpenSans
 11
649.4
 21
515.3454545454541
 31
0.0
100
AcDbText
  0
TEXT
  5
21E
330
17
100
AcDbEntity
  8
S-TABLE
100
AcDbText
 10
666.4
 20
515.3454545454541
 30
0.0
 40
1.909090909090909
  1
T12
  7
OpenSans
 11
666.4
 21
515.3454545454541
 31
0.0
100
AcDbText
  0
TEXT
  5
21F
330
17
100
AcDbEntity
  8
S-TABLE
100
AcDbText
 10
679.4
 20
515.3454545454541
 30
0.0
 40
1.909090909090909
  1
00
  7
OpenSans
 11
679.4
 21
515.3454545454541
 31
0.0
100
AcDbText
  0
TEXT
  5
220
330
17
100
AcDbEntity
  8
S-TABLE
100
AcDbText
 10
691.4
 20
515.3454545454541
 30
0.0
 40
1.909090909090909
  1
200
  7
OpenSans
 11
691.4
 21
515.3454545454541
 31
0.0
100
AcDbText
  0
TEXT
  5
221
330
17
100
AcDbEntity
  8
S-TABLE
100
AcDbText
 10
706.4
 20
515.3454545454541
 30
0.0
 40
1.909090909090909
  1
30
  7
OpenSans
 11
706.4
 21
515.3454545454541
 31
0.0
100
AcDbText
  0
TEXT
  5
222
330
17
100
AcDbEntity
  8
S-TABLE
100
AcDbText
 10
721.4
 20
515.3454545454541
 30
0.0
 40
1.909090909090909
  1
1900
  7
OpenSans
 11
721.4
 21
515.3454545454541
 31
0.0
100
AcDbText
  0
TEXT
  5
223
330
17
100
AcDbEntity
  8
S-TABLE
100
AcDbText
 10
738.4
 20
515.3454545454541
 30
0.0
 40
1.909090909090909
  1
51
  7
OpenSans
 11
738.4
 21
515.3454545454541
 31
0.0
100
AcDbText
  0
LINE
  5
224
330
17
100
AcDbEntity
  8
S-TABLE
100
AcDbLine
 10
648.0
 20
514.1999999999996
 30
0.0
 11
757.0
 21
514.1999999999996
 31
0.0
  0
TEXT
  5
225
330
17
100
AcDbEntity
  8
S-TABLE
100
AcDbText
 10
649.4
 20
511.14545454545413
 30
0.0
 40
1.909090909090909
  1
E09A
  7
OpenSans
 11
649.4
 21
511.14545454545413
 31
0.0
100
AcDbText
  0
TEXT
  5
226
330
17
100
AcDbEntity
  8
S-TABLE
100
AcDbText
 10
666.4
 20
511.14545454545413
 30
0.0
 40
1.909090909090909
  1
T12
  7
OpenSans
 11
666.4
 21
511.14545454545413
 31
0.0
100
AcDbText
  0
TEXT
  5
227
330
17
100
AcDbEntity
  8
S-TABLE
100
AcDbText
 10
679.4
 20
511.14545454545413
 30
0.0
 40
1.909090909090909
  1
00
  7
OpenSans
 11
679.4
 21
511.14545454545413
 31
0.0
100
AcDbText
  0
TEXT
  5
228
330
17
100
AcDbEntity
  8
S-TABLE
100
AcDbText
 10
691.4
 20
511.14545454545413
 30
0.0
 40
1.909090909090909
  1
200
  7
OpenSans
 11
691.4
 21
511.14545454545413
 31
0.0
100
AcDbText
  0
TEXT
  5
229
330
17
100
AcDbEntity
  8
S-TABLE
100
AcDbText
 10
706.4
 20
511.14545454545413
 30
0.0
 40
1.909090909090909
  1
20
  7
OpenSans
 11
706.4
 21
511.14545454545413
 31
0.0
100
AcDbText
  0
TEXT
  5
22A
330
17
100
AcDbEntity
  8
S-TABLE
100
AcDbText
 10
721.4
 20
511.14545454545413
 30
0.0
 40
1.909090909090909
  1
6700
  7
OpenSans
 11
721.4
 21
511.14545454545413
 31
0.0
100
AcDbText
  0
TEXT
  5
22B
330
17
100
AcDbEntity
  8
S-TABLE
100
AcDbText
 10
738.4
 20
511.14545454545413
 30
0.0
 40
1.909090909090909
  1
119
  7
OpenSans
 11
738.4
 21
511.14545454545413
 31
0.0
100
AcDbText
  0
LINE
  5
22C
330
17
100
AcDbEntity
  8
S-TABLE
100
AcDbLine
 10
648.0
 20
509.9999999999996
 30
0.0
 11
757.0
 21
509.9999999999996
 31
0.0
  0
TEXT
  5
22D
330
17
100
AcDbEntity
  8
S-TABLE
100
AcDbText
 10
649.4
 20
506.94545454545414
 30
0.0
 40
1.909090909090909
  1
E09B
  7
OpenSans
 11
649.4
 21
506.94545454545414
 31
0.0
100
AcDbText
  0
TEXT
  5
22E
330
17
100
AcDbEntity
  8
S-TABLE
100
AcDbText
 10
666.4
 20
506.94545454545414
 30
0.0
 40
1.909090909090909
  1
T12
  7
OpenSans
 11
666.4
 21
506.94545454545414
 31
0.0
100
AcDbText
  0
TEXT
  5
22F
330
17
100
AcDbEntity
  8
S-TABLE
100
AcDbText
 10
679.4
 20
506.94545454545414
 30
0.0
 40
1.909090909090909
  1
00
  7
OpenSans
 11
679.4
 21
506.94545454545414
 31
0.0
100
AcDbText
  0
TEXT
  5
230
330
17
100
AcDbEntity
  8
S-TABLE
100
AcDbText
 10
691.4
 20
506.94545454545414
 30
0.0
 40
1.909090909090909
  1
200
  7
OpenSans
 11
691.4
 21
506.94545454545414
 31
0.0
100
AcDbText
  0
TEXT
  5
231
330
17
100
AcDbEntity
  8
S-TABLE
100
AcDbText
 10
706.4
 20
506.94545454545414
 30
0.0
 40
1.909090909090909
  1
66
  7
OpenSans
 11
706.4
 21
506.94545454545414
 31
0.0
100
AcDbText
  0
TEXT
  5
232
330
17
100
AcDbEntity
  8
S-TABLE
100
AcDbText
 10
721.4
 20
506.94545454545414
 30
0.0
 40
1.909090909090909
  1
1900
  7
OpenSans
 11
721.4
 21
506.94545454545414
 31
0.0
100
AcDbText
  0
TEXT
  5
233
330
17
100
AcDbEntity
  8
S-TABLE
100
AcDbText
 10
738.4
 20
506.94545454545414
 30
0.0
 40
1.909090909090909
  1
111
  7
OpenSans
 11
738.4
 21
506.94545454545414
 31
0.0
100
AcDbText
  0
LINE
  5
234
330
17
100
AcDbEntity
  8
S-TABLE
100
AcDbLine
 10
648.0
 20
505.7999999999996
 30
0.0
 11
757.0
 21
505.7999999999996
 31
0.0
  0
TEXT
  5
235
330
17
100
AcDbEntity
  8
S-TABLE
100
AcDbText
 10
649.4
 20
502.74545454545415
 30
0.0
 40
1.909090909090909
  1
E10
  7
OpenSans
 11
649.4
 21
502.74545454545415
 31
0.0
100
AcDbText
  0
TEXT
  5
236
330
17
100
AcDbEntity
  8
S-TABLE
100
AcDbText
 10
666.4
 20
502.74545454545415
 30
0.0
 40
1.909090909090909
  1
T12
  7
OpenSans
 11
666.4
 21
502.74545454545415
 31
0.0
100
AcDbText
  0
TEXT
  5
237
330
17
100
AcDbEntity
  8
S-TABLE
100
AcDbText
 10
679.4
 20
502.74545454545415
 30
0.0
 40
1.909090909090909
  1
00
  7
OpenSans
 11
679.4
 21
502.74545454545415
 31
0.0
100
AcDbText
  0
TEXT
  5
238
330
17
100
AcDbEntity
  8
S-TABLE
100
AcDbText
 10
691.4
 20
502.74545454545415
 30
0.0
 40
1.909090909090909
  1
-
  7
OpenSans
 11
691.4
 21
502.74545454545415
 31
0.0
100
AcDbText
  0
TEXT
  5
239
330
17
100
AcDbEntity
  8
S-TABLE
100
AcDbText
 10
706.4
 20
502.74545454545415
 30
0.0
 40
1.909090909090909
  1
6
  7
OpenSans
 11
706.4
 21
502.74545454545415
 31
0.0
100
AcDbText
  0
TEXT
  5
23A
330
17
100
AcDbEntity
  8
S-TABLE
100
AcDbText
 10
721.4
 20
502.74545454545415
 30
0.0
 40
1.909090909090909
  1
1960
  7
OpenSans
 11
721.4
 21
502.74545454545415
 31
0.0
100
AcDbText
  0
TEXT
  5
23B
330
17
100
AcDbEntity
  8
S-TABLE
100
AcDbText
 10
738.4
 20
502.74545454545415
 30
0.0
 40
1.909090909090909
  1
10
  7
OpenSans
 11
738.4
 21
502.74545454545415
 31
0.0
100
AcDbText
  0
LINE
  5
23C
330
17
100
AcDbEntity
  8
S-TABLE
100
AcDbLine
 10
648.0
 20
501.5999999999996
 30
0.0
 11
757.0
 21
501.5999999999996
 31
0.0
  0
TEXT
  5
23D
330
17
100
AcDbEntity
  8
S-TABLE
100
AcDbText
 10
649.4
 20
498.54545454545416
 30
0.0
 40
1.909090909090909
  1
E11
  7
OpenSans
 11
649.4
 21
498.54545454545416
 31
0.0
100
AcDbText
  0
TEXT
  5
23E
330
17
100
AcDbEntity
  8
S-TABLE
100
AcDbText
 10
666.4
 20
498.54545454545416
 30
0.0
 40
1.909090909090909
  1
T8
  7
OpenSans
 11
666.4
 21
498.54545454545416
 31
0.0
100
AcDbText
  0
TEXT
  5
23F
330
17
100
AcDbEntity
  8
S-TABLE
100
AcDbText
 10
679.4
 20
498.54545454545416
 30
0.0
 40
1.909090909090909
  1
51
  7
OpenSans
 11
679.4
 21
498.54545454545416
 31
0.0
100
AcDbText
  0
TEXT
  5
240
330
17
100
AcDbEntity
  8
S-TABLE
100
AcDbText
 10
691.4
 20
498.54545454545416
 30
0.0
 40
1.909090909090909
  1
150
  7
OpenSans
 11
691.4
 21
498.54545454545416
 31
0.0
100
AcDbText
  0
TEXT
  5
241
330
17
100
AcDbEntity
  8
S-TABLE
100
AcDbText
 10
706.4
 20
498.54545454545416
 30
0.0
 40
1.909090909090909
  1
13
  7
OpenSans
 11
706.4
 21
498.54545454545416
 31
0.0
100
AcDbText
  0
TEXT
  5
242
330
17
100
AcDbEntity
  8
S-TABLE
100
AcDbText
 10
721.4
 20
498.54545454545416
 30
0.0
 40
1.909090909090909
  1
1120
  7
OpenSans
 11
721.4
 21
498.54545454545416
 31
0.0
100
AcDbText
  0
TEXT
  5
243
330
17
100
AcDbEntity
  8
S-TABLE
100
AcDbText
 10
738.4
 20
498.54545454545416
 30
0.0
 40
1.909090909090909
  1
6
  7
OpenSans
 11
738.4
 21
498.54545454545416
 31
0.0
100
AcDbText
  0
LINE
  5
244
330
17
100
AcDbEntity
  8
S-TABLE
100
AcDbLine
 10
648.0
 20
497.39999999999964
 30
0.0
 11
757.0
 21
497.39999999999964
 31
0.0
  0
TEXT
  5
245
330
17
100
AcDbEntity
  8
S-TABLE
100
AcDbText
 10
649.4
 20
494.3454545454542
 30
0.0
 40
1.909090909090909
  1
E12
  7
OpenSans
 11
649.4
 21
494.3454545454542
 31
0.0
100
AcDbText
  0
TEXT
  5
246
330
17
100
AcDbEntity
  8
S-TABLE
100
AcDbText
 10
666.4
 20
494.3454545454542
 30
0.0
 40
1.909090909090909
  1
T16
  7
OpenSans
 11
666.4
 21
494.3454545454542
 31
0.0
100
AcDbText
  0
TEXT
  5
247
330
17
100
AcDbEntity
  8
S-TABLE
100
AcDbText
 10
679.4
 20
494.3454545454542
 30
0.0
 40
1.909090909090909
  1
21
  7
OpenSans
 11
679.4
 21
494.3454545454542
 31
0.0
100
AcDbText
  0
TEXT
  5
248
330
17
100
AcDbEntity
  8
S-TABLE
100
AcDbText
 10
691.4
 20
494.3454545454542
 30
0.0
 40
1.909090909090909
  1
200
  7
OpenSans
 11
691.4
 21
494.3454545454542
 31
0.0
100
AcDbText
  0
TEXT
  5
249
330
17
100
AcDbEntity
  8
S-TABLE
100
AcDbText
 10
706.4
 20
494.3454545454542
 30
0.0
 40
1.909090909090909
  1
8
  7
OpenSans
 11
706.4
 21
494.3454545454542
 31
0.0
100
AcDbText
  0
TEXT
  5
24A
330
17
100
AcDbEntity
  8
S-TABLE
100
AcDbText
 10
721.4
 20
494.3454545454542
 30
0.0
 40
1.909090909090909
  1
1780
  7
OpenSans
 11
721.4
 21
494.3454545454542
 31
0.0
100
AcDbText
  0
TEXT
  5
24B
330
17
100
AcDbEntity
  8
S-TABLE
100
AcDbText
 10
738.4
 20
494.3454545454542
 30
0.0
 40
1.909090909090909
  1
22
  7
OpenSans
 11
738.4
 21
494.3454545454542
 31
0.0
100
AcDbText
  0
LINE
  5
24C
330
17
100
AcDbEntity
  8
S-TABLE
100
AcDbLine
 10
648.0
 20
493.19999999999965
 30
0.0
 11
757.0
 21
493.19999999999965
 31
0.0
  0
LINE
  5
24D
330
17
100
AcDbEntity
  8
S-TABLE
100
AcDbLine
 10
648.0
 20
552.0
 30
0.0
 11
757.0
 21
552.0
 31
0.0
  0
LINE
  5
24E
330
17
100
AcDbEntity
  8
S-TABLE
100
AcDbLine
 10
648.0
 20
552.0
 30
0.0
 11
648.0
 21
493.19999999999965
 31
0.0
  0
LINE
  5
24F
330
17
100
AcDbEntity
  8
S-TABLE
100
AcDbLine
 10
665.0
 20
552.0
 30
0.0
 11
665.0
 21
493.19999999999965
 31
0.0
  0
LINE
  5
250
330
17
100
AcDbEntity
  8
S-TABLE
100
AcDbLine
 10
678.0
 20
552.0
 30
0.0
 11
678.0
 21
493.19999999999965
 31
0.0
  0
LINE
  5
251
330
17
100
AcDbEntity
  8
S-TABLE
100
AcDbLine
 10
690.0
 20
552.0
 30
0.0
 11
690.0
 21
493.19999999999965
 31
0.0
  0
LINE
  5
252
330
17
100
AcDbEntity
  8
S-TABLE
100
AcDbLine
 10
705.0
 20
552.0
 30
0.0
 11
705.0
 21
493.19999999999965
 31
0.0
  0
LINE
  5
253
330
17
100
AcDbEntity
  8
S-TABLE
100
AcDbLine
 10
720.0
 20
552.0
 30
0.0
 11
720.0
 21
493.19999999999965
 31
0.0
  0
LINE
  5
254
330
17
100
AcDbEntity
  8
S-TABLE
100
AcDbLine
 10
737.0
 20
552.0
 30
0.0
 11
737.0
 21
493.19999999999965
 31
0.0
  0
LINE
  5
255
330
17
100
AcDbEntity
  8
S-TABLE
100
AcDbLine
 10
757.0
 20
552.0
 30
0.0
 11
757.0
 21
493.19999999999965
 31
0.0
  0
TEXT
  5
256
330
17
100
AcDbEntity
  8
S-TABLE
100
AcDbText
 10
648.0
 20
488.79999999999967
 30
0.0
 40
1.4
  1
SHEET SUB-TOTAL  1,503 kg     FULL SCHEDULE: R-004 and Structural CAD/Schedules/BBS_MASTER.md
  7
OpenSans
 11
648.0
 21
488.79999999999967
 31
0.0
100
AcDbText
  0
LWPOLYLINE
  5
257
330
17
100
AcDbEntity
  8
S-TITLE
100
AcDbPolyline
 90
4
 70
1
 10
651.0
 20
10.0
 10
831.0
 20
10.0
 10
831.0
 20
110.0
 10
651.0
 20
110.0
  0
LINE
  5
258
330
17
100
AcDbEntity
  8
S-TITLE
100
AcDbLine
 10
651.0
 20
30.0
 30
0.0
 11
831.0
 21
30.0
 31
0.0
  0
LINE
  5
259
330
17
100
AcDbEntity
  8
S-TITLE
100
AcDbLine
 10
651.0
 20
42.0
 30
0.0
 11
831.0
 21
42.0
 31
0.0
  0
LINE
  5
25A
330
17
100
AcDbEntity
  8
S-TITLE
100
AcDbLine
 10
651.0
 20
54.0
 30
0.0
 11
831.0
 21
54.0
 31
0.0
  0
LINE
  5
25B
330
17
100
AcDbEntity
  8
S-TITLE
100
AcDbLine
 10
651.0
 20
66.0
 30
0.0
 11
831.0
 21
66.0
 31
0.0
  0
LINE
  5
25C
330
17
100
AcDbEntity
  8
S-TITLE
100
AcDbLine
 10
651.0
 20
88.0
 30
0.0
 11
831.0
 21
88.0
 31
0.0
  0
LINE
  5
25D
330
17
100
AcDbEntity
  8
S-TITLE
100
AcDbLine
 10
763.0
 20
10.0
 30
0.0
 11
763.0
 21
30.0
 31
0.0
  0
LINE
  5
25E
330
17
100
AcDbEntity
  8
S-TITLE
100
AcDbLine
 10
797.0
 20
10.0
 30
0.0
 11
797.0
 21
30.0
 31
0.0
  0
TEXT
  5
25F
330
17
100
AcDbEntity
  8
S-TITLE
100
AcDbText
 10
653.0
 20
24.6
 30
0.0
 40
1.4
  1
DRAWING No.
  7
OpenSans
 11
653.0
 21
24.6
 31
0.0
100
AcDbText
  0
TEXT
  5
260
330
17
100
AcDbEntity
  8
S-TITLE
100
AcDbText
 10
673.0
 20
14.2
 30
0.0
 40
3.5
  1
R-702
  7
OpenSans
 11
673.0
 21
14.2
 31
0.0
100
AcDbText
  0
TEXT
  5
261
330
17
100
AcDbEntity
  8
S-TITLE
100
AcDbText
 10
765.0
 20
24.6
 30
0.0
 40
1.4
  1
REV
  7
OpenSans
 11
765.0
 21
24.6
 31
0.0
100
AcDbText
  0
TEXT
  5
262
330
17
100
AcDbEntity
  8
S-TITLE
100
AcDbText
 10
769.0
 20
14.2
 30
0.0
 40
3.5
  1
SC1
  7
OpenSans
 11
769.0
 21
14.2
 31
0.0
100
AcDbText
  0
TEXT
  5
263
330
17
100
AcDbEntity
  8
S-TITLE
100
AcDbText
 10
799.0
 20
24.6
 30
0.0
 40
1.4
  1
SHEET
  7
OpenSans
 11
799.0
 21
24.6
 31
0.0
100
AcDbText
  0
TEXT
  5
264
330
17
100
AcDbEntity
  8
S-TITLE
100
AcDbText
 10
799.0
 20
15.0
 30
0.0
 40
1.6
  1
24 OF 30
  7
OpenSans
 11
799.0
 21
15.0
 31
0.0
100
AcDbText
  0
LINE
  5
265
330
17
100
AcDbEntity
  8
S-TITLE
100
AcDbLine
 10
747.0
 20
30.0
 30
0.0
 11
747.0
 21
42.0
 31
0.0
  0
TEXT
  5
266
330
17
100
AcDbEntity
  8
S-TITLE
100
AcDbText
 10
653.0
 20
34.4
 30
0.0
 40
1.6
  1
SCALE   1:60, 1:30, 1:20
  7
OpenSans
 11
653.0
 21
34.4
 31
0.0
100
AcDbText
  0
TEXT
  5
267
330
17
100
AcDbEntity
  8
S-TITLE
100
AcDbText
 10
749.0
 20
34.4
 30
0.0
 40
1.6
  1
DATE   04.09.2026
  7
OpenSans
 11
749.0
 21
34.4
 31
0.0
100
AcDbText
  0
TEXT
  5
268
330
17
100
AcDbEntity
  8
S-TITLE
100
AcDbText
 10
653.0
 20
46.4
 30
0.0
 40
1.4
  1
DESIGNED  [PLACEHOLDER]
  7
OpenSans
 11
653.0
 21
46.4
 31
0.0
100
AcDbText
  0
TEXT
  5
269
330
17
100
AcDbEntity
  8
S-TITLE
100
AcDbText
 10
713.0
 20
46.4
 30
0.0
 40
1.4
  1
CHECKED  [PLACEHOLDER]
  7
OpenSans
 11
713.0
 21
46.4
 31
0.0
100
AcDbText
  0
TEXT
  5
26A
330
17
100
AcDbEntity
  8
S-TITLE
100
AcDbText
 10
773.0
 20
46.4
 30
0.0
 40
1.4
  1
APPROVED  [PLACEHOLDER]
  7
OpenSans
 11
773.0
 21
46.4
 31
0.0
100
AcDbText
  0
TEXT
  5
26B
330
17
100
AcDbEntity
  8
S-TITLE
100
AcDbText
 10
653.0
 20
58.4
 30
0.0
 40
1.4
  1
STATUS
  7
OpenSans
 11
653.0
 21
58.4
 31
0.0
100
AcDbText
  0
TEXT
  5
26C
330
17
100
AcDbEntity
  8
S-BLAST
100
AcDbText
 10
673.0
 20
58.0
 30
0.0
 40
1.6
  1
FOR REVIEW - NOT FOR CONSTRUCTION
  7
OpenSans
 11
673.0
 21
58.0
 31
0.0
100
AcDbText
  0
TEXT
  5
26D
330
17
100
AcDbEntity
  8
S-TITLE
100
AcDbText
 10
653.0
 20
83.4
 30
0.0
 40
1.4
  1
DRAWING TITLE
  7
OpenSans
 11
653.0
 21
83.4
 31
0.0
100
AcDbText
  0
TEXT
  5
26E
330
17
100
AcDbEntity
  8
S-TITLE
100
AcDbText
 10
653.0
 20
75.4
 30
0.0
 40
2.4
  1
ENTRANCE REINFORCEMENT
  7
OpenSans
 11
653.0
 21
75.4
 31
0.0
100
AcDbText
  0
TEXT
  5
26F
330
17
100
AcDbEntity
  8
S-TITLE
100
AcDbText
 10
653.0
 20
68.8
 30
0.0
 40
1.4
  1
COVERED ENTRY STAIRWELL · PLATFORM · HEADWALL · STEPPED RAFT
  7
OpenSans
 11
653.0
 21
68.8
 31
0.0
100
AcDbText
  0
TEXT
  5
270
330
17
100
AcDbEntity
  8
S-TITLE
100
AcDbText
 10
653.0
 20
105.2
 30
0.0
 40
1.4
  1
PROJECT
  7
OpenSans
 11
653.0
 21
105.2
 31
0.0
100
AcDbText
  0
TEXT
  5
271
330
17
100
AcDbEntity
  8
S-TITLE
100
AcDbText
 10
653.0
 20
99.6
 30
0.0
 40
1.6
  1
UNDERGROUND CBRN-HARDENED BLAST-RESISTANT
  7
OpenSans
 11
653.0
 21
99.6
 31
0.0
100
AcDbText
  0
TEXT
  5
272
330
17
100
AcDbEntity
  8
S-TITLE
100
AcDbText
 10
653.0
 20
95.0
 30
0.0
 40
1.6
  1
PROTECTIVE STRUCTURE  -  PUNE, MAHARASHTRA
  7
OpenSans
 11
653.0
 21
95.0
 31
0.0
100
AcDbText
  0
TEXT
  5
273
330
17
100
AcDbEntity
  8
S-TITLE
100
AcDbText
 10
653.0
 20
90.0
 30
0.0
 40
1.4
  1
STRUCTURAL PHASE 2 REV A + M1   ·   SENTRY POST NOT IN THIS PACKAGE
  7
OpenSans
 11
653.0
 21
90.0
 31
0.0
100
AcDbText
  0
ENDSEC
  0
SECTION
  2
OBJECTS
  0
DICTIONARY
  5
A
330
0
100
AcDbDictionary
281
1
  3
ACAD_COLOR
350
B
  3
ACAD_GROUP
350
C
  3
ACAD_LAYOUT
350
D
  3
ACAD_MATERIAL
350
E
  3
ACAD_MLEADERSTYLE
350
F
  3
ACAD_MLINESTYLE
350
10
  3
ACAD_PLOTSETTINGS
350
11
  3
ACAD_PLOTSTYLENAME
350
12
  3
ACAD_SCALELIST
350
14
  3
ACAD_TABLESTYLE
350
15
  3
ACAD_VISUALSTYLE
350
16
  3
EZDXF_META
350
2D
  0
DICTIONARY
  5
B
330
A
100
AcDbDictionary
281
1
  0
DICTIONARY
  5
C
330
A
100
AcDbDictionary
281
1
  0
DICTIONARY
  5
D
330
A
100
AcDbDictionary
281
1
  3
Model
350
1A
  3
Layout1
350
1E
  0
DICTIONARY
  5
E
330
A
100
AcDbDictionary
281
1
  3
ByBlock
350
1F
  3
ByLayer
350
20
  3
Global
350
21
  0
DICTIONARY
  5
F
330
A
100
AcDbDictionary
281
1
  3
Standard
350
2C
  0
DICTIONARY
  5
10
330
A
100
AcDbDictionary
281
1
  3
Standard
350
22
  0
DICTIONARY
  5
11
330
A
100
AcDbDictionary
281
1
  0
ACDBDICTIONARYWDFLT
  5
12
330
A
100
AcDbDictionary
281
1
  3
Normal
350
13
100
AcDbDictionaryWithDefault
340
13
  0
ACDBPLACEHOLDER
  5
13
330
12
  0
DICTIONARY
  5
14
330
A
100
AcDbDictionary
281
1
  0
DICTIONARY
  5
15
330
A
100
AcDbDictionary
281
1
  0
DICTIONARY
  5
16
330
A
100
AcDbDictionary
281
1
  3
2dWireframe
350
5A
  3
Basic
350
5B
  3
Brighten
350
5C
  3
ColorChange
350
5D
  3
Conceptual
350
5E
  3
Dim
350
5F
  3
EdgeColorOff
350
60
  3
Facepattern
350
61
  3
Flat
350
62
  3
FlatWithEdges
350
63
  3
Gouraud
350
64
  3
GouraudWithEdges
350
65
  3
Hidden
350
66
  3
JitterOff
350
67
  3
Linepattern
350
68
  3
Modeling
350
69
  3
OverhangOff
350
6A
  3
Realistic
350
6B
  3
Shaded
350
6C
  3
Shaded with edges
350
6D
  3
Shades of Gray
350
6E
  3
Sketchy
350
6F
  3
Thicken
350
70
  3
Wireframe
350
71
  3
X-Ray
350
72
  0
LAYOUT
  5
1A
330
D
100
AcDbPlotSettings
  1

  4
A3
  6

 40
7.5
 41
20.0
 42
7.5
 43
20.0
 44
420.0
 45
297.0
 46
0.0
 47
0.0
 48
0.0
 49
0.0
140
0.0
141
0.0
142
1.0
143
1.0
 70
1024
 72
1
 73
0
 74
5
  7

 75
16
 76
0
 77
2
 78
300
147
1.0
148
0.0
149
0.0
100
AcDbLayout
  1
Model
 70
1
 71
0
 10
0.0
 20
0.0
 11
420.0
 21
297.0
 12
0.0
 22
0.0
 32
0.0
 14
1e+20
 24
1e+20
 34
1e+20
 15
-1e+20
 25
-1e+20
 35
-1e+20
146
0.0
 13
0.0
 23
0.0
 33
0.0
 16
1.0
 26
0.0
 36
0.0
 17
0.0
 27
1.0
 37
0.0
 76
1
330
17
  0
LAYOUT
  5
1E
330
D
100
AcDbPlotSettings
  1

  4
A3
  6

 40
7.5
 41
20.0
 42
7.5
 43
20.0
 44
420.0
 45
297.0
 46
0.0
 47
0.0
 48
0.0
 49
0.0
140
0.0
141
0.0
142
1.0
143
1.0
 70
0
 72
1
 73
0
 74
5
  7

 75
16
 76
0
 77
2
 78
300
147
1.0
148
0.0
149
0.0
100
AcDbLayout
  1
Layout1
 70
1
 71
1
 10
0.0
 20
0.0
 11
420.0
 21
297.0
 12
0.0
 22
0.0
 32
0.0
 14
1e+20
 24
1e+20
 34
1e+20
 15
-1e+20
 25
-1e+20
 35
-1e+20
146
0.0
 13
0.0
 23
0.0
 33
0.0
 16
1.0
 26
0.0
 36
0.0
 17
0.0
 27
1.0
 37
0.0
 76
1
330
1B
  0
MATERIAL
  5
1F
102
{ACAD_REACTORS
330
E
102
}
330
E
100
AcDbMaterial
  1
ByBlock
  2

 70
0
 40
1.0
 71
1
 41
1.0
 91
-1023410177
 42
1.0
 72
1
  3

 73
1
 74
1
 75
1
 44
0.5
 73
0
 45
1.0
 46
1.0
 77
1
  4

 78
1
 79
1
170
1
 48
1.0
171
1
  6

172
1
173
1
174
1
140
1.0
141
1.0
175
1
  7

176
1
177
1
178
1
143
1.0
179
1
  8

270
1
271
1
272
1
145
1.0
146
1.0
273
1
  9

274
1
275
1
276
1
 42
1.0
 72
1
  3

 73
1
 74
1
 75
1
 94
63
  0
MATERIAL
  5
20
102
{ACAD_REACTORS
330
E
102
}
330
E
100
AcDbMaterial
  1
ByLayer
  2

 70
0
 40
1.0
 71
1
 41
1.0
 91
-1023410177
 42
1.0
 72
1
  3

 73
1
 74
1
 75
1
 44
0.5
 73
0
 45
1.0
 46
1.0
 77
1
  4

 78
1
 79
1
170
1
 48
1.0
171
1
  6

172
1
173
1
174
1
140
1.0
141
1.0
175
1
  7

176
1
177
1
178
1
143
1.0
179
1
  8

270
1
271
1
272
1
145
1.0
146
1.0
273
1
  9

274
1
275
1
276
1
 42
1.0
 72
1
  3

 73
1
 74
1
 75
1
 94
63
  0
MATERIAL
  5
21
102
{ACAD_REACTORS
330
E
102
}
330
E
100
AcDbMaterial
  1
Global
  2

 70
0
 40
1.0
 71
1
 41
1.0
 91
-1023410177
 42
1.0
 72
1
  3

 73
1
 74
1
 75
1
 44
0.5
 73
0
 45
1.0
 46
1.0
 77
1
  4

 78
1
 79
1
170
1
 48
1.0
171
1
  6

172
1
173
1
174
1
140
1.0
141
1.0
175
1
  7

176
1
177
1
178
1
143
1.0
179
1
  8

270
1
271
1
272
1
145
1.0
146
1.0
273
1
  9

274
1
275
1
276
1
 42
1.0
 72
1
  3

 73
1
 74
1
 75
1
 94
63
  0
MLINESTYLE
  5
22
102
{ACAD_REACTORS
330
10
102
}
330
10
100
AcDbMlineStyle
  2
Standard
 70
0
  3

 62
256
 51
90.0
 52
90.0
 71
2
 49
0.5
 62
256
  6
BYLAYER
 49
-0.5
 62
256
  6
BYLAYER
  0
MLEADERSTYLE
  5
2C
102
{ACAD_REACTORS
330
F
102
}
330
F
100
AcDbMLeaderStyle
179
2
170
2
171
1
172
0
 90
2
 40
0.0
 41
0.0
173
1
 91
-1056964608
 92
-2
290
1
 42
2.0
291
1
 43
8.0
  3
Standard
 44
4.0
300

342
29
174
1
175
1
176
0
178
1
 93
-1056964608
 45
4.0
292
0
297
0
 46
4.0
 94
-1056964608
 47
1.0
 49
1.0
140
1.0
294
1
141
0.0
177
0
142
1.0
295
0
296
0
143
3.75
271
0
272
9
273
9
  0
DICTIONARY
  5
2D
330
A
100
AcDbDictionary
280
1
281
1
  3
CREATED_BY_EZDXF
350
2E
  3
WRITTEN_BY_EZDXF
350
276
  0
DICTIONARYVAR
  5
2E
330
2D
100
DictionaryVariables
280
0
  1
1.4.4 @ 2026-09-09T17:03:47.387002+00:00
  0
VISUALSTYLE
  5
5A
102
{ACAD_REACTORS
330
16
102
}
330
16
100
AcDbVisualStyle
  2
2dWireframe
 70
4
 90
0
 40
0.6
 62
7
290
0
291
0
  0
VISUALSTYLE
  5
5B
102
{ACAD_REACTORS
330
16
102
}
330
16
100
AcDbVisualStyle
  2
Basic
 70
7
 90
1
 40
0.6
 62
7
290
0
291
1
  0
VISUALSTYLE
  5
5C
102
{ACAD_REACTORS
330
16
102
}
330
16
100
AcDbVisualStyle
  2
Brighten
 70
12
 90
2
 40
0.6
 62
7
290
0
291
1
  0
VISUALSTYLE
  5
5D
102
{ACAD_REACTORS
330
16
102
}
330
16
100
AcDbVisualStyle
  2
ColorChange
 70
16
 90
2
 40
0.6
 62
8
290
0
291
1
  0
VISUALSTYLE
  5
5E
102
{ACAD_REACTORS
330
16
102
}
330
16
100
AcDbVisualStyle
  2
Conceptual
 70
9
 90
3
 40
0.6
 62
7
290
0
291
0
  0
VISUALSTYLE
  5
5F
102
{ACAD_REACTORS
330
16
102
}
330
16
100
AcDbVisualStyle
  2
Dim
 70
11
 90
2
 40
0.6
 62
7
290
0
291
1
  0
VISUALSTYLE
  5
60
102
{ACAD_REACTORS
330
16
102
}
330
16
100
AcDbVisualStyle
  2
EdgeColorOff
 70
22
 90
2
 40
0.6
 62
7
290
0
291
1
  0
VISUALSTYLE
  5
61
102
{ACAD_REACTORS
330
16
102
}
330
16
100
AcDbVisualStyle
  2
Facepattern
 70
15
 90
2
 40
0.6
 62
7
290
0
291
1
  0
VISUALSTYLE
  5
62
102
{ACAD_REACTORS
330
16
102
}
330
16
100
AcDbVisualStyle
  2
Flat
 70
0
 90
2
 40
0.6
 62
7
290
0
291
1
  0
VISUALSTYLE
  5
63
102
{ACAD_REACTORS
330
16
102
}
330
16
100
AcDbVisualStyle
  2
FlatWithEdges
 70
1
 90
2
 40
0.6
 62
7
290
0
291
1
  0
VISUALSTYLE
  5
64
102
{ACAD_REACTORS
330
16
102
}
330
16
100
AcDbVisualStyle
  2
Gouraud
 70
2
 90
2
 40
0.6
 62
7
290
0
291
1
  0
VISUALSTYLE
  5
65
102
{ACAD_REACTORS
330
16
102
}
330
16
100
AcDbVisualStyle
  2
GouraudWithEdges
 70
3
 90
2
 40
0.6
 62
7
290
0
291
1
  0
VISUALSTYLE
  5
66
102
{ACAD_REACTORS
330
16
102
}
330
16
100
AcDbVisualStyle
  2
Hidden
 70
6
 90
1
 40
0.6
 62
7
290
0
291
0
  0
VISUALSTYLE
  5
67
102
{ACAD_REACTORS
330
16
102
}
330
16
100
AcDbVisualStyle
  2
JitterOff
 70
20
 90
2
 40
0.6
 62
7
290
0
291
1
  0
VISUALSTYLE
  5
68
102
{ACAD_REACTORS
330
16
102
}
330
16
100
AcDbVisualStyle
  2
Linepattern
 70
14
 90
2
 40
0.6
 62
7
290
0
291
1
  0
VISUALSTYLE
  5
69
102
{ACAD_REACTORS
330
16
102
}
330
16
100
AcDbVisualStyle
  2
Modeling
 70
10
 90
2
 40
0.6
 62
7
290
0
291
0
  0
VISUALSTYLE
  5
6A
102
{ACAD_REACTORS
330
16
102
}
330
16
100
AcDbVisualStyle
  2
OverhangOff
 70
21
 90
2
 40
0.6
 62
7
290
0
291
1
  0
VISUALSTYLE
  5
6B
102
{ACAD_REACTORS
330
16
102
}
330
16
100
AcDbVisualStyle
  2
Realistic
 70
8
 90
2
 40
0.6
 62
7
290
0
291
0
  0
VISUALSTYLE
  5
6C
102
{ACAD_REACTORS
330
16
102
}
330
16
100
AcDbVisualStyle
  2
Shaded
 70
27
 90
2
 40
0.6
 62
7
290
0
291
0
  0
VISUALSTYLE
  5
6D
102
{ACAD_REACTORS
330
16
102
}
330
16
100
AcDbVisualStyle
  2
Shaded with edges
 70
26
 90
2
 40
0.6
 62
7
290
0
291
0
  0
VISUALSTYLE
  5
6E
102
{ACAD_REACTORS
330
16
102
}
330
16
100
AcDbVisualStyle
  2
Shades of Gray
 70
23
 90
2
 40
0.6
 62
7
290
0
291
0
  0
VISUALSTYLE
  5
6F
102
{ACAD_REACTORS
330
16
102
}
330
16
100
AcDbVisualStyle
  2
Sketchy
 70
24
 90
1
 40
0.6
 62
7
290
0
291
0
  0
VISUALSTYLE
  5
70
102
{ACAD_REACTORS
330
16
102
}
330
16
100
AcDbVisualStyle
  2
Thicken
 70
13
 90
2
 40
0.6
 62
7
290
0
291
1
  0
VISUALSTYLE
  5
71
102
{ACAD_REACTORS
330
16
102
}
330
16
100
AcDbVisualStyle
  2
Wireframe
 70
5
 90
0
 40
0.6
 62
7
290
0
291
0
  0
VISUALSTYLE
  5
72
102
{ACAD_REACTORS
330
16
102
}
330
16
100
AcDbVisualStyle
  2
X-Ray
 70
25
 90
2
 40
0.5
 62
7
290
0
291
0
  0
DICTIONARYVAR
  5
276
330
2D
100
DictionaryVariables
280
0
  1
1.4.4 @ 2026-09-09T17:03:47.406571+00:00
  0
ENDSEC
  0
EOF
