  0
SECTION
  2
HEADER
  9
$ACADVER
  1
AC1024
  9
$ACADMAINTVER
 70
6
  9
$DWGCODEPAGE
  3
ANSI_1252
  9
$LASTSAVEDBY
  1
ezdxf
  9
$INSBASE
 10
0.0
 20
0.0
 30
0.0
  9
$EXTMIN
 10
1e+20
 20
1e+20
 30
1e+20
  9
$EXTMAX
 10
-1e+20
 20
-1e+20
 30
-1e+20
  9
$LIMMIN
 10
0.0
 20
0.0
  9
$LIMMAX
 10
420.0
 20
297.0
  9
$ORTHOMODE
 70
0
  9
$REGENMODE
 70
1
  9
$FILLMODE
 70
1
  9
$QTEXTMODE
 70
0
  9
$MIRRTEXT
 70
1
  9
$LTSCALE
 40
1.0
  9
$ATTMODE
 70
1
  9
$TEXTSIZE
 40
2.5
  9
$TRACEWID
 40
1.0
  9
$TEXTSTYLE
  7
OpenSans
  9
$CLAYER
  8
0
  9
$CELTYPE
  6
ByLayer
  9
$CECOLOR
 62
256
  9
$CELTSCALE
 40
1.0
  9
$DISPSILH
 70
0
  9
$DIMSCALE
 40
1.0
  9
$DIMASZ
 40
0.175
  9
$DIMEXO
 40
0.125
  9
$DIMDLI
 40
3.75
  9
$DIMRND
 40
0.0
  9
$DIMDLE
 40
0.0
  9
$DIMEXE
 40
0.375
  9
$DIMTP
 40
0.0
  9
$DIMTM
 40
0.0
  9
$DIMTXT
 40
0.25
  9
$DIMCEN
 40
2.5
  9
$DIMTSZ
 40
0.0
  9
$DIMTOL
 70
0
  9
$DIMLIM
 70
0
  9
$DIMTIH
 70
0
  9
$DIMTOH
 70
0
  9
$DIMSE1
 70
0
  9
$DIMSE2
 70
0
  9
$DIMTAD
 70
1
  9
$DIMZIN
 70
12
  9
$DIMBLK
  1
ARCHTICK
  9
$DIMASO
 70
1
  9
$DIMSHO
 70
1
  9
$DIMPOST
  1

  9
$DIMAPOST
  1

  9
$DIMALT
 70
0
  9
$DIMALTD
 70
3
  9
$DIMALTF
 40
0.03937007874
  9
$DIMLFAC
 40
100.0
  9
$DIMTOFL
 70
1
  9
$DIMTVP
 40
0.0
  9
$DIMTIX
 70
0
  9
$DIMSOXD
 70
0
  9
$DIMSAH
 70
0
  9
$DIMBLK1
  1

  9
$DIMBLK2
  1

  9
$DIMSTYLE
  2
EZDXF
  9
$DIMCLRD
 70
0
  9
$DIMCLRE
 70
0
  9
$DIMCLRT
 70
0
  9
$DIMTFAC
 40
0.5
  9
$DIMGAP
 40
0.1
  9
$DIMJUST
 70
0
  9
$DIMSD1
 70
0
  9
$DIMSD2
 70
0
  9
$DIMTOLJ
 70
0
  9
$DIMTZIN
 70
8
  9
$DIMALTZ
 70
0
  9
$DIMALTTZ
 70
0
  9
$DIMUPT
 70
1
  9
$DIMDEC
 70
2
  9
$DIMTDEC
 70
2
  9
$DIMALTU
 70
2
  9
$DIMALTTD
 70
3
  9
$DIMTXSTY
  7
OpenSansCondensed-Light
  9
$DIMAUNIT
 70
0
  9
$DIMADEC
 70
2
  9
$DIMALTRND
 40
0.0
  9
$DIMAZIN
 70
3
  9
$DIMDSEP
 70
46
  9
$DIMATFIT
 70
3
  9
$DIMFRAC
 70
0
  9
$DIMLDRBLK
  1

  9
$DIMLUNIT
 70
2
  9
$DIMLWD
 70
-2
  9
$DIMLWE
 70
-2
  9
$DIMTMOVE
 70
2
  9
$DIMFXL
 40
1.0
  9
$DIMFXLON
 70
0
  9
$DIMJOGANG
 40
0.785398163397
  9
$DIMTFILL
 70
0
  9
$DIMTFILLCLR
 70
0
  9
$DIMARCSYM
 70
0
  9
$DIMLTYPE
  6

  9
$DIMLTEX1
  6

  9
$DIMLTEX2
  6

  9
$DIMTXTDIRECTION
 70
0
  9
$LUNITS
 70
2
  9
$LUPREC
 70
4
  9
$SKETCHINC
 40
1.0
  9
$FILLETRAD
 40
10.0
  9
$AUNITS
 70
0
  9
$AUPREC
 70
2
  9
$MENU
  1
.
  9
$ELEVATION
 40
0.0
  9
$PELEVATION
 40
0.0
  9
$THICKNESS
 40
0.0
  9
$LIMCHECK
 70
0
  9
$CHAMFERA
 40
0.0
  9
$CHAMFERB
 40
0.0
  9
$CHAMFERC
 40
0.0
  9
$CHAMFERD
 40
0.0
  9
$SKPOLY
 70
0
  9
$TDCREATE
 40
2461293.697372685
  9
$TDUCREATE
 40
2458532.153996898
  9
$TDUPDATE
 40
2461293.697372685
  9
$TDUUPDATE
 40
2458532.1544311
  9
$TDINDWG
 40
0.0
  9
$TDUSRTIMER
 40
0.0
  9
$USRTIMER
 70
1
  9
$ANGBASE
 50
0.0
  9
$ANGDIR
 70
0
  9
$PDMODE
 70
0
  9
$PDSIZE
 40
0.0
  9
$PLINEWID
 40
0.0
  9
$SPLFRAME
 70
0
  9
$SPLINETYPE
 70
6
  9
$SPLINESEGS
 70
8
  9
$HANDSEED
  5
23C
  9
$SURFTAB1
 70
6
  9
$SURFTAB2
 70
6
  9
$SURFTYPE
 70
6
  9
$SURFU
 70
6
  9
$SURFV
 70
6
  9
$UCSBASE
  2

  9
$UCSNAME
  2

  9
$UCSORG
 10
0.0
 20
0.0
 30
0.0
  9
$UCSXDIR
 10
1.0
 20
0.0
 30
0.0
  9
$UCSYDIR
 10
0.0
 20
1.0
 30
0.0
  9
$UCSORTHOREF
  2

  9
$UCSORTHOVIEW
 70
0
  9
$UCSORGTOP
 10
0.0
 20
0.0
 30
0.0
  9
$UCSORGBOTTOM
 10
0.0
 20
0.0
 30
0.0
  9
$UCSORGLEFT
 10
0.0
 20
0.0
 30
0.0
  9
$UCSORGRIGHT
 10
0.0
 20
0.0
 30
0.0
  9
$UCSORGFRONT
 10
0.0
 20
0.0
 30
0.0
  9
$UCSORGBACK
 10
0.0
 20
0.0
 30
0.0
  9
$PUCSBASE
  2

  9
$PUCSNAME
  2

  9
$PUCSORG
 10
0.0
 20
0.0
 30
0.0
  9
$PUCSXDIR
 10
1.0
 20
0.0
 30
0.0
  9
$PUCSYDIR
 10
0.0
 20
1.0
 30
0.0
  9
$PUCSORTHOREF
  2

  9
$PUCSORTHOVIEW
 70
0
  9
$PUCSORGTOP
 10
0.0
 20
0.0
 30
0.0
  9
$PUCSORGBOTTOM
 10
0.0
 20
0.0
 30
0.0
  9
$PUCSORGLEFT
 10
0.0
 20
0.0
 30
0.0
  9
$PUCSORGRIGHT
 10
0.0
 20
0.0
 30
0.0
  9
$PUCSORGFRONT
 10
0.0
 20
0.0
 30
0.0
  9
$PUCSORGBACK
 10
0.0
 20
0.0
 30
0.0
  9
$USERI1
 70
0
  9
$USERI2
 70
0
  9
$USERI3
 70
0
  9
$USERI4
 70
0
  9
$USERI5
 70
0
  9
$USERR1
 40
0.0
  9
$USERR2
 40
0.0
  9
$USERR3
 40
0.0
  9
$USERR4
 40
0.0
  9
$USERR5
 40
0.0
  9
$WORLDVIEW
 70
1
  9
$SHADEDGE
 70
3
  9
$SHADEDIF
 70
70
  9
$TILEMODE
 70
1
  9
$MAXACTVP
 70
64
  9
$PINSBASE
 10
0.0
 20
0.0
 30
0.0
  9
$PLIMCHECK
 70
0
  9
$PEXTMIN
 10
1e+20
 20
1e+20
 30
1e+20
  9
$PEXTMAX
 10
-1e+20
 20
-1e+20
 30
-1e+20
  9
$PLIMMIN
 10
0.0
 20
0.0
  9
$PLIMMAX
 10
420.0
 20
297.0
  9
$UNITMODE
 70
0
  9
$VISRETAIN
 70
1
  9
$PLINEGEN
 70
0
  9
$PSLTSCALE
 70
1
  9
$TREEDEPTH
 70
3020
  9
$CMLSTYLE
  2
Standard
  9
$CMLJUST
 70
0
  9
$CMLSCALE
 40
20.0
  9
$PROXYGRAPHICS
 70
1
  9
$MEASUREMENT
 70
1
  9
$CELWEIGHT
370
-1
  9
$ENDCAPS
280
0
  9
$JOINSTYLE
280
0
  9
$LWDISPLAY
290
0
  9
$INSUNITS
 70
4
  9
$HYPERLINKBASE
  1

  9
$STYLESHEET
  1

  9
$XEDIT
290
1
  9
$CEPSNTYPE
380
0
  9
$PSTYLEMODE
290
1
  9
$FINGERPRINTGUID
  2
{47F9DC8C-65CA-4458-9838-9D8A35E8057B}
  9
$VERSIONGUID
  2
{3D8E6E23-1497-4978-B9E5-DCBA412F370A}
  9
$EXTNAMES
290
1
  9
$PSVPSCALE
 40
0.0
  9
$OLESTARTUP
290
0
  9
$SORTENTS
280
127
  9
$INDEXCTL
280
0
  9
$HIDETEXT
280
1
  9
$XCLIPFRAME
280
1
  9
$HALOGAP
280
0
  9
$OBSCOLOR
 70
257
  9
$OBSLTYPE
280
0
  9
$INTERSECTIONDISPLAY
280
0
  9
$INTERSECTIONCOLOR
 70
257
  9
$DIMASSOC
280
2
  9
$PROJECTNAME
  1

  9
$CAMERADISPLAY
290
0
  9
$LENSLENGTH
 40
50.0
  9
$CAMERAHEIGHT
 40
0.0
  9
$STEPSPERSEC
 40
24.0
  9
$STEPSIZE
 40
100.0
  9
$3DDWFPREC
 40
2.0
  9
$PSOLWIDTH
 40
0.005
  9
$PSOLHEIGHT
 40
0.08
  9
$LOFTANG1
 40
1.570796326795
  9
$LOFTANG2
 40
1.570796326795
  9
$LOFTMAG1
 40
0.0
  9
$LOFTMAG2
 40
0.0
  9
$LOFTPARAM
 70
7
  9
$LOFTNORMALS
280
1
  9
$LATITUDE
 40
37.795
  9
$LONGITUDE
 40
-122.394
  9
$NORTHDIRECTION
 40
0.0
  9
$TIMEZONE
 70
-8000
  9
$LIGHTGLYPHDISPLAY
280
1
  9
$TILEMODELIGHTSYNCH
280
1
  9
$CMATERIAL
347
20
  9
$SOLIDHIST
280
0
  9
$SHOWHIST
280
1
  9
$DWFFRAME
280
2
  9
$DGNFRAME
280
2
  9
$REALWORLDSCALE
290
1
  9
$INTERFERECOLOR
 62
256
  9
$CSHADOW
280
0
  9
$SHADOWPLANELOCATION
 40
0.0
  0
ENDSEC
  0
SECTION
  2
CLASSES
  0
CLASS
  1
ACDBDICTIONARYWDFLT
  2
AcDbDictionaryWithDefault
  3
ObjectDBX Classes
 90
0
 91
0
280
0
281
0
  0
CLASS
  1
SUN
  2
AcDbSun
  3
SCENEOE
 90
1153
 91
0
280
0
281
0
  0
CLASS
  1
VISUALSTYLE
  2
AcDbVisualStyle
  3
ObjectDBX Classes
 90
4095
 91
0
280
0
281
0
  0
CLASS
  1
MATERIAL
  2
AcDbMaterial
  3
ObjectDBX Classes
 90
1153
 91
0
280
0
281
0
  0
CLASS
  1
SCALE
  2
AcDbScale
  3
ObjectDBX Classes
 90
1153
 91
0
280
0
281
0
  0
CLASS
  1
TABLESTYLE
  2
AcDbTableStyle
  3
ObjectDBX Classes
 90
4095
 91
0
280
0
281
0
  0
CLASS
  1
MLEADERSTYLE
  2
AcDbMLeaderStyle
  3
ACDB_MLEADERSTYLE_CLASS
 90
4095
 91
0
280
0
281
0
  0
CLASS
  1
DICTIONARYVAR
  2
AcDbDictionaryVar
  3
ObjectDBX Classes
 90
0
 91
0
280
0
281
0
  0
CLASS
  1
CELLSTYLEMAP
  2
AcDbCellStyleMap
  3
ObjectDBX Classes
 90
1152
 91
0
280
0
281
0
  0
CLASS
  1
MENTALRAYRENDERSETTINGS
  2
AcDbMentalRayRenderSettings
  3
SCENEOE
 90
1024
 91
0
280
0
281
0
  0
CLASS
  1
ACDBDETAILVIEWSTYLE
  2
AcDbDetailViewStyle
  3
ObjectDBX Classes
 90
1025
 91
0
280
0
281
0
  0
CLASS
  1
ACDBSECTIONVIEWSTYLE
  2
AcDbSectionViewStyle
  3
ObjectDBX Classes
 90
1025
 91
0
280
0
281
0
  0
CLASS
  1
RASTERVARIABLES
  2
AcDbRasterVariables
  3
ISM
 90
0
 91
0
280
0
281
0
  0
CLASS
  1
LAYOUT
  2
AcDbLayout
  3
ObjectDBX Classes
 90
0
 91
0
280
0
281
0
  0
CLASS
  1
ACDBPLACEHOLDER
  2
AcDbPlaceHolder
  3
ObjectDBX Classes
 90
0
 91
0
280
0
281
0
  0
ENDSEC
  0
SECTION
  2
TABLES
  0
TABLE
  2
VPORT
  5
8
330
0
100
AcDbSymbolTable
 70
1
  0
VPORT
  5
23
330
8
100
AcDbSymbolTableRecord
100
AcDbViewportTableRecord
  2
*Active
 70
0
 10
0.0
 20
0.0
 11
1.0
 21
1.0
 12
0.0
 22
0.0
 13
0.0
 23
0.0
 14
0.5
 24
0.5
 15
0.5
 25
0.5
 16
0.0
 26
0.0
 36
1.0
 17
0.0
 27
0.0
 37
0.0
 40
1000.0
 41
1.34
 42
50.0
 43
0.0
 44
0.0
 50
0.0
 51
0.0
 71
0
 72
1000
 73
1
 74
3
 75
0
 76
0
 77
0
 78
0
281
0
 65
0
146
0.0
  0
ENDTAB
  0
TABLE
  2
LTYPE
  5
2
330
0
100
AcDbSymbolTable
 70
21
  0
LTYPE
  5
24
330
2
100
AcDbSymbolTableRecord
100
AcDbLinetypeTableRecord
  2
ByBlock
 70
0
  3

 72
65
 73
0
 40
0.0
  0
LTYPE
  5
25
330
2
100
AcDbSymbolTableRecord
100
AcDbLinetypeTableRecord
  2
ByLayer
 70
0
  3

 72
65
 73
0
 40
0.0
  0
LTYPE
  5
26
330
2
100
AcDbSymbolTableRecord
100
AcDbLinetypeTableRecord
  2
Continuous
 70
0
  3

 72
65
 73
0
 40
0.0
  0
LTYPE
  5
2F
330
2
100
AcDbSymbolTableRecord
100
AcDbLinetypeTableRecord
  2
CENTER
 70
0
  3
Center ____ _ ____ _ ____ _ ____ _ ____ _ ____
 72
65
 73
4
 40
5.08
 49
3.175
 74
0
 49
-0.635
 74
0
 49
0.635
 74
0
 49
-0.635
 74
0
  0
LTYPE
  5
30
330
2
100
AcDbSymbolTableRecord
100
AcDbLinetypeTableRecord
  2
CENTERX2
 70
0
  3
Center (2x) ________  __  ________  __  ________
 72
65
 73
4
 40
8.89
 49
6.35
 74
0
 49
-0.635
 74
0
 49
1.27
 74
0
 49
-0.635
 74
0
  0
LTYPE
  5
31
330
2
100
AcDbSymbolTableRecord
100
AcDbLinetypeTableRecord
  2
CENTER2
 70
0
  3
Center (.5x) ____ _ ____ _ ____ _ ____ _ ____
 72
65
 73
4
 40
2.54
 49
1.587
 74
0
 49
-0.318
 74
0
 49
0.318
 74
0
 49
-0.318
 74
0
  0
LTYPE
  5
32
330
2
100
AcDbSymbolTableRecord
100
AcDbLinetypeTableRecord
  2
DASHED
 70
0
  3
Dashed __ __ __ __ __ __ __ __ __ __ __ __ __ _
 72
65
 73
2
 40
1.524
 49
1.27
 74
0
 49
-0.254
 74
0
  0
LTYPE
  5
33
330
2
100
AcDbSymbolTableRecord
100
AcDbLinetypeTableRecord
  2
DASHEDX2
 70
0
  3
Dashed (2x) ____  ____  ____  ____  ____  ____
 72
65
 73
2
 40
3.048
 49
2.54
 74
0
 49
-0.508
 74
0
  0
LTYPE
  5
34
330
2
100
AcDbSymbolTableRecord
100
AcDbLinetypeTableRecord
  2
DASHED2
 70
0
  3
Dashed (.5x) _ _ _ _ _ _ _ _ _ _ _ _ _ _
 72
65
 73
2
 40
0.762
 49
0.635
 74
0
 49
-0.127
 74
0
  0
LTYPE
  5
35
330
2
100
AcDbSymbolTableRecord
100
AcDbLinetypeTableRecord
  2
PHANTOM
 70
0
  3
Phantom ______  __  __  ______  __  __  ______
 72
65
 73
6
 40
6.35
 49
3.175
 74
0
 49
-0.635
 74
0
 49
0.635
 74
0
 49
-0.635
 74
0
 49
0.635
 74
0
 49
-0.635
 74
0
  0
LTYPE
  5
36
330
2
100
AcDbSymbolTableRecord
100
AcDbLinetypeTableRecord
  2
PHANTOMX2
 70
0
  3
Phantom (2x)____________    ____    ____    ____________
 72
65
 73
6
 40
10.795
 49
6.35
 74
0
 49
-0.635
 74
0
 49
1.27
 74
0
 49
-0.635
 74
0
 49
1.27
 74
0
 49
-0.635
 74
0
  0
LTYPE
  5
37
330
2
100
AcDbSymbolTableRecord
100
AcDbLinetypeTableRecord
  2
PHANTOM2
 70
0
  3
Phantom (.5x) ___ _ _ ___ _ _ ___ _ _ ___ _ _ ___
 72
65
 73
6
 40
3.175
 49
1.587
 74
0
 49
-0.318
 74
0
 49
0.318
 74
0
 49
-0.318
 74
0
 49
0.318
 74
0
 49
-0.318
 74
0
  0
LTYPE
  5
38
330
2
100
AcDbSymbolTableRecord
100
AcDbLinetypeTableRecord
  2
DASHDOT
 70
0
  3
Dash dot __ . __ . __ . __ . __ . __ . __ . __
 72
65
 73
4
 40
3.556
 49
2.54
 74
0
 49
-0.508
 74
0
 49
0.0
 74
0
 49
-0.508
 74
0
  0
LTYPE
  5
39
330
2
100
AcDbSymbolTableRecord
100
AcDbLinetypeTableRecord
  2
DASHDOTX2
 70
0
  3
Dash dot (2x) ____  .  ____  .  ____  .  ____
 72
65
 73
4
 40
6.096
 49
5.08
 74
0
 49
-0.508
 74
0
 49
0.0
 74
0
 49
-0.508
 74
0
  0
LTYPE
  5
3A
330
2
100
AcDbSymbolTableRecord
100
AcDbLinetypeTableRecord
  2
DASHDOT2
 70
0
  3
Dash dot (.5x) _ . _ . _ . _ . _ . _ . _ . _
 72
65
 73
4
 40
1.778
 49
1.27
 74
0
 49
-0.254
 74
0
 49
0.0
 74
0
 49
-0.254
 74
0
  0
LTYPE
  5
3B
330
2
100
AcDbSymbolTableRecord
100
AcDbLinetypeTableRecord
  2
DOT
 70
0
  3
Dot .  .  .  .  .  .  .  .  .  .  .  .  .  .  .  .
 72
65
 73
2
 40
0.508
 49
0.0
 74
0
 49
-0.508
 74
0
  0
LTYPE
  5
3C
330
2
100
AcDbSymbolTableRecord
100
AcDbLinetypeTableRecord
  2
DOTX2
 70
0
  3
Dot (2x) .    .    .    .    .    .    .    . 
 72
65
 73
2
 40
1.016
 49
0.0
 74
0
 49
-1.016
 74
0
  0
LTYPE
  5
3D
330
2
100
AcDbSymbolTableRecord
100
AcDbLinetypeTableRecord
  2
DOT2
 70
0
  3
Dot (.5) . . . . . . . . . . . . . . . . . . . 
 72
65
 73
2
 40
0.254
 49
0.0
 74
0
 49
-0.254
 74
0
  0
LTYPE
  5
3E
330
2
100
AcDbSymbolTableRecord
100
AcDbLinetypeTableRecord
  2
DIVIDE
 70
0
  3
Divide __ . . __ . . __ . . __ . . __ . . __
 72
65
 73
6
 40
4.064
 49
2.54
 74
0
 49
-0.508
 74
0
 49
0.0
 74
0
 49
-0.508
 74
0
 49
0.0
 74
0
 49
-0.508
 74
0
  0
LTYPE
  5
3F
330
2
100
AcDbSymbolTableRecord
100
AcDbLinetypeTableRecord
  2
DIVIDEX2
 70
0
  3
Divide (2x) ____  . .  ____  . .  ____  . .  ____
 72
65
 73
6
 40
6.604
 49
5.08
 74
0
 49
-0.508
 74
0
 49
0.0
 74
0
 49
-0.508
 74
0
 49
0.0
 74
0
 49
-0.508
 74
0
  0
LTYPE
  5
40
330
2
100
AcDbSymbolTableRecord
100
AcDbLinetypeTableRecord
  2
DIVIDE2
 70
0
  3
Divide(.5x) _ . _ . _ . _ . _ . _ . _ . _
 72
65
 73
6
 40
2.032
 49
1.27
 74
0
 49
-0.254
 74
0
 49
0.0
 74
0
 49
-0.254
 74
0
 49
0.0
 74
0
 49
-0.254
 74
0
  0
ENDTAB
  0
TABLE
  2
LAYER
  5
1
330
0
100
AcDbSymbolTable
 70
65
  0
LAYER
  5
27
330
1
100
AcDbSymbolTableRecord
100
AcDbLayerTableRecord
  2
0
 70
0
 62
7
  6
Continuous
370
-3
390
13
347
21
  0
LAYER
  5
28
330
1
100
AcDbSymbolTableRecord
100
AcDbLayerTableRecord
  2
Defpoints
 70
0
 62
7
  6
Continuous
290
0
370
-3
390
13
347
21
  0
LAYER
  5
8A
330
1
100
AcDbSymbolTableRecord
100
AcDbLayerTableRecord
  2
S-CONCRETE
 70
0
 62
7
  6
Continuous
370
-3
390
13
347
21
1001
AcAecLayerStandard
1000

1000
Structural concrete outlines (cut)
  0
LAYER
  5
8C
330
1
100
AcDbSymbolTableRecord
100
AcDbLayerTableRecord
  2
S-CONCRETE-THIN
 70
0
 62
7
  6
Continuous
370
-3
390
13
347
21
1001
AcAecLayerStandard
1000

1000
Concrete beyond the cut plane
  0
LAYER
  5
8D
330
1
100
AcDbSymbolTableRecord
100
AcDbLayerTableRecord
  2
S-HIDDEN
 70
0
 62
8
  6
Continuous
370
-3
390
13
347
21
1001
AcAecLayerStandard
1000

1000
Concrete / features beyond, hidden
  0
LAYER
  5
8E
330
1
100
AcDbSymbolTableRecord
100
AcDbLayerTableRecord
  2
S-REBAR-MAIN
 70
0
 62
1
  6
Continuous
370
-3
390
13
347
21
1001
AcAecLayerStandard
1000

1000
Main reinforcement
  0
LAYER
  5
8F
330
1
100
AcDbSymbolTableRecord
100
AcDbLayerTableRecord
  2
S-REBAR-DIST
 70
0
 62
3
  6
Continuous
370
-3
390
13
347
21
1001
AcAecLayerStandard
1000

1000
Distribution reinforcement
  0
LAYER
  5
90
330
1
100
AcDbSymbolTableRecord
100
AcDbLayerTableRecord
  2
S-REBAR-STIRRUP
 70
0
 62
6
  6
Continuous
370
-3
390
13
347
21
1001
AcAecLayerStandard
1000

1000
Links and stirrups
  0
LAYER
  5
91
330
1
100
AcDbSymbolTableRecord
100
AcDbLayerTableRecord
  2
S-REBAR-TIE
 70
0
 62
6
  6
Continuous
370
-3
390
13
347
21
1001
AcAecLayerStandard
1000

1000
Ties, cross-ties, starters
  0
LAYER
  5
92
330
1
100
AcDbSymbolTableRecord
100
AcDbLayerTableRecord
  2
S-REBAR-SEC
 70
0
 62
4
  6
Continuous
370
-3
390
13
347
21
1001
AcAecLayerStandard
1000

1000
Trimmers, secondary and additional bars
  0
LAYER
  5
93
330
1
100
AcDbSymbolTableRecord
100
AcDbLayerTableRecord
  2
S-DIM
 70
0
 62
4
  6
Continuous
370
-3
390
13
347
21
1001
AcAecLayerStandard
1000

1000
Dimensions
  0
LAYER
  5
94
330
1
100
AcDbSymbolTableRecord
100
AcDbLayerTableRecord
  2
S-TEXT
 70
0
 62
7
  6
Continuous
370
-3
390
13
347
21
1001
AcAecLayerStandard
1000

1000
General annotation
  0
LAYER
  5
95
330
1
100
AcDbSymbolTableRecord
100
AcDbLayerTableRecord
  2
S-NOTE
 70
0
 62
7
  6
Continuous
370
-3
390
13
347
21
1001
AcAecLayerStandard
1000

1000
Note panels
  0
LAYER
  5
96
330
1
100
AcDbSymbolTableRecord
100
AcDbLayerTableRecord
  2
S-CALLOUT
 70
0
 62
2
  6
Continuous
370
-3
390
13
347
21
1001
AcAecLayerStandard
1000

1000
Bar-mark balloons and leaders
  0
LAYER
  5
97
330
1
100
AcDbSymbolTableRecord
100
AcDbLayerTableRecord
  2
S-SECTION
 70
0
 62
1
  6
Continuous
370
-3
390
13
347
21
1001
AcAecLayerStandard
1000

1000
Section and detail markers
  0
LAYER
  5
98
330
1
100
AcDbSymbolTableRecord
100
AcDbLayerTableRecord
  2
S-GRID
 70
0
 62
5
  6
Continuous
370
-3
390
13
347
21
1001
AcAecLayerStandard
1000

1000
Grid lines and bubbles
  0
LAYER
  5
99
330
1
100
AcDbSymbolTableRecord
100
AcDbLayerTableRecord
  2
S-CENTER
 70
0
 62
6
  6
Continuous
370
-3
390
13
347
21
1001
AcAecLayerStandard
1000

1000
Centrelines
  0
LAYER
  5
9A
330
1
100
AcDbSymbolTableRecord
100
AcDbLayerTableRecord
  2
S-HATCH
 70
0
 62
8
  6
Continuous
370
-3
390
13
347
21
1001
AcAecLayerStandard
1000

1000
Section hatch
  0
LAYER
  5
9B
330
1
100
AcDbSymbolTableRecord
100
AcDbLayerTableRecord
  2
S-TITLE
 70
0
 62
7
  6
Continuous
370
-3
390
13
347
21
1001
AcAecLayerStandard
1000

1000
Border, title block, view titles
  0
LAYER
  5
9C
330
1
100
AcDbSymbolTableRecord
100
AcDbLayerTableRecord
  2
S-EXISTING
 70
0
 62
8
  6
Continuous
370
-3
390
13
347
21
1001
AcAecLayerStandard
1000

1000
Soil, rock, berm, cover layers
  0
LAYER
  5
9D
330
1
100
AcDbSymbolTableRecord
100
AcDbLayerTableRecord
  2
S-REFERENCE
 70
0
 62
8
  6
Continuous
370
-3
390
13
347
21
1001
AcAecLayerStandard
1000

1000
Reference geometry, extents
  0
LAYER
  5
9E
330
1
100
AcDbSymbolTableRecord
100
AcDbLayerTableRecord
  2
S-WATERPROOF
 70
0
 62
30
  6
Continuous
370
-3
390
13
347
21
1001
AcAecLayerStandard
1000

1000
Membranes, waterstops, GWT
  0
LAYER
  5
9F
330
1
100
AcDbSymbolTableRecord
100
AcDbLayerTableRecord
  2
S-STEELWORK
 70
0
 62
2
  6
Continuous
370
-3
390
13
347
21
1001
AcAecLayerStandard
1000

1000
Cast-in frames, EMP straps, steel items
  0
LAYER
  5
A0
330
1
100
AcDbSymbolTableRecord
100
AcDbLayerTableRecord
  2
S-LEVEL
 70
0
 62
4
  6
Continuous
370
-3
390
13
347
21
1001
AcAecLayerStandard
1000

1000
Level markers
  0
LAYER
  5
A1
330
1
100
AcDbSymbolTableRecord
100
AcDbLayerTableRecord
  2
S-TABLE
 70
0
 62
7
  6
Continuous
370
-3
390
13
347
21
1001
AcAecLayerStandard
1000

1000
Tables and schedules
  0
LAYER
  5
A2
330
1
100
AcDbSymbolTableRecord
100
AcDbLayerTableRecord
  2
S-BLAST
 70
0
 62
1
  6
Continuous
370
-3
390
13
347
21
1001
AcAecLayerStandard
1000

1000
Blast arrows, findings, warnings
  0
LAYER
  5
B9
330
1
100
AcDbSymbolTableRecord
100
AcDbLayerTableRecord
  2
M-ARCH
 70
0
 62
8
  6
Continuous
370
-3
390
13
347
21
1001
AcAecLayerStandard
1000

1000
Architectural background, walls and slabs
  0
LAYER
  5
BA
330
1
100
AcDbSymbolTableRecord
100
AcDbLayerTableRecord
  2
M-ARCH-HIDDEN
 70
0
 62
8
  6
Continuous
370
-3
390
13
347
21
1001
AcAecLayerStandard
1000

1000
Structure and features beyond
  0
LAYER
  5
BB
330
1
100
AcDbSymbolTableRecord
100
AcDbLayerTableRecord
  2
M-STRUCT
 70
0
 62
7
  6
Continuous
370
-3
390
13
347
21
1001
AcAecLayerStandard
1000

1000
Structure cut by the view
  0
LAYER
  5
BC
330
1
100
AcDbSymbolTableRecord
100
AcDbLayerTableRecord
  2
M-GRID
 70
0
 62
5
  6
Continuous
370
-3
390
13
347
21
1001
AcAecLayerStandard
1000

1000
Grid and bay reference lines
  0
LAYER
  5
BD
330
1
100
AcDbSymbolTableRecord
100
AcDbLayerTableRecord
  2
P-DRAIN-SOIL
 70
0
 62
1
  6
Continuous
370
-3
390
13
347
21
1001
AcAecLayerStandard
1000

1000
Soil drainage - foul
  0
LAYER
  5
BE
330
1
100
AcDbSymbolTableRecord
100
AcDbLayerTableRecord
  2
P-DRAIN-WASTE
 70
0
 62
3
  6
Continuous
370
-3
390
13
347
21
1001
AcAecLayerStandard
1000

1000
Waste drainage - wastewater
  0
LAYER
  5
BF
330
1
100
AcDbSymbolTableRecord
100
AcDbLayerTableRecord
  2
P-DRAIN-STORM
 70
0
 62
5
  6
Continuous
370
-3
390
13
347
21
1001
AcAecLayerStandard
1000

1000
Storm and surface water
  0
LAYER
  5
C0
330
1
100
AcDbSymbolTableRecord
100
AcDbLayerTableRecord
  2
P-DRAIN-SEEP
 70
0
 62
4
  6
Continuous
370
-3
390
13
347
21
1001
AcAecLayerStandard
1000

1000
Groundwater, seepage and subsoil drainage
  0
LAYER
  5
C1
330
1
100
AcDbSymbolTableRecord
100
AcDbLayerTableRecord
  2
P-DRAIN-EFF
 70
0
 62
6
  6
Continuous
370
-3
390
13
347
21
1001
AcAecLayerStandard
1000

1000
Decon effluent - contaminated, segregated
  0
LAYER
  5
C2
330
1
100
AcDbSymbolTableRecord
100
AcDbLayerTableRecord
  2
P-DRAIN-RISING
 70
0
 62
2
  6
Continuous
370
-3
390
13
347
21
1001
AcAecLayerStandard
1000

1000
Pumped rising main
  0
LAYER
  5
C3
330
1
100
AcDbSymbolTableRecord
100
AcDbLayerTableRecord
  2
P-DRAIN-VENT
 70
0
 62
8
  6
Continuous
370
-3
390
13
347
21
1001
AcAecLayerStandard
1000

1000
Drainage ventilation
  0
LAYER
  5
C4
330
1
100
AcDbSymbolTableRecord
100
AcDbLayerTableRecord
  2
P-EQUIP
 70
0
 62
2
  6
Continuous
370
-3
390
13
347
21
1001
AcAecLayerStandard
1000

1000
Pumps, tanks, chambers, plant
  0
LAYER
  5
C5
330
1
100
AcDbSymbolTableRecord
100
AcDbLayerTableRecord
  2
P-FLOW
 70
0
 62
1
  6
Continuous
370
-3
390
13
347
21
1001
AcAecLayerStandard
1000

1000
Flow arrows and direction
  0
LAYER
  5
C6
330
1
100
AcDbSymbolTableRecord
100
AcDbLayerTableRecord
  2
M-DUCT-SUPPLY
 70
0
 62
5
  6
Continuous
370
-3
390
13
347
21
1001
AcAecLayerStandard
1000

1000
Supply air ductwork
  0
LAYER
  5
C7
330
1
100
AcDbSymbolTableRecord
100
AcDbLayerTableRecord
  2
M-DUCT-RETURN
 70
0
 62
3
  6
Continuous
370
-3
390
13
347
21
1001
AcAecLayerStandard
1000

1000
Return air ductwork
  0
LAYER
  5
C8
330
1
100
AcDbSymbolTableRecord
100
AcDbLayerTableRecord
  2
M-DUCT-FRESH
 70
0
 62
4
  6
Continuous
370
-3
390
13
347
21
1001
AcAecLayerStandard
1000

1000
Fresh air ductwork
  0
LAYER
  5
C9
330
1
100
AcDbSymbolTableRecord
100
AcDbLayerTableRecord
  2
M-DUCT-EXH
 70
0
 62
1
  6
Continuous
370
-3
390
13
347
21
1001
AcAecLayerStandard
1000

1000
Exhaust air ductwork
  0
LAYER
  5
CA
330
1
100
AcDbSymbolTableRecord
100
AcDbLayerTableRecord
  2
M-DUCT-CL
 70
0
 62
8
  6
Continuous
370
-3
390
13
347
21
1001
AcAecLayerStandard
1000

1000
Duct centrelines
  0
LAYER
  5
CB
330
1
100
AcDbSymbolTableRecord
100
AcDbLayerTableRecord
  2
M-TERMINAL
 70
0
 62
2
  6
Continuous
370
-3
390
13
347
21
1001
AcAecLayerStandard
1000

1000
Diffusers, grilles and terminals
  0
LAYER
  5
CC
330
1
100
AcDbSymbolTableRecord
100
AcDbLayerTableRecord
  2
M-EQUIP
 70
0
 62
2
  6
Continuous
370
-3
390
13
347
21
1001
AcAecLayerStandard
1000

1000
HVAC plant and equipment
  0
LAYER
  5
CD
330
1
100
AcDbSymbolTableRecord
100
AcDbLayerTableRecord
  2
M-DAMPER
 70
0
 62
6
  6
Continuous
370
-3
390
13
347
21
1001
AcAecLayerStandard
1000

1000
Dampers, valves and isolation devices
  0
LAYER
  5
CE
330
1
100
AcDbSymbolTableRecord
100
AcDbLayerTableRecord
  2
M-AIRFLOW
 70
0
 62
1
  6
Continuous
370
-3
390
13
347
21
1001
AcAecLayerStandard
1000

1000
Airflow arrows and quantities
  0
LAYER
  5
CF
330
1
100
AcDbSymbolTableRecord
100
AcDbLayerTableRecord
  2
A-FIN-FLOOR
 70
0
 62
4
  6
Continuous
370
-3
390
13
347
21
1001
AcAecLayerStandard
1000

1000
Floor finish zones and tags
  0
LAYER
  5
D0
330
1
100
AcDbSymbolTableRecord
100
AcDbLayerTableRecord
  2
A-FIN-WALL
 70
0
 62
3
  6
Continuous
370
-3
390
13
347
21
1001
AcAecLayerStandard
1000

1000
Wall finish zones and tags
  0
LAYER
  5
D1
330
1
100
AcDbSymbolTableRecord
100
AcDbLayerTableRecord
  2
A-FIN-CEIL
 70
0
 62
5
  6
Continuous
370
-3
390
13
347
21
1001
AcAecLayerStandard
1000

1000
Ceiling and soffit finish tags
  0
LAYER
  5
D2
330
1
100
AcDbSymbolTableRecord
100
AcDbLayerTableRecord
  2
A-FIN-WET
 70
0
 62
30
  6
Continuous
370
-3
390
13
347
21
1001
AcAecLayerStandard
1000

1000
Wet areas, tanking and falls
  0
LAYER
  5
D3
330
1
100
AcDbSymbolTableRecord
100
AcDbLayerTableRecord
  2
A-FIN-TAG
 70
0
 62
7
  6
Continuous
370
-3
390
13
347
21
1001
AcAecLayerStandard
1000

1000
Finish tag boxes and leaders
  0
LAYER
  5
D4
330
1
100
AcDbSymbolTableRecord
100
AcDbLayerTableRecord
  2
M-WATERPROOF
 70
0
 62
30
  6
Continuous
370
-3
390
13
347
21
1001
AcAecLayerStandard
1000

1000
Membranes, waterstops, tanking
  0
LAYER
  5
D5
330
1
100
AcDbSymbolTableRecord
100
AcDbLayerTableRecord
  2
M-LEVEL
 70
0
 62
4
  6
Continuous
370
-3
390
13
347
21
1001
AcAecLayerStandard
1000

1000
Level and invert markers
  0
LAYER
  5
D6
330
1
100
AcDbSymbolTableRecord
100
AcDbLayerTableRecord
  2
M-DIM
 70
0
 62
4
  6
Continuous
370
-3
390
13
347
21
1001
AcAecLayerStandard
1000

1000
Dimensions
  0
LAYER
  5
D7
330
1
100
AcDbSymbolTableRecord
100
AcDbLayerTableRecord
  2
M-TEXT
 70
0
 62
7
  6
Continuous
370
-3
390
13
347
21
1001
AcAecLayerStandard
1000

1000
General annotation
  0
LAYER
  5
D8
330
1
100
AcDbSymbolTableRecord
100
AcDbLayerTableRecord
  2
M-NOTE
 70
0
 62
7
  6
Continuous
370
-3
390
13
347
21
1001
AcAecLayerStandard
1000

1000
Note panels
  0
LAYER
  5
D9
330
1
100
AcDbSymbolTableRecord
100
AcDbLayerTableRecord
  2
M-TABLE
 70
0
 62
7
  6
Continuous
370
-3
390
13
347
21
1001
AcAecLayerStandard
1000

1000
Tables and schedules
  0
LAYER
  5
DA
330
1
100
AcDbSymbolTableRecord
100
AcDbLayerTableRecord
  2
M-CALLOUT
 70
0
 62
2
  6
Continuous
370
-3
390
13
347
21
1001
AcAecLayerStandard
1000

1000
Tags, balloons and leaders
  0
LAYER
  5
DB
330
1
100
AcDbSymbolTableRecord
100
AcDbLayerTableRecord
  2
M-SECTION
 70
0
 62
1
  6
Continuous
370
-3
390
13
347
21
1001
AcAecLayerStandard
1000

1000
Section and detail markers
  0
LAYER
  5
DC
330
1
100
AcDbSymbolTableRecord
100
AcDbLayerTableRecord
  2
M-TITLE
 70
0
 62
7
  6
Continuous
370
-3
390
13
347
21
1001
AcAecLayerStandard
1000

1000
Border, title block, view titles
  0
LAYER
  5
DD
330
1
100
AcDbSymbolTableRecord
100
AcDbLayerTableRecord
  2
M-HATCH
 70
0
 62
8
  6
Continuous
370
-3
390
13
347
21
1001
AcAecLayerStandard
1000

1000
Hatching
  0
LAYER
  5
DE
330
1
100
AcDbSymbolTableRecord
100
AcDbLayerTableRecord
  2
M-EXISTING
 70
0
 62
8
  6
Continuous
370
-3
390
13
347
21
1001
AcAecLayerStandard
1000

1000
Soil, rock, berm, cover
  0
LAYER
  5
DF
330
1
100
AcDbSymbolTableRecord
100
AcDbLayerTableRecord
  2
M-FLAG
 70
0
 62
1
  6
Continuous
370
-3
390
13
347
21
1001
AcAecLayerStandard
1000

1000
Open items, data-required flags, warnings
  0
ENDTAB
  0
TABLE
  2
STYLE
  5
5
330
0
100
AcDbSymbolTable
 70
26
  0
STYLE
  5
29
330
5
100
AcDbSymbolTableRecord
100
AcDbTextStyleTableRecord
  2
Standard
 70
0
 40
0.0
 41
1.0
 50
0.0
 71
0
 42
2.5
  3
txt
  4

  0
STYLE
  5
41
330
5
100
AcDbSymbolTableRecord
100
AcDbTextStyleTableRecord
  2
OpenSans-Light
 70
0
 40
0.0
 41
1.0
 50
0.0
 71
0
 42
2.5
  3
OpenSans-Light.ttf
  4

  0
STYLE
  5
42
330
5
100
AcDbSymbolTableRecord
100
AcDbTextStyleTableRecord
  2
OpenSans-Light-Italic
 70
0
 40
0.0
 41
1.0
 50
0.0
 71
0
 42
2.5
  3
OpenSans-LightItalic.ttf
  4

  0
STYLE
  5
43
330
5
100
AcDbSymbolTableRecord
100
AcDbTextStyleTableRecord
  2
OpenSans
 70
0
 40
0.0
 41
1.0
 50
0.0
 71
0
 42
2.5
  3
OpenSans-Regular.ttf
  4

  0
STYLE
  5
44
330
5
100
AcDbSymbolTableRecord
100
AcDbTextStyleTableRecord
  2
OpenSans-Italic
 70
0
 40
0.0
 41
1.0
 50
0.0
 71
0
 42
2.5
  3
OpenSans-Italic.ttf
  4

  0
STYLE
  5
45
330
5
100
AcDbSymbolTableRecord
100
AcDbTextStyleTableRecord
  2
OpenSans-SemiBold
 70
0
 40
0.0
 41
1.0
 50
0.0
 71
0
 42
2.5
  3
OpenSans-SemiBold.ttf
  4

  0
STYLE
  5
46
330
5
100
AcDbSymbolTableRecord
100
AcDbTextStyleTableRecord
  2
OpenSans-SemiBoldItalic
 70
0
 40
0.0
 41
1.0
 50
0.0
 71
0
 42
2.5
  3
OpenSans-SemiBoldItalic.ttf
  4

  0
STYLE
  5
47
330
5
100
AcDbSymbolTableRecord
100
AcDbTextStyleTableRecord
  2
OpenSans-Bold
 70
0
 40
0.0
 41
1.0
 50
0.0
 71
0
 42
2.5
  3
OpenSans-Bold.ttf
  4

  0
STYLE
  5
48
330
5
100
AcDbSymbolTableRecord
100
AcDbTextStyleTableRecord
  2
OpenSans-BoldItalic
 70
0
 40
0.0
 41
1.0
 50
0.0
 71
0
 42
2.5
  3
OpenSans-BoldItalic.ttf
  4

  0
STYLE
  5
49
330
5
100
AcDbSymbolTableRecord
100
AcDbTextStyleTableRecord
  2
OpenSans-ExtraBold
 70
0
 40
0.0
 41
1.0
 50
0.0
 71
0
 42
2.5
  3
OpenSans-ExtraBold.ttf
  4

  0
STYLE
  5
4A
330
5
100
AcDbSymbolTableRecord
100
AcDbTextStyleTableRecord
  2
OpenSans-ExtraBoldItalic
 70
0
 40
0.0
 41
1.0
 50
0.0
 71
0
 42
2.5
  3
OpenSans-ExtraBoldItalic.ttf
  4

  0
STYLE
  5
4B
330
5
100
AcDbSymbolTableRecord
100
AcDbTextStyleTableRecord
  2
OpenSansCondensed-Bold
 70
0
 40
0.0
 41
1.0
 50
0.0
 71
0
 42
2.5
  3
OpenSansCondensed-Bold.ttf
  4

  0
STYLE
  5
4C
330
5
100
AcDbSymbolTableRecord
100
AcDbTextStyleTableRecord
  2
OpenSansCondensed-Light
 70
0
 40
0.0
 41
1.0
 50
0.0
 71
0
 42
2.5
  3
OpenSansCondensed-Light.ttf
  4

  0
STYLE
  5
4D
330
5
100
AcDbSymbolTableRecord
100
AcDbTextStyleTableRecord
  2
OpenSansCondensed-Italic
 70
0
 40
0.0
 41
1.0
 50
0.0
 71
0
 42
2.5
  3
OpenSansCondensed-LightItalic.ttf
  4

  0
STYLE
  5
4E
330
5
100
AcDbSymbolTableRecord
100
AcDbTextStyleTableRecord
  2
LiberationSans
 70
0
 40
0.0
 41
1.0
 50
0.0
 71
0
 42
2.5
  3
LiberationSans-Regular.ttf
  4

  0
STYLE
  5
4F
330
5
100
AcDbSymbolTableRecord
100
AcDbTextStyleTableRecord
  2
LiberationSans-Bold
 70
0
 40
0.0
 41
1.0
 50
0.0
 71
0
 42
2.5
  3
LiberationSans-Bold.ttf
  4

  0
STYLE
  5
50
330
5
100
AcDbSymbolTableRecord
100
AcDbTextStyleTableRecord
  2
LiberationSans-BoldItalic
 70
0
 40
0.0
 41
1.0
 50
0.0
 71
0
 42
2.5
  3
LiberationSans-BoldItalic.ttf
  4

  0
STYLE
  5
51
330
5
100
AcDbSymbolTableRecord
100
AcDbTextStyleTableRecord
  2
LiberationSans-Italic
 70
0
 40
0.0
 41
1.0
 50
0.0
 71
0
 42
2.5
  3
LiberationSans-Italic.ttf
  4

  0
STYLE
  5
52
330
5
100
AcDbSymbolTableRecord
100
AcDbTextStyleTableRecord
  2
LiberationSerif
 70
0
 40
0.0
 41
1.0
 50
0.0
 71
0
 42
2.5
  3
LiberationSerif-Regular.ttf
  4

  0
STYLE
  5
53
330
5
100
AcDbSymbolTableRecord
100
AcDbTextStyleTableRecord
  2
LiberationSerif-Bold
 70
0
 40
0.0
 41
1.0
 50
0.0
 71
0
 42
2.5
  3
LiberationSerif-Bold.ttf
  4

  0
STYLE
  5
54
330
5
100
AcDbSymbolTableRecord
100
AcDbTextStyleTableRecord
  2
LiberationSerif-BoldItalic
 70
0
 40
0.0
 41
1.0
 50
0.0
 71
0
 42
2.5
  3
LiberationSerif-BoldItalic.ttf
  4

  0
STYLE
  5
55
330
5
100
AcDbSymbolTableRecord
100
AcDbTextStyleTableRecord
  2
LiberationSerif-Italic
 70
0
 40
0.0
 41
1.0
 50
0.0
 71
0
 42
2.5
  3
LiberationSerif-Italic.ttf
  4

  0
STYLE
  5
56
330
5
100
AcDbSymbolTableRecord
100
AcDbTextStyleTableRecord
  2
LiberationMono
 70
0
 40
0.0
 41
1.0
 50
0.0
 71
0
 42
2.5
  3
LiberationMono-Regular.ttf
  4

  0
STYLE
  5
57
330
5
100
AcDbSymbolTableRecord
100
AcDbTextStyleTableRecord
  2
LiberationMono-Bold
 70
0
 40
0.0
 41
1.0
 50
0.0
 71
0
 42
2.5
  3
LiberationMono-Bold.ttf
  4

  0
STYLE
  5
58
330
5
100
AcDbSymbolTableRecord
100
AcDbTextStyleTableRecord
  2
LiberationMono-BoldItalic
 70
0
 40
0.0
 41
1.0
 50
0.0
 71
0
 42
2.5
  3
LiberationMono-BoldItalic.ttf
  4

  0
STYLE
  5
59
330
5
100
AcDbSymbolTableRecord
100
AcDbTextStyleTableRecord
  2
LiberationMono-Italic
 70
0
 40
0.0
 41
1.0
 50
0.0
 71
0
 42
2.5
  3
LiberationMono-Italic.ttf
  4

  0
ENDTAB
  0
TABLE
  2
VIEW
  5
7
330
0
100
AcDbSymbolTable
 70
0
  0
ENDTAB
  0
TABLE
  2
UCS
  5
6
330
0
100
AcDbSymbolTable
 70
0
  0
ENDTAB
  0
TABLE
  2
APPID
  5
3
330
0
100
AcDbSymbolTable
 70
4
  0
APPID
  5
2A
330
3
100
AcDbSymbolTableRecord
100
AcDbRegAppTableRecord
  2
ACAD
 70
0
  0
APPID
  5
8B
330
3
100
AcDbSymbolTableRecord
100
AcDbRegAppTableRecord
  2
AcAecLayerStandard
 70
0
  0
APPID
  5
239
330
3
100
AcDbSymbolTableRecord
100
AcDbRegAppTableRecord
  2
HATCHBACKGROUNDCOLOR
 70
0
  0
APPID
  5
23A
330
3
100
AcDbSymbolTableRecord
100
AcDbRegAppTableRecord
  2
EZDXF
 70
0
  0
ENDTAB
  0
TABLE
  2
DIMSTYLE
  5
4
330
0
100
AcDbSymbolTable
 70
14
100
AcDbDimStyleTable
  0
DIMSTYLE
105
2B
330
4
100
AcDbSymbolTableRecord
100
AcDbDimStyleTableRecord
  2
Standard
 70
0
 40
1.0
 41
2.5
 42
0.625
 43
3.75
 44
1.25
 45
0.0
 46
0.0
 47
0.0
 48
0.0
 49
2.5
140
2.5
141
2.5
142
0.0
143
0.03937007874
144
1.0
145
0.0
146
1.0
147
0.625
148
0.0
 69
0
 70
0
 71
0
 72
0
 73
0
 74
0
 75
0
 76
0
 77
1
 78
8
 79
3
170
0
171
3
172
1
173
0
174
0
175
0
176
0
177
0
178
0
179
2
271
2
272
2
273
2
274
3
275
0
276
0
277
2
278
44
279
0
280
0
281
0
282
0
283
0
284
8
285
0
286
0
288
0
289
3
290
0
371
-2
372
-2
  0
DIMSTYLE
105
73
330
4
100
AcDbSymbolTableRecord
100
AcDbDimStyleTableRecord
  2
EZDXF
 70
0
 40
1.0
 41
0.175
 42
0.125
 43
3.75
 44
0.375
 45
0.0
 46
0.0
 47
0.0
 48
0.0
 49
2.5
140
0.25
141
2.5
142
0.0
143
0.03937007874
144
100.0
145
0.0
146
0.5
147
0.1
148
0.0
 69
0
 70
0
 71
0
 72
0
 73
0
 74
0
 75
0
 76
0
 77
1
 78
12
 79
3
170
0
171
3
172
1
173
0
174
0
175
0
176
0
177
0
178
0
179
2
271
2
272
2
273
2
274
3
275
0
276
0
277
2
278
46
279
2
280
0
281
0
282
0
283
0
284
8
285
0
286
0
288
1
289
3
290
0
340
4C
342
74
371
-2
372
-2
  0
DIMSTYLE
105
7C
330
4
100
AcDbSymbolTableRecord
100
AcDbDimStyleTableRecord
  2
EZ_M_100_H25_CM
 70
0
 40
1.0
 41
0.25
 42
0.125
 43
3.75
 44
0.375
 45
0.0
 46
0.0
 47
0.0
 48
0.0
 49
2.5
140
0.25
141
2.5
142
0.125
143
0.03937007874
144
100.0
145
0.0
146
0.5
147
0.1
148
0.0
 69
0
 70
0
 71
0
 72
0
 73
0
 74
0
 75
0
 76
0
 77
1
 78
12
 79
3
170
0
171
3
172
1
173
0
174
0
175
0
176
0
177
0
178
0
179
2
271
2
272
2
273
2
274
3
275
0
276
0
277
2
278
46
279
2
280
0
281
0
282
0
283
0
284
8
285
0
286
0
288
1
289
3
290
0
340
4C
371
-2
372
-2
  0
DIMSTYLE
105
7D
330
4
100
AcDbSymbolTableRecord
100
AcDbDimStyleTableRecord
  2
EZ_M_50_H25_CM
 70
0
 40
1.0
 41
0.125
 42
0.0625
 43
3.75
 44
0.1875
 45
0.0
 46
0.0
 47
0.0
 48
0.0
 49
2.5
140
0.125
141
2.5
142
0.0625
143
0.03937007874
144
100.0
145
0.0
146
0.5
147
0.05
148
0.0
 69
0
 70
0
 71
0
 72
0
 73
0
 74
0
 75
0
 76
0
 77
1
 78
12
 79
3
170
0
171
3
172
1
173
0
174
0
175
0
176
0
177
0
178
0
179
2
271
2
272
2
273
2
274
3
275
0
276
0
277
2
278
46
279
2
280
0
281
0
282
0
283
0
284
8
285
0
286
0
288
1
289
3
290
0
340
4C
371
-2
372
-2
  0
DIMSTYLE
105
7E
330
4
100
AcDbSymbolTableRecord
100
AcDbDimStyleTableRecord
  2
EZ_M_25_H25_CM
 70
0
 40
1.0
 41
0.0625
 42
0.03125
 43
3.75
 44
0.09375
 45
0.0
 46
0.0
 47
0.0
 48
0.0
 49
2.5
140
0.0625
141
2.5
142
0.03125
143
0.03937007874
144
100.0
145
0.0
146
0.5
147
0.025
148
0.0
 69
0
 70
0
 71
0
 72
0
 73
0
 74
0
 75
0
 76
0
 77
1
 78
12
 79
3
170
0
171
3
172
1
173
0
174
0
175
0
176
0
177
0
178
0
179
2
271
2
272
2
273
2
274
3
275
0
276
0
277
2
278
46
279
2
280
0
281
0
282
0
283
0
284
8
285
0
286
0
288
1
289
3
290
0
340
4C
371
-2
372
-2
  0
DIMSTYLE
105
7F
330
4
100
AcDbSymbolTableRecord
100
AcDbDimStyleTableRecord
  2
EZ_M_20_H25_CM
 70
0
 40
1.0
 41
0.05
 42
0.025
 43
3.75
 44
0.07500000000000001
 45
0.0
 46
0.0
 47
0.0
 48
0.0
 49
2.5
140
0.05
141
2.5
142
0.025
143
0.03937007874
144
100.0
145
0.0
146
0.5
147
0.020000000000000004
148
0.0
 69
0
 70
0
 71
0
 72
0
 73
0
 74
0
 75
0
 76
0
 77
1
 78
12
 79
3
170
0
171
3
172
1
173
0
174
0
175
0
176
0
177
0
178
0
179
2
271
2
272
2
273
2
274
3
275
0
276
0
277
2
278
46
279
2
280
0
281
0
282
0
283
0
284
8
285
0
286
0
288
1
289
3
290
0
340
4C
371
-2
372
-2
  0
DIMSTYLE
105
80
330
4
100
AcDbSymbolTableRecord
100
AcDbDimStyleTableRecord
  2
EZ_M_10_H25_CM
 70
0
 40
1.0
 41
0.025
 42
0.0125
 43
3.75
 44
0.037500000000000006
 45
0.0
 46
0.0
 47
0.0
 48
0.0
 49
2.5
140
0.025
141
2.5
142
0.0125
143
0.03937007874
144
100.0
145
0.0
146
0.5
147
0.010000000000000002
148
0.0
 69
0
 70
0
 71
0
 72
0
 73
0
 74
0
 75
0
 76
0
 77
1
 78
12
 79
3
170
0
171
3
172
1
173
0
174
0
175
0
176
0
177
0
178
0
179
2
271
2
272
2
273
2
274
3
275
0
276
0
277
2
278
46
279
2
280
0
281
0
282
0
283
0
284
8
285
0
286
0
288
1
289
3
290
0
340
4C
371
-2
372
-2
  0
DIMSTYLE
105
81
330
4
100
AcDbSymbolTableRecord
100
AcDbDimStyleTableRecord
  2
EZ_M_5_H25_CM
 70
0
 40
1.0
 41
0.0125
 42
0.00625
 43
3.75
 44
0.018750000000000003
 45
0.0
 46
0.0
 47
0.0
 48
0.0
 49
2.5
140
0.0125
141
2.5
142
0.00625
143
0.03937007874
144
100.0
145
0.0
146
0.5
147
0.005000000000000001
148
0.0
 69
0
 70
0
 71
0
 72
0
 73
0
 74
0
 75
0
 76
0
 77
1
 78
12
 79
3
170
0
171
3
172
1
173
0
174
0
175
0
176
0
177
0
178
0
179
2
271
2
272
2
273
2
274
3
275
0
276
0
277
2
278
46
279
2
280
0
281
0
282
0
283
0
284
8
285
0
286
0
288
1
289
3
290
0
340
4C
371
-2
372
-2
  0
DIMSTYLE
105
82
330
4
100
AcDbSymbolTableRecord
100
AcDbDimStyleTableRecord
  2
EZ_M_1_H25_CM
 70
0
 40
1.0
 41
0.0025
 42
0.00125
 43
3.75
 44
0.00375
 45
0.0
 46
0.0
 47
0.0
 48
0.0
 49
2.5
140
0.0025
141
2.5
142
0.00125
143
0.03937007874
144
100.0
145
0.0
146
0.5
147
0.001
148
0.0
 69
0
 70
0
 71
0
 72
0
 73
0
 74
0
 75
0
 76
0
 77
1
 78
12
 79
3
170
0
171
3
172
1
173
0
174
0
175
0
176
0
177
0
178
0
179
2
271
2
272
2
273
2
274
3
275
0
276
0
277
2
278
46
279
2
280
0
281
0
282
0
283
0
284
8
285
0
286
0
288
1
289
3
290
0
340
4C
371
-2
372
-2
  0
DIMSTYLE
105
83
330
4
100
AcDbSymbolTableRecord
100
AcDbDimStyleTableRecord
  2
EZ_RADIUS
 70
0
 40
1.0
 41
0.25
 42
0.125
 43
3.75
 44
0.375
 45
0.0
 46
0.0
 47
0.0
 48
0.0
 49
2.5
140
0.25
141
0.0
142
0.0
143
0.03937007874
144
100.0
145
0.0
146
0.5
147
0.1
148
0.0
 69
0
 70
0
 71
0
 72
0
 73
0
 74
0
 75
0
 76
0
 77
1
 78
12
 79
3
170
0
171
3
172
0
173
0
174
0
175
0
176
0
177
0
178
0
179
2
271
2
272
2
273
2
274
3
275
0
276
0
277
2
278
46
279
1
280
0
281
0
282
0
283
0
284
8
285
0
286
0
288
1
289
3
290
0
340
4C
342
84
371
-2
372
-2
  0
DIMSTYLE
105
88
330
4
100
AcDbSymbolTableRecord
100
AcDbDimStyleTableRecord
  2
EZ_RADIUS_INSIDE
 70
0
 40
1.0
 41
0.25
 42
0.125
 43
3.75
 44
0.375
 45
0.0
 46
0.0
 47
0.0
 48
0.0
 49
2.5
140
0.25
141
0.0
142
0.0
143
0.03937007874
144
100.0
145
0.0
146
0.5
147
0.1
148
0.0
 69
0
 70
0
 71
0
 72
0
 73
0
 74
0
 75
0
 76
0
 77
0
 78
12
 79
3
170
0
171
3
172
0
173
0
174
1
175
0
176
0
177
0
178
0
179
2
271
2
272
2
273
2
274
3
275
0
276
0
277
2
278
46
279
0
280
0
281
0
282
0
283
0
284
8
285
0
286
0
288
1
289
0
290
0
340
4C
342
84
371
-2
372
-2
  0
DIMSTYLE
105
89
330
4
100
AcDbSymbolTableRecord
100
AcDbDimStyleTableRecord
  2
EZ_CURVED
 70
0
 40
1.0
 41
0.25
 42
0.125
 43
3.75
 44
0.375
 45
0.0
 46
0.0
 47
0.0
 48
0.0
 49
2.5
140
0.25
141
2.5
142
0.0
143
0.03937007874
144
100.0
145
0.0
146
0.5
147
0.1
148
0.0
 69
0
 70
0
 71
0
 72
0
 73
0
 74
0
 75
0
 76
0
 77
1
 78
12
 79
2
 90
2
170
0
171
3
172
1
173
0
174
0
175
0
176
0
177
0
178
0
179
2
271
2
272
2
273
2
274
3
275
0
276
0
277
2
278
46
279
2
280
0
281
0
282
0
283
0
284
8
285
0
286
0
288
1
289
3
290
0
340
4C
371
-2
372
-2
  0
DIMSTYLE
105
A3
330
4
100
AcDbSymbolTableRecord
100
AcDbDimStyleTableRecord
  2
SC-DIM
 70
0
 40
1.0
 41
1.6
 42
1.0
 43
3.75
 44
1.2
 45
0.0
 46
0.0
 47
0.0
 48
0.0
 49
2.5
140
1.8
141
2.5
142
0.0
143
0.03937007874
144
1.0
145
0.0
146
1.0
147
0.8
148
0.0
 69
0
 70
0
 71
0
 72
0
 73
0
 74
0
 75
0
 76
0
 77
1
 78
8
 79
3
170
0
171
3
172
1
173
0
174
0
175
0
176
4
177
4
178
4
179
2
271
0
272
2
273
2
274
3
275
0
276
0
277
2
278
44
279
0
280
0
281
0
282
0
283
0
284
8
285
0
286
0
288
0
289
3
290
0
342
74
371
13
372
13
  0
DIMSTYLE
105
A4
330
4
100
AcDbSymbolTableRecord
100
AcDbDimStyleTableRecord
  2
SC-DIM-S
 70
0
 40
1.0
 41
1.2
 42
1.0
 43
3.75
 44
1.2
 45
0.0
 46
0.0
 47
0.0
 48
0.0
 49
2.5
140
1.4
141
2.5
142
0.0
143
0.03937007874
144
1.0
145
0.0
146
1.0
147
0.8
148
0.0
 69
0
 70
0
 71
0
 72
0
 73
0
 74
0
 75
0
 76
0
 77
1
 78
8
 79
3
170
0
171
3
172
1
173
0
174
0
175
0
176
4
177
4
178
4
179
2
271
0
272
2
273
2
274
3
275
0
276
0
277
2
278
44
279
0
280
0
281
0
282
0
283
0
284
8
285
0
286
0
288
0
289
3
290
0
342
74
371
13
372
13
  0
ENDTAB
  0
TABLE
  2
BLOCK_RECORD
  5
9
330
0
100
AcDbSymbolTable
 70
20
  0
BLOCK_RECORD
  5
17
330
9
100
AcDbSymbolTableRecord
100
AcDbBlockTableRecord
  2
*Model_Space
340
1A
 70
0
280
1
281
0
  0
BLOCK_RECORD
  5
1B
330
9
100
AcDbSymbolTableRecord
100
AcDbBlockTableRecord
  2
*Paper_Space
340
1E
 70
0
280
1
281
0
  0
BLOCK_RECORD
  5
74
330
9
100
AcDbSymbolTableRecord
100
AcDbBlockTableRecord
  2
_ARCHTICK
340
0
 70
0
280
1
281
0
  0
BLOCK_RECORD
  5
78
330
9
100
AcDbSymbolTableRecord
100
AcDbBlockTableRecord
  2
_CLOSEDFILLED
340
0
 70
0
280
1
281
0
  0
BLOCK_RECORD
  5
84
330
9
100
AcDbSymbolTableRecord
100
AcDbBlockTableRecord
  2
_CLOSEDBLANK
340
0
 70
0
280
1
281
0
  0
BLOCK_RECORD
  5
A5
330
9
100
AcDbSymbolTableRecord
100
AcDbBlockTableRecord
  2
BARMARK
340
0
 70
0
280
1
281
0
  0
BLOCK_RECORD
  5
A9
330
9
100
AcDbSymbolTableRecord
100
AcDbBlockTableRecord
  2
SECMARK
340
0
 70
0
280
1
281
0
  0
BLOCK_RECORD
  5
AE
330
9
100
AcDbSymbolTableRecord
100
AcDbBlockTableRecord
  2
LEVELMK
340
0
 70
0
280
1
281
0
  0
BLOCK_RECORD
  5
B2
330
9
100
AcDbSymbolTableRecord
100
AcDbBlockTableRecord
  2
NORTH
340
0
 70
0
280
1
281
0
  0
BLOCK_RECORD
  5
E0
330
9
100
AcDbSymbolTableRecord
100
AcDbBlockTableRecord
  2
GULLY
340
0
 70
0
280
1
281
0
  0
BLOCK_RECORD
  5
E6
330
9
100
AcDbSymbolTableRecord
100
AcDbBlockTableRecord
  2
CHAMBER
340
0
 70
0
280
1
281
0
  0
BLOCK_RECORD
  5
EB
330
9
100
AcDbSymbolTableRecord
100
AcDbBlockTableRecord
  2
PUMP
340
0
 70
0
280
1
281
0
  0
BLOCK_RECORD
  5
F0
330
9
100
AcDbSymbolTableRecord
100
AcDbBlockTableRecord
  2
CLEANOUT
340
0
 70
0
280
1
281
0
  0
BLOCK_RECORD
  5
F5
330
9
100
AcDbSymbolTableRecord
100
AcDbBlockTableRecord
  2
NRV
340
0
 70
0
280
1
281
0
  0
BLOCK_RECORD
  5
FA
330
9
100
AcDbSymbolTableRecord
100
AcDbBlockTableRecord
  2
VALVE
340
0
 70
0
280
1
281
0
  0
BLOCK_RECORD
  5
FF
330
9
100
AcDbSymbolTableRecord
100
AcDbBlockTableRecord
  2
DIFFUSER
340
0
 70
0
280
1
281
0
  0
BLOCK_RECORD
  5
108
330
9
100
AcDbSymbolTableRecord
100
AcDbBlockTableRecord
  2
GRILLE
340
0
 70
0
280
1
281
0
  0
BLOCK_RECORD
  5
10F
330
9
100
AcDbSymbolTableRecord
100
AcDbBlockTableRecord
  2
BVALVE
340
0
 70
0
280
1
281
0
  0
BLOCK_RECORD
  5
115
330
9
100
AcDbSymbolTableRecord
100
AcDbBlockTableRecord
  2
FANSYM
340
0
 70
0
280
1
281
0
  0
BLOCK_RECORD
  5
11A
330
9
100
AcDbSymbolTableRecord
100
AcDbBlockTableRecord
  2
FINTAG
340
0
 70
0
280
1
281
0
  0
ENDTAB
  0
ENDSEC
  0
SECTION
  2
BLOCKS
  0
BLOCK
  5
18
330
17
100
AcDbEntity
  8
0
100
AcDbBlockBegin
  2
*Model_Space
 70
0
 10
0.0
 20
0.0
 30
0.0
  3
*Model_Space
  1

  0
ENDBLK
  5
19
330
17
100
AcDbEntity
  8
0
100
AcDbBlockEnd
  0
BLOCK
  5
1C
330
1B
100
AcDbEntity
  8
0
100
AcDbBlockBegin
  2
*Paper_Space
 70
0
 10
0.0
 20
0.0
 30
0.0
  3
*Paper_Space
  1

  0
ENDBLK
  5
1D
330
1B
100
AcDbEntity
  8
0
100
AcDbBlockEnd
  0
BLOCK
  5
75
330
74
100
AcDbEntity
  8
0
100
AcDbBlockBegin
  2
_ARCHTICK
 70
0
 10
0.0
 20
0.0
 30
0.0
  3
_ARCHTICK
  1

  0
LWPOLYLINE
  5
77
330
74
100
AcDbEntity
  8
0
  6
BYBLOCK
 62
0
100
AcDbPolyline
 90
2
 70
0
 43
0.15
 10
-0.5
 20
-0.5
 10
0.5
 20
0.5
  0
ENDBLK
  5
76
330
74
100
AcDbEntity
  8
0
100
AcDbBlockEnd
  0
BLOCK
  5
79
330
78
100
AcDbEntity
  8
0
100
AcDbBlockBegin
  2
_CLOSEDFILLED
 70
0
 10
0.0
 20
0.0
 30
0.0
  3
_CLOSEDFILLED
  1

  0
SOLID
  5
7B
330
78
100
AcDbEntity
  8
0
  6
BYBLOCK
 62
0
100
AcDbTrace
 10
-1.0
 20
0.16439898372402537
 30
0.0
 11
0.0
 21
0.0
 31
0.0
 12
-1.0
 22
-0.16439898372402537
 32
0.0
 13
-1.0
 23
-0.16439898372402537
 33
0.0
  0
ENDBLK
  5
7A
330
78
100
AcDbEntity
  8
0
100
AcDbBlockEnd
  0
BLOCK
  5
85
330
84
100
AcDbEntity
  8
0
100
AcDbBlockBegin
  2
_CLOSEDBLANK
 70
0
 10
0.0
 20
0.0
 30
0.0
  3
_CLOSEDBLANK
  1

  0
LWPOLYLINE
  5
87
330
84
100
AcDbEntity
  8
0
  6
BYBLOCK
 62
0
100
AcDbPolyline
 90
3
 70
1
 10
-1.0
 20
0.16439898372402537
 10
0.0
 20
0.0
 10
-1.0
 20
-0.16439898372402537
  0
ENDBLK
  5
86
330
84
100
AcDbEntity
  8
0
100
AcDbBlockEnd
  0
BLOCK
  5
A6
330
A5
100
AcDbEntity
  8
0
100
AcDbBlockBegin
  2
BARMARK
 70
0
 10
0.0
 20
0.0
 30
0.0
  3
BARMARK
  1

  0
CIRCLE
  5
A8
330
A5
100
AcDbEntity
  8
S-CALLOUT
100
AcDbCircle
 10
0.0
 20
0.0
 30
0.0
 40
3.2
  0
ENDBLK
  5
A7
330
A5
100
AcDbEntity
  8
0
100
AcDbBlockEnd
  0
BLOCK
  5
AA
330
A9
100
AcDbEntity
  8
0
100
AcDbBlockBegin
  2
SECMARK
 70
0
 10
0.0
 20
0.0
 30
0.0
  3
SECMARK
  1

  0
CIRCLE
  5
AC
330
A9
100
AcDbEntity
  8
S-SECTION
100
AcDbCircle
 10
0.0
 20
0.0
 30
0.0
 40
4.0
  0
LINE
  5
AD
330
A9
100
AcDbEntity
  8
S-SECTION
100
AcDbLine
 10
-4.0
 20
0.0
 30
0.0
 11
4.0
 21
0.0
 31
0.0
  0
ENDBLK
  5
AB
330
A9
100
AcDbEntity
  8
0
100
AcDbBlockEnd
  0
BLOCK
  5
AF
330
AE
100
AcDbEntity
  8
0
100
AcDbBlockBegin
  2
LEVELMK
 70
0
 10
0.0
 20
0.0
 30
0.0
  3
LEVELMK
  1

  0
LWPOLYLINE
  5
B1
330
AE
100
AcDbEntity
  8
S-LEVEL
100
AcDbPolyline
 90
4
 70
1
 10
0.0
 20
0.0
 10
-2.0
 20
3.0
 10
2.0
 20
3.0
 10
0.0
 20
0.0
  0
ENDBLK
  5
B0
330
AE
100
AcDbEntity
  8
0
100
AcDbBlockEnd
  0
BLOCK
  5
B3
330
B2
100
AcDbEntity
  8
0
100
AcDbBlockBegin
  2
NORTH
 70
0
 10
0.0
 20
0.0
 30
0.0
  3
NORTH
  1

  0
LWPOLYLINE
  5
B5
330
B2
100
AcDbEntity
  8
S-TITLE
100
AcDbPolyline
 90
5
 70
1
 10
0.0
 20
10.0
 10
-3.2
 20
-6.0
 10
0.0
 20
-2.4
 10
3.2
 20
-6.0
 10
0.0
 20
10.0
  0
CIRCLE
  5
B6
330
B2
100
AcDbEntity
  8
S-TITLE
100
AcDbCircle
 10
0.0
 20
0.0
 30
0.0
 40
12.0
  0
ENDBLK
  5
B4
330
B2
100
AcDbEntity
  8
0
100
AcDbBlockEnd
  0
BLOCK
  5
E1
330
E0
100
AcDbEntity
  8
0
100
AcDbBlockBegin
  2
GULLY
 70
0
 10
0.0
 20
0.0
 30
0.0
  3
GULLY
  1

  0
LWPOLYLINE
  5
E3
330
E0
100
AcDbEntity
  8
P-EQUIP
100
AcDbPolyline
 90
4
 70
1
 10
-2.2
 20
-2.2
 10
2.2
 20
-2.2
 10
2.2
 20
2.2
 10
-2.2
 20
2.2
  0
LINE
  5
E4
330
E0
100
AcDbEntity
  8
P-EQUIP
100
AcDbLine
 10
-2.2
 20
-2.2
 30
0.0
 11
2.2
 21
2.2
 31
0.0
  0
LINE
  5
E5
330
E0
100
AcDbEntity
  8
P-EQUIP
100
AcDbLine
 10
-2.2
 20
2.2
 30
0.0
 11
2.2
 21
-2.2
 31
0.0
  0
ENDBLK
  5
E2
330
E0
100
AcDbEntity
  8
0
100
AcDbBlockEnd
  0
BLOCK
  5
E7
330
E6
100
AcDbEntity
  8
0
100
AcDbBlockBegin
  2
CHAMBER
 70
0
 10
0.0
 20
0.0
 30
0.0
  3
CHAMBER
  1

  0
LWPOLYLINE
  5
E9
330
E6
100
AcDbEntity
  8
P-EQUIP
100
AcDbPolyline
 90
4
 70
1
 10
-3.0
 20
-3.0
 10
3.0
 20
-3.0
 10
3.0
 20
3.0
 10
-3.0
 20
3.0
  0
CIRCLE
  5
EA
330
E6
100
AcDbEntity
  8
P-EQUIP
100
AcDbCircle
 10
0.0
 20
0.0
 30
0.0
 40
1.9
  0
ENDBLK
  5
E8
330
E6
100
AcDbEntity
  8
0
100
AcDbBlockEnd
  0
BLOCK
  5
EC
330
EB
100
AcDbEntity
  8
0
100
AcDbBlockBegin
  2
PUMP
 70
0
 10
0.0
 20
0.0
 30
0.0
  3
PUMP
  1

  0
CIRCLE
  5
EE
330
EB
100
AcDbEntity
  8
P-EQUIP
100
AcDbCircle
 10
0.0
 20
0.0
 30
0.0
 40
2.6
  0
LWPOLYLINE
  5
EF
330
EB
100
AcDbEntity
  8
P-EQUIP
100
AcDbPolyline
 90
3
 70
1
 10
-1.5
 20
-1.5
 10
1.9
 20
0.0
 10
-1.5
 20
1.5
  0
ENDBLK
  5
ED
330
EB
100
AcDbEntity
  8
0
100
AcDbBlockEnd
  0
BLOCK
  5
F1
330
F0
100
AcDbEntity
  8
0
100
AcDbBlockBegin
  2
CLEANOUT
 70
0
 10
0.0
 20
0.0
 30
0.0
  3
CLEANOUT
  1

  0
CIRCLE
  5
F3
330
F0
100
AcDbEntity
  8
P-EQUIP
100
AcDbCircle
 10
0.0
 20
0.0
 30
0.0
 40
1.6
  0
LINE
  5
F4
330
F0
100
AcDbEntity
  8
P-EQUIP
100
AcDbLine
 10
0.0
 20
-1.6
 30
0.0
 11
0.0
 21
1.6
 31
0.0
  0
ENDBLK
  5
F2
330
F0
100
AcDbEntity
  8
0
100
AcDbBlockEnd
  0
BLOCK
  5
F6
330
F5
100
AcDbEntity
  8
0
100
AcDbBlockBegin
  2
NRV
 70
0
 10
0.0
 20
0.0
 30
0.0
  3
NRV
  1

  0
LWPOLYLINE
  5
F8
330
F5
100
AcDbEntity
  8
M-DAMPER
100
AcDbPolyline
 90
3
 70
1
 10
-2.0
 20
-1.8
 10
-2.0
 20
1.8
 10
2.0
 20
0.0
  0
LINE
  5
F9
330
F5
100
AcDbEntity
  8
M-DAMPER
100
AcDbLine
 10
2.0
 20
-1.8
 30
0.0
 11
2.0
 21
1.8
 31
0.0
  0
ENDBLK
  5
F7
330
F5
100
AcDbEntity
  8
0
100
AcDbBlockEnd
  0
BLOCK
  5
FB
330
FA
100
AcDbEntity
  8
0
100
AcDbBlockBegin
  2
VALVE
 70
0
 10
0.0
 20
0.0
 30
0.0
  3
VALVE
  1

  0
LWPOLYLINE
  5
FD
330
FA
100
AcDbEntity
  8
M-DAMPER
100
AcDbPolyline
 90
3
 70
1
 10
-2.0
 20
-1.8
 10
-2.0
 20
1.8
 10
0.0
 20
0.0
  0
LWPOLYLINE
  5
FE
330
FA
100
AcDbEntity
  8
M-DAMPER
100
AcDbPolyline
 90
3
 70
1
 10
2.0
 20
-1.8
 10
2.0
 20
1.8
 10
0.0
 20
0.0
  0
ENDBLK
  5
FC
330
FA
100
AcDbEntity
  8
0
100
AcDbBlockEnd
  0
BLOCK
  5
100
330
FF
100
AcDbEntity
  8
0
100
AcDbBlockBegin
  2
DIFFUSER
 70
0
 10
0.0
 20
0.0
 30
0.0
  3
DIFFUSER
  1

  0
LWPOLYLINE
  5
102
330
FF
100
AcDbEntity
  8
M-TERMINAL
100
AcDbPolyline
 90
4
 70
1
 10
-4.0
 20
-4.0
 10
4.0
 20
-4.0
 10
4.0
 20
4.0
 10
-4.0
 20
4.0
  0
LWPOLYLINE
  5
103
330
FF
100
AcDbEntity
  8
M-TERMINAL
100
AcDbPolyline
 90
4
 70
1
 10
-2.4
 20
-2.4
 10
2.4
 20
-2.4
 10
2.4
 20
2.4
 10
-2.4
 20
2.4
  0
LINE
  5
104
330
FF
100
AcDbEntity
  8
M-TERMINAL
100
AcDbLine
 10
-4.0
 20
-4.0
 30
0.0
 11
-2.4
 21
-2.4
 31
0.0
  0
LINE
  5
105
330
FF
100
AcDbEntity
  8
M-TERMINAL
100
AcDbLine
 10
4.0
 20
-4.0
 30
0.0
 11
2.4
 21
-2.4
 31
0.0
  0
LINE
  5
106
330
FF
100
AcDbEntity
  8
M-TERMINAL
100
AcDbLine
 10
4.0
 20
4.0
 30
0.0
 11
2.4
 21
2.4
 31
0.0
  0
LINE
  5
107
330
FF
100
AcDbEntity
  8
M-TERMINAL
100
AcDbLine
 10
-4.0
 20
4.0
 30
0.0
 11
-2.4
 21
2.4
 31
0.0
  0
ENDBLK
  5
101
330
FF
100
AcDbEntity
  8
0
100
AcDbBlockEnd
  0
BLOCK
  5
109
330
108
100
AcDbEntity
  8
0
100
AcDbBlockBegin
  2
GRILLE
 70
0
 10
0.0
 20
0.0
 30
0.0
  3
GRILLE
  1

  0
LWPOLYLINE
  5
10B
330
108
100
AcDbEntity
  8
M-TERMINAL
100
AcDbPolyline
 90
4
 70
1
 10
-4.0
 20
-2.4
 10
4.0
 20
-2.4
 10
4.0
 20
2.4
 10
-4.0
 20
2.4
  0
LINE
  5
10C
330
108
100
AcDbEntity
  8
M-TERMINAL
100
AcDbLine
 10
-2.0
 20
-2.4
 30
0.0
 11
-2.0
 21
2.4
 31
0.0
  0
LINE
  5
10D
330
108
100
AcDbEntity
  8
M-TERMINAL
100
AcDbLine
 10
0.0
 20
-2.4
 30
0.0
 11
0.0
 21
2.4
 31
0.0
  0
LINE
  5
10E
330
108
100
AcDbEntity
  8
M-TERMINAL
100
AcDbLine
 10
2.0
 20
-2.4
 30
0.0
 11
2.0
 21
2.4
 31
0.0
  0
ENDBLK
  5
10A
330
108
100
AcDbEntity
  8
0
100
AcDbBlockEnd
  0
BLOCK
  5
110
330
10F
100
AcDbEntity
  8
0
100
AcDbBlockBegin
  2
BVALVE
 70
0
 10
0.0
 20
0.0
 30
0.0
  3
BVALVE
  1

  0
CIRCLE
  5
112
330
10F
100
AcDbEntity
  8
M-DAMPER
100
AcDbCircle
 10
0.0
 20
0.0
 30
0.0
 40
3.0
  0
LINE
  5
113
330
10F
100
AcDbEntity
  8
M-DAMPER
100
AcDbLine
 10
-3.0
 20
0.0
 30
0.0
 11
3.0
 21
0.0
 31
0.0
  0
LINE
  5
114
330
10F
100
AcDbEntity
  8
M-DAMPER
100
AcDbLine
 10
-2.1
 20
-2.1
 30
0.0
 11
2.1
 21
2.1
 31
0.0
  0
ENDBLK
  5
111
330
10F
100
AcDbEntity
  8
0
100
AcDbBlockEnd
  0
BLOCK
  5
116
330
115
100
AcDbEntity
  8
0
100
AcDbBlockBegin
  2
FANSYM
 70
0
 10
0.0
 20
0.0
 30
0.0
  3
FANSYM
  1

  0
CIRCLE
  5
118
330
115
100
AcDbEntity
  8
M-EQUIP
100
AcDbCircle
 10
0.0
 20
0.0
 30
0.0
 40
3.4
  0
LWPOLYLINE
  5
119
330
115
100
AcDbEntity
  8
M-EQUIP
100
AcDbPolyline
 90
3
 70
1
 10
-2.4
 20
-1.2
 10
2.4
 20
-1.2
 10
0.0
 20
2.6
  0
ENDBLK
  5
117
330
115
100
AcDbEntity
  8
0
100
AcDbBlockEnd
  0
BLOCK
  5
11B
330
11A
100
AcDbEntity
  8
0
100
AcDbBlockBegin
  2
FINTAG
 70
0
 10
0.0
 20
0.0
 30
0.0
  3
FINTAG
  1

  0
LWPOLYLINE
  5
11D
330
11A
100
AcDbEntity
  8
A-FIN-TAG
100
AcDbPolyline
 90
4
 70
1
 10
0.0
 20
0.0
 10
16.0
 20
0.0
 10
16.0
 20
5.0
 10
0.0
 20
5.0
  0
LINE
  5
11E
330
11A
100
AcDbEntity
  8
A-FIN-TAG
100
AcDbLine
 10
0.0
 20
2.5
 30
0.0
 11
16.0
 21
2.5
 31
0.0
  0
LINE
  5
11F
330
11A
100
AcDbEntity
  8
A-FIN-TAG
100
AcDbLine
 10
8.0
 20
0.0
 30
0.0
 11
8.0
 21
5.0
 31
0.0
  0
ENDBLK
  5
11C
330
11A
100
AcDbEntity
  8
0
100
AcDbBlockEnd
  0
ENDSEC
  0
SECTION
  2
ENTITIES
  0
LWPOLYLINE
  5
B7
330
17
100
AcDbEntity
  8
M-TITLE
100
AcDbPolyline
 90
4
 70
1
 10
0.0
 20
0.0
 10
297.0
 20
0.0
 10
297.0
 20
210.0
 10
0.0
 20
210.0
  0
LWPOLYLINE
  5
B8
330
17
100
AcDbEntity
  8
M-TITLE
100
AcDbPolyline
 90
4
 70
1
 10
8.0
 20
8.0
 10
289.0
 20
8.0
 10
289.0
 20
202.0
 10
8.0
 20
202.0
  0
TEXT
  5
120
330
17
100
AcDbEntity
  8
M-TITLE
100
AcDbText
 10
12.0
 20
176.0
 30
0.0
 40
2.6
  1
SITE DIAGRAM   1:200
  7
OpenSans
 11
12.0
 21
176.0
 31
0.0
100
AcDbText
  0
LINE
  5
121
330
17
100
AcDbEntity
  8
M-ARCH-HIDDEN
100
AcDbLine
 10
20.0
 20
132.0
 30
0.0
 11
22.0
 21
132.0
 31
0.0
  0
LINE
  5
122
330
17
100
AcDbEntity
  8
M-ARCH-HIDDEN
100
AcDbLine
 10
23.4
 20
132.0
 30
0.0
 11
25.4
 21
132.0
 31
0.0
  0
LINE
  5
123
330
17
100
AcDbEntity
  8
M-ARCH-HIDDEN
100
AcDbLine
 10
26.8
 20
132.0
 30
0.0
 11
28.8
 21
132.0
 31
0.0
  0
LINE
  5
124
330
17
100
AcDbEntity
  8
M-ARCH-HIDDEN
100
AcDbLine
 10
30.200000000000003
 20
132.0
 30
0.0
 11
32.2
 21
132.0
 31
0.0
  0
LINE
  5
125
330
17
100
AcDbEntity
  8
M-ARCH-HIDDEN
100
AcDbLine
 10
33.6
 20
132.0
 30
0.0
 11
35.6
 21
132.0
 31
0.0
  0
LINE
  5
126
330
17
100
AcDbEntity
  8
M-ARCH-HIDDEN
100
AcDbLine
 10
37.0
 20
132.0
 30
0.0
 11
39.0
 21
132.0
 31
0.0
  0
LINE
  5
127
330
17
100
AcDbEntity
  8
M-ARCH-HIDDEN
100
AcDbLine
 10
40.4
 20
132.0
 30
0.0
 11
42.4
 21
132.0
 31
0.0
  0
LINE
  5
128
330
17
100
AcDbEntity
  8
M-ARCH-HIDDEN
100
AcDbLine
 10
43.8
 20
132.0
 30
0.0
 11
45.8
 21
132.0
 31
0.0
  0
LINE
  5
129
330
17
100
AcDbEntity
  8
M-ARCH-HIDDEN
100
AcDbLine
 10
47.199999999999996
 20
132.0
 30
0.0
 11
49.199999999999996
 21
132.0
 31
0.0
  0
LINE
  5
12A
330
17
100
AcDbEntity
  8
M-ARCH-HIDDEN
100
AcDbLine
 10
50.599999999999994
 20
132.0
 30
0.0
 11
52.599999999999994
 21
132.0
 31
0.0
  0
LINE
  5
12B
330
17
100
AcDbEntity
  8
M-ARCH-HIDDEN
100
AcDbLine
 10
53.99999999999999
 20
132.0
 30
0.0
 11
55.99999999999999
 21
132.0
 31
0.0
  0
LINE
  5
12C
330
17
100
AcDbEntity
  8
M-ARCH-HIDDEN
100
AcDbLine
 10
57.39999999999999
 20
132.0
 30
0.0
 11
59.39999999999999
 21
132.0
 31
0.0
  0
LINE
  5
12D
330
17
100
AcDbEntity
  8
M-ARCH-HIDDEN
100
AcDbLine
 10
60.79999999999999
 20
132.0
 30
0.0
 11
62.79999999999999
 21
132.0
 31
0.0
  0
LINE
  5
12E
330
17
100
AcDbEntity
  8
M-ARCH-HIDDEN
100
AcDbLine
 10
64.19999999999999
 20
132.0
 30
0.0
 11
66.19999999999999
 21
132.0
 31
0.0
  0
LINE
  5
12F
330
17
100
AcDbEntity
  8
M-ARCH-HIDDEN
100
AcDbLine
 10
67.6
 20
132.0
 30
0.0
 11
69.6
 21
132.0
 31
0.0
  0
LINE
  5
130
330
17
100
AcDbEntity
  8
M-ARCH-HIDDEN
100
AcDbLine
 10
70.99999999999999
 20
132.0
 30
0.0
 11
72.99999999999999
 21
132.0
 31
0.0
  0
LINE
  5
131
330
17
100
AcDbEntity
  8
M-ARCH-HIDDEN
100
AcDbLine
 10
74.39999999999998
 20
132.0
 30
0.0
 11
76.39999999999998
 21
132.0
 31
0.0
  0
LINE
  5
132
330
17
100
AcDbEntity
  8
M-ARCH-HIDDEN
100
AcDbLine
 10
77.79999999999998
 20
132.0
 30
0.0
 11
79.79999999999998
 21
132.0
 31
0.0
  0
LINE
  5
133
330
17
100
AcDbEntity
  8
M-ARCH-HIDDEN
100
AcDbLine
 10
81.19999999999999
 20
132.0
 30
0.0
 11
83.19999999999999
 21
132.0
 31
0.0
  0
LINE
  5
134
330
17
100
AcDbEntity
  8
M-ARCH-HIDDEN
100
AcDbLine
 10
84.59999999999998
 20
132.0
 30
0.0
 11
86.59999999999998
 21
132.0
 31
0.0
  0
LINE
  5
135
330
17
100
AcDbEntity
  8
M-ARCH-HIDDEN
100
AcDbLine
 10
87.99999999999999
 20
132.0
 30
0.0
 11
89.99999999999999
 21
132.0
 31
0.0
  0
LINE
  5
136
330
17
100
AcDbEntity
  8
M-ARCH-HIDDEN
100
AcDbLine
 10
91.39999999999999
 20
132.0
 30
0.0
 11
93.39999999999999
 21
132.0
 31
0.0
  0
LINE
  5
137
330
17
100
AcDbEntity
  8
M-ARCH-HIDDEN
100
AcDbLine
 10
94.8
 20
132.0
 30
0.0
 11
96.8
 21
132.0
 31
0.0
  0
LINE
  5
138
330
17
100
AcDbEntity
  8
M-ARCH-HIDDEN
100
AcDbLine
 10
98.2
 20
132.0
 30
0.0
 11
100.2
 21
132.0
 31
0.0
  0
LINE
  5
139
330
17
100
AcDbEntity
  8
M-ARCH-HIDDEN
100
AcDbLine
 10
101.60000000000001
 20
132.0
 30
0.0
 11
103.60000000000001
 21
132.0
 31
0.0
  0
LINE
  5
13A
330
17
100
AcDbEntity
  8
M-ARCH-HIDDEN
100
AcDbLine
 10
105.00000000000001
 20
132.0
 30
0.0
 11
107.00000000000001
 21
132.0
 31
0.0
  0
LINE
  5
13B
330
17
100
AcDbEntity
  8
M-ARCH-HIDDEN
100
AcDbLine
 10
108.40000000000002
 20
132.0
 30
0.0
 11
110.40000000000002
 21
132.0
 31
0.0
  0
LINE
  5
13C
330
17
100
AcDbEntity
  8
M-ARCH-HIDDEN
100
AcDbLine
 10
111.80000000000003
 20
132.0
 30
0.0
 11
113.80000000000003
 21
132.0
 31
0.0
  0
LINE
  5
13D
330
17
100
AcDbEntity
  8
M-ARCH-HIDDEN
100
AcDbLine
 10
115.20000000000003
 20
132.0
 30
0.0
 11
117.20000000000003
 21
132.0
 31
0.0
  0
LINE
  5
13E
330
17
100
AcDbEntity
  8
M-ARCH-HIDDEN
100
AcDbLine
 10
118.60000000000004
 20
132.0
 30
0.0
 11
120.60000000000004
 21
132.0
 31
0.0
  0
LINE
  5
13F
330
17
100
AcDbEntity
  8
M-ARCH-HIDDEN
100
AcDbLine
 10
122.00000000000004
 20
132.0
 30
0.0
 11
124.00000000000004
 21
132.0
 31
0.0
  0
LINE
  5
140
330
17
100
AcDbEntity
  8
M-ARCH-HIDDEN
100
AcDbLine
 10
125.40000000000005
 20
132.0
 30
0.0
 11
127.40000000000005
 21
132.0
 31
0.0
  0
LINE
  5
141
330
17
100
AcDbEntity
  8
M-ARCH-HIDDEN
100
AcDbLine
 10
128.80000000000007
 20
132.0
 30
0.0
 11
130.0
 21
132.0
 31
0.0
  0
LINE
  5
142
330
17
100
AcDbEntity
  8
M-ARCH-HIDDEN
100
AcDbLine
 10
130.0
 20
132.0
 30
0.0
 11
130.0
 21
134.0
 31
0.0
  0
LINE
  5
143
330
17
100
AcDbEntity
  8
M-ARCH-HIDDEN
100
AcDbLine
 10
130.0
 20
135.4
 30
0.0
 11
130.0
 21
137.4
 31
0.0
  0
LINE
  5
144
330
17
100
AcDbEntity
  8
M-ARCH-HIDDEN
100
AcDbLine
 10
130.0
 20
138.8
 30
0.0
 11
130.0
 21
140.8
 31
0.0
  0
LINE
  5
145
330
17
100
AcDbEntity
  8
M-ARCH-HIDDEN
100
AcDbLine
 10
130.0
 20
142.2
 30
0.0
 11
130.0
 21
144.2
 31
0.0
  0
LINE
  5
146
330
17
100
AcDbEntity
  8
M-ARCH-HIDDEN
100
AcDbLine
 10
130.0
 20
145.6
 30
0.0
 11
130.0
 21
147.6
 31
0.0
  0
LINE
  5
147
330
17
100
AcDbEntity
  8
M-ARCH-HIDDEN
100
AcDbLine
 10
130.0
 20
149.0
 30
0.0
 11
130.0
 21
151.0
 31
0.0
  0
LINE
  5
148
330
17
100
AcDbEntity
  8
M-ARCH-HIDDEN
100
AcDbLine
 10
130.0
 20
152.4
 30
0.0
 11
130.0
 21
154.4
 31
0.0
  0
LINE
  5
149
330
17
100
AcDbEntity
  8
M-ARCH-HIDDEN
100
AcDbLine
 10
130.0
 20
155.8
 30
0.0
 11
130.0
 21
157.8
 31
0.0
  0
LINE
  5
14A
330
17
100
AcDbEntity
  8
M-ARCH-HIDDEN
100
AcDbLine
 10
130.0
 20
159.2
 30
0.0
 11
130.0
 21
161.2
 31
0.0
  0
LINE
  5
14B
330
17
100
AcDbEntity
  8
M-ARCH-HIDDEN
100
AcDbLine
 10
130.0
 20
162.6
 30
0.0
 11
130.0
 21
163.0
 31
0.0
  0
LINE
  5
14C
330
17
100
AcDbEntity
  8
M-ARCH-HIDDEN
100
AcDbLine
 10
130.0
 20
163.0
 30
0.0
 11
128.0
 21
163.0
 31
0.0
  0
LINE
  5
14D
330
17
100
AcDbEntity
  8
M-ARCH-HIDDEN
100
AcDbLine
 10
126.6
 20
163.0
 30
0.0
 11
124.6
 21
163.0
 31
0.0
  0
LINE
  5
14E
330
17
100
AcDbEntity
  8
M-ARCH-HIDDEN
100
AcDbLine
 10
123.2
 20
163.0
 30
0.0
 11
121.2
 21
163.0
 31
0.0
  0
LINE
  5
14F
330
17
100
AcDbEntity
  8
M-ARCH-HIDDEN
100
AcDbLine
 10
119.8
 20
163.0
 30
0.0
 11
117.8
 21
163.0
 31
0.0
  0
LINE
  5
150
330
17
100
AcDbEntity
  8
M-ARCH-HIDDEN
100
AcDbLine
 10
116.4
 20
163.0
 30
0.0
 11
114.4
 21
163.0
 31
0.0
  0
LINE
  5
151
330
17
100
AcDbEntity
  8
M-ARCH-HIDDEN
100
AcDbLine
 10
113.0
 20
163.0
 30
0.0
 11
111.0
 21
163.0
 31
0.0
  0
LINE
  5
152
330
17
100
AcDbEntity
  8
M-ARCH-HIDDEN
100
AcDbLine
 10
109.6
 20
163.0
 30
0.0
 11
107.6
 21
163.0
 31
0.0
  0
LINE
  5
153
330
17
100
AcDbEntity
  8
M-ARCH-HIDDEN
100
AcDbLine
 10
106.2
 20
163.0
 30
0.0
 11
104.2
 21
163.0
 31
0.0
  0
LINE
  5
154
330
17
100
AcDbEntity
  8
M-ARCH-HIDDEN
100
AcDbLine
 10
102.80000000000001
 20
163.0
 30
0.0
 11
100.80000000000001
 21
163.0
 31
0.0
  0
LINE
  5
155
330
17
100
AcDbEntity
  8
M-ARCH-HIDDEN
100
AcDbLine
 10
99.4
 20
163.0
 30
0.0
 11
97.4
 21
163.0
 31
0.0
  0
LINE
  5
156
330
17
100
AcDbEntity
  8
M-ARCH-HIDDEN
100
AcDbLine
 10
96.0
 20
163.0
 30
0.0
 11
94.0
 21
163.0
 31
0.0
  0
LINE
  5
157
330
17
100
AcDbEntity
  8
M-ARCH-HIDDEN
100
AcDbLine
 10
92.60000000000001
 20
163.0
 30
0.0
 11
90.60000000000001
 21
163.0
 31
0.0
  0
LINE
  5
158
330
17
100
AcDbEntity
  8
M-ARCH-HIDDEN
100
AcDbLine
 10
89.20000000000002
 20
163.0
 30
0.0
 11
87.20000000000002
 21
163.0
 31
0.0
  0
LINE
  5
159
330
17
100
AcDbEntity
  8
M-ARCH-HIDDEN
100
AcDbLine
 10
85.80000000000001
 20
163.0
 30
0.0
 11
83.80000000000001
 21
163.0
 31
0.0
  0
LINE
  5
15A
330
17
100
AcDbEntity
  8
M-ARCH-HIDDEN
100
AcDbLine
 10
82.4
 20
163.0
 30
0.0
 11
80.4
 21
163.0
 31
0.0
  0
LINE
  5
15B
330
17
100
AcDbEntity
  8
M-ARCH-HIDDEN
100
AcDbLine
 10
79.00000000000001
 20
163.0
 30
0.0
 11
77.00000000000001
 21
163.0
 31
0.0
  0
LINE
  5
15C
330
17
100
AcDbEntity
  8
M-ARCH-HIDDEN
100
AcDbLine
 10
75.60000000000002
 20
163.0
 30
0.0
 11
73.60000000000002
 21
163.0
 31
0.0
  0
LINE
  5
15D
330
17
100
AcDbEntity
  8
M-ARCH-HIDDEN
100
AcDbLine
 10
72.20000000000002
 20
163.0
 30
0.0
 11
70.20000000000002
 21
163.0
 31
0.0
  0
LINE
  5
15E
330
17
100
AcDbEntity
  8
M-ARCH-HIDDEN
100
AcDbLine
 10
68.80000000000001
 20
163.0
 30
0.0
 11
66.80000000000001
 21
163.0
 31
0.0
  0
LINE
  5
15F
330
17
100
AcDbEntity
  8
M-ARCH-HIDDEN
100
AcDbLine
 10
65.40000000000002
 20
163.0
 30
0.0
 11
63.40000000000002
 21
163.0
 31
0.0
  0
LINE
  5
160
330
17
100
AcDbEntity
  8
M-ARCH-HIDDEN
100
AcDbLine
 10
62.000000000000014
 20
163.0
 30
0.0
 11
60.000000000000014
 21
163.0
 31
0.0
  0
LINE
  5
161
330
17
100
AcDbEntity
  8
M-ARCH-HIDDEN
100
AcDbLine
 10
58.60000000000001
 20
163.0
 30
0.0
 11
56.60000000000001
 21
163.0
 31
0.0
  0
LINE
  5
162
330
17
100
AcDbEntity
  8
M-ARCH-HIDDEN
100
AcDbLine
 10
55.2
 20
163.0
 30
0.0
 11
53.2
 21
163.0
 31
0.0
  0
LINE
  5
163
330
17
100
AcDbEntity
  8
M-ARCH-HIDDEN
100
AcDbLine
 10
51.8
 20
163.0
 30
0.0
 11
49.8
 21
163.0
 31
0.0
  0
LINE
  5
164
330
17
100
AcDbEntity
  8
M-ARCH-HIDDEN
100
AcDbLine
 10
48.39999999999999
 20
163.0
 30
0.0
 11
46.39999999999999
 21
163.0
 31
0.0
  0
LINE
  5
165
330
17
100
AcDbEntity
  8
M-ARCH-HIDDEN
100
AcDbLine
 10
44.999999999999986
 20
163.0
 30
0.0
 11
42.999999999999986
 21
163.0
 31
0.0
  0
LINE
  5
166
330
17
100
AcDbEntity
  8
M-ARCH-HIDDEN
100
AcDbLine
 10
41.59999999999998
 20
163.0
 30
0.0
 11
39.59999999999998
 21
163.0
 31
0.0
  0
LINE
  5
167
330
17
100
AcDbEntity
  8
M-ARCH-HIDDEN
100
AcDbLine
 10
38.199999999999974
 20
163.0
 30
0.0
 11
36.199999999999974
 21
163.0
 31
0.0
  0
LINE
  5
168
330
17
100
AcDbEntity
  8
M-ARCH-HIDDEN
100
AcDbLine
 10
34.79999999999997
 20
163.0
 30
0.0
 11
32.79999999999997
 21
163.0
 31
0.0
  0
LINE
  5
169
330
17
100
AcDbEntity
  8
M-ARCH-HIDDEN
100
AcDbLine
 10
31.399999999999963
 20
163.0
 30
0.0
 11
29.399999999999963
 21
163.0
 31
0.0
  0
LINE
  5
16A
330
17
100
AcDbEntity
  8
M-ARCH-HIDDEN
100
AcDbLine
 10
27.999999999999957
 20
163.0
 30
0.0
 11
25.999999999999957
 21
163.0
 31
0.0
  0
LINE
  5
16B
330
17
100
AcDbEntity
  8
M-ARCH-HIDDEN
100
AcDbLine
 10
24.59999999999995
 20
163.0
 30
0.0
 11
22.59999999999995
 21
163.0
 31
0.0
  0
LINE
  5
16C
330
17
100
AcDbEntity
  8
M-ARCH-HIDDEN
100
AcDbLine
 10
21.199999999999946
 20
163.0
 30
0.0
 11
20.0
 21
163.0
 31
0.0
  0
LINE
  5
16D
330
17
100
AcDbEntity
  8
M-ARCH-HIDDEN
100
AcDbLine
 10
20.0
 20
163.0
 30
0.0
 11
20.0
 21
161.0
 31
0.0
  0
LINE
  5
16E
330
17
100
AcDbEntity
  8
M-ARCH-HIDDEN
100
AcDbLine
 10
20.0
 20
159.6
 30
0.0
 11
20.0
 21
157.6
 31
0.0
  0
LINE
  5
16F
330
17
100
AcDbEntity
  8
M-ARCH-HIDDEN
100
AcDbLine
 10
20.0
 20
156.2
 30
0.0
 11
20.0
 21
154.2
 31
0.0
  0
LINE
  5
170
330
17
100
AcDbEntity
  8
M-ARCH-HIDDEN
100
AcDbLine
 10
20.0
 20
152.8
 30
0.0
 11
20.0
 21
150.8
 31
0.0
  0
LINE
  5
171
330
17
100
AcDbEntity
  8
M-ARCH-HIDDEN
100
AcDbLine
 10
20.0
 20
149.4
 30
0.0
 11
20.0
 21
147.4
 31
0.0
  0
LINE
  5
172
330
17
100
AcDbEntity
  8
M-ARCH-HIDDEN
100
AcDbLine
 10
20.0
 20
146.0
 30
0.0
 11
20.0
 21
144.0
 31
0.0
  0
LINE
  5
173
330
17
100
AcDbEntity
  8
M-ARCH-HIDDEN
100
AcDbLine
 10
20.0
 20
142.6
 30
0.0
 11
20.0
 21
140.6
 31
0.0
  0
LINE
  5
174
330
17
100
AcDbEntity
  8
M-ARCH-HIDDEN
100
AcDbLine
 10
20.0
 20
139.2
 30
0.0
 11
20.0
 21
137.2
 31
0.0
  0
LINE
  5
175
330
17
100
AcDbEntity
  8
M-ARCH-HIDDEN
100
AcDbLine
 10
20.0
 20
135.8
 30
0.0
 11
20.0
 21
133.8
 31
0.0
  0
LINE
  5
176
330
17
100
AcDbEntity
  8
M-ARCH-HIDDEN
100
AcDbLine
 10
20.0
 20
132.4
 30
0.0
 11
20.0
 21
132.0
 31
0.0
  0
LWPOLYLINE
  5
177
330
17
100
AcDbEntity
  8
M-STRUCT
100
AcDbPolyline
 90
4
 70
1
 10
88.0
 20
133.0
 10
112.0
 20
133.0
 10
112.0
 20
162.0
 10
88.0
 20
162.0
  0
LWPOLYLINE
  5
178
330
17
100
AcDbEntity
  8
M-STRUCT
100
AcDbPolyline
 90
4
 70
1
 10
90.0
 20
135.0
 10
110.0
 20
135.0
 10
110.0
 20
160.0
 10
90.0
 20
160.0
  0
LWPOLYLINE
  5
179
330
17
100
AcDbEntity
  8
M-STRUCT
100
AcDbPolyline
 90
4
 70
1
 10
66.25
 20
160.75
 10
100.25
 20
160.75
 10
100.25
 20
170.75
 10
66.25
 20
170.75
  0
LWPOLYLINE
  5
17A
330
17
100
AcDbEntity
  8
M-STRUCT
100
AcDbPolyline
 90
4
 70
1
 10
67.5
 20
162.0
 10
99.0
 20
162.0
 10
99.0
 20
169.5
 10
67.5
 20
169.5
  0
LINE
  5
17B
330
17
100
AcDbEntity
  8
M-ARCH
100
AcDbLine
 10
76.5
 20
162.0
 30
0.0
 11
76.5
 21
169.5
 31
0.0
  0
LINE
  5
17C
330
17
100
AcDbEntity
  8
M-ARCH
100
AcDbLine
 10
78.0
 20
162.0
 30
0.0
 11
78.0
 21
169.5
 31
0.0
  0
LINE
  5
17D
330
17
100
AcDbEntity
  8
M-ARCH
100
AcDbLine
 10
79.5
 20
162.0
 30
0.0
 11
79.5
 21
169.5
 31
0.0
  0
LINE
  5
17E
330
17
100
AcDbEntity
  8
M-ARCH
100
AcDbLine
 10
81.0
 20
162.0
 30
0.0
 11
81.0
 21
169.5
 31
0.0
  0
LINE
  5
17F
330
17
100
AcDbEntity
  8
M-ARCH
100
AcDbLine
 10
82.5
 20
162.0
 30
0.0
 11
82.5
 21
169.5
 31
0.0
  0
LINE
  5
180
330
17
100
AcDbEntity
  8
M-ARCH
100
AcDbLine
 10
84.0
 20
162.0
 30
0.0
 11
84.0
 21
169.5
 31
0.0
  0
LINE
  5
181
330
17
100
AcDbEntity
  8
M-ARCH
100
AcDbLine
 10
85.5
 20
162.0
 30
0.0
 11
85.5
 21
169.5
 31
0.0
  0
LINE
  5
182
330
17
100
AcDbEntity
  8
M-ARCH
100
AcDbLine
 10
87.0
 20
162.0
 30
0.0
 11
87.0
 21
169.5
 31
0.0
  0
LINE
  5
183
330
17
100
AcDbEntity
  8
M-ARCH
100
AcDbLine
 10
88.5
 20
162.0
 30
0.0
 11
88.5
 21
169.5
 31
0.0
  0
LINE
  5
184
330
17
100
AcDbEntity
  8
M-ARCH
100
AcDbLine
 10
90.0
 20
162.0
 30
0.0
 11
90.0
 21
169.5
 31
0.0
  0
LINE
  5
185
330
17
100
AcDbEntity
  8
M-ARCH
100
AcDbLine
 10
75.0
 20
162.0
 30
0.0
 11
75.0
 21
169.5
 31
0.0
  0
LINE
  5
186
330
17
100
AcDbEntity
  8
M-ARCH
100
AcDbLine
 10
91.5
 20
162.0
 30
0.0
 11
91.5
 21
169.5
 31
0.0
  0
LWPOLYLINE
  5
187
330
17
100
AcDbEntity
  8
M-FLAG
100
AcDbPolyline
 90
4
 70
1
 10
66.25
 20
163.25
 10
67.5
 20
163.25
 10
67.5
 20
168.25
 10
66.25
 20
168.25
  0
LWPOLYLINE
  5
188
330
17
100
AcDbEntity
  8
M-FLAG
100
AcDbPolyline
 90
4
 70
1
 10
92.25
 20
160.0
 10
96.75
 20
160.0
 10
96.75
 20
162.0
 10
92.25
 20
162.0
  0
LWPOLYLINE
  5
189
330
17
100
AcDbEntity
  8
P-DRAIN-STORM
100
AcDbPolyline
 90
4
 70
1
 10
64.75
 20
162.0
 10
66.25
 20
162.0
 10
66.25
 20
169.5
 10
64.75
 20
169.5
  0
LINE
  5
18A
330
17
100
AcDbEntity
  8
M-EXISTING
100
AcDbLine
 10
59.5
 20
154.0
 30
0.0
 11
61.5
 21
154.0
 31
0.0
  0
LINE
  5
18B
330
17
100
AcDbEntity
  8
M-EXISTING
100
AcDbLine
 10
62.9
 20
154.0
 30
0.0
 11
64.9
 21
154.0
 31
0.0
  0
LINE
  5
18C
330
17
100
AcDbEntity
  8
M-EXISTING
100
AcDbLine
 10
66.3
 20
154.0
 30
0.0
 11
68.3
 21
154.0
 31
0.0
  0
LINE
  5
18D
330
17
100
AcDbEntity
  8
M-EXISTING
100
AcDbLine
 10
69.7
 20
154.0
 30
0.0
 11
71.7
 21
154.0
 31
0.0
  0
LINE
  5
18E
330
17
100
AcDbEntity
  8
M-EXISTING
100
AcDbLine
 10
73.1
 20
154.0
 30
0.0
 11
75.1
 21
154.0
 31
0.0
  0
LINE
  5
18F
330
17
100
AcDbEntity
  8
M-EXISTING
100
AcDbLine
 10
76.5
 20
154.0
 30
0.0
 11
78.5
 21
154.0
 31
0.0
  0
LINE
  5
190
330
17
100
AcDbEntity
  8
M-EXISTING
100
AcDbLine
 10
79.9
 20
154.0
 30
0.0
 11
81.9
 21
154.0
 31
0.0
  0
LINE
  5
191
330
17
100
AcDbEntity
  8
M-EXISTING
100
AcDbLine
 10
83.3
 20
154.0
 30
0.0
 11
85.3
 21
154.0
 31
0.0
  0
LINE
  5
192
330
17
100
AcDbEntity
  8
M-EXISTING
100
AcDbLine
 10
86.69999999999999
 20
154.0
 30
0.0
 11
88.69999999999999
 21
154.0
 31
0.0
  0
LINE
  5
193
330
17
100
AcDbEntity
  8
M-EXISTING
100
AcDbLine
 10
90.1
 20
154.0
 30
0.0
 11
92.1
 21
154.0
 31
0.0
  0
LINE
  5
194
330
17
100
AcDbEntity
  8
M-EXISTING
100
AcDbLine
 10
93.5
 20
154.0
 30
0.0
 11
95.5
 21
154.0
 31
0.0
  0
LINE
  5
195
330
17
100
AcDbEntity
  8
M-EXISTING
100
AcDbLine
 10
96.89999999999999
 20
154.0
 30
0.0
 11
98.89999999999999
 21
154.0
 31
0.0
  0
LINE
  5
196
330
17
100
AcDbEntity
  8
M-EXISTING
100
AcDbLine
 10
100.29999999999998
 20
154.0
 30
0.0
 11
102.29999999999998
 21
154.0
 31
0.0
  0
LINE
  5
197
330
17
100
AcDbEntity
  8
M-EXISTING
100
AcDbLine
 10
103.69999999999999
 20
154.0
 30
0.0
 11
105.69999999999999
 21
154.0
 31
0.0
  0
LINE
  5
198
330
17
100
AcDbEntity
  8
M-EXISTING
100
AcDbLine
 10
59.5
 20
177.5
 30
0.0
 11
61.5
 21
177.5
 31
0.0
  0
LINE
  5
199
330
17
100
AcDbEntity
  8
M-EXISTING
100
AcDbLine
 10
62.9
 20
177.5
 30
0.0
 11
64.9
 21
177.5
 31
0.0
  0
LINE
  5
19A
330
17
100
AcDbEntity
  8
M-EXISTING
100
AcDbLine
 10
66.3
 20
177.5
 30
0.0
 11
68.3
 21
177.5
 31
0.0
  0
LINE
  5
19B
330
17
100
AcDbEntity
  8
M-EXISTING
100
AcDbLine
 10
69.7
 20
177.5
 30
0.0
 11
71.7
 21
177.5
 31
0.0
  0
LINE
  5
19C
330
17
100
AcDbEntity
  8
M-EXISTING
100
AcDbLine
 10
73.1
 20
177.5
 30
0.0
 11
75.1
 21
177.5
 31
0.0
  0
LINE
  5
19D
330
17
100
AcDbEntity
  8
M-EXISTING
100
AcDbLine
 10
76.5
 20
177.5
 30
0.0
 11
78.5
 21
177.5
 31
0.0
  0
LINE
  5
19E
330
17
100
AcDbEntity
  8
M-EXISTING
100
AcDbLine
 10
79.9
 20
177.5
 30
0.0
 11
81.9
 21
177.5
 31
0.0
  0
LINE
  5
19F
330
17
100
AcDbEntity
  8
M-EXISTING
100
AcDbLine
 10
83.3
 20
177.5
 30
0.0
 11
85.3
 21
177.5
 31
0.0
  0
LINE
  5
1A0
330
17
100
AcDbEntity
  8
M-EXISTING
100
AcDbLine
 10
86.69999999999999
 20
177.5
 30
0.0
 11
88.69999999999999
 21
177.5
 31
0.0
  0
LINE
  5
1A1
330
17
100
AcDbEntity
  8
M-EXISTING
100
AcDbLine
 10
90.1
 20
177.5
 30
0.0
 11
92.1
 21
177.5
 31
0.0
  0
LINE
  5
1A2
330
17
100
AcDbEntity
  8
M-EXISTING
100
AcDbLine
 10
93.5
 20
177.5
 30
0.0
 11
95.5
 21
177.5
 31
0.0
  0
LINE
  5
1A3
330
17
100
AcDbEntity
  8
M-EXISTING
100
AcDbLine
 10
96.89999999999999
 20
177.5
 30
0.0
 11
98.89999999999999
 21
177.5
 31
0.0
  0
LINE
  5
1A4
330
17
100
AcDbEntity
  8
M-EXISTING
100
AcDbLine
 10
100.29999999999998
 20
177.5
 30
0.0
 11
102.29999999999998
 21
177.5
 31
0.0
  0
LINE
  5
1A5
330
17
100
AcDbEntity
  8
M-EXISTING
100
AcDbLine
 10
103.69999999999999
 20
177.5
 30
0.0
 11
105.69999999999999
 21
177.5
 31
0.0
  0
LWPOLYLINE
  5
1A6
330
17
100
AcDbEntity
  8
P-DRAIN-STORM
100
AcDbPolyline
 90
4
 70
1
 10
88.0
 20
133.0
 10
112.0
 20
133.0
 10
112.0
 20
162.0
 10
88.0
 20
162.0
  0
TEXT
  5
1A7
330
17
100
AcDbEntity
  8
P-DRAIN-STORM
100
AcDbText
 10
100.0
 20
134.5
 30
0.0
 40
1.8
  1
HEADHOUSE ROOF 27.84 m2
  7
OpenSans
 72
1
 11
100.0
 21
134.5
 31
0.0
100
AcDbText
 73
1
  0
TEXT
  5
1A8
330
17
100
AcDbEntity
  8
P-DRAIN-STORM
100
AcDbText
 10
80.0
 20
171.5
 30
0.0
 40
1.8
  1
STAIRWELL ROOF 13.60 m2
  7
OpenSans
 72
1
 11
80.0
 21
171.5
 31
0.0
100
AcDbText
 73
1
  0
TEXT
  5
1A9
330
17
100
AcDbEntity
  8
P-DRAIN-SEEP
100
AcDbText
 10
30.0
 20
152.0
 30
0.0
 40
1.8
  1
ENGINEERED COVER 136.40 m2
  7
OpenSans
 11
30.0
 21
152.0
 31
0.0
100
AcDbText
 73
2
  0
TEXT
  5
1AA
330
17
100
AcDbEntity
  8
P-DRAIN-SEEP
100
AcDbText
 10
30.0
 20
148.0
 30
0.0
 40
1.8
  1
SHEDS AT THE SURFACE, NOT PIPED
  7
OpenSans
 11
30.0
 21
148.0
 31
0.0
100
AcDbText
 73
2
  0
LWPOLYLINE
  5
1AB
330
17
100
AcDbEntity
  8
P-FLOW
100
AcDbPolyline
 90
3
 70
1
 10
35.0
 20
128.7
 10
35.81
 20
131.22
 10
34.19
 20
131.22
  0
LWPOLYLINE
  5
1AC
330
17
100
AcDbEntity
  8
P-FLOW
100
AcDbPolyline
 90
3
 70
1
 10
55.0
 20
128.7
 10
55.81
 20
131.22
 10
54.19
 20
131.22
  0
LWPOLYLINE
  5
1AD
330
17
100
AcDbEntity
  8
P-FLOW
100
AcDbPolyline
 90
3
 70
1
 10
75.0
 20
128.7
 10
75.81
 20
131.22
 10
74.19
 20
131.22
  0
LWPOLYLINE
  5
1AE
330
17
100
AcDbEntity
  8
P-FLOW
100
AcDbPolyline
 90
3
 70
1
 10
95.0
 20
128.7
 10
95.81
 20
131.22
 10
94.19
 20
131.22
  0
LWPOLYLINE
  5
1AF
330
17
100
AcDbEntity
  8
P-FLOW
100
AcDbPolyline
 90
3
 70
1
 10
115.0
 20
128.7
 10
115.81
 20
131.22
 10
114.19
 20
131.22
  0
LWPOLYLINE
  5
1B0
330
17
100
AcDbEntity
  8
P-DRAIN-STORM
100
AcDbPolyline
 90
4
 70
1
 10
64.75
 20
162.0
 10
66.25
 20
162.0
 10
66.25
 20
169.5
 10
64.75
 20
169.5
  0
TEXT
  5
1B1
330
17
100
AcDbEntity
  8
P-DRAIN-STORM
100
AcDbText
 10
42.25
 20
169.0
 30
0.0
 40
1.8
  1
CH-10  300 CHANNEL + GRATING
  7
OpenSans
 72
1
 11
42.25
 21
169.0
 31
0.0
100
AcDbText
 73
1
  0
INSERT
  5
1B2
330
17
100
AcDbEntity
  8
0
100
AcDbBlockReference
  2
GULLY
 10
95.25
 20
165.75
 30
0.0
 41
0.5
 42
0.5
  0
INSERT
  5
1B4
330
17
100
AcDbEntity
  8
0
100
AcDbBlockReference
  2
PUMP
 10
99.5
 20
164.0
 30
0.0
 41
0.5
 42
0.5
  0
TEXT
  5
1B6
330
17
100
AcDbEntity
  8
P-EQUIP
100
AcDbText
 10
107.0
 20
165.0
 30
0.0
 40
1.8
  1
SU-02  1.0 m3  +  2 x 2 L/s
  7
OpenSans
 11
107.0
 21
165.0
 31
0.0
100
AcDbText
 73
2
  0
INSERT
  5
1B7
330
17
100
AcDbEntity
  8
0
100
AcDbBlockReference
  2
GULLY
 10
93.5
 20
141.8
 30
0.0
 41
0.5
 42
0.5
  0
LEADER
  5
1B9
330
17
100
AcDbEntity
  8
S-CALLOUT
100
AcDbLeader
  3
SC-DIM
 73
3
 76
2
 10
94.5
 20
141.8
 30
0.0
 10
133.0
 20
144.0
 30
0.0
  0
TEXT
  5
1BA
330
17
100
AcDbEntity
  8
P-EQUIP
100
AcDbText
 10
135.0
 20
144.0
 30
0.0
 40
1.8
  1
GY-11 -> EXTERNAL SOAKAWAY
  7
OpenSans
 11
135.0
 21
144.0
 31
0.0
100
AcDbText
 73
2
  0
TEXT
  5
1BB
330
17
100
AcDbEntity
  8
M-FLAG
100
AcDbText
 10
135.0
 20
140.0
 30
0.0
 40
1.8
  1
NEVER TO THE CLEAN SUMP
  7
OpenSans
 11
135.0
 21
140.0
 31
0.0
100
AcDbText
 73
2
  0
TEXT
  5
1BC
330
17
100
AcDbEntity
  8
M-TITLE
100
AcDbText
 10
12.0
 20
123.0
 30
0.0
 40
2.6
  1
FLOW PATH   -   SOURCE / COLLECTION / CONVEYANCE / DISCHARGE
  7
OpenSans
 11
12.0
 21
123.0
 31
0.0
100
AcDbText
  0
LWPOLYLINE
  5
1BD
330
17
100
AcDbEntity
  8
P-DRAIN-STORM
100
AcDbPolyline
 90
4
 70
1
 10
12.0
 20
105.0
 10
62.0
 20
105.0
 10
62.0
 20
117.0
 10
12.0
 20
117.0
  0
TEXT
  5
1BE
330
17
100
AcDbEntity
  8
M-TEXT
100
AcDbText
 10
37.0
 20
111.75999999999999
 30
0.0
 40
1.9
  1
RAIN  50 mm/h  [C]
  7
OpenSans
 72
1
 11
37.0
 21
111.75999999999999
 31
0.0
100
AcDbText
 73
2
  0
TEXT
  5
1BF
330
17
100
AcDbEntity
  8
M-TEXT
100
AcDbText
 10
37.0
 20
108.71999999999998
 30
0.0
 40
1.9
  1
no return period - VERIFY
  7
OpenSans
 72
1
 11
37.0
 21
108.71999999999998
 31
0.0
100
AcDbText
 73
2
  0
LWPOLYLINE
  5
1C0
330
17
100
AcDbEntity
  8
P-DRAIN-STORM
100
AcDbPolyline
 90
4
 70
1
 10
67.5
 20
105.0
 10
117.5
 20
105.0
 10
117.5
 20
117.0
 10
67.5
 20
117.0
  0
TEXT
  5
1C1
330
17
100
AcDbEntity
  8
M-TEXT
100
AcDbText
 10
92.5
 20
111.75999999999999
 30
0.0
 40
1.9
  1
ROOFS + COVER
  7
OpenSans
 72
1
 11
92.5
 21
111.75999999999999
 31
0.0
100
AcDbText
 73
2
  0
TEXT
  5
1C2
330
17
100
AcDbEntity
  8
M-TEXT
100
AcDbText
 10
92.5
 20
108.71999999999998
 30
0.0
 40
1.9
  1
177.23 m2  ->  2.461 L/s  [R]
  7
OpenSans
 72
1
 11
92.5
 21
108.71999999999998
 31
0.0
100
AcDbText
 73
2
  0
LINE
  5
1C3
330
17
100
AcDbEntity
  8
P-FLOW
100
AcDbLine
 10
62.0
 20
111.0
 30
0.0
 11
67.0
 21
111.0
 31
0.0
  0
LWPOLYLINE
  5
1C4
330
17
100
AcDbEntity
  8
P-FLOW
100
AcDbPolyline
 90
3
 70
1
 10
65.3
 20
111.0
 10
62.78
 20
111.81
 10
62.78
 20
110.19
  0
LWPOLYLINE
  5
1C5
330
17
100
AcDbEntity
  8
P-DRAIN-STORM
100
AcDbPolyline
 90
4
 70
1
 10
123.0
 20
105.0
 10
173.0
 20
105.0
 10
173.0
 20
117.0
 10
123.0
 20
117.0
  0
TEXT
  5
1C6
330
17
100
AcDbEntity
  8
M-TEXT
100
AcDbText
 10
148.0
 20
111.75999999999999
 30
0.0
 40
1.9
  1
SURFACE, FALLS 1:50 AWAY
  7
OpenSans
 72
1
 11
148.0
 21
111.75999999999999
 31
0.0
100
AcDbText
 73
2
  0
TEXT
  5
1C7
330
17
100
AcDbEntity
  8
M-TEXT
100
AcDbText
 10
148.0
 20
108.71999999999998
 30
0.0
 40
1.9
  1
crowned grade  [C]
  7
OpenSans
 72
1
 11
148.0
 21
108.71999999999998
 31
0.0
100
AcDbText
 73
2
  0
LINE
  5
1C8
330
17
100
AcDbEntity
  8
P-FLOW
100
AcDbLine
 10
117.5
 20
111.0
 30
0.0
 11
122.5
 21
111.0
 31
0.0
  0
LWPOLYLINE
  5
1C9
330
17
100
AcDbEntity
  8
P-FLOW
100
AcDbPolyline
 90
3
 70
1
 10
120.8
 20
111.0
 10
118.28
 20
111.81
 10
118.28
 20
110.19
  0
LWPOLYLINE
  5
1CA
330
17
100
AcDbEntity
  8
P-DRAIN-STORM
100
AcDbPolyline
 90
4
 70
1
 10
178.5
 20
105.0
 10
228.5
 20
105.0
 10
228.5
 20
117.0
 10
178.5
 20
117.0
  0
TEXT
  5
1CB
330
17
100
AcDbEntity
  8
M-TEXT
100
AcDbText
 10
203.5
 20
111.75999999999999
 30
0.0
 40
1.9
  1
GROUND AT THE BERM TOE
  7
OpenSans
 72
1
 11
203.5
 21
111.75999999999999
 31
0.0
100
AcDbText
 73
2
  0
TEXT
  5
1CC
330
17
100
AcDbEntity
  8
M-TEXT
100
AcDbText
 10
203.5
 20
108.71999999999998
 30
0.0
 40
1.9
  1
no piped roof drainage
  7
OpenSans
 72
1
 11
203.5
 21
108.71999999999998
 31
0.0
100
AcDbText
 73
2
  0
LINE
  5
1CD
330
17
100
AcDbEntity
  8
P-FLOW
100
AcDbLine
 10
173.0
 20
111.0
 30
0.0
 11
178.0
 21
111.0
 31
0.0
  0
LWPOLYLINE
  5
1CE
330
17
100
AcDbEntity
  8
P-FLOW
100
AcDbPolyline
 90
3
 70
1
 10
176.3
 20
111.0
 10
173.78
 20
111.81
 10
173.78
 20
110.19
  0
LWPOLYLINE
  5
1CF
330
17
100
AcDbEntity
  8
P-DRAIN-STORM
100
AcDbPolyline
 90
4
 70
1
 10
12.0
 20
89.0
 10
62.0
 20
89.0
 10
62.0
 20
101.0
 10
12.0
 20
101.0
  0
TEXT
  5
1D0
330
17
100
AcDbEntity
  8
M-TEXT
100
AcDbText
 10
37.0
 20
95.75999999999999
 30
0.0
 40
1.9
  1
ENTRY THRESHOLD
  7
OpenSans
 72
1
 11
37.0
 21
95.75999999999999
 31
0.0
100
AcDbText
 73
2
  0
TEXT
  5
1D1
330
17
100
AcDbEntity
  8
M-TEXT
100
AcDbText
 10
37.0
 20
92.71999999999998
 30
0.0
 40
1.9
  1
door at grade, falls away 1:50
  7
OpenSans
 72
1
 11
37.0
 21
92.71999999999998
 31
0.0
100
AcDbText
 73
2
  0
LWPOLYLINE
  5
1D2
330
17
100
AcDbEntity
  8
P-DRAIN-STORM
100
AcDbPolyline
 90
4
 70
1
 10
67.5
 20
89.0
 10
117.5
 20
89.0
 10
117.5
 20
101.0
 10
67.5
 20
101.0
  0
TEXT
  5
1D3
330
17
100
AcDbEntity
  8
M-TEXT
100
AcDbText
 10
92.5
 20
95.75999999999999
 30
0.0
 40
1.9
  1
CH-10 CHANNEL
  7
OpenSans
 72
1
 11
92.5
 21
95.75999999999999
 31
0.0
100
AcDbText
 73
2
  0
TEXT
  5
1D4
330
17
100
AcDbEntity
  8
M-TEXT
100
AcDbText
 10
92.5
 20
92.71999999999998
 30
0.0
 40
1.9
  1
full 1500 width  [C]
  7
OpenSans
 72
1
 11
92.5
 21
92.71999999999998
 31
0.0
100
AcDbText
 73
2
  0
LINE
  5
1D5
330
17
100
AcDbEntity
  8
P-FLOW
100
AcDbLine
 10
62.0
 20
95.0
 30
0.0
 11
67.0
 21
95.0
 31
0.0
  0
LWPOLYLINE
  5
1D6
330
17
100
AcDbEntity
  8
P-FLOW
100
AcDbPolyline
 90
3
 70
1
 10
65.3
 20
95.0
 10
62.78
 20
95.81
 10
62.78
 20
94.19
  0
LWPOLYLINE
  5
1D7
330
17
100
AcDbEntity
  8
P-DRAIN-STORM
100
AcDbPolyline
 90
4
 70
1
 10
123.0
 20
89.0
 10
173.0
 20
89.0
 10
173.0
 20
101.0
 10
123.0
 20
101.0
  0
TEXT
  5
1D8
330
17
100
AcDbEntity
  8
M-TEXT
100
AcDbText
 10
148.0
 20
95.75999999999999
 30
0.0
 40
1.9
  1
CP-10 CATCHPIT
  7
OpenSans
 72
1
 11
148.0
 21
95.75999999999999
 31
0.0
100
AcDbText
 73
2
  0
TEXT
  5
1D9
330
17
100
AcDbEntity
  8
M-TEXT
100
AcDbText
 10
148.0
 20
92.71999999999998
 30
0.0
 40
1.9
  1
trapped, silt bucket  [A]
  7
OpenSans
 72
1
 11
148.0
 21
92.71999999999998
 31
0.0
100
AcDbText
 73
2
  0
LINE
  5
1DA
330
17
100
AcDbEntity
  8
P-FLOW
100
AcDbLine
 10
117.5
 20
95.0
 30
0.0
 11
122.5
 21
95.0
 31
0.0
  0
LWPOLYLINE
  5
1DB
330
17
100
AcDbEntity
  8
P-FLOW
100
AcDbPolyline
 90
3
 70
1
 10
120.8
 20
95.0
 10
118.28
 20
95.81
 10
118.28
 20
94.19
  0
LWPOLYLINE
  5
1DC
330
17
100
AcDbEntity
  8
P-DRAIN-STORM
100
AcDbPolyline
 90
4
 70
1
 10
178.5
 20
89.0
 10
228.5
 20
89.0
 10
228.5
 20
101.0
 10
178.5
 20
101.0
  0
TEXT
  5
1DD
330
17
100
AcDbEntity
  8
M-TEXT
100
AcDbText
 10
203.5
 20
95.75999999999999
 30
0.0
 40
1.9
  1
SK-02 STORM SOAKAWAY
  7
OpenSans
 72
1
 11
203.5
 21
95.75999999999999
 31
0.0
100
AcDbText
 73
2
  0
TEXT
  5
1DE
330
17
100
AcDbEntity
  8
M-TEXT
100
AcDbText
 10
203.5
 20
92.71999999999998
 30
0.0
 40
1.9
  1
position not fixed  [N]
  7
OpenSans
 72
1
 11
203.5
 21
92.71999999999998
 31
0.0
100
AcDbText
 73
2
  0
LINE
  5
1DF
330
17
100
AcDbEntity
  8
P-FLOW
100
AcDbLine
 10
173.0
 20
95.0
 30
0.0
 11
178.0
 21
95.0
 31
0.0
  0
LWPOLYLINE
  5
1E0
330
17
100
AcDbEntity
  8
P-FLOW
100
AcDbPolyline
 90
3
 70
1
 10
176.3
 20
95.0
 10
173.78
 20
95.81
 10
173.78
 20
94.19
  0
LWPOLYLINE
  5
1E1
330
17
100
AcDbEntity
  8
P-DRAIN-STORM
100
AcDbPolyline
 90
4
 70
1
 10
12.0
 20
73.0
 10
62.0
 20
73.0
 10
62.0
 20
85.0
 10
12.0
 20
85.0
  0
TEXT
  5
1E2
330
17
100
AcDbEntity
  8
M-TEXT
100
AcDbText
 10
37.0
 20
79.75999999999999
 30
0.0
 40
1.9
  1
DOOR OPEN, DRIVING RAIN
  7
OpenSans
 72
1
 11
37.0
 21
79.75999999999999
 31
0.0
100
AcDbText
 73
2
  0
TEXT
  5
1E3
330
17
100
AcDbEntity
  8
M-TEXT
100
AcDbText
 10
37.0
 20
76.71999999999998
 30
0.0
 40
1.9
  1
1 m3 / 32 h  [C] drg 5 note 9
  7
OpenSans
 72
1
 11
37.0
 21
76.71999999999998
 31
0.0
100
AcDbText
 73
2
  0
LWPOLYLINE
  5
1E4
330
17
100
AcDbEntity
  8
P-DRAIN-STORM
100
AcDbPolyline
 90
4
 70
1
 10
67.5
 20
73.0
 10
117.5
 20
73.0
 10
117.5
 20
85.0
 10
67.5
 20
85.0
  0
TEXT
  5
1E5
330
17
100
AcDbEntity
  8
M-TEXT
100
AcDbText
 10
92.5
 20
79.75999999999999
 30
0.0
 40
1.9
  1
GY-10 PLATFORM GULLY
  7
OpenSans
 72
1
 11
92.5
 21
79.75999999999999
 31
0.0
100
AcDbText
 73
2
  0
TEXT
  5
1E6
330
17
100
AcDbEntity
  8
M-TEXT
100
AcDbText
 10
92.5
 20
76.71999999999998
 30
0.0
 40
1.9
  1
(-)2.000  [C]
  7
OpenSans
 72
1
 11
92.5
 21
76.71999999999998
 31
0.0
100
AcDbText
 73
2
  0
LINE
  5
1E7
330
17
100
AcDbEntity
  8
P-FLOW
100
AcDbLine
 10
62.0
 20
79.0
 30
0.0
 11
67.0
 21
79.0
 31
0.0
  0
LWPOLYLINE
  5
1E8
330
17
100
AcDbEntity
  8
P-FLOW
100
AcDbPolyline
 90
3
 70
1
 10
65.3
 20
79.0
 10
62.78
 20
79.81
 10
62.78
 20
78.19
  0
LWPOLYLINE
  5
1E9
330
17
100
AcDbEntity
  8
P-DRAIN-STORM
100
AcDbPolyline
 90
4
 70
1
 10
123.0
 20
73.0
 10
173.0
 20
73.0
 10
173.0
 20
85.0
 10
123.0
 20
85.0
  0
TEXT
  5
1EA
330
17
100
AcDbEntity
  8
M-TEXT
100
AcDbText
 10
148.0
 20
79.75999999999999
 30
0.0
 40
1.9
  1
SU-02  1.0 m3
  7
OpenSans
 72
1
 11
148.0
 21
79.75999999999999
 31
0.0
100
AcDbText
 73
2
  0
TEXT
  5
1EB
330
17
100
AcDbEntity
  8
M-TEXT
100
AcDbText
 10
148.0
 20
76.71999999999998
 30
0.0
 40
1.9
  1
2 L/s duty + standby, NRV  [C]
  7
OpenSans
 72
1
 11
148.0
 21
76.71999999999998
 31
0.0
100
AcDbText
 73
2
  0
LINE
  5
1EC
330
17
100
AcDbEntity
  8
P-FLOW
100
AcDbLine
 10
117.5
 20
79.0
 30
0.0
 11
122.5
 21
79.0
 31
0.0
  0
LWPOLYLINE
  5
1ED
330
17
100
AcDbEntity
  8
P-FLOW
100
AcDbPolyline
 90
3
 70
1
 10
120.8
 20
79.0
 10
118.28
 20
79.81
 10
118.28
 20
78.19
  0
LWPOLYLINE
  5
1EE
330
17
100
AcDbEntity
  8
M-FLAG
100
AcDbPolyline
 90
4
 70
1
 10
178.5
 20
73.0
 10
228.5
 20
73.0
 10
228.5
 20
85.0
 10
178.5
 20
85.0
  0
TEXT
  5
1EF
330
17
100
AcDbEntity
  8
M-TEXT
100
AcDbText
 10
203.5
 20
79.75999999999999
 30
0.0
 40
1.9
  1
SK-03 OWN SOAKAWAY
  7
OpenSans
 72
1
 11
203.5
 21
79.75999999999999
 31
0.0
100
AcDbText
 73
2
  0
TEXT
  5
1F0
330
17
100
AcDbEntity
  8
M-TEXT
100
AcDbText
 10
203.5
 20
76.71999999999998
 30
0.0
 40
1.9
  1
54.6 h to recover  -  DR-F3
  7
OpenSans
 72
1
 11
203.5
 21
76.71999999999998
 31
0.0
100
AcDbText
 73
2
  0
LINE
  5
1F1
330
17
100
AcDbEntity
  8
P-FLOW
100
AcDbLine
 10
173.0
 20
79.0
 30
0.0
 11
178.0
 21
79.0
 31
0.0
  0
LWPOLYLINE
  5
1F2
330
17
100
AcDbEntity
  8
P-FLOW
100
AcDbPolyline
 90
3
 70
1
 10
176.3
 20
79.0
 10
173.78
 20
79.81
 10
173.78
 20
78.19
  0
TEXT
  5
1F3
330
17
100
AcDbEntity
  8
M-TITLE
100
AcDbText
 10
12.0
 20
64.0
 30
0.0
 40
2.6
  1
KEY PARAMETERS
  7
OpenSans
 11
12.0
 21
64.0
 31
0.0
100
AcDbText
  0
LWPOLYLINE
  5
1F4
330
17
100
AcDbEntity
  8
M-TABLE
100
AcDbPolyline
 90
4
 70
1
 10
12.0
 20
55.6
 10
130.0
 20
55.6
 10
130.0
 20
60.0
 10
12.0
 20
60.0
  0
TEXT
  5
1F5
330
17
100
AcDbEntity
  8
M-TABLE
100
AcDbText
 10
13.4
 20
56.800000000000004
 30
0.0
 40
2.0
  1
PARAMETER
  7
OpenSans
 11
13.4
 21
56.800000000000004
 31
0.0
100
AcDbText
  0
TEXT
  5
1F6
330
17
100
AcDbEntity
  8
M-TABLE
100
AcDbText
 10
59.4
 20
56.800000000000004
 30
0.0
 40
2.0
  1
VALUE
  7
OpenSans
 11
59.4
 21
56.800000000000004
 31
0.0
100
AcDbText
  0
TEXT
  5
1F7
330
17
100
AcDbEntity
  8
M-TABLE
100
AcDbText
 10
91.4
 20
56.800000000000004
 30
0.0
 40
2.0
  1
CLASS
  7
OpenSans
 11
91.4
 21
56.800000000000004
 31
0.0
100
AcDbText
  0
TEXT
  5
1F8
330
17
100
AcDbEntity
  8
M-TABLE
100
AcDbText
 10
13.4
 20
52.400000000000006
 30
0.0
 40
2.0
  1
Rainfall intensity
  7
OpenSans
 11
13.4
 21
52.400000000000006
 31
0.0
100
AcDbText
  0
TEXT
  5
1F9
330
17
100
AcDbEntity
  8
M-TABLE
100
AcDbText
 10
59.4
 20
52.400000000000006
 30
0.0
 40
2.0
  1
50 mm/h
  7
OpenSans
 11
59.4
 21
52.400000000000006
 31
0.0
100
AcDbText
  0
TEXT
  5
1FA
330
17
100
AcDbEntity
  8
M-TABLE
100
AcDbText
 10
91.4
 20
52.400000000000006
 30
0.0
 40
2.0
  1
[C] Rev F drg 5 n1
  7
OpenSans
 11
91.4
 21
52.400000000000006
 31
0.0
100
AcDbText
  0
LINE
  5
1FB
330
17
100
AcDbEntity
  8
M-TABLE
100
AcDbLine
 10
12.0
 20
51.2
 30
0.0
 11
130.0
 21
51.2
 31
0.0
  0
TEXT
  5
1FC
330
17
100
AcDbEntity
  8
M-TABLE
100
AcDbText
 10
13.4
 20
48.00000000000001
 30
0.0
 40
2.0
  1
Runoff coefficient
  7
OpenSans
 11
13.4
 21
48.00000000000001
 31
0.0
100
AcDbText
  0
TEXT
  5
1FD
330
17
100
AcDbEntity
  8
M-TABLE
100
AcDbText
 10
59.4
 20
48.00000000000001
 30
0.0
 40
2.0
  1
1.00
  7
OpenSans
 11
59.4
 21
48.00000000000001
 31
0.0
100
AcDbText
  0
TEXT
  5
1FE
330
17
100
AcDbEntity
  8
M-TABLE
100
AcDbText
 10
91.4
 20
48.00000000000001
 30
0.0
 40
2.0
  1
[A] conservative
  7
OpenSans
 11
91.4
 21
48.00000000000001
 31
0.0
100
AcDbText
  0
LINE
  5
1FF
330
17
100
AcDbEntity
  8
M-TABLE
100
AcDbLine
 10
12.0
 20
46.800000000000004
 30
0.0
 11
130.0
 21
46.800000000000004
 31
0.0
  0
TEXT
  5
200
330
17
100
AcDbEntity
  8
M-TABLE
100
AcDbText
 10
13.4
 20
43.60000000000001
 30
0.0
 40
2.0
  1
Roof + cover catchment
  7
OpenSans
 11
13.4
 21
43.60000000000001
 31
0.0
100
AcDbText
  0
TEXT
  5
201
330
17
100
AcDbEntity
  8
M-TABLE
100
AcDbText
 10
59.4
 20
43.60000000000001
 30
0.0
 40
2.0
  1
177.23 m2
  7
OpenSans
 11
59.4
 21
43.60000000000001
 31
0.0
100
AcDbText
  0
TEXT
  5
202
330
17
100
AcDbEntity
  8
M-TABLE
100
AcDbText
 10
91.4
 20
43.60000000000001
 30
0.0
 40
2.0
  1
[R]
  7
OpenSans
 11
91.4
 21
43.60000000000001
 31
0.0
100
AcDbText
  0
LINE
  5
203
330
17
100
AcDbEntity
  8
M-TABLE
100
AcDbLine
 10
12.0
 20
42.400000000000006
 30
0.0
 11
130.0
 21
42.400000000000006
 31
0.0
  0
TEXT
  5
204
330
17
100
AcDbEntity
  8
M-TABLE
100
AcDbText
 10
13.4
 20
39.20000000000001
 30
0.0
 40
2.0
  1
Peak surface flow
  7
OpenSans
 11
13.4
 21
39.20000000000001
 31
0.0
100
AcDbText
  0
TEXT
  5
205
330
17
100
AcDbEntity
  8
M-TABLE
100
AcDbText
 10
59.4
 20
39.20000000000001
 30
0.0
 40
2.0
  1
2.461 L/s
  7
OpenSans
 11
59.4
 21
39.20000000000001
 31
0.0
100
AcDbText
  0
TEXT
  5
206
330
17
100
AcDbEntity
  8
M-TABLE
100
AcDbText
 10
91.4
 20
39.20000000000001
 30
0.0
 40
2.0
  1
[R]
  7
OpenSans
 11
91.4
 21
39.20000000000001
 31
0.0
100
AcDbText
  0
LINE
  5
207
330
17
100
AcDbEntity
  8
M-TABLE
100
AcDbLine
 10
12.0
 20
38.00000000000001
 30
0.0
 11
130.0
 21
38.00000000000001
 31
0.0
  0
LINE
  5
208
330
17
100
AcDbEntity
  8
M-TABLE
100
AcDbLine
 10
12.0
 20
60.0
 30
0.0
 11
130.0
 21
60.0
 31
0.0
  0
LINE
  5
209
330
17
100
AcDbEntity
  8
M-TABLE
100
AcDbLine
 10
12.0
 20
60.0
 30
0.0
 11
12.0
 21
38.00000000000001
 31
0.0
  0
LINE
  5
20A
330
17
100
AcDbEntity
  8
M-TABLE
100
AcDbLine
 10
58.0
 20
60.0
 30
0.0
 11
58.0
 21
38.00000000000001
 31
0.0
  0
LINE
  5
20B
330
17
100
AcDbEntity
  8
M-TABLE
100
AcDbLine
 10
90.0
 20
60.0
 30
0.0
 11
90.0
 21
38.00000000000001
 31
0.0
  0
LINE
  5
20C
330
17
100
AcDbEntity
  8
M-TABLE
100
AcDbLine
 10
130.0
 20
60.0
 30
0.0
 11
130.0
 21
38.00000000000001
 31
0.0
  0
LWPOLYLINE
  5
20D
330
17
100
AcDbEntity
  8
M-TABLE
100
AcDbPolyline
 90
4
 70
1
 10
126.0
 20
55.6
 10
232.0
 20
55.6
 10
232.0
 20
60.0
 10
126.0
 20
60.0
  0
TEXT
  5
20E
330
17
100
AcDbEntity
  8
M-TABLE
100
AcDbText
 10
127.4
 20
56.800000000000004
 30
0.0
 40
2.0
  1
ITEM
  7
OpenSans
 11
127.4
 21
56.800000000000004
 31
0.0
100
AcDbText
  0
TEXT
  5
20F
330
17
100
AcDbEntity
  8
M-TABLE
100
AcDbText
 10
169.4
 20
56.800000000000004
 30
0.0
 40
2.0
  1
VALUE
  7
OpenSans
 11
169.4
 21
56.800000000000004
 31
0.0
100
AcDbText
  0
TEXT
  5
210
330
17
100
AcDbEntity
  8
M-TABLE
100
AcDbText
 10
199.4
 20
56.800000000000004
 30
0.0
 40
2.0
  1
CLASS
  7
OpenSans
 11
199.4
 21
56.800000000000004
 31
0.0
100
AcDbText
  0
TEXT
  5
211
330
17
100
AcDbEntity
  8
M-TABLE
100
AcDbText
 10
127.4
 20
52.400000000000006
 30
0.0
 40
2.0
  1
Threshold channel
  7
OpenSans
 11
127.4
 21
52.400000000000006
 31
0.0
100
AcDbText
  0
TEXT
  5
212
330
17
100
AcDbEntity
  8
M-TABLE
100
AcDbText
 10
169.4
 20
52.400000000000006
 30
0.0
 40
2.0
  1
300 x 1500
  7
OpenSans
 11
169.4
 21
52.400000000000006
 31
0.0
100
AcDbText
  0
TEXT
  5
213
330
17
100
AcDbEntity
  8
M-TABLE
100
AcDbText
 10
199.4
 20
52.400000000000006
 30
0.0
 40
2.0
  1
[C] Rev F
  7
OpenSans
 11
199.4
 21
52.400000000000006
 31
0.0
100
AcDbText
  0
LINE
  5
214
330
17
100
AcDbEntity
  8
M-TABLE
100
AcDbLine
 10
126.0
 20
51.2
 30
0.0
 11
232.0
 21
51.2
 31
0.0
  0
TEXT
  5
215
330
17
100
AcDbEntity
  8
M-TABLE
100
AcDbText
 10
127.4
 20
48.00000000000001
 30
0.0
 40
2.0
  1
Stairwell sump / pump
  7
OpenSans
 11
127.4
 21
48.00000000000001
 31
0.0
100
AcDbText
  0
TEXT
  5
216
330
17
100
AcDbEntity
  8
M-TABLE
100
AcDbText
 10
169.4
 20
48.00000000000001
 30
0.0
 40
2.0
  1
1.0 m3 / 2 L/s
  7
OpenSans
 11
169.4
 21
48.00000000000001
 31
0.0
100
AcDbText
  0
TEXT
  5
217
330
17
100
AcDbEntity
  8
M-TABLE
100
AcDbText
 10
199.4
 20
48.00000000000001
 30
0.0
 40
2.0
  1
[C] drg 5 n9
  7
OpenSans
 11
199.4
 21
48.00000000000001
 31
0.0
100
AcDbText
  0
LINE
  5
218
330
17
100
AcDbEntity
  8
M-TABLE
100
AcDbLine
 10
126.0
 20
46.800000000000004
 30
0.0
 11
232.0
 21
46.800000000000004
 31
0.0
  0
TEXT
  5
219
330
17
100
AcDbEntity
  8
M-TABLE
100
AcDbText
 10
127.4
 20
43.60000000000001
 30
0.0
 40
2.0
  1
Storm soakaway SK-02
  7
OpenSans
 11
127.4
 21
43.60000000000001
 31
0.0
100
AcDbText
  0
TEXT
  5
21A
330
17
100
AcDbEntity
  8
M-TABLE
100
AcDbText
 10
169.4
 20
43.60000000000001
 30
0.0
 40
2.0
  1
2.0 dia x 3.5
  7
OpenSans
 11
169.4
 21
43.60000000000001
 31
0.0
100
AcDbText
  0
TEXT
  5
21B
330
17
100
AcDbEntity
  8
M-TABLE
100
AcDbText
 10
199.4
 20
43.60000000000001
 30
0.0
 40
2.0
  1
[A] this package
  7
OpenSans
 11
199.4
 21
43.60000000000001
 31
0.0
100
AcDbText
  0
LINE
  5
21C
330
17
100
AcDbEntity
  8
M-TABLE
100
AcDbLine
 10
126.0
 20
42.400000000000006
 30
0.0
 11
232.0
 21
42.400000000000006
 31
0.0
  0
TEXT
  5
21D
330
17
100
AcDbEntity
  8
M-TABLE
100
AcDbText
 10
127.4
 20
39.20000000000001
 30
0.0
 40
2.0
  1
Foul soak pit SK-01
  7
OpenSans
 11
127.4
 21
39.20000000000001
 31
0.0
100
AcDbText
  0
TEXT
  5
21E
330
17
100
AcDbEntity
  8
M-TABLE
100
AcDbText
 10
169.4
 20
39.20000000000001
 30
0.0
 40
2.0
  1
21.99 m2
  7
OpenSans
 11
169.4
 21
39.20000000000001
 31
0.0
100
AcDbText
  0
TEXT
  5
21F
330
17
100
AcDbEntity
  8
M-TABLE
100
AcDbText
 10
199.4
 20
39.20000000000001
 30
0.0
 40
2.0
  1
[C] 2.3 % SHORT
  7
OpenSans
 11
199.4
 21
39.20000000000001
 31
0.0
100
AcDbText
  0
LINE
  5
220
330
17
100
AcDbEntity
  8
M-TABLE
100
AcDbLine
 10
126.0
 20
38.00000000000001
 30
0.0
 11
232.0
 21
38.00000000000001
 31
0.0
  0
LINE
  5
221
330
17
100
AcDbEntity
  8
M-TABLE
100
AcDbLine
 10
126.0
 20
60.0
 30
0.0
 11
232.0
 21
60.0
 31
0.0
  0
LINE
  5
222
330
17
100
AcDbEntity
  8
M-TABLE
100
AcDbLine
 10
126.0
 20
60.0
 30
0.0
 11
126.0
 21
38.00000000000001
 31
0.0
  0
LINE
  5
223
330
17
100
AcDbEntity
  8
M-TABLE
100
AcDbLine
 10
168.0
 20
60.0
 30
0.0
 11
168.0
 21
38.00000000000001
 31
0.0
  0
LINE
  5
224
330
17
100
AcDbEntity
  8
M-TABLE
100
AcDbLine
 10
198.0
 20
60.0
 30
0.0
 11
198.0
 21
38.00000000000001
 31
0.0
  0
LINE
  5
225
330
17
100
AcDbEntity
  8
M-TABLE
100
AcDbLine
 10
232.0
 20
60.0
 30
0.0
 11
232.0
 21
38.00000000000001
 31
0.0
  0
TEXT
  5
226
330
17
100
AcDbEntity
  8
S-TITLE
100
AcDbText
 10
238.0
 20
55.5
 30
0.0
 40
2.5
  1
OPEN ITEMS
  7
OpenSans
 11
238.0
 21
55.5
 31
0.0
100
AcDbText
  0
TEXT
  5
227
330
17
100
AcDbEntity
  8
S-NOTE
100
AcDbText
 10
238.0
 20
51.375
 30
0.0
 40
2.0
  1
D1  no return period
  7
OpenSans
 11
238.0
 21
51.375
 31
0.0
100
AcDbText
  0
TEXT
  5
228
330
17
100
AcDbEntity
  8
S-NOTE
100
AcDbText
 10
238.0
 20
48.475
 30
0.0
 40
2.0
  1
    or IDF source
  7
OpenSans
 11
238.0
 21
48.475
 31
0.0
100
AcDbText
  0
TEXT
  5
229
330
17
100
AcDbEntity
  8
S-NOTE
100
AcDbText
 10
238.0
 20
45.575
 30
0.0
 40
2.0
  1
D3  no site plan, no
  7
OpenSans
 11
238.0
 21
45.575
 31
0.0
100
AcDbText
  0
TEXT
  5
22A
330
17
100
AcDbEntity
  8
S-NOTE
100
AcDbText
 10
238.0
 20
42.675000000000004
 30
0.0
 40
2.0
  1
    boundary, no outfall
  7
OpenSans
 11
238.0
 21
42.675000000000004
 31
0.0
100
AcDbText
  0
TEXT
  5
22B
330
17
100
AcDbEntity
  8
S-NOTE
100
AcDbText
 10
238.0
 20
39.775000000000006
 30
0.0
 40
2.0
  1
DR-C1  S-06 carries the
  7
OpenSans
 11
238.0
 21
39.775000000000006
 31
0.0
100
AcDbText
  0
TEXT
  5
22C
330
17
100
AcDbEntity
  8
S-NOTE
100
AcDbText
 10
238.0
 20
36.87500000000001
 30
0.0
 40
2.0
  1
    Rev E catchment
  7
OpenSans
 11
238.0
 21
36.87500000000001
 31
0.0
100
AcDbText
  0
TEXT
  5
22D
330
17
100
AcDbEntity
  8
S-NOTE
100
AcDbText
 10
238.0
 20
33.97500000000001
 30
0.0
 40
2.0
  1
DR-C2  soak pit 2.3 %
  7
OpenSans
 11
238.0
 21
33.97500000000001
 31
0.0
100
AcDbText
  0
TEXT
  5
22E
330
17
100
AcDbEntity
  8
S-NOTE
100
AcDbText
 10
238.0
 20
31.07500000000001
 30
0.0
 40
2.0
  1
    short - ruling needed
  7
OpenSans
 11
238.0
 21
31.07500000000001
 31
0.0
100
AcDbText
  0
LWPOLYLINE
  5
22F
330
17
100
AcDbEntity
  8
S-TITLE
100
AcDbPolyline
 90
4
 70
1
 10
236.0
 20
26.17500000000001
 10
285.0
 20
26.17500000000001
 10
285.0
 20
60.0
 10
236.0
 20
60.0
  0
TEXT
  5
230
330
17
100
AcDbEntity
  8
M-TITLE
100
AcDbText
 10
12.0
 20
192.0
 30
0.0
 40
4.2
  1
DRAINAGE  -  ABOVE GROUND AND ENTRY
  7
OpenSans
 11
12.0
 21
192.0
 31
0.0
100
AcDbText
  0
TEXT
  5
231
330
17
100
AcDbEntity
  8
M-TEXT
100
AcDbText
 10
12.0
 20
185.5
 30
0.0
 40
2.2
  1
RAINWATER  ·  SURFACE RUNOFF  ·  ENTRY THRESHOLD  ·  EXTERNAL DISPOSAL
  7
OpenSans
 11
12.0
 21
185.5
 31
0.0
100
AcDbText
  0
LINE
  5
232
330
17
100
AcDbEntity
  8
M-TITLE
100
AcDbLine
 10
8.0
 20
182.5
 30
0.0
 11
289.0
 21
182.5
 31
0.0
  0
TEXT
  5
233
330
17
100
AcDbEntity
  8
M-TITLE
100
AcDbText
 10
285.0
 20
192.0
 30
0.0
 40
3.0
  1
PAGE 1 OF 2
  7
OpenSans
 72
2
 11
285.0
 21
192.0
 31
0.0
100
AcDbText
  0
LINE
  5
234
330
17
100
AcDbEntity
  8
M-TITLE
100
AcDbLine
 10
8.0
 20
20.0
 30
0.0
 11
289.0
 21
20.0
 31
0.0
  0
TEXT
  5
235
330
17
100
AcDbEntity
  8
M-TITLE
100
AcDbText
 10
12.0
 20
14.5
 30
0.0
 40
2.2
  1
UNDERGROUND CBRN-HARDENED BLAST-RESISTANT PROTECTIVE STRUCTURE  -  PUNE
  7
OpenSans
 11
12.0
 21
14.5
 31
0.0
100
AcDbText
  0
TEXT
  5
236
330
17
100
AcDbEntity
  8
M-TEXT
100
AcDbText
 10
12.0
 20
10.5
 30
0.0
 40
2.0
  1
DRAINAGE PACKAGE  REV DR1   GEOMETRY REV F + M1   05.09.2026
  7
OpenSans
 11
12.0
 21
10.5
 31
0.0
100
AcDbText
  0
TEXT
  5
237
330
17
100
AcDbEntity
  8
M-FLAG
100
AcDbText
 10
285.0
 20
14.5
 30
0.0
 40
2.0
  1
SENTRY POST EXCLUDED   -   FOR REVIEW - NOT FOR CONSTRUCTION
  7
OpenSans
 72
2
 11
285.0
 21
14.5
 31
0.0
100
AcDbText
  0
TEXT
  5
238
330
17
100
AcDbEntity
  8
M-TEXT
100
AcDbText
 10
285.0
 20
10.5
 30
0.0
 40
2.0
  1
DEVELOPED FOR PROJECT COORDINATION - PENDING ENGINEERING VERIFICATION
  7
OpenSans
 72
2
 11
285.0
 21
10.5
 31
0.0
100
AcDbText
  0
ENDSEC
  0
SECTION
  2
OBJECTS
  0
DICTIONARY
  5
A
330
0
100
AcDbDictionary
281
1
  3
ACAD_COLOR
350
B
  3
ACAD_GROUP
350
C
  3
ACAD_LAYOUT
350
D
  3
ACAD_MATERIAL
350
E
  3
ACAD_MLEADERSTYLE
350
F
  3
ACAD_MLINESTYLE
350
10
  3
ACAD_PLOTSETTINGS
350
11
  3
ACAD_PLOTSTYLENAME
350
12
  3
ACAD_SCALELIST
350
14
  3
ACAD_TABLESTYLE
350
15
  3
ACAD_VISUALSTYLE
350
16
  3
EZDXF_META
350
2D
  0
DICTIONARY
  5
B
330
A
100
AcDbDictionary
281
1
  0
DICTIONARY
  5
C
330
A
100
AcDbDictionary
281
1
  0
DICTIONARY
  5
D
330
A
100
AcDbDictionary
281
1
  3
Model
350
1A
  3
Layout1
350
1E
  0
DICTIONARY
  5
E
330
A
100
AcDbDictionary
281
1
  3
ByBlock
350
1F
  3
ByLayer
350
20
  3
Global
350
21
  0
DICTIONARY
  5
F
330
A
100
AcDbDictionary
281
1
  3
Standard
350
2C
  0
DICTIONARY
  5
10
330
A
100
AcDbDictionary
281
1
  3
Standard
350
22
  0
DICTIONARY
  5
11
330
A
100
AcDbDictionary
281
1
  0
ACDBDICTIONARYWDFLT
  5
12
330
A
100
AcDbDictionary
281
1
  3
Normal
350
13
100
AcDbDictionaryWithDefault
340
13
  0
ACDBPLACEHOLDER
  5
13
330
12
  0
DICTIONARY
  5
14
330
A
100
AcDbDictionary
281
1
  0
DICTIONARY
  5
15
330
A
100
AcDbDictionary
281
1
  0
DICTIONARY
  5
16
330
A
100
AcDbDictionary
281
1
  3
2dWireframe
350
5A
  3
Basic
350
5B
  3
Brighten
350
5C
  3
ColorChange
350
5D
  3
Conceptual
350
5E
  3
Dim
350
5F
  3
EdgeColorOff
350
60
  3
Facepattern
350
61
  3
Flat
350
62
  3
FlatWithEdges
350
63
  3
Gouraud
350
64
  3
GouraudWithEdges
350
65
  3
Hidden
350
66
  3
JitterOff
350
67
  3
Linepattern
350
68
  3
Modeling
350
69
  3
OverhangOff
350
6A
  3
Realistic
350
6B
  3
Shaded
350
6C
  3
Shaded with edges
350
6D
  3
Shades of Gray
350
6E
  3
Sketchy
350
6F
  3
Thicken
350
70
  3
Wireframe
350
71
  3
X-Ray
350
72
  0
LAYOUT
  5
1A
330
D
100
AcDbPlotSettings
  1

  4
A3
  6

 40
7.5
 41
20.0
 42
7.5
 43
20.0
 44
420.0
 45
297.0
 46
0.0
 47
0.0
 48
0.0
 49
0.0
140
0.0
141
0.0
142
1.0
143
1.0
 70
1024
 72
1
 73
0
 74
5
  7

 75
16
 76
0
 77
2
 78
300
147
1.0
148
0.0
149
0.0
100
AcDbLayout
  1
Model
 70
1
 71
0
 10
0.0
 20
0.0
 11
420.0
 21
297.0
 12
0.0
 22
0.0
 32
0.0
 14
1e+20
 24
1e+20
 34
1e+20
 15
-1e+20
 25
-1e+20
 35
-1e+20
146
0.0
 13
0.0
 23
0.0
 33
0.0
 16
1.0
 26
0.0
 36
0.0
 17
0.0
 27
1.0
 37
0.0
 76
1
330
17
  0
LAYOUT
  5
1E
330
D
100
AcDbPlotSettings
  1

  4
A3
  6

 40
7.5
 41
20.0
 42
7.5
 43
20.0
 44
420.0
 45
297.0
 46
0.0
 47
0.0
 48
0.0
 49
0.0
140
0.0
141
0.0
142
1.0
143
1.0
 70
0
 72
1
 73
0
 74
5
  7

 75
16
 76
0
 77
2
 78
300
147
1.0
148
0.0
149
0.0
100
AcDbLayout
  1
Layout1
 70
1
 71
1
 10
0.0
 20
0.0
 11
420.0
 21
297.0
 12
0.0
 22
0.0
 32
0.0
 14
1e+20
 24
1e+20
 34
1e+20
 15
-1e+20
 25
-1e+20
 35
-1e+20
146
0.0
 13
0.0
 23
0.0
 33
0.0
 16
1.0
 26
0.0
 36
0.0
 17
0.0
 27
1.0
 37
0.0
 76
1
330
1B
  0
MATERIAL
  5
1F
102
{ACAD_REACTORS
330
E
102
}
330
E
100
AcDbMaterial
  1
ByBlock
  2

 70
0
 40
1.0
 71
1
 41
1.0
 91
-1023410177
 42
1.0
 72
1
  3

 73
1
 74
1
 75
1
 44
0.5
 73
0
 45
1.0
 46
1.0
 77
1
  4

 78
1
 79
1
170
1
 48
1.0
171
1
  6

172
1
173
1
174
1
140
1.0
141
1.0
175
1
  7

176
1
177
1
178
1
143
1.0
179
1
  8

270
1
271
1
272
1
145
1.0
146
1.0
273
1
  9

274
1
275
1
276
1
 42
1.0
 72
1
  3

 73
1
 74
1
 75
1
 94
63
  0
MATERIAL
  5
20
102
{ACAD_REACTORS
330
E
102
}
330
E
100
AcDbMaterial
  1
ByLayer
  2

 70
0
 40
1.0
 71
1
 41
1.0
 91
-1023410177
 42
1.0
 72
1
  3

 73
1
 74
1
 75
1
 44
0.5
 73
0
 45
1.0
 46
1.0
 77
1
  4

 78
1
 79
1
170
1
 48
1.0
171
1
  6

172
1
173
1
174
1
140
1.0
141
1.0
175
1
  7

176
1
177
1
178
1
143
1.0
179
1
  8

270
1
271
1
272
1
145
1.0
146
1.0
273
1
  9

274
1
275
1
276
1
 42
1.0
 72
1
  3

 73
1
 74
1
 75
1
 94
63
  0
MATERIAL
  5
21
102
{ACAD_REACTORS
330
E
102
}
330
E
100
AcDbMaterial
  1
Global
  2

 70
0
 40
1.0
 71
1
 41
1.0
 91
-1023410177
 42
1.0
 72
1
  3

 73
1
 74
1
 75
1
 44
0.5
 73
0
 45
1.0
 46
1.0
 77
1
  4

 78
1
 79
1
170
1
 48
1.0
171
1
  6

172
1
173
1
174
1
140
1.0
141
1.0
175
1
  7

176
1
177
1
178
1
143
1.0
179
1
  8

270
1
271
1
272
1
145
1.0
146
1.0
273
1
  9

274
1
275
1
276
1
 42
1.0
 72
1
  3

 73
1
 74
1
 75
1
 94
63
  0
MLINESTYLE
  5
22
102
{ACAD_REACTORS
330
10
102
}
330
10
100
AcDbMlineStyle
  2
Standard
 70
0
  3

 62
256
 51
90.0
 52
90.0
 71
2
 49
0.5
 62
256
  6
BYLAYER
 49
-0.5
 62
256
  6
BYLAYER
  0
MLEADERSTYLE
  5
2C
102
{ACAD_REACTORS
330
F
102
}
330
F
100
AcDbMLeaderStyle
179
2
170
2
171
1
172
0
 90
2
 40
0.0
 41
0.0
173
1
 91
-1056964608
 92
-2
290
1
 42
2.0
291
1
 43
8.0
  3
Standard
 44
4.0
300

342
29
174
1
175
1
176
0
178
1
 93
-1056964608
 45
4.0
292
0
297
0
 46
4.0
 94
-1056964608
 47
1.0
 49
1.0
140
1.0
294
1
141
0.0
177
0
142
1.0
295
0
296
0
143
3.75
271
0
272
9
273
9
  0
DICTIONARY
  5
2D
330
A
100
AcDbDictionary
280
1
281
1
  3
CREATED_BY_EZDXF
350
2E
  3
WRITTEN_BY_EZDXF
350
23B
  0
DICTIONARYVAR
  5
2E
330
2D
100
DictionaryVariables
280
0
  1
1.4.4 @ 2026-09-09T16:44:13.408796+00:00
  0
VISUALSTYLE
  5
5A
102
{ACAD_REACTORS
330
16
102
}
330
16
100
AcDbVisualStyle
  2
2dWireframe
 70
4
 90
0
 40
0.6
 62
7
290
0
291
0
  0
VISUALSTYLE
  5
5B
102
{ACAD_REACTORS
330
16
102
}
330
16
100
AcDbVisualStyle
  2
Basic
 70
7
 90
1
 40
0.6
 62
7
290
0
291
1
  0
VISUALSTYLE
  5
5C
102
{ACAD_REACTORS
330
16
102
}
330
16
100
AcDbVisualStyle
  2
Brighten
 70
12
 90
2
 40
0.6
 62
7
290
0
291
1
  0
VISUALSTYLE
  5
5D
102
{ACAD_REACTORS
330
16
102
}
330
16
100
AcDbVisualStyle
  2
ColorChange
 70
16
 90
2
 40
0.6
 62
8
290
0
291
1
  0
VISUALSTYLE
  5
5E
102
{ACAD_REACTORS
330
16
102
}
330
16
100
AcDbVisualStyle
  2
Conceptual
 70
9
 90
3
 40
0.6
 62
7
290
0
291
0
  0
VISUALSTYLE
  5
5F
102
{ACAD_REACTORS
330
16
102
}
330
16
100
AcDbVisualStyle
  2
Dim
 70
11
 90
2
 40
0.6
 62
7
290
0
291
1
  0
VISUALSTYLE
  5
60
102
{ACAD_REACTORS
330
16
102
}
330
16
100
AcDbVisualStyle
  2
EdgeColorOff
 70
22
 90
2
 40
0.6
 62
7
290
0
291
1
  0
VISUALSTYLE
  5
61
102
{ACAD_REACTORS
330
16
102
}
330
16
100
AcDbVisualStyle
  2
Facepattern
 70
15
 90
2
 40
0.6
 62
7
290
0
291
1
  0
VISUALSTYLE
  5
62
102
{ACAD_REACTORS
330
16
102
}
330
16
100
AcDbVisualStyle
  2
Flat
 70
0
 90
2
 40
0.6
 62
7
290
0
291
1
  0
VISUALSTYLE
  5
63
102
{ACAD_REACTORS
330
16
102
}
330
16
100
AcDbVisualStyle
  2
FlatWithEdges
 70
1
 90
2
 40
0.6
 62
7
290
0
291
1
  0
VISUALSTYLE
  5
64
102
{ACAD_REACTORS
330
16
102
}
330
16
100
AcDbVisualStyle
  2
Gouraud
 70
2
 90
2
 40
0.6
 62
7
290
0
291
1
  0
VISUALSTYLE
  5
65
102
{ACAD_REACTORS
330
16
102
}
330
16
100
AcDbVisualStyle
  2
GouraudWithEdges
 70
3
 90
2
 40
0.6
 62
7
290
0
291
1
  0
VISUALSTYLE
  5
66
102
{ACAD_REACTORS
330
16
102
}
330
16
100
AcDbVisualStyle
  2
Hidden
 70
6
 90
1
 40
0.6
 62
7
290
0
291
0
  0
VISUALSTYLE
  5
67
102
{ACAD_REACTORS
330
16
102
}
330
16
100
AcDbVisualStyle
  2
JitterOff
 70
20
 90
2
 40
0.6
 62
7
290
0
291
1
  0
VISUALSTYLE
  5
68
102
{ACAD_REACTORS
330
16
102
}
330
16
100
AcDbVisualStyle
  2
Linepattern
 70
14
 90
2
 40
0.6
 62
7
290
0
291
1
  0
VISUALSTYLE
  5
69
102
{ACAD_REACTORS
330
16
102
}
330
16
100
AcDbVisualStyle
  2
Modeling
 70
10
 90
2
 40
0.6
 62
7
290
0
291
0
  0
VISUALSTYLE
  5
6A
102
{ACAD_REACTORS
330
16
102
}
330
16
100
AcDbVisualStyle
  2
OverhangOff
 70
21
 90
2
 40
0.6
 62
7
290
0
291
1
  0
VISUALSTYLE
  5
6B
102
{ACAD_REACTORS
330
16
102
}
330
16
100
AcDbVisualStyle
  2
Realistic
 70
8
 90
2
 40
0.6
 62
7
290
0
291
0
  0
VISUALSTYLE
  5
6C
102
{ACAD_REACTORS
330
16
102
}
330
16
100
AcDbVisualStyle
  2
Shaded
 70
27
 90
2
 40
0.6
 62
7
290
0
291
0
  0
VISUALSTYLE
  5
6D
102
{ACAD_REACTORS
330
16
102
}
330
16
100
AcDbVisualStyle
  2
Shaded with edges
 70
26
 90
2
 40
0.6
 62
7
290
0
291
0
  0
VISUALSTYLE
  5
6E
102
{ACAD_REACTORS
330
16
102
}
330
16
100
AcDbVisualStyle
  2
Shades of Gray
 70
23
 90
2
 40
0.6
 62
7
290
0
291
0
  0
VISUALSTYLE
  5
6F
102
{ACAD_REACTORS
330
16
102
}
330
16
100
AcDbVisualStyle
  2
Sketchy
 70
24
 90
1
 40
0.6
 62
7
290
0
291
0
  0
VISUALSTYLE
  5
70
102
{ACAD_REACTORS
330
16
102
}
330
16
100
AcDbVisualStyle
  2
Thicken
 70
13
 90
2
 40
0.6
 62
7
290
0
291
1
  0
VISUALSTYLE
  5
71
102
{ACAD_REACTORS
330
16
102
}
330
16
100
AcDbVisualStyle
  2
Wireframe
 70
5
 90
0
 40
0.6
 62
7
290
0
291
0
  0
VISUALSTYLE
  5
72
102
{ACAD_REACTORS
330
16
102
}
330
16
100
AcDbVisualStyle
  2
X-Ray
 70
25
 90
2
 40
0.5
 62
7
290
0
291
0
  0
DICTIONARYVAR
  5
23B
330
2D
100
DictionaryVariables
280
0
  1
1.4.4 @ 2026-09-09T16:44:13.447673+00:00
  0
ENDSEC
  0
EOF
