  0
SECTION
  2
HEADER
  9
$ACADVER
  1
AC1024
  9
$ACADMAINTVER
 70
6
  9
$DWGCODEPAGE
  3
ANSI_1252
  9
$LASTSAVEDBY
  1
ezdxf
  9
$INSBASE
 10
0.0
 20
0.0
 30
0.0
  9
$EXTMIN
 10
1e+20
 20
1e+20
 30
1e+20
  9
$EXTMAX
 10
-1e+20
 20
-1e+20
 30
-1e+20
  9
$LIMMIN
 10
0.0
 20
0.0
  9
$LIMMAX
 10
420.0
 20
297.0
  9
$ORTHOMODE
 70
0
  9
$REGENMODE
 70
1
  9
$FILLMODE
 70
1
  9
$QTEXTMODE
 70
0
  9
$MIRRTEXT
 70
1
  9
$LTSCALE
 40
1.0
  9
$ATTMODE
 70
1
  9
$TEXTSIZE
 40
2.5
  9
$TRACEWID
 40
1.0
  9
$TEXTSTYLE
  7
OpenSans
  9
$CLAYER
  8
0
  9
$CELTYPE
  6
ByLayer
  9
$CECOLOR
 62
256
  9
$CELTSCALE
 40
1.0
  9
$DISPSILH
 70
0
  9
$DIMSCALE
 40
1.0
  9
$DIMASZ
 40
0.175
  9
$DIMEXO
 40
0.125
  9
$DIMDLI
 40
3.75
  9
$DIMRND
 40
0.0
  9
$DIMDLE
 40
0.0
  9
$DIMEXE
 40
0.375
  9
$DIMTP
 40
0.0
  9
$DIMTM
 40
0.0
  9
$DIMTXT
 40
0.25
  9
$DIMCEN
 40
2.5
  9
$DIMTSZ
 40
0.0
  9
$DIMTOL
 70
0
  9
$DIMLIM
 70
0
  9
$DIMTIH
 70
0
  9
$DIMTOH
 70
0
  9
$DIMSE1
 70
0
  9
$DIMSE2
 70
0
  9
$DIMTAD
 70
1
  9
$DIMZIN
 70
12
  9
$DIMBLK
  1
ARCHTICK
  9
$DIMASO
 70
1
  9
$DIMSHO
 70
1
  9
$DIMPOST
  1

  9
$DIMAPOST
  1

  9
$DIMALT
 70
0
  9
$DIMALTD
 70
3
  9
$DIMALTF
 40
0.03937007874
  9
$DIMLFAC
 40
100.0
  9
$DIMTOFL
 70
1
  9
$DIMTVP
 40
0.0
  9
$DIMTIX
 70
0
  9
$DIMSOXD
 70
0
  9
$DIMSAH
 70
0
  9
$DIMBLK1
  1

  9
$DIMBLK2
  1

  9
$DIMSTYLE
  2
EZDXF
  9
$DIMCLRD
 70
0
  9
$DIMCLRE
 70
0
  9
$DIMCLRT
 70
0
  9
$DIMTFAC
 40
0.5
  9
$DIMGAP
 40
0.1
  9
$DIMJUST
 70
0
  9
$DIMSD1
 70
0
  9
$DIMSD2
 70
0
  9
$DIMTOLJ
 70
0
  9
$DIMTZIN
 70
8
  9
$DIMALTZ
 70
0
  9
$DIMALTTZ
 70
0
  9
$DIMUPT
 70
1
  9
$DIMDEC
 70
2
  9
$DIMTDEC
 70
2
  9
$DIMALTU
 70
2
  9
$DIMALTTD
 70
3
  9
$DIMTXSTY
  7
OpenSansCondensed-Light
  9
$DIMAUNIT
 70
0
  9
$DIMADEC
 70
2
  9
$DIMALTRND
 40
0.0
  9
$DIMAZIN
 70
3
  9
$DIMDSEP
 70
46
  9
$DIMATFIT
 70
3
  9
$DIMFRAC
 70
0
  9
$DIMLDRBLK
  1

  9
$DIMLUNIT
 70
2
  9
$DIMLWD
 70
-2
  9
$DIMLWE
 70
-2
  9
$DIMTMOVE
 70
2
  9
$DIMFXL
 40
1.0
  9
$DIMFXLON
 70
0
  9
$DIMJOGANG
 40
0.785398163397
  9
$DIMTFILL
 70
0
  9
$DIMTFILLCLR
 70
0
  9
$DIMARCSYM
 70
0
  9
$DIMLTYPE
  6

  9
$DIMLTEX1
  6

  9
$DIMLTEX2
  6

  9
$DIMTXTDIRECTION
 70
0
  9
$LUNITS
 70
2
  9
$LUPREC
 70
4
  9
$SKETCHINC
 40
1.0
  9
$FILLETRAD
 40
10.0
  9
$AUNITS
 70
0
  9
$AUPREC
 70
2
  9
$MENU
  1
.
  9
$ELEVATION
 40
0.0
  9
$PELEVATION
 40
0.0
  9
$THICKNESS
 40
0.0
  9
$LIMCHECK
 70
0
  9
$CHAMFERA
 40
0.0
  9
$CHAMFERB
 40
0.0
  9
$CHAMFERC
 40
0.0
  9
$CHAMFERD
 40
0.0
  9
$SKPOLY
 70
0
  9
$TDCREATE
 40
2461293.710949074
  9
$TDUCREATE
 40
2458532.153996898
  9
$TDUPDATE
 40
2461293.710949074
  9
$TDUUPDATE
 40
2458532.1544311
  9
$TDINDWG
 40
0.0
  9
$TDUSRTIMER
 40
0.0
  9
$USRTIMER
 70
1
  9
$ANGBASE
 50
0.0
  9
$ANGDIR
 70
0
  9
$PDMODE
 70
0
  9
$PDSIZE
 40
0.0
  9
$PLINEWID
 40
0.0
  9
$SPLFRAME
 70
0
  9
$SPLINETYPE
 70
6
  9
$SPLINESEGS
 70
8
  9
$HANDSEED
  5
2DC
  9
$SURFTAB1
 70
6
  9
$SURFTAB2
 70
6
  9
$SURFTYPE
 70
6
  9
$SURFU
 70
6
  9
$SURFV
 70
6
  9
$UCSBASE
  2

  9
$UCSNAME
  2

  9
$UCSORG
 10
0.0
 20
0.0
 30
0.0
  9
$UCSXDIR
 10
1.0
 20
0.0
 30
0.0
  9
$UCSYDIR
 10
0.0
 20
1.0
 30
0.0
  9
$UCSORTHOREF
  2

  9
$UCSORTHOVIEW
 70
0
  9
$UCSORGTOP
 10
0.0
 20
0.0
 30
0.0
  9
$UCSORGBOTTOM
 10
0.0
 20
0.0
 30
0.0
  9
$UCSORGLEFT
 10
0.0
 20
0.0
 30
0.0
  9
$UCSORGRIGHT
 10
0.0
 20
0.0
 30
0.0
  9
$UCSORGFRONT
 10
0.0
 20
0.0
 30
0.0
  9
$UCSORGBACK
 10
0.0
 20
0.0
 30
0.0
  9
$PUCSBASE
  2

  9
$PUCSNAME
  2

  9
$PUCSORG
 10
0.0
 20
0.0
 30
0.0
  9
$PUCSXDIR
 10
1.0
 20
0.0
 30
0.0
  9
$PUCSYDIR
 10
0.0
 20
1.0
 30
0.0
  9
$PUCSORTHOREF
  2

  9
$PUCSORTHOVIEW
 70
0
  9
$PUCSORGTOP
 10
0.0
 20
0.0
 30
0.0
  9
$PUCSORGBOTTOM
 10
0.0
 20
0.0
 30
0.0
  9
$PUCSORGLEFT
 10
0.0
 20
0.0
 30
0.0
  9
$PUCSORGRIGHT
 10
0.0
 20
0.0
 30
0.0
  9
$PUCSORGFRONT
 10
0.0
 20
0.0
 30
0.0
  9
$PUCSORGBACK
 10
0.0
 20
0.0
 30
0.0
  9
$USERI1
 70
0
  9
$USERI2
 70
0
  9
$USERI3
 70
0
  9
$USERI4
 70
0
  9
$USERI5
 70
0
  9
$USERR1
 40
0.0
  9
$USERR2
 40
0.0
  9
$USERR3
 40
0.0
  9
$USERR4
 40
0.0
  9
$USERR5
 40
0.0
  9
$WORLDVIEW
 70
1
  9
$SHADEDGE
 70
3
  9
$SHADEDIF
 70
70
  9
$TILEMODE
 70
1
  9
$MAXACTVP
 70
64
  9
$PINSBASE
 10
0.0
 20
0.0
 30
0.0
  9
$PLIMCHECK
 70
0
  9
$PEXTMIN
 10
1e+20
 20
1e+20
 30
1e+20
  9
$PEXTMAX
 10
-1e+20
 20
-1e+20
 30
-1e+20
  9
$PLIMMIN
 10
0.0
 20
0.0
  9
$PLIMMAX
 10
420.0
 20
297.0
  9
$UNITMODE
 70
0
  9
$VISRETAIN
 70
1
  9
$PLINEGEN
 70
0
  9
$PSLTSCALE
 70
1
  9
$TREEDEPTH
 70
3020
  9
$CMLSTYLE
  2
Standard
  9
$CMLJUST
 70
0
  9
$CMLSCALE
 40
20.0
  9
$PROXYGRAPHICS
 70
1
  9
$MEASUREMENT
 70
1
  9
$CELWEIGHT
370
-1
  9
$ENDCAPS
280
0
  9
$JOINSTYLE
280
0
  9
$LWDISPLAY
290
0
  9
$INSUNITS
 70
4
  9
$HYPERLINKBASE
  1

  9
$STYLESHEET
  1

  9
$XEDIT
290
1
  9
$CEPSNTYPE
380
0
  9
$PSTYLEMODE
290
1
  9
$FINGERPRINTGUID
  2
{92BA087E-BBF5-4D77-96F7-FCE60FAE3187}
  9
$VERSIONGUID
  2
{46AD5F3A-03E0-415D-AE7B-614A4E485EC8}
  9
$EXTNAMES
290
1
  9
$PSVPSCALE
 40
0.0
  9
$OLESTARTUP
290
0
  9
$SORTENTS
280
127
  9
$INDEXCTL
280
0
  9
$HIDETEXT
280
1
  9
$XCLIPFRAME
280
1
  9
$HALOGAP
280
0
  9
$OBSCOLOR
 70
257
  9
$OBSLTYPE
280
0
  9
$INTERSECTIONDISPLAY
280
0
  9
$INTERSECTIONCOLOR
 70
257
  9
$DIMASSOC
280
2
  9
$PROJECTNAME
  1

  9
$CAMERADISPLAY
290
0
  9
$LENSLENGTH
 40
50.0
  9
$CAMERAHEIGHT
 40
0.0
  9
$STEPSPERSEC
 40
24.0
  9
$STEPSIZE
 40
100.0
  9
$3DDWFPREC
 40
2.0
  9
$PSOLWIDTH
 40
0.005
  9
$PSOLHEIGHT
 40
0.08
  9
$LOFTANG1
 40
1.570796326795
  9
$LOFTANG2
 40
1.570796326795
  9
$LOFTMAG1
 40
0.0
  9
$LOFTMAG2
 40
0.0
  9
$LOFTPARAM
 70
7
  9
$LOFTNORMALS
280
1
  9
$LATITUDE
 40
37.795
  9
$LONGITUDE
 40
-122.394
  9
$NORTHDIRECTION
 40
0.0
  9
$TIMEZONE
 70
-8000
  9
$LIGHTGLYPHDISPLAY
280
1
  9
$TILEMODELIGHTSYNCH
280
1
  9
$CMATERIAL
347
20
  9
$SOLIDHIST
280
0
  9
$SHOWHIST
280
1
  9
$DWFFRAME
280
2
  9
$DGNFRAME
280
2
  9
$REALWORLDSCALE
290
1
  9
$INTERFERECOLOR
 62
256
  9
$CSHADOW
280
0
  9
$SHADOWPLANELOCATION
 40
0.0
  0
ENDSEC
  0
SECTION
  2
CLASSES
  0
CLASS
  1
ACDBDICTIONARYWDFLT
  2
AcDbDictionaryWithDefault
  3
ObjectDBX Classes
 90
0
 91
0
280
0
281
0
  0
CLASS
  1
SUN
  2
AcDbSun
  3
SCENEOE
 90
1153
 91
0
280
0
281
0
  0
CLASS
  1
VISUALSTYLE
  2
AcDbVisualStyle
  3
ObjectDBX Classes
 90
4095
 91
0
280
0
281
0
  0
CLASS
  1
MATERIAL
  2
AcDbMaterial
  3
ObjectDBX Classes
 90
1153
 91
0
280
0
281
0
  0
CLASS
  1
SCALE
  2
AcDbScale
  3
ObjectDBX Classes
 90
1153
 91
0
280
0
281
0
  0
CLASS
  1
TABLESTYLE
  2
AcDbTableStyle
  3
ObjectDBX Classes
 90
4095
 91
0
280
0
281
0
  0
CLASS
  1
MLEADERSTYLE
  2
AcDbMLeaderStyle
  3
ACDB_MLEADERSTYLE_CLASS
 90
4095
 91
0
280
0
281
0
  0
CLASS
  1
DICTIONARYVAR
  2
AcDbDictionaryVar
  3
ObjectDBX Classes
 90
0
 91
0
280
0
281
0
  0
CLASS
  1
CELLSTYLEMAP
  2
AcDbCellStyleMap
  3
ObjectDBX Classes
 90
1152
 91
0
280
0
281
0
  0
CLASS
  1
MENTALRAYRENDERSETTINGS
  2
AcDbMentalRayRenderSettings
  3
SCENEOE
 90
1024
 91
0
280
0
281
0
  0
CLASS
  1
ACDBDETAILVIEWSTYLE
  2
AcDbDetailViewStyle
  3
ObjectDBX Classes
 90
1025
 91
0
280
0
281
0
  0
CLASS
  1
ACDBSECTIONVIEWSTYLE
  2
AcDbSectionViewStyle
  3
ObjectDBX Classes
 90
1025
 91
0
280
0
281
0
  0
CLASS
  1
RASTERVARIABLES
  2
AcDbRasterVariables
  3
ISM
 90
0
 91
0
280
0
281
0
  0
CLASS
  1
LAYOUT
  2
AcDbLayout
  3
ObjectDBX Classes
 90
0
 91
0
280
0
281
0
  0
CLASS
  1
ACDBPLACEHOLDER
  2
AcDbPlaceHolder
  3
ObjectDBX Classes
 90
0
 91
0
280
0
281
0
  0
ENDSEC
  0
SECTION
  2
TABLES
  0
TABLE
  2
VPORT
  5
8
330
0
100
AcDbSymbolTable
 70
1
  0
VPORT
  5
23
330
8
100
AcDbSymbolTableRecord
100
AcDbViewportTableRecord
  2
*Active
 70
0
 10
0.0
 20
0.0
 11
1.0
 21
1.0
 12
0.0
 22
0.0
 13
0.0
 23
0.0
 14
0.5
 24
0.5
 15
0.5
 25
0.5
 16
0.0
 26
0.0
 36
1.0
 17
0.0
 27
0.0
 37
0.0
 40
1000.0
 41
1.34
 42
50.0
 43
0.0
 44
0.0
 50
0.0
 51
0.0
 71
0
 72
1000
 73
1
 74
3
 75
0
 76
0
 77
0
 78
0
281
0
 65
0
146
0.0
  0
ENDTAB
  0
TABLE
  2
LTYPE
  5
2
330
0
100
AcDbSymbolTable
 70
21
  0
LTYPE
  5
24
330
2
100
AcDbSymbolTableRecord
100
AcDbLinetypeTableRecord
  2
ByBlock
 70
0
  3

 72
65
 73
0
 40
0.0
  0
LTYPE
  5
25
330
2
100
AcDbSymbolTableRecord
100
AcDbLinetypeTableRecord
  2
ByLayer
 70
0
  3

 72
65
 73
0
 40
0.0
  0
LTYPE
  5
26
330
2
100
AcDbSymbolTableRecord
100
AcDbLinetypeTableRecord
  2
Continuous
 70
0
  3

 72
65
 73
0
 40
0.0
  0
LTYPE
  5
2F
330
2
100
AcDbSymbolTableRecord
100
AcDbLinetypeTableRecord
  2
CENTER
 70
0
  3
Center ____ _ ____ _ ____ _ ____ _ ____ _ ____
 72
65
 73
4
 40
5.08
 49
3.175
 74
0
 49
-0.635
 74
0
 49
0.635
 74
0
 49
-0.635
 74
0
  0
LTYPE
  5
30
330
2
100
AcDbSymbolTableRecord
100
AcDbLinetypeTableRecord
  2
CENTERX2
 70
0
  3
Center (2x) ________  __  ________  __  ________
 72
65
 73
4
 40
8.89
 49
6.35
 74
0
 49
-0.635
 74
0
 49
1.27
 74
0
 49
-0.635
 74
0
  0
LTYPE
  5
31
330
2
100
AcDbSymbolTableRecord
100
AcDbLinetypeTableRecord
  2
CENTER2
 70
0
  3
Center (.5x) ____ _ ____ _ ____ _ ____ _ ____
 72
65
 73
4
 40
2.54
 49
1.587
 74
0
 49
-0.318
 74
0
 49
0.318
 74
0
 49
-0.318
 74
0
  0
LTYPE
  5
32
330
2
100
AcDbSymbolTableRecord
100
AcDbLinetypeTableRecord
  2
DASHED
 70
0
  3
Dashed __ __ __ __ __ __ __ __ __ __ __ __ __ _
 72
65
 73
2
 40
1.524
 49
1.27
 74
0
 49
-0.254
 74
0
  0
LTYPE
  5
33
330
2
100
AcDbSymbolTableRecord
100
AcDbLinetypeTableRecord
  2
DASHEDX2
 70
0
  3
Dashed (2x) ____  ____  ____  ____  ____  ____
 72
65
 73
2
 40
3.048
 49
2.54
 74
0
 49
-0.508
 74
0
  0
LTYPE
  5
34
330
2
100
AcDbSymbolTableRecord
100
AcDbLinetypeTableRecord
  2
DASHED2
 70
0
  3
Dashed (.5x) _ _ _ _ _ _ _ _ _ _ _ _ _ _
 72
65
 73
2
 40
0.762
 49
0.635
 74
0
 49
-0.127
 74
0
  0
LTYPE
  5
35
330
2
100
AcDbSymbolTableRecord
100
AcDbLinetypeTableRecord
  2
PHANTOM
 70
0
  3
Phantom ______  __  __  ______  __  __  ______
 72
65
 73
6
 40
6.35
 49
3.175
 74
0
 49
-0.635
 74
0
 49
0.635
 74
0
 49
-0.635
 74
0
 49
0.635
 74
0
 49
-0.635
 74
0
  0
LTYPE
  5
36
330
2
100
AcDbSymbolTableRecord
100
AcDbLinetypeTableRecord
  2
PHANTOMX2
 70
0
  3
Phantom (2x)____________    ____    ____    ____________
 72
65
 73
6
 40
10.795
 49
6.35
 74
0
 49
-0.635
 74
0
 49
1.27
 74
0
 49
-0.635
 74
0
 49
1.27
 74
0
 49
-0.635
 74
0
  0
LTYPE
  5
37
330
2
100
AcDbSymbolTableRecord
100
AcDbLinetypeTableRecord
  2
PHANTOM2
 70
0
  3
Phantom (.5x) ___ _ _ ___ _ _ ___ _ _ ___ _ _ ___
 72
65
 73
6
 40
3.175
 49
1.587
 74
0
 49
-0.318
 74
0
 49
0.318
 74
0
 49
-0.318
 74
0
 49
0.318
 74
0
 49
-0.318
 74
0
  0
LTYPE
  5
38
330
2
100
AcDbSymbolTableRecord
100
AcDbLinetypeTableRecord
  2
DASHDOT
 70
0
  3
Dash dot __ . __ . __ . __ . __ . __ . __ . __
 72
65
 73
4
 40
3.556
 49
2.54
 74
0
 49
-0.508
 74
0
 49
0.0
 74
0
 49
-0.508
 74
0
  0
LTYPE
  5
39
330
2
100
AcDbSymbolTableRecord
100
AcDbLinetypeTableRecord
  2
DASHDOTX2
 70
0
  3
Dash dot (2x) ____  .  ____  .  ____  .  ____
 72
65
 73
4
 40
6.096
 49
5.08
 74
0
 49
-0.508
 74
0
 49
0.0
 74
0
 49
-0.508
 74
0
  0
LTYPE
  5
3A
330
2
100
AcDbSymbolTableRecord
100
AcDbLinetypeTableRecord
  2
DASHDOT2
 70
0
  3
Dash dot (.5x) _ . _ . _ . _ . _ . _ . _ . _
 72
65
 73
4
 40
1.778
 49
1.27
 74
0
 49
-0.254
 74
0
 49
0.0
 74
0
 49
-0.254
 74
0
  0
LTYPE
  5
3B
330
2
100
AcDbSymbolTableRecord
100
AcDbLinetypeTableRecord
  2
DOT
 70
0
  3
Dot .  .  .  .  .  .  .  .  .  .  .  .  .  .  .  .
 72
65
 73
2
 40
0.508
 49
0.0
 74
0
 49
-0.508
 74
0
  0
LTYPE
  5
3C
330
2
100
AcDbSymbolTableRecord
100
AcDbLinetypeTableRecord
  2
DOTX2
 70
0
  3
Dot (2x) .    .    .    .    .    .    .    . 
 72
65
 73
2
 40
1.016
 49
0.0
 74
0
 49
-1.016
 74
0
  0
LTYPE
  5
3D
330
2
100
AcDbSymbolTableRecord
100
AcDbLinetypeTableRecord
  2
DOT2
 70
0
  3
Dot (.5) . . . . . . . . . . . . . . . . . . . 
 72
65
 73
2
 40
0.254
 49
0.0
 74
0
 49
-0.254
 74
0
  0
LTYPE
  5
3E
330
2
100
AcDbSymbolTableRecord
100
AcDbLinetypeTableRecord
  2
DIVIDE
 70
0
  3
Divide __ . . __ . . __ . . __ . . __ . . __
 72
65
 73
6
 40
4.064
 49
2.54
 74
0
 49
-0.508
 74
0
 49
0.0
 74
0
 49
-0.508
 74
0
 49
0.0
 74
0
 49
-0.508
 74
0
  0
LTYPE
  5
3F
330
2
100
AcDbSymbolTableRecord
100
AcDbLinetypeTableRecord
  2
DIVIDEX2
 70
0
  3
Divide (2x) ____  . .  ____  . .  ____  . .  ____
 72
65
 73
6
 40
6.604
 49
5.08
 74
0
 49
-0.508
 74
0
 49
0.0
 74
0
 49
-0.508
 74
0
 49
0.0
 74
0
 49
-0.508
 74
0
  0
LTYPE
  5
40
330
2
100
AcDbSymbolTableRecord
100
AcDbLinetypeTableRecord
  2
DIVIDE2
 70
0
  3
Divide(.5x) _ . _ . _ . _ . _ . _ . _ . _
 72
65
 73
6
 40
2.032
 49
1.27
 74
0
 49
-0.254
 74
0
 49
0.0
 74
0
 49
-0.254
 74
0
 49
0.0
 74
0
 49
-0.254
 74
0
  0
ENDTAB
  0
TABLE
  2
LAYER
  5
1
330
0
100
AcDbSymbolTable
 70
26
  0
LAYER
  5
27
330
1
100
AcDbSymbolTableRecord
100
AcDbLayerTableRecord
  2
0
 70
0
 62
7
  6
Continuous
370
-3
390
13
347
21
  0
LAYER
  5
28
330
1
100
AcDbSymbolTableRecord
100
AcDbLayerTableRecord
  2
Defpoints
 70
0
 62
7
  6
Continuous
290
0
370
-3
390
13
347
21
  0
LAYER
  5
8A
330
1
100
AcDbSymbolTableRecord
100
AcDbLayerTableRecord
  2
S-CONCRETE
 70
0
 62
7
  6
Continuous
370
-3
390
13
347
21
1001
AcAecLayerStandard
1000

1000
Structural concrete outlines (cut)
  0
LAYER
  5
8C
330
1
100
AcDbSymbolTableRecord
100
AcDbLayerTableRecord
  2
S-CONCRETE-THIN
 70
0
 62
7
  6
Continuous
370
-3
390
13
347
21
1001
AcAecLayerStandard
1000

1000
Concrete beyond the cut plane
  0
LAYER
  5
8D
330
1
100
AcDbSymbolTableRecord
100
AcDbLayerTableRecord
  2
S-HIDDEN
 70
0
 62
8
  6
Continuous
370
-3
390
13
347
21
1001
AcAecLayerStandard
1000

1000
Concrete / features beyond, hidden
  0
LAYER
  5
8E
330
1
100
AcDbSymbolTableRecord
100
AcDbLayerTableRecord
  2
S-REBAR-MAIN
 70
0
 62
1
  6
Continuous
370
-3
390
13
347
21
1001
AcAecLayerStandard
1000

1000
Main reinforcement
  0
LAYER
  5
8F
330
1
100
AcDbSymbolTableRecord
100
AcDbLayerTableRecord
  2
S-REBAR-DIST
 70
0
 62
3
  6
Continuous
370
-3
390
13
347
21
1001
AcAecLayerStandard
1000

1000
Distribution reinforcement
  0
LAYER
  5
90
330
1
100
AcDbSymbolTableRecord
100
AcDbLayerTableRecord
  2
S-REBAR-STIRRUP
 70
0
 62
6
  6
Continuous
370
-3
390
13
347
21
1001
AcAecLayerStandard
1000

1000
Links and stirrups
  0
LAYER
  5
91
330
1
100
AcDbSymbolTableRecord
100
AcDbLayerTableRecord
  2
S-REBAR-TIE
 70
0
 62
6
  6
Continuous
370
-3
390
13
347
21
1001
AcAecLayerStandard
1000

1000
Ties, cross-ties, starters
  0
LAYER
  5
92
330
1
100
AcDbSymbolTableRecord
100
AcDbLayerTableRecord
  2
S-REBAR-SEC
 70
0
 62
4
  6
Continuous
370
-3
390
13
347
21
1001
AcAecLayerStandard
1000

1000
Trimmers, secondary and additional bars
  0
LAYER
  5
93
330
1
100
AcDbSymbolTableRecord
100
AcDbLayerTableRecord
  2
S-DIM
 70
0
 62
4
  6
Continuous
370
-3
390
13
347
21
1001
AcAecLayerStandard
1000

1000
Dimensions
  0
LAYER
  5
94
330
1
100
AcDbSymbolTableRecord
100
AcDbLayerTableRecord
  2
S-TEXT
 70
0
 62
7
  6
Continuous
370
-3
390
13
347
21
1001
AcAecLayerStandard
1000

1000
General annotation
  0
LAYER
  5
95
330
1
100
AcDbSymbolTableRecord
100
AcDbLayerTableRecord
  2
S-NOTE
 70
0
 62
7
  6
Continuous
370
-3
390
13
347
21
1001
AcAecLayerStandard
1000

1000
Note panels
  0
LAYER
  5
96
330
1
100
AcDbSymbolTableRecord
100
AcDbLayerTableRecord
  2
S-CALLOUT
 70
0
 62
2
  6
Continuous
370
-3
390
13
347
21
1001
AcAecLayerStandard
1000

1000
Bar-mark balloons and leaders
  0
LAYER
  5
97
330
1
100
AcDbSymbolTableRecord
100
AcDbLayerTableRecord
  2
S-SECTION
 70
0
 62
1
  6
Continuous
370
-3
390
13
347
21
1001
AcAecLayerStandard
1000

1000
Section and detail markers
  0
LAYER
  5
98
330
1
100
AcDbSymbolTableRecord
100
AcDbLayerTableRecord
  2
S-GRID
 70
0
 62
5
  6
Continuous
370
-3
390
13
347
21
1001
AcAecLayerStandard
1000

1000
Grid lines and bubbles
  0
LAYER
  5
99
330
1
100
AcDbSymbolTableRecord
100
AcDbLayerTableRecord
  2
S-CENTER
 70
0
 62
6
  6
Continuous
370
-3
390
13
347
21
1001
AcAecLayerStandard
1000

1000
Centrelines
  0
LAYER
  5
9A
330
1
100
AcDbSymbolTableRecord
100
AcDbLayerTableRecord
  2
S-HATCH
 70
0
 62
8
  6
Continuous
370
-3
390
13
347
21
1001
AcAecLayerStandard
1000

1000
Section hatch
  0
LAYER
  5
9B
330
1
100
AcDbSymbolTableRecord
100
AcDbLayerTableRecord
  2
S-TITLE
 70
0
 62
7
  6
Continuous
370
-3
390
13
347
21
1001
AcAecLayerStandard
1000

1000
Border, title block, view titles
  0
LAYER
  5
9C
330
1
100
AcDbSymbolTableRecord
100
AcDbLayerTableRecord
  2
S-EXISTING
 70
0
 62
8
  6
Continuous
370
-3
390
13
347
21
1001
AcAecLayerStandard
1000

1000
Soil, rock, berm, cover layers
  0
LAYER
  5
9D
330
1
100
AcDbSymbolTableRecord
100
AcDbLayerTableRecord
  2
S-REFERENCE
 70
0
 62
8
  6
Continuous
370
-3
390
13
347
21
1001
AcAecLayerStandard
1000

1000
Reference geometry, extents
  0
LAYER
  5
9E
330
1
100
AcDbSymbolTableRecord
100
AcDbLayerTableRecord
  2
S-WATERPROOF
 70
0
 62
30
  6
Continuous
370
-3
390
13
347
21
1001
AcAecLayerStandard
1000

1000
Membranes, waterstops, GWT
  0
LAYER
  5
9F
330
1
100
AcDbSymbolTableRecord
100
AcDbLayerTableRecord
  2
S-STEELWORK
 70
0
 62
2
  6
Continuous
370
-3
390
13
347
21
1001
AcAecLayerStandard
1000

1000
Cast-in frames, EMP straps, steel items
  0
LAYER
  5
A0
330
1
100
AcDbSymbolTableRecord
100
AcDbLayerTableRecord
  2
S-LEVEL
 70
0
 62
4
  6
Continuous
370
-3
390
13
347
21
1001
AcAecLayerStandard
1000

1000
Level markers
  0
LAYER
  5
A1
330
1
100
AcDbSymbolTableRecord
100
AcDbLayerTableRecord
  2
S-TABLE
 70
0
 62
7
  6
Continuous
370
-3
390
13
347
21
1001
AcAecLayerStandard
1000

1000
Tables and schedules
  0
LAYER
  5
A2
330
1
100
AcDbSymbolTableRecord
100
AcDbLayerTableRecord
  2
S-BLAST
 70
0
 62
1
  6
Continuous
370
-3
390
13
347
21
1001
AcAecLayerStandard
1000

1000
Blast arrows, findings, warnings
  0
ENDTAB
  0
TABLE
  2
STYLE
  5
5
330
0
100
AcDbSymbolTable
 70
26
  0
STYLE
  5
29
330
5
100
AcDbSymbolTableRecord
100
AcDbTextStyleTableRecord
  2
Standard
 70
0
 40
0.0
 41
1.0
 50
0.0
 71
0
 42
2.5
  3
txt
  4

  0
STYLE
  5
41
330
5
100
AcDbSymbolTableRecord
100
AcDbTextStyleTableRecord
  2
OpenSans-Light
 70
0
 40
0.0
 41
1.0
 50
0.0
 71
0
 42
2.5
  3
OpenSans-Light.ttf
  4

  0
STYLE
  5
42
330
5
100
AcDbSymbolTableRecord
100
AcDbTextStyleTableRecord
  2
OpenSans-Light-Italic
 70
0
 40
0.0
 41
1.0
 50
0.0
 71
0
 42
2.5
  3
OpenSans-LightItalic.ttf
  4

  0
STYLE
  5
43
330
5
100
AcDbSymbolTableRecord
100
AcDbTextStyleTableRecord
  2
OpenSans
 70
0
 40
0.0
 41
1.0
 50
0.0
 71
0
 42
2.5
  3
OpenSans-Regular.ttf
  4

  0
STYLE
  5
44
330
5
100
AcDbSymbolTableRecord
100
AcDbTextStyleTableRecord
  2
OpenSans-Italic
 70
0
 40
0.0
 41
1.0
 50
0.0
 71
0
 42
2.5
  3
OpenSans-Italic.ttf
  4

  0
STYLE
  5
45
330
5
100
AcDbSymbolTableRecord
100
AcDbTextStyleTableRecord
  2
OpenSans-SemiBold
 70
0
 40
0.0
 41
1.0
 50
0.0
 71
0
 42
2.5
  3
OpenSans-SemiBold.ttf
  4

  0
STYLE
  5
46
330
5
100
AcDbSymbolTableRecord
100
AcDbTextStyleTableRecord
  2
OpenSans-SemiBoldItalic
 70
0
 40
0.0
 41
1.0
 50
0.0
 71
0
 42
2.5
  3
OpenSans-SemiBoldItalic.ttf
  4

  0
STYLE
  5
47
330
5
100
AcDbSymbolTableRecord
100
AcDbTextStyleTableRecord
  2
OpenSans-Bold
 70
0
 40
0.0
 41
1.0
 50
0.0
 71
0
 42
2.5
  3
OpenSans-Bold.ttf
  4

  0
STYLE
  5
48
330
5
100
AcDbSymbolTableRecord
100
AcDbTextStyleTableRecord
  2
OpenSans-BoldItalic
 70
0
 40
0.0
 41
1.0
 50
0.0
 71
0
 42
2.5
  3
OpenSans-BoldItalic.ttf
  4

  0
STYLE
  5
49
330
5
100
AcDbSymbolTableRecord
100
AcDbTextStyleTableRecord
  2
OpenSans-ExtraBold
 70
0
 40
0.0
 41
1.0
 50
0.0
 71
0
 42
2.5
  3
OpenSans-ExtraBold.ttf
  4

  0
STYLE
  5
4A
330
5
100
AcDbSymbolTableRecord
100
AcDbTextStyleTableRecord
  2
OpenSans-ExtraBoldItalic
 70
0
 40
0.0
 41
1.0
 50
0.0
 71
0
 42
2.5
  3
OpenSans-ExtraBoldItalic.ttf
  4

  0
STYLE
  5
4B
330
5
100
AcDbSymbolTableRecord
100
AcDbTextStyleTableRecord
  2
OpenSansCondensed-Bold
 70
0
 40
0.0
 41
1.0
 50
0.0
 71
0
 42
2.5
  3
OpenSansCondensed-Bold.ttf
  4

  0
STYLE
  5
4C
330
5
100
AcDbSymbolTableRecord
100
AcDbTextStyleTableRecord
  2
OpenSansCondensed-Light
 70
0
 40
0.0
 41
1.0
 50
0.0
 71
0
 42
2.5
  3
OpenSansCondensed-Light.ttf
  4

  0
STYLE
  5
4D
330
5
100
AcDbSymbolTableRecord
100
AcDbTextStyleTableRecord
  2
OpenSansCondensed-Italic
 70
0
 40
0.0
 41
1.0
 50
0.0
 71
0
 42
2.5
  3
OpenSansCondensed-LightItalic.ttf
  4

  0
STYLE
  5
4E
330
5
100
AcDbSymbolTableRecord
100
AcDbTextStyleTableRecord
  2
LiberationSans
 70
0
 40
0.0
 41
1.0
 50
0.0
 71
0
 42
2.5
  3
LiberationSans-Regular.ttf
  4

  0
STYLE
  5
4F
330
5
100
AcDbSymbolTableRecord
100
AcDbTextStyleTableRecord
  2
LiberationSans-Bold
 70
0
 40
0.0
 41
1.0
 50
0.0
 71
0
 42
2.5
  3
LiberationSans-Bold.ttf
  4

  0
STYLE
  5
50
330
5
100
AcDbSymbolTableRecord
100
AcDbTextStyleTableRecord
  2
LiberationSans-BoldItalic
 70
0
 40
0.0
 41
1.0
 50
0.0
 71
0
 42
2.5
  3
LiberationSans-BoldItalic.ttf
  4

  0
STYLE
  5
51
330
5
100
AcDbSymbolTableRecord
100
AcDbTextStyleTableRecord
  2
LiberationSans-Italic
 70
0
 40
0.0
 41
1.0
 50
0.0
 71
0
 42
2.5
  3
LiberationSans-Italic.ttf
  4

  0
STYLE
  5
52
330
5
100
AcDbSymbolTableRecord
100
AcDbTextStyleTableRecord
  2
LiberationSerif
 70
0
 40
0.0
 41
1.0
 50
0.0
 71
0
 42
2.5
  3
LiberationSerif-Regular.ttf
  4

  0
STYLE
  5
53
330
5
100
AcDbSymbolTableRecord
100
AcDbTextStyleTableRecord
  2
LiberationSerif-Bold
 70
0
 40
0.0
 41
1.0
 50
0.0
 71
0
 42
2.5
  3
LiberationSerif-Bold.ttf
  4

  0
STYLE
  5
54
330
5
100
AcDbSymbolTableRecord
100
AcDbTextStyleTableRecord
  2
LiberationSerif-BoldItalic
 70
0
 40
0.0
 41
1.0
 50
0.0
 71
0
 42
2.5
  3
LiberationSerif-BoldItalic.ttf
  4

  0
STYLE
  5
55
330
5
100
AcDbSymbolTableRecord
100
AcDbTextStyleTableRecord
  2
LiberationSerif-Italic
 70
0
 40
0.0
 41
1.0
 50
0.0
 71
0
 42
2.5
  3
LiberationSerif-Italic.ttf
  4

  0
STYLE
  5
56
330
5
100
AcDbSymbolTableRecord
100
AcDbTextStyleTableRecord
  2
LiberationMono
 70
0
 40
0.0
 41
1.0
 50
0.0
 71
0
 42
2.5
  3
LiberationMono-Regular.ttf
  4

  0
STYLE
  5
57
330
5
100
AcDbSymbolTableRecord
100
AcDbTextStyleTableRecord
  2
LiberationMono-Bold
 70
0
 40
0.0
 41
1.0
 50
0.0
 71
0
 42
2.5
  3
LiberationMono-Bold.ttf
  4

  0
STYLE
  5
58
330
5
100
AcDbSymbolTableRecord
100
AcDbTextStyleTableRecord
  2
LiberationMono-BoldItalic
 70
0
 40
0.0
 41
1.0
 50
0.0
 71
0
 42
2.5
  3
LiberationMono-BoldItalic.ttf
  4

  0
STYLE
  5
59
330
5
100
AcDbSymbolTableRecord
100
AcDbTextStyleTableRecord
  2
LiberationMono-Italic
 70
0
 40
0.0
 41
1.0
 50
0.0
 71
0
 42
2.5
  3
LiberationMono-Italic.ttf
  4

  0
ENDTAB
  0
TABLE
  2
VIEW
  5
7
330
0
100
AcDbSymbolTable
 70
0
  0
ENDTAB
  0
TABLE
  2
UCS
  5
6
330
0
100
AcDbSymbolTable
 70
0
  0
ENDTAB
  0
TABLE
  2
APPID
  5
3
330
0
100
AcDbSymbolTable
 70
4
  0
APPID
  5
2A
330
3
100
AcDbSymbolTableRecord
100
AcDbRegAppTableRecord
  2
ACAD
 70
0
  0
APPID
  5
8B
330
3
100
AcDbSymbolTableRecord
100
AcDbRegAppTableRecord
  2
AcAecLayerStandard
 70
0
  0
APPID
  5
2D9
330
3
100
AcDbSymbolTableRecord
100
AcDbRegAppTableRecord
  2
HATCHBACKGROUNDCOLOR
 70
0
  0
APPID
  5
2DA
330
3
100
AcDbSymbolTableRecord
100
AcDbRegAppTableRecord
  2
EZDXF
 70
0
  0
ENDTAB
  0
TABLE
  2
DIMSTYLE
  5
4
330
0
100
AcDbSymbolTable
 70
14
100
AcDbDimStyleTable
  0
DIMSTYLE
105
2B
330
4
100
AcDbSymbolTableRecord
100
AcDbDimStyleTableRecord
  2
Standard
 70
0
 40
1.0
 41
2.5
 42
0.625
 43
3.75
 44
1.25
 45
0.0
 46
0.0
 47
0.0
 48
0.0
 49
2.5
140
2.5
141
2.5
142
0.0
143
0.03937007874
144
1.0
145
0.0
146
1.0
147
0.625
148
0.0
 69
0
 70
0
 71
0
 72
0
 73
0
 74
0
 75
0
 76
0
 77
1
 78
8
 79
3
170
0
171
3
172
1
173
0
174
0
175
0
176
0
177
0
178
0
179
2
271
2
272
2
273
2
274
3
275
0
276
0
277
2
278
44
279
0
280
0
281
0
282
0
283
0
284
8
285
0
286
0
288
0
289
3
290
0
371
-2
372
-2
  0
DIMSTYLE
105
73
330
4
100
AcDbSymbolTableRecord
100
AcDbDimStyleTableRecord
  2
EZDXF
 70
0
 40
1.0
 41
0.175
 42
0.125
 43
3.75
 44
0.375
 45
0.0
 46
0.0
 47
0.0
 48
0.0
 49
2.5
140
0.25
141
2.5
142
0.0
143
0.03937007874
144
100.0
145
0.0
146
0.5
147
0.1
148
0.0
 69
0
 70
0
 71
0
 72
0
 73
0
 74
0
 75
0
 76
0
 77
1
 78
12
 79
3
170
0
171
3
172
1
173
0
174
0
175
0
176
0
177
0
178
0
179
2
271
2
272
2
273
2
274
3
275
0
276
0
277
2
278
46
279
2
280
0
281
0
282
0
283
0
284
8
285
0
286
0
288
1
289
3
290
0
340
4C
342
74
371
-2
372
-2
  0
DIMSTYLE
105
7C
330
4
100
AcDbSymbolTableRecord
100
AcDbDimStyleTableRecord
  2
EZ_M_100_H25_CM
 70
0
 40
1.0
 41
0.25
 42
0.125
 43
3.75
 44
0.375
 45
0.0
 46
0.0
 47
0.0
 48
0.0
 49
2.5
140
0.25
141
2.5
142
0.125
143
0.03937007874
144
100.0
145
0.0
146
0.5
147
0.1
148
0.0
 69
0
 70
0
 71
0
 72
0
 73
0
 74
0
 75
0
 76
0
 77
1
 78
12
 79
3
170
0
171
3
172
1
173
0
174
0
175
0
176
0
177
0
178
0
179
2
271
2
272
2
273
2
274
3
275
0
276
0
277
2
278
46
279
2
280
0
281
0
282
0
283
0
284
8
285
0
286
0
288
1
289
3
290
0
340
4C
371
-2
372
-2
  0
DIMSTYLE
105
7D
330
4
100
AcDbSymbolTableRecord
100
AcDbDimStyleTableRecord
  2
EZ_M_50_H25_CM
 70
0
 40
1.0
 41
0.125
 42
0.0625
 43
3.75
 44
0.1875
 45
0.0
 46
0.0
 47
0.0
 48
0.0
 49
2.5
140
0.125
141
2.5
142
0.0625
143
0.03937007874
144
100.0
145
0.0
146
0.5
147
0.05
148
0.0
 69
0
 70
0
 71
0
 72
0
 73
0
 74
0
 75
0
 76
0
 77
1
 78
12
 79
3
170
0
171
3
172
1
173
0
174
0
175
0
176
0
177
0
178
0
179
2
271
2
272
2
273
2
274
3
275
0
276
0
277
2
278
46
279
2
280
0
281
0
282
0
283
0
284
8
285
0
286
0
288
1
289
3
290
0
340
4C
371
-2
372
-2
  0
DIMSTYLE
105
7E
330
4
100
AcDbSymbolTableRecord
100
AcDbDimStyleTableRecord
  2
EZ_M_25_H25_CM
 70
0
 40
1.0
 41
0.0625
 42
0.03125
 43
3.75
 44
0.09375
 45
0.0
 46
0.0
 47
0.0
 48
0.0
 49
2.5
140
0.0625
141
2.5
142
0.03125
143
0.03937007874
144
100.0
145
0.0
146
0.5
147
0.025
148
0.0
 69
0
 70
0
 71
0
 72
0
 73
0
 74
0
 75
0
 76
0
 77
1
 78
12
 79
3
170
0
171
3
172
1
173
0
174
0
175
0
176
0
177
0
178
0
179
2
271
2
272
2
273
2
274
3
275
0
276
0
277
2
278
46
279
2
280
0
281
0
282
0
283
0
284
8
285
0
286
0
288
1
289
3
290
0
340
4C
371
-2
372
-2
  0
DIMSTYLE
105
7F
330
4
100
AcDbSymbolTableRecord
100
AcDbDimStyleTableRecord
  2
EZ_M_20_H25_CM
 70
0
 40
1.0
 41
0.05
 42
0.025
 43
3.75
 44
0.07500000000000001
 45
0.0
 46
0.0
 47
0.0
 48
0.0
 49
2.5
140
0.05
141
2.5
142
0.025
143
0.03937007874
144
100.0
145
0.0
146
0.5
147
0.020000000000000004
148
0.0
 69
0
 70
0
 71
0
 72
0
 73
0
 74
0
 75
0
 76
0
 77
1
 78
12
 79
3
170
0
171
3
172
1
173
0
174
0
175
0
176
0
177
0
178
0
179
2
271
2
272
2
273
2
274
3
275
0
276
0
277
2
278
46
279
2
280
0
281
0
282
0
283
0
284
8
285
0
286
0
288
1
289
3
290
0
340
4C
371
-2
372
-2
  0
DIMSTYLE
105
80
330
4
100
AcDbSymbolTableRecord
100
AcDbDimStyleTableRecord
  2
EZ_M_10_H25_CM
 70
0
 40
1.0
 41
0.025
 42
0.0125
 43
3.75
 44
0.037500000000000006
 45
0.0
 46
0.0
 47
0.0
 48
0.0
 49
2.5
140
0.025
141
2.5
142
0.0125
143
0.03937007874
144
100.0
145
0.0
146
0.5
147
0.010000000000000002
148
0.0
 69
0
 70
0
 71
0
 72
0
 73
0
 74
0
 75
0
 76
0
 77
1
 78
12
 79
3
170
0
171
3
172
1
173
0
174
0
175
0
176
0
177
0
178
0
179
2
271
2
272
2
273
2
274
3
275
0
276
0
277
2
278
46
279
2
280
0
281
0
282
0
283
0
284
8
285
0
286
0
288
1
289
3
290
0
340
4C
371
-2
372
-2
  0
DIMSTYLE
105
81
330
4
100
AcDbSymbolTableRecord
100
AcDbDimStyleTableRecord
  2
EZ_M_5_H25_CM
 70
0
 40
1.0
 41
0.0125
 42
0.00625
 43
3.75
 44
0.018750000000000003
 45
0.0
 46
0.0
 47
0.0
 48
0.0
 49
2.5
140
0.0125
141
2.5
142
0.00625
143
0.03937007874
144
100.0
145
0.0
146
0.5
147
0.005000000000000001
148
0.0
 69
0
 70
0
 71
0
 72
0
 73
0
 74
0
 75
0
 76
0
 77
1
 78
12
 79
3
170
0
171
3
172
1
173
0
174
0
175
0
176
0
177
0
178
0
179
2
271
2
272
2
273
2
274
3
275
0
276
0
277
2
278
46
279
2
280
0
281
0
282
0
283
0
284
8
285
0
286
0
288
1
289
3
290
0
340
4C
371
-2
372
-2
  0
DIMSTYLE
105
82
330
4
100
AcDbSymbolTableRecord
100
AcDbDimStyleTableRecord
  2
EZ_M_1_H25_CM
 70
0
 40
1.0
 41
0.0025
 42
0.00125
 43
3.75
 44
0.00375
 45
0.0
 46
0.0
 47
0.0
 48
0.0
 49
2.5
140
0.0025
141
2.5
142
0.00125
143
0.03937007874
144
100.0
145
0.0
146
0.5
147
0.001
148
0.0
 69
0
 70
0
 71
0
 72
0
 73
0
 74
0
 75
0
 76
0
 77
1
 78
12
 79
3
170
0
171
3
172
1
173
0
174
0
175
0
176
0
177
0
178
0
179
2
271
2
272
2
273
2
274
3
275
0
276
0
277
2
278
46
279
2
280
0
281
0
282
0
283
0
284
8
285
0
286
0
288
1
289
3
290
0
340
4C
371
-2
372
-2
  0
DIMSTYLE
105
83
330
4
100
AcDbSymbolTableRecord
100
AcDbDimStyleTableRecord
  2
EZ_RADIUS
 70
0
 40
1.0
 41
0.25
 42
0.125
 43
3.75
 44
0.375
 45
0.0
 46
0.0
 47
0.0
 48
0.0
 49
2.5
140
0.25
141
0.0
142
0.0
143
0.03937007874
144
100.0
145
0.0
146
0.5
147
0.1
148
0.0
 69
0
 70
0
 71
0
 72
0
 73
0
 74
0
 75
0
 76
0
 77
1
 78
12
 79
3
170
0
171
3
172
0
173
0
174
0
175
0
176
0
177
0
178
0
179
2
271
2
272
2
273
2
274
3
275
0
276
0
277
2
278
46
279
1
280
0
281
0
282
0
283
0
284
8
285
0
286
0
288
1
289
3
290
0
340
4C
342
84
371
-2
372
-2
  0
DIMSTYLE
105
88
330
4
100
AcDbSymbolTableRecord
100
AcDbDimStyleTableRecord
  2
EZ_RADIUS_INSIDE
 70
0
 40
1.0
 41
0.25
 42
0.125
 43
3.75
 44
0.375
 45
0.0
 46
0.0
 47
0.0
 48
0.0
 49
2.5
140
0.25
141
0.0
142
0.0
143
0.03937007874
144
100.0
145
0.0
146
0.5
147
0.1
148
0.0
 69
0
 70
0
 71
0
 72
0
 73
0
 74
0
 75
0
 76
0
 77
0
 78
12
 79
3
170
0
171
3
172
0
173
0
174
1
175
0
176
0
177
0
178
0
179
2
271
2
272
2
273
2
274
3
275
0
276
0
277
2
278
46
279
0
280
0
281
0
282
0
283
0
284
8
285
0
286
0
288
1
289
0
290
0
340
4C
342
84
371
-2
372
-2
  0
DIMSTYLE
105
89
330
4
100
AcDbSymbolTableRecord
100
AcDbDimStyleTableRecord
  2
EZ_CURVED
 70
0
 40
1.0
 41
0.25
 42
0.125
 43
3.75
 44
0.375
 45
0.0
 46
0.0
 47
0.0
 48
0.0
 49
2.5
140
0.25
141
2.5
142
0.0
143
0.03937007874
144
100.0
145
0.0
146
0.5
147
0.1
148
0.0
 69
0
 70
0
 71
0
 72
0
 73
0
 74
0
 75
0
 76
0
 77
1
 78
12
 79
2
 90
2
170
0
171
3
172
1
173
0
174
0
175
0
176
0
177
0
178
0
179
2
271
2
272
2
273
2
274
3
275
0
276
0
277
2
278
46
279
2
280
0
281
0
282
0
283
0
284
8
285
0
286
0
288
1
289
3
290
0
340
4C
371
-2
372
-2
  0
DIMSTYLE
105
A3
330
4
100
AcDbSymbolTableRecord
100
AcDbDimStyleTableRecord
  2
SC-DIM
 70
0
 40
1.0
 41
1.6
 42
1.0
 43
3.75
 44
1.2
 45
0.0
 46
0.0
 47
0.0
 48
0.0
 49
2.5
140
1.8
141
2.5
142
0.0
143
0.03937007874
144
1.0
145
0.0
146
1.0
147
0.8
148
0.0
 69
0
 70
0
 71
0
 72
0
 73
0
 74
0
 75
0
 76
0
 77
1
 78
8
 79
3
170
0
171
3
172
1
173
0
174
0
175
0
176
4
177
4
178
4
179
2
271
0
272
2
273
2
274
3
275
0
276
0
277
2
278
44
279
0
280
0
281
0
282
0
283
0
284
8
285
0
286
0
288
0
289
3
290
0
342
74
371
13
372
13
  0
DIMSTYLE
105
A4
330
4
100
AcDbSymbolTableRecord
100
AcDbDimStyleTableRecord
  2
SC-DIM-S
 70
0
 40
1.0
 41
1.2
 42
1.0
 43
3.75
 44
1.2
 45
0.0
 46
0.0
 47
0.0
 48
0.0
 49
2.5
140
1.4
141
2.5
142
0.0
143
0.03937007874
144
1.0
145
0.0
146
1.0
147
0.8
148
0.0
 69
0
 70
0
 71
0
 72
0
 73
0
 74
0
 75
0
 76
0
 77
1
 78
8
 79
3
170
0
171
3
172
1
173
0
174
0
175
0
176
4
177
4
178
4
179
2
271
0
272
2
273
2
274
3
275
0
276
0
277
2
278
44
279
0
280
0
281
0
282
0
283
0
284
8
285
0
286
0
288
0
289
3
290
0
342
74
371
13
372
13
  0
ENDTAB
  0
TABLE
  2
BLOCK_RECORD
  5
9
330
0
100
AcDbSymbolTable
 70
16
  0
BLOCK_RECORD
  5
17
330
9
100
AcDbSymbolTableRecord
100
AcDbBlockTableRecord
  2
*Model_Space
340
1A
 70
0
280
1
281
0
  0
BLOCK_RECORD
  5
1B
330
9
100
AcDbSymbolTableRecord
100
AcDbBlockTableRecord
  2
*Paper_Space
340
1E
 70
0
280
1
281
0
  0
BLOCK_RECORD
  5
74
330
9
100
AcDbSymbolTableRecord
100
AcDbBlockTableRecord
  2
_ARCHTICK
340
0
 70
0
280
1
281
0
  0
BLOCK_RECORD
  5
78
330
9
100
AcDbSymbolTableRecord
100
AcDbBlockTableRecord
  2
_CLOSEDFILLED
340
0
 70
0
280
1
281
0
  0
BLOCK_RECORD
  5
84
330
9
100
AcDbSymbolTableRecord
100
AcDbBlockTableRecord
  2
_CLOSEDBLANK
340
0
 70
0
280
1
281
0
  0
BLOCK_RECORD
  5
A5
330
9
100
AcDbSymbolTableRecord
100
AcDbBlockTableRecord
  2
BARMARK
340
0
 70
0
280
1
281
0
  0
BLOCK_RECORD
  5
A9
330
9
100
AcDbSymbolTableRecord
100
AcDbBlockTableRecord
  2
SECMARK
340
0
 70
0
280
1
281
0
  0
BLOCK_RECORD
  5
AE
330
9
100
AcDbSymbolTableRecord
100
AcDbBlockTableRecord
  2
LEVELMK
340
0
 70
0
280
1
281
0
  0
BLOCK_RECORD
  5
B2
330
9
100
AcDbSymbolTableRecord
100
AcDbBlockTableRecord
  2
NORTH
340
0
 70
0
280
1
281
0
  0
BLOCK_RECORD
  5
ED
330
9
100
AcDbSymbolTableRecord
100
AcDbBlockTableRecord
  2
*D1
340
0
 70
0
280
1
281
0
  0
BLOCK_RECORD
  5
FC
330
9
100
AcDbSymbolTableRecord
100
AcDbBlockTableRecord
  2
*D2
340
0
 70
0
280
1
281
0
  0
BLOCK_RECORD
  5
10B
330
9
100
AcDbSymbolTableRecord
100
AcDbBlockTableRecord
  2
*D3
340
0
 70
0
280
1
281
0
  0
BLOCK_RECORD
  5
11A
330
9
100
AcDbSymbolTableRecord
100
AcDbBlockTableRecord
  2
*D4
340
0
 70
0
280
1
281
0
  0
BLOCK_RECORD
  5
1DD
330
9
100
AcDbSymbolTableRecord
100
AcDbBlockTableRecord
  2
*D5
340
0
 70
0
280
1
281
0
  0
BLOCK_RECORD
  5
1EC
330
9
100
AcDbSymbolTableRecord
100
AcDbBlockTableRecord
  2
*D6
340
0
 70
0
280
1
281
0
  0
BLOCK_RECORD
  5
1FB
330
9
100
AcDbSymbolTableRecord
100
AcDbBlockTableRecord
  2
*D7
340
0
 70
0
280
1
281
0
  0
ENDTAB
  0
ENDSEC
  0
SECTION
  2
BLOCKS
  0
BLOCK
  5
18
330
17
100
AcDbEntity
  8
0
100
AcDbBlockBegin
  2
*Model_Space
 70
0
 10
0.0
 20
0.0
 30
0.0
  3
*Model_Space
  1

  0
ENDBLK
  5
19
330
17
100
AcDbEntity
  8
0
100
AcDbBlockEnd
  0
BLOCK
  5
1C
330
1B
100
AcDbEntity
  8
0
100
AcDbBlockBegin
  2
*Paper_Space
 70
0
 10
0.0
 20
0.0
 30
0.0
  3
*Paper_Space
  1

  0
ENDBLK
  5
1D
330
1B
100
AcDbEntity
  8
0
100
AcDbBlockEnd
  0
BLOCK
  5
75
330
74
100
AcDbEntity
  8
0
100
AcDbBlockBegin
  2
_ARCHTICK
 70
0
 10
0.0
 20
0.0
 30
0.0
  3
_ARCHTICK
  1

  0
LWPOLYLINE
  5
77
330
74
100
AcDbEntity
  8
0
  6
BYBLOCK
 62
0
100
AcDbPolyline
 90
2
 70
0
 43
0.15
 10
-0.5
 20
-0.5
 10
0.5
 20
0.5
  0
ENDBLK
  5
76
330
74
100
AcDbEntity
  8
0
100
AcDbBlockEnd
  0
BLOCK
  5
79
330
78
100
AcDbEntity
  8
0
100
AcDbBlockBegin
  2
_CLOSEDFILLED
 70
0
 10
0.0
 20
0.0
 30
0.0
  3
_CLOSEDFILLED
  1

  0
SOLID
  5
7B
330
78
100
AcDbEntity
  8
0
  6
BYBLOCK
 62
0
100
AcDbTrace
 10
-1.0
 20
0.16439898372402537
 30
0.0
 11
0.0
 21
0.0
 31
0.0
 12
-1.0
 22
-0.16439898372402537
 32
0.0
 13
-1.0
 23
-0.16439898372402537
 33
0.0
  0
ENDBLK
  5
7A
330
78
100
AcDbEntity
  8
0
100
AcDbBlockEnd
  0
BLOCK
  5
85
330
84
100
AcDbEntity
  8
0
100
AcDbBlockBegin
  2
_CLOSEDBLANK
 70
0
 10
0.0
 20
0.0
 30
0.0
  3
_CLOSEDBLANK
  1

  0
LWPOLYLINE
  5
87
330
84
100
AcDbEntity
  8
0
  6
BYBLOCK
 62
0
100
AcDbPolyline
 90
3
 70
1
 10
-1.0
 20
0.16439898372402537
 10
0.0
 20
0.0
 10
-1.0
 20
-0.16439898372402537
  0
ENDBLK
  5
86
330
84
100
AcDbEntity
  8
0
100
AcDbBlockEnd
  0
BLOCK
  5
A6
330
A5
100
AcDbEntity
  8
0
100
AcDbBlockBegin
  2
BARMARK
 70
0
 10
0.0
 20
0.0
 30
0.0
  3
BARMARK
  1

  0
CIRCLE
  5
A8
330
A5
100
AcDbEntity
  8
S-CALLOUT
100
AcDbCircle
 10
0.0
 20
0.0
 30
0.0
 40
3.2
  0
ENDBLK
  5
A7
330
A5
100
AcDbEntity
  8
0
100
AcDbBlockEnd
  0
BLOCK
  5
AA
330
A9
100
AcDbEntity
  8
0
100
AcDbBlockBegin
  2
SECMARK
 70
0
 10
0.0
 20
0.0
 30
0.0
  3
SECMARK
  1

  0
CIRCLE
  5
AC
330
A9
100
AcDbEntity
  8
S-SECTION
100
AcDbCircle
 10
0.0
 20
0.0
 30
0.0
 40
4.0
  0
LINE
  5
AD
330
A9
100
AcDbEntity
  8
S-SECTION
100
AcDbLine
 10
-4.0
 20
0.0
 30
0.0
 11
4.0
 21
0.0
 31
0.0
  0
ENDBLK
  5
AB
330
A9
100
AcDbEntity
  8
0
100
AcDbBlockEnd
  0
BLOCK
  5
AF
330
AE
100
AcDbEntity
  8
0
100
AcDbBlockBegin
  2
LEVELMK
 70
0
 10
0.0
 20
0.0
 30
0.0
  3
LEVELMK
  1

  0
LWPOLYLINE
  5
B1
330
AE
100
AcDbEntity
  8
S-LEVEL
100
AcDbPolyline
 90
4
 70
1
 10
0.0
 20
0.0
 10
-2.0
 20
3.0
 10
2.0
 20
3.0
 10
0.0
 20
0.0
  0
ENDBLK
  5
B0
330
AE
100
AcDbEntity
  8
0
100
AcDbBlockEnd
  0
BLOCK
  5
B3
330
B2
100
AcDbEntity
  8
0
100
AcDbBlockBegin
  2
NORTH
 70
0
 10
0.0
 20
0.0
 30
0.0
  3
NORTH
  1

  0
LWPOLYLINE
  5
B5
330
B2
100
AcDbEntity
  8
S-TITLE
100
AcDbPolyline
 90
5
 70
1
 10
0.0
 20
10.0
 10
-3.2
 20
-6.0
 10
0.0
 20
-2.4
 10
3.2
 20
-6.0
 10
0.0
 20
10.0
  0
CIRCLE
  5
B6
330
B2
100
AcDbEntity
  8
S-TITLE
100
AcDbCircle
 10
0.0
 20
0.0
 30
0.0
 40
12.0
  0
ENDBLK
  5
B4
330
B2
100
AcDbEntity
  8
0
100
AcDbBlockEnd
  0
BLOCK
  5
EE
330
ED
100
AcDbEntity
  8
0
100
AcDbBlockBegin
  2
*D1
 70
1
 10
0.0
 20
0.0
 30
0.0
  3
*D1
  1

  0
LINE
  5
F0
330
ED
100
AcDbEntity
  8
0
 62
4
370
13
100
AcDbLine
 10
335.0
 20
242.75
 30
0.0
 11
335.0
 21
226.3
 31
0.0
  0
LINE
  5
F1
330
ED
100
AcDbEntity
  8
0
 62
4
370
13
100
AcDbLine
 10
417.5
 20
242.75
 30
0.0
 11
417.5
 21
226.3
 31
0.0
  0
INSERT
  5
F2
330
ED
100
AcDbEntity
  8
S-DIM
 62
4
100
AcDbBlockReference
  2
_ARCHTICK
 10
335.0
 20
227.5
 30
0.0
 41
1.6
 42
1.6
 50
180.0
  0
INSERT
  5
F4
330
ED
100
AcDbEntity
  8
S-DIM
 62
4
100
AcDbBlockReference
  2
_ARCHTICK
 10
417.5
 20
227.5
 30
0.0
 41
1.6
 42
1.6
  0
LINE
  5
F6
330
ED
100
AcDbEntity
  8
0
 62
4
370
13
100
AcDbLine
 10
335.0
 20
227.5
 30
0.0
 11
417.5
 21
227.5
 31
0.0
  0
MTEXT
  5
F7
330
ED
100
AcDbEntity
  8
S-DIM
 62
4
100
AcDbMText
 10
376.25
 20
229.2
 30
0.0
 40
1.8
 71
5
  1
3300
  7
OpenSansCondensed-Light
  0
POINT
  5
F8
330
ED
100
AcDbEntity
  8
Defpoints
100
AcDbPoint
 10
335.0
 20
227.5
 30
0.0
  0
POINT
  5
F9
330
ED
100
AcDbEntity
  8
Defpoints
100
AcDbPoint
 10
335.0
 20
243.75
 30
0.0
  0
POINT
  5
FA
330
ED
100
AcDbEntity
  8
Defpoints
100
AcDbPoint
 10
417.5
 20
243.75
 30
0.0
  0
ENDBLK
  5
EF
330
ED
100
AcDbEntity
  8
0
100
AcDbBlockEnd
  0
BLOCK
  5
FD
330
FC
100
AcDbEntity
  8
0
100
AcDbBlockBegin
  2
*D2
 70
1
 10
0.0
 20
0.0
 30
0.0
  3
*D2
  1

  0
LINE
  5
FF
330
FC
100
AcDbEntity
  8
0
 62
4
370
13
100
AcDbLine
 10
297.5
 20
242.75
 30
0.0
 11
297.5
 21
226.3
 31
0.0
  0
LINE
  5
100
330
FC
100
AcDbEntity
  8
0
 62
4
370
13
100
AcDbLine
 10
335.0
 20
242.75
 30
0.0
 11
335.0
 21
226.3
 31
0.0
  0
INSERT
  5
101
330
FC
100
AcDbEntity
  8
S-DIM
 62
4
100
AcDbBlockReference
  2
_ARCHTICK
 10
297.5
 20
227.5
 30
0.0
 41
1.6
 42
1.6
 50
180.0
  0
INSERT
  5
103
330
FC
100
AcDbEntity
  8
S-DIM
 62
4
100
AcDbBlockReference
  2
_ARCHTICK
 10
335.0
 20
227.5
 30
0.0
 41
1.6
 42
1.6
  0
LINE
  5
105
330
FC
100
AcDbEntity
  8
0
 62
4
370
13
100
AcDbLine
 10
297.5
 20
227.5
 30
0.0
 11
335.0
 21
227.5
 31
0.0
  0
MTEXT
  5
106
330
FC
100
AcDbEntity
  8
S-DIM
 62
4
100
AcDbMText
 10
316.25
 20
229.2
 30
0.0
 40
1.8
 71
5
  1
1500
  7
OpenSansCondensed-Light
  0
POINT
  5
107
330
FC
100
AcDbEntity
  8
Defpoints
100
AcDbPoint
 10
297.5
 20
227.5
 30
0.0
  0
POINT
  5
108
330
FC
100
AcDbEntity
  8
Defpoints
100
AcDbPoint
 10
297.5
 20
243.75
 30
0.0
  0
POINT
  5
109
330
FC
100
AcDbEntity
  8
Defpoints
100
AcDbPoint
 10
335.0
 20
243.75
 30
0.0
  0
ENDBLK
  5
FE
330
FC
100
AcDbEntity
  8
0
100
AcDbBlockEnd
  0
BLOCK
  5
10C
330
10B
100
AcDbEntity
  8
0
100
AcDbBlockBegin
  2
*D3
 70
1
 10
0.0
 20
0.0
 30
0.0
  3
*D3
  1

  0
LINE
  5
10E
330
10B
100
AcDbEntity
  8
0
 62
4
370
13
100
AcDbLine
 10
417.5
 20
242.75
 30
0.0
 11
417.5
 21
226.3
 31
0.0
  0
LINE
  5
10F
330
10B
100
AcDbEntity
  8
0
 62
4
370
13
100
AcDbLine
 10
455.0
 20
242.75
 30
0.0
 11
455.0
 21
226.3
 31
0.0
  0
INSERT
  5
110
330
10B
100
AcDbEntity
  8
S-DIM
 62
4
100
AcDbBlockReference
  2
_ARCHTICK
 10
417.5
 20
227.5
 30
0.0
 41
1.6
 42
1.6
 50
180.0
  0
INSERT
  5
112
330
10B
100
AcDbEntity
  8
S-DIM
 62
4
100
AcDbBlockReference
  2
_ARCHTICK
 10
455.0
 20
227.5
 30
0.0
 41
1.6
 42
1.6
  0
LINE
  5
114
330
10B
100
AcDbEntity
  8
0
 62
4
370
13
100
AcDbLine
 10
417.5
 20
227.5
 30
0.0
 11
455.0
 21
227.5
 31
0.0
  0
MTEXT
  5
115
330
10B
100
AcDbEntity
  8
S-DIM
 62
4
100
AcDbMText
 10
436.25
 20
229.2
 30
0.0
 40
1.8
 71
5
  1
1500
  7
OpenSansCondensed-Light
  0
POINT
  5
116
330
10B
100
AcDbEntity
  8
Defpoints
100
AcDbPoint
 10
417.5
 20
227.5
 30
0.0
  0
POINT
  5
117
330
10B
100
AcDbEntity
  8
Defpoints
100
AcDbPoint
 10
417.5
 20
243.75
 30
0.0
  0
POINT
  5
118
330
10B
100
AcDbEntity
  8
Defpoints
100
AcDbPoint
 10
455.0
 20
243.75
 30
0.0
  0
ENDBLK
  5
10D
330
10B
100
AcDbEntity
  8
0
100
AcDbBlockEnd
  0
BLOCK
  5
11B
330
11A
100
AcDbEntity
  8
0
100
AcDbBlockBegin
  2
*D4
 70
1
 10
0.0
 20
0.0
 30
0.0
  3
*D4
  1

  0
LINE
  5
11D
330
11A
100
AcDbEntity
  8
0
 62
4
370
13
100
AcDbLine
 10
462.25
 20
250.0
 30
0.0
 11
476.2
 21
250.0
 31
0.0
  0
LINE
  5
11E
330
11A
100
AcDbEntity
  8
0
 62
4
370
13
100
AcDbLine
 10
462.25
 20
300.0
 30
0.0
 11
476.2
 21
300.0
 31
0.0
  0
INSERT
  5
11F
330
11A
100
AcDbEntity
  8
S-DIM
 62
4
100
AcDbBlockReference
  2
_ARCHTICK
 10
475.0
 20
250.0
 30
0.0
 41
1.6
 42
1.6
 50
270.0
  0
INSERT
  5
121
330
11A
100
AcDbEntity
  8
S-DIM
 62
4
100
AcDbBlockReference
  2
_ARCHTICK
 10
475.0
 20
300.0
 30
0.0
 41
1.6
 42
1.6
 50
90.0
  0
LINE
  5
123
330
11A
100
AcDbEntity
  8
0
 62
4
370
13
100
AcDbLine
 10
475.0
 20
250.0
 30
0.0
 11
475.0
 21
300.0
 31
0.0
  0
MTEXT
  5
124
330
11A
100
AcDbEntity
  8
S-DIM
 62
4
100
AcDbMText
 10
473.3
 20
275.0
 30
0.0
 40
1.8
 71
5
  1
2000
  7
OpenSansCondensed-Light
 50
90.0
  0
POINT
  5
125
330
11A
100
AcDbEntity
  8
Defpoints
100
AcDbPoint
 10
475.0
 20
250.0
 30
0.0
  0
POINT
  5
126
330
11A
100
AcDbEntity
  8
Defpoints
100
AcDbPoint
 10
461.25
 20
250.0
 30
0.0
  0
POINT
  5
127
330
11A
100
AcDbEntity
  8
Defpoints
100
AcDbPoint
 10
461.25
 20
300.0
 30
0.0
  0
ENDBLK
  5
11C
330
11A
100
AcDbEntity
  8
0
100
AcDbBlockEnd
  0
BLOCK
  5
1DE
330
1DD
100
AcDbEntity
  8
0
100
AcDbBlockBegin
  2
*D5
 70
1
 10
0.0
 20
0.0
 30
0.0
  3
*D5
  1

  0
LINE
  5
1E0
330
1DD
100
AcDbEntity
  8
0
 62
4
370
13
100
AcDbLine
 10
470.0
 20
299.0
 30
0.0
 11
470.0
 21
270.8
 31
0.0
  0
LINE
  5
1E1
330
1DD
100
AcDbEntity
  8
0
 62
4
370
13
100
AcDbLine
 10
530.0
 20
299.0
 30
0.0
 11
530.0
 21
270.8
 31
0.0
  0
INSERT
  5
1E2
330
1DD
100
AcDbEntity
  8
S-DIM
 62
4
100
AcDbBlockReference
  2
_ARCHTICK
 10
470.0
 20
272.0
 30
0.0
 41
1.6
 42
1.6
 50
180.0
  0
INSERT
  5
1E4
330
1DD
100
AcDbEntity
  8
S-DIM
 62
4
100
AcDbBlockReference
  2
_ARCHTICK
 10
530.0
 20
272.0
 30
0.0
 41
1.6
 42
1.6
  0
LINE
  5
1E6
330
1DD
100
AcDbEntity
  8
0
 62
4
370
13
100
AcDbLine
 10
470.0
 20
272.0
 30
0.0
 11
530.0
 21
272.0
 31
0.0
  0
MTEXT
  5
1E7
330
1DD
100
AcDbEntity
  8
S-DIM
 62
4
100
AcDbMText
 10
500.0
 20
273.7
 30
0.0
 40
1.8
 71
5
  1
1500
  7
OpenSansCondensed-Light
  0
POINT
  5
1E8
330
1DD
100
AcDbEntity
  8
Defpoints
100
AcDbPoint
 10
470.0
 20
272.0
 30
0.0
  0
POINT
  5
1E9
330
1DD
100
AcDbEntity
  8
Defpoints
100
AcDbPoint
 10
470.0
 20
300.0
 30
0.0
  0
POINT
  5
1EA
330
1DD
100
AcDbEntity
  8
Defpoints
100
AcDbPoint
 10
530.0
 20
300.0
 30
0.0
  0
ENDBLK
  5
1DF
330
1DD
100
AcDbEntity
  8
0
100
AcDbBlockEnd
  0
BLOCK
  5
1ED
330
1EC
100
AcDbEntity
  8
0
100
AcDbBlockBegin
  2
*D6
 70
1
 10
0.0
 20
0.0
 30
0.0
  3
*D6
  1

  0
LINE
  5
1EF
330
1EC
100
AcDbEntity
  8
0
 62
4
370
13
100
AcDbLine
 10
460.0
 20
299.0
 30
0.0
 11
460.0
 21
246.8
 31
0.0
  0
LINE
  5
1F0
330
1EC
100
AcDbEntity
  8
0
 62
4
370
13
100
AcDbLine
 10
540.0
 20
299.0
 30
0.0
 11
540.0
 21
246.8
 31
0.0
  0
INSERT
  5
1F1
330
1EC
100
AcDbEntity
  8
S-DIM
 62
4
100
AcDbBlockReference
  2
_ARCHTICK
 10
460.0
 20
248.0
 30
0.0
 41
1.6
 42
1.6
 50
180.0
  0
INSERT
  5
1F3
330
1EC
100
AcDbEntity
  8
S-DIM
 62
4
100
AcDbBlockReference
  2
_ARCHTICK
 10
540.0
 20
248.0
 30
0.0
 41
1.6
 42
1.6
  0
LINE
  5
1F5
330
1EC
100
AcDbEntity
  8
0
 62
4
370
13
100
AcDbLine
 10
460.0
 20
248.0
 30
0.0
 11
540.0
 21
248.0
 31
0.0
  0
MTEXT
  5
1F6
330
1EC
100
AcDbEntity
  8
S-DIM
 62
4
100
AcDbMText
 10
500.0
 20
249.7
 30
0.0
 40
1.8
 71
5
  1
2000
  7
OpenSansCondensed-Light
  0
POINT
  5
1F7
330
1EC
100
AcDbEntity
  8
Defpoints
100
AcDbPoint
 10
460.0
 20
248.0
 30
0.0
  0
POINT
  5
1F8
330
1EC
100
AcDbEntity
  8
Defpoints
100
AcDbPoint
 10
460.0
 20
300.0
 30
0.0
  0
POINT
  5
1F9
330
1EC
100
AcDbEntity
  8
Defpoints
100
AcDbPoint
 10
540.0
 20
300.0
 30
0.0
  0
ENDBLK
  5
1EE
330
1EC
100
AcDbEntity
  8
0
100
AcDbBlockEnd
  0
BLOCK
  5
1FC
330
1FB
100
AcDbEntity
  8
0
100
AcDbBlockBegin
  2
*D7
 70
1
 10
0.0
 20
0.0
 30
0.0
  3
*D7
  1

  0
LINE
  5
1FE
330
1FB
100
AcDbEntity
  8
0
 62
4
370
13
100
AcDbLine
 10
541.0
 20
300.0
 30
0.0
 11
561.2
 21
300.0
 31
0.0
  0
LINE
  5
1FF
330
1FB
100
AcDbEntity
  8
0
 62
4
370
13
100
AcDbLine
 10
541.0
 20
416.0
 30
0.0
 11
561.2
 21
416.0
 31
0.0
  0
INSERT
  5
200
330
1FB
100
AcDbEntity
  8
S-DIM
 62
4
100
AcDbBlockReference
  2
_ARCHTICK
 10
560.0
 20
300.0
 30
0.0
 41
1.6
 42
1.6
 50
270.0
  0
INSERT
  5
202
330
1FB
100
AcDbEntity
  8
S-DIM
 62
4
100
AcDbBlockReference
  2
_ARCHTICK
 10
560.0
 20
416.0
 30
0.0
 41
1.6
 42
1.6
 50
90.0
  0
LINE
  5
204
330
1FB
100
AcDbEntity
  8
0
 62
4
370
13
100
AcDbLine
 10
560.0
 20
300.0
 30
0.0
 11
560.0
 21
416.0
 31
0.0
  0
MTEXT
  5
205
330
1FB
100
AcDbEntity
  8
S-DIM
 62
4
100
AcDbMText
 10
558.3
 20
358.0
 30
0.0
 40
1.8
 71
5
  1
2900
  7
OpenSansCondensed-Light
 50
90.0
  0
POINT
  5
206
330
1FB
100
AcDbEntity
  8
Defpoints
100
AcDbPoint
 10
560.0
 20
300.0
 30
0.0
  0
POINT
  5
207
330
1FB
100
AcDbEntity
  8
Defpoints
100
AcDbPoint
 10
540.0
 20
300.0
 30
0.0
  0
POINT
  5
208
330
1FB
100
AcDbEntity
  8
Defpoints
100
AcDbPoint
 10
540.0
 20
416.0
 30
0.0
  0
ENDBLK
  5
1FD
330
1FB
100
AcDbEntity
  8
0
100
AcDbBlockEnd
  0
ENDSEC
  0
SECTION
  2
ENTITIES
  0
LWPOLYLINE
  5
B7
330
17
100
AcDbEntity
  8
S-TITLE
100
AcDbPolyline
 90
4
 70
1
 10
0.0
 20
0.0
 10
841.0
 20
0.0
 10
841.0
 20
594.0
 10
0.0
 20
594.0
  0
LWPOLYLINE
  5
B8
330
17
100
AcDbEntity
  8
S-TITLE
100
AcDbPolyline
 90
4
 70
1
 10
10.0
 20
10.0
 10
831.0
 20
10.0
 10
831.0
 20
584.0
 10
10.0
 20
584.0
  0
TEXT
  5
B9
330
17
100
AcDbEntity
  8
S-TITLE
100
AcDbText
 10
12.0
 20
576.5
 30
0.0
 40
5.0
  1
STRUCTURAL CAD - REINFORCEMENT PACKAGE
  7
OpenSans
 11
12.0
 21
576.5
 31
0.0
100
AcDbText
  0
TEXT
  5
BA
330
17
100
AcDbEntity
  8
S-TITLE
100
AcDbText
 10
12.0
 20
569.5
 30
0.0
 40
2.4
  1
R-603   ENTRY STAIRWELL REINFORCEMENT
  7
OpenSans
 11
12.0
 21
569.5
 31
0.0
100
AcDbText
  0
LINE
  5
BB
330
17
100
AcDbEntity
  8
S-TITLE
100
AcDbLine
 10
10.0
 20
566.5
 30
0.0
 11
831.0
 21
566.5
 31
0.0
  0
TEXT
  5
BC
330
17
100
AcDbEntity
  8
S-BLAST
100
AcDbText
 10
829.0
 20
577.0
 30
0.0
 40
2.0
  1
SENTRY POST EXCLUDED FROM THIS PACKAGE
  7
OpenSans
 72
2
 11
829.0
 21
577.0
 31
0.0
100
AcDbText
  0
TEXT
  5
BD
330
17
100
AcDbEntity
  8
S-BLAST
100
AcDbText
 10
829.0
 20
570.5
 30
0.0
 40
1.4
  1
ALL DESIGN ACTIONS ARE MANUAL CALCULATION - NOT DIRECT STAAD OUTPUT
  7
OpenSans
 72
2
 11
829.0
 21
570.5
 31
0.0
100
AcDbText
  0
TEXT
  5
BE
330
17
100
AcDbEntity
  8
S-BLAST
100
AcDbText
 10
12.0
 20
561.5
 30
0.0
 40
1.4
  1
OPEN ITEMS ON THIS SHEET:  C16 OPEN  NOT BLAST RATED
  7
OpenSans
 11
12.0
 21
561.5
 31
0.0
100
AcDbText
  0
LWPOLYLINE
  5
BF
330
17
100
AcDbEntity
  8
S-CONCRETE
100
AcDbPolyline
 90
7
 70
1
 10
291.25
 20
300.0
 10
297.5
 20
300.0
 10
297.5
 20
250.0
 10
455.0
 20
250.0
 10
461.25
 20
250.0
 10
461.25
 20
322.5
 10
291.25
 20
322.5
  0
LWPOLYLINE
  5
C0
330
17
100
AcDbEntity
  8
S-CONCRETE
100
AcDbPolyline
 90
4
 70
1
 10
297.5
 20
300.0
 10
335.0
 20
300.0
 10
335.0
 20
293.75
 10
297.5
 20
293.75
  0
HATCH
  5
C1
330
17
100
AcDbEntity
  8
S-HATCH
 62
7
100
AcDbHatch
 10
0.0
 20
0.0
 30
0.0
210
0.0
220
0.0
230
1.0
  2
ANSI31
 70
0
 71
0
 91
1
 92
3
 72
0
 73
1
 93
4
 10
297.5
 20
300.0
 10
335.0
 20
300.0
 10
335.0
 20
293.75
 10
297.5
 20
293.75
 97
0
 75
1
 76
1
 52
0.0
 41
1.6
 77
0
 78
1
 53
45.0
 43
0.0
 44
0.0
 45
-3.5921024485
 46
3.5921024485
 79
0
 98
0
  0
LWPOLYLINE
  5
C2
330
17
100
AcDbEntity
  8
S-CONCRETE
100
AcDbPolyline
 90
4
 70
1
 10
335.0
 20
300.0
 10
417.5
 20
250.0
 10
417.5
 20
243.75
 10
335.0
 20
293.75
  0
HATCH
  5
C3
330
17
100
AcDbEntity
  8
S-HATCH
 62
7
100
AcDbHatch
 10
0.0
 20
0.0
 30
0.0
210
0.0
220
0.0
230
1.0
  2
ANSI31
 70
0
 71
0
 91
1
 92
3
 72
0
 73
1
 93
4
 10
335.0
 20
300.0
 10
417.5
 20
250.0
 10
417.5
 20
243.75
 10
335.0
 20
293.75
 97
0
 75
1
 76
1
 52
0.0
 41
1.6
 77
0
 78
1
 53
45.0
 43
0.0
 44
0.0
 45
-3.5921024485
 46
3.5921024485
 79
0
 98
0
  0
LWPOLYLINE
  5
C4
330
17
100
AcDbEntity
  8
S-CONCRETE
100
AcDbPolyline
 90
4
 70
1
 10
417.5
 20
250.0
 10
455.0
 20
250.0
 10
455.0
 20
243.75
 10
417.5
 20
243.75
  0
HATCH
  5
C5
330
17
100
AcDbEntity
  8
S-HATCH
 62
7
100
AcDbHatch
 10
0.0
 20
0.0
 30
0.0
210
0.0
220
0.0
230
1.0
  2
ANSI31
 70
0
 71
0
 91
1
 92
3
 72
0
 73
1
 93
4
 10
417.5
 20
250.0
 10
455.0
 20
250.0
 10
455.0
 20
243.75
 10
417.5
 20
243.75
 97
0
 75
1
 76
1
 52
0.0
 41
1.6
 77
0
 78
1
 53
45.0
 43
0.0
 44
0.0
 45
-3.5921024485
 46
3.5921024485
 79
0
 98
0
  0
LINE
  5
C6
330
17
100
AcDbEntity
  8
S-CONCRETE-THIN
100
AcDbLine
 10
335.0
 20
300.0
 30
0.0
 11
335.0
 21
295.8333325
 31
0.0
  0
LINE
  5
C7
330
17
100
AcDbEntity
  8
S-CONCRETE-THIN
100
AcDbLine
 10
335.0
 20
295.8333325
 30
0.0
 11
342.5
 21
295.8333325
 31
0.0
  0
LINE
  5
C8
330
17
100
AcDbEntity
  8
S-CONCRETE-THIN
100
AcDbLine
 10
341.875
 20
295.8333333333333
 30
0.0
 11
341.875
 21
291.66666583333335
 31
0.0
  0
LINE
  5
C9
330
17
100
AcDbEntity
  8
S-CONCRETE-THIN
100
AcDbLine
 10
341.875
 20
291.66666583333335
 30
0.0
 11
349.375
 21
291.66666583333335
 31
0.0
  0
LINE
  5
CA
330
17
100
AcDbEntity
  8
S-CONCRETE-THIN
100
AcDbLine
 10
348.75
 20
291.6666666666667
 30
0.0
 11
348.75
 21
287.49999916666667
 31
0.0
  0
LINE
  5
CB
330
17
100
AcDbEntity
  8
S-CONCRETE-THIN
100
AcDbLine
 10
348.75
 20
287.49999916666667
 30
0.0
 11
356.25
 21
287.49999916666667
 31
0.0
  0
LINE
  5
CC
330
17
100
AcDbEntity
  8
S-CONCRETE-THIN
100
AcDbLine
 10
355.625
 20
287.5
 30
0.0
 11
355.625
 21
283.3333325
 31
0.0
  0
LINE
  5
CD
330
17
100
AcDbEntity
  8
S-CONCRETE-THIN
100
AcDbLine
 10
355.625
 20
283.3333325
 30
0.0
 11
363.125
 21
283.3333325
 31
0.0
  0
LINE
  5
CE
330
17
100
AcDbEntity
  8
S-CONCRETE-THIN
100
AcDbLine
 10
362.5
 20
283.3333333333333
 30
0.0
 11
362.5
 21
279.16666583333335
 31
0.0
  0
LINE
  5
CF
330
17
100
AcDbEntity
  8
S-CONCRETE-THIN
100
AcDbLine
 10
362.5
 20
279.16666583333335
 30
0.0
 11
370.0
 21
279.16666583333335
 31
0.0
  0
LINE
  5
D0
330
17
100
AcDbEntity
  8
S-CONCRETE-THIN
100
AcDbLine
 10
369.375
 20
279.1666666666667
 30
0.0
 11
369.375
 21
274.99999916666667
 31
0.0
  0
LINE
  5
D1
330
17
100
AcDbEntity
  8
S-CONCRETE-THIN
100
AcDbLine
 10
369.375
 20
274.99999916666667
 30
0.0
 11
376.875
 21
274.99999916666667
 31
0.0
  0
LINE
  5
D2
330
17
100
AcDbEntity
  8
S-CONCRETE-THIN
100
AcDbLine
 10
376.25
 20
275.0
 30
0.0
 11
376.25
 21
270.8333325
 31
0.0
  0
LINE
  5
D3
330
17
100
AcDbEntity
  8
S-CONCRETE-THIN
100
AcDbLine
 10
376.25
 20
270.8333325
 30
0.0
 11
383.75
 21
270.8333325
 31
0.0
  0
LINE
  5
D4
330
17
100
AcDbEntity
  8
S-CONCRETE-THIN
100
AcDbLine
 10
383.125
 20
270.8333333333333
 30
0.0
 11
383.125
 21
266.66666583333335
 31
0.0
  0
LINE
  5
D5
330
17
100
AcDbEntity
  8
S-CONCRETE-THIN
100
AcDbLine
 10
383.125
 20
266.66666583333335
 30
0.0
 11
390.625
 21
266.66666583333335
 31
0.0
  0
LINE
  5
D6
330
17
100
AcDbEntity
  8
S-CONCRETE-THIN
100
AcDbLine
 10
390.0
 20
266.6666666666667
 30
0.0
 11
390.0
 21
262.49999916666667
 31
0.0
  0
LINE
  5
D7
330
17
100
AcDbEntity
  8
S-CONCRETE-THIN
100
AcDbLine
 10
390.0
 20
262.49999916666667
 30
0.0
 11
397.5
 21
262.49999916666667
 31
0.0
  0
LINE
  5
D8
330
17
100
AcDbEntity
  8
S-CONCRETE-THIN
100
AcDbLine
 10
396.875
 20
262.5
 30
0.0
 11
396.875
 21
258.3333325
 31
0.0
  0
LINE
  5
D9
330
17
100
AcDbEntity
  8
S-CONCRETE-THIN
100
AcDbLine
 10
396.875
 20
258.3333325
 30
0.0
 11
404.375
 21
258.3333325
 31
0.0
  0
LINE
  5
DA
330
17
100
AcDbEntity
  8
S-CONCRETE-THIN
100
AcDbLine
 10
403.75
 20
258.3333333333333
 30
0.0
 11
403.75
 21
254.16666583333333
 31
0.0
  0
LINE
  5
DB
330
17
100
AcDbEntity
  8
S-CONCRETE-THIN
100
AcDbLine
 10
403.75
 20
254.16666583333333
 30
0.0
 11
411.25
 21
254.16666583333333
 31
0.0
  0
LINE
  5
DC
330
17
100
AcDbEntity
  8
S-CONCRETE-THIN
100
AcDbLine
 10
410.625
 20
254.16666666666669
 30
0.0
 11
410.625
 21
249.99999916666667
 31
0.0
  0
LINE
  5
DD
330
17
100
AcDbEntity
  8
S-CONCRETE-THIN
100
AcDbLine
 10
410.625
 20
249.99999916666667
 30
0.0
 11
418.125
 21
249.99999916666667
 31
0.0
  0
LWPOLYLINE
  5
DE
330
17
100
AcDbEntity
  8
S-CONCRETE
100
AcDbPolyline
 90
4
 70
1
 10
291.25
 20
361.25
 10
461.25
 20
311.25
 10
461.25
 20
305.0
 10
291.25
 20
355.0
  0
HATCH
  5
DF
330
17
100
AcDbEntity
  8
S-HATCH
 62
7
100
AcDbHatch
 10
0.0
 20
0.0
 30
0.0
210
0.0
220
0.0
230
1.0
  2
ANSI31
 70
0
 71
0
 91
1
 92
3
 72
0
 73
1
 93
4
 10
291.25
 20
361.25
 10
461.25
 20
311.25
 10
461.25
 20
305.0
 10
291.25
 20
355.0
 97
0
 75
1
 76
1
 52
0.0
 41
1.6
 77
0
 78
1
 53
45.0
 43
0.0
 44
0.0
 45
-3.5921024485
 46
3.5921024485
 79
0
 98
0
  0
LWPOLYLINE
  5
E0
330
17
100
AcDbEntity
  8
S-REBAR-MAIN
100
AcDbPolyline
 90
4
 70
0
 10
316.25
 20
297.0
 10
335.0
 20
297.0
 10
417.5
 20
247.0
 10
436.25
 20
247.0
  0
LWPOLYLINE
  5
E1
330
17
100
AcDbEntity
  8
S-REBAR-SEC
100
AcDbPolyline
 90
2
 70
0
 10
335.0
 20
298.5
 10
365.0
 20
280.25
  0
LWPOLYLINE
  5
E2
330
17
100
AcDbEntity
  8
S-REBAR-SEC
100
AcDbPolyline
 90
2
 70
0
 10
417.5
 20
248.5
 10
387.5
 20
266.75
  0
INSERT
  5
E3
330
17
100
AcDbEntity
  8
S-LEVEL
100
AcDbBlockReference
  2
LEVELMK
 10
315.0
 20
300.0
 30
0.0
  0
TEXT
  5
E5
330
17
100
AcDbEntity
  8
S-LEVEL
100
AcDbText
 10
318.0
 20
303.2
 30
0.0
 40
1.8
  1
0.000 GRADE
  7
OpenSans
 11
318.0
 21
303.2
 31
0.0
100
AcDbText
  0
INSERT
  5
E6
330
17
100
AcDbEntity
  8
S-LEVEL
100
AcDbBlockReference
  2
LEVELMK
 10
435.0
 20
250.0
 30
0.0
  0
TEXT
  5
E8
330
17
100
AcDbEntity
  8
S-LEVEL
100
AcDbText
 10
438.0
 20
253.2
 30
0.0
 40
1.8
  1
(-)2.000 PLATFORM
  7
OpenSans
 11
438.0
 21
253.2
 31
0.0
100
AcDbText
  0
INSERT
  5
E9
330
17
100
AcDbEntity
  8
S-LEVEL
100
AcDbBlockReference
  2
LEVELMK
 10
295.0
 20
361.25
 30
0.0
  0
TEXT
  5
EB
330
17
100
AcDbEntity
  8
S-LEVEL
100
AcDbText
 10
298.0
 20
364.45
 30
0.0
 40
1.8
  1
+2.450
  7
OpenSans
 11
298.0
 21
364.45
 31
0.0
100
AcDbText
  0
DIMENSION
  5
EC
330
17
100
AcDbEntity
  8
S-DIM
100
AcDbDimension
280
0
  2
*D1
  3
SC-DIM
 10
335.0
 20
227.5
 30
0.0
 11
376.25
 21
229.2
 31
0.0
 70
32
 71
5
  1
<>
100
AcDbAlignedDimension
 13
335.0
 23
243.75
 33
0.0
 14
417.5
 24
243.75
 34
0.0
 50
0.0
100
AcDbRotatedDimension
1001
ACAD
1000
DSTYLE
1002
{
1070
144
1040
40.0
1002
}
  0
DIMENSION
  5
FB
330
17
100
AcDbEntity
  8
S-DIM
100
AcDbDimension
280
0
  2
*D2
  3
SC-DIM
 10
297.5
 20
227.5
 30
0.0
 11
316.25
 21
229.2
 31
0.0
 70
32
 71
5
  1
<>
100
AcDbAlignedDimension
 13
297.5
 23
243.75
 33
0.0
 14
335.0
 24
243.75
 34
0.0
 50
0.0
100
AcDbRotatedDimension
1001
ACAD
1000
DSTYLE
1002
{
1070
144
1040
40.0
1002
}
  0
DIMENSION
  5
10A
330
17
100
AcDbEntity
  8
S-DIM
100
AcDbDimension
280
0
  2
*D3
  3
SC-DIM
 10
417.5
 20
227.5
 30
0.0
 11
436.25
 21
229.2
 31
0.0
 70
32
 71
5
  1
<>
100
AcDbAlignedDimension
 13
417.5
 23
243.75
 33
0.0
 14
455.0
 24
243.75
 34
0.0
 50
0.0
100
AcDbRotatedDimension
1001
ACAD
1000
DSTYLE
1002
{
1070
144
1040
40.0
1002
}
  0
DIMENSION
  5
119
330
17
100
AcDbEntity
  8
S-DIM
100
AcDbDimension
280
0
  2
*D4
  3
SC-DIM
 10
475.0
 20
250.0
 30
0.0
 11
473.3
 21
275.0
 31
0.0
 70
32
 71
5
  1
<>
100
AcDbAlignedDimension
 13
461.25
 23
250.0
 33
0.0
 14
461.25
 24
300.0
 34
0.0
 50
90.0
100
AcDbRotatedDimension
1001
ACAD
1000
DSTYLE
1002
{
1070
144
1040
40.0
1002
}
  0
INSERT
  5
128
330
17
100
AcDbEntity
  8
S-CALLOUT
100
AcDbBlockReference
  2
BARMARK
 10
334.0
 20
258.0
 30
0.0
  0
TEXT
  5
12A
330
17
100
AcDbEntity
  8
S-CALLOUT
100
AcDbText
 10
334.0
 20
258.0
 30
0.0
 40
2.0
  1
E01
  7
OpenSans
 72
1
 11
334.0
 21
258.0
 31
0.0
100
AcDbText
 73
2
  0
LEADER
  5
12B
330
17
100
AcDbEntity
  8
S-CALLOUT
100
AcDbLeader
  3
SC-DIM
 73
3
 76
2
 10
375.0
 20
262.5
 30
0.0
 10
334.0
 20
258.0
 30
0.0
  0
INSERT
  5
12C
330
17
100
AcDbEntity
  8
S-CALLOUT
100
AcDbBlockReference
  2
BARMARK
 10
250.0
 20
322.0
 30
0.0
  0
TEXT
  5
12E
330
17
100
AcDbEntity
  8
S-CALLOUT
100
AcDbText
 10
250.0
 20
322.0
 30
0.0
 40
2.0
  1
E03
  7
OpenSans
 72
1
 11
250.0
 21
322.0
 31
0.0
100
AcDbText
 73
2
  0
LEADER
  5
12F
330
17
100
AcDbEntity
  8
S-CALLOUT
100
AcDbLeader
  3
SC-DIM
 73
3
 76
2
 10
352.5
 20
288.0
 30
0.0
 10
250.0
 20
322.0
 30
0.0
  0
INSERT
  5
130
330
17
100
AcDbEntity
  8
S-CALLOUT
100
AcDbBlockReference
  2
BARMARK
 10
150.0
 20
400.0
 30
0.0
  0
TEXT
  5
132
330
17
100
AcDbEntity
  8
S-CALLOUT
100
AcDbText
 10
150.0
 20
400.0
 30
0.0
 40
2.0
  1
E05A
  7
OpenSans
 72
1
 11
150.0
 21
400.0
 31
0.0
100
AcDbText
 73
2
  0
LEADER
  5
133
330
17
100
AcDbEntity
  8
S-CALLOUT
100
AcDbLeader
  3
SC-DIM
 73
3
 76
2
 10
335.0
 20
342.5
 30
0.0
 10
150.0
 20
400.0
 30
0.0
  0
INSERT
  5
134
330
17
100
AcDbEntity
  8
S-CALLOUT
100
AcDbBlockReference
  2
BARMARK
 10
110.0
 20
322.0
 30
0.0
  0
TEXT
  5
136
330
17
100
AcDbEntity
  8
S-CALLOUT
100
AcDbText
 10
110.0
 20
322.0
 30
0.0
 40
2.0
  1
E06
  7
OpenSans
 72
1
 11
110.0
 21
322.0
 31
0.0
100
AcDbText
 73
2
  0
LEADER
  5
137
330
17
100
AcDbEntity
  8
S-CALLOUT
100
AcDbLeader
  3
SC-DIM
 73
3
 76
2
 10
315.0
 20
297.0
 30
0.0
 10
110.0
 20
322.0
 30
0.0
  0
INSERT
  5
138
330
17
100
AcDbEntity
  8
S-CALLOUT
100
AcDbBlockReference
  2
BARMARK
 10
398.0
 20
258.0
 30
0.0
  0
TEXT
  5
13A
330
17
100
AcDbEntity
  8
S-CALLOUT
100
AcDbText
 10
398.0
 20
258.0
 30
0.0
 40
2.0
  1
E07
  7
OpenSans
 72
1
 11
398.0
 21
258.0
 31
0.0
100
AcDbText
 73
2
  0
LEADER
  5
13B
330
17
100
AcDbEntity
  8
S-CALLOUT
100
AcDbLeader
  3
SC-DIM
 73
3
 76
2
 10
437.5
 20
247.0
 30
0.0
 10
398.0
 20
258.0
 30
0.0
  0
TEXT
  5
13C
330
17
100
AcDbEntity
  8
S-TITLE
100
AcDbText
 10
30.0
 20
552.0
 30
0.0
 40
3.5
  1
V1   ENTRY STAIRWELL - LONGITUDINAL SECTION
  7
OpenSans
 11
30.0
 21
552.0
 31
0.0
100
AcDbText
  0
LINE
  5
13D
330
17
100
AcDbEntity
  8
S-TITLE
100
AcDbLine
 10
30.0
 20
550.2
 30
0.0
 11
149.17113194909578
 21
550.2
 31
0.0
  0
TEXT
  5
13E
330
17
100
AcDbEntity
  8
S-TEXT
100
AcDbText
 10
30.0
 20
544.8
 30
0.0
 40
2.0
  1
SCALE 1:40
  7
OpenSans
 11
30.0
 21
544.8
 31
0.0
100
AcDbText
  0
TEXT
  5
13F
330
17
100
AcDbEntity
  8
S-BLAST
100
AcDbText
 10
30.0
 20
230.0
 30
0.0
 40
1.4
  1
*** C16 OPEN - THE ROOF / PLATFORM JUNCTION IS NOT RESOLVED.  DETAILED AT 250. ***
  7
OpenSans
 11
30.0
 21
230.0
 31
0.0
100
AcDbText
  0
LWPOLYLINE
  5
140
330
17
100
AcDbEntity
  8
S-CONCRETE
100
AcDbPolyline
 90
4
 70
1
 10
460.0
 20
300.0
 10
470.0
 20
300.0
 10
470.0
 20
416.0
 10
460.0
 20
416.0
  0
LWPOLYLINE
  5
141
330
17
100
AcDbEntity
  8
S-CONCRETE
100
AcDbPolyline
 90
4
 70
1
 10
530.0
 20
300.0
 10
540.0
 20
300.0
 10
540.0
 20
416.0
 10
530.0
 20
416.0
  0
LWPOLYLINE
  5
142
330
17
100
AcDbEntity
  8
S-CONCRETE
100
AcDbPolyline
 90
4
 70
1
 10
460.0
 20
300.0
 10
540.0
 20
300.0
 10
540.0
 20
288.0
 10
460.0
 20
288.0
  0
LWPOLYLINE
  5
143
330
17
100
AcDbEntity
  8
S-CONCRETE
100
AcDbPolyline
 90
4
 70
1
 10
460.0
 20
416.0
 10
540.0
 20
416.0
 10
540.0
 20
426.0
 10
460.0
 20
426.0
  0
HATCH
  5
144
330
17
100
AcDbEntity
  8
S-HATCH
 62
7
100
AcDbHatch
 10
0.0
 20
0.0
 30
0.0
210
0.0
220
0.0
230
1.0
  2
ANSI31
 70
0
 71
0
 91
1
 92
3
 72
0
 73
1
 93
4
 10
460.0
 20
300.0
 10
470.0
 20
300.0
 10
470.0
 20
416.0
 10
460.0
 20
416.0
 97
0
 75
1
 76
1
 52
0.0
 41
1.6
 77
0
 78
1
 53
45.0
 43
0.0
 44
0.0
 45
-3.5921024485
 46
3.5921024485
 79
0
 98
0
  0
HATCH
  5
145
330
17
100
AcDbEntity
  8
S-HATCH
 62
7
100
AcDbHatch
 10
0.0
 20
0.0
 30
0.0
210
0.0
220
0.0
230
1.0
  2
ANSI31
 70
0
 71
0
 91
1
 92
3
 72
0
 73
1
 93
4
 10
530.0
 20
300.0
 10
540.0
 20
300.0
 10
540.0
 20
416.0
 10
530.0
 20
416.0
 97
0
 75
1
 76
1
 52
0.0
 41
1.6
 77
0
 78
1
 53
45.0
 43
0.0
 44
0.0
 45
-3.5921024485
 46
3.5921024485
 79
0
 98
0
  0
HATCH
  5
146
330
17
100
AcDbEntity
  8
S-HATCH
 62
7
100
AcDbHatch
 10
0.0
 20
0.0
 30
0.0
210
0.0
220
0.0
230
1.0
  2
ANSI31
 70
0
 71
0
 91
1
 92
3
 72
0
 73
1
 93
4
 10
460.0
 20
288.0
 10
540.0
 20
288.0
 10
540.0
 20
300.0
 10
460.0
 20
300.0
 97
0
 75
1
 76
1
 52
0.0
 41
1.6
 77
0
 78
1
 53
45.0
 43
0.0
 44
0.0
 45
-3.5921024485
 46
3.5921024485
 79
0
 98
0
  0
HATCH
  5
147
330
17
100
AcDbEntity
  8
S-HATCH
 62
7
100
AcDbHatch
 10
0.0
 20
0.0
 30
0.0
210
0.0
220
0.0
230
1.0
  2
ANSI31
 70
0
 71
0
 91
1
 92
3
 72
0
 73
1
 93
4
 10
460.0
 20
416.0
 10
540.0
 20
416.0
 10
540.0
 20
426.0
 10
460.0
 20
426.0
 97
0
 75
1
 76
1
 52
0.0
 41
1.6
 77
0
 78
1
 53
45.0
 43
0.0
 44
0.0
 45
-3.5921024485
 46
3.5921024485
 79
0
 98
0
  0
LINE
  5
148
330
17
100
AcDbEntity
  8
S-REBAR-MAIN
100
AcDbLine
 10
462.24
 20
301.6
 30
0.0
 11
462.24
 21
414.4
 31
0.0
  0
LINE
  5
149
330
17
100
AcDbEntity
  8
S-REBAR-MAIN
100
AcDbLine
 10
537.76
 20
301.6
 30
0.0
 11
537.76
 21
414.4
 31
0.0
  0
CIRCLE
  5
14A
330
17
100
AcDbEntity
  8
S-REBAR-MAIN
100
AcDbCircle
 10
462.24
 20
308.0
 30
0.0
 40
0.6
  0
HATCH
  5
14B
330
17
100
AcDbEntity
  8
S-REBAR-MAIN
 62
1
100
AcDbHatch
 10
0.0
 20
0.0
 30
0.0
210
0.0
220
0.0
230
1.0
  2
SOLID
 70
1
 71
0
 91
1
 92
3
 72
0
 73
1
 93
16
 10
462.84000000000003
 20
308.0
 10
462.7943277195068
 20
308.22961005941903
 10
462.66426406871193
 20
308.4242640687119
 10
462.46961005941904
 20
308.5543277195068
 10
462.24
 20
308.6
 10
462.010389940581
 20
308.5543277195068
 10
461.8157359312881
 20
308.4242640687119
 10
461.68567228049324
 20
308.22961005941903
 10
461.64
 20
308.0
 10
461.68567228049324
 20
307.77038994058097
 10
461.8157359312881
 20
307.5757359312881
 10
462.010389940581
 20
307.4456722804932
 10
462.24
 20
307.4
 10
462.46961005941904
 20
307.4456722804932
 10
462.66426406871193
 20
307.5757359312881
 10
462.7943277195068
 20
307.77038994058097
 97
0
 75
0
 76
1
 98
0
  0
CIRCLE
  5
14C
330
17
100
AcDbEntity
  8
S-REBAR-MAIN
100
AcDbCircle
 10
462.24
 20
316.0
 30
0.0
 40
0.6
  0
HATCH
  5
14D
330
17
100
AcDbEntity
  8
S-REBAR-MAIN
 62
1
100
AcDbHatch
 10
0.0
 20
0.0
 30
0.0
210
0.0
220
0.0
230
1.0
  2
SOLID
 70
1
 71
0
 91
1
 92
3
 72
0
 73
1
 93
16
 10
462.84000000000003
 20
316.0
 10
462.7943277195068
 20
316.22961005941903
 10
462.66426406871193
 20
316.4242640687119
 10
462.46961005941904
 20
316.5543277195068
 10
462.24
 20
316.6
 10
462.010389940581
 20
316.5543277195068
 10
461.8157359312881
 20
316.4242640687119
 10
461.68567228049324
 20
316.22961005941903
 10
461.64
 20
316.0
 10
461.68567228049324
 20
315.77038994058097
 10
461.8157359312881
 20
315.5757359312881
 10
462.010389940581
 20
315.4456722804932
 10
462.24
 20
315.4
 10
462.46961005941904
 20
315.4456722804932
 10
462.66426406871193
 20
315.5757359312881
 10
462.7943277195068
 20
315.77038994058097
 97
0
 75
0
 76
1
 98
0
  0
CIRCLE
  5
14E
330
17
100
AcDbEntity
  8
S-REBAR-MAIN
100
AcDbCircle
 10
462.24
 20
324.0
 30
0.0
 40
0.6
  0
HATCH
  5
14F
330
17
100
AcDbEntity
  8
S-REBAR-MAIN
 62
1
100
AcDbHatch
 10
0.0
 20
0.0
 30
0.0
210
0.0
220
0.0
230
1.0
  2
SOLID
 70
1
 71
0
 91
1
 92
3
 72
0
 73
1
 93
16
 10
462.84000000000003
 20
324.0
 10
462.7943277195068
 20
324.22961005941903
 10
462.66426406871193
 20
324.4242640687119
 10
462.46961005941904
 20
324.5543277195068
 10
462.24
 20
324.6
 10
462.010389940581
 20
324.5543277195068
 10
461.8157359312881
 20
324.4242640687119
 10
461.68567228049324
 20
324.22961005941903
 10
461.64
 20
324.0
 10
461.68567228049324
 20
323.77038994058097
 10
461.8157359312881
 20
323.5757359312881
 10
462.010389940581
 20
323.4456722804932
 10
462.24
 20
323.4
 10
462.46961005941904
 20
323.4456722804932
 10
462.66426406871193
 20
323.5757359312881
 10
462.7943277195068
 20
323.77038994058097
 97
0
 75
0
 76
1
 98
0
  0
CIRCLE
  5
150
330
17
100
AcDbEntity
  8
S-REBAR-MAIN
100
AcDbCircle
 10
462.24
 20
332.0
 30
0.0
 40
0.6
  0
HATCH
  5
151
330
17
100
AcDbEntity
  8
S-REBAR-MAIN
 62
1
100
AcDbHatch
 10
0.0
 20
0.0
 30
0.0
210
0.0
220
0.0
230
1.0
  2
SOLID
 70
1
 71
0
 91
1
 92
3
 72
0
 73
1
 93
16
 10
462.84000000000003
 20
332.0
 10
462.7943277195068
 20
332.22961005941903
 10
462.66426406871193
 20
332.4242640687119
 10
462.46961005941904
 20
332.5543277195068
 10
462.24
 20
332.6
 10
462.010389940581
 20
332.5543277195068
 10
461.8157359312881
 20
332.4242640687119
 10
461.68567228049324
 20
332.22961005941903
 10
461.64
 20
332.0
 10
461.68567228049324
 20
331.77038994058097
 10
461.8157359312881
 20
331.5757359312881
 10
462.010389940581
 20
331.4456722804932
 10
462.24
 20
331.4
 10
462.46961005941904
 20
331.4456722804932
 10
462.66426406871193
 20
331.5757359312881
 10
462.7943277195068
 20
331.77038994058097
 97
0
 75
0
 76
1
 98
0
  0
CIRCLE
  5
152
330
17
100
AcDbEntity
  8
S-REBAR-MAIN
100
AcDbCircle
 10
462.24
 20
340.0
 30
0.0
 40
0.6
  0
HATCH
  5
153
330
17
100
AcDbEntity
  8
S-REBAR-MAIN
 62
1
100
AcDbHatch
 10
0.0
 20
0.0
 30
0.0
210
0.0
220
0.0
230
1.0
  2
SOLID
 70
1
 71
0
 91
1
 92
3
 72
0
 73
1
 93
16
 10
462.84000000000003
 20
340.0
 10
462.7943277195068
 20
340.22961005941903
 10
462.66426406871193
 20
340.4242640687119
 10
462.46961005941904
 20
340.5543277195068
 10
462.24
 20
340.6
 10
462.010389940581
 20
340.5543277195068
 10
461.8157359312881
 20
340.4242640687119
 10
461.68567228049324
 20
340.22961005941903
 10
461.64
 20
340.0
 10
461.68567228049324
 20
339.77038994058097
 10
461.8157359312881
 20
339.5757359312881
 10
462.010389940581
 20
339.4456722804932
 10
462.24
 20
339.4
 10
462.46961005941904
 20
339.4456722804932
 10
462.66426406871193
 20
339.5757359312881
 10
462.7943277195068
 20
339.77038994058097
 97
0
 75
0
 76
1
 98
0
  0
CIRCLE
  5
154
330
17
100
AcDbEntity
  8
S-REBAR-MAIN
100
AcDbCircle
 10
462.24
 20
348.0
 30
0.0
 40
0.6
  0
HATCH
  5
155
330
17
100
AcDbEntity
  8
S-REBAR-MAIN
 62
1
100
AcDbHatch
 10
0.0
 20
0.0
 30
0.0
210
0.0
220
0.0
230
1.0
  2
SOLID
 70
1
 71
0
 91
1
 92
3
 72
0
 73
1
 93
16
 10
462.84000000000003
 20
348.0
 10
462.7943277195068
 20
348.22961005941903
 10
462.66426406871193
 20
348.4242640687119
 10
462.46961005941904
 20
348.5543277195068
 10
462.24
 20
348.6
 10
462.010389940581
 20
348.5543277195068
 10
461.8157359312881
 20
348.4242640687119
 10
461.68567228049324
 20
348.22961005941903
 10
461.64
 20
348.0
 10
461.68567228049324
 20
347.77038994058097
 10
461.8157359312881
 20
347.5757359312881
 10
462.010389940581
 20
347.4456722804932
 10
462.24
 20
347.4
 10
462.46961005941904
 20
347.4456722804932
 10
462.66426406871193
 20
347.5757359312881
 10
462.7943277195068
 20
347.77038994058097
 97
0
 75
0
 76
1
 98
0
  0
CIRCLE
  5
156
330
17
100
AcDbEntity
  8
S-REBAR-MAIN
100
AcDbCircle
 10
462.24
 20
356.0
 30
0.0
 40
0.6
  0
HATCH
  5
157
330
17
100
AcDbEntity
  8
S-REBAR-MAIN
 62
1
100
AcDbHatch
 10
0.0
 20
0.0
 30
0.0
210
0.0
220
0.0
230
1.0
  2
SOLID
 70
1
 71
0
 91
1
 92
3
 72
0
 73
1
 93
16
 10
462.84000000000003
 20
356.0
 10
462.7943277195068
 20
356.22961005941903
 10
462.66426406871193
 20
356.4242640687119
 10
462.46961005941904
 20
356.5543277195068
 10
462.24
 20
356.6
 10
462.010389940581
 20
356.5543277195068
 10
461.8157359312881
 20
356.4242640687119
 10
461.68567228049324
 20
356.22961005941903
 10
461.64
 20
356.0
 10
461.68567228049324
 20
355.77038994058097
 10
461.8157359312881
 20
355.5757359312881
 10
462.010389940581
 20
355.4456722804932
 10
462.24
 20
355.4
 10
462.46961005941904
 20
355.4456722804932
 10
462.66426406871193
 20
355.5757359312881
 10
462.7943277195068
 20
355.77038994058097
 97
0
 75
0
 76
1
 98
0
  0
CIRCLE
  5
158
330
17
100
AcDbEntity
  8
S-REBAR-MAIN
100
AcDbCircle
 10
462.24
 20
364.0
 30
0.0
 40
0.6
  0
HATCH
  5
159
330
17
100
AcDbEntity
  8
S-REBAR-MAIN
 62
1
100
AcDbHatch
 10
0.0
 20
0.0
 30
0.0
210
0.0
220
0.0
230
1.0
  2
SOLID
 70
1
 71
0
 91
1
 92
3
 72
0
 73
1
 93
16
 10
462.84000000000003
 20
364.0
 10
462.7943277195068
 20
364.22961005941903
 10
462.66426406871193
 20
364.4242640687119
 10
462.46961005941904
 20
364.5543277195068
 10
462.24
 20
364.6
 10
462.010389940581
 20
364.5543277195068
 10
461.8157359312881
 20
364.4242640687119
 10
461.68567228049324
 20
364.22961005941903
 10
461.64
 20
364.0
 10
461.68567228049324
 20
363.77038994058097
 10
461.8157359312881
 20
363.5757359312881
 10
462.010389940581
 20
363.4456722804932
 10
462.24
 20
363.4
 10
462.46961005941904
 20
363.4456722804932
 10
462.66426406871193
 20
363.5757359312881
 10
462.7943277195068
 20
363.77038994058097
 97
0
 75
0
 76
1
 98
0
  0
CIRCLE
  5
15A
330
17
100
AcDbEntity
  8
S-REBAR-MAIN
100
AcDbCircle
 10
462.24
 20
372.0
 30
0.0
 40
0.6
  0
HATCH
  5
15B
330
17
100
AcDbEntity
  8
S-REBAR-MAIN
 62
1
100
AcDbHatch
 10
0.0
 20
0.0
 30
0.0
210
0.0
220
0.0
230
1.0
  2
SOLID
 70
1
 71
0
 91
1
 92
3
 72
0
 73
1
 93
16
 10
462.84000000000003
 20
372.0
 10
462.7943277195068
 20
372.22961005941903
 10
462.66426406871193
 20
372.4242640687119
 10
462.46961005941904
 20
372.5543277195068
 10
462.24
 20
372.6
 10
462.010389940581
 20
372.5543277195068
 10
461.8157359312881
 20
372.4242640687119
 10
461.68567228049324
 20
372.22961005941903
 10
461.64
 20
372.0
 10
461.68567228049324
 20
371.77038994058097
 10
461.8157359312881
 20
371.5757359312881
 10
462.010389940581
 20
371.4456722804932
 10
462.24
 20
371.4
 10
462.46961005941904
 20
371.4456722804932
 10
462.66426406871193
 20
371.5757359312881
 10
462.7943277195068
 20
371.77038994058097
 97
0
 75
0
 76
1
 98
0
  0
CIRCLE
  5
15C
330
17
100
AcDbEntity
  8
S-REBAR-MAIN
100
AcDbCircle
 10
462.24
 20
380.0
 30
0.0
 40
0.6
  0
HATCH
  5
15D
330
17
100
AcDbEntity
  8
S-REBAR-MAIN
 62
1
100
AcDbHatch
 10
0.0
 20
0.0
 30
0.0
210
0.0
220
0.0
230
1.0
  2
SOLID
 70
1
 71
0
 91
1
 92
3
 72
0
 73
1
 93
16
 10
462.84000000000003
 20
380.0
 10
462.7943277195068
 20
380.22961005941903
 10
462.66426406871193
 20
380.4242640687119
 10
462.46961005941904
 20
380.5543277195068
 10
462.24
 20
380.6
 10
462.010389940581
 20
380.5543277195068
 10
461.8157359312881
 20
380.4242640687119
 10
461.68567228049324
 20
380.22961005941903
 10
461.64
 20
380.0
 10
461.68567228049324
 20
379.77038994058097
 10
461.8157359312881
 20
379.5757359312881
 10
462.010389940581
 20
379.4456722804932
 10
462.24
 20
379.4
 10
462.46961005941904
 20
379.4456722804932
 10
462.66426406871193
 20
379.5757359312881
 10
462.7943277195068
 20
379.77038994058097
 97
0
 75
0
 76
1
 98
0
  0
CIRCLE
  5
15E
330
17
100
AcDbEntity
  8
S-REBAR-MAIN
100
AcDbCircle
 10
462.24
 20
388.0
 30
0.0
 40
0.6
  0
HATCH
  5
15F
330
17
100
AcDbEntity
  8
S-REBAR-MAIN
 62
1
100
AcDbHatch
 10
0.0
 20
0.0
 30
0.0
210
0.0
220
0.0
230
1.0
  2
SOLID
 70
1
 71
0
 91
1
 92
3
 72
0
 73
1
 93
16
 10
462.84000000000003
 20
388.0
 10
462.7943277195068
 20
388.22961005941903
 10
462.66426406871193
 20
388.4242640687119
 10
462.46961005941904
 20
388.5543277195068
 10
462.24
 20
388.6
 10
462.010389940581
 20
388.5543277195068
 10
461.8157359312881
 20
388.4242640687119
 10
461.68567228049324
 20
388.22961005941903
 10
461.64
 20
388.0
 10
461.68567228049324
 20
387.77038994058097
 10
461.8157359312881
 20
387.5757359312881
 10
462.010389940581
 20
387.4456722804932
 10
462.24
 20
387.4
 10
462.46961005941904
 20
387.4456722804932
 10
462.66426406871193
 20
387.5757359312881
 10
462.7943277195068
 20
387.77038994058097
 97
0
 75
0
 76
1
 98
0
  0
CIRCLE
  5
160
330
17
100
AcDbEntity
  8
S-REBAR-MAIN
100
AcDbCircle
 10
462.24
 20
396.0
 30
0.0
 40
0.6
  0
HATCH
  5
161
330
17
100
AcDbEntity
  8
S-REBAR-MAIN
 62
1
100
AcDbHatch
 10
0.0
 20
0.0
 30
0.0
210
0.0
220
0.0
230
1.0
  2
SOLID
 70
1
 71
0
 91
1
 92
3
 72
0
 73
1
 93
16
 10
462.84000000000003
 20
396.0
 10
462.7943277195068
 20
396.22961005941903
 10
462.66426406871193
 20
396.4242640687119
 10
462.46961005941904
 20
396.5543277195068
 10
462.24
 20
396.6
 10
462.010389940581
 20
396.5543277195068
 10
461.8157359312881
 20
396.4242640687119
 10
461.68567228049324
 20
396.22961005941903
 10
461.64
 20
396.0
 10
461.68567228049324
 20
395.77038994058097
 10
461.8157359312881
 20
395.5757359312881
 10
462.010389940581
 20
395.4456722804932
 10
462.24
 20
395.4
 10
462.46961005941904
 20
395.4456722804932
 10
462.66426406871193
 20
395.5757359312881
 10
462.7943277195068
 20
395.77038994058097
 97
0
 75
0
 76
1
 98
0
  0
CIRCLE
  5
162
330
17
100
AcDbEntity
  8
S-REBAR-MAIN
100
AcDbCircle
 10
462.24
 20
404.0
 30
0.0
 40
0.6
  0
HATCH
  5
163
330
17
100
AcDbEntity
  8
S-REBAR-MAIN
 62
1
100
AcDbHatch
 10
0.0
 20
0.0
 30
0.0
210
0.0
220
0.0
230
1.0
  2
SOLID
 70
1
 71
0
 91
1
 92
3
 72
0
 73
1
 93
16
 10
462.84000000000003
 20
404.0
 10
462.7943277195068
 20
404.22961005941903
 10
462.66426406871193
 20
404.4242640687119
 10
462.46961005941904
 20
404.5543277195068
 10
462.24
 20
404.6
 10
462.010389940581
 20
404.5543277195068
 10
461.8157359312881
 20
404.4242640687119
 10
461.68567228049324
 20
404.22961005941903
 10
461.64
 20
404.0
 10
461.68567228049324
 20
403.77038994058097
 10
461.8157359312881
 20
403.5757359312881
 10
462.010389940581
 20
403.4456722804932
 10
462.24
 20
403.4
 10
462.46961005941904
 20
403.4456722804932
 10
462.66426406871193
 20
403.5757359312881
 10
462.7943277195068
 20
403.77038994058097
 97
0
 75
0
 76
1
 98
0
  0
CIRCLE
  5
164
330
17
100
AcDbEntity
  8
S-REBAR-MAIN
100
AcDbCircle
 10
462.24
 20
412.0
 30
0.0
 40
0.6
  0
HATCH
  5
165
330
17
100
AcDbEntity
  8
S-REBAR-MAIN
 62
1
100
AcDbHatch
 10
0.0
 20
0.0
 30
0.0
210
0.0
220
0.0
230
1.0
  2
SOLID
 70
1
 71
0
 91
1
 92
3
 72
0
 73
1
 93
16
 10
462.84000000000003
 20
412.0
 10
462.7943277195068
 20
412.22961005941903
 10
462.66426406871193
 20
412.4242640687119
 10
462.46961005941904
 20
412.5543277195068
 10
462.24
 20
412.6
 10
462.010389940581
 20
412.5543277195068
 10
461.8157359312881
 20
412.4242640687119
 10
461.68567228049324
 20
412.22961005941903
 10
461.64
 20
412.0
 10
461.68567228049324
 20
411.77038994058097
 10
461.8157359312881
 20
411.5757359312881
 10
462.010389940581
 20
411.4456722804932
 10
462.24
 20
411.4
 10
462.46961005941904
 20
411.4456722804932
 10
462.66426406871193
 20
411.5757359312881
 10
462.7943277195068
 20
411.77038994058097
 97
0
 75
0
 76
1
 98
0
  0
CIRCLE
  5
166
330
17
100
AcDbEntity
  8
S-REBAR-MAIN
100
AcDbCircle
 10
537.76
 20
308.0
 30
0.0
 40
0.6
  0
HATCH
  5
167
330
17
100
AcDbEntity
  8
S-REBAR-MAIN
 62
1
100
AcDbHatch
 10
0.0
 20
0.0
 30
0.0
210
0.0
220
0.0
230
1.0
  2
SOLID
 70
1
 71
0
 91
1
 92
3
 72
0
 73
1
 93
16
 10
538.36
 20
308.0
 10
538.3143277195068
 20
308.22961005941903
 10
538.184264068712
 20
308.4242640687119
 10
537.9896100594191
 20
308.5543277195068
 10
537.76
 20
308.6
 10
537.5303899405809
 20
308.5543277195068
 10
537.335735931288
 20
308.4242640687119
 10
537.2056722804932
 20
308.22961005941903
 10
537.16
 20
308.0
 10
537.2056722804932
 20
307.77038994058097
 10
537.335735931288
 20
307.5757359312881
 10
537.5303899405809
 20
307.4456722804932
 10
537.76
 20
307.4
 10
537.9896100594191
 20
307.4456722804932
 10
538.184264068712
 20
307.5757359312881
 10
538.3143277195068
 20
307.77038994058097
 97
0
 75
0
 76
1
 98
0
  0
CIRCLE
  5
168
330
17
100
AcDbEntity
  8
S-REBAR-MAIN
100
AcDbCircle
 10
537.76
 20
316.0
 30
0.0
 40
0.6
  0
HATCH
  5
169
330
17
100
AcDbEntity
  8
S-REBAR-MAIN
 62
1
100
AcDbHatch
 10
0.0
 20
0.0
 30
0.0
210
0.0
220
0.0
230
1.0
  2
SOLID
 70
1
 71
0
 91
1
 92
3
 72
0
 73
1
 93
16
 10
538.36
 20
316.0
 10
538.3143277195068
 20
316.22961005941903
 10
538.184264068712
 20
316.4242640687119
 10
537.9896100594191
 20
316.5543277195068
 10
537.76
 20
316.6
 10
537.5303899405809
 20
316.5543277195068
 10
537.335735931288
 20
316.4242640687119
 10
537.2056722804932
 20
316.22961005941903
 10
537.16
 20
316.0
 10
537.2056722804932
 20
315.77038994058097
 10
537.335735931288
 20
315.5757359312881
 10
537.5303899405809
 20
315.4456722804932
 10
537.76
 20
315.4
 10
537.9896100594191
 20
315.4456722804932
 10
538.184264068712
 20
315.5757359312881
 10
538.3143277195068
 20
315.77038994058097
 97
0
 75
0
 76
1
 98
0
  0
CIRCLE
  5
16A
330
17
100
AcDbEntity
  8
S-REBAR-MAIN
100
AcDbCircle
 10
537.76
 20
324.0
 30
0.0
 40
0.6
  0
HATCH
  5
16B
330
17
100
AcDbEntity
  8
S-REBAR-MAIN
 62
1
100
AcDbHatch
 10
0.0
 20
0.0
 30
0.0
210
0.0
220
0.0
230
1.0
  2
SOLID
 70
1
 71
0
 91
1
 92
3
 72
0
 73
1
 93
16
 10
538.36
 20
324.0
 10
538.3143277195068
 20
324.22961005941903
 10
538.184264068712
 20
324.4242640687119
 10
537.9896100594191
 20
324.5543277195068
 10
537.76
 20
324.6
 10
537.5303899405809
 20
324.5543277195068
 10
537.335735931288
 20
324.4242640687119
 10
537.2056722804932
 20
324.22961005941903
 10
537.16
 20
324.0
 10
537.2056722804932
 20
323.77038994058097
 10
537.335735931288
 20
323.5757359312881
 10
537.5303899405809
 20
323.4456722804932
 10
537.76
 20
323.4
 10
537.9896100594191
 20
323.4456722804932
 10
538.184264068712
 20
323.5757359312881
 10
538.3143277195068
 20
323.77038994058097
 97
0
 75
0
 76
1
 98
0
  0
CIRCLE
  5
16C
330
17
100
AcDbEntity
  8
S-REBAR-MAIN
100
AcDbCircle
 10
537.76
 20
332.0
 30
0.0
 40
0.6
  0
HATCH
  5
16D
330
17
100
AcDbEntity
  8
S-REBAR-MAIN
 62
1
100
AcDbHatch
 10
0.0
 20
0.0
 30
0.0
210
0.0
220
0.0
230
1.0
  2
SOLID
 70
1
 71
0
 91
1
 92
3
 72
0
 73
1
 93
16
 10
538.36
 20
332.0
 10
538.3143277195068
 20
332.22961005941903
 10
538.184264068712
 20
332.4242640687119
 10
537.9896100594191
 20
332.5543277195068
 10
537.76
 20
332.6
 10
537.5303899405809
 20
332.5543277195068
 10
537.335735931288
 20
332.4242640687119
 10
537.2056722804932
 20
332.22961005941903
 10
537.16
 20
332.0
 10
537.2056722804932
 20
331.77038994058097
 10
537.335735931288
 20
331.5757359312881
 10
537.5303899405809
 20
331.4456722804932
 10
537.76
 20
331.4
 10
537.9896100594191
 20
331.4456722804932
 10
538.184264068712
 20
331.5757359312881
 10
538.3143277195068
 20
331.77038994058097
 97
0
 75
0
 76
1
 98
0
  0
CIRCLE
  5
16E
330
17
100
AcDbEntity
  8
S-REBAR-MAIN
100
AcDbCircle
 10
537.76
 20
340.0
 30
0.0
 40
0.6
  0
HATCH
  5
16F
330
17
100
AcDbEntity
  8
S-REBAR-MAIN
 62
1
100
AcDbHatch
 10
0.0
 20
0.0
 30
0.0
210
0.0
220
0.0
230
1.0
  2
SOLID
 70
1
 71
0
 91
1
 92
3
 72
0
 73
1
 93
16
 10
538.36
 20
340.0
 10
538.3143277195068
 20
340.22961005941903
 10
538.184264068712
 20
340.4242640687119
 10
537.9896100594191
 20
340.5543277195068
 10
537.76
 20
340.6
 10
537.5303899405809
 20
340.5543277195068
 10
537.335735931288
 20
340.4242640687119
 10
537.2056722804932
 20
340.22961005941903
 10
537.16
 20
340.0
 10
537.2056722804932
 20
339.77038994058097
 10
537.335735931288
 20
339.5757359312881
 10
537.5303899405809
 20
339.4456722804932
 10
537.76
 20
339.4
 10
537.9896100594191
 20
339.4456722804932
 10
538.184264068712
 20
339.5757359312881
 10
538.3143277195068
 20
339.77038994058097
 97
0
 75
0
 76
1
 98
0
  0
CIRCLE
  5
170
330
17
100
AcDbEntity
  8
S-REBAR-MAIN
100
AcDbCircle
 10
537.76
 20
348.0
 30
0.0
 40
0.6
  0
HATCH
  5
171
330
17
100
AcDbEntity
  8
S-REBAR-MAIN
 62
1
100
AcDbHatch
 10
0.0
 20
0.0
 30
0.0
210
0.0
220
0.0
230
1.0
  2
SOLID
 70
1
 71
0
 91
1
 92
3
 72
0
 73
1
 93
16
 10
538.36
 20
348.0
 10
538.3143277195068
 20
348.22961005941903
 10
538.184264068712
 20
348.4242640687119
 10
537.9896100594191
 20
348.5543277195068
 10
537.76
 20
348.6
 10
537.5303899405809
 20
348.5543277195068
 10
537.335735931288
 20
348.4242640687119
 10
537.2056722804932
 20
348.22961005941903
 10
537.16
 20
348.0
 10
537.2056722804932
 20
347.77038994058097
 10
537.335735931288
 20
347.5757359312881
 10
537.5303899405809
 20
347.4456722804932
 10
537.76
 20
347.4
 10
537.9896100594191
 20
347.4456722804932
 10
538.184264068712
 20
347.5757359312881
 10
538.3143277195068
 20
347.77038994058097
 97
0
 75
0
 76
1
 98
0
  0
CIRCLE
  5
172
330
17
100
AcDbEntity
  8
S-REBAR-MAIN
100
AcDbCircle
 10
537.76
 20
356.0
 30
0.0
 40
0.6
  0
HATCH
  5
173
330
17
100
AcDbEntity
  8
S-REBAR-MAIN
 62
1
100
AcDbHatch
 10
0.0
 20
0.0
 30
0.0
210
0.0
220
0.0
230
1.0
  2
SOLID
 70
1
 71
0
 91
1
 92
3
 72
0
 73
1
 93
16
 10
538.36
 20
356.0
 10
538.3143277195068
 20
356.22961005941903
 10
538.184264068712
 20
356.4242640687119
 10
537.9896100594191
 20
356.5543277195068
 10
537.76
 20
356.6
 10
537.5303899405809
 20
356.5543277195068
 10
537.335735931288
 20
356.4242640687119
 10
537.2056722804932
 20
356.22961005941903
 10
537.16
 20
356.0
 10
537.2056722804932
 20
355.77038994058097
 10
537.335735931288
 20
355.5757359312881
 10
537.5303899405809
 20
355.4456722804932
 10
537.76
 20
355.4
 10
537.9896100594191
 20
355.4456722804932
 10
538.184264068712
 20
355.5757359312881
 10
538.3143277195068
 20
355.77038994058097
 97
0
 75
0
 76
1
 98
0
  0
CIRCLE
  5
174
330
17
100
AcDbEntity
  8
S-REBAR-MAIN
100
AcDbCircle
 10
537.76
 20
364.0
 30
0.0
 40
0.6
  0
HATCH
  5
175
330
17
100
AcDbEntity
  8
S-REBAR-MAIN
 62
1
100
AcDbHatch
 10
0.0
 20
0.0
 30
0.0
210
0.0
220
0.0
230
1.0
  2
SOLID
 70
1
 71
0
 91
1
 92
3
 72
0
 73
1
 93
16
 10
538.36
 20
364.0
 10
538.3143277195068
 20
364.22961005941903
 10
538.184264068712
 20
364.4242640687119
 10
537.9896100594191
 20
364.5543277195068
 10
537.76
 20
364.6
 10
537.5303899405809
 20
364.5543277195068
 10
537.335735931288
 20
364.4242640687119
 10
537.2056722804932
 20
364.22961005941903
 10
537.16
 20
364.0
 10
537.2056722804932
 20
363.77038994058097
 10
537.335735931288
 20
363.5757359312881
 10
537.5303899405809
 20
363.4456722804932
 10
537.76
 20
363.4
 10
537.9896100594191
 20
363.4456722804932
 10
538.184264068712
 20
363.5757359312881
 10
538.3143277195068
 20
363.77038994058097
 97
0
 75
0
 76
1
 98
0
  0
CIRCLE
  5
176
330
17
100
AcDbEntity
  8
S-REBAR-MAIN
100
AcDbCircle
 10
537.76
 20
372.0
 30
0.0
 40
0.6
  0
HATCH
  5
177
330
17
100
AcDbEntity
  8
S-REBAR-MAIN
 62
1
100
AcDbHatch
 10
0.0
 20
0.0
 30
0.0
210
0.0
220
0.0
230
1.0
  2
SOLID
 70
1
 71
0
 91
1
 92
3
 72
0
 73
1
 93
16
 10
538.36
 20
372.0
 10
538.3143277195068
 20
372.22961005941903
 10
538.184264068712
 20
372.4242640687119
 10
537.9896100594191
 20
372.5543277195068
 10
537.76
 20
372.6
 10
537.5303899405809
 20
372.5543277195068
 10
537.335735931288
 20
372.4242640687119
 10
537.2056722804932
 20
372.22961005941903
 10
537.16
 20
372.0
 10
537.2056722804932
 20
371.77038994058097
 10
537.335735931288
 20
371.5757359312881
 10
537.5303899405809
 20
371.4456722804932
 10
537.76
 20
371.4
 10
537.9896100594191
 20
371.4456722804932
 10
538.184264068712
 20
371.5757359312881
 10
538.3143277195068
 20
371.77038994058097
 97
0
 75
0
 76
1
 98
0
  0
CIRCLE
  5
178
330
17
100
AcDbEntity
  8
S-REBAR-MAIN
100
AcDbCircle
 10
537.76
 20
380.0
 30
0.0
 40
0.6
  0
HATCH
  5
179
330
17
100
AcDbEntity
  8
S-REBAR-MAIN
 62
1
100
AcDbHatch
 10
0.0
 20
0.0
 30
0.0
210
0.0
220
0.0
230
1.0
  2
SOLID
 70
1
 71
0
 91
1
 92
3
 72
0
 73
1
 93
16
 10
538.36
 20
380.0
 10
538.3143277195068
 20
380.22961005941903
 10
538.184264068712
 20
380.4242640687119
 10
537.9896100594191
 20
380.5543277195068
 10
537.76
 20
380.6
 10
537.5303899405809
 20
380.5543277195068
 10
537.335735931288
 20
380.4242640687119
 10
537.2056722804932
 20
380.22961005941903
 10
537.16
 20
380.0
 10
537.2056722804932
 20
379.77038994058097
 10
537.335735931288
 20
379.5757359312881
 10
537.5303899405809
 20
379.4456722804932
 10
537.76
 20
379.4
 10
537.9896100594191
 20
379.4456722804932
 10
538.184264068712
 20
379.5757359312881
 10
538.3143277195068
 20
379.77038994058097
 97
0
 75
0
 76
1
 98
0
  0
CIRCLE
  5
17A
330
17
100
AcDbEntity
  8
S-REBAR-MAIN
100
AcDbCircle
 10
537.76
 20
388.0
 30
0.0
 40
0.6
  0
HATCH
  5
17B
330
17
100
AcDbEntity
  8
S-REBAR-MAIN
 62
1
100
AcDbHatch
 10
0.0
 20
0.0
 30
0.0
210
0.0
220
0.0
230
1.0
  2
SOLID
 70
1
 71
0
 91
1
 92
3
 72
0
 73
1
 93
16
 10
538.36
 20
388.0
 10
538.3143277195068
 20
388.22961005941903
 10
538.184264068712
 20
388.4242640687119
 10
537.9896100594191
 20
388.5543277195068
 10
537.76
 20
388.6
 10
537.5303899405809
 20
388.5543277195068
 10
537.335735931288
 20
388.4242640687119
 10
537.2056722804932
 20
388.22961005941903
 10
537.16
 20
388.0
 10
537.2056722804932
 20
387.77038994058097
 10
537.335735931288
 20
387.5757359312881
 10
537.5303899405809
 20
387.4456722804932
 10
537.76
 20
387.4
 10
537.9896100594191
 20
387.4456722804932
 10
538.184264068712
 20
387.5757359312881
 10
538.3143277195068
 20
387.77038994058097
 97
0
 75
0
 76
1
 98
0
  0
CIRCLE
  5
17C
330
17
100
AcDbEntity
  8
S-REBAR-MAIN
100
AcDbCircle
 10
537.76
 20
396.0
 30
0.0
 40
0.6
  0
HATCH
  5
17D
330
17
100
AcDbEntity
  8
S-REBAR-MAIN
 62
1
100
AcDbHatch
 10
0.0
 20
0.0
 30
0.0
210
0.0
220
0.0
230
1.0
  2
SOLID
 70
1
 71
0
 91
1
 92
3
 72
0
 73
1
 93
16
 10
538.36
 20
396.0
 10
538.3143277195068
 20
396.22961005941903
 10
538.184264068712
 20
396.4242640687119
 10
537.9896100594191
 20
396.5543277195068
 10
537.76
 20
396.6
 10
537.5303899405809
 20
396.5543277195068
 10
537.335735931288
 20
396.4242640687119
 10
537.2056722804932
 20
396.22961005941903
 10
537.16
 20
396.0
 10
537.2056722804932
 20
395.77038994058097
 10
537.335735931288
 20
395.5757359312881
 10
537.5303899405809
 20
395.4456722804932
 10
537.76
 20
395.4
 10
537.9896100594191
 20
395.4456722804932
 10
538.184264068712
 20
395.5757359312881
 10
538.3143277195068
 20
395.77038994058097
 97
0
 75
0
 76
1
 98
0
  0
CIRCLE
  5
17E
330
17
100
AcDbEntity
  8
S-REBAR-MAIN
100
AcDbCircle
 10
537.76
 20
404.0
 30
0.0
 40
0.6
  0
HATCH
  5
17F
330
17
100
AcDbEntity
  8
S-REBAR-MAIN
 62
1
100
AcDbHatch
 10
0.0
 20
0.0
 30
0.0
210
0.0
220
0.0
230
1.0
  2
SOLID
 70
1
 71
0
 91
1
 92
3
 72
0
 73
1
 93
16
 10
538.36
 20
404.0
 10
538.3143277195068
 20
404.22961005941903
 10
538.184264068712
 20
404.4242640687119
 10
537.9896100594191
 20
404.5543277195068
 10
537.76
 20
404.6
 10
537.5303899405809
 20
404.5543277195068
 10
537.335735931288
 20
404.4242640687119
 10
537.2056722804932
 20
404.22961005941903
 10
537.16
 20
404.0
 10
537.2056722804932
 20
403.77038994058097
 10
537.335735931288
 20
403.5757359312881
 10
537.5303899405809
 20
403.4456722804932
 10
537.76
 20
403.4
 10
537.9896100594191
 20
403.4456722804932
 10
538.184264068712
 20
403.5757359312881
 10
538.3143277195068
 20
403.77038994058097
 97
0
 75
0
 76
1
 98
0
  0
CIRCLE
  5
180
330
17
100
AcDbEntity
  8
S-REBAR-MAIN
100
AcDbCircle
 10
537.76
 20
412.0
 30
0.0
 40
0.6
  0
HATCH
  5
181
330
17
100
AcDbEntity
  8
S-REBAR-MAIN
 62
1
100
AcDbHatch
 10
0.0
 20
0.0
 30
0.0
210
0.0
220
0.0
230
1.0
  2
SOLID
 70
1
 71
0
 91
1
 92
3
 72
0
 73
1
 93
16
 10
538.36
 20
412.0
 10
538.3143277195068
 20
412.22961005941903
 10
538.184264068712
 20
412.4242640687119
 10
537.9896100594191
 20
412.5543277195068
 10
537.76
 20
412.6
 10
537.5303899405809
 20
412.5543277195068
 10
537.335735931288
 20
412.4242640687119
 10
537.2056722804932
 20
412.22961005941903
 10
537.16
 20
412.0
 10
537.2056722804932
 20
411.77038994058097
 10
537.335735931288
 20
411.5757359312881
 10
537.5303899405809
 20
411.4456722804932
 10
537.76
 20
411.4
 10
537.9896100594191
 20
411.4456722804932
 10
538.184264068712
 20
411.5757359312881
 10
538.3143277195068
 20
411.77038994058097
 97
0
 75
0
 76
1
 98
0
  0
LINE
  5
182
330
17
100
AcDbEntity
  8
S-REBAR-MAIN
100
AcDbLine
 10
467.76
 20
301.6
 30
0.0
 11
467.76
 21
414.4
 31
0.0
  0
LINE
  5
183
330
17
100
AcDbEntity
  8
S-REBAR-MAIN
100
AcDbLine
 10
532.24
 20
301.6
 30
0.0
 11
532.24
 21
414.4
 31
0.0
  0
CIRCLE
  5
184
330
17
100
AcDbEntity
  8
S-REBAR-MAIN
100
AcDbCircle
 10
467.76
 20
308.0
 30
0.0
 40
0.6
  0
HATCH
  5
185
330
17
100
AcDbEntity
  8
S-REBAR-MAIN
 62
1
100
AcDbHatch
 10
0.0
 20
0.0
 30
0.0
210
0.0
220
0.0
230
1.0
  2
SOLID
 70
1
 71
0
 91
1
 92
3
 72
0
 73
1
 93
16
 10
468.36
 20
308.0
 10
468.31432771950676
 20
308.22961005941903
 10
468.1842640687119
 20
308.4242640687119
 10
467.989610059419
 20
308.5543277195068
 10
467.76
 20
308.6
 10
467.53038994058096
 20
308.5543277195068
 10
467.33573593128807
 20
308.4242640687119
 10
467.2056722804932
 20
308.22961005941903
 10
467.15999999999997
 20
308.0
 10
467.2056722804932
 20
307.77038994058097
 10
467.33573593128807
 20
307.5757359312881
 10
467.53038994058096
 20
307.4456722804932
 10
467.76
 20
307.4
 10
467.989610059419
 20
307.4456722804932
 10
468.1842640687119
 20
307.5757359312881
 10
468.31432771950676
 20
307.77038994058097
 97
0
 75
0
 76
1
 98
0
  0
CIRCLE
  5
186
330
17
100
AcDbEntity
  8
S-REBAR-MAIN
100
AcDbCircle
 10
467.76
 20
316.0
 30
0.0
 40
0.6
  0
HATCH
  5
187
330
17
100
AcDbEntity
  8
S-REBAR-MAIN
 62
1
100
AcDbHatch
 10
0.0
 20
0.0
 30
0.0
210
0.0
220
0.0
230
1.0
  2
SOLID
 70
1
 71
0
 91
1
 92
3
 72
0
 73
1
 93
16
 10
468.36
 20
316.0
 10
468.31432771950676
 20
316.22961005941903
 10
468.1842640687119
 20
316.4242640687119
 10
467.989610059419
 20
316.5543277195068
 10
467.76
 20
316.6
 10
467.53038994058096
 20
316.5543277195068
 10
467.33573593128807
 20
316.4242640687119
 10
467.2056722804932
 20
316.22961005941903
 10
467.15999999999997
 20
316.0
 10
467.2056722804932
 20
315.77038994058097
 10
467.33573593128807
 20
315.5757359312881
 10
467.53038994058096
 20
315.4456722804932
 10
467.76
 20
315.4
 10
467.989610059419
 20
315.4456722804932
 10
468.1842640687119
 20
315.5757359312881
 10
468.31432771950676
 20
315.77038994058097
 97
0
 75
0
 76
1
 98
0
  0
CIRCLE
  5
188
330
17
100
AcDbEntity
  8
S-REBAR-MAIN
100
AcDbCircle
 10
467.76
 20
324.0
 30
0.0
 40
0.6
  0
HATCH
  5
189
330
17
100
AcDbEntity
  8
S-REBAR-MAIN
 62
1
100
AcDbHatch
 10
0.0
 20
0.0
 30
0.0
210
0.0
220
0.0
230
1.0
  2
SOLID
 70
1
 71
0
 91
1
 92
3
 72
0
 73
1
 93
16
 10
468.36
 20
324.0
 10
468.31432771950676
 20
324.22961005941903
 10
468.1842640687119
 20
324.4242640687119
 10
467.989610059419
 20
324.5543277195068
 10
467.76
 20
324.6
 10
467.53038994058096
 20
324.5543277195068
 10
467.33573593128807
 20
324.4242640687119
 10
467.2056722804932
 20
324.22961005941903
 10
467.15999999999997
 20
324.0
 10
467.2056722804932
 20
323.77038994058097
 10
467.33573593128807
 20
323.5757359312881
 10
467.53038994058096
 20
323.4456722804932
 10
467.76
 20
323.4
 10
467.989610059419
 20
323.4456722804932
 10
468.1842640687119
 20
323.5757359312881
 10
468.31432771950676
 20
323.77038994058097
 97
0
 75
0
 76
1
 98
0
  0
CIRCLE
  5
18A
330
17
100
AcDbEntity
  8
S-REBAR-MAIN
100
AcDbCircle
 10
467.76
 20
332.0
 30
0.0
 40
0.6
  0
HATCH
  5
18B
330
17
100
AcDbEntity
  8
S-REBAR-MAIN
 62
1
100
AcDbHatch
 10
0.0
 20
0.0
 30
0.0
210
0.0
220
0.0
230
1.0
  2
SOLID
 70
1
 71
0
 91
1
 92
3
 72
0
 73
1
 93
16
 10
468.36
 20
332.0
 10
468.31432771950676
 20
332.22961005941903
 10
468.1842640687119
 20
332.4242640687119
 10
467.989610059419
 20
332.5543277195068
 10
467.76
 20
332.6
 10
467.53038994058096
 20
332.5543277195068
 10
467.33573593128807
 20
332.4242640687119
 10
467.2056722804932
 20
332.22961005941903
 10
467.15999999999997
 20
332.0
 10
467.2056722804932
 20
331.77038994058097
 10
467.33573593128807
 20
331.5757359312881
 10
467.53038994058096
 20
331.4456722804932
 10
467.76
 20
331.4
 10
467.989610059419
 20
331.4456722804932
 10
468.1842640687119
 20
331.5757359312881
 10
468.31432771950676
 20
331.77038994058097
 97
0
 75
0
 76
1
 98
0
  0
CIRCLE
  5
18C
330
17
100
AcDbEntity
  8
S-REBAR-MAIN
100
AcDbCircle
 10
467.76
 20
340.0
 30
0.0
 40
0.6
  0
HATCH
  5
18D
330
17
100
AcDbEntity
  8
S-REBAR-MAIN
 62
1
100
AcDbHatch
 10
0.0
 20
0.0
 30
0.0
210
0.0
220
0.0
230
1.0
  2
SOLID
 70
1
 71
0
 91
1
 92
3
 72
0
 73
1
 93
16
 10
468.36
 20
340.0
 10
468.31432771950676
 20
340.22961005941903
 10
468.1842640687119
 20
340.4242640687119
 10
467.989610059419
 20
340.5543277195068
 10
467.76
 20
340.6
 10
467.53038994058096
 20
340.5543277195068
 10
467.33573593128807
 20
340.4242640687119
 10
467.2056722804932
 20
340.22961005941903
 10
467.15999999999997
 20
340.0
 10
467.2056722804932
 20
339.77038994058097
 10
467.33573593128807
 20
339.5757359312881
 10
467.53038994058096
 20
339.4456722804932
 10
467.76
 20
339.4
 10
467.989610059419
 20
339.4456722804932
 10
468.1842640687119
 20
339.5757359312881
 10
468.31432771950676
 20
339.77038994058097
 97
0
 75
0
 76
1
 98
0
  0
CIRCLE
  5
18E
330
17
100
AcDbEntity
  8
S-REBAR-MAIN
100
AcDbCircle
 10
467.76
 20
348.0
 30
0.0
 40
0.6
  0
HATCH
  5
18F
330
17
100
AcDbEntity
  8
S-REBAR-MAIN
 62
1
100
AcDbHatch
 10
0.0
 20
0.0
 30
0.0
210
0.0
220
0.0
230
1.0
  2
SOLID
 70
1
 71
0
 91
1
 92
3
 72
0
 73
1
 93
16
 10
468.36
 20
348.0
 10
468.31432771950676
 20
348.22961005941903
 10
468.1842640687119
 20
348.4242640687119
 10
467.989610059419
 20
348.5543277195068
 10
467.76
 20
348.6
 10
467.53038994058096
 20
348.5543277195068
 10
467.33573593128807
 20
348.4242640687119
 10
467.2056722804932
 20
348.22961005941903
 10
467.15999999999997
 20
348.0
 10
467.2056722804932
 20
347.77038994058097
 10
467.33573593128807
 20
347.5757359312881
 10
467.53038994058096
 20
347.4456722804932
 10
467.76
 20
347.4
 10
467.989610059419
 20
347.4456722804932
 10
468.1842640687119
 20
347.5757359312881
 10
468.31432771950676
 20
347.77038994058097
 97
0
 75
0
 76
1
 98
0
  0
CIRCLE
  5
190
330
17
100
AcDbEntity
  8
S-REBAR-MAIN
100
AcDbCircle
 10
467.76
 20
356.0
 30
0.0
 40
0.6
  0
HATCH
  5
191
330
17
100
AcDbEntity
  8
S-REBAR-MAIN
 62
1
100
AcDbHatch
 10
0.0
 20
0.0
 30
0.0
210
0.0
220
0.0
230
1.0
  2
SOLID
 70
1
 71
0
 91
1
 92
3
 72
0
 73
1
 93
16
 10
468.36
 20
356.0
 10
468.31432771950676
 20
356.22961005941903
 10
468.1842640687119
 20
356.4242640687119
 10
467.989610059419
 20
356.5543277195068
 10
467.76
 20
356.6
 10
467.53038994058096
 20
356.5543277195068
 10
467.33573593128807
 20
356.4242640687119
 10
467.2056722804932
 20
356.22961005941903
 10
467.15999999999997
 20
356.0
 10
467.2056722804932
 20
355.77038994058097
 10
467.33573593128807
 20
355.5757359312881
 10
467.53038994058096
 20
355.4456722804932
 10
467.76
 20
355.4
 10
467.989610059419
 20
355.4456722804932
 10
468.1842640687119
 20
355.5757359312881
 10
468.31432771950676
 20
355.77038994058097
 97
0
 75
0
 76
1
 98
0
  0
CIRCLE
  5
192
330
17
100
AcDbEntity
  8
S-REBAR-MAIN
100
AcDbCircle
 10
467.76
 20
364.0
 30
0.0
 40
0.6
  0
HATCH
  5
193
330
17
100
AcDbEntity
  8
S-REBAR-MAIN
 62
1
100
AcDbHatch
 10
0.0
 20
0.0
 30
0.0
210
0.0
220
0.0
230
1.0
  2
SOLID
 70
1
 71
0
 91
1
 92
3
 72
0
 73
1
 93
16
 10
468.36
 20
364.0
 10
468.31432771950676
 20
364.22961005941903
 10
468.1842640687119
 20
364.4242640687119
 10
467.989610059419
 20
364.5543277195068
 10
467.76
 20
364.6
 10
467.53038994058096
 20
364.5543277195068
 10
467.33573593128807
 20
364.4242640687119
 10
467.2056722804932
 20
364.22961005941903
 10
467.15999999999997
 20
364.0
 10
467.2056722804932
 20
363.77038994058097
 10
467.33573593128807
 20
363.5757359312881
 10
467.53038994058096
 20
363.4456722804932
 10
467.76
 20
363.4
 10
467.989610059419
 20
363.4456722804932
 10
468.1842640687119
 20
363.5757359312881
 10
468.31432771950676
 20
363.77038994058097
 97
0
 75
0
 76
1
 98
0
  0
CIRCLE
  5
194
330
17
100
AcDbEntity
  8
S-REBAR-MAIN
100
AcDbCircle
 10
467.76
 20
372.0
 30
0.0
 40
0.6
  0
HATCH
  5
195
330
17
100
AcDbEntity
  8
S-REBAR-MAIN
 62
1
100
AcDbHatch
 10
0.0
 20
0.0
 30
0.0
210
0.0
220
0.0
230
1.0
  2
SOLID
 70
1
 71
0
 91
1
 92
3
 72
0
 73
1
 93
16
 10
468.36
 20
372.0
 10
468.31432771950676
 20
372.22961005941903
 10
468.1842640687119
 20
372.4242640687119
 10
467.989610059419
 20
372.5543277195068
 10
467.76
 20
372.6
 10
467.53038994058096
 20
372.5543277195068
 10
467.33573593128807
 20
372.4242640687119
 10
467.2056722804932
 20
372.22961005941903
 10
467.15999999999997
 20
372.0
 10
467.2056722804932
 20
371.77038994058097
 10
467.33573593128807
 20
371.5757359312881
 10
467.53038994058096
 20
371.4456722804932
 10
467.76
 20
371.4
 10
467.989610059419
 20
371.4456722804932
 10
468.1842640687119
 20
371.5757359312881
 10
468.31432771950676
 20
371.77038994058097
 97
0
 75
0
 76
1
 98
0
  0
CIRCLE
  5
196
330
17
100
AcDbEntity
  8
S-REBAR-MAIN
100
AcDbCircle
 10
467.76
 20
380.0
 30
0.0
 40
0.6
  0
HATCH
  5
197
330
17
100
AcDbEntity
  8
S-REBAR-MAIN
 62
1
100
AcDbHatch
 10
0.0
 20
0.0
 30
0.0
210
0.0
220
0.0
230
1.0
  2
SOLID
 70
1
 71
0
 91
1
 92
3
 72
0
 73
1
 93
16
 10
468.36
 20
380.0
 10
468.31432771950676
 20
380.22961005941903
 10
468.1842640687119
 20
380.4242640687119
 10
467.989610059419
 20
380.5543277195068
 10
467.76
 20
380.6
 10
467.53038994058096
 20
380.5543277195068
 10
467.33573593128807
 20
380.4242640687119
 10
467.2056722804932
 20
380.22961005941903
 10
467.15999999999997
 20
380.0
 10
467.2056722804932
 20
379.77038994058097
 10
467.33573593128807
 20
379.5757359312881
 10
467.53038994058096
 20
379.4456722804932
 10
467.76
 20
379.4
 10
467.989610059419
 20
379.4456722804932
 10
468.1842640687119
 20
379.5757359312881
 10
468.31432771950676
 20
379.77038994058097
 97
0
 75
0
 76
1
 98
0
  0
CIRCLE
  5
198
330
17
100
AcDbEntity
  8
S-REBAR-MAIN
100
AcDbCircle
 10
467.76
 20
388.0
 30
0.0
 40
0.6
  0
HATCH
  5
199
330
17
100
AcDbEntity
  8
S-REBAR-MAIN
 62
1
100
AcDbHatch
 10
0.0
 20
0.0
 30
0.0
210
0.0
220
0.0
230
1.0
  2
SOLID
 70
1
 71
0
 91
1
 92
3
 72
0
 73
1
 93
16
 10
468.36
 20
388.0
 10
468.31432771950676
 20
388.22961005941903
 10
468.1842640687119
 20
388.4242640687119
 10
467.989610059419
 20
388.5543277195068
 10
467.76
 20
388.6
 10
467.53038994058096
 20
388.5543277195068
 10
467.33573593128807
 20
388.4242640687119
 10
467.2056722804932
 20
388.22961005941903
 10
467.15999999999997
 20
388.0
 10
467.2056722804932
 20
387.77038994058097
 10
467.33573593128807
 20
387.5757359312881
 10
467.53038994058096
 20
387.4456722804932
 10
467.76
 20
387.4
 10
467.989610059419
 20
387.4456722804932
 10
468.1842640687119
 20
387.5757359312881
 10
468.31432771950676
 20
387.77038994058097
 97
0
 75
0
 76
1
 98
0
  0
CIRCLE
  5
19A
330
17
100
AcDbEntity
  8
S-REBAR-MAIN
100
AcDbCircle
 10
467.76
 20
396.0
 30
0.0
 40
0.6
  0
HATCH
  5
19B
330
17
100
AcDbEntity
  8
S-REBAR-MAIN
 62
1
100
AcDbHatch
 10
0.0
 20
0.0
 30
0.0
210
0.0
220
0.0
230
1.0
  2
SOLID
 70
1
 71
0
 91
1
 92
3
 72
0
 73
1
 93
16
 10
468.36
 20
396.0
 10
468.31432771950676
 20
396.22961005941903
 10
468.1842640687119
 20
396.4242640687119
 10
467.989610059419
 20
396.5543277195068
 10
467.76
 20
396.6
 10
467.53038994058096
 20
396.5543277195068
 10
467.33573593128807
 20
396.4242640687119
 10
467.2056722804932
 20
396.22961005941903
 10
467.15999999999997
 20
396.0
 10
467.2056722804932
 20
395.77038994058097
 10
467.33573593128807
 20
395.5757359312881
 10
467.53038994058096
 20
395.4456722804932
 10
467.76
 20
395.4
 10
467.989610059419
 20
395.4456722804932
 10
468.1842640687119
 20
395.5757359312881
 10
468.31432771950676
 20
395.77038994058097
 97
0
 75
0
 76
1
 98
0
  0
CIRCLE
  5
19C
330
17
100
AcDbEntity
  8
S-REBAR-MAIN
100
AcDbCircle
 10
467.76
 20
404.0
 30
0.0
 40
0.6
  0
HATCH
  5
19D
330
17
100
AcDbEntity
  8
S-REBAR-MAIN
 62
1
100
AcDbHatch
 10
0.0
 20
0.0
 30
0.0
210
0.0
220
0.0
230
1.0
  2
SOLID
 70
1
 71
0
 91
1
 92
3
 72
0
 73
1
 93
16
 10
468.36
 20
404.0
 10
468.31432771950676
 20
404.22961005941903
 10
468.1842640687119
 20
404.4242640687119
 10
467.989610059419
 20
404.5543277195068
 10
467.76
 20
404.6
 10
467.53038994058096
 20
404.5543277195068
 10
467.33573593128807
 20
404.4242640687119
 10
467.2056722804932
 20
404.22961005941903
 10
467.15999999999997
 20
404.0
 10
467.2056722804932
 20
403.77038994058097
 10
467.33573593128807
 20
403.5757359312881
 10
467.53038994058096
 20
403.4456722804932
 10
467.76
 20
403.4
 10
467.989610059419
 20
403.4456722804932
 10
468.1842640687119
 20
403.5757359312881
 10
468.31432771950676
 20
403.77038994058097
 97
0
 75
0
 76
1
 98
0
  0
CIRCLE
  5
19E
330
17
100
AcDbEntity
  8
S-REBAR-MAIN
100
AcDbCircle
 10
467.76
 20
412.0
 30
0.0
 40
0.6
  0
HATCH
  5
19F
330
17
100
AcDbEntity
  8
S-REBAR-MAIN
 62
1
100
AcDbHatch
 10
0.0
 20
0.0
 30
0.0
210
0.0
220
0.0
230
1.0
  2
SOLID
 70
1
 71
0
 91
1
 92
3
 72
0
 73
1
 93
16
 10
468.36
 20
412.0
 10
468.31432771950676
 20
412.22961005941903
 10
468.1842640687119
 20
412.4242640687119
 10
467.989610059419
 20
412.5543277195068
 10
467.76
 20
412.6
 10
467.53038994058096
 20
412.5543277195068
 10
467.33573593128807
 20
412.4242640687119
 10
467.2056722804932
 20
412.22961005941903
 10
467.15999999999997
 20
412.0
 10
467.2056722804932
 20
411.77038994058097
 10
467.33573593128807
 20
411.5757359312881
 10
467.53038994058096
 20
411.4456722804932
 10
467.76
 20
411.4
 10
467.989610059419
 20
411.4456722804932
 10
468.1842640687119
 20
411.5757359312881
 10
468.31432771950676
 20
411.77038994058097
 97
0
 75
0
 76
1
 98
0
  0
CIRCLE
  5
1A0
330
17
100
AcDbEntity
  8
S-REBAR-MAIN
100
AcDbCircle
 10
532.24
 20
308.0
 30
0.0
 40
0.6
  0
HATCH
  5
1A1
330
17
100
AcDbEntity
  8
S-REBAR-MAIN
 62
1
100
AcDbHatch
 10
0.0
 20
0.0
 30
0.0
210
0.0
220
0.0
230
1.0
  2
SOLID
 70
1
 71
0
 91
1
 92
3
 72
0
 73
1
 93
16
 10
532.84
 20
308.0
 10
532.7943277195068
 20
308.22961005941903
 10
532.664264068712
 20
308.4242640687119
 10
532.4696100594191
 20
308.5543277195068
 10
532.24
 20
308.6
 10
532.0103899405809
 20
308.5543277195068
 10
531.815735931288
 20
308.4242640687119
 10
531.6856722804932
 20
308.22961005941903
 10
531.64
 20
308.0
 10
531.6856722804932
 20
307.77038994058097
 10
531.815735931288
 20
307.5757359312881
 10
532.0103899405809
 20
307.4456722804932
 10
532.24
 20
307.4
 10
532.4696100594191
 20
307.4456722804932
 10
532.664264068712
 20
307.5757359312881
 10
532.7943277195068
 20
307.77038994058097
 97
0
 75
0
 76
1
 98
0
  0
CIRCLE
  5
1A2
330
17
100
AcDbEntity
  8
S-REBAR-MAIN
100
AcDbCircle
 10
532.24
 20
316.0
 30
0.0
 40
0.6
  0
HATCH
  5
1A3
330
17
100
AcDbEntity
  8
S-REBAR-MAIN
 62
1
100
AcDbHatch
 10
0.0
 20
0.0
 30
0.0
210
0.0
220
0.0
230
1.0
  2
SOLID
 70
1
 71
0
 91
1
 92
3
 72
0
 73
1
 93
16
 10
532.84
 20
316.0
 10
532.7943277195068
 20
316.22961005941903
 10
532.664264068712
 20
316.4242640687119
 10
532.4696100594191
 20
316.5543277195068
 10
532.24
 20
316.6
 10
532.0103899405809
 20
316.5543277195068
 10
531.815735931288
 20
316.4242640687119
 10
531.6856722804932
 20
316.22961005941903
 10
531.64
 20
316.0
 10
531.6856722804932
 20
315.77038994058097
 10
531.815735931288
 20
315.5757359312881
 10
532.0103899405809
 20
315.4456722804932
 10
532.24
 20
315.4
 10
532.4696100594191
 20
315.4456722804932
 10
532.664264068712
 20
315.5757359312881
 10
532.7943277195068
 20
315.77038994058097
 97
0
 75
0
 76
1
 98
0
  0
CIRCLE
  5
1A4
330
17
100
AcDbEntity
  8
S-REBAR-MAIN
100
AcDbCircle
 10
532.24
 20
324.0
 30
0.0
 40
0.6
  0
HATCH
  5
1A5
330
17
100
AcDbEntity
  8
S-REBAR-MAIN
 62
1
100
AcDbHatch
 10
0.0
 20
0.0
 30
0.0
210
0.0
220
0.0
230
1.0
  2
SOLID
 70
1
 71
0
 91
1
 92
3
 72
0
 73
1
 93
16
 10
532.84
 20
324.0
 10
532.7943277195068
 20
324.22961005941903
 10
532.664264068712
 20
324.4242640687119
 10
532.4696100594191
 20
324.5543277195068
 10
532.24
 20
324.6
 10
532.0103899405809
 20
324.5543277195068
 10
531.815735931288
 20
324.4242640687119
 10
531.6856722804932
 20
324.22961005941903
 10
531.64
 20
324.0
 10
531.6856722804932
 20
323.77038994058097
 10
531.815735931288
 20
323.5757359312881
 10
532.0103899405809
 20
323.4456722804932
 10
532.24
 20
323.4
 10
532.4696100594191
 20
323.4456722804932
 10
532.664264068712
 20
323.5757359312881
 10
532.7943277195068
 20
323.77038994058097
 97
0
 75
0
 76
1
 98
0
  0
CIRCLE
  5
1A6
330
17
100
AcDbEntity
  8
S-REBAR-MAIN
100
AcDbCircle
 10
532.24
 20
332.0
 30
0.0
 40
0.6
  0
HATCH
  5
1A7
330
17
100
AcDbEntity
  8
S-REBAR-MAIN
 62
1
100
AcDbHatch
 10
0.0
 20
0.0
 30
0.0
210
0.0
220
0.0
230
1.0
  2
SOLID
 70
1
 71
0
 91
1
 92
3
 72
0
 73
1
 93
16
 10
532.84
 20
332.0
 10
532.7943277195068
 20
332.22961005941903
 10
532.664264068712
 20
332.4242640687119
 10
532.4696100594191
 20
332.5543277195068
 10
532.24
 20
332.6
 10
532.0103899405809
 20
332.5543277195068
 10
531.815735931288
 20
332.4242640687119
 10
531.6856722804932
 20
332.22961005941903
 10
531.64
 20
332.0
 10
531.6856722804932
 20
331.77038994058097
 10
531.815735931288
 20
331.5757359312881
 10
532.0103899405809
 20
331.4456722804932
 10
532.24
 20
331.4
 10
532.4696100594191
 20
331.4456722804932
 10
532.664264068712
 20
331.5757359312881
 10
532.7943277195068
 20
331.77038994058097
 97
0
 75
0
 76
1
 98
0
  0
CIRCLE
  5
1A8
330
17
100
AcDbEntity
  8
S-REBAR-MAIN
100
AcDbCircle
 10
532.24
 20
340.0
 30
0.0
 40
0.6
  0
HATCH
  5
1A9
330
17
100
AcDbEntity
  8
S-REBAR-MAIN
 62
1
100
AcDbHatch
 10
0.0
 20
0.0
 30
0.0
210
0.0
220
0.0
230
1.0
  2
SOLID
 70
1
 71
0
 91
1
 92
3
 72
0
 73
1
 93
16
 10
532.84
 20
340.0
 10
532.7943277195068
 20
340.22961005941903
 10
532.664264068712
 20
340.4242640687119
 10
532.4696100594191
 20
340.5543277195068
 10
532.24
 20
340.6
 10
532.0103899405809
 20
340.5543277195068
 10
531.815735931288
 20
340.4242640687119
 10
531.6856722804932
 20
340.22961005941903
 10
531.64
 20
340.0
 10
531.6856722804932
 20
339.77038994058097
 10
531.815735931288
 20
339.5757359312881
 10
532.0103899405809
 20
339.4456722804932
 10
532.24
 20
339.4
 10
532.4696100594191
 20
339.4456722804932
 10
532.664264068712
 20
339.5757359312881
 10
532.7943277195068
 20
339.77038994058097
 97
0
 75
0
 76
1
 98
0
  0
CIRCLE
  5
1AA
330
17
100
AcDbEntity
  8
S-REBAR-MAIN
100
AcDbCircle
 10
532.24
 20
348.0
 30
0.0
 40
0.6
  0
HATCH
  5
1AB
330
17
100
AcDbEntity
  8
S-REBAR-MAIN
 62
1
100
AcDbHatch
 10
0.0
 20
0.0
 30
0.0
210
0.0
220
0.0
230
1.0
  2
SOLID
 70
1
 71
0
 91
1
 92
3
 72
0
 73
1
 93
16
 10
532.84
 20
348.0
 10
532.7943277195068
 20
348.22961005941903
 10
532.664264068712
 20
348.4242640687119
 10
532.4696100594191
 20
348.5543277195068
 10
532.24
 20
348.6
 10
532.0103899405809
 20
348.5543277195068
 10
531.815735931288
 20
348.4242640687119
 10
531.6856722804932
 20
348.22961005941903
 10
531.64
 20
348.0
 10
531.6856722804932
 20
347.77038994058097
 10
531.815735931288
 20
347.5757359312881
 10
532.0103899405809
 20
347.4456722804932
 10
532.24
 20
347.4
 10
532.4696100594191
 20
347.4456722804932
 10
532.664264068712
 20
347.5757359312881
 10
532.7943277195068
 20
347.77038994058097
 97
0
 75
0
 76
1
 98
0
  0
CIRCLE
  5
1AC
330
17
100
AcDbEntity
  8
S-REBAR-MAIN
100
AcDbCircle
 10
532.24
 20
356.0
 30
0.0
 40
0.6
  0
HATCH
  5
1AD
330
17
100
AcDbEntity
  8
S-REBAR-MAIN
 62
1
100
AcDbHatch
 10
0.0
 20
0.0
 30
0.0
210
0.0
220
0.0
230
1.0
  2
SOLID
 70
1
 71
0
 91
1
 92
3
 72
0
 73
1
 93
16
 10
532.84
 20
356.0
 10
532.7943277195068
 20
356.22961005941903
 10
532.664264068712
 20
356.4242640687119
 10
532.4696100594191
 20
356.5543277195068
 10
532.24
 20
356.6
 10
532.0103899405809
 20
356.5543277195068
 10
531.815735931288
 20
356.4242640687119
 10
531.6856722804932
 20
356.22961005941903
 10
531.64
 20
356.0
 10
531.6856722804932
 20
355.77038994058097
 10
531.815735931288
 20
355.5757359312881
 10
532.0103899405809
 20
355.4456722804932
 10
532.24
 20
355.4
 10
532.4696100594191
 20
355.4456722804932
 10
532.664264068712
 20
355.5757359312881
 10
532.7943277195068
 20
355.77038994058097
 97
0
 75
0
 76
1
 98
0
  0
CIRCLE
  5
1AE
330
17
100
AcDbEntity
  8
S-REBAR-MAIN
100
AcDbCircle
 10
532.24
 20
364.0
 30
0.0
 40
0.6
  0
HATCH
  5
1AF
330
17
100
AcDbEntity
  8
S-REBAR-MAIN
 62
1
100
AcDbHatch
 10
0.0
 20
0.0
 30
0.0
210
0.0
220
0.0
230
1.0
  2
SOLID
 70
1
 71
0
 91
1
 92
3
 72
0
 73
1
 93
16
 10
532.84
 20
364.0
 10
532.7943277195068
 20
364.22961005941903
 10
532.664264068712
 20
364.4242640687119
 10
532.4696100594191
 20
364.5543277195068
 10
532.24
 20
364.6
 10
532.0103899405809
 20
364.5543277195068
 10
531.815735931288
 20
364.4242640687119
 10
531.6856722804932
 20
364.22961005941903
 10
531.64
 20
364.0
 10
531.6856722804932
 20
363.77038994058097
 10
531.815735931288
 20
363.5757359312881
 10
532.0103899405809
 20
363.4456722804932
 10
532.24
 20
363.4
 10
532.4696100594191
 20
363.4456722804932
 10
532.664264068712
 20
363.5757359312881
 10
532.7943277195068
 20
363.77038994058097
 97
0
 75
0
 76
1
 98
0
  0
CIRCLE
  5
1B0
330
17
100
AcDbEntity
  8
S-REBAR-MAIN
100
AcDbCircle
 10
532.24
 20
372.0
 30
0.0
 40
0.6
  0
HATCH
  5
1B1
330
17
100
AcDbEntity
  8
S-REBAR-MAIN
 62
1
100
AcDbHatch
 10
0.0
 20
0.0
 30
0.0
210
0.0
220
0.0
230
1.0
  2
SOLID
 70
1
 71
0
 91
1
 92
3
 72
0
 73
1
 93
16
 10
532.84
 20
372.0
 10
532.7943277195068
 20
372.22961005941903
 10
532.664264068712
 20
372.4242640687119
 10
532.4696100594191
 20
372.5543277195068
 10
532.24
 20
372.6
 10
532.0103899405809
 20
372.5543277195068
 10
531.815735931288
 20
372.4242640687119
 10
531.6856722804932
 20
372.22961005941903
 10
531.64
 20
372.0
 10
531.6856722804932
 20
371.77038994058097
 10
531.815735931288
 20
371.5757359312881
 10
532.0103899405809
 20
371.4456722804932
 10
532.24
 20
371.4
 10
532.4696100594191
 20
371.4456722804932
 10
532.664264068712
 20
371.5757359312881
 10
532.7943277195068
 20
371.77038994058097
 97
0
 75
0
 76
1
 98
0
  0
CIRCLE
  5
1B2
330
17
100
AcDbEntity
  8
S-REBAR-MAIN
100
AcDbCircle
 10
532.24
 20
380.0
 30
0.0
 40
0.6
  0
HATCH
  5
1B3
330
17
100
AcDbEntity
  8
S-REBAR-MAIN
 62
1
100
AcDbHatch
 10
0.0
 20
0.0
 30
0.0
210
0.0
220
0.0
230
1.0
  2
SOLID
 70
1
 71
0
 91
1
 92
3
 72
0
 73
1
 93
16
 10
532.84
 20
380.0
 10
532.7943277195068
 20
380.22961005941903
 10
532.664264068712
 20
380.4242640687119
 10
532.4696100594191
 20
380.5543277195068
 10
532.24
 20
380.6
 10
532.0103899405809
 20
380.5543277195068
 10
531.815735931288
 20
380.4242640687119
 10
531.6856722804932
 20
380.22961005941903
 10
531.64
 20
380.0
 10
531.6856722804932
 20
379.77038994058097
 10
531.815735931288
 20
379.5757359312881
 10
532.0103899405809
 20
379.4456722804932
 10
532.24
 20
379.4
 10
532.4696100594191
 20
379.4456722804932
 10
532.664264068712
 20
379.5757359312881
 10
532.7943277195068
 20
379.77038994058097
 97
0
 75
0
 76
1
 98
0
  0
CIRCLE
  5
1B4
330
17
100
AcDbEntity
  8
S-REBAR-MAIN
100
AcDbCircle
 10
532.24
 20
388.0
 30
0.0
 40
0.6
  0
HATCH
  5
1B5
330
17
100
AcDbEntity
  8
S-REBAR-MAIN
 62
1
100
AcDbHatch
 10
0.0
 20
0.0
 30
0.0
210
0.0
220
0.0
230
1.0
  2
SOLID
 70
1
 71
0
 91
1
 92
3
 72
0
 73
1
 93
16
 10
532.84
 20
388.0
 10
532.7943277195068
 20
388.22961005941903
 10
532.664264068712
 20
388.4242640687119
 10
532.4696100594191
 20
388.5543277195068
 10
532.24
 20
388.6
 10
532.0103899405809
 20
388.5543277195068
 10
531.815735931288
 20
388.4242640687119
 10
531.6856722804932
 20
388.22961005941903
 10
531.64
 20
388.0
 10
531.6856722804932
 20
387.77038994058097
 10
531.815735931288
 20
387.5757359312881
 10
532.0103899405809
 20
387.4456722804932
 10
532.24
 20
387.4
 10
532.4696100594191
 20
387.4456722804932
 10
532.664264068712
 20
387.5757359312881
 10
532.7943277195068
 20
387.77038994058097
 97
0
 75
0
 76
1
 98
0
  0
CIRCLE
  5
1B6
330
17
100
AcDbEntity
  8
S-REBAR-MAIN
100
AcDbCircle
 10
532.24
 20
396.0
 30
0.0
 40
0.6
  0
HATCH
  5
1B7
330
17
100
AcDbEntity
  8
S-REBAR-MAIN
 62
1
100
AcDbHatch
 10
0.0
 20
0.0
 30
0.0
210
0.0
220
0.0
230
1.0
  2
SOLID
 70
1
 71
0
 91
1
 92
3
 72
0
 73
1
 93
16
 10
532.84
 20
396.0
 10
532.7943277195068
 20
396.22961005941903
 10
532.664264068712
 20
396.4242640687119
 10
532.4696100594191
 20
396.5543277195068
 10
532.24
 20
396.6
 10
532.0103899405809
 20
396.5543277195068
 10
531.815735931288
 20
396.4242640687119
 10
531.6856722804932
 20
396.22961005941903
 10
531.64
 20
396.0
 10
531.6856722804932
 20
395.77038994058097
 10
531.815735931288
 20
395.5757359312881
 10
532.0103899405809
 20
395.4456722804932
 10
532.24
 20
395.4
 10
532.4696100594191
 20
395.4456722804932
 10
532.664264068712
 20
395.5757359312881
 10
532.7943277195068
 20
395.77038994058097
 97
0
 75
0
 76
1
 98
0
  0
CIRCLE
  5
1B8
330
17
100
AcDbEntity
  8
S-REBAR-MAIN
100
AcDbCircle
 10
532.24
 20
404.0
 30
0.0
 40
0.6
  0
HATCH
  5
1B9
330
17
100
AcDbEntity
  8
S-REBAR-MAIN
 62
1
100
AcDbHatch
 10
0.0
 20
0.0
 30
0.0
210
0.0
220
0.0
230
1.0
  2
SOLID
 70
1
 71
0
 91
1
 92
3
 72
0
 73
1
 93
16
 10
532.84
 20
404.0
 10
532.7943277195068
 20
404.22961005941903
 10
532.664264068712
 20
404.4242640687119
 10
532.4696100594191
 20
404.5543277195068
 10
532.24
 20
404.6
 10
532.0103899405809
 20
404.5543277195068
 10
531.815735931288
 20
404.4242640687119
 10
531.6856722804932
 20
404.22961005941903
 10
531.64
 20
404.0
 10
531.6856722804932
 20
403.77038994058097
 10
531.815735931288
 20
403.5757359312881
 10
532.0103899405809
 20
403.4456722804932
 10
532.24
 20
403.4
 10
532.4696100594191
 20
403.4456722804932
 10
532.664264068712
 20
403.5757359312881
 10
532.7943277195068
 20
403.77038994058097
 97
0
 75
0
 76
1
 98
0
  0
CIRCLE
  5
1BA
330
17
100
AcDbEntity
  8
S-REBAR-MAIN
100
AcDbCircle
 10
532.24
 20
412.0
 30
0.0
 40
0.6
  0
HATCH
  5
1BB
330
17
100
AcDbEntity
  8
S-REBAR-MAIN
 62
1
100
AcDbHatch
 10
0.0
 20
0.0
 30
0.0
210
0.0
220
0.0
230
1.0
  2
SOLID
 70
1
 71
0
 91
1
 92
3
 72
0
 73
1
 93
16
 10
532.84
 20
412.0
 10
532.7943277195068
 20
412.22961005941903
 10
532.664264068712
 20
412.4242640687119
 10
532.4696100594191
 20
412.5543277195068
 10
532.24
 20
412.6
 10
532.0103899405809
 20
412.5543277195068
 10
531.815735931288
 20
412.4242640687119
 10
531.6856722804932
 20
412.22961005941903
 10
531.64
 20
412.0
 10
531.6856722804932
 20
411.77038994058097
 10
531.815735931288
 20
411.5757359312881
 10
532.0103899405809
 20
411.4456722804932
 10
532.24
 20
411.4
 10
532.4696100594191
 20
411.4456722804932
 10
532.664264068712
 20
411.5757359312881
 10
532.7943277195068
 20
411.77038994058097
 97
0
 75
0
 76
1
 98
0
  0
CIRCLE
  5
1BC
330
17
100
AcDbEntity
  8
S-REBAR-MAIN
100
AcDbCircle
 10
472.0
 20
418.24
 30
0.0
 40
0.6
  0
HATCH
  5
1BD
330
17
100
AcDbEntity
  8
S-REBAR-MAIN
 62
1
100
AcDbHatch
 10
0.0
 20
0.0
 30
0.0
210
0.0
220
0.0
230
1.0
  2
SOLID
 70
1
 71
0
 91
1
 92
3
 72
0
 73
1
 93
16
 10
472.6
 20
418.24
 10
472.5543277195068
 20
418.46961005941904
 10
472.4242640687119
 20
418.66426406871193
 10
472.22961005941903
 20
418.7943277195068
 10
472.0
 20
418.84000000000003
 10
471.77038994058097
 20
418.7943277195068
 10
471.5757359312881
 20
418.66426406871193
 10
471.4456722804932
 20
418.46961005941904
 10
471.4
 20
418.24
 10
471.4456722804932
 20
418.010389940581
 10
471.5757359312881
 20
417.8157359312881
 10
471.77038994058097
 20
417.68567228049324
 10
472.0
 20
417.64
 10
472.22961005941903
 20
417.68567228049324
 10
472.4242640687119
 20
417.8157359312881
 10
472.5543277195068
 20
418.010389940581
 97
0
 75
0
 76
1
 98
0
  0
CIRCLE
  5
1BE
330
17
100
AcDbEntity
  8
S-REBAR-MAIN
100
AcDbCircle
 10
480.0
 20
418.24
 30
0.0
 40
0.6
  0
HATCH
  5
1BF
330
17
100
AcDbEntity
  8
S-REBAR-MAIN
 62
1
100
AcDbHatch
 10
0.0
 20
0.0
 30
0.0
210
0.0
220
0.0
230
1.0
  2
SOLID
 70
1
 71
0
 91
1
 92
3
 72
0
 73
1
 93
16
 10
480.6
 20
418.24
 10
480.5543277195068
 20
418.46961005941904
 10
480.4242640687119
 20
418.66426406871193
 10
480.22961005941903
 20
418.7943277195068
 10
480.0
 20
418.84000000000003
 10
479.77038994058097
 20
418.7943277195068
 10
479.5757359312881
 20
418.66426406871193
 10
479.4456722804932
 20
418.46961005941904
 10
479.4
 20
418.24
 10
479.4456722804932
 20
418.010389940581
 10
479.5757359312881
 20
417.8157359312881
 10
479.77038994058097
 20
417.68567228049324
 10
480.0
 20
417.64
 10
480.22961005941903
 20
417.68567228049324
 10
480.4242640687119
 20
417.8157359312881
 10
480.5543277195068
 20
418.010389940581
 97
0
 75
0
 76
1
 98
0
  0
CIRCLE
  5
1C0
330
17
100
AcDbEntity
  8
S-REBAR-MAIN
100
AcDbCircle
 10
488.0
 20
418.24
 30
0.0
 40
0.6
  0
HATCH
  5
1C1
330
17
100
AcDbEntity
  8
S-REBAR-MAIN
 62
1
100
AcDbHatch
 10
0.0
 20
0.0
 30
0.0
210
0.0
220
0.0
230
1.0
  2
SOLID
 70
1
 71
0
 91
1
 92
3
 72
0
 73
1
 93
16
 10
488.6
 20
418.24
 10
488.5543277195068
 20
418.46961005941904
 10
488.4242640687119
 20
418.66426406871193
 10
488.22961005941903
 20
418.7943277195068
 10
488.0
 20
418.84000000000003
 10
487.77038994058097
 20
418.7943277195068
 10
487.5757359312881
 20
418.66426406871193
 10
487.4456722804932
 20
418.46961005941904
 10
487.4
 20
418.24
 10
487.4456722804932
 20
418.010389940581
 10
487.5757359312881
 20
417.8157359312881
 10
487.77038994058097
 20
417.68567228049324
 10
488.0
 20
417.64
 10
488.22961005941903
 20
417.68567228049324
 10
488.4242640687119
 20
417.8157359312881
 10
488.5543277195068
 20
418.010389940581
 97
0
 75
0
 76
1
 98
0
  0
CIRCLE
  5
1C2
330
17
100
AcDbEntity
  8
S-REBAR-MAIN
100
AcDbCircle
 10
496.0
 20
418.24
 30
0.0
 40
0.6
  0
HATCH
  5
1C3
330
17
100
AcDbEntity
  8
S-REBAR-MAIN
 62
1
100
AcDbHatch
 10
0.0
 20
0.0
 30
0.0
210
0.0
220
0.0
230
1.0
  2
SOLID
 70
1
 71
0
 91
1
 92
3
 72
0
 73
1
 93
16
 10
496.6
 20
418.24
 10
496.5543277195068
 20
418.46961005941904
 10
496.4242640687119
 20
418.66426406871193
 10
496.22961005941903
 20
418.7943277195068
 10
496.0
 20
418.84000000000003
 10
495.77038994058097
 20
418.7943277195068
 10
495.5757359312881
 20
418.66426406871193
 10
495.4456722804932
 20
418.46961005941904
 10
495.4
 20
418.24
 10
495.4456722804932
 20
418.010389940581
 10
495.5757359312881
 20
417.8157359312881
 10
495.77038994058097
 20
417.68567228049324
 10
496.0
 20
417.64
 10
496.22961005941903
 20
417.68567228049324
 10
496.4242640687119
 20
417.8157359312881
 10
496.5543277195068
 20
418.010389940581
 97
0
 75
0
 76
1
 98
0
  0
CIRCLE
  5
1C4
330
17
100
AcDbEntity
  8
S-REBAR-MAIN
100
AcDbCircle
 10
504.0
 20
418.24
 30
0.0
 40
0.6
  0
HATCH
  5
1C5
330
17
100
AcDbEntity
  8
S-REBAR-MAIN
 62
1
100
AcDbHatch
 10
0.0
 20
0.0
 30
0.0
210
0.0
220
0.0
230
1.0
  2
SOLID
 70
1
 71
0
 91
1
 92
3
 72
0
 73
1
 93
16
 10
504.6
 20
418.24
 10
504.5543277195068
 20
418.46961005941904
 10
504.4242640687119
 20
418.66426406871193
 10
504.22961005941903
 20
418.7943277195068
 10
504.0
 20
418.84000000000003
 10
503.77038994058097
 20
418.7943277195068
 10
503.5757359312881
 20
418.66426406871193
 10
503.4456722804932
 20
418.46961005941904
 10
503.4
 20
418.24
 10
503.4456722804932
 20
418.010389940581
 10
503.5757359312881
 20
417.8157359312881
 10
503.77038994058097
 20
417.68567228049324
 10
504.0
 20
417.64
 10
504.22961005941903
 20
417.68567228049324
 10
504.4242640687119
 20
417.8157359312881
 10
504.5543277195068
 20
418.010389940581
 97
0
 75
0
 76
1
 98
0
  0
CIRCLE
  5
1C6
330
17
100
AcDbEntity
  8
S-REBAR-MAIN
100
AcDbCircle
 10
512.0
 20
418.24
 30
0.0
 40
0.6
  0
HATCH
  5
1C7
330
17
100
AcDbEntity
  8
S-REBAR-MAIN
 62
1
100
AcDbHatch
 10
0.0
 20
0.0
 30
0.0
210
0.0
220
0.0
230
1.0
  2
SOLID
 70
1
 71
0
 91
1
 92
3
 72
0
 73
1
 93
16
 10
512.6
 20
418.24
 10
512.5543277195068
 20
418.46961005941904
 10
512.424264068712
 20
418.66426406871193
 10
512.2296100594191
 20
418.7943277195068
 10
512.0
 20
418.84000000000003
 10
511.77038994058097
 20
418.7943277195068
 10
511.5757359312881
 20
418.66426406871193
 10
511.4456722804932
 20
418.46961005941904
 10
511.4
 20
418.24
 10
511.4456722804932
 20
418.010389940581
 10
511.5757359312881
 20
417.8157359312881
 10
511.77038994058097
 20
417.68567228049324
 10
512.0
 20
417.64
 10
512.2296100594191
 20
417.68567228049324
 10
512.424264068712
 20
417.8157359312881
 10
512.5543277195068
 20
418.010389940581
 97
0
 75
0
 76
1
 98
0
  0
CIRCLE
  5
1C8
330
17
100
AcDbEntity
  8
S-REBAR-MAIN
100
AcDbCircle
 10
520.0
 20
418.24
 30
0.0
 40
0.6
  0
HATCH
  5
1C9
330
17
100
AcDbEntity
  8
S-REBAR-MAIN
 62
1
100
AcDbHatch
 10
0.0
 20
0.0
 30
0.0
210
0.0
220
0.0
230
1.0
  2
SOLID
 70
1
 71
0
 91
1
 92
3
 72
0
 73
1
 93
16
 10
520.6
 20
418.24
 10
520.5543277195068
 20
418.46961005941904
 10
520.424264068712
 20
418.66426406871193
 10
520.2296100594191
 20
418.7943277195068
 10
520.0
 20
418.84000000000003
 10
519.7703899405809
 20
418.7943277195068
 10
519.575735931288
 20
418.66426406871193
 10
519.4456722804932
 20
418.46961005941904
 10
519.4
 20
418.24
 10
519.4456722804932
 20
418.010389940581
 10
519.575735931288
 20
417.8157359312881
 10
519.7703899405809
 20
417.68567228049324
 10
520.0
 20
417.64
 10
520.2296100594191
 20
417.68567228049324
 10
520.424264068712
 20
417.8157359312881
 10
520.5543277195068
 20
418.010389940581
 97
0
 75
0
 76
1
 98
0
  0
CIRCLE
  5
1CA
330
17
100
AcDbEntity
  8
S-REBAR-MAIN
100
AcDbCircle
 10
528.0
 20
418.24
 30
0.0
 40
0.6
  0
HATCH
  5
1CB
330
17
100
AcDbEntity
  8
S-REBAR-MAIN
 62
1
100
AcDbHatch
 10
0.0
 20
0.0
 30
0.0
210
0.0
220
0.0
230
1.0
  2
SOLID
 70
1
 71
0
 91
1
 92
3
 72
0
 73
1
 93
16
 10
528.6
 20
418.24
 10
528.5543277195068
 20
418.46961005941904
 10
528.424264068712
 20
418.66426406871193
 10
528.2296100594191
 20
418.7943277195068
 10
528.0
 20
418.84000000000003
 10
527.7703899405809
 20
418.7943277195068
 10
527.575735931288
 20
418.66426406871193
 10
527.4456722804932
 20
418.46961005941904
 10
527.4
 20
418.24
 10
527.4456722804932
 20
418.010389940581
 10
527.575735931288
 20
417.8157359312881
 10
527.7703899405809
 20
417.68567228049324
 10
528.0
 20
417.64
 10
528.2296100594191
 20
417.68567228049324
 10
528.424264068712
 20
417.8157359312881
 10
528.5543277195068
 20
418.010389940581
 97
0
 75
0
 76
1
 98
0
  0
CIRCLE
  5
1CC
330
17
100
AcDbEntity
  8
S-REBAR-MAIN
100
AcDbCircle
 10
472.0
 20
423.76
 30
0.0
 40
0.6
  0
HATCH
  5
1CD
330
17
100
AcDbEntity
  8
S-REBAR-MAIN
 62
1
100
AcDbHatch
 10
0.0
 20
0.0
 30
0.0
210
0.0
220
0.0
230
1.0
  2
SOLID
 70
1
 71
0
 91
1
 92
3
 72
0
 73
1
 93
16
 10
472.6
 20
423.76
 10
472.5543277195068
 20
423.989610059419
 10
472.4242640687119
 20
424.1842640687119
 10
472.22961005941903
 20
424.31432771950676
 10
472.0
 20
424.36
 10
471.77038994058097
 20
424.31432771950676
 10
471.5757359312881
 20
424.1842640687119
 10
471.4456722804932
 20
423.989610059419
 10
471.4
 20
423.76
 10
471.4456722804932
 20
423.53038994058096
 10
471.5757359312881
 20
423.33573593128807
 10
471.77038994058097
 20
423.2056722804932
 10
472.0
 20
423.15999999999997
 10
472.22961005941903
 20
423.2056722804932
 10
472.4242640687119
 20
423.33573593128807
 10
472.5543277195068
 20
423.53038994058096
 97
0
 75
0
 76
1
 98
0
  0
CIRCLE
  5
1CE
330
17
100
AcDbEntity
  8
S-REBAR-MAIN
100
AcDbCircle
 10
480.0
 20
423.76
 30
0.0
 40
0.6
  0
HATCH
  5
1CF
330
17
100
AcDbEntity
  8
S-REBAR-MAIN
 62
1
100
AcDbHatch
 10
0.0
 20
0.0
 30
0.0
210
0.0
220
0.0
230
1.0
  2
SOLID
 70
1
 71
0
 91
1
 92
3
 72
0
 73
1
 93
16
 10
480.6
 20
423.76
 10
480.5543277195068
 20
423.989610059419
 10
480.4242640687119
 20
424.1842640687119
 10
480.22961005941903
 20
424.31432771950676
 10
480.0
 20
424.36
 10
479.77038994058097
 20
424.31432771950676
 10
479.5757359312881
 20
424.1842640687119
 10
479.4456722804932
 20
423.989610059419
 10
479.4
 20
423.76
 10
479.4456722804932
 20
423.53038994058096
 10
479.5757359312881
 20
423.33573593128807
 10
479.77038994058097
 20
423.2056722804932
 10
480.0
 20
423.15999999999997
 10
480.22961005941903
 20
423.2056722804932
 10
480.4242640687119
 20
423.33573593128807
 10
480.5543277195068
 20
423.53038994058096
 97
0
 75
0
 76
1
 98
0
  0
CIRCLE
  5
1D0
330
17
100
AcDbEntity
  8
S-REBAR-MAIN
100
AcDbCircle
 10
488.0
 20
423.76
 30
0.0
 40
0.6
  0
HATCH
  5
1D1
330
17
100
AcDbEntity
  8
S-REBAR-MAIN
 62
1
100
AcDbHatch
 10
0.0
 20
0.0
 30
0.0
210
0.0
220
0.0
230
1.0
  2
SOLID
 70
1
 71
0
 91
1
 92
3
 72
0
 73
1
 93
16
 10
488.6
 20
423.76
 10
488.5543277195068
 20
423.989610059419
 10
488.4242640687119
 20
424.1842640687119
 10
488.22961005941903
 20
424.31432771950676
 10
488.0
 20
424.36
 10
487.77038994058097
 20
424.31432771950676
 10
487.5757359312881
 20
424.1842640687119
 10
487.4456722804932
 20
423.989610059419
 10
487.4
 20
423.76
 10
487.4456722804932
 20
423.53038994058096
 10
487.5757359312881
 20
423.33573593128807
 10
487.77038994058097
 20
423.2056722804932
 10
488.0
 20
423.15999999999997
 10
488.22961005941903
 20
423.2056722804932
 10
488.4242640687119
 20
423.33573593128807
 10
488.5543277195068
 20
423.53038994058096
 97
0
 75
0
 76
1
 98
0
  0
CIRCLE
  5
1D2
330
17
100
AcDbEntity
  8
S-REBAR-MAIN
100
AcDbCircle
 10
496.0
 20
423.76
 30
0.0
 40
0.6
  0
HATCH
  5
1D3
330
17
100
AcDbEntity
  8
S-REBAR-MAIN
 62
1
100
AcDbHatch
 10
0.0
 20
0.0
 30
0.0
210
0.0
220
0.0
230
1.0
  2
SOLID
 70
1
 71
0
 91
1
 92
3
 72
0
 73
1
 93
16
 10
496.6
 20
423.76
 10
496.5543277195068
 20
423.989610059419
 10
496.4242640687119
 20
424.1842640687119
 10
496.22961005941903
 20
424.31432771950676
 10
496.0
 20
424.36
 10
495.77038994058097
 20
424.31432771950676
 10
495.5757359312881
 20
424.1842640687119
 10
495.4456722804932
 20
423.989610059419
 10
495.4
 20
423.76
 10
495.4456722804932
 20
423.53038994058096
 10
495.5757359312881
 20
423.33573593128807
 10
495.77038994058097
 20
423.2056722804932
 10
496.0
 20
423.15999999999997
 10
496.22961005941903
 20
423.2056722804932
 10
496.4242640687119
 20
423.33573593128807
 10
496.5543277195068
 20
423.53038994058096
 97
0
 75
0
 76
1
 98
0
  0
CIRCLE
  5
1D4
330
17
100
AcDbEntity
  8
S-REBAR-MAIN
100
AcDbCircle
 10
504.0
 20
423.76
 30
0.0
 40
0.6
  0
HATCH
  5
1D5
330
17
100
AcDbEntity
  8
S-REBAR-MAIN
 62
1
100
AcDbHatch
 10
0.0
 20
0.0
 30
0.0
210
0.0
220
0.0
230
1.0
  2
SOLID
 70
1
 71
0
 91
1
 92
3
 72
0
 73
1
 93
16
 10
504.6
 20
423.76
 10
504.5543277195068
 20
423.989610059419
 10
504.4242640687119
 20
424.1842640687119
 10
504.22961005941903
 20
424.31432771950676
 10
504.0
 20
424.36
 10
503.77038994058097
 20
424.31432771950676
 10
503.5757359312881
 20
424.1842640687119
 10
503.4456722804932
 20
423.989610059419
 10
503.4
 20
423.76
 10
503.4456722804932
 20
423.53038994058096
 10
503.5757359312881
 20
423.33573593128807
 10
503.77038994058097
 20
423.2056722804932
 10
504.0
 20
423.15999999999997
 10
504.22961005941903
 20
423.2056722804932
 10
504.4242640687119
 20
423.33573593128807
 10
504.5543277195068
 20
423.53038994058096
 97
0
 75
0
 76
1
 98
0
  0
CIRCLE
  5
1D6
330
17
100
AcDbEntity
  8
S-REBAR-MAIN
100
AcDbCircle
 10
512.0
 20
423.76
 30
0.0
 40
0.6
  0
HATCH
  5
1D7
330
17
100
AcDbEntity
  8
S-REBAR-MAIN
 62
1
100
AcDbHatch
 10
0.0
 20
0.0
 30
0.0
210
0.0
220
0.0
230
1.0
  2
SOLID
 70
1
 71
0
 91
1
 92
3
 72
0
 73
1
 93
16
 10
512.6
 20
423.76
 10
512.5543277195068
 20
423.989610059419
 10
512.424264068712
 20
424.1842640687119
 10
512.2296100594191
 20
424.31432771950676
 10
512.0
 20
424.36
 10
511.77038994058097
 20
424.31432771950676
 10
511.5757359312881
 20
424.1842640687119
 10
511.4456722804932
 20
423.989610059419
 10
511.4
 20
423.76
 10
511.4456722804932
 20
423.53038994058096
 10
511.5757359312881
 20
423.33573593128807
 10
511.77038994058097
 20
423.2056722804932
 10
512.0
 20
423.15999999999997
 10
512.2296100594191
 20
423.2056722804932
 10
512.424264068712
 20
423.33573593128807
 10
512.5543277195068
 20
423.53038994058096
 97
0
 75
0
 76
1
 98
0
  0
CIRCLE
  5
1D8
330
17
100
AcDbEntity
  8
S-REBAR-MAIN
100
AcDbCircle
 10
520.0
 20
423.76
 30
0.0
 40
0.6
  0
HATCH
  5
1D9
330
17
100
AcDbEntity
  8
S-REBAR-MAIN
 62
1
100
AcDbHatch
 10
0.0
 20
0.0
 30
0.0
210
0.0
220
0.0
230
1.0
  2
SOLID
 70
1
 71
0
 91
1
 92
3
 72
0
 73
1
 93
16
 10
520.6
 20
423.76
 10
520.5543277195068
 20
423.989610059419
 10
520.424264068712
 20
424.1842640687119
 10
520.2296100594191
 20
424.31432771950676
 10
520.0
 20
424.36
 10
519.7703899405809
 20
424.31432771950676
 10
519.575735931288
 20
424.1842640687119
 10
519.4456722804932
 20
423.989610059419
 10
519.4
 20
423.76
 10
519.4456722804932
 20
423.53038994058096
 10
519.575735931288
 20
423.33573593128807
 10
519.7703899405809
 20
423.2056722804932
 10
520.0
 20
423.15999999999997
 10
520.2296100594191
 20
423.2056722804932
 10
520.424264068712
 20
423.33573593128807
 10
520.5543277195068
 20
423.53038994058096
 97
0
 75
0
 76
1
 98
0
  0
CIRCLE
  5
1DA
330
17
100
AcDbEntity
  8
S-REBAR-MAIN
100
AcDbCircle
 10
528.0
 20
423.76
 30
0.0
 40
0.6
  0
HATCH
  5
1DB
330
17
100
AcDbEntity
  8
S-REBAR-MAIN
 62
1
100
AcDbHatch
 10
0.0
 20
0.0
 30
0.0
210
0.0
220
0.0
230
1.0
  2
SOLID
 70
1
 71
0
 91
1
 92
3
 72
0
 73
1
 93
16
 10
528.6
 20
423.76
 10
528.5543277195068
 20
423.989610059419
 10
528.424264068712
 20
424.1842640687119
 10
528.2296100594191
 20
424.31432771950676
 10
528.0
 20
424.36
 10
527.7703899405809
 20
424.31432771950676
 10
527.575735931288
 20
424.1842640687119
 10
527.4456722804932
 20
423.989610059419
 10
527.4
 20
423.76
 10
527.4456722804932
 20
423.53038994058096
 10
527.575735931288
 20
423.33573593128807
 10
527.7703899405809
 20
423.2056722804932
 10
528.0
 20
423.15999999999997
 10
528.2296100594191
 20
423.2056722804932
 10
528.424264068712
 20
423.33573593128807
 10
528.5543277195068
 20
423.53038994058096
 97
0
 75
0
 76
1
 98
0
  0
DIMENSION
  5
1DC
330
17
100
AcDbEntity
  8
S-DIM
100
AcDbDimension
280
0
  2
*D5
  3
SC-DIM
 10
470.0
 20
272.0
 30
0.0
 11
500.0
 21
273.7
 31
0.0
 70
32
 71
5
  1
<>
100
AcDbAlignedDimension
 13
470.0
 23
300.0
 33
0.0
 14
530.0
 24
300.0
 34
0.0
 50
0.0
100
AcDbRotatedDimension
1001
ACAD
1000
DSTYLE
1002
{
1070
144
1040
25.0
1002
}
  0
DIMENSION
  5
1EB
330
17
100
AcDbEntity
  8
S-DIM
100
AcDbDimension
280
0
  2
*D6
  3
SC-DIM
 10
460.0
 20
248.0
 30
0.0
 11
500.0
 21
249.7
 31
0.0
 70
32
 71
5
  1
<>
100
AcDbAlignedDimension
 13
460.0
 23
300.0
 33
0.0
 14
540.0
 24
300.0
 34
0.0
 50
0.0
100
AcDbRotatedDimension
1001
ACAD
1000
DSTYLE
1002
{
1070
144
1040
25.0
1002
}
  0
DIMENSION
  5
1FA
330
17
100
AcDbEntity
  8
S-DIM
100
AcDbDimension
280
0
  2
*D7
  3
SC-DIM
 10
560.0
 20
300.0
 30
0.0
 11
558.3
 21
358.0
 31
0.0
 70
32
 71
5
  1
<>
100
AcDbAlignedDimension
 13
540.0
 23
300.0
 33
0.0
 14
540.0
 24
416.0
 34
0.0
 50
90.0
100
AcDbRotatedDimension
1001
ACAD
1000
DSTYLE
1002
{
1070
144
1040
25.0
1002
}
  0
INSERT
  5
209
330
17
100
AcDbEntity
  8
S-CALLOUT
100
AcDbBlockReference
  2
BARMARK
 10
450.0
 20
350.0
 30
0.0
  0
TEXT
  5
20B
330
17
100
AcDbEntity
  8
S-CALLOUT
100
AcDbText
 10
450.0
 20
350.0
 30
0.0
 40
2.0
  1
E04A
  7
OpenSans
 72
1
 11
450.0
 21
350.0
 31
0.0
100
AcDbText
 73
2
  0
LEADER
  5
20C
330
17
100
AcDbEntity
  8
S-CALLOUT
100
AcDbLeader
  3
SC-DIM
 73
3
 76
2
 10
462.24
 20
372.0
 30
0.0
 10
450.0
 20
350.0
 30
0.0
  0
INSERT
  5
20D
330
17
100
AcDbEntity
  8
S-CALLOUT
100
AcDbBlockReference
  2
BARMARK
 10
560.0
 20
424.0
 30
0.0
  0
TEXT
  5
20F
330
17
100
AcDbEntity
  8
S-CALLOUT
100
AcDbText
 10
560.0
 20
424.0
 30
0.0
 40
2.0
  1
E05B
  7
OpenSans
 72
1
 11
560.0
 21
424.0
 31
0.0
100
AcDbText
 73
2
  0
LEADER
  5
210
330
17
100
AcDbEntity
  8
S-CALLOUT
100
AcDbLeader
  3
SC-DIM
 73
3
 76
2
 10
500.0
 20
423.76
 30
0.0
 10
560.0
 20
424.0
 30
0.0
  0
TEXT
  5
211
330
17
100
AcDbEntity
  8
S-TITLE
100
AcDbText
 10
440.0
 20
552.0
 30
0.0
 40
3.5
  1
V2   TRANSVERSE SECTION
  7
OpenSans
 11
440.0
 21
552.0
 31
0.0
100
AcDbText
  0
LINE
  5
212
330
17
100
AcDbEntity
  8
S-TITLE
100
AcDbLine
 10
440.0
 20
550.2
 30
0.0
 11
505.5224380442063
 21
550.2
 31
0.0
  0
TEXT
  5
213
330
17
100
AcDbEntity
  8
S-TEXT
100
AcDbText
 10
440.0
 20
544.8
 30
0.0
 40
2.0
  1
SCALE 1:25
  7
OpenSans
 11
440.0
 21
544.8
 31
0.0
100
AcDbText
  0
TEXT
  5
214
330
17
100
AcDbEntity
  8
S-TITLE
100
AcDbText
 10
32.0
 20
219.5
 30
0.0
 40
2.5
  1
ENTRY STAIRWELL - DESIGN
  7
OpenSans
 11
32.0
 21
219.5
 31
0.0
100
AcDbText
  0
TEXT
  5
215
330
17
100
AcDbEntity
  8
S-NOTE
100
AcDbText
 10
32.0
 20
215.375
 30
0.0
 40
2.0
  1
STATUS: OUTSIDE THE PROTECTIVE BOUNDARY, NOT BLAST RATED (Rev F note 8).
  7
OpenSans
 11
32.0
 21
215.375
 31
0.0
100
AcDbText
  0
TEXT
  5
216
330
17
100
AcDbEntity
  8
S-NOTE
100
AcDbText
 10
32.0
 20
212.325
 30
0.0
 40
2.0
  1
EXPECTED TO BE LOST IN THE DESIGN EVENT.  DECLARED EXPENDABLE.
  7
OpenSans
 11
32.0
 21
212.325
 31
0.0
100
AcDbText
  0
TEXT
  5
217
330
17
100
AcDbEntity
  8
S-NOTE
100
AcDbText
 10
32.0
 20
209.27499999999998
 30
0.0
 40
2.0
  1
Designed to IS 456 with NORMAL partial factors.
  7
OpenSans
 11
32.0
 21
209.27499999999998
 31
0.0
100
AcDbText
  0
TEXT
  5
218
330
17
100
AcDbEntity
  8
S-NOTE
100
AcDbText
 10
32.0
 20
203.17499999999995
 30
0.0
 40
2.0
  1
FLIGHT  12R @ 166.6667 / 300, 1500 wide, waist 250
  7
OpenSans
 11
32.0
 21
203.17499999999995
 31
0.0
100
AcDbText
  0
TEXT
  5
219
330
17
100
AcDbEntity
  8
S-NOTE
100
AcDbText
 10
32.0
 20
200.12499999999994
 30
0.0
 40
2.0
  1
  theta 29.05 deg ; waist 7.150 + steps 2.083 + finishes 1.000 + live 5.000
  7
OpenSans
 11
32.0
 21
200.12499999999994
 31
0.0
100
AcDbText
  0
TEXT
  5
21A
330
17
100
AcDbEntity
  8
S-NOTE
100
AcDbText
 10
32.0
 20
197.07499999999993
 30
0.0
 40
2.0
  1
  = 15.233  ->  wu = 22.85 kPa
  7
OpenSans
 11
32.0
 21
197.07499999999993
 31
0.0
100
AcDbText
  0
TEXT
  5
21B
330
17
100
AcDbEntity
  8
S-NOTE
100
AcDbText
 10
32.0
 20
194.02499999999992
 30
0.0
 40
2.0
  1
  Leff = 3300 + 750 + 750 (Cl. 33.1(b))    =  4800 mm ;  d = 214
  7
OpenSans
 11
32.0
 21
194.02499999999992
 31
0.0
100
AcDbText
  0
TEXT
  5
21C
330
17
100
AcDbEntity
  8
S-NOTE
100
AcDbText
 10
32.0
 20
190.9749999999999
 30
0.0
 40
2.0
  1
  M = 22.85 x 4.800^2 / 8                  =  65.8 kNm/m ; Ast,req 744
  7
OpenSans
 11
32.0
 21
190.9749999999999
 31
0.0
100
AcDbText
  0
TEXT
  5
21D
330
17
100
AcDbEntity
  8
S-NOTE
100
AcDbText
 10
32.0
 20
187.9249999999999
 30
0.0
 40
2.0
  1
  ADOPTED  T16 @ 200 MAIN (1005) -> Mu 87.3, UTIL 75 %, x/d 0.162
  7
OpenSans
 11
32.0
 21
187.9249999999999
 31
0.0
100
AcDbText
  0
TEXT
  5
21E
330
17
100
AcDbEntity
  8
S-NOTE
100
AcDbText
 10
32.0
 20
184.8749999999999
 30
0.0
 40
2.0
  1
           T10 @ 200 DISTRIBUTION ; T16 @ 200 TOP for 1200, Ld 640
  7
OpenSans
 11
32.0
 21
184.8749999999999
 31
0.0
100
AcDbText
  0
TEXT
  5
21F
330
17
100
AcDbEntity
  8
S-NOTE
100
AcDbText
 10
32.0
 20
181.82499999999987
 30
0.0
 40
2.0
  1
  DEFLECTION 4800/214 = 22.4 ; fs 215 ; pt 0.470 % ; MF ~1.5 -> 30  OK
  7
OpenSans
 11
32.0
 21
181.82499999999987
 31
0.0
100
AcDbText
  0
TEXT
  5
220
330
17
100
AcDbEntity
  8
S-NOTE
100
AcDbText
 10
32.0
 20
178.77499999999986
 30
0.0
 40
2.0
  1
  SHEAR V 54.8 kN/m ; tau_v 0.256 < tau_c 0.484 x k 1.10 = 0.532  NO LINKS
  7
OpenSans
 11
32.0
 21
178.77499999999986
 31
0.0
100
AcDbText
  0
TEXT
  5
221
330
17
100
AcDbEntity
  8
S-NOTE
100
AcDbText
 10
32.0
 20
172.67499999999984
 30
0.0
 40
2.0
  1
SIDE WALLS 250, retained 2.9 m, propped by the roof and the raft
  7
OpenSans
 11
32.0
 21
172.67499999999984
 31
0.0
100
AcDbText
  0
TEXT
  5
222
330
17
100
AcDbEntity
  8
S-NOTE
100
AcDbText
 10
32.0
 20
169.62499999999983
 30
0.0
 40
2.0
  1
  sigma_h base = 0.5 x 20 x 2.900 + 0.5 x 10  =  34 kPa
  7
OpenSans
 11
32.0
 21
169.62499999999983
 31
0.0
100
AcDbText
  0
TEXT
  5
223
330
17
100
AcDbEntity
  8
S-NOTE
100
AcDbText
 10
32.0
 20
166.57499999999982
 30
0.0
 40
2.0
  1
  M ~ w L2 / 12 on an equivalent 20 kPa UDL   =  14.0 kNm/m ; Ast,req 168
  7
OpenSans
 11
32.0
 21
166.57499999999982
 31
0.0
100
AcDbText
  0
TEXT
  5
224
330
17
100
AcDbEntity
  8
S-NOTE
100
AcDbText
 10
32.0
 20
163.5249999999998
 30
0.0
 40
2.0
  1
  Cl. 32.5(a) 300 · Cl. 32.5(b) 500 · Cl. 32.5(c) two curtains  OK
  7
OpenSans
 11
32.0
 21
163.5249999999998
 31
0.0
100
AcDbText
  0
TEXT
  5
225
330
17
100
AcDbEntity
  8
S-NOTE
100
AcDbText
 10
32.0
 20
160.4749999999998
 30
0.0
 40
2.0
  1
  ADOPTED  T12 @ 200 EF EW (565/face) - MINIMUM STEEL GOVERNS, 31 % used
  7
OpenSans
 11
32.0
 21
160.4749999999998
 31
0.0
100
AcDbText
  0
TEXT
  5
226
330
17
100
AcDbEntity
  8
S-NOTE
100
AcDbText
 10
32.0
 20
154.37499999999977
 30
0.0
 40
2.0
  1
RAKING ROOF 250, 1500 clear
  7
OpenSans
 11
32.0
 21
154.37499999999977
 31
0.0
100
AcDbText
  0
TEXT
  5
227
330
17
100
AcDbEntity
  8
S-NOTE
100
AcDbText
 10
32.0
 20
151.32499999999976
 30
0.0
 40
2.0
  1
  self 6.25 + wp/screed 2.0 + earth lap 5.4 + IMPOSED 20 = 33.65 -> wu 50.5
  7
OpenSans
 11
32.0
 21
151.32499999999976
 31
0.0
100
AcDbText
  0
TEXT
  5
228
330
17
100
AcDbEntity
  8
S-NOTE
100
AcDbText
 10
32.0
 20
148.27499999999975
 30
0.0
 40
2.0
  1
  (20 kPa imposed taken DELIBERATELY, for a stray vehicle on the berm)
  7
OpenSans
 11
32.0
 21
148.27499999999975
 31
0.0
100
AcDbText
  0
TEXT
  5
229
330
17
100
AcDbEntity
  8
S-NOTE
100
AcDbText
 10
32.0
 20
145.22499999999974
 30
0.0
 40
2.0
  1
  M = w l2 / 12 = 9.5 kNm/m ; Ast,req 108 ; min 300 GOVERNS
  7
OpenSans
 11
32.0
 21
145.22499999999974
 31
0.0
100
AcDbText
  0
TEXT
  5
22A
330
17
100
AcDbEntity
  8
S-NOTE
100
AcDbText
 10
32.0
 20
142.17499999999973
 30
0.0
 40
2.0
  1
  ADOPTED  T12 @ 200 EF EW  ->  20 % utilised
  7
OpenSans
 11
32.0
 21
142.17499999999973
 31
0.0
100
AcDbText
  0
TEXT
  5
22B
330
17
100
AcDbEntity
  8
S-NOTE
100
AcDbText
 10
32.0
 20
136.0749999999997
 30
0.0
 40
2.0
  1
TOP LANDING 250  wu 54.9 ; Leff 1750 ; M 21.0 kNm/m -> T12 @ 200 EF EW, 41 %
  7
OpenSans
 11
32.0
 21
136.0749999999997
 31
0.0
100
AcDbText
  0
TEXT
  5
22C
330
17
100
AcDbEntity
  8
S-NOTE
100
AcDbText
 10
32.0
 20
133.0249999999997
 30
0.0
 40
2.0
  1
PLATFORM · HEADWALL · STEPPED RAFT 300   T12 @ 200 EF EW, nominal
  7
OpenSans
 11
32.0
 21
133.0249999999997
 31
0.0
100
AcDbText
  0
TEXT
  5
22D
330
17
100
AcDbEntity
  8
S-NOTE
100
AcDbText
 10
32.0
 20
126.92499999999968
 30
0.0
 40
2.0
  1
MANUAL CALCULATION - NOT DIRECT STAAD OUTPUT.
  7
OpenSans
 11
32.0
 21
126.92499999999968
 31
0.0
100
AcDbText
  0
LWPOLYLINE
  5
22E
330
17
100
AcDbEntity
  8
S-TITLE
100
AcDbPolyline
 90
4
 70
1
 10
30.0
 20
121.87499999999969
 10
360.0
 20
121.87499999999969
 10
360.0
 20
224.0
 10
30.0
 20
224.0
  0
TEXT
  5
22F
330
17
100
AcDbEntity
  8
S-TITLE
100
AcDbText
 10
372.0
 20
220.6
 30
0.0
 40
2.5
  1
BAR MARK KEY - THIS SHEET
  7
OpenSans
 11
372.0
 21
220.6
 31
0.0
100
AcDbText
  0
CIRCLE
  5
230
330
17
100
AcDbEntity
  8
S-CALLOUT
100
AcDbCircle
 10
377.0
 20
214.1
 30
0.0
 40
2.6
  0
TEXT
  5
231
330
17
100
AcDbEntity
  8
S-CALLOUT
100
AcDbText
 10
377.0
 20
214.1
 30
0.0
 40
1.4
  1
E01
  7
OpenSans
 72
1
 11
377.0
 21
214.1
 31
0.0
100
AcDbText
 73
2
  0
TEXT
  5
232
330
17
100
AcDbEntity
  8
S-NOTE
100
AcDbText
 10
382.0
 20
213.5
 30
0.0
 40
1.9
  1
T16  @ 200   MAIN BARS
  7
OpenSans
 11
382.0
 21
213.5
 31
0.0
100
AcDbText
  0
CIRCLE
  5
233
330
17
100
AcDbEntity
  8
S-CALLOUT
100
AcDbCircle
 10
377.0
 20
208.1
 30
0.0
 40
2.6
  0
TEXT
  5
234
330
17
100
AcDbEntity
  8
S-CALLOUT
100
AcDbText
 10
377.0
 20
208.1
 30
0.0
 40
1.4
  1
E02
  7
OpenSans
 72
1
 11
377.0
 21
208.1
 31
0.0
100
AcDbText
 73
2
  0
TEXT
  5
235
330
17
100
AcDbEntity
  8
S-NOTE
100
AcDbText
 10
382.0
 20
207.5
 30
0.0
 40
1.9
  1
T10  @ 200   DISTRIBUTION
  7
OpenSans
 11
382.0
 21
207.5
 31
0.0
100
AcDbText
  0
CIRCLE
  5
236
330
17
100
AcDbEntity
  8
S-CALLOUT
100
AcDbCircle
 10
377.0
 20
202.1
 30
0.0
 40
2.6
  0
TEXT
  5
237
330
17
100
AcDbEntity
  8
S-CALLOUT
100
AcDbText
 10
377.0
 20
202.1
 30
0.0
 40
1.4
  1
E03
  7
OpenSans
 72
1
 11
377.0
 21
202.1
 31
0.0
100
AcDbText
 73
2
  0
TEXT
  5
238
330
17
100
AcDbEntity
  8
S-NOTE
100
AcDbText
 10
382.0
 20
201.5
 30
0.0
 40
1.9
  1
T16  @ 200   TOP, 1200 INTO THE FLIGHT
  7
OpenSans
 11
382.0
 21
201.5
 31
0.0
100
AcDbText
  0
CIRCLE
  5
239
330
17
100
AcDbEntity
  8
S-CALLOUT
100
AcDbCircle
 10
377.0
 20
196.1
 30
0.0
 40
2.6
  0
TEXT
  5
23A
330
17
100
AcDbEntity
  8
S-CALLOUT
100
AcDbText
 10
377.0
 20
196.1
 30
0.0
 40
1.4
  1
E04A
  7
OpenSans
 72
1
 11
377.0
 21
196.1
 31
0.0
100
AcDbText
 73
2
  0
TEXT
  5
23B
330
17
100
AcDbEntity
  8
S-NOTE
100
AcDbText
 10
382.0
 20
195.5
 30
0.0
 40
1.9
  1
T12  @ 200   VERTICAL, EACH FACE
  7
OpenSans
 11
382.0
 21
195.5
 31
0.0
100
AcDbText
  0
CIRCLE
  5
23C
330
17
100
AcDbEntity
  8
S-CALLOUT
100
AcDbCircle
 10
377.0
 20
190.1
 30
0.0
 40
2.6
  0
TEXT
  5
23D
330
17
100
AcDbEntity
  8
S-CALLOUT
100
AcDbText
 10
377.0
 20
190.1
 30
0.0
 40
1.4
  1
E04B
  7
OpenSans
 72
1
 11
377.0
 21
190.1
 31
0.0
100
AcDbText
 73
2
  0
TEXT
  5
23E
330
17
100
AcDbEntity
  8
S-NOTE
100
AcDbText
 10
382.0
 20
189.5
 30
0.0
 40
1.9
  1
T12  @ 200   HORIZONTAL, EACH FACE
  7
OpenSans
 11
382.0
 21
189.5
 31
0.0
100
AcDbText
  0
CIRCLE
  5
23F
330
17
100
AcDbEntity
  8
S-CALLOUT
100
AcDbCircle
 10
377.0
 20
184.1
 30
0.0
 40
2.6
  0
TEXT
  5
240
330
17
100
AcDbEntity
  8
S-CALLOUT
100
AcDbText
 10
377.0
 20
184.1
 30
0.0
 40
1.4
  1
E05A
  7
OpenSans
 72
1
 11
377.0
 21
184.1
 31
0.0
100
AcDbText
 73
2
  0
TEXT
  5
241
330
17
100
AcDbEntity
  8
S-NOTE
100
AcDbText
 10
382.0
 20
183.5
 30
0.0
 40
1.9
  1
T12  @ 200   TRANSVERSE, EACH FACE
  7
OpenSans
 11
382.0
 21
183.5
 31
0.0
100
AcDbText
  0
CIRCLE
  5
242
330
17
100
AcDbEntity
  8
S-CALLOUT
100
AcDbCircle
 10
377.0
 20
178.1
 30
0.0
 40
2.6
  0
TEXT
  5
243
330
17
100
AcDbEntity
  8
S-CALLOUT
100
AcDbText
 10
377.0
 20
178.1
 30
0.0
 40
1.4
  1
E05B
  7
OpenSans
 72
1
 11
377.0
 21
178.1
 31
0.0
100
AcDbText
 73
2
  0
TEXT
  5
244
330
17
100
AcDbEntity
  8
S-NOTE
100
AcDbText
 10
382.0
 20
177.5
 30
0.0
 40
1.9
  1
T12  @ 200   LONGITUDINAL, EACH FACE
  7
OpenSans
 11
382.0
 21
177.5
 31
0.0
100
AcDbText
  0
CIRCLE
  5
245
330
17
100
AcDbEntity
  8
S-CALLOUT
100
AcDbCircle
 10
377.0
 20
172.1
 30
0.0
 40
2.6
  0
TEXT
  5
246
330
17
100
AcDbEntity
  8
S-CALLOUT
100
AcDbText
 10
377.0
 20
172.1
 30
0.0
 40
1.4
  1
E06
  7
OpenSans
 72
1
 11
377.0
 21
172.1
 31
0.0
100
AcDbText
 73
2
  0
TEXT
  5
247
330
17
100
AcDbEntity
  8
S-NOTE
100
AcDbText
 10
382.0
 20
171.5
 30
0.0
 40
1.9
  1
T12  @ 200   BOTH WAYS, EACH FACE
  7
OpenSans
 11
382.0
 21
171.5
 31
0.0
100
AcDbText
  0
CIRCLE
  5
248
330
17
100
AcDbEntity
  8
S-CALLOUT
100
AcDbCircle
 10
377.0
 20
166.1
 30
0.0
 40
2.6
  0
TEXT
  5
249
330
17
100
AcDbEntity
  8
S-CALLOUT
100
AcDbText
 10
377.0
 20
166.1
 30
0.0
 40
1.4
  1
E07
  7
OpenSans
 72
1
 11
377.0
 21
166.1
 31
0.0
100
AcDbText
 73
2
  0
TEXT
  5
24A
330
17
100
AcDbEntity
  8
S-NOTE
100
AcDbText
 10
382.0
 20
165.5
 30
0.0
 40
1.9
  1
T12  @ 200   BOTH WAYS, EACH FACE
  7
OpenSans
 11
382.0
 21
165.5
 31
0.0
100
AcDbText
  0
CIRCLE
  5
24B
330
17
100
AcDbEntity
  8
S-CALLOUT
100
AcDbCircle
 10
377.0
 20
160.1
 30
0.0
 40
2.6
  0
TEXT
  5
24C
330
17
100
AcDbEntity
  8
S-CALLOUT
100
AcDbText
 10
377.0
 20
160.1
 30
0.0
 40
1.4
  1
E08A
  7
OpenSans
 72
1
 11
377.0
 21
160.1
 31
0.0
100
AcDbText
 73
2
  0
TEXT
  5
24D
330
17
100
AcDbEntity
  8
S-NOTE
100
AcDbText
 10
382.0
 20
159.5
 30
0.0
 40
1.9
  1
T12  @ 200   VERTICAL, EACH FACE
  7
OpenSans
 11
382.0
 21
159.5
 31
0.0
100
AcDbText
  0
CIRCLE
  5
24E
330
17
100
AcDbEntity
  8
S-CALLOUT
100
AcDbCircle
 10
377.0
 20
154.1
 30
0.0
 40
2.6
  0
TEXT
  5
24F
330
17
100
AcDbEntity
  8
S-CALLOUT
100
AcDbText
 10
377.0
 20
154.1
 30
0.0
 40
1.4
  1
E08B
  7
OpenSans
 72
1
 11
377.0
 21
154.1
 31
0.0
100
AcDbText
 73
2
  0
TEXT
  5
250
330
17
100
AcDbEntity
  8
S-NOTE
100
AcDbText
 10
382.0
 20
153.5
 30
0.0
 40
1.9
  1
T12  @ 200   HORIZONTAL, EACH FACE
  7
OpenSans
 11
382.0
 21
153.5
 31
0.0
100
AcDbText
  0
CIRCLE
  5
251
330
17
100
AcDbEntity
  8
S-CALLOUT
100
AcDbCircle
 10
377.0
 20
148.1
 30
0.0
 40
2.6
  0
TEXT
  5
252
330
17
100
AcDbEntity
  8
S-CALLOUT
100
AcDbText
 10
377.0
 20
148.1
 30
0.0
 40
1.4
  1
E09A
  7
OpenSans
 72
1
 11
377.0
 21
148.1
 31
0.0
100
AcDbText
 73
2
  0
TEXT
  5
253
330
17
100
AcDbEntity
  8
S-NOTE
100
AcDbText
 10
382.0
 20
147.5
 30
0.0
 40
1.9
  1
T12  @ 200   LONGITUDINAL, EACH FACE
  7
OpenSans
 11
382.0
 21
147.5
 31
0.0
100
AcDbText
  0
CIRCLE
  5
254
330
17
100
AcDbEntity
  8
S-CALLOUT
100
AcDbCircle
 10
377.0
 20
142.1
 30
0.0
 40
2.6
  0
TEXT
  5
255
330
17
100
AcDbEntity
  8
S-CALLOUT
100
AcDbText
 10
377.0
 20
142.1
 30
0.0
 40
1.4
  1
E09B
  7
OpenSans
 72
1
 11
377.0
 21
142.1
 31
0.0
100
AcDbText
 73
2
  0
TEXT
  5
256
330
17
100
AcDbEntity
  8
S-NOTE
100
AcDbText
 10
382.0
 20
141.5
 30
0.0
 40
1.9
  1
T12  @ 200   TRANSVERSE, EACH FACE
  7
OpenSans
 11
382.0
 21
141.5
 31
0.0
100
AcDbText
  0
CIRCLE
  5
257
330
17
100
AcDbEntity
  8
S-CALLOUT
100
AcDbCircle
 10
377.0
 20
136.1
 30
0.0
 40
2.6
  0
TEXT
  5
258
330
17
100
AcDbEntity
  8
S-CALLOUT
100
AcDbText
 10
377.0
 20
136.1
 30
0.0
 40
1.4
  1
E10
  7
OpenSans
 72
1
 11
377.0
 21
136.1
 31
0.0
100
AcDbText
 73
2
  0
TEXT
  5
259
330
17
100
AcDbEntity
  8
S-NOTE
100
AcDbText
 10
382.0
 20
135.5
 30
0.0
 40
1.9
  1
T12          3-T12 TOP + 3-T12 BOTTOM
  7
OpenSans
 11
382.0
 21
135.5
 31
0.0
100
AcDbText
  0
CIRCLE
  5
25A
330
17
100
AcDbEntity
  8
S-CALLOUT
100
AcDbCircle
 10
377.0
 20
130.1
 30
0.0
 40
2.6
  0
TEXT
  5
25B
330
17
100
AcDbEntity
  8
S-CALLOUT
100
AcDbText
 10
377.0
 20
130.1
 30
0.0
 40
1.4
  1
E11
  7
OpenSans
 72
1
 11
377.0
 21
130.1
 31
0.0
100
AcDbText
 73
2
  0
TEXT
  5
25C
330
17
100
AcDbEntity
  8
S-NOTE
100
AcDbText
 10
382.0
 20
129.5
 30
0.0
 40
1.9
  1
T8   @ 150   LINKS @ 150
  7
OpenSans
 11
382.0
 21
129.5
 31
0.0
100
AcDbText
  0
CIRCLE
  5
25D
330
17
100
AcDbEntity
  8
S-CALLOUT
100
AcDbCircle
 10
377.0
 20
124.1
 30
0.0
 40
2.6
  0
TEXT
  5
25E
330
17
100
AcDbEntity
  8
S-CALLOUT
100
AcDbText
 10
377.0
 20
124.1
 30
0.0
 40
1.4
  1
E12
  7
OpenSans
 72
1
 11
377.0
 21
124.1
 31
0.0
100
AcDbText
 73
2
  0
TEXT
  5
25F
330
17
100
AcDbEntity
  8
S-NOTE
100
AcDbText
 10
382.0
 20
123.5
 30
0.0
 40
1.9
  1
T16  @ 200   U-BAR ACROSS THE CORNER
  7
OpenSans
 11
382.0
 21
123.5
 31
0.0
100
AcDbText
  0
LWPOLYLINE
  5
260
330
17
100
AcDbEntity
  8
S-TITLE
100
AcDbPolyline
 90
4
 70
1
 10
370.0
 20
115.5
 10
638.0
 20
115.5
 10
638.0
 20
224.0
 10
370.0
 20
224.0
  0
TEXT
  5
261
330
17
100
AcDbEntity
  8
S-TITLE
100
AcDbText
 10
648.0
 20
555.0
 30
0.0
 40
2.5
  1
BAR SCHEDULE EXTRACT - THIS SHEET
  7
OpenSans
 11
648.0
 21
555.0
 31
0.0
100
AcDbText
  0
LWPOLYLINE
  5
262
330
17
100
AcDbEntity
  8
S-TABLE
100
AcDbPolyline
 90
4
 70
1
 10
648.0
 20
547.8
 10
757.0
 20
547.8
 10
757.0
 20
552.0
 10
648.0
 20
552.0
  0
TEXT
  5
263
330
17
100
AcDbEntity
  8
S-TABLE
100
AcDbText
 10
649.4
 20
548.9454545454545
 30
0.0
 40
1.909090909090909
  1
MARK
  7
OpenSans
 11
649.4
 21
548.9454545454545
 31
0.0
100
AcDbText
  0
TEXT
  5
264
330
17
100
AcDbEntity
  8
S-TABLE
100
AcDbText
 10
666.4
 20
548.9454545454545
 30
0.0
 40
1.909090909090909
  1
DIA
  7
OpenSans
 11
666.4
 21
548.9454545454545
 31
0.0
100
AcDbText
  0
TEXT
  5
265
330
17
100
AcDbEntity
  8
S-TABLE
100
AcDbText
 10
679.4
 20
548.9454545454545
 30
0.0
 40
1.909090909090909
  1
SHP
  7
OpenSans
 11
679.4
 21
548.9454545454545
 31
0.0
100
AcDbText
  0
TEXT
  5
266
330
17
100
AcDbEntity
  8
S-TABLE
100
AcDbText
 10
691.4
 20
548.9454545454545
 30
0.0
 40
1.909090909090909
  1
SPAC
  7
OpenSans
 11
691.4
 21
548.9454545454545
 31
0.0
100
AcDbText
  0
TEXT
  5
267
330
17
100
AcDbEntity
  8
S-TABLE
100
AcDbText
 10
706.4
 20
548.9454545454545
 30
0.0
 40
1.909090909090909
  1
No.
  7
OpenSans
 11
706.4
 21
548.9454545454545
 31
0.0
100
AcDbText
  0
TEXT
  5
268
330
17
100
AcDbEntity
  8
S-TABLE
100
AcDbText
 10
721.4
 20
548.9454545454545
 30
0.0
 40
1.909090909090909
  1
CUT
  7
OpenSans
 11
721.4
 21
548.9454545454545
 31
0.0
100
AcDbText
  0
TEXT
  5
269
330
17
100
AcDbEntity
  8
S-TABLE
100
AcDbText
 10
738.4
 20
548.9454545454545
 30
0.0
 40
1.909090909090909
  1
kg
  7
OpenSans
 11
738.4
 21
548.9454545454545
 31
0.0
100
AcDbText
  0
TEXT
  5
26A
330
17
100
AcDbEntity
  8
S-TABLE
100
AcDbText
 10
649.4
 20
544.7454545454544
 30
0.0
 40
1.909090909090909
  1
E01
  7
OpenSans
 11
649.4
 21
544.7454545454544
 31
0.0
100
AcDbText
  0
TEXT
  5
26B
330
17
100
AcDbEntity
  8
S-TABLE
100
AcDbText
 10
666.4
 20
544.7454545454544
 30
0.0
 40
1.909090909090909
  1
T16
  7
OpenSans
 11
666.4
 21
544.7454545454544
 31
0.0
100
AcDbText
  0
TEXT
  5
26C
330
17
100
AcDbEntity
  8
S-TABLE
100
AcDbText
 10
679.4
 20
544.7454545454544
 30
0.0
 40
1.909090909090909
  1
21
  7
OpenSans
 11
679.4
 21
544.7454545454544
 31
0.0
100
AcDbText
  0
TEXT
  5
26D
330
17
100
AcDbEntity
  8
S-TABLE
100
AcDbText
 10
691.4
 20
544.7454545454544
 30
0.0
 40
1.909090909090909
  1
200
  7
OpenSans
 11
691.4
 21
544.7454545454544
 31
0.0
100
AcDbText
  0
TEXT
  5
26E
330
17
100
AcDbEntity
  8
S-TABLE
100
AcDbText
 10
706.4
 20
544.7454545454544
 30
0.0
 40
1.909090909090909
  1
8
  7
OpenSans
 11
706.4
 21
544.7454545454544
 31
0.0
100
AcDbText
  0
TEXT
  5
26F
330
17
100
AcDbEntity
  8
S-TABLE
100
AcDbText
 10
721.4
 20
544.7454545454544
 30
0.0
 40
1.909090909090909
  1
5275
  7
OpenSans
 11
721.4
 21
544.7454545454544
 31
0.0
100
AcDbText
  0
TEXT
  5
270
330
17
100
AcDbEntity
  8
S-TABLE
100
AcDbText
 10
738.4
 20
544.7454545454544
 30
0.0
 40
1.909090909090909
  1
67
  7
OpenSans
 11
738.4
 21
544.7454545454544
 31
0.0
100
AcDbText
  0
LINE
  5
271
330
17
100
AcDbEntity
  8
S-TABLE
100
AcDbLine
 10
648.0
 20
543.5999999999999
 30
0.0
 11
757.0
 21
543.5999999999999
 31
0.0
  0
TEXT
  5
272
330
17
100
AcDbEntity
  8
S-TABLE
100
AcDbText
 10
649.4
 20
540.5454545454544
 30
0.0
 40
1.909090909090909
  1
E02
  7
OpenSans
 11
649.4
 21
540.5454545454544
 31
0.0
100
AcDbText
  0
TEXT
  5
273
330
17
100
AcDbEntity
  8
S-TABLE
100
AcDbText
 10
666.4
 20
540.5454545454544
 30
0.0
 40
1.909090909090909
  1
T10
  7
OpenSans
 11
666.4
 21
540.5454545454544
 31
0.0
100
AcDbText
  0
TEXT
  5
274
330
17
100
AcDbEntity
  8
S-TABLE
100
AcDbText
 10
679.4
 20
540.5454545454544
 30
0.0
 40
1.909090909090909
  1
00
  7
OpenSans
 11
679.4
 21
540.5454545454544
 31
0.0
100
AcDbText
  0
TEXT
  5
275
330
17
100
AcDbEntity
  8
S-TABLE
100
AcDbText
 10
691.4
 20
540.5454545454544
 30
0.0
 40
1.909090909090909
  1
200
  7
OpenSans
 11
691.4
 21
540.5454545454544
 31
0.0
100
AcDbText
  0
TEXT
  5
276
330
17
100
AcDbEntity
  8
S-TABLE
100
AcDbText
 10
706.4
 20
540.5454545454544
 30
0.0
 40
1.909090909090909
  1
19
  7
OpenSans
 11
706.4
 21
540.5454545454544
 31
0.0
100
AcDbText
  0
TEXT
  5
277
330
17
100
AcDbEntity
  8
S-TABLE
100
AcDbText
 10
721.4
 20
540.5454545454544
 30
0.0
 40
1.909090909090909
  1
1440
  7
OpenSans
 11
721.4
 21
540.5454545454544
 31
0.0
100
AcDbText
  0
TEXT
  5
278
330
17
100
AcDbEntity
  8
S-TABLE
100
AcDbText
 10
738.4
 20
540.5454545454544
 30
0.0
 40
1.909090909090909
  1
17
  7
OpenSans
 11
738.4
 21
540.5454545454544
 31
0.0
100
AcDbText
  0
LINE
  5
279
330
17
100
AcDbEntity
  8
S-TABLE
100
AcDbLine
 10
648.0
 20
539.3999999999999
 30
0.0
 11
757.0
 21
539.3999999999999
 31
0.0
  0
TEXT
  5
27A
330
17
100
AcDbEntity
  8
S-TABLE
100
AcDbText
 10
649.4
 20
536.3454545454543
 30
0.0
 40
1.909090909090909
  1
E03
  7
OpenSans
 11
649.4
 21
536.3454545454543
 31
0.0
100
AcDbText
  0
TEXT
  5
27B
330
17
100
AcDbEntity
  8
S-TABLE
100
AcDbText
 10
666.4
 20
536.3454545454543
 30
0.0
 40
1.909090909090909
  1
T16
  7
OpenSans
 11
666.4
 21
536.3454545454543
 31
0.0
100
AcDbText
  0
TEXT
  5
27C
330
17
100
AcDbEntity
  8
S-TABLE
100
AcDbText
 10
679.4
 20
536.3454545454543
 30
0.0
 40
1.909090909090909
  1
00
  7
OpenSans
 11
679.4
 21
536.3454545454543
 31
0.0
100
AcDbText
  0
TEXT
  5
27D
330
17
100
AcDbEntity
  8
S-TABLE
100
AcDbText
 10
691.4
 20
536.3454545454543
 30
0.0
 40
1.909090909090909
  1
200
  7
OpenSans
 11
691.4
 21
536.3454545454543
 31
0.0
100
AcDbText
  0
TEXT
  5
27E
330
17
100
AcDbEntity
  8
S-TABLE
100
AcDbText
 10
706.4
 20
536.3454545454543
 30
0.0
 40
1.909090909090909
  1
16
  7
OpenSans
 11
706.4
 21
536.3454545454543
 31
0.0
100
AcDbText
  0
TEXT
  5
27F
330
17
100
AcDbEntity
  8
S-TABLE
100
AcDbText
 10
721.4
 20
536.3454545454543
 30
0.0
 40
1.909090909090909
  1
1840
  7
OpenSans
 11
721.4
 21
536.3454545454543
 31
0.0
100
AcDbText
  0
TEXT
  5
280
330
17
100
AcDbEntity
  8
S-TABLE
100
AcDbText
 10
738.4
 20
536.3454545454543
 30
0.0
 40
1.909090909090909
  1
46
  7
OpenSans
 11
738.4
 21
536.3454545454543
 31
0.0
100
AcDbText
  0
LINE
  5
281
330
17
100
AcDbEntity
  8
S-TABLE
100
AcDbLine
 10
648.0
 20
535.1999999999998
 30
0.0
 11
757.0
 21
535.1999999999998
 31
0.0
  0
TEXT
  5
282
330
17
100
AcDbEntity
  8
S-TABLE
100
AcDbText
 10
649.4
 20
532.1454545454543
 30
0.0
 40
1.909090909090909
  1
E04A
  7
OpenSans
 11
649.4
 21
532.1454545454543
 31
0.0
100
AcDbText
  0
TEXT
  5
283
330
17
100
AcDbEntity
  8
S-TABLE
100
AcDbText
 10
666.4
 20
532.1454545454543
 30
0.0
 40
1.909090909090909
  1
T12
  7
OpenSans
 11
666.4
 21
532.1454545454543
 31
0.0
100
AcDbText
  0
TEXT
  5
284
330
17
100
AcDbEntity
  8
S-TABLE
100
AcDbText
 10
679.4
 20
532.1454545454543
 30
0.0
 40
1.909090909090909
  1
00
  7
OpenSans
 11
679.4
 21
532.1454545454543
 31
0.0
100
AcDbText
  0
TEXT
  5
285
330
17
100
AcDbEntity
  8
S-TABLE
100
AcDbText
 10
691.4
 20
532.1454545454543
 30
0.0
 40
1.909090909090909
  1
200
  7
OpenSans
 11
691.4
 21
532.1454545454543
 31
0.0
100
AcDbText
  0
TEXT
  5
286
330
17
100
AcDbEntity
  8
S-TABLE
100
AcDbText
 10
706.4
 20
532.1454545454543
 30
0.0
 40
1.909090909090909
  1
136
  7
OpenSans
 11
706.4
 21
532.1454545454543
 31
0.0
100
AcDbText
  0
TEXT
  5
287
330
17
100
AcDbEntity
  8
S-TABLE
100
AcDbText
 10
721.4
 20
532.1454545454543
 30
0.0
 40
1.909090909090909
  1
3500
  7
OpenSans
 11
721.4
 21
532.1454545454543
 31
0.0
100
AcDbText
  0
TEXT
  5
288
330
17
100
AcDbEntity
  8
S-TABLE
100
AcDbText
 10
738.4
 20
532.1454545454543
 30
0.0
 40
1.909090909090909
  1
423
  7
OpenSans
 11
738.4
 21
532.1454545454543
 31
0.0
100
AcDbText
  0
LINE
  5
289
330
17
100
AcDbEntity
  8
S-TABLE
100
AcDbLine
 10
648.0
 20
530.9999999999998
 30
0.0
 11
757.0
 21
530.9999999999998
 31
0.0
  0
TEXT
  5
28A
330
17
100
AcDbEntity
  8
S-TABLE
100
AcDbText
 10
649.4
 20
527.9454545454543
 30
0.0
 40
1.909090909090909
  1
E04B
  7
OpenSans
 11
649.4
 21
527.9454545454543
 31
0.0
100
AcDbText
  0
TEXT
  5
28B
330
17
100
AcDbEntity
  8
S-TABLE
100
AcDbText
 10
666.4
 20
527.9454545454543
 30
0.0
 40
1.909090909090909
  1
T12
  7
OpenSans
 11
666.4
 21
527.9454545454543
 31
0.0
100
AcDbText
  0
TEXT
  5
28C
330
17
100
AcDbEntity
  8
S-TABLE
100
AcDbText
 10
679.4
 20
527.9454545454543
 30
0.0
 40
1.909090909090909
  1
00
  7
OpenSans
 11
679.4
 21
527.9454545454543
 31
0.0
100
AcDbText
  0
TEXT
  5
28D
330
17
100
AcDbEntity
  8
S-TABLE
100
AcDbText
 10
691.4
 20
527.9454545454543
 30
0.0
 40
1.909090909090909
  1
200
  7
OpenSans
 11
691.4
 21
527.9454545454543
 31
0.0
100
AcDbText
  0
TEXT
  5
28E
330
17
100
AcDbEntity
  8
S-TABLE
100
AcDbText
 10
706.4
 20
527.9454545454543
 30
0.0
 40
1.909090909090909
  1
60
  7
OpenSans
 11
706.4
 21
527.9454545454543
 31
0.0
100
AcDbText
  0
TEXT
  5
28F
330
17
100
AcDbEntity
  8
S-TABLE
100
AcDbText
 10
721.4
 20
527.9454545454543
 30
0.0
 40
1.909090909090909
  1
6700
  7
OpenSans
 11
721.4
 21
527.9454545454543
 31
0.0
100
AcDbText
  0
TEXT
  5
290
330
17
100
AcDbEntity
  8
S-TABLE
100
AcDbText
 10
738.4
 20
527.9454545454543
 30
0.0
 40
1.909090909090909
  1
357
  7
OpenSans
 11
738.4
 21
527.9454545454543
 31
0.0
100
AcDbText
  0
LINE
  5
291
330
17
100
AcDbEntity
  8
S-TABLE
100
AcDbLine
 10
648.0
 20
526.7999999999997
 30
0.0
 11
757.0
 21
526.7999999999997
 31
0.0
  0
TEXT
  5
292
330
17
100
AcDbEntity
  8
S-TABLE
100
AcDbText
 10
649.4
 20
523.7454545454542
 30
0.0
 40
1.909090909090909
  1
E05A
  7
OpenSans
 11
649.4
 21
523.7454545454542
 31
0.0
100
AcDbText
  0
TEXT
  5
293
330
17
100
AcDbEntity
  8
S-TABLE
100
AcDbText
 10
666.4
 20
523.7454545454542
 30
0.0
 40
1.909090909090909
  1
T12
  7
OpenSans
 11
666.4
 21
523.7454545454542
 31
0.0
100
AcDbText
  0
TEXT
  5
294
330
17
100
AcDbEntity
  8
S-TABLE
100
AcDbText
 10
679.4
 20
523.7454545454542
 30
0.0
 40
1.909090909090909
  1
00
  7
OpenSans
 11
679.4
 21
523.7454545454542
 31
0.0
100
AcDbText
  0
TEXT
  5
295
330
17
100
AcDbEntity
  8
S-TABLE
100
AcDbText
 10
691.4
 20
523.7454545454542
 30
0.0
 40
1.909090909090909
  1
200
  7
OpenSans
 11
691.4
 21
523.7454545454542
 31
0.0
100
AcDbText
  0
TEXT
  5
296
330
17
100
AcDbEntity
  8
S-TABLE
100
AcDbText
 10
706.4
 20
523.7454545454542
 30
0.0
 40
1.909090909090909
  1
68
  7
OpenSans
 11
706.4
 21
523.7454545454542
 31
0.0
100
AcDbText
  0
TEXT
  5
297
330
17
100
AcDbEntity
  8
S-TABLE
100
AcDbText
 10
721.4
 20
523.7454545454542
 30
0.0
 40
1.909090909090909
  1
1900
  7
OpenSans
 11
721.4
 21
523.7454545454542
 31
0.0
100
AcDbText
  0
TEXT
  5
298
330
17
100
AcDbEntity
  8
S-TABLE
100
AcDbText
 10
738.4
 20
523.7454545454542
 30
0.0
 40
1.909090909090909
  1
115
  7
OpenSans
 11
738.4
 21
523.7454545454542
 31
0.0
100
AcDbText
  0
LINE
  5
299
330
17
100
AcDbEntity
  8
S-TABLE
100
AcDbLine
 10
648.0
 20
522.5999999999997
 30
0.0
 11
757.0
 21
522.5999999999997
 31
0.0
  0
TEXT
  5
29A
330
17
100
AcDbEntity
  8
S-TABLE
100
AcDbText
 10
649.4
 20
519.5454545454542
 30
0.0
 40
1.909090909090909
  1
E05B
  7
OpenSans
 11
649.4
 21
519.5454545454542
 31
0.0
100
AcDbText
  0
TEXT
  5
29B
330
17
100
AcDbEntity
  8
S-TABLE
100
AcDbText
 10
666.4
 20
519.5454545454542
 30
0.0
 40
1.909090909090909
  1
T12
  7
OpenSans
 11
666.4
 21
519.5454545454542
 31
0.0
100
AcDbText
  0
TEXT
  5
29C
330
17
100
AcDbEntity
  8
S-TABLE
100
AcDbText
 10
679.4
 20
519.5454545454542
 30
0.0
 40
1.909090909090909
  1
00
  7
OpenSans
 11
679.4
 21
519.5454545454542
 31
0.0
100
AcDbText
  0
TEXT
  5
29D
330
17
100
AcDbEntity
  8
S-TABLE
100
AcDbText
 10
691.4
 20
519.5454545454542
 30
0.0
 40
1.909090909090909
  1
200
  7
OpenSans
 11
691.4
 21
519.5454545454542
 31
0.0
100
AcDbText
  0
TEXT
  5
29E
330
17
100
AcDbEntity
  8
S-TABLE
100
AcDbText
 10
706.4
 20
519.5454545454542
 30
0.0
 40
1.909090909090909
  1
20
  7
OpenSans
 11
706.4
 21
519.5454545454542
 31
0.0
100
AcDbText
  0
TEXT
  5
29F
330
17
100
AcDbEntity
  8
S-TABLE
100
AcDbText
 10
721.4
 20
519.5454545454542
 30
0.0
 40
1.909090909090909
  1
6700
  7
OpenSans
 11
721.4
 21
519.5454545454542
 31
0.0
100
AcDbText
  0
TEXT
  5
2A0
330
17
100
AcDbEntity
  8
S-TABLE
100
AcDbText
 10
738.4
 20
519.5454545454542
 30
0.0
 40
1.909090909090909
  1
119
  7
OpenSans
 11
738.4
 21
519.5454545454542
 31
0.0
100
AcDbText
  0
LINE
  5
2A1
330
17
100
AcDbEntity
  8
S-TABLE
100
AcDbLine
 10
648.0
 20
518.3999999999996
 30
0.0
 11
757.0
 21
518.3999999999996
 31
0.0
  0
TEXT
  5
2A2
330
17
100
AcDbEntity
  8
S-TABLE
100
AcDbText
 10
649.4
 20
515.3454545454541
 30
0.0
 40
1.909090909090909
  1
E06
  7
OpenSans
 11
649.4
 21
515.3454545454541
 31
0.0
100
AcDbText
  0
TEXT
  5
2A3
330
17
100
AcDbEntity
  8
S-TABLE
100
AcDbText
 10
666.4
 20
515.3454545454541
 30
0.0
 40
1.909090909090909
  1
T12
  7
OpenSans
 11
666.4
 21
515.3454545454541
 31
0.0
100
AcDbText
  0
TEXT
  5
2A4
330
17
100
AcDbEntity
  8
S-TABLE
100
AcDbText
 10
679.4
 20
515.3454545454541
 30
0.0
 40
1.909090909090909
  1
00
  7
OpenSans
 11
679.4
 21
515.3454545454541
 31
0.0
100
AcDbText
  0
TEXT
  5
2A5
330
17
100
AcDbEntity
  8
S-TABLE
100
AcDbText
 10
691.4
 20
515.3454545454541
 30
0.0
 40
1.909090909090909
  1
200
  7
OpenSans
 11
691.4
 21
515.3454545454541
 31
0.0
100
AcDbText
  0
TEXT
  5
2A6
330
17
100
AcDbEntity
  8
S-TABLE
100
AcDbText
 10
706.4
 20
515.3454545454541
 30
0.0
 40
1.909090909090909
  1
32
  7
OpenSans
 11
706.4
 21
515.3454545454541
 31
0.0
100
AcDbText
  0
TEXT
  5
2A7
330
17
100
AcDbEntity
  8
S-TABLE
100
AcDbText
 10
721.4
 20
515.3454545454541
 30
0.0
 40
1.909090909090909
  1
1900
  7
OpenSans
 11
721.4
 21
515.3454545454541
 31
0.0
100
AcDbText
  0
TEXT
  5
2A8
330
17
100
AcDbEntity
  8
S-TABLE
100
AcDbText
 10
738.4
 20
515.3454545454541
 30
0.0
 40
1.909090909090909
  1
54
  7
OpenSans
 11
738.4
 21
515.3454545454541
 31
0.0
100
AcDbText
  0
LINE
  5
2A9
330
17
100
AcDbEntity
  8
S-TABLE
100
AcDbLine
 10
648.0
 20
514.1999999999996
 30
0.0
 11
757.0
 21
514.1999999999996
 31
0.0
  0
TEXT
  5
2AA
330
17
100
AcDbEntity
  8
S-TABLE
100
AcDbText
 10
649.4
 20
511.14545454545413
 30
0.0
 40
1.909090909090909
  1
E07
  7
OpenSans
 11
649.4
 21
511.14545454545413
 31
0.0
100
AcDbText
  0
TEXT
  5
2AB
330
17
100
AcDbEntity
  8
S-TABLE
100
AcDbText
 10
666.4
 20
511.14545454545413
 30
0.0
 40
1.909090909090909
  1
T12
  7
OpenSans
 11
666.4
 21
511.14545454545413
 31
0.0
100
AcDbText
  0
TEXT
  5
2AC
330
17
100
AcDbEntity
  8
S-TABLE
100
AcDbText
 10
679.4
 20
511.14545454545413
 30
0.0
 40
1.909090909090909
  1
00
  7
OpenSans
 11
679.4
 21
511.14545454545413
 31
0.0
100
AcDbText
  0
TEXT
  5
2AD
330
17
100
AcDbEntity
  8
S-TABLE
100
AcDbText
 10
691.4
 20
511.14545454545413
 30
0.0
 40
1.909090909090909
  1
200
  7
OpenSans
 11
691.4
 21
511.14545454545413
 31
0.0
100
AcDbText
  0
TEXT
  5
2AE
330
17
100
AcDbEntity
  8
S-TABLE
100
AcDbText
 10
706.4
 20
511.14545454545413
 30
0.0
 40
1.909090909090909
  1
32
  7
OpenSans
 11
706.4
 21
511.14545454545413
 31
0.0
100
AcDbText
  0
TEXT
  5
2AF
330
17
100
AcDbEntity
  8
S-TABLE
100
AcDbText
 10
721.4
 20
511.14545454545413
 30
0.0
 40
1.909090909090909
  1
1900
  7
OpenSans
 11
721.4
 21
511.14545454545413
 31
0.0
100
AcDbText
  0
TEXT
  5
2B0
330
17
100
AcDbEntity
  8
S-TABLE
100
AcDbText
 10
738.4
 20
511.14545454545413
 30
0.0
 40
1.909090909090909
  1
54
  7
OpenSans
 11
738.4
 21
511.14545454545413
 31
0.0
100
AcDbText
  0
LINE
  5
2B1
330
17
100
AcDbEntity
  8
S-TABLE
100
AcDbLine
 10
648.0
 20
509.9999999999996
 30
0.0
 11
757.0
 21
509.9999999999996
 31
0.0
  0
LINE
  5
2B2
330
17
100
AcDbEntity
  8
S-TABLE
100
AcDbLine
 10
648.0
 20
552.0
 30
0.0
 11
757.0
 21
552.0
 31
0.0
  0
LINE
  5
2B3
330
17
100
AcDbEntity
  8
S-TABLE
100
AcDbLine
 10
648.0
 20
552.0
 30
0.0
 11
648.0
 21
509.9999999999996
 31
0.0
  0
LINE
  5
2B4
330
17
100
AcDbEntity
  8
S-TABLE
100
AcDbLine
 10
665.0
 20
552.0
 30
0.0
 11
665.0
 21
509.9999999999996
 31
0.0
  0
LINE
  5
2B5
330
17
100
AcDbEntity
  8
S-TABLE
100
AcDbLine
 10
678.0
 20
552.0
 30
0.0
 11
678.0
 21
509.9999999999996
 31
0.0
  0
LINE
  5
2B6
330
17
100
AcDbEntity
  8
S-TABLE
100
AcDbLine
 10
690.0
 20
552.0
 30
0.0
 11
690.0
 21
509.9999999999996
 31
0.0
  0
LINE
  5
2B7
330
17
100
AcDbEntity
  8
S-TABLE
100
AcDbLine
 10
705.0
 20
552.0
 30
0.0
 11
705.0
 21
509.9999999999996
 31
0.0
  0
LINE
  5
2B8
330
17
100
AcDbEntity
  8
S-TABLE
100
AcDbLine
 10
720.0
 20
552.0
 30
0.0
 11
720.0
 21
509.9999999999996
 31
0.0
  0
LINE
  5
2B9
330
17
100
AcDbEntity
  8
S-TABLE
100
AcDbLine
 10
737.0
 20
552.0
 30
0.0
 11
737.0
 21
509.9999999999996
 31
0.0
  0
LINE
  5
2BA
330
17
100
AcDbEntity
  8
S-TABLE
100
AcDbLine
 10
757.0
 20
552.0
 30
0.0
 11
757.0
 21
509.9999999999996
 31
0.0
  0
TEXT
  5
2BB
330
17
100
AcDbEntity
  8
S-TABLE
100
AcDbText
 10
648.0
 20
505.5999999999996
 30
0.0
 40
1.4
  1
SHEET SUB-TOTAL  1,251 kg     FULL SCHEDULE: R-004 and Structural CAD/Schedules/BBS_MASTER.md
  7
OpenSans
 11
648.0
 21
505.5999999999996
 31
0.0
100
AcDbText
  0
LWPOLYLINE
  5
2BC
330
17
100
AcDbEntity
  8
S-TITLE
100
AcDbPolyline
 90
4
 70
1
 10
651.0
 20
10.0
 10
831.0
 20
10.0
 10
831.0
 20
110.0
 10
651.0
 20
110.0
  0
LINE
  5
2BD
330
17
100
AcDbEntity
  8
S-TITLE
100
AcDbLine
 10
651.0
 20
30.0
 30
0.0
 11
831.0
 21
30.0
 31
0.0
  0
LINE
  5
2BE
330
17
100
AcDbEntity
  8
S-TITLE
100
AcDbLine
 10
651.0
 20
42.0
 30
0.0
 11
831.0
 21
42.0
 31
0.0
  0
LINE
  5
2BF
330
17
100
AcDbEntity
  8
S-TITLE
100
AcDbLine
 10
651.0
 20
54.0
 30
0.0
 11
831.0
 21
54.0
 31
0.0
  0
LINE
  5
2C0
330
17
100
AcDbEntity
  8
S-TITLE
100
AcDbLine
 10
651.0
 20
66.0
 30
0.0
 11
831.0
 21
66.0
 31
0.0
  0
LINE
  5
2C1
330
17
100
AcDbEntity
  8
S-TITLE
100
AcDbLine
 10
651.0
 20
88.0
 30
0.0
 11
831.0
 21
88.0
 31
0.0
  0
LINE
  5
2C2
330
17
100
AcDbEntity
  8
S-TITLE
100
AcDbLine
 10
763.0
 20
10.0
 30
0.0
 11
763.0
 21
30.0
 31
0.0
  0
LINE
  5
2C3
330
17
100
AcDbEntity
  8
S-TITLE
100
AcDbLine
 10
797.0
 20
10.0
 30
0.0
 11
797.0
 21
30.0
 31
0.0
  0
TEXT
  5
2C4
330
17
100
AcDbEntity
  8
S-TITLE
100
AcDbText
 10
653.0
 20
24.6
 30
0.0
 40
1.4
  1
DRAWING No.
  7
OpenSans
 11
653.0
 21
24.6
 31
0.0
100
AcDbText
  0
TEXT
  5
2C5
330
17
100
AcDbEntity
  8
S-TITLE
100
AcDbText
 10
673.0
 20
14.2
 30
0.0
 40
3.5
  1
R-603
  7
OpenSans
 11
673.0
 21
14.2
 31
0.0
100
AcDbText
  0
TEXT
  5
2C6
330
17
100
AcDbEntity
  8
S-TITLE
100
AcDbText
 10
765.0
 20
24.6
 30
0.0
 40
1.4
  1
REV
  7
OpenSans
 11
765.0
 21
24.6
 31
0.0
100
AcDbText
  0
TEXT
  5
2C7
330
17
100
AcDbEntity
  8
S-TITLE
100
AcDbText
 10
769.0
 20
14.2
 30
0.0
 40
3.5
  1
SC1
  7
OpenSans
 11
769.0
 21
14.2
 31
0.0
100
AcDbText
  0
TEXT
  5
2C8
330
17
100
AcDbEntity
  8
S-TITLE
100
AcDbText
 10
799.0
 20
24.6
 30
0.0
 40
1.4
  1
SHEET
  7
OpenSans
 11
799.0
 21
24.6
 31
0.0
100
AcDbText
  0
TEXT
  5
2C9
330
17
100
AcDbEntity
  8
S-TITLE
100
AcDbText
 10
799.0
 20
15.0
 30
0.0
 40
1.6
  1
21 OF 30
  7
OpenSans
 11
799.0
 21
15.0
 31
0.0
100
AcDbText
  0
LINE
  5
2CA
330
17
100
AcDbEntity
  8
S-TITLE
100
AcDbLine
 10
747.0
 20
30.0
 30
0.0
 11
747.0
 21
42.0
 31
0.0
  0
TEXT
  5
2CB
330
17
100
AcDbEntity
  8
S-TITLE
100
AcDbText
 10
653.0
 20
34.4
 30
0.0
 40
1.6
  1
SCALE   1:40, 1:25
  7
OpenSans
 11
653.0
 21
34.4
 31
0.0
100
AcDbText
  0
TEXT
  5
2CC
330
17
100
AcDbEntity
  8
S-TITLE
100
AcDbText
 10
749.0
 20
34.4
 30
0.0
 40
1.6
  1
DATE   04.09.2026
  7
OpenSans
 11
749.0
 21
34.4
 31
0.0
100
AcDbText
  0
TEXT
  5
2CD
330
17
100
AcDbEntity
  8
S-TITLE
100
AcDbText
 10
653.0
 20
46.4
 30
0.0
 40
1.4
  1
DESIGNED  [PLACEHOLDER]
  7
OpenSans
 11
653.0
 21
46.4
 31
0.0
100
AcDbText
  0
TEXT
  5
2CE
330
17
100
AcDbEntity
  8
S-TITLE
100
AcDbText
 10
713.0
 20
46.4
 30
0.0
 40
1.4
  1
CHECKED  [PLACEHOLDER]
  7
OpenSans
 11
713.0
 21
46.4
 31
0.0
100
AcDbText
  0
TEXT
  5
2CF
330
17
100
AcDbEntity
  8
S-TITLE
100
AcDbText
 10
773.0
 20
46.4
 30
0.0
 40
1.4
  1
APPROVED  [PLACEHOLDER]
  7
OpenSans
 11
773.0
 21
46.4
 31
0.0
100
AcDbText
  0
TEXT
  5
2D0
330
17
100
AcDbEntity
  8
S-TITLE
100
AcDbText
 10
653.0
 20
58.4
 30
0.0
 40
1.4
  1
STATUS
  7
OpenSans
 11
653.0
 21
58.4
 31
0.0
100
AcDbText
  0
TEXT
  5
2D1
330
17
100
AcDbEntity
  8
S-BLAST
100
AcDbText
 10
673.0
 20
58.0
 30
0.0
 40
1.6
  1
FOR REVIEW - NOT FOR CONSTRUCTION
  7
OpenSans
 11
673.0
 21
58.0
 31
0.0
100
AcDbText
  0
TEXT
  5
2D2
330
17
100
AcDbEntity
  8
S-TITLE
100
AcDbText
 10
653.0
 20
83.4
 30
0.0
 40
1.4
  1
DRAWING TITLE
  7
OpenSans
 11
653.0
 21
83.4
 31
0.0
100
AcDbText
  0
TEXT
  5
2D3
330
17
100
AcDbEntity
  8
S-TITLE
100
AcDbText
 10
653.0
 20
75.4
 30
0.0
 40
2.4
  1
ENTRY STAIRWELL REINFORCEMENT
  7
OpenSans
 11
653.0
 21
75.4
 31
0.0
100
AcDbText
  0
TEXT
  5
2D4
330
17
100
AcDbEntity
  8
S-TITLE
100
AcDbText
 10
653.0
 20
68.8
 30
0.0
 40
1.4
  1
12R @ 166.6667 / 300 · WAIST 250 · OUTSIDE THE PROTECTIVE BOUNDARY
  7
OpenSans
 11
653.0
 21
68.8
 31
0.0
100
AcDbText
  0
TEXT
  5
2D5
330
17
100
AcDbEntity
  8
S-TITLE
100
AcDbText
 10
653.0
 20
105.2
 30
0.0
 40
1.4
  1
PROJECT
  7
OpenSans
 11
653.0
 21
105.2
 31
0.0
100
AcDbText
  0
TEXT
  5
2D6
330
17
100
AcDbEntity
  8
S-TITLE
100
AcDbText
 10
653.0
 20
99.6
 30
0.0
 40
1.6
  1
UNDERGROUND CBRN-HARDENED BLAST-RESISTANT
  7
OpenSans
 11
653.0
 21
99.6
 31
0.0
100
AcDbText
  0
TEXT
  5
2D7
330
17
100
AcDbEntity
  8
S-TITLE
100
AcDbText
 10
653.0
 20
95.0
 30
0.0
 40
1.6
  1
PROTECTIVE STRUCTURE  -  PUNE, MAHARASHTRA
  7
OpenSans
 11
653.0
 21
95.0
 31
0.0
100
AcDbText
  0
TEXT
  5
2D8
330
17
100
AcDbEntity
  8
S-TITLE
100
AcDbText
 10
653.0
 20
90.0
 30
0.0
 40
1.4
  1
STRUCTURAL PHASE 2 REV A + M1   ·   SENTRY POST NOT IN THIS PACKAGE
  7
OpenSans
 11
653.0
 21
90.0
 31
0.0
100
AcDbText
  0
ENDSEC
  0
SECTION
  2
OBJECTS
  0
DICTIONARY
  5
A
330
0
100
AcDbDictionary
281
1
  3
ACAD_COLOR
350
B
  3
ACAD_GROUP
350
C
  3
ACAD_LAYOUT
350
D
  3
ACAD_MATERIAL
350
E
  3
ACAD_MLEADERSTYLE
350
F
  3
ACAD_MLINESTYLE
350
10
  3
ACAD_PLOTSETTINGS
350
11
  3
ACAD_PLOTSTYLENAME
350
12
  3
ACAD_SCALELIST
350
14
  3
ACAD_TABLESTYLE
350
15
  3
ACAD_VISUALSTYLE
350
16
  3
EZDXF_META
350
2D
  0
DICTIONARY
  5
B
330
A
100
AcDbDictionary
281
1
  0
DICTIONARY
  5
C
330
A
100
AcDbDictionary
281
1
  0
DICTIONARY
  5
D
330
A
100
AcDbDictionary
281
1
  3
Model
350
1A
  3
Layout1
350
1E
  0
DICTIONARY
  5
E
330
A
100
AcDbDictionary
281
1
  3
ByBlock
350
1F
  3
ByLayer
350
20
  3
Global
350
21
  0
DICTIONARY
  5
F
330
A
100
AcDbDictionary
281
1
  3
Standard
350
2C
  0
DICTIONARY
  5
10
330
A
100
AcDbDictionary
281
1
  3
Standard
350
22
  0
DICTIONARY
  5
11
330
A
100
AcDbDictionary
281
1
  0
ACDBDICTIONARYWDFLT
  5
12
330
A
100
AcDbDictionary
281
1
  3
Normal
350
13
100
AcDbDictionaryWithDefault
340
13
  0
ACDBPLACEHOLDER
  5
13
330
12
  0
DICTIONARY
  5
14
330
A
100
AcDbDictionary
281
1
  0
DICTIONARY
  5
15
330
A
100
AcDbDictionary
281
1
  0
DICTIONARY
  5
16
330
A
100
AcDbDictionary
281
1
  3
2dWireframe
350
5A
  3
Basic
350
5B
  3
Brighten
350
5C
  3
ColorChange
350
5D
  3
Conceptual
350
5E
  3
Dim
350
5F
  3
EdgeColorOff
350
60
  3
Facepattern
350
61
  3
Flat
350
62
  3
FlatWithEdges
350
63
  3
Gouraud
350
64
  3
GouraudWithEdges
350
65
  3
Hidden
350
66
  3
JitterOff
350
67
  3
Linepattern
350
68
  3
Modeling
350
69
  3
OverhangOff
350
6A
  3
Realistic
350
6B
  3
Shaded
350
6C
  3
Shaded with edges
350
6D
  3
Shades of Gray
350
6E
  3
Sketchy
350
6F
  3
Thicken
350
70
  3
Wireframe
350
71
  3
X-Ray
350
72
  0
LAYOUT
  5
1A
330
D
100
AcDbPlotSettings
  1

  4
A3
  6

 40
7.5
 41
20.0
 42
7.5
 43
20.0
 44
420.0
 45
297.0
 46
0.0
 47
0.0
 48
0.0
 49
0.0
140
0.0
141
0.0
142
1.0
143
1.0
 70
1024
 72
1
 73
0
 74
5
  7

 75
16
 76
0
 77
2
 78
300
147
1.0
148
0.0
149
0.0
100
AcDbLayout
  1
Model
 70
1
 71
0
 10
0.0
 20
0.0
 11
420.0
 21
297.0
 12
0.0
 22
0.0
 32
0.0
 14
1e+20
 24
1e+20
 34
1e+20
 15
-1e+20
 25
-1e+20
 35
-1e+20
146
0.0
 13
0.0
 23
0.0
 33
0.0
 16
1.0
 26
0.0
 36
0.0
 17
0.0
 27
1.0
 37
0.0
 76
1
330
17
  0
LAYOUT
  5
1E
330
D
100
AcDbPlotSettings
  1

  4
A3
  6

 40
7.5
 41
20.0
 42
7.5
 43
20.0
 44
420.0
 45
297.0
 46
0.0
 47
0.0
 48
0.0
 49
0.0
140
0.0
141
0.0
142
1.0
143
1.0
 70
0
 72
1
 73
0
 74
5
  7

 75
16
 76
0
 77
2
 78
300
147
1.0
148
0.0
149
0.0
100
AcDbLayout
  1
Layout1
 70
1
 71
1
 10
0.0
 20
0.0
 11
420.0
 21
297.0
 12
0.0
 22
0.0
 32
0.0
 14
1e+20
 24
1e+20
 34
1e+20
 15
-1e+20
 25
-1e+20
 35
-1e+20
146
0.0
 13
0.0
 23
0.0
 33
0.0
 16
1.0
 26
0.0
 36
0.0
 17
0.0
 27
1.0
 37
0.0
 76
1
330
1B
  0
MATERIAL
  5
1F
102
{ACAD_REACTORS
330
E
102
}
330
E
100
AcDbMaterial
  1
ByBlock
  2

 70
0
 40
1.0
 71
1
 41
1.0
 91
-1023410177
 42
1.0
 72
1
  3

 73
1
 74
1
 75
1
 44
0.5
 73
0
 45
1.0
 46
1.0
 77
1
  4

 78
1
 79
1
170
1
 48
1.0
171
1
  6

172
1
173
1
174
1
140
1.0
141
1.0
175
1
  7

176
1
177
1
178
1
143
1.0
179
1
  8

270
1
271
1
272
1
145
1.0
146
1.0
273
1
  9

274
1
275
1
276
1
 42
1.0
 72
1
  3

 73
1
 74
1
 75
1
 94
63
  0
MATERIAL
  5
20
102
{ACAD_REACTORS
330
E
102
}
330
E
100
AcDbMaterial
  1
ByLayer
  2

 70
0
 40
1.0
 71
1
 41
1.0
 91
-1023410177
 42
1.0
 72
1
  3

 73
1
 74
1
 75
1
 44
0.5
 73
0
 45
1.0
 46
1.0
 77
1
  4

 78
1
 79
1
170
1
 48
1.0
171
1
  6

172
1
173
1
174
1
140
1.0
141
1.0
175
1
  7

176
1
177
1
178
1
143
1.0
179
1
  8

270
1
271
1
272
1
145
1.0
146
1.0
273
1
  9

274
1
275
1
276
1
 42
1.0
 72
1
  3

 73
1
 74
1
 75
1
 94
63
  0
MATERIAL
  5
21
102
{ACAD_REACTORS
330
E
102
}
330
E
100
AcDbMaterial
  1
Global
  2

 70
0
 40
1.0
 71
1
 41
1.0
 91
-1023410177
 42
1.0
 72
1
  3

 73
1
 74
1
 75
1
 44
0.5
 73
0
 45
1.0
 46
1.0
 77
1
  4

 78
1
 79
1
170
1
 48
1.0
171
1
  6

172
1
173
1
174
1
140
1.0
141
1.0
175
1
  7

176
1
177
1
178
1
143
1.0
179
1
  8

270
1
271
1
272
1
145
1.0
146
1.0
273
1
  9

274
1
275
1
276
1
 42
1.0
 72
1
  3

 73
1
 74
1
 75
1
 94
63
  0
MLINESTYLE
  5
22
102
{ACAD_REACTORS
330
10
102
}
330
10
100
AcDbMlineStyle
  2
Standard
 70
0
  3

 62
256
 51
90.0
 52
90.0
 71
2
 49
0.5
 62
256
  6
BYLAYER
 49
-0.5
 62
256
  6
BYLAYER
  0
MLEADERSTYLE
  5
2C
102
{ACAD_REACTORS
330
F
102
}
330
F
100
AcDbMLeaderStyle
179
2
170
2
171
1
172
0
 90
2
 40
0.0
 41
0.0
173
1
 91
-1056964608
 92
-2
290
1
 42
2.0
291
1
 43
8.0
  3
Standard
 44
4.0
300

342
29
174
1
175
1
176
0
178
1
 93
-1056964608
 45
4.0
292
0
297
0
 46
4.0
 94
-1056964608
 47
1.0
 49
1.0
140
1.0
294
1
141
0.0
177
0
142
1.0
295
0
296
0
143
3.75
271
0
272
9
273
9
  0
DICTIONARY
  5
2D
330
A
100
AcDbDictionary
280
1
281
1
  3
CREATED_BY_EZDXF
350
2E
  3
WRITTEN_BY_EZDXF
350
2DB
  0
DICTIONARYVAR
  5
2E
330
2D
100
DictionaryVariables
280
0
  1
1.4.4 @ 2026-09-09T17:03:46.881103+00:00
  0
VISUALSTYLE
  5
5A
102
{ACAD_REACTORS
330
16
102
}
330
16
100
AcDbVisualStyle
  2
2dWireframe
 70
4
 90
0
 40
0.6
 62
7
290
0
291
0
  0
VISUALSTYLE
  5
5B
102
{ACAD_REACTORS
330
16
102
}
330
16
100
AcDbVisualStyle
  2
Basic
 70
7
 90
1
 40
0.6
 62
7
290
0
291
1
  0
VISUALSTYLE
  5
5C
102
{ACAD_REACTORS
330
16
102
}
330
16
100
AcDbVisualStyle
  2
Brighten
 70
12
 90
2
 40
0.6
 62
7
290
0
291
1
  0
VISUALSTYLE
  5
5D
102
{ACAD_REACTORS
330
16
102
}
330
16
100
AcDbVisualStyle
  2
ColorChange
 70
16
 90
2
 40
0.6
 62
8
290
0
291
1
  0
VISUALSTYLE
  5
5E
102
{ACAD_REACTORS
330
16
102
}
330
16
100
AcDbVisualStyle
  2
Conceptual
 70
9
 90
3
 40
0.6
 62
7
290
0
291
0
  0
VISUALSTYLE
  5
5F
102
{ACAD_REACTORS
330
16
102
}
330
16
100
AcDbVisualStyle
  2
Dim
 70
11
 90
2
 40
0.6
 62
7
290
0
291
1
  0
VISUALSTYLE
  5
60
102
{ACAD_REACTORS
330
16
102
}
330
16
100
AcDbVisualStyle
  2
EdgeColorOff
 70
22
 90
2
 40
0.6
 62
7
290
0
291
1
  0
VISUALSTYLE
  5
61
102
{ACAD_REACTORS
330
16
102
}
330
16
100
AcDbVisualStyle
  2
Facepattern
 70
15
 90
2
 40
0.6
 62
7
290
0
291
1
  0
VISUALSTYLE
  5
62
102
{ACAD_REACTORS
330
16
102
}
330
16
100
AcDbVisualStyle
  2
Flat
 70
0
 90
2
 40
0.6
 62
7
290
0
291
1
  0
VISUALSTYLE
  5
63
102
{ACAD_REACTORS
330
16
102
}
330
16
100
AcDbVisualStyle
  2
FlatWithEdges
 70
1
 90
2
 40
0.6
 62
7
290
0
291
1
  0
VISUALSTYLE
  5
64
102
{ACAD_REACTORS
330
16
102
}
330
16
100
AcDbVisualStyle
  2
Gouraud
 70
2
 90
2
 40
0.6
 62
7
290
0
291
1
  0
VISUALSTYLE
  5
65
102
{ACAD_REACTORS
330
16
102
}
330
16
100
AcDbVisualStyle
  2
GouraudWithEdges
 70
3
 90
2
 40
0.6
 62
7
290
0
291
1
  0
VISUALSTYLE
  5
66
102
{ACAD_REACTORS
330
16
102
}
330
16
100
AcDbVisualStyle
  2
Hidden
 70
6
 90
1
 40
0.6
 62
7
290
0
291
0
  0
VISUALSTYLE
  5
67
102
{ACAD_REACTORS
330
16
102
}
330
16
100
AcDbVisualStyle
  2
JitterOff
 70
20
 90
2
 40
0.6
 62
7
290
0
291
1
  0
VISUALSTYLE
  5
68
102
{ACAD_REACTORS
330
16
102
}
330
16
100
AcDbVisualStyle
  2
Linepattern
 70
14
 90
2
 40
0.6
 62
7
290
0
291
1
  0
VISUALSTYLE
  5
69
102
{ACAD_REACTORS
330
16
102
}
330
16
100
AcDbVisualStyle
  2
Modeling
 70
10
 90
2
 40
0.6
 62
7
290
0
291
0
  0
VISUALSTYLE
  5
6A
102
{ACAD_REACTORS
330
16
102
}
330
16
100
AcDbVisualStyle
  2
OverhangOff
 70
21
 90
2
 40
0.6
 62
7
290
0
291
1
  0
VISUALSTYLE
  5
6B
102
{ACAD_REACTORS
330
16
102
}
330
16
100
AcDbVisualStyle
  2
Realistic
 70
8
 90
2
 40
0.6
 62
7
290
0
291
0
  0
VISUALSTYLE
  5
6C
102
{ACAD_REACTORS
330
16
102
}
330
16
100
AcDbVisualStyle
  2
Shaded
 70
27
 90
2
 40
0.6
 62
7
290
0
291
0
  0
VISUALSTYLE
  5
6D
102
{ACAD_REACTORS
330
16
102
}
330
16
100
AcDbVisualStyle
  2
Shaded with edges
 70
26
 90
2
 40
0.6
 62
7
290
0
291
0
  0
VISUALSTYLE
  5
6E
102
{ACAD_REACTORS
330
16
102
}
330
16
100
AcDbVisualStyle
  2
Shades of Gray
 70
23
 90
2
 40
0.6
 62
7
290
0
291
0
  0
VISUALSTYLE
  5
6F
102
{ACAD_REACTORS
330
16
102
}
330
16
100
AcDbVisualStyle
  2
Sketchy
 70
24
 90
1
 40
0.6
 62
7
290
0
291
0
  0
VISUALSTYLE
  5
70
102
{ACAD_REACTORS
330
16
102
}
330
16
100
AcDbVisualStyle
  2
Thicken
 70
13
 90
2
 40
0.6
 62
7
290
0
291
1
  0
VISUALSTYLE
  5
71
102
{ACAD_REACTORS
330
16
102
}
330
16
100
AcDbVisualStyle
  2
Wireframe
 70
5
 90
0
 40
0.6
 62
7
290
0
291
0
  0
VISUALSTYLE
  5
72
102
{ACAD_REACTORS
330
16
102
}
330
16
100
AcDbVisualStyle
  2
X-Ray
 70
25
 90
2
 40
0.5
 62
7
290
0
291
0
  0
DICTIONARYVAR
  5
2DB
330
2D
100
DictionaryVariables
280
0
  1
1.4.4 @ 2026-09-09T17:03:46.905945+00:00
  0
ENDSEC
  0
EOF
