  0
SECTION
  2
HEADER
  9
$ACADVER
  1
AC1024
  9
$ACADMAINTVER
 70
6
  9
$DWGCODEPAGE
  3
ANSI_1252
  9
$LASTSAVEDBY
  1
ezdxf
  9
$INSBASE
 10
0.0
 20
0.0
 30
0.0
  9
$EXTMIN
 10
1e+20
 20
1e+20
 30
1e+20
  9
$EXTMAX
 10
-1e+20
 20
-1e+20
 30
-1e+20
  9
$LIMMIN
 10
0.0
 20
0.0
  9
$LIMMAX
 10
420.0
 20
297.0
  9
$ORTHOMODE
 70
0
  9
$REGENMODE
 70
1
  9
$FILLMODE
 70
1
  9
$QTEXTMODE
 70
0
  9
$MIRRTEXT
 70
1
  9
$LTSCALE
 40
1.0
  9
$ATTMODE
 70
1
  9
$TEXTSIZE
 40
2.5
  9
$TRACEWID
 40
1.0
  9
$TEXTSTYLE
  7
OpenSans
  9
$CLAYER
  8
0
  9
$CELTYPE
  6
ByLayer
  9
$CECOLOR
 62
256
  9
$CELTSCALE
 40
1.0
  9
$DISPSILH
 70
0
  9
$DIMSCALE
 40
1.0
  9
$DIMASZ
 40
0.175
  9
$DIMEXO
 40
0.125
  9
$DIMDLI
 40
3.75
  9
$DIMRND
 40
0.0
  9
$DIMDLE
 40
0.0
  9
$DIMEXE
 40
0.375
  9
$DIMTP
 40
0.0
  9
$DIMTM
 40
0.0
  9
$DIMTXT
 40
0.25
  9
$DIMCEN
 40
2.5
  9
$DIMTSZ
 40
0.0
  9
$DIMTOL
 70
0
  9
$DIMLIM
 70
0
  9
$DIMTIH
 70
0
  9
$DIMTOH
 70
0
  9
$DIMSE1
 70
0
  9
$DIMSE2
 70
0
  9
$DIMTAD
 70
1
  9
$DIMZIN
 70
12
  9
$DIMBLK
  1
ARCHTICK
  9
$DIMASO
 70
1
  9
$DIMSHO
 70
1
  9
$DIMPOST
  1

  9
$DIMAPOST
  1

  9
$DIMALT
 70
0
  9
$DIMALTD
 70
3
  9
$DIMALTF
 40
0.03937007874
  9
$DIMLFAC
 40
100.0
  9
$DIMTOFL
 70
1
  9
$DIMTVP
 40
0.0
  9
$DIMTIX
 70
0
  9
$DIMSOXD
 70
0
  9
$DIMSAH
 70
0
  9
$DIMBLK1
  1

  9
$DIMBLK2
  1

  9
$DIMSTYLE
  2
EZDXF
  9
$DIMCLRD
 70
0
  9
$DIMCLRE
 70
0
  9
$DIMCLRT
 70
0
  9
$DIMTFAC
 40
0.5
  9
$DIMGAP
 40
0.1
  9
$DIMJUST
 70
0
  9
$DIMSD1
 70
0
  9
$DIMSD2
 70
0
  9
$DIMTOLJ
 70
0
  9
$DIMTZIN
 70
8
  9
$DIMALTZ
 70
0
  9
$DIMALTTZ
 70
0
  9
$DIMUPT
 70
1
  9
$DIMDEC
 70
2
  9
$DIMTDEC
 70
2
  9
$DIMALTU
 70
2
  9
$DIMALTTD
 70
3
  9
$DIMTXSTY
  7
OpenSansCondensed-Light
  9
$DIMAUNIT
 70
0
  9
$DIMADEC
 70
2
  9
$DIMALTRND
 40
0.0
  9
$DIMAZIN
 70
3
  9
$DIMDSEP
 70
46
  9
$DIMATFIT
 70
3
  9
$DIMFRAC
 70
0
  9
$DIMLDRBLK
  1

  9
$DIMLUNIT
 70
2
  9
$DIMLWD
 70
-2
  9
$DIMLWE
 70
-2
  9
$DIMTMOVE
 70
2
  9
$DIMFXL
 40
1.0
  9
$DIMFXLON
 70
0
  9
$DIMJOGANG
 40
0.785398163397
  9
$DIMTFILL
 70
0
  9
$DIMTFILLCLR
 70
0
  9
$DIMARCSYM
 70
0
  9
$DIMLTYPE
  6

  9
$DIMLTEX1
  6

  9
$DIMLTEX2
  6

  9
$DIMTXTDIRECTION
 70
0
  9
$LUNITS
 70
2
  9
$LUPREC
 70
4
  9
$SKETCHINC
 40
1.0
  9
$FILLETRAD
 40
10.0
  9
$AUNITS
 70
0
  9
$AUPREC
 70
2
  9
$MENU
  1
.
  9
$ELEVATION
 40
0.0
  9
$PELEVATION
 40
0.0
  9
$THICKNESS
 40
0.0
  9
$LIMCHECK
 70
0
  9
$CHAMFERA
 40
0.0
  9
$CHAMFERB
 40
0.0
  9
$CHAMFERC
 40
0.0
  9
$CHAMFERD
 40
0.0
  9
$SKPOLY
 70
0
  9
$TDCREATE
 40
2461293.677361111
  9
$TDUCREATE
 40
2458532.153996898
  9
$TDUPDATE
 40
2461293.677361111
  9
$TDUUPDATE
 40
2458532.1544311
  9
$TDINDWG
 40
0.0
  9
$TDUSRTIMER
 40
0.0
  9
$USRTIMER
 70
1
  9
$ANGBASE
 50
0.0
  9
$ANGDIR
 70
0
  9
$PDMODE
 70
0
  9
$PDSIZE
 40
0.0
  9
$PLINEWID
 40
0.0
  9
$SPLFRAME
 70
0
  9
$SPLINETYPE
 70
6
  9
$SPLINESEGS
 70
8
  9
$HANDSEED
  5
2BA
  9
$SURFTAB1
 70
6
  9
$SURFTAB2
 70
6
  9
$SURFTYPE
 70
6
  9
$SURFU
 70
6
  9
$SURFV
 70
6
  9
$UCSBASE
  2

  9
$UCSNAME
  2

  9
$UCSORG
 10
0.0
 20
0.0
 30
0.0
  9
$UCSXDIR
 10
1.0
 20
0.0
 30
0.0
  9
$UCSYDIR
 10
0.0
 20
1.0
 30
0.0
  9
$UCSORTHOREF
  2

  9
$UCSORTHOVIEW
 70
0
  9
$UCSORGTOP
 10
0.0
 20
0.0
 30
0.0
  9
$UCSORGBOTTOM
 10
0.0
 20
0.0
 30
0.0
  9
$UCSORGLEFT
 10
0.0
 20
0.0
 30
0.0
  9
$UCSORGRIGHT
 10
0.0
 20
0.0
 30
0.0
  9
$UCSORGFRONT
 10
0.0
 20
0.0
 30
0.0
  9
$UCSORGBACK
 10
0.0
 20
0.0
 30
0.0
  9
$PUCSBASE
  2

  9
$PUCSNAME
  2

  9
$PUCSORG
 10
0.0
 20
0.0
 30
0.0
  9
$PUCSXDIR
 10
1.0
 20
0.0
 30
0.0
  9
$PUCSYDIR
 10
0.0
 20
1.0
 30
0.0
  9
$PUCSORTHOREF
  2

  9
$PUCSORTHOVIEW
 70
0
  9
$PUCSORGTOP
 10
0.0
 20
0.0
 30
0.0
  9
$PUCSORGBOTTOM
 10
0.0
 20
0.0
 30
0.0
  9
$PUCSORGLEFT
 10
0.0
 20
0.0
 30
0.0
  9
$PUCSORGRIGHT
 10
0.0
 20
0.0
 30
0.0
  9
$PUCSORGFRONT
 10
0.0
 20
0.0
 30
0.0
  9
$PUCSORGBACK
 10
0.0
 20
0.0
 30
0.0
  9
$USERI1
 70
0
  9
$USERI2
 70
0
  9
$USERI3
 70
0
  9
$USERI4
 70
0
  9
$USERI5
 70
0
  9
$USERR1
 40
0.0
  9
$USERR2
 40
0.0
  9
$USERR3
 40
0.0
  9
$USERR4
 40
0.0
  9
$USERR5
 40
0.0
  9
$WORLDVIEW
 70
1
  9
$SHADEDGE
 70
3
  9
$SHADEDIF
 70
70
  9
$TILEMODE
 70
1
  9
$MAXACTVP
 70
64
  9
$PINSBASE
 10
0.0
 20
0.0
 30
0.0
  9
$PLIMCHECK
 70
0
  9
$PEXTMIN
 10
1e+20
 20
1e+20
 30
1e+20
  9
$PEXTMAX
 10
-1e+20
 20
-1e+20
 30
-1e+20
  9
$PLIMMIN
 10
0.0
 20
0.0
  9
$PLIMMAX
 10
420.0
 20
297.0
  9
$UNITMODE
 70
0
  9
$VISRETAIN
 70
1
  9
$PLINEGEN
 70
0
  9
$PSLTSCALE
 70
1
  9
$TREEDEPTH
 70
3020
  9
$CMLSTYLE
  2
Standard
  9
$CMLJUST
 70
0
  9
$CMLSCALE
 40
20.0
  9
$PROXYGRAPHICS
 70
1
  9
$MEASUREMENT
 70
1
  9
$CELWEIGHT
370
-1
  9
$ENDCAPS
280
0
  9
$JOINSTYLE
280
0
  9
$LWDISPLAY
290
0
  9
$INSUNITS
 70
4
  9
$HYPERLINKBASE
  1

  9
$STYLESHEET
  1

  9
$XEDIT
290
1
  9
$CEPSNTYPE
380
0
  9
$PSTYLEMODE
290
1
  9
$FINGERPRINTGUID
  2
{AFC56FF6-269A-41C8-9373-FABC181E3CA3}
  9
$VERSIONGUID
  2
{628FB0DE-DC40-4EDA-992F-E192985274BD}
  9
$EXTNAMES
290
1
  9
$PSVPSCALE
 40
0.0
  9
$OLESTARTUP
290
0
  9
$SORTENTS
280
127
  9
$INDEXCTL
280
0
  9
$HIDETEXT
280
1
  9
$XCLIPFRAME
280
1
  9
$HALOGAP
280
0
  9
$OBSCOLOR
 70
257
  9
$OBSLTYPE
280
0
  9
$INTERSECTIONDISPLAY
280
0
  9
$INTERSECTIONCOLOR
 70
257
  9
$DIMASSOC
280
2
  9
$PROJECTNAME
  1

  9
$CAMERADISPLAY
290
0
  9
$LENSLENGTH
 40
50.0
  9
$CAMERAHEIGHT
 40
0.0
  9
$STEPSPERSEC
 40
24.0
  9
$STEPSIZE
 40
100.0
  9
$3DDWFPREC
 40
2.0
  9
$PSOLWIDTH
 40
0.005
  9
$PSOLHEIGHT
 40
0.08
  9
$LOFTANG1
 40
1.570796326795
  9
$LOFTANG2
 40
1.570796326795
  9
$LOFTMAG1
 40
0.0
  9
$LOFTMAG2
 40
0.0
  9
$LOFTPARAM
 70
7
  9
$LOFTNORMALS
280
1
  9
$LATITUDE
 40
37.795
  9
$LONGITUDE
 40
-122.394
  9
$NORTHDIRECTION
 40
0.0
  9
$TIMEZONE
 70
-8000
  9
$LIGHTGLYPHDISPLAY
280
1
  9
$TILEMODELIGHTSYNCH
280
1
  9
$CMATERIAL
347
20
  9
$SOLIDHIST
280
0
  9
$SHOWHIST
280
1
  9
$DWFFRAME
280
2
  9
$DGNFRAME
280
2
  9
$REALWORLDSCALE
290
1
  9
$INTERFERECOLOR
 62
256
  9
$CSHADOW
280
0
  9
$SHADOWPLANELOCATION
 40
0.0
  0
ENDSEC
  0
SECTION
  2
CLASSES
  0
CLASS
  1
ACDBDICTIONARYWDFLT
  2
AcDbDictionaryWithDefault
  3
ObjectDBX Classes
 90
0
 91
0
280
0
281
0
  0
CLASS
  1
SUN
  2
AcDbSun
  3
SCENEOE
 90
1153
 91
0
280
0
281
0
  0
CLASS
  1
VISUALSTYLE
  2
AcDbVisualStyle
  3
ObjectDBX Classes
 90
4095
 91
0
280
0
281
0
  0
CLASS
  1
MATERIAL
  2
AcDbMaterial
  3
ObjectDBX Classes
 90
1153
 91
0
280
0
281
0
  0
CLASS
  1
SCALE
  2
AcDbScale
  3
ObjectDBX Classes
 90
1153
 91
0
280
0
281
0
  0
CLASS
  1
TABLESTYLE
  2
AcDbTableStyle
  3
ObjectDBX Classes
 90
4095
 91
0
280
0
281
0
  0
CLASS
  1
MLEADERSTYLE
  2
AcDbMLeaderStyle
  3
ACDB_MLEADERSTYLE_CLASS
 90
4095
 91
0
280
0
281
0
  0
CLASS
  1
DICTIONARYVAR
  2
AcDbDictionaryVar
  3
ObjectDBX Classes
 90
0
 91
0
280
0
281
0
  0
CLASS
  1
CELLSTYLEMAP
  2
AcDbCellStyleMap
  3
ObjectDBX Classes
 90
1152
 91
0
280
0
281
0
  0
CLASS
  1
MENTALRAYRENDERSETTINGS
  2
AcDbMentalRayRenderSettings
  3
SCENEOE
 90
1024
 91
0
280
0
281
0
  0
CLASS
  1
ACDBDETAILVIEWSTYLE
  2
AcDbDetailViewStyle
  3
ObjectDBX Classes
 90
1025
 91
0
280
0
281
0
  0
CLASS
  1
ACDBSECTIONVIEWSTYLE
  2
AcDbSectionViewStyle
  3
ObjectDBX Classes
 90
1025
 91
0
280
0
281
0
  0
CLASS
  1
RASTERVARIABLES
  2
AcDbRasterVariables
  3
ISM
 90
0
 91
0
280
0
281
0
  0
CLASS
  1
LAYOUT
  2
AcDbLayout
  3
ObjectDBX Classes
 90
0
 91
0
280
0
281
0
  0
CLASS
  1
ACDBPLACEHOLDER
  2
AcDbPlaceHolder
  3
ObjectDBX Classes
 90
0
 91
0
280
0
281
0
  0
ENDSEC
  0
SECTION
  2
TABLES
  0
TABLE
  2
VPORT
  5
8
330
0
100
AcDbSymbolTable
 70
1
  0
VPORT
  5
23
330
8
100
AcDbSymbolTableRecord
100
AcDbViewportTableRecord
  2
*Active
 70
0
 10
0.0
 20
0.0
 11
1.0
 21
1.0
 12
0.0
 22
0.0
 13
0.0
 23
0.0
 14
0.5
 24
0.5
 15
0.5
 25
0.5
 16
0.0
 26
0.0
 36
1.0
 17
0.0
 27
0.0
 37
0.0
 40
1000.0
 41
1.34
 42
50.0
 43
0.0
 44
0.0
 50
0.0
 51
0.0
 71
0
 72
1000
 73
1
 74
3
 75
0
 76
0
 77
0
 78
0
281
0
 65
0
146
0.0
  0
ENDTAB
  0
TABLE
  2
LTYPE
  5
2
330
0
100
AcDbSymbolTable
 70
21
  0
LTYPE
  5
24
330
2
100
AcDbSymbolTableRecord
100
AcDbLinetypeTableRecord
  2
ByBlock
 70
0
  3

 72
65
 73
0
 40
0.0
  0
LTYPE
  5
25
330
2
100
AcDbSymbolTableRecord
100
AcDbLinetypeTableRecord
  2
ByLayer
 70
0
  3

 72
65
 73
0
 40
0.0
  0
LTYPE
  5
26
330
2
100
AcDbSymbolTableRecord
100
AcDbLinetypeTableRecord
  2
Continuous
 70
0
  3

 72
65
 73
0
 40
0.0
  0
LTYPE
  5
2F
330
2
100
AcDbSymbolTableRecord
100
AcDbLinetypeTableRecord
  2
CENTER
 70
0
  3
Center ____ _ ____ _ ____ _ ____ _ ____ _ ____
 72
65
 73
4
 40
5.08
 49
3.175
 74
0
 49
-0.635
 74
0
 49
0.635
 74
0
 49
-0.635
 74
0
  0
LTYPE
  5
30
330
2
100
AcDbSymbolTableRecord
100
AcDbLinetypeTableRecord
  2
CENTERX2
 70
0
  3
Center (2x) ________  __  ________  __  ________
 72
65
 73
4
 40
8.89
 49
6.35
 74
0
 49
-0.635
 74
0
 49
1.27
 74
0
 49
-0.635
 74
0
  0
LTYPE
  5
31
330
2
100
AcDbSymbolTableRecord
100
AcDbLinetypeTableRecord
  2
CENTER2
 70
0
  3
Center (.5x) ____ _ ____ _ ____ _ ____ _ ____
 72
65
 73
4
 40
2.54
 49
1.587
 74
0
 49
-0.318
 74
0
 49
0.318
 74
0
 49
-0.318
 74
0
  0
LTYPE
  5
32
330
2
100
AcDbSymbolTableRecord
100
AcDbLinetypeTableRecord
  2
DASHED
 70
0
  3
Dashed __ __ __ __ __ __ __ __ __ __ __ __ __ _
 72
65
 73
2
 40
1.524
 49
1.27
 74
0
 49
-0.254
 74
0
  0
LTYPE
  5
33
330
2
100
AcDbSymbolTableRecord
100
AcDbLinetypeTableRecord
  2
DASHEDX2
 70
0
  3
Dashed (2x) ____  ____  ____  ____  ____  ____
 72
65
 73
2
 40
3.048
 49
2.54
 74
0
 49
-0.508
 74
0
  0
LTYPE
  5
34
330
2
100
AcDbSymbolTableRecord
100
AcDbLinetypeTableRecord
  2
DASHED2
 70
0
  3
Dashed (.5x) _ _ _ _ _ _ _ _ _ _ _ _ _ _
 72
65
 73
2
 40
0.762
 49
0.635
 74
0
 49
-0.127
 74
0
  0
LTYPE
  5
35
330
2
100
AcDbSymbolTableRecord
100
AcDbLinetypeTableRecord
  2
PHANTOM
 70
0
  3
Phantom ______  __  __  ______  __  __  ______
 72
65
 73
6
 40
6.35
 49
3.175
 74
0
 49
-0.635
 74
0
 49
0.635
 74
0
 49
-0.635
 74
0
 49
0.635
 74
0
 49
-0.635
 74
0
  0
LTYPE
  5
36
330
2
100
AcDbSymbolTableRecord
100
AcDbLinetypeTableRecord
  2
PHANTOMX2
 70
0
  3
Phantom (2x)____________    ____    ____    ____________
 72
65
 73
6
 40
10.795
 49
6.35
 74
0
 49
-0.635
 74
0
 49
1.27
 74
0
 49
-0.635
 74
0
 49
1.27
 74
0
 49
-0.635
 74
0
  0
LTYPE
  5
37
330
2
100
AcDbSymbolTableRecord
100
AcDbLinetypeTableRecord
  2
PHANTOM2
 70
0
  3
Phantom (.5x) ___ _ _ ___ _ _ ___ _ _ ___ _ _ ___
 72
65
 73
6
 40
3.175
 49
1.587
 74
0
 49
-0.318
 74
0
 49
0.318
 74
0
 49
-0.318
 74
0
 49
0.318
 74
0
 49
-0.318
 74
0
  0
LTYPE
  5
38
330
2
100
AcDbSymbolTableRecord
100
AcDbLinetypeTableRecord
  2
DASHDOT
 70
0
  3
Dash dot __ . __ . __ . __ . __ . __ . __ . __
 72
65
 73
4
 40
3.556
 49
2.54
 74
0
 49
-0.508
 74
0
 49
0.0
 74
0
 49
-0.508
 74
0
  0
LTYPE
  5
39
330
2
100
AcDbSymbolTableRecord
100
AcDbLinetypeTableRecord
  2
DASHDOTX2
 70
0
  3
Dash dot (2x) ____  .  ____  .  ____  .  ____
 72
65
 73
4
 40
6.096
 49
5.08
 74
0
 49
-0.508
 74
0
 49
0.0
 74
0
 49
-0.508
 74
0
  0
LTYPE
  5
3A
330
2
100
AcDbSymbolTableRecord
100
AcDbLinetypeTableRecord
  2
DASHDOT2
 70
0
  3
Dash dot (.5x) _ . _ . _ . _ . _ . _ . _ . _
 72
65
 73
4
 40
1.778
 49
1.27
 74
0
 49
-0.254
 74
0
 49
0.0
 74
0
 49
-0.254
 74
0
  0
LTYPE
  5
3B
330
2
100
AcDbSymbolTableRecord
100
AcDbLinetypeTableRecord
  2
DOT
 70
0
  3
Dot .  .  .  .  .  .  .  .  .  .  .  .  .  .  .  .
 72
65
 73
2
 40
0.508
 49
0.0
 74
0
 49
-0.508
 74
0
  0
LTYPE
  5
3C
330
2
100
AcDbSymbolTableRecord
100
AcDbLinetypeTableRecord
  2
DOTX2
 70
0
  3
Dot (2x) .    .    .    .    .    .    .    . 
 72
65
 73
2
 40
1.016
 49
0.0
 74
0
 49
-1.016
 74
0
  0
LTYPE
  5
3D
330
2
100
AcDbSymbolTableRecord
100
AcDbLinetypeTableRecord
  2
DOT2
 70
0
  3
Dot (.5) . . . . . . . . . . . . . . . . . . . 
 72
65
 73
2
 40
0.254
 49
0.0
 74
0
 49
-0.254
 74
0
  0
LTYPE
  5
3E
330
2
100
AcDbSymbolTableRecord
100
AcDbLinetypeTableRecord
  2
DIVIDE
 70
0
  3
Divide __ . . __ . . __ . . __ . . __ . . __
 72
65
 73
6
 40
4.064
 49
2.54
 74
0
 49
-0.508
 74
0
 49
0.0
 74
0
 49
-0.508
 74
0
 49
0.0
 74
0
 49
-0.508
 74
0
  0
LTYPE
  5
3F
330
2
100
AcDbSymbolTableRecord
100
AcDbLinetypeTableRecord
  2
DIVIDEX2
 70
0
  3
Divide (2x) ____  . .  ____  . .  ____  . .  ____
 72
65
 73
6
 40
6.604
 49
5.08
 74
0
 49
-0.508
 74
0
 49
0.0
 74
0
 49
-0.508
 74
0
 49
0.0
 74
0
 49
-0.508
 74
0
  0
LTYPE
  5
40
330
2
100
AcDbSymbolTableRecord
100
AcDbLinetypeTableRecord
  2
DIVIDE2
 70
0
  3
Divide(.5x) _ . _ . _ . _ . _ . _ . _ . _
 72
65
 73
6
 40
2.032
 49
1.27
 74
0
 49
-0.254
 74
0
 49
0.0
 74
0
 49
-0.254
 74
0
 49
0.0
 74
0
 49
-0.254
 74
0
  0
ENDTAB
  0
TABLE
  2
LAYER
  5
1
330
0
100
AcDbSymbolTable
 70
26
  0
LAYER
  5
27
330
1
100
AcDbSymbolTableRecord
100
AcDbLayerTableRecord
  2
0
 70
0
 62
7
  6
Continuous
370
-3
390
13
347
21
  0
LAYER
  5
28
330
1
100
AcDbSymbolTableRecord
100
AcDbLayerTableRecord
  2
Defpoints
 70
0
 62
7
  6
Continuous
290
0
370
-3
390
13
347
21
  0
LAYER
  5
8A
330
1
100
AcDbSymbolTableRecord
100
AcDbLayerTableRecord
  2
S-CONCRETE
 70
0
 62
7
  6
Continuous
370
-3
390
13
347
21
1001
AcAecLayerStandard
1000

1000
Structural concrete outlines (cut)
  0
LAYER
  5
8C
330
1
100
AcDbSymbolTableRecord
100
AcDbLayerTableRecord
  2
S-CONCRETE-THIN
 70
0
 62
7
  6
Continuous
370
-3
390
13
347
21
1001
AcAecLayerStandard
1000

1000
Concrete beyond the cut plane
  0
LAYER
  5
8D
330
1
100
AcDbSymbolTableRecord
100
AcDbLayerTableRecord
  2
S-HIDDEN
 70
0
 62
8
  6
Continuous
370
-3
390
13
347
21
1001
AcAecLayerStandard
1000

1000
Concrete / features beyond, hidden
  0
LAYER
  5
8E
330
1
100
AcDbSymbolTableRecord
100
AcDbLayerTableRecord
  2
S-REBAR-MAIN
 70
0
 62
1
  6
Continuous
370
-3
390
13
347
21
1001
AcAecLayerStandard
1000

1000
Main reinforcement
  0
LAYER
  5
8F
330
1
100
AcDbSymbolTableRecord
100
AcDbLayerTableRecord
  2
S-REBAR-DIST
 70
0
 62
3
  6
Continuous
370
-3
390
13
347
21
1001
AcAecLayerStandard
1000

1000
Distribution reinforcement
  0
LAYER
  5
90
330
1
100
AcDbSymbolTableRecord
100
AcDbLayerTableRecord
  2
S-REBAR-STIRRUP
 70
0
 62
6
  6
Continuous
370
-3
390
13
347
21
1001
AcAecLayerStandard
1000

1000
Links and stirrups
  0
LAYER
  5
91
330
1
100
AcDbSymbolTableRecord
100
AcDbLayerTableRecord
  2
S-REBAR-TIE
 70
0
 62
6
  6
Continuous
370
-3
390
13
347
21
1001
AcAecLayerStandard
1000

1000
Ties, cross-ties, starters
  0
LAYER
  5
92
330
1
100
AcDbSymbolTableRecord
100
AcDbLayerTableRecord
  2
S-REBAR-SEC
 70
0
 62
4
  6
Continuous
370
-3
390
13
347
21
1001
AcAecLayerStandard
1000

1000
Trimmers, secondary and additional bars
  0
LAYER
  5
93
330
1
100
AcDbSymbolTableRecord
100
AcDbLayerTableRecord
  2
S-DIM
 70
0
 62
4
  6
Continuous
370
-3
390
13
347
21
1001
AcAecLayerStandard
1000

1000
Dimensions
  0
LAYER
  5
94
330
1
100
AcDbSymbolTableRecord
100
AcDbLayerTableRecord
  2
S-TEXT
 70
0
 62
7
  6
Continuous
370
-3
390
13
347
21
1001
AcAecLayerStandard
1000

1000
General annotation
  0
LAYER
  5
95
330
1
100
AcDbSymbolTableRecord
100
AcDbLayerTableRecord
  2
S-NOTE
 70
0
 62
7
  6
Continuous
370
-3
390
13
347
21
1001
AcAecLayerStandard
1000

1000
Note panels
  0
LAYER
  5
96
330
1
100
AcDbSymbolTableRecord
100
AcDbLayerTableRecord
  2
S-CALLOUT
 70
0
 62
2
  6
Continuous
370
-3
390
13
347
21
1001
AcAecLayerStandard
1000

1000
Bar-mark balloons and leaders
  0
LAYER
  5
97
330
1
100
AcDbSymbolTableRecord
100
AcDbLayerTableRecord
  2
S-SECTION
 70
0
 62
1
  6
Continuous
370
-3
390
13
347
21
1001
AcAecLayerStandard
1000

1000
Section and detail markers
  0
LAYER
  5
98
330
1
100
AcDbSymbolTableRecord
100
AcDbLayerTableRecord
  2
S-GRID
 70
0
 62
5
  6
Continuous
370
-3
390
13
347
21
1001
AcAecLayerStandard
1000

1000
Grid lines and bubbles
  0
LAYER
  5
99
330
1
100
AcDbSymbolTableRecord
100
AcDbLayerTableRecord
  2
S-CENTER
 70
0
 62
6
  6
Continuous
370
-3
390
13
347
21
1001
AcAecLayerStandard
1000

1000
Centrelines
  0
LAYER
  5
9A
330
1
100
AcDbSymbolTableRecord
100
AcDbLayerTableRecord
  2
S-HATCH
 70
0
 62
8
  6
Continuous
370
-3
390
13
347
21
1001
AcAecLayerStandard
1000

1000
Section hatch
  0
LAYER
  5
9B
330
1
100
AcDbSymbolTableRecord
100
AcDbLayerTableRecord
  2
S-TITLE
 70
0
 62
7
  6
Continuous
370
-3
390
13
347
21
1001
AcAecLayerStandard
1000

1000
Border, title block, view titles
  0
LAYER
  5
9C
330
1
100
AcDbSymbolTableRecord
100
AcDbLayerTableRecord
  2
S-EXISTING
 70
0
 62
8
  6
Continuous
370
-3
390
13
347
21
1001
AcAecLayerStandard
1000

1000
Soil, rock, berm, cover layers
  0
LAYER
  5
9D
330
1
100
AcDbSymbolTableRecord
100
AcDbLayerTableRecord
  2
S-REFERENCE
 70
0
 62
8
  6
Continuous
370
-3
390
13
347
21
1001
AcAecLayerStandard
1000

1000
Reference geometry, extents
  0
LAYER
  5
9E
330
1
100
AcDbSymbolTableRecord
100
AcDbLayerTableRecord
  2
S-WATERPROOF
 70
0
 62
30
  6
Continuous
370
-3
390
13
347
21
1001
AcAecLayerStandard
1000

1000
Membranes, waterstops, GWT
  0
LAYER
  5
9F
330
1
100
AcDbSymbolTableRecord
100
AcDbLayerTableRecord
  2
S-STEELWORK
 70
0
 62
2
  6
Continuous
370
-3
390
13
347
21
1001
AcAecLayerStandard
1000

1000
Cast-in frames, EMP straps, steel items
  0
LAYER
  5
A0
330
1
100
AcDbSymbolTableRecord
100
AcDbLayerTableRecord
  2
S-LEVEL
 70
0
 62
4
  6
Continuous
370
-3
390
13
347
21
1001
AcAecLayerStandard
1000

1000
Level markers
  0
LAYER
  5
A1
330
1
100
AcDbSymbolTableRecord
100
AcDbLayerTableRecord
  2
S-TABLE
 70
0
 62
7
  6
Continuous
370
-3
390
13
347
21
1001
AcAecLayerStandard
1000

1000
Tables and schedules
  0
LAYER
  5
A2
330
1
100
AcDbSymbolTableRecord
100
AcDbLayerTableRecord
  2
S-BLAST
 70
0
 62
1
  6
Continuous
370
-3
390
13
347
21
1001
AcAecLayerStandard
1000

1000
Blast arrows, findings, warnings
  0
ENDTAB
  0
TABLE
  2
STYLE
  5
5
330
0
100
AcDbSymbolTable
 70
26
  0
STYLE
  5
29
330
5
100
AcDbSymbolTableRecord
100
AcDbTextStyleTableRecord
  2
Standard
 70
0
 40
0.0
 41
1.0
 50
0.0
 71
0
 42
2.5
  3
txt
  4

  0
STYLE
  5
41
330
5
100
AcDbSymbolTableRecord
100
AcDbTextStyleTableRecord
  2
OpenSans-Light
 70
0
 40
0.0
 41
1.0
 50
0.0
 71
0
 42
2.5
  3
OpenSans-Light.ttf
  4

  0
STYLE
  5
42
330
5
100
AcDbSymbolTableRecord
100
AcDbTextStyleTableRecord
  2
OpenSans-Light-Italic
 70
0
 40
0.0
 41
1.0
 50
0.0
 71
0
 42
2.5
  3
OpenSans-LightItalic.ttf
  4

  0
STYLE
  5
43
330
5
100
AcDbSymbolTableRecord
100
AcDbTextStyleTableRecord
  2
OpenSans
 70
0
 40
0.0
 41
1.0
 50
0.0
 71
0
 42
2.5
  3
OpenSans-Regular.ttf
  4

  0
STYLE
  5
44
330
5
100
AcDbSymbolTableRecord
100
AcDbTextStyleTableRecord
  2
OpenSans-Italic
 70
0
 40
0.0
 41
1.0
 50
0.0
 71
0
 42
2.5
  3
OpenSans-Italic.ttf
  4

  0
STYLE
  5
45
330
5
100
AcDbSymbolTableRecord
100
AcDbTextStyleTableRecord
  2
OpenSans-SemiBold
 70
0
 40
0.0
 41
1.0
 50
0.0
 71
0
 42
2.5
  3
OpenSans-SemiBold.ttf
  4

  0
STYLE
  5
46
330
5
100
AcDbSymbolTableRecord
100
AcDbTextStyleTableRecord
  2
OpenSans-SemiBoldItalic
 70
0
 40
0.0
 41
1.0
 50
0.0
 71
0
 42
2.5
  3
OpenSans-SemiBoldItalic.ttf
  4

  0
STYLE
  5
47
330
5
100
AcDbSymbolTableRecord
100
AcDbTextStyleTableRecord
  2
OpenSans-Bold
 70
0
 40
0.0
 41
1.0
 50
0.0
 71
0
 42
2.5
  3
OpenSans-Bold.ttf
  4

  0
STYLE
  5
48
330
5
100
AcDbSymbolTableRecord
100
AcDbTextStyleTableRecord
  2
OpenSans-BoldItalic
 70
0
 40
0.0
 41
1.0
 50
0.0
 71
0
 42
2.5
  3
OpenSans-BoldItalic.ttf
  4

  0
STYLE
  5
49
330
5
100
AcDbSymbolTableRecord
100
AcDbTextStyleTableRecord
  2
OpenSans-ExtraBold
 70
0
 40
0.0
 41
1.0
 50
0.0
 71
0
 42
2.5
  3
OpenSans-ExtraBold.ttf
  4

  0
STYLE
  5
4A
330
5
100
AcDbSymbolTableRecord
100
AcDbTextStyleTableRecord
  2
OpenSans-ExtraBoldItalic
 70
0
 40
0.0
 41
1.0
 50
0.0
 71
0
 42
2.5
  3
OpenSans-ExtraBoldItalic.ttf
  4

  0
STYLE
  5
4B
330
5
100
AcDbSymbolTableRecord
100
AcDbTextStyleTableRecord
  2
OpenSansCondensed-Bold
 70
0
 40
0.0
 41
1.0
 50
0.0
 71
0
 42
2.5
  3
OpenSansCondensed-Bold.ttf
  4

  0
STYLE
  5
4C
330
5
100
AcDbSymbolTableRecord
100
AcDbTextStyleTableRecord
  2
OpenSansCondensed-Light
 70
0
 40
0.0
 41
1.0
 50
0.0
 71
0
 42
2.5
  3
OpenSansCondensed-Light.ttf
  4

  0
STYLE
  5
4D
330
5
100
AcDbSymbolTableRecord
100
AcDbTextStyleTableRecord
  2
OpenSansCondensed-Italic
 70
0
 40
0.0
 41
1.0
 50
0.0
 71
0
 42
2.5
  3
OpenSansCondensed-LightItalic.ttf
  4

  0
STYLE
  5
4E
330
5
100
AcDbSymbolTableRecord
100
AcDbTextStyleTableRecord
  2
LiberationSans
 70
0
 40
0.0
 41
1.0
 50
0.0
 71
0
 42
2.5
  3
LiberationSans-Regular.ttf
  4

  0
STYLE
  5
4F
330
5
100
AcDbSymbolTableRecord
100
AcDbTextStyleTableRecord
  2
LiberationSans-Bold
 70
0
 40
0.0
 41
1.0
 50
0.0
 71
0
 42
2.5
  3
LiberationSans-Bold.ttf
  4

  0
STYLE
  5
50
330
5
100
AcDbSymbolTableRecord
100
AcDbTextStyleTableRecord
  2
LiberationSans-BoldItalic
 70
0
 40
0.0
 41
1.0
 50
0.0
 71
0
 42
2.5
  3
LiberationSans-BoldItalic.ttf
  4

  0
STYLE
  5
51
330
5
100
AcDbSymbolTableRecord
100
AcDbTextStyleTableRecord
  2
LiberationSans-Italic
 70
0
 40
0.0
 41
1.0
 50
0.0
 71
0
 42
2.5
  3
LiberationSans-Italic.ttf
  4

  0
STYLE
  5
52
330
5
100
AcDbSymbolTableRecord
100
AcDbTextStyleTableRecord
  2
LiberationSerif
 70
0
 40
0.0
 41
1.0
 50
0.0
 71
0
 42
2.5
  3
LiberationSerif-Regular.ttf
  4

  0
STYLE
  5
53
330
5
100
AcDbSymbolTableRecord
100
AcDbTextStyleTableRecord
  2
LiberationSerif-Bold
 70
0
 40
0.0
 41
1.0
 50
0.0
 71
0
 42
2.5
  3
LiberationSerif-Bold.ttf
  4

  0
STYLE
  5
54
330
5
100
AcDbSymbolTableRecord
100
AcDbTextStyleTableRecord
  2
LiberationSerif-BoldItalic
 70
0
 40
0.0
 41
1.0
 50
0.0
 71
0
 42
2.5
  3
LiberationSerif-BoldItalic.ttf
  4

  0
STYLE
  5
55
330
5
100
AcDbSymbolTableRecord
100
AcDbTextStyleTableRecord
  2
LiberationSerif-Italic
 70
0
 40
0.0
 41
1.0
 50
0.0
 71
0
 42
2.5
  3
LiberationSerif-Italic.ttf
  4

  0
STYLE
  5
56
330
5
100
AcDbSymbolTableRecord
100
AcDbTextStyleTableRecord
  2
LiberationMono
 70
0
 40
0.0
 41
1.0
 50
0.0
 71
0
 42
2.5
  3
LiberationMono-Regular.ttf
  4

  0
STYLE
  5
57
330
5
100
AcDbSymbolTableRecord
100
AcDbTextStyleTableRecord
  2
LiberationMono-Bold
 70
0
 40
0.0
 41
1.0
 50
0.0
 71
0
 42
2.5
  3
LiberationMono-Bold.ttf
  4

  0
STYLE
  5
58
330
5
100
AcDbSymbolTableRecord
100
AcDbTextStyleTableRecord
  2
LiberationMono-BoldItalic
 70
0
 40
0.0
 41
1.0
 50
0.0
 71
0
 42
2.5
  3
LiberationMono-BoldItalic.ttf
  4

  0
STYLE
  5
59
330
5
100
AcDbSymbolTableRecord
100
AcDbTextStyleTableRecord
  2
LiberationMono-Italic
 70
0
 40
0.0
 41
1.0
 50
0.0
 71
0
 42
2.5
  3
LiberationMono-Italic.ttf
  4

  0
ENDTAB
  0
TABLE
  2
VIEW
  5
7
330
0
100
AcDbSymbolTable
 70
0
  0
ENDTAB
  0
TABLE
  2
UCS
  5
6
330
0
100
AcDbSymbolTable
 70
0
  0
ENDTAB
  0
TABLE
  2
APPID
  5
3
330
0
100
AcDbSymbolTable
 70
4
  0
APPID
  5
2A
330
3
100
AcDbSymbolTableRecord
100
AcDbRegAppTableRecord
  2
ACAD
 70
0
  0
APPID
  5
8B
330
3
100
AcDbSymbolTableRecord
100
AcDbRegAppTableRecord
  2
AcAecLayerStandard
 70
0
  0
APPID
  5
2B7
330
3
100
AcDbSymbolTableRecord
100
AcDbRegAppTableRecord
  2
HATCHBACKGROUNDCOLOR
 70
0
  0
APPID
  5
2B8
330
3
100
AcDbSymbolTableRecord
100
AcDbRegAppTableRecord
  2
EZDXF
 70
0
  0
ENDTAB
  0
TABLE
  2
DIMSTYLE
  5
4
330
0
100
AcDbSymbolTable
 70
14
100
AcDbDimStyleTable
  0
DIMSTYLE
105
2B
330
4
100
AcDbSymbolTableRecord
100
AcDbDimStyleTableRecord
  2
Standard
 70
0
 40
1.0
 41
2.5
 42
0.625
 43
3.75
 44
1.25
 45
0.0
 46
0.0
 47
0.0
 48
0.0
 49
2.5
140
2.5
141
2.5
142
0.0
143
0.03937007874
144
1.0
145
0.0
146
1.0
147
0.625
148
0.0
 69
0
 70
0
 71
0
 72
0
 73
0
 74
0
 75
0
 76
0
 77
1
 78
8
 79
3
170
0
171
3
172
1
173
0
174
0
175
0
176
0
177
0
178
0
179
2
271
2
272
2
273
2
274
3
275
0
276
0
277
2
278
44
279
0
280
0
281
0
282
0
283
0
284
8
285
0
286
0
288
0
289
3
290
0
371
-2
372
-2
  0
DIMSTYLE
105
73
330
4
100
AcDbSymbolTableRecord
100
AcDbDimStyleTableRecord
  2
EZDXF
 70
0
 40
1.0
 41
0.175
 42
0.125
 43
3.75
 44
0.375
 45
0.0
 46
0.0
 47
0.0
 48
0.0
 49
2.5
140
0.25
141
2.5
142
0.0
143
0.03937007874
144
100.0
145
0.0
146
0.5
147
0.1
148
0.0
 69
0
 70
0
 71
0
 72
0
 73
0
 74
0
 75
0
 76
0
 77
1
 78
12
 79
3
170
0
171
3
172
1
173
0
174
0
175
0
176
0
177
0
178
0
179
2
271
2
272
2
273
2
274
3
275
0
276
0
277
2
278
46
279
2
280
0
281
0
282
0
283
0
284
8
285
0
286
0
288
1
289
3
290
0
340
4C
342
74
371
-2
372
-2
  0
DIMSTYLE
105
7C
330
4
100
AcDbSymbolTableRecord
100
AcDbDimStyleTableRecord
  2
EZ_M_100_H25_CM
 70
0
 40
1.0
 41
0.25
 42
0.125
 43
3.75
 44
0.375
 45
0.0
 46
0.0
 47
0.0
 48
0.0
 49
2.5
140
0.25
141
2.5
142
0.125
143
0.03937007874
144
100.0
145
0.0
146
0.5
147
0.1
148
0.0
 69
0
 70
0
 71
0
 72
0
 73
0
 74
0
 75
0
 76
0
 77
1
 78
12
 79
3
170
0
171
3
172
1
173
0
174
0
175
0
176
0
177
0
178
0
179
2
271
2
272
2
273
2
274
3
275
0
276
0
277
2
278
46
279
2
280
0
281
0
282
0
283
0
284
8
285
0
286
0
288
1
289
3
290
0
340
4C
371
-2
372
-2
  0
DIMSTYLE
105
7D
330
4
100
AcDbSymbolTableRecord
100
AcDbDimStyleTableRecord
  2
EZ_M_50_H25_CM
 70
0
 40
1.0
 41
0.125
 42
0.0625
 43
3.75
 44
0.1875
 45
0.0
 46
0.0
 47
0.0
 48
0.0
 49
2.5
140
0.125
141
2.5
142
0.0625
143
0.03937007874
144
100.0
145
0.0
146
0.5
147
0.05
148
0.0
 69
0
 70
0
 71
0
 72
0
 73
0
 74
0
 75
0
 76
0
 77
1
 78
12
 79
3
170
0
171
3
172
1
173
0
174
0
175
0
176
0
177
0
178
0
179
2
271
2
272
2
273
2
274
3
275
0
276
0
277
2
278
46
279
2
280
0
281
0
282
0
283
0
284
8
285
0
286
0
288
1
289
3
290
0
340
4C
371
-2
372
-2
  0
DIMSTYLE
105
7E
330
4
100
AcDbSymbolTableRecord
100
AcDbDimStyleTableRecord
  2
EZ_M_25_H25_CM
 70
0
 40
1.0
 41
0.0625
 42
0.03125
 43
3.75
 44
0.09375
 45
0.0
 46
0.0
 47
0.0
 48
0.0
 49
2.5
140
0.0625
141
2.5
142
0.03125
143
0.03937007874
144
100.0
145
0.0
146
0.5
147
0.025
148
0.0
 69
0
 70
0
 71
0
 72
0
 73
0
 74
0
 75
0
 76
0
 77
1
 78
12
 79
3
170
0
171
3
172
1
173
0
174
0
175
0
176
0
177
0
178
0
179
2
271
2
272
2
273
2
274
3
275
0
276
0
277
2
278
46
279
2
280
0
281
0
282
0
283
0
284
8
285
0
286
0
288
1
289
3
290
0
340
4C
371
-2
372
-2
  0
DIMSTYLE
105
7F
330
4
100
AcDbSymbolTableRecord
100
AcDbDimStyleTableRecord
  2
EZ_M_20_H25_CM
 70
0
 40
1.0
 41
0.05
 42
0.025
 43
3.75
 44
0.07500000000000001
 45
0.0
 46
0.0
 47
0.0
 48
0.0
 49
2.5
140
0.05
141
2.5
142
0.025
143
0.03937007874
144
100.0
145
0.0
146
0.5
147
0.020000000000000004
148
0.0
 69
0
 70
0
 71
0
 72
0
 73
0
 74
0
 75
0
 76
0
 77
1
 78
12
 79
3
170
0
171
3
172
1
173
0
174
0
175
0
176
0
177
0
178
0
179
2
271
2
272
2
273
2
274
3
275
0
276
0
277
2
278
46
279
2
280
0
281
0
282
0
283
0
284
8
285
0
286
0
288
1
289
3
290
0
340
4C
371
-2
372
-2
  0
DIMSTYLE
105
80
330
4
100
AcDbSymbolTableRecord
100
AcDbDimStyleTableRecord
  2
EZ_M_10_H25_CM
 70
0
 40
1.0
 41
0.025
 42
0.0125
 43
3.75
 44
0.037500000000000006
 45
0.0
 46
0.0
 47
0.0
 48
0.0
 49
2.5
140
0.025
141
2.5
142
0.0125
143
0.03937007874
144
100.0
145
0.0
146
0.5
147
0.010000000000000002
148
0.0
 69
0
 70
0
 71
0
 72
0
 73
0
 74
0
 75
0
 76
0
 77
1
 78
12
 79
3
170
0
171
3
172
1
173
0
174
0
175
0
176
0
177
0
178
0
179
2
271
2
272
2
273
2
274
3
275
0
276
0
277
2
278
46
279
2
280
0
281
0
282
0
283
0
284
8
285
0
286
0
288
1
289
3
290
0
340
4C
371
-2
372
-2
  0
DIMSTYLE
105
81
330
4
100
AcDbSymbolTableRecord
100
AcDbDimStyleTableRecord
  2
EZ_M_5_H25_CM
 70
0
 40
1.0
 41
0.0125
 42
0.00625
 43
3.75
 44
0.018750000000000003
 45
0.0
 46
0.0
 47
0.0
 48
0.0
 49
2.5
140
0.0125
141
2.5
142
0.00625
143
0.03937007874
144
100.0
145
0.0
146
0.5
147
0.005000000000000001
148
0.0
 69
0
 70
0
 71
0
 72
0
 73
0
 74
0
 75
0
 76
0
 77
1
 78
12
 79
3
170
0
171
3
172
1
173
0
174
0
175
0
176
0
177
0
178
0
179
2
271
2
272
2
273
2
274
3
275
0
276
0
277
2
278
46
279
2
280
0
281
0
282
0
283
0
284
8
285
0
286
0
288
1
289
3
290
0
340
4C
371
-2
372
-2
  0
DIMSTYLE
105
82
330
4
100
AcDbSymbolTableRecord
100
AcDbDimStyleTableRecord
  2
EZ_M_1_H25_CM
 70
0
 40
1.0
 41
0.0025
 42
0.00125
 43
3.75
 44
0.00375
 45
0.0
 46
0.0
 47
0.0
 48
0.0
 49
2.5
140
0.0025
141
2.5
142
0.00125
143
0.03937007874
144
100.0
145
0.0
146
0.5
147
0.001
148
0.0
 69
0
 70
0
 71
0
 72
0
 73
0
 74
0
 75
0
 76
0
 77
1
 78
12
 79
3
170
0
171
3
172
1
173
0
174
0
175
0
176
0
177
0
178
0
179
2
271
2
272
2
273
2
274
3
275
0
276
0
277
2
278
46
279
2
280
0
281
0
282
0
283
0
284
8
285
0
286
0
288
1
289
3
290
0
340
4C
371
-2
372
-2
  0
DIMSTYLE
105
83
330
4
100
AcDbSymbolTableRecord
100
AcDbDimStyleTableRecord
  2
EZ_RADIUS
 70
0
 40
1.0
 41
0.25
 42
0.125
 43
3.75
 44
0.375
 45
0.0
 46
0.0
 47
0.0
 48
0.0
 49
2.5
140
0.25
141
0.0
142
0.0
143
0.03937007874
144
100.0
145
0.0
146
0.5
147
0.1
148
0.0
 69
0
 70
0
 71
0
 72
0
 73
0
 74
0
 75
0
 76
0
 77
1
 78
12
 79
3
170
0
171
3
172
0
173
0
174
0
175
0
176
0
177
0
178
0
179
2
271
2
272
2
273
2
274
3
275
0
276
0
277
2
278
46
279
1
280
0
281
0
282
0
283
0
284
8
285
0
286
0
288
1
289
3
290
0
340
4C
342
84
371
-2
372
-2
  0
DIMSTYLE
105
88
330
4
100
AcDbSymbolTableRecord
100
AcDbDimStyleTableRecord
  2
EZ_RADIUS_INSIDE
 70
0
 40
1.0
 41
0.25
 42
0.125
 43
3.75
 44
0.375
 45
0.0
 46
0.0
 47
0.0
 48
0.0
 49
2.5
140
0.25
141
0.0
142
0.0
143
0.03937007874
144
100.0
145
0.0
146
0.5
147
0.1
148
0.0
 69
0
 70
0
 71
0
 72
0
 73
0
 74
0
 75
0
 76
0
 77
0
 78
12
 79
3
170
0
171
3
172
0
173
0
174
1
175
0
176
0
177
0
178
0
179
2
271
2
272
2
273
2
274
3
275
0
276
0
277
2
278
46
279
0
280
0
281
0
282
0
283
0
284
8
285
0
286
0
288
1
289
0
290
0
340
4C
342
84
371
-2
372
-2
  0
DIMSTYLE
105
89
330
4
100
AcDbSymbolTableRecord
100
AcDbDimStyleTableRecord
  2
EZ_CURVED
 70
0
 40
1.0
 41
0.25
 42
0.125
 43
3.75
 44
0.375
 45
0.0
 46
0.0
 47
0.0
 48
0.0
 49
2.5
140
0.25
141
2.5
142
0.0
143
0.03937007874
144
100.0
145
0.0
146
0.5
147
0.1
148
0.0
 69
0
 70
0
 71
0
 72
0
 73
0
 74
0
 75
0
 76
0
 77
1
 78
12
 79
2
 90
2
170
0
171
3
172
1
173
0
174
0
175
0
176
0
177
0
178
0
179
2
271
2
272
2
273
2
274
3
275
0
276
0
277
2
278
46
279
2
280
0
281
0
282
0
283
0
284
8
285
0
286
0
288
1
289
3
290
0
340
4C
371
-2
372
-2
  0
DIMSTYLE
105
A3
330
4
100
AcDbSymbolTableRecord
100
AcDbDimStyleTableRecord
  2
SC-DIM
 70
0
 40
1.0
 41
1.6
 42
1.0
 43
3.75
 44
1.2
 45
0.0
 46
0.0
 47
0.0
 48
0.0
 49
2.5
140
1.8
141
2.5
142
0.0
143
0.03937007874
144
1.0
145
0.0
146
1.0
147
0.8
148
0.0
 69
0
 70
0
 71
0
 72
0
 73
0
 74
0
 75
0
 76
0
 77
1
 78
8
 79
3
170
0
171
3
172
1
173
0
174
0
175
0
176
4
177
4
178
4
179
2
271
0
272
2
273
2
274
3
275
0
276
0
277
2
278
44
279
0
280
0
281
0
282
0
283
0
284
8
285
0
286
0
288
0
289
3
290
0
342
74
371
13
372
13
  0
DIMSTYLE
105
A4
330
4
100
AcDbSymbolTableRecord
100
AcDbDimStyleTableRecord
  2
SC-DIM-S
 70
0
 40
1.0
 41
1.2
 42
1.0
 43
3.75
 44
1.2
 45
0.0
 46
0.0
 47
0.0
 48
0.0
 49
2.5
140
1.4
141
2.5
142
0.0
143
0.03937007874
144
1.0
145
0.0
146
1.0
147
0.8
148
0.0
 69
0
 70
0
 71
0
 72
0
 73
0
 74
0
 75
0
 76
0
 77
1
 78
8
 79
3
170
0
171
3
172
1
173
0
174
0
175
0
176
4
177
4
178
4
179
2
271
0
272
2
273
2
274
3
275
0
276
0
277
2
278
44
279
0
280
0
281
0
282
0
283
0
284
8
285
0
286
0
288
0
289
3
290
0
342
74
371
13
372
13
  0
ENDTAB
  0
TABLE
  2
BLOCK_RECORD
  5
9
330
0
100
AcDbSymbolTable
 70
19
  0
BLOCK_RECORD
  5
17
330
9
100
AcDbSymbolTableRecord
100
AcDbBlockTableRecord
  2
*Model_Space
340
1A
 70
0
280
1
281
0
  0
BLOCK_RECORD
  5
1B
330
9
100
AcDbSymbolTableRecord
100
AcDbBlockTableRecord
  2
*Paper_Space
340
1E
 70
0
280
1
281
0
  0
BLOCK_RECORD
  5
74
330
9
100
AcDbSymbolTableRecord
100
AcDbBlockTableRecord
  2
_ARCHTICK
340
0
 70
0
280
1
281
0
  0
BLOCK_RECORD
  5
78
330
9
100
AcDbSymbolTableRecord
100
AcDbBlockTableRecord
  2
_CLOSEDFILLED
340
0
 70
0
280
1
281
0
  0
BLOCK_RECORD
  5
84
330
9
100
AcDbSymbolTableRecord
100
AcDbBlockTableRecord
  2
_CLOSEDBLANK
340
0
 70
0
280
1
281
0
  0
BLOCK_RECORD
  5
A5
330
9
100
AcDbSymbolTableRecord
100
AcDbBlockTableRecord
  2
BARMARK
340
0
 70
0
280
1
281
0
  0
BLOCK_RECORD
  5
A9
330
9
100
AcDbSymbolTableRecord
100
AcDbBlockTableRecord
  2
SECMARK
340
0
 70
0
280
1
281
0
  0
BLOCK_RECORD
  5
AE
330
9
100
AcDbSymbolTableRecord
100
AcDbBlockTableRecord
  2
LEVELMK
340
0
 70
0
280
1
281
0
  0
BLOCK_RECORD
  5
B2
330
9
100
AcDbSymbolTableRecord
100
AcDbBlockTableRecord
  2
NORTH
340
0
 70
0
280
1
281
0
  0
BLOCK_RECORD
  5
113
330
9
100
AcDbSymbolTableRecord
100
AcDbBlockTableRecord
  2
*D1
340
0
 70
0
280
1
281
0
  0
BLOCK_RECORD
  5
122
330
9
100
AcDbSymbolTableRecord
100
AcDbBlockTableRecord
  2
*D2
340
0
 70
0
280
1
281
0
  0
BLOCK_RECORD
  5
131
330
9
100
AcDbSymbolTableRecord
100
AcDbBlockTableRecord
  2
*D3
340
0
 70
0
280
1
281
0
  0
BLOCK_RECORD
  5
140
330
9
100
AcDbSymbolTableRecord
100
AcDbBlockTableRecord
  2
*D4
340
0
 70
0
280
1
281
0
  0
BLOCK_RECORD
  5
14F
330
9
100
AcDbSymbolTableRecord
100
AcDbBlockTableRecord
  2
*D5
340
0
 70
0
280
1
281
0
  0
BLOCK_RECORD
  5
18D
330
9
100
AcDbSymbolTableRecord
100
AcDbBlockTableRecord
  2
*D6
340
0
 70
0
280
1
281
0
  0
BLOCK_RECORD
  5
19C
330
9
100
AcDbSymbolTableRecord
100
AcDbBlockTableRecord
  2
*D7
340
0
 70
0
280
1
281
0
  0
BLOCK_RECORD
  5
1F4
330
9
100
AcDbSymbolTableRecord
100
AcDbBlockTableRecord
  2
*D8
340
0
 70
0
280
1
281
0
  0
BLOCK_RECORD
  5
203
330
9
100
AcDbSymbolTableRecord
100
AcDbBlockTableRecord
  2
*D9
340
0
 70
0
280
1
281
0
  0
BLOCK_RECORD
  5
212
330
9
100
AcDbSymbolTableRecord
100
AcDbBlockTableRecord
  2
*D10
340
0
 70
0
280
1
281
0
  0
ENDTAB
  0
ENDSEC
  0
SECTION
  2
BLOCKS
  0
BLOCK
  5
18
330
17
100
AcDbEntity
  8
0
100
AcDbBlockBegin
  2
*Model_Space
 70
0
 10
0.0
 20
0.0
 30
0.0
  3
*Model_Space
  1

  0
ENDBLK
  5
19
330
17
100
AcDbEntity
  8
0
100
AcDbBlockEnd
  0
BLOCK
  5
1C
330
1B
100
AcDbEntity
  8
0
100
AcDbBlockBegin
  2
*Paper_Space
 70
0
 10
0.0
 20
0.0
 30
0.0
  3
*Paper_Space
  1

  0
ENDBLK
  5
1D
330
1B
100
AcDbEntity
  8
0
100
AcDbBlockEnd
  0
BLOCK
  5
75
330
74
100
AcDbEntity
  8
0
100
AcDbBlockBegin
  2
_ARCHTICK
 70
0
 10
0.0
 20
0.0
 30
0.0
  3
_ARCHTICK
  1

  0
LWPOLYLINE
  5
77
330
74
100
AcDbEntity
  8
0
  6
BYBLOCK
 62
0
100
AcDbPolyline
 90
2
 70
0
 43
0.15
 10
-0.5
 20
-0.5
 10
0.5
 20
0.5
  0
ENDBLK
  5
76
330
74
100
AcDbEntity
  8
0
100
AcDbBlockEnd
  0
BLOCK
  5
79
330
78
100
AcDbEntity
  8
0
100
AcDbBlockBegin
  2
_CLOSEDFILLED
 70
0
 10
0.0
 20
0.0
 30
0.0
  3
_CLOSEDFILLED
  1

  0
SOLID
  5
7B
330
78
100
AcDbEntity
  8
0
  6
BYBLOCK
 62
0
100
AcDbTrace
 10
-1.0
 20
0.16439898372402537
 30
0.0
 11
0.0
 21
0.0
 31
0.0
 12
-1.0
 22
-0.16439898372402537
 32
0.0
 13
-1.0
 23
-0.16439898372402537
 33
0.0
  0
ENDBLK
  5
7A
330
78
100
AcDbEntity
  8
0
100
AcDbBlockEnd
  0
BLOCK
  5
85
330
84
100
AcDbEntity
  8
0
100
AcDbBlockBegin
  2
_CLOSEDBLANK
 70
0
 10
0.0
 20
0.0
 30
0.0
  3
_CLOSEDBLANK
  1

  0
LWPOLYLINE
  5
87
330
84
100
AcDbEntity
  8
0
  6
BYBLOCK
 62
0
100
AcDbPolyline
 90
3
 70
1
 10
-1.0
 20
0.16439898372402537
 10
0.0
 20
0.0
 10
-1.0
 20
-0.16439898372402537
  0
ENDBLK
  5
86
330
84
100
AcDbEntity
  8
0
100
AcDbBlockEnd
  0
BLOCK
  5
A6
330
A5
100
AcDbEntity
  8
0
100
AcDbBlockBegin
  2
BARMARK
 70
0
 10
0.0
 20
0.0
 30
0.0
  3
BARMARK
  1

  0
CIRCLE
  5
A8
330
A5
100
AcDbEntity
  8
S-CALLOUT
100
AcDbCircle
 10
0.0
 20
0.0
 30
0.0
 40
3.2
  0
ENDBLK
  5
A7
330
A5
100
AcDbEntity
  8
0
100
AcDbBlockEnd
  0
BLOCK
  5
AA
330
A9
100
AcDbEntity
  8
0
100
AcDbBlockBegin
  2
SECMARK
 70
0
 10
0.0
 20
0.0
 30
0.0
  3
SECMARK
  1

  0
CIRCLE
  5
AC
330
A9
100
AcDbEntity
  8
S-SECTION
100
AcDbCircle
 10
0.0
 20
0.0
 30
0.0
 40
4.0
  0
LINE
  5
AD
330
A9
100
AcDbEntity
  8
S-SECTION
100
AcDbLine
 10
-4.0
 20
0.0
 30
0.0
 11
4.0
 21
0.0
 31
0.0
  0
ENDBLK
  5
AB
330
A9
100
AcDbEntity
  8
0
100
AcDbBlockEnd
  0
BLOCK
  5
AF
330
AE
100
AcDbEntity
  8
0
100
AcDbBlockBegin
  2
LEVELMK
 70
0
 10
0.0
 20
0.0
 30
0.0
  3
LEVELMK
  1

  0
LWPOLYLINE
  5
B1
330
AE
100
AcDbEntity
  8
S-LEVEL
100
AcDbPolyline
 90
4
 70
1
 10
0.0
 20
0.0
 10
-2.0
 20
3.0
 10
2.0
 20
3.0
 10
0.0
 20
0.0
  0
ENDBLK
  5
B0
330
AE
100
AcDbEntity
  8
0
100
AcDbBlockEnd
  0
BLOCK
  5
B3
330
B2
100
AcDbEntity
  8
0
100
AcDbBlockBegin
  2
NORTH
 70
0
 10
0.0
 20
0.0
 30
0.0
  3
NORTH
  1

  0
LWPOLYLINE
  5
B5
330
B2
100
AcDbEntity
  8
S-TITLE
100
AcDbPolyline
 90
5
 70
1
 10
0.0
 20
10.0
 10
-3.2
 20
-6.0
 10
0.0
 20
-2.4
 10
3.2
 20
-6.0
 10
0.0
 20
10.0
  0
CIRCLE
  5
B6
330
B2
100
AcDbEntity
  8
S-TITLE
100
AcDbCircle
 10
0.0
 20
0.0
 30
0.0
 40
12.0
  0
ENDBLK
  5
B4
330
B2
100
AcDbEntity
  8
0
100
AcDbBlockEnd
  0
BLOCK
  5
114
330
113
100
AcDbEntity
  8
0
100
AcDbBlockBegin
  2
*D1
 70
1
 10
0.0
 20
0.0
 30
0.0
  3
*D1
  1

  0
LINE
  5
116
330
113
100
AcDbEntity
  8
0
 62
4
370
13
100
AcDbLine
 10
113.0
 20
210.0
 30
0.0
 11
96.8
 21
210.0
 31
0.0
  0
LINE
  5
117
330
113
100
AcDbEntity
  8
0
 62
4
370
13
100
AcDbLine
 10
113.0
 20
264.66656
 30
0.0
 11
96.8
 21
264.66656
 31
0.0
  0
INSERT
  5
118
330
113
100
AcDbEntity
  8
S-DIM
 62
4
100
AcDbBlockReference
  2
_ARCHTICK
 10
98.0
 20
210.0
 30
0.0
 41
1.6
 42
1.6
 50
270.0
  0
INSERT
  5
11A
330
113
100
AcDbEntity
  8
S-DIM
 62
4
100
AcDbBlockReference
  2
_ARCHTICK
 10
98.0
 20
264.66656
 30
0.0
 41
1.6
 42
1.6
 50
90.0
  0
LINE
  5
11C
330
113
100
AcDbEntity
  8
0
 62
4
370
13
100
AcDbLine
 10
98.0
 20
210.0
 30
0.0
 11
98.0
 21
264.66656
 31
0.0
  0
MTEXT
  5
11D
330
113
100
AcDbEntity
  8
S-DIM
 62
4
100
AcDbMText
 10
96.3
 20
237.33328
 30
0.0
 40
1.8
 71
5
  1
1367
  7
OpenSansCondensed-Light
 50
90.0
  0
POINT
  5
11E
330
113
100
AcDbEntity
  8
Defpoints
100
AcDbPoint
 10
98.0
 20
210.0
 30
0.0
  0
POINT
  5
11F
330
113
100
AcDbEntity
  8
Defpoints
100
AcDbPoint
 10
114.0
 20
210.0
 30
0.0
  0
POINT
  5
120
330
113
100
AcDbEntity
  8
Defpoints
100
AcDbPoint
 10
114.0
 20
264.66656
 30
0.0
  0
ENDBLK
  5
115
330
113
100
AcDbEntity
  8
0
100
AcDbBlockEnd
  0
BLOCK
  5
123
330
122
100
AcDbEntity
  8
0
100
AcDbBlockBegin
  2
*D2
 70
1
 10
0.0
 20
0.0
 30
0.0
  3
*D2
  1

  0
LINE
  5
125
330
122
100
AcDbEntity
  8
0
 62
4
370
13
100
AcDbLine
 10
113.0
 20
264.66656
 30
0.0
 11
96.8
 21
264.66656
 31
0.0
  0
LINE
  5
126
330
122
100
AcDbEntity
  8
0
 62
4
370
13
100
AcDbLine
 10
113.0
 20
319.33312
 30
0.0
 11
96.8
 21
319.33312
 31
0.0
  0
INSERT
  5
127
330
122
100
AcDbEntity
  8
S-DIM
 62
4
100
AcDbBlockReference
  2
_ARCHTICK
 10
98.0
 20
264.66656
 30
0.0
 41
1.6
 42
1.6
 50
270.0
  0
INSERT
  5
129
330
122
100
AcDbEntity
  8
S-DIM
 62
4
100
AcDbBlockReference
  2
_ARCHTICK
 10
98.0
 20
319.33312
 30
0.0
 41
1.6
 42
1.6
 50
90.0
  0
LINE
  5
12B
330
122
100
AcDbEntity
  8
0
 62
4
370
13
100
AcDbLine
 10
98.0
 20
264.66656
 30
0.0
 11
98.0
 21
319.33312
 31
0.0
  0
MTEXT
  5
12C
330
122
100
AcDbEntity
  8
S-DIM
 62
4
100
AcDbMText
 10
96.3
 20
291.99984
 30
0.0
 40
1.8
 71
5
  1
1367
  7
OpenSansCondensed-Light
 50
90.0
  0
POINT
  5
12D
330
122
100
AcDbEntity
  8
Defpoints
100
AcDbPoint
 10
98.0
 20
264.66656
 30
0.0
  0
POINT
  5
12E
330
122
100
AcDbEntity
  8
Defpoints
100
AcDbPoint
 10
114.0
 20
264.66656
 30
0.0
  0
POINT
  5
12F
330
122
100
AcDbEntity
  8
Defpoints
100
AcDbPoint
 10
114.0
 20
319.33312
 30
0.0
  0
ENDBLK
  5
124
330
122
100
AcDbEntity
  8
0
100
AcDbBlockEnd
  0
BLOCK
  5
132
330
131
100
AcDbEntity
  8
0
100
AcDbBlockBegin
  2
*D3
 70
1
 10
0.0
 20
0.0
 30
0.0
  3
*D3
  1

  0
LINE
  5
134
330
131
100
AcDbEntity
  8
0
 62
4
370
13
100
AcDbLine
 10
113.0
 20
319.33312
 30
0.0
 11
96.8
 21
319.33312
 31
0.0
  0
LINE
  5
135
330
131
100
AcDbEntity
  8
0
 62
4
370
13
100
AcDbLine
 10
113.0
 20
374.0
 30
0.0
 11
96.8
 21
374.0
 31
0.0
  0
INSERT
  5
136
330
131
100
AcDbEntity
  8
S-DIM
 62
4
100
AcDbBlockReference
  2
_ARCHTICK
 10
98.0
 20
319.33312
 30
0.0
 41
1.6
 42
1.6
 50
270.0
  0
INSERT
  5
138
330
131
100
AcDbEntity
  8
S-DIM
 62
4
100
AcDbBlockReference
  2
_ARCHTICK
 10
98.0
 20
374.0
 30
0.0
 41
1.6
 42
1.6
 50
90.0
  0
LINE
  5
13A
330
131
100
AcDbEntity
  8
0
 62
4
370
13
100
AcDbLine
 10
98.0
 20
319.33312
 30
0.0
 11
98.0
 21
374.0
 31
0.0
  0
MTEXT
  5
13B
330
131
100
AcDbEntity
  8
S-DIM
 62
4
100
AcDbMText
 10
96.3
 20
346.66656
 30
0.0
 40
1.8
 71
5
  1
1367
  7
OpenSansCondensed-Light
 50
90.0
  0
POINT
  5
13C
330
131
100
AcDbEntity
  8
Defpoints
100
AcDbPoint
 10
98.0
 20
319.33312
 30
0.0
  0
POINT
  5
13D
330
131
100
AcDbEntity
  8
Defpoints
100
AcDbPoint
 10
114.0
 20
319.33312
 30
0.0
  0
POINT
  5
13E
330
131
100
AcDbEntity
  8
Defpoints
100
AcDbPoint
 10
114.0
 20
374.0
 30
0.0
  0
ENDBLK
  5
133
330
131
100
AcDbEntity
  8
0
100
AcDbBlockEnd
  0
BLOCK
  5
141
330
140
100
AcDbEntity
  8
0
100
AcDbBlockBegin
  2
*D4
 70
1
 10
0.0
 20
0.0
 30
0.0
  3
*D4
  1

  0
LINE
  5
143
330
140
100
AcDbEntity
  8
0
 62
4
370
13
100
AcDbLine
 10
331.0
 20
210.0
 30
0.0
 11
347.2
 21
210.0
 31
0.0
  0
LINE
  5
144
330
140
100
AcDbEntity
  8
0
 62
4
370
13
100
AcDbLine
 10
331.0
 20
374.0
 30
0.0
 11
347.2
 21
374.0
 31
0.0
  0
INSERT
  5
145
330
140
100
AcDbEntity
  8
S-DIM
 62
4
100
AcDbBlockReference
  2
_ARCHTICK
 10
346.0
 20
210.0
 30
0.0
 41
1.6
 42
1.6
 50
270.0
  0
INSERT
  5
147
330
140
100
AcDbEntity
  8
S-DIM
 62
4
100
AcDbBlockReference
  2
_ARCHTICK
 10
346.0
 20
374.0
 30
0.0
 41
1.6
 42
1.6
 50
90.0
  0
LINE
  5
149
330
140
100
AcDbEntity
  8
0
 62
4
370
13
100
AcDbLine
 10
346.0
 20
210.0
 30
0.0
 11
346.0
 21
374.0
 31
0.0
  0
MTEXT
  5
14A
330
140
100
AcDbEntity
  8
S-DIM
 62
4
100
AcDbMText
 10
344.3
 20
292.0
 30
0.0
 40
1.8
 71
5
  1
4100
  7
OpenSansCondensed-Light
 50
90.0
  0
POINT
  5
14B
330
140
100
AcDbEntity
  8
Defpoints
100
AcDbPoint
 10
346.0
 20
210.0
 30
0.0
  0
POINT
  5
14C
330
140
100
AcDbEntity
  8
Defpoints
100
AcDbPoint
 10
330.0
 20
210.0
 30
0.0
  0
POINT
  5
14D
330
140
100
AcDbEntity
  8
Defpoints
100
AcDbPoint
 10
330.0
 20
374.0
 30
0.0
  0
ENDBLK
  5
142
330
140
100
AcDbEntity
  8
0
100
AcDbBlockEnd
  0
BLOCK
  5
150
330
14F
100
AcDbEntity
  8
0
100
AcDbBlockBegin
  2
*D5
 70
1
 10
0.0
 20
0.0
 30
0.0
  3
*D5
  1

  0
LINE
  5
152
330
14F
100
AcDbEntity
  8
0
 62
4
370
13
100
AcDbLine
 10
162.0
 20
201.0
 30
0.0
 11
162.0
 21
172.8
 31
0.0
  0
LINE
  5
153
330
14F
100
AcDbEntity
  8
0
 62
4
370
13
100
AcDbLine
 10
240.4
 20
201.0
 30
0.0
 11
240.4
 21
172.8
 31
0.0
  0
INSERT
  5
154
330
14F
100
AcDbEntity
  8
S-DIM
 62
4
100
AcDbBlockReference
  2
_ARCHTICK
 10
162.0
 20
174.0
 30
0.0
 41
1.6
 42
1.6
 50
180.0
  0
INSERT
  5
156
330
14F
100
AcDbEntity
  8
S-DIM
 62
4
100
AcDbBlockReference
  2
_ARCHTICK
 10
240.4
 20
174.0
 30
0.0
 41
1.6
 42
1.6
  0
LINE
  5
158
330
14F
100
AcDbEntity
  8
0
 62
4
370
13
100
AcDbLine
 10
162.0
 20
174.0
 30
0.0
 11
240.4
 21
174.0
 31
0.0
  0
MTEXT
  5
159
330
14F
100
AcDbEntity
  8
S-DIM
 62
4
100
AcDbMText
 10
201.2
 20
175.7
 30
0.0
 40
1.8
 71
5
  1
1960
  7
OpenSansCondensed-Light
  0
POINT
  5
15A
330
14F
100
AcDbEntity
  8
Defpoints
100
AcDbPoint
 10
162.0
 20
174.0
 30
0.0
  0
POINT
  5
15B
330
14F
100
AcDbEntity
  8
Defpoints
100
AcDbPoint
 10
162.0
 20
202.0
 30
0.0
  0
POINT
  5
15C
330
14F
100
AcDbEntity
  8
Defpoints
100
AcDbPoint
 10
240.4
 20
202.0
 30
0.0
  0
ENDBLK
  5
151
330
14F
100
AcDbEntity
  8
0
100
AcDbBlockEnd
  0
BLOCK
  5
18E
330
18D
100
AcDbEntity
  8
0
100
AcDbBlockBegin
  2
*D6
 70
1
 10
0.0
 20
0.0
 30
0.0
  3
*D6
  1

  0
LINE
  5
190
330
18D
100
AcDbEntity
  8
0
 62
4
370
13
100
AcDbLine
 10
380.0
 20
299.0
 30
0.0
 11
380.0
 21
278.8
 31
0.0
  0
LINE
  5
191
330
18D
100
AcDbEntity
  8
0
 62
4
370
13
100
AcDbLine
 10
500.0
 20
299.0
 30
0.0
 11
500.0
 21
278.8
 31
0.0
  0
INSERT
  5
192
330
18D
100
AcDbEntity
  8
S-DIM
 62
4
100
AcDbBlockReference
  2
_ARCHTICK
 10
380.0
 20
280.0
 30
0.0
 41
1.6
 42
1.6
 50
180.0
  0
INSERT
  5
194
330
18D
100
AcDbEntity
  8
S-DIM
 62
4
100
AcDbBlockReference
  2
_ARCHTICK
 10
500.0
 20
280.0
 30
0.0
 41
1.6
 42
1.6
  0
LINE
  5
196
330
18D
100
AcDbEntity
  8
0
 62
4
370
13
100
AcDbLine
 10
380.0
 20
280.0
 30
0.0
 11
500.0
 21
280.0
 31
0.0
  0
MTEXT
  5
197
330
18D
100
AcDbEntity
  8
S-DIM
 62
4
100
AcDbMText
 10
440.0
 20
281.7
 30
0.0
 40
1.8
 71
5
  1
1200
  7
OpenSansCondensed-Light
  0
POINT
  5
198
330
18D
100
AcDbEntity
  8
Defpoints
100
AcDbPoint
 10
380.0
 20
280.0
 30
0.0
  0
POINT
  5
199
330
18D
100
AcDbEntity
  8
Defpoints
100
AcDbPoint
 10
380.0
 20
300.0
 30
0.0
  0
POINT
  5
19A
330
18D
100
AcDbEntity
  8
Defpoints
100
AcDbPoint
 10
500.0
 20
300.0
 30
0.0
  0
ENDBLK
  5
18F
330
18D
100
AcDbEntity
  8
0
100
AcDbBlockEnd
  0
BLOCK
  5
19D
330
19C
100
AcDbEntity
  8
0
100
AcDbBlockBegin
  2
*D7
 70
1
 10
0.0
 20
0.0
 30
0.0
  3
*D7
  1

  0
LINE
  5
19F
330
19C
100
AcDbEntity
  8
0
 62
4
370
13
100
AcDbLine
 10
501.0
 20
300.0
 30
0.0
 11
521.2
 21
300.0
 31
0.0
  0
LINE
  5
1A0
330
19C
100
AcDbEntity
  8
0
 62
4
370
13
100
AcDbLine
 10
501.0
 20
320.0
 30
0.0
 11
521.2
 21
320.0
 31
0.0
  0
INSERT
  5
1A1
330
19C
100
AcDbEntity
  8
S-DIM
 62
4
100
AcDbBlockReference
  2
_ARCHTICK
 10
520.0
 20
300.0
 30
0.0
 41
1.6
 42
1.6
 50
270.0
  0
INSERT
  5
1A3
330
19C
100
AcDbEntity
  8
S-DIM
 62
4
100
AcDbBlockReference
  2
_ARCHTICK
 10
520.0
 20
320.0
 30
0.0
 41
1.6
 42
1.6
 50
90.0
  0
LINE
  5
1A5
330
19C
100
AcDbEntity
  8
0
 62
4
370
13
100
AcDbLine
 10
520.0
 20
300.0
 30
0.0
 11
520.0
 21
320.0
 31
0.0
  0
MTEXT
  5
1A6
330
19C
100
AcDbEntity
  8
S-DIM
 62
4
100
AcDbMText
 10
518.3
 20
310.0
 30
0.0
 40
1.8
 71
5
  1
200
  7
OpenSansCondensed-Light
 50
90.0
  0
POINT
  5
1A7
330
19C
100
AcDbEntity
  8
Defpoints
100
AcDbPoint
 10
520.0
 20
300.0
 30
0.0
  0
POINT
  5
1A8
330
19C
100
AcDbEntity
  8
Defpoints
100
AcDbPoint
 10
500.0
 20
300.0
 30
0.0
  0
POINT
  5
1A9
330
19C
100
AcDbEntity
  8
Defpoints
100
AcDbPoint
 10
500.0
 20
320.0
 30
0.0
  0
ENDBLK
  5
19E
330
19C
100
AcDbEntity
  8
0
100
AcDbBlockEnd
  0
BLOCK
  5
1F5
330
1F4
100
AcDbEntity
  8
0
100
AcDbBlockBegin
  2
*D8
 70
1
 10
0.0
 20
0.0
 30
0.0
  3
*D8
  1

  0
LINE
  5
1F7
330
1F4
100
AcDbEntity
  8
0
 62
4
370
13
100
AcDbLine
 10
400.0
 20
249.0
 30
0.0
 11
400.0
 21
213.8
 31
0.0
  0
LINE
  5
1F8
330
1F4
100
AcDbEntity
  8
0
 62
4
370
13
100
AcDbLine
 10
540.0
 20
249.0
 30
0.0
 11
540.0
 21
213.8
 31
0.0
  0
INSERT
  5
1F9
330
1F4
100
AcDbEntity
  8
S-DIM
 62
4
100
AcDbBlockReference
  2
_ARCHTICK
 10
400.0
 20
215.0
 30
0.0
 41
1.6
 42
1.6
 50
180.0
  0
INSERT
  5
1FB
330
1F4
100
AcDbEntity
  8
S-DIM
 62
4
100
AcDbBlockReference
  2
_ARCHTICK
 10
540.0
 20
215.0
 30
0.0
 41
1.6
 42
1.6
  0
LINE
  5
1FD
330
1F4
100
AcDbEntity
  8
0
 62
4
370
13
100
AcDbLine
 10
400.0
 20
215.0
 30
0.0
 11
540.0
 21
215.0
 31
0.0
  0
MTEXT
  5
1FE
330
1F4
100
AcDbEntity
  8
S-DIM
 62
4
100
AcDbMText
 10
470.0
 20
216.7
 30
0.0
 40
1.8
 71
5
  1
2800
  7
OpenSansCondensed-Light
  0
POINT
  5
1FF
330
1F4
100
AcDbEntity
  8
Defpoints
100
AcDbPoint
 10
400.0
 20
215.0
 30
0.0
  0
POINT
  5
200
330
1F4
100
AcDbEntity
  8
Defpoints
100
AcDbPoint
 10
400.0
 20
250.0
 30
0.0
  0
POINT
  5
201
330
1F4
100
AcDbEntity
  8
Defpoints
100
AcDbPoint
 10
540.0
 20
250.0
 30
0.0
  0
ENDBLK
  5
1F6
330
1F4
100
AcDbEntity
  8
0
100
AcDbBlockEnd
  0
BLOCK
  5
204
330
203
100
AcDbEntity
  8
0
100
AcDbBlockBegin
  2
*D9
 70
1
 10
0.0
 20
0.0
 30
0.0
  3
*D9
  1

  0
LINE
  5
206
330
203
100
AcDbEntity
  8
0
 62
4
370
13
100
AcDbLine
 10
380.0
 20
199.0
 30
0.0
 11
380.0
 21
178.8
 31
0.0
  0
LINE
  5
207
330
203
100
AcDbEntity
  8
0
 62
4
370
13
100
AcDbLine
 10
560.0
 20
199.0
 30
0.0
 11
560.0
 21
178.8
 31
0.0
  0
INSERT
  5
208
330
203
100
AcDbEntity
  8
S-DIM
 62
4
100
AcDbBlockReference
  2
_ARCHTICK
 10
380.0
 20
180.0
 30
0.0
 41
1.6
 42
1.6
 50
180.0
  0
INSERT
  5
20A
330
203
100
AcDbEntity
  8
S-DIM
 62
4
100
AcDbBlockReference
  2
_ARCHTICK
 10
560.0
 20
180.0
 30
0.0
 41
1.6
 42
1.6
  0
LINE
  5
20C
330
203
100
AcDbEntity
  8
0
 62
4
370
13
100
AcDbLine
 10
380.0
 20
180.0
 30
0.0
 11
560.0
 21
180.0
 31
0.0
  0
MTEXT
  5
20D
330
203
100
AcDbEntity
  8
S-DIM
 62
4
100
AcDbMText
 10
470.0
 20
181.7
 30
0.0
 40
1.8
 71
5
  1
3600
  7
OpenSansCondensed-Light
  0
POINT
  5
20E
330
203
100
AcDbEntity
  8
Defpoints
100
AcDbPoint
 10
380.0
 20
180.0
 30
0.0
  0
POINT
  5
20F
330
203
100
AcDbEntity
  8
Defpoints
100
AcDbPoint
 10
380.0
 20
200.0
 30
0.0
  0
POINT
  5
210
330
203
100
AcDbEntity
  8
Defpoints
100
AcDbPoint
 10
560.0
 20
200.0
 30
0.0
  0
ENDBLK
  5
205
330
203
100
AcDbEntity
  8
0
100
AcDbBlockEnd
  0
BLOCK
  5
213
330
212
100
AcDbEntity
  8
0
100
AcDbBlockBegin
  2
*D10
 70
1
 10
0.0
 20
0.0
 30
0.0
  3
*D10
  1

  0
LINE
  5
215
330
212
100
AcDbEntity
  8
0
 62
4
370
13
100
AcDbLine
 10
561.0
 20
250.0
 30
0.0
 11
581.2
 21
250.0
 31
0.0
  0
LINE
  5
216
330
212
100
AcDbEntity
  8
0
 62
4
370
13
100
AcDbLine
 10
561.0
 20
260.0
 30
0.0
 11
581.2
 21
260.0
 31
0.0
  0
INSERT
  5
217
330
212
100
AcDbEntity
  8
S-DIM
 62
4
100
AcDbBlockReference
  2
_ARCHTICK
 10
580.0
 20
250.0
 30
0.0
 41
1.6
 42
1.6
 50
270.0
  0
INSERT
  5
219
330
212
100
AcDbEntity
  8
S-DIM
 62
4
100
AcDbBlockReference
  2
_ARCHTICK
 10
580.0
 20
260.0
 30
0.0
 41
1.6
 42
1.6
 50
90.0
  0
LINE
  5
21B
330
212
100
AcDbEntity
  8
0
 62
4
370
13
100
AcDbLine
 10
580.0
 20
250.0
 30
0.0
 11
580.0
 21
260.0
 31
0.0
  0
MTEXT
  5
21C
330
212
100
AcDbEntity
  8
S-DIM
 62
4
100
AcDbMText
 10
578.3
 20
255.0
 30
0.0
 40
1.8
 71
5
  1
200
  7
OpenSansCondensed-Light
 50
90.0
  0
POINT
  5
21D
330
212
100
AcDbEntity
  8
Defpoints
100
AcDbPoint
 10
580.0
 20
250.0
 30
0.0
  0
POINT
  5
21E
330
212
100
AcDbEntity
  8
Defpoints
100
AcDbPoint
 10
560.0
 20
250.0
 30
0.0
  0
POINT
  5
21F
330
212
100
AcDbEntity
  8
Defpoints
100
AcDbPoint
 10
560.0
 20
260.0
 30
0.0
  0
ENDBLK
  5
214
330
212
100
AcDbEntity
  8
0
100
AcDbBlockEnd
  0
ENDSEC
  0
SECTION
  2
ENTITIES
  0
LWPOLYLINE
  5
B7
330
17
100
AcDbEntity
  8
S-TITLE
100
AcDbPolyline
 90
4
 70
1
 10
0.0
 20
0.0
 10
841.0
 20
0.0
 10
841.0
 20
594.0
 10
0.0
 20
594.0
  0
LWPOLYLINE
  5
B8
330
17
100
AcDbEntity
  8
S-TITLE
100
AcDbPolyline
 90
4
 70
1
 10
10.0
 20
10.0
 10
831.0
 20
10.0
 10
831.0
 20
584.0
 10
10.0
 20
584.0
  0
TEXT
  5
B9
330
17
100
AcDbEntity
  8
S-TITLE
100
AcDbText
 10
12.0
 20
576.5
 30
0.0
 40
5.0
  1
STRUCTURAL CAD - REINFORCEMENT PACKAGE
  7
OpenSans
 11
12.0
 21
576.5
 31
0.0
100
AcDbText
  0
TEXT
  5
BA
330
17
100
AcDbEntity
  8
S-TITLE
100
AcDbText
 10
12.0
 20
569.5
 30
0.0
 40
2.4
  1
R-602   MAIN STAIRCASE SECTIONS
  7
OpenSans
 11
12.0
 21
569.5
 31
0.0
100
AcDbText
  0
LINE
  5
BB
330
17
100
AcDbEntity
  8
S-TITLE
100
AcDbLine
 10
10.0
 20
566.5
 30
0.0
 11
831.0
 21
566.5
 31
0.0
  0
TEXT
  5
BC
330
17
100
AcDbEntity
  8
S-BLAST
100
AcDbText
 10
829.0
 20
577.0
 30
0.0
 40
2.0
  1
SENTRY POST EXCLUDED FROM THIS PACKAGE
  7
OpenSans
 72
2
 11
829.0
 21
577.0
 31
0.0
100
AcDbText
  0
TEXT
  5
BD
330
17
100
AcDbEntity
  8
S-BLAST
100
AcDbText
 10
829.0
 20
570.5
 30
0.0
 40
1.4
  1
ALL DESIGN ACTIONS ARE MANUAL CALCULATION - NOT DIRECT STAAD OUTPUT
  7
OpenSans
 72
2
 11
829.0
 21
570.5
 31
0.0
100
AcDbText
  0
TEXT
  5
BE
330
17
100
AcDbEntity
  8
S-BLAST
100
AcDbText
 10
12.0
 20
561.5
 30
0.0
 40
1.4
  1
OPEN ITEMS ON THIS SHEET:  GEOMETRY FROZEN
  7
OpenSans
 11
12.0
 21
561.5
 31
0.0
100
AcDbText
  0
LWPOLYLINE
  5
BF
330
17
100
AcDbEntity
  8
S-CONCRETE
100
AcDbPolyline
 90
4
 70
1
 10
114.0
 20
202.0
 10
162.0
 20
202.0
 10
162.0
 20
210.0
 10
114.0
 20
210.0
  0
LWPOLYLINE
  5
C0
330
17
100
AcDbEntity
  8
S-CONCRETE
100
AcDbPolyline
 90
4
 70
1
 10
240.4
 20
256.66656
 10
288.4
 20
256.66656
 10
288.4
 20
264.66656
 10
240.4
 20
264.66656
  0
LWPOLYLINE
  5
C1
330
17
100
AcDbEntity
  8
S-CONCRETE
100
AcDbPolyline
 90
4
 70
1
 10
114.0
 20
311.33312
 10
162.0
 20
311.33312
 10
162.0
 20
319.33312
 10
114.0
 20
319.33312
  0
LWPOLYLINE
  5
C2
330
17
100
AcDbEntity
  8
S-CONCRETE
100
AcDbPolyline
 90
4
 70
1
 10
240.4
 20
338.0
 10
314.0
 20
338.0
 10
314.0
 20
374.0
 10
240.4
 20
374.0
  0
HATCH
  5
C3
330
17
100
AcDbEntity
  8
S-HATCH
 62
7
100
AcDbHatch
 10
0.0
 20
0.0
 30
0.0
210
0.0
220
0.0
230
1.0
  2
ANSI31
 70
0
 71
0
 91
1
 92
3
 72
0
 73
1
 93
4
 10
114.0
 20
202.0
 10
162.0
 20
202.0
 10
162.0
 20
210.0
 10
114.0
 20
210.0
 97
0
 75
1
 76
1
 52
0.0
 41
1.6
 77
0
 78
1
 53
45.0
 43
0.0
 44
0.0
 45
-3.5921024485
 46
3.5921024485
 79
0
 98
0
  0
HATCH
  5
C4
330
17
100
AcDbEntity
  8
S-HATCH
 62
7
100
AcDbHatch
 10
0.0
 20
0.0
 30
0.0
210
0.0
220
0.0
230
1.0
  2
ANSI31
 70
0
 71
0
 91
1
 92
3
 72
0
 73
1
 93
4
 10
240.4
 20
256.66656
 10
288.4
 20
256.66656
 10
288.4
 20
264.66656
 10
240.4
 20
264.66656
 97
0
 75
1
 76
1
 52
0.0
 41
1.6
 77
0
 78
1
 53
45.0
 43
0.0
 44
0.0
 45
-3.5921024485
 46
3.5921024485
 79
0
 98
0
  0
HATCH
  5
C5
330
17
100
AcDbEntity
  8
S-HATCH
 62
7
100
AcDbHatch
 10
0.0
 20
0.0
 30
0.0
210
0.0
220
0.0
230
1.0
  2
ANSI31
 70
0
 71
0
 91
1
 92
3
 72
0
 73
1
 93
4
 10
114.0
 20
311.33312
 10
162.0
 20
311.33312
 10
162.0
 20
319.33312
 10
114.0
 20
319.33312
 97
0
 75
1
 76
1
 52
0.0
 41
1.6
 77
0
 78
1
 53
45.0
 43
0.0
 44
0.0
 45
-3.5921024485
 46
3.5921024485
 79
0
 98
0
  0
HATCH
  5
C6
330
17
100
AcDbEntity
  8
S-HATCH
 62
7
100
AcDbHatch
 10
0.0
 20
0.0
 30
0.0
210
0.0
220
0.0
230
1.0
  2
ANSI31
 70
0
 71
0
 91
1
 92
3
 72
0
 73
1
 93
4
 10
240.4
 20
338.0
 10
314.0
 20
338.0
 10
314.0
 20
374.0
 10
240.4
 20
374.0
 97
0
 75
1
 76
1
 52
0.0
 41
1.6
 77
0
 78
1
 53
45.0
 43
0.0
 44
0.0
 45
-3.5921024485
 46
3.5921024485
 79
0
 98
0
  0
LWPOLYLINE
  5
C7
330
17
100
AcDbEntity
  8
S-CONCRETE
100
AcDbPolyline
 90
4
 70
1
 10
162.0
 20
210.0
 10
240.4
 20
264.66656
 10
240.4
 20
255.46656000000002
 10
162.0
 20
200.8
  0
HATCH
  5
C8
330
17
100
AcDbEntity
  8
S-HATCH
 62
7
100
AcDbHatch
 10
0.0
 20
0.0
 30
0.0
210
0.0
220
0.0
230
1.0
  2
ANSI31
 70
0
 71
0
 91
1
 92
3
 72
0
 73
1
 93
4
 10
162.0
 20
210.0
 10
240.4
 20
264.66656
 10
240.4
 20
255.46656000000002
 10
162.0
 20
200.8
 97
0
 75
1
 76
1
 52
0.0
 41
1.6
 77
0
 78
1
 53
45.0
 43
0.0
 44
0.0
 45
-3.5921024485
 46
3.5921024485
 79
0
 98
0
  0
LINE
  5
C9
330
17
100
AcDbEntity
  8
S-CONCRETE-THIN
100
AcDbLine
 10
162.0
 20
210.0
 30
0.0
 11
162.0
 21
216.833332
 31
0.0
  0
LINE
  5
CA
330
17
100
AcDbEntity
  8
S-CONCRETE-THIN
100
AcDbLine
 10
162.0
 20
216.833332
 30
0.0
 11
173.2
 21
216.833332
 31
0.0
  0
LINE
  5
CB
330
17
100
AcDbEntity
  8
S-CONCRETE-THIN
100
AcDbLine
 10
171.8
 20
216.83332
 30
0.0
 11
171.8
 21
223.666652
 31
0.0
  0
LINE
  5
CC
330
17
100
AcDbEntity
  8
S-CONCRETE-THIN
100
AcDbLine
 10
171.8
 20
223.666652
 30
0.0
 11
183.0
 21
223.666652
 31
0.0
  0
LINE
  5
CD
330
17
100
AcDbEntity
  8
S-CONCRETE-THIN
100
AcDbLine
 10
181.6
 20
223.66664
 30
0.0
 11
181.6
 21
230.499972
 31
0.0
  0
LINE
  5
CE
330
17
100
AcDbEntity
  8
S-CONCRETE-THIN
100
AcDbLine
 10
181.6
 20
230.499972
 30
0.0
 11
192.8
 21
230.499972
 31
0.0
  0
LINE
  5
CF
330
17
100
AcDbEntity
  8
S-CONCRETE-THIN
100
AcDbLine
 10
191.4
 20
230.49996
 30
0.0
 11
191.4
 21
237.333292
 31
0.0
  0
LINE
  5
D0
330
17
100
AcDbEntity
  8
S-CONCRETE-THIN
100
AcDbLine
 10
191.4
 20
237.333292
 30
0.0
 11
202.6
 21
237.333292
 31
0.0
  0
LINE
  5
D1
330
17
100
AcDbEntity
  8
S-CONCRETE-THIN
100
AcDbLine
 10
201.2
 20
237.33328
 30
0.0
 11
201.2
 21
244.166612
 31
0.0
  0
LINE
  5
D2
330
17
100
AcDbEntity
  8
S-CONCRETE-THIN
100
AcDbLine
 10
201.2
 20
244.166612
 30
0.0
 11
212.4
 21
244.166612
 31
0.0
  0
LINE
  5
D3
330
17
100
AcDbEntity
  8
S-CONCRETE-THIN
100
AcDbLine
 10
211.0
 20
244.1666
 30
0.0
 11
211.0
 21
250.999932
 31
0.0
  0
LINE
  5
D4
330
17
100
AcDbEntity
  8
S-CONCRETE-THIN
100
AcDbLine
 10
211.0
 20
250.999932
 30
0.0
 11
222.2
 21
250.999932
 31
0.0
  0
LINE
  5
D5
330
17
100
AcDbEntity
  8
S-CONCRETE-THIN
100
AcDbLine
 10
220.8
 20
250.99992
 30
0.0
 11
220.8
 21
257.833252
 31
0.0
  0
LINE
  5
D6
330
17
100
AcDbEntity
  8
S-CONCRETE-THIN
100
AcDbLine
 10
220.8
 20
257.833252
 30
0.0
 11
232.0
 21
257.833252
 31
0.0
  0
LINE
  5
D7
330
17
100
AcDbEntity
  8
S-CONCRETE-THIN
100
AcDbLine
 10
230.6
 20
257.83324
 30
0.0
 11
230.6
 21
264.666572
 31
0.0
  0
LINE
  5
D8
330
17
100
AcDbEntity
  8
S-CONCRETE-THIN
100
AcDbLine
 10
230.6
 20
264.666572
 30
0.0
 11
241.8
 21
264.666572
 31
0.0
  0
LWPOLYLINE
  5
D9
330
17
100
AcDbEntity
  8
S-REBAR-MAIN
100
AcDbPolyline
 90
2
 70
0
 10
162.0
 20
204.8
 10
240.4
 20
259.46656
  0
LWPOLYLINE
  5
DA
330
17
100
AcDbEntity
  8
S-REBAR-SEC
100
AcDbPolyline
 90
2
 70
0
 10
162.0
 20
208.4
 10
194.0
 20
230.71288163265305
  0
LWPOLYLINE
  5
DB
330
17
100
AcDbEntity
  8
S-REBAR-SEC
100
AcDbPolyline
 90
2
 70
0
 10
240.4
 20
263.06656
 10
208.4
 20
240.75367836734694
  0
LWPOLYLINE
  5
DC
330
17
100
AcDbEntity
  8
S-CONCRETE
100
AcDbPolyline
 90
4
 70
1
 10
240.4
 20
264.66656
 10
162.0
 20
319.33312
 10
162.0
 20
310.13312
 10
240.4
 20
255.46656000000002
  0
HATCH
  5
DD
330
17
100
AcDbEntity
  8
S-HATCH
 62
7
100
AcDbHatch
 10
0.0
 20
0.0
 30
0.0
210
0.0
220
0.0
230
1.0
  2
ANSI31
 70
0
 71
0
 91
1
 92
3
 72
0
 73
1
 93
4
 10
240.4
 20
264.66656
 10
162.0
 20
319.33312
 10
162.0
 20
310.13312
 10
240.4
 20
255.46656000000002
 97
0
 75
1
 76
1
 52
0.0
 41
1.6
 77
0
 78
1
 53
45.0
 43
0.0
 44
0.0
 45
-3.5921024485
 46
3.5921024485
 79
0
 98
0
  0
LINE
  5
DE
330
17
100
AcDbEntity
  8
S-CONCRETE-THIN
100
AcDbLine
 10
240.4
 20
264.66656
 30
0.0
 11
240.4
 21
271.499892
 31
0.0
  0
LINE
  5
DF
330
17
100
AcDbEntity
  8
S-CONCRETE-THIN
100
AcDbLine
 10
240.4
 20
271.499892
 30
0.0
 11
229.2
 21
271.499892
 31
0.0
  0
LINE
  5
E0
330
17
100
AcDbEntity
  8
S-CONCRETE-THIN
100
AcDbLine
 10
230.6
 20
271.49988
 30
0.0
 11
230.6
 21
278.333212
 31
0.0
  0
LINE
  5
E1
330
17
100
AcDbEntity
  8
S-CONCRETE-THIN
100
AcDbLine
 10
230.6
 20
278.333212
 30
0.0
 11
219.4
 21
278.333212
 31
0.0
  0
LINE
  5
E2
330
17
100
AcDbEntity
  8
S-CONCRETE-THIN
100
AcDbLine
 10
220.8
 20
278.3332
 30
0.0
 11
220.8
 21
285.166532
 31
0.0
  0
LINE
  5
E3
330
17
100
AcDbEntity
  8
S-CONCRETE-THIN
100
AcDbLine
 10
220.8
 20
285.166532
 30
0.0
 11
209.6
 21
285.166532
 31
0.0
  0
LINE
  5
E4
330
17
100
AcDbEntity
  8
S-CONCRETE-THIN
100
AcDbLine
 10
211.0
 20
285.16652
 30
0.0
 11
211.0
 21
291.999852
 31
0.0
  0
LINE
  5
E5
330
17
100
AcDbEntity
  8
S-CONCRETE-THIN
100
AcDbLine
 10
211.0
 20
291.999852
 30
0.0
 11
199.8
 21
291.999852
 31
0.0
  0
LINE
  5
E6
330
17
100
AcDbEntity
  8
S-CONCRETE-THIN
100
AcDbLine
 10
201.2
 20
291.99984
 30
0.0
 11
201.2
 21
298.833172
 31
0.0
  0
LINE
  5
E7
330
17
100
AcDbEntity
  8
S-CONCRETE-THIN
100
AcDbLine
 10
201.2
 20
298.833172
 30
0.0
 11
190.0
 21
298.833172
 31
0.0
  0
LINE
  5
E8
330
17
100
AcDbEntity
  8
S-CONCRETE-THIN
100
AcDbLine
 10
191.4
 20
298.83316
 30
0.0
 11
191.4
 21
305.666492
 31
0.0
  0
LINE
  5
E9
330
17
100
AcDbEntity
  8
S-CONCRETE-THIN
100
AcDbLine
 10
191.4
 20
305.666492
 30
0.0
 11
180.2
 21
305.666492
 31
0.0
  0
LINE
  5
EA
330
17
100
AcDbEntity
  8
S-CONCRETE-THIN
100
AcDbLine
 10
181.6
 20
305.66648
 30
0.0
 11
181.6
 21
312.499812
 31
0.0
  0
LINE
  5
EB
330
17
100
AcDbEntity
  8
S-CONCRETE-THIN
100
AcDbLine
 10
181.6
 20
312.499812
 30
0.0
 11
170.4
 21
312.499812
 31
0.0
  0
LINE
  5
EC
330
17
100
AcDbEntity
  8
S-CONCRETE-THIN
100
AcDbLine
 10
171.8
 20
312.4998
 30
0.0
 11
171.8
 21
319.333132
 31
0.0
  0
LINE
  5
ED
330
17
100
AcDbEntity
  8
S-CONCRETE-THIN
100
AcDbLine
 10
171.8
 20
319.333132
 30
0.0
 11
160.6
 21
319.333132
 31
0.0
  0
LWPOLYLINE
  5
EE
330
17
100
AcDbEntity
  8
S-REBAR-MAIN
100
AcDbPolyline
 90
2
 70
0
 10
240.4
 20
259.46656
 10
162.0
 20
314.13312
  0
LWPOLYLINE
  5
EF
330
17
100
AcDbEntity
  8
S-REBAR-SEC
100
AcDbPolyline
 90
2
 70
0
 10
240.4
 20
263.06656
 10
208.4
 20
285.3794416326531
  0
LWPOLYLINE
  5
F0
330
17
100
AcDbEntity
  8
S-REBAR-SEC
100
AcDbPolyline
 90
2
 70
0
 10
162.0
 20
317.73312
 10
194.0
 20
295.42023836734694
  0
LWPOLYLINE
  5
F1
330
17
100
AcDbEntity
  8
S-CONCRETE
100
AcDbPolyline
 90
4
 70
1
 10
162.0
 20
319.33312
 10
240.4
 20
374.0
 10
240.4
 20
364.8
 10
162.0
 20
310.13312
  0
HATCH
  5
F2
330
17
100
AcDbEntity
  8
S-HATCH
 62
7
100
AcDbHatch
 10
0.0
 20
0.0
 30
0.0
210
0.0
220
0.0
230
1.0
  2
ANSI31
 70
0
 71
0
 91
1
 92
3
 72
0
 73
1
 93
4
 10
162.0
 20
319.33312
 10
240.4
 20
374.0
 10
240.4
 20
364.8
 10
162.0
 20
310.13312
 97
0
 75
1
 76
1
 52
0.0
 41
1.6
 77
0
 78
1
 53
45.0
 43
0.0
 44
0.0
 45
-3.5921024485
 46
3.5921024485
 79
0
 98
0
  0
LINE
  5
F3
330
17
100
AcDbEntity
  8
S-CONCRETE-THIN
100
AcDbLine
 10
162.0
 20
319.33312
 30
0.0
 11
162.0
 21
326.166452
 31
0.0
  0
LINE
  5
F4
330
17
100
AcDbEntity
  8
S-CONCRETE-THIN
100
AcDbLine
 10
162.0
 20
326.166452
 30
0.0
 11
173.2
 21
326.166452
 31
0.0
  0
LINE
  5
F5
330
17
100
AcDbEntity
  8
S-CONCRETE-THIN
100
AcDbLine
 10
171.8
 20
326.16648
 30
0.0
 11
171.8
 21
332.99981199999996
 31
0.0
  0
LINE
  5
F6
330
17
100
AcDbEntity
  8
S-CONCRETE-THIN
100
AcDbLine
 10
171.8
 20
332.99981199999996
 30
0.0
 11
183.0
 21
332.99981199999996
 31
0.0
  0
LINE
  5
F7
330
17
100
AcDbEntity
  8
S-CONCRETE-THIN
100
AcDbLine
 10
181.6
 20
332.99984
 30
0.0
 11
181.6
 21
339.833172
 31
0.0
  0
LINE
  5
F8
330
17
100
AcDbEntity
  8
S-CONCRETE-THIN
100
AcDbLine
 10
181.6
 20
339.833172
 30
0.0
 11
192.8
 21
339.833172
 31
0.0
  0
LINE
  5
F9
330
17
100
AcDbEntity
  8
S-CONCRETE-THIN
100
AcDbLine
 10
191.4
 20
339.83320000000003
 30
0.0
 11
191.4
 21
346.666532
 31
0.0
  0
LINE
  5
FA
330
17
100
AcDbEntity
  8
S-CONCRETE-THIN
100
AcDbLine
 10
191.4
 20
346.666532
 30
0.0
 11
202.6
 21
346.666532
 31
0.0
  0
LINE
  5
FB
330
17
100
AcDbEntity
  8
S-CONCRETE-THIN
100
AcDbLine
 10
201.2
 20
346.66656
 30
0.0
 11
201.2
 21
353.499892
 31
0.0
  0
LINE
  5
FC
330
17
100
AcDbEntity
  8
S-CONCRETE-THIN
100
AcDbLine
 10
201.2
 20
353.499892
 30
0.0
 11
212.4
 21
353.499892
 31
0.0
  0
LINE
  5
FD
330
17
100
AcDbEntity
  8
S-CONCRETE-THIN
100
AcDbLine
 10
211.0
 20
353.49992
 30
0.0
 11
211.0
 21
360.333252
 31
0.0
  0
LINE
  5
FE
330
17
100
AcDbEntity
  8
S-CONCRETE-THIN
100
AcDbLine
 10
211.0
 20
360.333252
 30
0.0
 11
222.2
 21
360.333252
 31
0.0
  0
LINE
  5
FF
330
17
100
AcDbEntity
  8
S-CONCRETE-THIN
100
AcDbLine
 10
220.8
 20
360.33328
 30
0.0
 11
220.8
 21
367.166612
 31
0.0
  0
LINE
  5
100
330
17
100
AcDbEntity
  8
S-CONCRETE-THIN
100
AcDbLine
 10
220.8
 20
367.166612
 30
0.0
 11
232.0
 21
367.166612
 31
0.0
  0
LINE
  5
101
330
17
100
AcDbEntity
  8
S-CONCRETE-THIN
100
AcDbLine
 10
230.6
 20
367.16664000000003
 30
0.0
 11
230.6
 21
373.999972
 31
0.0
  0
LINE
  5
102
330
17
100
AcDbEntity
  8
S-CONCRETE-THIN
100
AcDbLine
 10
230.6
 20
373.999972
 30
0.0
 11
241.8
 21
373.999972
 31
0.0
  0
LWPOLYLINE
  5
103
330
17
100
AcDbEntity
  8
S-REBAR-MAIN
100
AcDbPolyline
 90
2
 70
0
 10
162.0
 20
314.13312
 10
240.4
 20
368.8
  0
LWPOLYLINE
  5
104
330
17
100
AcDbEntity
  8
S-REBAR-SEC
100
AcDbPolyline
 90
2
 70
0
 10
162.0
 20
317.73312
 10
194.0
 20
340.046132244898
  0
LWPOLYLINE
  5
105
330
17
100
AcDbEntity
  8
S-REBAR-SEC
100
AcDbPolyline
 90
2
 70
0
 10
240.4
 20
372.4
 10
208.4
 20
350.08698775510203
  0
INSERT
  5
106
330
17
100
AcDbEntity
  8
S-LEVEL
100
AcDbBlockReference
  2
LEVELMK
 10
138.0
 20
210.0
 30
0.0
  0
TEXT
  5
108
330
17
100
AcDbEntity
  8
S-LEVEL
100
AcDbText
 10
141.0
 20
213.2
 30
0.0
 40
1.8
  1
(-)6.100 ARRIVAL
  7
OpenSans
 11
141.0
 21
213.2
 31
0.0
100
AcDbText
  0
INSERT
  5
109
330
17
100
AcDbEntity
  8
S-LEVEL
100
AcDbBlockReference
  2
LEVELMK
 10
264.4
 20
264.66656
 30
0.0
  0
TEXT
  5
10B
330
17
100
AcDbEntity
  8
S-LEVEL
100
AcDbText
 10
267.4
 20
267.86656
 30
0.0
 40
1.8
  1
(-)4.7333 L1
  7
OpenSans
 11
267.4
 21
267.86656
 31
0.0
100
AcDbText
  0
INSERT
  5
10C
330
17
100
AcDbEntity
  8
S-LEVEL
100
AcDbBlockReference
  2
LEVELMK
 10
138.0
 20
319.33312
 30
0.0
  0
TEXT
  5
10E
330
17
100
AcDbEntity
  8
S-LEVEL
100
AcDbText
 10
141.0
 20
322.53312
 30
0.0
 40
1.8
  1
(-)3.3667 L2
  7
OpenSans
 11
141.0
 21
322.53312
 31
0.0
100
AcDbText
  0
INSERT
  5
10F
330
17
100
AcDbEntity
  8
S-LEVEL
100
AcDbBlockReference
  2
LEVELMK
 10
274.0
 20
374.0
 30
0.0
  0
TEXT
  5
111
330
17
100
AcDbEntity
  8
S-LEVEL
100
AcDbText
 10
277.0
 20
377.2
 30
0.0
 40
1.8
  1
(-)2.000
  7
OpenSans
 11
277.0
 21
377.2
 31
0.0
100
AcDbText
  0
DIMENSION
  5
112
330
17
100
AcDbEntity
  8
S-DIM
100
AcDbDimension
280
0
  2
*D1
  3
SC-DIM
 10
98.0
 20
210.0
 30
0.0
 11
96.3
 21
237.33328
 31
0.0
 70
32
 71
5
  1
<>
100
AcDbAlignedDimension
 13
114.0
 23
210.0
 33
0.0
 14
114.0
 24
264.66656
 34
0.0
 50
90.0
100
AcDbRotatedDimension
1001
ACAD
1000
DSTYLE
1002
{
1070
144
1040
25.0
1002
}
  0
DIMENSION
  5
121
330
17
100
AcDbEntity
  8
S-DIM
100
AcDbDimension
280
0
  2
*D2
  3
SC-DIM
 10
98.0
 20
264.66656
 30
0.0
 11
96.3
 21
291.99984
 31
0.0
 70
32
 71
5
  1
<>
100
AcDbAlignedDimension
 13
114.0
 23
264.66656
 33
0.0
 14
114.0
 24
319.33312
 34
0.0
 50
90.0
100
AcDbRotatedDimension
1001
ACAD
1000
DSTYLE
1002
{
1070
144
1040
25.0
1002
}
  0
DIMENSION
  5
130
330
17
100
AcDbEntity
  8
S-DIM
100
AcDbDimension
280
0
  2
*D3
  3
SC-DIM
 10
98.0
 20
319.33312
 30
0.0
 11
96.3
 21
346.66656
 31
0.0
 70
32
 71
5
  1
<>
100
AcDbAlignedDimension
 13
114.0
 23
319.33312
 33
0.0
 14
114.0
 24
374.0
 34
0.0
 50
90.0
100
AcDbRotatedDimension
1001
ACAD
1000
DSTYLE
1002
{
1070
144
1040
25.0
1002
}
  0
DIMENSION
  5
13F
330
17
100
AcDbEntity
  8
S-DIM
100
AcDbDimension
280
0
  2
*D4
  3
SC-DIM
 10
346.0
 20
210.0
 30
0.0
 11
344.3
 21
292.0
 31
0.0
 70
32
 71
5
  1
<>
100
AcDbAlignedDimension
 13
330.0
 23
210.0
 33
0.0
 14
330.0
 24
374.0
 34
0.0
 50
90.0
100
AcDbRotatedDimension
1001
ACAD
1000
DSTYLE
1002
{
1070
144
1040
25.0
1002
}
  0
DIMENSION
  5
14E
330
17
100
AcDbEntity
  8
S-DIM
100
AcDbDimension
280
0
  2
*D5
  3
SC-DIM
 10
162.0
 20
174.0
 30
0.0
 11
201.2
 21
175.7
 31
0.0
 70
32
 71
5
  1
<>
100
AcDbAlignedDimension
 13
162.0
 23
202.0
 33
0.0
 14
240.4
 24
202.0
 34
0.0
 50
0.0
100
AcDbRotatedDimension
1001
ACAD
1000
DSTYLE
1002
{
1070
144
1040
25.0
1002
}
  0
TEXT
  5
15D
330
17
100
AcDbEntity
  8
S-TEXT
100
AcDbText
 10
114.0
 20
146.0
 30
0.0
 40
1.4
  1
8R @ 170.8333 = 1366.664 PER FLIGHT   ·   TOTAL RISE 4100   ·   TREAD 280
  7
OpenSans
 11
114.0
 21
146.0
 31
0.0
100
AcDbText
  0
TEXT
  5
15E
330
17
100
AcDbEntity
  8
S-TEXT
100
AcDbText
 10
194.0
 20
347.33312
 30
0.0
 40
1.4
  1
HEADROOM 2533
  7
OpenSans
 11
194.0
 21
347.33312
 31
0.0
100
AcDbText
  0
INSERT
  5
15F
330
17
100
AcDbEntity
  8
S-CALLOUT
100
AcDbBlockReference
  2
BARMARK
 10
160.0
 20
300.0
 30
0.0
  0
TEXT
  5
161
330
17
100
AcDbEntity
  8
S-CALLOUT
100
AcDbText
 10
160.0
 20
300.0
 30
0.0
 40
2.0
  1
ST01
  7
OpenSans
 72
1
 11
160.0
 21
300.0
 31
0.0
100
AcDbText
 73
2
  0
LEADER
  5
162
330
17
100
AcDbEntity
  8
S-CALLOUT
100
AcDbLeader
  3
SC-DIM
 73
3
 76
2
 10
194.0
 20
232.13328
 30
0.0
 10
160.0
 20
300.0
 30
0.0
  0
INSERT
  5
163
330
17
100
AcDbEntity
  8
S-CALLOUT
100
AcDbBlockReference
  2
BARMARK
 10
250.0
 20
420.0
 30
0.0
  0
TEXT
  5
165
330
17
100
AcDbEntity
  8
S-CALLOUT
100
AcDbText
 10
250.0
 20
420.0
 30
0.0
 40
2.0
  1
ST03
  7
OpenSans
 72
1
 11
250.0
 21
420.0
 31
0.0
100
AcDbText
 73
2
  0
LEADER
  5
166
330
17
100
AcDbEntity
  8
S-CALLOUT
100
AcDbLeader
  3
SC-DIM
 73
3
 76
2
 10
258.0
 20
331.33312
 30
0.0
 10
250.0
 20
420.0
 30
0.0
  0
INSERT
  5
167
330
17
100
AcDbEntity
  8
S-CALLOUT
100
AcDbBlockReference
  2
BARMARK
 10
110.0
 20
268.0
 30
0.0
  0
TEXT
  5
169
330
17
100
AcDbEntity
  8
S-CALLOUT
100
AcDbText
 10
110.0
 20
268.0
 30
0.0
 40
2.0
  1
ST04
  7
OpenSans
 72
1
 11
110.0
 21
268.0
 31
0.0
100
AcDbText
 73
2
  0
LEADER
  5
16A
330
17
100
AcDbEntity
  8
S-CALLOUT
100
AcDbLeader
  3
SC-DIM
 73
3
 76
2
 10
138.0
 20
204.4
 30
0.0
 10
110.0
 20
268.0
 30
0.0
  0
TEXT
  5
16B
330
17
100
AcDbEntity
  8
S-TITLE
100
AcDbText
 10
84.0
 20
552.0
 30
0.0
 40
3.5
  1
V1   SECTION A-A  -  MAIN STAIRCASE, LONGITUDINAL
  7
OpenSans
 11
84.0
 21
552.0
 31
0.0
100
AcDbText
  0
LINE
  5
16C
330
17
100
AcDbEntity
  8
S-TITLE
100
AcDbLine
 10
84.0
 20
550.2
 30
0.0
 11
213.77193569993304
 21
550.2
 31
0.0
  0
TEXT
  5
16D
330
17
100
AcDbEntity
  8
S-TEXT
100
AcDbText
 10
84.0
 20
544.8
 30
0.0
 40
2.0
  1
SCALE 1:25
  7
OpenSans
 11
84.0
 21
544.8
 31
0.0
100
AcDbText
  0
LWPOLYLINE
  5
16E
330
17
100
AcDbEntity
  8
S-CONCRETE
100
AcDbPolyline
 90
4
 70
1
 10
380.0
 20
300.0
 10
500.0
 20
300.0
 10
500.0
 20
320.0
 10
380.0
 20
320.0
  0
HATCH
  5
16F
330
17
100
AcDbEntity
  8
S-HATCH
 62
7
100
AcDbHatch
 10
0.0
 20
0.0
 30
0.0
210
0.0
220
0.0
230
1.0
  2
ANSI31
 70
0
 71
0
 91
1
 92
3
 72
0
 73
1
 93
4
 10
380.0
 20
300.0
 10
500.0
 20
300.0
 10
500.0
 20
320.0
 10
380.0
 20
320.0
 97
0
 75
1
 76
1
 52
0.0
 41
1.6
 77
0
 78
1
 53
45.0
 43
0.0
 44
0.0
 45
-3.5921024485
 46
3.5921024485
 79
0
 98
0
  0
CIRCLE
  5
170
330
17
100
AcDbEntity
  8
S-REBAR-MAIN
100
AcDbCircle
 10
383.6
 20
303.6
 30
0.0
 40
1.1
  0
HATCH
  5
171
330
17
100
AcDbEntity
  8
S-REBAR-MAIN
 62
1
100
AcDbHatch
 10
0.0
 20
0.0
 30
0.0
210
0.0
220
0.0
230
1.0
  2
SOLID
 70
1
 71
0
 91
1
 92
3
 72
0
 73
1
 93
16
 10
384.70000000000005
 20
303.6
 10
384.6162674857624
 20
304.02095177560165
 10
384.3778174593052
 20
304.3778174593052
 10
384.02095177560165
 20
304.6162674857624
 10
383.6
 20
304.70000000000005
 10
383.1790482243984
 20
304.6162674857624
 10
382.8221825406948
 20
304.3778174593052
 10
382.5837325142376
 20
304.02095177560165
 10
382.5
 20
303.6
 10
382.5837325142376
 20
303.1790482243984
 10
382.8221825406948
 20
302.8221825406948
 10
383.1790482243984
 20
302.5837325142376
 10
383.6
 20
302.5
 10
384.02095177560165
 20
302.5837325142376
 10
384.3778174593052
 20
302.8221825406948
 10
384.6162674857624
 20
303.1790482243984
 97
0
 75
0
 76
1
 98
0
  0
CIRCLE
  5
172
330
17
100
AcDbEntity
  8
S-REBAR-MAIN
100
AcDbCircle
 10
398.6
 20
303.6
 30
0.0
 40
1.1
  0
HATCH
  5
173
330
17
100
AcDbEntity
  8
S-REBAR-MAIN
 62
1
100
AcDbHatch
 10
0.0
 20
0.0
 30
0.0
210
0.0
220
0.0
230
1.0
  2
SOLID
 70
1
 71
0
 91
1
 92
3
 72
0
 73
1
 93
16
 10
399.70000000000005
 20
303.6
 10
399.6162674857624
 20
304.02095177560165
 10
399.3778174593052
 20
304.3778174593052
 10
399.02095177560165
 20
304.6162674857624
 10
398.6
 20
304.70000000000005
 10
398.1790482243984
 20
304.6162674857624
 10
397.8221825406948
 20
304.3778174593052
 10
397.5837325142376
 20
304.02095177560165
 10
397.5
 20
303.6
 10
397.5837325142376
 20
303.1790482243984
 10
397.8221825406948
 20
302.8221825406948
 10
398.1790482243984
 20
302.5837325142376
 10
398.6
 20
302.5
 10
399.02095177560165
 20
302.5837325142376
 10
399.3778174593052
 20
302.8221825406948
 10
399.6162674857624
 20
303.1790482243984
 97
0
 75
0
 76
1
 98
0
  0
CIRCLE
  5
174
330
17
100
AcDbEntity
  8
S-REBAR-MAIN
100
AcDbCircle
 10
413.6
 20
303.6
 30
0.0
 40
1.1
  0
HATCH
  5
175
330
17
100
AcDbEntity
  8
S-REBAR-MAIN
 62
1
100
AcDbHatch
 10
0.0
 20
0.0
 30
0.0
210
0.0
220
0.0
230
1.0
  2
SOLID
 70
1
 71
0
 91
1
 92
3
 72
0
 73
1
 93
16
 10
414.70000000000005
 20
303.6
 10
414.6162674857624
 20
304.02095177560165
 10
414.3778174593052
 20
304.3778174593052
 10
414.02095177560165
 20
304.6162674857624
 10
413.6
 20
304.70000000000005
 10
413.1790482243984
 20
304.6162674857624
 10
412.8221825406948
 20
304.3778174593052
 10
412.5837325142376
 20
304.02095177560165
 10
412.5
 20
303.6
 10
412.5837325142376
 20
303.1790482243984
 10
412.8221825406948
 20
302.8221825406948
 10
413.1790482243984
 20
302.5837325142376
 10
413.6
 20
302.5
 10
414.02095177560165
 20
302.5837325142376
 10
414.3778174593052
 20
302.8221825406948
 10
414.6162674857624
 20
303.1790482243984
 97
0
 75
0
 76
1
 98
0
  0
CIRCLE
  5
176
330
17
100
AcDbEntity
  8
S-REBAR-MAIN
100
AcDbCircle
 10
428.6
 20
303.6
 30
0.0
 40
1.1
  0
HATCH
  5
177
330
17
100
AcDbEntity
  8
S-REBAR-MAIN
 62
1
100
AcDbHatch
 10
0.0
 20
0.0
 30
0.0
210
0.0
220
0.0
230
1.0
  2
SOLID
 70
1
 71
0
 91
1
 92
3
 72
0
 73
1
 93
16
 10
429.70000000000005
 20
303.6
 10
429.6162674857624
 20
304.02095177560165
 10
429.3778174593052
 20
304.3778174593052
 10
429.02095177560165
 20
304.6162674857624
 10
428.6
 20
304.70000000000005
 10
428.1790482243984
 20
304.6162674857624
 10
427.8221825406948
 20
304.3778174593052
 10
427.5837325142376
 20
304.02095177560165
 10
427.5
 20
303.6
 10
427.5837325142376
 20
303.1790482243984
 10
427.8221825406948
 20
302.8221825406948
 10
428.1790482243984
 20
302.5837325142376
 10
428.6
 20
302.5
 10
429.02095177560165
 20
302.5837325142376
 10
429.3778174593052
 20
302.8221825406948
 10
429.6162674857624
 20
303.1790482243984
 97
0
 75
0
 76
1
 98
0
  0
CIRCLE
  5
178
330
17
100
AcDbEntity
  8
S-REBAR-MAIN
100
AcDbCircle
 10
443.6
 20
303.6
 30
0.0
 40
1.1
  0
HATCH
  5
179
330
17
100
AcDbEntity
  8
S-REBAR-MAIN
 62
1
100
AcDbHatch
 10
0.0
 20
0.0
 30
0.0
210
0.0
220
0.0
230
1.0
  2
SOLID
 70
1
 71
0
 91
1
 92
3
 72
0
 73
1
 93
16
 10
444.70000000000005
 20
303.6
 10
444.6162674857624
 20
304.02095177560165
 10
444.3778174593052
 20
304.3778174593052
 10
444.02095177560165
 20
304.6162674857624
 10
443.6
 20
304.70000000000005
 10
443.1790482243984
 20
304.6162674857624
 10
442.8221825406948
 20
304.3778174593052
 10
442.5837325142376
 20
304.02095177560165
 10
442.5
 20
303.6
 10
442.5837325142376
 20
303.1790482243984
 10
442.8221825406948
 20
302.8221825406948
 10
443.1790482243984
 20
302.5837325142376
 10
443.6
 20
302.5
 10
444.02095177560165
 20
302.5837325142376
 10
444.3778174593052
 20
302.8221825406948
 10
444.6162674857624
 20
303.1790482243984
 97
0
 75
0
 76
1
 98
0
  0
CIRCLE
  5
17A
330
17
100
AcDbEntity
  8
S-REBAR-MAIN
100
AcDbCircle
 10
458.6
 20
303.6
 30
0.0
 40
1.1
  0
HATCH
  5
17B
330
17
100
AcDbEntity
  8
S-REBAR-MAIN
 62
1
100
AcDbHatch
 10
0.0
 20
0.0
 30
0.0
210
0.0
220
0.0
230
1.0
  2
SOLID
 70
1
 71
0
 91
1
 92
3
 72
0
 73
1
 93
16
 10
459.70000000000005
 20
303.6
 10
459.6162674857624
 20
304.02095177560165
 10
459.3778174593052
 20
304.3778174593052
 10
459.02095177560165
 20
304.6162674857624
 10
458.6
 20
304.70000000000005
 10
458.1790482243984
 20
304.6162674857624
 10
457.8221825406948
 20
304.3778174593052
 10
457.5837325142376
 20
304.02095177560165
 10
457.5
 20
303.6
 10
457.5837325142376
 20
303.1790482243984
 10
457.8221825406948
 20
302.8221825406948
 10
458.1790482243984
 20
302.5837325142376
 10
458.6
 20
302.5
 10
459.02095177560165
 20
302.5837325142376
 10
459.3778174593052
 20
302.8221825406948
 10
459.6162674857624
 20
303.1790482243984
 97
0
 75
0
 76
1
 98
0
  0
CIRCLE
  5
17C
330
17
100
AcDbEntity
  8
S-REBAR-MAIN
100
AcDbCircle
 10
473.6
 20
303.6
 30
0.0
 40
1.1
  0
HATCH
  5
17D
330
17
100
AcDbEntity
  8
S-REBAR-MAIN
 62
1
100
AcDbHatch
 10
0.0
 20
0.0
 30
0.0
210
0.0
220
0.0
230
1.0
  2
SOLID
 70
1
 71
0
 91
1
 92
3
 72
0
 73
1
 93
16
 10
474.70000000000005
 20
303.6
 10
474.6162674857624
 20
304.02095177560165
 10
474.3778174593052
 20
304.3778174593052
 10
474.02095177560165
 20
304.6162674857624
 10
473.6
 20
304.70000000000005
 10
473.1790482243984
 20
304.6162674857624
 10
472.8221825406948
 20
304.3778174593052
 10
472.5837325142376
 20
304.02095177560165
 10
472.5
 20
303.6
 10
472.5837325142376
 20
303.1790482243984
 10
472.8221825406948
 20
302.8221825406948
 10
473.1790482243984
 20
302.5837325142376
 10
473.6
 20
302.5
 10
474.02095177560165
 20
302.5837325142376
 10
474.3778174593052
 20
302.8221825406948
 10
474.6162674857624
 20
303.1790482243984
 97
0
 75
0
 76
1
 98
0
  0
CIRCLE
  5
17E
330
17
100
AcDbEntity
  8
S-REBAR-MAIN
100
AcDbCircle
 10
488.6
 20
303.6
 30
0.0
 40
1.1
  0
HATCH
  5
17F
330
17
100
AcDbEntity
  8
S-REBAR-MAIN
 62
1
100
AcDbHatch
 10
0.0
 20
0.0
 30
0.0
210
0.0
220
0.0
230
1.0
  2
SOLID
 70
1
 71
0
 91
1
 92
3
 72
0
 73
1
 93
16
 10
489.70000000000005
 20
303.6
 10
489.6162674857624
 20
304.02095177560165
 10
489.3778174593052
 20
304.3778174593052
 10
489.02095177560165
 20
304.6162674857624
 10
488.6
 20
304.70000000000005
 10
488.1790482243984
 20
304.6162674857624
 10
487.8221825406948
 20
304.3778174593052
 10
487.5837325142376
 20
304.02095177560165
 10
487.5
 20
303.6
 10
487.5837325142376
 20
303.1790482243984
 10
487.8221825406948
 20
302.8221825406948
 10
488.1790482243984
 20
302.5837325142376
 10
488.6
 20
302.5
 10
489.02095177560165
 20
302.5837325142376
 10
489.3778174593052
 20
302.8221825406948
 10
489.6162674857624
 20
303.1790482243984
 97
0
 75
0
 76
1
 98
0
  0
CIRCLE
  5
180
330
17
100
AcDbEntity
  8
S-REBAR-DIST
100
AcDbCircle
 10
390.0
 20
316.4
 30
0.0
 40
1.0
  0
HATCH
  5
181
330
17
100
AcDbEntity
  8
S-REBAR-DIST
 62
3
100
AcDbHatch
 10
0.0
 20
0.0
 30
0.0
210
0.0
220
0.0
230
1.0
  2
SOLID
 70
1
 71
0
 91
1
 92
3
 72
0
 73
1
 93
16
 10
391.0
 20
316.4
 10
390.9238795325113
 20
316.78268343236505
 10
390.70710678118655
 20
317.10710678118653
 10
390.38268343236507
 20
317.3238795325113
 10
390.0
 20
317.4
 10
389.61731656763493
 20
317.3238795325113
 10
389.29289321881345
 20
317.10710678118653
 10
389.0761204674887
 20
316.78268343236505
 10
389.0
 20
316.4
 10
389.0761204674887
 20
316.0173165676349
 10
389.29289321881345
 20
315.6928932188134
 10
389.61731656763493
 20
315.47612046748867
 10
390.0
 20
315.4
 10
390.38268343236507
 20
315.47612046748867
 10
390.70710678118655
 20
315.6928932188134
 10
390.9238795325113
 20
316.0173165676349
 97
0
 75
0
 76
1
 98
0
  0
CIRCLE
  5
182
330
17
100
AcDbEntity
  8
S-REBAR-DIST
100
AcDbCircle
 10
410.0
 20
316.4
 30
0.0
 40
1.0
  0
HATCH
  5
183
330
17
100
AcDbEntity
  8
S-REBAR-DIST
 62
3
100
AcDbHatch
 10
0.0
 20
0.0
 30
0.0
210
0.0
220
0.0
230
1.0
  2
SOLID
 70
1
 71
0
 91
1
 92
3
 72
0
 73
1
 93
16
 10
411.0
 20
316.4
 10
410.9238795325113
 20
316.78268343236505
 10
410.70710678118655
 20
317.10710678118653
 10
410.38268343236507
 20
317.3238795325113
 10
410.0
 20
317.4
 10
409.61731656763493
 20
317.3238795325113
 10
409.29289321881345
 20
317.10710678118653
 10
409.0761204674887
 20
316.78268343236505
 10
409.0
 20
316.4
 10
409.0761204674887
 20
316.0173165676349
 10
409.29289321881345
 20
315.6928932188134
 10
409.61731656763493
 20
315.47612046748867
 10
410.0
 20
315.4
 10
410.38268343236507
 20
315.47612046748867
 10
410.70710678118655
 20
315.6928932188134
 10
410.9238795325113
 20
316.0173165676349
 97
0
 75
0
 76
1
 98
0
  0
CIRCLE
  5
184
330
17
100
AcDbEntity
  8
S-REBAR-DIST
100
AcDbCircle
 10
430.0
 20
316.4
 30
0.0
 40
1.0
  0
HATCH
  5
185
330
17
100
AcDbEntity
  8
S-REBAR-DIST
 62
3
100
AcDbHatch
 10
0.0
 20
0.0
 30
0.0
210
0.0
220
0.0
230
1.0
  2
SOLID
 70
1
 71
0
 91
1
 92
3
 72
0
 73
1
 93
16
 10
431.0
 20
316.4
 10
430.9238795325113
 20
316.78268343236505
 10
430.70710678118655
 20
317.10710678118653
 10
430.38268343236507
 20
317.3238795325113
 10
430.0
 20
317.4
 10
429.61731656763493
 20
317.3238795325113
 10
429.29289321881345
 20
317.10710678118653
 10
429.0761204674887
 20
316.78268343236505
 10
429.0
 20
316.4
 10
429.0761204674887
 20
316.0173165676349
 10
429.29289321881345
 20
315.6928932188134
 10
429.61731656763493
 20
315.47612046748867
 10
430.0
 20
315.4
 10
430.38268343236507
 20
315.47612046748867
 10
430.70710678118655
 20
315.6928932188134
 10
430.9238795325113
 20
316.0173165676349
 97
0
 75
0
 76
1
 98
0
  0
CIRCLE
  5
186
330
17
100
AcDbEntity
  8
S-REBAR-DIST
100
AcDbCircle
 10
450.0
 20
316.4
 30
0.0
 40
1.0
  0
HATCH
  5
187
330
17
100
AcDbEntity
  8
S-REBAR-DIST
 62
3
100
AcDbHatch
 10
0.0
 20
0.0
 30
0.0
210
0.0
220
0.0
230
1.0
  2
SOLID
 70
1
 71
0
 91
1
 92
3
 72
0
 73
1
 93
16
 10
451.0
 20
316.4
 10
450.9238795325113
 20
316.78268343236505
 10
450.70710678118655
 20
317.10710678118653
 10
450.38268343236507
 20
317.3238795325113
 10
450.0
 20
317.4
 10
449.61731656763493
 20
317.3238795325113
 10
449.29289321881345
 20
317.10710678118653
 10
449.0761204674887
 20
316.78268343236505
 10
449.0
 20
316.4
 10
449.0761204674887
 20
316.0173165676349
 10
449.29289321881345
 20
315.6928932188134
 10
449.61731656763493
 20
315.47612046748867
 10
450.0
 20
315.4
 10
450.38268343236507
 20
315.47612046748867
 10
450.70710678118655
 20
315.6928932188134
 10
450.9238795325113
 20
316.0173165676349
 97
0
 75
0
 76
1
 98
0
  0
CIRCLE
  5
188
330
17
100
AcDbEntity
  8
S-REBAR-DIST
100
AcDbCircle
 10
470.0
 20
316.4
 30
0.0
 40
1.0
  0
HATCH
  5
189
330
17
100
AcDbEntity
  8
S-REBAR-DIST
 62
3
100
AcDbHatch
 10
0.0
 20
0.0
 30
0.0
210
0.0
220
0.0
230
1.0
  2
SOLID
 70
1
 71
0
 91
1
 92
3
 72
0
 73
1
 93
16
 10
471.0
 20
316.4
 10
470.9238795325113
 20
316.78268343236505
 10
470.70710678118655
 20
317.10710678118653
 10
470.38268343236507
 20
317.3238795325113
 10
470.0
 20
317.4
 10
469.61731656763493
 20
317.3238795325113
 10
469.29289321881345
 20
317.10710678118653
 10
469.0761204674887
 20
316.78268343236505
 10
469.0
 20
316.4
 10
469.0761204674887
 20
316.0173165676349
 10
469.29289321881345
 20
315.6928932188134
 10
469.61731656763493
 20
315.47612046748867
 10
470.0
 20
315.4
 10
470.38268343236507
 20
315.47612046748867
 10
470.70710678118655
 20
315.6928932188134
 10
470.9238795325113
 20
316.0173165676349
 97
0
 75
0
 76
1
 98
0
  0
CIRCLE
  5
18A
330
17
100
AcDbEntity
  8
S-REBAR-DIST
100
AcDbCircle
 10
490.0
 20
316.4
 30
0.0
 40
1.0
  0
HATCH
  5
18B
330
17
100
AcDbEntity
  8
S-REBAR-DIST
 62
3
100
AcDbHatch
 10
0.0
 20
0.0
 30
0.0
210
0.0
220
0.0
230
1.0
  2
SOLID
 70
1
 71
0
 91
1
 92
3
 72
0
 73
1
 93
16
 10
491.0
 20
316.4
 10
490.9238795325113
 20
316.78268343236505
 10
490.70710678118655
 20
317.10710678118653
 10
490.38268343236507
 20
317.3238795325113
 10
490.0
 20
317.4
 10
489.61731656763493
 20
317.3238795325113
 10
489.29289321881345
 20
317.10710678118653
 10
489.0761204674887
 20
316.78268343236505
 10
489.0
 20
316.4
 10
489.0761204674887
 20
316.0173165676349
 10
489.29289321881345
 20
315.6928932188134
 10
489.61731656763493
 20
315.47612046748867
 10
490.0
 20
315.4
 10
490.38268343236507
 20
315.47612046748867
 10
490.70710678118655
 20
315.6928932188134
 10
490.9238795325113
 20
316.0173165676349
 97
0
 75
0
 76
1
 98
0
  0
DIMENSION
  5
18C
330
17
100
AcDbEntity
  8
S-DIM
100
AcDbDimension
280
0
  2
*D6
  3
SC-DIM
 10
380.0
 20
280.0
 30
0.0
 11
440.0
 21
281.7
 31
0.0
 70
32
 71
5
  1
<>
100
AcDbAlignedDimension
 13
380.0
 23
300.0
 33
0.0
 14
500.0
 24
300.0
 34
0.0
 50
0.0
100
AcDbRotatedDimension
1001
ACAD
1000
DSTYLE
1002
{
1070
144
1040
10.0
1002
}
  0
DIMENSION
  5
19B
330
17
100
AcDbEntity
  8
S-DIM
100
AcDbDimension
280
0
  2
*D7
  3
SC-DIM
 10
520.0
 20
300.0
 30
0.0
 11
518.3
 21
310.0
 31
0.0
 70
32
 71
5
  1
<>
100
AcDbAlignedDimension
 13
500.0
 23
300.0
 33
0.0
 14
500.0
 24
320.0
 34
0.0
 50
90.0
100
AcDbRotatedDimension
1001
ACAD
1000
DSTYLE
1002
{
1070
144
1040
10.0
1002
}
  0
TEXT
  5
1AA
330
17
100
AcDbEntity
  8
S-TEXT
100
AcDbText
 10
530.0
 20
302.0
 30
0.0
 40
1.4
  1
T12 @ 150 MAIN
  7
OpenSans
 11
530.0
 21
302.0
 31
0.0
100
AcDbText
  0
TEXT
  5
1AB
330
17
100
AcDbEntity
  8
S-TEXT
100
AcDbText
 10
530.0
 20
315.0
 30
0.0
 40
1.4
  1
T10 @ 200 DISTRIBUTION
  7
OpenSans
 11
530.0
 21
315.0
 31
0.0
100
AcDbText
  0
TEXT
  5
1AC
330
17
100
AcDbEntity
  8
S-TEXT
100
AcDbText
 10
380.0
 20
258.0
 30
0.0
 40
1.4
  1
COVER 30
  7
OpenSans
 11
380.0
 21
258.0
 31
0.0
100
AcDbText
  0
INSERT
  5
1AD
330
17
100
AcDbEntity
  8
S-CALLOUT
100
AcDbBlockReference
  2
BARMARK
 10
370.0
 20
264.0
 30
0.0
  0
TEXT
  5
1AF
330
17
100
AcDbEntity
  8
S-CALLOUT
100
AcDbText
 10
370.0
 20
264.0
 30
0.0
 40
2.0
  1
ST01
  7
OpenSans
 72
1
 11
370.0
 21
264.0
 31
0.0
100
AcDbText
 73
2
  0
LEADER
  5
1B0
330
17
100
AcDbEntity
  8
S-CALLOUT
100
AcDbLeader
  3
SC-DIM
 73
3
 76
2
 10
410.0
 20
303.6
 30
0.0
 10
370.0
 20
264.0
 30
0.0
  0
INSERT
  5
1B1
330
17
100
AcDbEntity
  8
S-CALLOUT
100
AcDbBlockReference
  2
BARMARK
 10
370.0
 20
350.0
 30
0.0
  0
TEXT
  5
1B3
330
17
100
AcDbEntity
  8
S-CALLOUT
100
AcDbText
 10
370.0
 20
350.0
 30
0.0
 40
2.0
  1
ST02
  7
OpenSans
 72
1
 11
370.0
 21
350.0
 31
0.0
100
AcDbText
 73
2
  0
LEADER
  5
1B4
330
17
100
AcDbEntity
  8
S-CALLOUT
100
AcDbLeader
  3
SC-DIM
 73
3
 76
2
 10
410.0
 20
316.4
 30
0.0
 10
370.0
 20
350.0
 30
0.0
  0
TEXT
  5
1B5
330
17
100
AcDbEntity
  8
S-TITLE
100
AcDbText
 10
370.0
 20
552.0
 30
0.0
 40
3.5
  1
V2   FLIGHT CROSS-SECTION - WAIST 200
  7
OpenSans
 11
370.0
 21
552.0
 31
0.0
100
AcDbText
  0
LINE
  5
1B6
330
17
100
AcDbEntity
  8
S-TITLE
100
AcDbLine
 10
370.0
 20
550.2
 30
0.0
 11
469.9082384460817
 21
550.2
 31
0.0
  0
TEXT
  5
1B7
330
17
100
AcDbEntity
  8
S-TEXT
100
AcDbText
 10
370.0
 20
544.8
 30
0.0
 40
2.0
  1
SCALE 1:10
  7
OpenSans
 11
370.0
 21
544.8
 31
0.0
100
AcDbText
  0
LWPOLYLINE
  5
1B8
330
17
100
AcDbEntity
  8
S-CONCRETE
100
AcDbPolyline
 90
4
 70
1
 10
380.0
 20
200.0
 10
400.0
 20
200.0
 10
400.0
 20
260.0
 10
380.0
 20
260.0
  0
LWPOLYLINE
  5
1B9
330
17
100
AcDbEntity
  8
S-CONCRETE
100
AcDbPolyline
 90
4
 70
1
 10
540.0
 20
200.0
 10
560.0
 20
200.0
 10
560.0
 20
260.0
 10
540.0
 20
260.0
  0
LWPOLYLINE
  5
1BA
330
17
100
AcDbEntity
  8
S-CONCRETE
100
AcDbPolyline
 90
4
 70
1
 10
380.0
 20
250.0
 10
560.0
 20
250.0
 10
560.0
 20
260.0
 10
380.0
 20
260.0
  0
HATCH
  5
1BB
330
17
100
AcDbEntity
  8
S-HATCH
 62
7
100
AcDbHatch
 10
0.0
 20
0.0
 30
0.0
210
0.0
220
0.0
230
1.0
  2
ANSI31
 70
0
 71
0
 91
1
 92
3
 72
0
 73
1
 93
4
 10
380.0
 20
200.0
 10
400.0
 20
200.0
 10
400.0
 20
260.0
 10
380.0
 20
260.0
 97
0
 75
1
 76
1
 52
0.0
 41
1.6
 77
0
 78
1
 53
45.0
 43
0.0
 44
0.0
 45
-3.5921024485
 46
3.5921024485
 79
0
 98
0
  0
HATCH
  5
1BC
330
17
100
AcDbEntity
  8
S-HATCH
 62
7
100
AcDbHatch
 10
0.0
 20
0.0
 30
0.0
210
0.0
220
0.0
230
1.0
  2
ANSI31
 70
0
 71
0
 91
1
 92
3
 72
0
 73
1
 93
4
 10
540.0
 20
200.0
 10
560.0
 20
200.0
 10
560.0
 20
260.0
 10
540.0
 20
260.0
 97
0
 75
1
 76
1
 52
0.0
 41
1.6
 77
0
 78
1
 53
45.0
 43
0.0
 44
0.0
 45
-3.5921024485
 46
3.5921024485
 79
0
 98
0
  0
HATCH
  5
1BD
330
17
100
AcDbEntity
  8
S-HATCH
 62
7
100
AcDbHatch
 10
0.0
 20
0.0
 30
0.0
210
0.0
220
0.0
230
1.0
  2
ANSI31
 70
0
 71
0
 91
1
 92
3
 72
0
 73
1
 93
4
 10
400.0
 20
250.0
 10
540.0
 20
250.0
 10
540.0
 20
260.0
 10
400.0
 20
260.0
 97
0
 75
1
 76
1
 52
0.0
 41
1.6
 77
0
 78
1
 53
45.0
 43
0.0
 44
0.0
 45
-3.5921024485
 46
3.5921024485
 79
0
 98
0
  0
CIRCLE
  5
1BE
330
17
100
AcDbEntity
  8
S-REBAR-MAIN
100
AcDbCircle
 10
392.5
 20
251.8
 30
0.0
 40
0.6
  0
HATCH
  5
1BF
330
17
100
AcDbEntity
  8
S-REBAR-MAIN
 62
1
100
AcDbHatch
 10
0.0
 20
0.0
 30
0.0
210
0.0
220
0.0
230
1.0
  2
SOLID
 70
1
 71
0
 91
1
 92
3
 72
0
 73
1
 93
16
 10
393.1
 20
251.8
 10
393.0543277195068
 20
252.02961005941907
 10
392.9242640687119
 20
252.22426406871193
 10
392.72961005941903
 20
252.35432771950678
 10
392.5
 20
252.4
 10
392.27038994058097
 20
252.35432771950678
 10
392.0757359312881
 20
252.22426406871193
 10
391.9456722804932
 20
252.02961005941907
 10
391.9
 20
251.8
 10
391.9456722804932
 20
251.57038994058095
 10
392.0757359312881
 20
251.3757359312881
 10
392.27038994058097
 20
251.24567228049324
 10
392.5
 20
251.20000000000002
 10
392.72961005941903
 20
251.24567228049324
 10
392.9242640687119
 20
251.3757359312881
 10
393.0543277195068
 20
251.57038994058095
 97
0
 75
0
 76
1
 98
0
  0
CIRCLE
  5
1C0
330
17
100
AcDbEntity
  8
S-REBAR-MAIN
100
AcDbCircle
 10
398.75
 20
251.8
 30
0.0
 40
0.6
  0
HATCH
  5
1C1
330
17
100
AcDbEntity
  8
S-REBAR-MAIN
 62
1
100
AcDbHatch
 10
0.0
 20
0.0
 30
0.0
210
0.0
220
0.0
230
1.0
  2
SOLID
 70
1
 71
0
 91
1
 92
3
 72
0
 73
1
 93
16
 10
399.35
 20
251.8
 10
399.3043277195068
 20
252.02961005941907
 10
399.1742640687119
 20
252.22426406871193
 10
398.97961005941903
 20
252.35432771950678
 10
398.75
 20
252.4
 10
398.52038994058097
 20
252.35432771950678
 10
398.3257359312881
 20
252.22426406871193
 10
398.1956722804932
 20
252.02961005941907
 10
398.15
 20
251.8
 10
398.1956722804932
 20
251.57038994058095
 10
398.3257359312881
 20
251.3757359312881
 10
398.52038994058097
 20
251.24567228049324
 10
398.75
 20
251.20000000000002
 10
398.97961005941903
 20
251.24567228049324
 10
399.1742640687119
 20
251.3757359312881
 10
399.3043277195068
 20
251.57038994058095
 97
0
 75
0
 76
1
 98
0
  0
CIRCLE
  5
1C2
330
17
100
AcDbEntity
  8
S-REBAR-MAIN
100
AcDbCircle
 10
405.0
 20
251.8
 30
0.0
 40
0.6
  0
HATCH
  5
1C3
330
17
100
AcDbEntity
  8
S-REBAR-MAIN
 62
1
100
AcDbHatch
 10
0.0
 20
0.0
 30
0.0
210
0.0
220
0.0
230
1.0
  2
SOLID
 70
1
 71
0
 91
1
 92
3
 72
0
 73
1
 93
16
 10
405.6
 20
251.8
 10
405.5543277195068
 20
252.02961005941907
 10
405.4242640687119
 20
252.22426406871193
 10
405.22961005941903
 20
252.35432771950678
 10
405.0
 20
252.4
 10
404.77038994058097
 20
252.35432771950678
 10
404.5757359312881
 20
252.22426406871193
 10
404.4456722804932
 20
252.02961005941907
 10
404.4
 20
251.8
 10
404.4456722804932
 20
251.57038994058095
 10
404.5757359312881
 20
251.3757359312881
 10
404.77038994058097
 20
251.24567228049324
 10
405.0
 20
251.20000000000002
 10
405.22961005941903
 20
251.24567228049324
 10
405.4242640687119
 20
251.3757359312881
 10
405.5543277195068
 20
251.57038994058095
 97
0
 75
0
 76
1
 98
0
  0
CIRCLE
  5
1C4
330
17
100
AcDbEntity
  8
S-REBAR-MAIN
100
AcDbCircle
 10
411.25
 20
251.8
 30
0.0
 40
0.6
  0
HATCH
  5
1C5
330
17
100
AcDbEntity
  8
S-REBAR-MAIN
 62
1
100
AcDbHatch
 10
0.0
 20
0.0
 30
0.0
210
0.0
220
0.0
230
1.0
  2
SOLID
 70
1
 71
0
 91
1
 92
3
 72
0
 73
1
 93
16
 10
411.85
 20
251.8
 10
411.8043277195068
 20
252.02961005941907
 10
411.6742640687119
 20
252.22426406871193
 10
411.47961005941903
 20
252.35432771950678
 10
411.25
 20
252.4
 10
411.02038994058097
 20
252.35432771950678
 10
410.8257359312881
 20
252.22426406871193
 10
410.6956722804932
 20
252.02961005941907
 10
410.65
 20
251.8
 10
410.6956722804932
 20
251.57038994058095
 10
410.8257359312881
 20
251.3757359312881
 10
411.02038994058097
 20
251.24567228049324
 10
411.25
 20
251.20000000000002
 10
411.47961005941903
 20
251.24567228049324
 10
411.6742640687119
 20
251.3757359312881
 10
411.8043277195068
 20
251.57038994058095
 97
0
 75
0
 76
1
 98
0
  0
CIRCLE
  5
1C6
330
17
100
AcDbEntity
  8
S-REBAR-MAIN
100
AcDbCircle
 10
417.5
 20
251.8
 30
0.0
 40
0.6
  0
HATCH
  5
1C7
330
17
100
AcDbEntity
  8
S-REBAR-MAIN
 62
1
100
AcDbHatch
 10
0.0
 20
0.0
 30
0.0
210
0.0
220
0.0
230
1.0
  2
SOLID
 70
1
 71
0
 91
1
 92
3
 72
0
 73
1
 93
16
 10
418.1
 20
251.8
 10
418.0543277195068
 20
252.02961005941907
 10
417.9242640687119
 20
252.22426406871193
 10
417.72961005941903
 20
252.35432771950678
 10
417.5
 20
252.4
 10
417.27038994058097
 20
252.35432771950678
 10
417.0757359312881
 20
252.22426406871193
 10
416.9456722804932
 20
252.02961005941907
 10
416.9
 20
251.8
 10
416.9456722804932
 20
251.57038994058095
 10
417.0757359312881
 20
251.3757359312881
 10
417.27038994058097
 20
251.24567228049324
 10
417.5
 20
251.20000000000002
 10
417.72961005941903
 20
251.24567228049324
 10
417.9242640687119
 20
251.3757359312881
 10
418.0543277195068
 20
251.57038994058095
 97
0
 75
0
 76
1
 98
0
  0
CIRCLE
  5
1C8
330
17
100
AcDbEntity
  8
S-REBAR-MAIN
100
AcDbCircle
 10
423.75
 20
251.8
 30
0.0
 40
0.6
  0
HATCH
  5
1C9
330
17
100
AcDbEntity
  8
S-REBAR-MAIN
 62
1
100
AcDbHatch
 10
0.0
 20
0.0
 30
0.0
210
0.0
220
0.0
230
1.0
  2
SOLID
 70
1
 71
0
 91
1
 92
3
 72
0
 73
1
 93
16
 10
424.35
 20
251.8
 10
424.3043277195068
 20
252.02961005941907
 10
424.1742640687119
 20
252.22426406871193
 10
423.97961005941903
 20
252.35432771950678
 10
423.75
 20
252.4
 10
423.52038994058097
 20
252.35432771950678
 10
423.3257359312881
 20
252.22426406871193
 10
423.1956722804932
 20
252.02961005941907
 10
423.15
 20
251.8
 10
423.1956722804932
 20
251.57038994058095
 10
423.3257359312881
 20
251.3757359312881
 10
423.52038994058097
 20
251.24567228049324
 10
423.75
 20
251.20000000000002
 10
423.97961005941903
 20
251.24567228049324
 10
424.1742640687119
 20
251.3757359312881
 10
424.3043277195068
 20
251.57038994058095
 97
0
 75
0
 76
1
 98
0
  0
CIRCLE
  5
1CA
330
17
100
AcDbEntity
  8
S-REBAR-MAIN
100
AcDbCircle
 10
430.0
 20
251.8
 30
0.0
 40
0.6
  0
HATCH
  5
1CB
330
17
100
AcDbEntity
  8
S-REBAR-MAIN
 62
1
100
AcDbHatch
 10
0.0
 20
0.0
 30
0.0
210
0.0
220
0.0
230
1.0
  2
SOLID
 70
1
 71
0
 91
1
 92
3
 72
0
 73
1
 93
16
 10
430.6
 20
251.8
 10
430.5543277195068
 20
252.02961005941907
 10
430.4242640687119
 20
252.22426406871193
 10
430.22961005941903
 20
252.35432771950678
 10
430.0
 20
252.4
 10
429.77038994058097
 20
252.35432771950678
 10
429.5757359312881
 20
252.22426406871193
 10
429.4456722804932
 20
252.02961005941907
 10
429.4
 20
251.8
 10
429.4456722804932
 20
251.57038994058095
 10
429.5757359312881
 20
251.3757359312881
 10
429.77038994058097
 20
251.24567228049324
 10
430.0
 20
251.20000000000002
 10
430.22961005941903
 20
251.24567228049324
 10
430.4242640687119
 20
251.3757359312881
 10
430.5543277195068
 20
251.57038994058095
 97
0
 75
0
 76
1
 98
0
  0
CIRCLE
  5
1CC
330
17
100
AcDbEntity
  8
S-REBAR-MAIN
100
AcDbCircle
 10
436.25
 20
251.8
 30
0.0
 40
0.6
  0
HATCH
  5
1CD
330
17
100
AcDbEntity
  8
S-REBAR-MAIN
 62
1
100
AcDbHatch
 10
0.0
 20
0.0
 30
0.0
210
0.0
220
0.0
230
1.0
  2
SOLID
 70
1
 71
0
 91
1
 92
3
 72
0
 73
1
 93
16
 10
436.85
 20
251.8
 10
436.8043277195068
 20
252.02961005941907
 10
436.6742640687119
 20
252.22426406871193
 10
436.47961005941903
 20
252.35432771950678
 10
436.25
 20
252.4
 10
436.02038994058097
 20
252.35432771950678
 10
435.8257359312881
 20
252.22426406871193
 10
435.6956722804932
 20
252.02961005941907
 10
435.65
 20
251.8
 10
435.6956722804932
 20
251.57038994058095
 10
435.8257359312881
 20
251.3757359312881
 10
436.02038994058097
 20
251.24567228049324
 10
436.25
 20
251.20000000000002
 10
436.47961005941903
 20
251.24567228049324
 10
436.6742640687119
 20
251.3757359312881
 10
436.8043277195068
 20
251.57038994058095
 97
0
 75
0
 76
1
 98
0
  0
CIRCLE
  5
1CE
330
17
100
AcDbEntity
  8
S-REBAR-MAIN
100
AcDbCircle
 10
442.5
 20
251.8
 30
0.0
 40
0.6
  0
HATCH
  5
1CF
330
17
100
AcDbEntity
  8
S-REBAR-MAIN
 62
1
100
AcDbHatch
 10
0.0
 20
0.0
 30
0.0
210
0.0
220
0.0
230
1.0
  2
SOLID
 70
1
 71
0
 91
1
 92
3
 72
0
 73
1
 93
16
 10
443.1
 20
251.8
 10
443.0543277195068
 20
252.02961005941907
 10
442.9242640687119
 20
252.22426406871193
 10
442.72961005941903
 20
252.35432771950678
 10
442.5
 20
252.4
 10
442.27038994058097
 20
252.35432771950678
 10
442.0757359312881
 20
252.22426406871193
 10
441.9456722804932
 20
252.02961005941907
 10
441.9
 20
251.8
 10
441.9456722804932
 20
251.57038994058095
 10
442.0757359312881
 20
251.3757359312881
 10
442.27038994058097
 20
251.24567228049324
 10
442.5
 20
251.20000000000002
 10
442.72961005941903
 20
251.24567228049324
 10
442.9242640687119
 20
251.3757359312881
 10
443.0543277195068
 20
251.57038994058095
 97
0
 75
0
 76
1
 98
0
  0
CIRCLE
  5
1D0
330
17
100
AcDbEntity
  8
S-REBAR-MAIN
100
AcDbCircle
 10
448.75
 20
251.8
 30
0.0
 40
0.6
  0
HATCH
  5
1D1
330
17
100
AcDbEntity
  8
S-REBAR-MAIN
 62
1
100
AcDbHatch
 10
0.0
 20
0.0
 30
0.0
210
0.0
220
0.0
230
1.0
  2
SOLID
 70
1
 71
0
 91
1
 92
3
 72
0
 73
1
 93
16
 10
449.35
 20
251.8
 10
449.3043277195068
 20
252.02961005941907
 10
449.1742640687119
 20
252.22426406871193
 10
448.97961005941903
 20
252.35432771950678
 10
448.75
 20
252.4
 10
448.52038994058097
 20
252.35432771950678
 10
448.3257359312881
 20
252.22426406871193
 10
448.1956722804932
 20
252.02961005941907
 10
448.15
 20
251.8
 10
448.1956722804932
 20
251.57038994058095
 10
448.3257359312881
 20
251.3757359312881
 10
448.52038994058097
 20
251.24567228049324
 10
448.75
 20
251.20000000000002
 10
448.97961005941903
 20
251.24567228049324
 10
449.1742640687119
 20
251.3757359312881
 10
449.3043277195068
 20
251.57038994058095
 97
0
 75
0
 76
1
 98
0
  0
CIRCLE
  5
1D2
330
17
100
AcDbEntity
  8
S-REBAR-MAIN
100
AcDbCircle
 10
455.0
 20
251.8
 30
0.0
 40
0.6
  0
HATCH
  5
1D3
330
17
100
AcDbEntity
  8
S-REBAR-MAIN
 62
1
100
AcDbHatch
 10
0.0
 20
0.0
 30
0.0
210
0.0
220
0.0
230
1.0
  2
SOLID
 70
1
 71
0
 91
1
 92
3
 72
0
 73
1
 93
16
 10
455.6
 20
251.8
 10
455.5543277195068
 20
252.02961005941907
 10
455.4242640687119
 20
252.22426406871193
 10
455.22961005941903
 20
252.35432771950678
 10
455.0
 20
252.4
 10
454.77038994058097
 20
252.35432771950678
 10
454.5757359312881
 20
252.22426406871193
 10
454.4456722804932
 20
252.02961005941907
 10
454.4
 20
251.8
 10
454.4456722804932
 20
251.57038994058095
 10
454.5757359312881
 20
251.3757359312881
 10
454.77038994058097
 20
251.24567228049324
 10
455.0
 20
251.20000000000002
 10
455.22961005941903
 20
251.24567228049324
 10
455.4242640687119
 20
251.3757359312881
 10
455.5543277195068
 20
251.57038994058095
 97
0
 75
0
 76
1
 98
0
  0
CIRCLE
  5
1D4
330
17
100
AcDbEntity
  8
S-REBAR-MAIN
100
AcDbCircle
 10
461.25
 20
251.8
 30
0.0
 40
0.6
  0
HATCH
  5
1D5
330
17
100
AcDbEntity
  8
S-REBAR-MAIN
 62
1
100
AcDbHatch
 10
0.0
 20
0.0
 30
0.0
210
0.0
220
0.0
230
1.0
  2
SOLID
 70
1
 71
0
 91
1
 92
3
 72
0
 73
1
 93
16
 10
461.85
 20
251.8
 10
461.8043277195068
 20
252.02961005941907
 10
461.6742640687119
 20
252.22426406871193
 10
461.47961005941903
 20
252.35432771950678
 10
461.25
 20
252.4
 10
461.02038994058097
 20
252.35432771950678
 10
460.8257359312881
 20
252.22426406871193
 10
460.6956722804932
 20
252.02961005941907
 10
460.65
 20
251.8
 10
460.6956722804932
 20
251.57038994058095
 10
460.8257359312881
 20
251.3757359312881
 10
461.02038994058097
 20
251.24567228049324
 10
461.25
 20
251.20000000000002
 10
461.47961005941903
 20
251.24567228049324
 10
461.6742640687119
 20
251.3757359312881
 10
461.8043277195068
 20
251.57038994058095
 97
0
 75
0
 76
1
 98
0
  0
CIRCLE
  5
1D6
330
17
100
AcDbEntity
  8
S-REBAR-MAIN
100
AcDbCircle
 10
467.5
 20
251.8
 30
0.0
 40
0.6
  0
HATCH
  5
1D7
330
17
100
AcDbEntity
  8
S-REBAR-MAIN
 62
1
100
AcDbHatch
 10
0.0
 20
0.0
 30
0.0
210
0.0
220
0.0
230
1.0
  2
SOLID
 70
1
 71
0
 91
1
 92
3
 72
0
 73
1
 93
16
 10
468.1
 20
251.8
 10
468.0543277195068
 20
252.02961005941907
 10
467.9242640687119
 20
252.22426406871193
 10
467.72961005941903
 20
252.35432771950678
 10
467.5
 20
252.4
 10
467.27038994058097
 20
252.35432771950678
 10
467.0757359312881
 20
252.22426406871193
 10
466.9456722804932
 20
252.02961005941907
 10
466.9
 20
251.8
 10
466.9456722804932
 20
251.57038994058095
 10
467.0757359312881
 20
251.3757359312881
 10
467.27038994058097
 20
251.24567228049324
 10
467.5
 20
251.20000000000002
 10
467.72961005941903
 20
251.24567228049324
 10
467.9242640687119
 20
251.3757359312881
 10
468.0543277195068
 20
251.57038994058095
 97
0
 75
0
 76
1
 98
0
  0
CIRCLE
  5
1D8
330
17
100
AcDbEntity
  8
S-REBAR-MAIN
100
AcDbCircle
 10
473.75
 20
251.8
 30
0.0
 40
0.6
  0
HATCH
  5
1D9
330
17
100
AcDbEntity
  8
S-REBAR-MAIN
 62
1
100
AcDbHatch
 10
0.0
 20
0.0
 30
0.0
210
0.0
220
0.0
230
1.0
  2
SOLID
 70
1
 71
0
 91
1
 92
3
 72
0
 73
1
 93
16
 10
474.35
 20
251.8
 10
474.3043277195068
 20
252.02961005941907
 10
474.1742640687119
 20
252.22426406871193
 10
473.97961005941903
 20
252.35432771950678
 10
473.75
 20
252.4
 10
473.52038994058097
 20
252.35432771950678
 10
473.3257359312881
 20
252.22426406871193
 10
473.1956722804932
 20
252.02961005941907
 10
473.15
 20
251.8
 10
473.1956722804932
 20
251.57038994058095
 10
473.3257359312881
 20
251.3757359312881
 10
473.52038994058097
 20
251.24567228049324
 10
473.75
 20
251.20000000000002
 10
473.97961005941903
 20
251.24567228049324
 10
474.1742640687119
 20
251.3757359312881
 10
474.3043277195068
 20
251.57038994058095
 97
0
 75
0
 76
1
 98
0
  0
CIRCLE
  5
1DA
330
17
100
AcDbEntity
  8
S-REBAR-MAIN
100
AcDbCircle
 10
480.0
 20
251.8
 30
0.0
 40
0.6
  0
HATCH
  5
1DB
330
17
100
AcDbEntity
  8
S-REBAR-MAIN
 62
1
100
AcDbHatch
 10
0.0
 20
0.0
 30
0.0
210
0.0
220
0.0
230
1.0
  2
SOLID
 70
1
 71
0
 91
1
 92
3
 72
0
 73
1
 93
16
 10
480.6
 20
251.8
 10
480.5543277195068
 20
252.02961005941907
 10
480.4242640687119
 20
252.22426406871193
 10
480.22961005941903
 20
252.35432771950678
 10
480.0
 20
252.4
 10
479.77038994058097
 20
252.35432771950678
 10
479.5757359312881
 20
252.22426406871193
 10
479.4456722804932
 20
252.02961005941907
 10
479.4
 20
251.8
 10
479.4456722804932
 20
251.57038994058095
 10
479.5757359312881
 20
251.3757359312881
 10
479.77038994058097
 20
251.24567228049324
 10
480.0
 20
251.20000000000002
 10
480.22961005941903
 20
251.24567228049324
 10
480.4242640687119
 20
251.3757359312881
 10
480.5543277195068
 20
251.57038994058095
 97
0
 75
0
 76
1
 98
0
  0
CIRCLE
  5
1DC
330
17
100
AcDbEntity
  8
S-REBAR-MAIN
100
AcDbCircle
 10
486.25
 20
251.8
 30
0.0
 40
0.6
  0
HATCH
  5
1DD
330
17
100
AcDbEntity
  8
S-REBAR-MAIN
 62
1
100
AcDbHatch
 10
0.0
 20
0.0
 30
0.0
210
0.0
220
0.0
230
1.0
  2
SOLID
 70
1
 71
0
 91
1
 92
3
 72
0
 73
1
 93
16
 10
486.85
 20
251.8
 10
486.8043277195068
 20
252.02961005941907
 10
486.6742640687119
 20
252.22426406871193
 10
486.47961005941903
 20
252.35432771950678
 10
486.25
 20
252.4
 10
486.02038994058097
 20
252.35432771950678
 10
485.8257359312881
 20
252.22426406871193
 10
485.6956722804932
 20
252.02961005941907
 10
485.65
 20
251.8
 10
485.6956722804932
 20
251.57038994058095
 10
485.8257359312881
 20
251.3757359312881
 10
486.02038994058097
 20
251.24567228049324
 10
486.25
 20
251.20000000000002
 10
486.47961005941903
 20
251.24567228049324
 10
486.6742640687119
 20
251.3757359312881
 10
486.8043277195068
 20
251.57038994058095
 97
0
 75
0
 76
1
 98
0
  0
CIRCLE
  5
1DE
330
17
100
AcDbEntity
  8
S-REBAR-MAIN
100
AcDbCircle
 10
492.5
 20
251.8
 30
0.0
 40
0.6
  0
HATCH
  5
1DF
330
17
100
AcDbEntity
  8
S-REBAR-MAIN
 62
1
100
AcDbHatch
 10
0.0
 20
0.0
 30
0.0
210
0.0
220
0.0
230
1.0
  2
SOLID
 70
1
 71
0
 91
1
 92
3
 72
0
 73
1
 93
16
 10
493.1
 20
251.8
 10
493.0543277195068
 20
252.02961005941907
 10
492.9242640687119
 20
252.22426406871193
 10
492.72961005941903
 20
252.35432771950678
 10
492.5
 20
252.4
 10
492.27038994058097
 20
252.35432771950678
 10
492.0757359312881
 20
252.22426406871193
 10
491.9456722804932
 20
252.02961005941907
 10
491.9
 20
251.8
 10
491.9456722804932
 20
251.57038994058095
 10
492.0757359312881
 20
251.3757359312881
 10
492.27038994058097
 20
251.24567228049324
 10
492.5
 20
251.20000000000002
 10
492.72961005941903
 20
251.24567228049324
 10
492.9242640687119
 20
251.3757359312881
 10
493.0543277195068
 20
251.57038994058095
 97
0
 75
0
 76
1
 98
0
  0
CIRCLE
  5
1E0
330
17
100
AcDbEntity
  8
S-REBAR-MAIN
100
AcDbCircle
 10
498.75
 20
251.8
 30
0.0
 40
0.6
  0
HATCH
  5
1E1
330
17
100
AcDbEntity
  8
S-REBAR-MAIN
 62
1
100
AcDbHatch
 10
0.0
 20
0.0
 30
0.0
210
0.0
220
0.0
230
1.0
  2
SOLID
 70
1
 71
0
 91
1
 92
3
 72
0
 73
1
 93
16
 10
499.35
 20
251.8
 10
499.3043277195068
 20
252.02961005941907
 10
499.1742640687119
 20
252.22426406871193
 10
498.97961005941903
 20
252.35432771950678
 10
498.75
 20
252.4
 10
498.52038994058097
 20
252.35432771950678
 10
498.3257359312881
 20
252.22426406871193
 10
498.1956722804932
 20
252.02961005941907
 10
498.15
 20
251.8
 10
498.1956722804932
 20
251.57038994058095
 10
498.3257359312881
 20
251.3757359312881
 10
498.52038994058097
 20
251.24567228049324
 10
498.75
 20
251.20000000000002
 10
498.97961005941903
 20
251.24567228049324
 10
499.1742640687119
 20
251.3757359312881
 10
499.3043277195068
 20
251.57038994058095
 97
0
 75
0
 76
1
 98
0
  0
CIRCLE
  5
1E2
330
17
100
AcDbEntity
  8
S-REBAR-MAIN
100
AcDbCircle
 10
505.0
 20
251.8
 30
0.0
 40
0.6
  0
HATCH
  5
1E3
330
17
100
AcDbEntity
  8
S-REBAR-MAIN
 62
1
100
AcDbHatch
 10
0.0
 20
0.0
 30
0.0
210
0.0
220
0.0
230
1.0
  2
SOLID
 70
1
 71
0
 91
1
 92
3
 72
0
 73
1
 93
16
 10
505.6
 20
251.8
 10
505.5543277195068
 20
252.02961005941907
 10
505.4242640687119
 20
252.22426406871193
 10
505.22961005941903
 20
252.35432771950678
 10
505.0
 20
252.4
 10
504.77038994058097
 20
252.35432771950678
 10
504.5757359312881
 20
252.22426406871193
 10
504.4456722804932
 20
252.02961005941907
 10
504.4
 20
251.8
 10
504.4456722804932
 20
251.57038994058095
 10
504.5757359312881
 20
251.3757359312881
 10
504.77038994058097
 20
251.24567228049324
 10
505.0
 20
251.20000000000002
 10
505.22961005941903
 20
251.24567228049324
 10
505.4242640687119
 20
251.3757359312881
 10
505.5543277195068
 20
251.57038994058095
 97
0
 75
0
 76
1
 98
0
  0
CIRCLE
  5
1E4
330
17
100
AcDbEntity
  8
S-REBAR-MAIN
100
AcDbCircle
 10
511.25
 20
251.8
 30
0.0
 40
0.6
  0
HATCH
  5
1E5
330
17
100
AcDbEntity
  8
S-REBAR-MAIN
 62
1
100
AcDbHatch
 10
0.0
 20
0.0
 30
0.0
210
0.0
220
0.0
230
1.0
  2
SOLID
 70
1
 71
0
 91
1
 92
3
 72
0
 73
1
 93
16
 10
511.85
 20
251.8
 10
511.8043277195068
 20
252.02961005941907
 10
511.6742640687119
 20
252.22426406871193
 10
511.47961005941903
 20
252.35432771950678
 10
511.25
 20
252.4
 10
511.02038994058097
 20
252.35432771950678
 10
510.8257359312881
 20
252.22426406871193
 10
510.6956722804932
 20
252.02961005941907
 10
510.65
 20
251.8
 10
510.6956722804932
 20
251.57038994058095
 10
510.8257359312881
 20
251.3757359312881
 10
511.02038994058097
 20
251.24567228049324
 10
511.25
 20
251.20000000000002
 10
511.47961005941903
 20
251.24567228049324
 10
511.6742640687119
 20
251.3757359312881
 10
511.8043277195068
 20
251.57038994058095
 97
0
 75
0
 76
1
 98
0
  0
CIRCLE
  5
1E6
330
17
100
AcDbEntity
  8
S-REBAR-MAIN
100
AcDbCircle
 10
517.5
 20
251.8
 30
0.0
 40
0.6
  0
HATCH
  5
1E7
330
17
100
AcDbEntity
  8
S-REBAR-MAIN
 62
1
100
AcDbHatch
 10
0.0
 20
0.0
 30
0.0
210
0.0
220
0.0
230
1.0
  2
SOLID
 70
1
 71
0
 91
1
 92
3
 72
0
 73
1
 93
16
 10
518.1
 20
251.8
 10
518.0543277195068
 20
252.02961005941907
 10
517.924264068712
 20
252.22426406871193
 10
517.7296100594191
 20
252.35432771950678
 10
517.5
 20
252.4
 10
517.2703899405809
 20
252.35432771950678
 10
517.075735931288
 20
252.22426406871193
 10
516.9456722804932
 20
252.02961005941907
 10
516.9
 20
251.8
 10
516.9456722804932
 20
251.57038994058095
 10
517.075735931288
 20
251.3757359312881
 10
517.2703899405809
 20
251.24567228049324
 10
517.5
 20
251.20000000000002
 10
517.7296100594191
 20
251.24567228049324
 10
517.924264068712
 20
251.3757359312881
 10
518.0543277195068
 20
251.57038994058095
 97
0
 75
0
 76
1
 98
0
  0
CIRCLE
  5
1E8
330
17
100
AcDbEntity
  8
S-REBAR-MAIN
100
AcDbCircle
 10
523.75
 20
251.8
 30
0.0
 40
0.6
  0
HATCH
  5
1E9
330
17
100
AcDbEntity
  8
S-REBAR-MAIN
 62
1
100
AcDbHatch
 10
0.0
 20
0.0
 30
0.0
210
0.0
220
0.0
230
1.0
  2
SOLID
 70
1
 71
0
 91
1
 92
3
 72
0
 73
1
 93
16
 10
524.35
 20
251.8
 10
524.3043277195068
 20
252.02961005941907
 10
524.174264068712
 20
252.22426406871193
 10
523.9796100594191
 20
252.35432771950678
 10
523.75
 20
252.4
 10
523.5203899405809
 20
252.35432771950678
 10
523.325735931288
 20
252.22426406871193
 10
523.1956722804932
 20
252.02961005941907
 10
523.15
 20
251.8
 10
523.1956722804932
 20
251.57038994058095
 10
523.325735931288
 20
251.3757359312881
 10
523.5203899405809
 20
251.24567228049324
 10
523.75
 20
251.20000000000002
 10
523.9796100594191
 20
251.24567228049324
 10
524.174264068712
 20
251.3757359312881
 10
524.3043277195068
 20
251.57038994058095
 97
0
 75
0
 76
1
 98
0
  0
CIRCLE
  5
1EA
330
17
100
AcDbEntity
  8
S-REBAR-MAIN
100
AcDbCircle
 10
530.0
 20
251.8
 30
0.0
 40
0.6
  0
HATCH
  5
1EB
330
17
100
AcDbEntity
  8
S-REBAR-MAIN
 62
1
100
AcDbHatch
 10
0.0
 20
0.0
 30
0.0
210
0.0
220
0.0
230
1.0
  2
SOLID
 70
1
 71
0
 91
1
 92
3
 72
0
 73
1
 93
16
 10
530.6
 20
251.8
 10
530.5543277195068
 20
252.02961005941907
 10
530.424264068712
 20
252.22426406871193
 10
530.2296100594191
 20
252.35432771950678
 10
530.0
 20
252.4
 10
529.7703899405809
 20
252.35432771950678
 10
529.575735931288
 20
252.22426406871193
 10
529.4456722804932
 20
252.02961005941907
 10
529.4
 20
251.8
 10
529.4456722804932
 20
251.57038994058095
 10
529.575735931288
 20
251.3757359312881
 10
529.7703899405809
 20
251.24567228049324
 10
530.0
 20
251.20000000000002
 10
530.2296100594191
 20
251.24567228049324
 10
530.424264068712
 20
251.3757359312881
 10
530.5543277195068
 20
251.57038994058095
 97
0
 75
0
 76
1
 98
0
  0
CIRCLE
  5
1EC
330
17
100
AcDbEntity
  8
S-REBAR-MAIN
100
AcDbCircle
 10
536.25
 20
251.8
 30
0.0
 40
0.6
  0
HATCH
  5
1ED
330
17
100
AcDbEntity
  8
S-REBAR-MAIN
 62
1
100
AcDbHatch
 10
0.0
 20
0.0
 30
0.0
210
0.0
220
0.0
230
1.0
  2
SOLID
 70
1
 71
0
 91
1
 92
3
 72
0
 73
1
 93
16
 10
536.85
 20
251.8
 10
536.8043277195068
 20
252.02961005941907
 10
536.674264068712
 20
252.22426406871193
 10
536.4796100594191
 20
252.35432771950678
 10
536.25
 20
252.4
 10
536.0203899405809
 20
252.35432771950678
 10
535.825735931288
 20
252.22426406871193
 10
535.6956722804932
 20
252.02961005941907
 10
535.65
 20
251.8
 10
535.6956722804932
 20
251.57038994058095
 10
535.825735931288
 20
251.3757359312881
 10
536.0203899405809
 20
251.24567228049324
 10
536.25
 20
251.20000000000002
 10
536.4796100594191
 20
251.24567228049324
 10
536.674264068712
 20
251.3757359312881
 10
536.8043277195068
 20
251.57038994058095
 97
0
 75
0
 76
1
 98
0
  0
CIRCLE
  5
1EE
330
17
100
AcDbEntity
  8
S-REBAR-MAIN
100
AcDbCircle
 10
542.5
 20
251.8
 30
0.0
 40
0.6
  0
HATCH
  5
1EF
330
17
100
AcDbEntity
  8
S-REBAR-MAIN
 62
1
100
AcDbHatch
 10
0.0
 20
0.0
 30
0.0
210
0.0
220
0.0
230
1.0
  2
SOLID
 70
1
 71
0
 91
1
 92
3
 72
0
 73
1
 93
16
 10
543.1
 20
251.8
 10
543.0543277195068
 20
252.02961005941907
 10
542.924264068712
 20
252.22426406871193
 10
542.7296100594191
 20
252.35432771950678
 10
542.5
 20
252.4
 10
542.2703899405809
 20
252.35432771950678
 10
542.075735931288
 20
252.22426406871193
 10
541.9456722804932
 20
252.02961005941907
 10
541.9
 20
251.8
 10
541.9456722804932
 20
251.57038994058095
 10
542.075735931288
 20
251.3757359312881
 10
542.2703899405809
 20
251.24567228049324
 10
542.5
 20
251.20000000000002
 10
542.7296100594191
 20
251.24567228049324
 10
542.924264068712
 20
251.3757359312881
 10
543.0543277195068
 20
251.57038994058095
 97
0
 75
0
 76
1
 98
0
  0
LWPOLYLINE
  5
1F0
330
17
100
AcDbEntity
  8
S-REBAR-MAIN
100
AcDbPolyline
 90
2
 70
0
 10
392.5
 20
251.8
 10
547.5
 20
251.8
  0
LWPOLYLINE
  5
1F1
330
17
100
AcDbEntity
  8
S-REBAR-SEC
100
AcDbPolyline
 90
2
 70
0
 10
387.5
 20
258.2
 10
445.0
 20
258.2
  0
LWPOLYLINE
  5
1F2
330
17
100
AcDbEntity
  8
S-REBAR-SEC
100
AcDbPolyline
 90
2
 70
0
 10
495.0
 20
258.2
 10
552.5
 20
258.2
  0
DIMENSION
  5
1F3
330
17
100
AcDbEntity
  8
S-DIM
100
AcDbDimension
280
0
  2
*D8
  3
SC-DIM
 10
400.0
 20
215.0
 30
0.0
 11
470.0
 21
216.7
 31
0.0
 70
32
 71
5
  1
<>
100
AcDbAlignedDimension
 13
400.0
 23
250.0
 33
0.0
 14
540.0
 24
250.0
 34
0.0
 50
0.0
100
AcDbRotatedDimension
1001
ACAD
1000
DSTYLE
1002
{
1070
144
1040
20.0
1002
}
  0
DIMENSION
  5
202
330
17
100
AcDbEntity
  8
S-DIM
100
AcDbDimension
280
0
  2
*D9
  3
SC-DIM
 10
380.0
 20
180.0
 30
0.0
 11
470.0
 21
181.7
 31
0.0
 70
32
 71
5
  1
<>
100
AcDbAlignedDimension
 13
380.0
 23
200.0
 33
0.0
 14
560.0
 24
200.0
 34
0.0
 50
0.0
100
AcDbRotatedDimension
1001
ACAD
1000
DSTYLE
1002
{
1070
144
1040
20.0
1002
}
  0
DIMENSION
  5
211
330
17
100
AcDbEntity
  8
S-DIM
100
AcDbDimension
280
0
  2
*D10
  3
SC-DIM
 10
580.0
 20
250.0
 30
0.0
 11
578.3
 21
255.0
 31
0.0
 70
32
 71
5
  1
<>
100
AcDbAlignedDimension
 13
560.0
 23
250.0
 33
0.0
 14
560.0
 24
260.0
 34
0.0
 50
90.0
100
AcDbRotatedDimension
1001
ACAD
1000
DSTYLE
1002
{
1070
144
1040
20.0
1002
}
  0
TEXT
  5
220
330
17
100
AcDbEntity
  8
S-TEXT
100
AcDbText
 10
390.0
 20
285.0
 30
0.0
 40
1.4
  1
Leff = 2800 + 200 = 3000  (IS 456 Cl. 22.2(a))
  7
OpenSans
 11
390.0
 21
285.0
 31
0.0
100
AcDbText
  0
INSERT
  5
221
330
17
100
AcDbEntity
  8
S-CALLOUT
100
AcDbBlockReference
  2
BARMARK
 10
450.0
 20
236.0
 30
0.0
  0
TEXT
  5
223
330
17
100
AcDbEntity
  8
S-CALLOUT
100
AcDbText
 10
450.0
 20
236.0
 30
0.0
 40
2.0
  1
ST04
  7
OpenSans
 72
1
 11
450.0
 21
236.0
 31
0.0
100
AcDbText
 73
2
  0
LEADER
  5
224
330
17
100
AcDbEntity
  8
S-CALLOUT
100
AcDbLeader
  3
SC-DIM
 73
3
 76
2
 10
470.0
 20
251.8
 30
0.0
 10
450.0
 20
236.0
 30
0.0
  0
INSERT
  5
225
330
17
100
AcDbEntity
  8
S-CALLOUT
100
AcDbBlockReference
  2
BARMARK
 10
400.0
 20
292.0
 30
0.0
  0
TEXT
  5
227
330
17
100
AcDbEntity
  8
S-CALLOUT
100
AcDbText
 10
400.0
 20
292.0
 30
0.0
 40
2.0
  1
ST05
  7
OpenSans
 72
1
 11
400.0
 21
292.0
 31
0.0
100
AcDbText
 73
2
  0
LEADER
  5
228
330
17
100
AcDbEntity
  8
S-CALLOUT
100
AcDbLeader
  3
SC-DIM
 73
3
 76
2
 10
420.0
 20
258.2
 30
0.0
 10
400.0
 20
292.0
 30
0.0
  0
TEXT
  5
229
330
17
100
AcDbEntity
  8
S-TITLE
100
AcDbText
 10
370.0
 20
300.0
 30
0.0
 40
3.5
  1
V3   LANDING SECTION - SPANNING ACROSS THE SHAFT
  7
OpenSans
 11
370.0
 21
300.0
 31
0.0
100
AcDbText
  0
LINE
  5
22A
330
17
100
AcDbEntity
  8
S-TITLE
100
AcDbLine
 10
370.0
 20
298.2
 30
0.0
 11
505.13094440723376
 21
298.2
 31
0.0
  0
TEXT
  5
22B
330
17
100
AcDbEntity
  8
S-TEXT
100
AcDbText
 10
370.0
 20
292.8
 30
0.0
 40
2.0
  1
SCALE 1:20
  7
OpenSans
 11
370.0
 21
292.8
 31
0.0
100
AcDbText
  0
TEXT
  5
22C
330
17
100
AcDbEntity
  8
S-TITLE
100
AcDbText
 10
32.0
 20
195.5
 30
0.0
 40
2.5
  1
MAIN STAIRCASE - DESIGN (IS 456, NOT IS 4991)
  7
OpenSans
 11
32.0
 21
195.5
 31
0.0
100
AcDbText
  0
TEXT
  5
22D
330
17
100
AcDbEntity
  8
S-NOTE
100
AcDbText
 10
32.0
 20
191.375
 30
0.0
 40
2.0
  1
FLIGHT - WAIST 200, IS 456 with NORMAL partial factors
  7
OpenSans
 11
32.0
 21
191.375
 31
0.0
100
AcDbText
  0
TEXT
  5
22E
330
17
100
AcDbEntity
  8
S-NOTE
100
AcDbText
 10
32.0
 20
188.325
 30
0.0
 40
2.0
  1
  theta = arctan(170.833/280) = 31.4 deg, cos theta = 0.8535
  7
OpenSans
 11
32.0
 21
188.325
 31
0.0
100
AcDbText
  0
TEXT
  5
22F
330
17
100
AcDbEntity
  8
S-NOTE
100
AcDbText
 10
32.0
 20
185.27499999999998
 30
0.0
 40
2.0
  1
  waist self 0.200 x 25 / 0.8535          =  5.858 kPa
  7
OpenSans
 11
32.0
 21
185.27499999999998
 31
0.0
100
AcDbText
  0
TEXT
  5
230
330
17
100
AcDbEntity
  8
S-NOTE
100
AcDbText
 10
32.0
 20
182.22499999999997
 30
0.0
 40
2.0
  1
  steps 0.5 x 0.170833 x 25  (Cl. 33.2)   =  2.135 kPa
  7
OpenSans
 11
32.0
 21
182.22499999999997
 31
0.0
100
AcDbText
  0
TEXT
  5
231
330
17
100
AcDbEntity
  8
S-NOTE
100
AcDbText
 10
32.0
 20
179.17499999999995
 30
0.0
 40
2.0
  1
  finishes                                 =  1.000 kPa
  7
OpenSans
 11
32.0
 21
179.17499999999995
 31
0.0
100
AcDbText
  0
TEXT
  5
232
330
17
100
AcDbEntity
  8
S-NOTE
100
AcDbText
 10
32.0
 20
176.12499999999994
 30
0.0
 40
2.0
  1
  live, IS 875 Pt 2, plant + escape route  =  5.000 kPa
  7
OpenSans
 11
32.0
 21
176.12499999999994
 31
0.0
100
AcDbText
  0
TEXT
  5
233
330
17
100
AcDbEntity
  8
S-NOTE
100
AcDbText
 10
32.0
 20
173.07499999999993
 30
0.0
 40
2.0
  1
  total 13.99  ->  wu = 1.5 x 13.99        =  21.0 kPa
  7
OpenSans
 11
32.0
 21
173.07499999999993
 31
0.0
100
AcDbText
  0
TEXT
  5
234
330
17
100
AcDbEntity
  8
S-NOTE
100
AcDbText
 10
32.0
 20
170.02499999999992
 30
0.0
 40
2.0
  1
  Leff = going + min(landing/2, 1000) each end (Cl. 33.1(b))
  7
OpenSans
 11
32.0
 21
170.02499999999992
 31
0.0
100
AcDbText
  0
TEXT
  5
235
330
17
100
AcDbEntity
  8
S-NOTE
100
AcDbText
 10
32.0
 20
166.9749999999999
 30
0.0
 40
2.0
  1
       = 1960 + 600 + 600                  =  3160 mm
  7
OpenSans
 11
32.0
 21
166.9749999999999
 31
0.0
100
AcDbText
  0
TEXT
  5
236
330
17
100
AcDbEntity
  8
S-NOTE
100
AcDbText
 10
32.0
 20
163.9249999999999
 30
0.0
 40
2.0
  1
  d = 200 - 30 - 6 = 164 ; M = wu Leff2/8  =  26.2 kNm/m
  7
OpenSans
 11
32.0
 21
163.9249999999999
 31
0.0
100
AcDbText
  0
TEXT
  5
237
330
17
100
AcDbEntity
  8
S-NOTE
100
AcDbText
 10
32.0
 20
160.8749999999999
 30
0.0
 40
2.0
  1
  Ast,req 380 ; Cl. 26.5.2.1 min 240
  7
OpenSans
 11
32.0
 21
160.8749999999999
 31
0.0
100
AcDbText
  0
TEXT
  5
238
330
17
100
AcDbEntity
  8
S-NOTE
100
AcDbText
 10
32.0
 20
157.82499999999987
 30
0.0
 40
2.0
  1
  ADOPTED  T12 @ 150 MAIN (754)  ->  Mu 50.3, UTILISATION 52 %
  7
OpenSans
 11
32.0
 21
157.82499999999987
 31
0.0
100
AcDbText
  0
TEXT
  5
239
330
17
100
AcDbEntity
  8
S-NOTE
100
AcDbText
 10
32.0
 20
154.77499999999986
 30
0.0
 40
2.0
  1
           T10 @ 200 DISTRIBUTION (393)
  7
OpenSans
 11
32.0
 21
154.77499999999986
 31
0.0
100
AcDbText
  0
TEXT
  5
23A
330
17
100
AcDbEntity
  8
S-NOTE
100
AcDbText
 10
32.0
 20
151.72499999999985
 30
0.0
 40
2.0
  1
           T12 @ 150 TOP for 0.25 Leff = 800 into the flight, Ld 480
  7
OpenSans
 11
32.0
 21
151.72499999999985
 31
0.0
100
AcDbText
  0
TEXT
  5
23B
330
17
100
AcDbEntity
  8
S-NOTE
100
AcDbText
 10
32.0
 20
148.67499999999984
 30
0.0
 40
2.0
  1
  DEFLECTION  Leff/d 19.3 ; basic 20 ; fs 146 ; pt 0.46 % ; MF ~1.9
  7
OpenSans
 11
32.0
 21
148.67499999999984
 31
0.0
100
AcDbText
  0
TEXT
  5
23C
330
17
100
AcDbEntity
  8
S-NOTE
100
AcDbText
 10
32.0
 20
145.62499999999983
 30
0.0
 40
2.0
  1
              permissible 38 >> 19.3   OK
  7
OpenSans
 11
32.0
 21
145.62499999999983
 31
0.0
100
AcDbText
  0
TEXT
  5
23D
330
17
100
AcDbEntity
  8
S-NOTE
100
AcDbText
 10
32.0
 20
142.57499999999982
 30
0.0
 40
2.0
  1
  SHEAR  V 33.2 kN/m ; tau_v 0.202 < tau_c 0.479 x k 1.20 (Cl. 40.2.1.1)
  7
OpenSans
 11
32.0
 21
142.57499999999982
 31
0.0
100
AcDbText
  0
TEXT
  5
23E
330
17
100
AcDbEntity
  8
S-NOTE
100
AcDbText
 10
32.0
 20
139.5249999999998
 30
0.0
 40
2.0
  1
         = 0.575   ->  NO LINKS REQUIRED
  7
OpenSans
 11
32.0
 21
139.5249999999998
 31
0.0
100
AcDbText
  0
TEXT
  5
23F
330
17
100
AcDbEntity
  8
S-NOTE
100
AcDbText
 10
32.0
 20
133.42499999999978
 30
0.0
 40
2.0
  1
LANDINGS L1 / L2 / ARRIVAL - 200, SPANNING ACROSS THE 2800 SHAFT
  7
OpenSans
 11
32.0
 21
133.42499999999978
 31
0.0
100
AcDbText
  0
TEXT
  5
240
330
17
100
AcDbEntity
  8
S-NOTE
100
AcDbText
 10
32.0
 20
130.37499999999977
 30
0.0
 40
2.0
  1
  self 7.50 + finishes 1.50 + live 7.50 + flight reaction 27.70 = 44.20 kPa
  7
OpenSans
 11
32.0
 21
130.37499999999977
 31
0.0
100
AcDbText
  0
TEXT
  5
241
330
17
100
AcDbEntity
  8
S-NOTE
100
AcDbText
 10
32.0
 20
127.32499999999978
 30
0.0
 40
2.0
  1
  Leff = 2800 + 200 bearing (Cl. 22.2(a))  =  3000 mm
  7
OpenSans
 11
32.0
 21
127.32499999999978
 31
0.0
100
AcDbText
  0
TEXT
  5
242
330
17
100
AcDbEntity
  8
S-NOTE
100
AcDbText
 10
32.0
 20
124.27499999999978
 30
0.0
 40
2.0
  1
  M = 44.2 x 3.000^2 / 8                   =  49.7 kNm/m
  7
OpenSans
 11
32.0
 21
124.27499999999978
 31
0.0
100
AcDbText
  0
TEXT
  5
243
330
17
100
AcDbEntity
  8
S-NOTE
100
AcDbText
 10
32.0
 20
121.22499999999978
 30
0.0
 40
2.0
  1
  Ast,req 745 ;  T12 @ 150 gives 754 = 100 %  -  TOO TIGHT
  7
OpenSans
 11
32.0
 21
121.22499999999978
 31
0.0
100
AcDbText
  0
TEXT
  5
244
330
17
100
AcDbEntity
  8
S-NOTE
100
AcDbText
 10
32.0
 20
118.17499999999978
 30
0.0
 40
2.0
  1
  ADOPTED  T12 @ 125 BOTTOM (905)  ->  Mu 59.5, UTILISATION 84 %
  7
OpenSans
 11
32.0
 21
118.17499999999978
 31
0.0
100
AcDbText
  0
TEXT
  5
245
330
17
100
AcDbEntity
  8
S-NOTE
100
AcDbText
 10
32.0
 20
115.12499999999979
 30
0.0
 40
2.0
  1
           T12 @ 125 TOP for 900 from each support ; T10 @ 200 distribution
  7
OpenSans
 11
32.0
 21
115.12499999999979
 31
0.0
100
AcDbText
  0
TEXT
  5
246
330
17
100
AcDbEntity
  8
S-NOTE
100
AcDbText
 10
32.0
 20
112.07499999999979
 30
0.0
 40
2.0
  1
  DEFLECTION 3000/164 = 18.3 ; fs 239 ; pt 0.552 % ; MF ~1.35 -> 27 > 18.3 OK
  7
OpenSans
 11
32.0
 21
112.07499999999979
 31
0.0
100
AcDbText
  0
TEXT
  5
247
330
17
100
AcDbEntity
  8
S-NOTE
100
AcDbText
 10
32.0
 20
109.02499999999979
 30
0.0
 40
2.0
  1
  SHEAR  V 66.3 kN/m ; tau_v 0.404 < tau_c 0.519 x 1.20 = 0.622   OK
  7
OpenSans
 11
32.0
 21
109.02499999999979
 31
0.0
100
AcDbText
  0
TEXT
  5
248
330
17
100
AcDbEntity
  8
S-NOTE
100
AcDbText
 10
32.0
 20
102.9249999999998
 30
0.0
 40
2.0
  1
MANUAL CALCULATION - NOT DIRECT STAAD OUTPUT.
  7
OpenSans
 11
32.0
 21
102.9249999999998
 31
0.0
100
AcDbText
  0
LWPOLYLINE
  5
249
330
17
100
AcDbEntity
  8
S-TITLE
100
AcDbPolyline
 90
4
 70
1
 10
30.0
 20
97.8749999999998
 10
360.0
 20
97.8749999999998
 10
360.0
 20
200.0
 10
30.0
 20
200.0
  0
TEXT
  5
24A
330
17
100
AcDbEntity
  8
S-TITLE
100
AcDbText
 10
648.0
 20
555.0
 30
0.0
 40
2.5
  1
BAR SCHEDULE EXTRACT - THIS SHEET
  7
OpenSans
 11
648.0
 21
555.0
 31
0.0
100
AcDbText
  0
LWPOLYLINE
  5
24B
330
17
100
AcDbEntity
  8
S-TABLE
100
AcDbPolyline
 90
4
 70
1
 10
648.0
 20
547.8
 10
757.0
 20
547.8
 10
757.0
 20
552.0
 10
648.0
 20
552.0
  0
TEXT
  5
24C
330
17
100
AcDbEntity
  8
S-TABLE
100
AcDbText
 10
649.4
 20
548.9454545454545
 30
0.0
 40
1.909090909090909
  1
MARK
  7
OpenSans
 11
649.4
 21
548.9454545454545
 31
0.0
100
AcDbText
  0
TEXT
  5
24D
330
17
100
AcDbEntity
  8
S-TABLE
100
AcDbText
 10
666.4
 20
548.9454545454545
 30
0.0
 40
1.909090909090909
  1
DIA
  7
OpenSans
 11
666.4
 21
548.9454545454545
 31
0.0
100
AcDbText
  0
TEXT
  5
24E
330
17
100
AcDbEntity
  8
S-TABLE
100
AcDbText
 10
679.4
 20
548.9454545454545
 30
0.0
 40
1.909090909090909
  1
SHP
  7
OpenSans
 11
679.4
 21
548.9454545454545
 31
0.0
100
AcDbText
  0
TEXT
  5
24F
330
17
100
AcDbEntity
  8
S-TABLE
100
AcDbText
 10
691.4
 20
548.9454545454545
 30
0.0
 40
1.909090909090909
  1
SPAC
  7
OpenSans
 11
691.4
 21
548.9454545454545
 31
0.0
100
AcDbText
  0
TEXT
  5
250
330
17
100
AcDbEntity
  8
S-TABLE
100
AcDbText
 10
706.4
 20
548.9454545454545
 30
0.0
 40
1.909090909090909
  1
No.
  7
OpenSans
 11
706.4
 21
548.9454545454545
 31
0.0
100
AcDbText
  0
TEXT
  5
251
330
17
100
AcDbEntity
  8
S-TABLE
100
AcDbText
 10
721.4
 20
548.9454545454545
 30
0.0
 40
1.909090909090909
  1
CUT
  7
OpenSans
 11
721.4
 21
548.9454545454545
 31
0.0
100
AcDbText
  0
TEXT
  5
252
330
17
100
AcDbEntity
  8
S-TABLE
100
AcDbText
 10
738.4
 20
548.9454545454545
 30
0.0
 40
1.909090909090909
  1
kg
  7
OpenSans
 11
738.4
 21
548.9454545454545
 31
0.0
100
AcDbText
  0
TEXT
  5
253
330
17
100
AcDbEntity
  8
S-TABLE
100
AcDbText
 10
649.4
 20
544.7454545454544
 30
0.0
 40
1.909090909090909
  1
ST01
  7
OpenSans
 11
649.4
 21
544.7454545454544
 31
0.0
100
AcDbText
  0
TEXT
  5
254
330
17
100
AcDbEntity
  8
S-TABLE
100
AcDbText
 10
666.4
 20
544.7454545454544
 30
0.0
 40
1.909090909090909
  1
T12
  7
OpenSans
 11
666.4
 21
544.7454545454544
 31
0.0
100
AcDbText
  0
TEXT
  5
255
330
17
100
AcDbEntity
  8
S-TABLE
100
AcDbText
 10
679.4
 20
544.7454545454544
 30
0.0
 40
1.909090909090909
  1
21
  7
OpenSans
 11
679.4
 21
544.7454545454544
 31
0.0
100
AcDbText
  0
TEXT
  5
256
330
17
100
AcDbEntity
  8
S-TABLE
100
AcDbText
 10
691.4
 20
544.7454545454544
 30
0.0
 40
1.909090909090909
  1
150
  7
OpenSans
 11
691.4
 21
544.7454545454544
 31
0.0
100
AcDbText
  0
TEXT
  5
257
330
17
100
AcDbEntity
  8
S-TABLE
100
AcDbText
 10
706.4
 20
544.7454545454544
 30
0.0
 40
1.909090909090909
  1
24
  7
OpenSans
 11
706.4
 21
544.7454545454544
 31
0.0
100
AcDbText
  0
TEXT
  5
258
330
17
100
AcDbEntity
  8
S-TABLE
100
AcDbText
 10
721.4
 20
544.7454545454544
 30
0.0
 40
1.909090909090909
  1
3496
  7
OpenSans
 11
721.4
 21
544.7454545454544
 31
0.0
100
AcDbText
  0
TEXT
  5
259
330
17
100
AcDbEntity
  8
S-TABLE
100
AcDbText
 10
738.4
 20
544.7454545454544
 30
0.0
 40
1.909090909090909
  1
74
  7
OpenSans
 11
738.4
 21
544.7454545454544
 31
0.0
100
AcDbText
  0
LINE
  5
25A
330
17
100
AcDbEntity
  8
S-TABLE
100
AcDbLine
 10
648.0
 20
543.5999999999999
 30
0.0
 11
757.0
 21
543.5999999999999
 31
0.0
  0
TEXT
  5
25B
330
17
100
AcDbEntity
  8
S-TABLE
100
AcDbText
 10
649.4
 20
540.5454545454544
 30
0.0
 40
1.909090909090909
  1
ST02
  7
OpenSans
 11
649.4
 21
540.5454545454544
 31
0.0
100
AcDbText
  0
TEXT
  5
25C
330
17
100
AcDbEntity
  8
S-TABLE
100
AcDbText
 10
666.4
 20
540.5454545454544
 30
0.0
 40
1.909090909090909
  1
T10
  7
OpenSans
 11
666.4
 21
540.5454545454544
 31
0.0
100
AcDbText
  0
TEXT
  5
25D
330
17
100
AcDbEntity
  8
S-TABLE
100
AcDbText
 10
679.4
 20
540.5454545454544
 30
0.0
 40
1.909090909090909
  1
00
  7
OpenSans
 11
679.4
 21
540.5454545454544
 31
0.0
100
AcDbText
  0
TEXT
  5
25E
330
17
100
AcDbEntity
  8
S-TABLE
100
AcDbText
 10
691.4
 20
540.5454545454544
 30
0.0
 40
1.909090909090909
  1
200
  7
OpenSans
 11
691.4
 21
540.5454545454544
 31
0.0
100
AcDbText
  0
TEXT
  5
25F
330
17
100
AcDbEntity
  8
S-TABLE
100
AcDbText
 10
706.4
 20
540.5454545454544
 30
0.0
 40
1.909090909090909
  1
36
  7
OpenSans
 11
706.4
 21
540.5454545454544
 31
0.0
100
AcDbText
  0
TEXT
  5
260
330
17
100
AcDbEntity
  8
S-TABLE
100
AcDbText
 10
721.4
 20
540.5454545454544
 30
0.0
 40
1.909090909090909
  1
1140
  7
OpenSans
 11
721.4
 21
540.5454545454544
 31
0.0
100
AcDbText
  0
TEXT
  5
261
330
17
100
AcDbEntity
  8
S-TABLE
100
AcDbText
 10
738.4
 20
540.5454545454544
 30
0.0
 40
1.909090909090909
  1
25
  7
OpenSans
 11
738.4
 21
540.5454545454544
 31
0.0
100
AcDbText
  0
LINE
  5
262
330
17
100
AcDbEntity
  8
S-TABLE
100
AcDbLine
 10
648.0
 20
539.3999999999999
 30
0.0
 11
757.0
 21
539.3999999999999
 31
0.0
  0
TEXT
  5
263
330
17
100
AcDbEntity
  8
S-TABLE
100
AcDbText
 10
649.4
 20
536.3454545454543
 30
0.0
 40
1.909090909090909
  1
ST03
  7
OpenSans
 11
649.4
 21
536.3454545454543
 31
0.0
100
AcDbText
  0
TEXT
  5
264
330
17
100
AcDbEntity
  8
S-TABLE
100
AcDbText
 10
666.4
 20
536.3454545454543
 30
0.0
 40
1.909090909090909
  1
T12
  7
OpenSans
 11
666.4
 21
536.3454545454543
 31
0.0
100
AcDbText
  0
TEXT
  5
265
330
17
100
AcDbEntity
  8
S-TABLE
100
AcDbText
 10
679.4
 20
536.3454545454543
 30
0.0
 40
1.909090909090909
  1
00
  7
OpenSans
 11
679.4
 21
536.3454545454543
 31
0.0
100
AcDbText
  0
TEXT
  5
266
330
17
100
AcDbEntity
  8
S-TABLE
100
AcDbText
 10
691.4
 20
536.3454545454543
 30
0.0
 40
1.909090909090909
  1
150
  7
OpenSans
 11
691.4
 21
536.3454545454543
 31
0.0
100
AcDbText
  0
TEXT
  5
267
330
17
100
AcDbEntity
  8
S-TABLE
100
AcDbText
 10
706.4
 20
536.3454545454543
 30
0.0
 40
1.909090909090909
  1
48
  7
OpenSans
 11
706.4
 21
536.3454545454543
 31
0.0
100
AcDbText
  0
TEXT
  5
268
330
17
100
AcDbEntity
  8
S-TABLE
100
AcDbText
 10
721.4
 20
536.3454545454543
 30
0.0
 40
1.909090909090909
  1
1280
  7
OpenSans
 11
721.4
 21
536.3454545454543
 31
0.0
100
AcDbText
  0
TEXT
  5
269
330
17
100
AcDbEntity
  8
S-TABLE
100
AcDbText
 10
738.4
 20
536.3454545454543
 30
0.0
 40
1.909090909090909
  1
55
  7
OpenSans
 11
738.4
 21
536.3454545454543
 31
0.0
100
AcDbText
  0
LINE
  5
26A
330
17
100
AcDbEntity
  8
S-TABLE
100
AcDbLine
 10
648.0
 20
535.1999999999998
 30
0.0
 11
757.0
 21
535.1999999999998
 31
0.0
  0
TEXT
  5
26B
330
17
100
AcDbEntity
  8
S-TABLE
100
AcDbText
 10
649.4
 20
532.1454545454543
 30
0.0
 40
1.909090909090909
  1
ST04
  7
OpenSans
 11
649.4
 21
532.1454545454543
 31
0.0
100
AcDbText
  0
TEXT
  5
26C
330
17
100
AcDbEntity
  8
S-TABLE
100
AcDbText
 10
666.4
 20
532.1454545454543
 30
0.0
 40
1.909090909090909
  1
T12
  7
OpenSans
 11
666.4
 21
532.1454545454543
 31
0.0
100
AcDbText
  0
TEXT
  5
26D
330
17
100
AcDbEntity
  8
S-TABLE
100
AcDbText
 10
679.4
 20
532.1454545454543
 30
0.0
 40
1.909090909090909
  1
00
  7
OpenSans
 11
679.4
 21
532.1454545454543
 31
0.0
100
AcDbText
  0
TEXT
  5
26E
330
17
100
AcDbEntity
  8
S-TABLE
100
AcDbText
 10
691.4
 20
532.1454545454543
 30
0.0
 40
1.909090909090909
  1
125
  7
OpenSans
 11
691.4
 21
532.1454545454543
 31
0.0
100
AcDbText
  0
TEXT
  5
26F
330
17
100
AcDbEntity
  8
S-TABLE
100
AcDbText
 10
706.4
 20
532.1454545454543
 30
0.0
 40
1.909090909090909
  1
20
  7
OpenSans
 11
706.4
 21
532.1454545454543
 31
0.0
100
AcDbText
  0
TEXT
  5
270
330
17
100
AcDbEntity
  8
S-TABLE
100
AcDbText
 10
721.4
 20
532.1454545454543
 30
0.0
 40
1.909090909090909
  1
3200
  7
OpenSans
 11
721.4
 21
532.1454545454543
 31
0.0
100
AcDbText
  0
TEXT
  5
271
330
17
100
AcDbEntity
  8
S-TABLE
100
AcDbText
 10
738.4
 20
532.1454545454543
 30
0.0
 40
1.909090909090909
  1
57
  7
OpenSans
 11
738.4
 21
532.1454545454543
 31
0.0
100
AcDbText
  0
LINE
  5
272
330
17
100
AcDbEntity
  8
S-TABLE
100
AcDbLine
 10
648.0
 20
530.9999999999998
 30
0.0
 11
757.0
 21
530.9999999999998
 31
0.0
  0
TEXT
  5
273
330
17
100
AcDbEntity
  8
S-TABLE
100
AcDbText
 10
649.4
 20
527.9454545454543
 30
0.0
 40
1.909090909090909
  1
ST05
  7
OpenSans
 11
649.4
 21
527.9454545454543
 31
0.0
100
AcDbText
  0
TEXT
  5
274
330
17
100
AcDbEntity
  8
S-TABLE
100
AcDbText
 10
666.4
 20
527.9454545454543
 30
0.0
 40
1.909090909090909
  1
T12
  7
OpenSans
 11
666.4
 21
527.9454545454543
 31
0.0
100
AcDbText
  0
TEXT
  5
275
330
17
100
AcDbEntity
  8
S-TABLE
100
AcDbText
 10
679.4
 20
527.9454545454543
 30
0.0
 40
1.909090909090909
  1
00
  7
OpenSans
 11
679.4
 21
527.9454545454543
 31
0.0
100
AcDbText
  0
TEXT
  5
276
330
17
100
AcDbEntity
  8
S-TABLE
100
AcDbText
 10
691.4
 20
527.9454545454543
 30
0.0
 40
1.909090909090909
  1
125
  7
OpenSans
 11
691.4
 21
527.9454545454543
 31
0.0
100
AcDbText
  0
TEXT
  5
277
330
17
100
AcDbEntity
  8
S-TABLE
100
AcDbText
 10
706.4
 20
527.9454545454543
 30
0.0
 40
1.909090909090909
  1
40
  7
OpenSans
 11
706.4
 21
527.9454545454543
 31
0.0
100
AcDbText
  0
TEXT
  5
278
330
17
100
AcDbEntity
  8
S-TABLE
100
AcDbText
 10
721.4
 20
527.9454545454543
 30
0.0
 40
1.909090909090909
  1
1380
  7
OpenSans
 11
721.4
 21
527.9454545454543
 31
0.0
100
AcDbText
  0
TEXT
  5
279
330
17
100
AcDbEntity
  8
S-TABLE
100
AcDbText
 10
738.4
 20
527.9454545454543
 30
0.0
 40
1.909090909090909
  1
49
  7
OpenSans
 11
738.4
 21
527.9454545454543
 31
0.0
100
AcDbText
  0
LINE
  5
27A
330
17
100
AcDbEntity
  8
S-TABLE
100
AcDbLine
 10
648.0
 20
526.7999999999997
 30
0.0
 11
757.0
 21
526.7999999999997
 31
0.0
  0
TEXT
  5
27B
330
17
100
AcDbEntity
  8
S-TABLE
100
AcDbText
 10
649.4
 20
523.7454545454542
 30
0.0
 40
1.909090909090909
  1
ST06
  7
OpenSans
 11
649.4
 21
523.7454545454542
 31
0.0
100
AcDbText
  0
TEXT
  5
27C
330
17
100
AcDbEntity
  8
S-TABLE
100
AcDbText
 10
666.4
 20
523.7454545454542
 30
0.0
 40
1.909090909090909
  1
T10
  7
OpenSans
 11
666.4
 21
523.7454545454542
 31
0.0
100
AcDbText
  0
TEXT
  5
27D
330
17
100
AcDbEntity
  8
S-TABLE
100
AcDbText
 10
679.4
 20
523.7454545454542
 30
0.0
 40
1.909090909090909
  1
00
  7
OpenSans
 11
679.4
 21
523.7454545454542
 31
0.0
100
AcDbText
  0
TEXT
  5
27E
330
17
100
AcDbEntity
  8
S-TABLE
100
AcDbText
 10
691.4
 20
523.7454545454542
 30
0.0
 40
1.909090909090909
  1
200
  7
OpenSans
 11
691.4
 21
523.7454545454542
 31
0.0
100
AcDbText
  0
TEXT
  5
27F
330
17
100
AcDbEntity
  8
S-TABLE
100
AcDbText
 10
706.4
 20
523.7454545454542
 30
0.0
 40
1.909090909090909
  1
30
  7
OpenSans
 11
706.4
 21
523.7454545454542
 31
0.0
100
AcDbText
  0
TEXT
  5
280
330
17
100
AcDbEntity
  8
S-TABLE
100
AcDbText
 10
721.4
 20
523.7454545454542
 30
0.0
 40
1.909090909090909
  1
1140
  7
OpenSans
 11
721.4
 21
523.7454545454542
 31
0.0
100
AcDbText
  0
TEXT
  5
281
330
17
100
AcDbEntity
  8
S-TABLE
100
AcDbText
 10
738.4
 20
523.7454545454542
 30
0.0
 40
1.909090909090909
  1
21
  7
OpenSans
 11
738.4
 21
523.7454545454542
 31
0.0
100
AcDbText
  0
LINE
  5
282
330
17
100
AcDbEntity
  8
S-TABLE
100
AcDbLine
 10
648.0
 20
522.5999999999997
 30
0.0
 11
757.0
 21
522.5999999999997
 31
0.0
  0
LINE
  5
283
330
17
100
AcDbEntity
  8
S-TABLE
100
AcDbLine
 10
648.0
 20
552.0
 30
0.0
 11
757.0
 21
552.0
 31
0.0
  0
LINE
  5
284
330
17
100
AcDbEntity
  8
S-TABLE
100
AcDbLine
 10
648.0
 20
552.0
 30
0.0
 11
648.0
 21
522.5999999999997
 31
0.0
  0
LINE
  5
285
330
17
100
AcDbEntity
  8
S-TABLE
100
AcDbLine
 10
665.0
 20
552.0
 30
0.0
 11
665.0
 21
522.5999999999997
 31
0.0
  0
LINE
  5
286
330
17
100
AcDbEntity
  8
S-TABLE
100
AcDbLine
 10
678.0
 20
552.0
 30
0.0
 11
678.0
 21
522.5999999999997
 31
0.0
  0
LINE
  5
287
330
17
100
AcDbEntity
  8
S-TABLE
100
AcDbLine
 10
690.0
 20
552.0
 30
0.0
 11
690.0
 21
522.5999999999997
 31
0.0
  0
LINE
  5
288
330
17
100
AcDbEntity
  8
S-TABLE
100
AcDbLine
 10
705.0
 20
552.0
 30
0.0
 11
705.0
 21
522.5999999999997
 31
0.0
  0
LINE
  5
289
330
17
100
AcDbEntity
  8
S-TABLE
100
AcDbLine
 10
720.0
 20
552.0
 30
0.0
 11
720.0
 21
522.5999999999997
 31
0.0
  0
LINE
  5
28A
330
17
100
AcDbEntity
  8
S-TABLE
100
AcDbLine
 10
737.0
 20
552.0
 30
0.0
 11
737.0
 21
522.5999999999997
 31
0.0
  0
LINE
  5
28B
330
17
100
AcDbEntity
  8
S-TABLE
100
AcDbLine
 10
757.0
 20
552.0
 30
0.0
 11
757.0
 21
522.5999999999997
 31
0.0
  0
TEXT
  5
28C
330
17
100
AcDbEntity
  8
S-TABLE
100
AcDbText
 10
648.0
 20
518.1999999999997
 30
0.0
 40
1.4
  1
SHEET SUB-TOTAL  281 kg     FULL SCHEDULE: R-004 and Structural CAD/Schedules/BBS_MASTER.md
  7
OpenSans
 11
648.0
 21
518.1999999999997
 31
0.0
100
AcDbText
  0
TEXT
  5
28D
330
17
100
AcDbEntity
  8
S-TITLE
100
AcDbText
 10
650.0
 20
465.5
 30
0.0
 40
2.5
  1
WHY T12 @ 125 AND NOT @ 150
  7
OpenSans
 11
650.0
 21
465.5
 31
0.0
100
AcDbText
  0
TEXT
  5
28E
330
17
100
AcDbEntity
  8
S-NOTE
100
AcDbText
 10
650.0
 20
461.375
 30
0.0
 40
2.0
  1
The landing needs 745 mm2/m.
  7
OpenSans
 11
650.0
 21
461.375
 31
0.0
100
AcDbText
  0
TEXT
  5
28F
330
17
100
AcDbEntity
  8
S-NOTE
100
AcDbText
 10
650.0
 20
458.325
 30
0.0
 40
2.0
  1
T12 @ 150 provides 754 mm2/m.
  7
OpenSans
 11
650.0
 21
458.325
 31
0.0
100
AcDbText
  0
TEXT
  5
290
330
17
100
AcDbEntity
  8
S-NOTE
100
AcDbText
 10
650.0
 20
452.22499999999997
 30
0.0
 40
2.0
  1
That is 100.1 % of requirement - a margin of
  7
OpenSans
 11
650.0
 21
452.22499999999997
 31
0.0
100
AcDbText
  0
TEXT
  5
291
330
17
100
AcDbEntity
  8
S-NOTE
100
AcDbText
 10
650.0
 20
449.17499999999995
 30
0.0
 40
2.0
  1
9 mm2/m, or about one per cent of one bar.
  7
OpenSans
 11
650.0
 21
449.17499999999995
 31
0.0
100
AcDbText
  0
TEXT
  5
292
330
17
100
AcDbEntity
  8
S-NOTE
100
AcDbText
 10
650.0
 20
443.07499999999993
 30
0.0
 40
2.0
  1
IT IS TOO TIGHT TO BUILD TO.  A single bar
  7
OpenSans
 11
650.0
 21
443.07499999999993
 31
0.0
100
AcDbText
  0
TEXT
  5
293
330
17
100
AcDbEntity
  8
S-NOTE
100
AcDbText
 10
650.0
 20
440.0249999999999
 30
0.0
 40
2.0
  1
displaced to clear a service, or a 10 mm
  7
OpenSans
 11
650.0
 21
440.0249999999999
 31
0.0
100
AcDbText
  0
TEXT
  5
294
330
17
100
AcDbEntity
  8
S-NOTE
100
AcDbText
 10
650.0
 20
436.9749999999999
 30
0.0
 40
2.0
  1
setting-out error on the landing span, would
  7
OpenSans
 11
650.0
 21
436.9749999999999
 31
0.0
100
AcDbText
  0
TEXT
  5
295
330
17
100
AcDbEntity
  8
S-NOTE
100
AcDbText
 10
650.0
 20
433.9249999999999
 30
0.0
 40
2.0
  1
put the section into deficit.
  7
OpenSans
 11
650.0
 21
433.9249999999999
 31
0.0
100
AcDbText
  0
TEXT
  5
296
330
17
100
AcDbEntity
  8
S-NOTE
100
AcDbText
 10
650.0
 20
427.8249999999999
 30
0.0
 40
2.0
  1
T12 @ 125 gives 905 mm2/m and 84 % utilisation.
  7
OpenSans
 11
650.0
 21
427.8249999999999
 31
0.0
100
AcDbText
  0
TEXT
  5
297
330
17
100
AcDbEntity
  8
S-NOTE
100
AcDbText
 10
650.0
 20
424.77499999999986
 30
0.0
 40
2.0
  1
The extra steel costs almost nothing; the RFI
  7
OpenSans
 11
650.0
 21
424.77499999999986
 31
0.0
100
AcDbText
  0
TEXT
  5
298
330
17
100
AcDbEntity
  8
S-NOTE
100
AcDbText
 10
650.0
 20
421.72499999999985
 30
0.0
 40
2.0
  1
it avoids does not.
  7
OpenSans
 11
650.0
 21
421.72499999999985
 31
0.0
100
AcDbText
  0
LWPOLYLINE
  5
299
330
17
100
AcDbEntity
  8
S-TITLE
100
AcDbPolyline
 90
4
 70
1
 10
648.0
 20
416.67499999999984
 10
831.0
 20
416.67499999999984
 10
831.0
 20
470.0
 10
648.0
 20
470.0
  0
LWPOLYLINE
  5
29A
330
17
100
AcDbEntity
  8
S-TITLE
100
AcDbPolyline
 90
4
 70
1
 10
651.0
 20
10.0
 10
831.0
 20
10.0
 10
831.0
 20
110.0
 10
651.0
 20
110.0
  0
LINE
  5
29B
330
17
100
AcDbEntity
  8
S-TITLE
100
AcDbLine
 10
651.0
 20
30.0
 30
0.0
 11
831.0
 21
30.0
 31
0.0
  0
LINE
  5
29C
330
17
100
AcDbEntity
  8
S-TITLE
100
AcDbLine
 10
651.0
 20
42.0
 30
0.0
 11
831.0
 21
42.0
 31
0.0
  0
LINE
  5
29D
330
17
100
AcDbEntity
  8
S-TITLE
100
AcDbLine
 10
651.0
 20
54.0
 30
0.0
 11
831.0
 21
54.0
 31
0.0
  0
LINE
  5
29E
330
17
100
AcDbEntity
  8
S-TITLE
100
AcDbLine
 10
651.0
 20
66.0
 30
0.0
 11
831.0
 21
66.0
 31
0.0
  0
LINE
  5
29F
330
17
100
AcDbEntity
  8
S-TITLE
100
AcDbLine
 10
651.0
 20
88.0
 30
0.0
 11
831.0
 21
88.0
 31
0.0
  0
LINE
  5
2A0
330
17
100
AcDbEntity
  8
S-TITLE
100
AcDbLine
 10
763.0
 20
10.0
 30
0.0
 11
763.0
 21
30.0
 31
0.0
  0
LINE
  5
2A1
330
17
100
AcDbEntity
  8
S-TITLE
100
AcDbLine
 10
797.0
 20
10.0
 30
0.0
 11
797.0
 21
30.0
 31
0.0
  0
TEXT
  5
2A2
330
17
100
AcDbEntity
  8
S-TITLE
100
AcDbText
 10
653.0
 20
24.6
 30
0.0
 40
1.4
  1
DRAWING No.
  7
OpenSans
 11
653.0
 21
24.6
 31
0.0
100
AcDbText
  0
TEXT
  5
2A3
330
17
100
AcDbEntity
  8
S-TITLE
100
AcDbText
 10
673.0
 20
14.2
 30
0.0
 40
3.5
  1
R-602
  7
OpenSans
 11
673.0
 21
14.2
 31
0.0
100
AcDbText
  0
TEXT
  5
2A4
330
17
100
AcDbEntity
  8
S-TITLE
100
AcDbText
 10
765.0
 20
24.6
 30
0.0
 40
1.4
  1
REV
  7
OpenSans
 11
765.0
 21
24.6
 31
0.0
100
AcDbText
  0
TEXT
  5
2A5
330
17
100
AcDbEntity
  8
S-TITLE
100
AcDbText
 10
769.0
 20
14.2
 30
0.0
 40
3.5
  1
SC1
  7
OpenSans
 11
769.0
 21
14.2
 31
0.0
100
AcDbText
  0
TEXT
  5
2A6
330
17
100
AcDbEntity
  8
S-TITLE
100
AcDbText
 10
799.0
 20
24.6
 30
0.0
 40
1.4
  1
SHEET
  7
OpenSans
 11
799.0
 21
24.6
 31
0.0
100
AcDbText
  0
TEXT
  5
2A7
330
17
100
AcDbEntity
  8
S-TITLE
100
AcDbText
 10
799.0
 20
15.0
 30
0.0
 40
1.6
  1
20 OF 30
  7
OpenSans
 11
799.0
 21
15.0
 31
0.0
100
AcDbText
  0
LINE
  5
2A8
330
17
100
AcDbEntity
  8
S-TITLE
100
AcDbLine
 10
747.0
 20
30.0
 30
0.0
 11
747.0
 21
42.0
 31
0.0
  0
TEXT
  5
2A9
330
17
100
AcDbEntity
  8
S-TITLE
100
AcDbText
 10
653.0
 20
34.4
 30
0.0
 40
1.6
  1
SCALE   1:25, 1:20, 1:10
  7
OpenSans
 11
653.0
 21
34.4
 31
0.0
100
AcDbText
  0
TEXT
  5
2AA
330
17
100
AcDbEntity
  8
S-TITLE
100
AcDbText
 10
749.0
 20
34.4
 30
0.0
 40
1.6
  1
DATE   04.09.2026
  7
OpenSans
 11
749.0
 21
34.4
 31
0.0
100
AcDbText
  0
TEXT
  5
2AB
330
17
100
AcDbEntity
  8
S-TITLE
100
AcDbText
 10
653.0
 20
46.4
 30
0.0
 40
1.4
  1
DESIGNED  [PLACEHOLDER]
  7
OpenSans
 11
653.0
 21
46.4
 31
0.0
100
AcDbText
  0
TEXT
  5
2AC
330
17
100
AcDbEntity
  8
S-TITLE
100
AcDbText
 10
713.0
 20
46.4
 30
0.0
 40
1.4
  1
CHECKED  [PLACEHOLDER]
  7
OpenSans
 11
713.0
 21
46.4
 31
0.0
100
AcDbText
  0
TEXT
  5
2AD
330
17
100
AcDbEntity
  8
S-TITLE
100
AcDbText
 10
773.0
 20
46.4
 30
0.0
 40
1.4
  1
APPROVED  [PLACEHOLDER]
  7
OpenSans
 11
773.0
 21
46.4
 31
0.0
100
AcDbText
  0
TEXT
  5
2AE
330
17
100
AcDbEntity
  8
S-TITLE
100
AcDbText
 10
653.0
 20
58.4
 30
0.0
 40
1.4
  1
STATUS
  7
OpenSans
 11
653.0
 21
58.4
 31
0.0
100
AcDbText
  0
TEXT
  5
2AF
330
17
100
AcDbEntity
  8
S-BLAST
100
AcDbText
 10
673.0
 20
58.0
 30
0.0
 40
1.6
  1
FOR REVIEW - NOT FOR CONSTRUCTION
  7
OpenSans
 11
673.0
 21
58.0
 31
0.0
100
AcDbText
  0
TEXT
  5
2B0
330
17
100
AcDbEntity
  8
S-TITLE
100
AcDbText
 10
653.0
 20
83.4
 30
0.0
 40
1.4
  1
DRAWING TITLE
  7
OpenSans
 11
653.0
 21
83.4
 31
0.0
100
AcDbText
  0
TEXT
  5
2B1
330
17
100
AcDbEntity
  8
S-TITLE
100
AcDbText
 10
653.0
 20
75.4
 30
0.0
 40
2.4
  1
MAIN STAIRCASE SECTIONS
  7
OpenSans
 11
653.0
 21
75.4
 31
0.0
100
AcDbText
  0
TEXT
  5
2B2
330
17
100
AcDbEntity
  8
S-TITLE
100
AcDbText
 10
653.0
 20
68.8
 30
0.0
 40
1.4
  1
SECTION A-A LONGITUDINAL · FLIGHT CROSS-SECTION · LANDING SECTION
  7
OpenSans
 11
653.0
 21
68.8
 31
0.0
100
AcDbText
  0
TEXT
  5
2B3
330
17
100
AcDbEntity
  8
S-TITLE
100
AcDbText
 10
653.0
 20
105.2
 30
0.0
 40
1.4
  1
PROJECT
  7
OpenSans
 11
653.0
 21
105.2
 31
0.0
100
AcDbText
  0
TEXT
  5
2B4
330
17
100
AcDbEntity
  8
S-TITLE
100
AcDbText
 10
653.0
 20
99.6
 30
0.0
 40
1.6
  1
UNDERGROUND CBRN-HARDENED BLAST-RESISTANT
  7
OpenSans
 11
653.0
 21
99.6
 31
0.0
100
AcDbText
  0
TEXT
  5
2B5
330
17
100
AcDbEntity
  8
S-TITLE
100
AcDbText
 10
653.0
 20
95.0
 30
0.0
 40
1.6
  1
PROTECTIVE STRUCTURE  -  PUNE, MAHARASHTRA
  7
OpenSans
 11
653.0
 21
95.0
 31
0.0
100
AcDbText
  0
TEXT
  5
2B6
330
17
100
AcDbEntity
  8
S-TITLE
100
AcDbText
 10
653.0
 20
90.0
 30
0.0
 40
1.4
  1
STRUCTURAL PHASE 2 REV A + M1   ·   SENTRY POST NOT IN THIS PACKAGE
  7
OpenSans
 11
653.0
 21
90.0
 31
0.0
100
AcDbText
  0
ENDSEC
  0
SECTION
  2
OBJECTS
  0
DICTIONARY
  5
A
330
0
100
AcDbDictionary
281
1
  3
ACAD_COLOR
350
B
  3
ACAD_GROUP
350
C
  3
ACAD_LAYOUT
350
D
  3
ACAD_MATERIAL
350
E
  3
ACAD_MLEADERSTYLE
350
F
  3
ACAD_MLINESTYLE
350
10
  3
ACAD_PLOTSETTINGS
350
11
  3
ACAD_PLOTSTYLENAME
350
12
  3
ACAD_SCALELIST
350
14
  3
ACAD_TABLESTYLE
350
15
  3
ACAD_VISUALSTYLE
350
16
  3
EZDXF_META
350
2D
  0
DICTIONARY
  5
B
330
A
100
AcDbDictionary
281
1
  0
DICTIONARY
  5
C
330
A
100
AcDbDictionary
281
1
  0
DICTIONARY
  5
D
330
A
100
AcDbDictionary
281
1
  3
Model
350
1A
  3
Layout1
350
1E
  0
DICTIONARY
  5
E
330
A
100
AcDbDictionary
281
1
  3
ByBlock
350
1F
  3
ByLayer
350
20
  3
Global
350
21
  0
DICTIONARY
  5
F
330
A
100
AcDbDictionary
281
1
  3
Standard
350
2C
  0
DICTIONARY
  5
10
330
A
100
AcDbDictionary
281
1
  3
Standard
350
22
  0
DICTIONARY
  5
11
330
A
100
AcDbDictionary
281
1
  0
ACDBDICTIONARYWDFLT
  5
12
330
A
100
AcDbDictionary
281
1
  3
Normal
350
13
100
AcDbDictionaryWithDefault
340
13
  0
ACDBPLACEHOLDER
  5
13
330
12
  0
DICTIONARY
  5
14
330
A
100
AcDbDictionary
281
1
  0
DICTIONARY
  5
15
330
A
100
AcDbDictionary
281
1
  0
DICTIONARY
  5
16
330
A
100
AcDbDictionary
281
1
  3
2dWireframe
350
5A
  3
Basic
350
5B
  3
Brighten
350
5C
  3
ColorChange
350
5D
  3
Conceptual
350
5E
  3
Dim
350
5F
  3
EdgeColorOff
350
60
  3
Facepattern
350
61
  3
Flat
350
62
  3
FlatWithEdges
350
63
  3
Gouraud
350
64
  3
GouraudWithEdges
350
65
  3
Hidden
350
66
  3
JitterOff
350
67
  3
Linepattern
350
68
  3
Modeling
350
69
  3
OverhangOff
350
6A
  3
Realistic
350
6B
  3
Shaded
350
6C
  3
Shaded with edges
350
6D
  3
Shades of Gray
350
6E
  3
Sketchy
350
6F
  3
Thicken
350
70
  3
Wireframe
350
71
  3
X-Ray
350
72
  0
LAYOUT
  5
1A
330
D
100
AcDbPlotSettings
  1

  4
A3
  6

 40
7.5
 41
20.0
 42
7.5
 43
20.0
 44
420.0
 45
297.0
 46
0.0
 47
0.0
 48
0.0
 49
0.0
140
0.0
141
0.0
142
1.0
143
1.0
 70
1024
 72
1
 73
0
 74
5
  7

 75
16
 76
0
 77
2
 78
300
147
1.0
148
0.0
149
0.0
100
AcDbLayout
  1
Model
 70
1
 71
0
 10
0.0
 20
0.0
 11
420.0
 21
297.0
 12
0.0
 22
0.0
 32
0.0
 14
1e+20
 24
1e+20
 34
1e+20
 15
-1e+20
 25
-1e+20
 35
-1e+20
146
0.0
 13
0.0
 23
0.0
 33
0.0
 16
1.0
 26
0.0
 36
0.0
 17
0.0
 27
1.0
 37
0.0
 76
1
330
17
  0
LAYOUT
  5
1E
330
D
100
AcDbPlotSettings
  1

  4
A3
  6

 40
7.5
 41
20.0
 42
7.5
 43
20.0
 44
420.0
 45
297.0
 46
0.0
 47
0.0
 48
0.0
 49
0.0
140
0.0
141
0.0
142
1.0
143
1.0
 70
0
 72
1
 73
0
 74
5
  7

 75
16
 76
0
 77
2
 78
300
147
1.0
148
0.0
149
0.0
100
AcDbLayout
  1
Layout1
 70
1
 71
1
 10
0.0
 20
0.0
 11
420.0
 21
297.0
 12
0.0
 22
0.0
 32
0.0
 14
1e+20
 24
1e+20
 34
1e+20
 15
-1e+20
 25
-1e+20
 35
-1e+20
146
0.0
 13
0.0
 23
0.0
 33
0.0
 16
1.0
 26
0.0
 36
0.0
 17
0.0
 27
1.0
 37
0.0
 76
1
330
1B
  0
MATERIAL
  5
1F
102
{ACAD_REACTORS
330
E
102
}
330
E
100
AcDbMaterial
  1
ByBlock
  2

 70
0
 40
1.0
 71
1
 41
1.0
 91
-1023410177
 42
1.0
 72
1
  3

 73
1
 74
1
 75
1
 44
0.5
 73
0
 45
1.0
 46
1.0
 77
1
  4

 78
1
 79
1
170
1
 48
1.0
171
1
  6

172
1
173
1
174
1
140
1.0
141
1.0
175
1
  7

176
1
177
1
178
1
143
1.0
179
1
  8

270
1
271
1
272
1
145
1.0
146
1.0
273
1
  9

274
1
275
1
276
1
 42
1.0
 72
1
  3

 73
1
 74
1
 75
1
 94
63
  0
MATERIAL
  5
20
102
{ACAD_REACTORS
330
E
102
}
330
E
100
AcDbMaterial
  1
ByLayer
  2

 70
0
 40
1.0
 71
1
 41
1.0
 91
-1023410177
 42
1.0
 72
1
  3

 73
1
 74
1
 75
1
 44
0.5
 73
0
 45
1.0
 46
1.0
 77
1
  4

 78
1
 79
1
170
1
 48
1.0
171
1
  6

172
1
173
1
174
1
140
1.0
141
1.0
175
1
  7

176
1
177
1
178
1
143
1.0
179
1
  8

270
1
271
1
272
1
145
1.0
146
1.0
273
1
  9

274
1
275
1
276
1
 42
1.0
 72
1
  3

 73
1
 74
1
 75
1
 94
63
  0
MATERIAL
  5
21
102
{ACAD_REACTORS
330
E
102
}
330
E
100
AcDbMaterial
  1
Global
  2

 70
0
 40
1.0
 71
1
 41
1.0
 91
-1023410177
 42
1.0
 72
1
  3

 73
1
 74
1
 75
1
 44
0.5
 73
0
 45
1.0
 46
1.0
 77
1
  4

 78
1
 79
1
170
1
 48
1.0
171
1
  6

172
1
173
1
174
1
140
1.0
141
1.0
175
1
  7

176
1
177
1
178
1
143
1.0
179
1
  8

270
1
271
1
272
1
145
1.0
146
1.0
273
1
  9

274
1
275
1
276
1
 42
1.0
 72
1
  3

 73
1
 74
1
 75
1
 94
63
  0
MLINESTYLE
  5
22
102
{ACAD_REACTORS
330
10
102
}
330
10
100
AcDbMlineStyle
  2
Standard
 70
0
  3

 62
256
 51
90.0
 52
90.0
 71
2
 49
0.5
 62
256
  6
BYLAYER
 49
-0.5
 62
256
  6
BYLAYER
  0
MLEADERSTYLE
  5
2C
102
{ACAD_REACTORS
330
F
102
}
330
F
100
AcDbMLeaderStyle
179
2
170
2
171
1
172
0
 90
2
 40
0.0
 41
0.0
173
1
 91
-1056964608
 92
-2
290
1
 42
2.0
291
1
 43
8.0
  3
Standard
 44
4.0
300

342
29
174
1
175
1
176
0
178
1
 93
-1056964608
 45
4.0
292
0
297
0
 46
4.0
 94
-1056964608
 47
1.0
 49
1.0
140
1.0
294
1
141
0.0
177
0
142
1.0
295
0
296
0
143
3.75
271
0
272
9
273
9
  0
DICTIONARY
  5
2D
330
A
100
AcDbDictionary
280
1
281
1
  3
CREATED_BY_EZDXF
350
2E
  3
WRITTEN_BY_EZDXF
350
2B9
  0
DICTIONARYVAR
  5
2E
330
2D
100
DictionaryVariables
280
0
  1
1.4.4 @ 2026-09-09T16:15:24.424971+00:00
  0
VISUALSTYLE
  5
5A
102
{ACAD_REACTORS
330
16
102
}
330
16
100
AcDbVisualStyle
  2
2dWireframe
 70
4
 90
0
 40
0.6
 62
7
290
0
291
0
  0
VISUALSTYLE
  5
5B
102
{ACAD_REACTORS
330
16
102
}
330
16
100
AcDbVisualStyle
  2
Basic
 70
7
 90
1
 40
0.6
 62
7
290
0
291
1
  0
VISUALSTYLE
  5
5C
102
{ACAD_REACTORS
330
16
102
}
330
16
100
AcDbVisualStyle
  2
Brighten
 70
12
 90
2
 40
0.6
 62
7
290
0
291
1
  0
VISUALSTYLE
  5
5D
102
{ACAD_REACTORS
330
16
102
}
330
16
100
AcDbVisualStyle
  2
ColorChange
 70
16
 90
2
 40
0.6
 62
8
290
0
291
1
  0
VISUALSTYLE
  5
5E
102
{ACAD_REACTORS
330
16
102
}
330
16
100
AcDbVisualStyle
  2
Conceptual
 70
9
 90
3
 40
0.6
 62
7
290
0
291
0
  0
VISUALSTYLE
  5
5F
102
{ACAD_REACTORS
330
16
102
}
330
16
100
AcDbVisualStyle
  2
Dim
 70
11
 90
2
 40
0.6
 62
7
290
0
291
1
  0
VISUALSTYLE
  5
60
102
{ACAD_REACTORS
330
16
102
}
330
16
100
AcDbVisualStyle
  2
EdgeColorOff
 70
22
 90
2
 40
0.6
 62
7
290
0
291
1
  0
VISUALSTYLE
  5
61
102
{ACAD_REACTORS
330
16
102
}
330
16
100
AcDbVisualStyle
  2
Facepattern
 70
15
 90
2
 40
0.6
 62
7
290
0
291
1
  0
VISUALSTYLE
  5
62
102
{ACAD_REACTORS
330
16
102
}
330
16
100
AcDbVisualStyle
  2
Flat
 70
0
 90
2
 40
0.6
 62
7
290
0
291
1
  0
VISUALSTYLE
  5
63
102
{ACAD_REACTORS
330
16
102
}
330
16
100
AcDbVisualStyle
  2
FlatWithEdges
 70
1
 90
2
 40
0.6
 62
7
290
0
291
1
  0
VISUALSTYLE
  5
64
102
{ACAD_REACTORS
330
16
102
}
330
16
100
AcDbVisualStyle
  2
Gouraud
 70
2
 90
2
 40
0.6
 62
7
290
0
291
1
  0
VISUALSTYLE
  5
65
102
{ACAD_REACTORS
330
16
102
}
330
16
100
AcDbVisualStyle
  2
GouraudWithEdges
 70
3
 90
2
 40
0.6
 62
7
290
0
291
1
  0
VISUALSTYLE
  5
66
102
{ACAD_REACTORS
330
16
102
}
330
16
100
AcDbVisualStyle
  2
Hidden
 70
6
 90
1
 40
0.6
 62
7
290
0
291
0
  0
VISUALSTYLE
  5
67
102
{ACAD_REACTORS
330
16
102
}
330
16
100
AcDbVisualStyle
  2
JitterOff
 70
20
 90
2
 40
0.6
 62
7
290
0
291
1
  0
VISUALSTYLE
  5
68
102
{ACAD_REACTORS
330
16
102
}
330
16
100
AcDbVisualStyle
  2
Linepattern
 70
14
 90
2
 40
0.6
 62
7
290
0
291
1
  0
VISUALSTYLE
  5
69
102
{ACAD_REACTORS
330
16
102
}
330
16
100
AcDbVisualStyle
  2
Modeling
 70
10
 90
2
 40
0.6
 62
7
290
0
291
0
  0
VISUALSTYLE
  5
6A
102
{ACAD_REACTORS
330
16
102
}
330
16
100
AcDbVisualStyle
  2
OverhangOff
 70
21
 90
2
 40
0.6
 62
7
290
0
291
1
  0
VISUALSTYLE
  5
6B
102
{ACAD_REACTORS
330
16
102
}
330
16
100
AcDbVisualStyle
  2
Realistic
 70
8
 90
2
 40
0.6
 62
7
290
0
291
0
  0
VISUALSTYLE
  5
6C
102
{ACAD_REACTORS
330
16
102
}
330
16
100
AcDbVisualStyle
  2
Shaded
 70
27
 90
2
 40
0.6
 62
7
290
0
291
0
  0
VISUALSTYLE
  5
6D
102
{ACAD_REACTORS
330
16
102
}
330
16
100
AcDbVisualStyle
  2
Shaded with edges
 70
26
 90
2
 40
0.6
 62
7
290
0
291
0
  0
VISUALSTYLE
  5
6E
102
{ACAD_REACTORS
330
16
102
}
330
16
100
AcDbVisualStyle
  2
Shades of Gray
 70
23
 90
2
 40
0.6
 62
7
290
0
291
0
  0
VISUALSTYLE
  5
6F
102
{ACAD_REACTORS
330
16
102
}
330
16
100
AcDbVisualStyle
  2
Sketchy
 70
24
 90
1
 40
0.6
 62
7
290
0
291
0
  0
VISUALSTYLE
  5
70
102
{ACAD_REACTORS
330
16
102
}
330
16
100
AcDbVisualStyle
  2
Thicken
 70
13
 90
2
 40
0.6
 62
7
290
0
291
1
  0
VISUALSTYLE
  5
71
102
{ACAD_REACTORS
330
16
102
}
330
16
100
AcDbVisualStyle
  2
Wireframe
 70
5
 90
0
 40
0.6
 62
7
290
0
291
0
  0
VISUALSTYLE
  5
72
102
{ACAD_REACTORS
330
16
102
}
330
16
100
AcDbVisualStyle
  2
X-Ray
 70
25
 90
2
 40
0.5
 62
7
290
0
291
0
  0
DICTIONARYVAR
  5
2B9
330
2D
100
DictionaryVariables
280
0
  1
1.4.4 @ 2026-09-09T16:15:24.448206+00:00
  0
ENDSEC
  0
EOF
