  0
SECTION
  2
HEADER
  9
$ACADVER
  1
AC1009
  9
$DWGCODEPAGE
  3
ANSI_1252
  9
$EXTMIN
 10
1e+20
 20
1e+20
 30
1e+20
  9
$EXTMAX
 10
-1e+20
 20
-1e+20
 30
-1e+20
  9
$LIMMIN
 10
0.0
 20
0.0
  9
$LIMMAX
 10
420.0
 20
297.0
  9
$LTSCALE
 40
1.0
  9
$TDCREATE
 40
2461294.0692708334
  9
$TDUPDATE
 40
2461294.0692708334
  9
$PEXTMIN
 10
1e+20
 20
1e+20
 30
1e+20
  9
$PEXTMAX
 10
-1e+20
 20
-1e+20
 30
-1e+20
  9
$PLIMMIN
 10
0.0
 20
0.0
  9
$PLIMMAX
 10
420.0
 20
297.0
  0
ENDSEC
  0
SECTION
  2
TABLES
  0
TABLE
  2
VPORT
 70
1
  0
VPORT
  2
*Active
 70
0
 10
0.0
 20
0.0
 11
1.0
 21
1.0
 12
0.0
 22
0.0
 13
0.0
 23
0.0
 14
0.5
 24
0.5
 15
0.5
 25
0.5
 16
0.0
 26
0.0
 36
1.0
 17
0.0
 27
0.0
 37
0.0
 40
1000.0
 41
1.34
 42
50.0
 43
0.0
 44
0.0
 50
0.0
 51
0.0
 71
0
 72
1000
 73
1
 74
3
 75
0
 76
0
 77
0
 78
0
  0
ENDTAB
  0
TABLE
  2
LTYPE
 70
3
  0
LTYPE
  2
CONTINUOUS
 70
0
  3
Solid line
 72
65
 73
0
 40
0.0
  0
LTYPE
  2
ByBlock
 70
0
  3

 72
65
 73
0
 40
0.0
  0
LTYPE
  2
ByLayer
 70
0
  3

 72
65
 73
0
 40
0.0
  0
ENDTAB
  0
TABLE
  2
LAYER
 70
24
  0
LAYER
  2
0
 70
0
 62
7
  6
CONTINUOUS
  0
LAYER
  2
CONC
 70
0
 62
7
  6
CONTINUOUS
  0
LAYER
  2
CONC-HIDDEN
 70
0
 62
8
  6
CONTINUOUS
  0
LAYER
  2
REINF-MAIN
 70
0
 62
1
  6
CONTINUOUS
  0
LAYER
  2
REINF-DIST
 70
0
 62
3
  6
CONTINUOUS
  0
LAYER
  2
REINF-LINK
 70
0
 62
6
  6
CONTINUOUS
  0
LAYER
  2
REINF-SEC
 70
0
 62
4
  6
CONTINUOUS
  0
LAYER
  2
DIM
 70
0
 62
4
  6
CONTINUOUS
  0
LAYER
  2
TEXT
 70
0
 62
7
  6
CONTINUOUS
  0
LAYER
  2
TEXT-TITLE
 70
0
 62
7
  6
CONTINUOUS
  0
LAYER
  2
HATCH
 70
0
 62
8
  6
CONTINUOUS
  0
LAYER
  2
GRID
 70
0
 62
5
  6
CONTINUOUS
  0
LAYER
  2
SOIL
 70
0
 62
8
  6
CONTINUOUS
  0
LAYER
  2
CENTRELINE
 70
0
 62
6
  6
CONTINUOUS
  0
LAYER
  2
TITLEBLOCK
 70
0
 62
7
  6
CONTINUOUS
  0
LAYER
  2
WATERPROOF
 70
0
 62
30
  6
CONTINUOUS
  0
LAYER
  2
STEELWORK
 70
0
 62
2
  6
CONTINUOUS
  0
LAYER
  2
LEVELS
 70
0
 62
4
  6
CONTINUOUS
  0
LAYER
  2
NOTES
 70
0
 62
7
  6
CONTINUOUS
  0
LAYER
  2
TABLE
 70
0
 62
7
  6
CONTINUOUS
  0
LAYER
  2
SERVICES
 70
0
 62
2
  6
CONTINUOUS
  0
LAYER
  2
BLAST
 70
0
 62
1
  6
CONTINUOUS
  0
LAYER
  2
Defpoints
 70
0
 62
7
  6
Continuous
  0
LAYER
  2
LEADER
 70
0
 62
7
  6
Continuous
  0
ENDTAB
  0
TABLE
  2
STYLE
 70
1
  0
STYLE
  2
STANDARD
 70
0
 40
0.0
 41
0.8
 50
0.0
 71
0
 42
2.5
  3
txt
  4

  0
ENDTAB
  0
TABLE
  2
VIEW
 70
0
  0
ENDTAB
  0
TABLE
  2
UCS
 70
0
  0
ENDTAB
  0
TABLE
  2
APPID
 70
3
  0
APPID
  2
ACAD
 70
0
  0
APPID
  2
HATCHBACKGROUNDCOLOR
 70
0
  0
APPID
  2
EZDXF
 70
0
  0
ENDTAB
  0
TABLE
  2
DIMSTYLE
 70
1
  0
DIMSTYLE
  2
Standard
 70
0
  3

  4

  5

  6

  7

 40
1.0
 41
2.5
 42
0.625
 43
3.75
 44
1.25
 45
0.0
 46
0.0
 47
0.0
 48
0.0
140
2.5
141
2.5
142
0.0
143
0.03937007874
144
1.0
145
0.0
146
1.0
147
0.625
 71
0
 72
0
 73
0
 74
0
 75
0
 76
0
 77
1
 78
8
170
0
171
3
172
1
173
0
174
0
175
0
176
0
177
0
178
0
  0
ENDTAB
  0
ENDSEC
  0
SECTION
  2
BLOCKS
  0
BLOCK
  8
0
  2
$Model_Space
 70
0
 10
0.0
 20
0.0
 30
0.0
  3
$Model_Space
  1

1001
EZDXF
1000
WRITTEN_BY_EZDXF
1000
1.4.4 @ 2026-09-10T01:39:45.498843+00:00
  0
ENDBLK
  8
0
  0
BLOCK
  8
0
  2
$Paper_Space
 70
0
 10
0.0
 20
0.0
 30
0.0
  3
$Paper_Space
  1

  0
ENDBLK
  8
0
  0
ENDSEC
  0
SECTION
  2
ENTITIES
  0
LINE
  8
TITLEBLOCK
 10
0.0
 20
0.0
 30
0.0
 11
841.0
 21
0.0
 31
0.0
  0
LINE
  8
TITLEBLOCK
 10
841.0
 20
0.0
 30
0.0
 11
841.0
 21
594.0
 31
0.0
  0
LINE
  8
TITLEBLOCK
 10
841.0
 20
594.0
 30
0.0
 11
0.0
 21
594.0
 31
0.0
  0
LINE
  8
TITLEBLOCK
 10
0.0
 20
594.0
 30
0.0
 11
0.0
 21
0.0
 31
0.0
  0
LINE
  8
TITLEBLOCK
 10
10.0
 20
10.0
 30
0.0
 11
831.0
 21
10.0
 31
0.0
  0
LINE
  8
TITLEBLOCK
 10
831.0
 20
10.0
 30
0.0
 11
831.0
 21
584.0
 31
0.0
  0
LINE
  8
TITLEBLOCK
 10
831.0
 20
584.0
 30
0.0
 11
10.0
 21
584.0
 31
0.0
  0
LINE
  8
TITLEBLOCK
 10
10.0
 20
584.0
 30
0.0
 11
10.0
 21
10.0
 31
0.0
  0
LINE
  8
TITLEBLOCK
 10
651.0
 20
10.0
 30
0.0
 11
831.0
 21
10.0
 31
0.0
  0
LINE
  8
TITLEBLOCK
 10
831.0
 20
10.0
 30
0.0
 11
831.0
 21
72.0
 31
0.0
  0
LINE
  8
TITLEBLOCK
 10
831.0
 20
72.0
 30
0.0
 11
651.0
 21
72.0
 31
0.0
  0
LINE
  8
TITLEBLOCK
 10
651.0
 20
72.0
 30
0.0
 11
651.0
 21
10.0
 31
0.0
  0
LINE
  8
TITLEBLOCK
 10
651.0
 20
20.0
 30
0.0
 11
831.0
 21
20.0
 31
0.0
  0
LINE
  8
TITLEBLOCK
 10
651.0
 20
29.0
 30
0.0
 11
831.0
 21
29.0
 31
0.0
  0
LINE
  8
TITLEBLOCK
 10
651.0
 20
47.0
 30
0.0
 11
831.0
 21
47.0
 31
0.0
  0
LINE
  8
TITLEBLOCK
 10
651.0
 20
58.0
 30
0.0
 11
831.0
 21
58.0
 31
0.0
  0
TEXT
  8
TEXT-TITLE
 10
741.0
 20
65.0
 30
0.0
 40
3.0
  1
UNDERGROUND CBRN-HARDENED PROTECTIVE STRUCTURE - PUNE
 72
1
 11
741.0
 21
65.0
 31
0.0
 73
2
  0
TEXT
  8
TEXT-TITLE
 10
741.0
 20
53.0
 30
0.0
 40
2.2
  1
PHASE 2 STRUCTURAL DESIGN  |  GEOMETRY REV F + M1
 72
1
 11
741.0
 21
53.0
 31
0.0
 73
2
  0
TEXT
  8
TEXT-TITLE
 10
741.0
 20
41.0
 30
0.0
 40
3.2
  1
UNDERGROUND PLAN - SERVICES AND DRAINAGE
 72
1
 11
741.0
 21
41.0
 31
0.0
 73
2
  0
TEXT
  8
TEXT-TITLE
 10
741.0
 20
33.0
 30
0.0
 40
2.2
  1
SUMP PIT - BLAST VALVES - SEPTIC TANK - SOAK PIT
 72
1
 11
741.0
 21
33.0
 31
0.0
 73
2
  0
TEXT
  8
TEXT-TITLE
 10
654.0
 20
24.5
 30
0.0
 40
2.0
  1
SCALE  AS SHOWN
 11
654.0
 21
24.5
 31
0.0
 73
2
  0
TEXT
  8
TEXT-TITLE
 10
769.0
 20
24.5
 30
0.0
 40
2.0
  1
DATE  AUG 2026
 11
769.0
 21
24.5
 31
0.0
 73
2
  0
TEXT
  8
TEXT-TITLE
 10
654.0
 20
15.0
 30
0.0
 40
2.0
  1
A1  SH 1/1
 11
654.0
 21
15.0
 31
0.0
 73
2
  0
TEXT
  8
TEXT-TITLE
 10
673.0
 20
15.0
 30
0.0
 40
3.0
  1
DRG No. S-06
 11
673.0
 21
15.0
 31
0.0
 73
2
  0
TEXT
  8
TEXT-TITLE
 10
819.0
 20
15.0
 30
0.0
 40
2.4
  1
REV A
 72
2
 11
819.0
 21
15.0
 31
0.0
 73
2
  0
TEXT
  8
TEXT-TITLE
 10
25.0
 20
578.0
 30
0.0
 40
3.4
  1
V1  UNDERGROUND LEVEL PLAN  -  SERVICES
 11
25.0
 21
578.0
 31
0.0
 73
3
  0
LINE
  8
TEXT-TITLE
 10
25.0
 20
573.2
 30
0.0
 11
104.05
 21
573.2
 31
0.0
  0
TEXT
  8
TEXT-TITLE
 10
25.0
 20
571.8
 30
0.0
 40
2.0
  1
SCALE 1:60   FLOOR (-)6.100.  BLAST VALVES, SUMP AND SERVICE ENTRY MARKED
 11
25.0
 21
571.8
 31
0.0
 73
3
  0
LINE
  8
CONC
 10
92.0
 20
420.0
 30
0.0
 11
458.6667
 21
420.0
 31
0.0
  0
LINE
  8
CONC
 10
458.6667
 20
420.0
 30
0.0
 11
458.6667
 21
523.3333
 31
0.0
  0
LINE
  8
CONC
 10
458.6667
 20
523.3333
 30
0.0
 11
92.0
 21
523.3333
 31
0.0
  0
LINE
  8
CONC
 10
92.0
 20
523.3333
 30
0.0
 11
92.0
 21
420.0
 31
0.0
  0
LINE
  8
CONC
 10
102.0
 20
430.0
 30
0.0
 11
448.6667
 21
430.0
 31
0.0
  0
LINE
  8
CONC
 10
448.6667
 20
430.0
 30
0.0
 11
448.6667
 21
513.3333
 31
0.0
  0
LINE
  8
CONC
 10
448.6667
 20
513.3333
 30
0.0
 11
102.0
 21
513.3333
 31
0.0
  0
LINE
  8
CONC
 10
102.0
 20
513.3333
 30
0.0
 11
102.0
 21
430.0
 31
0.0
  0
LINE
  8
CONC
 10
150.3333
 20
430.0
 30
0.0
 11
152.1667
 21
430.0
 31
0.0
  0
LINE
  8
CONC
 10
152.1667
 20
430.0
 30
0.0
 11
152.1667
 21
513.3333
 31
0.0
  0
LINE
  8
CONC
 10
152.1667
 20
513.3333
 30
0.0
 11
150.3333
 21
513.3333
 31
0.0
  0
LINE
  8
CONC
 10
150.3333
 20
513.3333
 30
0.0
 11
150.3333
 21
430.0
 31
0.0
  0
LINE
  8
CONC
 10
182.1667
 20
430.0
 30
0.0
 11
184.0
 21
430.0
 31
0.0
  0
LINE
  8
CONC
 10
184.0
 20
430.0
 30
0.0
 11
184.0
 21
513.3333
 31
0.0
  0
LINE
  8
CONC
 10
184.0
 20
513.3333
 30
0.0
 11
182.1667
 21
513.3333
 31
0.0
  0
LINE
  8
CONC
 10
182.1667
 20
513.3333
 30
0.0
 11
182.1667
 21
430.0
 31
0.0
  0
LINE
  8
CONC
 10
242.3333
 20
430.0
 30
0.0
 11
244.1667
 21
430.0
 31
0.0
  0
LINE
  8
CONC
 10
244.1667
 20
430.0
 30
0.0
 11
244.1667
 21
513.3333
 31
0.0
  0
LINE
  8
CONC
 10
244.1667
 20
513.3333
 30
0.0
 11
242.3333
 21
513.3333
 31
0.0
  0
LINE
  8
CONC
 10
242.3333
 20
513.3333
 30
0.0
 11
242.3333
 21
430.0
 31
0.0
  0
LINE
  8
CONC
 10
274.1667
 20
430.0
 30
0.0
 11
276.0
 21
430.0
 31
0.0
  0
LINE
  8
CONC
 10
276.0
 20
430.0
 30
0.0
 11
276.0
 21
513.3333
 31
0.0
  0
LINE
  8
CONC
 10
276.0
 20
513.3333
 30
0.0
 11
274.1667
 21
513.3333
 31
0.0
  0
LINE
  8
CONC
 10
274.1667
 20
513.3333
 30
0.0
 11
274.1667
 21
430.0
 31
0.0
  0
LINE
  8
CONC
 10
302.0
 20
430.0
 30
0.0
 11
305.3333
 21
430.0
 31
0.0
  0
LINE
  8
CONC
 10
305.3333
 20
430.0
 30
0.0
 11
305.3333
 21
513.3333
 31
0.0
  0
LINE
  8
CONC
 10
305.3333
 20
513.3333
 30
0.0
 11
302.0
 21
513.3333
 31
0.0
  0
LINE
  8
CONC
 10
302.0
 20
513.3333
 30
0.0
 11
302.0
 21
430.0
 31
0.0
  0
LINE
  8
CONC
 10
338.6667
 20
450.0
 30
0.0
 11
345.3333
 21
450.0
 31
0.0
  0
LINE
  8
CONC
 10
345.3333
 20
450.0
 30
0.0
 11
345.3333
 21
513.3333
 31
0.0
  0
LINE
  8
CONC
 10
345.3333
 20
513.3333
 30
0.0
 11
338.6667
 21
513.3333
 31
0.0
  0
LINE
  8
CONC
 10
338.6667
 20
513.3333
 30
0.0
 11
338.6667
 21
450.0
 31
0.0
  0
LINE
  8
CONC
 10
392.0
 20
450.0
 30
0.0
 11
398.6667
 21
450.0
 31
0.0
  0
LINE
  8
CONC
 10
398.6667
 20
450.0
 30
0.0
 11
398.6667
 21
513.3333
 31
0.0
  0
LINE
  8
CONC
 10
398.6667
 20
513.3333
 30
0.0
 11
392.0
 21
513.3333
 31
0.0
  0
LINE
  8
CONC
 10
392.0
 20
513.3333
 30
0.0
 11
392.0
 21
450.0
 31
0.0
  0
CIRCLE
  8
REINF-MAIN
 10
126.1667
 20
454.1667
 30
0.0
 40
11.6667
  0
TEXT
  8
TEXT
 10
126.1667
 20
435.0
 30
0.0
 40
1.5
  1
ESC 1
 72
1
 11
126.1667
 21
435.0
 31
0.0
 73
2
  0
CIRCLE
  8
REINF-MAIN
 10
423.6667
 20
454.1667
 30
0.0
 40
11.6667
  0
TEXT
  8
TEXT
 10
423.6667
 20
435.0
 30
0.0
 40
1.5
  1
ESC 2
 72
1
 11
423.6667
 21
435.0
 31
0.0
 73
2
  0
LINE
  8
CONC-HIDDEN
 10
347.0
 20
450.0
 30
0.0
 11
367.0
 21
450.0
 31
0.0
  0
LINE
  8
CONC-HIDDEN
 10
367.0
 20
450.0
 30
0.0
 11
367.0
 21
482.6667
 31
0.0
  0
LINE
  8
CONC-HIDDEN
 10
367.0
 20
482.6667
 30
0.0
 11
347.0
 21
482.6667
 31
0.0
  0
LINE
  8
CONC-HIDDEN
 10
347.0
 20
482.6667
 30
0.0
 11
347.0
 21
450.0
 31
0.0
  0
LINE
  8
CONC-HIDDEN
 10
370.3333
 20
450.0
 30
0.0
 11
390.3333
 21
450.0
 31
0.0
  0
LINE
  8
CONC-HIDDEN
 10
390.3333
 20
450.0
 30
0.0
 11
390.3333
 21
482.6667
 31
0.0
  0
LINE
  8
CONC-HIDDEN
 10
390.3333
 20
482.6667
 30
0.0
 11
370.3333
 21
482.6667
 31
0.0
  0
LINE
  8
CONC-HIDDEN
 10
370.3333
 20
482.6667
 30
0.0
 11
370.3333
 21
450.0
 31
0.0
  0
LINE
  8
CONC-HIDDEN
 10
347.0
 20
454.6667
 30
0.0
 11
349.0
 21
454.6667
 31
0.0
  0
LINE
  8
CONC-HIDDEN
 10
350.4
 20
454.6667
 30
0.0
 11
352.4
 21
454.6667
 31
0.0
  0
LINE
  8
CONC-HIDDEN
 10
353.8
 20
454.6667
 30
0.0
 11
355.8
 21
454.6667
 31
0.0
  0
LINE
  8
CONC-HIDDEN
 10
357.2
 20
454.6667
 30
0.0
 11
359.2
 21
454.6667
 31
0.0
  0
LINE
  8
CONC-HIDDEN
 10
360.6
 20
454.6667
 30
0.0
 11
362.6
 21
454.6667
 31
0.0
  0
LINE
  8
CONC-HIDDEN
 10
364.0
 20
454.6667
 30
0.0
 11
366.0
 21
454.6667
 31
0.0
  0
LINE
  8
CONC-HIDDEN
 10
347.0
 20
459.3333
 30
0.0
 11
349.0
 21
459.3333
 31
0.0
  0
LINE
  8
CONC-HIDDEN
 10
350.4
 20
459.3333
 30
0.0
 11
352.4
 21
459.3333
 31
0.0
  0
LINE
  8
CONC-HIDDEN
 10
353.8
 20
459.3333
 30
0.0
 11
355.8
 21
459.3333
 31
0.0
  0
LINE
  8
CONC-HIDDEN
 10
357.2
 20
459.3333
 30
0.0
 11
359.2
 21
459.3333
 31
0.0
  0
LINE
  8
CONC-HIDDEN
 10
360.6
 20
459.3333
 30
0.0
 11
362.6
 21
459.3333
 31
0.0
  0
LINE
  8
CONC-HIDDEN
 10
364.0
 20
459.3333
 30
0.0
 11
366.0
 21
459.3333
 31
0.0
  0
LINE
  8
CONC-HIDDEN
 10
347.0
 20
464.0
 30
0.0
 11
349.0
 21
464.0
 31
0.0
  0
LINE
  8
CONC-HIDDEN
 10
350.4
 20
464.0
 30
0.0
 11
352.4
 21
464.0
 31
0.0
  0
LINE
  8
CONC-HIDDEN
 10
353.8
 20
464.0
 30
0.0
 11
355.8
 21
464.0
 31
0.0
  0
LINE
  8
CONC-HIDDEN
 10
357.2
 20
464.0
 30
0.0
 11
359.2
 21
464.0
 31
0.0
  0
LINE
  8
CONC-HIDDEN
 10
360.6
 20
464.0
 30
0.0
 11
362.6
 21
464.0
 31
0.0
  0
LINE
  8
CONC-HIDDEN
 10
364.0
 20
464.0
 30
0.0
 11
366.0
 21
464.0
 31
0.0
  0
LINE
  8
CONC-HIDDEN
 10
347.0
 20
468.6667
 30
0.0
 11
349.0
 21
468.6667
 31
0.0
  0
LINE
  8
CONC-HIDDEN
 10
350.4
 20
468.6667
 30
0.0
 11
352.4
 21
468.6667
 31
0.0
  0
LINE
  8
CONC-HIDDEN
 10
353.8
 20
468.6667
 30
0.0
 11
355.8
 21
468.6667
 31
0.0
  0
LINE
  8
CONC-HIDDEN
 10
357.2
 20
468.6667
 30
0.0
 11
359.2
 21
468.6667
 31
0.0
  0
LINE
  8
CONC-HIDDEN
 10
360.6
 20
468.6667
 30
0.0
 11
362.6
 21
468.6667
 31
0.0
  0
LINE
  8
CONC-HIDDEN
 10
364.0
 20
468.6667
 30
0.0
 11
366.0
 21
468.6667
 31
0.0
  0
LINE
  8
CONC-HIDDEN
 10
347.0
 20
473.3333
 30
0.0
 11
349.0
 21
473.3333
 31
0.0
  0
LINE
  8
CONC-HIDDEN
 10
350.4
 20
473.3333
 30
0.0
 11
352.4
 21
473.3333
 31
0.0
  0
LINE
  8
CONC-HIDDEN
 10
353.8
 20
473.3333
 30
0.0
 11
355.8
 21
473.3333
 31
0.0
  0
LINE
  8
CONC-HIDDEN
 10
357.2
 20
473.3333
 30
0.0
 11
359.2
 21
473.3333
 31
0.0
  0
LINE
  8
CONC-HIDDEN
 10
360.6
 20
473.3333
 30
0.0
 11
362.6
 21
473.3333
 31
0.0
  0
LINE
  8
CONC-HIDDEN
 10
364.0
 20
473.3333
 30
0.0
 11
366.0
 21
473.3333
 31
0.0
  0
LINE
  8
CONC-HIDDEN
 10
347.0
 20
478.0
 30
0.0
 11
349.0
 21
478.0
 31
0.0
  0
LINE
  8
CONC-HIDDEN
 10
350.4
 20
478.0
 30
0.0
 11
352.4
 21
478.0
 31
0.0
  0
LINE
  8
CONC-HIDDEN
 10
353.8
 20
478.0
 30
0.0
 11
355.8
 21
478.0
 31
0.0
  0
LINE
  8
CONC-HIDDEN
 10
357.2
 20
478.0
 30
0.0
 11
359.2
 21
478.0
 31
0.0
  0
LINE
  8
CONC-HIDDEN
 10
360.6
 20
478.0
 30
0.0
 11
362.6
 21
478.0
 31
0.0
  0
LINE
  8
CONC-HIDDEN
 10
364.0
 20
478.0
 30
0.0
 11
366.0
 21
478.0
 31
0.0
  0
LINE
  8
CONC-HIDDEN
 10
347.0
 20
482.6667
 30
0.0
 11
349.0
 21
482.6667
 31
0.0
  0
LINE
  8
CONC-HIDDEN
 10
350.4
 20
482.6667
 30
0.0
 11
352.4
 21
482.6667
 31
0.0
  0
LINE
  8
CONC-HIDDEN
 10
353.8
 20
482.6667
 30
0.0
 11
355.8
 21
482.6667
 31
0.0
  0
LINE
  8
CONC-HIDDEN
 10
357.2
 20
482.6667
 30
0.0
 11
359.2
 21
482.6667
 31
0.0
  0
LINE
  8
CONC-HIDDEN
 10
360.6
 20
482.6667
 30
0.0
 11
362.6
 21
482.6667
 31
0.0
  0
LINE
  8
CONC-HIDDEN
 10
364.0
 20
482.6667
 30
0.0
 11
366.0
 21
482.6667
 31
0.0
  0
LINE
  8
CONC-HIDDEN
 10
345.3333
 20
450.0
 30
0.0
 11
347.3333
 21
450.0
 31
0.0
  0
LINE
  8
CONC-HIDDEN
 10
348.7333
 20
450.0
 30
0.0
 11
350.7333
 21
450.0
 31
0.0
  0
LINE
  8
CONC-HIDDEN
 10
352.1333
 20
450.0
 30
0.0
 11
354.1333
 21
450.0
 31
0.0
  0
LINE
  8
CONC-HIDDEN
 10
355.5333
 20
450.0
 30
0.0
 11
357.5333
 21
450.0
 31
0.0
  0
LINE
  8
CONC-HIDDEN
 10
358.9333
 20
450.0
 30
0.0
 11
360.9333
 21
450.0
 31
0.0
  0
LINE
  8
CONC-HIDDEN
 10
362.3333
 20
450.0
 30
0.0
 11
364.3333
 21
450.0
 31
0.0
  0
LINE
  8
CONC-HIDDEN
 10
365.7333
 20
450.0
 30
0.0
 11
367.7333
 21
450.0
 31
0.0
  0
LINE
  8
CONC-HIDDEN
 10
369.1333
 20
450.0
 30
0.0
 11
371.1333
 21
450.0
 31
0.0
  0
LINE
  8
CONC-HIDDEN
 10
372.5333
 20
450.0
 30
0.0
 11
374.5333
 21
450.0
 31
0.0
  0
LINE
  8
CONC-HIDDEN
 10
375.9333
 20
450.0
 30
0.0
 11
377.9333
 21
450.0
 31
0.0
  0
LINE
  8
CONC-HIDDEN
 10
379.3333
 20
450.0
 30
0.0
 11
381.3333
 21
450.0
 31
0.0
  0
LINE
  8
CONC-HIDDEN
 10
382.7333
 20
450.0
 30
0.0
 11
384.7333
 21
450.0
 31
0.0
  0
LINE
  8
CONC-HIDDEN
 10
386.1333
 20
450.0
 30
0.0
 11
388.1333
 21
450.0
 31
0.0
  0
LINE
  8
CONC-HIDDEN
 10
389.5333
 20
450.0
 30
0.0
 11
391.5333
 21
450.0
 31
0.0
  0
LINE
  8
CONC-HIDDEN
 10
345.3333
 20
482.6667
 30
0.0
 11
347.3333
 21
482.6667
 31
0.0
  0
LINE
  8
CONC-HIDDEN
 10
348.7333
 20
482.6667
 30
0.0
 11
350.7333
 21
482.6667
 31
0.0
  0
LINE
  8
CONC-HIDDEN
 10
352.1333
 20
482.6667
 30
0.0
 11
354.1333
 21
482.6667
 31
0.0
  0
LINE
  8
CONC-HIDDEN
 10
355.5333
 20
482.6667
 30
0.0
 11
357.5333
 21
482.6667
 31
0.0
  0
LINE
  8
CONC-HIDDEN
 10
358.9333
 20
482.6667
 30
0.0
 11
360.9333
 21
482.6667
 31
0.0
  0
LINE
  8
CONC-HIDDEN
 10
362.3333
 20
482.6667
 30
0.0
 11
364.3333
 21
482.6667
 31
0.0
  0
LINE
  8
CONC-HIDDEN
 10
365.7333
 20
482.6667
 30
0.0
 11
367.7333
 21
482.6667
 31
0.0
  0
LINE
  8
CONC-HIDDEN
 10
369.1333
 20
482.6667
 30
0.0
 11
371.1333
 21
482.6667
 31
0.0
  0
LINE
  8
CONC-HIDDEN
 10
372.5333
 20
482.6667
 30
0.0
 11
374.5333
 21
482.6667
 31
0.0
  0
LINE
  8
CONC-HIDDEN
 10
375.9333
 20
482.6667
 30
0.0
 11
377.9333
 21
482.6667
 31
0.0
  0
LINE
  8
CONC-HIDDEN
 10
379.3333
 20
482.6667
 30
0.0
 11
381.3333
 21
482.6667
 31
0.0
  0
LINE
  8
CONC-HIDDEN
 10
382.7333
 20
482.6667
 30
0.0
 11
384.7333
 21
482.6667
 31
0.0
  0
LINE
  8
CONC-HIDDEN
 10
386.1333
 20
482.6667
 30
0.0
 11
388.1333
 21
482.6667
 31
0.0
  0
LINE
  8
CONC-HIDDEN
 10
389.5333
 20
482.6667
 30
0.0
 11
391.5333
 21
482.6667
 31
0.0
  0
LINE
  8
REINF-SEC
 10
338.6667
 20
430.0
 30
0.0
 11
338.6667
 21
450.0
 31
0.0
  0
LINE
  8
REINF-SEC
 10
345.3333
 20
430.0
 30
0.0
 11
345.3333
 21
450.0
 31
0.0
  0
LINE
  8
REINF-SEC
 10
392.0
 20
430.0
 30
0.0
 11
392.0
 21
450.0
 31
0.0
  0
LINE
  8
REINF-SEC
 10
398.6667
 20
430.0
 30
0.0
 11
398.6667
 21
450.0
 31
0.0
  0
TEXT
  8
TEXT
 10
342.0
 20
440.0
 30
0.0
 40
1.4
  1
BLAST DOOR 1
 50
90.0
 72
1
 11
342.0
 21
440.0
 31
0.0
 73
2
  0
TEXT
  8
TEXT
 10
395.3333
 20
440.0
 30
0.0
 40
1.4
  1
BLAST DOOR 2
 50
90.0
 72
1
 11
395.3333
 21
440.0
 31
0.0
 73
2
  0
LINE
  8
SERVICES
 10
276.5
 20
435.0
 30
0.0
 11
301.5
 21
435.0
 31
0.0
  0
LINE
  8
SERVICES
 10
301.5
 20
435.0
 30
0.0
 11
301.5
 21
460.0
 31
0.0
  0
LINE
  8
SERVICES
 10
301.5
 20
460.0
 30
0.0
 11
276.5
 21
460.0
 31
0.0
  0
LINE
  8
SERVICES
 10
276.5
 20
460.0
 30
0.0
 11
276.5
 21
435.0
 31
0.0
  0
LINE
  8
SERVICES
 10
271.5
 20
430.0
 30
0.0
 11
306.5
 21
430.0
 31
0.0
  0
LINE
  8
SERVICES
 10
306.5
 20
430.0
 30
0.0
 11
306.5
 21
465.0
 31
0.0
  0
LINE
  8
SERVICES
 10
306.5
 20
465.0
 30
0.0
 11
271.5
 21
465.0
 31
0.0
  0
LINE
  8
SERVICES
 10
271.5
 20
465.0
 30
0.0
 11
271.5
 21
430.0
 31
0.0
  0
LINE
  8
HATCH
 10
301.5
 20
436.9799
 30
0.0
 11
299.5201
 21
435.0
 31
0.0
  0
LINE
  8
HATCH
 10
301.5
 20
438.9598
 30
0.0
 11
297.5402
 21
435.0
 31
0.0
  0
LINE
  8
HATCH
 10
301.5
 20
440.9397
 30
0.0
 11
295.5603
 21
435.0
 31
0.0
  0
LINE
  8
HATCH
 10
301.5
 20
442.9196
 30
0.0
 11
293.5804
 21
435.0
 31
0.0
  0
LINE
  8
HATCH
 10
301.5
 20
444.8995
 30
0.0
 11
291.6005
 21
435.0
 31
0.0
  0
LINE
  8
HATCH
 10
301.5
 20
446.8794
 30
0.0
 11
289.6206
 21
435.0
 31
0.0
  0
LINE
  8
HATCH
 10
301.5
 20
448.8593
 30
0.0
 11
287.6407
 21
435.0
 31
0.0
  0
LINE
  8
HATCH
 10
301.5
 20
450.8392
 30
0.0
 11
285.6608
 21
435.0
 31
0.0
  0
LINE
  8
HATCH
 10
301.5
 20
452.8191
 30
0.0
 11
283.6809
 21
435.0
 31
0.0
  0
LINE
  8
HATCH
 10
301.5
 20
454.799
 30
0.0
 11
281.701
 21
435.0
 31
0.0
  0
LINE
  8
HATCH
 10
301.5
 20
456.7789
 30
0.0
 11
279.7211
 21
435.0
 31
0.0
  0
LINE
  8
HATCH
 10
301.5
 20
458.7588
 30
0.0
 11
277.7412
 21
435.0
 31
0.0
  0
LINE
  8
HATCH
 10
276.5
 20
435.7387
 30
0.0
 11
300.7613
 21
460.0
 31
0.0
  0
LINE
  8
HATCH
 10
276.5
 20
437.7186
 30
0.0
 11
298.7814
 21
460.0
 31
0.0
  0
LINE
  8
HATCH
 10
276.5
 20
439.6985
 30
0.0
 11
296.8015
 21
460.0
 31
0.0
  0
LINE
  8
HATCH
 10
276.5
 20
441.6784
 30
0.0
 11
294.8216
 21
460.0
 31
0.0
  0
LINE
  8
HATCH
 10
276.5
 20
443.6583
 30
0.0
 11
292.8417
 21
460.0
 31
0.0
  0
LINE
  8
HATCH
 10
276.5
 20
445.6382
 30
0.0
 11
290.8618
 21
460.0
 31
0.0
  0
LINE
  8
HATCH
 10
276.5
 20
447.6181
 30
0.0
 11
288.8819
 21
460.0
 31
0.0
  0
LINE
  8
HATCH
 10
276.5
 20
449.598
 30
0.0
 11
286.902
 21
460.0
 31
0.0
  0
LINE
  8
HATCH
 10
276.5
 20
451.5779
 30
0.0
 11
284.9221
 21
460.0
 31
0.0
  0
LINE
  8
HATCH
 10
276.5
 20
453.5578
 30
0.0
 11
282.9422
 21
460.0
 31
0.0
  0
LINE
  8
HATCH
 10
276.5
 20
455.5377
 30
0.0
 11
280.9623
 21
460.0
 31
0.0
  0
LINE
  8
HATCH
 10
276.5
 20
457.5176
 30
0.0
 11
278.9824
 21
460.0
 31
0.0
  0
LINE
  8
HATCH
 10
276.5
 20
459.4975
 30
0.0
 11
277.0025
 21
460.0
 31
0.0
  0
CIRCLE
  8
SERVICES
 10
283.1667
 20
447.5
 30
0.0
 40
3.5
  0
CIRCLE
  8
SERVICES
 10
294.8333
 20
447.5
 30
0.0
 40
3.5
  0
TEXT
  8
TEXT-TITLE
 10
289.0
 20
471.6667
 30
0.0
 40
1.5
  1
CLEAN SUMP 1500 x 1500 x 1500
 72
1
 11
289.0
 21
471.6667
 31
0.0
 73
2
  0
TEXT
  8
TEXT
 10
289.0
 20
466.4633
 30
0.0
 40
1.4
  1
3.375 m3, INVERT (-)7.600
 72
1
 11
289.0
 21
466.4633
 31
0.0
 73
2
  0
LINE
  8
SERVICES
 10
277.0
 20
485.0
 30
0.0
 11
301.1667
 21
485.0
 31
0.0
  0
LINE
  8
SERVICES
 10
301.1667
 20
485.0
 30
0.0
 11
301.1667
 21
512.5
 31
0.0
  0
LINE
  8
SERVICES
 10
301.1667
 20
512.5
 30
0.0
 11
277.0
 21
512.5
 31
0.0
  0
LINE
  8
SERVICES
 10
277.0
 20
512.5
 30
0.0
 11
277.0
 21
485.0
 31
0.0
  0
LINE
  8
SERVICES
 10
277.0
 20
465.0
 30
0.0
 11
301.1667
 21
465.0
 31
0.0
  0
LINE
  8
SERVICES
 10
301.1667
 20
465.0
 30
0.0
 11
301.1667
 21
483.3333
 31
0.0
  0
LINE
  8
SERVICES
 10
301.1667
 20
483.3333
 30
0.0
 11
277.0
 21
483.3333
 31
0.0
  0
LINE
  8
SERVICES
 10
277.0
 20
483.3333
 30
0.0
 11
277.0
 21
465.0
 31
0.0
  0
TEXT
  8
TEXT
 10
289.0833
 20
498.3333
 30
0.0
 40
1.4
  1
NBC FILTER TRAIN 1
 72
1
 11
289.0833
 21
498.3333
 31
0.0
 73
2
  0
TEXT
  8
TEXT
 10
289.0833
 20
474.1667
 30
0.0
 40
1.4
  1
NBC FILTER TRAIN 2
 72
1
 11
289.0833
 21
474.1667
 31
0.0
 73
2
  0
TEXT
  8
TEXT
 10
289.0833
 20
493.3333
 30
0.0
 40
1.3
  1
300 m3/h
 72
1
 11
289.0833
 21
493.3333
 31
0.0
 73
2
  0
TEXT
  8
TEXT
 10
289.0833
 20
469.1667
 30
0.0
 40
1.3
  1
300 m3/h
 72
1
 11
289.0833
 21
469.1667
 31
0.0
 73
2
  0
LINE
  8
SERVICES
 10
428.6667
 20
493.3333
 30
0.0
 11
448.6667
 21
493.3333
 31
0.0
  0
LINE
  8
SERVICES
 10
448.6667
 20
493.3333
 30
0.0
 11
448.6667
 21
513.3333
 31
0.0
  0
LINE
  8
SERVICES
 10
448.6667
 20
513.3333
 30
0.0
 11
428.6667
 21
513.3333
 31
0.0
  0
LINE
  8
SERVICES
 10
428.6667
 20
513.3333
 30
0.0
 11
428.6667
 21
493.3333
 31
0.0
  0
TEXT
  8
TEXT
 10
438.6667
 20
486.6667
 30
0.0
 40
1.35
  1
1000 L DECON
 72
1
 11
438.6667
 21
486.6667
 31
0.0
 73
2
  0
TEXT
  8
TEXT
 10
438.6667
 20
480.8333
 30
0.0
 40
1.35
  1
EFFLUENT TANK
 72
1
 11
438.6667
 21
480.8333
 31
0.0
 73
2
  0
LINE
  8
SERVICES
 10
40.3333
 20
466.6667
 30
0.0
 11
50.3333
 21
466.6667
 31
0.0
  0
LINE
  8
SERVICES
 10
50.3333
 20
466.6667
 30
0.0
 11
50.3333
 21
476.6667
 31
0.0
  0
LINE
  8
SERVICES
 10
50.3333
 20
476.6667
 30
0.0
 11
40.3333
 21
476.6667
 31
0.0
  0
LINE
  8
SERVICES
 10
40.3333
 20
476.6667
 30
0.0
 11
40.3333
 21
466.6667
 31
0.0
  0
TEXT
  8
TEXT
 10
37.0
 20
493.3333
 30
0.0
 40
1.35
  1
FRESH-AIR SHAFT
 11
37.0
 21
493.3333
 31
0.0
 73
2
  0
TEXT
  8
TEXT
 10
37.0
 20
485.8333
 30
0.0
 40
1.3
  1
600 x 600, GOOSENECK +1.500
 11
37.0
 21
485.8333
 31
0.0
 73
2
  0
LINE
  8
SERVICES
 10
50.3333
 20
471.6667
 30
0.0
 11
102.0
 21
471.6667
 31
0.0
  0
LINE
  8
SERVICES
 10
468.6667
 20
449.1667
 30
0.0
 11
478.6667
 21
449.1667
 31
0.0
  0
LINE
  8
SERVICES
 10
478.6667
 20
449.1667
 30
0.0
 11
478.6667
 21
459.1667
 31
0.0
  0
LINE
  8
SERVICES
 10
478.6667
 20
459.1667
 30
0.0
 11
468.6667
 21
459.1667
 31
0.0
  0
LINE
  8
SERVICES
 10
468.6667
 20
459.1667
 30
0.0
 11
468.6667
 21
449.1667
 31
0.0
  0
TEXT
  8
TEXT
 10
465.3333
 20
473.3333
 30
0.0
 40
1.35
  1
GENERATOR AIR
 11
465.3333
 21
473.3333
 31
0.0
 73
2
  0
TEXT
  8
TEXT
 10
465.3333
 20
465.8333
 30
0.0
 40
1.3
  1
SHAFT 600 x 600
 11
465.3333
 21
465.8333
 31
0.0
 73
2
  0
LINE
  8
SERVICES
 10
282.0
 20
513.3333
 30
0.0
 11
295.3333
 21
513.3333
 31
0.0
  0
LINE
  8
SERVICES
 10
295.3333
 20
513.3333
 30
0.0
 11
295.3333
 21
523.3333
 31
0.0
  0
LINE
  8
SERVICES
 10
295.3333
 20
523.3333
 30
0.0
 11
282.0
 21
523.3333
 31
0.0
  0
LINE
  8
SERVICES
 10
282.0
 20
523.3333
 30
0.0
 11
282.0
 21
513.3333
 31
0.0
  0
LINE
  8
DIM
 10
288.6667
 20
523.3333
 30
0.0
 11
250.0
 21
556.0
 31
0.0
  0
LINE
  8
DIM
 10
250.0
 20
556.0
 30
0.0
 11
254.0
 21
556.0
 31
0.0
  0
CIRCLE
  8
DIM
 10
288.6667
 20
523.3333
 30
0.0
 40
0.5
  0
TEXT
  8
TEXT
 10
255.0
 20
556.63
 30
0.0
 40
1.8
  1
SERVICE ENTRY PLATE - THE ONLY
 11
255.0
 21
556.63
 31
0.0
 73
1
  0
TEXT
  8
TEXT
 10
252.0
 20
552.0
 30
0.0
 40
1.45
  1
PENETRATION OF THE ENVELOPE.  MCT FRAME WITH
 11
252.0
 21
552.0
 31
0.0
 73
3
  0
TEXT
  8
TEXT
 10
253.38416152417267
 20
549.8841615241727
 30
0.0
 40
1.45
  1
EMP MODULES + SLEEVED PIPES + SUMP RISING MAIN
 11
253.38416152417267
 21
549.8841615241727
 31
0.0
 73
3
  0
LINE
  8
SERVICES
 10
301.5
 20
447.5
 30
0.0
 11
308.6667
 21
447.5
 31
0.0
  0
LINE
  8
SERVICES
 10
308.6667
 20
447.5
 30
0.0
 11
308.6667
 21
518.3333
 31
0.0
  0
LINE
  8
SERVICES
 10
308.6667
 20
518.3333
 30
0.0
 11
293.6667
 21
518.3333
 31
0.0
  0
CIRCLE
  8
BLAST
 10
102.0
 20
456.6667
 30
0.0
 40
2.6
  0
LINE
  8
BLAST
 10
102.0
 20
456.6667
 30
0.0
 11
102.0
 21
456.6667
 31
0.0
  0
TEXT
  8
BLAST
 10
102.765
 20
456.6667
 30
0.0
 40
1.7
  1
V
 72
1
 11
102.765
 21
456.6667
 31
0.0
 73
2
  0
CIRCLE
  8
BLAST
 10
102.0
 20
486.6667
 30
0.0
 40
2.6
  0
LINE
  8
BLAST
 10
102.0
 20
486.6667
 30
0.0
 11
102.0
 21
486.6667
 31
0.0
  0
TEXT
  8
BLAST
 10
102.765
 20
486.6667
 30
0.0
 40
1.7
  1
V
 72
1
 11
102.765
 21
486.6667
 31
0.0
 73
2
  0
CIRCLE
  8
BLAST
 10
342.0
 20
501.6667
 30
0.0
 40
2.6
  0
LINE
  8
BLAST
 10
342.0
 20
501.6667
 30
0.0
 11
342.0
 21
501.6667
 31
0.0
  0
TEXT
  8
BLAST
 10
342.0
 20
500.9017
 30
0.0
 40
1.7
  1
V
 72
1
 11
342.0
 21
500.9017
 31
0.0
 73
2
  0
CIRCLE
  8
BLAST
 10
448.6667
 20
441.6667
 30
0.0
 40
2.6
  0
LINE
  8
BLAST
 10
448.6667
 20
441.6667
 30
0.0
 11
448.6667
 21
441.6667
 31
0.0
  0
TEXT
  8
BLAST
 10
449.4317
 20
441.6667
 30
0.0
 40
1.7
  1
V
 72
1
 11
449.4317
 21
441.6667
 31
0.0
 73
2
  0
CIRCLE
  8
BLAST
 10
448.6667
 20
498.3333
 30
0.0
 40
2.6
  0
LINE
  8
BLAST
 10
448.6667
 20
498.3333
 30
0.0
 11
448.6667
 21
498.3333
 31
0.0
  0
TEXT
  8
BLAST
 10
449.4317
 20
498.3333
 30
0.0
 40
1.7
  1
V
 72
1
 11
449.4317
 21
498.3333
 31
0.0
 73
2
  0
TEXT
  8
BLAST
 10
96.66
 20
468.3333
 30
0.0
 40
1.6
  1
BV-1
 72
2
 11
96.66
 21
468.3333
 31
0.0
 73
2
  0
TEXT
  8
BLAST
 10
92.61
 20
459.1667
 30
0.0
 40
1.4
  1
DN100
 72
2
 11
92.61
 21
459.1667
 31
0.0
 73
2
  0
TEXT
  8
BLAST
 10
96.66
 20
498.3333
 30
0.0
 40
1.6
  1
BV-2
 72
2
 11
96.66
 21
498.3333
 31
0.0
 73
2
  0
TEXT
  8
BLAST
 10
92.61
 20
489.1667
 30
0.0
 40
1.4
  1
DN100
 72
2
 11
92.61
 21
489.1667
 31
0.0
 73
2
  0
TEXT
  8
BLAST
 10
357.0
 20
512.6133
 30
0.0
 40
1.6
  1
BV-3
 11
357.0
 21
512.6133
 31
0.0
 73
2
  0
TEXT
  8
BLAST
 10
357.0
 20
504.1667
 30
0.0
 40
1.4
  1
DN100
 11
357.0
 21
504.1667
 31
0.0
 73
2
  0
TEXT
  8
BLAST
 10
463.6667
 20
453.3333
 30
0.0
 40
1.6
  1
BV-4
 11
463.6667
 21
453.3333
 31
0.0
 73
2
  0
TEXT
  8
BLAST
 10
463.6667
 20
444.1667
 30
0.0
 40
1.4
  1
DN350
 11
463.6667
 21
444.1667
 31
0.0
 73
2
  0
TEXT
  8
BLAST
 10
463.6667
 20
510.0
 30
0.0
 40
1.6
  1
BV-5
 11
463.6667
 21
510.0
 31
0.0
 73
2
  0
TEXT
  8
BLAST
 10
463.6667
 20
500.8333
 30
0.0
 40
1.4
  1
DN350
 11
463.6667
 21
500.8333
 31
0.0
 73
2
  0
TEXT
  8
TEXT-TITLE
 10
126.1667
 20
507.5
 30
0.0
 40
1.4
  1
1  EMERGENCY STORES
 72
1
 11
126.1667
 21
507.5
 31
0.0
 73
2
  0
TEXT
  8
TEXT-TITLE
 10
167.1667
 20
507.5
 30
0.0
 40
1.4
  1
2  LAVATORY / MEDICAL
 72
1
 11
167.1667
 21
507.5
 31
0.0
 73
2
  0
TEXT
  8
TEXT-TITLE
 10
213.1667
 20
507.5
 30
0.0
 40
1.4
  1
3  OPS ROOM
 72
1
 11
213.1667
 21
507.5
 31
0.0
 73
2
  0
TEXT
  8
TEXT-TITLE
 10
259.1667
 20
507.5
 30
0.0
 40
1.4
  1
4  BERTHING
 72
1
 11
259.1667
 21
507.5
 31
0.0
 73
2
  0
TEXT
  8
TEXT-TITLE
 10
289.0
 20
507.5
 30
0.0
 40
1.4
  1
5  CBRN PLANT + SUMP
 72
1
 11
289.0
 21
507.5
 31
0.0
 73
2
  0
TEXT
  8
TEXT-TITLE
 10
322.0
 20
507.5
 30
0.0
 40
1.4
  1
6  DECON AIRLOCK
 72
1
 11
322.0
 21
507.5
 31
0.0
 73
2
  0
TEXT
  8
TEXT-TITLE
 10
368.6667
 20
507.5
 30
0.0
 40
1.4
  1
7  STAIR SHAFT
 72
1
 11
368.6667
 21
507.5
 31
0.0
 73
2
  0
TEXT
  8
TEXT-TITLE
 10
423.6667
 20
507.5
 30
0.0
 40
1.4
  1
8  GENERATOR (GREY)
 72
1
 11
423.6667
 21
507.5
 31
0.0
 73
2
  0
LINE
  8
DIM
 10
92.0
 20
388.3333
 30
0.0
 11
458.6667
 21
388.3333
 31
0.0
  0
LINE
  8
DIM
 10
91.2222
 20
387.5555
 30
0.0
 11
92.7778
 21
389.1112
 31
0.0
  0
LINE
  8
DIM
 10
457.8888
 20
387.5555
 30
0.0
 11
459.4445
 21
389.1112
 31
0.0
  0
TEXT
  8
DIM
 10
275.3333
 20
389.1433
 30
0.0
 40
1.8
  1
22000 OVERALL
 72
1
 11
275.3333
 21
389.1433
 31
0.0
 73
1
  0
LINE
  8
DIM
 10
73.6667
 20
420.0
 30
0.0
 11
73.6667
 21
523.3333
 31
0.0
  0
LINE
  8
DIM
 10
72.8888
 20
419.2222
 30
0.0
 11
74.4445
 21
420.7778
 31
0.0
  0
LINE
  8
DIM
 10
72.8888
 20
522.5555
 30
0.0
 11
74.4445
 21
524.1112
 31
0.0
  0
TEXT
  8
DIM
 10
72.8567
 20
471.6667
 30
0.0
 40
1.8
  1
6200
 50
90.0
 72
1
 11
72.8567
 21
471.6667
 31
0.0
 73
1
  0
TEXT
  8
TEXT-TITLE
 10
495.0
 20
538.0
 30
0.0
 40
1.8
  1
LEGEND
 11
495.0
 21
538.0
 31
0.0
 73
3
  0
TEXT
  8
NOTES
 10
495.0
 20
532.0
 30
0.0
 40
1.5
  1
V   BLAST VALVE (see schedule)
 11
495.0
 21
532.0
 31
0.0
 73
3
  0
TEXT
  8
NOTES
 10
495.0
 20
528.6
 30
0.0
 40
1.5
  1
    SERVICES / TANKS / SHAFTS
 11
495.0
 21
528.6
 31
0.0
 73
3
  0
TEXT
  8
NOTES
 10
495.0
 20
525.2
 30
0.0
 40
1.5
  1
    HATCHED = SUMP OR PLATE
 11
495.0
 21
525.2
 31
0.0
 73
3
  0
TEXT
  8
NOTES
 10
495.0
 20
521.8
 30
0.0
 40
1.5
  1

 11
495.0
 21
521.8
 31
0.0
 73
3
  0
TEXT
  8
NOTES
 10
495.0
 20
518.4
 30
0.0
 40
1.5
  1
GAS-TIGHT ENVELOPE = BAYS 1-6
 11
495.0
 21
518.4
 31
0.0
 73
3
  0
TEXT
  8
NOTES
 10
495.0
 20
515.0
 30
0.0
 40
1.5
  1
67.8 m2 / 217.0 m3.  BAYS 7
 11
495.0
 21
515.0
 31
0.0
 73
3
  0
TEXT
  8
NOTES
 10
495.0
 20
511.6
 30
0.0
 40
1.5
  1
AND 8 ARE OUTSIDE IT.
 11
495.0
 21
511.6
 31
0.0
 73
3
  0
TEXT
  8
NOTES
 10
495.0
 20
508.2
 30
0.0
 40
1.5
  1

 11
495.0
 21
508.2
 31
0.0
 73
3
  0
TEXT
  8
NOTES
 10
495.0
 20
504.8
 30
0.0
 40
1.5
  1
SUMP DISCHARGE, IN SERIES:
 11
495.0
 21
504.8
 31
0.0
 73
3
  0
TEXT
  8
NOTES
 10
495.0
 20
501.4
 30
0.0
 40
1.5
  1
  1 ISOLATION VALVE
 11
495.0
 21
501.4
 31
0.0
 73
3
  0
TEXT
  8
NOTES
 10
495.0
 20
498.0
 30
0.0
 40
1.5
  1
  2 GAS-TIGHT NON-RETURN VALVE
 11
495.0
 21
498.0
 31
0.0
 73
3
  0
TEXT
  8
NOTES
 10
495.0
 20
494.6
 30
0.0
 40
1.5
  1
  3 BLAST CHECK VALVE
 11
495.0
 21
494.6
 31
0.0
 73
3
  0
TEXT
  8
NOTES
 10
495.0
 20
491.2
 30
0.0
 40
1.5
  1
  4 DEEP-SEAL TRAP
 11
495.0
 21
491.2
 31
0.0
 73
3
  0
TEXT
  8
NOTES
 10
495.0
 20
487.8
 30
0.0
 40
1.5
  1
ALL INSIDE THE ENVELOPE.
 11
495.0
 21
487.8
 31
0.0
 73
3
  0
TEXT
  8
NOTES
 10
495.0
 20
484.4
 30
0.0
 40
1.5
  1

 11
495.0
 21
484.4
 31
0.0
 73
3
  0
TEXT
  8
NOTES
 10
495.0
 20
481.0
 30
0.0
 40
1.5
  1
DECON EFFLUENT NEVER ENTERS
 11
495.0
 21
481.0
 31
0.0
 73
3
  0
TEXT
  8
NOTES
 10
495.0
 20
477.6
 30
0.0
 40
1.5
  1
THE CLEAN SUMP - TANKERED
 11
495.0
 21
477.6
 31
0.0
 73
3
  0
TEXT
  8
NOTES
 10
495.0
 20
474.2
 30
0.0
 40
1.5
  1
OUT AFTER THE ALL-CLEAR.
 11
495.0
 21
474.2
 31
0.0
 73
3
  0
TEXT
  8
TEXT-TITLE
 10
25.0
 20
380.0
 30
0.0
 40
3.4
  1
V2  SITE DRAINAGE AND WASTE LAYOUT
 11
25.0
 21
380.0
 31
0.0
 73
3
  0
LINE
  8
TEXT-TITLE
 10
25.0
 20
375.2
 30
0.0
 11
94.3
 21
375.2
 31
0.0
  0
TEXT
  8
TEXT-TITLE
 10
25.0
 20
373.8
 30
0.0
 40
2.0
  1
SCALE 1:300   SCHEMATIC POSITIONS
 11
25.0
 21
373.8
 31
0.0
 73
3
  0
LINE
  8
CONC
 10
55.0
 20
300.0
 30
0.0
 11
128.3333
 21
300.0
 31
0.0
  0
LINE
  8
CONC
 10
128.3333
 20
300.0
 30
0.0
 11
128.3333
 21
320.6667
 31
0.0
  0
LINE
  8
CONC
 10
128.3333
 20
320.6667
 30
0.0
 11
55.0
 21
320.6667
 31
0.0
  0
LINE
  8
CONC
 10
55.0
 20
320.6667
 30
0.0
 11
55.0
 21
300.0
 31
0.0
  0
TEXT
  8
TEXT-TITLE
 10
91.6667
 20
310.3333
 30
0.0
 40
1.5
  1
UNDERGROUND SHELTER
 72
1
 11
91.6667
 21
310.3333
 31
0.0
 73
2
  0
LINE
  8
SOIL
 10
50.3333
 20
295.3333
 30
0.0
 11
53.1534
 21
296.3567
 31
0.0
  0
LINE
  8
SOIL
 10
55.0334
 20
297.039
 30
0.0
 11
57.8534
 21
298.0624
 31
0.0
  0
LINE
  8
SOIL
 10
59.7335
 20
298.7447
 30
0.0
 11
62.5535
 21
299.7681
 31
0.0
  0
LINE
  8
SOIL
 10
64.4336
 20
300.4503
 30
0.0
 11
67.2536
 21
301.4738
 31
0.0
  0
LINE
  8
SOIL
 10
69.1336
 20
302.156
 30
0.0
 11
71.9537
 21
303.1794
 31
0.0
  0
LINE
  8
SOIL
 10
73.8337
 20
303.8617
 30
0.0
 11
76.6537
 21
304.8851
 31
0.0
  0
LINE
  8
SOIL
 10
78.5338
 20
305.5674
 30
0.0
 11
81.3538
 21
306.5908
 31
0.0
  0
LINE
  8
SOIL
 10
83.2338
 20
307.273
 30
0.0
 11
86.0539
 21
308.2964
 31
0.0
  0
LINE
  8
SOIL
 10
87.9339
 20
308.9787
 30
0.0
 11
90.754
 21
310.0021
 31
0.0
  0
LINE
  8
SOIL
 10
92.634
 20
310.6844
 30
0.0
 11
95.454
 21
311.7078
 31
0.0
  0
LINE
  8
SOIL
 10
97.3341
 20
312.39
 30
0.0
 11
100.1541
 21
313.4135
 31
0.0
  0
LINE
  8
SOIL
 10
102.0341
 20
314.0957
 30
0.0
 11
104.8542
 21
315.1191
 31
0.0
  0
LINE
  8
SOIL
 10
106.7342
 20
315.8014
 30
0.0
 11
109.5543
 21
316.8248
 31
0.0
  0
LINE
  8
SOIL
 10
111.4343
 20
317.5071
 30
0.0
 11
114.2543
 21
318.5305
 31
0.0
  0
LINE
  8
SOIL
 10
116.1344
 20
319.2127
 30
0.0
 11
118.9544
 21
320.2361
 31
0.0
  0
LINE
  8
SOIL
 10
120.8344
 20
320.9184
 30
0.0
 11
123.6545
 21
321.9418
 31
0.0
  0
LINE
  8
SOIL
 10
125.5345
 20
322.6241
 30
0.0
 11
128.3545
 21
323.6475
 31
0.0
  0
LINE
  8
SOIL
 10
130.2346
 20
324.3298
 30
0.0
 11
133.0
 21
325.3333
 31
0.0
  0
TEXT
  8
SOIL
 10
91.6667
 20
327.0
 30
0.0
 40
1.35
  1
BERM TOE 1.5:1
 72
1
 11
91.6667
 21
327.0
 31
0.0
 73
2
  0
LINE
  8
CONC
 10
85.8333
 20
319.1667
 30
0.0
 11
108.5
 21
319.1667
 31
0.0
  0
LINE
  8
CONC
 10
108.5
 20
319.1667
 30
0.0
 11
108.5
 21
325.8333
 31
0.0
  0
LINE
  8
CONC
 10
108.5
 20
325.8333
 30
0.0
 11
85.8333
 21
325.8333
 31
0.0
  0
LINE
  8
CONC
 10
85.8333
 20
325.8333
 30
0.0
 11
85.8333
 21
319.1667
 31
0.0
  0
TEXT
  8
TEXT
 10
97.0
 20
328.6667
 30
0.0
 40
1.35
  1
COVERED ENTRY STAIRWELL
 72
1
 11
97.0
 21
328.6667
 31
0.0
 73
2
  0
LINE
  8
CONC
 10
8.3333
 20
296.6667
 30
0.0
 11
21.6667
 21
296.6667
 31
0.0
  0
LINE
  8
CONC
 10
21.6667
 20
296.6667
 30
0.0
 11
21.6667
 21
313.3333
 31
0.0
  0
LINE
  8
CONC
 10
21.6667
 20
313.3333
 30
0.0
 11
8.3333
 21
313.3333
 31
0.0
  0
LINE
  8
CONC
 10
8.3333
 20
313.3333
 30
0.0
 11
8.3333
 21
296.6667
 31
0.0
  0
TEXT
  8
TEXT-TITLE
 10
15.0
 20
315.3333
 30
0.0
 40
1.35
  1
SENTRY POST
 72
1
 11
15.0
 21
315.3333
 31
0.0
 73
2
  0
TEXT
  8
TEXT
 10
16.17
 20
294.3333
 30
0.0
 40
1.3
  1
10 m CLEAR MIN
 72
1
 11
16.17
 21
294.3333
 31
0.0
 73
2
  0
LINE
  8
SERVICES
 10
65.0
 20
274.1667
 30
0.0
 11
70.0
 21
274.1667
 31
0.0
  0
LINE
  8
SERVICES
 10
70.0
 20
274.1667
 30
0.0
 11
70.0
 21
276.6667
 31
0.0
  0
LINE
  8
SERVICES
 10
70.0
 20
276.6667
 30
0.0
 11
65.0
 21
276.6667
 31
0.0
  0
LINE
  8
SERVICES
 10
65.0
 20
276.6667
 30
0.0
 11
65.0
 21
274.1667
 31
0.0
  0
TEXT
  8
TEXT
 10
72.0
 20
275.3925
 30
0.0
 40
1.35
  1
SEPTIC TANK 1.5 x 0.75 x 1.0 LIQUID
 11
72.0
 21
275.3925
 31
0.0
 73
2
  0
TEXT
  8
TEXT
 10
72.0
 20
273.6667
 30
0.0
 40
1.3
  1
IS 2470 (Pt 1) Table 1, up to 10 users
 11
72.0
 21
273.6667
 31
0.0
 73
2
  0
CIRCLE
  8
SERVICES
 10
67.5
 20
261.6667
 30
0.0
 40
3.3333
  0
TEXT
  8
TEXT
 10
72.0
 20
262.3333
 30
0.0
 40
1.35
  1
SOAK PIT 2.0 DIA x 3.5 EFFECTIVE
 11
72.0
 21
262.3333
 31
0.0
 73
2
  0
TEXT
  8
TEXT
 10
72.0
 20
260.0
 30
0.0
 40
1.3
  1
IS 2470 (Pt 2).  22.0 m2 ABSORPTION
 11
72.0
 21
260.0
 31
0.0
 73
2
  0
LINE
  8
SERVICES
 10
67.5
 20
274.1667
 30
0.0
 11
67.5
 21
263.3333
 31
0.0
  0
LINE
  8
SERVICES
 10
67.5
 20
300.0
 30
0.0
 11
67.5
 21
276.6667
 31
0.0
  0
TEXT
  8
TEXT
 10
64.6667
 20
286.6667
 30
0.0
 40
1.3
  1
FOUL
 50
90.0
 72
1
 11
64.6667
 21
286.6667
 31
0.0
 73
2
  0
CIRCLE
  8
SERVICES
 10
101.6667
 20
278.3333
 30
0.0
 40
2.3333
  0
TEXT
  8
TEXT
 10
106.0
 20
279.0
 30
0.0
 40
1.35
  1
STORM SOAKAWAY - CLEAN SUMP
 11
106.0
 21
279.0
 31
0.0
 73
2
  0
TEXT
  8
TEXT
 10
106.0
 20
276.6667
 30
0.0
 40
1.3
  1
DISCHARGE.  SEPARATE FROM FOUL.
 11
106.0
 21
276.6667
 31
0.0
 73
2
  0
LINE
  8
SERVICES
 10
94.3333
 20
320.6667
 30
0.0
 11
101.6667
 21
320.6667
 31
0.0
  0
LINE
  8
SERVICES
 10
101.6667
 20
320.6667
 30
0.0
 11
101.6667
 21
280.6667
 31
0.0
  0
CIRCLE
  8
SERVICES
 10
111.0
 20
322.5
 30
0.0
 40
1.6667
  0
TEXT
  8
TEXT
 10
113.6667
 20
322.5
 30
0.0
 40
1.3
  1
STAIRWELL SUMP 1.0 m3 + OWN SOAKAWAY
 11
113.6667
 21
322.5
 31
0.0
 73
2
  0
LINE
  8
SERVICES
 10
44.6667
 20
309.3333
 30
0.0
 11
46.6667
 21
309.3333
 31
0.0
  0
LINE
  8
SERVICES
 10
46.6667
 20
309.3333
 30
0.0
 11
46.6667
 21
311.3333
 31
0.0
  0
LINE
  8
SERVICES
 10
46.6667
 20
311.3333
 30
0.0
 11
44.6667
 21
311.3333
 31
0.0
  0
LINE
  8
SERVICES
 10
44.6667
 20
311.3333
 30
0.0
 11
44.6667
 21
309.3333
 31
0.0
  0
TEXT
  8
TEXT
 10
43.0
 20
314.0
 30
0.0
 40
1.3
  1
FRESH-AIR INTAKE
 72
2
 11
43.0
 21
314.0
 31
0.0
 73
2
  0
LINE
  8
DIM
 10
46.6667
 20
335.0
 30
0.0
 11
85.8333
 21
335.0
 31
0.0
  0
LINE
  8
DIM
 10
45.8888
 20
334.2222
 30
0.0
 11
47.4445
 21
335.7778
 31
0.0
  0
LINE
  8
DIM
 10
85.0555
 20
334.2222
 30
0.0
 11
86.6112
 21
335.7778
 31
0.0
  0
TEXT
  8
DIM
 10
66.25
 20
335.81
 30
0.0
 40
1.8
  1
12.3 m INTAKE TO ENTRY  (>= 10 m)
 72
1
 11
66.25
 21
335.81
 31
0.0
 73
1
  0
TEXT
  8
TEXT-TITLE
 10
178.0
 20
380.0
 30
0.0
 40
3.4
  1
V3  SUMP PIT SECTION
 11
178.0
 21
380.0
 31
0.0
 73
3
  0
LINE
  8
TEXT-TITLE
 10
178.0
 20
375.2
 30
0.0
 11
220.0
 21
375.2
 31
0.0
  0
TEXT
  8
TEXT-TITLE
 10
178.0
 20
373.8
 30
0.0
 40
2.0
  1
SCALE 1:30   BAY 5, INSIDE THE ENVELOPE
 11
178.0
 21
373.8
 31
0.0
 73
3
  0
LINE
  8
CONC
 10
165.0
 20
333.3667
 30
0.0
 11
295.0
 21
333.3667
 31
0.0
  0
LINE
  8
CONC
 10
295.0
 20
333.3667
 30
0.0
 11
295.0
 21
353.3667
 31
0.0
  0
LINE
  8
CONC
 10
295.0
 20
353.3667
 30
0.0
 11
165.0
 21
353.3667
 31
0.0
  0
LINE
  8
CONC
 10
165.0
 20
353.3667
 30
0.0
 11
165.0
 21
333.3667
 31
0.0
  0
LINE
  8
CONC-HIDDEN
 10
205.0
 20
303.3667
 30
0.0
 11
255.0
 21
303.3667
 31
0.0
  0
LINE
  8
CONC-HIDDEN
 10
255.0
 20
303.3667
 30
0.0
 11
255.0
 21
353.3667
 31
0.0
  0
LINE
  8
CONC-HIDDEN
 10
255.0
 20
353.3667
 30
0.0
 11
205.0
 21
353.3667
 31
0.0
  0
LINE
  8
CONC-HIDDEN
 10
205.0
 20
353.3667
 30
0.0
 11
205.0
 21
303.3667
 31
0.0
  0
LINE
  8
CONC
 10
195.0
 20
290.0333
 30
0.0
 11
265.0
 21
290.0333
 31
0.0
  0
LINE
  8
CONC
 10
265.0
 20
290.0333
 30
0.0
 11
265.0
 21
303.3667
 31
0.0
  0
LINE
  8
CONC
 10
265.0
 20
303.3667
 30
0.0
 11
195.0
 21
303.3667
 31
0.0
  0
LINE
  8
CONC
 10
195.0
 20
303.3667
 30
0.0
 11
195.0
 21
290.0333
 31
0.0
  0
LINE
  8
CONC
 10
195.0
 20
290.0333
 30
0.0
 11
205.0
 21
290.0333
 31
0.0
  0
LINE
  8
CONC
 10
205.0
 20
290.0333
 30
0.0
 11
205.0
 21
353.3667
 31
0.0
  0
LINE
  8
CONC
 10
205.0
 20
353.3667
 30
0.0
 11
195.0
 21
353.3667
 31
0.0
  0
LINE
  8
CONC
 10
195.0
 20
353.3667
 30
0.0
 11
195.0
 21
290.0333
 31
0.0
  0
LINE
  8
CONC
 10
255.0
 20
290.0333
 30
0.0
 11
265.0
 21
290.0333
 31
0.0
  0
LINE
  8
CONC
 10
265.0
 20
290.0333
 30
0.0
 11
265.0
 21
353.3667
 31
0.0
  0
LINE
  8
CONC
 10
265.0
 20
353.3667
 30
0.0
 11
255.0
 21
353.3667
 31
0.0
  0
LINE
  8
CONC
 10
255.0
 20
353.3667
 30
0.0
 11
255.0
 21
290.0333
 31
0.0
  0
LINE
  8
SOIL
 10
295.0
 20
281.4779
 30
0.0
 11
291.8887
 21
278.3667
 31
0.0
  0
LINE
  8
SOIL
 10
295.0
 20
284.5892
 30
0.0
 11
288.7775
 21
278.3667
 31
0.0
  0
LINE
  8
SOIL
 10
295.0
 20
287.7005
 30
0.0
 11
285.6662
 21
278.3667
 31
0.0
  0
LINE
  8
SOIL
 10
282.5549
 20
278.3667
 30
0.0
 11
294.2216
 21
290.0333
 31
0.0
  0
LINE
  8
SOIL
 10
279.4437
 20
278.3667
 30
0.0
 11
291.1103
 21
290.0333
 31
0.0
  0
LINE
  8
SOIL
 10
276.3324
 20
278.3667
 30
0.0
 11
287.999
 21
290.0333
 31
0.0
  0
LINE
  8
SOIL
 10
273.2211
 20
278.3667
 30
0.0
 11
284.8878
 21
290.0333
 31
0.0
  0
LINE
  8
SOIL
 10
270.1098
 20
278.3667
 30
0.0
 11
281.7765
 21
290.0333
 31
0.0
  0
LINE
  8
SOIL
 10
266.9986
 20
278.3667
 30
0.0
 11
278.6652
 21
290.0333
 31
0.0
  0
LINE
  8
SOIL
 10
263.8873
 20
278.3667
 30
0.0
 11
275.554
 21
290.0333
 31
0.0
  0
LINE
  8
SOIL
 10
260.776
 20
278.3667
 30
0.0
 11
272.4427
 21
290.0333
 31
0.0
  0
LINE
  8
SOIL
 10
257.6648
 20
278.3667
 30
0.0
 11
269.3314
 21
290.0333
 31
0.0
  0
LINE
  8
SOIL
 10
254.5535
 20
278.3667
 30
0.0
 11
266.2202
 21
290.0333
 31
0.0
  0
LINE
  8
SOIL
 10
251.4422
 20
278.3667
 30
0.0
 11
263.1089
 21
290.0333
 31
0.0
  0
LINE
  8
SOIL
 10
248.331
 20
278.3667
 30
0.0
 11
259.9976
 21
290.0333
 31
0.0
  0
LINE
  8
SOIL
 10
245.2197
 20
278.3667
 30
0.0
 11
256.8863
 21
290.0333
 31
0.0
  0
LINE
  8
SOIL
 10
242.1084
 20
278.3667
 30
0.0
 11
253.7751
 21
290.0333
 31
0.0
  0
LINE
  8
SOIL
 10
238.9971
 20
278.3667
 30
0.0
 11
250.6638
 21
290.0333
 31
0.0
  0
LINE
  8
SOIL
 10
235.8859
 20
278.3667
 30
0.0
 11
247.5525
 21
290.0333
 31
0.0
  0
LINE
  8
SOIL
 10
232.7746
 20
278.3667
 30
0.0
 11
244.4413
 21
290.0333
 31
0.0
  0
LINE
  8
SOIL
 10
229.6633
 20
278.3667
 30
0.0
 11
241.33
 21
290.0333
 31
0.0
  0
LINE
  8
SOIL
 10
226.5521
 20
278.3667
 30
0.0
 11
238.2187
 21
290.0333
 31
0.0
  0
LINE
  8
SOIL
 10
223.4408
 20
278.3667
 30
0.0
 11
235.1075
 21
290.0333
 31
0.0
  0
LINE
  8
SOIL
 10
220.3295
 20
278.3667
 30
0.0
 11
231.9962
 21
290.0333
 31
0.0
  0
LINE
  8
SOIL
 10
217.2183
 20
278.3667
 30
0.0
 11
228.8849
 21
290.0333
 31
0.0
  0
LINE
  8
SOIL
 10
214.107
 20
278.3667
 30
0.0
 11
225.7737
 21
290.0333
 31
0.0
  0
LINE
  8
SOIL
 10
210.9957
 20
278.3667
 30
0.0
 11
222.6624
 21
290.0333
 31
0.0
  0
LINE
  8
SOIL
 10
207.8844
 20
278.3667
 30
0.0
 11
219.5511
 21
290.0333
 31
0.0
  0
LINE
  8
SOIL
 10
204.7732
 20
278.3667
 30
0.0
 11
216.4398
 21
290.0333
 31
0.0
  0
LINE
  8
SOIL
 10
201.6619
 20
278.3667
 30
0.0
 11
213.3286
 21
290.0333
 31
0.0
  0
LINE
  8
SOIL
 10
198.5506
 20
278.3667
 30
0.0
 11
210.2173
 21
290.0333
 31
0.0
  0
LINE
  8
SOIL
 10
195.4394
 20
278.3667
 30
0.0
 11
207.106
 21
290.0333
 31
0.0
  0
LINE
  8
SOIL
 10
192.3281
 20
278.3667
 30
0.0
 11
203.9948
 21
290.0333
 31
0.0
  0
LINE
  8
SOIL
 10
189.2168
 20
278.3667
 30
0.0
 11
200.8835
 21
290.0333
 31
0.0
  0
LINE
  8
SOIL
 10
186.1056
 20
278.3667
 30
0.0
 11
197.7722
 21
290.0333
 31
0.0
  0
LINE
  8
SOIL
 10
182.9943
 20
278.3667
 30
0.0
 11
194.661
 21
290.0333
 31
0.0
  0
LINE
  8
SOIL
 10
179.883
 20
278.3667
 30
0.0
 11
191.5497
 21
290.0333
 31
0.0
  0
LINE
  8
SOIL
 10
176.7717
 20
278.3667
 30
0.0
 11
188.4384
 21
290.0333
 31
0.0
  0
LINE
  8
SOIL
 10
173.6605
 20
278.3667
 30
0.0
 11
185.3271
 21
290.0333
 31
0.0
  0
LINE
  8
SOIL
 10
170.5492
 20
278.3667
 30
0.0
 11
182.2159
 21
290.0333
 31
0.0
  0
LINE
  8
SOIL
 10
167.4379
 20
278.3667
 30
0.0
 11
179.1046
 21
290.0333
 31
0.0
  0
LINE
  8
SOIL
 10
164.3267
 20
278.3667
 30
0.0
 11
175.9933
 21
290.0333
 31
0.0
  0
LINE
  8
SOIL
 10
161.2154
 20
278.3667
 30
0.0
 11
172.8821
 21
290.0333
 31
0.0
  0
LINE
  8
SOIL
 10
158.1041
 20
278.3667
 30
0.0
 11
169.7708
 21
290.0333
 31
0.0
  0
LINE
  8
SOIL
 10
155.0
 20
278.3738
 30
0.0
 11
166.6595
 21
290.0333
 31
0.0
  0
LINE
  8
SOIL
 10
155.0
 20
281.4851
 30
0.0
 11
163.5483
 21
290.0333
 31
0.0
  0
LINE
  8
SOIL
 10
155.0
 20
284.5963
 30
0.0
 11
160.437
 21
290.0333
 31
0.0
  0
LINE
  8
SOIL
 10
155.0
 20
287.7076
 30
0.0
 11
157.3257
 21
290.0333
 31
0.0
  0
LINE
  8
SERVICES
 10
210.6667
 20
305.0333
 30
0.0
 11
222.6667
 21
305.0333
 31
0.0
  0
LINE
  8
SERVICES
 10
222.6667
 20
305.0333
 30
0.0
 11
222.6667
 21
323.3667
 31
0.0
  0
LINE
  8
SERVICES
 10
222.6667
 20
323.3667
 30
0.0
 11
210.6667
 21
323.3667
 31
0.0
  0
LINE
  8
SERVICES
 10
210.6667
 20
323.3667
 30
0.0
 11
210.6667
 21
305.0333
 31
0.0
  0
LINE
  8
SERVICES
 10
216.6667
 20
323.3667
 30
0.0
 11
216.6667
 21
363.3667
 31
0.0
  0
LINE
  8
SERVICES
 10
237.3333
 20
305.0333
 30
0.0
 11
249.3333
 21
305.0333
 31
0.0
  0
LINE
  8
SERVICES
 10
249.3333
 20
305.0333
 30
0.0
 11
249.3333
 21
323.3667
 31
0.0
  0
LINE
  8
SERVICES
 10
249.3333
 20
323.3667
 30
0.0
 11
237.3333
 21
323.3667
 31
0.0
  0
LINE
  8
SERVICES
 10
237.3333
 20
323.3667
 30
0.0
 11
237.3333
 21
305.0333
 31
0.0
  0
LINE
  8
SERVICES
 10
243.3333
 20
323.3667
 30
0.0
 11
243.3333
 21
363.3667
 31
0.0
  0
LINE
  8
SERVICES
 10
216.6667
 20
363.3667
 30
0.0
 11
295.0
 21
363.3667
 31
0.0
  0
LINE
  8
WATERPROOF
 10
165.0
 20
326.7
 30
0.0
 11
166.4
 21
326.7
 31
0.0
  0
LINE
  8
WATERPROOF
 10
167.4
 20
326.7
 30
0.0
 11
168.8
 21
326.7
 31
0.0
  0
LINE
  8
WATERPROOF
 10
169.8
 20
326.7
 30
0.0
 11
171.2
 21
326.7
 31
0.0
  0
LINE
  8
WATERPROOF
 10
172.2
 20
326.7
 30
0.0
 11
173.6
 21
326.7
 31
0.0
  0
LINE
  8
WATERPROOF
 10
174.6
 20
326.7
 30
0.0
 11
176.0
 21
326.7
 31
0.0
  0
LINE
  8
WATERPROOF
 10
177.0
 20
326.7
 30
0.0
 11
178.4
 21
326.7
 31
0.0
  0
LINE
  8
WATERPROOF
 10
179.4
 20
326.7
 30
0.0
 11
180.8
 21
326.7
 31
0.0
  0
LINE
  8
WATERPROOF
 10
181.8
 20
326.7
 30
0.0
 11
183.2
 21
326.7
 31
0.0
  0
LINE
  8
WATERPROOF
 10
184.2
 20
326.7
 30
0.0
 11
185.6
 21
326.7
 31
0.0
  0
LINE
  8
WATERPROOF
 10
186.6
 20
326.7
 30
0.0
 11
188.0
 21
326.7
 31
0.0
  0
LINE
  8
WATERPROOF
 10
189.0
 20
326.7
 30
0.0
 11
190.4
 21
326.7
 31
0.0
  0
LINE
  8
WATERPROOF
 10
191.4
 20
326.7
 30
0.0
 11
192.8
 21
326.7
 31
0.0
  0
LINE
  8
WATERPROOF
 10
193.8
 20
326.7
 30
0.0
 11
195.2
 21
326.7
 31
0.0
  0
LINE
  8
WATERPROOF
 10
196.2
 20
326.7
 30
0.0
 11
197.6
 21
326.7
 31
0.0
  0
LINE
  8
WATERPROOF
 10
198.6
 20
326.7
 30
0.0
 11
200.0
 21
326.7
 31
0.0
  0
LINE
  8
WATERPROOF
 10
201.0
 20
326.7
 30
0.0
 11
202.4
 21
326.7
 31
0.0
  0
LINE
  8
WATERPROOF
 10
203.4
 20
326.7
 30
0.0
 11
204.8
 21
326.7
 31
0.0
  0
LINE
  8
WATERPROOF
 10
205.8
 20
326.7
 30
0.0
 11
207.2
 21
326.7
 31
0.0
  0
LINE
  8
WATERPROOF
 10
208.2
 20
326.7
 30
0.0
 11
209.6
 21
326.7
 31
0.0
  0
LINE
  8
WATERPROOF
 10
210.6
 20
326.7
 30
0.0
 11
212.0
 21
326.7
 31
0.0
  0
LINE
  8
WATERPROOF
 10
213.0
 20
326.7
 30
0.0
 11
214.4
 21
326.7
 31
0.0
  0
LINE
  8
WATERPROOF
 10
215.4
 20
326.7
 30
0.0
 11
216.8
 21
326.7
 31
0.0
  0
LINE
  8
WATERPROOF
 10
217.8
 20
326.7
 30
0.0
 11
219.2
 21
326.7
 31
0.0
  0
LINE
  8
WATERPROOF
 10
220.2
 20
326.7
 30
0.0
 11
221.6
 21
326.7
 31
0.0
  0
LINE
  8
WATERPROOF
 10
222.6
 20
326.7
 30
0.0
 11
224.0
 21
326.7
 31
0.0
  0
LINE
  8
WATERPROOF
 10
225.0
 20
326.7
 30
0.0
 11
226.4
 21
326.7
 31
0.0
  0
LINE
  8
WATERPROOF
 10
227.4
 20
326.7
 30
0.0
 11
228.8
 21
326.7
 31
0.0
  0
LINE
  8
WATERPROOF
 10
229.8
 20
326.7
 30
0.0
 11
231.2
 21
326.7
 31
0.0
  0
LINE
  8
WATERPROOF
 10
232.2
 20
326.7
 30
0.0
 11
233.6
 21
326.7
 31
0.0
  0
LINE
  8
WATERPROOF
 10
234.6
 20
326.7
 30
0.0
 11
236.0
 21
326.7
 31
0.0
  0
LINE
  8
WATERPROOF
 10
237.0
 20
326.7
 30
0.0
 11
238.4
 21
326.7
 31
0.0
  0
LINE
  8
WATERPROOF
 10
239.4
 20
326.7
 30
0.0
 11
240.8
 21
326.7
 31
0.0
  0
LINE
  8
WATERPROOF
 10
241.8
 20
326.7
 30
0.0
 11
243.2
 21
326.7
 31
0.0
  0
LINE
  8
WATERPROOF
 10
244.2
 20
326.7
 30
0.0
 11
245.6
 21
326.7
 31
0.0
  0
LINE
  8
WATERPROOF
 10
246.6
 20
326.7
 30
0.0
 11
248.0
 21
326.7
 31
0.0
  0
LINE
  8
WATERPROOF
 10
249.0
 20
326.7
 30
0.0
 11
250.4
 21
326.7
 31
0.0
  0
LINE
  8
WATERPROOF
 10
251.4
 20
326.7
 30
0.0
 11
252.8
 21
326.7
 31
0.0
  0
LINE
  8
WATERPROOF
 10
253.8
 20
326.7
 30
0.0
 11
255.2
 21
326.7
 31
0.0
  0
LINE
  8
WATERPROOF
 10
256.2
 20
326.7
 30
0.0
 11
257.6
 21
326.7
 31
0.0
  0
LINE
  8
WATERPROOF
 10
258.6
 20
326.7
 30
0.0
 11
260.0
 21
326.7
 31
0.0
  0
LINE
  8
WATERPROOF
 10
261.0
 20
326.7
 30
0.0
 11
262.4
 21
326.7
 31
0.0
  0
LINE
  8
WATERPROOF
 10
263.4
 20
326.7
 30
0.0
 11
264.8
 21
326.7
 31
0.0
  0
LINE
  8
LEVELS
 10
295.0
 20
353.3667
 30
0.0
 11
293.4
 21
354.9667
 31
0.0
  0
LINE
  8
LEVELS
 10
295.0
 20
353.3667
 30
0.0
 11
296.6
 21
354.9667
 31
0.0
  0
LINE
  8
LEVELS
 10
293.4
 20
354.9667
 30
0.0
 11
296.6
 21
354.9667
 31
0.0
  0
TEXT
  8
LEVELS
 10
297.6
 20
353.9267
 30
0.0
 40
1.4
  1
(-)6.100 FLOOR
 11
297.6
 21
353.9267
 31
0.0
 73
1
  0
LINE
  8
LEVELS
 10
295.0
 20
303.3667
 30
0.0
 11
293.4
 21
304.9667
 31
0.0
  0
LINE
  8
LEVELS
 10
295.0
 20
303.3667
 30
0.0
 11
296.6
 21
304.9667
 31
0.0
  0
LINE
  8
LEVELS
 10
293.4
 20
304.9667
 30
0.0
 11
296.6
 21
304.9667
 31
0.0
  0
TEXT
  8
LEVELS
 10
297.6
 20
303.9267
 30
0.0
 40
1.4
  1
(-)7.600 INVERT
 11
297.6
 21
303.9267
 31
0.0
 73
1
  0
LINE
  8
LEVELS
 10
295.0
 20
290.0333
 30
0.0
 11
293.4
 21
291.6333
 31
0.0
  0
LINE
  8
LEVELS
 10
295.0
 20
290.0333
 30
0.0
 11
296.6
 21
291.6333
 31
0.0
  0
LINE
  8
LEVELS
 10
293.4
 20
291.6333
 30
0.0
 11
296.6
 21
291.6333
 31
0.0
  0
TEXT
  8
LEVELS
 10
297.6
 20
290.5933
 30
0.0
 40
1.4
  1
(-)8.000
 11
297.6
 21
290.5933
 31
0.0
 73
1
  0
LINE
  8
DIM
 10
205.0
 20
270.0333
 30
0.0
 11
255.0
 21
270.0333
 31
0.0
  0
LINE
  8
DIM
 10
204.2222
 20
269.2555
 30
0.0
 11
205.7778
 21
270.8112
 31
0.0
  0
LINE
  8
DIM
 10
254.2222
 20
269.2555
 30
0.0
 11
255.7778
 21
270.8112
 31
0.0
  0
TEXT
  8
DIM
 10
230.0
 20
270.8433
 30
0.0
 40
1.8
  1
1500
 72
1
 11
230.0
 21
270.8433
 31
0.0
 73
1
  0
TEXT
  8
TEXT
 10
178.0
 20
258.0
 30
0.0
 40
1.45
  1
2 No. SUBMERSIBLE PUMPS 1.5 l/s, DUTY / STANDBY,
 11
178.0
 21
258.0
 31
0.0
 73
3
  0
TEXT
  8
TEXT
 10
178.0
 20
254.5
 30
0.0
 40
1.45
  1
AUTO-ALTERNATING + HAND PUMP.  START +900,
 11
178.0
 21
254.5
 31
0.0
 73
3
  0
TEXT
  8
TEXT
 10
178.0
 20
251.0
 30
0.0
 40
1.45
  1
STOP +300, HIGH ALARM +1200 ABOVE THE INVERT.
 11
178.0
 21
251.0
 31
0.0
 73
3
  0
TEXT
  8
TEXT
 10
178.0
 20
247.5
 30
0.0
 40
1.45
  1
PIT WALLS / BASE 300 THK, T16 @ 150 EF EW,
 11
178.0
 21
247.5
 31
0.0
 73
3
  0
TEXT
  8
TEXT
 10
178.0
 20
244.0
 30
0.0
 40
1.45
  1
CAST MONOLITHIC WITH THE MAT.  MEMBRANE DRESSED
 11
178.0
 21
244.0
 31
0.0
 73
3
  0
TEXT
  8
TEXT
 10
178.0
 20
240.5
 30
0.0
 40
1.45
  1
AROUND THE PIT.  4-T20 TRIMMERS EACH FACE/SIDE.
 11
178.0
 21
240.5
 31
0.0
 73
3
  0
TEXT
  8
TEXT-TITLE
 10
320.0
 20
380.0
 30
0.0
 40
3.4
  1
V4  SEPTIC TANK AND SOAK PIT
 11
320.0
 21
380.0
 31
0.0
 73
3
  0
LINE
  8
TEXT-TITLE
 10
320.0
 20
375.2
 30
0.0
 11
377.6
 21
375.2
 31
0.0
  0
TEXT
  8
TEXT-TITLE
 10
320.0
 20
373.8
 30
0.0
 40
2.0
  1
SCALE 1:40   IS 2470 (PARTS 1 AND 2):1985
 11
320.0
 21
373.8
 31
0.0
 73
3
  0
LINE
  8
CONC
 10
340.0
 20
300.0
 30
0.0
 11
385.0
 21
300.0
 31
0.0
  0
LINE
  8
CONC
 10
385.0
 20
300.0
 30
0.0
 11
385.0
 21
340.0
 31
0.0
  0
LINE
  8
CONC
 10
385.0
 20
340.0
 30
0.0
 11
340.0
 21
340.0
 31
0.0
  0
LINE
  8
CONC
 10
340.0
 20
340.0
 30
0.0
 11
340.0
 21
300.0
 31
0.0
  0
LINE
  8
CONC-HIDDEN
 10
343.75
 20
303.75
 30
0.0
 11
381.25
 21
303.75
 31
0.0
  0
LINE
  8
CONC-HIDDEN
 10
381.25
 20
303.75
 30
0.0
 11
381.25
 21
336.25
 31
0.0
  0
LINE
  8
CONC-HIDDEN
 10
381.25
 20
336.25
 30
0.0
 11
343.75
 21
336.25
 31
0.0
  0
LINE
  8
CONC-HIDDEN
 10
343.75
 20
336.25
 30
0.0
 11
343.75
 21
303.75
 31
0.0
  0
LINE
  8
CONC
 10
368.75
 20
303.75
 30
0.0
 11
368.75
 21
328.75
 31
0.0
  0
LINE
  8
WATERPROOF
 10
343.75
 20
328.75
 30
0.0
 11
381.25
 21
328.75
 31
0.0
  0
TEXT
  8
WATERPROOF
 10
362.5
 20
331.25
 30
0.0
 40
1.35
  1
LIQUID LEVEL
 72
1
 11
362.5
 21
331.25
 31
0.0
 73
2
  0
LINE
  8
SERVICES
 10
327.5
 20
331.25
 30
0.0
 11
347.5
 21
331.25
 31
0.0
  0
LINE
  8
SERVICES
 10
377.5
 20
331.25
 30
0.0
 11
397.5
 21
331.25
 31
0.0
  0
TEXT
  8
TEXT
 10
327.5
 20
336.25
 30
0.0
 40
1.35
  1
IN
 11
327.5
 21
336.25
 31
0.0
 73
2
  0
TEXT
  8
TEXT
 10
397.5
 20
336.25
 30
0.0
 40
1.35
  1
OUT
 72
2
 11
397.5
 21
336.25
 31
0.0
 73
2
  0
LINE
  8
SERVICES
 10
355.0
 20
340.0
 30
0.0
 11
355.0
 21
365.0
 31
0.0
  0
TEXT
  8
TEXT
 10
357.5
 20
360.0
 30
0.0
 40
1.3
  1
50 VENT, COWLED
 11
357.5
 21
360.0
 31
0.0
 73
2
  0
LINE
  8
DIM
 10
320.0
 20
303.75
 30
0.0
 11
320.0
 21
328.75
 31
0.0
  0
LINE
  8
DIM
 10
319.2222
 20
302.9722
 30
0.0
 11
320.7778
 21
304.5278
 31
0.0
  0
LINE
  8
DIM
 10
319.2222
 20
327.9722
 30
0.0
 11
320.7778
 21
329.5278
 31
0.0
  0
TEXT
  8
DIM
 10
319.19
 20
316.25
 30
0.0
 40
1.8
  1
1000
 50
90.0
 72
1
 11
319.19
 21
316.25
 31
0.0
 73
1
  0
LINE
  8
DIM
 10
343.75
 20
287.5
 30
0.0
 11
381.25
 21
287.5
 31
0.0
  0
LINE
  8
DIM
 10
342.9722
 20
286.7222
 30
0.0
 11
344.5278
 21
288.2778
 31
0.0
  0
LINE
  8
DIM
 10
380.4722
 20
286.7222
 30
0.0
 11
382.0278
 21
288.2778
 31
0.0
  0
TEXT
  8
DIM
 10
362.5
 20
288.31
 30
0.0
 40
1.8
  1
1500
 72
1
 11
362.5
 21
288.31
 31
0.0
 73
1
  0
TEXT
  8
TEXT-TITLE
 10
362.5
 20
272.5
 30
0.0
 40
1.4
  1
SECTION - SEPTIC TANK
 72
1
 11
362.5
 21
272.5
 31
0.0
 73
2
  0
LINE
  8
CONC
 10
430.0
 20
262.5
 30
0.0
 11
480.0
 21
262.5
 31
0.0
  0
LINE
  8
CONC
 10
480.0
 20
262.5
 30
0.0
 11
480.0
 21
340.0
 31
0.0
  0
LINE
  8
CONC
 10
480.0
 20
340.0
 30
0.0
 11
430.0
 21
340.0
 31
0.0
  0
LINE
  8
CONC
 10
430.0
 20
340.0
 30
0.0
 11
430.0
 21
262.5
 31
0.0
  0
LINE
  8
SOIL
 10
480.0
 20
265.3284
 30
0.0
 11
477.1716
 21
262.5
 31
0.0
  0
LINE
  8
SOIL
 10
480.0
 20
268.1569
 30
0.0
 11
474.3431
 21
262.5
 31
0.0
  0
LINE
  8
SOIL
 10
480.0
 20
270.9853
 30
0.0
 11
471.5147
 21
262.5
 31
0.0
  0
LINE
  8
SOIL
 10
480.0
 20
273.8137
 30
0.0
 11
468.6863
 21
262.5
 31
0.0
  0
LINE
  8
SOIL
 10
480.0
 20
276.6421
 30
0.0
 11
465.8579
 21
262.5
 31
0.0
  0
LINE
  8
SOIL
 10
480.0
 20
279.4706
 30
0.0
 11
463.0294
 21
262.5
 31
0.0
  0
LINE
  8
SOIL
 10
480.0
 20
282.299
 30
0.0
 11
460.201
 21
262.5
 31
0.0
  0
LINE
  8
SOIL
 10
480.0
 20
285.1274
 30
0.0
 11
457.3726
 21
262.5
 31
0.0
  0
LINE
  8
SOIL
 10
480.0
 20
287.9558
 30
0.0
 11
454.5442
 21
262.5
 31
0.0
  0
LINE
  8
SOIL
 10
480.0
 20
290.7843
 30
0.0
 11
451.7157
 21
262.5
 31
0.0
  0
LINE
  8
SOIL
 10
480.0
 20
293.6127
 30
0.0
 11
448.8873
 21
262.5
 31
0.0
  0
LINE
  8
SOIL
 10
480.0
 20
296.4411
 30
0.0
 11
446.0589
 21
262.5
 31
0.0
  0
LINE
  8
SOIL
 10
480.0
 20
299.2696
 30
0.0
 11
443.2304
 21
262.5
 31
0.0
  0
LINE
  8
SOIL
 10
480.0
 20
302.098
 30
0.0
 11
440.402
 21
262.5
 31
0.0
  0
LINE
  8
SOIL
 10
480.0
 20
304.9264
 30
0.0
 11
437.5736
 21
262.5
 31
0.0
  0
LINE
  8
SOIL
 10
480.0
 20
307.7548
 30
0.0
 11
434.7452
 21
262.5
 31
0.0
  0
LINE
  8
SOIL
 10
480.0
 20
310.5833
 30
0.0
 11
431.9167
 21
262.5
 31
0.0
  0
LINE
  8
SOIL
 10
430.0
 20
263.4117
 30
0.0
 11
480.0
 21
313.4117
 31
0.0
  0
LINE
  8
SOIL
 10
430.0
 20
266.2401
 30
0.0
 11
480.0
 21
316.2401
 31
0.0
  0
LINE
  8
SOIL
 10
430.0
 20
269.0685
 30
0.0
 11
480.0
 21
319.0685
 31
0.0
  0
LINE
  8
SOIL
 10
430.0
 20
271.897
 30
0.0
 11
480.0
 21
321.897
 31
0.0
  0
LINE
  8
SOIL
 10
430.0
 20
274.7254
 30
0.0
 11
480.0
 21
324.7254
 31
0.0
  0
LINE
  8
SOIL
 10
430.0
 20
277.5538
 30
0.0
 11
480.0
 21
327.5538
 31
0.0
  0
LINE
  8
SOIL
 10
430.0
 20
280.3823
 30
0.0
 11
480.0
 21
330.3823
 31
0.0
  0
LINE
  8
SOIL
 10
430.0
 20
283.2107
 30
0.0
 11
480.0
 21
333.2107
 31
0.0
  0
LINE
  8
SOIL
 10
430.0
 20
286.0391
 30
0.0
 11
480.0
 21
336.0391
 31
0.0
  0
LINE
  8
SOIL
 10
430.0
 20
288.8675
 30
0.0
 11
477.3825
 21
336.25
 31
0.0
  0
LINE
  8
SOIL
 10
430.0
 20
291.696
 30
0.0
 11
474.554
 21
336.25
 31
0.0
  0
LINE
  8
SOIL
 10
430.0
 20
294.5244
 30
0.0
 11
471.7256
 21
336.25
 31
0.0
  0
LINE
  8
SOIL
 10
430.0
 20
297.3528
 30
0.0
 11
468.8972
 21
336.25
 31
0.0
  0
LINE
  8
SOIL
 10
430.0
 20
300.1812
 30
0.0
 11
466.0688
 21
336.25
 31
0.0
  0
LINE
  8
SOIL
 10
430.0
 20
303.0097
 30
0.0
 11
463.2403
 21
336.25
 31
0.0
  0
LINE
  8
SOIL
 10
430.0
 20
305.8381
 30
0.0
 11
460.4119
 21
336.25
 31
0.0
  0
LINE
  8
SOIL
 10
430.0
 20
308.6665
 30
0.0
 11
457.5835
 21
336.25
 31
0.0
  0
LINE
  8
SOIL
 10
430.0
 20
311.4949
 30
0.0
 11
454.7551
 21
336.25
 31
0.0
  0
LINE
  8
SOIL
 10
430.0
 20
314.3234
 30
0.0
 11
451.9266
 21
336.25
 31
0.0
  0
LINE
  8
SOIL
 10
430.0
 20
317.1518
 30
0.0
 11
449.0982
 21
336.25
 31
0.0
  0
LINE
  8
SOIL
 10
430.0
 20
319.9802
 30
0.0
 11
446.2698
 21
336.25
 31
0.0
  0
LINE
  8
SOIL
 10
430.0
 20
322.8087
 30
0.0
 11
443.4413
 21
336.25
 31
0.0
  0
LINE
  8
SOIL
 10
430.0
 20
325.6371
 30
0.0
 11
440.6129
 21
336.25
 31
0.0
  0
LINE
  8
SOIL
 10
430.0
 20
328.4655
 30
0.0
 11
437.7845
 21
336.25
 31
0.0
  0
LINE
  8
SOIL
 10
430.0
 20
331.2939
 30
0.0
 11
434.9561
 21
336.25
 31
0.0
  0
LINE
  8
SOIL
 10
430.0
 20
334.1224
 30
0.0
 11
432.1276
 21
336.25
 31
0.0
  0
LINE
  8
SOIL
 10
430.0
 20
312.5
 30
0.0
 11
480.0
 21
262.5
 31
0.0
  0
LINE
  8
SOIL
 10
430.0
 20
309.6716
 30
0.0
 11
477.1716
 21
262.5
 31
0.0
  0
LINE
  8
SOIL
 10
430.0
 20
306.8431
 30
0.0
 11
474.3431
 21
262.5
 31
0.0
  0
LINE
  8
SOIL
 10
430.0
 20
304.0147
 30
0.0
 11
471.5147
 21
262.5
 31
0.0
  0
LINE
  8
SOIL
 10
430.0
 20
301.1863
 30
0.0
 11
468.6863
 21
262.5
 31
0.0
  0
LINE
  8
SOIL
 10
430.0
 20
298.3579
 30
0.0
 11
465.8579
 21
262.5
 31
0.0
  0
LINE
  8
SOIL
 10
430.0
 20
295.5294
 30
0.0
 11
463.0294
 21
262.5
 31
0.0
  0
LINE
  8
SOIL
 10
430.0
 20
292.701
 30
0.0
 11
460.201
 21
262.5
 31
0.0
  0
LINE
  8
SOIL
 10
430.0
 20
289.8726
 30
0.0
 11
457.3726
 21
262.5
 31
0.0
  0
LINE
  8
SOIL
 10
430.0
 20
287.0442
 30
0.0
 11
454.5442
 21
262.5
 31
0.0
  0
LINE
  8
SOIL
 10
430.0
 20
284.2157
 30
0.0
 11
451.7157
 21
262.5
 31
0.0
  0
LINE
  8
SOIL
 10
430.0
 20
281.3873
 30
0.0
 11
448.8873
 21
262.5
 31
0.0
  0
LINE
  8
SOIL
 10
430.0
 20
278.5589
 30
0.0
 11
446.0589
 21
262.5
 31
0.0
  0
LINE
  8
SOIL
 10
430.0
 20
275.7304
 30
0.0
 11
443.2304
 21
262.5
 31
0.0
  0
LINE
  8
SOIL
 10
430.0
 20
272.902
 30
0.0
 11
440.402
 21
262.5
 31
0.0
  0
LINE
  8
SOIL
 10
430.0
 20
270.0736
 30
0.0
 11
437.5736
 21
262.5
 31
0.0
  0
LINE
  8
SOIL
 10
430.0
 20
267.2452
 30
0.0
 11
434.7452
 21
262.5
 31
0.0
  0
LINE
  8
SOIL
 10
430.0
 20
264.4167
 30
0.0
 11
431.9167
 21
262.5
 31
0.0
  0
LINE
  8
CONC
 10
430.0
 20
336.25
 30
0.0
 11
480.0
 21
336.25
 31
0.0
  0
LINE
  8
CONC
 10
480.0
 20
336.25
 30
0.0
 11
480.0
 21
340.0
 31
0.0
  0
LINE
  8
CONC
 10
480.0
 20
340.0
 30
0.0
 11
430.0
 21
340.0
 31
0.0
  0
LINE
  8
CONC
 10
430.0
 20
340.0
 30
0.0
 11
430.0
 21
336.25
 31
0.0
  0
LINE
  8
SERVICES
 10
455.0
 20
340.0
 30
0.0
 11
455.0
 21
355.0
 31
0.0
  0
LINE
  8
SERVICES
 10
397.5
 20
355.0
 30
0.0
 11
455.0
 21
355.0
 31
0.0
  0
LINE
  8
DIM
 10
492.5
 20
262.5
 30
0.0
 11
492.5
 21
336.25
 31
0.0
  0
LINE
  8
DIM
 10
491.7222
 20
261.7222
 30
0.0
 11
493.2778
 21
263.2778
 31
0.0
  0
LINE
  8
DIM
 10
491.7222
 20
335.4722
 30
0.0
 11
493.2778
 21
337.0278
 31
0.0
  0
TEXT
  8
DIM
 10
491.69
 20
299.375
 30
0.0
 40
1.8
  1
3500 EFFECTIVE
 50
90.0
 72
1
 11
491.69
 21
299.375
 31
0.0
 73
1
  0
LINE
  8
DIM
 10
430.0
 20
247.5
 30
0.0
 11
480.0
 21
247.5
 31
0.0
  0
LINE
  8
DIM
 10
429.2222
 20
246.7222
 30
0.0
 11
430.7778
 21
248.2778
 31
0.0
  0
LINE
  8
DIM
 10
479.2222
 20
246.7222
 30
0.0
 11
480.7778
 21
248.2778
 31
0.0
  0
TEXT
  8
DIM
 10
455.0
 20
248.31
 30
0.0
 40
1.8
  1
2000 DIA
 72
1
 11
455.0
 21
248.31
 31
0.0
 73
1
  0
TEXT
  8
TEXT-TITLE
 10
455.0
 20
232.5
 30
0.0
 40
1.4
  1
SOAK PIT
 72
1
 11
455.0
 21
232.5
 31
0.0
 73
2
  0
TEXT
  8
TEXT
 10
320.0
 20
224.0
 30
0.0
 40
1.45
  1
PIT FILLED WITH 40-80 mm BRICKBAT / STONE, 300 SAND
 11
320.0
 21
224.0
 31
0.0
 73
3
  0
TEXT
  8
TEXT
 10
320.0
 20
220.5
 30
0.0
 40
1.45
  1
AT THE TOP, RC COVER SLAB.  SIDE AREA ONLY IS COUNTED
 11
320.0
 21
220.5
 31
0.0
 73
3
  0
TEXT
  8
TEXT
 10
320.0
 20
217.0
 30
0.0
 40
1.45
  1
AS ABSORBING - THE BASE CLOGS.  >= 15 m FROM ANY WELL,
 11
320.0
 21
217.0
 31
0.0
 73
3
  0
TEXT
  8
TEXT
 10
320.0
 20
213.5
 30
0.0
 40
1.45
  1
>= 5 m FROM THE SEPTIC TANK, >= 2 m FROM ANY BUILDING.
 11
320.0
 21
213.5
 31
0.0
 73
3
  0
TEXT
  8
TEXT-TITLE
 10
25.0
 20
246.0
 30
0.0
 40
3.4
  1
V5  NBC FILTER TRAIN AND BLAST-VALVE ASSEMBLY
 11
25.0
 21
246.0
 31
0.0
 73
3
  0
LINE
  8
TEXT-TITLE
 10
25.0
 20
241.2
 30
0.0
 11
115.75
 21
241.2
 31
0.0
  0
TEXT
  8
TEXT-TITLE
 10
25.0
 20
239.8
 30
0.0
 40
2.0
  1
SCALE 1:0   ONE OF TWO IDENTICAL TRAINS, EACH 300 m3/h (TRUE N+1)
 11
25.0
 21
239.8
 31
0.0
 73
3
  0
LINE
  8
SERVICES
 10
30.0
 20
175.0
 30
0.0
 11
91.0
 21
175.0
 31
0.0
  0
LINE
  8
SERVICES
 10
91.0
 20
175.0
 30
0.0
 11
91.0
 21
201.0
 31
0.0
  0
LINE
  8
SERVICES
 10
91.0
 20
201.0
 30
0.0
 11
30.0
 21
201.0
 31
0.0
  0
LINE
  8
SERVICES
 10
30.0
 20
201.0
 30
0.0
 11
30.0
 21
175.0
 31
0.0
  0
TEXT
  8
TEXT-TITLE
 10
60.5
 20
195.0
 30
0.0
 40
2.0
  1
WEATHER LOUVRE
 72
1
 11
60.5
 21
195.0
 31
0.0
 73
2
  0
TEXT
  8
TEXT
 10
60.5
 20
188.0
 30
0.0
 40
1.5
  1
SAND +
 72
1
 11
60.5
 21
188.0
 31
0.0
 73
2
  0
TEXT
  8
TEXT
 10
60.5
 20
184.0
 30
0.0
 40
1.5
  1
DEBRIS TRAP
 72
1
 11
60.5
 21
184.0
 31
0.0
 73
2
  0
LINE
  8
SERVICES
 10
91.0
 20
188.0
 30
0.0
 11
99.0
 21
188.0
 31
0.0
  0
LINE
  8
SERVICES
 10
99.0
 20
188.0
 30
0.0
 11
95.0
 21
190.0
 31
0.0
  0
LINE
  8
SERVICES
 10
99.0
 20
188.0
 30
0.0
 11
95.0
 21
186.0
 31
0.0
  0
LINE
  8
BLAST
 10
99.0
 20
175.0
 30
0.0
 11
160.0
 21
175.0
 31
0.0
  0
LINE
  8
BLAST
 10
160.0
 20
175.0
 30
0.0
 11
160.0
 21
201.0
 31
0.0
  0
LINE
  8
BLAST
 10
160.0
 20
201.0
 30
0.0
 11
99.0
 21
201.0
 31
0.0
  0
LINE
  8
BLAST
 10
99.0
 20
201.0
 30
0.0
 11
99.0
 21
175.0
 31
0.0
  0
TEXT
  8
TEXT-TITLE
 10
129.5
 20
195.0
 30
0.0
 40
2.0
  1
BLAST VALVE
 72
1
 11
129.5
 21
195.0
 31
0.0
 73
2
  0
TEXT
  8
TEXT
 10
129.5
 20
188.0
 30
0.0
 40
1.5
  1
< 2 ms CLOSE
 72
1
 11
129.5
 21
188.0
 31
0.0
 73
2
  0
TEXT
  8
TEXT
 10
129.5
 20
184.0
 30
0.0
 40
1.5
  1
HOLDS 1.3 s
 72
1
 11
129.5
 21
184.0
 31
0.0
 73
2
  0
LINE
  8
SERVICES
 10
160.0
 20
188.0
 30
0.0
 11
168.0
 21
188.0
 31
0.0
  0
LINE
  8
SERVICES
 10
168.0
 20
188.0
 30
0.0
 11
164.0
 21
190.0
 31
0.0
  0
LINE
  8
SERVICES
 10
168.0
 20
188.0
 30
0.0
 11
164.0
 21
186.0
 31
0.0
  0
LINE
  8
SERVICES
 10
168.0
 20
175.0
 30
0.0
 11
229.0
 21
175.0
 31
0.0
  0
LINE
  8
SERVICES
 10
229.0
 20
175.0
 30
0.0
 11
229.0
 21
201.0
 31
0.0
  0
LINE
  8
SERVICES
 10
229.0
 20
201.0
 30
0.0
 11
168.0
 21
201.0
 31
0.0
  0
LINE
  8
SERVICES
 10
168.0
 20
201.0
 30
0.0
 11
168.0
 21
175.0
 31
0.0
  0
TEXT
  8
TEXT-TITLE
 10
198.5
 20
195.0
 30
0.0
 40
2.0
  1
PRE-FILTER
 72
1
 11
198.5
 21
195.0
 31
0.0
 73
2
  0
TEXT
  8
TEXT
 10
198.5
 20
188.0
 30
0.0
 40
1.5
  1
G4 / F7
 72
1
 11
198.5
 21
188.0
 31
0.0
 73
2
  0
LINE
  8
SERVICES
 10
229.0
 20
188.0
 30
0.0
 11
237.0
 21
188.0
 31
0.0
  0
LINE
  8
SERVICES
 10
237.0
 20
188.0
 30
0.0
 11
233.0
 21
190.0
 31
0.0
  0
LINE
  8
SERVICES
 10
237.0
 20
188.0
 30
0.0
 11
233.0
 21
186.0
 31
0.0
  0
LINE
  8
SERVICES
 10
237.0
 20
175.0
 30
0.0
 11
298.0
 21
175.0
 31
0.0
  0
LINE
  8
SERVICES
 10
298.0
 20
175.0
 30
0.0
 11
298.0
 21
201.0
 31
0.0
  0
LINE
  8
SERVICES
 10
298.0
 20
201.0
 30
0.0
 11
237.0
 21
201.0
 31
0.0
  0
LINE
  8
SERVICES
 10
237.0
 20
201.0
 30
0.0
 11
237.0
 21
175.0
 31
0.0
  0
TEXT
  8
TEXT-TITLE
 10
267.5
 20
195.0
 30
0.0
 40
2.0
  1
HEPA
 72
1
 11
267.5
 21
195.0
 31
0.0
 73
2
  0
TEXT
  8
TEXT
 10
267.5
 20
188.0
 30
0.0
 40
1.5
  1
EN 1822 H14
 72
1
 11
267.5
 21
188.0
 31
0.0
 73
2
  0
TEXT
  8
TEXT
 10
267.5
 20
184.0
 30
0.0
 40
1.5
  1
99.995 % MPPS
 72
1
 11
267.5
 21
184.0
 31
0.0
 73
2
  0
LINE
  8
SERVICES
 10
298.0
 20
188.0
 30
0.0
 11
306.0
 21
188.0
 31
0.0
  0
LINE
  8
SERVICES
 10
306.0
 20
188.0
 30
0.0
 11
302.0
 21
190.0
 31
0.0
  0
LINE
  8
SERVICES
 10
306.0
 20
188.0
 30
0.0
 11
302.0
 21
186.0
 31
0.0
  0
LINE
  8
SERVICES
 10
306.0
 20
175.0
 30
0.0
 11
367.0
 21
175.0
 31
0.0
  0
LINE
  8
SERVICES
 10
367.0
 20
175.0
 30
0.0
 11
367.0
 21
201.0
 31
0.0
  0
LINE
  8
SERVICES
 10
367.0
 20
201.0
 30
0.0
 11
306.0
 21
201.0
 31
0.0
  0
LINE
  8
SERVICES
 10
306.0
 20
201.0
 30
0.0
 11
306.0
 21
175.0
 31
0.0
  0
TEXT
  8
TEXT-TITLE
 10
336.5
 20
195.0
 30
0.0
 40
2.0
  1
CARBON
 72
1
 11
336.5
 21
195.0
 31
0.0
 73
2
  0
TEXT
  8
TEXT
 10
336.5
 20
188.0
 30
0.0
 40
1.5
  1
ASZM-TEDA
 72
1
 11
336.5
 21
188.0
 31
0.0
 73
2
  0
TEXT
  8
TEXT
 10
336.5
 20
184.0
 30
0.0
 40
1.5
  1
300 000 mg.min/m3
 72
1
 11
336.5
 21
184.0
 31
0.0
 73
2
  0
LINE
  8
SERVICES
 10
367.0
 20
188.0
 30
0.0
 11
375.0
 21
188.0
 31
0.0
  0
LINE
  8
SERVICES
 10
375.0
 20
188.0
 30
0.0
 11
371.0
 21
190.0
 31
0.0
  0
LINE
  8
SERVICES
 10
375.0
 20
188.0
 30
0.0
 11
371.0
 21
186.0
 31
0.0
  0
LINE
  8
SERVICES
 10
375.0
 20
175.0
 30
0.0
 11
436.0
 21
175.0
 31
0.0
  0
LINE
  8
SERVICES
 10
436.0
 20
175.0
 30
0.0
 11
436.0
 21
201.0
 31
0.0
  0
LINE
  8
SERVICES
 10
436.0
 20
201.0
 30
0.0
 11
375.0
 21
201.0
 31
0.0
  0
LINE
  8
SERVICES
 10
375.0
 20
201.0
 30
0.0
 11
375.0
 21
175.0
 31
0.0
  0
TEXT
  8
TEXT-TITLE
 10
405.5
 20
195.0
 30
0.0
 40
2.0
  1
FAN
 72
1
 11
405.5
 21
195.0
 31
0.0
 73
2
  0
TEXT
  8
TEXT
 10
405.5
 20
188.0
 30
0.0
 40
1.5
  1
+ HAND CRANK
 72
1
 11
405.5
 21
188.0
 31
0.0
 73
2
  0
LINE
  8
SERVICES
 10
436.0
 20
188.0
 30
0.0
 11
444.0
 21
188.0
 31
0.0
  0
LINE
  8
SERVICES
 10
444.0
 20
188.0
 30
0.0
 11
440.0
 21
190.0
 31
0.0
  0
LINE
  8
SERVICES
 10
444.0
 20
188.0
 30
0.0
 11
440.0
 21
186.0
 31
0.0
  0
LINE
  8
SERVICES
 10
444.0
 20
175.0
 30
0.0
 11
505.0
 21
175.0
 31
0.0
  0
LINE
  8
SERVICES
 10
505.0
 20
175.0
 30
0.0
 11
505.0
 21
201.0
 31
0.0
  0
LINE
  8
SERVICES
 10
505.0
 20
201.0
 30
0.0
 11
444.0
 21
201.0
 31
0.0
  0
LINE
  8
SERVICES
 10
444.0
 20
201.0
 30
0.0
 11
444.0
 21
175.0
 31
0.0
  0
TEXT
  8
TEXT-TITLE
 10
474.5
 20
195.0
 30
0.0
 40
2.0
  1
PLENUM
 72
1
 11
474.5
 21
195.0
 31
0.0
 73
2
  0
TEXT
  8
TEXT
 10
474.5
 20
188.0
 30
0.0
 40
1.5
  1
+50 to +100 Pa
 72
1
 11
474.5
 21
188.0
 31
0.0
 73
2
  0
TEXT
  8
TEXT-TITLE
 10
30.0
 20
168.0
 30
0.0
 40
1.6
  1
FLOW METER AND DIFFERENTIAL-PRESSURE GAUGE ACROSS EVERY STAGE - THE ONLY WAY TO KNOW A FILTER IS SPENT.
 11
30.0
 21
168.0
 31
0.0
 73
3
  0
TEXT
  8
TEXT
 10
30.0
 20
164.0
 30
0.0
 40
1.55
  1
MANUAL QUARTER-TURN GAS-TIGHT DAMPER INBOARD OF EVERY BLAST VALVE, OPERABLE FROM INSIDE WITHOUT TOOLS.
 11
30.0
 21
164.0
 31
0.0
 73
3
  0
TEXT
  8
TEXT-TITLE
 10
25.0
 20
152.0
 30
0.0
 40
2.2
  1
BLAST VALVE SCHEDULE
 11
25.0
 21
152.0
 31
0.0
 73
3
  0
LINE
  8
TABLE
 10
25.0
 20
147.0
 30
0.0
 11
219.0
 21
147.0
 31
0.0
  0
TEXT
  8
TABLE
 10
26.2
 20
144.85
 30
0.0
 40
1.6
  1
TAG
 11
26.2
 21
144.85
 31
0.0
 73
2
  0
TEXT
  8
TABLE
 10
42.2
 20
144.85
 30
0.0
 40
1.6
  1
SIZE
 11
42.2
 21
144.85
 31
0.0
 73
2
  0
TEXT
  8
TABLE
 10
62.2
 20
144.85
 30
0.0
 40
1.6
  1
SERVES
 11
62.2
 21
144.85
 31
0.0
 73
2
  0
TEXT
  8
TABLE
 10
104.2
 20
144.85
 30
0.0
 40
1.6
  1
FLOW m3/h
 11
104.2
 21
144.85
 31
0.0
 73
2
  0
TEXT
  8
TABLE
 10
130.2
 20
144.85
 30
0.0
 40
1.6
  1
VELOCITY
 11
130.2
 21
144.85
 31
0.0
 73
2
  0
TEXT
  8
TABLE
 10
156.2
 20
144.85
 30
0.0
 40
1.6
  1
DESIGN PRESSURE
 11
156.2
 21
144.85
 31
0.0
 73
2
  0
TEXT
  8
TABLE
 10
186.2
 20
144.85
 30
0.0
 40
1.6
  1
FORCE ON DISC
 11
186.2
 21
144.85
 31
0.0
 73
2
  0
LINE
  8
TABLE
 10
25.0
 20
142.7
 30
0.0
 11
219.0
 21
142.7
 31
0.0
  0
LINE
  8
TABLE
 10
25.0
 20
142.7
 30
0.0
 11
219.0
 21
142.7
 31
0.0
  0
TEXT
  8
TABLE
 10
26.2
 20
140.55
 30
0.0
 40
1.6
  1
BV-1
 11
26.2
 21
140.55
 31
0.0
 73
2
  0
TEXT
  8
TABLE
 10
42.2
 20
140.55
 30
0.0
 40
1.6
  1
DN100
 11
42.2
 21
140.55
 31
0.0
 73
2
  0
TEXT
  8
TABLE
 10
62.2
 20
140.55
 30
0.0
 40
1.6
  1
FRESH AIR TRAIN 1
 11
62.2
 21
140.55
 31
0.0
 73
2
  0
TEXT
  8
TABLE
 10
104.2
 20
140.55
 30
0.0
 40
1.6
  1
300
 11
104.2
 21
140.55
 31
0.0
 73
2
  0
TEXT
  8
TABLE
 10
130.2
 20
140.55
 30
0.0
 40
1.6
  1
10.6 m/s
 11
130.2
 21
140.55
 31
0.0
 73
2
  0
TEXT
  8
TABLE
 10
156.2
 20
140.55
 30
0.0
 40
1.6
  1
383 kPa RECESSED
 11
156.2
 21
140.55
 31
0.0
 73
2
  0
TEXT
  8
TABLE
 10
186.2
 20
140.55
 30
0.0
 40
1.6
  1
3.0 kN
 11
186.2
 21
140.55
 31
0.0
 73
2
  0
LINE
  8
TABLE
 10
25.0
 20
138.4
 30
0.0
 11
219.0
 21
138.4
 31
0.0
  0
LINE
  8
TABLE
 10
25.0
 20
138.4
 30
0.0
 11
219.0
 21
138.4
 31
0.0
  0
TEXT
  8
TABLE
 10
26.2
 20
136.25
 30
0.0
 40
1.6
  1
BV-2
 11
26.2
 21
136.25
 31
0.0
 73
2
  0
TEXT
  8
TABLE
 10
42.2
 20
136.25
 30
0.0
 40
1.6
  1
DN100
 11
42.2
 21
136.25
 31
0.0
 73
2
  0
TEXT
  8
TABLE
 10
62.2
 20
136.25
 30
0.0
 40
1.6
  1
FRESH AIR TRAIN 2
 11
62.2
 21
136.25
 31
0.0
 73
2
  0
TEXT
  8
TABLE
 10
104.2
 20
136.25
 30
0.0
 40
1.6
  1
300
 11
104.2
 21
136.25
 31
0.0
 73
2
  0
TEXT
  8
TABLE
 10
130.2
 20
136.25
 30
0.0
 40
1.6
  1
10.6 m/s
 11
130.2
 21
136.25
 31
0.0
 73
2
  0
TEXT
  8
TABLE
 10
156.2
 20
136.25
 30
0.0
 40
1.6
  1
383 kPa RECESSED
 11
156.2
 21
136.25
 31
0.0
 73
2
  0
TEXT
  8
TABLE
 10
186.2
 20
136.25
 30
0.0
 40
1.6
  1
3.0 kN
 11
186.2
 21
136.25
 31
0.0
 73
2
  0
LINE
  8
TABLE
 10
25.0
 20
134.1
 30
0.0
 11
219.0
 21
134.1
 31
0.0
  0
LINE
  8
TABLE
 10
25.0
 20
134.1
 30
0.0
 11
219.0
 21
134.1
 31
0.0
  0
TEXT
  8
TABLE
 10
26.2
 20
131.95
 30
0.0
 40
1.6
  1
BV-3
 11
26.2
 21
131.95
 31
0.0
 73
2
  0
TEXT
  8
TABLE
 10
42.2
 20
131.95
 30
0.0
 40
1.6
  1
DN100
 11
42.2
 21
131.95
 31
0.0
 73
2
  0
TEXT
  8
TABLE
 10
62.2
 20
131.95
 30
0.0
 40
1.6
  1
EXHAUST + OPRV
 11
62.2
 21
131.95
 31
0.0
 73
2
  0
TEXT
  8
TABLE
 10
104.2
 20
131.95
 30
0.0
 40
1.6
  1
300
 11
104.2
 21
131.95
 31
0.0
 73
2
  0
TEXT
  8
TABLE
 10
130.2
 20
131.95
 30
0.0
 40
1.6
  1
10.6 m/s
 11
130.2
 21
131.95
 31
0.0
 73
2
  0
TEXT
  8
TABLE
 10
156.2
 20
131.95
 30
0.0
 40
1.6
  1
383 kPa RECESSED
 11
156.2
 21
131.95
 31
0.0
 73
2
  0
TEXT
  8
TABLE
 10
186.2
 20
131.95
 30
0.0
 40
1.6
  1
3.0 kN
 11
186.2
 21
131.95
 31
0.0
 73
2
  0
LINE
  8
TABLE
 10
25.0
 20
129.8
 30
0.0
 11
219.0
 21
129.8
 31
0.0
  0
LINE
  8
TABLE
 10
25.0
 20
129.8
 30
0.0
 11
219.0
 21
129.8
 31
0.0
  0
TEXT
  8
TABLE
 10
26.2
 20
127.65
 30
0.0
 40
1.6
  1
BV-4
 11
26.2
 21
127.65
 31
0.0
 73
2
  0
TEXT
  8
TABLE
 10
42.2
 20
127.65
 30
0.0
 40
1.6
  1
DN350
 11
42.2
 21
127.65
 31
0.0
 73
2
  0
TEXT
  8
TABLE
 10
62.2
 20
127.65
 30
0.0
 40
1.6
  1
GENERATOR INTAKE
 11
62.2
 21
127.65
 31
0.0
 73
2
  0
TEXT
  8
TABLE
 10
104.2
 20
127.65
 30
0.0
 40
1.6
  1
2600
 11
104.2
 21
127.65
 31
0.0
 73
2
  0
TEXT
  8
TABLE
 10
130.2
 20
127.65
 30
0.0
 40
1.6
  1
7.5 m/s
 11
130.2
 21
127.65
 31
0.0
 73
2
  0
TEXT
  8
TABLE
 10
156.2
 20
127.65
 30
0.0
 40
1.6
  1
383 kPa RECESSED
 11
156.2
 21
127.65
 31
0.0
 73
2
  0
TEXT
  8
TABLE
 10
186.2
 20
127.65
 30
0.0
 40
1.6
  1
36.8 kN
 11
186.2
 21
127.65
 31
0.0
 73
2
  0
LINE
  8
TABLE
 10
25.0
 20
125.5
 30
0.0
 11
219.0
 21
125.5
 31
0.0
  0
LINE
  8
TABLE
 10
25.0
 20
125.5
 30
0.0
 11
219.0
 21
125.5
 31
0.0
  0
TEXT
  8
TABLE
 10
26.2
 20
123.35
 30
0.0
 40
1.6
  1
BV-5
 11
26.2
 21
123.35
 31
0.0
 73
2
  0
TEXT
  8
TABLE
 10
42.2
 20
123.35
 30
0.0
 40
1.6
  1
DN350
 11
42.2
 21
123.35
 31
0.0
 73
2
  0
TEXT
  8
TABLE
 10
62.2
 20
123.35
 30
0.0
 40
1.6
  1
GENERATOR EXHAUST
 11
62.2
 21
123.35
 31
0.0
 73
2
  0
TEXT
  8
TABLE
 10
104.2
 20
123.35
 30
0.0
 40
1.6
  1
2600
 11
104.2
 21
123.35
 31
0.0
 73
2
  0
TEXT
  8
TABLE
 10
130.2
 20
123.35
 30
0.0
 40
1.6
  1
7.5 m/s
 11
130.2
 21
123.35
 31
0.0
 73
2
  0
TEXT
  8
TABLE
 10
156.2
 20
123.35
 30
0.0
 40
1.6
  1
383 kPa RECESSED
 11
156.2
 21
123.35
 31
0.0
 73
2
  0
TEXT
  8
TABLE
 10
186.2
 20
123.35
 30
0.0
 40
1.6
  1
36.8 kN
 11
186.2
 21
123.35
 31
0.0
 73
2
  0
LINE
  8
TABLE
 10
25.0
 20
121.2
 30
0.0
 11
219.0
 21
121.2
 31
0.0
  0
LINE
  8
TABLE
 10
25.0
 20
147.0
 30
0.0
 11
25.0
 21
121.2
 31
0.0
  0
LINE
  8
TABLE
 10
41.0
 20
147.0
 30
0.0
 11
41.0
 21
121.2
 31
0.0
  0
LINE
  8
TABLE
 10
61.0
 20
147.0
 30
0.0
 11
61.0
 21
121.2
 31
0.0
  0
LINE
  8
TABLE
 10
103.0
 20
147.0
 30
0.0
 11
103.0
 21
121.2
 31
0.0
  0
LINE
  8
TABLE
 10
129.0
 20
147.0
 30
0.0
 11
129.0
 21
121.2
 31
0.0
  0
LINE
  8
TABLE
 10
155.0
 20
147.0
 30
0.0
 11
155.0
 21
121.2
 31
0.0
  0
LINE
  8
TABLE
 10
185.0
 20
147.0
 30
0.0
 11
185.0
 21
121.2
 31
0.0
  0
LINE
  8
TABLE
 10
219.0
 20
147.0
 30
0.0
 11
219.0
 21
121.2
 31
0.0
  0
LINE
  8
TABLE
 10
219.0
 20
147.0
 30
0.0
 11
219.0
 21
121.2
 31
0.0
  0
TEXT
  8
TEXT
 10
25.0
 20
112.0
 30
0.0
 40
1.6
  1
RECESSING IS NOT COSMETIC.  A VALVE FLUSH IN A VERTICAL FACE SEES THE REFLECTED PRESSURE p_r = 1366 kPa (IS 4991 Cl 6.2.1),
 11
25.0
 21
112.0
 31
0.0
 73
3
  0
TEXT
  8
TEXT
 10
25.0
 20
108.5
 30
0.0
 40
1.6
  1
WHICH IS 3.6 TIMES WORSE - 131 kN ON A DN350 DISC INSTEAD OF 36.8 kN.
 11
25.0
 21
108.5
 31
0.0
 73
3
  0
TEXT
  8
TEXT-TITLE
 10
320.0
 20
152.0
 30
0.0
 40
2.2
  1
DRAINAGE AND WASTE - DESIGN FLOWS
 11
320.0
 21
152.0
 31
0.0
 73
3
  0
LINE
  8
TABLE
 10
320.0
 20
147.0
 30
0.0
 11
494.0
 21
147.0
 31
0.0
  0
TEXT
  8
TABLE
 10
321.2
 20
144.85
 30
0.0
 40
1.6
  1
ITEM
 11
321.2
 21
144.85
 31
0.0
 73
2
  0
TEXT
  8
TABLE
 10
387.2
 20
144.85
 30
0.0
 40
1.6
  1
FLOW
 11
387.2
 21
144.85
 31
0.0
 73
2
  0
TEXT
  8
TABLE
 10
421.2
 20
144.85
 30
0.0
 40
1.6
  1
CAPACITY
 11
421.2
 21
144.85
 31
0.0
 73
2
  0
TEXT
  8
TABLE
 10
451.2
 20
144.85
 30
0.0
 40
1.6
  1
DISCHARGES TO
 11
451.2
 21
144.85
 31
0.0
 73
2
  0
LINE
  8
TABLE
 10
320.0
 20
142.7
 30
0.0
 11
494.0
 21
142.7
 31
0.0
  0
LINE
  8
TABLE
 10
320.0
 20
142.7
 30
0.0
 11
494.0
 21
142.7
 31
0.0
  0
TEXT
  8
TABLE
 10
321.2
 20
140.55
 30
0.0
 40
1.6
  1
Structural seepage (0.5 L/m2/day x 401 m2)
 11
321.2
 21
140.55
 31
0.0
 73
2
  0
TEXT
  8
TABLE
 10
387.2
 20
140.55
 30
0.0
 40
1.6
  1
200 L/day
 11
387.2
 21
140.55
 31
0.0
 73
2
  0
TEXT
  8
TABLE
 10
421.2
 20
140.55
 30
0.0
 40
1.6
  1
sump 3375 L
 11
421.2
 21
140.55
 31
0.0
 73
2
  0
TEXT
  8
TABLE
 10
451.2
 20
140.55
 30
0.0
 40
1.6
  1
storm soakaway
 11
451.2
 21
140.55
 31
0.0
 73
2
  0
LINE
  8
TABLE
 10
320.0
 20
138.4
 30
0.0
 11
494.0
 21
138.4
 31
0.0
  0
LINE
  8
TABLE
 10
320.0
 20
138.4
 30
0.0
 11
494.0
 21
138.4
 31
0.0
  0
TEXT
  8
TABLE
 10
321.2
 20
136.25
 30
0.0
 40
1.6
  1
Condensate + washdown
 11
321.2
 21
136.25
 31
0.0
 73
2
  0
TEXT
  8
TABLE
 10
387.2
 20
136.25
 30
0.0
 40
1.6
  1
200 L/day
 11
387.2
 21
136.25
 31
0.0
 73
2
  0
TEXT
  8
TABLE
 10
421.2
 20
136.25
 30
0.0
 40
1.6
  1
= 8 days store
 11
421.2
 21
136.25
 31
0.0
 73
2
  0
TEXT
  8
TABLE
 10
451.2
 20
136.25
 30
0.0
 40
1.6
  1
storm soakaway
 11
451.2
 21
136.25
 31
0.0
 73
2
  0
LINE
  8
TABLE
 10
320.0
 20
134.1
 30
0.0
 11
494.0
 21
134.1
 31
0.0
  0
LINE
  8
TABLE
 10
320.0
 20
134.1
 30
0.0
 11
494.0
 21
134.1
 31
0.0
  0
TEXT
  8
TABLE
 10
321.2
 20
131.95
 30
0.0
 40
1.6
  1
Decon effluent (airlock stages 1 + 2)
 11
321.2
 21
131.95
 31
0.0
 73
2
  0
TEXT
  8
TABLE
 10
387.2
 20
131.95
 30
0.0
 40
1.6
  1
on use
 11
387.2
 21
131.95
 31
0.0
 73
2
  0
TEXT
  8
TABLE
 10
421.2
 20
131.95
 30
0.0
 40
1.6
  1
1000 L tank
 11
421.2
 21
131.95
 31
0.0
 73
2
  0
TEXT
  8
TABLE
 10
451.2
 20
131.95
 30
0.0
 40
1.6
  1
TANKER ONLY
 11
451.2
 21
131.95
 31
0.0
 73
2
  0
LINE
  8
TABLE
 10
320.0
 20
129.8
 30
0.0
 11
494.0
 21
129.8
 31
0.0
  0
LINE
  8
TABLE
 10
320.0
 20
129.8
 30
0.0
 11
494.0
 21
129.8
 31
0.0
  0
TEXT
  8
TABLE
 10
321.2
 20
127.65
 30
0.0
 40
1.6
  1
Foul, peacetime (10 users x 45 lpcd)
 11
321.2
 21
127.65
 31
0.0
 73
2
  0
TEXT
  8
TABLE
 10
387.2
 20
127.65
 30
0.0
 40
1.6
  1
450 L/day
 11
387.2
 21
127.65
 31
0.0
 73
2
  0
TEXT
  8
TABLE
 10
421.2
 20
127.65
 30
0.0
 40
1.6
  1
septic 1.125 m3
 11
421.2
 21
127.65
 31
0.0
 73
2
  0
TEXT
  8
TABLE
 10
451.2
 20
127.65
 30
0.0
 40
1.6
  1
soak pit
 11
451.2
 21
127.65
 31
0.0
 73
2
  0
LINE
  8
TABLE
 10
320.0
 20
125.5
 30
0.0
 11
494.0
 21
125.5
 31
0.0
  0
LINE
  8
TABLE
 10
320.0
 20
125.5
 30
0.0
 11
494.0
 21
125.5
 31
0.0
  0
TEXT
  8
TABLE
 10
321.2
 20
123.35
 30
0.0
 40
1.6
  1
Stairwell / approach surface water
 11
321.2
 21
123.35
 31
0.0
 73
2
  0
TEXT
  8
TABLE
 10
387.2
 20
123.35
 30
0.0
 40
1.6
  1
0.10 L/s
 11
387.2
 21
123.35
 31
0.0
 73
2
  0
TEXT
  8
TABLE
 10
421.2
 20
123.35
 30
0.0
 40
1.6
  1
1.0 m3 sump
 11
421.2
 21
123.35
 31
0.0
 73
2
  0
TEXT
  8
TABLE
 10
451.2
 20
123.35
 30
0.0
 40
1.6
  1
own soakaway
 11
451.2
 21
123.35
 31
0.0
 73
2
  0
LINE
  8
TABLE
 10
320.0
 20
121.2
 30
0.0
 11
494.0
 21
121.2
 31
0.0
  0
LINE
  8
TABLE
 10
320.0
 20
147.0
 30
0.0
 11
320.0
 21
121.2
 31
0.0
  0
LINE
  8
TABLE
 10
386.0
 20
147.0
 30
0.0
 11
386.0
 21
121.2
 31
0.0
  0
LINE
  8
TABLE
 10
420.0
 20
147.0
 30
0.0
 11
420.0
 21
121.2
 31
0.0
  0
LINE
  8
TABLE
 10
450.0
 20
147.0
 30
0.0
 11
450.0
 21
121.2
 31
0.0
  0
LINE
  8
TABLE
 10
494.0
 20
147.0
 30
0.0
 11
494.0
 21
121.2
 31
0.0
  0
LINE
  8
TABLE
 10
494.0
 20
147.0
 30
0.0
 11
494.0
 21
121.2
 31
0.0
  0
LINE
  8
TABLE
 10
565.0
 20
396.0
 30
0.0
 11
826.0
 21
396.0
 31
0.0
  0
LINE
  8
TABLE
 10
826.0
 20
396.0
 30
0.0
 11
826.0
 21
570.0
 31
0.0
  0
LINE
  8
TABLE
 10
826.0
 20
570.0
 30
0.0
 11
565.0
 21
570.0
 31
0.0
  0
LINE
  8
TABLE
 10
565.0
 20
570.0
 30
0.0
 11
565.0
 21
396.0
 31
0.0
  0
LINE
  8
TABLE
 10
565.0
 20
563.6
 30
0.0
 11
826.0
 21
563.6
 31
0.0
  0
TEXT
  8
TEXT-TITLE
 10
568.0
 20
566.8
 30
0.0
 40
2.4
  1
AIR AND FILTRATION  -  THE NUMBERS
 11
568.0
 21
566.8
 31
0.0
 73
2
  0
TEXT
  8
NOTES
 10
568.0
 20
560.0
 30
0.0
 40
1.6
  1
OCCUPANCY  9 persons, 96 h design endurance
 11
568.0
 21
560.0
 31
0.0
 73
3
  0
TEXT
  8
NOTES
 10
568.0
 20
557.4
 30
0.0
 40
1.6
  1

 11
568.0
 21
557.4
 31
0.0
 73
3
  0
TEXT
  8
NOTES
 10
568.0
 20
554.8
 30
0.0
 40
1.6
  1
FILTERED AIRFLOW
 11
568.0
 21
554.8
 31
0.0
 73
3
  0
TEXT
  8
NOTES
 10
568.0
 20
552.2
 30
0.0
 40
1.6
  1
  5 m3/h/person survival x 9 . . . . . . . . . . =  45 m3/h
 11
568.0
 21
552.2
 31
0.0
 73
3
  0
TEXT
  8
NOTES
 10
568.0
 20
549.6
 30
0.0
 40
1.6
  1
 15 m3/h/person working shelter x 9 . . . . . . . = 135 m3/h
 11
568.0
 21
549.6
 31
0.0
 73
3
  0
TEXT
  8
NOTES
 10
568.0
 20
547.0
 30
0.0
 40
1.6
  1
 FEMA 453: 0.25 cfm/ft2 over the 57.8 m2 clean zone = 264 m3/h
 11
568.0
 21
547.0
 31
0.0
 73
3
  0
TEXT
  8
NOTES
 10
568.0
 20
544.4
 30
0.0
 40
1.6
  1
 DESIGN . . . . . . . . . . . . . . . . . . . . . = 300 m3/h
 11
568.0
 21
544.4
 31
0.0
 73
3
  0
TEXT
  8
NOTES
 10
568.0
 20
541.8
 30
0.0
 40
1.6
  1
 Configuration: 2 x 300 m3/h trains, each able to carry the
 11
568.0
 21
541.8
 31
0.0
 73
3
  0
TEXT
  8
NOTES
 10
568.0
 20
539.2
 30
0.0
 40
1.6
  1
 whole duty on its own  ->  TRUE N+1, not 2 x 150.
 11
568.0
 21
539.2
 31
0.0
 73
3
  0
TEXT
  8
NOTES
 10
568.0
 20
536.6
 30
0.0
 40
1.6
  1

 11
568.0
 21
536.6
 31
0.0
 73
3
  0
TEXT
  8
NOTES
 10
568.0
 20
534.0
 30
0.0
 40
1.6
  1
LEAKAGE   Envelope 217.0 m3.  Specified <= 0.15 vol/h at +300 Pa
 11
568.0
 21
534.0
 31
0.0
 73
3
  0
TEXT
  8
NOTES
 10
568.0
 20
531.4
 30
0.0
 40
1.6
  1
          = 32.5 m3/h  ->  11 % of one train.  Comfortable.
 11
568.0
 21
531.4
 31
0.0
 73
3
  0
TEXT
  8
NOTES
 10
568.0
 20
528.8
 30
0.0
 40
1.6
  1

 11
568.0
 21
528.8
 31
0.0
 73
3
  0
TEXT
  8
NOTES
 10
568.0
 20
526.2
 30
0.0
 40
1.6
  1
OVERPRESSURE  +50 to +100 Pa maintained in the clean zone, so any
 11
568.0
 21
526.2
 31
0.0
 73
3
  0
TEXT
  8
NOTES
 10
568.0
 20
523.6
 30
0.0
 40
1.6
  1
          leak flows OUTWARD.  Cascade 0 -> +10 -> +20 -> +35 -> +50.
 11
568.0
 21
523.6
 31
0.0
 73
3
  0
TEXT
  8
NOTES
 10
568.0
 20
521.0
 30
0.0
 40
1.6
  1

 11
568.0
 21
521.0
 31
0.0
 73
3
  0
TEXT
  8
NOTES
 10
568.0
 20
518.4
 30
0.0
 40
1.6
  1
CLOSED MODE (all valves shut, e.g. immediately post-detonation)
 11
568.0
 21
518.4
 31
0.0
 73
3
  0
TEXT
  8
NOTES
 10
568.0
 20
515.8
 30
0.0
 40
1.6
  1
  CO2 from 9 persons at rest 9 x 0.02 . . . . . = 0.18 m3/h
 11
568.0
 21
515.8
 31
0.0
 73
3
  0
TEXT
  8
NOTES
 10
568.0
 20
513.2
 30
0.0
 40
1.6
  1
  Occupied volume, airlock shut . . . . . . . . = 185.0 m3
 11
568.0
 21
513.2
 31
0.0
 73
3
  0
TEXT
  8
NOTES
 10
568.0
 20
510.6
 30
0.0
 40
1.6
  1
  Time to 1.0 % CO2 = (0.0096 x 185)/0.18 . . . =  9.9 h
 11
568.0
 21
510.6
 31
0.0
 73
3
  0
TEXT
  8
NOTES
 10
568.0
 20
508.0
 30
0.0
 40
1.6
  1
  Soda lime 20 kg/day  ->  40 kg for 48 h
 11
568.0
 21
508.0
 31
0.0
 73
3
  0
TEXT
  8
NOTES
 10
568.0
 20
505.4
 30
0.0
 40
1.6
  1
  O2 4.5 m3/day  ->  2 x 50 L cylinders at 150 bar (15 m3)  OK
 11
568.0
 21
505.4
 31
0.0
 73
3
  0
TEXT
  8
NOTES
 10
568.0
 20
502.8
 30
0.0
 40
1.6
  1
  CLOSED MODE IS A BRIDGE, NOT A SURVIVAL MODE.
 11
568.0
 21
502.8
 31
0.0
 73
3
  0
TEXT
  8
NOTES
 10
568.0
 20
500.2
 30
0.0
 40
1.6
  1

 11
568.0
 21
500.2
 31
0.0
 73
3
  0
TEXT
  8
NOTES
 10
568.0
 20
497.6
 30
0.0
 40
1.6
  1
AIRLOCK PURGE  Stage 1 = 2.0 x 2.0 x 3.2 = 12.8 m3; 5 air changes
 11
568.0
 21
497.6
 31
0.0
 73
3
  0
TEXT
  8
NOTES
 10
568.0
 20
495.0
 30
0.0
 40
1.6
  1
  = 64 m3 at 300 m3/h  =  13 minutes.  THIS LIMITS ENTRY TO ABOUT
 11
568.0
 21
495.0
 31
0.0
 73
3
  0
TEXT
  8
NOTES
 10
568.0
 20
492.4
 30
0.0
 40
1.6
  1
  4-5 PERSONS PER HOUR - a manning constraint, not a plant figure.
 11
568.0
 21
492.4
 31
0.0
 73
3
  0
LINE
  8
TABLE
 10
565.0
 20
208.0
 30
0.0
 11
826.0
 21
208.0
 31
0.0
  0
LINE
  8
TABLE
 10
826.0
 20
208.0
 30
0.0
 11
826.0
 21
390.0
 31
0.0
  0
LINE
  8
TABLE
 10
826.0
 20
390.0
 30
0.0
 11
565.0
 21
390.0
 31
0.0
  0
LINE
  8
TABLE
 10
565.0
 20
390.0
 30
0.0
 11
565.0
 21
208.0
 31
0.0
  0
LINE
  8
TABLE
 10
565.0
 20
383.6
 30
0.0
 11
826.0
 21
383.6
 31
0.0
  0
TEXT
  8
TEXT-TITLE
 10
568.0
 20
386.8
 30
0.0
 40
2.4
  1
BLAST VALVE  -  HOW IT WORKS AND WHY IT IS SIZED THIS WAY
 11
568.0
 21
386.8
 31
0.0
 73
2
  0
TEXT
  8
NOTES
 10
568.0
 20
380.0
 30
0.0
 40
1.6
  1
WHAT IT IS  A spring- or inertia-operated one-way closure in the duct.
 11
568.0
 21
380.0
 31
0.0
 73
3
  0
TEXT
  8
NOTES
 10
568.0
 20
377.4
 30
0.0
 40
1.6
  1
  In normal use it is held open and air passes.  When a pressure wave
 11
568.0
 21
377.4
 31
0.0
 73
3
  0
TEXT
  8
NOTES
 10
568.0
 20
374.8
 30
0.0
 40
1.6
  1
  arrives it slams shut in under 2 milliseconds, stays shut for the
 11
568.0
 21
374.8
 31
0.0
 73
3
  0
TEXT
  8
NOTES
 10
568.0
 20
372.2
 30
0.0
 40
1.6
  1
  whole positive phase, then reopens.  IT IS NOT A DAMPER AND IT IS
 11
568.0
 21
372.2
 31
0.0
 73
3
  0
TEXT
  8
NOTES
 10
568.0
 20
369.6
 30
0.0
 40
1.6
  1
  NOT OPERATED BY THE CREW - it must work with nobody watching.
 11
568.0
 21
369.6
 31
0.0
 73
3
  0
TEXT
  8
NOTES
 10
568.0
 20
367.0
 30
0.0
 40
1.6
  1

 11
568.0
 21
367.0
 31
0.0
 73
3
  0
TEXT
  8
NOTES
 10
568.0
 20
364.4
 30
0.0
 40
1.6
  1
THE THREE THINGS IT MUST DO
 11
568.0
 21
364.4
 31
0.0
 73
3
  0
TEXT
  8
NOTES
 10
568.0
 20
361.8
 30
0.0
 40
1.6
  1
  1  CLOSE FAST ENOUGH.  At 50 psi the shock front travels ~600 m/s,
 11
568.0
 21
361.8
 31
0.0
 73
3
  0
TEXT
  8
NOTES
 10
568.0
 20
359.2
 30
0.0
 40
1.6
  1
     so in 2 ms it moves 1.2 m.  Keep >= 2.0 m of duct between the
 11
568.0
 21
359.2
 31
0.0
 73
3
  0
TEXT
  8
NOTES
 10
568.0
 20
356.6
 30
0.0
 40
1.6
  1
     valve and the plenum and the leak-through is trivial.
 11
568.0
 21
356.6
 31
0.0
 73
3
  0
TEXT
  8
NOTES
 10
568.0
 20
354.0
 30
0.0
 40
1.6
  1
  2  STAY SHUT.  Nuclear positive phase is 0.13-1.33 s, a thousand
 11
568.0
 21
354.0
 31
0.0
 73
3
  0
TEXT
  8
NOTES
 10
568.0
 20
351.4
 30
0.0
 40
1.6
  1
     times longer than a grenade.  A valve that reopens at 50 ms is
 11
568.0
 21
351.4
 31
0.0
 73
3
  0
TEXT
  8
NOTES
 10
568.0
 20
348.8
 30
0.0
 40
1.6
  1
     useless here.  SPECIFY THE HOLD TIME, not just the closing time.
 11
568.0
 21
348.8
 31
0.0
 73
3
  0
TEXT
  8
NOTES
 10
568.0
 20
346.2
 30
0.0
 40
1.6
  1
  3  SURVIVE THE SUCTION.  The negative phase pulls the disc the other
 11
568.0
 21
346.2
 31
0.0
 73
3
  0
TEXT
  8
NOTES
 10
568.0
 20
343.6
 30
0.0
 40
1.6
  1
     way at roughly 0.25 p_so ~ 86 kPa.  It must be rated in reverse.
 11
568.0
 21
343.6
 31
0.0
 73
3
  0
TEXT
  8
NOTES
 10
568.0
 20
341.0
 30
0.0
 40
1.6
  1

 11
568.0
 21
341.0
 31
0.0
 73
3
  0
TEXT
  8
NOTES
 10
568.0
 20
338.4
 30
0.0
 40
1.6
  1
SIZING   Q = 300 m3/h = 0.0833 m3/s;  DN100 area 7.854e-3 m2
 11
568.0
 21
338.4
 31
0.0
 73
3
  0
TEXT
  8
NOTES
 10
568.0
 20
335.8
 30
0.0
 40
1.6
  1
         v = 10.6 m/s  -  inside the usual 10-15 m/s throat range
 11
568.0
 21
335.8
 31
0.0
 73
3
  0
TEXT
  8
NOTES
 10
568.0
 20
333.2
 30
0.0
 40
1.6
  1
         Generator DN350: 2600 m3/h = 0.722 m3/s  ->  v = 7.5 m/s
 11
568.0
 21
333.2
 31
0.0
 73
3
  0
TEXT
  8
NOTES
 10
568.0
 20
330.6
 30
0.0
 40
1.6
  1

 11
568.0
 21
330.6
 31
0.0
 73
3
  0
TEXT
  8
NOTES
 10
568.0
 20
328.0
 30
0.0
 40
1.6
  1
LOAD     Recessed (sees side-on):  383 x 0.00785 = 3.0 kN on DN100
 11
568.0
 21
328.0
 31
0.0
 73
3
  0
TEXT
  8
NOTES
 10
568.0
 20
325.4
 30
0.0
 40
1.6
  1
                                   383 x 0.0962  = 36.8 kN on DN350
 11
568.0
 21
325.4
 31
0.0
 73
3
  0
TEXT
  8
NOTES
 10
568.0
 20
322.8
 30
0.0
 40
1.6
  1
         Flush in a vertical face (sees reflected 1366 kPa):
 11
568.0
 21
322.8
 31
0.0
 73
3
  0
TEXT
  8
NOTES
 10
568.0
 20
320.2
 30
0.0
 40
1.6
  1
                                   1366 x 0.0962 = 131 kN on DN350
 11
568.0
 21
320.2
 31
0.0
 73
3
  0
TEXT
  8
NOTES
 10
568.0
 20
317.6
 30
0.0
 40
1.6
  1
         RECESS EVERY VALVE.  IS 4991 Cl 6.2.1.
 11
568.0
 21
317.6
 31
0.0
 73
3
  0
TEXT
  8
NOTES
 10
568.0
 20
315.0
 30
0.0
 40
1.6
  1

 11
568.0
 21
315.0
 31
0.0
 73
3
  0
TEXT
  8
NOTES
 10
568.0
 20
312.4
 30
0.0
 40
1.6
  1
FRAME    Cast-in steel, welded to the reinforcement cage for EMP
 11
568.0
 21
312.4
 31
0.0
 73
3
  0
TEXT
  8
NOTES
 10
568.0
 20
309.8
 30
0.0
 40
1.6
  1
         continuity; 250 RC valve chamber; manual gas-tight damper
 11
568.0
 21
309.8
 31
0.0
 73
3
  0
TEXT
  8
NOTES
 10
568.0
 20
307.2
 30
0.0
 40
1.6
  1
         inboard, operable from inside without tools.
 11
568.0
 21
307.2
 31
0.0
 73
3
  0
LINE
  8
TABLE
 10
565.0
 20
80.0
 30
0.0
 11
826.0
 21
80.0
 31
0.0
  0
LINE
  8
TABLE
 10
826.0
 20
80.0
 30
0.0
 11
826.0
 21
202.0
 31
0.0
  0
LINE
  8
TABLE
 10
826.0
 20
202.0
 30
0.0
 11
565.0
 21
202.0
 31
0.0
  0
LINE
  8
TABLE
 10
565.0
 20
202.0
 30
0.0
 11
565.0
 21
80.0
 31
0.0
  0
LINE
  8
TABLE
 10
565.0
 20
195.6
 30
0.0
 11
826.0
 21
195.6
 31
0.0
  0
TEXT
  8
TEXT-TITLE
 10
568.0
 20
198.8
 30
0.0
 40
2.4
  1
SEPTIC TANK AND SOAK PIT  -  IS 2470 (PARTS 1 AND 2):1985
 11
568.0
 21
198.8
 31
0.0
 73
2
  0
TEXT
  8
NOTES
 10
568.0
 20
192.0
 30
0.0
 40
1.6
  1
DESIGN POPULATION  10 (sentry-post shift crews + shelter maintenance).
 11
568.0
 21
192.0
 31
0.0
 73
3
  0
TEXT
  8
NOTES
 10
568.0
 20
189.4
 30
0.0
 40
1.6
  1
  In protective mode the shelter is SEALED and uses sealed-cassette
 11
568.0
 21
189.4
 31
0.0
 73
3
  0
TEXT
  8
NOTES
 10
568.0
 20
186.8
 30
0.0
 40
1.6
  1
  chemical toilets - nothing is discharged.  The septic tank serves
 11
568.0
 21
186.8
 31
0.0
 73
3
  0
TEXT
  8
NOTES
 10
568.0
 20
184.2
 30
0.0
 40
1.6
  1
  PEACETIME use only.  Say this before someone asks how you flush a
 11
568.0
 21
184.2
 31
0.0
 73
3
  0
TEXT
  8
NOTES
 10
568.0
 20
181.6
 30
0.0
 40
1.6
  1
  toilet in a gas-tight box.
 11
568.0
 21
181.6
 31
0.0
 73
3
  0
TEXT
  8
NOTES
 10
568.0
 20
179.0
 30
0.0
 40
1.6
  1

 11
568.0
 21
179.0
 31
0.0
 73
3
  0
TEXT
  8
NOTES
 10
568.0
 20
176.4
 30
0.0
 40
1.6
  1
SEPTIC TANK   q = 45 lpcd x 10 . . . . . . . . . =  450 L/day
 11
568.0
 21
176.4
 31
0.0
 73
3
  0
TEXT
  8
NOTES
 10
568.0
 20
173.8
 30
0.0
 40
1.6
  1
  Sedimentation, 24 h detention (Pt 1 Cl. 6.2) . =  450 L
 11
568.0
 21
173.8
 31
0.0
 73
3
  0
TEXT
  8
NOTES
 10
568.0
 20
171.2
 30
0.0
 40
1.6
  1
  Sludge 30 L/person/year x 10 x 2 years (Cl 6.3)=  600 L
 11
568.0
 21
171.2
 31
0.0
 73
3
  0
TEXT
  8
NOTES
 10
568.0
 20
168.6
 30
0.0
 40
1.6
  1
  Required . . . . . . . . . . . . . . . . . . . = 1050 L
 11
568.0
 21
168.6
 31
0.0
 73
3
  0
TEXT
  8
NOTES
 10
568.0
 20
166.0
 30
0.0
 40
1.6
  1
  IS 2470 (Pt 1) Table 1, up to 10 users:
 11
568.0
 21
166.0
 31
0.0
 73
3
  0
TEXT
  8
NOTES
 10
568.0
 20
163.4
 30
0.0
 40
1.6
  1
     1.50 L x 0.75 B x 1.00 liquid depth . . . . = 1125 L   OK
 11
568.0
 21
163.4
 31
0.0
 73
3
  0
TEXT
  8
NOTES
 10
568.0
 20
160.8
 30
0.0
 40
1.6
  1
  L/B = 2.0 (Cl 6.5 wants 2 to 4);  B >= 750;  depth >= 1.0 m
 11
568.0
 21
160.8
 31
0.0
 73
3
  0
TEXT
  8
NOTES
 10
568.0
 20
158.2
 30
0.0
 40
1.6
  1
  Freeboard 300  ->  overall 1.30 m.  Two compartments, baffle at
 11
568.0
 21
158.2
 31
0.0
 73
3
  0
TEXT
  8
NOTES
 10
568.0
 20
155.6
 30
0.0
 40
1.6
  1
  2/3 L, inlet and outlet tees, 50 mm cowled vent >= 2 m above grade.
 11
568.0
 21
155.6
 31
0.0
 73
3
  0
TEXT
  8
NOTES
 10
568.0
 20
153.0
 30
0.0
 40
1.6
  1

 11
568.0
 21
153.0
 31
0.0
 73
3
  0
TEXT
  8
NOTES
 10
568.0
 20
150.4
 30
0.0
 40
1.6
  1
SOAK PIT      Effluent 450 L/day
 11
568.0
 21
150.4
 31
0.0
 73
3
  0
TEXT
  8
NOTES
 10
568.0
 20
147.8
 30
0.0
 40
1.6
  1
  Design absorption 20 L/m2/day for weathered basalt / murum  [A]
 11
568.0
 21
147.8
 31
0.0
 73
3
  0
TEXT
  8
NOTES
 10
568.0
 20
145.2
 30
0.0
 40
1.6
  1
  Area required 450/20 . . . . . . . . . . . . . = 22.5 m2
 11
568.0
 21
145.2
 31
0.0
 73
3
  0
TEXT
  8
NOTES
 10
568.0
 20
142.6
 30
0.0
 40
1.6
  1
  Pit 2.0 dia x 3.5 effective: side area pi.D.h  = 22.0 m2   OK
 11
568.0
 21
142.6
 31
0.0
 73
3
  0
TEXT
  8
NOTES
 10
568.0
 20
140.0
 30
0.0
 40
1.6
  1

 11
568.0
 21
140.0
 31
0.0
 73
3
  0
TEXT
  8
NOTES
 10
568.0
 20
137.4
 30
0.0
 40
1.6
  1
  ***  A PERCOLATION TEST (IS 2470 Pt 2 Cl. 4) IS MANDATORY BEFORE
 11
568.0
 21
137.4
 31
0.0
 73
3
  0
TEXT
  8
NOTES
 10
568.0
 20
134.8
 30
0.0
 40
1.6
  1
  CONSTRUCTION.  Deccan basalt drains badly.  If the test returns
 11
568.0
 21
134.8
 31
0.0
 73
3
  0
TEXT
  8
NOTES
 10
568.0
 20
132.2
 30
0.0
 40
1.6
  1
  less than 20 L/m2/day, switch to a DISPERSION TRENCH (Pt 2 Cl. 5)
 11
568.0
 21
132.2
 31
0.0
 73
3
  0
TEXT
  8
NOTES
 10
568.0
 20
129.6
 30
0.0
 40
1.6
  1
  or a sealed holding tank pumped out on a schedule.  ***
 11
568.0
 21
129.6
 31
0.0
 73
3
  0
ENDSEC
  0
EOF
