0
SECTION
2
HEADER
9
$ACADVER
1
AC1009
9
$INSUNITS
70
4
9
$EXTMIN
10
0.00
20
0.00
30
0.0
9
$EXTMAX
10
841.00
20
594.00
30
0.0
9
$LTSCALE
40
1.0
0
ENDSEC
0
SECTION
2
TABLES
0
TABLE
2
LTYPE
70
1
0
LTYPE
2
CONTINUOUS
70
0
3
Solid line
72
65
73
0
40
0.0
0
ENDTAB
0
TABLE
2
LAYER
70
22
0
LAYER
2
0
70
0
62
7
6
CONTINUOUS
0
LAYER
2
CONC
70
0
62
7
6
CONTINUOUS
0
LAYER
2
CONC-HIDDEN
70
0
62
8
6
CONTINUOUS
0
LAYER
2
REINF-MAIN
70
0
62
1
6
CONTINUOUS
0
LAYER
2
REINF-DIST
70
0
62
3
6
CONTINUOUS
0
LAYER
2
REINF-LINK
70
0
62
6
6
CONTINUOUS
0
LAYER
2
REINF-SEC
70
0
62
4
6
CONTINUOUS
0
LAYER
2
DIM
70
0
62
4
6
CONTINUOUS
0
LAYER
2
TEXT
70
0
62
7
6
CONTINUOUS
0
LAYER
2
TEXT-TITLE
70
0
62
7
6
CONTINUOUS
0
LAYER
2
HATCH
70
0
62
8
6
CONTINUOUS
0
LAYER
2
GRID
70
0
62
5
6
CONTINUOUS
0
LAYER
2
SOIL
70
0
62
8
6
CONTINUOUS
0
LAYER
2
CENTRELINE
70
0
62
6
6
CONTINUOUS
0
LAYER
2
TITLEBLOCK
70
0
62
7
6
CONTINUOUS
0
LAYER
2
WATERPROOF
70
0
62
30
6
CONTINUOUS
0
LAYER
2
STEELWORK
70
0
62
2
6
CONTINUOUS
0
LAYER
2
LEVELS
70
0
62
4
6
CONTINUOUS
0
LAYER
2
NOTES
70
0
62
7
6
CONTINUOUS
0
LAYER
2
TABLE
70
0
62
7
6
CONTINUOUS
0
LAYER
2
SERVICES
70
0
62
2
6
CONTINUOUS
0
LAYER
2
BLAST
70
0
62
1
6
CONTINUOUS
0
ENDTAB
0
TABLE
2
STYLE
70
1
0
STYLE
2
STANDARD
70
0
40
0.0
41
0.8
50
0.0
71
0
42
2.5
3
txt
4

0
ENDTAB
0
ENDSEC
0
SECTION
2
ENTITIES
0
LINE
8
TITLEBLOCK
10
0.0000
20
0.0000
30
0.0
11
841.0000
21
0.0000
31
0.0
0
LINE
8
TITLEBLOCK
10
841.0000
20
0.0000
30
0.0
11
841.0000
21
594.0000
31
0.0
0
LINE
8
TITLEBLOCK
10
841.0000
20
594.0000
30
0.0
11
0.0000
21
594.0000
31
0.0
0
LINE
8
TITLEBLOCK
10
0.0000
20
594.0000
30
0.0
11
0.0000
21
0.0000
31
0.0
0
LINE
8
TITLEBLOCK
10
10.0000
20
10.0000
30
0.0
11
831.0000
21
10.0000
31
0.0
0
LINE
8
TITLEBLOCK
10
831.0000
20
10.0000
30
0.0
11
831.0000
21
584.0000
31
0.0
0
LINE
8
TITLEBLOCK
10
831.0000
20
584.0000
30
0.0
11
10.0000
21
584.0000
31
0.0
0
LINE
8
TITLEBLOCK
10
10.0000
20
584.0000
30
0.0
11
10.0000
21
10.0000
31
0.0
0
LINE
8
TITLEBLOCK
10
651.0000
20
10.0000
30
0.0
11
831.0000
21
10.0000
31
0.0
0
LINE
8
TITLEBLOCK
10
831.0000
20
10.0000
30
0.0
11
831.0000
21
72.0000
31
0.0
0
LINE
8
TITLEBLOCK
10
831.0000
20
72.0000
30
0.0
11
651.0000
21
72.0000
31
0.0
0
LINE
8
TITLEBLOCK
10
651.0000
20
72.0000
30
0.0
11
651.0000
21
10.0000
31
0.0
0
LINE
8
TITLEBLOCK
10
651.0000
20
20.0000
30
0.0
11
831.0000
21
20.0000
31
0.0
0
LINE
8
TITLEBLOCK
10
651.0000
20
29.0000
30
0.0
11
831.0000
21
29.0000
31
0.0
0
LINE
8
TITLEBLOCK
10
651.0000
20
47.0000
30
0.0
11
831.0000
21
47.0000
31
0.0
0
LINE
8
TITLEBLOCK
10
651.0000
20
58.0000
30
0.0
11
831.0000
21
58.0000
31
0.0
0
TEXT
8
TEXT-TITLE
10
741.0000
20
65.0000
30
0.0
40
3.0000
1
UNDERGROUND CBRN-HARDENED PROTECTIVE STRUCTURE - PUNE
50
0.0000
72
1
73
2
11
741.0000
21
65.0000
31
0.0
0
TEXT
8
TEXT-TITLE
10
741.0000
20
53.0000
30
0.0
40
2.2000
1
PHASE 2 STRUCTURAL DESIGN  |  GEOMETRY REV F + M1
50
0.0000
72
1
73
2
11
741.0000
21
53.0000
31
0.0
0
TEXT
8
TEXT-TITLE
10
741.0000
20
41.0000
30
0.0
40
3.2000
1
UNDERGROUND PLAN - SERVICES AND DRAINAGE
50
0.0000
72
1
73
2
11
741.0000
21
41.0000
31
0.0
0
TEXT
8
TEXT-TITLE
10
741.0000
20
33.0000
30
0.0
40
2.2000
1
SUMP PIT - BLAST VALVES - SEPTIC TANK - SOAK PIT
50
0.0000
72
1
73
2
11
741.0000
21
33.0000
31
0.0
0
TEXT
8
TEXT-TITLE
10
654.0000
20
24.5000
30
0.0
40
2.0000
1
SCALE  AS SHOWN
50
0.0000
72
0
73
2
11
654.0000
21
24.5000
31
0.0
0
TEXT
8
TEXT-TITLE
10
769.0000
20
24.5000
30
0.0
40
2.0000
1
DATE  AUG 2026
50
0.0000
72
0
73
2
11
769.0000
21
24.5000
31
0.0
0
TEXT
8
TEXT-TITLE
10
654.0000
20
15.0000
30
0.0
40
2.0000
1
A1  SH 1/1
50
0.0000
72
0
73
2
11
654.0000
21
15.0000
31
0.0
0
TEXT
8
TEXT-TITLE
10
673.0000
20
15.0000
30
0.0
40
3.0000
1
DRG No. S-06
50
0.0000
72
0
73
2
11
673.0000
21
15.0000
31
0.0
0
TEXT
8
TEXT-TITLE
10
819.0000
20
15.0000
30
0.0
40
2.4000
1
REV A
50
0.0000
72
2
73
2
11
819.0000
21
15.0000
31
0.0
0
TEXT
8
TEXT-TITLE
10
25.0000
20
578.0000
30
0.0
40
3.4000
1
V1  UNDERGROUND LEVEL PLAN  -  SERVICES
50
0.0000
72
0
73
3
11
25.0000
21
578.0000
31
0.0
0
LINE
8
TEXT-TITLE
10
25.0000
20
573.2000
30
0.0
11
104.0500
21
573.2000
31
0.0
0
TEXT
8
TEXT-TITLE
10
25.0000
20
571.8000
30
0.0
40
2.0000
1
SCALE 1:60   FLOOR (-)6.100.  BLAST VALVES, SUMP AND SERVICE ENTRY MARKED
50
0.0000
72
0
73
3
11
25.0000
21
571.8000
31
0.0
0
LINE
8
CONC
10
92.0000
20
420.0000
30
0.0
11
458.6667
21
420.0000
31
0.0
0
LINE
8
CONC
10
458.6667
20
420.0000
30
0.0
11
458.6667
21
523.3333
31
0.0
0
LINE
8
CONC
10
458.6667
20
523.3333
30
0.0
11
92.0000
21
523.3333
31
0.0
0
LINE
8
CONC
10
92.0000
20
523.3333
30
0.0
11
92.0000
21
420.0000
31
0.0
0
LINE
8
CONC
10
102.0000
20
430.0000
30
0.0
11
448.6667
21
430.0000
31
0.0
0
LINE
8
CONC
10
448.6667
20
430.0000
30
0.0
11
448.6667
21
513.3333
31
0.0
0
LINE
8
CONC
10
448.6667
20
513.3333
30
0.0
11
102.0000
21
513.3333
31
0.0
0
LINE
8
CONC
10
102.0000
20
513.3333
30
0.0
11
102.0000
21
430.0000
31
0.0
0
LINE
8
CONC
10
150.3333
20
430.0000
30
0.0
11
152.1667
21
430.0000
31
0.0
0
LINE
8
CONC
10
152.1667
20
430.0000
30
0.0
11
152.1667
21
513.3333
31
0.0
0
LINE
8
CONC
10
152.1667
20
513.3333
30
0.0
11
150.3333
21
513.3333
31
0.0
0
LINE
8
CONC
10
150.3333
20
513.3333
30
0.0
11
150.3333
21
430.0000
31
0.0
0
LINE
8
CONC
10
182.1667
20
430.0000
30
0.0
11
184.0000
21
430.0000
31
0.0
0
LINE
8
CONC
10
184.0000
20
430.0000
30
0.0
11
184.0000
21
513.3333
31
0.0
0
LINE
8
CONC
10
184.0000
20
513.3333
30
0.0
11
182.1667
21
513.3333
31
0.0
0
LINE
8
CONC
10
182.1667
20
513.3333
30
0.0
11
182.1667
21
430.0000
31
0.0
0
LINE
8
CONC
10
242.3333
20
430.0000
30
0.0
11
244.1667
21
430.0000
31
0.0
0
LINE
8
CONC
10
244.1667
20
430.0000
30
0.0
11
244.1667
21
513.3333
31
0.0
0
LINE
8
CONC
10
244.1667
20
513.3333
30
0.0
11
242.3333
21
513.3333
31
0.0
0
LINE
8
CONC
10
242.3333
20
513.3333
30
0.0
11
242.3333
21
430.0000
31
0.0
0
LINE
8
CONC
10
274.1667
20
430.0000
30
0.0
11
276.0000
21
430.0000
31
0.0
0
LINE
8
CONC
10
276.0000
20
430.0000
30
0.0
11
276.0000
21
513.3333
31
0.0
0
LINE
8
CONC
10
276.0000
20
513.3333
30
0.0
11
274.1667
21
513.3333
31
0.0
0
LINE
8
CONC
10
274.1667
20
513.3333
30
0.0
11
274.1667
21
430.0000
31
0.0
0
LINE
8
CONC
10
302.0000
20
430.0000
30
0.0
11
305.3333
21
430.0000
31
0.0
0
LINE
8
CONC
10
305.3333
20
430.0000
30
0.0
11
305.3333
21
513.3333
31
0.0
0
LINE
8
CONC
10
305.3333
20
513.3333
30
0.0
11
302.0000
21
513.3333
31
0.0
0
LINE
8
CONC
10
302.0000
20
513.3333
30
0.0
11
302.0000
21
430.0000
31
0.0
0
LINE
8
CONC
10
338.6667
20
450.0000
30
0.0
11
345.3333
21
450.0000
31
0.0
0
LINE
8
CONC
10
345.3333
20
450.0000
30
0.0
11
345.3333
21
513.3333
31
0.0
0
LINE
8
CONC
10
345.3333
20
513.3333
30
0.0
11
338.6667
21
513.3333
31
0.0
0
LINE
8
CONC
10
338.6667
20
513.3333
30
0.0
11
338.6667
21
450.0000
31
0.0
0
LINE
8
CONC
10
392.0000
20
450.0000
30
0.0
11
398.6667
21
450.0000
31
0.0
0
LINE
8
CONC
10
398.6667
20
450.0000
30
0.0
11
398.6667
21
513.3333
31
0.0
0
LINE
8
CONC
10
398.6667
20
513.3333
30
0.0
11
392.0000
21
513.3333
31
0.0
0
LINE
8
CONC
10
392.0000
20
513.3333
30
0.0
11
392.0000
21
450.0000
31
0.0
0
CIRCLE
8
REINF-MAIN
10
126.1667
20
454.1667
30
0.0
40
11.6667
0
TEXT
8
TEXT
10
126.1667
20
435.0000
30
0.0
40
1.5000
1
ESC 1
50
0.0000
72
1
73
2
11
126.1667
21
435.0000
31
0.0
0
CIRCLE
8
REINF-MAIN
10
423.6667
20
454.1667
30
0.0
40
11.6667
0
TEXT
8
TEXT
10
423.6667
20
435.0000
30
0.0
40
1.5000
1
ESC 2
50
0.0000
72
1
73
2
11
423.6667
21
435.0000
31
0.0
0
LINE
8
CONC-HIDDEN
10
347.0000
20
450.0000
30
0.0
11
367.0000
21
450.0000
31
0.0
0
LINE
8
CONC-HIDDEN
10
367.0000
20
450.0000
30
0.0
11
367.0000
21
482.6667
31
0.0
0
LINE
8
CONC-HIDDEN
10
367.0000
20
482.6667
30
0.0
11
347.0000
21
482.6667
31
0.0
0
LINE
8
CONC-HIDDEN
10
347.0000
20
482.6667
30
0.0
11
347.0000
21
450.0000
31
0.0
0
LINE
8
CONC-HIDDEN
10
370.3333
20
450.0000
30
0.0
11
390.3333
21
450.0000
31
0.0
0
LINE
8
CONC-HIDDEN
10
390.3333
20
450.0000
30
0.0
11
390.3333
21
482.6667
31
0.0
0
LINE
8
CONC-HIDDEN
10
390.3333
20
482.6667
30
0.0
11
370.3333
21
482.6667
31
0.0
0
LINE
8
CONC-HIDDEN
10
370.3333
20
482.6667
30
0.0
11
370.3333
21
450.0000
31
0.0
0
LINE
8
CONC-HIDDEN
10
347.0000
20
454.6667
30
0.0
11
349.0000
21
454.6667
31
0.0
0
LINE
8
CONC-HIDDEN
10
350.4000
20
454.6667
30
0.0
11
352.4000
21
454.6667
31
0.0
0
LINE
8
CONC-HIDDEN
10
353.8000
20
454.6667
30
0.0
11
355.8000
21
454.6667
31
0.0
0
LINE
8
CONC-HIDDEN
10
357.2000
20
454.6667
30
0.0
11
359.2000
21
454.6667
31
0.0
0
LINE
8
CONC-HIDDEN
10
360.6000
20
454.6667
30
0.0
11
362.6000
21
454.6667
31
0.0
0
LINE
8
CONC-HIDDEN
10
364.0000
20
454.6667
30
0.0
11
366.0000
21
454.6667
31
0.0
0
LINE
8
CONC-HIDDEN
10
347.0000
20
459.3333
30
0.0
11
349.0000
21
459.3333
31
0.0
0
LINE
8
CONC-HIDDEN
10
350.4000
20
459.3333
30
0.0
11
352.4000
21
459.3333
31
0.0
0
LINE
8
CONC-HIDDEN
10
353.8000
20
459.3333
30
0.0
11
355.8000
21
459.3333
31
0.0
0
LINE
8
CONC-HIDDEN
10
357.2000
20
459.3333
30
0.0
11
359.2000
21
459.3333
31
0.0
0
LINE
8
CONC-HIDDEN
10
360.6000
20
459.3333
30
0.0
11
362.6000
21
459.3333
31
0.0
0
LINE
8
CONC-HIDDEN
10
364.0000
20
459.3333
30
0.0
11
366.0000
21
459.3333
31
0.0
0
LINE
8
CONC-HIDDEN
10
347.0000
20
464.0000
30
0.0
11
349.0000
21
464.0000
31
0.0
0
LINE
8
CONC-HIDDEN
10
350.4000
20
464.0000
30
0.0
11
352.4000
21
464.0000
31
0.0
0
LINE
8
CONC-HIDDEN
10
353.8000
20
464.0000
30
0.0
11
355.8000
21
464.0000
31
0.0
0
LINE
8
CONC-HIDDEN
10
357.2000
20
464.0000
30
0.0
11
359.2000
21
464.0000
31
0.0
0
LINE
8
CONC-HIDDEN
10
360.6000
20
464.0000
30
0.0
11
362.6000
21
464.0000
31
0.0
0
LINE
8
CONC-HIDDEN
10
364.0000
20
464.0000
30
0.0
11
366.0000
21
464.0000
31
0.0
0
LINE
8
CONC-HIDDEN
10
347.0000
20
468.6667
30
0.0
11
349.0000
21
468.6667
31
0.0
0
LINE
8
CONC-HIDDEN
10
350.4000
20
468.6667
30
0.0
11
352.4000
21
468.6667
31
0.0
0
LINE
8
CONC-HIDDEN
10
353.8000
20
468.6667
30
0.0
11
355.8000
21
468.6667
31
0.0
0
LINE
8
CONC-HIDDEN
10
357.2000
20
468.6667
30
0.0
11
359.2000
21
468.6667
31
0.0
0
LINE
8
CONC-HIDDEN
10
360.6000
20
468.6667
30
0.0
11
362.6000
21
468.6667
31
0.0
0
LINE
8
CONC-HIDDEN
10
364.0000
20
468.6667
30
0.0
11
366.0000
21
468.6667
31
0.0
0
LINE
8
CONC-HIDDEN
10
347.0000
20
473.3333
30
0.0
11
349.0000
21
473.3333
31
0.0
0
LINE
8
CONC-HIDDEN
10
350.4000
20
473.3333
30
0.0
11
352.4000
21
473.3333
31
0.0
0
LINE
8
CONC-HIDDEN
10
353.8000
20
473.3333
30
0.0
11
355.8000
21
473.3333
31
0.0
0
LINE
8
CONC-HIDDEN
10
357.2000
20
473.3333
30
0.0
11
359.2000
21
473.3333
31
0.0
0
LINE
8
CONC-HIDDEN
10
360.6000
20
473.3333
30
0.0
11
362.6000
21
473.3333
31
0.0
0
LINE
8
CONC-HIDDEN
10
364.0000
20
473.3333
30
0.0
11
366.0000
21
473.3333
31
0.0
0
LINE
8
CONC-HIDDEN
10
347.0000
20
478.0000
30
0.0
11
349.0000
21
478.0000
31
0.0
0
LINE
8
CONC-HIDDEN
10
350.4000
20
478.0000
30
0.0
11
352.4000
21
478.0000
31
0.0
0
LINE
8
CONC-HIDDEN
10
353.8000
20
478.0000
30
0.0
11
355.8000
21
478.0000
31
0.0
0
LINE
8
CONC-HIDDEN
10
357.2000
20
478.0000
30
0.0
11
359.2000
21
478.0000
31
0.0
0
LINE
8
CONC-HIDDEN
10
360.6000
20
478.0000
30
0.0
11
362.6000
21
478.0000
31
0.0
0
LINE
8
CONC-HIDDEN
10
364.0000
20
478.0000
30
0.0
11
366.0000
21
478.0000
31
0.0
0
LINE
8
CONC-HIDDEN
10
347.0000
20
482.6667
30
0.0
11
349.0000
21
482.6667
31
0.0
0
LINE
8
CONC-HIDDEN
10
350.4000
20
482.6667
30
0.0
11
352.4000
21
482.6667
31
0.0
0
LINE
8
CONC-HIDDEN
10
353.8000
20
482.6667
30
0.0
11
355.8000
21
482.6667
31
0.0
0
LINE
8
CONC-HIDDEN
10
357.2000
20
482.6667
30
0.0
11
359.2000
21
482.6667
31
0.0
0
LINE
8
CONC-HIDDEN
10
360.6000
20
482.6667
30
0.0
11
362.6000
21
482.6667
31
0.0
0
LINE
8
CONC-HIDDEN
10
364.0000
20
482.6667
30
0.0
11
366.0000
21
482.6667
31
0.0
0
LINE
8
CONC-HIDDEN
10
345.3333
20
450.0000
30
0.0
11
347.3333
21
450.0000
31
0.0
0
LINE
8
CONC-HIDDEN
10
348.7333
20
450.0000
30
0.0
11
350.7333
21
450.0000
31
0.0
0
LINE
8
CONC-HIDDEN
10
352.1333
20
450.0000
30
0.0
11
354.1333
21
450.0000
31
0.0
0
LINE
8
CONC-HIDDEN
10
355.5333
20
450.0000
30
0.0
11
357.5333
21
450.0000
31
0.0
0
LINE
8
CONC-HIDDEN
10
358.9333
20
450.0000
30
0.0
11
360.9333
21
450.0000
31
0.0
0
LINE
8
CONC-HIDDEN
10
362.3333
20
450.0000
30
0.0
11
364.3333
21
450.0000
31
0.0
0
LINE
8
CONC-HIDDEN
10
365.7333
20
450.0000
30
0.0
11
367.7333
21
450.0000
31
0.0
0
LINE
8
CONC-HIDDEN
10
369.1333
20
450.0000
30
0.0
11
371.1333
21
450.0000
31
0.0
0
LINE
8
CONC-HIDDEN
10
372.5333
20
450.0000
30
0.0
11
374.5333
21
450.0000
31
0.0
0
LINE
8
CONC-HIDDEN
10
375.9333
20
450.0000
30
0.0
11
377.9333
21
450.0000
31
0.0
0
LINE
8
CONC-HIDDEN
10
379.3333
20
450.0000
30
0.0
11
381.3333
21
450.0000
31
0.0
0
LINE
8
CONC-HIDDEN
10
382.7333
20
450.0000
30
0.0
11
384.7333
21
450.0000
31
0.0
0
LINE
8
CONC-HIDDEN
10
386.1333
20
450.0000
30
0.0
11
388.1333
21
450.0000
31
0.0
0
LINE
8
CONC-HIDDEN
10
389.5333
20
450.0000
30
0.0
11
391.5333
21
450.0000
31
0.0
0
LINE
8
CONC-HIDDEN
10
345.3333
20
482.6667
30
0.0
11
347.3333
21
482.6667
31
0.0
0
LINE
8
CONC-HIDDEN
10
348.7333
20
482.6667
30
0.0
11
350.7333
21
482.6667
31
0.0
0
LINE
8
CONC-HIDDEN
10
352.1333
20
482.6667
30
0.0
11
354.1333
21
482.6667
31
0.0
0
LINE
8
CONC-HIDDEN
10
355.5333
20
482.6667
30
0.0
11
357.5333
21
482.6667
31
0.0
0
LINE
8
CONC-HIDDEN
10
358.9333
20
482.6667
30
0.0
11
360.9333
21
482.6667
31
0.0
0
LINE
8
CONC-HIDDEN
10
362.3333
20
482.6667
30
0.0
11
364.3333
21
482.6667
31
0.0
0
LINE
8
CONC-HIDDEN
10
365.7333
20
482.6667
30
0.0
11
367.7333
21
482.6667
31
0.0
0
LINE
8
CONC-HIDDEN
10
369.1333
20
482.6667
30
0.0
11
371.1333
21
482.6667
31
0.0
0
LINE
8
CONC-HIDDEN
10
372.5333
20
482.6667
30
0.0
11
374.5333
21
482.6667
31
0.0
0
LINE
8
CONC-HIDDEN
10
375.9333
20
482.6667
30
0.0
11
377.9333
21
482.6667
31
0.0
0
LINE
8
CONC-HIDDEN
10
379.3333
20
482.6667
30
0.0
11
381.3333
21
482.6667
31
0.0
0
LINE
8
CONC-HIDDEN
10
382.7333
20
482.6667
30
0.0
11
384.7333
21
482.6667
31
0.0
0
LINE
8
CONC-HIDDEN
10
386.1333
20
482.6667
30
0.0
11
388.1333
21
482.6667
31
0.0
0
LINE
8
CONC-HIDDEN
10
389.5333
20
482.6667
30
0.0
11
391.5333
21
482.6667
31
0.0
0
LINE
8
REINF-SEC
10
338.6667
20
430.0000
30
0.0
11
338.6667
21
450.0000
31
0.0
0
LINE
8
REINF-SEC
10
345.3333
20
430.0000
30
0.0
11
345.3333
21
450.0000
31
0.0
0
LINE
8
REINF-SEC
10
392.0000
20
430.0000
30
0.0
11
392.0000
21
450.0000
31
0.0
0
LINE
8
REINF-SEC
10
398.6667
20
430.0000
30
0.0
11
398.6667
21
450.0000
31
0.0
0
TEXT
8
TEXT
10
342.0000
20
440.0000
30
0.0
40
1.4000
1
BLAST DOOR 1
50
90.0000
72
1
73
2
11
342.0000
21
440.0000
31
0.0
0
TEXT
8
TEXT
10
395.3333
20
440.0000
30
0.0
40
1.4000
1
BLAST DOOR 2
50
90.0000
72
1
73
2
11
395.3333
21
440.0000
31
0.0
0
LINE
8
SERVICES
10
276.5000
20
435.0000
30
0.0
11
301.5000
21
435.0000
31
0.0
0
LINE
8
SERVICES
10
301.5000
20
435.0000
30
0.0
11
301.5000
21
460.0000
31
0.0
0
LINE
8
SERVICES
10
301.5000
20
460.0000
30
0.0
11
276.5000
21
460.0000
31
0.0
0
LINE
8
SERVICES
10
276.5000
20
460.0000
30
0.0
11
276.5000
21
435.0000
31
0.0
0
LINE
8
SERVICES
10
271.5000
20
430.0000
30
0.0
11
306.5000
21
430.0000
31
0.0
0
LINE
8
SERVICES
10
306.5000
20
430.0000
30
0.0
11
306.5000
21
465.0000
31
0.0
0
LINE
8
SERVICES
10
306.5000
20
465.0000
30
0.0
11
271.5000
21
465.0000
31
0.0
0
LINE
8
SERVICES
10
271.5000
20
465.0000
30
0.0
11
271.5000
21
430.0000
31
0.0
0
LINE
8
HATCH
10
301.5000
20
436.9799
30
0.0
11
299.5201
21
435.0000
31
0.0
0
LINE
8
HATCH
10
301.5000
20
438.9598
30
0.0
11
297.5402
21
435.0000
31
0.0
0
LINE
8
HATCH
10
301.5000
20
440.9397
30
0.0
11
295.5603
21
435.0000
31
0.0
0
LINE
8
HATCH
10
301.5000
20
442.9196
30
0.0
11
293.5804
21
435.0000
31
0.0
0
LINE
8
HATCH
10
301.5000
20
444.8995
30
0.0
11
291.6005
21
435.0000
31
0.0
0
LINE
8
HATCH
10
301.5000
20
446.8794
30
0.0
11
289.6206
21
435.0000
31
0.0
0
LINE
8
HATCH
10
301.5000
20
448.8593
30
0.0
11
287.6407
21
435.0000
31
0.0
0
LINE
8
HATCH
10
301.5000
20
450.8392
30
0.0
11
285.6608
21
435.0000
31
0.0
0
LINE
8
HATCH
10
301.5000
20
452.8191
30
0.0
11
283.6809
21
435.0000
31
0.0
0
LINE
8
HATCH
10
301.5000
20
454.7990
30
0.0
11
281.7010
21
435.0000
31
0.0
0
LINE
8
HATCH
10
301.5000
20
456.7789
30
0.0
11
279.7211
21
435.0000
31
0.0
0
LINE
8
HATCH
10
301.5000
20
458.7588
30
0.0
11
277.7412
21
435.0000
31
0.0
0
LINE
8
HATCH
10
276.5000
20
435.7387
30
0.0
11
300.7613
21
460.0000
31
0.0
0
LINE
8
HATCH
10
276.5000
20
437.7186
30
0.0
11
298.7814
21
460.0000
31
0.0
0
LINE
8
HATCH
10
276.5000
20
439.6985
30
0.0
11
296.8015
21
460.0000
31
0.0
0
LINE
8
HATCH
10
276.5000
20
441.6784
30
0.0
11
294.8216
21
460.0000
31
0.0
0
LINE
8
HATCH
10
276.5000
20
443.6583
30
0.0
11
292.8417
21
460.0000
31
0.0
0
LINE
8
HATCH
10
276.5000
20
445.6382
30
0.0
11
290.8618
21
460.0000
31
0.0
0
LINE
8
HATCH
10
276.5000
20
447.6181
30
0.0
11
288.8819
21
460.0000
31
0.0
0
LINE
8
HATCH
10
276.5000
20
449.5980
30
0.0
11
286.9020
21
460.0000
31
0.0
0
LINE
8
HATCH
10
276.5000
20
451.5779
30
0.0
11
284.9221
21
460.0000
31
0.0
0
LINE
8
HATCH
10
276.5000
20
453.5578
30
0.0
11
282.9422
21
460.0000
31
0.0
0
LINE
8
HATCH
10
276.5000
20
455.5377
30
0.0
11
280.9623
21
460.0000
31
0.0
0
LINE
8
HATCH
10
276.5000
20
457.5176
30
0.0
11
278.9824
21
460.0000
31
0.0
0
LINE
8
HATCH
10
276.5000
20
459.4975
30
0.0
11
277.0025
21
460.0000
31
0.0
0
CIRCLE
8
SERVICES
10
283.1667
20
447.5000
30
0.0
40
3.5000
0
CIRCLE
8
SERVICES
10
294.8333
20
447.5000
30
0.0
40
3.5000
0
TEXT
8
TEXT-TITLE
10
289.0000
20
471.6667
30
0.0
40
1.5000
1
CLEAN SUMP 1500 x 1500 x 1500
50
0.0000
72
1
73
2
11
289.0000
21
471.6667
31
0.0
0
TEXT
8
TEXT
10
289.0000
20
465.8333
30
0.0
40
1.4000
1
3.375 m3, INVERT (-)7.600
50
0.0000
72
1
73
2
11
289.0000
21
465.8333
31
0.0
0
LINE
8
SERVICES
10
277.0000
20
485.0000
30
0.0
11
301.1667
21
485.0000
31
0.0
0
LINE
8
SERVICES
10
301.1667
20
485.0000
30
0.0
11
301.1667
21
512.5000
31
0.0
0
LINE
8
SERVICES
10
301.1667
20
512.5000
30
0.0
11
277.0000
21
512.5000
31
0.0
0
LINE
8
SERVICES
10
277.0000
20
512.5000
30
0.0
11
277.0000
21
485.0000
31
0.0
0
LINE
8
SERVICES
10
277.0000
20
465.0000
30
0.0
11
301.1667
21
465.0000
31
0.0
0
LINE
8
SERVICES
10
301.1667
20
465.0000
30
0.0
11
301.1667
21
483.3333
31
0.0
0
LINE
8
SERVICES
10
301.1667
20
483.3333
30
0.0
11
277.0000
21
483.3333
31
0.0
0
LINE
8
SERVICES
10
277.0000
20
483.3333
30
0.0
11
277.0000
21
465.0000
31
0.0
0
TEXT
8
TEXT
10
289.0833
20
498.3333
30
0.0
40
1.4000
1
NBC FILTER TRAIN 1
50
0.0000
72
1
73
2
11
289.0833
21
498.3333
31
0.0
0
TEXT
8
TEXT
10
289.0833
20
474.1667
30
0.0
40
1.4000
1
NBC FILTER TRAIN 2
50
0.0000
72
1
73
2
11
289.0833
21
474.1667
31
0.0
0
TEXT
8
TEXT
10
289.0833
20
493.3333
30
0.0
40
1.3000
1
300 m3/h
50
0.0000
72
1
73
2
11
289.0833
21
493.3333
31
0.0
0
TEXT
8
TEXT
10
289.0833
20
469.1667
30
0.0
40
1.3000
1
300 m3/h
50
0.0000
72
1
73
2
11
289.0833
21
469.1667
31
0.0
0
LINE
8
SERVICES
10
428.6667
20
493.3333
30
0.0
11
448.6667
21
493.3333
31
0.0
0
LINE
8
SERVICES
10
448.6667
20
493.3333
30
0.0
11
448.6667
21
513.3333
31
0.0
0
LINE
8
SERVICES
10
448.6667
20
513.3333
30
0.0
11
428.6667
21
513.3333
31
0.0
0
LINE
8
SERVICES
10
428.6667
20
513.3333
30
0.0
11
428.6667
21
493.3333
31
0.0
0
TEXT
8
TEXT
10
438.6667
20
486.6667
30
0.0
40
1.3500
1
1000 L DECON
50
0.0000
72
1
73
2
11
438.6667
21
486.6667
31
0.0
0
TEXT
8
TEXT
10
438.6667
20
480.8333
30
0.0
40
1.3500
1
EFFLUENT TANK
50
0.0000
72
1
73
2
11
438.6667
21
480.8333
31
0.0
0
LINE
8
SERVICES
10
40.3333
20
466.6667
30
0.0
11
50.3333
21
466.6667
31
0.0
0
LINE
8
SERVICES
10
50.3333
20
466.6667
30
0.0
11
50.3333
21
476.6667
31
0.0
0
LINE
8
SERVICES
10
50.3333
20
476.6667
30
0.0
11
40.3333
21
476.6667
31
0.0
0
LINE
8
SERVICES
10
40.3333
20
476.6667
30
0.0
11
40.3333
21
466.6667
31
0.0
0
TEXT
8
TEXT
10
37.0000
20
493.3333
30
0.0
40
1.3500
1
FRESH-AIR SHAFT
50
0.0000
72
0
73
2
11
37.0000
21
493.3333
31
0.0
0
TEXT
8
TEXT
10
37.0000
20
485.8333
30
0.0
40
1.3000
1
600 x 600, GOOSENECK +1.500
50
0.0000
72
0
73
2
11
37.0000
21
485.8333
31
0.0
0
LINE
8
SERVICES
10
50.3333
20
471.6667
30
0.0
11
102.0000
21
471.6667
31
0.0
0
LINE
8
SERVICES
10
468.6667
20
449.1667
30
0.0
11
478.6667
21
449.1667
31
0.0
0
LINE
8
SERVICES
10
478.6667
20
449.1667
30
0.0
11
478.6667
21
459.1667
31
0.0
0
LINE
8
SERVICES
10
478.6667
20
459.1667
30
0.0
11
468.6667
21
459.1667
31
0.0
0
LINE
8
SERVICES
10
468.6667
20
459.1667
30
0.0
11
468.6667
21
449.1667
31
0.0
0
TEXT
8
TEXT
10
465.3333
20
473.3333
30
0.0
40
1.3500
1
GENERATOR AIR
50
0.0000
72
0
73
2
11
465.3333
21
473.3333
31
0.0
0
TEXT
8
TEXT
10
465.3333
20
465.8333
30
0.0
40
1.3000
1
SHAFT 600 x 600
50
0.0000
72
0
73
2
11
465.3333
21
465.8333
31
0.0
0
LINE
8
SERVICES
10
282.0000
20
513.3333
30
0.0
11
295.3333
21
513.3333
31
0.0
0
LINE
8
SERVICES
10
295.3333
20
513.3333
30
0.0
11
295.3333
21
523.3333
31
0.0
0
LINE
8
SERVICES
10
295.3333
20
523.3333
30
0.0
11
282.0000
21
523.3333
31
0.0
0
LINE
8
SERVICES
10
282.0000
20
523.3333
30
0.0
11
282.0000
21
513.3333
31
0.0
0
LINE
8
DIM
10
288.6667
20
523.3333
30
0.0
11
250.0000
21
556.0000
31
0.0
0
LINE
8
DIM
10
250.0000
20
556.0000
30
0.0
11
254.0000
21
556.0000
31
0.0
0
CIRCLE
8
DIM
10
288.6667
20
523.3333
30
0.0
40
0.5000
0
TEXT
8
TEXT
10
255.0000
20
556.6300
30
0.0
40
1.8000
1
SERVICE ENTRY PLATE - THE ONLY
50
0.0000
72
0
73
1
11
255.0000
21
556.6300
31
0.0
0
TEXT
8
TEXT
10
252.0000
20
552.0000
30
0.0
40
1.4500
1
PENETRATION OF THE ENVELOPE.  MCT FRAME WITH
50
0.0000
72
0
73
3
11
252.0000
21
552.0000
31
0.0
0
TEXT
8
TEXT
10
252.0000
20
548.5000
30
0.0
40
1.4500
1
EMP MODULES + SLEEVED PIPES + SUMP RISING MAIN
50
0.0000
72
0
73
3
11
252.0000
21
548.5000
31
0.0
0
LINE
8
SERVICES
10
301.5000
20
447.5000
30
0.0
11
308.6667
21
447.5000
31
0.0
0
LINE
8
SERVICES
10
308.6667
20
447.5000
30
0.0
11
308.6667
21
518.3333
31
0.0
0
LINE
8
SERVICES
10
308.6667
20
518.3333
30
0.0
11
293.6667
21
518.3333
31
0.0
0
CIRCLE
8
BLAST
10
102.0000
20
456.6667
30
0.0
40
2.6000
0
LINE
8
BLAST
10
102.0000
20
456.6667
30
0.0
11
102.0000
21
456.6667
31
0.0
0
TEXT
8
BLAST
10
102.0000
20
456.6667
30
0.0
40
1.7000
1
V
50
0.0000
72
1
73
2
11
102.0000
21
456.6667
31
0.0
0
CIRCLE
8
BLAST
10
102.0000
20
486.6667
30
0.0
40
2.6000
0
LINE
8
BLAST
10
102.0000
20
486.6667
30
0.0
11
102.0000
21
486.6667
31
0.0
0
TEXT
8
BLAST
10
102.0000
20
486.6667
30
0.0
40
1.7000
1
V
50
0.0000
72
1
73
2
11
102.0000
21
486.6667
31
0.0
0
CIRCLE
8
BLAST
10
342.0000
20
501.6667
30
0.0
40
2.6000
0
LINE
8
BLAST
10
342.0000
20
501.6667
30
0.0
11
342.0000
21
501.6667
31
0.0
0
TEXT
8
BLAST
10
342.0000
20
501.6667
30
0.0
40
1.7000
1
V
50
0.0000
72
1
73
2
11
342.0000
21
501.6667
31
0.0
0
CIRCLE
8
BLAST
10
448.6667
20
441.6667
30
0.0
40
2.6000
0
LINE
8
BLAST
10
448.6667
20
441.6667
30
0.0
11
448.6667
21
441.6667
31
0.0
0
TEXT
8
BLAST
10
448.6667
20
441.6667
30
0.0
40
1.7000
1
V
50
0.0000
72
1
73
2
11
448.6667
21
441.6667
31
0.0
0
CIRCLE
8
BLAST
10
448.6667
20
498.3333
30
0.0
40
2.6000
0
LINE
8
BLAST
10
448.6667
20
498.3333
30
0.0
11
448.6667
21
498.3333
31
0.0
0
TEXT
8
BLAST
10
448.6667
20
498.3333
30
0.0
40
1.7000
1
V
50
0.0000
72
1
73
2
11
448.6667
21
498.3333
31
0.0
0
TEXT
8
BLAST
10
94.5000
20
468.3333
30
0.0
40
1.6000
1
BV-1
50
0.0000
72
2
73
2
11
94.5000
21
468.3333
31
0.0
0
TEXT
8
BLAST
10
94.5000
20
459.1667
30
0.0
40
1.4000
1
DN100
50
0.0000
72
2
73
2
11
94.5000
21
459.1667
31
0.0
0
TEXT
8
BLAST
10
94.5000
20
498.3333
30
0.0
40
1.6000
1
BV-2
50
0.0000
72
2
73
2
11
94.5000
21
498.3333
31
0.0
0
TEXT
8
BLAST
10
94.5000
20
489.1667
30
0.0
40
1.4000
1
DN100
50
0.0000
72
2
73
2
11
94.5000
21
489.1667
31
0.0
0
TEXT
8
BLAST
10
357.0000
20
513.3333
30
0.0
40
1.6000
1
BV-3
50
0.0000
72
0
73
2
11
357.0000
21
513.3333
31
0.0
0
TEXT
8
BLAST
10
357.0000
20
504.1667
30
0.0
40
1.4000
1
DN100
50
0.0000
72
0
73
2
11
357.0000
21
504.1667
31
0.0
0
TEXT
8
BLAST
10
463.6667
20
453.3333
30
0.0
40
1.6000
1
BV-4
50
0.0000
72
0
73
2
11
463.6667
21
453.3333
31
0.0
0
TEXT
8
BLAST
10
463.6667
20
444.1667
30
0.0
40
1.4000
1
DN350
50
0.0000
72
0
73
2
11
463.6667
21
444.1667
31
0.0
0
TEXT
8
BLAST
10
463.6667
20
510.0000
30
0.0
40
1.6000
1
BV-5
50
0.0000
72
0
73
2
11
463.6667
21
510.0000
31
0.0
0
TEXT
8
BLAST
10
463.6667
20
500.8333
30
0.0
40
1.4000
1
DN350
50
0.0000
72
0
73
2
11
463.6667
21
500.8333
31
0.0
0
TEXT
8
TEXT-TITLE
10
126.1667
20
507.5000
30
0.0
40
1.4000
1
1  EMERGENCY STORES
50
0.0000
72
1
73
2
11
126.1667
21
507.5000
31
0.0
0
TEXT
8
TEXT-TITLE
10
167.1667
20
507.5000
30
0.0
40
1.4000
1
2  LAVATORY / MEDICAL
50
0.0000
72
1
73
2
11
167.1667
21
507.5000
31
0.0
0
TEXT
8
TEXT-TITLE
10
213.1667
20
507.5000
30
0.0
40
1.4000
1
3  OPS ROOM
50
0.0000
72
1
73
2
11
213.1667
21
507.5000
31
0.0
0
TEXT
8
TEXT-TITLE
10
259.1667
20
507.5000
30
0.0
40
1.4000
1
4  BERTHING
50
0.0000
72
1
73
2
11
259.1667
21
507.5000
31
0.0
0
TEXT
8
TEXT-TITLE
10
289.0000
20
507.5000
30
0.0
40
1.4000
1
5  CBRN PLANT + SUMP
50
0.0000
72
1
73
2
11
289.0000
21
507.5000
31
0.0
0
TEXT
8
TEXT-TITLE
10
322.0000
20
507.5000
30
0.0
40
1.4000
1
6  DECON AIRLOCK
50
0.0000
72
1
73
2
11
322.0000
21
507.5000
31
0.0
0
TEXT
8
TEXT-TITLE
10
368.6667
20
507.5000
30
0.0
40
1.4000
1
7  STAIR SHAFT
50
0.0000
72
1
73
2
11
368.6667
21
507.5000
31
0.0
0
TEXT
8
TEXT-TITLE
10
423.6667
20
507.5000
30
0.0
40
1.4000
1
8  GENERATOR (GREY)
50
0.0000
72
1
73
2
11
423.6667
21
507.5000
31
0.0
0
LINE
8
DIM
10
92.0000
20
388.3333
30
0.0
11
458.6667
21
388.3333
31
0.0
0
LINE
8
DIM
10
91.2222
20
387.5555
30
0.0
11
92.7778
21
389.1112
31
0.0
0
LINE
8
DIM
10
457.8888
20
387.5555
30
0.0
11
459.4445
21
389.1112
31
0.0
0
TEXT
8
DIM
10
275.3333
20
389.1433
30
0.0
40
1.8000
1
22000 OVERALL
50
0.0000
72
1
73
1
11
275.3333
21
389.1433
31
0.0
0
LINE
8
DIM
10
73.6667
20
420.0000
30
0.0
11
73.6667
21
523.3333
31
0.0
0
LINE
8
DIM
10
72.8888
20
419.2222
30
0.0
11
74.4445
21
420.7778
31
0.0
0
LINE
8
DIM
10
72.8888
20
522.5555
30
0.0
11
74.4445
21
524.1112
31
0.0
0
TEXT
8
DIM
10
72.8567
20
471.6667
30
0.0
40
1.8000
1
6200
50
90.0000
72
1
73
1
11
72.8567
21
471.6667
31
0.0
0
TEXT
8
TEXT-TITLE
10
495.0000
20
538.0000
30
0.0
40
1.8000
1
LEGEND
50
0.0000
72
0
73
3
11
495.0000
21
538.0000
31
0.0
0
TEXT
8
NOTES
10
495.0000
20
532.0000
30
0.0
40
1.5000
1
V   BLAST VALVE (see schedule)
50
0.0000
72
0
73
3
11
495.0000
21
532.0000
31
0.0
0
TEXT
8
NOTES
10
495.0000
20
528.6000
30
0.0
40
1.5000
1
    SERVICES / TANKS / SHAFTS
50
0.0000
72
0
73
3
11
495.0000
21
528.6000
31
0.0
0
TEXT
8
NOTES
10
495.0000
20
525.2000
30
0.0
40
1.5000
1
    HATCHED = SUMP OR PLATE
50
0.0000
72
0
73
3
11
495.0000
21
525.2000
31
0.0
0
TEXT
8
NOTES
10
495.0000
20
521.8000
30
0.0
40
1.5000
1

50
0.0000
72
0
73
3
11
495.0000
21
521.8000
31
0.0
0
TEXT
8
NOTES
10
495.0000
20
518.4000
30
0.0
40
1.5000
1
GAS-TIGHT ENVELOPE = BAYS 1-6
50
0.0000
72
0
73
3
11
495.0000
21
518.4000
31
0.0
0
TEXT
8
NOTES
10
495.0000
20
515.0000
30
0.0
40
1.5000
1
67.8 m2 / 217.0 m3.  BAYS 7
50
0.0000
72
0
73
3
11
495.0000
21
515.0000
31
0.0
0
TEXT
8
NOTES
10
495.0000
20
511.6000
30
0.0
40
1.5000
1
AND 8 ARE OUTSIDE IT.
50
0.0000
72
0
73
3
11
495.0000
21
511.6000
31
0.0
0
TEXT
8
NOTES
10
495.0000
20
508.2000
30
0.0
40
1.5000
1

50
0.0000
72
0
73
3
11
495.0000
21
508.2000
31
0.0
0
TEXT
8
NOTES
10
495.0000
20
504.8000
30
0.0
40
1.5000
1
SUMP DISCHARGE, IN SERIES:
50
0.0000
72
0
73
3
11
495.0000
21
504.8000
31
0.0
0
TEXT
8
NOTES
10
495.0000
20
501.4000
30
0.0
40
1.5000
1
  1 ISOLATION VALVE
50
0.0000
72
0
73
3
11
495.0000
21
501.4000
31
0.0
0
TEXT
8
NOTES
10
495.0000
20
498.0000
30
0.0
40
1.5000
1
  2 GAS-TIGHT NON-RETURN VALVE
50
0.0000
72
0
73
3
11
495.0000
21
498.0000
31
0.0
0
TEXT
8
NOTES
10
495.0000
20
494.6000
30
0.0
40
1.5000
1
  3 BLAST CHECK VALVE
50
0.0000
72
0
73
3
11
495.0000
21
494.6000
31
0.0
0
TEXT
8
NOTES
10
495.0000
20
491.2000
30
0.0
40
1.5000
1
  4 DEEP-SEAL TRAP
50
0.0000
72
0
73
3
11
495.0000
21
491.2000
31
0.0
0
TEXT
8
NOTES
10
495.0000
20
487.8000
30
0.0
40
1.5000
1
ALL INSIDE THE ENVELOPE.
50
0.0000
72
0
73
3
11
495.0000
21
487.8000
31
0.0
0
TEXT
8
NOTES
10
495.0000
20
484.4000
30
0.0
40
1.5000
1

50
0.0000
72
0
73
3
11
495.0000
21
484.4000
31
0.0
0
TEXT
8
NOTES
10
495.0000
20
481.0000
30
0.0
40
1.5000
1
DECON EFFLUENT NEVER ENTERS
50
0.0000
72
0
73
3
11
495.0000
21
481.0000
31
0.0
0
TEXT
8
NOTES
10
495.0000
20
477.6000
30
0.0
40
1.5000
1
THE CLEAN SUMP - TANKERED
50
0.0000
72
0
73
3
11
495.0000
21
477.6000
31
0.0
0
TEXT
8
NOTES
10
495.0000
20
474.2000
30
0.0
40
1.5000
1
OUT AFTER THE ALL-CLEAR.
50
0.0000
72
0
73
3
11
495.0000
21
474.2000
31
0.0
0
TEXT
8
TEXT-TITLE
10
25.0000
20
380.0000
30
0.0
40
3.4000
1
V2  SITE DRAINAGE AND WASTE LAYOUT
50
0.0000
72
0
73
3
11
25.0000
21
380.0000
31
0.0
0
LINE
8
TEXT-TITLE
10
25.0000
20
375.2000
30
0.0
11
94.3000
21
375.2000
31
0.0
0
TEXT
8
TEXT-TITLE
10
25.0000
20
373.8000
30
0.0
40
2.0000
1
SCALE 1:300   SCHEMATIC POSITIONS
50
0.0000
72
0
73
3
11
25.0000
21
373.8000
31
0.0
0
LINE
8
CONC
10
55.0000
20
300.0000
30
0.0
11
128.3333
21
300.0000
31
0.0
0
LINE
8
CONC
10
128.3333
20
300.0000
30
0.0
11
128.3333
21
320.6667
31
0.0
0
LINE
8
CONC
10
128.3333
20
320.6667
30
0.0
11
55.0000
21
320.6667
31
0.0
0
LINE
8
CONC
10
55.0000
20
320.6667
30
0.0
11
55.0000
21
300.0000
31
0.0
0
TEXT
8
TEXT-TITLE
10
91.6667
20
310.3333
30
0.0
40
1.5000
1
UNDERGROUND SHELTER
50
0.0000
72
1
73
2
11
91.6667
21
310.3333
31
0.0
0
LINE
8
SOIL
10
50.3333
20
295.3333
30
0.0
11
53.1534
21
296.3567
31
0.0
0
LINE
8
SOIL
10
55.0334
20
297.0390
30
0.0
11
57.8534
21
298.0624
31
0.0
0
LINE
8
SOIL
10
59.7335
20
298.7447
30
0.0
11
62.5535
21
299.7681
31
0.0
0
LINE
8
SOIL
10
64.4336
20
300.4503
30
0.0
11
67.2536
21
301.4738
31
0.0
0
LINE
8
SOIL
10
69.1336
20
302.1560
30
0.0
11
71.9537
21
303.1794
31
0.0
0
LINE
8
SOIL
10
73.8337
20
303.8617
30
0.0
11
76.6537
21
304.8851
31
0.0
0
LINE
8
SOIL
10
78.5338
20
305.5674
30
0.0
11
81.3538
21
306.5908
31
0.0
0
LINE
8
SOIL
10
83.2338
20
307.2730
30
0.0
11
86.0539
21
308.2964
31
0.0
0
LINE
8
SOIL
10
87.9339
20
308.9787
30
0.0
11
90.7540
21
310.0021
31
0.0
0
LINE
8
SOIL
10
92.6340
20
310.6844
30
0.0
11
95.4540
21
311.7078
31
0.0
0
LINE
8
SOIL
10
97.3341
20
312.3900
30
0.0
11
100.1541
21
313.4135
31
0.0
0
LINE
8
SOIL
10
102.0341
20
314.0957
30
0.0
11
104.8542
21
315.1191
31
0.0
0
LINE
8
SOIL
10
106.7342
20
315.8014
30
0.0
11
109.5543
21
316.8248
31
0.0
0
LINE
8
SOIL
10
111.4343
20
317.5071
30
0.0
11
114.2543
21
318.5305
31
0.0
0
LINE
8
SOIL
10
116.1344
20
319.2127
30
0.0
11
118.9544
21
320.2361
31
0.0
0
LINE
8
SOIL
10
120.8344
20
320.9184
30
0.0
11
123.6545
21
321.9418
31
0.0
0
LINE
8
SOIL
10
125.5345
20
322.6241
30
0.0
11
128.3545
21
323.6475
31
0.0
0
LINE
8
SOIL
10
130.2346
20
324.3298
30
0.0
11
133.0000
21
325.3333
31
0.0
0
TEXT
8
SOIL
10
91.6667
20
327.0000
30
0.0
40
1.3500
1
BERM TOE 1.5:1
50
0.0000
72
1
73
2
11
91.6667
21
327.0000
31
0.0
0
LINE
8
CONC
10
85.8333
20
319.1667
30
0.0
11
108.5000
21
319.1667
31
0.0
0
LINE
8
CONC
10
108.5000
20
319.1667
30
0.0
11
108.5000
21
325.8333
31
0.0
0
LINE
8
CONC
10
108.5000
20
325.8333
30
0.0
11
85.8333
21
325.8333
31
0.0
0
LINE
8
CONC
10
85.8333
20
325.8333
30
0.0
11
85.8333
21
319.1667
31
0.0
0
TEXT
8
TEXT
10
97.0000
20
328.6667
30
0.0
40
1.3500
1
COVERED ENTRY STAIRWELL
50
0.0000
72
1
73
2
11
97.0000
21
328.6667
31
0.0
0
LINE
8
CONC
10
8.3333
20
296.6667
30
0.0
11
21.6667
21
296.6667
31
0.0
0
LINE
8
CONC
10
21.6667
20
296.6667
30
0.0
11
21.6667
21
313.3333
31
0.0
0
LINE
8
CONC
10
21.6667
20
313.3333
30
0.0
11
8.3333
21
313.3333
31
0.0
0
LINE
8
CONC
10
8.3333
20
313.3333
30
0.0
11
8.3333
21
296.6667
31
0.0
0
TEXT
8
TEXT-TITLE
10
15.0000
20
315.3333
30
0.0
40
1.3500
1
SENTRY POST
50
0.0000
72
1
73
2
11
15.0000
21
315.3333
31
0.0
0
TEXT
8
TEXT
10
15.0000
20
294.3333
30
0.0
40
1.3000
1
10 m CLEAR MIN
50
0.0000
72
1
73
2
11
15.0000
21
294.3333
31
0.0
0
LINE
8
SERVICES
10
65.0000
20
274.1667
30
0.0
11
70.0000
21
274.1667
31
0.0
0
LINE
8
SERVICES
10
70.0000
20
274.1667
30
0.0
11
70.0000
21
276.6667
31
0.0
0
LINE
8
SERVICES
10
70.0000
20
276.6667
30
0.0
11
65.0000
21
276.6667
31
0.0
0
LINE
8
SERVICES
10
65.0000
20
276.6667
30
0.0
11
65.0000
21
274.1667
31
0.0
0
TEXT
8
TEXT
10
72.0000
20
276.0000
30
0.0
40
1.3500
1
SEPTIC TANK 1.5 x 0.75 x 1.0 LIQUID
50
0.0000
72
0
73
2
11
72.0000
21
276.0000
31
0.0
0
TEXT
8
TEXT
10
72.0000
20
273.6667
30
0.0
40
1.3000
1
IS 2470 (Pt 1) Table 1, up to 10 users
50
0.0000
72
0
73
2
11
72.0000
21
273.6667
31
0.0
0
CIRCLE
8
SERVICES
10
67.5000
20
261.6667
30
0.0
40
3.3333
0
TEXT
8
TEXT
10
72.0000
20
262.3333
30
0.0
40
1.3500
1
SOAK PIT 2.0 DIA x 3.5 EFFECTIVE
50
0.0000
72
0
73
2
11
72.0000
21
262.3333
31
0.0
0
TEXT
8
TEXT
10
72.0000
20
260.0000
30
0.0
40
1.3000
1
IS 2470 (Pt 2).  22.0 m2 ABSORPTION
50
0.0000
72
0
73
2
11
72.0000
21
260.0000
31
0.0
0
LINE
8
SERVICES
10
67.5000
20
274.1667
30
0.0
11
67.5000
21
263.3333
31
0.0
0
LINE
8
SERVICES
10
67.5000
20
300.0000
30
0.0
11
67.5000
21
276.6667
31
0.0
0
TEXT
8
TEXT
10
64.6667
20
286.6667
30
0.0
40
1.3000
1
FOUL
50
90.0000
72
1
73
2
11
64.6667
21
286.6667
31
0.0
0
CIRCLE
8
SERVICES
10
101.6667
20
278.3333
30
0.0
40
2.3333
0
TEXT
8
TEXT
10
106.0000
20
279.0000
30
0.0
40
1.3500
1
STORM SOAKAWAY - CLEAN SUMP
50
0.0000
72
0
73
2
11
106.0000
21
279.0000
31
0.0
0
TEXT
8
TEXT
10
106.0000
20
276.6667
30
0.0
40
1.3000
1
DISCHARGE.  SEPARATE FROM FOUL.
50
0.0000
72
0
73
2
11
106.0000
21
276.6667
31
0.0
0
LINE
8
SERVICES
10
94.3333
20
320.6667
30
0.0
11
101.6667
21
320.6667
31
0.0
0
LINE
8
SERVICES
10
101.6667
20
320.6667
30
0.0
11
101.6667
21
280.6667
31
0.0
0
CIRCLE
8
SERVICES
10
111.0000
20
322.5000
30
0.0
40
1.6667
0
TEXT
8
TEXT
10
113.6667
20
322.5000
30
0.0
40
1.3000
1
STAIRWELL SUMP 1.0 m3 + OWN SOAKAWAY
50
0.0000
72
0
73
2
11
113.6667
21
322.5000
31
0.0
0
LINE
8
SERVICES
10
44.6667
20
309.3333
30
0.0
11
46.6667
21
309.3333
31
0.0
0
LINE
8
SERVICES
10
46.6667
20
309.3333
30
0.0
11
46.6667
21
311.3333
31
0.0
0
LINE
8
SERVICES
10
46.6667
20
311.3333
30
0.0
11
44.6667
21
311.3333
31
0.0
0
LINE
8
SERVICES
10
44.6667
20
311.3333
30
0.0
11
44.6667
21
309.3333
31
0.0
0
TEXT
8
TEXT
10
43.0000
20
314.0000
30
0.0
40
1.3000
1
FRESH-AIR INTAKE
50
0.0000
72
2
73
2
11
43.0000
21
314.0000
31
0.0
0
LINE
8
DIM
10
46.6667
20
335.0000
30
0.0
11
85.8333
21
335.0000
31
0.0
0
LINE
8
DIM
10
45.8888
20
334.2222
30
0.0
11
47.4445
21
335.7778
31
0.0
0
LINE
8
DIM
10
85.0555
20
334.2222
30
0.0
11
86.6112
21
335.7778
31
0.0
0
TEXT
8
DIM
10
66.2500
20
335.8100
30
0.0
40
1.8000
1
12.3 m INTAKE TO ENTRY  (>= 10 m)
50
0.0000
72
1
73
1
11
66.2500
21
335.8100
31
0.0
0
TEXT
8
TEXT-TITLE
10
178.0000
20
380.0000
30
0.0
40
3.4000
1
V3  SUMP PIT SECTION
50
0.0000
72
0
73
3
11
178.0000
21
380.0000
31
0.0
0
LINE
8
TEXT-TITLE
10
178.0000
20
375.2000
30
0.0
11
220.0000
21
375.2000
31
0.0
0
TEXT
8
TEXT-TITLE
10
178.0000
20
373.8000
30
0.0
40
2.0000
1
SCALE 1:30   BAY 5, INSIDE THE ENVELOPE
50
0.0000
72
0
73
3
11
178.0000
21
373.8000
31
0.0
0
LINE
8
CONC
10
165.0000
20
333.3667
30
0.0
11
295.0000
21
333.3667
31
0.0
0
LINE
8
CONC
10
295.0000
20
333.3667
30
0.0
11
295.0000
21
353.3667
31
0.0
0
LINE
8
CONC
10
295.0000
20
353.3667
30
0.0
11
165.0000
21
353.3667
31
0.0
0
LINE
8
CONC
10
165.0000
20
353.3667
30
0.0
11
165.0000
21
333.3667
31
0.0
0
LINE
8
CONC-HIDDEN
10
205.0000
20
303.3667
30
0.0
11
255.0000
21
303.3667
31
0.0
0
LINE
8
CONC-HIDDEN
10
255.0000
20
303.3667
30
0.0
11
255.0000
21
353.3667
31
0.0
0
LINE
8
CONC-HIDDEN
10
255.0000
20
353.3667
30
0.0
11
205.0000
21
353.3667
31
0.0
0
LINE
8
CONC-HIDDEN
10
205.0000
20
353.3667
30
0.0
11
205.0000
21
303.3667
31
0.0
0
LINE
8
CONC
10
195.0000
20
290.0333
30
0.0
11
265.0000
21
290.0333
31
0.0
0
LINE
8
CONC
10
265.0000
20
290.0333
30
0.0
11
265.0000
21
303.3667
31
0.0
0
LINE
8
CONC
10
265.0000
20
303.3667
30
0.0
11
195.0000
21
303.3667
31
0.0
0
LINE
8
CONC
10
195.0000
20
303.3667
30
0.0
11
195.0000
21
290.0333
31
0.0
0
LINE
8
CONC
10
195.0000
20
290.0333
30
0.0
11
205.0000
21
290.0333
31
0.0
0
LINE
8
CONC
10
205.0000
20
290.0333
30
0.0
11
205.0000
21
353.3667
31
0.0
0
LINE
8
CONC
10
205.0000
20
353.3667
30
0.0
11
195.0000
21
353.3667
31
0.0
0
LINE
8
CONC
10
195.0000
20
353.3667
30
0.0
11
195.0000
21
290.0333
31
0.0
0
LINE
8
CONC
10
255.0000
20
290.0333
30
0.0
11
265.0000
21
290.0333
31
0.0
0
LINE
8
CONC
10
265.0000
20
290.0333
30
0.0
11
265.0000
21
353.3667
31
0.0
0
LINE
8
CONC
10
265.0000
20
353.3667
30
0.0
11
255.0000
21
353.3667
31
0.0
0
LINE
8
CONC
10
255.0000
20
353.3667
30
0.0
11
255.0000
21
290.0333
31
0.0
0
LINE
8
SOIL
10
295.0000
20
281.4779
30
0.0
11
291.8887
21
278.3667
31
0.0
0
LINE
8
SOIL
10
295.0000
20
284.5892
30
0.0
11
288.7775
21
278.3667
31
0.0
0
LINE
8
SOIL
10
295.0000
20
287.7005
30
0.0
11
285.6662
21
278.3667
31
0.0
0
LINE
8
SOIL
10
282.5549
20
278.3667
30
0.0
11
294.2216
21
290.0333
31
0.0
0
LINE
8
SOIL
10
279.4437
20
278.3667
30
0.0
11
291.1103
21
290.0333
31
0.0
0
LINE
8
SOIL
10
276.3324
20
278.3667
30
0.0
11
287.9990
21
290.0333
31
0.0
0
LINE
8
SOIL
10
273.2211
20
278.3667
30
0.0
11
284.8878
21
290.0333
31
0.0
0
LINE
8
SOIL
10
270.1098
20
278.3667
30
0.0
11
281.7765
21
290.0333
31
0.0
0
LINE
8
SOIL
10
266.9986
20
278.3667
30
0.0
11
278.6652
21
290.0333
31
0.0
0
LINE
8
SOIL
10
263.8873
20
278.3667
30
0.0
11
275.5540
21
290.0333
31
0.0
0
LINE
8
SOIL
10
260.7760
20
278.3667
30
0.0
11
272.4427
21
290.0333
31
0.0
0
LINE
8
SOIL
10
257.6648
20
278.3667
30
0.0
11
269.3314
21
290.0333
31
0.0
0
LINE
8
SOIL
10
254.5535
20
278.3667
30
0.0
11
266.2202
21
290.0333
31
0.0
0
LINE
8
SOIL
10
251.4422
20
278.3667
30
0.0
11
263.1089
21
290.0333
31
0.0
0
LINE
8
SOIL
10
248.3310
20
278.3667
30
0.0
11
259.9976
21
290.0333
31
0.0
0
LINE
8
SOIL
10
245.2197
20
278.3667
30
0.0
11
256.8863
21
290.0333
31
0.0
0
LINE
8
SOIL
10
242.1084
20
278.3667
30
0.0
11
253.7751
21
290.0333
31
0.0
0
LINE
8
SOIL
10
238.9971
20
278.3667
30
0.0
11
250.6638
21
290.0333
31
0.0
0
LINE
8
SOIL
10
235.8859
20
278.3667
30
0.0
11
247.5525
21
290.0333
31
0.0
0
LINE
8
SOIL
10
232.7746
20
278.3667
30
0.0
11
244.4413
21
290.0333
31
0.0
0
LINE
8
SOIL
10
229.6633
20
278.3667
30
0.0
11
241.3300
21
290.0333
31
0.0
0
LINE
8
SOIL
10
226.5521
20
278.3667
30
0.0
11
238.2187
21
290.0333
31
0.0
0
LINE
8
SOIL
10
223.4408
20
278.3667
30
0.0
11
235.1075
21
290.0333
31
0.0
0
LINE
8
SOIL
10
220.3295
20
278.3667
30
0.0
11
231.9962
21
290.0333
31
0.0
0
LINE
8
SOIL
10
217.2183
20
278.3667
30
0.0
11
228.8849
21
290.0333
31
0.0
0
LINE
8
SOIL
10
214.1070
20
278.3667
30
0.0
11
225.7737
21
290.0333
31
0.0
0
LINE
8
SOIL
10
210.9957
20
278.3667
30
0.0
11
222.6624
21
290.0333
31
0.0
0
LINE
8
SOIL
10
207.8844
20
278.3667
30
0.0
11
219.5511
21
290.0333
31
0.0
0
LINE
8
SOIL
10
204.7732
20
278.3667
30
0.0
11
216.4398
21
290.0333
31
0.0
0
LINE
8
SOIL
10
201.6619
20
278.3667
30
0.0
11
213.3286
21
290.0333
31
0.0
0
LINE
8
SOIL
10
198.5506
20
278.3667
30
0.0
11
210.2173
21
290.0333
31
0.0
0
LINE
8
SOIL
10
195.4394
20
278.3667
30
0.0
11
207.1060
21
290.0333
31
0.0
0
LINE
8
SOIL
10
192.3281
20
278.3667
30
0.0
11
203.9948
21
290.0333
31
0.0
0
LINE
8
SOIL
10
189.2168
20
278.3667
30
0.0
11
200.8835
21
290.0333
31
0.0
0
LINE
8
SOIL
10
186.1056
20
278.3667
30
0.0
11
197.7722
21
290.0333
31
0.0
0
LINE
8
SOIL
10
182.9943
20
278.3667
30
0.0
11
194.6610
21
290.0333
31
0.0
0
LINE
8
SOIL
10
179.8830
20
278.3667
30
0.0
11
191.5497
21
290.0333
31
0.0
0
LINE
8
SOIL
10
176.7717
20
278.3667
30
0.0
11
188.4384
21
290.0333
31
0.0
0
LINE
8
SOIL
10
173.6605
20
278.3667
30
0.0
11
185.3271
21
290.0333
31
0.0
0
LINE
8
SOIL
10
170.5492
20
278.3667
30
0.0
11
182.2159
21
290.0333
31
0.0
0
LINE
8
SOIL
10
167.4379
20
278.3667
30
0.0
11
179.1046
21
290.0333
31
0.0
0
LINE
8
SOIL
10
164.3267
20
278.3667
30
0.0
11
175.9933
21
290.0333
31
0.0
0
LINE
8
SOIL
10
161.2154
20
278.3667
30
0.0
11
172.8821
21
290.0333
31
0.0
0
LINE
8
SOIL
10
158.1041
20
278.3667
30
0.0
11
169.7708
21
290.0333
31
0.0
0
LINE
8
SOIL
10
155.0000
20
278.3738
30
0.0
11
166.6595
21
290.0333
31
0.0
0
LINE
8
SOIL
10
155.0000
20
281.4851
30
0.0
11
163.5483
21
290.0333
31
0.0
0
LINE
8
SOIL
10
155.0000
20
284.5963
30
0.0
11
160.4370
21
290.0333
31
0.0
0
LINE
8
SOIL
10
155.0000
20
287.7076
30
0.0
11
157.3257
21
290.0333
31
0.0
0
LINE
8
SERVICES
10
210.6667
20
305.0333
30
0.0
11
222.6667
21
305.0333
31
0.0
0
LINE
8
SERVICES
10
222.6667
20
305.0333
30
0.0
11
222.6667
21
323.3667
31
0.0
0
LINE
8
SERVICES
10
222.6667
20
323.3667
30
0.0
11
210.6667
21
323.3667
31
0.0
0
LINE
8
SERVICES
10
210.6667
20
323.3667
30
0.0
11
210.6667
21
305.0333
31
0.0
0
LINE
8
SERVICES
10
216.6667
20
323.3667
30
0.0
11
216.6667
21
363.3667
31
0.0
0
LINE
8
SERVICES
10
237.3333
20
305.0333
30
0.0
11
249.3333
21
305.0333
31
0.0
0
LINE
8
SERVICES
10
249.3333
20
305.0333
30
0.0
11
249.3333
21
323.3667
31
0.0
0
LINE
8
SERVICES
10
249.3333
20
323.3667
30
0.0
11
237.3333
21
323.3667
31
0.0
0
LINE
8
SERVICES
10
237.3333
20
323.3667
30
0.0
11
237.3333
21
305.0333
31
0.0
0
LINE
8
SERVICES
10
243.3333
20
323.3667
30
0.0
11
243.3333
21
363.3667
31
0.0
0
LINE
8
SERVICES
10
216.6667
20
363.3667
30
0.0
11
295.0000
21
363.3667
31
0.0
0
LINE
8
WATERPROOF
10
165.0000
20
326.7000
30
0.0
11
166.4000
21
326.7000
31
0.0
0
LINE
8
WATERPROOF
10
167.4000
20
326.7000
30
0.0
11
168.8000
21
326.7000
31
0.0
0
LINE
8
WATERPROOF
10
169.8000
20
326.7000
30
0.0
11
171.2000
21
326.7000
31
0.0
0
LINE
8
WATERPROOF
10
172.2000
20
326.7000
30
0.0
11
173.6000
21
326.7000
31
0.0
0
LINE
8
WATERPROOF
10
174.6000
20
326.7000
30
0.0
11
176.0000
21
326.7000
31
0.0
0
LINE
8
WATERPROOF
10
177.0000
20
326.7000
30
0.0
11
178.4000
21
326.7000
31
0.0
0
LINE
8
WATERPROOF
10
179.4000
20
326.7000
30
0.0
11
180.8000
21
326.7000
31
0.0
0
LINE
8
WATERPROOF
10
181.8000
20
326.7000
30
0.0
11
183.2000
21
326.7000
31
0.0
0
LINE
8
WATERPROOF
10
184.2000
20
326.7000
30
0.0
11
185.6000
21
326.7000
31
0.0
0
LINE
8
WATERPROOF
10
186.6000
20
326.7000
30
0.0
11
188.0000
21
326.7000
31
0.0
0
LINE
8
WATERPROOF
10
189.0000
20
326.7000
30
0.0
11
190.4000
21
326.7000
31
0.0
0
LINE
8
WATERPROOF
10
191.4000
20
326.7000
30
0.0
11
192.8000
21
326.7000
31
0.0
0
LINE
8
WATERPROOF
10
193.8000
20
326.7000
30
0.0
11
195.2000
21
326.7000
31
0.0
0
LINE
8
WATERPROOF
10
196.2000
20
326.7000
30
0.0
11
197.6000
21
326.7000
31
0.0
0
LINE
8
WATERPROOF
10
198.6000
20
326.7000
30
0.0
11
200.0000
21
326.7000
31
0.0
0
LINE
8
WATERPROOF
10
201.0000
20
326.7000
30
0.0
11
202.4000
21
326.7000
31
0.0
0
LINE
8
WATERPROOF
10
203.4000
20
326.7000
30
0.0
11
204.8000
21
326.7000
31
0.0
0
LINE
8
WATERPROOF
10
205.8000
20
326.7000
30
0.0
11
207.2000
21
326.7000
31
0.0
0
LINE
8
WATERPROOF
10
208.2000
20
326.7000
30
0.0
11
209.6000
21
326.7000
31
0.0
0
LINE
8
WATERPROOF
10
210.6000
20
326.7000
30
0.0
11
212.0000
21
326.7000
31
0.0
0
LINE
8
WATERPROOF
10
213.0000
20
326.7000
30
0.0
11
214.4000
21
326.7000
31
0.0
0
LINE
8
WATERPROOF
10
215.4000
20
326.7000
30
0.0
11
216.8000
21
326.7000
31
0.0
0
LINE
8
WATERPROOF
10
217.8000
20
326.7000
30
0.0
11
219.2000
21
326.7000
31
0.0
0
LINE
8
WATERPROOF
10
220.2000
20
326.7000
30
0.0
11
221.6000
21
326.7000
31
0.0
0
LINE
8
WATERPROOF
10
222.6000
20
326.7000
30
0.0
11
224.0000
21
326.7000
31
0.0
0
LINE
8
WATERPROOF
10
225.0000
20
326.7000
30
0.0
11
226.4000
21
326.7000
31
0.0
0
LINE
8
WATERPROOF
10
227.4000
20
326.7000
30
0.0
11
228.8000
21
326.7000
31
0.0
0
LINE
8
WATERPROOF
10
229.8000
20
326.7000
30
0.0
11
231.2000
21
326.7000
31
0.0
0
LINE
8
WATERPROOF
10
232.2000
20
326.7000
30
0.0
11
233.6000
21
326.7000
31
0.0
0
LINE
8
WATERPROOF
10
234.6000
20
326.7000
30
0.0
11
236.0000
21
326.7000
31
0.0
0
LINE
8
WATERPROOF
10
237.0000
20
326.7000
30
0.0
11
238.4000
21
326.7000
31
0.0
0
LINE
8
WATERPROOF
10
239.4000
20
326.7000
30
0.0
11
240.8000
21
326.7000
31
0.0
0
LINE
8
WATERPROOF
10
241.8000
20
326.7000
30
0.0
11
243.2000
21
326.7000
31
0.0
0
LINE
8
WATERPROOF
10
244.2000
20
326.7000
30
0.0
11
245.6000
21
326.7000
31
0.0
0
LINE
8
WATERPROOF
10
246.6000
20
326.7000
30
0.0
11
248.0000
21
326.7000
31
0.0
0
LINE
8
WATERPROOF
10
249.0000
20
326.7000
30
0.0
11
250.4000
21
326.7000
31
0.0
0
LINE
8
WATERPROOF
10
251.4000
20
326.7000
30
0.0
11
252.8000
21
326.7000
31
0.0
0
LINE
8
WATERPROOF
10
253.8000
20
326.7000
30
0.0
11
255.2000
21
326.7000
31
0.0
0
LINE
8
WATERPROOF
10
256.2000
20
326.7000
30
0.0
11
257.6000
21
326.7000
31
0.0
0
LINE
8
WATERPROOF
10
258.6000
20
326.7000
30
0.0
11
260.0000
21
326.7000
31
0.0
0
LINE
8
WATERPROOF
10
261.0000
20
326.7000
30
0.0
11
262.4000
21
326.7000
31
0.0
0
LINE
8
WATERPROOF
10
263.4000
20
326.7000
30
0.0
11
264.8000
21
326.7000
31
0.0
0
LINE
8
LEVELS
10
295.0000
20
353.3667
30
0.0
11
293.4000
21
354.9667
31
0.0
0
LINE
8
LEVELS
10
295.0000
20
353.3667
30
0.0
11
296.6000
21
354.9667
31
0.0
0
LINE
8
LEVELS
10
293.4000
20
354.9667
30
0.0
11
296.6000
21
354.9667
31
0.0
0
TEXT
8
LEVELS
10
297.6000
20
353.9267
30
0.0
40
1.4000
1
(-)6.100 FLOOR
50
0.0000
72
0
73
1
11
297.6000
21
353.9267
31
0.0
0
LINE
8
LEVELS
10
295.0000
20
303.3667
30
0.0
11
293.4000
21
304.9667
31
0.0
0
LINE
8
LEVELS
10
295.0000
20
303.3667
30
0.0
11
296.6000
21
304.9667
31
0.0
0
LINE
8
LEVELS
10
293.4000
20
304.9667
30
0.0
11
296.6000
21
304.9667
31
0.0
0
TEXT
8
LEVELS
10
297.6000
20
303.9267
30
0.0
40
1.4000
1
(-)7.600 INVERT
50
0.0000
72
0
73
1
11
297.6000
21
303.9267
31
0.0
0
LINE
8
LEVELS
10
295.0000
20
290.0333
30
0.0
11
293.4000
21
291.6333
31
0.0
0
LINE
8
LEVELS
10
295.0000
20
290.0333
30
0.0
11
296.6000
21
291.6333
31
0.0
0
LINE
8
LEVELS
10
293.4000
20
291.6333
30
0.0
11
296.6000
21
291.6333
31
0.0
0
TEXT
8
LEVELS
10
297.6000
20
290.5933
30
0.0
40
1.4000
1
(-)8.000
50
0.0000
72
0
73
1
11
297.6000
21
290.5933
31
0.0
0
LINE
8
DIM
10
205.0000
20
270.0333
30
0.0
11
255.0000
21
270.0333
31
0.0
0
LINE
8
DIM
10
204.2222
20
269.2555
30
0.0
11
205.7778
21
270.8112
31
0.0
0
LINE
8
DIM
10
254.2222
20
269.2555
30
0.0
11
255.7778
21
270.8112
31
0.0
0
TEXT
8
DIM
10
230.0000
20
270.8433
30
0.0
40
1.8000
1
1500
50
0.0000
72
1
73
1
11
230.0000
21
270.8433
31
0.0
0
TEXT
8
TEXT
10
178.0000
20
258.0000
30
0.0
40
1.4500
1
2 No. SUBMERSIBLE PUMPS 1.5 l/s, DUTY / STANDBY,
50
0.0000
72
0
73
3
11
178.0000
21
258.0000
31
0.0
0
TEXT
8
TEXT
10
178.0000
20
254.5000
30
0.0
40
1.4500
1
AUTO-ALTERNATING + HAND PUMP.  START +900,
50
0.0000
72
0
73
3
11
178.0000
21
254.5000
31
0.0
0
TEXT
8
TEXT
10
178.0000
20
251.0000
30
0.0
40
1.4500
1
STOP +300, HIGH ALARM +1200 ABOVE THE INVERT.
50
0.0000
72
0
73
3
11
178.0000
21
251.0000
31
0.0
0
TEXT
8
TEXT
10
178.0000
20
247.5000
30
0.0
40
1.4500
1
PIT WALLS / BASE 300 THK, T16 @ 150 EF EW,
50
0.0000
72
0
73
3
11
178.0000
21
247.5000
31
0.0
0
TEXT
8
TEXT
10
178.0000
20
244.0000
30
0.0
40
1.4500
1
CAST MONOLITHIC WITH THE MAT.  MEMBRANE DRESSED
50
0.0000
72
0
73
3
11
178.0000
21
244.0000
31
0.0
0
TEXT
8
TEXT
10
178.0000
20
240.5000
30
0.0
40
1.4500
1
AROUND THE PIT.  4-T20 TRIMMERS EACH FACE/SIDE.
50
0.0000
72
0
73
3
11
178.0000
21
240.5000
31
0.0
0
TEXT
8
TEXT-TITLE
10
320.0000
20
380.0000
30
0.0
40
3.4000
1
V4  SEPTIC TANK AND SOAK PIT
50
0.0000
72
0
73
3
11
320.0000
21
380.0000
31
0.0
0
LINE
8
TEXT-TITLE
10
320.0000
20
375.2000
30
0.0
11
377.6000
21
375.2000
31
0.0
0
TEXT
8
TEXT-TITLE
10
320.0000
20
373.8000
30
0.0
40
2.0000
1
SCALE 1:40   IS 2470 (PARTS 1 AND 2):1985
50
0.0000
72
0
73
3
11
320.0000
21
373.8000
31
0.0
0
LINE
8
CONC
10
340.0000
20
300.0000
30
0.0
11
385.0000
21
300.0000
31
0.0
0
LINE
8
CONC
10
385.0000
20
300.0000
30
0.0
11
385.0000
21
340.0000
31
0.0
0
LINE
8
CONC
10
385.0000
20
340.0000
30
0.0
11
340.0000
21
340.0000
31
0.0
0
LINE
8
CONC
10
340.0000
20
340.0000
30
0.0
11
340.0000
21
300.0000
31
0.0
0
LINE
8
CONC-HIDDEN
10
343.7500
20
303.7500
30
0.0
11
381.2500
21
303.7500
31
0.0
0
LINE
8
CONC-HIDDEN
10
381.2500
20
303.7500
30
0.0
11
381.2500
21
336.2500
31
0.0
0
LINE
8
CONC-HIDDEN
10
381.2500
20
336.2500
30
0.0
11
343.7500
21
336.2500
31
0.0
0
LINE
8
CONC-HIDDEN
10
343.7500
20
336.2500
30
0.0
11
343.7500
21
303.7500
31
0.0
0
LINE
8
CONC
10
368.7500
20
303.7500
30
0.0
11
368.7500
21
328.7500
31
0.0
0
LINE
8
WATERPROOF
10
343.7500
20
328.7500
30
0.0
11
381.2500
21
328.7500
31
0.0
0
TEXT
8
WATERPROOF
10
362.5000
20
331.2500
30
0.0
40
1.3500
1
LIQUID LEVEL
50
0.0000
72
1
73
2
11
362.5000
21
331.2500
31
0.0
0
LINE
8
SERVICES
10
327.5000
20
331.2500
30
0.0
11
347.5000
21
331.2500
31
0.0
0
LINE
8
SERVICES
10
377.5000
20
331.2500
30
0.0
11
397.5000
21
331.2500
31
0.0
0
TEXT
8
TEXT
10
327.5000
20
336.2500
30
0.0
40
1.3500
1
IN
50
0.0000
72
0
73
2
11
327.5000
21
336.2500
31
0.0
0
TEXT
8
TEXT
10
397.5000
20
336.2500
30
0.0
40
1.3500
1
OUT
50
0.0000
72
2
73
2
11
397.5000
21
336.2500
31
0.0
0
LINE
8
SERVICES
10
355.0000
20
340.0000
30
0.0
11
355.0000
21
365.0000
31
0.0
0
TEXT
8
TEXT
10
357.5000
20
360.0000
30
0.0
40
1.3000
1
50 VENT, COWLED
50
0.0000
72
0
73
2
11
357.5000
21
360.0000
31
0.0
0
LINE
8
DIM
10
320.0000
20
303.7500
30
0.0
11
320.0000
21
328.7500
31
0.0
0
LINE
8
DIM
10
319.2222
20
302.9722
30
0.0
11
320.7778
21
304.5278
31
0.0
0
LINE
8
DIM
10
319.2222
20
327.9722
30
0.0
11
320.7778
21
329.5278
31
0.0
0
TEXT
8
DIM
10
319.1900
20
316.2500
30
0.0
40
1.8000
1
1000
50
90.0000
72
1
73
1
11
319.1900
21
316.2500
31
0.0
0
LINE
8
DIM
10
343.7500
20
287.5000
30
0.0
11
381.2500
21
287.5000
31
0.0
0
LINE
8
DIM
10
342.9722
20
286.7222
30
0.0
11
344.5278
21
288.2778
31
0.0
0
LINE
8
DIM
10
380.4722
20
286.7222
30
0.0
11
382.0278
21
288.2778
31
0.0
0
TEXT
8
DIM
10
362.5000
20
288.3100
30
0.0
40
1.8000
1
1500
50
0.0000
72
1
73
1
11
362.5000
21
288.3100
31
0.0
0
TEXT
8
TEXT-TITLE
10
362.5000
20
272.5000
30
0.0
40
1.4000
1
SECTION - SEPTIC TANK
50
0.0000
72
1
73
2
11
362.5000
21
272.5000
31
0.0
0
LINE
8
CONC
10
430.0000
20
262.5000
30
0.0
11
480.0000
21
262.5000
31
0.0
0
LINE
8
CONC
10
480.0000
20
262.5000
30
0.0
11
480.0000
21
340.0000
31
0.0
0
LINE
8
CONC
10
480.0000
20
340.0000
30
0.0
11
430.0000
21
340.0000
31
0.0
0
LINE
8
CONC
10
430.0000
20
340.0000
30
0.0
11
430.0000
21
262.5000
31
0.0
0
LINE
8
SOIL
10
480.0000
20
265.3284
30
0.0
11
477.1716
21
262.5000
31
0.0
0
LINE
8
SOIL
10
480.0000
20
268.1569
30
0.0
11
474.3431
21
262.5000
31
0.0
0
LINE
8
SOIL
10
480.0000
20
270.9853
30
0.0
11
471.5147
21
262.5000
31
0.0
0
LINE
8
SOIL
10
480.0000
20
273.8137
30
0.0
11
468.6863
21
262.5000
31
0.0
0
LINE
8
SOIL
10
480.0000
20
276.6421
30
0.0
11
465.8579
21
262.5000
31
0.0
0
LINE
8
SOIL
10
480.0000
20
279.4706
30
0.0
11
463.0294
21
262.5000
31
0.0
0
LINE
8
SOIL
10
480.0000
20
282.2990
30
0.0
11
460.2010
21
262.5000
31
0.0
0
LINE
8
SOIL
10
480.0000
20
285.1274
30
0.0
11
457.3726
21
262.5000
31
0.0
0
LINE
8
SOIL
10
480.0000
20
287.9558
30
0.0
11
454.5442
21
262.5000
31
0.0
0
LINE
8
SOIL
10
480.0000
20
290.7843
30
0.0
11
451.7157
21
262.5000
31
0.0
0
LINE
8
SOIL
10
480.0000
20
293.6127
30
0.0
11
448.8873
21
262.5000
31
0.0
0
LINE
8
SOIL
10
480.0000
20
296.4411
30
0.0
11
446.0589
21
262.5000
31
0.0
0
LINE
8
SOIL
10
480.0000
20
299.2696
30
0.0
11
443.2304
21
262.5000
31
0.0
0
LINE
8
SOIL
10
480.0000
20
302.0980
30
0.0
11
440.4020
21
262.5000
31
0.0
0
LINE
8
SOIL
10
480.0000
20
304.9264
30
0.0
11
437.5736
21
262.5000
31
0.0
0
LINE
8
SOIL
10
480.0000
20
307.7548
30
0.0
11
434.7452
21
262.5000
31
0.0
0
LINE
8
SOIL
10
480.0000
20
310.5833
30
0.0
11
431.9167
21
262.5000
31
0.0
0
LINE
8
SOIL
10
430.0000
20
263.4117
30
0.0
11
480.0000
21
313.4117
31
0.0
0
LINE
8
SOIL
10
430.0000
20
266.2401
30
0.0
11
480.0000
21
316.2401
31
0.0
0
LINE
8
SOIL
10
430.0000
20
269.0685
30
0.0
11
480.0000
21
319.0685
31
0.0
0
LINE
8
SOIL
10
430.0000
20
271.8970
30
0.0
11
480.0000
21
321.8970
31
0.0
0
LINE
8
SOIL
10
430.0000
20
274.7254
30
0.0
11
480.0000
21
324.7254
31
0.0
0
LINE
8
SOIL
10
430.0000
20
277.5538
30
0.0
11
480.0000
21
327.5538
31
0.0
0
LINE
8
SOIL
10
430.0000
20
280.3823
30
0.0
11
480.0000
21
330.3823
31
0.0
0
LINE
8
SOIL
10
430.0000
20
283.2107
30
0.0
11
480.0000
21
333.2107
31
0.0
0
LINE
8
SOIL
10
430.0000
20
286.0391
30
0.0
11
480.0000
21
336.0391
31
0.0
0
LINE
8
SOIL
10
430.0000
20
288.8675
30
0.0
11
477.3825
21
336.2500
31
0.0
0
LINE
8
SOIL
10
430.0000
20
291.6960
30
0.0
11
474.5540
21
336.2500
31
0.0
0
LINE
8
SOIL
10
430.0000
20
294.5244
30
0.0
11
471.7256
21
336.2500
31
0.0
0
LINE
8
SOIL
10
430.0000
20
297.3528
30
0.0
11
468.8972
21
336.2500
31
0.0
0
LINE
8
SOIL
10
430.0000
20
300.1812
30
0.0
11
466.0688
21
336.2500
31
0.0
0
LINE
8
SOIL
10
430.0000
20
303.0097
30
0.0
11
463.2403
21
336.2500
31
0.0
0
LINE
8
SOIL
10
430.0000
20
305.8381
30
0.0
11
460.4119
21
336.2500
31
0.0
0
LINE
8
SOIL
10
430.0000
20
308.6665
30
0.0
11
457.5835
21
336.2500
31
0.0
0
LINE
8
SOIL
10
430.0000
20
311.4949
30
0.0
11
454.7551
21
336.2500
31
0.0
0
LINE
8
SOIL
10
430.0000
20
314.3234
30
0.0
11
451.9266
21
336.2500
31
0.0
0
LINE
8
SOIL
10
430.0000
20
317.1518
30
0.0
11
449.0982
21
336.2500
31
0.0
0
LINE
8
SOIL
10
430.0000
20
319.9802
30
0.0
11
446.2698
21
336.2500
31
0.0
0
LINE
8
SOIL
10
430.0000
20
322.8087
30
0.0
11
443.4413
21
336.2500
31
0.0
0
LINE
8
SOIL
10
430.0000
20
325.6371
30
0.0
11
440.6129
21
336.2500
31
0.0
0
LINE
8
SOIL
10
430.0000
20
328.4655
30
0.0
11
437.7845
21
336.2500
31
0.0
0
LINE
8
SOIL
10
430.0000
20
331.2939
30
0.0
11
434.9561
21
336.2500
31
0.0
0
LINE
8
SOIL
10
430.0000
20
334.1224
30
0.0
11
432.1276
21
336.2500
31
0.0
0
LINE
8
SOIL
10
430.0000
20
312.5000
30
0.0
11
480.0000
21
262.5000
31
0.0
0
LINE
8
SOIL
10
430.0000
20
309.6716
30
0.0
11
477.1716
21
262.5000
31
0.0
0
LINE
8
SOIL
10
430.0000
20
306.8431
30
0.0
11
474.3431
21
262.5000
31
0.0
0
LINE
8
SOIL
10
430.0000
20
304.0147
30
0.0
11
471.5147
21
262.5000
31
0.0
0
LINE
8
SOIL
10
430.0000
20
301.1863
30
0.0
11
468.6863
21
262.5000
31
0.0
0
LINE
8
SOIL
10
430.0000
20
298.3579
30
0.0
11
465.8579
21
262.5000
31
0.0
0
LINE
8
SOIL
10
430.0000
20
295.5294
30
0.0
11
463.0294
21
262.5000
31
0.0
0
LINE
8
SOIL
10
430.0000
20
292.7010
30
0.0
11
460.2010
21
262.5000
31
0.0
0
LINE
8
SOIL
10
430.0000
20
289.8726
30
0.0
11
457.3726
21
262.5000
31
0.0
0
LINE
8
SOIL
10
430.0000
20
287.0442
30
0.0
11
454.5442
21
262.5000
31
0.0
0
LINE
8
SOIL
10
430.0000
20
284.2157
30
0.0
11
451.7157
21
262.5000
31
0.0
0
LINE
8
SOIL
10
430.0000
20
281.3873
30
0.0
11
448.8873
21
262.5000
31
0.0
0
LINE
8
SOIL
10
430.0000
20
278.5589
30
0.0
11
446.0589
21
262.5000
31
0.0
0
LINE
8
SOIL
10
430.0000
20
275.7304
30
0.0
11
443.2304
21
262.5000
31
0.0
0
LINE
8
SOIL
10
430.0000
20
272.9020
30
0.0
11
440.4020
21
262.5000
31
0.0
0
LINE
8
SOIL
10
430.0000
20
270.0736
30
0.0
11
437.5736
21
262.5000
31
0.0
0
LINE
8
SOIL
10
430.0000
20
267.2452
30
0.0
11
434.7452
21
262.5000
31
0.0
0
LINE
8
SOIL
10
430.0000
20
264.4167
30
0.0
11
431.9167
21
262.5000
31
0.0
0
LINE
8
CONC
10
430.0000
20
336.2500
30
0.0
11
480.0000
21
336.2500
31
0.0
0
LINE
8
CONC
10
480.0000
20
336.2500
30
0.0
11
480.0000
21
340.0000
31
0.0
0
LINE
8
CONC
10
480.0000
20
340.0000
30
0.0
11
430.0000
21
340.0000
31
0.0
0
LINE
8
CONC
10
430.0000
20
340.0000
30
0.0
11
430.0000
21
336.2500
31
0.0
0
LINE
8
SERVICES
10
455.0000
20
340.0000
30
0.0
11
455.0000
21
355.0000
31
0.0
0
LINE
8
SERVICES
10
397.5000
20
355.0000
30
0.0
11
455.0000
21
355.0000
31
0.0
0
LINE
8
DIM
10
492.5000
20
262.5000
30
0.0
11
492.5000
21
336.2500
31
0.0
0
LINE
8
DIM
10
491.7222
20
261.7222
30
0.0
11
493.2778
21
263.2778
31
0.0
0
LINE
8
DIM
10
491.7222
20
335.4722
30
0.0
11
493.2778
21
337.0278
31
0.0
0
TEXT
8
DIM
10
491.6900
20
299.3750
30
0.0
40
1.8000
1
3500 EFFECTIVE
50
90.0000
72
1
73
1
11
491.6900
21
299.3750
31
0.0
0
LINE
8
DIM
10
430.0000
20
247.5000
30
0.0
11
480.0000
21
247.5000
31
0.0
0
LINE
8
DIM
10
429.2222
20
246.7222
30
0.0
11
430.7778
21
248.2778
31
0.0
0
LINE
8
DIM
10
479.2222
20
246.7222
30
0.0
11
480.7778
21
248.2778
31
0.0
0
TEXT
8
DIM
10
455.0000
20
248.3100
30
0.0
40
1.8000
1
2000 DIA
50
0.0000
72
1
73
1
11
455.0000
21
248.3100
31
0.0
0
TEXT
8
TEXT-TITLE
10
455.0000
20
232.5000
30
0.0
40
1.4000
1
SOAK PIT
50
0.0000
72
1
73
2
11
455.0000
21
232.5000
31
0.0
0
TEXT
8
TEXT
10
320.0000
20
224.0000
30
0.0
40
1.4500
1
PIT FILLED WITH 40-80 mm BRICKBAT / STONE, 300 SAND
50
0.0000
72
0
73
3
11
320.0000
21
224.0000
31
0.0
0
TEXT
8
TEXT
10
320.0000
20
220.5000
30
0.0
40
1.4500
1
AT THE TOP, RC COVER SLAB.  SIDE AREA ONLY IS COUNTED
50
0.0000
72
0
73
3
11
320.0000
21
220.5000
31
0.0
0
TEXT
8
TEXT
10
320.0000
20
217.0000
30
0.0
40
1.4500
1
AS ABSORBING - THE BASE CLOGS.  >= 15 m FROM ANY WELL,
50
0.0000
72
0
73
3
11
320.0000
21
217.0000
31
0.0
0
TEXT
8
TEXT
10
320.0000
20
213.5000
30
0.0
40
1.4500
1
>= 5 m FROM THE SEPTIC TANK, >= 2 m FROM ANY BUILDING.
50
0.0000
72
0
73
3
11
320.0000
21
213.5000
31
0.0
0
TEXT
8
TEXT-TITLE
10
25.0000
20
246.0000
30
0.0
40
3.4000
1
V5  NBC FILTER TRAIN AND BLAST-VALVE ASSEMBLY
50
0.0000
72
0
73
3
11
25.0000
21
246.0000
31
0.0
0
LINE
8
TEXT-TITLE
10
25.0000
20
241.2000
30
0.0
11
115.7500
21
241.2000
31
0.0
0
TEXT
8
TEXT-TITLE
10
25.0000
20
239.8000
30
0.0
40
2.0000
1
SCALE 1:0   ONE OF TWO IDENTICAL TRAINS, EACH 300 m3/h (TRUE N+1)
50
0.0000
72
0
73
3
11
25.0000
21
239.8000
31
0.0
0
LINE
8
SERVICES
10
30.0000
20
175.0000
30
0.0
11
91.0000
21
175.0000
31
0.0
0
LINE
8
SERVICES
10
91.0000
20
175.0000
30
0.0
11
91.0000
21
201.0000
31
0.0
0
LINE
8
SERVICES
10
91.0000
20
201.0000
30
0.0
11
30.0000
21
201.0000
31
0.0
0
LINE
8
SERVICES
10
30.0000
20
201.0000
30
0.0
11
30.0000
21
175.0000
31
0.0
0
TEXT
8
TEXT-TITLE
10
60.5000
20
195.0000
30
0.0
40
2.0000
1
WEATHER LOUVRE
50
0.0000
72
1
73
2
11
60.5000
21
195.0000
31
0.0
0
TEXT
8
TEXT
10
60.5000
20
188.0000
30
0.0
40
1.5000
1
SAND +
50
0.0000
72
1
73
2
11
60.5000
21
188.0000
31
0.0
0
TEXT
8
TEXT
10
60.5000
20
184.0000
30
0.0
40
1.5000
1
DEBRIS TRAP
50
0.0000
72
1
73
2
11
60.5000
21
184.0000
31
0.0
0
LINE
8
SERVICES
10
91.0000
20
188.0000
30
0.0
11
99.0000
21
188.0000
31
0.0
0
LINE
8
SERVICES
10
99.0000
20
188.0000
30
0.0
11
95.0000
21
190.0000
31
0.0
0
LINE
8
SERVICES
10
99.0000
20
188.0000
30
0.0
11
95.0000
21
186.0000
31
0.0
0
LINE
8
BLAST
10
99.0000
20
175.0000
30
0.0
11
160.0000
21
175.0000
31
0.0
0
LINE
8
BLAST
10
160.0000
20
175.0000
30
0.0
11
160.0000
21
201.0000
31
0.0
0
LINE
8
BLAST
10
160.0000
20
201.0000
30
0.0
11
99.0000
21
201.0000
31
0.0
0
LINE
8
BLAST
10
99.0000
20
201.0000
30
0.0
11
99.0000
21
175.0000
31
0.0
0
TEXT
8
TEXT-TITLE
10
129.5000
20
195.0000
30
0.0
40
2.0000
1
BLAST VALVE
50
0.0000
72
1
73
2
11
129.5000
21
195.0000
31
0.0
0
TEXT
8
TEXT
10
129.5000
20
188.0000
30
0.0
40
1.5000
1
< 2 ms CLOSE
50
0.0000
72
1
73
2
11
129.5000
21
188.0000
31
0.0
0
TEXT
8
TEXT
10
129.5000
20
184.0000
30
0.0
40
1.5000
1
HOLDS 1.3 s
50
0.0000
72
1
73
2
11
129.5000
21
184.0000
31
0.0
0
LINE
8
SERVICES
10
160.0000
20
188.0000
30
0.0
11
168.0000
21
188.0000
31
0.0
0
LINE
8
SERVICES
10
168.0000
20
188.0000
30
0.0
11
164.0000
21
190.0000
31
0.0
0
LINE
8
SERVICES
10
168.0000
20
188.0000
30
0.0
11
164.0000
21
186.0000
31
0.0
0
LINE
8
SERVICES
10
168.0000
20
175.0000
30
0.0
11
229.0000
21
175.0000
31
0.0
0
LINE
8
SERVICES
10
229.0000
20
175.0000
30
0.0
11
229.0000
21
201.0000
31
0.0
0
LINE
8
SERVICES
10
229.0000
20
201.0000
30
0.0
11
168.0000
21
201.0000
31
0.0
0
LINE
8
SERVICES
10
168.0000
20
201.0000
30
0.0
11
168.0000
21
175.0000
31
0.0
0
TEXT
8
TEXT-TITLE
10
198.5000
20
195.0000
30
0.0
40
2.0000
1
PRE-FILTER
50
0.0000
72
1
73
2
11
198.5000
21
195.0000
31
0.0
0
TEXT
8
TEXT
10
198.5000
20
188.0000
30
0.0
40
1.5000
1
G4 / F7
50
0.0000
72
1
73
2
11
198.5000
21
188.0000
31
0.0
0
LINE
8
SERVICES
10
229.0000
20
188.0000
30
0.0
11
237.0000
21
188.0000
31
0.0
0
LINE
8
SERVICES
10
237.0000
20
188.0000
30
0.0
11
233.0000
21
190.0000
31
0.0
0
LINE
8
SERVICES
10
237.0000
20
188.0000
30
0.0
11
233.0000
21
186.0000
31
0.0
0
LINE
8
SERVICES
10
237.0000
20
175.0000
30
0.0
11
298.0000
21
175.0000
31
0.0
0
LINE
8
SERVICES
10
298.0000
20
175.0000
30
0.0
11
298.0000
21
201.0000
31
0.0
0
LINE
8
SERVICES
10
298.0000
20
201.0000
30
0.0
11
237.0000
21
201.0000
31
0.0
0
LINE
8
SERVICES
10
237.0000
20
201.0000
30
0.0
11
237.0000
21
175.0000
31
0.0
0
TEXT
8
TEXT-TITLE
10
267.5000
20
195.0000
30
0.0
40
2.0000
1
HEPA
50
0.0000
72
1
73
2
11
267.5000
21
195.0000
31
0.0
0
TEXT
8
TEXT
10
267.5000
20
188.0000
30
0.0
40
1.5000
1
EN 1822 H14
50
0.0000
72
1
73
2
11
267.5000
21
188.0000
31
0.0
0
TEXT
8
TEXT
10
267.5000
20
184.0000
30
0.0
40
1.5000
1
99.995 % MPPS
50
0.0000
72
1
73
2
11
267.5000
21
184.0000
31
0.0
0
LINE
8
SERVICES
10
298.0000
20
188.0000
30
0.0
11
306.0000
21
188.0000
31
0.0
0
LINE
8
SERVICES
10
306.0000
20
188.0000
30
0.0
11
302.0000
21
190.0000
31
0.0
0
LINE
8
SERVICES
10
306.0000
20
188.0000
30
0.0
11
302.0000
21
186.0000
31
0.0
0
LINE
8
SERVICES
10
306.0000
20
175.0000
30
0.0
11
367.0000
21
175.0000
31
0.0
0
LINE
8
SERVICES
10
367.0000
20
175.0000
30
0.0
11
367.0000
21
201.0000
31
0.0
0
LINE
8
SERVICES
10
367.0000
20
201.0000
30
0.0
11
306.0000
21
201.0000
31
0.0
0
LINE
8
SERVICES
10
306.0000
20
201.0000
30
0.0
11
306.0000
21
175.0000
31
0.0
0
TEXT
8
TEXT-TITLE
10
336.5000
20
195.0000
30
0.0
40
2.0000
1
CARBON
50
0.0000
72
1
73
2
11
336.5000
21
195.0000
31
0.0
0
TEXT
8
TEXT
10
336.5000
20
188.0000
30
0.0
40
1.5000
1
ASZM-TEDA
50
0.0000
72
1
73
2
11
336.5000
21
188.0000
31
0.0
0
TEXT
8
TEXT
10
336.5000
20
184.0000
30
0.0
40
1.5000
1
300 000 mg.min/m3
50
0.0000
72
1
73
2
11
336.5000
21
184.0000
31
0.0
0
LINE
8
SERVICES
10
367.0000
20
188.0000
30
0.0
11
375.0000
21
188.0000
31
0.0
0
LINE
8
SERVICES
10
375.0000
20
188.0000
30
0.0
11
371.0000
21
190.0000
31
0.0
0
LINE
8
SERVICES
10
375.0000
20
188.0000
30
0.0
11
371.0000
21
186.0000
31
0.0
0
LINE
8
SERVICES
10
375.0000
20
175.0000
30
0.0
11
436.0000
21
175.0000
31
0.0
0
LINE
8
SERVICES
10
436.0000
20
175.0000
30
0.0
11
436.0000
21
201.0000
31
0.0
0
LINE
8
SERVICES
10
436.0000
20
201.0000
30
0.0
11
375.0000
21
201.0000
31
0.0
0
LINE
8
SERVICES
10
375.0000
20
201.0000
30
0.0
11
375.0000
21
175.0000
31
0.0
0
TEXT
8
TEXT-TITLE
10
405.5000
20
195.0000
30
0.0
40
2.0000
1
FAN
50
0.0000
72
1
73
2
11
405.5000
21
195.0000
31
0.0
0
TEXT
8
TEXT
10
405.5000
20
188.0000
30
0.0
40
1.5000
1
+ HAND CRANK
50
0.0000
72
1
73
2
11
405.5000
21
188.0000
31
0.0
0
LINE
8
SERVICES
10
436.0000
20
188.0000
30
0.0
11
444.0000
21
188.0000
31
0.0
0
LINE
8
SERVICES
10
444.0000
20
188.0000
30
0.0
11
440.0000
21
190.0000
31
0.0
0
LINE
8
SERVICES
10
444.0000
20
188.0000
30
0.0
11
440.0000
21
186.0000
31
0.0
0
LINE
8
SERVICES
10
444.0000
20
175.0000
30
0.0
11
505.0000
21
175.0000
31
0.0
0
LINE
8
SERVICES
10
505.0000
20
175.0000
30
0.0
11
505.0000
21
201.0000
31
0.0
0
LINE
8
SERVICES
10
505.0000
20
201.0000
30
0.0
11
444.0000
21
201.0000
31
0.0
0
LINE
8
SERVICES
10
444.0000
20
201.0000
30
0.0
11
444.0000
21
175.0000
31
0.0
0
TEXT
8
TEXT-TITLE
10
474.5000
20
195.0000
30
0.0
40
2.0000
1
PLENUM
50
0.0000
72
1
73
2
11
474.5000
21
195.0000
31
0.0
0
TEXT
8
TEXT
10
474.5000
20
188.0000
30
0.0
40
1.5000
1
+50 to +100 Pa
50
0.0000
72
1
73
2
11
474.5000
21
188.0000
31
0.0
0
TEXT
8
TEXT-TITLE
10
30.0000
20
168.0000
30
0.0
40
1.6000
1
FLOW METER AND DIFFERENTIAL-PRESSURE GAUGE ACROSS EVERY STAGE - THE ONLY WAY TO KNOW A FILTER IS SPENT.
50
0.0000
72
0
73
3
11
30.0000
21
168.0000
31
0.0
0
TEXT
8
TEXT
10
30.0000
20
164.0000
30
0.0
40
1.5500
1
MANUAL QUARTER-TURN GAS-TIGHT DAMPER INBOARD OF EVERY BLAST VALVE, OPERABLE FROM INSIDE WITHOUT TOOLS.
50
0.0000
72
0
73
3
11
30.0000
21
164.0000
31
0.0
0
TEXT
8
TEXT-TITLE
10
25.0000
20
152.0000
30
0.0
40
2.2000
1
BLAST VALVE SCHEDULE
50
0.0000
72
0
73
3
11
25.0000
21
152.0000
31
0.0
0
LINE
8
TABLE
10
25.0000
20
147.0000
30
0.0
11
219.0000
21
147.0000
31
0.0
0
TEXT
8
TABLE
10
26.2000
20
144.8500
30
0.0
40
1.6000
1
TAG
50
0.0000
72
0
73
2
11
26.2000
21
144.8500
31
0.0
0
TEXT
8
TABLE
10
42.2000
20
144.8500
30
0.0
40
1.6000
1
SIZE
50
0.0000
72
0
73
2
11
42.2000
21
144.8500
31
0.0
0
TEXT
8
TABLE
10
62.2000
20
144.8500
30
0.0
40
1.6000
1
SERVES
50
0.0000
72
0
73
2
11
62.2000
21
144.8500
31
0.0
0
TEXT
8
TABLE
10
104.2000
20
144.8500
30
0.0
40
1.6000
1
FLOW m3/h
50
0.0000
72
0
73
2
11
104.2000
21
144.8500
31
0.0
0
TEXT
8
TABLE
10
130.2000
20
144.8500
30
0.0
40
1.6000
1
VELOCITY
50
0.0000
72
0
73
2
11
130.2000
21
144.8500
31
0.0
0
TEXT
8
TABLE
10
156.2000
20
144.8500
30
0.0
40
1.6000
1
DESIGN PRESSURE
50
0.0000
72
0
73
2
11
156.2000
21
144.8500
31
0.0
0
TEXT
8
TABLE
10
186.2000
20
144.8500
30
0.0
40
1.6000
1
FORCE ON DISC
50
0.0000
72
0
73
2
11
186.2000
21
144.8500
31
0.0
0
LINE
8
TABLE
10
25.0000
20
142.7000
30
0.0
11
219.0000
21
142.7000
31
0.0
0
LINE
8
TABLE
10
25.0000
20
142.7000
30
0.0
11
219.0000
21
142.7000
31
0.0
0
TEXT
8
TABLE
10
26.2000
20
140.5500
30
0.0
40
1.6000
1
BV-1
50
0.0000
72
0
73
2
11
26.2000
21
140.5500
31
0.0
0
TEXT
8
TABLE
10
42.2000
20
140.5500
30
0.0
40
1.6000
1
DN100
50
0.0000
72
0
73
2
11
42.2000
21
140.5500
31
0.0
0
TEXT
8
TABLE
10
62.2000
20
140.5500
30
0.0
40
1.6000
1
FRESH AIR TRAIN 1
50
0.0000
72
0
73
2
11
62.2000
21
140.5500
31
0.0
0
TEXT
8
TABLE
10
104.2000
20
140.5500
30
0.0
40
1.6000
1
300
50
0.0000
72
0
73
2
11
104.2000
21
140.5500
31
0.0
0
TEXT
8
TABLE
10
130.2000
20
140.5500
30
0.0
40
1.6000
1
10.6 m/s
50
0.0000
72
0
73
2
11
130.2000
21
140.5500
31
0.0
0
TEXT
8
TABLE
10
156.2000
20
140.5500
30
0.0
40
1.6000
1
383 kPa RECESSED
50
0.0000
72
0
73
2
11
156.2000
21
140.5500
31
0.0
0
TEXT
8
TABLE
10
186.2000
20
140.5500
30
0.0
40
1.6000
1
3.0 kN
50
0.0000
72
0
73
2
11
186.2000
21
140.5500
31
0.0
0
LINE
8
TABLE
10
25.0000
20
138.4000
30
0.0
11
219.0000
21
138.4000
31
0.0
0
LINE
8
TABLE
10
25.0000
20
138.4000
30
0.0
11
219.0000
21
138.4000
31
0.0
0
TEXT
8
TABLE
10
26.2000
20
136.2500
30
0.0
40
1.6000
1
BV-2
50
0.0000
72
0
73
2
11
26.2000
21
136.2500
31
0.0
0
TEXT
8
TABLE
10
42.2000
20
136.2500
30
0.0
40
1.6000
1
DN100
50
0.0000
72
0
73
2
11
42.2000
21
136.2500
31
0.0
0
TEXT
8
TABLE
10
62.2000
20
136.2500
30
0.0
40
1.6000
1
FRESH AIR TRAIN 2
50
0.0000
72
0
73
2
11
62.2000
21
136.2500
31
0.0
0
TEXT
8
TABLE
10
104.2000
20
136.2500
30
0.0
40
1.6000
1
300
50
0.0000
72
0
73
2
11
104.2000
21
136.2500
31
0.0
0
TEXT
8
TABLE
10
130.2000
20
136.2500
30
0.0
40
1.6000
1
10.6 m/s
50
0.0000
72
0
73
2
11
130.2000
21
136.2500
31
0.0
0
TEXT
8
TABLE
10
156.2000
20
136.2500
30
0.0
40
1.6000
1
383 kPa RECESSED
50
0.0000
72
0
73
2
11
156.2000
21
136.2500
31
0.0
0
TEXT
8
TABLE
10
186.2000
20
136.2500
30
0.0
40
1.6000
1
3.0 kN
50
0.0000
72
0
73
2
11
186.2000
21
136.2500
31
0.0
0
LINE
8
TABLE
10
25.0000
20
134.1000
30
0.0
11
219.0000
21
134.1000
31
0.0
0
LINE
8
TABLE
10
25.0000
20
134.1000
30
0.0
11
219.0000
21
134.1000
31
0.0
0
TEXT
8
TABLE
10
26.2000
20
131.9500
30
0.0
40
1.6000
1
BV-3
50
0.0000
72
0
73
2
11
26.2000
21
131.9500
31
0.0
0
TEXT
8
TABLE
10
42.2000
20
131.9500
30
0.0
40
1.6000
1
DN100
50
0.0000
72
0
73
2
11
42.2000
21
131.9500
31
0.0
0
TEXT
8
TABLE
10
62.2000
20
131.9500
30
0.0
40
1.6000
1
EXHAUST + OPRV
50
0.0000
72
0
73
2
11
62.2000
21
131.9500
31
0.0
0
TEXT
8
TABLE
10
104.2000
20
131.9500
30
0.0
40
1.6000
1
300
50
0.0000
72
0
73
2
11
104.2000
21
131.9500
31
0.0
0
TEXT
8
TABLE
10
130.2000
20
131.9500
30
0.0
40
1.6000
1
10.6 m/s
50
0.0000
72
0
73
2
11
130.2000
21
131.9500
31
0.0
0
TEXT
8
TABLE
10
156.2000
20
131.9500
30
0.0
40
1.6000
1
383 kPa RECESSED
50
0.0000
72
0
73
2
11
156.2000
21
131.9500
31
0.0
0
TEXT
8
TABLE
10
186.2000
20
131.9500
30
0.0
40
1.6000
1
3.0 kN
50
0.0000
72
0
73
2
11
186.2000
21
131.9500
31
0.0
0
LINE
8
TABLE
10
25.0000
20
129.8000
30
0.0
11
219.0000
21
129.8000
31
0.0
0
LINE
8
TABLE
10
25.0000
20
129.8000
30
0.0
11
219.0000
21
129.8000
31
0.0
0
TEXT
8
TABLE
10
26.2000
20
127.6500
30
0.0
40
1.6000
1
BV-4
50
0.0000
72
0
73
2
11
26.2000
21
127.6500
31
0.0
0
TEXT
8
TABLE
10
42.2000
20
127.6500
30
0.0
40
1.6000
1
DN350
50
0.0000
72
0
73
2
11
42.2000
21
127.6500
31
0.0
0
TEXT
8
TABLE
10
62.2000
20
127.6500
30
0.0
40
1.6000
1
GENERATOR INTAKE
50
0.0000
72
0
73
2
11
62.2000
21
127.6500
31
0.0
0
TEXT
8
TABLE
10
104.2000
20
127.6500
30
0.0
40
1.6000
1
2600
50
0.0000
72
0
73
2
11
104.2000
21
127.6500
31
0.0
0
TEXT
8
TABLE
10
130.2000
20
127.6500
30
0.0
40
1.6000
1
7.5 m/s
50
0.0000
72
0
73
2
11
130.2000
21
127.6500
31
0.0
0
TEXT
8
TABLE
10
156.2000
20
127.6500
30
0.0
40
1.6000
1
383 kPa RECESSED
50
0.0000
72
0
73
2
11
156.2000
21
127.6500
31
0.0
0
TEXT
8
TABLE
10
186.2000
20
127.6500
30
0.0
40
1.6000
1
36.8 kN
50
0.0000
72
0
73
2
11
186.2000
21
127.6500
31
0.0
0
LINE
8
TABLE
10
25.0000
20
125.5000
30
0.0
11
219.0000
21
125.5000
31
0.0
0
LINE
8
TABLE
10
25.0000
20
125.5000
30
0.0
11
219.0000
21
125.5000
31
0.0
0
TEXT
8
TABLE
10
26.2000
20
123.3500
30
0.0
40
1.6000
1
BV-5
50
0.0000
72
0
73
2
11
26.2000
21
123.3500
31
0.0
0
TEXT
8
TABLE
10
42.2000
20
123.3500
30
0.0
40
1.6000
1
DN350
50
0.0000
72
0
73
2
11
42.2000
21
123.3500
31
0.0
0
TEXT
8
TABLE
10
62.2000
20
123.3500
30
0.0
40
1.6000
1
GENERATOR EXHAUST
50
0.0000
72
0
73
2
11
62.2000
21
123.3500
31
0.0
0
TEXT
8
TABLE
10
104.2000
20
123.3500
30
0.0
40
1.6000
1
2600
50
0.0000
72
0
73
2
11
104.2000
21
123.3500
31
0.0
0
TEXT
8
TABLE
10
130.2000
20
123.3500
30
0.0
40
1.6000
1
7.5 m/s
50
0.0000
72
0
73
2
11
130.2000
21
123.3500
31
0.0
0
TEXT
8
TABLE
10
156.2000
20
123.3500
30
0.0
40
1.6000
1
383 kPa RECESSED
50
0.0000
72
0
73
2
11
156.2000
21
123.3500
31
0.0
0
TEXT
8
TABLE
10
186.2000
20
123.3500
30
0.0
40
1.6000
1
36.8 kN
50
0.0000
72
0
73
2
11
186.2000
21
123.3500
31
0.0
0
LINE
8
TABLE
10
25.0000
20
121.2000
30
0.0
11
219.0000
21
121.2000
31
0.0
0
LINE
8
TABLE
10
25.0000
20
147.0000
30
0.0
11
25.0000
21
121.2000
31
0.0
0
LINE
8
TABLE
10
41.0000
20
147.0000
30
0.0
11
41.0000
21
121.2000
31
0.0
0
LINE
8
TABLE
10
61.0000
20
147.0000
30
0.0
11
61.0000
21
121.2000
31
0.0
0
LINE
8
TABLE
10
103.0000
20
147.0000
30
0.0
11
103.0000
21
121.2000
31
0.0
0
LINE
8
TABLE
10
129.0000
20
147.0000
30
0.0
11
129.0000
21
121.2000
31
0.0
0
LINE
8
TABLE
10
155.0000
20
147.0000
30
0.0
11
155.0000
21
121.2000
31
0.0
0
LINE
8
TABLE
10
185.0000
20
147.0000
30
0.0
11
185.0000
21
121.2000
31
0.0
0
LINE
8
TABLE
10
219.0000
20
147.0000
30
0.0
11
219.0000
21
121.2000
31
0.0
0
LINE
8
TABLE
10
219.0000
20
147.0000
30
0.0
11
219.0000
21
121.2000
31
0.0
0
TEXT
8
TEXT
10
25.0000
20
112.0000
30
0.0
40
1.6000
1
RECESSING IS NOT COSMETIC.  A VALVE FLUSH IN A VERTICAL FACE SEES THE REFLECTED PRESSURE p_r = 1366 kPa (IS 4991 Cl 6.2.1),
50
0.0000
72
0
73
3
11
25.0000
21
112.0000
31
0.0
0
TEXT
8
TEXT
10
25.0000
20
108.5000
30
0.0
40
1.6000
1
WHICH IS 3.6 TIMES WORSE - 131 kN ON A DN350 DISC INSTEAD OF 36.8 kN.
50
0.0000
72
0
73
3
11
25.0000
21
108.5000
31
0.0
0
TEXT
8
TEXT-TITLE
10
320.0000
20
152.0000
30
0.0
40
2.2000
1
DRAINAGE AND WASTE - DESIGN FLOWS
50
0.0000
72
0
73
3
11
320.0000
21
152.0000
31
0.0
0
LINE
8
TABLE
10
320.0000
20
147.0000
30
0.0
11
494.0000
21
147.0000
31
0.0
0
TEXT
8
TABLE
10
321.2000
20
144.8500
30
0.0
40
1.6000
1
ITEM
50
0.0000
72
0
73
2
11
321.2000
21
144.8500
31
0.0
0
TEXT
8
TABLE
10
387.2000
20
144.8500
30
0.0
40
1.6000
1
FLOW
50
0.0000
72
0
73
2
11
387.2000
21
144.8500
31
0.0
0
TEXT
8
TABLE
10
421.2000
20
144.8500
30
0.0
40
1.6000
1
CAPACITY
50
0.0000
72
0
73
2
11
421.2000
21
144.8500
31
0.0
0
TEXT
8
TABLE
10
451.2000
20
144.8500
30
0.0
40
1.6000
1
DISCHARGES TO
50
0.0000
72
0
73
2
11
451.2000
21
144.8500
31
0.0
0
LINE
8
TABLE
10
320.0000
20
142.7000
30
0.0
11
494.0000
21
142.7000
31
0.0
0
LINE
8
TABLE
10
320.0000
20
142.7000
30
0.0
11
494.0000
21
142.7000
31
0.0
0
TEXT
8
TABLE
10
321.2000
20
140.5500
30
0.0
40
1.6000
1
Structural seepage (0.5 L/m2/day x 401 m2)
50
0.0000
72
0
73
2
11
321.2000
21
140.5500
31
0.0
0
TEXT
8
TABLE
10
387.2000
20
140.5500
30
0.0
40
1.6000
1
200 L/day
50
0.0000
72
0
73
2
11
387.2000
21
140.5500
31
0.0
0
TEXT
8
TABLE
10
421.2000
20
140.5500
30
0.0
40
1.6000
1
sump 3375 L
50
0.0000
72
0
73
2
11
421.2000
21
140.5500
31
0.0
0
TEXT
8
TABLE
10
451.2000
20
140.5500
30
0.0
40
1.6000
1
storm soakaway
50
0.0000
72
0
73
2
11
451.2000
21
140.5500
31
0.0
0
LINE
8
TABLE
10
320.0000
20
138.4000
30
0.0
11
494.0000
21
138.4000
31
0.0
0
LINE
8
TABLE
10
320.0000
20
138.4000
30
0.0
11
494.0000
21
138.4000
31
0.0
0
TEXT
8
TABLE
10
321.2000
20
136.2500
30
0.0
40
1.6000
1
Condensate + washdown
50
0.0000
72
0
73
2
11
321.2000
21
136.2500
31
0.0
0
TEXT
8
TABLE
10
387.2000
20
136.2500
30
0.0
40
1.6000
1
200 L/day
50
0.0000
72
0
73
2
11
387.2000
21
136.2500
31
0.0
0
TEXT
8
TABLE
10
421.2000
20
136.2500
30
0.0
40
1.6000
1
= 8 days store
50
0.0000
72
0
73
2
11
421.2000
21
136.2500
31
0.0
0
TEXT
8
TABLE
10
451.2000
20
136.2500
30
0.0
40
1.6000
1
storm soakaway
50
0.0000
72
0
73
2
11
451.2000
21
136.2500
31
0.0
0
LINE
8
TABLE
10
320.0000
20
134.1000
30
0.0
11
494.0000
21
134.1000
31
0.0
0
LINE
8
TABLE
10
320.0000
20
134.1000
30
0.0
11
494.0000
21
134.1000
31
0.0
0
TEXT
8
TABLE
10
321.2000
20
131.9500
30
0.0
40
1.6000
1
Decon effluent (airlock stages 1 + 2)
50
0.0000
72
0
73
2
11
321.2000
21
131.9500
31
0.0
0
TEXT
8
TABLE
10
387.2000
20
131.9500
30
0.0
40
1.6000
1
on use
50
0.0000
72
0
73
2
11
387.2000
21
131.9500
31
0.0
0
TEXT
8
TABLE
10
421.2000
20
131.9500
30
0.0
40
1.6000
1
1000 L tank
50
0.0000
72
0
73
2
11
421.2000
21
131.9500
31
0.0
0
TEXT
8
TABLE
10
451.2000
20
131.9500
30
0.0
40
1.6000
1
TANKER ONLY
50
0.0000
72
0
73
2
11
451.2000
21
131.9500
31
0.0
0
LINE
8
TABLE
10
320.0000
20
129.8000
30
0.0
11
494.0000
21
129.8000
31
0.0
0
LINE
8
TABLE
10
320.0000
20
129.8000
30
0.0
11
494.0000
21
129.8000
31
0.0
0
TEXT
8
TABLE
10
321.2000
20
127.6500
30
0.0
40
1.6000
1
Foul, peacetime (10 users x 45 lpcd)
50
0.0000
72
0
73
2
11
321.2000
21
127.6500
31
0.0
0
TEXT
8
TABLE
10
387.2000
20
127.6500
30
0.0
40
1.6000
1
450 L/day
50
0.0000
72
0
73
2
11
387.2000
21
127.6500
31
0.0
0
TEXT
8
TABLE
10
421.2000
20
127.6500
30
0.0
40
1.6000
1
septic 1.125 m3
50
0.0000
72
0
73
2
11
421.2000
21
127.6500
31
0.0
0
TEXT
8
TABLE
10
451.2000
20
127.6500
30
0.0
40
1.6000
1
soak pit
50
0.0000
72
0
73
2
11
451.2000
21
127.6500
31
0.0
0
LINE
8
TABLE
10
320.0000
20
125.5000
30
0.0
11
494.0000
21
125.5000
31
0.0
0
LINE
8
TABLE
10
320.0000
20
125.5000
30
0.0
11
494.0000
21
125.5000
31
0.0
0
TEXT
8
TABLE
10
321.2000
20
123.3500
30
0.0
40
1.6000
1
Stairwell / approach surface water
50
0.0000
72
0
73
2
11
321.2000
21
123.3500
31
0.0
0
TEXT
8
TABLE
10
387.2000
20
123.3500
30
0.0
40
1.6000
1
0.10 L/s
50
0.0000
72
0
73
2
11
387.2000
21
123.3500
31
0.0
0
TEXT
8
TABLE
10
421.2000
20
123.3500
30
0.0
40
1.6000
1
1.0 m3 sump
50
0.0000
72
0
73
2
11
421.2000
21
123.3500
31
0.0
0
TEXT
8
TABLE
10
451.2000
20
123.3500
30
0.0
40
1.6000
1
own soakaway
50
0.0000
72
0
73
2
11
451.2000
21
123.3500
31
0.0
0
LINE
8
TABLE
10
320.0000
20
121.2000
30
0.0
11
494.0000
21
121.2000
31
0.0
0
LINE
8
TABLE
10
320.0000
20
147.0000
30
0.0
11
320.0000
21
121.2000
31
0.0
0
LINE
8
TABLE
10
386.0000
20
147.0000
30
0.0
11
386.0000
21
121.2000
31
0.0
0
LINE
8
TABLE
10
420.0000
20
147.0000
30
0.0
11
420.0000
21
121.2000
31
0.0
0
LINE
8
TABLE
10
450.0000
20
147.0000
30
0.0
11
450.0000
21
121.2000
31
0.0
0
LINE
8
TABLE
10
494.0000
20
147.0000
30
0.0
11
494.0000
21
121.2000
31
0.0
0
LINE
8
TABLE
10
494.0000
20
147.0000
30
0.0
11
494.0000
21
121.2000
31
0.0
0
LINE
8
TABLE
10
565.0000
20
396.0000
30
0.0
11
826.0000
21
396.0000
31
0.0
0
LINE
8
TABLE
10
826.0000
20
396.0000
30
0.0
11
826.0000
21
570.0000
31
0.0
0
LINE
8
TABLE
10
826.0000
20
570.0000
30
0.0
11
565.0000
21
570.0000
31
0.0
0
LINE
8
TABLE
10
565.0000
20
570.0000
30
0.0
11
565.0000
21
396.0000
31
0.0
0
LINE
8
TABLE
10
565.0000
20
563.6000
30
0.0
11
826.0000
21
563.6000
31
0.0
0
TEXT
8
TEXT-TITLE
10
568.0000
20
566.8000
30
0.0
40
2.4000
1
AIR AND FILTRATION  -  THE NUMBERS
50
0.0000
72
0
73
2
11
568.0000
21
566.8000
31
0.0
0
TEXT
8
NOTES
10
568.0000
20
560.0000
30
0.0
40
1.6000
1
OCCUPANCY  9 persons, 96 h design endurance
50
0.0000
72
0
73
3
11
568.0000
21
560.0000
31
0.0
0
TEXT
8
NOTES
10
568.0000
20
557.4000
30
0.0
40
1.6000
1

50
0.0000
72
0
73
3
11
568.0000
21
557.4000
31
0.0
0
TEXT
8
NOTES
10
568.0000
20
554.8000
30
0.0
40
1.6000
1
FILTERED AIRFLOW
50
0.0000
72
0
73
3
11
568.0000
21
554.8000
31
0.0
0
TEXT
8
NOTES
10
568.0000
20
552.2000
30
0.0
40
1.6000
1
  5 m3/h/person survival x 9 . . . . . . . . . . =  45 m3/h
50
0.0000
72
0
73
3
11
568.0000
21
552.2000
31
0.0
0
TEXT
8
NOTES
10
568.0000
20
549.6000
30
0.0
40
1.6000
1
 15 m3/h/person working shelter x 9 . . . . . . . = 135 m3/h
50
0.0000
72
0
73
3
11
568.0000
21
549.6000
31
0.0
0
TEXT
8
NOTES
10
568.0000
20
547.0000
30
0.0
40
1.6000
1
 FEMA 453: 0.25 cfm/ft2 over the 57.8 m2 clean zone = 264 m3/h
50
0.0000
72
0
73
3
11
568.0000
21
547.0000
31
0.0
0
TEXT
8
NOTES
10
568.0000
20
544.4000
30
0.0
40
1.6000
1
 DESIGN . . . . . . . . . . . . . . . . . . . . . = 300 m3/h
50
0.0000
72
0
73
3
11
568.0000
21
544.4000
31
0.0
0
TEXT
8
NOTES
10
568.0000
20
541.8000
30
0.0
40
1.6000
1
 Configuration: 2 x 300 m3/h trains, each able to carry the
50
0.0000
72
0
73
3
11
568.0000
21
541.8000
31
0.0
0
TEXT
8
NOTES
10
568.0000
20
539.2000
30
0.0
40
1.6000
1
 whole duty on its own  ->  TRUE N+1, not 2 x 150.
50
0.0000
72
0
73
3
11
568.0000
21
539.2000
31
0.0
0
TEXT
8
NOTES
10
568.0000
20
536.6000
30
0.0
40
1.6000
1

50
0.0000
72
0
73
3
11
568.0000
21
536.6000
31
0.0
0
TEXT
8
NOTES
10
568.0000
20
534.0000
30
0.0
40
1.6000
1
LEAKAGE   Envelope 217.0 m3.  Specified <= 0.15 vol/h at +300 Pa
50
0.0000
72
0
73
3
11
568.0000
21
534.0000
31
0.0
0
TEXT
8
NOTES
10
568.0000
20
531.4000
30
0.0
40
1.6000
1
          = 32.5 m3/h  ->  11 % of one train.  Comfortable.
50
0.0000
72
0
73
3
11
568.0000
21
531.4000
31
0.0
0
TEXT
8
NOTES
10
568.0000
20
528.8000
30
0.0
40
1.6000
1

50
0.0000
72
0
73
3
11
568.0000
21
528.8000
31
0.0
0
TEXT
8
NOTES
10
568.0000
20
526.2000
30
0.0
40
1.6000
1
OVERPRESSURE  +50 to +100 Pa maintained in the clean zone, so any
50
0.0000
72
0
73
3
11
568.0000
21
526.2000
31
0.0
0
TEXT
8
NOTES
10
568.0000
20
523.6000
30
0.0
40
1.6000
1
          leak flows OUTWARD.  Cascade 0 -> +10 -> +20 -> +35 -> +50.
50
0.0000
72
0
73
3
11
568.0000
21
523.6000
31
0.0
0
TEXT
8
NOTES
10
568.0000
20
521.0000
30
0.0
40
1.6000
1

50
0.0000
72
0
73
3
11
568.0000
21
521.0000
31
0.0
0
TEXT
8
NOTES
10
568.0000
20
518.4000
30
0.0
40
1.6000
1
CLOSED MODE (all valves shut, e.g. immediately post-detonation)
50
0.0000
72
0
73
3
11
568.0000
21
518.4000
31
0.0
0
TEXT
8
NOTES
10
568.0000
20
515.8000
30
0.0
40
1.6000
1
  CO2 from 9 persons at rest 9 x 0.02 . . . . . = 0.18 m3/h
50
0.0000
72
0
73
3
11
568.0000
21
515.8000
31
0.0
0
TEXT
8
NOTES
10
568.0000
20
513.2000
30
0.0
40
1.6000
1
  Occupied volume, airlock shut . . . . . . . . = 185.0 m3
50
0.0000
72
0
73
3
11
568.0000
21
513.2000
31
0.0
0
TEXT
8
NOTES
10
568.0000
20
510.6000
30
0.0
40
1.6000
1
  Time to 1.0 % CO2 = (0.0096 x 185)/0.18 . . . =  9.9 h
50
0.0000
72
0
73
3
11
568.0000
21
510.6000
31
0.0
0
TEXT
8
NOTES
10
568.0000
20
508.0000
30
0.0
40
1.6000
1
  Soda lime 20 kg/day  ->  40 kg for 48 h
50
0.0000
72
0
73
3
11
568.0000
21
508.0000
31
0.0
0
TEXT
8
NOTES
10
568.0000
20
505.4000
30
0.0
40
1.6000
1
  O2 4.5 m3/day  ->  2 x 50 L cylinders at 150 bar (15 m3)  OK
50
0.0000
72
0
73
3
11
568.0000
21
505.4000
31
0.0
0
TEXT
8
NOTES
10
568.0000
20
502.8000
30
0.0
40
1.6000
1
  CLOSED MODE IS A BRIDGE, NOT A SURVIVAL MODE.
50
0.0000
72
0
73
3
11
568.0000
21
502.8000
31
0.0
0
TEXT
8
NOTES
10
568.0000
20
500.2000
30
0.0
40
1.6000
1

50
0.0000
72
0
73
3
11
568.0000
21
500.2000
31
0.0
0
TEXT
8
NOTES
10
568.0000
20
497.6000
30
0.0
40
1.6000
1
AIRLOCK PURGE  Stage 1 = 2.0 x 2.0 x 3.2 = 12.8 m3; 5 air changes
50
0.0000
72
0
73
3
11
568.0000
21
497.6000
31
0.0
0
TEXT
8
NOTES
10
568.0000
20
495.0000
30
0.0
40
1.6000
1
  = 64 m3 at 300 m3/h  =  13 minutes.  THIS LIMITS ENTRY TO ABOUT
50
0.0000
72
0
73
3
11
568.0000
21
495.0000
31
0.0
0
TEXT
8
NOTES
10
568.0000
20
492.4000
30
0.0
40
1.6000
1
  4-5 PERSONS PER HOUR - a manning constraint, not a plant figure.
50
0.0000
72
0
73
3
11
568.0000
21
492.4000
31
0.0
0
LINE
8
TABLE
10
565.0000
20
208.0000
30
0.0
11
826.0000
21
208.0000
31
0.0
0
LINE
8
TABLE
10
826.0000
20
208.0000
30
0.0
11
826.0000
21
390.0000
31
0.0
0
LINE
8
TABLE
10
826.0000
20
390.0000
30
0.0
11
565.0000
21
390.0000
31
0.0
0
LINE
8
TABLE
10
565.0000
20
390.0000
30
0.0
11
565.0000
21
208.0000
31
0.0
0
LINE
8
TABLE
10
565.0000
20
383.6000
30
0.0
11
826.0000
21
383.6000
31
0.0
0
TEXT
8
TEXT-TITLE
10
568.0000
20
386.8000
30
0.0
40
2.4000
1
BLAST VALVE  -  HOW IT WORKS AND WHY IT IS SIZED THIS WAY
50
0.0000
72
0
73
2
11
568.0000
21
386.8000
31
0.0
0
TEXT
8
NOTES
10
568.0000
20
380.0000
30
0.0
40
1.6000
1
WHAT IT IS  A spring- or inertia-operated one-way closure in the duct.
50
0.0000
72
0
73
3
11
568.0000
21
380.0000
31
0.0
0
TEXT
8
NOTES
10
568.0000
20
377.4000
30
0.0
40
1.6000
1
  In normal use it is held open and air passes.  When a pressure wave
50
0.0000
72
0
73
3
11
568.0000
21
377.4000
31
0.0
0
TEXT
8
NOTES
10
568.0000
20
374.8000
30
0.0
40
1.6000
1
  arrives it slams shut in under 2 milliseconds, stays shut for the
50
0.0000
72
0
73
3
11
568.0000
21
374.8000
31
0.0
0
TEXT
8
NOTES
10
568.0000
20
372.2000
30
0.0
40
1.6000
1
  whole positive phase, then reopens.  IT IS NOT A DAMPER AND IT IS
50
0.0000
72
0
73
3
11
568.0000
21
372.2000
31
0.0
0
TEXT
8
NOTES
10
568.0000
20
369.6000
30
0.0
40
1.6000
1
  NOT OPERATED BY THE CREW - it must work with nobody watching.
50
0.0000
72
0
73
3
11
568.0000
21
369.6000
31
0.0
0
TEXT
8
NOTES
10
568.0000
20
367.0000
30
0.0
40
1.6000
1

50
0.0000
72
0
73
3
11
568.0000
21
367.0000
31
0.0
0
TEXT
8
NOTES
10
568.0000
20
364.4000
30
0.0
40
1.6000
1
THE THREE THINGS IT MUST DO
50
0.0000
72
0
73
3
11
568.0000
21
364.4000
31
0.0
0
TEXT
8
NOTES
10
568.0000
20
361.8000
30
0.0
40
1.6000
1
  1  CLOSE FAST ENOUGH.  At 50 psi the shock front travels ~600 m/s,
50
0.0000
72
0
73
3
11
568.0000
21
361.8000
31
0.0
0
TEXT
8
NOTES
10
568.0000
20
359.2000
30
0.0
40
1.6000
1
     so in 2 ms it moves 1.2 m.  Keep >= 2.0 m of duct between the
50
0.0000
72
0
73
3
11
568.0000
21
359.2000
31
0.0
0
TEXT
8
NOTES
10
568.0000
20
356.6000
30
0.0
40
1.6000
1
     valve and the plenum and the leak-through is trivial.
50
0.0000
72
0
73
3
11
568.0000
21
356.6000
31
0.0
0
TEXT
8
NOTES
10
568.0000
20
354.0000
30
0.0
40
1.6000
1
  2  STAY SHUT.  Nuclear positive phase is 0.13-1.33 s, a thousand
50
0.0000
72
0
73
3
11
568.0000
21
354.0000
31
0.0
0
TEXT
8
NOTES
10
568.0000
20
351.4000
30
0.0
40
1.6000
1
     times longer than a grenade.  A valve that reopens at 50 ms is
50
0.0000
72
0
73
3
11
568.0000
21
351.4000
31
0.0
0
TEXT
8
NOTES
10
568.0000
20
348.8000
30
0.0
40
1.6000
1
     useless here.  SPECIFY THE HOLD TIME, not just the closing time.
50
0.0000
72
0
73
3
11
568.0000
21
348.8000
31
0.0
0
TEXT
8
NOTES
10
568.0000
20
346.2000
30
0.0
40
1.6000
1
  3  SURVIVE THE SUCTION.  The negative phase pulls the disc the other
50
0.0000
72
0
73
3
11
568.0000
21
346.2000
31
0.0
0
TEXT
8
NOTES
10
568.0000
20
343.6000
30
0.0
40
1.6000
1
     way at roughly 0.25 p_so ~ 86 kPa.  It must be rated in reverse.
50
0.0000
72
0
73
3
11
568.0000
21
343.6000
31
0.0
0
TEXT
8
NOTES
10
568.0000
20
341.0000
30
0.0
40
1.6000
1

50
0.0000
72
0
73
3
11
568.0000
21
341.0000
31
0.0
0
TEXT
8
NOTES
10
568.0000
20
338.4000
30
0.0
40
1.6000
1
SIZING   Q = 300 m3/h = 0.0833 m3/s;  DN100 area 7.854e-3 m2
50
0.0000
72
0
73
3
11
568.0000
21
338.4000
31
0.0
0
TEXT
8
NOTES
10
568.0000
20
335.8000
30
0.0
40
1.6000
1
         v = 10.6 m/s  -  inside the usual 10-15 m/s throat range
50
0.0000
72
0
73
3
11
568.0000
21
335.8000
31
0.0
0
TEXT
8
NOTES
10
568.0000
20
333.2000
30
0.0
40
1.6000
1
         Generator DN350: 2600 m3/h = 0.722 m3/s  ->  v = 7.5 m/s
50
0.0000
72
0
73
3
11
568.0000
21
333.2000
31
0.0
0
TEXT
8
NOTES
10
568.0000
20
330.6000
30
0.0
40
1.6000
1

50
0.0000
72
0
73
3
11
568.0000
21
330.6000
31
0.0
0
TEXT
8
NOTES
10
568.0000
20
328.0000
30
0.0
40
1.6000
1
LOAD     Recessed (sees side-on):  383 x 0.00785 = 3.0 kN on DN100
50
0.0000
72
0
73
3
11
568.0000
21
328.0000
31
0.0
0
TEXT
8
NOTES
10
568.0000
20
325.4000
30
0.0
40
1.6000
1
                                   383 x 0.0962  = 36.8 kN on DN350
50
0.0000
72
0
73
3
11
568.0000
21
325.4000
31
0.0
0
TEXT
8
NOTES
10
568.0000
20
322.8000
30
0.0
40
1.6000
1
         Flush in a vertical face (sees reflected 1366 kPa):
50
0.0000
72
0
73
3
11
568.0000
21
322.8000
31
0.0
0
TEXT
8
NOTES
10
568.0000
20
320.2000
30
0.0
40
1.6000
1
                                   1366 x 0.0962 = 131 kN on DN350
50
0.0000
72
0
73
3
11
568.0000
21
320.2000
31
0.0
0
TEXT
8
NOTES
10
568.0000
20
317.6000
30
0.0
40
1.6000
1
         RECESS EVERY VALVE.  IS 4991 Cl 6.2.1.
50
0.0000
72
0
73
3
11
568.0000
21
317.6000
31
0.0
0
TEXT
8
NOTES
10
568.0000
20
315.0000
30
0.0
40
1.6000
1

50
0.0000
72
0
73
3
11
568.0000
21
315.0000
31
0.0
0
TEXT
8
NOTES
10
568.0000
20
312.4000
30
0.0
40
1.6000
1
FRAME    Cast-in steel, welded to the reinforcement cage for EMP
50
0.0000
72
0
73
3
11
568.0000
21
312.4000
31
0.0
0
TEXT
8
NOTES
10
568.0000
20
309.8000
30
0.0
40
1.6000
1
         continuity; 250 RC valve chamber; manual gas-tight damper
50
0.0000
72
0
73
3
11
568.0000
21
309.8000
31
0.0
0
TEXT
8
NOTES
10
568.0000
20
307.2000
30
0.0
40
1.6000
1
         inboard, operable from inside without tools.
50
0.0000
72
0
73
3
11
568.0000
21
307.2000
31
0.0
0
LINE
8
TABLE
10
565.0000
20
80.0000
30
0.0
11
826.0000
21
80.0000
31
0.0
0
LINE
8
TABLE
10
826.0000
20
80.0000
30
0.0
11
826.0000
21
202.0000
31
0.0
0
LINE
8
TABLE
10
826.0000
20
202.0000
30
0.0
11
565.0000
21
202.0000
31
0.0
0
LINE
8
TABLE
10
565.0000
20
202.0000
30
0.0
11
565.0000
21
80.0000
31
0.0
0
LINE
8
TABLE
10
565.0000
20
195.6000
30
0.0
11
826.0000
21
195.6000
31
0.0
0
TEXT
8
TEXT-TITLE
10
568.0000
20
198.8000
30
0.0
40
2.4000
1
SEPTIC TANK AND SOAK PIT  -  IS 2470 (PARTS 1 AND 2):1985
50
0.0000
72
0
73
2
11
568.0000
21
198.8000
31
0.0
0
TEXT
8
NOTES
10
568.0000
20
192.0000
30
0.0
40
1.6000
1
DESIGN POPULATION  10 (sentry-post shift crews + shelter maintenance).
50
0.0000
72
0
73
3
11
568.0000
21
192.0000
31
0.0
0
TEXT
8
NOTES
10
568.0000
20
189.4000
30
0.0
40
1.6000
1
  In protective mode the shelter is SEALED and uses sealed-cassette
50
0.0000
72
0
73
3
11
568.0000
21
189.4000
31
0.0
0
TEXT
8
NOTES
10
568.0000
20
186.8000
30
0.0
40
1.6000
1
  chemical toilets - nothing is discharged.  The septic tank serves
50
0.0000
72
0
73
3
11
568.0000
21
186.8000
31
0.0
0
TEXT
8
NOTES
10
568.0000
20
184.2000
30
0.0
40
1.6000
1
  PEACETIME use only.  Say this before someone asks how you flush a
50
0.0000
72
0
73
3
11
568.0000
21
184.2000
31
0.0
0
TEXT
8
NOTES
10
568.0000
20
181.6000
30
0.0
40
1.6000
1
  toilet in a gas-tight box.
50
0.0000
72
0
73
3
11
568.0000
21
181.6000
31
0.0
0
TEXT
8
NOTES
10
568.0000
20
179.0000
30
0.0
40
1.6000
1

50
0.0000
72
0
73
3
11
568.0000
21
179.0000
31
0.0
0
TEXT
8
NOTES
10
568.0000
20
176.4000
30
0.0
40
1.6000
1
SEPTIC TANK   q = 45 lpcd x 10 . . . . . . . . . =  450 L/day
50
0.0000
72
0
73
3
11
568.0000
21
176.4000
31
0.0
0
TEXT
8
NOTES
10
568.0000
20
173.8000
30
0.0
40
1.6000
1
  Sedimentation, 24 h detention (Pt 1 Cl. 6.2) . =  450 L
50
0.0000
72
0
73
3
11
568.0000
21
173.8000
31
0.0
0
TEXT
8
NOTES
10
568.0000
20
171.2000
30
0.0
40
1.6000
1
  Sludge 30 L/person/year x 10 x 2 years (Cl 6.3)=  600 L
50
0.0000
72
0
73
3
11
568.0000
21
171.2000
31
0.0
0
TEXT
8
NOTES
10
568.0000
20
168.6000
30
0.0
40
1.6000
1
  Required . . . . . . . . . . . . . . . . . . . = 1050 L
50
0.0000
72
0
73
3
11
568.0000
21
168.6000
31
0.0
0
TEXT
8
NOTES
10
568.0000
20
166.0000
30
0.0
40
1.6000
1
  IS 2470 (Pt 1) Table 1, up to 10 users:
50
0.0000
72
0
73
3
11
568.0000
21
166.0000
31
0.0
0
TEXT
8
NOTES
10
568.0000
20
163.4000
30
0.0
40
1.6000
1
     1.50 L x 0.75 B x 1.00 liquid depth . . . . = 1125 L   OK
50
0.0000
72
0
73
3
11
568.0000
21
163.4000
31
0.0
0
TEXT
8
NOTES
10
568.0000
20
160.8000
30
0.0
40
1.6000
1
  L/B = 2.0 (Cl 6.5 wants 2 to 4);  B >= 750;  depth >= 1.0 m
50
0.0000
72
0
73
3
11
568.0000
21
160.8000
31
0.0
0
TEXT
8
NOTES
10
568.0000
20
158.2000
30
0.0
40
1.6000
1
  Freeboard 300  ->  overall 1.30 m.  Two compartments, baffle at
50
0.0000
72
0
73
3
11
568.0000
21
158.2000
31
0.0
0
TEXT
8
NOTES
10
568.0000
20
155.6000
30
0.0
40
1.6000
1
  2/3 L, inlet and outlet tees, 50 mm cowled vent >= 2 m above grade.
50
0.0000
72
0
73
3
11
568.0000
21
155.6000
31
0.0
0
TEXT
8
NOTES
10
568.0000
20
153.0000
30
0.0
40
1.6000
1

50
0.0000
72
0
73
3
11
568.0000
21
153.0000
31
0.0
0
TEXT
8
NOTES
10
568.0000
20
150.4000
30
0.0
40
1.6000
1
SOAK PIT      Effluent 450 L/day
50
0.0000
72
0
73
3
11
568.0000
21
150.4000
31
0.0
0
TEXT
8
NOTES
10
568.0000
20
147.8000
30
0.0
40
1.6000
1
  Design absorption 20 L/m2/day for weathered basalt / murum  [A]
50
0.0000
72
0
73
3
11
568.0000
21
147.8000
31
0.0
0
TEXT
8
NOTES
10
568.0000
20
145.2000
30
0.0
40
1.6000
1
  Area required 450/20 . . . . . . . . . . . . . = 22.5 m2
50
0.0000
72
0
73
3
11
568.0000
21
145.2000
31
0.0
0
TEXT
8
NOTES
10
568.0000
20
142.6000
30
0.0
40
1.6000
1
  Pit 2.0 dia x 3.5 effective: side area pi.D.h  = 22.0 m2   OK
50
0.0000
72
0
73
3
11
568.0000
21
142.6000
31
0.0
0
TEXT
8
NOTES
10
568.0000
20
140.0000
30
0.0
40
1.6000
1

50
0.0000
72
0
73
3
11
568.0000
21
140.0000
31
0.0
0
TEXT
8
NOTES
10
568.0000
20
137.4000
30
0.0
40
1.6000
1
  ***  A PERCOLATION TEST (IS 2470 Pt 2 Cl. 4) IS MANDATORY BEFORE
50
0.0000
72
0
73
3
11
568.0000
21
137.4000
31
0.0
0
TEXT
8
NOTES
10
568.0000
20
134.8000
30
0.0
40
1.6000
1
  CONSTRUCTION.  Deccan basalt drains badly.  If the test returns
50
0.0000
72
0
73
3
11
568.0000
21
134.8000
31
0.0
0
TEXT
8
NOTES
10
568.0000
20
132.2000
30
0.0
40
1.6000
1
  less than 20 L/m2/day, switch to a DISPERSION TRENCH (Pt 2 Cl. 5)
50
0.0000
72
0
73
3
11
568.0000
21
132.2000
31
0.0
0
TEXT
8
NOTES
10
568.0000
20
129.6000
30
0.0
40
1.6000
1
  or a sealed holding tank pumped out on a schedule.  ***
50
0.0000
72
0
73
3
11
568.0000
21
129.6000
31
0.0
0
ENDSEC
0
EOF
