0
SECTION
2
HEADER
9
$ACADVER
1
AC1009
9
$INSUNITS
70
4
9
$MEASUREMENT
70
1
9
$LTSCALE
40
25.0
9
$LIMCHECK
70
0
9
$EXTMIN
10
-4600.000
20
-10380.000
30
0.0
9
$EXTMAX
10
14005.500
20
5420.000
30
0.0
9
$LIMMIN
10
-4600.000
20
-10380.000
9
$LIMMAX
10
14005.500
20
5420.000
0
ENDSEC
0
SECTION
2
TABLES
0
TABLE
2
LTYPE
70
3
0
LTYPE
2
CONTINUOUS
70
0
3
Solid line
72
65
73
0
40
0.0
0
LTYPE
2
DASHED
70
0
3
Dashed __ __ __
72
65
73
2
40
15.0
49
10.0
49
-5.0
0
LTYPE
2
CENTER
70
0
3
Centre ____ _ ____
72
65
73
4
40
50.0
49
32.0
49
-6.0
49
6.0
49
-6.0
0
ENDTAB
0
TABLE
2
LAYER
70
10
0
LAYER
2
0
70
0
62
7
6
CONTINUOUS
0
LAYER
2
WALLS
70
0
62
7
6
CONTINUOUS
0
LAYER
2
OPENINGS
70
0
62
1
6
CONTINUOUS
0
LAYER
2
STAIRS
70
0
62
3
6
CONTINUOUS
0
LAYER
2
GROUND
70
0
62
42
6
CONTINUOUS
0
LAYER
2
TEXT
70
0
62
2
6
CONTINUOUS
0
LAYER
2
DIM
70
0
62
4
6
CONTINUOUS
0
LAYER
2
HIDDEN
70
0
62
8
6
DASHED
0
LAYER
2
CENTRE
70
0
62
6
6
CENTER
0
LAYER
2
BEYOND
70
0
62
9
6
CONTINUOUS
0
ENDTAB
0
TABLE
2
STYLE
70
1
0
STYLE
2
STANDARD
70
0
40
0.0
41
1.0
50
0.0
71
0
42
2.5
3
txt
4

0
ENDTAB
0
TABLE
2
APPID
70
1
0
APPID
2
ACAD
70
0
0
ENDTAB
0
ENDSEC
0
SECTION
2
BLOCKS
0
ENDSEC
0
SECTION
2
ENTITIES
0
LINE
8
GROUND
10
-2600.000
20
0.000
30
0.0
11
-1150.000
21
0.000
31
0.0
0
LINE
8
GROUND
10
-1150.000
20
0.000
30
0.0
11
200.000
21
900.000
31
0.0
0
LINE
8
GROUND
10
200.000
20
900.000
30
0.0
11
7750.000
21
900.000
31
0.0
0
TEXT
8
TEXT
10
-1000.000
20
450.000
30
0.0
40
130.000
1
BERM 1.5:1
7
STANDARD
72
0
11
-1000.000
21
450.000
31
0.0
0
TEXT
8
TEXT
10
-2450.000
20
200.000
30
0.0
40
130.000
1
GROUND LEVEL +0.000  (TOP OF 2.0 m COVER OVER THE MAIN ROOF)
7
STANDARD
72
0
11
-2450.000
21
200.000
31
0.0
0
LINE
8
GROUND
10
7750.000
20
900.000
30
0.0
11
9100.000
21
0.000
31
0.0
0
LINE
8
GROUND
10
9100.000
20
0.000
30
0.0
11
11200.000
21
0.000
31
0.0
0
TEXT
8
TEXT
10
7900.000
20
1330.000
30
0.0
40
115.000
1
REV F - COVERED ENTRY STAIRWELL.  THIS CUT IS
7
STANDARD
72
0
11
7900.000
21
1330.000
31
0.0
0
TEXT
8
TEXT
10
7900.000
20
1170.000
30
0.0
40
115.000
1
THROUGH THE PLATFORM AT -2.000; THE FLIGHT AND
7
STANDARD
72
0
11
7900.000
21
1170.000
31
0.0
0
TEXT
8
TEXT
10
7900.000
20
1010.000
30
0.0
40
115.000
1
THE ENTRY DOOR AT GRADE RUN WEST - SEE SECTION C-C.
7
STANDARD
72
0
11
7900.000
21
1010.000
31
0.0
0
TEXT
8
TEXT
10
7900.000
20
850.000
30
0.0
40
115.000
1
BERM 1.5:1 ON THIS FACE ALSO, TOE AT GRADE.
7
STANDARD
72
0
11
7900.000
21
850.000
31
0.0
0
POLYLINE
8
WALLS
66
1
10
0.0
20
0.0
30
0.0
70
1
0
VERTEX
8
WALLS
10
0.000
20
-6700.000
30
0.0
0
VERTEX
8
WALLS
10
6200.000
20
-6700.000
30
0.0
0
VERTEX
8
WALLS
10
6200.000
20
-6100.000
30
0.0
0
VERTEX
8
WALLS
10
0.000
20
-6100.000
30
0.0
0
SEQEND
8
WALLS
0
LINE
8
GROUND
10
0.000
20
-6800.000
30
0.0
11
6200.000
21
-6800.000
31
0.0
0
POLYLINE
8
WALLS
66
1
10
0.0
20
0.0
30
0.0
70
1
0
VERTEX
8
WALLS
10
0.000
20
-2900.000
30
0.0
0
VERTEX
8
WALLS
10
600.000
20
-2900.000
30
0.0
0
VERTEX
8
WALLS
10
600.000
20
-2000.000
30
0.0
0
VERTEX
8
WALLS
10
0.000
20
-2000.000
30
0.0
0
SEQEND
8
WALLS
0
POLYLINE
8
WALLS
66
1
10
0.0
20
0.0
30
0.0
70
1
0
VERTEX
8
WALLS
10
3760.000
20
-2900.000
30
0.0
0
VERTEX
8
WALLS
10
6200.000
20
-2900.000
30
0.0
0
VERTEX
8
WALLS
10
6200.000
20
-2000.000
30
0.0
0
VERTEX
8
WALLS
10
3760.000
20
-2000.000
30
0.0
0
SEQEND
8
WALLS
0
TEXT
8
TEXT
10
4480.000
20
-2510.000
30
0.0
40
110.000
1
900 PRESSURE SLAB
7
STANDARD
72
0
11
4480.000
21
-2510.000
31
0.0
0
POLYLINE
8
WALLS
66
1
10
0.0
20
0.0
30
0.0
70
1
0
VERTEX
8
WALLS
10
0.000
20
-6100.000
30
0.0
0
VERTEX
8
WALLS
10
600.000
20
-6100.000
30
0.0
0
VERTEX
8
WALLS
10
600.000
20
-2900.000
30
0.0
0
VERTEX
8
WALLS
10
0.000
20
-2900.000
30
0.0
0
SEQEND
8
WALLS
0
POLYLINE
8
WALLS
66
1
10
0.0
20
0.0
30
0.0
70
1
0
VERTEX
8
WALLS
10
5600.000
20
-6100.000
30
0.0
0
VERTEX
8
WALLS
10
6200.000
20
-6100.000
30
0.0
0
VERTEX
8
WALLS
10
6200.000
20
-2900.000
30
0.0
0
VERTEX
8
WALLS
10
5600.000
20
-2900.000
30
0.0
0
SEQEND
8
WALLS
0
POLYLINE
8
STAIRS
66
1
10
0.0
20
0.0
30
0.0
70
0
0
VERTEX
8
STAIRS
10
1800.000
20
-6100.000
30
0.0
0
VERTEX
8
STAIRS
10
1800.000
20
-5929.167
30
0.0
0
VERTEX
8
STAIRS
10
2080.000
20
-5929.167
30
0.0
0
VERTEX
8
STAIRS
10
2080.000
20
-5758.334
30
0.0
0
VERTEX
8
STAIRS
10
2360.000
20
-5758.334
30
0.0
0
VERTEX
8
STAIRS
10
2360.000
20
-5587.501
30
0.0
0
VERTEX
8
STAIRS
10
2640.000
20
-5587.501
30
0.0
0
VERTEX
8
STAIRS
10
2640.000
20
-5416.668
30
0.0
0
VERTEX
8
STAIRS
10
2920.000
20
-5416.668
30
0.0
0
VERTEX
8
STAIRS
10
2920.000
20
-5245.835
30
0.0
0
VERTEX
8
STAIRS
10
3200.000
20
-5245.835
30
0.0
0
VERTEX
8
STAIRS
10
3200.000
20
-5075.002
30
0.0
0
VERTEX
8
STAIRS
10
3480.000
20
-5075.002
30
0.0
0
VERTEX
8
STAIRS
10
3480.000
20
-4904.169
30
0.0
0
VERTEX
8
STAIRS
10
3760.000
20
-4904.169
30
0.0
0
VERTEX
8
STAIRS
10
3760.000
20
-4733.336
30
0.0
0
VERTEX
8
STAIRS
10
4040.000
20
-4733.336
30
0.0
0
SEQEND
8
STAIRS
0
POLYLINE
8
STAIRS
66
1
10
0.0
20
0.0
30
0.0
70
0
0
VERTEX
8
STAIRS
10
1800.000
20
-3367.000
30
0.0
0
VERTEX
8
STAIRS
10
1800.000
20
-3196.167
30
0.0
0
VERTEX
8
STAIRS
10
2080.000
20
-3196.167
30
0.0
0
VERTEX
8
STAIRS
10
2080.000
20
-3025.334
30
0.0
0
VERTEX
8
STAIRS
10
2360.000
20
-3025.334
30
0.0
0
VERTEX
8
STAIRS
10
2360.000
20
-2854.501
30
0.0
0
VERTEX
8
STAIRS
10
2640.000
20
-2854.501
30
0.0
0
VERTEX
8
STAIRS
10
2640.000
20
-2683.668
30
0.0
0
VERTEX
8
STAIRS
10
2920.000
20
-2683.668
30
0.0
0
VERTEX
8
STAIRS
10
2920.000
20
-2512.835
30
0.0
0
VERTEX
8
STAIRS
10
3200.000
20
-2512.835
30
0.0
0
VERTEX
8
STAIRS
10
3200.000
20
-2342.002
30
0.0
0
VERTEX
8
STAIRS
10
3480.000
20
-2342.002
30
0.0
0
VERTEX
8
STAIRS
10
3480.000
20
-2171.169
30
0.0
0
VERTEX
8
STAIRS
10
3760.000
20
-2171.169
30
0.0
0
VERTEX
8
STAIRS
10
3760.000
20
-2000.336
30
0.0
0
VERTEX
8
STAIRS
10
4040.000
20
-2000.336
30
0.0
0
SEQEND
8
STAIRS
0
LINE
8
STAIRS
10
1800.000
20
-6100.000
30
0.0
11
3480.000
21
-4903.833
31
0.0
0
LINE
8
STAIRS
10
1800.000
20
-3367.000
30
0.0
11
3480.000
21
-2170.833
31
0.0
0
POLYLINE
8
HIDDEN
66
1
10
0.0
20
0.0
30
0.0
70
0
0
VERTEX
8
HIDDEN
10
3760.000
20
-4733.000
30
0.0
0
VERTEX
8
HIDDEN
10
3760.000
20
-4562.167
30
0.0
0
VERTEX
8
HIDDEN
10
3480.000
20
-4562.167
30
0.0
0
VERTEX
8
HIDDEN
10
3480.000
20
-4391.334
30
0.0
0
VERTEX
8
HIDDEN
10
3200.000
20
-4391.334
30
0.0
0
VERTEX
8
HIDDEN
10
3200.000
20
-4220.501
30
0.0
0
VERTEX
8
HIDDEN
10
2920.000
20
-4220.501
30
0.0
0
VERTEX
8
HIDDEN
10
2920.000
20
-4049.668
30
0.0
0
VERTEX
8
HIDDEN
10
2640.000
20
-4049.668
30
0.0
0
VERTEX
8
HIDDEN
10
2640.000
20
-3878.835
30
0.0
0
VERTEX
8
HIDDEN
10
2360.000
20
-3878.835
30
0.0
0
VERTEX
8
HIDDEN
10
2360.000
20
-3708.002
30
0.0
0
VERTEX
8
HIDDEN
10
2080.000
20
-3708.002
30
0.0
0
VERTEX
8
HIDDEN
10
2080.000
20
-3537.169
30
0.0
0
VERTEX
8
HIDDEN
10
1800.000
20
-3537.169
30
0.0
0
VERTEX
8
HIDDEN
10
1800.000
20
-3366.336
30
0.0
0
VERTEX
8
HIDDEN
10
1520.000
20
-3366.336
30
0.0
0
SEQEND
8
HIDDEN
0
TEXT
8
HIDDEN
10
2400.000
20
-4213.000
30
0.0
40
110.000
1
FLIGHT 2 BEYOND (STRIP B)
7
STANDARD
72
0
11
2400.000
21
-4213.000
31
0.0
0
POLYLINE
8
STAIRS
66
1
10
0.0
20
0.0
30
0.0
70
1
0
VERTEX
8
STAIRS
10
600.000
20
-6300.000
30
0.0
0
VERTEX
8
STAIRS
10
1800.000
20
-6300.000
30
0.0
0
VERTEX
8
STAIRS
10
1800.000
20
-6100.000
30
0.0
0
VERTEX
8
STAIRS
10
600.000
20
-6100.000
30
0.0
0
SEQEND
8
STAIRS
0
POLYLINE
8
STAIRS
66
1
10
0.0
20
0.0
30
0.0
70
1
0
VERTEX
8
STAIRS
10
3760.000
20
-4933.000
30
0.0
0
VERTEX
8
STAIRS
10
4960.000
20
-4933.000
30
0.0
0
VERTEX
8
STAIRS
10
4960.000
20
-4733.000
30
0.0
0
VERTEX
8
STAIRS
10
3760.000
20
-4733.000
30
0.0
0
SEQEND
8
STAIRS
0
POLYLINE
8
STAIRS
66
1
10
0.0
20
0.0
30
0.0
70
1
0
VERTEX
8
STAIRS
10
600.000
20
-3567.000
30
0.0
0
VERTEX
8
STAIRS
10
1800.000
20
-3567.000
30
0.0
0
VERTEX
8
STAIRS
10
1800.000
20
-3367.000
30
0.0
0
VERTEX
8
STAIRS
10
600.000
20
-3367.000
30
0.0
0
SEQEND
8
STAIRS
0
POLYLINE
8
STAIRS
66
1
10
0.0
20
0.0
30
0.0
70
1
0
VERTEX
8
STAIRS
10
3760.000
20
-2200.000
30
0.0
0
VERTEX
8
STAIRS
10
5600.000
20
-2200.000
30
0.0
0
VERTEX
8
STAIRS
10
5600.000
20
-2000.000
30
0.0
0
VERTEX
8
STAIRS
10
3760.000
20
-2000.000
30
0.0
0
SEQEND
8
STAIRS
0
POLYLINE
8
HIDDEN
66
1
10
0.0
20
0.0
30
0.0
70
1
0
VERTEX
8
HIDDEN
10
3760.000
20
-6100.000
30
0.0
0
VERTEX
8
HIDDEN
10
4960.000
20
-6100.000
30
0.0
0
VERTEX
8
HIDDEN
10
4960.000
20
-4933.000
30
0.0
0
VERTEX
8
HIDDEN
10
3760.000
20
-4933.000
30
0.0
0
SEQEND
8
HIDDEN
0
TEXT
8
TEXT
10
3880.000
20
-5720.000
30
0.0
40
100.000
1
STORE UNDER
7
STANDARD
72
0
11
3880.000
21
-5720.000
31
0.0
0
TEXT
8
TEXT
10
3880.000
20
-5880.000
30
0.0
40
100.000
1
LANDING L1
7
STANDARD
72
0
11
3880.000
21
-5880.000
31
0.0
0
POLYLINE
8
WALLS
66
1
10
0.0
20
0.0
30
0.0
70
1
0
VERTEX
8
WALLS
10
200.000
20
-2000.000
30
0.0
0
VERTEX
8
WALLS
10
600.000
20
-2000.000
30
0.0
0
VERTEX
8
WALLS
10
600.000
20
400.000
30
0.0
0
VERTEX
8
WALLS
10
200.000
20
400.000
30
0.0
0
SEQEND
8
WALLS
0
POLYLINE
8
WALLS
66
1
10
0.0
20
0.0
30
0.0
70
1
0
VERTEX
8
WALLS
10
5600.000
20
-2000.000
30
0.0
0
VERTEX
8
WALLS
10
6000.000
20
-2000.000
30
0.0
0
VERTEX
8
WALLS
10
6000.000
20
400.000
30
0.0
0
VERTEX
8
WALLS
10
5600.000
20
400.000
30
0.0
0
SEQEND
8
WALLS
0
POLYLINE
8
WALLS
66
1
10
0.0
20
0.0
30
0.0
70
1
0
VERTEX
8
WALLS
10
200.000
20
400.000
30
0.0
0
VERTEX
8
WALLS
10
6000.000
20
400.000
30
0.0
0
VERTEX
8
WALLS
10
6000.000
20
900.000
30
0.0
0
VERTEX
8
WALLS
10
200.000
20
900.000
30
0.0
0
SEQEND
8
WALLS
0
TEXT
8
TEXT
10
2600.000
20
20.000
30
0.0
40
130.000
1
HEADHOUSE  4.000 x 5.000 int, 2.400 CLEAR
7
STANDARD
72
0
11
2600.000
21
20.000
31
0.0
0
POLYLINE
8
OPENINGS
66
1
10
0.0
20
0.0
30
0.0
70
1
0
VERTEX
8
OPENINGS
10
5600.000
20
-2000.000
30
0.0
0
VERTEX
8
OPENINGS
10
6000.000
20
-2000.000
30
0.0
0
VERTEX
8
OPENINGS
10
6000.000
20
100.000
30
0.0
0
VERTEX
8
OPENINGS
10
5600.000
20
100.000
30
0.0
0
SEQEND
8
OPENINGS
0
TEXT
8
TEXT
10
6120.000
20
-1100.000
30
0.0
40
120.000
1
INNER SECURITY DOOR
7
STANDARD
72
0
11
6120.000
21
-1100.000
31
0.0
0
TEXT
8
TEXT
10
6120.000
20
-1260.000
30
0.0
40
100.000
1
900 x 2100 - SECOND IN SERIES
7
STANDARD
72
0
11
6120.000
21
-1260.000
31
0.0
0
TEXT
8
HIDDEN
10
6120.000
20
-1440.000
30
0.0
40
95.000
1
(BEYOND - IN THE N WALL)
7
STANDARD
72
0
11
6120.000
21
-1440.000
31
0.0
0
POLYLINE
8
GROUND
66
1
10
0.0
20
0.0
30
0.0
70
1
0
VERTEX
8
GROUND
10
6000.000
20
-2250.000
30
0.0
0
VERTEX
8
GROUND
10
7500.000
20
-2250.000
30
0.0
0
VERTEX
8
GROUND
10
7500.000
20
-2000.000
30
0.0
0
VERTEX
8
GROUND
10
6000.000
20
-2000.000
30
0.0
0
SEQEND
8
GROUND
0
POLYLINE
8
WALLS
66
1
10
0.0
20
0.0
30
0.0
70
1
0
VERTEX
8
WALLS
10
7500.000
20
-2250.000
30
0.0
0
VERTEX
8
WALLS
10
7750.000
20
-2250.000
30
0.0
0
VERTEX
8
WALLS
10
7750.000
20
900.000
30
0.0
0
VERTEX
8
WALLS
10
7500.000
20
900.000
30
0.0
0
SEQEND
8
WALLS
0
POLYLINE
8
WALLS
66
1
10
0.0
20
0.0
30
0.0
70
1
0
VERTEX
8
WALLS
10
6000.000
20
400.000
30
0.0
0
VERTEX
8
WALLS
10
7500.000
20
400.000
30
0.0
0
VERTEX
8
WALLS
10
7500.000
20
900.000
30
0.0
0
VERTEX
8
WALLS
10
6000.000
20
900.000
30
0.0
0
SEQEND
8
WALLS
0
TEXT
8
TEXT
10
6100.000
20
-2500.000
30
0.0
40
110.000
1
STAIRWELL PLATFORM  -2.000 (COVERED)
7
STANDARD
72
0
11
6100.000
21
-2500.000
31
0.0
0
TEXT
8
HIDDEN
10
6100.000
20
-2660.000
30
0.0
40
95.000
1
12R @ 166.7 / 300 BEYOND, RUN WEST TO THE
7
STANDARD
72
0
11
6100.000
21
-2660.000
31
0.0
0
TEXT
8
HIDDEN
10
6100.000
20
-2820.000
30
0.0
40
95.000
1
ENTRY DOOR AT GRADE - SEE SECTION C-C
7
STANDARD
72
0
11
6100.000
21
-2820.000
31
0.0
0
TEXT
8
TEXT
10
6100.000
20
-500.000
30
0.0
40
110.000
1
90 DEG DOG-LEG
7
STANDARD
72
0
11
6100.000
21
-500.000
31
0.0
0
TEXT
8
TEXT
10
6100.000
20
70.000
30
0.0
40
105.000
1
ROOF CONTINUOUS WITH THE HEADHOUSE ROOF
7
STANDARD
72
0
11
6100.000
21
70.000
31
0.0
0
POLYLINE
8
HIDDEN
66
1
10
0.0
20
0.0
30
0.0
70
1
0
VERTEX
8
HIDDEN
10
750.000
20
-6100.000
30
0.0
0
VERTEX
8
HIDDEN
10
1650.000
20
-6100.000
30
0.0
0
VERTEX
8
HIDDEN
10
1650.000
20
-4000.000
30
0.0
0
VERTEX
8
HIDDEN
10
750.000
20
-4000.000
30
0.0
0
SEQEND
8
HIDDEN
0
TEXT
8
HIDDEN
10
700.000
20
-3840.000
30
0.0
40
100.000
1
BLAST DOOR 1 -> AIRLOCK (BEYOND)
7
STANDARD
72
0
11
700.000
21
-3840.000
31
0.0
0
TEXT
8
HIDDEN
10
700.000
20
-4000.000
30
0.0
40
100.000
1
BLAST DOOR 2 -> GENERATOR (BEYOND)
7
STANDARD
72
0
11
700.000
21
-4000.000
31
0.0
0
TEXT
8
TEXT
10
2050.000
20
-5400.000
30
0.0
40
120.000
1
FLIGHT 1  8R @ 170.8
7
STANDARD
72
0
11
2050.000
21
-5400.000
31
0.0
0
TEXT
8
TEXT
10
2050.000
20
-2667.000
30
0.0
40
120.000
1
FLIGHT 3  8R @ 170.8
7
STANDARD
72
0
11
2050.000
21
-2667.000
31
0.0
0
TEXT
8
TEXT
10
3840.000
20
-4553.000
30
0.0
40
110.000
1
LANDING L1  -4.733
7
STANDARD
72
0
11
3840.000
21
-4553.000
31
0.0
0
TEXT
8
TEXT
10
680.000
20
-3187.000
30
0.0
40
110.000
1
LANDING L2  -3.367
7
STANDARD
72
0
11
680.000
21
-3187.000
31
0.0
0
TEXT
8
TEXT
10
680.000
20
-5920.000
30
0.0
40
110.000
1
ARRIVAL LANDING  -6.100
7
STANDARD
72
0
11
680.000
21
-5920.000
31
0.0
0
TEXT
8
TEXT
10
3840.000
20
-1820.000
30
0.0
40
110.000
1
HEADHOUSE FLOOR  -2.000
7
STANDARD
72
0
11
3840.000
21
-1820.000
31
0.0
0
TEXT
8
TEXT
10
150.000
20
-5800.000
30
0.0
40
120.000
1
UNDERGROUND LEVEL  -6.100
7
STANDARD
72
0
11
150.000
21
-5800.000
31
0.0
0
LINE
8
DIM
10
2080.000
20
-5670.000
30
0.0
11
3340.000
21
-4493.000
31
0.0
0
LINE
8
DIM
10
3340.000
20
-4493.000
30
0.0
11
3000.000
21
-4433.000
31
0.0
0
LINE
8
DIM
10
3340.000
20
-4493.000
30
0.0
11
3140.000
21
-4753.000
31
0.0
0
TEXT
8
TEXT
10
1920.000
20
-5580.000
30
0.0
40
130.000
1
UP
7
STANDARD
72
0
11
1920.000
21
-5580.000
31
0.0
0
LINE
8
DIM
10
2080.000
20
-2937.000
30
0.0
11
3340.000
21
-1760.000
31
0.0
0
LINE
8
DIM
10
3340.000
20
-1760.000
30
0.0
11
3000.000
21
-1700.000
31
0.0
0
LINE
8
DIM
10
3340.000
20
-1760.000
30
0.0
11
3140.000
21
-2020.000
31
0.0
0
TEXT
8
TEXT
10
1920.000
20
-2847.000
30
0.0
40
130.000
1
UP
7
STANDARD
72
0
11
1920.000
21
-2847.000
31
0.0
0
LINE
8
DIM
10
-1900.000
20
-6100.000
30
0.0
11
-1900.000
21
-2000.000
31
0.0
0
LINE
8
DIM
10
-1990.000
20
-6190.000
30
0.0
11
-1810.000
21
-6010.000
31
0.0
0
LINE
8
DIM
10
-2080.000
20
-6100.000
30
0.0
11
-1720.000
21
-6100.000
31
0.0
0
LINE
8
DIM
10
-1990.000
20
-2090.000
30
0.0
11
-1810.000
21
-1910.000
31
0.0
0
LINE
8
DIM
10
-2080.000
20
-2000.000
30
0.0
11
-1720.000
21
-2000.000
31
0.0
0
TEXT
8
DIM
10
-1972.000
20
-4050.000
30
0.0
40
120.000
1
4100 RISE  24R @ 170.8
50
90.000
7
STANDARD
72
1
11
-1972.000
21
-4050.000
31
0.0
0
LINE
8
DIM
10
-1100.000
20
-2000.000
30
0.0
11
-1100.000
21
400.000
31
0.0
0
LINE
8
DIM
10
-1190.000
20
-2090.000
30
0.0
11
-1010.000
21
-1910.000
31
0.0
0
LINE
8
DIM
10
-1280.000
20
-2000.000
30
0.0
11
-920.000
21
-2000.000
31
0.0
0
LINE
8
DIM
10
-1190.000
20
310.000
30
0.0
11
-1010.000
21
490.000
31
0.0
0
LINE
8
DIM
10
-1280.000
20
400.000
30
0.0
11
-920.000
21
400.000
31
0.0
0
TEXT
8
DIM
10
-1172.000
20
-800.000
30
0.0
40
120.000
1
2400 CLEAR
50
90.000
7
STANDARD
72
1
11
-1172.000
21
-800.000
31
0.0
0
LINE
8
DIM
10
9700.000
20
0.000
30
0.0
11
9700.000
21
900.000
31
0.0
0
LINE
8
DIM
10
9610.000
20
-90.000
30
0.0
11
9790.000
21
90.000
31
0.0
0
LINE
8
DIM
10
9520.000
20
0.000
30
0.0
11
9880.000
21
0.000
31
0.0
0
LINE
8
DIM
10
9610.000
20
810.000
30
0.0
11
9790.000
21
990.000
31
0.0
0
LINE
8
DIM
10
9520.000
20
900.000
30
0.0
11
9880.000
21
900.000
31
0.0
0
TEXT
8
DIM
10
9628.000
20
450.000
30
0.0
40
120.000
1
900
50
90.000
7
STANDARD
72
1
11
9628.000
21
450.000
31
0.0
0
LINE
8
DIM
10
10500.000
20
-2000.000
30
0.0
11
10500.000
21
0.000
31
0.0
0
LINE
8
DIM
10
10410.000
20
-2090.000
30
0.0
11
10590.000
21
-1910.000
31
0.0
0
LINE
8
DIM
10
10320.000
20
-2000.000
30
0.0
11
10680.000
21
-2000.000
31
0.0
0
LINE
8
DIM
10
10410.000
20
-90.000
30
0.0
11
10590.000
21
90.000
31
0.0
0
LINE
8
DIM
10
10320.000
20
0.000
30
0.0
11
10680.000
21
0.000
31
0.0
0
TEXT
8
DIM
10
10428.000
20
-1000.000
30
0.0
40
120.000
1
2000
50
90.000
7
STANDARD
72
1
11
10428.000
21
-1000.000
31
0.0
0
LINE
8
DIM
10
1800.000
20
-7400.000
30
0.0
11
3760.000
21
-7400.000
31
0.0
0
LINE
8
DIM
10
1710.000
20
-7490.000
30
0.0
11
1890.000
21
-7310.000
31
0.0
0
LINE
8
DIM
10
1800.000
20
-7580.000
30
0.0
11
1800.000
21
-7220.000
31
0.0
0
LINE
8
DIM
10
3670.000
20
-7490.000
30
0.0
11
3850.000
21
-7310.000
31
0.0
0
LINE
8
DIM
10
3760.000
20
-7580.000
30
0.0
11
3760.000
21
-7220.000
31
0.0
0
TEXT
8
DIM
10
2780.000
20
-7328.000
30
0.0
40
120.000
1
1960 GOING 7 x 280
7
STANDARD
72
1
11
2780.000
21
-7328.000
31
0.0
0
LINE
8
DIM
10
600.000
20
-7400.000
30
0.0
11
1800.000
21
-7400.000
31
0.0
0
LINE
8
DIM
10
510.000
20
-7490.000
30
0.0
11
690.000
21
-7310.000
31
0.0
0
LINE
8
DIM
10
600.000
20
-7580.000
30
0.0
11
600.000
21
-7220.000
31
0.0
0
LINE
8
DIM
10
1710.000
20
-7490.000
30
0.0
11
1890.000
21
-7310.000
31
0.0
0
LINE
8
DIM
10
1800.000
20
-7580.000
30
0.0
11
1800.000
21
-7220.000
31
0.0
0
TEXT
8
DIM
10
1200.000
20
-7328.000
30
0.0
40
120.000
1
1200
7
STANDARD
72
1
11
1200.000
21
-7328.000
31
0.0
0
LINE
8
DIM
10
3760.000
20
-7400.000
30
0.0
11
5600.000
21
-7400.000
31
0.0
0
LINE
8
DIM
10
3670.000
20
-7490.000
30
0.0
11
3850.000
21
-7310.000
31
0.0
0
LINE
8
DIM
10
3760.000
20
-7580.000
30
0.0
11
3760.000
21
-7220.000
31
0.0
0
LINE
8
DIM
10
5510.000
20
-7490.000
30
0.0
11
5690.000
21
-7310.000
31
0.0
0
LINE
8
DIM
10
5600.000
20
-7580.000
30
0.0
11
5600.000
21
-7220.000
31
0.0
0
TEXT
8
DIM
10
4680.000
20
-7328.000
30
0.0
40
120.000
1
1840 FLOOR PAD
7
STANDARD
72
1
11
4680.000
21
-7328.000
31
0.0
0
LINE
8
DIM
10
200.000
20
1800.000
30
0.0
11
6000.000
21
1800.000
31
0.0
0
LINE
8
DIM
10
110.000
20
1710.000
30
0.0
11
290.000
21
1890.000
31
0.0
0
LINE
8
DIM
10
200.000
20
1620.000
30
0.0
11
200.000
21
1980.000
31
0.0
0
LINE
8
DIM
10
5910.000
20
1710.000
30
0.0
11
6090.000
21
1890.000
31
0.0
0
LINE
8
DIM
10
6000.000
20
1620.000
30
0.0
11
6000.000
21
1980.000
31
0.0
0
TEXT
8
DIM
10
3100.000
20
1872.000
30
0.0
40
120.000
1
5800 HEADHOUSE EXTERNAL
7
STANDARD
72
1
11
3100.000
21
1872.000
31
0.0
0
LINE
8
DIM
10
600.000
20
-8200.000
30
0.0
11
5600.000
21
-8200.000
31
0.0
0
LINE
8
DIM
10
510.000
20
-8290.000
30
0.0
11
690.000
21
-8110.000
31
0.0
0
LINE
8
DIM
10
600.000
20
-8380.000
30
0.0
11
600.000
21
-8020.000
31
0.0
0
LINE
8
DIM
10
5510.000
20
-8290.000
30
0.0
11
5690.000
21
-8110.000
31
0.0
0
LINE
8
DIM
10
5600.000
20
-8380.000
30
0.0
11
5600.000
21
-8020.000
31
0.0
0
TEXT
8
DIM
10
3100.000
20
-8128.000
30
0.0
40
120.000
1
5000 SHAFT CLEAR
7
STANDARD
72
1
11
3100.000
21
-8128.000
31
0.0
0
LINE
8
DIM
10
2500.000
20
-5490.000
30
0.0
11
2500.000
21
-2757.000
31
0.0
0
TEXT
8
TEXT
10
2600.000
20
-4124.000
30
0.0
40
110.000
1
2533 HEADROOM
7
STANDARD
72
0
11
2600.000
21
-4124.000
31
0.0
0
TEXT
8
TEXT
10
-2600.000
20
3100.000
30
0.0
40
320.000
1
SECTION A-A   STAIRCASE - LONGITUDINAL
7
STANDARD
72
0
11
-2600.000
21
3100.000
31
0.0
0
TEXT
8
TEXT
10
-2600.000
20
2700.000
30
0.0
40
150.000
1
UNDERGROUND -6.100  ->  STAIR  ->  HEADHOUSE FLOOR -2.000  ->  INNER DOOR  ->  COVERED STAIRWELL  ->  ENTRY DOOR AT GRADE 0.000  (REV F)
7
STANDARD
72
0
11
-2600.000
21
2700.000
31
0.0
0
TEXT
8
TEXT
10
-2600.000
20
2450.000
30
0.0
40
130.000
1
SCALE 1:50   ALL DIMENSIONS mm   LEVELS m
7
STANDARD
72
0
11
-2600.000
21
2450.000
31
0.0
0
ENDSEC
0
EOF
