  0
SECTION
  2
HEADER
  9
$ACADVER
  1
AC1009
  9
$DWGCODEPAGE
  3
ANSI_1252
  9
$EXTMIN
 10
1e+20
 20
1e+20
 30
1e+20
  9
$EXTMAX
 10
-1e+20
 20
-1e+20
 30
-1e+20
  9
$LIMMIN
 10
0.0
 20
0.0
  9
$LIMMAX
 10
420.0
 20
297.0
  9
$LTSCALE
 40
25.0
  9
$LIMCHECK
 70
0
  9
$TDCREATE
 40
2461293.7117592595
  9
$TDUPDATE
 40
2461293.7117592595
  9
$PEXTMIN
 10
1e+20
 20
1e+20
 30
1e+20
  9
$PEXTMAX
 10
-1e+20
 20
-1e+20
 30
-1e+20
  9
$PLIMMIN
 10
0.0
 20
0.0
  9
$PLIMMAX
 10
420.0
 20
297.0
  0
ENDSEC
  0
SECTION
  2
TABLES
  0
TABLE
  2
VPORT
 70
1
  0
VPORT
  2
*Active
 70
0
 10
0.0
 20
0.0
 11
1.0
 21
1.0
 12
0.0
 22
0.0
 13
0.0
 23
0.0
 14
0.5
 24
0.5
 15
0.5
 25
0.5
 16
0.0
 26
0.0
 36
1.0
 17
0.0
 27
0.0
 37
0.0
 40
1000.0
 41
1.34
 42
50.0
 43
0.0
 44
0.0
 50
0.0
 51
0.0
 71
0
 72
1000
 73
1
 74
3
 75
0
 76
0
 77
0
 78
0
  0
ENDTAB
  0
TABLE
  2
LTYPE
 70
5
  0
LTYPE
  2
CONTINUOUS
 70
0
  3
Solid line
 72
65
 73
0
 40
0.0
  0
LTYPE
  2
DASHED
 70
0
  3
Dashed __ __ __
 72
65
 73
2
 40
15.0
 49
10.0
 49
-5.0
  0
LTYPE
  2
CENTER
 70
0
  3
Centre ____ _ ____
 72
65
 73
4
 40
50.0
 49
32.0
 49
-6.0
 49
6.0
 49
-6.0
  0
LTYPE
  2
ByBlock
 70
0
  3

 72
65
 73
0
 40
0.0
  0
LTYPE
  2
ByLayer
 70
0
  3

 72
65
 73
0
 40
0.0
  0
ENDTAB
  0
TABLE
  2
LAYER
 70
15
  0
LAYER
  2
0
 70
0
 62
7
  6
CONTINUOUS
  0
LAYER
  2
WALLS
 70
0
 62
7
  6
CONTINUOUS
  0
LAYER
  2
OPENINGS
 70
0
 62
1
  6
CONTINUOUS
  0
LAYER
  2
STAIRS
 70
0
 62
3
  6
CONTINUOUS
  0
LAYER
  2
GROUND
 70
0
 62
42
  6
CONTINUOUS
  0
LAYER
  2
TEXT
 70
0
 62
2
  6
CONTINUOUS
  0
LAYER
  2
DIM
 70
0
 62
4
  6
CONTINUOUS
  0
LAYER
  2
HIDDEN
 70
0
 62
8
  6
DASHED
  0
LAYER
  2
CENTRE
 70
0
 62
6
  6
CENTER
  0
LAYER
  2
BEYOND
 70
0
 62
9
  6
CONTINUOUS
  0
LAYER
  2
Defpoints
 70
0
 62
7
  6
Continuous
  0
LAYER
  2
LEADER
 70
0
 62
7
  6
Continuous
  0
LAYER
  2
SHEET-BORDER
 70
0
 62
7
  6
Continuous
  0
LAYER
  2
SHEET-TITLEBLOCK
 70
0
 62
7
  6
Continuous
  0
LAYER
  2
SHEET-TEXT
 70
0
 62
7
  6
Continuous
  0
ENDTAB
  0
TABLE
  2
STYLE
 70
1
  0
STYLE
  2
STANDARD
 70
0
 40
0.0
 41
1.0
 50
0.0
 71
0
 42
2.5
  3
txt
  4

  0
ENDTAB
  0
TABLE
  2
VIEW
 70
0
  0
ENDTAB
  0
TABLE
  2
UCS
 70
0
  0
ENDTAB
  0
TABLE
  2
APPID
 70
3
  0
APPID
  2
ACAD
 70
0
  0
APPID
  2
HATCHBACKGROUNDCOLOR
 70
0
  0
APPID
  2
EZDXF
 70
0
  0
ENDTAB
  0
TABLE
  2
DIMSTYLE
 70
1
  0
DIMSTYLE
  2
Standard
 70
0
  3

  4

  5

  6

  7

 40
1.0
 41
2.5
 42
0.625
 43
3.75
 44
1.25
 45
0.0
 46
0.0
 47
0.0
 48
0.0
140
2.5
141
2.5
142
0.0
143
0.03937007874
144
1.0
145
0.0
146
1.0
147
0.625
 71
0
 72
0
 73
0
 74
0
 75
0
 76
0
 77
1
 78
8
170
0
171
3
172
1
173
0
174
0
175
0
176
0
177
0
178
0
  0
ENDTAB
  0
ENDSEC
  0
SECTION
  2
BLOCKS
  0
BLOCK
  8
0
  2
$Model_Space
 70
0
 10
0.0
 20
0.0
 30
0.0
  3
$Model_Space
  1

1001
EZDXF
1000
WRITTEN_BY_EZDXF
1000
1.4.4 @ 2026-09-09T17:04:56.620318+00:00
  0
ENDBLK
  8
0
  0
BLOCK
  8
0
  2
$Paper_Space
 70
0
 10
0.0
 20
0.0
 30
0.0
  3
$Paper_Space
  1

  0
ENDBLK
  8
0
  0
ENDSEC
  0
SECTION
  2
ENTITIES
  0
LINE
  8
GROUND
 10
-2600.0
 20
0.0
 30
0.0
 11
-1150.0
 21
0.0
 31
0.0
  0
LINE
  8
GROUND
 10
-1150.0
 20
0.0
 30
0.0
 11
200.0
 21
900.0
 31
0.0
  0
LINE
  8
GROUND
 10
200.0
 20
900.0
 30
0.0
 11
7750.0
 21
900.0
 31
0.0
  0
TEXT
  8
TEXT
 10
-1000.0
 20
450.0
 30
0.0
 40
130.0
  1
BERM 1.5:1
  7
STANDARD
 11
-1000.0
 21
450.0
 31
0.0
  0
TEXT
  8
TEXT
 10
-2450.0
 20
960.5
 30
0.0
 40
130.0
  1
GROUND LEVEL +0.000  (TOP OF 2.0 m COVER OVER THE MAIN ROOF)
  7
STANDARD
 11
-2450.0
 21
960.5
 31
0.0
  0
LINE
  8
GROUND
 10
7750.0
 20
900.0
 30
0.0
 11
9100.0
 21
0.0
 31
0.0
  0
LINE
  8
GROUND
 10
9100.0
 20
0.0
 30
0.0
 11
11200.0
 21
0.0
 31
0.0
  0
TEXT
  8
TEXT
 10
7900.0
 20
1330.0
 30
0.0
 40
115.0
  1
REV F - COVERED ENTRY STAIRWELL.  THIS CUT IS
  7
STANDARD
 11
7900.0
 21
1330.0
 31
0.0
  0
TEXT
  8
TEXT
 10
7900.0
 20
1170.0
 30
0.0
 40
115.0
  1
THROUGH THE PLATFORM AT -2.000; THE FLIGHT AND
  7
STANDARD
 11
7900.0
 21
1170.0
 31
0.0
  0
TEXT
  8
TEXT
 10
7900.0
 20
1010.0
 30
0.0
 40
115.0
  1
THE ENTRY DOOR AT GRADE RUN WEST - SEE SECTION C-C.
  7
STANDARD
 11
7900.0
 21
1010.0
 31
0.0
  0
TEXT
  8
TEXT
 10
7900.0
 20
1471.0
 30
0.0
 40
115.0
  1
BERM 1.5:1 ON THIS FACE ALSO, TOE AT GRADE.
  7
STANDARD
 11
7900.0
 21
1471.0
 31
0.0
  0
POLYLINE
  8
WALLS
 66
1
 10
0.0
 20
0.0
 30
0.0
 70
1
  0
VERTEX
  8
WALLS
 10
0.0
 20
-6700.0
 30
0.0
 70
0
  0
VERTEX
  8
WALLS
 10
6200.0
 20
-6700.0
 30
0.0
 70
0
  0
VERTEX
  8
WALLS
 10
6200.0
 20
-6100.0
 30
0.0
 70
0
  0
VERTEX
  8
WALLS
 10
0.0
 20
-6100.0
 30
0.0
 70
0
  0
SEQEND
  8
WALLS
  0
LINE
  8
GROUND
 10
0.0
 20
-6800.0
 30
0.0
 11
6200.0
 21
-6800.0
 31
0.0
  0
POLYLINE
  8
WALLS
 66
1
 10
0.0
 20
0.0
 30
0.0
 70
1
  0
VERTEX
  8
WALLS
 10
0.0
 20
-2900.0
 30
0.0
 70
0
  0
VERTEX
  8
WALLS
 10
600.0
 20
-2900.0
 30
0.0
 70
0
  0
VERTEX
  8
WALLS
 10
600.0
 20
-2000.0
 30
0.0
 70
0
  0
VERTEX
  8
WALLS
 10
0.0
 20
-2000.0
 30
0.0
 70
0
  0
SEQEND
  8
WALLS
  0
POLYLINE
  8
WALLS
 66
1
 10
0.0
 20
0.0
 30
0.0
 70
1
  0
VERTEX
  8
WALLS
 10
3760.0
 20
-2900.0
 30
0.0
 70
0
  0
VERTEX
  8
WALLS
 10
6200.0
 20
-2900.0
 30
0.0
 70
0
  0
VERTEX
  8
WALLS
 10
6200.0
 20
-2000.0
 30
0.0
 70
0
  0
VERTEX
  8
WALLS
 10
3760.0
 20
-2000.0
 30
0.0
 70
0
  0
SEQEND
  8
WALLS
  0
TEXT
  8
TEXT
 10
4480.0
 20
-2510.0
 30
0.0
 40
110.0
  1
900 PRESSURE SLAB
  7
STANDARD
 11
4480.0
 21
-2510.0
 31
0.0
  0
POLYLINE
  8
WALLS
 66
1
 10
0.0
 20
0.0
 30
0.0
 70
1
  0
VERTEX
  8
WALLS
 10
0.0
 20
-6100.0
 30
0.0
 70
0
  0
VERTEX
  8
WALLS
 10
600.0
 20
-6100.0
 30
0.0
 70
0
  0
VERTEX
  8
WALLS
 10
600.0
 20
-2900.0
 30
0.0
 70
0
  0
VERTEX
  8
WALLS
 10
0.0
 20
-2900.0
 30
0.0
 70
0
  0
SEQEND
  8
WALLS
  0
POLYLINE
  8
WALLS
 66
1
 10
0.0
 20
0.0
 30
0.0
 70
1
  0
VERTEX
  8
WALLS
 10
5600.0
 20
-6100.0
 30
0.0
 70
0
  0
VERTEX
  8
WALLS
 10
6200.0
 20
-6100.0
 30
0.0
 70
0
  0
VERTEX
  8
WALLS
 10
6200.0
 20
-2900.0
 30
0.0
 70
0
  0
VERTEX
  8
WALLS
 10
5600.0
 20
-2900.0
 30
0.0
 70
0
  0
SEQEND
  8
WALLS
  0
POLYLINE
  8
STAIRS
 66
1
 10
0.0
 20
0.0
 30
0.0
 70
0
  0
VERTEX
  8
STAIRS
 10
1800.0
 20
-6100.0
 30
0.0
 70
0
  0
VERTEX
  8
STAIRS
 10
1800.0
 20
-5929.167
 30
0.0
 70
0
  0
VERTEX
  8
STAIRS
 10
2080.0
 20
-5929.167
 30
0.0
 70
0
  0
VERTEX
  8
STAIRS
 10
2080.0
 20
-5758.334
 30
0.0
 70
0
  0
VERTEX
  8
STAIRS
 10
2360.0
 20
-5758.334
 30
0.0
 70
0
  0
VERTEX
  8
STAIRS
 10
2360.0
 20
-5587.501
 30
0.0
 70
0
  0
VERTEX
  8
STAIRS
 10
2640.0
 20
-5587.501
 30
0.0
 70
0
  0
VERTEX
  8
STAIRS
 10
2640.0
 20
-5416.668
 30
0.0
 70
0
  0
VERTEX
  8
STAIRS
 10
2920.0
 20
-5416.668
 30
0.0
 70
0
  0
VERTEX
  8
STAIRS
 10
2920.0
 20
-5245.835
 30
0.0
 70
0
  0
VERTEX
  8
STAIRS
 10
3200.0
 20
-5245.835
 30
0.0
 70
0
  0
VERTEX
  8
STAIRS
 10
3200.0
 20
-5075.002
 30
0.0
 70
0
  0
VERTEX
  8
STAIRS
 10
3480.0
 20
-5075.002
 30
0.0
 70
0
  0
VERTEX
  8
STAIRS
 10
3480.0
 20
-4904.169
 30
0.0
 70
0
  0
VERTEX
  8
STAIRS
 10
3760.0
 20
-4904.169
 30
0.0
 70
0
  0
VERTEX
  8
STAIRS
 10
3760.0
 20
-4733.336
 30
0.0
 70
0
  0
VERTEX
  8
STAIRS
 10
4040.0
 20
-4733.336
 30
0.0
 70
0
  0
SEQEND
  8
STAIRS
  0
POLYLINE
  8
STAIRS
 66
1
 10
0.0
 20
0.0
 30
0.0
 70
0
  0
VERTEX
  8
STAIRS
 10
1800.0
 20
-3367.0
 30
0.0
 70
0
  0
VERTEX
  8
STAIRS
 10
1800.0
 20
-3196.167
 30
0.0
 70
0
  0
VERTEX
  8
STAIRS
 10
2080.0
 20
-3196.167
 30
0.0
 70
0
  0
VERTEX
  8
STAIRS
 10
2080.0
 20
-3025.334
 30
0.0
 70
0
  0
VERTEX
  8
STAIRS
 10
2360.0
 20
-3025.334
 30
0.0
 70
0
  0
VERTEX
  8
STAIRS
 10
2360.0
 20
-2854.501
 30
0.0
 70
0
  0
VERTEX
  8
STAIRS
 10
2640.0
 20
-2854.501
 30
0.0
 70
0
  0
VERTEX
  8
STAIRS
 10
2640.0
 20
-2683.668
 30
0.0
 70
0
  0
VERTEX
  8
STAIRS
 10
2920.0
 20
-2683.668
 30
0.0
 70
0
  0
VERTEX
  8
STAIRS
 10
2920.0
 20
-2512.835
 30
0.0
 70
0
  0
VERTEX
  8
STAIRS
 10
3200.0
 20
-2512.835
 30
0.0
 70
0
  0
VERTEX
  8
STAIRS
 10
3200.0
 20
-2342.002
 30
0.0
 70
0
  0
VERTEX
  8
STAIRS
 10
3480.0
 20
-2342.002
 30
0.0
 70
0
  0
VERTEX
  8
STAIRS
 10
3480.0
 20
-2171.169
 30
0.0
 70
0
  0
VERTEX
  8
STAIRS
 10
3760.0
 20
-2171.169
 30
0.0
 70
0
  0
VERTEX
  8
STAIRS
 10
3760.0
 20
-2000.336
 30
0.0
 70
0
  0
VERTEX
  8
STAIRS
 10
4040.0
 20
-2000.336
 30
0.0
 70
0
  0
SEQEND
  8
STAIRS
  0
LINE
  8
STAIRS
 10
1800.0
 20
-6100.0
 30
0.0
 11
3480.0
 21
-4903.833
 31
0.0
  0
LINE
  8
STAIRS
 10
1800.0
 20
-3367.0
 30
0.0
 11
3480.0
 21
-2170.833
 31
0.0
  0
POLYLINE
  8
HIDDEN
 66
1
 10
0.0
 20
0.0
 30
0.0
 70
0
  0
VERTEX
  8
HIDDEN
 10
3760.0
 20
-4733.0
 30
0.0
 70
0
  0
VERTEX
  8
HIDDEN
 10
3760.0
 20
-4562.167
 30
0.0
 70
0
  0
VERTEX
  8
HIDDEN
 10
3480.0
 20
-4562.167
 30
0.0
 70
0
  0
VERTEX
  8
HIDDEN
 10
3480.0
 20
-4391.334
 30
0.0
 70
0
  0
VERTEX
  8
HIDDEN
 10
3200.0
 20
-4391.334
 30
0.0
 70
0
  0
VERTEX
  8
HIDDEN
 10
3200.0
 20
-4220.501
 30
0.0
 70
0
  0
VERTEX
  8
HIDDEN
 10
2920.0
 20
-4220.501
 30
0.0
 70
0
  0
VERTEX
  8
HIDDEN
 10
2920.0
 20
-4049.668
 30
0.0
 70
0
  0
VERTEX
  8
HIDDEN
 10
2640.0
 20
-4049.668
 30
0.0
 70
0
  0
VERTEX
  8
HIDDEN
 10
2640.0
 20
-3878.835
 30
0.0
 70
0
  0
VERTEX
  8
HIDDEN
 10
2360.0
 20
-3878.835
 30
0.0
 70
0
  0
VERTEX
  8
HIDDEN
 10
2360.0
 20
-3708.002
 30
0.0
 70
0
  0
VERTEX
  8
HIDDEN
 10
2080.0
 20
-3708.002
 30
0.0
 70
0
  0
VERTEX
  8
HIDDEN
 10
2080.0
 20
-3537.169
 30
0.0
 70
0
  0
VERTEX
  8
HIDDEN
 10
1800.0
 20
-3537.169
 30
0.0
 70
0
  0
VERTEX
  8
HIDDEN
 10
1800.0
 20
-3366.336
 30
0.0
 70
0
  0
VERTEX
  8
HIDDEN
 10
1520.0
 20
-3366.336
 30
0.0
 70
0
  0
SEQEND
  8
HIDDEN
  0
TEXT
  8
HIDDEN
 10
2400.0
 20
-4262.5
 30
0.0
 40
110.0
  1
FLIGHT 2 BEYOND (STRIP B)
  7
STANDARD
 11
2400.0
 21
-4262.5
 31
0.0
  0
POLYLINE
  8
STAIRS
 66
1
 10
0.0
 20
0.0
 30
0.0
 70
1
  0
VERTEX
  8
STAIRS
 10
600.0
 20
-6300.0
 30
0.0
 70
0
  0
VERTEX
  8
STAIRS
 10
1800.0
 20
-6300.0
 30
0.0
 70
0
  0
VERTEX
  8
STAIRS
 10
1800.0
 20
-6100.0
 30
0.0
 70
0
  0
VERTEX
  8
STAIRS
 10
600.0
 20
-6100.0
 30
0.0
 70
0
  0
SEQEND
  8
STAIRS
  0
POLYLINE
  8
STAIRS
 66
1
 10
0.0
 20
0.0
 30
0.0
 70
1
  0
VERTEX
  8
STAIRS
 10
3760.0
 20
-4933.0
 30
0.0
 70
0
  0
VERTEX
  8
STAIRS
 10
4960.0
 20
-4933.0
 30
0.0
 70
0
  0
VERTEX
  8
STAIRS
 10
4960.0
 20
-4733.0
 30
0.0
 70
0
  0
VERTEX
  8
STAIRS
 10
3760.0
 20
-4733.0
 30
0.0
 70
0
  0
SEQEND
  8
STAIRS
  0
POLYLINE
  8
STAIRS
 66
1
 10
0.0
 20
0.0
 30
0.0
 70
1
  0
VERTEX
  8
STAIRS
 10
600.0
 20
-3567.0
 30
0.0
 70
0
  0
VERTEX
  8
STAIRS
 10
1800.0
 20
-3567.0
 30
0.0
 70
0
  0
VERTEX
  8
STAIRS
 10
1800.0
 20
-3367.0
 30
0.0
 70
0
  0
VERTEX
  8
STAIRS
 10
600.0
 20
-3367.0
 30
0.0
 70
0
  0
SEQEND
  8
STAIRS
  0
POLYLINE
  8
STAIRS
 66
1
 10
0.0
 20
0.0
 30
0.0
 70
1
  0
VERTEX
  8
STAIRS
 10
3760.0
 20
-2200.0
 30
0.0
 70
0
  0
VERTEX
  8
STAIRS
 10
5600.0
 20
-2200.0
 30
0.0
 70
0
  0
VERTEX
  8
STAIRS
 10
5600.0
 20
-2000.0
 30
0.0
 70
0
  0
VERTEX
  8
STAIRS
 10
3760.0
 20
-2000.0
 30
0.0
 70
0
  0
SEQEND
  8
STAIRS
  0
POLYLINE
  8
HIDDEN
 66
1
 10
0.0
 20
0.0
 30
0.0
 70
1
  0
VERTEX
  8
HIDDEN
 10
3760.0
 20
-6100.0
 30
0.0
 70
0
  0
VERTEX
  8
HIDDEN
 10
4960.0
 20
-6100.0
 30
0.0
 70
0
  0
VERTEX
  8
HIDDEN
 10
4960.0
 20
-4933.0
 30
0.0
 70
0
  0
VERTEX
  8
HIDDEN
 10
3760.0
 20
-4933.0
 30
0.0
 70
0
  0
SEQEND
  8
HIDDEN
  0
TEXT
  8
TEXT
 10
3880.0
 20
-5720.0
 30
0.0
 40
100.0
  1
STORE UNDER
  7
STANDARD
 11
3880.0
 21
-5720.0
 31
0.0
  0
TEXT
  8
TEXT
 10
3880.0
 20
-5880.0
 30
0.0
 40
100.0
  1
LANDING L1
  7
STANDARD
 11
3880.0
 21
-5880.0
 31
0.0
  0
POLYLINE
  8
WALLS
 66
1
 10
0.0
 20
0.0
 30
0.0
 70
1
  0
VERTEX
  8
WALLS
 10
200.0
 20
-2000.0
 30
0.0
 70
0
  0
VERTEX
  8
WALLS
 10
600.0
 20
-2000.0
 30
0.0
 70
0
  0
VERTEX
  8
WALLS
 10
600.0
 20
400.0
 30
0.0
 70
0
  0
VERTEX
  8
WALLS
 10
200.0
 20
400.0
 30
0.0
 70
0
  0
SEQEND
  8
WALLS
  0
POLYLINE
  8
WALLS
 66
1
 10
0.0
 20
0.0
 30
0.0
 70
1
  0
VERTEX
  8
WALLS
 10
5600.0
 20
-2000.0
 30
0.0
 70
0
  0
VERTEX
  8
WALLS
 10
6000.0
 20
-2000.0
 30
0.0
 70
0
  0
VERTEX
  8
WALLS
 10
6000.0
 20
400.0
 30
0.0
 70
0
  0
VERTEX
  8
WALLS
 10
5600.0
 20
400.0
 30
0.0
 70
0
  0
SEQEND
  8
WALLS
  0
POLYLINE
  8
WALLS
 66
1
 10
0.0
 20
0.0
 30
0.0
 70
1
  0
VERTEX
  8
WALLS
 10
200.0
 20
400.0
 30
0.0
 70
0
  0
VERTEX
  8
WALLS
 10
6000.0
 20
400.0
 30
0.0
 70
0
  0
VERTEX
  8
WALLS
 10
6000.0
 20
900.0
 30
0.0
 70
0
  0
VERTEX
  8
WALLS
 10
200.0
 20
900.0
 30
0.0
 70
0
  0
SEQEND
  8
WALLS
  0
TEXT
  8
TEXT
 10
2424.6841142813532
 20
453.9220439372565
 30
0.0
 40
130.0
  1
HEADHOUSE  4.000 x 5.000 int, 2.400 CLEAR
  7
STANDARD
 11
2424.6841142813532
 21
453.9220439372565
 31
0.0
  0
POLYLINE
  8
OPENINGS
 66
1
 10
0.0
 20
0.0
 30
0.0
 70
1
  0
VERTEX
  8
OPENINGS
 10
5600.0
 20
-2000.0
 30
0.0
 70
0
  0
VERTEX
  8
OPENINGS
 10
6000.0
 20
-2000.0
 30
0.0
 70
0
  0
VERTEX
  8
OPENINGS
 10
6000.0
 20
100.0
 30
0.0
 70
0
  0
VERTEX
  8
OPENINGS
 10
5600.0
 20
100.0
 30
0.0
 70
0
  0
SEQEND
  8
OPENINGS
  0
TEXT
  8
TEXT
 10
5796.0
 20
-1100.0
 30
0.0
 40
120.0
  1
INNER SECURITY DOOR
  7
STANDARD
 11
5796.0
 21
-1100.0
 31
0.0
  0
TEXT
  8
TEXT
 10
6120.0
 20
-2340.0
 30
0.0
 40
100.0
  1
900 x 2100 - SECOND IN SERIES
  7
STANDARD
 11
6120.0
 21
-2340.0
 31
0.0
  0
TEXT
  8
HIDDEN
 10
5906.25
 20
-1440.0
 30
0.0
 40
95.0
  1
(BEYOND - IN THE N WALL)
  7
STANDARD
 11
5906.25
 21
-1440.0
 31
0.0
  0
POLYLINE
  8
GROUND
 66
1
 10
0.0
 20
0.0
 30
0.0
 70
1
  0
VERTEX
  8
GROUND
 10
6000.0
 20
-2250.0
 30
0.0
 70
0
  0
VERTEX
  8
GROUND
 10
7500.0
 20
-2250.0
 30
0.0
 70
0
  0
VERTEX
  8
GROUND
 10
7500.0
 20
-2000.0
 30
0.0
 70
0
  0
VERTEX
  8
GROUND
 10
6000.0
 20
-2000.0
 30
0.0
 70
0
  0
SEQEND
  8
GROUND
  0
POLYLINE
  8
WALLS
 66
1
 10
0.0
 20
0.0
 30
0.0
 70
1
  0
VERTEX
  8
WALLS
 10
7500.0
 20
-2250.0
 30
0.0
 70
0
  0
VERTEX
  8
WALLS
 10
7750.0
 20
-2250.0
 30
0.0
 70
0
  0
VERTEX
  8
WALLS
 10
7750.0
 20
900.0
 30
0.0
 70
0
  0
VERTEX
  8
WALLS
 10
7500.0
 20
900.0
 30
0.0
 70
0
  0
SEQEND
  8
WALLS
  0
POLYLINE
  8
WALLS
 66
1
 10
0.0
 20
0.0
 30
0.0
 70
1
  0
VERTEX
  8
WALLS
 10
6000.0
 20
400.0
 30
0.0
 70
0
  0
VERTEX
  8
WALLS
 10
7500.0
 20
400.0
 30
0.0
 70
0
  0
VERTEX
  8
WALLS
 10
7500.0
 20
900.0
 30
0.0
 70
0
  0
VERTEX
  8
WALLS
 10
6000.0
 20
900.0
 30
0.0
 70
0
  0
SEQEND
  8
WALLS
  0
TEXT
  8
TEXT
 10
6100.0
 20
-2500.0
 30
0.0
 40
110.0
  1
STAIRWELL PLATFORM  -2.000 (COVERED)
  7
STANDARD
 11
6100.0
 21
-2500.0
 31
0.0
  0
TEXT
  8
HIDDEN
 10
6100.0
 20
-2660.0
 30
0.0
 40
95.0
  1
12R @ 166.7 / 300 BEYOND, RUN WEST TO THE
  7
STANDARD
 11
6100.0
 21
-2660.0
 31
0.0
  0
TEXT
  8
HIDDEN
 10
6100.0
 20
-2820.0
 30
0.0
 40
95.0
  1
ENTRY DOOR AT GRADE - SEE SECTION C-C
  7
STANDARD
 11
6100.0
 21
-2820.0
 31
0.0
  0
TEXT
  8
TEXT
 10
6100.0
 20
-500.0
 30
0.0
 40
110.0
  1
90 DEG DOG-LEG
  7
STANDARD
 11
6100.0
 21
-500.0
 31
0.0
  0
TEXT
  8
TEXT
 10
5064.265342257005
 20
1105.7346577429955
 30
0.0
 40
105.0
  1
ROOF CONTINUOUS WITH THE HEADHOUSE ROOF
  7
STANDARD
 11
5064.265342257005
 21
1105.7346577429955
 31
0.0
  0
POLYLINE
  8
HIDDEN
 66
1
 10
0.0
 20
0.0
 30
0.0
 70
1
  0
VERTEX
  8
HIDDEN
 10
750.0
 20
-6100.0
 30
0.0
 70
0
  0
VERTEX
  8
HIDDEN
 10
1650.0
 20
-6100.0
 30
0.0
 70
0
  0
VERTEX
  8
HIDDEN
 10
1650.0
 20
-4000.0
 30
0.0
 70
0
  0
VERTEX
  8
HIDDEN
 10
750.0
 20
-4000.0
 30
0.0
 70
0
  0
SEQEND
  8
HIDDEN
  0
TEXT
  8
HIDDEN
 10
2230.0
 20
-3840.0
 30
0.0
 40
100.0
  1
BLAST DOOR 1 -> AIRLOCK (BEYOND)
  7
STANDARD
 11
2230.0
 21
-3840.0
 31
0.0
  0
TEXT
  8
HIDDEN
 10
2185.0
 20
-4000.0
 30
0.0
 40
100.0
  1
BLAST DOOR 2 -> GENERATOR (BEYOND)
  7
STANDARD
 11
2185.0
 21
-4000.0
 31
0.0
  0
TEXT
  8
TEXT
 10
2500.6113533194584
 20
-5582.058804400133
 30
0.0
 40
120.0
  1
FLIGHT 1  8R @ 170.8
  7
STANDARD
 11
2500.6113533194584
 21
-5582.058804400133
 31
0.0
  0
TEXT
  8
TEXT
 10
2393.653895656662
 20
-3010.6538956566624
 30
0.0
 40
120.0
  1
FLIGHT 3  8R @ 170.8
  7
STANDARD
 11
2393.653895656662
 21
-3010.6538956566624
 31
0.0
  0
TEXT
  8
TEXT
 10
3840.0
 20
-4553.0
 30
0.0
 40
110.0
  1
LANDING L1  -4.733
  7
STANDARD
 11
3840.0
 21
-4553.0
 31
0.0
  0
TEXT
  8
TEXT
 10
680.0
 20
-3137.5
 30
0.0
 40
110.0
  1
LANDING L2  -3.367
  7
STANDARD
 11
680.0
 21
-3137.5
 31
0.0
  0
TEXT
  8
TEXT
 10
679.9999999999999
 20
-6415.0
 30
0.0
 40
110.0
  1
ARRIVAL LANDING  -6.100
  7
STANDARD
 11
679.9999999999999
 21
-6415.0
 31
0.0
  0
TEXT
  8
TEXT
 10
3741.0
 20
-1820.0
 30
0.0
 40
110.0
  1
HEADHOUSE FLOOR  -2.000
  7
STANDARD
 11
3741.0
 21
-1820.0
 31
0.0
  0
TEXT
  8
TEXT
 10
149.99999999999986
 20
-6556.0
 30
0.0
 40
120.0
  1
UNDERGROUND LEVEL  -6.100
  7
STANDARD
 11
149.99999999999986
 21
-6556.0
 31
0.0
  0
LINE
  8
DIM
 10
2080.0
 20
-5670.0
 30
0.0
 11
3340.0
 21
-4493.0
 31
0.0
  0
LINE
  8
DIM
 10
3340.0
 20
-4493.0
 30
0.0
 11
3000.0
 21
-4433.0
 31
0.0
  0
LINE
  8
DIM
 10
3340.0
 20
-4493.0
 30
0.0
 11
3140.0
 21
-4753.0
 31
0.0
  0
TEXT
  8
TEXT
 10
1920.0
 20
-5580.0
 30
0.0
 40
130.0
  1
UP
  7
STANDARD
 11
1920.0
 21
-5580.0
 31
0.0
  0
LINE
  8
DIM
 10
2080.0
 20
-2937.0
 30
0.0
 11
3340.0
 21
-1760.0
 31
0.0
  0
LINE
  8
DIM
 10
3340.0
 20
-1760.0
 30
0.0
 11
3000.0
 21
-1700.0
 31
0.0
  0
LINE
  8
DIM
 10
3340.0
 20
-1760.0
 30
0.0
 11
3140.0
 21
-2020.0
 31
0.0
  0
TEXT
  8
TEXT
 10
1920.0
 20
-2847.0
 30
0.0
 40
130.0
  1
UP
  7
STANDARD
 11
1920.0
 21
-2847.0
 31
0.0
  0
LINE
  8
DIM
 10
-1900.0
 20
-6100.0
 30
0.0
 11
-1900.0
 21
-2000.0
 31
0.0
  0
LINE
  8
DIM
 10
-1990.0
 20
-6190.0
 30
0.0
 11
-1810.0
 21
-6010.0
 31
0.0
  0
LINE
  8
DIM
 10
-2080.0
 20
-6100.0
 30
0.0
 11
-1720.0
 21
-6100.0
 31
0.0
  0
LINE
  8
DIM
 10
-1990.0
 20
-2090.0
 30
0.0
 11
-1810.0
 21
-1910.0
 31
0.0
  0
LINE
  8
DIM
 10
-2080.0
 20
-2000.0
 30
0.0
 11
-1720.0
 21
-2000.0
 31
0.0
  0
TEXT
  8
DIM
 10
-1972.0
 20
-4050.0
 30
0.0
 40
120.0
  1
4100 RISE  24R @ 170.8
 50
90.0
  7
STANDARD
 72
1
 11
-1972.0
 21
-4050.0
 31
0.0
  0
LINE
  8
DIM
 10
-1100.0
 20
-2000.0
 30
0.0
 11
-1100.0
 21
400.0
 31
0.0
  0
LINE
  8
DIM
 10
-1190.0
 20
-2090.0
 30
0.0
 11
-1010.0
 21
-1910.0
 31
0.0
  0
LINE
  8
DIM
 10
-1280.0
 20
-2000.0
 30
0.0
 11
-920.0
 21
-2000.0
 31
0.0
  0
LINE
  8
DIM
 10
-1190.0
 20
310.0
 30
0.0
 11
-1010.0
 21
490.0
 31
0.0
  0
LINE
  8
DIM
 10
-1280.0
 20
400.0
 30
0.0
 11
-920.0
 21
400.0
 31
0.0
  0
TEXT
  8
DIM
 10
-1172.0
 20
-800.0
 30
0.0
 40
120.0
  1
2400 CLEAR
 50
90.0
  7
STANDARD
 72
1
 11
-1172.0
 21
-800.0
 31
0.0
  0
LINE
  8
DIM
 10
9700.0
 20
0.0
 30
0.0
 11
9700.0
 21
900.0
 31
0.0
  0
LINE
  8
DIM
 10
9610.0
 20
-90.0
 30
0.0
 11
9790.0
 21
90.0
 31
0.0
  0
LINE
  8
DIM
 10
9520.0
 20
0.0
 30
0.0
 11
9880.0
 21
0.0
 31
0.0
  0
LINE
  8
DIM
 10
9610.0
 20
810.0
 30
0.0
 11
9790.0
 21
990.0
 31
0.0
  0
LINE
  8
DIM
 10
9520.0
 20
900.0
 30
0.0
 11
9880.0
 21
900.0
 31
0.0
  0
TEXT
  8
DIM
 10
9628.0
 20
450.0
 30
0.0
 40
120.0
  1
900
 50
90.0
  7
STANDARD
 72
1
 11
9628.0
 21
450.0
 31
0.0
  0
LINE
  8
DIM
 10
10500.0
 20
-2000.0
 30
0.0
 11
10500.0
 21
0.0
 31
0.0
  0
LINE
  8
DIM
 10
10410.0
 20
-2090.0
 30
0.0
 11
10590.0
 21
-1910.0
 31
0.0
  0
LINE
  8
DIM
 10
10320.0
 20
-2000.0
 30
0.0
 11
10680.0
 21
-2000.0
 31
0.0
  0
LINE
  8
DIM
 10
10410.0
 20
-90.0
 30
0.0
 11
10590.0
 21
90.0
 31
0.0
  0
LINE
  8
DIM
 10
10320.0
 20
0.0
 30
0.0
 11
10680.0
 21
0.0
 31
0.0
  0
TEXT
  8
DIM
 10
10428.0
 20
-1000.0
 30
0.0
 40
120.0
  1
2000
 50
90.0
  7
STANDARD
 72
1
 11
10428.0
 21
-1000.0
 31
0.0
  0
LINE
  8
DIM
 10
1800.0
 20
-7400.0
 30
0.0
 11
3760.0
 21
-7400.0
 31
0.0
  0
LINE
  8
DIM
 10
1710.0
 20
-7490.0
 30
0.0
 11
1890.0
 21
-7310.0
 31
0.0
  0
LINE
  8
DIM
 10
1800.0
 20
-7580.0
 30
0.0
 11
1800.0
 21
-7220.0
 31
0.0
  0
LINE
  8
DIM
 10
3670.0
 20
-7490.0
 30
0.0
 11
3850.0
 21
-7310.0
 31
0.0
  0
LINE
  8
DIM
 10
3760.0
 20
-7580.0
 30
0.0
 11
3760.0
 21
-7220.0
 31
0.0
  0
TEXT
  8
DIM
 10
2780.0
 20
-7328.0
 30
0.0
 40
120.0
  1
1960 GOING 7 x 280
  7
STANDARD
 72
1
 11
2780.0
 21
-7328.0
 31
0.0
  0
LINE
  8
DIM
 10
600.0
 20
-7400.0
 30
0.0
 11
1800.0
 21
-7400.0
 31
0.0
  0
LINE
  8
DIM
 10
510.0
 20
-7490.0
 30
0.0
 11
690.0
 21
-7310.0
 31
0.0
  0
LINE
  8
DIM
 10
600.0
 20
-7580.0
 30
0.0
 11
600.0
 21
-7220.0
 31
0.0
  0
LINE
  8
DIM
 10
1710.0
 20
-7490.0
 30
0.0
 11
1890.0
 21
-7310.0
 31
0.0
  0
LINE
  8
DIM
 10
1800.0
 20
-7580.0
 30
0.0
 11
1800.0
 21
-7220.0
 31
0.0
  0
TEXT
  8
DIM
 10
1200.0
 20
-7328.0
 30
0.0
 40
120.0
  1
1200
  7
STANDARD
 72
1
 11
1200.0
 21
-7328.0
 31
0.0
  0
LINE
  8
DIM
 10
3760.0
 20
-7400.0
 30
0.0
 11
5600.0
 21
-7400.0
 31
0.0
  0
LINE
  8
DIM
 10
3670.0
 20
-7490.0
 30
0.0
 11
3850.0
 21
-7310.0
 31
0.0
  0
LINE
  8
DIM
 10
3760.0
 20
-7580.0
 30
0.0
 11
3760.0
 21
-7220.0
 31
0.0
  0
LINE
  8
DIM
 10
5510.0
 20
-7490.0
 30
0.0
 11
5690.0
 21
-7310.0
 31
0.0
  0
LINE
  8
DIM
 10
5600.0
 20
-7580.0
 30
0.0
 11
5600.0
 21
-7220.0
 31
0.0
  0
TEXT
  8
DIM
 10
4680.0
 20
-7328.0
 30
0.0
 40
120.0
  1
1840 FLOOR PAD
  7
STANDARD
 72
1
 11
4680.0
 21
-7328.0
 31
0.0
  0
LINE
  8
DIM
 10
200.0
 20
1800.0
 30
0.0
 11
6000.0
 21
1800.0
 31
0.0
  0
LINE
  8
DIM
 10
110.0
 20
1710.0
 30
0.0
 11
290.0
 21
1890.0
 31
0.0
  0
LINE
  8
DIM
 10
200.0
 20
1620.0
 30
0.0
 11
200.0
 21
1980.0
 31
0.0
  0
LINE
  8
DIM
 10
5910.0
 20
1710.0
 30
0.0
 11
6090.0
 21
1890.0
 31
0.0
  0
LINE
  8
DIM
 10
6000.0
 20
1620.0
 30
0.0
 11
6000.0
 21
1980.0
 31
0.0
  0
TEXT
  8
DIM
 10
3100.0
 20
1872.0
 30
0.0
 40
120.0
  1
5800 HEADHOUSE EXTERNAL
  7
STANDARD
 72
1
 11
3100.0
 21
1872.0
 31
0.0
  0
LINE
  8
DIM
 10
600.0
 20
-8200.0
 30
0.0
 11
5600.0
 21
-8200.0
 31
0.0
  0
LINE
  8
DIM
 10
510.0
 20
-8290.0
 30
0.0
 11
690.0
 21
-8110.0
 31
0.0
  0
LINE
  8
DIM
 10
600.0
 20
-8380.0
 30
0.0
 11
600.0
 21
-8020.0
 31
0.0
  0
LINE
  8
DIM
 10
5510.0
 20
-8290.0
 30
0.0
 11
5690.0
 21
-8110.0
 31
0.0
  0
LINE
  8
DIM
 10
5600.0
 20
-8380.0
 30
0.0
 11
5600.0
 21
-8020.0
 31
0.0
  0
TEXT
  8
DIM
 10
3100.0
 20
-8128.0
 30
0.0
 40
120.0
  1
5000 SHAFT CLEAR
  7
STANDARD
 72
1
 11
3100.0
 21
-8128.0
 31
0.0
  0
LINE
  8
DIM
 10
2500.0
 20
-5490.0
 30
0.0
 11
2500.0
 21
-2757.0
 31
0.0
  0
TEXT
  8
TEXT
 10
2600.0
 20
-4124.0
 30
0.0
 40
110.0
  1
2533 HEADROOM
  7
STANDARD
 11
2600.0
 21
-4124.0
 31
0.0
  0
TEXT
  8
TEXT
 10
-2600.0
 20
3100.0
 30
0.0
 40
320.0
  1
SECTION A-A   STAIRCASE - LONGITUDINAL
  7
STANDARD
 11
-2600.0
 21
3100.0
 31
0.0
  0
TEXT
  8
TEXT
 10
-2600.0
 20
2700.0
 30
0.0
 40
150.0
  1
UNDERGROUND -6.100  ->  STAIR  ->  HEADHOUSE FLOOR -2.000  ->  INNER DOOR  ->  COVERED STAIRWELL  ->  ENTRY DOOR AT GRADE 0.000  (REV F)
  7
STANDARD
 11
-2600.0
 21
2700.0
 31
0.0
  0
TEXT
  8
TEXT
 10
-2600.0
 20
2450.0
 30
0.0
 40
130.0
  1
SCALE 1:50   ALL DIMENSIONS mm   LEVELS m
  7
STANDARD
 11
-2600.0
 21
2450.0
 31
0.0
  0
LINE
  8
LEADER
 10
3935.168117883456
 20
1006.9534494306765
 30
0.0
 11
2486.8052913596784
 21
1006.9534494306765
 31
0.0
  0
LINE
  8
LEADER
 10
2486.8052913596784
 20
1006.9534494306765
 30
0.0
 11
716.584058941728
 21
246.4534494306765
 31
0.0
  0
LINE
  8
LEADER
 10
2452.6113533194584
 20
-5539.178697233356
 30
0.0
 11
2678.262768103331
 21
-5539.178697233356
 31
0.0
  0
LINE
  8
LEADER
 10
2678.262768103331
 20
-5539.178697233356
 30
0.0
 11
2954.0589417280644
 21
-5357.1198928332215
 31
0.0
  0
LINE
  8
SHEET-BORDER
 10
-11175.083724045546
 20
-24980.0
 30
0.0
 11
30874.916275954456
 21
-24980.0
 31
0.0
  0
LINE
  8
SHEET-BORDER
 10
30874.916275954456
 20
-24980.0
 30
0.0
 11
30874.916275954456
 21
4720.0
 31
0.0
  0
LINE
  8
SHEET-BORDER
 10
30874.916275954456
 20
4720.0
 30
0.0
 11
-11175.083724045546
 21
4720.0
 31
0.0
  0
LINE
  8
SHEET-BORDER
 10
-11175.083724045546
 20
4720.0
 30
0.0
 11
-11175.083724045546
 21
-24980.0
 31
0.0
  0
LINE
  8
SHEET-BORDER
 10
-10675.083724045546
 20
-24480.0
 30
0.0
 11
30374.916275954456
 21
-24480.0
 31
0.0
  0
LINE
  8
SHEET-BORDER
 10
30374.916275954456
 20
-24480.0
 30
0.0
 11
30374.916275954456
 21
4220.0
 31
0.0
  0
LINE
  8
SHEET-BORDER
 10
30374.916275954456
 20
4220.0
 30
0.0
 11
-10675.083724045546
 21
4220.0
 31
0.0
  0
LINE
  8
SHEET-BORDER
 10
-10675.083724045546
 20
4220.0
 30
0.0
 11
-10675.083724045546
 21
-24480.0
 31
0.0
  0
LINE
  8
SHEET-TITLEBLOCK
 10
21374.916275954456
 20
-24480.0
 30
0.0
 11
30374.916275954456
 21
-24480.0
 31
0.0
  0
LINE
  8
SHEET-TITLEBLOCK
 10
30374.916275954456
 20
-24480.0
 30
0.0
 11
30374.916275954456
 21
-19480.0
 31
0.0
  0
LINE
  8
SHEET-TITLEBLOCK
 10
30374.916275954456
 20
-19480.0
 30
0.0
 11
21374.916275954456
 21
-19480.0
 31
0.0
  0
LINE
  8
SHEET-TITLEBLOCK
 10
21374.916275954456
 20
-19480.0
 30
0.0
 11
21374.916275954456
 21
-24480.0
 31
0.0
  0
LINE
  8
SHEET-TITLEBLOCK
 10
21374.916275954456
 20
-23480.0
 30
0.0
 11
30374.916275954456
 21
-23480.0
 31
0.0
  0
LINE
  8
SHEET-TITLEBLOCK
 10
21374.916275954456
 20
-22880.0
 30
0.0
 11
30374.916275954456
 21
-22880.0
 31
0.0
  0
LINE
  8
SHEET-TITLEBLOCK
 10
21374.916275954456
 20
-22280.0
 30
0.0
 11
30374.916275954456
 21
-22280.0
 31
0.0
  0
LINE
  8
SHEET-TITLEBLOCK
 10
21374.916275954456
 20
-21680.0
 30
0.0
 11
30374.916275954456
 21
-21680.0
 31
0.0
  0
LINE
  8
SHEET-TITLEBLOCK
 10
21374.916275954456
 20
-20580.0
 30
0.0
 11
30374.916275954456
 21
-20580.0
 31
0.0
  0
LINE
  8
SHEET-TITLEBLOCK
 10
26974.916275954456
 20
-24480.0
 30
0.0
 11
26974.916275954456
 21
-23480.0
 31
0.0
  0
LINE
  8
SHEET-TITLEBLOCK
 10
28674.916275954456
 20
-24480.0
 30
0.0
 11
28674.916275954456
 21
-23480.0
 31
0.0
  0
LINE
  8
SHEET-TITLEBLOCK
 10
26174.916275954456
 20
-23480.0
 30
0.0
 11
26174.916275954456
 21
-22880.0
 31
0.0
  0
TEXT
  8
SHEET-TEXT
 10
21474.916275954456
 20
-23750.0
 30
0.0
 40
70.0
  1
DRAWING No.
 11
21474.916275954456
 21
-23750.0
 31
0.0
  0
TEXT
  8
SHEET-TEXT
 10
22174.916275954456
 20
-24270.0
 30
0.0
 40
220.00000000000003
  1
A-201
 11
22174.916275954456
 21
-24270.0
 31
0.0
  0
TEXT
  8
SHEET-TEXT
 10
27074.916275954456
 20
-23750.0
 30
0.0
 40
70.0
  1
REV
 11
27074.916275954456
 21
-23750.0
 31
0.0
  0
TEXT
  8
SHEET-TEXT
 10
27074.916275954456
 20
-24250.0
 30
0.0
 40
140.0
  1
F + M1
 11
27074.916275954456
 21
-24250.0
 31
0.0
  0
TEXT
  8
SHEET-TEXT
 10
28774.916275954456
 20
-23750.0
 30
0.0
 40
70.0
  1
SHEET
 11
28774.916275954456
 21
-23750.0
 31
0.0
  0
TEXT
  8
SHEET-TEXT
 10
28774.916275954456
 20
-24230.0
 30
0.0
 40
95.0
  1
6 OF 10
 11
28774.916275954456
 21
-24230.0
 31
0.0
  0
TEXT
  8
SHEET-TEXT
 10
21474.916275954456
 20
-23260.0
 30
0.0
 40
95.0
  1
SCALE   1:50 AT A1
 11
21474.916275954456
 21
-23260.0
 31
0.0
  0
TEXT
  8
SHEET-TEXT
 10
26274.916275954456
 20
-23260.0
 30
0.0
 40
95.0
  1
DATE   09.09.2026
 11
26274.916275954456
 21
-23260.0
 31
0.0
  0
TEXT
  8
SHEET-TEXT
 10
21474.916275954456
 20
-22660.0
 30
0.0
 40
75.0
  1
DRAWN  [PLACEHOLDER]
 11
21474.916275954456
 21
-22660.0
 31
0.0
  0
TEXT
  8
SHEET-TEXT
 10
24474.916275954456
 20
-22660.0
 30
0.0
 40
75.0
  1
CHECKED  [PLACEHOLDER]
 11
24474.916275954456
 21
-22660.0
 31
0.0
  0
TEXT
  8
SHEET-TEXT
 10
27474.916275954456
 20
-22660.0
 30
0.0
 40
75.0
  1
APPROVED  [PLACEHOLDER]
 11
27474.916275954456
 21
-22660.0
 31
0.0
  0
TEXT
  8
SHEET-TEXT
 10
21474.916275954456
 20
-22060.0
 30
0.0
 40
70.0
  1
STATUS
 11
21474.916275954456
 21
-22060.0
 31
0.0
  0
TEXT
  8
SHEET-TEXT
 10
22474.916275954456
 20
-22080.0
 30
0.0
 40
95.0
  1
FOR REVIEW - NOT FOR CONSTRUCTION
 11
22474.916275954456
 21
-22080.0
 31
0.0
  0
TEXT
  8
SHEET-TEXT
 10
21474.916275954456
 20
-20810.0
 30
0.0
 40
70.0
  1
DRAWING TITLE
 11
21474.916275954456
 21
-20810.0
 31
0.0
  0
TEXT
  8
SHEET-TEXT
 10
21474.916275954456
 20
-21210.0
 30
0.0
 40
120.0
  1
SECTION A-A - MAIN STAIRCASE
 11
21474.916275954456
 21
-21210.0
 31
0.0
  0
TEXT
  8
SHEET-TEXT
 10
21474.916275954456
 20
-21540.0
 30
0.0
 40
75.0
  1
BAY 7 - 24R AT 170.8333 / 280, THREE FLIGHTS.  GEOMETRY FROZEN
 11
21474.916275954456
 21
-21540.0
 31
0.0
  0
TEXT
  8
SHEET-TEXT
 10
21474.916275954456
 20
-19720.0
 30
0.0
 40
70.0
  1
PROJECT
 11
21474.916275954456
 21
-19720.0
 31
0.0
  0
TEXT
  8
SHEET-TEXT
 10
21474.916275954456
 20
-20000.0
 30
0.0
 40
95.0
  1
UNDERGROUND CBRN-HARDENED BLAST-RESISTANT
 11
21474.916275954456
 21
-20000.0
 31
0.0
  0
TEXT
  8
SHEET-TEXT
 10
21474.916275954456
 20
-20230.0
 30
0.0
 40
95.0
  1
PROTECTIVE STRUCTURE  -  PUNE, MAHARASHTRA
 11
21474.916275954456
 21
-20230.0
 31
0.0
  0
TEXT
  8
SHEET-TEXT
 10
21474.916275954456
 20
-20470.0
 30
0.0
 40
75.0
  1
ARCHITECTURAL REV F  +  MODIFICATION M1
 11
21474.916275954456
 21
-20470.0
 31
0.0
  0
TEXT
  8
SHEET-TEXT
 10
-10575.083724045546
 20
3845.0
 30
0.0
 40
160.0
  1
A-201   SECTION A-A - MAIN STAIRCASE
 11
-10575.083724045546
 21
3845.0
 31
0.0
  0
LINE
  8
SHEET-BORDER
 10
-10675.083724045546
 20
3695.0
 30
0.0
 11
30374.916275954456
 21
3695.0
 31
0.0
  0
TEXT
  8
SHEET-TEXT
 10
-10575.083724045546
 20
-24355.0
 30
0.0
 40
75.0
  1
QA1  09.09.2026   DRAWING QA/QC - ANNOTATION POSITIONS, SHEET FRAME AND TITLE BLOCK.  NO GEOMETRY, DIMENSION OR VALUE CHANGED.
 11
-10575.083724045546
 21
-24355.0
 31
0.0
  0
LINE
  8
LEADER
 10
2190.0
 20
-3804.266577361018
 30
0.0
 11
2106.609845947756
 21
-3804.266577361018
 31
0.0
  0
LINE
  8
LEADER
 10
2106.609845947756
 20
-3804.266577361018
 30
0.0
 11
2004.688546550569
 21
-3804.266577361018
 31
0.0
  0
LINE
  8
LEADER
 10
2145.0
 20
-3964.266577361018
 30
0.0
 11
2140.076523777629
 21
-3964.266577361018
 31
0.0
  0
LINE
  8
LEADER
 10
2140.076523777629
 20
-3964.266577361018
 30
0.0
 11
2134.0589417280644
 21
-3964.266577361018
 31
0.0
  0
ENDSEC
  0
EOF
