0
SECTION
2
HEADER
9
$ACADVER
1
AC1009
9
$INSUNITS
70
4
9
$MEASUREMENT
70
1
9
$LTSCALE
40
25.0
9
$LIMCHECK
70
0
9
$EXTMIN
10
-4780.000
20
-8300.000
30
0.0
9
$EXTMAX
10
25100.000
20
11050.000
30
0.0
9
$LIMMIN
10
-4780.000
20
-8300.000
9
$LIMMAX
10
25100.000
20
11050.000
0
ENDSEC
0
SECTION
2
TABLES
0
TABLE
2
LTYPE
70
3
0
LTYPE
2
CONTINUOUS
70
0
3
Solid line
72
65
73
0
40
0.0
0
LTYPE
2
DASHED
70
0
3
Dashed __ __ __
72
65
73
2
40
15.0
49
10.0
49
-5.0
0
LTYPE
2
CENTER
70
0
3
Centre ____ _ ____
72
65
73
4
40
50.0
49
32.0
49
-6.0
49
6.0
49
-6.0
0
ENDTAB
0
TABLE
2
LAYER
70
10
0
LAYER
2
0
70
0
62
7
6
CONTINUOUS
0
LAYER
2
WALLS
70
0
62
7
6
CONTINUOUS
0
LAYER
2
OPENINGS
70
0
62
1
6
CONTINUOUS
0
LAYER
2
STAIRS
70
0
62
3
6
CONTINUOUS
0
LAYER
2
GROUND
70
0
62
42
6
CONTINUOUS
0
LAYER
2
TEXT
70
0
62
2
6
CONTINUOUS
0
LAYER
2
DIM
70
0
62
4
6
CONTINUOUS
0
LAYER
2
HIDDEN
70
0
62
8
6
DASHED
0
LAYER
2
CENTRE
70
0
62
6
6
CENTER
0
LAYER
2
BEYOND
70
0
62
9
6
CONTINUOUS
0
ENDTAB
0
TABLE
2
STYLE
70
1
0
STYLE
2
STANDARD
70
0
40
0.0
41
1.0
50
0.0
71
0
42
2.5
3
txt
4

0
ENDTAB
0
TABLE
2
APPID
70
1
0
APPID
2
ACAD
70
0
0
ENDTAB
0
ENDSEC
0
SECTION
2
BLOCKS
0
ENDSEC
0
SECTION
2
ENTITIES
0
POLYLINE
8
WALLS
66
1
10
0.0
20
0.0
30
0.0
70
1
0
VERTEX
8
WALLS
10
0.000
20
0.000
30
0.0
0
VERTEX
8
WALLS
10
21600.000
20
0.000
30
0.0
0
VERTEX
8
WALLS
10
21600.000
20
6200.000
30
0.0
0
VERTEX
8
WALLS
10
0.000
20
6200.000
30
0.0
0
SEQEND
8
WALLS
0
POLYLINE
8
WALLS
66
1
10
0.0
20
0.0
30
0.0
70
1
0
VERTEX
8
WALLS
10
600.000
20
600.000
30
0.0
0
VERTEX
8
WALLS
10
21000.000
20
600.000
30
0.0
0
VERTEX
8
WALLS
10
21000.000
20
5600.000
30
0.0
0
VERTEX
8
WALLS
10
600.000
20
5600.000
30
0.0
0
SEQEND
8
WALLS
0
POLYLINE
8
WALLS
66
1
10
0.0
20
0.0
30
0.0
70
1
0
VERTEX
8
WALLS
10
3500.000
20
600.000
30
0.0
0
VERTEX
8
WALLS
10
3610.000
20
600.000
30
0.0
0
VERTEX
8
WALLS
10
3610.000
20
2500.000
30
0.0
0
VERTEX
8
WALLS
10
3500.000
20
2500.000
30
0.0
0
SEQEND
8
WALLS
0
POLYLINE
8
WALLS
66
1
10
0.0
20
0.0
30
0.0
70
1
0
VERTEX
8
WALLS
10
3500.000
20
3400.000
30
0.0
0
VERTEX
8
WALLS
10
3610.000
20
3400.000
30
0.0
0
VERTEX
8
WALLS
10
3610.000
20
5600.000
30
0.0
0
VERTEX
8
WALLS
10
3500.000
20
5600.000
30
0.0
0
SEQEND
8
WALLS
0
POLYLINE
8
WALLS
66
1
10
0.0
20
0.0
30
0.0
70
1
0
VERTEX
8
WALLS
10
5410.000
20
600.000
30
0.0
0
VERTEX
8
WALLS
10
5520.000
20
600.000
30
0.0
0
VERTEX
8
WALLS
10
5520.000
20
2500.000
30
0.0
0
VERTEX
8
WALLS
10
5410.000
20
2500.000
30
0.0
0
SEQEND
8
WALLS
0
POLYLINE
8
WALLS
66
1
10
0.0
20
0.0
30
0.0
70
1
0
VERTEX
8
WALLS
10
5410.000
20
3400.000
30
0.0
0
VERTEX
8
WALLS
10
5520.000
20
3400.000
30
0.0
0
VERTEX
8
WALLS
10
5520.000
20
5600.000
30
0.0
0
VERTEX
8
WALLS
10
5410.000
20
5600.000
30
0.0
0
SEQEND
8
WALLS
0
POLYLINE
8
WALLS
66
1
10
0.0
20
0.0
30
0.0
70
1
0
VERTEX
8
WALLS
10
9020.000
20
600.000
30
0.0
0
VERTEX
8
WALLS
10
9130.000
20
600.000
30
0.0
0
VERTEX
8
WALLS
10
9130.000
20
2500.000
30
0.0
0
VERTEX
8
WALLS
10
9020.000
20
2500.000
30
0.0
0
SEQEND
8
WALLS
0
POLYLINE
8
WALLS
66
1
10
0.0
20
0.0
30
0.0
70
1
0
VERTEX
8
WALLS
10
9020.000
20
3400.000
30
0.0
0
VERTEX
8
WALLS
10
9130.000
20
3400.000
30
0.0
0
VERTEX
8
WALLS
10
9130.000
20
5600.000
30
0.0
0
VERTEX
8
WALLS
10
9020.000
20
5600.000
30
0.0
0
SEQEND
8
WALLS
0
POLYLINE
8
WALLS
66
1
10
0.0
20
0.0
30
0.0
70
1
0
VERTEX
8
WALLS
10
10930.000
20
600.000
30
0.0
0
VERTEX
8
WALLS
10
11040.000
20
600.000
30
0.0
0
VERTEX
8
WALLS
10
11040.000
20
2500.000
30
0.0
0
VERTEX
8
WALLS
10
10930.000
20
2500.000
30
0.0
0
SEQEND
8
WALLS
0
POLYLINE
8
WALLS
66
1
10
0.0
20
0.0
30
0.0
70
1
0
VERTEX
8
WALLS
10
10930.000
20
3400.000
30
0.0
0
VERTEX
8
WALLS
10
11040.000
20
3400.000
30
0.0
0
VERTEX
8
WALLS
10
11040.000
20
5600.000
30
0.0
0
VERTEX
8
WALLS
10
10930.000
20
5600.000
30
0.0
0
SEQEND
8
WALLS
0
POLYLINE
8
WALLS
66
1
10
0.0
20
0.0
30
0.0
70
1
0
VERTEX
8
WALLS
10
12600.000
20
600.000
30
0.0
0
VERTEX
8
WALLS
10
12800.000
20
600.000
30
0.0
0
VERTEX
8
WALLS
10
12800.000
20
4400.000
30
0.0
0
VERTEX
8
WALLS
10
12600.000
20
4400.000
30
0.0
0
SEQEND
8
WALLS
0
POLYLINE
8
WALLS
66
1
10
0.0
20
0.0
30
0.0
70
1
0
VERTEX
8
WALLS
10
12600.000
20
5200.000
30
0.0
0
VERTEX
8
WALLS
10
12800.000
20
5200.000
30
0.0
0
VERTEX
8
WALLS
10
12800.000
20
5600.000
30
0.0
0
VERTEX
8
WALLS
10
12600.000
20
5600.000
30
0.0
0
SEQEND
8
WALLS
0
POLYLINE
8
WALLS
66
1
10
0.0
20
0.0
30
0.0
70
1
0
VERTEX
8
WALLS
10
14800.000
20
1800.000
30
0.0
0
VERTEX
8
WALLS
10
15000.000
20
1800.000
30
0.0
0
VERTEX
8
WALLS
10
15000.000
20
5600.000
30
0.0
0
VERTEX
8
WALLS
10
14800.000
20
5600.000
30
0.0
0
SEQEND
8
WALLS
0
POLYLINE
8
WALLS
66
1
10
0.0
20
0.0
30
0.0
70
1
0
VERTEX
8
WALLS
10
17800.000
20
1800.000
30
0.0
0
VERTEX
8
WALLS
10
18000.000
20
1800.000
30
0.0
0
VERTEX
8
WALLS
10
18000.000
20
5600.000
30
0.0
0
VERTEX
8
WALLS
10
17800.000
20
5600.000
30
0.0
0
SEQEND
8
WALLS
0
POLYLINE
8
WALLS
66
1
10
0.0
20
0.0
30
0.0
70
1
0
VERTEX
8
WALLS
10
12800.000
20
2600.000
30
0.0
0
VERTEX
8
WALLS
10
13100.000
20
2600.000
30
0.0
0
VERTEX
8
WALLS
10
13100.000
20
2710.000
30
0.0
0
VERTEX
8
WALLS
10
12800.000
20
2710.000
30
0.0
0
SEQEND
8
WALLS
0
POLYLINE
8
WALLS
66
1
10
0.0
20
0.0
30
0.0
70
1
0
VERTEX
8
WALLS
10
13900.000
20
2600.000
30
0.0
0
VERTEX
8
WALLS
10
14800.000
20
2600.000
30
0.0
0
VERTEX
8
WALLS
10
14800.000
20
2710.000
30
0.0
0
VERTEX
8
WALLS
10
13900.000
20
2710.000
30
0.0
0
SEQEND
8
WALLS
0
POLYLINE
8
WALLS
66
1
10
0.0
20
0.0
30
0.0
70
1
0
VERTEX
8
WALLS
10
12800.000
20
4100.000
30
0.0
0
VERTEX
8
WALLS
10
13100.000
20
4100.000
30
0.0
0
VERTEX
8
WALLS
10
13100.000
20
4210.000
30
0.0
0
VERTEX
8
WALLS
10
12800.000
20
4210.000
30
0.0
0
SEQEND
8
WALLS
0
POLYLINE
8
WALLS
66
1
10
0.0
20
0.0
30
0.0
70
1
0
VERTEX
8
WALLS
10
13900.000
20
4100.000
30
0.0
0
VERTEX
8
WALLS
10
14800.000
20
4100.000
30
0.0
0
VERTEX
8
WALLS
10
14800.000
20
4210.000
30
0.0
0
VERTEX
8
WALLS
10
13900.000
20
4210.000
30
0.0
0
SEQEND
8
WALLS
0
LINE
8
OPENINGS
10
3610.000
20
2500.000
30
0.0
11
3610.000
21
3400.000
31
0.0
0
LINE
8
OPENINGS
10
3610.000
20
2500.000
30
0.0
11
4510.000
21
2500.000
31
0.0
0
ARC
8
OPENINGS
10
3610.000
20
2500.000
30
0.0
40
900.000
50
0.000
51
90.000
0
LINE
8
OPENINGS
10
5520.000
20
2500.000
30
0.0
11
5520.000
21
3400.000
31
0.0
0
LINE
8
OPENINGS
10
5520.000
20
2500.000
30
0.0
11
6420.000
21
2500.000
31
0.0
0
ARC
8
OPENINGS
10
5520.000
20
2500.000
30
0.0
40
900.000
50
0.000
51
90.000
0
LINE
8
OPENINGS
10
9130.000
20
2500.000
30
0.0
11
9130.000
21
3400.000
31
0.0
0
LINE
8
OPENINGS
10
9130.000
20
2500.000
30
0.0
11
10030.000
21
2500.000
31
0.0
0
ARC
8
OPENINGS
10
9130.000
20
2500.000
30
0.0
40
900.000
50
0.000
51
90.000
0
LINE
8
OPENINGS
10
11040.000
20
2500.000
30
0.0
11
11040.000
21
3400.000
31
0.0
0
LINE
8
OPENINGS
10
11040.000
20
2500.000
30
0.0
11
11940.000
21
2500.000
31
0.0
0
ARC
8
OPENINGS
10
11040.000
20
2500.000
30
0.0
40
900.000
50
0.000
51
90.000
0
LINE
8
OPENINGS
10
12800.000
20
4400.000
30
0.0
11
12800.000
21
5200.000
31
0.0
0
LINE
8
OPENINGS
10
12800.000
20
4400.000
30
0.0
11
13600.000
21
4400.000
31
0.0
0
ARC
8
OPENINGS
10
12800.000
20
4400.000
30
0.0
40
800.000
50
0.000
51
90.000
0
LINE
8
OPENINGS
10
14800.000
20
600.000
30
0.0
11
14800.000
21
1800.000
31
0.0
0
LINE
8
OPENINGS
10
14800.000
20
600.000
30
0.0
11
13600.000
21
600.000
31
0.0
0
ARC
8
OPENINGS
10
14800.000
20
600.000
30
0.0
40
1200.000
50
90.000
51
180.000
0
LINE
8
OPENINGS
10
18000.000
20
600.000
30
0.0
11
18000.000
21
1800.000
31
0.0
0
LINE
8
OPENINGS
10
18000.000
20
600.000
30
0.0
11
19200.000
21
600.000
31
0.0
0
ARC
8
OPENINGS
10
18000.000
20
600.000
30
0.0
40
1200.000
50
0.000
51
90.000
0
LINE
8
OPENINGS
10
13100.000
20
2600.000
30
0.0
11
13900.000
21
2600.000
31
0.0
0
LINE
8
OPENINGS
10
13100.000
20
2600.000
30
0.0
11
13100.000
21
3400.000
31
0.0
0
ARC
8
OPENINGS
10
13100.000
20
2600.000
30
0.0
40
800.000
50
0.000
51
90.000
0
LINE
8
OPENINGS
10
13100.000
20
4100.000
30
0.0
11
13900.000
21
4100.000
31
0.0
0
LINE
8
OPENINGS
10
13100.000
20
4100.000
30
0.0
11
13100.000
21
4900.000
31
0.0
0
ARC
8
OPENINGS
10
13100.000
20
4100.000
30
0.0
40
800.000
50
0.000
51
90.000
0
CIRCLE
8
OPENINGS
10
2050.000
20
2050.000
30
0.0
40
700.000
0
CIRCLE
8
HIDDEN
10
2050.000
20
2050.000
30
0.0
40
950.000
0
LINE
8
CENTRE
10
1750.000
20
2050.000
30
0.0
11
2350.000
21
2050.000
31
0.0
0
LINE
8
CENTRE
10
2050.000
20
1750.000
30
0.0
11
2050.000
21
2350.000
31
0.0
0
TEXT
8
TEXT
10
2050.000
20
900.000
30
0.0
40
120.000
1
ESC 1  1400 DIA CLEAR
7
STANDARD
72
0
11
2050.000
21
900.000
31
0.0
0
TEXT
8
TEXT
10
2050.000
20
750.000
30
0.0
40
120.000
1
COLLAR 250 OVER
7
STANDARD
72
0
11
2050.000
21
750.000
31
0.0
0
CIRCLE
8
OPENINGS
10
19500.000
20
2050.000
30
0.0
40
700.000
0
CIRCLE
8
HIDDEN
10
19500.000
20
2050.000
30
0.0
40
950.000
0
LINE
8
CENTRE
10
19200.000
20
2050.000
30
0.0
11
19800.000
21
2050.000
31
0.0
0
LINE
8
CENTRE
10
19500.000
20
1750.000
30
0.0
11
19500.000
21
2350.000
31
0.0
0
TEXT
8
TEXT
10
19500.000
20
900.000
30
0.0
40
120.000
1
ESC 2  1400 DIA CLEAR
7
STANDARD
72
0
11
19500.000
21
900.000
31
0.0
0
TEXT
8
TEXT
10
19500.000
20
750.000
30
0.0
40
120.000
1
COLLAR 250 OVER
7
STANDARD
72
0
11
19500.000
21
750.000
31
0.0
0
POLYLINE
8
STAIRS
66
1
10
0.0
20
0.0
30
0.0
70
1
0
VERTEX
8
STAIRS
10
15100.000
20
1800.000
30
0.0
0
VERTEX
8
STAIRS
10
16300.000
20
1800.000
30
0.0
0
VERTEX
8
STAIRS
10
16300.000
20
3760.000
30
0.0
0
VERTEX
8
STAIRS
10
15100.000
20
3760.000
30
0.0
0
SEQEND
8
STAIRS
0
LINE
8
STAIRS
10
15100.000
20
2080.000
30
0.0
11
16300.000
21
2080.000
31
0.0
0
LINE
8
STAIRS
10
15100.000
20
2360.000
30
0.0
11
16300.000
21
2360.000
31
0.0
0
LINE
8
STAIRS
10
15100.000
20
2640.000
30
0.0
11
16300.000
21
2640.000
31
0.0
0
LINE
8
STAIRS
10
15100.000
20
2920.000
30
0.0
11
16300.000
21
2920.000
31
0.0
0
LINE
8
STAIRS
10
15100.000
20
3200.000
30
0.0
11
16300.000
21
3200.000
31
0.0
0
LINE
8
STAIRS
10
15100.000
20
3480.000
30
0.0
11
16300.000
21
3480.000
31
0.0
0
POLYLINE
8
STAIRS
66
1
10
0.0
20
0.0
30
0.0
70
1
0
VERTEX
8
STAIRS
10
16500.000
20
1800.000
30
0.0
0
VERTEX
8
STAIRS
10
17700.000
20
1800.000
30
0.0
0
VERTEX
8
STAIRS
10
17700.000
20
3760.000
30
0.0
0
VERTEX
8
STAIRS
10
16500.000
20
3760.000
30
0.0
0
SEQEND
8
STAIRS
0
LINE
8
STAIRS
10
16500.000
20
2080.000
30
0.0
11
17700.000
21
2080.000
31
0.0
0
LINE
8
STAIRS
10
16500.000
20
2360.000
30
0.0
11
17700.000
21
2360.000
31
0.0
0
LINE
8
STAIRS
10
16500.000
20
2640.000
30
0.0
11
17700.000
21
2640.000
31
0.0
0
LINE
8
STAIRS
10
16500.000
20
2920.000
30
0.0
11
17700.000
21
2920.000
31
0.0
0
LINE
8
STAIRS
10
16500.000
20
3200.000
30
0.0
11
17700.000
21
3200.000
31
0.0
0
LINE
8
STAIRS
10
16500.000
20
3480.000
30
0.0
11
17700.000
21
3480.000
31
0.0
0
POLYLINE
8
STAIRS
66
1
10
0.0
20
0.0
30
0.0
70
1
0
VERTEX
8
STAIRS
10
15000.000
20
3760.000
30
0.0
0
VERTEX
8
STAIRS
10
17800.000
20
3760.000
30
0.0
0
VERTEX
8
STAIRS
10
17800.000
20
4960.000
30
0.0
0
VERTEX
8
STAIRS
10
15000.000
20
4960.000
30
0.0
0
SEQEND
8
STAIRS
0
POLYLINE
8
STAIRS
66
1
10
0.0
20
0.0
30
0.0
70
1
0
VERTEX
8
STAIRS
10
15000.000
20
600.000
30
0.0
0
VERTEX
8
STAIRS
10
17800.000
20
600.000
30
0.0
0
VERTEX
8
STAIRS
10
17800.000
20
1800.000
30
0.0
0
VERTEX
8
STAIRS
10
15000.000
20
1800.000
30
0.0
0
SEQEND
8
STAIRS
0
LINE
8
STAIRS
10
15700.000
20
3510.000
30
0.0
11
15700.000
21
2050.000
31
0.0
0
LINE
8
STAIRS
10
15700.000
20
2050.000
30
0.0
11
15610.000
21
2230.000
31
0.0
0
LINE
8
STAIRS
10
15700.000
20
2050.000
30
0.0
11
15790.000
21
2230.000
31
0.0
0
TEXT
8
TEXT
10
15420.000
20
2780.000
30
0.0
40
120.000
1
FLIGHTS 1 + 3 UP
50
90.000
7
STANDARD
72
0
11
15420.000
21
2780.000
31
0.0
0
TEXT
8
TEXT
10
17380.000
20
2780.000
30
0.0
40
120.000
1
FLIGHT 2
50
90.000
7
STANDARD
72
0
11
17380.000
21
2780.000
31
0.0
0
TEXT
8
TEXT
10
15100.000
20
780.000
30
0.0
40
120.000
1
ARRIVAL -6.100  /  LANDING L2 -3.367 OVER
7
STANDARD
72
0
11
15100.000
21
780.000
31
0.0
0
TEXT
8
TEXT
10
15100.000
20
4160.000
30
0.0
40
120.000
1
LANDING L1 -4.733
7
STANDARD
72
0
11
15100.000
21
4160.000
31
0.0
0
TEXT
8
TEXT
10
15100.000
20
5350.000
30
0.0
40
120.000
1
HEADHOUSE FLOOR PAD -2.000 OVER
7
STANDARD
72
0
11
15100.000
21
5350.000
31
0.0
0
POLYLINE
8
OPENINGS
66
1
10
0.0
20
0.0
30
0.0
70
1
0
VERTEX
8
OPENINGS
10
15000.000
20
600.000
30
0.0
0
VERTEX
8
OPENINGS
10
17800.000
20
600.000
30
0.0
0
VERTEX
8
OPENINGS
10
17800.000
20
3760.000
30
0.0
0
VERTEX
8
OPENINGS
10
15000.000
20
3760.000
30
0.0
0
SEQEND
8
OPENINGS
0
TEXT
8
TEXT
10
17900.000
20
3510.000
30
0.0
40
120.000
1
EDGE OF OPENING IN THE PRESSURE SLAB
7
STANDARD
72
0
11
17900.000
21
3510.000
31
0.0
0
TEXT
8
TEXT
10
17900.000
20
3340.000
30
0.0
40
120.000
1
SLAB RESTORED BEYOND = HEADHOUSE FLOOR
7
STANDARD
72
0
11
17900.000
21
3340.000
31
0.0
0
POLYLINE
8
GROUND
66
1
10
0.0
20
0.0
30
0.0
70
1
0
VERTEX
8
GROUND
10
-1500.000
20
-1500.000
30
0.0
0
VERTEX
8
GROUND
10
23100.000
20
-1500.000
30
0.0
0
VERTEX
8
GROUND
10
23100.000
20
7700.000
30
0.0
0
VERTEX
8
GROUND
10
-1500.000
20
7700.000
30
0.0
0
SEQEND
8
GROUND
0
TEXT
8
GROUND
10
-1500.000
20
7950.000
30
0.0
40
120.000
1
EXCAVATION LINE  (1500 WORKING SPACE ALL ROUND)
7
STANDARD
72
0
11
-1500.000
21
7950.000
31
0.0
0
TEXT
8
TEXT
10
2050.000
20
6700.000
30
0.0
40
150.000
1
1
7
STANDARD
72
0
11
2050.000
21
6700.000
31
0.0
0
CIRCLE
8
TEXT
10
2050.000
20
6760.000
30
0.0
40
260.000
0
TEXT
8
TEXT
10
2050.000
20
1500.000
30
0.0
40
150.000
1
ESC 1 / STORES
7
STANDARD
72
0
11
2050.000
21
1500.000
31
0.0
0
TEXT
8
TEXT
10
4510.000
20
6700.000
30
0.0
40
150.000
1
2
7
STANDARD
72
0
11
4510.000
21
6700.000
31
0.0
0
CIRCLE
8
TEXT
10
4510.000
20
6760.000
30
0.0
40
260.000
0
TEXT
8
TEXT
10
4510.000
20
3050.000
30
0.0
40
150.000
1
LAV / MEDICAL
50
90.000
7
STANDARD
72
0
11
4510.000
21
3050.000
31
0.0
0
TEXT
8
TEXT
10
7270.000
20
6700.000
30
0.0
40
150.000
1
3
7
STANDARD
72
0
11
7270.000
21
6700.000
31
0.0
0
CIRCLE
8
TEXT
10
7270.000
20
6760.000
30
0.0
40
260.000
0
TEXT
8
TEXT
10
7270.000
20
3050.000
30
0.0
40
150.000
1
OPS ROOM & HAZARD PLOTTING
7
STANDARD
72
0
11
7270.000
21
3050.000
31
0.0
0
TEXT
8
TEXT
10
10030.000
20
6700.000
30
0.0
40
150.000
1
4
7
STANDARD
72
0
11
10030.000
21
6700.000
31
0.0
0
CIRCLE
8
TEXT
10
10030.000
20
6760.000
30
0.0
40
260.000
0
TEXT
8
TEXT
10
10030.000
20
3050.000
30
0.0
40
150.000
1
BERTHING
50
90.000
7
STANDARD
72
0
11
10030.000
21
3050.000
31
0.0
0
TEXT
8
TEXT
10
11820.000
20
6700.000
30
0.0
40
150.000
1
5
7
STANDARD
72
0
11
11820.000
21
6700.000
31
0.0
0
CIRCLE
8
TEXT
10
11820.000
20
6760.000
30
0.0
40
260.000
0
TEXT
8
TEXT
10
11820.000
20
3050.000
30
0.0
40
150.000
1
CBRN PLANT
50
90.000
7
STANDARD
72
0
11
11820.000
21
3050.000
31
0.0
0
TEXT
8
TEXT
10
13800.000
20
6700.000
30
0.0
40
150.000
1
6
7
STANDARD
72
0
11
13800.000
21
6700.000
31
0.0
0
CIRCLE
8
TEXT
10
13800.000
20
6760.000
30
0.0
40
260.000
0
TEXT
8
TEXT
10
13800.000
20
3050.000
30
0.0
40
150.000
1
DECON AIRLOCK
50
90.000
7
STANDARD
72
0
11
13800.000
21
3050.000
31
0.0
0
TEXT
8
TEXT
10
16400.000
20
6700.000
30
0.0
40
150.000
1
7
7
STANDARD
72
0
11
16400.000
21
6700.000
31
0.0
0
CIRCLE
8
TEXT
10
16400.000
20
6760.000
30
0.0
40
260.000
0
TEXT
8
TEXT
10
19500.000
20
6700.000
30
0.0
40
150.000
1
8
7
STANDARD
72
0
11
19500.000
21
6700.000
31
0.0
0
CIRCLE
8
TEXT
10
19500.000
20
6760.000
30
0.0
40
260.000
0
TEXT
8
TEXT
10
19500.000
20
3050.000
30
0.0
40
150.000
1
GENERATOR / SERVICES
7
STANDARD
72
0
11
19500.000
21
3050.000
31
0.0
0
TEXT
8
TEXT
10
16400.000
20
4500.000
30
0.0
40
150.000
1
STAIR SHAFT 2800 x 5000
7
STANDARD
72
0
11
16400.000
21
4500.000
31
0.0
0
LINE
8
DIM
10
0.000
20
-3200.000
30
0.0
11
21600.000
21
-3200.000
31
0.0
0
LINE
8
DIM
10
-90.000
20
-3290.000
30
0.0
11
90.000
21
-3110.000
31
0.0
0
LINE
8
DIM
10
0.000
20
-3380.000
30
0.0
11
0.000
21
-3020.000
31
0.0
0
LINE
8
DIM
10
21510.000
20
-3290.000
30
0.0
11
21690.000
21
-3110.000
31
0.0
0
LINE
8
DIM
10
21600.000
20
-3380.000
30
0.0
11
21600.000
21
-3020.000
31
0.0
0
TEXT
8
DIM
10
10800.000
20
-3128.000
30
0.0
40
120.000
1
21600 OVERALL
7
STANDARD
72
1
11
10800.000
21
-3128.000
31
0.0
0
LINE
8
DIM
10
600.000
20
-2600.000
30
0.0
11
21000.000
21
-2600.000
31
0.0
0
LINE
8
DIM
10
510.000
20
-2690.000
30
0.0
11
690.000
21
-2510.000
31
0.0
0
LINE
8
DIM
10
600.000
20
-2780.000
30
0.0
11
600.000
21
-2420.000
31
0.0
0
LINE
8
DIM
10
20910.000
20
-2690.000
30
0.0
11
21090.000
21
-2510.000
31
0.0
0
LINE
8
DIM
10
21000.000
20
-2780.000
30
0.0
11
21000.000
21
-2420.000
31
0.0
0
TEXT
8
DIM
10
10800.000
20
-2528.000
30
0.0
40
120.000
1
20400 INTERNAL
7
STANDARD
72
1
11
10800.000
21
-2528.000
31
0.0
0
LINE
8
DIM
10
600.000
20
-2000.000
30
0.0
11
3500.000
21
-2000.000
31
0.0
0
LINE
8
DIM
10
510.000
20
-2090.000
30
0.0
11
690.000
21
-1910.000
31
0.0
0
LINE
8
DIM
10
600.000
20
-2180.000
30
0.0
11
600.000
21
-1820.000
31
0.0
0
LINE
8
DIM
10
3410.000
20
-2090.000
30
0.0
11
3590.000
21
-1910.000
31
0.0
0
LINE
8
DIM
10
3500.000
20
-2180.000
30
0.0
11
3500.000
21
-1820.000
31
0.0
0
TEXT
8
DIM
10
2050.000
20
-1928.000
30
0.0
40
120.000
1
2900
7
STANDARD
72
1
11
2050.000
21
-1928.000
31
0.0
0
LINE
8
DIM
10
3610.000
20
-2000.000
30
0.0
11
5410.000
21
-2000.000
31
0.0
0
LINE
8
DIM
10
3520.000
20
-2090.000
30
0.0
11
3700.000
21
-1910.000
31
0.0
0
LINE
8
DIM
10
3610.000
20
-2180.000
30
0.0
11
3610.000
21
-1820.000
31
0.0
0
LINE
8
DIM
10
5320.000
20
-2090.000
30
0.0
11
5500.000
21
-1910.000
31
0.0
0
LINE
8
DIM
10
5410.000
20
-2180.000
30
0.0
11
5410.000
21
-1820.000
31
0.0
0
TEXT
8
DIM
10
4510.000
20
-1928.000
30
0.0
40
120.000
1
1800
7
STANDARD
72
1
11
4510.000
21
-1928.000
31
0.0
0
LINE
8
DIM
10
5520.000
20
-2000.000
30
0.0
11
9020.000
21
-2000.000
31
0.0
0
LINE
8
DIM
10
5430.000
20
-2090.000
30
0.0
11
5610.000
21
-1910.000
31
0.0
0
LINE
8
DIM
10
5520.000
20
-2180.000
30
0.0
11
5520.000
21
-1820.000
31
0.0
0
LINE
8
DIM
10
8930.000
20
-2090.000
30
0.0
11
9110.000
21
-1910.000
31
0.0
0
LINE
8
DIM
10
9020.000
20
-2180.000
30
0.0
11
9020.000
21
-1820.000
31
0.0
0
TEXT
8
DIM
10
7270.000
20
-1928.000
30
0.0
40
120.000
1
3500
7
STANDARD
72
1
11
7270.000
21
-1928.000
31
0.0
0
LINE
8
DIM
10
9130.000
20
-2000.000
30
0.0
11
10930.000
21
-2000.000
31
0.0
0
LINE
8
DIM
10
9040.000
20
-2090.000
30
0.0
11
9220.000
21
-1910.000
31
0.0
0
LINE
8
DIM
10
9130.000
20
-2180.000
30
0.0
11
9130.000
21
-1820.000
31
0.0
0
LINE
8
DIM
10
10840.000
20
-2090.000
30
0.0
11
11020.000
21
-1910.000
31
0.0
0
LINE
8
DIM
10
10930.000
20
-2180.000
30
0.0
11
10930.000
21
-1820.000
31
0.0
0
TEXT
8
DIM
10
10030.000
20
-1928.000
30
0.0
40
120.000
1
1800
7
STANDARD
72
1
11
10030.000
21
-1928.000
31
0.0
0
LINE
8
DIM
10
11040.000
20
-2000.000
30
0.0
11
12600.000
21
-2000.000
31
0.0
0
LINE
8
DIM
10
10950.000
20
-2090.000
30
0.0
11
11130.000
21
-1910.000
31
0.0
0
LINE
8
DIM
10
11040.000
20
-2180.000
30
0.0
11
11040.000
21
-1820.000
31
0.0
0
LINE
8
DIM
10
12510.000
20
-2090.000
30
0.0
11
12690.000
21
-1910.000
31
0.0
0
LINE
8
DIM
10
12600.000
20
-2180.000
30
0.0
11
12600.000
21
-1820.000
31
0.0
0
TEXT
8
DIM
10
11820.000
20
-1928.000
30
0.0
40
120.000
1
1560
7
STANDARD
72
1
11
11820.000
21
-1928.000
31
0.0
0
LINE
8
DIM
10
12800.000
20
-2000.000
30
0.0
11
14800.000
21
-2000.000
31
0.0
0
LINE
8
DIM
10
12710.000
20
-2090.000
30
0.0
11
12890.000
21
-1910.000
31
0.0
0
LINE
8
DIM
10
12800.000
20
-2180.000
30
0.0
11
12800.000
21
-1820.000
31
0.0
0
LINE
8
DIM
10
14710.000
20
-2090.000
30
0.0
11
14890.000
21
-1910.000
31
0.0
0
LINE
8
DIM
10
14800.000
20
-2180.000
30
0.0
11
14800.000
21
-1820.000
31
0.0
0
TEXT
8
DIM
10
13800.000
20
-1928.000
30
0.0
40
120.000
1
2000
7
STANDARD
72
1
11
13800.000
21
-1928.000
31
0.0
0
LINE
8
DIM
10
15000.000
20
-2000.000
30
0.0
11
17800.000
21
-2000.000
31
0.0
0
LINE
8
DIM
10
14910.000
20
-2090.000
30
0.0
11
15090.000
21
-1910.000
31
0.0
0
LINE
8
DIM
10
15000.000
20
-2180.000
30
0.0
11
15000.000
21
-1820.000
31
0.0
0
LINE
8
DIM
10
17710.000
20
-2090.000
30
0.0
11
17890.000
21
-1910.000
31
0.0
0
LINE
8
DIM
10
17800.000
20
-2180.000
30
0.0
11
17800.000
21
-1820.000
31
0.0
0
TEXT
8
DIM
10
16400.000
20
-1928.000
30
0.0
40
120.000
1
2800
7
STANDARD
72
1
11
16400.000
21
-1928.000
31
0.0
0
LINE
8
DIM
10
18000.000
20
-2000.000
30
0.0
11
21000.000
21
-2000.000
31
0.0
0
LINE
8
DIM
10
17910.000
20
-2090.000
30
0.0
11
18090.000
21
-1910.000
31
0.0
0
LINE
8
DIM
10
18000.000
20
-2180.000
30
0.0
11
18000.000
21
-1820.000
31
0.0
0
LINE
8
DIM
10
20910.000
20
-2090.000
30
0.0
11
21090.000
21
-1910.000
31
0.0
0
LINE
8
DIM
10
21000.000
20
-2180.000
30
0.0
11
21000.000
21
-1820.000
31
0.0
0
TEXT
8
DIM
10
19500.000
20
-1928.000
30
0.0
40
120.000
1
3000
7
STANDARD
72
1
11
19500.000
21
-1928.000
31
0.0
0
LINE
8
DIM
10
-2600.000
20
0.000
30
0.0
11
-2600.000
21
6200.000
31
0.0
0
LINE
8
DIM
10
-2690.000
20
-90.000
30
0.0
11
-2510.000
21
90.000
31
0.0
0
LINE
8
DIM
10
-2780.000
20
0.000
30
0.0
11
-2420.000
21
0.000
31
0.0
0
LINE
8
DIM
10
-2690.000
20
6110.000
30
0.0
11
-2510.000
21
6290.000
31
0.0
0
LINE
8
DIM
10
-2780.000
20
6200.000
30
0.0
11
-2420.000
21
6200.000
31
0.0
0
TEXT
8
DIM
10
-2672.000
20
3100.000
30
0.0
40
120.000
1
6200
50
90.000
7
STANDARD
72
1
11
-2672.000
21
3100.000
31
0.0
0
LINE
8
DIM
10
-1500.000
20
600.000
30
0.0
11
-1500.000
21
5600.000
31
0.0
0
LINE
8
DIM
10
-1590.000
20
510.000
30
0.0
11
-1410.000
21
690.000
31
0.0
0
LINE
8
DIM
10
-1680.000
20
600.000
30
0.0
11
-1320.000
21
600.000
31
0.0
0
LINE
8
DIM
10
-1590.000
20
5510.000
30
0.0
11
-1410.000
21
5690.000
31
0.0
0
LINE
8
DIM
10
-1680.000
20
5600.000
30
0.0
11
-1320.000
21
5600.000
31
0.0
0
TEXT
8
DIM
10
-1572.000
20
3100.000
30
0.0
40
120.000
1
5000 CLEAR
50
90.000
7
STANDARD
72
1
11
-1572.000
21
3100.000
31
0.0
0
TEXT
8
TEXT
10
0.000
20
8800.000
30
0.0
40
250.000
1
DRAWING 1  -  UNDERGROUND LEVEL PLAN
7
STANDARD
72
0
11
0.000
21
8800.000
31
0.0
0
TEXT
8
TEXT
10
0.000
20
8400.000
30
0.0
40
120.000
1
SCALE 1:50 AT A1   -   ALL DIMENSIONS IN MILLIMETRES
7
STANDARD
72
0
11
0.000
21
8400.000
31
0.0
0
TEXT
8
TEXT
10
0.000
20
-4200.000
30
0.0
40
120.000
1
PERIMETER WALL 600 RC   INTERNAL RC WALLS 200   PARTITIONS 110
7
STANDARD
72
0
11
0.000
21
-4200.000
31
0.0
0
TEXT
8
TEXT
10
0.000
20
-4500.000
30
0.0
40
120.000
1
FLOOR LEVEL -6.100   ROOF SOFFIT -2.900   CLEAR HEIGHT 3200
7
STANDARD
72
0
11
0.000
21
-4500.000
31
0.0
0
TEXT
8
TEXT
10
0.000
20
-4800.000
30
0.0
40
120.000
1
MAIN ENTRANCE IS VIA THE STAIR SHAFT (BAY 7) FROM THE ENTRY HEADHOUSE AT -2.000 ABOVE
7
STANDARD
72
0
11
0.000
21
-4800.000
31
0.0
0
TEXT
8
TEXT
10
0.000
20
-5100.000
30
0.0
40
120.000
1
STAIR REV E - 3 FLIGHTS x 8 RISERS @ 170.8 / 280.  HEADROOM 2533 BETWEEN STACKED FLIGHTS
7
STANDARD
72
0
11
0.000
21
-5100.000
31
0.0
0
TEXT
8
TEXT
10
0.000
20
-5400.000
30
0.0
40
120.000
1
REV C - BOX LENGTHENED 20200 TO 21600. BOTH ESCAPE OPENINGS SET 750 MIN CLEAR
7
STANDARD
72
0
11
0.000
21
-5400.000
31
0.0
0
TEXT
8
TEXT
10
0.000
20
-5700.000
30
0.0
40
120.000
1
OF EVERY STRUCTURAL WALL FACE (WAS 50). BAY 1 WIDENED 1500 TO 2900.
7
STANDARD
72
0
11
0.000
21
-5700.000
31
0.0
0
TEXT
8
TEXT
10
0.000
20
-6000.000
30
0.0
40
120.000
1
REV E - STAIR OPENING IN THE PRESSURE SLAB REDUCED TO Y 600-3760; THE SLAB BEYOND IT
7
STANDARD
72
0
11
0.000
21
-6000.000
31
0.0
0
TEXT
8
TEXT
10
0.000
20
-6300.000
30
0.0
40
120.000
1
IS THE HEADHOUSE FLOOR AT -2.000.  ESCAPE SHAFT 2 HEAD RAISED FROM +0.150 TO +0.700.
7
STANDARD
72
0
11
0.000
21
-6300.000
31
0.0
0
ENDSEC
0
EOF
