  0
SECTION
  2
HEADER
  9
$ACADVER
  1
AC1009
  9
$DWGCODEPAGE
  3
ANSI_1252
  9
$EXTMIN
 10
1e+20
 20
1e+20
 30
1e+20
  9
$EXTMAX
 10
-1e+20
 20
-1e+20
 30
-1e+20
  9
$LIMMIN
 10
0.0
 20
0.0
  9
$LIMMAX
 10
420.0
 20
297.0
  9
$LTSCALE
 40
25.0
  9
$LIMCHECK
 70
0
  9
$TDCREATE
 40
2461294.0692939814
  9
$TDUPDATE
 40
2461294.0692939814
  9
$PEXTMIN
 10
1e+20
 20
1e+20
 30
1e+20
  9
$PEXTMAX
 10
-1e+20
 20
-1e+20
 30
-1e+20
  9
$PLIMMIN
 10
0.0
 20
0.0
  9
$PLIMMAX
 10
420.0
 20
297.0
  0
ENDSEC
  0
SECTION
  2
TABLES
  0
TABLE
  2
VPORT
 70
1
  0
VPORT
  2
*Active
 70
0
 10
0.0
 20
0.0
 11
1.0
 21
1.0
 12
0.0
 22
0.0
 13
0.0
 23
0.0
 14
0.5
 24
0.5
 15
0.5
 25
0.5
 16
0.0
 26
0.0
 36
1.0
 17
0.0
 27
0.0
 37
0.0
 40
1000.0
 41
1.34
 42
50.0
 43
0.0
 44
0.0
 50
0.0
 51
0.0
 71
0
 72
1000
 73
1
 74
3
 75
0
 76
0
 77
0
 78
0
  0
ENDTAB
  0
TABLE
  2
LTYPE
 70
5
  0
LTYPE
  2
CONTINUOUS
 70
0
  3
Solid line
 72
65
 73
0
 40
0.0
  0
LTYPE
  2
DASHED
 70
0
  3
Dashed __ __ __
 72
65
 73
2
 40
15.0
 49
10.0
 49
-5.0
  0
LTYPE
  2
CENTER
 70
0
  3
Centre ____ _ ____
 72
65
 73
4
 40
50.0
 49
32.0
 49
-6.0
 49
6.0
 49
-6.0
  0
LTYPE
  2
ByBlock
 70
0
  3

 72
65
 73
0
 40
0.0
  0
LTYPE
  2
ByLayer
 70
0
  3

 72
65
 73
0
 40
0.0
  0
ENDTAB
  0
TABLE
  2
LAYER
 70
15
  0
LAYER
  2
0
 70
0
 62
7
  6
CONTINUOUS
  0
LAYER
  2
WALLS
 70
0
 62
7
  6
CONTINUOUS
  0
LAYER
  2
OPENINGS
 70
0
 62
1
  6
CONTINUOUS
  0
LAYER
  2
STAIRS
 70
0
 62
3
  6
CONTINUOUS
  0
LAYER
  2
GROUND
 70
0
 62
42
  6
CONTINUOUS
  0
LAYER
  2
TEXT
 70
0
 62
2
  6
CONTINUOUS
  0
LAYER
  2
DIM
 70
0
 62
4
  6
CONTINUOUS
  0
LAYER
  2
HIDDEN
 70
0
 62
8
  6
DASHED
  0
LAYER
  2
CENTRE
 70
0
 62
6
  6
CENTER
  0
LAYER
  2
BEYOND
 70
0
 62
9
  6
CONTINUOUS
  0
LAYER
  2
Defpoints
 70
0
 62
7
  6
Continuous
  0
LAYER
  2
LEADER
 70
0
 62
7
  6
Continuous
  0
LAYER
  2
SHEET-BORDER
 70
0
 62
7
  6
Continuous
  0
LAYER
  2
SHEET-TITLEBLOCK
 70
0
 62
7
  6
Continuous
  0
LAYER
  2
SHEET-TEXT
 70
0
 62
7
  6
Continuous
  0
ENDTAB
  0
TABLE
  2
STYLE
 70
1
  0
STYLE
  2
STANDARD
 70
0
 40
0.0
 41
1.0
 50
0.0
 71
0
 42
2.5
  3
txt
  4

  0
ENDTAB
  0
TABLE
  2
VIEW
 70
0
  0
ENDTAB
  0
TABLE
  2
UCS
 70
0
  0
ENDTAB
  0
TABLE
  2
APPID
 70
3
  0
APPID
  2
ACAD
 70
0
  0
APPID
  2
HATCHBACKGROUNDCOLOR
 70
0
  0
APPID
  2
EZDXF
 70
0
  0
ENDTAB
  0
TABLE
  2
DIMSTYLE
 70
1
  0
DIMSTYLE
  2
Standard
 70
0
  3

  4

  5

  6

  7

 40
1.0
 41
2.5
 42
0.625
 43
3.75
 44
1.25
 45
0.0
 46
0.0
 47
0.0
 48
0.0
140
2.5
141
2.5
142
0.0
143
0.03937007874
144
1.0
145
0.0
146
1.0
147
0.625
 71
0
 72
0
 73
0
 74
0
 75
0
 76
0
 77
1
 78
8
170
0
171
3
172
1
173
0
174
0
175
0
176
0
177
0
178
0
  0
ENDTAB
  0
ENDSEC
  0
SECTION
  2
BLOCKS
  0
BLOCK
  8
0
  2
$Model_Space
 70
0
 10
0.0
 20
0.0
 30
0.0
  3
$Model_Space
  1

1001
EZDXF
1000
WRITTEN_BY_EZDXF
1000
1.4.4 @ 2026-09-10T01:39:47.081774+00:00
  0
ENDBLK
  8
0
  0
BLOCK
  8
0
  2
$Paper_Space
 70
0
 10
0.0
 20
0.0
 30
0.0
  3
$Paper_Space
  1

  0
ENDBLK
  8
0
  0
ENDSEC
  0
SECTION
  2
ENTITIES
  0
POLYLINE
  8
WALLS
 66
1
 10
0.0
 20
0.0
 30
0.0
 70
1
  0
VERTEX
  8
WALLS
 10
0.0
 20
-5807.880107166778
 30
0.0
 70
0
  0
VERTEX
  8
WALLS
 10
22000.0
 20
-5807.880107166778
 30
0.0
 70
0
  0
VERTEX
  8
WALLS
 10
22000.0
 20
392.11989283322237
 30
0.0
 70
0
  0
VERTEX
  8
WALLS
 10
0.0
 20
392.11989283322237
 30
0.0
 70
0
  0
SEQEND
  8
WALLS
  0
POLYLINE
  8
WALLS
 66
1
 10
0.0
 20
0.0
 30
0.0
 70
1
  0
VERTEX
  8
WALLS
 10
600.0
 20
-5207.880107166778
 30
0.0
 70
0
  0
VERTEX
  8
WALLS
 10
21400.0
 20
-5207.880107166778
 30
0.0
 70
0
  0
VERTEX
  8
WALLS
 10
21400.0
 20
-207.88010716677763
 30
0.0
 70
0
  0
VERTEX
  8
WALLS
 10
600.0
 20
-207.88010716677763
 30
0.0
 70
0
  0
SEQEND
  8
WALLS
  0
POLYLINE
  8
WALLS
 66
1
 10
0.0
 20
0.0
 30
0.0
 70
1
  0
VERTEX
  8
WALLS
 10
3500.0
 20
-5207.880107166778
 30
0.0
 70
0
  0
VERTEX
  8
WALLS
 10
3610.0
 20
-5207.880107166778
 30
0.0
 70
0
  0
VERTEX
  8
WALLS
 10
3610.0
 20
-3307.8801071667776
 30
0.0
 70
0
  0
VERTEX
  8
WALLS
 10
3500.0
 20
-3307.8801071667776
 30
0.0
 70
0
  0
SEQEND
  8
WALLS
  0
POLYLINE
  8
WALLS
 66
1
 10
0.0
 20
0.0
 30
0.0
 70
1
  0
VERTEX
  8
WALLS
 10
3500.0
 20
-2407.8801071667776
 30
0.0
 70
0
  0
VERTEX
  8
WALLS
 10
3610.0
 20
-2407.8801071667776
 30
0.0
 70
0
  0
VERTEX
  8
WALLS
 10
3610.0
 20
-207.88010716677763
 30
0.0
 70
0
  0
VERTEX
  8
WALLS
 10
3500.0
 20
-207.88010716677763
 30
0.0
 70
0
  0
SEQEND
  8
WALLS
  0
POLYLINE
  8
WALLS
 66
1
 10
0.0
 20
0.0
 30
0.0
 70
1
  0
VERTEX
  8
WALLS
 10
5410.0
 20
-5207.880107166778
 30
0.0
 70
0
  0
VERTEX
  8
WALLS
 10
5520.0
 20
-5207.880107166778
 30
0.0
 70
0
  0
VERTEX
  8
WALLS
 10
5520.0
 20
-3307.8801071667776
 30
0.0
 70
0
  0
VERTEX
  8
WALLS
 10
5410.0
 20
-3307.8801071667776
 30
0.0
 70
0
  0
SEQEND
  8
WALLS
  0
POLYLINE
  8
WALLS
 66
1
 10
0.0
 20
0.0
 30
0.0
 70
1
  0
VERTEX
  8
WALLS
 10
5410.0
 20
-2407.8801071667776
 30
0.0
 70
0
  0
VERTEX
  8
WALLS
 10
5520.0
 20
-2407.8801071667776
 30
0.0
 70
0
  0
VERTEX
  8
WALLS
 10
5520.0
 20
-207.88010716677763
 30
0.0
 70
0
  0
VERTEX
  8
WALLS
 10
5410.0
 20
-207.88010716677763
 30
0.0
 70
0
  0
SEQEND
  8
WALLS
  0
POLYLINE
  8
WALLS
 66
1
 10
0.0
 20
0.0
 30
0.0
 70
1
  0
VERTEX
  8
WALLS
 10
9020.0
 20
-5207.880107166778
 30
0.0
 70
0
  0
VERTEX
  8
WALLS
 10
9130.0
 20
-5207.880107166778
 30
0.0
 70
0
  0
VERTEX
  8
WALLS
 10
9130.0
 20
-3307.8801071667776
 30
0.0
 70
0
  0
VERTEX
  8
WALLS
 10
9020.0
 20
-3307.8801071667776
 30
0.0
 70
0
  0
SEQEND
  8
WALLS
  0
POLYLINE
  8
WALLS
 66
1
 10
0.0
 20
0.0
 30
0.0
 70
1
  0
VERTEX
  8
WALLS
 10
9020.0
 20
-2407.8801071667776
 30
0.0
 70
0
  0
VERTEX
  8
WALLS
 10
9130.0
 20
-2407.8801071667776
 30
0.0
 70
0
  0
VERTEX
  8
WALLS
 10
9130.0
 20
-207.88010716677763
 30
0.0
 70
0
  0
VERTEX
  8
WALLS
 10
9020.0
 20
-207.88010716677763
 30
0.0
 70
0
  0
SEQEND
  8
WALLS
  0
POLYLINE
  8
WALLS
 66
1
 10
0.0
 20
0.0
 30
0.0
 70
1
  0
VERTEX
  8
WALLS
 10
10930.0
 20
-5207.880107166778
 30
0.0
 70
0
  0
VERTEX
  8
WALLS
 10
11040.0
 20
-5207.880107166778
 30
0.0
 70
0
  0
VERTEX
  8
WALLS
 10
11040.0
 20
-3307.8801071667776
 30
0.0
 70
0
  0
VERTEX
  8
WALLS
 10
10930.0
 20
-3307.8801071667776
 30
0.0
 70
0
  0
SEQEND
  8
WALLS
  0
POLYLINE
  8
WALLS
 66
1
 10
0.0
 20
0.0
 30
0.0
 70
1
  0
VERTEX
  8
WALLS
 10
10930.0
 20
-2407.8801071667776
 30
0.0
 70
0
  0
VERTEX
  8
WALLS
 10
11040.0
 20
-2407.8801071667776
 30
0.0
 70
0
  0
VERTEX
  8
WALLS
 10
11040.0
 20
-207.88010716677763
 30
0.0
 70
0
  0
VERTEX
  8
WALLS
 10
10930.0
 20
-207.88010716677763
 30
0.0
 70
0
  0
SEQEND
  8
WALLS
  0
POLYLINE
  8
WALLS
 66
1
 10
0.0
 20
0.0
 30
0.0
 70
1
  0
VERTEX
  8
WALLS
 10
12600.0
 20
-5207.880107166778
 30
0.0
 70
0
  0
VERTEX
  8
WALLS
 10
12800.0
 20
-5207.880107166778
 30
0.0
 70
0
  0
VERTEX
  8
WALLS
 10
12800.0
 20
-1407.8801071667776
 30
0.0
 70
0
  0
VERTEX
  8
WALLS
 10
12600.0
 20
-1407.8801071667776
 30
0.0
 70
0
  0
SEQEND
  8
WALLS
  0
POLYLINE
  8
WALLS
 66
1
 10
0.0
 20
0.0
 30
0.0
 70
1
  0
VERTEX
  8
WALLS
 10
12600.0
 20
-607.8801071667776
 30
0.0
 70
0
  0
VERTEX
  8
WALLS
 10
12800.0
 20
-607.8801071667776
 30
0.0
 70
0
  0
VERTEX
  8
WALLS
 10
12800.0
 20
-207.88010716677763
 30
0.0
 70
0
  0
VERTEX
  8
WALLS
 10
12600.0
 20
-207.88010716677763
 30
0.0
 70
0
  0
SEQEND
  8
WALLS
  0
POLYLINE
  8
WALLS
 66
1
 10
0.0
 20
0.0
 30
0.0
 70
1
  0
VERTEX
  8
WALLS
 10
14800.0
 20
-4007.8801071667776
 30
0.0
 70
0
  0
VERTEX
  8
WALLS
 10
15200.0
 20
-4007.8801071667776
 30
0.0
 70
0
  0
VERTEX
  8
WALLS
 10
15200.0
 20
-207.88010716677763
 30
0.0
 70
0
  0
VERTEX
  8
WALLS
 10
14800.0
 20
-207.88010716677763
 30
0.0
 70
0
  0
SEQEND
  8
WALLS
  0
POLYLINE
  8
WALLS
 66
1
 10
0.0
 20
0.0
 30
0.0
 70
1
  0
VERTEX
  8
WALLS
 10
18000.0
 20
-4007.8801071667776
 30
0.0
 70
0
  0
VERTEX
  8
WALLS
 10
18400.0
 20
-4007.8801071667776
 30
0.0
 70
0
  0
VERTEX
  8
WALLS
 10
18400.0
 20
-207.88010716677763
 30
0.0
 70
0
  0
VERTEX
  8
WALLS
 10
18000.0
 20
-207.88010716677763
 30
0.0
 70
0
  0
SEQEND
  8
WALLS
  0
POLYLINE
  8
WALLS
 66
1
 10
0.0
 20
0.0
 30
0.0
 70
1
  0
VERTEX
  8
WALLS
 10
12800.0
 20
-3207.8801071667776
 30
0.0
 70
0
  0
VERTEX
  8
WALLS
 10
13100.0
 20
-3207.8801071667776
 30
0.0
 70
0
  0
VERTEX
  8
WALLS
 10
13100.0
 20
-3097.8801071667776
 30
0.0
 70
0
  0
VERTEX
  8
WALLS
 10
12800.0
 20
-3097.8801071667776
 30
0.0
 70
0
  0
SEQEND
  8
WALLS
  0
POLYLINE
  8
WALLS
 66
1
 10
0.0
 20
0.0
 30
0.0
 70
1
  0
VERTEX
  8
WALLS
 10
13900.0
 20
-3207.8801071667776
 30
0.0
 70
0
  0
VERTEX
  8
WALLS
 10
14800.0
 20
-3207.8801071667776
 30
0.0
 70
0
  0
VERTEX
  8
WALLS
 10
14800.0
 20
-3097.8801071667776
 30
0.0
 70
0
  0
VERTEX
  8
WALLS
 10
13900.0
 20
-3097.8801071667776
 30
0.0
 70
0
  0
SEQEND
  8
WALLS
  0
POLYLINE
  8
WALLS
 66
1
 10
0.0
 20
0.0
 30
0.0
 70
1
  0
VERTEX
  8
WALLS
 10
12800.0
 20
-1707.8801071667776
 30
0.0
 70
0
  0
VERTEX
  8
WALLS
 10
13100.0
 20
-1707.8801071667776
 30
0.0
 70
0
  0
VERTEX
  8
WALLS
 10
13100.0
 20
-1597.8801071667776
 30
0.0
 70
0
  0
VERTEX
  8
WALLS
 10
12800.0
 20
-1597.8801071667776
 30
0.0
 70
0
  0
SEQEND
  8
WALLS
  0
POLYLINE
  8
WALLS
 66
1
 10
0.0
 20
0.0
 30
0.0
 70
1
  0
VERTEX
  8
WALLS
 10
13900.0
 20
-1707.8801071667776
 30
0.0
 70
0
  0
VERTEX
  8
WALLS
 10
14800.0
 20
-1707.8801071667776
 30
0.0
 70
0
  0
VERTEX
  8
WALLS
 10
14800.0
 20
-1597.8801071667776
 30
0.0
 70
0
  0
VERTEX
  8
WALLS
 10
13900.0
 20
-1597.8801071667776
 30
0.0
 70
0
  0
SEQEND
  8
WALLS
  0
LINE
  8
OPENINGS
 10
3610.0
 20
-3307.8801071667776
 30
0.0
 11
3610.0
 21
-2407.8801071667776
 31
0.0
  0
LINE
  8
OPENINGS
 10
3610.0
 20
-3307.8801071667776
 30
0.0
 11
4510.0
 21
-3307.8801071667776
 31
0.0
  0
ARC
  8
OPENINGS
 10
3610.0
 20
-3307.8801071667776
 30
0.0
 40
900.0
 50
0.0
 51
90.0
  0
LINE
  8
OPENINGS
 10
5520.0
 20
-3307.8801071667776
 30
0.0
 11
5520.0
 21
-2407.8801071667776
 31
0.0
  0
LINE
  8
OPENINGS
 10
5520.0
 20
-3307.8801071667776
 30
0.0
 11
6420.0
 21
-3307.8801071667776
 31
0.0
  0
ARC
  8
OPENINGS
 10
5520.0
 20
-3307.8801071667776
 30
0.0
 40
900.0
 50
0.0
 51
90.0
  0
LINE
  8
OPENINGS
 10
9130.0
 20
-3307.8801071667776
 30
0.0
 11
9130.0
 21
-2407.8801071667776
 31
0.0
  0
LINE
  8
OPENINGS
 10
9130.0
 20
-3307.8801071667776
 30
0.0
 11
10030.0
 21
-3307.8801071667776
 31
0.0
  0
ARC
  8
OPENINGS
 10
9130.0
 20
-3307.8801071667776
 30
0.0
 40
900.0
 50
0.0
 51
90.0
  0
LINE
  8
OPENINGS
 10
11040.0
 20
-3307.8801071667776
 30
0.0
 11
11040.0
 21
-2407.8801071667776
 31
0.0
  0
LINE
  8
OPENINGS
 10
11040.0
 20
-3307.8801071667776
 30
0.0
 11
11940.0
 21
-3307.8801071667776
 31
0.0
  0
ARC
  8
OPENINGS
 10
11040.0
 20
-3307.8801071667776
 30
0.0
 40
900.0
 50
0.0
 51
90.0
  0
LINE
  8
OPENINGS
 10
12800.0
 20
-1407.8801071667776
 30
0.0
 11
12800.0
 21
-607.8801071667776
 31
0.0
  0
LINE
  8
OPENINGS
 10
12800.0
 20
-1407.8801071667776
 30
0.0
 11
13600.0
 21
-1407.8801071667776
 31
0.0
  0
ARC
  8
OPENINGS
 10
12800.0
 20
-1407.8801071667776
 30
0.0
 40
800.0
 50
0.0
 51
90.0
  0
LINE
  8
OPENINGS
 10
14800.0
 20
-5207.880107166778
 30
0.0
 11
14800.0
 21
-4007.8801071667776
 31
0.0
  0
LINE
  8
OPENINGS
 10
14800.0
 20
-5207.880107166778
 30
0.0
 11
13600.0
 21
-5207.880107166778
 31
0.0
  0
ARC
  8
OPENINGS
 10
14800.0
 20
-5207.880107166778
 30
0.0
 40
1200.0
 50
90.0
 51
180.0
  0
LINE
  8
OPENINGS
 10
18400.0
 20
-5207.880107166778
 30
0.0
 11
18400.0
 21
-4007.8801071667776
 31
0.0
  0
LINE
  8
OPENINGS
 10
18400.0
 20
-5207.880107166778
 30
0.0
 11
19600.0
 21
-5207.880107166778
 31
0.0
  0
ARC
  8
OPENINGS
 10
18400.0
 20
-5207.880107166778
 30
0.0
 40
1200.0
 50
0.0
 51
90.0
  0
LINE
  8
OPENINGS
 10
13100.0
 20
-3207.8801071667776
 30
0.0
 11
13900.0
 21
-3207.8801071667776
 31
0.0
  0
LINE
  8
OPENINGS
 10
13100.0
 20
-3207.8801071667776
 30
0.0
 11
13100.0
 21
-2407.8801071667776
 31
0.0
  0
ARC
  8
OPENINGS
 10
13100.0
 20
-3207.8801071667776
 30
0.0
 40
800.0
 50
0.0
 51
90.0
  0
LINE
  8
OPENINGS
 10
13100.0
 20
-1707.8801071667776
 30
0.0
 11
13900.0
 21
-1707.8801071667776
 31
0.0
  0
LINE
  8
OPENINGS
 10
13100.0
 20
-1707.8801071667776
 30
0.0
 11
13100.0
 21
-907.8801071667776
 31
0.0
  0
ARC
  8
OPENINGS
 10
13100.0
 20
-1707.8801071667776
 30
0.0
 40
800.0
 50
0.0
 51
90.0
  0
CIRCLE
  8
OPENINGS
 10
2050.0
 20
-3757.8801071667776
 30
0.0
 40
700.0
  0
CIRCLE
  8
HIDDEN
 10
2050.0
 20
-3757.8801071667776
 30
0.0
 40
950.0
  0
LINE
  8
CENTRE
 10
1750.0
 20
-3757.8801071667776
 30
0.0
 11
2350.0
 21
-3757.8801071667776
 31
0.0
  0
LINE
  8
CENTRE
 10
2050.0
 20
-4057.8801071667776
 30
0.0
 11
2050.0
 21
-3457.8801071667776
 31
0.0
  0
TEXT
  8
TEXT
 10
1780.0
 20
-4907.880107166778
 30
0.0
 40
120.0
  1
ESC 1  1400 DIA CLEAR
  7
STANDARD
 11
1780.0
 21
-4907.880107166778
 31
0.0
  0
TEXT
  8
TEXT
 10
2050.0
 20
-5057.880107166778
 30
0.0
 40
120.0
  1
COLLAR 250 OVER
  7
STANDARD
 11
2050.0
 21
-5057.880107166778
 31
0.0
  0
CIRCLE
  8
OPENINGS
 10
19900.0
 20
-3757.8801071667776
 30
0.0
 40
700.0
  0
CIRCLE
  8
HIDDEN
 10
19900.0
 20
-3757.8801071667776
 30
0.0
 40
950.0
  0
LINE
  8
CENTRE
 10
19600.0
 20
-3757.8801071667776
 30
0.0
 11
20200.0
 21
-3757.8801071667776
 31
0.0
  0
LINE
  8
CENTRE
 10
19900.0
 20
-4057.8801071667776
 30
0.0
 11
19900.0
 21
-3457.8801071667776
 31
0.0
  0
TEXT
  8
TEXT
 10
19684.0
 20
-4907.880107166778
 30
0.0
 40
120.0
  1
ESC 2  1400 DIA CLEAR
  7
STANDARD
 11
19284.0
 21
-4907.880107166778
 31
0.0
  0
TEXT
  8
TEXT
 10
19900.0
 20
-5057.880107166778
 30
0.0
 40
120.0
  1
COLLAR 250 OVER
  7
STANDARD
 11
19500.0
 21
-5057.880107166778
 31
0.0
  0
POLYLINE
  8
STAIRS
 66
1
 10
0.0
 20
0.0
 30
0.0
 70
1
  0
VERTEX
  8
STAIRS
 10
15300.0
 20
-4007.8801071667776
 30
0.0
 70
0
  0
VERTEX
  8
STAIRS
 10
16500.0
 20
-4007.8801071667776
 30
0.0
 70
0
  0
VERTEX
  8
STAIRS
 10
16500.0
 20
-2047.8801071667776
 30
0.0
 70
0
  0
VERTEX
  8
STAIRS
 10
15300.0
 20
-2047.8801071667776
 30
0.0
 70
0
  0
SEQEND
  8
STAIRS
  0
LINE
  8
STAIRS
 10
15300.0
 20
-3727.8801071667776
 30
0.0
 11
16500.0
 21
-3727.8801071667776
 31
0.0
  0
LINE
  8
STAIRS
 10
15300.0
 20
-3447.8801071667776
 30
0.0
 11
16500.0
 21
-3447.8801071667776
 31
0.0
  0
LINE
  8
STAIRS
 10
15300.0
 20
-3167.8801071667776
 30
0.0
 11
16500.0
 21
-3167.8801071667776
 31
0.0
  0
LINE
  8
STAIRS
 10
15300.0
 20
-2887.8801071667776
 30
0.0
 11
16500.0
 21
-2887.8801071667776
 31
0.0
  0
LINE
  8
STAIRS
 10
15300.0
 20
-2607.8801071667776
 30
0.0
 11
16500.0
 21
-2607.8801071667776
 31
0.0
  0
LINE
  8
STAIRS
 10
15300.0
 20
-2327.8801071667776
 30
0.0
 11
16500.0
 21
-2327.8801071667776
 31
0.0
  0
POLYLINE
  8
STAIRS
 66
1
 10
0.0
 20
0.0
 30
0.0
 70
1
  0
VERTEX
  8
STAIRS
 10
16700.0
 20
-4007.8801071667776
 30
0.0
 70
0
  0
VERTEX
  8
STAIRS
 10
17900.0
 20
-4007.8801071667776
 30
0.0
 70
0
  0
VERTEX
  8
STAIRS
 10
17900.0
 20
-2047.8801071667776
 30
0.0
 70
0
  0
VERTEX
  8
STAIRS
 10
16700.0
 20
-2047.8801071667776
 30
0.0
 70
0
  0
SEQEND
  8
STAIRS
  0
LINE
  8
STAIRS
 10
16700.0
 20
-3727.8801071667776
 30
0.0
 11
17900.0
 21
-3727.8801071667776
 31
0.0
  0
LINE
  8
STAIRS
 10
16700.0
 20
-3447.8801071667776
 30
0.0
 11
17900.0
 21
-3447.8801071667776
 31
0.0
  0
LINE
  8
STAIRS
 10
16700.0
 20
-3167.8801071667776
 30
0.0
 11
17900.0
 21
-3167.8801071667776
 31
0.0
  0
LINE
  8
STAIRS
 10
16700.0
 20
-2887.8801071667776
 30
0.0
 11
17900.0
 21
-2887.8801071667776
 31
0.0
  0
LINE
  8
STAIRS
 10
16700.0
 20
-2607.8801071667776
 30
0.0
 11
17900.0
 21
-2607.8801071667776
 31
0.0
  0
LINE
  8
STAIRS
 10
16700.0
 20
-2327.8801071667776
 30
0.0
 11
17900.0
 21
-2327.8801071667776
 31
0.0
  0
POLYLINE
  8
STAIRS
 66
1
 10
0.0
 20
0.0
 30
0.0
 70
1
  0
VERTEX
  8
STAIRS
 10
15200.0
 20
-2047.8801071667776
 30
0.0
 70
0
  0
VERTEX
  8
STAIRS
 10
18000.0
 20
-2047.8801071667776
 30
0.0
 70
0
  0
VERTEX
  8
STAIRS
 10
18000.0
 20
-847.8801071667776
 30
0.0
 70
0
  0
VERTEX
  8
STAIRS
 10
15200.0
 20
-847.8801071667776
 30
0.0
 70
0
  0
SEQEND
  8
STAIRS
  0
POLYLINE
  8
STAIRS
 66
1
 10
0.0
 20
0.0
 30
0.0
 70
1
  0
VERTEX
  8
STAIRS
 10
15200.0
 20
-5207.880107166778
 30
0.0
 70
0
  0
VERTEX
  8
STAIRS
 10
18000.0
 20
-5207.880107166778
 30
0.0
 70
0
  0
VERTEX
  8
STAIRS
 10
18000.0
 20
-4007.8801071667776
 30
0.0
 70
0
  0
VERTEX
  8
STAIRS
 10
15200.0
 20
-4007.8801071667776
 30
0.0
 70
0
  0
SEQEND
  8
STAIRS
  0
LINE
  8
STAIRS
 10
15900.0
 20
-2297.8801071667776
 30
0.0
 11
15900.0
 21
-3757.8801071667776
 31
0.0
  0
LINE
  8
STAIRS
 10
15900.0
 20
-3757.8801071667776
 30
0.0
 11
15810.0
 21
-3577.8801071667776
 31
0.0
  0
LINE
  8
STAIRS
 10
15900.0
 20
-3757.8801071667776
 30
0.0
 11
15990.0
 21
-3577.8801071667776
 31
0.0
  0
TEXT
  8
TEXT
 10
15134.0
 20
-3027.8801071667776
 30
0.0
 40
120.0
  1
FLIGHTS 1 + 3 UP
 50
90.0
  7
STANDARD
 11
14934.0
 21
-3027.8801071667776
 31
0.0
  0
TEXT
  8
TEXT
 10
18120.0
 20
-3027.8801071667776
 30
0.0
 40
120.0
  1
FLIGHT 2
 50
90.0
  7
STANDARD
 11
17920.0
 21
-3027.8801071667776
 31
0.0
  0
TEXT
  8
TEXT
 10
15300.0
 20
-5351.880107166778
 30
0.0
 40
120.0
  1
ARRIVAL -6.100  /  LANDING L2 -3.367 OVER
  7
STANDARD
 11
15100.0
 21
-5351.880107166778
 31
0.0
  0
TEXT
  8
TEXT
 10
15300.0
 20
-1647.8801071667776
 30
0.0
 40
120.0
  1
LANDING L1 -4.733
  7
STANDARD
 11
15100.0
 21
-1647.8801071667776
 31
0.0
  0
TEXT
  8
TEXT
 10
15192.0
 20
-457.88010716677763
 30
0.0
 40
120.0
  1
HEADHOUSE FLOOR PAD -2.000 OVER
  7
STANDARD
 11
14992.0
 21
-457.88010716677763
 31
0.0
  0
POLYLINE
  8
OPENINGS
 66
1
 10
0.0
 20
0.0
 30
0.0
 70
1
  0
VERTEX
  8
OPENINGS
 10
15200.0
 20
-5207.880107166778
 30
0.0
 70
0
  0
VERTEX
  8
OPENINGS
 10
18000.0
 20
-5207.880107166778
 30
0.0
 70
0
  0
VERTEX
  8
OPENINGS
 10
18000.0
 20
-2047.8801071667776
 30
0.0
 70
0
  0
VERTEX
  8
OPENINGS
 10
15200.0
 20
-2047.8801071667776
 30
0.0
 70
0
  0
SEQEND
  8
OPENINGS
  0
TEXT
  8
TEXT
 10
18100.0
 20
-2297.8801071667776
 30
0.0
 40
120.0
  1
EDGE OF OPENING IN THE PRESSURE SLAB
  7
STANDARD
 11
17900.0
 21
-2297.8801071667776
 31
0.0
  0
TEXT
  8
TEXT
 10
18100.0
 20
-2467.8801071667776
 30
0.0
 40
120.0
  1
SLAB RESTORED BEYOND = HEADHOUSE FLOOR
  7
STANDARD
 11
17900.0
 21
-2467.8801071667776
 31
0.0
  0
POLYLINE
  8
GROUND
 66
1
 10
0.0
 20
0.0
 30
0.0
 70
1
  0
VERTEX
  8
GROUND
 10
-1500.0
 20
-7307.880107166778
 30
0.0
 70
0
  0
VERTEX
  8
GROUND
 10
23500.0
 20
-7307.880107166778
 30
0.0
 70
0
  0
VERTEX
  8
GROUND
 10
23500.0
 20
1892.1198928332224
 30
0.0
 70
0
  0
VERTEX
  8
GROUND
 10
-1500.0
 20
1892.1198928332224
 30
0.0
 70
0
  0
SEQEND
  8
GROUND
  0
TEXT
  8
GROUND
 10
-1500.0
 20
2142.1198928332224
 30
0.0
 40
120.0
  1
EXCAVATION LINE  (1500 WORKING SPACE ALL ROUND)
  7
STANDARD
 11
-1500.0
 21
2142.1198928332224
 31
0.0
  0
TEXT
  8
TEXT
 10
2050.0
 20
892.1198928332224
 30
0.0
 40
150.0
  1
1
  7
STANDARD
 11
2050.0
 21
892.1198928332224
 31
0.0
  0
CIRCLE
  8
TEXT
 10
2050.0
 20
952.1198928332224
 30
0.0
 40
260.0
  0
TEXT
  8
TEXT
 10
2050.0
 20
-4577.880107166778
 30
0.0
 40
150.0
  1
ESC 1 / STORES
  7
STANDARD
 11
2050.0
 21
-4577.880107166778
 31
0.0
  0
TEXT
  8
TEXT
 10
4510.0
 20
892.1198928332224
 30
0.0
 40
150.0
  1
2
  7
STANDARD
 11
4510.0
 21
892.1198928332224
 31
0.0
  0
CIRCLE
  8
TEXT
 10
4510.0
 20
952.1198928332224
 30
0.0
 40
260.0
  0
TEXT
  8
TEXT
 10
4510.0
 20
-2757.8801071667776
 30
0.0
 40
150.0
  1
LAV / MEDICAL
 50
90.0
  7
STANDARD
 11
4510.0
 21
-2757.8801071667776
 31
0.0
  0
TEXT
  8
TEXT
 10
7270.0
 20
892.1198928332224
 30
0.0
 40
150.0
  1
3
  7
STANDARD
 11
7270.0
 21
892.1198928332224
 31
0.0
  0
CIRCLE
  8
TEXT
 10
7270.0
 20
952.1198928332224
 30
0.0
 40
260.0
  0
TEXT
  8
TEXT
 10
6122.5
 20
-2757.8801071667776
 30
0.0
 40
150.0
  1
OPS ROOM & HAZARD PLOTTING
  7
STANDARD
 11
6122.5
 21
-2757.8801071667776
 31
0.0
  0
TEXT
  8
TEXT
 10
10030.0
 20
892.1198928332224
 30
0.0
 40
150.0
  1
4
  7
STANDARD
 11
10030.0
 21
892.1198928332224
 31
0.0
  0
CIRCLE
  8
TEXT
 10
10030.0
 20
952.1198928332224
 30
0.0
 40
260.0
  0
TEXT
  8
TEXT
 10
10030.0
 20
-2757.8801071667776
 30
0.0
 40
150.0
  1
BERTHING
 50
90.0
  7
STANDARD
 11
10030.0
 21
-2757.8801071667776
 31
0.0
  0
TEXT
  8
TEXT
 10
11820.0
 20
892.1198928332224
 30
0.0
 40
150.0
  1
5
  7
STANDARD
 11
11820.0
 21
892.1198928332224
 31
0.0
  0
CIRCLE
  8
TEXT
 10
11820.0
 20
952.1198928332224
 30
0.0
 40
260.0
  0
TEXT
  8
TEXT
 10
11820.0
 20
-2757.8801071667776
 30
0.0
 40
150.0
  1
CBRN PLANT
 50
90.0
  7
STANDARD
 11
11820.0
 21
-2757.8801071667776
 31
0.0
  0
TEXT
  8
TEXT
 10
13800.0
 20
892.1198928332224
 30
0.0
 40
150.0
  1
6
  7
STANDARD
 11
13800.0
 21
892.1198928332224
 31
0.0
  0
CIRCLE
  8
TEXT
 10
13800.0
 20
952.1198928332224
 30
0.0
 40
260.0
  0
TEXT
  8
TEXT
 10
14277.29707730092
 20
-3235.1771844676973
 30
0.0
 40
150.0
  1
DECON AIRLOCK
 50
90.0
  7
STANDARD
 11
14277.29707730092
 21
-3235.1771844676973
 31
0.0
  0
TEXT
  8
TEXT
 10
16600.0
 20
892.1198928332224
 30
0.0
 40
150.0
  1
7
  7
STANDARD
 11
16400.0
 21
892.1198928332224
 31
0.0
  0
CIRCLE
  8
TEXT
 10
16600.0
 20
952.1198928332224
 30
0.0
 40
260.0
  0
TEXT
  8
TEXT
 10
19900.0
 20
892.1198928332224
 30
0.0
 40
150.0
  1
8
  7
STANDARD
 11
19500.0
 21
892.1198928332224
 31
0.0
  0
CIRCLE
  8
TEXT
 10
19900.0
 20
952.1198928332224
 30
0.0
 40
260.0
  0
TEXT
  8
TEXT
 10
19157.5
 20
-2757.8801071667776
 30
0.0
 40
150.0
  1
GENERATOR / SERVICES
  7
STANDARD
 11
18757.5
 21
-2757.8801071667776
 31
0.0
  0
TEXT
  8
TEXT
 10
15587.5
 20
-1307.8801071667776
 30
0.0
 40
150.0
  1
STAIR SHAFT 2800 x 5000
  7
STANDARD
 11
15387.5
 21
-1307.8801071667776
 31
0.0
  0
LINE
  8
DIM
 10
0.0
 20
-9007.880107166777
 30
0.0
 11
22000.0
 21
-9007.880107166777
 31
0.0
  0
LINE
  8
DIM
 10
-90.0
 20
-9097.880107166777
 30
0.0
 11
90.0
 21
-8917.880107166777
 31
0.0
  0
LINE
  8
DIM
 10
0.0
 20
-9187.880107166777
 30
0.0
 11
0.0
 21
-8827.880107166777
 31
0.0
  0
LINE
  8
DIM
 10
21910.0
 20
-9097.880107166777
 30
0.0
 11
22090.0
 21
-8917.880107166777
 31
0.0
  0
LINE
  8
DIM
 10
22000.0
 20
-9187.880107166777
 30
0.0
 11
22000.0
 21
-8827.880107166777
 31
0.0
  0
TEXT
  8
DIM
 10
11000.0
 20
-8935.880107166777
 30
0.0
 40
120.0
  1
22000 OVERALL
  7
STANDARD
 72
1
 11
11000.0
 21
-8935.880107166777
 31
0.0
  0
LINE
  8
DIM
 10
600.0
 20
-8407.880107166777
 30
0.0
 11
21400.0
 21
-8407.880107166777
 31
0.0
  0
LINE
  8
DIM
 10
510.0
 20
-8497.880107166777
 30
0.0
 11
690.0
 21
-8317.880107166777
 31
0.0
  0
LINE
  8
DIM
 10
600.0
 20
-8587.880107166777
 30
0.0
 11
600.0
 21
-8227.880107166777
 31
0.0
  0
LINE
  8
DIM
 10
21310.0
 20
-8497.880107166777
 30
0.0
 11
21490.0
 21
-8317.880107166777
 31
0.0
  0
LINE
  8
DIM
 10
21400.0
 20
-8587.880107166777
 30
0.0
 11
21400.0
 21
-8227.880107166777
 31
0.0
  0
TEXT
  8
DIM
 10
11000.0
 20
-8335.880107166777
 30
0.0
 40
120.0
  1
20800 INTERNAL
  7
STANDARD
 72
1
 11
11000.0
 21
-8335.880107166777
 31
0.0
  0
LINE
  8
DIM
 10
600.0
 20
-7807.880107166778
 30
0.0
 11
3500.0
 21
-7807.880107166778
 31
0.0
  0
LINE
  8
DIM
 10
510.0
 20
-7897.880107166778
 30
0.0
 11
690.0
 21
-7717.880107166778
 31
0.0
  0
LINE
  8
DIM
 10
600.0
 20
-7987.880107166778
 30
0.0
 11
600.0
 21
-7627.880107166778
 31
0.0
  0
LINE
  8
DIM
 10
3410.0
 20
-7897.880107166778
 30
0.0
 11
3590.0
 21
-7717.880107166778
 31
0.0
  0
LINE
  8
DIM
 10
3500.0
 20
-7987.880107166778
 30
0.0
 11
3500.0
 21
-7627.880107166778
 31
0.0
  0
TEXT
  8
DIM
 10
2050.0
 20
-7735.880107166778
 30
0.0
 40
120.0
  1
2900
  7
STANDARD
 72
1
 11
2050.0
 21
-7735.880107166778
 31
0.0
  0
LINE
  8
DIM
 10
3610.0
 20
-7807.880107166778
 30
0.0
 11
5410.0
 21
-7807.880107166778
 31
0.0
  0
LINE
  8
DIM
 10
3520.0
 20
-7897.880107166778
 30
0.0
 11
3700.0
 21
-7717.880107166778
 31
0.0
  0
LINE
  8
DIM
 10
3610.0
 20
-7987.880107166778
 30
0.0
 11
3610.0
 21
-7627.880107166778
 31
0.0
  0
LINE
  8
DIM
 10
5320.0
 20
-7897.880107166778
 30
0.0
 11
5500.0
 21
-7717.880107166778
 31
0.0
  0
LINE
  8
DIM
 10
5410.0
 20
-7987.880107166778
 30
0.0
 11
5410.0
 21
-7627.880107166778
 31
0.0
  0
TEXT
  8
DIM
 10
4510.0
 20
-7735.880107166778
 30
0.0
 40
120.0
  1
1800
  7
STANDARD
 72
1
 11
4510.0
 21
-7735.880107166778
 31
0.0
  0
LINE
  8
DIM
 10
5520.0
 20
-7807.880107166778
 30
0.0
 11
9020.0
 21
-7807.880107166778
 31
0.0
  0
LINE
  8
DIM
 10
5430.0
 20
-7897.880107166778
 30
0.0
 11
5610.0
 21
-7717.880107166778
 31
0.0
  0
LINE
  8
DIM
 10
5520.0
 20
-7987.880107166778
 30
0.0
 11
5520.0
 21
-7627.880107166778
 31
0.0
  0
LINE
  8
DIM
 10
8930.0
 20
-7897.880107166778
 30
0.0
 11
9110.0
 21
-7717.880107166778
 31
0.0
  0
LINE
  8
DIM
 10
9020.0
 20
-7987.880107166778
 30
0.0
 11
9020.0
 21
-7627.880107166778
 31
0.0
  0
TEXT
  8
DIM
 10
7270.0
 20
-7735.880107166778
 30
0.0
 40
120.0
  1
3500
  7
STANDARD
 72
1
 11
7270.0
 21
-7735.880107166778
 31
0.0
  0
LINE
  8
DIM
 10
9130.0
 20
-7807.880107166778
 30
0.0
 11
10930.0
 21
-7807.880107166778
 31
0.0
  0
LINE
  8
DIM
 10
9040.0
 20
-7897.880107166778
 30
0.0
 11
9220.0
 21
-7717.880107166778
 31
0.0
  0
LINE
  8
DIM
 10
9130.0
 20
-7987.880107166778
 30
0.0
 11
9130.0
 21
-7627.880107166778
 31
0.0
  0
LINE
  8
DIM
 10
10840.0
 20
-7897.880107166778
 30
0.0
 11
11020.0
 21
-7717.880107166778
 31
0.0
  0
LINE
  8
DIM
 10
10930.0
 20
-7987.880107166778
 30
0.0
 11
10930.0
 21
-7627.880107166778
 31
0.0
  0
TEXT
  8
DIM
 10
10030.0
 20
-7735.880107166778
 30
0.0
 40
120.0
  1
1800
  7
STANDARD
 72
1
 11
10030.0
 21
-7735.880107166778
 31
0.0
  0
LINE
  8
DIM
 10
11040.0
 20
-7807.880107166778
 30
0.0
 11
12600.0
 21
-7807.880107166778
 31
0.0
  0
LINE
  8
DIM
 10
10950.0
 20
-7897.880107166778
 30
0.0
 11
11130.0
 21
-7717.880107166778
 31
0.0
  0
LINE
  8
DIM
 10
11040.0
 20
-7987.880107166778
 30
0.0
 11
11040.0
 21
-7627.880107166778
 31
0.0
  0
LINE
  8
DIM
 10
12510.0
 20
-7897.880107166778
 30
0.0
 11
12690.0
 21
-7717.880107166778
 31
0.0
  0
LINE
  8
DIM
 10
12600.0
 20
-7987.880107166778
 30
0.0
 11
12600.0
 21
-7627.880107166778
 31
0.0
  0
TEXT
  8
DIM
 10
11820.0
 20
-7735.880107166778
 30
0.0
 40
120.0
  1
1560
  7
STANDARD
 72
1
 11
11820.0
 21
-7735.880107166778
 31
0.0
  0
LINE
  8
DIM
 10
12800.0
 20
-7807.880107166778
 30
0.0
 11
14800.0
 21
-7807.880107166778
 31
0.0
  0
LINE
  8
DIM
 10
12710.0
 20
-7897.880107166778
 30
0.0
 11
12890.0
 21
-7717.880107166778
 31
0.0
  0
LINE
  8
DIM
 10
12800.0
 20
-7987.880107166778
 30
0.0
 11
12800.0
 21
-7627.880107166778
 31
0.0
  0
LINE
  8
DIM
 10
14710.0
 20
-7897.880107166778
 30
0.0
 11
14890.0
 21
-7717.880107166778
 31
0.0
  0
LINE
  8
DIM
 10
14800.0
 20
-7987.880107166778
 30
0.0
 11
14800.0
 21
-7627.880107166778
 31
0.0
  0
TEXT
  8
DIM
 10
13800.0
 20
-7735.880107166778
 30
0.0
 40
120.0
  1
2000
  7
STANDARD
 72
1
 11
13800.0
 21
-7735.880107166778
 31
0.0
  0
LINE
  8
DIM
 10
15200.0
 20
-7807.880107166778
 30
0.0
 11
18000.0
 21
-7807.880107166778
 31
0.0
  0
LINE
  8
DIM
 10
15110.0
 20
-7897.880107166778
 30
0.0
 11
15290.0
 21
-7717.880107166778
 31
0.0
  0
LINE
  8
DIM
 10
15200.0
 20
-7987.880107166778
 30
0.0
 11
15200.0
 21
-7627.880107166778
 31
0.0
  0
LINE
  8
DIM
 10
17910.0
 20
-7897.880107166778
 30
0.0
 11
18090.0
 21
-7717.880107166778
 31
0.0
  0
LINE
  8
DIM
 10
18000.0
 20
-7987.880107166778
 30
0.0
 11
18000.0
 21
-7627.880107166778
 31
0.0
  0
TEXT
  8
DIM
 10
16600.0
 20
-7735.880107166778
 30
0.0
 40
120.0
  1
2800
  7
STANDARD
 72
1
 11
16600.0
 21
-7735.880107166778
 31
0.0
  0
LINE
  8
DIM
 10
18400.0
 20
-7807.880107166778
 30
0.0
 11
21400.0
 21
-7807.880107166778
 31
0.0
  0
LINE
  8
DIM
 10
18310.0
 20
-7897.880107166778
 30
0.0
 11
18490.0
 21
-7717.880107166778
 31
0.0
  0
LINE
  8
DIM
 10
18400.0
 20
-7987.880107166778
 30
0.0
 11
18400.0
 21
-7627.880107166778
 31
0.0
  0
LINE
  8
DIM
 10
21310.0
 20
-7897.880107166778
 30
0.0
 11
21490.0
 21
-7717.880107166778
 31
0.0
  0
LINE
  8
DIM
 10
21400.0
 20
-7987.880107166778
 30
0.0
 11
21400.0
 21
-7627.880107166778
 31
0.0
  0
TEXT
  8
DIM
 10
19900.0
 20
-7735.880107166778
 30
0.0
 40
120.0
  1
3000
  7
STANDARD
 72
1
 11
19900.0
 21
-7735.880107166778
 31
0.0
  0
LINE
  8
DIM
 10
-2600.0
 20
-5807.880107166778
 30
0.0
 11
-2600.0
 21
392.11989283322237
 31
0.0
  0
LINE
  8
DIM
 10
-2690.0
 20
-5897.880107166778
 30
0.0
 11
-2510.0
 21
-5717.880107166778
 31
0.0
  0
LINE
  8
DIM
 10
-2780.0
 20
-5807.880107166778
 30
0.0
 11
-2420.0
 21
-5807.880107166778
 31
0.0
  0
LINE
  8
DIM
 10
-2690.0
 20
302.11989283322237
 30
0.0
 11
-2510.0
 21
482.11989283322237
 31
0.0
  0
LINE
  8
DIM
 10
-2780.0
 20
392.11989283322237
 30
0.0
 11
-2420.0
 21
392.11989283322237
 31
0.0
  0
TEXT
  8
DIM
 10
-2672.0
 20
-2707.8801071667776
 30
0.0
 40
120.0
  1
6200
 50
90.0
  7
STANDARD
 72
1
 11
-2672.0
 21
-2707.8801071667776
 31
0.0
  0
LINE
  8
DIM
 10
-1500.0
 20
-5207.880107166778
 30
0.0
 11
-1500.0
 21
-207.88010716677763
 31
0.0
  0
LINE
  8
DIM
 10
-1590.0
 20
-5297.880107166778
 30
0.0
 11
-1410.0
 21
-5117.880107166778
 31
0.0
  0
LINE
  8
DIM
 10
-1680.0
 20
-5207.880107166778
 30
0.0
 11
-1320.0
 21
-5207.880107166778
 31
0.0
  0
LINE
  8
DIM
 10
-1590.0
 20
-297.88010716677763
 30
0.0
 11
-1410.0
 21
-117.88010716677763
 31
0.0
  0
LINE
  8
DIM
 10
-1680.0
 20
-207.88010716677763
 30
0.0
 11
-1320.0
 21
-207.88010716677763
 31
0.0
  0
TEXT
  8
DIM
 10
-1572.0
 20
-2707.8801071667776
 30
0.0
 40
120.0
  1
5000 CLEAR
 50
90.0
  7
STANDARD
 72
1
 11
-1572.0
 21
-2707.8801071667776
 31
0.0
  0
TEXT
  8
TEXT
 10
0.0
 20
2992.1198928332224
 30
0.0
 40
250.0
  1
DRAWING 1  -  UNDERGROUND LEVEL PLAN
  7
STANDARD
 11
0.0
 21
2992.1198928332224
 31
0.0
  0
TEXT
  8
TEXT
 10
0.0
 20
2592.1198928332224
 30
0.0
 40
120.0
  1
SCALE 1:50 AT A1   -   ALL DIMENSIONS IN MILLIMETRES
  7
STANDARD
 11
0.0
 21
2592.1198928332224
 31
0.0
  0
TEXT
  8
TEXT
 10
-5245.999999999999
 20
-15865.760214333557
 30
0.0
 40
120.0
  1
PERIMETER WALL 600 RC   W5 200   W6 / W7 400 (MOD M1)   PARTITIONS 110
  7
STANDARD
 11
-5245.999999999999
 21
-15865.760214333557
 31
0.0
  0
TEXT
  8
TEXT
 10
-5245.999999999999
 20
-16165.760214333557
 30
0.0
 40
120.0
  1
FLOOR LEVEL -6.100   ROOF SOFFIT -2.900   CLEAR HEIGHT 3200
  7
STANDARD
 11
-5245.999999999999
 21
-16165.760214333557
 31
0.0
  0
TEXT
  8
TEXT
 10
-5245.999999999999
 20
-16465.760214333557
 30
0.0
 40
120.0
  1
MAIN ENTRANCE IS VIA THE STAIR SHAFT (BAY 7) FROM THE ENTRY HEADHOUSE AT -2.000 ABOVE
  7
STANDARD
 11
-5245.999999999999
 21
-16465.760214333557
 31
0.0
  0
TEXT
  8
TEXT
 10
-5245.999999999999
 20
-16765.760214333557
 30
0.0
 40
120.0
  1
STAIR REV E - 3 FLIGHTS x 8 RISERS @ 170.8 / 280.  HEADROOM 2533 BETWEEN STACKED FLIGHTS
  7
STANDARD
 11
-5245.999999999999
 21
-16765.760214333557
 31
0.0
  0
TEXT
  8
TEXT
 10
-5245.999999999999
 20
-17065.760214333557
 30
0.0
 40
120.0
  1
REV C - BOX LENGTHENED 20200 TO 21600. BOTH ESCAPE OPENINGS SET 750 MIN CLEAR
  7
STANDARD
 11
-5245.999999999999
 21
-17065.760214333557
 31
0.0
  0
TEXT
  8
TEXT
 10
-5245.999999999999
 20
-17365.760214333557
 30
0.0
 40
120.0
  1
OF EVERY STRUCTURAL WALL FACE (WAS 50). BAY 1 WIDENED 1500 TO 2900.
  7
STANDARD
 11
-5245.999999999999
 21
-17365.760214333557
 31
0.0
  0
TEXT
  8
TEXT
 10
-5245.999999999999
 20
-17665.760214333557
 30
0.0
 40
120.0
  1
REV E - STAIR OPENING IN THE PRESSURE SLAB REDUCED TO Y 600-3760; THE SLAB BEYOND IT
  7
STANDARD
 11
-5245.999999999999
 21
-17665.760214333557
 31
0.0
  0
TEXT
  8
TEXT
 10
-5245.999999999999
 20
-17965.760214333557
 30
0.0
 40
120.0
  1
IS THE HEADHOUSE FLOOR AT -2.000.  ESCAPE SHAFT 2 HEAD RAISED FROM +0.150 TO +0.700.
  7
STANDARD
 11
-5245.999999999999
 21
-17965.760214333557
 31
0.0
  0
TEXT
  8
TEXT
 10
-5245.999999999999
 20
-18265.760214333557
 30
0.0
 40
120.0
  1
MOD M1 (APPROVED) - W6 AND W7 400 THK; BOX 22000; SHAFT 15200-18000; ESC2 AT X 19900; HEADHOUSE AND COVERED STAIRWELL +200. GEOMETRY REV F + M1.
  7
STANDARD
 11
-5245.999999999999
 21
-18265.760214333557
 31
0.0
  0
LINE
  8
LEADER
 10
15216.239785666443
 20
-2294.0154052243797
 30
0.0
 11
15378.635833891492
 21
-2294.0154052243797
 31
0.0
  0
LINE
  8
LEADER
 10
15378.635833891492
 20
-2294.0154052243797
 30
0.0
 11
15577.119892833221
 21
-2294.0154052243797
 31
0.0
  0
LINE
  8
LEADER
 10
17952.0
 20
-2655.944407233757
 30
0.0
 11
17765.30395177495
 21
-2655.944407233757
 31
0.0
  0
LINE
  8
LEADER
 10
17765.30395177495
 20
-2655.944407233757
 30
0.0
 11
17537.119892833223
 21
-2655.944407233757
 31
0.0
  0
LINE
  8
LEADER
 10
9570.30977896852
 20
-2704.279973208305
 30
0.0
 11
9297.427578700603
 21
-2704.279973208305
 31
0.0
  0
LINE
  8
LEADER
 10
9297.427578700603
 20
-2704.279973208305
 30
0.0
 11
8963.90488948426
 21
-2704.279973208305
 31
0.0
  0
LINE
  8
LEADER
 10
14067.29707730092
 20
-2378.680198533337
 30
0.0
 11
13922.893332234193
 21
-2378.680198533337
 31
0.0
  0
LINE
  8
LEADER
 10
13922.893332234193
 20
-2378.680198533337
 30
0.0
 11
13746.399866041527
 21
-1901.3831212324171
 31
0.0
  0
LINE
  8
LEADER
 10
21714.65338245144
 20
-2704.279973208305
 30
0.0
 11
21459.918871399866
 21
-2704.279973208305
 31
0.0
  0
LINE
  8
LEADER
 10
21459.918871399866
 20
-2704.279973208305
 30
0.0
 11
21148.57669122572
 21
-2704.279973208305
 31
0.0
  0
LINE
  8
LEADER
 10
18349.007032819827
 20
-1254.279973208305
 30
0.0
 11
18169.792950435367
 21
-1254.279973208305
 31
0.0
  0
LINE
  8
LEADER
 10
18169.792950435367
 20
-1254.279973208305
 30
0.0
 11
17950.753516409914
 21
-1254.279973208305
 31
0.0
  0
LINE
  8
SHEET-BORDER
 10
-6195.999999999999
 20
-19350.0
 30
0.0
 11
35854.0
 21
-19350.0
 31
0.0
  0
LINE
  8
SHEET-BORDER
 10
35854.0
 20
-19350.0
 30
0.0
 11
35854.0
 21
10350.0
 31
0.0
  0
LINE
  8
SHEET-BORDER
 10
35854.0
 20
10350.0
 30
0.0
 11
-6195.999999999999
 21
10350.0
 31
0.0
  0
LINE
  8
SHEET-BORDER
 10
-6195.999999999999
 20
10350.0
 30
0.0
 11
-6195.999999999999
 21
-19350.0
 31
0.0
  0
LINE
  8
SHEET-BORDER
 10
-5695.999999999999
 20
-18850.0
 30
0.0
 11
35354.0
 21
-18850.0
 31
0.0
  0
LINE
  8
SHEET-BORDER
 10
35354.0
 20
-18850.0
 30
0.0
 11
35354.0
 21
9850.0
 31
0.0
  0
LINE
  8
SHEET-BORDER
 10
35354.0
 20
9850.0
 30
0.0
 11
-5695.999999999999
 21
9850.0
 31
0.0
  0
LINE
  8
SHEET-BORDER
 10
-5695.999999999999
 20
9850.0
 30
0.0
 11
-5695.999999999999
 21
-18850.0
 31
0.0
  0
LINE
  8
SHEET-TITLEBLOCK
 10
26354.0
 20
-18850.0
 30
0.0
 11
35354.0
 21
-18850.0
 31
0.0
  0
LINE
  8
SHEET-TITLEBLOCK
 10
35354.0
 20
-18850.0
 30
0.0
 11
35354.0
 21
-13850.0
 31
0.0
  0
LINE
  8
SHEET-TITLEBLOCK
 10
35354.0
 20
-13850.0
 30
0.0
 11
26354.0
 21
-13850.0
 31
0.0
  0
LINE
  8
SHEET-TITLEBLOCK
 10
26354.0
 20
-13850.0
 30
0.0
 11
26354.0
 21
-18850.0
 31
0.0
  0
LINE
  8
SHEET-TITLEBLOCK
 10
26354.0
 20
-17850.0
 30
0.0
 11
35354.0
 21
-17850.0
 31
0.0
  0
LINE
  8
SHEET-TITLEBLOCK
 10
26354.0
 20
-17250.0
 30
0.0
 11
35354.0
 21
-17250.0
 31
0.0
  0
LINE
  8
SHEET-TITLEBLOCK
 10
26354.0
 20
-16650.0
 30
0.0
 11
35354.0
 21
-16650.0
 31
0.0
  0
LINE
  8
SHEET-TITLEBLOCK
 10
26354.0
 20
-16050.0
 30
0.0
 11
35354.0
 21
-16050.0
 31
0.0
  0
LINE
  8
SHEET-TITLEBLOCK
 10
26354.0
 20
-14950.0
 30
0.0
 11
35354.0
 21
-14950.0
 31
0.0
  0
LINE
  8
SHEET-TITLEBLOCK
 10
31954.0
 20
-18850.0
 30
0.0
 11
31954.0
 21
-17850.0
 31
0.0
  0
LINE
  8
SHEET-TITLEBLOCK
 10
33654.0
 20
-18850.0
 30
0.0
 11
33654.0
 21
-17850.0
 31
0.0
  0
LINE
  8
SHEET-TITLEBLOCK
 10
31154.0
 20
-17850.0
 30
0.0
 11
31154.0
 21
-17250.0
 31
0.0
  0
TEXT
  8
SHEET-TEXT
 10
26454.0
 20
-18120.0
 30
0.0
 40
70.0
  1
DRAWING No.
 11
26454.0
 21
-18120.0
 31
0.0
  0
TEXT
  8
SHEET-TEXT
 10
27154.0
 20
-18640.0
 30
0.0
 40
220.00000000000003
  1
A-101
 11
27154.0
 21
-18640.0
 31
0.0
  0
TEXT
  8
SHEET-TEXT
 10
32054.0
 20
-18120.0
 30
0.0
 40
70.0
  1
REV
 11
32054.0
 21
-18120.0
 31
0.0
  0
TEXT
  8
SHEET-TEXT
 10
32054.0
 20
-18620.0
 30
0.0
 40
140.0
  1
F + M1
 11
32054.0
 21
-18620.0
 31
0.0
  0
TEXT
  8
SHEET-TEXT
 10
33754.0
 20
-18120.0
 30
0.0
 40
70.0
  1
SHEET
 11
33754.0
 21
-18120.0
 31
0.0
  0
TEXT
  8
SHEET-TEXT
 10
33754.0
 20
-18600.0
 30
0.0
 40
95.0
  1
1 OF 10
 11
33754.0
 21
-18600.0
 31
0.0
  0
TEXT
  8
SHEET-TEXT
 10
26454.0
 20
-17630.0
 30
0.0
 40
95.0
  1
SCALE   1:50 AT A1
 11
26454.0
 21
-17630.0
 31
0.0
  0
TEXT
  8
SHEET-TEXT
 10
31254.0
 20
-17630.0
 30
0.0
 40
95.0
  1
DATE   09.09.2026
 11
31254.0
 21
-17630.0
 31
0.0
  0
TEXT
  8
SHEET-TEXT
 10
26454.0
 20
-17030.0
 30
0.0
 40
75.0
  1
DRAWN  [PLACEHOLDER]
 11
26454.0
 21
-17030.0
 31
0.0
  0
TEXT
  8
SHEET-TEXT
 10
29454.0
 20
-17030.0
 30
0.0
 40
75.0
  1
CHECKED  [PLACEHOLDER]
 11
29454.0
 21
-17030.0
 31
0.0
  0
TEXT
  8
SHEET-TEXT
 10
32454.0
 20
-17030.0
 30
0.0
 40
75.0
  1
APPROVED  [PLACEHOLDER]
 11
32454.0
 21
-17030.0
 31
0.0
  0
TEXT
  8
SHEET-TEXT
 10
26454.0
 20
-16430.0
 30
0.0
 40
70.0
  1
STATUS
 11
26454.0
 21
-16430.0
 31
0.0
  0
TEXT
  8
SHEET-TEXT
 10
27454.0
 20
-16450.0
 30
0.0
 40
95.0
  1
FOR REVIEW - NOT FOR CONSTRUCTION
 11
27454.0
 21
-16450.0
 31
0.0
  0
TEXT
  8
SHEET-TEXT
 10
26454.0
 20
-15180.0
 30
0.0
 40
70.0
  1
DRAWING TITLE
 11
26454.0
 21
-15180.0
 31
0.0
  0
TEXT
  8
SHEET-TEXT
 10
26454.0
 20
-15580.0
 30
0.0
 40
120.0
  1
UNDERGROUND LEVEL PLAN
 11
26454.0
 21
-15580.0
 31
0.0
  0
TEXT
  8
SHEET-TEXT
 10
26454.0
 20
-15910.0
 30
0.0
 40
75.0
  1
FLOOR (-)6.100 - BAYS 1 TO 8, ESCAPE SHAFTS, STAIR SHAFT
 11
26454.0
 21
-15910.0
 31
0.0
  0
TEXT
  8
SHEET-TEXT
 10
26454.0
 20
-14090.0
 30
0.0
 40
70.0
  1
PROJECT
 11
26454.0
 21
-14090.0
 31
0.0
  0
TEXT
  8
SHEET-TEXT
 10
26454.0
 20
-14370.0
 30
0.0
 40
95.0
  1
UNDERGROUND CBRN-HARDENED BLAST-RESISTANT
 11
26454.0
 21
-14370.0
 31
0.0
  0
TEXT
  8
SHEET-TEXT
 10
26454.0
 20
-14600.0
 30
0.0
 40
95.0
  1
PROTECTIVE STRUCTURE  -  PUNE, MAHARASHTRA
 11
26454.0
 21
-14600.0
 31
0.0
  0
TEXT
  8
SHEET-TEXT
 10
26454.0
 20
-14840.0
 30
0.0
 40
75.0
  1
ARCHITECTURAL REV F  +  MODIFICATION M1
 11
26454.0
 21
-14840.0
 31
0.0
  0
TEXT
  8
SHEET-TEXT
 10
-5595.999999999999
 20
9475.0
 30
0.0
 40
160.0
  1
A-101   UNDERGROUND LEVEL PLAN
 11
-5595.999999999999
 21
9475.0
 31
0.0
  0
LINE
  8
SHEET-BORDER
 10
-5695.999999999999
 20
9325.0
 30
0.0
 11
35354.0
 21
9325.0
 31
0.0
  0
TEXT
  8
SHEET-TEXT
 10
-5595.999999999999
 20
-18725.0
 30
0.0
 40
75.0
  1
QA1  09.09.2026   DRAWING QA/QC - ANNOTATION POSITIONS, SHEET FRAME AND TITLE BLOCK.  NO GEOMETRY, DIMENSION OR VALUE CHANGED.
 11
-5595.999999999999
 21
-18725.0
 31
0.0
  0
LINE
  8
SHEET-BORDER
 10
-5395.999999999999
 20
-18450.0
 30
0.0
 11
8999.61955793704
 21
-18450.0
 31
0.0
  0
LINE
  8
SHEET-BORDER
 10
8999.61955793704
 20
-18450.0
 30
0.0
 11
8999.61955793704
 21
-15295.760214333557
 31
0.0
  0
LINE
  8
SHEET-BORDER
 10
8999.61955793704
 20
-15295.760214333557
 30
0.0
 11
-5395.999999999999
 21
-15295.760214333557
 31
0.0
  0
LINE
  8
SHEET-BORDER
 10
-5395.999999999999
 20
-15295.760214333557
 30
0.0
 11
-5395.999999999999
 21
-18450.0
 31
0.0
  0
TEXT
  8
SHEET-TEXT
 10
-5245.999999999999
 20
-15565.760214333557
 30
0.0
 40
130.0
  1
NOTES
 11
-5245.999999999999
 21
-15565.760214333557
 31
0.0
  0
ENDSEC
  0
EOF
