0
SECTION
2
HEADER
9
$ACADVER
1
AC1009
9
$INSUNITS
70
4
9
$MEASUREMENT
70
1
9
$LTSCALE
40
25.0
9
$LIMCHECK
70
0
9
$EXTMIN
10
-2000.000
20
-7090.000
30
0.0
9
$EXTMAX
10
25184.000
20
11595.000
30
0.0
9
$LIMMIN
10
-2000.000
20
-7090.000
9
$LIMMAX
10
25184.000
20
11595.000
0
ENDSEC
0
SECTION
2
TABLES
0
TABLE
2
LTYPE
70
3
0
LTYPE
2
CONTINUOUS
70
0
3
Solid line
72
65
73
0
40
0.0
0
LTYPE
2
DASHED
70
0
3
Dashed __ __ __
72
65
73
2
40
15.0
49
10.0
49
-5.0
0
LTYPE
2
CENTER
70
0
3
Centre ____ _ ____
72
65
73
4
40
50.0
49
32.0
49
-6.0
49
6.0
49
-6.0
0
ENDTAB
0
TABLE
2
LAYER
70
10
0
LAYER
2
0
70
0
62
7
6
CONTINUOUS
0
LAYER
2
WALLS
70
0
62
7
6
CONTINUOUS
0
LAYER
2
OPENINGS
70
0
62
1
6
CONTINUOUS
0
LAYER
2
STAIRS
70
0
62
3
6
CONTINUOUS
0
LAYER
2
GROUND
70
0
62
42
6
CONTINUOUS
0
LAYER
2
TEXT
70
0
62
2
6
CONTINUOUS
0
LAYER
2
DIM
70
0
62
4
6
CONTINUOUS
0
LAYER
2
HIDDEN
70
0
62
8
6
DASHED
0
LAYER
2
CENTRE
70
0
62
6
6
CENTER
0
LAYER
2
BEYOND
70
0
62
9
6
CONTINUOUS
0
ENDTAB
0
TABLE
2
STYLE
70
1
0
STYLE
2
STANDARD
70
0
40
0.0
41
1.0
50
0.0
71
0
42
2.5
3
txt
4

0
ENDTAB
0
TABLE
2
APPID
70
1
0
APPID
2
ACAD
70
0
0
ENDTAB
0
ENDSEC
0
SECTION
2
BLOCKS
0
ENDSEC
0
SECTION
2
ENTITIES
0
LINE
8
HIDDEN
10
10200.000
20
0.000
30
0.0
11
21800.000
21
0.000
31
0.0
0
LINE
8
HIDDEN
10
10200.000
20
6200.000
30
0.0
11
21800.000
21
6200.000
31
0.0
0
LINE
8
HIDDEN
10
10200.000
20
600.000
30
0.0
11
21800.000
21
600.000
31
0.0
0
LINE
8
HIDDEN
10
10200.000
20
5600.000
30
0.0
11
21800.000
21
5600.000
31
0.0
0
LINE
8
HIDDEN
10
21000.000
20
0.000
30
0.0
11
21000.000
21
6200.000
31
0.0
0
LINE
8
HIDDEN
10
21600.000
20
0.000
30
0.0
11
21600.000
21
6200.000
31
0.0
0
LINE
8
HIDDEN
10
14800.000
20
600.000
30
0.0
11
14800.000
21
5600.000
31
0.0
0
LINE
8
HIDDEN
10
15000.000
20
600.000
30
0.0
11
15000.000
21
5600.000
31
0.0
0
LINE
8
HIDDEN
10
17800.000
20
600.000
30
0.0
11
17800.000
21
5600.000
31
0.0
0
LINE
8
HIDDEN
10
18000.000
20
600.000
30
0.0
11
18000.000
21
5600.000
31
0.0
0
LINE
8
HIDDEN
10
10200.000
20
0.000
30
0.0
11
10400.000
21
0.000
31
0.0
0
LINE
8
HIDDEN
10
10200.000
20
600.000
30
0.0
11
10400.000
21
600.000
31
0.0
0
LINE
8
HIDDEN
10
10200.000
20
5600.000
30
0.0
11
10400.000
21
5600.000
31
0.0
0
LINE
8
HIDDEN
10
10200.000
20
6200.000
30
0.0
11
10400.000
21
6200.000
31
0.0
0
POLYLINE
8
HIDDEN
66
1
10
0.0
20
0.0
30
0.0
70
0
0
VERTEX
8
HIDDEN
10
10320.000
20
-300.000
30
0.0
0
VERTEX
8
HIDDEN
10
10520.000
20
1500.000
30
0.0
0
VERTEX
8
HIDDEN
10
10320.000
20
3100.000
30
0.0
0
VERTEX
8
HIDDEN
10
10520.000
20
4700.000
30
0.0
0
VERTEX
8
HIDDEN
10
10320.000
20
6500.000
30
0.0
0
SEQEND
8
HIDDEN
0
TEXT
8
HIDDEN
10
10620.000
20
6520.000
30
0.0
40
130.000
1
UNDERGROUND BOX BELOW - PART PLAN
7
STANDARD
72
0
11
10620.000
21
6520.000
31
0.0
0
TEXT
8
HIDDEN
10
15080.000
20
5750.000
30
0.0
40
105.000
1
BAY 6/7 WALL
7
STANDARD
72
0
11
15080.000
21
5750.000
31
0.0
0
TEXT
8
HIDDEN
10
18080.000
20
5750.000
30
0.0
40
105.000
1
BAY 7/8 WALL
7
STANDARD
72
0
11
18080.000
21
5750.000
31
0.0
0
POLYLINE
8
GROUND
66
1
10
0.0
20
0.0
30
0.0
70
0
0
VERTEX
8
GROUND
10
9050.000
20
5750.000
30
0.0
0
VERTEX
8
GROUND
10
10400.000
20
4400.000
30
0.0
0
VERTEX
8
GROUND
10
17200.000
20
4400.000
30
0.0
0
VERTEX
8
GROUND
10
17200.000
20
9100.000
30
0.0
0
VERTEX
8
GROUND
10
10400.000
20
9100.000
30
0.0
0
VERTEX
8
GROUND
10
9050.000
20
7750.000
30
0.0
0
SEQEND
8
GROUND
0
TEXT
8
TEXT
10
8750.000
20
9480.000
30
0.0
40
115.000
1
EARTH GRADED AGAINST THE STAIRWELL WALLS TO +0.900, 1.5:1.  THE ROOF
7
STANDARD
72
0
11
8750.000
21
9480.000
31
0.0
0
TEXT
8
TEXT
10
8750.000
20
9320.000
30
0.0
40
115.000
1
AND THE HEADWALL STAND PROUD - SEE SECTION C-C.  THE EARTH FALLS FROM
7
STANDARD
72
0
11
8750.000
21
9320.000
31
0.0
0
TEXT
8
TEXT
10
8750.000
20
9160.000
30
0.0
40
115.000
1
+0.900 TO GRADE OVER THE LAST 1350 SO THE DOOR IS CLEAR AT 0.000
7
STANDARD
72
0
11
8750.000
21
9160.000
31
0.0
0
POLYLINE
8
GROUND
66
1
10
0.0
20
0.0
30
0.0
70
0
0
VERTEX
8
GROUND
10
12050.000
20
7350.000
30
0.0
0
VERTEX
8
GROUND
10
12050.000
20
-1150.000
30
0.0
0
VERTEX
8
GROUND
10
19550.000
20
-1150.000
30
0.0
0
VERTEX
8
GROUND
10
19550.000
20
7350.000
30
0.0
0
SEQEND
8
GROUND
0
LINE
8
GROUND
10
17200.000
20
7350.000
30
0.0
11
19550.000
21
7350.000
31
0.0
0
LINE
8
GROUND
10
12050.000
20
-1150.000
30
0.0
11
13400.000
21
-1150.000
31
0.0
0
LINE
8
GROUND
10
12050.000
20
550.000
30
0.0
11
13400.000
21
550.000
31
0.0
0
LINE
8
GROUND
10
12050.000
20
2250.000
30
0.0
11
13400.000
21
2250.000
31
0.0
0
LINE
8
GROUND
10
12050.000
20
3950.000
30
0.0
11
13400.000
21
3950.000
31
0.0
0
LINE
8
GROUND
10
12050.000
20
5650.000
30
0.0
11
13400.000
21
5650.000
31
0.0
0
LINE
8
GROUND
10
12050.000
20
7350.000
30
0.0
11
13400.000
21
7350.000
31
0.0
0
LINE
8
GROUND
10
19550.000
20
-1150.000
30
0.0
11
18200.000
21
-1150.000
31
0.0
0
LINE
8
GROUND
10
19550.000
20
550.000
30
0.0
11
18200.000
21
550.000
31
0.0
0
LINE
8
GROUND
10
19550.000
20
2250.000
30
0.0
11
18200.000
21
2250.000
31
0.0
0
LINE
8
GROUND
10
19550.000
20
3950.000
30
0.0
11
18200.000
21
3950.000
31
0.0
0
LINE
8
GROUND
10
19550.000
20
5650.000
30
0.0
11
18200.000
21
5650.000
31
0.0
0
LINE
8
GROUND
10
19550.000
20
7350.000
30
0.0
11
18200.000
21
7350.000
31
0.0
0
LINE
8
GROUND
10
12050.000
20
-1150.000
30
0.0
11
12050.000
21
200.000
31
0.0
0
LINE
8
GROUND
10
13550.000
20
-1150.000
30
0.0
11
13550.000
21
200.000
31
0.0
0
LINE
8
GROUND
10
15050.000
20
-1150.000
30
0.0
11
15050.000
21
200.000
31
0.0
0
LINE
8
GROUND
10
16550.000
20
-1150.000
30
0.0
11
16550.000
21
200.000
31
0.0
0
LINE
8
GROUND
10
18050.000
20
-1150.000
30
0.0
11
18050.000
21
200.000
31
0.0
0
LINE
8
GROUND
10
19550.000
20
-1150.000
30
0.0
11
19550.000
21
200.000
31
0.0
0
LINE
8
GROUND
10
17675.000
20
7350.000
30
0.0
11
17675.000
21
6000.000
31
0.0
0
LINE
8
GROUND
10
18612.500
20
7350.000
30
0.0
11
18612.500
21
6000.000
31
0.0
0
LINE
8
GROUND
10
19550.000
20
7350.000
30
0.0
11
19550.000
21
6000.000
31
0.0
0
TEXT
8
TEXT
10
12050.000
20
-1470.000
30
0.0
40
130.000
1
BERM 1.5:1, 1350 RUN, TOE AT GRADE 0.000
7
STANDARD
72
0
11
12050.000
21
-1470.000
31
0.0
0
TEXT
8
TEXT
10
17500.000
20
7670.000
30
0.0
40
115.000
1
BERM RESUMES EAST OF THE STAIRWELL
7
STANDARD
72
0
11
17500.000
21
7670.000
31
0.0
0
POLYLINE
8
WALLS
66
1
10
0.0
20
0.0
30
0.0
70
1
0
VERTEX
8
WALLS
10
13400.000
20
200.000
30
0.0
0
VERTEX
8
WALLS
10
18200.000
20
200.000
30
0.0
0
VERTEX
8
WALLS
10
18200.000
20
6000.000
30
0.0
0
VERTEX
8
WALLS
10
13400.000
20
6000.000
30
0.0
0
SEQEND
8
WALLS
0
POLYLINE
8
WALLS
66
1
10
0.0
20
0.0
30
0.0
70
1
0
VERTEX
8
WALLS
10
13800.000
20
600.000
30
0.0
0
VERTEX
8
WALLS
10
17800.000
20
600.000
30
0.0
0
VERTEX
8
WALLS
10
17800.000
20
5600.000
30
0.0
0
VERTEX
8
WALLS
10
13800.000
20
5600.000
30
0.0
0
SEQEND
8
WALLS
0
TEXT
8
TEXT
10
13400.000
20
8250.000
30
0.0
40
160.000
1
HEADHOUSE   400 WALLS / 500 ROOF   FLOOR -2.000   ROOF TOP +0.900
7
STANDARD
72
0
11
13400.000
21
8250.000
31
0.0
0
POLYLINE
8
OPENINGS
66
1
10
0.0
20
0.0
30
0.0
70
1
0
VERTEX
8
OPENINGS
10
15000.000
20
600.000
30
0.0
0
VERTEX
8
OPENINGS
10
17800.000
20
600.000
30
0.0
0
VERTEX
8
OPENINGS
10
17800.000
20
3760.000
30
0.0
0
VERTEX
8
OPENINGS
10
15000.000
20
3760.000
30
0.0
0
SEQEND
8
OPENINGS
0
TEXT
8
TEXT
10
18050.000
20
3610.000
30
0.0
40
112.000
1
OPENING IN THE PRESSURE
7
STANDARD
72
0
11
18050.000
21
3610.000
31
0.0
0
TEXT
8
TEXT
10
18050.000
20
3450.000
30
0.0
40
112.000
1
SLAB  2800 x 3160
7
STANDARD
72
0
11
18050.000
21
3450.000
31
0.0
0
TEXT
8
TEXT
10
18050.000
20
3290.000
30
0.0
40
100.000
1
1100 GUARDING TO EDGE
7
STANDARD
72
0
11
18050.000
21
3290.000
31
0.0
0
LINE
8
STAIRS
10
15100.000
20
2080.000
30
0.0
11
16300.000
21
2080.000
31
0.0
0
LINE
8
HIDDEN
10
16500.000
20
2080.000
30
0.0
11
17700.000
21
2080.000
31
0.0
0
LINE
8
STAIRS
10
15100.000
20
2360.000
30
0.0
11
16300.000
21
2360.000
31
0.0
0
LINE
8
HIDDEN
10
16500.000
20
2360.000
30
0.0
11
17700.000
21
2360.000
31
0.0
0
LINE
8
STAIRS
10
15100.000
20
2640.000
30
0.0
11
16300.000
21
2640.000
31
0.0
0
LINE
8
HIDDEN
10
16500.000
20
2640.000
30
0.0
11
17700.000
21
2640.000
31
0.0
0
LINE
8
STAIRS
10
15100.000
20
2920.000
30
0.0
11
16300.000
21
2920.000
31
0.0
0
LINE
8
HIDDEN
10
16500.000
20
2920.000
30
0.0
11
17700.000
21
2920.000
31
0.0
0
LINE
8
STAIRS
10
15100.000
20
3200.000
30
0.0
11
16300.000
21
3200.000
31
0.0
0
LINE
8
HIDDEN
10
16500.000
20
3200.000
30
0.0
11
17700.000
21
3200.000
31
0.0
0
LINE
8
STAIRS
10
15100.000
20
3480.000
30
0.0
11
16300.000
21
3480.000
31
0.0
0
LINE
8
HIDDEN
10
16500.000
20
3480.000
30
0.0
11
17700.000
21
3480.000
31
0.0
0
LINE
8
STAIRS
10
15100.000
20
3760.000
30
0.0
11
16300.000
21
3760.000
31
0.0
0
LINE
8
HIDDEN
10
16500.000
20
3760.000
30
0.0
11
17700.000
21
3760.000
31
0.0
0
POLYLINE
8
STAIRS
66
1
10
0.0
20
0.0
30
0.0
70
1
0
VERTEX
8
STAIRS
10
15100.000
20
1800.000
30
0.0
0
VERTEX
8
STAIRS
10
16300.000
20
1800.000
30
0.0
0
VERTEX
8
STAIRS
10
16300.000
20
3760.000
30
0.0
0
VERTEX
8
STAIRS
10
15100.000
20
3760.000
30
0.0
0
SEQEND
8
STAIRS
0
POLYLINE
8
HIDDEN
66
1
10
0.0
20
0.0
30
0.0
70
1
0
VERTEX
8
HIDDEN
10
16500.000
20
1800.000
30
0.0
0
VERTEX
8
HIDDEN
10
17700.000
20
1800.000
30
0.0
0
VERTEX
8
HIDDEN
10
17700.000
20
3760.000
30
0.0
0
VERTEX
8
HIDDEN
10
16500.000
20
3760.000
30
0.0
0
SEQEND
8
HIDDEN
0
LINE
8
DIM
10
15700.000
20
2050.000
30
0.0
11
15700.000
21
3510.000
31
0.0
0
LINE
8
DIM
10
15700.000
20
3510.000
30
0.0
11
15570.000
21
3240.000
31
0.0
0
LINE
8
DIM
10
15700.000
20
3510.000
30
0.0
11
15830.000
21
3240.000
31
0.0
0
TEXT
8
TEXT
10
15180.000
20
1480.000
30
0.0
40
108.000
1
FLIGHT 3 UP
7
STANDARD
72
0
11
15180.000
21
1480.000
31
0.0
0
TEXT
8
HIDDEN
10
16580.000
20
1320.000
30
0.0
40
100.000
1
FLIGHT 2 BELOW
7
STANDARD
72
0
11
16580.000
21
1320.000
31
0.0
0
POLYLINE
8
HIDDEN
66
1
10
0.0
20
0.0
30
0.0
70
1
0
VERTEX
8
HIDDEN
10
15000.000
20
600.000
30
0.0
0
VERTEX
8
HIDDEN
10
17800.000
20
600.000
30
0.0
0
VERTEX
8
HIDDEN
10
17800.000
20
1800.000
30
0.0
0
VERTEX
8
HIDDEN
10
15000.000
20
1800.000
30
0.0
0
SEQEND
8
HIDDEN
0
TEXT
8
HIDDEN
10
15120.000
20
760.000
30
0.0
40
100.000
1
LANDING L2 BELOW  -3.367
7
STANDARD
72
0
11
15120.000
21
760.000
31
0.0
0
TEXT
8
TEXT
10
15120.000
20
5010.000
30
0.0
40
115.000
1
FLOOR PAD -2.000
7
STANDARD
72
0
11
15120.000
21
5010.000
31
0.0
0
TEXT
8
TEXT
10
15120.000
20
4860.000
30
0.0
40
110.000
1
OVER LANDING L1
7
STANDARD
72
0
11
15120.000
21
4860.000
31
0.0
0
TEXT
8
TEXT
10
13920.000
20
4400.000
30
0.0
40
145.000
1
HEADHOUSE FLOOR
7
STANDARD
72
0
11
13920.000
21
4400.000
31
0.0
0
TEXT
8
TEXT
10
13920.000
20
4230.000
30
0.0
40
120.000
1
-2.000  =  TOP OF
7
STANDARD
72
0
11
13920.000
21
4230.000
31
0.0
0
TEXT
8
TEXT
10
13920.000
20
4080.000
30
0.0
40
120.000
1
THE PRESSURE SLAB
7
STANDARD
72
0
11
13920.000
21
4080.000
31
0.0
0
TEXT
8
TEXT
10
13920.000
20
3880.000
30
0.0
40
110.000
1
11.15 m2 USABLE
7
STANDARD
72
0
11
13920.000
21
3880.000
31
0.0
0
CIRCLE
8
OPENINGS
10
14250.000
20
2600.000
30
0.0
40
150.000
0
TEXT
8
TEXT
10
14500.000
20
2560.000
30
0.0
40
110.000
1
HOSE-DOWN POINT
7
STANDARD
72
0
11
14500.000
21
2560.000
31
0.0
0
CIRCLE
8
OPENINGS
10
14250.000
20
2000.000
30
0.0
40
90.000
0
TEXT
8
TEXT
10
14500.000
20
1960.000
30
0.0
40
105.000
1
FLOOR GULLY, FALL 1:80
7
STANDARD
72
0
11
14500.000
21
1960.000
31
0.0
0
TEXT
8
TEXT
10
13920.000
20
1300.000
30
0.0
40
110.000
1
EQUIPMENT DROP
7
STANDARD
72
0
11
13920.000
21
1300.000
31
0.0
0
TEXT
8
TEXT
10
13920.000
20
1150.000
30
0.0
40
110.000
1
PPE STORE
7
STANDARD
72
0
11
13920.000
21
1150.000
31
0.0
0
POLYLINE
8
OPENINGS
66
1
10
0.0
20
0.0
30
0.0
70
1
0
VERTEX
8
OPENINGS
10
14250.000
20
5600.000
30
0.0
0
VERTEX
8
OPENINGS
10
15150.000
20
5600.000
30
0.0
0
VERTEX
8
OPENINGS
10
15150.000
20
6000.000
30
0.0
0
VERTEX
8
OPENINGS
10
14250.000
20
6000.000
30
0.0
0
SEQEND
8
OPENINGS
0
ARC
8
OPENINGS
10
14250.000
20
6000.000
30
0.0
40
900.000
50
0.000
51
90.000
0
LINE
8
OPENINGS
10
14250.000
20
6000.000
30
0.0
11
14250.000
21
6900.000
31
0.0
0
TEXT
8
TEXT
10
11800.000
20
6250.000
30
0.0
40
120.000
1
OUTER SECURITY DOOR
7
STANDARD
72
0
11
11800.000
21
6250.000
31
0.0
0
TEXT
8
TEXT
10
11800.000
20
6090.000
30
0.0
40
105.000
1
900 x 2100, NOT BLAST RATED
7
STANDARD
72
0
11
11800.000
21
6090.000
31
0.0
0
POLYLINE
8
GROUND
66
1
10
0.0
20
0.0
30
0.0
70
1
0
VERTEX
8
GROUND
10
14100.000
20
6000.000
30
0.0
0
VERTEX
8
GROUND
10
15600.000
20
6000.000
30
0.0
0
VERTEX
8
GROUND
10
15600.000
20
7500.000
30
0.0
0
VERTEX
8
GROUND
10
14100.000
20
7500.000
30
0.0
0
SEQEND
8
GROUND
0
TEXT
8
TEXT
10
14180.000
20
7180.000
30
0.0
40
110.000
1
PLATFORM -2.000
7
STANDARD
72
0
11
14180.000
21
7180.000
31
0.0
0
TEXT
8
TEXT
10
14180.000
20
7030.000
30
0.0
40
100.000
1
1500 x 1500
7
STANDARD
72
0
11
14180.000
21
7030.000
31
0.0
0
POLYLINE
8
GROUND
66
1
10
0.0
20
0.0
30
0.0
70
1
0
VERTEX
8
GROUND
10
10800.000
20
6000.000
30
0.0
0
VERTEX
8
GROUND
10
14100.000
20
6000.000
30
0.0
0
VERTEX
8
GROUND
10
14100.000
20
7500.000
30
0.0
0
VERTEX
8
GROUND
10
10800.000
20
7500.000
30
0.0
0
SEQEND
8
GROUND
0
LINE
8
GROUND
10
13800.000
20
6000.000
30
0.0
11
13800.000
21
7500.000
31
0.0
0
LINE
8
GROUND
10
13500.000
20
6000.000
30
0.0
11
13500.000
21
7500.000
31
0.0
0
LINE
8
GROUND
10
13200.000
20
6000.000
30
0.0
11
13200.000
21
7500.000
31
0.0
0
LINE
8
GROUND
10
12900.000
20
6000.000
30
0.0
11
12900.000
21
7500.000
31
0.0
0
LINE
8
GROUND
10
12600.000
20
6000.000
30
0.0
11
12600.000
21
7500.000
31
0.0
0
LINE
8
GROUND
10
12300.000
20
6000.000
30
0.0
11
12300.000
21
7500.000
31
0.0
0
LINE
8
GROUND
10
12000.000
20
6000.000
30
0.0
11
12000.000
21
7500.000
31
0.0
0
LINE
8
GROUND
10
11700.000
20
6000.000
30
0.0
11
11700.000
21
7500.000
31
0.0
0
LINE
8
GROUND
10
11400.000
20
6000.000
30
0.0
11
11400.000
21
7500.000
31
0.0
0
LINE
8
GROUND
10
11100.000
20
6000.000
30
0.0
11
11100.000
21
7500.000
31
0.0
0
LINE
8
GROUND
10
10800.000
20
6000.000
30
0.0
11
10800.000
21
7500.000
31
0.0
0
POLYLINE
8
GROUND
66
1
10
0.0
20
0.0
30
0.0
70
1
0
VERTEX
8
GROUND
10
9300.000
20
6000.000
30
0.0
0
VERTEX
8
GROUND
10
10800.000
20
6000.000
30
0.0
0
VERTEX
8
GROUND
10
10800.000
20
7500.000
30
0.0
0
VERTEX
8
GROUND
10
9300.000
20
7500.000
30
0.0
0
SEQEND
8
GROUND
0
TEXT
8
TEXT
10
9390.000
20
7180.000
30
0.0
40
110.000
1
TOP LANDING
7
STANDARD
72
0
11
9390.000
21
7180.000
31
0.0
0
TEXT
8
TEXT
10
9390.000
20
7030.000
30
0.0
40
100.000
1
1500 AT 0.000
7
STANDARD
72
0
11
9390.000
21
7030.000
31
0.0
0
TEXT
8
TEXT
10
10800.000
20
8930.000
30
0.0
40
125.000
1
APPROACH STEPS  12R @ 166.7 / 300 TREAD, 1500 WIDE
7
STANDARD
72
0
11
10800.000
21
8930.000
31
0.0
0
TEXT
8
TEXT
10
10800.000
20
8770.000
30
0.0
40
115.000
1
GRADE 0.000 DOWN TO -2.000, NOW UNDER A ROOF
7
STANDARD
72
0
11
10800.000
21
8770.000
31
0.0
0
POLYLINE
8
WALLS
66
1
10
0.0
20
0.0
30
0.0
70
1
0
VERTEX
8
WALLS
10
9050.000
20
5750.000
30
0.0
0
VERTEX
8
WALLS
10
15850.000
20
5750.000
30
0.0
0
VERTEX
8
WALLS
10
15850.000
20
6000.000
30
0.0
0
VERTEX
8
WALLS
10
9050.000
20
6000.000
30
0.0
0
SEQEND
8
WALLS
0
POLYLINE
8
WALLS
66
1
10
0.0
20
0.0
30
0.0
70
1
0
VERTEX
8
WALLS
10
9050.000
20
7500.000
30
0.0
0
VERTEX
8
WALLS
10
15850.000
20
7500.000
30
0.0
0
VERTEX
8
WALLS
10
15850.000
20
7750.000
30
0.0
0
VERTEX
8
WALLS
10
9050.000
20
7750.000
30
0.0
0
SEQEND
8
WALLS
0
POLYLINE
8
WALLS
66
1
10
0.0
20
0.0
30
0.0
70
1
0
VERTEX
8
WALLS
10
9050.000
20
5750.000
30
0.0
0
VERTEX
8
WALLS
10
9300.000
20
5750.000
30
0.0
0
VERTEX
8
WALLS
10
9300.000
20
7750.000
30
0.0
0
VERTEX
8
WALLS
10
9050.000
20
7750.000
30
0.0
0
SEQEND
8
WALLS
0
POLYLINE
8
WALLS
66
1
10
0.0
20
0.0
30
0.0
70
1
0
VERTEX
8
WALLS
10
15600.000
20
5750.000
30
0.0
0
VERTEX
8
WALLS
10
15850.000
20
5750.000
30
0.0
0
VERTEX
8
WALLS
10
15850.000
20
7750.000
30
0.0
0
VERTEX
8
WALLS
10
15600.000
20
7750.000
30
0.0
0
SEQEND
8
WALLS
0
POLYLINE
8
OPENINGS
66
1
10
0.0
20
0.0
30
0.0
70
1
0
VERTEX
8
OPENINGS
10
9050.000
20
6250.000
30
0.0
0
VERTEX
8
OPENINGS
10
9300.000
20
6250.000
30
0.0
0
VERTEX
8
OPENINGS
10
9300.000
20
7250.000
30
0.0
0
VERTEX
8
OPENINGS
10
9050.000
20
7250.000
30
0.0
0
SEQEND
8
OPENINGS
0
LINE
8
OPENINGS
10
8050.000
20
6250.000
30
0.0
11
9050.000
21
6250.000
31
0.0
0
ARC
8
OPENINGS
10
9050.000
20
6250.000
30
0.0
40
1000.000
50
90.000
51
180.000
0
TEXT
8
TEXT
10
5550.000
20
7770.000
30
0.0
40
125.000
1
ENTRY DOOR 1000 x 2100
7
STANDARD
72
0
11
5550.000
21
7770.000
31
0.0
0
TEXT
8
TEXT
10
5550.000
20
7610.000
30
0.0
40
110.000
1
AT GRADE 0.000 IN THE HEADWALL,
7
STANDARD
72
0
11
5550.000
21
7610.000
31
0.0
0
TEXT
8
TEXT
10
5550.000
20
7450.000
30
0.0
40
110.000
1
OPENS OUTWARD, GROUND FALLS AWAY
7
STANDARD
72
0
11
5550.000
21
7450.000
31
0.0
0
POLYLINE
8
OPENINGS
66
1
10
0.0
20
0.0
30
0.0
70
1
0
VERTEX
8
OPENINGS
10
8750.000
20
6000.000
30
0.0
0
VERTEX
8
OPENINGS
10
9050.000
20
6000.000
30
0.0
0
VERTEX
8
OPENINGS
10
9050.000
20
7500.000
30
0.0
0
VERTEX
8
OPENINGS
10
8750.000
20
7500.000
30
0.0
0
SEQEND
8
OPENINGS
0
TEXT
8
TEXT
10
5550.000
20
5580.000
30
0.0
40
110.000
1
300 CHANNEL AND GRATING ACROSS THE FULL
7
STANDARD
72
0
11
5550.000
21
5580.000
31
0.0
0
TEXT
8
TEXT
10
5550.000
20
5420.000
30
0.0
40
110.000
1
1500 WIDTH; GROUND FALLS 1:50 FOR 2000
7
STANDARD
72
0
11
5550.000
21
5420.000
31
0.0
0
POLYLINE
8
HIDDEN
66
1
10
0.0
20
0.0
30
0.0
70
1
0
VERTEX
8
HIDDEN
10
9050.000
20
5750.000
30
0.0
0
VERTEX
8
HIDDEN
10
15850.000
20
5750.000
30
0.0
0
VERTEX
8
HIDDEN
10
15850.000
20
7750.000
30
0.0
0
VERTEX
8
HIDDEN
10
9050.000
20
7750.000
30
0.0
0
SEQEND
8
HIDDEN
0
TEXT
8
HIDDEN
10
9420.000
20
5520.000
30
0.0
40
110.000
1
250 RC ROOF OVER THE WHOLE STAIRWELL, SOFFIT
7
STANDARD
72
0
11
9420.000
21
5520.000
31
0.0
0
TEXT
8
HIDDEN
10
9420.000
20
5360.000
30
0.0
40
110.000
1
2200 ABOVE THE FLIGHT - SEE SECTION C-C
7
STANDARD
72
0
11
9420.000
21
5360.000
31
0.0
0
TEXT
8
TEXT
10
9050.000
20
7970.000
30
0.0
40
110.000
1
250 RC WALLS BOTH SIDES, PROPPED BY THE ROOF
7
STANDARD
72
0
11
9050.000
21
7970.000
31
0.0
0
LINE
8
DIM
10
8350.000
20
6750.000
30
0.0
11
14550.000
21
6750.000
31
0.0
0
LINE
8
DIM
10
14550.000
20
6750.000
30
0.0
11
14550.000
21
6250.000
31
0.0
0
LINE
8
DIM
10
14550.000
20
6250.000
30
0.0
11
14430.000
21
6500.000
31
0.0
0
LINE
8
DIM
10
14550.000
20
6250.000
30
0.0
11
14670.000
21
6500.000
31
0.0
0
TEXT
8
TEXT
10
11000.000
20
6970.000
30
0.0
40
110.000
1
IN AT GRADE, DOWN 2.000 UNDER COVER,
7
STANDARD
72
0
11
11000.000
21
6970.000
31
0.0
0
TEXT
8
TEXT
10
11000.000
20
6810.000
30
0.0
40
110.000
1
THEN 90 DEG TURN INTO THE HEADHOUSE
7
STANDARD
72
0
11
11000.000
21
6810.000
31
0.0
0
CIRCLE
8
OPENINGS
10
14320.000
20
6220.000
30
0.0
40
90.000
0
TEXT
8
TEXT
10
15900.000
20
6180.000
30
0.0
40
105.000
1
TRAPPED GULLY -> EXTERNAL SOAKAWAY,
7
STANDARD
72
0
11
15900.000
21
6180.000
31
0.0
0
TEXT
8
TEXT
10
15900.000
20
6030.000
30
0.0
40
105.000
1
NEVER TO THE CLEAN SUMP
7
STANDARD
72
0
11
15900.000
21
6030.000
31
0.0
0
CIRCLE
8
WALLS
10
19500.000
20
2050.000
30
0.0
40
950.000
0
CIRCLE
8
OPENINGS
10
19500.000
20
2050.000
30
0.0
40
700.000
0
TEXT
8
TEXT
10
18550.000
20
550.000
30
0.0
40
120.000
1
ESCAPE SHAFT 2  1400 ID
7
STANDARD
72
0
11
18550.000
21
550.000
31
0.0
0
TEXT
8
TEXT
10
18550.000
20
390.000
30
0.0
40
115.000
1
HEAD RAISED 150 -> +0.700
7
STANDARD
72
0
11
18550.000
21
390.000
31
0.0
0
TEXT
8
TEXT
10
18550.000
20
230.000
30
0.0
40
105.000
1
BERM GRADED OVER IT - NOTE 3
7
STANDARD
72
0
11
18550.000
21
230.000
31
0.0
0
LINE
8
DIM
10
18200.000
20
4150.000
30
0.0
11
18550.000
21
4150.000
31
0.0
0
LINE
8
DIM
10
18110.000
20
4060.000
30
0.0
11
18290.000
21
4240.000
31
0.0
0
LINE
8
DIM
10
18200.000
20
3970.000
30
0.0
11
18200.000
21
4330.000
31
0.0
0
LINE
8
DIM
10
18460.000
20
4060.000
30
0.0
11
18640.000
21
4240.000
31
0.0
0
LINE
8
DIM
10
18550.000
20
3970.000
30
0.0
11
18550.000
21
4330.000
31
0.0
0
TEXT
8
DIM
10
18375.000
20
4222.000
30
0.0
40
120.000
1
350 ONLY
7
STANDARD
72
1
11
18375.000
21
4222.000
31
0.0
0
LINE
8
DIM
10
13400.000
20
-2250.000
30
0.0
11
18200.000
21
-2250.000
31
0.0
0
LINE
8
DIM
10
13310.000
20
-2340.000
30
0.0
11
13490.000
21
-2160.000
31
0.0
0
LINE
8
DIM
10
13400.000
20
-2430.000
30
0.0
11
13400.000
21
-2070.000
31
0.0
0
LINE
8
DIM
10
18110.000
20
-2340.000
30
0.0
11
18290.000
21
-2160.000
31
0.0
0
LINE
8
DIM
10
18200.000
20
-2430.000
30
0.0
11
18200.000
21
-2070.000
31
0.0
0
TEXT
8
DIM
10
15800.000
20
-2178.000
30
0.0
40
120.000
1
4800 HEADHOUSE EXTERNAL
7
STANDARD
72
1
11
15800.000
21
-2178.000
31
0.0
0
LINE
8
DIM
10
13800.000
20
-2850.000
30
0.0
11
15000.000
21
-2850.000
31
0.0
0
LINE
8
DIM
10
13710.000
20
-2940.000
30
0.0
11
13890.000
21
-2760.000
31
0.0
0
LINE
8
DIM
10
13800.000
20
-3030.000
30
0.0
11
13800.000
21
-2670.000
31
0.0
0
LINE
8
DIM
10
14910.000
20
-2940.000
30
0.0
11
15090.000
21
-2760.000
31
0.0
0
LINE
8
DIM
10
15000.000
20
-3030.000
30
0.0
11
15000.000
21
-2670.000
31
0.0
0
TEXT
8
DIM
10
14400.000
20
-2778.000
30
0.0
40
120.000
1
1200 FLOOR
7
STANDARD
72
1
11
14400.000
21
-2778.000
31
0.0
0
LINE
8
DIM
10
15000.000
20
-2850.000
30
0.0
11
17800.000
21
-2850.000
31
0.0
0
LINE
8
DIM
10
14910.000
20
-2940.000
30
0.0
11
15090.000
21
-2760.000
31
0.0
0
LINE
8
DIM
10
15000.000
20
-3030.000
30
0.0
11
15000.000
21
-2670.000
31
0.0
0
LINE
8
DIM
10
17710.000
20
-2940.000
30
0.0
11
17890.000
21
-2760.000
31
0.0
0
LINE
8
DIM
10
17800.000
20
-3030.000
30
0.0
11
17800.000
21
-2670.000
31
0.0
0
TEXT
8
DIM
10
16400.000
20
-2778.000
30
0.0
40
120.000
1
2800 SHAFT / VOID
7
STANDARD
72
1
11
16400.000
21
-2778.000
31
0.0
0
LINE
8
DIM
10
11250.000
20
200.000
30
0.0
11
11250.000
21
6000.000
31
0.0
0
LINE
8
DIM
10
11160.000
20
110.000
30
0.0
11
11340.000
21
290.000
31
0.0
0
LINE
8
DIM
10
11070.000
20
200.000
30
0.0
11
11430.000
21
200.000
31
0.0
0
LINE
8
DIM
10
11160.000
20
5910.000
30
0.0
11
11340.000
21
6090.000
31
0.0
0
LINE
8
DIM
10
11070.000
20
6000.000
30
0.0
11
11430.000
21
6000.000
31
0.0
0
TEXT
8
DIM
10
11178.000
20
3100.000
30
0.0
40
120.000
1
5800
50
90.000
7
STANDARD
72
1
11
11178.000
21
3100.000
31
0.0
0
LINE
8
DIM
10
22500.000
20
600.000
30
0.0
11
22500.000
21
3760.000
31
0.0
0
LINE
8
DIM
10
22410.000
20
510.000
30
0.0
11
22590.000
21
690.000
31
0.0
0
LINE
8
DIM
10
22320.000
20
600.000
30
0.0
11
22680.000
21
600.000
31
0.0
0
LINE
8
DIM
10
22410.000
20
3670.000
30
0.0
11
22590.000
21
3850.000
31
0.0
0
LINE
8
DIM
10
22320.000
20
3760.000
30
0.0
11
22680.000
21
3760.000
31
0.0
0
TEXT
8
DIM
10
22428.000
20
2180.000
30
0.0
40
120.000
1
3160 VOID
50
90.000
7
STANDARD
72
1
11
22428.000
21
2180.000
31
0.0
0
LINE
8
DIM
10
22500.000
20
3760.000
30
0.0
11
22500.000
21
5600.000
31
0.0
0
LINE
8
DIM
10
22410.000
20
3670.000
30
0.0
11
22590.000
21
3850.000
31
0.0
0
LINE
8
DIM
10
22320.000
20
3760.000
30
0.0
11
22680.000
21
3760.000
31
0.0
0
LINE
8
DIM
10
22410.000
20
5510.000
30
0.0
11
22590.000
21
5690.000
31
0.0
0
LINE
8
DIM
10
22320.000
20
5600.000
30
0.0
11
22680.000
21
5600.000
31
0.0
0
TEXT
8
DIM
10
22428.000
20
4680.000
30
0.0
40
120.000
1
1840 PAD
50
90.000
7
STANDARD
72
1
11
22428.000
21
4680.000
31
0.0
0
LINE
8
DIM
10
9050.000
20
8450.000
30
0.0
11
15850.000
21
8450.000
31
0.0
0
LINE
8
DIM
10
8960.000
20
8360.000
30
0.0
11
9140.000
21
8540.000
31
0.0
0
LINE
8
DIM
10
9050.000
20
8270.000
30
0.0
11
9050.000
21
8630.000
31
0.0
0
LINE
8
DIM
10
15760.000
20
8360.000
30
0.0
11
15940.000
21
8540.000
31
0.0
0
LINE
8
DIM
10
15850.000
20
8270.000
30
0.0
11
15850.000
21
8630.000
31
0.0
0
TEXT
8
DIM
10
12450.000
20
8522.000
30
0.0
40
120.000
1
7300 COVERED STAIRWELL EXTERNAL
7
STANDARD
72
1
11
12450.000
21
8522.000
31
0.0
0
LINE
8
DIM
10
10800.000
20
9000.000
30
0.0
11
15600.000
21
9000.000
31
0.0
0
LINE
8
DIM
10
10710.000
20
8910.000
30
0.0
11
10890.000
21
9090.000
31
0.0
0
LINE
8
DIM
10
10800.000
20
8820.000
30
0.0
11
10800.000
21
9180.000
31
0.0
0
LINE
8
DIM
10
15510.000
20
8910.000
30
0.0
11
15690.000
21
9090.000
31
0.0
0
LINE
8
DIM
10
15600.000
20
8820.000
30
0.0
11
15600.000
21
9180.000
31
0.0
0
TEXT
8
DIM
10
13200.000
20
9072.000
30
0.0
40
120.000
1
4800 STAIR + PLATFORM
7
STANDARD
72
1
11
13200.000
21
9072.000
31
0.0
0
TEXT
8
TEXT
10
10200.000
20
-3750.000
30
0.0
40
300.000
1
GROUND PLAN - HEADHOUSE + BERM      SCALE 1:50
7
STANDARD
72
0
11
10200.000
21
-3750.000
31
0.0
0
TEXT
8
TEXT
10
10200.000
20
-4170.000
30
0.0
40
125.000
1
1  THE HEADHOUSE FLOOR IS THE TOP OF THE 900 PRESSURE SLAB AT -2.000. IT IS NOT A SEPARATE SLAB.
7
STANDARD
72
0
11
10200.000
21
-4170.000
31
0.0
0
TEXT
8
TEXT
10
10200.000
20
-4400.000
30
0.0
40
125.000
1
2  THE STAIR RISES THROUGH AN OPENING IN THAT SLAB AND LANDS DIRECTLY ON THE FLOOR AT -2.000.
7
STANDARD
72
0
11
10200.000
21
-4400.000
31
0.0
0
TEXT
8
TEXT
10
10200.000
20
-4630.000
30
0.0
40
125.000
1
3  ESCAPE SHAFT 2 HEAD RAISED 150 -> 700 SO THE BERM CAN RUN OVER IT: ONLY 350 CLEAR TO THE HEADHOUSE.
7
STANDARD
72
0
11
10200.000
21
-4630.000
31
0.0
0
TEXT
8
TEXT
10
10200.000
20
-4860.000
30
0.0
40
125.000
1
4  PROTECTIVE BOUNDARY IS BLAST DOOR 1 AT THE FOOT OF THE STAIR, NOT THE OUTER DOOR.
7
STANDARD
72
0
11
10200.000
21
-4860.000
31
0.0
0
TEXT
8
TEXT
10
10200.000
20
-5090.000
30
0.0
40
125.000
1
5  ALL DIMENSIONS mm.  LEVELS m RELATIVE TO SITE GRADE 0.000.
7
STANDARD
72
0
11
10200.000
21
-5090.000
31
0.0
0
ENDSEC
0
EOF
