  0
SECTION
  2
HEADER
  9
$ACADVER
  1
AC1009
  9
$DWGCODEPAGE
  3
ANSI_1252
  9
$EXTMIN
 10
1e+20
 20
1e+20
 30
1e+20
  9
$EXTMAX
 10
-1e+20
 20
-1e+20
 30
-1e+20
  9
$LIMMIN
 10
0.0
 20
0.0
  9
$LIMMAX
 10
420.0
 20
297.0
  9
$LTSCALE
 40
25.0
  9
$LIMCHECK
 70
0
  9
$TDCREATE
 40
2461293.7117592595
  9
$TDUPDATE
 40
2461293.7117592595
  9
$PEXTMIN
 10
1e+20
 20
1e+20
 30
1e+20
  9
$PEXTMAX
 10
-1e+20
 20
-1e+20
 30
-1e+20
  9
$PLIMMIN
 10
0.0
 20
0.0
  9
$PLIMMAX
 10
420.0
 20
297.0
  0
ENDSEC
  0
SECTION
  2
TABLES
  0
TABLE
  2
VPORT
 70
1
  0
VPORT
  2
*Active
 70
0
 10
0.0
 20
0.0
 11
1.0
 21
1.0
 12
0.0
 22
0.0
 13
0.0
 23
0.0
 14
0.5
 24
0.5
 15
0.5
 25
0.5
 16
0.0
 26
0.0
 36
1.0
 17
0.0
 27
0.0
 37
0.0
 40
1000.0
 41
1.34
 42
50.0
 43
0.0
 44
0.0
 50
0.0
 51
0.0
 71
0
 72
1000
 73
1
 74
3
 75
0
 76
0
 77
0
 78
0
  0
ENDTAB
  0
TABLE
  2
LTYPE
 70
5
  0
LTYPE
  2
CONTINUOUS
 70
0
  3
Solid line
 72
65
 73
0
 40
0.0
  0
LTYPE
  2
DASHED
 70
0
  3
Dashed __ __ __
 72
65
 73
2
 40
15.0
 49
10.0
 49
-5.0
  0
LTYPE
  2
CENTER
 70
0
  3
Centre ____ _ ____
 72
65
 73
4
 40
50.0
 49
32.0
 49
-6.0
 49
6.0
 49
-6.0
  0
LTYPE
  2
ByBlock
 70
0
  3

 72
65
 73
0
 40
0.0
  0
LTYPE
  2
ByLayer
 70
0
  3

 72
65
 73
0
 40
0.0
  0
ENDTAB
  0
TABLE
  2
LAYER
 70
15
  0
LAYER
  2
0
 70
0
 62
7
  6
CONTINUOUS
  0
LAYER
  2
WALLS
 70
0
 62
7
  6
CONTINUOUS
  0
LAYER
  2
OPENINGS
 70
0
 62
1
  6
CONTINUOUS
  0
LAYER
  2
STAIRS
 70
0
 62
3
  6
CONTINUOUS
  0
LAYER
  2
GROUND
 70
0
 62
42
  6
CONTINUOUS
  0
LAYER
  2
TEXT
 70
0
 62
2
  6
CONTINUOUS
  0
LAYER
  2
DIM
 70
0
 62
4
  6
CONTINUOUS
  0
LAYER
  2
HIDDEN
 70
0
 62
8
  6
DASHED
  0
LAYER
  2
CENTRE
 70
0
 62
6
  6
CENTER
  0
LAYER
  2
BEYOND
 70
0
 62
9
  6
CONTINUOUS
  0
LAYER
  2
Defpoints
 70
0
 62
7
  6
Continuous
  0
LAYER
  2
LEADER
 70
0
 62
7
  6
Continuous
  0
LAYER
  2
SHEET-BORDER
 70
0
 62
7
  6
Continuous
  0
LAYER
  2
SHEET-TITLEBLOCK
 70
0
 62
7
  6
Continuous
  0
LAYER
  2
SHEET-TEXT
 70
0
 62
7
  6
Continuous
  0
ENDTAB
  0
TABLE
  2
STYLE
 70
1
  0
STYLE
  2
STANDARD
 70
0
 40
0.0
 41
1.0
 50
0.0
 71
0
 42
2.5
  3
txt
  4

  0
ENDTAB
  0
TABLE
  2
VIEW
 70
0
  0
ENDTAB
  0
TABLE
  2
UCS
 70
0
  0
ENDTAB
  0
TABLE
  2
APPID
 70
3
  0
APPID
  2
ACAD
 70
0
  0
APPID
  2
HATCHBACKGROUNDCOLOR
 70
0
  0
APPID
  2
EZDXF
 70
0
  0
ENDTAB
  0
TABLE
  2
DIMSTYLE
 70
1
  0
DIMSTYLE
  2
Standard
 70
0
  3

  4

  5

  6

  7

 40
1.0
 41
2.5
 42
0.625
 43
3.75
 44
1.25
 45
0.0
 46
0.0
 47
0.0
 48
0.0
140
2.5
141
2.5
142
0.0
143
0.03937007874
144
1.0
145
0.0
146
1.0
147
0.625
 71
0
 72
0
 73
0
 74
0
 75
0
 76
0
 77
1
 78
8
170
0
171
3
172
1
173
0
174
0
175
0
176
0
177
0
178
0
  0
ENDTAB
  0
ENDSEC
  0
SECTION
  2
BLOCKS
  0
BLOCK
  8
0
  2
$Model_Space
 70
0
 10
0.0
 20
0.0
 30
0.0
  3
$Model_Space
  1

1001
EZDXF
1000
WRITTEN_BY_EZDXF
1000
1.4.4 @ 2026-09-09T17:04:56.464339+00:00
  0
ENDBLK
  8
0
  0
BLOCK
  8
0
  2
$Paper_Space
 70
0
 10
0.0
 20
0.0
 30
0.0
  3
$Paper_Space
  1

  0
ENDBLK
  8
0
  0
ENDSEC
  0
SECTION
  2
ENTITIES
  0
LINE
  8
HIDDEN
 10
10200.0
 20
-5962.505107166778
 30
0.0
 11
22200.0
 21
-5962.505107166778
 31
0.0
  0
LINE
  8
HIDDEN
 10
10200.0
 20
237.49489283322237
 30
0.0
 11
22200.0
 21
237.49489283322237
 31
0.0
  0
LINE
  8
HIDDEN
 10
10200.0
 20
-5362.505107166778
 30
0.0
 11
22200.0
 21
-5362.505107166778
 31
0.0
  0
LINE
  8
HIDDEN
 10
10200.0
 20
-362.50510716677763
 30
0.0
 11
22200.0
 21
-362.50510716677763
 31
0.0
  0
LINE
  8
HIDDEN
 10
21400.0
 20
-5962.505107166778
 30
0.0
 11
21400.0
 21
237.49489283322237
 31
0.0
  0
LINE
  8
HIDDEN
 10
22000.0
 20
-5962.505107166778
 30
0.0
 11
22000.0
 21
237.49489283322237
 31
0.0
  0
LINE
  8
HIDDEN
 10
14800.0
 20
-5362.505107166778
 30
0.0
 11
14800.0
 21
-362.50510716677763
 31
0.0
  0
LINE
  8
HIDDEN
 10
15200.0
 20
-5362.505107166778
 30
0.0
 11
15200.0
 21
-362.50510716677763
 31
0.0
  0
LINE
  8
HIDDEN
 10
18000.0
 20
-5362.505107166778
 30
0.0
 11
18000.0
 21
-362.50510716677763
 31
0.0
  0
LINE
  8
HIDDEN
 10
18400.0
 20
-5362.505107166778
 30
0.0
 11
18400.0
 21
-362.50510716677763
 31
0.0
  0
LINE
  8
HIDDEN
 10
10200.0
 20
-5962.505107166778
 30
0.0
 11
10400.0
 21
-5962.505107166778
 31
0.0
  0
LINE
  8
HIDDEN
 10
10200.0
 20
-5362.505107166778
 30
0.0
 11
10400.0
 21
-5362.505107166778
 31
0.0
  0
LINE
  8
HIDDEN
 10
10400.0
 20
-362.50510716677763
 30
0.0
 11
10600.0
 21
-362.50510716677763
 31
0.0
  0
LINE
  8
HIDDEN
 10
10400.0
 20
237.49489283322237
 30
0.0
 11
10600.0
 21
237.49489283322237
 31
0.0
  0
POLYLINE
  8
HIDDEN
 66
1
 10
0.0
 20
0.0
 30
0.0
 70
0
  0
VERTEX
  8
HIDDEN
 10
10320.0
 20
-6262.505107166778
 30
0.0
 70
0
  0
VERTEX
  8
HIDDEN
 10
10520.0
 20
-4462.505107166778
 30
0.0
 70
0
  0
VERTEX
  8
HIDDEN
 10
10320.0
 20
-2862.5051071667776
 30
0.0
 70
0
  0
VERTEX
  8
HIDDEN
 10
10520.0
 20
-1262.5051071667776
 30
0.0
 70
0
  0
VERTEX
  8
HIDDEN
 10
10320.0
 20
537.4948928332224
 30
0.0
 70
0
  0
SEQEND
  8
HIDDEN
  0
TEXT
  8
HIDDEN
 10
10820.0
 20
557.4948928332224
 30
0.0
 40
130.0
  1
UNDERGROUND BOX BELOW - PART PLAN
  7
STANDARD
 11
10620.0
 21
557.4948928332224
 31
0.0
  0
TEXT
  8
HIDDEN
 10
15280.0
 20
-307.00510716677763
 30
0.0
 40
105.0
  1
BAY 6/7 WALL
  7
STANDARD
 11
15080.0
 21
-307.00510716677763
 31
0.0
  0
TEXT
  8
HIDDEN
 10
18480.0
 20
-212.50510716677763
 30
0.0
 40
105.0
  1
BAY 7/8 WALL
  7
STANDARD
 11
18080.0
 21
-212.50510716677763
 31
0.0
  0
POLYLINE
  8
GROUND
 66
1
 10
0.0
 20
0.0
 30
0.0
 70
0
  0
VERTEX
  8
GROUND
 10
9250.0
 20
-212.50510716677763
 30
0.0
 70
0
  0
VERTEX
  8
GROUND
 10
10600.0
 20
-1562.5051071667776
 30
0.0
 70
0
  0
VERTEX
  8
GROUND
 10
17400.0
 20
-1562.5051071667776
 30
0.0
 70
0
  0
VERTEX
  8
GROUND
 10
17400.0
 20
3137.4948928332224
 30
0.0
 70
0
  0
VERTEX
  8
GROUND
 10
10600.0
 20
3137.4948928332224
 30
0.0
 70
0
  0
VERTEX
  8
GROUND
 10
9250.0
 20
1787.4948928332224
 30
0.0
 70
0
  0
SEQEND
  8
GROUND
  0
TEXT
  8
TEXT
 10
8950.0
 20
3517.4948928332224
 30
0.0
 40
115.0
  1
EARTH GRADED AGAINST THE STAIRWELL WALLS TO +0.900, 1.5:1.  THE ROOF
  7
STANDARD
 11
8750.0
 21
3517.4948928332224
 31
0.0
  0
TEXT
  8
TEXT
 10
8950.0
 20
3357.4948928332224
 30
0.0
 40
115.0
  1
AND THE HEADWALL STAND PROUD - SEE SECTION C-C.  THE EARTH FALLS FROM
  7
STANDARD
 11
8750.0
 21
3357.4948928332224
 31
0.0
  0
TEXT
  8
TEXT
 10
8950.0
 20
3663.2448928332224
 30
0.0
 40
115.0
  1
+0.900 TO GRADE OVER THE LAST 1350 SO THE DOOR IS CLEAR AT 0.000
  7
STANDARD
 11
8750.0
 21
3663.2448928332224
 31
0.0
  0
POLYLINE
  8
GROUND
 66
1
 10
0.0
 20
0.0
 30
0.0
 70
0
  0
VERTEX
  8
GROUND
 10
12250.0
 20
1387.4948928332224
 30
0.0
 70
0
  0
VERTEX
  8
GROUND
 10
12250.0
 20
-7112.505107166778
 30
0.0
 70
0
  0
VERTEX
  8
GROUND
 10
19750.0
 20
-7112.505107166778
 30
0.0
 70
0
  0
VERTEX
  8
GROUND
 10
19750.0
 20
1387.4948928332224
 30
0.0
 70
0
  0
SEQEND
  8
GROUND
  0
LINE
  8
GROUND
 10
17400.0
 20
1387.4948928332224
 30
0.0
 11
19750.0
 21
1387.4948928332224
 31
0.0
  0
LINE
  8
GROUND
 10
12250.0
 20
-7112.505107166778
 30
0.0
 11
13600.0
 21
-7112.505107166778
 31
0.0
  0
LINE
  8
GROUND
 10
12250.0
 20
-5412.505107166778
 30
0.0
 11
13600.0
 21
-5412.505107166778
 31
0.0
  0
LINE
  8
GROUND
 10
12250.0
 20
-3712.5051071667776
 30
0.0
 11
13600.0
 21
-3712.5051071667776
 31
0.0
  0
LINE
  8
GROUND
 10
12250.0
 20
-2012.5051071667776
 30
0.0
 11
13600.0
 21
-2012.5051071667776
 31
0.0
  0
LINE
  8
GROUND
 10
12250.0
 20
-312.50510716677763
 30
0.0
 11
13600.0
 21
-312.50510716677763
 31
0.0
  0
LINE
  8
GROUND
 10
12250.0
 20
1387.4948928332224
 30
0.0
 11
13600.0
 21
1387.4948928332224
 31
0.0
  0
LINE
  8
GROUND
 10
19750.0
 20
-7112.505107166778
 30
0.0
 11
18400.0
 21
-7112.505107166778
 31
0.0
  0
LINE
  8
GROUND
 10
19750.0
 20
-5412.505107166778
 30
0.0
 11
18400.0
 21
-5412.505107166778
 31
0.0
  0
LINE
  8
GROUND
 10
19750.0
 20
-3712.5051071667776
 30
0.0
 11
18400.0
 21
-3712.5051071667776
 31
0.0
  0
LINE
  8
GROUND
 10
19750.0
 20
-2012.5051071667776
 30
0.0
 11
18400.0
 21
-2012.5051071667776
 31
0.0
  0
LINE
  8
GROUND
 10
19750.0
 20
-312.50510716677763
 30
0.0
 11
18400.0
 21
-312.50510716677763
 31
0.0
  0
LINE
  8
GROUND
 10
19750.0
 20
1387.4948928332224
 30
0.0
 11
18400.0
 21
1387.4948928332224
 31
0.0
  0
LINE
  8
GROUND
 10
12250.0
 20
-7112.505107166778
 30
0.0
 11
12250.0
 21
-5762.505107166778
 31
0.0
  0
LINE
  8
GROUND
 10
13750.0
 20
-7112.505107166778
 30
0.0
 11
13750.0
 21
-5762.505107166778
 31
0.0
  0
LINE
  8
GROUND
 10
15250.0
 20
-7112.505107166778
 30
0.0
 11
15250.0
 21
-5762.505107166778
 31
0.0
  0
LINE
  8
GROUND
 10
16750.0
 20
-7112.505107166778
 30
0.0
 11
16750.0
 21
-5762.505107166778
 31
0.0
  0
LINE
  8
GROUND
 10
18250.0
 20
-7112.505107166778
 30
0.0
 11
18250.0
 21
-5762.505107166778
 31
0.0
  0
LINE
  8
GROUND
 10
19750.0
 20
-7112.505107166778
 30
0.0
 11
19750.0
 21
-5762.505107166778
 31
0.0
  0
LINE
  8
GROUND
 10
17875.0
 20
1387.4948928332224
 30
0.0
 11
17875.0
 21
37.494892833222366
 31
0.0
  0
LINE
  8
GROUND
 10
18812.5
 20
1387.4948928332224
 30
0.0
 11
18812.5
 21
37.494892833222366
 31
0.0
  0
LINE
  8
GROUND
 10
19750.0
 20
1387.4948928332224
 30
0.0
 11
19750.0
 21
37.494892833222366
 31
0.0
  0
TEXT
  8
TEXT
 10
12250.0
 20
-7432.505107166778
 30
0.0
 40
130.0
  1
BERM 1.5:1, 1350 RUN, TOE AT GRADE 0.000
  7
STANDARD
 11
12050.0
 21
-7432.505107166778
 31
0.0
  0
TEXT
  8
TEXT
 10
17700.0
 20
1707.4948928332224
 30
0.0
 40
115.0
  1
BERM RESUMES EAST OF THE STAIRWELL
  7
STANDARD
 11
17500.0
 21
1707.4948928332224
 31
0.0
  0
POLYLINE
  8
WALLS
 66
1
 10
0.0
 20
0.0
 30
0.0
 70
1
  0
VERTEX
  8
WALLS
 10
13600.0
 20
-5762.505107166778
 30
0.0
 70
0
  0
VERTEX
  8
WALLS
 10
18400.0
 20
-5762.505107166778
 30
0.0
 70
0
  0
VERTEX
  8
WALLS
 10
18400.0
 20
37.494892833222366
 30
0.0
 70
0
  0
VERTEX
  8
WALLS
 10
13600.0
 20
37.494892833222366
 30
0.0
 70
0
  0
SEQEND
  8
WALLS
  0
POLYLINE
  8
WALLS
 66
1
 10
0.0
 20
0.0
 30
0.0
 70
1
  0
VERTEX
  8
WALLS
 10
14000.0
 20
-5362.505107166778
 30
0.0
 70
0
  0
VERTEX
  8
WALLS
 10
18000.0
 20
-5362.505107166778
 30
0.0
 70
0
  0
VERTEX
  8
WALLS
 10
18000.0
 20
-362.50510716677763
 30
0.0
 70
0
  0
VERTEX
  8
WALLS
 10
14000.0
 20
-362.50510716677763
 30
0.0
 70
0
  0
SEQEND
  8
WALLS
  0
TEXT
  8
TEXT
 10
13600.0
 20
2143.4948928332224
 30
0.0
 40
160.0
  1
HEADHOUSE   400 WALLS / 500 ROOF   FLOOR -2.000   ROOF TOP +0.900
  7
STANDARD
 11
13400.0
 21
2143.4948928332224
 31
0.0
  0
POLYLINE
  8
OPENINGS
 66
1
 10
0.0
 20
0.0
 30
0.0
 70
1
  0
VERTEX
  8
OPENINGS
 10
15200.0
 20
-5362.505107166778
 30
0.0
 70
0
  0
VERTEX
  8
OPENINGS
 10
18000.0
 20
-5362.505107166778
 30
0.0
 70
0
  0
VERTEX
  8
OPENINGS
 10
18000.0
 20
-2202.5051071667776
 30
0.0
 70
0
  0
VERTEX
  8
OPENINGS
 10
15200.0
 20
-2202.5051071667776
 30
0.0
 70
0
  0
SEQEND
  8
OPENINGS
  0
TEXT
  8
TEXT
 10
18250.0
 20
-2352.5051071667776
 30
0.0
 40
112.0
  1
OPENING IN THE PRESSURE
  7
STANDARD
 11
18050.0
 21
-2352.5051071667776
 31
0.0
  0
TEXT
  8
TEXT
 10
18250.0
 20
-2512.5051071667776
 30
0.0
 40
112.0
  1
SLAB  2800 x 3160
  7
STANDARD
 11
18050.0
 21
-2512.5051071667776
 31
0.0
  0
TEXT
  8
TEXT
 10
18250.0
 20
-2672.5051071667776
 30
0.0
 40
100.0
  1
1100 GUARDING TO EDGE
  7
STANDARD
 11
18050.0
 21
-2672.5051071667776
 31
0.0
  0
LINE
  8
STAIRS
 10
15300.0
 20
-3882.5051071667776
 30
0.0
 11
16500.0
 21
-3882.5051071667776
 31
0.0
  0
LINE
  8
HIDDEN
 10
16700.0
 20
-3882.5051071667776
 30
0.0
 11
17900.0
 21
-3882.5051071667776
 31
0.0
  0
LINE
  8
STAIRS
 10
15300.0
 20
-3602.5051071667776
 30
0.0
 11
16500.0
 21
-3602.5051071667776
 31
0.0
  0
LINE
  8
HIDDEN
 10
16700.0
 20
-3602.5051071667776
 30
0.0
 11
17900.0
 21
-3602.5051071667776
 31
0.0
  0
LINE
  8
STAIRS
 10
15300.0
 20
-3322.5051071667776
 30
0.0
 11
16500.0
 21
-3322.5051071667776
 31
0.0
  0
LINE
  8
HIDDEN
 10
16700.0
 20
-3322.5051071667776
 30
0.0
 11
17900.0
 21
-3322.5051071667776
 31
0.0
  0
LINE
  8
STAIRS
 10
15300.0
 20
-3042.5051071667776
 30
0.0
 11
16500.0
 21
-3042.5051071667776
 31
0.0
  0
LINE
  8
HIDDEN
 10
16700.0
 20
-3042.5051071667776
 30
0.0
 11
17900.0
 21
-3042.5051071667776
 31
0.0
  0
LINE
  8
STAIRS
 10
15300.0
 20
-2762.5051071667776
 30
0.0
 11
16500.0
 21
-2762.5051071667776
 31
0.0
  0
LINE
  8
HIDDEN
 10
16700.0
 20
-2762.5051071667776
 30
0.0
 11
17900.0
 21
-2762.5051071667776
 31
0.0
  0
LINE
  8
STAIRS
 10
15300.0
 20
-2482.5051071667776
 30
0.0
 11
16500.0
 21
-2482.5051071667776
 31
0.0
  0
LINE
  8
HIDDEN
 10
16700.0
 20
-2482.5051071667776
 30
0.0
 11
17900.0
 21
-2482.5051071667776
 31
0.0
  0
LINE
  8
STAIRS
 10
15300.0
 20
-2202.5051071667776
 30
0.0
 11
16500.0
 21
-2202.5051071667776
 31
0.0
  0
LINE
  8
HIDDEN
 10
16700.0
 20
-2202.5051071667776
 30
0.0
 11
17900.0
 21
-2202.5051071667776
 31
0.0
  0
POLYLINE
  8
STAIRS
 66
1
 10
0.0
 20
0.0
 30
0.0
 70
1
  0
VERTEX
  8
STAIRS
 10
15300.0
 20
-4162.505107166778
 30
0.0
 70
0
  0
VERTEX
  8
STAIRS
 10
16500.0
 20
-4162.505107166778
 30
0.0
 70
0
  0
VERTEX
  8
STAIRS
 10
16500.0
 20
-2202.5051071667776
 30
0.0
 70
0
  0
VERTEX
  8
STAIRS
 10
15300.0
 20
-2202.5051071667776
 30
0.0
 70
0
  0
SEQEND
  8
STAIRS
  0
POLYLINE
  8
HIDDEN
 66
1
 10
0.0
 20
0.0
 30
0.0
 70
1
  0
VERTEX
  8
HIDDEN
 10
16700.0
 20
-4162.505107166778
 30
0.0
 70
0
  0
VERTEX
  8
HIDDEN
 10
17900.0
 20
-4162.505107166778
 30
0.0
 70
0
  0
VERTEX
  8
HIDDEN
 10
17900.0
 20
-2202.5051071667776
 30
0.0
 70
0
  0
VERTEX
  8
HIDDEN
 10
16700.0
 20
-2202.5051071667776
 30
0.0
 70
0
  0
SEQEND
  8
HIDDEN
  0
LINE
  8
DIM
 10
15900.0
 20
-3912.5051071667776
 30
0.0
 11
15900.0
 21
-2452.5051071667776
 31
0.0
  0
LINE
  8
DIM
 10
15900.0
 20
-2452.5051071667776
 30
0.0
 11
15770.0
 21
-2722.5051071667776
 31
0.0
  0
LINE
  8
DIM
 10
15900.0
 20
-2452.5051071667776
 30
0.0
 11
16030.0
 21
-2722.5051071667776
 31
0.0
  0
TEXT
  8
TEXT
 10
15380.0
 20
-4482.505107166778
 30
0.0
 40
108.0
  1
FLIGHT 3 UP
  7
STANDARD
 11
15180.0
 21
-4482.505107166778
 31
0.0
  0
TEXT
  8
HIDDEN
 10
16780.0
 20
-4642.505107166778
 30
0.0
 40
100.0
  1
FLIGHT 2 BELOW
  7
STANDARD
 11
16580.0
 21
-4642.505107166778
 31
0.0
  0
POLYLINE
  8
HIDDEN
 66
1
 10
0.0
 20
0.0
 30
0.0
 70
1
  0
VERTEX
  8
HIDDEN
 10
15200.0
 20
-5362.505107166778
 30
0.0
 70
0
  0
VERTEX
  8
HIDDEN
 10
18000.0
 20
-5362.505107166778
 30
0.0
 70
0
  0
VERTEX
  8
HIDDEN
 10
18000.0
 20
-4162.505107166778
 30
0.0
 70
0
  0
VERTEX
  8
HIDDEN
 10
15200.0
 20
-4162.505107166778
 30
0.0
 70
0
  0
SEQEND
  8
HIDDEN
  0
TEXT
  8
HIDDEN
 10
15320.0
 20
-5202.505107166778
 30
0.0
 40
100.0
  1
LANDING L2 BELOW  -3.367
  7
STANDARD
 11
15120.0
 21
-5202.505107166778
 31
0.0
  0
TEXT
  8
TEXT
 10
15320.0
 20
-952.5051071667776
 30
0.0
 40
115.0
  1
FLOOR PAD -2.000
  7
STANDARD
 11
15120.0
 21
-952.5051071667776
 31
0.0
  0
TEXT
  8
TEXT
 10
15320.0
 20
-1102.5051071667776
 30
0.0
 40
110.0
  1
OVER LANDING L1
  7
STANDARD
 11
15120.0
 21
-1102.5051071667776
 31
0.0
  0
TEXT
  8
TEXT
 10
14120.0
 20
-1562.5051071667776
 30
0.0
 40
145.0
  1
HEADHOUSE FLOOR
  7
STANDARD
 11
13920.0
 21
-1562.5051071667776
 31
0.0
  0
TEXT
  8
TEXT
 10
14120.0
 20
-1732.5051071667776
 30
0.0
 40
120.0
  1
-2.000  =  TOP OF
  7
STANDARD
 11
13920.0
 21
-1732.5051071667776
 31
0.0
  0
TEXT
  8
TEXT
 10
14120.0
 20
-1882.5051071667776
 30
0.0
 40
120.0
  1
THE PRESSURE SLAB
  7
STANDARD
 11
13920.0
 21
-1882.5051071667776
 31
0.0
  0
TEXT
  8
TEXT
 10
14120.0
 20
-2082.5051071667776
 30
0.0
 40
110.0
  1
11.15 m2 USABLE
  7
STANDARD
 11
13920.0
 21
-2082.5051071667776
 31
0.0
  0
CIRCLE
  8
OPENINGS
 10
14450.0
 20
-3362.5051071667776
 30
0.0
 40
150.0
  0
TEXT
  8
TEXT
 10
13873.879185580992
 20
-3068.7306324332
 30
0.0
 40
110.0
  1
HOSE-DOWN POINT
  7
STANDARD
 11
13673.879185580992
 21
-3068.7306324332
 31
0.0
  0
CIRCLE
  8
OPENINGS
 10
14450.0
 20
-3962.5051071667776
 30
0.0
 40
90.0
  0
TEXT
  8
TEXT
 10
15000.697158699579
 20
-4303.202265866357
 30
0.0
 40
105.0
  1
FLOOR GULLY, FALL 1:80
  7
STANDARD
 11
14800.697158699579
 21
-4303.202265866357
 31
0.0
  0
TEXT
  8
TEXT
 10
13971.5
 20
-4662.505107166778
 30
0.0
 40
110.0
  1
EQUIPMENT DROP
  7
STANDARD
 11
13771.5
 21
-4662.505107166778
 31
0.0
  0
TEXT
  8
TEXT
 10
14120.0
 20
-4812.505107166778
 30
0.0
 40
110.0
  1
PPE STORE
  7
STANDARD
 11
13920.0
 21
-4812.505107166778
 31
0.0
  0
POLYLINE
  8
OPENINGS
 66
1
 10
0.0
 20
0.0
 30
0.0
 70
1
  0
VERTEX
  8
OPENINGS
 10
14450.0
 20
-362.50510716677763
 30
0.0
 70
0
  0
VERTEX
  8
OPENINGS
 10
15350.0
 20
-362.50510716677763
 30
0.0
 70
0
  0
VERTEX
  8
OPENINGS
 10
15350.0
 20
37.494892833222366
 30
0.0
 70
0
  0
VERTEX
  8
OPENINGS
 10
14450.0
 20
37.494892833222366
 30
0.0
 70
0
  0
SEQEND
  8
OPENINGS
  0
ARC
  8
OPENINGS
 10
14450.0
 20
37.494892833222366
 30
0.0
 40
900.0
 50
0.0
 51
90.0
  0
LINE
  8
OPENINGS
 10
14450.0
 20
37.494892833222366
 30
0.0
 11
14450.0
 21
937.4948928332224
 31
0.0
  0
TEXT
  8
TEXT
 10
12000.0
 20
287.49489283322237
 30
0.0
 40
120.0
  1
OUTER SECURITY DOOR
  7
STANDARD
 11
11800.0
 21
287.49489283322237
 31
0.0
  0
TEXT
  8
TEXT
 10
12000.0
 20
127.49489283322237
 30
0.0
 40
105.0
  1
900 x 2100, NOT BLAST RATED
  7
STANDARD
 11
11800.0
 21
127.49489283322237
 31
0.0
  0
POLYLINE
  8
GROUND
 66
1
 10
0.0
 20
0.0
 30
0.0
 70
1
  0
VERTEX
  8
GROUND
 10
14300.0
 20
37.494892833222366
 30
0.0
 70
0
  0
VERTEX
  8
GROUND
 10
15800.0
 20
37.494892833222366
 30
0.0
 70
0
  0
VERTEX
  8
GROUND
 10
15800.0
 20
1537.4948928332224
 30
0.0
 70
0
  0
VERTEX
  8
GROUND
 10
14300.0
 20
1537.4948928332224
 30
0.0
 70
0
  0
SEQEND
  8
GROUND
  0
TEXT
  8
TEXT
 10
14380.0
 20
1217.4948928332224
 30
0.0
 40
110.0
  1
PLATFORM -2.000
  7
STANDARD
 11
14180.0
 21
1217.4948928332224
 31
0.0
  0
TEXT
  8
TEXT
 10
14380.0
 20
1067.4948928332224
 30
0.0
 40
100.0
  1
1500 x 1500
  7
STANDARD
 11
14180.0
 21
1067.4948928332224
 31
0.0
  0
POLYLINE
  8
GROUND
 66
1
 10
0.0
 20
0.0
 30
0.0
 70
1
  0
VERTEX
  8
GROUND
 10
11000.0
 20
37.494892833222366
 30
0.0
 70
0
  0
VERTEX
  8
GROUND
 10
14300.0
 20
37.494892833222366
 30
0.0
 70
0
  0
VERTEX
  8
GROUND
 10
14300.0
 20
1537.4948928332224
 30
0.0
 70
0
  0
VERTEX
  8
GROUND
 10
11000.0
 20
1537.4948928332224
 30
0.0
 70
0
  0
SEQEND
  8
GROUND
  0
LINE
  8
GROUND
 10
14000.0
 20
37.494892833222366
 30
0.0
 11
14000.0
 21
1537.4948928332224
 31
0.0
  0
LINE
  8
GROUND
 10
13700.0
 20
37.494892833222366
 30
0.0
 11
13700.0
 21
1537.4948928332224
 31
0.0
  0
LINE
  8
GROUND
 10
13400.0
 20
37.494892833222366
 30
0.0
 11
13400.0
 21
1537.4948928332224
 31
0.0
  0
LINE
  8
GROUND
 10
13100.0
 20
37.494892833222366
 30
0.0
 11
13100.0
 21
1537.4948928332224
 31
0.0
  0
LINE
  8
GROUND
 10
12800.0
 20
37.494892833222366
 30
0.0
 11
12800.0
 21
1537.4948928332224
 31
0.0
  0
LINE
  8
GROUND
 10
12500.0
 20
37.494892833222366
 30
0.0
 11
12500.0
 21
1537.4948928332224
 31
0.0
  0
LINE
  8
GROUND
 10
12200.0
 20
37.494892833222366
 30
0.0
 11
12200.0
 21
1537.4948928332224
 31
0.0
  0
LINE
  8
GROUND
 10
11900.0
 20
37.494892833222366
 30
0.0
 11
11900.0
 21
1537.4948928332224
 31
0.0
  0
LINE
  8
GROUND
 10
11600.0
 20
37.494892833222366
 30
0.0
 11
11600.0
 21
1537.4948928332224
 31
0.0
  0
LINE
  8
GROUND
 10
11300.0
 20
37.494892833222366
 30
0.0
 11
11300.0
 21
1537.4948928332224
 31
0.0
  0
LINE
  8
GROUND
 10
11000.0
 20
37.494892833222366
 30
0.0
 11
11000.0
 21
1537.4948928332224
 31
0.0
  0
POLYLINE
  8
GROUND
 66
1
 10
0.0
 20
0.0
 30
0.0
 70
1
  0
VERTEX
  8
GROUND
 10
9500.0
 20
37.494892833222366
 30
0.0
 70
0
  0
VERTEX
  8
GROUND
 10
11000.0
 20
37.494892833222366
 30
0.0
 70
0
  0
VERTEX
  8
GROUND
 10
11000.0
 20
1537.4948928332224
 30
0.0
 70
0
  0
VERTEX
  8
GROUND
 10
9500.0
 20
1537.4948928332224
 30
0.0
 70
0
  0
SEQEND
  8
GROUND
  0
TEXT
  8
TEXT
 10
9590.0
 20
1217.4948928332224
 30
0.0
 40
110.0
  1
TOP LANDING
  7
STANDARD
 11
9390.0
 21
1217.4948928332224
 31
0.0
  0
TEXT
  8
TEXT
 10
9590.0
 20
1067.4948928332224
 30
0.0
 40
100.0
  1
1500 AT 0.000
  7
STANDARD
 11
9390.0
 21
1067.4948928332224
 31
0.0
  0
TEXT
  8
TEXT
 10
11000.0
 20
2348.7448928332224
 30
0.0
 40
125.0
  1
APPROACH STEPS  12R @ 166.7 / 300 TREAD, 1500 WIDE
  7
STANDARD
 11
10800.0
 21
2348.7448928332224
 31
0.0
  0
TEXT
  8
TEXT
 10
11000.0
 20
2807.4948928332224
 30
0.0
 40
115.0
  1
GRADE 0.000 DOWN TO -2.000, NOW UNDER A ROOF
  7
STANDARD
 11
10800.0
 21
2807.4948928332224
 31
0.0
  0
POLYLINE
  8
WALLS
 66
1
 10
0.0
 20
0.0
 30
0.0
 70
1
  0
VERTEX
  8
WALLS
 10
9250.0
 20
-212.50510716677763
 30
0.0
 70
0
  0
VERTEX
  8
WALLS
 10
16050.0
 20
-212.50510716677763
 30
0.0
 70
0
  0
VERTEX
  8
WALLS
 10
16050.0
 20
37.494892833222366
 30
0.0
 70
0
  0
VERTEX
  8
WALLS
 10
9250.0
 20
37.494892833222366
 30
0.0
 70
0
  0
SEQEND
  8
WALLS
  0
POLYLINE
  8
WALLS
 66
1
 10
0.0
 20
0.0
 30
0.0
 70
1
  0
VERTEX
  8
WALLS
 10
9250.0
 20
1537.4948928332224
 30
0.0
 70
0
  0
VERTEX
  8
WALLS
 10
16050.0
 20
1537.4948928332224
 30
0.0
 70
0
  0
VERTEX
  8
WALLS
 10
16050.0
 20
1787.4948928332224
 30
0.0
 70
0
  0
VERTEX
  8
WALLS
 10
9250.0
 20
1787.4948928332224
 30
0.0
 70
0
  0
SEQEND
  8
WALLS
  0
POLYLINE
  8
WALLS
 66
1
 10
0.0
 20
0.0
 30
0.0
 70
1
  0
VERTEX
  8
WALLS
 10
9250.0
 20
-212.50510716677763
 30
0.0
 70
0
  0
VERTEX
  8
WALLS
 10
9500.0
 20
-212.50510716677763
 30
0.0
 70
0
  0
VERTEX
  8
WALLS
 10
9500.0
 20
1787.4948928332224
 30
0.0
 70
0
  0
VERTEX
  8
WALLS
 10
9250.0
 20
1787.4948928332224
 30
0.0
 70
0
  0
SEQEND
  8
WALLS
  0
POLYLINE
  8
WALLS
 66
1
 10
0.0
 20
0.0
 30
0.0
 70
1
  0
VERTEX
  8
WALLS
 10
15800.0
 20
-212.50510716677763
 30
0.0
 70
0
  0
VERTEX
  8
WALLS
 10
16050.0
 20
-212.50510716677763
 30
0.0
 70
0
  0
VERTEX
  8
WALLS
 10
16050.0
 20
1787.4948928332224
 30
0.0
 70
0
  0
VERTEX
  8
WALLS
 10
15800.0
 20
1787.4948928332224
 30
0.0
 70
0
  0
SEQEND
  8
WALLS
  0
POLYLINE
  8
OPENINGS
 66
1
 10
0.0
 20
0.0
 30
0.0
 70
1
  0
VERTEX
  8
OPENINGS
 10
9250.0
 20
287.49489283322237
 30
0.0
 70
0
  0
VERTEX
  8
OPENINGS
 10
9500.0
 20
287.49489283322237
 30
0.0
 70
0
  0
VERTEX
  8
OPENINGS
 10
9500.0
 20
1287.4948928332224
 30
0.0
 70
0
  0
VERTEX
  8
OPENINGS
 10
9250.0
 20
1287.4948928332224
 30
0.0
 70
0
  0
SEQEND
  8
OPENINGS
  0
LINE
  8
OPENINGS
 10
8250.0
 20
287.49489283322237
 30
0.0
 11
9250.0
 21
287.49489283322237
 31
0.0
  0
ARC
  8
OPENINGS
 10
9250.0
 20
287.49489283322237
 30
0.0
 40
1000.0
 50
90.0
 51
180.0
  0
TEXT
  8
TEXT
 10
5750.0
 20
1807.4948928332224
 30
0.0
 40
125.0
  1
ENTRY DOOR 1000 x 2100
  7
STANDARD
 11
5550.0
 21
1807.4948928332224
 31
0.0
  0
TEXT
  8
TEXT
 10
5750.0
 20
1647.4948928332224
 30
0.0
 40
110.0
  1
AT GRADE 0.000 IN THE HEADWALL,
  7
STANDARD
 11
5550.0
 21
1647.4948928332224
 31
0.0
  0
TEXT
  8
TEXT
 10
5750.0
 20
1487.4948928332224
 30
0.0
 40
110.0
  1
OPENS OUTWARD, GROUND FALLS AWAY
  7
STANDARD
 11
5550.0
 21
1487.4948928332224
 31
0.0
  0
POLYLINE
  8
OPENINGS
 66
1
 10
0.0
 20
0.0
 30
0.0
 70
1
  0
VERTEX
  8
OPENINGS
 10
8950.0
 20
37.494892833222366
 30
0.0
 70
0
  0
VERTEX
  8
OPENINGS
 10
9250.0
 20
37.494892833222366
 30
0.0
 70
0
  0
VERTEX
  8
OPENINGS
 10
9250.0
 20
1537.4948928332224
 30
0.0
 70
0
  0
VERTEX
  8
OPENINGS
 10
8950.0
 20
1537.4948928332224
 30
0.0
 70
0
  0
SEQEND
  8
OPENINGS
  0
TEXT
  8
TEXT
 10
5750.0
 20
-382.50510716677763
 30
0.0
 40
110.0
  1
300 CHANNEL AND GRATING ACROSS THE FULL
  7
STANDARD
 11
5550.0
 21
-382.50510716677763
 31
0.0
  0
TEXT
  8
TEXT
 10
5750.0
 20
-542.5051071667776
 30
0.0
 40
110.0
  1
1500 WIDTH; GROUND FALLS 1:50 FOR 2000
  7
STANDARD
 11
5550.0
 21
-542.5051071667776
 31
0.0
  0
POLYLINE
  8
HIDDEN
 66
1
 10
0.0
 20
0.0
 30
0.0
 70
1
  0
VERTEX
  8
HIDDEN
 10
9250.0
 20
-212.50510716677763
 30
0.0
 70
0
  0
VERTEX
  8
HIDDEN
 10
16050.0
 20
-212.50510716677763
 30
0.0
 70
0
  0
VERTEX
  8
HIDDEN
 10
16050.0
 20
1787.4948928332224
 30
0.0
 70
0
  0
VERTEX
  8
HIDDEN
 10
9250.0
 20
1787.4948928332224
 30
0.0
 70
0
  0
SEQEND
  8
HIDDEN
  0
TEXT
  8
HIDDEN
 10
9972.317501107666
 20
429.5113080532856
 30
0.0
 40
110.0
  1
250 RC ROOF OVER THE WHOLE STAIRWELL, SOFFIT
  7
STANDARD
 11
9772.317501107666
 21
429.5113080532856
 31
0.0
  0
TEXT
  8
HIDDEN
 10
8481.5
 20
-602.5051071667775
 30
0.0
 40
110.0
  1
2200 ABOVE THE FLIGHT - SEE SECTION C-C
  7
STANDARD
 11
8281.5
 21
-602.5051071667775
 31
0.0
  0
TEXT
  8
TEXT
 10
9250.0
 20
2007.4948928332224
 30
0.0
 40
110.0
  1
250 RC WALLS BOTH SIDES, PROPPED BY THE ROOF
  7
STANDARD
 11
9050.0
 21
2007.4948928332224
 31
0.0
  0
LINE
  8
DIM
 10
8550.0
 20
787.4948928332224
 30
0.0
 11
14750.0
 21
787.4948928332224
 31
0.0
  0
LINE
  8
DIM
 10
14750.0
 20
787.4948928332224
 30
0.0
 11
14750.0
 21
287.49489283322237
 31
0.0
  0
LINE
  8
DIM
 10
14750.0
 20
287.49489283322237
 30
0.0
 11
14630.0
 21
537.4948928332224
 31
0.0
  0
LINE
  8
DIM
 10
14750.0
 20
287.49489283322237
 30
0.0
 11
14870.0
 21
537.4948928332224
 31
0.0
  0
TEXT
  8
TEXT
 10
11200.0
 20
1007.4948928332224
 30
0.0
 40
110.0
  1
IN AT GRADE, DOWN 2.000 UNDER COVER,
  7
STANDARD
 11
11000.0
 21
1007.4948928332224
 31
0.0
  0
TEXT
  8
TEXT
 10
11200.0
 20
847.4948928332224
 30
0.0
 40
110.0
  1
THEN 90 DEG TURN INTO THE HEADHOUSE
  7
STANDARD
 11
11000.0
 21
847.4948928332224
 31
0.0
  0
CIRCLE
  8
OPENINGS
 10
14520.0
 20
257.49489283322237
 30
0.0
 40
90.0
  0
TEXT
  8
TEXT
 10
16100.0
 20
217.49489283322237
 30
0.0
 40
105.0
  1
TRAPPED GULLY -> EXTERNAL SOAKAWAY,
  7
STANDARD
 11
15900.0
 21
217.49489283322237
 31
0.0
  0
TEXT
  8
TEXT
 10
16100.0
 20
67.49489283322237
 30
0.0
 40
105.0
  1
NEVER TO THE CLEAN SUMP
  7
STANDARD
 11
15900.0
 21
67.49489283322237
 31
0.0
  0
CIRCLE
  8
WALLS
 10
19900.0
 20
-3912.5051071667776
 30
0.0
 40
950.0
  0
CIRCLE
  8
OPENINGS
 10
19900.0
 20
-3912.5051071667776
 30
0.0
 40
700.0
  0
TEXT
  8
TEXT
 10
18750.0
 20
-5412.505107166778
 30
0.0
 40
120.0
  1
ESCAPE SHAFT 2  1400 ID
  7
STANDARD
 11
18550.0
 21
-5412.505107166778
 31
0.0
  0
TEXT
  8
TEXT
 10
18750.0
 20
-5572.505107166778
 30
0.0
 40
115.0
  1
HEAD RAISED 150 -> +0.700
  7
STANDARD
 11
18550.0
 21
-5572.505107166778
 31
0.0
  0
TEXT
  8
TEXT
 10
18750.0
 20
-5732.505107166778
 30
0.0
 40
105.0
  1
BERM GRADED OVER IT - NOTE 3
  7
STANDARD
 11
18550.0
 21
-5732.505107166778
 31
0.0
  0
LINE
  8
DIM
 10
18400.0
 20
-1812.5051071667776
 30
0.0
 11
18750.0
 21
-1812.5051071667776
 31
0.0
  0
LINE
  8
DIM
 10
18310.0
 20
-1902.5051071667776
 30
0.0
 11
18490.0
 21
-1722.5051071667776
 31
0.0
  0
LINE
  8
DIM
 10
18400.0
 20
-1992.5051071667776
 30
0.0
 11
18400.0
 21
-1632.5051071667776
 31
0.0
  0
LINE
  8
DIM
 10
18660.0
 20
-1902.5051071667776
 30
0.0
 11
18840.0
 21
-1722.5051071667776
 31
0.0
  0
LINE
  8
DIM
 10
18750.0
 20
-1992.5051071667776
 30
0.0
 11
18750.0
 21
-1632.5051071667776
 31
0.0
  0
TEXT
  8
DIM
 10
18575.0
 20
-1740.5051071667776
 30
0.0
 40
120.0
  1
550 ONLY
  7
STANDARD
 72
1
 11
18575.0
 21
-1740.5051071667776
 31
0.0
  0
LINE
  8
DIM
 10
13600.0
 20
-8212.505107166777
 30
0.0
 11
18400.0
 21
-8212.505107166777
 31
0.0
  0
LINE
  8
DIM
 10
13510.0
 20
-8302.505107166777
 30
0.0
 11
13690.0
 21
-8122.505107166778
 31
0.0
  0
LINE
  8
DIM
 10
13600.0
 20
-8392.505107166777
 30
0.0
 11
13600.0
 21
-8032.505107166778
 31
0.0
  0
LINE
  8
DIM
 10
18310.0
 20
-8302.505107166777
 30
0.0
 11
18490.0
 21
-8122.505107166778
 31
0.0
  0
LINE
  8
DIM
 10
18400.0
 20
-8392.505107166777
 30
0.0
 11
18400.0
 21
-8032.505107166778
 31
0.0
  0
TEXT
  8
DIM
 10
16000.0
 20
-8140.505107166778
 30
0.0
 40
120.0
  1
4800 HEADHOUSE EXTERNAL
  7
STANDARD
 72
1
 11
16000.0
 21
-8140.505107166778
 31
0.0
  0
LINE
  8
DIM
 10
14000.0
 20
-8812.505107166777
 30
0.0
 11
15200.0
 21
-8812.505107166777
 31
0.0
  0
LINE
  8
DIM
 10
13910.0
 20
-8902.505107166777
 30
0.0
 11
14090.0
 21
-8722.505107166777
 31
0.0
  0
LINE
  8
DIM
 10
14000.0
 20
-8992.505107166777
 30
0.0
 11
14000.0
 21
-8632.505107166777
 31
0.0
  0
LINE
  8
DIM
 10
15110.0
 20
-8902.505107166777
 30
0.0
 11
15290.0
 21
-8722.505107166777
 31
0.0
  0
LINE
  8
DIM
 10
15200.0
 20
-8992.505107166777
 30
0.0
 11
15200.0
 21
-8632.505107166777
 31
0.0
  0
TEXT
  8
DIM
 10
14600.0
 20
-8740.505107166777
 30
0.0
 40
120.0
  1
1200 FLOOR
  7
STANDARD
 72
1
 11
14600.0
 21
-8740.505107166777
 31
0.0
  0
LINE
  8
DIM
 10
15200.0
 20
-8812.505107166777
 30
0.0
 11
18000.0
 21
-8812.505107166777
 31
0.0
  0
LINE
  8
DIM
 10
15110.0
 20
-8902.505107166777
 30
0.0
 11
15290.0
 21
-8722.505107166777
 31
0.0
  0
LINE
  8
DIM
 10
15200.0
 20
-8992.505107166777
 30
0.0
 11
15200.0
 21
-8632.505107166777
 31
0.0
  0
LINE
  8
DIM
 10
17910.0
 20
-8902.505107166777
 30
0.0
 11
18090.0
 21
-8722.505107166777
 31
0.0
  0
LINE
  8
DIM
 10
18000.0
 20
-8992.505107166777
 30
0.0
 11
18000.0
 21
-8632.505107166777
 31
0.0
  0
TEXT
  8
DIM
 10
16600.0
 20
-8740.505107166777
 30
0.0
 40
120.0
  1
2800 SHAFT / VOID
  7
STANDARD
 72
1
 11
16600.0
 21
-8740.505107166777
 31
0.0
  0
LINE
  8
DIM
 10
11450.0
 20
-5762.505107166778
 30
0.0
 11
11450.0
 21
37.494892833222366
 31
0.0
  0
LINE
  8
DIM
 10
11360.0
 20
-5852.505107166778
 30
0.0
 11
11540.0
 21
-5672.505107166778
 31
0.0
  0
LINE
  8
DIM
 10
11270.0
 20
-5762.505107166778
 30
0.0
 11
11630.0
 21
-5762.505107166778
 31
0.0
  0
LINE
  8
DIM
 10
11360.0
 20
-52.505107166777634
 30
0.0
 11
11540.0
 21
127.49489283322237
 31
0.0
  0
LINE
  8
DIM
 10
11270.0
 20
37.494892833222366
 30
0.0
 11
11630.0
 21
37.494892833222366
 31
0.0
  0
TEXT
  8
DIM
 10
11378.0
 20
-2862.5051071667776
 30
0.0
 40
120.0
  1
5800
 50
90.0
  7
STANDARD
 72
1
 11
11378.0
 21
-2862.5051071667776
 31
0.0
  0
LINE
  8
DIM
 10
22700.0
 20
-5362.505107166778
 30
0.0
 11
22700.0
 21
-2202.5051071667776
 31
0.0
  0
LINE
  8
DIM
 10
22610.0
 20
-5452.505107166778
 30
0.0
 11
22790.0
 21
-5272.505107166778
 31
0.0
  0
LINE
  8
DIM
 10
22520.0
 20
-5362.505107166778
 30
0.0
 11
22880.0
 21
-5362.505107166778
 31
0.0
  0
LINE
  8
DIM
 10
22610.0
 20
-2292.5051071667776
 30
0.0
 11
22790.0
 21
-2112.5051071667776
 31
0.0
  0
LINE
  8
DIM
 10
22520.0
 20
-2202.5051071667776
 30
0.0
 11
22880.0
 21
-2202.5051071667776
 31
0.0
  0
TEXT
  8
DIM
 10
22628.0
 20
-3782.5051071667776
 30
0.0
 40
120.0
  1
3160 VOID
 50
90.0
  7
STANDARD
 72
1
 11
22628.0
 21
-3782.5051071667776
 31
0.0
  0
LINE
  8
DIM
 10
22700.0
 20
-2202.5051071667776
 30
0.0
 11
22700.0
 21
-362.50510716677763
 31
0.0
  0
LINE
  8
DIM
 10
22610.0
 20
-2292.5051071667776
 30
0.0
 11
22790.0
 21
-2112.5051071667776
 31
0.0
  0
LINE
  8
DIM
 10
22520.0
 20
-2202.5051071667776
 30
0.0
 11
22880.0
 21
-2202.5051071667776
 31
0.0
  0
LINE
  8
DIM
 10
22610.0
 20
-452.50510716677763
 30
0.0
 11
22790.0
 21
-272.50510716677763
 31
0.0
  0
LINE
  8
DIM
 10
22520.0
 20
-362.50510716677763
 30
0.0
 11
22880.0
 21
-362.50510716677763
 31
0.0
  0
TEXT
  8
DIM
 10
22628.0
 20
-1282.5051071667776
 30
0.0
 40
120.0
  1
1840 PAD
 50
90.0
  7
STANDARD
 72
1
 11
22628.0
 21
-1282.5051071667776
 31
0.0
  0
LINE
  8
DIM
 10
9250.0
 20
2487.4948928332224
 30
0.0
 11
16050.0
 21
2487.4948928332224
 31
0.0
  0
LINE
  8
DIM
 10
9160.0
 20
2397.4948928332224
 30
0.0
 11
9340.0
 21
2577.4948928332224
 31
0.0
  0
LINE
  8
DIM
 10
9250.0
 20
2307.4948928332224
 30
0.0
 11
9250.0
 21
2667.4948928332224
 31
0.0
  0
LINE
  8
DIM
 10
15960.0
 20
2397.4948928332224
 30
0.0
 11
16140.0
 21
2577.4948928332224
 31
0.0
  0
LINE
  8
DIM
 10
16050.0
 20
2307.4948928332224
 30
0.0
 11
16050.0
 21
2667.4948928332224
 31
0.0
  0
TEXT
  8
DIM
 10
12650.0
 20
2559.4948928332224
 30
0.0
 40
120.0
  1
6800 COVERED STAIRWELL EXTERNAL
  7
STANDARD
 72
1
 11
12650.0
 21
2559.4948928332224
 31
0.0
  0
LINE
  8
DIM
 10
11000.0
 20
3037.4948928332224
 30
0.0
 11
15800.0
 21
3037.4948928332224
 31
0.0
  0
LINE
  8
DIM
 10
10910.0
 20
2947.4948928332224
 30
0.0
 11
11090.0
 21
3127.4948928332224
 31
0.0
  0
LINE
  8
DIM
 10
11000.0
 20
2857.4948928332224
 30
0.0
 11
11000.0
 21
3217.4948928332224
 31
0.0
  0
LINE
  8
DIM
 10
15710.0
 20
2947.4948928332224
 30
0.0
 11
15890.0
 21
3127.4948928332224
 31
0.0
  0
LINE
  8
DIM
 10
15800.0
 20
2857.4948928332224
 30
0.0
 11
15800.0
 21
3217.4948928332224
 31
0.0
  0
TEXT
  8
DIM
 10
13400.0
 20
3109.4948928332224
 30
0.0
 40
120.0
  1
4800 STAIR + PLATFORM
  7
STANDARD
 72
1
 11
13400.0
 21
3109.4948928332224
 31
0.0
  0
TEXT
  8
TEXT
 10
-377.1902210314802
 20
-16005.010214333557
 30
0.0
 40
300.0
  1
GROUND PLAN - HEADHOUSE + BERM      SCALE 1:50
  7
STANDARD
 11
-577.1902210314802
 21
-16005.010214333557
 31
0.0
  0
TEXT
  8
TEXT
 10
-377.1902210314802
 20
-16425.010214333557
 30
0.0
 40
125.0
  1
1  THE HEADHOUSE FLOOR IS THE TOP OF THE 900 PRESSURE SLAB AT -2.000. IT IS NOT A SEPARATE SLAB.
  7
STANDARD
 11
-577.1902210314802
 21
-16425.010214333557
 31
0.0
  0
TEXT
  8
TEXT
 10
-377.1902210314802
 20
-16655.010214333557
 30
0.0
 40
125.0
  1
2  THE STAIR RISES THROUGH AN OPENING IN THAT SLAB AND LANDS DIRECTLY ON THE FLOOR AT -2.000.
  7
STANDARD
 11
-577.1902210314802
 21
-16655.010214333557
 31
0.0
  0
TEXT
  8
TEXT
 10
-377.1902210314802
 20
-16885.010214333557
 30
0.0
 40
125.0
  1
3  ESCAPE SHAFT 2 HEAD RAISED 150 -> 700 SO THE BERM CAN RUN OVER IT: 550 CLEAR TO THE HEADHOUSE (MOD M1).
  7
STANDARD
 11
-577.1902210314802
 21
-16885.010214333557
 31
0.0
  0
TEXT
  8
TEXT
 10
-377.1902210314802
 20
-17115.010214333557
 30
0.0
 40
125.0
  1
4  PROTECTIVE BOUNDARY IS BLAST DOOR 1 AT THE FOOT OF THE STAIR, NOT THE OUTER DOOR.
  7
STANDARD
 11
-577.1902210314802
 21
-17115.010214333557
 31
0.0
  0
TEXT
  8
TEXT
 10
-377.1902210314802
 20
-17345.010214333557
 30
0.0
 40
125.0
  1
5  ALL DIMENSIONS mm.  LEVELS m RELATIVE TO SITE GRADE 0.000.
  7
STANDARD
 11
-577.1902210314802
 21
-17345.010214333557
 31
0.0
  0
TEXT
  8
TEXT
 10
-577.1902210314802
 20
-17575.010214333557
 30
0.0
 40
120.0
  1
MOD M1 (APPROVED) - W6 AND W7 400 THK; BOX 22000; SHAFT 15200-18000; ESC2 AT X 19900; HEADHOUSE AND COVERED STAIRWELL +200. GEOMETRY REV F + M1.
  7
STANDARD
 11
-577.1902210314802
 21
-17575.010214333557
 31
0.0
  0
LINE
  8
LEADER
 10
15399.968937757818
 20
-3029.4238675303195
 30
0.0
 11
15418.453110006587
 21
-3029.4238675303195
 31
0.0
  0
LINE
  8
LEADER
 10
15418.453110006587
 20
-3029.4238675303195
 30
0.0
 11
15441.044876088414
 21
-3363.1983422638978
 31
0.0
  0
LINE
  8
LEADER
 10
14958.697158699579
 20
-4265.682172095426
 30
0.0
 11
15248.149227639758
 21
-4265.682172095426
 31
0.0
  0
LINE
  8
LEADER
 10
15248.149227639758
 20
-4265.682172095426
 30
0.0
 11
15601.923978566645
 21
-3964.9850133958466
 31
0.0
  0
LINE
  8
LEADER
 10
9928.317501107666
 20
468.81807295616545
 30
0.0
 11
10683.508818509417
 21
468.81807295616545
 31
0.0
  0
LINE
  8
LEADER
 10
10683.508818509417
 20
468.81807295616545
 30
0.0
 11
11606.520428667114
 21
-403.19834226389776
 31
0.0
  0
LINE
  8
SHEET-BORDER
 10
-1527.1902210314802
 20
-18659.25
 30
0.0
 11
40522.80977896852
 21
-18659.25
 31
0.0
  0
LINE
  8
SHEET-BORDER
 10
40522.80977896852
 20
-18659.25
 30
0.0
 11
40522.80977896852
 21
11040.75
 31
0.0
  0
LINE
  8
SHEET-BORDER
 10
40522.80977896852
 20
11040.75
 30
0.0
 11
-1527.1902210314802
 21
11040.75
 31
0.0
  0
LINE
  8
SHEET-BORDER
 10
-1527.1902210314802
 20
11040.75
 30
0.0
 11
-1527.1902210314802
 21
-18659.25
 31
0.0
  0
LINE
  8
SHEET-BORDER
 10
-1027.1902210314802
 20
-18159.25
 30
0.0
 11
40022.80977896852
 21
-18159.25
 31
0.0
  0
LINE
  8
SHEET-BORDER
 10
40022.80977896852
 20
-18159.25
 30
0.0
 11
40022.80977896852
 21
10540.75
 31
0.0
  0
LINE
  8
SHEET-BORDER
 10
40022.80977896852
 20
10540.75
 30
0.0
 11
-1027.1902210314802
 21
10540.75
 31
0.0
  0
LINE
  8
SHEET-BORDER
 10
-1027.1902210314802
 20
10540.75
 30
0.0
 11
-1027.1902210314802
 21
-18159.25
 31
0.0
  0
LINE
  8
SHEET-TITLEBLOCK
 10
31022.80977896852
 20
-18159.25
 30
0.0
 11
40022.80977896852
 21
-18159.25
 31
0.0
  0
LINE
  8
SHEET-TITLEBLOCK
 10
40022.80977896852
 20
-18159.25
 30
0.0
 11
40022.80977896852
 21
-13159.25
 31
0.0
  0
LINE
  8
SHEET-TITLEBLOCK
 10
40022.80977896852
 20
-13159.25
 30
0.0
 11
31022.80977896852
 21
-13159.25
 31
0.0
  0
LINE
  8
SHEET-TITLEBLOCK
 10
31022.80977896852
 20
-13159.25
 30
0.0
 11
31022.80977896852
 21
-18159.25
 31
0.0
  0
LINE
  8
SHEET-TITLEBLOCK
 10
31022.80977896852
 20
-17159.25
 30
0.0
 11
40022.80977896852
 21
-17159.25
 31
0.0
  0
LINE
  8
SHEET-TITLEBLOCK
 10
31022.80977896852
 20
-16559.25
 30
0.0
 11
40022.80977896852
 21
-16559.25
 31
0.0
  0
LINE
  8
SHEET-TITLEBLOCK
 10
31022.80977896852
 20
-15959.25
 30
0.0
 11
40022.80977896852
 21
-15959.25
 31
0.0
  0
LINE
  8
SHEET-TITLEBLOCK
 10
31022.80977896852
 20
-15359.25
 30
0.0
 11
40022.80977896852
 21
-15359.25
 31
0.0
  0
LINE
  8
SHEET-TITLEBLOCK
 10
31022.80977896852
 20
-14259.25
 30
0.0
 11
40022.80977896852
 21
-14259.25
 31
0.0
  0
LINE
  8
SHEET-TITLEBLOCK
 10
36622.80977896852
 20
-18159.25
 30
0.0
 11
36622.80977896852
 21
-17159.25
 31
0.0
  0
LINE
  8
SHEET-TITLEBLOCK
 10
38322.80977896852
 20
-18159.25
 30
0.0
 11
38322.80977896852
 21
-17159.25
 31
0.0
  0
LINE
  8
SHEET-TITLEBLOCK
 10
35822.80977896852
 20
-17159.25
 30
0.0
 11
35822.80977896852
 21
-16559.25
 31
0.0
  0
TEXT
  8
SHEET-TEXT
 10
31122.80977896852
 20
-17429.25
 30
0.0
 40
70.0
  1
DRAWING No.
 11
31122.80977896852
 21
-17429.25
 31
0.0
  0
TEXT
  8
SHEET-TEXT
 10
31822.80977896852
 20
-17949.25
 30
0.0
 40
220.00000000000003
  1
A-102
 11
31822.80977896852
 21
-17949.25
 31
0.0
  0
TEXT
  8
SHEET-TEXT
 10
36722.80977896852
 20
-17429.25
 30
0.0
 40
70.0
  1
REV
 11
36722.80977896852
 21
-17429.25
 31
0.0
  0
TEXT
  8
SHEET-TEXT
 10
36722.80977896852
 20
-17929.25
 30
0.0
 40
140.0
  1
F + M1
 11
36722.80977896852
 21
-17929.25
 31
0.0
  0
TEXT
  8
SHEET-TEXT
 10
38422.80977896852
 20
-17429.25
 30
0.0
 40
70.0
  1
SHEET
 11
38422.80977896852
 21
-17429.25
 31
0.0
  0
TEXT
  8
SHEET-TEXT
 10
38422.80977896852
 20
-17909.25
 30
0.0
 40
95.0
  1
2 OF 10
 11
38422.80977896852
 21
-17909.25
 31
0.0
  0
TEXT
  8
SHEET-TEXT
 10
31122.80977896852
 20
-16939.25
 30
0.0
 40
95.0
  1
SCALE   1:50 AT A1
 11
31122.80977896852
 21
-16939.25
 31
0.0
  0
TEXT
  8
SHEET-TEXT
 10
35922.80977896852
 20
-16939.25
 30
0.0
 40
95.0
  1
DATE   09.09.2026
 11
35922.80977896852
 21
-16939.25
 31
0.0
  0
TEXT
  8
SHEET-TEXT
 10
31122.80977896852
 20
-16339.25
 30
0.0
 40
75.0
  1
DRAWN  [PLACEHOLDER]
 11
31122.80977896852
 21
-16339.25
 31
0.0
  0
TEXT
  8
SHEET-TEXT
 10
34122.80977896852
 20
-16339.25
 30
0.0
 40
75.0
  1
CHECKED  [PLACEHOLDER]
 11
34122.80977896852
 21
-16339.25
 31
0.0
  0
TEXT
  8
SHEET-TEXT
 10
37122.80977896852
 20
-16339.25
 30
0.0
 40
75.0
  1
APPROVED  [PLACEHOLDER]
 11
37122.80977896852
 21
-16339.25
 31
0.0
  0
TEXT
  8
SHEET-TEXT
 10
31122.80977896852
 20
-15739.25
 30
0.0
 40
70.0
  1
STATUS
 11
31122.80977896852
 21
-15739.25
 31
0.0
  0
TEXT
  8
SHEET-TEXT
 10
32122.80977896852
 20
-15759.25
 30
0.0
 40
95.0
  1
FOR REVIEW - NOT FOR CONSTRUCTION
 11
32122.80977896852
 21
-15759.25
 31
0.0
  0
TEXT
  8
SHEET-TEXT
 10
31122.80977896852
 20
-14489.25
 30
0.0
 40
70.0
  1
DRAWING TITLE
 11
31122.80977896852
 21
-14489.25
 31
0.0
  0
TEXT
  8
SHEET-TEXT
 10
31122.80977896852
 20
-14889.25
 30
0.0
 40
120.0
  1
GROUND LEVEL PLAN - HEADHOUSE AND BERM
 11
31122.80977896852
 21
-14889.25
 31
0.0
  0
TEXT
  8
SHEET-TEXT
 10
31122.80977896852
 20
-15219.25
 30
0.0
 40
75.0
  1
GRADE 0.000 - HEADHOUSE, COVERED STAIRWELL, ENGINEERED COVER
 11
31122.80977896852
 21
-15219.25
 31
0.0
  0
TEXT
  8
SHEET-TEXT
 10
31122.80977896852
 20
-13399.25
 30
0.0
 40
70.0
  1
PROJECT
 11
31122.80977896852
 21
-13399.25
 31
0.0
  0
TEXT
  8
SHEET-TEXT
 10
31122.80977896852
 20
-13679.25
 30
0.0
 40
95.0
  1
UNDERGROUND CBRN-HARDENED BLAST-RESISTANT
 11
31122.80977896852
 21
-13679.25
 31
0.0
  0
TEXT
  8
SHEET-TEXT
 10
31122.80977896852
 20
-13909.25
 30
0.0
 40
95.0
  1
PROTECTIVE STRUCTURE  -  PUNE, MAHARASHTRA
 11
31122.80977896852
 21
-13909.25
 31
0.0
  0
TEXT
  8
SHEET-TEXT
 10
31122.80977896852
 20
-14149.25
 30
0.0
 40
75.0
  1
ARCHITECTURAL REV F  +  MODIFICATION M1
 11
31122.80977896852
 21
-14149.25
 31
0.0
  0
TEXT
  8
SHEET-TEXT
 10
-927.1902210314802
 20
10165.75
 30
0.0
 40
160.0
  1
A-102   GROUND LEVEL PLAN - HEADHOUSE AND BERM
 11
-927.1902210314802
 21
10165.75
 31
0.0
  0
LINE
  8
SHEET-BORDER
 10
-1027.1902210314802
 20
10015.75
 30
0.0
 11
40022.80977896852
 21
10015.75
 31
0.0
  0
TEXT
  8
SHEET-TEXT
 10
-927.1902210314802
 20
-18034.25
 30
0.0
 40
75.0
  1
QA1  09.09.2026   DRAWING QA/QC - ANNOTATION POSITIONS, SHEET FRAME AND TITLE BLOCK.  NO GEOMETRY, DIMENSION OR VALUE CHANGED.
 11
-927.1902210314802
 21
-18034.25
 31
0.0
  0
LINE
  8
SHEET-BORDER
 10
-727.1902210314802
 20
-17759.25
 30
0.0
 11
13668.42933690556
 21
-17759.25
 31
0.0
  0
LINE
  8
SHEET-BORDER
 10
13668.42933690556
 20
-17759.25
 30
0.0
 11
13668.42933690556
 21
-15255.010214333557
 31
0.0
  0
LINE
  8
SHEET-BORDER
 10
13668.42933690556
 20
-15255.010214333557
 30
0.0
 11
-727.1902210314802
 21
-15255.010214333557
 31
0.0
  0
LINE
  8
SHEET-BORDER
 10
-727.1902210314802
 20
-15255.010214333557
 30
0.0
 11
-727.1902210314802
 21
-17759.25
 31
0.0
  0
TEXT
  8
SHEET-TEXT
 10
-577.1902210314802
 20
-15525.010214333557
 30
0.0
 40
130.0
  1
NOTES
 11
-577.1902210314802
 21
-15525.010214333557
 31
0.0
  0
LINE
  8
LEADER
 10
11879.063295378433
 20
-563.1983422638974
 30
0.0
 11
11617.036553918286
 21
-563.1983422638974
 31
0.0
  0
LINE
  8
LEADER
 10
11617.036553918286
 20
-563.1983422638974
 30
0.0
 11
11296.781647689217
 21
-563.1983422638975
 31
0.0
  0
ENDSEC
  0
EOF
