  0
SECTION
  2
HEADER
  9
$ACADVER
  1
AC1009
  9
$DWGCODEPAGE
  3
ANSI_1252
  9
$EXTMIN
 10
1e+20
 20
1e+20
 30
1e+20
  9
$EXTMAX
 10
-1e+20
 20
-1e+20
 30
-1e+20
  9
$LIMMIN
 10
0.0
 20
0.0
  9
$LIMMAX
 10
420.0
 20
297.0
  9
$LTSCALE
 40
25.0
  9
$LIMCHECK
 70
0
  9
$TDCREATE
 40
2461294.0692939814
  9
$TDUPDATE
 40
2461294.0692939814
  9
$PEXTMIN
 10
1e+20
 20
1e+20
 30
1e+20
  9
$PEXTMAX
 10
-1e+20
 20
-1e+20
 30
-1e+20
  9
$PLIMMIN
 10
0.0
 20
0.0
  9
$PLIMMAX
 10
420.0
 20
297.0
  0
ENDSEC
  0
SECTION
  2
TABLES
  0
TABLE
  2
VPORT
 70
1
  0
VPORT
  2
*Active
 70
0
 10
0.0
 20
0.0
 11
1.0
 21
1.0
 12
0.0
 22
0.0
 13
0.0
 23
0.0
 14
0.5
 24
0.5
 15
0.5
 25
0.5
 16
0.0
 26
0.0
 36
1.0
 17
0.0
 27
0.0
 37
0.0
 40
1000.0
 41
1.34
 42
50.0
 43
0.0
 44
0.0
 50
0.0
 51
0.0
 71
0
 72
1000
 73
1
 74
3
 75
0
 76
0
 77
0
 78
0
  0
ENDTAB
  0
TABLE
  2
LTYPE
 70
5
  0
LTYPE
  2
CONTINUOUS
 70
0
  3
Solid line
 72
65
 73
0
 40
0.0
  0
LTYPE
  2
DASHED
 70
0
  3
Dashed __ __ __
 72
65
 73
2
 40
15.0
 49
10.0
 49
-5.0
  0
LTYPE
  2
CENTER
 70
0
  3
Centre ____ _ ____
 72
65
 73
4
 40
50.0
 49
32.0
 49
-6.0
 49
6.0
 49
-6.0
  0
LTYPE
  2
ByBlock
 70
0
  3

 72
65
 73
0
 40
0.0
  0
LTYPE
  2
ByLayer
 70
0
  3

 72
65
 73
0
 40
0.0
  0
ENDTAB
  0
TABLE
  2
LAYER
 70
15
  0
LAYER
  2
0
 70
0
 62
7
  6
CONTINUOUS
  0
LAYER
  2
WALLS
 70
0
 62
7
  6
CONTINUOUS
  0
LAYER
  2
OPENINGS
 70
0
 62
1
  6
CONTINUOUS
  0
LAYER
  2
STAIRS
 70
0
 62
3
  6
CONTINUOUS
  0
LAYER
  2
GROUND
 70
0
 62
42
  6
CONTINUOUS
  0
LAYER
  2
TEXT
 70
0
 62
2
  6
CONTINUOUS
  0
LAYER
  2
DIM
 70
0
 62
4
  6
CONTINUOUS
  0
LAYER
  2
HIDDEN
 70
0
 62
8
  6
DASHED
  0
LAYER
  2
CENTRE
 70
0
 62
6
  6
CENTER
  0
LAYER
  2
BEYOND
 70
0
 62
9
  6
CONTINUOUS
  0
LAYER
  2
Defpoints
 70
0
 62
7
  6
Continuous
  0
LAYER
  2
LEADER
 70
0
 62
7
  6
Continuous
  0
LAYER
  2
SHEET-BORDER
 70
0
 62
7
  6
Continuous
  0
LAYER
  2
SHEET-TITLEBLOCK
 70
0
 62
7
  6
Continuous
  0
LAYER
  2
SHEET-TEXT
 70
0
 62
7
  6
Continuous
  0
ENDTAB
  0
TABLE
  2
STYLE
 70
1
  0
STYLE
  2
STANDARD
 70
0
 40
0.0
 41
1.0
 50
0.0
 71
0
 42
2.5
  3
txt
  4

  0
ENDTAB
  0
TABLE
  2
VIEW
 70
0
  0
ENDTAB
  0
TABLE
  2
UCS
 70
0
  0
ENDTAB
  0
TABLE
  2
APPID
 70
3
  0
APPID
  2
ACAD
 70
0
  0
APPID
  2
HATCHBACKGROUNDCOLOR
 70
0
  0
APPID
  2
EZDXF
 70
0
  0
ENDTAB
  0
TABLE
  2
DIMSTYLE
 70
1
  0
DIMSTYLE
  2
Standard
 70
0
  3

  4

  5

  6

  7

 40
1.0
 41
2.5
 42
0.625
 43
3.75
 44
1.25
 45
0.0
 46
0.0
 47
0.0
 48
0.0
140
2.5
141
2.5
142
0.0
143
0.03937007874
144
1.0
145
0.0
146
1.0
147
0.625
 71
0
 72
0
 73
0
 74
0
 75
0
 76
0
 77
1
 78
8
170
0
171
3
172
1
173
0
174
0
175
0
176
0
177
0
178
0
  0
ENDTAB
  0
ENDSEC
  0
SECTION
  2
BLOCKS
  0
BLOCK
  8
0
  2
$Model_Space
 70
0
 10
0.0
 20
0.0
 30
0.0
  3
$Model_Space
  1

1001
EZDXF
1000
WRITTEN_BY_EZDXF
1000
1.4.4 @ 2026-09-10T01:39:47.159277+00:00
  0
ENDBLK
  8
0
  0
BLOCK
  8
0
  2
$Paper_Space
 70
0
 10
0.0
 20
0.0
 30
0.0
  3
$Paper_Space
  1

  0
ENDBLK
  8
0
  0
ENDSEC
  0
SECTION
  2
ENTITIES
  0
LINE
  8
HIDDEN
 10
10200.0
 20
-5857.205375083724
 30
0.0
 11
22200.0
 21
-5857.205375083724
 31
0.0
  0
LINE
  8
HIDDEN
 10
10200.0
 20
342.794624916276
 30
0.0
 11
22200.0
 21
342.794624916276
 31
0.0
  0
LINE
  8
HIDDEN
 10
10200.0
 20
-5257.205375083724
 30
0.0
 11
22200.0
 21
-5257.205375083724
 31
0.0
  0
LINE
  8
HIDDEN
 10
10200.0
 20
-257.205375083724
 30
0.0
 11
22200.0
 21
-257.205375083724
 31
0.0
  0
LINE
  8
HIDDEN
 10
21400.0
 20
-5857.205375083724
 30
0.0
 11
21400.0
 21
342.794624916276
 31
0.0
  0
LINE
  8
HIDDEN
 10
22000.0
 20
-5857.205375083724
 30
0.0
 11
22000.0
 21
342.794624916276
 31
0.0
  0
LINE
  8
HIDDEN
 10
14800.0
 20
-5257.205375083724
 30
0.0
 11
14800.0
 21
-257.205375083724
 31
0.0
  0
LINE
  8
HIDDEN
 10
15200.0
 20
-5257.205375083724
 30
0.0
 11
15200.0
 21
-257.205375083724
 31
0.0
  0
LINE
  8
HIDDEN
 10
18000.0
 20
-5257.205375083724
 30
0.0
 11
18000.0
 21
-257.205375083724
 31
0.0
  0
LINE
  8
HIDDEN
 10
18400.0
 20
-5257.205375083724
 30
0.0
 11
18400.0
 21
-257.205375083724
 31
0.0
  0
LINE
  8
HIDDEN
 10
10200.0
 20
-5857.205375083724
 30
0.0
 11
10400.0
 21
-5857.205375083724
 31
0.0
  0
LINE
  8
HIDDEN
 10
10200.0
 20
-5257.205375083724
 30
0.0
 11
10400.0
 21
-5257.205375083724
 31
0.0
  0
LINE
  8
HIDDEN
 10
10400.0
 20
-257.205375083724
 30
0.0
 11
10600.0
 21
-257.205375083724
 31
0.0
  0
LINE
  8
HIDDEN
 10
10400.0
 20
342.794624916276
 30
0.0
 11
10600.0
 21
342.794624916276
 31
0.0
  0
POLYLINE
  8
HIDDEN
 66
1
 10
0.0
 20
0.0
 30
0.0
 70
0
  0
VERTEX
  8
HIDDEN
 10
10320.0
 20
-6157.205375083724
 30
0.0
 70
0
  0
VERTEX
  8
HIDDEN
 10
10520.0
 20
-4357.205375083724
 30
0.0
 70
0
  0
VERTEX
  8
HIDDEN
 10
10320.0
 20
-2757.205375083724
 30
0.0
 70
0
  0
VERTEX
  8
HIDDEN
 10
10520.0
 20
-1157.205375083724
 30
0.0
 70
0
  0
VERTEX
  8
HIDDEN
 10
10320.0
 20
642.794624916276
 30
0.0
 70
0
  0
SEQEND
  8
HIDDEN
  0
TEXT
  8
HIDDEN
 10
10820.0
 20
662.794624916276
 30
0.0
 40
130.0
  1
UNDERGROUND BOX BELOW - PART PLAN
  7
STANDARD
 11
10620.0
 21
662.794624916276
 31
0.0
  0
TEXT
  8
HIDDEN
 10
15280.0
 20
-201.705375083724
 30
0.0
 40
105.0
  1
BAY 6/7 WALL
  7
STANDARD
 11
15080.0
 21
-201.705375083724
 31
0.0
  0
TEXT
  8
HIDDEN
 10
18480.0
 20
-107.205375083724
 30
0.0
 40
105.0
  1
BAY 7/8 WALL
  7
STANDARD
 11
18080.0
 21
-107.205375083724
 31
0.0
  0
POLYLINE
  8
GROUND
 66
1
 10
0.0
 20
0.0
 30
0.0
 70
0
  0
VERTEX
  8
GROUND
 10
9250.0
 20
-107.205375083724
 30
0.0
 70
0
  0
VERTEX
  8
GROUND
 10
10600.0
 20
-1457.205375083724
 30
0.0
 70
0
  0
VERTEX
  8
GROUND
 10
17400.0
 20
-1457.205375083724
 30
0.0
 70
0
  0
VERTEX
  8
GROUND
 10
17400.0
 20
3242.794624916276
 30
0.0
 70
0
  0
VERTEX
  8
GROUND
 10
10600.0
 20
3242.794624916276
 30
0.0
 70
0
  0
VERTEX
  8
GROUND
 10
9250.0
 20
1892.794624916276
 30
0.0
 70
0
  0
SEQEND
  8
GROUND
  0
TEXT
  8
TEXT
 10
8950.0
 20
3622.794624916276
 30
0.0
 40
115.0
  1
EARTH GRADED AGAINST THE STAIRWELL WALLS TO +0.900, 1.5:1.  THE ROOF
  7
STANDARD
 11
8750.0
 21
3622.794624916276
 31
0.0
  0
TEXT
  8
TEXT
 10
8950.0
 20
3462.794624916276
 30
0.0
 40
115.0
  1
AND THE HEADWALL STAND PROUD - SEE SECTION C-C.  THE EARTH FALLS FROM
  7
STANDARD
 11
8750.0
 21
3462.794624916276
 31
0.0
  0
TEXT
  8
TEXT
 10
8950.0
 20
3768.544624916276
 30
0.0
 40
115.0
  1
+0.900 TO GRADE OVER THE LAST 1350 SO THE DOOR IS CLEAR AT 0.000
  7
STANDARD
 11
8750.0
 21
3768.544624916276
 31
0.0
  0
POLYLINE
  8
GROUND
 66
1
 10
0.0
 20
0.0
 30
0.0
 70
0
  0
VERTEX
  8
GROUND
 10
12250.0
 20
1492.794624916276
 30
0.0
 70
0
  0
VERTEX
  8
GROUND
 10
12250.0
 20
-7007.205375083724
 30
0.0
 70
0
  0
VERTEX
  8
GROUND
 10
19750.0
 20
-7007.205375083724
 30
0.0
 70
0
  0
VERTEX
  8
GROUND
 10
19750.0
 20
1492.794624916276
 30
0.0
 70
0
  0
SEQEND
  8
GROUND
  0
LINE
  8
GROUND
 10
17400.0
 20
1492.794624916276
 30
0.0
 11
19750.0
 21
1492.794624916276
 31
0.0
  0
LINE
  8
GROUND
 10
12250.0
 20
-7007.205375083724
 30
0.0
 11
13600.0
 21
-7007.205375083724
 31
0.0
  0
LINE
  8
GROUND
 10
12250.0
 20
-5307.205375083724
 30
0.0
 11
13600.0
 21
-5307.205375083724
 31
0.0
  0
LINE
  8
GROUND
 10
12250.0
 20
-3607.205375083724
 30
0.0
 11
13600.0
 21
-3607.205375083724
 31
0.0
  0
LINE
  8
GROUND
 10
12250.0
 20
-1907.205375083724
 30
0.0
 11
13600.0
 21
-1907.205375083724
 31
0.0
  0
LINE
  8
GROUND
 10
12250.0
 20
-207.205375083724
 30
0.0
 11
13600.0
 21
-207.205375083724
 31
0.0
  0
LINE
  8
GROUND
 10
12250.0
 20
1492.794624916276
 30
0.0
 11
13600.0
 21
1492.794624916276
 31
0.0
  0
LINE
  8
GROUND
 10
19750.0
 20
-7007.205375083724
 30
0.0
 11
18400.0
 21
-7007.205375083724
 31
0.0
  0
LINE
  8
GROUND
 10
19750.0
 20
-5307.205375083724
 30
0.0
 11
18400.0
 21
-5307.205375083724
 31
0.0
  0
LINE
  8
GROUND
 10
19750.0
 20
-3607.205375083724
 30
0.0
 11
18400.0
 21
-3607.205375083724
 31
0.0
  0
LINE
  8
GROUND
 10
19750.0
 20
-1907.205375083724
 30
0.0
 11
18400.0
 21
-1907.205375083724
 31
0.0
  0
LINE
  8
GROUND
 10
19750.0
 20
-207.205375083724
 30
0.0
 11
18400.0
 21
-207.205375083724
 31
0.0
  0
LINE
  8
GROUND
 10
19750.0
 20
1492.794624916276
 30
0.0
 11
18400.0
 21
1492.794624916276
 31
0.0
  0
LINE
  8
GROUND
 10
12250.0
 20
-7007.205375083724
 30
0.0
 11
12250.0
 21
-5657.205375083724
 31
0.0
  0
LINE
  8
GROUND
 10
13750.0
 20
-7007.205375083724
 30
0.0
 11
13750.0
 21
-5657.205375083724
 31
0.0
  0
LINE
  8
GROUND
 10
15250.0
 20
-7007.205375083724
 30
0.0
 11
15250.0
 21
-5657.205375083724
 31
0.0
  0
LINE
  8
GROUND
 10
16750.0
 20
-7007.205375083724
 30
0.0
 11
16750.0
 21
-5657.205375083724
 31
0.0
  0
LINE
  8
GROUND
 10
18250.0
 20
-7007.205375083724
 30
0.0
 11
18250.0
 21
-5657.205375083724
 31
0.0
  0
LINE
  8
GROUND
 10
19750.0
 20
-7007.205375083724
 30
0.0
 11
19750.0
 21
-5657.205375083724
 31
0.0
  0
LINE
  8
GROUND
 10
17875.0
 20
1492.794624916276
 30
0.0
 11
17875.0
 21
142.794624916276
 31
0.0
  0
LINE
  8
GROUND
 10
18812.5
 20
1492.794624916276
 30
0.0
 11
18812.5
 21
142.794624916276
 31
0.0
  0
LINE
  8
GROUND
 10
19750.0
 20
1492.794624916276
 30
0.0
 11
19750.0
 21
142.794624916276
 31
0.0
  0
TEXT
  8
TEXT
 10
12250.0
 20
-7327.205375083724
 30
0.0
 40
130.0
  1
BERM 1.5:1, 1350 RUN, TOE AT GRADE 0.000
  7
STANDARD
 11
12050.0
 21
-7327.205375083724
 31
0.0
  0
TEXT
  8
TEXT
 10
17700.0
 20
1812.794624916276
 30
0.0
 40
115.0
  1
BERM RESUMES EAST OF THE STAIRWELL
  7
STANDARD
 11
17500.0
 21
1812.794624916276
 31
0.0
  0
POLYLINE
  8
WALLS
 66
1
 10
0.0
 20
0.0
 30
0.0
 70
1
  0
VERTEX
  8
WALLS
 10
13600.0
 20
-5657.205375083724
 30
0.0
 70
0
  0
VERTEX
  8
WALLS
 10
18400.0
 20
-5657.205375083724
 30
0.0
 70
0
  0
VERTEX
  8
WALLS
 10
18400.0
 20
142.794624916276
 30
0.0
 70
0
  0
VERTEX
  8
WALLS
 10
13600.0
 20
142.794624916276
 30
0.0
 70
0
  0
SEQEND
  8
WALLS
  0
POLYLINE
  8
WALLS
 66
1
 10
0.0
 20
0.0
 30
0.0
 70
1
  0
VERTEX
  8
WALLS
 10
14000.0
 20
-5257.205375083724
 30
0.0
 70
0
  0
VERTEX
  8
WALLS
 10
18000.0
 20
-5257.205375083724
 30
0.0
 70
0
  0
VERTEX
  8
WALLS
 10
18000.0
 20
-257.205375083724
 30
0.0
 70
0
  0
VERTEX
  8
WALLS
 10
14000.0
 20
-257.205375083724
 30
0.0
 70
0
  0
SEQEND
  8
WALLS
  0
TEXT
  8
TEXT
 10
13600.0
 20
2248.794624916276
 30
0.0
 40
160.0
  1
HEADHOUSE   400 WALLS / 500 ROOF   FLOOR -2.000   ROOF TOP +0.900
  7
STANDARD
 11
13400.0
 21
2248.794624916276
 31
0.0
  0
POLYLINE
  8
OPENINGS
 66
1
 10
0.0
 20
0.0
 30
0.0
 70
1
  0
VERTEX
  8
OPENINGS
 10
15200.0
 20
-5257.205375083724
 30
0.0
 70
0
  0
VERTEX
  8
OPENINGS
 10
18000.0
 20
-5257.205375083724
 30
0.0
 70
0
  0
VERTEX
  8
OPENINGS
 10
18000.0
 20
-2097.205375083724
 30
0.0
 70
0
  0
VERTEX
  8
OPENINGS
 10
15200.0
 20
-2097.205375083724
 30
0.0
 70
0
  0
SEQEND
  8
OPENINGS
  0
TEXT
  8
TEXT
 10
18250.0
 20
-2247.205375083724
 30
0.0
 40
112.0
  1
OPENING IN THE PRESSURE
  7
STANDARD
 11
18050.0
 21
-2247.205375083724
 31
0.0
  0
TEXT
  8
TEXT
 10
18250.0
 20
-2407.205375083724
 30
0.0
 40
112.0
  1
SLAB  2800 x 3160
  7
STANDARD
 11
18050.0
 21
-2407.205375083724
 31
0.0
  0
TEXT
  8
TEXT
 10
18250.0
 20
-2567.205375083724
 30
0.0
 40
100.0
  1
1100 GUARDING TO EDGE
  7
STANDARD
 11
18050.0
 21
-2567.205375083724
 31
0.0
  0
LINE
  8
STAIRS
 10
15300.0
 20
-3777.205375083724
 30
0.0
 11
16500.0
 21
-3777.205375083724
 31
0.0
  0
LINE
  8
HIDDEN
 10
16700.0
 20
-3777.205375083724
 30
0.0
 11
17900.0
 21
-3777.205375083724
 31
0.0
  0
LINE
  8
STAIRS
 10
15300.0
 20
-3497.205375083724
 30
0.0
 11
16500.0
 21
-3497.205375083724
 31
0.0
  0
LINE
  8
HIDDEN
 10
16700.0
 20
-3497.205375083724
 30
0.0
 11
17900.0
 21
-3497.205375083724
 31
0.0
  0
LINE
  8
STAIRS
 10
15300.0
 20
-3217.205375083724
 30
0.0
 11
16500.0
 21
-3217.205375083724
 31
0.0
  0
LINE
  8
HIDDEN
 10
16700.0
 20
-3217.205375083724
 30
0.0
 11
17900.0
 21
-3217.205375083724
 31
0.0
  0
LINE
  8
STAIRS
 10
15300.0
 20
-2937.205375083724
 30
0.0
 11
16500.0
 21
-2937.205375083724
 31
0.0
  0
LINE
  8
HIDDEN
 10
16700.0
 20
-2937.205375083724
 30
0.0
 11
17900.0
 21
-2937.205375083724
 31
0.0
  0
LINE
  8
STAIRS
 10
15300.0
 20
-2657.205375083724
 30
0.0
 11
16500.0
 21
-2657.205375083724
 31
0.0
  0
LINE
  8
HIDDEN
 10
16700.0
 20
-2657.205375083724
 30
0.0
 11
17900.0
 21
-2657.205375083724
 31
0.0
  0
LINE
  8
STAIRS
 10
15300.0
 20
-2377.205375083724
 30
0.0
 11
16500.0
 21
-2377.205375083724
 31
0.0
  0
LINE
  8
HIDDEN
 10
16700.0
 20
-2377.205375083724
 30
0.0
 11
17900.0
 21
-2377.205375083724
 31
0.0
  0
LINE
  8
STAIRS
 10
15300.0
 20
-2097.205375083724
 30
0.0
 11
16500.0
 21
-2097.205375083724
 31
0.0
  0
LINE
  8
HIDDEN
 10
16700.0
 20
-2097.205375083724
 30
0.0
 11
17900.0
 21
-2097.205375083724
 31
0.0
  0
POLYLINE
  8
STAIRS
 66
1
 10
0.0
 20
0.0
 30
0.0
 70
1
  0
VERTEX
  8
STAIRS
 10
15300.0
 20
-4057.205375083724
 30
0.0
 70
0
  0
VERTEX
  8
STAIRS
 10
16500.0
 20
-4057.205375083724
 30
0.0
 70
0
  0
VERTEX
  8
STAIRS
 10
16500.0
 20
-2097.205375083724
 30
0.0
 70
0
  0
VERTEX
  8
STAIRS
 10
15300.0
 20
-2097.205375083724
 30
0.0
 70
0
  0
SEQEND
  8
STAIRS
  0
POLYLINE
  8
HIDDEN
 66
1
 10
0.0
 20
0.0
 30
0.0
 70
1
  0
VERTEX
  8
HIDDEN
 10
16700.0
 20
-4057.205375083724
 30
0.0
 70
0
  0
VERTEX
  8
HIDDEN
 10
17900.0
 20
-4057.205375083724
 30
0.0
 70
0
  0
VERTEX
  8
HIDDEN
 10
17900.0
 20
-2097.205375083724
 30
0.0
 70
0
  0
VERTEX
  8
HIDDEN
 10
16700.0
 20
-2097.205375083724
 30
0.0
 70
0
  0
SEQEND
  8
HIDDEN
  0
LINE
  8
DIM
 10
15900.0
 20
-3807.205375083724
 30
0.0
 11
15900.0
 21
-2347.205375083724
 31
0.0
  0
LINE
  8
DIM
 10
15900.0
 20
-2347.205375083724
 30
0.0
 11
15770.0
 21
-2617.205375083724
 31
0.0
  0
LINE
  8
DIM
 10
15900.0
 20
-2347.205375083724
 30
0.0
 11
16030.0
 21
-2617.205375083724
 31
0.0
  0
TEXT
  8
TEXT
 10
15380.0
 20
-4377.205375083724
 30
0.0
 40
108.0
  1
FLIGHT 3 UP
  7
STANDARD
 11
15180.0
 21
-4377.205375083724
 31
0.0
  0
TEXT
  8
HIDDEN
 10
16780.0
 20
-4537.205375083724
 30
0.0
 40
100.0
  1
FLIGHT 2 BELOW
  7
STANDARD
 11
16580.0
 21
-4537.205375083724
 31
0.0
  0
POLYLINE
  8
HIDDEN
 66
1
 10
0.0
 20
0.0
 30
0.0
 70
1
  0
VERTEX
  8
HIDDEN
 10
15200.0
 20
-5257.205375083724
 30
0.0
 70
0
  0
VERTEX
  8
HIDDEN
 10
18000.0
 20
-5257.205375083724
 30
0.0
 70
0
  0
VERTEX
  8
HIDDEN
 10
18000.0
 20
-4057.205375083724
 30
0.0
 70
0
  0
VERTEX
  8
HIDDEN
 10
15200.0
 20
-4057.205375083724
 30
0.0
 70
0
  0
SEQEND
  8
HIDDEN
  0
TEXT
  8
HIDDEN
 10
15320.0
 20
-5097.205375083724
 30
0.0
 40
100.0
  1
LANDING L2 BELOW  -3.367
  7
STANDARD
 11
15120.0
 21
-5097.205375083724
 31
0.0
  0
TEXT
  8
TEXT
 10
15320.0
 20
-847.205375083724
 30
0.0
 40
115.0
  1
FLOOR PAD -2.000
  7
STANDARD
 11
15120.0
 21
-847.205375083724
 31
0.0
  0
TEXT
  8
TEXT
 10
15320.0
 20
-997.205375083724
 30
0.0
 40
110.0
  1
OVER LANDING L1
  7
STANDARD
 11
15120.0
 21
-997.205375083724
 31
0.0
  0
TEXT
  8
TEXT
 10
14120.0
 20
-1457.205375083724
 30
0.0
 40
145.0
  1
HEADHOUSE FLOOR
  7
STANDARD
 11
13920.0
 21
-1457.205375083724
 31
0.0
  0
TEXT
  8
TEXT
 10
14120.0
 20
-1627.205375083724
 30
0.0
 40
120.0
  1
-2.000  =  TOP OF
  7
STANDARD
 11
13920.0
 21
-1627.205375083724
 31
0.0
  0
TEXT
  8
TEXT
 10
14120.0
 20
-1777.205375083724
 30
0.0
 40
120.0
  1
THE PRESSURE SLAB
  7
STANDARD
 11
13920.0
 21
-1777.205375083724
 31
0.0
  0
TEXT
  8
TEXT
 10
14120.0
 20
-1977.205375083724
 30
0.0
 40
110.0
  1
11.15 m2 USABLE
  7
STANDARD
 11
13920.0
 21
-1977.205375083724
 31
0.0
  0
CIRCLE
  8
OPENINGS
 10
14450.0
 20
-3257.205375083724
 30
0.0
 40
150.0
  0
TEXT
  8
TEXT
 10
13873.879185580992
 20
-2963.430900350146
 30
0.0
 40
110.0
  1
HOSE-DOWN POINT
  7
STANDARD
 11
13673.879185580992
 21
-2963.430900350146
 31
0.0
  0
CIRCLE
  8
OPENINGS
 10
14450.0
 20
-3857.205375083724
 30
0.0
 40
90.0
  0
TEXT
  8
TEXT
 10
15000.697158699579
 20
-4197.902533783304
 30
0.0
 40
105.0
  1
FLOOR GULLY, FALL 1:80
  7
STANDARD
 11
14800.697158699579
 21
-4197.902533783304
 31
0.0
  0
TEXT
  8
TEXT
 10
13971.5
 20
-4557.205375083724
 30
0.0
 40
110.0
  1
EQUIPMENT DROP
  7
STANDARD
 11
13771.5
 21
-4557.205375083724
 31
0.0
  0
TEXT
  8
TEXT
 10
14120.0
 20
-4707.205375083724
 30
0.0
 40
110.0
  1
PPE STORE
  7
STANDARD
 11
13920.0
 21
-4707.205375083724
 31
0.0
  0
POLYLINE
  8
OPENINGS
 66
1
 10
0.0
 20
0.0
 30
0.0
 70
1
  0
VERTEX
  8
OPENINGS
 10
14450.0
 20
-257.205375083724
 30
0.0
 70
0
  0
VERTEX
  8
OPENINGS
 10
15350.0
 20
-257.205375083724
 30
0.0
 70
0
  0
VERTEX
  8
OPENINGS
 10
15350.0
 20
142.794624916276
 30
0.0
 70
0
  0
VERTEX
  8
OPENINGS
 10
14450.0
 20
142.794624916276
 30
0.0
 70
0
  0
SEQEND
  8
OPENINGS
  0
ARC
  8
OPENINGS
 10
14450.0
 20
142.794624916276
 30
0.0
 40
900.0
 50
0.0
 51
90.0
  0
LINE
  8
OPENINGS
 10
14450.0
 20
142.794624916276
 30
0.0
 11
14450.0
 21
1042.794624916276
 31
0.0
  0
TEXT
  8
TEXT
 10
12000.0
 20
392.794624916276
 30
0.0
 40
120.0
  1
OUTER SECURITY DOOR
  7
STANDARD
 11
11800.0
 21
392.794624916276
 31
0.0
  0
TEXT
  8
TEXT
 10
12000.0
 20
232.794624916276
 30
0.0
 40
105.0
  1
900 x 2100, NOT BLAST RATED
  7
STANDARD
 11
11800.0
 21
232.794624916276
 31
0.0
  0
POLYLINE
  8
GROUND
 66
1
 10
0.0
 20
0.0
 30
0.0
 70
1
  0
VERTEX
  8
GROUND
 10
14300.0
 20
142.794624916276
 30
0.0
 70
0
  0
VERTEX
  8
GROUND
 10
15800.0
 20
142.794624916276
 30
0.0
 70
0
  0
VERTEX
  8
GROUND
 10
15800.0
 20
1642.794624916276
 30
0.0
 70
0
  0
VERTEX
  8
GROUND
 10
14300.0
 20
1642.794624916276
 30
0.0
 70
0
  0
SEQEND
  8
GROUND
  0
TEXT
  8
TEXT
 10
14380.0
 20
1322.794624916276
 30
0.0
 40
110.0
  1
PLATFORM -2.000
  7
STANDARD
 11
14180.0
 21
1322.794624916276
 31
0.0
  0
TEXT
  8
TEXT
 10
14380.0
 20
1172.794624916276
 30
0.0
 40
100.0
  1
1500 x 1500
  7
STANDARD
 11
14180.0
 21
1172.794624916276
 31
0.0
  0
POLYLINE
  8
GROUND
 66
1
 10
0.0
 20
0.0
 30
0.0
 70
1
  0
VERTEX
  8
GROUND
 10
11000.0
 20
142.794624916276
 30
0.0
 70
0
  0
VERTEX
  8
GROUND
 10
14300.0
 20
142.794624916276
 30
0.0
 70
0
  0
VERTEX
  8
GROUND
 10
14300.0
 20
1642.794624916276
 30
0.0
 70
0
  0
VERTEX
  8
GROUND
 10
11000.0
 20
1642.794624916276
 30
0.0
 70
0
  0
SEQEND
  8
GROUND
  0
LINE
  8
GROUND
 10
14000.0
 20
142.794624916276
 30
0.0
 11
14000.0
 21
1642.794624916276
 31
0.0
  0
LINE
  8
GROUND
 10
13700.0
 20
142.794624916276
 30
0.0
 11
13700.0
 21
1642.794624916276
 31
0.0
  0
LINE
  8
GROUND
 10
13400.0
 20
142.794624916276
 30
0.0
 11
13400.0
 21
1642.794624916276
 31
0.0
  0
LINE
  8
GROUND
 10
13100.0
 20
142.794624916276
 30
0.0
 11
13100.0
 21
1642.794624916276
 31
0.0
  0
LINE
  8
GROUND
 10
12800.0
 20
142.794624916276
 30
0.0
 11
12800.0
 21
1642.794624916276
 31
0.0
  0
LINE
  8
GROUND
 10
12500.0
 20
142.794624916276
 30
0.0
 11
12500.0
 21
1642.794624916276
 31
0.0
  0
LINE
  8
GROUND
 10
12200.0
 20
142.794624916276
 30
0.0
 11
12200.0
 21
1642.794624916276
 31
0.0
  0
LINE
  8
GROUND
 10
11900.0
 20
142.794624916276
 30
0.0
 11
11900.0
 21
1642.794624916276
 31
0.0
  0
LINE
  8
GROUND
 10
11600.0
 20
142.794624916276
 30
0.0
 11
11600.0
 21
1642.794624916276
 31
0.0
  0
LINE
  8
GROUND
 10
11300.0
 20
142.794624916276
 30
0.0
 11
11300.0
 21
1642.794624916276
 31
0.0
  0
LINE
  8
GROUND
 10
11000.0
 20
142.794624916276
 30
0.0
 11
11000.0
 21
1642.794624916276
 31
0.0
  0
POLYLINE
  8
GROUND
 66
1
 10
0.0
 20
0.0
 30
0.0
 70
1
  0
VERTEX
  8
GROUND
 10
9500.0
 20
142.794624916276
 30
0.0
 70
0
  0
VERTEX
  8
GROUND
 10
11000.0
 20
142.794624916276
 30
0.0
 70
0
  0
VERTEX
  8
GROUND
 10
11000.0
 20
1642.794624916276
 30
0.0
 70
0
  0
VERTEX
  8
GROUND
 10
9500.0
 20
1642.794624916276
 30
0.0
 70
0
  0
SEQEND
  8
GROUND
  0
TEXT
  8
TEXT
 10
9590.0
 20
1322.794624916276
 30
0.0
 40
110.0
  1
TOP LANDING
  7
STANDARD
 11
9390.0
 21
1322.794624916276
 31
0.0
  0
TEXT
  8
TEXT
 10
9590.0
 20
1172.794624916276
 30
0.0
 40
100.0
  1
1500 AT 0.000
  7
STANDARD
 11
9390.0
 21
1172.794624916276
 31
0.0
  0
TEXT
  8
TEXT
 10
11000.0
 20
2454.044624916276
 30
0.0
 40
125.0
  1
APPROACH STEPS  12R @ 166.7 / 300 TREAD, 1500 WIDE
  7
STANDARD
 11
10800.0
 21
2454.044624916276
 31
0.0
  0
TEXT
  8
TEXT
 10
11000.0
 20
2912.794624916276
 30
0.0
 40
115.0
  1
GRADE 0.000 DOWN TO -2.000, NOW UNDER A ROOF
  7
STANDARD
 11
10800.0
 21
2912.794624916276
 31
0.0
  0
POLYLINE
  8
WALLS
 66
1
 10
0.0
 20
0.0
 30
0.0
 70
1
  0
VERTEX
  8
WALLS
 10
9250.0
 20
-107.205375083724
 30
0.0
 70
0
  0
VERTEX
  8
WALLS
 10
16050.0
 20
-107.205375083724
 30
0.0
 70
0
  0
VERTEX
  8
WALLS
 10
16050.0
 20
142.794624916276
 30
0.0
 70
0
  0
VERTEX
  8
WALLS
 10
9250.0
 20
142.794624916276
 30
0.0
 70
0
  0
SEQEND
  8
WALLS
  0
POLYLINE
  8
WALLS
 66
1
 10
0.0
 20
0.0
 30
0.0
 70
1
  0
VERTEX
  8
WALLS
 10
9250.0
 20
1642.794624916276
 30
0.0
 70
0
  0
VERTEX
  8
WALLS
 10
16050.0
 20
1642.794624916276
 30
0.0
 70
0
  0
VERTEX
  8
WALLS
 10
16050.0
 20
1892.794624916276
 30
0.0
 70
0
  0
VERTEX
  8
WALLS
 10
9250.0
 20
1892.794624916276
 30
0.0
 70
0
  0
SEQEND
  8
WALLS
  0
POLYLINE
  8
WALLS
 66
1
 10
0.0
 20
0.0
 30
0.0
 70
1
  0
VERTEX
  8
WALLS
 10
9250.0
 20
-107.205375083724
 30
0.0
 70
0
  0
VERTEX
  8
WALLS
 10
9500.0
 20
-107.205375083724
 30
0.0
 70
0
  0
VERTEX
  8
WALLS
 10
9500.0
 20
1892.794624916276
 30
0.0
 70
0
  0
VERTEX
  8
WALLS
 10
9250.0
 20
1892.794624916276
 30
0.0
 70
0
  0
SEQEND
  8
WALLS
  0
POLYLINE
  8
WALLS
 66
1
 10
0.0
 20
0.0
 30
0.0
 70
1
  0
VERTEX
  8
WALLS
 10
15800.0
 20
-107.205375083724
 30
0.0
 70
0
  0
VERTEX
  8
WALLS
 10
16050.0
 20
-107.205375083724
 30
0.0
 70
0
  0
VERTEX
  8
WALLS
 10
16050.0
 20
1892.794624916276
 30
0.0
 70
0
  0
VERTEX
  8
WALLS
 10
15800.0
 20
1892.794624916276
 30
0.0
 70
0
  0
SEQEND
  8
WALLS
  0
POLYLINE
  8
OPENINGS
 66
1
 10
0.0
 20
0.0
 30
0.0
 70
1
  0
VERTEX
  8
OPENINGS
 10
9250.0
 20
392.794624916276
 30
0.0
 70
0
  0
VERTEX
  8
OPENINGS
 10
9500.0
 20
392.794624916276
 30
0.0
 70
0
  0
VERTEX
  8
OPENINGS
 10
9500.0
 20
1392.794624916276
 30
0.0
 70
0
  0
VERTEX
  8
OPENINGS
 10
9250.0
 20
1392.794624916276
 30
0.0
 70
0
  0
SEQEND
  8
OPENINGS
  0
LINE
  8
OPENINGS
 10
8250.0
 20
392.794624916276
 30
0.0
 11
9250.0
 21
392.794624916276
 31
0.0
  0
ARC
  8
OPENINGS
 10
9250.0
 20
392.794624916276
 30
0.0
 40
1000.0
 50
90.0
 51
180.0
  0
TEXT
  8
TEXT
 10
5750.0
 20
1912.794624916276
 30
0.0
 40
125.0
  1
ENTRY DOOR 1000 x 2100
  7
STANDARD
 11
5550.0
 21
1912.794624916276
 31
0.0
  0
TEXT
  8
TEXT
 10
5750.0
 20
1752.794624916276
 30
0.0
 40
110.0
  1
AT GRADE 0.000 IN THE HEADWALL,
  7
STANDARD
 11
5550.0
 21
1752.794624916276
 31
0.0
  0
TEXT
  8
TEXT
 10
5750.0
 20
1592.794624916276
 30
0.0
 40
110.0
  1
OPENS OUTWARD, GROUND FALLS AWAY
  7
STANDARD
 11
5550.0
 21
1592.794624916276
 31
0.0
  0
POLYLINE
  8
OPENINGS
 66
1
 10
0.0
 20
0.0
 30
0.0
 70
1
  0
VERTEX
  8
OPENINGS
 10
8950.0
 20
142.794624916276
 30
0.0
 70
0
  0
VERTEX
  8
OPENINGS
 10
9250.0
 20
142.794624916276
 30
0.0
 70
0
  0
VERTEX
  8
OPENINGS
 10
9250.0
 20
1642.794624916276
 30
0.0
 70
0
  0
VERTEX
  8
OPENINGS
 10
8950.0
 20
1642.794624916276
 30
0.0
 70
0
  0
SEQEND
  8
OPENINGS
  0
TEXT
  8
TEXT
 10
5750.0
 20
-277.205375083724
 30
0.0
 40
110.0
  1
300 CHANNEL AND GRATING ACROSS THE FULL
  7
STANDARD
 11
5550.0
 21
-277.205375083724
 31
0.0
  0
TEXT
  8
TEXT
 10
5750.0
 20
-437.205375083724
 30
0.0
 40
110.0
  1
1500 WIDTH; GROUND FALLS 1:50 FOR 2000
  7
STANDARD
 11
5550.0
 21
-437.205375083724
 31
0.0
  0
POLYLINE
  8
HIDDEN
 66
1
 10
0.0
 20
0.0
 30
0.0
 70
1
  0
VERTEX
  8
HIDDEN
 10
9250.0
 20
-107.205375083724
 30
0.0
 70
0
  0
VERTEX
  8
HIDDEN
 10
16050.0
 20
-107.205375083724
 30
0.0
 70
0
  0
VERTEX
  8
HIDDEN
 10
16050.0
 20
1892.794624916276
 30
0.0
 70
0
  0
VERTEX
  8
HIDDEN
 10
9250.0
 20
1892.794624916276
 30
0.0
 70
0
  0
SEQEND
  8
HIDDEN
  0
TEXT
  8
HIDDEN
 10
9972.317501107666
 20
534.8110401363392
 30
0.0
 40
110.0
  1
250 RC ROOF OVER THE WHOLE STAIRWELL, SOFFIT
  7
STANDARD
 11
9772.317501107666
 21
534.8110401363392
 31
0.0
  0
TEXT
  8
HIDDEN
 10
9620.0
 20
-497.205375083724
 30
0.0
 40
110.0
  1
2200 ABOVE THE FLIGHT - SEE SECTION C-C
  7
STANDARD
 11
9420.0
 21
-497.205375083724
 31
0.0
  0
TEXT
  8
TEXT
 10
9250.0
 20
2112.794624916276
 30
0.0
 40
110.0
  1
250 RC WALLS BOTH SIDES, PROPPED BY THE ROOF
  7
STANDARD
 11
9050.0
 21
2112.794624916276
 31
0.0
  0
LINE
  8
DIM
 10
8550.0
 20
892.794624916276
 30
0.0
 11
14750.0
 21
892.794624916276
 31
0.0
  0
LINE
  8
DIM
 10
14750.0
 20
892.794624916276
 30
0.0
 11
14750.0
 21
392.794624916276
 31
0.0
  0
LINE
  8
DIM
 10
14750.0
 20
392.794624916276
 30
0.0
 11
14630.0
 21
642.794624916276
 31
0.0
  0
LINE
  8
DIM
 10
14750.0
 20
392.794624916276
 30
0.0
 11
14870.0
 21
642.794624916276
 31
0.0
  0
TEXT
  8
TEXT
 10
11200.0
 20
1112.794624916276
 30
0.0
 40
110.0
  1
IN AT GRADE, DOWN 2.000 UNDER COVER,
  7
STANDARD
 11
11000.0
 21
1112.794624916276
 31
0.0
  0
TEXT
  8
TEXT
 10
11200.0
 20
952.794624916276
 30
0.0
 40
110.0
  1
THEN 90 DEG TURN INTO THE HEADHOUSE
  7
STANDARD
 11
11000.0
 21
952.794624916276
 31
0.0
  0
CIRCLE
  8
OPENINGS
 10
14520.0
 20
362.794624916276
 30
0.0
 40
90.0
  0
TEXT
  8
TEXT
 10
16100.0
 20
322.794624916276
 30
0.0
 40
105.0
  1
TRAPPED GULLY -> EXTERNAL SOAKAWAY,
  7
STANDARD
 11
15900.0
 21
322.794624916276
 31
0.0
  0
TEXT
  8
TEXT
 10
16100.0
 20
172.794624916276
 30
0.0
 40
105.0
  1
NEVER TO THE CLEAN SUMP
  7
STANDARD
 11
15900.0
 21
172.794624916276
 31
0.0
  0
CIRCLE
  8
WALLS
 10
19900.0
 20
-3807.205375083724
 30
0.0
 40
950.0
  0
CIRCLE
  8
OPENINGS
 10
19900.0
 20
-3807.205375083724
 30
0.0
 40
700.0
  0
TEXT
  8
TEXT
 10
18750.0
 20
-5307.205375083724
 30
0.0
 40
120.0
  1
ESCAPE SHAFT 2  1400 ID
  7
STANDARD
 11
18550.0
 21
-5307.205375083724
 31
0.0
  0
TEXT
  8
TEXT
 10
18750.0
 20
-5467.205375083724
 30
0.0
 40
115.0
  1
HEAD RAISED 150 -> +0.700
  7
STANDARD
 11
18550.0
 21
-5467.205375083724
 31
0.0
  0
TEXT
  8
TEXT
 10
18750.0
 20
-5627.205375083724
 30
0.0
 40
105.0
  1
BERM GRADED OVER IT - NOTE 3
  7
STANDARD
 11
18550.0
 21
-5627.205375083724
 31
0.0
  0
LINE
  8
DIM
 10
18400.0
 20
-1707.205375083724
 30
0.0
 11
18750.0
 21
-1707.205375083724
 31
0.0
  0
LINE
  8
DIM
 10
18310.0
 20
-1797.205375083724
 30
0.0
 11
18490.0
 21
-1617.205375083724
 31
0.0
  0
LINE
  8
DIM
 10
18400.0
 20
-1887.205375083724
 30
0.0
 11
18400.0
 21
-1527.205375083724
 31
0.0
  0
LINE
  8
DIM
 10
18660.0
 20
-1797.205375083724
 30
0.0
 11
18840.0
 21
-1617.205375083724
 31
0.0
  0
LINE
  8
DIM
 10
18750.0
 20
-1887.205375083724
 30
0.0
 11
18750.0
 21
-1527.205375083724
 31
0.0
  0
TEXT
  8
DIM
 10
18575.0
 20
-1635.205375083724
 30
0.0
 40
120.0
  1
550 ONLY
  7
STANDARD
 72
1
 11
18575.0
 21
-1635.205375083724
 31
0.0
  0
LINE
  8
DIM
 10
13600.0
 20
-8107.205375083724
 30
0.0
 11
18400.0
 21
-8107.205375083724
 31
0.0
  0
LINE
  8
DIM
 10
13510.0
 20
-8197.205375083724
 30
0.0
 11
13690.0
 21
-8017.205375083724
 31
0.0
  0
LINE
  8
DIM
 10
13600.0
 20
-8287.205375083724
 30
0.0
 11
13600.0
 21
-7927.205375083724
 31
0.0
  0
LINE
  8
DIM
 10
18310.0
 20
-8197.205375083724
 30
0.0
 11
18490.0
 21
-8017.205375083724
 31
0.0
  0
LINE
  8
DIM
 10
18400.0
 20
-8287.205375083724
 30
0.0
 11
18400.0
 21
-7927.205375083724
 31
0.0
  0
TEXT
  8
DIM
 10
16000.0
 20
-8035.205375083724
 30
0.0
 40
120.0
  1
4800 HEADHOUSE EXTERNAL
  7
STANDARD
 72
1
 11
16000.0
 21
-8035.205375083724
 31
0.0
  0
LINE
  8
DIM
 10
14000.0
 20
-8707.205375083724
 30
0.0
 11
15200.0
 21
-8707.205375083724
 31
0.0
  0
LINE
  8
DIM
 10
13910.0
 20
-8797.205375083724
 30
0.0
 11
14090.0
 21
-8617.205375083724
 31
0.0
  0
LINE
  8
DIM
 10
14000.0
 20
-8887.205375083724
 30
0.0
 11
14000.0
 21
-8527.205375083724
 31
0.0
  0
LINE
  8
DIM
 10
15110.0
 20
-8797.205375083724
 30
0.0
 11
15290.0
 21
-8617.205375083724
 31
0.0
  0
LINE
  8
DIM
 10
15200.0
 20
-8887.205375083724
 30
0.0
 11
15200.0
 21
-8527.205375083724
 31
0.0
  0
TEXT
  8
DIM
 10
14600.0
 20
-8635.205375083724
 30
0.0
 40
120.0
  1
1200 FLOOR
  7
STANDARD
 72
1
 11
14600.0
 21
-8635.205375083724
 31
0.0
  0
LINE
  8
DIM
 10
15200.0
 20
-8707.205375083724
 30
0.0
 11
18000.0
 21
-8707.205375083724
 31
0.0
  0
LINE
  8
DIM
 10
15110.0
 20
-8797.205375083724
 30
0.0
 11
15290.0
 21
-8617.205375083724
 31
0.0
  0
LINE
  8
DIM
 10
15200.0
 20
-8887.205375083724
 30
0.0
 11
15200.0
 21
-8527.205375083724
 31
0.0
  0
LINE
  8
DIM
 10
17910.0
 20
-8797.205375083724
 30
0.0
 11
18090.0
 21
-8617.205375083724
 31
0.0
  0
LINE
  8
DIM
 10
18000.0
 20
-8887.205375083724
 30
0.0
 11
18000.0
 21
-8527.205375083724
 31
0.0
  0
TEXT
  8
DIM
 10
16600.0
 20
-8635.205375083724
 30
0.0
 40
120.0
  1
2800 SHAFT / VOID
  7
STANDARD
 72
1
 11
16600.0
 21
-8635.205375083724
 31
0.0
  0
LINE
  8
DIM
 10
11450.0
 20
-5657.205375083724
 30
0.0
 11
11450.0
 21
142.794624916276
 31
0.0
  0
LINE
  8
DIM
 10
11360.0
 20
-5747.205375083724
 30
0.0
 11
11540.0
 21
-5567.205375083724
 31
0.0
  0
LINE
  8
DIM
 10
11270.0
 20
-5657.205375083724
 30
0.0
 11
11630.0
 21
-5657.205375083724
 31
0.0
  0
LINE
  8
DIM
 10
11360.0
 20
52.79462491627601
 30
0.0
 11
11540.0
 21
232.794624916276
 31
0.0
  0
LINE
  8
DIM
 10
11270.0
 20
142.794624916276
 30
0.0
 11
11630.0
 21
142.794624916276
 31
0.0
  0
TEXT
  8
DIM
 10
11378.0
 20
-2757.205375083724
 30
0.0
 40
120.0
  1
5800
 50
90.0
  7
STANDARD
 72
1
 11
11378.0
 21
-2757.205375083724
 31
0.0
  0
LINE
  8
DIM
 10
22700.0
 20
-5257.205375083724
 30
0.0
 11
22700.0
 21
-2097.205375083724
 31
0.0
  0
LINE
  8
DIM
 10
22610.0
 20
-5347.205375083724
 30
0.0
 11
22790.0
 21
-5167.205375083724
 31
0.0
  0
LINE
  8
DIM
 10
22520.0
 20
-5257.205375083724
 30
0.0
 11
22880.0
 21
-5257.205375083724
 31
0.0
  0
LINE
  8
DIM
 10
22610.0
 20
-2187.205375083724
 30
0.0
 11
22790.0
 21
-2007.205375083724
 31
0.0
  0
LINE
  8
DIM
 10
22520.0
 20
-2097.205375083724
 30
0.0
 11
22880.0
 21
-2097.205375083724
 31
0.0
  0
TEXT
  8
DIM
 10
22628.0
 20
-3677.205375083724
 30
0.0
 40
120.0
  1
3160 VOID
 50
90.0
  7
STANDARD
 72
1
 11
22628.0
 21
-3677.205375083724
 31
0.0
  0
LINE
  8
DIM
 10
22700.0
 20
-2097.205375083724
 30
0.0
 11
22700.0
 21
-257.205375083724
 31
0.0
  0
LINE
  8
DIM
 10
22610.0
 20
-2187.205375083724
 30
0.0
 11
22790.0
 21
-2007.205375083724
 31
0.0
  0
LINE
  8
DIM
 10
22520.0
 20
-2097.205375083724
 30
0.0
 11
22880.0
 21
-2097.205375083724
 31
0.0
  0
LINE
  8
DIM
 10
22610.0
 20
-347.205375083724
 30
0.0
 11
22790.0
 21
-167.205375083724
 31
0.0
  0
LINE
  8
DIM
 10
22520.0
 20
-257.205375083724
 30
0.0
 11
22880.0
 21
-257.205375083724
 31
0.0
  0
TEXT
  8
DIM
 10
22628.0
 20
-1177.205375083724
 30
0.0
 40
120.0
  1
1840 PAD
 50
90.0
  7
STANDARD
 72
1
 11
22628.0
 21
-1177.205375083724
 31
0.0
  0
LINE
  8
DIM
 10
9250.0
 20
2592.794624916276
 30
0.0
 11
16050.0
 21
2592.794624916276
 31
0.0
  0
LINE
  8
DIM
 10
9160.0
 20
2502.794624916276
 30
0.0
 11
9340.0
 21
2682.794624916276
 31
0.0
  0
LINE
  8
DIM
 10
9250.0
 20
2412.794624916276
 30
0.0
 11
9250.0
 21
2772.794624916276
 31
0.0
  0
LINE
  8
DIM
 10
15960.0
 20
2502.794624916276
 30
0.0
 11
16140.0
 21
2682.794624916276
 31
0.0
  0
LINE
  8
DIM
 10
16050.0
 20
2412.794624916276
 30
0.0
 11
16050.0
 21
2772.794624916276
 31
0.0
  0
TEXT
  8
DIM
 10
12650.0
 20
2664.794624916276
 30
0.0
 40
120.0
  1
6800 COVERED STAIRWELL EXTERNAL
  7
STANDARD
 72
1
 11
12650.0
 21
2664.794624916276
 31
0.0
  0
LINE
  8
DIM
 10
11000.0
 20
3142.794624916276
 30
0.0
 11
15800.0
 21
3142.794624916276
 31
0.0
  0
LINE
  8
DIM
 10
10910.0
 20
3052.794624916276
 30
0.0
 11
11090.0
 21
3232.794624916276
 31
0.0
  0
LINE
  8
DIM
 10
11000.0
 20
2962.794624916276
 30
0.0
 11
11000.0
 21
3322.794624916276
 31
0.0
  0
LINE
  8
DIM
 10
15710.0
 20
3052.794624916276
 30
0.0
 11
15890.0
 21
3232.794624916276
 31
0.0
  0
LINE
  8
DIM
 10
15800.0
 20
2962.794624916276
 30
0.0
 11
15800.0
 21
3322.794624916276
 31
0.0
  0
TEXT
  8
DIM
 10
13400.0
 20
3214.794624916276
 30
0.0
 40
120.0
  1
4800 STAIR + PLATFORM
  7
STANDARD
 72
1
 11
13400.0
 21
3214.794624916276
 31
0.0
  0
TEXT
  8
TEXT
 10
10400.0
 20
-9607.205375083724
 30
0.0
 40
300.0
  1
GROUND PLAN - HEADHOUSE + BERM      SCALE 1:50
  7
STANDARD
 11
10200.0
 21
-9607.205375083724
 31
0.0
  0
TEXT
  8
TEXT
 10
-377.1902210314802
 20
-16425.010214333557
 30
0.0
 40
125.0
  1
1  THE HEADHOUSE FLOOR IS THE TOP OF THE 900 PRESSURE SLAB AT -2.000. IT IS NOT A SEPARATE SLAB.
  7
STANDARD
 11
-577.1902210314802
 21
-16425.010214333557
 31
0.0
  0
TEXT
  8
TEXT
 10
-377.1902210314802
 20
-16655.010214333557
 30
0.0
 40
125.0
  1
2  THE STAIR RISES THROUGH AN OPENING IN THAT SLAB AND LANDS DIRECTLY ON THE FLOOR AT -2.000.
  7
STANDARD
 11
-577.1902210314802
 21
-16655.010214333557
 31
0.0
  0
TEXT
  8
TEXT
 10
-377.1902210314802
 20
-16885.010214333557
 30
0.0
 40
125.0
  1
3  ESCAPE SHAFT 2 HEAD RAISED 150 -> 700 SO THE BERM CAN RUN OVER IT: 550 CLEAR TO THE HEADHOUSE (MOD M1).
  7
STANDARD
 11
-577.1902210314802
 21
-16885.010214333557
 31
0.0
  0
TEXT
  8
TEXT
 10
-377.1902210314802
 20
-17115.010214333557
 30
0.0
 40
125.0
  1
4  PROTECTIVE BOUNDARY IS BLAST DOOR 1 AT THE FOOT OF THE STAIR, NOT THE OUTER DOOR.
  7
STANDARD
 11
-577.1902210314802
 21
-17115.010214333557
 31
0.0
  0
TEXT
  8
TEXT
 10
-377.1902210314802
 20
-17345.010214333557
 30
0.0
 40
125.0
  1
5  ALL DIMENSIONS mm.  LEVELS m RELATIVE TO SITE GRADE 0.000.
  7
STANDARD
 11
-577.1902210314802
 21
-17345.010214333557
 31
0.0
  0
TEXT
  8
TEXT
 10
-577.1902210314802
 20
-17575.010214333557
 30
0.0
 40
120.0
  1
MOD M1 (APPROVED) - W6 AND W7 400 THK; BOX 22000; SHAFT 15200-18000; ESC2 AT X 19900; HEADHOUSE AND COVERED STAIRWELL +200. GEOMETRY REV F + M1.
  7
STANDARD
 11
-577.1902210314802
 21
-17575.010214333557
 31
0.0
  0
LINE
  8
LEADER
 10
15399.968937757818
 20
-2924.124135447266
 30
0.0
 11
15418.453110006587
 21
-2924.124135447266
 31
0.0
  0
LINE
  8
LEADER
 10
15418.453110006587
 20
-2924.124135447266
 30
0.0
 11
15441.044876088414
 21
-3257.898610180844
 31
0.0
  0
LINE
  8
LEADER
 10
14958.697158699579
 20
-4160.382440012372
 30
0.0
 11
15248.149227639758
 21
-4160.382440012372
 31
0.0
  0
LINE
  8
LEADER
 10
15248.149227639758
 20
-4160.382440012372
 30
0.0
 11
15601.923978566645
 21
-3859.685281312793
 31
0.0
  0
LINE
  8
LEADER
 10
9928.317501107666
 20
574.1178050392191
 30
0.0
 11
10683.508818509417
 21
574.1178050392191
 31
0.0
  0
LINE
  8
LEADER
 10
10683.508818509417
 20
574.1178050392191
 30
0.0
 11
11606.520428667114
 21
-297.8986101808441
 31
0.0
  0
LINE
  8
SHEET-BORDER
 10
-1527.1902210314802
 20
-18659.25
 30
0.0
 11
40522.80977896852
 21
-18659.25
 31
0.0
  0
LINE
  8
SHEET-BORDER
 10
40522.80977896852
 20
-18659.25
 30
0.0
 11
40522.80977896852
 21
11040.75
 31
0.0
  0
LINE
  8
SHEET-BORDER
 10
40522.80977896852
 20
11040.75
 30
0.0
 11
-1527.1902210314802
 21
11040.75
 31
0.0
  0
LINE
  8
SHEET-BORDER
 10
-1527.1902210314802
 20
11040.75
 30
0.0
 11
-1527.1902210314802
 21
-18659.25
 31
0.0
  0
LINE
  8
SHEET-BORDER
 10
-1027.1902210314802
 20
-18159.25
 30
0.0
 11
40022.80977896852
 21
-18159.25
 31
0.0
  0
LINE
  8
SHEET-BORDER
 10
40022.80977896852
 20
-18159.25
 30
0.0
 11
40022.80977896852
 21
10540.75
 31
0.0
  0
LINE
  8
SHEET-BORDER
 10
40022.80977896852
 20
10540.75
 30
0.0
 11
-1027.1902210314802
 21
10540.75
 31
0.0
  0
LINE
  8
SHEET-BORDER
 10
-1027.1902210314802
 20
10540.75
 30
0.0
 11
-1027.1902210314802
 21
-18159.25
 31
0.0
  0
LINE
  8
SHEET-TITLEBLOCK
 10
31022.80977896852
 20
-18159.25
 30
0.0
 11
40022.80977896852
 21
-18159.25
 31
0.0
  0
LINE
  8
SHEET-TITLEBLOCK
 10
40022.80977896852
 20
-18159.25
 30
0.0
 11
40022.80977896852
 21
-13159.25
 31
0.0
  0
LINE
  8
SHEET-TITLEBLOCK
 10
40022.80977896852
 20
-13159.25
 30
0.0
 11
31022.80977896852
 21
-13159.25
 31
0.0
  0
LINE
  8
SHEET-TITLEBLOCK
 10
31022.80977896852
 20
-13159.25
 30
0.0
 11
31022.80977896852
 21
-18159.25
 31
0.0
  0
LINE
  8
SHEET-TITLEBLOCK
 10
31022.80977896852
 20
-17159.25
 30
0.0
 11
40022.80977896852
 21
-17159.25
 31
0.0
  0
LINE
  8
SHEET-TITLEBLOCK
 10
31022.80977896852
 20
-16559.25
 30
0.0
 11
40022.80977896852
 21
-16559.25
 31
0.0
  0
LINE
  8
SHEET-TITLEBLOCK
 10
31022.80977896852
 20
-15959.25
 30
0.0
 11
40022.80977896852
 21
-15959.25
 31
0.0
  0
LINE
  8
SHEET-TITLEBLOCK
 10
31022.80977896852
 20
-15359.25
 30
0.0
 11
40022.80977896852
 21
-15359.25
 31
0.0
  0
LINE
  8
SHEET-TITLEBLOCK
 10
31022.80977896852
 20
-14259.25
 30
0.0
 11
40022.80977896852
 21
-14259.25
 31
0.0
  0
LINE
  8
SHEET-TITLEBLOCK
 10
36622.80977896852
 20
-18159.25
 30
0.0
 11
36622.80977896852
 21
-17159.25
 31
0.0
  0
LINE
  8
SHEET-TITLEBLOCK
 10
38322.80977896852
 20
-18159.25
 30
0.0
 11
38322.80977896852
 21
-17159.25
 31
0.0
  0
LINE
  8
SHEET-TITLEBLOCK
 10
35822.80977896852
 20
-17159.25
 30
0.0
 11
35822.80977896852
 21
-16559.25
 31
0.0
  0
TEXT
  8
SHEET-TEXT
 10
31122.80977896852
 20
-17429.25
 30
0.0
 40
70.0
  1
DRAWING No.
 11
31122.80977896852
 21
-17429.25
 31
0.0
  0
TEXT
  8
SHEET-TEXT
 10
31822.80977896852
 20
-17949.25
 30
0.0
 40
220.00000000000003
  1
A-102
 11
31822.80977896852
 21
-17949.25
 31
0.0
  0
TEXT
  8
SHEET-TEXT
 10
36722.80977896852
 20
-17429.25
 30
0.0
 40
70.0
  1
REV
 11
36722.80977896852
 21
-17429.25
 31
0.0
  0
TEXT
  8
SHEET-TEXT
 10
36722.80977896852
 20
-17929.25
 30
0.0
 40
140.0
  1
F + M1
 11
36722.80977896852
 21
-17929.25
 31
0.0
  0
TEXT
  8
SHEET-TEXT
 10
38422.80977896852
 20
-17429.25
 30
0.0
 40
70.0
  1
SHEET
 11
38422.80977896852
 21
-17429.25
 31
0.0
  0
TEXT
  8
SHEET-TEXT
 10
38422.80977896852
 20
-17909.25
 30
0.0
 40
95.0
  1
2 OF 10
 11
38422.80977896852
 21
-17909.25
 31
0.0
  0
TEXT
  8
SHEET-TEXT
 10
31122.80977896852
 20
-16939.25
 30
0.0
 40
95.0
  1
SCALE   1:50 AT A1
 11
31122.80977896852
 21
-16939.25
 31
0.0
  0
TEXT
  8
SHEET-TEXT
 10
35922.80977896852
 20
-16939.25
 30
0.0
 40
95.0
  1
DATE   09.09.2026
 11
35922.80977896852
 21
-16939.25
 31
0.0
  0
TEXT
  8
SHEET-TEXT
 10
31122.80977896852
 20
-16339.25
 30
0.0
 40
75.0
  1
DRAWN  [PLACEHOLDER]
 11
31122.80977896852
 21
-16339.25
 31
0.0
  0
TEXT
  8
SHEET-TEXT
 10
34122.80977896852
 20
-16339.25
 30
0.0
 40
75.0
  1
CHECKED  [PLACEHOLDER]
 11
34122.80977896852
 21
-16339.25
 31
0.0
  0
TEXT
  8
SHEET-TEXT
 10
37122.80977896852
 20
-16339.25
 30
0.0
 40
75.0
  1
APPROVED  [PLACEHOLDER]
 11
37122.80977896852
 21
-16339.25
 31
0.0
  0
TEXT
  8
SHEET-TEXT
 10
31122.80977896852
 20
-15739.25
 30
0.0
 40
70.0
  1
STATUS
 11
31122.80977896852
 21
-15739.25
 31
0.0
  0
TEXT
  8
SHEET-TEXT
 10
32122.80977896852
 20
-15759.25
 30
0.0
 40
95.0
  1
FOR REVIEW - NOT FOR CONSTRUCTION
 11
32122.80977896852
 21
-15759.25
 31
0.0
  0
TEXT
  8
SHEET-TEXT
 10
31122.80977896852
 20
-14489.25
 30
0.0
 40
70.0
  1
DRAWING TITLE
 11
31122.80977896852
 21
-14489.25
 31
0.0
  0
TEXT
  8
SHEET-TEXT
 10
31122.80977896852
 20
-14889.25
 30
0.0
 40
120.0
  1
GROUND LEVEL PLAN - HEADHOUSE AND BERM
 11
31122.80977896852
 21
-14889.25
 31
0.0
  0
TEXT
  8
SHEET-TEXT
 10
31122.80977896852
 20
-15219.25
 30
0.0
 40
75.0
  1
GRADE 0.000 - HEADHOUSE, COVERED STAIRWELL, ENGINEERED COVER
 11
31122.80977896852
 21
-15219.25
 31
0.0
  0
TEXT
  8
SHEET-TEXT
 10
31122.80977896852
 20
-13399.25
 30
0.0
 40
70.0
  1
PROJECT
 11
31122.80977896852
 21
-13399.25
 31
0.0
  0
TEXT
  8
SHEET-TEXT
 10
31122.80977896852
 20
-13679.25
 30
0.0
 40
95.0
  1
UNDERGROUND CBRN-HARDENED BLAST-RESISTANT
 11
31122.80977896852
 21
-13679.25
 31
0.0
  0
TEXT
  8
SHEET-TEXT
 10
31122.80977896852
 20
-13909.25
 30
0.0
 40
95.0
  1
PROTECTIVE STRUCTURE  -  PUNE, MAHARASHTRA
 11
31122.80977896852
 21
-13909.25
 31
0.0
  0
TEXT
  8
SHEET-TEXT
 10
31122.80977896852
 20
-14149.25
 30
0.0
 40
75.0
  1
ARCHITECTURAL REV F  +  MODIFICATION M1
 11
31122.80977896852
 21
-14149.25
 31
0.0
  0
TEXT
  8
SHEET-TEXT
 10
-927.1902210314802
 20
10165.75
 30
0.0
 40
160.0
  1
A-102   GROUND LEVEL PLAN - HEADHOUSE AND BERM
 11
-927.1902210314802
 21
10165.75
 31
0.0
  0
LINE
  8
SHEET-BORDER
 10
-1027.1902210314802
 20
10015.75
 30
0.0
 11
40022.80977896852
 21
10015.75
 31
0.0
  0
TEXT
  8
SHEET-TEXT
 10
-927.1902210314802
 20
-18034.25
 30
0.0
 40
75.0
  1
QA1  09.09.2026   DRAWING QA/QC - ANNOTATION POSITIONS, SHEET FRAME AND TITLE BLOCK.  NO GEOMETRY, DIMENSION OR VALUE CHANGED.
 11
-927.1902210314802
 21
-18034.25
 31
0.0
  0
LINE
  8
SHEET-BORDER
 10
-727.1902210314802
 20
-17759.25
 30
0.0
 11
13668.42933690556
 21
-17759.25
 31
0.0
  0
LINE
  8
SHEET-BORDER
 10
13668.42933690556
 20
-17759.25
 30
0.0
 11
13668.42933690556
 21
-15850.010214333555
 31
0.0
  0
LINE
  8
SHEET-BORDER
 10
13668.42933690556
 20
-15850.010214333555
 30
0.0
 11
-727.1902210314802
 21
-15850.010214333555
 31
0.0
  0
LINE
  8
SHEET-BORDER
 10
-727.1902210314802
 20
-15850.010214333555
 30
0.0
 11
-727.1902210314802
 21
-17759.25
 31
0.0
  0
TEXT
  8
SHEET-TEXT
 10
-577.1902210314802
 20
-16120.010214333555
 30
0.0
 40
130.0
  1
NOTES
 11
-577.1902210314802
 21
-16120.010214333555
 31
0.0
  0
ENDSEC
  0
EOF
