  0
SECTION
  2
HEADER
  9
$ACADVER
  1
AC1009
  9
$DWGCODEPAGE
  3
ANSI_1252
  9
$EXTMIN
 10
1e+20
 20
1e+20
 30
1e+20
  9
$EXTMAX
 10
-1e+20
 20
-1e+20
 30
-1e+20
  9
$LIMMIN
 10
0.0
 20
0.0
  9
$LIMMAX
 10
420.0
 20
297.0
  9
$LTSCALE
 40
25.0
  9
$LIMCHECK
 70
0
  9
$TDCREATE
 40
2461293.7117592595
  9
$TDUPDATE
 40
2461293.7117592595
  9
$PEXTMIN
 10
1e+20
 20
1e+20
 30
1e+20
  9
$PEXTMAX
 10
-1e+20
 20
-1e+20
 30
-1e+20
  9
$PLIMMIN
 10
0.0
 20
0.0
  9
$PLIMMAX
 10
420.0
 20
297.0
  0
ENDSEC
  0
SECTION
  2
TABLES
  0
TABLE
  2
VPORT
 70
1
  0
VPORT
  2
*Active
 70
0
 10
0.0
 20
0.0
 11
1.0
 21
1.0
 12
0.0
 22
0.0
 13
0.0
 23
0.0
 14
0.5
 24
0.5
 15
0.5
 25
0.5
 16
0.0
 26
0.0
 36
1.0
 17
0.0
 27
0.0
 37
0.0
 40
1000.0
 41
1.34
 42
50.0
 43
0.0
 44
0.0
 50
0.0
 51
0.0
 71
0
 72
1000
 73
1
 74
3
 75
0
 76
0
 77
0
 78
0
  0
ENDTAB
  0
TABLE
  2
LTYPE
 70
5
  0
LTYPE
  2
CONTINUOUS
 70
0
  3
Solid line
 72
65
 73
0
 40
0.0
  0
LTYPE
  2
DASHED
 70
0
  3
Dashed __ __ __
 72
65
 73
2
 40
15.0
 49
10.0
 49
-5.0
  0
LTYPE
  2
CENTER
 70
0
  3
Centre ____ _ ____
 72
65
 73
4
 40
50.0
 49
32.0
 49
-6.0
 49
6.0
 49
-6.0
  0
LTYPE
  2
ByBlock
 70
0
  3

 72
65
 73
0
 40
0.0
  0
LTYPE
  2
ByLayer
 70
0
  3

 72
65
 73
0
 40
0.0
  0
ENDTAB
  0
TABLE
  2
LAYER
 70
15
  0
LAYER
  2
0
 70
0
 62
7
  6
CONTINUOUS
  0
LAYER
  2
WALLS
 70
0
 62
7
  6
CONTINUOUS
  0
LAYER
  2
OPENINGS
 70
0
 62
1
  6
CONTINUOUS
  0
LAYER
  2
STAIRS
 70
0
 62
3
  6
CONTINUOUS
  0
LAYER
  2
GROUND
 70
0
 62
42
  6
CONTINUOUS
  0
LAYER
  2
TEXT
 70
0
 62
2
  6
CONTINUOUS
  0
LAYER
  2
DIM
 70
0
 62
4
  6
CONTINUOUS
  0
LAYER
  2
HIDDEN
 70
0
 62
8
  6
DASHED
  0
LAYER
  2
CENTRE
 70
0
 62
6
  6
CENTER
  0
LAYER
  2
BEYOND
 70
0
 62
9
  6
CONTINUOUS
  0
LAYER
  2
Defpoints
 70
0
 62
7
  6
Continuous
  0
LAYER
  2
LEADER
 70
0
 62
7
  6
Continuous
  0
LAYER
  2
SHEET-BORDER
 70
0
 62
7
  6
Continuous
  0
LAYER
  2
SHEET-TITLEBLOCK
 70
0
 62
7
  6
Continuous
  0
LAYER
  2
SHEET-TEXT
 70
0
 62
7
  6
Continuous
  0
ENDTAB
  0
TABLE
  2
STYLE
 70
1
  0
STYLE
  2
STANDARD
 70
0
 40
0.0
 41
1.0
 50
0.0
 71
0
 42
2.5
  3
txt
  4

  0
ENDTAB
  0
TABLE
  2
VIEW
 70
0
  0
ENDTAB
  0
TABLE
  2
UCS
 70
0
  0
ENDTAB
  0
TABLE
  2
APPID
 70
3
  0
APPID
  2
ACAD
 70
0
  0
APPID
  2
HATCHBACKGROUNDCOLOR
 70
0
  0
APPID
  2
EZDXF
 70
0
  0
ENDTAB
  0
TABLE
  2
DIMSTYLE
 70
1
  0
DIMSTYLE
  2
Standard
 70
0
  3

  4

  5

  6

  7

 40
1.0
 41
2.5
 42
0.625
 43
3.75
 44
1.25
 45
0.0
 46
0.0
 47
0.0
 48
0.0
140
2.5
141
2.5
142
0.0
143
0.03937007874
144
1.0
145
0.0
146
1.0
147
0.625
 71
0
 72
0
 73
0
 74
0
 75
0
 76
0
 77
1
 78
8
170
0
171
3
172
1
173
0
174
0
175
0
176
0
177
0
178
0
  0
ENDTAB
  0
ENDSEC
  0
SECTION
  2
BLOCKS
  0
BLOCK
  8
0
  2
$Model_Space
 70
0
 10
0.0
 20
0.0
 30
0.0
  3
$Model_Space
  1

1001
EZDXF
1000
WRITTEN_BY_EZDXF
1000
1.4.4 @ 2026-09-09T17:04:56.294989+00:00
  0
ENDBLK
  8
0
  0
BLOCK
  8
0
  2
$Paper_Space
 70
0
 10
0.0
 20
0.0
 30
0.0
  3
$Paper_Space
  1

  0
ENDBLK
  8
0
  0
ENDSEC
  0
SECTION
  2
ENTITIES
  0
POLYLINE
  8
GROUND
 66
1
 10
0.0
 20
0.0
 30
0.0
 70
0
  0
VERTEX
  8
GROUND
 10
-4000.0
 20
-6681.880107166779
 30
0.0
 70
0
  0
VERTEX
  8
GROUND
 10
12250.0
 20
-6681.880107166779
 30
0.0
 70
0
  0
VERTEX
  8
GROUND
 10
13600.0
 20
-5781.880107166779
 30
0.0
 70
0
  0
VERTEX
  8
GROUND
 10
18400.0
 20
-5781.880107166779
 30
0.0
 70
0
  0
VERTEX
  8
GROUND
 10
18950.0
 20
-5981.880107166779
 30
0.0
 70
0
  0
VERTEX
  8
GROUND
 10
20850.0
 20
-5981.880107166779
 30
0.0
 70
0
  0
VERTEX
  8
GROUND
 10
21900.0
 20
-6681.880107166779
 30
0.0
 70
0
  0
VERTEX
  8
GROUND
 10
26000.0
 20
-6681.880107166779
 30
0.0
 70
0
  0
SEQEND
  8
GROUND
  0
TEXT
  8
GROUND
 10
9850.0
 20
-6631.880107166779
 30
0.0
 40
120.0
  1
BERM 1.5:1
  7
STANDARD
 11
9650.0
 21
-6631.880107166779
 31
0.0
  0
LINE
  8
HIDDEN
 10
-4000.0
 20
-8431.88010716678
 30
0.0
 11
26000.0
 21
-8431.88010716678
 31
0.0
  0
TEXT
  8
GROUND
 10
-5420.0
 20
-8731.88010716678
 30
0.0
 40
120.0
  1
ROCKHEAD -1.500 / -2.000 (ASSUMED)
  7
STANDARD
 11
-5420.0
 21
-8731.88010716678
 31
0.0
  0
LINE
  8
HIDDEN
 10
-4000.0
 20
-13481.88010716678
 30
0.0
 11
26000.0
 21
-13481.88010716678
 31
0.0
  0
POLYLINE
  8
GROUND
 66
1
 10
0.0
 20
0.0
 30
0.0
 70
1
  0
VERTEX
  8
GROUND
 10
0.0
 20
-8681.88010716678
 30
0.0
 70
0
  0
VERTEX
  8
GROUND
 10
1100.0
 20
-8681.88010716678
 30
0.0
 70
0
  0
VERTEX
  8
GROUND
 10
1100.0
 20
-6681.880107166779
 30
0.0
 70
0
  0
VERTEX
  8
GROUND
 10
0.0
 20
-6681.880107166779
 30
0.0
 70
0
  0
SEQEND
  8
GROUND
  0
LINE
  8
GROUND
 10
0.0
 20
-7131.880107166779
 30
0.0
 11
1100.0
 21
-7131.880107166779
 31
0.0
  0
LINE
  8
GROUND
 10
0.0
 20
-7331.880107166779
 30
0.0
 11
1100.0
 21
-7331.880107166779
 31
0.0
  0
POLYLINE
  8
GROUND
 66
1
 10
0.0
 20
0.0
 30
0.0
 70
1
  0
VERTEX
  8
GROUND
 10
3000.0
 20
-8681.88010716678
 30
0.0
 70
0
  0
VERTEX
  8
GROUND
 10
13600.0
 20
-8681.88010716678
 30
0.0
 70
0
  0
VERTEX
  8
GROUND
 10
13600.0
 20
-6681.880107166779
 30
0.0
 70
0
  0
VERTEX
  8
GROUND
 10
3000.0
 20
-6681.880107166779
 30
0.0
 70
0
  0
SEQEND
  8
GROUND
  0
LINE
  8
GROUND
 10
3000.0
 20
-7131.880107166779
 30
0.0
 11
13600.0
 21
-7131.880107166779
 31
0.0
  0
LINE
  8
GROUND
 10
3000.0
 20
-7331.880107166779
 30
0.0
 11
13600.0
 21
-7331.880107166779
 31
0.0
  0
POLYLINE
  8
GROUND
 66
1
 10
0.0
 20
0.0
 30
0.0
 70
1
  0
VERTEX
  8
GROUND
 10
18400.0
 20
-8681.88010716678
 30
0.0
 70
0
  0
VERTEX
  8
GROUND
 10
18950.0
 20
-8681.88010716678
 30
0.0
 70
0
  0
VERTEX
  8
GROUND
 10
18950.0
 20
-6681.880107166779
 30
0.0
 70
0
  0
VERTEX
  8
GROUND
 10
18400.0
 20
-6681.880107166779
 30
0.0
 70
0
  0
SEQEND
  8
GROUND
  0
LINE
  8
GROUND
 10
18400.0
 20
-7131.880107166779
 30
0.0
 11
18950.0
 21
-7131.880107166779
 31
0.0
  0
LINE
  8
GROUND
 10
18400.0
 20
-7331.880107166779
 30
0.0
 11
18950.0
 21
-7331.880107166779
 31
0.0
  0
POLYLINE
  8
GROUND
 66
1
 10
0.0
 20
0.0
 30
0.0
 70
1
  0
VERTEX
  8
GROUND
 10
20850.0
 20
-8681.88010716678
 30
0.0
 70
0
  0
VERTEX
  8
GROUND
 10
22000.0
 20
-8681.88010716678
 30
0.0
 70
0
  0
VERTEX
  8
GROUND
 10
22000.0
 20
-6681.880107166779
 30
0.0
 70
0
  0
VERTEX
  8
GROUND
 10
20850.0
 20
-6681.880107166779
 30
0.0
 70
0
  0
SEQEND
  8
GROUND
  0
LINE
  8
GROUND
 10
20850.0
 20
-7131.880107166779
 30
0.0
 11
22000.0
 21
-7131.880107166779
 31
0.0
  0
LINE
  8
GROUND
 10
20850.0
 20
-7331.880107166779
 30
0.0
 11
22000.0
 21
-7331.880107166779
 31
0.0
  0
TEXT
  8
GROUND
 10
7000.0
 20
-7241.880107166779
 30
0.0
 40
120.0
  1
200 RC BURSTER SLAB
  7
STANDARD
 11
7000.0
 21
-7241.880107166779
 31
0.0
  0
TEXT
  8
GROUND
 10
7000.0
 20
-8181.880107166779
 30
0.0
 40
120.0
  1
2000 ENGINEERED COVER
  7
STANDARD
 11
7000.0
 21
-8181.880107166779
 31
0.0
  0
POLYLINE
  8
WALLS
 66
1
 10
0.0
 20
0.0
 30
0.0
 70
1
  0
VERTEX
  8
WALLS
 10
0.0
 20
-9581.88010716678
 30
0.0
 70
0
  0
VERTEX
  8
WALLS
 10
1350.0
 20
-9581.88010716678
 30
0.0
 70
0
  0
VERTEX
  8
WALLS
 10
1350.0
 20
-8681.88010716678
 30
0.0
 70
0
  0
VERTEX
  8
WALLS
 10
0.0
 20
-8681.88010716678
 30
0.0
 70
0
  0
SEQEND
  8
WALLS
  0
POLYLINE
  8
WALLS
 66
1
 10
0.0
 20
0.0
 30
0.0
 70
1
  0
VERTEX
  8
WALLS
 10
2750.0
 20
-9581.88010716678
 30
0.0
 70
0
  0
VERTEX
  8
WALLS
 10
15200.0
 20
-9581.88010716678
 30
0.0
 70
0
  0
VERTEX
  8
WALLS
 10
15200.0
 20
-8681.88010716678
 30
0.0
 70
0
  0
VERTEX
  8
WALLS
 10
2750.0
 20
-8681.88010716678
 30
0.0
 70
0
  0
SEQEND
  8
WALLS
  0
POLYLINE
  8
WALLS
 66
1
 10
0.0
 20
0.0
 30
0.0
 70
1
  0
VERTEX
  8
WALLS
 10
18000.0
 20
-9581.88010716678
 30
0.0
 70
0
  0
VERTEX
  8
WALLS
 10
19200.0
 20
-9581.88010716678
 30
0.0
 70
0
  0
VERTEX
  8
WALLS
 10
19200.0
 20
-8681.88010716678
 30
0.0
 70
0
  0
VERTEX
  8
WALLS
 10
18000.0
 20
-8681.88010716678
 30
0.0
 70
0
  0
SEQEND
  8
WALLS
  0
POLYLINE
  8
WALLS
 66
1
 10
0.0
 20
0.0
 30
0.0
 70
1
  0
VERTEX
  8
WALLS
 10
20600.0
 20
-9581.88010716678
 30
0.0
 70
0
  0
VERTEX
  8
WALLS
 10
22000.0
 20
-9581.88010716678
 30
0.0
 70
0
  0
VERTEX
  8
WALLS
 10
22000.0
 20
-8681.88010716678
 30
0.0
 70
0
  0
VERTEX
  8
WALLS
 10
20600.0
 20
-8681.88010716678
 30
0.0
 70
0
  0
SEQEND
  8
WALLS
  0
POLYLINE
  8
WALLS
 66
1
 10
0.0
 20
0.0
 30
0.0
 70
1
  0
VERTEX
  8
WALLS
 10
0.0
 20
-13381.88010716678
 30
0.0
 70
0
  0
VERTEX
  8
WALLS
 10
22000.0
 20
-13381.88010716678
 30
0.0
 70
0
  0
VERTEX
  8
WALLS
 10
22000.0
 20
-12781.88010716678
 30
0.0
 70
0
  0
VERTEX
  8
WALLS
 10
0.0
 20
-12781.88010716678
 30
0.0
 70
0
  0
SEQEND
  8
WALLS
  0
POLYLINE
  8
WALLS
 66
1
 10
0.0
 20
0.0
 30
0.0
 70
1
  0
VERTEX
  8
WALLS
 10
0.0
 20
-13481.88010716678
 30
0.0
 70
0
  0
VERTEX
  8
WALLS
 10
22000.0
 20
-13481.88010716678
 30
0.0
 70
0
  0
VERTEX
  8
WALLS
 10
22000.0
 20
-13381.88010716678
 30
0.0
 70
0
  0
VERTEX
  8
WALLS
 10
0.0
 20
-13381.88010716678
 30
0.0
 70
0
  0
SEQEND
  8
WALLS
  0
POLYLINE
  8
WALLS
 66
1
 10
0.0
 20
0.0
 30
0.0
 70
1
  0
VERTEX
  8
WALLS
 10
0.0
 20
-9581.88010716678
 30
0.0
 70
0
  0
VERTEX
  8
WALLS
 10
600.0
 20
-9581.88010716678
 30
0.0
 70
0
  0
VERTEX
  8
WALLS
 10
600.0
 20
-12781.88010716678
 30
0.0
 70
0
  0
VERTEX
  8
WALLS
 10
0.0
 20
-12781.88010716678
 30
0.0
 70
0
  0
SEQEND
  8
WALLS
  0
POLYLINE
  8
WALLS
 66
1
 10
0.0
 20
0.0
 30
0.0
 70
1
  0
VERTEX
  8
WALLS
 10
21400.0
 20
-9581.88010716678
 30
0.0
 70
0
  0
VERTEX
  8
WALLS
 10
22000.0
 20
-9581.88010716678
 30
0.0
 70
0
  0
VERTEX
  8
WALLS
 10
22000.0
 20
-12781.88010716678
 30
0.0
 70
0
  0
VERTEX
  8
WALLS
 10
21400.0
 20
-12781.88010716678
 30
0.0
 70
0
  0
SEQEND
  8
WALLS
  0
POLYLINE
  8
WALLS
 66
1
 10
0.0
 20
0.0
 30
0.0
 70
1
  0
VERTEX
  8
WALLS
 10
3500.0
 20
-9581.88010716678
 30
0.0
 70
0
  0
VERTEX
  8
WALLS
 10
3610.0
 20
-9581.88010716678
 30
0.0
 70
0
  0
VERTEX
  8
WALLS
 10
3610.0
 20
-12781.88010716678
 30
0.0
 70
0
  0
VERTEX
  8
WALLS
 10
3500.0
 20
-12781.88010716678
 30
0.0
 70
0
  0
SEQEND
  8
WALLS
  0
POLYLINE
  8
WALLS
 66
1
 10
0.0
 20
0.0
 30
0.0
 70
1
  0
VERTEX
  8
WALLS
 10
5410.0
 20
-9581.88010716678
 30
0.0
 70
0
  0
VERTEX
  8
WALLS
 10
5520.0
 20
-9581.88010716678
 30
0.0
 70
0
  0
VERTEX
  8
WALLS
 10
5520.0
 20
-12781.88010716678
 30
0.0
 70
0
  0
VERTEX
  8
WALLS
 10
5410.0
 20
-12781.88010716678
 30
0.0
 70
0
  0
SEQEND
  8
WALLS
  0
POLYLINE
  8
WALLS
 66
1
 10
0.0
 20
0.0
 30
0.0
 70
1
  0
VERTEX
  8
WALLS
 10
9020.0
 20
-9581.88010716678
 30
0.0
 70
0
  0
VERTEX
  8
WALLS
 10
9130.0
 20
-9581.88010716678
 30
0.0
 70
0
  0
VERTEX
  8
WALLS
 10
9130.0
 20
-12781.88010716678
 30
0.0
 70
0
  0
VERTEX
  8
WALLS
 10
9020.0
 20
-12781.88010716678
 30
0.0
 70
0
  0
SEQEND
  8
WALLS
  0
POLYLINE
  8
WALLS
 66
1
 10
0.0
 20
0.0
 30
0.0
 70
1
  0
VERTEX
  8
WALLS
 10
10930.0
 20
-9581.88010716678
 30
0.0
 70
0
  0
VERTEX
  8
WALLS
 10
11040.0
 20
-9581.88010716678
 30
0.0
 70
0
  0
VERTEX
  8
WALLS
 10
11040.0
 20
-12781.88010716678
 30
0.0
 70
0
  0
VERTEX
  8
WALLS
 10
10930.0
 20
-12781.88010716678
 30
0.0
 70
0
  0
SEQEND
  8
WALLS
  0
POLYLINE
  8
WALLS
 66
1
 10
0.0
 20
0.0
 30
0.0
 70
1
  0
VERTEX
  8
WALLS
 10
12600.0
 20
-9581.88010716678
 30
0.0
 70
0
  0
VERTEX
  8
WALLS
 10
12800.0
 20
-9581.88010716678
 30
0.0
 70
0
  0
VERTEX
  8
WALLS
 10
12800.0
 20
-12781.88010716678
 30
0.0
 70
0
  0
VERTEX
  8
WALLS
 10
12600.0
 20
-12781.88010716678
 30
0.0
 70
0
  0
SEQEND
  8
WALLS
  0
POLYLINE
  8
WALLS
 66
1
 10
0.0
 20
0.0
 30
0.0
 70
1
  0
VERTEX
  8
WALLS
 10
14800.0
 20
-12781.88010716678
 30
0.0
 70
0
  0
VERTEX
  8
WALLS
 10
15200.0
 20
-12781.88010716678
 30
0.0
 70
0
  0
VERTEX
  8
WALLS
 10
15200.0
 20
-8681.88010716678
 30
0.0
 70
0
  0
VERTEX
  8
WALLS
 10
14800.0
 20
-8681.88010716678
 30
0.0
 70
0
  0
SEQEND
  8
WALLS
  0
POLYLINE
  8
WALLS
 66
1
 10
0.0
 20
0.0
 30
0.0
 70
1
  0
VERTEX
  8
WALLS
 10
18000.0
 20
-12781.88010716678
 30
0.0
 70
0
  0
VERTEX
  8
WALLS
 10
18400.0
 20
-12781.88010716678
 30
0.0
 70
0
  0
VERTEX
  8
WALLS
 10
18400.0
 20
-8681.88010716678
 30
0.0
 70
0
  0
VERTEX
  8
WALLS
 10
18000.0
 20
-8681.88010716678
 30
0.0
 70
0
  0
SEQEND
  8
WALLS
  0
POLYLINE
  8
WALLS
 66
1
 10
0.0
 20
0.0
 30
0.0
 70
1
  0
VERTEX
  8
WALLS
 10
13600.0
 20
-8681.88010716678
 30
0.0
 70
0
  0
VERTEX
  8
WALLS
 10
14000.0
 20
-8681.88010716678
 30
0.0
 70
0
  0
VERTEX
  8
WALLS
 10
14000.0
 20
-6281.880107166779
 30
0.0
 70
0
  0
VERTEX
  8
WALLS
 10
13600.0
 20
-6281.880107166779
 30
0.0
 70
0
  0
SEQEND
  8
WALLS
  0
POLYLINE
  8
WALLS
 66
1
 10
0.0
 20
0.0
 30
0.0
 70
1
  0
VERTEX
  8
WALLS
 10
18000.0
 20
-8681.88010716678
 30
0.0
 70
0
  0
VERTEX
  8
WALLS
 10
18400.0
 20
-8681.88010716678
 30
0.0
 70
0
  0
VERTEX
  8
WALLS
 10
18400.0
 20
-6281.880107166779
 30
0.0
 70
0
  0
VERTEX
  8
WALLS
 10
18000.0
 20
-6281.880107166779
 30
0.0
 70
0
  0
SEQEND
  8
WALLS
  0
POLYLINE
  8
WALLS
 66
1
 10
0.0
 20
0.0
 30
0.0
 70
1
  0
VERTEX
  8
WALLS
 10
13600.0
 20
-6281.880107166779
 30
0.0
 70
0
  0
VERTEX
  8
WALLS
 10
18400.0
 20
-6281.880107166779
 30
0.0
 70
0
  0
VERTEX
  8
WALLS
 10
18400.0
 20
-5781.880107166779
 30
0.0
 70
0
  0
VERTEX
  8
WALLS
 10
13600.0
 20
-5781.880107166779
 30
0.0
 70
0
  0
SEQEND
  8
WALLS
  0
POLYLINE
  8
STAIRS
 66
1
 10
0.0
 20
0.0
 30
0.0
 70
1
  0
VERTEX
  8
STAIRS
 10
14000.0
 20
-8781.88010716678
 30
0.0
 70
0
  0
VERTEX
  8
STAIRS
 10
15200.0
 20
-8781.88010716678
 30
0.0
 70
0
  0
VERTEX
  8
STAIRS
 10
15200.0
 20
-8681.88010716678
 30
0.0
 70
0
  0
VERTEX
  8
STAIRS
 10
14000.0
 20
-8681.88010716678
 30
0.0
 70
0
  0
SEQEND
  8
STAIRS
  0
POLYLINE
  8
BEYOND
 66
1
 10
0.0
 20
0.0
 30
0.0
 70
0
  0
VERTEX
  8
BEYOND
 10
9250.0
 20
-6681.880107166779
 30
0.0
 70
0
  0
VERTEX
  8
BEYOND
 10
9250.0
 20
-4231.880107166779
 30
0.0
 70
0
  0
VERTEX
  8
BEYOND
 10
11000.0
 20
-4231.880107166779
 30
0.0
 70
0
  0
VERTEX
  8
BEYOND
 10
13600.0
 20
-5781.880107166779
 30
0.0
 70
0
  0
SEQEND
  8
BEYOND
  0
LINE
  8
BEYOND
 10
9250.0
 20
-4481.880107166779
 30
0.0
 11
11000.0
 21
-4481.880107166779
 31
0.0
  0
LINE
  8
BEYOND
 10
11000.0
 20
-4481.880107166779
 30
0.0
 11
13600.0
 21
-6281.880107166779
 31
0.0
  0
LINE
  8
BEYOND
 10
9250.0
 20
-6681.880107166779
 30
0.0
 11
10600.0
 21
-5781.880107166779
 31
0.0
  0
LINE
  8
BEYOND
 10
10600.0
 20
-5781.880107166779
 30
0.0
 11
13600.0
 21
-5781.880107166779
 31
0.0
  0
TEXT
  8
GROUND
 10
10800.0
 20
-5601.880107166779
 30
0.0
 40
120.0
  1
MOUND BEYOND +0.900 AGAINST THE STAIRWELL WALLS
  7
STANDARD
 11
10600.0
 21
-5601.880107166779
 31
0.0
  0
POLYLINE
  8
OPENINGS
 66
1
 10
0.0
 20
0.0
 30
0.0
 70
1
  0
VERTEX
  8
OPENINGS
 10
9250.0
 20
-6681.880107166779
 30
0.0
 70
0
  0
VERTEX
  8
OPENINGS
 10
9450.0
 20
-6681.880107166779
 30
0.0
 70
0
  0
VERTEX
  8
OPENINGS
 10
9450.0
 20
-4581.880107166779
 30
0.0
 70
0
  0
VERTEX
  8
OPENINGS
 10
9250.0
 20
-4581.880107166779
 30
0.0
 70
0
  0
SEQEND
  8
OPENINGS
  0
TEXT
  8
TEXT
 10
5650.0
 20
-3277.8801071667795
 30
0.0
 40
120.0
  1
COVERED ENTRY STAIRWELL - REV F, BEYOND THIS CUT
  7
STANDARD
 11
5650.0
 21
-3277.8801071667795
 31
0.0
  0
TEXT
  8
TEXT
 10
5650.0
 20
-3099.8801071667795
 30
0.0
 40
120.0
  1
ENTRY DOOR 1000 x 2100 AT GRADE 0.000, THEN 12R @ 166.7
  7
STANDARD
 11
5650.0
 21
-3099.8801071667795
 31
0.0
  0
TEXT
  8
TEXT
 10
5599.932071853394
 20
-3752.1088632112387
 30
0.0
 40
120.0
  1
DOWN TO THE PLATFORM AT -2.000 - SEE SECTION C-C
  7
STANDARD
 11
5599.932071853394
 21
-3752.1088632112387
 31
0.0
  0
LINE
  8
DIM
 10
8850.0
 20
-3781.8801071667795
 30
0.0
 11
9350.0
 21
-5481.880107166779
 31
0.0
  0
TEXT
  8
TEXT
 10
14200.0
 20
-7181.880107166779
 30
0.0
 40
150.0
  1
ENTRY HEADHOUSE
  7
STANDARD
 11
14000.0
 21
-7181.880107166779
 31
0.0
  0
TEXT
  8
TEXT
 10
14200.0
 20
-7431.880107166779
 30
0.0
 40
120.0
  1
4000 x 5000 INT, 2400 CLEAR
  7
STANDARD
 11
14000.0
 21
-7431.880107166779
 31
0.0
  0
TEXT
  8
TEXT
 10
14200.0
 20
-7631.880107166779
 30
0.0
 40
120.0
  1
FLOOR -2.000 = TOP OF THE PRESSURE SLAB
  7
STANDARD
 11
14000.0
 21
-7631.880107166779
 31
0.0
  0
TEXT
  8
TEXT
 10
14200.0
 20
-7831.880107166779
 30
0.0
 40
120.0
  1
ROOF TOP +0.900, NO EARTH COVER
  7
STANDARD
 11
14000.0
 21
-7831.880107166779
 31
0.0
  0
TEXT
  8
TEXT
 10
14490.0
 20
-8431.88010716678
 30
0.0
 40
120.0
  1
STAIR VOID BELOW - OPENING IN THE 900 SLAB
  7
STANDARD
 11
14290.0
 21
-8431.88010716678
 31
0.0
  0
TEXT
  8
TEXT
 10
13822.0
 20
-8031.880107166779
 30
0.0
 40
120.0
  1
ENTERED FROM THE COVERED STAIRWELL, NORTH FACE
  7
STANDARD
 11
13622.0
 21
-8031.880107166779
 31
0.0
  0
LINE
  8
OPENINGS
 10
15200.0
 20
-8681.88010716678
 30
0.0
 11
18000.0
 21
-8681.88010716678
 31
0.0
  0
POLYLINE
  8
OPENINGS
 66
1
 10
0.0
 20
0.0
 30
0.0
 70
1
  0
VERTEX
  8
OPENINGS
 10
14800.0
 20
-12781.88010716678
 30
0.0
 70
0
  0
VERTEX
  8
OPENINGS
 10
15200.0
 20
-12781.88010716678
 30
0.0
 70
0
  0
VERTEX
  8
OPENINGS
 10
15200.0
 20
-10681.88010716678
 30
0.0
 70
0
  0
VERTEX
  8
OPENINGS
 10
14800.0
 20
-10681.88010716678
 30
0.0
 70
0
  0
SEQEND
  8
OPENINGS
  0
POLYLINE
  8
OPENINGS
 66
1
 10
0.0
 20
0.0
 30
0.0
 70
1
  0
VERTEX
  8
OPENINGS
 10
18000.0
 20
-12781.88010716678
 30
0.0
 70
0
  0
VERTEX
  8
OPENINGS
 10
18400.0
 20
-12781.88010716678
 30
0.0
 70
0
  0
VERTEX
  8
OPENINGS
 10
18400.0
 20
-10681.88010716678
 30
0.0
 70
0
  0
VERTEX
  8
OPENINGS
 10
18000.0
 20
-10681.88010716678
 30
0.0
 70
0
  0
SEQEND
  8
OPENINGS
  0
TEXT
  8
TEXT
 10
14640.0
 20
-11731.88010716678
 30
0.0
 40
120.0
  1
BLAST DOOR 1
 50
90.0
  7
STANDARD
 11
14640.0
 21
-11731.88010716678
 31
0.0
  0
TEXT
  8
TEXT
 10
18560.0
 20
-11731.88010716678
 30
0.0
 40
120.0
  1
BLAST DOOR 2
 50
90.0
  7
STANDARD
 11
18160.0
 21
-11731.88010716678
 31
0.0
  0
POLYLINE
  8
WALLS
 66
1
 10
0.0
 20
0.0
 30
0.0
 70
1
  0
VERTEX
  8
WALLS
 10
1100.0
 20
-9581.88010716678
 30
0.0
 70
0
  0
VERTEX
  8
WALLS
 10
1350.0
 20
-9581.88010716678
 30
0.0
 70
0
  0
VERTEX
  8
WALLS
 10
1350.0
 20
-6531.880107166779
 30
0.0
 70
0
  0
VERTEX
  8
WALLS
 10
1100.0
 20
-6531.880107166779
 30
0.0
 70
0
  0
SEQEND
  8
WALLS
  0
POLYLINE
  8
WALLS
 66
1
 10
0.0
 20
0.0
 30
0.0
 70
1
  0
VERTEX
  8
WALLS
 10
2750.0
 20
-9581.88010716678
 30
0.0
 70
0
  0
VERTEX
  8
WALLS
 10
3000.0
 20
-9581.88010716678
 30
0.0
 70
0
  0
VERTEX
  8
WALLS
 10
3000.0
 20
-6531.880107166779
 30
0.0
 70
0
  0
VERTEX
  8
WALLS
 10
2750.0
 20
-6531.880107166779
 30
0.0
 70
0
  0
SEQEND
  8
WALLS
  0
POLYLINE
  8
OPENINGS
 66
1
 10
0.0
 20
0.0
 30
0.0
 70
1
  0
VERTEX
  8
OPENINGS
 10
1100.0
 20
-6531.880107166779
 30
0.0
 70
0
  0
VERTEX
  8
OPENINGS
 10
3000.0
 20
-6531.880107166779
 30
0.0
 70
0
  0
VERTEX
  8
OPENINGS
 10
3000.0
 20
-6331.880107166779
 30
0.0
 70
0
  0
VERTEX
  8
OPENINGS
 10
1100.0
 20
-6331.880107166779
 30
0.0
 70
0
  0
SEQEND
  8
OPENINGS
  0
POLYLINE
  8
OPENINGS
 66
1
 10
0.0
 20
0.0
 30
0.0
 70
1
  0
VERTEX
  8
OPENINGS
 10
1350.0
 20
-9681.88010716678
 30
0.0
 70
0
  0
VERTEX
  8
OPENINGS
 10
2750.0
 20
-9681.88010716678
 30
0.0
 70
0
  0
VERTEX
  8
OPENINGS
 10
2750.0
 20
-9581.88010716678
 30
0.0
 70
0
  0
VERTEX
  8
OPENINGS
 10
1350.0
 20
-9581.88010716678
 30
0.0
 70
0
  0
SEQEND
  8
OPENINGS
  0
LINE
  8
STAIRS
 10
1850.0
 20
-6721.880107166779
 30
0.0
 11
2250.0
 21
-6721.880107166779
 31
0.0
  0
LINE
  8
STAIRS
 10
1850.0
 20
-6911.880107166779
 30
0.0
 11
2250.0
 21
-6911.880107166779
 31
0.0
  0
LINE
  8
STAIRS
 10
1850.0
 20
-7101.880107166779
 30
0.0
 11
2250.0
 21
-7101.880107166779
 31
0.0
  0
LINE
  8
STAIRS
 10
1850.0
 20
-7291.880107166779
 30
0.0
 11
2250.0
 21
-7291.880107166779
 31
0.0
  0
LINE
  8
STAIRS
 10
1850.0
 20
-7481.880107166779
 30
0.0
 11
2250.0
 21
-7481.880107166779
 31
0.0
  0
LINE
  8
STAIRS
 10
1850.0
 20
-7671.880107166779
 30
0.0
 11
2250.0
 21
-7671.880107166779
 31
0.0
  0
LINE
  8
STAIRS
 10
1850.0
 20
-7861.880107166779
 30
0.0
 11
2250.0
 21
-7861.880107166779
 31
0.0
  0
LINE
  8
STAIRS
 10
1850.0
 20
-8051.880107166779
 30
0.0
 11
2250.0
 21
-8051.880107166779
 31
0.0
  0
LINE
  8
STAIRS
 10
1850.0
 20
-8241.88010716678
 30
0.0
 11
2250.0
 21
-8241.88010716678
 31
0.0
  0
LINE
  8
STAIRS
 10
1850.0
 20
-8431.88010716678
 30
0.0
 11
2250.0
 21
-8431.88010716678
 31
0.0
  0
LINE
  8
STAIRS
 10
1850.0
 20
-9581.88010716678
 30
0.0
 11
1850.0
 21
-6531.880107166779
 31
0.0
  0
LINE
  8
STAIRS
 10
2250.0
 20
-9581.88010716678
 30
0.0
 11
2250.0
 21
-6531.880107166779
 31
0.0
  0
TEXT
  8
TEXT
 10
2050.0
 20
-6031.880107166779
 30
0.0
 40
120.0
  1
ESCAPE SHAFT 1
  7
STANDARD
 11
2050.0
 21
-6031.880107166779
 31
0.0
  0
TEXT
  8
TEXT
 10
2050.0
 20
-6181.880107166779
 30
0.0
 40
120.0
  1
1400 DIA, 900 CLEAR COVER
  7
STANDARD
 11
2050.0
 21
-6181.880107166779
 31
0.0
  0
POLYLINE
  8
WALLS
 66
1
 10
0.0
 20
0.0
 30
0.0
 70
1
  0
VERTEX
  8
WALLS
 10
18950.0
 20
-9581.88010716678
 30
0.0
 70
0
  0
VERTEX
  8
WALLS
 10
19200.0
 20
-9581.88010716678
 30
0.0
 70
0
  0
VERTEX
  8
WALLS
 10
19200.0
 20
-5981.880107166779
 30
0.0
 70
0
  0
VERTEX
  8
WALLS
 10
18950.0
 20
-5981.880107166779
 30
0.0
 70
0
  0
SEQEND
  8
WALLS
  0
POLYLINE
  8
WALLS
 66
1
 10
0.0
 20
0.0
 30
0.0
 70
1
  0
VERTEX
  8
WALLS
 10
20600.0
 20
-9581.88010716678
 30
0.0
 70
0
  0
VERTEX
  8
WALLS
 10
20850.0
 20
-9581.88010716678
 30
0.0
 70
0
  0
VERTEX
  8
WALLS
 10
20850.0
 20
-5981.880107166779
 30
0.0
 70
0
  0
VERTEX
  8
WALLS
 10
20600.0
 20
-5981.880107166779
 30
0.0
 70
0
  0
SEQEND
  8
WALLS
  0
POLYLINE
  8
OPENINGS
 66
1
 10
0.0
 20
0.0
 30
0.0
 70
1
  0
VERTEX
  8
OPENINGS
 10
18950.0
 20
-5981.880107166779
 30
0.0
 70
0
  0
VERTEX
  8
OPENINGS
 10
20850.0
 20
-5981.880107166779
 30
0.0
 70
0
  0
VERTEX
  8
OPENINGS
 10
20850.0
 20
-5781.880107166779
 30
0.0
 70
0
  0
VERTEX
  8
OPENINGS
 10
18950.0
 20
-5781.880107166779
 30
0.0
 70
0
  0
SEQEND
  8
OPENINGS
  0
POLYLINE
  8
OPENINGS
 66
1
 10
0.0
 20
0.0
 30
0.0
 70
1
  0
VERTEX
  8
OPENINGS
 10
19200.0
 20
-9681.88010716678
 30
0.0
 70
0
  0
VERTEX
  8
OPENINGS
 10
20600.0
 20
-9681.88010716678
 30
0.0
 70
0
  0
VERTEX
  8
OPENINGS
 10
20600.0
 20
-9581.88010716678
 30
0.0
 70
0
  0
VERTEX
  8
OPENINGS
 10
19200.0
 20
-9581.88010716678
 30
0.0
 70
0
  0
SEQEND
  8
OPENINGS
  0
LINE
  8
STAIRS
 10
19700.0
 20
-6171.880107166779
 30
0.0
 11
20100.0
 21
-6171.880107166779
 31
0.0
  0
LINE
  8
STAIRS
 10
19700.0
 20
-6361.880107166779
 30
0.0
 11
20100.0
 21
-6361.880107166779
 31
0.0
  0
LINE
  8
STAIRS
 10
19700.0
 20
-6551.880107166779
 30
0.0
 11
20100.0
 21
-6551.880107166779
 31
0.0
  0
LINE
  8
STAIRS
 10
19700.0
 20
-6741.880107166779
 30
0.0
 11
20100.0
 21
-6741.880107166779
 31
0.0
  0
LINE
  8
STAIRS
 10
19700.0
 20
-6931.880107166779
 30
0.0
 11
20100.0
 21
-6931.880107166779
 31
0.0
  0
LINE
  8
STAIRS
 10
19700.0
 20
-7121.880107166779
 30
0.0
 11
20100.0
 21
-7121.880107166779
 31
0.0
  0
LINE
  8
STAIRS
 10
19700.0
 20
-7311.880107166779
 30
0.0
 11
20100.0
 21
-7311.880107166779
 31
0.0
  0
LINE
  8
STAIRS
 10
19700.0
 20
-7501.880107166779
 30
0.0
 11
20100.0
 21
-7501.880107166779
 31
0.0
  0
LINE
  8
STAIRS
 10
19700.0
 20
-7691.880107166779
 30
0.0
 11
20100.0
 21
-7691.880107166779
 31
0.0
  0
LINE
  8
STAIRS
 10
19700.0
 20
-7881.880107166779
 30
0.0
 11
20100.0
 21
-7881.880107166779
 31
0.0
  0
LINE
  8
STAIRS
 10
19700.0
 20
-9581.88010716678
 30
0.0
 11
19700.0
 21
-5981.880107166779
 31
0.0
  0
LINE
  8
STAIRS
 10
20100.0
 20
-9581.88010716678
 30
0.0
 11
20100.0
 21
-5981.880107166779
 31
0.0
  0
TEXT
  8
TEXT
 10
19900.0
 20
-5481.880107166779
 30
0.0
 40
120.0
  1
ESCAPE SHAFT 2
  7
STANDARD
 11
19500.0
 21
-5481.880107166779
 31
0.0
  0
TEXT
  8
TEXT
 10
19900.0
 20
-5631.880107166779
 30
0.0
 40
120.0
  1
1400 DIA, 900 CLEAR COVER
  7
STANDARD
 11
19500.0
 21
-5631.880107166779
 31
0.0
  0
TEXT
  8
TEXT
 10
19900.0
 20
-5295.880107166779
 30
0.0
 40
120.0
  1
HEAD RAISED TO +0.700 (REV E)
  7
STANDARD
 11
19500.0
 21
-5295.880107166779
 31
0.0
  0
POLYLINE
  8
STAIRS
 66
1
 10
0.0
 20
0.0
 30
0.0
 70
1
  0
VERTEX
  8
STAIRS
 10
15200.0
 20
-11614.88010716678
 30
0.0
 70
0
  0
VERTEX
  8
STAIRS
 10
18000.0
 20
-11614.88010716678
 30
0.0
 70
0
  0
VERTEX
  8
STAIRS
 10
18000.0
 20
-11414.88010716678
 30
0.0
 70
0
  0
VERTEX
  8
STAIRS
 10
15200.0
 20
-11414.88010716678
 30
0.0
 70
0
  0
SEQEND
  8
STAIRS
  0
TEXT
  8
TEXT
 10
15300.0
 20
-11294.88010716678
 30
0.0
 40
120.0
  1
LANDING L1  -4.733
  7
STANDARD
 11
15100.0
 21
-11294.88010716678
 31
0.0
  0
POLYLINE
  8
STAIRS
 66
1
 10
0.0
 20
0.0
 30
0.0
 70
1
  0
VERTEX
  8
STAIRS
 10
15200.0
 20
-10248.88010716678
 30
0.0
 70
0
  0
VERTEX
  8
STAIRS
 10
18000.0
 20
-10248.88010716678
 30
0.0
 70
0
  0
VERTEX
  8
STAIRS
 10
18000.0
 20
-10048.88010716678
 30
0.0
 70
0
  0
VERTEX
  8
STAIRS
 10
15200.0
 20
-10048.88010716678
 30
0.0
 70
0
  0
SEQEND
  8
STAIRS
  0
TEXT
  8
TEXT
 10
15300.0
 20
-9928.88010716678
 30
0.0
 40
120.0
  1
LANDING L2  -3.367
  7
STANDARD
 11
15100.0
 21
-9928.88010716678
 31
0.0
  0
POLYLINE
  8
STAIRS
 66
1
 10
0.0
 20
0.0
 30
0.0
 70
1
  0
VERTEX
  8
STAIRS
 10
15200.0
 20
-12781.88010716678
 30
0.0
 70
0
  0
VERTEX
  8
STAIRS
 10
18000.0
 20
-12781.88010716678
 30
0.0
 70
0
  0
VERTEX
  8
STAIRS
 10
18000.0
 20
-12681.88010716678
 30
0.0
 70
0
  0
VERTEX
  8
STAIRS
 10
15200.0
 20
-12681.88010716678
 30
0.0
 70
0
  0
SEQEND
  8
STAIRS
  0
TEXT
  8
TEXT
 10
15300.0
 20
-12531.88010716678
 30
0.0
 40
120.0
  1
ARRIVAL LANDING  -6.100
  7
STANDARD
 11
15100.0
 21
-12531.88010716678
 31
0.0
  0
POLYLINE
  8
HIDDEN
 66
1
 10
0.0
 20
0.0
 30
0.0
 70
1
  0
VERTEX
  8
HIDDEN
 10
15300.0
 20
-12781.88010716678
 30
0.0
 70
0
  0
VERTEX
  8
HIDDEN
 10
17900.0
 20
-12781.88010716678
 30
0.0
 70
0
  0
VERTEX
  8
HIDDEN
 10
17900.0
 20
-11415.21610716678
 30
0.0
 70
0
  0
VERTEX
  8
HIDDEN
 10
15300.0
 20
-11415.21610716678
 30
0.0
 70
0
  0
SEQEND
  8
HIDDEN
  0
POLYLINE
  8
HIDDEN
 66
1
 10
0.0
 20
0.0
 30
0.0
 70
1
  0
VERTEX
  8
HIDDEN
 10
15300.0
 20
-11414.88010716678
 30
0.0
 70
0
  0
VERTEX
  8
HIDDEN
 10
17900.0
 20
-11414.88010716678
 30
0.0
 70
0
  0
VERTEX
  8
HIDDEN
 10
17900.0
 20
-10048.21610716678
 30
0.0
 70
0
  0
VERTEX
  8
HIDDEN
 10
15300.0
 20
-10048.21610716678
 30
0.0
 70
0
  0
SEQEND
  8
HIDDEN
  0
POLYLINE
  8
HIDDEN
 66
1
 10
0.0
 20
0.0
 30
0.0
 70
1
  0
VERTEX
  8
HIDDEN
 10
15300.0
 20
-10048.88010716678
 30
0.0
 70
0
  0
VERTEX
  8
HIDDEN
 10
17900.0
 20
-10048.88010716678
 30
0.0
 70
0
  0
VERTEX
  8
HIDDEN
 10
17900.0
 20
-8682.21610716678
 30
0.0
 70
0
  0
VERTEX
  8
HIDDEN
 10
15300.0
 20
-8682.21610716678
 30
0.0
 70
0
  0
SEQEND
  8
HIDDEN
  0
TEXT
  8
HIDDEN
 10
15300.0
 20
-12907.88010716678
 30
0.0
 40
120.0
  1
FLIGHTS RUN ACROSS THE SHAFT - 3 x 8 RISERS @ 170.8 / 280.
  7
STANDARD
 11
15100.0
 21
-12907.88010716678
 31
0.0
  0
TEXT
  8
HIDDEN
 10
15300.0
 20
-13053.88010716678
 30
0.0
 40
120.0
  1
SHOWN DASHED. SEE THE STAIRCASE SECTION FOR THE TRUE PROFILE.
  7
STANDARD
 11
15100.0
 21
-13053.88010716678
 31
0.0
  0
TEXT
  8
TEXT
 10
14421.773377766309
 20
-8270.65348493309
 30
0.0
 40
120.0
  1
HEADROOM 2533 BETWEEN STACKED FLIGHTS
  7
STANDARD
 11
14221.773377766309
 21
-8270.65348493309
 31
0.0
  0
CIRCLE
  8
TEXT
 10
2050.0
 20
-10081.88010716678
 30
0.0
 40
260.0
  0
TEXT
  8
TEXT
 10
2050.0
 20
-10141.88010716678
 30
0.0
 40
150.0
  1
1
  7
STANDARD
 72
1
 11
2050.0
 21
-10141.88010716678
 31
0.0
  0
TEXT
  8
TEXT
 10
1830.0
 20
-12381.88010716678
 30
0.0
 40
120.0
  1
ESC 1
 50
90.0
  7
STANDARD
 11
1830.0
 21
-12381.88010716678
 31
0.0
  0
TEXT
  8
TEXT
 10
2130.0
 20
-12381.88010716678
 30
0.0
 40
120.0
  1
STORES
 50
90.0
  7
STANDARD
 11
2130.0
 21
-12381.88010716678
 31
0.0
  0
CIRCLE
  8
TEXT
 10
4510.0
 20
-10081.88010716678
 30
0.0
 40
260.0
  0
TEXT
  8
TEXT
 10
4510.0
 20
-10141.88010716678
 30
0.0
 40
150.0
  1
2
  7
STANDARD
 72
1
 11
4510.0
 21
-10141.88010716678
 31
0.0
  0
TEXT
  8
TEXT
 10
4290.0
 20
-12381.88010716678
 30
0.0
 40
120.0
  1
LAV
 50
90.0
  7
STANDARD
 11
4290.0
 21
-12381.88010716678
 31
0.0
  0
TEXT
  8
TEXT
 10
4590.0
 20
-12381.88010716678
 30
0.0
 40
120.0
  1
MEDICAL
 50
90.0
  7
STANDARD
 11
4590.0
 21
-12381.88010716678
 31
0.0
  0
CIRCLE
  8
TEXT
 10
7270.0
 20
-10081.88010716678
 30
0.0
 40
260.0
  0
TEXT
  8
TEXT
 10
7270.0
 20
-10141.88010716678
 30
0.0
 40
150.0
  1
3
  7
STANDARD
 72
1
 11
7270.0
 21
-10141.88010716678
 31
0.0
  0
TEXT
  8
TEXT
 10
7050.0
 20
-12381.88010716678
 30
0.0
 40
120.0
  1
OPS ROOM
 50
90.0
  7
STANDARD
 11
7050.0
 21
-12381.88010716678
 31
0.0
  0
TEXT
  8
TEXT
 10
7350.0
 20
-12381.88010716678
 30
0.0
 40
120.0
  1
& HAZARD PLOTTING
 50
90.0
  7
STANDARD
 11
7350.0
 21
-12381.88010716678
 31
0.0
  0
CIRCLE
  8
TEXT
 10
10030.0
 20
-10081.88010716678
 30
0.0
 40
260.0
  0
TEXT
  8
TEXT
 10
10030.0
 20
-10141.88010716678
 30
0.0
 40
150.0
  1
4
  7
STANDARD
 72
1
 11
10030.0
 21
-10141.88010716678
 31
0.0
  0
TEXT
  8
TEXT
 10
9810.0
 20
-12381.88010716678
 30
0.0
 40
120.0
  1
BERTHING
 50
90.0
  7
STANDARD
 11
9810.0
 21
-12381.88010716678
 31
0.0
  0
CIRCLE
  8
TEXT
 10
11820.0
 20
-10081.88010716678
 30
0.0
 40
260.0
  0
TEXT
  8
TEXT
 10
11820.0
 20
-10141.88010716678
 30
0.0
 40
150.0
  1
5
  7
STANDARD
 72
1
 11
11820.0
 21
-10141.88010716678
 31
0.0
  0
TEXT
  8
TEXT
 10
11600.0
 20
-12381.88010716678
 30
0.0
 40
120.0
  1
CBRN PLANT
 50
90.0
  7
STANDARD
 11
11600.0
 21
-12381.88010716678
 31
0.0
  0
CIRCLE
  8
TEXT
 10
13800.0
 20
-10081.88010716678
 30
0.0
 40
260.0
  0
TEXT
  8
TEXT
 10
13800.0
 20
-10141.88010716678
 30
0.0
 40
150.0
  1
6
  7
STANDARD
 72
1
 11
13800.0
 21
-10141.88010716678
 31
0.0
  0
TEXT
  8
TEXT
 10
13580.0
 20
-12381.88010716678
 30
0.0
 40
120.0
  1
DECON AIRLOCK
 50
90.0
  7
STANDARD
 11
13580.0
 21
-12381.88010716678
 31
0.0
  0
CIRCLE
  8
TEXT
 10
16600.0
 20
-10081.88010716678
 30
0.0
 40
260.0
  0
TEXT
  8
TEXT
 10
16600.0
 20
-10209.38010716678
 30
0.0
 40
150.0
  1
7
  7
STANDARD
 72
1
 11
16600.0
 21
-10209.38010716678
 31
0.0
  0
CIRCLE
  8
TEXT
 10
19900.0
 20
-10081.88010716678
 30
0.0
 40
260.0
  0
TEXT
  8
TEXT
 10
19900.0
 20
-10141.88010716678
 30
0.0
 40
150.0
  1
8
  7
STANDARD
 72
1
 11
19900.0
 21
-10141.88010716678
 31
0.0
  0
TEXT
  8
TEXT
 10
19680.0
 20
-12381.88010716678
 30
0.0
 40
120.0
  1
GENERATOR
 50
90.0
  7
STANDARD
 11
19280.0
 21
-12381.88010716678
 31
0.0
  0
TEXT
  8
TEXT
 10
19980.0
 20
-12381.88010716678
 30
0.0
 40
120.0
  1
SERVICES
 50
90.0
  7
STANDARD
 11
19580.0
 21
-12381.88010716678
 31
0.0
  0
LINE
  8
DIM
 10
22000.0
 20
-5781.880107166779
 30
0.0
 11
25000.0
 21
-5781.880107166779
 31
0.0
  0
LINE
  8
DIM
 10
24900.0
 20
-5781.880107166779
 30
0.0
 11
25000.0
 21
-5631.880107166779
 31
0.0
  0
LINE
  8
DIM
 10
24900.0
 20
-5781.880107166779
 30
0.0
 11
25000.0
 21
-5931.880107166779
 31
0.0
  0
TEXT
  8
TEXT
 10
25150.0
 20
-5721.880107166779
 30
0.0
 40
120.0
  1
+0.900  HEADHOUSE ROOF
  7
STANDARD
 11
24750.0
 21
-5721.880107166779
 31
0.0
  0
LINE
  8
DIM
 10
22000.0
 20
-6681.880107166779
 30
0.0
 11
25000.0
 21
-6681.880107166779
 31
0.0
  0
LINE
  8
DIM
 10
24900.0
 20
-6681.880107166779
 30
0.0
 11
25000.0
 21
-6531.880107166779
 31
0.0
  0
LINE
  8
DIM
 10
24900.0
 20
-6681.880107166779
 30
0.0
 11
25000.0
 21
-6831.880107166779
 31
0.0
  0
TEXT
  8
TEXT
 10
25150.0
 20
-6621.880107166779
 30
0.0
 40
120.0
  1
+0.000  GROUND LEVEL
  7
STANDARD
 11
24750.0
 21
-6621.880107166779
 31
0.0
  0
LINE
  8
DIM
 10
22000.0
 20
-8681.88010716678
 30
0.0
 11
25000.0
 21
-8681.88010716678
 31
0.0
  0
LINE
  8
DIM
 10
24900.0
 20
-8681.88010716678
 30
0.0
 11
25000.0
 21
-8531.88010716678
 31
0.0
  0
LINE
  8
DIM
 10
24900.0
 20
-8681.88010716678
 30
0.0
 11
25000.0
 21
-8831.88010716678
 31
0.0
  0
TEXT
  8
TEXT
 10
25150.0
 20
-8621.88010716678
 30
0.0
 40
120.0
  1
-2.000  TOP OF SLAB
  7
STANDARD
 11
24750.0
 21
-8621.88010716678
 31
0.0
  0
LINE
  8
DIM
 10
22000.0
 20
-9581.88010716678
 30
0.0
 11
25000.0
 21
-9581.88010716678
 31
0.0
  0
LINE
  8
DIM
 10
24900.0
 20
-9581.88010716678
 30
0.0
 11
25000.0
 21
-9431.88010716678
 31
0.0
  0
LINE
  8
DIM
 10
24900.0
 20
-9581.88010716678
 30
0.0
 11
25000.0
 21
-9731.88010716678
 31
0.0
  0
TEXT
  8
TEXT
 10
25150.0
 20
-9521.88010716678
 30
0.0
 40
120.0
  1
-2.900  ROOF SOFFIT
  7
STANDARD
 11
24750.0
 21
-9521.88010716678
 31
0.0
  0
LINE
  8
DIM
 10
22000.0
 20
-12781.88010716678
 30
0.0
 11
25000.0
 21
-12781.88010716678
 31
0.0
  0
LINE
  8
DIM
 10
24900.0
 20
-12781.88010716678
 30
0.0
 11
25000.0
 21
-12631.88010716678
 31
0.0
  0
LINE
  8
DIM
 10
24900.0
 20
-12781.88010716678
 30
0.0
 11
25000.0
 21
-12931.88010716678
 31
0.0
  0
TEXT
  8
TEXT
 10
25150.0
 20
-12721.88010716678
 30
0.0
 40
120.0
  1
-6.100  FLOOR
  7
STANDARD
 11
24750.0
 21
-12721.88010716678
 31
0.0
  0
LINE
  8
DIM
 10
22000.0
 20
-13381.88010716678
 30
0.0
 11
25000.0
 21
-13381.88010716678
 31
0.0
  0
LINE
  8
DIM
 10
24900.0
 20
-13381.88010716678
 30
0.0
 11
25000.0
 21
-13231.88010716678
 31
0.0
  0
LINE
  8
DIM
 10
24900.0
 20
-13381.88010716678
 30
0.0
 11
25000.0
 21
-13531.88010716678
 31
0.0
  0
TEXT
  8
TEXT
 10
25150.0
 20
-13321.88010716678
 30
0.0
 40
120.0
  1
-6.700  U/S MAT
  7
STANDARD
 11
24750.0
 21
-13321.88010716678
 31
0.0
  0
LINE
  8
DIM
 10
-1400.0
 20
-8681.88010716678
 30
0.0
 11
-1400.0
 21
-6681.880107166779
 31
0.0
  0
LINE
  8
DIM
 10
-1490.0
 20
-8771.88010716678
 30
0.0
 11
-1310.0
 21
-8591.88010716678
 31
0.0
  0
LINE
  8
DIM
 10
-1580.0
 20
-8681.88010716678
 30
0.0
 11
-1220.0
 21
-8681.88010716678
 31
0.0
  0
LINE
  8
DIM
 10
-1490.0
 20
-6771.880107166779
 30
0.0
 11
-1310.0
 21
-6591.880107166779
 31
0.0
  0
LINE
  8
DIM
 10
-1580.0
 20
-6681.880107166779
 30
0.0
 11
-1220.0
 21
-6681.880107166779
 31
0.0
  0
TEXT
  8
DIM
 10
-1472.0
 20
-7681.880107166779
 30
0.0
 40
120.0
  1
2000 COVER
 50
90.0
  7
STANDARD
 72
1
 11
-1472.0
 21
-7681.880107166779
 31
0.0
  0
LINE
  8
DIM
 10
-1400.0
 20
-9581.88010716678
 30
0.0
 11
-1400.0
 21
-8681.88010716678
 31
0.0
  0
LINE
  8
DIM
 10
-1490.0
 20
-9671.88010716678
 30
0.0
 11
-1310.0
 21
-9491.88010716678
 31
0.0
  0
LINE
  8
DIM
 10
-1580.0
 20
-9581.88010716678
 30
0.0
 11
-1220.0
 21
-9581.88010716678
 31
0.0
  0
LINE
  8
DIM
 10
-1490.0
 20
-8771.88010716678
 30
0.0
 11
-1310.0
 21
-8591.88010716678
 31
0.0
  0
LINE
  8
DIM
 10
-1580.0
 20
-8681.88010716678
 30
0.0
 11
-1220.0
 21
-8681.88010716678
 31
0.0
  0
TEXT
  8
DIM
 10
-1472.0
 20
-9131.88010716678
 30
0.0
 40
120.0
  1
900
 50
90.0
  7
STANDARD
 72
1
 11
-1472.0
 21
-9131.88010716678
 31
0.0
  0
LINE
  8
DIM
 10
-1400.0
 20
-12781.88010716678
 30
0.0
 11
-1400.0
 21
-9581.88010716678
 31
0.0
  0
LINE
  8
DIM
 10
-1490.0
 20
-12871.88010716678
 30
0.0
 11
-1310.0
 21
-12691.88010716678
 31
0.0
  0
LINE
  8
DIM
 10
-1580.0
 20
-12781.88010716678
 30
0.0
 11
-1220.0
 21
-12781.88010716678
 31
0.0
  0
LINE
  8
DIM
 10
-1490.0
 20
-9671.88010716678
 30
0.0
 11
-1310.0
 21
-9491.88010716678
 31
0.0
  0
LINE
  8
DIM
 10
-1580.0
 20
-9581.88010716678
 30
0.0
 11
-1220.0
 21
-9581.88010716678
 31
0.0
  0
TEXT
  8
DIM
 10
-1472.0
 20
-11181.88010716678
 30
0.0
 40
120.0
  1
3200 CLEAR
 50
90.0
  7
STANDARD
 72
1
 11
-1472.0
 21
-11181.88010716678
 31
0.0
  0
LINE
  8
DIM
 10
-1400.0
 20
-13381.88010716678
 30
0.0
 11
-1400.0
 21
-12781.88010716678
 31
0.0
  0
LINE
  8
DIM
 10
-1490.0
 20
-13471.88010716678
 30
0.0
 11
-1310.0
 21
-13291.88010716678
 31
0.0
  0
LINE
  8
DIM
 10
-1580.0
 20
-13381.88010716678
 30
0.0
 11
-1220.0
 21
-13381.88010716678
 31
0.0
  0
LINE
  8
DIM
 10
-1490.0
 20
-12871.88010716678
 30
0.0
 11
-1310.0
 21
-12691.88010716678
 31
0.0
  0
LINE
  8
DIM
 10
-1580.0
 20
-12781.88010716678
 30
0.0
 11
-1220.0
 21
-12781.88010716678
 31
0.0
  0
TEXT
  8
DIM
 10
-1472.0
 20
-13081.88010716678
 30
0.0
 40
120.0
  1
600
 50
90.0
  7
STANDARD
 72
1
 11
-1472.0
 21
-13081.88010716678
 31
0.0
  0
LINE
  8
DIM
 10
-2600.0
 20
-13481.88010716678
 30
0.0
 11
-2600.0
 21
-6681.880107166779
 31
0.0
  0
LINE
  8
DIM
 10
-2690.0
 20
-13571.88010716678
 30
0.0
 11
-2510.0
 21
-13391.88010716678
 31
0.0
  0
LINE
  8
DIM
 10
-2780.0
 20
-13481.88010716678
 30
0.0
 11
-2420.0
 21
-13481.88010716678
 31
0.0
  0
LINE
  8
DIM
 10
-2690.0
 20
-6771.880107166779
 30
0.0
 11
-2510.0
 21
-6591.880107166779
 31
0.0
  0
LINE
  8
DIM
 10
-2780.0
 20
-6681.880107166779
 30
0.0
 11
-2420.0
 21
-6681.880107166779
 31
0.0
  0
TEXT
  8
DIM
 10
-2672.0
 20
-10081.88010716678
 30
0.0
 40
120.0
  1
6800 DEPTH
 50
90.0
  7
STANDARD
 72
1
 11
-2672.0
 21
-10081.88010716678
 31
0.0
  0
LINE
  8
DIM
 10
0.0
 20
-14981.88010716678
 30
0.0
 11
22000.0
 21
-14981.88010716678
 31
0.0
  0
LINE
  8
DIM
 10
-90.0
 20
-15071.88010716678
 30
0.0
 11
90.0
 21
-14891.88010716678
 31
0.0
  0
LINE
  8
DIM
 10
0.0
 20
-15161.88010716678
 30
0.0
 11
0.0
 21
-14801.88010716678
 31
0.0
  0
LINE
  8
DIM
 10
21910.0
 20
-15071.88010716678
 30
0.0
 11
22090.0
 21
-14891.88010716678
 31
0.0
  0
LINE
  8
DIM
 10
22000.0
 20
-15161.88010716678
 30
0.0
 11
22000.0
 21
-14801.88010716678
 31
0.0
  0
TEXT
  8
DIM
 10
11000.0
 20
-14909.88010716678
 30
0.0
 40
120.0
  1
22000 OVERALL
  7
STANDARD
 72
1
 11
11000.0
 21
-14909.88010716678
 31
0.0
  0
TEXT
  8
TEXT
 10
0.0
 20
-3581.8801071667795
 30
0.0
 40
250.0
  1
DRAWING 2  -  SIDE SECTION X-X  (WITH STAIRS)
  7
STANDARD
 11
0.0
 21
-3581.8801071667795
 31
0.0
  0
TEXT
  8
TEXT
 10
0.0
 20
-3981.8801071667795
 30
0.0
 40
120.0
  1
SCALE 1:50 AT A1   -   ALL DIMENSIONS IN MILLIMETRES
  7
STANDARD
 11
0.0
 21
-3981.8801071667795
 31
0.0
  0
TEXT
  8
TEXT
 10
-3883.1111855324853
 20
-22713.760214333557
 30
0.0
 40
120.0
  1
REV F - THE APPROACH IS A COVERED STAIRWELL ENTERED AT GRADE. SEE SECTION C-C
  7
STANDARD
 11
-3883.1111855324853
 21
-22713.760214333557
 31
0.0
  0
TEXT
  8
TEXT
 10
-3883.1111855324853
 20
-23013.760214333557
 30
0.0
 40
120.0
  1
REV F - ON THIS CUT THE GROUND IS 0.000 OVER THE SHELTER; THE MOUND OVER THE COVERED
  7
STANDARD
 11
-3883.1111855324853
 21
-23013.760214333557
 31
0.0
  0
TEXT
  8
TEXT
 10
-3883.1111855324853
 20
-23313.760214333557
 30
0.0
 40
120.0
  1
STAIRWELL IS NORTH OF THIS PLANE AND IS SHOWN BEYOND (GREY). ROOM NAMES AS DRAWING 1.
  7
STANDARD
 11
-3883.1111855324853
 21
-23313.760214333557
 31
0.0
  0
TEXT
  8
TEXT
 10
-3883.1111855324853
 20
-23613.760214333557
 30
0.0
 40
120.0
  1
MOD M1 (APPROVED) - W6 AND W7 400 THK; BOX 22000; SHAFT 15200-18000; ESC2 AT X 19900; HEADHOUSE AND COVERED STAIRWELL +200. GEOMETRY REV F + M1.
  7
STANDARD
 11
-3883.1111855324853
 21
-23613.760214333557
 31
0.0
  0
LINE
  8
LEADER
 10
18506.11788345613
 20
-8389.000000000002
 30
0.0
 11
17956.1913596785
 21
-8389.000000000002
 31
0.0
  0
LINE
  8
LEADER
 10
17956.1913596785
 20
-8389.000000000002
 30
0.0
 11
17284.058941728064
 21
-8389.000000000002
 31
0.0
  0
LINE
  8
SHEET-BORDER
 10
-4833.111185532485
 20
-24698.0
 30
0.0
 11
37216.888814467515
 21
-24698.0
 31
0.0
  0
LINE
  8
SHEET-BORDER
 10
37216.888814467515
 20
-24698.0
 30
0.0
 11
37216.888814467515
 21
5002.0
 31
0.0
  0
LINE
  8
SHEET-BORDER
 10
37216.888814467515
 20
5002.0
 30
0.0
 11
-4833.111185532485
 21
5002.0
 31
0.0
  0
LINE
  8
SHEET-BORDER
 10
-4833.111185532485
 20
5002.0
 30
0.0
 11
-4833.111185532485
 21
-24698.0
 31
0.0
  0
LINE
  8
SHEET-BORDER
 10
-4333.111185532485
 20
-24198.0
 30
0.0
 11
36716.888814467515
 21
-24198.0
 31
0.0
  0
LINE
  8
SHEET-BORDER
 10
36716.888814467515
 20
-24198.0
 30
0.0
 11
36716.888814467515
 21
4502.0
 31
0.0
  0
LINE
  8
SHEET-BORDER
 10
36716.888814467515
 20
4502.0
 30
0.0
 11
-4333.111185532485
 21
4502.0
 31
0.0
  0
LINE
  8
SHEET-BORDER
 10
-4333.111185532485
 20
4502.0
 30
0.0
 11
-4333.111185532485
 21
-24198.0
 31
0.0
  0
LINE
  8
SHEET-TITLEBLOCK
 10
27716.888814467515
 20
-24198.0
 30
0.0
 11
36716.888814467515
 21
-24198.0
 31
0.0
  0
LINE
  8
SHEET-TITLEBLOCK
 10
36716.888814467515
 20
-24198.0
 30
0.0
 11
36716.888814467515
 21
-19198.0
 31
0.0
  0
LINE
  8
SHEET-TITLEBLOCK
 10
36716.888814467515
 20
-19198.0
 30
0.0
 11
27716.888814467515
 21
-19198.0
 31
0.0
  0
LINE
  8
SHEET-TITLEBLOCK
 10
27716.888814467515
 20
-19198.0
 30
0.0
 11
27716.888814467515
 21
-24198.0
 31
0.0
  0
LINE
  8
SHEET-TITLEBLOCK
 10
27716.888814467515
 20
-23198.0
 30
0.0
 11
36716.888814467515
 21
-23198.0
 31
0.0
  0
LINE
  8
SHEET-TITLEBLOCK
 10
27716.888814467515
 20
-22598.0
 30
0.0
 11
36716.888814467515
 21
-22598.0
 31
0.0
  0
LINE
  8
SHEET-TITLEBLOCK
 10
27716.888814467515
 20
-21998.0
 30
0.0
 11
36716.888814467515
 21
-21998.0
 31
0.0
  0
LINE
  8
SHEET-TITLEBLOCK
 10
27716.888814467515
 20
-21398.0
 30
0.0
 11
36716.888814467515
 21
-21398.0
 31
0.0
  0
LINE
  8
SHEET-TITLEBLOCK
 10
27716.888814467515
 20
-20298.0
 30
0.0
 11
36716.888814467515
 21
-20298.0
 31
0.0
  0
LINE
  8
SHEET-TITLEBLOCK
 10
33316.888814467515
 20
-24198.0
 30
0.0
 11
33316.888814467515
 21
-23198.0
 31
0.0
  0
LINE
  8
SHEET-TITLEBLOCK
 10
35016.888814467515
 20
-24198.0
 30
0.0
 11
35016.888814467515
 21
-23198.0
 31
0.0
  0
LINE
  8
SHEET-TITLEBLOCK
 10
32516.888814467515
 20
-23198.0
 30
0.0
 11
32516.888814467515
 21
-22598.0
 31
0.0
  0
TEXT
  8
SHEET-TEXT
 10
27816.888814467515
 20
-23468.0
 30
0.0
 40
70.0
  1
DRAWING No.
 11
27816.888814467515
 21
-23468.0
 31
0.0
  0
TEXT
  8
SHEET-TEXT
 10
28516.888814467515
 20
-23988.0
 30
0.0
 40
220.00000000000003
  1
A-202
 11
28516.888814467515
 21
-23988.0
 31
0.0
  0
TEXT
  8
SHEET-TEXT
 10
33416.888814467515
 20
-23468.0
 30
0.0
 40
70.0
  1
REV
 11
33416.888814467515
 21
-23468.0
 31
0.0
  0
TEXT
  8
SHEET-TEXT
 10
33416.888814467515
 20
-23968.0
 30
0.0
 40
140.0
  1
F + M1
 11
33416.888814467515
 21
-23968.0
 31
0.0
  0
TEXT
  8
SHEET-TEXT
 10
35116.888814467515
 20
-23468.0
 30
0.0
 40
70.0
  1
SHEET
 11
35116.888814467515
 21
-23468.0
 31
0.0
  0
TEXT
  8
SHEET-TEXT
 10
35116.888814467515
 20
-23948.0
 30
0.0
 40
95.0
  1
7 OF 10
 11
35116.888814467515
 21
-23948.0
 31
0.0
  0
TEXT
  8
SHEET-TEXT
 10
27816.888814467515
 20
-22978.0
 30
0.0
 40
95.0
  1
SCALE   1:50 AT A1
 11
27816.888814467515
 21
-22978.0
 31
0.0
  0
TEXT
  8
SHEET-TEXT
 10
32616.888814467515
 20
-22978.0
 30
0.0
 40
95.0
  1
DATE   09.09.2026
 11
32616.888814467515
 21
-22978.0
 31
0.0
  0
TEXT
  8
SHEET-TEXT
 10
27816.888814467515
 20
-22378.0
 30
0.0
 40
75.0
  1
DRAWN  [PLACEHOLDER]
 11
27816.888814467515
 21
-22378.0
 31
0.0
  0
TEXT
  8
SHEET-TEXT
 10
30816.888814467515
 20
-22378.0
 30
0.0
 40
75.0
  1
CHECKED  [PLACEHOLDER]
 11
30816.888814467515
 21
-22378.0
 31
0.0
  0
TEXT
  8
SHEET-TEXT
 10
33816.888814467515
 20
-22378.0
 30
0.0
 40
75.0
  1
APPROVED  [PLACEHOLDER]
 11
33816.888814467515
 21
-22378.0
 31
0.0
  0
TEXT
  8
SHEET-TEXT
 10
27816.888814467515
 20
-21778.0
 30
0.0
 40
70.0
  1
STATUS
 11
27816.888814467515
 21
-21778.0
 31
0.0
  0
TEXT
  8
SHEET-TEXT
 10
28816.888814467515
 20
-21798.0
 30
0.0
 40
95.0
  1
FOR REVIEW - NOT FOR CONSTRUCTION
 11
28816.888814467515
 21
-21798.0
 31
0.0
  0
TEXT
  8
SHEET-TEXT
 10
27816.888814467515
 20
-20528.0
 30
0.0
 40
70.0
  1
DRAWING TITLE
 11
27816.888814467515
 21
-20528.0
 31
0.0
  0
TEXT
  8
SHEET-TEXT
 10
27816.888814467515
 20
-20928.0
 30
0.0
 40
120.0
  1
SECTION X-X - SIDE SECTION WITH STAIRS
 11
27816.888814467515
 21
-20928.0
 31
0.0
  0
TEXT
  8
SHEET-TEXT
 10
27816.888814467515
 20
-21258.0
 30
0.0
 40
75.0
  1
LONGITUDINAL THROUGH THE BOX, ENTRY AND ENGINEERED COVER
 11
27816.888814467515
 21
-21258.0
 31
0.0
  0
TEXT
  8
SHEET-TEXT
 10
27816.888814467515
 20
-19438.0
 30
0.0
 40
70.0
  1
PROJECT
 11
27816.888814467515
 21
-19438.0
 31
0.0
  0
TEXT
  8
SHEET-TEXT
 10
27816.888814467515
 20
-19718.0
 30
0.0
 40
95.0
  1
UNDERGROUND CBRN-HARDENED BLAST-RESISTANT
 11
27816.888814467515
 21
-19718.0
 31
0.0
  0
TEXT
  8
SHEET-TEXT
 10
27816.888814467515
 20
-19948.0
 30
0.0
 40
95.0
  1
PROTECTIVE STRUCTURE  -  PUNE, MAHARASHTRA
 11
27816.888814467515
 21
-19948.0
 31
0.0
  0
TEXT
  8
SHEET-TEXT
 10
27816.888814467515
 20
-20188.0
 30
0.0
 40
75.0
  1
ARCHITECTURAL REV F  +  MODIFICATION M1
 11
27816.888814467515
 21
-20188.0
 31
0.0
  0
TEXT
  8
SHEET-TEXT
 10
-4233.111185532485
 20
4127.0
 30
0.0
 40
160.0
  1
A-202   SECTION X-X - SIDE SECTION WITH STAIRS
 11
-4233.111185532485
 21
4127.0
 31
0.0
  0
LINE
  8
SHEET-BORDER
 10
-4333.111185532485
 20
3977.0
 30
0.0
 11
36716.888814467515
 21
3977.0
 31
0.0
  0
TEXT
  8
SHEET-TEXT
 10
-4233.111185532485
 20
-24073.0
 30
0.0
 40
75.0
  1
QA1  09.09.2026   DRAWING QA/QC - ANNOTATION POSITIONS, SHEET FRAME AND TITLE BLOCK.  NO GEOMETRY, DIMENSION OR VALUE CHANGED.
 11
-4233.111185532485
 21
-24073.0
 31
0.0
  0
LINE
  8
SHEET-BORDER
 10
-4033.1111855324853
 20
-23798.0
 30
0.0
 11
10362.508372404554
 21
-23798.0
 31
0.0
  0
LINE
  8
SHEET-BORDER
 10
10362.508372404554
 20
-23798.0
 30
0.0
 11
10362.508372404554
 21
-22143.760214333557
 31
0.0
  0
LINE
  8
SHEET-BORDER
 10
10362.508372404554
 20
-22143.760214333557
 30
0.0
 11
-4033.1111855324853
 21
-22143.760214333557
 31
0.0
  0
LINE
  8
SHEET-BORDER
 10
-4033.1111855324853
 20
-22143.760214333557
 30
0.0
 11
-4033.1111855324853
 21
-23798.0
 31
0.0
  0
TEXT
  8
SHEET-TEXT
 10
-3883.1111855324853
 20
-22413.760214333557
 30
0.0
 40
130.0
  1
NOTES
 11
-3883.1111855324853
 21
-22413.760214333557
 31
0.0
  0
LINE
  8
LEADER
 10
-2168.731413261889
 20
-8689.000000000002
 30
0.0
 11
-2182.0668452779637
 21
-8689.000000000002
 31
0.0
  0
LINE
  8
LEADER
 10
-2182.0668452779637
 20
-8689.000000000002
 30
0.0
 11
-2198.3657066309443
 21
-8689.000000000002
 31
0.0
  0
ENDSEC
  0
EOF
