  0
SECTION
  2
HEADER
  9
$ACADVER
  1
AC1009
  9
$DWGCODEPAGE
  3
ANSI_1252
  9
$EXTMIN
 10
1e+20
 20
1e+20
 30
1e+20
  9
$EXTMAX
 10
-1e+20
 20
-1e+20
 30
-1e+20
  9
$LIMMIN
 10
0.0
 20
0.0
  9
$LIMMAX
 10
420.0
 20
297.0
  9
$LTSCALE
 40
25.0
  9
$LIMCHECK
 70
0
  9
$TDCREATE
 40
2461294.0692824074
  9
$TDUPDATE
 40
2461294.0692824074
  9
$PEXTMIN
 10
1e+20
 20
1e+20
 30
1e+20
  9
$PEXTMAX
 10
-1e+20
 20
-1e+20
 30
-1e+20
  9
$PLIMMIN
 10
0.0
 20
0.0
  9
$PLIMMAX
 10
420.0
 20
297.0
  0
ENDSEC
  0
SECTION
  2
TABLES
  0
TABLE
  2
VPORT
 70
1
  0
VPORT
  2
*Active
 70
0
 10
0.0
 20
0.0
 11
1.0
 21
1.0
 12
0.0
 22
0.0
 13
0.0
 23
0.0
 14
0.5
 24
0.5
 15
0.5
 25
0.5
 16
0.0
 26
0.0
 36
1.0
 17
0.0
 27
0.0
 37
0.0
 40
1000.0
 41
1.34
 42
50.0
 43
0.0
 44
0.0
 50
0.0
 51
0.0
 71
0
 72
1000
 73
1
 74
3
 75
0
 76
0
 77
0
 78
0
  0
ENDTAB
  0
TABLE
  2
LTYPE
 70
5
  0
LTYPE
  2
CONTINUOUS
 70
0
  3
Solid line
 72
65
 73
0
 40
0.0
  0
LTYPE
  2
DASHED
 70
0
  3
Dashed __ __ __
 72
65
 73
2
 40
15.0
 49
10.0
 49
-5.0
  0
LTYPE
  2
CENTER
 70
0
  3
Centre ____ _ ____
 72
65
 73
4
 40
50.0
 49
32.0
 49
-6.0
 49
6.0
 49
-6.0
  0
LTYPE
  2
ByBlock
 70
0
  3

 72
65
 73
0
 40
0.0
  0
LTYPE
  2
ByLayer
 70
0
  3

 72
65
 73
0
 40
0.0
  0
ENDTAB
  0
TABLE
  2
LAYER
 70
15
  0
LAYER
  2
0
 70
0
 62
7
  6
CONTINUOUS
  0
LAYER
  2
WALLS
 70
0
 62
7
  6
CONTINUOUS
  0
LAYER
  2
OPENINGS
 70
0
 62
1
  6
CONTINUOUS
  0
LAYER
  2
STAIRS
 70
0
 62
3
  6
CONTINUOUS
  0
LAYER
  2
GROUND
 70
0
 62
42
  6
CONTINUOUS
  0
LAYER
  2
TEXT
 70
0
 62
2
  6
CONTINUOUS
  0
LAYER
  2
DIM
 70
0
 62
4
  6
CONTINUOUS
  0
LAYER
  2
HIDDEN
 70
0
 62
8
  6
DASHED
  0
LAYER
  2
CENTRE
 70
0
 62
6
  6
CENTER
  0
LAYER
  2
BEYOND
 70
0
 62
9
  6
CONTINUOUS
  0
LAYER
  2
Defpoints
 70
0
 62
7
  6
Continuous
  0
LAYER
  2
LEADER
 70
0
 62
7
  6
Continuous
  0
LAYER
  2
SHEET-BORDER
 70
0
 62
7
  6
Continuous
  0
LAYER
  2
SHEET-TITLEBLOCK
 70
0
 62
7
  6
Continuous
  0
LAYER
  2
SHEET-TEXT
 70
0
 62
7
  6
Continuous
  0
ENDTAB
  0
TABLE
  2
STYLE
 70
1
  0
STYLE
  2
STANDARD
 70
0
 40
0.0
 41
1.0
 50
0.0
 71
0
 42
2.5
  3
txt
  4

  0
ENDTAB
  0
TABLE
  2
VIEW
 70
0
  0
ENDTAB
  0
TABLE
  2
UCS
 70
0
  0
ENDTAB
  0
TABLE
  2
APPID
 70
3
  0
APPID
  2
ACAD
 70
0
  0
APPID
  2
HATCHBACKGROUNDCOLOR
 70
0
  0
APPID
  2
EZDXF
 70
0
  0
ENDTAB
  0
TABLE
  2
DIMSTYLE
 70
1
  0
DIMSTYLE
  2
Standard
 70
0
  3

  4

  5

  6

  7

 40
1.0
 41
2.5
 42
0.625
 43
3.75
 44
1.25
 45
0.0
 46
0.0
 47
0.0
 48
0.0
140
2.5
141
2.5
142
0.0
143
0.03937007874
144
1.0
145
0.0
146
1.0
147
0.625
 71
0
 72
0
 73
0
 74
0
 75
0
 76
0
 77
1
 78
8
170
0
171
3
172
1
173
0
174
0
175
0
176
0
177
0
178
0
  0
ENDTAB
  0
ENDSEC
  0
SECTION
  2
BLOCKS
  0
BLOCK
  8
0
  2
$Model_Space
 70
0
 10
0.0
 20
0.0
 30
0.0
  3
$Model_Space
  1

1001
EZDXF
1000
WRITTEN_BY_EZDXF
1000
1.4.4 @ 2026-09-10T01:39:46.910167+00:00
  0
ENDBLK
  8
0
  0
BLOCK
  8
0
  2
$Paper_Space
 70
0
 10
0.0
 20
0.0
 30
0.0
  3
$Paper_Space
  1

  0
ENDBLK
  8
0
  0
ENDSEC
  0
SECTION
  2
ENTITIES
  0
LINE
  8
GROUND
 10
11000.0
 20
0.0
 30
0.0
 11
12250.0
 21
0.0
 31
0.0
  0
LINE
  8
GROUND
 10
12250.0
 20
0.0
 30
0.0
 11
13600.0
 21
900.0
 31
0.0
  0
LINE
  8
GROUND
 10
13600.0
 20
900.0
 30
0.0
 11
18400.0
 21
900.0
 31
0.0
  0
LINE
  8
GROUND
 10
18400.0
 20
900.0
 30
0.0
 11
18950.0
 21
700.0
 31
0.0
  0
LINE
  8
GROUND
 10
18950.0
 20
700.0
 30
0.0
 11
20850.0
 21
700.0
 31
0.0
  0
LINE
  8
GROUND
 10
20850.0
 20
700.0
 30
0.0
 11
21900.0
 21
0.0
 31
0.0
  0
LINE
  8
GROUND
 10
21900.0
 20
0.0
 30
0.0
 11
23000.0
 21
0.0
 31
0.0
  0
TEXT
  8
TEXT
 10
10150.0
 20
515.0
 30
0.0
 40
140.0
  1
GROUND LEVEL  +0.000
  7
STANDARD
 11
10150.0
 21
515.0
 31
0.0
  0
TEXT
  8
TEXT
 10
12400.0
 20
530.0
 30
0.0
 40
130.0
  1
BERM 1.5:1
  7
STANDARD
 11
12200.0
 21
530.0
 31
0.0
  0
POLYLINE
  8
WALLS
 66
1
 10
0.0
 20
0.0
 30
0.0
 70
1
  0
VERTEX
  8
WALLS
 10
11000.0
 20
-6700.0
 30
0.0
 70
0
  0
VERTEX
  8
WALLS
 10
22000.0
 20
-6700.0
 30
0.0
 70
0
  0
VERTEX
  8
WALLS
 10
22000.0
 20
-6100.0
 30
0.0
 70
0
  0
VERTEX
  8
WALLS
 10
11000.0
 20
-6100.0
 30
0.0
 70
0
  0
SEQEND
  8
WALLS
  0
LINE
  8
GROUND
 10
11000.0
 20
-6800.0
 30
0.0
 11
22000.0
 21
-6800.0
 31
0.0
  0
POLYLINE
  8
WALLS
 66
1
 10
0.0
 20
0.0
 30
0.0
 70
1
  0
VERTEX
  8
WALLS
 10
11000.0
 20
-2900.0
 30
0.0
 70
0
  0
VERTEX
  8
WALLS
 10
15200.0
 20
-2900.0
 30
0.0
 70
0
  0
VERTEX
  8
WALLS
 10
15200.0
 20
-2000.0
 30
0.0
 70
0
  0
VERTEX
  8
WALLS
 10
11000.0
 20
-2000.0
 30
0.0
 70
0
  0
SEQEND
  8
WALLS
  0
POLYLINE
  8
WALLS
 66
1
 10
0.0
 20
0.0
 30
0.0
 70
1
  0
VERTEX
  8
WALLS
 10
18000.0
 20
-2900.0
 30
0.0
 70
0
  0
VERTEX
  8
WALLS
 10
22000.0
 20
-2900.0
 30
0.0
 70
0
  0
VERTEX
  8
WALLS
 10
22000.0
 20
-2000.0
 30
0.0
 70
0
  0
VERTEX
  8
WALLS
 10
18000.0
 20
-2000.0
 30
0.0
 70
0
  0
SEQEND
  8
WALLS
  0
POLYLINE
  8
WALLS
 66
1
 10
0.0
 20
0.0
 30
0.0
 70
1
  0
VERTEX
  8
WALLS
 10
21400.0
 20
-6100.0
 30
0.0
 70
0
  0
VERTEX
  8
WALLS
 10
22000.0
 20
-6100.0
 30
0.0
 70
0
  0
VERTEX
  8
WALLS
 10
22000.0
 20
-2900.0
 30
0.0
 70
0
  0
VERTEX
  8
WALLS
 10
21400.0
 20
-2900.0
 30
0.0
 70
0
  0
SEQEND
  8
WALLS
  0
POLYLINE
  8
WALLS
 66
1
 10
0.0
 20
0.0
 30
0.0
 70
1
  0
VERTEX
  8
WALLS
 10
14800.0
 20
-6100.0
 30
0.0
 70
0
  0
VERTEX
  8
WALLS
 10
15200.0
 20
-6100.0
 30
0.0
 70
0
  0
VERTEX
  8
WALLS
 10
15200.0
 20
-2900.0
 30
0.0
 70
0
  0
VERTEX
  8
WALLS
 10
14800.0
 20
-2900.0
 30
0.0
 70
0
  0
SEQEND
  8
WALLS
  0
POLYLINE
  8
WALLS
 66
1
 10
0.0
 20
0.0
 30
0.0
 70
1
  0
VERTEX
  8
WALLS
 10
18000.0
 20
-6100.0
 30
0.0
 70
0
  0
VERTEX
  8
WALLS
 10
18400.0
 20
-6100.0
 30
0.0
 70
0
  0
VERTEX
  8
WALLS
 10
18400.0
 20
-2900.0
 30
0.0
 70
0
  0
VERTEX
  8
WALLS
 10
18000.0
 20
-2900.0
 30
0.0
 70
0
  0
SEQEND
  8
WALLS
  0
TEXT
  8
TEXT
 10
11528.0
 20
-2520.0
 30
0.0
 40
120.0
  1
900 PRESSURE SLAB
  7
STANDARD
 11
11528.0
 21
-2520.0
 31
0.0
  0
TEXT
  8
TEXT
 10
13000.0
 20
-5700.0
 30
0.0
 40
120.0
  1
BAY 6 DECON AIRLOCK
  7
STANDARD
 11
13000.0
 21
-5700.0
 31
0.0
  0
TEXT
  8
TEXT
 10
18700.0
 20
-5700.0
 30
0.0
 40
120.0
  1
BAY 8 GENERATOR / GREY
  7
STANDARD
 11
18300.0
 21
-5700.0
 31
0.0
  0
TEXT
  8
TEXT
 10
11402.0
 20
-5920.0
 30
0.0
 40
140.0
  1
UNDERGROUND LEVEL  -6.100
  7
STANDARD
 11
11402.0
 21
-5920.0
 31
0.0
  0
POLYLINE
  8
WALLS
 66
1
 10
0.0
 20
0.0
 30
0.0
 70
1
  0
VERTEX
  8
WALLS
 10
13600.0
 20
-2000.0
 30
0.0
 70
0
  0
VERTEX
  8
WALLS
 10
14000.0
 20
-2000.0
 30
0.0
 70
0
  0
VERTEX
  8
WALLS
 10
14000.0
 20
400.0
 30
0.0
 70
0
  0
VERTEX
  8
WALLS
 10
13600.0
 20
400.0
 30
0.0
 70
0
  0
SEQEND
  8
WALLS
  0
POLYLINE
  8
WALLS
 66
1
 10
0.0
 20
0.0
 30
0.0
 70
1
  0
VERTEX
  8
WALLS
 10
18000.0
 20
-2000.0
 30
0.0
 70
0
  0
VERTEX
  8
WALLS
 10
18400.0
 20
-2000.0
 30
0.0
 70
0
  0
VERTEX
  8
WALLS
 10
18400.0
 20
400.0
 30
0.0
 70
0
  0
VERTEX
  8
WALLS
 10
18000.0
 20
400.0
 30
0.0
 70
0
  0
SEQEND
  8
WALLS
  0
POLYLINE
  8
WALLS
 66
1
 10
0.0
 20
0.0
 30
0.0
 70
1
  0
VERTEX
  8
WALLS
 10
13600.0
 20
400.0
 30
0.0
 70
0
  0
VERTEX
  8
WALLS
 10
18400.0
 20
400.0
 30
0.0
 70
0
  0
VERTEX
  8
WALLS
 10
18400.0
 20
900.0
 30
0.0
 70
0
  0
VERTEX
  8
WALLS
 10
13600.0
 20
900.0
 30
0.0
 70
0
  0
SEQEND
  8
WALLS
  0
POLYLINE
  8
STAIRS
 66
1
 10
0.0
 20
0.0
 30
0.0
 70
1
  0
VERTEX
  8
STAIRS
 10
14000.0
 20
-2200.0
 30
0.0
 70
0
  0
VERTEX
  8
STAIRS
 10
15200.0
 20
-2200.0
 30
0.0
 70
0
  0
VERTEX
  8
STAIRS
 10
15200.0
 20
-2000.0
 30
0.0
 70
0
  0
VERTEX
  8
STAIRS
 10
14000.0
 20
-2000.0
 30
0.0
 70
0
  0
SEQEND
  8
STAIRS
  0
TEXT
  8
TEXT
 10
14060.0
 20
-1570.0
 30
0.0
 40
118.0
  1
HEADHOUSE FLOOR
  7
STANDARD
 11
13860.0
 21
-1570.0
 31
0.0
  0
TEXT
  8
TEXT
 10
14060.0
 20
-1720.0
 30
0.0
 40
105.0
  1
-2.000  =  TOP OF
  7
STANDARD
 11
13860.0
 21
-1720.0
 31
0.0
  0
TEXT
  8
TEXT
 10
14060.0
 20
-1870.0
 30
0.0
 40
105.0
  1
THE PRESSURE SLAB
  7
STANDARD
 11
13860.0
 21
-1870.0
 31
0.0
  0
TEXT
  8
TEXT
 10
13850.0
 20
50.0
 30
0.0
 40
150.0
  1
HEADHOUSE  2400 CLEAR
  7
STANDARD
 11
13650.0
 21
50.0
 31
0.0
  0
TEXT
  8
TEXT
 10
13850.0
 20
-160.0
 30
0.0
 40
115.0
  1
ROOF 500, NO EARTH COVER
  7
STANDARD
 11
13650.0
 21
-160.0
 31
0.0
  0
POLYLINE
  8
STAIRS
 66
1
 10
0.0
 20
0.0
 30
0.0
 70
1
  0
VERTEX
  8
STAIRS
 10
15300.0
 20
-2956.882
 30
0.0
 70
0
  0
VERTEX
  8
STAIRS
 10
16500.0
 20
-2956.882
 30
0.0
 70
0
  0
VERTEX
  8
STAIRS
 10
16500.0
 20
-2756.882
 30
0.0
 70
0
  0
VERTEX
  8
STAIRS
 10
15300.0
 20
-2756.882
 30
0.0
 70
0
  0
SEQEND
  8
STAIRS
  0
TEXT
  8
TEXT
 10
15360.0
 20
-2636.882
 30
0.0
 40
105.0
  1
FLIGHT 3  -2.757
  7
STANDARD
 11
15160.0
 21
-2636.882
 31
0.0
  0
POLYLINE
  8
STAIRS
 66
1
 10
0.0
 20
0.0
 30
0.0
 70
1
  0
VERTEX
  8
STAIRS
 10
16700.0
 20
-4347.287
 30
0.0
 70
0
  0
VERTEX
  8
STAIRS
 10
17900.0
 20
-4347.287
 30
0.0
 70
0
  0
VERTEX
  8
STAIRS
 10
17900.0
 20
-4147.287
 30
0.0
 70
0
  0
VERTEX
  8
STAIRS
 10
16700.0
 20
-4147.287
 30
0.0
 70
0
  0
SEQEND
  8
STAIRS
  0
TEXT
  8
TEXT
 10
16760.0
 20
-4027.287
 30
0.0
 40
105.0
  1
FLIGHT 2  -4.147
  7
STANDARD
 11
16560.0
 21
-4027.287
 31
0.0
  0
POLYLINE
  8
STAIRS
 66
1
 10
0.0
 20
0.0
 30
0.0
 70
1
  0
VERTEX
  8
STAIRS
 10
15300.0
 20
-5689.882
 30
0.0
 70
0
  0
VERTEX
  8
STAIRS
 10
16500.0
 20
-5689.882
 30
0.0
 70
0
  0
VERTEX
  8
STAIRS
 10
16500.0
 20
-5489.882
 30
0.0
 70
0
  0
VERTEX
  8
STAIRS
 10
15300.0
 20
-5489.882
 30
0.0
 70
0
  0
SEQEND
  8
STAIRS
  0
TEXT
  8
TEXT
 10
15360.0
 20
-5606.132
 30
0.0
 40
105.0
  1
FLIGHT 1  -5.490
  7
STANDARD
 11
15160.0
 21
-5606.132
 31
0.0
  0
TEXT
  8
TEXT
 10
15266.0
 20
-950.0
 30
0.0
 40
130.0
  1
VOID - OPEN DOWN TO THE STAIR
  7
STANDARD
 11
15066.0
 21
-950.0
 31
0.0
  0
TEXT
  8
TEXT
 10
15344.75
 20
-1120.0
 30
0.0
 40
115.0
  1
OPENING IN THE 900 PRESSURE SLAB
  7
STANDARD
 11
15144.75
 21
-1120.0
 31
0.0
  0
LINE
  8
OPENINGS
 10
15200.0
 20
-2000.0
 30
0.0
 11
18000.0
 21
-2000.0
 31
0.0
  0
LINE
  8
DIM
 10
15900.0
 20
-5489.882
 30
0.0
 11
15900.0
 21
-2956.882
 31
0.0
  0
TEXT
  8
TEXT
 10
16000.0
 20
-4124.0
 30
0.0
 40
110.0
  1
2533 CLEAR
  7
STANDARD
 11
15800.0
 21
-4124.0
 31
0.0
  0
LINE
  8
HIDDEN
 10
16500.0
 20
-2956.882
 30
0.0
 11
16700.0
 21
-2956.882
 31
0.0
  0
TEXT
  8
TEXT
 10
16380.0
 20
-3156.882
 30
0.0
 40
95.0
  1
200 WELL
  7
STANDARD
 11
16180.0
 21
-3156.882
 31
0.0
  0
POLYLINE
  8
HIDDEN
 66
1
 10
0.0
 20
0.0
 30
0.0
 70
1
  0
VERTEX
  8
HIDDEN
 10
14450.0
 20
-2000.0
 30
0.0
 70
0
  0
VERTEX
  8
HIDDEN
 10
15350.0
 20
-2000.0
 30
0.0
 70
0
  0
VERTEX
  8
HIDDEN
 10
15350.0
 20
100.0
 30
0.0
 70
0
  0
VERTEX
  8
HIDDEN
 10
14450.0
 20
100.0
 30
0.0
 70
0
  0
SEQEND
  8
HIDDEN
  0
TEXT
  8
HIDDEN
 10
14350.0
 20
270.0
 30
0.0
 40
110.0
  1
OUTER DOOR BEYOND (IN THE N WALL)
  7
STANDARD
 11
14150.0
 21
270.0
 31
0.0
  0
POLYLINE
  8
WALLS
 66
1
 10
0.0
 20
0.0
 30
0.0
 70
1
  0
VERTEX
  8
WALLS
 10
18950.0
 20
-2000.0
 30
0.0
 70
0
  0
VERTEX
  8
WALLS
 10
19200.0
 20
-2000.0
 30
0.0
 70
0
  0
VERTEX
  8
WALLS
 10
19200.0
 20
700.0
 30
0.0
 70
0
  0
VERTEX
  8
WALLS
 10
18950.0
 20
700.0
 30
0.0
 70
0
  0
SEQEND
  8
WALLS
  0
POLYLINE
  8
WALLS
 66
1
 10
0.0
 20
0.0
 30
0.0
 70
1
  0
VERTEX
  8
WALLS
 10
20600.0
 20
-2000.0
 30
0.0
 70
0
  0
VERTEX
  8
WALLS
 10
20850.0
 20
-2000.0
 30
0.0
 70
0
  0
VERTEX
  8
WALLS
 10
20850.0
 20
700.0
 30
0.0
 70
0
  0
VERTEX
  8
WALLS
 10
20600.0
 20
700.0
 30
0.0
 70
0
  0
SEQEND
  8
WALLS
  0
LINE
  8
OPENINGS
 10
19200.0
 20
700.0
 30
0.0
 11
20600.0
 21
700.0
 31
0.0
  0
POLYLINE
  8
OPENINGS
 66
1
 10
0.0
 20
0.0
 30
0.0
 70
1
  0
VERTEX
  8
OPENINGS
 10
19200.0
 20
-2900.0
 30
0.0
 70
0
  0
VERTEX
  8
OPENINGS
 10
20600.0
 20
-2900.0
 30
0.0
 70
0
  0
VERTEX
  8
OPENINGS
 10
20600.0
 20
-2000.0
 30
0.0
 70
0
  0
VERTEX
  8
OPENINGS
 10
19200.0
 20
-2000.0
 30
0.0
 70
0
  0
SEQEND
  8
OPENINGS
  0
TEXT
  8
TEXT
 10
19200.0
 20
1020.0
 30
0.0
 40
115.0
  1
ESCAPE SHAFT 2
  7
STANDARD
 11
18800.0
 21
1020.0
 31
0.0
  0
TEXT
  8
TEXT
 10
19200.0
 20
860.0
 30
0.0
 40
110.0
  1
HEAD +0.700
  7
STANDARD
 11
18800.0
 21
860.0
 31
0.0
  0
LINE
  8
DIM
 10
11350.0
 20
-2000.0
 30
0.0
 11
11350.0
 21
400.0
 31
0.0
  0
LINE
  8
DIM
 10
11260.0
 20
-2090.0
 30
0.0
 11
11440.0
 21
-1910.0
 31
0.0
  0
LINE
  8
DIM
 10
11170.0
 20
-2000.0
 30
0.0
 11
11530.0
 21
-2000.0
 31
0.0
  0
LINE
  8
DIM
 10
11260.0
 20
310.0
 30
0.0
 11
11440.0
 21
490.0
 31
0.0
  0
LINE
  8
DIM
 10
11170.0
 20
400.0
 30
0.0
 11
11530.0
 21
400.0
 31
0.0
  0
TEXT
  8
DIM
 10
11278.0
 20
-800.0
 30
0.0
 40
120.0
  1
2400 CLEAR
 50
90.0
  7
STANDARD
 72
1
 11
11278.0
 21
-800.0
 31
0.0
  0
LINE
  8
DIM
 10
22300.0
 20
0.0
 30
0.0
 11
22300.0
 21
900.0
 31
0.0
  0
LINE
  8
DIM
 10
22210.0
 20
-90.0
 30
0.0
 11
22390.0
 21
90.0
 31
0.0
  0
LINE
  8
DIM
 10
22120.0
 20
0.0
 30
0.0
 11
22480.0
 21
0.0
 31
0.0
  0
LINE
  8
DIM
 10
22210.0
 20
810.0
 30
0.0
 11
22390.0
 21
990.0
 31
0.0
  0
LINE
  8
DIM
 10
22120.0
 20
900.0
 30
0.0
 11
22480.0
 21
900.0
 31
0.0
  0
TEXT
  8
DIM
 10
22228.0
 20
450.0
 30
0.0
 40
120.0
  1
900 PROJECTION
 50
90.0
  7
STANDARD
 72
1
 11
22228.0
 21
450.0
 31
0.0
  0
LINE
  8
DIM
 10
21400.0
 20
-2000.0
 30
0.0
 11
21400.0
 21
0.0
 31
0.0
  0
LINE
  8
DIM
 10
21310.0
 20
-2090.0
 30
0.0
 11
21490.0
 21
-1910.0
 31
0.0
  0
LINE
  8
DIM
 10
21220.0
 20
-2000.0
 30
0.0
 11
21580.0
 21
-2000.0
 31
0.0
  0
LINE
  8
DIM
 10
21310.0
 20
-90.0
 30
0.0
 11
21490.0
 21
90.0
 31
0.0
  0
LINE
  8
DIM
 10
21220.0
 20
0.0
 30
0.0
 11
21580.0
 21
0.0
 31
0.0
  0
TEXT
  8
DIM
 10
21328.0
 20
-1000.0
 30
0.0
 40
120.0
  1
2000
 50
90.0
  7
STANDARD
 72
1
 11
21328.0
 21
-1000.0
 31
0.0
  0
LINE
  8
DIM
 10
11700.0
 20
-6100.0
 30
0.0
 11
11700.0
 21
-2000.0
 31
0.0
  0
LINE
  8
DIM
 10
11610.0
 20
-6190.0
 30
0.0
 11
11790.0
 21
-6010.0
 31
0.0
  0
LINE
  8
DIM
 10
11520.0
 20
-6100.0
 30
0.0
 11
11880.0
 21
-6100.0
 31
0.0
  0
LINE
  8
DIM
 10
11610.0
 20
-2090.0
 30
0.0
 11
11790.0
 21
-1910.0
 31
0.0
  0
LINE
  8
DIM
 10
11520.0
 20
-2000.0
 30
0.0
 11
11880.0
 21
-2000.0
 31
0.0
  0
TEXT
  8
DIM
 10
11628.0
 20
-4050.0
 30
0.0
 40
120.0
  1
4100
 50
90.0
  7
STANDARD
 72
1
 11
11628.0
 21
-4050.0
 31
0.0
  0
LINE
  8
DIM
 10
13800.0
 20
-7400.0
 30
0.0
 11
15200.0
 21
-7400.0
 31
0.0
  0
LINE
  8
DIM
 10
13710.0
 20
-7490.0
 30
0.0
 11
13890.0
 21
-7310.0
 31
0.0
  0
LINE
  8
DIM
 10
13800.0
 20
-7580.0
 30
0.0
 11
13800.0
 21
-7220.0
 31
0.0
  0
LINE
  8
DIM
 10
15110.0
 20
-7490.0
 30
0.0
 11
15290.0
 21
-7310.0
 31
0.0
  0
LINE
  8
DIM
 10
15200.0
 20
-7580.0
 30
0.0
 11
15200.0
 21
-7220.0
 31
0.0
  0
TEXT
  8
DIM
 10
14400.0
 20
-7328.0
 30
0.0
 40
120.0
  1
1200 FLOOR
  7
STANDARD
 72
1
 11
14400.0
 21
-7328.0
 31
0.0
  0
LINE
  8
DIM
 10
15200.0
 20
-7400.0
 30
0.0
 11
18000.0
 21
-7400.0
 31
0.0
  0
LINE
  8
DIM
 10
15110.0
 20
-7490.0
 30
0.0
 11
15290.0
 21
-7310.0
 31
0.0
  0
LINE
  8
DIM
 10
15200.0
 20
-7580.0
 30
0.0
 11
15200.0
 21
-7220.0
 31
0.0
  0
LINE
  8
DIM
 10
17910.0
 20
-7490.0
 30
0.0
 11
18090.0
 21
-7310.0
 31
0.0
  0
LINE
  8
DIM
 10
18000.0
 20
-7580.0
 30
0.0
 11
18000.0
 21
-7220.0
 31
0.0
  0
TEXT
  8
DIM
 10
16600.0
 20
-7328.0
 30
0.0
 40
120.0
  1
2800 SHAFT
  7
STANDARD
 72
1
 11
16600.0
 21
-7328.0
 31
0.0
  0
LINE
  8
DIM
 10
15300.0
 20
-8100.0
 30
0.0
 11
16500.0
 21
-8100.0
 31
0.0
  0
LINE
  8
DIM
 10
15210.0
 20
-8190.0
 30
0.0
 11
15390.0
 21
-8010.0
 31
0.0
  0
LINE
  8
DIM
 10
15300.0
 20
-8280.0
 30
0.0
 11
15300.0
 21
-7920.0
 31
0.0
  0
LINE
  8
DIM
 10
16410.0
 20
-8190.0
 30
0.0
 11
16590.0
 21
-8010.0
 31
0.0
  0
LINE
  8
DIM
 10
16500.0
 20
-8280.0
 30
0.0
 11
16500.0
 21
-7920.0
 31
0.0
  0
TEXT
  8
DIM
 10
15900.0
 20
-8028.0
 30
0.0
 40
120.0
  1
1200
  7
STANDARD
 72
1
 11
15900.0
 21
-8028.0
 31
0.0
  0
LINE
  8
DIM
 10
16700.0
 20
-8100.0
 30
0.0
 11
17900.0
 21
-8100.0
 31
0.0
  0
LINE
  8
DIM
 10
16610.0
 20
-8190.0
 30
0.0
 11
16790.0
 21
-8010.0
 31
0.0
  0
LINE
  8
DIM
 10
16700.0
 20
-8280.0
 30
0.0
 11
16700.0
 21
-7920.0
 31
0.0
  0
LINE
  8
DIM
 10
17810.0
 20
-8190.0
 30
0.0
 11
17990.0
 21
-8010.0
 31
0.0
  0
LINE
  8
DIM
 10
17900.0
 20
-8280.0
 30
0.0
 11
17900.0
 21
-7920.0
 31
0.0
  0
TEXT
  8
DIM
 10
17300.0
 20
-8028.0
 30
0.0
 40
120.0
  1
1200
  7
STANDARD
 72
1
 11
17300.0
 21
-8028.0
 31
0.0
  0
LINE
  8
DIM
 10
13600.0
 20
1700.0
 30
0.0
 11
18400.0
 21
1700.0
 31
0.0
  0
LINE
  8
DIM
 10
13510.0
 20
1610.0
 30
0.0
 11
13690.0
 21
1790.0
 31
0.0
  0
LINE
  8
DIM
 10
13600.0
 20
1520.0
 30
0.0
 11
13600.0
 21
1880.0
 31
0.0
  0
LINE
  8
DIM
 10
18310.0
 20
1610.0
 30
0.0
 11
18490.0
 21
1790.0
 31
0.0
  0
LINE
  8
DIM
 10
18400.0
 20
1520.0
 30
0.0
 11
18400.0
 21
1880.0
 31
0.0
  0
TEXT
  8
DIM
 10
16000.0
 20
1772.0
 30
0.0
 40
120.0
  1
4800 HEADHOUSE EXTERNAL
  7
STANDARD
 72
1
 11
16000.0
 21
1772.0
 31
0.0
  0
TEXT
  8
TEXT
 10
11000.0
 20
3300.0
 30
0.0
 40
320.0
  1
SECTION B-B   HEADHOUSE CUTAWAY  (CUT AT Z = 2800)
  7
STANDARD
 11
11000.0
 21
3300.0
 31
0.0
  0
TEXT
  8
TEXT
 10
11000.0
 20
2900.0
 30
0.0
 40
150.0
  1
SHOWS: HEADHOUSE FLOOR AT -2.000 IS THE TOP OF THE PRESSURE SLAB;
  7
STANDARD
 11
11000.0
 21
2900.0
 31
0.0
  0
TEXT
  8
TEXT
 10
11000.0
 20
2680.0
 30
0.0
 40
150.0
  1
THE STAIR RISES THROUGH AN OPENING IN THAT SLAB INTO THE HEADHOUSE.
  7
STANDARD
 11
11000.0
 21
2680.0
 31
0.0
  0
TEXT
  8
TEXT
 10
11000.0
 20
2400.0
 30
0.0
 40
130.0
  1
SCALE 1:50   DIMENSIONS mm   LEVELS m
  7
STANDARD
 11
11000.0
 21
2400.0
 31
0.0
  0
TEXT
  8
TEXT
 10
11000.0
 20
-8400.0
 30
0.0
 40
120.0
  1
MOD M1 (APPROVED) - W6 AND W7 400 THK; BOX 22000; SHAFT 15200-18000; ESC2 AT X 19900; HEADHOUSE AND COVERED STAIRWELL +200. GEOMETRY REV F + M1.
  7
STANDARD
 11
11000.0
 21
-8400.0
 31
0.0
  0
LINE
  8
SHEET-BORDER
 10
1072.8097789685198
 20
-24780.0
 30
0.0
 11
43122.80977896852
 21
-24780.0
 31
0.0
  0
LINE
  8
SHEET-BORDER
 10
43122.80977896852
 20
-24780.0
 30
0.0
 11
43122.80977896852
 21
4920.0
 31
0.0
  0
LINE
  8
SHEET-BORDER
 10
43122.80977896852
 20
4920.0
 30
0.0
 11
1072.8097789685198
 21
4920.0
 31
0.0
  0
LINE
  8
SHEET-BORDER
 10
1072.8097789685198
 20
4920.0
 30
0.0
 11
1072.8097789685198
 21
-24780.0
 31
0.0
  0
LINE
  8
SHEET-BORDER
 10
1572.8097789685198
 20
-24280.0
 30
0.0
 11
42622.80977896852
 21
-24280.0
 31
0.0
  0
LINE
  8
SHEET-BORDER
 10
42622.80977896852
 20
-24280.0
 30
0.0
 11
42622.80977896852
 21
4420.0
 31
0.0
  0
LINE
  8
SHEET-BORDER
 10
42622.80977896852
 20
4420.0
 30
0.0
 11
1572.8097789685198
 21
4420.0
 31
0.0
  0
LINE
  8
SHEET-BORDER
 10
1572.8097789685198
 20
4420.0
 30
0.0
 11
1572.8097789685198
 21
-24280.0
 31
0.0
  0
LINE
  8
SHEET-TITLEBLOCK
 10
33622.80977896852
 20
-24280.0
 30
0.0
 11
42622.80977896852
 21
-24280.0
 31
0.0
  0
LINE
  8
SHEET-TITLEBLOCK
 10
42622.80977896852
 20
-24280.0
 30
0.0
 11
42622.80977896852
 21
-19280.0
 31
0.0
  0
LINE
  8
SHEET-TITLEBLOCK
 10
42622.80977896852
 20
-19280.0
 30
0.0
 11
33622.80977896852
 21
-19280.0
 31
0.0
  0
LINE
  8
SHEET-TITLEBLOCK
 10
33622.80977896852
 20
-19280.0
 30
0.0
 11
33622.80977896852
 21
-24280.0
 31
0.0
  0
LINE
  8
SHEET-TITLEBLOCK
 10
33622.80977896852
 20
-23280.0
 30
0.0
 11
42622.80977896852
 21
-23280.0
 31
0.0
  0
LINE
  8
SHEET-TITLEBLOCK
 10
33622.80977896852
 20
-22680.0
 30
0.0
 11
42622.80977896852
 21
-22680.0
 31
0.0
  0
LINE
  8
SHEET-TITLEBLOCK
 10
33622.80977896852
 20
-22080.0
 30
0.0
 11
42622.80977896852
 21
-22080.0
 31
0.0
  0
LINE
  8
SHEET-TITLEBLOCK
 10
33622.80977896852
 20
-21480.0
 30
0.0
 11
42622.80977896852
 21
-21480.0
 31
0.0
  0
LINE
  8
SHEET-TITLEBLOCK
 10
33622.80977896852
 20
-20380.0
 30
0.0
 11
42622.80977896852
 21
-20380.0
 31
0.0
  0
LINE
  8
SHEET-TITLEBLOCK
 10
39222.80977896852
 20
-24280.0
 30
0.0
 11
39222.80977896852
 21
-23280.0
 31
0.0
  0
LINE
  8
SHEET-TITLEBLOCK
 10
40922.80977896852
 20
-24280.0
 30
0.0
 11
40922.80977896852
 21
-23280.0
 31
0.0
  0
LINE
  8
SHEET-TITLEBLOCK
 10
38422.80977896852
 20
-23280.0
 30
0.0
 11
38422.80977896852
 21
-22680.0
 31
0.0
  0
TEXT
  8
SHEET-TEXT
 10
33722.80977896852
 20
-23550.0
 30
0.0
 40
70.0
  1
DRAWING No.
 11
33722.80977896852
 21
-23550.0
 31
0.0
  0
TEXT
  8
SHEET-TEXT
 10
34422.80977896852
 20
-24070.0
 30
0.0
 40
220.00000000000003
  1
A-203
 11
34422.80977896852
 21
-24070.0
 31
0.0
  0
TEXT
  8
SHEET-TEXT
 10
39322.80977896852
 20
-23550.0
 30
0.0
 40
70.0
  1
REV
 11
39322.80977896852
 21
-23550.0
 31
0.0
  0
TEXT
  8
SHEET-TEXT
 10
39322.80977896852
 20
-24050.0
 30
0.0
 40
140.0
  1
F + M1
 11
39322.80977896852
 21
-24050.0
 31
0.0
  0
TEXT
  8
SHEET-TEXT
 10
41022.80977896852
 20
-23550.0
 30
0.0
 40
70.0
  1
SHEET
 11
41022.80977896852
 21
-23550.0
 31
0.0
  0
TEXT
  8
SHEET-TEXT
 10
41022.80977896852
 20
-24030.0
 30
0.0
 40
95.0
  1
8 OF 10
 11
41022.80977896852
 21
-24030.0
 31
0.0
  0
TEXT
  8
SHEET-TEXT
 10
33722.80977896852
 20
-23060.0
 30
0.0
 40
95.0
  1
SCALE   1:50 AT A1
 11
33722.80977896852
 21
-23060.0
 31
0.0
  0
TEXT
  8
SHEET-TEXT
 10
38522.80977896852
 20
-23060.0
 30
0.0
 40
95.0
  1
DATE   09.09.2026
 11
38522.80977896852
 21
-23060.0
 31
0.0
  0
TEXT
  8
SHEET-TEXT
 10
33722.80977896852
 20
-22460.0
 30
0.0
 40
75.0
  1
DRAWN  [PLACEHOLDER]
 11
33722.80977896852
 21
-22460.0
 31
0.0
  0
TEXT
  8
SHEET-TEXT
 10
36722.80977896852
 20
-22460.0
 30
0.0
 40
75.0
  1
CHECKED  [PLACEHOLDER]
 11
36722.80977896852
 21
-22460.0
 31
0.0
  0
TEXT
  8
SHEET-TEXT
 10
39722.80977896852
 20
-22460.0
 30
0.0
 40
75.0
  1
APPROVED  [PLACEHOLDER]
 11
39722.80977896852
 21
-22460.0
 31
0.0
  0
TEXT
  8
SHEET-TEXT
 10
33722.80977896852
 20
-21860.0
 30
0.0
 40
70.0
  1
STATUS
 11
33722.80977896852
 21
-21860.0
 31
0.0
  0
TEXT
  8
SHEET-TEXT
 10
34722.80977896852
 20
-21880.0
 30
0.0
 40
95.0
  1
FOR REVIEW - NOT FOR CONSTRUCTION
 11
34722.80977896852
 21
-21880.0
 31
0.0
  0
TEXT
  8
SHEET-TEXT
 10
33722.80977896852
 20
-20610.0
 30
0.0
 40
70.0
  1
DRAWING TITLE
 11
33722.80977896852
 21
-20610.0
 31
0.0
  0
TEXT
  8
SHEET-TEXT
 10
33722.80977896852
 20
-21010.0
 30
0.0
 40
120.0
  1
SECTION B-B - HEADHOUSE CUTAWAY
 11
33722.80977896852
 21
-21010.0
 31
0.0
  0
TEXT
  8
SHEET-TEXT
 10
33722.80977896852
 20
-21340.0
 30
0.0
 40
75.0
  1
CUT AT Z = 2800 - HEADHOUSE WALLS, ROOF AND ENTRY
 11
33722.80977896852
 21
-21340.0
 31
0.0
  0
TEXT
  8
SHEET-TEXT
 10
33722.80977896852
 20
-19520.0
 30
0.0
 40
70.0
  1
PROJECT
 11
33722.80977896852
 21
-19520.0
 31
0.0
  0
TEXT
  8
SHEET-TEXT
 10
33722.80977896852
 20
-19800.0
 30
0.0
 40
95.0
  1
UNDERGROUND CBRN-HARDENED BLAST-RESISTANT
 11
33722.80977896852
 21
-19800.0
 31
0.0
  0
TEXT
  8
SHEET-TEXT
 10
33722.80977896852
 20
-20030.0
 30
0.0
 40
95.0
  1
PROTECTIVE STRUCTURE  -  PUNE, MAHARASHTRA
 11
33722.80977896852
 21
-20030.0
 31
0.0
  0
TEXT
  8
SHEET-TEXT
 10
33722.80977896852
 20
-20270.0
 30
0.0
 40
75.0
  1
ARCHITECTURAL REV F  +  MODIFICATION M1
 11
33722.80977896852
 21
-20270.0
 31
0.0
  0
TEXT
  8
SHEET-TEXT
 10
1672.8097789685198
 20
4045.0
 30
0.0
 40
160.0
  1
A-203   SECTION B-B - HEADHOUSE CUTAWAY
 11
1672.8097789685198
 21
4045.0
 31
0.0
  0
LINE
  8
SHEET-BORDER
 10
1572.8097789685198
 20
3895.0
 30
0.0
 11
42622.80977896852
 21
3895.0
 31
0.0
  0
TEXT
  8
SHEET-TEXT
 10
1672.8097789685198
 20
-24155.0
 30
0.0
 40
75.0
  1
QA1  09.09.2026   DRAWING QA/QC - ANNOTATION POSITIONS, SHEET FRAME AND TITLE BLOCK.  NO GEOMETRY, DIMENSION OR VALUE CHANGED.
 11
1672.8097789685198
 21
-24155.0
 31
0.0
  0
ENDSEC
  0
EOF
