0
SECTION
2
HEADER
9
$ACADVER
1
AC1009
9
$INSUNITS
70
4
9
$MEASUREMENT
70
1
9
$LTSCALE
40
25.0
9
$LIMCHECK
70
0
9
$EXTMIN
10
-5060.000
20
-5300.000
30
0.0
9
$EXTMAX
10
8420.000
20
9050.000
30
0.0
9
$LIMMIN
10
-5060.000
20
-5300.000
9
$LIMMAX
10
8420.000
20
9050.000
0
ENDSEC
0
SECTION
2
TABLES
0
TABLE
2
LTYPE
70
3
0
LTYPE
2
CONTINUOUS
70
0
3
Solid line
72
65
73
0
40
0.0
0
LTYPE
2
DASHED
70
0
3
Dashed __ __ __
72
65
73
2
40
15.0
49
10.0
49
-5.0
0
LTYPE
2
CENTER
70
0
3
Centre ____ _ ____
72
65
73
4
40
50.0
49
32.0
49
-6.0
49
6.0
49
-6.0
0
ENDTAB
0
TABLE
2
LAYER
70
10
0
LAYER
2
0
70
0
62
7
6
CONTINUOUS
0
LAYER
2
WALLS
70
0
62
7
6
CONTINUOUS
0
LAYER
2
OPENINGS
70
0
62
1
6
CONTINUOUS
0
LAYER
2
STAIRS
70
0
62
3
6
CONTINUOUS
0
LAYER
2
GROUND
70
0
62
42
6
CONTINUOUS
0
LAYER
2
TEXT
70
0
62
2
6
CONTINUOUS
0
LAYER
2
DIM
70
0
62
4
6
CONTINUOUS
0
LAYER
2
HIDDEN
70
0
62
8
6
DASHED
0
LAYER
2
CENTRE
70
0
62
6
6
CENTER
0
LAYER
2
BEYOND
70
0
62
9
6
CONTINUOUS
0
ENDTAB
0
TABLE
2
STYLE
70
1
0
STYLE
2
STANDARD
70
0
40
0.0
41
1.0
50
0.0
71
0
42
2.5
3
txt
4

0
ENDTAB
0
TABLE
2
APPID
70
1
0
APPID
2
ACAD
70
0
0
ENDTAB
0
ENDSEC
0
SECTION
2
BLOCKS
0
ENDSEC
0
SECTION
2
ENTITIES
0
POLYLINE
8
HIDDEN
66
1
10
0.0
20
0.0
30
0.0
70
1
0
VERTEX
8
HIDDEN
10
-300.000
20
-300.000
30
0.0
0
VERTEX
8
HIDDEN
10
4300.000
20
-300.000
30
0.0
0
VERTEX
8
HIDDEN
10
4300.000
20
5300.000
30
0.0
0
VERTEX
8
HIDDEN
10
-300.000
20
5300.000
30
0.0
0
SEQEND
8
HIDDEN
0
TEXT
8
TEXT
10
2000.000
20
5560.000
30
0.0
40
120.000
1
300 PROJECTION WITH 300 HIGH PARDI OVER
7
STANDARD
72
1
11
2000.000
21
5560.000
31
0.0
0
POLYLINE
8
WALLS
66
1
10
0.0
20
0.0
30
0.0
70
1
0
VERTEX
8
WALLS
10
0.000
20
0.000
30
0.0
0
VERTEX
8
WALLS
10
200.000
20
0.000
30
0.0
0
VERTEX
8
WALLS
10
200.000
20
1000.000
30
0.0
0
VERTEX
8
WALLS
10
0.000
20
1000.000
30
0.0
0
SEQEND
8
WALLS
0
POLYLINE
8
WALLS
66
1
10
0.0
20
0.0
30
0.0
70
1
0
VERTEX
8
WALLS
10
0.000
20
1900.000
30
0.0
0
VERTEX
8
WALLS
10
200.000
20
1900.000
30
0.0
0
VERTEX
8
WALLS
10
200.000
20
5000.000
30
0.0
0
VERTEX
8
WALLS
10
0.000
20
5000.000
30
0.0
0
SEQEND
8
WALLS
0
POLYLINE
8
WALLS
66
1
10
0.0
20
0.0
30
0.0
70
1
0
VERTEX
8
WALLS
10
3800.000
20
0.000
30
0.0
0
VERTEX
8
WALLS
10
4000.000
20
0.000
30
0.0
0
VERTEX
8
WALLS
10
4000.000
20
5000.000
30
0.0
0
VERTEX
8
WALLS
10
3800.000
20
5000.000
30
0.0
0
SEQEND
8
WALLS
0
POLYLINE
8
WALLS
66
1
10
0.0
20
0.0
30
0.0
70
1
0
VERTEX
8
WALLS
10
0.000
20
0.000
30
0.0
0
VERTEX
8
WALLS
10
4000.000
20
0.000
30
0.0
0
VERTEX
8
WALLS
10
4000.000
20
200.000
30
0.0
0
VERTEX
8
WALLS
10
0.000
20
200.000
30
0.0
0
SEQEND
8
WALLS
0
POLYLINE
8
WALLS
66
1
10
0.0
20
0.0
30
0.0
70
1
0
VERTEX
8
WALLS
10
0.000
20
4800.000
30
0.0
0
VERTEX
8
WALLS
10
4000.000
20
4800.000
30
0.0
0
VERTEX
8
WALLS
10
4000.000
20
5000.000
30
0.0
0
VERTEX
8
WALLS
10
0.000
20
5000.000
30
0.0
0
SEQEND
8
WALLS
0
LINE
8
WALLS
10
0.000
20
0.000
30
0.0
11
4000.000
21
0.000
31
0.0
0
LINE
8
WALLS
10
0.000
20
5000.000
30
0.0
11
4000.000
21
5000.000
31
0.0
0
LINE
8
WALLS
10
0.000
20
0.000
30
0.0
11
0.000
21
5000.000
31
0.0
0
LINE
8
WALLS
10
4000.000
20
0.000
30
0.0
11
4000.000
21
5000.000
31
0.0
0
LINE
8
OPENINGS
10
200.000
20
1000.000
30
0.0
11
200.000
21
1900.000
31
0.0
0
LINE
8
OPENINGS
10
200.000
20
1000.000
30
0.0
11
1100.000
21
1000.000
31
0.0
0
ARC
8
OPENINGS
10
200.000
20
1000.000
30
0.0
40
900.000
50
0.000
51
90.000
0
TEXT
8
TEXT
10
900.000
20
750.000
30
0.0
40
120.000
1
D1  900
7
STANDARD
72
0
11
900.000
21
750.000
31
0.0
0
POLYLINE
8
OPENINGS
66
1
10
0.0
20
0.0
30
0.0
70
1
0
VERTEX
8
OPENINGS
10
3800.000
20
1000.000
30
0.0
0
VERTEX
8
OPENINGS
10
4000.000
20
1000.000
30
0.0
0
VERTEX
8
OPENINGS
10
4000.000
20
2200.000
30
0.0
0
VERTEX
8
OPENINGS
10
3800.000
20
2200.000
30
0.0
0
SEQEND
8
OPENINGS
0
POLYLINE
8
OPENINGS
66
1
10
0.0
20
0.0
30
0.0
70
1
0
VERTEX
8
OPENINGS
10
0.000
20
1000.000
30
0.0
0
VERTEX
8
OPENINGS
10
200.000
20
1000.000
30
0.0
0
VERTEX
8
OPENINGS
10
200.000
20
2200.000
30
0.0
0
VERTEX
8
OPENINGS
10
0.000
20
2200.000
30
0.0
0
SEQEND
8
OPENINGS
0
POLYLINE
8
OPENINGS
66
1
10
0.0
20
0.0
30
0.0
70
1
0
VERTEX
8
OPENINGS
10
3800.000
20
2800.000
30
0.0
0
VERTEX
8
OPENINGS
10
4000.000
20
2800.000
30
0.0
0
VERTEX
8
OPENINGS
10
4000.000
20
4000.000
30
0.0
0
VERTEX
8
OPENINGS
10
3800.000
20
4000.000
30
0.0
0
SEQEND
8
OPENINGS
0
POLYLINE
8
OPENINGS
66
1
10
0.0
20
0.0
30
0.0
70
1
0
VERTEX
8
OPENINGS
10
0.000
20
2800.000
30
0.0
0
VERTEX
8
OPENINGS
10
200.000
20
2800.000
30
0.0
0
VERTEX
8
OPENINGS
10
200.000
20
4000.000
30
0.0
0
VERTEX
8
OPENINGS
10
0.000
20
4000.000
30
0.0
0
SEQEND
8
OPENINGS
0
POLYLINE
8
OPENINGS
66
1
10
0.0
20
0.0
30
0.0
70
1
0
VERTEX
8
OPENINGS
10
650.000
20
0.000
30
0.0
0
VERTEX
8
OPENINGS
10
1850.000
20
0.000
30
0.0
0
VERTEX
8
OPENINGS
10
1850.000
20
200.000
30
0.0
0
VERTEX
8
OPENINGS
10
650.000
20
200.000
30
0.0
0
SEQEND
8
OPENINGS
0
POLYLINE
8
OPENINGS
66
1
10
0.0
20
0.0
30
0.0
70
1
0
VERTEX
8
OPENINGS
10
650.000
20
4800.000
30
0.0
0
VERTEX
8
OPENINGS
10
1850.000
20
4800.000
30
0.0
0
VERTEX
8
OPENINGS
10
1850.000
20
5000.000
30
0.0
0
VERTEX
8
OPENINGS
10
650.000
20
5000.000
30
0.0
0
SEQEND
8
OPENINGS
0
POLYLINE
8
OPENINGS
66
1
10
0.0
20
0.0
30
0.0
70
1
0
VERTEX
8
OPENINGS
10
2150.000
20
0.000
30
0.0
0
VERTEX
8
OPENINGS
10
3350.000
20
0.000
30
0.0
0
VERTEX
8
OPENINGS
10
3350.000
20
200.000
30
0.0
0
VERTEX
8
OPENINGS
10
2150.000
20
200.000
30
0.0
0
SEQEND
8
OPENINGS
0
POLYLINE
8
OPENINGS
66
1
10
0.0
20
0.0
30
0.0
70
1
0
VERTEX
8
OPENINGS
10
2150.000
20
4800.000
30
0.0
0
VERTEX
8
OPENINGS
10
3350.000
20
4800.000
30
0.0
0
VERTEX
8
OPENINGS
10
3350.000
20
5000.000
30
0.0
0
VERTEX
8
OPENINGS
10
2150.000
20
5000.000
30
0.0
0
SEQEND
8
OPENINGS
0
TEXT
8
TEXT
10
2000.000
20
2700.000
30
0.0
40
150.000
1
OBSERVATION POST
7
STANDARD
72
1
11
2000.000
21
2700.000
31
0.0
0
TEXT
8
TEXT
10
2000.000
20
2400.000
30
0.0
40
150.000
1
FIRST FLOOR
7
STANDARD
72
1
11
2000.000
21
2400.000
31
0.0
0
TEXT
8
TEXT
10
2000.000
20
2000.000
30
0.0
40
120.000
1
ARMOURED VISION PANELS 1200 WIDE, ALL FOUR FACES
7
STANDARD
72
1
11
2000.000
21
2000.000
31
0.0
0
POLYLINE
8
WALLS
66
1
10
0.0
20
0.0
30
0.0
70
1
0
VERTEX
8
WALLS
10
0.000
20
0.000
30
0.0
0
VERTEX
8
WALLS
10
350.000
20
0.000
30
0.0
0
VERTEX
8
WALLS
10
350.000
20
350.000
30
0.0
0
VERTEX
8
WALLS
10
0.000
20
350.000
30
0.0
0
SEQEND
8
WALLS
0
LINE
8
WALLS
10
0.000
20
0.000
30
0.0
11
350.000
21
350.000
31
0.0
0
LINE
8
WALLS
10
0.000
20
350.000
30
0.0
11
350.000
21
0.000
31
0.0
0
POLYLINE
8
WALLS
66
1
10
0.0
20
0.0
30
0.0
70
1
0
VERTEX
8
WALLS
10
0.000
20
4650.000
30
0.0
0
VERTEX
8
WALLS
10
350.000
20
4650.000
30
0.0
0
VERTEX
8
WALLS
10
350.000
20
5000.000
30
0.0
0
VERTEX
8
WALLS
10
0.000
20
5000.000
30
0.0
0
SEQEND
8
WALLS
0
LINE
8
WALLS
10
0.000
20
4650.000
30
0.0
11
350.000
21
5000.000
31
0.0
0
LINE
8
WALLS
10
0.000
20
5000.000
30
0.0
11
350.000
21
4650.000
31
0.0
0
POLYLINE
8
WALLS
66
1
10
0.0
20
0.0
30
0.0
70
1
0
VERTEX
8
WALLS
10
3650.000
20
0.000
30
0.0
0
VERTEX
8
WALLS
10
4000.000
20
0.000
30
0.0
0
VERTEX
8
WALLS
10
4000.000
20
350.000
30
0.0
0
VERTEX
8
WALLS
10
3650.000
20
350.000
30
0.0
0
SEQEND
8
WALLS
0
LINE
8
WALLS
10
3650.000
20
0.000
30
0.0
11
4000.000
21
350.000
31
0.0
0
LINE
8
WALLS
10
3650.000
20
350.000
30
0.0
11
4000.000
21
0.000
31
0.0
0
POLYLINE
8
WALLS
66
1
10
0.0
20
0.0
30
0.0
70
1
0
VERTEX
8
WALLS
10
3650.000
20
4650.000
30
0.0
0
VERTEX
8
WALLS
10
4000.000
20
4650.000
30
0.0
0
VERTEX
8
WALLS
10
4000.000
20
5000.000
30
0.0
0
VERTEX
8
WALLS
10
3650.000
20
5000.000
30
0.0
0
SEQEND
8
WALLS
0
LINE
8
WALLS
10
3650.000
20
4650.000
30
0.0
11
4000.000
21
5000.000
31
0.0
0
LINE
8
WALLS
10
3650.000
20
5000.000
30
0.0
11
4000.000
21
4650.000
31
0.0
0
LINE
8
HIDDEN
10
175.000
20
50.000
30
0.0
11
3825.000
21
50.000
31
0.0
0
LINE
8
HIDDEN
10
175.000
20
300.000
30
0.0
11
3825.000
21
300.000
31
0.0
0
LINE
8
HIDDEN
10
175.000
20
4700.000
30
0.0
11
3825.000
21
4700.000
31
0.0
0
LINE
8
HIDDEN
10
175.000
20
4950.000
30
0.0
11
3825.000
21
4950.000
31
0.0
0
LINE
8
HIDDEN
10
50.000
20
175.000
30
0.0
11
50.000
21
4825.000
31
0.0
0
LINE
8
HIDDEN
10
300.000
20
175.000
30
0.0
11
300.000
21
4825.000
31
0.0
0
LINE
8
HIDDEN
10
3700.000
20
175.000
30
0.0
11
3700.000
21
4825.000
31
0.0
0
LINE
8
HIDDEN
10
3950.000
20
175.000
30
0.0
11
3950.000
21
4825.000
31
0.0
0
TEXT
8
TEXT
10
575.000
20
2640.000
30
0.0
40
120.000
1
B1 / B2  250 x 450  ROOF BEAMS OVER
7
STANDARD
72
0
11
575.000
21
2640.000
31
0.0
0
LINE
8
CENTRE
10
175.000
20
-900.000
30
0.0
11
175.000
21
5900.000
31
0.0
0
CIRCLE
8
DIM
10
175.000
20
6200.000
30
0.0
40
260.000
0
TEXT
8
DIM
10
175.000
20
6110.000
30
0.0
40
180.000
1
A
7
STANDARD
72
1
11
175.000
21
6110.000
31
0.0
0
LINE
8
CENTRE
10
3825.000
20
-900.000
30
0.0
11
3825.000
21
5900.000
31
0.0
0
CIRCLE
8
DIM
10
3825.000
20
6200.000
30
0.0
40
260.000
0
TEXT
8
DIM
10
3825.000
20
6110.000
30
0.0
40
180.000
1
B
7
STANDARD
72
1
11
3825.000
21
6110.000
31
0.0
0
LINE
8
CENTRE
10
-2500.000
20
175.000
30
0.0
11
4900.000
21
175.000
31
0.0
0
CIRCLE
8
DIM
10
-2800.000
20
175.000
30
0.0
40
260.000
0
TEXT
8
DIM
10
-2800.000
20
85.000
30
0.0
40
180.000
1
1
7
STANDARD
72
1
11
-2800.000
21
85.000
31
0.0
0
LINE
8
CENTRE
10
-2500.000
20
4825.000
30
0.0
11
4900.000
21
4825.000
31
0.0
0
CIRCLE
8
DIM
10
-2800.000
20
4825.000
30
0.0
40
260.000
0
TEXT
8
DIM
10
-2800.000
20
4735.000
30
0.0
40
180.000
1
2
7
STANDARD
72
1
11
-2800.000
21
4735.000
31
0.0
0
CIRCLE
8
STAIRS
10
-1150.000
20
1450.000
30
0.0
40
1000.000
0
CIRCLE
8
STAIRS
10
-1150.000
20
1450.000
30
0.0
40
125.000
0
LINE
8
STAIRS
10
-1025.000
20
1450.000
30
0.0
11
-150.000
21
1450.000
31
0.0
0
LINE
8
STAIRS
10
-1041.747
20
1512.500
30
0.0
11
-283.975
21
1950.000
31
0.0
0
LINE
8
STAIRS
10
-1087.500
20
1558.253
30
0.0
11
-650.000
21
2316.025
31
0.0
0
LINE
8
STAIRS
10
-1150.000
20
1575.000
30
0.0
11
-1150.000
21
2450.000
31
0.0
0
LINE
8
STAIRS
10
-1212.500
20
1558.253
30
0.0
11
-1650.000
21
2316.025
31
0.0
0
LINE
8
STAIRS
10
-1258.253
20
1512.500
30
0.0
11
-2016.025
21
1950.000
31
0.0
0
LINE
8
STAIRS
10
-1275.000
20
1450.000
30
0.0
11
-2150.000
21
1450.000
31
0.0
0
LINE
8
STAIRS
10
-1258.253
20
1387.500
30
0.0
11
-2016.025
21
950.000
31
0.0
0
LINE
8
STAIRS
10
-1212.500
20
1341.747
30
0.0
11
-1650.000
21
583.975
31
0.0
0
LINE
8
STAIRS
10
-1150.000
20
1325.000
30
0.0
11
-1150.000
21
450.000
31
0.0
0
LINE
8
STAIRS
10
-1087.500
20
1341.747
30
0.0
11
-650.000
21
583.975
31
0.0
0
LINE
8
STAIRS
10
-1041.747
20
1387.500
30
0.0
11
-283.975
21
950.000
31
0.0
0
LINE
8
CENTRE
10
-1450.000
20
1450.000
30
0.0
11
-850.000
21
1450.000
31
0.0
0
LINE
8
CENTRE
10
-1150.000
20
1150.000
30
0.0
11
-1150.000
21
1750.000
31
0.0
0
POLYLINE
8
STAIRS
66
1
10
0.0
20
0.0
30
0.0
70
1
0
VERTEX
8
STAIRS
10
-150.000
20
1000.000
30
0.0
0
VERTEX
8
STAIRS
10
0.000
20
1000.000
30
0.0
0
VERTEX
8
STAIRS
10
0.000
20
1900.000
30
0.0
0
VERTEX
8
STAIRS
10
-150.000
20
1900.000
30
0.0
0
SEQEND
8
STAIRS
0
TEXT
8
TEXT
10
-1150.000
20
-450.000
30
0.0
40
120.000
1
SPIRAL STAIR 1000 R
7
STANDARD
72
1
11
-1150.000
21
-450.000
31
0.0
0
TEXT
8
TEXT
10
-1150.000
20
-630.000
30
0.0
40
120.000
1
250 DIA CENTRAL POLE
7
STANDARD
72
1
11
-1150.000
21
-630.000
31
0.0
0
LINE
8
STAIRS
10
-1150.000
20
900.000
30
0.0
11
-1150.000
21
2000.000
31
0.0
0
LINE
8
STAIRS
10
-1150.000
20
2000.000
30
0.0
11
-1240.000
21
1820.000
31
0.0
0
LINE
8
STAIRS
10
-1150.000
20
2000.000
30
0.0
11
-1060.000
21
1820.000
31
0.0
0
LINE
8
DIM
10
0.000
20
-1600.000
30
0.0
11
4000.000
21
-1600.000
31
0.0
0
LINE
8
DIM
10
-90.000
20
-1690.000
30
0.0
11
90.000
21
-1510.000
31
0.0
0
LINE
8
DIM
10
0.000
20
-1780.000
30
0.0
11
0.000
21
-1420.000
31
0.0
0
LINE
8
DIM
10
3910.000
20
-1690.000
30
0.0
11
4090.000
21
-1510.000
31
0.0
0
LINE
8
DIM
10
4000.000
20
-1780.000
30
0.0
11
4000.000
21
-1420.000
31
0.0
0
TEXT
8
DIM
10
2000.000
20
-1528.000
30
0.0
40
120.000
1
4000 EXTERNAL
7
STANDARD
72
1
11
2000.000
21
-1528.000
31
0.0
0
LINE
8
DIM
10
200.000
20
-1000.000
30
0.0
11
3800.000
21
-1000.000
31
0.0
0
LINE
8
DIM
10
110.000
20
-1090.000
30
0.0
11
290.000
21
-910.000
31
0.0
0
LINE
8
DIM
10
200.000
20
-1180.000
30
0.0
11
200.000
21
-820.000
31
0.0
0
LINE
8
DIM
10
3710.000
20
-1090.000
30
0.0
11
3890.000
21
-910.000
31
0.0
0
LINE
8
DIM
10
3800.000
20
-1180.000
30
0.0
11
3800.000
21
-820.000
31
0.0
0
TEXT
8
DIM
10
2000.000
20
-928.000
30
0.0
40
120.000
1
3600 INTERNAL
7
STANDARD
72
1
11
2000.000
21
-928.000
31
0.0
0
LINE
8
DIM
10
5400.000
20
0.000
30
0.0
11
5400.000
21
5000.000
31
0.0
0
LINE
8
DIM
10
5310.000
20
-90.000
30
0.0
11
5490.000
21
90.000
31
0.0
0
LINE
8
DIM
10
5220.000
20
0.000
30
0.0
11
5580.000
21
0.000
31
0.0
0
LINE
8
DIM
10
5310.000
20
4910.000
30
0.0
11
5490.000
21
5090.000
31
0.0
0
LINE
8
DIM
10
5220.000
20
5000.000
30
0.0
11
5580.000
21
5000.000
31
0.0
0
TEXT
8
DIM
10
5328.000
20
2500.000
30
0.0
40
120.000
1
5000 EXTERNAL
50
90.000
7
STANDARD
72
1
11
5328.000
21
2500.000
31
0.0
0
LINE
8
DIM
10
4800.000
20
200.000
30
0.0
11
4800.000
21
4800.000
31
0.0
0
LINE
8
DIM
10
4710.000
20
110.000
30
0.0
11
4890.000
21
290.000
31
0.0
0
LINE
8
DIM
10
4620.000
20
200.000
30
0.0
11
4980.000
21
200.000
31
0.0
0
LINE
8
DIM
10
4710.000
20
4710.000
30
0.0
11
4890.000
21
4890.000
31
0.0
0
LINE
8
DIM
10
4620.000
20
4800.000
30
0.0
11
4980.000
21
4800.000
31
0.0
0
TEXT
8
DIM
10
4728.000
20
2500.000
30
0.0
40
120.000
1
4600 INTERNAL
50
90.000
7
STANDARD
72
1
11
4728.000
21
2500.000
31
0.0
0
TEXT
8
TEXT
10
-2150.000
20
6800.000
30
0.0
40
250.000
1
DRAWING 4  -  SENTRY POST FIRST FLOOR PLAN
7
STANDARD
72
0
11
-2150.000
21
6800.000
31
0.0
0
TEXT
8
TEXT
10
-2150.000
20
6400.000
30
0.0
40
120.000
1
SCALE 1:50 AT A1   -   ALL DIMENSIONS IN MILLIMETRES
7
STANDARD
72
0
11
-2150.000
21
6400.000
31
0.0
0
TEXT
8
TEXT
10
-2150.000
20
-2100.000
30
0.0
40
120.000
1
FFL +3.650   -   WALL POSITIONS IDENTICAL ON BOTH FLOORS
7
STANDARD
72
0
11
-2150.000
21
-2100.000
31
0.0
0
TEXT
8
TEXT
10
-2150.000
20
-2400.000
30
0.0
40
120.000
1
SENTRY POST SITED 10 m CLEAR OF THE SHELTER, ON ITS OWN FOOTINGS
7
STANDARD
72
0
11
-2150.000
21
-2400.000
31
0.0
0
TEXT
8
TEXT
10
-2150.000
20
-2700.000
30
0.0
40
120.000
1
FRAMED SCHEME: 4 CORNER COLUMNS 350 SQ, BEAMS 250 x 450, SLAB 150 TWO-WAY
7
STANDARD
72
0
11
-2150.000
21
-2700.000
31
0.0
0
TEXT
8
TEXT
10
-2150.000
20
-3000.000
30
0.0
40
120.000
1
200 RC BALLISTIC PANELS ARE INFILL - SEE THE FRAMING PLAN, DRAWING 6
7
STANDARD
72
0
11
-2150.000
21
-3000.000
31
0.0
0
TEXT
8
TEXT
10
-2150.000
20
-3300.000
30
0.0
40
120.000
1
C1 COLUMNS 350 x 350 AT THE FOUR CORNERS, OUTER FACES FLUSH WITH THE WALL
7
STANDARD
72
0
11
-2150.000
21
-3300.000
31
0.0
0
ENDSEC
0
EOF
