  0
SECTION
  2
HEADER
  9
$ACADVER
  1
AC1009
  9
$DWGCODEPAGE
  3
ANSI_1252
  9
$EXTMIN
 10
1e+20
 20
1e+20
 30
1e+20
  9
$EXTMAX
 10
-1e+20
 20
-1e+20
 30
-1e+20
  9
$LIMMIN
 10
0.0
 20
0.0
  9
$LIMMAX
 10
420.0
 20
297.0
  9
$LTSCALE
 40
25.0
  9
$LIMCHECK
 70
0
  9
$TDCREATE
 40
2461294.084664352
  9
$TDUPDATE
 40
2461294.084664352
  9
$PEXTMIN
 10
1e+20
 20
1e+20
 30
1e+20
  9
$PEXTMAX
 10
-1e+20
 20
-1e+20
 30
-1e+20
  9
$PLIMMIN
 10
0.0
 20
0.0
  9
$PLIMMAX
 10
420.0
 20
297.0
  0
ENDSEC
  0
SECTION
  2
TABLES
  0
TABLE
  2
VPORT
 70
1
  0
VPORT
  2
*Active
 70
0
 10
0.0
 20
0.0
 11
1.0
 21
1.0
 12
0.0
 22
0.0
 13
0.0
 23
0.0
 14
0.5
 24
0.5
 15
0.5
 25
0.5
 16
0.0
 26
0.0
 36
1.0
 17
0.0
 27
0.0
 37
0.0
 40
1000.0
 41
1.34
 42
50.0
 43
0.0
 44
0.0
 50
0.0
 51
0.0
 71
0
 72
1000
 73
1
 74
3
 75
0
 76
0
 77
0
 78
0
  0
ENDTAB
  0
TABLE
  2
LTYPE
 70
5
  0
LTYPE
  2
CONTINUOUS
 70
0
  3
Solid line
 72
65
 73
0
 40
0.0
  0
LTYPE
  2
DASHED
 70
0
  3
Dashed __ __ __
 72
65
 73
2
 40
15.0
 49
10.0
 49
-5.0
  0
LTYPE
  2
CENTER
 70
0
  3
Centre ____ _ ____
 72
65
 73
4
 40
50.0
 49
32.0
 49
-6.0
 49
6.0
 49
-6.0
  0
LTYPE
  2
ByBlock
 70
0
  3

 72
65
 73
0
 40
0.0
  0
LTYPE
  2
ByLayer
 70
0
  3

 72
65
 73
0
 40
0.0
  0
ENDTAB
  0
TABLE
  2
LAYER
 70
15
  0
LAYER
  2
0
 70
0
 62
7
  6
CONTINUOUS
  0
LAYER
  2
WALLS
 70
0
 62
7
  6
CONTINUOUS
  0
LAYER
  2
OPENINGS
 70
0
 62
1
  6
CONTINUOUS
  0
LAYER
  2
STAIRS
 70
0
 62
3
  6
CONTINUOUS
  0
LAYER
  2
GROUND
 70
0
 62
42
  6
CONTINUOUS
  0
LAYER
  2
TEXT
 70
0
 62
2
  6
CONTINUOUS
  0
LAYER
  2
DIM
 70
0
 62
4
  6
CONTINUOUS
  0
LAYER
  2
HIDDEN
 70
0
 62
8
  6
DASHED
  0
LAYER
  2
CENTRE
 70
0
 62
6
  6
CENTER
  0
LAYER
  2
BEYOND
 70
0
 62
9
  6
CONTINUOUS
  0
LAYER
  2
Defpoints
 70
0
 62
7
  6
Continuous
  0
LAYER
  2
LEADER
 70
0
 62
7
  6
Continuous
  0
LAYER
  2
SHEET-BORDER
 70
0
 62
7
  6
Continuous
  0
LAYER
  2
SHEET-TITLEBLOCK
 70
0
 62
7
  6
Continuous
  0
LAYER
  2
SHEET-TEXT
 70
0
 62
7
  6
Continuous
  0
ENDTAB
  0
TABLE
  2
STYLE
 70
1
  0
STYLE
  2
STANDARD
 70
0
 40
0.0
 41
1.0
 50
0.0
 71
0
 42
2.5
  3
txt
  4

  0
ENDTAB
  0
TABLE
  2
VIEW
 70
0
  0
ENDTAB
  0
TABLE
  2
UCS
 70
0
  0
ENDTAB
  0
TABLE
  2
APPID
 70
3
  0
APPID
  2
ACAD
 70
0
  0
APPID
  2
HATCHBACKGROUNDCOLOR
 70
0
  0
APPID
  2
EZDXF
 70
0
  0
ENDTAB
  0
TABLE
  2
DIMSTYLE
 70
1
  0
DIMSTYLE
  2
Standard
 70
0
  3

  4

  5

  6

  7

 40
1.0
 41
2.5
 42
0.625
 43
3.75
 44
1.25
 45
0.0
 46
0.0
 47
0.0
 48
0.0
140
2.5
141
2.5
142
0.0
143
0.03937007874
144
1.0
145
0.0
146
1.0
147
0.625
 71
0
 72
0
 73
0
 74
0
 75
0
 76
0
 77
1
 78
8
170
0
171
3
172
1
173
0
174
0
175
0
176
0
177
0
178
0
  0
ENDTAB
  0
ENDSEC
  0
SECTION
  2
BLOCKS
  0
BLOCK
  8
0
  2
$Model_Space
 70
0
 10
0.0
 20
0.0
 30
0.0
  3
$Model_Space
  1

1001
EZDXF
1000
WRITTEN_BY_EZDXF
1000
1.4.4 @ 2026-09-10T02:01:55.690925+00:00
  0
ENDBLK
  8
0
  0
BLOCK
  8
0
  2
$Paper_Space
 70
0
 10
0.0
 20
0.0
 30
0.0
  3
$Paper_Space
  1

  0
ENDBLK
  8
0
  0
ENDSEC
  0
SECTION
  2
ENTITIES
  0
POLYLINE
  8
HIDDEN
 66
1
 10
0.0
 20
0.0
 30
0.0
 70
1
  0
VERTEX
  8
HIDDEN
 10
-300.0
 20
-8480.760214333557
 30
0.0
 70
0
  0
VERTEX
  8
HIDDEN
 10
4300.0
 20
-8480.760214333557
 30
0.0
 70
0
  0
VERTEX
  8
HIDDEN
 10
4300.0
 20
-2880.760214333557
 30
0.0
 70
0
  0
VERTEX
  8
HIDDEN
 10
-300.0
 20
-2880.760214333557
 30
0.0
 70
0
  0
SEQEND
  8
HIDDEN
  0
TEXT
  8
TEXT
 10
2000.0
 20
-2620.760214333557
 30
0.0
 40
120.0
  1
300 PROJECTION WITH 300 HIGH PARDI OVER
  7
STANDARD
 72
1
 11
2000.0
 21
-2620.760214333557
 31
0.0
  0
POLYLINE
  8
WALLS
 66
1
 10
0.0
 20
0.0
 30
0.0
 70
1
  0
VERTEX
  8
WALLS
 10
0.0
 20
-8180.760214333557
 30
0.0
 70
0
  0
VERTEX
  8
WALLS
 10
200.0
 20
-8180.760214333557
 30
0.0
 70
0
  0
VERTEX
  8
WALLS
 10
200.0
 20
-7180.760214333557
 30
0.0
 70
0
  0
VERTEX
  8
WALLS
 10
0.0
 20
-7180.760214333557
 30
0.0
 70
0
  0
SEQEND
  8
WALLS
  0
POLYLINE
  8
WALLS
 66
1
 10
0.0
 20
0.0
 30
0.0
 70
1
  0
VERTEX
  8
WALLS
 10
0.0
 20
-6280.760214333557
 30
0.0
 70
0
  0
VERTEX
  8
WALLS
 10
200.0
 20
-6280.760214333557
 30
0.0
 70
0
  0
VERTEX
  8
WALLS
 10
200.0
 20
-3180.760214333557
 30
0.0
 70
0
  0
VERTEX
  8
WALLS
 10
0.0
 20
-3180.760214333557
 30
0.0
 70
0
  0
SEQEND
  8
WALLS
  0
POLYLINE
  8
WALLS
 66
1
 10
0.0
 20
0.0
 30
0.0
 70
1
  0
VERTEX
  8
WALLS
 10
3800.0
 20
-8180.760214333557
 30
0.0
 70
0
  0
VERTEX
  8
WALLS
 10
4000.0
 20
-8180.760214333557
 30
0.0
 70
0
  0
VERTEX
  8
WALLS
 10
4000.0
 20
-3180.760214333557
 30
0.0
 70
0
  0
VERTEX
  8
WALLS
 10
3800.0
 20
-3180.760214333557
 30
0.0
 70
0
  0
SEQEND
  8
WALLS
  0
POLYLINE
  8
WALLS
 66
1
 10
0.0
 20
0.0
 30
0.0
 70
1
  0
VERTEX
  8
WALLS
 10
0.0
 20
-8180.760214333557
 30
0.0
 70
0
  0
VERTEX
  8
WALLS
 10
4000.0
 20
-8180.760214333557
 30
0.0
 70
0
  0
VERTEX
  8
WALLS
 10
4000.0
 20
-7980.760214333557
 30
0.0
 70
0
  0
VERTEX
  8
WALLS
 10
0.0
 20
-7980.760214333557
 30
0.0
 70
0
  0
SEQEND
  8
WALLS
  0
POLYLINE
  8
WALLS
 66
1
 10
0.0
 20
0.0
 30
0.0
 70
1
  0
VERTEX
  8
WALLS
 10
0.0
 20
-3380.760214333557
 30
0.0
 70
0
  0
VERTEX
  8
WALLS
 10
4000.0
 20
-3380.760214333557
 30
0.0
 70
0
  0
VERTEX
  8
WALLS
 10
4000.0
 20
-3180.760214333557
 30
0.0
 70
0
  0
VERTEX
  8
WALLS
 10
0.0
 20
-3180.760214333557
 30
0.0
 70
0
  0
SEQEND
  8
WALLS
  0
LINE
  8
WALLS
 10
0.0
 20
-8180.760214333557
 30
0.0
 11
4000.0
 21
-8180.760214333557
 31
0.0
  0
LINE
  8
WALLS
 10
0.0
 20
-3180.760214333557
 30
0.0
 11
4000.0
 21
-3180.760214333557
 31
0.0
  0
LINE
  8
WALLS
 10
0.0
 20
-8180.760214333557
 30
0.0
 11
0.0
 21
-3180.760214333557
 31
0.0
  0
LINE
  8
WALLS
 10
4000.0
 20
-8180.760214333557
 30
0.0
 11
4000.0
 21
-3180.760214333557
 31
0.0
  0
LINE
  8
OPENINGS
 10
200.0
 20
-7180.760214333557
 30
0.0
 11
200.0
 21
-6280.760214333557
 31
0.0
  0
LINE
  8
OPENINGS
 10
200.0
 20
-7180.760214333557
 30
0.0
 11
1100.0
 21
-7180.760214333557
 31
0.0
  0
ARC
  8
OPENINGS
 10
200.0
 20
-7180.760214333557
 30
0.0
 40
900.0
 50
0.0
 51
90.0
  0
TEXT
  8
TEXT
 10
900.0
 20
-7430.760214333557
 30
0.0
 40
120.0
  1
D1  900
  7
STANDARD
 11
900.0
 21
-7430.760214333557
 31
0.0
  0
POLYLINE
  8
OPENINGS
 66
1
 10
0.0
 20
0.0
 30
0.0
 70
1
  0
VERTEX
  8
OPENINGS
 10
3800.0
 20
-7180.760214333557
 30
0.0
 70
0
  0
VERTEX
  8
OPENINGS
 10
4000.0
 20
-7180.760214333557
 30
0.0
 70
0
  0
VERTEX
  8
OPENINGS
 10
4000.0
 20
-5980.760214333557
 30
0.0
 70
0
  0
VERTEX
  8
OPENINGS
 10
3800.0
 20
-5980.760214333557
 30
0.0
 70
0
  0
SEQEND
  8
OPENINGS
  0
POLYLINE
  8
OPENINGS
 66
1
 10
0.0
 20
0.0
 30
0.0
 70
1
  0
VERTEX
  8
OPENINGS
 10
0.0
 20
-7180.760214333557
 30
0.0
 70
0
  0
VERTEX
  8
OPENINGS
 10
200.0
 20
-7180.760214333557
 30
0.0
 70
0
  0
VERTEX
  8
OPENINGS
 10
200.0
 20
-5980.760214333557
 30
0.0
 70
0
  0
VERTEX
  8
OPENINGS
 10
0.0
 20
-5980.760214333557
 30
0.0
 70
0
  0
SEQEND
  8
OPENINGS
  0
POLYLINE
  8
OPENINGS
 66
1
 10
0.0
 20
0.0
 30
0.0
 70
1
  0
VERTEX
  8
OPENINGS
 10
3800.0
 20
-5380.760214333557
 30
0.0
 70
0
  0
VERTEX
  8
OPENINGS
 10
4000.0
 20
-5380.760214333557
 30
0.0
 70
0
  0
VERTEX
  8
OPENINGS
 10
4000.0
 20
-4180.760214333557
 30
0.0
 70
0
  0
VERTEX
  8
OPENINGS
 10
3800.0
 20
-4180.760214333557
 30
0.0
 70
0
  0
SEQEND
  8
OPENINGS
  0
POLYLINE
  8
OPENINGS
 66
1
 10
0.0
 20
0.0
 30
0.0
 70
1
  0
VERTEX
  8
OPENINGS
 10
0.0
 20
-5380.760214333557
 30
0.0
 70
0
  0
VERTEX
  8
OPENINGS
 10
200.0
 20
-5380.760214333557
 30
0.0
 70
0
  0
VERTEX
  8
OPENINGS
 10
200.0
 20
-4180.760214333557
 30
0.0
 70
0
  0
VERTEX
  8
OPENINGS
 10
0.0
 20
-4180.760214333557
 30
0.0
 70
0
  0
SEQEND
  8
OPENINGS
  0
POLYLINE
  8
OPENINGS
 66
1
 10
0.0
 20
0.0
 30
0.0
 70
1
  0
VERTEX
  8
OPENINGS
 10
650.0
 20
-8180.760214333557
 30
0.0
 70
0
  0
VERTEX
  8
OPENINGS
 10
1850.0
 20
-8180.760214333557
 30
0.0
 70
0
  0
VERTEX
  8
OPENINGS
 10
1850.0
 20
-7980.760214333557
 30
0.0
 70
0
  0
VERTEX
  8
OPENINGS
 10
650.0
 20
-7980.760214333557
 30
0.0
 70
0
  0
SEQEND
  8
OPENINGS
  0
POLYLINE
  8
OPENINGS
 66
1
 10
0.0
 20
0.0
 30
0.0
 70
1
  0
VERTEX
  8
OPENINGS
 10
650.0
 20
-3380.760214333557
 30
0.0
 70
0
  0
VERTEX
  8
OPENINGS
 10
1850.0
 20
-3380.760214333557
 30
0.0
 70
0
  0
VERTEX
  8
OPENINGS
 10
1850.0
 20
-3180.760214333557
 30
0.0
 70
0
  0
VERTEX
  8
OPENINGS
 10
650.0
 20
-3180.760214333557
 30
0.0
 70
0
  0
SEQEND
  8
OPENINGS
  0
POLYLINE
  8
OPENINGS
 66
1
 10
0.0
 20
0.0
 30
0.0
 70
1
  0
VERTEX
  8
OPENINGS
 10
2150.0
 20
-8180.760214333557
 30
0.0
 70
0
  0
VERTEX
  8
OPENINGS
 10
3350.0
 20
-8180.760214333557
 30
0.0
 70
0
  0
VERTEX
  8
OPENINGS
 10
3350.0
 20
-7980.760214333557
 30
0.0
 70
0
  0
VERTEX
  8
OPENINGS
 10
2150.0
 20
-7980.760214333557
 30
0.0
 70
0
  0
SEQEND
  8
OPENINGS
  0
POLYLINE
  8
OPENINGS
 66
1
 10
0.0
 20
0.0
 30
0.0
 70
1
  0
VERTEX
  8
OPENINGS
 10
2150.0
 20
-3380.760214333557
 30
0.0
 70
0
  0
VERTEX
  8
OPENINGS
 10
3350.0
 20
-3380.760214333557
 30
0.0
 70
0
  0
VERTEX
  8
OPENINGS
 10
3350.0
 20
-3180.760214333557
 30
0.0
 70
0
  0
VERTEX
  8
OPENINGS
 10
2150.0
 20
-3180.760214333557
 30
0.0
 70
0
  0
SEQEND
  8
OPENINGS
  0
TEXT
  8
TEXT
 10
2000.0
 20
-5345.760214333557
 30
0.0
 40
150.0
  1
OBSERVATION POST
  7
STANDARD
 72
1
 11
2000.0
 21
-5345.760214333557
 31
0.0
  0
TEXT
  8
TEXT
 10
2000.0
 20
-5780.760214333557
 30
0.0
 40
150.0
  1
FIRST FLOOR
  7
STANDARD
 72
1
 11
2000.0
 21
-5780.760214333557
 31
0.0
  0
TEXT
  8
TEXT
 10
2000.0
 20
-6180.760214333557
 30
0.0
 40
120.0
  1
ARMOURED VISION PANELS 1200 WIDE, ALL FOUR FACES
  7
STANDARD
 72
1
 11
2000.0
 21
-6180.760214333557
 31
0.0
  0
POLYLINE
  8
WALLS
 66
1
 10
0.0
 20
0.0
 30
0.0
 70
1
  0
VERTEX
  8
WALLS
 10
0.0
 20
-8180.760214333557
 30
0.0
 70
0
  0
VERTEX
  8
WALLS
 10
350.0
 20
-8180.760214333557
 30
0.0
 70
0
  0
VERTEX
  8
WALLS
 10
350.0
 20
-7830.760214333557
 30
0.0
 70
0
  0
VERTEX
  8
WALLS
 10
0.0
 20
-7830.760214333557
 30
0.0
 70
0
  0
SEQEND
  8
WALLS
  0
LINE
  8
WALLS
 10
0.0
 20
-8180.760214333557
 30
0.0
 11
350.0
 21
-7830.760214333557
 31
0.0
  0
LINE
  8
WALLS
 10
0.0
 20
-7830.760214333557
 30
0.0
 11
350.0
 21
-8180.760214333557
 31
0.0
  0
POLYLINE
  8
WALLS
 66
1
 10
0.0
 20
0.0
 30
0.0
 70
1
  0
VERTEX
  8
WALLS
 10
0.0
 20
-3530.760214333557
 30
0.0
 70
0
  0
VERTEX
  8
WALLS
 10
350.0
 20
-3530.760214333557
 30
0.0
 70
0
  0
VERTEX
  8
WALLS
 10
350.0
 20
-3180.760214333557
 30
0.0
 70
0
  0
VERTEX
  8
WALLS
 10
0.0
 20
-3180.760214333557
 30
0.0
 70
0
  0
SEQEND
  8
WALLS
  0
LINE
  8
WALLS
 10
0.0
 20
-3530.760214333557
 30
0.0
 11
350.0
 21
-3180.760214333557
 31
0.0
  0
LINE
  8
WALLS
 10
0.0
 20
-3180.760214333557
 30
0.0
 11
350.0
 21
-3530.760214333557
 31
0.0
  0
POLYLINE
  8
WALLS
 66
1
 10
0.0
 20
0.0
 30
0.0
 70
1
  0
VERTEX
  8
WALLS
 10
3650.0
 20
-8180.760214333557
 30
0.0
 70
0
  0
VERTEX
  8
WALLS
 10
4000.0
 20
-8180.760214333557
 30
0.0
 70
0
  0
VERTEX
  8
WALLS
 10
4000.0
 20
-7830.760214333557
 30
0.0
 70
0
  0
VERTEX
  8
WALLS
 10
3650.0
 20
-7830.760214333557
 30
0.0
 70
0
  0
SEQEND
  8
WALLS
  0
LINE
  8
WALLS
 10
3650.0
 20
-8180.760214333557
 30
0.0
 11
4000.0
 21
-7830.760214333557
 31
0.0
  0
LINE
  8
WALLS
 10
3650.0
 20
-7830.760214333557
 30
0.0
 11
4000.0
 21
-8180.760214333557
 31
0.0
  0
POLYLINE
  8
WALLS
 66
1
 10
0.0
 20
0.0
 30
0.0
 70
1
  0
VERTEX
  8
WALLS
 10
3650.0
 20
-3530.760214333557
 30
0.0
 70
0
  0
VERTEX
  8
WALLS
 10
4000.0
 20
-3530.760214333557
 30
0.0
 70
0
  0
VERTEX
  8
WALLS
 10
4000.0
 20
-3180.760214333557
 30
0.0
 70
0
  0
VERTEX
  8
WALLS
 10
3650.0
 20
-3180.760214333557
 30
0.0
 70
0
  0
SEQEND
  8
WALLS
  0
LINE
  8
WALLS
 10
3650.0
 20
-3530.760214333557
 30
0.0
 11
4000.0
 21
-3180.760214333557
 31
0.0
  0
LINE
  8
WALLS
 10
3650.0
 20
-3180.760214333557
 30
0.0
 11
4000.0
 21
-3530.760214333557
 31
0.0
  0
LINE
  8
HIDDEN
 10
175.0
 20
-8130.760214333557
 30
0.0
 11
3825.0
 21
-8130.760214333557
 31
0.0
  0
LINE
  8
HIDDEN
 10
175.0
 20
-7880.760214333557
 30
0.0
 11
3825.0
 21
-7880.760214333557
 31
0.0
  0
LINE
  8
HIDDEN
 10
175.0
 20
-3480.760214333557
 30
0.0
 11
3825.0
 21
-3480.760214333557
 31
0.0
  0
LINE
  8
HIDDEN
 10
175.0
 20
-3230.760214333557
 30
0.0
 11
3825.0
 21
-3230.760214333557
 31
0.0
  0
LINE
  8
HIDDEN
 10
50.0
 20
-8005.760214333557
 30
0.0
 11
50.0
 21
-3355.760214333557
 31
0.0
  0
LINE
  8
HIDDEN
 10
300.0
 20
-8005.760214333557
 30
0.0
 11
300.0
 21
-3355.760214333557
 31
0.0
  0
LINE
  8
HIDDEN
 10
3700.0
 20
-8005.760214333557
 30
0.0
 11
3700.0
 21
-3355.760214333557
 31
0.0
  0
LINE
  8
HIDDEN
 10
3950.0
 20
-8005.760214333557
 30
0.0
 11
3950.0
 21
-3355.760214333557
 31
0.0
  0
TEXT
  8
TEXT
 10
575.0
 20
-5540.760214333557
 30
0.0
 40
120.0
  1
B1 / B2  250 x 450  ROOF BEAMS OVER
  7
STANDARD
 11
575.0
 21
-5540.760214333557
 31
0.0
  0
LINE
  8
CENTRE
 10
175.0
 20
-9080.760214333557
 30
0.0
 11
175.0
 21
-2280.760214333557
 31
0.0
  0
CIRCLE
  8
DIM
 10
175.0
 20
-1980.760214333557
 30
0.0
 40
260.0
  0
TEXT
  8
DIM
 10
175.0
 20
-2070.760214333557
 30
0.0
 40
180.0
  1
A
  7
STANDARD
 72
1
 11
175.0
 21
-2070.760214333557
 31
0.0
  0
LINE
  8
CENTRE
 10
3825.0
 20
-9080.760214333557
 30
0.0
 11
3825.0
 21
-2280.760214333557
 31
0.0
  0
CIRCLE
  8
DIM
 10
3825.0
 20
-1980.760214333557
 30
0.0
 40
260.0
  0
TEXT
  8
DIM
 10
3825.0
 20
-2070.760214333557
 30
0.0
 40
180.0
  1
B
  7
STANDARD
 72
1
 11
3825.0
 21
-2070.760214333557
 31
0.0
  0
LINE
  8
CENTRE
 10
-2500.0
 20
-8005.760214333557
 30
0.0
 11
4900.0
 21
-8005.760214333557
 31
0.0
  0
CIRCLE
  8
DIM
 10
-2800.0
 20
-8005.760214333557
 30
0.0
 40
260.0
  0
TEXT
  8
DIM
 10
-2800.0
 20
-8095.760214333557
 30
0.0
 40
180.0
  1
1
  7
STANDARD
 72
1
 11
-2800.0
 21
-8095.760214333557
 31
0.0
  0
LINE
  8
CENTRE
 10
-2500.0
 20
-3355.760214333557
 30
0.0
 11
4900.0
 21
-3355.760214333557
 31
0.0
  0
CIRCLE
  8
DIM
 10
-2800.0
 20
-3355.760214333557
 30
0.0
 40
260.0
  0
TEXT
  8
DIM
 10
-2800.0
 20
-3445.760214333557
 30
0.0
 40
180.0
  1
2
  7
STANDARD
 72
1
 11
-2800.0
 21
-3445.760214333557
 31
0.0
  0
CIRCLE
  8
STAIRS
 10
-1150.0
 20
-6730.760214333557
 30
0.0
 40
1000.0
  0
CIRCLE
  8
STAIRS
 10
-1150.0
 20
-6730.760214333557
 30
0.0
 40
125.0
  0
LINE
  8
STAIRS
 10
-1025.0
 20
-6730.760214333557
 30
0.0
 11
-150.0
 21
-6730.760214333557
 31
0.0
  0
LINE
  8
STAIRS
 10
-1041.747
 20
-6668.260214333557
 30
0.0
 11
-283.975
 21
-6230.760214333557
 31
0.0
  0
LINE
  8
STAIRS
 10
-1087.5
 20
-6622.507214333557
 30
0.0
 11
-650.0
 21
-5864.735214333557
 31
0.0
  0
LINE
  8
STAIRS
 10
-1150.0
 20
-6605.760214333557
 30
0.0
 11
-1150.0
 21
-5730.760214333557
 31
0.0
  0
LINE
  8
STAIRS
 10
-1212.5
 20
-6622.507214333557
 30
0.0
 11
-1650.0
 21
-5864.735214333557
 31
0.0
  0
LINE
  8
STAIRS
 10
-1258.253
 20
-6668.260214333557
 30
0.0
 11
-2016.025
 21
-6230.760214333557
 31
0.0
  0
LINE
  8
STAIRS
 10
-1275.0
 20
-6730.760214333557
 30
0.0
 11
-2150.0
 21
-6730.760214333557
 31
0.0
  0
LINE
  8
STAIRS
 10
-1258.253
 20
-6793.260214333557
 30
0.0
 11
-2016.025
 21
-7230.760214333557
 31
0.0
  0
LINE
  8
STAIRS
 10
-1212.5
 20
-6839.013214333557
 30
0.0
 11
-1650.0
 21
-7596.785214333557
 31
0.0
  0
LINE
  8
STAIRS
 10
-1150.0
 20
-6855.760214333557
 30
0.0
 11
-1150.0
 21
-7730.760214333557
 31
0.0
  0
LINE
  8
STAIRS
 10
-1087.5
 20
-6839.013214333557
 30
0.0
 11
-650.0
 21
-7596.785214333557
 31
0.0
  0
LINE
  8
STAIRS
 10
-1041.747
 20
-6793.260214333557
 30
0.0
 11
-283.975
 21
-7230.760214333557
 31
0.0
  0
LINE
  8
CENTRE
 10
-1450.0
 20
-6730.760214333557
 30
0.0
 11
-850.0
 21
-6730.760214333557
 31
0.0
  0
LINE
  8
CENTRE
 10
-1150.0
 20
-7030.760214333557
 30
0.0
 11
-1150.0
 21
-6430.760214333557
 31
0.0
  0
POLYLINE
  8
STAIRS
 66
1
 10
0.0
 20
0.0
 30
0.0
 70
1
  0
VERTEX
  8
STAIRS
 10
-150.0
 20
-7180.760214333557
 30
0.0
 70
0
  0
VERTEX
  8
STAIRS
 10
0.0
 20
-7180.760214333557
 30
0.0
 70
0
  0
VERTEX
  8
STAIRS
 10
0.0
 20
-6280.760214333557
 30
0.0
 70
0
  0
VERTEX
  8
STAIRS
 10
-150.0
 20
-6280.760214333557
 30
0.0
 70
0
  0
SEQEND
  8
STAIRS
  0
TEXT
  8
TEXT
 10
-1150.0
 20
-8630.760214333557
 30
0.0
 40
120.0
  1
SPIRAL STAIR 1000 R
  7
STANDARD
 72
1
 11
-1150.0
 21
-8630.760214333557
 31
0.0
  0
TEXT
  8
TEXT
 10
-1150.0
 20
-8810.760214333557
 30
0.0
 40
120.0
  1
250 DIA CENTRAL POLE
  7
STANDARD
 72
1
 11
-1150.0
 21
-8810.760214333557
 31
0.0
  0
LINE
  8
STAIRS
 10
-1150.0
 20
-7280.760214333557
 30
0.0
 11
-1150.0
 21
-6180.760214333557
 31
0.0
  0
LINE
  8
STAIRS
 10
-1150.0
 20
-6180.760214333557
 30
0.0
 11
-1240.0
 21
-6360.760214333557
 31
0.0
  0
LINE
  8
STAIRS
 10
-1150.0
 20
-6180.760214333557
 30
0.0
 11
-1060.0
 21
-6360.760214333557
 31
0.0
  0
LINE
  8
DIM
 10
0.0
 20
-9780.760214333557
 30
0.0
 11
4000.0
 21
-9780.760214333557
 31
0.0
  0
LINE
  8
DIM
 10
-90.0
 20
-9870.760214333557
 30
0.0
 11
90.0
 21
-9690.760214333557
 31
0.0
  0
LINE
  8
DIM
 10
0.0
 20
-9960.760214333557
 30
0.0
 11
0.0
 21
-9600.760214333557
 31
0.0
  0
LINE
  8
DIM
 10
3910.0
 20
-9870.760214333557
 30
0.0
 11
4090.0
 21
-9690.760214333557
 31
0.0
  0
LINE
  8
DIM
 10
4000.0
 20
-9960.760214333557
 30
0.0
 11
4000.0
 21
-9600.760214333557
 31
0.0
  0
TEXT
  8
DIM
 10
2000.0
 20
-9708.760214333557
 30
0.0
 40
120.0
  1
4000 EXTERNAL
  7
STANDARD
 72
1
 11
2000.0
 21
-9708.760214333557
 31
0.0
  0
LINE
  8
DIM
 10
200.0
 20
-9180.760214333557
 30
0.0
 11
3800.0
 21
-9180.760214333557
 31
0.0
  0
LINE
  8
DIM
 10
110.0
 20
-9270.760214333557
 30
0.0
 11
290.0
 21
-9090.760214333557
 31
0.0
  0
LINE
  8
DIM
 10
200.0
 20
-9360.760214333557
 30
0.0
 11
200.0
 21
-9000.760214333557
 31
0.0
  0
LINE
  8
DIM
 10
3710.0
 20
-9270.760214333557
 30
0.0
 11
3890.0
 21
-9090.760214333557
 31
0.0
  0
LINE
  8
DIM
 10
3800.0
 20
-9360.760214333557
 30
0.0
 11
3800.0
 21
-9000.760214333557
 31
0.0
  0
TEXT
  8
DIM
 10
2000.0
 20
-9108.760214333557
 30
0.0
 40
120.0
  1
3600 INTERNAL
  7
STANDARD
 72
1
 11
2000.0
 21
-9108.760214333557
 31
0.0
  0
LINE
  8
DIM
 10
5400.0
 20
-8180.760214333557
 30
0.0
 11
5400.0
 21
-3180.760214333557
 31
0.0
  0
LINE
  8
DIM
 10
5310.0
 20
-8270.760214333557
 30
0.0
 11
5490.0
 21
-8090.760214333557
 31
0.0
  0
LINE
  8
DIM
 10
5220.0
 20
-8180.760214333557
 30
0.0
 11
5580.0
 21
-8180.760214333557
 31
0.0
  0
LINE
  8
DIM
 10
5310.0
 20
-3270.760214333557
 30
0.0
 11
5490.0
 21
-3090.760214333557
 31
0.0
  0
LINE
  8
DIM
 10
5220.0
 20
-3180.760214333557
 30
0.0
 11
5580.0
 21
-3180.760214333557
 31
0.0
  0
TEXT
  8
DIM
 10
5328.0
 20
-5680.760214333557
 30
0.0
 40
120.0
  1
5000 EXTERNAL
 50
90.0
  7
STANDARD
 72
1
 11
5328.0
 21
-5680.760214333557
 31
0.0
  0
LINE
  8
DIM
 10
4800.0
 20
-7980.760214333557
 30
0.0
 11
4800.0
 21
-3380.760214333557
 31
0.0
  0
LINE
  8
DIM
 10
4710.0
 20
-8070.760214333557
 30
0.0
 11
4890.0
 21
-7890.760214333557
 31
0.0
  0
LINE
  8
DIM
 10
4620.0
 20
-7980.760214333557
 30
0.0
 11
4980.0
 21
-7980.760214333557
 31
0.0
  0
LINE
  8
DIM
 10
4710.0
 20
-3470.760214333557
 30
0.0
 11
4890.0
 21
-3290.760214333557
 31
0.0
  0
LINE
  8
DIM
 10
4620.0
 20
-3380.760214333557
 30
0.0
 11
4980.0
 21
-3380.760214333557
 31
0.0
  0
TEXT
  8
DIM
 10
4728.0
 20
-5680.760214333557
 30
0.0
 40
120.0
  1
4600 INTERNAL
 50
90.0
  7
STANDARD
 72
1
 11
4728.0
 21
-5680.760214333557
 31
0.0
  0
TEXT
  8
TEXT
 10
-2150.0
 20
-1380.760214333557
 30
0.0
 40
250.0
  1
DRAWING 4  -  SENTRY POST FIRST FLOOR PLAN
  7
STANDARD
 11
-2150.0
 21
-1380.760214333557
 31
0.0
  0
TEXT
  8
TEXT
 10
-2150.0
 20
-1672.760214333557
 30
0.0
 40
120.0
  1
SCALE 1:50 AT A1   -   ALL DIMENSIONS IN MILLIMETRES
  7
STANDARD
 11
-2150.0
 21
-1672.760214333557
 31
0.0
  0
TEXT
  8
TEXT
 10
-2150.0
 20
-10280.760214333557
 30
0.0
 40
120.0
  1
FFL +3.650   -   WALL POSITIONS IDENTICAL ON BOTH FLOORS
  7
STANDARD
 11
-2150.0
 21
-10280.760214333557
 31
0.0
  0
TEXT
  8
TEXT
 10
-14058.148024112525
 20
-19365.760214333557
 30
0.0
 40
120.0
  1
SENTRY POST SITED 10 m CLEAR OF THE SHELTER, ON ITS OWN FOOTINGS
  7
STANDARD
 11
-14058.148024112525
 21
-19365.760214333557
 31
0.0
  0
TEXT
  8
TEXT
 10
-14058.148024112525
 20
-19665.760214333557
 30
0.0
 40
120.0
  1
FRAMED SCHEME: 4 CORNER COLUMNS 350 SQ, BEAMS 250 x 450, SLAB 150 TWO-WAY
  7
STANDARD
 11
-14058.148024112525
 21
-19665.760214333557
 31
0.0
  0
TEXT
  8
TEXT
 10
-14058.148024112525
 20
-19965.760214333557
 30
0.0
 40
120.0
  1
190 BRICK INFILL IN THE RC FRAME - SEE THE FRAMING PLAN, DRAWING 6
  7
STANDARD
 11
-14058.148024112525
 21
-19965.760214333557
 31
0.0
  0
TEXT
  8
TEXT
 10
-14058.148024112525
 20
-20265.760214333557
 30
0.0
 40
120.0
  1
C1 COLUMNS 350 x 350 AT THE FOUR CORNERS, OUTER FACES FLUSH WITH THE WALL
  7
STANDARD
 11
-14058.148024112525
 21
-20265.760214333557
 31
0.0
  0
LINE
  8
SHEET-BORDER
 10
-15008.148024112525
 20
-21350.0
 30
0.0
 11
27041.851975887475
 21
-21350.0
 31
0.0
  0
LINE
  8
SHEET-BORDER
 10
27041.851975887475
 20
-21350.0
 30
0.0
 11
27041.851975887475
 21
8350.0
 31
0.0
  0
LINE
  8
SHEET-BORDER
 10
27041.851975887475
 20
8350.0
 30
0.0
 11
-15008.148024112525
 21
8350.0
 31
0.0
  0
LINE
  8
SHEET-BORDER
 10
-15008.148024112525
 20
8350.0
 30
0.0
 11
-15008.148024112525
 21
-21350.0
 31
0.0
  0
LINE
  8
SHEET-BORDER
 10
-14508.148024112525
 20
-20850.0
 30
0.0
 11
26541.851975887475
 21
-20850.0
 31
0.0
  0
LINE
  8
SHEET-BORDER
 10
26541.851975887475
 20
-20850.0
 30
0.0
 11
26541.851975887475
 21
7850.0
 31
0.0
  0
LINE
  8
SHEET-BORDER
 10
26541.851975887475
 20
7850.0
 30
0.0
 11
-14508.148024112525
 21
7850.0
 31
0.0
  0
LINE
  8
SHEET-BORDER
 10
-14508.148024112525
 20
7850.0
 30
0.0
 11
-14508.148024112525
 21
-20850.0
 31
0.0
  0
LINE
  8
SHEET-TITLEBLOCK
 10
17541.851975887475
 20
-20850.0
 30
0.0
 11
26541.851975887475
 21
-20850.0
 31
0.0
  0
LINE
  8
SHEET-TITLEBLOCK
 10
26541.851975887475
 20
-20850.0
 30
0.0
 11
26541.851975887475
 21
-15850.0
 31
0.0
  0
LINE
  8
SHEET-TITLEBLOCK
 10
26541.851975887475
 20
-15850.0
 30
0.0
 11
17541.851975887475
 21
-15850.0
 31
0.0
  0
LINE
  8
SHEET-TITLEBLOCK
 10
17541.851975887475
 20
-15850.0
 30
0.0
 11
17541.851975887475
 21
-20850.0
 31
0.0
  0
LINE
  8
SHEET-TITLEBLOCK
 10
17541.851975887475
 20
-19850.0
 30
0.0
 11
26541.851975887475
 21
-19850.0
 31
0.0
  0
LINE
  8
SHEET-TITLEBLOCK
 10
17541.851975887475
 20
-19250.0
 30
0.0
 11
26541.851975887475
 21
-19250.0
 31
0.0
  0
LINE
  8
SHEET-TITLEBLOCK
 10
17541.851975887475
 20
-18650.0
 30
0.0
 11
26541.851975887475
 21
-18650.0
 31
0.0
  0
LINE
  8
SHEET-TITLEBLOCK
 10
17541.851975887475
 20
-18050.0
 30
0.0
 11
26541.851975887475
 21
-18050.0
 31
0.0
  0
LINE
  8
SHEET-TITLEBLOCK
 10
17541.851975887475
 20
-16950.0
 30
0.0
 11
26541.851975887475
 21
-16950.0
 31
0.0
  0
LINE
  8
SHEET-TITLEBLOCK
 10
23141.851975887475
 20
-20850.0
 30
0.0
 11
23141.851975887475
 21
-19850.0
 31
0.0
  0
LINE
  8
SHEET-TITLEBLOCK
 10
24841.851975887475
 20
-20850.0
 30
0.0
 11
24841.851975887475
 21
-19850.0
 31
0.0
  0
LINE
  8
SHEET-TITLEBLOCK
 10
22341.851975887475
 20
-19850.0
 30
0.0
 11
22341.851975887475
 21
-19250.0
 31
0.0
  0
TEXT
  8
SHEET-TEXT
 10
17641.851975887475
 20
-20120.0
 30
0.0
 40
70.0
  1
DRAWING No.
 11
17641.851975887475
 21
-20120.0
 31
0.0
  0
TEXT
  8
SHEET-TEXT
 10
18341.851975887475
 20
-20640.0
 30
0.0
 40
220.00000000000003
  1
A-104
 11
18341.851975887475
 21
-20640.0
 31
0.0
  0
TEXT
  8
SHEET-TEXT
 10
23241.851975887475
 20
-20120.0
 30
0.0
 40
70.0
  1
REV
 11
23241.851975887475
 21
-20120.0
 31
0.0
  0
TEXT
  8
SHEET-TEXT
 10
23241.851975887475
 20
-20620.0
 30
0.0
 40
140.0
  1
F + M1
 11
23241.851975887475
 21
-20620.0
 31
0.0
  0
TEXT
  8
SHEET-TEXT
 10
24941.851975887475
 20
-20120.0
 30
0.0
 40
70.0
  1
SHEET
 11
24941.851975887475
 21
-20120.0
 31
0.0
  0
TEXT
  8
SHEET-TEXT
 10
24941.851975887475
 20
-20600.0
 30
0.0
 40
95.0
  1
4 OF 10
 11
24941.851975887475
 21
-20600.0
 31
0.0
  0
TEXT
  8
SHEET-TEXT
 10
17641.851975887475
 20
-19630.0
 30
0.0
 40
95.0
  1
SCALE   1:50 AT A1
 11
17641.851975887475
 21
-19630.0
 31
0.0
  0
TEXT
  8
SHEET-TEXT
 10
22441.851975887475
 20
-19630.0
 30
0.0
 40
95.0
  1
DATE   09.09.2026
 11
22441.851975887475
 21
-19630.0
 31
0.0
  0
TEXT
  8
SHEET-TEXT
 10
17641.851975887475
 20
-19030.0
 30
0.0
 40
75.0
  1
DRAWN  [PLACEHOLDER]
 11
17641.851975887475
 21
-19030.0
 31
0.0
  0
TEXT
  8
SHEET-TEXT
 10
20641.851975887475
 20
-19030.0
 30
0.0
 40
75.0
  1
CHECKED  [PLACEHOLDER]
 11
20641.851975887475
 21
-19030.0
 31
0.0
  0
TEXT
  8
SHEET-TEXT
 10
23641.851975887475
 20
-19030.0
 30
0.0
 40
75.0
  1
APPROVED  [PLACEHOLDER]
 11
23641.851975887475
 21
-19030.0
 31
0.0
  0
TEXT
  8
SHEET-TEXT
 10
17641.851975887475
 20
-18430.0
 30
0.0
 40
70.0
  1
STATUS
 11
17641.851975887475
 21
-18430.0
 31
0.0
  0
TEXT
  8
SHEET-TEXT
 10
18641.851975887475
 20
-18450.0
 30
0.0
 40
95.0
  1
FOR REVIEW - NOT FOR CONSTRUCTION
 11
18641.851975887475
 21
-18450.0
 31
0.0
  0
TEXT
  8
SHEET-TEXT
 10
17641.851975887475
 20
-17180.0
 30
0.0
 40
70.0
  1
DRAWING TITLE
 11
17641.851975887475
 21
-17180.0
 31
0.0
  0
TEXT
  8
SHEET-TEXT
 10
17641.851975887475
 20
-17580.0
 30
0.0
 40
120.0
  1
SENTRY POST - FIRST FLOOR PLAN
 11
17641.851975887475
 21
-17580.0
 31
0.0
  0
TEXT
  8
SHEET-TEXT
 10
17641.851975887475
 20
-17910.0
 30
0.0
 40
75.0
  1
ARMOURED VISION PANELS - NOT BLAST DESIGNED
 11
17641.851975887475
 21
-17910.0
 31
0.0
  0
TEXT
  8
SHEET-TEXT
 10
17641.851975887475
 20
-16090.0
 30
0.0
 40
70.0
  1
PROJECT
 11
17641.851975887475
 21
-16090.0
 31
0.0
  0
TEXT
  8
SHEET-TEXT
 10
17641.851975887475
 20
-16370.0
 30
0.0
 40
95.0
  1
UNDERGROUND CBRN-HARDENED BLAST-RESISTANT
 11
17641.851975887475
 21
-16370.0
 31
0.0
  0
TEXT
  8
SHEET-TEXT
 10
17641.851975887475
 20
-16600.0
 30
0.0
 40
95.0
  1
PROTECTIVE STRUCTURE  -  PUNE, MAHARASHTRA
 11
17641.851975887475
 21
-16600.0
 31
0.0
  0
TEXT
  8
SHEET-TEXT
 10
17641.851975887475
 20
-16840.0
 30
0.0
 40
75.0
  1
ARCHITECTURAL REV F  +  MODIFICATION M1
 11
17641.851975887475
 21
-16840.0
 31
0.0
  0
TEXT
  8
SHEET-TEXT
 10
-14408.148024112525
 20
7475.0
 30
0.0
 40
160.0
  1
A-104   SENTRY POST - FIRST FLOOR PLAN
 11
-14408.148024112525
 21
7475.0
 31
0.0
  0
LINE
  8
SHEET-BORDER
 10
-14508.148024112525
 20
7325.0
 30
0.0
 11
26541.851975887475
 21
7325.0
 31
0.0
  0
TEXT
  8
SHEET-TEXT
 10
-14408.148024112525
 20
-20725.0
 30
0.0
 40
75.0
  1
QA1  09.09.2026   DRAWING QA/QC - ANNOTATION POSITIONS, SHEET FRAME AND TITLE BLOCK.  NO GEOMETRY, DIMENSION OR VALUE CHANGED.
 11
-14408.148024112525
 21
-20725.0
 31
0.0
  0
LINE
  8
SHEET-BORDER
 10
-14208.148024112525
 20
-20450.0
 30
0.0
 11
-6634.5244474213
 21
-20450.0
 31
0.0
  0
LINE
  8
SHEET-BORDER
 10
-6634.5244474213
 20
-20450.0
 30
0.0
 11
-6634.5244474213
 21
-18795.760214333557
 31
0.0
  0
LINE
  8
SHEET-BORDER
 10
-6634.5244474213
 20
-18795.760214333557
 30
0.0
 11
-14208.148024112525
 21
-18795.760214333557
 31
0.0
  0
LINE
  8
SHEET-BORDER
 10
-14208.148024112525
 20
-18795.760214333557
 30
0.0
 11
-14208.148024112525
 21
-20450.0
 31
0.0
  0
TEXT
  8
SHEET-TEXT
 10
-14058.148024112525
 20
-19065.760214333557
 30
0.0
 40
130.0
  1
NOTES
 11
-14058.148024112525
 21
-19065.760214333557
 31
0.0
  0
ENDSEC
  0
EOF
