  0
SECTION
  2
HEADER
  9
$ACADVER
  1
AC1009
  9
$DWGCODEPAGE
  3
ANSI_1252
  9
$EXTMIN
 10
1e+20
 20
1e+20
 30
1e+20
  9
$EXTMAX
 10
-1e+20
 20
-1e+20
 30
-1e+20
  9
$LIMMIN
 10
0.0
 20
0.0
  9
$LIMMAX
 10
420.0
 20
297.0
  9
$LTSCALE
 40
25.0
  9
$LIMCHECK
 70
0
  9
$TDCREATE
 40
2461293.707199074
  9
$TDUPDATE
 40
2461293.707199074
  9
$PEXTMIN
 10
1e+20
 20
1e+20
 30
1e+20
  9
$PEXTMAX
 10
-1e+20
 20
-1e+20
 30
-1e+20
  9
$PLIMMIN
 10
0.0
 20
0.0
  9
$PLIMMAX
 10
420.0
 20
297.0
  0
ENDSEC
  0
SECTION
  2
TABLES
  0
TABLE
  2
VPORT
 70
1
  0
VPORT
  2
*Active
 70
0
 10
0.0
 20
0.0
 11
1.0
 21
1.0
 12
0.0
 22
0.0
 13
0.0
 23
0.0
 14
0.5
 24
0.5
 15
0.5
 25
0.5
 16
0.0
 26
0.0
 36
1.0
 17
0.0
 27
0.0
 37
0.0
 40
1000.0
 41
1.34
 42
50.0
 43
0.0
 44
0.0
 50
0.0
 51
0.0
 71
0
 72
1000
 73
1
 74
3
 75
0
 76
0
 77
0
 78
0
  0
ENDTAB
  0
TABLE
  2
LTYPE
 70
5
  0
LTYPE
  2
CONTINUOUS
 70
0
  3
Solid line
 72
65
 73
0
 40
0.0
  0
LTYPE
  2
DASHED
 70
0
  3
Dashed __ __ __
 72
65
 73
2
 40
15.0
 49
10.0
 49
-5.0
  0
LTYPE
  2
CENTER
 70
0
  3
Centre ____ _ ____
 72
65
 73
4
 40
50.0
 49
32.0
 49
-6.0
 49
6.0
 49
-6.0
  0
LTYPE
  2
ByBlock
 70
0
  3

 72
65
 73
0
 40
0.0
  0
LTYPE
  2
ByLayer
 70
0
  3

 72
65
 73
0
 40
0.0
  0
ENDTAB
  0
TABLE
  2
LAYER
 70
15
  0
LAYER
  2
0
 70
0
 62
7
  6
CONTINUOUS
  0
LAYER
  2
WALLS
 70
0
 62
7
  6
CONTINUOUS
  0
LAYER
  2
OPENINGS
 70
0
 62
1
  6
CONTINUOUS
  0
LAYER
  2
STAIRS
 70
0
 62
3
  6
CONTINUOUS
  0
LAYER
  2
GROUND
 70
0
 62
42
  6
CONTINUOUS
  0
LAYER
  2
TEXT
 70
0
 62
2
  6
CONTINUOUS
  0
LAYER
  2
DIM
 70
0
 62
4
  6
CONTINUOUS
  0
LAYER
  2
HIDDEN
 70
0
 62
8
  6
DASHED
  0
LAYER
  2
CENTRE
 70
0
 62
6
  6
CENTER
  0
LAYER
  2
BEYOND
 70
0
 62
9
  6
CONTINUOUS
  0
LAYER
  2
Defpoints
 70
0
 62
7
  6
Continuous
  0
LAYER
  2
LEADER
 70
0
 62
7
  6
Continuous
  0
LAYER
  2
SHEET-BORDER
 70
0
 62
7
  6
Continuous
  0
LAYER
  2
SHEET-TITLEBLOCK
 70
0
 62
7
  6
Continuous
  0
LAYER
  2
SHEET-TEXT
 70
0
 62
7
  6
Continuous
  0
ENDTAB
  0
TABLE
  2
STYLE
 70
1
  0
STYLE
  2
STANDARD
 70
0
 40
0.0
 41
1.0
 50
0.0
 71
0
 42
2.5
  3
txt
  4

  0
ENDTAB
  0
TABLE
  2
VIEW
 70
0
  0
ENDTAB
  0
TABLE
  2
UCS
 70
0
  0
ENDTAB
  0
TABLE
  2
APPID
 70
3
  0
APPID
  2
ACAD
 70
0
  0
APPID
  2
HATCHBACKGROUNDCOLOR
 70
0
  0
APPID
  2
EZDXF
 70
0
  0
ENDTAB
  0
TABLE
  2
DIMSTYLE
 70
1
  0
DIMSTYLE
  2
Standard
 70
0
  3

  4

  5

  6

  7

 40
1.0
 41
2.5
 42
0.625
 43
3.75
 44
1.25
 45
0.0
 46
0.0
 47
0.0
 48
0.0
140
2.5
141
2.5
142
0.0
143
0.03937007874
144
1.0
145
0.0
146
1.0
147
0.625
 71
0
 72
0
 73
0
 74
0
 75
0
 76
0
 77
1
 78
8
170
0
171
3
172
1
173
0
174
0
175
0
176
0
177
0
178
0
  0
ENDTAB
  0
ENDSEC
  0
SECTION
  2
BLOCKS
  0
BLOCK
  8
0
  2
$Model_Space
 70
0
 10
0.0
 20
0.0
 30
0.0
  3
$Model_Space
  1

1001
EZDXF
1000
WRITTEN_BY_EZDXF
1000
1.4.4 @ 2026-09-09T16:58:22.720107+00:00
  0
ENDBLK
  8
0
  0
BLOCK
  8
0
  2
$Paper_Space
 70
0
 10
0.0
 20
0.0
 30
0.0
  3
$Paper_Space
  1

  0
ENDBLK
  8
0
  0
ENDSEC
  0
SECTION
  2
ENTITIES
  0
LINE
  8
GROUND
 10
7200.0
 20
-3203.973543201608
 30
0.0
 11
7250.0
 21
-3163.973543201608
 31
0.0
  0
LINE
  8
GROUND
 10
7250.0
 20
-3163.973543201608
 30
0.0
 11
8950.0
 21
-3103.973543201608
 31
0.0
  0
POLYLINE
  8
OPENINGS
 66
1
 10
0.0
 20
0.0
 30
0.0
 70
1
  0
VERTEX
  8
OPENINGS
 10
8950.0
 20
-3353.973543201608
 30
0.0
 70
0
  0
VERTEX
  8
OPENINGS
 10
9250.0
 20
-3353.973543201608
 30
0.0
 70
0
  0
VERTEX
  8
OPENINGS
 10
9250.0
 20
-3103.973543201608
 30
0.0
 70
0
  0
VERTEX
  8
OPENINGS
 10
8950.0
 20
-3103.973543201608
 30
0.0
 70
0
  0
SEQEND
  8
OPENINGS
  0
TEXT
  8
TEXT
 10
5690.364710523375
 20
-2591.691367387077
 30
0.0
 40
115.0
  1
GROUND FALLS AWAY 1:50 FOR 2000
  7
STANDARD
 11
5490.364710523375
 21
-2591.691367387077
 31
0.0
  0
TEXT
  8
TEXT
 10
6650.0
 20
-2383.973543201608
 30
0.0
 40
115.0
  1
300 CHANNEL AND GRATING ACROSS THE
  7
STANDARD
 11
6450.0
 21
-2383.973543201608
 31
0.0
  0
TEXT
  8
TEXT
 10
6281.668067023804
 20
-3475.627068204402
 30
0.0
 40
115.0
  1
FULL 1500 WIDTH AT THE THRESHOLD
  7
STANDARD
 11
6081.668067023804
 21
-3475.627068204402
 31
0.0
  0
LINE
  8
DIM
 10
7750.0
 20
-2623.973543201608
 30
0.0
 11
9100.0
 21
-3223.973543201608
 31
0.0
  0
POLYLINE
  8
WALLS
 66
1
 10
0.0
 20
0.0
 30
0.0
 70
1
  0
VERTEX
  8
WALLS
 10
9250.0
 20
-3803.973543201608
 30
0.0
 70
0
  0
VERTEX
  8
WALLS
 10
9500.0
 20
-3803.973543201608
 30
0.0
 70
0
  0
VERTEX
  8
WALLS
 10
9500.0
 20
-653.9735432016082
 30
0.0
 70
0
  0
VERTEX
  8
WALLS
 10
9250.0
 20
-653.9735432016082
 30
0.0
 70
0
  0
SEQEND
  8
WALLS
  0
POLYLINE
  8
OPENINGS
 66
1
 10
0.0
 20
0.0
 30
0.0
 70
1
  0
VERTEX
  8
OPENINGS
 10
9250.0
 20
-3103.973543201608
 30
0.0
 70
0
  0
VERTEX
  8
OPENINGS
 10
9500.0
 20
-3103.973543201608
 30
0.0
 70
0
  0
VERTEX
  8
OPENINGS
 10
9500.0
 20
-1003.9735432016082
 30
0.0
 70
0
  0
VERTEX
  8
OPENINGS
 10
9250.0
 20
-1003.9735432016082
 30
0.0
 70
0
  0
SEQEND
  8
OPENINGS
  0
TEXT
  8
TEXT
 10
6150.0
 20
-743.9735432016082
 30
0.0
 40
130.0
  1
ENTRY DOOR 1000 x 2100 AT GRADE
  7
STANDARD
 11
5950.0
 21
-743.9735432016082
 31
0.0
  0
TEXT
  8
TEXT
 10
6150.0
 20
-577.4735432016082
 30
0.0
 40
110.0
  1
THRESHOLD FLUSH, 50 WEATHER BAR
  7
STANDARD
 11
5950.0
 21
-577.4735432016082
 31
0.0
  0
LINE
  8
DIM
 10
8850.0
 20
-803.9735432016082
 30
0.0
 11
9310.0
 21
-1203.9735432016082
 31
0.0
  0
POLYLINE
  8
GROUND
 66
1
 10
0.0
 20
0.0
 30
0.0
 70
1
  0
VERTEX
  8
GROUND
 10
9500.0
 20
-3353.973543201608
 30
0.0
 70
0
  0
VERTEX
  8
GROUND
 10
11000.0
 20
-3353.973543201608
 30
0.0
 70
0
  0
VERTEX
  8
GROUND
 10
11000.0
 20
-3103.973543201608
 30
0.0
 70
0
  0
VERTEX
  8
GROUND
 10
9500.0
 20
-3103.973543201608
 30
0.0
 70
0
  0
SEQEND
  8
GROUND
  0
TEXT
  8
TEXT
 10
9620.0
 20
-4253.973543201608
 30
0.0
 40
115.0
  1
TOP LANDING
  7
STANDARD
 11
9420.0
 21
-4253.973543201608
 31
0.0
  0
TEXT
  8
TEXT
 10
9620.0
 20
-4433.973543201608
 30
0.0
 40
115.0
  1
1500 AT 0.000
  7
STANDARD
 11
9420.0
 21
-4433.973543201608
 31
0.0
  0
POLYLINE
  8
STAIRS
 66
1
 10
0.0
 20
0.0
 30
0.0
 70
1
  0
VERTEX
  8
STAIRS
 10
11000.0
 20
-3103.973543201608
 30
0.0
 70
0
  0
VERTEX
  8
STAIRS
 10
11000.0
 20
-3270.640543201608
 30
0.0
 70
0
  0
VERTEX
  8
STAIRS
 10
11300.0
 20
-3270.640543201608
 30
0.0
 70
0
  0
VERTEX
  8
STAIRS
 10
11300.0
 20
-3437.3065432016083
 30
0.0
 70
0
  0
VERTEX
  8
STAIRS
 10
11600.0
 20
-3437.3065432016083
 30
0.0
 70
0
  0
VERTEX
  8
STAIRS
 10
11600.0
 20
-3603.973543201608
 30
0.0
 70
0
  0
VERTEX
  8
STAIRS
 10
11900.0
 20
-3603.973543201608
 30
0.0
 70
0
  0
VERTEX
  8
STAIRS
 10
11900.0
 20
-3770.640543201608
 30
0.0
 70
0
  0
VERTEX
  8
STAIRS
 10
12200.0
 20
-3770.640543201608
 30
0.0
 70
0
  0
VERTEX
  8
STAIRS
 10
12200.0
 20
-3937.3065432016083
 30
0.0
 70
0
  0
VERTEX
  8
STAIRS
 10
12500.0
 20
-3937.3065432016083
 30
0.0
 70
0
  0
VERTEX
  8
STAIRS
 10
12500.0
 20
-4103.973543201608
 30
0.0
 70
0
  0
VERTEX
  8
STAIRS
 10
12800.0
 20
-4103.973543201608
 30
0.0
 70
0
  0
VERTEX
  8
STAIRS
 10
12800.0
 20
-4270.640543201608
 30
0.0
 70
0
  0
VERTEX
  8
STAIRS
 10
13100.0
 20
-4270.640543201608
 30
0.0
 70
0
  0
VERTEX
  8
STAIRS
 10
13100.0
 20
-4437.306543201608
 30
0.0
 70
0
  0
VERTEX
  8
STAIRS
 10
13400.0
 20
-4437.306543201608
 30
0.0
 70
0
  0
VERTEX
  8
STAIRS
 10
13400.0
 20
-4603.973543201608
 30
0.0
 70
0
  0
VERTEX
  8
STAIRS
 10
13700.0
 20
-4603.973543201608
 30
0.0
 70
0
  0
VERTEX
  8
STAIRS
 10
13700.0
 20
-4770.640543201608
 30
0.0
 70
0
  0
VERTEX
  8
STAIRS
 10
14000.0
 20
-4770.640543201608
 30
0.0
 70
0
  0
VERTEX
  8
STAIRS
 10
14000.0
 20
-4937.306543201608
 30
0.0
 70
0
  0
VERTEX
  8
STAIRS
 10
14300.0
 20
-4937.306543201608
 30
0.0
 70
0
  0
VERTEX
  8
STAIRS
 10
14300.0
 20
-5103.973543201608
 30
0.0
 70
0
  0
VERTEX
  8
STAIRS
 10
14300.0
 20
-5353.973543201608
 30
0.0
 70
0
  0
VERTEX
  8
STAIRS
 10
11000.0
 20
-3353.973543201608
 30
0.0
 70
0
  0
SEQEND
  8
STAIRS
  0
TEXT
  8
TEXT
 10
11438.64853865046
 20
-3565.3250045511486
 30
0.0
 40
125.0
  1
12R @ 166.7 / 300
  7
STANDARD
 11
11238.64853865046
 21
-3565.3250045511486
 31
0.0
  0
TEXT
  8
TEXT
 10
11163.407224073597
 20
-4020.566319128012
 30
0.0
 40
115.0
  1
1500 WIDE
  7
STANDARD
 11
10963.407224073597
 21
-4020.566319128012
 31
0.0
  0
TEXT
  8
TEXT
 10
11620.02142802481
 20
-3743.952115176799
 30
0.0
 40
110.0
  1
STEPPED RC RAFT ON COMPACTED
  7
STANDARD
 11
11420.02142802481
 21
-3743.952115176799
 31
0.0
  0
TEXT
  8
TEXT
 10
11200.0
 20
-4343.973543201608
 30
0.0
 40
110.0
  1
FILL - SEE NOTE 10
  7
STANDARD
 11
11000.0
 21
-4343.973543201608
 31
0.0
  0
POLYLINE
  8
GROUND
 66
1
 10
0.0
 20
0.0
 30
0.0
 70
1
  0
VERTEX
  8
GROUND
 10
14300.0
 20
-5353.973543201608
 30
0.0
 70
0
  0
VERTEX
  8
GROUND
 10
15800.0
 20
-5353.973543201608
 30
0.0
 70
0
  0
VERTEX
  8
GROUND
 10
15800.0
 20
-5103.973543201608
 30
0.0
 70
0
  0
VERTEX
  8
GROUND
 10
14300.0
 20
-5103.973543201608
 30
0.0
 70
0
  0
SEQEND
  8
GROUND
  0
TEXT
  8
TEXT
 10
14390.0
 20
-5231.973543201608
 30
0.0
 40
120.0
  1
PLATFORM -2.000
  7
STANDARD
 11
14190.0
 21
-5231.973543201608
 31
0.0
  0
CIRCLE
  8
OPENINGS
 10
15550.0
 20
-4923.973543201608
 30
0.0
 40
85.0
  0
TEXT
  8
TEXT
 10
14300.0
 20
-5473.973543201608
 30
0.0
 40
110.0
  1
GULLY TO A 1.0 m3 SUMP
  7
STANDARD
 11
14100.0
 21
-5473.973543201608
 31
0.0
  0
POLYLINE
  8
WALLS
 66
1
 10
0.0
 20
0.0
 30
0.0
 70
1
  0
VERTEX
  8
WALLS
 10
15800.0
 20
-5353.973543201608
 30
0.0
 70
0
  0
VERTEX
  8
WALLS
 10
16050.0
 20
-5353.973543201608
 30
0.0
 70
0
  0
VERTEX
  8
WALLS
 10
16050.0
 20
-2703.973543201608
 30
0.0
 70
0
  0
VERTEX
  8
WALLS
 10
15800.0
 20
-2703.973543201608
 30
0.0
 70
0
  0
SEQEND
  8
WALLS
  0
POLYLINE
  8
WALLS
 66
1
 10
0.0
 20
0.0
 30
0.0
 70
1
  0
VERTEX
  8
WALLS
 10
9250.0
 20
-653.9735432016082
 30
0.0
 70
0
  0
VERTEX
  8
WALLS
 10
11000.0
 20
-653.9735432016082
 30
0.0
 70
0
  0
VERTEX
  8
WALLS
 10
14300.0
 20
-2453.973543201608
 30
0.0
 70
0
  0
VERTEX
  8
WALLS
 10
14300.0
 20
-2703.973543201608
 30
0.0
 70
0
  0
VERTEX
  8
WALLS
 10
11000.0
 20
-903.9735432016082
 30
0.0
 70
0
  0
VERTEX
  8
WALLS
 10
9250.0
 20
-903.9735432016082
 30
0.0
 70
0
  0
SEQEND
  8
WALLS
  0
POLYLINE
  8
WALLS
 66
1
 10
0.0
 20
0.0
 30
0.0
 70
1
  0
VERTEX
  8
WALLS
 10
14300.0
 20
-2703.973543201608
 30
0.0
 70
0
  0
VERTEX
  8
WALLS
 10
16050.0
 20
-2703.973543201608
 30
0.0
 70
0
  0
VERTEX
  8
WALLS
 10
16050.0
 20
-2203.973543201608
 30
0.0
 70
0
  0
VERTEX
  8
WALLS
 10
14300.0
 20
-2203.973543201608
 30
0.0
 70
0
  0
SEQEND
  8
WALLS
  0
TEXT
  8
TEXT
 10
11455.47012947259
 20
-1098.5034137290197
 30
0.0
 40
120.0
  1
250 RC ROOF OVER THE WHOLE STAIRWELL
  7
STANDARD
 11
11255.47012947259
 21
-1098.5034137290197
 31
0.0
  0
TEXT
  8
TEXT
 10
11150.0
 20
-911.2235432016082
 30
0.0
 40
115.0
  1
SOFFIT FOLLOWS THE FLIGHT AT 2200 CLEAR
  7
STANDARD
 11
10950.0
 21
-911.2235432016082
 31
0.0
  0
TEXT
  8
TEXT
 10
14735.016071018606
 20
-2188.9574721830013
 30
0.0
 40
110.0
  1
ROOF CONTINUOUS WITH THE HEADHOUSE
  7
STANDARD
 11
14535.016071018606
 21
-2188.9574721830013
 31
0.0
  0
LINE
  8
BEYOND
 10
9250.0
 20
-3103.973543201608
 30
0.0
 11
10600.0
 21
-2203.973543201608
 31
0.0
  0
LINE
  8
BEYOND
 10
10600.0
 20
-2203.973543201608
 30
0.0
 11
16800.0
 21
-2203.973543201608
 31
0.0
  0
LINE
  8
GROUND
 10
16800.0
 20
-2203.973543201608
 30
0.0
 11
18150.0
 21
-3103.973543201608
 31
0.0
  0
LINE
  8
GROUND
 10
18150.0
 20
-3103.973543201608
 30
0.0
 11
22400.0
 21
-3103.973543201608
 31
0.0
  0
TEXT
  8
TEXT
 10
12292.742207411231
 20
-1611.2313357903777
 30
0.0
 40
115.0
  1
BERM BEYOND: EARTH GRADED AGAINST THE STAIRWELL
  7
STANDARD
 11
12092.742207411231
 21
-1611.2313357903777
 31
0.0
  0
TEXT
  8
TEXT
 10
12000.0
 20
-1411.2235432016082
 30
0.0
 40
115.0
  1
WALLS TO +0.900, 1.5:1, AS THE HEADHOUSE BERM
  7
STANDARD
 11
11800.0
 21
-1411.2235432016082
 31
0.0
  0
TEXT
  8
TEXT
 10
12000.0
 20
-484.4735432016082
 30
0.0
 40
115.0
  1
THE ROOF AND HEADWALL STAND PROUD OF THE BERM -
  7
STANDARD
 11
11800.0
 21
-484.4735432016082
 31
0.0
  0
TEXT
  8
TEXT
 10
12000.0
 20
-353.9735432016082
 30
0.0
 40
115.0
  1
WATERPROOF MEMBRANE AND PROTECTION SCREED
  7
STANDARD
 11
11800.0
 21
-353.9735432016082
 31
0.0
  0
TEXT
  8
TEXT
 10
6150.0
 20
246.0264567983918
 30
0.0
 40
110.0
  1
THE ENTRY IS A HEADWALL IN
  7
STANDARD
 11
5950.0
 21
246.0264567983918
 31
0.0
  0
TEXT
  8
TEXT
 10
6150.0
 20
66.02645679839179
 30
0.0
 40
110.0
  1
THE FACE OF THE BERM, AS A
  7
STANDARD
 11
5950.0
 21
66.02645679839179
 31
0.0
  0
TEXT
  8
TEXT
 10
6150.0
 20
-113.97354320160821
 30
0.0
 40
110.0
  1
BERMED MAGAZINE - NOT A PIT
  7
STANDARD
 11
5950.0
 21
-113.97354320160821
 31
0.0
  0
POLYLINE
  8
BEYOND
 66
1
 10
0.0
 20
0.0
 30
0.0
 70
0
  0
VERTEX
  8
BEYOND
 10
13600.0
 20
-2203.973543201608
 30
0.0
 70
0
  0
VERTEX
  8
BEYOND
 10
15800.0
 20
-2203.973543201608
 30
0.0
 70
0
  0
VERTEX
  8
BEYOND
 10
15800.0
 20
-5103.973543201608
 30
0.0
 70
0
  0
VERTEX
  8
BEYOND
 10
14300.0
 20
-5103.973543201608
 30
0.0
 70
0
  0
SEQEND
  8
BEYOND
  0
LINE
  8
BEYOND
 10
13600.0
 20
-2703.973543201608
 30
0.0
 11
15800.0
 21
-2703.973543201608
 31
0.0
  0
POLYLINE
  8
OPENINGS
 66
1
 10
0.0
 20
0.0
 30
0.0
 70
1
  0
VERTEX
  8
OPENINGS
 10
14450.0
 20
-5103.973543201608
 30
0.0
 70
0
  0
VERTEX
  8
OPENINGS
 10
15350.0
 20
-5103.973543201608
 30
0.0
 70
0
  0
VERTEX
  8
OPENINGS
 10
15350.0
 20
-3003.973543201608
 30
0.0
 70
0
  0
VERTEX
  8
OPENINGS
 10
14450.0
 20
-3003.973543201608
 30
0.0
 70
0
  0
SEQEND
  8
OPENINGS
  0
TEXT
  8
TEXT
 10
15892.745072533511
 20
-2553.15840544233
 30
0.0
 40
120.0
  1
INNER SECURITY DOOR 900 x 2100
  7
STANDARD
 11
15692.745072533511
 21
-2553.15840544233
 31
0.0
  0
TEXT
  8
TEXT
 10
16640.0
 20
-3333.973543201608
 30
0.0
 40
110.0
  1
IN THE HEADHOUSE NORTH FACE -
  7
STANDARD
 11
16440.0
 21
-3333.973543201608
 31
0.0
  0
TEXT
  8
TEXT
 10
15650.0
 20
-3513.973543201608
 30
0.0
 40
110.0
  1
NOW SECOND IN SERIES
  7
STANDARD
 11
15450.0
 21
-3513.973543201608
 31
0.0
  0
LINE
  8
DIM
 10
15550.0
 20
-3203.973543201608
 30
0.0
 11
15250.0
 21
-3603.973543201608
 31
0.0
  0
LINE
  8
BEYOND
 10
15800.0
 20
-2203.973543201608
 30
0.0
 11
18400.0
 21
-2203.973543201608
 31
0.0
  0
LINE
  8
BEYOND
 10
18400.0
 20
-2203.973543201608
 30
0.0
 11
19750.0
 21
-3103.973543201608
 31
0.0
  0
LINE
  8
HIDDEN
 10
16300.0
 20
-5103.973543201608
 30
0.0
 11
22000.0
 21
-5103.973543201608
 31
0.0
  0
TEXT
  8
HIDDEN
 10
16607.0
 20
-4953.973543201608
 30
0.0
 40
115.0
  1
TOP OF THE 900 PRESSURE SLAB  -2.000
  7
STANDARD
 11
16407.0
 21
-4953.973543201608
 31
0.0
  0
LINE
  8
HIDDEN
 10
16300.0
 20
-6003.973543201608
 30
0.0
 11
22000.0
 21
-6003.973543201608
 31
0.0
  0
TEXT
  8
HIDDEN
 10
16400.0
 20
-5853.973543201608
 30
0.0
 40
115.0
  1
ROOF SOFFIT  -2.900
  7
STANDARD
 11
16200.0
 21
-5853.973543201608
 31
0.0
  0
LINE
  8
HIDDEN
 10
16300.0
 20
-9203.973543201608
 30
0.0
 11
22000.0
 21
-9203.973543201608
 31
0.0
  0
TEXT
  8
HIDDEN
 10
16400.0
 20
-9053.973543201608
 30
0.0
 40
115.0
  1
UNDERGROUND FLOOR  -6.100
  7
STANDARD
 11
16200.0
 21
-9053.973543201608
 31
0.0
  0
LINE
  8
HIDDEN
 10
16300.0
 20
-9803.973543201608
 30
0.0
 11
22000.0
 21
-9803.973543201608
 31
0.0
  0
TEXT
  8
HIDDEN
 10
16400.0
 20
-9653.973543201608
 30
0.0
 40
115.0
  1
UNDERSIDE OF MAT  -6.700
  7
STANDARD
 11
16200.0
 21
-9653.973543201608
 31
0.0
  0
LINE
  8
HIDDEN
 10
22000.0
 20
-5103.973543201608
 30
0.0
 11
22000.0
 21
-9803.973543201608
 31
0.0
  0
TEXT
  8
HIDDEN
 10
16400.0
 20
-9903.973543201608
 30
0.0
 40
115.0
  1
THE MAIN STAIR IS INSIDE THE BOX, PERPENDICULAR
  7
STANDARD
 11
16200.0
 21
-9903.973543201608
 31
0.0
  0
TEXT
  8
HIDDEN
 10
16400.0
 20
-10073.973543201608
 30
0.0
 40
115.0
  1
TO THIS CUT - SEE SECTION A-A.  UNCHANGED AT REV F.
  7
STANDARD
 11
16200.0
 21
-10073.973543201608
 31
0.0
  0
LINE
  8
DIM
 10
9500.0
 20
-3.9735432016082086
 30
0.0
 11
11000.0
 21
-3.9735432016082086
 31
0.0
  0
LINE
  8
DIM
 10
9410.0
 20
-93.97354320160821
 30
0.0
 11
9590.0
 21
86.02645679839179
 31
0.0
  0
LINE
  8
DIM
 10
9500.0
 20
-183.9735432016082
 30
0.0
 11
9500.0
 21
176.0264567983918
 31
0.0
  0
LINE
  8
DIM
 10
10910.0
 20
-93.97354320160821
 30
0.0
 11
11090.0
 21
86.02645679839179
 31
0.0
  0
LINE
  8
DIM
 10
11000.0
 20
-183.9735432016082
 30
0.0
 11
11000.0
 21
176.0264567983918
 31
0.0
  0
TEXT
  8
DIM
 10
10250.0
 20
68.02645679839179
 30
0.0
 40
120.0
  1
1500 LANDING
  7
STANDARD
 72
1
 11
10250.0
 21
68.02645679839179
 31
0.0
  0
LINE
  8
DIM
 10
11000.0
 20
-3.9735432016082086
 30
0.0
 11
14300.0
 21
-3.9735432016082086
 31
0.0
  0
LINE
  8
DIM
 10
10910.0
 20
-93.97354320160821
 30
0.0
 11
11090.0
 21
86.02645679839179
 31
0.0
  0
LINE
  8
DIM
 10
11000.0
 20
-183.9735432016082
 30
0.0
 11
11000.0
 21
176.0264567983918
 31
0.0
  0
LINE
  8
DIM
 10
14210.0
 20
-93.97354320160821
 30
0.0
 11
14390.0
 21
86.02645679839179
 31
0.0
  0
LINE
  8
DIM
 10
14300.0
 20
-183.9735432016082
 30
0.0
 11
14300.0
 21
176.0264567983918
 31
0.0
  0
TEXT
  8
DIM
 10
12650.0
 20
68.02645679839179
 30
0.0
 40
120.0
  1
3300  11 GOINGS @ 300
  7
STANDARD
 72
1
 11
12650.0
 21
68.02645679839179
 31
0.0
  0
LINE
  8
DIM
 10
14300.0
 20
-3.9735432016082086
 30
0.0
 11
15800.0
 21
-3.9735432016082086
 31
0.0
  0
LINE
  8
DIM
 10
14210.0
 20
-93.97354320160821
 30
0.0
 11
14390.0
 21
86.02645679839179
 31
0.0
  0
LINE
  8
DIM
 10
14300.0
 20
-183.9735432016082
 30
0.0
 11
14300.0
 21
176.0264567983918
 31
0.0
  0
LINE
  8
DIM
 10
15710.0
 20
-93.97354320160821
 30
0.0
 11
15890.0
 21
86.02645679839179
 31
0.0
  0
LINE
  8
DIM
 10
15800.0
 20
-183.9735432016082
 30
0.0
 11
15800.0
 21
176.0264567983918
 31
0.0
  0
TEXT
  8
DIM
 10
15050.0
 20
68.02645679839179
 30
0.0
 40
120.0
  1
1500 PLATFORM
  7
STANDARD
 72
1
 11
15050.0
 21
68.02645679839179
 31
0.0
  0
LINE
  8
DIM
 10
9250.0
 20
696.0264567983918
 30
0.0
 11
16050.0
 21
696.0264567983918
 31
0.0
  0
LINE
  8
DIM
 10
9160.0
 20
606.0264567983918
 30
0.0
 11
9340.0
 21
786.0264567983918
 31
0.0
  0
LINE
  8
DIM
 10
9250.0
 20
516.0264567983918
 30
0.0
 11
9250.0
 21
876.0264567983918
 31
0.0
  0
LINE
  8
DIM
 10
15960.0
 20
606.0264567983918
 30
0.0
 11
16140.0
 21
786.0264567983918
 31
0.0
  0
LINE
  8
DIM
 10
16050.0
 20
516.0264567983918
 30
0.0
 11
16050.0
 21
876.0264567983918
 31
0.0
  0
TEXT
  8
DIM
 10
12650.0
 20
768.0264567983918
 30
0.0
 40
120.0
  1
6800 COVERED STAIRWELL
  7
STANDARD
 72
1
 11
12650.0
 21
768.0264567983918
 31
0.0
  0
LINE
  8
DIM
 10
8350.0
 20
-3103.973543201608
 30
0.0
 11
8350.0
 21
-903.9735432016082
 31
0.0
  0
LINE
  8
DIM
 10
8260.0
 20
-3193.973543201608
 30
0.0
 11
8440.0
 21
-3013.973543201608
 31
0.0
  0
LINE
  8
DIM
 10
8170.0
 20
-3103.973543201608
 30
0.0
 11
8530.0
 21
-3103.973543201608
 31
0.0
  0
LINE
  8
DIM
 10
8260.0
 20
-993.9735432016082
 30
0.0
 11
8440.0
 21
-813.9735432016082
 31
0.0
  0
LINE
  8
DIM
 10
8170.0
 20
-903.9735432016082
 30
0.0
 11
8530.0
 21
-903.9735432016082
 31
0.0
  0
TEXT
  8
DIM
 10
8278.0
 20
-2003.9735432016082
 30
0.0
 40
120.0
  1
2200 CLEAR
 50
90.0
  7
STANDARD
 72
1
 11
8278.0
 21
-2003.9735432016082
 31
0.0
  0
LINE
  8
DIM
 10
16950.0
 20
-5103.973543201608
 30
0.0
 11
16950.0
 21
-2703.973543201608
 31
0.0
  0
LINE
  8
DIM
 10
16860.0
 20
-5193.973543201608
 30
0.0
 11
17040.0
 21
-5013.973543201608
 31
0.0
  0
LINE
  8
DIM
 10
16770.0
 20
-5103.973543201608
 30
0.0
 11
17130.0
 21
-5103.973543201608
 31
0.0
  0
LINE
  8
DIM
 10
16860.0
 20
-2793.973543201608
 30
0.0
 11
17040.0
 21
-2613.973543201608
 31
0.0
  0
LINE
  8
DIM
 10
16770.0
 20
-2703.973543201608
 30
0.0
 11
17130.0
 21
-2703.973543201608
 31
0.0
  0
TEXT
  8
DIM
 10
16878.0
 20
-3903.973543201608
 30
0.0
 40
120.0
  1
2400 CLEAR
 50
90.0
  7
STANDARD
 72
1
 11
16878.0
 21
-3903.973543201608
 31
0.0
  0
LINE
  8
DIM
 10
9000.0
 20
-5103.973543201608
 30
0.0
 11
9000.0
 21
-3103.973543201608
 31
0.0
  0
LINE
  8
DIM
 10
8910.0
 20
-5193.973543201608
 30
0.0
 11
9090.0
 21
-5013.973543201608
 31
0.0
  0
LINE
  8
DIM
 10
8820.0
 20
-5103.973543201608
 30
0.0
 11
9180.0
 21
-5103.973543201608
 31
0.0
  0
LINE
  8
DIM
 10
8910.0
 20
-3193.973543201608
 30
0.0
 11
9090.0
 21
-3013.973543201608
 31
0.0
  0
LINE
  8
DIM
 10
8820.0
 20
-3103.973543201608
 30
0.0
 11
9180.0
 21
-3103.973543201608
 31
0.0
  0
TEXT
  8
DIM
 10
8928.0
 20
-4103.973543201608
 30
0.0
 40
120.0
  1
2000 RISE
 50
90.0
  7
STANDARD
 72
1
 11
8928.0
 21
-4103.973543201608
 31
0.0
  0
LINE
  8
DIM
 10
22400.0
 20
-653.9735432016082
 30
0.0
 11
23100.0
 21
-653.9735432016082
 31
0.0
  0
TEXT
  8
TEXT
 10
23160.0
 20
-713.9735432016082
 30
0.0
 40
125.0
  1
+2.450  TOP OF THE ENTRY HEAD
  7
STANDARD
 11
22760.0
 21
-713.9735432016082
 31
0.0
  0
LINE
  8
DIM
 10
22400.0
 20
-903.9735432016082
 30
0.0
 11
23100.0
 21
-903.9735432016082
 31
0.0
  0
TEXT
  8
TEXT
 10
23160.0
 20
-963.9735432016082
 30
0.0
 40
125.0
  1
+2.200  SOFFIT AT THE HEAD
  7
STANDARD
 11
22760.0
 21
-963.9735432016082
 31
0.0
  0
LINE
  8
DIM
 10
22400.0
 20
-2203.973543201608
 30
0.0
 11
23100.0
 21
-2203.973543201608
 31
0.0
  0
TEXT
  8
TEXT
 10
23160.0
 20
-2263.973543201608
 30
0.0
 40
125.0
  1
+0.900  HEADHOUSE ROOF
  7
STANDARD
 11
22760.0
 21
-2263.973543201608
 31
0.0
  0
LINE
  8
DIM
 10
22400.0
 20
-3103.973543201608
 30
0.0
 11
23100.0
 21
-3103.973543201608
 31
0.0
  0
TEXT
  8
TEXT
 10
23160.0
 20
-3163.973543201608
 30
0.0
 40
125.0
  1
 0.000  GRADE = THRESHOLD
  7
STANDARD
 11
22760.0
 21
-3163.973543201608
 31
0.0
  0
LINE
  8
DIM
 10
22400.0
 20
-5103.973543201608
 30
0.0
 11
23100.0
 21
-5103.973543201608
 31
0.0
  0
TEXT
  8
TEXT
 10
23160.0
 20
-5163.973543201608
 30
0.0
 40
125.0
  1
-2.000  PLATFORM = HEADHOUSE FLOOR
  7
STANDARD
 11
22760.0
 21
-5163.973543201608
 31
0.0
  0
LINE
  8
CENTRE
 10
11000.0
 20
-3103.973543201608
 30
0.0
 11
11000.0
 21
-903.9735432016082
 31
0.0
  0
TEXT
  8
CENTRE
 10
11070.0
 20
-2003.9735432016082
 30
0.0
 40
105.0
  1
2200 CLEAR
  7
STANDARD
 11
10870.0
 21
-2003.9735432016082
 31
0.0
  0
LINE
  8
CENTRE
 10
12200.0
 20
-3770.6415432016083
 30
0.0
 11
12200.0
 21
-1558.5185432016083
 31
0.0
  0
TEXT
  8
CENTRE
 10
12270.0
 20
-2664.580543201608
 30
0.0
 40
105.0
  1
2212 CLEAR
  7
STANDARD
 11
12070.0
 21
-2664.580543201608
 31
0.0
  0
LINE
  8
CENTRE
 10
13400.0
 20
-4437.309543201608
 30
0.0
 11
13400.0
 21
-2213.064543201608
 31
0.0
  0
TEXT
  8
CENTRE
 10
13470.0
 20
-3325.1865432016084
 30
0.0
 40
105.0
  1
2224 CLEAR
  7
STANDARD
 11
13270.0
 21
-3325.1865432016084
 31
0.0
  0
LINE
  8
CENTRE
 10
14300.0
 20
-4937.310543201608
 30
0.0
 11
14300.0
 21
-2703.973543201608
 31
0.0
  0
TEXT
  8
CENTRE
 10
14370.0
 20
-3820.6415432016083
 30
0.0
 40
105.0
  1
2233 CLEAR
  7
STANDARD
 11
14170.0
 21
-3820.6415432016083
 31
0.0
  0
TEXT
  8
TEXT
 10
7200.0
 20
2346.026456798392
 30
0.0
 40
340.0
  1
SECTION C-C   COVERED ENTRY STAIRWELL   REV F
  7
STANDARD
 11
7000.0
 21
2346.026456798392
 31
0.0
  0
TEXT
  8
TEXT
 10
7200.0
 20
1916.0264567983918
 30
0.0
 40
155.0
  1
TRUE SECTION ON Z = 6750, LOOKING SOUTH.  NOTHING IS DEVELOPED OR UNFOLDED.
  7
STANDARD
 11
7000.0
 21
1916.0264567983918
 31
0.0
  0
TEXT
  8
TEXT
 10
7200.0
 20
1676.0264567983918
 30
0.0
 40
130.0
  1
SCALE 1:50   ALL DIMENSIONS mm   LEVELS m
  7
STANDARD
 11
7000.0
 21
1676.0264567983918
 31
0.0
  0
TEXT
  8
TEXT
 10
808.6719734800399
 20
-14085.760214333557
 30
0.0
 40
125.0
  1
REV F - WHY THE APPROACH IS NOW COVERED
  7
STANDARD
 11
608.6719734800399
 21
-14085.760214333557
 31
0.0
  0
TEXT
  8
TEXT
 10
808.6719734800399
 20
-14325.760214333557
 30
0.0
 40
125.0
  1
1  THE REV E OPEN CUT HAD NO GRAVITY OUTFALL. 7.2 m2 OF OPEN PIT AT 50 mm/h
  7
STANDARD
 11
608.6719734800399
 21
-14325.760214333557
 31
0.0
  0
TEXT
  8
TEXT
 10
808.6719734800399
 20
-14565.760214333557
 30
0.0
 40
125.0
  1
   IS 0.10 l/s THAT MUST BE PUMPED; A PUMP FAILURE FLOODED THE ONLY ENTRANCE,
  7
STANDARD
 11
608.6719734800399
 21
-14565.760214333557
 31
0.0
  0
TEXT
  8
TEXT
 10
808.6719734800399
 20
-14805.760214333557
 30
0.0
 40
125.0
  1
   AND THE DOOR SILL WAS FLUSH WITH THE PLATFORM SO ANY PONDING STOOD
  7
STANDARD
 11
608.6719734800399
 21
-14805.760214333557
 31
0.0
  0
TEXT
  8
TEXT
 10
808.6719734800399
 20
-15045.760214333557
 30
0.0
 40
125.0
  1
   AGAINST IT - 50 mm IN ONE HOUR AT 50 mm/h.
  7
STANDARD
 11
608.6719734800399
 21
-15045.760214333557
 31
0.0
  0
TEXT
  8
TEXT
 10
808.6719734800399
 20
-15285.760214333557
 30
0.0
 40
125.0
  1
2  A PERMANENT 2.000 DEEP PIT IS WHERE DENSE CBRN AGENTS COLLECT. PUTTING
  7
STANDARD
 11
608.6719734800399
 21
-15285.760214333557
 31
0.0
  0
TEXT
  8
TEXT
 10
808.6719734800399
 20
-15525.760214333557
 30
0.0
 40
125.0
  1
   THE ENTRANCE OF A CBRN SHELTER AT THE BOTTOM OF ONE IS A SITING ERROR.
  7
STANDARD
 11
608.6719734800399
 21
-15525.760214333557
 31
0.0
  0
TEXT
  8
TEXT
 10
808.6719734800399
 20
-15765.760214333557
 30
0.0
 40
125.0
  1
3  THE CUT COULD NOT SIMPLY BE LIDDED AT GRADE: THE HEADROOM AT THE TOP OF
  7
STANDARD
 11
608.6719734800399
 21
-15765.760214333557
 31
0.0
  0
TEXT
  8
TEXT
 10
808.6719734800399
 20
-16005.760214333557
 30
0.0
 40
125.0
  1
   THE STEPS WOULD HAVE BEEN ZERO. THE ROOF MUST BE 2200 ABOVE THE TOP
  7
STANDARD
 11
608.6719734800399
 21
-16005.760214333557
 31
0.0
  0
TEXT
  8
TEXT
 10
808.6719734800399
 20
-16245.760214333557
 30
0.0
 40
125.0
  1
   LANDING, SO THE STRUCTURE MUST STAND ABOVE GRADE AT THE ENTRY.
  7
STANDARD
 11
608.6719734800399
 21
-16245.760214333557
 31
0.0
  0
TEXT
  8
TEXT
 10
7200.0
 20
-10600.0
 30
0.0
 40
125.0
  1

  7
STANDARD
 11
7000.0
 21
-10600.0
 31
0.0
  0
TEXT
  8
TEXT
 10
808.6719734800399
 20
-16725.760214333557
 30
0.0
 40
125.0
  1
WHAT CHANGED, AND WHAT DID NOT
  7
STANDARD
 11
608.6719734800399
 21
-16725.760214333557
 31
0.0
  0
TEXT
  8
TEXT
 10
808.6719734800399
 20
-16965.760214333557
 30
0.0
 40
125.0
  1
4  ADDED: A 1500 TOP LANDING AT 0.000 AND A 250 RC ROOF OVER THE WHOLE
  7
STANDARD
 11
608.6719734800399
 21
-16965.760214333557
 31
0.0
  0
TEXT
  8
TEXT
 10
808.6719734800399
 20
-17205.760214333557
 30
0.0
 40
125.0
  1
   STAIRWELL, SOFFIT 2200 ABOVE THE FLIGHT. THE STAIRWELL IS 1500 LONGER,
  7
STANDARD
 11
608.6719734800399
 21
-17205.760214333557
 31
0.0
  0
TEXT
  8
TEXT
 10
808.6719734800399
 20
-17445.760214333557
 30
0.0
 40
125.0
  1
   RUNNING FROM X 9.250 TO X 16.050 (MOD M1).
  7
STANDARD
 11
608.6719734800399
 21
-17445.760214333557
 31
0.0
  0
TEXT
  8
TEXT
 10
808.6719734800399
 20
-17685.760214333557
 30
0.0
 40
125.0
  1
5  THE EXTERNAL DOOR MOVES FROM THE FOOT OF THE PIT TO GRADE AT THE HEAD
  7
STANDARD
 11
608.6719734800399
 21
-17685.760214333557
 31
0.0
  0
TEXT
  8
TEXT
 10
808.6719734800399
 20
-17925.760214333557
 30
0.0
 40
125.0
  1
   OF THE STAIR. GROUND FALLS AWAY 1:50, WITH A CHANNEL AND GRATING ACROSS
  7
STANDARD
 11
608.6719734800399
 21
-17925.760214333557
 31
0.0
  0
TEXT
  8
TEXT
 10
808.6719734800399
 20
-18165.760214333557
 30
0.0
 40
125.0
  1
   THE THRESHOLD. WITH THE DOOR SHUT THE CATCHMENT IS ZERO.
  7
STANDARD
 11
608.6719734800399
 21
-18165.760214333557
 31
0.0
  0
TEXT
  8
TEXT
 10
808.6719734800399
 20
-18405.760214333557
 30
0.0
 40
125.0
  1
6  UNCHANGED: THE FLIGHT (12R @ 166.667 / 300), THE PLATFORM, THE INNER
  7
STANDARD
 11
608.6719734800399
 21
-18405.760214333557
 31
0.0
  0
TEXT
  8
TEXT
 10
808.6719734800399
 20
-18645.760214333557
 30
0.0
 40
125.0
  1
   DOOR, THE HEADHOUSE, THE MAIN STAIR AND THE WHOLE SHELTER BELOW.
  7
STANDARD
 11
608.6719734800399
 21
-18645.760214333557
 31
0.0
  0
TEXT
  8
TEXT
 10
808.6719734800399
 20
-18885.760214333557
 30
0.0
 40
125.0
  1
7  THE INNER DOOR IS NOW THE SECOND DOOR IN SERIES. THE PROTECTIVE
  7
STANDARD
 11
608.6719734800399
 21
-18885.760214333557
 31
0.0
  0
TEXT
  8
TEXT
 10
808.6719734800399
 20
-19125.760214333557
 30
0.0
 40
125.0
  1
   BOUNDARY IS STILL BLAST DOOR 1 AT -6.100 - UNCHANGED.
  7
STANDARD
 11
608.6719734800399
 21
-19125.760214333557
 31
0.0
  0
TEXT
  8
TEXT
 10
808.6719734800399
 20
-19365.760214333557
 30
0.0
 40
125.0
  1
8  THE STAIRWELL IS OUTSIDE THE PROTECTIVE BOUNDARY AND IS NOT BLAST
  7
STANDARD
 11
608.6719734800399
 21
-19365.760214333557
 31
0.0
  0
TEXT
  8
TEXT
 10
808.6719734800399
 20
-19605.760214333557
 30
0.0
 40
125.0
  1
   RATED. IT IS EXPECTED TO BE LOST IN THE DESIGN EVENT. IS 4991 CL 11.1.
  7
STANDARD
 11
608.6719734800399
 21
-19605.760214333557
 31
0.0
  0
TEXT
  8
TEXT
 10
808.6719734800399
 20
-19845.760214333557
 30
0.0
 40
125.0
  1
9  DRAINAGE IS NO LONGER IN THE SAFETY PATH: A 1.0 m3 SUMP TAKES 32 HOURS
  7
STANDARD
 11
608.6719734800399
 21
-19845.760214333557
 31
0.0
  0
TEXT
  8
TEXT
 10
808.6719734800399
 20
-20085.760214333557
 30
0.0
 40
125.0
  1
   TO FILL AT THE WORST DOOR-OPEN DRIVING-RAIN RATE. PUMP 2 l/s DUTY +
  7
STANDARD
 11
608.6719734800399
 21
-20085.760214333557
 31
0.0
  0
TEXT
  8
TEXT
 10
808.6719734800399
 20
-20325.760214333557
 30
0.0
 40
125.0
  1
   STANDBY, NON-RETURN VALVE ON THE RISING MAIN.
  7
STANDARD
 11
608.6719734800399
 21
-20325.760214333557
 31
0.0
  0
TEXT
  8
TEXT
 10
808.6719734800399
 20
-20565.760214333557
 30
0.0
 40
125.0
  1
10 THE STAIRWELL SITS ON A STEPPED RC RAFT ON COMPACTED FILL. THE FILL
  7
STANDARD
 11
608.6719734800399
 21
-20565.760214333557
 31
0.0
  0
TEXT
  8
TEXT
 10
808.6719734800399
 20
-20805.760214333557
 30
0.0
 40
125.0
  1
   UNDER IT MUST BE PLACED AND COMPACTED TO THE SAME SPECIFICATION AS THE
  7
STANDARD
 11
608.6719734800399
 21
-20805.760214333557
 31
0.0
  0
TEXT
  8
TEXT
 10
808.6719734800399
 20
-21045.760214333557
 30
0.0
 40
125.0
  1
   ENGINEERED COVER, AND A MOVEMENT JOINT PROVIDED WHERE IT MEETS THE
  7
STANDARD
 11
608.6719734800399
 21
-21045.760214333557
 31
0.0
  0
TEXT
  8
TEXT
 10
808.6719734800399
 20
-21285.760214333557
 30
0.0
 40
125.0
  1
   HEADHOUSE. CONFIRM SETTLEMENT AGAINST THE GEOTECHNICAL REPORT.
  7
STANDARD
 11
608.6719734800399
 21
-21285.760214333557
 31
0.0
  0
TEXT
  8
TEXT
 10
608.6719734800399
 20
-21525.760214333557
 30
0.0
 40
120.0
  1
MOD M1 (APPROVED) - W6 AND W7 400 THK; BOX 22000; SHAFT 15200-18000; ESC2 AT X 19900; HEADHOUSE AND COVERED STAIRWELL +200. GEOMETRY REV F + M1.
  7
STANDARD
 11
608.6719734800399
 21
-21525.760214333557
 31
0.0
  0
LINE
  8
LEADER
 10
15844.745072533511
 20
-2510.2782982755516
 30
0.0
 11
16412.65098212384
 21
-2510.2782982755516
 31
0.0
  0
LINE
  8
LEADER
 10
16412.65098212384
 20
-2510.2782982755516
 30
0.0
 11
17106.758204956463
 21
-3111.09343603483
 31
0.0
  0
LINE
  8
LEADER
 10
16596.0
 20
-3294.666778298728
 30
0.0
 11
16765.974313462826
 21
-3294.666778298728
 31
0.0
  0
LINE
  8
LEADER
 10
16765.974313462826
 20
-3294.666778298728
 30
0.0
 11
16973.72069658406
 21
-3294.666778298728
 31
0.0
  0
LINE
  8
SHEET-BORDER
 10
-341.3280265199601
 20
-22610.0
 30
0.0
 11
41708.67197348004
 21
-22610.0
 31
0.0
  0
LINE
  8
SHEET-BORDER
 10
41708.67197348004
 20
-22610.0
 30
0.0
 11
41708.67197348004
 21
7090.0
 31
0.0
  0
LINE
  8
SHEET-BORDER
 10
41708.67197348004
 20
7090.0
 30
0.0
 11
-341.3280265199601
 21
7090.0
 31
0.0
  0
LINE
  8
SHEET-BORDER
 10
-341.3280265199601
 20
7090.0
 30
0.0
 11
-341.3280265199601
 21
-22610.0
 31
0.0
  0
LINE
  8
SHEET-BORDER
 10
158.67197348003992
 20
-22110.0
 30
0.0
 11
41208.67197348004
 21
-22110.0
 31
0.0
  0
LINE
  8
SHEET-BORDER
 10
41208.67197348004
 20
-22110.0
 30
0.0
 11
41208.67197348004
 21
6590.0
 31
0.0
  0
LINE
  8
SHEET-BORDER
 10
41208.67197348004
 20
6590.0
 30
0.0
 11
158.67197348003992
 21
6590.0
 31
0.0
  0
LINE
  8
SHEET-BORDER
 10
158.67197348003992
 20
6590.0
 30
0.0
 11
158.67197348003992
 21
-22110.0
 31
0.0
  0
LINE
  8
SHEET-TITLEBLOCK
 10
32208.67197348004
 20
-22110.0
 30
0.0
 11
41208.67197348004
 21
-22110.0
 31
0.0
  0
LINE
  8
SHEET-TITLEBLOCK
 10
41208.67197348004
 20
-22110.0
 30
0.0
 11
41208.67197348004
 21
-17110.0
 31
0.0
  0
LINE
  8
SHEET-TITLEBLOCK
 10
41208.67197348004
 20
-17110.0
 30
0.0
 11
32208.67197348004
 21
-17110.0
 31
0.0
  0
LINE
  8
SHEET-TITLEBLOCK
 10
32208.67197348004
 20
-17110.0
 30
0.0
 11
32208.67197348004
 21
-22110.0
 31
0.0
  0
LINE
  8
SHEET-TITLEBLOCK
 10
32208.67197348004
 20
-21110.0
 30
0.0
 11
41208.67197348004
 21
-21110.0
 31
0.0
  0
LINE
  8
SHEET-TITLEBLOCK
 10
32208.67197348004
 20
-20510.0
 30
0.0
 11
41208.67197348004
 21
-20510.0
 31
0.0
  0
LINE
  8
SHEET-TITLEBLOCK
 10
32208.67197348004
 20
-19910.0
 30
0.0
 11
41208.67197348004
 21
-19910.0
 31
0.0
  0
LINE
  8
SHEET-TITLEBLOCK
 10
32208.67197348004
 20
-19310.0
 30
0.0
 11
41208.67197348004
 21
-19310.0
 31
0.0
  0
LINE
  8
SHEET-TITLEBLOCK
 10
32208.67197348004
 20
-18210.0
 30
0.0
 11
41208.67197348004
 21
-18210.0
 31
0.0
  0
LINE
  8
SHEET-TITLEBLOCK
 10
37808.67197348004
 20
-22110.0
 30
0.0
 11
37808.67197348004
 21
-21110.0
 31
0.0
  0
LINE
  8
SHEET-TITLEBLOCK
 10
39508.67197348004
 20
-22110.0
 30
0.0
 11
39508.67197348004
 21
-21110.0
 31
0.0
  0
LINE
  8
SHEET-TITLEBLOCK
 10
37008.67197348004
 20
-21110.0
 30
0.0
 11
37008.67197348004
 21
-20510.0
 31
0.0
  0
TEXT
  8
SHEET-TEXT
 10
32308.67197348004
 20
-21380.0
 30
0.0
 40
70.0
  1
DRAWING No.
 11
32308.67197348004
 21
-21380.0
 31
0.0
  0
TEXT
  8
SHEET-TEXT
 10
33008.67197348004
 20
-21900.0
 30
0.0
 40
220.00000000000003
  1
A-204
 11
33008.67197348004
 21
-21900.0
 31
0.0
  0
TEXT
  8
SHEET-TEXT
 10
37908.67197348004
 20
-21380.0
 30
0.0
 40
70.0
  1
REV
 11
37908.67197348004
 21
-21380.0
 31
0.0
  0
TEXT
  8
SHEET-TEXT
 10
37908.67197348004
 20
-21880.0
 30
0.0
 40
140.0
  1
F + M1
 11
37908.67197348004
 21
-21880.0
 31
0.0
  0
TEXT
  8
SHEET-TEXT
 10
39608.67197348004
 20
-21380.0
 30
0.0
 40
70.0
  1
SHEET
 11
39608.67197348004
 21
-21380.0
 31
0.0
  0
TEXT
  8
SHEET-TEXT
 10
39608.67197348004
 20
-21860.0
 30
0.0
 40
95.0
  1
9 OF 10
 11
39608.67197348004
 21
-21860.0
 31
0.0
  0
TEXT
  8
SHEET-TEXT
 10
32308.67197348004
 20
-20890.0
 30
0.0
 40
95.0
  1
SCALE   1:50 AT A1
 11
32308.67197348004
 21
-20890.0
 31
0.0
  0
TEXT
  8
SHEET-TEXT
 10
37108.67197348004
 20
-20890.0
 30
0.0
 40
95.0
  1
DATE   09.09.2026
 11
37108.67197348004
 21
-20890.0
 31
0.0
  0
TEXT
  8
SHEET-TEXT
 10
32308.67197348004
 20
-20290.0
 30
0.0
 40
75.0
  1
DRAWN  [PLACEHOLDER]
 11
32308.67197348004
 21
-20290.0
 31
0.0
  0
TEXT
  8
SHEET-TEXT
 10
35308.67197348004
 20
-20290.0
 30
0.0
 40
75.0
  1
CHECKED  [PLACEHOLDER]
 11
35308.67197348004
 21
-20290.0
 31
0.0
  0
TEXT
  8
SHEET-TEXT
 10
38308.67197348004
 20
-20290.0
 30
0.0
 40
75.0
  1
APPROVED  [PLACEHOLDER]
 11
38308.67197348004
 21
-20290.0
 31
0.0
  0
TEXT
  8
SHEET-TEXT
 10
32308.67197348004
 20
-19690.0
 30
0.0
 40
70.0
  1
STATUS
 11
32308.67197348004
 21
-19690.0
 31
0.0
  0
TEXT
  8
SHEET-TEXT
 10
33308.67197348004
 20
-19710.0
 30
0.0
 40
95.0
  1
FOR REVIEW - NOT FOR CONSTRUCTION
 11
33308.67197348004
 21
-19710.0
 31
0.0
  0
TEXT
  8
SHEET-TEXT
 10
32308.67197348004
 20
-18440.0
 30
0.0
 40
70.0
  1
DRAWING TITLE
 11
32308.67197348004
 21
-18440.0
 31
0.0
  0
TEXT
  8
SHEET-TEXT
 10
32308.67197348004
 20
-18840.0
 30
0.0
 40
120.0
  1
SECTION C-C - COVERED ENTRY STAIRWELL
 11
32308.67197348004
 21
-18840.0
 31
0.0
  0
TEXT
  8
SHEET-TEXT
 10
32308.67197348004
 20
-19170.0
 30
0.0
 40
75.0
  1
TRUE SECTION ON Z = 6750 - 12R AT 166.667 / 300, ROOF 250
 11
32308.67197348004
 21
-19170.0
 31
0.0
  0
TEXT
  8
SHEET-TEXT
 10
32308.67197348004
 20
-17350.0
 30
0.0
 40
70.0
  1
PROJECT
 11
32308.67197348004
 21
-17350.0
 31
0.0
  0
TEXT
  8
SHEET-TEXT
 10
32308.67197348004
 20
-17630.0
 30
0.0
 40
95.0
  1
UNDERGROUND CBRN-HARDENED BLAST-RESISTANT
 11
32308.67197348004
 21
-17630.0
 31
0.0
  0
TEXT
  8
SHEET-TEXT
 10
32308.67197348004
 20
-17860.0
 30
0.0
 40
95.0
  1
PROTECTIVE STRUCTURE  -  PUNE, MAHARASHTRA
 11
32308.67197348004
 21
-17860.0
 31
0.0
  0
TEXT
  8
SHEET-TEXT
 10
32308.67197348004
 20
-18100.0
 30
0.0
 40
75.0
  1
ARCHITECTURAL REV F  +  MODIFICATION M1
 11
32308.67197348004
 21
-18100.0
 31
0.0
  0
TEXT
  8
SHEET-TEXT
 10
258.6719734800399
 20
6215.0
 30
0.0
 40
160.0
  1
A-204   SECTION C-C - COVERED ENTRY STAIRWELL
 11
258.6719734800399
 21
6215.0
 31
0.0
  0
LINE
  8
SHEET-BORDER
 10
158.67197348003992
 20
6065.0
 30
0.0
 11
41208.67197348004
 21
6065.0
 31
0.0
  0
TEXT
  8
SHEET-TEXT
 10
258.6719734800399
 20
-21985.0
 30
0.0
 40
75.0
  1
QA1  09.09.2026   DRAWING QA/QC - ANNOTATION POSITIONS, SHEET FRAME AND TITLE BLOCK.  NO GEOMETRY, DIMENSION OR VALUE CHANGED.
 11
258.6719734800399
 21
-21985.0
 31
0.0
  0
LINE
  8
SHEET-BORDER
 10
458.6719734800399
 20
-21710.0
 30
0.0
 11
14854.291531417079
 21
-21710.0
 31
0.0
  0
LINE
  8
SHEET-BORDER
 10
14854.291531417079
 20
-21710.0
 30
0.0
 11
14854.291531417079
 21
-13510.760214333557
 31
0.0
  0
LINE
  8
SHEET-BORDER
 10
14854.291531417079
 20
-13510.760214333557
 30
0.0
 11
458.6719734800399
 21
-13510.760214333557
 31
0.0
  0
LINE
  8
SHEET-BORDER
 10
458.6719734800399
 20
-13510.760214333557
 30
0.0
 11
458.6719734800399
 21
-21710.0
 31
0.0
  0
TEXT
  8
SHEET-TEXT
 10
608.6719734800399
 20
-13780.760214333557
 30
0.0
 40
130.0
  1
NOTES
 11
608.6719734800399
 21
-13780.760214333557
 31
0.0
  0
ENDSEC
  0
EOF
