  0
SECTION
  2
HEADER
  9
$ACADVER
  1
AC1009
  9
$DWGCODEPAGE
  3
ANSI_1252
  9
$EXTMIN
 10
1e+20
 20
1e+20
 30
1e+20
  9
$EXTMAX
 10
-1e+20
 20
-1e+20
 30
-1e+20
  9
$LIMMIN
 10
0.0
 20
0.0
  9
$LIMMAX
 10
420.0
 20
297.0
  9
$LTSCALE
 40
25.0
  9
$LIMCHECK
 70
0
  9
$TDCREATE
 40
2461294.0692939814
  9
$TDUPDATE
 40
2461294.0692939814
  9
$PEXTMIN
 10
1e+20
 20
1e+20
 30
1e+20
  9
$PEXTMAX
 10
-1e+20
 20
-1e+20
 30
-1e+20
  9
$PLIMMIN
 10
0.0
 20
0.0
  9
$PLIMMAX
 10
420.0
 20
297.0
  0
ENDSEC
  0
SECTION
  2
TABLES
  0
TABLE
  2
VPORT
 70
1
  0
VPORT
  2
*Active
 70
0
 10
0.0
 20
0.0
 11
1.0
 21
1.0
 12
0.0
 22
0.0
 13
0.0
 23
0.0
 14
0.5
 24
0.5
 15
0.5
 25
0.5
 16
0.0
 26
0.0
 36
1.0
 17
0.0
 27
0.0
 37
0.0
 40
1000.0
 41
1.34
 42
50.0
 43
0.0
 44
0.0
 50
0.0
 51
0.0
 71
0
 72
1000
 73
1
 74
3
 75
0
 76
0
 77
0
 78
0
  0
ENDTAB
  0
TABLE
  2
LTYPE
 70
5
  0
LTYPE
  2
CONTINUOUS
 70
0
  3
Solid line
 72
65
 73
0
 40
0.0
  0
LTYPE
  2
DASHED
 70
0
  3
Dashed __ __ __
 72
65
 73
2
 40
15.0
 49
10.0
 49
-5.0
  0
LTYPE
  2
CENTER
 70
0
  3
Centre ____ _ ____
 72
65
 73
4
 40
50.0
 49
32.0
 49
-6.0
 49
6.0
 49
-6.0
  0
LTYPE
  2
ByBlock
 70
0
  3

 72
65
 73
0
 40
0.0
  0
LTYPE
  2
ByLayer
 70
0
  3

 72
65
 73
0
 40
0.0
  0
ENDTAB
  0
TABLE
  2
LAYER
 70
15
  0
LAYER
  2
0
 70
0
 62
7
  6
CONTINUOUS
  0
LAYER
  2
WALLS
 70
0
 62
7
  6
CONTINUOUS
  0
LAYER
  2
OPENINGS
 70
0
 62
1
  6
CONTINUOUS
  0
LAYER
  2
STAIRS
 70
0
 62
3
  6
CONTINUOUS
  0
LAYER
  2
GROUND
 70
0
 62
42
  6
CONTINUOUS
  0
LAYER
  2
TEXT
 70
0
 62
2
  6
CONTINUOUS
  0
LAYER
  2
DIM
 70
0
 62
4
  6
CONTINUOUS
  0
LAYER
  2
HIDDEN
 70
0
 62
8
  6
DASHED
  0
LAYER
  2
CENTRE
 70
0
 62
6
  6
CENTER
  0
LAYER
  2
BEYOND
 70
0
 62
9
  6
CONTINUOUS
  0
LAYER
  2
Defpoints
 70
0
 62
7
  6
Continuous
  0
LAYER
  2
LEADER
 70
0
 62
7
  6
Continuous
  0
LAYER
  2
SHEET-BORDER
 70
0
 62
7
  6
Continuous
  0
LAYER
  2
SHEET-TITLEBLOCK
 70
0
 62
7
  6
Continuous
  0
LAYER
  2
SHEET-TEXT
 70
0
 62
7
  6
Continuous
  0
ENDTAB
  0
TABLE
  2
STYLE
 70
1
  0
STYLE
  2
STANDARD
 70
0
 40
0.0
 41
1.0
 50
0.0
 71
0
 42
2.5
  3
txt
  4

  0
ENDTAB
  0
TABLE
  2
VIEW
 70
0
  0
ENDTAB
  0
TABLE
  2
UCS
 70
0
  0
ENDTAB
  0
TABLE
  2
APPID
 70
3
  0
APPID
  2
ACAD
 70
0
  0
APPID
  2
HATCHBACKGROUNDCOLOR
 70
0
  0
APPID
  2
EZDXF
 70
0
  0
ENDTAB
  0
TABLE
  2
DIMSTYLE
 70
1
  0
DIMSTYLE
  2
Standard
 70
0
  3

  4

  5

  6

  7

 40
1.0
 41
2.5
 42
0.625
 43
3.75
 44
1.25
 45
0.0
 46
0.0
 47
0.0
 48
0.0
140
2.5
141
2.5
142
0.0
143
0.03937007874
144
1.0
145
0.0
146
1.0
147
0.625
 71
0
 72
0
 73
0
 74
0
 75
0
 76
0
 77
1
 78
8
170
0
171
3
172
1
173
0
174
0
175
0
176
0
177
0
178
0
  0
ENDTAB
  0
ENDSEC
  0
SECTION
  2
BLOCKS
  0
BLOCK
  8
0
  2
$Model_Space
 70
0
 10
0.0
 20
0.0
 30
0.0
  3
$Model_Space
  1

1001
EZDXF
1000
WRITTEN_BY_EZDXF
1000
1.4.4 @ 2026-09-10T01:39:47.968186+00:00
  0
ENDBLK
  8
0
  0
BLOCK
  8
0
  2
$Paper_Space
 70
0
 10
0.0
 20
0.0
 30
0.0
  3
$Paper_Space
  1

  0
ENDBLK
  8
0
  0
ENDSEC
  0
SECTION
  2
ENTITIES
  0
POLYLINE
  8
GROUND
 66
1
 10
0.0
 20
0.0
 30
0.0
 70
0
  0
VERTEX
  8
GROUND
 10
-4000.0
 20
-10532.880107166779
 30
0.0
 70
0
  0
VERTEX
  8
GROUND
 10
9250.0
 20
-10532.880107166779
 30
0.0
 70
0
  0
VERTEX
  8
GROUND
 10
10600.0
 20
-9632.880107166779
 30
0.0
 70
0
  0
VERTEX
  8
GROUND
 10
18400.0
 20
-9632.880107166779
 30
0.0
 70
0
  0
VERTEX
  8
GROUND
 10
18950.0
 20
-9832.880107166779
 30
0.0
 70
0
  0
VERTEX
  8
GROUND
 10
20850.0
 20
-9832.880107166779
 30
0.0
 70
0
  0
VERTEX
  8
GROUND
 10
21900.0
 20
-10532.880107166779
 30
0.0
 70
0
  0
VERTEX
  8
GROUND
 10
40000.0
 20
-10532.880107166779
 30
0.0
 70
0
  0
SEQEND
  8
GROUND
  0
TEXT
  8
GROUND
 10
10800.0
 20
-9432.880107166779
 30
0.0
 40
120.0
  1
BERM 1.5:1
  7
STANDARD
 11
10600.0
 21
-9432.880107166779
 31
0.0
  0
POLYLINE
  8
GROUND
 66
1
 10
0.0
 20
0.0
 30
0.0
 70
1
  0
VERTEX
  8
GROUND
 10
0.0
 20
-12532.880107166779
 30
0.0
 70
0
  0
VERTEX
  8
GROUND
 10
9250.0
 20
-12532.880107166779
 30
0.0
 70
0
  0
VERTEX
  8
GROUND
 10
9250.0
 20
-10532.880107166779
 30
0.0
 70
0
  0
VERTEX
  8
GROUND
 10
0.0
 20
-10532.880107166779
 30
0.0
 70
0
  0
SEQEND
  8
GROUND
  0
POLYLINE
  8
GROUND
 66
1
 10
0.0
 20
0.0
 30
0.0
 70
1
  0
VERTEX
  8
GROUND
 10
21900.0
 20
-12532.880107166779
 30
0.0
 70
0
  0
VERTEX
  8
GROUND
 10
22000.0
 20
-12532.880107166779
 30
0.0
 70
0
  0
VERTEX
  8
GROUND
 10
22000.0
 20
-10532.880107166779
 30
0.0
 70
0
  0
VERTEX
  8
GROUND
 10
21900.0
 20
-10532.880107166779
 30
0.0
 70
0
  0
SEQEND
  8
GROUND
  0
TEXT
  8
GROUND
 10
7000.0
 20
-11732.880107166779
 30
0.0
 40
120.0
  1
2000 ENGINEERED COVER
  7
STANDARD
 72
1
 11
7000.0
 21
-11732.880107166779
 31
0.0
  0
POLYLINE
  8
HIDDEN
 66
1
 10
0.0
 20
0.0
 30
0.0
 70
1
  0
VERTEX
  8
HIDDEN
 10
0.0
 20
-17232.880107166777
 30
0.0
 70
0
  0
VERTEX
  8
HIDDEN
 10
22000.0
 20
-17232.880107166777
 30
0.0
 70
0
  0
VERTEX
  8
HIDDEN
 10
22000.0
 20
-12532.880107166779
 30
0.0
 70
0
  0
VERTEX
  8
HIDDEN
 10
0.0
 20
-12532.880107166779
 30
0.0
 70
0
  0
SEQEND
  8
HIDDEN
  0
LINE
  8
HIDDEN
 10
0.0
 20
-13432.880107166779
 30
0.0
 11
22000.0
 21
-13432.880107166779
 31
0.0
  0
LINE
  8
HIDDEN
 10
0.0
 20
-16632.880107166777
 30
0.0
 11
22000.0
 21
-16632.880107166777
 31
0.0
  0
TEXT
  8
TEXT
 10
7000.0
 20
-14332.880107166779
 30
0.0
 40
120.0
  1
UNDERGROUND SHELTER 22000 x 6200 (BURIED - SHOWN DASHED)
  7
STANDARD
 72
1
 11
7000.0
 21
-14332.880107166779
 31
0.0
  0
POLYLINE
  8
WALLS
 66
1
 10
0.0
 20
0.0
 30
0.0
 70
0
  0
VERTEX
  8
WALLS
 10
9250.0
 20
-10532.880107166779
 30
0.0
 70
0
  0
VERTEX
  8
WALLS
 10
9250.0
 20
-8082.8801071667785
 30
0.0
 70
0
  0
VERTEX
  8
WALLS
 10
11000.0
 20
-8082.8801071667785
 30
0.0
 70
0
  0
VERTEX
  8
WALLS
 10
14300.0
 20
-9632.880107166779
 30
0.0
 70
0
  0
SEQEND
  8
WALLS
  0
LINE
  8
HIDDEN
 10
9250.0
 20
-9632.880107166779
 30
0.0
 11
16050.0
 21
-9632.880107166779
 31
0.0
  0
POLYLINE
  8
OPENINGS
 66
1
 10
0.0
 20
0.0
 30
0.0
 70
1
  0
VERTEX
  8
OPENINGS
 10
9250.0
 20
-10532.880107166779
 30
0.0
 70
0
  0
VERTEX
  8
OPENINGS
 10
10250.0
 20
-10532.880107166779
 30
0.0
 70
0
  0
VERTEX
  8
OPENINGS
 10
10250.0
 20
-8432.880107166779
 30
0.0
 70
0
  0
VERTEX
  8
OPENINGS
 10
9250.0
 20
-8432.880107166779
 30
0.0
 70
0
  0
SEQEND
  8
OPENINGS
  0
TEXT
  8
TEXT
 10
9250.0
 20
-7182.8801071667785
 30
0.0
 40
120.0
  1
COVERED ENTRY STAIRWELL - REV F
  7
STANDARD
 11
9050.0
 21
-7182.8801071667785
 31
0.0
  0
TEXT
  8
TEXT
 10
9250.0
 20
-7362.8801071667785
 30
0.0
 40
120.0
  1
ENTRY DOOR 1000 x 2100 AT GRADE 0.000
  7
STANDARD
 11
9050.0
 21
-7362.8801071667785
 31
0.0
  0
TEXT
  8
TEXT
 10
9250.0
 20
-7542.8801071667785
 30
0.0
 40
120.0
  1
ROOF SOFFIT +2.200 AT THE HEAD, FALLING TO +0.400
  7
STANDARD
 11
9050.0
 21
-7542.8801071667785
 31
0.0
  0
TEXT
  8
TEXT
 10
9250.0
 20
-7722.8801071667785
 30
0.0
 40
120.0
  1
EARTH AGAINST THE WALLS TO +0.900; THE HEAD STANDS PROUD
  7
STANDARD
 11
9050.0
 21
-7722.8801071667785
 31
0.0
  0
LINE
  8
GROUND
 10
7700.0
 20
-10532.880107166779
 30
0.0
 11
9250.0
 21
-10532.880107166779
 31
0.0
  0
POLYLINE
  8
WALLS
 66
1
 10
0.0
 20
0.0
 30
0.0
 70
1
  0
VERTEX
  8
WALLS
 10
13600.0
 20
-10532.880107166779
 30
0.0
 70
0
  0
VERTEX
  8
WALLS
 10
18400.0
 20
-10532.880107166779
 30
0.0
 70
0
  0
VERTEX
  8
WALLS
 10
18400.0
 20
-9632.880107166779
 30
0.0
 70
0
  0
VERTEX
  8
WALLS
 10
13600.0
 20
-9632.880107166779
 30
0.0
 70
0
  0
SEQEND
  8
WALLS
  0
POLYLINE
  8
HIDDEN
 66
1
 10
0.0
 20
0.0
 30
0.0
 70
1
  0
VERTEX
  8
HIDDEN
 10
13600.0
 20
-12532.880107166779
 30
0.0
 70
0
  0
VERTEX
  8
HIDDEN
 10
18400.0
 20
-12532.880107166779
 30
0.0
 70
0
  0
VERTEX
  8
HIDDEN
 10
18400.0
 20
-10532.880107166779
 30
0.0
 70
0
  0
VERTEX
  8
HIDDEN
 10
13600.0
 20
-10532.880107166779
 30
0.0
 70
0
  0
SEQEND
  8
HIDDEN
  0
LINE
  8
WALLS
 10
13600.0
 20
-10132.880107166779
 30
0.0
 11
18400.0
 21
-10132.880107166779
 31
0.0
  0
TEXT
  8
TEXT
 10
13600.0
 20
-9132.880107166779
 30
0.0
 40
120.0
  1
ENTRY HEADHOUSE  ROOF TOP +0.900
  7
STANDARD
 11
13400.0
 21
-9132.880107166779
 31
0.0
  0
TEXT
  8
TEXT
 10
13600.0
 20
-9312.880107166779
 30
0.0
 40
120.0
  1
4800 x 5800 EXTERNAL, NO EARTH COVER ON THE ROOF
  7
STANDARD
 11
13400.0
 21
-9312.880107166779
 31
0.0
  0
TEXT
  8
TEXT
 10
13638.183766184073
 20
-9454.696340982704
 30
0.0
 40
120.0
  1
ONLY 900 OF IT IS ABOVE GRADE
  7
STANDARD
 11
13438.183766184073
 21
-9454.696340982704
 31
0.0
  0
POLYLINE
  8
WALLS
 66
1
 10
0.0
 20
0.0
 30
0.0
 70
1
  0
VERTEX
  8
WALLS
 10
1100.0
 20
-10532.880107166779
 30
0.0
 70
0
  0
VERTEX
  8
WALLS
 10
3000.0
 20
-10532.880107166779
 30
0.0
 70
0
  0
VERTEX
  8
WALLS
 10
3000.0
 20
-10382.880107166779
 30
0.0
 70
0
  0
VERTEX
  8
WALLS
 10
1100.0
 20
-10382.880107166779
 30
0.0
 70
0
  0
SEQEND
  8
WALLS
  0
POLYLINE
  8
OPENINGS
 66
1
 10
0.0
 20
0.0
 30
0.0
 70
1
  0
VERTEX
  8
OPENINGS
 10
1100.0
 20
-10382.880107166779
 30
0.0
 70
0
  0
VERTEX
  8
OPENINGS
 10
3000.0
 20
-10382.880107166779
 30
0.0
 70
0
  0
VERTEX
  8
OPENINGS
 10
3000.0
 20
-10182.880107166779
 30
0.0
 70
0
  0
VERTEX
  8
OPENINGS
 10
1100.0
 20
-10182.880107166779
 30
0.0
 70
0
  0
SEQEND
  8
OPENINGS
  0
TEXT
  8
TEXT
 10
2050.0
 20
-9932.880107166779
 30
0.0
 40
120.0
  1
ESC 1 HATCH
  7
STANDARD
 72
1
 11
2050.0
 21
-9932.880107166779
 31
0.0
  0
POLYLINE
  8
WALLS
 66
1
 10
0.0
 20
0.0
 30
0.0
 70
1
  0
VERTEX
  8
WALLS
 10
18950.0
 20
-10532.880107166779
 30
0.0
 70
0
  0
VERTEX
  8
WALLS
 10
20850.0
 20
-10532.880107166779
 30
0.0
 70
0
  0
VERTEX
  8
WALLS
 10
20850.0
 20
-9832.880107166779
 30
0.0
 70
0
  0
VERTEX
  8
WALLS
 10
18950.0
 20
-9832.880107166779
 30
0.0
 70
0
  0
SEQEND
  8
WALLS
  0
POLYLINE
  8
OPENINGS
 66
1
 10
0.0
 20
0.0
 30
0.0
 70
1
  0
VERTEX
  8
OPENINGS
 10
18950.0
 20
-9832.880107166779
 30
0.0
 70
0
  0
VERTEX
  8
OPENINGS
 10
20850.0
 20
-9832.880107166779
 30
0.0
 70
0
  0
VERTEX
  8
OPENINGS
 10
20850.0
 20
-9632.880107166779
 30
0.0
 70
0
  0
VERTEX
  8
OPENINGS
 10
18950.0
 20
-9632.880107166779
 30
0.0
 70
0
  0
SEQEND
  8
OPENINGS
  0
TEXT
  8
TEXT
 10
19900.0
 20
-9382.880107166779
 30
0.0
 40
120.0
  1
ESC 2 HATCH
  7
STANDARD
 72
1
 11
19900.0
 21
-9382.880107166779
 31
0.0
  0
POLYLINE
  8
WALLS
 66
1
 10
0.0
 20
0.0
 30
0.0
 70
1
  0
VERTEX
  8
WALLS
 10
31900.0
 20
-10532.880107166779
 30
0.0
 70
0
  0
VERTEX
  8
WALLS
 10
36100.0
 20
-10532.880107166779
 30
0.0
 70
0
  0
VERTEX
  8
WALLS
 10
36100.0
 20
-10082.880107166779
 30
0.0
 70
0
  0
VERTEX
  8
WALLS
 10
31900.0
 20
-10082.880107166779
 30
0.0
 70
0
  0
SEQEND
  8
WALLS
  0
POLYLINE
  8
WALLS
 66
1
 10
0.0
 20
0.0
 30
0.0
 70
1
  0
VERTEX
  8
WALLS
 10
32000.0
 20
-10082.880107166779
 30
0.0
 70
0
  0
VERTEX
  8
WALLS
 10
36000.0
 20
-10082.880107166779
 30
0.0
 70
0
  0
VERTEX
  8
WALLS
 10
36000.0
 20
-3982.8801071667785
 30
0.0
 70
0
  0
VERTEX
  8
WALLS
 10
32000.0
 20
-3982.8801071667785
 30
0.0
 70
0
  0
SEQEND
  8
WALLS
  0
LINE
  8
WALLS
 10
32000.0
 20
-6882.8801071667785
 30
0.0
 11
36000.0
 21
-6882.8801071667785
 31
0.0
  0
POLYLINE
  8
WALLS
 66
1
 10
0.0
 20
0.0
 30
0.0
 70
1
  0
VERTEX
  8
WALLS
 10
31700.0
 20
-3982.8801071667785
 30
0.0
 70
0
  0
VERTEX
  8
WALLS
 10
36300.0
 20
-3982.8801071667785
 30
0.0
 70
0
  0
VERTEX
  8
WALLS
 10
36300.0
 20
-3832.8801071667785
 30
0.0
 70
0
  0
VERTEX
  8
WALLS
 10
31700.0
 20
-3832.8801071667785
 30
0.0
 70
0
  0
SEQEND
  8
WALLS
  0
POLYLINE
  8
WALLS
 66
1
 10
0.0
 20
0.0
 30
0.0
 70
1
  0
VERTEX
  8
WALLS
 10
31700.0
 20
-3832.8801071667785
 30
0.0
 70
0
  0
VERTEX
  8
WALLS
 10
36300.0
 20
-3832.8801071667785
 30
0.0
 70
0
  0
VERTEX
  8
WALLS
 10
36300.0
 20
-3532.8801071667785
 30
0.0
 70
0
  0
VERTEX
  8
WALLS
 10
31700.0
 20
-3532.8801071667785
 30
0.0
 70
0
  0
SEQEND
  8
WALLS
  0
POLYLINE
  8
OPENINGS
 66
1
 10
0.0
 20
0.0
 30
0.0
 70
1
  0
VERTEX
  8
OPENINGS
 10
32400.0
 20
-10082.880107166779
 30
0.0
 70
0
  0
VERTEX
  8
OPENINGS
 10
33300.0
 20
-10082.880107166779
 30
0.0
 70
0
  0
VERTEX
  8
OPENINGS
 10
33300.0
 20
-7982.8801071667785
 30
0.0
 70
0
  0
VERTEX
  8
OPENINGS
 10
32400.0
 20
-7982.8801071667785
 30
0.0
 70
0
  0
SEQEND
  8
OPENINGS
  0
TEXT
  8
TEXT
 10
32850.0
 20
-7782.8801071667785
 30
0.0
 40
120.0
  1
D1
  7
STANDARD
 72
1
 11
32850.0
 21
-7782.8801071667785
 31
0.0
  0
POLYLINE
  8
OPENINGS
 66
1
 10
0.0
 20
0.0
 30
0.0
 70
1
  0
VERTEX
  8
OPENINGS
 10
34100.0
 20
-9182.880107166779
 30
0.0
 70
0
  0
VERTEX
  8
OPENINGS
 10
35300.0
 20
-9182.880107166779
 30
0.0
 70
0
  0
VERTEX
  8
OPENINGS
 10
35300.0
 20
-7982.8801071667785
 30
0.0
 70
0
  0
VERTEX
  8
OPENINGS
 10
34100.0
 20
-7982.8801071667785
 30
0.0
 70
0
  0
SEQEND
  8
OPENINGS
  0
POLYLINE
  8
OPENINGS
 66
1
 10
0.0
 20
0.0
 30
0.0
 70
1
  0
VERTEX
  8
OPENINGS
 10
32500.0
 20
-5882.8801071667785
 30
0.0
 70
0
  0
VERTEX
  8
OPENINGS
 10
33700.0
 20
-5882.8801071667785
 30
0.0
 70
0
  0
VERTEX
  8
OPENINGS
 10
33700.0
 20
-4682.8801071667785
 30
0.0
 70
0
  0
VERTEX
  8
OPENINGS
 10
32500.0
 20
-4682.8801071667785
 30
0.0
 70
0
  0
SEQEND
  8
OPENINGS
  0
POLYLINE
  8
OPENINGS
 66
1
 10
0.0
 20
0.0
 30
0.0
 70
1
  0
VERTEX
  8
OPENINGS
 10
34200.0
 20
-5882.8801071667785
 30
0.0
 70
0
  0
VERTEX
  8
OPENINGS
 10
35400.0
 20
-5882.8801071667785
 30
0.0
 70
0
  0
VERTEX
  8
OPENINGS
 10
35400.0
 20
-4682.8801071667785
 30
0.0
 70
0
  0
VERTEX
  8
OPENINGS
 10
34200.0
 20
-4682.8801071667785
 30
0.0
 70
0
  0
SEQEND
  8
OPENINGS
  0
TEXT
  8
TEXT
 10
34000.0
 20
-4382.8801071667785
 30
0.0
 40
120.0
  1
ARMOURED VISION PANELS
  7
STANDARD
 72
1
 11
34000.0
 21
-4382.8801071667785
 31
0.0
  0
POLYLINE
  8
HIDDEN
 66
1
 10
0.0
 20
0.0
 30
0.0
 70
1
  0
VERTEX
  8
HIDDEN
 10
32000.0
 20
-10082.880107166779
 30
0.0
 70
0
  0
VERTEX
  8
HIDDEN
 10
32350.0
 20
-10082.880107166779
 30
0.0
 70
0
  0
VERTEX
  8
HIDDEN
 10
32350.0
 20
-3832.8801071667785
 30
0.0
 70
0
  0
VERTEX
  8
HIDDEN
 10
32000.0
 20
-3832.8801071667785
 30
0.0
 70
0
  0
SEQEND
  8
HIDDEN
  0
POLYLINE
  8
HIDDEN
 66
1
 10
0.0
 20
0.0
 30
0.0
 70
1
  0
VERTEX
  8
HIDDEN
 10
35650.0
 20
-10082.880107166779
 30
0.0
 70
0
  0
VERTEX
  8
HIDDEN
 10
36000.0
 20
-10082.880107166779
 30
0.0
 70
0
  0
VERTEX
  8
HIDDEN
 10
36000.0
 20
-3832.8801071667785
 30
0.0
 70
0
  0
VERTEX
  8
HIDDEN
 10
35650.0
 20
-3832.8801071667785
 30
0.0
 70
0
  0
SEQEND
  8
HIDDEN
  0
POLYLINE
  8
HIDDEN
 66
1
 10
0.0
 20
0.0
 30
0.0
 70
1
  0
VERTEX
  8
HIDDEN
 10
32350.0
 20
-7332.8801071667785
 30
0.0
 70
0
  0
VERTEX
  8
HIDDEN
 10
35650.0
 20
-7332.8801071667785
 30
0.0
 70
0
  0
VERTEX
  8
HIDDEN
 10
35650.0
 20
-6882.8801071667785
 30
0.0
 70
0
  0
VERTEX
  8
HIDDEN
 10
32350.0
 20
-6882.8801071667785
 30
0.0
 70
0
  0
SEQEND
  8
HIDDEN
  0
POLYLINE
  8
HIDDEN
 66
1
 10
0.0
 20
0.0
 30
0.0
 70
1
  0
VERTEX
  8
HIDDEN
 10
32350.0
 20
-4282.8801071667785
 30
0.0
 70
0
  0
VERTEX
  8
HIDDEN
 10
35650.0
 20
-4282.8801071667785
 30
0.0
 70
0
  0
VERTEX
  8
HIDDEN
 10
35650.0
 20
-3832.8801071667785
 30
0.0
 70
0
  0
VERTEX
  8
HIDDEN
 10
32350.0
 20
-3832.8801071667785
 30
0.0
 70
0
  0
SEQEND
  8
HIDDEN
  0
POLYLINE
  8
HIDDEN
 66
1
 10
0.0
 20
0.0
 30
0.0
 70
1
  0
VERTEX
  8
HIDDEN
 10
32350.0
 20
-10482.880107166779
 30
0.0
 70
0
  0
VERTEX
  8
HIDDEN
 10
35650.0
 20
-10482.880107166779
 30
0.0
 70
0
  0
VERTEX
  8
HIDDEN
 10
35650.0
 20
-10082.880107166779
 30
0.0
 70
0
  0
VERTEX
  8
HIDDEN
 10
32350.0
 20
-10082.880107166779
 30
0.0
 70
0
  0
SEQEND
  8
HIDDEN
  0
TEXT
  8
HIDDEN
 10
32550.0
 20
-7192.8801071667785
 30
0.0
 40
120.0
  1
B1 250 x 450
  7
STANDARD
 11
32150.0
 21
-7192.8801071667785
 31
0.0
  0
TEXT
  8
HIDDEN
 10
32550.0
 20
-4142.8801071667785
 30
0.0
 40
120.0
  1
B1 250 x 450
  7
STANDARD
 11
32150.0
 21
-4142.8801071667785
 31
0.0
  0
TEXT
  8
HIDDEN
 10
32550.0
 20
-10352.880107166779
 30
0.0
 40
120.0
  1
PLINTH BEAM 250 x 400
  7
STANDARD
 11
32150.0
 21
-10352.880107166779
 31
0.0
  0
TEXT
  8
HIDDEN
 10
32120.0
 20
-6182.8801071667785
 30
0.0
 40
120.0
  1
C1
  7
STANDARD
 11
31720.0
 21
-6182.8801071667785
 31
0.0
  0
TEXT
  8
HIDDEN
 10
35770.0
 20
-6182.8801071667785
 30
0.0
 40
120.0
  1
C1
  7
STANDARD
 11
35370.0
 21
-6182.8801071667785
 31
0.0
  0
TEXT
  8
TEXT
 10
32000.0
 20
-2932.8801071667785
 30
0.0
 40
120.0
  1
FRAMED SCHEME - RC FRAME SHOWN DASHED BEHIND THE 200 INFILL
  7
STANDARD
 11
31600.0
 21
-2932.8801071667785
 31
0.0
  0
LINE
  8
STAIRS
 10
30725.0
 20
-10532.880107166779
 30
0.0
 11
30725.0
 21
-5982.8801071667785
 31
0.0
  0
LINE
  8
STAIRS
 10
30975.0
 20
-10532.880107166779
 30
0.0
 11
30975.0
 21
-5982.8801071667785
 31
0.0
  0
LINE
  8
STAIRS
 10
30850.0
 20
-9930.49910716678
 30
0.0
 11
31350.0
 21
-9930.49910716678
 31
0.0
  0
LINE
  8
STAIRS
 10
30850.0
 20
-9778.118107166778
 30
0.0
 11
31716.025
 21
-9778.118107166778
 31
0.0
  0
LINE
  8
STAIRS
 10
30850.0
 20
-9625.737107166779
 30
0.0
 11
31850.0
 21
-9625.737107166779
 31
0.0
  0
LINE
  8
STAIRS
 10
30850.0
 20
-9473.35610716678
 30
0.0
 11
31716.025
 21
-9473.35610716678
 31
0.0
  0
LINE
  8
STAIRS
 10
30850.0
 20
-9320.975107166778
 30
0.0
 11
31350.0
 21
-9320.975107166778
 31
0.0
  0
LINE
  8
STAIRS
 10
30850.0
 20
-9168.594107166778
 30
0.0
 11
30850.0
 21
-9168.594107166778
 31
0.0
  0
LINE
  8
STAIRS
 10
30850.0
 20
-9016.213107166779
 30
0.0
 11
30350.0
 21
-9016.213107166779
 31
0.0
  0
LINE
  8
STAIRS
 10
30850.0
 20
-8863.832107166778
 30
0.0
 11
29983.975
 21
-8863.832107166778
 31
0.0
  0
LINE
  8
STAIRS
 10
30850.0
 20
-8711.451107166778
 30
0.0
 11
29850.0
 21
-8711.451107166778
 31
0.0
  0
LINE
  8
STAIRS
 10
30850.0
 20
-8559.070107166779
 30
0.0
 11
29983.975
 21
-8559.070107166779
 31
0.0
  0
LINE
  8
STAIRS
 10
30850.0
 20
-8406.690107166778
 30
0.0
 11
30350.0
 21
-8406.690107166778
 31
0.0
  0
LINE
  8
STAIRS
 10
30850.0
 20
-8254.309107166779
 30
0.0
 11
30850.0
 21
-8254.309107166779
 31
0.0
  0
LINE
  8
STAIRS
 10
30850.0
 20
-8101.928107166778
 30
0.0
 11
31350.0
 21
-8101.928107166778
 31
0.0
  0
LINE
  8
STAIRS
 10
30850.0
 20
-7949.547107166778
 30
0.0
 11
31716.025
 21
-7949.547107166778
 31
0.0
  0
LINE
  8
STAIRS
 10
30850.0
 20
-7797.166107166779
 30
0.0
 11
31850.0
 21
-7797.166107166779
 31
0.0
  0
LINE
  8
STAIRS
 10
30850.0
 20
-7644.785107166779
 30
0.0
 11
31716.025
 21
-7644.785107166779
 31
0.0
  0
LINE
  8
STAIRS
 10
30850.0
 20
-7492.404107166778
 30
0.0
 11
31350.0
 21
-7492.404107166778
 31
0.0
  0
LINE
  8
STAIRS
 10
30850.0
 20
-7340.023107166779
 30
0.0
 11
30850.0
 21
-7340.023107166779
 31
0.0
  0
LINE
  8
STAIRS
 10
30850.0
 20
-7187.642107166779
 30
0.0
 11
30350.0
 21
-7187.642107166779
 31
0.0
  0
LINE
  8
STAIRS
 10
30850.0
 20
-7035.261107166778
 30
0.0
 11
29983.975
 21
-7035.261107166778
 31
0.0
  0
LINE
  8
STAIRS
 10
30850.0
 20
-6882.8801071667785
 30
0.0
 11
29850.0
 21
-6882.8801071667785
 31
0.0
  0
CIRCLE
  8
CENTRE
 10
30850.0
 20
-10082.880107166779
 30
0.0
 40
40.0
  0
TEXT
  8
TEXT
 10
30850.0
 20
-11032.880107166779
 30
0.0
 40
120.0
  1
SPIRAL STAIR
  7
STANDARD
 72
1
 11
30850.0
 21
-11032.880107166779
 31
0.0
  0
TEXT
  8
TEXT
 10
30850.0
 20
-11182.880107166779
 30
0.0
 40
120.0
  1
1000 R / 250 POLE
  7
STANDARD
 72
1
 11
30850.0
 21
-11182.880107166779
 31
0.0
  0
LINE
  8
DIM
 10
36200.0
 20
-3532.8801071667785
 30
0.0
 11
38500.0
 21
-3532.8801071667785
 31
0.0
  0
LINE
  8
DIM
 10
38400.0
 20
-3532.8801071667785
 30
0.0
 11
38500.0
 21
-3382.8801071667785
 31
0.0
  0
LINE
  8
DIM
 10
38400.0
 20
-3532.8801071667785
 30
0.0
 11
38500.0
 21
-3682.8801071667785
 31
0.0
  0
TEXT
  8
TEXT
 10
38650.0
 20
-3472.8801071667785
 30
0.0
 40
120.0
  1
+7.000  TOP OF PARDI
  7
STANDARD
 11
38250.0
 21
-3472.8801071667785
 31
0.0
  0
LINE
  8
DIM
 10
36200.0
 20
-3832.8801071667785
 30
0.0
 11
38500.0
 21
-3832.8801071667785
 31
0.0
  0
LINE
  8
DIM
 10
38400.0
 20
-3832.8801071667785
 30
0.0
 11
38500.0
 21
-3682.8801071667785
 31
0.0
  0
LINE
  8
DIM
 10
38400.0
 20
-3832.8801071667785
 30
0.0
 11
38500.0
 21
-3982.8801071667785
 31
0.0
  0
TEXT
  8
TEXT
 10
38650.0
 20
-3772.8801071667785
 30
0.0
 40
120.0
  1
+6.700  ROOF
  7
STANDARD
 11
38250.0
 21
-3772.8801071667785
 31
0.0
  0
LINE
  8
DIM
 10
36200.0
 20
-6882.8801071667785
 30
0.0
 11
38500.0
 21
-6882.8801071667785
 31
0.0
  0
LINE
  8
DIM
 10
38400.0
 20
-6882.8801071667785
 30
0.0
 11
38500.0
 21
-6732.8801071667785
 31
0.0
  0
LINE
  8
DIM
 10
38400.0
 20
-6882.8801071667785
 30
0.0
 11
38500.0
 21
-7032.8801071667785
 31
0.0
  0
TEXT
  8
TEXT
 10
38650.0
 20
-6822.8801071667785
 30
0.0
 40
120.0
  1
+3.650  FIRST FLOOR
  7
STANDARD
 11
38250.0
 21
-6822.8801071667785
 31
0.0
  0
LINE
  8
DIM
 10
36200.0
 20
-10082.880107166779
 30
0.0
 11
38500.0
 21
-10082.880107166779
 31
0.0
  0
LINE
  8
DIM
 10
38400.0
 20
-10082.880107166779
 30
0.0
 11
38500.0
 21
-9932.880107166779
 31
0.0
  0
LINE
  8
DIM
 10
38400.0
 20
-10082.880107166779
 30
0.0
 11
38500.0
 21
-10232.880107166779
 31
0.0
  0
TEXT
  8
TEXT
 10
38650.0
 20
-10022.880107166779
 30
0.0
 40
120.0
  1
+0.450  GROUND FLOOR
  7
STANDARD
 11
38250.0
 21
-10022.880107166779
 31
0.0
  0
LINE
  8
DIM
 10
36200.0
 20
-9632.880107166779
 30
0.0
 11
38500.0
 21
-9632.880107166779
 31
0.0
  0
LINE
  8
DIM
 10
38400.0
 20
-9632.880107166779
 30
0.0
 11
38500.0
 21
-9482.880107166779
 31
0.0
  0
LINE
  8
DIM
 10
38400.0
 20
-9632.880107166779
 30
0.0
 11
38500.0
 21
-9782.880107166779
 31
0.0
  0
TEXT
  8
TEXT
 10
38650.0
 20
-9572.880107166779
 30
0.0
 40
120.0
  1
+0.900  HEADHOUSE ROOF
  7
STANDARD
 11
38250.0
 21
-9572.880107166779
 31
0.0
  0
LINE
  8
DIM
 10
36200.0
 20
-10532.880107166779
 30
0.0
 11
38500.0
 21
-10532.880107166779
 31
0.0
  0
LINE
  8
DIM
 10
38400.0
 20
-10532.880107166779
 30
0.0
 11
38500.0
 21
-10382.880107166779
 31
0.0
  0
LINE
  8
DIM
 10
38400.0
 20
-10532.880107166779
 30
0.0
 11
38500.0
 21
-10682.880107166779
 31
0.0
  0
TEXT
  8
TEXT
 10
38650.0
 20
-10472.880107166779
 30
0.0
 40
120.0
  1
+0.000  GROUND LEVEL
  7
STANDARD
 11
38250.0
 21
-10472.880107166779
 31
0.0
  0
LINE
  8
DIM
 10
36200.0
 20
-12532.880107166779
 30
0.0
 11
38500.0
 21
-12532.880107166779
 31
0.0
  0
LINE
  8
DIM
 10
38400.0
 20
-12532.880107166779
 30
0.0
 11
38500.0
 21
-12382.880107166779
 31
0.0
  0
LINE
  8
DIM
 10
38400.0
 20
-12532.880107166779
 30
0.0
 11
38500.0
 21
-12682.880107166779
 31
0.0
  0
TEXT
  8
TEXT
 10
38650.0
 20
-12472.880107166779
 30
0.0
 40
120.0
  1
-2.000  TOP OF SLAB
  7
STANDARD
 11
38250.0
 21
-12472.880107166779
 31
0.0
  0
LINE
  8
DIM
 10
36200.0
 20
-16632.880107166777
 30
0.0
 11
38500.0
 21
-16632.880107166777
 31
0.0
  0
LINE
  8
DIM
 10
38400.0
 20
-16632.880107166777
 30
0.0
 11
38500.0
 21
-16482.880107166777
 31
0.0
  0
LINE
  8
DIM
 10
38400.0
 20
-16632.880107166777
 30
0.0
 11
38500.0
 21
-16782.880107166777
 31
0.0
  0
TEXT
  8
TEXT
 10
38650.0
 20
-16572.880107166777
 30
0.0
 40
120.0
  1
-6.100  SHELTER FLOOR
  7
STANDARD
 11
38250.0
 21
-16572.880107166777
 31
0.0
  0
LINE
  8
DIM
 10
36200.0
 20
-17232.880107166777
 30
0.0
 11
38500.0
 21
-17232.880107166777
 31
0.0
  0
LINE
  8
DIM
 10
38400.0
 20
-17232.880107166777
 30
0.0
 11
38500.0
 21
-17082.880107166777
 31
0.0
  0
LINE
  8
DIM
 10
38400.0
 20
-17232.880107166777
 30
0.0
 11
38500.0
 21
-17382.880107166777
 31
0.0
  0
TEXT
  8
TEXT
 10
38650.0
 20
-17172.880107166777
 30
0.0
 40
120.0
  1
-6.700  U/S MAT
  7
STANDARD
 11
38250.0
 21
-17172.880107166777
 31
0.0
  0
LINE
  8
DIM
 10
0.0
 20
-18732.880107166777
 30
0.0
 11
22000.0
 21
-18732.880107166777
 31
0.0
  0
LINE
  8
DIM
 10
-90.0
 20
-18822.880107166777
 30
0.0
 11
90.0
 21
-18642.880107166777
 31
0.0
  0
LINE
  8
DIM
 10
0.0
 20
-18912.880107166777
 30
0.0
 11
0.0
 21
-18552.880107166777
 31
0.0
  0
LINE
  8
DIM
 10
21910.0
 20
-18822.880107166777
 30
0.0
 11
22090.0
 21
-18642.880107166777
 31
0.0
  0
LINE
  8
DIM
 10
22000.0
 20
-18912.880107166777
 30
0.0
 11
22000.0
 21
-18552.880107166777
 31
0.0
  0
TEXT
  8
DIM
 10
11000.0
 20
-18660.880107166777
 30
0.0
 40
120.0
  1
22000 SHELTER
  7
STANDARD
 72
1
 11
11000.0
 21
-18660.880107166777
 31
0.0
  0
LINE
  8
DIM
 10
22000.0
 20
-18732.880107166777
 30
0.0
 11
32000.0
 21
-18732.880107166777
 31
0.0
  0
LINE
  8
DIM
 10
21910.0
 20
-18822.880107166777
 30
0.0
 11
22090.0
 21
-18642.880107166777
 31
0.0
  0
LINE
  8
DIM
 10
22000.0
 20
-18912.880107166777
 30
0.0
 11
22000.0
 21
-18552.880107166777
 31
0.0
  0
LINE
  8
DIM
 10
31910.0
 20
-18822.880107166777
 30
0.0
 11
32090.0
 21
-18642.880107166777
 31
0.0
  0
LINE
  8
DIM
 10
32000.0
 20
-18912.880107166777
 30
0.0
 11
32000.0
 21
-18552.880107166777
 31
0.0
  0
TEXT
  8
DIM
 10
27000.0
 20
-18660.880107166777
 30
0.0
 40
120.0
  1
10000 MIN CLEAR
  7
STANDARD
 72
1
 11
27000.0
 21
-18660.880107166777
 31
0.0
  0
LINE
  8
DIM
 10
32000.0
 20
-18732.880107166777
 30
0.0
 11
36000.0
 21
-18732.880107166777
 31
0.0
  0
LINE
  8
DIM
 10
31910.0
 20
-18822.880107166777
 30
0.0
 11
32090.0
 21
-18642.880107166777
 31
0.0
  0
LINE
  8
DIM
 10
32000.0
 20
-18912.880107166777
 30
0.0
 11
32000.0
 21
-18552.880107166777
 31
0.0
  0
LINE
  8
DIM
 10
35910.0
 20
-18822.880107166777
 30
0.0
 11
36090.0
 21
-18642.880107166777
 31
0.0
  0
LINE
  8
DIM
 10
36000.0
 20
-18912.880107166777
 30
0.0
 11
36000.0
 21
-18552.880107166777
 31
0.0
  0
TEXT
  8
DIM
 10
34000.0
 20
-18660.880107166777
 30
0.0
 40
120.0
  1
4000 SENTRY POST
  7
STANDARD
 72
1
 11
34000.0
 21
-18660.880107166777
 31
0.0
  0
LINE
  8
DIM
 10
29800.0
 20
-10082.880107166779
 30
0.0
 11
29800.0
 21
-6882.8801071667785
 31
0.0
  0
LINE
  8
DIM
 10
29710.0
 20
-10172.880107166779
 30
0.0
 11
29890.0
 21
-9992.880107166779
 31
0.0
  0
LINE
  8
DIM
 10
29620.0
 20
-10082.880107166779
 30
0.0
 11
29980.0
 21
-10082.880107166779
 31
0.0
  0
LINE
  8
DIM
 10
29710.0
 20
-6972.8801071667785
 30
0.0
 11
29890.0
 21
-6792.8801071667785
 31
0.0
  0
LINE
  8
DIM
 10
29620.0
 20
-6882.8801071667785
 30
0.0
 11
29980.0
 21
-6882.8801071667785
 31
0.0
  0
TEXT
  8
DIM
 10
29728.0
 20
-8482.880107166779
 30
0.0
 40
120.0
  1
3200
 50
90.0
  7
STANDARD
 72
1
 11
29728.0
 21
-8482.880107166779
 31
0.0
  0
LINE
  8
DIM
 10
29800.0
 20
-6882.8801071667785
 30
0.0
 11
29800.0
 21
-3982.8801071667785
 31
0.0
  0
LINE
  8
DIM
 10
29710.0
 20
-6972.8801071667785
 30
0.0
 11
29890.0
 21
-6792.8801071667785
 31
0.0
  0
LINE
  8
DIM
 10
29620.0
 20
-6882.8801071667785
 30
0.0
 11
29980.0
 21
-6882.8801071667785
 31
0.0
  0
LINE
  8
DIM
 10
29710.0
 20
-4072.8801071667785
 30
0.0
 11
29890.0
 21
-3892.8801071667785
 31
0.0
  0
LINE
  8
DIM
 10
29620.0
 20
-3982.8801071667785
 30
0.0
 11
29980.0
 21
-3982.8801071667785
 31
0.0
  0
TEXT
  8
DIM
 10
29728.0
 20
-5432.8801071667785
 30
0.0
 40
120.0
  1
2900
 50
90.0
  7
STANDARD
 72
1
 11
29728.0
 21
-5432.8801071667785
 31
0.0
  0
TEXT
  8
TEXT
 10
-4000.0
 20
-1732.8801071667785
 30
0.0
 40
250.0
  1
DRAWING 5  -  FRONT ELEVATION
  7
STANDARD
 11
-4000.0
 21
-1732.8801071667785
 31
0.0
  0
TEXT
  8
TEXT
 10
-4000.0
 20
-2132.8801071667785
 30
0.0
 40
120.0
  1
SCALE 1:50 AT A0   -   ALL DIMENSIONS IN MILLIMETRES
  7
STANDARD
 11
-4000.0
 21
-2132.8801071667785
 31
0.0
  0
TEXT
  8
TEXT
 10
-5833.111185532485
 20
-30315.760214333557
 30
0.0
 40
120.0
  1
SENTRY POST IS A SEPARATE STRUCTURE ON ITS OWN FOOTINGS, 10 m CLEAR OF THE SHELTER EXCAVATION
  7
STANDARD
 11
-5833.111185532485
 21
-30315.760214333557
 31
0.0
  0
TEXT
  8
TEXT
 10
-5833.111185532485
 20
-30615.760214333557
 30
0.0
 40
120.0
  1
MOD M1 (APPROVED) - W6 AND W7 400 THK; BOX 22000; SHAFT 15200-18000; ESC2 AT X 19900; HEADHOUSE AND COVERED STAIRWELL +200. GEOMETRY REV F + M1.
  7
STANDARD
 11
-5833.111185532485
 21
-30615.760214333557
 31
0.0
  0
LINE
  8
SHEET-BORDER
 10
-6783.111185532485
 20
-31700.0
 30
0.0
 11
52666.888814467515
 21
-31700.0
 31
0.0
  0
LINE
  8
SHEET-BORDER
 10
52666.888814467515
 20
-31700.0
 30
0.0
 11
52666.888814467515
 21
10350.0
 31
0.0
  0
LINE
  8
SHEET-BORDER
 10
52666.888814467515
 20
10350.0
 30
0.0
 11
-6783.111185532485
 21
10350.0
 31
0.0
  0
LINE
  8
SHEET-BORDER
 10
-6783.111185532485
 20
10350.0
 30
0.0
 11
-6783.111185532485
 21
-31700.0
 31
0.0
  0
LINE
  8
SHEET-BORDER
 10
-6283.111185532485
 20
-31200.0
 30
0.0
 11
52166.888814467515
 21
-31200.0
 31
0.0
  0
LINE
  8
SHEET-BORDER
 10
52166.888814467515
 20
-31200.0
 30
0.0
 11
52166.888814467515
 21
9850.0
 31
0.0
  0
LINE
  8
SHEET-BORDER
 10
52166.888814467515
 20
9850.0
 30
0.0
 11
-6283.111185532485
 21
9850.0
 31
0.0
  0
LINE
  8
SHEET-BORDER
 10
-6283.111185532485
 20
9850.0
 30
0.0
 11
-6283.111185532485
 21
-31200.0
 31
0.0
  0
LINE
  8
SHEET-TITLEBLOCK
 10
43166.888814467515
 20
-31200.0
 30
0.0
 11
52166.888814467515
 21
-31200.0
 31
0.0
  0
LINE
  8
SHEET-TITLEBLOCK
 10
52166.888814467515
 20
-31200.0
 30
0.0
 11
52166.888814467515
 21
-26200.0
 31
0.0
  0
LINE
  8
SHEET-TITLEBLOCK
 10
52166.888814467515
 20
-26200.0
 30
0.0
 11
43166.888814467515
 21
-26200.0
 31
0.0
  0
LINE
  8
SHEET-TITLEBLOCK
 10
43166.888814467515
 20
-26200.0
 30
0.0
 11
43166.888814467515
 21
-31200.0
 31
0.0
  0
LINE
  8
SHEET-TITLEBLOCK
 10
43166.888814467515
 20
-30200.0
 30
0.0
 11
52166.888814467515
 21
-30200.0
 31
0.0
  0
LINE
  8
SHEET-TITLEBLOCK
 10
43166.888814467515
 20
-29600.0
 30
0.0
 11
52166.888814467515
 21
-29600.0
 31
0.0
  0
LINE
  8
SHEET-TITLEBLOCK
 10
43166.888814467515
 20
-29000.0
 30
0.0
 11
52166.888814467515
 21
-29000.0
 31
0.0
  0
LINE
  8
SHEET-TITLEBLOCK
 10
43166.888814467515
 20
-28400.0
 30
0.0
 11
52166.888814467515
 21
-28400.0
 31
0.0
  0
LINE
  8
SHEET-TITLEBLOCK
 10
43166.888814467515
 20
-27300.0
 30
0.0
 11
52166.888814467515
 21
-27300.0
 31
0.0
  0
LINE
  8
SHEET-TITLEBLOCK
 10
48766.888814467515
 20
-31200.0
 30
0.0
 11
48766.888814467515
 21
-30200.0
 31
0.0
  0
LINE
  8
SHEET-TITLEBLOCK
 10
50466.888814467515
 20
-31200.0
 30
0.0
 11
50466.888814467515
 21
-30200.0
 31
0.0
  0
LINE
  8
SHEET-TITLEBLOCK
 10
47966.888814467515
 20
-30200.0
 30
0.0
 11
47966.888814467515
 21
-29600.0
 31
0.0
  0
TEXT
  8
SHEET-TEXT
 10
43266.888814467515
 20
-30470.0
 30
0.0
 40
70.0
  1
DRAWING No.
 11
43266.888814467515
 21
-30470.0
 31
0.0
  0
TEXT
  8
SHEET-TEXT
 10
43966.888814467515
 20
-30990.0
 30
0.0
 40
220.00000000000003
  1
A-301
 11
43966.888814467515
 21
-30990.0
 31
0.0
  0
TEXT
  8
SHEET-TEXT
 10
48866.888814467515
 20
-30470.0
 30
0.0
 40
70.0
  1
REV
 11
48866.888814467515
 21
-30470.0
 31
0.0
  0
TEXT
  8
SHEET-TEXT
 10
48866.888814467515
 20
-30970.0
 30
0.0
 40
140.0
  1
F + M1
 11
48866.888814467515
 21
-30970.0
 31
0.0
  0
TEXT
  8
SHEET-TEXT
 10
50566.888814467515
 20
-30470.0
 30
0.0
 40
70.0
  1
SHEET
 11
50566.888814467515
 21
-30470.0
 31
0.0
  0
TEXT
  8
SHEET-TEXT
 10
50566.888814467515
 20
-30950.0
 30
0.0
 40
95.0
  1
10 OF 10
 11
50566.888814467515
 21
-30950.0
 31
0.0
  0
TEXT
  8
SHEET-TEXT
 10
43266.888814467515
 20
-29980.0
 30
0.0
 40
95.0
  1
SCALE   1:50 AT A0
 11
43266.888814467515
 21
-29980.0
 31
0.0
  0
TEXT
  8
SHEET-TEXT
 10
48066.888814467515
 20
-29980.0
 30
0.0
 40
95.0
  1
DATE   09.09.2026
 11
48066.888814467515
 21
-29980.0
 31
0.0
  0
TEXT
  8
SHEET-TEXT
 10
43266.888814467515
 20
-29380.0
 30
0.0
 40
75.0
  1
DRAWN  [PLACEHOLDER]
 11
43266.888814467515
 21
-29380.0
 31
0.0
  0
TEXT
  8
SHEET-TEXT
 10
46266.888814467515
 20
-29380.0
 30
0.0
 40
75.0
  1
CHECKED  [PLACEHOLDER]
 11
46266.888814467515
 21
-29380.0
 31
0.0
  0
TEXT
  8
SHEET-TEXT
 10
49266.888814467515
 20
-29380.0
 30
0.0
 40
75.0
  1
APPROVED  [PLACEHOLDER]
 11
49266.888814467515
 21
-29380.0
 31
0.0
  0
TEXT
  8
SHEET-TEXT
 10
43266.888814467515
 20
-28780.0
 30
0.0
 40
70.0
  1
STATUS
 11
43266.888814467515
 21
-28780.0
 31
0.0
  0
TEXT
  8
SHEET-TEXT
 10
44266.888814467515
 20
-28800.0
 30
0.0
 40
95.0
  1
FOR REVIEW - NOT FOR CONSTRUCTION
 11
44266.888814467515
 21
-28800.0
 31
0.0
  0
TEXT
  8
SHEET-TEXT
 10
43266.888814467515
 20
-27530.0
 30
0.0
 40
70.0
  1
DRAWING TITLE
 11
43266.888814467515
 21
-27530.0
 31
0.0
  0
TEXT
  8
SHEET-TEXT
 10
43266.888814467515
 20
-27930.0
 30
0.0
 40
120.0
  1
FRONT ELEVATION
 11
43266.888814467515
 21
-27930.0
 31
0.0
  0
TEXT
  8
SHEET-TEXT
 10
43266.888814467515
 20
-28260.0
 30
0.0
 40
75.0
  1
SHELTER, HEADHOUSE, BERM AND SENTRY POST - 44 m OVERALL
 11
43266.888814467515
 21
-28260.0
 31
0.0
  0
TEXT
  8
SHEET-TEXT
 10
43266.888814467515
 20
-26440.0
 30
0.0
 40
70.0
  1
PROJECT
 11
43266.888814467515
 21
-26440.0
 31
0.0
  0
TEXT
  8
SHEET-TEXT
 10
43266.888814467515
 20
-26720.0
 30
0.0
 40
95.0
  1
UNDERGROUND CBRN-HARDENED BLAST-RESISTANT
 11
43266.888814467515
 21
-26720.0
 31
0.0
  0
TEXT
  8
SHEET-TEXT
 10
43266.888814467515
 20
-26950.0
 30
0.0
 40
95.0
  1
PROTECTIVE STRUCTURE  -  PUNE, MAHARASHTRA
 11
43266.888814467515
 21
-26950.0
 31
0.0
  0
TEXT
  8
SHEET-TEXT
 10
43266.888814467515
 20
-27190.0
 30
0.0
 40
75.0
  1
ARCHITECTURAL REV F  +  MODIFICATION M1
 11
43266.888814467515
 21
-27190.0
 31
0.0
  0
TEXT
  8
SHEET-TEXT
 10
-6183.111185532485
 20
9475.0
 30
0.0
 40
160.0
  1
A-301   FRONT ELEVATION
 11
-6183.111185532485
 21
9475.0
 31
0.0
  0
LINE
  8
SHEET-BORDER
 10
-6283.111185532485
 20
9325.0
 30
0.0
 11
52166.888814467515
 21
9325.0
 31
0.0
  0
TEXT
  8
SHEET-TEXT
 10
-6183.111185532485
 20
-31075.0
 30
0.0
 40
75.0
  1
QA1  09.09.2026   DRAWING QA/QC - ANNOTATION POSITIONS, SHEET FRAME AND TITLE BLOCK.  NO GEOMETRY, DIMENSION OR VALUE CHANGED.
 11
-6183.111185532485
 21
-31075.0
 31
0.0
  0
LINE
  8
SHEET-BORDER
 10
-5983.111185532485
 20
-30800.0
 30
0.0
 11
8412.508372404554
 21
-30800.0
 31
0.0
  0
LINE
  8
SHEET-BORDER
 10
8412.508372404554
 20
-30800.0
 30
0.0
 11
8412.508372404554
 21
-29745.760214333557
 31
0.0
  0
LINE
  8
SHEET-BORDER
 10
8412.508372404554
 20
-29745.760214333557
 30
0.0
 11
-5983.111185532485
 21
-29745.760214333557
 31
0.0
  0
LINE
  8
SHEET-BORDER
 10
-5983.111185532485
 20
-29745.760214333557
 30
0.0
 11
-5983.111185532485
 21
-30800.0
 31
0.0
  0
TEXT
  8
SHEET-TEXT
 10
-5833.111185532485
 20
-30015.760214333557
 30
0.0
 40
130.0
  1
NOTES
 11
-5833.111185532485
 21
-30015.760214333557
 31
0.0
  0
ENDSEC
  0
EOF
