0
SECTION
2
HEADER
9
$ACADVER
1
AC1009
9
$INSUNITS
70
4
9
$MEASUREMENT
70
1
9
$LTSCALE
40
25.0
9
$LIMCHECK
70
0
9
$EXTMIN
10
-6000.000
20
-11700.000
30
0.0
9
$EXTMAX
10
42098.000
20
11050.000
30
0.0
9
$LIMMIN
10
-6000.000
20
-11700.000
9
$LIMMAX
10
42098.000
20
11050.000
0
ENDSEC
0
SECTION
2
TABLES
0
TABLE
2
LTYPE
70
3
0
LTYPE
2
CONTINUOUS
70
0
3
Solid line
72
65
73
0
40
0.0
0
LTYPE
2
DASHED
70
0
3
Dashed __ __ __
72
65
73
2
40
15.0
49
10.0
49
-5.0
0
LTYPE
2
CENTER
70
0
3
Centre ____ _ ____
72
65
73
4
40
50.0
49
32.0
49
-6.0
49
6.0
49
-6.0
0
ENDTAB
0
TABLE
2
LAYER
70
10
0
LAYER
2
0
70
0
62
7
6
CONTINUOUS
0
LAYER
2
WALLS
70
0
62
7
6
CONTINUOUS
0
LAYER
2
OPENINGS
70
0
62
1
6
CONTINUOUS
0
LAYER
2
STAIRS
70
0
62
3
6
CONTINUOUS
0
LAYER
2
GROUND
70
0
62
42
6
CONTINUOUS
0
LAYER
2
TEXT
70
0
62
2
6
CONTINUOUS
0
LAYER
2
DIM
70
0
62
4
6
CONTINUOUS
0
LAYER
2
HIDDEN
70
0
62
8
6
DASHED
0
LAYER
2
CENTRE
70
0
62
6
6
CENTER
0
LAYER
2
BEYOND
70
0
62
9
6
CONTINUOUS
0
ENDTAB
0
TABLE
2
STYLE
70
1
0
STYLE
2
STANDARD
70
0
40
0.0
41
1.0
50
0.0
71
0
42
2.5
3
txt
4

0
ENDTAB
0
TABLE
2
APPID
70
1
0
APPID
2
ACAD
70
0
0
ENDTAB
0
ENDSEC
0
SECTION
2
BLOCKS
0
ENDSEC
0
SECTION
2
ENTITIES
0
POLYLINE
8
GROUND
66
1
10
0.0
20
0.0
30
0.0
70
0
0
VERTEX
8
GROUND
10
-4000.000
20
0.000
30
0.0
0
VERTEX
8
GROUND
10
9050.000
20
0.000
30
0.0
0
VERTEX
8
GROUND
10
10400.000
20
900.000
30
0.0
0
VERTEX
8
GROUND
10
18200.000
20
900.000
30
0.0
0
VERTEX
8
GROUND
10
18550.000
20
700.000
30
0.0
0
VERTEX
8
GROUND
10
20450.000
20
700.000
30
0.0
0
VERTEX
8
GROUND
10
21500.000
20
0.000
30
0.0
0
VERTEX
8
GROUND
10
39600.000
20
0.000
30
0.0
0
SEQEND
8
GROUND
0
TEXT
8
GROUND
10
10600.000
20
1100.000
30
0.0
40
120.000
1
BERM 1.5:1
7
STANDARD
72
0
11
10600.000
21
1100.000
31
0.0
0
POLYLINE
8
GROUND
66
1
10
0.0
20
0.0
30
0.0
70
1
0
VERTEX
8
GROUND
10
0.000
20
-2000.000
30
0.0
0
VERTEX
8
GROUND
10
9050.000
20
-2000.000
30
0.0
0
VERTEX
8
GROUND
10
9050.000
20
0.000
30
0.0
0
VERTEX
8
GROUND
10
0.000
20
0.000
30
0.0
0
SEQEND
8
GROUND
0
POLYLINE
8
GROUND
66
1
10
0.0
20
0.0
30
0.0
70
1
0
VERTEX
8
GROUND
10
21500.000
20
-2000.000
30
0.0
0
VERTEX
8
GROUND
10
21600.000
20
-2000.000
30
0.0
0
VERTEX
8
GROUND
10
21600.000
20
0.000
30
0.0
0
VERTEX
8
GROUND
10
21500.000
20
0.000
30
0.0
0
SEQEND
8
GROUND
0
TEXT
8
GROUND
10
7000.000
20
-1200.000
30
0.0
40
120.000
1
2000 ENGINEERED COVER
7
STANDARD
72
1
11
7000.000
21
-1200.000
31
0.0
0
POLYLINE
8
HIDDEN
66
1
10
0.0
20
0.0
30
0.0
70
1
0
VERTEX
8
HIDDEN
10
0.000
20
-6700.000
30
0.0
0
VERTEX
8
HIDDEN
10
21600.000
20
-6700.000
30
0.0
0
VERTEX
8
HIDDEN
10
21600.000
20
-2000.000
30
0.0
0
VERTEX
8
HIDDEN
10
0.000
20
-2000.000
30
0.0
0
SEQEND
8
HIDDEN
0
LINE
8
HIDDEN
10
0.000
20
-2900.000
30
0.0
11
21600.000
21
-2900.000
31
0.0
0
LINE
8
HIDDEN
10
0.000
20
-6100.000
30
0.0
11
21600.000
21
-6100.000
31
0.0
0
TEXT
8
TEXT
10
7000.000
20
-3800.000
30
0.0
40
120.000
1
UNDERGROUND SHELTER 21600 x 6200 (BURIED - SHOWN DASHED)
7
STANDARD
72
1
11
7000.000
21
-3800.000
31
0.0
0
POLYLINE
8
WALLS
66
1
10
0.0
20
0.0
30
0.0
70
0
0
VERTEX
8
WALLS
10
9050.000
20
0.000
30
0.0
0
VERTEX
8
WALLS
10
9050.000
20
2450.000
30
0.0
0
VERTEX
8
WALLS
10
10800.000
20
2450.000
30
0.0
0
VERTEX
8
WALLS
10
14100.000
20
900.000
30
0.0
0
SEQEND
8
WALLS
0
LINE
8
HIDDEN
10
9050.000
20
900.000
30
0.0
11
15850.000
21
900.000
31
0.0
0
POLYLINE
8
OPENINGS
66
1
10
0.0
20
0.0
30
0.0
70
1
0
VERTEX
8
OPENINGS
10
9050.000
20
0.000
30
0.0
0
VERTEX
8
OPENINGS
10
10050.000
20
0.000
30
0.0
0
VERTEX
8
OPENINGS
10
10050.000
20
2100.000
30
0.0
0
VERTEX
8
OPENINGS
10
9050.000
20
2100.000
30
0.0
0
SEQEND
8
OPENINGS
0
TEXT
8
TEXT
10
9050.000
20
3350.000
30
0.0
40
120.000
1
COVERED ENTRY STAIRWELL - REV F
7
STANDARD
72
0
11
9050.000
21
3350.000
31
0.0
0
TEXT
8
TEXT
10
9050.000
20
3170.000
30
0.0
40
120.000
1
ENTRY DOOR 1000 x 2100 AT GRADE 0.000
7
STANDARD
72
0
11
9050.000
21
3170.000
31
0.0
0
TEXT
8
TEXT
10
9050.000
20
2990.000
30
0.0
40
120.000
1
ROOF SOFFIT +2.200 AT THE HEAD, FALLING TO +0.400
7
STANDARD
72
0
11
9050.000
21
2990.000
31
0.0
0
TEXT
8
TEXT
10
9050.000
20
2810.000
30
0.0
40
120.000
1
EARTH AGAINST THE WALLS TO +0.900; THE HEAD STANDS PROUD
7
STANDARD
72
0
11
9050.000
21
2810.000
31
0.0
0
LINE
8
GROUND
10
7700.000
20
0.000
30
0.0
11
9050.000
21
0.000
31
0.0
0
POLYLINE
8
WALLS
66
1
10
0.0
20
0.0
30
0.0
70
1
0
VERTEX
8
WALLS
10
13400.000
20
0.000
30
0.0
0
VERTEX
8
WALLS
10
18200.000
20
0.000
30
0.0
0
VERTEX
8
WALLS
10
18200.000
20
900.000
30
0.0
0
VERTEX
8
WALLS
10
13400.000
20
900.000
30
0.0
0
SEQEND
8
WALLS
0
POLYLINE
8
HIDDEN
66
1
10
0.0
20
0.0
30
0.0
70
1
0
VERTEX
8
HIDDEN
10
13400.000
20
-2000.000
30
0.0
0
VERTEX
8
HIDDEN
10
18200.000
20
-2000.000
30
0.0
0
VERTEX
8
HIDDEN
10
18200.000
20
0.000
30
0.0
0
VERTEX
8
HIDDEN
10
13400.000
20
0.000
30
0.0
0
SEQEND
8
HIDDEN
0
LINE
8
WALLS
10
13400.000
20
400.000
30
0.0
11
18200.000
21
400.000
31
0.0
0
TEXT
8
TEXT
10
13400.000
20
1400.000
30
0.0
40
120.000
1
ENTRY HEADHOUSE  ROOF TOP +0.900
7
STANDARD
72
0
11
13400.000
21
1400.000
31
0.0
0
TEXT
8
TEXT
10
13400.000
20
1220.000
30
0.0
40
120.000
1
4800 x 5800 EXTERNAL, NO EARTH COVER ON THE ROOF
7
STANDARD
72
0
11
13400.000
21
1220.000
31
0.0
0
TEXT
8
TEXT
10
13400.000
20
1040.000
30
0.0
40
120.000
1
ONLY 900 OF IT IS ABOVE GRADE
7
STANDARD
72
0
11
13400.000
21
1040.000
31
0.0
0
POLYLINE
8
WALLS
66
1
10
0.0
20
0.0
30
0.0
70
1
0
VERTEX
8
WALLS
10
1100.000
20
0.000
30
0.0
0
VERTEX
8
WALLS
10
3000.000
20
0.000
30
0.0
0
VERTEX
8
WALLS
10
3000.000
20
150.000
30
0.0
0
VERTEX
8
WALLS
10
1100.000
20
150.000
30
0.0
0
SEQEND
8
WALLS
0
POLYLINE
8
OPENINGS
66
1
10
0.0
20
0.0
30
0.0
70
1
0
VERTEX
8
OPENINGS
10
1100.000
20
150.000
30
0.0
0
VERTEX
8
OPENINGS
10
3000.000
20
150.000
30
0.0
0
VERTEX
8
OPENINGS
10
3000.000
20
350.000
30
0.0
0
VERTEX
8
OPENINGS
10
1100.000
20
350.000
30
0.0
0
SEQEND
8
OPENINGS
0
TEXT
8
TEXT
10
2050.000
20
600.000
30
0.0
40
120.000
1
ESC 1 HATCH
7
STANDARD
72
1
11
2050.000
21
600.000
31
0.0
0
POLYLINE
8
WALLS
66
1
10
0.0
20
0.0
30
0.0
70
1
0
VERTEX
8
WALLS
10
18550.000
20
0.000
30
0.0
0
VERTEX
8
WALLS
10
20450.000
20
0.000
30
0.0
0
VERTEX
8
WALLS
10
20450.000
20
700.000
30
0.0
0
VERTEX
8
WALLS
10
18550.000
20
700.000
30
0.0
0
SEQEND
8
WALLS
0
POLYLINE
8
OPENINGS
66
1
10
0.0
20
0.0
30
0.0
70
1
0
VERTEX
8
OPENINGS
10
18550.000
20
700.000
30
0.0
0
VERTEX
8
OPENINGS
10
20450.000
20
700.000
30
0.0
0
VERTEX
8
OPENINGS
10
20450.000
20
900.000
30
0.0
0
VERTEX
8
OPENINGS
10
18550.000
20
900.000
30
0.0
0
SEQEND
8
OPENINGS
0
TEXT
8
TEXT
10
19500.000
20
1150.000
30
0.0
40
120.000
1
ESC 2 HATCH
7
STANDARD
72
1
11
19500.000
21
1150.000
31
0.0
0
POLYLINE
8
WALLS
66
1
10
0.0
20
0.0
30
0.0
70
1
0
VERTEX
8
WALLS
10
31500.000
20
0.000
30
0.0
0
VERTEX
8
WALLS
10
35700.000
20
0.000
30
0.0
0
VERTEX
8
WALLS
10
35700.000
20
450.000
30
0.0
0
VERTEX
8
WALLS
10
31500.000
20
450.000
30
0.0
0
SEQEND
8
WALLS
0
POLYLINE
8
WALLS
66
1
10
0.0
20
0.0
30
0.0
70
1
0
VERTEX
8
WALLS
10
31600.000
20
450.000
30
0.0
0
VERTEX
8
WALLS
10
35600.000
20
450.000
30
0.0
0
VERTEX
8
WALLS
10
35600.000
20
6550.000
30
0.0
0
VERTEX
8
WALLS
10
31600.000
20
6550.000
30
0.0
0
SEQEND
8
WALLS
0
LINE
8
WALLS
10
31600.000
20
3650.000
30
0.0
11
35600.000
21
3650.000
31
0.0
0
POLYLINE
8
WALLS
66
1
10
0.0
20
0.0
30
0.0
70
1
0
VERTEX
8
WALLS
10
31300.000
20
6550.000
30
0.0
0
VERTEX
8
WALLS
10
35900.000
20
6550.000
30
0.0
0
VERTEX
8
WALLS
10
35900.000
20
6700.000
30
0.0
0
VERTEX
8
WALLS
10
31300.000
20
6700.000
30
0.0
0
SEQEND
8
WALLS
0
POLYLINE
8
WALLS
66
1
10
0.0
20
0.0
30
0.0
70
1
0
VERTEX
8
WALLS
10
31300.000
20
6700.000
30
0.0
0
VERTEX
8
WALLS
10
35900.000
20
6700.000
30
0.0
0
VERTEX
8
WALLS
10
35900.000
20
7000.000
30
0.0
0
VERTEX
8
WALLS
10
31300.000
20
7000.000
30
0.0
0
SEQEND
8
WALLS
0
POLYLINE
8
OPENINGS
66
1
10
0.0
20
0.0
30
0.0
70
1
0
VERTEX
8
OPENINGS
10
32000.000
20
450.000
30
0.0
0
VERTEX
8
OPENINGS
10
32900.000
20
450.000
30
0.0
0
VERTEX
8
OPENINGS
10
32900.000
20
2550.000
30
0.0
0
VERTEX
8
OPENINGS
10
32000.000
20
2550.000
30
0.0
0
SEQEND
8
OPENINGS
0
TEXT
8
TEXT
10
32450.000
20
2750.000
30
0.0
40
120.000
1
D1
7
STANDARD
72
1
11
32450.000
21
2750.000
31
0.0
0
POLYLINE
8
OPENINGS
66
1
10
0.0
20
0.0
30
0.0
70
1
0
VERTEX
8
OPENINGS
10
33700.000
20
1350.000
30
0.0
0
VERTEX
8
OPENINGS
10
34900.000
20
1350.000
30
0.0
0
VERTEX
8
OPENINGS
10
34900.000
20
2550.000
30
0.0
0
VERTEX
8
OPENINGS
10
33700.000
20
2550.000
30
0.0
0
SEQEND
8
OPENINGS
0
POLYLINE
8
OPENINGS
66
1
10
0.0
20
0.0
30
0.0
70
1
0
VERTEX
8
OPENINGS
10
32100.000
20
4650.000
30
0.0
0
VERTEX
8
OPENINGS
10
33300.000
20
4650.000
30
0.0
0
VERTEX
8
OPENINGS
10
33300.000
20
5850.000
30
0.0
0
VERTEX
8
OPENINGS
10
32100.000
20
5850.000
30
0.0
0
SEQEND
8
OPENINGS
0
POLYLINE
8
OPENINGS
66
1
10
0.0
20
0.0
30
0.0
70
1
0
VERTEX
8
OPENINGS
10
33800.000
20
4650.000
30
0.0
0
VERTEX
8
OPENINGS
10
35000.000
20
4650.000
30
0.0
0
VERTEX
8
OPENINGS
10
35000.000
20
5850.000
30
0.0
0
VERTEX
8
OPENINGS
10
33800.000
20
5850.000
30
0.0
0
SEQEND
8
OPENINGS
0
TEXT
8
TEXT
10
33600.000
20
6150.000
30
0.0
40
120.000
1
ARMOURED VISION PANELS
7
STANDARD
72
1
11
33600.000
21
6150.000
31
0.0
0
POLYLINE
8
HIDDEN
66
1
10
0.0
20
0.0
30
0.0
70
1
0
VERTEX
8
HIDDEN
10
31600.000
20
450.000
30
0.0
0
VERTEX
8
HIDDEN
10
31950.000
20
450.000
30
0.0
0
VERTEX
8
HIDDEN
10
31950.000
20
6700.000
30
0.0
0
VERTEX
8
HIDDEN
10
31600.000
20
6700.000
30
0.0
0
SEQEND
8
HIDDEN
0
POLYLINE
8
HIDDEN
66
1
10
0.0
20
0.0
30
0.0
70
1
0
VERTEX
8
HIDDEN
10
35250.000
20
450.000
30
0.0
0
VERTEX
8
HIDDEN
10
35600.000
20
450.000
30
0.0
0
VERTEX
8
HIDDEN
10
35600.000
20
6700.000
30
0.0
0
VERTEX
8
HIDDEN
10
35250.000
20
6700.000
30
0.0
0
SEQEND
8
HIDDEN
0
POLYLINE
8
HIDDEN
66
1
10
0.0
20
0.0
30
0.0
70
1
0
VERTEX
8
HIDDEN
10
31950.000
20
3200.000
30
0.0
0
VERTEX
8
HIDDEN
10
35250.000
20
3200.000
30
0.0
0
VERTEX
8
HIDDEN
10
35250.000
20
3650.000
30
0.0
0
VERTEX
8
HIDDEN
10
31950.000
20
3650.000
30
0.0
0
SEQEND
8
HIDDEN
0
POLYLINE
8
HIDDEN
66
1
10
0.0
20
0.0
30
0.0
70
1
0
VERTEX
8
HIDDEN
10
31950.000
20
6250.000
30
0.0
0
VERTEX
8
HIDDEN
10
35250.000
20
6250.000
30
0.0
0
VERTEX
8
HIDDEN
10
35250.000
20
6700.000
30
0.0
0
VERTEX
8
HIDDEN
10
31950.000
20
6700.000
30
0.0
0
SEQEND
8
HIDDEN
0
POLYLINE
8
HIDDEN
66
1
10
0.0
20
0.0
30
0.0
70
1
0
VERTEX
8
HIDDEN
10
31950.000
20
50.000
30
0.0
0
VERTEX
8
HIDDEN
10
35250.000
20
50.000
30
0.0
0
VERTEX
8
HIDDEN
10
35250.000
20
450.000
30
0.0
0
VERTEX
8
HIDDEN
10
31950.000
20
450.000
30
0.0
0
SEQEND
8
HIDDEN
0
TEXT
8
HIDDEN
10
32150.000
20
3340.000
30
0.0
40
120.000
1
B1 250 x 450
7
STANDARD
72
0
11
32150.000
21
3340.000
31
0.0
0
TEXT
8
HIDDEN
10
32150.000
20
6390.000
30
0.0
40
120.000
1
B1 250 x 450
7
STANDARD
72
0
11
32150.000
21
6390.000
31
0.0
0
TEXT
8
HIDDEN
10
32150.000
20
180.000
30
0.0
40
120.000
1
PLINTH BEAM 250 x 400
7
STANDARD
72
0
11
32150.000
21
180.000
31
0.0
0
TEXT
8
HIDDEN
10
31720.000
20
4350.000
30
0.0
40
120.000
1
C1
7
STANDARD
72
0
11
31720.000
21
4350.000
31
0.0
0
TEXT
8
HIDDEN
10
35370.000
20
4350.000
30
0.0
40
120.000
1
C1
7
STANDARD
72
0
11
35370.000
21
4350.000
31
0.0
0
TEXT
8
TEXT
10
31600.000
20
7600.000
30
0.0
40
120.000
1
FRAMED SCHEME - RC FRAME SHOWN DASHED BEHIND THE 200 INFILL
7
STANDARD
72
0
11
31600.000
21
7600.000
31
0.0
0
LINE
8
STAIRS
10
30325.000
20
0.000
30
0.0
11
30325.000
21
4550.000
31
0.0
0
LINE
8
STAIRS
10
30575.000
20
0.000
30
0.0
11
30575.000
21
4550.000
31
0.0
0
LINE
8
STAIRS
10
30450.000
20
602.381
30
0.0
11
30950.000
21
602.381
31
0.0
0
LINE
8
STAIRS
10
30450.000
20
754.762
30
0.0
11
31316.025
21
754.762
31
0.0
0
LINE
8
STAIRS
10
30450.000
20
907.143
30
0.0
11
31450.000
21
907.143
31
0.0
0
LINE
8
STAIRS
10
30450.000
20
1059.524
30
0.0
11
31316.025
21
1059.524
31
0.0
0
LINE
8
STAIRS
10
30450.000
20
1211.905
30
0.0
11
30950.000
21
1211.905
31
0.0
0
LINE
8
STAIRS
10
30450.000
20
1364.286
30
0.0
11
30450.000
21
1364.286
31
0.0
0
LINE
8
STAIRS
10
30450.000
20
1516.667
30
0.0
11
29950.000
21
1516.667
31
0.0
0
LINE
8
STAIRS
10
30450.000
20
1669.048
30
0.0
11
29583.975
21
1669.048
31
0.0
0
LINE
8
STAIRS
10
30450.000
20
1821.429
30
0.0
11
29450.000
21
1821.429
31
0.0
0
LINE
8
STAIRS
10
30450.000
20
1973.810
30
0.0
11
29583.975
21
1973.810
31
0.0
0
LINE
8
STAIRS
10
30450.000
20
2126.190
30
0.0
11
29950.000
21
2126.190
31
0.0
0
LINE
8
STAIRS
10
30450.000
20
2278.571
30
0.0
11
30450.000
21
2278.571
31
0.0
0
LINE
8
STAIRS
10
30450.000
20
2430.952
30
0.0
11
30950.000
21
2430.952
31
0.0
0
LINE
8
STAIRS
10
30450.000
20
2583.333
30
0.0
11
31316.025
21
2583.333
31
0.0
0
LINE
8
STAIRS
10
30450.000
20
2735.714
30
0.0
11
31450.000
21
2735.714
31
0.0
0
LINE
8
STAIRS
10
30450.000
20
2888.095
30
0.0
11
31316.025
21
2888.095
31
0.0
0
LINE
8
STAIRS
10
30450.000
20
3040.476
30
0.0
11
30950.000
21
3040.476
31
0.0
0
LINE
8
STAIRS
10
30450.000
20
3192.857
30
0.0
11
30450.000
21
3192.857
31
0.0
0
LINE
8
STAIRS
10
30450.000
20
3345.238
30
0.0
11
29950.000
21
3345.238
31
0.0
0
LINE
8
STAIRS
10
30450.000
20
3497.619
30
0.0
11
29583.975
21
3497.619
31
0.0
0
LINE
8
STAIRS
10
30450.000
20
3650.000
30
0.0
11
29450.000
21
3650.000
31
0.0
0
CIRCLE
8
CENTRE
10
30450.000
20
450.000
30
0.0
40
40.000
0
TEXT
8
TEXT
10
30450.000
20
-500.000
30
0.0
40
120.000
1
SPIRAL STAIR
7
STANDARD
72
1
11
30450.000
21
-500.000
31
0.0
0
TEXT
8
TEXT
10
30450.000
20
-650.000
30
0.0
40
120.000
1
1000 R / 250 POLE
7
STANDARD
72
1
11
30450.000
21
-650.000
31
0.0
0
LINE
8
DIM
10
35800.000
20
7000.000
30
0.0
11
38100.000
21
7000.000
31
0.0
0
LINE
8
DIM
10
38000.000
20
7000.000
30
0.0
11
38100.000
21
7150.000
31
0.0
0
LINE
8
DIM
10
38000.000
20
7000.000
30
0.0
11
38100.000
21
6850.000
31
0.0
0
TEXT
8
TEXT
10
38250.000
20
7060.000
30
0.0
40
120.000
1
+7.000  TOP OF PARDI
7
STANDARD
72
0
11
38250.000
21
7060.000
31
0.0
0
LINE
8
DIM
10
35800.000
20
6700.000
30
0.0
11
38100.000
21
6700.000
31
0.0
0
LINE
8
DIM
10
38000.000
20
6700.000
30
0.0
11
38100.000
21
6850.000
31
0.0
0
LINE
8
DIM
10
38000.000
20
6700.000
30
0.0
11
38100.000
21
6550.000
31
0.0
0
TEXT
8
TEXT
10
38250.000
20
6760.000
30
0.0
40
120.000
1
+6.700  ROOF
7
STANDARD
72
0
11
38250.000
21
6760.000
31
0.0
0
LINE
8
DIM
10
35800.000
20
3650.000
30
0.0
11
38100.000
21
3650.000
31
0.0
0
LINE
8
DIM
10
38000.000
20
3650.000
30
0.0
11
38100.000
21
3800.000
31
0.0
0
LINE
8
DIM
10
38000.000
20
3650.000
30
0.0
11
38100.000
21
3500.000
31
0.0
0
TEXT
8
TEXT
10
38250.000
20
3710.000
30
0.0
40
120.000
1
+3.650  FIRST FLOOR
7
STANDARD
72
0
11
38250.000
21
3710.000
31
0.0
0
LINE
8
DIM
10
35800.000
20
450.000
30
0.0
11
38100.000
21
450.000
31
0.0
0
LINE
8
DIM
10
38000.000
20
450.000
30
0.0
11
38100.000
21
600.000
31
0.0
0
LINE
8
DIM
10
38000.000
20
450.000
30
0.0
11
38100.000
21
300.000
31
0.0
0
TEXT
8
TEXT
10
38250.000
20
510.000
30
0.0
40
120.000
1
+0.450  GROUND FLOOR
7
STANDARD
72
0
11
38250.000
21
510.000
31
0.0
0
LINE
8
DIM
10
35800.000
20
900.000
30
0.0
11
38100.000
21
900.000
31
0.0
0
LINE
8
DIM
10
38000.000
20
900.000
30
0.0
11
38100.000
21
1050.000
31
0.0
0
LINE
8
DIM
10
38000.000
20
900.000
30
0.0
11
38100.000
21
750.000
31
0.0
0
TEXT
8
TEXT
10
38250.000
20
960.000
30
0.0
40
120.000
1
+0.900  HEADHOUSE ROOF
7
STANDARD
72
0
11
38250.000
21
960.000
31
0.0
0
LINE
8
DIM
10
35800.000
20
0.000
30
0.0
11
38100.000
21
0.000
31
0.0
0
LINE
8
DIM
10
38000.000
20
0.000
30
0.0
11
38100.000
21
150.000
31
0.0
0
LINE
8
DIM
10
38000.000
20
0.000
30
0.0
11
38100.000
21
-150.000
31
0.0
0
TEXT
8
TEXT
10
38250.000
20
60.000
30
0.0
40
120.000
1
+0.000  GROUND LEVEL
7
STANDARD
72
0
11
38250.000
21
60.000
31
0.0
0
LINE
8
DIM
10
35800.000
20
-2000.000
30
0.0
11
38100.000
21
-2000.000
31
0.0
0
LINE
8
DIM
10
38000.000
20
-2000.000
30
0.0
11
38100.000
21
-1850.000
31
0.0
0
LINE
8
DIM
10
38000.000
20
-2000.000
30
0.0
11
38100.000
21
-2150.000
31
0.0
0
TEXT
8
TEXT
10
38250.000
20
-1940.000
30
0.0
40
120.000
1
-2.000  TOP OF SLAB
7
STANDARD
72
0
11
38250.000
21
-1940.000
31
0.0
0
LINE
8
DIM
10
35800.000
20
-6100.000
30
0.0
11
38100.000
21
-6100.000
31
0.0
0
LINE
8
DIM
10
38000.000
20
-6100.000
30
0.0
11
38100.000
21
-5950.000
31
0.0
0
LINE
8
DIM
10
38000.000
20
-6100.000
30
0.0
11
38100.000
21
-6250.000
31
0.0
0
TEXT
8
TEXT
10
38250.000
20
-6040.000
30
0.0
40
120.000
1
-6.100  SHELTER FLOOR
7
STANDARD
72
0
11
38250.000
21
-6040.000
31
0.0
0
LINE
8
DIM
10
35800.000
20
-6700.000
30
0.0
11
38100.000
21
-6700.000
31
0.0
0
LINE
8
DIM
10
38000.000
20
-6700.000
30
0.0
11
38100.000
21
-6550.000
31
0.0
0
LINE
8
DIM
10
38000.000
20
-6700.000
30
0.0
11
38100.000
21
-6850.000
31
0.0
0
TEXT
8
TEXT
10
38250.000
20
-6640.000
30
0.0
40
120.000
1
-6.700  U/S MAT
7
STANDARD
72
0
11
38250.000
21
-6640.000
31
0.0
0
LINE
8
DIM
10
0.000
20
-8200.000
30
0.0
11
21600.000
21
-8200.000
31
0.0
0
LINE
8
DIM
10
-90.000
20
-8290.000
30
0.0
11
90.000
21
-8110.000
31
0.0
0
LINE
8
DIM
10
0.000
20
-8380.000
30
0.0
11
0.000
21
-8020.000
31
0.0
0
LINE
8
DIM
10
21510.000
20
-8290.000
30
0.0
11
21690.000
21
-8110.000
31
0.0
0
LINE
8
DIM
10
21600.000
20
-8380.000
30
0.0
11
21600.000
21
-8020.000
31
0.0
0
TEXT
8
DIM
10
10800.000
20
-8128.000
30
0.0
40
120.000
1
21600 SHELTER
7
STANDARD
72
1
11
10800.000
21
-8128.000
31
0.0
0
LINE
8
DIM
10
21600.000
20
-8200.000
30
0.0
11
31600.000
21
-8200.000
31
0.0
0
LINE
8
DIM
10
21510.000
20
-8290.000
30
0.0
11
21690.000
21
-8110.000
31
0.0
0
LINE
8
DIM
10
21600.000
20
-8380.000
30
0.0
11
21600.000
21
-8020.000
31
0.0
0
LINE
8
DIM
10
31510.000
20
-8290.000
30
0.0
11
31690.000
21
-8110.000
31
0.0
0
LINE
8
DIM
10
31600.000
20
-8380.000
30
0.0
11
31600.000
21
-8020.000
31
0.0
0
TEXT
8
DIM
10
26600.000
20
-8128.000
30
0.0
40
120.000
1
10000 MIN CLEAR
7
STANDARD
72
1
11
26600.000
21
-8128.000
31
0.0
0
LINE
8
DIM
10
31600.000
20
-8200.000
30
0.0
11
35600.000
21
-8200.000
31
0.0
0
LINE
8
DIM
10
31510.000
20
-8290.000
30
0.0
11
31690.000
21
-8110.000
31
0.0
0
LINE
8
DIM
10
31600.000
20
-8380.000
30
0.0
11
31600.000
21
-8020.000
31
0.0
0
LINE
8
DIM
10
35510.000
20
-8290.000
30
0.0
11
35690.000
21
-8110.000
31
0.0
0
LINE
8
DIM
10
35600.000
20
-8380.000
30
0.0
11
35600.000
21
-8020.000
31
0.0
0
TEXT
8
DIM
10
33600.000
20
-8128.000
30
0.0
40
120.000
1
4000 SENTRY POST
7
STANDARD
72
1
11
33600.000
21
-8128.000
31
0.0
0
LINE
8
DIM
10
29400.000
20
450.000
30
0.0
11
29400.000
21
3650.000
31
0.0
0
LINE
8
DIM
10
29310.000
20
360.000
30
0.0
11
29490.000
21
540.000
31
0.0
0
LINE
8
DIM
10
29220.000
20
450.000
30
0.0
11
29580.000
21
450.000
31
0.0
0
LINE
8
DIM
10
29310.000
20
3560.000
30
0.0
11
29490.000
21
3740.000
31
0.0
0
LINE
8
DIM
10
29220.000
20
3650.000
30
0.0
11
29580.000
21
3650.000
31
0.0
0
TEXT
8
DIM
10
29328.000
20
2050.000
30
0.0
40
120.000
1
3200
50
90.000
7
STANDARD
72
1
11
29328.000
21
2050.000
31
0.0
0
LINE
8
DIM
10
29400.000
20
3650.000
30
0.0
11
29400.000
21
6550.000
31
0.0
0
LINE
8
DIM
10
29310.000
20
3560.000
30
0.0
11
29490.000
21
3740.000
31
0.0
0
LINE
8
DIM
10
29220.000
20
3650.000
30
0.0
11
29580.000
21
3650.000
31
0.0
0
LINE
8
DIM
10
29310.000
20
6460.000
30
0.0
11
29490.000
21
6640.000
31
0.0
0
LINE
8
DIM
10
29220.000
20
6550.000
30
0.0
11
29580.000
21
6550.000
31
0.0
0
TEXT
8
DIM
10
29328.000
20
5100.000
30
0.0
40
120.000
1
2900
50
90.000
7
STANDARD
72
1
11
29328.000
21
5100.000
31
0.0
0
TEXT
8
TEXT
10
-4000.000
20
8800.000
30
0.0
40
250.000
1
DRAWING 5  -  FRONT ELEVATION
7
STANDARD
72
0
11
-4000.000
21
8800.000
31
0.0
0
TEXT
8
TEXT
10
-4000.000
20
8400.000
30
0.0
40
120.000
1
SCALE 1:50 AT A1   -   ALL DIMENSIONS IN MILLIMETRES
7
STANDARD
72
0
11
-4000.000
21
8400.000
31
0.0
0
TEXT
8
TEXT
10
-4000.000
20
-9700.000
30
0.0
40
120.000
1
SENTRY POST IS A SEPARATE STRUCTURE ON ITS OWN FOOTINGS, 10 m CLEAR OF THE SHELTER EXCAVATION
7
STANDARD
72
0
11
-4000.000
21
-9700.000
31
0.0
0
ENDSEC
0
EOF
