0
SECTION
2
HEADER
9
$ACADVER
1
AC1009
9
$INSUNITS
70
4
9
$MEASUREMENT
70
1
9
$LTSCALE
40
25.0
9
$LIMCHECK
70
0
9
$EXTMIN
10
-4010.000
20
-12900.000
30
0.0
9
$EXTMAX
10
10320.000
20
10450.000
30
0.0
9
$LIMMIN
10
-4010.000
20
-12900.000
9
$LIMMAX
10
10320.000
20
10450.000
0
ENDSEC
0
SECTION
2
TABLES
0
TABLE
2
LTYPE
70
3
0
LTYPE
2
CONTINUOUS
70
0
3
Solid line
72
65
73
0
40
0.0
0
LTYPE
2
DASHED
70
0
3
Dashed __ __ __
72
65
73
2
40
15.0
49
10.0
49
-5.0
0
LTYPE
2
CENTER
70
0
3
Centre ____ _ ____
72
65
73
4
40
50.0
49
32.0
49
-6.0
49
6.0
49
-6.0
0
ENDTAB
0
TABLE
2
LAYER
70
10
0
LAYER
2
0
70
0
62
7
6
CONTINUOUS
0
LAYER
2
WALLS
70
0
62
7
6
CONTINUOUS
0
LAYER
2
OPENINGS
70
0
62
1
6
CONTINUOUS
0
LAYER
2
STAIRS
70
0
62
3
6
CONTINUOUS
0
LAYER
2
GROUND
70
0
62
42
6
CONTINUOUS
0
LAYER
2
TEXT
70
0
62
2
6
CONTINUOUS
0
LAYER
2
DIM
70
0
62
4
6
CONTINUOUS
0
LAYER
2
HIDDEN
70
0
62
8
6
DASHED
0
LAYER
2
CENTRE
70
0
62
6
6
CENTER
0
LAYER
2
BEYOND
70
0
62
9
6
CONTINUOUS
0
ENDTAB
0
TABLE
2
STYLE
70
1
0
STYLE
2
STANDARD
70
0
40
0.0
41
1.0
50
0.0
71
0
42
2.5
3
txt
4

0
ENDTAB
0
TABLE
2
APPID
70
1
0
APPID
2
ACAD
70
0
0
ENDTAB
0
ENDSEC
0
SECTION
2
BLOCKS
0
ENDSEC
0
SECTION
2
ENTITIES
0
POLYLINE
8
BEYOND
66
1
10
0.0
20
0.0
30
0.0
70
1
0
VERTEX
8
BEYOND
10
0.000
20
0.000
30
0.0
0
VERTEX
8
BEYOND
10
4000.000
20
0.000
30
0.0
0
VERTEX
8
BEYOND
10
4000.000
20
5000.000
30
0.0
0
VERTEX
8
BEYOND
10
0.000
20
5000.000
30
0.0
0
SEQEND
8
BEYOND
0
POLYLINE
8
BEYOND
66
1
10
0.0
20
0.0
30
0.0
70
1
0
VERTEX
8
BEYOND
10
200.000
20
200.000
30
0.0
0
VERTEX
8
BEYOND
10
3800.000
20
200.000
30
0.0
0
VERTEX
8
BEYOND
10
3800.000
20
4800.000
30
0.0
0
VERTEX
8
BEYOND
10
200.000
20
4800.000
30
0.0
0
SEQEND
8
BEYOND
0
TEXT
8
BEYOND
10
2000.000
20
7400.000
30
0.0
40
120.000
1
200 RC BALLISTIC INFILL - NON STRUCTURAL
7
STANDARD
72
1
11
2000.000
21
7400.000
31
0.0
0
POLYLINE
8
WALLS
66
1
10
0.0
20
0.0
30
0.0
70
1
0
VERTEX
8
WALLS
10
175.000
20
50.000
30
0.0
0
VERTEX
8
WALLS
10
3825.000
20
50.000
30
0.0
0
VERTEX
8
WALLS
10
3825.000
20
300.000
30
0.0
0
VERTEX
8
WALLS
10
175.000
20
300.000
30
0.0
0
SEQEND
8
WALLS
0
POLYLINE
8
WALLS
66
1
10
0.0
20
0.0
30
0.0
70
1
0
VERTEX
8
WALLS
10
175.000
20
4700.000
30
0.0
0
VERTEX
8
WALLS
10
3825.000
20
4700.000
30
0.0
0
VERTEX
8
WALLS
10
3825.000
20
4950.000
30
0.0
0
VERTEX
8
WALLS
10
175.000
20
4950.000
30
0.0
0
SEQEND
8
WALLS
0
POLYLINE
8
WALLS
66
1
10
0.0
20
0.0
30
0.0
70
1
0
VERTEX
8
WALLS
10
50.000
20
175.000
30
0.0
0
VERTEX
8
WALLS
10
300.000
20
175.000
30
0.0
0
VERTEX
8
WALLS
10
300.000
20
4825.000
30
0.0
0
VERTEX
8
WALLS
10
50.000
20
4825.000
30
0.0
0
SEQEND
8
WALLS
0
POLYLINE
8
WALLS
66
1
10
0.0
20
0.0
30
0.0
70
1
0
VERTEX
8
WALLS
10
3700.000
20
175.000
30
0.0
0
VERTEX
8
WALLS
10
3950.000
20
175.000
30
0.0
0
VERTEX
8
WALLS
10
3950.000
20
4825.000
30
0.0
0
VERTEX
8
WALLS
10
3700.000
20
4825.000
30
0.0
0
SEQEND
8
WALLS
0
POLYLINE
8
WALLS
66
1
10
0.0
20
0.0
30
0.0
70
1
0
VERTEX
8
WALLS
10
0.000
20
0.000
30
0.0
0
VERTEX
8
WALLS
10
350.000
20
0.000
30
0.0
0
VERTEX
8
WALLS
10
350.000
20
350.000
30
0.0
0
VERTEX
8
WALLS
10
0.000
20
350.000
30
0.0
0
SEQEND
8
WALLS
0
LINE
8
WALLS
10
0.000
20
0.000
30
0.0
11
350.000
21
350.000
31
0.0
0
LINE
8
WALLS
10
0.000
20
350.000
30
0.0
11
350.000
21
0.000
31
0.0
0
POLYLINE
8
WALLS
66
1
10
0.0
20
0.0
30
0.0
70
1
0
VERTEX
8
WALLS
10
0.000
20
4650.000
30
0.0
0
VERTEX
8
WALLS
10
350.000
20
4650.000
30
0.0
0
VERTEX
8
WALLS
10
350.000
20
5000.000
30
0.0
0
VERTEX
8
WALLS
10
0.000
20
5000.000
30
0.0
0
SEQEND
8
WALLS
0
LINE
8
WALLS
10
0.000
20
4650.000
30
0.0
11
350.000
21
5000.000
31
0.0
0
LINE
8
WALLS
10
0.000
20
5000.000
30
0.0
11
350.000
21
4650.000
31
0.0
0
POLYLINE
8
WALLS
66
1
10
0.0
20
0.0
30
0.0
70
1
0
VERTEX
8
WALLS
10
3650.000
20
0.000
30
0.0
0
VERTEX
8
WALLS
10
4000.000
20
0.000
30
0.0
0
VERTEX
8
WALLS
10
4000.000
20
350.000
30
0.0
0
VERTEX
8
WALLS
10
3650.000
20
350.000
30
0.0
0
SEQEND
8
WALLS
0
LINE
8
WALLS
10
3650.000
20
0.000
30
0.0
11
4000.000
21
350.000
31
0.0
0
LINE
8
WALLS
10
3650.000
20
350.000
30
0.0
11
4000.000
21
0.000
31
0.0
0
POLYLINE
8
WALLS
66
1
10
0.0
20
0.0
30
0.0
70
1
0
VERTEX
8
WALLS
10
3650.000
20
4650.000
30
0.0
0
VERTEX
8
WALLS
10
4000.000
20
4650.000
30
0.0
0
VERTEX
8
WALLS
10
4000.000
20
5000.000
30
0.0
0
VERTEX
8
WALLS
10
3650.000
20
5000.000
30
0.0
0
SEQEND
8
WALLS
0
LINE
8
WALLS
10
3650.000
20
4650.000
30
0.0
11
4000.000
21
5000.000
31
0.0
0
LINE
8
WALLS
10
3650.000
20
5000.000
30
0.0
11
4000.000
21
4650.000
31
0.0
0
LINE
8
DIM
10
175.000
20
175.000
30
0.0
11
2000.000
21
2000.000
31
0.0
0
LINE
8
DIM
10
3825.000
20
175.000
30
0.0
11
2000.000
21
2000.000
31
0.0
0
LINE
8
DIM
10
175.000
20
4825.000
30
0.0
11
2000.000
21
3000.000
31
0.0
0
LINE
8
DIM
10
3825.000
20
4825.000
30
0.0
11
2000.000
21
3000.000
31
0.0
0
LINE
8
DIM
10
2000.000
20
2000.000
30
0.0
11
2000.000
21
3000.000
31
0.0
0
TEXT
8
DIM
10
2000.000
20
-1300.000
30
0.0
40
110.000
1
45 DEG YIELD LINES  -  IS 456 CL 24.5
7
STANDARD
72
1
11
2000.000
21
-1300.000
31
0.0
0
TEXT
8
DIM
10
2000.000
20
-1550.000
30
0.0
40
110.000
1
B1 TAKES THE TRIANGLE, B2 TAKES THE TRAPEZOID
7
STANDARD
72
1
11
2000.000
21
-1550.000
31
0.0
0
TEXT
8
TEXT
10
2000.000
20
-345.000
30
0.0
40
120.000
1
B1  250 x 450
7
STANDARD
72
1
11
2000.000
21
-345.000
31
0.0
0
TEXT
8
TEXT
10
2000.000
20
5205.000
30
0.0
40
120.000
1
B1  250 x 450
7
STANDARD
72
1
11
2000.000
21
5205.000
31
0.0
0
TEXT
8
TEXT
10
-1275.000
20
2500.000
30
0.0
40
120.000
1
B2  250 x 450
7
STANDARD
72
0
11
-1275.000
21
2500.000
31
0.0
0
TEXT
8
TEXT
10
4375.000
20
2500.000
30
0.0
40
120.000
1
B2  250 x 450
7
STANDARD
72
0
11
4375.000
21
2500.000
31
0.0
0
TEXT
8
TEXT
10
475.000
20
475.000
30
0.0
40
120.000
1
C1
7
STANDARD
72
1
11
475.000
21
475.000
31
0.0
0
TEXT
8
TEXT
10
475.000
20
4525.000
30
0.0
40
120.000
1
C1
7
STANDARD
72
1
11
475.000
21
4525.000
31
0.0
0
TEXT
8
TEXT
10
3525.000
20
475.000
30
0.0
40
120.000
1
C1
7
STANDARD
72
1
11
3525.000
21
475.000
31
0.0
0
TEXT
8
TEXT
10
3525.000
20
4525.000
30
0.0
40
120.000
1
C1
7
STANDARD
72
1
11
3525.000
21
4525.000
31
0.0
0
TEXT
8
TEXT
10
2000.000
20
1055.000
30
0.0
40
300.000
1
S1
7
STANDARD
72
1
11
2000.000
21
1055.000
31
0.0
0
TEXT
8
TEXT
10
2000.000
20
795.000
30
0.0
40
120.000
1
150 TWO-WAY SLAB
7
STANDARD
72
1
11
2000.000
21
795.000
31
0.0
0
TEXT
8
TEXT
10
2000.000
20
595.000
30
0.0
40
120.000
1
3650 x 4650 c/c
7
STANDARD
72
1
11
2000.000
21
595.000
31
0.0
0
LINE
8
CENTRE
10
175.000
20
-1400.000
30
0.0
11
175.000
21
6400.000
31
0.0
0
CIRCLE
8
DIM
10
175.000
20
6750.000
30
0.0
40
260.000
0
TEXT
8
DIM
10
175.000
20
6660.000
30
0.0
40
180.000
1
A
7
STANDARD
72
1
11
175.000
21
6660.000
31
0.0
0
LINE
8
CENTRE
10
3825.000
20
-1400.000
30
0.0
11
3825.000
21
6400.000
31
0.0
0
CIRCLE
8
DIM
10
3825.000
20
6750.000
30
0.0
40
260.000
0
TEXT
8
DIM
10
3825.000
20
6660.000
30
0.0
40
180.000
1
B
7
STANDARD
72
1
11
3825.000
21
6660.000
31
0.0
0
LINE
8
CENTRE
10
-1400.000
20
175.000
30
0.0
11
5400.000
21
175.000
31
0.0
0
CIRCLE
8
DIM
10
-1750.000
20
175.000
30
0.0
40
260.000
0
TEXT
8
DIM
10
-1750.000
20
85.000
30
0.0
40
180.000
1
1
7
STANDARD
72
1
11
-1750.000
21
85.000
31
0.0
0
LINE
8
CENTRE
10
-1400.000
20
4825.000
30
0.0
11
5400.000
21
4825.000
31
0.0
0
CIRCLE
8
DIM
10
-1750.000
20
4825.000
30
0.0
40
260.000
0
TEXT
8
DIM
10
-1750.000
20
4735.000
30
0.0
40
180.000
1
2
7
STANDARD
72
1
11
-1750.000
21
4735.000
31
0.0
0
LINE
8
DIM
10
175.000
20
-2600.000
30
0.0
11
3825.000
21
-2600.000
31
0.0
0
LINE
8
DIM
10
85.000
20
-2690.000
30
0.0
11
265.000
21
-2510.000
31
0.0
0
LINE
8
DIM
10
175.000
20
-2780.000
30
0.0
11
175.000
21
-2420.000
31
0.0
0
LINE
8
DIM
10
3735.000
20
-2690.000
30
0.0
11
3915.000
21
-2510.000
31
0.0
0
LINE
8
DIM
10
3825.000
20
-2780.000
30
0.0
11
3825.000
21
-2420.000
31
0.0
0
TEXT
8
DIM
10
2000.000
20
-2528.000
30
0.0
40
120.000
1
3650  GRID A - B
7
STANDARD
72
1
11
2000.000
21
-2528.000
31
0.0
0
LINE
8
DIM
10
0.000
20
-3300.000
30
0.0
11
4000.000
21
-3300.000
31
0.0
0
LINE
8
DIM
10
-90.000
20
-3390.000
30
0.0
11
90.000
21
-3210.000
31
0.0
0
LINE
8
DIM
10
0.000
20
-3480.000
30
0.0
11
0.000
21
-3120.000
31
0.0
0
LINE
8
DIM
10
3910.000
20
-3390.000
30
0.0
11
4090.000
21
-3210.000
31
0.0
0
LINE
8
DIM
10
4000.000
20
-3480.000
30
0.0
11
4000.000
21
-3120.000
31
0.0
0
TEXT
8
DIM
10
2000.000
20
-3228.000
30
0.0
40
120.000
1
4000 EXTERNAL
7
STANDARD
72
1
11
2000.000
21
-3228.000
31
0.0
0
LINE
8
DIM
10
6600.000
20
175.000
30
0.0
11
6600.000
21
4825.000
31
0.0
0
LINE
8
DIM
10
6510.000
20
85.000
30
0.0
11
6690.000
21
265.000
31
0.0
0
LINE
8
DIM
10
6420.000
20
175.000
30
0.0
11
6780.000
21
175.000
31
0.0
0
LINE
8
DIM
10
6510.000
20
4735.000
30
0.0
11
6690.000
21
4915.000
31
0.0
0
LINE
8
DIM
10
6420.000
20
4825.000
30
0.0
11
6780.000
21
4825.000
31
0.0
0
TEXT
8
DIM
10
6528.000
20
2500.000
30
0.0
40
120.000
1
4650  GRID 1 - 2
50
90.000
7
STANDARD
72
1
11
6528.000
21
2500.000
31
0.0
0
LINE
8
DIM
10
7300.000
20
0.000
30
0.0
11
7300.000
21
5000.000
31
0.0
0
LINE
8
DIM
10
7210.000
20
-90.000
30
0.0
11
7390.000
21
90.000
31
0.0
0
LINE
8
DIM
10
7120.000
20
0.000
30
0.0
11
7480.000
21
0.000
31
0.0
0
LINE
8
DIM
10
7210.000
20
4910.000
30
0.0
11
7390.000
21
5090.000
31
0.0
0
LINE
8
DIM
10
7120.000
20
5000.000
30
0.0
11
7480.000
21
5000.000
31
0.0
0
TEXT
8
DIM
10
7228.000
20
2500.000
30
0.0
40
120.000
1
5000 EXTERNAL
50
90.000
7
STANDARD
72
1
11
7228.000
21
2500.000
31
0.0
0
TEXT
8
TEXT
10
-1800.000
20
8200.000
30
0.0
40
250.000
1
DRAWING 6  -  SENTRY POST FRAMING PLAN
7
STANDARD
72
0
11
-1800.000
21
8200.000
31
0.0
0
TEXT
8
TEXT
10
-1800.000
20
7850.000
30
0.0
40
120.000
1
SCALE 1:50 AT A1   -   ALL DIMENSIONS IN MILLIMETRES
7
STANDARD
72
0
11
-1800.000
21
7850.000
31
0.0
0
TEXT
8
TEXT
10
-1800.000
20
-4600.000
30
0.0
40
120.000
1
MEMBER SCHEDULE
7
STANDARD
72
0
11
-1800.000
21
-4600.000
31
0.0
0
TEXT
8
TEXT
10
-1800.000
20
-4900.000
30
0.0
40
120.000
1
  C1   COLUMN  350 x 350   4 No, ground and first storey
7
STANDARD
72
0
11
-1800.000
21
-4900.000
31
0.0
0
TEXT
8
TEXT
10
-1800.000
20
-5200.000
30
0.0
40
120.000
1
  B1   BEAM    250 x 450   spanning A-B, 3650 c/c
7
STANDARD
72
0
11
-1800.000
21
-5200.000
31
0.0
0
TEXT
8
TEXT
10
-1800.000
20
-5500.000
30
0.0
40
120.000
1
  B2   BEAM    250 x 450   spanning 1-2, 4650 c/c
7
STANDARD
72
0
11
-1800.000
21
-5500.000
31
0.0
0
TEXT
8
TEXT
10
-1800.000
20
-5800.000
30
0.0
40
120.000
1
  S1   SLAB    150 two-way, both levels
7
STANDARD
72
0
11
-1800.000
21
-5800.000
31
0.0
0
TEXT
8
TEXT
10
-1800.000
20
-6100.000
30
0.0
40
120.000
1
  PB   PLINTH BEAM 250 x 400 at +0.450, carries the
7
STANDARD
72
0
11
-1800.000
21
-6100.000
31
0.0
0
TEXT
8
TEXT
10
-1800.000
20
-6400.000
30
0.0
40
120.000
1
       ground storey infill - NOT part of the analysis model
7
STANDARD
72
0
11
-1800.000
21
-6400.000
31
0.0
0
TEXT
8
TEXT
10
-1800.000
20
-6700.000
30
0.0
40
120.000
1

7
STANDARD
72
0
11
-1800.000
21
-6700.000
31
0.0
0
TEXT
8
TEXT
10
-1800.000
20
-7000.000
30
0.0
40
120.000
1
LOADS TAKEN TO THE BEAMS  (as built into Sentry_Post_Framed_Seismic.std)
7
STANDARD
72
0
11
-1800.000
21
-7000.000
31
0.0
0
TEXT
8
TEXT
10
-1800.000
20
-7300.000
30
0.0
40
120.000
1
  slab dead   first floor 4.750   roof 5.250 kN/m2
7
STANDARD
72
0
11
-1800.000
21
-7300.000
31
0.0
0
TEXT
8
TEXT
10
-1800.000
20
-7600.000
30
0.0
40
120.000
1
  imposed     first floor 3.000   roof 1.500 kN/m2   IS 875 Part 2
7
STANDARD
72
0
11
-1800.000
21
-7600.000
31
0.0
0
TEXT
8
TEXT
10
-1800.000
20
-7900.000
30
0.0
40
120.000
1
  peak two-way intensity  w x 3.650/2 :
7
STANDARD
72
0
11
-1800.000
21
-7900.000
31
0.0
0
TEXT
8
TEXT
10
-1800.000
20
-8200.000
30
0.0
40
120.000
1
     DL   floor 8.669   roof 9.581 kN/m
7
STANDARD
72
0
11
-1800.000
21
-8200.000
31
0.0
0
TEXT
8
TEXT
10
-1800.000
20
-8500.000
30
0.0
40
120.000
1
     LL   floor 5.475   roof 2.737 kN/m
7
STANDARD
72
0
11
-1800.000
21
-8500.000
31
0.0
0
TEXT
8
TEXT
10
-1800.000
20
-8800.000
30
0.0
40
120.000
1
  B1 takes the TRIANGLE, B2 takes the TRAPEZOID
7
STANDARD
72
0
11
-1800.000
21
-8800.000
31
0.0
0
TEXT
8
TEXT
10
-1800.000
20
-9100.000
30
0.0
40
120.000
1
  infill on the first floor beams   13.000 kN/m  (200 x 2600 high)
7
STANDARD
72
0
11
-1800.000
21
-9100.000
31
0.0
0
TEXT
8
TEXT
10
-1800.000
20
-9400.000
30
0.0
40
120.000
1
  roof projection + parapet         4.162 kN/m
7
STANDARD
72
0
11
-1800.000
21
-9400.000
31
0.0
0
TEXT
8
TEXT
10
-1800.000
20
-9700.000
30
0.0
40
120.000
1

7
STANDARD
72
0
11
-1800.000
21
-9700.000
31
0.0
0
TEXT
8
TEXT
10
-1800.000
20
-10000.000
30
0.0
40
120.000
1
M30 / Fe500.  Ductile detailing to IS 13920 : 2016, Zone III.
7
STANDARD
72
0
11
-1800.000
21
-10000.000
31
0.0
0
TEXT
8
TEXT
10
-1800.000
20
-10300.000
30
0.0
40
120.000
1
The 200 infill panels must be separated from the frame if the
7
STANDARD
72
0
11
-1800.000
21
-10300.000
31
0.0
0
TEXT
8
TEXT
10
-1800.000
20
-10600.000
30
0.0
40
120.000
1
R = 5.0 special moment frame value is to be claimed - otherwise
7
STANDARD
72
0
11
-1800.000
21
-10600.000
31
0.0
0
TEXT
8
TEXT
10
-1800.000
20
-10900.000
30
0.0
40
120.000
1
R = 3.0, which is what the analysis uses.  See the calculation note.
7
STANDARD
72
0
11
-1800.000
21
-10900.000
31
0.0
0
ENDSEC
0
EOF
