  0
SECTION
  2
HEADER
  9
$ACADVER
  1
AC1009
  9
$DWGCODEPAGE
  3
ANSI_1252
  9
$EXTMIN
 10
1e+20
 20
1e+20
 30
1e+20
  9
$EXTMAX
 10
-1e+20
 20
-1e+20
 30
-1e+20
  9
$LIMMIN
 10
0.0
 20
0.0
  9
$LIMMAX
 10
420.0
 20
297.0
  9
$LTSCALE
 40
25.0
  9
$LIMCHECK
 70
0
  9
$TDCREATE
 40
2461294.0692939814
  9
$TDUPDATE
 40
2461294.0692939814
  9
$PEXTMIN
 10
1e+20
 20
1e+20
 30
1e+20
  9
$PEXTMAX
 10
-1e+20
 20
-1e+20
 30
-1e+20
  9
$PLIMMIN
 10
0.0
 20
0.0
  9
$PLIMMAX
 10
420.0
 20
297.0
  0
ENDSEC
  0
SECTION
  2
TABLES
  0
TABLE
  2
VPORT
 70
1
  0
VPORT
  2
*Active
 70
0
 10
0.0
 20
0.0
 11
1.0
 21
1.0
 12
0.0
 22
0.0
 13
0.0
 23
0.0
 14
0.5
 24
0.5
 15
0.5
 25
0.5
 16
0.0
 26
0.0
 36
1.0
 17
0.0
 27
0.0
 37
0.0
 40
1000.0
 41
1.34
 42
50.0
 43
0.0
 44
0.0
 50
0.0
 51
0.0
 71
0
 72
1000
 73
1
 74
3
 75
0
 76
0
 77
0
 78
0
  0
ENDTAB
  0
TABLE
  2
LTYPE
 70
5
  0
LTYPE
  2
CONTINUOUS
 70
0
  3
Solid line
 72
65
 73
0
 40
0.0
  0
LTYPE
  2
DASHED
 70
0
  3
Dashed __ __ __
 72
65
 73
2
 40
15.0
 49
10.0
 49
-5.0
  0
LTYPE
  2
CENTER
 70
0
  3
Centre ____ _ ____
 72
65
 73
4
 40
50.0
 49
32.0
 49
-6.0
 49
6.0
 49
-6.0
  0
LTYPE
  2
ByBlock
 70
0
  3

 72
65
 73
0
 40
0.0
  0
LTYPE
  2
ByLayer
 70
0
  3

 72
65
 73
0
 40
0.0
  0
ENDTAB
  0
TABLE
  2
LAYER
 70
15
  0
LAYER
  2
0
 70
0
 62
7
  6
CONTINUOUS
  0
LAYER
  2
WALLS
 70
0
 62
7
  6
CONTINUOUS
  0
LAYER
  2
OPENINGS
 70
0
 62
1
  6
CONTINUOUS
  0
LAYER
  2
STAIRS
 70
0
 62
3
  6
CONTINUOUS
  0
LAYER
  2
GROUND
 70
0
 62
42
  6
CONTINUOUS
  0
LAYER
  2
TEXT
 70
0
 62
2
  6
CONTINUOUS
  0
LAYER
  2
DIM
 70
0
 62
4
  6
CONTINUOUS
  0
LAYER
  2
HIDDEN
 70
0
 62
8
  6
DASHED
  0
LAYER
  2
CENTRE
 70
0
 62
6
  6
CENTER
  0
LAYER
  2
BEYOND
 70
0
 62
9
  6
CONTINUOUS
  0
LAYER
  2
Defpoints
 70
0
 62
7
  6
Continuous
  0
LAYER
  2
LEADER
 70
0
 62
7
  6
Continuous
  0
LAYER
  2
SHEET-BORDER
 70
0
 62
7
  6
Continuous
  0
LAYER
  2
SHEET-TITLEBLOCK
 70
0
 62
7
  6
Continuous
  0
LAYER
  2
SHEET-TEXT
 70
0
 62
7
  6
Continuous
  0
ENDTAB
  0
TABLE
  2
STYLE
 70
1
  0
STYLE
  2
STANDARD
 70
0
 40
0.0
 41
1.0
 50
0.0
 71
0
 42
2.5
  3
txt
  4

  0
ENDTAB
  0
TABLE
  2
VIEW
 70
0
  0
ENDTAB
  0
TABLE
  2
UCS
 70
0
  0
ENDTAB
  0
TABLE
  2
APPID
 70
3
  0
APPID
  2
ACAD
 70
0
  0
APPID
  2
HATCHBACKGROUNDCOLOR
 70
0
  0
APPID
  2
EZDXF
 70
0
  0
ENDTAB
  0
TABLE
  2
DIMSTYLE
 70
1
  0
DIMSTYLE
  2
Standard
 70
0
  3

  4

  5

  6

  7

 40
1.0
 41
2.5
 42
0.625
 43
3.75
 44
1.25
 45
0.0
 46
0.0
 47
0.0
 48
0.0
140
2.5
141
2.5
142
0.0
143
0.03937007874
144
1.0
145
0.0
146
1.0
147
0.625
 71
0
 72
0
 73
0
 74
0
 75
0
 76
0
 77
1
 78
8
170
0
171
3
172
1
173
0
174
0
175
0
176
0
177
0
178
0
  0
ENDTAB
  0
ENDSEC
  0
SECTION
  2
BLOCKS
  0
BLOCK
  8
0
  2
$Model_Space
 70
0
 10
0.0
 20
0.0
 30
0.0
  3
$Model_Space
  1

1001
EZDXF
1000
WRITTEN_BY_EZDXF
1000
1.4.4 @ 2026-09-10T01:39:47.299037+00:00
  0
ENDBLK
  8
0
  0
BLOCK
  8
0
  2
$Paper_Space
 70
0
 10
0.0
 20
0.0
 30
0.0
  3
$Paper_Space
  1

  0
ENDBLK
  8
0
  0
ENDSEC
  0
SECTION
  2
ENTITIES
  0
POLYLINE
  8
BEYOND
 66
1
 10
0.0
 20
0.0
 30
0.0
 70
1
  0
VERTEX
  8
BEYOND
 10
0.0
 20
-4107.8801071667785
 30
0.0
 70
0
  0
VERTEX
  8
BEYOND
 10
4000.0
 20
-4107.8801071667785
 30
0.0
 70
0
  0
VERTEX
  8
BEYOND
 10
4000.0
 20
892.1198928332215
 30
0.0
 70
0
  0
VERTEX
  8
BEYOND
 10
0.0
 20
892.1198928332215
 30
0.0
 70
0
  0
SEQEND
  8
BEYOND
  0
POLYLINE
  8
BEYOND
 66
1
 10
0.0
 20
0.0
 30
0.0
 70
1
  0
VERTEX
  8
BEYOND
 10
200.0
 20
-3907.8801071667785
 30
0.0
 70
0
  0
VERTEX
  8
BEYOND
 10
3800.0
 20
-3907.8801071667785
 30
0.0
 70
0
  0
VERTEX
  8
BEYOND
 10
3800.0
 20
692.1198928332215
 30
0.0
 70
0
  0
VERTEX
  8
BEYOND
 10
200.0
 20
692.1198928332215
 30
0.0
 70
0
  0
SEQEND
  8
BEYOND
  0
TEXT
  8
BEYOND
 10
2000.0
 20
3292.1198928332215
 30
0.0
 40
120.0
  1
200 RC BALLISTIC INFILL - NON STRUCTURAL
  7
STANDARD
 72
1
 11
2000.0
 21
3292.1198928332215
 31
0.0
  0
POLYLINE
  8
WALLS
 66
1
 10
0.0
 20
0.0
 30
0.0
 70
1
  0
VERTEX
  8
WALLS
 10
175.0
 20
-4057.8801071667785
 30
0.0
 70
0
  0
VERTEX
  8
WALLS
 10
3825.0
 20
-4057.8801071667785
 30
0.0
 70
0
  0
VERTEX
  8
WALLS
 10
3825.0
 20
-3807.8801071667785
 30
0.0
 70
0
  0
VERTEX
  8
WALLS
 10
175.0
 20
-3807.8801071667785
 30
0.0
 70
0
  0
SEQEND
  8
WALLS
  0
POLYLINE
  8
WALLS
 66
1
 10
0.0
 20
0.0
 30
0.0
 70
1
  0
VERTEX
  8
WALLS
 10
175.0
 20
592.1198928332215
 30
0.0
 70
0
  0
VERTEX
  8
WALLS
 10
3825.0
 20
592.1198928332215
 30
0.0
 70
0
  0
VERTEX
  8
WALLS
 10
3825.0
 20
842.1198928332215
 30
0.0
 70
0
  0
VERTEX
  8
WALLS
 10
175.0
 20
842.1198928332215
 30
0.0
 70
0
  0
SEQEND
  8
WALLS
  0
POLYLINE
  8
WALLS
 66
1
 10
0.0
 20
0.0
 30
0.0
 70
1
  0
VERTEX
  8
WALLS
 10
50.0
 20
-3932.8801071667785
 30
0.0
 70
0
  0
VERTEX
  8
WALLS
 10
300.0
 20
-3932.8801071667785
 30
0.0
 70
0
  0
VERTEX
  8
WALLS
 10
300.0
 20
717.1198928332215
 30
0.0
 70
0
  0
VERTEX
  8
WALLS
 10
50.0
 20
717.1198928332215
 30
0.0
 70
0
  0
SEQEND
  8
WALLS
  0
POLYLINE
  8
WALLS
 66
1
 10
0.0
 20
0.0
 30
0.0
 70
1
  0
VERTEX
  8
WALLS
 10
3700.0
 20
-3932.8801071667785
 30
0.0
 70
0
  0
VERTEX
  8
WALLS
 10
3950.0
 20
-3932.8801071667785
 30
0.0
 70
0
  0
VERTEX
  8
WALLS
 10
3950.0
 20
717.1198928332215
 30
0.0
 70
0
  0
VERTEX
  8
WALLS
 10
3700.0
 20
717.1198928332215
 30
0.0
 70
0
  0
SEQEND
  8
WALLS
  0
POLYLINE
  8
WALLS
 66
1
 10
0.0
 20
0.0
 30
0.0
 70
1
  0
VERTEX
  8
WALLS
 10
0.0
 20
-4107.8801071667785
 30
0.0
 70
0
  0
VERTEX
  8
WALLS
 10
350.0
 20
-4107.8801071667785
 30
0.0
 70
0
  0
VERTEX
  8
WALLS
 10
350.0
 20
-3757.8801071667785
 30
0.0
 70
0
  0
VERTEX
  8
WALLS
 10
0.0
 20
-3757.8801071667785
 30
0.0
 70
0
  0
SEQEND
  8
WALLS
  0
LINE
  8
WALLS
 10
0.0
 20
-4107.8801071667785
 30
0.0
 11
350.0
 21
-3757.8801071667785
 31
0.0
  0
LINE
  8
WALLS
 10
0.0
 20
-3757.8801071667785
 30
0.0
 11
350.0
 21
-4107.8801071667785
 31
0.0
  0
POLYLINE
  8
WALLS
 66
1
 10
0.0
 20
0.0
 30
0.0
 70
1
  0
VERTEX
  8
WALLS
 10
0.0
 20
542.1198928332215
 30
0.0
 70
0
  0
VERTEX
  8
WALLS
 10
350.0
 20
542.1198928332215
 30
0.0
 70
0
  0
VERTEX
  8
WALLS
 10
350.0
 20
892.1198928332215
 30
0.0
 70
0
  0
VERTEX
  8
WALLS
 10
0.0
 20
892.1198928332215
 30
0.0
 70
0
  0
SEQEND
  8
WALLS
  0
LINE
  8
WALLS
 10
0.0
 20
542.1198928332215
 30
0.0
 11
350.0
 21
892.1198928332215
 31
0.0
  0
LINE
  8
WALLS
 10
0.0
 20
892.1198928332215
 30
0.0
 11
350.0
 21
542.1198928332215
 31
0.0
  0
POLYLINE
  8
WALLS
 66
1
 10
0.0
 20
0.0
 30
0.0
 70
1
  0
VERTEX
  8
WALLS
 10
3650.0
 20
-4107.8801071667785
 30
0.0
 70
0
  0
VERTEX
  8
WALLS
 10
4000.0
 20
-4107.8801071667785
 30
0.0
 70
0
  0
VERTEX
  8
WALLS
 10
4000.0
 20
-3757.8801071667785
 30
0.0
 70
0
  0
VERTEX
  8
WALLS
 10
3650.0
 20
-3757.8801071667785
 30
0.0
 70
0
  0
SEQEND
  8
WALLS
  0
LINE
  8
WALLS
 10
3650.0
 20
-4107.8801071667785
 30
0.0
 11
4000.0
 21
-3757.8801071667785
 31
0.0
  0
LINE
  8
WALLS
 10
3650.0
 20
-3757.8801071667785
 30
0.0
 11
4000.0
 21
-4107.8801071667785
 31
0.0
  0
POLYLINE
  8
WALLS
 66
1
 10
0.0
 20
0.0
 30
0.0
 70
1
  0
VERTEX
  8
WALLS
 10
3650.0
 20
542.1198928332215
 30
0.0
 70
0
  0
VERTEX
  8
WALLS
 10
4000.0
 20
542.1198928332215
 30
0.0
 70
0
  0
VERTEX
  8
WALLS
 10
4000.0
 20
892.1198928332215
 30
0.0
 70
0
  0
VERTEX
  8
WALLS
 10
3650.0
 20
892.1198928332215
 30
0.0
 70
0
  0
SEQEND
  8
WALLS
  0
LINE
  8
WALLS
 10
3650.0
 20
542.1198928332215
 30
0.0
 11
4000.0
 21
892.1198928332215
 31
0.0
  0
LINE
  8
WALLS
 10
3650.0
 20
892.1198928332215
 30
0.0
 11
4000.0
 21
542.1198928332215
 31
0.0
  0
LINE
  8
DIM
 10
175.0
 20
-3932.8801071667785
 30
0.0
 11
2000.0
 21
-2107.8801071667785
 31
0.0
  0
LINE
  8
DIM
 10
3825.0
 20
-3932.8801071667785
 30
0.0
 11
2000.0
 21
-2107.8801071667785
 31
0.0
  0
LINE
  8
DIM
 10
175.0
 20
717.1198928332215
 30
0.0
 11
2000.0
 21
-1107.8801071667785
 31
0.0
  0
LINE
  8
DIM
 10
3825.0
 20
717.1198928332215
 30
0.0
 11
2000.0
 21
-1107.8801071667785
 31
0.0
  0
LINE
  8
DIM
 10
2000.0
 20
-2107.8801071667785
 30
0.0
 11
2000.0
 21
-1107.8801071667785
 31
0.0
  0
TEXT
  8
DIM
 10
2000.0
 20
-5407.8801071667785
 30
0.0
 40
110.0
  1
45 DEG YIELD LINES  -  IS 456 CL 24.5
  7
STANDARD
 72
1
 11
2000.0
 21
-5407.8801071667785
 31
0.0
  0
TEXT
  8
DIM
 10
2000.0
 20
-5657.8801071667785
 30
0.0
 40
110.0
  1
B1 TAKES THE TRIANGLE, B2 TAKES THE TRAPEZOID
  7
STANDARD
 72
1
 11
2000.0
 21
-5657.8801071667785
 31
0.0
  0
TEXT
  8
TEXT
 10
2000.0
 20
-4452.8801071667785
 30
0.0
 40
120.0
  1
B1  250 x 450
  7
STANDARD
 72
1
 11
2000.0
 21
-4452.8801071667785
 31
0.0
  0
TEXT
  8
TEXT
 10
2000.0
 20
1097.1198928332215
 30
0.0
 40
120.0
  1
B1  250 x 450
  7
STANDARD
 72
1
 11
2000.0
 21
1097.1198928332215
 31
0.0
  0
TEXT
  8
TEXT
 10
-1275.0
 20
-1607.8801071667785
 30
0.0
 40
120.0
  1
B2  250 x 450
  7
STANDARD
 11
-1275.0
 21
-1607.8801071667785
 31
0.0
  0
TEXT
  8
TEXT
 10
4375.0
 20
-1607.8801071667785
 30
0.0
 40
120.0
  1
B2  250 x 450
  7
STANDARD
 11
4375.0
 21
-1607.8801071667785
 31
0.0
  0
TEXT
  8
TEXT
 10
475.0
 20
-3524.8801071667785
 30
0.0
 40
120.0
  1
C1
  7
STANDARD
 72
1
 11
475.0
 21
-3524.8801071667785
 31
0.0
  0
TEXT
  8
TEXT
 10
583.0
 20
417.11989283322146
 30
0.0
 40
120.0
  1
C1
  7
STANDARD
 72
1
 11
583.0
 21
417.11989283322146
 31
0.0
  0
TEXT
  8
TEXT
 10
3525.0
 20
-3524.8801071667785
 30
0.0
 40
120.0
  1
C1
  7
STANDARD
 72
1
 11
3525.0
 21
-3524.8801071667785
 31
0.0
  0
TEXT
  8
TEXT
 10
3417.0
 20
417.11989283322146
 30
0.0
 40
120.0
  1
C1
  7
STANDARD
 72
1
 11
3417.0
 21
417.11989283322146
 31
0.0
  0
TEXT
  8
TEXT
 10
2000.0
 20
-3052.8801071667785
 30
0.0
 40
300.0
  1
S1
  7
STANDARD
 72
1
 11
2000.0
 21
-3052.8801071667785
 31
0.0
  0
TEXT
  8
TEXT
 10
2000.0
 20
-3312.8801071667785
 30
0.0
 40
120.0
  1
150 TWO-WAY SLAB
  7
STANDARD
 72
1
 11
2000.0
 21
-3312.8801071667785
 31
0.0
  0
TEXT
  8
TEXT
 10
2000.0
 20
-3512.8801071667785
 30
0.0
 40
120.0
  1
3650 x 4650 c/c
  7
STANDARD
 72
1
 11
2000.0
 21
-3512.8801071667785
 31
0.0
  0
LINE
  8
CENTRE
 10
175.0
 20
-5507.8801071667785
 30
0.0
 11
175.0
 21
2292.1198928332215
 31
0.0
  0
CIRCLE
  8
DIM
 10
175.0
 20
2642.1198928332215
 30
0.0
 40
260.0
  0
TEXT
  8
DIM
 10
175.0
 20
2552.1198928332215
 30
0.0
 40
180.0
  1
A
  7
STANDARD
 72
1
 11
175.0
 21
2552.1198928332215
 31
0.0
  0
LINE
  8
CENTRE
 10
3825.0
 20
-5507.8801071667785
 30
0.0
 11
3825.0
 21
2292.1198928332215
 31
0.0
  0
CIRCLE
  8
DIM
 10
3825.0
 20
2642.1198928332215
 30
0.0
 40
260.0
  0
TEXT
  8
DIM
 10
3825.0
 20
2552.1198928332215
 30
0.0
 40
180.0
  1
B
  7
STANDARD
 72
1
 11
3825.0
 21
2552.1198928332215
 31
0.0
  0
LINE
  8
CENTRE
 10
-1400.0
 20
-3932.8801071667785
 30
0.0
 11
5400.0
 21
-3932.8801071667785
 31
0.0
  0
CIRCLE
  8
DIM
 10
-1750.0
 20
-3932.8801071667785
 30
0.0
 40
260.0
  0
TEXT
  8
DIM
 10
-1750.0
 20
-4022.8801071667785
 30
0.0
 40
180.0
  1
1
  7
STANDARD
 72
1
 11
-1750.0
 21
-4022.8801071667785
 31
0.0
  0
LINE
  8
CENTRE
 10
-1400.0
 20
717.1198928332215
 30
0.0
 11
5400.0
 21
717.1198928332215
 31
0.0
  0
CIRCLE
  8
DIM
 10
-1750.0
 20
717.1198928332215
 30
0.0
 40
260.0
  0
TEXT
  8
DIM
 10
-1750.0
 20
627.1198928332215
 30
0.0
 40
180.0
  1
2
  7
STANDARD
 72
1
 11
-1750.0
 21
627.1198928332215
 31
0.0
  0
LINE
  8
DIM
 10
175.0
 20
-6707.8801071667785
 30
0.0
 11
3825.0
 21
-6707.8801071667785
 31
0.0
  0
LINE
  8
DIM
 10
85.0
 20
-6797.8801071667785
 30
0.0
 11
265.0
 21
-6617.8801071667785
 31
0.0
  0
LINE
  8
DIM
 10
175.0
 20
-6887.8801071667785
 30
0.0
 11
175.0
 21
-6527.8801071667785
 31
0.0
  0
LINE
  8
DIM
 10
3735.0
 20
-6797.8801071667785
 30
0.0
 11
3915.0
 21
-6617.8801071667785
 31
0.0
  0
LINE
  8
DIM
 10
3825.0
 20
-6887.8801071667785
 30
0.0
 11
3825.0
 21
-6527.8801071667785
 31
0.0
  0
TEXT
  8
DIM
 10
2000.0
 20
-6635.8801071667785
 30
0.0
 40
120.0
  1
3650  GRID A - B
  7
STANDARD
 72
1
 11
2000.0
 21
-6635.8801071667785
 31
0.0
  0
LINE
  8
DIM
 10
0.0
 20
-7407.8801071667785
 30
0.0
 11
4000.0
 21
-7407.8801071667785
 31
0.0
  0
LINE
  8
DIM
 10
-90.0
 20
-7497.8801071667785
 30
0.0
 11
90.0
 21
-7317.8801071667785
 31
0.0
  0
LINE
  8
DIM
 10
0.0
 20
-7587.8801071667785
 30
0.0
 11
0.0
 21
-7227.8801071667785
 31
0.0
  0
LINE
  8
DIM
 10
3910.0
 20
-7497.8801071667785
 30
0.0
 11
4090.0
 21
-7317.8801071667785
 31
0.0
  0
LINE
  8
DIM
 10
4000.0
 20
-7587.8801071667785
 30
0.0
 11
4000.0
 21
-7227.8801071667785
 31
0.0
  0
TEXT
  8
DIM
 10
2000.0
 20
-7335.8801071667785
 30
0.0
 40
120.0
  1
4000 EXTERNAL
  7
STANDARD
 72
1
 11
2000.0
 21
-7335.8801071667785
 31
0.0
  0
LINE
  8
DIM
 10
6600.0
 20
-3932.8801071667785
 30
0.0
 11
6600.0
 21
717.1198928332215
 31
0.0
  0
LINE
  8
DIM
 10
6510.0
 20
-4022.8801071667785
 30
0.0
 11
6690.0
 21
-3842.8801071667785
 31
0.0
  0
LINE
  8
DIM
 10
6420.0
 20
-3932.8801071667785
 30
0.0
 11
6780.0
 21
-3932.8801071667785
 31
0.0
  0
LINE
  8
DIM
 10
6510.0
 20
627.1198928332215
 30
0.0
 11
6690.0
 21
807.1198928332215
 31
0.0
  0
LINE
  8
DIM
 10
6420.0
 20
717.1198928332215
 30
0.0
 11
6780.0
 21
717.1198928332215
 31
0.0
  0
TEXT
  8
DIM
 10
6528.0
 20
-1607.8801071667785
 30
0.0
 40
120.0
  1
4650  GRID 1 - 2
 50
90.0
  7
STANDARD
 72
1
 11
6528.0
 21
-1607.8801071667785
 31
0.0
  0
LINE
  8
DIM
 10
7300.0
 20
-4107.8801071667785
 30
0.0
 11
7300.0
 21
892.1198928332215
 31
0.0
  0
LINE
  8
DIM
 10
7210.0
 20
-4197.8801071667785
 30
0.0
 11
7390.0
 21
-4017.8801071667785
 31
0.0
  0
LINE
  8
DIM
 10
7120.0
 20
-4107.8801071667785
 30
0.0
 11
7480.0
 21
-4107.8801071667785
 31
0.0
  0
LINE
  8
DIM
 10
7210.0
 20
802.1198928332215
 30
0.0
 11
7390.0
 21
982.1198928332215
 31
0.0
  0
LINE
  8
DIM
 10
7120.0
 20
892.1198928332215
 30
0.0
 11
7480.0
 21
892.1198928332215
 31
0.0
  0
TEXT
  8
DIM
 10
7228.0
 20
-1607.8801071667785
 30
0.0
 40
120.0
  1
5000 EXTERNAL
 50
90.0
  7
STANDARD
 72
1
 11
7228.0
 21
-1607.8801071667785
 31
0.0
  0
TEXT
  8
TEXT
 10
-1800.0
 20
4092.1198928332215
 30
0.0
 40
250.0
  1
DRAWING 6  -  SENTRY POST FRAMING PLAN
  7
STANDARD
 11
-1800.0
 21
4092.1198928332215
 31
0.0
  0
TEXT
  8
TEXT
 10
-1800.0
 20
3742.1198928332215
 30
0.0
 40
120.0
  1
SCALE 1:50 AT A1   -   ALL DIMENSIONS IN MILLIMETRES
  7
STANDARD
 11
-1800.0
 21
3742.1198928332215
 31
0.0
  0
TEXT
  8
TEXT
 10
-12865.0
 20
-12565.760214333557
 30
0.0
 40
120.0
  1
MEMBER SCHEDULE
  7
STANDARD
 11
-12865.0
 21
-12565.760214333557
 31
0.0
  0
TEXT
  8
TEXT
 10
-12865.0
 20
-12865.760214333557
 30
0.0
 40
120.0
  1
  C1   COLUMN  350 x 350   4 No, ground and first storey
  7
STANDARD
 11
-12865.0
 21
-12865.760214333557
 31
0.0
  0
TEXT
  8
TEXT
 10
-12865.0
 20
-13165.760214333557
 30
0.0
 40
120.0
  1
  B1   BEAM    250 x 450   spanning A-B, 3650 c/c
  7
STANDARD
 11
-12865.0
 21
-13165.760214333557
 31
0.0
  0
TEXT
  8
TEXT
 10
-12865.0
 20
-13465.760214333557
 30
0.0
 40
120.0
  1
  B2   BEAM    250 x 450   spanning 1-2, 4650 c/c
  7
STANDARD
 11
-12865.0
 21
-13465.760214333557
 31
0.0
  0
TEXT
  8
TEXT
 10
-12865.0
 20
-13765.760214333557
 30
0.0
 40
120.0
  1
  S1   SLAB    150 two-way, both levels
  7
STANDARD
 11
-12865.0
 21
-13765.760214333557
 31
0.0
  0
TEXT
  8
TEXT
 10
-12865.0
 20
-14065.760214333557
 30
0.0
 40
120.0
  1
  PB   PLINTH BEAM 250 x 400 at +0.450, carries the
  7
STANDARD
 11
-12865.0
 21
-14065.760214333557
 31
0.0
  0
TEXT
  8
TEXT
 10
-12865.0
 20
-14365.760214333557
 30
0.0
 40
120.0
  1
       ground storey infill - NOT part of the analysis model
  7
STANDARD
 11
-12865.0
 21
-14365.760214333557
 31
0.0
  0
TEXT
  8
TEXT
 10
-1800.0
 20
-6700.0
 30
0.0
 40
120.0
  1

  7
STANDARD
 11
-1800.0
 21
-6700.0
 31
0.0
  0
TEXT
  8
TEXT
 10
-12865.0
 20
-14965.760214333557
 30
0.0
 40
120.0
  1
LOADS TAKEN TO THE BEAMS  (as built into Sentry_Post_Framed_Seismic.std)
  7
STANDARD
 11
-12865.0
 21
-14965.760214333557
 31
0.0
  0
TEXT
  8
TEXT
 10
-12865.0
 20
-15265.760214333557
 30
0.0
 40
120.0
  1
  slab dead   first floor 4.750   roof 5.250 kN/m2
  7
STANDARD
 11
-12865.0
 21
-15265.760214333557
 31
0.0
  0
TEXT
  8
TEXT
 10
-12865.0
 20
-15565.760214333557
 30
0.0
 40
120.0
  1
  imposed     first floor 3.000   roof 1.500 kN/m2   IS 875 Part 2
  7
STANDARD
 11
-12865.0
 21
-15565.760214333557
 31
0.0
  0
TEXT
  8
TEXT
 10
-12865.0
 20
-15865.760214333557
 30
0.0
 40
120.0
  1
  peak two-way intensity  w x 3.650/2 :
  7
STANDARD
 11
-12865.0
 21
-15865.760214333557
 31
0.0
  0
TEXT
  8
TEXT
 10
-12865.0
 20
-16165.760214333557
 30
0.0
 40
120.0
  1
     DL   floor 8.669   roof 9.581 kN/m
  7
STANDARD
 11
-12865.0
 21
-16165.760214333557
 31
0.0
  0
TEXT
  8
TEXT
 10
-12865.0
 20
-16465.760214333557
 30
0.0
 40
120.0
  1
     LL   floor 5.475   roof 2.737 kN/m
  7
STANDARD
 11
-12865.0
 21
-16465.760214333557
 31
0.0
  0
TEXT
  8
TEXT
 10
-12865.0
 20
-16765.760214333557
 30
0.0
 40
120.0
  1
  B1 takes the TRIANGLE, B2 takes the TRAPEZOID
  7
STANDARD
 11
-12865.0
 21
-16765.760214333557
 31
0.0
  0
TEXT
  8
TEXT
 10
-12865.0
 20
-17065.760214333557
 30
0.0
 40
120.0
  1
  infill on the first floor beams   13.000 kN/m  (200 x 2600 high)
  7
STANDARD
 11
-12865.0
 21
-17065.760214333557
 31
0.0
  0
TEXT
  8
TEXT
 10
-12865.0
 20
-17365.760214333557
 30
0.0
 40
120.0
  1
  roof projection + parapet         4.162 kN/m
  7
STANDARD
 11
-12865.0
 21
-17365.760214333557
 31
0.0
  0
TEXT
  8
TEXT
 10
-1800.0
 20
-9700.0
 30
0.0
 40
120.0
  1

  7
STANDARD
 11
-1800.0
 21
-9700.0
 31
0.0
  0
TEXT
  8
TEXT
 10
-12865.0
 20
-17965.760214333557
 30
0.0
 40
120.0
  1
M30 / Fe500.  Ductile detailing to IS 13920 : 2016, Zone III.
  7
STANDARD
 11
-12865.0
 21
-17965.760214333557
 31
0.0
  0
TEXT
  8
TEXT
 10
-12865.0
 20
-18265.760214333557
 30
0.0
 40
120.0
  1
The 200 infill panels must be separated from the frame if the
  7
STANDARD
 11
-12865.0
 21
-18265.760214333557
 31
0.0
  0
TEXT
  8
TEXT
 10
-12865.0
 20
-18565.760214333557
 30
0.0
 40
120.0
  1
R = 5.0 special moment frame value is to be claimed - otherwise
  7
STANDARD
 11
-12865.0
 21
-18565.760214333557
 31
0.0
  0
TEXT
  8
TEXT
 10
-12865.0
 20
-18865.760214333557
 30
0.0
 40
120.0
  1
R = 3.0, which is what the analysis uses.  See the calculation note.
  7
STANDARD
 11
-12865.0
 21
-18865.760214333557
 31
0.0
  0
LINE
  8
SHEET-BORDER
 10
-13815.0
 20
-19950.0
 30
0.0
 11
28235.0
 21
-19950.0
 31
0.0
  0
LINE
  8
SHEET-BORDER
 10
28235.0
 20
-19950.0
 30
0.0
 11
28235.0
 21
9750.0
 31
0.0
  0
LINE
  8
SHEET-BORDER
 10
28235.0
 20
9750.0
 30
0.0
 11
-13815.0
 21
9750.0
 31
0.0
  0
LINE
  8
SHEET-BORDER
 10
-13815.0
 20
9750.0
 30
0.0
 11
-13815.0
 21
-19950.0
 31
0.0
  0
LINE
  8
SHEET-BORDER
 10
-13315.0
 20
-19450.0
 30
0.0
 11
27735.0
 21
-19450.0
 31
0.0
  0
LINE
  8
SHEET-BORDER
 10
27735.0
 20
-19450.0
 30
0.0
 11
27735.0
 21
9250.0
 31
0.0
  0
LINE
  8
SHEET-BORDER
 10
27735.0
 20
9250.0
 30
0.0
 11
-13315.0
 21
9250.0
 31
0.0
  0
LINE
  8
SHEET-BORDER
 10
-13315.0
 20
9250.0
 30
0.0
 11
-13315.0
 21
-19450.0
 31
0.0
  0
LINE
  8
SHEET-TITLEBLOCK
 10
18735.0
 20
-19450.0
 30
0.0
 11
27735.0
 21
-19450.0
 31
0.0
  0
LINE
  8
SHEET-TITLEBLOCK
 10
27735.0
 20
-19450.0
 30
0.0
 11
27735.0
 21
-14450.0
 31
0.0
  0
LINE
  8
SHEET-TITLEBLOCK
 10
27735.0
 20
-14450.0
 30
0.0
 11
18735.0
 21
-14450.0
 31
0.0
  0
LINE
  8
SHEET-TITLEBLOCK
 10
18735.0
 20
-14450.0
 30
0.0
 11
18735.0
 21
-19450.0
 31
0.0
  0
LINE
  8
SHEET-TITLEBLOCK
 10
18735.0
 20
-18450.0
 30
0.0
 11
27735.0
 21
-18450.0
 31
0.0
  0
LINE
  8
SHEET-TITLEBLOCK
 10
18735.0
 20
-17850.0
 30
0.0
 11
27735.0
 21
-17850.0
 31
0.0
  0
LINE
  8
SHEET-TITLEBLOCK
 10
18735.0
 20
-17250.0
 30
0.0
 11
27735.0
 21
-17250.0
 31
0.0
  0
LINE
  8
SHEET-TITLEBLOCK
 10
18735.0
 20
-16650.0
 30
0.0
 11
27735.0
 21
-16650.0
 31
0.0
  0
LINE
  8
SHEET-TITLEBLOCK
 10
18735.0
 20
-15550.0
 30
0.0
 11
27735.0
 21
-15550.0
 31
0.0
  0
LINE
  8
SHEET-TITLEBLOCK
 10
24335.0
 20
-19450.0
 30
0.0
 11
24335.0
 21
-18450.0
 31
0.0
  0
LINE
  8
SHEET-TITLEBLOCK
 10
26035.0
 20
-19450.0
 30
0.0
 11
26035.0
 21
-18450.0
 31
0.0
  0
LINE
  8
SHEET-TITLEBLOCK
 10
23535.0
 20
-18450.0
 30
0.0
 11
23535.0
 21
-17850.0
 31
0.0
  0
TEXT
  8
SHEET-TEXT
 10
18835.0
 20
-18720.0
 30
0.0
 40
70.0
  1
DRAWING No.
 11
18835.0
 21
-18720.0
 31
0.0
  0
TEXT
  8
SHEET-TEXT
 10
19535.0
 20
-19240.0
 30
0.0
 40
220.00000000000003
  1
A-105
 11
19535.0
 21
-19240.0
 31
0.0
  0
TEXT
  8
SHEET-TEXT
 10
24435.0
 20
-18720.0
 30
0.0
 40
70.0
  1
REV
 11
24435.0
 21
-18720.0
 31
0.0
  0
TEXT
  8
SHEET-TEXT
 10
24435.0
 20
-19220.0
 30
0.0
 40
140.0
  1
F + M1
 11
24435.0
 21
-19220.0
 31
0.0
  0
TEXT
  8
SHEET-TEXT
 10
26135.0
 20
-18720.0
 30
0.0
 40
70.0
  1
SHEET
 11
26135.0
 21
-18720.0
 31
0.0
  0
TEXT
  8
SHEET-TEXT
 10
26135.0
 20
-19200.0
 30
0.0
 40
95.0
  1
5 OF 10
 11
26135.0
 21
-19200.0
 31
0.0
  0
TEXT
  8
SHEET-TEXT
 10
18835.0
 20
-18230.0
 30
0.0
 40
95.0
  1
SCALE   1:50 AT A1
 11
18835.0
 21
-18230.0
 31
0.0
  0
TEXT
  8
SHEET-TEXT
 10
23635.0
 20
-18230.0
 30
0.0
 40
95.0
  1
DATE   09.09.2026
 11
23635.0
 21
-18230.0
 31
0.0
  0
TEXT
  8
SHEET-TEXT
 10
18835.0
 20
-17630.0
 30
0.0
 40
75.0
  1
DRAWN  [PLACEHOLDER]
 11
18835.0
 21
-17630.0
 31
0.0
  0
TEXT
  8
SHEET-TEXT
 10
21835.0
 20
-17630.0
 30
0.0
 40
75.0
  1
CHECKED  [PLACEHOLDER]
 11
21835.0
 21
-17630.0
 31
0.0
  0
TEXT
  8
SHEET-TEXT
 10
24835.0
 20
-17630.0
 30
0.0
 40
75.0
  1
APPROVED  [PLACEHOLDER]
 11
24835.0
 21
-17630.0
 31
0.0
  0
TEXT
  8
SHEET-TEXT
 10
18835.0
 20
-17030.0
 30
0.0
 40
70.0
  1
STATUS
 11
18835.0
 21
-17030.0
 31
0.0
  0
TEXT
  8
SHEET-TEXT
 10
19835.0
 20
-17050.0
 30
0.0
 40
95.0
  1
FOR REVIEW - NOT FOR CONSTRUCTION
 11
19835.0
 21
-17050.0
 31
0.0
  0
TEXT
  8
SHEET-TEXT
 10
18835.0
 20
-15780.0
 30
0.0
 40
70.0
  1
DRAWING TITLE
 11
18835.0
 21
-15780.0
 31
0.0
  0
TEXT
  8
SHEET-TEXT
 10
18835.0
 20
-16180.0
 30
0.0
 40
120.0
  1
SENTRY POST - FRAMING PLAN
 11
18835.0
 21
-16180.0
 31
0.0
  0
TEXT
  8
SHEET-TEXT
 10
18835.0
 20
-16510.0
 30
0.0
 40
75.0
  1
SLAB S1, BEAMS B1/B2, COLUMNS C1 - REV F INPUT GEOMETRY
 11
18835.0
 21
-16510.0
 31
0.0
  0
TEXT
  8
SHEET-TEXT
 10
18835.0
 20
-14690.0
 30
0.0
 40
70.0
  1
PROJECT
 11
18835.0
 21
-14690.0
 31
0.0
  0
TEXT
  8
SHEET-TEXT
 10
18835.0
 20
-14970.0
 30
0.0
 40
95.0
  1
UNDERGROUND CBRN-HARDENED BLAST-RESISTANT
 11
18835.0
 21
-14970.0
 31
0.0
  0
TEXT
  8
SHEET-TEXT
 10
18835.0
 20
-15200.0
 30
0.0
 40
95.0
  1
PROTECTIVE STRUCTURE  -  PUNE, MAHARASHTRA
 11
18835.0
 21
-15200.0
 31
0.0
  0
TEXT
  8
SHEET-TEXT
 10
18835.0
 20
-15440.0
 30
0.0
 40
75.0
  1
ARCHITECTURAL REV F  +  MODIFICATION M1
 11
18835.0
 21
-15440.0
 31
0.0
  0
TEXT
  8
SHEET-TEXT
 10
-13215.0
 20
8875.0
 30
0.0
 40
160.0
  1
A-105   SENTRY POST - FRAMING PLAN
 11
-13215.0
 21
8875.0
 31
0.0
  0
LINE
  8
SHEET-BORDER
 10
-13315.0
 20
8725.0
 30
0.0
 11
27735.0
 21
8725.0
 31
0.0
  0
TEXT
  8
SHEET-TEXT
 10
-13215.0
 20
-19325.0
 30
0.0
 40
75.0
  1
QA1  09.09.2026   DRAWING QA/QC - ANNOTATION POSITIONS, SHEET FRAME AND TITLE BLOCK.  NO GEOMETRY, DIMENSION OR VALUE CHANGED.
 11
-13215.0
 21
-19325.0
 31
0.0
  0
LINE
  8
SHEET-BORDER
 10
-13015.0
 20
-19050.0
 30
0.0
 11
-6293.834561286001
 21
-19050.0
 31
0.0
  0
LINE
  8
SHEET-BORDER
 10
-6293.834561286001
 20
-19050.0
 30
0.0
 11
-6293.834561286001
 21
-11995.760214333557
 31
0.0
  0
LINE
  8
SHEET-BORDER
 10
-6293.834561286001
 20
-11995.760214333557
 30
0.0
 11
-13015.0
 21
-11995.760214333557
 31
0.0
  0
LINE
  8
SHEET-BORDER
 10
-13015.0
 20
-11995.760214333557
 30
0.0
 11
-13015.0
 21
-19050.0
 31
0.0
  0
TEXT
  8
SHEET-TEXT
 10
-12865.0
 20
-12265.760214333557
 30
0.0
 40
130.0
  1
NOTES
 11
-12865.0
 21
-12265.760214333557
 31
0.0
  0
ENDSEC
  0
EOF
