  0
SECTION
  2
HEADER
  9
$ACADVER
  1
AC1024
  9
$ACADMAINTVER
 70
6
  9
$DWGCODEPAGE
  3
ANSI_1252
  9
$LASTSAVEDBY
  1
ezdxf
  9
$INSBASE
 10
0.0
 20
0.0
 30
0.0
  9
$EXTMIN
 10
1e+20
 20
1e+20
 30
1e+20
  9
$EXTMAX
 10
-1e+20
 20
-1e+20
 30
-1e+20
  9
$LIMMIN
 10
0.0
 20
0.0
  9
$LIMMAX
 10
420.0
 20
297.0
  9
$ORTHOMODE
 70
0
  9
$REGENMODE
 70
1
  9
$FILLMODE
 70
1
  9
$QTEXTMODE
 70
0
  9
$MIRRTEXT
 70
1
  9
$LTSCALE
 40
1.0
  9
$ATTMODE
 70
1
  9
$TEXTSIZE
 40
2.5
  9
$TRACEWID
 40
1.0
  9
$TEXTSTYLE
  7
OpenSans
  9
$CLAYER
  8
0
  9
$CELTYPE
  6
ByLayer
  9
$CECOLOR
 62
256
  9
$CELTSCALE
 40
1.0
  9
$DISPSILH
 70
0
  9
$DIMSCALE
 40
1.0
  9
$DIMASZ
 40
0.175
  9
$DIMEXO
 40
0.125
  9
$DIMDLI
 40
3.75
  9
$DIMRND
 40
0.0
  9
$DIMDLE
 40
0.0
  9
$DIMEXE
 40
0.375
  9
$DIMTP
 40
0.0
  9
$DIMTM
 40
0.0
  9
$DIMTXT
 40
0.25
  9
$DIMCEN
 40
2.5
  9
$DIMTSZ
 40
0.0
  9
$DIMTOL
 70
0
  9
$DIMLIM
 70
0
  9
$DIMTIH
 70
0
  9
$DIMTOH
 70
0
  9
$DIMSE1
 70
0
  9
$DIMSE2
 70
0
  9
$DIMTAD
 70
1
  9
$DIMZIN
 70
12
  9
$DIMBLK
  1
ARCHTICK
  9
$DIMASO
 70
1
  9
$DIMSHO
 70
1
  9
$DIMPOST
  1

  9
$DIMAPOST
  1

  9
$DIMALT
 70
0
  9
$DIMALTD
 70
3
  9
$DIMALTF
 40
0.03937007874
  9
$DIMLFAC
 40
100.0
  9
$DIMTOFL
 70
1
  9
$DIMTVP
 40
0.0
  9
$DIMTIX
 70
0
  9
$DIMSOXD
 70
0
  9
$DIMSAH
 70
0
  9
$DIMBLK1
  1

  9
$DIMBLK2
  1

  9
$DIMSTYLE
  2
EZDXF
  9
$DIMCLRD
 70
0
  9
$DIMCLRE
 70
0
  9
$DIMCLRT
 70
0
  9
$DIMTFAC
 40
0.5
  9
$DIMGAP
 40
0.1
  9
$DIMJUST
 70
0
  9
$DIMSD1
 70
0
  9
$DIMSD2
 70
0
  9
$DIMTOLJ
 70
0
  9
$DIMTZIN
 70
8
  9
$DIMALTZ
 70
0
  9
$DIMALTTZ
 70
0
  9
$DIMUPT
 70
1
  9
$DIMDEC
 70
2
  9
$DIMTDEC
 70
2
  9
$DIMALTU
 70
2
  9
$DIMALTTD
 70
3
  9
$DIMTXSTY
  7
OpenSansCondensed-Light
  9
$DIMAUNIT
 70
0
  9
$DIMADEC
 70
2
  9
$DIMALTRND
 40
0.0
  9
$DIMAZIN
 70
3
  9
$DIMDSEP
 70
46
  9
$DIMATFIT
 70
3
  9
$DIMFRAC
 70
0
  9
$DIMLDRBLK
  1

  9
$DIMLUNIT
 70
2
  9
$DIMLWD
 70
-2
  9
$DIMLWE
 70
-2
  9
$DIMTMOVE
 70
2
  9
$DIMFXL
 40
1.0
  9
$DIMFXLON
 70
0
  9
$DIMJOGANG
 40
0.785398163397
  9
$DIMTFILL
 70
0
  9
$DIMTFILLCLR
 70
0
  9
$DIMARCSYM
 70
0
  9
$DIMLTYPE
  6

  9
$DIMLTEX1
  6

  9
$DIMLTEX2
  6

  9
$DIMTXTDIRECTION
 70
0
  9
$LUNITS
 70
2
  9
$LUPREC
 70
4
  9
$SKETCHINC
 40
1.0
  9
$FILLETRAD
 40
10.0
  9
$AUNITS
 70
0
  9
$AUPREC
 70
2
  9
$MENU
  1
.
  9
$ELEVATION
 40
0.0
  9
$PELEVATION
 40
0.0
  9
$THICKNESS
 40
0.0
  9
$LIMCHECK
 70
0
  9
$CHAMFERA
 40
0.0
  9
$CHAMFERB
 40
0.0
  9
$CHAMFERC
 40
0.0
  9
$CHAMFERD
 40
0.0
  9
$SKPOLY
 70
0
  9
$TDCREATE
 40
2461293.677349537
  9
$TDUCREATE
 40
2458532.153996898
  9
$TDUPDATE
 40
2461293.677349537
  9
$TDUUPDATE
 40
2458532.1544311
  9
$TDINDWG
 40
0.0
  9
$TDUSRTIMER
 40
0.0
  9
$USRTIMER
 70
1
  9
$ANGBASE
 50
0.0
  9
$ANGDIR
 70
0
  9
$PDMODE
 70
0
  9
$PDSIZE
 40
0.0
  9
$PLINEWID
 40
0.0
  9
$SPLFRAME
 70
0
  9
$SPLINETYPE
 70
6
  9
$SPLINESEGS
 70
8
  9
$HANDSEED
  5
245
  9
$SURFTAB1
 70
6
  9
$SURFTAB2
 70
6
  9
$SURFTYPE
 70
6
  9
$SURFU
 70
6
  9
$SURFV
 70
6
  9
$UCSBASE
  2

  9
$UCSNAME
  2

  9
$UCSORG
 10
0.0
 20
0.0
 30
0.0
  9
$UCSXDIR
 10
1.0
 20
0.0
 30
0.0
  9
$UCSYDIR
 10
0.0
 20
1.0
 30
0.0
  9
$UCSORTHOREF
  2

  9
$UCSORTHOVIEW
 70
0
  9
$UCSORGTOP
 10
0.0
 20
0.0
 30
0.0
  9
$UCSORGBOTTOM
 10
0.0
 20
0.0
 30
0.0
  9
$UCSORGLEFT
 10
0.0
 20
0.0
 30
0.0
  9
$UCSORGRIGHT
 10
0.0
 20
0.0
 30
0.0
  9
$UCSORGFRONT
 10
0.0
 20
0.0
 30
0.0
  9
$UCSORGBACK
 10
0.0
 20
0.0
 30
0.0
  9
$PUCSBASE
  2

  9
$PUCSNAME
  2

  9
$PUCSORG
 10
0.0
 20
0.0
 30
0.0
  9
$PUCSXDIR
 10
1.0
 20
0.0
 30
0.0
  9
$PUCSYDIR
 10
0.0
 20
1.0
 30
0.0
  9
$PUCSORTHOREF
  2

  9
$PUCSORTHOVIEW
 70
0
  9
$PUCSORGTOP
 10
0.0
 20
0.0
 30
0.0
  9
$PUCSORGBOTTOM
 10
0.0
 20
0.0
 30
0.0
  9
$PUCSORGLEFT
 10
0.0
 20
0.0
 30
0.0
  9
$PUCSORGRIGHT
 10
0.0
 20
0.0
 30
0.0
  9
$PUCSORGFRONT
 10
0.0
 20
0.0
 30
0.0
  9
$PUCSORGBACK
 10
0.0
 20
0.0
 30
0.0
  9
$USERI1
 70
0
  9
$USERI2
 70
0
  9
$USERI3
 70
0
  9
$USERI4
 70
0
  9
$USERI5
 70
0
  9
$USERR1
 40
0.0
  9
$USERR2
 40
0.0
  9
$USERR3
 40
0.0
  9
$USERR4
 40
0.0
  9
$USERR5
 40
0.0
  9
$WORLDVIEW
 70
1
  9
$SHADEDGE
 70
3
  9
$SHADEDIF
 70
70
  9
$TILEMODE
 70
1
  9
$MAXACTVP
 70
64
  9
$PINSBASE
 10
0.0
 20
0.0
 30
0.0
  9
$PLIMCHECK
 70
0
  9
$PEXTMIN
 10
1e+20
 20
1e+20
 30
1e+20
  9
$PEXTMAX
 10
-1e+20
 20
-1e+20
 30
-1e+20
  9
$PLIMMIN
 10
0.0
 20
0.0
  9
$PLIMMAX
 10
420.0
 20
297.0
  9
$UNITMODE
 70
0
  9
$VISRETAIN
 70
1
  9
$PLINEGEN
 70
0
  9
$PSLTSCALE
 70
1
  9
$TREEDEPTH
 70
3020
  9
$CMLSTYLE
  2
Standard
  9
$CMLJUST
 70
0
  9
$CMLSCALE
 40
20.0
  9
$PROXYGRAPHICS
 70
1
  9
$MEASUREMENT
 70
1
  9
$CELWEIGHT
370
-1
  9
$ENDCAPS
280
0
  9
$JOINSTYLE
280
0
  9
$LWDISPLAY
290
0
  9
$INSUNITS
 70
4
  9
$HYPERLINKBASE
  1

  9
$STYLESHEET
  1

  9
$XEDIT
290
1
  9
$CEPSNTYPE
380
0
  9
$PSTYLEMODE
290
1
  9
$FINGERPRINTGUID
  2
{8B1541AE-24CC-44DF-A0D9-5F4CA5B76115}
  9
$VERSIONGUID
  2
{BF7AF733-8C27-4354-9DEC-AC95EE0C0F40}
  9
$EXTNAMES
290
1
  9
$PSVPSCALE
 40
0.0
  9
$OLESTARTUP
290
0
  9
$SORTENTS
280
127
  9
$INDEXCTL
280
0
  9
$HIDETEXT
280
1
  9
$XCLIPFRAME
280
1
  9
$HALOGAP
280
0
  9
$OBSCOLOR
 70
257
  9
$OBSLTYPE
280
0
  9
$INTERSECTIONDISPLAY
280
0
  9
$INTERSECTIONCOLOR
 70
257
  9
$DIMASSOC
280
2
  9
$PROJECTNAME
  1

  9
$CAMERADISPLAY
290
0
  9
$LENSLENGTH
 40
50.0
  9
$CAMERAHEIGHT
 40
0.0
  9
$STEPSPERSEC
 40
24.0
  9
$STEPSIZE
 40
100.0
  9
$3DDWFPREC
 40
2.0
  9
$PSOLWIDTH
 40
0.005
  9
$PSOLHEIGHT
 40
0.08
  9
$LOFTANG1
 40
1.570796326795
  9
$LOFTANG2
 40
1.570796326795
  9
$LOFTMAG1
 40
0.0
  9
$LOFTMAG2
 40
0.0
  9
$LOFTPARAM
 70
7
  9
$LOFTNORMALS
280
1
  9
$LATITUDE
 40
37.795
  9
$LONGITUDE
 40
-122.394
  9
$NORTHDIRECTION
 40
0.0
  9
$TIMEZONE
 70
-8000
  9
$LIGHTGLYPHDISPLAY
280
1
  9
$TILEMODELIGHTSYNCH
280
1
  9
$CMATERIAL
347
20
  9
$SOLIDHIST
280
0
  9
$SHOWHIST
280
1
  9
$DWFFRAME
280
2
  9
$DGNFRAME
280
2
  9
$REALWORLDSCALE
290
1
  9
$INTERFERECOLOR
 62
256
  9
$CSHADOW
280
0
  9
$SHADOWPLANELOCATION
 40
0.0
  0
ENDSEC
  0
SECTION
  2
CLASSES
  0
CLASS
  1
ACDBDICTIONARYWDFLT
  2
AcDbDictionaryWithDefault
  3
ObjectDBX Classes
 90
0
 91
0
280
0
281
0
  0
CLASS
  1
SUN
  2
AcDbSun
  3
SCENEOE
 90
1153
 91
0
280
0
281
0
  0
CLASS
  1
VISUALSTYLE
  2
AcDbVisualStyle
  3
ObjectDBX Classes
 90
4095
 91
0
280
0
281
0
  0
CLASS
  1
MATERIAL
  2
AcDbMaterial
  3
ObjectDBX Classes
 90
1153
 91
0
280
0
281
0
  0
CLASS
  1
SCALE
  2
AcDbScale
  3
ObjectDBX Classes
 90
1153
 91
0
280
0
281
0
  0
CLASS
  1
TABLESTYLE
  2
AcDbTableStyle
  3
ObjectDBX Classes
 90
4095
 91
0
280
0
281
0
  0
CLASS
  1
MLEADERSTYLE
  2
AcDbMLeaderStyle
  3
ACDB_MLEADERSTYLE_CLASS
 90
4095
 91
0
280
0
281
0
  0
CLASS
  1
DICTIONARYVAR
  2
AcDbDictionaryVar
  3
ObjectDBX Classes
 90
0
 91
0
280
0
281
0
  0
CLASS
  1
CELLSTYLEMAP
  2
AcDbCellStyleMap
  3
ObjectDBX Classes
 90
1152
 91
0
280
0
281
0
  0
CLASS
  1
MENTALRAYRENDERSETTINGS
  2
AcDbMentalRayRenderSettings
  3
SCENEOE
 90
1024
 91
0
280
0
281
0
  0
CLASS
  1
ACDBDETAILVIEWSTYLE
  2
AcDbDetailViewStyle
  3
ObjectDBX Classes
 90
1025
 91
0
280
0
281
0
  0
CLASS
  1
ACDBSECTIONVIEWSTYLE
  2
AcDbSectionViewStyle
  3
ObjectDBX Classes
 90
1025
 91
0
280
0
281
0
  0
CLASS
  1
RASTERVARIABLES
  2
AcDbRasterVariables
  3
ISM
 90
0
 91
0
280
0
281
0
  0
CLASS
  1
LAYOUT
  2
AcDbLayout
  3
ObjectDBX Classes
 90
0
 91
0
280
0
281
0
  0
CLASS
  1
ACDBPLACEHOLDER
  2
AcDbPlaceHolder
  3
ObjectDBX Classes
 90
0
 91
0
280
0
281
0
  0
ENDSEC
  0
SECTION
  2
TABLES
  0
TABLE
  2
VPORT
  5
8
330
0
100
AcDbSymbolTable
 70
1
  0
VPORT
  5
23
330
8
100
AcDbSymbolTableRecord
100
AcDbViewportTableRecord
  2
*Active
 70
0
 10
0.0
 20
0.0
 11
1.0
 21
1.0
 12
0.0
 22
0.0
 13
0.0
 23
0.0
 14
0.5
 24
0.5
 15
0.5
 25
0.5
 16
0.0
 26
0.0
 36
1.0
 17
0.0
 27
0.0
 37
0.0
 40
1000.0
 41
1.34
 42
50.0
 43
0.0
 44
0.0
 50
0.0
 51
0.0
 71
0
 72
1000
 73
1
 74
3
 75
0
 76
0
 77
0
 78
0
281
0
 65
0
146
0.0
  0
ENDTAB
  0
TABLE
  2
LTYPE
  5
2
330
0
100
AcDbSymbolTable
 70
21
  0
LTYPE
  5
24
330
2
100
AcDbSymbolTableRecord
100
AcDbLinetypeTableRecord
  2
ByBlock
 70
0
  3

 72
65
 73
0
 40
0.0
  0
LTYPE
  5
25
330
2
100
AcDbSymbolTableRecord
100
AcDbLinetypeTableRecord
  2
ByLayer
 70
0
  3

 72
65
 73
0
 40
0.0
  0
LTYPE
  5
26
330
2
100
AcDbSymbolTableRecord
100
AcDbLinetypeTableRecord
  2
Continuous
 70
0
  3

 72
65
 73
0
 40
0.0
  0
LTYPE
  5
2F
330
2
100
AcDbSymbolTableRecord
100
AcDbLinetypeTableRecord
  2
CENTER
 70
0
  3
Center ____ _ ____ _ ____ _ ____ _ ____ _ ____
 72
65
 73
4
 40
5.08
 49
3.175
 74
0
 49
-0.635
 74
0
 49
0.635
 74
0
 49
-0.635
 74
0
  0
LTYPE
  5
30
330
2
100
AcDbSymbolTableRecord
100
AcDbLinetypeTableRecord
  2
CENTERX2
 70
0
  3
Center (2x) ________  __  ________  __  ________
 72
65
 73
4
 40
8.89
 49
6.35
 74
0
 49
-0.635
 74
0
 49
1.27
 74
0
 49
-0.635
 74
0
  0
LTYPE
  5
31
330
2
100
AcDbSymbolTableRecord
100
AcDbLinetypeTableRecord
  2
CENTER2
 70
0
  3
Center (.5x) ____ _ ____ _ ____ _ ____ _ ____
 72
65
 73
4
 40
2.54
 49
1.587
 74
0
 49
-0.318
 74
0
 49
0.318
 74
0
 49
-0.318
 74
0
  0
LTYPE
  5
32
330
2
100
AcDbSymbolTableRecord
100
AcDbLinetypeTableRecord
  2
DASHED
 70
0
  3
Dashed __ __ __ __ __ __ __ __ __ __ __ __ __ _
 72
65
 73
2
 40
1.524
 49
1.27
 74
0
 49
-0.254
 74
0
  0
LTYPE
  5
33
330
2
100
AcDbSymbolTableRecord
100
AcDbLinetypeTableRecord
  2
DASHEDX2
 70
0
  3
Dashed (2x) ____  ____  ____  ____  ____  ____
 72
65
 73
2
 40
3.048
 49
2.54
 74
0
 49
-0.508
 74
0
  0
LTYPE
  5
34
330
2
100
AcDbSymbolTableRecord
100
AcDbLinetypeTableRecord
  2
DASHED2
 70
0
  3
Dashed (.5x) _ _ _ _ _ _ _ _ _ _ _ _ _ _
 72
65
 73
2
 40
0.762
 49
0.635
 74
0
 49
-0.127
 74
0
  0
LTYPE
  5
35
330
2
100
AcDbSymbolTableRecord
100
AcDbLinetypeTableRecord
  2
PHANTOM
 70
0
  3
Phantom ______  __  __  ______  __  __  ______
 72
65
 73
6
 40
6.35
 49
3.175
 74
0
 49
-0.635
 74
0
 49
0.635
 74
0
 49
-0.635
 74
0
 49
0.635
 74
0
 49
-0.635
 74
0
  0
LTYPE
  5
36
330
2
100
AcDbSymbolTableRecord
100
AcDbLinetypeTableRecord
  2
PHANTOMX2
 70
0
  3
Phantom (2x)____________    ____    ____    ____________
 72
65
 73
6
 40
10.795
 49
6.35
 74
0
 49
-0.635
 74
0
 49
1.27
 74
0
 49
-0.635
 74
0
 49
1.27
 74
0
 49
-0.635
 74
0
  0
LTYPE
  5
37
330
2
100
AcDbSymbolTableRecord
100
AcDbLinetypeTableRecord
  2
PHANTOM2
 70
0
  3
Phantom (.5x) ___ _ _ ___ _ _ ___ _ _ ___ _ _ ___
 72
65
 73
6
 40
3.175
 49
1.587
 74
0
 49
-0.318
 74
0
 49
0.318
 74
0
 49
-0.318
 74
0
 49
0.318
 74
0
 49
-0.318
 74
0
  0
LTYPE
  5
38
330
2
100
AcDbSymbolTableRecord
100
AcDbLinetypeTableRecord
  2
DASHDOT
 70
0
  3
Dash dot __ . __ . __ . __ . __ . __ . __ . __
 72
65
 73
4
 40
3.556
 49
2.54
 74
0
 49
-0.508
 74
0
 49
0.0
 74
0
 49
-0.508
 74
0
  0
LTYPE
  5
39
330
2
100
AcDbSymbolTableRecord
100
AcDbLinetypeTableRecord
  2
DASHDOTX2
 70
0
  3
Dash dot (2x) ____  .  ____  .  ____  .  ____
 72
65
 73
4
 40
6.096
 49
5.08
 74
0
 49
-0.508
 74
0
 49
0.0
 74
0
 49
-0.508
 74
0
  0
LTYPE
  5
3A
330
2
100
AcDbSymbolTableRecord
100
AcDbLinetypeTableRecord
  2
DASHDOT2
 70
0
  3
Dash dot (.5x) _ . _ . _ . _ . _ . _ . _ . _
 72
65
 73
4
 40
1.778
 49
1.27
 74
0
 49
-0.254
 74
0
 49
0.0
 74
0
 49
-0.254
 74
0
  0
LTYPE
  5
3B
330
2
100
AcDbSymbolTableRecord
100
AcDbLinetypeTableRecord
  2
DOT
 70
0
  3
Dot .  .  .  .  .  .  .  .  .  .  .  .  .  .  .  .
 72
65
 73
2
 40
0.508
 49
0.0
 74
0
 49
-0.508
 74
0
  0
LTYPE
  5
3C
330
2
100
AcDbSymbolTableRecord
100
AcDbLinetypeTableRecord
  2
DOTX2
 70
0
  3
Dot (2x) .    .    .    .    .    .    .    . 
 72
65
 73
2
 40
1.016
 49
0.0
 74
0
 49
-1.016
 74
0
  0
LTYPE
  5
3D
330
2
100
AcDbSymbolTableRecord
100
AcDbLinetypeTableRecord
  2
DOT2
 70
0
  3
Dot (.5) . . . . . . . . . . . . . . . . . . . 
 72
65
 73
2
 40
0.254
 49
0.0
 74
0
 49
-0.254
 74
0
  0
LTYPE
  5
3E
330
2
100
AcDbSymbolTableRecord
100
AcDbLinetypeTableRecord
  2
DIVIDE
 70
0
  3
Divide __ . . __ . . __ . . __ . . __ . . __
 72
65
 73
6
 40
4.064
 49
2.54
 74
0
 49
-0.508
 74
0
 49
0.0
 74
0
 49
-0.508
 74
0
 49
0.0
 74
0
 49
-0.508
 74
0
  0
LTYPE
  5
3F
330
2
100
AcDbSymbolTableRecord
100
AcDbLinetypeTableRecord
  2
DIVIDEX2
 70
0
  3
Divide (2x) ____  . .  ____  . .  ____  . .  ____
 72
65
 73
6
 40
6.604
 49
5.08
 74
0
 49
-0.508
 74
0
 49
0.0
 74
0
 49
-0.508
 74
0
 49
0.0
 74
0
 49
-0.508
 74
0
  0
LTYPE
  5
40
330
2
100
AcDbSymbolTableRecord
100
AcDbLinetypeTableRecord
  2
DIVIDE2
 70
0
  3
Divide(.5x) _ . _ . _ . _ . _ . _ . _ . _
 72
65
 73
6
 40
2.032
 49
1.27
 74
0
 49
-0.254
 74
0
 49
0.0
 74
0
 49
-0.254
 74
0
 49
0.0
 74
0
 49
-0.254
 74
0
  0
ENDTAB
  0
TABLE
  2
LAYER
  5
1
330
0
100
AcDbSymbolTable
 70
26
  0
LAYER
  5
27
330
1
100
AcDbSymbolTableRecord
100
AcDbLayerTableRecord
  2
0
 70
0
 62
7
  6
Continuous
370
-3
390
13
347
21
  0
LAYER
  5
28
330
1
100
AcDbSymbolTableRecord
100
AcDbLayerTableRecord
  2
Defpoints
 70
0
 62
7
  6
Continuous
290
0
370
-3
390
13
347
21
  0
LAYER
  5
8A
330
1
100
AcDbSymbolTableRecord
100
AcDbLayerTableRecord
  2
S-CONCRETE
 70
0
 62
7
  6
Continuous
370
-3
390
13
347
21
1001
AcAecLayerStandard
1000

1000
Structural concrete outlines (cut)
  0
LAYER
  5
8C
330
1
100
AcDbSymbolTableRecord
100
AcDbLayerTableRecord
  2
S-CONCRETE-THIN
 70
0
 62
7
  6
Continuous
370
-3
390
13
347
21
1001
AcAecLayerStandard
1000

1000
Concrete beyond the cut plane
  0
LAYER
  5
8D
330
1
100
AcDbSymbolTableRecord
100
AcDbLayerTableRecord
  2
S-HIDDEN
 70
0
 62
8
  6
Continuous
370
-3
390
13
347
21
1001
AcAecLayerStandard
1000

1000
Concrete / features beyond, hidden
  0
LAYER
  5
8E
330
1
100
AcDbSymbolTableRecord
100
AcDbLayerTableRecord
  2
S-REBAR-MAIN
 70
0
 62
1
  6
Continuous
370
-3
390
13
347
21
1001
AcAecLayerStandard
1000

1000
Main reinforcement
  0
LAYER
  5
8F
330
1
100
AcDbSymbolTableRecord
100
AcDbLayerTableRecord
  2
S-REBAR-DIST
 70
0
 62
3
  6
Continuous
370
-3
390
13
347
21
1001
AcAecLayerStandard
1000

1000
Distribution reinforcement
  0
LAYER
  5
90
330
1
100
AcDbSymbolTableRecord
100
AcDbLayerTableRecord
  2
S-REBAR-STIRRUP
 70
0
 62
6
  6
Continuous
370
-3
390
13
347
21
1001
AcAecLayerStandard
1000

1000
Links and stirrups
  0
LAYER
  5
91
330
1
100
AcDbSymbolTableRecord
100
AcDbLayerTableRecord
  2
S-REBAR-TIE
 70
0
 62
6
  6
Continuous
370
-3
390
13
347
21
1001
AcAecLayerStandard
1000

1000
Ties, cross-ties, starters
  0
LAYER
  5
92
330
1
100
AcDbSymbolTableRecord
100
AcDbLayerTableRecord
  2
S-REBAR-SEC
 70
0
 62
4
  6
Continuous
370
-3
390
13
347
21
1001
AcAecLayerStandard
1000

1000
Trimmers, secondary and additional bars
  0
LAYER
  5
93
330
1
100
AcDbSymbolTableRecord
100
AcDbLayerTableRecord
  2
S-DIM
 70
0
 62
4
  6
Continuous
370
-3
390
13
347
21
1001
AcAecLayerStandard
1000

1000
Dimensions
  0
LAYER
  5
94
330
1
100
AcDbSymbolTableRecord
100
AcDbLayerTableRecord
  2
S-TEXT
 70
0
 62
7
  6
Continuous
370
-3
390
13
347
21
1001
AcAecLayerStandard
1000

1000
General annotation
  0
LAYER
  5
95
330
1
100
AcDbSymbolTableRecord
100
AcDbLayerTableRecord
  2
S-NOTE
 70
0
 62
7
  6
Continuous
370
-3
390
13
347
21
1001
AcAecLayerStandard
1000

1000
Note panels
  0
LAYER
  5
96
330
1
100
AcDbSymbolTableRecord
100
AcDbLayerTableRecord
  2
S-CALLOUT
 70
0
 62
2
  6
Continuous
370
-3
390
13
347
21
1001
AcAecLayerStandard
1000

1000
Bar-mark balloons and leaders
  0
LAYER
  5
97
330
1
100
AcDbSymbolTableRecord
100
AcDbLayerTableRecord
  2
S-SECTION
 70
0
 62
1
  6
Continuous
370
-3
390
13
347
21
1001
AcAecLayerStandard
1000

1000
Section and detail markers
  0
LAYER
  5
98
330
1
100
AcDbSymbolTableRecord
100
AcDbLayerTableRecord
  2
S-GRID
 70
0
 62
5
  6
Continuous
370
-3
390
13
347
21
1001
AcAecLayerStandard
1000

1000
Grid lines and bubbles
  0
LAYER
  5
99
330
1
100
AcDbSymbolTableRecord
100
AcDbLayerTableRecord
  2
S-CENTER
 70
0
 62
6
  6
Continuous
370
-3
390
13
347
21
1001
AcAecLayerStandard
1000

1000
Centrelines
  0
LAYER
  5
9A
330
1
100
AcDbSymbolTableRecord
100
AcDbLayerTableRecord
  2
S-HATCH
 70
0
 62
8
  6
Continuous
370
-3
390
13
347
21
1001
AcAecLayerStandard
1000

1000
Section hatch
  0
LAYER
  5
9B
330
1
100
AcDbSymbolTableRecord
100
AcDbLayerTableRecord
  2
S-TITLE
 70
0
 62
7
  6
Continuous
370
-3
390
13
347
21
1001
AcAecLayerStandard
1000

1000
Border, title block, view titles
  0
LAYER
  5
9C
330
1
100
AcDbSymbolTableRecord
100
AcDbLayerTableRecord
  2
S-EXISTING
 70
0
 62
8
  6
Continuous
370
-3
390
13
347
21
1001
AcAecLayerStandard
1000

1000
Soil, rock, berm, cover layers
  0
LAYER
  5
9D
330
1
100
AcDbSymbolTableRecord
100
AcDbLayerTableRecord
  2
S-REFERENCE
 70
0
 62
8
  6
Continuous
370
-3
390
13
347
21
1001
AcAecLayerStandard
1000

1000
Reference geometry, extents
  0
LAYER
  5
9E
330
1
100
AcDbSymbolTableRecord
100
AcDbLayerTableRecord
  2
S-WATERPROOF
 70
0
 62
30
  6
Continuous
370
-3
390
13
347
21
1001
AcAecLayerStandard
1000

1000
Membranes, waterstops, GWT
  0
LAYER
  5
9F
330
1
100
AcDbSymbolTableRecord
100
AcDbLayerTableRecord
  2
S-STEELWORK
 70
0
 62
2
  6
Continuous
370
-3
390
13
347
21
1001
AcAecLayerStandard
1000

1000
Cast-in frames, EMP straps, steel items
  0
LAYER
  5
A0
330
1
100
AcDbSymbolTableRecord
100
AcDbLayerTableRecord
  2
S-LEVEL
 70
0
 62
4
  6
Continuous
370
-3
390
13
347
21
1001
AcAecLayerStandard
1000

1000
Level markers
  0
LAYER
  5
A1
330
1
100
AcDbSymbolTableRecord
100
AcDbLayerTableRecord
  2
S-TABLE
 70
0
 62
7
  6
Continuous
370
-3
390
13
347
21
1001
AcAecLayerStandard
1000

1000
Tables and schedules
  0
LAYER
  5
A2
330
1
100
AcDbSymbolTableRecord
100
AcDbLayerTableRecord
  2
S-BLAST
 70
0
 62
1
  6
Continuous
370
-3
390
13
347
21
1001
AcAecLayerStandard
1000

1000
Blast arrows, findings, warnings
  0
ENDTAB
  0
TABLE
  2
STYLE
  5
5
330
0
100
AcDbSymbolTable
 70
26
  0
STYLE
  5
29
330
5
100
AcDbSymbolTableRecord
100
AcDbTextStyleTableRecord
  2
Standard
 70
0
 40
0.0
 41
1.0
 50
0.0
 71
0
 42
2.5
  3
txt
  4

  0
STYLE
  5
41
330
5
100
AcDbSymbolTableRecord
100
AcDbTextStyleTableRecord
  2
OpenSans-Light
 70
0
 40
0.0
 41
1.0
 50
0.0
 71
0
 42
2.5
  3
OpenSans-Light.ttf
  4

  0
STYLE
  5
42
330
5
100
AcDbSymbolTableRecord
100
AcDbTextStyleTableRecord
  2
OpenSans-Light-Italic
 70
0
 40
0.0
 41
1.0
 50
0.0
 71
0
 42
2.5
  3
OpenSans-LightItalic.ttf
  4

  0
STYLE
  5
43
330
5
100
AcDbSymbolTableRecord
100
AcDbTextStyleTableRecord
  2
OpenSans
 70
0
 40
0.0
 41
1.0
 50
0.0
 71
0
 42
2.5
  3
OpenSans-Regular.ttf
  4

  0
STYLE
  5
44
330
5
100
AcDbSymbolTableRecord
100
AcDbTextStyleTableRecord
  2
OpenSans-Italic
 70
0
 40
0.0
 41
1.0
 50
0.0
 71
0
 42
2.5
  3
OpenSans-Italic.ttf
  4

  0
STYLE
  5
45
330
5
100
AcDbSymbolTableRecord
100
AcDbTextStyleTableRecord
  2
OpenSans-SemiBold
 70
0
 40
0.0
 41
1.0
 50
0.0
 71
0
 42
2.5
  3
OpenSans-SemiBold.ttf
  4

  0
STYLE
  5
46
330
5
100
AcDbSymbolTableRecord
100
AcDbTextStyleTableRecord
  2
OpenSans-SemiBoldItalic
 70
0
 40
0.0
 41
1.0
 50
0.0
 71
0
 42
2.5
  3
OpenSans-SemiBoldItalic.ttf
  4

  0
STYLE
  5
47
330
5
100
AcDbSymbolTableRecord
100
AcDbTextStyleTableRecord
  2
OpenSans-Bold
 70
0
 40
0.0
 41
1.0
 50
0.0
 71
0
 42
2.5
  3
OpenSans-Bold.ttf
  4

  0
STYLE
  5
48
330
5
100
AcDbSymbolTableRecord
100
AcDbTextStyleTableRecord
  2
OpenSans-BoldItalic
 70
0
 40
0.0
 41
1.0
 50
0.0
 71
0
 42
2.5
  3
OpenSans-BoldItalic.ttf
  4

  0
STYLE
  5
49
330
5
100
AcDbSymbolTableRecord
100
AcDbTextStyleTableRecord
  2
OpenSans-ExtraBold
 70
0
 40
0.0
 41
1.0
 50
0.0
 71
0
 42
2.5
  3
OpenSans-ExtraBold.ttf
  4

  0
STYLE
  5
4A
330
5
100
AcDbSymbolTableRecord
100
AcDbTextStyleTableRecord
  2
OpenSans-ExtraBoldItalic
 70
0
 40
0.0
 41
1.0
 50
0.0
 71
0
 42
2.5
  3
OpenSans-ExtraBoldItalic.ttf
  4

  0
STYLE
  5
4B
330
5
100
AcDbSymbolTableRecord
100
AcDbTextStyleTableRecord
  2
OpenSansCondensed-Bold
 70
0
 40
0.0
 41
1.0
 50
0.0
 71
0
 42
2.5
  3
OpenSansCondensed-Bold.ttf
  4

  0
STYLE
  5
4C
330
5
100
AcDbSymbolTableRecord
100
AcDbTextStyleTableRecord
  2
OpenSansCondensed-Light
 70
0
 40
0.0
 41
1.0
 50
0.0
 71
0
 42
2.5
  3
OpenSansCondensed-Light.ttf
  4

  0
STYLE
  5
4D
330
5
100
AcDbSymbolTableRecord
100
AcDbTextStyleTableRecord
  2
OpenSansCondensed-Italic
 70
0
 40
0.0
 41
1.0
 50
0.0
 71
0
 42
2.5
  3
OpenSansCondensed-LightItalic.ttf
  4

  0
STYLE
  5
4E
330
5
100
AcDbSymbolTableRecord
100
AcDbTextStyleTableRecord
  2
LiberationSans
 70
0
 40
0.0
 41
1.0
 50
0.0
 71
0
 42
2.5
  3
LiberationSans-Regular.ttf
  4

  0
STYLE
  5
4F
330
5
100
AcDbSymbolTableRecord
100
AcDbTextStyleTableRecord
  2
LiberationSans-Bold
 70
0
 40
0.0
 41
1.0
 50
0.0
 71
0
 42
2.5
  3
LiberationSans-Bold.ttf
  4

  0
STYLE
  5
50
330
5
100
AcDbSymbolTableRecord
100
AcDbTextStyleTableRecord
  2
LiberationSans-BoldItalic
 70
0
 40
0.0
 41
1.0
 50
0.0
 71
0
 42
2.5
  3
LiberationSans-BoldItalic.ttf
  4

  0
STYLE
  5
51
330
5
100
AcDbSymbolTableRecord
100
AcDbTextStyleTableRecord
  2
LiberationSans-Italic
 70
0
 40
0.0
 41
1.0
 50
0.0
 71
0
 42
2.5
  3
LiberationSans-Italic.ttf
  4

  0
STYLE
  5
52
330
5
100
AcDbSymbolTableRecord
100
AcDbTextStyleTableRecord
  2
LiberationSerif
 70
0
 40
0.0
 41
1.0
 50
0.0
 71
0
 42
2.5
  3
LiberationSerif-Regular.ttf
  4

  0
STYLE
  5
53
330
5
100
AcDbSymbolTableRecord
100
AcDbTextStyleTableRecord
  2
LiberationSerif-Bold
 70
0
 40
0.0
 41
1.0
 50
0.0
 71
0
 42
2.5
  3
LiberationSerif-Bold.ttf
  4

  0
STYLE
  5
54
330
5
100
AcDbSymbolTableRecord
100
AcDbTextStyleTableRecord
  2
LiberationSerif-BoldItalic
 70
0
 40
0.0
 41
1.0
 50
0.0
 71
0
 42
2.5
  3
LiberationSerif-BoldItalic.ttf
  4

  0
STYLE
  5
55
330
5
100
AcDbSymbolTableRecord
100
AcDbTextStyleTableRecord
  2
LiberationSerif-Italic
 70
0
 40
0.0
 41
1.0
 50
0.0
 71
0
 42
2.5
  3
LiberationSerif-Italic.ttf
  4

  0
STYLE
  5
56
330
5
100
AcDbSymbolTableRecord
100
AcDbTextStyleTableRecord
  2
LiberationMono
 70
0
 40
0.0
 41
1.0
 50
0.0
 71
0
 42
2.5
  3
LiberationMono-Regular.ttf
  4

  0
STYLE
  5
57
330
5
100
AcDbSymbolTableRecord
100
AcDbTextStyleTableRecord
  2
LiberationMono-Bold
 70
0
 40
0.0
 41
1.0
 50
0.0
 71
0
 42
2.5
  3
LiberationMono-Bold.ttf
  4

  0
STYLE
  5
58
330
5
100
AcDbSymbolTableRecord
100
AcDbTextStyleTableRecord
  2
LiberationMono-BoldItalic
 70
0
 40
0.0
 41
1.0
 50
0.0
 71
0
 42
2.5
  3
LiberationMono-BoldItalic.ttf
  4

  0
STYLE
  5
59
330
5
100
AcDbSymbolTableRecord
100
AcDbTextStyleTableRecord
  2
LiberationMono-Italic
 70
0
 40
0.0
 41
1.0
 50
0.0
 71
0
 42
2.5
  3
LiberationMono-Italic.ttf
  4

  0
ENDTAB
  0
TABLE
  2
VIEW
  5
7
330
0
100
AcDbSymbolTable
 70
0
  0
ENDTAB
  0
TABLE
  2
UCS
  5
6
330
0
100
AcDbSymbolTable
 70
0
  0
ENDTAB
  0
TABLE
  2
APPID
  5
3
330
0
100
AcDbSymbolTable
 70
4
  0
APPID
  5
2A
330
3
100
AcDbSymbolTableRecord
100
AcDbRegAppTableRecord
  2
ACAD
 70
0
  0
APPID
  5
8B
330
3
100
AcDbSymbolTableRecord
100
AcDbRegAppTableRecord
  2
AcAecLayerStandard
 70
0
  0
APPID
  5
242
330
3
100
AcDbSymbolTableRecord
100
AcDbRegAppTableRecord
  2
HATCHBACKGROUNDCOLOR
 70
0
  0
APPID
  5
243
330
3
100
AcDbSymbolTableRecord
100
AcDbRegAppTableRecord
  2
EZDXF
 70
0
  0
ENDTAB
  0
TABLE
  2
DIMSTYLE
  5
4
330
0
100
AcDbSymbolTable
 70
14
100
AcDbDimStyleTable
  0
DIMSTYLE
105
2B
330
4
100
AcDbSymbolTableRecord
100
AcDbDimStyleTableRecord
  2
Standard
 70
0
 40
1.0
 41
2.5
 42
0.625
 43
3.75
 44
1.25
 45
0.0
 46
0.0
 47
0.0
 48
0.0
 49
2.5
140
2.5
141
2.5
142
0.0
143
0.03937007874
144
1.0
145
0.0
146
1.0
147
0.625
148
0.0
 69
0
 70
0
 71
0
 72
0
 73
0
 74
0
 75
0
 76
0
 77
1
 78
8
 79
3
170
0
171
3
172
1
173
0
174
0
175
0
176
0
177
0
178
0
179
2
271
2
272
2
273
2
274
3
275
0
276
0
277
2
278
44
279
0
280
0
281
0
282
0
283
0
284
8
285
0
286
0
288
0
289
3
290
0
371
-2
372
-2
  0
DIMSTYLE
105
73
330
4
100
AcDbSymbolTableRecord
100
AcDbDimStyleTableRecord
  2
EZDXF
 70
0
 40
1.0
 41
0.175
 42
0.125
 43
3.75
 44
0.375
 45
0.0
 46
0.0
 47
0.0
 48
0.0
 49
2.5
140
0.25
141
2.5
142
0.0
143
0.03937007874
144
100.0
145
0.0
146
0.5
147
0.1
148
0.0
 69
0
 70
0
 71
0
 72
0
 73
0
 74
0
 75
0
 76
0
 77
1
 78
12
 79
3
170
0
171
3
172
1
173
0
174
0
175
0
176
0
177
0
178
0
179
2
271
2
272
2
273
2
274
3
275
0
276
0
277
2
278
46
279
2
280
0
281
0
282
0
283
0
284
8
285
0
286
0
288
1
289
3
290
0
340
4C
342
74
371
-2
372
-2
  0
DIMSTYLE
105
7C
330
4
100
AcDbSymbolTableRecord
100
AcDbDimStyleTableRecord
  2
EZ_M_100_H25_CM
 70
0
 40
1.0
 41
0.25
 42
0.125
 43
3.75
 44
0.375
 45
0.0
 46
0.0
 47
0.0
 48
0.0
 49
2.5
140
0.25
141
2.5
142
0.125
143
0.03937007874
144
100.0
145
0.0
146
0.5
147
0.1
148
0.0
 69
0
 70
0
 71
0
 72
0
 73
0
 74
0
 75
0
 76
0
 77
1
 78
12
 79
3
170
0
171
3
172
1
173
0
174
0
175
0
176
0
177
0
178
0
179
2
271
2
272
2
273
2
274
3
275
0
276
0
277
2
278
46
279
2
280
0
281
0
282
0
283
0
284
8
285
0
286
0
288
1
289
3
290
0
340
4C
371
-2
372
-2
  0
DIMSTYLE
105
7D
330
4
100
AcDbSymbolTableRecord
100
AcDbDimStyleTableRecord
  2
EZ_M_50_H25_CM
 70
0
 40
1.0
 41
0.125
 42
0.0625
 43
3.75
 44
0.1875
 45
0.0
 46
0.0
 47
0.0
 48
0.0
 49
2.5
140
0.125
141
2.5
142
0.0625
143
0.03937007874
144
100.0
145
0.0
146
0.5
147
0.05
148
0.0
 69
0
 70
0
 71
0
 72
0
 73
0
 74
0
 75
0
 76
0
 77
1
 78
12
 79
3
170
0
171
3
172
1
173
0
174
0
175
0
176
0
177
0
178
0
179
2
271
2
272
2
273
2
274
3
275
0
276
0
277
2
278
46
279
2
280
0
281
0
282
0
283
0
284
8
285
0
286
0
288
1
289
3
290
0
340
4C
371
-2
372
-2
  0
DIMSTYLE
105
7E
330
4
100
AcDbSymbolTableRecord
100
AcDbDimStyleTableRecord
  2
EZ_M_25_H25_CM
 70
0
 40
1.0
 41
0.0625
 42
0.03125
 43
3.75
 44
0.09375
 45
0.0
 46
0.0
 47
0.0
 48
0.0
 49
2.5
140
0.0625
141
2.5
142
0.03125
143
0.03937007874
144
100.0
145
0.0
146
0.5
147
0.025
148
0.0
 69
0
 70
0
 71
0
 72
0
 73
0
 74
0
 75
0
 76
0
 77
1
 78
12
 79
3
170
0
171
3
172
1
173
0
174
0
175
0
176
0
177
0
178
0
179
2
271
2
272
2
273
2
274
3
275
0
276
0
277
2
278
46
279
2
280
0
281
0
282
0
283
0
284
8
285
0
286
0
288
1
289
3
290
0
340
4C
371
-2
372
-2
  0
DIMSTYLE
105
7F
330
4
100
AcDbSymbolTableRecord
100
AcDbDimStyleTableRecord
  2
EZ_M_20_H25_CM
 70
0
 40
1.0
 41
0.05
 42
0.025
 43
3.75
 44
0.07500000000000001
 45
0.0
 46
0.0
 47
0.0
 48
0.0
 49
2.5
140
0.05
141
2.5
142
0.025
143
0.03937007874
144
100.0
145
0.0
146
0.5
147
0.020000000000000004
148
0.0
 69
0
 70
0
 71
0
 72
0
 73
0
 74
0
 75
0
 76
0
 77
1
 78
12
 79
3
170
0
171
3
172
1
173
0
174
0
175
0
176
0
177
0
178
0
179
2
271
2
272
2
273
2
274
3
275
0
276
0
277
2
278
46
279
2
280
0
281
0
282
0
283
0
284
8
285
0
286
0
288
1
289
3
290
0
340
4C
371
-2
372
-2
  0
DIMSTYLE
105
80
330
4
100
AcDbSymbolTableRecord
100
AcDbDimStyleTableRecord
  2
EZ_M_10_H25_CM
 70
0
 40
1.0
 41
0.025
 42
0.0125
 43
3.75
 44
0.037500000000000006
 45
0.0
 46
0.0
 47
0.0
 48
0.0
 49
2.5
140
0.025
141
2.5
142
0.0125
143
0.03937007874
144
100.0
145
0.0
146
0.5
147
0.010000000000000002
148
0.0
 69
0
 70
0
 71
0
 72
0
 73
0
 74
0
 75
0
 76
0
 77
1
 78
12
 79
3
170
0
171
3
172
1
173
0
174
0
175
0
176
0
177
0
178
0
179
2
271
2
272
2
273
2
274
3
275
0
276
0
277
2
278
46
279
2
280
0
281
0
282
0
283
0
284
8
285
0
286
0
288
1
289
3
290
0
340
4C
371
-2
372
-2
  0
DIMSTYLE
105
81
330
4
100
AcDbSymbolTableRecord
100
AcDbDimStyleTableRecord
  2
EZ_M_5_H25_CM
 70
0
 40
1.0
 41
0.0125
 42
0.00625
 43
3.75
 44
0.018750000000000003
 45
0.0
 46
0.0
 47
0.0
 48
0.0
 49
2.5
140
0.0125
141
2.5
142
0.00625
143
0.03937007874
144
100.0
145
0.0
146
0.5
147
0.005000000000000001
148
0.0
 69
0
 70
0
 71
0
 72
0
 73
0
 74
0
 75
0
 76
0
 77
1
 78
12
 79
3
170
0
171
3
172
1
173
0
174
0
175
0
176
0
177
0
178
0
179
2
271
2
272
2
273
2
274
3
275
0
276
0
277
2
278
46
279
2
280
0
281
0
282
0
283
0
284
8
285
0
286
0
288
1
289
3
290
0
340
4C
371
-2
372
-2
  0
DIMSTYLE
105
82
330
4
100
AcDbSymbolTableRecord
100
AcDbDimStyleTableRecord
  2
EZ_M_1_H25_CM
 70
0
 40
1.0
 41
0.0025
 42
0.00125
 43
3.75
 44
0.00375
 45
0.0
 46
0.0
 47
0.0
 48
0.0
 49
2.5
140
0.0025
141
2.5
142
0.00125
143
0.03937007874
144
100.0
145
0.0
146
0.5
147
0.001
148
0.0
 69
0
 70
0
 71
0
 72
0
 73
0
 74
0
 75
0
 76
0
 77
1
 78
12
 79
3
170
0
171
3
172
1
173
0
174
0
175
0
176
0
177
0
178
0
179
2
271
2
272
2
273
2
274
3
275
0
276
0
277
2
278
46
279
2
280
0
281
0
282
0
283
0
284
8
285
0
286
0
288
1
289
3
290
0
340
4C
371
-2
372
-2
  0
DIMSTYLE
105
83
330
4
100
AcDbSymbolTableRecord
100
AcDbDimStyleTableRecord
  2
EZ_RADIUS
 70
0
 40
1.0
 41
0.25
 42
0.125
 43
3.75
 44
0.375
 45
0.0
 46
0.0
 47
0.0
 48
0.0
 49
2.5
140
0.25
141
0.0
142
0.0
143
0.03937007874
144
100.0
145
0.0
146
0.5
147
0.1
148
0.0
 69
0
 70
0
 71
0
 72
0
 73
0
 74
0
 75
0
 76
0
 77
1
 78
12
 79
3
170
0
171
3
172
0
173
0
174
0
175
0
176
0
177
0
178
0
179
2
271
2
272
2
273
2
274
3
275
0
276
0
277
2
278
46
279
1
280
0
281
0
282
0
283
0
284
8
285
0
286
0
288
1
289
3
290
0
340
4C
342
84
371
-2
372
-2
  0
DIMSTYLE
105
88
330
4
100
AcDbSymbolTableRecord
100
AcDbDimStyleTableRecord
  2
EZ_RADIUS_INSIDE
 70
0
 40
1.0
 41
0.25
 42
0.125
 43
3.75
 44
0.375
 45
0.0
 46
0.0
 47
0.0
 48
0.0
 49
2.5
140
0.25
141
0.0
142
0.0
143
0.03937007874
144
100.0
145
0.0
146
0.5
147
0.1
148
0.0
 69
0
 70
0
 71
0
 72
0
 73
0
 74
0
 75
0
 76
0
 77
0
 78
12
 79
3
170
0
171
3
172
0
173
0
174
1
175
0
176
0
177
0
178
0
179
2
271
2
272
2
273
2
274
3
275
0
276
0
277
2
278
46
279
0
280
0
281
0
282
0
283
0
284
8
285
0
286
0
288
1
289
0
290
0
340
4C
342
84
371
-2
372
-2
  0
DIMSTYLE
105
89
330
4
100
AcDbSymbolTableRecord
100
AcDbDimStyleTableRecord
  2
EZ_CURVED
 70
0
 40
1.0
 41
0.25
 42
0.125
 43
3.75
 44
0.375
 45
0.0
 46
0.0
 47
0.0
 48
0.0
 49
2.5
140
0.25
141
2.5
142
0.0
143
0.03937007874
144
100.0
145
0.0
146
0.5
147
0.1
148
0.0
 69
0
 70
0
 71
0
 72
0
 73
0
 74
0
 75
0
 76
0
 77
1
 78
12
 79
2
 90
2
170
0
171
3
172
1
173
0
174
0
175
0
176
0
177
0
178
0
179
2
271
2
272
2
273
2
274
3
275
0
276
0
277
2
278
46
279
2
280
0
281
0
282
0
283
0
284
8
285
0
286
0
288
1
289
3
290
0
340
4C
371
-2
372
-2
  0
DIMSTYLE
105
A3
330
4
100
AcDbSymbolTableRecord
100
AcDbDimStyleTableRecord
  2
SC-DIM
 70
0
 40
1.0
 41
1.6
 42
1.0
 43
3.75
 44
1.2
 45
0.0
 46
0.0
 47
0.0
 48
0.0
 49
2.5
140
1.8
141
2.5
142
0.0
143
0.03937007874
144
1.0
145
0.0
146
1.0
147
0.8
148
0.0
 69
0
 70
0
 71
0
 72
0
 73
0
 74
0
 75
0
 76
0
 77
1
 78
8
 79
3
170
0
171
3
172
1
173
0
174
0
175
0
176
4
177
4
178
4
179
2
271
0
272
2
273
2
274
3
275
0
276
0
277
2
278
44
279
0
280
0
281
0
282
0
283
0
284
8
285
0
286
0
288
0
289
3
290
0
342
74
371
13
372
13
  0
DIMSTYLE
105
A4
330
4
100
AcDbSymbolTableRecord
100
AcDbDimStyleTableRecord
  2
SC-DIM-S
 70
0
 40
1.0
 41
1.2
 42
1.0
 43
3.75
 44
1.2
 45
0.0
 46
0.0
 47
0.0
 48
0.0
 49
2.5
140
1.4
141
2.5
142
0.0
143
0.03937007874
144
1.0
145
0.0
146
1.0
147
0.8
148
0.0
 69
0
 70
0
 71
0
 72
0
 73
0
 74
0
 75
0
 76
0
 77
1
 78
8
 79
3
170
0
171
3
172
1
173
0
174
0
175
0
176
4
177
4
178
4
179
2
271
0
272
2
273
2
274
3
275
0
276
0
277
2
278
44
279
0
280
0
281
0
282
0
283
0
284
8
285
0
286
0
288
0
289
3
290
0
342
74
371
13
372
13
  0
ENDTAB
  0
TABLE
  2
BLOCK_RECORD
  5
9
330
0
100
AcDbSymbolTable
 70
13
  0
BLOCK_RECORD
  5
17
330
9
100
AcDbSymbolTableRecord
100
AcDbBlockTableRecord
  2
*Model_Space
340
1A
 70
0
280
1
281
0
  0
BLOCK_RECORD
  5
1B
330
9
100
AcDbSymbolTableRecord
100
AcDbBlockTableRecord
  2
*Paper_Space
340
1E
 70
0
280
1
281
0
  0
BLOCK_RECORD
  5
74
330
9
100
AcDbSymbolTableRecord
100
AcDbBlockTableRecord
  2
_ARCHTICK
340
0
 70
0
280
1
281
0
  0
BLOCK_RECORD
  5
78
330
9
100
AcDbSymbolTableRecord
100
AcDbBlockTableRecord
  2
_CLOSEDFILLED
340
0
 70
0
280
1
281
0
  0
BLOCK_RECORD
  5
84
330
9
100
AcDbSymbolTableRecord
100
AcDbBlockTableRecord
  2
_CLOSEDBLANK
340
0
 70
0
280
1
281
0
  0
BLOCK_RECORD
  5
A5
330
9
100
AcDbSymbolTableRecord
100
AcDbBlockTableRecord
  2
BARMARK
340
0
 70
0
280
1
281
0
  0
BLOCK_RECORD
  5
A9
330
9
100
AcDbSymbolTableRecord
100
AcDbBlockTableRecord
  2
SECMARK
340
0
 70
0
280
1
281
0
  0
BLOCK_RECORD
  5
AE
330
9
100
AcDbSymbolTableRecord
100
AcDbBlockTableRecord
  2
LEVELMK
340
0
 70
0
280
1
281
0
  0
BLOCK_RECORD
  5
B2
330
9
100
AcDbSymbolTableRecord
100
AcDbBlockTableRecord
  2
NORTH
340
0
 70
0
280
1
281
0
  0
BLOCK_RECORD
  5
19D
330
9
100
AcDbSymbolTableRecord
100
AcDbBlockTableRecord
  2
*D1
340
0
 70
0
280
1
281
0
  0
BLOCK_RECORD
  5
1AC
330
9
100
AcDbSymbolTableRecord
100
AcDbBlockTableRecord
  2
*D2
340
0
 70
0
280
1
281
0
  0
BLOCK_RECORD
  5
1BB
330
9
100
AcDbSymbolTableRecord
100
AcDbBlockTableRecord
  2
*D3
340
0
 70
0
280
1
281
0
  0
BLOCK_RECORD
  5
1CA
330
9
100
AcDbSymbolTableRecord
100
AcDbBlockTableRecord
  2
*D4
340
0
 70
0
280
1
281
0
  0
ENDTAB
  0
ENDSEC
  0
SECTION
  2
BLOCKS
  0
BLOCK
  5
18
330
17
100
AcDbEntity
  8
0
100
AcDbBlockBegin
  2
*Model_Space
 70
0
 10
0.0
 20
0.0
 30
0.0
  3
*Model_Space
  1

  0
ENDBLK
  5
19
330
17
100
AcDbEntity
  8
0
100
AcDbBlockEnd
  0
BLOCK
  5
1C
330
1B
100
AcDbEntity
  8
0
100
AcDbBlockBegin
  2
*Paper_Space
 70
0
 10
0.0
 20
0.0
 30
0.0
  3
*Paper_Space
  1

  0
ENDBLK
  5
1D
330
1B
100
AcDbEntity
  8
0
100
AcDbBlockEnd
  0
BLOCK
  5
75
330
74
100
AcDbEntity
  8
0
100
AcDbBlockBegin
  2
_ARCHTICK
 70
0
 10
0.0
 20
0.0
 30
0.0
  3
_ARCHTICK
  1

  0
LWPOLYLINE
  5
77
330
74
100
AcDbEntity
  8
0
  6
BYBLOCK
 62
0
100
AcDbPolyline
 90
2
 70
0
 43
0.15
 10
-0.5
 20
-0.5
 10
0.5
 20
0.5
  0
ENDBLK
  5
76
330
74
100
AcDbEntity
  8
0
100
AcDbBlockEnd
  0
BLOCK
  5
79
330
78
100
AcDbEntity
  8
0
100
AcDbBlockBegin
  2
_CLOSEDFILLED
 70
0
 10
0.0
 20
0.0
 30
0.0
  3
_CLOSEDFILLED
  1

  0
SOLID
  5
7B
330
78
100
AcDbEntity
  8
0
  6
BYBLOCK
 62
0
100
AcDbTrace
 10
-1.0
 20
0.16439898372402537
 30
0.0
 11
0.0
 21
0.0
 31
0.0
 12
-1.0
 22
-0.16439898372402537
 32
0.0
 13
-1.0
 23
-0.16439898372402537
 33
0.0
  0
ENDBLK
  5
7A
330
78
100
AcDbEntity
  8
0
100
AcDbBlockEnd
  0
BLOCK
  5
85
330
84
100
AcDbEntity
  8
0
100
AcDbBlockBegin
  2
_CLOSEDBLANK
 70
0
 10
0.0
 20
0.0
 30
0.0
  3
_CLOSEDBLANK
  1

  0
LWPOLYLINE
  5
87
330
84
100
AcDbEntity
  8
0
  6
BYBLOCK
 62
0
100
AcDbPolyline
 90
3
 70
1
 10
-1.0
 20
0.16439898372402537
 10
0.0
 20
0.0
 10
-1.0
 20
-0.16439898372402537
  0
ENDBLK
  5
86
330
84
100
AcDbEntity
  8
0
100
AcDbBlockEnd
  0
BLOCK
  5
A6
330
A5
100
AcDbEntity
  8
0
100
AcDbBlockBegin
  2
BARMARK
 70
0
 10
0.0
 20
0.0
 30
0.0
  3
BARMARK
  1

  0
CIRCLE
  5
A8
330
A5
100
AcDbEntity
  8
S-CALLOUT
100
AcDbCircle
 10
0.0
 20
0.0
 30
0.0
 40
3.2
  0
ENDBLK
  5
A7
330
A5
100
AcDbEntity
  8
0
100
AcDbBlockEnd
  0
BLOCK
  5
AA
330
A9
100
AcDbEntity
  8
0
100
AcDbBlockBegin
  2
SECMARK
 70
0
 10
0.0
 20
0.0
 30
0.0
  3
SECMARK
  1

  0
CIRCLE
  5
AC
330
A9
100
AcDbEntity
  8
S-SECTION
100
AcDbCircle
 10
0.0
 20
0.0
 30
0.0
 40
4.0
  0
LINE
  5
AD
330
A9
100
AcDbEntity
  8
S-SECTION
100
AcDbLine
 10
-4.0
 20
0.0
 30
0.0
 11
4.0
 21
0.0
 31
0.0
  0
ENDBLK
  5
AB
330
A9
100
AcDbEntity
  8
0
100
AcDbBlockEnd
  0
BLOCK
  5
AF
330
AE
100
AcDbEntity
  8
0
100
AcDbBlockBegin
  2
LEVELMK
 70
0
 10
0.0
 20
0.0
 30
0.0
  3
LEVELMK
  1

  0
LWPOLYLINE
  5
B1
330
AE
100
AcDbEntity
  8
S-LEVEL
100
AcDbPolyline
 90
4
 70
1
 10
0.0
 20
0.0
 10
-2.0
 20
3.0
 10
2.0
 20
3.0
 10
0.0
 20
0.0
  0
ENDBLK
  5
B0
330
AE
100
AcDbEntity
  8
0
100
AcDbBlockEnd
  0
BLOCK
  5
B3
330
B2
100
AcDbEntity
  8
0
100
AcDbBlockBegin
  2
NORTH
 70
0
 10
0.0
 20
0.0
 30
0.0
  3
NORTH
  1

  0
LWPOLYLINE
  5
B5
330
B2
100
AcDbEntity
  8
S-TITLE
100
AcDbPolyline
 90
5
 70
1
 10
0.0
 20
10.0
 10
-3.2
 20
-6.0
 10
0.0
 20
-2.4
 10
3.2
 20
-6.0
 10
0.0
 20
10.0
  0
CIRCLE
  5
B6
330
B2
100
AcDbEntity
  8
S-TITLE
100
AcDbCircle
 10
0.0
 20
0.0
 30
0.0
 40
12.0
  0
ENDBLK
  5
B4
330
B2
100
AcDbEntity
  8
0
100
AcDbBlockEnd
  0
BLOCK
  5
19E
330
19D
100
AcDbEntity
  8
0
100
AcDbBlockBegin
  2
*D1
 70
1
 10
0.0
 20
0.0
 30
0.0
  3
*D1
  1

  0
LINE
  5
1A0
330
19D
100
AcDbEntity
  8
0
 62
4
370
13
100
AcDbLine
 10
75.0
 20
339.0
 30
0.0
 11
75.0
 21
288.8
 31
0.0
  0
LINE
  5
1A1
330
19D
100
AcDbEntity
  8
0
 62
4
370
13
100
AcDbLine
 10
200.0
 20
339.0
 30
0.0
 11
200.0
 21
288.8
 31
0.0
  0
INSERT
  5
1A2
330
19D
100
AcDbEntity
  8
S-DIM
 62
4
100
AcDbBlockReference
  2
_ARCHTICK
 10
75.0
 20
290.0
 30
0.0
 41
1.6
 42
1.6
 50
180.0
  0
INSERT
  5
1A4
330
19D
100
AcDbEntity
  8
S-DIM
 62
4
100
AcDbBlockReference
  2
_ARCHTICK
 10
200.0
 20
290.0
 30
0.0
 41
1.6
 42
1.6
  0
LINE
  5
1A6
330
19D
100
AcDbEntity
  8
0
 62
4
370
13
100
AcDbLine
 10
75.0
 20
290.0
 30
0.0
 11
200.0
 21
290.0
 31
0.0
  0
MTEXT
  5
1A7
330
19D
100
AcDbEntity
  8
S-DIM
 62
4
100
AcDbMText
 10
137.5
 20
291.7
 30
0.0
 40
1.8
 71
5
  1
5000
  7
OpenSansCondensed-Light
  0
POINT
  5
1A8
330
19D
100
AcDbEntity
  8
Defpoints
100
AcDbPoint
 10
75.0
 20
290.0
 30
0.0
  0
POINT
  5
1A9
330
19D
100
AcDbEntity
  8
Defpoints
100
AcDbPoint
 10
75.0
 20
340.0
 30
0.0
  0
POINT
  5
1AA
330
19D
100
AcDbEntity
  8
Defpoints
100
AcDbPoint
 10
200.0
 20
340.0
 30
0.0
  0
ENDBLK
  5
19F
330
19D
100
AcDbEntity
  8
0
100
AcDbBlockEnd
  0
BLOCK
  5
1AD
330
1AC
100
AcDbEntity
  8
0
100
AcDbBlockBegin
  2
*D2
 70
1
 10
0.0
 20
0.0
 30
0.0
  3
*D2
  1

  0
LINE
  5
1AF
330
1AC
100
AcDbEntity
  8
0
 62
4
370
13
100
AcDbLine
 10
60.0
 20
339.0
 30
0.0
 11
60.0
 21
273.8
 31
0.0
  0
LINE
  5
1B0
330
1AC
100
AcDbEntity
  8
0
 62
4
370
13
100
AcDbLine
 10
215.0
 20
339.0
 30
0.0
 11
215.0
 21
273.8
 31
0.0
  0
INSERT
  5
1B1
330
1AC
100
AcDbEntity
  8
S-DIM
 62
4
100
AcDbBlockReference
  2
_ARCHTICK
 10
60.0
 20
275.0
 30
0.0
 41
1.6
 42
1.6
 50
180.0
  0
INSERT
  5
1B3
330
1AC
100
AcDbEntity
  8
S-DIM
 62
4
100
AcDbBlockReference
  2
_ARCHTICK
 10
215.0
 20
275.0
 30
0.0
 41
1.6
 42
1.6
  0
LINE
  5
1B5
330
1AC
100
AcDbEntity
  8
0
 62
4
370
13
100
AcDbLine
 10
60.0
 20
275.0
 30
0.0
 11
215.0
 21
275.0
 31
0.0
  0
MTEXT
  5
1B6
330
1AC
100
AcDbEntity
  8
S-DIM
 62
4
100
AcDbMText
 10
137.5
 20
276.7
 30
0.0
 40
1.8
 71
5
  1
6200
  7
OpenSansCondensed-Light
  0
POINT
  5
1B7
330
1AC
100
AcDbEntity
  8
Defpoints
100
AcDbPoint
 10
60.0
 20
275.0
 30
0.0
  0
POINT
  5
1B8
330
1AC
100
AcDbEntity
  8
Defpoints
100
AcDbPoint
 10
60.0
 20
340.0
 30
0.0
  0
POINT
  5
1B9
330
1AC
100
AcDbEntity
  8
Defpoints
100
AcDbPoint
 10
215.0
 20
340.0
 30
0.0
  0
ENDBLK
  5
1AE
330
1AC
100
AcDbEntity
  8
0
100
AcDbBlockEnd
  0
BLOCK
  5
1BC
330
1BB
100
AcDbEntity
  8
0
100
AcDbBlockBegin
  2
*D3
 70
1
 10
0.0
 20
0.0
 30
0.0
  3
*D3
  1

  0
LINE
  5
1BE
330
1BB
100
AcDbEntity
  8
0
 62
4
370
13
100
AcDbLine
 10
216.0
 20
340.0
 30
0.0
 11
251.2
 21
340.0
 31
0.0
  0
LINE
  5
1BF
330
1BB
100
AcDbEntity
  8
0
 62
4
370
13
100
AcDbLine
 10
216.0
 20
362.5
 30
0.0
 11
251.2
 21
362.5
 31
0.0
  0
INSERT
  5
1C0
330
1BB
100
AcDbEntity
  8
S-DIM
 62
4
100
AcDbBlockReference
  2
_ARCHTICK
 10
250.0
 20
340.0
 30
0.0
 41
1.6
 42
1.6
 50
270.0
  0
INSERT
  5
1C2
330
1BB
100
AcDbEntity
  8
S-DIM
 62
4
100
AcDbBlockReference
  2
_ARCHTICK
 10
250.0
 20
362.5
 30
0.0
 41
1.6
 42
1.6
 50
90.0
  0
LINE
  5
1C4
330
1BB
100
AcDbEntity
  8
0
 62
4
370
13
100
AcDbLine
 10
250.0
 20
340.0
 30
0.0
 11
250.0
 21
362.5
 31
0.0
  0
MTEXT
  5
1C5
330
1BB
100
AcDbEntity
  8
S-DIM
 62
4
100
AcDbMText
 10
248.3
 20
351.25
 30
0.0
 40
1.8
 71
5
  1
900
  7
OpenSansCondensed-Light
 50
90.0
  0
POINT
  5
1C6
330
1BB
100
AcDbEntity
  8
Defpoints
100
AcDbPoint
 10
250.0
 20
340.0
 30
0.0
  0
POINT
  5
1C7
330
1BB
100
AcDbEntity
  8
Defpoints
100
AcDbPoint
 10
215.0
 20
340.0
 30
0.0
  0
POINT
  5
1C8
330
1BB
100
AcDbEntity
  8
Defpoints
100
AcDbPoint
 10
215.0
 20
362.5
 30
0.0
  0
ENDBLK
  5
1BD
330
1BB
100
AcDbEntity
  8
0
100
AcDbBlockEnd
  0
BLOCK
  5
1CB
330
1CA
100
AcDbEntity
  8
0
100
AcDbBlockBegin
  2
*D4
 70
1
 10
0.0
 20
0.0
 30
0.0
  3
*D4
  1

  0
LINE
  5
1CD
330
1CA
100
AcDbEntity
  8
0
 62
4
370
13
100
AcDbLine
 10
75.0
 20
363.5
 30
0.0
 11
75.0
 21
418.7
 31
0.0
  0
LINE
  5
1CE
330
1CA
100
AcDbEntity
  8
0
 62
4
370
13
100
AcDbLine
 10
112.5
 20
363.5
 30
0.0
 11
112.5
 21
418.7
 31
0.0
  0
INSERT
  5
1CF
330
1CA
100
AcDbEntity
  8
S-DIM
 62
4
100
AcDbBlockReference
  2
_ARCHTICK
 10
75.0
 20
417.5
 30
0.0
 41
1.6
 42
1.6
 50
180.0
  0
INSERT
  5
1D1
330
1CA
100
AcDbEntity
  8
S-DIM
 62
4
100
AcDbBlockReference
  2
_ARCHTICK
 10
112.5
 20
417.5
 30
0.0
 41
1.6
 42
1.6
  0
LINE
  5
1D3
330
1CA
100
AcDbEntity
  8
0
 62
4
370
13
100
AcDbLine
 10
75.0
 20
417.5
 30
0.0
 11
112.5
 21
417.5
 31
0.0
  0
MTEXT
  5
1D4
330
1CA
100
AcDbEntity
  8
S-DIM
 62
4
100
AcDbMText
 10
93.75
 20
419.2
 30
0.0
 40
1.8
 71
5
  1
1500
  7
OpenSansCondensed-Light
  0
POINT
  5
1D5
330
1CA
100
AcDbEntity
  8
Defpoints
100
AcDbPoint
 10
75.0
 20
417.5
 30
0.0
  0
POINT
  5
1D6
330
1CA
100
AcDbEntity
  8
Defpoints
100
AcDbPoint
 10
75.0
 20
362.5
 30
0.0
  0
POINT
  5
1D7
330
1CA
100
AcDbEntity
  8
Defpoints
100
AcDbPoint
 10
112.5
 20
362.5
 30
0.0
  0
ENDBLK
  5
1CC
330
1CA
100
AcDbEntity
  8
0
100
AcDbBlockEnd
  0
ENDSEC
  0
SECTION
  2
ENTITIES
  0
LWPOLYLINE
  5
B7
330
17
100
AcDbEntity
  8
S-TITLE
100
AcDbPolyline
 90
4
 70
1
 10
0.0
 20
0.0
 10
841.0
 20
0.0
 10
841.0
 20
594.0
 10
0.0
 20
594.0
  0
LWPOLYLINE
  5
B8
330
17
100
AcDbEntity
  8
S-TITLE
100
AcDbPolyline
 90
4
 70
1
 10
10.0
 20
10.0
 10
831.0
 20
10.0
 10
831.0
 20
584.0
 10
10.0
 20
584.0
  0
TEXT
  5
B9
330
17
100
AcDbEntity
  8
S-TITLE
100
AcDbText
 10
12.0
 20
576.5
 30
0.0
 40
5.0
  1
STRUCTURAL CAD - REINFORCEMENT PACKAGE
  7
OpenSans
 11
12.0
 21
576.5
 31
0.0
100
AcDbText
  0
TEXT
  5
BA
330
17
100
AcDbEntity
  8
S-TITLE
100
AcDbText
 10
12.0
 20
569.5
 30
0.0
 40
2.4
  1
R-302   ROOF SECTIONS
  7
OpenSans
 11
12.0
 21
569.5
 31
0.0
100
AcDbText
  0
LINE
  5
BB
330
17
100
AcDbEntity
  8
S-TITLE
100
AcDbLine
 10
10.0
 20
566.5
 30
0.0
 11
831.0
 21
566.5
 31
0.0
  0
TEXT
  5
BC
330
17
100
AcDbEntity
  8
S-BLAST
100
AcDbText
 10
829.0
 20
577.0
 30
0.0
 40
2.0
  1
SENTRY POST EXCLUDED FROM THIS PACKAGE
  7
OpenSans
 72
2
 11
829.0
 21
577.0
 31
0.0
100
AcDbText
  0
TEXT
  5
BD
330
17
100
AcDbEntity
  8
S-BLAST
100
AcDbText
 10
829.0
 20
570.5
 30
0.0
 40
1.4
  1
ALL DESIGN ACTIONS ARE MANUAL CALCULATION - NOT DIRECT STAAD OUTPUT
  7
OpenSans
 72
2
 11
829.0
 21
570.5
 31
0.0
100
AcDbText
  0
TEXT
  5
BE
330
17
100
AcDbEntity
  8
S-BLAST
100
AcDbText
 10
12.0
 20
561.5
 30
0.0
 40
1.4
  1
OPEN ITEMS ON THIS SHEET:  C17 COVER LOAD
  7
OpenSans
 11
12.0
 21
561.5
 31
0.0
100
AcDbText
  0
LWPOLYLINE
  5
BF
330
17
100
AcDbEntity
  8
S-CONCRETE
100
AcDbPolyline
 90
4
 70
1
 10
60.0
 20
340.0
 10
75.0
 20
340.0
 10
75.0
 20
362.5
 10
60.0
 20
362.5
  0
LWPOLYLINE
  5
C0
330
17
100
AcDbEntity
  8
S-CONCRETE
100
AcDbPolyline
 90
4
 70
1
 10
200.0
 20
340.0
 10
215.0
 20
340.0
 10
215.0
 20
362.5
 10
200.0
 20
362.5
  0
LWPOLYLINE
  5
C1
330
17
100
AcDbEntity
  8
S-CONCRETE
100
AcDbPolyline
 90
4
 70
1
 10
60.0
 20
340.0
 10
215.0
 20
340.0
 10
215.0
 20
362.5
 10
60.0
 20
362.5
  0
HATCH
  5
C2
330
17
100
AcDbEntity
  8
S-HATCH
 62
7
100
AcDbHatch
 10
0.0
 20
0.0
 30
0.0
210
0.0
220
0.0
230
1.0
  2
ANSI31
 70
0
 71
0
 91
1
 92
3
 72
0
 73
1
 93
4
 10
60.0
 20
340.0
 10
215.0
 20
340.0
 10
215.0
 20
362.5
 10
60.0
 20
362.5
 97
0
 75
1
 76
1
 52
0.0
 41
1.6
 77
0
 78
1
 53
45.0
 43
0.0
 44
0.0
 45
-3.5921024485
 46
3.5921024485
 79
0
 98
0
  0
LWPOLYLINE
  5
C3
330
17
100
AcDbEntity
  8
S-CONCRETE
100
AcDbPolyline
 90
4
 70
1
 10
60.0
 20
305.0
 10
75.0
 20
305.0
 10
75.0
 20
340.0
 10
60.0
 20
340.0
  0
LWPOLYLINE
  5
C4
330
17
100
AcDbEntity
  8
S-CONCRETE
100
AcDbPolyline
 90
4
 70
1
 10
200.0
 20
305.0
 10
215.0
 20
305.0
 10
215.0
 20
340.0
 10
200.0
 20
340.0
  0
HATCH
  5
C5
330
17
100
AcDbEntity
  8
S-HATCH
 62
7
100
AcDbHatch
 10
0.0
 20
0.0
 30
0.0
210
0.0
220
0.0
230
1.0
  2
ANSI31
 70
0
 71
0
 91
1
 92
3
 72
0
 73
1
 93
4
 10
60.0
 20
305.0
 10
75.0
 20
305.0
 10
75.0
 20
340.0
 10
60.0
 20
340.0
 97
0
 75
1
 76
1
 52
0.0
 41
1.6
 77
0
 78
1
 53
45.0
 43
0.0
 44
0.0
 45
-3.5921024485
 46
3.5921024485
 79
0
 98
0
  0
HATCH
  5
C6
330
17
100
AcDbEntity
  8
S-HATCH
 62
7
100
AcDbHatch
 10
0.0
 20
0.0
 30
0.0
210
0.0
220
0.0
230
1.0
  2
ANSI31
 70
0
 71
0
 91
1
 92
3
 72
0
 73
1
 93
4
 10
200.0
 20
305.0
 10
215.0
 20
305.0
 10
215.0
 20
340.0
 10
200.0
 20
340.0
 97
0
 75
1
 76
1
 52
0.0
 41
1.6
 77
0
 78
1
 53
45.0
 43
0.0
 44
0.0
 45
-3.5921024485
 46
3.5921024485
 79
0
 98
0
  0
LWPOLYLINE
  5
C7
330
17
100
AcDbEntity
  8
S-CONCRETE
100
AcDbPolyline
 90
3
 70
0
 10
75.0
 20
340.0
 10
87.5
 20
340.0
 10
75.0
 20
327.5
  0
LWPOLYLINE
  5
C8
330
17
100
AcDbEntity
  8
S-CONCRETE
100
AcDbPolyline
 90
3
 70
0
 10
200.0
 20
340.0
 10
187.5
 20
340.0
 10
200.0
 20
327.5
  0
LINE
  5
C9
330
17
100
AcDbEntity
  8
S-EXISTING
100
AcDbLine
 10
40.0
 20
365.0
 30
0.0
 11
235.0
 21
365.0
 31
0.0
  0
TEXT
  5
CA
330
17
100
AcDbEntity
  8
S-EXISTING
100
AcDbText
 10
237.5
 20
362.75
 30
0.0
 40
1.4
  1
PROTECTION SCREED 100
  7
OpenSans
 11
237.5
 21
362.75
 31
0.0
100
AcDbText
  0
LINE
  5
CB
330
17
100
AcDbEntity
  8
S-EXISTING
100
AcDbLine
 10
40.0
 20
383.75
 30
0.0
 11
235.0
 21
383.75
 31
0.0
  0
TEXT
  5
CC
330
17
100
AcDbEntity
  8
S-EXISTING
100
AcDbText
 10
237.5
 20
373.375
 30
0.0
 40
1.4
  1
COMPACTED FILL 750
  7
OpenSans
 11
237.5
 21
373.375
 31
0.0
100
AcDbText
  0
LINE
  5
CD
330
17
100
AcDbEntity
  8
S-EXISTING
100
AcDbLine
 10
40.0
 20
396.25
 30
0.0
 11
235.0
 21
396.25
 31
0.0
  0
TEXT
  5
CE
330
17
100
AcDbEntity
  8
S-EXISTING
100
AcDbText
 10
237.5
 20
389.0
 30
0.0
 40
1.4
  1
CRUSHED BASALT 500
  7
OpenSans
 11
237.5
 21
389.0
 31
0.0
100
AcDbText
  0
LINE
  5
CF
330
17
100
AcDbEntity
  8
S-EXISTING
100
AcDbLine
 10
40.0
 20
401.25
 30
0.0
 11
235.0
 21
401.25
 31
0.0
  0
TEXT
  5
D0
330
17
100
AcDbEntity
  8
S-EXISTING
100
AcDbText
 10
237.5
 20
397.75
 30
0.0
 40
1.4
  1
BURSTER SLAB M30 200
  7
OpenSans
 11
237.5
 21
397.75
 31
0.0
100
AcDbText
  0
LINE
  5
D1
330
17
100
AcDbEntity
  8
S-EXISTING
100
AcDbLine
 10
40.0
 20
405.0
 30
0.0
 11
235.0
 21
405.0
 31
0.0
  0
TEXT
  5
D2
330
17
100
AcDbEntity
  8
S-EXISTING
100
AcDbText
 10
237.5
 20
402.125
 30
0.0
 40
1.4
  1
GRANULAR FILTER 150
  7
OpenSans
 11
237.5
 21
402.125
 31
0.0
100
AcDbText
  0
LINE
  5
D3
330
17
100
AcDbEntity
  8
S-EXISTING
100
AcDbLine
 10
40.0
 20
412.5
 30
0.0
 11
235.0
 21
412.5
 31
0.0
  0
TEXT
  5
D4
330
17
100
AcDbEntity
  8
S-EXISTING
100
AcDbText
 10
237.5
 20
407.75
 30
0.0
 40
1.4
  1
TOPSOIL / TURF 300
  7
OpenSans
 11
237.5
 21
407.75
 31
0.0
100
AcDbText
  0
LINE
  5
D5
330
17
100
AcDbEntity
  8
S-WATERPROOF
100
AcDbLine
 10
40.0
 20
362.5
 30
0.0
 11
235.0
 21
362.5
 31
0.0
  0
LINE
  5
D6
330
17
100
AcDbEntity
  8
S-BLAST
100
AcDbLine
 10
70.0
 20
425.0
 30
0.0
 11
70.0
 21
413.75
 31
0.0
  0
LWPOLYLINE
  5
D7
330
17
100
AcDbEntity
  8
S-BLAST
100
AcDbPolyline
 90
3
 70
0
 10
67.75
 20
417.5
 10
70.0
 20
413.75
 10
72.25
 20
417.5
  0
LINE
  5
D8
330
17
100
AcDbEntity
  8
S-BLAST
100
AcDbLine
 10
90.0
 20
425.0
 30
0.0
 11
90.0
 21
413.75
 31
0.0
  0
LWPOLYLINE
  5
D9
330
17
100
AcDbEntity
  8
S-BLAST
100
AcDbPolyline
 90
3
 70
0
 10
87.75
 20
417.5
 10
90.0
 20
413.75
 10
92.25
 20
417.5
  0
LINE
  5
DA
330
17
100
AcDbEntity
  8
S-BLAST
100
AcDbLine
 10
110.0
 20
425.0
 30
0.0
 11
110.0
 21
413.75
 31
0.0
  0
LWPOLYLINE
  5
DB
330
17
100
AcDbEntity
  8
S-BLAST
100
AcDbPolyline
 90
3
 70
0
 10
107.75
 20
417.5
 10
110.0
 20
413.75
 10
112.25
 20
417.5
  0
LINE
  5
DC
330
17
100
AcDbEntity
  8
S-BLAST
100
AcDbLine
 10
130.0
 20
425.0
 30
0.0
 11
130.0
 21
413.75
 31
0.0
  0
LWPOLYLINE
  5
DD
330
17
100
AcDbEntity
  8
S-BLAST
100
AcDbPolyline
 90
3
 70
0
 10
127.75
 20
417.5
 10
130.0
 20
413.75
 10
132.25
 20
417.5
  0
LINE
  5
DE
330
17
100
AcDbEntity
  8
S-BLAST
100
AcDbLine
 10
150.0
 20
425.0
 30
0.0
 11
150.0
 21
413.75
 31
0.0
  0
LWPOLYLINE
  5
DF
330
17
100
AcDbEntity
  8
S-BLAST
100
AcDbPolyline
 90
3
 70
0
 10
147.75
 20
417.5
 10
150.0
 20
413.75
 10
152.25
 20
417.5
  0
LINE
  5
E0
330
17
100
AcDbEntity
  8
S-BLAST
100
AcDbLine
 10
170.0
 20
425.0
 30
0.0
 11
170.0
 21
413.75
 31
0.0
  0
LWPOLYLINE
  5
E1
330
17
100
AcDbEntity
  8
S-BLAST
100
AcDbPolyline
 90
3
 70
0
 10
167.75
 20
417.5
 10
170.0
 20
413.75
 10
172.25
 20
417.5
  0
LINE
  5
E2
330
17
100
AcDbEntity
  8
S-BLAST
100
AcDbLine
 10
190.0
 20
425.0
 30
0.0
 11
190.0
 21
413.75
 31
0.0
  0
LWPOLYLINE
  5
E3
330
17
100
AcDbEntity
  8
S-BLAST
100
AcDbPolyline
 90
3
 70
0
 10
187.75
 20
417.5
 10
190.0
 20
413.75
 10
192.25
 20
417.5
  0
LINE
  5
E4
330
17
100
AcDbEntity
  8
S-BLAST
100
AcDbLine
 10
210.0
 20
425.0
 30
0.0
 11
210.0
 21
413.75
 31
0.0
  0
LWPOLYLINE
  5
E5
330
17
100
AcDbEntity
  8
S-BLAST
100
AcDbPolyline
 90
3
 70
0
 10
207.75
 20
417.5
 10
210.0
 20
413.75
 10
212.25
 20
417.5
  0
TEXT
  5
E6
330
17
100
AcDbEntity
  8
S-BLAST
100
AcDbText
 10
75.0
 20
427.5
 30
0.0
 40
2.0
  1
BLAST 383 kPa + COVER 40.65 + SIDL 2.0 + SELF 22.5  =  448.15 kPa
  7
OpenSans
 11
75.0
 21
427.5
 31
0.0
100
AcDbText
  0
LINE
  5
E7
330
17
100
AcDbEntity
  8
S-REBAR-MAIN
100
AcDbLine
 10
61.5
 20
360.325
 30
0.0
 11
213.5
 21
360.325
 31
0.0
  0
LINE
  5
E8
330
17
100
AcDbEntity
  8
S-REBAR-MAIN
100
AcDbLine
 10
61.5
 20
342.2
 30
0.0
 11
213.5
 21
342.2
 31
0.0
  0
CIRCLE
  5
E9
330
17
100
AcDbEntity
  8
S-REBAR-MAIN
100
AcDbCircle
 10
63.75
 20
360.325
 30
0.0
 40
0.7
  0
HATCH
  5
EA
330
17
100
AcDbEntity
  8
S-REBAR-MAIN
 62
1
100
AcDbHatch
 10
0.0
 20
0.0
 30
0.0
210
0.0
220
0.0
230
1.0
  2
SOLID
 70
1
 71
0
 91
1
 92
3
 72
0
 73
1
 93
16
 10
64.45
 20
360.325
 10
64.3967156727579
 20
360.5928784026556
 10
64.24497474683058
 20
360.81997474683055
 10
64.01787840265557
 20
360.9717156727579
 10
63.75
 20
361.025
 10
63.48212159734444
 20
360.9717156727579
 10
63.255025253169414
 20
360.81997474683055
 10
63.1032843272421
 20
360.5928784026556
 10
63.05
 20
360.325
 10
63.1032843272421
 20
360.0571215973444
 10
63.255025253169414
 20
359.8300252531694
 10
63.48212159734444
 20
359.67828432724207
 10
63.75
 20
359.625
 10
64.01787840265557
 20
359.67828432724207
 10
64.24497474683058
 20
359.8300252531694
 10
64.3967156727579
 20
360.0571215973444
 97
0
 75
0
 76
1
 98
0
  0
CIRCLE
  5
EB
330
17
100
AcDbEntity
  8
S-REBAR-MAIN
100
AcDbCircle
 10
67.5
 20
360.325
 30
0.0
 40
0.7
  0
HATCH
  5
EC
330
17
100
AcDbEntity
  8
S-REBAR-MAIN
 62
1
100
AcDbHatch
 10
0.0
 20
0.0
 30
0.0
210
0.0
220
0.0
230
1.0
  2
SOLID
 70
1
 71
0
 91
1
 92
3
 72
0
 73
1
 93
16
 10
68.2
 20
360.325
 10
68.1467156727579
 20
360.5928784026556
 10
67.99497474683058
 20
360.81997474683055
 10
67.76787840265557
 20
360.9717156727579
 10
67.5
 20
361.025
 10
67.23212159734443
 20
360.9717156727579
 10
67.00502525316942
 20
360.81997474683055
 10
66.8532843272421
 20
360.5928784026556
 10
66.8
 20
360.325
 10
66.8532843272421
 20
360.0571215973444
 10
67.00502525316942
 20
359.8300252531694
 10
67.23212159734443
 20
359.67828432724207
 10
67.5
 20
359.625
 10
67.76787840265557
 20
359.67828432724207
 10
67.99497474683058
 20
359.8300252531694
 10
68.1467156727579
 20
360.0571215973444
 97
0
 75
0
 76
1
 98
0
  0
CIRCLE
  5
ED
330
17
100
AcDbEntity
  8
S-REBAR-MAIN
100
AcDbCircle
 10
71.25
 20
360.325
 30
0.0
 40
0.7
  0
HATCH
  5
EE
330
17
100
AcDbEntity
  8
S-REBAR-MAIN
 62
1
100
AcDbHatch
 10
0.0
 20
0.0
 30
0.0
210
0.0
220
0.0
230
1.0
  2
SOLID
 70
1
 71
0
 91
1
 92
3
 72
0
 73
1
 93
16
 10
71.95
 20
360.325
 10
71.8967156727579
 20
360.5928784026556
 10
71.74497474683058
 20
360.81997474683055
 10
71.51787840265557
 20
360.9717156727579
 10
71.25
 20
361.025
 10
70.98212159734443
 20
360.9717156727579
 10
70.75502525316942
 20
360.81997474683055
 10
70.6032843272421
 20
360.5928784026556
 10
70.55
 20
360.325
 10
70.6032843272421
 20
360.0571215973444
 10
70.75502525316942
 20
359.8300252531694
 10
70.98212159734443
 20
359.67828432724207
 10
71.25
 20
359.625
 10
71.51787840265557
 20
359.67828432724207
 10
71.74497474683058
 20
359.8300252531694
 10
71.8967156727579
 20
360.0571215973444
 97
0
 75
0
 76
1
 98
0
  0
CIRCLE
  5
EF
330
17
100
AcDbEntity
  8
S-REBAR-MAIN
100
AcDbCircle
 10
75.0
 20
360.325
 30
0.0
 40
0.7
  0
HATCH
  5
F0
330
17
100
AcDbEntity
  8
S-REBAR-MAIN
 62
1
100
AcDbHatch
 10
0.0
 20
0.0
 30
0.0
210
0.0
220
0.0
230
1.0
  2
SOLID
 70
1
 71
0
 91
1
 92
3
 72
0
 73
1
 93
16
 10
75.7
 20
360.325
 10
75.6467156727579
 20
360.5928784026556
 10
75.49497474683058
 20
360.81997474683055
 10
75.26787840265557
 20
360.9717156727579
 10
75.0
 20
361.025
 10
74.73212159734443
 20
360.9717156727579
 10
74.50502525316942
 20
360.81997474683055
 10
74.3532843272421
 20
360.5928784026556
 10
74.3
 20
360.325
 10
74.3532843272421
 20
360.0571215973444
 10
74.50502525316942
 20
359.8300252531694
 10
74.73212159734443
 20
359.67828432724207
 10
75.0
 20
359.625
 10
75.26787840265557
 20
359.67828432724207
 10
75.49497474683058
 20
359.8300252531694
 10
75.6467156727579
 20
360.0571215973444
 97
0
 75
0
 76
1
 98
0
  0
CIRCLE
  5
F1
330
17
100
AcDbEntity
  8
S-REBAR-MAIN
100
AcDbCircle
 10
78.75
 20
360.325
 30
0.0
 40
0.7
  0
HATCH
  5
F2
330
17
100
AcDbEntity
  8
S-REBAR-MAIN
 62
1
100
AcDbHatch
 10
0.0
 20
0.0
 30
0.0
210
0.0
220
0.0
230
1.0
  2
SOLID
 70
1
 71
0
 91
1
 92
3
 72
0
 73
1
 93
16
 10
79.45
 20
360.325
 10
79.3967156727579
 20
360.5928784026556
 10
79.24497474683058
 20
360.81997474683055
 10
79.01787840265557
 20
360.9717156727579
 10
78.75
 20
361.025
 10
78.48212159734443
 20
360.9717156727579
 10
78.25502525316942
 20
360.81997474683055
 10
78.1032843272421
 20
360.5928784026556
 10
78.05
 20
360.325
 10
78.1032843272421
 20
360.0571215973444
 10
78.25502525316942
 20
359.8300252531694
 10
78.48212159734443
 20
359.67828432724207
 10
78.75
 20
359.625
 10
79.01787840265557
 20
359.67828432724207
 10
79.24497474683058
 20
359.8300252531694
 10
79.3967156727579
 20
360.0571215973444
 97
0
 75
0
 76
1
 98
0
  0
CIRCLE
  5
F3
330
17
100
AcDbEntity
  8
S-REBAR-MAIN
100
AcDbCircle
 10
82.5
 20
360.325
 30
0.0
 40
0.7
  0
HATCH
  5
F4
330
17
100
AcDbEntity
  8
S-REBAR-MAIN
 62
1
100
AcDbHatch
 10
0.0
 20
0.0
 30
0.0
210
0.0
220
0.0
230
1.0
  2
SOLID
 70
1
 71
0
 91
1
 92
3
 72
0
 73
1
 93
16
 10
83.2
 20
360.325
 10
83.1467156727579
 20
360.5928784026556
 10
82.99497474683058
 20
360.81997474683055
 10
82.76787840265557
 20
360.9717156727579
 10
82.5
 20
361.025
 10
82.23212159734443
 20
360.9717156727579
 10
82.00502525316942
 20
360.81997474683055
 10
81.8532843272421
 20
360.5928784026556
 10
81.8
 20
360.325
 10
81.8532843272421
 20
360.0571215973444
 10
82.00502525316942
 20
359.8300252531694
 10
82.23212159734443
 20
359.67828432724207
 10
82.5
 20
359.625
 10
82.76787840265557
 20
359.67828432724207
 10
82.99497474683058
 20
359.8300252531694
 10
83.1467156727579
 20
360.0571215973444
 97
0
 75
0
 76
1
 98
0
  0
CIRCLE
  5
F5
330
17
100
AcDbEntity
  8
S-REBAR-MAIN
100
AcDbCircle
 10
86.25
 20
360.325
 30
0.0
 40
0.7
  0
HATCH
  5
F6
330
17
100
AcDbEntity
  8
S-REBAR-MAIN
 62
1
100
AcDbHatch
 10
0.0
 20
0.0
 30
0.0
210
0.0
220
0.0
230
1.0
  2
SOLID
 70
1
 71
0
 91
1
 92
3
 72
0
 73
1
 93
16
 10
86.95
 20
360.325
 10
86.8967156727579
 20
360.5928784026556
 10
86.74497474683058
 20
360.81997474683055
 10
86.51787840265557
 20
360.9717156727579
 10
86.25
 20
361.025
 10
85.98212159734443
 20
360.9717156727579
 10
85.75502525316942
 20
360.81997474683055
 10
85.6032843272421
 20
360.5928784026556
 10
85.55
 20
360.325
 10
85.6032843272421
 20
360.0571215973444
 10
85.75502525316942
 20
359.8300252531694
 10
85.98212159734443
 20
359.67828432724207
 10
86.25
 20
359.625
 10
86.51787840265557
 20
359.67828432724207
 10
86.74497474683058
 20
359.8300252531694
 10
86.8967156727579
 20
360.0571215973444
 97
0
 75
0
 76
1
 98
0
  0
CIRCLE
  5
F7
330
17
100
AcDbEntity
  8
S-REBAR-MAIN
100
AcDbCircle
 10
90.0
 20
360.325
 30
0.0
 40
0.7
  0
HATCH
  5
F8
330
17
100
AcDbEntity
  8
S-REBAR-MAIN
 62
1
100
AcDbHatch
 10
0.0
 20
0.0
 30
0.0
210
0.0
220
0.0
230
1.0
  2
SOLID
 70
1
 71
0
 91
1
 92
3
 72
0
 73
1
 93
16
 10
90.7
 20
360.325
 10
90.6467156727579
 20
360.5928784026556
 10
90.49497474683058
 20
360.81997474683055
 10
90.26787840265557
 20
360.9717156727579
 10
90.0
 20
361.025
 10
89.73212159734443
 20
360.9717156727579
 10
89.50502525316942
 20
360.81997474683055
 10
89.3532843272421
 20
360.5928784026556
 10
89.3
 20
360.325
 10
89.3532843272421
 20
360.0571215973444
 10
89.50502525316942
 20
359.8300252531694
 10
89.73212159734443
 20
359.67828432724207
 10
90.0
 20
359.625
 10
90.26787840265557
 20
359.67828432724207
 10
90.49497474683058
 20
359.8300252531694
 10
90.6467156727579
 20
360.0571215973444
 97
0
 75
0
 76
1
 98
0
  0
CIRCLE
  5
F9
330
17
100
AcDbEntity
  8
S-REBAR-MAIN
100
AcDbCircle
 10
93.75
 20
360.325
 30
0.0
 40
0.7
  0
HATCH
  5
FA
330
17
100
AcDbEntity
  8
S-REBAR-MAIN
 62
1
100
AcDbHatch
 10
0.0
 20
0.0
 30
0.0
210
0.0
220
0.0
230
1.0
  2
SOLID
 70
1
 71
0
 91
1
 92
3
 72
0
 73
1
 93
16
 10
94.45
 20
360.325
 10
94.3967156727579
 20
360.5928784026556
 10
94.24497474683058
 20
360.81997474683055
 10
94.01787840265557
 20
360.9717156727579
 10
93.75
 20
361.025
 10
93.48212159734443
 20
360.9717156727579
 10
93.25502525316942
 20
360.81997474683055
 10
93.1032843272421
 20
360.5928784026556
 10
93.05
 20
360.325
 10
93.1032843272421
 20
360.0571215973444
 10
93.25502525316942
 20
359.8300252531694
 10
93.48212159734443
 20
359.67828432724207
 10
93.75
 20
359.625
 10
94.01787840265557
 20
359.67828432724207
 10
94.24497474683058
 20
359.8300252531694
 10
94.3967156727579
 20
360.0571215973444
 97
0
 75
0
 76
1
 98
0
  0
CIRCLE
  5
FB
330
17
100
AcDbEntity
  8
S-REBAR-MAIN
100
AcDbCircle
 10
97.5
 20
360.325
 30
0.0
 40
0.7
  0
HATCH
  5
FC
330
17
100
AcDbEntity
  8
S-REBAR-MAIN
 62
1
100
AcDbHatch
 10
0.0
 20
0.0
 30
0.0
210
0.0
220
0.0
230
1.0
  2
SOLID
 70
1
 71
0
 91
1
 92
3
 72
0
 73
1
 93
16
 10
98.2
 20
360.325
 10
98.1467156727579
 20
360.5928784026556
 10
97.99497474683058
 20
360.81997474683055
 10
97.76787840265557
 20
360.9717156727579
 10
97.5
 20
361.025
 10
97.23212159734443
 20
360.9717156727579
 10
97.00502525316942
 20
360.81997474683055
 10
96.8532843272421
 20
360.5928784026556
 10
96.8
 20
360.325
 10
96.8532843272421
 20
360.0571215973444
 10
97.00502525316942
 20
359.8300252531694
 10
97.23212159734443
 20
359.67828432724207
 10
97.5
 20
359.625
 10
97.76787840265557
 20
359.67828432724207
 10
97.99497474683058
 20
359.8300252531694
 10
98.1467156727579
 20
360.0571215973444
 97
0
 75
0
 76
1
 98
0
  0
CIRCLE
  5
FD
330
17
100
AcDbEntity
  8
S-REBAR-MAIN
100
AcDbCircle
 10
101.25
 20
360.325
 30
0.0
 40
0.7
  0
HATCH
  5
FE
330
17
100
AcDbEntity
  8
S-REBAR-MAIN
 62
1
100
AcDbHatch
 10
0.0
 20
0.0
 30
0.0
210
0.0
220
0.0
230
1.0
  2
SOLID
 70
1
 71
0
 91
1
 92
3
 72
0
 73
1
 93
16
 10
101.95
 20
360.325
 10
101.8967156727579
 20
360.5928784026556
 10
101.74497474683058
 20
360.81997474683055
 10
101.51787840265557
 20
360.9717156727579
 10
101.25
 20
361.025
 10
100.98212159734443
 20
360.9717156727579
 10
100.75502525316942
 20
360.81997474683055
 10
100.6032843272421
 20
360.5928784026556
 10
100.55
 20
360.325
 10
100.6032843272421
 20
360.0571215973444
 10
100.75502525316942
 20
359.8300252531694
 10
100.98212159734443
 20
359.67828432724207
 10
101.25
 20
359.625
 10
101.51787840265557
 20
359.67828432724207
 10
101.74497474683058
 20
359.8300252531694
 10
101.8967156727579
 20
360.0571215973444
 97
0
 75
0
 76
1
 98
0
  0
CIRCLE
  5
FF
330
17
100
AcDbEntity
  8
S-REBAR-MAIN
100
AcDbCircle
 10
105.0
 20
360.325
 30
0.0
 40
0.7
  0
HATCH
  5
100
330
17
100
AcDbEntity
  8
S-REBAR-MAIN
 62
1
100
AcDbHatch
 10
0.0
 20
0.0
 30
0.0
210
0.0
220
0.0
230
1.0
  2
SOLID
 70
1
 71
0
 91
1
 92
3
 72
0
 73
1
 93
16
 10
105.7
 20
360.325
 10
105.6467156727579
 20
360.5928784026556
 10
105.49497474683058
 20
360.81997474683055
 10
105.26787840265557
 20
360.9717156727579
 10
105.0
 20
361.025
 10
104.73212159734443
 20
360.9717156727579
 10
104.50502525316942
 20
360.81997474683055
 10
104.3532843272421
 20
360.5928784026556
 10
104.3
 20
360.325
 10
104.3532843272421
 20
360.0571215973444
 10
104.50502525316942
 20
359.8300252531694
 10
104.73212159734443
 20
359.67828432724207
 10
105.0
 20
359.625
 10
105.26787840265557
 20
359.67828432724207
 10
105.49497474683058
 20
359.8300252531694
 10
105.6467156727579
 20
360.0571215973444
 97
0
 75
0
 76
1
 98
0
  0
CIRCLE
  5
101
330
17
100
AcDbEntity
  8
S-REBAR-MAIN
100
AcDbCircle
 10
108.75
 20
360.325
 30
0.0
 40
0.7
  0
HATCH
  5
102
330
17
100
AcDbEntity
  8
S-REBAR-MAIN
 62
1
100
AcDbHatch
 10
0.0
 20
0.0
 30
0.0
210
0.0
220
0.0
230
1.0
  2
SOLID
 70
1
 71
0
 91
1
 92
3
 72
0
 73
1
 93
16
 10
109.45
 20
360.325
 10
109.3967156727579
 20
360.5928784026556
 10
109.24497474683058
 20
360.81997474683055
 10
109.01787840265557
 20
360.9717156727579
 10
108.75
 20
361.025
 10
108.48212159734443
 20
360.9717156727579
 10
108.25502525316942
 20
360.81997474683055
 10
108.1032843272421
 20
360.5928784026556
 10
108.05
 20
360.325
 10
108.1032843272421
 20
360.0571215973444
 10
108.25502525316942
 20
359.8300252531694
 10
108.48212159734443
 20
359.67828432724207
 10
108.75
 20
359.625
 10
109.01787840265557
 20
359.67828432724207
 10
109.24497474683058
 20
359.8300252531694
 10
109.3967156727579
 20
360.0571215973444
 97
0
 75
0
 76
1
 98
0
  0
CIRCLE
  5
103
330
17
100
AcDbEntity
  8
S-REBAR-MAIN
100
AcDbCircle
 10
112.5
 20
360.325
 30
0.0
 40
0.7
  0
HATCH
  5
104
330
17
100
AcDbEntity
  8
S-REBAR-MAIN
 62
1
100
AcDbHatch
 10
0.0
 20
0.0
 30
0.0
210
0.0
220
0.0
230
1.0
  2
SOLID
 70
1
 71
0
 91
1
 92
3
 72
0
 73
1
 93
16
 10
113.2
 20
360.325
 10
113.1467156727579
 20
360.5928784026556
 10
112.99497474683058
 20
360.81997474683055
 10
112.76787840265557
 20
360.9717156727579
 10
112.5
 20
361.025
 10
112.23212159734443
 20
360.9717156727579
 10
112.00502525316942
 20
360.81997474683055
 10
111.8532843272421
 20
360.5928784026556
 10
111.8
 20
360.325
 10
111.8532843272421
 20
360.0571215973444
 10
112.00502525316942
 20
359.8300252531694
 10
112.23212159734443
 20
359.67828432724207
 10
112.5
 20
359.625
 10
112.76787840265557
 20
359.67828432724207
 10
112.99497474683058
 20
359.8300252531694
 10
113.1467156727579
 20
360.0571215973444
 97
0
 75
0
 76
1
 98
0
  0
CIRCLE
  5
105
330
17
100
AcDbEntity
  8
S-REBAR-MAIN
100
AcDbCircle
 10
116.25
 20
360.325
 30
0.0
 40
0.7
  0
HATCH
  5
106
330
17
100
AcDbEntity
  8
S-REBAR-MAIN
 62
1
100
AcDbHatch
 10
0.0
 20
0.0
 30
0.0
210
0.0
220
0.0
230
1.0
  2
SOLID
 70
1
 71
0
 91
1
 92
3
 72
0
 73
1
 93
16
 10
116.95
 20
360.325
 10
116.8967156727579
 20
360.5928784026556
 10
116.74497474683058
 20
360.81997474683055
 10
116.51787840265557
 20
360.9717156727579
 10
116.25
 20
361.025
 10
115.98212159734443
 20
360.9717156727579
 10
115.75502525316942
 20
360.81997474683055
 10
115.6032843272421
 20
360.5928784026556
 10
115.55
 20
360.325
 10
115.6032843272421
 20
360.0571215973444
 10
115.75502525316942
 20
359.8300252531694
 10
115.98212159734443
 20
359.67828432724207
 10
116.25
 20
359.625
 10
116.51787840265557
 20
359.67828432724207
 10
116.74497474683058
 20
359.8300252531694
 10
116.8967156727579
 20
360.0571215973444
 97
0
 75
0
 76
1
 98
0
  0
CIRCLE
  5
107
330
17
100
AcDbEntity
  8
S-REBAR-MAIN
100
AcDbCircle
 10
120.0
 20
360.325
 30
0.0
 40
0.7
  0
HATCH
  5
108
330
17
100
AcDbEntity
  8
S-REBAR-MAIN
 62
1
100
AcDbHatch
 10
0.0
 20
0.0
 30
0.0
210
0.0
220
0.0
230
1.0
  2
SOLID
 70
1
 71
0
 91
1
 92
3
 72
0
 73
1
 93
16
 10
120.7
 20
360.325
 10
120.6467156727579
 20
360.5928784026556
 10
120.49497474683058
 20
360.81997474683055
 10
120.26787840265557
 20
360.9717156727579
 10
120.0
 20
361.025
 10
119.73212159734443
 20
360.9717156727579
 10
119.50502525316942
 20
360.81997474683055
 10
119.3532843272421
 20
360.5928784026556
 10
119.3
 20
360.325
 10
119.3532843272421
 20
360.0571215973444
 10
119.50502525316942
 20
359.8300252531694
 10
119.73212159734443
 20
359.67828432724207
 10
120.0
 20
359.625
 10
120.26787840265557
 20
359.67828432724207
 10
120.49497474683058
 20
359.8300252531694
 10
120.6467156727579
 20
360.0571215973444
 97
0
 75
0
 76
1
 98
0
  0
CIRCLE
  5
109
330
17
100
AcDbEntity
  8
S-REBAR-MAIN
100
AcDbCircle
 10
123.75
 20
360.325
 30
0.0
 40
0.7
  0
HATCH
  5
10A
330
17
100
AcDbEntity
  8
S-REBAR-MAIN
 62
1
100
AcDbHatch
 10
0.0
 20
0.0
 30
0.0
210
0.0
220
0.0
230
1.0
  2
SOLID
 70
1
 71
0
 91
1
 92
3
 72
0
 73
1
 93
16
 10
124.45
 20
360.325
 10
124.3967156727579
 20
360.5928784026556
 10
124.24497474683058
 20
360.81997474683055
 10
124.01787840265557
 20
360.9717156727579
 10
123.75
 20
361.025
 10
123.48212159734443
 20
360.9717156727579
 10
123.25502525316942
 20
360.81997474683055
 10
123.1032843272421
 20
360.5928784026556
 10
123.05
 20
360.325
 10
123.1032843272421
 20
360.0571215973444
 10
123.25502525316942
 20
359.8300252531694
 10
123.48212159734443
 20
359.67828432724207
 10
123.75
 20
359.625
 10
124.01787840265557
 20
359.67828432724207
 10
124.24497474683058
 20
359.8300252531694
 10
124.3967156727579
 20
360.0571215973444
 97
0
 75
0
 76
1
 98
0
  0
CIRCLE
  5
10B
330
17
100
AcDbEntity
  8
S-REBAR-MAIN
100
AcDbCircle
 10
127.5
 20
360.325
 30
0.0
 40
0.7
  0
HATCH
  5
10C
330
17
100
AcDbEntity
  8
S-REBAR-MAIN
 62
1
100
AcDbHatch
 10
0.0
 20
0.0
 30
0.0
210
0.0
220
0.0
230
1.0
  2
SOLID
 70
1
 71
0
 91
1
 92
3
 72
0
 73
1
 93
16
 10
128.2
 20
360.325
 10
128.1467156727579
 20
360.5928784026556
 10
127.99497474683058
 20
360.81997474683055
 10
127.76787840265557
 20
360.9717156727579
 10
127.5
 20
361.025
 10
127.23212159734443
 20
360.9717156727579
 10
127.00502525316942
 20
360.81997474683055
 10
126.8532843272421
 20
360.5928784026556
 10
126.8
 20
360.325
 10
126.8532843272421
 20
360.0571215973444
 10
127.00502525316942
 20
359.8300252531694
 10
127.23212159734443
 20
359.67828432724207
 10
127.5
 20
359.625
 10
127.76787840265557
 20
359.67828432724207
 10
127.99497474683058
 20
359.8300252531694
 10
128.1467156727579
 20
360.0571215973444
 97
0
 75
0
 76
1
 98
0
  0
CIRCLE
  5
10D
330
17
100
AcDbEntity
  8
S-REBAR-MAIN
100
AcDbCircle
 10
131.25
 20
360.325
 30
0.0
 40
0.7
  0
HATCH
  5
10E
330
17
100
AcDbEntity
  8
S-REBAR-MAIN
 62
1
100
AcDbHatch
 10
0.0
 20
0.0
 30
0.0
210
0.0
220
0.0
230
1.0
  2
SOLID
 70
1
 71
0
 91
1
 92
3
 72
0
 73
1
 93
16
 10
131.95
 20
360.325
 10
131.8967156727579
 20
360.5928784026556
 10
131.7449747468306
 20
360.81997474683055
 10
131.51787840265555
 20
360.9717156727579
 10
131.25
 20
361.025
 10
130.98212159734445
 20
360.9717156727579
 10
130.7550252531694
 20
360.81997474683055
 10
130.6032843272421
 20
360.5928784026556
 10
130.55
 20
360.325
 10
130.6032843272421
 20
360.0571215973444
 10
130.7550252531694
 20
359.8300252531694
 10
130.98212159734445
 20
359.67828432724207
 10
131.25
 20
359.625
 10
131.51787840265555
 20
359.67828432724207
 10
131.7449747468306
 20
359.8300252531694
 10
131.8967156727579
 20
360.0571215973444
 97
0
 75
0
 76
1
 98
0
  0
CIRCLE
  5
10F
330
17
100
AcDbEntity
  8
S-REBAR-MAIN
100
AcDbCircle
 10
135.0
 20
360.325
 30
0.0
 40
0.7
  0
HATCH
  5
110
330
17
100
AcDbEntity
  8
S-REBAR-MAIN
 62
1
100
AcDbHatch
 10
0.0
 20
0.0
 30
0.0
210
0.0
220
0.0
230
1.0
  2
SOLID
 70
1
 71
0
 91
1
 92
3
 72
0
 73
1
 93
16
 10
135.7
 20
360.325
 10
135.6467156727579
 20
360.5928784026556
 10
135.4949747468306
 20
360.81997474683055
 10
135.26787840265555
 20
360.9717156727579
 10
135.0
 20
361.025
 10
134.73212159734445
 20
360.9717156727579
 10
134.5050252531694
 20
360.81997474683055
 10
134.3532843272421
 20
360.5928784026556
 10
134.3
 20
360.325
 10
134.3532843272421
 20
360.0571215973444
 10
134.5050252531694
 20
359.8300252531694
 10
134.73212159734445
 20
359.67828432724207
 10
135.0
 20
359.625
 10
135.26787840265555
 20
359.67828432724207
 10
135.4949747468306
 20
359.8300252531694
 10
135.6467156727579
 20
360.0571215973444
 97
0
 75
0
 76
1
 98
0
  0
CIRCLE
  5
111
330
17
100
AcDbEntity
  8
S-REBAR-MAIN
100
AcDbCircle
 10
138.75
 20
360.325
 30
0.0
 40
0.7
  0
HATCH
  5
112
330
17
100
AcDbEntity
  8
S-REBAR-MAIN
 62
1
100
AcDbHatch
 10
0.0
 20
0.0
 30
0.0
210
0.0
220
0.0
230
1.0
  2
SOLID
 70
1
 71
0
 91
1
 92
3
 72
0
 73
1
 93
16
 10
139.45
 20
360.325
 10
139.3967156727579
 20
360.5928784026556
 10
139.2449747468306
 20
360.81997474683055
 10
139.01787840265555
 20
360.9717156727579
 10
138.75
 20
361.025
 10
138.48212159734445
 20
360.9717156727579
 10
138.2550252531694
 20
360.81997474683055
 10
138.1032843272421
 20
360.5928784026556
 10
138.05
 20
360.325
 10
138.1032843272421
 20
360.0571215973444
 10
138.2550252531694
 20
359.8300252531694
 10
138.48212159734445
 20
359.67828432724207
 10
138.75
 20
359.625
 10
139.01787840265555
 20
359.67828432724207
 10
139.2449747468306
 20
359.8300252531694
 10
139.3967156727579
 20
360.0571215973444
 97
0
 75
0
 76
1
 98
0
  0
CIRCLE
  5
113
330
17
100
AcDbEntity
  8
S-REBAR-MAIN
100
AcDbCircle
 10
142.5
 20
360.325
 30
0.0
 40
0.7
  0
HATCH
  5
114
330
17
100
AcDbEntity
  8
S-REBAR-MAIN
 62
1
100
AcDbHatch
 10
0.0
 20
0.0
 30
0.0
210
0.0
220
0.0
230
1.0
  2
SOLID
 70
1
 71
0
 91
1
 92
3
 72
0
 73
1
 93
16
 10
143.2
 20
360.325
 10
143.1467156727579
 20
360.5928784026556
 10
142.9949747468306
 20
360.81997474683055
 10
142.76787840265555
 20
360.9717156727579
 10
142.5
 20
361.025
 10
142.23212159734445
 20
360.9717156727579
 10
142.0050252531694
 20
360.81997474683055
 10
141.8532843272421
 20
360.5928784026556
 10
141.8
 20
360.325
 10
141.8532843272421
 20
360.0571215973444
 10
142.0050252531694
 20
359.8300252531694
 10
142.23212159734445
 20
359.67828432724207
 10
142.5
 20
359.625
 10
142.76787840265555
 20
359.67828432724207
 10
142.9949747468306
 20
359.8300252531694
 10
143.1467156727579
 20
360.0571215973444
 97
0
 75
0
 76
1
 98
0
  0
CIRCLE
  5
115
330
17
100
AcDbEntity
  8
S-REBAR-MAIN
100
AcDbCircle
 10
146.25
 20
360.325
 30
0.0
 40
0.7
  0
HATCH
  5
116
330
17
100
AcDbEntity
  8
S-REBAR-MAIN
 62
1
100
AcDbHatch
 10
0.0
 20
0.0
 30
0.0
210
0.0
220
0.0
230
1.0
  2
SOLID
 70
1
 71
0
 91
1
 92
3
 72
0
 73
1
 93
16
 10
146.95
 20
360.325
 10
146.8967156727579
 20
360.5928784026556
 10
146.7449747468306
 20
360.81997474683055
 10
146.51787840265555
 20
360.9717156727579
 10
146.25
 20
361.025
 10
145.98212159734445
 20
360.9717156727579
 10
145.7550252531694
 20
360.81997474683055
 10
145.6032843272421
 20
360.5928784026556
 10
145.55
 20
360.325
 10
145.6032843272421
 20
360.0571215973444
 10
145.7550252531694
 20
359.8300252531694
 10
145.98212159734445
 20
359.67828432724207
 10
146.25
 20
359.625
 10
146.51787840265555
 20
359.67828432724207
 10
146.7449747468306
 20
359.8300252531694
 10
146.8967156727579
 20
360.0571215973444
 97
0
 75
0
 76
1
 98
0
  0
CIRCLE
  5
117
330
17
100
AcDbEntity
  8
S-REBAR-MAIN
100
AcDbCircle
 10
150.0
 20
360.325
 30
0.0
 40
0.7
  0
HATCH
  5
118
330
17
100
AcDbEntity
  8
S-REBAR-MAIN
 62
1
100
AcDbHatch
 10
0.0
 20
0.0
 30
0.0
210
0.0
220
0.0
230
1.0
  2
SOLID
 70
1
 71
0
 91
1
 92
3
 72
0
 73
1
 93
16
 10
150.7
 20
360.325
 10
150.6467156727579
 20
360.5928784026556
 10
150.4949747468306
 20
360.81997474683055
 10
150.26787840265555
 20
360.9717156727579
 10
150.0
 20
361.025
 10
149.73212159734445
 20
360.9717156727579
 10
149.5050252531694
 20
360.81997474683055
 10
149.3532843272421
 20
360.5928784026556
 10
149.3
 20
360.325
 10
149.3532843272421
 20
360.0571215973444
 10
149.5050252531694
 20
359.8300252531694
 10
149.73212159734445
 20
359.67828432724207
 10
150.0
 20
359.625
 10
150.26787840265555
 20
359.67828432724207
 10
150.4949747468306
 20
359.8300252531694
 10
150.6467156727579
 20
360.0571215973444
 97
0
 75
0
 76
1
 98
0
  0
CIRCLE
  5
119
330
17
100
AcDbEntity
  8
S-REBAR-MAIN
100
AcDbCircle
 10
153.75
 20
360.325
 30
0.0
 40
0.7
  0
HATCH
  5
11A
330
17
100
AcDbEntity
  8
S-REBAR-MAIN
 62
1
100
AcDbHatch
 10
0.0
 20
0.0
 30
0.0
210
0.0
220
0.0
230
1.0
  2
SOLID
 70
1
 71
0
 91
1
 92
3
 72
0
 73
1
 93
16
 10
154.45
 20
360.325
 10
154.3967156727579
 20
360.5928784026556
 10
154.2449747468306
 20
360.81997474683055
 10
154.01787840265555
 20
360.9717156727579
 10
153.75
 20
361.025
 10
153.48212159734445
 20
360.9717156727579
 10
153.2550252531694
 20
360.81997474683055
 10
153.1032843272421
 20
360.5928784026556
 10
153.05
 20
360.325
 10
153.1032843272421
 20
360.0571215973444
 10
153.2550252531694
 20
359.8300252531694
 10
153.48212159734445
 20
359.67828432724207
 10
153.75
 20
359.625
 10
154.01787840265555
 20
359.67828432724207
 10
154.2449747468306
 20
359.8300252531694
 10
154.3967156727579
 20
360.0571215973444
 97
0
 75
0
 76
1
 98
0
  0
CIRCLE
  5
11B
330
17
100
AcDbEntity
  8
S-REBAR-MAIN
100
AcDbCircle
 10
157.5
 20
360.325
 30
0.0
 40
0.7
  0
HATCH
  5
11C
330
17
100
AcDbEntity
  8
S-REBAR-MAIN
 62
1
100
AcDbHatch
 10
0.0
 20
0.0
 30
0.0
210
0.0
220
0.0
230
1.0
  2
SOLID
 70
1
 71
0
 91
1
 92
3
 72
0
 73
1
 93
16
 10
158.2
 20
360.325
 10
158.1467156727579
 20
360.5928784026556
 10
157.9949747468306
 20
360.81997474683055
 10
157.76787840265555
 20
360.9717156727579
 10
157.5
 20
361.025
 10
157.23212159734445
 20
360.9717156727579
 10
157.0050252531694
 20
360.81997474683055
 10
156.8532843272421
 20
360.5928784026556
 10
156.8
 20
360.325
 10
156.8532843272421
 20
360.0571215973444
 10
157.0050252531694
 20
359.8300252531694
 10
157.23212159734445
 20
359.67828432724207
 10
157.5
 20
359.625
 10
157.76787840265555
 20
359.67828432724207
 10
157.9949747468306
 20
359.8300252531694
 10
158.1467156727579
 20
360.0571215973444
 97
0
 75
0
 76
1
 98
0
  0
CIRCLE
  5
11D
330
17
100
AcDbEntity
  8
S-REBAR-MAIN
100
AcDbCircle
 10
161.25
 20
360.325
 30
0.0
 40
0.7
  0
HATCH
  5
11E
330
17
100
AcDbEntity
  8
S-REBAR-MAIN
 62
1
100
AcDbHatch
 10
0.0
 20
0.0
 30
0.0
210
0.0
220
0.0
230
1.0
  2
SOLID
 70
1
 71
0
 91
1
 92
3
 72
0
 73
1
 93
16
 10
161.95
 20
360.325
 10
161.8967156727579
 20
360.5928784026556
 10
161.7449747468306
 20
360.81997474683055
 10
161.51787840265555
 20
360.9717156727579
 10
161.25
 20
361.025
 10
160.98212159734445
 20
360.9717156727579
 10
160.7550252531694
 20
360.81997474683055
 10
160.6032843272421
 20
360.5928784026556
 10
160.55
 20
360.325
 10
160.6032843272421
 20
360.0571215973444
 10
160.7550252531694
 20
359.8300252531694
 10
160.98212159734445
 20
359.67828432724207
 10
161.25
 20
359.625
 10
161.51787840265555
 20
359.67828432724207
 10
161.7449747468306
 20
359.8300252531694
 10
161.8967156727579
 20
360.0571215973444
 97
0
 75
0
 76
1
 98
0
  0
CIRCLE
  5
11F
330
17
100
AcDbEntity
  8
S-REBAR-MAIN
100
AcDbCircle
 10
165.0
 20
360.325
 30
0.0
 40
0.7
  0
HATCH
  5
120
330
17
100
AcDbEntity
  8
S-REBAR-MAIN
 62
1
100
AcDbHatch
 10
0.0
 20
0.0
 30
0.0
210
0.0
220
0.0
230
1.0
  2
SOLID
 70
1
 71
0
 91
1
 92
3
 72
0
 73
1
 93
16
 10
165.7
 20
360.325
 10
165.6467156727579
 20
360.5928784026556
 10
165.4949747468306
 20
360.81997474683055
 10
165.26787840265555
 20
360.9717156727579
 10
165.0
 20
361.025
 10
164.73212159734445
 20
360.9717156727579
 10
164.5050252531694
 20
360.81997474683055
 10
164.3532843272421
 20
360.5928784026556
 10
164.3
 20
360.325
 10
164.3532843272421
 20
360.0571215973444
 10
164.5050252531694
 20
359.8300252531694
 10
164.73212159734445
 20
359.67828432724207
 10
165.0
 20
359.625
 10
165.26787840265555
 20
359.67828432724207
 10
165.4949747468306
 20
359.8300252531694
 10
165.6467156727579
 20
360.0571215973444
 97
0
 75
0
 76
1
 98
0
  0
CIRCLE
  5
121
330
17
100
AcDbEntity
  8
S-REBAR-MAIN
100
AcDbCircle
 10
168.75
 20
360.325
 30
0.0
 40
0.7
  0
HATCH
  5
122
330
17
100
AcDbEntity
  8
S-REBAR-MAIN
 62
1
100
AcDbHatch
 10
0.0
 20
0.0
 30
0.0
210
0.0
220
0.0
230
1.0
  2
SOLID
 70
1
 71
0
 91
1
 92
3
 72
0
 73
1
 93
16
 10
169.45
 20
360.325
 10
169.3967156727579
 20
360.5928784026556
 10
169.2449747468306
 20
360.81997474683055
 10
169.01787840265555
 20
360.9717156727579
 10
168.75
 20
361.025
 10
168.48212159734445
 20
360.9717156727579
 10
168.2550252531694
 20
360.81997474683055
 10
168.1032843272421
 20
360.5928784026556
 10
168.05
 20
360.325
 10
168.1032843272421
 20
360.0571215973444
 10
168.2550252531694
 20
359.8300252531694
 10
168.48212159734445
 20
359.67828432724207
 10
168.75
 20
359.625
 10
169.01787840265555
 20
359.67828432724207
 10
169.2449747468306
 20
359.8300252531694
 10
169.3967156727579
 20
360.0571215973444
 97
0
 75
0
 76
1
 98
0
  0
CIRCLE
  5
123
330
17
100
AcDbEntity
  8
S-REBAR-MAIN
100
AcDbCircle
 10
172.5
 20
360.325
 30
0.0
 40
0.7
  0
HATCH
  5
124
330
17
100
AcDbEntity
  8
S-REBAR-MAIN
 62
1
100
AcDbHatch
 10
0.0
 20
0.0
 30
0.0
210
0.0
220
0.0
230
1.0
  2
SOLID
 70
1
 71
0
 91
1
 92
3
 72
0
 73
1
 93
16
 10
173.2
 20
360.325
 10
173.1467156727579
 20
360.5928784026556
 10
172.9949747468306
 20
360.81997474683055
 10
172.76787840265555
 20
360.9717156727579
 10
172.5
 20
361.025
 10
172.23212159734445
 20
360.9717156727579
 10
172.0050252531694
 20
360.81997474683055
 10
171.8532843272421
 20
360.5928784026556
 10
171.8
 20
360.325
 10
171.8532843272421
 20
360.0571215973444
 10
172.0050252531694
 20
359.8300252531694
 10
172.23212159734445
 20
359.67828432724207
 10
172.5
 20
359.625
 10
172.76787840265555
 20
359.67828432724207
 10
172.9949747468306
 20
359.8300252531694
 10
173.1467156727579
 20
360.0571215973444
 97
0
 75
0
 76
1
 98
0
  0
CIRCLE
  5
125
330
17
100
AcDbEntity
  8
S-REBAR-MAIN
100
AcDbCircle
 10
176.25
 20
360.325
 30
0.0
 40
0.7
  0
HATCH
  5
126
330
17
100
AcDbEntity
  8
S-REBAR-MAIN
 62
1
100
AcDbHatch
 10
0.0
 20
0.0
 30
0.0
210
0.0
220
0.0
230
1.0
  2
SOLID
 70
1
 71
0
 91
1
 92
3
 72
0
 73
1
 93
16
 10
176.95
 20
360.325
 10
176.8967156727579
 20
360.5928784026556
 10
176.7449747468306
 20
360.81997474683055
 10
176.51787840265555
 20
360.9717156727579
 10
176.25
 20
361.025
 10
175.98212159734445
 20
360.9717156727579
 10
175.7550252531694
 20
360.81997474683055
 10
175.6032843272421
 20
360.5928784026556
 10
175.55
 20
360.325
 10
175.6032843272421
 20
360.0571215973444
 10
175.7550252531694
 20
359.8300252531694
 10
175.98212159734445
 20
359.67828432724207
 10
176.25
 20
359.625
 10
176.51787840265555
 20
359.67828432724207
 10
176.7449747468306
 20
359.8300252531694
 10
176.8967156727579
 20
360.0571215973444
 97
0
 75
0
 76
1
 98
0
  0
CIRCLE
  5
127
330
17
100
AcDbEntity
  8
S-REBAR-MAIN
100
AcDbCircle
 10
180.0
 20
360.325
 30
0.0
 40
0.7
  0
HATCH
  5
128
330
17
100
AcDbEntity
  8
S-REBAR-MAIN
 62
1
100
AcDbHatch
 10
0.0
 20
0.0
 30
0.0
210
0.0
220
0.0
230
1.0
  2
SOLID
 70
1
 71
0
 91
1
 92
3
 72
0
 73
1
 93
16
 10
180.7
 20
360.325
 10
180.6467156727579
 20
360.5928784026556
 10
180.4949747468306
 20
360.81997474683055
 10
180.26787840265555
 20
360.9717156727579
 10
180.0
 20
361.025
 10
179.73212159734445
 20
360.9717156727579
 10
179.5050252531694
 20
360.81997474683055
 10
179.3532843272421
 20
360.5928784026556
 10
179.3
 20
360.325
 10
179.3532843272421
 20
360.0571215973444
 10
179.5050252531694
 20
359.8300252531694
 10
179.73212159734445
 20
359.67828432724207
 10
180.0
 20
359.625
 10
180.26787840265555
 20
359.67828432724207
 10
180.4949747468306
 20
359.8300252531694
 10
180.6467156727579
 20
360.0571215973444
 97
0
 75
0
 76
1
 98
0
  0
CIRCLE
  5
129
330
17
100
AcDbEntity
  8
S-REBAR-MAIN
100
AcDbCircle
 10
183.75
 20
360.325
 30
0.0
 40
0.7
  0
HATCH
  5
12A
330
17
100
AcDbEntity
  8
S-REBAR-MAIN
 62
1
100
AcDbHatch
 10
0.0
 20
0.0
 30
0.0
210
0.0
220
0.0
230
1.0
  2
SOLID
 70
1
 71
0
 91
1
 92
3
 72
0
 73
1
 93
16
 10
184.45
 20
360.325
 10
184.3967156727579
 20
360.5928784026556
 10
184.2449747468306
 20
360.81997474683055
 10
184.01787840265555
 20
360.9717156727579
 10
183.75
 20
361.025
 10
183.48212159734445
 20
360.9717156727579
 10
183.2550252531694
 20
360.81997474683055
 10
183.1032843272421
 20
360.5928784026556
 10
183.05
 20
360.325
 10
183.1032843272421
 20
360.0571215973444
 10
183.2550252531694
 20
359.8300252531694
 10
183.48212159734445
 20
359.67828432724207
 10
183.75
 20
359.625
 10
184.01787840265555
 20
359.67828432724207
 10
184.2449747468306
 20
359.8300252531694
 10
184.3967156727579
 20
360.0571215973444
 97
0
 75
0
 76
1
 98
0
  0
CIRCLE
  5
12B
330
17
100
AcDbEntity
  8
S-REBAR-MAIN
100
AcDbCircle
 10
187.5
 20
360.325
 30
0.0
 40
0.7
  0
HATCH
  5
12C
330
17
100
AcDbEntity
  8
S-REBAR-MAIN
 62
1
100
AcDbHatch
 10
0.0
 20
0.0
 30
0.0
210
0.0
220
0.0
230
1.0
  2
SOLID
 70
1
 71
0
 91
1
 92
3
 72
0
 73
1
 93
16
 10
188.2
 20
360.325
 10
188.1467156727579
 20
360.5928784026556
 10
187.9949747468306
 20
360.81997474683055
 10
187.76787840265555
 20
360.9717156727579
 10
187.5
 20
361.025
 10
187.23212159734445
 20
360.9717156727579
 10
187.0050252531694
 20
360.81997474683055
 10
186.8532843272421
 20
360.5928784026556
 10
186.8
 20
360.325
 10
186.8532843272421
 20
360.0571215973444
 10
187.0050252531694
 20
359.8300252531694
 10
187.23212159734445
 20
359.67828432724207
 10
187.5
 20
359.625
 10
187.76787840265555
 20
359.67828432724207
 10
187.9949747468306
 20
359.8300252531694
 10
188.1467156727579
 20
360.0571215973444
 97
0
 75
0
 76
1
 98
0
  0
CIRCLE
  5
12D
330
17
100
AcDbEntity
  8
S-REBAR-MAIN
100
AcDbCircle
 10
191.25
 20
360.325
 30
0.0
 40
0.7
  0
HATCH
  5
12E
330
17
100
AcDbEntity
  8
S-REBAR-MAIN
 62
1
100
AcDbHatch
 10
0.0
 20
0.0
 30
0.0
210
0.0
220
0.0
230
1.0
  2
SOLID
 70
1
 71
0
 91
1
 92
3
 72
0
 73
1
 93
16
 10
191.95
 20
360.325
 10
191.8967156727579
 20
360.5928784026556
 10
191.7449747468306
 20
360.81997474683055
 10
191.51787840265555
 20
360.9717156727579
 10
191.25
 20
361.025
 10
190.98212159734445
 20
360.9717156727579
 10
190.7550252531694
 20
360.81997474683055
 10
190.6032843272421
 20
360.5928784026556
 10
190.55
 20
360.325
 10
190.6032843272421
 20
360.0571215973444
 10
190.7550252531694
 20
359.8300252531694
 10
190.98212159734445
 20
359.67828432724207
 10
191.25
 20
359.625
 10
191.51787840265555
 20
359.67828432724207
 10
191.7449747468306
 20
359.8300252531694
 10
191.8967156727579
 20
360.0571215973444
 97
0
 75
0
 76
1
 98
0
  0
CIRCLE
  5
12F
330
17
100
AcDbEntity
  8
S-REBAR-MAIN
100
AcDbCircle
 10
195.0
 20
360.325
 30
0.0
 40
0.7
  0
HATCH
  5
130
330
17
100
AcDbEntity
  8
S-REBAR-MAIN
 62
1
100
AcDbHatch
 10
0.0
 20
0.0
 30
0.0
210
0.0
220
0.0
230
1.0
  2
SOLID
 70
1
 71
0
 91
1
 92
3
 72
0
 73
1
 93
16
 10
195.7
 20
360.325
 10
195.6467156727579
 20
360.5928784026556
 10
195.4949747468306
 20
360.81997474683055
 10
195.26787840265555
 20
360.9717156727579
 10
195.0
 20
361.025
 10
194.73212159734445
 20
360.9717156727579
 10
194.5050252531694
 20
360.81997474683055
 10
194.3532843272421
 20
360.5928784026556
 10
194.3
 20
360.325
 10
194.3532843272421
 20
360.0571215973444
 10
194.5050252531694
 20
359.8300252531694
 10
194.73212159734445
 20
359.67828432724207
 10
195.0
 20
359.625
 10
195.26787840265555
 20
359.67828432724207
 10
195.4949747468306
 20
359.8300252531694
 10
195.6467156727579
 20
360.0571215973444
 97
0
 75
0
 76
1
 98
0
  0
CIRCLE
  5
131
330
17
100
AcDbEntity
  8
S-REBAR-MAIN
100
AcDbCircle
 10
198.75
 20
360.325
 30
0.0
 40
0.7
  0
HATCH
  5
132
330
17
100
AcDbEntity
  8
S-REBAR-MAIN
 62
1
100
AcDbHatch
 10
0.0
 20
0.0
 30
0.0
210
0.0
220
0.0
230
1.0
  2
SOLID
 70
1
 71
0
 91
1
 92
3
 72
0
 73
1
 93
16
 10
199.45
 20
360.325
 10
199.3967156727579
 20
360.5928784026556
 10
199.2449747468306
 20
360.81997474683055
 10
199.01787840265555
 20
360.9717156727579
 10
198.75
 20
361.025
 10
198.48212159734445
 20
360.9717156727579
 10
198.2550252531694
 20
360.81997474683055
 10
198.1032843272421
 20
360.5928784026556
 10
198.05
 20
360.325
 10
198.1032843272421
 20
360.0571215973444
 10
198.2550252531694
 20
359.8300252531694
 10
198.48212159734445
 20
359.67828432724207
 10
198.75
 20
359.625
 10
199.01787840265555
 20
359.67828432724207
 10
199.2449747468306
 20
359.8300252531694
 10
199.3967156727579
 20
360.0571215973444
 97
0
 75
0
 76
1
 98
0
  0
CIRCLE
  5
133
330
17
100
AcDbEntity
  8
S-REBAR-MAIN
100
AcDbCircle
 10
202.5
 20
360.325
 30
0.0
 40
0.7
  0
HATCH
  5
134
330
17
100
AcDbEntity
  8
S-REBAR-MAIN
 62
1
100
AcDbHatch
 10
0.0
 20
0.0
 30
0.0
210
0.0
220
0.0
230
1.0
  2
SOLID
 70
1
 71
0
 91
1
 92
3
 72
0
 73
1
 93
16
 10
203.2
 20
360.325
 10
203.1467156727579
 20
360.5928784026556
 10
202.9949747468306
 20
360.81997474683055
 10
202.76787840265555
 20
360.9717156727579
 10
202.5
 20
361.025
 10
202.23212159734445
 20
360.9717156727579
 10
202.0050252531694
 20
360.81997474683055
 10
201.8532843272421
 20
360.5928784026556
 10
201.8
 20
360.325
 10
201.8532843272421
 20
360.0571215973444
 10
202.0050252531694
 20
359.8300252531694
 10
202.23212159734445
 20
359.67828432724207
 10
202.5
 20
359.625
 10
202.76787840265555
 20
359.67828432724207
 10
202.9949747468306
 20
359.8300252531694
 10
203.1467156727579
 20
360.0571215973444
 97
0
 75
0
 76
1
 98
0
  0
CIRCLE
  5
135
330
17
100
AcDbEntity
  8
S-REBAR-MAIN
100
AcDbCircle
 10
206.25
 20
360.325
 30
0.0
 40
0.7
  0
HATCH
  5
136
330
17
100
AcDbEntity
  8
S-REBAR-MAIN
 62
1
100
AcDbHatch
 10
0.0
 20
0.0
 30
0.0
210
0.0
220
0.0
230
1.0
  2
SOLID
 70
1
 71
0
 91
1
 92
3
 72
0
 73
1
 93
16
 10
206.95
 20
360.325
 10
206.8967156727579
 20
360.5928784026556
 10
206.7449747468306
 20
360.81997474683055
 10
206.51787840265555
 20
360.9717156727579
 10
206.25
 20
361.025
 10
205.98212159734445
 20
360.9717156727579
 10
205.7550252531694
 20
360.81997474683055
 10
205.6032843272421
 20
360.5928784026556
 10
205.55
 20
360.325
 10
205.6032843272421
 20
360.0571215973444
 10
205.7550252531694
 20
359.8300252531694
 10
205.98212159734445
 20
359.67828432724207
 10
206.25
 20
359.625
 10
206.51787840265555
 20
359.67828432724207
 10
206.7449747468306
 20
359.8300252531694
 10
206.8967156727579
 20
360.0571215973444
 97
0
 75
0
 76
1
 98
0
  0
CIRCLE
  5
137
330
17
100
AcDbEntity
  8
S-REBAR-MAIN
100
AcDbCircle
 10
210.0
 20
360.325
 30
0.0
 40
0.7
  0
HATCH
  5
138
330
17
100
AcDbEntity
  8
S-REBAR-MAIN
 62
1
100
AcDbHatch
 10
0.0
 20
0.0
 30
0.0
210
0.0
220
0.0
230
1.0
  2
SOLID
 70
1
 71
0
 91
1
 92
3
 72
0
 73
1
 93
16
 10
210.7
 20
360.325
 10
210.6467156727579
 20
360.5928784026556
 10
210.4949747468306
 20
360.81997474683055
 10
210.26787840265555
 20
360.9717156727579
 10
210.0
 20
361.025
 10
209.73212159734445
 20
360.9717156727579
 10
209.5050252531694
 20
360.81997474683055
 10
209.3532843272421
 20
360.5928784026556
 10
209.3
 20
360.325
 10
209.3532843272421
 20
360.0571215973444
 10
209.5050252531694
 20
359.8300252531694
 10
209.73212159734445
 20
359.67828432724207
 10
210.0
 20
359.625
 10
210.26787840265555
 20
359.67828432724207
 10
210.4949747468306
 20
359.8300252531694
 10
210.6467156727579
 20
360.0571215973444
 97
0
 75
0
 76
1
 98
0
  0
CIRCLE
  5
139
330
17
100
AcDbEntity
  8
S-REBAR-MAIN
100
AcDbCircle
 10
63.75
 20
342.2
 30
0.0
 40
0.7
  0
HATCH
  5
13A
330
17
100
AcDbEntity
  8
S-REBAR-MAIN
 62
1
100
AcDbHatch
 10
0.0
 20
0.0
 30
0.0
210
0.0
220
0.0
230
1.0
  2
SOLID
 70
1
 71
0
 91
1
 92
3
 72
0
 73
1
 93
16
 10
64.45
 20
342.2
 10
64.3967156727579
 20
342.4678784026556
 10
64.24497474683058
 20
342.69497474683055
 10
64.01787840265557
 20
342.8467156727579
 10
63.75
 20
342.9
 10
63.48212159734444
 20
342.8467156727579
 10
63.255025253169414
 20
342.69497474683055
 10
63.1032843272421
 20
342.4678784026556
 10
63.05
 20
342.2
 10
63.1032843272421
 20
341.9321215973444
 10
63.255025253169414
 20
341.7050252531694
 10
63.48212159734444
 20
341.55328432724207
 10
63.75
 20
341.5
 10
64.01787840265557
 20
341.55328432724207
 10
64.24497474683058
 20
341.7050252531694
 10
64.3967156727579
 20
341.9321215973444
 97
0
 75
0
 76
1
 98
0
  0
CIRCLE
  5
13B
330
17
100
AcDbEntity
  8
S-REBAR-MAIN
100
AcDbCircle
 10
67.5
 20
342.2
 30
0.0
 40
0.7
  0
HATCH
  5
13C
330
17
100
AcDbEntity
  8
S-REBAR-MAIN
 62
1
100
AcDbHatch
 10
0.0
 20
0.0
 30
0.0
210
0.0
220
0.0
230
1.0
  2
SOLID
 70
1
 71
0
 91
1
 92
3
 72
0
 73
1
 93
16
 10
68.2
 20
342.2
 10
68.1467156727579
 20
342.4678784026556
 10
67.99497474683058
 20
342.69497474683055
 10
67.76787840265557
 20
342.8467156727579
 10
67.5
 20
342.9
 10
67.23212159734443
 20
342.8467156727579
 10
67.00502525316942
 20
342.69497474683055
 10
66.8532843272421
 20
342.4678784026556
 10
66.8
 20
342.2
 10
66.8532843272421
 20
341.9321215973444
 10
67.00502525316942
 20
341.7050252531694
 10
67.23212159734443
 20
341.55328432724207
 10
67.5
 20
341.5
 10
67.76787840265557
 20
341.55328432724207
 10
67.99497474683058
 20
341.7050252531694
 10
68.1467156727579
 20
341.9321215973444
 97
0
 75
0
 76
1
 98
0
  0
CIRCLE
  5
13D
330
17
100
AcDbEntity
  8
S-REBAR-MAIN
100
AcDbCircle
 10
71.25
 20
342.2
 30
0.0
 40
0.7
  0
HATCH
  5
13E
330
17
100
AcDbEntity
  8
S-REBAR-MAIN
 62
1
100
AcDbHatch
 10
0.0
 20
0.0
 30
0.0
210
0.0
220
0.0
230
1.0
  2
SOLID
 70
1
 71
0
 91
1
 92
3
 72
0
 73
1
 93
16
 10
71.95
 20
342.2
 10
71.8967156727579
 20
342.4678784026556
 10
71.74497474683058
 20
342.69497474683055
 10
71.51787840265557
 20
342.8467156727579
 10
71.25
 20
342.9
 10
70.98212159734443
 20
342.8467156727579
 10
70.75502525316942
 20
342.69497474683055
 10
70.6032843272421
 20
342.4678784026556
 10
70.55
 20
342.2
 10
70.6032843272421
 20
341.9321215973444
 10
70.75502525316942
 20
341.7050252531694
 10
70.98212159734443
 20
341.55328432724207
 10
71.25
 20
341.5
 10
71.51787840265557
 20
341.55328432724207
 10
71.74497474683058
 20
341.7050252531694
 10
71.8967156727579
 20
341.9321215973444
 97
0
 75
0
 76
1
 98
0
  0
CIRCLE
  5
13F
330
17
100
AcDbEntity
  8
S-REBAR-MAIN
100
AcDbCircle
 10
75.0
 20
342.2
 30
0.0
 40
0.7
  0
HATCH
  5
140
330
17
100
AcDbEntity
  8
S-REBAR-MAIN
 62
1
100
AcDbHatch
 10
0.0
 20
0.0
 30
0.0
210
0.0
220
0.0
230
1.0
  2
SOLID
 70
1
 71
0
 91
1
 92
3
 72
0
 73
1
 93
16
 10
75.7
 20
342.2
 10
75.6467156727579
 20
342.4678784026556
 10
75.49497474683058
 20
342.69497474683055
 10
75.26787840265557
 20
342.8467156727579
 10
75.0
 20
342.9
 10
74.73212159734443
 20
342.8467156727579
 10
74.50502525316942
 20
342.69497474683055
 10
74.3532843272421
 20
342.4678784026556
 10
74.3
 20
342.2
 10
74.3532843272421
 20
341.9321215973444
 10
74.50502525316942
 20
341.7050252531694
 10
74.73212159734443
 20
341.55328432724207
 10
75.0
 20
341.5
 10
75.26787840265557
 20
341.55328432724207
 10
75.49497474683058
 20
341.7050252531694
 10
75.6467156727579
 20
341.9321215973444
 97
0
 75
0
 76
1
 98
0
  0
CIRCLE
  5
141
330
17
100
AcDbEntity
  8
S-REBAR-MAIN
100
AcDbCircle
 10
78.75
 20
342.2
 30
0.0
 40
0.7
  0
HATCH
  5
142
330
17
100
AcDbEntity
  8
S-REBAR-MAIN
 62
1
100
AcDbHatch
 10
0.0
 20
0.0
 30
0.0
210
0.0
220
0.0
230
1.0
  2
SOLID
 70
1
 71
0
 91
1
 92
3
 72
0
 73
1
 93
16
 10
79.45
 20
342.2
 10
79.3967156727579
 20
342.4678784026556
 10
79.24497474683058
 20
342.69497474683055
 10
79.01787840265557
 20
342.8467156727579
 10
78.75
 20
342.9
 10
78.48212159734443
 20
342.8467156727579
 10
78.25502525316942
 20
342.69497474683055
 10
78.1032843272421
 20
342.4678784026556
 10
78.05
 20
342.2
 10
78.1032843272421
 20
341.9321215973444
 10
78.25502525316942
 20
341.7050252531694
 10
78.48212159734443
 20
341.55328432724207
 10
78.75
 20
341.5
 10
79.01787840265557
 20
341.55328432724207
 10
79.24497474683058
 20
341.7050252531694
 10
79.3967156727579
 20
341.9321215973444
 97
0
 75
0
 76
1
 98
0
  0
CIRCLE
  5
143
330
17
100
AcDbEntity
  8
S-REBAR-MAIN
100
AcDbCircle
 10
82.5
 20
342.2
 30
0.0
 40
0.7
  0
HATCH
  5
144
330
17
100
AcDbEntity
  8
S-REBAR-MAIN
 62
1
100
AcDbHatch
 10
0.0
 20
0.0
 30
0.0
210
0.0
220
0.0
230
1.0
  2
SOLID
 70
1
 71
0
 91
1
 92
3
 72
0
 73
1
 93
16
 10
83.2
 20
342.2
 10
83.1467156727579
 20
342.4678784026556
 10
82.99497474683058
 20
342.69497474683055
 10
82.76787840265557
 20
342.8467156727579
 10
82.5
 20
342.9
 10
82.23212159734443
 20
342.8467156727579
 10
82.00502525316942
 20
342.69497474683055
 10
81.8532843272421
 20
342.4678784026556
 10
81.8
 20
342.2
 10
81.8532843272421
 20
341.9321215973444
 10
82.00502525316942
 20
341.7050252531694
 10
82.23212159734443
 20
341.55328432724207
 10
82.5
 20
341.5
 10
82.76787840265557
 20
341.55328432724207
 10
82.99497474683058
 20
341.7050252531694
 10
83.1467156727579
 20
341.9321215973444
 97
0
 75
0
 76
1
 98
0
  0
CIRCLE
  5
145
330
17
100
AcDbEntity
  8
S-REBAR-MAIN
100
AcDbCircle
 10
86.25
 20
342.2
 30
0.0
 40
0.7
  0
HATCH
  5
146
330
17
100
AcDbEntity
  8
S-REBAR-MAIN
 62
1
100
AcDbHatch
 10
0.0
 20
0.0
 30
0.0
210
0.0
220
0.0
230
1.0
  2
SOLID
 70
1
 71
0
 91
1
 92
3
 72
0
 73
1
 93
16
 10
86.95
 20
342.2
 10
86.8967156727579
 20
342.4678784026556
 10
86.74497474683058
 20
342.69497474683055
 10
86.51787840265557
 20
342.8467156727579
 10
86.25
 20
342.9
 10
85.98212159734443
 20
342.8467156727579
 10
85.75502525316942
 20
342.69497474683055
 10
85.6032843272421
 20
342.4678784026556
 10
85.55
 20
342.2
 10
85.6032843272421
 20
341.9321215973444
 10
85.75502525316942
 20
341.7050252531694
 10
85.98212159734443
 20
341.55328432724207
 10
86.25
 20
341.5
 10
86.51787840265557
 20
341.55328432724207
 10
86.74497474683058
 20
341.7050252531694
 10
86.8967156727579
 20
341.9321215973444
 97
0
 75
0
 76
1
 98
0
  0
CIRCLE
  5
147
330
17
100
AcDbEntity
  8
S-REBAR-MAIN
100
AcDbCircle
 10
90.0
 20
342.2
 30
0.0
 40
0.7
  0
HATCH
  5
148
330
17
100
AcDbEntity
  8
S-REBAR-MAIN
 62
1
100
AcDbHatch
 10
0.0
 20
0.0
 30
0.0
210
0.0
220
0.0
230
1.0
  2
SOLID
 70
1
 71
0
 91
1
 92
3
 72
0
 73
1
 93
16
 10
90.7
 20
342.2
 10
90.6467156727579
 20
342.4678784026556
 10
90.49497474683058
 20
342.69497474683055
 10
90.26787840265557
 20
342.8467156727579
 10
90.0
 20
342.9
 10
89.73212159734443
 20
342.8467156727579
 10
89.50502525316942
 20
342.69497474683055
 10
89.3532843272421
 20
342.4678784026556
 10
89.3
 20
342.2
 10
89.3532843272421
 20
341.9321215973444
 10
89.50502525316942
 20
341.7050252531694
 10
89.73212159734443
 20
341.55328432724207
 10
90.0
 20
341.5
 10
90.26787840265557
 20
341.55328432724207
 10
90.49497474683058
 20
341.7050252531694
 10
90.6467156727579
 20
341.9321215973444
 97
0
 75
0
 76
1
 98
0
  0
CIRCLE
  5
149
330
17
100
AcDbEntity
  8
S-REBAR-MAIN
100
AcDbCircle
 10
93.75
 20
342.2
 30
0.0
 40
0.7
  0
HATCH
  5
14A
330
17
100
AcDbEntity
  8
S-REBAR-MAIN
 62
1
100
AcDbHatch
 10
0.0
 20
0.0
 30
0.0
210
0.0
220
0.0
230
1.0
  2
SOLID
 70
1
 71
0
 91
1
 92
3
 72
0
 73
1
 93
16
 10
94.45
 20
342.2
 10
94.3967156727579
 20
342.4678784026556
 10
94.24497474683058
 20
342.69497474683055
 10
94.01787840265557
 20
342.8467156727579
 10
93.75
 20
342.9
 10
93.48212159734443
 20
342.8467156727579
 10
93.25502525316942
 20
342.69497474683055
 10
93.1032843272421
 20
342.4678784026556
 10
93.05
 20
342.2
 10
93.1032843272421
 20
341.9321215973444
 10
93.25502525316942
 20
341.7050252531694
 10
93.48212159734443
 20
341.55328432724207
 10
93.75
 20
341.5
 10
94.01787840265557
 20
341.55328432724207
 10
94.24497474683058
 20
341.7050252531694
 10
94.3967156727579
 20
341.9321215973444
 97
0
 75
0
 76
1
 98
0
  0
CIRCLE
  5
14B
330
17
100
AcDbEntity
  8
S-REBAR-MAIN
100
AcDbCircle
 10
97.5
 20
342.2
 30
0.0
 40
0.7
  0
HATCH
  5
14C
330
17
100
AcDbEntity
  8
S-REBAR-MAIN
 62
1
100
AcDbHatch
 10
0.0
 20
0.0
 30
0.0
210
0.0
220
0.0
230
1.0
  2
SOLID
 70
1
 71
0
 91
1
 92
3
 72
0
 73
1
 93
16
 10
98.2
 20
342.2
 10
98.1467156727579
 20
342.4678784026556
 10
97.99497474683058
 20
342.69497474683055
 10
97.76787840265557
 20
342.8467156727579
 10
97.5
 20
342.9
 10
97.23212159734443
 20
342.8467156727579
 10
97.00502525316942
 20
342.69497474683055
 10
96.8532843272421
 20
342.4678784026556
 10
96.8
 20
342.2
 10
96.8532843272421
 20
341.9321215973444
 10
97.00502525316942
 20
341.7050252531694
 10
97.23212159734443
 20
341.55328432724207
 10
97.5
 20
341.5
 10
97.76787840265557
 20
341.55328432724207
 10
97.99497474683058
 20
341.7050252531694
 10
98.1467156727579
 20
341.9321215973444
 97
0
 75
0
 76
1
 98
0
  0
CIRCLE
  5
14D
330
17
100
AcDbEntity
  8
S-REBAR-MAIN
100
AcDbCircle
 10
101.25
 20
342.2
 30
0.0
 40
0.7
  0
HATCH
  5
14E
330
17
100
AcDbEntity
  8
S-REBAR-MAIN
 62
1
100
AcDbHatch
 10
0.0
 20
0.0
 30
0.0
210
0.0
220
0.0
230
1.0
  2
SOLID
 70
1
 71
0
 91
1
 92
3
 72
0
 73
1
 93
16
 10
101.95
 20
342.2
 10
101.8967156727579
 20
342.4678784026556
 10
101.74497474683058
 20
342.69497474683055
 10
101.51787840265557
 20
342.8467156727579
 10
101.25
 20
342.9
 10
100.98212159734443
 20
342.8467156727579
 10
100.75502525316942
 20
342.69497474683055
 10
100.6032843272421
 20
342.4678784026556
 10
100.55
 20
342.2
 10
100.6032843272421
 20
341.9321215973444
 10
100.75502525316942
 20
341.7050252531694
 10
100.98212159734443
 20
341.55328432724207
 10
101.25
 20
341.5
 10
101.51787840265557
 20
341.55328432724207
 10
101.74497474683058
 20
341.7050252531694
 10
101.8967156727579
 20
341.9321215973444
 97
0
 75
0
 76
1
 98
0
  0
CIRCLE
  5
14F
330
17
100
AcDbEntity
  8
S-REBAR-MAIN
100
AcDbCircle
 10
105.0
 20
342.2
 30
0.0
 40
0.7
  0
HATCH
  5
150
330
17
100
AcDbEntity
  8
S-REBAR-MAIN
 62
1
100
AcDbHatch
 10
0.0
 20
0.0
 30
0.0
210
0.0
220
0.0
230
1.0
  2
SOLID
 70
1
 71
0
 91
1
 92
3
 72
0
 73
1
 93
16
 10
105.7
 20
342.2
 10
105.6467156727579
 20
342.4678784026556
 10
105.49497474683058
 20
342.69497474683055
 10
105.26787840265557
 20
342.8467156727579
 10
105.0
 20
342.9
 10
104.73212159734443
 20
342.8467156727579
 10
104.50502525316942
 20
342.69497474683055
 10
104.3532843272421
 20
342.4678784026556
 10
104.3
 20
342.2
 10
104.3532843272421
 20
341.9321215973444
 10
104.50502525316942
 20
341.7050252531694
 10
104.73212159734443
 20
341.55328432724207
 10
105.0
 20
341.5
 10
105.26787840265557
 20
341.55328432724207
 10
105.49497474683058
 20
341.7050252531694
 10
105.6467156727579
 20
341.9321215973444
 97
0
 75
0
 76
1
 98
0
  0
CIRCLE
  5
151
330
17
100
AcDbEntity
  8
S-REBAR-MAIN
100
AcDbCircle
 10
108.75
 20
342.2
 30
0.0
 40
0.7
  0
HATCH
  5
152
330
17
100
AcDbEntity
  8
S-REBAR-MAIN
 62
1
100
AcDbHatch
 10
0.0
 20
0.0
 30
0.0
210
0.0
220
0.0
230
1.0
  2
SOLID
 70
1
 71
0
 91
1
 92
3
 72
0
 73
1
 93
16
 10
109.45
 20
342.2
 10
109.3967156727579
 20
342.4678784026556
 10
109.24497474683058
 20
342.69497474683055
 10
109.01787840265557
 20
342.8467156727579
 10
108.75
 20
342.9
 10
108.48212159734443
 20
342.8467156727579
 10
108.25502525316942
 20
342.69497474683055
 10
108.1032843272421
 20
342.4678784026556
 10
108.05
 20
342.2
 10
108.1032843272421
 20
341.9321215973444
 10
108.25502525316942
 20
341.7050252531694
 10
108.48212159734443
 20
341.55328432724207
 10
108.75
 20
341.5
 10
109.01787840265557
 20
341.55328432724207
 10
109.24497474683058
 20
341.7050252531694
 10
109.3967156727579
 20
341.9321215973444
 97
0
 75
0
 76
1
 98
0
  0
CIRCLE
  5
153
330
17
100
AcDbEntity
  8
S-REBAR-MAIN
100
AcDbCircle
 10
112.5
 20
342.2
 30
0.0
 40
0.7
  0
HATCH
  5
154
330
17
100
AcDbEntity
  8
S-REBAR-MAIN
 62
1
100
AcDbHatch
 10
0.0
 20
0.0
 30
0.0
210
0.0
220
0.0
230
1.0
  2
SOLID
 70
1
 71
0
 91
1
 92
3
 72
0
 73
1
 93
16
 10
113.2
 20
342.2
 10
113.1467156727579
 20
342.4678784026556
 10
112.99497474683058
 20
342.69497474683055
 10
112.76787840265557
 20
342.8467156727579
 10
112.5
 20
342.9
 10
112.23212159734443
 20
342.8467156727579
 10
112.00502525316942
 20
342.69497474683055
 10
111.8532843272421
 20
342.4678784026556
 10
111.8
 20
342.2
 10
111.8532843272421
 20
341.9321215973444
 10
112.00502525316942
 20
341.7050252531694
 10
112.23212159734443
 20
341.55328432724207
 10
112.5
 20
341.5
 10
112.76787840265557
 20
341.55328432724207
 10
112.99497474683058
 20
341.7050252531694
 10
113.1467156727579
 20
341.9321215973444
 97
0
 75
0
 76
1
 98
0
  0
CIRCLE
  5
155
330
17
100
AcDbEntity
  8
S-REBAR-MAIN
100
AcDbCircle
 10
116.25
 20
342.2
 30
0.0
 40
0.7
  0
HATCH
  5
156
330
17
100
AcDbEntity
  8
S-REBAR-MAIN
 62
1
100
AcDbHatch
 10
0.0
 20
0.0
 30
0.0
210
0.0
220
0.0
230
1.0
  2
SOLID
 70
1
 71
0
 91
1
 92
3
 72
0
 73
1
 93
16
 10
116.95
 20
342.2
 10
116.8967156727579
 20
342.4678784026556
 10
116.74497474683058
 20
342.69497474683055
 10
116.51787840265557
 20
342.8467156727579
 10
116.25
 20
342.9
 10
115.98212159734443
 20
342.8467156727579
 10
115.75502525316942
 20
342.69497474683055
 10
115.6032843272421
 20
342.4678784026556
 10
115.55
 20
342.2
 10
115.6032843272421
 20
341.9321215973444
 10
115.75502525316942
 20
341.7050252531694
 10
115.98212159734443
 20
341.55328432724207
 10
116.25
 20
341.5
 10
116.51787840265557
 20
341.55328432724207
 10
116.74497474683058
 20
341.7050252531694
 10
116.8967156727579
 20
341.9321215973444
 97
0
 75
0
 76
1
 98
0
  0
CIRCLE
  5
157
330
17
100
AcDbEntity
  8
S-REBAR-MAIN
100
AcDbCircle
 10
120.0
 20
342.2
 30
0.0
 40
0.7
  0
HATCH
  5
158
330
17
100
AcDbEntity
  8
S-REBAR-MAIN
 62
1
100
AcDbHatch
 10
0.0
 20
0.0
 30
0.0
210
0.0
220
0.0
230
1.0
  2
SOLID
 70
1
 71
0
 91
1
 92
3
 72
0
 73
1
 93
16
 10
120.7
 20
342.2
 10
120.6467156727579
 20
342.4678784026556
 10
120.49497474683058
 20
342.69497474683055
 10
120.26787840265557
 20
342.8467156727579
 10
120.0
 20
342.9
 10
119.73212159734443
 20
342.8467156727579
 10
119.50502525316942
 20
342.69497474683055
 10
119.3532843272421
 20
342.4678784026556
 10
119.3
 20
342.2
 10
119.3532843272421
 20
341.9321215973444
 10
119.50502525316942
 20
341.7050252531694
 10
119.73212159734443
 20
341.55328432724207
 10
120.0
 20
341.5
 10
120.26787840265557
 20
341.55328432724207
 10
120.49497474683058
 20
341.7050252531694
 10
120.6467156727579
 20
341.9321215973444
 97
0
 75
0
 76
1
 98
0
  0
CIRCLE
  5
159
330
17
100
AcDbEntity
  8
S-REBAR-MAIN
100
AcDbCircle
 10
123.75
 20
342.2
 30
0.0
 40
0.7
  0
HATCH
  5
15A
330
17
100
AcDbEntity
  8
S-REBAR-MAIN
 62
1
100
AcDbHatch
 10
0.0
 20
0.0
 30
0.0
210
0.0
220
0.0
230
1.0
  2
SOLID
 70
1
 71
0
 91
1
 92
3
 72
0
 73
1
 93
16
 10
124.45
 20
342.2
 10
124.3967156727579
 20
342.4678784026556
 10
124.24497474683058
 20
342.69497474683055
 10
124.01787840265557
 20
342.8467156727579
 10
123.75
 20
342.9
 10
123.48212159734443
 20
342.8467156727579
 10
123.25502525316942
 20
342.69497474683055
 10
123.1032843272421
 20
342.4678784026556
 10
123.05
 20
342.2
 10
123.1032843272421
 20
341.9321215973444
 10
123.25502525316942
 20
341.7050252531694
 10
123.48212159734443
 20
341.55328432724207
 10
123.75
 20
341.5
 10
124.01787840265557
 20
341.55328432724207
 10
124.24497474683058
 20
341.7050252531694
 10
124.3967156727579
 20
341.9321215973444
 97
0
 75
0
 76
1
 98
0
  0
CIRCLE
  5
15B
330
17
100
AcDbEntity
  8
S-REBAR-MAIN
100
AcDbCircle
 10
127.5
 20
342.2
 30
0.0
 40
0.7
  0
HATCH
  5
15C
330
17
100
AcDbEntity
  8
S-REBAR-MAIN
 62
1
100
AcDbHatch
 10
0.0
 20
0.0
 30
0.0
210
0.0
220
0.0
230
1.0
  2
SOLID
 70
1
 71
0
 91
1
 92
3
 72
0
 73
1
 93
16
 10
128.2
 20
342.2
 10
128.1467156727579
 20
342.4678784026556
 10
127.99497474683058
 20
342.69497474683055
 10
127.76787840265557
 20
342.8467156727579
 10
127.5
 20
342.9
 10
127.23212159734443
 20
342.8467156727579
 10
127.00502525316942
 20
342.69497474683055
 10
126.8532843272421
 20
342.4678784026556
 10
126.8
 20
342.2
 10
126.8532843272421
 20
341.9321215973444
 10
127.00502525316942
 20
341.7050252531694
 10
127.23212159734443
 20
341.55328432724207
 10
127.5
 20
341.5
 10
127.76787840265557
 20
341.55328432724207
 10
127.99497474683058
 20
341.7050252531694
 10
128.1467156727579
 20
341.9321215973444
 97
0
 75
0
 76
1
 98
0
  0
CIRCLE
  5
15D
330
17
100
AcDbEntity
  8
S-REBAR-MAIN
100
AcDbCircle
 10
131.25
 20
342.2
 30
0.0
 40
0.7
  0
HATCH
  5
15E
330
17
100
AcDbEntity
  8
S-REBAR-MAIN
 62
1
100
AcDbHatch
 10
0.0
 20
0.0
 30
0.0
210
0.0
220
0.0
230
1.0
  2
SOLID
 70
1
 71
0
 91
1
 92
3
 72
0
 73
1
 93
16
 10
131.95
 20
342.2
 10
131.8967156727579
 20
342.4678784026556
 10
131.7449747468306
 20
342.69497474683055
 10
131.51787840265555
 20
342.8467156727579
 10
131.25
 20
342.9
 10
130.98212159734445
 20
342.8467156727579
 10
130.7550252531694
 20
342.69497474683055
 10
130.6032843272421
 20
342.4678784026556
 10
130.55
 20
342.2
 10
130.6032843272421
 20
341.9321215973444
 10
130.7550252531694
 20
341.7050252531694
 10
130.98212159734445
 20
341.55328432724207
 10
131.25
 20
341.5
 10
131.51787840265555
 20
341.55328432724207
 10
131.7449747468306
 20
341.7050252531694
 10
131.8967156727579
 20
341.9321215973444
 97
0
 75
0
 76
1
 98
0
  0
CIRCLE
  5
15F
330
17
100
AcDbEntity
  8
S-REBAR-MAIN
100
AcDbCircle
 10
135.0
 20
342.2
 30
0.0
 40
0.7
  0
HATCH
  5
160
330
17
100
AcDbEntity
  8
S-REBAR-MAIN
 62
1
100
AcDbHatch
 10
0.0
 20
0.0
 30
0.0
210
0.0
220
0.0
230
1.0
  2
SOLID
 70
1
 71
0
 91
1
 92
3
 72
0
 73
1
 93
16
 10
135.7
 20
342.2
 10
135.6467156727579
 20
342.4678784026556
 10
135.4949747468306
 20
342.69497474683055
 10
135.26787840265555
 20
342.8467156727579
 10
135.0
 20
342.9
 10
134.73212159734445
 20
342.8467156727579
 10
134.5050252531694
 20
342.69497474683055
 10
134.3532843272421
 20
342.4678784026556
 10
134.3
 20
342.2
 10
134.3532843272421
 20
341.9321215973444
 10
134.5050252531694
 20
341.7050252531694
 10
134.73212159734445
 20
341.55328432724207
 10
135.0
 20
341.5
 10
135.26787840265555
 20
341.55328432724207
 10
135.4949747468306
 20
341.7050252531694
 10
135.6467156727579
 20
341.9321215973444
 97
0
 75
0
 76
1
 98
0
  0
CIRCLE
  5
161
330
17
100
AcDbEntity
  8
S-REBAR-MAIN
100
AcDbCircle
 10
138.75
 20
342.2
 30
0.0
 40
0.7
  0
HATCH
  5
162
330
17
100
AcDbEntity
  8
S-REBAR-MAIN
 62
1
100
AcDbHatch
 10
0.0
 20
0.0
 30
0.0
210
0.0
220
0.0
230
1.0
  2
SOLID
 70
1
 71
0
 91
1
 92
3
 72
0
 73
1
 93
16
 10
139.45
 20
342.2
 10
139.3967156727579
 20
342.4678784026556
 10
139.2449747468306
 20
342.69497474683055
 10
139.01787840265555
 20
342.8467156727579
 10
138.75
 20
342.9
 10
138.48212159734445
 20
342.8467156727579
 10
138.2550252531694
 20
342.69497474683055
 10
138.1032843272421
 20
342.4678784026556
 10
138.05
 20
342.2
 10
138.1032843272421
 20
341.9321215973444
 10
138.2550252531694
 20
341.7050252531694
 10
138.48212159734445
 20
341.55328432724207
 10
138.75
 20
341.5
 10
139.01787840265555
 20
341.55328432724207
 10
139.2449747468306
 20
341.7050252531694
 10
139.3967156727579
 20
341.9321215973444
 97
0
 75
0
 76
1
 98
0
  0
CIRCLE
  5
163
330
17
100
AcDbEntity
  8
S-REBAR-MAIN
100
AcDbCircle
 10
142.5
 20
342.2
 30
0.0
 40
0.7
  0
HATCH
  5
164
330
17
100
AcDbEntity
  8
S-REBAR-MAIN
 62
1
100
AcDbHatch
 10
0.0
 20
0.0
 30
0.0
210
0.0
220
0.0
230
1.0
  2
SOLID
 70
1
 71
0
 91
1
 92
3
 72
0
 73
1
 93
16
 10
143.2
 20
342.2
 10
143.1467156727579
 20
342.4678784026556
 10
142.9949747468306
 20
342.69497474683055
 10
142.76787840265555
 20
342.8467156727579
 10
142.5
 20
342.9
 10
142.23212159734445
 20
342.8467156727579
 10
142.0050252531694
 20
342.69497474683055
 10
141.8532843272421
 20
342.4678784026556
 10
141.8
 20
342.2
 10
141.8532843272421
 20
341.9321215973444
 10
142.0050252531694
 20
341.7050252531694
 10
142.23212159734445
 20
341.55328432724207
 10
142.5
 20
341.5
 10
142.76787840265555
 20
341.55328432724207
 10
142.9949747468306
 20
341.7050252531694
 10
143.1467156727579
 20
341.9321215973444
 97
0
 75
0
 76
1
 98
0
  0
CIRCLE
  5
165
330
17
100
AcDbEntity
  8
S-REBAR-MAIN
100
AcDbCircle
 10
146.25
 20
342.2
 30
0.0
 40
0.7
  0
HATCH
  5
166
330
17
100
AcDbEntity
  8
S-REBAR-MAIN
 62
1
100
AcDbHatch
 10
0.0
 20
0.0
 30
0.0
210
0.0
220
0.0
230
1.0
  2
SOLID
 70
1
 71
0
 91
1
 92
3
 72
0
 73
1
 93
16
 10
146.95
 20
342.2
 10
146.8967156727579
 20
342.4678784026556
 10
146.7449747468306
 20
342.69497474683055
 10
146.51787840265555
 20
342.8467156727579
 10
146.25
 20
342.9
 10
145.98212159734445
 20
342.8467156727579
 10
145.7550252531694
 20
342.69497474683055
 10
145.6032843272421
 20
342.4678784026556
 10
145.55
 20
342.2
 10
145.6032843272421
 20
341.9321215973444
 10
145.7550252531694
 20
341.7050252531694
 10
145.98212159734445
 20
341.55328432724207
 10
146.25
 20
341.5
 10
146.51787840265555
 20
341.55328432724207
 10
146.7449747468306
 20
341.7050252531694
 10
146.8967156727579
 20
341.9321215973444
 97
0
 75
0
 76
1
 98
0
  0
CIRCLE
  5
167
330
17
100
AcDbEntity
  8
S-REBAR-MAIN
100
AcDbCircle
 10
150.0
 20
342.2
 30
0.0
 40
0.7
  0
HATCH
  5
168
330
17
100
AcDbEntity
  8
S-REBAR-MAIN
 62
1
100
AcDbHatch
 10
0.0
 20
0.0
 30
0.0
210
0.0
220
0.0
230
1.0
  2
SOLID
 70
1
 71
0
 91
1
 92
3
 72
0
 73
1
 93
16
 10
150.7
 20
342.2
 10
150.6467156727579
 20
342.4678784026556
 10
150.4949747468306
 20
342.69497474683055
 10
150.26787840265555
 20
342.8467156727579
 10
150.0
 20
342.9
 10
149.73212159734445
 20
342.8467156727579
 10
149.5050252531694
 20
342.69497474683055
 10
149.3532843272421
 20
342.4678784026556
 10
149.3
 20
342.2
 10
149.3532843272421
 20
341.9321215973444
 10
149.5050252531694
 20
341.7050252531694
 10
149.73212159734445
 20
341.55328432724207
 10
150.0
 20
341.5
 10
150.26787840265555
 20
341.55328432724207
 10
150.4949747468306
 20
341.7050252531694
 10
150.6467156727579
 20
341.9321215973444
 97
0
 75
0
 76
1
 98
0
  0
CIRCLE
  5
169
330
17
100
AcDbEntity
  8
S-REBAR-MAIN
100
AcDbCircle
 10
153.75
 20
342.2
 30
0.0
 40
0.7
  0
HATCH
  5
16A
330
17
100
AcDbEntity
  8
S-REBAR-MAIN
 62
1
100
AcDbHatch
 10
0.0
 20
0.0
 30
0.0
210
0.0
220
0.0
230
1.0
  2
SOLID
 70
1
 71
0
 91
1
 92
3
 72
0
 73
1
 93
16
 10
154.45
 20
342.2
 10
154.3967156727579
 20
342.4678784026556
 10
154.2449747468306
 20
342.69497474683055
 10
154.01787840265555
 20
342.8467156727579
 10
153.75
 20
342.9
 10
153.48212159734445
 20
342.8467156727579
 10
153.2550252531694
 20
342.69497474683055
 10
153.1032843272421
 20
342.4678784026556
 10
153.05
 20
342.2
 10
153.1032843272421
 20
341.9321215973444
 10
153.2550252531694
 20
341.7050252531694
 10
153.48212159734445
 20
341.55328432724207
 10
153.75
 20
341.5
 10
154.01787840265555
 20
341.55328432724207
 10
154.2449747468306
 20
341.7050252531694
 10
154.3967156727579
 20
341.9321215973444
 97
0
 75
0
 76
1
 98
0
  0
CIRCLE
  5
16B
330
17
100
AcDbEntity
  8
S-REBAR-MAIN
100
AcDbCircle
 10
157.5
 20
342.2
 30
0.0
 40
0.7
  0
HATCH
  5
16C
330
17
100
AcDbEntity
  8
S-REBAR-MAIN
 62
1
100
AcDbHatch
 10
0.0
 20
0.0
 30
0.0
210
0.0
220
0.0
230
1.0
  2
SOLID
 70
1
 71
0
 91
1
 92
3
 72
0
 73
1
 93
16
 10
158.2
 20
342.2
 10
158.1467156727579
 20
342.4678784026556
 10
157.9949747468306
 20
342.69497474683055
 10
157.76787840265555
 20
342.8467156727579
 10
157.5
 20
342.9
 10
157.23212159734445
 20
342.8467156727579
 10
157.0050252531694
 20
342.69497474683055
 10
156.8532843272421
 20
342.4678784026556
 10
156.8
 20
342.2
 10
156.8532843272421
 20
341.9321215973444
 10
157.0050252531694
 20
341.7050252531694
 10
157.23212159734445
 20
341.55328432724207
 10
157.5
 20
341.5
 10
157.76787840265555
 20
341.55328432724207
 10
157.9949747468306
 20
341.7050252531694
 10
158.1467156727579
 20
341.9321215973444
 97
0
 75
0
 76
1
 98
0
  0
CIRCLE
  5
16D
330
17
100
AcDbEntity
  8
S-REBAR-MAIN
100
AcDbCircle
 10
161.25
 20
342.2
 30
0.0
 40
0.7
  0
HATCH
  5
16E
330
17
100
AcDbEntity
  8
S-REBAR-MAIN
 62
1
100
AcDbHatch
 10
0.0
 20
0.0
 30
0.0
210
0.0
220
0.0
230
1.0
  2
SOLID
 70
1
 71
0
 91
1
 92
3
 72
0
 73
1
 93
16
 10
161.95
 20
342.2
 10
161.8967156727579
 20
342.4678784026556
 10
161.7449747468306
 20
342.69497474683055
 10
161.51787840265555
 20
342.8467156727579
 10
161.25
 20
342.9
 10
160.98212159734445
 20
342.8467156727579
 10
160.7550252531694
 20
342.69497474683055
 10
160.6032843272421
 20
342.4678784026556
 10
160.55
 20
342.2
 10
160.6032843272421
 20
341.9321215973444
 10
160.7550252531694
 20
341.7050252531694
 10
160.98212159734445
 20
341.55328432724207
 10
161.25
 20
341.5
 10
161.51787840265555
 20
341.55328432724207
 10
161.7449747468306
 20
341.7050252531694
 10
161.8967156727579
 20
341.9321215973444
 97
0
 75
0
 76
1
 98
0
  0
CIRCLE
  5
16F
330
17
100
AcDbEntity
  8
S-REBAR-MAIN
100
AcDbCircle
 10
165.0
 20
342.2
 30
0.0
 40
0.7
  0
HATCH
  5
170
330
17
100
AcDbEntity
  8
S-REBAR-MAIN
 62
1
100
AcDbHatch
 10
0.0
 20
0.0
 30
0.0
210
0.0
220
0.0
230
1.0
  2
SOLID
 70
1
 71
0
 91
1
 92
3
 72
0
 73
1
 93
16
 10
165.7
 20
342.2
 10
165.6467156727579
 20
342.4678784026556
 10
165.4949747468306
 20
342.69497474683055
 10
165.26787840265555
 20
342.8467156727579
 10
165.0
 20
342.9
 10
164.73212159734445
 20
342.8467156727579
 10
164.5050252531694
 20
342.69497474683055
 10
164.3532843272421
 20
342.4678784026556
 10
164.3
 20
342.2
 10
164.3532843272421
 20
341.9321215973444
 10
164.5050252531694
 20
341.7050252531694
 10
164.73212159734445
 20
341.55328432724207
 10
165.0
 20
341.5
 10
165.26787840265555
 20
341.55328432724207
 10
165.4949747468306
 20
341.7050252531694
 10
165.6467156727579
 20
341.9321215973444
 97
0
 75
0
 76
1
 98
0
  0
CIRCLE
  5
171
330
17
100
AcDbEntity
  8
S-REBAR-MAIN
100
AcDbCircle
 10
168.75
 20
342.2
 30
0.0
 40
0.7
  0
HATCH
  5
172
330
17
100
AcDbEntity
  8
S-REBAR-MAIN
 62
1
100
AcDbHatch
 10
0.0
 20
0.0
 30
0.0
210
0.0
220
0.0
230
1.0
  2
SOLID
 70
1
 71
0
 91
1
 92
3
 72
0
 73
1
 93
16
 10
169.45
 20
342.2
 10
169.3967156727579
 20
342.4678784026556
 10
169.2449747468306
 20
342.69497474683055
 10
169.01787840265555
 20
342.8467156727579
 10
168.75
 20
342.9
 10
168.48212159734445
 20
342.8467156727579
 10
168.2550252531694
 20
342.69497474683055
 10
168.1032843272421
 20
342.4678784026556
 10
168.05
 20
342.2
 10
168.1032843272421
 20
341.9321215973444
 10
168.2550252531694
 20
341.7050252531694
 10
168.48212159734445
 20
341.55328432724207
 10
168.75
 20
341.5
 10
169.01787840265555
 20
341.55328432724207
 10
169.2449747468306
 20
341.7050252531694
 10
169.3967156727579
 20
341.9321215973444
 97
0
 75
0
 76
1
 98
0
  0
CIRCLE
  5
173
330
17
100
AcDbEntity
  8
S-REBAR-MAIN
100
AcDbCircle
 10
172.5
 20
342.2
 30
0.0
 40
0.7
  0
HATCH
  5
174
330
17
100
AcDbEntity
  8
S-REBAR-MAIN
 62
1
100
AcDbHatch
 10
0.0
 20
0.0
 30
0.0
210
0.0
220
0.0
230
1.0
  2
SOLID
 70
1
 71
0
 91
1
 92
3
 72
0
 73
1
 93
16
 10
173.2
 20
342.2
 10
173.1467156727579
 20
342.4678784026556
 10
172.9949747468306
 20
342.69497474683055
 10
172.76787840265555
 20
342.8467156727579
 10
172.5
 20
342.9
 10
172.23212159734445
 20
342.8467156727579
 10
172.0050252531694
 20
342.69497474683055
 10
171.8532843272421
 20
342.4678784026556
 10
171.8
 20
342.2
 10
171.8532843272421
 20
341.9321215973444
 10
172.0050252531694
 20
341.7050252531694
 10
172.23212159734445
 20
341.55328432724207
 10
172.5
 20
341.5
 10
172.76787840265555
 20
341.55328432724207
 10
172.9949747468306
 20
341.7050252531694
 10
173.1467156727579
 20
341.9321215973444
 97
0
 75
0
 76
1
 98
0
  0
CIRCLE
  5
175
330
17
100
AcDbEntity
  8
S-REBAR-MAIN
100
AcDbCircle
 10
176.25
 20
342.2
 30
0.0
 40
0.7
  0
HATCH
  5
176
330
17
100
AcDbEntity
  8
S-REBAR-MAIN
 62
1
100
AcDbHatch
 10
0.0
 20
0.0
 30
0.0
210
0.0
220
0.0
230
1.0
  2
SOLID
 70
1
 71
0
 91
1
 92
3
 72
0
 73
1
 93
16
 10
176.95
 20
342.2
 10
176.8967156727579
 20
342.4678784026556
 10
176.7449747468306
 20
342.69497474683055
 10
176.51787840265555
 20
342.8467156727579
 10
176.25
 20
342.9
 10
175.98212159734445
 20
342.8467156727579
 10
175.7550252531694
 20
342.69497474683055
 10
175.6032843272421
 20
342.4678784026556
 10
175.55
 20
342.2
 10
175.6032843272421
 20
341.9321215973444
 10
175.7550252531694
 20
341.7050252531694
 10
175.98212159734445
 20
341.55328432724207
 10
176.25
 20
341.5
 10
176.51787840265555
 20
341.55328432724207
 10
176.7449747468306
 20
341.7050252531694
 10
176.8967156727579
 20
341.9321215973444
 97
0
 75
0
 76
1
 98
0
  0
CIRCLE
  5
177
330
17
100
AcDbEntity
  8
S-REBAR-MAIN
100
AcDbCircle
 10
180.0
 20
342.2
 30
0.0
 40
0.7
  0
HATCH
  5
178
330
17
100
AcDbEntity
  8
S-REBAR-MAIN
 62
1
100
AcDbHatch
 10
0.0
 20
0.0
 30
0.0
210
0.0
220
0.0
230
1.0
  2
SOLID
 70
1
 71
0
 91
1
 92
3
 72
0
 73
1
 93
16
 10
180.7
 20
342.2
 10
180.6467156727579
 20
342.4678784026556
 10
180.4949747468306
 20
342.69497474683055
 10
180.26787840265555
 20
342.8467156727579
 10
180.0
 20
342.9
 10
179.73212159734445
 20
342.8467156727579
 10
179.5050252531694
 20
342.69497474683055
 10
179.3532843272421
 20
342.4678784026556
 10
179.3
 20
342.2
 10
179.3532843272421
 20
341.9321215973444
 10
179.5050252531694
 20
341.7050252531694
 10
179.73212159734445
 20
341.55328432724207
 10
180.0
 20
341.5
 10
180.26787840265555
 20
341.55328432724207
 10
180.4949747468306
 20
341.7050252531694
 10
180.6467156727579
 20
341.9321215973444
 97
0
 75
0
 76
1
 98
0
  0
CIRCLE
  5
179
330
17
100
AcDbEntity
  8
S-REBAR-MAIN
100
AcDbCircle
 10
183.75
 20
342.2
 30
0.0
 40
0.7
  0
HATCH
  5
17A
330
17
100
AcDbEntity
  8
S-REBAR-MAIN
 62
1
100
AcDbHatch
 10
0.0
 20
0.0
 30
0.0
210
0.0
220
0.0
230
1.0
  2
SOLID
 70
1
 71
0
 91
1
 92
3
 72
0
 73
1
 93
16
 10
184.45
 20
342.2
 10
184.3967156727579
 20
342.4678784026556
 10
184.2449747468306
 20
342.69497474683055
 10
184.01787840265555
 20
342.8467156727579
 10
183.75
 20
342.9
 10
183.48212159734445
 20
342.8467156727579
 10
183.2550252531694
 20
342.69497474683055
 10
183.1032843272421
 20
342.4678784026556
 10
183.05
 20
342.2
 10
183.1032843272421
 20
341.9321215973444
 10
183.2550252531694
 20
341.7050252531694
 10
183.48212159734445
 20
341.55328432724207
 10
183.75
 20
341.5
 10
184.01787840265555
 20
341.55328432724207
 10
184.2449747468306
 20
341.7050252531694
 10
184.3967156727579
 20
341.9321215973444
 97
0
 75
0
 76
1
 98
0
  0
CIRCLE
  5
17B
330
17
100
AcDbEntity
  8
S-REBAR-MAIN
100
AcDbCircle
 10
187.5
 20
342.2
 30
0.0
 40
0.7
  0
HATCH
  5
17C
330
17
100
AcDbEntity
  8
S-REBAR-MAIN
 62
1
100
AcDbHatch
 10
0.0
 20
0.0
 30
0.0
210
0.0
220
0.0
230
1.0
  2
SOLID
 70
1
 71
0
 91
1
 92
3
 72
0
 73
1
 93
16
 10
188.2
 20
342.2
 10
188.1467156727579
 20
342.4678784026556
 10
187.9949747468306
 20
342.69497474683055
 10
187.76787840265555
 20
342.8467156727579
 10
187.5
 20
342.9
 10
187.23212159734445
 20
342.8467156727579
 10
187.0050252531694
 20
342.69497474683055
 10
186.8532843272421
 20
342.4678784026556
 10
186.8
 20
342.2
 10
186.8532843272421
 20
341.9321215973444
 10
187.0050252531694
 20
341.7050252531694
 10
187.23212159734445
 20
341.55328432724207
 10
187.5
 20
341.5
 10
187.76787840265555
 20
341.55328432724207
 10
187.9949747468306
 20
341.7050252531694
 10
188.1467156727579
 20
341.9321215973444
 97
0
 75
0
 76
1
 98
0
  0
CIRCLE
  5
17D
330
17
100
AcDbEntity
  8
S-REBAR-MAIN
100
AcDbCircle
 10
191.25
 20
342.2
 30
0.0
 40
0.7
  0
HATCH
  5
17E
330
17
100
AcDbEntity
  8
S-REBAR-MAIN
 62
1
100
AcDbHatch
 10
0.0
 20
0.0
 30
0.0
210
0.0
220
0.0
230
1.0
  2
SOLID
 70
1
 71
0
 91
1
 92
3
 72
0
 73
1
 93
16
 10
191.95
 20
342.2
 10
191.8967156727579
 20
342.4678784026556
 10
191.7449747468306
 20
342.69497474683055
 10
191.51787840265555
 20
342.8467156727579
 10
191.25
 20
342.9
 10
190.98212159734445
 20
342.8467156727579
 10
190.7550252531694
 20
342.69497474683055
 10
190.6032843272421
 20
342.4678784026556
 10
190.55
 20
342.2
 10
190.6032843272421
 20
341.9321215973444
 10
190.7550252531694
 20
341.7050252531694
 10
190.98212159734445
 20
341.55328432724207
 10
191.25
 20
341.5
 10
191.51787840265555
 20
341.55328432724207
 10
191.7449747468306
 20
341.7050252531694
 10
191.8967156727579
 20
341.9321215973444
 97
0
 75
0
 76
1
 98
0
  0
CIRCLE
  5
17F
330
17
100
AcDbEntity
  8
S-REBAR-MAIN
100
AcDbCircle
 10
195.0
 20
342.2
 30
0.0
 40
0.7
  0
HATCH
  5
180
330
17
100
AcDbEntity
  8
S-REBAR-MAIN
 62
1
100
AcDbHatch
 10
0.0
 20
0.0
 30
0.0
210
0.0
220
0.0
230
1.0
  2
SOLID
 70
1
 71
0
 91
1
 92
3
 72
0
 73
1
 93
16
 10
195.7
 20
342.2
 10
195.6467156727579
 20
342.4678784026556
 10
195.4949747468306
 20
342.69497474683055
 10
195.26787840265555
 20
342.8467156727579
 10
195.0
 20
342.9
 10
194.73212159734445
 20
342.8467156727579
 10
194.5050252531694
 20
342.69497474683055
 10
194.3532843272421
 20
342.4678784026556
 10
194.3
 20
342.2
 10
194.3532843272421
 20
341.9321215973444
 10
194.5050252531694
 20
341.7050252531694
 10
194.73212159734445
 20
341.55328432724207
 10
195.0
 20
341.5
 10
195.26787840265555
 20
341.55328432724207
 10
195.4949747468306
 20
341.7050252531694
 10
195.6467156727579
 20
341.9321215973444
 97
0
 75
0
 76
1
 98
0
  0
CIRCLE
  5
181
330
17
100
AcDbEntity
  8
S-REBAR-MAIN
100
AcDbCircle
 10
198.75
 20
342.2
 30
0.0
 40
0.7
  0
HATCH
  5
182
330
17
100
AcDbEntity
  8
S-REBAR-MAIN
 62
1
100
AcDbHatch
 10
0.0
 20
0.0
 30
0.0
210
0.0
220
0.0
230
1.0
  2
SOLID
 70
1
 71
0
 91
1
 92
3
 72
0
 73
1
 93
16
 10
199.45
 20
342.2
 10
199.3967156727579
 20
342.4678784026556
 10
199.2449747468306
 20
342.69497474683055
 10
199.01787840265555
 20
342.8467156727579
 10
198.75
 20
342.9
 10
198.48212159734445
 20
342.8467156727579
 10
198.2550252531694
 20
342.69497474683055
 10
198.1032843272421
 20
342.4678784026556
 10
198.05
 20
342.2
 10
198.1032843272421
 20
341.9321215973444
 10
198.2550252531694
 20
341.7050252531694
 10
198.48212159734445
 20
341.55328432724207
 10
198.75
 20
341.5
 10
199.01787840265555
 20
341.55328432724207
 10
199.2449747468306
 20
341.7050252531694
 10
199.3967156727579
 20
341.9321215973444
 97
0
 75
0
 76
1
 98
0
  0
CIRCLE
  5
183
330
17
100
AcDbEntity
  8
S-REBAR-MAIN
100
AcDbCircle
 10
202.5
 20
342.2
 30
0.0
 40
0.7
  0
HATCH
  5
184
330
17
100
AcDbEntity
  8
S-REBAR-MAIN
 62
1
100
AcDbHatch
 10
0.0
 20
0.0
 30
0.0
210
0.0
220
0.0
230
1.0
  2
SOLID
 70
1
 71
0
 91
1
 92
3
 72
0
 73
1
 93
16
 10
203.2
 20
342.2
 10
203.1467156727579
 20
342.4678784026556
 10
202.9949747468306
 20
342.69497474683055
 10
202.76787840265555
 20
342.8467156727579
 10
202.5
 20
342.9
 10
202.23212159734445
 20
342.8467156727579
 10
202.0050252531694
 20
342.69497474683055
 10
201.8532843272421
 20
342.4678784026556
 10
201.8
 20
342.2
 10
201.8532843272421
 20
341.9321215973444
 10
202.0050252531694
 20
341.7050252531694
 10
202.23212159734445
 20
341.55328432724207
 10
202.5
 20
341.5
 10
202.76787840265555
 20
341.55328432724207
 10
202.9949747468306
 20
341.7050252531694
 10
203.1467156727579
 20
341.9321215973444
 97
0
 75
0
 76
1
 98
0
  0
CIRCLE
  5
185
330
17
100
AcDbEntity
  8
S-REBAR-MAIN
100
AcDbCircle
 10
206.25
 20
342.2
 30
0.0
 40
0.7
  0
HATCH
  5
186
330
17
100
AcDbEntity
  8
S-REBAR-MAIN
 62
1
100
AcDbHatch
 10
0.0
 20
0.0
 30
0.0
210
0.0
220
0.0
230
1.0
  2
SOLID
 70
1
 71
0
 91
1
 92
3
 72
0
 73
1
 93
16
 10
206.95
 20
342.2
 10
206.8967156727579
 20
342.4678784026556
 10
206.7449747468306
 20
342.69497474683055
 10
206.51787840265555
 20
342.8467156727579
 10
206.25
 20
342.9
 10
205.98212159734445
 20
342.8467156727579
 10
205.7550252531694
 20
342.69497474683055
 10
205.6032843272421
 20
342.4678784026556
 10
205.55
 20
342.2
 10
205.6032843272421
 20
341.9321215973444
 10
205.7550252531694
 20
341.7050252531694
 10
205.98212159734445
 20
341.55328432724207
 10
206.25
 20
341.5
 10
206.51787840265555
 20
341.55328432724207
 10
206.7449747468306
 20
341.7050252531694
 10
206.8967156727579
 20
341.9321215973444
 97
0
 75
0
 76
1
 98
0
  0
CIRCLE
  5
187
330
17
100
AcDbEntity
  8
S-REBAR-MAIN
100
AcDbCircle
 10
210.0
 20
342.2
 30
0.0
 40
0.7
  0
HATCH
  5
188
330
17
100
AcDbEntity
  8
S-REBAR-MAIN
 62
1
100
AcDbHatch
 10
0.0
 20
0.0
 30
0.0
210
0.0
220
0.0
230
1.0
  2
SOLID
 70
1
 71
0
 91
1
 92
3
 72
0
 73
1
 93
16
 10
210.7
 20
342.2
 10
210.6467156727579
 20
342.4678784026556
 10
210.4949747468306
 20
342.69497474683055
 10
210.26787840265555
 20
342.8467156727579
 10
210.0
 20
342.9
 10
209.73212159734445
 20
342.8467156727579
 10
209.5050252531694
 20
342.69497474683055
 10
209.3532843272421
 20
342.4678784026556
 10
209.3
 20
342.2
 10
209.3532843272421
 20
341.9321215973444
 10
209.5050252531694
 20
341.7050252531694
 10
209.73212159734445
 20
341.55328432724207
 10
210.0
 20
341.5
 10
210.26787840265555
 20
341.55328432724207
 10
210.4949747468306
 20
341.7050252531694
 10
210.6467156727579
 20
341.9321215973444
 97
0
 75
0
 76
1
 98
0
  0
LWPOLYLINE
  5
189
330
17
100
AcDbEntity
  8
S-REBAR-STIRRUP
100
AcDbPolyline
 90
4
 70
1
 10
63.5
 20
342.0
 10
66.5
 20
342.0
 10
66.5
 20
360.5
 10
63.5
 20
360.5
  0
LWPOLYLINE
  5
18A
330
17
100
AcDbEntity
  8
S-REBAR-STIRRUP
100
AcDbPolyline
 90
4
 70
1
 10
208.5
 20
342.0
 10
211.5
 20
342.0
 10
211.5
 20
360.5
 10
208.5
 20
360.5
  0
LWPOLYLINE
  5
18B
330
17
100
AcDbEntity
  8
S-REBAR-STIRRUP
100
AcDbPolyline
 90
4
 70
1
 10
69.75
 20
342.0
 10
72.75
 20
342.0
 10
72.75
 20
360.5
 10
69.75
 20
360.5
  0
LWPOLYLINE
  5
18C
330
17
100
AcDbEntity
  8
S-REBAR-STIRRUP
100
AcDbPolyline
 90
4
 70
1
 10
202.25
 20
342.0
 10
205.25
 20
342.0
 10
205.25
 20
360.5
 10
202.25
 20
360.5
  0
LWPOLYLINE
  5
18D
330
17
100
AcDbEntity
  8
S-REBAR-STIRRUP
100
AcDbPolyline
 90
4
 70
1
 10
76.0
 20
342.0
 10
79.0
 20
342.0
 10
79.0
 20
360.5
 10
76.0
 20
360.5
  0
LWPOLYLINE
  5
18E
330
17
100
AcDbEntity
  8
S-REBAR-STIRRUP
100
AcDbPolyline
 90
4
 70
1
 10
196.0
 20
342.0
 10
199.0
 20
342.0
 10
199.0
 20
360.5
 10
196.0
 20
360.5
  0
LWPOLYLINE
  5
18F
330
17
100
AcDbEntity
  8
S-REBAR-STIRRUP
100
AcDbPolyline
 90
4
 70
1
 10
82.25
 20
342.0
 10
85.25
 20
342.0
 10
85.25
 20
360.5
 10
82.25
 20
360.5
  0
LWPOLYLINE
  5
190
330
17
100
AcDbEntity
  8
S-REBAR-STIRRUP
100
AcDbPolyline
 90
4
 70
1
 10
189.75
 20
342.0
 10
192.75
 20
342.0
 10
192.75
 20
360.5
 10
189.75
 20
360.5
  0
LWPOLYLINE
  5
191
330
17
100
AcDbEntity
  8
S-REBAR-STIRRUP
100
AcDbPolyline
 90
4
 70
1
 10
88.5
 20
342.0
 10
91.5
 20
342.0
 10
91.5
 20
360.5
 10
88.5
 20
360.5
  0
LWPOLYLINE
  5
192
330
17
100
AcDbEntity
  8
S-REBAR-STIRRUP
100
AcDbPolyline
 90
4
 70
1
 10
183.5
 20
342.0
 10
186.5
 20
342.0
 10
186.5
 20
360.5
 10
183.5
 20
360.5
  0
LWPOLYLINE
  5
193
330
17
100
AcDbEntity
  8
S-REBAR-STIRRUP
100
AcDbPolyline
 90
4
 70
1
 10
94.75
 20
342.0
 10
97.75
 20
342.0
 10
97.75
 20
360.5
 10
94.75
 20
360.5
  0
LWPOLYLINE
  5
194
330
17
100
AcDbEntity
  8
S-REBAR-STIRRUP
100
AcDbPolyline
 90
4
 70
1
 10
177.25
 20
342.0
 10
180.25
 20
342.0
 10
180.25
 20
360.5
 10
177.25
 20
360.5
  0
LWPOLYLINE
  5
195
330
17
100
AcDbEntity
  8
S-REBAR-STIRRUP
100
AcDbPolyline
 90
4
 70
1
 10
113.5
 20
342.0
 10
116.5
 20
342.0
 10
116.5
 20
360.5
 10
113.5
 20
360.5
  0
LWPOLYLINE
  5
196
330
17
100
AcDbEntity
  8
S-REBAR-STIRRUP
100
AcDbPolyline
 90
4
 70
1
 10
121.0
 20
342.0
 10
124.0
 20
342.0
 10
124.0
 20
360.5
 10
121.0
 20
360.5
  0
LWPOLYLINE
  5
197
330
17
100
AcDbEntity
  8
S-REBAR-STIRRUP
100
AcDbPolyline
 90
4
 70
1
 10
128.5
 20
342.0
 10
131.5
 20
342.0
 10
131.5
 20
360.5
 10
128.5
 20
360.5
  0
LWPOLYLINE
  5
198
330
17
100
AcDbEntity
  8
S-REBAR-STIRRUP
100
AcDbPolyline
 90
4
 70
1
 10
136.0
 20
342.0
 10
139.0
 20
342.0
 10
139.0
 20
360.5
 10
136.0
 20
360.5
  0
LWPOLYLINE
  5
199
330
17
100
AcDbEntity
  8
S-REBAR-STIRRUP
100
AcDbPolyline
 90
4
 70
1
 10
143.5
 20
342.0
 10
146.5
 20
342.0
 10
146.5
 20
360.5
 10
143.5
 20
360.5
  0
LWPOLYLINE
  5
19A
330
17
100
AcDbEntity
  8
S-REBAR-STIRRUP
100
AcDbPolyline
 90
4
 70
1
 10
151.0
 20
342.0
 10
154.0
 20
342.0
 10
154.0
 20
360.5
 10
151.0
 20
360.5
  0
LWPOLYLINE
  5
19B
330
17
100
AcDbEntity
  8
S-REBAR-STIRRUP
100
AcDbPolyline
 90
4
 70
1
 10
158.5
 20
342.0
 10
161.5
 20
342.0
 10
161.5
 20
360.5
 10
158.5
 20
360.5
  0
DIMENSION
  5
19C
330
17
100
AcDbEntity
  8
S-DIM
100
AcDbDimension
280
0
  2
*D1
  3
SC-DIM
 10
75.0
 20
290.0
 30
0.0
 11
137.5
 21
291.7
 31
0.0
 70
32
 71
5
  1
<>
100
AcDbAlignedDimension
 13
75.0
 23
340.0
 33
0.0
 14
200.0
 24
340.0
 34
0.0
 50
0.0
100
AcDbRotatedDimension
1001
ACAD
1000
DSTYLE
1002
{
1070
144
1040
40.0
1002
}
  0
DIMENSION
  5
1AB
330
17
100
AcDbEntity
  8
S-DIM
100
AcDbDimension
280
0
  2
*D2
  3
SC-DIM
 10
60.0
 20
275.0
 30
0.0
 11
137.5
 21
276.7
 31
0.0
 70
32
 71
5
  1
<>
100
AcDbAlignedDimension
 13
60.0
 23
340.0
 33
0.0
 14
215.0
 24
340.0
 34
0.0
 50
0.0
100
AcDbRotatedDimension
1001
ACAD
1000
DSTYLE
1002
{
1070
144
1040
40.0
1002
}
  0
DIMENSION
  5
1BA
330
17
100
AcDbEntity
  8
S-DIM
100
AcDbDimension
280
0
  2
*D3
  3
SC-DIM
 10
250.0
 20
340.0
 30
0.0
 11
248.3
 21
351.25
 31
0.0
 70
32
 71
5
  1
<>
100
AcDbAlignedDimension
 13
215.0
 23
340.0
 33
0.0
 14
215.0
 24
362.5
 34
0.0
 50
90.0
100
AcDbRotatedDimension
1001
ACAD
1000
DSTYLE
1002
{
1070
144
1040
40.0
1002
}
  0
DIMENSION
  5
1C9
330
17
100
AcDbEntity
  8
S-DIM
100
AcDbDimension
280
0
  2
*D4
  3
SC-DIM
 10
75.0
 20
417.5
 30
0.0
 11
93.75
 21
419.2
 31
0.0
 70
32
 71
5
  1
<>
100
AcDbAlignedDimension
 13
75.0
 23
362.5
 33
0.0
 14
112.5
 24
362.5
 34
0.0
 50
0.0
100
AcDbRotatedDimension
1001
ACAD
1000
DSTYLE
1002
{
1070
144
1040
40.0
1002
}
  0
TEXT
  5
1D8
330
17
100
AcDbEntity
  8
S-TEXT
100
AcDbText
 10
77.5
 20
420.0
 30
0.0
 40
1.4
  1
END ZONE 1500 - T12 4-LEG @ 250
  7
OpenSans
 11
77.5
 21
420.0
 31
0.0
100
AcDbText
  0
TEXT
  5
1D9
330
17
100
AcDbEntity
  8
S-TEXT
100
AcDbText
 10
125.0
 20
420.0
 30
0.0
 40
1.4
  1
MID ZONE - T12 2-LEG @ 300
  7
OpenSans
 11
125.0
 21
420.0
 31
0.0
100
AcDbText
  0
INSERT
  5
1DA
330
17
100
AcDbEntity
  8
S-LEVEL
100
AcDbBlockReference
  2
LEVELMK
 10
137.5
 20
362.5
 30
0.0
  0
TEXT
  5
1DC
330
17
100
AcDbEntity
  8
S-LEVEL
100
AcDbText
 10
140.5
 20
365.7
 30
0.0
 40
1.8
  1
(-)2.000
  7
OpenSans
 11
140.5
 21
365.7
 31
0.0
100
AcDbText
  0
INSERT
  5
1DD
330
17
100
AcDbEntity
  8
S-LEVEL
100
AcDbBlockReference
  2
LEVELMK
 10
137.5
 20
340.0
 30
0.0
  0
TEXT
  5
1DF
330
17
100
AcDbEntity
  8
S-LEVEL
100
AcDbText
 10
140.5
 20
343.2
 30
0.0
 40
1.8
  1
(-)2.900
  7
OpenSans
 11
140.5
 21
343.2
 31
0.0
100
AcDbText
  0
INSERT
  5
1E0
330
17
100
AcDbEntity
  8
S-CALLOUT
100
AcDbBlockReference
  2
BARMARK
 10
76.0
 20
396.0
 30
0.0
  0
TEXT
  5
1E2
330
17
100
AcDbEntity
  8
S-CALLOUT
100
AcDbText
 10
76.0
 20
396.0
 30
0.0
 40
2.0
  1
S03A
  7
OpenSans
 72
1
 11
76.0
 21
396.0
 31
0.0
100
AcDbText
 73
2
  0
LEADER
  5
1E3
330
17
100
AcDbEntity
  8
S-CALLOUT
100
AcDbLeader
  3
SC-DIM
 73
3
 76
2
 10
90.0
 20
360.325
 30
0.0
 10
76.0
 20
396.0
 30
0.0
  0
INSERT
  5
1E4
330
17
100
AcDbEntity
  8
S-CALLOUT
100
AcDbBlockReference
  2
BARMARK
 10
76.0
 20
348.0
 30
0.0
  0
TEXT
  5
1E6
330
17
100
AcDbEntity
  8
S-CALLOUT
100
AcDbText
 10
76.0
 20
348.0
 30
0.0
 40
2.0
  1
S01A
  7
OpenSans
 72
1
 11
76.0
 21
348.0
 31
0.0
100
AcDbText
 73
2
  0
LEADER
  5
1E7
330
17
100
AcDbEntity
  8
S-CALLOUT
100
AcDbLeader
  3
SC-DIM
 73
3
 76
2
 10
90.0
 20
342.2
 30
0.0
 10
76.0
 20
348.0
 30
0.0
  0
INSERT
  5
1E8
330
17
100
AcDbEntity
  8
S-CALLOUT
100
AcDbBlockReference
  2
BARMARK
 10
196.0
 20
372.0
 30
0.0
  0
TEXT
  5
1EA
330
17
100
AcDbEntity
  8
S-CALLOUT
100
AcDbText
 10
196.0
 20
372.0
 30
0.0
 40
2.0
  1
S05
  7
OpenSans
 72
1
 11
196.0
 21
372.0
 31
0.0
100
AcDbText
 73
2
  0
LEADER
  5
1EB
330
17
100
AcDbEntity
  8
S-CALLOUT
100
AcDbLeader
  3
SC-DIM
 73
3
 76
2
 10
85.0
 20
351.25
 30
0.0
 10
196.0
 20
372.0
 30
0.0
  0
INSERT
  5
1EC
330
17
100
AcDbEntity
  8
S-CALLOUT
100
AcDbBlockReference
  2
BARMARK
 10
140.0
 20
372.0
 30
0.0
  0
TEXT
  5
1EE
330
17
100
AcDbEntity
  8
S-CALLOUT
100
AcDbText
 10
140.0
 20
372.0
 30
0.0
 40
2.0
  1
S06
  7
OpenSans
 72
1
 11
140.0
 21
372.0
 31
0.0
100
AcDbText
 73
2
  0
LEADER
  5
1EF
330
17
100
AcDbEntity
  8
S-CALLOUT
100
AcDbLeader
  3
SC-DIM
 73
3
 76
2
 10
137.5
 20
351.25
 30
0.0
 10
140.0
 20
372.0
 30
0.0
  0
TEXT
  5
1F0
330
17
100
AcDbEntity
  8
S-TITLE
100
AcDbText
 10
60.0
 20
552.0
 30
0.0
 40
3.5
  1
V1   SECTION C-C  -  PRESSURE SLAB, COVER AND SUPPORTS
  7
OpenSans
 11
60.0
 21
552.0
 31
0.0
100
AcDbText
  0
LINE
  5
1F1
330
17
100
AcDbEntity
  8
S-TITLE
100
AcDbLine
 10
60.0
 20
550.2
 30
0.0
 11
207.84862692565306
 21
550.2
 31
0.0
  0
TEXT
  5
1F2
330
17
100
AcDbEntity
  8
S-TEXT
100
AcDbText
 10
60.0
 20
544.8
 30
0.0
 40
2.0
  1
SCALE 1:40
  7
OpenSans
 11
60.0
 21
544.8
 31
0.0
100
AcDbText
  0
TEXT
  5
1F3
330
17
100
AcDbEntity
  8
S-TITLE
100
AcDbText
 10
352.0
 20
547.5
 30
0.0
 40
2.5
  1
ENGINEERED COVER BUILD-UP - AND CONFLICT C17
  7
OpenSans
 11
352.0
 21
547.5
 31
0.0
100
AcDbText
  0
TEXT
  5
1F4
330
17
100
AcDbEntity
  8
S-NOTE
100
AcDbText
 10
352.0
 20
543.375
 30
0.0
 40
2.0
  1
LAYER                       t     gamma   kPa   FUNCTION
  7
OpenSans
 11
352.0
 21
543.375
 31
0.0
100
AcDbText
  0
TEXT
  5
1F5
330
17
100
AcDbEntity
  8
S-NOTE
100
AcDbText
 10
352.0
 20
540.325
 30
0.0
 40
2.0
  1
Topsoil / turf             300     18     5.40  concealment, erosion
  7
OpenSans
 11
352.0
 21
540.325
 31
0.0
100
AcDbText
  0
TEXT
  5
1F6
330
17
100
AcDbEntity
  8
S-NOTE
100
AcDbText
 10
352.0
 20
537.2750000000001
 30
0.0
 40
2.0
  1
Granular filter            150     19     2.85  stops fines clogging
  7
OpenSans
 11
352.0
 21
537.2750000000001
 31
0.0
100
AcDbText
  0
TEXT
  5
1F7
330
17
100
AcDbEntity
  8
S-NOTE
100
AcDbText
 10
352.0
 20
534.2250000000001
 30
0.0
 40
2.0
  1
RC burster slab M30        200     25     5.00  BREAKS UP A PENETRATOR
  7
OpenSans
 11
352.0
 21
534.2250000000001
 31
0.0
100
AcDbText
  0
TEXT
  5
1F8
330
17
100
AcDbEntity
  8
S-NOTE
100
AcDbText
 10
352.0
 20
531.1750000000002
 30
0.0
 40
2.0
  1
Crushed basalt 25-75       500     17     8.50  scatters burster energy
  7
OpenSans
 11
352.0
 21
531.1750000000002
 31
0.0
100
AcDbText
  0
TEXT
  5
1F9
330
17
100
AcDbEntity
  8
S-NOTE
100
AcDbText
 10
352.0
 20
528.1250000000002
 30
0.0
 40
2.0
  1
Compacted fill 95 % MDD    750     20    15.00  RADIATION MASS
  7
OpenSans
 11
352.0
 21
528.1250000000002
 31
0.0
100
AcDbText
  0
TEXT
  5
1FA
330
17
100
AcDbEntity
  8
S-NOTE
100
AcDbText
 10
352.0
 20
525.0750000000003
 30
0.0
 40
2.0
  1
Protection screed          100     24     2.40  protects the membrane
  7
OpenSans
 11
352.0
 21
525.0750000000003
 31
0.0
100
AcDbText
  0
TEXT
  5
1FB
330
17
100
AcDbEntity
  8
S-NOTE
100
AcDbText
 10
352.0
 20
522.0250000000003
 30
0.0
 40
2.0
  1
TOTAL                     2000           39.15   <- COLUMN SUM
  7
OpenSans
 11
352.0
 21
522.0250000000003
 31
0.0
100
AcDbText
  0
TEXT
  5
1FC
330
17
100
AcDbEntity
  8
S-NOTE
100
AcDbText
 10
352.0
 20
518.9750000000004
 30
0.0
 40
2.0
  1
STATED IN THE MASTER                     40.65   <- HELD  *** C17 ***
  7
OpenSans
 11
352.0
 21
518.9750000000004
 31
0.0
100
AcDbText
  0
TEXT
  5
1FD
330
17
100
AcDbEntity
  8
S-NOTE
100
AcDbText
 10
352.0
 20
512.8750000000005
 30
0.0
 40
2.0
  1
WHY 2.0 m - NOT BLAST AND NOT FALLOUT.  A buried roof takes full p_so
  7
OpenSans
 11
352.0
 21
512.8750000000005
 31
0.0
100
AcDbText
  0
TEXT
  5
1FE
330
17
100
AcDbEntity
  8
S-NOTE
100
AcDbText
 10
352.0
 20
509.82500000000044
 30
0.0
 40
2.0
  1
regardless (IS 4991 Cl. 7.2), and 1.0 m already gives a protection
  7
OpenSans
 11
352.0
 21
509.82500000000044
 31
0.0
100
AcDbText
  0
TEXT
  5
1FF
330
17
100
AcDbEntity
  8
S-NOTE
100
AcDbText
 10
352.0
 20
506.77500000000043
 30
0.0
 40
2.0
  1
factor of about 2200 against a requirement of about 1000.  THE SECOND
  7
OpenSans
 11
352.0
 21
506.77500000000043
 31
0.0
100
AcDbText
  0
TEXT
  5
200
330
17
100
AcDbEntity
  8
S-NOTE
100
AcDbText
 10
352.0
 20
503.7250000000004
 30
0.0
 40
2.0
  1
METRE IS BOUGHT ENTIRELY FOR PROMPT NEUTRON AND GAMMA ATTENUATION,
  7
OpenSans
 11
352.0
 21
503.7250000000004
 31
0.0
100
AcDbText
  0
TEXT
  5
201
330
17
100
AcDbEntity
  8
S-NOTE
100
AcDbText
 10
352.0
 20
500.6750000000004
 30
0.0
 40
2.0
  1
which needs mass and needs it ABOVE the slab.
  7
OpenSans
 11
352.0
 21
500.6750000000004
 31
0.0
100
AcDbText
  0
TEXT
  5
202
330
17
100
AcDbEntity
  8
S-NOTE
100
AcDbText
 10
352.0
 20
497.6250000000004
 30
0.0
 40
2.0
  1
Reducing 4.0 m to 2.0 m saved 2 m of rock excavation, 2 m of shaft,
  7
OpenSans
 11
352.0
 21
497.6250000000004
 31
0.0
100
AcDbText
  0
TEXT
  5
203
330
17
100
AcDbEntity
  8
S-NOTE
100
AcDbText
 10
352.0
 20
494.5750000000004
 30
0.0
 40
2.0
  1
one stair flight and 2 m of headroom.
  7
OpenSans
 11
352.0
 21
494.5750000000004
 31
0.0
100
AcDbText
  0
LWPOLYLINE
  5
204
330
17
100
AcDbEntity
  8
S-TITLE
100
AcDbPolyline
 90
4
 70
1
 10
350.0
 20
489.5250000000004
 10
638.0
 20
489.5250000000004
 10
638.0
 20
552.0
 10
350.0
 20
552.0
  0
TEXT
  5
205
330
17
100
AcDbEntity
  8
S-TITLE
100
AcDbText
 10
352.0
 20
479.0250000000004
 30
0.0
 40
2.5
  1
SECTION NOTES
  7
OpenSans
 11
352.0
 21
479.0250000000004
 31
0.0
100
AcDbText
  0
TEXT
  5
206
330
17
100
AcDbEntity
  8
S-NOTE
100
AcDbText
 10
352.0
 20
474.9000000000004
 30
0.0
 40
2.0
  1
1  TOP AND BOTTOM CURTAINS T25 @ 150 BOTH WAYS, 75 COVER TO EACH FACE.
  7
OpenSans
 11
352.0
 21
474.9000000000004
 31
0.0
100
AcDbText
  0
TEXT
  5
207
330
17
100
AcDbEntity
  8
S-NOTE
100
AcDbText
 10
352.0
 20
471.85000000000036
 30
0.0
 40
2.0
  1
2  TOP STEEL IS CONTINUOUS OVER EVERY SUPPORT and is anchored Ld = 1000
  7
OpenSans
 11
352.0
 21
471.85000000000036
 31
0.0
100
AcDbText
  0
TEXT
  5
208
330
17
100
AcDbEntity
  8
S-NOTE
100
AcDbText
 10
352.0
 20
468.80000000000035
 30
0.0
 40
2.0
  1
   into the wall.  Bottom steel is continuous, laps staggered at mid-span.
  7
OpenSans
 11
352.0
 21
468.80000000000035
 31
0.0
100
AcDbText
  0
TEXT
  5
209
330
17
100
AcDbEntity
  8
S-NOTE
100
AcDbText
 10
352.0
 20
465.75000000000034
 30
0.0
 40
2.0
  1
3  LINKS:  T12 4-LEGGED @ 250 IN THE END 1500 EACH SIDE, T12 2-LEGGED @ 300
  7
OpenSans
 11
352.0
 21
465.75000000000034
 31
0.0
100
AcDbText
  0
TEXT
  5
20A
330
17
100
AcDbEntity
  8
S-NOTE
100
AcDbText
 10
352.0
 20
462.70000000000033
 30
0.0
 40
2.0
  1
   ELSEWHERE.  The end-zone spacing is set by IS 456 Cl. 26.5.1.5 (limit 300),
  7
OpenSans
 11
352.0
 21
462.70000000000033
 31
0.0
100
AcDbText
  0
TEXT
  5
20B
330
17
100
AcDbEntity
  8
S-NOTE
100
AcDbText
 10
352.0
 20
459.6500000000003
 30
0.0
 40
2.0
  1
   not by the shear demand, which would allow 409.
  7
OpenSans
 11
352.0
 21
459.6500000000003
 31
0.0
100
AcDbText
  0
TEXT
  5
20C
330
17
100
AcDbEntity
  8
S-NOTE
100
AcDbText
 10
352.0
 20
456.6000000000003
 30
0.0
 40
2.0
  1
4  500 x 500 HAUNCH WITH T20 @ 150 DIAGONALS AT BOTH SUPPORTS - R-304.
  7
OpenSans
 11
352.0
 21
456.6000000000003
 31
0.0
100
AcDbText
  0
TEXT
  5
20D
330
17
100
AcDbEntity
  8
S-NOTE
100
AcDbText
 10
352.0
 20
453.5500000000003
 30
0.0
 40
2.0
  1
5  THE WATERPROOFING MEMBRANE SITS DIRECTLY ON THE SLAB and is protected by
  7
OpenSans
 11
352.0
 21
453.5500000000003
 31
0.0
100
AcDbText
  0
TEXT
  5
20E
330
17
100
AcDbEntity
  8
S-NOTE
100
AcDbText
 10
352.0
 20
450.5000000000003
 30
0.0
 40
2.0
  1
   the 100 screed, which is the first layer of the engineered cover - R-805.
  7
OpenSans
 11
352.0
 21
450.5000000000003
 31
0.0
100
AcDbText
  0
TEXT
  5
20F
330
17
100
AcDbEntity
  8
S-NOTE
100
AcDbText
 10
352.0
 20
447.4500000000003
 30
0.0
 40
2.0
  1
6  NO MOVEMENT JOINT ANYWHERE IN THE SLAB.
  7
OpenSans
 11
352.0
 21
447.4500000000003
 31
0.0
100
AcDbText
  0
LWPOLYLINE
  5
210
330
17
100
AcDbEntity
  8
S-TITLE
100
AcDbPolyline
 90
4
 70
1
 10
350.0
 20
442.40000000000026
 10
638.0
 20
442.40000000000026
 10
638.0
 20
483.5250000000004
 10
350.0
 20
483.5250000000004
  0
TEXT
  5
211
330
17
100
AcDbEntity
  8
S-TITLE
100
AcDbText
 10
650.0
 20
547.5
 30
0.0
 40
2.5
  1
MATERIALS, COVER AND ANCHORAGE
  7
OpenSans
 11
650.0
 21
547.5
 31
0.0
100
AcDbText
  0
TEXT
  5
212
330
17
100
AcDbEntity
  8
S-NOTE
100
AcDbText
 10
650.0
 20
543.375
 30
0.0
 40
2.0
  1
CONCRETE          M35 to IS 456 Table 5.  w/c <= 0.45, cement >= 340 kg/m3.
  7
OpenSans
 11
650.0
 21
543.375
 31
0.0
100
AcDbText
  0
TEXT
  5
213
330
17
100
AcDbEntity
  8
S-NOTE
100
AcDbText
 10
650.0
 20
540.375
 30
0.0
 40
2.0
  1
                  Integral crystalline waterproofing admixture.
  7
OpenSans
 11
650.0
 21
540.375
 31
0.0
100
AcDbText
  0
TEXT
  5
214
330
17
100
AcDbEntity
  8
S-NOTE
100
AcDbText
 10
650.0
 20
537.375
 30
0.0
 40
2.0
  1
                  Blinding M15, 100 thk.
  7
OpenSans
 11
650.0
 21
537.375
 31
0.0
100
AcDbText
  0
TEXT
  5
215
330
17
100
AcDbEntity
  8
S-NOTE
100
AcDbText
 10
650.0
 20
534.375
 30
0.0
 40
2.0
  1
REINFORCEMENT     Fe500D to IS 1786:2008.
  7
OpenSans
 11
650.0
 21
534.375
 31
0.0
100
AcDbText
  0
TEXT
  5
216
330
17
100
AcDbEntity
  8
S-NOTE
100
AcDbText
 10
650.0
 20
531.375
 30
0.0
 40
2.0
  1
Ec = 5000 sqrt(fck) = 29 580 N/mm2   (IS 456 Cl. 6.2.3.1)
  7
OpenSans
 11
650.0
 21
531.375
 31
0.0
100
AcDbText
  0
TEXT
  5
217
330
17
100
AcDbEntity
  8
S-NOTE
100
AcDbText
 10
650.0
 20
528.375
 30
0.0
 40
2.0
  1
gamma_m           1.5 concrete / 1.15 steel  (IS 456 Cl. 36.4.2)
  7
OpenSans
 11
650.0
 21
528.375
 31
0.0
100
AcDbText
  0
TEXT
  5
218
330
17
100
AcDbEntity
  8
S-NOTE
100
AcDbText
 10
650.0
 20
522.375
 30
0.0
 40
2.0
  1
BLAST CASE ONLY   IS 4991 Cl. 10.3.1:  fck,dyn 43.75  ·  fy,dyn 625
  7
OpenSans
 11
650.0
 21
522.375
 31
0.0
100
AcDbText
  0
TEXT
  5
219
330
17
100
AcDbEntity
  8
S-NOTE
100
AcDbText
 10
650.0
 20
519.375
 30
0.0
 40
2.0
  1
*** NO DYNAMIC INCREASE ON SHEAR - IS 4991 Cl. 10.3.1.1 ***
  7
OpenSans
 11
650.0
 21
519.375
 31
0.0
100
AcDbText
  0
TEXT
  5
21A
330
17
100
AcDbEntity
  8
S-NOTE
100
AcDbText
 10
650.0
 20
516.375
 30
0.0
 40
2.0
  1
tau_c and tau_c,max are read at the STATIC M35 value in every check.
  7
OpenSans
 11
650.0
 21
516.375
 31
0.0
100
AcDbText
  0
TEXT
  5
21B
330
17
100
AcDbEntity
  8
S-NOTE
100
AcDbText
 10
650.0
 20
510.375
 30
0.0
 40
2.0
  1
COVER   75 cast against blinding · 50 formed earth face
  7
OpenSans
 11
650.0
 21
510.375
 31
0.0
100
AcDbText
  0
TEXT
  5
21C
330
17
100
AcDbEntity
  8
S-NOTE
100
AcDbText
 10
650.0
 20
507.375
 30
0.0
 40
2.0
  1
        40 internal · 30 stair-shaft faces
  7
OpenSans
 11
650.0
 21
507.375
 31
0.0
100
AcDbText
  0
TEXT
  5
21D
330
17
100
AcDbEntity
  8
S-NOTE
100
AcDbText
 10
650.0
 20
504.375
 30
0.0
 40
2.0
  1
        The 5 mm reduction IS 456 Table 16 permits for M35 is NOT taken.
  7
OpenSans
 11
650.0
 21
504.375
 31
0.0
100
AcDbText
  0
TEXT
  5
21E
330
17
100
AcDbEntity
  8
S-NOTE
100
AcDbText
 10
650.0
 20
498.375
 30
0.0
 40
2.0
  1
Ld TENSION 40 phi  ·  Ld COMPRESSION 32 phi  ·  LAP 50 phi STAGGERED
  7
OpenSans
 11
650.0
 21
498.375
 31
0.0
100
AcDbText
  0
TEXT
  5
21F
330
17
100
AcDbEntity
  8
S-NOTE
100
AcDbText
 10
650.0
 20
495.375
 30
0.0
 40
2.0
  1
T8 320/400 · T10 400/500 · T12 480/600 · T16 640/800
  7
OpenSans
 11
650.0
 21
495.375
 31
0.0
100
AcDbText
  0
TEXT
  5
220
330
17
100
AcDbEntity
  8
S-NOTE
100
AcDbText
 10
650.0
 20
492.375
 30
0.0
 40
2.0
  1
T20 800/1000 · T25 1000/1250        (Ld / lap, mm)
  7
OpenSans
 11
650.0
 21
492.375
 31
0.0
100
AcDbText
  0
TEXT
  5
221
330
17
100
AcDbEntity
  8
S-NOTE
100
AcDbText
 10
650.0
 20
489.375
 30
0.0
 40
2.0
  1
The IS 4991 Cl. 10.3.1.1 +25 % blast bond allowance is NOT taken.
  7
OpenSans
 11
650.0
 21
489.375
 31
0.0
100
AcDbText
  0
TEXT
  5
222
330
17
100
AcDbEntity
  8
S-NOTE
100
AcDbText
 10
650.0
 20
483.375
 30
0.0
 40
2.0
  1
*** MAXIMUM BAR SPACING 150 BOTH CURTAINS - EMP REQUIREMENT ***
  7
OpenSans
 11
650.0
 21
483.375
 31
0.0
100
AcDbText
  0
TEXT
  5
223
330
17
100
AcDbEntity
  8
S-NOTE
100
AcDbText
 10
650.0
 20
480.375
 30
0.0
 40
2.0
  1
    stricter than IS 456 Cl. 26.3.3 and than every code minimum.
  7
OpenSans
 11
650.0
 21
480.375
 31
0.0
100
AcDbText
  0
LWPOLYLINE
  5
224
330
17
100
AcDbEntity
  8
S-TITLE
100
AcDbPolyline
 90
4
 70
1
 10
648.0
 20
475.375
 10
831.0
 20
475.375
 10
831.0
 20
552.0
 10
648.0
 20
552.0
  0
LWPOLYLINE
  5
225
330
17
100
AcDbEntity
  8
S-TITLE
100
AcDbPolyline
 90
4
 70
1
 10
651.0
 20
10.0
 10
831.0
 20
10.0
 10
831.0
 20
110.0
 10
651.0
 20
110.0
  0
LINE
  5
226
330
17
100
AcDbEntity
  8
S-TITLE
100
AcDbLine
 10
651.0
 20
30.0
 30
0.0
 11
831.0
 21
30.0
 31
0.0
  0
LINE
  5
227
330
17
100
AcDbEntity
  8
S-TITLE
100
AcDbLine
 10
651.0
 20
42.0
 30
0.0
 11
831.0
 21
42.0
 31
0.0
  0
LINE
  5
228
330
17
100
AcDbEntity
  8
S-TITLE
100
AcDbLine
 10
651.0
 20
54.0
 30
0.0
 11
831.0
 21
54.0
 31
0.0
  0
LINE
  5
229
330
17
100
AcDbEntity
  8
S-TITLE
100
AcDbLine
 10
651.0
 20
66.0
 30
0.0
 11
831.0
 21
66.0
 31
0.0
  0
LINE
  5
22A
330
17
100
AcDbEntity
  8
S-TITLE
100
AcDbLine
 10
651.0
 20
88.0
 30
0.0
 11
831.0
 21
88.0
 31
0.0
  0
LINE
  5
22B
330
17
100
AcDbEntity
  8
S-TITLE
100
AcDbLine
 10
763.0
 20
10.0
 30
0.0
 11
763.0
 21
30.0
 31
0.0
  0
LINE
  5
22C
330
17
100
AcDbEntity
  8
S-TITLE
100
AcDbLine
 10
797.0
 20
10.0
 30
0.0
 11
797.0
 21
30.0
 31
0.0
  0
TEXT
  5
22D
330
17
100
AcDbEntity
  8
S-TITLE
100
AcDbText
 10
653.0
 20
24.6
 30
0.0
 40
1.4
  1
DRAWING No.
  7
OpenSans
 11
653.0
 21
24.6
 31
0.0
100
AcDbText
  0
TEXT
  5
22E
330
17
100
AcDbEntity
  8
S-TITLE
100
AcDbText
 10
673.0
 20
14.2
 30
0.0
 40
3.5
  1
R-302
  7
OpenSans
 11
673.0
 21
14.2
 31
0.0
100
AcDbText
  0
TEXT
  5
22F
330
17
100
AcDbEntity
  8
S-TITLE
100
AcDbText
 10
765.0
 20
24.6
 30
0.0
 40
1.4
  1
REV
  7
OpenSans
 11
765.0
 21
24.6
 31
0.0
100
AcDbText
  0
TEXT
  5
230
330
17
100
AcDbEntity
  8
S-TITLE
100
AcDbText
 10
769.0
 20
14.2
 30
0.0
 40
3.5
  1
SC1
  7
OpenSans
 11
769.0
 21
14.2
 31
0.0
100
AcDbText
  0
TEXT
  5
231
330
17
100
AcDbEntity
  8
S-TITLE
100
AcDbText
 10
799.0
 20
24.6
 30
0.0
 40
1.4
  1
SHEET
  7
OpenSans
 11
799.0
 21
24.6
 31
0.0
100
AcDbText
  0
TEXT
  5
232
330
17
100
AcDbEntity
  8
S-TITLE
100
AcDbText
 10
799.0
 20
15.0
 30
0.0
 40
1.6
  1
14 OF 30
  7
OpenSans
 11
799.0
 21
15.0
 31
0.0
100
AcDbText
  0
LINE
  5
233
330
17
100
AcDbEntity
  8
S-TITLE
100
AcDbLine
 10
747.0
 20
30.0
 30
0.0
 11
747.0
 21
42.0
 31
0.0
  0
TEXT
  5
234
330
17
100
AcDbEntity
  8
S-TITLE
100
AcDbText
 10
653.0
 20
34.4
 30
0.0
 40
1.6
  1
SCALE   1:40
  7
OpenSans
 11
653.0
 21
34.4
 31
0.0
100
AcDbText
  0
TEXT
  5
235
330
17
100
AcDbEntity
  8
S-TITLE
100
AcDbText
 10
749.0
 20
34.4
 30
0.0
 40
1.6
  1
DATE   04.09.2026
  7
OpenSans
 11
749.0
 21
34.4
 31
0.0
100
AcDbText
  0
TEXT
  5
236
330
17
100
AcDbEntity
  8
S-TITLE
100
AcDbText
 10
653.0
 20
46.4
 30
0.0
 40
1.4
  1
DESIGNED  [PLACEHOLDER]
  7
OpenSans
 11
653.0
 21
46.4
 31
0.0
100
AcDbText
  0
TEXT
  5
237
330
17
100
AcDbEntity
  8
S-TITLE
100
AcDbText
 10
713.0
 20
46.4
 30
0.0
 40
1.4
  1
CHECKED  [PLACEHOLDER]
  7
OpenSans
 11
713.0
 21
46.4
 31
0.0
100
AcDbText
  0
TEXT
  5
238
330
17
100
AcDbEntity
  8
S-TITLE
100
AcDbText
 10
773.0
 20
46.4
 30
0.0
 40
1.4
  1
APPROVED  [PLACEHOLDER]
  7
OpenSans
 11
773.0
 21
46.4
 31
0.0
100
AcDbText
  0
TEXT
  5
239
330
17
100
AcDbEntity
  8
S-TITLE
100
AcDbText
 10
653.0
 20
58.4
 30
0.0
 40
1.4
  1
STATUS
  7
OpenSans
 11
653.0
 21
58.4
 31
0.0
100
AcDbText
  0
TEXT
  5
23A
330
17
100
AcDbEntity
  8
S-BLAST
100
AcDbText
 10
673.0
 20
58.0
 30
0.0
 40
1.6
  1
FOR REVIEW - NOT FOR CONSTRUCTION
  7
OpenSans
 11
673.0
 21
58.0
 31
0.0
100
AcDbText
  0
TEXT
  5
23B
330
17
100
AcDbEntity
  8
S-TITLE
100
AcDbText
 10
653.0
 20
83.4
 30
0.0
 40
1.4
  1
DRAWING TITLE
  7
OpenSans
 11
653.0
 21
83.4
 31
0.0
100
AcDbText
  0
TEXT
  5
23C
330
17
100
AcDbEntity
  8
S-TITLE
100
AcDbText
 10
653.0
 20
75.4
 30
0.0
 40
2.4
  1
ROOF SECTIONS
  7
OpenSans
 11
653.0
 21
75.4
 31
0.0
100
AcDbText
  0
TEXT
  5
23D
330
17
100
AcDbEntity
  8
S-TITLE
100
AcDbText
 10
653.0
 20
68.8
 30
0.0
 40
1.4
  1
SECTION C-C · TYPICAL SLAB SECTION · LINK ZONES
  7
OpenSans
 11
653.0
 21
68.8
 31
0.0
100
AcDbText
  0
TEXT
  5
23E
330
17
100
AcDbEntity
  8
S-TITLE
100
AcDbText
 10
653.0
 20
105.2
 30
0.0
 40
1.4
  1
PROJECT
  7
OpenSans
 11
653.0
 21
105.2
 31
0.0
100
AcDbText
  0
TEXT
  5
23F
330
17
100
AcDbEntity
  8
S-TITLE
100
AcDbText
 10
653.0
 20
99.6
 30
0.0
 40
1.6
  1
UNDERGROUND CBRN-HARDENED BLAST-RESISTANT
  7
OpenSans
 11
653.0
 21
99.6
 31
0.0
100
AcDbText
  0
TEXT
  5
240
330
17
100
AcDbEntity
  8
S-TITLE
100
AcDbText
 10
653.0
 20
95.0
 30
0.0
 40
1.6
  1
PROTECTIVE STRUCTURE  -  PUNE, MAHARASHTRA
  7
OpenSans
 11
653.0
 21
95.0
 31
0.0
100
AcDbText
  0
TEXT
  5
241
330
17
100
AcDbEntity
  8
S-TITLE
100
AcDbText
 10
653.0
 20
90.0
 30
0.0
 40
1.4
  1
STRUCTURAL PHASE 2 REV A + M1   ·   SENTRY POST NOT IN THIS PACKAGE
  7
OpenSans
 11
653.0
 21
90.0
 31
0.0
100
AcDbText
  0
ENDSEC
  0
SECTION
  2
OBJECTS
  0
DICTIONARY
  5
A
330
0
100
AcDbDictionary
281
1
  3
ACAD_COLOR
350
B
  3
ACAD_GROUP
350
C
  3
ACAD_LAYOUT
350
D
  3
ACAD_MATERIAL
350
E
  3
ACAD_MLEADERSTYLE
350
F
  3
ACAD_MLINESTYLE
350
10
  3
ACAD_PLOTSETTINGS
350
11
  3
ACAD_PLOTSTYLENAME
350
12
  3
ACAD_SCALELIST
350
14
  3
ACAD_TABLESTYLE
350
15
  3
ACAD_VISUALSTYLE
350
16
  3
EZDXF_META
350
2D
  0
DICTIONARY
  5
B
330
A
100
AcDbDictionary
281
1
  0
DICTIONARY
  5
C
330
A
100
AcDbDictionary
281
1
  0
DICTIONARY
  5
D
330
A
100
AcDbDictionary
281
1
  3
Model
350
1A
  3
Layout1
350
1E
  0
DICTIONARY
  5
E
330
A
100
AcDbDictionary
281
1
  3
ByBlock
350
1F
  3
ByLayer
350
20
  3
Global
350
21
  0
DICTIONARY
  5
F
330
A
100
AcDbDictionary
281
1
  3
Standard
350
2C
  0
DICTIONARY
  5
10
330
A
100
AcDbDictionary
281
1
  3
Standard
350
22
  0
DICTIONARY
  5
11
330
A
100
AcDbDictionary
281
1
  0
ACDBDICTIONARYWDFLT
  5
12
330
A
100
AcDbDictionary
281
1
  3
Normal
350
13
100
AcDbDictionaryWithDefault
340
13
  0
ACDBPLACEHOLDER
  5
13
330
12
  0
DICTIONARY
  5
14
330
A
100
AcDbDictionary
281
1
  0
DICTIONARY
  5
15
330
A
100
AcDbDictionary
281
1
  0
DICTIONARY
  5
16
330
A
100
AcDbDictionary
281
1
  3
2dWireframe
350
5A
  3
Basic
350
5B
  3
Brighten
350
5C
  3
ColorChange
350
5D
  3
Conceptual
350
5E
  3
Dim
350
5F
  3
EdgeColorOff
350
60
  3
Facepattern
350
61
  3
Flat
350
62
  3
FlatWithEdges
350
63
  3
Gouraud
350
64
  3
GouraudWithEdges
350
65
  3
Hidden
350
66
  3
JitterOff
350
67
  3
Linepattern
350
68
  3
Modeling
350
69
  3
OverhangOff
350
6A
  3
Realistic
350
6B
  3
Shaded
350
6C
  3
Shaded with edges
350
6D
  3
Shades of Gray
350
6E
  3
Sketchy
350
6F
  3
Thicken
350
70
  3
Wireframe
350
71
  3
X-Ray
350
72
  0
LAYOUT
  5
1A
330
D
100
AcDbPlotSettings
  1

  4
A3
  6

 40
7.5
 41
20.0
 42
7.5
 43
20.0
 44
420.0
 45
297.0
 46
0.0
 47
0.0
 48
0.0
 49
0.0
140
0.0
141
0.0
142
1.0
143
1.0
 70
1024
 72
1
 73
0
 74
5
  7

 75
16
 76
0
 77
2
 78
300
147
1.0
148
0.0
149
0.0
100
AcDbLayout
  1
Model
 70
1
 71
0
 10
0.0
 20
0.0
 11
420.0
 21
297.0
 12
0.0
 22
0.0
 32
0.0
 14
1e+20
 24
1e+20
 34
1e+20
 15
-1e+20
 25
-1e+20
 35
-1e+20
146
0.0
 13
0.0
 23
0.0
 33
0.0
 16
1.0
 26
0.0
 36
0.0
 17
0.0
 27
1.0
 37
0.0
 76
1
330
17
  0
LAYOUT
  5
1E
330
D
100
AcDbPlotSettings
  1

  4
A3
  6

 40
7.5
 41
20.0
 42
7.5
 43
20.0
 44
420.0
 45
297.0
 46
0.0
 47
0.0
 48
0.0
 49
0.0
140
0.0
141
0.0
142
1.0
143
1.0
 70
0
 72
1
 73
0
 74
5
  7

 75
16
 76
0
 77
2
 78
300
147
1.0
148
0.0
149
0.0
100
AcDbLayout
  1
Layout1
 70
1
 71
1
 10
0.0
 20
0.0
 11
420.0
 21
297.0
 12
0.0
 22
0.0
 32
0.0
 14
1e+20
 24
1e+20
 34
1e+20
 15
-1e+20
 25
-1e+20
 35
-1e+20
146
0.0
 13
0.0
 23
0.0
 33
0.0
 16
1.0
 26
0.0
 36
0.0
 17
0.0
 27
1.0
 37
0.0
 76
1
330
1B
  0
MATERIAL
  5
1F
102
{ACAD_REACTORS
330
E
102
}
330
E
100
AcDbMaterial
  1
ByBlock
  2

 70
0
 40
1.0
 71
1
 41
1.0
 91
-1023410177
 42
1.0
 72
1
  3

 73
1
 74
1
 75
1
 44
0.5
 73
0
 45
1.0
 46
1.0
 77
1
  4

 78
1
 79
1
170
1
 48
1.0
171
1
  6

172
1
173
1
174
1
140
1.0
141
1.0
175
1
  7

176
1
177
1
178
1
143
1.0
179
1
  8

270
1
271
1
272
1
145
1.0
146
1.0
273
1
  9

274
1
275
1
276
1
 42
1.0
 72
1
  3

 73
1
 74
1
 75
1
 94
63
  0
MATERIAL
  5
20
102
{ACAD_REACTORS
330
E
102
}
330
E
100
AcDbMaterial
  1
ByLayer
  2

 70
0
 40
1.0
 71
1
 41
1.0
 91
-1023410177
 42
1.0
 72
1
  3

 73
1
 74
1
 75
1
 44
0.5
 73
0
 45
1.0
 46
1.0
 77
1
  4

 78
1
 79
1
170
1
 48
1.0
171
1
  6

172
1
173
1
174
1
140
1.0
141
1.0
175
1
  7

176
1
177
1
178
1
143
1.0
179
1
  8

270
1
271
1
272
1
145
1.0
146
1.0
273
1
  9

274
1
275
1
276
1
 42
1.0
 72
1
  3

 73
1
 74
1
 75
1
 94
63
  0
MATERIAL
  5
21
102
{ACAD_REACTORS
330
E
102
}
330
E
100
AcDbMaterial
  1
Global
  2

 70
0
 40
1.0
 71
1
 41
1.0
 91
-1023410177
 42
1.0
 72
1
  3

 73
1
 74
1
 75
1
 44
0.5
 73
0
 45
1.0
 46
1.0
 77
1
  4

 78
1
 79
1
170
1
 48
1.0
171
1
  6

172
1
173
1
174
1
140
1.0
141
1.0
175
1
  7

176
1
177
1
178
1
143
1.0
179
1
  8

270
1
271
1
272
1
145
1.0
146
1.0
273
1
  9

274
1
275
1
276
1
 42
1.0
 72
1
  3

 73
1
 74
1
 75
1
 94
63
  0
MLINESTYLE
  5
22
102
{ACAD_REACTORS
330
10
102
}
330
10
100
AcDbMlineStyle
  2
Standard
 70
0
  3

 62
256
 51
90.0
 52
90.0
 71
2
 49
0.5
 62
256
  6
BYLAYER
 49
-0.5
 62
256
  6
BYLAYER
  0
MLEADERSTYLE
  5
2C
102
{ACAD_REACTORS
330
F
102
}
330
F
100
AcDbMLeaderStyle
179
2
170
2
171
1
172
0
 90
2
 40
0.0
 41
0.0
173
1
 91
-1056964608
 92
-2
290
1
 42
2.0
291
1
 43
8.0
  3
Standard
 44
4.0
300

342
29
174
1
175
1
176
0
178
1
 93
-1056964608
 45
4.0
292
0
297
0
 46
4.0
 94
-1056964608
 47
1.0
 49
1.0
140
1.0
294
1
141
0.0
177
0
142
1.0
295
0
296
0
143
3.75
271
0
272
9
273
9
  0
DICTIONARY
  5
2D
330
A
100
AcDbDictionary
280
1
281
1
  3
CREATED_BY_EZDXF
350
2E
  3
WRITTEN_BY_EZDXF
350
244
  0
DICTIONARYVAR
  5
2E
330
2D
100
DictionaryVariables
280
0
  1
1.4.4 @ 2026-09-09T16:15:23.444436+00:00
  0
VISUALSTYLE
  5
5A
102
{ACAD_REACTORS
330
16
102
}
330
16
100
AcDbVisualStyle
  2
2dWireframe
 70
4
 90
0
 40
0.6
 62
7
290
0
291
0
  0
VISUALSTYLE
  5
5B
102
{ACAD_REACTORS
330
16
102
}
330
16
100
AcDbVisualStyle
  2
Basic
 70
7
 90
1
 40
0.6
 62
7
290
0
291
1
  0
VISUALSTYLE
  5
5C
102
{ACAD_REACTORS
330
16
102
}
330
16
100
AcDbVisualStyle
  2
Brighten
 70
12
 90
2
 40
0.6
 62
7
290
0
291
1
  0
VISUALSTYLE
  5
5D
102
{ACAD_REACTORS
330
16
102
}
330
16
100
AcDbVisualStyle
  2
ColorChange
 70
16
 90
2
 40
0.6
 62
8
290
0
291
1
  0
VISUALSTYLE
  5
5E
102
{ACAD_REACTORS
330
16
102
}
330
16
100
AcDbVisualStyle
  2
Conceptual
 70
9
 90
3
 40
0.6
 62
7
290
0
291
0
  0
VISUALSTYLE
  5
5F
102
{ACAD_REACTORS
330
16
102
}
330
16
100
AcDbVisualStyle
  2
Dim
 70
11
 90
2
 40
0.6
 62
7
290
0
291
1
  0
VISUALSTYLE
  5
60
102
{ACAD_REACTORS
330
16
102
}
330
16
100
AcDbVisualStyle
  2
EdgeColorOff
 70
22
 90
2
 40
0.6
 62
7
290
0
291
1
  0
VISUALSTYLE
  5
61
102
{ACAD_REACTORS
330
16
102
}
330
16
100
AcDbVisualStyle
  2
Facepattern
 70
15
 90
2
 40
0.6
 62
7
290
0
291
1
  0
VISUALSTYLE
  5
62
102
{ACAD_REACTORS
330
16
102
}
330
16
100
AcDbVisualStyle
  2
Flat
 70
0
 90
2
 40
0.6
 62
7
290
0
291
1
  0
VISUALSTYLE
  5
63
102
{ACAD_REACTORS
330
16
102
}
330
16
100
AcDbVisualStyle
  2
FlatWithEdges
 70
1
 90
2
 40
0.6
 62
7
290
0
291
1
  0
VISUALSTYLE
  5
64
102
{ACAD_REACTORS
330
16
102
}
330
16
100
AcDbVisualStyle
  2
Gouraud
 70
2
 90
2
 40
0.6
 62
7
290
0
291
1
  0
VISUALSTYLE
  5
65
102
{ACAD_REACTORS
330
16
102
}
330
16
100
AcDbVisualStyle
  2
GouraudWithEdges
 70
3
 90
2
 40
0.6
 62
7
290
0
291
1
  0
VISUALSTYLE
  5
66
102
{ACAD_REACTORS
330
16
102
}
330
16
100
AcDbVisualStyle
  2
Hidden
 70
6
 90
1
 40
0.6
 62
7
290
0
291
0
  0
VISUALSTYLE
  5
67
102
{ACAD_REACTORS
330
16
102
}
330
16
100
AcDbVisualStyle
  2
JitterOff
 70
20
 90
2
 40
0.6
 62
7
290
0
291
1
  0
VISUALSTYLE
  5
68
102
{ACAD_REACTORS
330
16
102
}
330
16
100
AcDbVisualStyle
  2
Linepattern
 70
14
 90
2
 40
0.6
 62
7
290
0
291
1
  0
VISUALSTYLE
  5
69
102
{ACAD_REACTORS
330
16
102
}
330
16
100
AcDbVisualStyle
  2
Modeling
 70
10
 90
2
 40
0.6
 62
7
290
0
291
0
  0
VISUALSTYLE
  5
6A
102
{ACAD_REACTORS
330
16
102
}
330
16
100
AcDbVisualStyle
  2
OverhangOff
 70
21
 90
2
 40
0.6
 62
7
290
0
291
1
  0
VISUALSTYLE
  5
6B
102
{ACAD_REACTORS
330
16
102
}
330
16
100
AcDbVisualStyle
  2
Realistic
 70
8
 90
2
 40
0.6
 62
7
290
0
291
0
  0
VISUALSTYLE
  5
6C
102
{ACAD_REACTORS
330
16
102
}
330
16
100
AcDbVisualStyle
  2
Shaded
 70
27
 90
2
 40
0.6
 62
7
290
0
291
0
  0
VISUALSTYLE
  5
6D
102
{ACAD_REACTORS
330
16
102
}
330
16
100
AcDbVisualStyle
  2
Shaded with edges
 70
26
 90
2
 40
0.6
 62
7
290
0
291
0
  0
VISUALSTYLE
  5
6E
102
{ACAD_REACTORS
330
16
102
}
330
16
100
AcDbVisualStyle
  2
Shades of Gray
 70
23
 90
2
 40
0.6
 62
7
290
0
291
0
  0
VISUALSTYLE
  5
6F
102
{ACAD_REACTORS
330
16
102
}
330
16
100
AcDbVisualStyle
  2
Sketchy
 70
24
 90
1
 40
0.6
 62
7
290
0
291
0
  0
VISUALSTYLE
  5
70
102
{ACAD_REACTORS
330
16
102
}
330
16
100
AcDbVisualStyle
  2
Thicken
 70
13
 90
2
 40
0.6
 62
7
290
0
291
1
  0
VISUALSTYLE
  5
71
102
{ACAD_REACTORS
330
16
102
}
330
16
100
AcDbVisualStyle
  2
Wireframe
 70
5
 90
0
 40
0.6
 62
7
290
0
291
0
  0
VISUALSTYLE
  5
72
102
{ACAD_REACTORS
330
16
102
}
330
16
100
AcDbVisualStyle
  2
X-Ray
 70
25
 90
2
 40
0.5
 62
7
290
0
291
0
  0
DICTIONARYVAR
  5
244
330
2D
100
DictionaryVariables
280
0
  1
1.4.4 @ 2026-09-09T16:15:23.462850+00:00
  0
ENDSEC
  0
EOF
