  0
SECTION
  2
HEADER
  9
$ACADVER
  1
AC1024
  9
$ACADMAINTVER
 70
6
  9
$DWGCODEPAGE
  3
ANSI_1252
  9
$LASTSAVEDBY
  1
ezdxf
  9
$INSBASE
 10
0.0
 20
0.0
 30
0.0
  9
$EXTMIN
 10
1e+20
 20
1e+20
 30
1e+20
  9
$EXTMAX
 10
-1e+20
 20
-1e+20
 30
-1e+20
  9
$LIMMIN
 10
0.0
 20
0.0
  9
$LIMMAX
 10
420.0
 20
297.0
  9
$ORTHOMODE
 70
0
  9
$REGENMODE
 70
1
  9
$FILLMODE
 70
1
  9
$QTEXTMODE
 70
0
  9
$MIRRTEXT
 70
1
  9
$LTSCALE
 40
1.0
  9
$ATTMODE
 70
1
  9
$TEXTSIZE
 40
2.5
  9
$TRACEWID
 40
1.0
  9
$TEXTSTYLE
  7
OpenSans
  9
$CLAYER
  8
0
  9
$CELTYPE
  6
ByLayer
  9
$CECOLOR
 62
256
  9
$CELTSCALE
 40
1.0
  9
$DISPSILH
 70
0
  9
$DIMSCALE
 40
1.0
  9
$DIMASZ
 40
0.175
  9
$DIMEXO
 40
0.125
  9
$DIMDLI
 40
3.75
  9
$DIMRND
 40
0.0
  9
$DIMDLE
 40
0.0
  9
$DIMEXE
 40
0.375
  9
$DIMTP
 40
0.0
  9
$DIMTM
 40
0.0
  9
$DIMTXT
 40
0.25
  9
$DIMCEN
 40
2.5
  9
$DIMTSZ
 40
0.0
  9
$DIMTOL
 70
0
  9
$DIMLIM
 70
0
  9
$DIMTIH
 70
0
  9
$DIMTOH
 70
0
  9
$DIMSE1
 70
0
  9
$DIMSE2
 70
0
  9
$DIMTAD
 70
1
  9
$DIMZIN
 70
12
  9
$DIMBLK
  1
ARCHTICK
  9
$DIMASO
 70
1
  9
$DIMSHO
 70
1
  9
$DIMPOST
  1

  9
$DIMAPOST
  1

  9
$DIMALT
 70
0
  9
$DIMALTD
 70
3
  9
$DIMALTF
 40
0.03937007874
  9
$DIMLFAC
 40
100.0
  9
$DIMTOFL
 70
1
  9
$DIMTVP
 40
0.0
  9
$DIMTIX
 70
0
  9
$DIMSOXD
 70
0
  9
$DIMSAH
 70
0
  9
$DIMBLK1
  1

  9
$DIMBLK2
  1

  9
$DIMSTYLE
  2
EZDXF
  9
$DIMCLRD
 70
0
  9
$DIMCLRE
 70
0
  9
$DIMCLRT
 70
0
  9
$DIMTFAC
 40
0.5
  9
$DIMGAP
 40
0.1
  9
$DIMJUST
 70
0
  9
$DIMSD1
 70
0
  9
$DIMSD2
 70
0
  9
$DIMTOLJ
 70
0
  9
$DIMTZIN
 70
8
  9
$DIMALTZ
 70
0
  9
$DIMALTTZ
 70
0
  9
$DIMUPT
 70
1
  9
$DIMDEC
 70
2
  9
$DIMTDEC
 70
2
  9
$DIMALTU
 70
2
  9
$DIMALTTD
 70
3
  9
$DIMTXSTY
  7
OpenSansCondensed-Light
  9
$DIMAUNIT
 70
0
  9
$DIMADEC
 70
2
  9
$DIMALTRND
 40
0.0
  9
$DIMAZIN
 70
3
  9
$DIMDSEP
 70
46
  9
$DIMATFIT
 70
3
  9
$DIMFRAC
 70
0
  9
$DIMLDRBLK
  1

  9
$DIMLUNIT
 70
2
  9
$DIMLWD
 70
-2
  9
$DIMLWE
 70
-2
  9
$DIMTMOVE
 70
2
  9
$DIMFXL
 40
1.0
  9
$DIMFXLON
 70
0
  9
$DIMJOGANG
 40
0.785398163397
  9
$DIMTFILL
 70
0
  9
$DIMTFILLCLR
 70
0
  9
$DIMARCSYM
 70
0
  9
$DIMLTYPE
  6

  9
$DIMLTEX1
  6

  9
$DIMLTEX2
  6

  9
$DIMTXTDIRECTION
 70
0
  9
$LUNITS
 70
2
  9
$LUPREC
 70
4
  9
$SKETCHINC
 40
1.0
  9
$FILLETRAD
 40
10.0
  9
$AUNITS
 70
0
  9
$AUPREC
 70
2
  9
$MENU
  1
.
  9
$ELEVATION
 40
0.0
  9
$PELEVATION
 40
0.0
  9
$THICKNESS
 40
0.0
  9
$LIMCHECK
 70
0
  9
$CHAMFERA
 40
0.0
  9
$CHAMFERB
 40
0.0
  9
$CHAMFERC
 40
0.0
  9
$CHAMFERD
 40
0.0
  9
$SKPOLY
 70
0
  9
$TDCREATE
 40
2461294.094861111
  9
$TDUCREATE
 40
2458532.153996898
  9
$TDUPDATE
 40
2461294.094861111
  9
$TDUUPDATE
 40
2458532.1544311
  9
$TDINDWG
 40
0.0
  9
$TDUSRTIMER
 40
0.0
  9
$USRTIMER
 70
1
  9
$ANGBASE
 50
0.0
  9
$ANGDIR
 70
0
  9
$PDMODE
 70
0
  9
$PDSIZE
 40
0.0
  9
$PLINEWID
 40
0.0
  9
$SPLFRAME
 70
0
  9
$SPLINETYPE
 70
6
  9
$SPLINESEGS
 70
8
  9
$HANDSEED
  5
487
  9
$SURFTAB1
 70
6
  9
$SURFTAB2
 70
6
  9
$SURFTYPE
 70
6
  9
$SURFU
 70
6
  9
$SURFV
 70
6
  9
$UCSBASE
  2

  9
$UCSNAME
  2

  9
$UCSORG
 10
0.0
 20
0.0
 30
0.0
  9
$UCSXDIR
 10
1.0
 20
0.0
 30
0.0
  9
$UCSYDIR
 10
0.0
 20
1.0
 30
0.0
  9
$UCSORTHOREF
  2

  9
$UCSORTHOVIEW
 70
0
  9
$UCSORGTOP
 10
0.0
 20
0.0
 30
0.0
  9
$UCSORGBOTTOM
 10
0.0
 20
0.0
 30
0.0
  9
$UCSORGLEFT
 10
0.0
 20
0.0
 30
0.0
  9
$UCSORGRIGHT
 10
0.0
 20
0.0
 30
0.0
  9
$UCSORGFRONT
 10
0.0
 20
0.0
 30
0.0
  9
$UCSORGBACK
 10
0.0
 20
0.0
 30
0.0
  9
$PUCSBASE
  2

  9
$PUCSNAME
  2

  9
$PUCSORG
 10
0.0
 20
0.0
 30
0.0
  9
$PUCSXDIR
 10
1.0
 20
0.0
 30
0.0
  9
$PUCSYDIR
 10
0.0
 20
1.0
 30
0.0
  9
$PUCSORTHOREF
  2

  9
$PUCSORTHOVIEW
 70
0
  9
$PUCSORGTOP
 10
0.0
 20
0.0
 30
0.0
  9
$PUCSORGBOTTOM
 10
0.0
 20
0.0
 30
0.0
  9
$PUCSORGLEFT
 10
0.0
 20
0.0
 30
0.0
  9
$PUCSORGRIGHT
 10
0.0
 20
0.0
 30
0.0
  9
$PUCSORGFRONT
 10
0.0
 20
0.0
 30
0.0
  9
$PUCSORGBACK
 10
0.0
 20
0.0
 30
0.0
  9
$USERI1
 70
0
  9
$USERI2
 70
0
  9
$USERI3
 70
0
  9
$USERI4
 70
0
  9
$USERI5
 70
0
  9
$USERR1
 40
0.0
  9
$USERR2
 40
0.0
  9
$USERR3
 40
0.0
  9
$USERR4
 40
0.0
  9
$USERR5
 40
0.0
  9
$WORLDVIEW
 70
1
  9
$SHADEDGE
 70
3
  9
$SHADEDIF
 70
70
  9
$TILEMODE
 70
1
  9
$MAXACTVP
 70
64
  9
$PINSBASE
 10
0.0
 20
0.0
 30
0.0
  9
$PLIMCHECK
 70
0
  9
$PEXTMIN
 10
1e+20
 20
1e+20
 30
1e+20
  9
$PEXTMAX
 10
-1e+20
 20
-1e+20
 30
-1e+20
  9
$PLIMMIN
 10
0.0
 20
0.0
  9
$PLIMMAX
 10
420.0
 20
297.0
  9
$UNITMODE
 70
0
  9
$VISRETAIN
 70
1
  9
$PLINEGEN
 70
0
  9
$PSLTSCALE
 70
1
  9
$TREEDEPTH
 70
3020
  9
$CMLSTYLE
  2
Standard
  9
$CMLJUST
 70
0
  9
$CMLSCALE
 40
20.0
  9
$PROXYGRAPHICS
 70
1
  9
$MEASUREMENT
 70
1
  9
$CELWEIGHT
370
-1
  9
$ENDCAPS
280
0
  9
$JOINSTYLE
280
0
  9
$LWDISPLAY
290
0
  9
$INSUNITS
 70
4
  9
$HYPERLINKBASE
  1

  9
$STYLESHEET
  1

  9
$XEDIT
290
1
  9
$CEPSNTYPE
380
0
  9
$PSTYLEMODE
290
1
  9
$FINGERPRINTGUID
  2
{8D755FCA-F66A-45C1-B0E6-DBE4534030A9}
  9
$VERSIONGUID
  2
{869FE25C-33BF-46B5-8EC8-3E587E4C6BAD}
  9
$EXTNAMES
290
1
  9
$PSVPSCALE
 40
0.0
  9
$OLESTARTUP
290
0
  9
$SORTENTS
280
127
  9
$INDEXCTL
280
0
  9
$HIDETEXT
280
1
  9
$XCLIPFRAME
280
1
  9
$HALOGAP
280
0
  9
$OBSCOLOR
 70
257
  9
$OBSLTYPE
280
0
  9
$INTERSECTIONDISPLAY
280
0
  9
$INTERSECTIONCOLOR
 70
257
  9
$DIMASSOC
280
2
  9
$PROJECTNAME
  1

  9
$CAMERADISPLAY
290
0
  9
$LENSLENGTH
 40
50.0
  9
$CAMERAHEIGHT
 40
0.0
  9
$STEPSPERSEC
 40
24.0
  9
$STEPSIZE
 40
100.0
  9
$3DDWFPREC
 40
2.0
  9
$PSOLWIDTH
 40
0.005
  9
$PSOLHEIGHT
 40
0.08
  9
$LOFTANG1
 40
1.570796326795
  9
$LOFTANG2
 40
1.570796326795
  9
$LOFTMAG1
 40
0.0
  9
$LOFTMAG2
 40
0.0
  9
$LOFTPARAM
 70
7
  9
$LOFTNORMALS
280
1
  9
$LATITUDE
 40
37.795
  9
$LONGITUDE
 40
-122.394
  9
$NORTHDIRECTION
 40
0.0
  9
$TIMEZONE
 70
-8000
  9
$LIGHTGLYPHDISPLAY
280
1
  9
$TILEMODELIGHTSYNCH
280
1
  9
$CMATERIAL
347
20
  9
$SOLIDHIST
280
0
  9
$SHOWHIST
280
1
  9
$DWFFRAME
280
2
  9
$DGNFRAME
280
2
  9
$REALWORLDSCALE
290
1
  9
$INTERFERECOLOR
 62
256
  9
$CSHADOW
280
0
  9
$SHADOWPLANELOCATION
 40
0.0
  0
ENDSEC
  0
SECTION
  2
CLASSES
  0
CLASS
  1
ACDBDICTIONARYWDFLT
  2
AcDbDictionaryWithDefault
  3
ObjectDBX Classes
 90
0
 91
0
280
0
281
0
  0
CLASS
  1
SUN
  2
AcDbSun
  3
SCENEOE
 90
1153
 91
0
280
0
281
0
  0
CLASS
  1
VISUALSTYLE
  2
AcDbVisualStyle
  3
ObjectDBX Classes
 90
4095
 91
0
280
0
281
0
  0
CLASS
  1
MATERIAL
  2
AcDbMaterial
  3
ObjectDBX Classes
 90
1153
 91
0
280
0
281
0
  0
CLASS
  1
SCALE
  2
AcDbScale
  3
ObjectDBX Classes
 90
1153
 91
0
280
0
281
0
  0
CLASS
  1
TABLESTYLE
  2
AcDbTableStyle
  3
ObjectDBX Classes
 90
4095
 91
0
280
0
281
0
  0
CLASS
  1
MLEADERSTYLE
  2
AcDbMLeaderStyle
  3
ACDB_MLEADERSTYLE_CLASS
 90
4095
 91
0
280
0
281
0
  0
CLASS
  1
DICTIONARYVAR
  2
AcDbDictionaryVar
  3
ObjectDBX Classes
 90
0
 91
0
280
0
281
0
  0
CLASS
  1
CELLSTYLEMAP
  2
AcDbCellStyleMap
  3
ObjectDBX Classes
 90
1152
 91
0
280
0
281
0
  0
CLASS
  1
MENTALRAYRENDERSETTINGS
  2
AcDbMentalRayRenderSettings
  3
SCENEOE
 90
1024
 91
0
280
0
281
0
  0
CLASS
  1
ACDBDETAILVIEWSTYLE
  2
AcDbDetailViewStyle
  3
ObjectDBX Classes
 90
1025
 91
0
280
0
281
0
  0
CLASS
  1
ACDBSECTIONVIEWSTYLE
  2
AcDbSectionViewStyle
  3
ObjectDBX Classes
 90
1025
 91
0
280
0
281
0
  0
CLASS
  1
RASTERVARIABLES
  2
AcDbRasterVariables
  3
ISM
 90
0
 91
0
280
0
281
0
  0
CLASS
  1
ACDBPLACEHOLDER
  2
AcDbPlaceHolder
  3
ObjectDBX Classes
 90
0
 91
0
280
0
281
0
  0
CLASS
  1
LAYOUT
  2
AcDbLayout
  3
ObjectDBX Classes
 90
0
 91
0
280
0
281
0
  0
ENDSEC
  0
SECTION
  2
TABLES
  0
TABLE
  2
VPORT
  5
8
330
0
100
AcDbSymbolTable
 70
1
  0
VPORT
  5
23
330
8
100
AcDbSymbolTableRecord
100
AcDbViewportTableRecord
  2
*Active
 70
0
 10
0.0
 20
0.0
 11
1.0
 21
1.0
 12
0.0
 22
0.0
 13
0.0
 23
0.0
 14
0.5
 24
0.5
 15
0.5
 25
0.5
 16
0.0
 26
0.0
 36
1.0
 17
0.0
 27
0.0
 37
0.0
 40
1000.0
 41
1.34
 42
50.0
 43
0.0
 44
0.0
 50
0.0
 51
0.0
 71
0
 72
1000
 73
1
 74
3
 75
0
 76
0
 77
0
 78
0
281
0
 65
0
146
0.0
  0
ENDTAB
  0
TABLE
  2
LTYPE
  5
2
330
0
100
AcDbSymbolTable
 70
21
  0
LTYPE
  5
24
330
2
100
AcDbSymbolTableRecord
100
AcDbLinetypeTableRecord
  2
ByBlock
 70
0
  3

 72
65
 73
0
 40
0.0
  0
LTYPE
  5
25
330
2
100
AcDbSymbolTableRecord
100
AcDbLinetypeTableRecord
  2
ByLayer
 70
0
  3

 72
65
 73
0
 40
0.0
  0
LTYPE
  5
26
330
2
100
AcDbSymbolTableRecord
100
AcDbLinetypeTableRecord
  2
Continuous
 70
0
  3

 72
65
 73
0
 40
0.0
  0
LTYPE
  5
2F
330
2
100
AcDbSymbolTableRecord
100
AcDbLinetypeTableRecord
  2
CENTER
 70
0
  3
Center ____ _ ____ _ ____ _ ____ _ ____ _ ____
 72
65
 73
4
 40
5.08
 49
3.175
 74
0
 49
-0.635
 74
0
 49
0.635
 74
0
 49
-0.635
 74
0
  0
LTYPE
  5
30
330
2
100
AcDbSymbolTableRecord
100
AcDbLinetypeTableRecord
  2
CENTERX2
 70
0
  3
Center (2x) ________  __  ________  __  ________
 72
65
 73
4
 40
8.89
 49
6.35
 74
0
 49
-0.635
 74
0
 49
1.27
 74
0
 49
-0.635
 74
0
  0
LTYPE
  5
31
330
2
100
AcDbSymbolTableRecord
100
AcDbLinetypeTableRecord
  2
CENTER2
 70
0
  3
Center (.5x) ____ _ ____ _ ____ _ ____ _ ____
 72
65
 73
4
 40
2.54
 49
1.587
 74
0
 49
-0.318
 74
0
 49
0.318
 74
0
 49
-0.318
 74
0
  0
LTYPE
  5
32
330
2
100
AcDbSymbolTableRecord
100
AcDbLinetypeTableRecord
  2
DASHED
 70
0
  3
Dashed __ __ __ __ __ __ __ __ __ __ __ __ __ _
 72
65
 73
2
 40
1.524
 49
1.27
 74
0
 49
-0.254
 74
0
  0
LTYPE
  5
33
330
2
100
AcDbSymbolTableRecord
100
AcDbLinetypeTableRecord
  2
DASHEDX2
 70
0
  3
Dashed (2x) ____  ____  ____  ____  ____  ____
 72
65
 73
2
 40
3.048
 49
2.54
 74
0
 49
-0.508
 74
0
  0
LTYPE
  5
34
330
2
100
AcDbSymbolTableRecord
100
AcDbLinetypeTableRecord
  2
DASHED2
 70
0
  3
Dashed (.5x) _ _ _ _ _ _ _ _ _ _ _ _ _ _
 72
65
 73
2
 40
0.762
 49
0.635
 74
0
 49
-0.127
 74
0
  0
LTYPE
  5
35
330
2
100
AcDbSymbolTableRecord
100
AcDbLinetypeTableRecord
  2
PHANTOM
 70
0
  3
Phantom ______  __  __  ______  __  __  ______
 72
65
 73
6
 40
6.35
 49
3.175
 74
0
 49
-0.635
 74
0
 49
0.635
 74
0
 49
-0.635
 74
0
 49
0.635
 74
0
 49
-0.635
 74
0
  0
LTYPE
  5
36
330
2
100
AcDbSymbolTableRecord
100
AcDbLinetypeTableRecord
  2
PHANTOMX2
 70
0
  3
Phantom (2x)____________    ____    ____    ____________
 72
65
 73
6
 40
10.795
 49
6.35
 74
0
 49
-0.635
 74
0
 49
1.27
 74
0
 49
-0.635
 74
0
 49
1.27
 74
0
 49
-0.635
 74
0
  0
LTYPE
  5
37
330
2
100
AcDbSymbolTableRecord
100
AcDbLinetypeTableRecord
  2
PHANTOM2
 70
0
  3
Phantom (.5x) ___ _ _ ___ _ _ ___ _ _ ___ _ _ ___
 72
65
 73
6
 40
3.175
 49
1.587
 74
0
 49
-0.318
 74
0
 49
0.318
 74
0
 49
-0.318
 74
0
 49
0.318
 74
0
 49
-0.318
 74
0
  0
LTYPE
  5
38
330
2
100
AcDbSymbolTableRecord
100
AcDbLinetypeTableRecord
  2
DASHDOT
 70
0
  3
Dash dot __ . __ . __ . __ . __ . __ . __ . __
 72
65
 73
4
 40
3.556
 49
2.54
 74
0
 49
-0.508
 74
0
 49
0.0
 74
0
 49
-0.508
 74
0
  0
LTYPE
  5
39
330
2
100
AcDbSymbolTableRecord
100
AcDbLinetypeTableRecord
  2
DASHDOTX2
 70
0
  3
Dash dot (2x) ____  .  ____  .  ____  .  ____
 72
65
 73
4
 40
6.096
 49
5.08
 74
0
 49
-0.508
 74
0
 49
0.0
 74
0
 49
-0.508
 74
0
  0
LTYPE
  5
3A
330
2
100
AcDbSymbolTableRecord
100
AcDbLinetypeTableRecord
  2
DASHDOT2
 70
0
  3
Dash dot (.5x) _ . _ . _ . _ . _ . _ . _ . _
 72
65
 73
4
 40
1.778
 49
1.27
 74
0
 49
-0.254
 74
0
 49
0.0
 74
0
 49
-0.254
 74
0
  0
LTYPE
  5
3B
330
2
100
AcDbSymbolTableRecord
100
AcDbLinetypeTableRecord
  2
DOT
 70
0
  3
Dot .  .  .  .  .  .  .  .  .  .  .  .  .  .  .  .
 72
65
 73
2
 40
0.508
 49
0.0
 74
0
 49
-0.508
 74
0
  0
LTYPE
  5
3C
330
2
100
AcDbSymbolTableRecord
100
AcDbLinetypeTableRecord
  2
DOTX2
 70
0
  3
Dot (2x) .    .    .    .    .    .    .    . 
 72
65
 73
2
 40
1.016
 49
0.0
 74
0
 49
-1.016
 74
0
  0
LTYPE
  5
3D
330
2
100
AcDbSymbolTableRecord
100
AcDbLinetypeTableRecord
  2
DOT2
 70
0
  3
Dot (.5) . . . . . . . . . . . . . . . . . . . 
 72
65
 73
2
 40
0.254
 49
0.0
 74
0
 49
-0.254
 74
0
  0
LTYPE
  5
3E
330
2
100
AcDbSymbolTableRecord
100
AcDbLinetypeTableRecord
  2
DIVIDE
 70
0
  3
Divide __ . . __ . . __ . . __ . . __ . . __
 72
65
 73
6
 40
4.064
 49
2.54
 74
0
 49
-0.508
 74
0
 49
0.0
 74
0
 49
-0.508
 74
0
 49
0.0
 74
0
 49
-0.508
 74
0
  0
LTYPE
  5
3F
330
2
100
AcDbSymbolTableRecord
100
AcDbLinetypeTableRecord
  2
DIVIDEX2
 70
0
  3
Divide (2x) ____  . .  ____  . .  ____  . .  ____
 72
65
 73
6
 40
6.604
 49
5.08
 74
0
 49
-0.508
 74
0
 49
0.0
 74
0
 49
-0.508
 74
0
 49
0.0
 74
0
 49
-0.508
 74
0
  0
LTYPE
  5
40
330
2
100
AcDbSymbolTableRecord
100
AcDbLinetypeTableRecord
  2
DIVIDE2
 70
0
  3
Divide(.5x) _ . _ . _ . _ . _ . _ . _ . _
 72
65
 73
6
 40
2.032
 49
1.27
 74
0
 49
-0.254
 74
0
 49
0.0
 74
0
 49
-0.254
 74
0
 49
0.0
 74
0
 49
-0.254
 74
0
  0
ENDTAB
  0
TABLE
  2
LAYER
  5
1
330
0
100
AcDbSymbolTable
 70
26
  0
LAYER
  5
27
330
1
100
AcDbSymbolTableRecord
100
AcDbLayerTableRecord
  2
0
 70
0
 62
7
  6
Continuous
370
-3
390
13
347
21
  0
LAYER
  5
28
330
1
100
AcDbSymbolTableRecord
100
AcDbLayerTableRecord
  2
Defpoints
 70
0
 62
7
  6
Continuous
290
0
370
-3
390
13
347
21
  0
LAYER
  5
8A
330
1
100
AcDbSymbolTableRecord
100
AcDbLayerTableRecord
  2
S-CONCRETE
 70
0
 62
7
  6
Continuous
370
-3
390
13
347
21
1001
AcAecLayerStandard
1000

1000
Structural concrete outlines (cut)
  0
LAYER
  5
8C
330
1
100
AcDbSymbolTableRecord
100
AcDbLayerTableRecord
  2
S-CONCRETE-THIN
 70
0
 62
7
  6
Continuous
370
-3
390
13
347
21
1001
AcAecLayerStandard
1000

1000
Concrete beyond the cut plane
  0
LAYER
  5
8D
330
1
100
AcDbSymbolTableRecord
100
AcDbLayerTableRecord
  2
S-HIDDEN
 70
0
 62
8
  6
Continuous
370
-3
390
13
347
21
1001
AcAecLayerStandard
1000

1000
Concrete / features beyond, hidden
  0
LAYER
  5
8E
330
1
100
AcDbSymbolTableRecord
100
AcDbLayerTableRecord
  2
S-REBAR-MAIN
 70
0
 62
1
  6
Continuous
370
-3
390
13
347
21
1001
AcAecLayerStandard
1000

1000
Main reinforcement
  0
LAYER
  5
8F
330
1
100
AcDbSymbolTableRecord
100
AcDbLayerTableRecord
  2
S-REBAR-DIST
 70
0
 62
3
  6
Continuous
370
-3
390
13
347
21
1001
AcAecLayerStandard
1000

1000
Distribution reinforcement
  0
LAYER
  5
90
330
1
100
AcDbSymbolTableRecord
100
AcDbLayerTableRecord
  2
S-REBAR-STIRRUP
 70
0
 62
6
  6
Continuous
370
-3
390
13
347
21
1001
AcAecLayerStandard
1000

1000
Links and stirrups
  0
LAYER
  5
91
330
1
100
AcDbSymbolTableRecord
100
AcDbLayerTableRecord
  2
S-REBAR-TIE
 70
0
 62
6
  6
Continuous
370
-3
390
13
347
21
1001
AcAecLayerStandard
1000

1000
Ties, cross-ties, starters
  0
LAYER
  5
92
330
1
100
AcDbSymbolTableRecord
100
AcDbLayerTableRecord
  2
S-REBAR-SEC
 70
0
 62
4
  6
Continuous
370
-3
390
13
347
21
1001
AcAecLayerStandard
1000

1000
Trimmers, secondary and additional bars
  0
LAYER
  5
93
330
1
100
AcDbSymbolTableRecord
100
AcDbLayerTableRecord
  2
S-DIM
 70
0
 62
4
  6
Continuous
370
-3
390
13
347
21
1001
AcAecLayerStandard
1000

1000
Dimensions
  0
LAYER
  5
94
330
1
100
AcDbSymbolTableRecord
100
AcDbLayerTableRecord
  2
S-TEXT
 70
0
 62
7
  6
Continuous
370
-3
390
13
347
21
1001
AcAecLayerStandard
1000

1000
General annotation
  0
LAYER
  5
95
330
1
100
AcDbSymbolTableRecord
100
AcDbLayerTableRecord
  2
S-NOTE
 70
0
 62
7
  6
Continuous
370
-3
390
13
347
21
1001
AcAecLayerStandard
1000

1000
Note panels
  0
LAYER
  5
96
330
1
100
AcDbSymbolTableRecord
100
AcDbLayerTableRecord
  2
S-CALLOUT
 70
0
 62
2
  6
Continuous
370
-3
390
13
347
21
1001
AcAecLayerStandard
1000

1000
Bar-mark balloons and leaders
  0
LAYER
  5
97
330
1
100
AcDbSymbolTableRecord
100
AcDbLayerTableRecord
  2
S-SECTION
 70
0
 62
1
  6
Continuous
370
-3
390
13
347
21
1001
AcAecLayerStandard
1000

1000
Section and detail markers
  0
LAYER
  5
98
330
1
100
AcDbSymbolTableRecord
100
AcDbLayerTableRecord
  2
S-GRID
 70
0
 62
5
  6
Continuous
370
-3
390
13
347
21
1001
AcAecLayerStandard
1000

1000
Grid lines and bubbles
  0
LAYER
  5
99
330
1
100
AcDbSymbolTableRecord
100
AcDbLayerTableRecord
  2
S-CENTER
 70
0
 62
6
  6
Continuous
370
-3
390
13
347
21
1001
AcAecLayerStandard
1000

1000
Centrelines
  0
LAYER
  5
9A
330
1
100
AcDbSymbolTableRecord
100
AcDbLayerTableRecord
  2
S-HATCH
 70
0
 62
8
  6
Continuous
370
-3
390
13
347
21
1001
AcAecLayerStandard
1000

1000
Section hatch
  0
LAYER
  5
9B
330
1
100
AcDbSymbolTableRecord
100
AcDbLayerTableRecord
  2
S-TITLE
 70
0
 62
7
  6
Continuous
370
-3
390
13
347
21
1001
AcAecLayerStandard
1000

1000
Border, title block, view titles
  0
LAYER
  5
9C
330
1
100
AcDbSymbolTableRecord
100
AcDbLayerTableRecord
  2
S-EXISTING
 70
0
 62
8
  6
Continuous
370
-3
390
13
347
21
1001
AcAecLayerStandard
1000

1000
Soil, rock, berm, cover layers
  0
LAYER
  5
9D
330
1
100
AcDbSymbolTableRecord
100
AcDbLayerTableRecord
  2
S-REFERENCE
 70
0
 62
8
  6
Continuous
370
-3
390
13
347
21
1001
AcAecLayerStandard
1000

1000
Reference geometry, extents
  0
LAYER
  5
9E
330
1
100
AcDbSymbolTableRecord
100
AcDbLayerTableRecord
  2
S-WATERPROOF
 70
0
 62
30
  6
Continuous
370
-3
390
13
347
21
1001
AcAecLayerStandard
1000

1000
Membranes, waterstops, GWT
  0
LAYER
  5
9F
330
1
100
AcDbSymbolTableRecord
100
AcDbLayerTableRecord
  2
S-STEELWORK
 70
0
 62
2
  6
Continuous
370
-3
390
13
347
21
1001
AcAecLayerStandard
1000

1000
Cast-in frames, EMP straps, steel items
  0
LAYER
  5
A0
330
1
100
AcDbSymbolTableRecord
100
AcDbLayerTableRecord
  2
S-LEVEL
 70
0
 62
4
  6
Continuous
370
-3
390
13
347
21
1001
AcAecLayerStandard
1000

1000
Level markers
  0
LAYER
  5
A1
330
1
100
AcDbSymbolTableRecord
100
AcDbLayerTableRecord
  2
S-TABLE
 70
0
 62
7
  6
Continuous
370
-3
390
13
347
21
1001
AcAecLayerStandard
1000

1000
Tables and schedules
  0
LAYER
  5
A2
330
1
100
AcDbSymbolTableRecord
100
AcDbLayerTableRecord
  2
S-BLAST
 70
0
 62
1
  6
Continuous
370
-3
390
13
347
21
1001
AcAecLayerStandard
1000

1000
Blast arrows, findings, warnings
  0
ENDTAB
  0
TABLE
  2
STYLE
  5
5
330
0
100
AcDbSymbolTable
 70
26
  0
STYLE
  5
29
330
5
100
AcDbSymbolTableRecord
100
AcDbTextStyleTableRecord
  2
Standard
 70
0
 40
0.0
 41
1.0
 50
0.0
 71
0
 42
2.5
  3
txt
  4

  0
STYLE
  5
41
330
5
100
AcDbSymbolTableRecord
100
AcDbTextStyleTableRecord
  2
OpenSans-Light
 70
0
 40
0.0
 41
1.0
 50
0.0
 71
0
 42
2.5
  3
OpenSans-Light.ttf
  4

  0
STYLE
  5
42
330
5
100
AcDbSymbolTableRecord
100
AcDbTextStyleTableRecord
  2
OpenSans-Light-Italic
 70
0
 40
0.0
 41
1.0
 50
0.0
 71
0
 42
2.5
  3
OpenSans-LightItalic.ttf
  4

  0
STYLE
  5
43
330
5
100
AcDbSymbolTableRecord
100
AcDbTextStyleTableRecord
  2
OpenSans
 70
0
 40
0.0
 41
1.0
 50
0.0
 71
0
 42
2.5
  3
OpenSans-Regular.ttf
  4

  0
STYLE
  5
44
330
5
100
AcDbSymbolTableRecord
100
AcDbTextStyleTableRecord
  2
OpenSans-Italic
 70
0
 40
0.0
 41
1.0
 50
0.0
 71
0
 42
2.5
  3
OpenSans-Italic.ttf
  4

  0
STYLE
  5
45
330
5
100
AcDbSymbolTableRecord
100
AcDbTextStyleTableRecord
  2
OpenSans-SemiBold
 70
0
 40
0.0
 41
1.0
 50
0.0
 71
0
 42
2.5
  3
OpenSans-SemiBold.ttf
  4

  0
STYLE
  5
46
330
5
100
AcDbSymbolTableRecord
100
AcDbTextStyleTableRecord
  2
OpenSans-SemiBoldItalic
 70
0
 40
0.0
 41
1.0
 50
0.0
 71
0
 42
2.5
  3
OpenSans-SemiBoldItalic.ttf
  4

  0
STYLE
  5
47
330
5
100
AcDbSymbolTableRecord
100
AcDbTextStyleTableRecord
  2
OpenSans-Bold
 70
0
 40
0.0
 41
1.0
 50
0.0
 71
0
 42
2.5
  3
OpenSans-Bold.ttf
  4

  0
STYLE
  5
48
330
5
100
AcDbSymbolTableRecord
100
AcDbTextStyleTableRecord
  2
OpenSans-BoldItalic
 70
0
 40
0.0
 41
1.0
 50
0.0
 71
0
 42
2.5
  3
OpenSans-BoldItalic.ttf
  4

  0
STYLE
  5
49
330
5
100
AcDbSymbolTableRecord
100
AcDbTextStyleTableRecord
  2
OpenSans-ExtraBold
 70
0
 40
0.0
 41
1.0
 50
0.0
 71
0
 42
2.5
  3
OpenSans-ExtraBold.ttf
  4

  0
STYLE
  5
4A
330
5
100
AcDbSymbolTableRecord
100
AcDbTextStyleTableRecord
  2
OpenSans-ExtraBoldItalic
 70
0
 40
0.0
 41
1.0
 50
0.0
 71
0
 42
2.5
  3
OpenSans-ExtraBoldItalic.ttf
  4

  0
STYLE
  5
4B
330
5
100
AcDbSymbolTableRecord
100
AcDbTextStyleTableRecord
  2
OpenSansCondensed-Bold
 70
0
 40
0.0
 41
1.0
 50
0.0
 71
0
 42
2.5
  3
OpenSansCondensed-Bold.ttf
  4

  0
STYLE
  5
4C
330
5
100
AcDbSymbolTableRecord
100
AcDbTextStyleTableRecord
  2
OpenSansCondensed-Light
 70
0
 40
0.0
 41
1.0
 50
0.0
 71
0
 42
2.5
  3
OpenSansCondensed-Light.ttf
  4

  0
STYLE
  5
4D
330
5
100
AcDbSymbolTableRecord
100
AcDbTextStyleTableRecord
  2
OpenSansCondensed-Italic
 70
0
 40
0.0
 41
1.0
 50
0.0
 71
0
 42
2.5
  3
OpenSansCondensed-LightItalic.ttf
  4

  0
STYLE
  5
4E
330
5
100
AcDbSymbolTableRecord
100
AcDbTextStyleTableRecord
  2
LiberationSans
 70
0
 40
0.0
 41
1.0
 50
0.0
 71
0
 42
2.5
  3
LiberationSans-Regular.ttf
  4

  0
STYLE
  5
4F
330
5
100
AcDbSymbolTableRecord
100
AcDbTextStyleTableRecord
  2
LiberationSans-Bold
 70
0
 40
0.0
 41
1.0
 50
0.0
 71
0
 42
2.5
  3
LiberationSans-Bold.ttf
  4

  0
STYLE
  5
50
330
5
100
AcDbSymbolTableRecord
100
AcDbTextStyleTableRecord
  2
LiberationSans-BoldItalic
 70
0
 40
0.0
 41
1.0
 50
0.0
 71
0
 42
2.5
  3
LiberationSans-BoldItalic.ttf
  4

  0
STYLE
  5
51
330
5
100
AcDbSymbolTableRecord
100
AcDbTextStyleTableRecord
  2
LiberationSans-Italic
 70
0
 40
0.0
 41
1.0
 50
0.0
 71
0
 42
2.5
  3
LiberationSans-Italic.ttf
  4

  0
STYLE
  5
52
330
5
100
AcDbSymbolTableRecord
100
AcDbTextStyleTableRecord
  2
LiberationSerif
 70
0
 40
0.0
 41
1.0
 50
0.0
 71
0
 42
2.5
  3
LiberationSerif-Regular.ttf
  4

  0
STYLE
  5
53
330
5
100
AcDbSymbolTableRecord
100
AcDbTextStyleTableRecord
  2
LiberationSerif-Bold
 70
0
 40
0.0
 41
1.0
 50
0.0
 71
0
 42
2.5
  3
LiberationSerif-Bold.ttf
  4

  0
STYLE
  5
54
330
5
100
AcDbSymbolTableRecord
100
AcDbTextStyleTableRecord
  2
LiberationSerif-BoldItalic
 70
0
 40
0.0
 41
1.0
 50
0.0
 71
0
 42
2.5
  3
LiberationSerif-BoldItalic.ttf
  4

  0
STYLE
  5
55
330
5
100
AcDbSymbolTableRecord
100
AcDbTextStyleTableRecord
  2
LiberationSerif-Italic
 70
0
 40
0.0
 41
1.0
 50
0.0
 71
0
 42
2.5
  3
LiberationSerif-Italic.ttf
  4

  0
STYLE
  5
56
330
5
100
AcDbSymbolTableRecord
100
AcDbTextStyleTableRecord
  2
LiberationMono
 70
0
 40
0.0
 41
1.0
 50
0.0
 71
0
 42
2.5
  3
LiberationMono-Regular.ttf
  4

  0
STYLE
  5
57
330
5
100
AcDbSymbolTableRecord
100
AcDbTextStyleTableRecord
  2
LiberationMono-Bold
 70
0
 40
0.0
 41
1.0
 50
0.0
 71
0
 42
2.5
  3
LiberationMono-Bold.ttf
  4

  0
STYLE
  5
58
330
5
100
AcDbSymbolTableRecord
100
AcDbTextStyleTableRecord
  2
LiberationMono-BoldItalic
 70
0
 40
0.0
 41
1.0
 50
0.0
 71
0
 42
2.5
  3
LiberationMono-BoldItalic.ttf
  4

  0
STYLE
  5
59
330
5
100
AcDbSymbolTableRecord
100
AcDbTextStyleTableRecord
  2
LiberationMono-Italic
 70
0
 40
0.0
 41
1.0
 50
0.0
 71
0
 42
2.5
  3
LiberationMono-Italic.ttf
  4

  0
ENDTAB
  0
TABLE
  2
VIEW
  5
7
330
0
100
AcDbSymbolTable
 70
0
  0
ENDTAB
  0
TABLE
  2
UCS
  5
6
330
0
100
AcDbSymbolTable
 70
0
  0
ENDTAB
  0
TABLE
  2
APPID
  5
3
330
0
100
AcDbSymbolTable
 70
4
  0
APPID
  5
2A
330
3
100
AcDbSymbolTableRecord
100
AcDbRegAppTableRecord
  2
ACAD
 70
0
  0
APPID
  5
8B
330
3
100
AcDbSymbolTableRecord
100
AcDbRegAppTableRecord
  2
AcAecLayerStandard
 70
0
  0
APPID
  5
484
330
3
100
AcDbSymbolTableRecord
100
AcDbRegAppTableRecord
  2
HATCHBACKGROUNDCOLOR
 70
0
  0
APPID
  5
485
330
3
100
AcDbSymbolTableRecord
100
AcDbRegAppTableRecord
  2
EZDXF
 70
0
  0
ENDTAB
  0
TABLE
  2
DIMSTYLE
  5
4
330
0
100
AcDbSymbolTable
 70
14
100
AcDbDimStyleTable
  0
DIMSTYLE
105
2B
330
4
100
AcDbSymbolTableRecord
100
AcDbDimStyleTableRecord
  2
Standard
 70
0
 40
1.0
 41
2.5
 42
0.625
 43
3.75
 44
1.25
 45
0.0
 46
0.0
 47
0.0
 48
0.0
 49
2.5
140
2.5
141
2.5
142
0.0
143
0.03937007874
144
1.0
145
0.0
146
1.0
147
0.625
148
0.0
 69
0
 70
0
 71
0
 72
0
 73
0
 74
0
 75
0
 76
0
 77
1
 78
8
 79
3
170
0
171
3
172
1
173
0
174
0
175
0
176
0
177
0
178
0
179
2
271
2
272
2
273
2
274
3
275
0
276
0
277
2
278
44
279
0
280
0
281
0
282
0
283
0
284
8
285
0
286
0
288
0
289
3
290
0
371
-2
372
-2
  0
DIMSTYLE
105
73
330
4
100
AcDbSymbolTableRecord
100
AcDbDimStyleTableRecord
  2
EZDXF
 70
0
 40
1.0
 41
0.175
 42
0.125
 43
3.75
 44
0.375
 45
0.0
 46
0.0
 47
0.0
 48
0.0
 49
2.5
140
0.25
141
2.5
142
0.0
143
0.03937007874
144
100.0
145
0.0
146
0.5
147
0.1
148
0.0
 69
0
 70
0
 71
0
 72
0
 73
0
 74
0
 75
0
 76
0
 77
1
 78
12
 79
3
170
0
171
3
172
1
173
0
174
0
175
0
176
0
177
0
178
0
179
2
271
2
272
2
273
2
274
3
275
0
276
0
277
2
278
46
279
2
280
0
281
0
282
0
283
0
284
8
285
0
286
0
288
1
289
3
290
0
340
4C
342
74
371
-2
372
-2
  0
DIMSTYLE
105
7C
330
4
100
AcDbSymbolTableRecord
100
AcDbDimStyleTableRecord
  2
EZ_M_100_H25_CM
 70
0
 40
1.0
 41
0.25
 42
0.125
 43
3.75
 44
0.375
 45
0.0
 46
0.0
 47
0.0
 48
0.0
 49
2.5
140
0.25
141
2.5
142
0.125
143
0.03937007874
144
100.0
145
0.0
146
0.5
147
0.1
148
0.0
 69
0
 70
0
 71
0
 72
0
 73
0
 74
0
 75
0
 76
0
 77
1
 78
12
 79
3
170
0
171
3
172
1
173
0
174
0
175
0
176
0
177
0
178
0
179
2
271
2
272
2
273
2
274
3
275
0
276
0
277
2
278
46
279
2
280
0
281
0
282
0
283
0
284
8
285
0
286
0
288
1
289
3
290
0
340
4C
371
-2
372
-2
  0
DIMSTYLE
105
7D
330
4
100
AcDbSymbolTableRecord
100
AcDbDimStyleTableRecord
  2
EZ_M_50_H25_CM
 70
0
 40
1.0
 41
0.125
 42
0.0625
 43
3.75
 44
0.1875
 45
0.0
 46
0.0
 47
0.0
 48
0.0
 49
2.5
140
0.125
141
2.5
142
0.0625
143
0.03937007874
144
100.0
145
0.0
146
0.5
147
0.05
148
0.0
 69
0
 70
0
 71
0
 72
0
 73
0
 74
0
 75
0
 76
0
 77
1
 78
12
 79
3
170
0
171
3
172
1
173
0
174
0
175
0
176
0
177
0
178
0
179
2
271
2
272
2
273
2
274
3
275
0
276
0
277
2
278
46
279
2
280
0
281
0
282
0
283
0
284
8
285
0
286
0
288
1
289
3
290
0
340
4C
371
-2
372
-2
  0
DIMSTYLE
105
7E
330
4
100
AcDbSymbolTableRecord
100
AcDbDimStyleTableRecord
  2
EZ_M_25_H25_CM
 70
0
 40
1.0
 41
0.0625
 42
0.03125
 43
3.75
 44
0.09375
 45
0.0
 46
0.0
 47
0.0
 48
0.0
 49
2.5
140
0.0625
141
2.5
142
0.03125
143
0.03937007874
144
100.0
145
0.0
146
0.5
147
0.025
148
0.0
 69
0
 70
0
 71
0
 72
0
 73
0
 74
0
 75
0
 76
0
 77
1
 78
12
 79
3
170
0
171
3
172
1
173
0
174
0
175
0
176
0
177
0
178
0
179
2
271
2
272
2
273
2
274
3
275
0
276
0
277
2
278
46
279
2
280
0
281
0
282
0
283
0
284
8
285
0
286
0
288
1
289
3
290
0
340
4C
371
-2
372
-2
  0
DIMSTYLE
105
7F
330
4
100
AcDbSymbolTableRecord
100
AcDbDimStyleTableRecord
  2
EZ_M_20_H25_CM
 70
0
 40
1.0
 41
0.05
 42
0.025
 43
3.75
 44
0.07500000000000001
 45
0.0
 46
0.0
 47
0.0
 48
0.0
 49
2.5
140
0.05
141
2.5
142
0.025
143
0.03937007874
144
100.0
145
0.0
146
0.5
147
0.020000000000000004
148
0.0
 69
0
 70
0
 71
0
 72
0
 73
0
 74
0
 75
0
 76
0
 77
1
 78
12
 79
3
170
0
171
3
172
1
173
0
174
0
175
0
176
0
177
0
178
0
179
2
271
2
272
2
273
2
274
3
275
0
276
0
277
2
278
46
279
2
280
0
281
0
282
0
283
0
284
8
285
0
286
0
288
1
289
3
290
0
340
4C
371
-2
372
-2
  0
DIMSTYLE
105
80
330
4
100
AcDbSymbolTableRecord
100
AcDbDimStyleTableRecord
  2
EZ_M_10_H25_CM
 70
0
 40
1.0
 41
0.025
 42
0.0125
 43
3.75
 44
0.037500000000000006
 45
0.0
 46
0.0
 47
0.0
 48
0.0
 49
2.5
140
0.025
141
2.5
142
0.0125
143
0.03937007874
144
100.0
145
0.0
146
0.5
147
0.010000000000000002
148
0.0
 69
0
 70
0
 71
0
 72
0
 73
0
 74
0
 75
0
 76
0
 77
1
 78
12
 79
3
170
0
171
3
172
1
173
0
174
0
175
0
176
0
177
0
178
0
179
2
271
2
272
2
273
2
274
3
275
0
276
0
277
2
278
46
279
2
280
0
281
0
282
0
283
0
284
8
285
0
286
0
288
1
289
3
290
0
340
4C
371
-2
372
-2
  0
DIMSTYLE
105
81
330
4
100
AcDbSymbolTableRecord
100
AcDbDimStyleTableRecord
  2
EZ_M_5_H25_CM
 70
0
 40
1.0
 41
0.0125
 42
0.00625
 43
3.75
 44
0.018750000000000003
 45
0.0
 46
0.0
 47
0.0
 48
0.0
 49
2.5
140
0.0125
141
2.5
142
0.00625
143
0.03937007874
144
100.0
145
0.0
146
0.5
147
0.005000000000000001
148
0.0
 69
0
 70
0
 71
0
 72
0
 73
0
 74
0
 75
0
 76
0
 77
1
 78
12
 79
3
170
0
171
3
172
1
173
0
174
0
175
0
176
0
177
0
178
0
179
2
271
2
272
2
273
2
274
3
275
0
276
0
277
2
278
46
279
2
280
0
281
0
282
0
283
0
284
8
285
0
286
0
288
1
289
3
290
0
340
4C
371
-2
372
-2
  0
DIMSTYLE
105
82
330
4
100
AcDbSymbolTableRecord
100
AcDbDimStyleTableRecord
  2
EZ_M_1_H25_CM
 70
0
 40
1.0
 41
0.0025
 42
0.00125
 43
3.75
 44
0.00375
 45
0.0
 46
0.0
 47
0.0
 48
0.0
 49
2.5
140
0.0025
141
2.5
142
0.00125
143
0.03937007874
144
100.0
145
0.0
146
0.5
147
0.001
148
0.0
 69
0
 70
0
 71
0
 72
0
 73
0
 74
0
 75
0
 76
0
 77
1
 78
12
 79
3
170
0
171
3
172
1
173
0
174
0
175
0
176
0
177
0
178
0
179
2
271
2
272
2
273
2
274
3
275
0
276
0
277
2
278
46
279
2
280
0
281
0
282
0
283
0
284
8
285
0
286
0
288
1
289
3
290
0
340
4C
371
-2
372
-2
  0
DIMSTYLE
105
83
330
4
100
AcDbSymbolTableRecord
100
AcDbDimStyleTableRecord
  2
EZ_RADIUS
 70
0
 40
1.0
 41
0.25
 42
0.125
 43
3.75
 44
0.375
 45
0.0
 46
0.0
 47
0.0
 48
0.0
 49
2.5
140
0.25
141
0.0
142
0.0
143
0.03937007874
144
100.0
145
0.0
146
0.5
147
0.1
148
0.0
 69
0
 70
0
 71
0
 72
0
 73
0
 74
0
 75
0
 76
0
 77
1
 78
12
 79
3
170
0
171
3
172
0
173
0
174
0
175
0
176
0
177
0
178
0
179
2
271
2
272
2
273
2
274
3
275
0
276
0
277
2
278
46
279
1
280
0
281
0
282
0
283
0
284
8
285
0
286
0
288
1
289
3
290
0
340
4C
342
84
371
-2
372
-2
  0
DIMSTYLE
105
88
330
4
100
AcDbSymbolTableRecord
100
AcDbDimStyleTableRecord
  2
EZ_RADIUS_INSIDE
 70
0
 40
1.0
 41
0.25
 42
0.125
 43
3.75
 44
0.375
 45
0.0
 46
0.0
 47
0.0
 48
0.0
 49
2.5
140
0.25
141
0.0
142
0.0
143
0.03937007874
144
100.0
145
0.0
146
0.5
147
0.1
148
0.0
 69
0
 70
0
 71
0
 72
0
 73
0
 74
0
 75
0
 76
0
 77
0
 78
12
 79
3
170
0
171
3
172
0
173
0
174
1
175
0
176
0
177
0
178
0
179
2
271
2
272
2
273
2
274
3
275
0
276
0
277
2
278
46
279
0
280
0
281
0
282
0
283
0
284
8
285
0
286
0
288
1
289
0
290
0
340
4C
342
84
371
-2
372
-2
  0
DIMSTYLE
105
89
330
4
100
AcDbSymbolTableRecord
100
AcDbDimStyleTableRecord
  2
EZ_CURVED
 70
0
 40
1.0
 41
0.25
 42
0.125
 43
3.75
 44
0.375
 45
0.0
 46
0.0
 47
0.0
 48
0.0
 49
2.5
140
0.25
141
2.5
142
0.0
143
0.03937007874
144
100.0
145
0.0
146
0.5
147
0.1
148
0.0
 69
0
 70
0
 71
0
 72
0
 73
0
 74
0
 75
0
 76
0
 77
1
 78
12
 79
2
 90
2
170
0
171
3
172
1
173
0
174
0
175
0
176
0
177
0
178
0
179
2
271
2
272
2
273
2
274
3
275
0
276
0
277
2
278
46
279
2
280
0
281
0
282
0
283
0
284
8
285
0
286
0
288
1
289
3
290
0
340
4C
371
-2
372
-2
  0
DIMSTYLE
105
A3
330
4
100
AcDbSymbolTableRecord
100
AcDbDimStyleTableRecord
  2
SC-DIM
 70
0
 40
1.0
 41
1.6
 42
1.0
 43
3.75
 44
1.2
 45
0.0
 46
0.0
 47
0.0
 48
0.0
 49
2.5
140
1.8
141
2.5
142
0.0
143
0.03937007874
144
1.0
145
0.0
146
1.0
147
0.8
148
0.0
 69
0
 70
0
 71
0
 72
0
 73
0
 74
0
 75
0
 76
0
 77
1
 78
8
 79
3
170
0
171
3
172
1
173
0
174
0
175
0
176
4
177
4
178
4
179
2
271
0
272
2
273
2
274
3
275
0
276
0
277
2
278
44
279
0
280
0
281
0
282
0
283
0
284
8
285
0
286
0
288
0
289
3
290
0
342
74
371
13
372
13
  0
DIMSTYLE
105
A4
330
4
100
AcDbSymbolTableRecord
100
AcDbDimStyleTableRecord
  2
SC-DIM-S
 70
0
 40
1.0
 41
1.2
 42
1.0
 43
3.75
 44
1.2
 45
0.0
 46
0.0
 47
0.0
 48
0.0
 49
2.5
140
1.4
141
2.5
142
0.0
143
0.03937007874
144
1.0
145
0.0
146
1.0
147
0.8
148
0.0
 69
0
 70
0
 71
0
 72
0
 73
0
 74
0
 75
0
 76
0
 77
1
 78
8
 79
3
170
0
171
3
172
1
173
0
174
0
175
0
176
4
177
4
178
4
179
2
271
0
272
2
273
2
274
3
275
0
276
0
277
2
278
44
279
0
280
0
281
0
282
0
283
0
284
8
285
0
286
0
288
0
289
3
290
0
342
74
371
13
372
13
  0
ENDTAB
  0
TABLE
  2
BLOCK_RECORD
  5
9
330
0
100
AcDbSymbolTable
 70
25
  0
BLOCK_RECORD
  5
17
330
9
100
AcDbSymbolTableRecord
100
AcDbBlockTableRecord
  2
*Model_Space
340
1A
 70
0
280
1
281
0
  0
BLOCK_RECORD
  5
1B
330
9
100
AcDbSymbolTableRecord
100
AcDbBlockTableRecord
  2
*Paper_Space
340
1E
 70
0
280
1
281
0
  0
BLOCK_RECORD
  5
74
330
9
100
AcDbSymbolTableRecord
100
AcDbBlockTableRecord
  2
_ARCHTICK
340
0
 70
0
280
1
281
0
  0
BLOCK_RECORD
  5
78
330
9
100
AcDbSymbolTableRecord
100
AcDbBlockTableRecord
  2
_CLOSEDFILLED
340
0
 70
0
280
1
281
0
  0
BLOCK_RECORD
  5
84
330
9
100
AcDbSymbolTableRecord
100
AcDbBlockTableRecord
  2
_CLOSEDBLANK
340
0
 70
0
280
1
281
0
  0
BLOCK_RECORD
  5
A5
330
9
100
AcDbSymbolTableRecord
100
AcDbBlockTableRecord
  2
BARMARK
340
0
 70
0
280
1
281
0
  0
BLOCK_RECORD
  5
A9
330
9
100
AcDbSymbolTableRecord
100
AcDbBlockTableRecord
  2
SECMARK
340
0
 70
0
280
1
281
0
  0
BLOCK_RECORD
  5
AE
330
9
100
AcDbSymbolTableRecord
100
AcDbBlockTableRecord
  2
LEVELMK
340
0
 70
0
280
1
281
0
  0
BLOCK_RECORD
  5
B2
330
9
100
AcDbSymbolTableRecord
100
AcDbBlockTableRecord
  2
NORTH
340
0
 70
0
280
1
281
0
  0
BLOCK_RECORD
  5
22D
330
9
100
AcDbSymbolTableRecord
100
AcDbBlockTableRecord
  2
*D1
340
0
 70
0
280
1
281
0
  0
BLOCK_RECORD
  5
23C
330
9
100
AcDbSymbolTableRecord
100
AcDbBlockTableRecord
  2
*D2
340
0
 70
0
280
1
281
0
  0
BLOCK_RECORD
  5
24B
330
9
100
AcDbSymbolTableRecord
100
AcDbBlockTableRecord
  2
*D3
340
0
 70
0
280
1
281
0
  0
BLOCK_RECORD
  5
25A
330
9
100
AcDbSymbolTableRecord
100
AcDbBlockTableRecord
  2
*D4
340
0
 70
0
280
1
281
0
  0
BLOCK_RECORD
  5
269
330
9
100
AcDbSymbolTableRecord
100
AcDbBlockTableRecord
  2
*D5
340
0
 70
0
280
1
281
0
  0
BLOCK_RECORD
  5
278
330
9
100
AcDbSymbolTableRecord
100
AcDbBlockTableRecord
  2
*D6
340
0
 70
0
280
1
281
0
  0
BLOCK_RECORD
  5
287
330
9
100
AcDbSymbolTableRecord
100
AcDbBlockTableRecord
  2
*D7
340
0
 70
0
280
1
281
0
  0
BLOCK_RECORD
  5
296
330
9
100
AcDbSymbolTableRecord
100
AcDbBlockTableRecord
  2
*D8
340
0
 70
0
280
1
281
0
  0
BLOCK_RECORD
  5
2A5
330
9
100
AcDbSymbolTableRecord
100
AcDbBlockTableRecord
  2
*D9
340
0
 70
0
280
1
281
0
  0
BLOCK_RECORD
  5
2B4
330
9
100
AcDbSymbolTableRecord
100
AcDbBlockTableRecord
  2
*D10
340
0
 70
0
280
1
281
0
  0
BLOCK_RECORD
  5
2C3
330
9
100
AcDbSymbolTableRecord
100
AcDbBlockTableRecord
  2
*D11
340
0
 70
0
280
1
281
0
  0
BLOCK_RECORD
  5
2D2
330
9
100
AcDbSymbolTableRecord
100
AcDbBlockTableRecord
  2
*D12
340
0
 70
0
280
1
281
0
  0
BLOCK_RECORD
  5
2E1
330
9
100
AcDbSymbolTableRecord
100
AcDbBlockTableRecord
  2
*D13
340
0
 70
0
280
1
281
0
  0
BLOCK_RECORD
  5
2F0
330
9
100
AcDbSymbolTableRecord
100
AcDbBlockTableRecord
  2
*D14
340
0
 70
0
280
1
281
0
  0
BLOCK_RECORD
  5
2FF
330
9
100
AcDbSymbolTableRecord
100
AcDbBlockTableRecord
  2
*D15
340
0
 70
0
280
1
281
0
  0
BLOCK_RECORD
  5
30E
330
9
100
AcDbSymbolTableRecord
100
AcDbBlockTableRecord
  2
*D16
340
0
 70
0
280
1
281
0
  0
ENDTAB
  0
ENDSEC
  0
SECTION
  2
BLOCKS
  0
BLOCK
  5
18
330
17
100
AcDbEntity
  8
0
100
AcDbBlockBegin
  2
*Model_Space
 70
0
 10
0.0
 20
0.0
 30
0.0
  3
*Model_Space
  1

  0
ENDBLK
  5
19
330
17
100
AcDbEntity
  8
0
100
AcDbBlockEnd
  0
BLOCK
  5
1C
330
1B
100
AcDbEntity
  8
0
100
AcDbBlockBegin
  2
*Paper_Space
 70
0
 10
0.0
 20
0.0
 30
0.0
  3
*Paper_Space
  1

  0
ENDBLK
  5
1D
330
1B
100
AcDbEntity
  8
0
100
AcDbBlockEnd
  0
BLOCK
  5
75
330
74
100
AcDbEntity
  8
0
100
AcDbBlockBegin
  2
_ARCHTICK
 70
0
 10
0.0
 20
0.0
 30
0.0
  3
_ARCHTICK
  1

  0
LWPOLYLINE
  5
77
330
74
100
AcDbEntity
  8
0
  6
BYBLOCK
 62
0
100
AcDbPolyline
 90
2
 70
0
 43
0.15
 10
-0.5
 20
-0.5
 10
0.5
 20
0.5
  0
ENDBLK
  5
76
330
74
100
AcDbEntity
  8
0
100
AcDbBlockEnd
  0
BLOCK
  5
79
330
78
100
AcDbEntity
  8
0
100
AcDbBlockBegin
  2
_CLOSEDFILLED
 70
0
 10
0.0
 20
0.0
 30
0.0
  3
_CLOSEDFILLED
  1

  0
SOLID
  5
7B
330
78
100
AcDbEntity
  8
0
  6
BYBLOCK
 62
0
100
AcDbTrace
 10
-1.0
 20
0.16439898372402537
 30
0.0
 11
0.0
 21
0.0
 31
0.0
 12
-1.0
 22
-0.16439898372402537
 32
0.0
 13
-1.0
 23
-0.16439898372402537
 33
0.0
  0
ENDBLK
  5
7A
330
78
100
AcDbEntity
  8
0
100
AcDbBlockEnd
  0
BLOCK
  5
85
330
84
100
AcDbEntity
  8
0
100
AcDbBlockBegin
  2
_CLOSEDBLANK
 70
0
 10
0.0
 20
0.0
 30
0.0
  3
_CLOSEDBLANK
  1

  0
LWPOLYLINE
  5
87
330
84
100
AcDbEntity
  8
0
  6
BYBLOCK
 62
0
100
AcDbPolyline
 90
3
 70
1
 10
-1.0
 20
0.16439898372402537
 10
0.0
 20
0.0
 10
-1.0
 20
-0.16439898372402537
  0
ENDBLK
  5
86
330
84
100
AcDbEntity
  8
0
100
AcDbBlockEnd
  0
BLOCK
  5
A6
330
A5
100
AcDbEntity
  8
0
100
AcDbBlockBegin
  2
BARMARK
 70
0
 10
0.0
 20
0.0
 30
0.0
  3
BARMARK
  1

  0
CIRCLE
  5
A8
330
A5
100
AcDbEntity
  8
S-CALLOUT
100
AcDbCircle
 10
0.0
 20
0.0
 30
0.0
 40
3.2
  0
ENDBLK
  5
A7
330
A5
100
AcDbEntity
  8
0
100
AcDbBlockEnd
  0
BLOCK
  5
AA
330
A9
100
AcDbEntity
  8
0
100
AcDbBlockBegin
  2
SECMARK
 70
0
 10
0.0
 20
0.0
 30
0.0
  3
SECMARK
  1

  0
CIRCLE
  5
AC
330
A9
100
AcDbEntity
  8
S-SECTION
100
AcDbCircle
 10
0.0
 20
0.0
 30
0.0
 40
4.0
  0
LINE
  5
AD
330
A9
100
AcDbEntity
  8
S-SECTION
100
AcDbLine
 10
-4.0
 20
0.0
 30
0.0
 11
4.0
 21
0.0
 31
0.0
  0
ENDBLK
  5
AB
330
A9
100
AcDbEntity
  8
0
100
AcDbBlockEnd
  0
BLOCK
  5
AF
330
AE
100
AcDbEntity
  8
0
100
AcDbBlockBegin
  2
LEVELMK
 70
0
 10
0.0
 20
0.0
 30
0.0
  3
LEVELMK
  1

  0
LWPOLYLINE
  5
B1
330
AE
100
AcDbEntity
  8
S-LEVEL
100
AcDbPolyline
 90
4
 70
1
 10
0.0
 20
0.0
 10
-2.0
 20
3.0
 10
2.0
 20
3.0
 10
0.0
 20
0.0
  0
ENDBLK
  5
B0
330
AE
100
AcDbEntity
  8
0
100
AcDbBlockEnd
  0
BLOCK
  5
B3
330
B2
100
AcDbEntity
  8
0
100
AcDbBlockBegin
  2
NORTH
 70
0
 10
0.0
 20
0.0
 30
0.0
  3
NORTH
  1

  0
LWPOLYLINE
  5
B5
330
B2
100
AcDbEntity
  8
S-TITLE
100
AcDbPolyline
 90
5
 70
1
 10
0.0
 20
10.0
 10
-3.2
 20
-6.0
 10
0.0
 20
-2.4
 10
3.2
 20
-6.0
 10
0.0
 20
10.0
  0
CIRCLE
  5
B6
330
B2
100
AcDbEntity
  8
S-TITLE
100
AcDbCircle
 10
0.0
 20
0.0
 30
0.0
 40
12.0
  0
ENDBLK
  5
B4
330
B2
100
AcDbEntity
  8
0
100
AcDbBlockEnd
  0
BLOCK
  5
22E
330
22D
100
AcDbEntity
  8
0
100
AcDbBlockBegin
  2
*D1
 70
1
 10
0.0
 20
0.0
 30
0.0
  3
*D1
  1

  0
LINE
  5
230
330
22D
100
AcDbEntity
  8
0
 62
4
370
13
100
AcDbLine
 10
66.0
 20
399.0
 30
0.0
 11
66.0
 21
356.8
 31
0.0
  0
LINE
  5
231
330
22D
100
AcDbEntity
  8
0
 62
4
370
13
100
AcDbLine
 10
78.0
 20
399.0
 30
0.0
 11
78.0
 21
356.8
 31
0.0
  0
INSERT
  5
232
330
22D
100
AcDbEntity
  8
S-DIM
 62
4
100
AcDbBlockReference
  2
_ARCHTICK
 10
66.0
 20
358.0
 30
0.0
 41
1.6
 42
1.6
 50
180.0
  0
INSERT
  5
234
330
22D
100
AcDbEntity
  8
S-DIM
 62
4
100
AcDbBlockReference
  2
_ARCHTICK
 10
78.0
 20
358.0
 30
0.0
 41
1.6
 42
1.6
  0
LINE
  5
236
330
22D
100
AcDbEntity
  8
0
 62
4
370
13
100
AcDbLine
 10
66.0
 20
358.0
 30
0.0
 11
78.0
 21
358.0
 31
0.0
  0
MTEXT
  5
237
330
22D
100
AcDbEntity
  8
S-DIM
 62
4
100
AcDbMText
 10
72.0
 20
359.7
 30
0.0
 40
1.8
 71
5
  1
600
  7
OpenSansCondensed-Light
  0
POINT
  5
238
330
22D
100
AcDbEntity
  8
Defpoints
100
AcDbPoint
 10
66.0
 20
358.0
 30
0.0
  0
POINT
  5
239
330
22D
100
AcDbEntity
  8
Defpoints
100
AcDbPoint
 10
66.0
 20
400.0
 30
0.0
  0
POINT
  5
23A
330
22D
100
AcDbEntity
  8
Defpoints
100
AcDbPoint
 10
78.0
 20
400.0
 30
0.0
  0
ENDBLK
  5
22F
330
22D
100
AcDbEntity
  8
0
100
AcDbBlockEnd
  0
BLOCK
  5
23D
330
23C
100
AcDbEntity
  8
0
100
AcDbBlockBegin
  2
*D2
 70
1
 10
0.0
 20
0.0
 30
0.0
  3
*D2
  1

  0
LINE
  5
23F
330
23C
100
AcDbEntity
  8
0
 62
4
370
13
100
AcDbLine
 10
78.0
 20
399.0
 30
0.0
 11
78.0
 21
356.8
 31
0.0
  0
LINE
  5
240
330
23C
100
AcDbEntity
  8
0
 62
4
370
13
100
AcDbLine
 10
318.0
 20
399.0
 30
0.0
 11
318.0
 21
356.8
 31
0.0
  0
INSERT
  5
241
330
23C
100
AcDbEntity
  8
S-DIM
 62
4
100
AcDbBlockReference
  2
_ARCHTICK
 10
78.0
 20
358.0
 30
0.0
 41
1.6
 42
1.6
 50
180.0
  0
INSERT
  5
243
330
23C
100
AcDbEntity
  8
S-DIM
 62
4
100
AcDbBlockReference
  2
_ARCHTICK
 10
318.0
 20
358.0
 30
0.0
 41
1.6
 42
1.6
  0
LINE
  5
245
330
23C
100
AcDbEntity
  8
0
 62
4
370
13
100
AcDbLine
 10
78.0
 20
358.0
 30
0.0
 11
318.0
 21
358.0
 31
0.0
  0
MTEXT
  5
246
330
23C
100
AcDbEntity
  8
S-DIM
 62
4
100
AcDbMText
 10
198.0
 20
359.7
 30
0.0
 40
1.8
 71
5
  1
12000
  7
OpenSansCondensed-Light
  0
POINT
  5
247
330
23C
100
AcDbEntity
  8
Defpoints
100
AcDbPoint
 10
78.0
 20
358.0
 30
0.0
  0
POINT
  5
248
330
23C
100
AcDbEntity
  8
Defpoints
100
AcDbPoint
 10
78.0
 20
400.0
 30
0.0
  0
POINT
  5
249
330
23C
100
AcDbEntity
  8
Defpoints
100
AcDbPoint
 10
318.0
 20
400.0
 30
0.0
  0
ENDBLK
  5
23E
330
23C
100
AcDbEntity
  8
0
100
AcDbBlockEnd
  0
BLOCK
  5
24C
330
24B
100
AcDbEntity
  8
0
100
AcDbBlockBegin
  2
*D3
 70
1
 10
0.0
 20
0.0
 30
0.0
  3
*D3
  1

  0
LINE
  5
24E
330
24B
100
AcDbEntity
  8
0
 62
4
370
13
100
AcDbLine
 10
318.0
 20
399.0
 30
0.0
 11
318.0
 21
356.8
 31
0.0
  0
LINE
  5
24F
330
24B
100
AcDbEntity
  8
0
 62
4
370
13
100
AcDbLine
 10
322.0
 20
399.0
 30
0.0
 11
322.0
 21
356.8
 31
0.0
  0
INSERT
  5
250
330
24B
100
AcDbEntity
  8
S-DIM
 62
4
100
AcDbBlockReference
  2
_ARCHTICK
 10
318.0
 20
358.0
 30
0.0
 41
1.6
 42
1.6
 50
180.0
  0
INSERT
  5
252
330
24B
100
AcDbEntity
  8
S-DIM
 62
4
100
AcDbBlockReference
  2
_ARCHTICK
 10
322.0
 20
358.0
 30
0.0
 41
1.6
 42
1.6
  0
LINE
  5
254
330
24B
100
AcDbEntity
  8
0
 62
4
370
13
100
AcDbLine
 10
318.0
 20
358.0
 30
0.0
 11
322.0
 21
358.0
 31
0.0
  0
MTEXT
  5
255
330
24B
100
AcDbEntity
  8
S-DIM
 62
4
100
AcDbMText
 10
320.0
 20
360.9
 30
0.0
 40
1.8
 71
5
  1
200
  7
OpenSansCondensed-Light
  0
POINT
  5
256
330
24B
100
AcDbEntity
  8
Defpoints
100
AcDbPoint
 10
318.0
 20
358.0
 30
0.0
  0
POINT
  5
257
330
24B
100
AcDbEntity
  8
Defpoints
100
AcDbPoint
 10
318.0
 20
400.0
 30
0.0
  0
POINT
  5
258
330
24B
100
AcDbEntity
  8
Defpoints
100
AcDbPoint
 10
322.0
 20
400.0
 30
0.0
  0
ENDBLK
  5
24D
330
24B
100
AcDbEntity
  8
0
100
AcDbBlockEnd
  0
BLOCK
  5
25B
330
25A
100
AcDbEntity
  8
0
100
AcDbBlockBegin
  2
*D4
 70
1
 10
0.0
 20
0.0
 30
0.0
  3
*D4
  1

  0
LINE
  5
25D
330
25A
100
AcDbEntity
  8
0
 62
4
370
13
100
AcDbLine
 10
322.0
 20
399.0
 30
0.0
 11
322.0
 21
356.8
 31
0.0
  0
LINE
  5
25E
330
25A
100
AcDbEntity
  8
0
 62
4
370
13
100
AcDbLine
 10
362.0
 20
399.0
 30
0.0
 11
362.0
 21
356.8
 31
0.0
  0
INSERT
  5
25F
330
25A
100
AcDbEntity
  8
S-DIM
 62
4
100
AcDbBlockReference
  2
_ARCHTICK
 10
322.0
 20
358.0
 30
0.0
 41
1.6
 42
1.6
 50
180.0
  0
INSERT
  5
261
330
25A
100
AcDbEntity
  8
S-DIM
 62
4
100
AcDbBlockReference
  2
_ARCHTICK
 10
362.0
 20
358.0
 30
0.0
 41
1.6
 42
1.6
  0
LINE
  5
263
330
25A
100
AcDbEntity
  8
0
 62
4
370
13
100
AcDbLine
 10
322.0
 20
358.0
 30
0.0
 11
362.0
 21
358.0
 31
0.0
  0
MTEXT
  5
264
330
25A
100
AcDbEntity
  8
S-DIM
 62
4
100
AcDbMText
 10
342.0
 20
359.7
 30
0.0
 40
1.8
 71
5
  1
2000
  7
OpenSansCondensed-Light
  0
POINT
  5
265
330
25A
100
AcDbEntity
  8
Defpoints
100
AcDbPoint
 10
322.0
 20
358.0
 30
0.0
  0
POINT
  5
266
330
25A
100
AcDbEntity
  8
Defpoints
100
AcDbPoint
 10
322.0
 20
400.0
 30
0.0
  0
POINT
  5
267
330
25A
100
AcDbEntity
  8
Defpoints
100
AcDbPoint
 10
362.0
 20
400.0
 30
0.0
  0
ENDBLK
  5
25C
330
25A
100
AcDbEntity
  8
0
100
AcDbBlockEnd
  0
BLOCK
  5
26A
330
269
100
AcDbEntity
  8
0
100
AcDbBlockBegin
  2
*D5
 70
1
 10
0.0
 20
0.0
 30
0.0
  3
*D5
  1

  0
LINE
  5
26C
330
269
100
AcDbEntity
  8
0
 62
4
370
13
100
AcDbLine
 10
362.0
 20
399.0
 30
0.0
 11
362.0
 21
356.8
 31
0.0
  0
LINE
  5
26D
330
269
100
AcDbEntity
  8
0
 62
4
370
13
100
AcDbLine
 10
370.0
 20
399.0
 30
0.0
 11
370.0
 21
356.8
 31
0.0
  0
INSERT
  5
26E
330
269
100
AcDbEntity
  8
S-DIM
 62
4
100
AcDbBlockReference
  2
_ARCHTICK
 10
362.0
 20
358.0
 30
0.0
 41
1.6
 42
1.6
 50
180.0
  0
INSERT
  5
270
330
269
100
AcDbEntity
  8
S-DIM
 62
4
100
AcDbBlockReference
  2
_ARCHTICK
 10
370.0
 20
358.0
 30
0.0
 41
1.6
 42
1.6
  0
LINE
  5
272
330
269
100
AcDbEntity
  8
0
 62
4
370
13
100
AcDbLine
 10
362.0
 20
358.0
 30
0.0
 11
370.0
 21
358.0
 31
0.0
  0
MTEXT
  5
273
330
269
100
AcDbEntity
  8
S-DIM
 62
4
100
AcDbMText
 10
366.0
 20
359.7
 30
0.0
 40
1.8
 71
5
  1
400
  7
OpenSansCondensed-Light
  0
POINT
  5
274
330
269
100
AcDbEntity
  8
Defpoints
100
AcDbPoint
 10
362.0
 20
358.0
 30
0.0
  0
POINT
  5
275
330
269
100
AcDbEntity
  8
Defpoints
100
AcDbPoint
 10
362.0
 20
400.0
 30
0.0
  0
POINT
  5
276
330
269
100
AcDbEntity
  8
Defpoints
100
AcDbPoint
 10
370.0
 20
400.0
 30
0.0
  0
ENDBLK
  5
26B
330
269
100
AcDbEntity
  8
0
100
AcDbBlockEnd
  0
BLOCK
  5
279
330
278
100
AcDbEntity
  8
0
100
AcDbBlockBegin
  2
*D6
 70
1
 10
0.0
 20
0.0
 30
0.0
  3
*D6
  1

  0
LINE
  5
27B
330
278
100
AcDbEntity
  8
0
 62
4
370
13
100
AcDbLine
 10
370.0
 20
399.0
 30
0.0
 11
370.0
 21
356.8
 31
0.0
  0
LINE
  5
27C
330
278
100
AcDbEntity
  8
0
 62
4
370
13
100
AcDbLine
 10
426.0
 20
399.0
 30
0.0
 11
426.0
 21
356.8
 31
0.0
  0
INSERT
  5
27D
330
278
100
AcDbEntity
  8
S-DIM
 62
4
100
AcDbBlockReference
  2
_ARCHTICK
 10
370.0
 20
358.0
 30
0.0
 41
1.6
 42
1.6
 50
180.0
  0
INSERT
  5
27F
330
278
100
AcDbEntity
  8
S-DIM
 62
4
100
AcDbBlockReference
  2
_ARCHTICK
 10
426.0
 20
358.0
 30
0.0
 41
1.6
 42
1.6
  0
LINE
  5
281
330
278
100
AcDbEntity
  8
0
 62
4
370
13
100
AcDbLine
 10
370.0
 20
358.0
 30
0.0
 11
426.0
 21
358.0
 31
0.0
  0
MTEXT
  5
282
330
278
100
AcDbEntity
  8
S-DIM
 62
4
100
AcDbMText
 10
398.0
 20
359.7
 30
0.0
 40
1.8
 71
5
  1
2800
  7
OpenSansCondensed-Light
  0
POINT
  5
283
330
278
100
AcDbEntity
  8
Defpoints
100
AcDbPoint
 10
370.0
 20
358.0
 30
0.0
  0
POINT
  5
284
330
278
100
AcDbEntity
  8
Defpoints
100
AcDbPoint
 10
370.0
 20
400.0
 30
0.0
  0
POINT
  5
285
330
278
100
AcDbEntity
  8
Defpoints
100
AcDbPoint
 10
426.0
 20
400.0
 30
0.0
  0
ENDBLK
  5
27A
330
278
100
AcDbEntity
  8
0
100
AcDbBlockEnd
  0
BLOCK
  5
288
330
287
100
AcDbEntity
  8
0
100
AcDbBlockBegin
  2
*D7
 70
1
 10
0.0
 20
0.0
 30
0.0
  3
*D7
  1

  0
LINE
  5
28A
330
287
100
AcDbEntity
  8
0
 62
4
370
13
100
AcDbLine
 10
426.0
 20
399.0
 30
0.0
 11
426.0
 21
356.8
 31
0.0
  0
LINE
  5
28B
330
287
100
AcDbEntity
  8
0
 62
4
370
13
100
AcDbLine
 10
434.0
 20
399.0
 30
0.0
 11
434.0
 21
356.8
 31
0.0
  0
INSERT
  5
28C
330
287
100
AcDbEntity
  8
S-DIM
 62
4
100
AcDbBlockReference
  2
_ARCHTICK
 10
426.0
 20
358.0
 30
0.0
 41
1.6
 42
1.6
 50
180.0
  0
INSERT
  5
28E
330
287
100
AcDbEntity
  8
S-DIM
 62
4
100
AcDbBlockReference
  2
_ARCHTICK
 10
434.0
 20
358.0
 30
0.0
 41
1.6
 42
1.6
  0
LINE
  5
290
330
287
100
AcDbEntity
  8
0
 62
4
370
13
100
AcDbLine
 10
426.0
 20
358.0
 30
0.0
 11
434.0
 21
358.0
 31
0.0
  0
MTEXT
  5
291
330
287
100
AcDbEntity
  8
S-DIM
 62
4
100
AcDbMText
 10
430.0
 20
359.7
 30
0.0
 40
1.8
 71
5
  1
400
  7
OpenSansCondensed-Light
  0
POINT
  5
292
330
287
100
AcDbEntity
  8
Defpoints
100
AcDbPoint
 10
426.0
 20
358.0
 30
0.0
  0
POINT
  5
293
330
287
100
AcDbEntity
  8
Defpoints
100
AcDbPoint
 10
426.0
 20
400.0
 30
0.0
  0
POINT
  5
294
330
287
100
AcDbEntity
  8
Defpoints
100
AcDbPoint
 10
434.0
 20
400.0
 30
0.0
  0
ENDBLK
  5
289
330
287
100
AcDbEntity
  8
0
100
AcDbBlockEnd
  0
BLOCK
  5
297
330
296
100
AcDbEntity
  8
0
100
AcDbBlockBegin
  2
*D8
 70
1
 10
0.0
 20
0.0
 30
0.0
  3
*D8
  1

  0
LINE
  5
299
330
296
100
AcDbEntity
  8
0
 62
4
370
13
100
AcDbLine
 10
434.0
 20
399.0
 30
0.0
 11
434.0
 21
356.8
 31
0.0
  0
LINE
  5
29A
330
296
100
AcDbEntity
  8
0
 62
4
370
13
100
AcDbLine
 10
494.0
 20
399.0
 30
0.0
 11
494.0
 21
356.8
 31
0.0
  0
INSERT
  5
29B
330
296
100
AcDbEntity
  8
S-DIM
 62
4
100
AcDbBlockReference
  2
_ARCHTICK
 10
434.0
 20
358.0
 30
0.0
 41
1.6
 42
1.6
 50
180.0
  0
INSERT
  5
29D
330
296
100
AcDbEntity
  8
S-DIM
 62
4
100
AcDbBlockReference
  2
_ARCHTICK
 10
494.0
 20
358.0
 30
0.0
 41
1.6
 42
1.6
  0
LINE
  5
29F
330
296
100
AcDbEntity
  8
0
 62
4
370
13
100
AcDbLine
 10
434.0
 20
358.0
 30
0.0
 11
494.0
 21
358.0
 31
0.0
  0
MTEXT
  5
2A0
330
296
100
AcDbEntity
  8
S-DIM
 62
4
100
AcDbMText
 10
464.0
 20
359.7
 30
0.0
 40
1.8
 71
5
  1
3000
  7
OpenSansCondensed-Light
  0
POINT
  5
2A1
330
296
100
AcDbEntity
  8
Defpoints
100
AcDbPoint
 10
434.0
 20
358.0
 30
0.0
  0
POINT
  5
2A2
330
296
100
AcDbEntity
  8
Defpoints
100
AcDbPoint
 10
434.0
 20
400.0
 30
0.0
  0
POINT
  5
2A3
330
296
100
AcDbEntity
  8
Defpoints
100
AcDbPoint
 10
494.0
 20
400.0
 30
0.0
  0
ENDBLK
  5
298
330
296
100
AcDbEntity
  8
0
100
AcDbBlockEnd
  0
BLOCK
  5
2A6
330
2A5
100
AcDbEntity
  8
0
100
AcDbBlockBegin
  2
*D9
 70
1
 10
0.0
 20
0.0
 30
0.0
  3
*D9
  1

  0
LINE
  5
2A8
330
2A5
100
AcDbEntity
  8
0
 62
4
370
13
100
AcDbLine
 10
494.0
 20
399.0
 30
0.0
 11
494.0
 21
356.8
 31
0.0
  0
LINE
  5
2A9
330
2A5
100
AcDbEntity
  8
0
 62
4
370
13
100
AcDbLine
 10
506.0
 20
399.0
 30
0.0
 11
506.0
 21
356.8
 31
0.0
  0
INSERT
  5
2AA
330
2A5
100
AcDbEntity
  8
S-DIM
 62
4
100
AcDbBlockReference
  2
_ARCHTICK
 10
494.0
 20
358.0
 30
0.0
 41
1.6
 42
1.6
 50
180.0
  0
INSERT
  5
2AC
330
2A5
100
AcDbEntity
  8
S-DIM
 62
4
100
AcDbBlockReference
  2
_ARCHTICK
 10
506.0
 20
358.0
 30
0.0
 41
1.6
 42
1.6
  0
LINE
  5
2AE
330
2A5
100
AcDbEntity
  8
0
 62
4
370
13
100
AcDbLine
 10
494.0
 20
358.0
 30
0.0
 11
506.0
 21
358.0
 31
0.0
  0
MTEXT
  5
2AF
330
2A5
100
AcDbEntity
  8
S-DIM
 62
4
100
AcDbMText
 10
500.0
 20
359.7
 30
0.0
 40
1.8
 71
5
  1
600
  7
OpenSansCondensed-Light
  0
POINT
  5
2B0
330
2A5
100
AcDbEntity
  8
Defpoints
100
AcDbPoint
 10
494.0
 20
358.0
 30
0.0
  0
POINT
  5
2B1
330
2A5
100
AcDbEntity
  8
Defpoints
100
AcDbPoint
 10
494.0
 20
400.0
 30
0.0
  0
POINT
  5
2B2
330
2A5
100
AcDbEntity
  8
Defpoints
100
AcDbPoint
 10
506.0
 20
400.0
 30
0.0
  0
ENDBLK
  5
2A7
330
2A5
100
AcDbEntity
  8
0
100
AcDbBlockEnd
  0
BLOCK
  5
2B5
330
2B4
100
AcDbEntity
  8
0
100
AcDbBlockBegin
  2
*D10
 70
1
 10
0.0
 20
0.0
 30
0.0
  3
*D10
  1

  0
LINE
  5
2B7
330
2B4
100
AcDbEntity
  8
0
 62
4
370
13
100
AcDbLine
 10
66.0
 20
399.0
 30
0.0
 11
66.0
 21
347.8
 31
0.0
  0
LINE
  5
2B8
330
2B4
100
AcDbEntity
  8
0
 62
4
370
13
100
AcDbLine
 10
506.0
 20
399.0
 30
0.0
 11
506.0
 21
347.8
 31
0.0
  0
INSERT
  5
2B9
330
2B4
100
AcDbEntity
  8
S-DIM
 62
4
100
AcDbBlockReference
  2
_ARCHTICK
 10
66.0
 20
349.0
 30
0.0
 41
1.6
 42
1.6
 50
180.0
  0
INSERT
  5
2BB
330
2B4
100
AcDbEntity
  8
S-DIM
 62
4
100
AcDbBlockReference
  2
_ARCHTICK
 10
506.0
 20
349.0
 30
0.0
 41
1.6
 42
1.6
  0
LINE
  5
2BD
330
2B4
100
AcDbEntity
  8
0
 62
4
370
13
100
AcDbLine
 10
66.0
 20
349.0
 30
0.0
 11
506.0
 21
349.0
 31
0.0
  0
MTEXT
  5
2BE
330
2B4
100
AcDbEntity
  8
S-DIM
 62
4
100
AcDbMText
 10
286.0
 20
350.7
 30
0.0
 40
1.8
 71
5
  1
22000
  7
OpenSansCondensed-Light
  0
POINT
  5
2BF
330
2B4
100
AcDbEntity
  8
Defpoints
100
AcDbPoint
 10
66.0
 20
349.0
 30
0.0
  0
POINT
  5
2C0
330
2B4
100
AcDbEntity
  8
Defpoints
100
AcDbPoint
 10
66.0
 20
400.0
 30
0.0
  0
POINT
  5
2C1
330
2B4
100
AcDbEntity
  8
Defpoints
100
AcDbPoint
 10
506.0
 20
400.0
 30
0.0
  0
ENDBLK
  5
2B6
330
2B4
100
AcDbEntity
  8
0
100
AcDbBlockEnd
  0
BLOCK
  5
2C4
330
2C3
100
AcDbEntity
  8
0
100
AcDbBlockBegin
  2
*D11
 70
1
 10
0.0
 20
0.0
 30
0.0
  3
*D11
  1

  0
LINE
  5
2C6
330
2C3
100
AcDbEntity
  8
0
 62
4
370
13
100
AcDbLine
 10
65.0
 20
400.0
 30
0.0
 11
28.8
 21
400.0
 31
0.0
  0
LINE
  5
2C7
330
2C3
100
AcDbEntity
  8
0
 62
4
370
13
100
AcDbLine
 10
65.0
 20
412.0
 30
0.0
 11
28.8
 21
412.0
 31
0.0
  0
INSERT
  5
2C8
330
2C3
100
AcDbEntity
  8
S-DIM
 62
4
100
AcDbBlockReference
  2
_ARCHTICK
 10
30.0
 20
400.0
 30
0.0
 41
1.6
 42
1.6
 50
270.0
  0
INSERT
  5
2CA
330
2C3
100
AcDbEntity
  8
S-DIM
 62
4
100
AcDbBlockReference
  2
_ARCHTICK
 10
30.0
 20
412.0
 30
0.0
 41
1.6
 42
1.6
 50
90.0
  0
LINE
  5
2CC
330
2C3
100
AcDbEntity
  8
0
 62
4
370
13
100
AcDbLine
 10
30.0
 20
400.0
 30
0.0
 11
30.0
 21
412.0
 31
0.0
  0
MTEXT
  5
2CD
330
2C3
100
AcDbEntity
  8
S-DIM
 62
4
100
AcDbMText
 10
28.3
 20
406.0
 30
0.0
 40
1.8
 71
5
  1
600
  7
OpenSansCondensed-Light
 50
90.0
  0
POINT
  5
2CE
330
2C3
100
AcDbEntity
  8
Defpoints
100
AcDbPoint
 10
30.0
 20
400.0
 30
0.0
  0
POINT
  5
2CF
330
2C3
100
AcDbEntity
  8
Defpoints
100
AcDbPoint
 10
66.0
 20
400.0
 30
0.0
  0
POINT
  5
2D0
330
2C3
100
AcDbEntity
  8
Defpoints
100
AcDbPoint
 10
66.0
 20
412.0
 30
0.0
  0
ENDBLK
  5
2C5
330
2C3
100
AcDbEntity
  8
0
100
AcDbBlockEnd
  0
BLOCK
  5
2D3
330
2D2
100
AcDbEntity
  8
0
100
AcDbBlockBegin
  2
*D12
 70
1
 10
0.0
 20
0.0
 30
0.0
  3
*D12
  1

  0
LINE
  5
2D5
330
2D2
100
AcDbEntity
  8
0
 62
4
370
13
100
AcDbLine
 10
65.0
 20
412.0
 30
0.0
 11
28.8
 21
412.0
 31
0.0
  0
LINE
  5
2D6
330
2D2
100
AcDbEntity
  8
0
 62
4
370
13
100
AcDbLine
 10
65.0
 20
512.0
 30
0.0
 11
28.8
 21
512.0
 31
0.0
  0
INSERT
  5
2D7
330
2D2
100
AcDbEntity
  8
S-DIM
 62
4
100
AcDbBlockReference
  2
_ARCHTICK
 10
30.0
 20
412.0
 30
0.0
 41
1.6
 42
1.6
 50
270.0
  0
INSERT
  5
2D9
330
2D2
100
AcDbEntity
  8
S-DIM
 62
4
100
AcDbBlockReference
  2
_ARCHTICK
 10
30.0
 20
512.0
 30
0.0
 41
1.6
 42
1.6
 50
90.0
  0
LINE
  5
2DB
330
2D2
100
AcDbEntity
  8
0
 62
4
370
13
100
AcDbLine
 10
30.0
 20
412.0
 30
0.0
 11
30.0
 21
512.0
 31
0.0
  0
MTEXT
  5
2DC
330
2D2
100
AcDbEntity
  8
S-DIM
 62
4
100
AcDbMText
 10
28.3
 20
462.0
 30
0.0
 40
1.8
 71
5
  1
5000
  7
OpenSansCondensed-Light
 50
90.0
  0
POINT
  5
2DD
330
2D2
100
AcDbEntity
  8
Defpoints
100
AcDbPoint
 10
30.0
 20
412.0
 30
0.0
  0
POINT
  5
2DE
330
2D2
100
AcDbEntity
  8
Defpoints
100
AcDbPoint
 10
66.0
 20
412.0
 30
0.0
  0
POINT
  5
2DF
330
2D2
100
AcDbEntity
  8
Defpoints
100
AcDbPoint
 10
66.0
 20
512.0
 30
0.0
  0
ENDBLK
  5
2D4
330
2D2
100
AcDbEntity
  8
0
100
AcDbBlockEnd
  0
BLOCK
  5
2E2
330
2E1
100
AcDbEntity
  8
0
100
AcDbBlockBegin
  2
*D13
 70
1
 10
0.0
 20
0.0
 30
0.0
  3
*D13
  1

  0
LINE
  5
2E4
330
2E1
100
AcDbEntity
  8
0
 62
4
370
13
100
AcDbLine
 10
65.0
 20
512.0
 30
0.0
 11
28.8
 21
512.0
 31
0.0
  0
LINE
  5
2E5
330
2E1
100
AcDbEntity
  8
0
 62
4
370
13
100
AcDbLine
 10
65.0
 20
524.0
 30
0.0
 11
28.8
 21
524.0
 31
0.0
  0
INSERT
  5
2E6
330
2E1
100
AcDbEntity
  8
S-DIM
 62
4
100
AcDbBlockReference
  2
_ARCHTICK
 10
30.0
 20
512.0
 30
0.0
 41
1.6
 42
1.6
 50
270.0
  0
INSERT
  5
2E8
330
2E1
100
AcDbEntity
  8
S-DIM
 62
4
100
AcDbBlockReference
  2
_ARCHTICK
 10
30.0
 20
524.0
 30
0.0
 41
1.6
 42
1.6
 50
90.0
  0
LINE
  5
2EA
330
2E1
100
AcDbEntity
  8
0
 62
4
370
13
100
AcDbLine
 10
30.0
 20
512.0
 30
0.0
 11
30.0
 21
524.0
 31
0.0
  0
MTEXT
  5
2EB
330
2E1
100
AcDbEntity
  8
S-DIM
 62
4
100
AcDbMText
 10
28.3
 20
518.0
 30
0.0
 40
1.8
 71
5
  1
600
  7
OpenSansCondensed-Light
 50
90.0
  0
POINT
  5
2EC
330
2E1
100
AcDbEntity
  8
Defpoints
100
AcDbPoint
 10
30.0
 20
512.0
 30
0.0
  0
POINT
  5
2ED
330
2E1
100
AcDbEntity
  8
Defpoints
100
AcDbPoint
 10
66.0
 20
512.0
 30
0.0
  0
POINT
  5
2EE
330
2E1
100
AcDbEntity
  8
Defpoints
100
AcDbPoint
 10
66.0
 20
524.0
 30
0.0
  0
ENDBLK
  5
2E3
330
2E1
100
AcDbEntity
  8
0
100
AcDbBlockEnd
  0
BLOCK
  5
2F1
330
2F0
100
AcDbEntity
  8
0
100
AcDbBlockBegin
  2
*D14
 70
1
 10
0.0
 20
0.0
 30
0.0
  3
*D14
  1

  0
LINE
  5
2F3
330
2F0
100
AcDbEntity
  8
0
 62
4
370
13
100
AcDbLine
 10
65.0
 20
400.0
 30
0.0
 11
19.8
 21
400.0
 31
0.0
  0
LINE
  5
2F4
330
2F0
100
AcDbEntity
  8
0
 62
4
370
13
100
AcDbLine
 10
65.0
 20
524.0
 30
0.0
 11
19.8
 21
524.0
 31
0.0
  0
INSERT
  5
2F5
330
2F0
100
AcDbEntity
  8
S-DIM
 62
4
100
AcDbBlockReference
  2
_ARCHTICK
 10
21.0
 20
400.0
 30
0.0
 41
1.6
 42
1.6
 50
270.0
  0
INSERT
  5
2F7
330
2F0
100
AcDbEntity
  8
S-DIM
 62
4
100
AcDbBlockReference
  2
_ARCHTICK
 10
21.0
 20
524.0
 30
0.0
 41
1.6
 42
1.6
 50
90.0
  0
LINE
  5
2F9
330
2F0
100
AcDbEntity
  8
0
 62
4
370
13
100
AcDbLine
 10
21.0
 20
400.0
 30
0.0
 11
21.0
 21
524.0
 31
0.0
  0
MTEXT
  5
2FA
330
2F0
100
AcDbEntity
  8
S-DIM
 62
4
100
AcDbMText
 10
19.3
 20
462.0
 30
0.0
 40
1.8
 71
5
  1
6200
  7
OpenSansCondensed-Light
 50
90.0
  0
POINT
  5
2FB
330
2F0
100
AcDbEntity
  8
Defpoints
100
AcDbPoint
 10
21.0
 20
400.0
 30
0.0
  0
POINT
  5
2FC
330
2F0
100
AcDbEntity
  8
Defpoints
100
AcDbPoint
 10
66.0
 20
400.0
 30
0.0
  0
POINT
  5
2FD
330
2F0
100
AcDbEntity
  8
Defpoints
100
AcDbPoint
 10
66.0
 20
524.0
 30
0.0
  0
ENDBLK
  5
2F2
330
2F0
100
AcDbEntity
  8
0
100
AcDbBlockEnd
  0
BLOCK
  5
300
330
2FF
100
AcDbEntity
  8
0
100
AcDbBlockBegin
  2
*D15
 70
1
 10
0.0
 20
0.0
 30
0.0
  3
*D15
  1

  0
LINE
  5
302
330
2FF
100
AcDbEntity
  8
0
 62
4
370
13
100
AcDbLine
 10
370.0
 20
399.0
 30
0.0
 11
370.0
 21
378.8
 31
0.0
  0
LINE
  5
303
330
2FF
100
AcDbEntity
  8
0
 62
4
370
13
100
AcDbLine
 10
426.0
 20
399.0
 30
0.0
 11
426.0
 21
378.8
 31
0.0
  0
INSERT
  5
304
330
2FF
100
AcDbEntity
  8
S-DIM
 62
4
100
AcDbBlockReference
  2
_ARCHTICK
 10
370.0
 20
380.0
 30
0.0
 41
1.6
 42
1.6
 50
180.0
  0
INSERT
  5
306
330
2FF
100
AcDbEntity
  8
S-DIM
 62
4
100
AcDbBlockReference
  2
_ARCHTICK
 10
426.0
 20
380.0
 30
0.0
 41
1.6
 42
1.6
  0
LINE
  5
308
330
2FF
100
AcDbEntity
  8
0
 62
4
370
13
100
AcDbLine
 10
370.0
 20
380.0
 30
0.0
 11
426.0
 21
380.0
 31
0.0
  0
MTEXT
  5
309
330
2FF
100
AcDbEntity
  8
S-DIM
 62
4
100
AcDbMText
 10
398.0
 20
381.7
 30
0.0
 40
1.8
 71
5
  1
2800
  7
OpenSansCondensed-Light
  0
POINT
  5
30A
330
2FF
100
AcDbEntity
  8
Defpoints
100
AcDbPoint
 10
370.0
 20
380.0
 30
0.0
  0
POINT
  5
30B
330
2FF
100
AcDbEntity
  8
Defpoints
100
AcDbPoint
 10
370.0
 20
400.0
 30
0.0
  0
POINT
  5
30C
330
2FF
100
AcDbEntity
  8
Defpoints
100
AcDbPoint
 10
426.0
 20
400.0
 30
0.0
  0
ENDBLK
  5
301
330
2FF
100
AcDbEntity
  8
0
100
AcDbBlockEnd
  0
BLOCK
  5
30F
330
30E
100
AcDbEntity
  8
0
100
AcDbBlockBegin
  2
*D16
 70
1
 10
0.0
 20
0.0
 30
0.0
  3
*D16
  1

  0
LINE
  5
311
330
30E
100
AcDbEntity
  8
0
 62
4
370
13
100
AcDbLine
 10
369.0
 20
412.0
 30
0.0
 11
348.8
 21
412.0
 31
0.0
  0
LINE
  5
312
330
30E
100
AcDbEntity
  8
0
 62
4
370
13
100
AcDbLine
 10
369.0
 20
475.2
 30
0.0
 11
348.8
 21
475.2
 31
0.0
  0
INSERT
  5
313
330
30E
100
AcDbEntity
  8
S-DIM
 62
4
100
AcDbBlockReference
  2
_ARCHTICK
 10
350.0
 20
412.0
 30
0.0
 41
1.6
 42
1.6
 50
270.0
  0
INSERT
  5
315
330
30E
100
AcDbEntity
  8
S-DIM
 62
4
100
AcDbBlockReference
  2
_ARCHTICK
 10
350.0
 20
475.2
 30
0.0
 41
1.6
 42
1.6
 50
90.0
  0
LINE
  5
317
330
30E
100
AcDbEntity
  8
0
 62
4
370
13
100
AcDbLine
 10
350.0
 20
412.0
 30
0.0
 11
350.0
 21
475.2
 31
0.0
  0
MTEXT
  5
318
330
30E
100
AcDbEntity
  8
S-DIM
 62
4
100
AcDbMText
 10
348.3
 20
443.6
 30
0.0
 40
1.8
 71
5
  1
3160
  7
OpenSansCondensed-Light
 50
90.0
  0
POINT
  5
319
330
30E
100
AcDbEntity
  8
Defpoints
100
AcDbPoint
 10
350.0
 20
412.0
 30
0.0
  0
POINT
  5
31A
330
30E
100
AcDbEntity
  8
Defpoints
100
AcDbPoint
 10
370.0
 20
412.0
 30
0.0
  0
POINT
  5
31B
330
30E
100
AcDbEntity
  8
Defpoints
100
AcDbPoint
 10
370.0
 20
475.2
 30
0.0
  0
ENDBLK
  5
310
330
30E
100
AcDbEntity
  8
0
100
AcDbBlockEnd
  0
ENDSEC
  0
SECTION
  2
ENTITIES
  0
LWPOLYLINE
  5
B7
330
17
100
AcDbEntity
  8
S-TITLE
100
AcDbPolyline
 90
4
 70
1
 10
0.0
 20
0.0
 10
841.0
 20
0.0
 10
841.0
 20
594.0
 10
0.0
 20
594.0
  0
LWPOLYLINE
  5
B8
330
17
100
AcDbEntity
  8
S-TITLE
100
AcDbPolyline
 90
4
 70
1
 10
10.0
 20
10.0
 10
831.0
 20
10.0
 10
831.0
 20
584.0
 10
10.0
 20
584.0
  0
TEXT
  5
B9
330
17
100
AcDbEntity
  8
S-TITLE
100
AcDbText
 10
12.0
 20
576.5
 30
0.0
 40
5.0
  1
STRUCTURAL CAD - REINFORCEMENT PACKAGE
  7
OpenSans
 11
12.0
 21
576.5
 31
0.0
100
AcDbText
  0
TEXT
  5
BA
330
17
100
AcDbEntity
  8
S-TITLE
100
AcDbText
 10
12.0
 20
569.5
 30
0.0
 40
2.4
  1
R-301   ROOF / PRESSURE SLAB REINFORCEMENT PLAN
  7
OpenSans
 11
12.0
 21
569.5
 31
0.0
100
AcDbText
  0
LINE
  5
BB
330
17
100
AcDbEntity
  8
S-TITLE
100
AcDbLine
 10
10.0
 20
566.5
 30
0.0
 11
831.0
 21
566.5
 31
0.0
  0
TEXT
  5
BC
330
17
100
AcDbEntity
  8
S-BLAST
100
AcDbText
 10
829.0
 20
577.0
 30
0.0
 40
2.0
  1
SENTRY POST EXCLUDED FROM THIS PACKAGE
  7
OpenSans
 72
2
 11
829.0
 21
577.0
 31
0.0
100
AcDbText
  0
TEXT
  5
BD
330
17
100
AcDbEntity
  8
S-BLAST
100
AcDbText
 10
829.0
 20
570.5
 30
0.0
 40
1.4
  1
ALL DESIGN ACTIONS ARE MANUAL CALCULATION - NOT DIRECT STAAD OUTPUT
  7
OpenSans
 72
2
 11
829.0
 21
570.5
 31
0.0
100
AcDbText
  0
TEXT
  5
BE
330
17
100
AcDbEntity
  8
S-BLAST
100
AcDbText
 10
12.0
 20
561.5
 30
0.0
 40
1.4
  1
OPEN ITEMS ON THIS SHEET:  C17 COVER LOAD  F2 CANTILEVER PAD
  7
OpenSans
 11
12.0
 21
561.5
 31
0.0
100
AcDbText
  0
LWPOLYLINE
  5
BF
330
17
100
AcDbEntity
  8
S-CONCRETE
100
AcDbPolyline
 90
4
 70
1
 10
66.0
 20
400.0
 10
506.0
 20
400.0
 10
506.0
 20
524.0
 10
66.0
 20
524.0
  0
LWPOLYLINE
  5
C0
330
17
100
AcDbEntity
  8
S-CONCRETE-THIN
100
AcDbPolyline
 90
4
 70
1
 10
78.0
 20
412.0
 10
494.0
 20
412.0
 10
494.0
 20
512.0
 10
78.0
 20
512.0
  0
LINE
  5
C1
330
17
100
AcDbEntity
  8
S-HIDDEN
100
AcDbLine
 10
318.0
 20
400.0
 30
0.0
 11
318.0
 21
402.0
 31
0.0
  0
LINE
  5
C2
330
17
100
AcDbEntity
  8
S-HIDDEN
100
AcDbLine
 10
318.0
 20
403.4
 30
0.0
 11
318.0
 21
405.4
 31
0.0
  0
LINE
  5
C3
330
17
100
AcDbEntity
  8
S-HIDDEN
100
AcDbLine
 10
318.0
 20
406.8
 30
0.0
 11
318.0
 21
408.8
 31
0.0
  0
LINE
  5
C4
330
17
100
AcDbEntity
  8
S-HIDDEN
100
AcDbLine
 10
318.0
 20
410.2
 30
0.0
 11
318.0
 21
412.2
 31
0.0
  0
LINE
  5
C5
330
17
100
AcDbEntity
  8
S-HIDDEN
100
AcDbLine
 10
318.0
 20
413.6
 30
0.0
 11
318.0
 21
415.6
 31
0.0
  0
LINE
  5
C6
330
17
100
AcDbEntity
  8
S-HIDDEN
100
AcDbLine
 10
318.0
 20
417.0
 30
0.0
 11
318.0
 21
419.0
 31
0.0
  0
LINE
  5
C7
330
17
100
AcDbEntity
  8
S-HIDDEN
100
AcDbLine
 10
318.0
 20
420.4
 30
0.0
 11
318.0
 21
422.4
 31
0.0
  0
LINE
  5
C8
330
17
100
AcDbEntity
  8
S-HIDDEN
100
AcDbLine
 10
318.0
 20
423.8
 30
0.0
 11
318.0
 21
425.8
 31
0.0
  0
LINE
  5
C9
330
17
100
AcDbEntity
  8
S-HIDDEN
100
AcDbLine
 10
318.0
 20
427.2
 30
0.0
 11
318.0
 21
429.2
 31
0.0
  0
LINE
  5
CA
330
17
100
AcDbEntity
  8
S-HIDDEN
100
AcDbLine
 10
318.0
 20
430.6
 30
0.0
 11
318.0
 21
432.6
 31
0.0
  0
LINE
  5
CB
330
17
100
AcDbEntity
  8
S-HIDDEN
100
AcDbLine
 10
318.0
 20
434.0
 30
0.0
 11
318.0
 21
436.0
 31
0.0
  0
LINE
  5
CC
330
17
100
AcDbEntity
  8
S-HIDDEN
100
AcDbLine
 10
318.0
 20
437.4
 30
0.0
 11
318.0
 21
439.4
 31
0.0
  0
LINE
  5
CD
330
17
100
AcDbEntity
  8
S-HIDDEN
100
AcDbLine
 10
318.0
 20
440.8
 30
0.0
 11
318.0
 21
442.8
 31
0.0
  0
LINE
  5
CE
330
17
100
AcDbEntity
  8
S-HIDDEN
100
AcDbLine
 10
318.0
 20
444.2
 30
0.0
 11
318.0
 21
446.2
 31
0.0
  0
LINE
  5
CF
330
17
100
AcDbEntity
  8
S-HIDDEN
100
AcDbLine
 10
318.0
 20
447.59999999999997
 30
0.0
 11
318.0
 21
449.59999999999997
 31
0.0
  0
LINE
  5
D0
330
17
100
AcDbEntity
  8
S-HIDDEN
100
AcDbLine
 10
318.0
 20
451.0
 30
0.0
 11
318.0
 21
453.0
 31
0.0
  0
LINE
  5
D1
330
17
100
AcDbEntity
  8
S-HIDDEN
100
AcDbLine
 10
318.0
 20
454.4
 30
0.0
 11
318.0
 21
456.4
 31
0.0
  0
LINE
  5
D2
330
17
100
AcDbEntity
  8
S-HIDDEN
100
AcDbLine
 10
318.0
 20
457.79999999999995
 30
0.0
 11
318.0
 21
459.79999999999995
 31
0.0
  0
LINE
  5
D3
330
17
100
AcDbEntity
  8
S-HIDDEN
100
AcDbLine
 10
318.0
 20
461.2
 30
0.0
 11
318.0
 21
463.2
 31
0.0
  0
LINE
  5
D4
330
17
100
AcDbEntity
  8
S-HIDDEN
100
AcDbLine
 10
318.0
 20
464.59999999999997
 30
0.0
 11
318.0
 21
466.59999999999997
 31
0.0
  0
LINE
  5
D5
330
17
100
AcDbEntity
  8
S-HIDDEN
100
AcDbLine
 10
318.0
 20
468.0
 30
0.0
 11
318.0
 21
470.0
 31
0.0
  0
LINE
  5
D6
330
17
100
AcDbEntity
  8
S-HIDDEN
100
AcDbLine
 10
318.0
 20
471.4
 30
0.0
 11
318.0
 21
473.4
 31
0.0
  0
LINE
  5
D7
330
17
100
AcDbEntity
  8
S-HIDDEN
100
AcDbLine
 10
318.0
 20
474.8
 30
0.0
 11
318.0
 21
476.8
 31
0.0
  0
LINE
  5
D8
330
17
100
AcDbEntity
  8
S-HIDDEN
100
AcDbLine
 10
318.0
 20
478.2
 30
0.0
 11
318.0
 21
480.2
 31
0.0
  0
LINE
  5
D9
330
17
100
AcDbEntity
  8
S-HIDDEN
100
AcDbLine
 10
318.0
 20
481.6
 30
0.0
 11
318.0
 21
483.6
 31
0.0
  0
LINE
  5
DA
330
17
100
AcDbEntity
  8
S-HIDDEN
100
AcDbLine
 10
318.0
 20
485.0
 30
0.0
 11
318.0
 21
487.0
 31
0.0
  0
LINE
  5
DB
330
17
100
AcDbEntity
  8
S-HIDDEN
100
AcDbLine
 10
318.0
 20
488.40000000000003
 30
0.0
 11
318.0
 21
490.40000000000003
 31
0.0
  0
LINE
  5
DC
330
17
100
AcDbEntity
  8
S-HIDDEN
100
AcDbLine
 10
318.0
 20
491.8
 30
0.0
 11
318.0
 21
493.8
 31
0.0
  0
LINE
  5
DD
330
17
100
AcDbEntity
  8
S-HIDDEN
100
AcDbLine
 10
318.0
 20
495.20000000000005
 30
0.0
 11
318.0
 21
497.20000000000005
 31
0.0
  0
LINE
  5
DE
330
17
100
AcDbEntity
  8
S-HIDDEN
100
AcDbLine
 10
318.0
 20
498.6
 30
0.0
 11
318.0
 21
500.6
 31
0.0
  0
LINE
  5
DF
330
17
100
AcDbEntity
  8
S-HIDDEN
100
AcDbLine
 10
318.0
 20
502.00000000000006
 30
0.0
 11
318.0
 21
504.00000000000006
 31
0.0
  0
LINE
  5
E0
330
17
100
AcDbEntity
  8
S-HIDDEN
100
AcDbLine
 10
318.0
 20
505.40000000000003
 30
0.0
 11
318.0
 21
507.40000000000003
 31
0.0
  0
LINE
  5
E1
330
17
100
AcDbEntity
  8
S-HIDDEN
100
AcDbLine
 10
318.0
 20
508.80000000000007
 30
0.0
 11
318.0
 21
510.80000000000007
 31
0.0
  0
LINE
  5
E2
330
17
100
AcDbEntity
  8
S-HIDDEN
100
AcDbLine
 10
318.0
 20
512.2
 30
0.0
 11
318.0
 21
514.2
 31
0.0
  0
LINE
  5
E3
330
17
100
AcDbEntity
  8
S-HIDDEN
100
AcDbLine
 10
318.0
 20
515.6
 30
0.0
 11
318.0
 21
517.6
 31
0.0
  0
LINE
  5
E4
330
17
100
AcDbEntity
  8
S-HIDDEN
100
AcDbLine
 10
318.0
 20
519.0000000000001
 30
0.0
 11
318.0
 21
521.0000000000001
 31
0.0
  0
LINE
  5
E5
330
17
100
AcDbEntity
  8
S-HIDDEN
100
AcDbLine
 10
318.0
 20
522.4000000000001
 30
0.0
 11
318.0
 21
524.0
 31
0.0
  0
LINE
  5
E6
330
17
100
AcDbEntity
  8
S-HIDDEN
100
AcDbLine
 10
322.0
 20
400.0
 30
0.0
 11
322.0
 21
402.0
 31
0.0
  0
LINE
  5
E7
330
17
100
AcDbEntity
  8
S-HIDDEN
100
AcDbLine
 10
322.0
 20
403.4
 30
0.0
 11
322.0
 21
405.4
 31
0.0
  0
LINE
  5
E8
330
17
100
AcDbEntity
  8
S-HIDDEN
100
AcDbLine
 10
322.0
 20
406.8
 30
0.0
 11
322.0
 21
408.8
 31
0.0
  0
LINE
  5
E9
330
17
100
AcDbEntity
  8
S-HIDDEN
100
AcDbLine
 10
322.0
 20
410.2
 30
0.0
 11
322.0
 21
412.2
 31
0.0
  0
LINE
  5
EA
330
17
100
AcDbEntity
  8
S-HIDDEN
100
AcDbLine
 10
322.0
 20
413.6
 30
0.0
 11
322.0
 21
415.6
 31
0.0
  0
LINE
  5
EB
330
17
100
AcDbEntity
  8
S-HIDDEN
100
AcDbLine
 10
322.0
 20
417.0
 30
0.0
 11
322.0
 21
419.0
 31
0.0
  0
LINE
  5
EC
330
17
100
AcDbEntity
  8
S-HIDDEN
100
AcDbLine
 10
322.0
 20
420.4
 30
0.0
 11
322.0
 21
422.4
 31
0.0
  0
LINE
  5
ED
330
17
100
AcDbEntity
  8
S-HIDDEN
100
AcDbLine
 10
322.0
 20
423.8
 30
0.0
 11
322.0
 21
425.8
 31
0.0
  0
LINE
  5
EE
330
17
100
AcDbEntity
  8
S-HIDDEN
100
AcDbLine
 10
322.0
 20
427.2
 30
0.0
 11
322.0
 21
429.2
 31
0.0
  0
LINE
  5
EF
330
17
100
AcDbEntity
  8
S-HIDDEN
100
AcDbLine
 10
322.0
 20
430.6
 30
0.0
 11
322.0
 21
432.6
 31
0.0
  0
LINE
  5
F0
330
17
100
AcDbEntity
  8
S-HIDDEN
100
AcDbLine
 10
322.0
 20
434.0
 30
0.0
 11
322.0
 21
436.0
 31
0.0
  0
LINE
  5
F1
330
17
100
AcDbEntity
  8
S-HIDDEN
100
AcDbLine
 10
322.0
 20
437.4
 30
0.0
 11
322.0
 21
439.4
 31
0.0
  0
LINE
  5
F2
330
17
100
AcDbEntity
  8
S-HIDDEN
100
AcDbLine
 10
322.0
 20
440.8
 30
0.0
 11
322.0
 21
442.8
 31
0.0
  0
LINE
  5
F3
330
17
100
AcDbEntity
  8
S-HIDDEN
100
AcDbLine
 10
322.0
 20
444.2
 30
0.0
 11
322.0
 21
446.2
 31
0.0
  0
LINE
  5
F4
330
17
100
AcDbEntity
  8
S-HIDDEN
100
AcDbLine
 10
322.0
 20
447.59999999999997
 30
0.0
 11
322.0
 21
449.59999999999997
 31
0.0
  0
LINE
  5
F5
330
17
100
AcDbEntity
  8
S-HIDDEN
100
AcDbLine
 10
322.0
 20
451.0
 30
0.0
 11
322.0
 21
453.0
 31
0.0
  0
LINE
  5
F6
330
17
100
AcDbEntity
  8
S-HIDDEN
100
AcDbLine
 10
322.0
 20
454.4
 30
0.0
 11
322.0
 21
456.4
 31
0.0
  0
LINE
  5
F7
330
17
100
AcDbEntity
  8
S-HIDDEN
100
AcDbLine
 10
322.0
 20
457.79999999999995
 30
0.0
 11
322.0
 21
459.79999999999995
 31
0.0
  0
LINE
  5
F8
330
17
100
AcDbEntity
  8
S-HIDDEN
100
AcDbLine
 10
322.0
 20
461.2
 30
0.0
 11
322.0
 21
463.2
 31
0.0
  0
LINE
  5
F9
330
17
100
AcDbEntity
  8
S-HIDDEN
100
AcDbLine
 10
322.0
 20
464.59999999999997
 30
0.0
 11
322.0
 21
466.59999999999997
 31
0.0
  0
LINE
  5
FA
330
17
100
AcDbEntity
  8
S-HIDDEN
100
AcDbLine
 10
322.0
 20
468.0
 30
0.0
 11
322.0
 21
470.0
 31
0.0
  0
LINE
  5
FB
330
17
100
AcDbEntity
  8
S-HIDDEN
100
AcDbLine
 10
322.0
 20
471.4
 30
0.0
 11
322.0
 21
473.4
 31
0.0
  0
LINE
  5
FC
330
17
100
AcDbEntity
  8
S-HIDDEN
100
AcDbLine
 10
322.0
 20
474.8
 30
0.0
 11
322.0
 21
476.8
 31
0.0
  0
LINE
  5
FD
330
17
100
AcDbEntity
  8
S-HIDDEN
100
AcDbLine
 10
322.0
 20
478.2
 30
0.0
 11
322.0
 21
480.2
 31
0.0
  0
LINE
  5
FE
330
17
100
AcDbEntity
  8
S-HIDDEN
100
AcDbLine
 10
322.0
 20
481.6
 30
0.0
 11
322.0
 21
483.6
 31
0.0
  0
LINE
  5
FF
330
17
100
AcDbEntity
  8
S-HIDDEN
100
AcDbLine
 10
322.0
 20
485.0
 30
0.0
 11
322.0
 21
487.0
 31
0.0
  0
LINE
  5
100
330
17
100
AcDbEntity
  8
S-HIDDEN
100
AcDbLine
 10
322.0
 20
488.40000000000003
 30
0.0
 11
322.0
 21
490.40000000000003
 31
0.0
  0
LINE
  5
101
330
17
100
AcDbEntity
  8
S-HIDDEN
100
AcDbLine
 10
322.0
 20
491.8
 30
0.0
 11
322.0
 21
493.8
 31
0.0
  0
LINE
  5
102
330
17
100
AcDbEntity
  8
S-HIDDEN
100
AcDbLine
 10
322.0
 20
495.20000000000005
 30
0.0
 11
322.0
 21
497.20000000000005
 31
0.0
  0
LINE
  5
103
330
17
100
AcDbEntity
  8
S-HIDDEN
100
AcDbLine
 10
322.0
 20
498.6
 30
0.0
 11
322.0
 21
500.6
 31
0.0
  0
LINE
  5
104
330
17
100
AcDbEntity
  8
S-HIDDEN
100
AcDbLine
 10
322.0
 20
502.00000000000006
 30
0.0
 11
322.0
 21
504.00000000000006
 31
0.0
  0
LINE
  5
105
330
17
100
AcDbEntity
  8
S-HIDDEN
100
AcDbLine
 10
322.0
 20
505.40000000000003
 30
0.0
 11
322.0
 21
507.40000000000003
 31
0.0
  0
LINE
  5
106
330
17
100
AcDbEntity
  8
S-HIDDEN
100
AcDbLine
 10
322.0
 20
508.80000000000007
 30
0.0
 11
322.0
 21
510.80000000000007
 31
0.0
  0
LINE
  5
107
330
17
100
AcDbEntity
  8
S-HIDDEN
100
AcDbLine
 10
322.0
 20
512.2
 30
0.0
 11
322.0
 21
514.2
 31
0.0
  0
LINE
  5
108
330
17
100
AcDbEntity
  8
S-HIDDEN
100
AcDbLine
 10
322.0
 20
515.6
 30
0.0
 11
322.0
 21
517.6
 31
0.0
  0
LINE
  5
109
330
17
100
AcDbEntity
  8
S-HIDDEN
100
AcDbLine
 10
322.0
 20
519.0000000000001
 30
0.0
 11
322.0
 21
521.0000000000001
 31
0.0
  0
LINE
  5
10A
330
17
100
AcDbEntity
  8
S-HIDDEN
100
AcDbLine
 10
322.0
 20
522.4000000000001
 30
0.0
 11
322.0
 21
524.0
 31
0.0
  0
TEXT
  5
10B
330
17
100
AcDbEntity
  8
S-TEXT
100
AcDbText
 10
320.0
 20
530.0
 30
0.0
 40
1.4
  1
W5
  7
OpenSans
 72
1
 11
320.0
 21
530.0
 31
0.0
100
AcDbText
 73
2
  0
LINE
  5
10C
330
17
100
AcDbEntity
  8
S-HIDDEN
100
AcDbLine
 10
362.0
 20
400.0
 30
0.0
 11
362.0
 21
402.0
 31
0.0
  0
LINE
  5
10D
330
17
100
AcDbEntity
  8
S-HIDDEN
100
AcDbLine
 10
362.0
 20
403.4
 30
0.0
 11
362.0
 21
405.4
 31
0.0
  0
LINE
  5
10E
330
17
100
AcDbEntity
  8
S-HIDDEN
100
AcDbLine
 10
362.0
 20
406.8
 30
0.0
 11
362.0
 21
408.8
 31
0.0
  0
LINE
  5
10F
330
17
100
AcDbEntity
  8
S-HIDDEN
100
AcDbLine
 10
362.0
 20
410.2
 30
0.0
 11
362.0
 21
412.2
 31
0.0
  0
LINE
  5
110
330
17
100
AcDbEntity
  8
S-HIDDEN
100
AcDbLine
 10
362.0
 20
413.6
 30
0.0
 11
362.0
 21
415.6
 31
0.0
  0
LINE
  5
111
330
17
100
AcDbEntity
  8
S-HIDDEN
100
AcDbLine
 10
362.0
 20
417.0
 30
0.0
 11
362.0
 21
419.0
 31
0.0
  0
LINE
  5
112
330
17
100
AcDbEntity
  8
S-HIDDEN
100
AcDbLine
 10
362.0
 20
420.4
 30
0.0
 11
362.0
 21
422.4
 31
0.0
  0
LINE
  5
113
330
17
100
AcDbEntity
  8
S-HIDDEN
100
AcDbLine
 10
362.0
 20
423.8
 30
0.0
 11
362.0
 21
425.8
 31
0.0
  0
LINE
  5
114
330
17
100
AcDbEntity
  8
S-HIDDEN
100
AcDbLine
 10
362.0
 20
427.2
 30
0.0
 11
362.0
 21
429.2
 31
0.0
  0
LINE
  5
115
330
17
100
AcDbEntity
  8
S-HIDDEN
100
AcDbLine
 10
362.0
 20
430.6
 30
0.0
 11
362.0
 21
432.6
 31
0.0
  0
LINE
  5
116
330
17
100
AcDbEntity
  8
S-HIDDEN
100
AcDbLine
 10
362.0
 20
434.0
 30
0.0
 11
362.0
 21
436.0
 31
0.0
  0
LINE
  5
117
330
17
100
AcDbEntity
  8
S-HIDDEN
100
AcDbLine
 10
362.0
 20
437.4
 30
0.0
 11
362.0
 21
439.4
 31
0.0
  0
LINE
  5
118
330
17
100
AcDbEntity
  8
S-HIDDEN
100
AcDbLine
 10
362.0
 20
440.8
 30
0.0
 11
362.0
 21
442.8
 31
0.0
  0
LINE
  5
119
330
17
100
AcDbEntity
  8
S-HIDDEN
100
AcDbLine
 10
362.0
 20
444.2
 30
0.0
 11
362.0
 21
446.2
 31
0.0
  0
LINE
  5
11A
330
17
100
AcDbEntity
  8
S-HIDDEN
100
AcDbLine
 10
362.0
 20
447.59999999999997
 30
0.0
 11
362.0
 21
449.59999999999997
 31
0.0
  0
LINE
  5
11B
330
17
100
AcDbEntity
  8
S-HIDDEN
100
AcDbLine
 10
362.0
 20
451.0
 30
0.0
 11
362.0
 21
453.0
 31
0.0
  0
LINE
  5
11C
330
17
100
AcDbEntity
  8
S-HIDDEN
100
AcDbLine
 10
362.0
 20
454.4
 30
0.0
 11
362.0
 21
456.4
 31
0.0
  0
LINE
  5
11D
330
17
100
AcDbEntity
  8
S-HIDDEN
100
AcDbLine
 10
362.0
 20
457.79999999999995
 30
0.0
 11
362.0
 21
459.79999999999995
 31
0.0
  0
LINE
  5
11E
330
17
100
AcDbEntity
  8
S-HIDDEN
100
AcDbLine
 10
362.0
 20
461.2
 30
0.0
 11
362.0
 21
463.2
 31
0.0
  0
LINE
  5
11F
330
17
100
AcDbEntity
  8
S-HIDDEN
100
AcDbLine
 10
362.0
 20
464.59999999999997
 30
0.0
 11
362.0
 21
466.59999999999997
 31
0.0
  0
LINE
  5
120
330
17
100
AcDbEntity
  8
S-HIDDEN
100
AcDbLine
 10
362.0
 20
468.0
 30
0.0
 11
362.0
 21
470.0
 31
0.0
  0
LINE
  5
121
330
17
100
AcDbEntity
  8
S-HIDDEN
100
AcDbLine
 10
362.0
 20
471.4
 30
0.0
 11
362.0
 21
473.4
 31
0.0
  0
LINE
  5
122
330
17
100
AcDbEntity
  8
S-HIDDEN
100
AcDbLine
 10
362.0
 20
474.8
 30
0.0
 11
362.0
 21
476.8
 31
0.0
  0
LINE
  5
123
330
17
100
AcDbEntity
  8
S-HIDDEN
100
AcDbLine
 10
362.0
 20
478.2
 30
0.0
 11
362.0
 21
480.2
 31
0.0
  0
LINE
  5
124
330
17
100
AcDbEntity
  8
S-HIDDEN
100
AcDbLine
 10
362.0
 20
481.6
 30
0.0
 11
362.0
 21
483.6
 31
0.0
  0
LINE
  5
125
330
17
100
AcDbEntity
  8
S-HIDDEN
100
AcDbLine
 10
362.0
 20
485.0
 30
0.0
 11
362.0
 21
487.0
 31
0.0
  0
LINE
  5
126
330
17
100
AcDbEntity
  8
S-HIDDEN
100
AcDbLine
 10
362.0
 20
488.40000000000003
 30
0.0
 11
362.0
 21
490.40000000000003
 31
0.0
  0
LINE
  5
127
330
17
100
AcDbEntity
  8
S-HIDDEN
100
AcDbLine
 10
362.0
 20
491.8
 30
0.0
 11
362.0
 21
493.8
 31
0.0
  0
LINE
  5
128
330
17
100
AcDbEntity
  8
S-HIDDEN
100
AcDbLine
 10
362.0
 20
495.20000000000005
 30
0.0
 11
362.0
 21
497.20000000000005
 31
0.0
  0
LINE
  5
129
330
17
100
AcDbEntity
  8
S-HIDDEN
100
AcDbLine
 10
362.0
 20
498.6
 30
0.0
 11
362.0
 21
500.6
 31
0.0
  0
LINE
  5
12A
330
17
100
AcDbEntity
  8
S-HIDDEN
100
AcDbLine
 10
362.0
 20
502.00000000000006
 30
0.0
 11
362.0
 21
504.00000000000006
 31
0.0
  0
LINE
  5
12B
330
17
100
AcDbEntity
  8
S-HIDDEN
100
AcDbLine
 10
362.0
 20
505.40000000000003
 30
0.0
 11
362.0
 21
507.40000000000003
 31
0.0
  0
LINE
  5
12C
330
17
100
AcDbEntity
  8
S-HIDDEN
100
AcDbLine
 10
362.0
 20
508.80000000000007
 30
0.0
 11
362.0
 21
510.80000000000007
 31
0.0
  0
LINE
  5
12D
330
17
100
AcDbEntity
  8
S-HIDDEN
100
AcDbLine
 10
362.0
 20
512.2
 30
0.0
 11
362.0
 21
514.2
 31
0.0
  0
LINE
  5
12E
330
17
100
AcDbEntity
  8
S-HIDDEN
100
AcDbLine
 10
362.0
 20
515.6
 30
0.0
 11
362.0
 21
517.6
 31
0.0
  0
LINE
  5
12F
330
17
100
AcDbEntity
  8
S-HIDDEN
100
AcDbLine
 10
362.0
 20
519.0000000000001
 30
0.0
 11
362.0
 21
521.0000000000001
 31
0.0
  0
LINE
  5
130
330
17
100
AcDbEntity
  8
S-HIDDEN
100
AcDbLine
 10
362.0
 20
522.4000000000001
 30
0.0
 11
362.0
 21
524.0
 31
0.0
  0
LINE
  5
131
330
17
100
AcDbEntity
  8
S-HIDDEN
100
AcDbLine
 10
370.0
 20
400.0
 30
0.0
 11
370.0
 21
402.0
 31
0.0
  0
LINE
  5
132
330
17
100
AcDbEntity
  8
S-HIDDEN
100
AcDbLine
 10
370.0
 20
403.4
 30
0.0
 11
370.0
 21
405.4
 31
0.0
  0
LINE
  5
133
330
17
100
AcDbEntity
  8
S-HIDDEN
100
AcDbLine
 10
370.0
 20
406.8
 30
0.0
 11
370.0
 21
408.8
 31
0.0
  0
LINE
  5
134
330
17
100
AcDbEntity
  8
S-HIDDEN
100
AcDbLine
 10
370.0
 20
410.2
 30
0.0
 11
370.0
 21
412.2
 31
0.0
  0
LINE
  5
135
330
17
100
AcDbEntity
  8
S-HIDDEN
100
AcDbLine
 10
370.0
 20
413.6
 30
0.0
 11
370.0
 21
415.6
 31
0.0
  0
LINE
  5
136
330
17
100
AcDbEntity
  8
S-HIDDEN
100
AcDbLine
 10
370.0
 20
417.0
 30
0.0
 11
370.0
 21
419.0
 31
0.0
  0
LINE
  5
137
330
17
100
AcDbEntity
  8
S-HIDDEN
100
AcDbLine
 10
370.0
 20
420.4
 30
0.0
 11
370.0
 21
422.4
 31
0.0
  0
LINE
  5
138
330
17
100
AcDbEntity
  8
S-HIDDEN
100
AcDbLine
 10
370.0
 20
423.8
 30
0.0
 11
370.0
 21
425.8
 31
0.0
  0
LINE
  5
139
330
17
100
AcDbEntity
  8
S-HIDDEN
100
AcDbLine
 10
370.0
 20
427.2
 30
0.0
 11
370.0
 21
429.2
 31
0.0
  0
LINE
  5
13A
330
17
100
AcDbEntity
  8
S-HIDDEN
100
AcDbLine
 10
370.0
 20
430.6
 30
0.0
 11
370.0
 21
432.6
 31
0.0
  0
LINE
  5
13B
330
17
100
AcDbEntity
  8
S-HIDDEN
100
AcDbLine
 10
370.0
 20
434.0
 30
0.0
 11
370.0
 21
436.0
 31
0.0
  0
LINE
  5
13C
330
17
100
AcDbEntity
  8
S-HIDDEN
100
AcDbLine
 10
370.0
 20
437.4
 30
0.0
 11
370.0
 21
439.4
 31
0.0
  0
LINE
  5
13D
330
17
100
AcDbEntity
  8
S-HIDDEN
100
AcDbLine
 10
370.0
 20
440.8
 30
0.0
 11
370.0
 21
442.8
 31
0.0
  0
LINE
  5
13E
330
17
100
AcDbEntity
  8
S-HIDDEN
100
AcDbLine
 10
370.0
 20
444.2
 30
0.0
 11
370.0
 21
446.2
 31
0.0
  0
LINE
  5
13F
330
17
100
AcDbEntity
  8
S-HIDDEN
100
AcDbLine
 10
370.0
 20
447.59999999999997
 30
0.0
 11
370.0
 21
449.59999999999997
 31
0.0
  0
LINE
  5
140
330
17
100
AcDbEntity
  8
S-HIDDEN
100
AcDbLine
 10
370.0
 20
451.0
 30
0.0
 11
370.0
 21
453.0
 31
0.0
  0
LINE
  5
141
330
17
100
AcDbEntity
  8
S-HIDDEN
100
AcDbLine
 10
370.0
 20
454.4
 30
0.0
 11
370.0
 21
456.4
 31
0.0
  0
LINE
  5
142
330
17
100
AcDbEntity
  8
S-HIDDEN
100
AcDbLine
 10
370.0
 20
457.79999999999995
 30
0.0
 11
370.0
 21
459.79999999999995
 31
0.0
  0
LINE
  5
143
330
17
100
AcDbEntity
  8
S-HIDDEN
100
AcDbLine
 10
370.0
 20
461.2
 30
0.0
 11
370.0
 21
463.2
 31
0.0
  0
LINE
  5
144
330
17
100
AcDbEntity
  8
S-HIDDEN
100
AcDbLine
 10
370.0
 20
464.59999999999997
 30
0.0
 11
370.0
 21
466.59999999999997
 31
0.0
  0
LINE
  5
145
330
17
100
AcDbEntity
  8
S-HIDDEN
100
AcDbLine
 10
370.0
 20
468.0
 30
0.0
 11
370.0
 21
470.0
 31
0.0
  0
LINE
  5
146
330
17
100
AcDbEntity
  8
S-HIDDEN
100
AcDbLine
 10
370.0
 20
471.4
 30
0.0
 11
370.0
 21
473.4
 31
0.0
  0
LINE
  5
147
330
17
100
AcDbEntity
  8
S-HIDDEN
100
AcDbLine
 10
370.0
 20
474.8
 30
0.0
 11
370.0
 21
476.8
 31
0.0
  0
LINE
  5
148
330
17
100
AcDbEntity
  8
S-HIDDEN
100
AcDbLine
 10
370.0
 20
478.2
 30
0.0
 11
370.0
 21
480.2
 31
0.0
  0
LINE
  5
149
330
17
100
AcDbEntity
  8
S-HIDDEN
100
AcDbLine
 10
370.0
 20
481.6
 30
0.0
 11
370.0
 21
483.6
 31
0.0
  0
LINE
  5
14A
330
17
100
AcDbEntity
  8
S-HIDDEN
100
AcDbLine
 10
370.0
 20
485.0
 30
0.0
 11
370.0
 21
487.0
 31
0.0
  0
LINE
  5
14B
330
17
100
AcDbEntity
  8
S-HIDDEN
100
AcDbLine
 10
370.0
 20
488.40000000000003
 30
0.0
 11
370.0
 21
490.40000000000003
 31
0.0
  0
LINE
  5
14C
330
17
100
AcDbEntity
  8
S-HIDDEN
100
AcDbLine
 10
370.0
 20
491.8
 30
0.0
 11
370.0
 21
493.8
 31
0.0
  0
LINE
  5
14D
330
17
100
AcDbEntity
  8
S-HIDDEN
100
AcDbLine
 10
370.0
 20
495.20000000000005
 30
0.0
 11
370.0
 21
497.20000000000005
 31
0.0
  0
LINE
  5
14E
330
17
100
AcDbEntity
  8
S-HIDDEN
100
AcDbLine
 10
370.0
 20
498.6
 30
0.0
 11
370.0
 21
500.6
 31
0.0
  0
LINE
  5
14F
330
17
100
AcDbEntity
  8
S-HIDDEN
100
AcDbLine
 10
370.0
 20
502.00000000000006
 30
0.0
 11
370.0
 21
504.00000000000006
 31
0.0
  0
LINE
  5
150
330
17
100
AcDbEntity
  8
S-HIDDEN
100
AcDbLine
 10
370.0
 20
505.40000000000003
 30
0.0
 11
370.0
 21
507.40000000000003
 31
0.0
  0
LINE
  5
151
330
17
100
AcDbEntity
  8
S-HIDDEN
100
AcDbLine
 10
370.0
 20
508.80000000000007
 30
0.0
 11
370.0
 21
510.80000000000007
 31
0.0
  0
LINE
  5
152
330
17
100
AcDbEntity
  8
S-HIDDEN
100
AcDbLine
 10
370.0
 20
512.2
 30
0.0
 11
370.0
 21
514.2
 31
0.0
  0
LINE
  5
153
330
17
100
AcDbEntity
  8
S-HIDDEN
100
AcDbLine
 10
370.0
 20
515.6
 30
0.0
 11
370.0
 21
517.6
 31
0.0
  0
LINE
  5
154
330
17
100
AcDbEntity
  8
S-HIDDEN
100
AcDbLine
 10
370.0
 20
519.0000000000001
 30
0.0
 11
370.0
 21
521.0000000000001
 31
0.0
  0
LINE
  5
155
330
17
100
AcDbEntity
  8
S-HIDDEN
100
AcDbLine
 10
370.0
 20
522.4000000000001
 30
0.0
 11
370.0
 21
524.0
 31
0.0
  0
TEXT
  5
156
330
17
100
AcDbEntity
  8
S-TEXT
100
AcDbText
 10
366.0
 20
530.0
 30
0.0
 40
1.4
  1
W6
  7
OpenSans
 72
1
 11
366.0
 21
530.0
 31
0.0
100
AcDbText
 73
2
  0
LINE
  5
157
330
17
100
AcDbEntity
  8
S-HIDDEN
100
AcDbLine
 10
426.0
 20
400.0
 30
0.0
 11
426.0
 21
402.0
 31
0.0
  0
LINE
  5
158
330
17
100
AcDbEntity
  8
S-HIDDEN
100
AcDbLine
 10
426.0
 20
403.4
 30
0.0
 11
426.0
 21
405.4
 31
0.0
  0
LINE
  5
159
330
17
100
AcDbEntity
  8
S-HIDDEN
100
AcDbLine
 10
426.0
 20
406.8
 30
0.0
 11
426.0
 21
408.8
 31
0.0
  0
LINE
  5
15A
330
17
100
AcDbEntity
  8
S-HIDDEN
100
AcDbLine
 10
426.0
 20
410.2
 30
0.0
 11
426.0
 21
412.2
 31
0.0
  0
LINE
  5
15B
330
17
100
AcDbEntity
  8
S-HIDDEN
100
AcDbLine
 10
426.0
 20
413.6
 30
0.0
 11
426.0
 21
415.6
 31
0.0
  0
LINE
  5
15C
330
17
100
AcDbEntity
  8
S-HIDDEN
100
AcDbLine
 10
426.0
 20
417.0
 30
0.0
 11
426.0
 21
419.0
 31
0.0
  0
LINE
  5
15D
330
17
100
AcDbEntity
  8
S-HIDDEN
100
AcDbLine
 10
426.0
 20
420.4
 30
0.0
 11
426.0
 21
422.4
 31
0.0
  0
LINE
  5
15E
330
17
100
AcDbEntity
  8
S-HIDDEN
100
AcDbLine
 10
426.0
 20
423.8
 30
0.0
 11
426.0
 21
425.8
 31
0.0
  0
LINE
  5
15F
330
17
100
AcDbEntity
  8
S-HIDDEN
100
AcDbLine
 10
426.0
 20
427.2
 30
0.0
 11
426.0
 21
429.2
 31
0.0
  0
LINE
  5
160
330
17
100
AcDbEntity
  8
S-HIDDEN
100
AcDbLine
 10
426.0
 20
430.6
 30
0.0
 11
426.0
 21
432.6
 31
0.0
  0
LINE
  5
161
330
17
100
AcDbEntity
  8
S-HIDDEN
100
AcDbLine
 10
426.0
 20
434.0
 30
0.0
 11
426.0
 21
436.0
 31
0.0
  0
LINE
  5
162
330
17
100
AcDbEntity
  8
S-HIDDEN
100
AcDbLine
 10
426.0
 20
437.4
 30
0.0
 11
426.0
 21
439.4
 31
0.0
  0
LINE
  5
163
330
17
100
AcDbEntity
  8
S-HIDDEN
100
AcDbLine
 10
426.0
 20
440.8
 30
0.0
 11
426.0
 21
442.8
 31
0.0
  0
LINE
  5
164
330
17
100
AcDbEntity
  8
S-HIDDEN
100
AcDbLine
 10
426.0
 20
444.2
 30
0.0
 11
426.0
 21
446.2
 31
0.0
  0
LINE
  5
165
330
17
100
AcDbEntity
  8
S-HIDDEN
100
AcDbLine
 10
426.0
 20
447.59999999999997
 30
0.0
 11
426.0
 21
449.59999999999997
 31
0.0
  0
LINE
  5
166
330
17
100
AcDbEntity
  8
S-HIDDEN
100
AcDbLine
 10
426.0
 20
451.0
 30
0.0
 11
426.0
 21
453.0
 31
0.0
  0
LINE
  5
167
330
17
100
AcDbEntity
  8
S-HIDDEN
100
AcDbLine
 10
426.0
 20
454.4
 30
0.0
 11
426.0
 21
456.4
 31
0.0
  0
LINE
  5
168
330
17
100
AcDbEntity
  8
S-HIDDEN
100
AcDbLine
 10
426.0
 20
457.79999999999995
 30
0.0
 11
426.0
 21
459.79999999999995
 31
0.0
  0
LINE
  5
169
330
17
100
AcDbEntity
  8
S-HIDDEN
100
AcDbLine
 10
426.0
 20
461.2
 30
0.0
 11
426.0
 21
463.2
 31
0.0
  0
LINE
  5
16A
330
17
100
AcDbEntity
  8
S-HIDDEN
100
AcDbLine
 10
426.0
 20
464.59999999999997
 30
0.0
 11
426.0
 21
466.59999999999997
 31
0.0
  0
LINE
  5
16B
330
17
100
AcDbEntity
  8
S-HIDDEN
100
AcDbLine
 10
426.0
 20
468.0
 30
0.0
 11
426.0
 21
470.0
 31
0.0
  0
LINE
  5
16C
330
17
100
AcDbEntity
  8
S-HIDDEN
100
AcDbLine
 10
426.0
 20
471.4
 30
0.0
 11
426.0
 21
473.4
 31
0.0
  0
LINE
  5
16D
330
17
100
AcDbEntity
  8
S-HIDDEN
100
AcDbLine
 10
426.0
 20
474.8
 30
0.0
 11
426.0
 21
476.8
 31
0.0
  0
LINE
  5
16E
330
17
100
AcDbEntity
  8
S-HIDDEN
100
AcDbLine
 10
426.0
 20
478.2
 30
0.0
 11
426.0
 21
480.2
 31
0.0
  0
LINE
  5
16F
330
17
100
AcDbEntity
  8
S-HIDDEN
100
AcDbLine
 10
426.0
 20
481.6
 30
0.0
 11
426.0
 21
483.6
 31
0.0
  0
LINE
  5
170
330
17
100
AcDbEntity
  8
S-HIDDEN
100
AcDbLine
 10
426.0
 20
485.0
 30
0.0
 11
426.0
 21
487.0
 31
0.0
  0
LINE
  5
171
330
17
100
AcDbEntity
  8
S-HIDDEN
100
AcDbLine
 10
426.0
 20
488.40000000000003
 30
0.0
 11
426.0
 21
490.40000000000003
 31
0.0
  0
LINE
  5
172
330
17
100
AcDbEntity
  8
S-HIDDEN
100
AcDbLine
 10
426.0
 20
491.8
 30
0.0
 11
426.0
 21
493.8
 31
0.0
  0
LINE
  5
173
330
17
100
AcDbEntity
  8
S-HIDDEN
100
AcDbLine
 10
426.0
 20
495.20000000000005
 30
0.0
 11
426.0
 21
497.20000000000005
 31
0.0
  0
LINE
  5
174
330
17
100
AcDbEntity
  8
S-HIDDEN
100
AcDbLine
 10
426.0
 20
498.6
 30
0.0
 11
426.0
 21
500.6
 31
0.0
  0
LINE
  5
175
330
17
100
AcDbEntity
  8
S-HIDDEN
100
AcDbLine
 10
426.0
 20
502.00000000000006
 30
0.0
 11
426.0
 21
504.00000000000006
 31
0.0
  0
LINE
  5
176
330
17
100
AcDbEntity
  8
S-HIDDEN
100
AcDbLine
 10
426.0
 20
505.40000000000003
 30
0.0
 11
426.0
 21
507.40000000000003
 31
0.0
  0
LINE
  5
177
330
17
100
AcDbEntity
  8
S-HIDDEN
100
AcDbLine
 10
426.0
 20
508.80000000000007
 30
0.0
 11
426.0
 21
510.80000000000007
 31
0.0
  0
LINE
  5
178
330
17
100
AcDbEntity
  8
S-HIDDEN
100
AcDbLine
 10
426.0
 20
512.2
 30
0.0
 11
426.0
 21
514.2
 31
0.0
  0
LINE
  5
179
330
17
100
AcDbEntity
  8
S-HIDDEN
100
AcDbLine
 10
426.0
 20
515.6
 30
0.0
 11
426.0
 21
517.6
 31
0.0
  0
LINE
  5
17A
330
17
100
AcDbEntity
  8
S-HIDDEN
100
AcDbLine
 10
426.0
 20
519.0000000000001
 30
0.0
 11
426.0
 21
521.0000000000001
 31
0.0
  0
LINE
  5
17B
330
17
100
AcDbEntity
  8
S-HIDDEN
100
AcDbLine
 10
426.0
 20
522.4000000000001
 30
0.0
 11
426.0
 21
524.0
 31
0.0
  0
LINE
  5
17C
330
17
100
AcDbEntity
  8
S-HIDDEN
100
AcDbLine
 10
434.0
 20
400.0
 30
0.0
 11
434.0
 21
402.0
 31
0.0
  0
LINE
  5
17D
330
17
100
AcDbEntity
  8
S-HIDDEN
100
AcDbLine
 10
434.0
 20
403.4
 30
0.0
 11
434.0
 21
405.4
 31
0.0
  0
LINE
  5
17E
330
17
100
AcDbEntity
  8
S-HIDDEN
100
AcDbLine
 10
434.0
 20
406.8
 30
0.0
 11
434.0
 21
408.8
 31
0.0
  0
LINE
  5
17F
330
17
100
AcDbEntity
  8
S-HIDDEN
100
AcDbLine
 10
434.0
 20
410.2
 30
0.0
 11
434.0
 21
412.2
 31
0.0
  0
LINE
  5
180
330
17
100
AcDbEntity
  8
S-HIDDEN
100
AcDbLine
 10
434.0
 20
413.6
 30
0.0
 11
434.0
 21
415.6
 31
0.0
  0
LINE
  5
181
330
17
100
AcDbEntity
  8
S-HIDDEN
100
AcDbLine
 10
434.0
 20
417.0
 30
0.0
 11
434.0
 21
419.0
 31
0.0
  0
LINE
  5
182
330
17
100
AcDbEntity
  8
S-HIDDEN
100
AcDbLine
 10
434.0
 20
420.4
 30
0.0
 11
434.0
 21
422.4
 31
0.0
  0
LINE
  5
183
330
17
100
AcDbEntity
  8
S-HIDDEN
100
AcDbLine
 10
434.0
 20
423.8
 30
0.0
 11
434.0
 21
425.8
 31
0.0
  0
LINE
  5
184
330
17
100
AcDbEntity
  8
S-HIDDEN
100
AcDbLine
 10
434.0
 20
427.2
 30
0.0
 11
434.0
 21
429.2
 31
0.0
  0
LINE
  5
185
330
17
100
AcDbEntity
  8
S-HIDDEN
100
AcDbLine
 10
434.0
 20
430.6
 30
0.0
 11
434.0
 21
432.6
 31
0.0
  0
LINE
  5
186
330
17
100
AcDbEntity
  8
S-HIDDEN
100
AcDbLine
 10
434.0
 20
434.0
 30
0.0
 11
434.0
 21
436.0
 31
0.0
  0
LINE
  5
187
330
17
100
AcDbEntity
  8
S-HIDDEN
100
AcDbLine
 10
434.0
 20
437.4
 30
0.0
 11
434.0
 21
439.4
 31
0.0
  0
LINE
  5
188
330
17
100
AcDbEntity
  8
S-HIDDEN
100
AcDbLine
 10
434.0
 20
440.8
 30
0.0
 11
434.0
 21
442.8
 31
0.0
  0
LINE
  5
189
330
17
100
AcDbEntity
  8
S-HIDDEN
100
AcDbLine
 10
434.0
 20
444.2
 30
0.0
 11
434.0
 21
446.2
 31
0.0
  0
LINE
  5
18A
330
17
100
AcDbEntity
  8
S-HIDDEN
100
AcDbLine
 10
434.0
 20
447.59999999999997
 30
0.0
 11
434.0
 21
449.59999999999997
 31
0.0
  0
LINE
  5
18B
330
17
100
AcDbEntity
  8
S-HIDDEN
100
AcDbLine
 10
434.0
 20
451.0
 30
0.0
 11
434.0
 21
453.0
 31
0.0
  0
LINE
  5
18C
330
17
100
AcDbEntity
  8
S-HIDDEN
100
AcDbLine
 10
434.0
 20
454.4
 30
0.0
 11
434.0
 21
456.4
 31
0.0
  0
LINE
  5
18D
330
17
100
AcDbEntity
  8
S-HIDDEN
100
AcDbLine
 10
434.0
 20
457.79999999999995
 30
0.0
 11
434.0
 21
459.79999999999995
 31
0.0
  0
LINE
  5
18E
330
17
100
AcDbEntity
  8
S-HIDDEN
100
AcDbLine
 10
434.0
 20
461.2
 30
0.0
 11
434.0
 21
463.2
 31
0.0
  0
LINE
  5
18F
330
17
100
AcDbEntity
  8
S-HIDDEN
100
AcDbLine
 10
434.0
 20
464.59999999999997
 30
0.0
 11
434.0
 21
466.59999999999997
 31
0.0
  0
LINE
  5
190
330
17
100
AcDbEntity
  8
S-HIDDEN
100
AcDbLine
 10
434.0
 20
468.0
 30
0.0
 11
434.0
 21
470.0
 31
0.0
  0
LINE
  5
191
330
17
100
AcDbEntity
  8
S-HIDDEN
100
AcDbLine
 10
434.0
 20
471.4
 30
0.0
 11
434.0
 21
473.4
 31
0.0
  0
LINE
  5
192
330
17
100
AcDbEntity
  8
S-HIDDEN
100
AcDbLine
 10
434.0
 20
474.8
 30
0.0
 11
434.0
 21
476.8
 31
0.0
  0
LINE
  5
193
330
17
100
AcDbEntity
  8
S-HIDDEN
100
AcDbLine
 10
434.0
 20
478.2
 30
0.0
 11
434.0
 21
480.2
 31
0.0
  0
LINE
  5
194
330
17
100
AcDbEntity
  8
S-HIDDEN
100
AcDbLine
 10
434.0
 20
481.6
 30
0.0
 11
434.0
 21
483.6
 31
0.0
  0
LINE
  5
195
330
17
100
AcDbEntity
  8
S-HIDDEN
100
AcDbLine
 10
434.0
 20
485.0
 30
0.0
 11
434.0
 21
487.0
 31
0.0
  0
LINE
  5
196
330
17
100
AcDbEntity
  8
S-HIDDEN
100
AcDbLine
 10
434.0
 20
488.40000000000003
 30
0.0
 11
434.0
 21
490.40000000000003
 31
0.0
  0
LINE
  5
197
330
17
100
AcDbEntity
  8
S-HIDDEN
100
AcDbLine
 10
434.0
 20
491.8
 30
0.0
 11
434.0
 21
493.8
 31
0.0
  0
LINE
  5
198
330
17
100
AcDbEntity
  8
S-HIDDEN
100
AcDbLine
 10
434.0
 20
495.20000000000005
 30
0.0
 11
434.0
 21
497.20000000000005
 31
0.0
  0
LINE
  5
199
330
17
100
AcDbEntity
  8
S-HIDDEN
100
AcDbLine
 10
434.0
 20
498.6
 30
0.0
 11
434.0
 21
500.6
 31
0.0
  0
LINE
  5
19A
330
17
100
AcDbEntity
  8
S-HIDDEN
100
AcDbLine
 10
434.0
 20
502.00000000000006
 30
0.0
 11
434.0
 21
504.00000000000006
 31
0.0
  0
LINE
  5
19B
330
17
100
AcDbEntity
  8
S-HIDDEN
100
AcDbLine
 10
434.0
 20
505.40000000000003
 30
0.0
 11
434.0
 21
507.40000000000003
 31
0.0
  0
LINE
  5
19C
330
17
100
AcDbEntity
  8
S-HIDDEN
100
AcDbLine
 10
434.0
 20
508.80000000000007
 30
0.0
 11
434.0
 21
510.80000000000007
 31
0.0
  0
LINE
  5
19D
330
17
100
AcDbEntity
  8
S-HIDDEN
100
AcDbLine
 10
434.0
 20
512.2
 30
0.0
 11
434.0
 21
514.2
 31
0.0
  0
LINE
  5
19E
330
17
100
AcDbEntity
  8
S-HIDDEN
100
AcDbLine
 10
434.0
 20
515.6
 30
0.0
 11
434.0
 21
517.6
 31
0.0
  0
LINE
  5
19F
330
17
100
AcDbEntity
  8
S-HIDDEN
100
AcDbLine
 10
434.0
 20
519.0000000000001
 30
0.0
 11
434.0
 21
521.0000000000001
 31
0.0
  0
LINE
  5
1A0
330
17
100
AcDbEntity
  8
S-HIDDEN
100
AcDbLine
 10
434.0
 20
522.4000000000001
 30
0.0
 11
434.0
 21
524.0
 31
0.0
  0
TEXT
  5
1A1
330
17
100
AcDbEntity
  8
S-TEXT
100
AcDbText
 10
430.0
 20
530.0
 30
0.0
 40
1.4
  1
W7
  7
OpenSans
 72
1
 11
430.0
 21
530.0
 31
0.0
100
AcDbText
 73
2
  0
LINE
  5
1A2
330
17
100
AcDbEntity
  8
S-REBAR-MAIN
100
AcDbLine
 10
84.0
 20
401.5
 30
0.0
 11
84.0
 21
522.5
 31
0.0
  0
LINE
  5
1A3
330
17
100
AcDbEntity
  8
S-REBAR-MAIN
100
AcDbLine
 10
114.0
 20
401.5
 30
0.0
 11
114.0
 21
522.5
 31
0.0
  0
LINE
  5
1A4
330
17
100
AcDbEntity
  8
S-REBAR-MAIN
100
AcDbLine
 10
144.0
 20
401.5
 30
0.0
 11
144.0
 21
522.5
 31
0.0
  0
LINE
  5
1A5
330
17
100
AcDbEntity
  8
S-REBAR-MAIN
100
AcDbLine
 10
174.0
 20
401.5
 30
0.0
 11
174.0
 21
522.5
 31
0.0
  0
LINE
  5
1A6
330
17
100
AcDbEntity
  8
S-REBAR-MAIN
100
AcDbLine
 10
204.0
 20
401.5
 30
0.0
 11
204.0
 21
522.5
 31
0.0
  0
LINE
  5
1A7
330
17
100
AcDbEntity
  8
S-REBAR-MAIN
100
AcDbLine
 10
234.0
 20
401.5
 30
0.0
 11
234.0
 21
522.5
 31
0.0
  0
LINE
  5
1A8
330
17
100
AcDbEntity
  8
S-REBAR-MAIN
100
AcDbLine
 10
264.0
 20
401.5
 30
0.0
 11
264.0
 21
522.5
 31
0.0
  0
LINE
  5
1A9
330
17
100
AcDbEntity
  8
S-REBAR-MAIN
100
AcDbLine
 10
294.0
 20
401.5
 30
0.0
 11
294.0
 21
522.5
 31
0.0
  0
LINE
  5
1AA
330
17
100
AcDbEntity
  8
S-REBAR-MAIN
100
AcDbLine
 10
324.0
 20
401.5
 30
0.0
 11
324.0
 21
522.5
 31
0.0
  0
LINE
  5
1AB
330
17
100
AcDbEntity
  8
S-REBAR-MAIN
100
AcDbLine
 10
354.0
 20
401.5
 30
0.0
 11
354.0
 21
522.5
 31
0.0
  0
LINE
  5
1AC
330
17
100
AcDbEntity
  8
S-REBAR-MAIN
100
AcDbLine
 10
444.0
 20
401.5
 30
0.0
 11
444.0
 21
522.5
 31
0.0
  0
LINE
  5
1AD
330
17
100
AcDbEntity
  8
S-REBAR-MAIN
100
AcDbLine
 10
474.0
 20
401.5
 30
0.0
 11
474.0
 21
522.5
 31
0.0
  0
LINE
  5
1AE
330
17
100
AcDbEntity
  8
S-REBAR-MAIN
100
AcDbLine
 10
504.0
 20
401.5
 30
0.0
 11
504.0
 21
522.5
 31
0.0
  0
LINE
  5
1AF
330
17
100
AcDbEntity
  8
S-REBAR-MAIN
100
AcDbLine
 10
67.5
 20
412.0
 30
0.0
 11
370.0
 21
412.0
 31
0.0
  0
LINE
  5
1B0
330
17
100
AcDbEntity
  8
S-REBAR-MAIN
100
AcDbLine
 10
426.0
 20
412.0
 30
0.0
 11
504.5
 21
412.0
 31
0.0
  0
LINE
  5
1B1
330
17
100
AcDbEntity
  8
S-REBAR-MAIN
100
AcDbLine
 10
67.5
 20
436.0
 30
0.0
 11
370.0
 21
436.0
 31
0.0
  0
LINE
  5
1B2
330
17
100
AcDbEntity
  8
S-REBAR-MAIN
100
AcDbLine
 10
426.0
 20
436.0
 30
0.0
 11
504.5
 21
436.0
 31
0.0
  0
LINE
  5
1B3
330
17
100
AcDbEntity
  8
S-REBAR-MAIN
100
AcDbLine
 10
67.5
 20
460.0
 30
0.0
 11
370.0
 21
460.0
 31
0.0
  0
LINE
  5
1B4
330
17
100
AcDbEntity
  8
S-REBAR-MAIN
100
AcDbLine
 10
426.0
 20
460.0
 30
0.0
 11
504.5
 21
460.0
 31
0.0
  0
LINE
  5
1B5
330
17
100
AcDbEntity
  8
S-REBAR-MAIN
100
AcDbLine
 10
67.5
 20
484.0
 30
0.0
 11
370.0
 21
484.0
 31
0.0
  0
LINE
  5
1B6
330
17
100
AcDbEntity
  8
S-REBAR-MAIN
100
AcDbLine
 10
426.0
 20
484.0
 30
0.0
 11
504.5
 21
484.0
 31
0.0
  0
LINE
  5
1B7
330
17
100
AcDbEntity
  8
S-REBAR-MAIN
100
AcDbLine
 10
67.5
 20
508.0
 30
0.0
 11
370.0
 21
508.0
 31
0.0
  0
LINE
  5
1B8
330
17
100
AcDbEntity
  8
S-REBAR-MAIN
100
AcDbLine
 10
426.0
 20
508.0
 30
0.0
 11
504.5
 21
508.0
 31
0.0
  0
LWPOLYLINE
  5
1B9
330
17
100
AcDbEntity
  8
S-CONCRETE
100
AcDbPolyline
 90
4
 70
1
 10
370.0
 20
412.0
 10
426.0
 20
412.0
 10
426.0
 20
475.2
 10
370.0
 20
475.2
  0
LINE
  5
1BA
330
17
100
AcDbEntity
  8
S-CENTER
100
AcDbLine
 10
370.0
 20
412.0
 30
0.0
 11
426.0
 21
475.2
 31
0.0
  0
LINE
  5
1BB
330
17
100
AcDbEntity
  8
S-CENTER
100
AcDbLine
 10
370.0
 20
475.2
 30
0.0
 11
426.0
 21
412.0
 31
0.0
  0
TEXT
  5
1BC
330
17
100
AcDbEntity
  8
S-TEXT
100
AcDbText
 10
398.0
 20
442.0
 30
0.0
 40
1.4
  1
STAIR VOID 2800 x 3160
  7
OpenSans
 72
1
 11
398.0
 21
442.0
 31
0.0
100
AcDbText
 73
2
  0
LINE
  5
1BD
330
17
100
AcDbEntity
  8
S-REBAR-MAIN
100
AcDbLine
 10
372.0
 20
476.2
 30
0.0
 11
372.0
 21
522.5
 31
0.0
  0
LINE
  5
1BE
330
17
100
AcDbEntity
  8
S-REBAR-MAIN
100
AcDbLine
 10
375.0
 20
476.2
 30
0.0
 11
375.0
 21
522.5
 31
0.0
  0
LINE
  5
1BF
330
17
100
AcDbEntity
  8
S-REBAR-MAIN
100
AcDbLine
 10
378.0
 20
476.2
 30
0.0
 11
378.0
 21
522.5
 31
0.0
  0
LINE
  5
1C0
330
17
100
AcDbEntity
  8
S-REBAR-MAIN
100
AcDbLine
 10
381.0
 20
476.2
 30
0.0
 11
381.0
 21
522.5
 31
0.0
  0
LINE
  5
1C1
330
17
100
AcDbEntity
  8
S-REBAR-MAIN
100
AcDbLine
 10
384.0
 20
476.2
 30
0.0
 11
384.0
 21
522.5
 31
0.0
  0
LINE
  5
1C2
330
17
100
AcDbEntity
  8
S-REBAR-MAIN
100
AcDbLine
 10
387.0
 20
476.2
 30
0.0
 11
387.0
 21
522.5
 31
0.0
  0
LINE
  5
1C3
330
17
100
AcDbEntity
  8
S-REBAR-MAIN
100
AcDbLine
 10
390.0
 20
476.2
 30
0.0
 11
390.0
 21
522.5
 31
0.0
  0
LINE
  5
1C4
330
17
100
AcDbEntity
  8
S-REBAR-MAIN
100
AcDbLine
 10
393.0
 20
476.2
 30
0.0
 11
393.0
 21
522.5
 31
0.0
  0
LINE
  5
1C5
330
17
100
AcDbEntity
  8
S-REBAR-MAIN
100
AcDbLine
 10
396.0
 20
476.2
 30
0.0
 11
396.0
 21
522.5
 31
0.0
  0
LINE
  5
1C6
330
17
100
AcDbEntity
  8
S-REBAR-MAIN
100
AcDbLine
 10
399.0
 20
476.2
 30
0.0
 11
399.0
 21
522.5
 31
0.0
  0
LINE
  5
1C7
330
17
100
AcDbEntity
  8
S-REBAR-MAIN
100
AcDbLine
 10
402.0
 20
476.2
 30
0.0
 11
402.0
 21
522.5
 31
0.0
  0
LINE
  5
1C8
330
17
100
AcDbEntity
  8
S-REBAR-MAIN
100
AcDbLine
 10
405.0
 20
476.2
 30
0.0
 11
405.0
 21
522.5
 31
0.0
  0
LINE
  5
1C9
330
17
100
AcDbEntity
  8
S-REBAR-MAIN
100
AcDbLine
 10
408.0
 20
476.2
 30
0.0
 11
408.0
 21
522.5
 31
0.0
  0
LINE
  5
1CA
330
17
100
AcDbEntity
  8
S-REBAR-MAIN
100
AcDbLine
 10
411.0
 20
476.2
 30
0.0
 11
411.0
 21
522.5
 31
0.0
  0
LINE
  5
1CB
330
17
100
AcDbEntity
  8
S-REBAR-MAIN
100
AcDbLine
 10
414.0
 20
476.2
 30
0.0
 11
414.0
 21
522.5
 31
0.0
  0
LINE
  5
1CC
330
17
100
AcDbEntity
  8
S-REBAR-MAIN
100
AcDbLine
 10
417.0
 20
476.2
 30
0.0
 11
417.0
 21
522.5
 31
0.0
  0
LINE
  5
1CD
330
17
100
AcDbEntity
  8
S-REBAR-MAIN
100
AcDbLine
 10
420.0
 20
476.2
 30
0.0
 11
420.0
 21
522.5
 31
0.0
  0
LINE
  5
1CE
330
17
100
AcDbEntity
  8
S-REBAR-MAIN
100
AcDbLine
 10
423.0
 20
476.2
 30
0.0
 11
423.0
 21
522.5
 31
0.0
  0
LWPOLYLINE
  5
1CF
330
17
100
AcDbEntity
  8
S-REFERENCE
100
AcDbPolyline
 90
4
 70
1
 10
370.0
 20
475.2
 10
426.0
 20
475.2
 10
426.0
 20
512.0
 10
370.0
 20
512.0
  0
TEXT
  5
1D0
330
17
100
AcDbEntity
  8
S-BLAST
100
AcDbText
 10
398.0
 20
492.0
 30
0.0
 40
1.4
  1
CANTILEVER PAD 2800 x 1840
  7
OpenSans
 72
1
 11
398.0
 21
492.0
 31
0.0
100
AcDbText
 73
2
  0
LWPOLYLINE
  5
1D1
330
17
100
AcDbEntity
  8
S-REBAR-SEC
100
AcDbPolyline
 90
4
 70
1
 10
370.0
 20
475.2
 10
426.0
 20
475.2
 10
426.0
 20
487.2
 10
370.0
 20
487.2
  0
LINE
  5
1D2
330
17
100
AcDbEntity
  8
S-REBAR-SEC
100
AcDbLine
 10
370.0
 20
515.2
 30
0.0
 11
410.0
 21
475.2
 31
0.0
  0
LINE
  5
1D3
330
17
100
AcDbEntity
  8
S-REBAR-SEC
100
AcDbLine
 10
372.4
 20
515.2
 30
0.0
 11
412.4
 21
475.2
 31
0.0
  0
LINE
  5
1D4
330
17
100
AcDbEntity
  8
S-REBAR-SEC
100
AcDbLine
 10
374.8
 20
515.2
 30
0.0
 11
414.8
 21
475.2
 31
0.0
  0
LINE
  5
1D5
330
17
100
AcDbEntity
  8
S-REBAR-SEC
100
AcDbLine
 10
377.2
 20
515.2
 30
0.0
 11
417.2
 21
475.2
 31
0.0
  0
LINE
  5
1D6
330
17
100
AcDbEntity
  8
S-REBAR-SEC
100
AcDbLine
 10
426.0
 20
515.2
 30
0.0
 11
386.0
 21
475.2
 31
0.0
  0
LINE
  5
1D7
330
17
100
AcDbEntity
  8
S-REBAR-SEC
100
AcDbLine
 10
423.6
 20
515.2
 30
0.0
 11
383.6
 21
475.2
 31
0.0
  0
LINE
  5
1D8
330
17
100
AcDbEntity
  8
S-REBAR-SEC
100
AcDbLine
 10
421.2
 20
515.2
 30
0.0
 11
381.2
 21
475.2
 31
0.0
  0
LINE
  5
1D9
330
17
100
AcDbEntity
  8
S-REBAR-SEC
100
AcDbLine
 10
418.8
 20
515.2
 30
0.0
 11
378.8
 21
475.2
 31
0.0
  0
CIRCLE
  5
1DA
330
17
100
AcDbEntity
  8
S-CONCRETE
100
AcDbCircle
 10
107.0
 20
441.0
 30
0.0
 40
14.0
  0
CIRCLE
  5
1DB
330
17
100
AcDbEntity
  8
S-CONCRETE
100
AcDbCircle
 10
107.0
 20
441.0
 30
0.0
 40
19.0
  0
CIRCLE
  5
1DC
330
17
100
AcDbEntity
  8
S-REBAR-SEC
100
AcDbCircle
 10
107.0
 20
441.0
 30
0.0
 40
25.0
  0
LINE
  5
1DD
330
17
100
AcDbEntity
  8
S-CENTER
100
AcDbLine
 10
77.0
 20
441.0
 30
0.0
 11
83.0
 21
441.0
 31
0.0
  0
LINE
  5
1DE
330
17
100
AcDbEntity
  8
S-CENTER
100
AcDbLine
 10
84.6
 20
441.0
 30
0.0
 11
85.6
 21
441.0
 31
0.0
  0
LINE
  5
1DF
330
17
100
AcDbEntity
  8
S-CENTER
100
AcDbLine
 10
87.2
 20
441.0
 30
0.0
 11
93.2
 21
441.0
 31
0.0
  0
LINE
  5
1E0
330
17
100
AcDbEntity
  8
S-CENTER
100
AcDbLine
 10
94.8
 20
441.0
 30
0.0
 11
95.8
 21
441.0
 31
0.0
  0
LINE
  5
1E1
330
17
100
AcDbEntity
  8
S-CENTER
100
AcDbLine
 10
97.4
 20
441.0
 30
0.0
 11
103.4
 21
441.0
 31
0.0
  0
LINE
  5
1E2
330
17
100
AcDbEntity
  8
S-CENTER
100
AcDbLine
 10
105.0
 20
441.0
 30
0.0
 11
106.0
 21
441.0
 31
0.0
  0
LINE
  5
1E3
330
17
100
AcDbEntity
  8
S-CENTER
100
AcDbLine
 10
107.60000000000001
 20
441.0
 30
0.0
 11
113.60000000000001
 21
441.0
 31
0.0
  0
LINE
  5
1E4
330
17
100
AcDbEntity
  8
S-CENTER
100
AcDbLine
 10
115.20000000000002
 20
441.0
 30
0.0
 11
116.20000000000002
 21
441.0
 31
0.0
  0
LINE
  5
1E5
330
17
100
AcDbEntity
  8
S-CENTER
100
AcDbLine
 10
117.80000000000001
 20
441.0
 30
0.0
 11
123.80000000000001
 21
441.0
 31
0.0
  0
LINE
  5
1E6
330
17
100
AcDbEntity
  8
S-CENTER
100
AcDbLine
 10
125.4
 20
441.0
 30
0.0
 11
126.4
 21
441.0
 31
0.0
  0
LINE
  5
1E7
330
17
100
AcDbEntity
  8
S-CENTER
100
AcDbLine
 10
128.0
 20
441.0
 30
0.0
 11
134.0
 21
441.0
 31
0.0
  0
LINE
  5
1E8
330
17
100
AcDbEntity
  8
S-CENTER
100
AcDbLine
 10
135.60000000000002
 20
441.0
 30
0.0
 11
136.60000000000002
 21
441.0
 31
0.0
  0
LINE
  5
1E9
330
17
100
AcDbEntity
  8
S-CENTER
100
AcDbLine
 10
107.0
 20
411.0
 30
0.0
 11
107.0
 21
417.0
 31
0.0
  0
LINE
  5
1EA
330
17
100
AcDbEntity
  8
S-CENTER
100
AcDbLine
 10
107.0
 20
418.6
 30
0.0
 11
107.0
 21
419.6
 31
0.0
  0
LINE
  5
1EB
330
17
100
AcDbEntity
  8
S-CENTER
100
AcDbLine
 10
107.0
 20
421.2
 30
0.0
 11
107.0
 21
427.2
 31
0.0
  0
LINE
  5
1EC
330
17
100
AcDbEntity
  8
S-CENTER
100
AcDbLine
 10
107.0
 20
428.8
 30
0.0
 11
107.0
 21
429.8
 31
0.0
  0
LINE
  5
1ED
330
17
100
AcDbEntity
  8
S-CENTER
100
AcDbLine
 10
107.0
 20
431.4
 30
0.0
 11
107.0
 21
437.4
 31
0.0
  0
LINE
  5
1EE
330
17
100
AcDbEntity
  8
S-CENTER
100
AcDbLine
 10
107.0
 20
439.0
 30
0.0
 11
107.0
 21
440.0
 31
0.0
  0
LINE
  5
1EF
330
17
100
AcDbEntity
  8
S-CENTER
100
AcDbLine
 10
107.0
 20
441.6
 30
0.0
 11
107.0
 21
447.6
 31
0.0
  0
LINE
  5
1F0
330
17
100
AcDbEntity
  8
S-CENTER
100
AcDbLine
 10
107.0
 20
449.2
 30
0.0
 11
107.0
 21
450.2
 31
0.0
  0
LINE
  5
1F1
330
17
100
AcDbEntity
  8
S-CENTER
100
AcDbLine
 10
107.0
 20
451.8
 30
0.0
 11
107.0
 21
457.8
 31
0.0
  0
LINE
  5
1F2
330
17
100
AcDbEntity
  8
S-CENTER
100
AcDbLine
 10
107.0
 20
459.40000000000003
 30
0.0
 11
107.0
 21
460.40000000000003
 31
0.0
  0
LINE
  5
1F3
330
17
100
AcDbEntity
  8
S-CENTER
100
AcDbLine
 10
107.0
 20
462.0
 30
0.0
 11
107.0
 21
468.0
 31
0.0
  0
LINE
  5
1F4
330
17
100
AcDbEntity
  8
S-CENTER
100
AcDbLine
 10
107.0
 20
469.6
 30
0.0
 11
107.0
 21
470.6
 31
0.0
  0
LINE
  5
1F5
330
17
100
AcDbEntity
  8
S-REBAR-SEC
100
AcDbLine
 10
84.0
 20
411.0
 30
0.0
 11
84.0
 21
471.0
 31
0.0
  0
LINE
  5
1F6
330
17
100
AcDbEntity
  8
S-REBAR-SEC
100
AcDbLine
 10
77.0
 20
418.0
 30
0.0
 11
137.0
 21
418.0
 31
0.0
  0
LINE
  5
1F7
330
17
100
AcDbEntity
  8
S-REBAR-SEC
100
AcDbLine
 10
86.0
 20
411.0
 30
0.0
 11
86.0
 21
471.0
 31
0.0
  0
LINE
  5
1F8
330
17
100
AcDbEntity
  8
S-REBAR-SEC
100
AcDbLine
 10
77.0
 20
420.0
 30
0.0
 11
137.0
 21
420.0
 31
0.0
  0
LINE
  5
1F9
330
17
100
AcDbEntity
  8
S-REBAR-SEC
100
AcDbLine
 10
88.0
 20
411.0
 30
0.0
 11
88.0
 21
471.0
 31
0.0
  0
LINE
  5
1FA
330
17
100
AcDbEntity
  8
S-REBAR-SEC
100
AcDbLine
 10
77.0
 20
422.0
 30
0.0
 11
137.0
 21
422.0
 31
0.0
  0
LINE
  5
1FB
330
17
100
AcDbEntity
  8
S-REBAR-SEC
100
AcDbLine
 10
126.0
 20
411.0
 30
0.0
 11
126.0
 21
471.0
 31
0.0
  0
LINE
  5
1FC
330
17
100
AcDbEntity
  8
S-REBAR-SEC
100
AcDbLine
 10
77.0
 20
460.0
 30
0.0
 11
137.0
 21
460.0
 31
0.0
  0
LINE
  5
1FD
330
17
100
AcDbEntity
  8
S-REBAR-SEC
100
AcDbLine
 10
128.0
 20
411.0
 30
0.0
 11
128.0
 21
471.0
 31
0.0
  0
LINE
  5
1FE
330
17
100
AcDbEntity
  8
S-REBAR-SEC
100
AcDbLine
 10
77.0
 20
462.0
 30
0.0
 11
137.0
 21
462.0
 31
0.0
  0
LINE
  5
1FF
330
17
100
AcDbEntity
  8
S-REBAR-SEC
100
AcDbLine
 10
130.0
 20
411.0
 30
0.0
 11
130.0
 21
471.0
 31
0.0
  0
LINE
  5
200
330
17
100
AcDbEntity
  8
S-REBAR-SEC
100
AcDbLine
 10
77.0
 20
464.0
 30
0.0
 11
137.0
 21
464.0
 31
0.0
  0
TEXT
  5
201
330
17
100
AcDbEntity
  8
S-TEXT
100
AcDbText
 10
107.0
 20
406.0
 30
0.0
 40
1.4
  1
ESC 1
  7
OpenSans
 72
1
 11
107.0
 21
406.0
 31
0.0
100
AcDbText
 73
2
  0
CIRCLE
  5
202
330
17
100
AcDbEntity
  8
S-CONCRETE
100
AcDbCircle
 10
464.0
 20
441.0
 30
0.0
 40
14.0
  0
CIRCLE
  5
203
330
17
100
AcDbEntity
  8
S-CONCRETE
100
AcDbCircle
 10
464.0
 20
441.0
 30
0.0
 40
19.0
  0
CIRCLE
  5
204
330
17
100
AcDbEntity
  8
S-REBAR-SEC
100
AcDbCircle
 10
464.0
 20
441.0
 30
0.0
 40
25.0
  0
LINE
  5
205
330
17
100
AcDbEntity
  8
S-CENTER
100
AcDbLine
 10
434.0
 20
441.0
 30
0.0
 11
440.0
 21
441.0
 31
0.0
  0
LINE
  5
206
330
17
100
AcDbEntity
  8
S-CENTER
100
AcDbLine
 10
441.6
 20
441.0
 30
0.0
 11
442.6
 21
441.0
 31
0.0
  0
LINE
  5
207
330
17
100
AcDbEntity
  8
S-CENTER
100
AcDbLine
 10
444.2
 20
441.0
 30
0.0
 11
450.2
 21
441.0
 31
0.0
  0
LINE
  5
208
330
17
100
AcDbEntity
  8
S-CENTER
100
AcDbLine
 10
451.8
 20
441.0
 30
0.0
 11
452.8
 21
441.0
 31
0.0
  0
LINE
  5
209
330
17
100
AcDbEntity
  8
S-CENTER
100
AcDbLine
 10
454.4
 20
441.0
 30
0.0
 11
460.4
 21
441.0
 31
0.0
  0
LINE
  5
20A
330
17
100
AcDbEntity
  8
S-CENTER
100
AcDbLine
 10
462.0
 20
441.0
 30
0.0
 11
463.0
 21
441.0
 31
0.0
  0
LINE
  5
20B
330
17
100
AcDbEntity
  8
S-CENTER
100
AcDbLine
 10
464.6
 20
441.0
 30
0.0
 11
470.6
 21
441.0
 31
0.0
  0
LINE
  5
20C
330
17
100
AcDbEntity
  8
S-CENTER
100
AcDbLine
 10
472.2
 20
441.0
 30
0.0
 11
473.2
 21
441.0
 31
0.0
  0
LINE
  5
20D
330
17
100
AcDbEntity
  8
S-CENTER
100
AcDbLine
 10
474.8
 20
441.0
 30
0.0
 11
480.8
 21
441.0
 31
0.0
  0
LINE
  5
20E
330
17
100
AcDbEntity
  8
S-CENTER
100
AcDbLine
 10
482.40000000000003
 20
441.0
 30
0.0
 11
483.40000000000003
 21
441.0
 31
0.0
  0
LINE
  5
20F
330
17
100
AcDbEntity
  8
S-CENTER
100
AcDbLine
 10
485.0
 20
441.0
 30
0.0
 11
491.0
 21
441.0
 31
0.0
  0
LINE
  5
210
330
17
100
AcDbEntity
  8
S-CENTER
100
AcDbLine
 10
492.6
 20
441.0
 30
0.0
 11
493.6
 21
441.0
 31
0.0
  0
LINE
  5
211
330
17
100
AcDbEntity
  8
S-CENTER
100
AcDbLine
 10
464.0
 20
411.0
 30
0.0
 11
464.0
 21
417.0
 31
0.0
  0
LINE
  5
212
330
17
100
AcDbEntity
  8
S-CENTER
100
AcDbLine
 10
464.0
 20
418.6
 30
0.0
 11
464.0
 21
419.6
 31
0.0
  0
LINE
  5
213
330
17
100
AcDbEntity
  8
S-CENTER
100
AcDbLine
 10
464.0
 20
421.2
 30
0.0
 11
464.0
 21
427.2
 31
0.0
  0
LINE
  5
214
330
17
100
AcDbEntity
  8
S-CENTER
100
AcDbLine
 10
464.0
 20
428.8
 30
0.0
 11
464.0
 21
429.8
 31
0.0
  0
LINE
  5
215
330
17
100
AcDbEntity
  8
S-CENTER
100
AcDbLine
 10
464.0
 20
431.4
 30
0.0
 11
464.0
 21
437.4
 31
0.0
  0
LINE
  5
216
330
17
100
AcDbEntity
  8
S-CENTER
100
AcDbLine
 10
464.0
 20
439.0
 30
0.0
 11
464.0
 21
440.0
 31
0.0
  0
LINE
  5
217
330
17
100
AcDbEntity
  8
S-CENTER
100
AcDbLine
 10
464.0
 20
441.6
 30
0.0
 11
464.0
 21
447.6
 31
0.0
  0
LINE
  5
218
330
17
100
AcDbEntity
  8
S-CENTER
100
AcDbLine
 10
464.0
 20
449.2
 30
0.0
 11
464.0
 21
450.2
 31
0.0
  0
LINE
  5
219
330
17
100
AcDbEntity
  8
S-CENTER
100
AcDbLine
 10
464.0
 20
451.8
 30
0.0
 11
464.0
 21
457.8
 31
0.0
  0
LINE
  5
21A
330
17
100
AcDbEntity
  8
S-CENTER
100
AcDbLine
 10
464.0
 20
459.40000000000003
 30
0.0
 11
464.0
 21
460.40000000000003
 31
0.0
  0
LINE
  5
21B
330
17
100
AcDbEntity
  8
S-CENTER
100
AcDbLine
 10
464.0
 20
462.0
 30
0.0
 11
464.0
 21
468.0
 31
0.0
  0
LINE
  5
21C
330
17
100
AcDbEntity
  8
S-CENTER
100
AcDbLine
 10
464.0
 20
469.6
 30
0.0
 11
464.0
 21
470.6
 31
0.0
  0
LINE
  5
21D
330
17
100
AcDbEntity
  8
S-REBAR-SEC
100
AcDbLine
 10
441.0
 20
411.0
 30
0.0
 11
441.0
 21
471.0
 31
0.0
  0
LINE
  5
21E
330
17
100
AcDbEntity
  8
S-REBAR-SEC
100
AcDbLine
 10
434.0
 20
418.0
 30
0.0
 11
494.0
 21
418.0
 31
0.0
  0
LINE
  5
21F
330
17
100
AcDbEntity
  8
S-REBAR-SEC
100
AcDbLine
 10
443.0
 20
411.0
 30
0.0
 11
443.0
 21
471.0
 31
0.0
  0
LINE
  5
220
330
17
100
AcDbEntity
  8
S-REBAR-SEC
100
AcDbLine
 10
434.0
 20
420.0
 30
0.0
 11
494.0
 21
420.0
 31
0.0
  0
LINE
  5
221
330
17
100
AcDbEntity
  8
S-REBAR-SEC
100
AcDbLine
 10
445.0
 20
411.0
 30
0.0
 11
445.0
 21
471.0
 31
0.0
  0
LINE
  5
222
330
17
100
AcDbEntity
  8
S-REBAR-SEC
100
AcDbLine
 10
434.0
 20
422.0
 30
0.0
 11
494.0
 21
422.0
 31
0.0
  0
LINE
  5
223
330
17
100
AcDbEntity
  8
S-REBAR-SEC
100
AcDbLine
 10
483.0
 20
411.0
 30
0.0
 11
483.0
 21
471.0
 31
0.0
  0
LINE
  5
224
330
17
100
AcDbEntity
  8
S-REBAR-SEC
100
AcDbLine
 10
434.0
 20
460.0
 30
0.0
 11
494.0
 21
460.0
 31
0.0
  0
LINE
  5
225
330
17
100
AcDbEntity
  8
S-REBAR-SEC
100
AcDbLine
 10
485.0
 20
411.0
 30
0.0
 11
485.0
 21
471.0
 31
0.0
  0
LINE
  5
226
330
17
100
AcDbEntity
  8
S-REBAR-SEC
100
AcDbLine
 10
434.0
 20
462.0
 30
0.0
 11
494.0
 21
462.0
 31
0.0
  0
LINE
  5
227
330
17
100
AcDbEntity
  8
S-REBAR-SEC
100
AcDbLine
 10
487.0
 20
411.0
 30
0.0
 11
487.0
 21
471.0
 31
0.0
  0
LINE
  5
228
330
17
100
AcDbEntity
  8
S-REBAR-SEC
100
AcDbLine
 10
434.0
 20
464.0
 30
0.0
 11
494.0
 21
464.0
 31
0.0
  0
TEXT
  5
229
330
17
100
AcDbEntity
  8
S-TEXT
100
AcDbText
 10
464.0
 20
406.0
 30
0.0
 40
1.4
  1
ESC 2
  7
OpenSans
 72
1
 11
464.0
 21
406.0
 31
0.0
100
AcDbText
 73
2
  0
LWPOLYLINE
  5
22A
330
17
100
AcDbEntity
  8
S-REBAR-SEC
100
AcDbPolyline
 90
4
 70
1
 10
334.0
 20
412.0
 10
358.0
 20
412.0
 10
358.0
 20
512.0
 10
334.0
 20
512.0
  0
TEXT
  5
22B
330
17
100
AcDbEntity
  8
S-REBAR-SEC
100
AcDbText
 10
346.0
 20
515.0
 30
0.0
 40
1.4
  1
HW3 BAND
  7
OpenSans
 72
1
 11
346.0
 21
515.0
 31
0.0
100
AcDbText
 73
2
  0
DIMENSION
  5
22C
330
17
100
AcDbEntity
  8
S-DIM
100
AcDbDimension
280
0
  2
*D1
  3
SC-DIM
 10
66.0
 20
358.0
 30
0.0
 11
72.0
 21
359.7
 31
0.0
 70
32
 71
5
  1
<>
100
AcDbAlignedDimension
 13
66.0
 23
400.0
 33
0.0
 14
78.0
 24
400.0
 34
0.0
 50
0.0
100
AcDbRotatedDimension
1001
ACAD
1000
DSTYLE
1002
{
1070
144
1040
50.0
1002
}
  0
DIMENSION
  5
23B
330
17
100
AcDbEntity
  8
S-DIM
100
AcDbDimension
280
0
  2
*D2
  3
SC-DIM
 10
78.0
 20
358.0
 30
0.0
 11
198.0
 21
359.7
 31
0.0
 70
32
 71
5
  1
<>
100
AcDbAlignedDimension
 13
78.0
 23
400.0
 33
0.0
 14
318.0
 24
400.0
 34
0.0
 50
0.0
100
AcDbRotatedDimension
1001
ACAD
1000
DSTYLE
1002
{
1070
144
1040
50.0
1002
}
  0
DIMENSION
  5
24A
330
17
100
AcDbEntity
  8
S-DIM
100
AcDbDimension
280
0
  2
*D3
  3
SC-DIM
 10
318.0
 20
358.0
 30
0.0
 11
320.0
 21
360.9
 31
0.0
 70
32
 71
5
  1
<>
100
AcDbAlignedDimension
 13
318.0
 23
400.0
 33
0.0
 14
322.0
 24
400.0
 34
0.0
 50
0.0
100
AcDbRotatedDimension
1001
ACAD
1000
DSTYLE
1002
{
1070
144
1040
50.0
1002
}
  0
DIMENSION
  5
259
330
17
100
AcDbEntity
  8
S-DIM
100
AcDbDimension
280
0
  2
*D4
  3
SC-DIM
 10
322.0
 20
358.0
 30
0.0
 11
342.0
 21
359.7
 31
0.0
 70
32
 71
5
  1
<>
100
AcDbAlignedDimension
 13
322.0
 23
400.0
 33
0.0
 14
362.0
 24
400.0
 34
0.0
 50
0.0
100
AcDbRotatedDimension
1001
ACAD
1000
DSTYLE
1002
{
1070
144
1040
50.0
1002
}
  0
DIMENSION
  5
268
330
17
100
AcDbEntity
  8
S-DIM
100
AcDbDimension
280
0
  2
*D5
  3
SC-DIM
 10
362.0
 20
358.0
 30
0.0
 11
366.0
 21
359.7
 31
0.0
 70
32
 71
5
  1
<>
100
AcDbAlignedDimension
 13
362.0
 23
400.0
 33
0.0
 14
370.0
 24
400.0
 34
0.0
 50
0.0
100
AcDbRotatedDimension
1001
ACAD
1000
DSTYLE
1002
{
1070
144
1040
50.0
1002
}
  0
DIMENSION
  5
277
330
17
100
AcDbEntity
  8
S-DIM
100
AcDbDimension
280
0
  2
*D6
  3
SC-DIM
 10
370.0
 20
358.0
 30
0.0
 11
398.0
 21
359.7
 31
0.0
 70
32
 71
5
  1
<>
100
AcDbAlignedDimension
 13
370.0
 23
400.0
 33
0.0
 14
426.0
 24
400.0
 34
0.0
 50
0.0
100
AcDbRotatedDimension
1001
ACAD
1000
DSTYLE
1002
{
1070
144
1040
50.0
1002
}
  0
DIMENSION
  5
286
330
17
100
AcDbEntity
  8
S-DIM
100
AcDbDimension
280
0
  2
*D7
  3
SC-DIM
 10
426.0
 20
358.0
 30
0.0
 11
430.0
 21
359.7
 31
0.0
 70
32
 71
5
  1
<>
100
AcDbAlignedDimension
 13
426.0
 23
400.0
 33
0.0
 14
434.0
 24
400.0
 34
0.0
 50
0.0
100
AcDbRotatedDimension
1001
ACAD
1000
DSTYLE
1002
{
1070
144
1040
50.0
1002
}
  0
DIMENSION
  5
295
330
17
100
AcDbEntity
  8
S-DIM
100
AcDbDimension
280
0
  2
*D8
  3
SC-DIM
 10
434.0
 20
358.0
 30
0.0
 11
464.0
 21
359.7
 31
0.0
 70
32
 71
5
  1
<>
100
AcDbAlignedDimension
 13
434.0
 23
400.0
 33
0.0
 14
494.0
 24
400.0
 34
0.0
 50
0.0
100
AcDbRotatedDimension
1001
ACAD
1000
DSTYLE
1002
{
1070
144
1040
50.0
1002
}
  0
DIMENSION
  5
2A4
330
17
100
AcDbEntity
  8
S-DIM
100
AcDbDimension
280
0
  2
*D9
  3
SC-DIM
 10
494.0
 20
358.0
 30
0.0
 11
500.0
 21
359.7
 31
0.0
 70
32
 71
5
  1
<>
100
AcDbAlignedDimension
 13
494.0
 23
400.0
 33
0.0
 14
506.0
 24
400.0
 34
0.0
 50
0.0
100
AcDbRotatedDimension
1001
ACAD
1000
DSTYLE
1002
{
1070
144
1040
50.0
1002
}
  0
DIMENSION
  5
2B3
330
17
100
AcDbEntity
  8
S-DIM
100
AcDbDimension
280
0
  2
*D10
  3
SC-DIM
 10
66.0
 20
349.0
 30
0.0
 11
286.0
 21
350.7
 31
0.0
 70
32
 71
5
  1
<>
100
AcDbAlignedDimension
 13
66.0
 23
400.0
 33
0.0
 14
506.0
 24
400.0
 34
0.0
 50
0.0
100
AcDbRotatedDimension
1001
ACAD
1000
DSTYLE
1002
{
1070
144
1040
50.0
1002
}
  0
DIMENSION
  5
2C2
330
17
100
AcDbEntity
  8
S-DIM
100
AcDbDimension
280
0
  2
*D11
  3
SC-DIM
 10
30.0
 20
400.0
 30
0.0
 11
28.3
 21
406.0
 31
0.0
 70
32
 71
5
  1
<>
100
AcDbAlignedDimension
 13
66.0
 23
400.0
 33
0.0
 14
66.0
 24
412.0
 34
0.0
 50
90.0
100
AcDbRotatedDimension
1001
ACAD
1000
DSTYLE
1002
{
1070
144
1040
50.0
1002
}
  0
DIMENSION
  5
2D1
330
17
100
AcDbEntity
  8
S-DIM
100
AcDbDimension
280
0
  2
*D12
  3
SC-DIM
 10
30.0
 20
412.0
 30
0.0
 11
28.3
 21
462.0
 31
0.0
 70
32
 71
5
  1
<>
100
AcDbAlignedDimension
 13
66.0
 23
412.0
 33
0.0
 14
66.0
 24
512.0
 34
0.0
 50
90.0
100
AcDbRotatedDimension
1001
ACAD
1000
DSTYLE
1002
{
1070
144
1040
50.0
1002
}
  0
DIMENSION
  5
2E0
330
17
100
AcDbEntity
  8
S-DIM
100
AcDbDimension
280
0
  2
*D13
  3
SC-DIM
 10
30.0
 20
512.0
 30
0.0
 11
28.3
 21
518.0
 31
0.0
 70
32
 71
5
  1
<>
100
AcDbAlignedDimension
 13
66.0
 23
512.0
 33
0.0
 14
66.0
 24
524.0
 34
0.0
 50
90.0
100
AcDbRotatedDimension
1001
ACAD
1000
DSTYLE
1002
{
1070
144
1040
50.0
1002
}
  0
DIMENSION
  5
2EF
330
17
100
AcDbEntity
  8
S-DIM
100
AcDbDimension
280
0
  2
*D14
  3
SC-DIM
 10
21.0
 20
400.0
 30
0.0
 11
19.3
 21
462.0
 31
0.0
 70
32
 71
5
  1
<>
100
AcDbAlignedDimension
 13
66.0
 23
400.0
 33
0.0
 14
66.0
 24
524.0
 34
0.0
 50
90.0
100
AcDbRotatedDimension
1001
ACAD
1000
DSTYLE
1002
{
1070
144
1040
50.0
1002
}
  0
DIMENSION
  5
2FE
330
17
100
AcDbEntity
  8
S-DIM
100
AcDbDimension
280
0
  2
*D15
  3
SC-DIM
 10
370.0
 20
380.0
 30
0.0
 11
398.0
 21
381.7
 31
0.0
 70
32
 71
5
  1
<>
100
AcDbAlignedDimension
 13
370.0
 23
400.0
 33
0.0
 14
426.0
 24
400.0
 34
0.0
 50
0.0
100
AcDbRotatedDimension
1001
ACAD
1000
DSTYLE
1002
{
1070
144
1040
50.0
1002
}
  0
DIMENSION
  5
30D
330
17
100
AcDbEntity
  8
S-DIM
100
AcDbDimension
280
0
  2
*D16
  3
SC-DIM
 10
350.0
 20
412.0
 30
0.0
 11
348.3
 21
443.6
 31
0.0
 70
32
 71
5
  1
<>
100
AcDbAlignedDimension
 13
370.0
 23
412.0
 33
0.0
 14
370.0
 24
475.2
 34
0.0
 50
90.0
100
AcDbRotatedDimension
1001
ACAD
1000
DSTYLE
1002
{
1070
144
1040
50.0
1002
}
  0
INSERT
  5
31C
330
17
100
AcDbEntity
  8
S-TITLE
100
AcDbBlockReference
  2
NORTH
 10
560.0
 20
456.0
 30
0.0
  0
TEXT
  5
31E
330
17
100
AcDbEntity
  8
S-TITLE
100
AcDbText
 10
560.0
 20
470.0
 30
0.0
 40
2.0
  1
N
  7
OpenSans
 72
1
 11
560.0
 21
470.0
 31
0.0
100
AcDbText
 73
2
  0
INSERT
  5
31F
330
17
100
AcDbEntity
  8
S-CALLOUT
100
AcDbBlockReference
  2
BARMARK
 10
110.0
 20
456.0
 30
0.0
  0
TEXT
  5
321
330
17
100
AcDbEntity
  8
S-CALLOUT
100
AcDbText
 10
110.0
 20
456.0
 30
0.0
 40
2.0
  1
S01A
  7
OpenSans
 72
1
 11
110.0
 21
456.0
 31
0.0
100
AcDbText
 73
2
  0
LEADER
  5
322
330
17
100
AcDbEntity
  8
S-CALLOUT
100
AcDbLeader
  3
SC-DIM
 73
3
 76
2
 10
118.0
 20
460.0
 30
0.0
 10
110.0
 20
456.0
 30
0.0
  0
INSERT
  5
323
330
17
100
AcDbEntity
  8
S-CALLOUT
100
AcDbBlockReference
  2
BARMARK
 10
160.0
 20
510.0
 30
0.0
  0
TEXT
  5
325
330
17
100
AcDbEntity
  8
S-CALLOUT
100
AcDbText
 10
160.0
 20
510.0
 30
0.0
 40
2.0
  1
S02A
  7
OpenSans
 72
1
 11
160.0
 21
510.0
 31
0.0
100
AcDbText
 73
2
  0
LEADER
  5
326
330
17
100
AcDbEntity
  8
S-CALLOUT
100
AcDbLeader
  3
SC-DIM
 73
3
 76
2
 10
166.0
 20
508.0
 30
0.0
 10
160.0
 20
510.0
 30
0.0
  0
INSERT
  5
327
330
17
100
AcDbEntity
  8
S-CALLOUT
100
AcDbBlockReference
  2
BARMARK
 10
398.0
 20
528.0
 30
0.0
  0
TEXT
  5
329
330
17
100
AcDbEntity
  8
S-CALLOUT
100
AcDbText
 10
398.0
 20
528.0
 30
0.0
 40
2.0
  1
S03B
  7
OpenSans
 72
1
 11
398.0
 21
528.0
 31
0.0
100
AcDbText
 73
2
  0
LEADER
  5
32A
330
17
100
AcDbEntity
  8
S-CALLOUT
100
AcDbLeader
  3
SC-DIM
 73
3
 76
2
 10
398.0
 20
504.0
 30
0.0
 10
398.0
 20
528.0
 30
0.0
  0
INSERT
  5
32B
330
17
100
AcDbEntity
  8
S-CALLOUT
100
AcDbBlockReference
  2
BARMARK
 10
450.0
 20
470.0
 30
0.0
  0
TEXT
  5
32D
330
17
100
AcDbEntity
  8
S-CALLOUT
100
AcDbText
 10
450.0
 20
470.0
 30
0.0
 40
2.0
  1
S08
  7
OpenSans
 72
1
 11
450.0
 21
470.0
 31
0.0
100
AcDbText
 73
2
  0
LEADER
  5
32E
330
17
100
AcDbEntity
  8
S-CALLOUT
100
AcDbLeader
  3
SC-DIM
 73
3
 76
2
 10
464.0
 20
466.0
 30
0.0
 10
450.0
 20
470.0
 30
0.0
  0
INSERT
  5
32F
330
17
100
AcDbEntity
  8
S-CALLOUT
100
AcDbBlockReference
  2
BARMARK
 10
392.0
 20
486.0
 30
0.0
  0
TEXT
  5
331
330
17
100
AcDbEntity
  8
S-CALLOUT
100
AcDbText
 10
392.0
 20
486.0
 30
0.0
 40
2.0
  1
S12
  7
OpenSans
 72
1
 11
392.0
 21
486.0
 31
0.0
100
AcDbText
 73
2
  0
LEADER
  5
332
330
17
100
AcDbEntity
  8
S-CALLOUT
100
AcDbLeader
  3
SC-DIM
 73
3
 76
2
 10
398.0
 20
478.0
 30
0.0
 10
392.0
 20
486.0
 30
0.0
  0
INSERT
  5
333
330
17
100
AcDbEntity
  8
S-CALLOUT
100
AcDbBlockReference
  2
BARMARK
 10
348.0
 20
486.0
 30
0.0
  0
TEXT
  5
335
330
17
100
AcDbEntity
  8
S-CALLOUT
100
AcDbText
 10
348.0
 20
486.0
 30
0.0
 40
2.0
  1
S15
  7
OpenSans
 72
1
 11
348.0
 21
486.0
 31
0.0
100
AcDbText
 73
2
  0
LEADER
  5
336
330
17
100
AcDbEntity
  8
S-CALLOUT
100
AcDbLeader
  3
SC-DIM
 73
3
 76
2
 10
384.0
 20
488.0
 30
0.0
 10
348.0
 20
486.0
 30
0.0
  0
INSERT
  5
337
330
17
100
AcDbEntity
  8
S-CALLOUT
100
AcDbBlockReference
  2
BARMARK
 10
296.0
 20
512.0
 30
0.0
  0
TEXT
  5
339
330
17
100
AcDbEntity
  8
S-CALLOUT
100
AcDbText
 10
296.0
 20
512.0
 30
0.0
 40
2.0
  1
S16
  7
OpenSans
 72
1
 11
296.0
 21
512.0
 31
0.0
100
AcDbText
 73
2
  0
LEADER
  5
33A
330
17
100
AcDbEntity
  8
S-CALLOUT
100
AcDbLeader
  3
SC-DIM
 73
3
 76
2
 10
346.0
 20
508.0
 30
0.0
 10
296.0
 20
512.0
 30
0.0
  0
TEXT
  5
33B
330
17
100
AcDbEntity
  8
S-TITLE
100
AcDbText
 10
66.0
 20
552.0
 30
0.0
 40
3.5
  1
V1   PRESSURE SLAB PLAN - REINFORCEMENT AND OPENINGS
  7
OpenSans
 11
66.0
 21
552.0
 31
0.0
100
AcDbText
  0
LINE
  5
33C
330
17
100
AcDbEntity
  8
S-TITLE
100
AcDbLine
 10
66.0
 20
550.2
 30
0.0
 11
214.78164768921636
 21
550.2
 31
0.0
  0
TEXT
  5
33D
330
17
100
AcDbEntity
  8
S-TEXT
100
AcDbText
 10
66.0
 20
544.8
 30
0.0
 40
2.0
  1
SCALE 1:50
  7
OpenSans
 11
66.0
 21
544.8
 31
0.0
100
AcDbText
  0
INSERT
  5
33E
330
17
100
AcDbEntity
  8
S-SECTION
100
AcDbBlockReference
  2
SECMARK
 10
58.0
 20
424.0
 30
0.0
  0
TEXT
  5
340
330
17
100
AcDbEntity
  8
S-SECTION
100
AcDbText
 10
58.0
 20
425.4
 30
0.0
 40
2.0
  1
C
  7
OpenSans
 72
1
 11
58.0
 21
425.4
 31
0.0
100
AcDbText
 73
2
  0
LINE
  5
341
330
17
100
AcDbEntity
  8
S-SECTION
100
AcDbLine
 10
62.0
 20
424.0
 30
0.0
 11
64.0
 21
424.0
 31
0.0
  0
LWPOLYLINE
  5
342
330
17
100
AcDbEntity
  8
S-SECTION
100
AcDbPolyline
 90
3
 70
1
 10
64.0
 20
425.4
 10
66.2
 20
424.0
 10
64.0
 20
422.6
  0
INSERT
  5
343
330
17
100
AcDbEntity
  8
S-SECTION
100
AcDbBlockReference
  2
SECMARK
 10
520.0
 20
424.0
 30
0.0
  0
TEXT
  5
345
330
17
100
AcDbEntity
  8
S-SECTION
100
AcDbText
 10
520.0
 20
425.4
 30
0.0
 40
2.0
  1
C
  7
OpenSans
 72
1
 11
520.0
 21
425.4
 31
0.0
100
AcDbText
 73
2
  0
LINE
  5
346
330
17
100
AcDbEntity
  8
S-SECTION
100
AcDbLine
 10
524.0
 20
424.0
 30
0.0
 11
526.0
 21
424.0
 31
0.0
  0
LWPOLYLINE
  5
347
330
17
100
AcDbEntity
  8
S-SECTION
100
AcDbPolyline
 90
3
 70
1
 10
526.0
 20
425.4
 10
528.2
 20
424.0
 10
526.0
 20
422.6
  0
TEXT
  5
348
330
17
100
AcDbEntity
  8
S-SECTION
100
AcDbText
 10
400.0
 20
380.0
 30
0.0
 40
1.4
  1
SECTION C-C  ->  R-302
  7
OpenSans
 72
1
 11
400.0
 21
380.0
 31
0.0
100
AcDbText
 73
2
  0
TEXT
  5
349
330
17
100
AcDbEntity
  8
S-TEXT
100
AcDbText
 10
66.0
 20
372.0
 30
0.0
 40
1.4
  1
TOP OF SLAB (-)2.000  ·  SOFFIT (-)2.900  ·  2000 ENGINEERED COVER OVER  ·  STEEL SHOWN DIAGRAMMATICALLY, ACTUAL SPACING 150 BOTH WAYS BOTH FACES
  7
OpenSans
 11
66.0
 21
372.0
 31
0.0
100
AcDbText
  0
TEXT
  5
34A
330
17
100
AcDbEntity
  8
S-TITLE
100
AcDbText
 10
68.0
 20
348.6
 30
0.0
 40
2.5
  1
BAR MARK KEY - THIS SHEET
  7
OpenSans
 11
68.0
 21
348.6
 31
0.0
100
AcDbText
  0
CIRCLE
  5
34B
330
17
100
AcDbEntity
  8
S-CALLOUT
100
AcDbCircle
 10
73.0
 20
342.1
 30
0.0
 40
2.6
  0
TEXT
  5
34C
330
17
100
AcDbEntity
  8
S-CALLOUT
100
AcDbText
 10
73.0
 20
342.1
 30
0.0
 40
1.4
  1
S01A
  7
OpenSans
 72
1
 11
73.0
 21
342.1
 31
0.0
100
AcDbText
 73
2
  0
TEXT
  5
34D
330
17
100
AcDbEntity
  8
S-NOTE
100
AcDbText
 10
78.0
 20
341.5
 30
0.0
 40
1.9
  1
T25  @ 150   BOTTOM, TRANSVERSE (Y) - MAIN ZONES
  7
OpenSans
 11
78.0
 21
341.5
 31
0.0
100
AcDbText
  0
CIRCLE
  5
34E
330
17
100
AcDbEntity
  8
S-CALLOUT
100
AcDbCircle
 10
73.0
 20
336.1
 30
0.0
 40
2.6
  0
TEXT
  5
34F
330
17
100
AcDbEntity
  8
S-CALLOUT
100
AcDbText
 10
73.0
 20
336.1
 30
0.0
 40
1.4
  1
S01B
  7
OpenSans
 72
1
 11
73.0
 21
336.1
 31
0.0
100
AcDbText
 73
2
  0
TEXT
  5
350
330
17
100
AcDbEntity
  8
S-NOTE
100
AcDbText
 10
78.0
 20
335.5
 30
0.0
 40
1.9
  1
T25  @ 150   BOTTOM, TRANSVERSE - CANTILEVER PAD
  7
OpenSans
 11
78.0
 21
335.5
 31
0.0
100
AcDbText
  0
CIRCLE
  5
351
330
17
100
AcDbEntity
  8
S-CALLOUT
100
AcDbCircle
 10
73.0
 20
330.1
 30
0.0
 40
2.6
  0
TEXT
  5
352
330
17
100
AcDbEntity
  8
S-CALLOUT
100
AcDbText
 10
73.0
 20
330.1
 30
0.0
 40
1.4
  1
S02A
  7
OpenSans
 72
1
 11
73.0
 21
330.1
 31
0.0
100
AcDbText
 73
2
  0
TEXT
  5
353
330
17
100
AcDbEntity
  8
S-NOTE
100
AcDbText
 10
78.0
 20
329.5
 30
0.0
 40
1.9
  1
T25  @ 150   BOTTOM, LONGITUDINAL (X) - FULL LENGTH BANDS
  7
OpenSans
 11
78.0
 21
329.5
 31
0.0
100
AcDbText
  0
CIRCLE
  5
354
330
17
100
AcDbEntity
  8
S-CALLOUT
100
AcDbCircle
 10
73.0
 20
324.1
 30
0.0
 40
2.6
  0
TEXT
  5
355
330
17
100
AcDbEntity
  8
S-CALLOUT
100
AcDbText
 10
73.0
 20
324.1
 30
0.0
 40
1.4
  1
S02B
  7
OpenSans
 72
1
 11
73.0
 21
324.1
 31
0.0
100
AcDbText
 73
2
  0
TEXT
  5
356
330
17
100
AcDbEntity
  8
S-NOTE
100
AcDbText
 10
78.0
 20
323.5
 30
0.0
 40
1.9
  1
T25  @ 150   BOTTOM, LONGITUDINAL - WEST OF THE VOID
  7
OpenSans
 11
78.0
 21
323.5
 31
0.0
100
AcDbText
  0
CIRCLE
  5
357
330
17
100
AcDbEntity
  8
S-CALLOUT
100
AcDbCircle
 10
73.0
 20
318.1
 30
0.0
 40
2.6
  0
TEXT
  5
358
330
17
100
AcDbEntity
  8
S-CALLOUT
100
AcDbText
 10
73.0
 20
318.1
 30
0.0
 40
1.4
  1
S02C
  7
OpenSans
 72
1
 11
73.0
 21
318.1
 31
0.0
100
AcDbText
 73
2
  0
TEXT
  5
359
330
17
100
AcDbEntity
  8
S-NOTE
100
AcDbText
 10
78.0
 20
317.5
 30
0.0
 40
1.9
  1
T25  @ 150   BOTTOM, LONGITUDINAL - EAST OF THE VOID
  7
OpenSans
 11
78.0
 21
317.5
 31
0.0
100
AcDbText
  0
CIRCLE
  5
35A
330
17
100
AcDbEntity
  8
S-CALLOUT
100
AcDbCircle
 10
73.0
 20
312.1
 30
0.0
 40
2.6
  0
TEXT
  5
35B
330
17
100
AcDbEntity
  8
S-CALLOUT
100
AcDbText
 10
73.0
 20
312.1
 30
0.0
 40
1.4
  1
S03A
  7
OpenSans
 72
1
 11
73.0
 21
312.1
 31
0.0
100
AcDbText
 73
2
  0
TEXT
  5
35C
330
17
100
AcDbEntity
  8
S-NOTE
100
AcDbText
 10
78.0
 20
311.5
 30
0.0
 40
1.9
  1
T25  @ 150   TOP, TRANSVERSE (Y) - MAIN ZONES
  7
OpenSans
 11
78.0
 21
311.5
 31
0.0
100
AcDbText
  0
CIRCLE
  5
35D
330
17
100
AcDbEntity
  8
S-CALLOUT
100
AcDbCircle
 10
73.0
 20
306.1
 30
0.0
 40
2.6
  0
TEXT
  5
35E
330
17
100
AcDbEntity
  8
S-CALLOUT
100
AcDbText
 10
73.0
 20
306.1
 30
0.0
 40
1.4
  1
S03B
  7
OpenSans
 72
1
 11
73.0
 21
306.1
 31
0.0
100
AcDbText
 73
2
  0
TEXT
  5
35F
330
17
100
AcDbEntity
  8
S-NOTE
100
AcDbText
 10
78.0
 20
305.5
 30
0.0
 40
1.9
  1
T25  @ 150   TOP, TRANSVERSE - CANTILEVER PAD
  7
OpenSans
 11
78.0
 21
305.5
 31
0.0
100
AcDbText
  0
CIRCLE
  5
360
330
17
100
AcDbEntity
  8
S-CALLOUT
100
AcDbCircle
 10
73.0
 20
300.1
 30
0.0
 40
2.6
  0
TEXT
  5
361
330
17
100
AcDbEntity
  8
S-CALLOUT
100
AcDbText
 10
73.0
 20
300.1
 30
0.0
 40
1.4
  1
S03C
  7
OpenSans
 72
1
 11
73.0
 21
300.1
 31
0.0
100
AcDbText
 73
2
  0
TEXT
  5
362
330
17
100
AcDbEntity
  8
S-NOTE
100
AcDbText
 10
78.0
 20
299.5
 30
0.0
 40
1.9
  1
T25  @ 150   TOP, TRANSVERSE - STRIP OVER W1 AT THE VOID
  7
OpenSans
 11
78.0
 21
299.5
 31
0.0
100
AcDbText
  0
CIRCLE
  5
363
330
17
100
AcDbEntity
  8
S-CALLOUT
100
AcDbCircle
 10
73.0
 20
294.1
 30
0.0
 40
2.6
  0
TEXT
  5
364
330
17
100
AcDbEntity
  8
S-CALLOUT
100
AcDbText
 10
73.0
 20
294.1
 30
0.0
 40
1.4
  1
S04A
  7
OpenSans
 72
1
 11
73.0
 21
294.1
 31
0.0
100
AcDbText
 73
2
  0
TEXT
  5
365
330
17
100
AcDbEntity
  8
S-NOTE
100
AcDbText
 10
78.0
 20
293.5
 30
0.0
 40
1.9
  1
T25  @ 150   TOP, LONGITUDINAL (X) - FULL LENGTH BANDS
  7
OpenSans
 11
78.0
 21
293.5
 31
0.0
100
AcDbText
  0
CIRCLE
  5
366
330
17
100
AcDbEntity
  8
S-CALLOUT
100
AcDbCircle
 10
73.0
 20
288.1
 30
0.0
 40
2.6
  0
TEXT
  5
367
330
17
100
AcDbEntity
  8
S-CALLOUT
100
AcDbText
 10
73.0
 20
288.1
 30
0.0
 40
1.4
  1
S04B
  7
OpenSans
 72
1
 11
73.0
 21
288.1
 31
0.0
100
AcDbText
 73
2
  0
TEXT
  5
368
330
17
100
AcDbEntity
  8
S-NOTE
100
AcDbText
 10
78.0
 20
287.5
 30
0.0
 40
1.9
  1
T25  @ 150   TOP, LONGITUDINAL - WEST OF THE VOID
  7
OpenSans
 11
78.0
 21
287.5
 31
0.0
100
AcDbText
  0
CIRCLE
  5
369
330
17
100
AcDbEntity
  8
S-CALLOUT
100
AcDbCircle
 10
73.0
 20
282.1
 30
0.0
 40
2.6
  0
TEXT
  5
36A
330
17
100
AcDbEntity
  8
S-CALLOUT
100
AcDbText
 10
73.0
 20
282.1
 30
0.0
 40
1.4
  1
S04C
  7
OpenSans
 72
1
 11
73.0
 21
282.1
 31
0.0
100
AcDbText
 73
2
  0
TEXT
  5
36B
330
17
100
AcDbEntity
  8
S-NOTE
100
AcDbText
 10
78.0
 20
281.5
 30
0.0
 40
1.9
  1
T25  @ 150   TOP, LONGITUDINAL - EAST OF THE VOID
  7
OpenSans
 11
78.0
 21
281.5
 31
0.0
100
AcDbText
  0
CIRCLE
  5
36C
330
17
100
AcDbEntity
  8
S-CALLOUT
100
AcDbCircle
 10
73.0
 20
276.1
 30
0.0
 40
2.6
  0
TEXT
  5
36D
330
17
100
AcDbEntity
  8
S-CALLOUT
100
AcDbText
 10
73.0
 20
276.1
 30
0.0
 40
1.4
  1
S05
  7
OpenSans
 72
1
 11
73.0
 21
276.1
 31
0.0
100
AcDbText
 73
2
  0
TEXT
  5
36E
330
17
100
AcDbEntity
  8
S-NOTE
100
AcDbText
 10
78.0
 20
275.5
 30
0.0
 40
1.9
  1
T12  @ 250 x 250 4-LEGGED LINKS @ 250, END 1500 EACH SIDE
  7
OpenSans
 11
78.0
 21
275.5
 31
0.0
100
AcDbText
  0
CIRCLE
  5
36F
330
17
100
AcDbEntity
  8
S-CALLOUT
100
AcDbCircle
 10
73.0
 20
270.1
 30
0.0
 40
2.6
  0
TEXT
  5
370
330
17
100
AcDbEntity
  8
S-CALLOUT
100
AcDbText
 10
73.0
 20
270.1
 30
0.0
 40
1.4
  1
S06
  7
OpenSans
 72
1
 11
73.0
 21
270.1
 31
0.0
100
AcDbText
 73
2
  0
TEXT
  5
371
330
17
100
AcDbEntity
  8
S-NOTE
100
AcDbText
 10
78.0
 20
269.5
 30
0.0
 40
1.9
  1
T12  @ 300 x 300 2-LEGGED LINKS @ 300, MID ZONE
  7
OpenSans
 11
78.0
 21
269.5
 31
0.0
100
AcDbText
  0
CIRCLE
  5
372
330
17
100
AcDbEntity
  8
S-CALLOUT
100
AcDbCircle
 10
73.0
 20
264.1
 30
0.0
 40
2.6
  0
TEXT
  5
373
330
17
100
AcDbEntity
  8
S-CALLOUT
100
AcDbText
 10
73.0
 20
264.1
 30
0.0
 40
1.4
  1
S07
  7
OpenSans
 72
1
 11
73.0
 21
264.1
 31
0.0
100
AcDbText
 73
2
  0
TEXT
  5
374
330
17
100
AcDbEntity
  8
S-NOTE
100
AcDbText
 10
78.0
 20
263.5
 30
0.0
 40
1.9
  1
T12  @ 250 x 250 4-LEGGED LINKS @ 250 THROUGHOUT THE PAD
  7
OpenSans
 11
78.0
 21
263.5
 31
0.0
100
AcDbText
  0
LWPOLYLINE
  5
375
330
17
100
AcDbEntity
  8
S-TITLE
100
AcDbPolyline
 90
4
 70
1
 10
66.0
 20
255.5
 10
306.0
 20
255.5
 10
306.0
 20
352.0
 10
66.0
 20
352.0
  0
TEXT
  5
376
330
17
100
AcDbEntity
  8
S-TITLE
100
AcDbText
 10
68.0
 20
244.1
 30
0.0
 40
2.5
  1
BAR MARK KEY - OPENINGS AND BANDS
  7
OpenSans
 11
68.0
 21
244.1
 31
0.0
100
AcDbText
  0
CIRCLE
  5
377
330
17
100
AcDbEntity
  8
S-CALLOUT
100
AcDbCircle
 10
73.0
 20
237.6
 30
0.0
 40
2.6
  0
TEXT
  5
378
330
17
100
AcDbEntity
  8
S-CALLOUT
100
AcDbText
 10
73.0
 20
237.6
 30
0.0
 40
1.4
  1
S08
  7
OpenSans
 72
1
 11
73.0
 21
237.6
 31
0.0
100
AcDbText
 73
2
  0
TEXT
  5
379
330
17
100
AcDbEntity
  8
S-NOTE
100
AcDbText
 10
78.0
 20
237.0
 30
0.0
 40
1.9
  1
T25          TRIMMERS, 5-T25 EACH SIDE/FACE/DIRECTION
  7
OpenSans
 11
78.0
 21
237.0
 31
0.0
100
AcDbText
  0
CIRCLE
  5
37A
330
17
100
AcDbEntity
  8
S-CALLOUT
100
AcDbCircle
 10
73.0
 20
231.6
 30
0.0
 40
2.6
  0
TEXT
  5
37B
330
17
100
AcDbEntity
  8
S-CALLOUT
100
AcDbText
 10
73.0
 20
231.6
 30
0.0
 40
1.4
  1
S09
  7
OpenSans
 72
1
 11
73.0
 21
231.6
 31
0.0
100
AcDbText
 73
2
  0
TEXT
  5
37C
330
17
100
AcDbEntity
  8
S-NOTE
100
AcDbText
 10
78.0
 20
231.0
 30
0.0
 40
1.9
  1
T16  @ 150   HOOPS, 3 LAYERS EACH FACE
  7
OpenSans
 11
78.0
 21
231.0
 31
0.0
100
AcDbText
  0
CIRCLE
  5
37D
330
17
100
AcDbEntity
  8
S-CALLOUT
100
AcDbCircle
 10
73.0
 20
225.6
 30
0.0
 40
2.6
  0
TEXT
  5
37E
330
17
100
AcDbEntity
  8
S-CALLOUT
100
AcDbText
 10
73.0
 20
225.6
 30
0.0
 40
1.4
  1
S10
  7
OpenSans
 72
1
 11
73.0
 21
225.6
 31
0.0
100
AcDbText
 73
2
  0
TEXT
  5
37F
330
17
100
AcDbEntity
  8
S-NOTE
100
AcDbText
 10
78.0
 20
225.0
 30
0.0
 40
1.9
  1
T16  @ 150   RADIAL BARS
  7
OpenSans
 11
78.0
 21
225.0
 31
0.0
100
AcDbText
  0
CIRCLE
  5
380
330
17
100
AcDbEntity
  8
S-CALLOUT
100
AcDbCircle
 10
73.0
 20
219.6
 30
0.0
 40
2.6
  0
TEXT
  5
381
330
17
100
AcDbEntity
  8
S-CALLOUT
100
AcDbText
 10
73.0
 20
219.6
 30
0.0
 40
1.4
  1
S11
  7
OpenSans
 72
1
 11
73.0
 21
219.6
 31
0.0
100
AcDbText
 73
2
  0
TEXT
  5
382
330
17
100
AcDbEntity
  8
S-NOTE
100
AcDbText
 10
78.0
 20
219.0
 30
0.0
 40
1.9
  1
T12  @ 150   CLOSED LINKS @ 150 IN THE 1200 ANNULUS
  7
OpenSans
 11
78.0
 21
219.0
 31
0.0
100
AcDbText
  0
CIRCLE
  5
383
330
17
100
AcDbEntity
  8
S-CALLOUT
100
AcDbCircle
 10
73.0
 20
213.6
 30
0.0
 40
2.6
  0
TEXT
  5
384
330
17
100
AcDbEntity
  8
S-CALLOUT
100
AcDbText
 10
73.0
 20
213.6
 30
0.0
 40
1.4
  1
S12
  7
OpenSans
 72
1
 11
73.0
 21
213.6
 31
0.0
100
AcDbText
 73
2
  0
TEXT
  5
385
330
17
100
AcDbEntity
  8
S-NOTE
100
AcDbText
 10
78.0
 20
213.0
 30
0.0
 40
1.9
  1
T25          6-T25 TOP + 6-T25 BOTTOM IN THE 1200 THICKENING
  7
OpenSans
 11
78.0
 21
213.0
 31
0.0
100
AcDbText
  0
CIRCLE
  5
386
330
17
100
AcDbEntity
  8
S-CALLOUT
100
AcDbCircle
 10
73.0
 20
207.6
 30
0.0
 40
2.6
  0
TEXT
  5
387
330
17
100
AcDbEntity
  8
S-CALLOUT
100
AcDbText
 10
73.0
 20
207.6
 30
0.0
 40
1.4
  1
S13
  7
OpenSans
 72
1
 11
73.0
 21
207.6
 31
0.0
100
AcDbText
 73
2
  0
TEXT
  5
388
330
17
100
AcDbEntity
  8
S-NOTE
100
AcDbText
 10
78.0
 20
207.0
 30
0.0
 40
1.9
  1
T12  @ 150   CLOSED LINKS @ 150
  7
OpenSans
 11
78.0
 21
207.0
 31
0.0
100
AcDbText
  0
CIRCLE
  5
389
330
17
100
AcDbEntity
  8
S-CALLOUT
100
AcDbCircle
 10
73.0
 20
201.6
 30
0.0
 40
2.6
  0
TEXT
  5
38A
330
17
100
AcDbEntity
  8
S-CALLOUT
100
AcDbText
 10
73.0
 20
201.6
 30
0.0
 40
1.4
  1
S14
  7
OpenSans
 72
1
 11
73.0
 21
201.6
 31
0.0
100
AcDbText
 73
2
  0
TEXT
  5
38B
330
17
100
AcDbEntity
  8
S-NOTE
100
AcDbText
 10
78.0
 20
201.0
 30
0.0
 40
1.9
  1
T25          6-T25 EACH FACE, TOP AND BOTTOM, 900 BAND
  7
OpenSans
 11
78.0
 21
201.0
 31
0.0
100
AcDbText
  0
CIRCLE
  5
38C
330
17
100
AcDbEntity
  8
S-CALLOUT
100
AcDbCircle
 10
73.0
 20
195.6
 30
0.0
 40
2.6
  0
TEXT
  5
38D
330
17
100
AcDbEntity
  8
S-CALLOUT
100
AcDbText
 10
73.0
 20
195.6
 30
0.0
 40
1.4
  1
S15
  7
OpenSans
 72
1
 11
73.0
 21
195.6
 31
0.0
100
AcDbText
 73
2
  0
TEXT
  5
38E
330
17
100
AcDbEntity
  8
S-NOTE
100
AcDbText
 10
78.0
 20
195.0
 30
0.0
 40
1.9
  1
T25          4-T25 EACH FACE AT 45 DEG
  7
OpenSans
 11
78.0
 21
195.0
 31
0.0
100
AcDbText
  0
CIRCLE
  5
38F
330
17
100
AcDbEntity
  8
S-CALLOUT
100
AcDbCircle
 10
73.0
 20
189.6
 30
0.0
 40
2.6
  0
TEXT
  5
390
330
17
100
AcDbEntity
  8
S-CALLOUT
100
AcDbText
 10
73.0
 20
189.6
 30
0.0
 40
1.4
  1
S16
  7
OpenSans
 72
1
 11
73.0
 21
189.6
 31
0.0
100
AcDbText
 73
2
  0
TEXT
  5
391
330
17
100
AcDbEntity
  8
S-NOTE
100
AcDbText
 10
78.0
 20
189.0
 30
0.0
 40
1.9
  1
T25          4-T25 TOP AND BOTTOM, 1200 BAND
  7
OpenSans
 11
78.0
 21
189.0
 31
0.0
100
AcDbText
  0
LWPOLYLINE
  5
392
330
17
100
AcDbEntity
  8
S-TITLE
100
AcDbPolyline
 90
4
 70
1
 10
66.0
 20
181.0
 10
306.0
 20
181.0
 10
306.0
 20
247.5
 10
66.0
 20
247.5
  0
TEXT
  5
393
330
17
100
AcDbEntity
  8
S-TITLE
100
AcDbText
 10
318.0
 20
347.5
 30
0.0
 40
2.5
  1
PRESSURE SLAB - DESIGN BASIS
  7
OpenSans
 11
318.0
 21
347.5
 31
0.0
100
AcDbText
  0
TEXT
  5
394
330
17
100
AcDbEntity
  8
S-NOTE
100
AcDbText
 10
318.0
 20
343.375
 30
0.0
 40
2.0
  1
GOVERNING COMBINATION  103 BLAST,  w = 448.15 kPa
  7
OpenSans
 11
318.0
 21
343.375
 31
0.0
100
AcDbText
  0
TEXT
  5
395
330
17
100
AcDbEntity
  8
S-NOTE
100
AcDbText
 10
318.0
 20
340.325
 30
0.0
 40
2.0
  1
  383.00 blast + 40.65 cover [C17] + 2.00 SIDL + 22.50 self
  7
OpenSans
 11
318.0
 21
340.325
 31
0.0
100
AcDbText
  0
TEXT
  5
396
330
17
100
AcDbEntity
  8
S-NOTE
100
AcDbText
 10
318.0
 20
337.275
 30
0.0
 40
2.0
  1
  NO LIVE LOAD ON THE ROOF AT BLAST - IS 4991 Cl. 11.2
  7
OpenSans
 11
318.0
 21
337.275
 31
0.0
100
AcDbText
  0
TEXT
  5
397
330
17
100
AcDbEntity
  8
S-NOTE
100
AcDbText
 10
318.0
 20
334.22499999999997
 30
0.0
 40
2.0
  1
  Static ULS 101 = 127.7 kPa  ->  BLAST GOVERNS 3.51 : 1
  7
OpenSans
 11
318.0
 21
334.22499999999997
 31
0.0
100
AcDbText
  0
TEXT
  5
398
330
17
100
AcDbEntity
  8
S-NOTE
100
AcDbText
 10
318.0
 20
328.12499999999994
 30
0.0
 40
2.0
  1
ONE-WAY IS NOT A CHOICE, IT IS FORCED
  7
OpenSans
 11
318.0
 21
328.12499999999994
 31
0.0
100
AcDbText
  0
TEXT
  5
399
330
17
100
AcDbEntity
  8
S-NOTE
100
AcDbText
 10
318.0
 20
325.07499999999993
 30
0.0
 40
2.0
  1
  aspect 20.8 / 5.0 = 4.2, and IS 456 Table 26 is tabulated only to
  7
OpenSans
 11
318.0
 21
325.07499999999993
 31
0.0
100
AcDbText
  0
TEXT
  5
39A
330
17
100
AcDbEntity
  8
S-NOTE
100
AcDbText
 10
318.0
 20
322.0249999999999
 30
0.0
 40
2.0
  1
  ly/lx = 2.0, so TWO-WAY ACTION CANNOT BE CLAIMED.  Mp depends only
  7
OpenSans
 11
318.0
 21
322.0249999999999
 31
0.0
100
AcDbText
  0
TEXT
  5
39B
330
17
100
AcDbEntity
  8
S-NOTE
100
AcDbText
 10
318.0
 20
318.9749999999999
 30
0.0
 40
2.0
  1
  on the 5000 clear width  ->  LENGTHENING THE BOX IS STRUCTURALLY
  7
OpenSans
 11
318.0
 21
318.9749999999999
 31
0.0
100
AcDbText
  0
TEXT
  5
39C
330
17
100
AcDbEntity
  8
S-NOTE
100
AcDbText
 10
318.0
 20
315.9249999999999
 30
0.0
 40
2.0
  1
  FREE (the basis of M1); WIDENING 5.0 -> 6.0 m would raise the roof
  7
OpenSans
 11
318.0
 21
315.9249999999999
 31
0.0
100
AcDbText
  0
TEXT
  5
39D
330
17
100
AcDbEntity
  8
S-NOTE
100
AcDbText
 10
318.0
 20
312.8749999999999
 30
0.0
 40
2.0
  1
  moment 44 %.
  7
OpenSans
 11
318.0
 21
312.8749999999999
 31
0.0
100
AcDbText
  0
TEXT
  5
39E
330
17
100
AcDbEntity
  8
S-NOTE
100
AcDbText
 10
318.0
 20
306.77499999999986
 30
0.0
 40
2.0
  1
NATURAL PERIOD   m 3250 kg/m2 ; 0.5 EIg 8.985e8 N.m2/m
  7
OpenSans
 11
318.0
 21
306.77499999999986
 31
0.0
100
AcDbText
  0
TEXT
  5
39F
330
17
100
AcDbEntity
  8
S-NOTE
100
AcDbText
 10
318.0
 20
303.72499999999985
 30
0.0
 40
2.0
  1
  f1 = 74.9 Hz  ->  T = 13.4 ms ;  td/T = 10 to 100  ->  QUASI-STATIC
  7
OpenSans
 11
318.0
 21
303.72499999999985
 31
0.0
100
AcDbText
  0
TEXT
  5
3A0
330
17
100
AcDbEntity
  8
S-NOTE
100
AcDbText
 10
318.0
 20
300.67499999999984
 30
0.0
 40
2.0
  1
  This is what licenses a static analysis at all.
  7
OpenSans
 11
318.0
 21
300.67499999999984
 31
0.0
100
AcDbText
  0
TEXT
  5
3A1
330
17
100
AcDbEntity
  8
S-NOTE
100
AcDbText
 10
318.0
 20
294.5749999999998
 30
0.0
 40
2.0
  1
FLEXURE   d = 900 - 75 - 12.5 = 812.5
  7
OpenSans
 11
318.0
 21
294.5749999999998
 31
0.0
100
AcDbText
  0
TEXT
  5
3A2
330
17
100
AcDbEntity
  8
S-NOTE
100
AcDbText
 10
318.0
 20
291.5249999999998
 30
0.0
 40
2.0
  1
  Mp = w Ln2 / 16 = 448.15 x 25 / 16        =  700.2 kNm/m
  7
OpenSans
 11
318.0
 21
291.5249999999998
 31
0.0
100
AcDbText
  0
TEXT
  5
3A3
330
17
100
AcDbEntity
  8
S-NOTE
100
AcDbText
 10
318.0
 20
288.4749999999998
 30
0.0
 40
2.0
  1
  Mu,lim = 3841 kNm/m  OK ;  Ast,req        =  1632 mm2/m
  7
OpenSans
 11
318.0
 21
288.4749999999998
 31
0.0
100
AcDbText
  0
TEXT
  5
3A4
330
17
100
AcDbEntity
  8
S-NOTE
100
AcDbText
 10
318.0
 20
285.4249999999998
 30
0.0
 40
2.0
  1
  IS 456 Cl. 26.5.2.1 min 0.12 % x 900      =  1080 mm2/m
  7
OpenSans
 11
318.0
 21
285.4249999999998
 31
0.0
100
AcDbText
  0
TEXT
  5
3A5
330
17
100
AcDbEntity
  8
S-NOTE
100
AcDbText
 10
318.0
 20
282.3749999999998
 30
0.0
 40
2.0
  1
  IS 456 Cl. 26.5.2.2 max bar dia D/8 = 112  ->  T25 OK
  7
OpenSans
 11
318.0
 21
282.3749999999998
 31
0.0
100
AcDbText
  0
TEXT
  5
3A6
330
17
100
AcDbEntity
  8
S-NOTE
100
AcDbText
 10
318.0
 20
279.32499999999976
 30
0.0
 40
2.0
  1
  PROVIDED T25 @ 150 EF EW = 3272  ->  Mu 1362.4, UTILISATION 51 %
  7
OpenSans
 11
318.0
 21
279.32499999999976
 31
0.0
100
AcDbText
  0
TEXT
  5
3A7
330
17
100
AcDbEntity
  8
S-NOTE
100
AcDbText
 10
318.0
 20
276.27499999999975
 30
0.0
 40
2.0
  1
  xu 113.0,  x/d = 0.139 << 0.46
  7
OpenSans
 11
318.0
 21
276.27499999999975
 31
0.0
100
AcDbText
  0
TEXT
  5
3A8
330
17
100
AcDbEntity
  8
S-NOTE
100
AcDbText
 10
318.0
 20
273.22499999999974
 30
0.0
 40
2.0
  1
  *** x/d = 0.139 IS THE PROOF THAT mu = 5 IS DEFENSIBLE ***
  7
OpenSans
 11
318.0
 21
273.22499999999974
 31
0.0
100
AcDbText
  0
TEXT
  5
3A9
330
17
100
AcDbEntity
  8
S-NOTE
100
AcDbText
 10
318.0
 20
267.1249999999997
 30
0.0
 40
2.0
  1
SHEAR   V at the support face 1120 kN/m ;  V at d 756.3 kN/m
  7
OpenSans
 11
318.0
 21
267.1249999999997
 31
0.0
100
AcDbText
  0
TEXT
  5
3AA
330
17
100
AcDbEntity
  8
S-NOTE
100
AcDbText
 10
318.0
 20
264.0749999999997
 30
0.0
 40
2.0
  1
  tau_v 0.931 | tau_c 0.450 (pt 0.403 %, STATIC M35) | tau_c,max 3.70 OK
  7
OpenSans
 11
318.0
 21
264.0749999999997
 31
0.0
100
AcDbText
  0
TEXT
  5
3AB
330
17
100
AcDbEntity
  8
S-NOTE
100
AcDbText
 10
318.0
 20
261.0249999999997
 30
0.0
 40
2.0
  1
  Vus 390.8 ; Asv/sv 1.106  ->  T12 4-leg at 409
  7
OpenSans
 11
318.0
 21
261.0249999999997
 31
0.0
100
AcDbText
  0
TEXT
  5
3AC
330
17
100
AcDbEntity
  8
S-NOTE
100
AcDbText
 10
318.0
 20
257.9749999999997
 30
0.0
 40
2.0
  1
  IS 456 Cl. 26.5.1.5 LIMIT 300 GOVERNS
  7
OpenSans
 11
318.0
 21
257.9749999999997
 31
0.0
100
AcDbText
  0
TEXT
  5
3AD
330
17
100
AcDbEntity
  8
S-NOTE
100
AcDbText
 10
318.0
 20
254.92499999999967
 30
0.0
 40
2.0
  1
  PROVIDED  T12 4-LEG @ 250 IN THE END 1500 EACH SIDE ; 2-LEG @ 300 MID
  7
OpenSans
 11
318.0
 21
254.92499999999967
 31
0.0
100
AcDbText
  0
TEXT
  5
3AE
330
17
100
AcDbEntity
  8
S-NOTE
100
AcDbText
 10
318.0
 20
248.82499999999965
 30
0.0
 40
2.0
  1
DIRECT SHEAR   Vd,max = 0.16 fck,dyn b d = 5688 kN/m vs 1120 = 19.7 %
  7
OpenSans
 11
318.0
 21
248.82499999999965
 31
0.0
100
AcDbText
  0
TEXT
  5
3AF
330
17
100
AcDbEntity
  8
S-NOTE
100
AcDbText
 10
318.0
 20
245.77499999999964
 30
0.0
 40
2.0
  1
  [UFC 3-340-02 section 4-30, cited AS US CRITERIA, NOT AS IS 456]
  7
OpenSans
 11
318.0
 21
245.77499999999964
 31
0.0
100
AcDbText
  0
TEXT
  5
3B0
330
17
100
AcDbEntity
  8
S-NOTE
100
AcDbText
 10
318.0
 20
239.6749999999996
 30
0.0
 40
2.0
  1
MANUAL CALCULATION - NOT DIRECT STAAD OUTPUT.
  7
OpenSans
 11
318.0
 21
239.6749999999996
 31
0.0
100
AcDbText
  0
LWPOLYLINE
  5
3B1
330
17
100
AcDbEntity
  8
S-TITLE
100
AcDbPolyline
 90
4
 70
1
 10
316.0
 20
234.6249999999996
 10
638.0
 20
234.6249999999996
 10
638.0
 20
352.0
 10
316.0
 20
352.0
  0
TEXT
  5
3B2
330
17
100
AcDbEntity
  8
S-TITLE
100
AcDbText
 10
316.0
 20
229.6249999999996
 30
0.0
 40
2.5
  1
BAR SCHEDULE EXTRACT - THIS SHEET
  7
OpenSans
 11
316.0
 21
229.6249999999996
 31
0.0
100
AcDbText
  0
LWPOLYLINE
  5
3B3
330
17
100
AcDbEntity
  8
S-TABLE
100
AcDbPolyline
 90
4
 70
1
 10
316.0
 20
222.4249999999996
 10
425.0
 20
222.4249999999996
 10
425.0
 20
226.6249999999996
 10
316.0
 20
226.6249999999996
  0
TEXT
  5
3B4
330
17
100
AcDbEntity
  8
S-TABLE
100
AcDbText
 10
317.4
 20
223.68156363636325
 30
0.0
 40
1.6868727272727269
  1
MARK
  7
OpenSans
 11
317.4
 21
223.68156363636325
 31
0.0
100
AcDbText
  0
TEXT
  5
3B5
330
17
100
AcDbEntity
  8
S-TABLE
100
AcDbText
 10
334.4
 20
223.68156363636325
 30
0.0
 40
1.6868727272727269
  1
DIA
  7
OpenSans
 11
334.4
 21
223.68156363636325
 31
0.0
100
AcDbText
  0
TEXT
  5
3B6
330
17
100
AcDbEntity
  8
S-TABLE
100
AcDbText
 10
347.4
 20
223.68156363636325
 30
0.0
 40
1.6868727272727269
  1
SHP
  7
OpenSans
 11
347.4
 21
223.68156363636325
 31
0.0
100
AcDbText
  0
TEXT
  5
3B7
330
17
100
AcDbEntity
  8
S-TABLE
100
AcDbText
 10
359.4
 20
223.68156363636325
 30
0.0
 40
1.6868727272727269
  1
SPAC
  7
OpenSans
 11
359.4
 21
223.68156363636325
 31
0.0
100
AcDbText
  0
TEXT
  5
3B8
330
17
100
AcDbEntity
  8
S-TABLE
100
AcDbText
 10
374.4
 20
223.68156363636325
 30
0.0
 40
1.6868727272727269
  1
No.
  7
OpenSans
 11
374.4
 21
223.68156363636325
 31
0.0
100
AcDbText
  0
TEXT
  5
3B9
330
17
100
AcDbEntity
  8
S-TABLE
100
AcDbText
 10
389.4
 20
223.68156363636325
 30
0.0
 40
1.6868727272727269
  1
CUT
  7
OpenSans
 11
389.4
 21
223.68156363636325
 31
0.0
100
AcDbText
  0
TEXT
  5
3BA
330
17
100
AcDbEntity
  8
S-TABLE
100
AcDbText
 10
406.4
 20
223.68156363636325
 30
0.0
 40
1.6868727272727269
  1
kg
  7
OpenSans
 11
406.4
 21
223.68156363636325
 31
0.0
100
AcDbText
  0
TEXT
  5
3BB
330
17
100
AcDbEntity
  8
S-TABLE
100
AcDbText
 10
317.4
 20
219.48156363636326
 30
0.0
 40
1.6868727272727269
  1
S01A
  7
OpenSans
 11
317.4
 21
219.48156363636326
 31
0.0
100
AcDbText
  0
TEXT
  5
3BC
330
17
100
AcDbEntity
  8
S-TABLE
100
AcDbText
 10
334.4
 20
219.48156363636326
 30
0.0
 40
1.6868727272727269
  1
T25
  7
OpenSans
 11
334.4
 21
219.48156363636326
 31
0.0
100
AcDbText
  0
TEXT
  5
3BD
330
17
100
AcDbEntity
  8
S-TABLE
100
AcDbText
 10
347.4
 20
219.48156363636326
 30
0.0
 40
1.6868727272727269
  1
00
  7
OpenSans
 11
347.4
 21
219.48156363636326
 31
0.0
100
AcDbText
  0
TEXT
  5
3BE
330
17
100
AcDbEntity
  8
S-TABLE
100
AcDbText
 10
359.4
 20
219.48156363636326
 30
0.0
 40
1.6868727272727269
  1
150
  7
OpenSans
 11
359.4
 21
219.48156363636326
 31
0.0
100
AcDbText
  0
TEXT
  5
3BF
330
17
100
AcDbEntity
  8
S-TABLE
100
AcDbText
 10
374.4
 20
219.48156363636326
 30
0.0
 40
1.6868727272727269
  1
127
  7
OpenSans
 11
374.4
 21
219.48156363636326
 31
0.0
100
AcDbText
  0
TEXT
  5
3C0
330
17
100
AcDbEntity
  8
S-TABLE
100
AcDbText
 10
389.4
 20
219.48156363636326
 30
0.0
 40
1.6868727272727269
  1
6050
  7
OpenSans
 11
389.4
 21
219.48156363636326
 31
0.0
100
AcDbText
  0
TEXT
  5
3C1
330
17
100
AcDbEntity
  8
S-TABLE
100
AcDbText
 10
406.4
 20
219.48156363636326
 30
0.0
 40
1.6868727272727269
  1
2961
  7
OpenSans
 11
406.4
 21
219.48156363636326
 31
0.0
100
AcDbText
  0
LINE
  5
3C2
330
17
100
AcDbEntity
  8
S-TABLE
100
AcDbLine
 10
316.0
 20
218.22499999999962
 30
0.0
 11
425.0
 21
218.22499999999962
 31
0.0
  0
TEXT
  5
3C3
330
17
100
AcDbEntity
  8
S-TABLE
100
AcDbText
 10
317.4
 20
215.28156363636327
 30
0.0
 40
1.6868727272727269
  1
S01B
  7
OpenSans
 11
317.4
 21
215.28156363636327
 31
0.0
100
AcDbText
  0
TEXT
  5
3C4
330
17
100
AcDbEntity
  8
S-TABLE
100
AcDbText
 10
334.4
 20
215.28156363636327
 30
0.0
 40
1.6868727272727269
  1
T25
  7
OpenSans
 11
334.4
 21
215.28156363636327
 31
0.0
100
AcDbText
  0
TEXT
  5
3C5
330
17
100
AcDbEntity
  8
S-TABLE
100
AcDbText
 10
347.4
 20
215.28156363636327
 30
0.0
 40
1.6868727272727269
  1
00
  7
OpenSans
 11
347.4
 21
215.28156363636327
 31
0.0
100
AcDbText
  0
TEXT
  5
3C6
330
17
100
AcDbEntity
  8
S-TABLE
100
AcDbText
 10
359.4
 20
215.28156363636327
 30
0.0
 40
1.6868727272727269
  1
150
  7
OpenSans
 11
359.4
 21
215.28156363636327
 31
0.0
100
AcDbText
  0
TEXT
  5
3C7
330
17
100
AcDbEntity
  8
S-TABLE
100
AcDbText
 10
374.4
 20
215.28156363636327
 30
0.0
 40
1.6868727272727269
  1
18
  7
OpenSans
 11
374.4
 21
215.28156363636327
 31
0.0
100
AcDbText
  0
TEXT
  5
3C8
330
17
100
AcDbEntity
  8
S-TABLE
100
AcDbText
 10
389.4
 20
215.28156363636327
 30
0.0
 40
1.6868727272727269
  1
2365
  7
OpenSans
 11
389.4
 21
215.28156363636327
 31
0.0
100
AcDbText
  0
TEXT
  5
3C9
330
17
100
AcDbEntity
  8
S-TABLE
100
AcDbText
 10
406.4
 20
215.28156363636327
 30
0.0
 40
1.6868727272727269
  1
164
  7
OpenSans
 11
406.4
 21
215.28156363636327
 31
0.0
100
AcDbText
  0
LINE
  5
3CA
330
17
100
AcDbEntity
  8
S-TABLE
100
AcDbLine
 10
316.0
 20
214.02499999999964
 30
0.0
 11
425.0
 21
214.02499999999964
 31
0.0
  0
TEXT
  5
3CB
330
17
100
AcDbEntity
  8
S-TABLE
100
AcDbText
 10
317.4
 20
211.08156363636328
 30
0.0
 40
1.6868727272727269
  1
S02A
  7
OpenSans
 11
317.4
 21
211.08156363636328
 31
0.0
100
AcDbText
  0
TEXT
  5
3CC
330
17
100
AcDbEntity
  8
S-TABLE
100
AcDbText
 10
334.4
 20
211.08156363636328
 30
0.0
 40
1.6868727272727269
  1
T25
  7
OpenSans
 11
334.4
 21
211.08156363636328
 31
0.0
100
AcDbText
  0
TEXT
  5
3CD
330
17
100
AcDbEntity
  8
S-TABLE
100
AcDbText
 10
347.4
 20
211.08156363636328
 30
0.0
 40
1.6868727272727269
  1
00
  7
OpenSans
 11
347.4
 21
211.08156363636328
 31
0.0
100
AcDbText
  0
TEXT
  5
3CE
330
17
100
AcDbEntity
  8
S-TABLE
100
AcDbText
 10
359.4
 20
211.08156363636328
 30
0.0
 40
1.6868727272727269
  1
150
  7
OpenSans
 11
359.4
 21
211.08156363636328
 31
0.0
100
AcDbText
  0
TEXT
  5
3CF
330
17
100
AcDbEntity
  8
S-TABLE
100
AcDbText
 10
374.4
 20
211.08156363636328
 30
0.0
 40
1.6868727272727269
  1
40
  7
OpenSans
 11
374.4
 21
211.08156363636328
 31
0.0
100
AcDbText
  0
TEXT
  5
3D0
330
17
100
AcDbEntity
  8
S-TABLE
100
AcDbText
 10
389.4
 20
211.08156363636328
 30
0.0
 40
1.6868727272727269
  1
11550
  7
OpenSans
 11
389.4
 21
211.08156363636328
 31
0.0
100
AcDbText
  0
TEXT
  5
3D1
330
17
100
AcDbEntity
  8
S-TABLE
100
AcDbText
 10
406.4
 20
211.08156363636328
 30
0.0
 40
1.6868727272727269
  1
1780
  7
OpenSans
 11
406.4
 21
211.08156363636328
 31
0.0
100
AcDbText
  0
LINE
  5
3D2
330
17
100
AcDbEntity
  8
S-TABLE
100
AcDbLine
 10
316.0
 20
209.82499999999965
 30
0.0
 11
425.0
 21
209.82499999999965
 31
0.0
  0
TEXT
  5
3D3
330
17
100
AcDbEntity
  8
S-TABLE
100
AcDbText
 10
317.4
 20
206.8815636363633
 30
0.0
 40
1.6868727272727269
  1
S02B
  7
OpenSans
 11
317.4
 21
206.8815636363633
 31
0.0
100
AcDbText
  0
TEXT
  5
3D4
330
17
100
AcDbEntity
  8
S-TABLE
100
AcDbText
 10
334.4
 20
206.8815636363633
 30
0.0
 40
1.6868727272727269
  1
T25
  7
OpenSans
 11
334.4
 21
206.8815636363633
 31
0.0
100
AcDbText
  0
TEXT
  5
3D5
330
17
100
AcDbEntity
  8
S-TABLE
100
AcDbText
 10
347.4
 20
206.8815636363633
 30
0.0
 40
1.6868727272727269
  1
00
  7
OpenSans
 11
347.4
 21
206.8815636363633
 31
0.0
100
AcDbText
  0
TEXT
  5
3D6
330
17
100
AcDbEntity
  8
S-TABLE
100
AcDbText
 10
359.4
 20
206.8815636363633
 30
0.0
 40
1.6868727272727269
  1
150
  7
OpenSans
 11
359.4
 21
206.8815636363633
 31
0.0
100
AcDbText
  0
TEXT
  5
3D7
330
17
100
AcDbEntity
  8
S-TABLE
100
AcDbText
 10
374.4
 20
206.8815636363633
 30
0.0
 40
1.6868727272727269
  1
42
  7
OpenSans
 11
374.4
 21
206.8815636363633
 31
0.0
100
AcDbText
  0
TEXT
  5
3D8
330
17
100
AcDbEntity
  8
S-TABLE
100
AcDbText
 10
389.4
 20
206.8815636363633
 30
0.0
 40
1.6868727272727269
  1
8188
  7
OpenSans
 11
389.4
 21
206.8815636363633
 31
0.0
100
AcDbText
  0
TEXT
  5
3D9
330
17
100
AcDbEntity
  8
S-TABLE
100
AcDbText
 10
406.4
 20
206.8815636363633
 30
0.0
 40
1.6868727272727269
  1
1325
  7
OpenSans
 11
406.4
 21
206.8815636363633
 31
0.0
100
AcDbText
  0
LINE
  5
3DA
330
17
100
AcDbEntity
  8
S-TABLE
100
AcDbLine
 10
316.0
 20
205.62499999999966
 30
0.0
 11
425.0
 21
205.62499999999966
 31
0.0
  0
TEXT
  5
3DB
330
17
100
AcDbEntity
  8
S-TABLE
100
AcDbText
 10
317.4
 20
202.6815636363633
 30
0.0
 40
1.6868727272727269
  1
S02C
  7
OpenSans
 11
317.4
 21
202.6815636363633
 31
0.0
100
AcDbText
  0
TEXT
  5
3DC
330
17
100
AcDbEntity
  8
S-TABLE
100
AcDbText
 10
334.4
 20
202.6815636363633
 30
0.0
 40
1.6868727272727269
  1
T25
  7
OpenSans
 11
334.4
 21
202.6815636363633
 31
0.0
100
AcDbText
  0
TEXT
  5
3DD
330
17
100
AcDbEntity
  8
S-TABLE
100
AcDbText
 10
347.4
 20
202.6815636363633
 30
0.0
 40
1.6868727272727269
  1
00
  7
OpenSans
 11
347.4
 21
202.6815636363633
 31
0.0
100
AcDbText
  0
TEXT
  5
3DE
330
17
100
AcDbEntity
  8
S-TABLE
100
AcDbText
 10
359.4
 20
202.6815636363633
 30
0.0
 40
1.6868727272727269
  1
150
  7
OpenSans
 11
359.4
 21
202.6815636363633
 31
0.0
100
AcDbText
  0
TEXT
  5
3DF
330
17
100
AcDbEntity
  8
S-TABLE
100
AcDbText
 10
374.4
 20
202.6815636363633
 30
0.0
 40
1.6868727272727269
  1
21
  7
OpenSans
 11
374.4
 21
202.6815636363633
 31
0.0
100
AcDbText
  0
TEXT
  5
3E0
330
17
100
AcDbEntity
  8
S-TABLE
100
AcDbText
 10
389.4
 20
202.6815636363633
 30
0.0
 40
1.6868727272727269
  1
3925
  7
OpenSans
 11
389.4
 21
202.6815636363633
 31
0.0
100
AcDbText
  0
TEXT
  5
3E1
330
17
100
AcDbEntity
  8
S-TABLE
100
AcDbText
 10
406.4
 20
202.6815636363633
 30
0.0
 40
1.6868727272727269
  1
318
  7
OpenSans
 11
406.4
 21
202.6815636363633
 31
0.0
100
AcDbText
  0
LINE
  5
3E2
330
17
100
AcDbEntity
  8
S-TABLE
100
AcDbLine
 10
316.0
 20
201.42499999999967
 30
0.0
 11
425.0
 21
201.42499999999967
 31
0.0
  0
TEXT
  5
3E3
330
17
100
AcDbEntity
  8
S-TABLE
100
AcDbText
 10
317.4
 20
198.48156363636332
 30
0.0
 40
1.6868727272727269
  1
S03A
  7
OpenSans
 11
317.4
 21
198.48156363636332
 31
0.0
100
AcDbText
  0
TEXT
  5
3E4
330
17
100
AcDbEntity
  8
S-TABLE
100
AcDbText
 10
334.4
 20
198.48156363636332
 30
0.0
 40
1.6868727272727269
  1
T25
  7
OpenSans
 11
334.4
 21
198.48156363636332
 31
0.0
100
AcDbText
  0
TEXT
  5
3E5
330
17
100
AcDbEntity
  8
S-TABLE
100
AcDbText
 10
347.4
 20
198.48156363636332
 30
0.0
 40
1.6868727272727269
  1
00
  7
OpenSans
 11
347.4
 21
198.48156363636332
 31
0.0
100
AcDbText
  0
TEXT
  5
3E6
330
17
100
AcDbEntity
  8
S-TABLE
100
AcDbText
 10
359.4
 20
198.48156363636332
 30
0.0
 40
1.6868727272727269
  1
150
  7
OpenSans
 11
359.4
 21
198.48156363636332
 31
0.0
100
AcDbText
  0
TEXT
  5
3E7
330
17
100
AcDbEntity
  8
S-TABLE
100
AcDbText
 10
374.4
 20
198.48156363636332
 30
0.0
 40
1.6868727272727269
  1
127
  7
OpenSans
 11
374.4
 21
198.48156363636332
 31
0.0
100
AcDbText
  0
TEXT
  5
3E8
330
17
100
AcDbEntity
  8
S-TABLE
100
AcDbText
 10
389.4
 20
198.48156363636332
 30
0.0
 40
1.6868727272727269
  1
6050
  7
OpenSans
 11
389.4
 21
198.48156363636332
 31
0.0
100
AcDbText
  0
TEXT
  5
3E9
330
17
100
AcDbEntity
  8
S-TABLE
100
AcDbText
 10
406.4
 20
198.48156363636332
 30
0.0
 40
1.6868727272727269
  1
2961
  7
OpenSans
 11
406.4
 21
198.48156363636332
 31
0.0
100
AcDbText
  0
LINE
  5
3EA
330
17
100
AcDbEntity
  8
S-TABLE
100
AcDbLine
 10
316.0
 20
197.22499999999968
 30
0.0
 11
425.0
 21
197.22499999999968
 31
0.0
  0
TEXT
  5
3EB
330
17
100
AcDbEntity
  8
S-TABLE
100
AcDbText
 10
317.4
 20
194.28156363636333
 30
0.0
 40
1.6868727272727269
  1
S03B
  7
OpenSans
 11
317.4
 21
194.28156363636333
 31
0.0
100
AcDbText
  0
TEXT
  5
3EC
330
17
100
AcDbEntity
  8
S-TABLE
100
AcDbText
 10
334.4
 20
194.28156363636333
 30
0.0
 40
1.6868727272727269
  1
T25
  7
OpenSans
 11
334.4
 21
194.28156363636333
 31
0.0
100
AcDbText
  0
TEXT
  5
3ED
330
17
100
AcDbEntity
  8
S-TABLE
100
AcDbText
 10
347.4
 20
194.28156363636333
 30
0.0
 40
1.6868727272727269
  1
00
  7
OpenSans
 11
347.4
 21
194.28156363636333
 31
0.0
100
AcDbText
  0
TEXT
  5
3EE
330
17
100
AcDbEntity
  8
S-TABLE
100
AcDbText
 10
359.4
 20
194.28156363636333
 30
0.0
 40
1.6868727272727269
  1
150
  7
OpenSans
 11
359.4
 21
194.28156363636333
 31
0.0
100
AcDbText
  0
TEXT
  5
3EF
330
17
100
AcDbEntity
  8
S-TABLE
100
AcDbText
 10
374.4
 20
194.28156363636333
 30
0.0
 40
1.6868727272727269
  1
18
  7
OpenSans
 11
374.4
 21
194.28156363636333
 31
0.0
100
AcDbText
  0
TEXT
  5
3F0
330
17
100
AcDbEntity
  8
S-TABLE
100
AcDbText
 10
389.4
 20
194.28156363636333
 30
0.0
 40
1.6868727272727269
  1
2365
  7
OpenSans
 11
389.4
 21
194.28156363636333
 31
0.0
100
AcDbText
  0
TEXT
  5
3F1
330
17
100
AcDbEntity
  8
S-TABLE
100
AcDbText
 10
406.4
 20
194.28156363636333
 30
0.0
 40
1.6868727272727269
  1
164
  7
OpenSans
 11
406.4
 21
194.28156363636333
 31
0.0
100
AcDbText
  0
LINE
  5
3F2
330
17
100
AcDbEntity
  8
S-TABLE
100
AcDbLine
 10
316.0
 20
193.0249999999997
 30
0.0
 11
425.0
 21
193.0249999999997
 31
0.0
  0
TEXT
  5
3F3
330
17
100
AcDbEntity
  8
S-TABLE
100
AcDbText
 10
317.4
 20
190.08156363636334
 30
0.0
 40
1.6868727272727269
  1
S03C
  7
OpenSans
 11
317.4
 21
190.08156363636334
 31
0.0
100
AcDbText
  0
TEXT
  5
3F4
330
17
100
AcDbEntity
  8
S-TABLE
100
AcDbText
 10
334.4
 20
190.08156363636334
 30
0.0
 40
1.6868727272727269
  1
T25
  7
OpenSans
 11
334.4
 21
190.08156363636334
 31
0.0
100
AcDbText
  0
TEXT
  5
3F5
330
17
100
AcDbEntity
  8
S-TABLE
100
AcDbText
 10
347.4
 20
190.08156363636334
 30
0.0
 40
1.6868727272727269
  1
00
  7
OpenSans
 11
347.4
 21
190.08156363636334
 31
0.0
100
AcDbText
  0
TEXT
  5
3F6
330
17
100
AcDbEntity
  8
S-TABLE
100
AcDbText
 10
359.4
 20
190.08156363636334
 30
0.0
 40
1.6868727272727269
  1
150
  7
OpenSans
 11
359.4
 21
190.08156363636334
 31
0.0
100
AcDbText
  0
TEXT
  5
3F7
330
17
100
AcDbEntity
  8
S-TABLE
100
AcDbText
 10
374.4
 20
190.08156363636334
 30
0.0
 40
1.6868727272727269
  1
18
  7
OpenSans
 11
374.4
 21
190.08156363636334
 31
0.0
100
AcDbText
  0
TEXT
  5
3F8
330
17
100
AcDbEntity
  8
S-TABLE
100
AcDbText
 10
389.4
 20
190.08156363636334
 30
0.0
 40
1.6868727272727269
  1
525
  7
OpenSans
 11
389.4
 21
190.08156363636334
 31
0.0
100
AcDbText
  0
TEXT
  5
3F9
330
17
100
AcDbEntity
  8
S-TABLE
100
AcDbText
 10
406.4
 20
190.08156363636334
 30
0.0
 40
1.6868727272727269
  1
36
  7
OpenSans
 11
406.4
 21
190.08156363636334
 31
0.0
100
AcDbText
  0
LINE
  5
3FA
330
17
100
AcDbEntity
  8
S-TABLE
100
AcDbLine
 10
316.0
 20
188.8249999999997
 30
0.0
 11
425.0
 21
188.8249999999997
 31
0.0
  0
TEXT
  5
3FB
330
17
100
AcDbEntity
  8
S-TABLE
100
AcDbText
 10
317.4
 20
185.88156363636335
 30
0.0
 40
1.6868727272727269
  1
S04A
  7
OpenSans
 11
317.4
 21
185.88156363636335
 31
0.0
100
AcDbText
  0
TEXT
  5
3FC
330
17
100
AcDbEntity
  8
S-TABLE
100
AcDbText
 10
334.4
 20
185.88156363636335
 30
0.0
 40
1.6868727272727269
  1
T25
  7
OpenSans
 11
334.4
 21
185.88156363636335
 31
0.0
100
AcDbText
  0
TEXT
  5
3FD
330
17
100
AcDbEntity
  8
S-TABLE
100
AcDbText
 10
347.4
 20
185.88156363636335
 30
0.0
 40
1.6868727272727269
  1
00
  7
OpenSans
 11
347.4
 21
185.88156363636335
 31
0.0
100
AcDbText
  0
TEXT
  5
3FE
330
17
100
AcDbEntity
  8
S-TABLE
100
AcDbText
 10
359.4
 20
185.88156363636335
 30
0.0
 40
1.6868727272727269
  1
150
  7
OpenSans
 11
359.4
 21
185.88156363636335
 31
0.0
100
AcDbText
  0
TEXT
  5
3FF
330
17
100
AcDbEntity
  8
S-TABLE
100
AcDbText
 10
374.4
 20
185.88156363636335
 30
0.0
 40
1.6868727272727269
  1
40
  7
OpenSans
 11
374.4
 21
185.88156363636335
 31
0.0
100
AcDbText
  0
TEXT
  5
400
330
17
100
AcDbEntity
  8
S-TABLE
100
AcDbText
 10
389.4
 20
185.88156363636335
 30
0.0
 40
1.6868727272727269
  1
11550
  7
OpenSans
 11
389.4
 21
185.88156363636335
 31
0.0
100
AcDbText
  0
TEXT
  5
401
330
17
100
AcDbEntity
  8
S-TABLE
100
AcDbText
 10
406.4
 20
185.88156363636335
 30
0.0
 40
1.6868727272727269
  1
1780
  7
OpenSans
 11
406.4
 21
185.88156363636335
 31
0.0
100
AcDbText
  0
LINE
  5
402
330
17
100
AcDbEntity
  8
S-TABLE
100
AcDbLine
 10
316.0
 20
184.62499999999972
 30
0.0
 11
425.0
 21
184.62499999999972
 31
0.0
  0
TEXT
  5
403
330
17
100
AcDbEntity
  8
S-TABLE
100
AcDbText
 10
317.4
 20
181.68156363636336
 30
0.0
 40
1.6868727272727269
  1
S04B
  7
OpenSans
 11
317.4
 21
181.68156363636336
 31
0.0
100
AcDbText
  0
TEXT
  5
404
330
17
100
AcDbEntity
  8
S-TABLE
100
AcDbText
 10
334.4
 20
181.68156363636336
 30
0.0
 40
1.6868727272727269
  1
T25
  7
OpenSans
 11
334.4
 21
181.68156363636336
 31
0.0
100
AcDbText
  0
TEXT
  5
405
330
17
100
AcDbEntity
  8
S-TABLE
100
AcDbText
 10
347.4
 20
181.68156363636336
 30
0.0
 40
1.6868727272727269
  1
00
  7
OpenSans
 11
347.4
 21
181.68156363636336
 31
0.0
100
AcDbText
  0
TEXT
  5
406
330
17
100
AcDbEntity
  8
S-TABLE
100
AcDbText
 10
359.4
 20
181.68156363636336
 30
0.0
 40
1.6868727272727269
  1
150
  7
OpenSans
 11
359.4
 21
181.68156363636336
 31
0.0
100
AcDbText
  0
TEXT
  5
407
330
17
100
AcDbEntity
  8
S-TABLE
100
AcDbText
 10
374.4
 20
181.68156363636336
 30
0.0
 40
1.6868727272727269
  1
42
  7
OpenSans
 11
374.4
 21
181.68156363636336
 31
0.0
100
AcDbText
  0
TEXT
  5
408
330
17
100
AcDbEntity
  8
S-TABLE
100
AcDbText
 10
389.4
 20
181.68156363636336
 30
0.0
 40
1.6868727272727269
  1
8188
  7
OpenSans
 11
389.4
 21
181.68156363636336
 31
0.0
100
AcDbText
  0
TEXT
  5
409
330
17
100
AcDbEntity
  8
S-TABLE
100
AcDbText
 10
406.4
 20
181.68156363636336
 30
0.0
 40
1.6868727272727269
  1
1325
  7
OpenSans
 11
406.4
 21
181.68156363636336
 31
0.0
100
AcDbText
  0
LINE
  5
40A
330
17
100
AcDbEntity
  8
S-TABLE
100
AcDbLine
 10
316.0
 20
180.42499999999973
 30
0.0
 11
425.0
 21
180.42499999999973
 31
0.0
  0
TEXT
  5
40B
330
17
100
AcDbEntity
  8
S-TABLE
100
AcDbText
 10
317.4
 20
177.48156363636338
 30
0.0
 40
1.6868727272727269
  1
S04C
  7
OpenSans
 11
317.4
 21
177.48156363636338
 31
0.0
100
AcDbText
  0
TEXT
  5
40C
330
17
100
AcDbEntity
  8
S-TABLE
100
AcDbText
 10
334.4
 20
177.48156363636338
 30
0.0
 40
1.6868727272727269
  1
T25
  7
OpenSans
 11
334.4
 21
177.48156363636338
 31
0.0
100
AcDbText
  0
TEXT
  5
40D
330
17
100
AcDbEntity
  8
S-TABLE
100
AcDbText
 10
347.4
 20
177.48156363636338
 30
0.0
 40
1.6868727272727269
  1
00
  7
OpenSans
 11
347.4
 21
177.48156363636338
 31
0.0
100
AcDbText
  0
TEXT
  5
40E
330
17
100
AcDbEntity
  8
S-TABLE
100
AcDbText
 10
359.4
 20
177.48156363636338
 30
0.0
 40
1.6868727272727269
  1
150
  7
OpenSans
 11
359.4
 21
177.48156363636338
 31
0.0
100
AcDbText
  0
TEXT
  5
40F
330
17
100
AcDbEntity
  8
S-TABLE
100
AcDbText
 10
374.4
 20
177.48156363636338
 30
0.0
 40
1.6868727272727269
  1
21
  7
OpenSans
 11
374.4
 21
177.48156363636338
 31
0.0
100
AcDbText
  0
TEXT
  5
410
330
17
100
AcDbEntity
  8
S-TABLE
100
AcDbText
 10
389.4
 20
177.48156363636338
 30
0.0
 40
1.6868727272727269
  1
3925
  7
OpenSans
 11
389.4
 21
177.48156363636338
 31
0.0
100
AcDbText
  0
TEXT
  5
411
330
17
100
AcDbEntity
  8
S-TABLE
100
AcDbText
 10
406.4
 20
177.48156363636338
 30
0.0
 40
1.6868727272727269
  1
318
  7
OpenSans
 11
406.4
 21
177.48156363636338
 31
0.0
100
AcDbText
  0
LINE
  5
412
330
17
100
AcDbEntity
  8
S-TABLE
100
AcDbLine
 10
316.0
 20
176.22499999999974
 30
0.0
 11
425.0
 21
176.22499999999974
 31
0.0
  0
TEXT
  5
413
330
17
100
AcDbEntity
  8
S-TABLE
100
AcDbText
 10
317.4
 20
173.2815636363634
 30
0.0
 40
1.6868727272727269
  1
S05
  7
OpenSans
 11
317.4
 21
173.2815636363634
 31
0.0
100
AcDbText
  0
TEXT
  5
414
330
17
100
AcDbEntity
  8
S-TABLE
100
AcDbText
 10
334.4
 20
173.2815636363634
 30
0.0
 40
1.6868727272727269
  1
T12
  7
OpenSans
 11
334.4
 21
173.2815636363634
 31
0.0
100
AcDbText
  0
TEXT
  5
415
330
17
100
AcDbEntity
  8
S-TABLE
100
AcDbText
 10
347.4
 20
173.2815636363634
 30
0.0
 40
1.6868727272727269
  1
51
  7
OpenSans
 11
347.4
 21
173.2815636363634
 31
0.0
100
AcDbText
  0
TEXT
  5
416
330
17
100
AcDbEntity
  8
S-TABLE
100
AcDbText
 10
359.4
 20
173.2815636363634
 30
0.0
 40
1.6868727272727269
  1
250 x 250
  7
OpenSans
 11
359.4
 21
173.2815636363634
 31
0.0
100
AcDbText
  0
TEXT
  5
417
330
17
100
AcDbEntity
  8
S-TABLE
100
AcDbText
 10
374.4
 20
173.2815636363634
 30
0.0
 40
1.6868727272727269
  1
1848
  7
OpenSans
 11
374.4
 21
173.2815636363634
 31
0.0
100
AcDbText
  0
TEXT
  5
418
330
17
100
AcDbEntity
  8
S-TABLE
100
AcDbText
 10
389.4
 20
173.2815636363634
 30
0.0
 40
1.6868727272727269
  1
2040
  7
OpenSans
 11
389.4
 21
173.2815636363634
 31
0.0
100
AcDbText
  0
TEXT
  5
419
330
17
100
AcDbEntity
  8
S-TABLE
100
AcDbText
 10
406.4
 20
173.2815636363634
 30
0.0
 40
1.6868727272727269
  1
3347
  7
OpenSans
 11
406.4
 21
173.2815636363634
 31
0.0
100
AcDbText
  0
LINE
  5
41A
330
17
100
AcDbEntity
  8
S-TABLE
100
AcDbLine
 10
316.0
 20
172.02499999999975
 30
0.0
 11
425.0
 21
172.02499999999975
 31
0.0
  0
TEXT
  5
41B
330
17
100
AcDbEntity
  8
S-TABLE
100
AcDbText
 10
317.4
 20
169.0815636363634
 30
0.0
 40
1.6868727272727269
  1
S06
  7
OpenSans
 11
317.4
 21
169.0815636363634
 31
0.0
100
AcDbText
  0
TEXT
  5
41C
330
17
100
AcDbEntity
  8
S-TABLE
100
AcDbText
 10
334.4
 20
169.0815636363634
 30
0.0
 40
1.6868727272727269
  1
T12
  7
OpenSans
 11
334.4
 21
169.0815636363634
 31
0.0
100
AcDbText
  0
TEXT
  5
41D
330
17
100
AcDbEntity
  8
S-TABLE
100
AcDbText
 10
347.4
 20
169.0815636363634
 30
0.0
 40
1.6868727272727269
  1
51
  7
OpenSans
 11
347.4
 21
169.0815636363634
 31
0.0
100
AcDbText
  0
TEXT
  5
41E
330
17
100
AcDbEntity
  8
S-TABLE
100
AcDbText
 10
359.4
 20
169.0815636363634
 30
0.0
 40
1.6868727272727269
  1
300 x 300
  7
OpenSans
 11
359.4
 21
169.0815636363634
 31
0.0
100
AcDbText
  0
TEXT
  5
41F
330
17
100
AcDbEntity
  8
S-TABLE
100
AcDbText
 10
374.4
 20
169.0815636363634
 30
0.0
 40
1.6868727272727269
  1
384
  7
OpenSans
 11
374.4
 21
169.0815636363634
 31
0.0
100
AcDbText
  0
TEXT
  5
420
330
17
100
AcDbEntity
  8
S-TABLE
100
AcDbText
 10
389.4
 20
169.0815636363634
 30
0.0
 40
1.6868727272727269
  1
2040
  7
OpenSans
 11
389.4
 21
169.0815636363634
 31
0.0
100
AcDbText
  0
TEXT
  5
421
330
17
100
AcDbEntity
  8
S-TABLE
100
AcDbText
 10
406.4
 20
169.0815636363634
 30
0.0
 40
1.6868727272727269
  1
695
  7
OpenSans
 11
406.4
 21
169.0815636363634
 31
0.0
100
AcDbText
  0
LINE
  5
422
330
17
100
AcDbEntity
  8
S-TABLE
100
AcDbLine
 10
316.0
 20
167.82499999999976
 30
0.0
 11
425.0
 21
167.82499999999976
 31
0.0
  0
TEXT
  5
423
330
17
100
AcDbEntity
  8
S-TABLE
100
AcDbText
 10
317.4
 20
164.8815636363634
 30
0.0
 40
1.6868727272727269
  1
S07
  7
OpenSans
 11
317.4
 21
164.8815636363634
 31
0.0
100
AcDbText
  0
TEXT
  5
424
330
17
100
AcDbEntity
  8
S-TABLE
100
AcDbText
 10
334.4
 20
164.8815636363634
 30
0.0
 40
1.6868727272727269
  1
T12
  7
OpenSans
 11
334.4
 21
164.8815636363634
 31
0.0
100
AcDbText
  0
TEXT
  5
425
330
17
100
AcDbEntity
  8
S-TABLE
100
AcDbText
 10
347.4
 20
164.8815636363634
 30
0.0
 40
1.6868727272727269
  1
51
  7
OpenSans
 11
347.4
 21
164.8815636363634
 31
0.0
100
AcDbText
  0
TEXT
  5
426
330
17
100
AcDbEntity
  8
S-TABLE
100
AcDbText
 10
359.4
 20
164.8815636363634
 30
0.0
 40
1.6868727272727269
  1
250 x 250
  7
OpenSans
 11
359.4
 21
164.8815636363634
 31
0.0
100
AcDbText
  0
TEXT
  5
427
330
17
100
AcDbEntity
  8
S-TABLE
100
AcDbText
 10
374.4
 20
164.8815636363634
 30
0.0
 40
1.6868727272727269
  1
154
  7
OpenSans
 11
374.4
 21
164.8815636363634
 31
0.0
100
AcDbText
  0
TEXT
  5
428
330
17
100
AcDbEntity
  8
S-TABLE
100
AcDbText
 10
389.4
 20
164.8815636363634
 30
0.0
 40
1.6868727272727269
  1
2040
  7
OpenSans
 11
389.4
 21
164.8815636363634
 31
0.0
100
AcDbText
  0
TEXT
  5
429
330
17
100
AcDbEntity
  8
S-TABLE
100
AcDbText
 10
406.4
 20
164.8815636363634
 30
0.0
 40
1.6868727272727269
  1
279
  7
OpenSans
 11
406.4
 21
164.8815636363634
 31
0.0
100
AcDbText
  0
LINE
  5
42A
330
17
100
AcDbEntity
  8
S-TABLE
100
AcDbLine
 10
316.0
 20
163.62499999999977
 30
0.0
 11
425.0
 21
163.62499999999977
 31
0.0
  0
LINE
  5
42B
330
17
100
AcDbEntity
  8
S-TABLE
100
AcDbLine
 10
316.0
 20
226.6249999999996
 30
0.0
 11
425.0
 21
226.6249999999996
 31
0.0
  0
LINE
  5
42C
330
17
100
AcDbEntity
  8
S-TABLE
100
AcDbLine
 10
316.0
 20
226.6249999999996
 30
0.0
 11
316.0
 21
163.62499999999977
 31
0.0
  0
LINE
  5
42D
330
17
100
AcDbEntity
  8
S-TABLE
100
AcDbLine
 10
333.0
 20
226.6249999999996
 30
0.0
 11
333.0
 21
163.62499999999977
 31
0.0
  0
LINE
  5
42E
330
17
100
AcDbEntity
  8
S-TABLE
100
AcDbLine
 10
346.0
 20
226.6249999999996
 30
0.0
 11
346.0
 21
163.62499999999977
 31
0.0
  0
LINE
  5
42F
330
17
100
AcDbEntity
  8
S-TABLE
100
AcDbLine
 10
358.0
 20
226.6249999999996
 30
0.0
 11
358.0
 21
163.62499999999977
 31
0.0
  0
LINE
  5
430
330
17
100
AcDbEntity
  8
S-TABLE
100
AcDbLine
 10
373.0
 20
226.6249999999996
 30
0.0
 11
373.0
 21
163.62499999999977
 31
0.0
  0
LINE
  5
431
330
17
100
AcDbEntity
  8
S-TABLE
100
AcDbLine
 10
388.0
 20
226.6249999999996
 30
0.0
 11
388.0
 21
163.62499999999977
 31
0.0
  0
LINE
  5
432
330
17
100
AcDbEntity
  8
S-TABLE
100
AcDbLine
 10
405.0
 20
226.6249999999996
 30
0.0
 11
405.0
 21
163.62499999999977
 31
0.0
  0
LINE
  5
433
330
17
100
AcDbEntity
  8
S-TABLE
100
AcDbLine
 10
425.0
 20
226.6249999999996
 30
0.0
 11
425.0
 21
163.62499999999977
 31
0.0
  0
TEXT
  5
434
330
17
100
AcDbEntity
  8
S-TABLE
100
AcDbText
 10
316.0
 20
159.22499999999977
 30
0.0
 40
1.4
  1
SHEET SUB-TOTAL  17,453 kg     FULL SCHEDULE: R-004 and Structural CAD/Schedules/BBS_MASTER.md
  7
OpenSans
 11
316.0
 21
159.22499999999977
 31
0.0
100
AcDbText
  0
TEXT
  5
435
330
17
100
AcDbEntity
  8
S-TITLE
100
AcDbText
 10
650.0
 20
547.5
 30
0.0
 40
2.5
  1
THICKNESS STUDY - WHY 900 AND NOT 800
  7
OpenSans
 11
650.0
 21
547.5
 31
0.0
100
AcDbText
  0
TEXT
  5
436
330
17
100
AcDbEntity
  8
S-NOTE
100
AcDbText
 10
650.0
 20
543.375
 30
0.0
 40
2.0
  1
t     d      Mp     Ast,req  tau_v  VERDICT
  7
OpenSans
 11
650.0
 21
543.375
 31
0.0
100
AcDbText
  0
TEXT
  5
437
330
17
100
AcDbEntity
  8
S-NOTE
100
AcDbText
 10
650.0
 20
540.325
 30
0.0
 40
2.0
  1
600  512.5   689    2673     1.71   links at 164, congested
  7
OpenSans
 11
650.0
 21
540.325
 31
0.0
100
AcDbText
  0
TEXT
  5
438
330
17
100
AcDbEntity
  8
S-NOTE
100
AcDbText
 10
650.0
 20
537.2750000000001
 30
0.0
 40
2.0
  1
800  712.5   696    1868     1.12   structural optimum
  7
OpenSans
 11
650.0
 21
537.2750000000001
 31
0.0
100
AcDbText
  0
TEXT
  5
439
330
17
100
AcDbEntity
  8
S-NOTE
100
AcDbText
 10
650.0
 20
534.2250000000001
 30
0.0
 40
2.0
  1
900  812.5   700    1633     0.93   ADOPTED
  7
OpenSans
 11
650.0
 21
534.2250000000001
 31
0.0
100
AcDbText
  0
TEXT
  5
43A
330
17
100
AcDbEntity
  8
S-NOTE
100
AcDbText
 10
650.0
 20
531.1750000000002
 30
0.0
 40
2.0
  1
1000 912.5   704    1453     0.78   11 % over
  7
OpenSans
 11
650.0
 21
531.1750000000002
 31
0.0
100
AcDbText
  0
TEXT
  5
43B
330
17
100
AcDbEntity
  8
S-NOTE
100
AcDbText
 10
650.0
 20
525.0750000000003
 30
0.0
 40
2.0
  1
900 IS NOT THE STRUCTURAL OPTIMUM.  It is adopted for:
  7
OpenSans
 11
650.0
 21
525.0750000000003
 31
0.0
100
AcDbText
  0
TEXT
  5
43C
330
17
100
AcDbEntity
  8
S-NOTE
100
AcDbText
 10
650.0
 20
522.0250000000003
 30
0.0
 40
2.0
  1
(a)  reserve at the two 1400 dia collars
  7
OpenSans
 11
650.0
 21
522.0250000000003
 31
0.0
100
AcDbText
  0
TEXT
  5
43D
330
17
100
AcDbEntity
  8
S-NOTE
100
AcDbText
 10
650.0
 20
518.9750000000004
 30
0.0
 40
2.0
  1
(b)  headroom against a raised design basis threat while the
  7
OpenSans
 11
650.0
 21
518.9750000000004
 31
0.0
100
AcDbText
  0
TEXT
  5
43E
330
17
100
AcDbEntity
  8
S-NOTE
100
AcDbText
 10
650.0
 20
515.9250000000004
 30
0.0
 40
2.0
  1
     DBT YIELD IS [UNRESOLVED - U3]
  7
OpenSans
 11
650.0
 21
515.9250000000004
 31
0.0
100
AcDbText
  0
TEXT
  5
43F
330
17
100
AcDbEntity
  8
S-NOTE
100
AcDbText
 10
650.0
 20
512.8750000000005
 30
0.0
 40
2.0
  1
(c)  support rotation inside 2 deg without UFC lacing
  7
OpenSans
 11
650.0
 21
512.8750000000005
 31
0.0
100
AcDbText
  0
TEXT
  5
440
330
17
100
AcDbEntity
  8
S-NOTE
100
AcDbText
 10
650.0
 20
506.77500000000043
 30
0.0
 40
2.0
  1
*** C17 OPEN ***  The engineered cover is stated as 40.65 kPa
  7
OpenSans
 11
650.0
 21
506.77500000000043
 31
0.0
100
AcDbText
  0
TEXT
  5
441
330
17
100
AcDbEntity
  8
S-NOTE
100
AcDbText
 10
650.0
 20
503.7250000000004
 30
0.0
 40
2.0
  1
in master A.7.3, A.7.4, Part L and in every .std file, but the
  7
OpenSans
 11
650.0
 21
503.7250000000004
 31
0.0
100
AcDbText
  0
TEXT
  5
442
330
17
100
AcDbEntity
  8
S-NOTE
100
AcDbText
 10
650.0
 20
500.6750000000004
 30
0.0
 40
2.0
  1
A.7.3 column itself sums to 39.15 kPa - a 1.50 kPa difference.
  7
OpenSans
 11
650.0
 21
500.6750000000004
 31
0.0
100
AcDbText
  0
TEXT
  5
443
330
17
100
AcDbEntity
  8
S-NOTE
100
AcDbText
 10
650.0
 20
497.6250000000004
 30
0.0
 40
2.0
  1
40.65 IS HELD because it is the larger value and the value of
  7
OpenSans
 11
650.0
 21
497.6250000000004
 31
0.0
100
AcDbText
  0
TEXT
  5
444
330
17
100
AcDbEntity
  8
S-NOTE
100
AcDbText
 10
650.0
 20
494.5750000000004
 30
0.0
 40
2.0
  1
record.  At 39.15 the roof total would be 446.65 kPa, Mp 697.9
  7
OpenSans
 11
650.0
 21
494.5750000000004
 31
0.0
100
AcDbText
  0
TEXT
  5
445
330
17
100
AcDbEntity
  8
S-NOTE
100
AcDbText
 10
650.0
 20
491.5250000000004
 30
0.0
 40
2.0
  1
and utilisation 51.2 % instead of 51.4 %.  NO BAR CHANGES.
  7
OpenSans
 11
650.0
 21
491.5250000000004
 31
0.0
100
AcDbText
  0
TEXT
  5
446
330
17
100
AcDbEntity
  8
S-NOTE
100
AcDbText
 10
650.0
 20
488.47500000000036
 30
0.0
 40
2.0
  1
RAISED BY THIS PACKAGE.  NOT CLOSED - user ruling required.
  7
OpenSans
 11
650.0
 21
488.47500000000036
 31
0.0
100
AcDbText
  0
LWPOLYLINE
  5
447
330
17
100
AcDbEntity
  8
S-TITLE
100
AcDbPolyline
 90
4
 70
1
 10
648.0
 20
483.42500000000035
 10
831.0
 20
483.42500000000035
 10
831.0
 20
552.0
 10
648.0
 20
552.0
  0
TEXT
  5
448
330
17
100
AcDbEntity
  8
S-TITLE
100
AcDbText
 10
650.0
 20
375.5
 30
0.0
 40
2.5
  1
ROOF OPENING REGISTER
  7
OpenSans
 11
650.0
 21
375.5
 31
0.0
100
AcDbText
  0
TEXT
  5
449
330
17
100
AcDbEntity
  8
S-NOTE
100
AcDbText
 10
650.0
 20
371.375
 30
0.0
 40
2.0
  1
ESC 1    1400 dia   centre (2 050, 2 050)
  7
OpenSans
 11
650.0
 21
371.375
 31
0.0
100
AcDbText
  0
TEXT
  5
44A
330
17
100
AcDbEntity
  8
S-NOTE
100
AcDbText
 10
650.0
 20
368.325
 30
0.0
 40
2.0
  1
ESC 2    1400 dia   centre (19 900, 2 050)  post-M1
  7
OpenSans
 11
650.0
 21
368.325
 31
0.0
100
AcDbText
  0
TEXT
  5
44B
330
17
100
AcDbEntity
  8
S-NOTE
100
AcDbText
 10
650.0
 20
365.275
 30
0.0
 40
2.0
  1
STAIR VOID  2800 x 3160   X 15200-18000, Y 600-3760
  7
OpenSans
 11
650.0
 21
365.275
 31
0.0
100
AcDbText
  0
TEXT
  5
44C
330
17
100
AcDbEntity
  8
S-NOTE
100
AcDbText
 10
650.0
 20
362.22499999999997
 30
0.0
 40
2.0
  1
  leaving a 2800 x 1840 CANTILEVER PAD
  7
OpenSans
 11
650.0
 21
362.22499999999997
 31
0.0
100
AcDbText
  0
TEXT
  5
44D
330
17
100
AcDbEntity
  8
S-NOTE
100
AcDbText
 10
650.0
 20
359.17499999999995
 30
0.0
 40
2.0
  1
NO OTHER OPENING PIERCES THE PRESSURE SLAB.
  7
OpenSans
 11
650.0
 21
359.17499999999995
 31
0.0
100
AcDbText
  0
TEXT
  5
44E
330
17
100
AcDbEntity
  8
S-NOTE
100
AcDbText
 10
650.0
 20
353.07499999999993
 30
0.0
 40
2.0
  1
THE 750 mm CLEARANCE RULE - opening edge to structural
  7
OpenSans
 11
650.0
 21
353.07499999999993
 31
0.0
100
AcDbText
  0
TEXT
  5
44F
330
17
100
AcDbEntity
  8
S-NOTE
100
AcDbText
 10
650.0
 20
350.0249999999999
 30
0.0
 40
2.0
  1
wall face:  250 collar + ~400 trimmer band + 100 tolerance.
  7
OpenSans
 11
650.0
 21
350.0249999999999
 31
0.0
100
AcDbText
  0
TEXT
  5
450
330
17
100
AcDbEntity
  8
S-NOTE
100
AcDbText
 10
650.0
 20
346.9749999999999
 30
0.0
 40
2.0
  1
A BAY MUST THEREFORE BE AT LEAST 1400 + 2 x 750 = 2900 mm
  7
OpenSans
 11
650.0
 21
346.9749999999999
 31
0.0
100
AcDbText
  0
TEXT
  5
451
330
17
100
AcDbEntity
  8
S-NOTE
100
AcDbText
 10
650.0
 20
343.9249999999999
 30
0.0
 40
2.0
  1
WIDE TO HOLD AN ESCAPE SHAFT.  This rule drove the Rev C
  7
OpenSans
 11
650.0
 21
343.9249999999999
 31
0.0
100
AcDbText
  0
TEXT
  5
452
330
17
100
AcDbEntity
  8
S-NOTE
100
AcDbText
 10
650.0
 20
340.8749999999999
 30
0.0
 40
2.0
  1
lengthening and IS WHY MODIFICATION M1 COULD NOT TAKE
  7
OpenSans
 11
650.0
 21
340.8749999999999
 31
0.0
100
AcDbText
  0
TEXT
  5
453
330
17
100
AcDbEntity
  8
S-NOTE
100
AcDbText
 10
650.0
 20
337.8249999999999
 30
0.0
 40
2.0
  1
400 mm OUT OF BAY 8.  M1 improved ESC 2 to headhouse
  7
OpenSans
 11
650.0
 21
337.8249999999999
 31
0.0
100
AcDbText
  0
TEXT
  5
454
330
17
100
AcDbEntity
  8
S-NOTE
100
AcDbText
 10
650.0
 20
334.77499999999986
 30
0.0
 40
2.0
  1
clearance from 350 to 550.
  7
OpenSans
 11
650.0
 21
334.77499999999986
 31
0.0
100
AcDbText
  0
TEXT
  5
455
330
17
100
AcDbEntity
  8
S-NOTE
100
AcDbText
 10
650.0
 20
328.67499999999984
 30
0.0
 40
2.0
  1
SERVICE PENETRATIONS - blast valves x5, the service-entry
  7
OpenSans
 11
650.0
 21
328.67499999999984
 31
0.0
100
AcDbText
  0
TEXT
  5
456
330
17
100
AcDbEntity
  8
S-NOTE
100
AcDbText
 10
650.0
 20
325.62499999999983
 30
0.0
 40
2.0
  1
plate and the CBRN ducts - ARE NOT DESIGNED IN THE PROJECT
  7
OpenSans
 11
650.0
 21
325.62499999999983
 31
0.0
100
AcDbText
  0
TEXT
  5
457
330
17
100
AcDbEntity
  8
S-NOTE
100
AcDbText
 10
650.0
 20
322.5749999999998
 30
0.0
 40
2.0
  1
RECORD and are NOT fabricated here.  Generic trimming rule
  7
OpenSans
 11
650.0
 21
322.5749999999998
 31
0.0
100
AcDbText
  0
TEXT
  5
458
330
17
100
AcDbEntity
  8
S-NOTE
100
AcDbText
 10
650.0
 20
319.5249999999998
 30
0.0
 40
2.0
  1
on R-003 detail D2.  Reported NOT DETERMINABLE.
  7
OpenSans
 11
650.0
 21
319.5249999999998
 31
0.0
100
AcDbText
  0
LWPOLYLINE
  5
459
330
17
100
AcDbEntity
  8
S-TITLE
100
AcDbPolyline
 90
4
 70
1
 10
648.0
 20
314.4749999999998
 10
831.0
 20
314.4749999999998
 10
831.0
 20
380.0
 10
648.0
 20
380.0
  0
TEXT
  5
45A
330
17
100
AcDbEntity
  8
S-TITLE
100
AcDbText
 10
32.0
 20
121.5
 30
0.0
 40
2.5
  1
PRESSURE SLAB - THE SINGLE MOST IMPORTANT STRUCTURAL FACT
  7
OpenSans
 11
32.0
 21
121.5
 31
0.0
100
AcDbText
  0
TEXT
  5
45B
330
17
100
AcDbEntity
  8
S-NOTE
100
AcDbText
 10
32.0
 20
117.375
 30
0.0
 40
2.0
  1
THE ROOF SPANS ONE-WAY ACROSS THE 5 000 mm INTERNAL WIDTH.  The aspect ratio is
  7
OpenSans
 11
32.0
 21
117.375
 31
0.0
100
AcDbText
  0
TEXT
  5
45C
330
17
100
AcDbEntity
  8
S-NOTE
100
AcDbText
 10
32.0
 20
114.325
 30
0.0
 40
2.0
  1
20.8 / 5.0 = 4.2, and IS 456 Table 26 is tabulated only to ly/lx = 2.0, so two-way
  7
OpenSans
 11
32.0
 21
114.325
 31
0.0
100
AcDbText
  0
TEXT
  5
45D
330
17
100
AcDbEntity
  8
S-NOTE
100
AcDbText
 10
32.0
 20
111.275
 30
0.0
 40
2.0
  1
action cannot be claimed.  Mp therefore depends on the 5 000 width ALONE.
  7
OpenSans
 11
32.0
 21
111.275
 31
0.0
100
AcDbText
  0
TEXT
  5
45E
330
17
100
AcDbEntity
  8
S-NOTE
100
AcDbText
 10
32.0
 20
105.17500000000001
 30
0.0
 40
2.0
  1
CONSEQUENCE 1 - LENGTHENING THE BOX IS STRUCTURALLY FREE.  This is what made
  7
OpenSans
 11
32.0
 21
105.17500000000001
 31
0.0
100
AcDbText
  0
TEXT
  5
45F
330
17
100
AcDbEntity
  8
S-NOTE
100
AcDbText
 10
32.0
 20
102.12500000000001
 30
0.0
 40
2.0
  1
MODIFICATION M1 affordable: the box grew 21 600 -> 22 000 and not one bar in the
  7
OpenSans
 11
32.0
 21
102.12500000000001
 31
0.0
100
AcDbText
  0
TEXT
  5
460
330
17
100
AcDbEntity
  8
S-NOTE
100
AcDbText
 10
32.0
 20
99.07500000000002
 30
0.0
 40
2.0
  1
roof changed.
  7
OpenSans
 11
32.0
 21
99.07500000000002
 31
0.0
100
AcDbText
  0
TEXT
  5
461
330
17
100
AcDbEntity
  8
S-NOTE
100
AcDbText
 10
32.0
 20
96.02500000000002
 30
0.0
 40
2.0
  1
CONSEQUENCE 2 - WIDENING IS EXPENSIVE.  Going from 5.0 m to 6.0 m internal width
  7
OpenSans
 11
32.0
 21
96.02500000000002
 31
0.0
100
AcDbText
  0
TEXT
  5
462
330
17
100
AcDbEntity
  8
S-NOTE
100
AcDbText
 10
32.0
 20
92.97500000000002
 30
0.0
 40
2.0
  1
would raise the roof moment by 44 % and would re-open the 900 mm thickness, the
  7
OpenSans
 11
32.0
 21
92.97500000000002
 31
0.0
100
AcDbText
  0
TEXT
  5
463
330
17
100
AcDbEntity
  8
S-NOTE
100
AcDbText
 10
32.0
 20
89.92500000000003
 30
0.0
 40
2.0
  1
T25 @ 150 arrangement and the link zones together.
  7
OpenSans
 11
32.0
 21
89.92500000000003
 31
0.0
100
AcDbText
  0
TEXT
  5
464
330
17
100
AcDbEntity
  8
S-NOTE
100
AcDbText
 10
32.0
 20
83.82500000000003
 30
0.0
 40
2.0
  1
PRESERVE THIS.  Any future request to widen the shelter is a request to redesign
  7
OpenSans
 11
32.0
 21
83.82500000000003
 31
0.0
100
AcDbText
  0
TEXT
  5
465
330
17
100
AcDbEntity
  8
S-NOTE
100
AcDbText
 10
32.0
 20
80.77500000000003
 30
0.0
 40
2.0
  1
the pressure slab, the walls that carry it and the mat beneath it.
  7
OpenSans
 11
32.0
 21
80.77500000000003
 31
0.0
100
AcDbText
  0
LWPOLYLINE
  5
466
330
17
100
AcDbEntity
  8
S-TITLE
100
AcDbPolyline
 90
4
 70
1
 10
30.0
 20
75.72500000000004
 10
630.0
 20
75.72500000000004
 10
630.0
 20
126.0
 10
30.0
 20
126.0
  0
LWPOLYLINE
  5
467
330
17
100
AcDbEntity
  8
S-TITLE
100
AcDbPolyline
 90
4
 70
1
 10
651.0
 20
10.0
 10
831.0
 20
10.0
 10
831.0
 20
110.0
 10
651.0
 20
110.0
  0
LINE
  5
468
330
17
100
AcDbEntity
  8
S-TITLE
100
AcDbLine
 10
651.0
 20
30.0
 30
0.0
 11
831.0
 21
30.0
 31
0.0
  0
LINE
  5
469
330
17
100
AcDbEntity
  8
S-TITLE
100
AcDbLine
 10
651.0
 20
42.0
 30
0.0
 11
831.0
 21
42.0
 31
0.0
  0
LINE
  5
46A
330
17
100
AcDbEntity
  8
S-TITLE
100
AcDbLine
 10
651.0
 20
54.0
 30
0.0
 11
831.0
 21
54.0
 31
0.0
  0
LINE
  5
46B
330
17
100
AcDbEntity
  8
S-TITLE
100
AcDbLine
 10
651.0
 20
66.0
 30
0.0
 11
831.0
 21
66.0
 31
0.0
  0
LINE
  5
46C
330
17
100
AcDbEntity
  8
S-TITLE
100
AcDbLine
 10
651.0
 20
88.0
 30
0.0
 11
831.0
 21
88.0
 31
0.0
  0
LINE
  5
46D
330
17
100
AcDbEntity
  8
S-TITLE
100
AcDbLine
 10
763.0
 20
10.0
 30
0.0
 11
763.0
 21
30.0
 31
0.0
  0
LINE
  5
46E
330
17
100
AcDbEntity
  8
S-TITLE
100
AcDbLine
 10
797.0
 20
10.0
 30
0.0
 11
797.0
 21
30.0
 31
0.0
  0
TEXT
  5
46F
330
17
100
AcDbEntity
  8
S-TITLE
100
AcDbText
 10
653.0
 20
24.6
 30
0.0
 40
1.4
  1
DRAWING No.
  7
OpenSans
 11
653.0
 21
24.6
 31
0.0
100
AcDbText
  0
TEXT
  5
470
330
17
100
AcDbEntity
  8
S-TITLE
100
AcDbText
 10
673.0
 20
14.2
 30
0.0
 40
3.5
  1
R-301
  7
OpenSans
 11
673.0
 21
14.2
 31
0.0
100
AcDbText
  0
TEXT
  5
471
330
17
100
AcDbEntity
  8
S-TITLE
100
AcDbText
 10
765.0
 20
24.6
 30
0.0
 40
1.4
  1
REV
  7
OpenSans
 11
765.0
 21
24.6
 31
0.0
100
AcDbText
  0
TEXT
  5
472
330
17
100
AcDbEntity
  8
S-TITLE
100
AcDbText
 10
769.0
 20
14.2
 30
0.0
 40
3.5
  1
SC1
  7
OpenSans
 11
769.0
 21
14.2
 31
0.0
100
AcDbText
  0
TEXT
  5
473
330
17
100
AcDbEntity
  8
S-TITLE
100
AcDbText
 10
799.0
 20
24.6
 30
0.0
 40
1.4
  1
SHEET
  7
OpenSans
 11
799.0
 21
24.6
 31
0.0
100
AcDbText
  0
TEXT
  5
474
330
17
100
AcDbEntity
  8
S-TITLE
100
AcDbText
 10
799.0
 20
15.0
 30
0.0
 40
1.6
  1
13 OF 30
  7
OpenSans
 11
799.0
 21
15.0
 31
0.0
100
AcDbText
  0
LINE
  5
475
330
17
100
AcDbEntity
  8
S-TITLE
100
AcDbLine
 10
747.0
 20
30.0
 30
0.0
 11
747.0
 21
42.0
 31
0.0
  0
TEXT
  5
476
330
17
100
AcDbEntity
  8
S-TITLE
100
AcDbText
 10
653.0
 20
34.4
 30
0.0
 40
1.6
  1
SCALE   1:50
  7
OpenSans
 11
653.0
 21
34.4
 31
0.0
100
AcDbText
  0
TEXT
  5
477
330
17
100
AcDbEntity
  8
S-TITLE
100
AcDbText
 10
749.0
 20
34.4
 30
0.0
 40
1.6
  1
DATE   04.09.2026
  7
OpenSans
 11
749.0
 21
34.4
 31
0.0
100
AcDbText
  0
TEXT
  5
478
330
17
100
AcDbEntity
  8
S-TITLE
100
AcDbText
 10
653.0
 20
46.4
 30
0.0
 40
1.4
  1
DESIGNED  [PLACEHOLDER]
  7
OpenSans
 11
653.0
 21
46.4
 31
0.0
100
AcDbText
  0
TEXT
  5
479
330
17
100
AcDbEntity
  8
S-TITLE
100
AcDbText
 10
713.0
 20
46.4
 30
0.0
 40
1.4
  1
CHECKED  [PLACEHOLDER]
  7
OpenSans
 11
713.0
 21
46.4
 31
0.0
100
AcDbText
  0
TEXT
  5
47A
330
17
100
AcDbEntity
  8
S-TITLE
100
AcDbText
 10
773.0
 20
46.4
 30
0.0
 40
1.4
  1
APPROVED  [PLACEHOLDER]
  7
OpenSans
 11
773.0
 21
46.4
 31
0.0
100
AcDbText
  0
TEXT
  5
47B
330
17
100
AcDbEntity
  8
S-TITLE
100
AcDbText
 10
653.0
 20
58.4
 30
0.0
 40
1.4
  1
STATUS
  7
OpenSans
 11
653.0
 21
58.4
 31
0.0
100
AcDbText
  0
TEXT
  5
47C
330
17
100
AcDbEntity
  8
S-BLAST
100
AcDbText
 10
673.0
 20
58.0
 30
0.0
 40
1.6
  1
FOR REVIEW - NOT FOR CONSTRUCTION
  7
OpenSans
 11
673.0
 21
58.0
 31
0.0
100
AcDbText
  0
TEXT
  5
47D
330
17
100
AcDbEntity
  8
S-TITLE
100
AcDbText
 10
653.0
 20
83.4
 30
0.0
 40
1.4
  1
DRAWING TITLE
  7
OpenSans
 11
653.0
 21
83.4
 31
0.0
100
AcDbText
  0
TEXT
  5
47E
330
17
100
AcDbEntity
  8
S-TITLE
100
AcDbText
 10
653.0
 20
75.4
 30
0.0
 40
2.4
  1
ROOF / PRESSURE SLAB REINFORCEMENT PLAN
  7
OpenSans
 11
653.0
 21
75.4
 31
0.0
100
AcDbText
  0
TEXT
  5
47F
330
17
100
AcDbEntity
  8
S-TITLE
100
AcDbText
 10
653.0
 20
68.8
 30
0.0
 40
1.4
  1
900 THK · T25 @ 150 EF EW · THE GOVERNING ELEMENT
  7
OpenSans
 11
653.0
 21
68.8
 31
0.0
100
AcDbText
  0
TEXT
  5
480
330
17
100
AcDbEntity
  8
S-TITLE
100
AcDbText
 10
653.0
 20
105.2
 30
0.0
 40
1.4
  1
PROJECT
  7
OpenSans
 11
653.0
 21
105.2
 31
0.0
100
AcDbText
  0
TEXT
  5
481
330
17
100
AcDbEntity
  8
S-TITLE
100
AcDbText
 10
653.0
 20
99.6
 30
0.0
 40
1.6
  1
UNDERGROUND CBRN-HARDENED BLAST-RESISTANT
  7
OpenSans
 11
653.0
 21
99.6
 31
0.0
100
AcDbText
  0
TEXT
  5
482
330
17
100
AcDbEntity
  8
S-TITLE
100
AcDbText
 10
653.0
 20
95.0
 30
0.0
 40
1.6
  1
PROTECTIVE STRUCTURE  -  PUNE, MAHARASHTRA
  7
OpenSans
 11
653.0
 21
95.0
 31
0.0
100
AcDbText
  0
TEXT
  5
483
330
17
100
AcDbEntity
  8
S-TITLE
100
AcDbText
 10
653.0
 20
90.0
 30
0.0
 40
1.4
  1
STRUCTURAL PHASE 2 REV A + M1   ·   SENTRY POST NOT IN THIS PACKAGE
  7
OpenSans
 11
653.0
 21
90.0
 31
0.0
100
AcDbText
  0
ENDSEC
  0
SECTION
  2
OBJECTS
  0
DICTIONARY
  5
A
330
0
100
AcDbDictionary
281
1
  3
ACAD_COLOR
350
B
  3
ACAD_GROUP
350
C
  3
ACAD_LAYOUT
350
D
  3
ACAD_MATERIAL
350
E
  3
ACAD_MLEADERSTYLE
350
F
  3
ACAD_MLINESTYLE
350
10
  3
ACAD_PLOTSETTINGS
350
11
  3
ACAD_PLOTSTYLENAME
350
12
  3
ACAD_SCALELIST
350
14
  3
ACAD_TABLESTYLE
350
15
  3
ACAD_VISUALSTYLE
350
16
  3
EZDXF_META
350
2D
  0
DICTIONARY
  5
B
330
A
100
AcDbDictionary
281
1
  0
DICTIONARY
  5
C
330
A
100
AcDbDictionary
281
1
  0
DICTIONARY
  5
D
330
A
100
AcDbDictionary
281
1
  3
Model
350
1A
  3
Layout1
350
1E
  0
DICTIONARY
  5
E
330
A
100
AcDbDictionary
281
1
  3
ByBlock
350
1F
  3
ByLayer
350
20
  3
Global
350
21
  0
DICTIONARY
  5
F
330
A
100
AcDbDictionary
281
1
  3
Standard
350
2C
  0
DICTIONARY
  5
10
330
A
100
AcDbDictionary
281
1
  3
Standard
350
22
  0
DICTIONARY
  5
11
330
A
100
AcDbDictionary
281
1
  0
ACDBDICTIONARYWDFLT
  5
12
330
A
100
AcDbDictionary
281
1
  3
Normal
350
13
100
AcDbDictionaryWithDefault
340
13
  0
ACDBPLACEHOLDER
  5
13
330
12
  0
DICTIONARY
  5
14
330
A
100
AcDbDictionary
281
1
  0
DICTIONARY
  5
15
330
A
100
AcDbDictionary
281
1
  0
DICTIONARY
  5
16
330
A
100
AcDbDictionary
281
1
  3
2dWireframe
350
5A
  3
Basic
350
5B
  3
Brighten
350
5C
  3
ColorChange
350
5D
  3
Conceptual
350
5E
  3
Dim
350
5F
  3
EdgeColorOff
350
60
  3
Facepattern
350
61
  3
Flat
350
62
  3
FlatWithEdges
350
63
  3
Gouraud
350
64
  3
GouraudWithEdges
350
65
  3
Hidden
350
66
  3
JitterOff
350
67
  3
Linepattern
350
68
  3
Modeling
350
69
  3
OverhangOff
350
6A
  3
Realistic
350
6B
  3
Shaded
350
6C
  3
Shaded with edges
350
6D
  3
Shades of Gray
350
6E
  3
Sketchy
350
6F
  3
Thicken
350
70
  3
Wireframe
350
71
  3
X-Ray
350
72
  0
LAYOUT
  5
1A
330
D
100
AcDbPlotSettings
  1

  4
A3
  6

 40
7.5
 41
20.0
 42
7.5
 43
20.0
 44
420.0
 45
297.0
 46
0.0
 47
0.0
 48
0.0
 49
0.0
140
0.0
141
0.0
142
1.0
143
1.0
 70
1024
 72
1
 73
0
 74
5
  7

 75
16
 76
0
 77
2
 78
300
147
1.0
148
0.0
149
0.0
100
AcDbLayout
  1
Model
 70
1
 71
0
 10
0.0
 20
0.0
 11
420.0
 21
297.0
 12
0.0
 22
0.0
 32
0.0
 14
1e+20
 24
1e+20
 34
1e+20
 15
-1e+20
 25
-1e+20
 35
-1e+20
146
0.0
 13
0.0
 23
0.0
 33
0.0
 16
1.0
 26
0.0
 36
0.0
 17
0.0
 27
1.0
 37
0.0
 76
1
330
17
  0
LAYOUT
  5
1E
330
D
100
AcDbPlotSettings
  1

  4
A3
  6

 40
7.5
 41
20.0
 42
7.5
 43
20.0
 44
420.0
 45
297.0
 46
0.0
 47
0.0
 48
0.0
 49
0.0
140
0.0
141
0.0
142
1.0
143
1.0
 70
0
 72
1
 73
0
 74
5
  7

 75
16
 76
0
 77
2
 78
300
147
1.0
148
0.0
149
0.0
100
AcDbLayout
  1
Layout1
 70
1
 71
1
 10
0.0
 20
0.0
 11
420.0
 21
297.0
 12
0.0
 22
0.0
 32
0.0
 14
1e+20
 24
1e+20
 34
1e+20
 15
-1e+20
 25
-1e+20
 35
-1e+20
146
0.0
 13
0.0
 23
0.0
 33
0.0
 16
1.0
 26
0.0
 36
0.0
 17
0.0
 27
1.0
 37
0.0
 76
1
330
1B
  0
MATERIAL
  5
1F
102
{ACAD_REACTORS
330
E
102
}
330
E
100
AcDbMaterial
  1
ByBlock
  2

 70
0
 40
1.0
 71
1
 41
1.0
 91
-1023410177
 42
1.0
 72
1
  3

 73
1
 74
1
 75
1
 44
0.5
 73
0
 45
1.0
 46
1.0
 77
1
  4

 78
1
 79
1
170
1
 48
1.0
171
1
  6

172
1
173
1
174
1
140
1.0
141
1.0
175
1
  7

176
1
177
1
178
1
143
1.0
179
1
  8

270
1
271
1
272
1
145
1.0
146
1.0
273
1
  9

274
1
275
1
276
1
 42
1.0
 72
1
  3

 73
1
 74
1
 75
1
 94
63
  0
MATERIAL
  5
20
102
{ACAD_REACTORS
330
E
102
}
330
E
100
AcDbMaterial
  1
ByLayer
  2

 70
0
 40
1.0
 71
1
 41
1.0
 91
-1023410177
 42
1.0
 72
1
  3

 73
1
 74
1
 75
1
 44
0.5
 73
0
 45
1.0
 46
1.0
 77
1
  4

 78
1
 79
1
170
1
 48
1.0
171
1
  6

172
1
173
1
174
1
140
1.0
141
1.0
175
1
  7

176
1
177
1
178
1
143
1.0
179
1
  8

270
1
271
1
272
1
145
1.0
146
1.0
273
1
  9

274
1
275
1
276
1
 42
1.0
 72
1
  3

 73
1
 74
1
 75
1
 94
63
  0
MATERIAL
  5
21
102
{ACAD_REACTORS
330
E
102
}
330
E
100
AcDbMaterial
  1
Global
  2

 70
0
 40
1.0
 71
1
 41
1.0
 91
-1023410177
 42
1.0
 72
1
  3

 73
1
 74
1
 75
1
 44
0.5
 73
0
 45
1.0
 46
1.0
 77
1
  4

 78
1
 79
1
170
1
 48
1.0
171
1
  6

172
1
173
1
174
1
140
1.0
141
1.0
175
1
  7

176
1
177
1
178
1
143
1.0
179
1
  8

270
1
271
1
272
1
145
1.0
146
1.0
273
1
  9

274
1
275
1
276
1
 42
1.0
 72
1
  3

 73
1
 74
1
 75
1
 94
63
  0
MLINESTYLE
  5
22
102
{ACAD_REACTORS
330
10
102
}
330
10
100
AcDbMlineStyle
  2
Standard
 70
0
  3

 62
256
 51
90.0
 52
90.0
 71
2
 49
0.5
 62
256
  6
BYLAYER
 49
-0.5
 62
256
  6
BYLAYER
  0
MLEADERSTYLE
  5
2C
102
{ACAD_REACTORS
330
F
102
}
330
F
100
AcDbMLeaderStyle
179
2
170
2
171
1
172
0
 90
2
 40
0.0
 41
0.0
173
1
 91
-1056964608
 92
-2
290
1
 42
2.0
291
1
 43
8.0
  3
Standard
 44
4.0
300

342
29
174
1
175
1
176
0
178
1
 93
-1056964608
 45
4.0
292
0
297
0
 46
4.0
 94
-1056964608
 47
1.0
 49
1.0
140
1.0
294
1
141
0.0
177
0
142
1.0
295
0
296
0
143
3.75
271
0
272
9
273
9
  0
DICTIONARY
  5
2D
330
A
100
AcDbDictionary
280
1
281
1
  3
CREATED_BY_EZDXF
350
2E
  3
WRITTEN_BY_EZDXF
350
486
  0
DICTIONARYVAR
  5
2E
330
2D
100
DictionaryVariables
280
0
  1
1.4.4 @ 2026-09-10T02:16:36.473891+00:00
  0
VISUALSTYLE
  5
5A
102
{ACAD_REACTORS
330
16
102
}
330
16
100
AcDbVisualStyle
  2
2dWireframe
 70
4
 90
0
 40
0.6
 62
7
290
0
291
0
  0
VISUALSTYLE
  5
5B
102
{ACAD_REACTORS
330
16
102
}
330
16
100
AcDbVisualStyle
  2
Basic
 70
7
 90
1
 40
0.6
 62
7
290
0
291
1
  0
VISUALSTYLE
  5
5C
102
{ACAD_REACTORS
330
16
102
}
330
16
100
AcDbVisualStyle
  2
Brighten
 70
12
 90
2
 40
0.6
 62
7
290
0
291
1
  0
VISUALSTYLE
  5
5D
102
{ACAD_REACTORS
330
16
102
}
330
16
100
AcDbVisualStyle
  2
ColorChange
 70
16
 90
2
 40
0.6
 62
8
290
0
291
1
  0
VISUALSTYLE
  5
5E
102
{ACAD_REACTORS
330
16
102
}
330
16
100
AcDbVisualStyle
  2
Conceptual
 70
9
 90
3
 40
0.6
 62
7
290
0
291
0
  0
VISUALSTYLE
  5
5F
102
{ACAD_REACTORS
330
16
102
}
330
16
100
AcDbVisualStyle
  2
Dim
 70
11
 90
2
 40
0.6
 62
7
290
0
291
1
  0
VISUALSTYLE
  5
60
102
{ACAD_REACTORS
330
16
102
}
330
16
100
AcDbVisualStyle
  2
EdgeColorOff
 70
22
 90
2
 40
0.6
 62
7
290
0
291
1
  0
VISUALSTYLE
  5
61
102
{ACAD_REACTORS
330
16
102
}
330
16
100
AcDbVisualStyle
  2
Facepattern
 70
15
 90
2
 40
0.6
 62
7
290
0
291
1
  0
VISUALSTYLE
  5
62
102
{ACAD_REACTORS
330
16
102
}
330
16
100
AcDbVisualStyle
  2
Flat
 70
0
 90
2
 40
0.6
 62
7
290
0
291
1
  0
VISUALSTYLE
  5
63
102
{ACAD_REACTORS
330
16
102
}
330
16
100
AcDbVisualStyle
  2
FlatWithEdges
 70
1
 90
2
 40
0.6
 62
7
290
0
291
1
  0
VISUALSTYLE
  5
64
102
{ACAD_REACTORS
330
16
102
}
330
16
100
AcDbVisualStyle
  2
Gouraud
 70
2
 90
2
 40
0.6
 62
7
290
0
291
1
  0
VISUALSTYLE
  5
65
102
{ACAD_REACTORS
330
16
102
}
330
16
100
AcDbVisualStyle
  2
GouraudWithEdges
 70
3
 90
2
 40
0.6
 62
7
290
0
291
1
  0
VISUALSTYLE
  5
66
102
{ACAD_REACTORS
330
16
102
}
330
16
100
AcDbVisualStyle
  2
Hidden
 70
6
 90
1
 40
0.6
 62
7
290
0
291
0
  0
VISUALSTYLE
  5
67
102
{ACAD_REACTORS
330
16
102
}
330
16
100
AcDbVisualStyle
  2
JitterOff
 70
20
 90
2
 40
0.6
 62
7
290
0
291
1
  0
VISUALSTYLE
  5
68
102
{ACAD_REACTORS
330
16
102
}
330
16
100
AcDbVisualStyle
  2
Linepattern
 70
14
 90
2
 40
0.6
 62
7
290
0
291
1
  0
VISUALSTYLE
  5
69
102
{ACAD_REACTORS
330
16
102
}
330
16
100
AcDbVisualStyle
  2
Modeling
 70
10
 90
2
 40
0.6
 62
7
290
0
291
0
  0
VISUALSTYLE
  5
6A
102
{ACAD_REACTORS
330
16
102
}
330
16
100
AcDbVisualStyle
  2
OverhangOff
 70
21
 90
2
 40
0.6
 62
7
290
0
291
1
  0
VISUALSTYLE
  5
6B
102
{ACAD_REACTORS
330
16
102
}
330
16
100
AcDbVisualStyle
  2
Realistic
 70
8
 90
2
 40
0.6
 62
7
290
0
291
0
  0
VISUALSTYLE
  5
6C
102
{ACAD_REACTORS
330
16
102
}
330
16
100
AcDbVisualStyle
  2
Shaded
 70
27
 90
2
 40
0.6
 62
7
290
0
291
0
  0
VISUALSTYLE
  5
6D
102
{ACAD_REACTORS
330
16
102
}
330
16
100
AcDbVisualStyle
  2
Shaded with edges
 70
26
 90
2
 40
0.6
 62
7
290
0
291
0
  0
VISUALSTYLE
  5
6E
102
{ACAD_REACTORS
330
16
102
}
330
16
100
AcDbVisualStyle
  2
Shades of Gray
 70
23
 90
2
 40
0.6
 62
7
290
0
291
0
  0
VISUALSTYLE
  5
6F
102
{ACAD_REACTORS
330
16
102
}
330
16
100
AcDbVisualStyle
  2
Sketchy
 70
24
 90
1
 40
0.6
 62
7
290
0
291
0
  0
VISUALSTYLE
  5
70
102
{ACAD_REACTORS
330
16
102
}
330
16
100
AcDbVisualStyle
  2
Thicken
 70
13
 90
2
 40
0.6
 62
7
290
0
291
1
  0
VISUALSTYLE
  5
71
102
{ACAD_REACTORS
330
16
102
}
330
16
100
AcDbVisualStyle
  2
Wireframe
 70
5
 90
0
 40
0.6
 62
7
290
0
291
0
  0
VISUALSTYLE
  5
72
102
{ACAD_REACTORS
330
16
102
}
330
16
100
AcDbVisualStyle
  2
X-Ray
 70
25
 90
2
 40
0.5
 62
7
290
0
291
0
  0
DICTIONARYVAR
  5
486
330
2D
100
DictionaryVariables
280
0
  1
1.4.4 @ 2026-09-10T02:16:36.540975+00:00
  0
ENDSEC
  0
EOF
