  0
SECTION
  2
HEADER
  9
$ACADVER
  1
AC1024
  9
$ACADMAINTVER
 70
6
  9
$DWGCODEPAGE
  3
ANSI_1252
  9
$LASTSAVEDBY
  1
ezdxf
  9
$INSBASE
 10
0.0
 20
0.0
 30
0.0
  9
$EXTMIN
 10
1e+20
 20
1e+20
 30
1e+20
  9
$EXTMAX
 10
-1e+20
 20
-1e+20
 30
-1e+20
  9
$LIMMIN
 10
0.0
 20
0.0
  9
$LIMMAX
 10
420.0
 20
297.0
  9
$ORTHOMODE
 70
0
  9
$REGENMODE
 70
1
  9
$FILLMODE
 70
1
  9
$QTEXTMODE
 70
0
  9
$MIRRTEXT
 70
1
  9
$LTSCALE
 40
1.0
  9
$ATTMODE
 70
1
  9
$TEXTSIZE
 40
2.5
  9
$TRACEWID
 40
1.0
  9
$TEXTSTYLE
  7
OpenSans
  9
$CLAYER
  8
0
  9
$CELTYPE
  6
ByLayer
  9
$CECOLOR
 62
256
  9
$CELTSCALE
 40
1.0
  9
$DISPSILH
 70
0
  9
$DIMSCALE
 40
1.0
  9
$DIMASZ
 40
0.175
  9
$DIMEXO
 40
0.125
  9
$DIMDLI
 40
3.75
  9
$DIMRND
 40
0.0
  9
$DIMDLE
 40
0.0
  9
$DIMEXE
 40
0.375
  9
$DIMTP
 40
0.0
  9
$DIMTM
 40
0.0
  9
$DIMTXT
 40
0.25
  9
$DIMCEN
 40
2.5
  9
$DIMTSZ
 40
0.0
  9
$DIMTOL
 70
0
  9
$DIMLIM
 70
0
  9
$DIMTIH
 70
0
  9
$DIMTOH
 70
0
  9
$DIMSE1
 70
0
  9
$DIMSE2
 70
0
  9
$DIMTAD
 70
1
  9
$DIMZIN
 70
12
  9
$DIMBLK
  1
ARCHTICK
  9
$DIMASO
 70
1
  9
$DIMSHO
 70
1
  9
$DIMPOST
  1

  9
$DIMAPOST
  1

  9
$DIMALT
 70
0
  9
$DIMALTD
 70
3
  9
$DIMALTF
 40
0.03937007874
  9
$DIMLFAC
 40
100.0
  9
$DIMTOFL
 70
1
  9
$DIMTVP
 40
0.0
  9
$DIMTIX
 70
0
  9
$DIMSOXD
 70
0
  9
$DIMSAH
 70
0
  9
$DIMBLK1
  1

  9
$DIMBLK2
  1

  9
$DIMSTYLE
  2
EZDXF
  9
$DIMCLRD
 70
0
  9
$DIMCLRE
 70
0
  9
$DIMCLRT
 70
0
  9
$DIMTFAC
 40
0.5
  9
$DIMGAP
 40
0.1
  9
$DIMJUST
 70
0
  9
$DIMSD1
 70
0
  9
$DIMSD2
 70
0
  9
$DIMTOLJ
 70
0
  9
$DIMTZIN
 70
8
  9
$DIMALTZ
 70
0
  9
$DIMALTTZ
 70
0
  9
$DIMUPT
 70
1
  9
$DIMDEC
 70
2
  9
$DIMTDEC
 70
2
  9
$DIMALTU
 70
2
  9
$DIMALTTD
 70
3
  9
$DIMTXSTY
  7
OpenSansCondensed-Light
  9
$DIMAUNIT
 70
0
  9
$DIMADEC
 70
2
  9
$DIMALTRND
 40
0.0
  9
$DIMAZIN
 70
3
  9
$DIMDSEP
 70
46
  9
$DIMATFIT
 70
3
  9
$DIMFRAC
 70
0
  9
$DIMLDRBLK
  1

  9
$DIMLUNIT
 70
2
  9
$DIMLWD
 70
-2
  9
$DIMLWE
 70
-2
  9
$DIMTMOVE
 70
2
  9
$DIMFXL
 40
1.0
  9
$DIMFXLON
 70
0
  9
$DIMJOGANG
 40
0.785398163397
  9
$DIMTFILL
 70
0
  9
$DIMTFILLCLR
 70
0
  9
$DIMARCSYM
 70
0
  9
$DIMLTYPE
  6

  9
$DIMLTEX1
  6

  9
$DIMLTEX2
  6

  9
$DIMTXTDIRECTION
 70
0
  9
$LUNITS
 70
2
  9
$LUPREC
 70
4
  9
$SKETCHINC
 40
1.0
  9
$FILLETRAD
 40
10.0
  9
$AUNITS
 70
0
  9
$AUPREC
 70
2
  9
$MENU
  1
.
  9
$ELEVATION
 40
0.0
  9
$PELEVATION
 40
0.0
  9
$THICKNESS
 40
0.0
  9
$LIMCHECK
 70
0
  9
$CHAMFERA
 40
0.0
  9
$CHAMFERB
 40
0.0
  9
$CHAMFERC
 40
0.0
  9
$CHAMFERD
 40
0.0
  9
$SKPOLY
 70
0
  9
$TDCREATE
 40
2461293.677349537
  9
$TDUCREATE
 40
2458532.153996898
  9
$TDUPDATE
 40
2461293.677349537
  9
$TDUUPDATE
 40
2458532.1544311
  9
$TDINDWG
 40
0.0
  9
$TDUSRTIMER
 40
0.0
  9
$USRTIMER
 70
1
  9
$ANGBASE
 50
0.0
  9
$ANGDIR
 70
0
  9
$PDMODE
 70
0
  9
$PDSIZE
 40
0.0
  9
$PLINEWID
 40
0.0
  9
$SPLFRAME
 70
0
  9
$SPLINETYPE
 70
6
  9
$SPLINESEGS
 70
8
  9
$HANDSEED
  5
29B
  9
$SURFTAB1
 70
6
  9
$SURFTAB2
 70
6
  9
$SURFTYPE
 70
6
  9
$SURFU
 70
6
  9
$SURFV
 70
6
  9
$UCSBASE
  2

  9
$UCSNAME
  2

  9
$UCSORG
 10
0.0
 20
0.0
 30
0.0
  9
$UCSXDIR
 10
1.0
 20
0.0
 30
0.0
  9
$UCSYDIR
 10
0.0
 20
1.0
 30
0.0
  9
$UCSORTHOREF
  2

  9
$UCSORTHOVIEW
 70
0
  9
$UCSORGTOP
 10
0.0
 20
0.0
 30
0.0
  9
$UCSORGBOTTOM
 10
0.0
 20
0.0
 30
0.0
  9
$UCSORGLEFT
 10
0.0
 20
0.0
 30
0.0
  9
$UCSORGRIGHT
 10
0.0
 20
0.0
 30
0.0
  9
$UCSORGFRONT
 10
0.0
 20
0.0
 30
0.0
  9
$UCSORGBACK
 10
0.0
 20
0.0
 30
0.0
  9
$PUCSBASE
  2

  9
$PUCSNAME
  2

  9
$PUCSORG
 10
0.0
 20
0.0
 30
0.0
  9
$PUCSXDIR
 10
1.0
 20
0.0
 30
0.0
  9
$PUCSYDIR
 10
0.0
 20
1.0
 30
0.0
  9
$PUCSORTHOREF
  2

  9
$PUCSORTHOVIEW
 70
0
  9
$PUCSORGTOP
 10
0.0
 20
0.0
 30
0.0
  9
$PUCSORGBOTTOM
 10
0.0
 20
0.0
 30
0.0
  9
$PUCSORGLEFT
 10
0.0
 20
0.0
 30
0.0
  9
$PUCSORGRIGHT
 10
0.0
 20
0.0
 30
0.0
  9
$PUCSORGFRONT
 10
0.0
 20
0.0
 30
0.0
  9
$PUCSORGBACK
 10
0.0
 20
0.0
 30
0.0
  9
$USERI1
 70
0
  9
$USERI2
 70
0
  9
$USERI3
 70
0
  9
$USERI4
 70
0
  9
$USERI5
 70
0
  9
$USERR1
 40
0.0
  9
$USERR2
 40
0.0
  9
$USERR3
 40
0.0
  9
$USERR4
 40
0.0
  9
$USERR5
 40
0.0
  9
$WORLDVIEW
 70
1
  9
$SHADEDGE
 70
3
  9
$SHADEDIF
 70
70
  9
$TILEMODE
 70
1
  9
$MAXACTVP
 70
64
  9
$PINSBASE
 10
0.0
 20
0.0
 30
0.0
  9
$PLIMCHECK
 70
0
  9
$PEXTMIN
 10
1e+20
 20
1e+20
 30
1e+20
  9
$PEXTMAX
 10
-1e+20
 20
-1e+20
 30
-1e+20
  9
$PLIMMIN
 10
0.0
 20
0.0
  9
$PLIMMAX
 10
420.0
 20
297.0
  9
$UNITMODE
 70
0
  9
$VISRETAIN
 70
1
  9
$PLINEGEN
 70
0
  9
$PSLTSCALE
 70
1
  9
$TREEDEPTH
 70
3020
  9
$CMLSTYLE
  2
Standard
  9
$CMLJUST
 70
0
  9
$CMLSCALE
 40
20.0
  9
$PROXYGRAPHICS
 70
1
  9
$MEASUREMENT
 70
1
  9
$CELWEIGHT
370
-1
  9
$ENDCAPS
280
0
  9
$JOINSTYLE
280
0
  9
$LWDISPLAY
290
0
  9
$INSUNITS
 70
4
  9
$HYPERLINKBASE
  1

  9
$STYLESHEET
  1

  9
$XEDIT
290
1
  9
$CEPSNTYPE
380
0
  9
$PSTYLEMODE
290
1
  9
$FINGERPRINTGUID
  2
{F3FF0781-9EB3-47DF-A774-610F66879FCD}
  9
$VERSIONGUID
  2
{AE34C91D-2240-4EC2-88DD-4EF250689A62}
  9
$EXTNAMES
290
1
  9
$PSVPSCALE
 40
0.0
  9
$OLESTARTUP
290
0
  9
$SORTENTS
280
127
  9
$INDEXCTL
280
0
  9
$HIDETEXT
280
1
  9
$XCLIPFRAME
280
1
  9
$HALOGAP
280
0
  9
$OBSCOLOR
 70
257
  9
$OBSLTYPE
280
0
  9
$INTERSECTIONDISPLAY
280
0
  9
$INTERSECTIONCOLOR
 70
257
  9
$DIMASSOC
280
2
  9
$PROJECTNAME
  1

  9
$CAMERADISPLAY
290
0
  9
$LENSLENGTH
 40
50.0
  9
$CAMERAHEIGHT
 40
0.0
  9
$STEPSPERSEC
 40
24.0
  9
$STEPSIZE
 40
100.0
  9
$3DDWFPREC
 40
2.0
  9
$PSOLWIDTH
 40
0.005
  9
$PSOLHEIGHT
 40
0.08
  9
$LOFTANG1
 40
1.570796326795
  9
$LOFTANG2
 40
1.570796326795
  9
$LOFTMAG1
 40
0.0
  9
$LOFTMAG2
 40
0.0
  9
$LOFTPARAM
 70
7
  9
$LOFTNORMALS
280
1
  9
$LATITUDE
 40
37.795
  9
$LONGITUDE
 40
-122.394
  9
$NORTHDIRECTION
 40
0.0
  9
$TIMEZONE
 70
-8000
  9
$LIGHTGLYPHDISPLAY
280
1
  9
$TILEMODELIGHTSYNCH
280
1
  9
$CMATERIAL
347
20
  9
$SOLIDHIST
280
0
  9
$SHOWHIST
280
1
  9
$DWFFRAME
280
2
  9
$DGNFRAME
280
2
  9
$REALWORLDSCALE
290
1
  9
$INTERFERECOLOR
 62
256
  9
$CSHADOW
280
0
  9
$SHADOWPLANELOCATION
 40
0.0
  0
ENDSEC
  0
SECTION
  2
CLASSES
  0
CLASS
  1
ACDBDICTIONARYWDFLT
  2
AcDbDictionaryWithDefault
  3
ObjectDBX Classes
 90
0
 91
0
280
0
281
0
  0
CLASS
  1
SUN
  2
AcDbSun
  3
SCENEOE
 90
1153
 91
0
280
0
281
0
  0
CLASS
  1
VISUALSTYLE
  2
AcDbVisualStyle
  3
ObjectDBX Classes
 90
4095
 91
0
280
0
281
0
  0
CLASS
  1
MATERIAL
  2
AcDbMaterial
  3
ObjectDBX Classes
 90
1153
 91
0
280
0
281
0
  0
CLASS
  1
SCALE
  2
AcDbScale
  3
ObjectDBX Classes
 90
1153
 91
0
280
0
281
0
  0
CLASS
  1
TABLESTYLE
  2
AcDbTableStyle
  3
ObjectDBX Classes
 90
4095
 91
0
280
0
281
0
  0
CLASS
  1
MLEADERSTYLE
  2
AcDbMLeaderStyle
  3
ACDB_MLEADERSTYLE_CLASS
 90
4095
 91
0
280
0
281
0
  0
CLASS
  1
DICTIONARYVAR
  2
AcDbDictionaryVar
  3
ObjectDBX Classes
 90
0
 91
0
280
0
281
0
  0
CLASS
  1
CELLSTYLEMAP
  2
AcDbCellStyleMap
  3
ObjectDBX Classes
 90
1152
 91
0
280
0
281
0
  0
CLASS
  1
MENTALRAYRENDERSETTINGS
  2
AcDbMentalRayRenderSettings
  3
SCENEOE
 90
1024
 91
0
280
0
281
0
  0
CLASS
  1
ACDBDETAILVIEWSTYLE
  2
AcDbDetailViewStyle
  3
ObjectDBX Classes
 90
1025
 91
0
280
0
281
0
  0
CLASS
  1
ACDBSECTIONVIEWSTYLE
  2
AcDbSectionViewStyle
  3
ObjectDBX Classes
 90
1025
 91
0
280
0
281
0
  0
CLASS
  1
RASTERVARIABLES
  2
AcDbRasterVariables
  3
ISM
 90
0
 91
0
280
0
281
0
  0
CLASS
  1
LAYOUT
  2
AcDbLayout
  3
ObjectDBX Classes
 90
0
 91
0
280
0
281
0
  0
CLASS
  1
ACDBPLACEHOLDER
  2
AcDbPlaceHolder
  3
ObjectDBX Classes
 90
0
 91
0
280
0
281
0
  0
ENDSEC
  0
SECTION
  2
TABLES
  0
TABLE
  2
VPORT
  5
8
330
0
100
AcDbSymbolTable
 70
1
  0
VPORT
  5
23
330
8
100
AcDbSymbolTableRecord
100
AcDbViewportTableRecord
  2
*Active
 70
0
 10
0.0
 20
0.0
 11
1.0
 21
1.0
 12
0.0
 22
0.0
 13
0.0
 23
0.0
 14
0.5
 24
0.5
 15
0.5
 25
0.5
 16
0.0
 26
0.0
 36
1.0
 17
0.0
 27
0.0
 37
0.0
 40
1000.0
 41
1.34
 42
50.0
 43
0.0
 44
0.0
 50
0.0
 51
0.0
 71
0
 72
1000
 73
1
 74
3
 75
0
 76
0
 77
0
 78
0
281
0
 65
0
146
0.0
  0
ENDTAB
  0
TABLE
  2
LTYPE
  5
2
330
0
100
AcDbSymbolTable
 70
21
  0
LTYPE
  5
24
330
2
100
AcDbSymbolTableRecord
100
AcDbLinetypeTableRecord
  2
ByBlock
 70
0
  3

 72
65
 73
0
 40
0.0
  0
LTYPE
  5
25
330
2
100
AcDbSymbolTableRecord
100
AcDbLinetypeTableRecord
  2
ByLayer
 70
0
  3

 72
65
 73
0
 40
0.0
  0
LTYPE
  5
26
330
2
100
AcDbSymbolTableRecord
100
AcDbLinetypeTableRecord
  2
Continuous
 70
0
  3

 72
65
 73
0
 40
0.0
  0
LTYPE
  5
2F
330
2
100
AcDbSymbolTableRecord
100
AcDbLinetypeTableRecord
  2
CENTER
 70
0
  3
Center ____ _ ____ _ ____ _ ____ _ ____ _ ____
 72
65
 73
4
 40
5.08
 49
3.175
 74
0
 49
-0.635
 74
0
 49
0.635
 74
0
 49
-0.635
 74
0
  0
LTYPE
  5
30
330
2
100
AcDbSymbolTableRecord
100
AcDbLinetypeTableRecord
  2
CENTERX2
 70
0
  3
Center (2x) ________  __  ________  __  ________
 72
65
 73
4
 40
8.89
 49
6.35
 74
0
 49
-0.635
 74
0
 49
1.27
 74
0
 49
-0.635
 74
0
  0
LTYPE
  5
31
330
2
100
AcDbSymbolTableRecord
100
AcDbLinetypeTableRecord
  2
CENTER2
 70
0
  3
Center (.5x) ____ _ ____ _ ____ _ ____ _ ____
 72
65
 73
4
 40
2.54
 49
1.587
 74
0
 49
-0.318
 74
0
 49
0.318
 74
0
 49
-0.318
 74
0
  0
LTYPE
  5
32
330
2
100
AcDbSymbolTableRecord
100
AcDbLinetypeTableRecord
  2
DASHED
 70
0
  3
Dashed __ __ __ __ __ __ __ __ __ __ __ __ __ _
 72
65
 73
2
 40
1.524
 49
1.27
 74
0
 49
-0.254
 74
0
  0
LTYPE
  5
33
330
2
100
AcDbSymbolTableRecord
100
AcDbLinetypeTableRecord
  2
DASHEDX2
 70
0
  3
Dashed (2x) ____  ____  ____  ____  ____  ____
 72
65
 73
2
 40
3.048
 49
2.54
 74
0
 49
-0.508
 74
0
  0
LTYPE
  5
34
330
2
100
AcDbSymbolTableRecord
100
AcDbLinetypeTableRecord
  2
DASHED2
 70
0
  3
Dashed (.5x) _ _ _ _ _ _ _ _ _ _ _ _ _ _
 72
65
 73
2
 40
0.762
 49
0.635
 74
0
 49
-0.127
 74
0
  0
LTYPE
  5
35
330
2
100
AcDbSymbolTableRecord
100
AcDbLinetypeTableRecord
  2
PHANTOM
 70
0
  3
Phantom ______  __  __  ______  __  __  ______
 72
65
 73
6
 40
6.35
 49
3.175
 74
0
 49
-0.635
 74
0
 49
0.635
 74
0
 49
-0.635
 74
0
 49
0.635
 74
0
 49
-0.635
 74
0
  0
LTYPE
  5
36
330
2
100
AcDbSymbolTableRecord
100
AcDbLinetypeTableRecord
  2
PHANTOMX2
 70
0
  3
Phantom (2x)____________    ____    ____    ____________
 72
65
 73
6
 40
10.795
 49
6.35
 74
0
 49
-0.635
 74
0
 49
1.27
 74
0
 49
-0.635
 74
0
 49
1.27
 74
0
 49
-0.635
 74
0
  0
LTYPE
  5
37
330
2
100
AcDbSymbolTableRecord
100
AcDbLinetypeTableRecord
  2
PHANTOM2
 70
0
  3
Phantom (.5x) ___ _ _ ___ _ _ ___ _ _ ___ _ _ ___
 72
65
 73
6
 40
3.175
 49
1.587
 74
0
 49
-0.318
 74
0
 49
0.318
 74
0
 49
-0.318
 74
0
 49
0.318
 74
0
 49
-0.318
 74
0
  0
LTYPE
  5
38
330
2
100
AcDbSymbolTableRecord
100
AcDbLinetypeTableRecord
  2
DASHDOT
 70
0
  3
Dash dot __ . __ . __ . __ . __ . __ . __ . __
 72
65
 73
4
 40
3.556
 49
2.54
 74
0
 49
-0.508
 74
0
 49
0.0
 74
0
 49
-0.508
 74
0
  0
LTYPE
  5
39
330
2
100
AcDbSymbolTableRecord
100
AcDbLinetypeTableRecord
  2
DASHDOTX2
 70
0
  3
Dash dot (2x) ____  .  ____  .  ____  .  ____
 72
65
 73
4
 40
6.096
 49
5.08
 74
0
 49
-0.508
 74
0
 49
0.0
 74
0
 49
-0.508
 74
0
  0
LTYPE
  5
3A
330
2
100
AcDbSymbolTableRecord
100
AcDbLinetypeTableRecord
  2
DASHDOT2
 70
0
  3
Dash dot (.5x) _ . _ . _ . _ . _ . _ . _ . _
 72
65
 73
4
 40
1.778
 49
1.27
 74
0
 49
-0.254
 74
0
 49
0.0
 74
0
 49
-0.254
 74
0
  0
LTYPE
  5
3B
330
2
100
AcDbSymbolTableRecord
100
AcDbLinetypeTableRecord
  2
DOT
 70
0
  3
Dot .  .  .  .  .  .  .  .  .  .  .  .  .  .  .  .
 72
65
 73
2
 40
0.508
 49
0.0
 74
0
 49
-0.508
 74
0
  0
LTYPE
  5
3C
330
2
100
AcDbSymbolTableRecord
100
AcDbLinetypeTableRecord
  2
DOTX2
 70
0
  3
Dot (2x) .    .    .    .    .    .    .    . 
 72
65
 73
2
 40
1.016
 49
0.0
 74
0
 49
-1.016
 74
0
  0
LTYPE
  5
3D
330
2
100
AcDbSymbolTableRecord
100
AcDbLinetypeTableRecord
  2
DOT2
 70
0
  3
Dot (.5) . . . . . . . . . . . . . . . . . . . 
 72
65
 73
2
 40
0.254
 49
0.0
 74
0
 49
-0.254
 74
0
  0
LTYPE
  5
3E
330
2
100
AcDbSymbolTableRecord
100
AcDbLinetypeTableRecord
  2
DIVIDE
 70
0
  3
Divide __ . . __ . . __ . . __ . . __ . . __
 72
65
 73
6
 40
4.064
 49
2.54
 74
0
 49
-0.508
 74
0
 49
0.0
 74
0
 49
-0.508
 74
0
 49
0.0
 74
0
 49
-0.508
 74
0
  0
LTYPE
  5
3F
330
2
100
AcDbSymbolTableRecord
100
AcDbLinetypeTableRecord
  2
DIVIDEX2
 70
0
  3
Divide (2x) ____  . .  ____  . .  ____  . .  ____
 72
65
 73
6
 40
6.604
 49
5.08
 74
0
 49
-0.508
 74
0
 49
0.0
 74
0
 49
-0.508
 74
0
 49
0.0
 74
0
 49
-0.508
 74
0
  0
LTYPE
  5
40
330
2
100
AcDbSymbolTableRecord
100
AcDbLinetypeTableRecord
  2
DIVIDE2
 70
0
  3
Divide(.5x) _ . _ . _ . _ . _ . _ . _ . _
 72
65
 73
6
 40
2.032
 49
1.27
 74
0
 49
-0.254
 74
0
 49
0.0
 74
0
 49
-0.254
 74
0
 49
0.0
 74
0
 49
-0.254
 74
0
  0
ENDTAB
  0
TABLE
  2
LAYER
  5
1
330
0
100
AcDbSymbolTable
 70
26
  0
LAYER
  5
27
330
1
100
AcDbSymbolTableRecord
100
AcDbLayerTableRecord
  2
0
 70
0
 62
7
  6
Continuous
370
-3
390
13
347
21
  0
LAYER
  5
28
330
1
100
AcDbSymbolTableRecord
100
AcDbLayerTableRecord
  2
Defpoints
 70
0
 62
7
  6
Continuous
290
0
370
-3
390
13
347
21
  0
LAYER
  5
8A
330
1
100
AcDbSymbolTableRecord
100
AcDbLayerTableRecord
  2
S-CONCRETE
 70
0
 62
7
  6
Continuous
370
-3
390
13
347
21
1001
AcAecLayerStandard
1000

1000
Structural concrete outlines (cut)
  0
LAYER
  5
8C
330
1
100
AcDbSymbolTableRecord
100
AcDbLayerTableRecord
  2
S-CONCRETE-THIN
 70
0
 62
7
  6
Continuous
370
-3
390
13
347
21
1001
AcAecLayerStandard
1000

1000
Concrete beyond the cut plane
  0
LAYER
  5
8D
330
1
100
AcDbSymbolTableRecord
100
AcDbLayerTableRecord
  2
S-HIDDEN
 70
0
 62
8
  6
Continuous
370
-3
390
13
347
21
1001
AcAecLayerStandard
1000

1000
Concrete / features beyond, hidden
  0
LAYER
  5
8E
330
1
100
AcDbSymbolTableRecord
100
AcDbLayerTableRecord
  2
S-REBAR-MAIN
 70
0
 62
1
  6
Continuous
370
-3
390
13
347
21
1001
AcAecLayerStandard
1000

1000
Main reinforcement
  0
LAYER
  5
8F
330
1
100
AcDbSymbolTableRecord
100
AcDbLayerTableRecord
  2
S-REBAR-DIST
 70
0
 62
3
  6
Continuous
370
-3
390
13
347
21
1001
AcAecLayerStandard
1000

1000
Distribution reinforcement
  0
LAYER
  5
90
330
1
100
AcDbSymbolTableRecord
100
AcDbLayerTableRecord
  2
S-REBAR-STIRRUP
 70
0
 62
6
  6
Continuous
370
-3
390
13
347
21
1001
AcAecLayerStandard
1000

1000
Links and stirrups
  0
LAYER
  5
91
330
1
100
AcDbSymbolTableRecord
100
AcDbLayerTableRecord
  2
S-REBAR-TIE
 70
0
 62
6
  6
Continuous
370
-3
390
13
347
21
1001
AcAecLayerStandard
1000

1000
Ties, cross-ties, starters
  0
LAYER
  5
92
330
1
100
AcDbSymbolTableRecord
100
AcDbLayerTableRecord
  2
S-REBAR-SEC
 70
0
 62
4
  6
Continuous
370
-3
390
13
347
21
1001
AcAecLayerStandard
1000

1000
Trimmers, secondary and additional bars
  0
LAYER
  5
93
330
1
100
AcDbSymbolTableRecord
100
AcDbLayerTableRecord
  2
S-DIM
 70
0
 62
4
  6
Continuous
370
-3
390
13
347
21
1001
AcAecLayerStandard
1000

1000
Dimensions
  0
LAYER
  5
94
330
1
100
AcDbSymbolTableRecord
100
AcDbLayerTableRecord
  2
S-TEXT
 70
0
 62
7
  6
Continuous
370
-3
390
13
347
21
1001
AcAecLayerStandard
1000

1000
General annotation
  0
LAYER
  5
95
330
1
100
AcDbSymbolTableRecord
100
AcDbLayerTableRecord
  2
S-NOTE
 70
0
 62
7
  6
Continuous
370
-3
390
13
347
21
1001
AcAecLayerStandard
1000

1000
Note panels
  0
LAYER
  5
96
330
1
100
AcDbSymbolTableRecord
100
AcDbLayerTableRecord
  2
S-CALLOUT
 70
0
 62
2
  6
Continuous
370
-3
390
13
347
21
1001
AcAecLayerStandard
1000

1000
Bar-mark balloons and leaders
  0
LAYER
  5
97
330
1
100
AcDbSymbolTableRecord
100
AcDbLayerTableRecord
  2
S-SECTION
 70
0
 62
1
  6
Continuous
370
-3
390
13
347
21
1001
AcAecLayerStandard
1000

1000
Section and detail markers
  0
LAYER
  5
98
330
1
100
AcDbSymbolTableRecord
100
AcDbLayerTableRecord
  2
S-GRID
 70
0
 62
5
  6
Continuous
370
-3
390
13
347
21
1001
AcAecLayerStandard
1000

1000
Grid lines and bubbles
  0
LAYER
  5
99
330
1
100
AcDbSymbolTableRecord
100
AcDbLayerTableRecord
  2
S-CENTER
 70
0
 62
6
  6
Continuous
370
-3
390
13
347
21
1001
AcAecLayerStandard
1000

1000
Centrelines
  0
LAYER
  5
9A
330
1
100
AcDbSymbolTableRecord
100
AcDbLayerTableRecord
  2
S-HATCH
 70
0
 62
8
  6
Continuous
370
-3
390
13
347
21
1001
AcAecLayerStandard
1000

1000
Section hatch
  0
LAYER
  5
9B
330
1
100
AcDbSymbolTableRecord
100
AcDbLayerTableRecord
  2
S-TITLE
 70
0
 62
7
  6
Continuous
370
-3
390
13
347
21
1001
AcAecLayerStandard
1000

1000
Border, title block, view titles
  0
LAYER
  5
9C
330
1
100
AcDbSymbolTableRecord
100
AcDbLayerTableRecord
  2
S-EXISTING
 70
0
 62
8
  6
Continuous
370
-3
390
13
347
21
1001
AcAecLayerStandard
1000

1000
Soil, rock, berm, cover layers
  0
LAYER
  5
9D
330
1
100
AcDbSymbolTableRecord
100
AcDbLayerTableRecord
  2
S-REFERENCE
 70
0
 62
8
  6
Continuous
370
-3
390
13
347
21
1001
AcAecLayerStandard
1000

1000
Reference geometry, extents
  0
LAYER
  5
9E
330
1
100
AcDbSymbolTableRecord
100
AcDbLayerTableRecord
  2
S-WATERPROOF
 70
0
 62
30
  6
Continuous
370
-3
390
13
347
21
1001
AcAecLayerStandard
1000

1000
Membranes, waterstops, GWT
  0
LAYER
  5
9F
330
1
100
AcDbSymbolTableRecord
100
AcDbLayerTableRecord
  2
S-STEELWORK
 70
0
 62
2
  6
Continuous
370
-3
390
13
347
21
1001
AcAecLayerStandard
1000

1000
Cast-in frames, EMP straps, steel items
  0
LAYER
  5
A0
330
1
100
AcDbSymbolTableRecord
100
AcDbLayerTableRecord
  2
S-LEVEL
 70
0
 62
4
  6
Continuous
370
-3
390
13
347
21
1001
AcAecLayerStandard
1000

1000
Level markers
  0
LAYER
  5
A1
330
1
100
AcDbSymbolTableRecord
100
AcDbLayerTableRecord
  2
S-TABLE
 70
0
 62
7
  6
Continuous
370
-3
390
13
347
21
1001
AcAecLayerStandard
1000

1000
Tables and schedules
  0
LAYER
  5
A2
330
1
100
AcDbSymbolTableRecord
100
AcDbLayerTableRecord
  2
S-BLAST
 70
0
 62
1
  6
Continuous
370
-3
390
13
347
21
1001
AcAecLayerStandard
1000

1000
Blast arrows, findings, warnings
  0
ENDTAB
  0
TABLE
  2
STYLE
  5
5
330
0
100
AcDbSymbolTable
 70
26
  0
STYLE
  5
29
330
5
100
AcDbSymbolTableRecord
100
AcDbTextStyleTableRecord
  2
Standard
 70
0
 40
0.0
 41
1.0
 50
0.0
 71
0
 42
2.5
  3
txt
  4

  0
STYLE
  5
41
330
5
100
AcDbSymbolTableRecord
100
AcDbTextStyleTableRecord
  2
OpenSans-Light
 70
0
 40
0.0
 41
1.0
 50
0.0
 71
0
 42
2.5
  3
OpenSans-Light.ttf
  4

  0
STYLE
  5
42
330
5
100
AcDbSymbolTableRecord
100
AcDbTextStyleTableRecord
  2
OpenSans-Light-Italic
 70
0
 40
0.0
 41
1.0
 50
0.0
 71
0
 42
2.5
  3
OpenSans-LightItalic.ttf
  4

  0
STYLE
  5
43
330
5
100
AcDbSymbolTableRecord
100
AcDbTextStyleTableRecord
  2
OpenSans
 70
0
 40
0.0
 41
1.0
 50
0.0
 71
0
 42
2.5
  3
OpenSans-Regular.ttf
  4

  0
STYLE
  5
44
330
5
100
AcDbSymbolTableRecord
100
AcDbTextStyleTableRecord
  2
OpenSans-Italic
 70
0
 40
0.0
 41
1.0
 50
0.0
 71
0
 42
2.5
  3
OpenSans-Italic.ttf
  4

  0
STYLE
  5
45
330
5
100
AcDbSymbolTableRecord
100
AcDbTextStyleTableRecord
  2
OpenSans-SemiBold
 70
0
 40
0.0
 41
1.0
 50
0.0
 71
0
 42
2.5
  3
OpenSans-SemiBold.ttf
  4

  0
STYLE
  5
46
330
5
100
AcDbSymbolTableRecord
100
AcDbTextStyleTableRecord
  2
OpenSans-SemiBoldItalic
 70
0
 40
0.0
 41
1.0
 50
0.0
 71
0
 42
2.5
  3
OpenSans-SemiBoldItalic.ttf
  4

  0
STYLE
  5
47
330
5
100
AcDbSymbolTableRecord
100
AcDbTextStyleTableRecord
  2
OpenSans-Bold
 70
0
 40
0.0
 41
1.0
 50
0.0
 71
0
 42
2.5
  3
OpenSans-Bold.ttf
  4

  0
STYLE
  5
48
330
5
100
AcDbSymbolTableRecord
100
AcDbTextStyleTableRecord
  2
OpenSans-BoldItalic
 70
0
 40
0.0
 41
1.0
 50
0.0
 71
0
 42
2.5
  3
OpenSans-BoldItalic.ttf
  4

  0
STYLE
  5
49
330
5
100
AcDbSymbolTableRecord
100
AcDbTextStyleTableRecord
  2
OpenSans-ExtraBold
 70
0
 40
0.0
 41
1.0
 50
0.0
 71
0
 42
2.5
  3
OpenSans-ExtraBold.ttf
  4

  0
STYLE
  5
4A
330
5
100
AcDbSymbolTableRecord
100
AcDbTextStyleTableRecord
  2
OpenSans-ExtraBoldItalic
 70
0
 40
0.0
 41
1.0
 50
0.0
 71
0
 42
2.5
  3
OpenSans-ExtraBoldItalic.ttf
  4

  0
STYLE
  5
4B
330
5
100
AcDbSymbolTableRecord
100
AcDbTextStyleTableRecord
  2
OpenSansCondensed-Bold
 70
0
 40
0.0
 41
1.0
 50
0.0
 71
0
 42
2.5
  3
OpenSansCondensed-Bold.ttf
  4

  0
STYLE
  5
4C
330
5
100
AcDbSymbolTableRecord
100
AcDbTextStyleTableRecord
  2
OpenSansCondensed-Light
 70
0
 40
0.0
 41
1.0
 50
0.0
 71
0
 42
2.5
  3
OpenSansCondensed-Light.ttf
  4

  0
STYLE
  5
4D
330
5
100
AcDbSymbolTableRecord
100
AcDbTextStyleTableRecord
  2
OpenSansCondensed-Italic
 70
0
 40
0.0
 41
1.0
 50
0.0
 71
0
 42
2.5
  3
OpenSansCondensed-LightItalic.ttf
  4

  0
STYLE
  5
4E
330
5
100
AcDbSymbolTableRecord
100
AcDbTextStyleTableRecord
  2
LiberationSans
 70
0
 40
0.0
 41
1.0
 50
0.0
 71
0
 42
2.5
  3
LiberationSans-Regular.ttf
  4

  0
STYLE
  5
4F
330
5
100
AcDbSymbolTableRecord
100
AcDbTextStyleTableRecord
  2
LiberationSans-Bold
 70
0
 40
0.0
 41
1.0
 50
0.0
 71
0
 42
2.5
  3
LiberationSans-Bold.ttf
  4

  0
STYLE
  5
50
330
5
100
AcDbSymbolTableRecord
100
AcDbTextStyleTableRecord
  2
LiberationSans-BoldItalic
 70
0
 40
0.0
 41
1.0
 50
0.0
 71
0
 42
2.5
  3
LiberationSans-BoldItalic.ttf
  4

  0
STYLE
  5
51
330
5
100
AcDbSymbolTableRecord
100
AcDbTextStyleTableRecord
  2
LiberationSans-Italic
 70
0
 40
0.0
 41
1.0
 50
0.0
 71
0
 42
2.5
  3
LiberationSans-Italic.ttf
  4

  0
STYLE
  5
52
330
5
100
AcDbSymbolTableRecord
100
AcDbTextStyleTableRecord
  2
LiberationSerif
 70
0
 40
0.0
 41
1.0
 50
0.0
 71
0
 42
2.5
  3
LiberationSerif-Regular.ttf
  4

  0
STYLE
  5
53
330
5
100
AcDbSymbolTableRecord
100
AcDbTextStyleTableRecord
  2
LiberationSerif-Bold
 70
0
 40
0.0
 41
1.0
 50
0.0
 71
0
 42
2.5
  3
LiberationSerif-Bold.ttf
  4

  0
STYLE
  5
54
330
5
100
AcDbSymbolTableRecord
100
AcDbTextStyleTableRecord
  2
LiberationSerif-BoldItalic
 70
0
 40
0.0
 41
1.0
 50
0.0
 71
0
 42
2.5
  3
LiberationSerif-BoldItalic.ttf
  4

  0
STYLE
  5
55
330
5
100
AcDbSymbolTableRecord
100
AcDbTextStyleTableRecord
  2
LiberationSerif-Italic
 70
0
 40
0.0
 41
1.0
 50
0.0
 71
0
 42
2.5
  3
LiberationSerif-Italic.ttf
  4

  0
STYLE
  5
56
330
5
100
AcDbSymbolTableRecord
100
AcDbTextStyleTableRecord
  2
LiberationMono
 70
0
 40
0.0
 41
1.0
 50
0.0
 71
0
 42
2.5
  3
LiberationMono-Regular.ttf
  4

  0
STYLE
  5
57
330
5
100
AcDbSymbolTableRecord
100
AcDbTextStyleTableRecord
  2
LiberationMono-Bold
 70
0
 40
0.0
 41
1.0
 50
0.0
 71
0
 42
2.5
  3
LiberationMono-Bold.ttf
  4

  0
STYLE
  5
58
330
5
100
AcDbSymbolTableRecord
100
AcDbTextStyleTableRecord
  2
LiberationMono-BoldItalic
 70
0
 40
0.0
 41
1.0
 50
0.0
 71
0
 42
2.5
  3
LiberationMono-BoldItalic.ttf
  4

  0
STYLE
  5
59
330
5
100
AcDbSymbolTableRecord
100
AcDbTextStyleTableRecord
  2
LiberationMono-Italic
 70
0
 40
0.0
 41
1.0
 50
0.0
 71
0
 42
2.5
  3
LiberationMono-Italic.ttf
  4

  0
ENDTAB
  0
TABLE
  2
VIEW
  5
7
330
0
100
AcDbSymbolTable
 70
0
  0
ENDTAB
  0
TABLE
  2
UCS
  5
6
330
0
100
AcDbSymbolTable
 70
0
  0
ENDTAB
  0
TABLE
  2
APPID
  5
3
330
0
100
AcDbSymbolTable
 70
4
  0
APPID
  5
2A
330
3
100
AcDbSymbolTableRecord
100
AcDbRegAppTableRecord
  2
ACAD
 70
0
  0
APPID
  5
8B
330
3
100
AcDbSymbolTableRecord
100
AcDbRegAppTableRecord
  2
AcAecLayerStandard
 70
0
  0
APPID
  5
298
330
3
100
AcDbSymbolTableRecord
100
AcDbRegAppTableRecord
  2
HATCHBACKGROUNDCOLOR
 70
0
  0
APPID
  5
299
330
3
100
AcDbSymbolTableRecord
100
AcDbRegAppTableRecord
  2
EZDXF
 70
0
  0
ENDTAB
  0
TABLE
  2
DIMSTYLE
  5
4
330
0
100
AcDbSymbolTable
 70
14
100
AcDbDimStyleTable
  0
DIMSTYLE
105
2B
330
4
100
AcDbSymbolTableRecord
100
AcDbDimStyleTableRecord
  2
Standard
 70
0
 40
1.0
 41
2.5
 42
0.625
 43
3.75
 44
1.25
 45
0.0
 46
0.0
 47
0.0
 48
0.0
 49
2.5
140
2.5
141
2.5
142
0.0
143
0.03937007874
144
1.0
145
0.0
146
1.0
147
0.625
148
0.0
 69
0
 70
0
 71
0
 72
0
 73
0
 74
0
 75
0
 76
0
 77
1
 78
8
 79
3
170
0
171
3
172
1
173
0
174
0
175
0
176
0
177
0
178
0
179
2
271
2
272
2
273
2
274
3
275
0
276
0
277
2
278
44
279
0
280
0
281
0
282
0
283
0
284
8
285
0
286
0
288
0
289
3
290
0
371
-2
372
-2
  0
DIMSTYLE
105
73
330
4
100
AcDbSymbolTableRecord
100
AcDbDimStyleTableRecord
  2
EZDXF
 70
0
 40
1.0
 41
0.175
 42
0.125
 43
3.75
 44
0.375
 45
0.0
 46
0.0
 47
0.0
 48
0.0
 49
2.5
140
0.25
141
2.5
142
0.0
143
0.03937007874
144
100.0
145
0.0
146
0.5
147
0.1
148
0.0
 69
0
 70
0
 71
0
 72
0
 73
0
 74
0
 75
0
 76
0
 77
1
 78
12
 79
3
170
0
171
3
172
1
173
0
174
0
175
0
176
0
177
0
178
0
179
2
271
2
272
2
273
2
274
3
275
0
276
0
277
2
278
46
279
2
280
0
281
0
282
0
283
0
284
8
285
0
286
0
288
1
289
3
290
0
340
4C
342
74
371
-2
372
-2
  0
DIMSTYLE
105
7C
330
4
100
AcDbSymbolTableRecord
100
AcDbDimStyleTableRecord
  2
EZ_M_100_H25_CM
 70
0
 40
1.0
 41
0.25
 42
0.125
 43
3.75
 44
0.375
 45
0.0
 46
0.0
 47
0.0
 48
0.0
 49
2.5
140
0.25
141
2.5
142
0.125
143
0.03937007874
144
100.0
145
0.0
146
0.5
147
0.1
148
0.0
 69
0
 70
0
 71
0
 72
0
 73
0
 74
0
 75
0
 76
0
 77
1
 78
12
 79
3
170
0
171
3
172
1
173
0
174
0
175
0
176
0
177
0
178
0
179
2
271
2
272
2
273
2
274
3
275
0
276
0
277
2
278
46
279
2
280
0
281
0
282
0
283
0
284
8
285
0
286
0
288
1
289
3
290
0
340
4C
371
-2
372
-2
  0
DIMSTYLE
105
7D
330
4
100
AcDbSymbolTableRecord
100
AcDbDimStyleTableRecord
  2
EZ_M_50_H25_CM
 70
0
 40
1.0
 41
0.125
 42
0.0625
 43
3.75
 44
0.1875
 45
0.0
 46
0.0
 47
0.0
 48
0.0
 49
2.5
140
0.125
141
2.5
142
0.0625
143
0.03937007874
144
100.0
145
0.0
146
0.5
147
0.05
148
0.0
 69
0
 70
0
 71
0
 72
0
 73
0
 74
0
 75
0
 76
0
 77
1
 78
12
 79
3
170
0
171
3
172
1
173
0
174
0
175
0
176
0
177
0
178
0
179
2
271
2
272
2
273
2
274
3
275
0
276
0
277
2
278
46
279
2
280
0
281
0
282
0
283
0
284
8
285
0
286
0
288
1
289
3
290
0
340
4C
371
-2
372
-2
  0
DIMSTYLE
105
7E
330
4
100
AcDbSymbolTableRecord
100
AcDbDimStyleTableRecord
  2
EZ_M_25_H25_CM
 70
0
 40
1.0
 41
0.0625
 42
0.03125
 43
3.75
 44
0.09375
 45
0.0
 46
0.0
 47
0.0
 48
0.0
 49
2.5
140
0.0625
141
2.5
142
0.03125
143
0.03937007874
144
100.0
145
0.0
146
0.5
147
0.025
148
0.0
 69
0
 70
0
 71
0
 72
0
 73
0
 74
0
 75
0
 76
0
 77
1
 78
12
 79
3
170
0
171
3
172
1
173
0
174
0
175
0
176
0
177
0
178
0
179
2
271
2
272
2
273
2
274
3
275
0
276
0
277
2
278
46
279
2
280
0
281
0
282
0
283
0
284
8
285
0
286
0
288
1
289
3
290
0
340
4C
371
-2
372
-2
  0
DIMSTYLE
105
7F
330
4
100
AcDbSymbolTableRecord
100
AcDbDimStyleTableRecord
  2
EZ_M_20_H25_CM
 70
0
 40
1.0
 41
0.05
 42
0.025
 43
3.75
 44
0.07500000000000001
 45
0.0
 46
0.0
 47
0.0
 48
0.0
 49
2.5
140
0.05
141
2.5
142
0.025
143
0.03937007874
144
100.0
145
0.0
146
0.5
147
0.020000000000000004
148
0.0
 69
0
 70
0
 71
0
 72
0
 73
0
 74
0
 75
0
 76
0
 77
1
 78
12
 79
3
170
0
171
3
172
1
173
0
174
0
175
0
176
0
177
0
178
0
179
2
271
2
272
2
273
2
274
3
275
0
276
0
277
2
278
46
279
2
280
0
281
0
282
0
283
0
284
8
285
0
286
0
288
1
289
3
290
0
340
4C
371
-2
372
-2
  0
DIMSTYLE
105
80
330
4
100
AcDbSymbolTableRecord
100
AcDbDimStyleTableRecord
  2
EZ_M_10_H25_CM
 70
0
 40
1.0
 41
0.025
 42
0.0125
 43
3.75
 44
0.037500000000000006
 45
0.0
 46
0.0
 47
0.0
 48
0.0
 49
2.5
140
0.025
141
2.5
142
0.0125
143
0.03937007874
144
100.0
145
0.0
146
0.5
147
0.010000000000000002
148
0.0
 69
0
 70
0
 71
0
 72
0
 73
0
 74
0
 75
0
 76
0
 77
1
 78
12
 79
3
170
0
171
3
172
1
173
0
174
0
175
0
176
0
177
0
178
0
179
2
271
2
272
2
273
2
274
3
275
0
276
0
277
2
278
46
279
2
280
0
281
0
282
0
283
0
284
8
285
0
286
0
288
1
289
3
290
0
340
4C
371
-2
372
-2
  0
DIMSTYLE
105
81
330
4
100
AcDbSymbolTableRecord
100
AcDbDimStyleTableRecord
  2
EZ_M_5_H25_CM
 70
0
 40
1.0
 41
0.0125
 42
0.00625
 43
3.75
 44
0.018750000000000003
 45
0.0
 46
0.0
 47
0.0
 48
0.0
 49
2.5
140
0.0125
141
2.5
142
0.00625
143
0.03937007874
144
100.0
145
0.0
146
0.5
147
0.005000000000000001
148
0.0
 69
0
 70
0
 71
0
 72
0
 73
0
 74
0
 75
0
 76
0
 77
1
 78
12
 79
3
170
0
171
3
172
1
173
0
174
0
175
0
176
0
177
0
178
0
179
2
271
2
272
2
273
2
274
3
275
0
276
0
277
2
278
46
279
2
280
0
281
0
282
0
283
0
284
8
285
0
286
0
288
1
289
3
290
0
340
4C
371
-2
372
-2
  0
DIMSTYLE
105
82
330
4
100
AcDbSymbolTableRecord
100
AcDbDimStyleTableRecord
  2
EZ_M_1_H25_CM
 70
0
 40
1.0
 41
0.0025
 42
0.00125
 43
3.75
 44
0.00375
 45
0.0
 46
0.0
 47
0.0
 48
0.0
 49
2.5
140
0.0025
141
2.5
142
0.00125
143
0.03937007874
144
100.0
145
0.0
146
0.5
147
0.001
148
0.0
 69
0
 70
0
 71
0
 72
0
 73
0
 74
0
 75
0
 76
0
 77
1
 78
12
 79
3
170
0
171
3
172
1
173
0
174
0
175
0
176
0
177
0
178
0
179
2
271
2
272
2
273
2
274
3
275
0
276
0
277
2
278
46
279
2
280
0
281
0
282
0
283
0
284
8
285
0
286
0
288
1
289
3
290
0
340
4C
371
-2
372
-2
  0
DIMSTYLE
105
83
330
4
100
AcDbSymbolTableRecord
100
AcDbDimStyleTableRecord
  2
EZ_RADIUS
 70
0
 40
1.0
 41
0.25
 42
0.125
 43
3.75
 44
0.375
 45
0.0
 46
0.0
 47
0.0
 48
0.0
 49
2.5
140
0.25
141
0.0
142
0.0
143
0.03937007874
144
100.0
145
0.0
146
0.5
147
0.1
148
0.0
 69
0
 70
0
 71
0
 72
0
 73
0
 74
0
 75
0
 76
0
 77
1
 78
12
 79
3
170
0
171
3
172
0
173
0
174
0
175
0
176
0
177
0
178
0
179
2
271
2
272
2
273
2
274
3
275
0
276
0
277
2
278
46
279
1
280
0
281
0
282
0
283
0
284
8
285
0
286
0
288
1
289
3
290
0
340
4C
342
84
371
-2
372
-2
  0
DIMSTYLE
105
88
330
4
100
AcDbSymbolTableRecord
100
AcDbDimStyleTableRecord
  2
EZ_RADIUS_INSIDE
 70
0
 40
1.0
 41
0.25
 42
0.125
 43
3.75
 44
0.375
 45
0.0
 46
0.0
 47
0.0
 48
0.0
 49
2.5
140
0.25
141
0.0
142
0.0
143
0.03937007874
144
100.0
145
0.0
146
0.5
147
0.1
148
0.0
 69
0
 70
0
 71
0
 72
0
 73
0
 74
0
 75
0
 76
0
 77
0
 78
12
 79
3
170
0
171
3
172
0
173
0
174
1
175
0
176
0
177
0
178
0
179
2
271
2
272
2
273
2
274
3
275
0
276
0
277
2
278
46
279
0
280
0
281
0
282
0
283
0
284
8
285
0
286
0
288
1
289
0
290
0
340
4C
342
84
371
-2
372
-2
  0
DIMSTYLE
105
89
330
4
100
AcDbSymbolTableRecord
100
AcDbDimStyleTableRecord
  2
EZ_CURVED
 70
0
 40
1.0
 41
0.25
 42
0.125
 43
3.75
 44
0.375
 45
0.0
 46
0.0
 47
0.0
 48
0.0
 49
2.5
140
0.25
141
2.5
142
0.0
143
0.03937007874
144
100.0
145
0.0
146
0.5
147
0.1
148
0.0
 69
0
 70
0
 71
0
 72
0
 73
0
 74
0
 75
0
 76
0
 77
1
 78
12
 79
2
 90
2
170
0
171
3
172
1
173
0
174
0
175
0
176
0
177
0
178
0
179
2
271
2
272
2
273
2
274
3
275
0
276
0
277
2
278
46
279
2
280
0
281
0
282
0
283
0
284
8
285
0
286
0
288
1
289
3
290
0
340
4C
371
-2
372
-2
  0
DIMSTYLE
105
A3
330
4
100
AcDbSymbolTableRecord
100
AcDbDimStyleTableRecord
  2
SC-DIM
 70
0
 40
1.0
 41
1.6
 42
1.0
 43
3.75
 44
1.2
 45
0.0
 46
0.0
 47
0.0
 48
0.0
 49
2.5
140
1.8
141
2.5
142
0.0
143
0.03937007874
144
1.0
145
0.0
146
1.0
147
0.8
148
0.0
 69
0
 70
0
 71
0
 72
0
 73
0
 74
0
 75
0
 76
0
 77
1
 78
8
 79
3
170
0
171
3
172
1
173
0
174
0
175
0
176
4
177
4
178
4
179
2
271
0
272
2
273
2
274
3
275
0
276
0
277
2
278
44
279
0
280
0
281
0
282
0
283
0
284
8
285
0
286
0
288
0
289
3
290
0
342
74
371
13
372
13
  0
DIMSTYLE
105
A4
330
4
100
AcDbSymbolTableRecord
100
AcDbDimStyleTableRecord
  2
SC-DIM-S
 70
0
 40
1.0
 41
1.2
 42
1.0
 43
3.75
 44
1.2
 45
0.0
 46
0.0
 47
0.0
 48
0.0
 49
2.5
140
1.4
141
2.5
142
0.0
143
0.03937007874
144
1.0
145
0.0
146
1.0
147
0.8
148
0.0
 69
0
 70
0
 71
0
 72
0
 73
0
 74
0
 75
0
 76
0
 77
1
 78
8
 79
3
170
0
171
3
172
1
173
0
174
0
175
0
176
4
177
4
178
4
179
2
271
0
272
2
273
2
274
3
275
0
276
0
277
2
278
44
279
0
280
0
281
0
282
0
283
0
284
8
285
0
286
0
288
0
289
3
290
0
342
74
371
13
372
13
  0
ENDTAB
  0
TABLE
  2
BLOCK_RECORD
  5
9
330
0
100
AcDbSymbolTable
 70
15
  0
BLOCK_RECORD
  5
17
330
9
100
AcDbSymbolTableRecord
100
AcDbBlockTableRecord
  2
*Model_Space
340
1A
 70
0
280
1
281
0
  0
BLOCK_RECORD
  5
1B
330
9
100
AcDbSymbolTableRecord
100
AcDbBlockTableRecord
  2
*Paper_Space
340
1E
 70
0
280
1
281
0
  0
BLOCK_RECORD
  5
74
330
9
100
AcDbSymbolTableRecord
100
AcDbBlockTableRecord
  2
_ARCHTICK
340
0
 70
0
280
1
281
0
  0
BLOCK_RECORD
  5
78
330
9
100
AcDbSymbolTableRecord
100
AcDbBlockTableRecord
  2
_CLOSEDFILLED
340
0
 70
0
280
1
281
0
  0
BLOCK_RECORD
  5
84
330
9
100
AcDbSymbolTableRecord
100
AcDbBlockTableRecord
  2
_CLOSEDBLANK
340
0
 70
0
280
1
281
0
  0
BLOCK_RECORD
  5
A5
330
9
100
AcDbSymbolTableRecord
100
AcDbBlockTableRecord
  2
BARMARK
340
0
 70
0
280
1
281
0
  0
BLOCK_RECORD
  5
A9
330
9
100
AcDbSymbolTableRecord
100
AcDbBlockTableRecord
  2
SECMARK
340
0
 70
0
280
1
281
0
  0
BLOCK_RECORD
  5
AE
330
9
100
AcDbSymbolTableRecord
100
AcDbBlockTableRecord
  2
LEVELMK
340
0
 70
0
280
1
281
0
  0
BLOCK_RECORD
  5
B2
330
9
100
AcDbSymbolTableRecord
100
AcDbBlockTableRecord
  2
NORTH
340
0
 70
0
280
1
281
0
  0
BLOCK_RECORD
  5
10A
330
9
100
AcDbSymbolTableRecord
100
AcDbBlockTableRecord
  2
*D1
340
0
 70
0
280
1
281
0
  0
BLOCK_RECORD
  5
119
330
9
100
AcDbSymbolTableRecord
100
AcDbBlockTableRecord
  2
*D2
340
0
 70
0
280
1
281
0
  0
BLOCK_RECORD
  5
128
330
9
100
AcDbSymbolTableRecord
100
AcDbBlockTableRecord
  2
*D3
340
0
 70
0
280
1
281
0
  0
BLOCK_RECORD
  5
137
330
9
100
AcDbSymbolTableRecord
100
AcDbBlockTableRecord
  2
*D4
340
0
 70
0
280
1
281
0
  0
BLOCK_RECORD
  5
1F9
330
9
100
AcDbSymbolTableRecord
100
AcDbBlockTableRecord
  2
*D5
340
0
 70
0
280
1
281
0
  0
BLOCK_RECORD
  5
208
330
9
100
AcDbSymbolTableRecord
100
AcDbBlockTableRecord
  2
*D6
340
0
 70
0
280
1
281
0
  0
ENDTAB
  0
ENDSEC
  0
SECTION
  2
BLOCKS
  0
BLOCK
  5
18
330
17
100
AcDbEntity
  8
0
100
AcDbBlockBegin
  2
*Model_Space
 70
0
 10
0.0
 20
0.0
 30
0.0
  3
*Model_Space
  1

  0
ENDBLK
  5
19
330
17
100
AcDbEntity
  8
0
100
AcDbBlockEnd
  0
BLOCK
  5
1C
330
1B
100
AcDbEntity
  8
0
100
AcDbBlockBegin
  2
*Paper_Space
 70
0
 10
0.0
 20
0.0
 30
0.0
  3
*Paper_Space
  1

  0
ENDBLK
  5
1D
330
1B
100
AcDbEntity
  8
0
100
AcDbBlockEnd
  0
BLOCK
  5
75
330
74
100
AcDbEntity
  8
0
100
AcDbBlockBegin
  2
_ARCHTICK
 70
0
 10
0.0
 20
0.0
 30
0.0
  3
_ARCHTICK
  1

  0
LWPOLYLINE
  5
77
330
74
100
AcDbEntity
  8
0
  6
BYBLOCK
 62
0
100
AcDbPolyline
 90
2
 70
0
 43
0.15
 10
-0.5
 20
-0.5
 10
0.5
 20
0.5
  0
ENDBLK
  5
76
330
74
100
AcDbEntity
  8
0
100
AcDbBlockEnd
  0
BLOCK
  5
79
330
78
100
AcDbEntity
  8
0
100
AcDbBlockBegin
  2
_CLOSEDFILLED
 70
0
 10
0.0
 20
0.0
 30
0.0
  3
_CLOSEDFILLED
  1

  0
SOLID
  5
7B
330
78
100
AcDbEntity
  8
0
  6
BYBLOCK
 62
0
100
AcDbTrace
 10
-1.0
 20
0.16439898372402537
 30
0.0
 11
0.0
 21
0.0
 31
0.0
 12
-1.0
 22
-0.16439898372402537
 32
0.0
 13
-1.0
 23
-0.16439898372402537
 33
0.0
  0
ENDBLK
  5
7A
330
78
100
AcDbEntity
  8
0
100
AcDbBlockEnd
  0
BLOCK
  5
85
330
84
100
AcDbEntity
  8
0
100
AcDbBlockBegin
  2
_CLOSEDBLANK
 70
0
 10
0.0
 20
0.0
 30
0.0
  3
_CLOSEDBLANK
  1

  0
LWPOLYLINE
  5
87
330
84
100
AcDbEntity
  8
0
  6
BYBLOCK
 62
0
100
AcDbPolyline
 90
3
 70
1
 10
-1.0
 20
0.16439898372402537
 10
0.0
 20
0.0
 10
-1.0
 20
-0.16439898372402537
  0
ENDBLK
  5
86
330
84
100
AcDbEntity
  8
0
100
AcDbBlockEnd
  0
BLOCK
  5
A6
330
A5
100
AcDbEntity
  8
0
100
AcDbBlockBegin
  2
BARMARK
 70
0
 10
0.0
 20
0.0
 30
0.0
  3
BARMARK
  1

  0
CIRCLE
  5
A8
330
A5
100
AcDbEntity
  8
S-CALLOUT
100
AcDbCircle
 10
0.0
 20
0.0
 30
0.0
 40
3.2
  0
ENDBLK
  5
A7
330
A5
100
AcDbEntity
  8
0
100
AcDbBlockEnd
  0
BLOCK
  5
AA
330
A9
100
AcDbEntity
  8
0
100
AcDbBlockBegin
  2
SECMARK
 70
0
 10
0.0
 20
0.0
 30
0.0
  3
SECMARK
  1

  0
CIRCLE
  5
AC
330
A9
100
AcDbEntity
  8
S-SECTION
100
AcDbCircle
 10
0.0
 20
0.0
 30
0.0
 40
4.0
  0
LINE
  5
AD
330
A9
100
AcDbEntity
  8
S-SECTION
100
AcDbLine
 10
-4.0
 20
0.0
 30
0.0
 11
4.0
 21
0.0
 31
0.0
  0
ENDBLK
  5
AB
330
A9
100
AcDbEntity
  8
0
100
AcDbBlockEnd
  0
BLOCK
  5
AF
330
AE
100
AcDbEntity
  8
0
100
AcDbBlockBegin
  2
LEVELMK
 70
0
 10
0.0
 20
0.0
 30
0.0
  3
LEVELMK
  1

  0
LWPOLYLINE
  5
B1
330
AE
100
AcDbEntity
  8
S-LEVEL
100
AcDbPolyline
 90
4
 70
1
 10
0.0
 20
0.0
 10
-2.0
 20
3.0
 10
2.0
 20
3.0
 10
0.0
 20
0.0
  0
ENDBLK
  5
B0
330
AE
100
AcDbEntity
  8
0
100
AcDbBlockEnd
  0
BLOCK
  5
B3
330
B2
100
AcDbEntity
  8
0
100
AcDbBlockBegin
  2
NORTH
 70
0
 10
0.0
 20
0.0
 30
0.0
  3
NORTH
  1

  0
LWPOLYLINE
  5
B5
330
B2
100
AcDbEntity
  8
S-TITLE
100
AcDbPolyline
 90
5
 70
1
 10
0.0
 20
10.0
 10
-3.2
 20
-6.0
 10
0.0
 20
-2.4
 10
3.2
 20
-6.0
 10
0.0
 20
10.0
  0
CIRCLE
  5
B6
330
B2
100
AcDbEntity
  8
S-TITLE
100
AcDbCircle
 10
0.0
 20
0.0
 30
0.0
 40
12.0
  0
ENDBLK
  5
B4
330
B2
100
AcDbEntity
  8
0
100
AcDbBlockEnd
  0
BLOCK
  5
10B
330
10A
100
AcDbEntity
  8
0
100
AcDbBlockBegin
  2
*D1
 70
1
 10
0.0
 20
0.0
 30
0.0
  3
*D1
  1

  0
LINE
  5
10D
330
10A
100
AcDbEntity
  8
0
 62
4
370
13
100
AcDbLine
 10
234.33333333333334
 20
352.0
 30
0.0
 11
261.2
 21
352.0
 31
0.0
  0
LINE
  5
10E
330
10A
100
AcDbEntity
  8
0
 62
4
370
13
100
AcDbLine
 10
234.33333333333334
 20
412.0
 30
0.0
 11
261.2
 21
412.0
 31
0.0
  0
INSERT
  5
10F
330
10A
100
AcDbEntity
  8
S-DIM
 62
4
100
AcDbBlockReference
  2
_ARCHTICK
 10
260.0
 20
352.0
 30
0.0
 41
1.6
 42
1.6
 50
270.0
  0
INSERT
  5
111
330
10A
100
AcDbEntity
  8
S-DIM
 62
4
100
AcDbBlockReference
  2
_ARCHTICK
 10
260.0
 20
412.0
 30
0.0
 41
1.6
 42
1.6
 50
90.0
  0
LINE
  5
113
330
10A
100
AcDbEntity
  8
0
 62
4
370
13
100
AcDbLine
 10
260.0
 20
352.0
 30
0.0
 11
260.0
 21
412.0
 31
0.0
  0
MTEXT
  5
114
330
10A
100
AcDbEntity
  8
S-DIM
 62
4
100
AcDbMText
 10
258.3
 20
382.0
 30
0.0
 40
1.8
 71
5
  1
900
  7
OpenSansCondensed-Light
 50
90.0
  0
POINT
  5
115
330
10A
100
AcDbEntity
  8
Defpoints
100
AcDbPoint
 10
260.0
 20
352.0
 30
0.0
  0
POINT
  5
116
330
10A
100
AcDbEntity
  8
Defpoints
100
AcDbPoint
 10
233.33333333333334
 20
352.0
 30
0.0
  0
POINT
  5
117
330
10A
100
AcDbEntity
  8
Defpoints
100
AcDbPoint
 10
233.33333333333334
 20
412.0
 30
0.0
  0
ENDBLK
  5
10C
330
10A
100
AcDbEntity
  8
0
100
AcDbBlockEnd
  0
BLOCK
  5
11A
330
119
100
AcDbEntity
  8
0
100
AcDbBlockBegin
  2
*D2
 70
1
 10
0.0
 20
0.0
 30
0.0
  3
*D2
  1

  0
LINE
  5
11C
330
119
100
AcDbEntity
  8
0
 62
4
370
13
100
AcDbLine
 10
60.0
 20
231.0
 30
0.0
 11
60.0
 21
210.8
 31
0.0
  0
LINE
  5
11D
330
119
100
AcDbEntity
  8
0
 62
4
370
13
100
AcDbLine
 10
100.0
 20
231.0
 30
0.0
 11
100.0
 21
210.8
 31
0.0
  0
INSERT
  5
11E
330
119
100
AcDbEntity
  8
S-DIM
 62
4
100
AcDbBlockReference
  2
_ARCHTICK
 10
60.0
 20
212.0
 30
0.0
 41
1.6
 42
1.6
 50
180.0
  0
INSERT
  5
120
330
119
100
AcDbEntity
  8
S-DIM
 62
4
100
AcDbBlockReference
  2
_ARCHTICK
 10
100.0
 20
212.0
 30
0.0
 41
1.6
 42
1.6
  0
LINE
  5
122
330
119
100
AcDbEntity
  8
0
 62
4
370
13
100
AcDbLine
 10
60.0
 20
212.0
 30
0.0
 11
100.0
 21
212.0
 31
0.0
  0
MTEXT
  5
123
330
119
100
AcDbEntity
  8
S-DIM
 62
4
100
AcDbMText
 10
80.0
 20
213.7
 30
0.0
 40
1.8
 71
5
  1
600
  7
OpenSansCondensed-Light
  0
POINT
  5
124
330
119
100
AcDbEntity
  8
Defpoints
100
AcDbPoint
 10
60.0
 20
212.0
 30
0.0
  0
POINT
  5
125
330
119
100
AcDbEntity
  8
Defpoints
100
AcDbPoint
 10
60.0
 20
232.0
 30
0.0
  0
POINT
  5
126
330
119
100
AcDbEntity
  8
Defpoints
100
AcDbPoint
 10
100.0
 20
232.0
 30
0.0
  0
ENDBLK
  5
11B
330
119
100
AcDbEntity
  8
0
100
AcDbBlockEnd
  0
BLOCK
  5
129
330
128
100
AcDbEntity
  8
0
100
AcDbBlockBegin
  2
*D3
 70
1
 10
0.0
 20
0.0
 30
0.0
  3
*D3
  1

  0
LINE
  5
12B
330
128
100
AcDbEntity
  8
0
 62
4
370
13
100
AcDbLine
 10
100.0
 20
353.0
 30
0.0
 11
100.0
 21
439.8666666666666
 31
0.0
  0
LINE
  5
12C
330
128
100
AcDbEntity
  8
0
 62
4
370
13
100
AcDbLine
 10
133.33333333333331
 20
353.0
 30
0.0
 11
133.33333333333331
 21
439.8666666666666
 31
0.0
  0
INSERT
  5
12D
330
128
100
AcDbEntity
  8
S-DIM
 62
4
100
AcDbBlockReference
  2
_ARCHTICK
 10
100.0
 20
438.66666666666663
 30
0.0
 41
1.6
 42
1.6
 50
180.0
  0
INSERT
  5
12F
330
128
100
AcDbEntity
  8
S-DIM
 62
4
100
AcDbBlockReference
  2
_ARCHTICK
 10
133.33333333333331
 20
438.66666666666663
 30
0.0
 41
1.6
 42
1.6
  0
LINE
  5
131
330
128
100
AcDbEntity
  8
0
 62
4
370
13
100
AcDbLine
 10
100.0
 20
438.66666666666663
 30
0.0
 11
133.33333333333331
 21
438.66666666666663
 31
0.0
  0
MTEXT
  5
132
330
128
100
AcDbEntity
  8
S-DIM
 62
4
100
AcDbMText
 10
116.66666666666666
 20
440.3666666666666
 30
0.0
 40
1.8
 71
5
  1
500
  7
OpenSansCondensed-Light
  0
POINT
  5
133
330
128
100
AcDbEntity
  8
Defpoints
100
AcDbPoint
 10
100.0
 20
438.66666666666663
 30
0.0
  0
POINT
  5
134
330
128
100
AcDbEntity
  8
Defpoints
100
AcDbPoint
 10
100.0
 20
352.0
 30
0.0
  0
POINT
  5
135
330
128
100
AcDbEntity
  8
Defpoints
100
AcDbPoint
 10
133.33333333333331
 20
352.0
 30
0.0
  0
ENDBLK
  5
12A
330
128
100
AcDbEntity
  8
0
100
AcDbBlockEnd
  0
BLOCK
  5
138
330
137
100
AcDbEntity
  8
0
100
AcDbBlockBegin
  2
*D4
 70
1
 10
0.0
 20
0.0
 30
0.0
  3
*D4
  1

  0
LINE
  5
13A
330
137
100
AcDbEntity
  8
0
 62
4
370
13
100
AcDbLine
 10
65.86666666666666
 20
407.2
 30
0.0
 11
65.86666666666666
 21
486.53333333333336
 31
0.0
  0
LINE
  5
13B
330
137
100
AcDbEntity
  8
0
 62
4
370
13
100
AcDbLine
 10
132.53333333333333
 20
407.2
 30
0.0
 11
132.53333333333333
 21
486.53333333333336
 31
0.0
  0
INSERT
  5
13C
330
137
100
AcDbEntity
  8
S-DIM
 62
4
100
AcDbBlockReference
  2
_ARCHTICK
 10
65.86666666666666
 20
485.33333333333337
 30
0.0
 41
1.6
 42
1.6
 50
180.0
  0
INSERT
  5
13E
330
137
100
AcDbEntity
  8
S-DIM
 62
4
100
AcDbBlockReference
  2
_ARCHTICK
 10
132.53333333333333
 20
485.33333333333337
 30
0.0
 41
1.6
 42
1.6
  0
LINE
  5
140
330
137
100
AcDbEntity
  8
0
 62
4
370
13
100
AcDbLine
 10
65.86666666666666
 20
485.33333333333337
 30
0.0
 11
132.53333333333333
 21
485.33333333333337
 31
0.0
  0
MTEXT
  5
141
330
137
100
AcDbEntity
  8
S-DIM
 62
4
100
AcDbMText
 10
99.19999999999999
 20
487.03333333333336
 30
0.0
 40
1.8
 71
5
  1
1000
  7
OpenSansCondensed-Light
  0
POINT
  5
142
330
137
100
AcDbEntity
  8
Defpoints
100
AcDbPoint
 10
65.86666666666666
 20
485.33333333333337
 30
0.0
  0
POINT
  5
143
330
137
100
AcDbEntity
  8
Defpoints
100
AcDbPoint
 10
65.86666666666666
 20
406.2
 30
0.0
  0
POINT
  5
144
330
137
100
AcDbEntity
  8
Defpoints
100
AcDbPoint
 10
132.53333333333333
 20
406.2
 30
0.0
  0
ENDBLK
  5
139
330
137
100
AcDbEntity
  8
0
100
AcDbBlockEnd
  0
BLOCK
  5
1FA
330
1F9
100
AcDbEntity
  8
0
100
AcDbBlockBegin
  2
*D5
 70
1
 10
0.0
 20
0.0
 30
0.0
  3
*D5
  1

  0
LINE
  5
1FC
330
1F9
100
AcDbEntity
  8
0
 62
4
370
13
100
AcDbLine
 10
406.0
 20
339.0
 30
0.0
 11
406.0
 21
318.8
 31
0.0
  0
LINE
  5
1FD
330
1F9
100
AcDbEntity
  8
0
 62
4
370
13
100
AcDbLine
 10
454.0
 20
339.0
 30
0.0
 11
454.0
 21
318.8
 31
0.0
  0
INSERT
  5
1FE
330
1F9
100
AcDbEntity
  8
S-DIM
 62
4
100
AcDbBlockReference
  2
_ARCHTICK
 10
406.0
 20
320.0
 30
0.0
 41
1.6
 42
1.6
 50
180.0
  0
INSERT
  5
200
330
1F9
100
AcDbEntity
  8
S-DIM
 62
4
100
AcDbBlockReference
  2
_ARCHTICK
 10
454.0
 20
320.0
 30
0.0
 41
1.6
 42
1.6
  0
LINE
  5
202
330
1F9
100
AcDbEntity
  8
0
 62
4
370
13
100
AcDbLine
 10
406.0
 20
320.0
 30
0.0
 11
454.0
 21
320.0
 31
0.0
  0
MTEXT
  5
203
330
1F9
100
AcDbEntity
  8
S-DIM
 62
4
100
AcDbMText
 10
430.0
 20
321.7
 30
0.0
 40
1.8
 71
5
  1
1200
  7
OpenSansCondensed-Light
  0
POINT
  5
204
330
1F9
100
AcDbEntity
  8
Defpoints
100
AcDbPoint
 10
406.0
 20
320.0
 30
0.0
  0
POINT
  5
205
330
1F9
100
AcDbEntity
  8
Defpoints
100
AcDbPoint
 10
406.0
 20
340.0
 30
0.0
  0
POINT
  5
206
330
1F9
100
AcDbEntity
  8
Defpoints
100
AcDbPoint
 10
454.0
 20
340.0
 30
0.0
  0
ENDBLK
  5
1FB
330
1F9
100
AcDbEntity
  8
0
100
AcDbBlockEnd
  0
BLOCK
  5
209
330
208
100
AcDbEntity
  8
0
100
AcDbBlockBegin
  2
*D6
 70
1
 10
0.0
 20
0.0
 30
0.0
  3
*D6
  1

  0
LINE
  5
20B
330
208
100
AcDbEntity
  8
0
 62
4
370
13
100
AcDbLine
 10
422.0
 20
473.0
 30
0.0
 11
422.0
 21
493.2
 31
0.0
  0
LINE
  5
20C
330
208
100
AcDbEntity
  8
0
 62
4
370
13
100
AcDbLine
 10
438.0
 20
473.0
 30
0.0
 11
438.0
 21
493.2
 31
0.0
  0
INSERT
  5
20D
330
208
100
AcDbEntity
  8
S-DIM
 62
4
100
AcDbBlockReference
  2
_ARCHTICK
 10
422.0
 20
492.0
 30
0.0
 41
1.6
 42
1.6
 50
180.0
  0
INSERT
  5
20F
330
208
100
AcDbEntity
  8
S-DIM
 62
4
100
AcDbBlockReference
  2
_ARCHTICK
 10
438.0
 20
492.0
 30
0.0
 41
1.6
 42
1.6
  0
LINE
  5
211
330
208
100
AcDbEntity
  8
0
 62
4
370
13
100
AcDbLine
 10
422.0
 20
492.0
 30
0.0
 11
438.0
 21
492.0
 31
0.0
  0
MTEXT
  5
212
330
208
100
AcDbEntity
  8
S-DIM
 62
4
100
AcDbMText
 10
430.0
 20
493.7
 30
0.0
 40
1.8
 71
5
  1
400
  7
OpenSansCondensed-Light
  0
POINT
  5
213
330
208
100
AcDbEntity
  8
Defpoints
100
AcDbPoint
 10
422.0
 20
492.0
 30
0.0
  0
POINT
  5
214
330
208
100
AcDbEntity
  8
Defpoints
100
AcDbPoint
 10
422.0
 20
472.0
 30
0.0
  0
POINT
  5
215
330
208
100
AcDbEntity
  8
Defpoints
100
AcDbPoint
 10
438.0
 20
472.0
 30
0.0
  0
ENDBLK
  5
20A
330
208
100
AcDbEntity
  8
0
100
AcDbBlockEnd
  0
ENDSEC
  0
SECTION
  2
ENTITIES
  0
LWPOLYLINE
  5
B7
330
17
100
AcDbEntity
  8
S-TITLE
100
AcDbPolyline
 90
4
 70
1
 10
0.0
 20
0.0
 10
841.0
 20
0.0
 10
841.0
 20
594.0
 10
0.0
 20
594.0
  0
LWPOLYLINE
  5
B8
330
17
100
AcDbEntity
  8
S-TITLE
100
AcDbPolyline
 90
4
 70
1
 10
10.0
 20
10.0
 10
831.0
 20
10.0
 10
831.0
 20
584.0
 10
10.0
 20
584.0
  0
TEXT
  5
B9
330
17
100
AcDbEntity
  8
S-TITLE
100
AcDbText
 10
12.0
 20
576.5
 30
0.0
 40
5.0
  1
STRUCTURAL CAD - REINFORCEMENT PACKAGE
  7
OpenSans
 11
12.0
 21
576.5
 31
0.0
100
AcDbText
  0
TEXT
  5
BA
330
17
100
AcDbEntity
  8
S-TITLE
100
AcDbText
 10
12.0
 20
569.5
 30
0.0
 40
2.4
  1
R-304   ROOF / WALL JUNCTION DETAILS
  7
OpenSans
 11
12.0
 21
569.5
 31
0.0
100
AcDbText
  0
LINE
  5
BB
330
17
100
AcDbEntity
  8
S-TITLE
100
AcDbLine
 10
10.0
 20
566.5
 30
0.0
 11
831.0
 21
566.5
 31
0.0
  0
TEXT
  5
BC
330
17
100
AcDbEntity
  8
S-BLAST
100
AcDbText
 10
829.0
 20
577.0
 30
0.0
 40
2.0
  1
SENTRY POST EXCLUDED FROM THIS PACKAGE
  7
OpenSans
 72
2
 11
829.0
 21
577.0
 31
0.0
100
AcDbText
  0
TEXT
  5
BD
330
17
100
AcDbEntity
  8
S-BLAST
100
AcDbText
 10
829.0
 20
570.5
 30
0.0
 40
1.4
  1
ALL DESIGN ACTIONS ARE MANUAL CALCULATION - NOT DIRECT STAAD OUTPUT
  7
OpenSans
 72
2
 11
829.0
 21
570.5
 31
0.0
100
AcDbText
  0
LWPOLYLINE
  5
BE
330
17
100
AcDbEntity
  8
S-CONCRETE
100
AcDbPolyline
 90
4
 70
1
 10
60.0
 20
232.0
 10
100.0
 20
232.0
 10
100.0
 20
352.0
 10
60.0
 20
352.0
  0
LWPOLYLINE
  5
BF
330
17
100
AcDbEntity
  8
S-CONCRETE
100
AcDbPolyline
 90
4
 70
1
 10
60.0
 20
352.0
 10
233.33333333333334
 20
352.0
 10
233.33333333333334
 20
412.0
 10
60.0
 20
412.0
  0
LWPOLYLINE
  5
C0
330
17
100
AcDbEntity
  8
S-CONCRETE
100
AcDbPolyline
 90
3
 70
0
 10
100.0
 20
352.0
 10
133.33333333333331
 20
352.0
 10
100.0
 20
318.6666666666667
  0
HATCH
  5
C1
330
17
100
AcDbEntity
  8
S-HATCH
 62
7
100
AcDbHatch
 10
0.0
 20
0.0
 30
0.0
210
0.0
220
0.0
230
1.0
  2
ANSI31
 70
0
 71
0
 91
1
 92
3
 72
0
 73
1
 93
4
 10
60.0
 20
232.0
 10
100.0
 20
232.0
 10
100.0
 20
352.0
 10
60.0
 20
352.0
 97
0
 75
1
 76
1
 52
0.0
 41
1.6
 77
0
 78
1
 53
45.0
 43
0.0
 44
0.0
 45
-3.5921024485
 46
3.5921024485
 79
0
 98
0
  0
HATCH
  5
C2
330
17
100
AcDbEntity
  8
S-HATCH
 62
7
100
AcDbHatch
 10
0.0
 20
0.0
 30
0.0
210
0.0
220
0.0
230
1.0
  2
ANSI31
 70
0
 71
0
 91
1
 92
3
 72
0
 73
1
 93
4
 10
60.0
 20
352.0
 10
233.33333333333334
 20
352.0
 10
233.33333333333334
 20
412.0
 10
60.0
 20
412.0
 97
0
 75
1
 76
1
 52
0.0
 41
1.6
 77
0
 78
1
 53
45.0
 43
0.0
 44
0.0
 45
-3.5921024485
 46
3.5921024485
 79
0
 98
0
  0
HATCH
  5
C3
330
17
100
AcDbEntity
  8
S-HATCH
 62
7
100
AcDbHatch
 10
0.0
 20
0.0
 30
0.0
210
0.0
220
0.0
230
1.0
  2
ANSI31
 70
0
 71
0
 91
1
 92
3
 72
0
 73
1
 93
3
 10
100.0
 20
352.0
 10
133.33333333333331
 20
352.0
 10
100.0
 20
318.6666666666667
 97
0
 75
1
 76
1
 52
0.0
 41
1.6
 77
0
 78
1
 53
45.0
 43
0.0
 44
0.0
 45
-3.5921024485
 46
3.5921024485
 79
0
 98
0
  0
LINE
  5
C4
330
17
100
AcDbEntity
  8
S-REBAR-MAIN
100
AcDbLine
 10
63.86666666666667
 20
234.66666666666666
 30
0.0
 11
63.86666666666667
 21
349.3333333333333
 31
0.0
  0
CIRCLE
  5
C5
330
17
100
AcDbEntity
  8
S-REBAR-MAIN
100
AcDbCircle
 10
63.86666666666667
 20
242.0
 30
0.0
 40
0.8
  0
HATCH
  5
C6
330
17
100
AcDbEntity
  8
S-REBAR-MAIN
 62
1
100
AcDbHatch
 10
0.0
 20
0.0
 30
0.0
210
0.0
220
0.0
230
1.0
  2
SOLID
 70
1
 71
0
 91
1
 92
3
 72
0
 73
1
 93
16
 10
64.66666666666667
 20
242.0
 10
64.6057702926757
 20
242.30614674589208
 10
64.43235209161591
 20
242.56568542494924
 10
64.17281341255874
 20
242.73910362600904
 10
63.86666666666667
 20
242.8
 10
63.560519920774595
 20
242.73910362600904
 10
63.30098124171743
 20
242.56568542494924
 10
63.12756304065764
 20
242.30614674589208
 10
63.06666666666667
 20
242.0
 10
63.127563040657634
 20
241.69385325410792
 10
63.30098124171743
 20
241.43431457505076
 10
63.560519920774595
 20
241.26089637399096
 10
63.86666666666667
 20
241.2
 10
64.17281341255874
 20
241.26089637399096
 10
64.43235209161591
 20
241.43431457505076
 10
64.6057702926757
 20
241.69385325410792
 97
0
 75
0
 76
1
 98
0
  0
CIRCLE
  5
C7
330
17
100
AcDbEntity
  8
S-REBAR-MAIN
100
AcDbCircle
 10
63.86666666666667
 20
252.0
 30
0.0
 40
0.8
  0
HATCH
  5
C8
330
17
100
AcDbEntity
  8
S-REBAR-MAIN
 62
1
100
AcDbHatch
 10
0.0
 20
0.0
 30
0.0
210
0.0
220
0.0
230
1.0
  2
SOLID
 70
1
 71
0
 91
1
 92
3
 72
0
 73
1
 93
16
 10
64.66666666666667
 20
252.0
 10
64.6057702926757
 20
252.30614674589208
 10
64.43235209161591
 20
252.56568542494924
 10
64.17281341255874
 20
252.73910362600904
 10
63.86666666666667
 20
252.8
 10
63.560519920774595
 20
252.73910362600904
 10
63.30098124171743
 20
252.56568542494924
 10
63.12756304065764
 20
252.30614674589208
 10
63.06666666666667
 20
252.0
 10
63.127563040657634
 20
251.69385325410792
 10
63.30098124171743
 20
251.43431457505076
 10
63.560519920774595
 20
251.26089637399096
 10
63.86666666666667
 20
251.2
 10
64.17281341255874
 20
251.26089637399096
 10
64.43235209161591
 20
251.43431457505076
 10
64.6057702926757
 20
251.69385325410792
 97
0
 75
0
 76
1
 98
0
  0
CIRCLE
  5
C9
330
17
100
AcDbEntity
  8
S-REBAR-MAIN
100
AcDbCircle
 10
63.86666666666667
 20
262.0
 30
0.0
 40
0.8
  0
HATCH
  5
CA
330
17
100
AcDbEntity
  8
S-REBAR-MAIN
 62
1
100
AcDbHatch
 10
0.0
 20
0.0
 30
0.0
210
0.0
220
0.0
230
1.0
  2
SOLID
 70
1
 71
0
 91
1
 92
3
 72
0
 73
1
 93
16
 10
64.66666666666667
 20
262.0
 10
64.6057702926757
 20
262.3061467458921
 10
64.43235209161591
 20
262.56568542494927
 10
64.17281341255874
 20
262.739103626009
 10
63.86666666666667
 20
262.8
 10
63.560519920774595
 20
262.739103626009
 10
63.30098124171743
 20
262.56568542494927
 10
63.12756304065764
 20
262.3061467458921
 10
63.06666666666667
 20
262.0
 10
63.127563040657634
 20
261.6938532541079
 10
63.30098124171743
 20
261.43431457505073
 10
63.560519920774595
 20
261.260896373991
 10
63.86666666666667
 20
261.2
 10
64.17281341255874
 20
261.260896373991
 10
64.43235209161591
 20
261.43431457505073
 10
64.6057702926757
 20
261.6938532541079
 97
0
 75
0
 76
1
 98
0
  0
CIRCLE
  5
CB
330
17
100
AcDbEntity
  8
S-REBAR-MAIN
100
AcDbCircle
 10
63.86666666666667
 20
272.0
 30
0.0
 40
0.8
  0
HATCH
  5
CC
330
17
100
AcDbEntity
  8
S-REBAR-MAIN
 62
1
100
AcDbHatch
 10
0.0
 20
0.0
 30
0.0
210
0.0
220
0.0
230
1.0
  2
SOLID
 70
1
 71
0
 91
1
 92
3
 72
0
 73
1
 93
16
 10
64.66666666666667
 20
272.0
 10
64.6057702926757
 20
272.3061467458921
 10
64.43235209161591
 20
272.56568542494927
 10
64.17281341255874
 20
272.739103626009
 10
63.86666666666667
 20
272.8
 10
63.560519920774595
 20
272.739103626009
 10
63.30098124171743
 20
272.56568542494927
 10
63.12756304065764
 20
272.3061467458921
 10
63.06666666666667
 20
272.0
 10
63.127563040657634
 20
271.6938532541079
 10
63.30098124171743
 20
271.43431457505073
 10
63.560519920774595
 20
271.260896373991
 10
63.86666666666667
 20
271.2
 10
64.17281341255874
 20
271.260896373991
 10
64.43235209161591
 20
271.43431457505073
 10
64.6057702926757
 20
271.6938532541079
 97
0
 75
0
 76
1
 98
0
  0
CIRCLE
  5
CD
330
17
100
AcDbEntity
  8
S-REBAR-MAIN
100
AcDbCircle
 10
63.86666666666667
 20
282.0
 30
0.0
 40
0.8
  0
HATCH
  5
CE
330
17
100
AcDbEntity
  8
S-REBAR-MAIN
 62
1
100
AcDbHatch
 10
0.0
 20
0.0
 30
0.0
210
0.0
220
0.0
230
1.0
  2
SOLID
 70
1
 71
0
 91
1
 92
3
 72
0
 73
1
 93
16
 10
64.66666666666667
 20
282.0
 10
64.6057702926757
 20
282.3061467458921
 10
64.43235209161591
 20
282.56568542494927
 10
64.17281341255874
 20
282.739103626009
 10
63.86666666666667
 20
282.8
 10
63.560519920774595
 20
282.739103626009
 10
63.30098124171743
 20
282.56568542494927
 10
63.12756304065764
 20
282.3061467458921
 10
63.06666666666667
 20
282.0
 10
63.127563040657634
 20
281.6938532541079
 10
63.30098124171743
 20
281.43431457505073
 10
63.560519920774595
 20
281.260896373991
 10
63.86666666666667
 20
281.2
 10
64.17281341255874
 20
281.260896373991
 10
64.43235209161591
 20
281.43431457505073
 10
64.6057702926757
 20
281.6938532541079
 97
0
 75
0
 76
1
 98
0
  0
CIRCLE
  5
CF
330
17
100
AcDbEntity
  8
S-REBAR-MAIN
100
AcDbCircle
 10
63.86666666666667
 20
292.0
 30
0.0
 40
0.8
  0
HATCH
  5
D0
330
17
100
AcDbEntity
  8
S-REBAR-MAIN
 62
1
100
AcDbHatch
 10
0.0
 20
0.0
 30
0.0
210
0.0
220
0.0
230
1.0
  2
SOLID
 70
1
 71
0
 91
1
 92
3
 72
0
 73
1
 93
16
 10
64.66666666666667
 20
292.0
 10
64.6057702926757
 20
292.3061467458921
 10
64.43235209161591
 20
292.56568542494927
 10
64.17281341255874
 20
292.739103626009
 10
63.86666666666667
 20
292.8
 10
63.560519920774595
 20
292.739103626009
 10
63.30098124171743
 20
292.56568542494927
 10
63.12756304065764
 20
292.3061467458921
 10
63.06666666666667
 20
292.0
 10
63.127563040657634
 20
291.6938532541079
 10
63.30098124171743
 20
291.43431457505073
 10
63.560519920774595
 20
291.260896373991
 10
63.86666666666667
 20
291.2
 10
64.17281341255874
 20
291.260896373991
 10
64.43235209161591
 20
291.43431457505073
 10
64.6057702926757
 20
291.6938532541079
 97
0
 75
0
 76
1
 98
0
  0
CIRCLE
  5
D1
330
17
100
AcDbEntity
  8
S-REBAR-MAIN
100
AcDbCircle
 10
63.86666666666667
 20
302.0
 30
0.0
 40
0.8
  0
HATCH
  5
D2
330
17
100
AcDbEntity
  8
S-REBAR-MAIN
 62
1
100
AcDbHatch
 10
0.0
 20
0.0
 30
0.0
210
0.0
220
0.0
230
1.0
  2
SOLID
 70
1
 71
0
 91
1
 92
3
 72
0
 73
1
 93
16
 10
64.66666666666667
 20
302.0
 10
64.6057702926757
 20
302.3061467458921
 10
64.43235209161591
 20
302.56568542494927
 10
64.17281341255874
 20
302.739103626009
 10
63.86666666666667
 20
302.8
 10
63.560519920774595
 20
302.739103626009
 10
63.30098124171743
 20
302.56568542494927
 10
63.12756304065764
 20
302.3061467458921
 10
63.06666666666667
 20
302.0
 10
63.127563040657634
 20
301.6938532541079
 10
63.30098124171743
 20
301.43431457505073
 10
63.560519920774595
 20
301.260896373991
 10
63.86666666666667
 20
301.2
 10
64.17281341255874
 20
301.260896373991
 10
64.43235209161591
 20
301.43431457505073
 10
64.6057702926757
 20
301.6938532541079
 97
0
 75
0
 76
1
 98
0
  0
CIRCLE
  5
D3
330
17
100
AcDbEntity
  8
S-REBAR-MAIN
100
AcDbCircle
 10
63.86666666666667
 20
312.0
 30
0.0
 40
0.8
  0
HATCH
  5
D4
330
17
100
AcDbEntity
  8
S-REBAR-MAIN
 62
1
100
AcDbHatch
 10
0.0
 20
0.0
 30
0.0
210
0.0
220
0.0
230
1.0
  2
SOLID
 70
1
 71
0
 91
1
 92
3
 72
0
 73
1
 93
16
 10
64.66666666666667
 20
312.0
 10
64.6057702926757
 20
312.3061467458921
 10
64.43235209161591
 20
312.56568542494927
 10
64.17281341255874
 20
312.739103626009
 10
63.86666666666667
 20
312.8
 10
63.560519920774595
 20
312.739103626009
 10
63.30098124171743
 20
312.56568542494927
 10
63.12756304065764
 20
312.3061467458921
 10
63.06666666666667
 20
312.0
 10
63.127563040657634
 20
311.6938532541079
 10
63.30098124171743
 20
311.43431457505073
 10
63.560519920774595
 20
311.260896373991
 10
63.86666666666667
 20
311.2
 10
64.17281341255874
 20
311.260896373991
 10
64.43235209161591
 20
311.43431457505073
 10
64.6057702926757
 20
311.6938532541079
 97
0
 75
0
 76
1
 98
0
  0
CIRCLE
  5
D5
330
17
100
AcDbEntity
  8
S-REBAR-MAIN
100
AcDbCircle
 10
63.86666666666667
 20
322.0
 30
0.0
 40
0.8
  0
HATCH
  5
D6
330
17
100
AcDbEntity
  8
S-REBAR-MAIN
 62
1
100
AcDbHatch
 10
0.0
 20
0.0
 30
0.0
210
0.0
220
0.0
230
1.0
  2
SOLID
 70
1
 71
0
 91
1
 92
3
 72
0
 73
1
 93
16
 10
64.66666666666667
 20
322.0
 10
64.6057702926757
 20
322.3061467458921
 10
64.43235209161591
 20
322.56568542494927
 10
64.17281341255874
 20
322.739103626009
 10
63.86666666666667
 20
322.8
 10
63.560519920774595
 20
322.739103626009
 10
63.30098124171743
 20
322.56568542494927
 10
63.12756304065764
 20
322.3061467458921
 10
63.06666666666667
 20
322.0
 10
63.127563040657634
 20
321.6938532541079
 10
63.30098124171743
 20
321.43431457505073
 10
63.560519920774595
 20
321.260896373991
 10
63.86666666666667
 20
321.2
 10
64.17281341255874
 20
321.260896373991
 10
64.43235209161591
 20
321.43431457505073
 10
64.6057702926757
 20
321.6938532541079
 97
0
 75
0
 76
1
 98
0
  0
CIRCLE
  5
D7
330
17
100
AcDbEntity
  8
S-REBAR-MAIN
100
AcDbCircle
 10
63.86666666666667
 20
332.0
 30
0.0
 40
0.8
  0
HATCH
  5
D8
330
17
100
AcDbEntity
  8
S-REBAR-MAIN
 62
1
100
AcDbHatch
 10
0.0
 20
0.0
 30
0.0
210
0.0
220
0.0
230
1.0
  2
SOLID
 70
1
 71
0
 91
1
 92
3
 72
0
 73
1
 93
16
 10
64.66666666666667
 20
332.0
 10
64.6057702926757
 20
332.3061467458921
 10
64.43235209161591
 20
332.56568542494927
 10
64.17281341255874
 20
332.739103626009
 10
63.86666666666667
 20
332.8
 10
63.560519920774595
 20
332.739103626009
 10
63.30098124171743
 20
332.56568542494927
 10
63.12756304065764
 20
332.3061467458921
 10
63.06666666666667
 20
332.0
 10
63.127563040657634
 20
331.6938532541079
 10
63.30098124171743
 20
331.43431457505073
 10
63.560519920774595
 20
331.260896373991
 10
63.86666666666667
 20
331.2
 10
64.17281341255874
 20
331.260896373991
 10
64.43235209161591
 20
331.43431457505073
 10
64.6057702926757
 20
331.6938532541079
 97
0
 75
0
 76
1
 98
0
  0
CIRCLE
  5
D9
330
17
100
AcDbEntity
  8
S-REBAR-MAIN
100
AcDbCircle
 10
63.86666666666667
 20
342.0
 30
0.0
 40
0.8
  0
HATCH
  5
DA
330
17
100
AcDbEntity
  8
S-REBAR-MAIN
 62
1
100
AcDbHatch
 10
0.0
 20
0.0
 30
0.0
210
0.0
220
0.0
230
1.0
  2
SOLID
 70
1
 71
0
 91
1
 92
3
 72
0
 73
1
 93
16
 10
64.66666666666667
 20
342.0
 10
64.6057702926757
 20
342.3061467458921
 10
64.43235209161591
 20
342.56568542494927
 10
64.17281341255874
 20
342.739103626009
 10
63.86666666666667
 20
342.8
 10
63.560519920774595
 20
342.739103626009
 10
63.30098124171743
 20
342.56568542494927
 10
63.12756304065764
 20
342.3061467458921
 10
63.06666666666667
 20
342.0
 10
63.127563040657634
 20
341.6938532541079
 10
63.30098124171743
 20
341.43431457505073
 10
63.560519920774595
 20
341.260896373991
 10
63.86666666666667
 20
341.2
 10
64.17281341255874
 20
341.260896373991
 10
64.43235209161591
 20
341.43431457505073
 10
64.6057702926757
 20
341.6938532541079
 97
0
 75
0
 76
1
 98
0
  0
LINE
  5
DB
330
17
100
AcDbEntity
  8
S-REBAR-MAIN
100
AcDbLine
 10
96.13333333333333
 20
234.66666666666666
 30
0.0
 11
96.13333333333333
 21
349.3333333333333
 31
0.0
  0
CIRCLE
  5
DC
330
17
100
AcDbEntity
  8
S-REBAR-MAIN
100
AcDbCircle
 10
96.13333333333333
 20
242.0
 30
0.0
 40
0.8
  0
HATCH
  5
DD
330
17
100
AcDbEntity
  8
S-REBAR-MAIN
 62
1
100
AcDbHatch
 10
0.0
 20
0.0
 30
0.0
210
0.0
220
0.0
230
1.0
  2
SOLID
 70
1
 71
0
 91
1
 92
3
 72
0
 73
1
 93
16
 10
96.93333333333332
 20
242.0
 10
96.87243695934235
 20
242.30614674589208
 10
96.69901875828256
 20
242.56568542494924
 10
96.4394800792254
 20
242.73910362600904
 10
96.13333333333333
 20
242.8
 10
95.82718658744125
 20
242.73910362600904
 10
95.56764790838409
 20
242.56568542494924
 10
95.3942297073243
 20
242.30614674589208
 10
95.33333333333333
 20
242.0
 10
95.3942297073243
 20
241.69385325410792
 10
95.56764790838409
 20
241.43431457505076
 10
95.82718658744125
 20
241.26089637399096
 10
96.13333333333333
 20
241.2
 10
96.4394800792254
 20
241.26089637399096
 10
96.69901875828256
 20
241.43431457505076
 10
96.87243695934235
 20
241.69385325410792
 97
0
 75
0
 76
1
 98
0
  0
CIRCLE
  5
DE
330
17
100
AcDbEntity
  8
S-REBAR-MAIN
100
AcDbCircle
 10
96.13333333333333
 20
252.0
 30
0.0
 40
0.8
  0
HATCH
  5
DF
330
17
100
AcDbEntity
  8
S-REBAR-MAIN
 62
1
100
AcDbHatch
 10
0.0
 20
0.0
 30
0.0
210
0.0
220
0.0
230
1.0
  2
SOLID
 70
1
 71
0
 91
1
 92
3
 72
0
 73
1
 93
16
 10
96.93333333333332
 20
252.0
 10
96.87243695934235
 20
252.30614674589208
 10
96.69901875828256
 20
252.56568542494924
 10
96.4394800792254
 20
252.73910362600904
 10
96.13333333333333
 20
252.8
 10
95.82718658744125
 20
252.73910362600904
 10
95.56764790838409
 20
252.56568542494924
 10
95.3942297073243
 20
252.30614674589208
 10
95.33333333333333
 20
252.0
 10
95.3942297073243
 20
251.69385325410792
 10
95.56764790838409
 20
251.43431457505076
 10
95.82718658744125
 20
251.26089637399096
 10
96.13333333333333
 20
251.2
 10
96.4394800792254
 20
251.26089637399096
 10
96.69901875828256
 20
251.43431457505076
 10
96.87243695934235
 20
251.69385325410792
 97
0
 75
0
 76
1
 98
0
  0
CIRCLE
  5
E0
330
17
100
AcDbEntity
  8
S-REBAR-MAIN
100
AcDbCircle
 10
96.13333333333333
 20
262.0
 30
0.0
 40
0.8
  0
HATCH
  5
E1
330
17
100
AcDbEntity
  8
S-REBAR-MAIN
 62
1
100
AcDbHatch
 10
0.0
 20
0.0
 30
0.0
210
0.0
220
0.0
230
1.0
  2
SOLID
 70
1
 71
0
 91
1
 92
3
 72
0
 73
1
 93
16
 10
96.93333333333332
 20
262.0
 10
96.87243695934235
 20
262.3061467458921
 10
96.69901875828256
 20
262.56568542494927
 10
96.4394800792254
 20
262.739103626009
 10
96.13333333333333
 20
262.8
 10
95.82718658744125
 20
262.739103626009
 10
95.56764790838409
 20
262.56568542494927
 10
95.3942297073243
 20
262.3061467458921
 10
95.33333333333333
 20
262.0
 10
95.3942297073243
 20
261.6938532541079
 10
95.56764790838409
 20
261.43431457505073
 10
95.82718658744125
 20
261.260896373991
 10
96.13333333333333
 20
261.2
 10
96.4394800792254
 20
261.260896373991
 10
96.69901875828256
 20
261.43431457505073
 10
96.87243695934235
 20
261.6938532541079
 97
0
 75
0
 76
1
 98
0
  0
CIRCLE
  5
E2
330
17
100
AcDbEntity
  8
S-REBAR-MAIN
100
AcDbCircle
 10
96.13333333333333
 20
272.0
 30
0.0
 40
0.8
  0
HATCH
  5
E3
330
17
100
AcDbEntity
  8
S-REBAR-MAIN
 62
1
100
AcDbHatch
 10
0.0
 20
0.0
 30
0.0
210
0.0
220
0.0
230
1.0
  2
SOLID
 70
1
 71
0
 91
1
 92
3
 72
0
 73
1
 93
16
 10
96.93333333333332
 20
272.0
 10
96.87243695934235
 20
272.3061467458921
 10
96.69901875828256
 20
272.56568542494927
 10
96.4394800792254
 20
272.739103626009
 10
96.13333333333333
 20
272.8
 10
95.82718658744125
 20
272.739103626009
 10
95.56764790838409
 20
272.56568542494927
 10
95.3942297073243
 20
272.3061467458921
 10
95.33333333333333
 20
272.0
 10
95.3942297073243
 20
271.6938532541079
 10
95.56764790838409
 20
271.43431457505073
 10
95.82718658744125
 20
271.260896373991
 10
96.13333333333333
 20
271.2
 10
96.4394800792254
 20
271.260896373991
 10
96.69901875828256
 20
271.43431457505073
 10
96.87243695934235
 20
271.6938532541079
 97
0
 75
0
 76
1
 98
0
  0
CIRCLE
  5
E4
330
17
100
AcDbEntity
  8
S-REBAR-MAIN
100
AcDbCircle
 10
96.13333333333333
 20
282.0
 30
0.0
 40
0.8
  0
HATCH
  5
E5
330
17
100
AcDbEntity
  8
S-REBAR-MAIN
 62
1
100
AcDbHatch
 10
0.0
 20
0.0
 30
0.0
210
0.0
220
0.0
230
1.0
  2
SOLID
 70
1
 71
0
 91
1
 92
3
 72
0
 73
1
 93
16
 10
96.93333333333332
 20
282.0
 10
96.87243695934235
 20
282.3061467458921
 10
96.69901875828256
 20
282.56568542494927
 10
96.4394800792254
 20
282.739103626009
 10
96.13333333333333
 20
282.8
 10
95.82718658744125
 20
282.739103626009
 10
95.56764790838409
 20
282.56568542494927
 10
95.3942297073243
 20
282.3061467458921
 10
95.33333333333333
 20
282.0
 10
95.3942297073243
 20
281.6938532541079
 10
95.56764790838409
 20
281.43431457505073
 10
95.82718658744125
 20
281.260896373991
 10
96.13333333333333
 20
281.2
 10
96.4394800792254
 20
281.260896373991
 10
96.69901875828256
 20
281.43431457505073
 10
96.87243695934235
 20
281.6938532541079
 97
0
 75
0
 76
1
 98
0
  0
CIRCLE
  5
E6
330
17
100
AcDbEntity
  8
S-REBAR-MAIN
100
AcDbCircle
 10
96.13333333333333
 20
292.0
 30
0.0
 40
0.8
  0
HATCH
  5
E7
330
17
100
AcDbEntity
  8
S-REBAR-MAIN
 62
1
100
AcDbHatch
 10
0.0
 20
0.0
 30
0.0
210
0.0
220
0.0
230
1.0
  2
SOLID
 70
1
 71
0
 91
1
 92
3
 72
0
 73
1
 93
16
 10
96.93333333333332
 20
292.0
 10
96.87243695934235
 20
292.3061467458921
 10
96.69901875828256
 20
292.56568542494927
 10
96.4394800792254
 20
292.739103626009
 10
96.13333333333333
 20
292.8
 10
95.82718658744125
 20
292.739103626009
 10
95.56764790838409
 20
292.56568542494927
 10
95.3942297073243
 20
292.3061467458921
 10
95.33333333333333
 20
292.0
 10
95.3942297073243
 20
291.6938532541079
 10
95.56764790838409
 20
291.43431457505073
 10
95.82718658744125
 20
291.260896373991
 10
96.13333333333333
 20
291.2
 10
96.4394800792254
 20
291.260896373991
 10
96.69901875828256
 20
291.43431457505073
 10
96.87243695934235
 20
291.6938532541079
 97
0
 75
0
 76
1
 98
0
  0
CIRCLE
  5
E8
330
17
100
AcDbEntity
  8
S-REBAR-MAIN
100
AcDbCircle
 10
96.13333333333333
 20
302.0
 30
0.0
 40
0.8
  0
HATCH
  5
E9
330
17
100
AcDbEntity
  8
S-REBAR-MAIN
 62
1
100
AcDbHatch
 10
0.0
 20
0.0
 30
0.0
210
0.0
220
0.0
230
1.0
  2
SOLID
 70
1
 71
0
 91
1
 92
3
 72
0
 73
1
 93
16
 10
96.93333333333332
 20
302.0
 10
96.87243695934235
 20
302.3061467458921
 10
96.69901875828256
 20
302.56568542494927
 10
96.4394800792254
 20
302.739103626009
 10
96.13333333333333
 20
302.8
 10
95.82718658744125
 20
302.739103626009
 10
95.56764790838409
 20
302.56568542494927
 10
95.3942297073243
 20
302.3061467458921
 10
95.33333333333333
 20
302.0
 10
95.3942297073243
 20
301.6938532541079
 10
95.56764790838409
 20
301.43431457505073
 10
95.82718658744125
 20
301.260896373991
 10
96.13333333333333
 20
301.2
 10
96.4394800792254
 20
301.260896373991
 10
96.69901875828256
 20
301.43431457505073
 10
96.87243695934235
 20
301.6938532541079
 97
0
 75
0
 76
1
 98
0
  0
CIRCLE
  5
EA
330
17
100
AcDbEntity
  8
S-REBAR-MAIN
100
AcDbCircle
 10
96.13333333333333
 20
312.0
 30
0.0
 40
0.8
  0
HATCH
  5
EB
330
17
100
AcDbEntity
  8
S-REBAR-MAIN
 62
1
100
AcDbHatch
 10
0.0
 20
0.0
 30
0.0
210
0.0
220
0.0
230
1.0
  2
SOLID
 70
1
 71
0
 91
1
 92
3
 72
0
 73
1
 93
16
 10
96.93333333333332
 20
312.0
 10
96.87243695934235
 20
312.3061467458921
 10
96.69901875828256
 20
312.56568542494927
 10
96.4394800792254
 20
312.739103626009
 10
96.13333333333333
 20
312.8
 10
95.82718658744125
 20
312.739103626009
 10
95.56764790838409
 20
312.56568542494927
 10
95.3942297073243
 20
312.3061467458921
 10
95.33333333333333
 20
312.0
 10
95.3942297073243
 20
311.6938532541079
 10
95.56764790838409
 20
311.43431457505073
 10
95.82718658744125
 20
311.260896373991
 10
96.13333333333333
 20
311.2
 10
96.4394800792254
 20
311.260896373991
 10
96.69901875828256
 20
311.43431457505073
 10
96.87243695934235
 20
311.6938532541079
 97
0
 75
0
 76
1
 98
0
  0
CIRCLE
  5
EC
330
17
100
AcDbEntity
  8
S-REBAR-MAIN
100
AcDbCircle
 10
96.13333333333333
 20
322.0
 30
0.0
 40
0.8
  0
HATCH
  5
ED
330
17
100
AcDbEntity
  8
S-REBAR-MAIN
 62
1
100
AcDbHatch
 10
0.0
 20
0.0
 30
0.0
210
0.0
220
0.0
230
1.0
  2
SOLID
 70
1
 71
0
 91
1
 92
3
 72
0
 73
1
 93
16
 10
96.93333333333332
 20
322.0
 10
96.87243695934235
 20
322.3061467458921
 10
96.69901875828256
 20
322.56568542494927
 10
96.4394800792254
 20
322.739103626009
 10
96.13333333333333
 20
322.8
 10
95.82718658744125
 20
322.739103626009
 10
95.56764790838409
 20
322.56568542494927
 10
95.3942297073243
 20
322.3061467458921
 10
95.33333333333333
 20
322.0
 10
95.3942297073243
 20
321.6938532541079
 10
95.56764790838409
 20
321.43431457505073
 10
95.82718658744125
 20
321.260896373991
 10
96.13333333333333
 20
321.2
 10
96.4394800792254
 20
321.260896373991
 10
96.69901875828256
 20
321.43431457505073
 10
96.87243695934235
 20
321.6938532541079
 97
0
 75
0
 76
1
 98
0
  0
CIRCLE
  5
EE
330
17
100
AcDbEntity
  8
S-REBAR-MAIN
100
AcDbCircle
 10
96.13333333333333
 20
332.0
 30
0.0
 40
0.8
  0
HATCH
  5
EF
330
17
100
AcDbEntity
  8
S-REBAR-MAIN
 62
1
100
AcDbHatch
 10
0.0
 20
0.0
 30
0.0
210
0.0
220
0.0
230
1.0
  2
SOLID
 70
1
 71
0
 91
1
 92
3
 72
0
 73
1
 93
16
 10
96.93333333333332
 20
332.0
 10
96.87243695934235
 20
332.3061467458921
 10
96.69901875828256
 20
332.56568542494927
 10
96.4394800792254
 20
332.739103626009
 10
96.13333333333333
 20
332.8
 10
95.82718658744125
 20
332.739103626009
 10
95.56764790838409
 20
332.56568542494927
 10
95.3942297073243
 20
332.3061467458921
 10
95.33333333333333
 20
332.0
 10
95.3942297073243
 20
331.6938532541079
 10
95.56764790838409
 20
331.43431457505073
 10
95.82718658744125
 20
331.260896373991
 10
96.13333333333333
 20
331.2
 10
96.4394800792254
 20
331.260896373991
 10
96.69901875828256
 20
331.43431457505073
 10
96.87243695934235
 20
331.6938532541079
 97
0
 75
0
 76
1
 98
0
  0
CIRCLE
  5
F0
330
17
100
AcDbEntity
  8
S-REBAR-MAIN
100
AcDbCircle
 10
96.13333333333333
 20
342.0
 30
0.0
 40
0.8
  0
HATCH
  5
F1
330
17
100
AcDbEntity
  8
S-REBAR-MAIN
 62
1
100
AcDbHatch
 10
0.0
 20
0.0
 30
0.0
210
0.0
220
0.0
230
1.0
  2
SOLID
 70
1
 71
0
 91
1
 92
3
 72
0
 73
1
 93
16
 10
96.93333333333332
 20
342.0
 10
96.87243695934235
 20
342.3061467458921
 10
96.69901875828256
 20
342.56568542494927
 10
96.4394800792254
 20
342.739103626009
 10
96.13333333333333
 20
342.8
 10
95.82718658744125
 20
342.739103626009
 10
95.56764790838409
 20
342.56568542494927
 10
95.3942297073243
 20
342.3061467458921
 10
95.33333333333333
 20
342.0
 10
95.3942297073243
 20
341.6938532541079
 10
95.56764790838409
 20
341.43431457505073
 10
95.82718658744125
 20
341.260896373991
 10
96.13333333333333
 20
341.2
 10
96.4394800792254
 20
341.260896373991
 10
96.69901875828256
 20
341.43431457505073
 10
96.87243695934235
 20
341.6938532541079
 97
0
 75
0
 76
1
 98
0
  0
LWPOLYLINE
  5
F2
330
17
100
AcDbEntity
  8
S-REBAR-MAIN
100
AcDbPolyline
 90
3
 70
0
 10
230.0
 20
406.2
 10
65.86666666666666
 20
406.2
 10
65.86666666666666
 20
332.0
  0
LWPOLYLINE
  5
F3
330
17
100
AcDbEntity
  8
S-REBAR-MAIN
100
AcDbPolyline
 90
3
 70
0
 10
230.0
 20
357.8666666666667
 10
86.66666666666667
 20
357.8666666666667
 10
86.66666666666667
 20
318.6666666666667
  0
LINE
  5
F4
330
17
100
AcDbEntity
  8
S-REBAR-SEC
100
AcDbLine
 10
100.0
 20
349.3333333333333
 30
0.0
 11
104.0
 21
349.3333333333333
 31
0.0
  0
LINE
  5
F5
330
17
100
AcDbEntity
  8
S-REBAR-SEC
100
AcDbLine
 10
110.0
 20
349.3333333333333
 30
0.0
 11
104.0
 21
339.3333333333333
 31
0.0
  0
LINE
  5
F6
330
17
100
AcDbEntity
  8
S-REBAR-SEC
100
AcDbLine
 10
120.0
 20
349.3333333333333
 30
0.0
 11
104.0
 21
329.3333333333333
 31
0.0
  0
LINE
  5
F7
330
17
100
AcDbEntity
  8
S-REBAR-SEC
100
AcDbLine
 10
130.0
 20
349.3333333333333
 30
0.0
 11
104.0
 21
319.3333333333333
 31
0.0
  0
LWPOLYLINE
  5
F8
330
17
100
AcDbEntity
  8
S-REBAR-STIRRUP
100
AcDbPolyline
 90
4
 70
1
 10
63.333333333333336
 20
238.66666666666666
 10
96.66666666666666
 20
238.66666666666666
 10
96.66666666666666
 20
245.33333333333334
 10
63.333333333333336
 20
245.33333333333334
  0
LWPOLYLINE
  5
F9
330
17
100
AcDbEntity
  8
S-REBAR-STIRRUP
100
AcDbPolyline
 90
4
 70
1
 10
63.333333333333336
 20
252.0
 10
96.66666666666666
 20
252.0
 10
96.66666666666666
 20
258.6666666666667
 10
63.333333333333336
 20
258.6666666666667
  0
LWPOLYLINE
  5
FA
330
17
100
AcDbEntity
  8
S-REBAR-STIRRUP
100
AcDbPolyline
 90
4
 70
1
 10
63.333333333333336
 20
265.3333333333333
 10
96.66666666666666
 20
265.3333333333333
 10
96.66666666666666
 20
272.0
 10
63.333333333333336
 20
272.0
  0
LWPOLYLINE
  5
FB
330
17
100
AcDbEntity
  8
S-REBAR-STIRRUP
100
AcDbPolyline
 90
4
 70
1
 10
63.333333333333336
 20
278.6666666666667
 10
96.66666666666666
 20
278.6666666666667
 10
96.66666666666666
 20
285.3333333333333
 10
63.333333333333336
 20
285.3333333333333
  0
LWPOLYLINE
  5
FC
330
17
100
AcDbEntity
  8
S-REBAR-STIRRUP
100
AcDbPolyline
 90
4
 70
1
 10
63.333333333333336
 20
292.0
 10
96.66666666666666
 20
292.0
 10
96.66666666666666
 20
298.6666666666667
 10
63.333333333333336
 20
298.6666666666667
  0
LWPOLYLINE
  5
FD
330
17
100
AcDbEntity
  8
S-REBAR-STIRRUP
100
AcDbPolyline
 90
4
 70
1
 10
63.333333333333336
 20
305.3333333333333
 10
96.66666666666666
 20
305.3333333333333
 10
96.66666666666666
 20
312.0
 10
63.333333333333336
 20
312.0
  0
LWPOLYLINE
  5
FE
330
17
100
AcDbEntity
  8
S-REBAR-STIRRUP
100
AcDbPolyline
 90
4
 70
1
 10
63.333333333333336
 20
318.6666666666667
 10
96.66666666666666
 20
318.6666666666667
 10
96.66666666666666
 20
325.3333333333333
 10
63.333333333333336
 20
325.3333333333333
  0
LWPOLYLINE
  5
FF
330
17
100
AcDbEntity
  8
S-REBAR-STIRRUP
100
AcDbPolyline
 90
4
 70
1
 10
63.333333333333336
 20
332.0
 10
96.66666666666666
 20
332.0
 10
96.66666666666666
 20
338.6666666666667
 10
63.333333333333336
 20
338.6666666666667
  0
LWPOLYLINE
  5
100
330
17
100
AcDbEntity
  8
S-REBAR-STIRRUP
100
AcDbPolyline
 90
4
 70
1
 10
63.333333333333336
 20
345.3333333333333
 10
96.66666666666666
 20
345.3333333333333
 10
96.66666666666666
 20
352.0
 10
63.333333333333336
 20
352.0
  0
LWPOLYLINE
  5
101
330
17
100
AcDbEntity
  8
S-REBAR-STIRRUP
100
AcDbPolyline
 90
4
 70
1
 10
103.0
 20
357.0
 10
110.33333333333334
 20
357.0
 10
110.33333333333334
 20
407.0
 10
103.0
 20
407.0
  0
LWPOLYLINE
  5
102
330
17
100
AcDbEntity
  8
S-REBAR-STIRRUP
100
AcDbPolyline
 90
4
 70
1
 10
119.66666666666666
 20
357.0
 10
127.0
 20
357.0
 10
127.0
 20
407.0
 10
119.66666666666666
 20
407.0
  0
LWPOLYLINE
  5
103
330
17
100
AcDbEntity
  8
S-REBAR-STIRRUP
100
AcDbPolyline
 90
4
 70
1
 10
136.33333333333331
 20
357.0
 10
143.66666666666669
 20
357.0
 10
143.66666666666669
 20
407.0
 10
136.33333333333331
 20
407.0
  0
LWPOLYLINE
  5
104
330
17
100
AcDbEntity
  8
S-REBAR-STIRRUP
100
AcDbPolyline
 90
4
 70
1
 10
153.0
 20
357.0
 10
160.33333333333331
 20
357.0
 10
160.33333333333331
 20
407.0
 10
153.0
 20
407.0
  0
LWPOLYLINE
  5
105
330
17
100
AcDbEntity
  8
S-REBAR-STIRRUP
100
AcDbPolyline
 90
4
 70
1
 10
169.66666666666669
 20
357.0
 10
177.0
 20
357.0
 10
177.0
 20
407.0
 10
169.66666666666669
 20
407.0
  0
LWPOLYLINE
  5
106
330
17
100
AcDbEntity
  8
S-REBAR-STIRRUP
100
AcDbPolyline
 90
4
 70
1
 10
186.33333333333331
 20
357.0
 10
193.66666666666666
 20
357.0
 10
193.66666666666666
 20
407.0
 10
186.33333333333331
 20
407.0
  0
LWPOLYLINE
  5
107
330
17
100
AcDbEntity
  8
S-REBAR-STIRRUP
100
AcDbPolyline
 90
4
 70
1
 10
203.0
 20
357.0
 10
210.33333333333334
 20
357.0
 10
210.33333333333334
 20
407.0
 10
203.0
 20
407.0
  0
LWPOLYLINE
  5
108
330
17
100
AcDbEntity
  8
S-REBAR-STIRRUP
100
AcDbPolyline
 90
4
 70
1
 10
219.66666666666666
 20
357.0
 10
227.0
 20
357.0
 10
227.0
 20
407.0
 10
219.66666666666666
 20
407.0
  0
DIMENSION
  5
109
330
17
100
AcDbEntity
  8
S-DIM
100
AcDbDimension
280
0
  2
*D1
  3
SC-DIM
 10
260.0
 20
352.0
 30
0.0
 11
258.3
 21
382.0
 31
0.0
 70
32
 71
5
  1
<>
100
AcDbAlignedDimension
 13
233.33333333333334
 23
352.0
 33
0.0
 14
233.33333333333334
 24
412.0
 34
0.0
 50
90.0
100
AcDbRotatedDimension
1001
ACAD
1000
DSTYLE
1002
{
1070
144
1040
15.0
1002
}
  0
DIMENSION
  5
118
330
17
100
AcDbEntity
  8
S-DIM
100
AcDbDimension
280
0
  2
*D2
  3
SC-DIM
 10
60.0
 20
212.0
 30
0.0
 11
80.0
 21
213.7
 31
0.0
 70
32
 71
5
  1
<>
100
AcDbAlignedDimension
 13
60.0
 23
232.0
 33
0.0
 14
100.0
 24
232.0
 34
0.0
 50
0.0
100
AcDbRotatedDimension
1001
ACAD
1000
DSTYLE
1002
{
1070
144
1040
15.0
1002
}
  0
DIMENSION
  5
127
330
17
100
AcDbEntity
  8
S-DIM
100
AcDbDimension
280
0
  2
*D3
  3
SC-DIM
 10
100.0
 20
438.66666666666663
 30
0.0
 11
116.66666666666666
 21
440.3666666666666
 31
0.0
 70
32
 71
5
  1
<>
100
AcDbAlignedDimension
 13
100.0
 23
352.0
 33
0.0
 14
133.33333333333331
 24
352.0
 34
0.0
 50
0.0
100
AcDbRotatedDimension
1001
ACAD
1000
DSTYLE
1002
{
1070
144
1040
15.0
1002
}
  0
DIMENSION
  5
136
330
17
100
AcDbEntity
  8
S-DIM
100
AcDbDimension
280
0
  2
*D4
  3
SC-DIM
 10
65.86666666666666
 20
485.33333333333337
 30
0.0
 11
99.19999999999999
 21
487.03333333333336
 31
0.0
 70
32
 71
5
  1
<>
100
AcDbAlignedDimension
 13
65.86666666666666
 23
406.2
 33
0.0
 14
132.53333333333333
 24
406.2
 34
0.0
 50
0.0
100
AcDbRotatedDimension
1001
ACAD
1000
DSTYLE
1002
{
1070
144
1040
15.0
1002
}
  0
TEXT
  5
145
330
17
100
AcDbEntity
  8
S-TEXT
100
AcDbText
 10
140.0
 20
480.0
 30
0.0
 40
1.4
  1
Ld = 1000 (T25)
  7
OpenSans
 11
140.0
 21
480.0
 31
0.0
100
AcDbText
  0
INSERT
  5
146
330
17
100
AcDbEntity
  8
S-LEVEL
100
AcDbBlockReference
  2
LEVELMK
 10
173.33333333333331
 20
412.0
 30
0.0
  0
TEXT
  5
148
330
17
100
AcDbEntity
  8
S-LEVEL
100
AcDbText
 10
176.33333333333331
 20
415.2
 30
0.0
 40
1.8
  1
(-)2.000
  7
OpenSans
 11
176.33333333333331
 21
415.2
 31
0.0
100
AcDbText
  0
INSERT
  5
149
330
17
100
AcDbEntity
  8
S-LEVEL
100
AcDbBlockReference
  2
LEVELMK
 10
173.33333333333331
 20
352.0
 30
0.0
  0
TEXT
  5
14B
330
17
100
AcDbEntity
  8
S-LEVEL
100
AcDbText
 10
176.33333333333331
 20
355.2
 30
0.0
 40
1.8
  1
(-)2.900
  7
OpenSans
 11
176.33333333333331
 21
355.2
 31
0.0
100
AcDbText
  0
INSERT
  5
14C
330
17
100
AcDbEntity
  8
S-CALLOUT
100
AcDbBlockReference
  2
BARMARK
 10
252.0
 20
408.0
 30
0.0
  0
TEXT
  5
14E
330
17
100
AcDbEntity
  8
S-CALLOUT
100
AcDbText
 10
252.0
 20
408.0
 30
0.0
 40
2.0
  1
S03A
  7
OpenSans
 72
1
 11
252.0
 21
408.0
 31
0.0
100
AcDbText
 73
2
  0
LEADER
  5
14F
330
17
100
AcDbEntity
  8
S-CALLOUT
100
AcDbLeader
  3
SC-DIM
 73
3
 76
2
 10
160.0
 20
406.2
 30
0.0
 10
252.0
 20
408.0
 30
0.0
  0
INSERT
  5
150
330
17
100
AcDbEntity
  8
S-CALLOUT
100
AcDbBlockReference
  2
BARMARK
 10
252.0
 20
368.0
 30
0.0
  0
TEXT
  5
152
330
17
100
AcDbEntity
  8
S-CALLOUT
100
AcDbText
 10
252.0
 20
368.0
 30
0.0
 40
2.0
  1
S01A
  7
OpenSans
 72
1
 11
252.0
 21
368.0
 31
0.0
100
AcDbText
 73
2
  0
LEADER
  5
153
330
17
100
AcDbEntity
  8
S-CALLOUT
100
AcDbLeader
  3
SC-DIM
 73
3
 76
2
 10
160.0
 20
357.8666666666667
 30
0.0
 10
252.0
 20
368.0
 30
0.0
  0
INSERT
  5
154
330
17
100
AcDbEntity
  8
S-CALLOUT
100
AcDbBlockReference
  2
BARMARK
 10
140.0
 20
330.0
 30
0.0
  0
TEXT
  5
156
330
17
100
AcDbEntity
  8
S-CALLOUT
100
AcDbText
 10
140.0
 20
330.0
 30
0.0
 40
2.0
  1
W06
  7
OpenSans
 72
1
 11
140.0
 21
330.0
 31
0.0
100
AcDbText
 73
2
  0
LEADER
  5
157
330
17
100
AcDbEntity
  8
S-CALLOUT
100
AcDbLeader
  3
SC-DIM
 73
3
 76
2
 10
115.33333333333334
 20
338.6666666666667
 30
0.0
 10
140.0
 20
330.0
 30
0.0
  0
INSERT
  5
158
330
17
100
AcDbEntity
  8
S-CALLOUT
100
AcDbBlockReference
  2
BARMARK
 10
34.0
 20
300.0
 30
0.0
  0
TEXT
  5
15A
330
17
100
AcDbEntity
  8
S-CALLOUT
100
AcDbText
 10
34.0
 20
300.0
 30
0.0
 40
2.0
  1
W01
  7
OpenSans
 72
1
 11
34.0
 21
300.0
 31
0.0
100
AcDbText
 73
2
  0
LEADER
  5
15B
330
17
100
AcDbEntity
  8
S-CALLOUT
100
AcDbLeader
  3
SC-DIM
 73
3
 76
2
 10
63.86666666666667
 20
292.0
 30
0.0
 10
34.0
 20
300.0
 30
0.0
  0
TEXT
  5
15C
330
17
100
AcDbEntity
  8
S-TITLE
100
AcDbText
 10
30.0
 20
500.0
 30
0.0
 40
3.5
  1
V1   ROOF / PERIMETER WALL JUNCTION - 500 x 500 HAUNCH
  7
OpenSans
 11
30.0
 21
500.0
 31
0.0
100
AcDbText
  0
LINE
  5
15D
330
17
100
AcDbEntity
  8
S-TITLE
100
AcDbLine
 10
30.0
 20
498.2
 30
0.0
 11
177.92129939718689
 21
498.2
 31
0.0
  0
TEXT
  5
15E
330
17
100
AcDbEntity
  8
S-TEXT
100
AcDbText
 10
30.0
 20
492.8
 30
0.0
 40
2.0
  1
SCALE 1:15
  7
OpenSans
 11
30.0
 21
492.8
 31
0.0
100
AcDbText
  0
LWPOLYLINE
  5
15F
330
17
100
AcDbEntity
  8
S-CONCRETE
100
AcDbPolyline
 90
4
 70
1
 10
330.0
 20
340.0
 10
530.0
 20
340.0
 10
530.0
 20
376.0
 10
330.0
 20
376.0
  0
HATCH
  5
160
330
17
100
AcDbEntity
  8
S-HATCH
 62
7
100
AcDbHatch
 10
0.0
 20
0.0
 30
0.0
210
0.0
220
0.0
230
1.0
  2
ANSI31
 70
0
 71
0
 91
1
 92
3
 72
0
 73
1
 93
4
 10
330.0
 20
340.0
 10
530.0
 20
340.0
 10
530.0
 20
376.0
 10
330.0
 20
376.0
 97
0
 75
1
 76
1
 52
0.0
 41
1.6
 77
0
 78
1
 53
45.0
 43
0.0
 44
0.0
 45
-3.5921024485
 46
3.5921024485
 79
0
 98
0
  0
LWPOLYLINE
  5
161
330
17
100
AcDbEntity
  8
S-CONCRETE
100
AcDbPolyline
 90
4
 70
1
 10
422.0
 20
376.0
 10
438.0
 20
376.0
 10
438.0
 20
472.0
 10
422.0
 20
472.0
  0
HATCH
  5
162
330
17
100
AcDbEntity
  8
S-HATCH
 62
7
100
AcDbHatch
 10
0.0
 20
0.0
 30
0.0
210
0.0
220
0.0
230
1.0
  2
ANSI31
 70
0
 71
0
 91
1
 92
3
 72
0
 73
1
 93
4
 10
422.0
 20
376.0
 10
438.0
 20
376.0
 10
438.0
 20
472.0
 10
422.0
 20
472.0
 97
0
 75
1
 76
1
 52
0.0
 41
1.6
 77
0
 78
1
 53
45.0
 43
0.0
 44
0.0
 45
-3.5921024485
 46
3.5921024485
 79
0
 98
0
  0
LWPOLYLINE
  5
163
330
17
100
AcDbEntity
  8
S-REBAR-SEC
100
AcDbPolyline
 90
4
 70
1
 10
406.0
 20
340.0
 10
454.0
 20
340.0
 10
454.0
 20
376.0
 10
406.0
 20
376.0
  0
CIRCLE
  5
164
330
17
100
AcDbEntity
  8
S-REBAR-SEC
100
AcDbCircle
 10
412.0
 20
372.52
 30
0.0
 40
1.1
  0
HATCH
  5
165
330
17
100
AcDbEntity
  8
S-REBAR-SEC
 62
4
100
AcDbHatch
 10
0.0
 20
0.0
 30
0.0
210
0.0
220
0.0
230
1.0
  2
SOLID
 70
1
 71
0
 91
1
 92
3
 72
0
 73
1
 93
16
 10
413.1
 20
372.52
 10
413.0162674857624
 20
372.9409517756016
 10
412.7778174593052
 20
373.2978174593052
 10
412.4209517756016
 20
373.5362674857624
 10
412.0
 20
373.62
 10
411.5790482243984
 20
373.5362674857624
 10
411.2221825406948
 20
373.2978174593052
 10
410.9837325142376
 20
372.9409517756016
 10
410.9
 20
372.52
 10
410.9837325142376
 20
372.09904822439836
 10
411.2221825406948
 20
371.7421825406948
 10
411.5790482243984
 20
371.5037325142376
 10
412.0
 20
371.41999999999996
 10
412.4209517756016
 20
371.5037325142376
 10
412.7778174593052
 20
371.7421825406948
 10
413.0162674857624
 20
372.09904822439836
 97
0
 75
0
 76
1
 98
0
  0
CIRCLE
  5
166
330
17
100
AcDbEntity
  8
S-REBAR-SEC
100
AcDbCircle
 10
412.0
 20
343.52
 30
0.0
 40
1.1
  0
HATCH
  5
167
330
17
100
AcDbEntity
  8
S-REBAR-SEC
 62
4
100
AcDbHatch
 10
0.0
 20
0.0
 30
0.0
210
0.0
220
0.0
230
1.0
  2
SOLID
 70
1
 71
0
 91
1
 92
3
 72
0
 73
1
 93
16
 10
413.1
 20
343.52
 10
413.0162674857624
 20
343.9409517756016
 10
412.7778174593052
 20
344.2978174593052
 10
412.4209517756016
 20
344.5362674857624
 10
412.0
 20
344.62
 10
411.5790482243984
 20
344.5362674857624
 10
411.2221825406948
 20
344.2978174593052
 10
410.9837325142376
 20
343.9409517756016
 10
410.9
 20
343.52
 10
410.9837325142376
 20
343.09904822439836
 10
411.2221825406948
 20
342.7421825406948
 10
411.5790482243984
 20
342.5037325142376
 10
412.0
 20
342.41999999999996
 10
412.4209517756016
 20
342.5037325142376
 10
412.7778174593052
 20
342.7421825406948
 10
413.0162674857624
 20
343.09904822439836
 97
0
 75
0
 76
1
 98
0
  0
CIRCLE
  5
168
330
17
100
AcDbEntity
  8
S-REBAR-SEC
100
AcDbCircle
 10
424.0
 20
372.52
 30
0.0
 40
1.1
  0
HATCH
  5
169
330
17
100
AcDbEntity
  8
S-REBAR-SEC
 62
4
100
AcDbHatch
 10
0.0
 20
0.0
 30
0.0
210
0.0
220
0.0
230
1.0
  2
SOLID
 70
1
 71
0
 91
1
 92
3
 72
0
 73
1
 93
16
 10
425.1
 20
372.52
 10
425.0162674857624
 20
372.9409517756016
 10
424.7778174593052
 20
373.2978174593052
 10
424.4209517756016
 20
373.5362674857624
 10
424.0
 20
373.62
 10
423.5790482243984
 20
373.5362674857624
 10
423.2221825406948
 20
373.2978174593052
 10
422.9837325142376
 20
372.9409517756016
 10
422.9
 20
372.52
 10
422.9837325142376
 20
372.09904822439836
 10
423.2221825406948
 20
371.7421825406948
 10
423.5790482243984
 20
371.5037325142376
 10
424.0
 20
371.41999999999996
 10
424.4209517756016
 20
371.5037325142376
 10
424.7778174593052
 20
371.7421825406948
 10
425.0162674857624
 20
372.09904822439836
 97
0
 75
0
 76
1
 98
0
  0
CIRCLE
  5
16A
330
17
100
AcDbEntity
  8
S-REBAR-SEC
100
AcDbCircle
 10
424.0
 20
343.52
 30
0.0
 40
1.1
  0
HATCH
  5
16B
330
17
100
AcDbEntity
  8
S-REBAR-SEC
 62
4
100
AcDbHatch
 10
0.0
 20
0.0
 30
0.0
210
0.0
220
0.0
230
1.0
  2
SOLID
 70
1
 71
0
 91
1
 92
3
 72
0
 73
1
 93
16
 10
425.1
 20
343.52
 10
425.0162674857624
 20
343.9409517756016
 10
424.7778174593052
 20
344.2978174593052
 10
424.4209517756016
 20
344.5362674857624
 10
424.0
 20
344.62
 10
423.5790482243984
 20
344.5362674857624
 10
423.2221825406948
 20
344.2978174593052
 10
422.9837325142376
 20
343.9409517756016
 10
422.9
 20
343.52
 10
422.9837325142376
 20
343.09904822439836
 10
423.2221825406948
 20
342.7421825406948
 10
423.5790482243984
 20
342.5037325142376
 10
424.0
 20
342.41999999999996
 10
424.4209517756016
 20
342.5037325142376
 10
424.7778174593052
 20
342.7421825406948
 10
425.0162674857624
 20
343.09904822439836
 97
0
 75
0
 76
1
 98
0
  0
CIRCLE
  5
16C
330
17
100
AcDbEntity
  8
S-REBAR-SEC
100
AcDbCircle
 10
436.0
 20
372.52
 30
0.0
 40
1.1
  0
HATCH
  5
16D
330
17
100
AcDbEntity
  8
S-REBAR-SEC
 62
4
100
AcDbHatch
 10
0.0
 20
0.0
 30
0.0
210
0.0
220
0.0
230
1.0
  2
SOLID
 70
1
 71
0
 91
1
 92
3
 72
0
 73
1
 93
16
 10
437.1
 20
372.52
 10
437.0162674857624
 20
372.9409517756016
 10
436.7778174593052
 20
373.2978174593052
 10
436.4209517756016
 20
373.5362674857624
 10
436.0
 20
373.62
 10
435.5790482243984
 20
373.5362674857624
 10
435.2221825406948
 20
373.2978174593052
 10
434.9837325142376
 20
372.9409517756016
 10
434.9
 20
372.52
 10
434.9837325142376
 20
372.09904822439836
 10
435.2221825406948
 20
371.7421825406948
 10
435.5790482243984
 20
371.5037325142376
 10
436.0
 20
371.41999999999996
 10
436.4209517756016
 20
371.5037325142376
 10
436.7778174593052
 20
371.7421825406948
 10
437.0162674857624
 20
372.09904822439836
 97
0
 75
0
 76
1
 98
0
  0
CIRCLE
  5
16E
330
17
100
AcDbEntity
  8
S-REBAR-SEC
100
AcDbCircle
 10
436.0
 20
343.52
 30
0.0
 40
1.1
  0
HATCH
  5
16F
330
17
100
AcDbEntity
  8
S-REBAR-SEC
 62
4
100
AcDbHatch
 10
0.0
 20
0.0
 30
0.0
210
0.0
220
0.0
230
1.0
  2
SOLID
 70
1
 71
0
 91
1
 92
3
 72
0
 73
1
 93
16
 10
437.1
 20
343.52
 10
437.0162674857624
 20
343.9409517756016
 10
436.7778174593052
 20
344.2978174593052
 10
436.4209517756016
 20
344.5362674857624
 10
436.0
 20
344.62
 10
435.5790482243984
 20
344.5362674857624
 10
435.2221825406948
 20
344.2978174593052
 10
434.9837325142376
 20
343.9409517756016
 10
434.9
 20
343.52
 10
434.9837325142376
 20
343.09904822439836
 10
435.2221825406948
 20
342.7421825406948
 10
435.5790482243984
 20
342.5037325142376
 10
436.0
 20
342.41999999999996
 10
436.4209517756016
 20
342.5037325142376
 10
436.7778174593052
 20
342.7421825406948
 10
437.0162674857624
 20
343.09904822439836
 97
0
 75
0
 76
1
 98
0
  0
CIRCLE
  5
170
330
17
100
AcDbEntity
  8
S-REBAR-SEC
100
AcDbCircle
 10
448.0
 20
372.52
 30
0.0
 40
1.1
  0
HATCH
  5
171
330
17
100
AcDbEntity
  8
S-REBAR-SEC
 62
4
100
AcDbHatch
 10
0.0
 20
0.0
 30
0.0
210
0.0
220
0.0
230
1.0
  2
SOLID
 70
1
 71
0
 91
1
 92
3
 72
0
 73
1
 93
16
 10
449.1
 20
372.52
 10
449.0162674857624
 20
372.9409517756016
 10
448.7778174593052
 20
373.2978174593052
 10
448.4209517756016
 20
373.5362674857624
 10
448.0
 20
373.62
 10
447.5790482243984
 20
373.5362674857624
 10
447.2221825406948
 20
373.2978174593052
 10
446.9837325142376
 20
372.9409517756016
 10
446.9
 20
372.52
 10
446.9837325142376
 20
372.09904822439836
 10
447.2221825406948
 20
371.7421825406948
 10
447.5790482243984
 20
371.5037325142376
 10
448.0
 20
371.41999999999996
 10
448.4209517756016
 20
371.5037325142376
 10
448.7778174593052
 20
371.7421825406948
 10
449.0162674857624
 20
372.09904822439836
 97
0
 75
0
 76
1
 98
0
  0
CIRCLE
  5
172
330
17
100
AcDbEntity
  8
S-REBAR-SEC
100
AcDbCircle
 10
448.0
 20
343.52
 30
0.0
 40
1.1
  0
HATCH
  5
173
330
17
100
AcDbEntity
  8
S-REBAR-SEC
 62
4
100
AcDbHatch
 10
0.0
 20
0.0
 30
0.0
210
0.0
220
0.0
230
1.0
  2
SOLID
 70
1
 71
0
 91
1
 92
3
 72
0
 73
1
 93
16
 10
449.1
 20
343.52
 10
449.0162674857624
 20
343.9409517756016
 10
448.7778174593052
 20
344.2978174593052
 10
448.4209517756016
 20
344.5362674857624
 10
448.0
 20
344.62
 10
447.5790482243984
 20
344.5362674857624
 10
447.2221825406948
 20
344.2978174593052
 10
446.9837325142376
 20
343.9409517756016
 10
446.9
 20
343.52
 10
446.9837325142376
 20
343.09904822439836
 10
447.2221825406948
 20
342.7421825406948
 10
447.5790482243984
 20
342.5037325142376
 10
448.0
 20
342.41999999999996
 10
448.4209517756016
 20
342.5037325142376
 10
448.7778174593052
 20
342.7421825406948
 10
449.0162674857624
 20
343.09904822439836
 97
0
 75
0
 76
1
 98
0
  0
CIRCLE
  5
174
330
17
100
AcDbEntity
  8
S-REBAR-MAIN
100
AcDbCircle
 10
334.0
 20
372.52
 30
0.0
 40
0.6
  0
HATCH
  5
175
330
17
100
AcDbEntity
  8
S-REBAR-MAIN
 62
1
100
AcDbHatch
 10
0.0
 20
0.0
 30
0.0
210
0.0
220
0.0
230
1.0
  2
SOLID
 70
1
 71
0
 91
1
 92
3
 72
0
 73
1
 93
16
 10
334.6
 20
372.52
 10
334.5543277195068
 20
372.749610059419
 10
334.4242640687119
 20
372.9442640687119
 10
334.22961005941903
 20
373.07432771950675
 10
334.0
 20
373.12
 10
333.77038994058097
 20
373.07432771950675
 10
333.5757359312881
 20
372.9442640687119
 10
333.4456722804932
 20
372.749610059419
 10
333.4
 20
372.52
 10
333.4456722804932
 20
372.29038994058095
 10
333.5757359312881
 20
372.09573593128806
 10
333.77038994058097
 20
371.9656722804932
 10
334.0
 20
371.91999999999996
 10
334.22961005941903
 20
371.9656722804932
 10
334.4242640687119
 20
372.09573593128806
 10
334.5543277195068
 20
372.29038994058095
 97
0
 75
0
 76
1
 98
0
  0
CIRCLE
  5
176
330
17
100
AcDbEntity
  8
S-REBAR-MAIN
100
AcDbCircle
 10
340.0
 20
372.52
 30
0.0
 40
0.6
  0
HATCH
  5
177
330
17
100
AcDbEntity
  8
S-REBAR-MAIN
 62
1
100
AcDbHatch
 10
0.0
 20
0.0
 30
0.0
210
0.0
220
0.0
230
1.0
  2
SOLID
 70
1
 71
0
 91
1
 92
3
 72
0
 73
1
 93
16
 10
340.6
 20
372.52
 10
340.5543277195068
 20
372.749610059419
 10
340.4242640687119
 20
372.9442640687119
 10
340.22961005941903
 20
373.07432771950675
 10
340.0
 20
373.12
 10
339.77038994058097
 20
373.07432771950675
 10
339.5757359312881
 20
372.9442640687119
 10
339.4456722804932
 20
372.749610059419
 10
339.4
 20
372.52
 10
339.4456722804932
 20
372.29038994058095
 10
339.5757359312881
 20
372.09573593128806
 10
339.77038994058097
 20
371.9656722804932
 10
340.0
 20
371.91999999999996
 10
340.22961005941903
 20
371.9656722804932
 10
340.4242640687119
 20
372.09573593128806
 10
340.5543277195068
 20
372.29038994058095
 97
0
 75
0
 76
1
 98
0
  0
CIRCLE
  5
178
330
17
100
AcDbEntity
  8
S-REBAR-MAIN
100
AcDbCircle
 10
346.0
 20
372.52
 30
0.0
 40
0.6
  0
HATCH
  5
179
330
17
100
AcDbEntity
  8
S-REBAR-MAIN
 62
1
100
AcDbHatch
 10
0.0
 20
0.0
 30
0.0
210
0.0
220
0.0
230
1.0
  2
SOLID
 70
1
 71
0
 91
1
 92
3
 72
0
 73
1
 93
16
 10
346.6
 20
372.52
 10
346.5543277195068
 20
372.749610059419
 10
346.4242640687119
 20
372.9442640687119
 10
346.22961005941903
 20
373.07432771950675
 10
346.0
 20
373.12
 10
345.77038994058097
 20
373.07432771950675
 10
345.5757359312881
 20
372.9442640687119
 10
345.4456722804932
 20
372.749610059419
 10
345.4
 20
372.52
 10
345.4456722804932
 20
372.29038994058095
 10
345.5757359312881
 20
372.09573593128806
 10
345.77038994058097
 20
371.9656722804932
 10
346.0
 20
371.91999999999996
 10
346.22961005941903
 20
371.9656722804932
 10
346.4242640687119
 20
372.09573593128806
 10
346.5543277195068
 20
372.29038994058095
 97
0
 75
0
 76
1
 98
0
  0
CIRCLE
  5
17A
330
17
100
AcDbEntity
  8
S-REBAR-MAIN
100
AcDbCircle
 10
352.0
 20
372.52
 30
0.0
 40
0.6
  0
HATCH
  5
17B
330
17
100
AcDbEntity
  8
S-REBAR-MAIN
 62
1
100
AcDbHatch
 10
0.0
 20
0.0
 30
0.0
210
0.0
220
0.0
230
1.0
  2
SOLID
 70
1
 71
0
 91
1
 92
3
 72
0
 73
1
 93
16
 10
352.6
 20
372.52
 10
352.5543277195068
 20
372.749610059419
 10
352.4242640687119
 20
372.9442640687119
 10
352.22961005941903
 20
373.07432771950675
 10
352.0
 20
373.12
 10
351.77038994058097
 20
373.07432771950675
 10
351.5757359312881
 20
372.9442640687119
 10
351.4456722804932
 20
372.749610059419
 10
351.4
 20
372.52
 10
351.4456722804932
 20
372.29038994058095
 10
351.5757359312881
 20
372.09573593128806
 10
351.77038994058097
 20
371.9656722804932
 10
352.0
 20
371.91999999999996
 10
352.22961005941903
 20
371.9656722804932
 10
352.4242640687119
 20
372.09573593128806
 10
352.5543277195068
 20
372.29038994058095
 97
0
 75
0
 76
1
 98
0
  0
CIRCLE
  5
17C
330
17
100
AcDbEntity
  8
S-REBAR-MAIN
100
AcDbCircle
 10
358.0
 20
372.52
 30
0.0
 40
0.6
  0
HATCH
  5
17D
330
17
100
AcDbEntity
  8
S-REBAR-MAIN
 62
1
100
AcDbHatch
 10
0.0
 20
0.0
 30
0.0
210
0.0
220
0.0
230
1.0
  2
SOLID
 70
1
 71
0
 91
1
 92
3
 72
0
 73
1
 93
16
 10
358.6
 20
372.52
 10
358.5543277195068
 20
372.749610059419
 10
358.4242640687119
 20
372.9442640687119
 10
358.22961005941903
 20
373.07432771950675
 10
358.0
 20
373.12
 10
357.77038994058097
 20
373.07432771950675
 10
357.5757359312881
 20
372.9442640687119
 10
357.4456722804932
 20
372.749610059419
 10
357.4
 20
372.52
 10
357.4456722804932
 20
372.29038994058095
 10
357.5757359312881
 20
372.09573593128806
 10
357.77038994058097
 20
371.9656722804932
 10
358.0
 20
371.91999999999996
 10
358.22961005941903
 20
371.9656722804932
 10
358.4242640687119
 20
372.09573593128806
 10
358.5543277195068
 20
372.29038994058095
 97
0
 75
0
 76
1
 98
0
  0
CIRCLE
  5
17E
330
17
100
AcDbEntity
  8
S-REBAR-MAIN
100
AcDbCircle
 10
364.0
 20
372.52
 30
0.0
 40
0.6
  0
HATCH
  5
17F
330
17
100
AcDbEntity
  8
S-REBAR-MAIN
 62
1
100
AcDbHatch
 10
0.0
 20
0.0
 30
0.0
210
0.0
220
0.0
230
1.0
  2
SOLID
 70
1
 71
0
 91
1
 92
3
 72
0
 73
1
 93
16
 10
364.6
 20
372.52
 10
364.5543277195068
 20
372.749610059419
 10
364.4242640687119
 20
372.9442640687119
 10
364.22961005941903
 20
373.07432771950675
 10
364.0
 20
373.12
 10
363.77038994058097
 20
373.07432771950675
 10
363.5757359312881
 20
372.9442640687119
 10
363.4456722804932
 20
372.749610059419
 10
363.4
 20
372.52
 10
363.4456722804932
 20
372.29038994058095
 10
363.5757359312881
 20
372.09573593128806
 10
363.77038994058097
 20
371.9656722804932
 10
364.0
 20
371.91999999999996
 10
364.22961005941903
 20
371.9656722804932
 10
364.4242640687119
 20
372.09573593128806
 10
364.5543277195068
 20
372.29038994058095
 97
0
 75
0
 76
1
 98
0
  0
CIRCLE
  5
180
330
17
100
AcDbEntity
  8
S-REBAR-MAIN
100
AcDbCircle
 10
370.0
 20
372.52
 30
0.0
 40
0.6
  0
HATCH
  5
181
330
17
100
AcDbEntity
  8
S-REBAR-MAIN
 62
1
100
AcDbHatch
 10
0.0
 20
0.0
 30
0.0
210
0.0
220
0.0
230
1.0
  2
SOLID
 70
1
 71
0
 91
1
 92
3
 72
0
 73
1
 93
16
 10
370.6
 20
372.52
 10
370.5543277195068
 20
372.749610059419
 10
370.4242640687119
 20
372.9442640687119
 10
370.22961005941903
 20
373.07432771950675
 10
370.0
 20
373.12
 10
369.77038994058097
 20
373.07432771950675
 10
369.5757359312881
 20
372.9442640687119
 10
369.4456722804932
 20
372.749610059419
 10
369.4
 20
372.52
 10
369.4456722804932
 20
372.29038994058095
 10
369.5757359312881
 20
372.09573593128806
 10
369.77038994058097
 20
371.9656722804932
 10
370.0
 20
371.91999999999996
 10
370.22961005941903
 20
371.9656722804932
 10
370.4242640687119
 20
372.09573593128806
 10
370.5543277195068
 20
372.29038994058095
 97
0
 75
0
 76
1
 98
0
  0
CIRCLE
  5
182
330
17
100
AcDbEntity
  8
S-REBAR-MAIN
100
AcDbCircle
 10
376.0
 20
372.52
 30
0.0
 40
0.6
  0
HATCH
  5
183
330
17
100
AcDbEntity
  8
S-REBAR-MAIN
 62
1
100
AcDbHatch
 10
0.0
 20
0.0
 30
0.0
210
0.0
220
0.0
230
1.0
  2
SOLID
 70
1
 71
0
 91
1
 92
3
 72
0
 73
1
 93
16
 10
376.6
 20
372.52
 10
376.5543277195068
 20
372.749610059419
 10
376.4242640687119
 20
372.9442640687119
 10
376.22961005941903
 20
373.07432771950675
 10
376.0
 20
373.12
 10
375.77038994058097
 20
373.07432771950675
 10
375.5757359312881
 20
372.9442640687119
 10
375.4456722804932
 20
372.749610059419
 10
375.4
 20
372.52
 10
375.4456722804932
 20
372.29038994058095
 10
375.5757359312881
 20
372.09573593128806
 10
375.77038994058097
 20
371.9656722804932
 10
376.0
 20
371.91999999999996
 10
376.22961005941903
 20
371.9656722804932
 10
376.4242640687119
 20
372.09573593128806
 10
376.5543277195068
 20
372.29038994058095
 97
0
 75
0
 76
1
 98
0
  0
CIRCLE
  5
184
330
17
100
AcDbEntity
  8
S-REBAR-MAIN
100
AcDbCircle
 10
382.0
 20
372.52
 30
0.0
 40
0.6
  0
HATCH
  5
185
330
17
100
AcDbEntity
  8
S-REBAR-MAIN
 62
1
100
AcDbHatch
 10
0.0
 20
0.0
 30
0.0
210
0.0
220
0.0
230
1.0
  2
SOLID
 70
1
 71
0
 91
1
 92
3
 72
0
 73
1
 93
16
 10
382.6
 20
372.52
 10
382.5543277195068
 20
372.749610059419
 10
382.4242640687119
 20
372.9442640687119
 10
382.22961005941903
 20
373.07432771950675
 10
382.0
 20
373.12
 10
381.77038994058097
 20
373.07432771950675
 10
381.5757359312881
 20
372.9442640687119
 10
381.4456722804932
 20
372.749610059419
 10
381.4
 20
372.52
 10
381.4456722804932
 20
372.29038994058095
 10
381.5757359312881
 20
372.09573593128806
 10
381.77038994058097
 20
371.9656722804932
 10
382.0
 20
371.91999999999996
 10
382.22961005941903
 20
371.9656722804932
 10
382.4242640687119
 20
372.09573593128806
 10
382.5543277195068
 20
372.29038994058095
 97
0
 75
0
 76
1
 98
0
  0
CIRCLE
  5
186
330
17
100
AcDbEntity
  8
S-REBAR-MAIN
100
AcDbCircle
 10
388.0
 20
372.52
 30
0.0
 40
0.6
  0
HATCH
  5
187
330
17
100
AcDbEntity
  8
S-REBAR-MAIN
 62
1
100
AcDbHatch
 10
0.0
 20
0.0
 30
0.0
210
0.0
220
0.0
230
1.0
  2
SOLID
 70
1
 71
0
 91
1
 92
3
 72
0
 73
1
 93
16
 10
388.6
 20
372.52
 10
388.5543277195068
 20
372.749610059419
 10
388.4242640687119
 20
372.9442640687119
 10
388.22961005941903
 20
373.07432771950675
 10
388.0
 20
373.12
 10
387.77038994058097
 20
373.07432771950675
 10
387.5757359312881
 20
372.9442640687119
 10
387.4456722804932
 20
372.749610059419
 10
387.4
 20
372.52
 10
387.4456722804932
 20
372.29038994058095
 10
387.5757359312881
 20
372.09573593128806
 10
387.77038994058097
 20
371.9656722804932
 10
388.0
 20
371.91999999999996
 10
388.22961005941903
 20
371.9656722804932
 10
388.4242640687119
 20
372.09573593128806
 10
388.5543277195068
 20
372.29038994058095
 97
0
 75
0
 76
1
 98
0
  0
CIRCLE
  5
188
330
17
100
AcDbEntity
  8
S-REBAR-MAIN
100
AcDbCircle
 10
394.0
 20
372.52
 30
0.0
 40
0.6
  0
HATCH
  5
189
330
17
100
AcDbEntity
  8
S-REBAR-MAIN
 62
1
100
AcDbHatch
 10
0.0
 20
0.0
 30
0.0
210
0.0
220
0.0
230
1.0
  2
SOLID
 70
1
 71
0
 91
1
 92
3
 72
0
 73
1
 93
16
 10
394.6
 20
372.52
 10
394.5543277195068
 20
372.749610059419
 10
394.4242640687119
 20
372.9442640687119
 10
394.22961005941903
 20
373.07432771950675
 10
394.0
 20
373.12
 10
393.77038994058097
 20
373.07432771950675
 10
393.5757359312881
 20
372.9442640687119
 10
393.4456722804932
 20
372.749610059419
 10
393.4
 20
372.52
 10
393.4456722804932
 20
372.29038994058095
 10
393.5757359312881
 20
372.09573593128806
 10
393.77038994058097
 20
371.9656722804932
 10
394.0
 20
371.91999999999996
 10
394.22961005941903
 20
371.9656722804932
 10
394.4242640687119
 20
372.09573593128806
 10
394.5543277195068
 20
372.29038994058095
 97
0
 75
0
 76
1
 98
0
  0
CIRCLE
  5
18A
330
17
100
AcDbEntity
  8
S-REBAR-MAIN
100
AcDbCircle
 10
400.0
 20
372.52
 30
0.0
 40
0.6
  0
HATCH
  5
18B
330
17
100
AcDbEntity
  8
S-REBAR-MAIN
 62
1
100
AcDbHatch
 10
0.0
 20
0.0
 30
0.0
210
0.0
220
0.0
230
1.0
  2
SOLID
 70
1
 71
0
 91
1
 92
3
 72
0
 73
1
 93
16
 10
400.6
 20
372.52
 10
400.5543277195068
 20
372.749610059419
 10
400.4242640687119
 20
372.9442640687119
 10
400.22961005941903
 20
373.07432771950675
 10
400.0
 20
373.12
 10
399.77038994058097
 20
373.07432771950675
 10
399.5757359312881
 20
372.9442640687119
 10
399.4456722804932
 20
372.749610059419
 10
399.4
 20
372.52
 10
399.4456722804932
 20
372.29038994058095
 10
399.5757359312881
 20
372.09573593128806
 10
399.77038994058097
 20
371.9656722804932
 10
400.0
 20
371.91999999999996
 10
400.22961005941903
 20
371.9656722804932
 10
400.4242640687119
 20
372.09573593128806
 10
400.5543277195068
 20
372.29038994058095
 97
0
 75
0
 76
1
 98
0
  0
CIRCLE
  5
18C
330
17
100
AcDbEntity
  8
S-REBAR-MAIN
100
AcDbCircle
 10
406.0
 20
372.52
 30
0.0
 40
0.6
  0
HATCH
  5
18D
330
17
100
AcDbEntity
  8
S-REBAR-MAIN
 62
1
100
AcDbHatch
 10
0.0
 20
0.0
 30
0.0
210
0.0
220
0.0
230
1.0
  2
SOLID
 70
1
 71
0
 91
1
 92
3
 72
0
 73
1
 93
16
 10
406.6
 20
372.52
 10
406.5543277195068
 20
372.749610059419
 10
406.4242640687119
 20
372.9442640687119
 10
406.22961005941903
 20
373.07432771950675
 10
406.0
 20
373.12
 10
405.77038994058097
 20
373.07432771950675
 10
405.5757359312881
 20
372.9442640687119
 10
405.4456722804932
 20
372.749610059419
 10
405.4
 20
372.52
 10
405.4456722804932
 20
372.29038994058095
 10
405.5757359312881
 20
372.09573593128806
 10
405.77038994058097
 20
371.9656722804932
 10
406.0
 20
371.91999999999996
 10
406.22961005941903
 20
371.9656722804932
 10
406.4242640687119
 20
372.09573593128806
 10
406.5543277195068
 20
372.29038994058095
 97
0
 75
0
 76
1
 98
0
  0
CIRCLE
  5
18E
330
17
100
AcDbEntity
  8
S-REBAR-MAIN
100
AcDbCircle
 10
412.0
 20
372.52
 30
0.0
 40
0.6
  0
HATCH
  5
18F
330
17
100
AcDbEntity
  8
S-REBAR-MAIN
 62
1
100
AcDbHatch
 10
0.0
 20
0.0
 30
0.0
210
0.0
220
0.0
230
1.0
  2
SOLID
 70
1
 71
0
 91
1
 92
3
 72
0
 73
1
 93
16
 10
412.6
 20
372.52
 10
412.5543277195068
 20
372.749610059419
 10
412.4242640687119
 20
372.9442640687119
 10
412.22961005941903
 20
373.07432771950675
 10
412.0
 20
373.12
 10
411.77038994058097
 20
373.07432771950675
 10
411.5757359312881
 20
372.9442640687119
 10
411.4456722804932
 20
372.749610059419
 10
411.4
 20
372.52
 10
411.4456722804932
 20
372.29038994058095
 10
411.5757359312881
 20
372.09573593128806
 10
411.77038994058097
 20
371.9656722804932
 10
412.0
 20
371.91999999999996
 10
412.22961005941903
 20
371.9656722804932
 10
412.4242640687119
 20
372.09573593128806
 10
412.5543277195068
 20
372.29038994058095
 97
0
 75
0
 76
1
 98
0
  0
CIRCLE
  5
190
330
17
100
AcDbEntity
  8
S-REBAR-MAIN
100
AcDbCircle
 10
418.0
 20
372.52
 30
0.0
 40
0.6
  0
HATCH
  5
191
330
17
100
AcDbEntity
  8
S-REBAR-MAIN
 62
1
100
AcDbHatch
 10
0.0
 20
0.0
 30
0.0
210
0.0
220
0.0
230
1.0
  2
SOLID
 70
1
 71
0
 91
1
 92
3
 72
0
 73
1
 93
16
 10
418.6
 20
372.52
 10
418.5543277195068
 20
372.749610059419
 10
418.4242640687119
 20
372.9442640687119
 10
418.22961005941903
 20
373.07432771950675
 10
418.0
 20
373.12
 10
417.77038994058097
 20
373.07432771950675
 10
417.5757359312881
 20
372.9442640687119
 10
417.4456722804932
 20
372.749610059419
 10
417.4
 20
372.52
 10
417.4456722804932
 20
372.29038994058095
 10
417.5757359312881
 20
372.09573593128806
 10
417.77038994058097
 20
371.9656722804932
 10
418.0
 20
371.91999999999996
 10
418.22961005941903
 20
371.9656722804932
 10
418.4242640687119
 20
372.09573593128806
 10
418.5543277195068
 20
372.29038994058095
 97
0
 75
0
 76
1
 98
0
  0
CIRCLE
  5
192
330
17
100
AcDbEntity
  8
S-REBAR-MAIN
100
AcDbCircle
 10
424.0
 20
372.52
 30
0.0
 40
0.6
  0
HATCH
  5
193
330
17
100
AcDbEntity
  8
S-REBAR-MAIN
 62
1
100
AcDbHatch
 10
0.0
 20
0.0
 30
0.0
210
0.0
220
0.0
230
1.0
  2
SOLID
 70
1
 71
0
 91
1
 92
3
 72
0
 73
1
 93
16
 10
424.6
 20
372.52
 10
424.5543277195068
 20
372.749610059419
 10
424.4242640687119
 20
372.9442640687119
 10
424.22961005941903
 20
373.07432771950675
 10
424.0
 20
373.12
 10
423.77038994058097
 20
373.07432771950675
 10
423.5757359312881
 20
372.9442640687119
 10
423.4456722804932
 20
372.749610059419
 10
423.4
 20
372.52
 10
423.4456722804932
 20
372.29038994058095
 10
423.5757359312881
 20
372.09573593128806
 10
423.77038994058097
 20
371.9656722804932
 10
424.0
 20
371.91999999999996
 10
424.22961005941903
 20
371.9656722804932
 10
424.4242640687119
 20
372.09573593128806
 10
424.5543277195068
 20
372.29038994058095
 97
0
 75
0
 76
1
 98
0
  0
CIRCLE
  5
194
330
17
100
AcDbEntity
  8
S-REBAR-MAIN
100
AcDbCircle
 10
430.0
 20
372.52
 30
0.0
 40
0.6
  0
HATCH
  5
195
330
17
100
AcDbEntity
  8
S-REBAR-MAIN
 62
1
100
AcDbHatch
 10
0.0
 20
0.0
 30
0.0
210
0.0
220
0.0
230
1.0
  2
SOLID
 70
1
 71
0
 91
1
 92
3
 72
0
 73
1
 93
16
 10
430.6
 20
372.52
 10
430.5543277195068
 20
372.749610059419
 10
430.4242640687119
 20
372.9442640687119
 10
430.22961005941903
 20
373.07432771950675
 10
430.0
 20
373.12
 10
429.77038994058097
 20
373.07432771950675
 10
429.5757359312881
 20
372.9442640687119
 10
429.4456722804932
 20
372.749610059419
 10
429.4
 20
372.52
 10
429.4456722804932
 20
372.29038994058095
 10
429.5757359312881
 20
372.09573593128806
 10
429.77038994058097
 20
371.9656722804932
 10
430.0
 20
371.91999999999996
 10
430.22961005941903
 20
371.9656722804932
 10
430.4242640687119
 20
372.09573593128806
 10
430.5543277195068
 20
372.29038994058095
 97
0
 75
0
 76
1
 98
0
  0
CIRCLE
  5
196
330
17
100
AcDbEntity
  8
S-REBAR-MAIN
100
AcDbCircle
 10
436.0
 20
372.52
 30
0.0
 40
0.6
  0
HATCH
  5
197
330
17
100
AcDbEntity
  8
S-REBAR-MAIN
 62
1
100
AcDbHatch
 10
0.0
 20
0.0
 30
0.0
210
0.0
220
0.0
230
1.0
  2
SOLID
 70
1
 71
0
 91
1
 92
3
 72
0
 73
1
 93
16
 10
436.6
 20
372.52
 10
436.5543277195068
 20
372.749610059419
 10
436.4242640687119
 20
372.9442640687119
 10
436.22961005941903
 20
373.07432771950675
 10
436.0
 20
373.12
 10
435.77038994058097
 20
373.07432771950675
 10
435.5757359312881
 20
372.9442640687119
 10
435.4456722804932
 20
372.749610059419
 10
435.4
 20
372.52
 10
435.4456722804932
 20
372.29038994058095
 10
435.5757359312881
 20
372.09573593128806
 10
435.77038994058097
 20
371.9656722804932
 10
436.0
 20
371.91999999999996
 10
436.22961005941903
 20
371.9656722804932
 10
436.4242640687119
 20
372.09573593128806
 10
436.5543277195068
 20
372.29038994058095
 97
0
 75
0
 76
1
 98
0
  0
CIRCLE
  5
198
330
17
100
AcDbEntity
  8
S-REBAR-MAIN
100
AcDbCircle
 10
442.0
 20
372.52
 30
0.0
 40
0.6
  0
HATCH
  5
199
330
17
100
AcDbEntity
  8
S-REBAR-MAIN
 62
1
100
AcDbHatch
 10
0.0
 20
0.0
 30
0.0
210
0.0
220
0.0
230
1.0
  2
SOLID
 70
1
 71
0
 91
1
 92
3
 72
0
 73
1
 93
16
 10
442.6
 20
372.52
 10
442.5543277195068
 20
372.749610059419
 10
442.4242640687119
 20
372.9442640687119
 10
442.22961005941903
 20
373.07432771950675
 10
442.0
 20
373.12
 10
441.77038994058097
 20
373.07432771950675
 10
441.5757359312881
 20
372.9442640687119
 10
441.4456722804932
 20
372.749610059419
 10
441.4
 20
372.52
 10
441.4456722804932
 20
372.29038994058095
 10
441.5757359312881
 20
372.09573593128806
 10
441.77038994058097
 20
371.9656722804932
 10
442.0
 20
371.91999999999996
 10
442.22961005941903
 20
371.9656722804932
 10
442.4242640687119
 20
372.09573593128806
 10
442.5543277195068
 20
372.29038994058095
 97
0
 75
0
 76
1
 98
0
  0
CIRCLE
  5
19A
330
17
100
AcDbEntity
  8
S-REBAR-MAIN
100
AcDbCircle
 10
448.0
 20
372.52
 30
0.0
 40
0.6
  0
HATCH
  5
19B
330
17
100
AcDbEntity
  8
S-REBAR-MAIN
 62
1
100
AcDbHatch
 10
0.0
 20
0.0
 30
0.0
210
0.0
220
0.0
230
1.0
  2
SOLID
 70
1
 71
0
 91
1
 92
3
 72
0
 73
1
 93
16
 10
448.6
 20
372.52
 10
448.5543277195068
 20
372.749610059419
 10
448.4242640687119
 20
372.9442640687119
 10
448.22961005941903
 20
373.07432771950675
 10
448.0
 20
373.12
 10
447.77038994058097
 20
373.07432771950675
 10
447.5757359312881
 20
372.9442640687119
 10
447.4456722804932
 20
372.749610059419
 10
447.4
 20
372.52
 10
447.4456722804932
 20
372.29038994058095
 10
447.5757359312881
 20
372.09573593128806
 10
447.77038994058097
 20
371.9656722804932
 10
448.0
 20
371.91999999999996
 10
448.22961005941903
 20
371.9656722804932
 10
448.4242640687119
 20
372.09573593128806
 10
448.5543277195068
 20
372.29038994058095
 97
0
 75
0
 76
1
 98
0
  0
CIRCLE
  5
19C
330
17
100
AcDbEntity
  8
S-REBAR-MAIN
100
AcDbCircle
 10
454.0
 20
372.52
 30
0.0
 40
0.6
  0
HATCH
  5
19D
330
17
100
AcDbEntity
  8
S-REBAR-MAIN
 62
1
100
AcDbHatch
 10
0.0
 20
0.0
 30
0.0
210
0.0
220
0.0
230
1.0
  2
SOLID
 70
1
 71
0
 91
1
 92
3
 72
0
 73
1
 93
16
 10
454.6
 20
372.52
 10
454.5543277195068
 20
372.749610059419
 10
454.4242640687119
 20
372.9442640687119
 10
454.22961005941903
 20
373.07432771950675
 10
454.0
 20
373.12
 10
453.77038994058097
 20
373.07432771950675
 10
453.5757359312881
 20
372.9442640687119
 10
453.4456722804932
 20
372.749610059419
 10
453.4
 20
372.52
 10
453.4456722804932
 20
372.29038994058095
 10
453.5757359312881
 20
372.09573593128806
 10
453.77038994058097
 20
371.9656722804932
 10
454.0
 20
371.91999999999996
 10
454.22961005941903
 20
371.9656722804932
 10
454.4242640687119
 20
372.09573593128806
 10
454.5543277195068
 20
372.29038994058095
 97
0
 75
0
 76
1
 98
0
  0
CIRCLE
  5
19E
330
17
100
AcDbEntity
  8
S-REBAR-MAIN
100
AcDbCircle
 10
460.0
 20
372.52
 30
0.0
 40
0.6
  0
HATCH
  5
19F
330
17
100
AcDbEntity
  8
S-REBAR-MAIN
 62
1
100
AcDbHatch
 10
0.0
 20
0.0
 30
0.0
210
0.0
220
0.0
230
1.0
  2
SOLID
 70
1
 71
0
 91
1
 92
3
 72
0
 73
1
 93
16
 10
460.6
 20
372.52
 10
460.5543277195068
 20
372.749610059419
 10
460.4242640687119
 20
372.9442640687119
 10
460.22961005941903
 20
373.07432771950675
 10
460.0
 20
373.12
 10
459.77038994058097
 20
373.07432771950675
 10
459.5757359312881
 20
372.9442640687119
 10
459.4456722804932
 20
372.749610059419
 10
459.4
 20
372.52
 10
459.4456722804932
 20
372.29038994058095
 10
459.5757359312881
 20
372.09573593128806
 10
459.77038994058097
 20
371.9656722804932
 10
460.0
 20
371.91999999999996
 10
460.22961005941903
 20
371.9656722804932
 10
460.4242640687119
 20
372.09573593128806
 10
460.5543277195068
 20
372.29038994058095
 97
0
 75
0
 76
1
 98
0
  0
CIRCLE
  5
1A0
330
17
100
AcDbEntity
  8
S-REBAR-MAIN
100
AcDbCircle
 10
466.0
 20
372.52
 30
0.0
 40
0.6
  0
HATCH
  5
1A1
330
17
100
AcDbEntity
  8
S-REBAR-MAIN
 62
1
100
AcDbHatch
 10
0.0
 20
0.0
 30
0.0
210
0.0
220
0.0
230
1.0
  2
SOLID
 70
1
 71
0
 91
1
 92
3
 72
0
 73
1
 93
16
 10
466.6
 20
372.52
 10
466.5543277195068
 20
372.749610059419
 10
466.4242640687119
 20
372.9442640687119
 10
466.22961005941903
 20
373.07432771950675
 10
466.0
 20
373.12
 10
465.77038994058097
 20
373.07432771950675
 10
465.5757359312881
 20
372.9442640687119
 10
465.4456722804932
 20
372.749610059419
 10
465.4
 20
372.52
 10
465.4456722804932
 20
372.29038994058095
 10
465.5757359312881
 20
372.09573593128806
 10
465.77038994058097
 20
371.9656722804932
 10
466.0
 20
371.91999999999996
 10
466.22961005941903
 20
371.9656722804932
 10
466.4242640687119
 20
372.09573593128806
 10
466.5543277195068
 20
372.29038994058095
 97
0
 75
0
 76
1
 98
0
  0
CIRCLE
  5
1A2
330
17
100
AcDbEntity
  8
S-REBAR-MAIN
100
AcDbCircle
 10
472.0
 20
372.52
 30
0.0
 40
0.6
  0
HATCH
  5
1A3
330
17
100
AcDbEntity
  8
S-REBAR-MAIN
 62
1
100
AcDbHatch
 10
0.0
 20
0.0
 30
0.0
210
0.0
220
0.0
230
1.0
  2
SOLID
 70
1
 71
0
 91
1
 92
3
 72
0
 73
1
 93
16
 10
472.6
 20
372.52
 10
472.5543277195068
 20
372.749610059419
 10
472.4242640687119
 20
372.9442640687119
 10
472.22961005941903
 20
373.07432771950675
 10
472.0
 20
373.12
 10
471.77038994058097
 20
373.07432771950675
 10
471.5757359312881
 20
372.9442640687119
 10
471.4456722804932
 20
372.749610059419
 10
471.4
 20
372.52
 10
471.4456722804932
 20
372.29038994058095
 10
471.5757359312881
 20
372.09573593128806
 10
471.77038994058097
 20
371.9656722804932
 10
472.0
 20
371.91999999999996
 10
472.22961005941903
 20
371.9656722804932
 10
472.4242640687119
 20
372.09573593128806
 10
472.5543277195068
 20
372.29038994058095
 97
0
 75
0
 76
1
 98
0
  0
CIRCLE
  5
1A4
330
17
100
AcDbEntity
  8
S-REBAR-MAIN
100
AcDbCircle
 10
478.0
 20
372.52
 30
0.0
 40
0.6
  0
HATCH
  5
1A5
330
17
100
AcDbEntity
  8
S-REBAR-MAIN
 62
1
100
AcDbHatch
 10
0.0
 20
0.0
 30
0.0
210
0.0
220
0.0
230
1.0
  2
SOLID
 70
1
 71
0
 91
1
 92
3
 72
0
 73
1
 93
16
 10
478.6
 20
372.52
 10
478.5543277195068
 20
372.749610059419
 10
478.4242640687119
 20
372.9442640687119
 10
478.22961005941903
 20
373.07432771950675
 10
478.0
 20
373.12
 10
477.77038994058097
 20
373.07432771950675
 10
477.5757359312881
 20
372.9442640687119
 10
477.4456722804932
 20
372.749610059419
 10
477.4
 20
372.52
 10
477.4456722804932
 20
372.29038994058095
 10
477.5757359312881
 20
372.09573593128806
 10
477.77038994058097
 20
371.9656722804932
 10
478.0
 20
371.91999999999996
 10
478.22961005941903
 20
371.9656722804932
 10
478.4242640687119
 20
372.09573593128806
 10
478.5543277195068
 20
372.29038994058095
 97
0
 75
0
 76
1
 98
0
  0
CIRCLE
  5
1A6
330
17
100
AcDbEntity
  8
S-REBAR-MAIN
100
AcDbCircle
 10
484.0
 20
372.52
 30
0.0
 40
0.6
  0
HATCH
  5
1A7
330
17
100
AcDbEntity
  8
S-REBAR-MAIN
 62
1
100
AcDbHatch
 10
0.0
 20
0.0
 30
0.0
210
0.0
220
0.0
230
1.0
  2
SOLID
 70
1
 71
0
 91
1
 92
3
 72
0
 73
1
 93
16
 10
484.6
 20
372.52
 10
484.5543277195068
 20
372.749610059419
 10
484.4242640687119
 20
372.9442640687119
 10
484.22961005941903
 20
373.07432771950675
 10
484.0
 20
373.12
 10
483.77038994058097
 20
373.07432771950675
 10
483.5757359312881
 20
372.9442640687119
 10
483.4456722804932
 20
372.749610059419
 10
483.4
 20
372.52
 10
483.4456722804932
 20
372.29038994058095
 10
483.5757359312881
 20
372.09573593128806
 10
483.77038994058097
 20
371.9656722804932
 10
484.0
 20
371.91999999999996
 10
484.22961005941903
 20
371.9656722804932
 10
484.4242640687119
 20
372.09573593128806
 10
484.5543277195068
 20
372.29038994058095
 97
0
 75
0
 76
1
 98
0
  0
CIRCLE
  5
1A8
330
17
100
AcDbEntity
  8
S-REBAR-MAIN
100
AcDbCircle
 10
490.0
 20
372.52
 30
0.0
 40
0.6
  0
HATCH
  5
1A9
330
17
100
AcDbEntity
  8
S-REBAR-MAIN
 62
1
100
AcDbHatch
 10
0.0
 20
0.0
 30
0.0
210
0.0
220
0.0
230
1.0
  2
SOLID
 70
1
 71
0
 91
1
 92
3
 72
0
 73
1
 93
16
 10
490.6
 20
372.52
 10
490.5543277195068
 20
372.749610059419
 10
490.4242640687119
 20
372.9442640687119
 10
490.22961005941903
 20
373.07432771950675
 10
490.0
 20
373.12
 10
489.77038994058097
 20
373.07432771950675
 10
489.5757359312881
 20
372.9442640687119
 10
489.4456722804932
 20
372.749610059419
 10
489.4
 20
372.52
 10
489.4456722804932
 20
372.29038994058095
 10
489.5757359312881
 20
372.09573593128806
 10
489.77038994058097
 20
371.9656722804932
 10
490.0
 20
371.91999999999996
 10
490.22961005941903
 20
371.9656722804932
 10
490.4242640687119
 20
372.09573593128806
 10
490.5543277195068
 20
372.29038994058095
 97
0
 75
0
 76
1
 98
0
  0
CIRCLE
  5
1AA
330
17
100
AcDbEntity
  8
S-REBAR-MAIN
100
AcDbCircle
 10
496.0
 20
372.52
 30
0.0
 40
0.6
  0
HATCH
  5
1AB
330
17
100
AcDbEntity
  8
S-REBAR-MAIN
 62
1
100
AcDbHatch
 10
0.0
 20
0.0
 30
0.0
210
0.0
220
0.0
230
1.0
  2
SOLID
 70
1
 71
0
 91
1
 92
3
 72
0
 73
1
 93
16
 10
496.6
 20
372.52
 10
496.5543277195068
 20
372.749610059419
 10
496.4242640687119
 20
372.9442640687119
 10
496.22961005941903
 20
373.07432771950675
 10
496.0
 20
373.12
 10
495.77038994058097
 20
373.07432771950675
 10
495.5757359312881
 20
372.9442640687119
 10
495.4456722804932
 20
372.749610059419
 10
495.4
 20
372.52
 10
495.4456722804932
 20
372.29038994058095
 10
495.5757359312881
 20
372.09573593128806
 10
495.77038994058097
 20
371.9656722804932
 10
496.0
 20
371.91999999999996
 10
496.22961005941903
 20
371.9656722804932
 10
496.4242640687119
 20
372.09573593128806
 10
496.5543277195068
 20
372.29038994058095
 97
0
 75
0
 76
1
 98
0
  0
CIRCLE
  5
1AC
330
17
100
AcDbEntity
  8
S-REBAR-MAIN
100
AcDbCircle
 10
502.0
 20
372.52
 30
0.0
 40
0.6
  0
HATCH
  5
1AD
330
17
100
AcDbEntity
  8
S-REBAR-MAIN
 62
1
100
AcDbHatch
 10
0.0
 20
0.0
 30
0.0
210
0.0
220
0.0
230
1.0
  2
SOLID
 70
1
 71
0
 91
1
 92
3
 72
0
 73
1
 93
16
 10
502.6
 20
372.52
 10
502.5543277195068
 20
372.749610059419
 10
502.4242640687119
 20
372.9442640687119
 10
502.22961005941903
 20
373.07432771950675
 10
502.0
 20
373.12
 10
501.77038994058097
 20
373.07432771950675
 10
501.5757359312881
 20
372.9442640687119
 10
501.4456722804932
 20
372.749610059419
 10
501.4
 20
372.52
 10
501.4456722804932
 20
372.29038994058095
 10
501.5757359312881
 20
372.09573593128806
 10
501.77038994058097
 20
371.9656722804932
 10
502.0
 20
371.91999999999996
 10
502.22961005941903
 20
371.9656722804932
 10
502.4242640687119
 20
372.09573593128806
 10
502.5543277195068
 20
372.29038994058095
 97
0
 75
0
 76
1
 98
0
  0
CIRCLE
  5
1AE
330
17
100
AcDbEntity
  8
S-REBAR-MAIN
100
AcDbCircle
 10
508.0
 20
372.52
 30
0.0
 40
0.6
  0
HATCH
  5
1AF
330
17
100
AcDbEntity
  8
S-REBAR-MAIN
 62
1
100
AcDbHatch
 10
0.0
 20
0.0
 30
0.0
210
0.0
220
0.0
230
1.0
  2
SOLID
 70
1
 71
0
 91
1
 92
3
 72
0
 73
1
 93
16
 10
508.6
 20
372.52
 10
508.5543277195068
 20
372.749610059419
 10
508.4242640687119
 20
372.9442640687119
 10
508.22961005941903
 20
373.07432771950675
 10
508.0
 20
373.12
 10
507.77038994058097
 20
373.07432771950675
 10
507.5757359312881
 20
372.9442640687119
 10
507.4456722804932
 20
372.749610059419
 10
507.4
 20
372.52
 10
507.4456722804932
 20
372.29038994058095
 10
507.5757359312881
 20
372.09573593128806
 10
507.77038994058097
 20
371.9656722804932
 10
508.0
 20
371.91999999999996
 10
508.22961005941903
 20
371.9656722804932
 10
508.4242640687119
 20
372.09573593128806
 10
508.5543277195068
 20
372.29038994058095
 97
0
 75
0
 76
1
 98
0
  0
CIRCLE
  5
1B0
330
17
100
AcDbEntity
  8
S-REBAR-MAIN
100
AcDbCircle
 10
514.0
 20
372.52
 30
0.0
 40
0.6
  0
HATCH
  5
1B1
330
17
100
AcDbEntity
  8
S-REBAR-MAIN
 62
1
100
AcDbHatch
 10
0.0
 20
0.0
 30
0.0
210
0.0
220
0.0
230
1.0
  2
SOLID
 70
1
 71
0
 91
1
 92
3
 72
0
 73
1
 93
16
 10
514.6
 20
372.52
 10
514.5543277195068
 20
372.749610059419
 10
514.424264068712
 20
372.9442640687119
 10
514.2296100594191
 20
373.07432771950675
 10
514.0
 20
373.12
 10
513.7703899405809
 20
373.07432771950675
 10
513.575735931288
 20
372.9442640687119
 10
513.4456722804932
 20
372.749610059419
 10
513.4
 20
372.52
 10
513.4456722804932
 20
372.29038994058095
 10
513.575735931288
 20
372.09573593128806
 10
513.7703899405809
 20
371.9656722804932
 10
514.0
 20
371.91999999999996
 10
514.2296100594191
 20
371.9656722804932
 10
514.424264068712
 20
372.09573593128806
 10
514.5543277195068
 20
372.29038994058095
 97
0
 75
0
 76
1
 98
0
  0
CIRCLE
  5
1B2
330
17
100
AcDbEntity
  8
S-REBAR-MAIN
100
AcDbCircle
 10
520.0
 20
372.52
 30
0.0
 40
0.6
  0
HATCH
  5
1B3
330
17
100
AcDbEntity
  8
S-REBAR-MAIN
 62
1
100
AcDbHatch
 10
0.0
 20
0.0
 30
0.0
210
0.0
220
0.0
230
1.0
  2
SOLID
 70
1
 71
0
 91
1
 92
3
 72
0
 73
1
 93
16
 10
520.6
 20
372.52
 10
520.5543277195068
 20
372.749610059419
 10
520.424264068712
 20
372.9442640687119
 10
520.2296100594191
 20
373.07432771950675
 10
520.0
 20
373.12
 10
519.7703899405809
 20
373.07432771950675
 10
519.575735931288
 20
372.9442640687119
 10
519.4456722804932
 20
372.749610059419
 10
519.4
 20
372.52
 10
519.4456722804932
 20
372.29038994058095
 10
519.575735931288
 20
372.09573593128806
 10
519.7703899405809
 20
371.9656722804932
 10
520.0
 20
371.91999999999996
 10
520.2296100594191
 20
371.9656722804932
 10
520.424264068712
 20
372.09573593128806
 10
520.5543277195068
 20
372.29038994058095
 97
0
 75
0
 76
1
 98
0
  0
CIRCLE
  5
1B4
330
17
100
AcDbEntity
  8
S-REBAR-MAIN
100
AcDbCircle
 10
526.0
 20
372.52
 30
0.0
 40
0.6
  0
HATCH
  5
1B5
330
17
100
AcDbEntity
  8
S-REBAR-MAIN
 62
1
100
AcDbHatch
 10
0.0
 20
0.0
 30
0.0
210
0.0
220
0.0
230
1.0
  2
SOLID
 70
1
 71
0
 91
1
 92
3
 72
0
 73
1
 93
16
 10
526.6
 20
372.52
 10
526.5543277195068
 20
372.749610059419
 10
526.424264068712
 20
372.9442640687119
 10
526.2296100594191
 20
373.07432771950675
 10
526.0
 20
373.12
 10
525.7703899405809
 20
373.07432771950675
 10
525.575735931288
 20
372.9442640687119
 10
525.4456722804932
 20
372.749610059419
 10
525.4
 20
372.52
 10
525.4456722804932
 20
372.29038994058095
 10
525.575735931288
 20
372.09573593128806
 10
525.7703899405809
 20
371.9656722804932
 10
526.0
 20
371.91999999999996
 10
526.2296100594191
 20
371.9656722804932
 10
526.424264068712
 20
372.09573593128806
 10
526.5543277195068
 20
372.29038994058095
 97
0
 75
0
 76
1
 98
0
  0
CIRCLE
  5
1B6
330
17
100
AcDbEntity
  8
S-REBAR-MAIN
100
AcDbCircle
 10
334.0
 20
343.52
 30
0.0
 40
0.6
  0
HATCH
  5
1B7
330
17
100
AcDbEntity
  8
S-REBAR-MAIN
 62
1
100
AcDbHatch
 10
0.0
 20
0.0
 30
0.0
210
0.0
220
0.0
230
1.0
  2
SOLID
 70
1
 71
0
 91
1
 92
3
 72
0
 73
1
 93
16
 10
334.6
 20
343.52
 10
334.5543277195068
 20
343.749610059419
 10
334.4242640687119
 20
343.9442640687119
 10
334.22961005941903
 20
344.07432771950675
 10
334.0
 20
344.12
 10
333.77038994058097
 20
344.07432771950675
 10
333.5757359312881
 20
343.9442640687119
 10
333.4456722804932
 20
343.749610059419
 10
333.4
 20
343.52
 10
333.4456722804932
 20
343.29038994058095
 10
333.5757359312881
 20
343.09573593128806
 10
333.77038994058097
 20
342.9656722804932
 10
334.0
 20
342.91999999999996
 10
334.22961005941903
 20
342.9656722804932
 10
334.4242640687119
 20
343.09573593128806
 10
334.5543277195068
 20
343.29038994058095
 97
0
 75
0
 76
1
 98
0
  0
CIRCLE
  5
1B8
330
17
100
AcDbEntity
  8
S-REBAR-MAIN
100
AcDbCircle
 10
340.0
 20
343.52
 30
0.0
 40
0.6
  0
HATCH
  5
1B9
330
17
100
AcDbEntity
  8
S-REBAR-MAIN
 62
1
100
AcDbHatch
 10
0.0
 20
0.0
 30
0.0
210
0.0
220
0.0
230
1.0
  2
SOLID
 70
1
 71
0
 91
1
 92
3
 72
0
 73
1
 93
16
 10
340.6
 20
343.52
 10
340.5543277195068
 20
343.749610059419
 10
340.4242640687119
 20
343.9442640687119
 10
340.22961005941903
 20
344.07432771950675
 10
340.0
 20
344.12
 10
339.77038994058097
 20
344.07432771950675
 10
339.5757359312881
 20
343.9442640687119
 10
339.4456722804932
 20
343.749610059419
 10
339.4
 20
343.52
 10
339.4456722804932
 20
343.29038994058095
 10
339.5757359312881
 20
343.09573593128806
 10
339.77038994058097
 20
342.9656722804932
 10
340.0
 20
342.91999999999996
 10
340.22961005941903
 20
342.9656722804932
 10
340.4242640687119
 20
343.09573593128806
 10
340.5543277195068
 20
343.29038994058095
 97
0
 75
0
 76
1
 98
0
  0
CIRCLE
  5
1BA
330
17
100
AcDbEntity
  8
S-REBAR-MAIN
100
AcDbCircle
 10
346.0
 20
343.52
 30
0.0
 40
0.6
  0
HATCH
  5
1BB
330
17
100
AcDbEntity
  8
S-REBAR-MAIN
 62
1
100
AcDbHatch
 10
0.0
 20
0.0
 30
0.0
210
0.0
220
0.0
230
1.0
  2
SOLID
 70
1
 71
0
 91
1
 92
3
 72
0
 73
1
 93
16
 10
346.6
 20
343.52
 10
346.5543277195068
 20
343.749610059419
 10
346.4242640687119
 20
343.9442640687119
 10
346.22961005941903
 20
344.07432771950675
 10
346.0
 20
344.12
 10
345.77038994058097
 20
344.07432771950675
 10
345.5757359312881
 20
343.9442640687119
 10
345.4456722804932
 20
343.749610059419
 10
345.4
 20
343.52
 10
345.4456722804932
 20
343.29038994058095
 10
345.5757359312881
 20
343.09573593128806
 10
345.77038994058097
 20
342.9656722804932
 10
346.0
 20
342.91999999999996
 10
346.22961005941903
 20
342.9656722804932
 10
346.4242640687119
 20
343.09573593128806
 10
346.5543277195068
 20
343.29038994058095
 97
0
 75
0
 76
1
 98
0
  0
CIRCLE
  5
1BC
330
17
100
AcDbEntity
  8
S-REBAR-MAIN
100
AcDbCircle
 10
352.0
 20
343.52
 30
0.0
 40
0.6
  0
HATCH
  5
1BD
330
17
100
AcDbEntity
  8
S-REBAR-MAIN
 62
1
100
AcDbHatch
 10
0.0
 20
0.0
 30
0.0
210
0.0
220
0.0
230
1.0
  2
SOLID
 70
1
 71
0
 91
1
 92
3
 72
0
 73
1
 93
16
 10
352.6
 20
343.52
 10
352.5543277195068
 20
343.749610059419
 10
352.4242640687119
 20
343.9442640687119
 10
352.22961005941903
 20
344.07432771950675
 10
352.0
 20
344.12
 10
351.77038994058097
 20
344.07432771950675
 10
351.5757359312881
 20
343.9442640687119
 10
351.4456722804932
 20
343.749610059419
 10
351.4
 20
343.52
 10
351.4456722804932
 20
343.29038994058095
 10
351.5757359312881
 20
343.09573593128806
 10
351.77038994058097
 20
342.9656722804932
 10
352.0
 20
342.91999999999996
 10
352.22961005941903
 20
342.9656722804932
 10
352.4242640687119
 20
343.09573593128806
 10
352.5543277195068
 20
343.29038994058095
 97
0
 75
0
 76
1
 98
0
  0
CIRCLE
  5
1BE
330
17
100
AcDbEntity
  8
S-REBAR-MAIN
100
AcDbCircle
 10
358.0
 20
343.52
 30
0.0
 40
0.6
  0
HATCH
  5
1BF
330
17
100
AcDbEntity
  8
S-REBAR-MAIN
 62
1
100
AcDbHatch
 10
0.0
 20
0.0
 30
0.0
210
0.0
220
0.0
230
1.0
  2
SOLID
 70
1
 71
0
 91
1
 92
3
 72
0
 73
1
 93
16
 10
358.6
 20
343.52
 10
358.5543277195068
 20
343.749610059419
 10
358.4242640687119
 20
343.9442640687119
 10
358.22961005941903
 20
344.07432771950675
 10
358.0
 20
344.12
 10
357.77038994058097
 20
344.07432771950675
 10
357.5757359312881
 20
343.9442640687119
 10
357.4456722804932
 20
343.749610059419
 10
357.4
 20
343.52
 10
357.4456722804932
 20
343.29038994058095
 10
357.5757359312881
 20
343.09573593128806
 10
357.77038994058097
 20
342.9656722804932
 10
358.0
 20
342.91999999999996
 10
358.22961005941903
 20
342.9656722804932
 10
358.4242640687119
 20
343.09573593128806
 10
358.5543277195068
 20
343.29038994058095
 97
0
 75
0
 76
1
 98
0
  0
CIRCLE
  5
1C0
330
17
100
AcDbEntity
  8
S-REBAR-MAIN
100
AcDbCircle
 10
364.0
 20
343.52
 30
0.0
 40
0.6
  0
HATCH
  5
1C1
330
17
100
AcDbEntity
  8
S-REBAR-MAIN
 62
1
100
AcDbHatch
 10
0.0
 20
0.0
 30
0.0
210
0.0
220
0.0
230
1.0
  2
SOLID
 70
1
 71
0
 91
1
 92
3
 72
0
 73
1
 93
16
 10
364.6
 20
343.52
 10
364.5543277195068
 20
343.749610059419
 10
364.4242640687119
 20
343.9442640687119
 10
364.22961005941903
 20
344.07432771950675
 10
364.0
 20
344.12
 10
363.77038994058097
 20
344.07432771950675
 10
363.5757359312881
 20
343.9442640687119
 10
363.4456722804932
 20
343.749610059419
 10
363.4
 20
343.52
 10
363.4456722804932
 20
343.29038994058095
 10
363.5757359312881
 20
343.09573593128806
 10
363.77038994058097
 20
342.9656722804932
 10
364.0
 20
342.91999999999996
 10
364.22961005941903
 20
342.9656722804932
 10
364.4242640687119
 20
343.09573593128806
 10
364.5543277195068
 20
343.29038994058095
 97
0
 75
0
 76
1
 98
0
  0
CIRCLE
  5
1C2
330
17
100
AcDbEntity
  8
S-REBAR-MAIN
100
AcDbCircle
 10
370.0
 20
343.52
 30
0.0
 40
0.6
  0
HATCH
  5
1C3
330
17
100
AcDbEntity
  8
S-REBAR-MAIN
 62
1
100
AcDbHatch
 10
0.0
 20
0.0
 30
0.0
210
0.0
220
0.0
230
1.0
  2
SOLID
 70
1
 71
0
 91
1
 92
3
 72
0
 73
1
 93
16
 10
370.6
 20
343.52
 10
370.5543277195068
 20
343.749610059419
 10
370.4242640687119
 20
343.9442640687119
 10
370.22961005941903
 20
344.07432771950675
 10
370.0
 20
344.12
 10
369.77038994058097
 20
344.07432771950675
 10
369.5757359312881
 20
343.9442640687119
 10
369.4456722804932
 20
343.749610059419
 10
369.4
 20
343.52
 10
369.4456722804932
 20
343.29038994058095
 10
369.5757359312881
 20
343.09573593128806
 10
369.77038994058097
 20
342.9656722804932
 10
370.0
 20
342.91999999999996
 10
370.22961005941903
 20
342.9656722804932
 10
370.4242640687119
 20
343.09573593128806
 10
370.5543277195068
 20
343.29038994058095
 97
0
 75
0
 76
1
 98
0
  0
CIRCLE
  5
1C4
330
17
100
AcDbEntity
  8
S-REBAR-MAIN
100
AcDbCircle
 10
376.0
 20
343.52
 30
0.0
 40
0.6
  0
HATCH
  5
1C5
330
17
100
AcDbEntity
  8
S-REBAR-MAIN
 62
1
100
AcDbHatch
 10
0.0
 20
0.0
 30
0.0
210
0.0
220
0.0
230
1.0
  2
SOLID
 70
1
 71
0
 91
1
 92
3
 72
0
 73
1
 93
16
 10
376.6
 20
343.52
 10
376.5543277195068
 20
343.749610059419
 10
376.4242640687119
 20
343.9442640687119
 10
376.22961005941903
 20
344.07432771950675
 10
376.0
 20
344.12
 10
375.77038994058097
 20
344.07432771950675
 10
375.5757359312881
 20
343.9442640687119
 10
375.4456722804932
 20
343.749610059419
 10
375.4
 20
343.52
 10
375.4456722804932
 20
343.29038994058095
 10
375.5757359312881
 20
343.09573593128806
 10
375.77038994058097
 20
342.9656722804932
 10
376.0
 20
342.91999999999996
 10
376.22961005941903
 20
342.9656722804932
 10
376.4242640687119
 20
343.09573593128806
 10
376.5543277195068
 20
343.29038994058095
 97
0
 75
0
 76
1
 98
0
  0
CIRCLE
  5
1C6
330
17
100
AcDbEntity
  8
S-REBAR-MAIN
100
AcDbCircle
 10
382.0
 20
343.52
 30
0.0
 40
0.6
  0
HATCH
  5
1C7
330
17
100
AcDbEntity
  8
S-REBAR-MAIN
 62
1
100
AcDbHatch
 10
0.0
 20
0.0
 30
0.0
210
0.0
220
0.0
230
1.0
  2
SOLID
 70
1
 71
0
 91
1
 92
3
 72
0
 73
1
 93
16
 10
382.6
 20
343.52
 10
382.5543277195068
 20
343.749610059419
 10
382.4242640687119
 20
343.9442640687119
 10
382.22961005941903
 20
344.07432771950675
 10
382.0
 20
344.12
 10
381.77038994058097
 20
344.07432771950675
 10
381.5757359312881
 20
343.9442640687119
 10
381.4456722804932
 20
343.749610059419
 10
381.4
 20
343.52
 10
381.4456722804932
 20
343.29038994058095
 10
381.5757359312881
 20
343.09573593128806
 10
381.77038994058097
 20
342.9656722804932
 10
382.0
 20
342.91999999999996
 10
382.22961005941903
 20
342.9656722804932
 10
382.4242640687119
 20
343.09573593128806
 10
382.5543277195068
 20
343.29038994058095
 97
0
 75
0
 76
1
 98
0
  0
CIRCLE
  5
1C8
330
17
100
AcDbEntity
  8
S-REBAR-MAIN
100
AcDbCircle
 10
388.0
 20
343.52
 30
0.0
 40
0.6
  0
HATCH
  5
1C9
330
17
100
AcDbEntity
  8
S-REBAR-MAIN
 62
1
100
AcDbHatch
 10
0.0
 20
0.0
 30
0.0
210
0.0
220
0.0
230
1.0
  2
SOLID
 70
1
 71
0
 91
1
 92
3
 72
0
 73
1
 93
16
 10
388.6
 20
343.52
 10
388.5543277195068
 20
343.749610059419
 10
388.4242640687119
 20
343.9442640687119
 10
388.22961005941903
 20
344.07432771950675
 10
388.0
 20
344.12
 10
387.77038994058097
 20
344.07432771950675
 10
387.5757359312881
 20
343.9442640687119
 10
387.4456722804932
 20
343.749610059419
 10
387.4
 20
343.52
 10
387.4456722804932
 20
343.29038994058095
 10
387.5757359312881
 20
343.09573593128806
 10
387.77038994058097
 20
342.9656722804932
 10
388.0
 20
342.91999999999996
 10
388.22961005941903
 20
342.9656722804932
 10
388.4242640687119
 20
343.09573593128806
 10
388.5543277195068
 20
343.29038994058095
 97
0
 75
0
 76
1
 98
0
  0
CIRCLE
  5
1CA
330
17
100
AcDbEntity
  8
S-REBAR-MAIN
100
AcDbCircle
 10
394.0
 20
343.52
 30
0.0
 40
0.6
  0
HATCH
  5
1CB
330
17
100
AcDbEntity
  8
S-REBAR-MAIN
 62
1
100
AcDbHatch
 10
0.0
 20
0.0
 30
0.0
210
0.0
220
0.0
230
1.0
  2
SOLID
 70
1
 71
0
 91
1
 92
3
 72
0
 73
1
 93
16
 10
394.6
 20
343.52
 10
394.5543277195068
 20
343.749610059419
 10
394.4242640687119
 20
343.9442640687119
 10
394.22961005941903
 20
344.07432771950675
 10
394.0
 20
344.12
 10
393.77038994058097
 20
344.07432771950675
 10
393.5757359312881
 20
343.9442640687119
 10
393.4456722804932
 20
343.749610059419
 10
393.4
 20
343.52
 10
393.4456722804932
 20
343.29038994058095
 10
393.5757359312881
 20
343.09573593128806
 10
393.77038994058097
 20
342.9656722804932
 10
394.0
 20
342.91999999999996
 10
394.22961005941903
 20
342.9656722804932
 10
394.4242640687119
 20
343.09573593128806
 10
394.5543277195068
 20
343.29038994058095
 97
0
 75
0
 76
1
 98
0
  0
CIRCLE
  5
1CC
330
17
100
AcDbEntity
  8
S-REBAR-MAIN
100
AcDbCircle
 10
400.0
 20
343.52
 30
0.0
 40
0.6
  0
HATCH
  5
1CD
330
17
100
AcDbEntity
  8
S-REBAR-MAIN
 62
1
100
AcDbHatch
 10
0.0
 20
0.0
 30
0.0
210
0.0
220
0.0
230
1.0
  2
SOLID
 70
1
 71
0
 91
1
 92
3
 72
0
 73
1
 93
16
 10
400.6
 20
343.52
 10
400.5543277195068
 20
343.749610059419
 10
400.4242640687119
 20
343.9442640687119
 10
400.22961005941903
 20
344.07432771950675
 10
400.0
 20
344.12
 10
399.77038994058097
 20
344.07432771950675
 10
399.5757359312881
 20
343.9442640687119
 10
399.4456722804932
 20
343.749610059419
 10
399.4
 20
343.52
 10
399.4456722804932
 20
343.29038994058095
 10
399.5757359312881
 20
343.09573593128806
 10
399.77038994058097
 20
342.9656722804932
 10
400.0
 20
342.91999999999996
 10
400.22961005941903
 20
342.9656722804932
 10
400.4242640687119
 20
343.09573593128806
 10
400.5543277195068
 20
343.29038994058095
 97
0
 75
0
 76
1
 98
0
  0
CIRCLE
  5
1CE
330
17
100
AcDbEntity
  8
S-REBAR-MAIN
100
AcDbCircle
 10
406.0
 20
343.52
 30
0.0
 40
0.6
  0
HATCH
  5
1CF
330
17
100
AcDbEntity
  8
S-REBAR-MAIN
 62
1
100
AcDbHatch
 10
0.0
 20
0.0
 30
0.0
210
0.0
220
0.0
230
1.0
  2
SOLID
 70
1
 71
0
 91
1
 92
3
 72
0
 73
1
 93
16
 10
406.6
 20
343.52
 10
406.5543277195068
 20
343.749610059419
 10
406.4242640687119
 20
343.9442640687119
 10
406.22961005941903
 20
344.07432771950675
 10
406.0
 20
344.12
 10
405.77038994058097
 20
344.07432771950675
 10
405.5757359312881
 20
343.9442640687119
 10
405.4456722804932
 20
343.749610059419
 10
405.4
 20
343.52
 10
405.4456722804932
 20
343.29038994058095
 10
405.5757359312881
 20
343.09573593128806
 10
405.77038994058097
 20
342.9656722804932
 10
406.0
 20
342.91999999999996
 10
406.22961005941903
 20
342.9656722804932
 10
406.4242640687119
 20
343.09573593128806
 10
406.5543277195068
 20
343.29038994058095
 97
0
 75
0
 76
1
 98
0
  0
CIRCLE
  5
1D0
330
17
100
AcDbEntity
  8
S-REBAR-MAIN
100
AcDbCircle
 10
412.0
 20
343.52
 30
0.0
 40
0.6
  0
HATCH
  5
1D1
330
17
100
AcDbEntity
  8
S-REBAR-MAIN
 62
1
100
AcDbHatch
 10
0.0
 20
0.0
 30
0.0
210
0.0
220
0.0
230
1.0
  2
SOLID
 70
1
 71
0
 91
1
 92
3
 72
0
 73
1
 93
16
 10
412.6
 20
343.52
 10
412.5543277195068
 20
343.749610059419
 10
412.4242640687119
 20
343.9442640687119
 10
412.22961005941903
 20
344.07432771950675
 10
412.0
 20
344.12
 10
411.77038994058097
 20
344.07432771950675
 10
411.5757359312881
 20
343.9442640687119
 10
411.4456722804932
 20
343.749610059419
 10
411.4
 20
343.52
 10
411.4456722804932
 20
343.29038994058095
 10
411.5757359312881
 20
343.09573593128806
 10
411.77038994058097
 20
342.9656722804932
 10
412.0
 20
342.91999999999996
 10
412.22961005941903
 20
342.9656722804932
 10
412.4242640687119
 20
343.09573593128806
 10
412.5543277195068
 20
343.29038994058095
 97
0
 75
0
 76
1
 98
0
  0
CIRCLE
  5
1D2
330
17
100
AcDbEntity
  8
S-REBAR-MAIN
100
AcDbCircle
 10
418.0
 20
343.52
 30
0.0
 40
0.6
  0
HATCH
  5
1D3
330
17
100
AcDbEntity
  8
S-REBAR-MAIN
 62
1
100
AcDbHatch
 10
0.0
 20
0.0
 30
0.0
210
0.0
220
0.0
230
1.0
  2
SOLID
 70
1
 71
0
 91
1
 92
3
 72
0
 73
1
 93
16
 10
418.6
 20
343.52
 10
418.5543277195068
 20
343.749610059419
 10
418.4242640687119
 20
343.9442640687119
 10
418.22961005941903
 20
344.07432771950675
 10
418.0
 20
344.12
 10
417.77038994058097
 20
344.07432771950675
 10
417.5757359312881
 20
343.9442640687119
 10
417.4456722804932
 20
343.749610059419
 10
417.4
 20
343.52
 10
417.4456722804932
 20
343.29038994058095
 10
417.5757359312881
 20
343.09573593128806
 10
417.77038994058097
 20
342.9656722804932
 10
418.0
 20
342.91999999999996
 10
418.22961005941903
 20
342.9656722804932
 10
418.4242640687119
 20
343.09573593128806
 10
418.5543277195068
 20
343.29038994058095
 97
0
 75
0
 76
1
 98
0
  0
CIRCLE
  5
1D4
330
17
100
AcDbEntity
  8
S-REBAR-MAIN
100
AcDbCircle
 10
424.0
 20
343.52
 30
0.0
 40
0.6
  0
HATCH
  5
1D5
330
17
100
AcDbEntity
  8
S-REBAR-MAIN
 62
1
100
AcDbHatch
 10
0.0
 20
0.0
 30
0.0
210
0.0
220
0.0
230
1.0
  2
SOLID
 70
1
 71
0
 91
1
 92
3
 72
0
 73
1
 93
16
 10
424.6
 20
343.52
 10
424.5543277195068
 20
343.749610059419
 10
424.4242640687119
 20
343.9442640687119
 10
424.22961005941903
 20
344.07432771950675
 10
424.0
 20
344.12
 10
423.77038994058097
 20
344.07432771950675
 10
423.5757359312881
 20
343.9442640687119
 10
423.4456722804932
 20
343.749610059419
 10
423.4
 20
343.52
 10
423.4456722804932
 20
343.29038994058095
 10
423.5757359312881
 20
343.09573593128806
 10
423.77038994058097
 20
342.9656722804932
 10
424.0
 20
342.91999999999996
 10
424.22961005941903
 20
342.9656722804932
 10
424.4242640687119
 20
343.09573593128806
 10
424.5543277195068
 20
343.29038994058095
 97
0
 75
0
 76
1
 98
0
  0
CIRCLE
  5
1D6
330
17
100
AcDbEntity
  8
S-REBAR-MAIN
100
AcDbCircle
 10
430.0
 20
343.52
 30
0.0
 40
0.6
  0
HATCH
  5
1D7
330
17
100
AcDbEntity
  8
S-REBAR-MAIN
 62
1
100
AcDbHatch
 10
0.0
 20
0.0
 30
0.0
210
0.0
220
0.0
230
1.0
  2
SOLID
 70
1
 71
0
 91
1
 92
3
 72
0
 73
1
 93
16
 10
430.6
 20
343.52
 10
430.5543277195068
 20
343.749610059419
 10
430.4242640687119
 20
343.9442640687119
 10
430.22961005941903
 20
344.07432771950675
 10
430.0
 20
344.12
 10
429.77038994058097
 20
344.07432771950675
 10
429.5757359312881
 20
343.9442640687119
 10
429.4456722804932
 20
343.749610059419
 10
429.4
 20
343.52
 10
429.4456722804932
 20
343.29038994058095
 10
429.5757359312881
 20
343.09573593128806
 10
429.77038994058097
 20
342.9656722804932
 10
430.0
 20
342.91999999999996
 10
430.22961005941903
 20
342.9656722804932
 10
430.4242640687119
 20
343.09573593128806
 10
430.5543277195068
 20
343.29038994058095
 97
0
 75
0
 76
1
 98
0
  0
CIRCLE
  5
1D8
330
17
100
AcDbEntity
  8
S-REBAR-MAIN
100
AcDbCircle
 10
436.0
 20
343.52
 30
0.0
 40
0.6
  0
HATCH
  5
1D9
330
17
100
AcDbEntity
  8
S-REBAR-MAIN
 62
1
100
AcDbHatch
 10
0.0
 20
0.0
 30
0.0
210
0.0
220
0.0
230
1.0
  2
SOLID
 70
1
 71
0
 91
1
 92
3
 72
0
 73
1
 93
16
 10
436.6
 20
343.52
 10
436.5543277195068
 20
343.749610059419
 10
436.4242640687119
 20
343.9442640687119
 10
436.22961005941903
 20
344.07432771950675
 10
436.0
 20
344.12
 10
435.77038994058097
 20
344.07432771950675
 10
435.5757359312881
 20
343.9442640687119
 10
435.4456722804932
 20
343.749610059419
 10
435.4
 20
343.52
 10
435.4456722804932
 20
343.29038994058095
 10
435.5757359312881
 20
343.09573593128806
 10
435.77038994058097
 20
342.9656722804932
 10
436.0
 20
342.91999999999996
 10
436.22961005941903
 20
342.9656722804932
 10
436.4242640687119
 20
343.09573593128806
 10
436.5543277195068
 20
343.29038994058095
 97
0
 75
0
 76
1
 98
0
  0
CIRCLE
  5
1DA
330
17
100
AcDbEntity
  8
S-REBAR-MAIN
100
AcDbCircle
 10
442.0
 20
343.52
 30
0.0
 40
0.6
  0
HATCH
  5
1DB
330
17
100
AcDbEntity
  8
S-REBAR-MAIN
 62
1
100
AcDbHatch
 10
0.0
 20
0.0
 30
0.0
210
0.0
220
0.0
230
1.0
  2
SOLID
 70
1
 71
0
 91
1
 92
3
 72
0
 73
1
 93
16
 10
442.6
 20
343.52
 10
442.5543277195068
 20
343.749610059419
 10
442.4242640687119
 20
343.9442640687119
 10
442.22961005941903
 20
344.07432771950675
 10
442.0
 20
344.12
 10
441.77038994058097
 20
344.07432771950675
 10
441.5757359312881
 20
343.9442640687119
 10
441.4456722804932
 20
343.749610059419
 10
441.4
 20
343.52
 10
441.4456722804932
 20
343.29038994058095
 10
441.5757359312881
 20
343.09573593128806
 10
441.77038994058097
 20
342.9656722804932
 10
442.0
 20
342.91999999999996
 10
442.22961005941903
 20
342.9656722804932
 10
442.4242640687119
 20
343.09573593128806
 10
442.5543277195068
 20
343.29038994058095
 97
0
 75
0
 76
1
 98
0
  0
CIRCLE
  5
1DC
330
17
100
AcDbEntity
  8
S-REBAR-MAIN
100
AcDbCircle
 10
448.0
 20
343.52
 30
0.0
 40
0.6
  0
HATCH
  5
1DD
330
17
100
AcDbEntity
  8
S-REBAR-MAIN
 62
1
100
AcDbHatch
 10
0.0
 20
0.0
 30
0.0
210
0.0
220
0.0
230
1.0
  2
SOLID
 70
1
 71
0
 91
1
 92
3
 72
0
 73
1
 93
16
 10
448.6
 20
343.52
 10
448.5543277195068
 20
343.749610059419
 10
448.4242640687119
 20
343.9442640687119
 10
448.22961005941903
 20
344.07432771950675
 10
448.0
 20
344.12
 10
447.77038994058097
 20
344.07432771950675
 10
447.5757359312881
 20
343.9442640687119
 10
447.4456722804932
 20
343.749610059419
 10
447.4
 20
343.52
 10
447.4456722804932
 20
343.29038994058095
 10
447.5757359312881
 20
343.09573593128806
 10
447.77038994058097
 20
342.9656722804932
 10
448.0
 20
342.91999999999996
 10
448.22961005941903
 20
342.9656722804932
 10
448.4242640687119
 20
343.09573593128806
 10
448.5543277195068
 20
343.29038994058095
 97
0
 75
0
 76
1
 98
0
  0
CIRCLE
  5
1DE
330
17
100
AcDbEntity
  8
S-REBAR-MAIN
100
AcDbCircle
 10
454.0
 20
343.52
 30
0.0
 40
0.6
  0
HATCH
  5
1DF
330
17
100
AcDbEntity
  8
S-REBAR-MAIN
 62
1
100
AcDbHatch
 10
0.0
 20
0.0
 30
0.0
210
0.0
220
0.0
230
1.0
  2
SOLID
 70
1
 71
0
 91
1
 92
3
 72
0
 73
1
 93
16
 10
454.6
 20
343.52
 10
454.5543277195068
 20
343.749610059419
 10
454.4242640687119
 20
343.9442640687119
 10
454.22961005941903
 20
344.07432771950675
 10
454.0
 20
344.12
 10
453.77038994058097
 20
344.07432771950675
 10
453.5757359312881
 20
343.9442640687119
 10
453.4456722804932
 20
343.749610059419
 10
453.4
 20
343.52
 10
453.4456722804932
 20
343.29038994058095
 10
453.5757359312881
 20
343.09573593128806
 10
453.77038994058097
 20
342.9656722804932
 10
454.0
 20
342.91999999999996
 10
454.22961005941903
 20
342.9656722804932
 10
454.4242640687119
 20
343.09573593128806
 10
454.5543277195068
 20
343.29038994058095
 97
0
 75
0
 76
1
 98
0
  0
CIRCLE
  5
1E0
330
17
100
AcDbEntity
  8
S-REBAR-MAIN
100
AcDbCircle
 10
460.0
 20
343.52
 30
0.0
 40
0.6
  0
HATCH
  5
1E1
330
17
100
AcDbEntity
  8
S-REBAR-MAIN
 62
1
100
AcDbHatch
 10
0.0
 20
0.0
 30
0.0
210
0.0
220
0.0
230
1.0
  2
SOLID
 70
1
 71
0
 91
1
 92
3
 72
0
 73
1
 93
16
 10
460.6
 20
343.52
 10
460.5543277195068
 20
343.749610059419
 10
460.4242640687119
 20
343.9442640687119
 10
460.22961005941903
 20
344.07432771950675
 10
460.0
 20
344.12
 10
459.77038994058097
 20
344.07432771950675
 10
459.5757359312881
 20
343.9442640687119
 10
459.4456722804932
 20
343.749610059419
 10
459.4
 20
343.52
 10
459.4456722804932
 20
343.29038994058095
 10
459.5757359312881
 20
343.09573593128806
 10
459.77038994058097
 20
342.9656722804932
 10
460.0
 20
342.91999999999996
 10
460.22961005941903
 20
342.9656722804932
 10
460.4242640687119
 20
343.09573593128806
 10
460.5543277195068
 20
343.29038994058095
 97
0
 75
0
 76
1
 98
0
  0
CIRCLE
  5
1E2
330
17
100
AcDbEntity
  8
S-REBAR-MAIN
100
AcDbCircle
 10
466.0
 20
343.52
 30
0.0
 40
0.6
  0
HATCH
  5
1E3
330
17
100
AcDbEntity
  8
S-REBAR-MAIN
 62
1
100
AcDbHatch
 10
0.0
 20
0.0
 30
0.0
210
0.0
220
0.0
230
1.0
  2
SOLID
 70
1
 71
0
 91
1
 92
3
 72
0
 73
1
 93
16
 10
466.6
 20
343.52
 10
466.5543277195068
 20
343.749610059419
 10
466.4242640687119
 20
343.9442640687119
 10
466.22961005941903
 20
344.07432771950675
 10
466.0
 20
344.12
 10
465.77038994058097
 20
344.07432771950675
 10
465.5757359312881
 20
343.9442640687119
 10
465.4456722804932
 20
343.749610059419
 10
465.4
 20
343.52
 10
465.4456722804932
 20
343.29038994058095
 10
465.5757359312881
 20
343.09573593128806
 10
465.77038994058097
 20
342.9656722804932
 10
466.0
 20
342.91999999999996
 10
466.22961005941903
 20
342.9656722804932
 10
466.4242640687119
 20
343.09573593128806
 10
466.5543277195068
 20
343.29038994058095
 97
0
 75
0
 76
1
 98
0
  0
CIRCLE
  5
1E4
330
17
100
AcDbEntity
  8
S-REBAR-MAIN
100
AcDbCircle
 10
472.0
 20
343.52
 30
0.0
 40
0.6
  0
HATCH
  5
1E5
330
17
100
AcDbEntity
  8
S-REBAR-MAIN
 62
1
100
AcDbHatch
 10
0.0
 20
0.0
 30
0.0
210
0.0
220
0.0
230
1.0
  2
SOLID
 70
1
 71
0
 91
1
 92
3
 72
0
 73
1
 93
16
 10
472.6
 20
343.52
 10
472.5543277195068
 20
343.749610059419
 10
472.4242640687119
 20
343.9442640687119
 10
472.22961005941903
 20
344.07432771950675
 10
472.0
 20
344.12
 10
471.77038994058097
 20
344.07432771950675
 10
471.5757359312881
 20
343.9442640687119
 10
471.4456722804932
 20
343.749610059419
 10
471.4
 20
343.52
 10
471.4456722804932
 20
343.29038994058095
 10
471.5757359312881
 20
343.09573593128806
 10
471.77038994058097
 20
342.9656722804932
 10
472.0
 20
342.91999999999996
 10
472.22961005941903
 20
342.9656722804932
 10
472.4242640687119
 20
343.09573593128806
 10
472.5543277195068
 20
343.29038994058095
 97
0
 75
0
 76
1
 98
0
  0
CIRCLE
  5
1E6
330
17
100
AcDbEntity
  8
S-REBAR-MAIN
100
AcDbCircle
 10
478.0
 20
343.52
 30
0.0
 40
0.6
  0
HATCH
  5
1E7
330
17
100
AcDbEntity
  8
S-REBAR-MAIN
 62
1
100
AcDbHatch
 10
0.0
 20
0.0
 30
0.0
210
0.0
220
0.0
230
1.0
  2
SOLID
 70
1
 71
0
 91
1
 92
3
 72
0
 73
1
 93
16
 10
478.6
 20
343.52
 10
478.5543277195068
 20
343.749610059419
 10
478.4242640687119
 20
343.9442640687119
 10
478.22961005941903
 20
344.07432771950675
 10
478.0
 20
344.12
 10
477.77038994058097
 20
344.07432771950675
 10
477.5757359312881
 20
343.9442640687119
 10
477.4456722804932
 20
343.749610059419
 10
477.4
 20
343.52
 10
477.4456722804932
 20
343.29038994058095
 10
477.5757359312881
 20
343.09573593128806
 10
477.77038994058097
 20
342.9656722804932
 10
478.0
 20
342.91999999999996
 10
478.22961005941903
 20
342.9656722804932
 10
478.4242640687119
 20
343.09573593128806
 10
478.5543277195068
 20
343.29038994058095
 97
0
 75
0
 76
1
 98
0
  0
CIRCLE
  5
1E8
330
17
100
AcDbEntity
  8
S-REBAR-MAIN
100
AcDbCircle
 10
484.0
 20
343.52
 30
0.0
 40
0.6
  0
HATCH
  5
1E9
330
17
100
AcDbEntity
  8
S-REBAR-MAIN
 62
1
100
AcDbHatch
 10
0.0
 20
0.0
 30
0.0
210
0.0
220
0.0
230
1.0
  2
SOLID
 70
1
 71
0
 91
1
 92
3
 72
0
 73
1
 93
16
 10
484.6
 20
343.52
 10
484.5543277195068
 20
343.749610059419
 10
484.4242640687119
 20
343.9442640687119
 10
484.22961005941903
 20
344.07432771950675
 10
484.0
 20
344.12
 10
483.77038994058097
 20
344.07432771950675
 10
483.5757359312881
 20
343.9442640687119
 10
483.4456722804932
 20
343.749610059419
 10
483.4
 20
343.52
 10
483.4456722804932
 20
343.29038994058095
 10
483.5757359312881
 20
343.09573593128806
 10
483.77038994058097
 20
342.9656722804932
 10
484.0
 20
342.91999999999996
 10
484.22961005941903
 20
342.9656722804932
 10
484.4242640687119
 20
343.09573593128806
 10
484.5543277195068
 20
343.29038994058095
 97
0
 75
0
 76
1
 98
0
  0
CIRCLE
  5
1EA
330
17
100
AcDbEntity
  8
S-REBAR-MAIN
100
AcDbCircle
 10
490.0
 20
343.52
 30
0.0
 40
0.6
  0
HATCH
  5
1EB
330
17
100
AcDbEntity
  8
S-REBAR-MAIN
 62
1
100
AcDbHatch
 10
0.0
 20
0.0
 30
0.0
210
0.0
220
0.0
230
1.0
  2
SOLID
 70
1
 71
0
 91
1
 92
3
 72
0
 73
1
 93
16
 10
490.6
 20
343.52
 10
490.5543277195068
 20
343.749610059419
 10
490.4242640687119
 20
343.9442640687119
 10
490.22961005941903
 20
344.07432771950675
 10
490.0
 20
344.12
 10
489.77038994058097
 20
344.07432771950675
 10
489.5757359312881
 20
343.9442640687119
 10
489.4456722804932
 20
343.749610059419
 10
489.4
 20
343.52
 10
489.4456722804932
 20
343.29038994058095
 10
489.5757359312881
 20
343.09573593128806
 10
489.77038994058097
 20
342.9656722804932
 10
490.0
 20
342.91999999999996
 10
490.22961005941903
 20
342.9656722804932
 10
490.4242640687119
 20
343.09573593128806
 10
490.5543277195068
 20
343.29038994058095
 97
0
 75
0
 76
1
 98
0
  0
CIRCLE
  5
1EC
330
17
100
AcDbEntity
  8
S-REBAR-MAIN
100
AcDbCircle
 10
496.0
 20
343.52
 30
0.0
 40
0.6
  0
HATCH
  5
1ED
330
17
100
AcDbEntity
  8
S-REBAR-MAIN
 62
1
100
AcDbHatch
 10
0.0
 20
0.0
 30
0.0
210
0.0
220
0.0
230
1.0
  2
SOLID
 70
1
 71
0
 91
1
 92
3
 72
0
 73
1
 93
16
 10
496.6
 20
343.52
 10
496.5543277195068
 20
343.749610059419
 10
496.4242640687119
 20
343.9442640687119
 10
496.22961005941903
 20
344.07432771950675
 10
496.0
 20
344.12
 10
495.77038994058097
 20
344.07432771950675
 10
495.5757359312881
 20
343.9442640687119
 10
495.4456722804932
 20
343.749610059419
 10
495.4
 20
343.52
 10
495.4456722804932
 20
343.29038994058095
 10
495.5757359312881
 20
343.09573593128806
 10
495.77038994058097
 20
342.9656722804932
 10
496.0
 20
342.91999999999996
 10
496.22961005941903
 20
342.9656722804932
 10
496.4242640687119
 20
343.09573593128806
 10
496.5543277195068
 20
343.29038994058095
 97
0
 75
0
 76
1
 98
0
  0
CIRCLE
  5
1EE
330
17
100
AcDbEntity
  8
S-REBAR-MAIN
100
AcDbCircle
 10
502.0
 20
343.52
 30
0.0
 40
0.6
  0
HATCH
  5
1EF
330
17
100
AcDbEntity
  8
S-REBAR-MAIN
 62
1
100
AcDbHatch
 10
0.0
 20
0.0
 30
0.0
210
0.0
220
0.0
230
1.0
  2
SOLID
 70
1
 71
0
 91
1
 92
3
 72
0
 73
1
 93
16
 10
502.6
 20
343.52
 10
502.5543277195068
 20
343.749610059419
 10
502.4242640687119
 20
343.9442640687119
 10
502.22961005941903
 20
344.07432771950675
 10
502.0
 20
344.12
 10
501.77038994058097
 20
344.07432771950675
 10
501.5757359312881
 20
343.9442640687119
 10
501.4456722804932
 20
343.749610059419
 10
501.4
 20
343.52
 10
501.4456722804932
 20
343.29038994058095
 10
501.5757359312881
 20
343.09573593128806
 10
501.77038994058097
 20
342.9656722804932
 10
502.0
 20
342.91999999999996
 10
502.22961005941903
 20
342.9656722804932
 10
502.4242640687119
 20
343.09573593128806
 10
502.5543277195068
 20
343.29038994058095
 97
0
 75
0
 76
1
 98
0
  0
CIRCLE
  5
1F0
330
17
100
AcDbEntity
  8
S-REBAR-MAIN
100
AcDbCircle
 10
508.0
 20
343.52
 30
0.0
 40
0.6
  0
HATCH
  5
1F1
330
17
100
AcDbEntity
  8
S-REBAR-MAIN
 62
1
100
AcDbHatch
 10
0.0
 20
0.0
 30
0.0
210
0.0
220
0.0
230
1.0
  2
SOLID
 70
1
 71
0
 91
1
 92
3
 72
0
 73
1
 93
16
 10
508.6
 20
343.52
 10
508.5543277195068
 20
343.749610059419
 10
508.4242640687119
 20
343.9442640687119
 10
508.22961005941903
 20
344.07432771950675
 10
508.0
 20
344.12
 10
507.77038994058097
 20
344.07432771950675
 10
507.5757359312881
 20
343.9442640687119
 10
507.4456722804932
 20
343.749610059419
 10
507.4
 20
343.52
 10
507.4456722804932
 20
343.29038994058095
 10
507.5757359312881
 20
343.09573593128806
 10
507.77038994058097
 20
342.9656722804932
 10
508.0
 20
342.91999999999996
 10
508.22961005941903
 20
342.9656722804932
 10
508.4242640687119
 20
343.09573593128806
 10
508.5543277195068
 20
343.29038994058095
 97
0
 75
0
 76
1
 98
0
  0
CIRCLE
  5
1F2
330
17
100
AcDbEntity
  8
S-REBAR-MAIN
100
AcDbCircle
 10
514.0
 20
343.52
 30
0.0
 40
0.6
  0
HATCH
  5
1F3
330
17
100
AcDbEntity
  8
S-REBAR-MAIN
 62
1
100
AcDbHatch
 10
0.0
 20
0.0
 30
0.0
210
0.0
220
0.0
230
1.0
  2
SOLID
 70
1
 71
0
 91
1
 92
3
 72
0
 73
1
 93
16
 10
514.6
 20
343.52
 10
514.5543277195068
 20
343.749610059419
 10
514.424264068712
 20
343.9442640687119
 10
514.2296100594191
 20
344.07432771950675
 10
514.0
 20
344.12
 10
513.7703899405809
 20
344.07432771950675
 10
513.575735931288
 20
343.9442640687119
 10
513.4456722804932
 20
343.749610059419
 10
513.4
 20
343.52
 10
513.4456722804932
 20
343.29038994058095
 10
513.575735931288
 20
343.09573593128806
 10
513.7703899405809
 20
342.9656722804932
 10
514.0
 20
342.91999999999996
 10
514.2296100594191
 20
342.9656722804932
 10
514.424264068712
 20
343.09573593128806
 10
514.5543277195068
 20
343.29038994058095
 97
0
 75
0
 76
1
 98
0
  0
CIRCLE
  5
1F4
330
17
100
AcDbEntity
  8
S-REBAR-MAIN
100
AcDbCircle
 10
520.0
 20
343.52
 30
0.0
 40
0.6
  0
HATCH
  5
1F5
330
17
100
AcDbEntity
  8
S-REBAR-MAIN
 62
1
100
AcDbHatch
 10
0.0
 20
0.0
 30
0.0
210
0.0
220
0.0
230
1.0
  2
SOLID
 70
1
 71
0
 91
1
 92
3
 72
0
 73
1
 93
16
 10
520.6
 20
343.52
 10
520.5543277195068
 20
343.749610059419
 10
520.424264068712
 20
343.9442640687119
 10
520.2296100594191
 20
344.07432771950675
 10
520.0
 20
344.12
 10
519.7703899405809
 20
344.07432771950675
 10
519.575735931288
 20
343.9442640687119
 10
519.4456722804932
 20
343.749610059419
 10
519.4
 20
343.52
 10
519.4456722804932
 20
343.29038994058095
 10
519.575735931288
 20
343.09573593128806
 10
519.7703899405809
 20
342.9656722804932
 10
520.0
 20
342.91999999999996
 10
520.2296100594191
 20
342.9656722804932
 10
520.424264068712
 20
343.09573593128806
 10
520.5543277195068
 20
343.29038994058095
 97
0
 75
0
 76
1
 98
0
  0
CIRCLE
  5
1F6
330
17
100
AcDbEntity
  8
S-REBAR-MAIN
100
AcDbCircle
 10
526.0
 20
343.52
 30
0.0
 40
0.6
  0
HATCH
  5
1F7
330
17
100
AcDbEntity
  8
S-REBAR-MAIN
 62
1
100
AcDbHatch
 10
0.0
 20
0.0
 30
0.0
210
0.0
220
0.0
230
1.0
  2
SOLID
 70
1
 71
0
 91
1
 92
3
 72
0
 73
1
 93
16
 10
526.6
 20
343.52
 10
526.5543277195068
 20
343.749610059419
 10
526.424264068712
 20
343.9442640687119
 10
526.2296100594191
 20
344.07432771950675
 10
526.0
 20
344.12
 10
525.7703899405809
 20
344.07432771950675
 10
525.575735931288
 20
343.9442640687119
 10
525.4456722804932
 20
343.749610059419
 10
525.4
 20
343.52
 10
525.4456722804932
 20
343.29038994058095
 10
525.575735931288
 20
343.09573593128806
 10
525.7703899405809
 20
342.9656722804932
 10
526.0
 20
342.91999999999996
 10
526.2296100594191
 20
342.9656722804932
 10
526.424264068712
 20
343.09573593128806
 10
526.5543277195068
 20
343.29038994058095
 97
0
 75
0
 76
1
 98
0
  0
DIMENSION
  5
1F8
330
17
100
AcDbEntity
  8
S-DIM
100
AcDbDimension
280
0
  2
*D5
  3
SC-DIM
 10
406.0
 20
320.0
 30
0.0
 11
430.0
 21
321.7
 31
0.0
 70
32
 71
5
  1
<>
100
AcDbAlignedDimension
 13
406.0
 23
340.0
 33
0.0
 14
454.0
 24
340.0
 34
0.0
 50
0.0
100
AcDbRotatedDimension
1001
ACAD
1000
DSTYLE
1002
{
1070
144
1040
25.0
1002
}
  0
DIMENSION
  5
207
330
17
100
AcDbEntity
  8
S-DIM
100
AcDbDimension
280
0
  2
*D6
  3
SC-DIM
 10
422.0
 20
492.0
 30
0.0
 11
430.0
 21
493.7
 31
0.0
 70
32
 71
5
  1
<>
100
AcDbAlignedDimension
 13
422.0
 23
472.0
 33
0.0
 14
438.0
 24
472.0
 34
0.0
 50
0.0
100
AcDbRotatedDimension
1001
ACAD
1000
DSTYLE
1002
{
1070
144
1040
25.0
1002
}
  0
LWPOLYLINE
  5
216
330
17
100
AcDbEntity
  8
S-BLAST
100
AcDbPolyline
 90
2
 70
0
 10
430.0
 20
524.0
 10
430.0
 20
476.0
  0
LWPOLYLINE
  5
217
330
17
100
AcDbEntity
  8
S-BLAST
100
AcDbPolyline
 90
3
 70
0
 10
425.2
 20
488.0
 10
430.0
 20
476.0
 10
434.8
 20
488.0
  0
TEXT
  5
218
330
17
100
AcDbEntity
  8
S-BLAST
100
AcDbText
 10
314.0
 20
532.0
 30
0.0
 40
1.4
  1
HW3 LINE LOAD 505 kN/m (two-way) / 822 kN/m (one-way bound)
  7
OpenSans
 11
314.0
 21
532.0
 31
0.0
100
AcDbText
  0
INSERT
  5
219
330
17
100
AcDbEntity
  8
S-CALLOUT
100
AcDbBlockReference
  2
BARMARK
 10
420.0
 20
400.0
 30
0.0
  0
TEXT
  5
21B
330
17
100
AcDbEntity
  8
S-CALLOUT
100
AcDbText
 10
420.0
 20
400.0
 30
0.0
 40
2.0
  1
S16
  7
OpenSans
 72
1
 11
420.0
 21
400.0
 31
0.0
100
AcDbText
 73
2
  0
LEADER
  5
21C
330
17
100
AcDbEntity
  8
S-CALLOUT
100
AcDbLeader
  3
SC-DIM
 73
3
 76
2
 10
424.0
 20
372.52
 30
0.0
 10
420.0
 20
400.0
 30
0.0
  0
TEXT
  5
21D
330
17
100
AcDbEntity
  8
S-TITLE
100
AcDbText
 10
330.0
 20
552.0
 30
0.0
 40
3.5
  1
V2   BAND BENEATH HEADHOUSE WALL HW3
  7
OpenSans
 11
330.0
 21
552.0
 31
0.0
100
AcDbText
  0
LINE
  5
21E
330
17
100
AcDbEntity
  8
S-TITLE
100
AcDbLine
 10
330.0
 20
550.2
 30
0.0
 11
439.0696584058942
 21
550.2
 31
0.0
  0
TEXT
  5
21F
330
17
100
AcDbEntity
  8
S-TEXT
100
AcDbText
 10
330.0
 20
544.8
 30
0.0
 40
2.0
  1
SCALE 1:25
  7
OpenSans
 11
330.0
 21
544.8
 31
0.0
100
AcDbText
  0
TEXT
  5
220
330
17
100
AcDbEntity
  8
S-TITLE
100
AcDbText
 10
32.0
 20
209.5
 30
0.0
 40
2.5
  1
JUNCTION AND ANCHORAGE RULES
  7
OpenSans
 11
32.0
 21
209.5
 31
0.0
100
AcDbText
  0
TEXT
  5
221
330
17
100
AcDbEntity
  8
S-NOTE
100
AcDbText
 10
32.0
 20
205.375
 30
0.0
 40
2.0
  1
1  500 x 500 HAUNCH WITH T20 @ 150 DIAGONALS at every wall/roof and
  7
OpenSans
 11
32.0
 21
205.375
 31
0.0
100
AcDbText
  0
TEXT
  5
222
330
17
100
AcDbEntity
  8
S-NOTE
100
AcDbText
 10
32.0
 20
202.325
 30
0.0
 40
2.0
  1
   wall/mat junction of the box.  300 x 300 with T16 @ 150 at the
  7
OpenSans
 11
32.0
 21
202.325
 31
0.0
100
AcDbText
  0
TEXT
  5
223
330
17
100
AcDbEntity
  8
S-NOTE
100
AcDbText
 10
32.0
 20
199.27499999999998
 30
0.0
 40
2.0
  1
   headhouse - R-701.
  7
OpenSans
 11
32.0
 21
199.27499999999998
 31
0.0
100
AcDbText
  0
TEXT
  5
224
330
17
100
AcDbEntity
  8
S-NOTE
100
AcDbText
 10
32.0
 20
196.22499999999997
 30
0.0
 40
2.0
  1
2  SLAB TOP STEEL IS CONTINUOUS OVER EVERY SUPPORT and is anchored
  7
OpenSans
 11
32.0
 21
196.22499999999997
 31
0.0
100
AcDbText
  0
TEXT
  5
225
330
17
100
AcDbEntity
  8
S-NOTE
100
AcDbText
 10
32.0
 20
193.17499999999995
 30
0.0
 40
2.0
  1
   Ld = 1000 (T25) into the wall, measured from the support face.
  7
OpenSans
 11
32.0
 21
193.17499999999995
 31
0.0
100
AcDbText
  0
TEXT
  5
226
330
17
100
AcDbEntity
  8
S-NOTE
100
AcDbText
 10
32.0
 20
190.12499999999994
 30
0.0
 40
2.0
  1
3  WALL VERTICALS CONTINUE INTO THE SLAB and terminate 75 below the
  7
OpenSans
 11
32.0
 21
190.12499999999994
 31
0.0
100
AcDbText
  0
TEXT
  5
227
330
17
100
AcDbEntity
  8
S-NOTE
100
AcDbText
 10
32.0
 20
187.07499999999993
 30
0.0
 40
2.0
  1
   slab top - an anchorage of 825 against Ld = 640 required for T16.
  7
OpenSans
 11
32.0
 21
187.07499999999993
 31
0.0
100
AcDbText
  0
TEXT
  5
228
330
17
100
AcDbEntity
  8
S-NOTE
100
AcDbText
 10
32.0
 20
184.02499999999992
 30
0.0
 40
2.0
  1
4  THE HAUNCH IS A LOAD-PATH ELEMENT, not a fillet.  It reduces the
  7
OpenSans
 11
32.0
 21
184.02499999999992
 31
0.0
100
AcDbText
  0
TEXT
  5
229
330
17
100
AcDbEntity
  8
S-NOTE
100
AcDbText
 10
32.0
 20
180.9749999999999
 30
0.0
 40
2.0
  1
   shear span and controls cracking at the re-entrant corner of the box.
  7
OpenSans
 11
32.0
 21
180.9749999999999
 31
0.0
100
AcDbText
  0
TEXT
  5
22A
330
17
100
AcDbEntity
  8
S-NOTE
100
AcDbText
 10
32.0
 20
177.9249999999999
 30
0.0
 40
2.0
  1
5  NO REINFORCEMENT IS STOPPED AT A JUNCTION AND NO JUNCTION CONTAINS
  7
OpenSans
 11
32.0
 21
177.9249999999999
 31
0.0
100
AcDbText
  0
TEXT
  5
22B
330
17
100
AcDbEntity
  8
S-NOTE
100
AcDbText
 10
32.0
 20
174.8749999999999
 30
0.0
 40
2.0
  1
   A MOVEMENT JOINT.
  7
OpenSans
 11
32.0
 21
174.8749999999999
 31
0.0
100
AcDbText
  0
LWPOLYLINE
  5
22C
330
17
100
AcDbEntity
  8
S-TITLE
100
AcDbPolyline
 90
4
 70
1
 10
30.0
 20
169.82499999999987
 10
330.0
 20
169.82499999999987
 10
330.0
 20
214.0
 10
30.0
 20
214.0
  0
TEXT
  5
22D
330
17
100
AcDbEntity
  8
S-TITLE
100
AcDbText
 10
30.0
 20
164.82499999999987
 30
0.0
 40
2.5
  1
BAR SCHEDULE EXTRACT - THIS SHEET
  7
OpenSans
 11
30.0
 21
164.82499999999987
 31
0.0
100
AcDbText
  0
LWPOLYLINE
  5
22E
330
17
100
AcDbEntity
  8
S-TABLE
100
AcDbPolyline
 90
4
 70
1
 10
30.0
 20
157.6249999999999
 10
139.0
 20
157.6249999999999
 10
139.0
 20
161.82499999999987
 10
30.0
 20
161.82499999999987
  0
TEXT
  5
22F
330
17
100
AcDbEntity
  8
S-TABLE
100
AcDbText
 10
31.4
 20
158.77045454545444
 30
0.0
 40
1.909090909090909
  1
MARK
  7
OpenSans
 11
31.4
 21
158.77045454545444
 31
0.0
100
AcDbText
  0
TEXT
  5
230
330
17
100
AcDbEntity
  8
S-TABLE
100
AcDbText
 10
48.4
 20
158.77045454545444
 30
0.0
 40
1.909090909090909
  1
DIA
  7
OpenSans
 11
48.4
 21
158.77045454545444
 31
0.0
100
AcDbText
  0
TEXT
  5
231
330
17
100
AcDbEntity
  8
S-TABLE
100
AcDbText
 10
61.4
 20
158.77045454545444
 30
0.0
 40
1.909090909090909
  1
SHP
  7
OpenSans
 11
61.4
 21
158.77045454545444
 31
0.0
100
AcDbText
  0
TEXT
  5
232
330
17
100
AcDbEntity
  8
S-TABLE
100
AcDbText
 10
73.4
 20
158.77045454545444
 30
0.0
 40
1.909090909090909
  1
SPAC
  7
OpenSans
 11
73.4
 21
158.77045454545444
 31
0.0
100
AcDbText
  0
TEXT
  5
233
330
17
100
AcDbEntity
  8
S-TABLE
100
AcDbText
 10
88.4
 20
158.77045454545444
 30
0.0
 40
1.909090909090909
  1
No.
  7
OpenSans
 11
88.4
 21
158.77045454545444
 31
0.0
100
AcDbText
  0
TEXT
  5
234
330
17
100
AcDbEntity
  8
S-TABLE
100
AcDbText
 10
103.4
 20
158.77045454545444
 30
0.0
 40
1.909090909090909
  1
CUT
  7
OpenSans
 11
103.4
 21
158.77045454545444
 31
0.0
100
AcDbText
  0
TEXT
  5
235
330
17
100
AcDbEntity
  8
S-TABLE
100
AcDbText
 10
120.4
 20
158.77045454545444
 30
0.0
 40
1.909090909090909
  1
kg
  7
OpenSans
 11
120.4
 21
158.77045454545444
 31
0.0
100
AcDbText
  0
TEXT
  5
236
330
17
100
AcDbEntity
  8
S-TABLE
100
AcDbText
 10
31.4
 20
154.57045454545445
 30
0.0
 40
1.909090909090909
  1
S01A
  7
OpenSans
 11
31.4
 21
154.57045454545445
 31
0.0
100
AcDbText
  0
TEXT
  5
237
330
17
100
AcDbEntity
  8
S-TABLE
100
AcDbText
 10
48.4
 20
154.57045454545445
 30
0.0
 40
1.909090909090909
  1
T25
  7
OpenSans
 11
48.4
 21
154.57045454545445
 31
0.0
100
AcDbText
  0
TEXT
  5
238
330
17
100
AcDbEntity
  8
S-TABLE
100
AcDbText
 10
61.4
 20
154.57045454545445
 30
0.0
 40
1.909090909090909
  1
00
  7
OpenSans
 11
61.4
 21
154.57045454545445
 31
0.0
100
AcDbText
  0
TEXT
  5
239
330
17
100
AcDbEntity
  8
S-TABLE
100
AcDbText
 10
73.4
 20
154.57045454545445
 30
0.0
 40
1.909090909090909
  1
150
  7
OpenSans
 11
73.4
 21
154.57045454545445
 31
0.0
100
AcDbText
  0
TEXT
  5
23A
330
17
100
AcDbEntity
  8
S-TABLE
100
AcDbText
 10
88.4
 20
154.57045454545445
 30
0.0
 40
1.909090909090909
  1
127
  7
OpenSans
 11
88.4
 21
154.57045454545445
 31
0.0
100
AcDbText
  0
TEXT
  5
23B
330
17
100
AcDbEntity
  8
S-TABLE
100
AcDbText
 10
103.4
 20
154.57045454545445
 30
0.0
 40
1.909090909090909
  1
6050
  7
OpenSans
 11
103.4
 21
154.57045454545445
 31
0.0
100
AcDbText
  0
TEXT
  5
23C
330
17
100
AcDbEntity
  8
S-TABLE
100
AcDbText
 10
120.4
 20
154.57045454545445
 30
0.0
 40
1.909090909090909
  1
2961
  7
OpenSans
 11
120.4
 21
154.57045454545445
 31
0.0
100
AcDbText
  0
LINE
  5
23D
330
17
100
AcDbEntity
  8
S-TABLE
100
AcDbLine
 10
30.0
 20
153.4249999999999
 30
0.0
 11
139.0
 21
153.4249999999999
 31
0.0
  0
TEXT
  5
23E
330
17
100
AcDbEntity
  8
S-TABLE
100
AcDbText
 10
31.4
 20
150.37045454545446
 30
0.0
 40
1.909090909090909
  1
S03A
  7
OpenSans
 11
31.4
 21
150.37045454545446
 31
0.0
100
AcDbText
  0
TEXT
  5
23F
330
17
100
AcDbEntity
  8
S-TABLE
100
AcDbText
 10
48.4
 20
150.37045454545446
 30
0.0
 40
1.909090909090909
  1
T25
  7
OpenSans
 11
48.4
 21
150.37045454545446
 31
0.0
100
AcDbText
  0
TEXT
  5
240
330
17
100
AcDbEntity
  8
S-TABLE
100
AcDbText
 10
61.4
 20
150.37045454545446
 30
0.0
 40
1.909090909090909
  1
00
  7
OpenSans
 11
61.4
 21
150.37045454545446
 31
0.0
100
AcDbText
  0
TEXT
  5
241
330
17
100
AcDbEntity
  8
S-TABLE
100
AcDbText
 10
73.4
 20
150.37045454545446
 30
0.0
 40
1.909090909090909
  1
150
  7
OpenSans
 11
73.4
 21
150.37045454545446
 31
0.0
100
AcDbText
  0
TEXT
  5
242
330
17
100
AcDbEntity
  8
S-TABLE
100
AcDbText
 10
88.4
 20
150.37045454545446
 30
0.0
 40
1.909090909090909
  1
127
  7
OpenSans
 11
88.4
 21
150.37045454545446
 31
0.0
100
AcDbText
  0
TEXT
  5
243
330
17
100
AcDbEntity
  8
S-TABLE
100
AcDbText
 10
103.4
 20
150.37045454545446
 30
0.0
 40
1.909090909090909
  1
6050
  7
OpenSans
 11
103.4
 21
150.37045454545446
 31
0.0
100
AcDbText
  0
TEXT
  5
244
330
17
100
AcDbEntity
  8
S-TABLE
100
AcDbText
 10
120.4
 20
150.37045454545446
 30
0.0
 40
1.909090909090909
  1
2961
  7
OpenSans
 11
120.4
 21
150.37045454545446
 31
0.0
100
AcDbText
  0
LINE
  5
245
330
17
100
AcDbEntity
  8
S-TABLE
100
AcDbLine
 10
30.0
 20
149.2249999999999
 30
0.0
 11
139.0
 21
149.2249999999999
 31
0.0
  0
TEXT
  5
246
330
17
100
AcDbEntity
  8
S-TABLE
100
AcDbText
 10
31.4
 20
146.17045454545448
 30
0.0
 40
1.909090909090909
  1
W01
  7
OpenSans
 11
31.4
 21
146.17045454545448
 31
0.0
100
AcDbText
  0
TEXT
  5
247
330
17
100
AcDbEntity
  8
S-TABLE
100
AcDbText
 10
48.4
 20
146.17045454545448
 30
0.0
 40
1.909090909090909
  1
T16
  7
OpenSans
 11
48.4
 21
146.17045454545448
 31
0.0
100
AcDbText
  0
TEXT
  5
248
330
17
100
AcDbEntity
  8
S-TABLE
100
AcDbText
 10
61.4
 20
146.17045454545448
 30
0.0
 40
1.909090909090909
  1
00
  7
OpenSans
 11
61.4
 21
146.17045454545448
 31
0.0
100
AcDbText
  0
TEXT
  5
249
330
17
100
AcDbEntity
  8
S-TABLE
100
AcDbText
 10
73.4
 20
146.17045454545448
 30
0.0
 40
1.909090909090909
  1
150
  7
OpenSans
 11
73.4
 21
146.17045454545448
 31
0.0
100
AcDbText
  0
TEXT
  5
24A
330
17
100
AcDbEntity
  8
S-TABLE
100
AcDbText
 10
88.4
 20
146.17045454545448
 30
0.0
 40
1.909090909090909
  1
360
  7
OpenSans
 11
88.4
 21
146.17045454545448
 31
0.0
100
AcDbText
  0
TEXT
  5
24B
330
17
100
AcDbEntity
  8
S-TABLE
100
AcDbText
 10
103.4
 20
146.17045454545448
 30
0.0
 40
1.909090909090909
  1
3875
  7
OpenSans
 11
103.4
 21
146.17045454545448
 31
0.0
100
AcDbText
  0
TEXT
  5
24C
330
17
100
AcDbEntity
  8
S-TABLE
100
AcDbText
 10
120.4
 20
146.17045454545448
 30
0.0
 40
1.909090909090909
  1
2202
  7
OpenSans
 11
120.4
 21
146.17045454545448
 31
0.0
100
AcDbText
  0
LINE
  5
24D
330
17
100
AcDbEntity
  8
S-TABLE
100
AcDbLine
 10
30.0
 20
145.02499999999992
 30
0.0
 11
139.0
 21
145.02499999999992
 31
0.0
  0
TEXT
  5
24E
330
17
100
AcDbEntity
  8
S-TABLE
100
AcDbText
 10
31.4
 20
141.9704545454545
 30
0.0
 40
1.909090909090909
  1
W06
  7
OpenSans
 11
31.4
 21
141.9704545454545
 31
0.0
100
AcDbText
  0
TEXT
  5
24F
330
17
100
AcDbEntity
  8
S-TABLE
100
AcDbText
 10
48.4
 20
141.9704545454545
 30
0.0
 40
1.909090909090909
  1
T20
  7
OpenSans
 11
48.4
 21
141.9704545454545
 31
0.0
100
AcDbText
  0
TEXT
  5
250
330
17
100
AcDbEntity
  8
S-TABLE
100
AcDbText
 10
61.4
 20
141.9704545454545
 30
0.0
 40
1.909090909090909
  1
00
  7
OpenSans
 11
61.4
 21
141.9704545454545
 31
0.0
100
AcDbText
  0
TEXT
  5
251
330
17
100
AcDbEntity
  8
S-TABLE
100
AcDbText
 10
73.4
 20
141.9704545454545
 30
0.0
 40
1.909090909090909
  1
150
  7
OpenSans
 11
73.4
 21
141.9704545454545
 31
0.0
100
AcDbText
  0
TEXT
  5
252
330
17
100
AcDbEntity
  8
S-TABLE
100
AcDbText
 10
88.4
 20
141.9704545454545
 30
0.0
 40
1.909090909090909
  1
720
  7
OpenSans
 11
88.4
 21
141.9704545454545
 31
0.0
100
AcDbText
  0
TEXT
  5
253
330
17
100
AcDbEntity
  8
S-TABLE
100
AcDbText
 10
103.4
 20
141.9704545454545
 30
0.0
 40
1.909090909090909
  1
2307
  7
OpenSans
 11
103.4
 21
141.9704545454545
 31
0.0
100
AcDbText
  0
TEXT
  5
254
330
17
100
AcDbEntity
  8
S-TABLE
100
AcDbText
 10
120.4
 20
141.9704545454545
 30
0.0
 40
1.909090909090909
  1
4096
  7
OpenSans
 11
120.4
 21
141.9704545454545
 31
0.0
100
AcDbText
  0
LINE
  5
255
330
17
100
AcDbEntity
  8
S-TABLE
100
AcDbLine
 10
30.0
 20
140.82499999999993
 30
0.0
 11
139.0
 21
140.82499999999993
 31
0.0
  0
TEXT
  5
256
330
17
100
AcDbEntity
  8
S-TABLE
100
AcDbText
 10
31.4
 20
137.7704545454545
 30
0.0
 40
1.909090909090909
  1
S16
  7
OpenSans
 11
31.4
 21
137.7704545454545
 31
0.0
100
AcDbText
  0
TEXT
  5
257
330
17
100
AcDbEntity
  8
S-TABLE
100
AcDbText
 10
48.4
 20
137.7704545454545
 30
0.0
 40
1.909090909090909
  1
T25
  7
OpenSans
 11
48.4
 21
137.7704545454545
 31
0.0
100
AcDbText
  0
TEXT
  5
258
330
17
100
AcDbEntity
  8
S-TABLE
100
AcDbText
 10
61.4
 20
137.7704545454545
 30
0.0
 40
1.909090909090909
  1
00
  7
OpenSans
 11
61.4
 21
137.7704545454545
 31
0.0
100
AcDbText
  0
TEXT
  5
259
330
17
100
AcDbEntity
  8
S-TABLE
100
AcDbText
 10
73.4
 20
137.7704545454545
 30
0.0
 40
1.909090909090909
  1
-
  7
OpenSans
 11
73.4
 21
137.7704545454545
 31
0.0
100
AcDbText
  0
TEXT
  5
25A
330
17
100
AcDbEntity
  8
S-TABLE
100
AcDbText
 10
88.4
 20
137.7704545454545
 30
0.0
 40
1.909090909090909
  1
8
  7
OpenSans
 11
88.4
 21
137.7704545454545
 31
0.0
100
AcDbText
  0
TEXT
  5
25B
330
17
100
AcDbEntity
  8
S-TABLE
100
AcDbText
 10
103.4
 20
137.7704545454545
 30
0.0
 40
1.909090909090909
  1
7500
  7
OpenSans
 11
103.4
 21
137.7704545454545
 31
0.0
100
AcDbText
  0
TEXT
  5
25C
330
17
100
AcDbEntity
  8
S-TABLE
100
AcDbText
 10
120.4
 20
137.7704545454545
 30
0.0
 40
1.909090909090909
  1
231
  7
OpenSans
 11
120.4
 21
137.7704545454545
 31
0.0
100
AcDbText
  0
LINE
  5
25D
330
17
100
AcDbEntity
  8
S-TABLE
100
AcDbLine
 10
30.0
 20
136.62499999999994
 30
0.0
 11
139.0
 21
136.62499999999994
 31
0.0
  0
LINE
  5
25E
330
17
100
AcDbEntity
  8
S-TABLE
100
AcDbLine
 10
30.0
 20
161.82499999999987
 30
0.0
 11
139.0
 21
161.82499999999987
 31
0.0
  0
LINE
  5
25F
330
17
100
AcDbEntity
  8
S-TABLE
100
AcDbLine
 10
30.0
 20
161.82499999999987
 30
0.0
 11
30.0
 21
136.62499999999994
 31
0.0
  0
LINE
  5
260
330
17
100
AcDbEntity
  8
S-TABLE
100
AcDbLine
 10
47.0
 20
161.82499999999987
 30
0.0
 11
47.0
 21
136.62499999999994
 31
0.0
  0
LINE
  5
261
330
17
100
AcDbEntity
  8
S-TABLE
100
AcDbLine
 10
60.0
 20
161.82499999999987
 30
0.0
 11
60.0
 21
136.62499999999994
 31
0.0
  0
LINE
  5
262
330
17
100
AcDbEntity
  8
S-TABLE
100
AcDbLine
 10
72.0
 20
161.82499999999987
 30
0.0
 11
72.0
 21
136.62499999999994
 31
0.0
  0
LINE
  5
263
330
17
100
AcDbEntity
  8
S-TABLE
100
AcDbLine
 10
87.0
 20
161.82499999999987
 30
0.0
 11
87.0
 21
136.62499999999994
 31
0.0
  0
LINE
  5
264
330
17
100
AcDbEntity
  8
S-TABLE
100
AcDbLine
 10
102.0
 20
161.82499999999987
 30
0.0
 11
102.0
 21
136.62499999999994
 31
0.0
  0
LINE
  5
265
330
17
100
AcDbEntity
  8
S-TABLE
100
AcDbLine
 10
119.0
 20
161.82499999999987
 30
0.0
 11
119.0
 21
136.62499999999994
 31
0.0
  0
LINE
  5
266
330
17
100
AcDbEntity
  8
S-TABLE
100
AcDbLine
 10
139.0
 20
161.82499999999987
 30
0.0
 11
139.0
 21
136.62499999999994
 31
0.0
  0
TEXT
  5
267
330
17
100
AcDbEntity
  8
S-TABLE
100
AcDbText
 10
30.0
 20
132.22499999999994
 30
0.0
 40
1.4
  1
SHEET SUB-TOTAL  12,451 kg     FULL SCHEDULE: R-004 and Structural CAD/Schedules/BBS_MASTER.md
  7
OpenSans
 11
30.0
 21
132.22499999999994
 31
0.0
100
AcDbText
  0
TEXT
  5
268
330
17
100
AcDbEntity
  8
S-TITLE
100
AcDbText
 10
342.0
 20
295.5
 30
0.0
 40
2.5
  1
HW3 - THE WALL THAT HAS NOTHING UNDER IT
  7
OpenSans
 11
342.0
 21
295.5
 31
0.0
100
AcDbText
  0
TEXT
  5
269
330
17
100
AcDbEntity
  8
S-NOTE
100
AcDbText
 10
342.0
 20
291.375
 30
0.0
 40
2.0
  1
The pressure slab spans ONE-WAY in Y over 5000 clear.  HW3 runs IN the Y
  7
OpenSans
 11
342.0
 21
291.375
 31
0.0
100
AcDbText
  0
TEXT
  5
26A
330
17
100
AcDbEntity
  8
S-NOTE
100
AcDbText
 10
342.0
 20
288.325
 30
0.0
 40
2.0
  1
direction, so its load is carried by a slab strip acting as a beam.
  7
OpenSans
 11
342.0
 21
288.325
 31
0.0
100
AcDbText
  0
TEXT
  5
26B
330
17
100
AcDbEntity
  8
S-NOTE
100
AcDbText
 10
342.0
 20
285.275
 30
0.0
 40
2.0
  1
  b_eff = 0.400 + 2 x 1.05 (45 deg spread through the 900 slab) = 2.5 m
  7
OpenSans
 11
342.0
 21
285.275
 31
0.0
100
AcDbText
  0
TEXT
  5
26C
330
17
100
AcDbEntity
  8
S-NOTE
100
AcDbText
 10
342.0
 20
282.22499999999997
 30
0.0
 40
2.0
  1
  [ASSUMED - master K.2 item A11]
  7
OpenSans
 11
342.0
 21
282.22499999999997
 31
0.0
100
AcDbText
  0
TEXT
  5
26D
330
17
100
AcDbEntity
  8
S-NOTE
100
AcDbText
 10
342.0
 20
276.12499999999994
 30
0.0
 40
2.0
  1
CASE 1 - two-way roof distribution (IS 456 Cl. 24.5, correct)
  7
OpenSans
 11
342.0
 21
276.12499999999994
 31
0.0
100
AcDbText
  0
TEXT
  5
26E
330
17
100
AcDbEntity
  8
S-NOTE
100
AcDbText
 10
342.0
 20
273.07499999999993
 30
0.0
 40
2.0
  1
  line load 476 (trapezoid) + 29 (self)        =  505 kN/m
  7
OpenSans
 11
342.0
 21
273.07499999999993
 31
0.0
100
AcDbText
  0
TEXT
  5
26F
330
17
100
AcDbEntity
  8
S-NOTE
100
AcDbText
 10
342.0
 20
270.0249999999999
 30
0.0
 40
2.0
  1
  equivalent UDL = 505/2.5 + 22.5 + 2.0        =  226 kPa
  7
OpenSans
 11
342.0
 21
270.0249999999999
 31
0.0
100
AcDbText
  0
TEXT
  5
270
330
17
100
AcDbEntity
  8
S-NOTE
100
AcDbText
 10
342.0
 20
266.9749999999999
 30
0.0
 40
2.0
  1
  M = w Ln2 / 16                               =  354 kNm/m
  7
OpenSans
 11
342.0
 21
266.9749999999999
 31
0.0
100
AcDbText
  0
TEXT
  5
271
330
17
100
AcDbEntity
  8
S-NOTE
100
AcDbText
 10
342.0
 20
263.9249999999999
 30
0.0
 40
2.0
  1
  against the slab's 1362 kNm/m capacity       =  26 %   OK
  7
OpenSans
 11
342.0
 21
263.9249999999999
 31
0.0
100
AcDbText
  0
TEXT
  5
272
330
17
100
AcDbEntity
  8
S-NOTE
100
AcDbText
 10
342.0
 20
257.8249999999999
 30
0.0
 40
2.0
  1
CASE 2 - one-way roof bound
  7
OpenSans
 11
342.0
 21
257.8249999999999
 31
0.0
100
AcDbText
  0
TEXT
  5
273
330
17
100
AcDbEntity
  8
S-NOTE
100
AcDbText
 10
342.0
 20
254.77499999999986
 30
0.0
 40
2.0
  1
  line load 793 + 29 = 822 kN/m  ->  353 kPa   ->  M = 552 kNm/m = 41 %  OK
  7
OpenSans
 11
342.0
 21
254.77499999999986
 31
0.0
100
AcDbText
  0
TEXT
  5
274
330
17
100
AcDbEntity
  8
S-NOTE
100
AcDbText
 10
342.0
 20
248.67499999999984
 30
0.0
 40
2.0
  1
ADOPTED  NO SLAB CHANGE.  DETAILED AS A LINE LOAD, NOT AS A SUPPORT.
  7
OpenSans
 11
342.0
 21
248.67499999999984
 31
0.0
100
AcDbText
  0
TEXT
  5
275
330
17
100
AcDbEntity
  8
S-NOTE
100
AcDbText
 10
342.0
 20
245.62499999999983
 30
0.0
 40
2.0
  1
ROBUSTNESS  4 No. T25 ADDITIONAL TOP AND BOTTOM IN A 1200 BAND BENEATH
  7
OpenSans
 11
342.0
 21
245.62499999999983
 31
0.0
100
AcDbText
  0
TEXT
  5
276
330
17
100
AcDbEntity
  8
S-NOTE
100
AcDbText
 10
342.0
 20
242.57499999999982
 30
0.0
 40
2.0
  1
HW3, LAPPED 1250 (50 phi) INTO THE MAIN MESH.
  7
OpenSans
 11
342.0
 21
242.57499999999982
 31
0.0
100
AcDbText
  0
TEXT
  5
277
330
17
100
AcDbEntity
  8
S-NOTE
100
AcDbText
 10
342.0
 20
236.4749999999998
 30
0.0
 40
2.0
  1
HW1 and HW2 sit directly over the box perimeter walls; HW4 sits over W7
  7
OpenSans
 11
342.0
 21
236.4749999999998
 31
0.0
100
AcDbText
  0
TEXT
  5
278
330
17
100
AcDbEntity
  8
S-NOTE
100
AcDbText
 10
342.0
 20
233.42499999999978
 30
0.0
 40
2.0
  1
(M1 made these align exactly).  HW3 IS THE ONLY HEADHOUSE WALL WITH
  7
OpenSans
 11
342.0
 21
233.42499999999978
 31
0.0
100
AcDbText
  0
TEXT
  5
279
330
17
100
AcDbEntity
  8
S-NOTE
100
AcDbText
 10
342.0
 20
230.37499999999977
 30
0.0
 40
2.0
  1
NOTHING UNDER IT.
  7
OpenSans
 11
342.0
 21
230.37499999999977
 31
0.0
100
AcDbText
  0
LWPOLYLINE
  5
27A
330
17
100
AcDbEntity
  8
S-TITLE
100
AcDbPolyline
 90
4
 70
1
 10
340.0
 20
225.32499999999976
 10
638.0
 20
225.32499999999976
 10
638.0
 20
300.0
 10
340.0
 20
300.0
  0
LWPOLYLINE
  5
27B
330
17
100
AcDbEntity
  8
S-TITLE
100
AcDbPolyline
 90
4
 70
1
 10
651.0
 20
10.0
 10
831.0
 20
10.0
 10
831.0
 20
110.0
 10
651.0
 20
110.0
  0
LINE
  5
27C
330
17
100
AcDbEntity
  8
S-TITLE
100
AcDbLine
 10
651.0
 20
30.0
 30
0.0
 11
831.0
 21
30.0
 31
0.0
  0
LINE
  5
27D
330
17
100
AcDbEntity
  8
S-TITLE
100
AcDbLine
 10
651.0
 20
42.0
 30
0.0
 11
831.0
 21
42.0
 31
0.0
  0
LINE
  5
27E
330
17
100
AcDbEntity
  8
S-TITLE
100
AcDbLine
 10
651.0
 20
54.0
 30
0.0
 11
831.0
 21
54.0
 31
0.0
  0
LINE
  5
27F
330
17
100
AcDbEntity
  8
S-TITLE
100
AcDbLine
 10
651.0
 20
66.0
 30
0.0
 11
831.0
 21
66.0
 31
0.0
  0
LINE
  5
280
330
17
100
AcDbEntity
  8
S-TITLE
100
AcDbLine
 10
651.0
 20
88.0
 30
0.0
 11
831.0
 21
88.0
 31
0.0
  0
LINE
  5
281
330
17
100
AcDbEntity
  8
S-TITLE
100
AcDbLine
 10
763.0
 20
10.0
 30
0.0
 11
763.0
 21
30.0
 31
0.0
  0
LINE
  5
282
330
17
100
AcDbEntity
  8
S-TITLE
100
AcDbLine
 10
797.0
 20
10.0
 30
0.0
 11
797.0
 21
30.0
 31
0.0
  0
TEXT
  5
283
330
17
100
AcDbEntity
  8
S-TITLE
100
AcDbText
 10
653.0
 20
24.6
 30
0.0
 40
1.4
  1
DRAWING No.
  7
OpenSans
 11
653.0
 21
24.6
 31
0.0
100
AcDbText
  0
TEXT
  5
284
330
17
100
AcDbEntity
  8
S-TITLE
100
AcDbText
 10
673.0
 20
14.2
 30
0.0
 40
3.5
  1
R-304
  7
OpenSans
 11
673.0
 21
14.2
 31
0.0
100
AcDbText
  0
TEXT
  5
285
330
17
100
AcDbEntity
  8
S-TITLE
100
AcDbText
 10
765.0
 20
24.6
 30
0.0
 40
1.4
  1
REV
  7
OpenSans
 11
765.0
 21
24.6
 31
0.0
100
AcDbText
  0
TEXT
  5
286
330
17
100
AcDbEntity
  8
S-TITLE
100
AcDbText
 10
769.0
 20
14.2
 30
0.0
 40
3.5
  1
SC1
  7
OpenSans
 11
769.0
 21
14.2
 31
0.0
100
AcDbText
  0
TEXT
  5
287
330
17
100
AcDbEntity
  8
S-TITLE
100
AcDbText
 10
799.0
 20
24.6
 30
0.0
 40
1.4
  1
SHEET
  7
OpenSans
 11
799.0
 21
24.6
 31
0.0
100
AcDbText
  0
TEXT
  5
288
330
17
100
AcDbEntity
  8
S-TITLE
100
AcDbText
 10
799.0
 20
15.0
 30
0.0
 40
1.6
  1
16 OF 30
  7
OpenSans
 11
799.0
 21
15.0
 31
0.0
100
AcDbText
  0
LINE
  5
289
330
17
100
AcDbEntity
  8
S-TITLE
100
AcDbLine
 10
747.0
 20
30.0
 30
0.0
 11
747.0
 21
42.0
 31
0.0
  0
TEXT
  5
28A
330
17
100
AcDbEntity
  8
S-TITLE
100
AcDbText
 10
653.0
 20
34.4
 30
0.0
 40
1.6
  1
SCALE   1:10, 1:25
  7
OpenSans
 11
653.0
 21
34.4
 31
0.0
100
AcDbText
  0
TEXT
  5
28B
330
17
100
AcDbEntity
  8
S-TITLE
100
AcDbText
 10
749.0
 20
34.4
 30
0.0
 40
1.6
  1
DATE   04.09.2026
  7
OpenSans
 11
749.0
 21
34.4
 31
0.0
100
AcDbText
  0
TEXT
  5
28C
330
17
100
AcDbEntity
  8
S-TITLE
100
AcDbText
 10
653.0
 20
46.4
 30
0.0
 40
1.4
  1
DESIGNED  [PLACEHOLDER]
  7
OpenSans
 11
653.0
 21
46.4
 31
0.0
100
AcDbText
  0
TEXT
  5
28D
330
17
100
AcDbEntity
  8
S-TITLE
100
AcDbText
 10
713.0
 20
46.4
 30
0.0
 40
1.4
  1
CHECKED  [PLACEHOLDER]
  7
OpenSans
 11
713.0
 21
46.4
 31
0.0
100
AcDbText
  0
TEXT
  5
28E
330
17
100
AcDbEntity
  8
S-TITLE
100
AcDbText
 10
773.0
 20
46.4
 30
0.0
 40
1.4
  1
APPROVED  [PLACEHOLDER]
  7
OpenSans
 11
773.0
 21
46.4
 31
0.0
100
AcDbText
  0
TEXT
  5
28F
330
17
100
AcDbEntity
  8
S-TITLE
100
AcDbText
 10
653.0
 20
58.4
 30
0.0
 40
1.4
  1
STATUS
  7
OpenSans
 11
653.0
 21
58.4
 31
0.0
100
AcDbText
  0
TEXT
  5
290
330
17
100
AcDbEntity
  8
S-BLAST
100
AcDbText
 10
673.0
 20
58.0
 30
0.0
 40
1.6
  1
FOR REVIEW - NOT FOR CONSTRUCTION
  7
OpenSans
 11
673.0
 21
58.0
 31
0.0
100
AcDbText
  0
TEXT
  5
291
330
17
100
AcDbEntity
  8
S-TITLE
100
AcDbText
 10
653.0
 20
83.4
 30
0.0
 40
1.4
  1
DRAWING TITLE
  7
OpenSans
 11
653.0
 21
83.4
 31
0.0
100
AcDbText
  0
TEXT
  5
292
330
17
100
AcDbEntity
  8
S-TITLE
100
AcDbText
 10
653.0
 20
75.4
 30
0.0
 40
2.4
  1
ROOF / WALL JUNCTION DETAILS
  7
OpenSans
 11
653.0
 21
75.4
 31
0.0
100
AcDbText
  0
TEXT
  5
293
330
17
100
AcDbEntity
  8
S-TITLE
100
AcDbText
 10
653.0
 20
68.8
 30
0.0
 40
1.4
  1
HAUNCHES · ANCHORAGE OF TOP STEEL · HW3 LINE-LOAD BAND
  7
OpenSans
 11
653.0
 21
68.8
 31
0.0
100
AcDbText
  0
TEXT
  5
294
330
17
100
AcDbEntity
  8
S-TITLE
100
AcDbText
 10
653.0
 20
105.2
 30
0.0
 40
1.4
  1
PROJECT
  7
OpenSans
 11
653.0
 21
105.2
 31
0.0
100
AcDbText
  0
TEXT
  5
295
330
17
100
AcDbEntity
  8
S-TITLE
100
AcDbText
 10
653.0
 20
99.6
 30
0.0
 40
1.6
  1
UNDERGROUND CBRN-HARDENED BLAST-RESISTANT
  7
OpenSans
 11
653.0
 21
99.6
 31
0.0
100
AcDbText
  0
TEXT
  5
296
330
17
100
AcDbEntity
  8
S-TITLE
100
AcDbText
 10
653.0
 20
95.0
 30
0.0
 40
1.6
  1
PROTECTIVE STRUCTURE  -  PUNE, MAHARASHTRA
  7
OpenSans
 11
653.0
 21
95.0
 31
0.0
100
AcDbText
  0
TEXT
  5
297
330
17
100
AcDbEntity
  8
S-TITLE
100
AcDbText
 10
653.0
 20
90.0
 30
0.0
 40
1.4
  1
STRUCTURAL PHASE 2 REV A + M1   ·   SENTRY POST NOT IN THIS PACKAGE
  7
OpenSans
 11
653.0
 21
90.0
 31
0.0
100
AcDbText
  0
ENDSEC
  0
SECTION
  2
OBJECTS
  0
DICTIONARY
  5
A
330
0
100
AcDbDictionary
281
1
  3
ACAD_COLOR
350
B
  3
ACAD_GROUP
350
C
  3
ACAD_LAYOUT
350
D
  3
ACAD_MATERIAL
350
E
  3
ACAD_MLEADERSTYLE
350
F
  3
ACAD_MLINESTYLE
350
10
  3
ACAD_PLOTSETTINGS
350
11
  3
ACAD_PLOTSTYLENAME
350
12
  3
ACAD_SCALELIST
350
14
  3
ACAD_TABLESTYLE
350
15
  3
ACAD_VISUALSTYLE
350
16
  3
EZDXF_META
350
2D
  0
DICTIONARY
  5
B
330
A
100
AcDbDictionary
281
1
  0
DICTIONARY
  5
C
330
A
100
AcDbDictionary
281
1
  0
DICTIONARY
  5
D
330
A
100
AcDbDictionary
281
1
  3
Model
350
1A
  3
Layout1
350
1E
  0
DICTIONARY
  5
E
330
A
100
AcDbDictionary
281
1
  3
ByBlock
350
1F
  3
ByLayer
350
20
  3
Global
350
21
  0
DICTIONARY
  5
F
330
A
100
AcDbDictionary
281
1
  3
Standard
350
2C
  0
DICTIONARY
  5
10
330
A
100
AcDbDictionary
281
1
  3
Standard
350
22
  0
DICTIONARY
  5
11
330
A
100
AcDbDictionary
281
1
  0
ACDBDICTIONARYWDFLT
  5
12
330
A
100
AcDbDictionary
281
1
  3
Normal
350
13
100
AcDbDictionaryWithDefault
340
13
  0
ACDBPLACEHOLDER
  5
13
330
12
  0
DICTIONARY
  5
14
330
A
100
AcDbDictionary
281
1
  0
DICTIONARY
  5
15
330
A
100
AcDbDictionary
281
1
  0
DICTIONARY
  5
16
330
A
100
AcDbDictionary
281
1
  3
2dWireframe
350
5A
  3
Basic
350
5B
  3
Brighten
350
5C
  3
ColorChange
350
5D
  3
Conceptual
350
5E
  3
Dim
350
5F
  3
EdgeColorOff
350
60
  3
Facepattern
350
61
  3
Flat
350
62
  3
FlatWithEdges
350
63
  3
Gouraud
350
64
  3
GouraudWithEdges
350
65
  3
Hidden
350
66
  3
JitterOff
350
67
  3
Linepattern
350
68
  3
Modeling
350
69
  3
OverhangOff
350
6A
  3
Realistic
350
6B
  3
Shaded
350
6C
  3
Shaded with edges
350
6D
  3
Shades of Gray
350
6E
  3
Sketchy
350
6F
  3
Thicken
350
70
  3
Wireframe
350
71
  3
X-Ray
350
72
  0
LAYOUT
  5
1A
330
D
100
AcDbPlotSettings
  1

  4
A3
  6

 40
7.5
 41
20.0
 42
7.5
 43
20.0
 44
420.0
 45
297.0
 46
0.0
 47
0.0
 48
0.0
 49
0.0
140
0.0
141
0.0
142
1.0
143
1.0
 70
1024
 72
1
 73
0
 74
5
  7

 75
16
 76
0
 77
2
 78
300
147
1.0
148
0.0
149
0.0
100
AcDbLayout
  1
Model
 70
1
 71
0
 10
0.0
 20
0.0
 11
420.0
 21
297.0
 12
0.0
 22
0.0
 32
0.0
 14
1e+20
 24
1e+20
 34
1e+20
 15
-1e+20
 25
-1e+20
 35
-1e+20
146
0.0
 13
0.0
 23
0.0
 33
0.0
 16
1.0
 26
0.0
 36
0.0
 17
0.0
 27
1.0
 37
0.0
 76
1
330
17
  0
LAYOUT
  5
1E
330
D
100
AcDbPlotSettings
  1

  4
A3
  6

 40
7.5
 41
20.0
 42
7.5
 43
20.0
 44
420.0
 45
297.0
 46
0.0
 47
0.0
 48
0.0
 49
0.0
140
0.0
141
0.0
142
1.0
143
1.0
 70
0
 72
1
 73
0
 74
5
  7

 75
16
 76
0
 77
2
 78
300
147
1.0
148
0.0
149
0.0
100
AcDbLayout
  1
Layout1
 70
1
 71
1
 10
0.0
 20
0.0
 11
420.0
 21
297.0
 12
0.0
 22
0.0
 32
0.0
 14
1e+20
 24
1e+20
 34
1e+20
 15
-1e+20
 25
-1e+20
 35
-1e+20
146
0.0
 13
0.0
 23
0.0
 33
0.0
 16
1.0
 26
0.0
 36
0.0
 17
0.0
 27
1.0
 37
0.0
 76
1
330
1B
  0
MATERIAL
  5
1F
102
{ACAD_REACTORS
330
E
102
}
330
E
100
AcDbMaterial
  1
ByBlock
  2

 70
0
 40
1.0
 71
1
 41
1.0
 91
-1023410177
 42
1.0
 72
1
  3

 73
1
 74
1
 75
1
 44
0.5
 73
0
 45
1.0
 46
1.0
 77
1
  4

 78
1
 79
1
170
1
 48
1.0
171
1
  6

172
1
173
1
174
1
140
1.0
141
1.0
175
1
  7

176
1
177
1
178
1
143
1.0
179
1
  8

270
1
271
1
272
1
145
1.0
146
1.0
273
1
  9

274
1
275
1
276
1
 42
1.0
 72
1
  3

 73
1
 74
1
 75
1
 94
63
  0
MATERIAL
  5
20
102
{ACAD_REACTORS
330
E
102
}
330
E
100
AcDbMaterial
  1
ByLayer
  2

 70
0
 40
1.0
 71
1
 41
1.0
 91
-1023410177
 42
1.0
 72
1
  3

 73
1
 74
1
 75
1
 44
0.5
 73
0
 45
1.0
 46
1.0
 77
1
  4

 78
1
 79
1
170
1
 48
1.0
171
1
  6

172
1
173
1
174
1
140
1.0
141
1.0
175
1
  7

176
1
177
1
178
1
143
1.0
179
1
  8

270
1
271
1
272
1
145
1.0
146
1.0
273
1
  9

274
1
275
1
276
1
 42
1.0
 72
1
  3

 73
1
 74
1
 75
1
 94
63
  0
MATERIAL
  5
21
102
{ACAD_REACTORS
330
E
102
}
330
E
100
AcDbMaterial
  1
Global
  2

 70
0
 40
1.0
 71
1
 41
1.0
 91
-1023410177
 42
1.0
 72
1
  3

 73
1
 74
1
 75
1
 44
0.5
 73
0
 45
1.0
 46
1.0
 77
1
  4

 78
1
 79
1
170
1
 48
1.0
171
1
  6

172
1
173
1
174
1
140
1.0
141
1.0
175
1
  7

176
1
177
1
178
1
143
1.0
179
1
  8

270
1
271
1
272
1
145
1.0
146
1.0
273
1
  9

274
1
275
1
276
1
 42
1.0
 72
1
  3

 73
1
 74
1
 75
1
 94
63
  0
MLINESTYLE
  5
22
102
{ACAD_REACTORS
330
10
102
}
330
10
100
AcDbMlineStyle
  2
Standard
 70
0
  3

 62
256
 51
90.0
 52
90.0
 71
2
 49
0.5
 62
256
  6
BYLAYER
 49
-0.5
 62
256
  6
BYLAYER
  0
MLEADERSTYLE
  5
2C
102
{ACAD_REACTORS
330
F
102
}
330
F
100
AcDbMLeaderStyle
179
2
170
2
171
1
172
0
 90
2
 40
0.0
 41
0.0
173
1
 91
-1056964608
 92
-2
290
1
 42
2.0
291
1
 43
8.0
  3
Standard
 44
4.0
300

342
29
174
1
175
1
176
0
178
1
 93
-1056964608
 45
4.0
292
0
297
0
 46
4.0
 94
-1056964608
 47
1.0
 49
1.0
140
1.0
294
1
141
0.0
177
0
142
1.0
295
0
296
0
143
3.75
271
0
272
9
273
9
  0
DICTIONARY
  5
2D
330
A
100
AcDbDictionary
280
1
281
1
  3
CREATED_BY_EZDXF
350
2E
  3
WRITTEN_BY_EZDXF
350
29A
  0
DICTIONARYVAR
  5
2E
330
2D
100
DictionaryVariables
280
0
  1
1.4.4 @ 2026-09-09T16:15:23.556919+00:00
  0
VISUALSTYLE
  5
5A
102
{ACAD_REACTORS
330
16
102
}
330
16
100
AcDbVisualStyle
  2
2dWireframe
 70
4
 90
0
 40
0.6
 62
7
290
0
291
0
  0
VISUALSTYLE
  5
5B
102
{ACAD_REACTORS
330
16
102
}
330
16
100
AcDbVisualStyle
  2
Basic
 70
7
 90
1
 40
0.6
 62
7
290
0
291
1
  0
VISUALSTYLE
  5
5C
102
{ACAD_REACTORS
330
16
102
}
330
16
100
AcDbVisualStyle
  2
Brighten
 70
12
 90
2
 40
0.6
 62
7
290
0
291
1
  0
VISUALSTYLE
  5
5D
102
{ACAD_REACTORS
330
16
102
}
330
16
100
AcDbVisualStyle
  2
ColorChange
 70
16
 90
2
 40
0.6
 62
8
290
0
291
1
  0
VISUALSTYLE
  5
5E
102
{ACAD_REACTORS
330
16
102
}
330
16
100
AcDbVisualStyle
  2
Conceptual
 70
9
 90
3
 40
0.6
 62
7
290
0
291
0
  0
VISUALSTYLE
  5
5F
102
{ACAD_REACTORS
330
16
102
}
330
16
100
AcDbVisualStyle
  2
Dim
 70
11
 90
2
 40
0.6
 62
7
290
0
291
1
  0
VISUALSTYLE
  5
60
102
{ACAD_REACTORS
330
16
102
}
330
16
100
AcDbVisualStyle
  2
EdgeColorOff
 70
22
 90
2
 40
0.6
 62
7
290
0
291
1
  0
VISUALSTYLE
  5
61
102
{ACAD_REACTORS
330
16
102
}
330
16
100
AcDbVisualStyle
  2
Facepattern
 70
15
 90
2
 40
0.6
 62
7
290
0
291
1
  0
VISUALSTYLE
  5
62
102
{ACAD_REACTORS
330
16
102
}
330
16
100
AcDbVisualStyle
  2
Flat
 70
0
 90
2
 40
0.6
 62
7
290
0
291
1
  0
VISUALSTYLE
  5
63
102
{ACAD_REACTORS
330
16
102
}
330
16
100
AcDbVisualStyle
  2
FlatWithEdges
 70
1
 90
2
 40
0.6
 62
7
290
0
291
1
  0
VISUALSTYLE
  5
64
102
{ACAD_REACTORS
330
16
102
}
330
16
100
AcDbVisualStyle
  2
Gouraud
 70
2
 90
2
 40
0.6
 62
7
290
0
291
1
  0
VISUALSTYLE
  5
65
102
{ACAD_REACTORS
330
16
102
}
330
16
100
AcDbVisualStyle
  2
GouraudWithEdges
 70
3
 90
2
 40
0.6
 62
7
290
0
291
1
  0
VISUALSTYLE
  5
66
102
{ACAD_REACTORS
330
16
102
}
330
16
100
AcDbVisualStyle
  2
Hidden
 70
6
 90
1
 40
0.6
 62
7
290
0
291
0
  0
VISUALSTYLE
  5
67
102
{ACAD_REACTORS
330
16
102
}
330
16
100
AcDbVisualStyle
  2
JitterOff
 70
20
 90
2
 40
0.6
 62
7
290
0
291
1
  0
VISUALSTYLE
  5
68
102
{ACAD_REACTORS
330
16
102
}
330
16
100
AcDbVisualStyle
  2
Linepattern
 70
14
 90
2
 40
0.6
 62
7
290
0
291
1
  0
VISUALSTYLE
  5
69
102
{ACAD_REACTORS
330
16
102
}
330
16
100
AcDbVisualStyle
  2
Modeling
 70
10
 90
2
 40
0.6
 62
7
290
0
291
0
  0
VISUALSTYLE
  5
6A
102
{ACAD_REACTORS
330
16
102
}
330
16
100
AcDbVisualStyle
  2
OverhangOff
 70
21
 90
2
 40
0.6
 62
7
290
0
291
1
  0
VISUALSTYLE
  5
6B
102
{ACAD_REACTORS
330
16
102
}
330
16
100
AcDbVisualStyle
  2
Realistic
 70
8
 90
2
 40
0.6
 62
7
290
0
291
0
  0
VISUALSTYLE
  5
6C
102
{ACAD_REACTORS
330
16
102
}
330
16
100
AcDbVisualStyle
  2
Shaded
 70
27
 90
2
 40
0.6
 62
7
290
0
291
0
  0
VISUALSTYLE
  5
6D
102
{ACAD_REACTORS
330
16
102
}
330
16
100
AcDbVisualStyle
  2
Shaded with edges
 70
26
 90
2
 40
0.6
 62
7
290
0
291
0
  0
VISUALSTYLE
  5
6E
102
{ACAD_REACTORS
330
16
102
}
330
16
100
AcDbVisualStyle
  2
Shades of Gray
 70
23
 90
2
 40
0.6
 62
7
290
0
291
0
  0
VISUALSTYLE
  5
6F
102
{ACAD_REACTORS
330
16
102
}
330
16
100
AcDbVisualStyle
  2
Sketchy
 70
24
 90
1
 40
0.6
 62
7
290
0
291
0
  0
VISUALSTYLE
  5
70
102
{ACAD_REACTORS
330
16
102
}
330
16
100
AcDbVisualStyle
  2
Thicken
 70
13
 90
2
 40
0.6
 62
7
290
0
291
1
  0
VISUALSTYLE
  5
71
102
{ACAD_REACTORS
330
16
102
}
330
16
100
AcDbVisualStyle
  2
Wireframe
 70
5
 90
0
 40
0.6
 62
7
290
0
291
0
  0
VISUALSTYLE
  5
72
102
{ACAD_REACTORS
330
16
102
}
330
16
100
AcDbVisualStyle
  2
X-Ray
 70
25
 90
2
 40
0.5
 62
7
290
0
291
0
  0
DICTIONARYVAR
  5
29A
330
2D
100
DictionaryVariables
280
0
  1
1.4.4 @ 2026-09-09T16:15:23.577845+00:00
  0
ENDSEC
  0
EOF
