  0
SECTION
  2
HEADER
  9
$ACADVER
  1
AC1024
  9
$ACADMAINTVER
 70
6
  9
$DWGCODEPAGE
  3
ANSI_1252
  9
$LASTSAVEDBY
  1
ezdxf
  9
$INSBASE
 10
0.0
 20
0.0
 30
0.0
  9
$EXTMIN
 10
1e+20
 20
1e+20
 30
1e+20
  9
$EXTMAX
 10
-1e+20
 20
-1e+20
 30
-1e+20
  9
$LIMMIN
 10
0.0
 20
0.0
  9
$LIMMAX
 10
420.0
 20
297.0
  9
$ORTHOMODE
 70
0
  9
$REGENMODE
 70
1
  9
$FILLMODE
 70
1
  9
$QTEXTMODE
 70
0
  9
$MIRRTEXT
 70
1
  9
$LTSCALE
 40
1.0
  9
$ATTMODE
 70
1
  9
$TEXTSIZE
 40
2.5
  9
$TRACEWID
 40
1.0
  9
$TEXTSTYLE
  7
OpenSans
  9
$CLAYER
  8
0
  9
$CELTYPE
  6
ByLayer
  9
$CECOLOR
 62
256
  9
$CELTSCALE
 40
1.0
  9
$DISPSILH
 70
0
  9
$DIMSCALE
 40
1.0
  9
$DIMASZ
 40
0.175
  9
$DIMEXO
 40
0.125
  9
$DIMDLI
 40
3.75
  9
$DIMRND
 40
0.0
  9
$DIMDLE
 40
0.0
  9
$DIMEXE
 40
0.375
  9
$DIMTP
 40
0.0
  9
$DIMTM
 40
0.0
  9
$DIMTXT
 40
0.25
  9
$DIMCEN
 40
2.5
  9
$DIMTSZ
 40
0.0
  9
$DIMTOL
 70
0
  9
$DIMLIM
 70
0
  9
$DIMTIH
 70
0
  9
$DIMTOH
 70
0
  9
$DIMSE1
 70
0
  9
$DIMSE2
 70
0
  9
$DIMTAD
 70
1
  9
$DIMZIN
 70
12
  9
$DIMBLK
  1
ARCHTICK
  9
$DIMASO
 70
1
  9
$DIMSHO
 70
1
  9
$DIMPOST
  1

  9
$DIMAPOST
  1

  9
$DIMALT
 70
0
  9
$DIMALTD
 70
3
  9
$DIMALTF
 40
0.03937007874
  9
$DIMLFAC
 40
100.0
  9
$DIMTOFL
 70
1
  9
$DIMTVP
 40
0.0
  9
$DIMTIX
 70
0
  9
$DIMSOXD
 70
0
  9
$DIMSAH
 70
0
  9
$DIMBLK1
  1

  9
$DIMBLK2
  1

  9
$DIMSTYLE
  2
EZDXF
  9
$DIMCLRD
 70
0
  9
$DIMCLRE
 70
0
  9
$DIMCLRT
 70
0
  9
$DIMTFAC
 40
0.5
  9
$DIMGAP
 40
0.1
  9
$DIMJUST
 70
0
  9
$DIMSD1
 70
0
  9
$DIMSD2
 70
0
  9
$DIMTOLJ
 70
0
  9
$DIMTZIN
 70
8
  9
$DIMALTZ
 70
0
  9
$DIMALTTZ
 70
0
  9
$DIMUPT
 70
1
  9
$DIMDEC
 70
2
  9
$DIMTDEC
 70
2
  9
$DIMALTU
 70
2
  9
$DIMALTTD
 70
3
  9
$DIMTXSTY
  7
OpenSansCondensed-Light
  9
$DIMAUNIT
 70
0
  9
$DIMADEC
 70
2
  9
$DIMALTRND
 40
0.0
  9
$DIMAZIN
 70
3
  9
$DIMDSEP
 70
46
  9
$DIMATFIT
 70
3
  9
$DIMFRAC
 70
0
  9
$DIMLDRBLK
  1

  9
$DIMLUNIT
 70
2
  9
$DIMLWD
 70
-2
  9
$DIMLWE
 70
-2
  9
$DIMTMOVE
 70
2
  9
$DIMFXL
 40
1.0
  9
$DIMFXLON
 70
0
  9
$DIMJOGANG
 40
0.785398163397
  9
$DIMTFILL
 70
0
  9
$DIMTFILLCLR
 70
0
  9
$DIMARCSYM
 70
0
  9
$DIMLTYPE
  6

  9
$DIMLTEX1
  6

  9
$DIMLTEX2
  6

  9
$DIMTXTDIRECTION
 70
0
  9
$LUNITS
 70
2
  9
$LUPREC
 70
4
  9
$SKETCHINC
 40
1.0
  9
$FILLETRAD
 40
10.0
  9
$AUNITS
 70
0
  9
$AUPREC
 70
2
  9
$MENU
  1
.
  9
$ELEVATION
 40
0.0
  9
$PELEVATION
 40
0.0
  9
$THICKNESS
 40
0.0
  9
$LIMCHECK
 70
0
  9
$CHAMFERA
 40
0.0
  9
$CHAMFERB
 40
0.0
  9
$CHAMFERC
 40
0.0
  9
$CHAMFERD
 40
0.0
  9
$SKPOLY
 70
0
  9
$TDCREATE
 40
2461293.677349537
  9
$TDUCREATE
 40
2458532.153996898
  9
$TDUPDATE
 40
2461293.677349537
  9
$TDUUPDATE
 40
2458532.1544311
  9
$TDINDWG
 40
0.0
  9
$TDUSRTIMER
 40
0.0
  9
$USRTIMER
 70
1
  9
$ANGBASE
 50
0.0
  9
$ANGDIR
 70
0
  9
$PDMODE
 70
0
  9
$PDSIZE
 40
0.0
  9
$PLINEWID
 40
0.0
  9
$SPLFRAME
 70
0
  9
$SPLINETYPE
 70
6
  9
$SPLINESEGS
 70
8
  9
$HANDSEED
  5
352
  9
$SURFTAB1
 70
6
  9
$SURFTAB2
 70
6
  9
$SURFTYPE
 70
6
  9
$SURFU
 70
6
  9
$SURFV
 70
6
  9
$UCSBASE
  2

  9
$UCSNAME
  2

  9
$UCSORG
 10
0.0
 20
0.0
 30
0.0
  9
$UCSXDIR
 10
1.0
 20
0.0
 30
0.0
  9
$UCSYDIR
 10
0.0
 20
1.0
 30
0.0
  9
$UCSORTHOREF
  2

  9
$UCSORTHOVIEW
 70
0
  9
$UCSORGTOP
 10
0.0
 20
0.0
 30
0.0
  9
$UCSORGBOTTOM
 10
0.0
 20
0.0
 30
0.0
  9
$UCSORGLEFT
 10
0.0
 20
0.0
 30
0.0
  9
$UCSORGRIGHT
 10
0.0
 20
0.0
 30
0.0
  9
$UCSORGFRONT
 10
0.0
 20
0.0
 30
0.0
  9
$UCSORGBACK
 10
0.0
 20
0.0
 30
0.0
  9
$PUCSBASE
  2

  9
$PUCSNAME
  2

  9
$PUCSORG
 10
0.0
 20
0.0
 30
0.0
  9
$PUCSXDIR
 10
1.0
 20
0.0
 30
0.0
  9
$PUCSYDIR
 10
0.0
 20
1.0
 30
0.0
  9
$PUCSORTHOREF
  2

  9
$PUCSORTHOVIEW
 70
0
  9
$PUCSORGTOP
 10
0.0
 20
0.0
 30
0.0
  9
$PUCSORGBOTTOM
 10
0.0
 20
0.0
 30
0.0
  9
$PUCSORGLEFT
 10
0.0
 20
0.0
 30
0.0
  9
$PUCSORGRIGHT
 10
0.0
 20
0.0
 30
0.0
  9
$PUCSORGFRONT
 10
0.0
 20
0.0
 30
0.0
  9
$PUCSORGBACK
 10
0.0
 20
0.0
 30
0.0
  9
$USERI1
 70
0
  9
$USERI2
 70
0
  9
$USERI3
 70
0
  9
$USERI4
 70
0
  9
$USERI5
 70
0
  9
$USERR1
 40
0.0
  9
$USERR2
 40
0.0
  9
$USERR3
 40
0.0
  9
$USERR4
 40
0.0
  9
$USERR5
 40
0.0
  9
$WORLDVIEW
 70
1
  9
$SHADEDGE
 70
3
  9
$SHADEDIF
 70
70
  9
$TILEMODE
 70
1
  9
$MAXACTVP
 70
64
  9
$PINSBASE
 10
0.0
 20
0.0
 30
0.0
  9
$PLIMCHECK
 70
0
  9
$PEXTMIN
 10
1e+20
 20
1e+20
 30
1e+20
  9
$PEXTMAX
 10
-1e+20
 20
-1e+20
 30
-1e+20
  9
$PLIMMIN
 10
0.0
 20
0.0
  9
$PLIMMAX
 10
420.0
 20
297.0
  9
$UNITMODE
 70
0
  9
$VISRETAIN
 70
1
  9
$PLINEGEN
 70
0
  9
$PSLTSCALE
 70
1
  9
$TREEDEPTH
 70
3020
  9
$CMLSTYLE
  2
Standard
  9
$CMLJUST
 70
0
  9
$CMLSCALE
 40
20.0
  9
$PROXYGRAPHICS
 70
1
  9
$MEASUREMENT
 70
1
  9
$CELWEIGHT
370
-1
  9
$ENDCAPS
280
0
  9
$JOINSTYLE
280
0
  9
$LWDISPLAY
290
0
  9
$INSUNITS
 70
4
  9
$HYPERLINKBASE
  1

  9
$STYLESHEET
  1

  9
$XEDIT
290
1
  9
$CEPSNTYPE
380
0
  9
$PSTYLEMODE
290
1
  9
$FINGERPRINTGUID
  2
{DA05B678-D101-435E-9FAC-D2D88737C73D}
  9
$VERSIONGUID
  2
{DAB34E83-133D-4A84-8EC5-6D3FD96AAB34}
  9
$EXTNAMES
290
1
  9
$PSVPSCALE
 40
0.0
  9
$OLESTARTUP
290
0
  9
$SORTENTS
280
127
  9
$INDEXCTL
280
0
  9
$HIDETEXT
280
1
  9
$XCLIPFRAME
280
1
  9
$HALOGAP
280
0
  9
$OBSCOLOR
 70
257
  9
$OBSLTYPE
280
0
  9
$INTERSECTIONDISPLAY
280
0
  9
$INTERSECTIONCOLOR
 70
257
  9
$DIMASSOC
280
2
  9
$PROJECTNAME
  1

  9
$CAMERADISPLAY
290
0
  9
$LENSLENGTH
 40
50.0
  9
$CAMERAHEIGHT
 40
0.0
  9
$STEPSPERSEC
 40
24.0
  9
$STEPSIZE
 40
100.0
  9
$3DDWFPREC
 40
2.0
  9
$PSOLWIDTH
 40
0.005
  9
$PSOLHEIGHT
 40
0.08
  9
$LOFTANG1
 40
1.570796326795
  9
$LOFTANG2
 40
1.570796326795
  9
$LOFTMAG1
 40
0.0
  9
$LOFTMAG2
 40
0.0
  9
$LOFTPARAM
 70
7
  9
$LOFTNORMALS
280
1
  9
$LATITUDE
 40
37.795
  9
$LONGITUDE
 40
-122.394
  9
$NORTHDIRECTION
 40
0.0
  9
$TIMEZONE
 70
-8000
  9
$LIGHTGLYPHDISPLAY
280
1
  9
$TILEMODELIGHTSYNCH
280
1
  9
$CMATERIAL
347
20
  9
$SOLIDHIST
280
0
  9
$SHOWHIST
280
1
  9
$DWFFRAME
280
2
  9
$DGNFRAME
280
2
  9
$REALWORLDSCALE
290
1
  9
$INTERFERECOLOR
 62
256
  9
$CSHADOW
280
0
  9
$SHADOWPLANELOCATION
 40
0.0
  0
ENDSEC
  0
SECTION
  2
CLASSES
  0
CLASS
  1
ACDBDICTIONARYWDFLT
  2
AcDbDictionaryWithDefault
  3
ObjectDBX Classes
 90
0
 91
0
280
0
281
0
  0
CLASS
  1
SUN
  2
AcDbSun
  3
SCENEOE
 90
1153
 91
0
280
0
281
0
  0
CLASS
  1
VISUALSTYLE
  2
AcDbVisualStyle
  3
ObjectDBX Classes
 90
4095
 91
0
280
0
281
0
  0
CLASS
  1
MATERIAL
  2
AcDbMaterial
  3
ObjectDBX Classes
 90
1153
 91
0
280
0
281
0
  0
CLASS
  1
SCALE
  2
AcDbScale
  3
ObjectDBX Classes
 90
1153
 91
0
280
0
281
0
  0
CLASS
  1
TABLESTYLE
  2
AcDbTableStyle
  3
ObjectDBX Classes
 90
4095
 91
0
280
0
281
0
  0
CLASS
  1
MLEADERSTYLE
  2
AcDbMLeaderStyle
  3
ACDB_MLEADERSTYLE_CLASS
 90
4095
 91
0
280
0
281
0
  0
CLASS
  1
DICTIONARYVAR
  2
AcDbDictionaryVar
  3
ObjectDBX Classes
 90
0
 91
0
280
0
281
0
  0
CLASS
  1
CELLSTYLEMAP
  2
AcDbCellStyleMap
  3
ObjectDBX Classes
 90
1152
 91
0
280
0
281
0
  0
CLASS
  1
MENTALRAYRENDERSETTINGS
  2
AcDbMentalRayRenderSettings
  3
SCENEOE
 90
1024
 91
0
280
0
281
0
  0
CLASS
  1
ACDBDETAILVIEWSTYLE
  2
AcDbDetailViewStyle
  3
ObjectDBX Classes
 90
1025
 91
0
280
0
281
0
  0
CLASS
  1
ACDBSECTIONVIEWSTYLE
  2
AcDbSectionViewStyle
  3
ObjectDBX Classes
 90
1025
 91
0
280
0
281
0
  0
CLASS
  1
RASTERVARIABLES
  2
AcDbRasterVariables
  3
ISM
 90
0
 91
0
280
0
281
0
  0
CLASS
  1
LAYOUT
  2
AcDbLayout
  3
ObjectDBX Classes
 90
0
 91
0
280
0
281
0
  0
CLASS
  1
ACDBPLACEHOLDER
  2
AcDbPlaceHolder
  3
ObjectDBX Classes
 90
0
 91
0
280
0
281
0
  0
ENDSEC
  0
SECTION
  2
TABLES
  0
TABLE
  2
VPORT
  5
8
330
0
100
AcDbSymbolTable
 70
1
  0
VPORT
  5
23
330
8
100
AcDbSymbolTableRecord
100
AcDbViewportTableRecord
  2
*Active
 70
0
 10
0.0
 20
0.0
 11
1.0
 21
1.0
 12
0.0
 22
0.0
 13
0.0
 23
0.0
 14
0.5
 24
0.5
 15
0.5
 25
0.5
 16
0.0
 26
0.0
 36
1.0
 17
0.0
 27
0.0
 37
0.0
 40
1000.0
 41
1.34
 42
50.0
 43
0.0
 44
0.0
 50
0.0
 51
0.0
 71
0
 72
1000
 73
1
 74
3
 75
0
 76
0
 77
0
 78
0
281
0
 65
0
146
0.0
  0
ENDTAB
  0
TABLE
  2
LTYPE
  5
2
330
0
100
AcDbSymbolTable
 70
21
  0
LTYPE
  5
24
330
2
100
AcDbSymbolTableRecord
100
AcDbLinetypeTableRecord
  2
ByBlock
 70
0
  3

 72
65
 73
0
 40
0.0
  0
LTYPE
  5
25
330
2
100
AcDbSymbolTableRecord
100
AcDbLinetypeTableRecord
  2
ByLayer
 70
0
  3

 72
65
 73
0
 40
0.0
  0
LTYPE
  5
26
330
2
100
AcDbSymbolTableRecord
100
AcDbLinetypeTableRecord
  2
Continuous
 70
0
  3

 72
65
 73
0
 40
0.0
  0
LTYPE
  5
2F
330
2
100
AcDbSymbolTableRecord
100
AcDbLinetypeTableRecord
  2
CENTER
 70
0
  3
Center ____ _ ____ _ ____ _ ____ _ ____ _ ____
 72
65
 73
4
 40
5.08
 49
3.175
 74
0
 49
-0.635
 74
0
 49
0.635
 74
0
 49
-0.635
 74
0
  0
LTYPE
  5
30
330
2
100
AcDbSymbolTableRecord
100
AcDbLinetypeTableRecord
  2
CENTERX2
 70
0
  3
Center (2x) ________  __  ________  __  ________
 72
65
 73
4
 40
8.89
 49
6.35
 74
0
 49
-0.635
 74
0
 49
1.27
 74
0
 49
-0.635
 74
0
  0
LTYPE
  5
31
330
2
100
AcDbSymbolTableRecord
100
AcDbLinetypeTableRecord
  2
CENTER2
 70
0
  3
Center (.5x) ____ _ ____ _ ____ _ ____ _ ____
 72
65
 73
4
 40
2.54
 49
1.587
 74
0
 49
-0.318
 74
0
 49
0.318
 74
0
 49
-0.318
 74
0
  0
LTYPE
  5
32
330
2
100
AcDbSymbolTableRecord
100
AcDbLinetypeTableRecord
  2
DASHED
 70
0
  3
Dashed __ __ __ __ __ __ __ __ __ __ __ __ __ _
 72
65
 73
2
 40
1.524
 49
1.27
 74
0
 49
-0.254
 74
0
  0
LTYPE
  5
33
330
2
100
AcDbSymbolTableRecord
100
AcDbLinetypeTableRecord
  2
DASHEDX2
 70
0
  3
Dashed (2x) ____  ____  ____  ____  ____  ____
 72
65
 73
2
 40
3.048
 49
2.54
 74
0
 49
-0.508
 74
0
  0
LTYPE
  5
34
330
2
100
AcDbSymbolTableRecord
100
AcDbLinetypeTableRecord
  2
DASHED2
 70
0
  3
Dashed (.5x) _ _ _ _ _ _ _ _ _ _ _ _ _ _
 72
65
 73
2
 40
0.762
 49
0.635
 74
0
 49
-0.127
 74
0
  0
LTYPE
  5
35
330
2
100
AcDbSymbolTableRecord
100
AcDbLinetypeTableRecord
  2
PHANTOM
 70
0
  3
Phantom ______  __  __  ______  __  __  ______
 72
65
 73
6
 40
6.35
 49
3.175
 74
0
 49
-0.635
 74
0
 49
0.635
 74
0
 49
-0.635
 74
0
 49
0.635
 74
0
 49
-0.635
 74
0
  0
LTYPE
  5
36
330
2
100
AcDbSymbolTableRecord
100
AcDbLinetypeTableRecord
  2
PHANTOMX2
 70
0
  3
Phantom (2x)____________    ____    ____    ____________
 72
65
 73
6
 40
10.795
 49
6.35
 74
0
 49
-0.635
 74
0
 49
1.27
 74
0
 49
-0.635
 74
0
 49
1.27
 74
0
 49
-0.635
 74
0
  0
LTYPE
  5
37
330
2
100
AcDbSymbolTableRecord
100
AcDbLinetypeTableRecord
  2
PHANTOM2
 70
0
  3
Phantom (.5x) ___ _ _ ___ _ _ ___ _ _ ___ _ _ ___
 72
65
 73
6
 40
3.175
 49
1.587
 74
0
 49
-0.318
 74
0
 49
0.318
 74
0
 49
-0.318
 74
0
 49
0.318
 74
0
 49
-0.318
 74
0
  0
LTYPE
  5
38
330
2
100
AcDbSymbolTableRecord
100
AcDbLinetypeTableRecord
  2
DASHDOT
 70
0
  3
Dash dot __ . __ . __ . __ . __ . __ . __ . __
 72
65
 73
4
 40
3.556
 49
2.54
 74
0
 49
-0.508
 74
0
 49
0.0
 74
0
 49
-0.508
 74
0
  0
LTYPE
  5
39
330
2
100
AcDbSymbolTableRecord
100
AcDbLinetypeTableRecord
  2
DASHDOTX2
 70
0
  3
Dash dot (2x) ____  .  ____  .  ____  .  ____
 72
65
 73
4
 40
6.096
 49
5.08
 74
0
 49
-0.508
 74
0
 49
0.0
 74
0
 49
-0.508
 74
0
  0
LTYPE
  5
3A
330
2
100
AcDbSymbolTableRecord
100
AcDbLinetypeTableRecord
  2
DASHDOT2
 70
0
  3
Dash dot (.5x) _ . _ . _ . _ . _ . _ . _ . _
 72
65
 73
4
 40
1.778
 49
1.27
 74
0
 49
-0.254
 74
0
 49
0.0
 74
0
 49
-0.254
 74
0
  0
LTYPE
  5
3B
330
2
100
AcDbSymbolTableRecord
100
AcDbLinetypeTableRecord
  2
DOT
 70
0
  3
Dot .  .  .  .  .  .  .  .  .  .  .  .  .  .  .  .
 72
65
 73
2
 40
0.508
 49
0.0
 74
0
 49
-0.508
 74
0
  0
LTYPE
  5
3C
330
2
100
AcDbSymbolTableRecord
100
AcDbLinetypeTableRecord
  2
DOTX2
 70
0
  3
Dot (2x) .    .    .    .    .    .    .    . 
 72
65
 73
2
 40
1.016
 49
0.0
 74
0
 49
-1.016
 74
0
  0
LTYPE
  5
3D
330
2
100
AcDbSymbolTableRecord
100
AcDbLinetypeTableRecord
  2
DOT2
 70
0
  3
Dot (.5) . . . . . . . . . . . . . . . . . . . 
 72
65
 73
2
 40
0.254
 49
0.0
 74
0
 49
-0.254
 74
0
  0
LTYPE
  5
3E
330
2
100
AcDbSymbolTableRecord
100
AcDbLinetypeTableRecord
  2
DIVIDE
 70
0
  3
Divide __ . . __ . . __ . . __ . . __ . . __
 72
65
 73
6
 40
4.064
 49
2.54
 74
0
 49
-0.508
 74
0
 49
0.0
 74
0
 49
-0.508
 74
0
 49
0.0
 74
0
 49
-0.508
 74
0
  0
LTYPE
  5
3F
330
2
100
AcDbSymbolTableRecord
100
AcDbLinetypeTableRecord
  2
DIVIDEX2
 70
0
  3
Divide (2x) ____  . .  ____  . .  ____  . .  ____
 72
65
 73
6
 40
6.604
 49
5.08
 74
0
 49
-0.508
 74
0
 49
0.0
 74
0
 49
-0.508
 74
0
 49
0.0
 74
0
 49
-0.508
 74
0
  0
LTYPE
  5
40
330
2
100
AcDbSymbolTableRecord
100
AcDbLinetypeTableRecord
  2
DIVIDE2
 70
0
  3
Divide(.5x) _ . _ . _ . _ . _ . _ . _ . _
 72
65
 73
6
 40
2.032
 49
1.27
 74
0
 49
-0.254
 74
0
 49
0.0
 74
0
 49
-0.254
 74
0
 49
0.0
 74
0
 49
-0.254
 74
0
  0
ENDTAB
  0
TABLE
  2
LAYER
  5
1
330
0
100
AcDbSymbolTable
 70
26
  0
LAYER
  5
27
330
1
100
AcDbSymbolTableRecord
100
AcDbLayerTableRecord
  2
0
 70
0
 62
7
  6
Continuous
370
-3
390
13
347
21
  0
LAYER
  5
28
330
1
100
AcDbSymbolTableRecord
100
AcDbLayerTableRecord
  2
Defpoints
 70
0
 62
7
  6
Continuous
290
0
370
-3
390
13
347
21
  0
LAYER
  5
8A
330
1
100
AcDbSymbolTableRecord
100
AcDbLayerTableRecord
  2
S-CONCRETE
 70
0
 62
7
  6
Continuous
370
-3
390
13
347
21
1001
AcAecLayerStandard
1000

1000
Structural concrete outlines (cut)
  0
LAYER
  5
8C
330
1
100
AcDbSymbolTableRecord
100
AcDbLayerTableRecord
  2
S-CONCRETE-THIN
 70
0
 62
7
  6
Continuous
370
-3
390
13
347
21
1001
AcAecLayerStandard
1000

1000
Concrete beyond the cut plane
  0
LAYER
  5
8D
330
1
100
AcDbSymbolTableRecord
100
AcDbLayerTableRecord
  2
S-HIDDEN
 70
0
 62
8
  6
Continuous
370
-3
390
13
347
21
1001
AcAecLayerStandard
1000

1000
Concrete / features beyond, hidden
  0
LAYER
  5
8E
330
1
100
AcDbSymbolTableRecord
100
AcDbLayerTableRecord
  2
S-REBAR-MAIN
 70
0
 62
1
  6
Continuous
370
-3
390
13
347
21
1001
AcAecLayerStandard
1000

1000
Main reinforcement
  0
LAYER
  5
8F
330
1
100
AcDbSymbolTableRecord
100
AcDbLayerTableRecord
  2
S-REBAR-DIST
 70
0
 62
3
  6
Continuous
370
-3
390
13
347
21
1001
AcAecLayerStandard
1000

1000
Distribution reinforcement
  0
LAYER
  5
90
330
1
100
AcDbSymbolTableRecord
100
AcDbLayerTableRecord
  2
S-REBAR-STIRRUP
 70
0
 62
6
  6
Continuous
370
-3
390
13
347
21
1001
AcAecLayerStandard
1000

1000
Links and stirrups
  0
LAYER
  5
91
330
1
100
AcDbSymbolTableRecord
100
AcDbLayerTableRecord
  2
S-REBAR-TIE
 70
0
 62
6
  6
Continuous
370
-3
390
13
347
21
1001
AcAecLayerStandard
1000

1000
Ties, cross-ties, starters
  0
LAYER
  5
92
330
1
100
AcDbSymbolTableRecord
100
AcDbLayerTableRecord
  2
S-REBAR-SEC
 70
0
 62
4
  6
Continuous
370
-3
390
13
347
21
1001
AcAecLayerStandard
1000

1000
Trimmers, secondary and additional bars
  0
LAYER
  5
93
330
1
100
AcDbSymbolTableRecord
100
AcDbLayerTableRecord
  2
S-DIM
 70
0
 62
4
  6
Continuous
370
-3
390
13
347
21
1001
AcAecLayerStandard
1000

1000
Dimensions
  0
LAYER
  5
94
330
1
100
AcDbSymbolTableRecord
100
AcDbLayerTableRecord
  2
S-TEXT
 70
0
 62
7
  6
Continuous
370
-3
390
13
347
21
1001
AcAecLayerStandard
1000

1000
General annotation
  0
LAYER
  5
95
330
1
100
AcDbSymbolTableRecord
100
AcDbLayerTableRecord
  2
S-NOTE
 70
0
 62
7
  6
Continuous
370
-3
390
13
347
21
1001
AcAecLayerStandard
1000

1000
Note panels
  0
LAYER
  5
96
330
1
100
AcDbSymbolTableRecord
100
AcDbLayerTableRecord
  2
S-CALLOUT
 70
0
 62
2
  6
Continuous
370
-3
390
13
347
21
1001
AcAecLayerStandard
1000

1000
Bar-mark balloons and leaders
  0
LAYER
  5
97
330
1
100
AcDbSymbolTableRecord
100
AcDbLayerTableRecord
  2
S-SECTION
 70
0
 62
1
  6
Continuous
370
-3
390
13
347
21
1001
AcAecLayerStandard
1000

1000
Section and detail markers
  0
LAYER
  5
98
330
1
100
AcDbSymbolTableRecord
100
AcDbLayerTableRecord
  2
S-GRID
 70
0
 62
5
  6
Continuous
370
-3
390
13
347
21
1001
AcAecLayerStandard
1000

1000
Grid lines and bubbles
  0
LAYER
  5
99
330
1
100
AcDbSymbolTableRecord
100
AcDbLayerTableRecord
  2
S-CENTER
 70
0
 62
6
  6
Continuous
370
-3
390
13
347
21
1001
AcAecLayerStandard
1000

1000
Centrelines
  0
LAYER
  5
9A
330
1
100
AcDbSymbolTableRecord
100
AcDbLayerTableRecord
  2
S-HATCH
 70
0
 62
8
  6
Continuous
370
-3
390
13
347
21
1001
AcAecLayerStandard
1000

1000
Section hatch
  0
LAYER
  5
9B
330
1
100
AcDbSymbolTableRecord
100
AcDbLayerTableRecord
  2
S-TITLE
 70
0
 62
7
  6
Continuous
370
-3
390
13
347
21
1001
AcAecLayerStandard
1000

1000
Border, title block, view titles
  0
LAYER
  5
9C
330
1
100
AcDbSymbolTableRecord
100
AcDbLayerTableRecord
  2
S-EXISTING
 70
0
 62
8
  6
Continuous
370
-3
390
13
347
21
1001
AcAecLayerStandard
1000

1000
Soil, rock, berm, cover layers
  0
LAYER
  5
9D
330
1
100
AcDbSymbolTableRecord
100
AcDbLayerTableRecord
  2
S-REFERENCE
 70
0
 62
8
  6
Continuous
370
-3
390
13
347
21
1001
AcAecLayerStandard
1000

1000
Reference geometry, extents
  0
LAYER
  5
9E
330
1
100
AcDbSymbolTableRecord
100
AcDbLayerTableRecord
  2
S-WATERPROOF
 70
0
 62
30
  6
Continuous
370
-3
390
13
347
21
1001
AcAecLayerStandard
1000

1000
Membranes, waterstops, GWT
  0
LAYER
  5
9F
330
1
100
AcDbSymbolTableRecord
100
AcDbLayerTableRecord
  2
S-STEELWORK
 70
0
 62
2
  6
Continuous
370
-3
390
13
347
21
1001
AcAecLayerStandard
1000

1000
Cast-in frames, EMP straps, steel items
  0
LAYER
  5
A0
330
1
100
AcDbSymbolTableRecord
100
AcDbLayerTableRecord
  2
S-LEVEL
 70
0
 62
4
  6
Continuous
370
-3
390
13
347
21
1001
AcAecLayerStandard
1000

1000
Level markers
  0
LAYER
  5
A1
330
1
100
AcDbSymbolTableRecord
100
AcDbLayerTableRecord
  2
S-TABLE
 70
0
 62
7
  6
Continuous
370
-3
390
13
347
21
1001
AcAecLayerStandard
1000

1000
Tables and schedules
  0
LAYER
  5
A2
330
1
100
AcDbSymbolTableRecord
100
AcDbLayerTableRecord
  2
S-BLAST
 70
0
 62
1
  6
Continuous
370
-3
390
13
347
21
1001
AcAecLayerStandard
1000

1000
Blast arrows, findings, warnings
  0
ENDTAB
  0
TABLE
  2
STYLE
  5
5
330
0
100
AcDbSymbolTable
 70
26
  0
STYLE
  5
29
330
5
100
AcDbSymbolTableRecord
100
AcDbTextStyleTableRecord
  2
Standard
 70
0
 40
0.0
 41
1.0
 50
0.0
 71
0
 42
2.5
  3
txt
  4

  0
STYLE
  5
41
330
5
100
AcDbSymbolTableRecord
100
AcDbTextStyleTableRecord
  2
OpenSans-Light
 70
0
 40
0.0
 41
1.0
 50
0.0
 71
0
 42
2.5
  3
OpenSans-Light.ttf
  4

  0
STYLE
  5
42
330
5
100
AcDbSymbolTableRecord
100
AcDbTextStyleTableRecord
  2
OpenSans-Light-Italic
 70
0
 40
0.0
 41
1.0
 50
0.0
 71
0
 42
2.5
  3
OpenSans-LightItalic.ttf
  4

  0
STYLE
  5
43
330
5
100
AcDbSymbolTableRecord
100
AcDbTextStyleTableRecord
  2
OpenSans
 70
0
 40
0.0
 41
1.0
 50
0.0
 71
0
 42
2.5
  3
OpenSans-Regular.ttf
  4

  0
STYLE
  5
44
330
5
100
AcDbSymbolTableRecord
100
AcDbTextStyleTableRecord
  2
OpenSans-Italic
 70
0
 40
0.0
 41
1.0
 50
0.0
 71
0
 42
2.5
  3
OpenSans-Italic.ttf
  4

  0
STYLE
  5
45
330
5
100
AcDbSymbolTableRecord
100
AcDbTextStyleTableRecord
  2
OpenSans-SemiBold
 70
0
 40
0.0
 41
1.0
 50
0.0
 71
0
 42
2.5
  3
OpenSans-SemiBold.ttf
  4

  0
STYLE
  5
46
330
5
100
AcDbSymbolTableRecord
100
AcDbTextStyleTableRecord
  2
OpenSans-SemiBoldItalic
 70
0
 40
0.0
 41
1.0
 50
0.0
 71
0
 42
2.5
  3
OpenSans-SemiBoldItalic.ttf
  4

  0
STYLE
  5
47
330
5
100
AcDbSymbolTableRecord
100
AcDbTextStyleTableRecord
  2
OpenSans-Bold
 70
0
 40
0.0
 41
1.0
 50
0.0
 71
0
 42
2.5
  3
OpenSans-Bold.ttf
  4

  0
STYLE
  5
48
330
5
100
AcDbSymbolTableRecord
100
AcDbTextStyleTableRecord
  2
OpenSans-BoldItalic
 70
0
 40
0.0
 41
1.0
 50
0.0
 71
0
 42
2.5
  3
OpenSans-BoldItalic.ttf
  4

  0
STYLE
  5
49
330
5
100
AcDbSymbolTableRecord
100
AcDbTextStyleTableRecord
  2
OpenSans-ExtraBold
 70
0
 40
0.0
 41
1.0
 50
0.0
 71
0
 42
2.5
  3
OpenSans-ExtraBold.ttf
  4

  0
STYLE
  5
4A
330
5
100
AcDbSymbolTableRecord
100
AcDbTextStyleTableRecord
  2
OpenSans-ExtraBoldItalic
 70
0
 40
0.0
 41
1.0
 50
0.0
 71
0
 42
2.5
  3
OpenSans-ExtraBoldItalic.ttf
  4

  0
STYLE
  5
4B
330
5
100
AcDbSymbolTableRecord
100
AcDbTextStyleTableRecord
  2
OpenSansCondensed-Bold
 70
0
 40
0.0
 41
1.0
 50
0.0
 71
0
 42
2.5
  3
OpenSansCondensed-Bold.ttf
  4

  0
STYLE
  5
4C
330
5
100
AcDbSymbolTableRecord
100
AcDbTextStyleTableRecord
  2
OpenSansCondensed-Light
 70
0
 40
0.0
 41
1.0
 50
0.0
 71
0
 42
2.5
  3
OpenSansCondensed-Light.ttf
  4

  0
STYLE
  5
4D
330
5
100
AcDbSymbolTableRecord
100
AcDbTextStyleTableRecord
  2
OpenSansCondensed-Italic
 70
0
 40
0.0
 41
1.0
 50
0.0
 71
0
 42
2.5
  3
OpenSansCondensed-LightItalic.ttf
  4

  0
STYLE
  5
4E
330
5
100
AcDbSymbolTableRecord
100
AcDbTextStyleTableRecord
  2
LiberationSans
 70
0
 40
0.0
 41
1.0
 50
0.0
 71
0
 42
2.5
  3
LiberationSans-Regular.ttf
  4

  0
STYLE
  5
4F
330
5
100
AcDbSymbolTableRecord
100
AcDbTextStyleTableRecord
  2
LiberationSans-Bold
 70
0
 40
0.0
 41
1.0
 50
0.0
 71
0
 42
2.5
  3
LiberationSans-Bold.ttf
  4

  0
STYLE
  5
50
330
5
100
AcDbSymbolTableRecord
100
AcDbTextStyleTableRecord
  2
LiberationSans-BoldItalic
 70
0
 40
0.0
 41
1.0
 50
0.0
 71
0
 42
2.5
  3
LiberationSans-BoldItalic.ttf
  4

  0
STYLE
  5
51
330
5
100
AcDbSymbolTableRecord
100
AcDbTextStyleTableRecord
  2
LiberationSans-Italic
 70
0
 40
0.0
 41
1.0
 50
0.0
 71
0
 42
2.5
  3
LiberationSans-Italic.ttf
  4

  0
STYLE
  5
52
330
5
100
AcDbSymbolTableRecord
100
AcDbTextStyleTableRecord
  2
LiberationSerif
 70
0
 40
0.0
 41
1.0
 50
0.0
 71
0
 42
2.5
  3
LiberationSerif-Regular.ttf
  4

  0
STYLE
  5
53
330
5
100
AcDbSymbolTableRecord
100
AcDbTextStyleTableRecord
  2
LiberationSerif-Bold
 70
0
 40
0.0
 41
1.0
 50
0.0
 71
0
 42
2.5
  3
LiberationSerif-Bold.ttf
  4

  0
STYLE
  5
54
330
5
100
AcDbSymbolTableRecord
100
AcDbTextStyleTableRecord
  2
LiberationSerif-BoldItalic
 70
0
 40
0.0
 41
1.0
 50
0.0
 71
0
 42
2.5
  3
LiberationSerif-BoldItalic.ttf
  4

  0
STYLE
  5
55
330
5
100
AcDbSymbolTableRecord
100
AcDbTextStyleTableRecord
  2
LiberationSerif-Italic
 70
0
 40
0.0
 41
1.0
 50
0.0
 71
0
 42
2.5
  3
LiberationSerif-Italic.ttf
  4

  0
STYLE
  5
56
330
5
100
AcDbSymbolTableRecord
100
AcDbTextStyleTableRecord
  2
LiberationMono
 70
0
 40
0.0
 41
1.0
 50
0.0
 71
0
 42
2.5
  3
LiberationMono-Regular.ttf
  4

  0
STYLE
  5
57
330
5
100
AcDbSymbolTableRecord
100
AcDbTextStyleTableRecord
  2
LiberationMono-Bold
 70
0
 40
0.0
 41
1.0
 50
0.0
 71
0
 42
2.5
  3
LiberationMono-Bold.ttf
  4

  0
STYLE
  5
58
330
5
100
AcDbSymbolTableRecord
100
AcDbTextStyleTableRecord
  2
LiberationMono-BoldItalic
 70
0
 40
0.0
 41
1.0
 50
0.0
 71
0
 42
2.5
  3
LiberationMono-BoldItalic.ttf
  4

  0
STYLE
  5
59
330
5
100
AcDbSymbolTableRecord
100
AcDbTextStyleTableRecord
  2
LiberationMono-Italic
 70
0
 40
0.0
 41
1.0
 50
0.0
 71
0
 42
2.5
  3
LiberationMono-Italic.ttf
  4

  0
ENDTAB
  0
TABLE
  2
VIEW
  5
7
330
0
100
AcDbSymbolTable
 70
0
  0
ENDTAB
  0
TABLE
  2
UCS
  5
6
330
0
100
AcDbSymbolTable
 70
0
  0
ENDTAB
  0
TABLE
  2
APPID
  5
3
330
0
100
AcDbSymbolTable
 70
4
  0
APPID
  5
2A
330
3
100
AcDbSymbolTableRecord
100
AcDbRegAppTableRecord
  2
ACAD
 70
0
  0
APPID
  5
8B
330
3
100
AcDbSymbolTableRecord
100
AcDbRegAppTableRecord
  2
AcAecLayerStandard
 70
0
  0
APPID
  5
34F
330
3
100
AcDbSymbolTableRecord
100
AcDbRegAppTableRecord
  2
HATCHBACKGROUNDCOLOR
 70
0
  0
APPID
  5
350
330
3
100
AcDbSymbolTableRecord
100
AcDbRegAppTableRecord
  2
EZDXF
 70
0
  0
ENDTAB
  0
TABLE
  2
DIMSTYLE
  5
4
330
0
100
AcDbSymbolTable
 70
14
100
AcDbDimStyleTable
  0
DIMSTYLE
105
2B
330
4
100
AcDbSymbolTableRecord
100
AcDbDimStyleTableRecord
  2
Standard
 70
0
 40
1.0
 41
2.5
 42
0.625
 43
3.75
 44
1.25
 45
0.0
 46
0.0
 47
0.0
 48
0.0
 49
2.5
140
2.5
141
2.5
142
0.0
143
0.03937007874
144
1.0
145
0.0
146
1.0
147
0.625
148
0.0
 69
0
 70
0
 71
0
 72
0
 73
0
 74
0
 75
0
 76
0
 77
1
 78
8
 79
3
170
0
171
3
172
1
173
0
174
0
175
0
176
0
177
0
178
0
179
2
271
2
272
2
273
2
274
3
275
0
276
0
277
2
278
44
279
0
280
0
281
0
282
0
283
0
284
8
285
0
286
0
288
0
289
3
290
0
371
-2
372
-2
  0
DIMSTYLE
105
73
330
4
100
AcDbSymbolTableRecord
100
AcDbDimStyleTableRecord
  2
EZDXF
 70
0
 40
1.0
 41
0.175
 42
0.125
 43
3.75
 44
0.375
 45
0.0
 46
0.0
 47
0.0
 48
0.0
 49
2.5
140
0.25
141
2.5
142
0.0
143
0.03937007874
144
100.0
145
0.0
146
0.5
147
0.1
148
0.0
 69
0
 70
0
 71
0
 72
0
 73
0
 74
0
 75
0
 76
0
 77
1
 78
12
 79
3
170
0
171
3
172
1
173
0
174
0
175
0
176
0
177
0
178
0
179
2
271
2
272
2
273
2
274
3
275
0
276
0
277
2
278
46
279
2
280
0
281
0
282
0
283
0
284
8
285
0
286
0
288
1
289
3
290
0
340
4C
342
74
371
-2
372
-2
  0
DIMSTYLE
105
7C
330
4
100
AcDbSymbolTableRecord
100
AcDbDimStyleTableRecord
  2
EZ_M_100_H25_CM
 70
0
 40
1.0
 41
0.25
 42
0.125
 43
3.75
 44
0.375
 45
0.0
 46
0.0
 47
0.0
 48
0.0
 49
2.5
140
0.25
141
2.5
142
0.125
143
0.03937007874
144
100.0
145
0.0
146
0.5
147
0.1
148
0.0
 69
0
 70
0
 71
0
 72
0
 73
0
 74
0
 75
0
 76
0
 77
1
 78
12
 79
3
170
0
171
3
172
1
173
0
174
0
175
0
176
0
177
0
178
0
179
2
271
2
272
2
273
2
274
3
275
0
276
0
277
2
278
46
279
2
280
0
281
0
282
0
283
0
284
8
285
0
286
0
288
1
289
3
290
0
340
4C
371
-2
372
-2
  0
DIMSTYLE
105
7D
330
4
100
AcDbSymbolTableRecord
100
AcDbDimStyleTableRecord
  2
EZ_M_50_H25_CM
 70
0
 40
1.0
 41
0.125
 42
0.0625
 43
3.75
 44
0.1875
 45
0.0
 46
0.0
 47
0.0
 48
0.0
 49
2.5
140
0.125
141
2.5
142
0.0625
143
0.03937007874
144
100.0
145
0.0
146
0.5
147
0.05
148
0.0
 69
0
 70
0
 71
0
 72
0
 73
0
 74
0
 75
0
 76
0
 77
1
 78
12
 79
3
170
0
171
3
172
1
173
0
174
0
175
0
176
0
177
0
178
0
179
2
271
2
272
2
273
2
274
3
275
0
276
0
277
2
278
46
279
2
280
0
281
0
282
0
283
0
284
8
285
0
286
0
288
1
289
3
290
0
340
4C
371
-2
372
-2
  0
DIMSTYLE
105
7E
330
4
100
AcDbSymbolTableRecord
100
AcDbDimStyleTableRecord
  2
EZ_M_25_H25_CM
 70
0
 40
1.0
 41
0.0625
 42
0.03125
 43
3.75
 44
0.09375
 45
0.0
 46
0.0
 47
0.0
 48
0.0
 49
2.5
140
0.0625
141
2.5
142
0.03125
143
0.03937007874
144
100.0
145
0.0
146
0.5
147
0.025
148
0.0
 69
0
 70
0
 71
0
 72
0
 73
0
 74
0
 75
0
 76
0
 77
1
 78
12
 79
3
170
0
171
3
172
1
173
0
174
0
175
0
176
0
177
0
178
0
179
2
271
2
272
2
273
2
274
3
275
0
276
0
277
2
278
46
279
2
280
0
281
0
282
0
283
0
284
8
285
0
286
0
288
1
289
3
290
0
340
4C
371
-2
372
-2
  0
DIMSTYLE
105
7F
330
4
100
AcDbSymbolTableRecord
100
AcDbDimStyleTableRecord
  2
EZ_M_20_H25_CM
 70
0
 40
1.0
 41
0.05
 42
0.025
 43
3.75
 44
0.07500000000000001
 45
0.0
 46
0.0
 47
0.0
 48
0.0
 49
2.5
140
0.05
141
2.5
142
0.025
143
0.03937007874
144
100.0
145
0.0
146
0.5
147
0.020000000000000004
148
0.0
 69
0
 70
0
 71
0
 72
0
 73
0
 74
0
 75
0
 76
0
 77
1
 78
12
 79
3
170
0
171
3
172
1
173
0
174
0
175
0
176
0
177
0
178
0
179
2
271
2
272
2
273
2
274
3
275
0
276
0
277
2
278
46
279
2
280
0
281
0
282
0
283
0
284
8
285
0
286
0
288
1
289
3
290
0
340
4C
371
-2
372
-2
  0
DIMSTYLE
105
80
330
4
100
AcDbSymbolTableRecord
100
AcDbDimStyleTableRecord
  2
EZ_M_10_H25_CM
 70
0
 40
1.0
 41
0.025
 42
0.0125
 43
3.75
 44
0.037500000000000006
 45
0.0
 46
0.0
 47
0.0
 48
0.0
 49
2.5
140
0.025
141
2.5
142
0.0125
143
0.03937007874
144
100.0
145
0.0
146
0.5
147
0.010000000000000002
148
0.0
 69
0
 70
0
 71
0
 72
0
 73
0
 74
0
 75
0
 76
0
 77
1
 78
12
 79
3
170
0
171
3
172
1
173
0
174
0
175
0
176
0
177
0
178
0
179
2
271
2
272
2
273
2
274
3
275
0
276
0
277
2
278
46
279
2
280
0
281
0
282
0
283
0
284
8
285
0
286
0
288
1
289
3
290
0
340
4C
371
-2
372
-2
  0
DIMSTYLE
105
81
330
4
100
AcDbSymbolTableRecord
100
AcDbDimStyleTableRecord
  2
EZ_M_5_H25_CM
 70
0
 40
1.0
 41
0.0125
 42
0.00625
 43
3.75
 44
0.018750000000000003
 45
0.0
 46
0.0
 47
0.0
 48
0.0
 49
2.5
140
0.0125
141
2.5
142
0.00625
143
0.03937007874
144
100.0
145
0.0
146
0.5
147
0.005000000000000001
148
0.0
 69
0
 70
0
 71
0
 72
0
 73
0
 74
0
 75
0
 76
0
 77
1
 78
12
 79
3
170
0
171
3
172
1
173
0
174
0
175
0
176
0
177
0
178
0
179
2
271
2
272
2
273
2
274
3
275
0
276
0
277
2
278
46
279
2
280
0
281
0
282
0
283
0
284
8
285
0
286
0
288
1
289
3
290
0
340
4C
371
-2
372
-2
  0
DIMSTYLE
105
82
330
4
100
AcDbSymbolTableRecord
100
AcDbDimStyleTableRecord
  2
EZ_M_1_H25_CM
 70
0
 40
1.0
 41
0.0025
 42
0.00125
 43
3.75
 44
0.00375
 45
0.0
 46
0.0
 47
0.0
 48
0.0
 49
2.5
140
0.0025
141
2.5
142
0.00125
143
0.03937007874
144
100.0
145
0.0
146
0.5
147
0.001
148
0.0
 69
0
 70
0
 71
0
 72
0
 73
0
 74
0
 75
0
 76
0
 77
1
 78
12
 79
3
170
0
171
3
172
1
173
0
174
0
175
0
176
0
177
0
178
0
179
2
271
2
272
2
273
2
274
3
275
0
276
0
277
2
278
46
279
2
280
0
281
0
282
0
283
0
284
8
285
0
286
0
288
1
289
3
290
0
340
4C
371
-2
372
-2
  0
DIMSTYLE
105
83
330
4
100
AcDbSymbolTableRecord
100
AcDbDimStyleTableRecord
  2
EZ_RADIUS
 70
0
 40
1.0
 41
0.25
 42
0.125
 43
3.75
 44
0.375
 45
0.0
 46
0.0
 47
0.0
 48
0.0
 49
2.5
140
0.25
141
0.0
142
0.0
143
0.03937007874
144
100.0
145
0.0
146
0.5
147
0.1
148
0.0
 69
0
 70
0
 71
0
 72
0
 73
0
 74
0
 75
0
 76
0
 77
1
 78
12
 79
3
170
0
171
3
172
0
173
0
174
0
175
0
176
0
177
0
178
0
179
2
271
2
272
2
273
2
274
3
275
0
276
0
277
2
278
46
279
1
280
0
281
0
282
0
283
0
284
8
285
0
286
0
288
1
289
3
290
0
340
4C
342
84
371
-2
372
-2
  0
DIMSTYLE
105
88
330
4
100
AcDbSymbolTableRecord
100
AcDbDimStyleTableRecord
  2
EZ_RADIUS_INSIDE
 70
0
 40
1.0
 41
0.25
 42
0.125
 43
3.75
 44
0.375
 45
0.0
 46
0.0
 47
0.0
 48
0.0
 49
2.5
140
0.25
141
0.0
142
0.0
143
0.03937007874
144
100.0
145
0.0
146
0.5
147
0.1
148
0.0
 69
0
 70
0
 71
0
 72
0
 73
0
 74
0
 75
0
 76
0
 77
0
 78
12
 79
3
170
0
171
3
172
0
173
0
174
1
175
0
176
0
177
0
178
0
179
2
271
2
272
2
273
2
274
3
275
0
276
0
277
2
278
46
279
0
280
0
281
0
282
0
283
0
284
8
285
0
286
0
288
1
289
0
290
0
340
4C
342
84
371
-2
372
-2
  0
DIMSTYLE
105
89
330
4
100
AcDbSymbolTableRecord
100
AcDbDimStyleTableRecord
  2
EZ_CURVED
 70
0
 40
1.0
 41
0.25
 42
0.125
 43
3.75
 44
0.375
 45
0.0
 46
0.0
 47
0.0
 48
0.0
 49
2.5
140
0.25
141
2.5
142
0.0
143
0.03937007874
144
100.0
145
0.0
146
0.5
147
0.1
148
0.0
 69
0
 70
0
 71
0
 72
0
 73
0
 74
0
 75
0
 76
0
 77
1
 78
12
 79
2
 90
2
170
0
171
3
172
1
173
0
174
0
175
0
176
0
177
0
178
0
179
2
271
2
272
2
273
2
274
3
275
0
276
0
277
2
278
46
279
2
280
0
281
0
282
0
283
0
284
8
285
0
286
0
288
1
289
3
290
0
340
4C
371
-2
372
-2
  0
DIMSTYLE
105
A3
330
4
100
AcDbSymbolTableRecord
100
AcDbDimStyleTableRecord
  2
SC-DIM
 70
0
 40
1.0
 41
1.6
 42
1.0
 43
3.75
 44
1.2
 45
0.0
 46
0.0
 47
0.0
 48
0.0
 49
2.5
140
1.8
141
2.5
142
0.0
143
0.03937007874
144
1.0
145
0.0
146
1.0
147
0.8
148
0.0
 69
0
 70
0
 71
0
 72
0
 73
0
 74
0
 75
0
 76
0
 77
1
 78
8
 79
3
170
0
171
3
172
1
173
0
174
0
175
0
176
4
177
4
178
4
179
2
271
0
272
2
273
2
274
3
275
0
276
0
277
2
278
44
279
0
280
0
281
0
282
0
283
0
284
8
285
0
286
0
288
0
289
3
290
0
342
74
371
13
372
13
  0
DIMSTYLE
105
A4
330
4
100
AcDbSymbolTableRecord
100
AcDbDimStyleTableRecord
  2
SC-DIM-S
 70
0
 40
1.0
 41
1.2
 42
1.0
 43
3.75
 44
1.2
 45
0.0
 46
0.0
 47
0.0
 48
0.0
 49
2.5
140
1.4
141
2.5
142
0.0
143
0.03937007874
144
1.0
145
0.0
146
1.0
147
0.8
148
0.0
 69
0
 70
0
 71
0
 72
0
 73
0
 74
0
 75
0
 76
0
 77
1
 78
8
 79
3
170
0
171
3
172
1
173
0
174
0
175
0
176
4
177
4
178
4
179
2
271
0
272
2
273
2
274
3
275
0
276
0
277
2
278
44
279
0
280
0
281
0
282
0
283
0
284
8
285
0
286
0
288
0
289
3
290
0
342
74
371
13
372
13
  0
ENDTAB
  0
TABLE
  2
BLOCK_RECORD
  5
9
330
0
100
AcDbSymbolTable
 70
17
  0
BLOCK_RECORD
  5
17
330
9
100
AcDbSymbolTableRecord
100
AcDbBlockTableRecord
  2
*Model_Space
340
1A
 70
0
280
1
281
0
  0
BLOCK_RECORD
  5
1B
330
9
100
AcDbSymbolTableRecord
100
AcDbBlockTableRecord
  2
*Paper_Space
340
1E
 70
0
280
1
281
0
  0
BLOCK_RECORD
  5
74
330
9
100
AcDbSymbolTableRecord
100
AcDbBlockTableRecord
  2
_ARCHTICK
340
0
 70
0
280
1
281
0
  0
BLOCK_RECORD
  5
78
330
9
100
AcDbSymbolTableRecord
100
AcDbBlockTableRecord
  2
_CLOSEDFILLED
340
0
 70
0
280
1
281
0
  0
BLOCK_RECORD
  5
84
330
9
100
AcDbSymbolTableRecord
100
AcDbBlockTableRecord
  2
_CLOSEDBLANK
340
0
 70
0
280
1
281
0
  0
BLOCK_RECORD
  5
A5
330
9
100
AcDbSymbolTableRecord
100
AcDbBlockTableRecord
  2
BARMARK
340
0
 70
0
280
1
281
0
  0
BLOCK_RECORD
  5
A9
330
9
100
AcDbSymbolTableRecord
100
AcDbBlockTableRecord
  2
SECMARK
340
0
 70
0
280
1
281
0
  0
BLOCK_RECORD
  5
AE
330
9
100
AcDbSymbolTableRecord
100
AcDbBlockTableRecord
  2
LEVELMK
340
0
 70
0
280
1
281
0
  0
BLOCK_RECORD
  5
B2
330
9
100
AcDbSymbolTableRecord
100
AcDbBlockTableRecord
  2
NORTH
340
0
 70
0
280
1
281
0
  0
BLOCK_RECORD
  5
12E
330
9
100
AcDbSymbolTableRecord
100
AcDbBlockTableRecord
  2
*D1
340
0
 70
0
280
1
281
0
  0
BLOCK_RECORD
  5
13D
330
9
100
AcDbSymbolTableRecord
100
AcDbBlockTableRecord
  2
*D2
340
0
 70
0
280
1
281
0
  0
BLOCK_RECORD
  5
1CE
330
9
100
AcDbSymbolTableRecord
100
AcDbBlockTableRecord
  2
*D3
340
0
 70
0
280
1
281
0
  0
BLOCK_RECORD
  5
1DD
330
9
100
AcDbSymbolTableRecord
100
AcDbBlockTableRecord
  2
*D4
340
0
 70
0
280
1
281
0
  0
BLOCK_RECORD
  5
1EC
330
9
100
AcDbSymbolTableRecord
100
AcDbBlockTableRecord
  2
*D5
340
0
 70
0
280
1
281
0
  0
BLOCK_RECORD
  5
256
330
9
100
AcDbSymbolTableRecord
100
AcDbBlockTableRecord
  2
*D6
340
0
 70
0
280
1
281
0
  0
BLOCK_RECORD
  5
265
330
9
100
AcDbSymbolTableRecord
100
AcDbBlockTableRecord
  2
*D7
340
0
 70
0
280
1
281
0
  0
BLOCK_RECORD
  5
292
330
9
100
AcDbSymbolTableRecord
100
AcDbBlockTableRecord
  2
*D8
340
0
 70
0
280
1
281
0
  0
ENDTAB
  0
ENDSEC
  0
SECTION
  2
BLOCKS
  0
BLOCK
  5
18
330
17
100
AcDbEntity
  8
0
100
AcDbBlockBegin
  2
*Model_Space
 70
0
 10
0.0
 20
0.0
 30
0.0
  3
*Model_Space
  1

  0
ENDBLK
  5
19
330
17
100
AcDbEntity
  8
0
100
AcDbBlockEnd
  0
BLOCK
  5
1C
330
1B
100
AcDbEntity
  8
0
100
AcDbBlockBegin
  2
*Paper_Space
 70
0
 10
0.0
 20
0.0
 30
0.0
  3
*Paper_Space
  1

  0
ENDBLK
  5
1D
330
1B
100
AcDbEntity
  8
0
100
AcDbBlockEnd
  0
BLOCK
  5
75
330
74
100
AcDbEntity
  8
0
100
AcDbBlockBegin
  2
_ARCHTICK
 70
0
 10
0.0
 20
0.0
 30
0.0
  3
_ARCHTICK
  1

  0
LWPOLYLINE
  5
77
330
74
100
AcDbEntity
  8
0
  6
BYBLOCK
 62
0
100
AcDbPolyline
 90
2
 70
0
 43
0.15
 10
-0.5
 20
-0.5
 10
0.5
 20
0.5
  0
ENDBLK
  5
76
330
74
100
AcDbEntity
  8
0
100
AcDbBlockEnd
  0
BLOCK
  5
79
330
78
100
AcDbEntity
  8
0
100
AcDbBlockBegin
  2
_CLOSEDFILLED
 70
0
 10
0.0
 20
0.0
 30
0.0
  3
_CLOSEDFILLED
  1

  0
SOLID
  5
7B
330
78
100
AcDbEntity
  8
0
  6
BYBLOCK
 62
0
100
AcDbTrace
 10
-1.0
 20
0.16439898372402537
 30
0.0
 11
0.0
 21
0.0
 31
0.0
 12
-1.0
 22
-0.16439898372402537
 32
0.0
 13
-1.0
 23
-0.16439898372402537
 33
0.0
  0
ENDBLK
  5
7A
330
78
100
AcDbEntity
  8
0
100
AcDbBlockEnd
  0
BLOCK
  5
85
330
84
100
AcDbEntity
  8
0
100
AcDbBlockBegin
  2
_CLOSEDBLANK
 70
0
 10
0.0
 20
0.0
 30
0.0
  3
_CLOSEDBLANK
  1

  0
LWPOLYLINE
  5
87
330
84
100
AcDbEntity
  8
0
  6
BYBLOCK
 62
0
100
AcDbPolyline
 90
3
 70
1
 10
-1.0
 20
0.16439898372402537
 10
0.0
 20
0.0
 10
-1.0
 20
-0.16439898372402537
  0
ENDBLK
  5
86
330
84
100
AcDbEntity
  8
0
100
AcDbBlockEnd
  0
BLOCK
  5
A6
330
A5
100
AcDbEntity
  8
0
100
AcDbBlockBegin
  2
BARMARK
 70
0
 10
0.0
 20
0.0
 30
0.0
  3
BARMARK
  1

  0
CIRCLE
  5
A8
330
A5
100
AcDbEntity
  8
S-CALLOUT
100
AcDbCircle
 10
0.0
 20
0.0
 30
0.0
 40
3.2
  0
ENDBLK
  5
A7
330
A5
100
AcDbEntity
  8
0
100
AcDbBlockEnd
  0
BLOCK
  5
AA
330
A9
100
AcDbEntity
  8
0
100
AcDbBlockBegin
  2
SECMARK
 70
0
 10
0.0
 20
0.0
 30
0.0
  3
SECMARK
  1

  0
CIRCLE
  5
AC
330
A9
100
AcDbEntity
  8
S-SECTION
100
AcDbCircle
 10
0.0
 20
0.0
 30
0.0
 40
4.0
  0
LINE
  5
AD
330
A9
100
AcDbEntity
  8
S-SECTION
100
AcDbLine
 10
-4.0
 20
0.0
 30
0.0
 11
4.0
 21
0.0
 31
0.0
  0
ENDBLK
  5
AB
330
A9
100
AcDbEntity
  8
0
100
AcDbBlockEnd
  0
BLOCK
  5
AF
330
AE
100
AcDbEntity
  8
0
100
AcDbBlockBegin
  2
LEVELMK
 70
0
 10
0.0
 20
0.0
 30
0.0
  3
LEVELMK
  1

  0
LWPOLYLINE
  5
B1
330
AE
100
AcDbEntity
  8
S-LEVEL
100
AcDbPolyline
 90
4
 70
1
 10
0.0
 20
0.0
 10
-2.0
 20
3.0
 10
2.0
 20
3.0
 10
0.0
 20
0.0
  0
ENDBLK
  5
B0
330
AE
100
AcDbEntity
  8
0
100
AcDbBlockEnd
  0
BLOCK
  5
B3
330
B2
100
AcDbEntity
  8
0
100
AcDbBlockBegin
  2
NORTH
 70
0
 10
0.0
 20
0.0
 30
0.0
  3
NORTH
  1

  0
LWPOLYLINE
  5
B5
330
B2
100
AcDbEntity
  8
S-TITLE
100
AcDbPolyline
 90
5
 70
1
 10
0.0
 20
10.0
 10
-3.2
 20
-6.0
 10
0.0
 20
-2.4
 10
3.2
 20
-6.0
 10
0.0
 20
10.0
  0
CIRCLE
  5
B6
330
B2
100
AcDbEntity
  8
S-TITLE
100
AcDbCircle
 10
0.0
 20
0.0
 30
0.0
 40
12.0
  0
ENDBLK
  5
B4
330
B2
100
AcDbEntity
  8
0
100
AcDbBlockEnd
  0
BLOCK
  5
12F
330
12E
100
AcDbEntity
  8
0
100
AcDbBlockBegin
  2
*D1
 70
1
 10
0.0
 20
0.0
 30
0.0
  3
*D1
  1

  0
LINE
  5
131
330
12E
100
AcDbEntity
  8
0
 62
4
370
13
100
AcDbLine
 10
62.0
 20
323.0
 30
0.0
 11
62.0
 21
310.8
 31
0.0
  0
LINE
  5
132
330
12E
100
AcDbEntity
  8
0
 62
4
370
13
100
AcDbLine
 10
118.0
 20
323.0
 30
0.0
 11
118.0
 21
310.8
 31
0.0
  0
INSERT
  5
133
330
12E
100
AcDbEntity
  8
S-DIM
 62
4
100
AcDbBlockReference
  2
_ARCHTICK
 10
62.0
 20
312.0
 30
0.0
 41
1.6
 42
1.6
 50
180.0
  0
INSERT
  5
135
330
12E
100
AcDbEntity
  8
S-DIM
 62
4
100
AcDbBlockReference
  2
_ARCHTICK
 10
118.0
 20
312.0
 30
0.0
 41
1.6
 42
1.6
  0
LINE
  5
137
330
12E
100
AcDbEntity
  8
0
 62
4
370
13
100
AcDbLine
 10
62.0
 20
312.0
 30
0.0
 11
118.0
 21
312.0
 31
0.0
  0
MTEXT
  5
138
330
12E
100
AcDbEntity
  8
S-DIM
 62
4
100
AcDbMText
 10
90.0
 20
313.7
 30
0.0
 40
1.8
 71
5
  1
1400
  7
OpenSansCondensed-Light
  0
POINT
  5
139
330
12E
100
AcDbEntity
  8
Defpoints
100
AcDbPoint
 10
62.0
 20
312.0
 30
0.0
  0
POINT
  5
13A
330
12E
100
AcDbEntity
  8
Defpoints
100
AcDbPoint
 10
62.0
 20
324.0
 30
0.0
  0
POINT
  5
13B
330
12E
100
AcDbEntity
  8
Defpoints
100
AcDbPoint
 10
118.0
 20
324.0
 30
0.0
  0
ENDBLK
  5
130
330
12E
100
AcDbEntity
  8
0
100
AcDbBlockEnd
  0
BLOCK
  5
13E
330
13D
100
AcDbEntity
  8
0
100
AcDbBlockBegin
  2
*D2
 70
1
 10
0.0
 20
0.0
 30
0.0
  3
*D2
  1

  0
LINE
  5
140
330
13D
100
AcDbEntity
  8
0
 62
4
370
13
100
AcDbLine
 10
52.0
 20
323.0
 30
0.0
 11
52.0
 21
290.8
 31
0.0
  0
LINE
  5
141
330
13D
100
AcDbEntity
  8
0
 62
4
370
13
100
AcDbLine
 10
128.0
 20
323.0
 30
0.0
 11
128.0
 21
290.8
 31
0.0
  0
INSERT
  5
142
330
13D
100
AcDbEntity
  8
S-DIM
 62
4
100
AcDbBlockReference
  2
_ARCHTICK
 10
52.0
 20
292.0
 30
0.0
 41
1.6
 42
1.6
 50
180.0
  0
INSERT
  5
144
330
13D
100
AcDbEntity
  8
S-DIM
 62
4
100
AcDbBlockReference
  2
_ARCHTICK
 10
128.0
 20
292.0
 30
0.0
 41
1.6
 42
1.6
  0
LINE
  5
146
330
13D
100
AcDbEntity
  8
0
 62
4
370
13
100
AcDbLine
 10
52.0
 20
292.0
 30
0.0
 11
128.0
 21
292.0
 31
0.0
  0
MTEXT
  5
147
330
13D
100
AcDbEntity
  8
S-DIM
 62
4
100
AcDbMText
 10
90.0
 20
293.7
 30
0.0
 40
1.8
 71
5
  1
1900
  7
OpenSansCondensed-Light
  0
POINT
  5
148
330
13D
100
AcDbEntity
  8
Defpoints
100
AcDbPoint
 10
52.0
 20
292.0
 30
0.0
  0
POINT
  5
149
330
13D
100
AcDbEntity
  8
Defpoints
100
AcDbPoint
 10
52.0
 20
324.0
 30
0.0
  0
POINT
  5
14A
330
13D
100
AcDbEntity
  8
Defpoints
100
AcDbPoint
 10
128.0
 20
324.0
 30
0.0
  0
ENDBLK
  5
13F
330
13D
100
AcDbEntity
  8
0
100
AcDbBlockEnd
  0
BLOCK
  5
1CF
330
1CE
100
AcDbEntity
  8
0
100
AcDbBlockBegin
  2
*D3
 70
1
 10
0.0
 20
0.0
 30
0.0
  3
*D3
  1

  0
LINE
  5
1D1
330
1CE
100
AcDbEntity
  8
0
 62
4
370
13
100
AcDbLine
 10
325.0
 20
400.0
 30
0.0
 11
345.2
 21
400.0
 31
0.0
  0
LINE
  5
1D2
330
1CE
100
AcDbEntity
  8
0
 62
4
370
13
100
AcDbLine
 10
325.0
 20
436.0
 30
0.0
 11
345.2
 21
436.0
 31
0.0
  0
INSERT
  5
1D3
330
1CE
100
AcDbEntity
  8
S-DIM
 62
4
100
AcDbBlockReference
  2
_ARCHTICK
 10
344.0
 20
400.0
 30
0.0
 41
1.6
 42
1.6
 50
270.0
  0
INSERT
  5
1D5
330
1CE
100
AcDbEntity
  8
S-DIM
 62
4
100
AcDbBlockReference
  2
_ARCHTICK
 10
344.0
 20
436.0
 30
0.0
 41
1.6
 42
1.6
 50
90.0
  0
LINE
  5
1D7
330
1CE
100
AcDbEntity
  8
0
 62
4
370
13
100
AcDbLine
 10
344.0
 20
400.0
 30
0.0
 11
344.0
 21
436.0
 31
0.0
  0
MTEXT
  5
1D8
330
1CE
100
AcDbEntity
  8
S-DIM
 62
4
100
AcDbMText
 10
342.3
 20
418.0
 30
0.0
 40
1.8
 71
5
  1
900
  7
OpenSansCondensed-Light
 50
90.0
  0
POINT
  5
1D9
330
1CE
100
AcDbEntity
  8
Defpoints
100
AcDbPoint
 10
344.0
 20
400.0
 30
0.0
  0
POINT
  5
1DA
330
1CE
100
AcDbEntity
  8
Defpoints
100
AcDbPoint
 10
324.0
 20
400.0
 30
0.0
  0
POINT
  5
1DB
330
1CE
100
AcDbEntity
  8
Defpoints
100
AcDbPoint
 10
324.0
 20
436.0
 30
0.0
  0
ENDBLK
  5
1D0
330
1CE
100
AcDbEntity
  8
0
100
AcDbBlockEnd
  0
BLOCK
  5
1DE
330
1DD
100
AcDbEntity
  8
0
100
AcDbBlockBegin
  2
*D4
 70
1
 10
0.0
 20
0.0
 30
0.0
  3
*D4
  1

  0
LINE
  5
1E0
330
1DD
100
AcDbEntity
  8
0
 62
4
370
13
100
AcDbLine
 10
115.0
 20
388.0
 30
0.0
 11
90.8
 21
388.0
 31
0.0
  0
LINE
  5
1E1
330
1DD
100
AcDbEntity
  8
0
 62
4
370
13
100
AcDbLine
 10
115.0
 20
436.0
 30
0.0
 11
90.8
 21
436.0
 31
0.0
  0
INSERT
  5
1E2
330
1DD
100
AcDbEntity
  8
S-DIM
 62
4
100
AcDbBlockReference
  2
_ARCHTICK
 10
92.0
 20
388.0
 30
0.0
 41
1.6
 42
1.6
 50
270.0
  0
INSERT
  5
1E4
330
1DD
100
AcDbEntity
  8
S-DIM
 62
4
100
AcDbBlockReference
  2
_ARCHTICK
 10
92.0
 20
436.0
 30
0.0
 41
1.6
 42
1.6
 50
90.0
  0
LINE
  5
1E6
330
1DD
100
AcDbEntity
  8
0
 62
4
370
13
100
AcDbLine
 10
92.0
 20
388.0
 30
0.0
 11
92.0
 21
436.0
 31
0.0
  0
MTEXT
  5
1E7
330
1DD
100
AcDbEntity
  8
S-DIM
 62
4
100
AcDbMText
 10
90.3
 20
412.0
 30
0.0
 40
1.8
 71
5
  1
1200
  7
OpenSansCondensed-Light
 50
90.0
  0
POINT
  5
1E8
330
1DD
100
AcDbEntity
  8
Defpoints
100
AcDbPoint
 10
92.0
 20
388.0
 30
0.0
  0
POINT
  5
1E9
330
1DD
100
AcDbEntity
  8
Defpoints
100
AcDbPoint
 10
116.0
 20
388.0
 30
0.0
  0
POINT
  5
1EA
330
1DD
100
AcDbEntity
  8
Defpoints
100
AcDbPoint
 10
116.0
 20
436.0
 30
0.0
  0
ENDBLK
  5
1DF
330
1DD
100
AcDbEntity
  8
0
100
AcDbBlockEnd
  0
BLOCK
  5
1ED
330
1EC
100
AcDbEntity
  8
0
100
AcDbBlockBegin
  2
*D5
 70
1
 10
0.0
 20
0.0
 30
0.0
  3
*D5
  1

  0
LINE
  5
1EF
330
1EC
100
AcDbEntity
  8
0
 62
4
370
13
100
AcDbLine
 10
192.0
 20
387.0
 30
0.0
 11
192.0
 21
366.8
 31
0.0
  0
LINE
  5
1F0
330
1EC
100
AcDbEntity
  8
0
 62
4
370
13
100
AcDbLine
 10
248.0
 20
387.0
 30
0.0
 11
248.0
 21
366.8
 31
0.0
  0
INSERT
  5
1F1
330
1EC
100
AcDbEntity
  8
S-DIM
 62
4
100
AcDbBlockReference
  2
_ARCHTICK
 10
192.0
 20
368.0
 30
0.0
 41
1.6
 42
1.6
 50
180.0
  0
INSERT
  5
1F3
330
1EC
100
AcDbEntity
  8
S-DIM
 62
4
100
AcDbBlockReference
  2
_ARCHTICK
 10
248.0
 20
368.0
 30
0.0
 41
1.6
 42
1.6
  0
LINE
  5
1F5
330
1EC
100
AcDbEntity
  8
0
 62
4
370
13
100
AcDbLine
 10
192.0
 20
368.0
 30
0.0
 11
248.0
 21
368.0
 31
0.0
  0
MTEXT
  5
1F6
330
1EC
100
AcDbEntity
  8
S-DIM
 62
4
100
AcDbMText
 10
220.0
 20
369.7
 30
0.0
 40
1.8
 71
5
  1
1400
  7
OpenSansCondensed-Light
  0
POINT
  5
1F7
330
1EC
100
AcDbEntity
  8
Defpoints
100
AcDbPoint
 10
192.0
 20
368.0
 30
0.0
  0
POINT
  5
1F8
330
1EC
100
AcDbEntity
  8
Defpoints
100
AcDbPoint
 10
192.0
 20
388.0
 30
0.0
  0
POINT
  5
1F9
330
1EC
100
AcDbEntity
  8
Defpoints
100
AcDbPoint
 10
248.0
 20
388.0
 30
0.0
  0
ENDBLK
  5
1EE
330
1EC
100
AcDbEntity
  8
0
100
AcDbBlockEnd
  0
BLOCK
  5
257
330
256
100
AcDbEntity
  8
0
100
AcDbBlockBegin
  2
*D6
 70
1
 10
0.0
 20
0.0
 30
0.0
  3
*D6
  1

  0
LINE
  5
259
330
256
100
AcDbEntity
  8
0
 62
4
370
13
100
AcDbLine
 10
349.0
 20
388.0
 30
0.0
 11
328.8
 21
388.0
 31
0.0
  0
LINE
  5
25A
330
256
100
AcDbEntity
  8
0
 62
4
370
13
100
AcDbLine
 10
349.0
 20
436.0
 30
0.0
 11
328.8
 21
436.0
 31
0.0
  0
INSERT
  5
25B
330
256
100
AcDbEntity
  8
S-DIM
 62
4
100
AcDbBlockReference
  2
_ARCHTICK
 10
330.0
 20
388.0
 30
0.0
 41
1.6
 42
1.6
 50
270.0
  0
INSERT
  5
25D
330
256
100
AcDbEntity
  8
S-DIM
 62
4
100
AcDbBlockReference
  2
_ARCHTICK
 10
330.0
 20
436.0
 30
0.0
 41
1.6
 42
1.6
 50
90.0
  0
LINE
  5
25F
330
256
100
AcDbEntity
  8
0
 62
4
370
13
100
AcDbLine
 10
330.0
 20
388.0
 30
0.0
 11
330.0
 21
436.0
 31
0.0
  0
MTEXT
  5
260
330
256
100
AcDbEntity
  8
S-DIM
 62
4
100
AcDbMText
 10
328.3
 20
412.0
 30
0.0
 40
1.8
 71
5
  1
1200
  7
OpenSansCondensed-Light
 50
90.0
  0
POINT
  5
261
330
256
100
AcDbEntity
  8
Defpoints
100
AcDbPoint
 10
330.0
 20
388.0
 30
0.0
  0
POINT
  5
262
330
256
100
AcDbEntity
  8
Defpoints
100
AcDbPoint
 10
350.0
 20
388.0
 30
0.0
  0
POINT
  5
263
330
256
100
AcDbEntity
  8
Defpoints
100
AcDbPoint
 10
350.0
 20
436.0
 30
0.0
  0
ENDBLK
  5
258
330
256
100
AcDbEntity
  8
0
100
AcDbBlockEnd
  0
BLOCK
  5
266
330
265
100
AcDbEntity
  8
0
100
AcDbBlockBegin
  2
*D7
 70
1
 10
0.0
 20
0.0
 30
0.0
  3
*D7
  1

  0
LINE
  5
268
330
265
100
AcDbEntity
  8
0
 62
4
370
13
100
AcDbLine
 10
350.0
 20
387.0
 30
0.0
 11
350.0
 21
366.8
 31
0.0
  0
LINE
  5
269
330
265
100
AcDbEntity
  8
0
 62
4
370
13
100
AcDbLine
 10
374.0
 20
387.0
 30
0.0
 11
374.0
 21
366.8
 31
0.0
  0
INSERT
  5
26A
330
265
100
AcDbEntity
  8
S-DIM
 62
4
100
AcDbBlockReference
  2
_ARCHTICK
 10
350.0
 20
368.0
 30
0.0
 41
1.6
 42
1.6
 50
180.0
  0
INSERT
  5
26C
330
265
100
AcDbEntity
  8
S-DIM
 62
4
100
AcDbBlockReference
  2
_ARCHTICK
 10
374.0
 20
368.0
 30
0.0
 41
1.6
 42
1.6
  0
LINE
  5
26E
330
265
100
AcDbEntity
  8
0
 62
4
370
13
100
AcDbLine
 10
350.0
 20
368.0
 30
0.0
 11
374.0
 21
368.0
 31
0.0
  0
MTEXT
  5
26F
330
265
100
AcDbEntity
  8
S-DIM
 62
4
100
AcDbMText
 10
362.0
 20
369.7
 30
0.0
 40
1.8
 71
5
  1
600
  7
OpenSansCondensed-Light
  0
POINT
  5
270
330
265
100
AcDbEntity
  8
Defpoints
100
AcDbPoint
 10
350.0
 20
368.0
 30
0.0
  0
POINT
  5
271
330
265
100
AcDbEntity
  8
Defpoints
100
AcDbPoint
 10
350.0
 20
388.0
 30
0.0
  0
POINT
  5
272
330
265
100
AcDbEntity
  8
Defpoints
100
AcDbPoint
 10
374.0
 20
388.0
 30
0.0
  0
ENDBLK
  5
267
330
265
100
AcDbEntity
  8
0
100
AcDbBlockEnd
  0
BLOCK
  5
293
330
292
100
AcDbEntity
  8
0
100
AcDbBlockBegin
  2
*D8
 70
1
 10
0.0
 20
0.0
 30
0.0
  3
*D8
  1

  0
LINE
  5
295
330
292
100
AcDbEntity
  8
0
 62
4
370
13
100
AcDbLine
 10
490.0
 20
463.5
 30
0.0
 11
490.0
 21
476.2
 31
0.0
  0
LINE
  5
296
330
292
100
AcDbEntity
  8
0
 62
4
370
13
100
AcDbLine
 10
540.0
 20
463.5
 30
0.0
 11
540.0
 21
476.2
 31
0.0
  0
INSERT
  5
297
330
292
100
AcDbEntity
  8
S-DIM
 62
4
100
AcDbBlockReference
  2
_ARCHTICK
 10
490.0
 20
475.0
 30
0.0
 41
1.6
 42
1.6
 50
180.0
  0
INSERT
  5
299
330
292
100
AcDbEntity
  8
S-DIM
 62
4
100
AcDbBlockReference
  2
_ARCHTICK
 10
540.0
 20
475.0
 30
0.0
 41
1.6
 42
1.6
  0
LINE
  5
29B
330
292
100
AcDbEntity
  8
0
 62
4
370
13
100
AcDbLine
 10
490.0
 20
475.0
 30
0.0
 11
540.0
 21
475.0
 31
0.0
  0
MTEXT
  5
29C
330
292
100
AcDbEntity
  8
S-DIM
 62
4
100
AcDbMText
 10
515.0
 20
476.7
 30
0.0
 40
1.8
 71
5
  1
2000
  7
OpenSansCondensed-Light
  0
POINT
  5
29D
330
292
100
AcDbEntity
  8
Defpoints
100
AcDbPoint
 10
490.0
 20
475.0
 30
0.0
  0
POINT
  5
29E
330
292
100
AcDbEntity
  8
Defpoints
100
AcDbPoint
 10
490.0
 20
462.5
 30
0.0
  0
POINT
  5
29F
330
292
100
AcDbEntity
  8
Defpoints
100
AcDbPoint
 10
540.0
 20
462.5
 30
0.0
  0
ENDBLK
  5
294
330
292
100
AcDbEntity
  8
0
100
AcDbBlockEnd
  0
ENDSEC
  0
SECTION
  2
ENTITIES
  0
LWPOLYLINE
  5
B7
330
17
100
AcDbEntity
  8
S-TITLE
100
AcDbPolyline
 90
4
 70
1
 10
0.0
 20
0.0
 10
841.0
 20
0.0
 10
841.0
 20
594.0
 10
0.0
 20
594.0
  0
LWPOLYLINE
  5
B8
330
17
100
AcDbEntity
  8
S-TITLE
100
AcDbPolyline
 90
4
 70
1
 10
10.0
 20
10.0
 10
831.0
 20
10.0
 10
831.0
 20
584.0
 10
10.0
 20
584.0
  0
TEXT
  5
B9
330
17
100
AcDbEntity
  8
S-TITLE
100
AcDbText
 10
12.0
 20
576.5
 30
0.0
 40
5.0
  1
STRUCTURAL CAD - REINFORCEMENT PACKAGE
  7
OpenSans
 11
12.0
 21
576.5
 31
0.0
100
AcDbText
  0
TEXT
  5
BA
330
17
100
AcDbEntity
  8
S-TITLE
100
AcDbText
 10
12.0
 20
569.5
 30
0.0
 40
2.4
  1
R-303   ROOF OPENING DETAILS
  7
OpenSans
 11
12.0
 21
569.5
 31
0.0
100
AcDbText
  0
LINE
  5
BB
330
17
100
AcDbEntity
  8
S-TITLE
100
AcDbLine
 10
10.0
 20
566.5
 30
0.0
 11
831.0
 21
566.5
 31
0.0
  0
TEXT
  5
BC
330
17
100
AcDbEntity
  8
S-BLAST
100
AcDbText
 10
829.0
 20
577.0
 30
0.0
 40
2.0
  1
SENTRY POST EXCLUDED FROM THIS PACKAGE
  7
OpenSans
 72
2
 11
829.0
 21
577.0
 31
0.0
100
AcDbText
  0
TEXT
  5
BD
330
17
100
AcDbEntity
  8
S-BLAST
100
AcDbText
 10
829.0
 20
570.5
 30
0.0
 40
1.4
  1
ALL DESIGN ACTIONS ARE MANUAL CALCULATION - NOT DIRECT STAAD OUTPUT
  7
OpenSans
 72
2
 11
829.0
 21
570.5
 31
0.0
100
AcDbText
  0
TEXT
  5
BE
330
17
100
AcDbEntity
  8
S-BLAST
100
AcDbText
 10
12.0
 20
561.5
 30
0.0
 40
1.4
  1
OPEN ITEMS ON THIS SHEET:  F2 CANTILEVER PAD
  7
OpenSans
 11
12.0
 21
561.5
 31
0.0
100
AcDbText
  0
CIRCLE
  5
BF
330
17
100
AcDbEntity
  8
S-CONCRETE
100
AcDbCircle
 10
90.0
 20
400.0
 30
0.0
 40
28.0
  0
CIRCLE
  5
C0
330
17
100
AcDbEntity
  8
S-CONCRETE
100
AcDbCircle
 10
90.0
 20
400.0
 30
0.0
 40
38.0
  0
CIRCLE
  5
C1
330
17
100
AcDbEntity
  8
S-REFERENCE
100
AcDbCircle
 10
90.0
 20
400.0
 30
0.0
 40
62.0
  0
LINE
  5
C2
330
17
100
AcDbEntity
  8
S-CENTER
100
AcDbLine
 10
14.0
 20
400.0
 30
0.0
 11
20.0
 21
400.0
 31
0.0
  0
LINE
  5
C3
330
17
100
AcDbEntity
  8
S-CENTER
100
AcDbLine
 10
21.6
 20
400.0
 30
0.0
 11
22.6
 21
400.0
 31
0.0
  0
LINE
  5
C4
330
17
100
AcDbEntity
  8
S-CENTER
100
AcDbLine
 10
24.2
 20
400.0
 30
0.0
 11
30.2
 21
400.0
 31
0.0
  0
LINE
  5
C5
330
17
100
AcDbEntity
  8
S-CENTER
100
AcDbLine
 10
31.8
 20
400.0
 30
0.0
 11
32.8
 21
400.0
 31
0.0
  0
LINE
  5
C6
330
17
100
AcDbEntity
  8
S-CENTER
100
AcDbLine
 10
34.400000000000006
 20
400.0
 30
0.0
 11
40.400000000000006
 21
400.0
 31
0.0
  0
LINE
  5
C7
330
17
100
AcDbEntity
  8
S-CENTER
100
AcDbLine
 10
42.0
 20
400.0
 30
0.0
 11
43.0
 21
400.0
 31
0.0
  0
LINE
  5
C8
330
17
100
AcDbEntity
  8
S-CENTER
100
AcDbLine
 10
44.60000000000001
 20
400.0
 30
0.0
 11
50.60000000000001
 21
400.0
 31
0.0
  0
LINE
  5
C9
330
17
100
AcDbEntity
  8
S-CENTER
100
AcDbLine
 10
52.20000000000001
 20
400.0
 30
0.0
 11
53.20000000000001
 21
400.0
 31
0.0
  0
LINE
  5
CA
330
17
100
AcDbEntity
  8
S-CENTER
100
AcDbLine
 10
54.80000000000001
 20
400.0
 30
0.0
 11
60.80000000000001
 21
400.0
 31
0.0
  0
LINE
  5
CB
330
17
100
AcDbEntity
  8
S-CENTER
100
AcDbLine
 10
62.40000000000001
 20
400.0
 30
0.0
 11
63.40000000000001
 21
400.0
 31
0.0
  0
LINE
  5
CC
330
17
100
AcDbEntity
  8
S-CENTER
100
AcDbLine
 10
65.00000000000001
 20
400.0
 30
0.0
 11
71.00000000000001
 21
400.0
 31
0.0
  0
LINE
  5
CD
330
17
100
AcDbEntity
  8
S-CENTER
100
AcDbLine
 10
72.60000000000002
 20
400.0
 30
0.0
 11
73.60000000000002
 21
400.0
 31
0.0
  0
LINE
  5
CE
330
17
100
AcDbEntity
  8
S-CENTER
100
AcDbLine
 10
75.20000000000002
 20
400.0
 30
0.0
 11
81.20000000000002
 21
400.0
 31
0.0
  0
LINE
  5
CF
330
17
100
AcDbEntity
  8
S-CENTER
100
AcDbLine
 10
82.80000000000001
 20
400.0
 30
0.0
 11
83.80000000000001
 21
400.0
 31
0.0
  0
LINE
  5
D0
330
17
100
AcDbEntity
  8
S-CENTER
100
AcDbLine
 10
85.4
 20
400.0
 30
0.0
 11
91.4
 21
400.0
 31
0.0
  0
LINE
  5
D1
330
17
100
AcDbEntity
  8
S-CENTER
100
AcDbLine
 10
93.0
 20
400.0
 30
0.0
 11
94.0
 21
400.0
 31
0.0
  0
LINE
  5
D2
330
17
100
AcDbEntity
  8
S-CENTER
100
AcDbLine
 10
95.6
 20
400.0
 30
0.0
 11
101.6
 21
400.0
 31
0.0
  0
LINE
  5
D3
330
17
100
AcDbEntity
  8
S-CENTER
100
AcDbLine
 10
103.19999999999999
 20
400.0
 30
0.0
 11
104.19999999999999
 21
400.0
 31
0.0
  0
LINE
  5
D4
330
17
100
AcDbEntity
  8
S-CENTER
100
AcDbLine
 10
105.79999999999998
 20
400.0
 30
0.0
 11
111.79999999999998
 21
400.0
 31
0.0
  0
LINE
  5
D5
330
17
100
AcDbEntity
  8
S-CENTER
100
AcDbLine
 10
113.39999999999998
 20
400.0
 30
0.0
 11
114.39999999999998
 21
400.0
 31
0.0
  0
LINE
  5
D6
330
17
100
AcDbEntity
  8
S-CENTER
100
AcDbLine
 10
115.99999999999997
 20
400.0
 30
0.0
 11
121.99999999999997
 21
400.0
 31
0.0
  0
LINE
  5
D7
330
17
100
AcDbEntity
  8
S-CENTER
100
AcDbLine
 10
123.59999999999997
 20
400.0
 30
0.0
 11
124.59999999999997
 21
400.0
 31
0.0
  0
LINE
  5
D8
330
17
100
AcDbEntity
  8
S-CENTER
100
AcDbLine
 10
126.19999999999996
 20
400.0
 30
0.0
 11
132.19999999999996
 21
400.0
 31
0.0
  0
LINE
  5
D9
330
17
100
AcDbEntity
  8
S-CENTER
100
AcDbLine
 10
133.79999999999995
 20
400.0
 30
0.0
 11
134.79999999999995
 21
400.0
 31
0.0
  0
LINE
  5
DA
330
17
100
AcDbEntity
  8
S-CENTER
100
AcDbLine
 10
136.39999999999995
 20
400.0
 30
0.0
 11
142.39999999999995
 21
400.0
 31
0.0
  0
LINE
  5
DB
330
17
100
AcDbEntity
  8
S-CENTER
100
AcDbLine
 10
143.99999999999994
 20
400.0
 30
0.0
 11
144.99999999999994
 21
400.0
 31
0.0
  0
LINE
  5
DC
330
17
100
AcDbEntity
  8
S-CENTER
100
AcDbLine
 10
146.59999999999994
 20
400.0
 30
0.0
 11
152.59999999999994
 21
400.0
 31
0.0
  0
LINE
  5
DD
330
17
100
AcDbEntity
  8
S-CENTER
100
AcDbLine
 10
154.19999999999993
 20
400.0
 30
0.0
 11
155.19999999999993
 21
400.0
 31
0.0
  0
LINE
  5
DE
330
17
100
AcDbEntity
  8
S-CENTER
100
AcDbLine
 10
156.79999999999993
 20
400.0
 30
0.0
 11
162.79999999999993
 21
400.0
 31
0.0
  0
LINE
  5
DF
330
17
100
AcDbEntity
  8
S-CENTER
100
AcDbLine
 10
164.39999999999992
 20
400.0
 30
0.0
 11
165.39999999999992
 21
400.0
 31
0.0
  0
LINE
  5
E0
330
17
100
AcDbEntity
  8
S-CENTER
100
AcDbLine
 10
90.0
 20
324.0
 30
0.0
 11
90.0
 21
330.0
 31
0.0
  0
LINE
  5
E1
330
17
100
AcDbEntity
  8
S-CENTER
100
AcDbLine
 10
90.0
 20
331.6
 30
0.0
 11
90.0
 21
332.6
 31
0.0
  0
LINE
  5
E2
330
17
100
AcDbEntity
  8
S-CENTER
100
AcDbLine
 10
90.0
 20
334.2
 30
0.0
 11
90.0
 21
340.2
 31
0.0
  0
LINE
  5
E3
330
17
100
AcDbEntity
  8
S-CENTER
100
AcDbLine
 10
90.0
 20
341.8
 30
0.0
 11
90.0
 21
342.8
 31
0.0
  0
LINE
  5
E4
330
17
100
AcDbEntity
  8
S-CENTER
100
AcDbLine
 10
90.0
 20
344.4
 30
0.0
 11
90.0
 21
350.4
 31
0.0
  0
LINE
  5
E5
330
17
100
AcDbEntity
  8
S-CENTER
100
AcDbLine
 10
90.0
 20
352.0
 30
0.0
 11
90.0
 21
353.0
 31
0.0
  0
LINE
  5
E6
330
17
100
AcDbEntity
  8
S-CENTER
100
AcDbLine
 10
90.0
 20
354.6
 30
0.0
 11
90.0
 21
360.6
 31
0.0
  0
LINE
  5
E7
330
17
100
AcDbEntity
  8
S-CENTER
100
AcDbLine
 10
90.0
 20
362.2
 30
0.0
 11
90.0
 21
363.2
 31
0.0
  0
LINE
  5
E8
330
17
100
AcDbEntity
  8
S-CENTER
100
AcDbLine
 10
90.0
 20
364.8
 30
0.0
 11
90.0
 21
370.8
 31
0.0
  0
LINE
  5
E9
330
17
100
AcDbEntity
  8
S-CENTER
100
AcDbLine
 10
90.0
 20
372.40000000000003
 30
0.0
 11
90.0
 21
373.40000000000003
 31
0.0
  0
LINE
  5
EA
330
17
100
AcDbEntity
  8
S-CENTER
100
AcDbLine
 10
90.0
 20
375.0
 30
0.0
 11
90.0
 21
381.0
 31
0.0
  0
LINE
  5
EB
330
17
100
AcDbEntity
  8
S-CENTER
100
AcDbLine
 10
90.0
 20
382.6
 30
0.0
 11
90.0
 21
383.6
 31
0.0
  0
LINE
  5
EC
330
17
100
AcDbEntity
  8
S-CENTER
100
AcDbLine
 10
90.0
 20
385.20000000000005
 30
0.0
 11
90.0
 21
391.20000000000005
 31
0.0
  0
LINE
  5
ED
330
17
100
AcDbEntity
  8
S-CENTER
100
AcDbLine
 10
90.0
 20
392.8
 30
0.0
 11
90.0
 21
393.8
 31
0.0
  0
LINE
  5
EE
330
17
100
AcDbEntity
  8
S-CENTER
100
AcDbLine
 10
90.0
 20
395.4
 30
0.0
 11
90.0
 21
401.4
 31
0.0
  0
LINE
  5
EF
330
17
100
AcDbEntity
  8
S-CENTER
100
AcDbLine
 10
90.0
 20
403.0
 30
0.0
 11
90.0
 21
404.0
 31
0.0
  0
LINE
  5
F0
330
17
100
AcDbEntity
  8
S-CENTER
100
AcDbLine
 10
90.0
 20
405.6
 30
0.0
 11
90.0
 21
411.6
 31
0.0
  0
LINE
  5
F1
330
17
100
AcDbEntity
  8
S-CENTER
100
AcDbLine
 10
90.0
 20
413.2
 30
0.0
 11
90.0
 21
414.2
 31
0.0
  0
LINE
  5
F2
330
17
100
AcDbEntity
  8
S-CENTER
100
AcDbLine
 10
90.0
 20
415.79999999999995
 30
0.0
 11
90.0
 21
421.79999999999995
 31
0.0
  0
LINE
  5
F3
330
17
100
AcDbEntity
  8
S-CENTER
100
AcDbLine
 10
90.0
 20
423.4
 30
0.0
 11
90.0
 21
424.4
 31
0.0
  0
LINE
  5
F4
330
17
100
AcDbEntity
  8
S-CENTER
100
AcDbLine
 10
90.0
 20
426.0
 30
0.0
 11
90.0
 21
432.0
 31
0.0
  0
LINE
  5
F5
330
17
100
AcDbEntity
  8
S-CENTER
100
AcDbLine
 10
90.0
 20
433.59999999999997
 30
0.0
 11
90.0
 21
434.59999999999997
 31
0.0
  0
LINE
  5
F6
330
17
100
AcDbEntity
  8
S-CENTER
100
AcDbLine
 10
90.0
 20
436.19999999999993
 30
0.0
 11
90.0
 21
442.19999999999993
 31
0.0
  0
LINE
  5
F7
330
17
100
AcDbEntity
  8
S-CENTER
100
AcDbLine
 10
90.0
 20
443.79999999999995
 30
0.0
 11
90.0
 21
444.79999999999995
 31
0.0
  0
LINE
  5
F8
330
17
100
AcDbEntity
  8
S-CENTER
100
AcDbLine
 10
90.0
 20
446.4
 30
0.0
 11
90.0
 21
452.4
 31
0.0
  0
LINE
  5
F9
330
17
100
AcDbEntity
  8
S-CENTER
100
AcDbLine
 10
90.0
 20
453.99999999999994
 30
0.0
 11
90.0
 21
454.99999999999994
 31
0.0
  0
LINE
  5
FA
330
17
100
AcDbEntity
  8
S-CENTER
100
AcDbLine
 10
90.0
 20
456.5999999999999
 30
0.0
 11
90.0
 21
462.5999999999999
 31
0.0
  0
LINE
  5
FB
330
17
100
AcDbEntity
  8
S-CENTER
100
AcDbLine
 10
90.0
 20
464.19999999999993
 30
0.0
 11
90.0
 21
465.19999999999993
 31
0.0
  0
LINE
  5
FC
330
17
100
AcDbEntity
  8
S-CENTER
100
AcDbLine
 10
90.0
 20
466.79999999999995
 30
0.0
 11
90.0
 21
472.79999999999995
 31
0.0
  0
LINE
  5
FD
330
17
100
AcDbEntity
  8
S-CENTER
100
AcDbLine
 10
90.0
 20
474.3999999999999
 30
0.0
 11
90.0
 21
475.3999999999999
 31
0.0
  0
LINE
  5
FE
330
17
100
AcDbEntity
  8
S-REBAR-SEC
100
AcDbLine
 10
132.0
 20
328.0
 30
0.0
 11
132.0
 21
472.0
 31
0.0
  0
LINE
  5
FF
330
17
100
AcDbEntity
  8
S-REBAR-SEC
100
AcDbLine
 10
18.0
 20
442.0
 30
0.0
 11
162.0
 21
442.0
 31
0.0
  0
LINE
  5
100
330
17
100
AcDbEntity
  8
S-REBAR-SEC
100
AcDbLine
 10
48.0
 20
328.0
 30
0.0
 11
48.0
 21
472.0
 31
0.0
  0
LINE
  5
101
330
17
100
AcDbEntity
  8
S-REBAR-SEC
100
AcDbLine
 10
18.0
 20
358.0
 30
0.0
 11
162.0
 21
358.0
 31
0.0
  0
LINE
  5
102
330
17
100
AcDbEntity
  8
S-REBAR-SEC
100
AcDbLine
 10
137.2
 20
328.0
 30
0.0
 11
137.2
 21
472.0
 31
0.0
  0
LINE
  5
103
330
17
100
AcDbEntity
  8
S-REBAR-SEC
100
AcDbLine
 10
18.0
 20
447.2
 30
0.0
 11
162.0
 21
447.2
 31
0.0
  0
LINE
  5
104
330
17
100
AcDbEntity
  8
S-REBAR-SEC
100
AcDbLine
 10
42.8
 20
328.0
 30
0.0
 11
42.8
 21
472.0
 31
0.0
  0
LINE
  5
105
330
17
100
AcDbEntity
  8
S-REBAR-SEC
100
AcDbLine
 10
18.0
 20
352.8
 30
0.0
 11
162.0
 21
352.8
 31
0.0
  0
LINE
  5
106
330
17
100
AcDbEntity
  8
S-REBAR-SEC
100
AcDbLine
 10
142.4
 20
328.0
 30
0.0
 11
142.4
 21
472.0
 31
0.0
  0
LINE
  5
107
330
17
100
AcDbEntity
  8
S-REBAR-SEC
100
AcDbLine
 10
18.0
 20
452.4
 30
0.0
 11
162.0
 21
452.4
 31
0.0
  0
LINE
  5
108
330
17
100
AcDbEntity
  8
S-REBAR-SEC
100
AcDbLine
 10
37.6
 20
328.0
 30
0.0
 11
37.6
 21
472.0
 31
0.0
  0
LINE
  5
109
330
17
100
AcDbEntity
  8
S-REBAR-SEC
100
AcDbLine
 10
18.0
 20
347.6
 30
0.0
 11
162.0
 21
347.6
 31
0.0
  0
LINE
  5
10A
330
17
100
AcDbEntity
  8
S-REBAR-SEC
100
AcDbLine
 10
147.6
 20
328.0
 30
0.0
 11
147.6
 21
472.0
 31
0.0
  0
LINE
  5
10B
330
17
100
AcDbEntity
  8
S-REBAR-SEC
100
AcDbLine
 10
18.0
 20
457.6
 30
0.0
 11
162.0
 21
457.6
 31
0.0
  0
LINE
  5
10C
330
17
100
AcDbEntity
  8
S-REBAR-SEC
100
AcDbLine
 10
32.4
 20
328.0
 30
0.0
 11
32.4
 21
472.0
 31
0.0
  0
LINE
  5
10D
330
17
100
AcDbEntity
  8
S-REBAR-SEC
100
AcDbLine
 10
18.0
 20
342.4
 30
0.0
 11
162.0
 21
342.4
 31
0.0
  0
LINE
  5
10E
330
17
100
AcDbEntity
  8
S-REBAR-SEC
100
AcDbLine
 10
152.8
 20
328.0
 30
0.0
 11
152.8
 21
472.0
 31
0.0
  0
LINE
  5
10F
330
17
100
AcDbEntity
  8
S-REBAR-SEC
100
AcDbLine
 10
18.0
 20
462.8
 30
0.0
 11
162.0
 21
462.8
 31
0.0
  0
LINE
  5
110
330
17
100
AcDbEntity
  8
S-REBAR-SEC
100
AcDbLine
 10
27.200000000000003
 20
328.0
 30
0.0
 11
27.200000000000003
 21
472.0
 31
0.0
  0
LINE
  5
111
330
17
100
AcDbEntity
  8
S-REBAR-SEC
100
AcDbLine
 10
18.0
 20
337.2
 30
0.0
 11
162.0
 21
337.2
 31
0.0
  0
CIRCLE
  5
112
330
17
100
AcDbEntity
  8
S-REBAR-MAIN
100
AcDbCircle
 10
90.0
 20
400.0
 30
0.0
 40
32.8
  0
CIRCLE
  5
113
330
17
100
AcDbEntity
  8
S-REBAR-MAIN
100
AcDbCircle
 10
90.0
 20
400.0
 30
0.0
 40
38.0
  0
CIRCLE
  5
114
330
17
100
AcDbEntity
  8
S-REBAR-MAIN
100
AcDbCircle
 10
90.0
 20
400.0
 30
0.0
 40
43.2
  0
LINE
  5
115
330
17
100
AcDbEntity
  8
S-REBAR-DIST
100
AcDbLine
 10
118.0
 20
400.0
 30
0.0
 11
150.0
 21
400.0
 31
0.0
  0
LINE
  5
116
330
17
100
AcDbEntity
  8
S-REBAR-DIST
100
AcDbLine
 10
117.0459231360939
 20
407.2469332628706
 30
0.0
 11
147.9555495773441
 21
415.5291427061512
 31
0.0
  0
LINE
  5
117
330
17
100
AcDbEntity
  8
S-REBAR-DIST
100
AcDbLine
 10
114.24871130596429
 20
414.0
 30
0.0
 11
141.96152422706632
 21
430.0
 31
0.0
  0
LINE
  5
118
330
17
100
AcDbEntity
  8
S-REBAR-DIST
100
AcDbLine
 10
109.79898987322333
 20
419.7989898732233
 30
0.0
 11
132.42640687119285
 21
442.42640687119285
 31
0.0
  0
LINE
  5
119
330
17
100
AcDbEntity
  8
S-REBAR-DIST
100
AcDbLine
 10
104.0
 20
424.24871130596426
 30
0.0
 11
120.0
 21
451.9615242270663
 31
0.0
  0
LINE
  5
11A
330
17
100
AcDbEntity
  8
S-REBAR-DIST
100
AcDbLine
 10
97.24693326287058
 20
427.0459231360939
 30
0.0
 11
105.52914270615125
 21
457.9555495773441
 31
0.0
  0
LINE
  5
11B
330
17
100
AcDbEntity
  8
S-REBAR-DIST
100
AcDbLine
 10
90.0
 20
428.0
 30
0.0
 11
90.0
 21
460.0
 31
0.0
  0
LINE
  5
11C
330
17
100
AcDbEntity
  8
S-REBAR-DIST
100
AcDbLine
 10
82.75306673712942
 20
427.0459231360939
 30
0.0
 11
74.47085729384877
 21
457.9555495773441
 31
0.0
  0
LINE
  5
11D
330
17
100
AcDbEntity
  8
S-REBAR-DIST
100
AcDbLine
 10
76.0
 20
424.24871130596426
 30
0.0
 11
60.000000000000014
 21
451.9615242270663
 31
0.0
  0
LINE
  5
11E
330
17
100
AcDbEntity
  8
S-REBAR-DIST
100
AcDbLine
 10
70.20101012677667
 20
419.7989898732233
 30
0.0
 11
47.573593128807154
 21
442.42640687119285
 31
0.0
  0
LINE
  5
11F
330
17
100
AcDbEntity
  8
S-REBAR-DIST
100
AcDbLine
 10
65.75128869403571
 20
414.0
 30
0.0
 11
38.03847577293368
 21
430.0
 31
0.0
  0
LINE
  5
120
330
17
100
AcDbEntity
  8
S-REBAR-DIST
100
AcDbLine
 10
62.95407686390609
 20
407.2469332628706
 30
0.0
 11
32.044450422655906
 21
415.5291427061513
 31
0.0
  0
LINE
  5
121
330
17
100
AcDbEntity
  8
S-REBAR-DIST
100
AcDbLine
 10
62.0
 20
400.0
 30
0.0
 11
30.0
 21
400.0
 31
0.0
  0
LINE
  5
122
330
17
100
AcDbEntity
  8
S-REBAR-DIST
100
AcDbLine
 10
62.95407686390609
 20
392.7530667371294
 30
0.0
 11
32.0444504226559
 21
384.4708572938488
 31
0.0
  0
LINE
  5
123
330
17
100
AcDbEntity
  8
S-REBAR-DIST
100
AcDbLine
 10
65.75128869403571
 20
386.0
 30
0.0
 11
38.03847577293367
 21
370.0
 31
0.0
  0
LINE
  5
124
330
17
100
AcDbEntity
  8
S-REBAR-DIST
100
AcDbLine
 10
70.20101012677665
 20
380.2010101267767
 30
0.0
 11
47.573593128807126
 21
357.57359312880715
 31
0.0
  0
LINE
  5
125
330
17
100
AcDbEntity
  8
S-REBAR-DIST
100
AcDbLine
 10
75.99999999999999
 20
375.75128869403574
 30
0.0
 11
59.99999999999997
 21
348.0384757729337
 31
0.0
  0
LINE
  5
126
330
17
100
AcDbEntity
  8
S-REBAR-DIST
100
AcDbLine
 10
82.75306673712942
 20
372.9540768639061
 30
0.0
 11
74.47085729384877
 21
342.0444504226559
 31
0.0
  0
LINE
  5
127
330
17
100
AcDbEntity
  8
S-REBAR-DIST
100
AcDbLine
 10
90.0
 20
372.0
 30
0.0
 11
89.99999999999999
 21
340.0
 31
0.0
  0
LINE
  5
128
330
17
100
AcDbEntity
  8
S-REBAR-DIST
100
AcDbLine
 10
97.24693326287057
 20
372.9540768639061
 30
0.0
 11
105.52914270615122
 21
342.04445042265587
 31
0.0
  0
LINE
  5
129
330
17
100
AcDbEntity
  8
S-REBAR-DIST
100
AcDbLine
 10
104.0
 20
375.75128869403574
 30
0.0
 11
120.0
 21
348.0384757729337
 31
0.0
  0
LINE
  5
12A
330
17
100
AcDbEntity
  8
S-REBAR-DIST
100
AcDbLine
 10
109.79898987322332
 20
380.2010101267767
 30
0.0
 11
132.42640687119285
 21
357.57359312880715
 31
0.0
  0
LINE
  5
12B
330
17
100
AcDbEntity
  8
S-REBAR-DIST
100
AcDbLine
 10
114.24871130596428
 20
386.0
 30
0.0
 11
141.9615242270663
 21
370.0
 31
0.0
  0
LINE
  5
12C
330
17
100
AcDbEntity
  8
S-REBAR-DIST
100
AcDbLine
 10
117.0459231360939
 20
392.7530667371294
 30
0.0
 11
147.95554957734407
 21
384.4708572938487
 31
0.0
  0
DIMENSION
  5
12D
330
17
100
AcDbEntity
  8
S-DIM
100
AcDbDimension
280
0
  2
*D1
  3
SC-DIM
 10
62.0
 20
312.0
 30
0.0
 11
90.0
 21
313.7
 31
0.0
 70
32
 71
5
  1
<>
100
AcDbAlignedDimension
 13
62.0
 23
324.0
 33
0.0
 14
118.0
 24
324.0
 34
0.0
 50
0.0
100
AcDbRotatedDimension
1001
ACAD
1000
DSTYLE
1002
{
1070
144
1040
25.0
1002
}
  0
DIMENSION
  5
13C
330
17
100
AcDbEntity
  8
S-DIM
100
AcDbDimension
280
0
  2
*D2
  3
SC-DIM
 10
52.0
 20
292.0
 30
0.0
 11
90.0
 21
293.7
 31
0.0
 70
32
 71
5
  1
<>
100
AcDbAlignedDimension
 13
52.0
 23
324.0
 33
0.0
 14
128.0
 24
324.0
 34
0.0
 50
0.0
100
AcDbRotatedDimension
1001
ACAD
1000
DSTYLE
1002
{
1070
144
1040
25.0
1002
}
  0
INSERT
  5
14B
330
17
100
AcDbEntity
  8
S-CALLOUT
100
AcDbBlockReference
  2
BARMARK
 10
150.0
 20
462.0
 30
0.0
  0
TEXT
  5
14D
330
17
100
AcDbEntity
  8
S-CALLOUT
100
AcDbText
 10
150.0
 20
462.0
 30
0.0
 40
2.0
  1
S08
  7
OpenSans
 72
1
 11
150.0
 21
462.0
 31
0.0
100
AcDbText
 73
2
  0
LEADER
  5
14E
330
17
100
AcDbEntity
  8
S-CALLOUT
100
AcDbLeader
  3
SC-DIM
 73
3
 76
2
 10
137.2
 20
436.0
 30
0.0
 10
150.0
 20
462.0
 30
0.0
  0
INSERT
  5
14F
330
17
100
AcDbEntity
  8
S-CALLOUT
100
AcDbBlockReference
  2
BARMARK
 10
60.0
 20
440.0
 30
0.0
  0
TEXT
  5
151
330
17
100
AcDbEntity
  8
S-CALLOUT
100
AcDbText
 10
60.0
 20
440.0
 30
0.0
 40
2.0
  1
S09
  7
OpenSans
 72
1
 11
60.0
 21
440.0
 31
0.0
100
AcDbText
 73
2
  0
LEADER
  5
152
330
17
100
AcDbEntity
  8
S-CALLOUT
100
AcDbLeader
  3
SC-DIM
 73
3
 76
2
 10
52.0
 20
408.0
 30
0.0
 10
60.0
 20
440.0
 30
0.0
  0
INSERT
  5
153
330
17
100
AcDbEntity
  8
S-CALLOUT
100
AcDbBlockReference
  2
BARMARK
 10
60.0
 20
372.0
 30
0.0
  0
TEXT
  5
155
330
17
100
AcDbEntity
  8
S-CALLOUT
100
AcDbText
 10
60.0
 20
372.0
 30
0.0
 40
2.0
  1
S10
  7
OpenSans
 72
1
 11
60.0
 21
372.0
 31
0.0
100
AcDbText
 73
2
  0
LEADER
  5
156
330
17
100
AcDbEntity
  8
S-CALLOUT
100
AcDbLeader
  3
SC-DIM
 73
3
 76
2
 10
58.0
 20
368.0
 30
0.0
 10
60.0
 20
372.0
 30
0.0
  0
TEXT
  5
157
330
17
100
AcDbEntity
  8
S-TITLE
100
AcDbText
 10
30.0
 20
552.0
 30
0.0
 40
3.5
  1
V1   ESCAPE-SHAFT COLLAR - PLAN ON THE ROOF SLAB
  7
OpenSans
 11
30.0
 21
552.0
 31
0.0
100
AcDbText
  0
LINE
  5
158
330
17
100
AcDbEntity
  8
S-TITLE
100
AcDbLine
 10
30.0
 20
550.2
 30
0.0
 11
163.7970529135968
 21
550.2
 31
0.0
  0
TEXT
  5
159
330
17
100
AcDbEntity
  8
S-TEXT
100
AcDbText
 10
30.0
 20
544.8
 30
0.0
 40
2.0
  1
SCALE 1:25
  7
OpenSans
 11
30.0
 21
544.8
 31
0.0
100
AcDbText
  0
TEXT
  5
15A
330
17
100
AcDbEntity
  8
S-TEXT
100
AcDbText
 10
30.0
 20
322.0
 30
0.0
 40
1.4
  1
CIRCULAR IS THE RIGHT SHAPE: HOOP ACTION, NO RE-ENTRANT
  7
OpenSans
 11
30.0
 21
322.0
 31
0.0
100
AcDbText
  0
TEXT
  5
15B
330
17
100
AcDbEntity
  8
S-TEXT
100
AcDbText
 10
30.0
 20
317.0
 30
0.0
 40
1.4
  1
STRESS CONCENTRATION.  THIS DETAIL SETS THE 750 mm CLEARANCE
  7
OpenSans
 11
30.0
 21
317.0
 31
0.0
100
AcDbText
  0
TEXT
  5
15C
330
17
100
AcDbEntity
  8
S-BLAST
100
AcDbText
 10
30.0
 20
312.0
 30
0.0
 40
1.4
  1
RULE - A BAY MUST BE AT LEAST 2900 WIDE TO HOLD AN ESCAPE SHAFT.
  7
OpenSans
 11
30.0
 21
312.0
 31
0.0
100
AcDbText
  0
LWPOLYLINE
  5
15D
330
17
100
AcDbEntity
  8
S-CONCRETE
100
AcDbPolyline
 90
4
 70
1
 10
116.0
 20
400.0
 10
192.0
 20
400.0
 10
192.0
 20
436.0
 10
116.0
 20
436.0
  0
LWPOLYLINE
  5
15E
330
17
100
AcDbEntity
  8
S-CONCRETE
100
AcDbPolyline
 90
4
 70
1
 10
248.0
 20
400.0
 10
324.0
 20
400.0
 10
324.0
 20
436.0
 10
248.0
 20
436.0
  0
LWPOLYLINE
  5
15F
330
17
100
AcDbEntity
  8
S-CONCRETE
100
AcDbPolyline
 90
4
 70
1
 10
168.0
 20
388.0
 10
192.0
 20
388.0
 10
192.0
 20
436.0
 10
168.0
 20
436.0
  0
LWPOLYLINE
  5
160
330
17
100
AcDbEntity
  8
S-CONCRETE
100
AcDbPolyline
 90
4
 70
1
 10
248.0
 20
388.0
 10
272.0
 20
388.0
 10
272.0
 20
436.0
 10
248.0
 20
436.0
  0
HATCH
  5
161
330
17
100
AcDbEntity
  8
S-HATCH
 62
7
100
AcDbHatch
 10
0.0
 20
0.0
 30
0.0
210
0.0
220
0.0
230
1.0
  2
ANSI31
 70
0
 71
0
 91
1
 92
3
 72
0
 73
1
 93
4
 10
116.0
 20
400.0
 10
192.0
 20
400.0
 10
192.0
 20
436.0
 10
116.0
 20
436.0
 97
0
 75
1
 76
1
 52
0.0
 41
1.6
 77
0
 78
1
 53
45.0
 43
0.0
 44
0.0
 45
-3.5921024485
 46
3.5921024485
 79
0
 98
0
  0
HATCH
  5
162
330
17
100
AcDbEntity
  8
S-HATCH
 62
7
100
AcDbHatch
 10
0.0
 20
0.0
 30
0.0
210
0.0
220
0.0
230
1.0
  2
ANSI31
 70
0
 71
0
 91
1
 92
3
 72
0
 73
1
 93
4
 10
248.0
 20
400.0
 10
324.0
 20
400.0
 10
324.0
 20
436.0
 10
248.0
 20
436.0
 97
0
 75
1
 76
1
 52
0.0
 41
1.6
 77
0
 78
1
 53
45.0
 43
0.0
 44
0.0
 45
-3.5921024485
 46
3.5921024485
 79
0
 98
0
  0
HATCH
  5
163
330
17
100
AcDbEntity
  8
S-HATCH
 62
7
100
AcDbHatch
 10
0.0
 20
0.0
 30
0.0
210
0.0
220
0.0
230
1.0
  2
ANSI31
 70
0
 71
0
 91
1
 92
3
 72
0
 73
1
 93
4
 10
168.0
 20
388.0
 10
192.0
 20
388.0
 10
192.0
 20
400.0
 10
168.0
 20
400.0
 97
0
 75
1
 76
1
 52
0.0
 41
1.6
 77
0
 78
1
 53
45.0
 43
0.0
 44
0.0
 45
-3.5921024485
 46
3.5921024485
 79
0
 98
0
  0
HATCH
  5
164
330
17
100
AcDbEntity
  8
S-HATCH
 62
7
100
AcDbHatch
 10
0.0
 20
0.0
 30
0.0
210
0.0
220
0.0
230
1.0
  2
ANSI31
 70
0
 71
0
 91
1
 92
3
 72
0
 73
1
 93
4
 10
248.0
 20
388.0
 10
272.0
 20
388.0
 10
272.0
 20
400.0
 10
248.0
 20
400.0
 97
0
 75
1
 76
1
 52
0.0
 41
1.6
 77
0
 78
1
 53
45.0
 43
0.0
 44
0.0
 45
-3.5921024485
 46
3.5921024485
 79
0
 98
0
  0
LWPOLYLINE
  5
165
330
17
100
AcDbEntity
  8
S-CONCRETE
100
AcDbPolyline
 90
4
 70
1
 10
182.0
 20
436.0
 10
192.0
 20
436.0
 10
192.0
 20
496.0
 10
182.0
 20
496.0
  0
LWPOLYLINE
  5
166
330
17
100
AcDbEntity
  8
S-CONCRETE
100
AcDbPolyline
 90
4
 70
1
 10
248.0
 20
436.0
 10
258.0
 20
436.0
 10
258.0
 20
496.0
 10
248.0
 20
496.0
  0
CIRCLE
  5
167
330
17
100
AcDbEntity
  8
S-REBAR-MAIN
100
AcDbCircle
 10
120.0
 20
432.52
 30
0.0
 40
0.6
  0
HATCH
  5
168
330
17
100
AcDbEntity
  8
S-REBAR-MAIN
 62
1
100
AcDbHatch
 10
0.0
 20
0.0
 30
0.0
210
0.0
220
0.0
230
1.0
  2
SOLID
 70
1
 71
0
 91
1
 92
3
 72
0
 73
1
 93
16
 10
120.6
 20
432.52
 10
120.55432771950677
 20
432.749610059419
 10
120.42426406871193
 20
432.9442640687119
 10
120.22961005941906
 20
433.07432771950675
 10
120.0
 20
433.12
 10
119.77038994058094
 20
433.07432771950675
 10
119.57573593128807
 20
432.9442640687119
 10
119.44567228049323
 20
432.749610059419
 10
119.4
 20
432.52
 10
119.44567228049323
 20
432.29038994058095
 10
119.57573593128807
 20
432.09573593128806
 10
119.77038994058094
 20
431.9656722804932
 10
120.0
 20
431.91999999999996
 10
120.22961005941906
 20
431.9656722804932
 10
120.42426406871193
 20
432.09573593128806
 10
120.55432771950677
 20
432.29038994058095
 97
0
 75
0
 76
1
 98
0
  0
CIRCLE
  5
169
330
17
100
AcDbEntity
  8
S-REBAR-MAIN
100
AcDbCircle
 10
126.0
 20
432.52
 30
0.0
 40
0.6
  0
HATCH
  5
16A
330
17
100
AcDbEntity
  8
S-REBAR-MAIN
 62
1
100
AcDbHatch
 10
0.0
 20
0.0
 30
0.0
210
0.0
220
0.0
230
1.0
  2
SOLID
 70
1
 71
0
 91
1
 92
3
 72
0
 73
1
 93
16
 10
126.6
 20
432.52
 10
126.55432771950677
 20
432.749610059419
 10
126.42426406871193
 20
432.9442640687119
 10
126.22961005941906
 20
433.07432771950675
 10
126.0
 20
433.12
 10
125.77038994058094
 20
433.07432771950675
 10
125.57573593128807
 20
432.9442640687119
 10
125.44567228049323
 20
432.749610059419
 10
125.4
 20
432.52
 10
125.44567228049323
 20
432.29038994058095
 10
125.57573593128807
 20
432.09573593128806
 10
125.77038994058094
 20
431.9656722804932
 10
126.0
 20
431.91999999999996
 10
126.22961005941906
 20
431.9656722804932
 10
126.42426406871193
 20
432.09573593128806
 10
126.55432771950677
 20
432.29038994058095
 97
0
 75
0
 76
1
 98
0
  0
CIRCLE
  5
16B
330
17
100
AcDbEntity
  8
S-REBAR-MAIN
100
AcDbCircle
 10
132.0
 20
432.52
 30
0.0
 40
0.6
  0
HATCH
  5
16C
330
17
100
AcDbEntity
  8
S-REBAR-MAIN
 62
1
100
AcDbHatch
 10
0.0
 20
0.0
 30
0.0
210
0.0
220
0.0
230
1.0
  2
SOLID
 70
1
 71
0
 91
1
 92
3
 72
0
 73
1
 93
16
 10
132.6
 20
432.52
 10
132.55432771950677
 20
432.749610059419
 10
132.42426406871192
 20
432.9442640687119
 10
132.22961005941906
 20
433.07432771950675
 10
132.0
 20
433.12
 10
131.77038994058094
 20
433.07432771950675
 10
131.57573593128808
 20
432.9442640687119
 10
131.44567228049323
 20
432.749610059419
 10
131.4
 20
432.52
 10
131.44567228049323
 20
432.29038994058095
 10
131.57573593128808
 20
432.09573593128806
 10
131.77038994058094
 20
431.9656722804932
 10
132.0
 20
431.91999999999996
 10
132.22961005941906
 20
431.9656722804932
 10
132.42426406871192
 20
432.09573593128806
 10
132.55432771950677
 20
432.29038994058095
 97
0
 75
0
 76
1
 98
0
  0
CIRCLE
  5
16D
330
17
100
AcDbEntity
  8
S-REBAR-MAIN
100
AcDbCircle
 10
138.0
 20
432.52
 30
0.0
 40
0.6
  0
HATCH
  5
16E
330
17
100
AcDbEntity
  8
S-REBAR-MAIN
 62
1
100
AcDbHatch
 10
0.0
 20
0.0
 30
0.0
210
0.0
220
0.0
230
1.0
  2
SOLID
 70
1
 71
0
 91
1
 92
3
 72
0
 73
1
 93
16
 10
138.6
 20
432.52
 10
138.55432771950677
 20
432.749610059419
 10
138.42426406871192
 20
432.9442640687119
 10
138.22961005941906
 20
433.07432771950675
 10
138.0
 20
433.12
 10
137.77038994058094
 20
433.07432771950675
 10
137.57573593128808
 20
432.9442640687119
 10
137.44567228049323
 20
432.749610059419
 10
137.4
 20
432.52
 10
137.44567228049323
 20
432.29038994058095
 10
137.57573593128808
 20
432.09573593128806
 10
137.77038994058094
 20
431.9656722804932
 10
138.0
 20
431.91999999999996
 10
138.22961005941906
 20
431.9656722804932
 10
138.42426406871192
 20
432.09573593128806
 10
138.55432771950677
 20
432.29038994058095
 97
0
 75
0
 76
1
 98
0
  0
CIRCLE
  5
16F
330
17
100
AcDbEntity
  8
S-REBAR-MAIN
100
AcDbCircle
 10
144.0
 20
432.52
 30
0.0
 40
0.6
  0
HATCH
  5
170
330
17
100
AcDbEntity
  8
S-REBAR-MAIN
 62
1
100
AcDbHatch
 10
0.0
 20
0.0
 30
0.0
210
0.0
220
0.0
230
1.0
  2
SOLID
 70
1
 71
0
 91
1
 92
3
 72
0
 73
1
 93
16
 10
144.6
 20
432.52
 10
144.55432771950677
 20
432.749610059419
 10
144.42426406871192
 20
432.9442640687119
 10
144.22961005941906
 20
433.07432771950675
 10
144.0
 20
433.12
 10
143.77038994058094
 20
433.07432771950675
 10
143.57573593128808
 20
432.9442640687119
 10
143.44567228049323
 20
432.749610059419
 10
143.4
 20
432.52
 10
143.44567228049323
 20
432.29038994058095
 10
143.57573593128808
 20
432.09573593128806
 10
143.77038994058094
 20
431.9656722804932
 10
144.0
 20
431.91999999999996
 10
144.22961005941906
 20
431.9656722804932
 10
144.42426406871192
 20
432.09573593128806
 10
144.55432771950677
 20
432.29038994058095
 97
0
 75
0
 76
1
 98
0
  0
CIRCLE
  5
171
330
17
100
AcDbEntity
  8
S-REBAR-MAIN
100
AcDbCircle
 10
150.0
 20
432.52
 30
0.0
 40
0.6
  0
HATCH
  5
172
330
17
100
AcDbEntity
  8
S-REBAR-MAIN
 62
1
100
AcDbHatch
 10
0.0
 20
0.0
 30
0.0
210
0.0
220
0.0
230
1.0
  2
SOLID
 70
1
 71
0
 91
1
 92
3
 72
0
 73
1
 93
16
 10
150.6
 20
432.52
 10
150.55432771950677
 20
432.749610059419
 10
150.42426406871192
 20
432.9442640687119
 10
150.22961005941906
 20
433.07432771950675
 10
150.0
 20
433.12
 10
149.77038994058094
 20
433.07432771950675
 10
149.57573593128808
 20
432.9442640687119
 10
149.44567228049323
 20
432.749610059419
 10
149.4
 20
432.52
 10
149.44567228049323
 20
432.29038994058095
 10
149.57573593128808
 20
432.09573593128806
 10
149.77038994058094
 20
431.9656722804932
 10
150.0
 20
431.91999999999996
 10
150.22961005941906
 20
431.9656722804932
 10
150.42426406871192
 20
432.09573593128806
 10
150.55432771950677
 20
432.29038994058095
 97
0
 75
0
 76
1
 98
0
  0
CIRCLE
  5
173
330
17
100
AcDbEntity
  8
S-REBAR-MAIN
100
AcDbCircle
 10
156.0
 20
432.52
 30
0.0
 40
0.6
  0
HATCH
  5
174
330
17
100
AcDbEntity
  8
S-REBAR-MAIN
 62
1
100
AcDbHatch
 10
0.0
 20
0.0
 30
0.0
210
0.0
220
0.0
230
1.0
  2
SOLID
 70
1
 71
0
 91
1
 92
3
 72
0
 73
1
 93
16
 10
156.6
 20
432.52
 10
156.55432771950677
 20
432.749610059419
 10
156.42426406871192
 20
432.9442640687119
 10
156.22961005941906
 20
433.07432771950675
 10
156.0
 20
433.12
 10
155.77038994058094
 20
433.07432771950675
 10
155.57573593128808
 20
432.9442640687119
 10
155.44567228049323
 20
432.749610059419
 10
155.4
 20
432.52
 10
155.44567228049323
 20
432.29038994058095
 10
155.57573593128808
 20
432.09573593128806
 10
155.77038994058094
 20
431.9656722804932
 10
156.0
 20
431.91999999999996
 10
156.22961005941906
 20
431.9656722804932
 10
156.42426406871192
 20
432.09573593128806
 10
156.55432771950677
 20
432.29038994058095
 97
0
 75
0
 76
1
 98
0
  0
CIRCLE
  5
175
330
17
100
AcDbEntity
  8
S-REBAR-MAIN
100
AcDbCircle
 10
162.0
 20
432.52
 30
0.0
 40
0.6
  0
HATCH
  5
176
330
17
100
AcDbEntity
  8
S-REBAR-MAIN
 62
1
100
AcDbHatch
 10
0.0
 20
0.0
 30
0.0
210
0.0
220
0.0
230
1.0
  2
SOLID
 70
1
 71
0
 91
1
 92
3
 72
0
 73
1
 93
16
 10
162.6
 20
432.52
 10
162.55432771950677
 20
432.749610059419
 10
162.42426406871192
 20
432.9442640687119
 10
162.22961005941906
 20
433.07432771950675
 10
162.0
 20
433.12
 10
161.77038994058094
 20
433.07432771950675
 10
161.57573593128808
 20
432.9442640687119
 10
161.44567228049323
 20
432.749610059419
 10
161.4
 20
432.52
 10
161.44567228049323
 20
432.29038994058095
 10
161.57573593128808
 20
432.09573593128806
 10
161.77038994058094
 20
431.9656722804932
 10
162.0
 20
431.91999999999996
 10
162.22961005941906
 20
431.9656722804932
 10
162.42426406871192
 20
432.09573593128806
 10
162.55432771950677
 20
432.29038994058095
 97
0
 75
0
 76
1
 98
0
  0
CIRCLE
  5
177
330
17
100
AcDbEntity
  8
S-REBAR-MAIN
100
AcDbCircle
 10
168.0
 20
432.52
 30
0.0
 40
0.6
  0
HATCH
  5
178
330
17
100
AcDbEntity
  8
S-REBAR-MAIN
 62
1
100
AcDbHatch
 10
0.0
 20
0.0
 30
0.0
210
0.0
220
0.0
230
1.0
  2
SOLID
 70
1
 71
0
 91
1
 92
3
 72
0
 73
1
 93
16
 10
168.6
 20
432.52
 10
168.55432771950677
 20
432.749610059419
 10
168.42426406871192
 20
432.9442640687119
 10
168.22961005941906
 20
433.07432771950675
 10
168.0
 20
433.12
 10
167.77038994058094
 20
433.07432771950675
 10
167.57573593128808
 20
432.9442640687119
 10
167.44567228049323
 20
432.749610059419
 10
167.4
 20
432.52
 10
167.44567228049323
 20
432.29038994058095
 10
167.57573593128808
 20
432.09573593128806
 10
167.77038994058094
 20
431.9656722804932
 10
168.0
 20
431.91999999999996
 10
168.22961005941906
 20
431.9656722804932
 10
168.42426406871192
 20
432.09573593128806
 10
168.55432771950677
 20
432.29038994058095
 97
0
 75
0
 76
1
 98
0
  0
CIRCLE
  5
179
330
17
100
AcDbEntity
  8
S-REBAR-MAIN
100
AcDbCircle
 10
174.0
 20
432.52
 30
0.0
 40
0.6
  0
HATCH
  5
17A
330
17
100
AcDbEntity
  8
S-REBAR-MAIN
 62
1
100
AcDbHatch
 10
0.0
 20
0.0
 30
0.0
210
0.0
220
0.0
230
1.0
  2
SOLID
 70
1
 71
0
 91
1
 92
3
 72
0
 73
1
 93
16
 10
174.6
 20
432.52
 10
174.55432771950677
 20
432.749610059419
 10
174.42426406871192
 20
432.9442640687119
 10
174.22961005941906
 20
433.07432771950675
 10
174.0
 20
433.12
 10
173.77038994058094
 20
433.07432771950675
 10
173.57573593128808
 20
432.9442640687119
 10
173.44567228049323
 20
432.749610059419
 10
173.4
 20
432.52
 10
173.44567228049323
 20
432.29038994058095
 10
173.57573593128808
 20
432.09573593128806
 10
173.77038994058094
 20
431.9656722804932
 10
174.0
 20
431.91999999999996
 10
174.22961005941906
 20
431.9656722804932
 10
174.42426406871192
 20
432.09573593128806
 10
174.55432771950677
 20
432.29038994058095
 97
0
 75
0
 76
1
 98
0
  0
CIRCLE
  5
17B
330
17
100
AcDbEntity
  8
S-REBAR-MAIN
100
AcDbCircle
 10
180.0
 20
432.52
 30
0.0
 40
0.6
  0
HATCH
  5
17C
330
17
100
AcDbEntity
  8
S-REBAR-MAIN
 62
1
100
AcDbHatch
 10
0.0
 20
0.0
 30
0.0
210
0.0
220
0.0
230
1.0
  2
SOLID
 70
1
 71
0
 91
1
 92
3
 72
0
 73
1
 93
16
 10
180.6
 20
432.52
 10
180.55432771950677
 20
432.749610059419
 10
180.42426406871192
 20
432.9442640687119
 10
180.22961005941906
 20
433.07432771950675
 10
180.0
 20
433.12
 10
179.77038994058094
 20
433.07432771950675
 10
179.57573593128808
 20
432.9442640687119
 10
179.44567228049323
 20
432.749610059419
 10
179.4
 20
432.52
 10
179.44567228049323
 20
432.29038994058095
 10
179.57573593128808
 20
432.09573593128806
 10
179.77038994058094
 20
431.9656722804932
 10
180.0
 20
431.91999999999996
 10
180.22961005941906
 20
431.9656722804932
 10
180.42426406871192
 20
432.09573593128806
 10
180.55432771950677
 20
432.29038994058095
 97
0
 75
0
 76
1
 98
0
  0
CIRCLE
  5
17D
330
17
100
AcDbEntity
  8
S-REBAR-MAIN
100
AcDbCircle
 10
186.0
 20
432.52
 30
0.0
 40
0.6
  0
HATCH
  5
17E
330
17
100
AcDbEntity
  8
S-REBAR-MAIN
 62
1
100
AcDbHatch
 10
0.0
 20
0.0
 30
0.0
210
0.0
220
0.0
230
1.0
  2
SOLID
 70
1
 71
0
 91
1
 92
3
 72
0
 73
1
 93
16
 10
186.6
 20
432.52
 10
186.55432771950677
 20
432.749610059419
 10
186.42426406871192
 20
432.9442640687119
 10
186.22961005941906
 20
433.07432771950675
 10
186.0
 20
433.12
 10
185.77038994058094
 20
433.07432771950675
 10
185.57573593128808
 20
432.9442640687119
 10
185.44567228049323
 20
432.749610059419
 10
185.4
 20
432.52
 10
185.44567228049323
 20
432.29038994058095
 10
185.57573593128808
 20
432.09573593128806
 10
185.77038994058094
 20
431.9656722804932
 10
186.0
 20
431.91999999999996
 10
186.22961005941906
 20
431.9656722804932
 10
186.42426406871192
 20
432.09573593128806
 10
186.55432771950677
 20
432.29038994058095
 97
0
 75
0
 76
1
 98
0
  0
CIRCLE
  5
17F
330
17
100
AcDbEntity
  8
S-REBAR-MAIN
100
AcDbCircle
 10
252.0
 20
432.52
 30
0.0
 40
0.6
  0
HATCH
  5
180
330
17
100
AcDbEntity
  8
S-REBAR-MAIN
 62
1
100
AcDbHatch
 10
0.0
 20
0.0
 30
0.0
210
0.0
220
0.0
230
1.0
  2
SOLID
 70
1
 71
0
 91
1
 92
3
 72
0
 73
1
 93
16
 10
252.6
 20
432.52
 10
252.55432771950677
 20
432.749610059419
 10
252.42426406871192
 20
432.9442640687119
 10
252.22961005941906
 20
433.07432771950675
 10
252.0
 20
433.12
 10
251.77038994058094
 20
433.07432771950675
 10
251.57573593128808
 20
432.9442640687119
 10
251.44567228049323
 20
432.749610059419
 10
251.4
 20
432.52
 10
251.44567228049323
 20
432.29038994058095
 10
251.57573593128808
 20
432.09573593128806
 10
251.77038994058094
 20
431.9656722804932
 10
252.0
 20
431.91999999999996
 10
252.22961005941906
 20
431.9656722804932
 10
252.42426406871192
 20
432.09573593128806
 10
252.55432771950677
 20
432.29038994058095
 97
0
 75
0
 76
1
 98
0
  0
CIRCLE
  5
181
330
17
100
AcDbEntity
  8
S-REBAR-MAIN
100
AcDbCircle
 10
258.0
 20
432.52
 30
0.0
 40
0.6
  0
HATCH
  5
182
330
17
100
AcDbEntity
  8
S-REBAR-MAIN
 62
1
100
AcDbHatch
 10
0.0
 20
0.0
 30
0.0
210
0.0
220
0.0
230
1.0
  2
SOLID
 70
1
 71
0
 91
1
 92
3
 72
0
 73
1
 93
16
 10
258.6
 20
432.52
 10
258.5543277195068
 20
432.749610059419
 10
258.4242640687119
 20
432.9442640687119
 10
258.22961005941903
 20
433.07432771950675
 10
258.0
 20
433.12
 10
257.77038994058097
 20
433.07432771950675
 10
257.5757359312881
 20
432.9442640687119
 10
257.4456722804932
 20
432.749610059419
 10
257.4
 20
432.52
 10
257.4456722804932
 20
432.29038994058095
 10
257.5757359312881
 20
432.09573593128806
 10
257.77038994058097
 20
431.9656722804932
 10
258.0
 20
431.91999999999996
 10
258.22961005941903
 20
431.9656722804932
 10
258.4242640687119
 20
432.09573593128806
 10
258.5543277195068
 20
432.29038994058095
 97
0
 75
0
 76
1
 98
0
  0
CIRCLE
  5
183
330
17
100
AcDbEntity
  8
S-REBAR-MAIN
100
AcDbCircle
 10
264.0
 20
432.52
 30
0.0
 40
0.6
  0
HATCH
  5
184
330
17
100
AcDbEntity
  8
S-REBAR-MAIN
 62
1
100
AcDbHatch
 10
0.0
 20
0.0
 30
0.0
210
0.0
220
0.0
230
1.0
  2
SOLID
 70
1
 71
0
 91
1
 92
3
 72
0
 73
1
 93
16
 10
264.6
 20
432.52
 10
264.5543277195068
 20
432.749610059419
 10
264.4242640687119
 20
432.9442640687119
 10
264.22961005941903
 20
433.07432771950675
 10
264.0
 20
433.12
 10
263.77038994058097
 20
433.07432771950675
 10
263.5757359312881
 20
432.9442640687119
 10
263.4456722804932
 20
432.749610059419
 10
263.4
 20
432.52
 10
263.4456722804932
 20
432.29038994058095
 10
263.5757359312881
 20
432.09573593128806
 10
263.77038994058097
 20
431.9656722804932
 10
264.0
 20
431.91999999999996
 10
264.22961005941903
 20
431.9656722804932
 10
264.4242640687119
 20
432.09573593128806
 10
264.5543277195068
 20
432.29038994058095
 97
0
 75
0
 76
1
 98
0
  0
CIRCLE
  5
185
330
17
100
AcDbEntity
  8
S-REBAR-MAIN
100
AcDbCircle
 10
270.0
 20
432.52
 30
0.0
 40
0.6
  0
HATCH
  5
186
330
17
100
AcDbEntity
  8
S-REBAR-MAIN
 62
1
100
AcDbHatch
 10
0.0
 20
0.0
 30
0.0
210
0.0
220
0.0
230
1.0
  2
SOLID
 70
1
 71
0
 91
1
 92
3
 72
0
 73
1
 93
16
 10
270.6
 20
432.52
 10
270.5543277195068
 20
432.749610059419
 10
270.4242640687119
 20
432.9442640687119
 10
270.22961005941903
 20
433.07432771950675
 10
270.0
 20
433.12
 10
269.77038994058097
 20
433.07432771950675
 10
269.5757359312881
 20
432.9442640687119
 10
269.4456722804932
 20
432.749610059419
 10
269.4
 20
432.52
 10
269.4456722804932
 20
432.29038994058095
 10
269.5757359312881
 20
432.09573593128806
 10
269.77038994058097
 20
431.9656722804932
 10
270.0
 20
431.91999999999996
 10
270.22961005941903
 20
431.9656722804932
 10
270.4242640687119
 20
432.09573593128806
 10
270.5543277195068
 20
432.29038994058095
 97
0
 75
0
 76
1
 98
0
  0
CIRCLE
  5
187
330
17
100
AcDbEntity
  8
S-REBAR-MAIN
100
AcDbCircle
 10
276.0
 20
432.52
 30
0.0
 40
0.6
  0
HATCH
  5
188
330
17
100
AcDbEntity
  8
S-REBAR-MAIN
 62
1
100
AcDbHatch
 10
0.0
 20
0.0
 30
0.0
210
0.0
220
0.0
230
1.0
  2
SOLID
 70
1
 71
0
 91
1
 92
3
 72
0
 73
1
 93
16
 10
276.6
 20
432.52
 10
276.5543277195068
 20
432.749610059419
 10
276.4242640687119
 20
432.9442640687119
 10
276.22961005941903
 20
433.07432771950675
 10
276.0
 20
433.12
 10
275.77038994058097
 20
433.07432771950675
 10
275.5757359312881
 20
432.9442640687119
 10
275.4456722804932
 20
432.749610059419
 10
275.4
 20
432.52
 10
275.4456722804932
 20
432.29038994058095
 10
275.5757359312881
 20
432.09573593128806
 10
275.77038994058097
 20
431.9656722804932
 10
276.0
 20
431.91999999999996
 10
276.22961005941903
 20
431.9656722804932
 10
276.4242640687119
 20
432.09573593128806
 10
276.5543277195068
 20
432.29038994058095
 97
0
 75
0
 76
1
 98
0
  0
CIRCLE
  5
189
330
17
100
AcDbEntity
  8
S-REBAR-MAIN
100
AcDbCircle
 10
282.0
 20
432.52
 30
0.0
 40
0.6
  0
HATCH
  5
18A
330
17
100
AcDbEntity
  8
S-REBAR-MAIN
 62
1
100
AcDbHatch
 10
0.0
 20
0.0
 30
0.0
210
0.0
220
0.0
230
1.0
  2
SOLID
 70
1
 71
0
 91
1
 92
3
 72
0
 73
1
 93
16
 10
282.6
 20
432.52
 10
282.5543277195068
 20
432.749610059419
 10
282.4242640687119
 20
432.9442640687119
 10
282.22961005941903
 20
433.07432771950675
 10
282.0
 20
433.12
 10
281.77038994058097
 20
433.07432771950675
 10
281.5757359312881
 20
432.9442640687119
 10
281.4456722804932
 20
432.749610059419
 10
281.4
 20
432.52
 10
281.4456722804932
 20
432.29038994058095
 10
281.5757359312881
 20
432.09573593128806
 10
281.77038994058097
 20
431.9656722804932
 10
282.0
 20
431.91999999999996
 10
282.22961005941903
 20
431.9656722804932
 10
282.4242640687119
 20
432.09573593128806
 10
282.5543277195068
 20
432.29038994058095
 97
0
 75
0
 76
1
 98
0
  0
CIRCLE
  5
18B
330
17
100
AcDbEntity
  8
S-REBAR-MAIN
100
AcDbCircle
 10
288.0
 20
432.52
 30
0.0
 40
0.6
  0
HATCH
  5
18C
330
17
100
AcDbEntity
  8
S-REBAR-MAIN
 62
1
100
AcDbHatch
 10
0.0
 20
0.0
 30
0.0
210
0.0
220
0.0
230
1.0
  2
SOLID
 70
1
 71
0
 91
1
 92
3
 72
0
 73
1
 93
16
 10
288.6
 20
432.52
 10
288.5543277195068
 20
432.749610059419
 10
288.4242640687119
 20
432.9442640687119
 10
288.22961005941903
 20
433.07432771950675
 10
288.0
 20
433.12
 10
287.77038994058097
 20
433.07432771950675
 10
287.5757359312881
 20
432.9442640687119
 10
287.4456722804932
 20
432.749610059419
 10
287.4
 20
432.52
 10
287.4456722804932
 20
432.29038994058095
 10
287.5757359312881
 20
432.09573593128806
 10
287.77038994058097
 20
431.9656722804932
 10
288.0
 20
431.91999999999996
 10
288.22961005941903
 20
431.9656722804932
 10
288.4242640687119
 20
432.09573593128806
 10
288.5543277195068
 20
432.29038994058095
 97
0
 75
0
 76
1
 98
0
  0
CIRCLE
  5
18D
330
17
100
AcDbEntity
  8
S-REBAR-MAIN
100
AcDbCircle
 10
294.0
 20
432.52
 30
0.0
 40
0.6
  0
HATCH
  5
18E
330
17
100
AcDbEntity
  8
S-REBAR-MAIN
 62
1
100
AcDbHatch
 10
0.0
 20
0.0
 30
0.0
210
0.0
220
0.0
230
1.0
  2
SOLID
 70
1
 71
0
 91
1
 92
3
 72
0
 73
1
 93
16
 10
294.6
 20
432.52
 10
294.5543277195068
 20
432.749610059419
 10
294.4242640687119
 20
432.9442640687119
 10
294.22961005941903
 20
433.07432771950675
 10
294.0
 20
433.12
 10
293.77038994058097
 20
433.07432771950675
 10
293.5757359312881
 20
432.9442640687119
 10
293.4456722804932
 20
432.749610059419
 10
293.4
 20
432.52
 10
293.4456722804932
 20
432.29038994058095
 10
293.5757359312881
 20
432.09573593128806
 10
293.77038994058097
 20
431.9656722804932
 10
294.0
 20
431.91999999999996
 10
294.22961005941903
 20
431.9656722804932
 10
294.4242640687119
 20
432.09573593128806
 10
294.5543277195068
 20
432.29038994058095
 97
0
 75
0
 76
1
 98
0
  0
CIRCLE
  5
18F
330
17
100
AcDbEntity
  8
S-REBAR-MAIN
100
AcDbCircle
 10
300.0
 20
432.52
 30
0.0
 40
0.6
  0
HATCH
  5
190
330
17
100
AcDbEntity
  8
S-REBAR-MAIN
 62
1
100
AcDbHatch
 10
0.0
 20
0.0
 30
0.0
210
0.0
220
0.0
230
1.0
  2
SOLID
 70
1
 71
0
 91
1
 92
3
 72
0
 73
1
 93
16
 10
300.6
 20
432.52
 10
300.5543277195068
 20
432.749610059419
 10
300.4242640687119
 20
432.9442640687119
 10
300.22961005941903
 20
433.07432771950675
 10
300.0
 20
433.12
 10
299.77038994058097
 20
433.07432771950675
 10
299.5757359312881
 20
432.9442640687119
 10
299.4456722804932
 20
432.749610059419
 10
299.4
 20
432.52
 10
299.4456722804932
 20
432.29038994058095
 10
299.5757359312881
 20
432.09573593128806
 10
299.77038994058097
 20
431.9656722804932
 10
300.0
 20
431.91999999999996
 10
300.22961005941903
 20
431.9656722804932
 10
300.4242640687119
 20
432.09573593128806
 10
300.5543277195068
 20
432.29038994058095
 97
0
 75
0
 76
1
 98
0
  0
CIRCLE
  5
191
330
17
100
AcDbEntity
  8
S-REBAR-MAIN
100
AcDbCircle
 10
306.0
 20
432.52
 30
0.0
 40
0.6
  0
HATCH
  5
192
330
17
100
AcDbEntity
  8
S-REBAR-MAIN
 62
1
100
AcDbHatch
 10
0.0
 20
0.0
 30
0.0
210
0.0
220
0.0
230
1.0
  2
SOLID
 70
1
 71
0
 91
1
 92
3
 72
0
 73
1
 93
16
 10
306.6
 20
432.52
 10
306.5543277195068
 20
432.749610059419
 10
306.4242640687119
 20
432.9442640687119
 10
306.22961005941903
 20
433.07432771950675
 10
306.0
 20
433.12
 10
305.77038994058097
 20
433.07432771950675
 10
305.5757359312881
 20
432.9442640687119
 10
305.4456722804932
 20
432.749610059419
 10
305.4
 20
432.52
 10
305.4456722804932
 20
432.29038994058095
 10
305.5757359312881
 20
432.09573593128806
 10
305.77038994058097
 20
431.9656722804932
 10
306.0
 20
431.91999999999996
 10
306.22961005941903
 20
431.9656722804932
 10
306.4242640687119
 20
432.09573593128806
 10
306.5543277195068
 20
432.29038994058095
 97
0
 75
0
 76
1
 98
0
  0
CIRCLE
  5
193
330
17
100
AcDbEntity
  8
S-REBAR-MAIN
100
AcDbCircle
 10
312.0
 20
432.52
 30
0.0
 40
0.6
  0
HATCH
  5
194
330
17
100
AcDbEntity
  8
S-REBAR-MAIN
 62
1
100
AcDbHatch
 10
0.0
 20
0.0
 30
0.0
210
0.0
220
0.0
230
1.0
  2
SOLID
 70
1
 71
0
 91
1
 92
3
 72
0
 73
1
 93
16
 10
312.6
 20
432.52
 10
312.5543277195068
 20
432.749610059419
 10
312.4242640687119
 20
432.9442640687119
 10
312.22961005941903
 20
433.07432771950675
 10
312.0
 20
433.12
 10
311.77038994058097
 20
433.07432771950675
 10
311.5757359312881
 20
432.9442640687119
 10
311.4456722804932
 20
432.749610059419
 10
311.4
 20
432.52
 10
311.4456722804932
 20
432.29038994058095
 10
311.5757359312881
 20
432.09573593128806
 10
311.77038994058097
 20
431.9656722804932
 10
312.0
 20
431.91999999999996
 10
312.22961005941903
 20
431.9656722804932
 10
312.4242640687119
 20
432.09573593128806
 10
312.5543277195068
 20
432.29038994058095
 97
0
 75
0
 76
1
 98
0
  0
CIRCLE
  5
195
330
17
100
AcDbEntity
  8
S-REBAR-MAIN
100
AcDbCircle
 10
318.0
 20
432.52
 30
0.0
 40
0.6
  0
HATCH
  5
196
330
17
100
AcDbEntity
  8
S-REBAR-MAIN
 62
1
100
AcDbHatch
 10
0.0
 20
0.0
 30
0.0
210
0.0
220
0.0
230
1.0
  2
SOLID
 70
1
 71
0
 91
1
 92
3
 72
0
 73
1
 93
16
 10
318.6
 20
432.52
 10
318.5543277195068
 20
432.749610059419
 10
318.4242640687119
 20
432.9442640687119
 10
318.22961005941903
 20
433.07432771950675
 10
318.0
 20
433.12
 10
317.77038994058097
 20
433.07432771950675
 10
317.5757359312881
 20
432.9442640687119
 10
317.4456722804932
 20
432.749610059419
 10
317.4
 20
432.52
 10
317.4456722804932
 20
432.29038994058095
 10
317.5757359312881
 20
432.09573593128806
 10
317.77038994058097
 20
431.9656722804932
 10
318.0
 20
431.91999999999996
 10
318.22961005941903
 20
431.9656722804932
 10
318.4242640687119
 20
432.09573593128806
 10
318.5543277195068
 20
432.29038994058095
 97
0
 75
0
 76
1
 98
0
  0
CIRCLE
  5
197
330
17
100
AcDbEntity
  8
S-REBAR-MAIN
100
AcDbCircle
 10
120.0
 20
403.52
 30
0.0
 40
0.6
  0
HATCH
  5
198
330
17
100
AcDbEntity
  8
S-REBAR-MAIN
 62
1
100
AcDbHatch
 10
0.0
 20
0.0
 30
0.0
210
0.0
220
0.0
230
1.0
  2
SOLID
 70
1
 71
0
 91
1
 92
3
 72
0
 73
1
 93
16
 10
120.6
 20
403.52
 10
120.55432771950677
 20
403.749610059419
 10
120.42426406871193
 20
403.9442640687119
 10
120.22961005941906
 20
404.07432771950675
 10
120.0
 20
404.12
 10
119.77038994058094
 20
404.07432771950675
 10
119.57573593128807
 20
403.9442640687119
 10
119.44567228049323
 20
403.749610059419
 10
119.4
 20
403.52
 10
119.44567228049323
 20
403.29038994058095
 10
119.57573593128807
 20
403.09573593128806
 10
119.77038994058094
 20
402.9656722804932
 10
120.0
 20
402.91999999999996
 10
120.22961005941906
 20
402.9656722804932
 10
120.42426406871193
 20
403.09573593128806
 10
120.55432771950677
 20
403.29038994058095
 97
0
 75
0
 76
1
 98
0
  0
CIRCLE
  5
199
330
17
100
AcDbEntity
  8
S-REBAR-MAIN
100
AcDbCircle
 10
126.0
 20
403.52
 30
0.0
 40
0.6
  0
HATCH
  5
19A
330
17
100
AcDbEntity
  8
S-REBAR-MAIN
 62
1
100
AcDbHatch
 10
0.0
 20
0.0
 30
0.0
210
0.0
220
0.0
230
1.0
  2
SOLID
 70
1
 71
0
 91
1
 92
3
 72
0
 73
1
 93
16
 10
126.6
 20
403.52
 10
126.55432771950677
 20
403.749610059419
 10
126.42426406871193
 20
403.9442640687119
 10
126.22961005941906
 20
404.07432771950675
 10
126.0
 20
404.12
 10
125.77038994058094
 20
404.07432771950675
 10
125.57573593128807
 20
403.9442640687119
 10
125.44567228049323
 20
403.749610059419
 10
125.4
 20
403.52
 10
125.44567228049323
 20
403.29038994058095
 10
125.57573593128807
 20
403.09573593128806
 10
125.77038994058094
 20
402.9656722804932
 10
126.0
 20
402.91999999999996
 10
126.22961005941906
 20
402.9656722804932
 10
126.42426406871193
 20
403.09573593128806
 10
126.55432771950677
 20
403.29038994058095
 97
0
 75
0
 76
1
 98
0
  0
CIRCLE
  5
19B
330
17
100
AcDbEntity
  8
S-REBAR-MAIN
100
AcDbCircle
 10
132.0
 20
403.52
 30
0.0
 40
0.6
  0
HATCH
  5
19C
330
17
100
AcDbEntity
  8
S-REBAR-MAIN
 62
1
100
AcDbHatch
 10
0.0
 20
0.0
 30
0.0
210
0.0
220
0.0
230
1.0
  2
SOLID
 70
1
 71
0
 91
1
 92
3
 72
0
 73
1
 93
16
 10
132.6
 20
403.52
 10
132.55432771950677
 20
403.749610059419
 10
132.42426406871192
 20
403.9442640687119
 10
132.22961005941906
 20
404.07432771950675
 10
132.0
 20
404.12
 10
131.77038994058094
 20
404.07432771950675
 10
131.57573593128808
 20
403.9442640687119
 10
131.44567228049323
 20
403.749610059419
 10
131.4
 20
403.52
 10
131.44567228049323
 20
403.29038994058095
 10
131.57573593128808
 20
403.09573593128806
 10
131.77038994058094
 20
402.9656722804932
 10
132.0
 20
402.91999999999996
 10
132.22961005941906
 20
402.9656722804932
 10
132.42426406871192
 20
403.09573593128806
 10
132.55432771950677
 20
403.29038994058095
 97
0
 75
0
 76
1
 98
0
  0
CIRCLE
  5
19D
330
17
100
AcDbEntity
  8
S-REBAR-MAIN
100
AcDbCircle
 10
138.0
 20
403.52
 30
0.0
 40
0.6
  0
HATCH
  5
19E
330
17
100
AcDbEntity
  8
S-REBAR-MAIN
 62
1
100
AcDbHatch
 10
0.0
 20
0.0
 30
0.0
210
0.0
220
0.0
230
1.0
  2
SOLID
 70
1
 71
0
 91
1
 92
3
 72
0
 73
1
 93
16
 10
138.6
 20
403.52
 10
138.55432771950677
 20
403.749610059419
 10
138.42426406871192
 20
403.9442640687119
 10
138.22961005941906
 20
404.07432771950675
 10
138.0
 20
404.12
 10
137.77038994058094
 20
404.07432771950675
 10
137.57573593128808
 20
403.9442640687119
 10
137.44567228049323
 20
403.749610059419
 10
137.4
 20
403.52
 10
137.44567228049323
 20
403.29038994058095
 10
137.57573593128808
 20
403.09573593128806
 10
137.77038994058094
 20
402.9656722804932
 10
138.0
 20
402.91999999999996
 10
138.22961005941906
 20
402.9656722804932
 10
138.42426406871192
 20
403.09573593128806
 10
138.55432771950677
 20
403.29038994058095
 97
0
 75
0
 76
1
 98
0
  0
CIRCLE
  5
19F
330
17
100
AcDbEntity
  8
S-REBAR-MAIN
100
AcDbCircle
 10
144.0
 20
403.52
 30
0.0
 40
0.6
  0
HATCH
  5
1A0
330
17
100
AcDbEntity
  8
S-REBAR-MAIN
 62
1
100
AcDbHatch
 10
0.0
 20
0.0
 30
0.0
210
0.0
220
0.0
230
1.0
  2
SOLID
 70
1
 71
0
 91
1
 92
3
 72
0
 73
1
 93
16
 10
144.6
 20
403.52
 10
144.55432771950677
 20
403.749610059419
 10
144.42426406871192
 20
403.9442640687119
 10
144.22961005941906
 20
404.07432771950675
 10
144.0
 20
404.12
 10
143.77038994058094
 20
404.07432771950675
 10
143.57573593128808
 20
403.9442640687119
 10
143.44567228049323
 20
403.749610059419
 10
143.4
 20
403.52
 10
143.44567228049323
 20
403.29038994058095
 10
143.57573593128808
 20
403.09573593128806
 10
143.77038994058094
 20
402.9656722804932
 10
144.0
 20
402.91999999999996
 10
144.22961005941906
 20
402.9656722804932
 10
144.42426406871192
 20
403.09573593128806
 10
144.55432771950677
 20
403.29038994058095
 97
0
 75
0
 76
1
 98
0
  0
CIRCLE
  5
1A1
330
17
100
AcDbEntity
  8
S-REBAR-MAIN
100
AcDbCircle
 10
150.0
 20
403.52
 30
0.0
 40
0.6
  0
HATCH
  5
1A2
330
17
100
AcDbEntity
  8
S-REBAR-MAIN
 62
1
100
AcDbHatch
 10
0.0
 20
0.0
 30
0.0
210
0.0
220
0.0
230
1.0
  2
SOLID
 70
1
 71
0
 91
1
 92
3
 72
0
 73
1
 93
16
 10
150.6
 20
403.52
 10
150.55432771950677
 20
403.749610059419
 10
150.42426406871192
 20
403.9442640687119
 10
150.22961005941906
 20
404.07432771950675
 10
150.0
 20
404.12
 10
149.77038994058094
 20
404.07432771950675
 10
149.57573593128808
 20
403.9442640687119
 10
149.44567228049323
 20
403.749610059419
 10
149.4
 20
403.52
 10
149.44567228049323
 20
403.29038994058095
 10
149.57573593128808
 20
403.09573593128806
 10
149.77038994058094
 20
402.9656722804932
 10
150.0
 20
402.91999999999996
 10
150.22961005941906
 20
402.9656722804932
 10
150.42426406871192
 20
403.09573593128806
 10
150.55432771950677
 20
403.29038994058095
 97
0
 75
0
 76
1
 98
0
  0
CIRCLE
  5
1A3
330
17
100
AcDbEntity
  8
S-REBAR-MAIN
100
AcDbCircle
 10
156.0
 20
403.52
 30
0.0
 40
0.6
  0
HATCH
  5
1A4
330
17
100
AcDbEntity
  8
S-REBAR-MAIN
 62
1
100
AcDbHatch
 10
0.0
 20
0.0
 30
0.0
210
0.0
220
0.0
230
1.0
  2
SOLID
 70
1
 71
0
 91
1
 92
3
 72
0
 73
1
 93
16
 10
156.6
 20
403.52
 10
156.55432771950677
 20
403.749610059419
 10
156.42426406871192
 20
403.9442640687119
 10
156.22961005941906
 20
404.07432771950675
 10
156.0
 20
404.12
 10
155.77038994058094
 20
404.07432771950675
 10
155.57573593128808
 20
403.9442640687119
 10
155.44567228049323
 20
403.749610059419
 10
155.4
 20
403.52
 10
155.44567228049323
 20
403.29038994058095
 10
155.57573593128808
 20
403.09573593128806
 10
155.77038994058094
 20
402.9656722804932
 10
156.0
 20
402.91999999999996
 10
156.22961005941906
 20
402.9656722804932
 10
156.42426406871192
 20
403.09573593128806
 10
156.55432771950677
 20
403.29038994058095
 97
0
 75
0
 76
1
 98
0
  0
CIRCLE
  5
1A5
330
17
100
AcDbEntity
  8
S-REBAR-MAIN
100
AcDbCircle
 10
162.0
 20
403.52
 30
0.0
 40
0.6
  0
HATCH
  5
1A6
330
17
100
AcDbEntity
  8
S-REBAR-MAIN
 62
1
100
AcDbHatch
 10
0.0
 20
0.0
 30
0.0
210
0.0
220
0.0
230
1.0
  2
SOLID
 70
1
 71
0
 91
1
 92
3
 72
0
 73
1
 93
16
 10
162.6
 20
403.52
 10
162.55432771950677
 20
403.749610059419
 10
162.42426406871192
 20
403.9442640687119
 10
162.22961005941906
 20
404.07432771950675
 10
162.0
 20
404.12
 10
161.77038994058094
 20
404.07432771950675
 10
161.57573593128808
 20
403.9442640687119
 10
161.44567228049323
 20
403.749610059419
 10
161.4
 20
403.52
 10
161.44567228049323
 20
403.29038994058095
 10
161.57573593128808
 20
403.09573593128806
 10
161.77038994058094
 20
402.9656722804932
 10
162.0
 20
402.91999999999996
 10
162.22961005941906
 20
402.9656722804932
 10
162.42426406871192
 20
403.09573593128806
 10
162.55432771950677
 20
403.29038994058095
 97
0
 75
0
 76
1
 98
0
  0
CIRCLE
  5
1A7
330
17
100
AcDbEntity
  8
S-REBAR-MAIN
100
AcDbCircle
 10
168.0
 20
403.52
 30
0.0
 40
0.6
  0
HATCH
  5
1A8
330
17
100
AcDbEntity
  8
S-REBAR-MAIN
 62
1
100
AcDbHatch
 10
0.0
 20
0.0
 30
0.0
210
0.0
220
0.0
230
1.0
  2
SOLID
 70
1
 71
0
 91
1
 92
3
 72
0
 73
1
 93
16
 10
168.6
 20
403.52
 10
168.55432771950677
 20
403.749610059419
 10
168.42426406871192
 20
403.9442640687119
 10
168.22961005941906
 20
404.07432771950675
 10
168.0
 20
404.12
 10
167.77038994058094
 20
404.07432771950675
 10
167.57573593128808
 20
403.9442640687119
 10
167.44567228049323
 20
403.749610059419
 10
167.4
 20
403.52
 10
167.44567228049323
 20
403.29038994058095
 10
167.57573593128808
 20
403.09573593128806
 10
167.77038994058094
 20
402.9656722804932
 10
168.0
 20
402.91999999999996
 10
168.22961005941906
 20
402.9656722804932
 10
168.42426406871192
 20
403.09573593128806
 10
168.55432771950677
 20
403.29038994058095
 97
0
 75
0
 76
1
 98
0
  0
CIRCLE
  5
1A9
330
17
100
AcDbEntity
  8
S-REBAR-MAIN
100
AcDbCircle
 10
174.0
 20
403.52
 30
0.0
 40
0.6
  0
HATCH
  5
1AA
330
17
100
AcDbEntity
  8
S-REBAR-MAIN
 62
1
100
AcDbHatch
 10
0.0
 20
0.0
 30
0.0
210
0.0
220
0.0
230
1.0
  2
SOLID
 70
1
 71
0
 91
1
 92
3
 72
0
 73
1
 93
16
 10
174.6
 20
403.52
 10
174.55432771950677
 20
403.749610059419
 10
174.42426406871192
 20
403.9442640687119
 10
174.22961005941906
 20
404.07432771950675
 10
174.0
 20
404.12
 10
173.77038994058094
 20
404.07432771950675
 10
173.57573593128808
 20
403.9442640687119
 10
173.44567228049323
 20
403.749610059419
 10
173.4
 20
403.52
 10
173.44567228049323
 20
403.29038994058095
 10
173.57573593128808
 20
403.09573593128806
 10
173.77038994058094
 20
402.9656722804932
 10
174.0
 20
402.91999999999996
 10
174.22961005941906
 20
402.9656722804932
 10
174.42426406871192
 20
403.09573593128806
 10
174.55432771950677
 20
403.29038994058095
 97
0
 75
0
 76
1
 98
0
  0
CIRCLE
  5
1AB
330
17
100
AcDbEntity
  8
S-REBAR-MAIN
100
AcDbCircle
 10
180.0
 20
403.52
 30
0.0
 40
0.6
  0
HATCH
  5
1AC
330
17
100
AcDbEntity
  8
S-REBAR-MAIN
 62
1
100
AcDbHatch
 10
0.0
 20
0.0
 30
0.0
210
0.0
220
0.0
230
1.0
  2
SOLID
 70
1
 71
0
 91
1
 92
3
 72
0
 73
1
 93
16
 10
180.6
 20
403.52
 10
180.55432771950677
 20
403.749610059419
 10
180.42426406871192
 20
403.9442640687119
 10
180.22961005941906
 20
404.07432771950675
 10
180.0
 20
404.12
 10
179.77038994058094
 20
404.07432771950675
 10
179.57573593128808
 20
403.9442640687119
 10
179.44567228049323
 20
403.749610059419
 10
179.4
 20
403.52
 10
179.44567228049323
 20
403.29038994058095
 10
179.57573593128808
 20
403.09573593128806
 10
179.77038994058094
 20
402.9656722804932
 10
180.0
 20
402.91999999999996
 10
180.22961005941906
 20
402.9656722804932
 10
180.42426406871192
 20
403.09573593128806
 10
180.55432771950677
 20
403.29038994058095
 97
0
 75
0
 76
1
 98
0
  0
CIRCLE
  5
1AD
330
17
100
AcDbEntity
  8
S-REBAR-MAIN
100
AcDbCircle
 10
186.0
 20
403.52
 30
0.0
 40
0.6
  0
HATCH
  5
1AE
330
17
100
AcDbEntity
  8
S-REBAR-MAIN
 62
1
100
AcDbHatch
 10
0.0
 20
0.0
 30
0.0
210
0.0
220
0.0
230
1.0
  2
SOLID
 70
1
 71
0
 91
1
 92
3
 72
0
 73
1
 93
16
 10
186.6
 20
403.52
 10
186.55432771950677
 20
403.749610059419
 10
186.42426406871192
 20
403.9442640687119
 10
186.22961005941906
 20
404.07432771950675
 10
186.0
 20
404.12
 10
185.77038994058094
 20
404.07432771950675
 10
185.57573593128808
 20
403.9442640687119
 10
185.44567228049323
 20
403.749610059419
 10
185.4
 20
403.52
 10
185.44567228049323
 20
403.29038994058095
 10
185.57573593128808
 20
403.09573593128806
 10
185.77038994058094
 20
402.9656722804932
 10
186.0
 20
402.91999999999996
 10
186.22961005941906
 20
402.9656722804932
 10
186.42426406871192
 20
403.09573593128806
 10
186.55432771950677
 20
403.29038994058095
 97
0
 75
0
 76
1
 98
0
  0
CIRCLE
  5
1AF
330
17
100
AcDbEntity
  8
S-REBAR-MAIN
100
AcDbCircle
 10
252.0
 20
403.52
 30
0.0
 40
0.6
  0
HATCH
  5
1B0
330
17
100
AcDbEntity
  8
S-REBAR-MAIN
 62
1
100
AcDbHatch
 10
0.0
 20
0.0
 30
0.0
210
0.0
220
0.0
230
1.0
  2
SOLID
 70
1
 71
0
 91
1
 92
3
 72
0
 73
1
 93
16
 10
252.6
 20
403.52
 10
252.55432771950677
 20
403.749610059419
 10
252.42426406871192
 20
403.9442640687119
 10
252.22961005941906
 20
404.07432771950675
 10
252.0
 20
404.12
 10
251.77038994058094
 20
404.07432771950675
 10
251.57573593128808
 20
403.9442640687119
 10
251.44567228049323
 20
403.749610059419
 10
251.4
 20
403.52
 10
251.44567228049323
 20
403.29038994058095
 10
251.57573593128808
 20
403.09573593128806
 10
251.77038994058094
 20
402.9656722804932
 10
252.0
 20
402.91999999999996
 10
252.22961005941906
 20
402.9656722804932
 10
252.42426406871192
 20
403.09573593128806
 10
252.55432771950677
 20
403.29038994058095
 97
0
 75
0
 76
1
 98
0
  0
CIRCLE
  5
1B1
330
17
100
AcDbEntity
  8
S-REBAR-MAIN
100
AcDbCircle
 10
258.0
 20
403.52
 30
0.0
 40
0.6
  0
HATCH
  5
1B2
330
17
100
AcDbEntity
  8
S-REBAR-MAIN
 62
1
100
AcDbHatch
 10
0.0
 20
0.0
 30
0.0
210
0.0
220
0.0
230
1.0
  2
SOLID
 70
1
 71
0
 91
1
 92
3
 72
0
 73
1
 93
16
 10
258.6
 20
403.52
 10
258.5543277195068
 20
403.749610059419
 10
258.4242640687119
 20
403.9442640687119
 10
258.22961005941903
 20
404.07432771950675
 10
258.0
 20
404.12
 10
257.77038994058097
 20
404.07432771950675
 10
257.5757359312881
 20
403.9442640687119
 10
257.4456722804932
 20
403.749610059419
 10
257.4
 20
403.52
 10
257.4456722804932
 20
403.29038994058095
 10
257.5757359312881
 20
403.09573593128806
 10
257.77038994058097
 20
402.9656722804932
 10
258.0
 20
402.91999999999996
 10
258.22961005941903
 20
402.9656722804932
 10
258.4242640687119
 20
403.09573593128806
 10
258.5543277195068
 20
403.29038994058095
 97
0
 75
0
 76
1
 98
0
  0
CIRCLE
  5
1B3
330
17
100
AcDbEntity
  8
S-REBAR-MAIN
100
AcDbCircle
 10
264.0
 20
403.52
 30
0.0
 40
0.6
  0
HATCH
  5
1B4
330
17
100
AcDbEntity
  8
S-REBAR-MAIN
 62
1
100
AcDbHatch
 10
0.0
 20
0.0
 30
0.0
210
0.0
220
0.0
230
1.0
  2
SOLID
 70
1
 71
0
 91
1
 92
3
 72
0
 73
1
 93
16
 10
264.6
 20
403.52
 10
264.5543277195068
 20
403.749610059419
 10
264.4242640687119
 20
403.9442640687119
 10
264.22961005941903
 20
404.07432771950675
 10
264.0
 20
404.12
 10
263.77038994058097
 20
404.07432771950675
 10
263.5757359312881
 20
403.9442640687119
 10
263.4456722804932
 20
403.749610059419
 10
263.4
 20
403.52
 10
263.4456722804932
 20
403.29038994058095
 10
263.5757359312881
 20
403.09573593128806
 10
263.77038994058097
 20
402.9656722804932
 10
264.0
 20
402.91999999999996
 10
264.22961005941903
 20
402.9656722804932
 10
264.4242640687119
 20
403.09573593128806
 10
264.5543277195068
 20
403.29038994058095
 97
0
 75
0
 76
1
 98
0
  0
CIRCLE
  5
1B5
330
17
100
AcDbEntity
  8
S-REBAR-MAIN
100
AcDbCircle
 10
270.0
 20
403.52
 30
0.0
 40
0.6
  0
HATCH
  5
1B6
330
17
100
AcDbEntity
  8
S-REBAR-MAIN
 62
1
100
AcDbHatch
 10
0.0
 20
0.0
 30
0.0
210
0.0
220
0.0
230
1.0
  2
SOLID
 70
1
 71
0
 91
1
 92
3
 72
0
 73
1
 93
16
 10
270.6
 20
403.52
 10
270.5543277195068
 20
403.749610059419
 10
270.4242640687119
 20
403.9442640687119
 10
270.22961005941903
 20
404.07432771950675
 10
270.0
 20
404.12
 10
269.77038994058097
 20
404.07432771950675
 10
269.5757359312881
 20
403.9442640687119
 10
269.4456722804932
 20
403.749610059419
 10
269.4
 20
403.52
 10
269.4456722804932
 20
403.29038994058095
 10
269.5757359312881
 20
403.09573593128806
 10
269.77038994058097
 20
402.9656722804932
 10
270.0
 20
402.91999999999996
 10
270.22961005941903
 20
402.9656722804932
 10
270.4242640687119
 20
403.09573593128806
 10
270.5543277195068
 20
403.29038994058095
 97
0
 75
0
 76
1
 98
0
  0
CIRCLE
  5
1B7
330
17
100
AcDbEntity
  8
S-REBAR-MAIN
100
AcDbCircle
 10
276.0
 20
403.52
 30
0.0
 40
0.6
  0
HATCH
  5
1B8
330
17
100
AcDbEntity
  8
S-REBAR-MAIN
 62
1
100
AcDbHatch
 10
0.0
 20
0.0
 30
0.0
210
0.0
220
0.0
230
1.0
  2
SOLID
 70
1
 71
0
 91
1
 92
3
 72
0
 73
1
 93
16
 10
276.6
 20
403.52
 10
276.5543277195068
 20
403.749610059419
 10
276.4242640687119
 20
403.9442640687119
 10
276.22961005941903
 20
404.07432771950675
 10
276.0
 20
404.12
 10
275.77038994058097
 20
404.07432771950675
 10
275.5757359312881
 20
403.9442640687119
 10
275.4456722804932
 20
403.749610059419
 10
275.4
 20
403.52
 10
275.4456722804932
 20
403.29038994058095
 10
275.5757359312881
 20
403.09573593128806
 10
275.77038994058097
 20
402.9656722804932
 10
276.0
 20
402.91999999999996
 10
276.22961005941903
 20
402.9656722804932
 10
276.4242640687119
 20
403.09573593128806
 10
276.5543277195068
 20
403.29038994058095
 97
0
 75
0
 76
1
 98
0
  0
CIRCLE
  5
1B9
330
17
100
AcDbEntity
  8
S-REBAR-MAIN
100
AcDbCircle
 10
282.0
 20
403.52
 30
0.0
 40
0.6
  0
HATCH
  5
1BA
330
17
100
AcDbEntity
  8
S-REBAR-MAIN
 62
1
100
AcDbHatch
 10
0.0
 20
0.0
 30
0.0
210
0.0
220
0.0
230
1.0
  2
SOLID
 70
1
 71
0
 91
1
 92
3
 72
0
 73
1
 93
16
 10
282.6
 20
403.52
 10
282.5543277195068
 20
403.749610059419
 10
282.4242640687119
 20
403.9442640687119
 10
282.22961005941903
 20
404.07432771950675
 10
282.0
 20
404.12
 10
281.77038994058097
 20
404.07432771950675
 10
281.5757359312881
 20
403.9442640687119
 10
281.4456722804932
 20
403.749610059419
 10
281.4
 20
403.52
 10
281.4456722804932
 20
403.29038994058095
 10
281.5757359312881
 20
403.09573593128806
 10
281.77038994058097
 20
402.9656722804932
 10
282.0
 20
402.91999999999996
 10
282.22961005941903
 20
402.9656722804932
 10
282.4242640687119
 20
403.09573593128806
 10
282.5543277195068
 20
403.29038994058095
 97
0
 75
0
 76
1
 98
0
  0
CIRCLE
  5
1BB
330
17
100
AcDbEntity
  8
S-REBAR-MAIN
100
AcDbCircle
 10
288.0
 20
403.52
 30
0.0
 40
0.6
  0
HATCH
  5
1BC
330
17
100
AcDbEntity
  8
S-REBAR-MAIN
 62
1
100
AcDbHatch
 10
0.0
 20
0.0
 30
0.0
210
0.0
220
0.0
230
1.0
  2
SOLID
 70
1
 71
0
 91
1
 92
3
 72
0
 73
1
 93
16
 10
288.6
 20
403.52
 10
288.5543277195068
 20
403.749610059419
 10
288.4242640687119
 20
403.9442640687119
 10
288.22961005941903
 20
404.07432771950675
 10
288.0
 20
404.12
 10
287.77038994058097
 20
404.07432771950675
 10
287.5757359312881
 20
403.9442640687119
 10
287.4456722804932
 20
403.749610059419
 10
287.4
 20
403.52
 10
287.4456722804932
 20
403.29038994058095
 10
287.5757359312881
 20
403.09573593128806
 10
287.77038994058097
 20
402.9656722804932
 10
288.0
 20
402.91999999999996
 10
288.22961005941903
 20
402.9656722804932
 10
288.4242640687119
 20
403.09573593128806
 10
288.5543277195068
 20
403.29038994058095
 97
0
 75
0
 76
1
 98
0
  0
CIRCLE
  5
1BD
330
17
100
AcDbEntity
  8
S-REBAR-MAIN
100
AcDbCircle
 10
294.0
 20
403.52
 30
0.0
 40
0.6
  0
HATCH
  5
1BE
330
17
100
AcDbEntity
  8
S-REBAR-MAIN
 62
1
100
AcDbHatch
 10
0.0
 20
0.0
 30
0.0
210
0.0
220
0.0
230
1.0
  2
SOLID
 70
1
 71
0
 91
1
 92
3
 72
0
 73
1
 93
16
 10
294.6
 20
403.52
 10
294.5543277195068
 20
403.749610059419
 10
294.4242640687119
 20
403.9442640687119
 10
294.22961005941903
 20
404.07432771950675
 10
294.0
 20
404.12
 10
293.77038994058097
 20
404.07432771950675
 10
293.5757359312881
 20
403.9442640687119
 10
293.4456722804932
 20
403.749610059419
 10
293.4
 20
403.52
 10
293.4456722804932
 20
403.29038994058095
 10
293.5757359312881
 20
403.09573593128806
 10
293.77038994058097
 20
402.9656722804932
 10
294.0
 20
402.91999999999996
 10
294.22961005941903
 20
402.9656722804932
 10
294.4242640687119
 20
403.09573593128806
 10
294.5543277195068
 20
403.29038994058095
 97
0
 75
0
 76
1
 98
0
  0
CIRCLE
  5
1BF
330
17
100
AcDbEntity
  8
S-REBAR-MAIN
100
AcDbCircle
 10
300.0
 20
403.52
 30
0.0
 40
0.6
  0
HATCH
  5
1C0
330
17
100
AcDbEntity
  8
S-REBAR-MAIN
 62
1
100
AcDbHatch
 10
0.0
 20
0.0
 30
0.0
210
0.0
220
0.0
230
1.0
  2
SOLID
 70
1
 71
0
 91
1
 92
3
 72
0
 73
1
 93
16
 10
300.6
 20
403.52
 10
300.5543277195068
 20
403.749610059419
 10
300.4242640687119
 20
403.9442640687119
 10
300.22961005941903
 20
404.07432771950675
 10
300.0
 20
404.12
 10
299.77038994058097
 20
404.07432771950675
 10
299.5757359312881
 20
403.9442640687119
 10
299.4456722804932
 20
403.749610059419
 10
299.4
 20
403.52
 10
299.4456722804932
 20
403.29038994058095
 10
299.5757359312881
 20
403.09573593128806
 10
299.77038994058097
 20
402.9656722804932
 10
300.0
 20
402.91999999999996
 10
300.22961005941903
 20
402.9656722804932
 10
300.4242640687119
 20
403.09573593128806
 10
300.5543277195068
 20
403.29038994058095
 97
0
 75
0
 76
1
 98
0
  0
CIRCLE
  5
1C1
330
17
100
AcDbEntity
  8
S-REBAR-MAIN
100
AcDbCircle
 10
306.0
 20
403.52
 30
0.0
 40
0.6
  0
HATCH
  5
1C2
330
17
100
AcDbEntity
  8
S-REBAR-MAIN
 62
1
100
AcDbHatch
 10
0.0
 20
0.0
 30
0.0
210
0.0
220
0.0
230
1.0
  2
SOLID
 70
1
 71
0
 91
1
 92
3
 72
0
 73
1
 93
16
 10
306.6
 20
403.52
 10
306.5543277195068
 20
403.749610059419
 10
306.4242640687119
 20
403.9442640687119
 10
306.22961005941903
 20
404.07432771950675
 10
306.0
 20
404.12
 10
305.77038994058097
 20
404.07432771950675
 10
305.5757359312881
 20
403.9442640687119
 10
305.4456722804932
 20
403.749610059419
 10
305.4
 20
403.52
 10
305.4456722804932
 20
403.29038994058095
 10
305.5757359312881
 20
403.09573593128806
 10
305.77038994058097
 20
402.9656722804932
 10
306.0
 20
402.91999999999996
 10
306.22961005941903
 20
402.9656722804932
 10
306.4242640687119
 20
403.09573593128806
 10
306.5543277195068
 20
403.29038994058095
 97
0
 75
0
 76
1
 98
0
  0
CIRCLE
  5
1C3
330
17
100
AcDbEntity
  8
S-REBAR-MAIN
100
AcDbCircle
 10
312.0
 20
403.52
 30
0.0
 40
0.6
  0
HATCH
  5
1C4
330
17
100
AcDbEntity
  8
S-REBAR-MAIN
 62
1
100
AcDbHatch
 10
0.0
 20
0.0
 30
0.0
210
0.0
220
0.0
230
1.0
  2
SOLID
 70
1
 71
0
 91
1
 92
3
 72
0
 73
1
 93
16
 10
312.6
 20
403.52
 10
312.5543277195068
 20
403.749610059419
 10
312.4242640687119
 20
403.9442640687119
 10
312.22961005941903
 20
404.07432771950675
 10
312.0
 20
404.12
 10
311.77038994058097
 20
404.07432771950675
 10
311.5757359312881
 20
403.9442640687119
 10
311.4456722804932
 20
403.749610059419
 10
311.4
 20
403.52
 10
311.4456722804932
 20
403.29038994058095
 10
311.5757359312881
 20
403.09573593128806
 10
311.77038994058097
 20
402.9656722804932
 10
312.0
 20
402.91999999999996
 10
312.22961005941903
 20
402.9656722804932
 10
312.4242640687119
 20
403.09573593128806
 10
312.5543277195068
 20
403.29038994058095
 97
0
 75
0
 76
1
 98
0
  0
CIRCLE
  5
1C5
330
17
100
AcDbEntity
  8
S-REBAR-MAIN
100
AcDbCircle
 10
318.0
 20
403.52
 30
0.0
 40
0.6
  0
HATCH
  5
1C6
330
17
100
AcDbEntity
  8
S-REBAR-MAIN
 62
1
100
AcDbHatch
 10
0.0
 20
0.0
 30
0.0
210
0.0
220
0.0
230
1.0
  2
SOLID
 70
1
 71
0
 91
1
 92
3
 72
0
 73
1
 93
16
 10
318.6
 20
403.52
 10
318.5543277195068
 20
403.749610059419
 10
318.4242640687119
 20
403.9442640687119
 10
318.22961005941903
 20
404.07432771950675
 10
318.0
 20
404.12
 10
317.77038994058097
 20
404.07432771950675
 10
317.5757359312881
 20
403.9442640687119
 10
317.4456722804932
 20
403.749610059419
 10
317.4
 20
403.52
 10
317.4456722804932
 20
403.29038994058095
 10
317.5757359312881
 20
403.09573593128806
 10
317.77038994058097
 20
402.9656722804932
 10
318.0
 20
402.91999999999996
 10
318.22961005941903
 20
402.9656722804932
 10
318.4242640687119
 20
403.09573593128806
 10
318.5543277195068
 20
403.29038994058095
 97
0
 75
0
 76
1
 98
0
  0
LWPOLYLINE
  5
1C7
330
17
100
AcDbEntity
  8
S-REBAR-STIRRUP
100
AcDbPolyline
 90
4
 70
1
 10
168.0
 20
391.2
 10
172.0
 20
391.2
 10
172.0
 20
432.8
 10
168.0
 20
432.8
  0
LWPOLYLINE
  5
1C8
330
17
100
AcDbEntity
  8
S-REBAR-STIRRUP
100
AcDbPolyline
 90
4
 70
1
 10
174.0
 20
391.2
 10
178.0
 20
391.2
 10
178.0
 20
432.8
 10
174.0
 20
432.8
  0
LWPOLYLINE
  5
1C9
330
17
100
AcDbEntity
  8
S-REBAR-STIRRUP
100
AcDbPolyline
 90
4
 70
1
 10
180.0
 20
391.2
 10
184.0
 20
391.2
 10
184.0
 20
432.8
 10
180.0
 20
432.8
  0
LWPOLYLINE
  5
1CA
330
17
100
AcDbEntity
  8
S-REBAR-STIRRUP
100
AcDbPolyline
 90
4
 70
1
 10
256.0
 20
391.2
 10
260.0
 20
391.2
 10
260.0
 20
432.8
 10
256.0
 20
432.8
  0
LWPOLYLINE
  5
1CB
330
17
100
AcDbEntity
  8
S-REBAR-STIRRUP
100
AcDbPolyline
 90
4
 70
1
 10
262.0
 20
391.2
 10
266.0
 20
391.2
 10
266.0
 20
432.8
 10
262.0
 20
432.8
  0
LWPOLYLINE
  5
1CC
330
17
100
AcDbEntity
  8
S-REBAR-STIRRUP
100
AcDbPolyline
 90
4
 70
1
 10
268.0
 20
391.2
 10
272.0
 20
391.2
 10
272.0
 20
432.8
 10
268.0
 20
432.8
  0
DIMENSION
  5
1CD
330
17
100
AcDbEntity
  8
S-DIM
100
AcDbDimension
280
0
  2
*D3
  3
SC-DIM
 10
344.0
 20
400.0
 30
0.0
 11
342.3
 21
418.0
 31
0.0
 70
32
 71
5
  1
<>
100
AcDbAlignedDimension
 13
324.0
 23
400.0
 33
0.0
 14
324.0
 24
436.0
 34
0.0
 50
90.0
100
AcDbRotatedDimension
1001
ACAD
1000
DSTYLE
1002
{
1070
144
1040
25.0
1002
}
  0
DIMENSION
  5
1DC
330
17
100
AcDbEntity
  8
S-DIM
100
AcDbDimension
280
0
  2
*D4
  3
SC-DIM
 10
92.0
 20
388.0
 30
0.0
 11
90.3
 21
412.0
 31
0.0
 70
32
 71
5
  1
<>
100
AcDbAlignedDimension
 13
116.0
 23
388.0
 33
0.0
 14
116.0
 24
436.0
 34
0.0
 50
90.0
100
AcDbRotatedDimension
1001
ACAD
1000
DSTYLE
1002
{
1070
144
1040
25.0
1002
}
  0
DIMENSION
  5
1EB
330
17
100
AcDbEntity
  8
S-DIM
100
AcDbDimension
280
0
  2
*D5
  3
SC-DIM
 10
192.0
 20
368.0
 30
0.0
 11
220.0
 21
369.7
 31
0.0
 70
32
 71
5
  1
<>
100
AcDbAlignedDimension
 13
192.0
 23
388.0
 33
0.0
 14
248.0
 24
388.0
 34
0.0
 50
0.0
100
AcDbRotatedDimension
1001
ACAD
1000
DSTYLE
1002
{
1070
144
1040
25.0
1002
}
  0
TEXT
  5
1FA
330
17
100
AcDbEntity
  8
S-TEXT
100
AcDbText
 10
116.0
 20
348.0
 30
0.0
 40
1.4
  1
SLAB THICKENED 900 -> 1200 OVER A 600 ANNULUS
  7
OpenSans
 11
116.0
 21
348.0
 31
0.0
100
AcDbText
  0
INSERT
  5
1FB
330
17
100
AcDbEntity
  8
S-CALLOUT
100
AcDbBlockReference
  2
BARMARK
 10
206.0
 20
356.0
 30
0.0
  0
TEXT
  5
1FD
330
17
100
AcDbEntity
  8
S-CALLOUT
100
AcDbText
 10
206.0
 20
356.0
 30
0.0
 40
2.0
  1
S11
  7
OpenSans
 72
1
 11
206.0
 21
356.0
 31
0.0
100
AcDbText
 73
2
  0
LEADER
  5
1FE
330
17
100
AcDbEntity
  8
S-CALLOUT
100
AcDbLeader
  3
SC-DIM
 73
3
 76
2
 10
176.0
 20
412.0
 30
0.0
 10
206.0
 20
356.0
 30
0.0
  0
TEXT
  5
1FF
330
17
100
AcDbEntity
  8
S-TITLE
100
AcDbText
 10
174.0
 20
552.0
 30
0.0
 40
3.5
  1
V2   ESCAPE-SHAFT COLLAR - SECTION
  7
OpenSans
 11
174.0
 21
552.0
 31
0.0
100
AcDbText
  0
LINE
  5
200
330
17
100
AcDbEntity
  8
S-TITLE
100
AcDbLine
 10
174.0
 20
550.2
 30
0.0
 11
267.4966510381782
 21
550.2
 31
0.0
  0
TEXT
  5
201
330
17
100
AcDbEntity
  8
S-TEXT
100
AcDbText
 10
174.0
 20
544.8
 30
0.0
 40
2.0
  1
SCALE 1:25
  7
OpenSans
 11
174.0
 21
544.8
 31
0.0
100
AcDbText
  0
LWPOLYLINE
  5
202
330
17
100
AcDbEntity
  8
S-CONCRETE
100
AcDbPolyline
 90
4
 70
1
 10
350.0
 20
400.0
 10
446.0
 20
400.0
 10
446.0
 20
436.0
 10
350.0
 20
436.0
  0
LWPOLYLINE
  5
203
330
17
100
AcDbEntity
  8
S-CONCRETE
100
AcDbPolyline
 90
4
 70
1
 10
350.0
 20
388.0
 10
374.0
 20
388.0
 10
374.0
 20
436.0
 10
350.0
 20
436.0
  0
HATCH
  5
204
330
17
100
AcDbEntity
  8
S-HATCH
 62
7
100
AcDbHatch
 10
0.0
 20
0.0
 30
0.0
210
0.0
220
0.0
230
1.0
  2
ANSI31
 70
0
 71
0
 91
1
 92
3
 72
0
 73
1
 93
4
 10
350.0
 20
388.0
 10
374.0
 20
388.0
 10
374.0
 20
436.0
 10
350.0
 20
436.0
 97
0
 75
1
 76
1
 52
0.0
 41
1.6
 77
0
 78
1
 53
45.0
 43
0.0
 44
0.0
 45
-3.5921024485
 46
3.5921024485
 79
0
 98
0
  0
HATCH
  5
205
330
17
100
AcDbEntity
  8
S-HATCH
 62
7
100
AcDbHatch
 10
0.0
 20
0.0
 30
0.0
210
0.0
220
0.0
230
1.0
  2
ANSI31
 70
0
 71
0
 91
1
 92
3
 72
0
 73
1
 93
4
 10
374.0
 20
400.0
 10
446.0
 20
400.0
 10
446.0
 20
436.0
 10
374.0
 20
436.0
 97
0
 75
1
 76
1
 52
0.0
 41
1.6
 77
0
 78
1
 53
45.0
 43
0.0
 44
0.0
 45
-3.5921024485
 46
3.5921024485
 79
0
 98
0
  0
CIRCLE
  5
206
330
17
100
AcDbEntity
  8
S-REBAR-SEC
100
AcDbCircle
 10
354.0
 20
432.0
 30
0.0
 40
1.0
  0
HATCH
  5
207
330
17
100
AcDbEntity
  8
S-REBAR-SEC
 62
4
100
AcDbHatch
 10
0.0
 20
0.0
 30
0.0
210
0.0
220
0.0
230
1.0
  2
SOLID
 70
1
 71
0
 91
1
 92
3
 72
0
 73
1
 93
16
 10
355.0
 20
432.0
 10
354.9238795325113
 20
432.38268343236507
 10
354.70710678118655
 20
432.70710678118655
 10
354.38268343236507
 20
432.9238795325113
 10
354.0
 20
433.0
 10
353.61731656763493
 20
432.9238795325113
 10
353.29289321881345
 20
432.70710678118655
 10
353.0761204674887
 20
432.38268343236507
 10
353.0
 20
432.0
 10
353.0761204674887
 20
431.61731656763493
 10
353.29289321881345
 20
431.29289321881345
 10
353.61731656763493
 20
431.0761204674887
 10
354.0
 20
431.0
 10
354.38268343236507
 20
431.0761204674887
 10
354.70710678118655
 20
431.29289321881345
 10
354.9238795325113
 20
431.61731656763493
 97
0
 75
0
 76
1
 98
0
  0
CIRCLE
  5
208
330
17
100
AcDbEntity
  8
S-REBAR-SEC
100
AcDbCircle
 10
354.0
 20
392.0
 30
0.0
 40
1.0
  0
HATCH
  5
209
330
17
100
AcDbEntity
  8
S-REBAR-SEC
 62
4
100
AcDbHatch
 10
0.0
 20
0.0
 30
0.0
210
0.0
220
0.0
230
1.0
  2
SOLID
 70
1
 71
0
 91
1
 92
3
 72
0
 73
1
 93
16
 10
355.0
 20
392.0
 10
354.9238795325113
 20
392.38268343236507
 10
354.70710678118655
 20
392.70710678118655
 10
354.38268343236507
 20
392.9238795325113
 10
354.0
 20
393.0
 10
353.61731656763493
 20
392.9238795325113
 10
353.29289321881345
 20
392.70710678118655
 10
353.0761204674887
 20
392.38268343236507
 10
353.0
 20
392.0
 10
353.0761204674887
 20
391.61731656763493
 10
353.29289321881345
 20
391.29289321881345
 10
353.61731656763493
 20
391.0761204674887
 10
354.0
 20
391.0
 10
354.38268343236507
 20
391.0761204674887
 10
354.70710678118655
 20
391.29289321881345
 10
354.9238795325113
 20
391.61731656763493
 97
0
 75
0
 76
1
 98
0
  0
CIRCLE
  5
20A
330
17
100
AcDbEntity
  8
S-REBAR-SEC
100
AcDbCircle
 10
358.0
 20
432.0
 30
0.0
 40
1.0
  0
HATCH
  5
20B
330
17
100
AcDbEntity
  8
S-REBAR-SEC
 62
4
100
AcDbHatch
 10
0.0
 20
0.0
 30
0.0
210
0.0
220
0.0
230
1.0
  2
SOLID
 70
1
 71
0
 91
1
 92
3
 72
0
 73
1
 93
16
 10
359.0
 20
432.0
 10
358.9238795325113
 20
432.38268343236507
 10
358.70710678118655
 20
432.70710678118655
 10
358.38268343236507
 20
432.9238795325113
 10
358.0
 20
433.0
 10
357.61731656763493
 20
432.9238795325113
 10
357.29289321881345
 20
432.70710678118655
 10
357.0761204674887
 20
432.38268343236507
 10
357.0
 20
432.0
 10
357.0761204674887
 20
431.61731656763493
 10
357.29289321881345
 20
431.29289321881345
 10
357.61731656763493
 20
431.0761204674887
 10
358.0
 20
431.0
 10
358.38268343236507
 20
431.0761204674887
 10
358.70710678118655
 20
431.29289321881345
 10
358.9238795325113
 20
431.61731656763493
 97
0
 75
0
 76
1
 98
0
  0
CIRCLE
  5
20C
330
17
100
AcDbEntity
  8
S-REBAR-SEC
100
AcDbCircle
 10
358.0
 20
392.0
 30
0.0
 40
1.0
  0
HATCH
  5
20D
330
17
100
AcDbEntity
  8
S-REBAR-SEC
 62
4
100
AcDbHatch
 10
0.0
 20
0.0
 30
0.0
210
0.0
220
0.0
230
1.0
  2
SOLID
 70
1
 71
0
 91
1
 92
3
 72
0
 73
1
 93
16
 10
359.0
 20
392.0
 10
358.9238795325113
 20
392.38268343236507
 10
358.70710678118655
 20
392.70710678118655
 10
358.38268343236507
 20
392.9238795325113
 10
358.0
 20
393.0
 10
357.61731656763493
 20
392.9238795325113
 10
357.29289321881345
 20
392.70710678118655
 10
357.0761204674887
 20
392.38268343236507
 10
357.0
 20
392.0
 10
357.0761204674887
 20
391.61731656763493
 10
357.29289321881345
 20
391.29289321881345
 10
357.61731656763493
 20
391.0761204674887
 10
358.0
 20
391.0
 10
358.38268343236507
 20
391.0761204674887
 10
358.70710678118655
 20
391.29289321881345
 10
358.9238795325113
 20
391.61731656763493
 97
0
 75
0
 76
1
 98
0
  0
CIRCLE
  5
20E
330
17
100
AcDbEntity
  8
S-REBAR-SEC
100
AcDbCircle
 10
362.0
 20
432.0
 30
0.0
 40
1.0
  0
HATCH
  5
20F
330
17
100
AcDbEntity
  8
S-REBAR-SEC
 62
4
100
AcDbHatch
 10
0.0
 20
0.0
 30
0.0
210
0.0
220
0.0
230
1.0
  2
SOLID
 70
1
 71
0
 91
1
 92
3
 72
0
 73
1
 93
16
 10
363.0
 20
432.0
 10
362.9238795325113
 20
432.38268343236507
 10
362.70710678118655
 20
432.70710678118655
 10
362.38268343236507
 20
432.9238795325113
 10
362.0
 20
433.0
 10
361.61731656763493
 20
432.9238795325113
 10
361.29289321881345
 20
432.70710678118655
 10
361.0761204674887
 20
432.38268343236507
 10
361.0
 20
432.0
 10
361.0761204674887
 20
431.61731656763493
 10
361.29289321881345
 20
431.29289321881345
 10
361.61731656763493
 20
431.0761204674887
 10
362.0
 20
431.0
 10
362.38268343236507
 20
431.0761204674887
 10
362.70710678118655
 20
431.29289321881345
 10
362.9238795325113
 20
431.61731656763493
 97
0
 75
0
 76
1
 98
0
  0
CIRCLE
  5
210
330
17
100
AcDbEntity
  8
S-REBAR-SEC
100
AcDbCircle
 10
362.0
 20
392.0
 30
0.0
 40
1.0
  0
HATCH
  5
211
330
17
100
AcDbEntity
  8
S-REBAR-SEC
 62
4
100
AcDbHatch
 10
0.0
 20
0.0
 30
0.0
210
0.0
220
0.0
230
1.0
  2
SOLID
 70
1
 71
0
 91
1
 92
3
 72
0
 73
1
 93
16
 10
363.0
 20
392.0
 10
362.9238795325113
 20
392.38268343236507
 10
362.70710678118655
 20
392.70710678118655
 10
362.38268343236507
 20
392.9238795325113
 10
362.0
 20
393.0
 10
361.61731656763493
 20
392.9238795325113
 10
361.29289321881345
 20
392.70710678118655
 10
361.0761204674887
 20
392.38268343236507
 10
361.0
 20
392.0
 10
361.0761204674887
 20
391.61731656763493
 10
361.29289321881345
 20
391.29289321881345
 10
361.61731656763493
 20
391.0761204674887
 10
362.0
 20
391.0
 10
362.38268343236507
 20
391.0761204674887
 10
362.70710678118655
 20
391.29289321881345
 10
362.9238795325113
 20
391.61731656763493
 97
0
 75
0
 76
1
 98
0
  0
CIRCLE
  5
212
330
17
100
AcDbEntity
  8
S-REBAR-SEC
100
AcDbCircle
 10
366.0
 20
432.0
 30
0.0
 40
1.0
  0
HATCH
  5
213
330
17
100
AcDbEntity
  8
S-REBAR-SEC
 62
4
100
AcDbHatch
 10
0.0
 20
0.0
 30
0.0
210
0.0
220
0.0
230
1.0
  2
SOLID
 70
1
 71
0
 91
1
 92
3
 72
0
 73
1
 93
16
 10
367.0
 20
432.0
 10
366.9238795325113
 20
432.38268343236507
 10
366.70710678118655
 20
432.70710678118655
 10
366.38268343236507
 20
432.9238795325113
 10
366.0
 20
433.0
 10
365.61731656763493
 20
432.9238795325113
 10
365.29289321881345
 20
432.70710678118655
 10
365.0761204674887
 20
432.38268343236507
 10
365.0
 20
432.0
 10
365.0761204674887
 20
431.61731656763493
 10
365.29289321881345
 20
431.29289321881345
 10
365.61731656763493
 20
431.0761204674887
 10
366.0
 20
431.0
 10
366.38268343236507
 20
431.0761204674887
 10
366.70710678118655
 20
431.29289321881345
 10
366.9238795325113
 20
431.61731656763493
 97
0
 75
0
 76
1
 98
0
  0
CIRCLE
  5
214
330
17
100
AcDbEntity
  8
S-REBAR-SEC
100
AcDbCircle
 10
366.0
 20
392.0
 30
0.0
 40
1.0
  0
HATCH
  5
215
330
17
100
AcDbEntity
  8
S-REBAR-SEC
 62
4
100
AcDbHatch
 10
0.0
 20
0.0
 30
0.0
210
0.0
220
0.0
230
1.0
  2
SOLID
 70
1
 71
0
 91
1
 92
3
 72
0
 73
1
 93
16
 10
367.0
 20
392.0
 10
366.9238795325113
 20
392.38268343236507
 10
366.70710678118655
 20
392.70710678118655
 10
366.38268343236507
 20
392.9238795325113
 10
366.0
 20
393.0
 10
365.61731656763493
 20
392.9238795325113
 10
365.29289321881345
 20
392.70710678118655
 10
365.0761204674887
 20
392.38268343236507
 10
365.0
 20
392.0
 10
365.0761204674887
 20
391.61731656763493
 10
365.29289321881345
 20
391.29289321881345
 10
365.61731656763493
 20
391.0761204674887
 10
366.0
 20
391.0
 10
366.38268343236507
 20
391.0761204674887
 10
366.70710678118655
 20
391.29289321881345
 10
366.9238795325113
 20
391.61731656763493
 97
0
 75
0
 76
1
 98
0
  0
CIRCLE
  5
216
330
17
100
AcDbEntity
  8
S-REBAR-SEC
100
AcDbCircle
 10
370.0
 20
432.0
 30
0.0
 40
1.0
  0
HATCH
  5
217
330
17
100
AcDbEntity
  8
S-REBAR-SEC
 62
4
100
AcDbHatch
 10
0.0
 20
0.0
 30
0.0
210
0.0
220
0.0
230
1.0
  2
SOLID
 70
1
 71
0
 91
1
 92
3
 72
0
 73
1
 93
16
 10
371.0
 20
432.0
 10
370.9238795325113
 20
432.38268343236507
 10
370.70710678118655
 20
432.70710678118655
 10
370.38268343236507
 20
432.9238795325113
 10
370.0
 20
433.0
 10
369.61731656763493
 20
432.9238795325113
 10
369.29289321881345
 20
432.70710678118655
 10
369.0761204674887
 20
432.38268343236507
 10
369.0
 20
432.0
 10
369.0761204674887
 20
431.61731656763493
 10
369.29289321881345
 20
431.29289321881345
 10
369.61731656763493
 20
431.0761204674887
 10
370.0
 20
431.0
 10
370.38268343236507
 20
431.0761204674887
 10
370.70710678118655
 20
431.29289321881345
 10
370.9238795325113
 20
431.61731656763493
 97
0
 75
0
 76
1
 98
0
  0
CIRCLE
  5
218
330
17
100
AcDbEntity
  8
S-REBAR-SEC
100
AcDbCircle
 10
370.0
 20
392.0
 30
0.0
 40
1.0
  0
HATCH
  5
219
330
17
100
AcDbEntity
  8
S-REBAR-SEC
 62
4
100
AcDbHatch
 10
0.0
 20
0.0
 30
0.0
210
0.0
220
0.0
230
1.0
  2
SOLID
 70
1
 71
0
 91
1
 92
3
 72
0
 73
1
 93
16
 10
371.0
 20
392.0
 10
370.9238795325113
 20
392.38268343236507
 10
370.70710678118655
 20
392.70710678118655
 10
370.38268343236507
 20
392.9238795325113
 10
370.0
 20
393.0
 10
369.61731656763493
 20
392.9238795325113
 10
369.29289321881345
 20
392.70710678118655
 10
369.0761204674887
 20
392.38268343236507
 10
369.0
 20
392.0
 10
369.0761204674887
 20
391.61731656763493
 10
369.29289321881345
 20
391.29289321881345
 10
369.61731656763493
 20
391.0761204674887
 10
370.0
 20
391.0
 10
370.38268343236507
 20
391.0761204674887
 10
370.70710678118655
 20
391.29289321881345
 10
370.9238795325113
 20
391.61731656763493
 97
0
 75
0
 76
1
 98
0
  0
CIRCLE
  5
21A
330
17
100
AcDbEntity
  8
S-REBAR-MAIN
100
AcDbCircle
 10
378.0
 20
432.52
 30
0.0
 40
0.7
  0
HATCH
  5
21B
330
17
100
AcDbEntity
  8
S-REBAR-MAIN
 62
1
100
AcDbHatch
 10
0.0
 20
0.0
 30
0.0
210
0.0
220
0.0
230
1.0
  2
SOLID
 70
1
 71
0
 91
1
 92
3
 72
0
 73
1
 93
16
 10
378.7
 20
432.52
 10
378.6467156727579
 20
432.78787840265556
 10
378.49497474683056
 20
433.01497474683055
 10
378.2678784026556
 20
433.1667156727579
 10
378.0
 20
433.21999999999997
 10
377.7321215973444
 20
433.1667156727579
 10
377.50502525316944
 20
433.01497474683055
 10
377.3532843272421
 20
432.78787840265556
 10
377.3
 20
432.52
 10
377.3532843272421
 20
432.2521215973444
 10
377.50502525316944
 20
432.0250252531694
 10
377.7321215973444
 20
431.87328432724206
 10
378.0
 20
431.82
 10
378.2678784026556
 20
431.87328432724206
 10
378.49497474683056
 20
432.0250252531694
 10
378.6467156727579
 20
432.2521215973444
 97
0
 75
0
 76
1
 98
0
  0
CIRCLE
  5
21C
330
17
100
AcDbEntity
  8
S-REBAR-MAIN
100
AcDbCircle
 10
384.0
 20
432.52
 30
0.0
 40
0.7
  0
HATCH
  5
21D
330
17
100
AcDbEntity
  8
S-REBAR-MAIN
 62
1
100
AcDbHatch
 10
0.0
 20
0.0
 30
0.0
210
0.0
220
0.0
230
1.0
  2
SOLID
 70
1
 71
0
 91
1
 92
3
 72
0
 73
1
 93
16
 10
384.7
 20
432.52
 10
384.6467156727579
 20
432.78787840265556
 10
384.49497474683056
 20
433.01497474683055
 10
384.2678784026556
 20
433.1667156727579
 10
384.0
 20
433.21999999999997
 10
383.7321215973444
 20
433.1667156727579
 10
383.50502525316944
 20
433.01497474683055
 10
383.3532843272421
 20
432.78787840265556
 10
383.3
 20
432.52
 10
383.3532843272421
 20
432.2521215973444
 10
383.50502525316944
 20
432.0250252531694
 10
383.7321215973444
 20
431.87328432724206
 10
384.0
 20
431.82
 10
384.2678784026556
 20
431.87328432724206
 10
384.49497474683056
 20
432.0250252531694
 10
384.6467156727579
 20
432.2521215973444
 97
0
 75
0
 76
1
 98
0
  0
CIRCLE
  5
21E
330
17
100
AcDbEntity
  8
S-REBAR-MAIN
100
AcDbCircle
 10
390.0
 20
432.52
 30
0.0
 40
0.7
  0
HATCH
  5
21F
330
17
100
AcDbEntity
  8
S-REBAR-MAIN
 62
1
100
AcDbHatch
 10
0.0
 20
0.0
 30
0.0
210
0.0
220
0.0
230
1.0
  2
SOLID
 70
1
 71
0
 91
1
 92
3
 72
0
 73
1
 93
16
 10
390.7
 20
432.52
 10
390.6467156727579
 20
432.78787840265556
 10
390.49497474683056
 20
433.01497474683055
 10
390.2678784026556
 20
433.1667156727579
 10
390.0
 20
433.21999999999997
 10
389.7321215973444
 20
433.1667156727579
 10
389.50502525316944
 20
433.01497474683055
 10
389.3532843272421
 20
432.78787840265556
 10
389.3
 20
432.52
 10
389.3532843272421
 20
432.2521215973444
 10
389.50502525316944
 20
432.0250252531694
 10
389.7321215973444
 20
431.87328432724206
 10
390.0
 20
431.82
 10
390.2678784026556
 20
431.87328432724206
 10
390.49497474683056
 20
432.0250252531694
 10
390.6467156727579
 20
432.2521215973444
 97
0
 75
0
 76
1
 98
0
  0
CIRCLE
  5
220
330
17
100
AcDbEntity
  8
S-REBAR-MAIN
100
AcDbCircle
 10
396.0
 20
432.52
 30
0.0
 40
0.7
  0
HATCH
  5
221
330
17
100
AcDbEntity
  8
S-REBAR-MAIN
 62
1
100
AcDbHatch
 10
0.0
 20
0.0
 30
0.0
210
0.0
220
0.0
230
1.0
  2
SOLID
 70
1
 71
0
 91
1
 92
3
 72
0
 73
1
 93
16
 10
396.7
 20
432.52
 10
396.6467156727579
 20
432.78787840265556
 10
396.49497474683056
 20
433.01497474683055
 10
396.2678784026556
 20
433.1667156727579
 10
396.0
 20
433.21999999999997
 10
395.7321215973444
 20
433.1667156727579
 10
395.50502525316944
 20
433.01497474683055
 10
395.3532843272421
 20
432.78787840265556
 10
395.3
 20
432.52
 10
395.3532843272421
 20
432.2521215973444
 10
395.50502525316944
 20
432.0250252531694
 10
395.7321215973444
 20
431.87328432724206
 10
396.0
 20
431.82
 10
396.2678784026556
 20
431.87328432724206
 10
396.49497474683056
 20
432.0250252531694
 10
396.6467156727579
 20
432.2521215973444
 97
0
 75
0
 76
1
 98
0
  0
CIRCLE
  5
222
330
17
100
AcDbEntity
  8
S-REBAR-MAIN
100
AcDbCircle
 10
402.0
 20
432.52
 30
0.0
 40
0.7
  0
HATCH
  5
223
330
17
100
AcDbEntity
  8
S-REBAR-MAIN
 62
1
100
AcDbHatch
 10
0.0
 20
0.0
 30
0.0
210
0.0
220
0.0
230
1.0
  2
SOLID
 70
1
 71
0
 91
1
 92
3
 72
0
 73
1
 93
16
 10
402.7
 20
432.52
 10
402.6467156727579
 20
432.78787840265556
 10
402.49497474683056
 20
433.01497474683055
 10
402.2678784026556
 20
433.1667156727579
 10
402.0
 20
433.21999999999997
 10
401.7321215973444
 20
433.1667156727579
 10
401.50502525316944
 20
433.01497474683055
 10
401.3532843272421
 20
432.78787840265556
 10
401.3
 20
432.52
 10
401.3532843272421
 20
432.2521215973444
 10
401.50502525316944
 20
432.0250252531694
 10
401.7321215973444
 20
431.87328432724206
 10
402.0
 20
431.82
 10
402.2678784026556
 20
431.87328432724206
 10
402.49497474683056
 20
432.0250252531694
 10
402.6467156727579
 20
432.2521215973444
 97
0
 75
0
 76
1
 98
0
  0
CIRCLE
  5
224
330
17
100
AcDbEntity
  8
S-REBAR-MAIN
100
AcDbCircle
 10
408.0
 20
432.52
 30
0.0
 40
0.7
  0
HATCH
  5
225
330
17
100
AcDbEntity
  8
S-REBAR-MAIN
 62
1
100
AcDbHatch
 10
0.0
 20
0.0
 30
0.0
210
0.0
220
0.0
230
1.0
  2
SOLID
 70
1
 71
0
 91
1
 92
3
 72
0
 73
1
 93
16
 10
408.7
 20
432.52
 10
408.6467156727579
 20
432.78787840265556
 10
408.49497474683056
 20
433.01497474683055
 10
408.2678784026556
 20
433.1667156727579
 10
408.0
 20
433.21999999999997
 10
407.7321215973444
 20
433.1667156727579
 10
407.50502525316944
 20
433.01497474683055
 10
407.3532843272421
 20
432.78787840265556
 10
407.3
 20
432.52
 10
407.3532843272421
 20
432.2521215973444
 10
407.50502525316944
 20
432.0250252531694
 10
407.7321215973444
 20
431.87328432724206
 10
408.0
 20
431.82
 10
408.2678784026556
 20
431.87328432724206
 10
408.49497474683056
 20
432.0250252531694
 10
408.6467156727579
 20
432.2521215973444
 97
0
 75
0
 76
1
 98
0
  0
CIRCLE
  5
226
330
17
100
AcDbEntity
  8
S-REBAR-MAIN
100
AcDbCircle
 10
414.0
 20
432.52
 30
0.0
 40
0.7
  0
HATCH
  5
227
330
17
100
AcDbEntity
  8
S-REBAR-MAIN
 62
1
100
AcDbHatch
 10
0.0
 20
0.0
 30
0.0
210
0.0
220
0.0
230
1.0
  2
SOLID
 70
1
 71
0
 91
1
 92
3
 72
0
 73
1
 93
16
 10
414.7
 20
432.52
 10
414.6467156727579
 20
432.78787840265556
 10
414.49497474683056
 20
433.01497474683055
 10
414.2678784026556
 20
433.1667156727579
 10
414.0
 20
433.21999999999997
 10
413.7321215973444
 20
433.1667156727579
 10
413.50502525316944
 20
433.01497474683055
 10
413.3532843272421
 20
432.78787840265556
 10
413.3
 20
432.52
 10
413.3532843272421
 20
432.2521215973444
 10
413.50502525316944
 20
432.0250252531694
 10
413.7321215973444
 20
431.87328432724206
 10
414.0
 20
431.82
 10
414.2678784026556
 20
431.87328432724206
 10
414.49497474683056
 20
432.0250252531694
 10
414.6467156727579
 20
432.2521215973444
 97
0
 75
0
 76
1
 98
0
  0
CIRCLE
  5
228
330
17
100
AcDbEntity
  8
S-REBAR-MAIN
100
AcDbCircle
 10
420.0
 20
432.52
 30
0.0
 40
0.7
  0
HATCH
  5
229
330
17
100
AcDbEntity
  8
S-REBAR-MAIN
 62
1
100
AcDbHatch
 10
0.0
 20
0.0
 30
0.0
210
0.0
220
0.0
230
1.0
  2
SOLID
 70
1
 71
0
 91
1
 92
3
 72
0
 73
1
 93
16
 10
420.7
 20
432.52
 10
420.6467156727579
 20
432.78787840265556
 10
420.49497474683056
 20
433.01497474683055
 10
420.2678784026556
 20
433.1667156727579
 10
420.0
 20
433.21999999999997
 10
419.7321215973444
 20
433.1667156727579
 10
419.50502525316944
 20
433.01497474683055
 10
419.3532843272421
 20
432.78787840265556
 10
419.3
 20
432.52
 10
419.3532843272421
 20
432.2521215973444
 10
419.50502525316944
 20
432.0250252531694
 10
419.7321215973444
 20
431.87328432724206
 10
420.0
 20
431.82
 10
420.2678784026556
 20
431.87328432724206
 10
420.49497474683056
 20
432.0250252531694
 10
420.6467156727579
 20
432.2521215973444
 97
0
 75
0
 76
1
 98
0
  0
CIRCLE
  5
22A
330
17
100
AcDbEntity
  8
S-REBAR-MAIN
100
AcDbCircle
 10
426.0
 20
432.52
 30
0.0
 40
0.7
  0
HATCH
  5
22B
330
17
100
AcDbEntity
  8
S-REBAR-MAIN
 62
1
100
AcDbHatch
 10
0.0
 20
0.0
 30
0.0
210
0.0
220
0.0
230
1.0
  2
SOLID
 70
1
 71
0
 91
1
 92
3
 72
0
 73
1
 93
16
 10
426.7
 20
432.52
 10
426.6467156727579
 20
432.78787840265556
 10
426.49497474683056
 20
433.01497474683055
 10
426.2678784026556
 20
433.1667156727579
 10
426.0
 20
433.21999999999997
 10
425.7321215973444
 20
433.1667156727579
 10
425.50502525316944
 20
433.01497474683055
 10
425.3532843272421
 20
432.78787840265556
 10
425.3
 20
432.52
 10
425.3532843272421
 20
432.2521215973444
 10
425.50502525316944
 20
432.0250252531694
 10
425.7321215973444
 20
431.87328432724206
 10
426.0
 20
431.82
 10
426.2678784026556
 20
431.87328432724206
 10
426.49497474683056
 20
432.0250252531694
 10
426.6467156727579
 20
432.2521215973444
 97
0
 75
0
 76
1
 98
0
  0
CIRCLE
  5
22C
330
17
100
AcDbEntity
  8
S-REBAR-MAIN
100
AcDbCircle
 10
432.0
 20
432.52
 30
0.0
 40
0.7
  0
HATCH
  5
22D
330
17
100
AcDbEntity
  8
S-REBAR-MAIN
 62
1
100
AcDbHatch
 10
0.0
 20
0.0
 30
0.0
210
0.0
220
0.0
230
1.0
  2
SOLID
 70
1
 71
0
 91
1
 92
3
 72
0
 73
1
 93
16
 10
432.7
 20
432.52
 10
432.6467156727579
 20
432.78787840265556
 10
432.49497474683056
 20
433.01497474683055
 10
432.2678784026556
 20
433.1667156727579
 10
432.0
 20
433.21999999999997
 10
431.7321215973444
 20
433.1667156727579
 10
431.50502525316944
 20
433.01497474683055
 10
431.3532843272421
 20
432.78787840265556
 10
431.3
 20
432.52
 10
431.3532843272421
 20
432.2521215973444
 10
431.50502525316944
 20
432.0250252531694
 10
431.7321215973444
 20
431.87328432724206
 10
432.0
 20
431.82
 10
432.2678784026556
 20
431.87328432724206
 10
432.49497474683056
 20
432.0250252531694
 10
432.6467156727579
 20
432.2521215973444
 97
0
 75
0
 76
1
 98
0
  0
CIRCLE
  5
22E
330
17
100
AcDbEntity
  8
S-REBAR-MAIN
100
AcDbCircle
 10
438.0
 20
432.52
 30
0.0
 40
0.7
  0
HATCH
  5
22F
330
17
100
AcDbEntity
  8
S-REBAR-MAIN
 62
1
100
AcDbHatch
 10
0.0
 20
0.0
 30
0.0
210
0.0
220
0.0
230
1.0
  2
SOLID
 70
1
 71
0
 91
1
 92
3
 72
0
 73
1
 93
16
 10
438.7
 20
432.52
 10
438.6467156727579
 20
432.78787840265556
 10
438.49497474683056
 20
433.01497474683055
 10
438.2678784026556
 20
433.1667156727579
 10
438.0
 20
433.21999999999997
 10
437.7321215973444
 20
433.1667156727579
 10
437.50502525316944
 20
433.01497474683055
 10
437.3532843272421
 20
432.78787840265556
 10
437.3
 20
432.52
 10
437.3532843272421
 20
432.2521215973444
 10
437.50502525316944
 20
432.0250252531694
 10
437.7321215973444
 20
431.87328432724206
 10
438.0
 20
431.82
 10
438.2678784026556
 20
431.87328432724206
 10
438.49497474683056
 20
432.0250252531694
 10
438.6467156727579
 20
432.2521215973444
 97
0
 75
0
 76
1
 98
0
  0
CIRCLE
  5
230
330
17
100
AcDbEntity
  8
S-REBAR-MAIN
100
AcDbCircle
 10
444.0
 20
432.52
 30
0.0
 40
0.7
  0
HATCH
  5
231
330
17
100
AcDbEntity
  8
S-REBAR-MAIN
 62
1
100
AcDbHatch
 10
0.0
 20
0.0
 30
0.0
210
0.0
220
0.0
230
1.0
  2
SOLID
 70
1
 71
0
 91
1
 92
3
 72
0
 73
1
 93
16
 10
444.7
 20
432.52
 10
444.6467156727579
 20
432.78787840265556
 10
444.49497474683056
 20
433.01497474683055
 10
444.2678784026556
 20
433.1667156727579
 10
444.0
 20
433.21999999999997
 10
443.7321215973444
 20
433.1667156727579
 10
443.50502525316944
 20
433.01497474683055
 10
443.3532843272421
 20
432.78787840265556
 10
443.3
 20
432.52
 10
443.3532843272421
 20
432.2521215973444
 10
443.50502525316944
 20
432.0250252531694
 10
443.7321215973444
 20
431.87328432724206
 10
444.0
 20
431.82
 10
444.2678784026556
 20
431.87328432724206
 10
444.49497474683056
 20
432.0250252531694
 10
444.6467156727579
 20
432.2521215973444
 97
0
 75
0
 76
1
 98
0
  0
CIRCLE
  5
232
330
17
100
AcDbEntity
  8
S-REBAR-MAIN
100
AcDbCircle
 10
378.0
 20
403.52
 30
0.0
 40
0.7
  0
HATCH
  5
233
330
17
100
AcDbEntity
  8
S-REBAR-MAIN
 62
1
100
AcDbHatch
 10
0.0
 20
0.0
 30
0.0
210
0.0
220
0.0
230
1.0
  2
SOLID
 70
1
 71
0
 91
1
 92
3
 72
0
 73
1
 93
16
 10
378.7
 20
403.52
 10
378.6467156727579
 20
403.78787840265556
 10
378.49497474683056
 20
404.01497474683055
 10
378.2678784026556
 20
404.1667156727579
 10
378.0
 20
404.21999999999997
 10
377.7321215973444
 20
404.1667156727579
 10
377.50502525316944
 20
404.01497474683055
 10
377.3532843272421
 20
403.78787840265556
 10
377.3
 20
403.52
 10
377.3532843272421
 20
403.2521215973444
 10
377.50502525316944
 20
403.0250252531694
 10
377.7321215973444
 20
402.87328432724206
 10
378.0
 20
402.82
 10
378.2678784026556
 20
402.87328432724206
 10
378.49497474683056
 20
403.0250252531694
 10
378.6467156727579
 20
403.2521215973444
 97
0
 75
0
 76
1
 98
0
  0
CIRCLE
  5
234
330
17
100
AcDbEntity
  8
S-REBAR-MAIN
100
AcDbCircle
 10
384.0
 20
403.52
 30
0.0
 40
0.7
  0
HATCH
  5
235
330
17
100
AcDbEntity
  8
S-REBAR-MAIN
 62
1
100
AcDbHatch
 10
0.0
 20
0.0
 30
0.0
210
0.0
220
0.0
230
1.0
  2
SOLID
 70
1
 71
0
 91
1
 92
3
 72
0
 73
1
 93
16
 10
384.7
 20
403.52
 10
384.6467156727579
 20
403.78787840265556
 10
384.49497474683056
 20
404.01497474683055
 10
384.2678784026556
 20
404.1667156727579
 10
384.0
 20
404.21999999999997
 10
383.7321215973444
 20
404.1667156727579
 10
383.50502525316944
 20
404.01497474683055
 10
383.3532843272421
 20
403.78787840265556
 10
383.3
 20
403.52
 10
383.3532843272421
 20
403.2521215973444
 10
383.50502525316944
 20
403.0250252531694
 10
383.7321215973444
 20
402.87328432724206
 10
384.0
 20
402.82
 10
384.2678784026556
 20
402.87328432724206
 10
384.49497474683056
 20
403.0250252531694
 10
384.6467156727579
 20
403.2521215973444
 97
0
 75
0
 76
1
 98
0
  0
CIRCLE
  5
236
330
17
100
AcDbEntity
  8
S-REBAR-MAIN
100
AcDbCircle
 10
390.0
 20
403.52
 30
0.0
 40
0.7
  0
HATCH
  5
237
330
17
100
AcDbEntity
  8
S-REBAR-MAIN
 62
1
100
AcDbHatch
 10
0.0
 20
0.0
 30
0.0
210
0.0
220
0.0
230
1.0
  2
SOLID
 70
1
 71
0
 91
1
 92
3
 72
0
 73
1
 93
16
 10
390.7
 20
403.52
 10
390.6467156727579
 20
403.78787840265556
 10
390.49497474683056
 20
404.01497474683055
 10
390.2678784026556
 20
404.1667156727579
 10
390.0
 20
404.21999999999997
 10
389.7321215973444
 20
404.1667156727579
 10
389.50502525316944
 20
404.01497474683055
 10
389.3532843272421
 20
403.78787840265556
 10
389.3
 20
403.52
 10
389.3532843272421
 20
403.2521215973444
 10
389.50502525316944
 20
403.0250252531694
 10
389.7321215973444
 20
402.87328432724206
 10
390.0
 20
402.82
 10
390.2678784026556
 20
402.87328432724206
 10
390.49497474683056
 20
403.0250252531694
 10
390.6467156727579
 20
403.2521215973444
 97
0
 75
0
 76
1
 98
0
  0
CIRCLE
  5
238
330
17
100
AcDbEntity
  8
S-REBAR-MAIN
100
AcDbCircle
 10
396.0
 20
403.52
 30
0.0
 40
0.7
  0
HATCH
  5
239
330
17
100
AcDbEntity
  8
S-REBAR-MAIN
 62
1
100
AcDbHatch
 10
0.0
 20
0.0
 30
0.0
210
0.0
220
0.0
230
1.0
  2
SOLID
 70
1
 71
0
 91
1
 92
3
 72
0
 73
1
 93
16
 10
396.7
 20
403.52
 10
396.6467156727579
 20
403.78787840265556
 10
396.49497474683056
 20
404.01497474683055
 10
396.2678784026556
 20
404.1667156727579
 10
396.0
 20
404.21999999999997
 10
395.7321215973444
 20
404.1667156727579
 10
395.50502525316944
 20
404.01497474683055
 10
395.3532843272421
 20
403.78787840265556
 10
395.3
 20
403.52
 10
395.3532843272421
 20
403.2521215973444
 10
395.50502525316944
 20
403.0250252531694
 10
395.7321215973444
 20
402.87328432724206
 10
396.0
 20
402.82
 10
396.2678784026556
 20
402.87328432724206
 10
396.49497474683056
 20
403.0250252531694
 10
396.6467156727579
 20
403.2521215973444
 97
0
 75
0
 76
1
 98
0
  0
CIRCLE
  5
23A
330
17
100
AcDbEntity
  8
S-REBAR-MAIN
100
AcDbCircle
 10
402.0
 20
403.52
 30
0.0
 40
0.7
  0
HATCH
  5
23B
330
17
100
AcDbEntity
  8
S-REBAR-MAIN
 62
1
100
AcDbHatch
 10
0.0
 20
0.0
 30
0.0
210
0.0
220
0.0
230
1.0
  2
SOLID
 70
1
 71
0
 91
1
 92
3
 72
0
 73
1
 93
16
 10
402.7
 20
403.52
 10
402.6467156727579
 20
403.78787840265556
 10
402.49497474683056
 20
404.01497474683055
 10
402.2678784026556
 20
404.1667156727579
 10
402.0
 20
404.21999999999997
 10
401.7321215973444
 20
404.1667156727579
 10
401.50502525316944
 20
404.01497474683055
 10
401.3532843272421
 20
403.78787840265556
 10
401.3
 20
403.52
 10
401.3532843272421
 20
403.2521215973444
 10
401.50502525316944
 20
403.0250252531694
 10
401.7321215973444
 20
402.87328432724206
 10
402.0
 20
402.82
 10
402.2678784026556
 20
402.87328432724206
 10
402.49497474683056
 20
403.0250252531694
 10
402.6467156727579
 20
403.2521215973444
 97
0
 75
0
 76
1
 98
0
  0
CIRCLE
  5
23C
330
17
100
AcDbEntity
  8
S-REBAR-MAIN
100
AcDbCircle
 10
408.0
 20
403.52
 30
0.0
 40
0.7
  0
HATCH
  5
23D
330
17
100
AcDbEntity
  8
S-REBAR-MAIN
 62
1
100
AcDbHatch
 10
0.0
 20
0.0
 30
0.0
210
0.0
220
0.0
230
1.0
  2
SOLID
 70
1
 71
0
 91
1
 92
3
 72
0
 73
1
 93
16
 10
408.7
 20
403.52
 10
408.6467156727579
 20
403.78787840265556
 10
408.49497474683056
 20
404.01497474683055
 10
408.2678784026556
 20
404.1667156727579
 10
408.0
 20
404.21999999999997
 10
407.7321215973444
 20
404.1667156727579
 10
407.50502525316944
 20
404.01497474683055
 10
407.3532843272421
 20
403.78787840265556
 10
407.3
 20
403.52
 10
407.3532843272421
 20
403.2521215973444
 10
407.50502525316944
 20
403.0250252531694
 10
407.7321215973444
 20
402.87328432724206
 10
408.0
 20
402.82
 10
408.2678784026556
 20
402.87328432724206
 10
408.49497474683056
 20
403.0250252531694
 10
408.6467156727579
 20
403.2521215973444
 97
0
 75
0
 76
1
 98
0
  0
CIRCLE
  5
23E
330
17
100
AcDbEntity
  8
S-REBAR-MAIN
100
AcDbCircle
 10
414.0
 20
403.52
 30
0.0
 40
0.7
  0
HATCH
  5
23F
330
17
100
AcDbEntity
  8
S-REBAR-MAIN
 62
1
100
AcDbHatch
 10
0.0
 20
0.0
 30
0.0
210
0.0
220
0.0
230
1.0
  2
SOLID
 70
1
 71
0
 91
1
 92
3
 72
0
 73
1
 93
16
 10
414.7
 20
403.52
 10
414.6467156727579
 20
403.78787840265556
 10
414.49497474683056
 20
404.01497474683055
 10
414.2678784026556
 20
404.1667156727579
 10
414.0
 20
404.21999999999997
 10
413.7321215973444
 20
404.1667156727579
 10
413.50502525316944
 20
404.01497474683055
 10
413.3532843272421
 20
403.78787840265556
 10
413.3
 20
403.52
 10
413.3532843272421
 20
403.2521215973444
 10
413.50502525316944
 20
403.0250252531694
 10
413.7321215973444
 20
402.87328432724206
 10
414.0
 20
402.82
 10
414.2678784026556
 20
402.87328432724206
 10
414.49497474683056
 20
403.0250252531694
 10
414.6467156727579
 20
403.2521215973444
 97
0
 75
0
 76
1
 98
0
  0
CIRCLE
  5
240
330
17
100
AcDbEntity
  8
S-REBAR-MAIN
100
AcDbCircle
 10
420.0
 20
403.52
 30
0.0
 40
0.7
  0
HATCH
  5
241
330
17
100
AcDbEntity
  8
S-REBAR-MAIN
 62
1
100
AcDbHatch
 10
0.0
 20
0.0
 30
0.0
210
0.0
220
0.0
230
1.0
  2
SOLID
 70
1
 71
0
 91
1
 92
3
 72
0
 73
1
 93
16
 10
420.7
 20
403.52
 10
420.6467156727579
 20
403.78787840265556
 10
420.49497474683056
 20
404.01497474683055
 10
420.2678784026556
 20
404.1667156727579
 10
420.0
 20
404.21999999999997
 10
419.7321215973444
 20
404.1667156727579
 10
419.50502525316944
 20
404.01497474683055
 10
419.3532843272421
 20
403.78787840265556
 10
419.3
 20
403.52
 10
419.3532843272421
 20
403.2521215973444
 10
419.50502525316944
 20
403.0250252531694
 10
419.7321215973444
 20
402.87328432724206
 10
420.0
 20
402.82
 10
420.2678784026556
 20
402.87328432724206
 10
420.49497474683056
 20
403.0250252531694
 10
420.6467156727579
 20
403.2521215973444
 97
0
 75
0
 76
1
 98
0
  0
CIRCLE
  5
242
330
17
100
AcDbEntity
  8
S-REBAR-MAIN
100
AcDbCircle
 10
426.0
 20
403.52
 30
0.0
 40
0.7
  0
HATCH
  5
243
330
17
100
AcDbEntity
  8
S-REBAR-MAIN
 62
1
100
AcDbHatch
 10
0.0
 20
0.0
 30
0.0
210
0.0
220
0.0
230
1.0
  2
SOLID
 70
1
 71
0
 91
1
 92
3
 72
0
 73
1
 93
16
 10
426.7
 20
403.52
 10
426.6467156727579
 20
403.78787840265556
 10
426.49497474683056
 20
404.01497474683055
 10
426.2678784026556
 20
404.1667156727579
 10
426.0
 20
404.21999999999997
 10
425.7321215973444
 20
404.1667156727579
 10
425.50502525316944
 20
404.01497474683055
 10
425.3532843272421
 20
403.78787840265556
 10
425.3
 20
403.52
 10
425.3532843272421
 20
403.2521215973444
 10
425.50502525316944
 20
403.0250252531694
 10
425.7321215973444
 20
402.87328432724206
 10
426.0
 20
402.82
 10
426.2678784026556
 20
402.87328432724206
 10
426.49497474683056
 20
403.0250252531694
 10
426.6467156727579
 20
403.2521215973444
 97
0
 75
0
 76
1
 98
0
  0
CIRCLE
  5
244
330
17
100
AcDbEntity
  8
S-REBAR-MAIN
100
AcDbCircle
 10
432.0
 20
403.52
 30
0.0
 40
0.7
  0
HATCH
  5
245
330
17
100
AcDbEntity
  8
S-REBAR-MAIN
 62
1
100
AcDbHatch
 10
0.0
 20
0.0
 30
0.0
210
0.0
220
0.0
230
1.0
  2
SOLID
 70
1
 71
0
 91
1
 92
3
 72
0
 73
1
 93
16
 10
432.7
 20
403.52
 10
432.6467156727579
 20
403.78787840265556
 10
432.49497474683056
 20
404.01497474683055
 10
432.2678784026556
 20
404.1667156727579
 10
432.0
 20
404.21999999999997
 10
431.7321215973444
 20
404.1667156727579
 10
431.50502525316944
 20
404.01497474683055
 10
431.3532843272421
 20
403.78787840265556
 10
431.3
 20
403.52
 10
431.3532843272421
 20
403.2521215973444
 10
431.50502525316944
 20
403.0250252531694
 10
431.7321215973444
 20
402.87328432724206
 10
432.0
 20
402.82
 10
432.2678784026556
 20
402.87328432724206
 10
432.49497474683056
 20
403.0250252531694
 10
432.6467156727579
 20
403.2521215973444
 97
0
 75
0
 76
1
 98
0
  0
CIRCLE
  5
246
330
17
100
AcDbEntity
  8
S-REBAR-MAIN
100
AcDbCircle
 10
438.0
 20
403.52
 30
0.0
 40
0.7
  0
HATCH
  5
247
330
17
100
AcDbEntity
  8
S-REBAR-MAIN
 62
1
100
AcDbHatch
 10
0.0
 20
0.0
 30
0.0
210
0.0
220
0.0
230
1.0
  2
SOLID
 70
1
 71
0
 91
1
 92
3
 72
0
 73
1
 93
16
 10
438.7
 20
403.52
 10
438.6467156727579
 20
403.78787840265556
 10
438.49497474683056
 20
404.01497474683055
 10
438.2678784026556
 20
404.1667156727579
 10
438.0
 20
404.21999999999997
 10
437.7321215973444
 20
404.1667156727579
 10
437.50502525316944
 20
404.01497474683055
 10
437.3532843272421
 20
403.78787840265556
 10
437.3
 20
403.52
 10
437.3532843272421
 20
403.2521215973444
 10
437.50502525316944
 20
403.0250252531694
 10
437.7321215973444
 20
402.87328432724206
 10
438.0
 20
402.82
 10
438.2678784026556
 20
402.87328432724206
 10
438.49497474683056
 20
403.0250252531694
 10
438.6467156727579
 20
403.2521215973444
 97
0
 75
0
 76
1
 98
0
  0
CIRCLE
  5
248
330
17
100
AcDbEntity
  8
S-REBAR-MAIN
100
AcDbCircle
 10
444.0
 20
403.52
 30
0.0
 40
0.7
  0
HATCH
  5
249
330
17
100
AcDbEntity
  8
S-REBAR-MAIN
 62
1
100
AcDbHatch
 10
0.0
 20
0.0
 30
0.0
210
0.0
220
0.0
230
1.0
  2
SOLID
 70
1
 71
0
 91
1
 92
3
 72
0
 73
1
 93
16
 10
444.7
 20
403.52
 10
444.6467156727579
 20
403.78787840265556
 10
444.49497474683056
 20
404.01497474683055
 10
444.2678784026556
 20
404.1667156727579
 10
444.0
 20
404.21999999999997
 10
443.7321215973444
 20
404.1667156727579
 10
443.50502525316944
 20
404.01497474683055
 10
443.3532843272421
 20
403.78787840265556
 10
443.3
 20
403.52
 10
443.3532843272421
 20
403.2521215973444
 10
443.50502525316944
 20
403.0250252531694
 10
443.7321215973444
 20
402.87328432724206
 10
444.0
 20
402.82
 10
444.2678784026556
 20
402.87328432724206
 10
444.49497474683056
 20
403.0250252531694
 10
444.6467156727579
 20
403.2521215973444
 97
0
 75
0
 76
1
 98
0
  0
LWPOLYLINE
  5
24A
330
17
100
AcDbEntity
  8
S-REBAR-STIRRUP
100
AcDbPolyline
 90
4
 70
1
 10
351.4
 20
390.4
 10
354.6
 20
390.4
 10
354.6
 20
433.6
 10
351.4
 20
433.6
  0
LWPOLYLINE
  5
24B
330
17
100
AcDbEntity
  8
S-REBAR-STIRRUP
100
AcDbPolyline
 90
4
 70
1
 10
357.4
 20
390.4
 10
360.6
 20
390.4
 10
360.6
 20
433.6
 10
357.4
 20
433.6
  0
LWPOLYLINE
  5
24C
330
17
100
AcDbEntity
  8
S-REBAR-STIRRUP
100
AcDbPolyline
 90
4
 70
1
 10
363.4
 20
390.4
 10
366.6
 20
390.4
 10
366.6
 20
433.6
 10
363.4
 20
433.6
  0
LWPOLYLINE
  5
24D
330
17
100
AcDbEntity
  8
S-REBAR-STIRRUP
100
AcDbPolyline
 90
4
 70
1
 10
369.4
 20
390.4
 10
372.6
 20
390.4
 10
372.6
 20
433.6
 10
369.4
 20
433.6
  0
LWPOLYLINE
  5
24E
330
17
100
AcDbEntity
  8
S-REBAR-STIRRUP
100
AcDbPolyline
 90
4
 70
1
 10
378.0
 20
403.2
 10
382.0
 20
403.2
 10
382.0
 20
432.8
 10
378.0
 20
432.8
  0
LWPOLYLINE
  5
24F
330
17
100
AcDbEntity
  8
S-REBAR-STIRRUP
100
AcDbPolyline
 90
4
 70
1
 10
388.0
 20
403.2
 10
392.0
 20
403.2
 10
392.0
 20
432.8
 10
388.0
 20
432.8
  0
LWPOLYLINE
  5
250
330
17
100
AcDbEntity
  8
S-REBAR-STIRRUP
100
AcDbPolyline
 90
4
 70
1
 10
398.0
 20
403.2
 10
402.0
 20
403.2
 10
402.0
 20
432.8
 10
398.0
 20
432.8
  0
LWPOLYLINE
  5
251
330
17
100
AcDbEntity
  8
S-REBAR-STIRRUP
100
AcDbPolyline
 90
4
 70
1
 10
408.0
 20
403.2
 10
412.0
 20
403.2
 10
412.0
 20
432.8
 10
408.0
 20
432.8
  0
LWPOLYLINE
  5
252
330
17
100
AcDbEntity
  8
S-REBAR-STIRRUP
100
AcDbPolyline
 90
4
 70
1
 10
418.0
 20
403.2
 10
422.0
 20
403.2
 10
422.0
 20
432.8
 10
418.0
 20
432.8
  0
LWPOLYLINE
  5
253
330
17
100
AcDbEntity
  8
S-REBAR-STIRRUP
100
AcDbPolyline
 90
4
 70
1
 10
428.0
 20
403.2
 10
432.0
 20
403.2
 10
432.0
 20
432.8
 10
428.0
 20
432.8
  0
LWPOLYLINE
  5
254
330
17
100
AcDbEntity
  8
S-REBAR-STIRRUP
100
AcDbPolyline
 90
4
 70
1
 10
438.0
 20
403.2
 10
442.0
 20
403.2
 10
442.0
 20
432.8
 10
438.0
 20
432.8
  0
DIMENSION
  5
255
330
17
100
AcDbEntity
  8
S-DIM
100
AcDbDimension
280
0
  2
*D6
  3
SC-DIM
 10
330.0
 20
388.0
 30
0.0
 11
328.3
 21
412.0
 31
0.0
 70
32
 71
5
  1
<>
100
AcDbAlignedDimension
 13
350.0
 23
388.0
 33
0.0
 14
350.0
 24
436.0
 34
0.0
 50
90.0
100
AcDbRotatedDimension
1001
ACAD
1000
DSTYLE
1002
{
1070
144
1040
25.0
1002
}
  0
DIMENSION
  5
264
330
17
100
AcDbEntity
  8
S-DIM
100
AcDbDimension
280
0
  2
*D7
  3
SC-DIM
 10
350.0
 20
368.0
 30
0.0
 11
362.0
 21
369.7
 31
0.0
 70
32
 71
5
  1
<>
100
AcDbAlignedDimension
 13
350.0
 23
388.0
 33
0.0
 14
374.0
 24
388.0
 34
0.0
 50
0.0
100
AcDbRotatedDimension
1001
ACAD
1000
DSTYLE
1002
{
1070
144
1040
25.0
1002
}
  0
INSERT
  5
273
330
17
100
AcDbEntity
  8
S-CALLOUT
100
AcDbBlockReference
  2
BARMARK
 10
336.0
 20
458.0
 30
0.0
  0
TEXT
  5
275
330
17
100
AcDbEntity
  8
S-CALLOUT
100
AcDbText
 10
336.0
 20
458.0
 30
0.0
 40
2.0
  1
S12
  7
OpenSans
 72
1
 11
336.0
 21
458.0
 31
0.0
100
AcDbText
 73
2
  0
LEADER
  5
276
330
17
100
AcDbEntity
  8
S-CALLOUT
100
AcDbLeader
  3
SC-DIM
 73
3
 76
2
 10
362.0
 20
432.0
 30
0.0
 10
336.0
 20
458.0
 30
0.0
  0
INSERT
  5
277
330
17
100
AcDbEntity
  8
S-CALLOUT
100
AcDbBlockReference
  2
BARMARK
 10
336.0
 20
340.0
 30
0.0
  0
TEXT
  5
279
330
17
100
AcDbEntity
  8
S-CALLOUT
100
AcDbText
 10
336.0
 20
340.0
 30
0.0
 40
2.0
  1
S13
  7
OpenSans
 72
1
 11
336.0
 21
340.0
 31
0.0
100
AcDbText
 73
2
  0
LEADER
  5
27A
330
17
100
AcDbEntity
  8
S-CALLOUT
100
AcDbLeader
  3
SC-DIM
 73
3
 76
2
 10
362.0
 20
408.0
 30
0.0
 10
336.0
 20
340.0
 30
0.0
  0
INSERT
  5
27B
330
17
100
AcDbEntity
  8
S-CALLOUT
100
AcDbBlockReference
  2
BARMARK
 10
444.0
 20
450.0
 30
0.0
  0
TEXT
  5
27D
330
17
100
AcDbEntity
  8
S-CALLOUT
100
AcDbText
 10
444.0
 20
450.0
 30
0.0
 40
2.0
  1
S07
  7
OpenSans
 72
1
 11
444.0
 21
450.0
 31
0.0
100
AcDbText
 73
2
  0
LEADER
  5
27E
330
17
100
AcDbEntity
  8
S-CALLOUT
100
AcDbLeader
  3
SC-DIM
 73
3
 76
2
 10
414.0
 20
420.0
 30
0.0
 10
444.0
 20
450.0
 30
0.0
  0
TEXT
  5
27F
330
17
100
AcDbEntity
  8
S-TITLE
100
AcDbText
 10
320.0
 20
552.0
 30
0.0
 40
3.5
  1
V3   STAIR-VOID FREE EDGE - SECTION THROUGH THE PAD
  7
OpenSans
 11
320.0
 21
552.0
 31
0.0
100
AcDbText
  0
LINE
  5
280
330
17
100
AcDbEntity
  8
S-TITLE
100
AcDbLine
 10
320.0
 20
550.2
 30
0.0
 11
462.0137307434695
 21
550.2
 31
0.0
  0
TEXT
  5
281
330
17
100
AcDbEntity
  8
S-TEXT
100
AcDbText
 10
320.0
 20
544.8
 30
0.0
 40
2.0
  1
SCALE 1:25
  7
OpenSans
 11
320.0
 21
544.8
 31
0.0
100
AcDbText
  0
TEXT
  5
282
330
17
100
AcDbEntity
  8
S-TEXT
100
AcDbText
 10
320.0
 20
322.0
 30
0.0
 40
1.4
  1
EDGE THICKENED 900 -> 1200 OVER 600
  7
OpenSans
 11
320.0
 21
322.0
 31
0.0
100
AcDbText
  0
TEXT
  5
283
330
17
100
AcDbEntity
  8
S-TEXT
100
AcDbText
 10
320.0
 20
317.0
 30
0.0
 40
1.4
  1
6-T25 TOP + 6-T25 BOTTOM, T12 CLOSED LINKS @ 150
  7
OpenSans
 11
320.0
 21
317.0
 31
0.0
100
AcDbText
  0
LWPOLYLINE
  5
284
330
17
100
AcDbEntity
  8
S-CONCRETE
100
AcDbPolyline
 90
4
 70
1
 10
427.5
 20
362.5
 10
552.5
 20
362.5
 10
552.5
 20
462.5
 10
427.5
 20
462.5
  0
LWPOLYLINE
  5
285
330
17
100
AcDbEntity
  8
S-CONCRETE
100
AcDbPolyline
 90
4
 70
1
 10
427.5
 20
362.5
 10
490.0
 20
362.5
 10
490.0
 20
400.0
 10
427.5
 20
400.0
  0
HATCH
  5
286
330
17
100
AcDbEntity
  8
S-HATCH
 62
7
100
AcDbHatch
 10
0.0
 20
0.0
 30
0.0
210
0.0
220
0.0
230
1.0
  2
ANSI31
 70
0
 71
0
 91
1
 92
3
 72
0
 73
1
 93
4
 10
427.5
 20
400.0
 10
552.5
 20
400.0
 10
552.5
 20
462.5
 10
427.5
 20
462.5
 97
0
 75
1
 76
1
 52
0.0
 41
1.6
 77
0
 78
1
 53
45.0
 43
0.0
 44
0.0
 45
-3.5921024485
 46
3.5921024485
 79
0
 98
0
  0
HATCH
  5
287
330
17
100
AcDbEntity
  8
S-HATCH
 62
7
100
AcDbHatch
 10
0.0
 20
0.0
 30
0.0
210
0.0
220
0.0
230
1.0
  2
ANSI31
 70
0
 71
0
 91
1
 92
3
 72
0
 73
1
 93
4
 10
490.0
 20
362.5
 10
552.5
 20
362.5
 10
552.5
 20
400.0
 10
490.0
 20
400.0
 97
0
 75
1
 76
1
 52
0.0
 41
1.6
 77
0
 78
1
 53
45.0
 43
0.0
 44
0.0
 45
-3.5921024485
 46
3.5921024485
 79
0
 98
0
  0
LINE
  5
288
330
17
100
AcDbEntity
  8
S-REBAR-SEC
100
AcDbLine
 10
440.0
 20
400.0
 30
0.0
 11
490.0
 21
450.0
 31
0.0
  0
LINE
  5
289
330
17
100
AcDbEntity
  8
S-REBAR-SEC
100
AcDbLine
 10
490.0
 20
365.0
 30
0.0
 11
525.0
 21
400.0
 31
0.0
  0
LINE
  5
28A
330
17
100
AcDbEntity
  8
S-REBAR-SEC
100
AcDbLine
 10
443.75
 20
400.0
 30
0.0
 11
490.0
 21
446.25
 31
0.0
  0
LINE
  5
28B
330
17
100
AcDbEntity
  8
S-REBAR-SEC
100
AcDbLine
 10
493.75
 20
365.0
 30
0.0
 11
528.75
 21
400.0
 31
0.0
  0
LINE
  5
28C
330
17
100
AcDbEntity
  8
S-REBAR-SEC
100
AcDbLine
 10
447.5
 20
400.0
 30
0.0
 11
490.0
 21
442.5
 31
0.0
  0
LINE
  5
28D
330
17
100
AcDbEntity
  8
S-REBAR-SEC
100
AcDbLine
 10
497.5
 20
365.0
 30
0.0
 11
532.5
 21
400.0
 31
0.0
  0
LINE
  5
28E
330
17
100
AcDbEntity
  8
S-REBAR-SEC
100
AcDbLine
 10
451.25
 20
400.0
 30
0.0
 11
490.0
 21
438.75
 31
0.0
  0
LINE
  5
28F
330
17
100
AcDbEntity
  8
S-REBAR-SEC
100
AcDbLine
 10
501.25
 20
365.0
 30
0.0
 11
536.25
 21
400.0
 31
0.0
  0
TEXT
  5
290
330
17
100
AcDbEntity
  8
S-TEXT
100
AcDbText
 10
455.0
 20
380.0
 30
0.0
 40
2.0
  1
VOID
  7
OpenSans
 72
1
 11
455.0
 21
380.0
 31
0.0
100
AcDbText
 73
2
  0
DIMENSION
  5
291
330
17
100
AcDbEntity
  8
S-DIM
100
AcDbDimension
280
0
  2
*D8
  3
SC-DIM
 10
490.0
 20
475.0
 30
0.0
 11
515.0
 21
476.7
 31
0.0
 70
32
 71
5
  1
<>
100
AcDbAlignedDimension
 13
490.0
 23
462.5
 33
0.0
 14
540.0
 24
462.5
 34
0.0
 50
0.0
100
AcDbRotatedDimension
1001
ACAD
1000
DSTYLE
1002
{
1070
144
1040
40.0
1002
}
  0
INSERT
  5
2A0
330
17
100
AcDbEntity
  8
S-CALLOUT
100
AcDbBlockReference
  2
BARMARK
 10
528.0
 20
466.0
 30
0.0
  0
TEXT
  5
2A2
330
17
100
AcDbEntity
  8
S-CALLOUT
100
AcDbText
 10
528.0
 20
466.0
 30
0.0
 40
2.0
  1
S15
  7
OpenSans
 72
1
 11
528.0
 21
466.0
 31
0.0
100
AcDbText
 73
2
  0
LEADER
  5
2A3
330
17
100
AcDbEntity
  8
S-CALLOUT
100
AcDbLeader
  3
SC-DIM
 73
3
 76
2
 10
467.5
 20
427.5
 30
0.0
 10
528.0
 20
466.0
 30
0.0
  0
TEXT
  5
2A4
330
17
100
AcDbEntity
  8
S-TITLE
100
AcDbText
 10
470.0
 20
552.0
 30
0.0
 40
3.5
  1
V4   RE-ENTRANT CORNER TRIMMERS
  7
OpenSans
 11
470.0
 21
552.0
 31
0.0
100
AcDbText
  0
LINE
  5
2A5
330
17
100
AcDbEntity
  8
S-TITLE
100
AcDbLine
 10
470.0
 20
550.2
 30
0.0
 11
560.5874079035499
 21
550.2
 31
0.0
  0
TEXT
  5
2A6
330
17
100
AcDbEntity
  8
S-TEXT
100
AcDbText
 10
470.0
 20
544.8
 30
0.0
 40
2.0
  1
SCALE 1:40
  7
OpenSans
 11
470.0
 21
544.8
 31
0.0
100
AcDbText
  0
TEXT
  5
2A7
330
17
100
AcDbEntity
  8
S-TEXT
100
AcDbText
 10
470.0
 20
322.0
 30
0.0
 40
1.4
  1
4-T25 EACH FACE AT 45 DEG, 2000 LONG EACH WAY,
  7
OpenSans
 11
470.0
 21
322.0
 31
0.0
100
AcDbText
  0
TEXT
  5
2A8
330
17
100
AcDbEntity
  8
S-BLAST
100
AcDbText
 10
470.0
 20
317.0
 30
0.0
 40
1.4
  1
ANCHORED Ld BEYOND.  BOTH CORNERS.  MANDATORY.
  7
OpenSans
 11
470.0
 21
317.0
 31
0.0
100
AcDbText
  0
TEXT
  5
2A9
330
17
100
AcDbEntity
  8
S-TITLE
100
AcDbText
 10
32.0
 20
295.5
 30
0.0
 40
2.5
  1
FINDING F2 - THE CANTILEVER PAD
  7
OpenSans
 11
32.0
 21
295.5
 31
0.0
100
AcDbText
  0
TEXT
  5
2AA
330
17
100
AcDbEntity
  8
S-NOTE
100
AcDbText
 10
32.0
 20
291.375
 30
0.0
 40
2.0
  1
*** FINDING F2 - NOT DESIGNED IN THE PHASE 1 REPORT ***
  7
OpenSans
 11
32.0
 21
291.375
 31
0.0
100
AcDbText
  0
TEXT
  5
2AB
330
17
100
AcDbEntity
  8
S-NOTE
100
AcDbText
 10
32.0
 20
285.275
 30
0.0
 40
2.0
  1
The 2800 x 3160 stair void leaves an 1840 mm CANTILEVER of 900 slab,
  7
OpenSans
 11
32.0
 21
285.275
 31
0.0
100
AcDbText
  0
TEXT
  5
2AC
330
17
100
AcDbEntity
  8
S-NOTE
100
AcDbText
 10
32.0
 20
282.22499999999997
 30
0.0
 40
2.0
  1
2800 wide, carrying the full 448.15 kPa.
  7
OpenSans
 11
32.0
 21
282.22499999999997
 31
0.0
100
AcDbText
  0
TEXT
  5
2AD
330
17
100
AcDbEntity
  8
S-NOTE
100
AcDbText
 10
32.0
 20
276.12499999999994
 30
0.0
 40
2.0
  1
  M(root) = w L2 / 2 = 448.15 x 1.840^2 / 2   =  758.6 kNm/m
  7
OpenSans
 11
32.0
 21
276.12499999999994
 31
0.0
100
AcDbText
  0
TEXT
  5
2AE
330
17
100
AcDbEntity
  8
S-NOTE
100
AcDbText
 10
32.0
 20
273.07499999999993
 30
0.0
 40
2.0
  1
  *** THIS EXCEEDS THE 700.2 kNm/m MID-SPAN Mp ***
  7
OpenSans
 11
32.0
 21
273.07499999999993
 31
0.0
100
AcDbText
  0
TEXT
  5
2AF
330
17
100
AcDbEntity
  8
S-NOTE
100
AcDbText
 10
32.0
 20
270.0249999999999
 30
0.0
 40
2.0
  1
  Ast,req TOP = 1772 mm2/m  <  3272 provided   ->  UTILISATION 56 %  OK
  7
OpenSans
 11
32.0
 21
270.0249999999999
 31
0.0
100
AcDbText
  0
TEXT
  5
2B0
330
17
100
AcDbEntity
  8
S-NOTE
100
AcDbText
 10
32.0
 20
263.9249999999999
 30
0.0
 40
2.0
  1
  V(root) = 448.15 x 1.840                     =  824.6 kN/m
  7
OpenSans
 11
32.0
 21
263.9249999999999
 31
0.0
100
AcDbText
  0
TEXT
  5
2B1
330
17
100
AcDbEntity
  8
S-NOTE
100
AcDbText
 10
32.0
 20
260.8749999999999
 30
0.0
 40
2.0
  1
  tau_v 1.015 > tau_c 0.450 ; Vus 459.4 ; Asv/sv 1.300
  7
OpenSans
 11
32.0
 21
260.8749999999999
 31
0.0
100
AcDbText
  0
TEXT
  5
2B2
330
17
100
AcDbEntity
  8
S-NOTE
100
AcDbText
 10
32.0
 20
257.8249999999999
 30
0.0
 40
2.0
  1
  ->  T12 4-leg at 348 ; Cl. 26.5.1.5 limit 300
  7
OpenSans
 11
32.0
 21
257.8249999999999
 31
0.0
100
AcDbText
  0
TEXT
  5
2B3
330
17
100
AcDbEntity
  8
S-NOTE
100
AcDbText
 10
32.0
 20
254.77499999999986
 30
0.0
 40
2.0
  1
  ADOPTED  T12 4-LEGGED LINKS @ 250 THROUGHOUT THE PAD  (NEW REQUIREMENT)
  7
OpenSans
 11
32.0
 21
254.77499999999986
 31
0.0
100
AcDbText
  0
TEXT
  5
2B4
330
17
100
AcDbEntity
  8
S-NOTE
100
AcDbText
 10
32.0
 20
248.67499999999984
 30
0.0
 40
2.0
  1
PLUS   free edge thickened 900 -> 1200 over 600, with 6-T25 top +
  7
OpenSans
 11
32.0
 21
248.67499999999984
 31
0.0
100
AcDbText
  0
TEXT
  5
2B5
330
17
100
AcDbEntity
  8
S-NOTE
100
AcDbText
 10
32.0
 20
245.62499999999983
 30
0.0
 40
2.0
  1
       6-T25 bottom and T12 closed links @ 150
  7
OpenSans
 11
32.0
 21
245.62499999999983
 31
0.0
100
AcDbText
  0
TEXT
  5
2B6
330
17
100
AcDbEntity
  8
S-NOTE
100
AcDbText
 10
32.0
 20
242.57499999999982
 30
0.0
 40
2.0
  1
PLUS   6 No. T25 each face, top and bottom, in a 900 band over W6 and W7
  7
OpenSans
 11
32.0
 21
242.57499999999982
 31
0.0
100
AcDbText
  0
TEXT
  5
2B7
330
17
100
AcDbEntity
  8
S-NOTE
100
AcDbText
 10
32.0
 20
239.5249999999998
 30
0.0
 40
2.0
  1
PLUS   diagonal trimmers 4 No. T25 each face at 45 deg at BOTH re-entrant
  7
OpenSans
 11
32.0
 21
239.5249999999998
 31
0.0
100
AcDbText
  0
TEXT
  5
2B8
330
17
100
AcDbEntity
  8
S-NOTE
100
AcDbText
 10
32.0
 20
236.4749999999998
 30
0.0
 40
2.0
  1
       corners, 2000 long each way, anchored Ld beyond
  7
OpenSans
 11
32.0
 21
236.4749999999998
 31
0.0
100
AcDbText
  0
TEXT
  5
2B9
330
17
100
AcDbEntity
  8
S-NOTE
100
AcDbText
 10
32.0
 20
233.42499999999978
 30
0.0
 40
2.0
  1
PLUS   1100 mm guarding to the free edge (NBC 2016 Part 4) - architectural,
  7
OpenSans
 11
32.0
 21
233.42499999999978
 31
0.0
100
AcDbText
  0
TEXT
  5
2BA
330
17
100
AcDbEntity
  8
S-NOTE
100
AcDbText
 10
32.0
 20
230.37499999999977
 30
0.0
 40
2.0
  1
       shown for coordination only
  7
OpenSans
 11
32.0
 21
230.37499999999977
 31
0.0
100
AcDbText
  0
TEXT
  5
2BB
330
17
100
AcDbEntity
  8
S-NOTE
100
AcDbText
 10
32.0
 20
224.27499999999975
 30
0.0
 40
2.0
  1
THE RE-ENTRANT CORNERS ARE THE CRACK INITIATORS.  The 45 deg diagonal
  7
OpenSans
 11
32.0
 21
224.27499999999975
 31
0.0
100
AcDbText
  0
TEXT
  5
2BC
330
17
100
AcDbEntity
  8
S-NOTE
100
AcDbText
 10
32.0
 20
221.22499999999974
 30
0.0
 40
2.0
  1
trimmers are MANDATORY, not decorative.
  7
OpenSans
 11
32.0
 21
221.22499999999974
 31
0.0
100
AcDbText
  0
LWPOLYLINE
  5
2BD
330
17
100
AcDbEntity
  8
S-TITLE
100
AcDbPolyline
 90
4
 70
1
 10
30.0
 20
216.17499999999973
 10
330.0
 20
216.17499999999973
 10
330.0
 20
300.0
 10
30.0
 20
300.0
  0
TEXT
  5
2BE
330
17
100
AcDbEntity
  8
S-TITLE
100
AcDbText
 10
342.0
 20
295.5
 30
0.0
 40
2.5
  1
ESCAPE-SHAFT OPENINGS - DESIGN
  7
OpenSans
 11
342.0
 21
295.5
 31
0.0
100
AcDbText
  0
TEXT
  5
2BF
330
17
100
AcDbEntity
  8
S-NOTE
100
AcDbText
 10
342.0
 20
291.375
 30
0.0
 40
2.0
  1
INTERRUPTED STEEL  3272 x 1.400          =  4581 mm2/face/direction
  7
OpenSans
 11
342.0
 21
291.375
 31
0.0
100
AcDbText
  0
TEXT
  5
2C0
330
17
100
AcDbEntity
  8
S-NOTE
100
AcDbText
 10
342.0
 20
288.325
 30
0.0
 40
2.0
  1
TRIMMERS EACH SIDE                        =  2291 mm2
  7
OpenSans
 11
342.0
 21
288.325
 31
0.0
100
AcDbText
  0
TEXT
  5
2C1
330
17
100
AcDbEntity
  8
S-NOTE
100
AcDbText
 10
342.0
 20
285.275
 30
0.0
 40
2.0
  1
PROVIDED  5 No. T25 EACH SIDE, EACH FACE, EACH DIRECTION = 2454 mm2  OK
  7
OpenSans
 11
342.0
 21
285.275
 31
0.0
100
AcDbText
  0
TEXT
  5
2C2
330
17
100
AcDbEntity
  8
S-NOTE
100
AcDbText
 10
342.0
 20
282.22499999999997
 30
0.0
 40
2.0
  1
  ANCHORED Ld = 1000 BEYOND THE OPENING.
  7
OpenSans
 11
342.0
 21
282.22499999999997
 31
0.0
100
AcDbText
  0
TEXT
  5
2C3
330
17
100
AcDbEntity
  8
S-NOTE
100
AcDbText
 10
342.0
 20
279.17499999999995
 30
0.0
 40
2.0
  1
COLLAR  250 RC, OD 1900 ;  T16 @ 150 HOOPS x3 LAYERS + T16 @ 150 RADIALS
  7
OpenSans
 11
342.0
 21
279.17499999999995
 31
0.0
100
AcDbText
  0
TEXT
  5
2C4
330
17
100
AcDbEntity
  8
S-NOTE
100
AcDbText
 10
342.0
 20
276.12499999999994
 30
0.0
 40
2.0
  1
SLAB THICKENED 900 -> 1200 OVER A 600 ANNULUS, T12 CLOSED LINKS @ 150
  7
OpenSans
 11
342.0
 21
276.12499999999994
 31
0.0
100
AcDbText
  0
TEXT
  5
2C5
330
17
100
AcDbEntity
  8
S-NOTE
100
AcDbText
 10
342.0
 20
270.0249999999999
 30
0.0
 40
2.0
  1
THE 750 mm CLEARANCE RULE - opening edge to structural wall face
  7
OpenSans
 11
342.0
 21
270.0249999999999
 31
0.0
100
AcDbText
  0
TEXT
  5
2C6
330
17
100
AcDbEntity
  8
S-NOTE
100
AcDbText
 10
342.0
 20
266.9749999999999
 30
0.0
 40
2.0
  1
  750 = 250 collar + about 400 trimmer band + 100 tolerance
  7
OpenSans
 11
342.0
 21
266.9749999999999
 31
0.0
100
AcDbText
  0
TEXT
  5
2C7
330
17
100
AcDbEntity
  8
S-NOTE
100
AcDbText
 10
342.0
 20
263.9249999999999
 30
0.0
 40
2.0
  1
  ->  A BAY MUST BE AT LEAST 1400 + 2 x 750 = 2900 mm WIDE.
  7
OpenSans
 11
342.0
 21
263.9249999999999
 31
0.0
100
AcDbText
  0
TEXT
  5
2C8
330
17
100
AcDbEntity
  8
S-NOTE
100
AcDbText
 10
342.0
 20
260.8749999999999
 30
0.0
 40
2.0
  1
  This rule drove the Rev C lengthening and it is WHY MODIFICATION M1
  7
OpenSans
 11
342.0
 21
260.8749999999999
 31
0.0
100
AcDbText
  0
TEXT
  5
2C9
330
17
100
AcDbEntity
  8
S-NOTE
100
AcDbText
 10
342.0
 20
257.8249999999999
 30
0.0
 40
2.0
  1
  COULD NOT TAKE 400 mm OUT OF BAY 8.
  7
OpenSans
 11
342.0
 21
257.8249999999999
 31
0.0
100
AcDbText
  0
TEXT
  5
2CA
330
17
100
AcDbEntity
  8
S-NOTE
100
AcDbText
 10
342.0
 20
254.77499999999986
 30
0.0
 40
2.0
  1
  ESC 1 clearance 750 all round ; ESC 2 800 / 800 after M1.
  7
OpenSans
 11
342.0
 21
254.77499999999986
 31
0.0
100
AcDbText
  0
TEXT
  5
2CB
330
17
100
AcDbEntity
  8
S-NOTE
100
AcDbText
 10
342.0
 20
248.67499999999984
 30
0.0
 40
2.0
  1
ESC 1 centre (2050, 2050)  ·  ESC 2 centre (19 900, 2050) after M1
  7
OpenSans
 11
342.0
 21
248.67499999999984
 31
0.0
100
AcDbText
  0
TEXT
  5
2CC
330
17
100
AcDbEntity
  8
S-NOTE
100
AcDbText
 10
342.0
 20
245.62499999999983
 30
0.0
 40
2.0
  1
  [CONFIRMED - read directly from 1_Underground_Level_Plan.dxf]
  7
OpenSans
 11
342.0
 21
245.62499999999983
 31
0.0
100
AcDbText
  0
TEXT
  5
2CD
330
17
100
AcDbEntity
  8
S-NOTE
100
AcDbText
 10
342.0
 20
239.5249999999998
 30
0.0
 40
2.0
  1
MANUAL CALCULATION - NOT DIRECT STAAD OUTPUT.
  7
OpenSans
 11
342.0
 21
239.5249999999998
 31
0.0
100
AcDbText
  0
LWPOLYLINE
  5
2CE
330
17
100
AcDbEntity
  8
S-TITLE
100
AcDbPolyline
 90
4
 70
1
 10
340.0
 20
234.4749999999998
 10
638.0
 20
234.4749999999998
 10
638.0
 20
300.0
 10
340.0
 20
300.0
  0
TEXT
  5
2CF
330
17
100
AcDbEntity
  8
S-TITLE
100
AcDbText
 10
340.0
 20
229.4749999999998
 30
0.0
 40
2.5
  1
BAR SCHEDULE EXTRACT - THIS SHEET
  7
OpenSans
 11
340.0
 21
229.4749999999998
 31
0.0
100
AcDbText
  0
LWPOLYLINE
  5
2D0
330
17
100
AcDbEntity
  8
S-TABLE
100
AcDbPolyline
 90
4
 70
1
 10
340.0
 20
222.2749999999998
 10
449.0
 20
222.2749999999998
 10
449.0
 20
226.4749999999998
 10
340.0
 20
226.4749999999998
  0
TEXT
  5
2D1
330
17
100
AcDbEntity
  8
S-TABLE
100
AcDbText
 10
341.4
 20
223.53156363636344
 30
0.0
 40
1.6868727272727269
  1
MARK
  7
OpenSans
 11
341.4
 21
223.53156363636344
 31
0.0
100
AcDbText
  0
TEXT
  5
2D2
330
17
100
AcDbEntity
  8
S-TABLE
100
AcDbText
 10
358.4
 20
223.53156363636344
 30
0.0
 40
1.6868727272727269
  1
DIA
  7
OpenSans
 11
358.4
 21
223.53156363636344
 31
0.0
100
AcDbText
  0
TEXT
  5
2D3
330
17
100
AcDbEntity
  8
S-TABLE
100
AcDbText
 10
371.4
 20
223.53156363636344
 30
0.0
 40
1.6868727272727269
  1
SHP
  7
OpenSans
 11
371.4
 21
223.53156363636344
 31
0.0
100
AcDbText
  0
TEXT
  5
2D4
330
17
100
AcDbEntity
  8
S-TABLE
100
AcDbText
 10
383.4
 20
223.53156363636344
 30
0.0
 40
1.6868727272727269
  1
SPAC
  7
OpenSans
 11
383.4
 21
223.53156363636344
 31
0.0
100
AcDbText
  0
TEXT
  5
2D5
330
17
100
AcDbEntity
  8
S-TABLE
100
AcDbText
 10
398.4
 20
223.53156363636344
 30
0.0
 40
1.6868727272727269
  1
No.
  7
OpenSans
 11
398.4
 21
223.53156363636344
 31
0.0
100
AcDbText
  0
TEXT
  5
2D6
330
17
100
AcDbEntity
  8
S-TABLE
100
AcDbText
 10
413.4
 20
223.53156363636344
 30
0.0
 40
1.6868727272727269
  1
CUT
  7
OpenSans
 11
413.4
 21
223.53156363636344
 31
0.0
100
AcDbText
  0
TEXT
  5
2D7
330
17
100
AcDbEntity
  8
S-TABLE
100
AcDbText
 10
430.4
 20
223.53156363636344
 30
0.0
 40
1.6868727272727269
  1
kg
  7
OpenSans
 11
430.4
 21
223.53156363636344
 31
0.0
100
AcDbText
  0
TEXT
  5
2D8
330
17
100
AcDbEntity
  8
S-TABLE
100
AcDbText
 10
341.4
 20
219.33156363636346
 30
0.0
 40
1.6868727272727269
  1
S07
  7
OpenSans
 11
341.4
 21
219.33156363636346
 31
0.0
100
AcDbText
  0
TEXT
  5
2D9
330
17
100
AcDbEntity
  8
S-TABLE
100
AcDbText
 10
358.4
 20
219.33156363636346
 30
0.0
 40
1.6868727272727269
  1
T12
  7
OpenSans
 11
358.4
 21
219.33156363636346
 31
0.0
100
AcDbText
  0
TEXT
  5
2DA
330
17
100
AcDbEntity
  8
S-TABLE
100
AcDbText
 10
371.4
 20
219.33156363636346
 30
0.0
 40
1.6868727272727269
  1
51
  7
OpenSans
 11
371.4
 21
219.33156363636346
 31
0.0
100
AcDbText
  0
TEXT
  5
2DB
330
17
100
AcDbEntity
  8
S-TABLE
100
AcDbText
 10
383.4
 20
219.33156363636346
 30
0.0
 40
1.6868727272727269
  1
250 x 250
  7
OpenSans
 11
383.4
 21
219.33156363636346
 31
0.0
100
AcDbText
  0
TEXT
  5
2DC
330
17
100
AcDbEntity
  8
S-TABLE
100
AcDbText
 10
398.4
 20
219.33156363636346
 30
0.0
 40
1.6868727272727269
  1
154
  7
OpenSans
 11
398.4
 21
219.33156363636346
 31
0.0
100
AcDbText
  0
TEXT
  5
2DD
330
17
100
AcDbEntity
  8
S-TABLE
100
AcDbText
 10
413.4
 20
219.33156363636346
 30
0.0
 40
1.6868727272727269
  1
2040
  7
OpenSans
 11
413.4
 21
219.33156363636346
 31
0.0
100
AcDbText
  0
TEXT
  5
2DE
330
17
100
AcDbEntity
  8
S-TABLE
100
AcDbText
 10
430.4
 20
219.33156363636346
 30
0.0
 40
1.6868727272727269
  1
279
  7
OpenSans
 11
430.4
 21
219.33156363636346
 31
0.0
100
AcDbText
  0
LINE
  5
2DF
330
17
100
AcDbEntity
  8
S-TABLE
100
AcDbLine
 10
340.0
 20
218.07499999999982
 30
0.0
 11
449.0
 21
218.07499999999982
 31
0.0
  0
TEXT
  5
2E0
330
17
100
AcDbEntity
  8
S-TABLE
100
AcDbText
 10
341.4
 20
215.13156363636347
 30
0.0
 40
1.6868727272727269
  1
S08
  7
OpenSans
 11
341.4
 21
215.13156363636347
 31
0.0
100
AcDbText
  0
TEXT
  5
2E1
330
17
100
AcDbEntity
  8
S-TABLE
100
AcDbText
 10
358.4
 20
215.13156363636347
 30
0.0
 40
1.6868727272727269
  1
T25
  7
OpenSans
 11
358.4
 21
215.13156363636347
 31
0.0
100
AcDbText
  0
TEXT
  5
2E2
330
17
100
AcDbEntity
  8
S-TABLE
100
AcDbText
 10
371.4
 20
215.13156363636347
 30
0.0
 40
1.6868727272727269
  1
00
  7
OpenSans
 11
371.4
 21
215.13156363636347
 31
0.0
100
AcDbText
  0
TEXT
  5
2E3
330
17
100
AcDbEntity
  8
S-TABLE
100
AcDbText
 10
383.4
 20
215.13156363636347
 30
0.0
 40
1.6868727272727269
  1
-
  7
OpenSans
 11
383.4
 21
215.13156363636347
 31
0.0
100
AcDbText
  0
TEXT
  5
2E4
330
17
100
AcDbEntity
  8
S-TABLE
100
AcDbText
 10
398.4
 20
215.13156363636347
 30
0.0
 40
1.6868727272727269
  1
80
  7
OpenSans
 11
398.4
 21
215.13156363636347
 31
0.0
100
AcDbText
  0
TEXT
  5
2E5
330
17
100
AcDbEntity
  8
S-TABLE
100
AcDbText
 10
413.4
 20
215.13156363636347
 30
0.0
 40
1.6868727272727269
  1
3400
  7
OpenSans
 11
413.4
 21
215.13156363636347
 31
0.0
100
AcDbText
  0
TEXT
  5
2E6
330
17
100
AcDbEntity
  8
S-TABLE
100
AcDbText
 10
430.4
 20
215.13156363636347
 30
0.0
 40
1.6868727272727269
  1
1048
  7
OpenSans
 11
430.4
 21
215.13156363636347
 31
0.0
100
AcDbText
  0
LINE
  5
2E7
330
17
100
AcDbEntity
  8
S-TABLE
100
AcDbLine
 10
340.0
 20
213.87499999999983
 30
0.0
 11
449.0
 21
213.87499999999983
 31
0.0
  0
TEXT
  5
2E8
330
17
100
AcDbEntity
  8
S-TABLE
100
AcDbText
 10
341.4
 20
210.93156363636348
 30
0.0
 40
1.6868727272727269
  1
S09
  7
OpenSans
 11
341.4
 21
210.93156363636348
 31
0.0
100
AcDbText
  0
TEXT
  5
2E9
330
17
100
AcDbEntity
  8
S-TABLE
100
AcDbText
 10
358.4
 20
210.93156363636348
 30
0.0
 40
1.6868727272727269
  1
T16
  7
OpenSans
 11
358.4
 21
210.93156363636348
 31
0.0
100
AcDbText
  0
TEXT
  5
2EA
330
17
100
AcDbEntity
  8
S-TABLE
100
AcDbText
 10
371.4
 20
210.93156363636348
 30
0.0
 40
1.6868727272727269
  1
00
  7
OpenSans
 11
371.4
 21
210.93156363636348
 31
0.0
100
AcDbText
  0
TEXT
  5
2EB
330
17
100
AcDbEntity
  8
S-TABLE
100
AcDbText
 10
383.4
 20
210.93156363636348
 30
0.0
 40
1.6868727272727269
  1
150
  7
OpenSans
 11
383.4
 21
210.93156363636348
 31
0.0
100
AcDbText
  0
TEXT
  5
2EC
330
17
100
AcDbEntity
  8
S-TABLE
100
AcDbText
 10
398.4
 20
210.93156363636348
 30
0.0
 40
1.6868727272727269
  1
12
  7
OpenSans
 11
398.4
 21
210.93156363636348
 31
0.0
100
AcDbText
  0
TEXT
  5
2ED
330
17
100
AcDbEntity
  8
S-TABLE
100
AcDbText
 10
413.4
 20
210.93156363636348
 30
0.0
 40
1.6868727272727269
  1
5984
  7
OpenSans
 11
413.4
 21
210.93156363636348
 31
0.0
100
AcDbText
  0
TEXT
  5
2EE
330
17
100
AcDbEntity
  8
S-TABLE
100
AcDbText
 10
430.4
 20
210.93156363636348
 30
0.0
 40
1.6868727272727269
  1
113
  7
OpenSans
 11
430.4
 21
210.93156363636348
 31
0.0
100
AcDbText
  0
LINE
  5
2EF
330
17
100
AcDbEntity
  8
S-TABLE
100
AcDbLine
 10
340.0
 20
209.67499999999984
 30
0.0
 11
449.0
 21
209.67499999999984
 31
0.0
  0
TEXT
  5
2F0
330
17
100
AcDbEntity
  8
S-TABLE
100
AcDbText
 10
341.4
 20
206.7315636363635
 30
0.0
 40
1.6868727272727269
  1
S10
  7
OpenSans
 11
341.4
 21
206.7315636363635
 31
0.0
100
AcDbText
  0
TEXT
  5
2F1
330
17
100
AcDbEntity
  8
S-TABLE
100
AcDbText
 10
358.4
 20
206.7315636363635
 30
0.0
 40
1.6868727272727269
  1
T16
  7
OpenSans
 11
358.4
 21
206.7315636363635
 31
0.0
100
AcDbText
  0
TEXT
  5
2F2
330
17
100
AcDbEntity
  8
S-TABLE
100
AcDbText
 10
371.4
 20
206.7315636363635
 30
0.0
 40
1.6868727272727269
  1
00
  7
OpenSans
 11
371.4
 21
206.7315636363635
 31
0.0
100
AcDbText
  0
TEXT
  5
2F3
330
17
100
AcDbEntity
  8
S-TABLE
100
AcDbText
 10
383.4
 20
206.7315636363635
 30
0.0
 40
1.6868727272727269
  1
150
  7
OpenSans
 11
383.4
 21
206.7315636363635
 31
0.0
100
AcDbText
  0
TEXT
  5
2F4
330
17
100
AcDbEntity
  8
S-TABLE
100
AcDbText
 10
398.4
 20
206.7315636363635
 30
0.0
 40
1.6868727272727269
  1
136
  7
OpenSans
 11
398.4
 21
206.7315636363635
 31
0.0
100
AcDbText
  0
TEXT
  5
2F5
330
17
100
AcDbEntity
  8
S-TABLE
100
AcDbText
 10
413.4
 20
206.7315636363635
 30
0.0
 40
1.6868727272727269
  1
1880
  7
OpenSans
 11
413.4
 21
206.7315636363635
 31
0.0
100
AcDbText
  0
TEXT
  5
2F6
330
17
100
AcDbEntity
  8
S-TABLE
100
AcDbText
 10
430.4
 20
206.7315636363635
 30
0.0
 40
1.6868727272727269
  1
404
  7
OpenSans
 11
430.4
 21
206.7315636363635
 31
0.0
100
AcDbText
  0
LINE
  5
2F7
330
17
100
AcDbEntity
  8
S-TABLE
100
AcDbLine
 10
340.0
 20
205.47499999999985
 30
0.0
 11
449.0
 21
205.47499999999985
 31
0.0
  0
TEXT
  5
2F8
330
17
100
AcDbEntity
  8
S-TABLE
100
AcDbText
 10
341.4
 20
202.5315636363635
 30
0.0
 40
1.6868727272727269
  1
S11
  7
OpenSans
 11
341.4
 21
202.5315636363635
 31
0.0
100
AcDbText
  0
TEXT
  5
2F9
330
17
100
AcDbEntity
  8
S-TABLE
100
AcDbText
 10
358.4
 20
202.5315636363635
 30
0.0
 40
1.6868727272727269
  1
T12
  7
OpenSans
 11
358.4
 21
202.5315636363635
 31
0.0
100
AcDbText
  0
TEXT
  5
2FA
330
17
100
AcDbEntity
  8
S-TABLE
100
AcDbText
 10
371.4
 20
202.5315636363635
 30
0.0
 40
1.6868727272727269
  1
51
  7
OpenSans
 11
371.4
 21
202.5315636363635
 31
0.0
100
AcDbText
  0
TEXT
  5
2FB
330
17
100
AcDbEntity
  8
S-TABLE
100
AcDbText
 10
383.4
 20
202.5315636363635
 30
0.0
 40
1.6868727272727269
  1
150
  7
OpenSans
 11
383.4
 21
202.5315636363635
 31
0.0
100
AcDbText
  0
TEXT
  5
2FC
330
17
100
AcDbEntity
  8
S-TABLE
100
AcDbText
 10
398.4
 20
202.5315636363635
 30
0.0
 40
1.6868727272727269
  1
68
  7
OpenSans
 11
398.4
 21
202.5315636363635
 31
0.0
100
AcDbText
  0
TEXT
  5
2FD
330
17
100
AcDbEntity
  8
S-TABLE
100
AcDbText
 10
413.4
 20
202.5315636363635
 30
0.0
 40
1.6868727272727269
  1
2640
  7
OpenSans
 11
413.4
 21
202.5315636363635
 31
0.0
100
AcDbText
  0
TEXT
  5
2FE
330
17
100
AcDbEntity
  8
S-TABLE
100
AcDbText
 10
430.4
 20
202.5315636363635
 30
0.0
 40
1.6868727272727269
  1
159
  7
OpenSans
 11
430.4
 21
202.5315636363635
 31
0.0
100
AcDbText
  0
LINE
  5
2FF
330
17
100
AcDbEntity
  8
S-TABLE
100
AcDbLine
 10
340.0
 20
201.27499999999986
 30
0.0
 11
449.0
 21
201.27499999999986
 31
0.0
  0
TEXT
  5
300
330
17
100
AcDbEntity
  8
S-TABLE
100
AcDbText
 10
341.4
 20
198.3315636363635
 30
0.0
 40
1.6868727272727269
  1
S12
  7
OpenSans
 11
341.4
 21
198.3315636363635
 31
0.0
100
AcDbText
  0
TEXT
  5
301
330
17
100
AcDbEntity
  8
S-TABLE
100
AcDbText
 10
358.4
 20
198.3315636363635
 30
0.0
 40
1.6868727272727269
  1
T25
  7
OpenSans
 11
358.4
 21
198.3315636363635
 31
0.0
100
AcDbText
  0
TEXT
  5
302
330
17
100
AcDbEntity
  8
S-TABLE
100
AcDbText
 10
371.4
 20
198.3315636363635
 30
0.0
 40
1.6868727272727269
  1
00
  7
OpenSans
 11
371.4
 21
198.3315636363635
 31
0.0
100
AcDbText
  0
TEXT
  5
303
330
17
100
AcDbEntity
  8
S-TABLE
100
AcDbText
 10
383.4
 20
198.3315636363635
 30
0.0
 40
1.6868727272727269
  1
-
  7
OpenSans
 11
383.4
 21
198.3315636363635
 31
0.0
100
AcDbText
  0
TEXT
  5
304
330
17
100
AcDbEntity
  8
S-TABLE
100
AcDbText
 10
398.4
 20
198.3315636363635
 30
0.0
 40
1.6868727272727269
  1
12
  7
OpenSans
 11
398.4
 21
198.3315636363635
 31
0.0
100
AcDbText
  0
TEXT
  5
305
330
17
100
AcDbEntity
  8
S-TABLE
100
AcDbText
 10
413.4
 20
198.3315636363635
 30
0.0
 40
1.6868727272727269
  1
4800
  7
OpenSans
 11
413.4
 21
198.3315636363635
 31
0.0
100
AcDbText
  0
TEXT
  5
306
330
17
100
AcDbEntity
  8
S-TABLE
100
AcDbText
 10
430.4
 20
198.3315636363635
 30
0.0
 40
1.6868727272727269
  1
222
  7
OpenSans
 11
430.4
 21
198.3315636363635
 31
0.0
100
AcDbText
  0
LINE
  5
307
330
17
100
AcDbEntity
  8
S-TABLE
100
AcDbLine
 10
340.0
 20
197.07499999999987
 30
0.0
 11
449.0
 21
197.07499999999987
 31
0.0
  0
TEXT
  5
308
330
17
100
AcDbEntity
  8
S-TABLE
100
AcDbText
 10
341.4
 20
194.13156363636352
 30
0.0
 40
1.6868727272727269
  1
S13
  7
OpenSans
 11
341.4
 21
194.13156363636352
 31
0.0
100
AcDbText
  0
TEXT
  5
309
330
17
100
AcDbEntity
  8
S-TABLE
100
AcDbText
 10
358.4
 20
194.13156363636352
 30
0.0
 40
1.6868727272727269
  1
T12
  7
OpenSans
 11
358.4
 21
194.13156363636352
 31
0.0
100
AcDbText
  0
TEXT
  5
30A
330
17
100
AcDbEntity
  8
S-TABLE
100
AcDbText
 10
371.4
 20
194.13156363636352
 30
0.0
 40
1.6868727272727269
  1
51
  7
OpenSans
 11
371.4
 21
194.13156363636352
 31
0.0
100
AcDbText
  0
TEXT
  5
30B
330
17
100
AcDbEntity
  8
S-TABLE
100
AcDbText
 10
383.4
 20
194.13156363636352
 30
0.0
 40
1.6868727272727269
  1
150
  7
OpenSans
 11
383.4
 21
194.13156363636352
 31
0.0
100
AcDbText
  0
TEXT
  5
30C
330
17
100
AcDbEntity
  8
S-TABLE
100
AcDbText
 10
398.4
 20
194.13156363636352
 30
0.0
 40
1.6868727272727269
  1
18
  7
OpenSans
 11
398.4
 21
194.13156363636352
 31
0.0
100
AcDbText
  0
TEXT
  5
30D
330
17
100
AcDbEntity
  8
S-TABLE
100
AcDbText
 10
413.4
 20
194.13156363636352
 30
0.0
 40
1.6868727272727269
  1
3340
  7
OpenSans
 11
413.4
 21
194.13156363636352
 31
0.0
100
AcDbText
  0
TEXT
  5
30E
330
17
100
AcDbEntity
  8
S-TABLE
100
AcDbText
 10
430.4
 20
194.13156363636352
 30
0.0
 40
1.6868727272727269
  1
53
  7
OpenSans
 11
430.4
 21
194.13156363636352
 31
0.0
100
AcDbText
  0
LINE
  5
30F
330
17
100
AcDbEntity
  8
S-TABLE
100
AcDbLine
 10
340.0
 20
192.8749999999999
 30
0.0
 11
449.0
 21
192.8749999999999
 31
0.0
  0
TEXT
  5
310
330
17
100
AcDbEntity
  8
S-TABLE
100
AcDbText
 10
341.4
 20
189.93156363636353
 30
0.0
 40
1.6868727272727269
  1
S14
  7
OpenSans
 11
341.4
 21
189.93156363636353
 31
0.0
100
AcDbText
  0
TEXT
  5
311
330
17
100
AcDbEntity
  8
S-TABLE
100
AcDbText
 10
358.4
 20
189.93156363636353
 30
0.0
 40
1.6868727272727269
  1
T25
  7
OpenSans
 11
358.4
 21
189.93156363636353
 31
0.0
100
AcDbText
  0
TEXT
  5
312
330
17
100
AcDbEntity
  8
S-TABLE
100
AcDbText
 10
371.4
 20
189.93156363636353
 30
0.0
 40
1.6868727272727269
  1
00
  7
OpenSans
 11
371.4
 21
189.93156363636353
 31
0.0
100
AcDbText
  0
TEXT
  5
313
330
17
100
AcDbEntity
  8
S-TABLE
100
AcDbText
 10
383.4
 20
189.93156363636353
 30
0.0
 40
1.6868727272727269
  1
-
  7
OpenSans
 11
383.4
 21
189.93156363636353
 31
0.0
100
AcDbText
  0
TEXT
  5
314
330
17
100
AcDbEntity
  8
S-TABLE
100
AcDbText
 10
398.4
 20
189.93156363636353
 30
0.0
 40
1.6868727272727269
  1
24
  7
OpenSans
 11
398.4
 21
189.93156363636353
 31
0.0
100
AcDbText
  0
TEXT
  5
315
330
17
100
AcDbEntity
  8
S-TABLE
100
AcDbText
 10
413.4
 20
189.93156363636353
 30
0.0
 40
1.6868727272727269
  1
6050
  7
OpenSans
 11
413.4
 21
189.93156363636353
 31
0.0
100
AcDbText
  0
TEXT
  5
316
330
17
100
AcDbEntity
  8
S-TABLE
100
AcDbText
 10
430.4
 20
189.93156363636353
 30
0.0
 40
1.6868727272727269
  1
560
  7
OpenSans
 11
430.4
 21
189.93156363636353
 31
0.0
100
AcDbText
  0
LINE
  5
317
330
17
100
AcDbEntity
  8
S-TABLE
100
AcDbLine
 10
340.0
 20
188.6749999999999
 30
0.0
 11
449.0
 21
188.6749999999999
 31
0.0
  0
TEXT
  5
318
330
17
100
AcDbEntity
  8
S-TABLE
100
AcDbText
 10
341.4
 20
185.73156363636355
 30
0.0
 40
1.6868727272727269
  1
S15
  7
OpenSans
 11
341.4
 21
185.73156363636355
 31
0.0
100
AcDbText
  0
TEXT
  5
319
330
17
100
AcDbEntity
  8
S-TABLE
100
AcDbText
 10
358.4
 20
185.73156363636355
 30
0.0
 40
1.6868727272727269
  1
T25
  7
OpenSans
 11
358.4
 21
185.73156363636355
 31
0.0
100
AcDbText
  0
TEXT
  5
31A
330
17
100
AcDbEntity
  8
S-TABLE
100
AcDbText
 10
371.4
 20
185.73156363636355
 30
0.0
 40
1.6868727272727269
  1
00
  7
OpenSans
 11
371.4
 21
185.73156363636355
 31
0.0
100
AcDbText
  0
TEXT
  5
31B
330
17
100
AcDbEntity
  8
S-TABLE
100
AcDbText
 10
383.4
 20
185.73156363636355
 30
0.0
 40
1.6868727272727269
  1
-
  7
OpenSans
 11
383.4
 21
185.73156363636355
 31
0.0
100
AcDbText
  0
TEXT
  5
31C
330
17
100
AcDbEntity
  8
S-TABLE
100
AcDbText
 10
398.4
 20
185.73156363636355
 30
0.0
 40
1.6868727272727269
  1
16
  7
OpenSans
 11
398.4
 21
185.73156363636355
 31
0.0
100
AcDbText
  0
TEXT
  5
31D
330
17
100
AcDbEntity
  8
S-TABLE
100
AcDbText
 10
413.4
 20
185.73156363636355
 30
0.0
 40
1.6868727272727269
  1
4000
  7
OpenSans
 11
413.4
 21
185.73156363636355
 31
0.0
100
AcDbText
  0
TEXT
  5
31E
330
17
100
AcDbEntity
  8
S-TABLE
100
AcDbText
 10
430.4
 20
185.73156363636355
 30
0.0
 40
1.6868727272727269
  1
247
  7
OpenSans
 11
430.4
 21
185.73156363636355
 31
0.0
100
AcDbText
  0
LINE
  5
31F
330
17
100
AcDbEntity
  8
S-TABLE
100
AcDbLine
 10
340.0
 20
184.4749999999999
 30
0.0
 11
449.0
 21
184.4749999999999
 31
0.0
  0
TEXT
  5
320
330
17
100
AcDbEntity
  8
S-TABLE
100
AcDbText
 10
341.4
 20
181.53156363636356
 30
0.0
 40
1.6868727272727269
  1
S16
  7
OpenSans
 11
341.4
 21
181.53156363636356
 31
0.0
100
AcDbText
  0
TEXT
  5
321
330
17
100
AcDbEntity
  8
S-TABLE
100
AcDbText
 10
358.4
 20
181.53156363636356
 30
0.0
 40
1.6868727272727269
  1
T25
  7
OpenSans
 11
358.4
 21
181.53156363636356
 31
0.0
100
AcDbText
  0
TEXT
  5
322
330
17
100
AcDbEntity
  8
S-TABLE
100
AcDbText
 10
371.4
 20
181.53156363636356
 30
0.0
 40
1.6868727272727269
  1
00
  7
OpenSans
 11
371.4
 21
181.53156363636356
 31
0.0
100
AcDbText
  0
TEXT
  5
323
330
17
100
AcDbEntity
  8
S-TABLE
100
AcDbText
 10
383.4
 20
181.53156363636356
 30
0.0
 40
1.6868727272727269
  1
-
  7
OpenSans
 11
383.4
 21
181.53156363636356
 31
0.0
100
AcDbText
  0
TEXT
  5
324
330
17
100
AcDbEntity
  8
S-TABLE
100
AcDbText
 10
398.4
 20
181.53156363636356
 30
0.0
 40
1.6868727272727269
  1
8
  7
OpenSans
 11
398.4
 21
181.53156363636356
 31
0.0
100
AcDbText
  0
TEXT
  5
325
330
17
100
AcDbEntity
  8
S-TABLE
100
AcDbText
 10
413.4
 20
181.53156363636356
 30
0.0
 40
1.6868727272727269
  1
7500
  7
OpenSans
 11
413.4
 21
181.53156363636356
 31
0.0
100
AcDbText
  0
TEXT
  5
326
330
17
100
AcDbEntity
  8
S-TABLE
100
AcDbText
 10
430.4
 20
181.53156363636356
 30
0.0
 40
1.6868727272727269
  1
231
  7
OpenSans
 11
430.4
 21
181.53156363636356
 31
0.0
100
AcDbText
  0
LINE
  5
327
330
17
100
AcDbEntity
  8
S-TABLE
100
AcDbLine
 10
340.0
 20
180.27499999999992
 30
0.0
 11
449.0
 21
180.27499999999992
 31
0.0
  0
LINE
  5
328
330
17
100
AcDbEntity
  8
S-TABLE
100
AcDbLine
 10
340.0
 20
226.4749999999998
 30
0.0
 11
449.0
 21
226.4749999999998
 31
0.0
  0
LINE
  5
329
330
17
100
AcDbEntity
  8
S-TABLE
100
AcDbLine
 10
340.0
 20
226.4749999999998
 30
0.0
 11
340.0
 21
180.27499999999992
 31
0.0
  0
LINE
  5
32A
330
17
100
AcDbEntity
  8
S-TABLE
100
AcDbLine
 10
357.0
 20
226.4749999999998
 30
0.0
 11
357.0
 21
180.27499999999992
 31
0.0
  0
LINE
  5
32B
330
17
100
AcDbEntity
  8
S-TABLE
100
AcDbLine
 10
370.0
 20
226.4749999999998
 30
0.0
 11
370.0
 21
180.27499999999992
 31
0.0
  0
LINE
  5
32C
330
17
100
AcDbEntity
  8
S-TABLE
100
AcDbLine
 10
382.0
 20
226.4749999999998
 30
0.0
 11
382.0
 21
180.27499999999992
 31
0.0
  0
LINE
  5
32D
330
17
100
AcDbEntity
  8
S-TABLE
100
AcDbLine
 10
397.0
 20
226.4749999999998
 30
0.0
 11
397.0
 21
180.27499999999992
 31
0.0
  0
LINE
  5
32E
330
17
100
AcDbEntity
  8
S-TABLE
100
AcDbLine
 10
412.0
 20
226.4749999999998
 30
0.0
 11
412.0
 21
180.27499999999992
 31
0.0
  0
LINE
  5
32F
330
17
100
AcDbEntity
  8
S-TABLE
100
AcDbLine
 10
429.0
 20
226.4749999999998
 30
0.0
 11
429.0
 21
180.27499999999992
 31
0.0
  0
LINE
  5
330
330
17
100
AcDbEntity
  8
S-TABLE
100
AcDbLine
 10
449.0
 20
226.4749999999998
 30
0.0
 11
449.0
 21
180.27499999999992
 31
0.0
  0
TEXT
  5
331
330
17
100
AcDbEntity
  8
S-TABLE
100
AcDbText
 10
340.0
 20
175.87499999999991
 30
0.0
 40
1.4
  1
SHEET SUB-TOTAL  3,316 kg     FULL SCHEDULE: R-004 and Structural CAD/Schedules/BBS_MASTER.md
  7
OpenSans
 11
340.0
 21
175.87499999999991
 31
0.0
100
AcDbText
  0
LWPOLYLINE
  5
332
330
17
100
AcDbEntity
  8
S-TITLE
100
AcDbPolyline
 90
4
 70
1
 10
651.0
 20
10.0
 10
831.0
 20
10.0
 10
831.0
 20
110.0
 10
651.0
 20
110.0
  0
LINE
  5
333
330
17
100
AcDbEntity
  8
S-TITLE
100
AcDbLine
 10
651.0
 20
30.0
 30
0.0
 11
831.0
 21
30.0
 31
0.0
  0
LINE
  5
334
330
17
100
AcDbEntity
  8
S-TITLE
100
AcDbLine
 10
651.0
 20
42.0
 30
0.0
 11
831.0
 21
42.0
 31
0.0
  0
LINE
  5
335
330
17
100
AcDbEntity
  8
S-TITLE
100
AcDbLine
 10
651.0
 20
54.0
 30
0.0
 11
831.0
 21
54.0
 31
0.0
  0
LINE
  5
336
330
17
100
AcDbEntity
  8
S-TITLE
100
AcDbLine
 10
651.0
 20
66.0
 30
0.0
 11
831.0
 21
66.0
 31
0.0
  0
LINE
  5
337
330
17
100
AcDbEntity
  8
S-TITLE
100
AcDbLine
 10
651.0
 20
88.0
 30
0.0
 11
831.0
 21
88.0
 31
0.0
  0
LINE
  5
338
330
17
100
AcDbEntity
  8
S-TITLE
100
AcDbLine
 10
763.0
 20
10.0
 30
0.0
 11
763.0
 21
30.0
 31
0.0
  0
LINE
  5
339
330
17
100
AcDbEntity
  8
S-TITLE
100
AcDbLine
 10
797.0
 20
10.0
 30
0.0
 11
797.0
 21
30.0
 31
0.0
  0
TEXT
  5
33A
330
17
100
AcDbEntity
  8
S-TITLE
100
AcDbText
 10
653.0
 20
24.6
 30
0.0
 40
1.4
  1
DRAWING No.
  7
OpenSans
 11
653.0
 21
24.6
 31
0.0
100
AcDbText
  0
TEXT
  5
33B
330
17
100
AcDbEntity
  8
S-TITLE
100
AcDbText
 10
673.0
 20
14.2
 30
0.0
 40
3.5
  1
R-303
  7
OpenSans
 11
673.0
 21
14.2
 31
0.0
100
AcDbText
  0
TEXT
  5
33C
330
17
100
AcDbEntity
  8
S-TITLE
100
AcDbText
 10
765.0
 20
24.6
 30
0.0
 40
1.4
  1
REV
  7
OpenSans
 11
765.0
 21
24.6
 31
0.0
100
AcDbText
  0
TEXT
  5
33D
330
17
100
AcDbEntity
  8
S-TITLE
100
AcDbText
 10
769.0
 20
14.2
 30
0.0
 40
3.5
  1
SC1
  7
OpenSans
 11
769.0
 21
14.2
 31
0.0
100
AcDbText
  0
TEXT
  5
33E
330
17
100
AcDbEntity
  8
S-TITLE
100
AcDbText
 10
799.0
 20
24.6
 30
0.0
 40
1.4
  1
SHEET
  7
OpenSans
 11
799.0
 21
24.6
 31
0.0
100
AcDbText
  0
TEXT
  5
33F
330
17
100
AcDbEntity
  8
S-TITLE
100
AcDbText
 10
799.0
 20
15.0
 30
0.0
 40
1.6
  1
15 OF 30
  7
OpenSans
 11
799.0
 21
15.0
 31
0.0
100
AcDbText
  0
LINE
  5
340
330
17
100
AcDbEntity
  8
S-TITLE
100
AcDbLine
 10
747.0
 20
30.0
 30
0.0
 11
747.0
 21
42.0
 31
0.0
  0
TEXT
  5
341
330
17
100
AcDbEntity
  8
S-TITLE
100
AcDbText
 10
653.0
 20
34.4
 30
0.0
 40
1.6
  1
SCALE   1:25, 1:40
  7
OpenSans
 11
653.0
 21
34.4
 31
0.0
100
AcDbText
  0
TEXT
  5
342
330
17
100
AcDbEntity
  8
S-TITLE
100
AcDbText
 10
749.0
 20
34.4
 30
0.0
 40
1.6
  1
DATE   04.09.2026
  7
OpenSans
 11
749.0
 21
34.4
 31
0.0
100
AcDbText
  0
TEXT
  5
343
330
17
100
AcDbEntity
  8
S-TITLE
100
AcDbText
 10
653.0
 20
46.4
 30
0.0
 40
1.4
  1
DESIGNED  [PLACEHOLDER]
  7
OpenSans
 11
653.0
 21
46.4
 31
0.0
100
AcDbText
  0
TEXT
  5
344
330
17
100
AcDbEntity
  8
S-TITLE
100
AcDbText
 10
713.0
 20
46.4
 30
0.0
 40
1.4
  1
CHECKED  [PLACEHOLDER]
  7
OpenSans
 11
713.0
 21
46.4
 31
0.0
100
AcDbText
  0
TEXT
  5
345
330
17
100
AcDbEntity
  8
S-TITLE
100
AcDbText
 10
773.0
 20
46.4
 30
0.0
 40
1.4
  1
APPROVED  [PLACEHOLDER]
  7
OpenSans
 11
773.0
 21
46.4
 31
0.0
100
AcDbText
  0
TEXT
  5
346
330
17
100
AcDbEntity
  8
S-TITLE
100
AcDbText
 10
653.0
 20
58.4
 30
0.0
 40
1.4
  1
STATUS
  7
OpenSans
 11
653.0
 21
58.4
 31
0.0
100
AcDbText
  0
TEXT
  5
347
330
17
100
AcDbEntity
  8
S-BLAST
100
AcDbText
 10
673.0
 20
58.0
 30
0.0
 40
1.6
  1
FOR REVIEW - NOT FOR CONSTRUCTION
  7
OpenSans
 11
673.0
 21
58.0
 31
0.0
100
AcDbText
  0
TEXT
  5
348
330
17
100
AcDbEntity
  8
S-TITLE
100
AcDbText
 10
653.0
 20
83.4
 30
0.0
 40
1.4
  1
DRAWING TITLE
  7
OpenSans
 11
653.0
 21
83.4
 31
0.0
100
AcDbText
  0
TEXT
  5
349
330
17
100
AcDbEntity
  8
S-TITLE
100
AcDbText
 10
653.0
 20
75.4
 30
0.0
 40
2.4
  1
ROOF OPENING DETAILS
  7
OpenSans
 11
653.0
 21
75.4
 31
0.0
100
AcDbText
  0
TEXT
  5
34A
330
17
100
AcDbEntity
  8
S-TITLE
100
AcDbText
 10
653.0
 20
68.8
 30
0.0
 40
1.4
  1
ESCAPE-SHAFT COLLARS · STAIR VOID · CANTILEVER PAD · RE-ENTRANT CORNERS
  7
OpenSans
 11
653.0
 21
68.8
 31
0.0
100
AcDbText
  0
TEXT
  5
34B
330
17
100
AcDbEntity
  8
S-TITLE
100
AcDbText
 10
653.0
 20
105.2
 30
0.0
 40
1.4
  1
PROJECT
  7
OpenSans
 11
653.0
 21
105.2
 31
0.0
100
AcDbText
  0
TEXT
  5
34C
330
17
100
AcDbEntity
  8
S-TITLE
100
AcDbText
 10
653.0
 20
99.6
 30
0.0
 40
1.6
  1
UNDERGROUND CBRN-HARDENED BLAST-RESISTANT
  7
OpenSans
 11
653.0
 21
99.6
 31
0.0
100
AcDbText
  0
TEXT
  5
34D
330
17
100
AcDbEntity
  8
S-TITLE
100
AcDbText
 10
653.0
 20
95.0
 30
0.0
 40
1.6
  1
PROTECTIVE STRUCTURE  -  PUNE, MAHARASHTRA
  7
OpenSans
 11
653.0
 21
95.0
 31
0.0
100
AcDbText
  0
TEXT
  5
34E
330
17
100
AcDbEntity
  8
S-TITLE
100
AcDbText
 10
653.0
 20
90.0
 30
0.0
 40
1.4
  1
STRUCTURAL PHASE 2 REV A + M1   ·   SENTRY POST NOT IN THIS PACKAGE
  7
OpenSans
 11
653.0
 21
90.0
 31
0.0
100
AcDbText
  0
ENDSEC
  0
SECTION
  2
OBJECTS
  0
DICTIONARY
  5
A
330
0
100
AcDbDictionary
281
1
  3
ACAD_COLOR
350
B
  3
ACAD_GROUP
350
C
  3
ACAD_LAYOUT
350
D
  3
ACAD_MATERIAL
350
E
  3
ACAD_MLEADERSTYLE
350
F
  3
ACAD_MLINESTYLE
350
10
  3
ACAD_PLOTSETTINGS
350
11
  3
ACAD_PLOTSTYLENAME
350
12
  3
ACAD_SCALELIST
350
14
  3
ACAD_TABLESTYLE
350
15
  3
ACAD_VISUALSTYLE
350
16
  3
EZDXF_META
350
2D
  0
DICTIONARY
  5
B
330
A
100
AcDbDictionary
281
1
  0
DICTIONARY
  5
C
330
A
100
AcDbDictionary
281
1
  0
DICTIONARY
  5
D
330
A
100
AcDbDictionary
281
1
  3
Model
350
1A
  3
Layout1
350
1E
  0
DICTIONARY
  5
E
330
A
100
AcDbDictionary
281
1
  3
ByBlock
350
1F
  3
ByLayer
350
20
  3
Global
350
21
  0
DICTIONARY
  5
F
330
A
100
AcDbDictionary
281
1
  3
Standard
350
2C
  0
DICTIONARY
  5
10
330
A
100
AcDbDictionary
281
1
  3
Standard
350
22
  0
DICTIONARY
  5
11
330
A
100
AcDbDictionary
281
1
  0
ACDBDICTIONARYWDFLT
  5
12
330
A
100
AcDbDictionary
281
1
  3
Normal
350
13
100
AcDbDictionaryWithDefault
340
13
  0
ACDBPLACEHOLDER
  5
13
330
12
  0
DICTIONARY
  5
14
330
A
100
AcDbDictionary
281
1
  0
DICTIONARY
  5
15
330
A
100
AcDbDictionary
281
1
  0
DICTIONARY
  5
16
330
A
100
AcDbDictionary
281
1
  3
2dWireframe
350
5A
  3
Basic
350
5B
  3
Brighten
350
5C
  3
ColorChange
350
5D
  3
Conceptual
350
5E
  3
Dim
350
5F
  3
EdgeColorOff
350
60
  3
Facepattern
350
61
  3
Flat
350
62
  3
FlatWithEdges
350
63
  3
Gouraud
350
64
  3
GouraudWithEdges
350
65
  3
Hidden
350
66
  3
JitterOff
350
67
  3
Linepattern
350
68
  3
Modeling
350
69
  3
OverhangOff
350
6A
  3
Realistic
350
6B
  3
Shaded
350
6C
  3
Shaded with edges
350
6D
  3
Shades of Gray
350
6E
  3
Sketchy
350
6F
  3
Thicken
350
70
  3
Wireframe
350
71
  3
X-Ray
350
72
  0
LAYOUT
  5
1A
330
D
100
AcDbPlotSettings
  1

  4
A3
  6

 40
7.5
 41
20.0
 42
7.5
 43
20.0
 44
420.0
 45
297.0
 46
0.0
 47
0.0
 48
0.0
 49
0.0
140
0.0
141
0.0
142
1.0
143
1.0
 70
1024
 72
1
 73
0
 74
5
  7

 75
16
 76
0
 77
2
 78
300
147
1.0
148
0.0
149
0.0
100
AcDbLayout
  1
Model
 70
1
 71
0
 10
0.0
 20
0.0
 11
420.0
 21
297.0
 12
0.0
 22
0.0
 32
0.0
 14
1e+20
 24
1e+20
 34
1e+20
 15
-1e+20
 25
-1e+20
 35
-1e+20
146
0.0
 13
0.0
 23
0.0
 33
0.0
 16
1.0
 26
0.0
 36
0.0
 17
0.0
 27
1.0
 37
0.0
 76
1
330
17
  0
LAYOUT
  5
1E
330
D
100
AcDbPlotSettings
  1

  4
A3
  6

 40
7.5
 41
20.0
 42
7.5
 43
20.0
 44
420.0
 45
297.0
 46
0.0
 47
0.0
 48
0.0
 49
0.0
140
0.0
141
0.0
142
1.0
143
1.0
 70
0
 72
1
 73
0
 74
5
  7

 75
16
 76
0
 77
2
 78
300
147
1.0
148
0.0
149
0.0
100
AcDbLayout
  1
Layout1
 70
1
 71
1
 10
0.0
 20
0.0
 11
420.0
 21
297.0
 12
0.0
 22
0.0
 32
0.0
 14
1e+20
 24
1e+20
 34
1e+20
 15
-1e+20
 25
-1e+20
 35
-1e+20
146
0.0
 13
0.0
 23
0.0
 33
0.0
 16
1.0
 26
0.0
 36
0.0
 17
0.0
 27
1.0
 37
0.0
 76
1
330
1B
  0
MATERIAL
  5
1F
102
{ACAD_REACTORS
330
E
102
}
330
E
100
AcDbMaterial
  1
ByBlock
  2

 70
0
 40
1.0
 71
1
 41
1.0
 91
-1023410177
 42
1.0
 72
1
  3

 73
1
 74
1
 75
1
 44
0.5
 73
0
 45
1.0
 46
1.0
 77
1
  4

 78
1
 79
1
170
1
 48
1.0
171
1
  6

172
1
173
1
174
1
140
1.0
141
1.0
175
1
  7

176
1
177
1
178
1
143
1.0
179
1
  8

270
1
271
1
272
1
145
1.0
146
1.0
273
1
  9

274
1
275
1
276
1
 42
1.0
 72
1
  3

 73
1
 74
1
 75
1
 94
63
  0
MATERIAL
  5
20
102
{ACAD_REACTORS
330
E
102
}
330
E
100
AcDbMaterial
  1
ByLayer
  2

 70
0
 40
1.0
 71
1
 41
1.0
 91
-1023410177
 42
1.0
 72
1
  3

 73
1
 74
1
 75
1
 44
0.5
 73
0
 45
1.0
 46
1.0
 77
1
  4

 78
1
 79
1
170
1
 48
1.0
171
1
  6

172
1
173
1
174
1
140
1.0
141
1.0
175
1
  7

176
1
177
1
178
1
143
1.0
179
1
  8

270
1
271
1
272
1
145
1.0
146
1.0
273
1
  9

274
1
275
1
276
1
 42
1.0
 72
1
  3

 73
1
 74
1
 75
1
 94
63
  0
MATERIAL
  5
21
102
{ACAD_REACTORS
330
E
102
}
330
E
100
AcDbMaterial
  1
Global
  2

 70
0
 40
1.0
 71
1
 41
1.0
 91
-1023410177
 42
1.0
 72
1
  3

 73
1
 74
1
 75
1
 44
0.5
 73
0
 45
1.0
 46
1.0
 77
1
  4

 78
1
 79
1
170
1
 48
1.0
171
1
  6

172
1
173
1
174
1
140
1.0
141
1.0
175
1
  7

176
1
177
1
178
1
143
1.0
179
1
  8

270
1
271
1
272
1
145
1.0
146
1.0
273
1
  9

274
1
275
1
276
1
 42
1.0
 72
1
  3

 73
1
 74
1
 75
1
 94
63
  0
MLINESTYLE
  5
22
102
{ACAD_REACTORS
330
10
102
}
330
10
100
AcDbMlineStyle
  2
Standard
 70
0
  3

 62
256
 51
90.0
 52
90.0
 71
2
 49
0.5
 62
256
  6
BYLAYER
 49
-0.5
 62
256
  6
BYLAYER
  0
MLEADERSTYLE
  5
2C
102
{ACAD_REACTORS
330
F
102
}
330
F
100
AcDbMLeaderStyle
179
2
170
2
171
1
172
0
 90
2
 40
0.0
 41
0.0
173
1
 91
-1056964608
 92
-2
290
1
 42
2.0
291
1
 43
8.0
  3
Standard
 44
4.0
300

342
29
174
1
175
1
176
0
178
1
 93
-1056964608
 45
4.0
292
0
297
0
 46
4.0
 94
-1056964608
 47
1.0
 49
1.0
140
1.0
294
1
141
0.0
177
0
142
1.0
295
0
296
0
143
3.75
271
0
272
9
273
9
  0
DICTIONARY
  5
2D
330
A
100
AcDbDictionary
280
1
281
1
  3
CREATED_BY_EZDXF
350
2E
  3
WRITTEN_BY_EZDXF
350
351
  0
DICTIONARYVAR
  5
2E
330
2D
100
DictionaryVariables
280
0
  1
1.4.4 @ 2026-09-09T16:15:23.491611+00:00
  0
VISUALSTYLE
  5
5A
102
{ACAD_REACTORS
330
16
102
}
330
16
100
AcDbVisualStyle
  2
2dWireframe
 70
4
 90
0
 40
0.6
 62
7
290
0
291
0
  0
VISUALSTYLE
  5
5B
102
{ACAD_REACTORS
330
16
102
}
330
16
100
AcDbVisualStyle
  2
Basic
 70
7
 90
1
 40
0.6
 62
7
290
0
291
1
  0
VISUALSTYLE
  5
5C
102
{ACAD_REACTORS
330
16
102
}
330
16
100
AcDbVisualStyle
  2
Brighten
 70
12
 90
2
 40
0.6
 62
7
290
0
291
1
  0
VISUALSTYLE
  5
5D
102
{ACAD_REACTORS
330
16
102
}
330
16
100
AcDbVisualStyle
  2
ColorChange
 70
16
 90
2
 40
0.6
 62
8
290
0
291
1
  0
VISUALSTYLE
  5
5E
102
{ACAD_REACTORS
330
16
102
}
330
16
100
AcDbVisualStyle
  2
Conceptual
 70
9
 90
3
 40
0.6
 62
7
290
0
291
0
  0
VISUALSTYLE
  5
5F
102
{ACAD_REACTORS
330
16
102
}
330
16
100
AcDbVisualStyle
  2
Dim
 70
11
 90
2
 40
0.6
 62
7
290
0
291
1
  0
VISUALSTYLE
  5
60
102
{ACAD_REACTORS
330
16
102
}
330
16
100
AcDbVisualStyle
  2
EdgeColorOff
 70
22
 90
2
 40
0.6
 62
7
290
0
291
1
  0
VISUALSTYLE
  5
61
102
{ACAD_REACTORS
330
16
102
}
330
16
100
AcDbVisualStyle
  2
Facepattern
 70
15
 90
2
 40
0.6
 62
7
290
0
291
1
  0
VISUALSTYLE
  5
62
102
{ACAD_REACTORS
330
16
102
}
330
16
100
AcDbVisualStyle
  2
Flat
 70
0
 90
2
 40
0.6
 62
7
290
0
291
1
  0
VISUALSTYLE
  5
63
102
{ACAD_REACTORS
330
16
102
}
330
16
100
AcDbVisualStyle
  2
FlatWithEdges
 70
1
 90
2
 40
0.6
 62
7
290
0
291
1
  0
VISUALSTYLE
  5
64
102
{ACAD_REACTORS
330
16
102
}
330
16
100
AcDbVisualStyle
  2
Gouraud
 70
2
 90
2
 40
0.6
 62
7
290
0
291
1
  0
VISUALSTYLE
  5
65
102
{ACAD_REACTORS
330
16
102
}
330
16
100
AcDbVisualStyle
  2
GouraudWithEdges
 70
3
 90
2
 40
0.6
 62
7
290
0
291
1
  0
VISUALSTYLE
  5
66
102
{ACAD_REACTORS
330
16
102
}
330
16
100
AcDbVisualStyle
  2
Hidden
 70
6
 90
1
 40
0.6
 62
7
290
0
291
0
  0
VISUALSTYLE
  5
67
102
{ACAD_REACTORS
330
16
102
}
330
16
100
AcDbVisualStyle
  2
JitterOff
 70
20
 90
2
 40
0.6
 62
7
290
0
291
1
  0
VISUALSTYLE
  5
68
102
{ACAD_REACTORS
330
16
102
}
330
16
100
AcDbVisualStyle
  2
Linepattern
 70
14
 90
2
 40
0.6
 62
7
290
0
291
1
  0
VISUALSTYLE
  5
69
102
{ACAD_REACTORS
330
16
102
}
330
16
100
AcDbVisualStyle
  2
Modeling
 70
10
 90
2
 40
0.6
 62
7
290
0
291
0
  0
VISUALSTYLE
  5
6A
102
{ACAD_REACTORS
330
16
102
}
330
16
100
AcDbVisualStyle
  2
OverhangOff
 70
21
 90
2
 40
0.6
 62
7
290
0
291
1
  0
VISUALSTYLE
  5
6B
102
{ACAD_REACTORS
330
16
102
}
330
16
100
AcDbVisualStyle
  2
Realistic
 70
8
 90
2
 40
0.6
 62
7
290
0
291
0
  0
VISUALSTYLE
  5
6C
102
{ACAD_REACTORS
330
16
102
}
330
16
100
AcDbVisualStyle
  2
Shaded
 70
27
 90
2
 40
0.6
 62
7
290
0
291
0
  0
VISUALSTYLE
  5
6D
102
{ACAD_REACTORS
330
16
102
}
330
16
100
AcDbVisualStyle
  2
Shaded with edges
 70
26
 90
2
 40
0.6
 62
7
290
0
291
0
  0
VISUALSTYLE
  5
6E
102
{ACAD_REACTORS
330
16
102
}
330
16
100
AcDbVisualStyle
  2
Shades of Gray
 70
23
 90
2
 40
0.6
 62
7
290
0
291
0
  0
VISUALSTYLE
  5
6F
102
{ACAD_REACTORS
330
16
102
}
330
16
100
AcDbVisualStyle
  2
Sketchy
 70
24
 90
1
 40
0.6
 62
7
290
0
291
0
  0
VISUALSTYLE
  5
70
102
{ACAD_REACTORS
330
16
102
}
330
16
100
AcDbVisualStyle
  2
Thicken
 70
13
 90
2
 40
0.6
 62
7
290
0
291
1
  0
VISUALSTYLE
  5
71
102
{ACAD_REACTORS
330
16
102
}
330
16
100
AcDbVisualStyle
  2
Wireframe
 70
5
 90
0
 40
0.6
 62
7
290
0
291
0
  0
VISUALSTYLE
  5
72
102
{ACAD_REACTORS
330
16
102
}
330
16
100
AcDbVisualStyle
  2
X-Ray
 70
25
 90
2
 40
0.5
 62
7
290
0
291
0
  0
DICTIONARYVAR
  5
351
330
2D
100
DictionaryVariables
280
0
  1
1.4.4 @ 2026-09-09T16:15:23.515945+00:00
  0
ENDSEC
  0
EOF
