  0
SECTION
  2
HEADER
  9
$ACADVER
  1
AC1024
  9
$ACADMAINTVER
 70
6
  9
$DWGCODEPAGE
  3
ANSI_1252
  9
$LASTSAVEDBY
  1
ezdxf
  9
$INSBASE
 10
0.0
 20
0.0
 30
0.0
  9
$EXTMIN
 10
1e+20
 20
1e+20
 30
1e+20
  9
$EXTMAX
 10
-1e+20
 20
-1e+20
 30
-1e+20
  9
$LIMMIN
 10
0.0
 20
0.0
  9
$LIMMAX
 10
420.0
 20
297.0
  9
$ORTHOMODE
 70
0
  9
$REGENMODE
 70
1
  9
$FILLMODE
 70
1
  9
$QTEXTMODE
 70
0
  9
$MIRRTEXT
 70
1
  9
$LTSCALE
 40
1.0
  9
$ATTMODE
 70
1
  9
$TEXTSIZE
 40
2.5
  9
$TRACEWID
 40
1.0
  9
$TEXTSTYLE
  7
OpenSans
  9
$CLAYER
  8
0
  9
$CELTYPE
  6
ByLayer
  9
$CECOLOR
 62
256
  9
$CELTSCALE
 40
1.0
  9
$DISPSILH
 70
0
  9
$DIMSCALE
 40
1.0
  9
$DIMASZ
 40
0.175
  9
$DIMEXO
 40
0.125
  9
$DIMDLI
 40
3.75
  9
$DIMRND
 40
0.0
  9
$DIMDLE
 40
0.0
  9
$DIMEXE
 40
0.375
  9
$DIMTP
 40
0.0
  9
$DIMTM
 40
0.0
  9
$DIMTXT
 40
0.25
  9
$DIMCEN
 40
2.5
  9
$DIMTSZ
 40
0.0
  9
$DIMTOL
 70
0
  9
$DIMLIM
 70
0
  9
$DIMTIH
 70
0
  9
$DIMTOH
 70
0
  9
$DIMSE1
 70
0
  9
$DIMSE2
 70
0
  9
$DIMTAD
 70
1
  9
$DIMZIN
 70
12
  9
$DIMBLK
  1
ARCHTICK
  9
$DIMASO
 70
1
  9
$DIMSHO
 70
1
  9
$DIMPOST
  1

  9
$DIMAPOST
  1

  9
$DIMALT
 70
0
  9
$DIMALTD
 70
3
  9
$DIMALTF
 40
0.03937007874
  9
$DIMLFAC
 40
100.0
  9
$DIMTOFL
 70
1
  9
$DIMTVP
 40
0.0
  9
$DIMTIX
 70
0
  9
$DIMSOXD
 70
0
  9
$DIMSAH
 70
0
  9
$DIMBLK1
  1

  9
$DIMBLK2
  1

  9
$DIMSTYLE
  2
EZDXF
  9
$DIMCLRD
 70
0
  9
$DIMCLRE
 70
0
  9
$DIMCLRT
 70
0
  9
$DIMTFAC
 40
0.5
  9
$DIMGAP
 40
0.1
  9
$DIMJUST
 70
0
  9
$DIMSD1
 70
0
  9
$DIMSD2
 70
0
  9
$DIMTOLJ
 70
0
  9
$DIMTZIN
 70
8
  9
$DIMALTZ
 70
0
  9
$DIMALTTZ
 70
0
  9
$DIMUPT
 70
1
  9
$DIMDEC
 70
2
  9
$DIMTDEC
 70
2
  9
$DIMALTU
 70
2
  9
$DIMALTTD
 70
3
  9
$DIMTXSTY
  7
OpenSansCondensed-Light
  9
$DIMAUNIT
 70
0
  9
$DIMADEC
 70
2
  9
$DIMALTRND
 40
0.0
  9
$DIMAZIN
 70
3
  9
$DIMDSEP
 70
46
  9
$DIMATFIT
 70
3
  9
$DIMFRAC
 70
0
  9
$DIMLDRBLK
  1

  9
$DIMLUNIT
 70
2
  9
$DIMLWD
 70
-2
  9
$DIMLWE
 70
-2
  9
$DIMTMOVE
 70
2
  9
$DIMFXL
 40
1.0
  9
$DIMFXLON
 70
0
  9
$DIMJOGANG
 40
0.785398163397
  9
$DIMTFILL
 70
0
  9
$DIMTFILLCLR
 70
0
  9
$DIMARCSYM
 70
0
  9
$DIMLTYPE
  6

  9
$DIMLTEX1
  6

  9
$DIMLTEX2
  6

  9
$DIMTXTDIRECTION
 70
0
  9
$LUNITS
 70
2
  9
$LUPREC
 70
4
  9
$SKETCHINC
 40
1.0
  9
$FILLETRAD
 40
10.0
  9
$AUNITS
 70
0
  9
$AUPREC
 70
2
  9
$MENU
  1
.
  9
$ELEVATION
 40
0.0
  9
$PELEVATION
 40
0.0
  9
$THICKNESS
 40
0.0
  9
$LIMCHECK
 70
0
  9
$CHAMFERA
 40
0.0
  9
$CHAMFERB
 40
0.0
  9
$CHAMFERC
 40
0.0
  9
$CHAMFERD
 40
0.0
  9
$SKPOLY
 70
0
  9
$TDCREATE
 40
2461294.071458333
  9
$TDUCREATE
 40
2458532.153996898
  9
$TDUPDATE
 40
2461294.071458333
  9
$TDUUPDATE
 40
2458532.1544311
  9
$TDINDWG
 40
0.0
  9
$TDUSRTIMER
 40
0.0
  9
$USRTIMER
 70
1
  9
$ANGBASE
 50
0.0
  9
$ANGDIR
 70
0
  9
$PDMODE
 70
0
  9
$PDSIZE
 40
0.0
  9
$PLINEWID
 40
0.0
  9
$SPLFRAME
 70
0
  9
$SPLINETYPE
 70
6
  9
$SPLINESEGS
 70
8
  9
$HANDSEED
  5
32D
  9
$SURFTAB1
 70
6
  9
$SURFTAB2
 70
6
  9
$SURFTYPE
 70
6
  9
$SURFU
 70
6
  9
$SURFV
 70
6
  9
$UCSBASE
  2

  9
$UCSNAME
  2

  9
$UCSORG
 10
0.0
 20
0.0
 30
0.0
  9
$UCSXDIR
 10
1.0
 20
0.0
 30
0.0
  9
$UCSYDIR
 10
0.0
 20
1.0
 30
0.0
  9
$UCSORTHOREF
  2

  9
$UCSORTHOVIEW
 70
0
  9
$UCSORGTOP
 10
0.0
 20
0.0
 30
0.0
  9
$UCSORGBOTTOM
 10
0.0
 20
0.0
 30
0.0
  9
$UCSORGLEFT
 10
0.0
 20
0.0
 30
0.0
  9
$UCSORGRIGHT
 10
0.0
 20
0.0
 30
0.0
  9
$UCSORGFRONT
 10
0.0
 20
0.0
 30
0.0
  9
$UCSORGBACK
 10
0.0
 20
0.0
 30
0.0
  9
$PUCSBASE
  2

  9
$PUCSNAME
  2

  9
$PUCSORG
 10
0.0
 20
0.0
 30
0.0
  9
$PUCSXDIR
 10
1.0
 20
0.0
 30
0.0
  9
$PUCSYDIR
 10
0.0
 20
1.0
 30
0.0
  9
$PUCSORTHOREF
  2

  9
$PUCSORTHOVIEW
 70
0
  9
$PUCSORGTOP
 10
0.0
 20
0.0
 30
0.0
  9
$PUCSORGBOTTOM
 10
0.0
 20
0.0
 30
0.0
  9
$PUCSORGLEFT
 10
0.0
 20
0.0
 30
0.0
  9
$PUCSORGRIGHT
 10
0.0
 20
0.0
 30
0.0
  9
$PUCSORGFRONT
 10
0.0
 20
0.0
 30
0.0
  9
$PUCSORGBACK
 10
0.0
 20
0.0
 30
0.0
  9
$USERI1
 70
0
  9
$USERI2
 70
0
  9
$USERI3
 70
0
  9
$USERI4
 70
0
  9
$USERI5
 70
0
  9
$USERR1
 40
0.0
  9
$USERR2
 40
0.0
  9
$USERR3
 40
0.0
  9
$USERR4
 40
0.0
  9
$USERR5
 40
0.0
  9
$WORLDVIEW
 70
1
  9
$SHADEDGE
 70
3
  9
$SHADEDIF
 70
70
  9
$TILEMODE
 70
1
  9
$MAXACTVP
 70
64
  9
$PINSBASE
 10
0.0
 20
0.0
 30
0.0
  9
$PLIMCHECK
 70
0
  9
$PEXTMIN
 10
1e+20
 20
1e+20
 30
1e+20
  9
$PEXTMAX
 10
-1e+20
 20
-1e+20
 30
-1e+20
  9
$PLIMMIN
 10
0.0
 20
0.0
  9
$PLIMMAX
 10
420.0
 20
297.0
  9
$UNITMODE
 70
0
  9
$VISRETAIN
 70
1
  9
$PLINEGEN
 70
0
  9
$PSLTSCALE
 70
1
  9
$TREEDEPTH
 70
3020
  9
$CMLSTYLE
  2
Standard
  9
$CMLJUST
 70
0
  9
$CMLSCALE
 40
20.0
  9
$PROXYGRAPHICS
 70
1
  9
$MEASUREMENT
 70
1
  9
$CELWEIGHT
370
-1
  9
$ENDCAPS
280
0
  9
$JOINSTYLE
280
0
  9
$LWDISPLAY
290
0
  9
$INSUNITS
 70
4
  9
$HYPERLINKBASE
  1

  9
$STYLESHEET
  1

  9
$XEDIT
290
1
  9
$CEPSNTYPE
380
0
  9
$PSTYLEMODE
290
1
  9
$FINGERPRINTGUID
  2
{7BBFA6E1-9B8E-4D6E-A6DF-B719E29596D0}
  9
$VERSIONGUID
  2
{FFE22B32-A798-4D01-BF06-34D85E6F8F66}
  9
$EXTNAMES
290
1
  9
$PSVPSCALE
 40
0.0
  9
$OLESTARTUP
290
0
  9
$SORTENTS
280
127
  9
$INDEXCTL
280
0
  9
$HIDETEXT
280
1
  9
$XCLIPFRAME
280
1
  9
$HALOGAP
280
0
  9
$OBSCOLOR
 70
257
  9
$OBSLTYPE
280
0
  9
$INTERSECTIONDISPLAY
280
0
  9
$INTERSECTIONCOLOR
 70
257
  9
$DIMASSOC
280
2
  9
$PROJECTNAME
  1

  9
$CAMERADISPLAY
290
0
  9
$LENSLENGTH
 40
50.0
  9
$CAMERAHEIGHT
 40
0.0
  9
$STEPSPERSEC
 40
24.0
  9
$STEPSIZE
 40
100.0
  9
$3DDWFPREC
 40
2.0
  9
$PSOLWIDTH
 40
0.005
  9
$PSOLHEIGHT
 40
0.08
  9
$LOFTANG1
 40
1.570796326795
  9
$LOFTANG2
 40
1.570796326795
  9
$LOFTMAG1
 40
0.0
  9
$LOFTMAG2
 40
0.0
  9
$LOFTPARAM
 70
7
  9
$LOFTNORMALS
280
1
  9
$LATITUDE
 40
37.795
  9
$LONGITUDE
 40
-122.394
  9
$NORTHDIRECTION
 40
0.0
  9
$TIMEZONE
 70
-8000
  9
$LIGHTGLYPHDISPLAY
280
1
  9
$TILEMODELIGHTSYNCH
280
1
  9
$CMATERIAL
347
20
  9
$SOLIDHIST
280
0
  9
$SHOWHIST
280
1
  9
$DWFFRAME
280
2
  9
$DGNFRAME
280
2
  9
$REALWORLDSCALE
290
1
  9
$INTERFERECOLOR
 62
256
  9
$CSHADOW
280
0
  9
$SHADOWPLANELOCATION
 40
0.0
  0
ENDSEC
  0
SECTION
  2
CLASSES
  0
CLASS
  1
ACDBDICTIONARYWDFLT
  2
AcDbDictionaryWithDefault
  3
ObjectDBX Classes
 90
0
 91
0
280
0
281
0
  0
CLASS
  1
SUN
  2
AcDbSun
  3
SCENEOE
 90
1153
 91
0
280
0
281
0
  0
CLASS
  1
VISUALSTYLE
  2
AcDbVisualStyle
  3
ObjectDBX Classes
 90
4095
 91
0
280
0
281
0
  0
CLASS
  1
MATERIAL
  2
AcDbMaterial
  3
ObjectDBX Classes
 90
1153
 91
0
280
0
281
0
  0
CLASS
  1
SCALE
  2
AcDbScale
  3
ObjectDBX Classes
 90
1153
 91
0
280
0
281
0
  0
CLASS
  1
TABLESTYLE
  2
AcDbTableStyle
  3
ObjectDBX Classes
 90
4095
 91
0
280
0
281
0
  0
CLASS
  1
MLEADERSTYLE
  2
AcDbMLeaderStyle
  3
ACDB_MLEADERSTYLE_CLASS
 90
4095
 91
0
280
0
281
0
  0
CLASS
  1
DICTIONARYVAR
  2
AcDbDictionaryVar
  3
ObjectDBX Classes
 90
0
 91
0
280
0
281
0
  0
CLASS
  1
CELLSTYLEMAP
  2
AcDbCellStyleMap
  3
ObjectDBX Classes
 90
1152
 91
0
280
0
281
0
  0
CLASS
  1
MENTALRAYRENDERSETTINGS
  2
AcDbMentalRayRenderSettings
  3
SCENEOE
 90
1024
 91
0
280
0
281
0
  0
CLASS
  1
ACDBDETAILVIEWSTYLE
  2
AcDbDetailViewStyle
  3
ObjectDBX Classes
 90
1025
 91
0
280
0
281
0
  0
CLASS
  1
ACDBSECTIONVIEWSTYLE
  2
AcDbSectionViewStyle
  3
ObjectDBX Classes
 90
1025
 91
0
280
0
281
0
  0
CLASS
  1
RASTERVARIABLES
  2
AcDbRasterVariables
  3
ISM
 90
0
 91
0
280
0
281
0
  0
CLASS
  1
LAYOUT
  2
AcDbLayout
  3
ObjectDBX Classes
 90
0
 91
0
280
0
281
0
  0
CLASS
  1
ACDBPLACEHOLDER
  2
AcDbPlaceHolder
  3
ObjectDBX Classes
 90
0
 91
0
280
0
281
0
  0
ENDSEC
  0
SECTION
  2
TABLES
  0
TABLE
  2
VPORT
  5
8
330
0
100
AcDbSymbolTable
 70
1
  0
VPORT
  5
23
330
8
100
AcDbSymbolTableRecord
100
AcDbViewportTableRecord
  2
*Active
 70
0
 10
0.0
 20
0.0
 11
1.0
 21
1.0
 12
0.0
 22
0.0
 13
0.0
 23
0.0
 14
0.5
 24
0.5
 15
0.5
 25
0.5
 16
0.0
 26
0.0
 36
1.0
 17
0.0
 27
0.0
 37
0.0
 40
1000.0
 41
1.34
 42
50.0
 43
0.0
 44
0.0
 50
0.0
 51
0.0
 71
0
 72
1000
 73
1
 74
3
 75
0
 76
0
 77
0
 78
0
281
0
 65
0
146
0.0
  0
ENDTAB
  0
TABLE
  2
LTYPE
  5
2
330
0
100
AcDbSymbolTable
 70
21
  0
LTYPE
  5
24
330
2
100
AcDbSymbolTableRecord
100
AcDbLinetypeTableRecord
  2
ByBlock
 70
0
  3

 72
65
 73
0
 40
0.0
  0
LTYPE
  5
25
330
2
100
AcDbSymbolTableRecord
100
AcDbLinetypeTableRecord
  2
ByLayer
 70
0
  3

 72
65
 73
0
 40
0.0
  0
LTYPE
  5
26
330
2
100
AcDbSymbolTableRecord
100
AcDbLinetypeTableRecord
  2
Continuous
 70
0
  3

 72
65
 73
0
 40
0.0
  0
LTYPE
  5
2F
330
2
100
AcDbSymbolTableRecord
100
AcDbLinetypeTableRecord
  2
CENTER
 70
0
  3
Center ____ _ ____ _ ____ _ ____ _ ____ _ ____
 72
65
 73
4
 40
5.08
 49
3.175
 74
0
 49
-0.635
 74
0
 49
0.635
 74
0
 49
-0.635
 74
0
  0
LTYPE
  5
30
330
2
100
AcDbSymbolTableRecord
100
AcDbLinetypeTableRecord
  2
CENTERX2
 70
0
  3
Center (2x) ________  __  ________  __  ________
 72
65
 73
4
 40
8.89
 49
6.35
 74
0
 49
-0.635
 74
0
 49
1.27
 74
0
 49
-0.635
 74
0
  0
LTYPE
  5
31
330
2
100
AcDbSymbolTableRecord
100
AcDbLinetypeTableRecord
  2
CENTER2
 70
0
  3
Center (.5x) ____ _ ____ _ ____ _ ____ _ ____
 72
65
 73
4
 40
2.54
 49
1.587
 74
0
 49
-0.318
 74
0
 49
0.318
 74
0
 49
-0.318
 74
0
  0
LTYPE
  5
32
330
2
100
AcDbSymbolTableRecord
100
AcDbLinetypeTableRecord
  2
DASHED
 70
0
  3
Dashed __ __ __ __ __ __ __ __ __ __ __ __ __ _
 72
65
 73
2
 40
1.524
 49
1.27
 74
0
 49
-0.254
 74
0
  0
LTYPE
  5
33
330
2
100
AcDbSymbolTableRecord
100
AcDbLinetypeTableRecord
  2
DASHEDX2
 70
0
  3
Dashed (2x) ____  ____  ____  ____  ____  ____
 72
65
 73
2
 40
3.048
 49
2.54
 74
0
 49
-0.508
 74
0
  0
LTYPE
  5
34
330
2
100
AcDbSymbolTableRecord
100
AcDbLinetypeTableRecord
  2
DASHED2
 70
0
  3
Dashed (.5x) _ _ _ _ _ _ _ _ _ _ _ _ _ _
 72
65
 73
2
 40
0.762
 49
0.635
 74
0
 49
-0.127
 74
0
  0
LTYPE
  5
35
330
2
100
AcDbSymbolTableRecord
100
AcDbLinetypeTableRecord
  2
PHANTOM
 70
0
  3
Phantom ______  __  __  ______  __  __  ______
 72
65
 73
6
 40
6.35
 49
3.175
 74
0
 49
-0.635
 74
0
 49
0.635
 74
0
 49
-0.635
 74
0
 49
0.635
 74
0
 49
-0.635
 74
0
  0
LTYPE
  5
36
330
2
100
AcDbSymbolTableRecord
100
AcDbLinetypeTableRecord
  2
PHANTOMX2
 70
0
  3
Phantom (2x)____________    ____    ____    ____________
 72
65
 73
6
 40
10.795
 49
6.35
 74
0
 49
-0.635
 74
0
 49
1.27
 74
0
 49
-0.635
 74
0
 49
1.27
 74
0
 49
-0.635
 74
0
  0
LTYPE
  5
37
330
2
100
AcDbSymbolTableRecord
100
AcDbLinetypeTableRecord
  2
PHANTOM2
 70
0
  3
Phantom (.5x) ___ _ _ ___ _ _ ___ _ _ ___ _ _ ___
 72
65
 73
6
 40
3.175
 49
1.587
 74
0
 49
-0.318
 74
0
 49
0.318
 74
0
 49
-0.318
 74
0
 49
0.318
 74
0
 49
-0.318
 74
0
  0
LTYPE
  5
38
330
2
100
AcDbSymbolTableRecord
100
AcDbLinetypeTableRecord
  2
DASHDOT
 70
0
  3
Dash dot __ . __ . __ . __ . __ . __ . __ . __
 72
65
 73
4
 40
3.556
 49
2.54
 74
0
 49
-0.508
 74
0
 49
0.0
 74
0
 49
-0.508
 74
0
  0
LTYPE
  5
39
330
2
100
AcDbSymbolTableRecord
100
AcDbLinetypeTableRecord
  2
DASHDOTX2
 70
0
  3
Dash dot (2x) ____  .  ____  .  ____  .  ____
 72
65
 73
4
 40
6.096
 49
5.08
 74
0
 49
-0.508
 74
0
 49
0.0
 74
0
 49
-0.508
 74
0
  0
LTYPE
  5
3A
330
2
100
AcDbSymbolTableRecord
100
AcDbLinetypeTableRecord
  2
DASHDOT2
 70
0
  3
Dash dot (.5x) _ . _ . _ . _ . _ . _ . _ . _
 72
65
 73
4
 40
1.778
 49
1.27
 74
0
 49
-0.254
 74
0
 49
0.0
 74
0
 49
-0.254
 74
0
  0
LTYPE
  5
3B
330
2
100
AcDbSymbolTableRecord
100
AcDbLinetypeTableRecord
  2
DOT
 70
0
  3
Dot .  .  .  .  .  .  .  .  .  .  .  .  .  .  .  .
 72
65
 73
2
 40
0.508
 49
0.0
 74
0
 49
-0.508
 74
0
  0
LTYPE
  5
3C
330
2
100
AcDbSymbolTableRecord
100
AcDbLinetypeTableRecord
  2
DOTX2
 70
0
  3
Dot (2x) .    .    .    .    .    .    .    . 
 72
65
 73
2
 40
1.016
 49
0.0
 74
0
 49
-1.016
 74
0
  0
LTYPE
  5
3D
330
2
100
AcDbSymbolTableRecord
100
AcDbLinetypeTableRecord
  2
DOT2
 70
0
  3
Dot (.5) . . . . . . . . . . . . . . . . . . . 
 72
65
 73
2
 40
0.254
 49
0.0
 74
0
 49
-0.254
 74
0
  0
LTYPE
  5
3E
330
2
100
AcDbSymbolTableRecord
100
AcDbLinetypeTableRecord
  2
DIVIDE
 70
0
  3
Divide __ . . __ . . __ . . __ . . __ . . __
 72
65
 73
6
 40
4.064
 49
2.54
 74
0
 49
-0.508
 74
0
 49
0.0
 74
0
 49
-0.508
 74
0
 49
0.0
 74
0
 49
-0.508
 74
0
  0
LTYPE
  5
3F
330
2
100
AcDbSymbolTableRecord
100
AcDbLinetypeTableRecord
  2
DIVIDEX2
 70
0
  3
Divide (2x) ____  . .  ____  . .  ____  . .  ____
 72
65
 73
6
 40
6.604
 49
5.08
 74
0
 49
-0.508
 74
0
 49
0.0
 74
0
 49
-0.508
 74
0
 49
0.0
 74
0
 49
-0.508
 74
0
  0
LTYPE
  5
40
330
2
100
AcDbSymbolTableRecord
100
AcDbLinetypeTableRecord
  2
DIVIDE2
 70
0
  3
Divide(.5x) _ . _ . _ . _ . _ . _ . _ . _
 72
65
 73
6
 40
2.032
 49
1.27
 74
0
 49
-0.254
 74
0
 49
0.0
 74
0
 49
-0.254
 74
0
 49
0.0
 74
0
 49
-0.254
 74
0
  0
ENDTAB
  0
TABLE
  2
LAYER
  5
1
330
0
100
AcDbSymbolTable
 70
26
  0
LAYER
  5
27
330
1
100
AcDbSymbolTableRecord
100
AcDbLayerTableRecord
  2
0
 70
0
 62
7
  6
Continuous
370
-3
390
13
347
21
  0
LAYER
  5
28
330
1
100
AcDbSymbolTableRecord
100
AcDbLayerTableRecord
  2
Defpoints
 70
0
 62
7
  6
Continuous
290
0
370
-3
390
13
347
21
  0
LAYER
  5
8A
330
1
100
AcDbSymbolTableRecord
100
AcDbLayerTableRecord
  2
S-CONCRETE
 70
0
 62
7
  6
Continuous
370
-3
390
13
347
21
1001
AcAecLayerStandard
1000

1000
Structural concrete outlines (cut)
  0
LAYER
  5
8C
330
1
100
AcDbSymbolTableRecord
100
AcDbLayerTableRecord
  2
S-CONCRETE-THIN
 70
0
 62
7
  6
Continuous
370
-3
390
13
347
21
1001
AcAecLayerStandard
1000

1000
Concrete beyond the cut plane
  0
LAYER
  5
8D
330
1
100
AcDbSymbolTableRecord
100
AcDbLayerTableRecord
  2
S-HIDDEN
 70
0
 62
8
  6
Continuous
370
-3
390
13
347
21
1001
AcAecLayerStandard
1000

1000
Concrete / features beyond, hidden
  0
LAYER
  5
8E
330
1
100
AcDbSymbolTableRecord
100
AcDbLayerTableRecord
  2
S-REBAR-MAIN
 70
0
 62
1
  6
Continuous
370
-3
390
13
347
21
1001
AcAecLayerStandard
1000

1000
Main reinforcement
  0
LAYER
  5
8F
330
1
100
AcDbSymbolTableRecord
100
AcDbLayerTableRecord
  2
S-REBAR-DIST
 70
0
 62
3
  6
Continuous
370
-3
390
13
347
21
1001
AcAecLayerStandard
1000

1000
Distribution reinforcement
  0
LAYER
  5
90
330
1
100
AcDbSymbolTableRecord
100
AcDbLayerTableRecord
  2
S-REBAR-STIRRUP
 70
0
 62
6
  6
Continuous
370
-3
390
13
347
21
1001
AcAecLayerStandard
1000

1000
Links and stirrups
  0
LAYER
  5
91
330
1
100
AcDbSymbolTableRecord
100
AcDbLayerTableRecord
  2
S-REBAR-TIE
 70
0
 62
6
  6
Continuous
370
-3
390
13
347
21
1001
AcAecLayerStandard
1000

1000
Ties, cross-ties, starters
  0
LAYER
  5
92
330
1
100
AcDbSymbolTableRecord
100
AcDbLayerTableRecord
  2
S-REBAR-SEC
 70
0
 62
4
  6
Continuous
370
-3
390
13
347
21
1001
AcAecLayerStandard
1000

1000
Trimmers, secondary and additional bars
  0
LAYER
  5
93
330
1
100
AcDbSymbolTableRecord
100
AcDbLayerTableRecord
  2
S-DIM
 70
0
 62
4
  6
Continuous
370
-3
390
13
347
21
1001
AcAecLayerStandard
1000

1000
Dimensions
  0
LAYER
  5
94
330
1
100
AcDbSymbolTableRecord
100
AcDbLayerTableRecord
  2
S-TEXT
 70
0
 62
7
  6
Continuous
370
-3
390
13
347
21
1001
AcAecLayerStandard
1000

1000
General annotation
  0
LAYER
  5
95
330
1
100
AcDbSymbolTableRecord
100
AcDbLayerTableRecord
  2
S-NOTE
 70
0
 62
7
  6
Continuous
370
-3
390
13
347
21
1001
AcAecLayerStandard
1000

1000
Note panels
  0
LAYER
  5
96
330
1
100
AcDbSymbolTableRecord
100
AcDbLayerTableRecord
  2
S-CALLOUT
 70
0
 62
2
  6
Continuous
370
-3
390
13
347
21
1001
AcAecLayerStandard
1000

1000
Bar-mark balloons and leaders
  0
LAYER
  5
97
330
1
100
AcDbSymbolTableRecord
100
AcDbLayerTableRecord
  2
S-SECTION
 70
0
 62
1
  6
Continuous
370
-3
390
13
347
21
1001
AcAecLayerStandard
1000

1000
Section and detail markers
  0
LAYER
  5
98
330
1
100
AcDbSymbolTableRecord
100
AcDbLayerTableRecord
  2
S-GRID
 70
0
 62
5
  6
Continuous
370
-3
390
13
347
21
1001
AcAecLayerStandard
1000

1000
Grid lines and bubbles
  0
LAYER
  5
99
330
1
100
AcDbSymbolTableRecord
100
AcDbLayerTableRecord
  2
S-CENTER
 70
0
 62
6
  6
Continuous
370
-3
390
13
347
21
1001
AcAecLayerStandard
1000

1000
Centrelines
  0
LAYER
  5
9A
330
1
100
AcDbSymbolTableRecord
100
AcDbLayerTableRecord
  2
S-HATCH
 70
0
 62
8
  6
Continuous
370
-3
390
13
347
21
1001
AcAecLayerStandard
1000

1000
Section hatch
  0
LAYER
  5
9B
330
1
100
AcDbSymbolTableRecord
100
AcDbLayerTableRecord
  2
S-TITLE
 70
0
 62
7
  6
Continuous
370
-3
390
13
347
21
1001
AcAecLayerStandard
1000

1000
Border, title block, view titles
  0
LAYER
  5
9C
330
1
100
AcDbSymbolTableRecord
100
AcDbLayerTableRecord
  2
S-EXISTING
 70
0
 62
8
  6
Continuous
370
-3
390
13
347
21
1001
AcAecLayerStandard
1000

1000
Soil, rock, berm, cover layers
  0
LAYER
  5
9D
330
1
100
AcDbSymbolTableRecord
100
AcDbLayerTableRecord
  2
S-REFERENCE
 70
0
 62
8
  6
Continuous
370
-3
390
13
347
21
1001
AcAecLayerStandard
1000

1000
Reference geometry, extents
  0
LAYER
  5
9E
330
1
100
AcDbSymbolTableRecord
100
AcDbLayerTableRecord
  2
S-WATERPROOF
 70
0
 62
30
  6
Continuous
370
-3
390
13
347
21
1001
AcAecLayerStandard
1000

1000
Membranes, waterstops, GWT
  0
LAYER
  5
9F
330
1
100
AcDbSymbolTableRecord
100
AcDbLayerTableRecord
  2
S-STEELWORK
 70
0
 62
2
  6
Continuous
370
-3
390
13
347
21
1001
AcAecLayerStandard
1000

1000
Cast-in frames, EMP straps, steel items
  0
LAYER
  5
A0
330
1
100
AcDbSymbolTableRecord
100
AcDbLayerTableRecord
  2
S-LEVEL
 70
0
 62
4
  6
Continuous
370
-3
390
13
347
21
1001
AcAecLayerStandard
1000

1000
Level markers
  0
LAYER
  5
A1
330
1
100
AcDbSymbolTableRecord
100
AcDbLayerTableRecord
  2
S-TABLE
 70
0
 62
7
  6
Continuous
370
-3
390
13
347
21
1001
AcAecLayerStandard
1000

1000
Tables and schedules
  0
LAYER
  5
A2
330
1
100
AcDbSymbolTableRecord
100
AcDbLayerTableRecord
  2
S-BLAST
 70
0
 62
1
  6
Continuous
370
-3
390
13
347
21
1001
AcAecLayerStandard
1000

1000
Blast arrows, findings, warnings
  0
ENDTAB
  0
TABLE
  2
STYLE
  5
5
330
0
100
AcDbSymbolTable
 70
26
  0
STYLE
  5
29
330
5
100
AcDbSymbolTableRecord
100
AcDbTextStyleTableRecord
  2
Standard
 70
0
 40
0.0
 41
1.0
 50
0.0
 71
0
 42
2.5
  3
txt
  4

  0
STYLE
  5
41
330
5
100
AcDbSymbolTableRecord
100
AcDbTextStyleTableRecord
  2
OpenSans-Light
 70
0
 40
0.0
 41
1.0
 50
0.0
 71
0
 42
2.5
  3
OpenSans-Light.ttf
  4

  0
STYLE
  5
42
330
5
100
AcDbSymbolTableRecord
100
AcDbTextStyleTableRecord
  2
OpenSans-Light-Italic
 70
0
 40
0.0
 41
1.0
 50
0.0
 71
0
 42
2.5
  3
OpenSans-LightItalic.ttf
  4

  0
STYLE
  5
43
330
5
100
AcDbSymbolTableRecord
100
AcDbTextStyleTableRecord
  2
OpenSans
 70
0
 40
0.0
 41
1.0
 50
0.0
 71
0
 42
2.5
  3
OpenSans-Regular.ttf
  4

  0
STYLE
  5
44
330
5
100
AcDbSymbolTableRecord
100
AcDbTextStyleTableRecord
  2
OpenSans-Italic
 70
0
 40
0.0
 41
1.0
 50
0.0
 71
0
 42
2.5
  3
OpenSans-Italic.ttf
  4

  0
STYLE
  5
45
330
5
100
AcDbSymbolTableRecord
100
AcDbTextStyleTableRecord
  2
OpenSans-SemiBold
 70
0
 40
0.0
 41
1.0
 50
0.0
 71
0
 42
2.5
  3
OpenSans-SemiBold.ttf
  4

  0
STYLE
  5
46
330
5
100
AcDbSymbolTableRecord
100
AcDbTextStyleTableRecord
  2
OpenSans-SemiBoldItalic
 70
0
 40
0.0
 41
1.0
 50
0.0
 71
0
 42
2.5
  3
OpenSans-SemiBoldItalic.ttf
  4

  0
STYLE
  5
47
330
5
100
AcDbSymbolTableRecord
100
AcDbTextStyleTableRecord
  2
OpenSans-Bold
 70
0
 40
0.0
 41
1.0
 50
0.0
 71
0
 42
2.5
  3
OpenSans-Bold.ttf
  4

  0
STYLE
  5
48
330
5
100
AcDbSymbolTableRecord
100
AcDbTextStyleTableRecord
  2
OpenSans-BoldItalic
 70
0
 40
0.0
 41
1.0
 50
0.0
 71
0
 42
2.5
  3
OpenSans-BoldItalic.ttf
  4

  0
STYLE
  5
49
330
5
100
AcDbSymbolTableRecord
100
AcDbTextStyleTableRecord
  2
OpenSans-ExtraBold
 70
0
 40
0.0
 41
1.0
 50
0.0
 71
0
 42
2.5
  3
OpenSans-ExtraBold.ttf
  4

  0
STYLE
  5
4A
330
5
100
AcDbSymbolTableRecord
100
AcDbTextStyleTableRecord
  2
OpenSans-ExtraBoldItalic
 70
0
 40
0.0
 41
1.0
 50
0.0
 71
0
 42
2.5
  3
OpenSans-ExtraBoldItalic.ttf
  4

  0
STYLE
  5
4B
330
5
100
AcDbSymbolTableRecord
100
AcDbTextStyleTableRecord
  2
OpenSansCondensed-Bold
 70
0
 40
0.0
 41
1.0
 50
0.0
 71
0
 42
2.5
  3
OpenSansCondensed-Bold.ttf
  4

  0
STYLE
  5
4C
330
5
100
AcDbSymbolTableRecord
100
AcDbTextStyleTableRecord
  2
OpenSansCondensed-Light
 70
0
 40
0.0
 41
1.0
 50
0.0
 71
0
 42
2.5
  3
OpenSansCondensed-Light.ttf
  4

  0
STYLE
  5
4D
330
5
100
AcDbSymbolTableRecord
100
AcDbTextStyleTableRecord
  2
OpenSansCondensed-Italic
 70
0
 40
0.0
 41
1.0
 50
0.0
 71
0
 42
2.5
  3
OpenSansCondensed-LightItalic.ttf
  4

  0
STYLE
  5
4E
330
5
100
AcDbSymbolTableRecord
100
AcDbTextStyleTableRecord
  2
LiberationSans
 70
0
 40
0.0
 41
1.0
 50
0.0
 71
0
 42
2.5
  3
LiberationSans-Regular.ttf
  4

  0
STYLE
  5
4F
330
5
100
AcDbSymbolTableRecord
100
AcDbTextStyleTableRecord
  2
LiberationSans-Bold
 70
0
 40
0.0
 41
1.0
 50
0.0
 71
0
 42
2.5
  3
LiberationSans-Bold.ttf
  4

  0
STYLE
  5
50
330
5
100
AcDbSymbolTableRecord
100
AcDbTextStyleTableRecord
  2
LiberationSans-BoldItalic
 70
0
 40
0.0
 41
1.0
 50
0.0
 71
0
 42
2.5
  3
LiberationSans-BoldItalic.ttf
  4

  0
STYLE
  5
51
330
5
100
AcDbSymbolTableRecord
100
AcDbTextStyleTableRecord
  2
LiberationSans-Italic
 70
0
 40
0.0
 41
1.0
 50
0.0
 71
0
 42
2.5
  3
LiberationSans-Italic.ttf
  4

  0
STYLE
  5
52
330
5
100
AcDbSymbolTableRecord
100
AcDbTextStyleTableRecord
  2
LiberationSerif
 70
0
 40
0.0
 41
1.0
 50
0.0
 71
0
 42
2.5
  3
LiberationSerif-Regular.ttf
  4

  0
STYLE
  5
53
330
5
100
AcDbSymbolTableRecord
100
AcDbTextStyleTableRecord
  2
LiberationSerif-Bold
 70
0
 40
0.0
 41
1.0
 50
0.0
 71
0
 42
2.5
  3
LiberationSerif-Bold.ttf
  4

  0
STYLE
  5
54
330
5
100
AcDbSymbolTableRecord
100
AcDbTextStyleTableRecord
  2
LiberationSerif-BoldItalic
 70
0
 40
0.0
 41
1.0
 50
0.0
 71
0
 42
2.5
  3
LiberationSerif-BoldItalic.ttf
  4

  0
STYLE
  5
55
330
5
100
AcDbSymbolTableRecord
100
AcDbTextStyleTableRecord
  2
LiberationSerif-Italic
 70
0
 40
0.0
 41
1.0
 50
0.0
 71
0
 42
2.5
  3
LiberationSerif-Italic.ttf
  4

  0
STYLE
  5
56
330
5
100
AcDbSymbolTableRecord
100
AcDbTextStyleTableRecord
  2
LiberationMono
 70
0
 40
0.0
 41
1.0
 50
0.0
 71
0
 42
2.5
  3
LiberationMono-Regular.ttf
  4

  0
STYLE
  5
57
330
5
100
AcDbSymbolTableRecord
100
AcDbTextStyleTableRecord
  2
LiberationMono-Bold
 70
0
 40
0.0
 41
1.0
 50
0.0
 71
0
 42
2.5
  3
LiberationMono-Bold.ttf
  4

  0
STYLE
  5
58
330
5
100
AcDbSymbolTableRecord
100
AcDbTextStyleTableRecord
  2
LiberationMono-BoldItalic
 70
0
 40
0.0
 41
1.0
 50
0.0
 71
0
 42
2.5
  3
LiberationMono-BoldItalic.ttf
  4

  0
STYLE
  5
59
330
5
100
AcDbSymbolTableRecord
100
AcDbTextStyleTableRecord
  2
LiberationMono-Italic
 70
0
 40
0.0
 41
1.0
 50
0.0
 71
0
 42
2.5
  3
LiberationMono-Italic.ttf
  4

  0
ENDTAB
  0
TABLE
  2
VIEW
  5
7
330
0
100
AcDbSymbolTable
 70
0
  0
ENDTAB
  0
TABLE
  2
UCS
  5
6
330
0
100
AcDbSymbolTable
 70
0
  0
ENDTAB
  0
TABLE
  2
APPID
  5
3
330
0
100
AcDbSymbolTable
 70
4
  0
APPID
  5
2A
330
3
100
AcDbSymbolTableRecord
100
AcDbRegAppTableRecord
  2
ACAD
 70
0
  0
APPID
  5
8B
330
3
100
AcDbSymbolTableRecord
100
AcDbRegAppTableRecord
  2
AcAecLayerStandard
 70
0
  0
APPID
  5
32A
330
3
100
AcDbSymbolTableRecord
100
AcDbRegAppTableRecord
  2
HATCHBACKGROUNDCOLOR
 70
0
  0
APPID
  5
32B
330
3
100
AcDbSymbolTableRecord
100
AcDbRegAppTableRecord
  2
EZDXF
 70
0
  0
ENDTAB
  0
TABLE
  2
DIMSTYLE
  5
4
330
0
100
AcDbSymbolTable
 70
14
100
AcDbDimStyleTable
  0
DIMSTYLE
105
2B
330
4
100
AcDbSymbolTableRecord
100
AcDbDimStyleTableRecord
  2
Standard
 70
0
 40
1.0
 41
2.5
 42
0.625
 43
3.75
 44
1.25
 45
0.0
 46
0.0
 47
0.0
 48
0.0
 49
2.5
140
2.5
141
2.5
142
0.0
143
0.03937007874
144
1.0
145
0.0
146
1.0
147
0.625
148
0.0
 69
0
 70
0
 71
0
 72
0
 73
0
 74
0
 75
0
 76
0
 77
1
 78
8
 79
3
170
0
171
3
172
1
173
0
174
0
175
0
176
0
177
0
178
0
179
2
271
2
272
2
273
2
274
3
275
0
276
0
277
2
278
44
279
0
280
0
281
0
282
0
283
0
284
8
285
0
286
0
288
0
289
3
290
0
371
-2
372
-2
  0
DIMSTYLE
105
73
330
4
100
AcDbSymbolTableRecord
100
AcDbDimStyleTableRecord
  2
EZDXF
 70
0
 40
1.0
 41
0.175
 42
0.125
 43
3.75
 44
0.375
 45
0.0
 46
0.0
 47
0.0
 48
0.0
 49
2.5
140
0.25
141
2.5
142
0.0
143
0.03937007874
144
100.0
145
0.0
146
0.5
147
0.1
148
0.0
 69
0
 70
0
 71
0
 72
0
 73
0
 74
0
 75
0
 76
0
 77
1
 78
12
 79
3
170
0
171
3
172
1
173
0
174
0
175
0
176
0
177
0
178
0
179
2
271
2
272
2
273
2
274
3
275
0
276
0
277
2
278
46
279
2
280
0
281
0
282
0
283
0
284
8
285
0
286
0
288
1
289
3
290
0
340
4C
342
74
371
-2
372
-2
  0
DIMSTYLE
105
7C
330
4
100
AcDbSymbolTableRecord
100
AcDbDimStyleTableRecord
  2
EZ_M_100_H25_CM
 70
0
 40
1.0
 41
0.25
 42
0.125
 43
3.75
 44
0.375
 45
0.0
 46
0.0
 47
0.0
 48
0.0
 49
2.5
140
0.25
141
2.5
142
0.125
143
0.03937007874
144
100.0
145
0.0
146
0.5
147
0.1
148
0.0
 69
0
 70
0
 71
0
 72
0
 73
0
 74
0
 75
0
 76
0
 77
1
 78
12
 79
3
170
0
171
3
172
1
173
0
174
0
175
0
176
0
177
0
178
0
179
2
271
2
272
2
273
2
274
3
275
0
276
0
277
2
278
46
279
2
280
0
281
0
282
0
283
0
284
8
285
0
286
0
288
1
289
3
290
0
340
4C
371
-2
372
-2
  0
DIMSTYLE
105
7D
330
4
100
AcDbSymbolTableRecord
100
AcDbDimStyleTableRecord
  2
EZ_M_50_H25_CM
 70
0
 40
1.0
 41
0.125
 42
0.0625
 43
3.75
 44
0.1875
 45
0.0
 46
0.0
 47
0.0
 48
0.0
 49
2.5
140
0.125
141
2.5
142
0.0625
143
0.03937007874
144
100.0
145
0.0
146
0.5
147
0.05
148
0.0
 69
0
 70
0
 71
0
 72
0
 73
0
 74
0
 75
0
 76
0
 77
1
 78
12
 79
3
170
0
171
3
172
1
173
0
174
0
175
0
176
0
177
0
178
0
179
2
271
2
272
2
273
2
274
3
275
0
276
0
277
2
278
46
279
2
280
0
281
0
282
0
283
0
284
8
285
0
286
0
288
1
289
3
290
0
340
4C
371
-2
372
-2
  0
DIMSTYLE
105
7E
330
4
100
AcDbSymbolTableRecord
100
AcDbDimStyleTableRecord
  2
EZ_M_25_H25_CM
 70
0
 40
1.0
 41
0.0625
 42
0.03125
 43
3.75
 44
0.09375
 45
0.0
 46
0.0
 47
0.0
 48
0.0
 49
2.5
140
0.0625
141
2.5
142
0.03125
143
0.03937007874
144
100.0
145
0.0
146
0.5
147
0.025
148
0.0
 69
0
 70
0
 71
0
 72
0
 73
0
 74
0
 75
0
 76
0
 77
1
 78
12
 79
3
170
0
171
3
172
1
173
0
174
0
175
0
176
0
177
0
178
0
179
2
271
2
272
2
273
2
274
3
275
0
276
0
277
2
278
46
279
2
280
0
281
0
282
0
283
0
284
8
285
0
286
0
288
1
289
3
290
0
340
4C
371
-2
372
-2
  0
DIMSTYLE
105
7F
330
4
100
AcDbSymbolTableRecord
100
AcDbDimStyleTableRecord
  2
EZ_M_20_H25_CM
 70
0
 40
1.0
 41
0.05
 42
0.025
 43
3.75
 44
0.07500000000000001
 45
0.0
 46
0.0
 47
0.0
 48
0.0
 49
2.5
140
0.05
141
2.5
142
0.025
143
0.03937007874
144
100.0
145
0.0
146
0.5
147
0.020000000000000004
148
0.0
 69
0
 70
0
 71
0
 72
0
 73
0
 74
0
 75
0
 76
0
 77
1
 78
12
 79
3
170
0
171
3
172
1
173
0
174
0
175
0
176
0
177
0
178
0
179
2
271
2
272
2
273
2
274
3
275
0
276
0
277
2
278
46
279
2
280
0
281
0
282
0
283
0
284
8
285
0
286
0
288
1
289
3
290
0
340
4C
371
-2
372
-2
  0
DIMSTYLE
105
80
330
4
100
AcDbSymbolTableRecord
100
AcDbDimStyleTableRecord
  2
EZ_M_10_H25_CM
 70
0
 40
1.0
 41
0.025
 42
0.0125
 43
3.75
 44
0.037500000000000006
 45
0.0
 46
0.0
 47
0.0
 48
0.0
 49
2.5
140
0.025
141
2.5
142
0.0125
143
0.03937007874
144
100.0
145
0.0
146
0.5
147
0.010000000000000002
148
0.0
 69
0
 70
0
 71
0
 72
0
 73
0
 74
0
 75
0
 76
0
 77
1
 78
12
 79
3
170
0
171
3
172
1
173
0
174
0
175
0
176
0
177
0
178
0
179
2
271
2
272
2
273
2
274
3
275
0
276
0
277
2
278
46
279
2
280
0
281
0
282
0
283
0
284
8
285
0
286
0
288
1
289
3
290
0
340
4C
371
-2
372
-2
  0
DIMSTYLE
105
81
330
4
100
AcDbSymbolTableRecord
100
AcDbDimStyleTableRecord
  2
EZ_M_5_H25_CM
 70
0
 40
1.0
 41
0.0125
 42
0.00625
 43
3.75
 44
0.018750000000000003
 45
0.0
 46
0.0
 47
0.0
 48
0.0
 49
2.5
140
0.0125
141
2.5
142
0.00625
143
0.03937007874
144
100.0
145
0.0
146
0.5
147
0.005000000000000001
148
0.0
 69
0
 70
0
 71
0
 72
0
 73
0
 74
0
 75
0
 76
0
 77
1
 78
12
 79
3
170
0
171
3
172
1
173
0
174
0
175
0
176
0
177
0
178
0
179
2
271
2
272
2
273
2
274
3
275
0
276
0
277
2
278
46
279
2
280
0
281
0
282
0
283
0
284
8
285
0
286
0
288
1
289
3
290
0
340
4C
371
-2
372
-2
  0
DIMSTYLE
105
82
330
4
100
AcDbSymbolTableRecord
100
AcDbDimStyleTableRecord
  2
EZ_M_1_H25_CM
 70
0
 40
1.0
 41
0.0025
 42
0.00125
 43
3.75
 44
0.00375
 45
0.0
 46
0.0
 47
0.0
 48
0.0
 49
2.5
140
0.0025
141
2.5
142
0.00125
143
0.03937007874
144
100.0
145
0.0
146
0.5
147
0.001
148
0.0
 69
0
 70
0
 71
0
 72
0
 73
0
 74
0
 75
0
 76
0
 77
1
 78
12
 79
3
170
0
171
3
172
1
173
0
174
0
175
0
176
0
177
0
178
0
179
2
271
2
272
2
273
2
274
3
275
0
276
0
277
2
278
46
279
2
280
0
281
0
282
0
283
0
284
8
285
0
286
0
288
1
289
3
290
0
340
4C
371
-2
372
-2
  0
DIMSTYLE
105
83
330
4
100
AcDbSymbolTableRecord
100
AcDbDimStyleTableRecord
  2
EZ_RADIUS
 70
0
 40
1.0
 41
0.25
 42
0.125
 43
3.75
 44
0.375
 45
0.0
 46
0.0
 47
0.0
 48
0.0
 49
2.5
140
0.25
141
0.0
142
0.0
143
0.03937007874
144
100.0
145
0.0
146
0.5
147
0.1
148
0.0
 69
0
 70
0
 71
0
 72
0
 73
0
 74
0
 75
0
 76
0
 77
1
 78
12
 79
3
170
0
171
3
172
0
173
0
174
0
175
0
176
0
177
0
178
0
179
2
271
2
272
2
273
2
274
3
275
0
276
0
277
2
278
46
279
1
280
0
281
0
282
0
283
0
284
8
285
0
286
0
288
1
289
3
290
0
340
4C
342
84
371
-2
372
-2
  0
DIMSTYLE
105
88
330
4
100
AcDbSymbolTableRecord
100
AcDbDimStyleTableRecord
  2
EZ_RADIUS_INSIDE
 70
0
 40
1.0
 41
0.25
 42
0.125
 43
3.75
 44
0.375
 45
0.0
 46
0.0
 47
0.0
 48
0.0
 49
2.5
140
0.25
141
0.0
142
0.0
143
0.03937007874
144
100.0
145
0.0
146
0.5
147
0.1
148
0.0
 69
0
 70
0
 71
0
 72
0
 73
0
 74
0
 75
0
 76
0
 77
0
 78
12
 79
3
170
0
171
3
172
0
173
0
174
1
175
0
176
0
177
0
178
0
179
2
271
2
272
2
273
2
274
3
275
0
276
0
277
2
278
46
279
0
280
0
281
0
282
0
283
0
284
8
285
0
286
0
288
1
289
0
290
0
340
4C
342
84
371
-2
372
-2
  0
DIMSTYLE
105
89
330
4
100
AcDbSymbolTableRecord
100
AcDbDimStyleTableRecord
  2
EZ_CURVED
 70
0
 40
1.0
 41
0.25
 42
0.125
 43
3.75
 44
0.375
 45
0.0
 46
0.0
 47
0.0
 48
0.0
 49
2.5
140
0.25
141
2.5
142
0.0
143
0.03937007874
144
100.0
145
0.0
146
0.5
147
0.1
148
0.0
 69
0
 70
0
 71
0
 72
0
 73
0
 74
0
 75
0
 76
0
 77
1
 78
12
 79
2
 90
2
170
0
171
3
172
1
173
0
174
0
175
0
176
0
177
0
178
0
179
2
271
2
272
2
273
2
274
3
275
0
276
0
277
2
278
46
279
2
280
0
281
0
282
0
283
0
284
8
285
0
286
0
288
1
289
3
290
0
340
4C
371
-2
372
-2
  0
DIMSTYLE
105
A3
330
4
100
AcDbSymbolTableRecord
100
AcDbDimStyleTableRecord
  2
SC-DIM
 70
0
 40
1.0
 41
1.6
 42
1.0
 43
3.75
 44
1.2
 45
0.0
 46
0.0
 47
0.0
 48
0.0
 49
2.5
140
1.8
141
2.5
142
0.0
143
0.03937007874
144
1.0
145
0.0
146
1.0
147
0.8
148
0.0
 69
0
 70
0
 71
0
 72
0
 73
0
 74
0
 75
0
 76
0
 77
1
 78
8
 79
3
170
0
171
3
172
1
173
0
174
0
175
0
176
4
177
4
178
4
179
2
271
0
272
2
273
2
274
3
275
0
276
0
277
2
278
44
279
0
280
0
281
0
282
0
283
0
284
8
285
0
286
0
288
0
289
3
290
0
342
74
371
13
372
13
  0
DIMSTYLE
105
A4
330
4
100
AcDbSymbolTableRecord
100
AcDbDimStyleTableRecord
  2
SC-DIM-S
 70
0
 40
1.0
 41
1.2
 42
1.0
 43
3.75
 44
1.2
 45
0.0
 46
0.0
 47
0.0
 48
0.0
 49
2.5
140
1.4
141
2.5
142
0.0
143
0.03937007874
144
1.0
145
0.0
146
1.0
147
0.8
148
0.0
 69
0
 70
0
 71
0
 72
0
 73
0
 74
0
 75
0
 76
0
 77
1
 78
8
 79
3
170
0
171
3
172
1
173
0
174
0
175
0
176
4
177
4
178
4
179
2
271
0
272
2
273
2
274
3
275
0
276
0
277
2
278
44
279
0
280
0
281
0
282
0
283
0
284
8
285
0
286
0
288
0
289
3
290
0
342
74
371
13
372
13
  0
ENDTAB
  0
TABLE
  2
BLOCK_RECORD
  5
9
330
0
100
AcDbSymbolTable
 70
16
  0
BLOCK_RECORD
  5
17
330
9
100
AcDbSymbolTableRecord
100
AcDbBlockTableRecord
  2
*Model_Space
340
1A
 70
0
280
1
281
0
  0
BLOCK_RECORD
  5
1B
330
9
100
AcDbSymbolTableRecord
100
AcDbBlockTableRecord
  2
*Paper_Space
340
1E
 70
0
280
1
281
0
  0
BLOCK_RECORD
  5
74
330
9
100
AcDbSymbolTableRecord
100
AcDbBlockTableRecord
  2
_ARCHTICK
340
0
 70
0
280
1
281
0
  0
BLOCK_RECORD
  5
78
330
9
100
AcDbSymbolTableRecord
100
AcDbBlockTableRecord
  2
_CLOSEDFILLED
340
0
 70
0
280
1
281
0
  0
BLOCK_RECORD
  5
84
330
9
100
AcDbSymbolTableRecord
100
AcDbBlockTableRecord
  2
_CLOSEDBLANK
340
0
 70
0
280
1
281
0
  0
BLOCK_RECORD
  5
A5
330
9
100
AcDbSymbolTableRecord
100
AcDbBlockTableRecord
  2
BARMARK
340
0
 70
0
280
1
281
0
  0
BLOCK_RECORD
  5
A9
330
9
100
AcDbSymbolTableRecord
100
AcDbBlockTableRecord
  2
SECMARK
340
0
 70
0
280
1
281
0
  0
BLOCK_RECORD
  5
AE
330
9
100
AcDbSymbolTableRecord
100
AcDbBlockTableRecord
  2
LEVELMK
340
0
 70
0
280
1
281
0
  0
BLOCK_RECORD
  5
B2
330
9
100
AcDbSymbolTableRecord
100
AcDbBlockTableRecord
  2
NORTH
340
0
 70
0
280
1
281
0
  0
BLOCK_RECORD
  5
13C
330
9
100
AcDbSymbolTableRecord
100
AcDbBlockTableRecord
  2
*D1
340
0
 70
0
280
1
281
0
  0
BLOCK_RECORD
  5
14B
330
9
100
AcDbSymbolTableRecord
100
AcDbBlockTableRecord
  2
*D2
340
0
 70
0
280
1
281
0
  0
BLOCK_RECORD
  5
15A
330
9
100
AcDbSymbolTableRecord
100
AcDbBlockTableRecord
  2
*D3
340
0
 70
0
280
1
281
0
  0
BLOCK_RECORD
  5
169
330
9
100
AcDbSymbolTableRecord
100
AcDbBlockTableRecord
  2
*D4
340
0
 70
0
280
1
281
0
  0
BLOCK_RECORD
  5
1DF
330
9
100
AcDbSymbolTableRecord
100
AcDbBlockTableRecord
  2
*D5
340
0
 70
0
280
1
281
0
  0
BLOCK_RECORD
  5
1EE
330
9
100
AcDbSymbolTableRecord
100
AcDbBlockTableRecord
  2
*D6
340
0
 70
0
280
1
281
0
  0
BLOCK_RECORD
  5
1FD
330
9
100
AcDbSymbolTableRecord
100
AcDbBlockTableRecord
  2
*D7
340
0
 70
0
280
1
281
0
  0
ENDTAB
  0
ENDSEC
  0
SECTION
  2
BLOCKS
  0
BLOCK
  5
18
330
17
100
AcDbEntity
  8
0
100
AcDbBlockBegin
  2
*Model_Space
 70
0
 10
0.0
 20
0.0
 30
0.0
  3
*Model_Space
  1

  0
ENDBLK
  5
19
330
17
100
AcDbEntity
  8
0
100
AcDbBlockEnd
  0
BLOCK
  5
1C
330
1B
100
AcDbEntity
  8
0
100
AcDbBlockBegin
  2
*Paper_Space
 70
0
 10
0.0
 20
0.0
 30
0.0
  3
*Paper_Space
  1

  0
ENDBLK
  5
1D
330
1B
100
AcDbEntity
  8
0
100
AcDbBlockEnd
  0
BLOCK
  5
75
330
74
100
AcDbEntity
  8
0
100
AcDbBlockBegin
  2
_ARCHTICK
 70
0
 10
0.0
 20
0.0
 30
0.0
  3
_ARCHTICK
  1

  0
LWPOLYLINE
  5
77
330
74
100
AcDbEntity
  8
0
  6
BYBLOCK
 62
0
100
AcDbPolyline
 90
2
 70
0
 43
0.15
 10
-0.5
 20
-0.5
 10
0.5
 20
0.5
  0
ENDBLK
  5
76
330
74
100
AcDbEntity
  8
0
100
AcDbBlockEnd
  0
BLOCK
  5
79
330
78
100
AcDbEntity
  8
0
100
AcDbBlockBegin
  2
_CLOSEDFILLED
 70
0
 10
0.0
 20
0.0
 30
0.0
  3
_CLOSEDFILLED
  1

  0
SOLID
  5
7B
330
78
100
AcDbEntity
  8
0
  6
BYBLOCK
 62
0
100
AcDbTrace
 10
-1.0
 20
0.16439898372402537
 30
0.0
 11
0.0
 21
0.0
 31
0.0
 12
-1.0
 22
-0.16439898372402537
 32
0.0
 13
-1.0
 23
-0.16439898372402537
 33
0.0
  0
ENDBLK
  5
7A
330
78
100
AcDbEntity
  8
0
100
AcDbBlockEnd
  0
BLOCK
  5
85
330
84
100
AcDbEntity
  8
0
100
AcDbBlockBegin
  2
_CLOSEDBLANK
 70
0
 10
0.0
 20
0.0
 30
0.0
  3
_CLOSEDBLANK
  1

  0
LWPOLYLINE
  5
87
330
84
100
AcDbEntity
  8
0
  6
BYBLOCK
 62
0
100
AcDbPolyline
 90
3
 70
1
 10
-1.0
 20
0.16439898372402537
 10
0.0
 20
0.0
 10
-1.0
 20
-0.16439898372402537
  0
ENDBLK
  5
86
330
84
100
AcDbEntity
  8
0
100
AcDbBlockEnd
  0
BLOCK
  5
A6
330
A5
100
AcDbEntity
  8
0
100
AcDbBlockBegin
  2
BARMARK
 70
0
 10
0.0
 20
0.0
 30
0.0
  3
BARMARK
  1

  0
CIRCLE
  5
A8
330
A5
100
AcDbEntity
  8
S-CALLOUT
100
AcDbCircle
 10
0.0
 20
0.0
 30
0.0
 40
3.2
  0
ENDBLK
  5
A7
330
A5
100
AcDbEntity
  8
0
100
AcDbBlockEnd
  0
BLOCK
  5
AA
330
A9
100
AcDbEntity
  8
0
100
AcDbBlockBegin
  2
SECMARK
 70
0
 10
0.0
 20
0.0
 30
0.0
  3
SECMARK
  1

  0
CIRCLE
  5
AC
330
A9
100
AcDbEntity
  8
S-SECTION
100
AcDbCircle
 10
0.0
 20
0.0
 30
0.0
 40
4.0
  0
LINE
  5
AD
330
A9
100
AcDbEntity
  8
S-SECTION
100
AcDbLine
 10
-4.0
 20
0.0
 30
0.0
 11
4.0
 21
0.0
 31
0.0
  0
ENDBLK
  5
AB
330
A9
100
AcDbEntity
  8
0
100
AcDbBlockEnd
  0
BLOCK
  5
AF
330
AE
100
AcDbEntity
  8
0
100
AcDbBlockBegin
  2
LEVELMK
 70
0
 10
0.0
 20
0.0
 30
0.0
  3
LEVELMK
  1

  0
LWPOLYLINE
  5
B1
330
AE
100
AcDbEntity
  8
S-LEVEL
100
AcDbPolyline
 90
4
 70
1
 10
0.0
 20
0.0
 10
-2.0
 20
3.0
 10
2.0
 20
3.0
 10
0.0
 20
0.0
  0
ENDBLK
  5
B0
330
AE
100
AcDbEntity
  8
0
100
AcDbBlockEnd
  0
BLOCK
  5
B3
330
B2
100
AcDbEntity
  8
0
100
AcDbBlockBegin
  2
NORTH
 70
0
 10
0.0
 20
0.0
 30
0.0
  3
NORTH
  1

  0
LWPOLYLINE
  5
B5
330
B2
100
AcDbEntity
  8
S-TITLE
100
AcDbPolyline
 90
5
 70
1
 10
0.0
 20
10.0
 10
-3.2
 20
-6.0
 10
0.0
 20
-2.4
 10
3.2
 20
-6.0
 10
0.0
 20
10.0
  0
CIRCLE
  5
B6
330
B2
100
AcDbEntity
  8
S-TITLE
100
AcDbCircle
 10
0.0
 20
0.0
 30
0.0
 40
12.0
  0
ENDBLK
  5
B4
330
B2
100
AcDbEntity
  8
0
100
AcDbBlockEnd
  0
BLOCK
  5
13D
330
13C
100
AcDbEntity
  8
0
100
AcDbBlockBegin
  2
*D1
 70
1
 10
0.0
 20
0.0
 30
0.0
  3
*D1
  1

  0
LINE
  5
13F
330
13C
100
AcDbEntity
  8
0
 62
4
370
13
100
AcDbLine
 10
100.0
 20
384.0
 30
0.0
 11
100.0
 21
348.8
 31
0.0
  0
LINE
  5
140
330
13C
100
AcDbEntity
  8
0
 62
4
370
13
100
AcDbLine
 10
220.0
 20
384.0
 30
0.0
 11
220.0
 21
348.8
 31
0.0
  0
INSERT
  5
141
330
13C
100
AcDbEntity
  8
S-DIM
 62
4
100
AcDbBlockReference
  2
_ARCHTICK
 10
100.0
 20
350.0
 30
0.0
 41
1.6
 42
1.6
 50
180.0
  0
INSERT
  5
143
330
13C
100
AcDbEntity
  8
S-DIM
 62
4
100
AcDbBlockReference
  2
_ARCHTICK
 10
220.0
 20
350.0
 30
0.0
 41
1.6
 42
1.6
  0
LINE
  5
145
330
13C
100
AcDbEntity
  8
0
 62
4
370
13
100
AcDbLine
 10
100.0
 20
350.0
 30
0.0
 11
220.0
 21
350.0
 31
0.0
  0
MTEXT
  5
146
330
13C
100
AcDbEntity
  8
S-DIM
 62
4
100
AcDbMText
 10
160.0
 20
351.7
 30
0.0
 40
1.8
 71
5
  1
4800
  7
OpenSansCondensed-Light
  0
POINT
  5
147
330
13C
100
AcDbEntity
  8
Defpoints
100
AcDbPoint
 10
100.0
 20
350.0
 30
0.0
  0
POINT
  5
148
330
13C
100
AcDbEntity
  8
Defpoints
100
AcDbPoint
 10
100.0
 20
385.0
 30
0.0
  0
POINT
  5
149
330
13C
100
AcDbEntity
  8
Defpoints
100
AcDbPoint
 10
220.0
 20
385.0
 30
0.0
  0
ENDBLK
  5
13E
330
13C
100
AcDbEntity
  8
0
100
AcDbBlockEnd
  0
BLOCK
  5
14C
330
14B
100
AcDbEntity
  8
0
100
AcDbBlockBegin
  2
*D2
 70
1
 10
0.0
 20
0.0
 30
0.0
  3
*D2
  1

  0
LINE
  5
14E
330
14B
100
AcDbEntity
  8
0
 62
4
370
13
100
AcDbLine
 10
110.0
 20
384.0
 30
0.0
 11
110.0
 21
363.8
 31
0.0
  0
LINE
  5
14F
330
14B
100
AcDbEntity
  8
0
 62
4
370
13
100
AcDbLine
 10
210.0
 20
384.0
 30
0.0
 11
210.0
 21
363.8
 31
0.0
  0
INSERT
  5
150
330
14B
100
AcDbEntity
  8
S-DIM
 62
4
100
AcDbBlockReference
  2
_ARCHTICK
 10
110.0
 20
365.0
 30
0.0
 41
1.6
 42
1.6
 50
180.0
  0
INSERT
  5
152
330
14B
100
AcDbEntity
  8
S-DIM
 62
4
100
AcDbBlockReference
  2
_ARCHTICK
 10
210.0
 20
365.0
 30
0.0
 41
1.6
 42
1.6
  0
LINE
  5
154
330
14B
100
AcDbEntity
  8
0
 62
4
370
13
100
AcDbLine
 10
110.0
 20
365.0
 30
0.0
 11
210.0
 21
365.0
 31
0.0
  0
MTEXT
  5
155
330
14B
100
AcDbEntity
  8
S-DIM
 62
4
100
AcDbMText
 10
160.0
 20
366.7
 30
0.0
 40
1.8
 71
5
  1
4000
  7
OpenSansCondensed-Light
  0
POINT
  5
156
330
14B
100
AcDbEntity
  8
Defpoints
100
AcDbPoint
 10
110.0
 20
365.0
 30
0.0
  0
POINT
  5
157
330
14B
100
AcDbEntity
  8
Defpoints
100
AcDbPoint
 10
110.0
 20
385.0
 30
0.0
  0
POINT
  5
158
330
14B
100
AcDbEntity
  8
Defpoints
100
AcDbPoint
 10
210.0
 20
385.0
 30
0.0
  0
ENDBLK
  5
14D
330
14B
100
AcDbEntity
  8
0
100
AcDbBlockEnd
  0
BLOCK
  5
15B
330
15A
100
AcDbEntity
  8
0
100
AcDbBlockBegin
  2
*D3
 70
1
 10
0.0
 20
0.0
 30
0.0
  3
*D3
  1

  0
LINE
  5
15D
330
15A
100
AcDbEntity
  8
0
 62
4
370
13
100
AcDbLine
 10
99.0
 20
385.0
 30
0.0
 11
63.8
 21
385.0
 31
0.0
  0
LINE
  5
15E
330
15A
100
AcDbEntity
  8
0
 62
4
370
13
100
AcDbLine
 10
99.0
 20
530.0
 30
0.0
 11
63.8
 21
530.0
 31
0.0
  0
INSERT
  5
15F
330
15A
100
AcDbEntity
  8
S-DIM
 62
4
100
AcDbBlockReference
  2
_ARCHTICK
 10
65.0
 20
385.0
 30
0.0
 41
1.6
 42
1.6
 50
270.0
  0
INSERT
  5
161
330
15A
100
AcDbEntity
  8
S-DIM
 62
4
100
AcDbBlockReference
  2
_ARCHTICK
 10
65.0
 20
530.0
 30
0.0
 41
1.6
 42
1.6
 50
90.0
  0
LINE
  5
163
330
15A
100
AcDbEntity
  8
0
 62
4
370
13
100
AcDbLine
 10
65.0
 20
385.0
 30
0.0
 11
65.0
 21
530.0
 31
0.0
  0
MTEXT
  5
164
330
15A
100
AcDbEntity
  8
S-DIM
 62
4
100
AcDbMText
 10
63.3
 20
457.5
 30
0.0
 40
1.8
 71
5
  1
5800
  7
OpenSansCondensed-Light
 50
90.0
  0
POINT
  5
165
330
15A
100
AcDbEntity
  8
Defpoints
100
AcDbPoint
 10
65.0
 20
385.0
 30
0.0
  0
POINT
  5
166
330
15A
100
AcDbEntity
  8
Defpoints
100
AcDbPoint
 10
100.0
 20
385.0
 30
0.0
  0
POINT
  5
167
330
15A
100
AcDbEntity
  8
Defpoints
100
AcDbPoint
 10
100.0
 20
530.0
 30
0.0
  0
ENDBLK
  5
15C
330
15A
100
AcDbEntity
  8
0
100
AcDbBlockEnd
  0
BLOCK
  5
16A
330
169
100
AcDbEntity
  8
0
100
AcDbBlockBegin
  2
*D4
 70
1
 10
0.0
 20
0.0
 30
0.0
  3
*D4
  1

  0
LINE
  5
16C
330
169
100
AcDbEntity
  8
0
 62
4
370
13
100
AcDbLine
 10
99.0
 20
395.0
 30
0.0
 11
78.8
 21
395.0
 31
0.0
  0
LINE
  5
16D
330
169
100
AcDbEntity
  8
0
 62
4
370
13
100
AcDbLine
 10
99.0
 20
520.0
 30
0.0
 11
78.8
 21
520.0
 31
0.0
  0
INSERT
  5
16E
330
169
100
AcDbEntity
  8
S-DIM
 62
4
100
AcDbBlockReference
  2
_ARCHTICK
 10
80.0
 20
395.0
 30
0.0
 41
1.6
 42
1.6
 50
270.0
  0
INSERT
  5
170
330
169
100
AcDbEntity
  8
S-DIM
 62
4
100
AcDbBlockReference
  2
_ARCHTICK
 10
80.0
 20
520.0
 30
0.0
 41
1.6
 42
1.6
 50
90.0
  0
LINE
  5
172
330
169
100
AcDbEntity
  8
0
 62
4
370
13
100
AcDbLine
 10
80.0
 20
395.0
 30
0.0
 11
80.0
 21
520.0
 31
0.0
  0
MTEXT
  5
173
330
169
100
AcDbEntity
  8
S-DIM
 62
4
100
AcDbMText
 10
78.3
 20
457.5
 30
0.0
 40
1.8
 71
5
  1
5000
  7
OpenSansCondensed-Light
 50
90.0
  0
POINT
  5
174
330
169
100
AcDbEntity
  8
Defpoints
100
AcDbPoint
 10
80.0
 20
395.0
 30
0.0
  0
POINT
  5
175
330
169
100
AcDbEntity
  8
Defpoints
100
AcDbPoint
 10
100.0
 20
395.0
 30
0.0
  0
POINT
  5
176
330
169
100
AcDbEntity
  8
Defpoints
100
AcDbPoint
 10
100.0
 20
520.0
 30
0.0
  0
ENDBLK
  5
16B
330
169
100
AcDbEntity
  8
0
100
AcDbBlockEnd
  0
BLOCK
  5
1E0
330
1DF
100
AcDbEntity
  8
0
100
AcDbBlockBegin
  2
*D5
 70
1
 10
0.0
 20
0.0
 30
0.0
  3
*D5
  1

  0
LINE
  5
1E2
330
1DF
100
AcDbEntity
  8
0
 62
4
370
13
100
AcDbLine
 10
80.0
 20
199.0
 30
0.0
 11
80.0
 21
161.3
 31
0.0
  0
LINE
  5
1E3
330
1DF
100
AcDbEntity
  8
0
 62
4
370
13
100
AcDbLine
 10
180.0
 20
199.0
 30
0.0
 11
180.0
 21
161.3
 31
0.0
  0
INSERT
  5
1E4
330
1DF
100
AcDbEntity
  8
S-DIM
 62
4
100
AcDbBlockReference
  2
_ARCHTICK
 10
80.0
 20
162.5
 30
0.0
 41
1.6
 42
1.6
 50
180.0
  0
INSERT
  5
1E6
330
1DF
100
AcDbEntity
  8
S-DIM
 62
4
100
AcDbBlockReference
  2
_ARCHTICK
 10
180.0
 20
162.5
 30
0.0
 41
1.6
 42
1.6
  0
LINE
  5
1E8
330
1DF
100
AcDbEntity
  8
0
 62
4
370
13
100
AcDbLine
 10
80.0
 20
162.5
 30
0.0
 11
180.0
 21
162.5
 31
0.0
  0
MTEXT
  5
1E9
330
1DF
100
AcDbEntity
  8
S-DIM
 62
4
100
AcDbMText
 10
130.0
 20
164.2
 30
0.0
 40
1.8
 71
5
  1
4000
  7
OpenSansCondensed-Light
  0
POINT
  5
1EA
330
1DF
100
AcDbEntity
  8
Defpoints
100
AcDbPoint
 10
80.0
 20
162.5
 30
0.0
  0
POINT
  5
1EB
330
1DF
100
AcDbEntity
  8
Defpoints
100
AcDbPoint
 10
80.0
 20
200.0
 30
0.0
  0
POINT
  5
1EC
330
1DF
100
AcDbEntity
  8
Defpoints
100
AcDbPoint
 10
180.0
 20
200.0
 30
0.0
  0
ENDBLK
  5
1E1
330
1DF
100
AcDbEntity
  8
0
100
AcDbBlockEnd
  0
BLOCK
  5
1EF
330
1EE
100
AcDbEntity
  8
0
100
AcDbBlockBegin
  2
*D6
 70
1
 10
0.0
 20
0.0
 30
0.0
  3
*D6
  1

  0
LINE
  5
1F1
330
1EE
100
AcDbEntity
  8
0
 62
4
370
13
100
AcDbLine
 10
191.0
 20
200.0
 30
0.0
 11
211.2
 21
200.0
 31
0.0
  0
LINE
  5
1F2
330
1EE
100
AcDbEntity
  8
0
 62
4
370
13
100
AcDbLine
 10
191.0
 20
260.0
 30
0.0
 11
211.2
 21
260.0
 31
0.0
  0
INSERT
  5
1F3
330
1EE
100
AcDbEntity
  8
S-DIM
 62
4
100
AcDbBlockReference
  2
_ARCHTICK
 10
210.0
 20
200.0
 30
0.0
 41
1.6
 42
1.6
 50
270.0
  0
INSERT
  5
1F5
330
1EE
100
AcDbEntity
  8
S-DIM
 62
4
100
AcDbBlockReference
  2
_ARCHTICK
 10
210.0
 20
260.0
 30
0.0
 41
1.6
 42
1.6
 50
90.0
  0
LINE
  5
1F7
330
1EE
100
AcDbEntity
  8
0
 62
4
370
13
100
AcDbLine
 10
210.0
 20
200.0
 30
0.0
 11
210.0
 21
260.0
 31
0.0
  0
MTEXT
  5
1F8
330
1EE
100
AcDbEntity
  8
S-DIM
 62
4
100
AcDbMText
 10
208.3
 20
230.0
 30
0.0
 40
1.8
 71
5
  1
2400
  7
OpenSansCondensed-Light
 50
90.0
  0
POINT
  5
1F9
330
1EE
100
AcDbEntity
  8
Defpoints
100
AcDbPoint
 10
210.0
 20
200.0
 30
0.0
  0
POINT
  5
1FA
330
1EE
100
AcDbEntity
  8
Defpoints
100
AcDbPoint
 10
190.0
 20
200.0
 30
0.0
  0
POINT
  5
1FB
330
1EE
100
AcDbEntity
  8
Defpoints
100
AcDbPoint
 10
190.0
 20
260.0
 30
0.0
  0
ENDBLK
  5
1F0
330
1EE
100
AcDbEntity
  8
0
100
AcDbBlockEnd
  0
BLOCK
  5
1FE
330
1FD
100
AcDbEntity
  8
0
100
AcDbBlockBegin
  2
*D7
 70
1
 10
0.0
 20
0.0
 30
0.0
  3
*D7
  1

  0
LINE
  5
200
330
1FD
100
AcDbEntity
  8
0
 62
4
370
13
100
AcDbLine
 10
191.0
 20
260.0
 30
0.0
 11
211.2
 21
260.0
 31
0.0
  0
LINE
  5
201
330
1FD
100
AcDbEntity
  8
0
 62
4
370
13
100
AcDbLine
 10
191.0
 20
272.5
 30
0.0
 11
211.2
 21
272.5
 31
0.0
  0
INSERT
  5
202
330
1FD
100
AcDbEntity
  8
S-DIM
 62
4
100
AcDbBlockReference
  2
_ARCHTICK
 10
210.0
 20
260.0
 30
0.0
 41
1.6
 42
1.6
 50
270.0
  0
INSERT
  5
204
330
1FD
100
AcDbEntity
  8
S-DIM
 62
4
100
AcDbBlockReference
  2
_ARCHTICK
 10
210.0
 20
272.5
 30
0.0
 41
1.6
 42
1.6
 50
90.0
  0
LINE
  5
206
330
1FD
100
AcDbEntity
  8
0
 62
4
370
13
100
AcDbLine
 10
210.0
 20
260.0
 30
0.0
 11
210.0
 21
272.5
 31
0.0
  0
MTEXT
  5
207
330
1FD
100
AcDbEntity
  8
S-DIM
 62
4
100
AcDbMText
 10
208.3
 20
266.25
 30
0.0
 40
1.8
 71
5
  1
500
  7
OpenSansCondensed-Light
 50
90.0
  0
POINT
  5
208
330
1FD
100
AcDbEntity
  8
Defpoints
100
AcDbPoint
 10
210.0
 20
260.0
 30
0.0
  0
POINT
  5
209
330
1FD
100
AcDbEntity
  8
Defpoints
100
AcDbPoint
 10
190.0
 20
260.0
 30
0.0
  0
POINT
  5
20A
330
1FD
100
AcDbEntity
  8
Defpoints
100
AcDbPoint
 10
190.0
 20
272.5
 30
0.0
  0
ENDBLK
  5
1FF
330
1FD
100
AcDbEntity
  8
0
100
AcDbBlockEnd
  0
ENDSEC
  0
SECTION
  2
ENTITIES
  0
LWPOLYLINE
  5
B7
330
17
100
AcDbEntity
  8
S-TITLE
100
AcDbPolyline
 90
4
 70
1
 10
0.0
 20
0.0
 10
841.0
 20
0.0
 10
841.0
 20
594.0
 10
0.0
 20
594.0
  0
LWPOLYLINE
  5
B8
330
17
100
AcDbEntity
  8
S-TITLE
100
AcDbPolyline
 90
4
 70
1
 10
10.0
 20
10.0
 10
831.0
 20
10.0
 10
831.0
 20
584.0
 10
10.0
 20
584.0
  0
TEXT
  5
B9
330
17
100
AcDbEntity
  8
S-TITLE
100
AcDbText
 10
12.0
 20
576.5
 30
0.0
 40
5.0
  1
STRUCTURAL CAD - REINFORCEMENT PACKAGE
  7
OpenSans
 11
12.0
 21
576.5
 31
0.0
100
AcDbText
  0
TEXT
  5
BA
330
17
100
AcDbEntity
  8
S-TITLE
100
AcDbText
 10
12.0
 20
569.5
 30
0.0
 40
2.4
  1
R-701   HEADHOUSE REINFORCEMENT
  7
OpenSans
 11
12.0
 21
569.5
 31
0.0
100
AcDbText
  0
LINE
  5
BB
330
17
100
AcDbEntity
  8
S-TITLE
100
AcDbLine
 10
10.0
 20
566.5
 30
0.0
 11
831.0
 21
566.5
 31
0.0
  0
TEXT
  5
BC
330
17
100
AcDbEntity
  8
S-BLAST
100
AcDbText
 10
829.0
 20
577.0
 30
0.0
 40
2.0
  1
SENTRY POST EXCLUDED FROM THIS PACKAGE
  7
OpenSans
 72
2
 11
829.0
 21
577.0
 31
0.0
100
AcDbText
  0
TEXT
  5
BD
330
17
100
AcDbEntity
  8
S-BLAST
100
AcDbText
 10
829.0
 20
570.5
 30
0.0
 40
1.4
  1
ALL DESIGN ACTIONS ARE MANUAL CALCULATION - NOT DIRECT STAAD OUTPUT
  7
OpenSans
 72
2
 11
829.0
 21
570.5
 31
0.0
100
AcDbText
  0
TEXT
  5
BE
330
17
100
AcDbEntity
  8
S-BLAST
100
AcDbText
 10
12.0
 20
561.5
 30
0.0
 40
1.4
  1
OPEN ITEMS ON THIS SHEET:  C10 RESOLVED - 383 kPa EITHER FACE
  7
OpenSans
 11
12.0
 21
561.5
 31
0.0
100
AcDbText
  0
LWPOLYLINE
  5
BF
330
17
100
AcDbEntity
  8
S-CONCRETE
100
AcDbPolyline
 90
4
 70
1
 10
100.0
 20
385.0
 10
220.0
 20
385.0
 10
220.0
 20
530.0
 10
100.0
 20
530.0
  0
LWPOLYLINE
  5
C0
330
17
100
AcDbEntity
  8
S-CONCRETE
100
AcDbPolyline
 90
4
 70
1
 10
110.0
 20
395.0
 10
210.0
 20
395.0
 10
210.0
 20
520.0
 10
110.0
 20
520.0
  0
HATCH
  5
C1
330
17
100
AcDbEntity
  8
S-HATCH
 62
7
100
AcDbHatch
 10
0.0
 20
0.0
 30
0.0
210
0.0
220
0.0
230
1.0
  2
ANSI31
 70
0
 71
0
 91
2
 92
3
 72
0
 73
1
 93
4
 10
100.0
 20
385.0
 10
220.0
 20
385.0
 10
220.0
 20
530.0
 10
100.0
 20
530.0
 97
0
 92
18
 72
0
 73
1
 93
4
 10
110.0
 20
395.0
 10
210.0
 20
395.0
 10
210.0
 20
520.0
 10
110.0
 20
520.0
 97
0
 75
1
 76
1
 52
0.0
 41
1.6
 77
0
 78
1
 53
45.0
 43
0.0
 44
0.0
 45
-3.5921024485
 46
3.5921024485
 79
0
 98
0
  0
TEXT
  5
C2
330
17
100
AcDbEntity
  8
S-TEXT
100
AcDbText
 10
160.0
 20
390.0
 30
0.0
 40
1.4
  1
HW1
  7
OpenSans
 72
1
 11
160.0
 21
390.0
 31
0.0
100
AcDbText
 73
2
  0
TEXT
  5
C3
330
17
100
AcDbEntity
  8
S-TEXT
100
AcDbText
 10
160.0
 20
525.0
 30
0.0
 40
1.4
  1
HW2
  7
OpenSans
 72
1
 11
160.0
 21
525.0
 31
0.0
100
AcDbText
 73
2
  0
TEXT
  5
C4
330
17
100
AcDbEntity
  8
S-TEXT
100
AcDbText
 10
105.0
 20
457.5
 30
0.0
 40
1.4
  1
HW3
  7
OpenSans
 72
1
 11
105.0
 21
457.5
 31
0.0
100
AcDbText
 73
2
  0
TEXT
  5
C5
330
17
100
AcDbEntity
  8
S-TEXT
100
AcDbText
 10
215.0
 20
457.5
 30
0.0
 40
1.4
  1
HW4
  7
OpenSans
 72
1
 11
215.0
 21
457.5
 31
0.0
100
AcDbText
 73
2
  0
LWPOLYLINE
  5
C6
330
17
100
AcDbEntity
  8
S-STEELWORK
100
AcDbPolyline
 90
4
 70
1
 10
121.25
 20
520.0
 10
143.75
 20
520.0
 10
143.75
 20
530.0
 10
121.25
 20
530.0
  0
TEXT
  5
C7
330
17
100
AcDbEntity
  8
S-TEXT
100
AcDbText
 10
110.0
 20
536.25
 30
0.0
 40
1.4
  1
SECURITY DOOR 900 x 2100  NOT BLAST RATED
  7
OpenSans
 11
110.0
 21
536.25
 31
0.0
100
AcDbText
  0
LINE
  5
C8
330
17
100
AcDbEntity
  8
S-REBAR-MAIN
100
AcDbLine
 10
103.75
 20
387.0
 30
0.0
 11
103.75
 21
528.0
 31
0.0
  0
LINE
  5
C9
330
17
100
AcDbEntity
  8
S-REBAR-MAIN
100
AcDbLine
 10
115.0
 20
387.0
 30
0.0
 11
115.0
 21
528.0
 31
0.0
  0
LINE
  5
CA
330
17
100
AcDbEntity
  8
S-REBAR-MAIN
100
AcDbLine
 10
126.25
 20
387.0
 30
0.0
 11
126.25
 21
528.0
 31
0.0
  0
LINE
  5
CB
330
17
100
AcDbEntity
  8
S-REBAR-MAIN
100
AcDbLine
 10
137.5
 20
387.0
 30
0.0
 11
137.5
 21
528.0
 31
0.0
  0
LINE
  5
CC
330
17
100
AcDbEntity
  8
S-REBAR-MAIN
100
AcDbLine
 10
148.75
 20
387.0
 30
0.0
 11
148.75
 21
528.0
 31
0.0
  0
LINE
  5
CD
330
17
100
AcDbEntity
  8
S-REBAR-MAIN
100
AcDbLine
 10
160.0
 20
387.0
 30
0.0
 11
160.0
 21
528.0
 31
0.0
  0
LINE
  5
CE
330
17
100
AcDbEntity
  8
S-REBAR-MAIN
100
AcDbLine
 10
171.25
 20
387.0
 30
0.0
 11
171.25
 21
528.0
 31
0.0
  0
LINE
  5
CF
330
17
100
AcDbEntity
  8
S-REBAR-MAIN
100
AcDbLine
 10
182.5
 20
387.0
 30
0.0
 11
182.5
 21
528.0
 31
0.0
  0
LINE
  5
D0
330
17
100
AcDbEntity
  8
S-REBAR-MAIN
100
AcDbLine
 10
193.75
 20
387.0
 30
0.0
 11
193.75
 21
528.0
 31
0.0
  0
LINE
  5
D1
330
17
100
AcDbEntity
  8
S-REBAR-MAIN
100
AcDbLine
 10
205.0
 20
387.0
 30
0.0
 11
205.0
 21
528.0
 31
0.0
  0
LINE
  5
D2
330
17
100
AcDbEntity
  8
S-REBAR-MAIN
100
AcDbLine
 10
216.25
 20
387.0
 30
0.0
 11
216.25
 21
528.0
 31
0.0
  0
LINE
  5
D3
330
17
100
AcDbEntity
  8
S-REBAR-MAIN
100
AcDbLine
 10
102.0
 20
388.75
 30
0.0
 11
218.0
 21
388.75
 31
0.0
  0
LINE
  5
D4
330
17
100
AcDbEntity
  8
S-REBAR-MAIN
100
AcDbLine
 10
102.0
 20
400.0
 30
0.0
 11
218.0
 21
400.0
 31
0.0
  0
LINE
  5
D5
330
17
100
AcDbEntity
  8
S-REBAR-MAIN
100
AcDbLine
 10
102.0
 20
411.25
 30
0.0
 11
218.0
 21
411.25
 31
0.0
  0
LINE
  5
D6
330
17
100
AcDbEntity
  8
S-REBAR-MAIN
100
AcDbLine
 10
102.0
 20
422.5
 30
0.0
 11
218.0
 21
422.5
 31
0.0
  0
LINE
  5
D7
330
17
100
AcDbEntity
  8
S-REBAR-MAIN
100
AcDbLine
 10
102.0
 20
433.75
 30
0.0
 11
218.0
 21
433.75
 31
0.0
  0
LINE
  5
D8
330
17
100
AcDbEntity
  8
S-REBAR-MAIN
100
AcDbLine
 10
102.0
 20
445.0
 30
0.0
 11
218.0
 21
445.0
 31
0.0
  0
LINE
  5
D9
330
17
100
AcDbEntity
  8
S-REBAR-MAIN
100
AcDbLine
 10
102.0
 20
456.25
 30
0.0
 11
218.0
 21
456.25
 31
0.0
  0
LINE
  5
DA
330
17
100
AcDbEntity
  8
S-REBAR-MAIN
100
AcDbLine
 10
102.0
 20
467.5
 30
0.0
 11
218.0
 21
467.5
 31
0.0
  0
LINE
  5
DB
330
17
100
AcDbEntity
  8
S-REBAR-MAIN
100
AcDbLine
 10
102.0
 20
478.75
 30
0.0
 11
218.0
 21
478.75
 31
0.0
  0
LINE
  5
DC
330
17
100
AcDbEntity
  8
S-REBAR-MAIN
100
AcDbLine
 10
102.0
 20
490.0
 30
0.0
 11
218.0
 21
490.0
 31
0.0
  0
LINE
  5
DD
330
17
100
AcDbEntity
  8
S-REBAR-MAIN
100
AcDbLine
 10
102.0
 20
501.25
 30
0.0
 11
218.0
 21
501.25
 31
0.0
  0
LINE
  5
DE
330
17
100
AcDbEntity
  8
S-REBAR-MAIN
100
AcDbLine
 10
102.0
 20
512.5
 30
0.0
 11
218.0
 21
512.5
 31
0.0
  0
LINE
  5
DF
330
17
100
AcDbEntity
  8
S-REBAR-MAIN
100
AcDbLine
 10
102.0
 20
523.75
 30
0.0
 11
218.0
 21
523.75
 31
0.0
  0
LWPOLYLINE
  5
E0
330
17
100
AcDbEntity
  8
S-REBAR-STIRRUP
100
AcDbPolyline
 90
4
 70
1
 10
110.0
 20
395.0
 10
140.0
 20
395.0
 10
140.0
 20
520.0
 10
110.0
 20
520.0
  0
LWPOLYLINE
  5
E1
330
17
100
AcDbEntity
  8
S-REBAR-STIRRUP
100
AcDbPolyline
 90
4
 70
1
 10
180.0
 20
395.0
 10
210.0
 20
395.0
 10
210.0
 20
520.0
 10
180.0
 20
520.0
  0
TEXT
  5
E2
330
17
100
AcDbEntity
  8
S-REBAR-STIRRUP
100
AcDbText
 10
111.25
 20
457.5
 30
0.0
 40
1.4
  1
END 1200 - T12 4-LEG @ 175
 50
90.0
  7
OpenSans
 72
1
 11
111.25
 21
457.5
 31
0.0
100
AcDbText
 73
2
  0
TEXT
  5
E3
330
17
100
AcDbEntity
  8
S-REBAR-STIRRUP
100
AcDbText
 10
160.0
 20
457.5
 30
0.0
 40
1.4
  1
MID - T12 4-LEG @ 250
  7
OpenSans
 72
1
 11
160.0
 21
457.5
 31
0.0
100
AcDbText
 73
2
  0
LINE
  5
E4
330
17
100
AcDbEntity
  8
S-HIDDEN
100
AcDbLine
 10
95.0
 20
385.0
 30
0.0
 11
95.0
 21
387.0
 31
0.0
  0
LINE
  5
E5
330
17
100
AcDbEntity
  8
S-HIDDEN
100
AcDbLine
 10
95.0
 20
388.4
 30
0.0
 11
95.0
 21
390.4
 31
0.0
  0
LINE
  5
E6
330
17
100
AcDbEntity
  8
S-HIDDEN
100
AcDbLine
 10
95.0
 20
391.8
 30
0.0
 11
95.0
 21
393.8
 31
0.0
  0
LINE
  5
E7
330
17
100
AcDbEntity
  8
S-HIDDEN
100
AcDbLine
 10
95.0
 20
395.2
 30
0.0
 11
95.0
 21
397.2
 31
0.0
  0
LINE
  5
E8
330
17
100
AcDbEntity
  8
S-HIDDEN
100
AcDbLine
 10
95.0
 20
398.6
 30
0.0
 11
95.0
 21
400.6
 31
0.0
  0
LINE
  5
E9
330
17
100
AcDbEntity
  8
S-HIDDEN
100
AcDbLine
 10
95.0
 20
402.0
 30
0.0
 11
95.0
 21
404.0
 31
0.0
  0
LINE
  5
EA
330
17
100
AcDbEntity
  8
S-HIDDEN
100
AcDbLine
 10
95.0
 20
405.4
 30
0.0
 11
95.0
 21
407.4
 31
0.0
  0
LINE
  5
EB
330
17
100
AcDbEntity
  8
S-HIDDEN
100
AcDbLine
 10
95.0
 20
408.8
 30
0.0
 11
95.0
 21
410.8
 31
0.0
  0
LINE
  5
EC
330
17
100
AcDbEntity
  8
S-HIDDEN
100
AcDbLine
 10
95.0
 20
412.2
 30
0.0
 11
95.0
 21
414.2
 31
0.0
  0
LINE
  5
ED
330
17
100
AcDbEntity
  8
S-HIDDEN
100
AcDbLine
 10
95.0
 20
415.6
 30
0.0
 11
95.0
 21
417.6
 31
0.0
  0
LINE
  5
EE
330
17
100
AcDbEntity
  8
S-HIDDEN
100
AcDbLine
 10
95.0
 20
419.0
 30
0.0
 11
95.0
 21
421.0
 31
0.0
  0
LINE
  5
EF
330
17
100
AcDbEntity
  8
S-HIDDEN
100
AcDbLine
 10
95.0
 20
422.4
 30
0.0
 11
95.0
 21
424.4
 31
0.0
  0
LINE
  5
F0
330
17
100
AcDbEntity
  8
S-HIDDEN
100
AcDbLine
 10
95.0
 20
425.8
 30
0.0
 11
95.0
 21
427.8
 31
0.0
  0
LINE
  5
F1
330
17
100
AcDbEntity
  8
S-HIDDEN
100
AcDbLine
 10
95.0
 20
429.2
 30
0.0
 11
95.0
 21
431.2
 31
0.0
  0
LINE
  5
F2
330
17
100
AcDbEntity
  8
S-HIDDEN
100
AcDbLine
 10
95.0
 20
432.59999999999997
 30
0.0
 11
95.0
 21
434.59999999999997
 31
0.0
  0
LINE
  5
F3
330
17
100
AcDbEntity
  8
S-HIDDEN
100
AcDbLine
 10
95.0
 20
436.0
 30
0.0
 11
95.0
 21
438.0
 31
0.0
  0
LINE
  5
F4
330
17
100
AcDbEntity
  8
S-HIDDEN
100
AcDbLine
 10
95.0
 20
439.4
 30
0.0
 11
95.0
 21
441.4
 31
0.0
  0
LINE
  5
F5
330
17
100
AcDbEntity
  8
S-HIDDEN
100
AcDbLine
 10
95.0
 20
442.79999999999995
 30
0.0
 11
95.0
 21
444.79999999999995
 31
0.0
  0
LINE
  5
F6
330
17
100
AcDbEntity
  8
S-HIDDEN
100
AcDbLine
 10
95.0
 20
446.2
 30
0.0
 11
95.0
 21
448.2
 31
0.0
  0
LINE
  5
F7
330
17
100
AcDbEntity
  8
S-HIDDEN
100
AcDbLine
 10
95.0
 20
449.59999999999997
 30
0.0
 11
95.0
 21
451.59999999999997
 31
0.0
  0
LINE
  5
F8
330
17
100
AcDbEntity
  8
S-HIDDEN
100
AcDbLine
 10
95.0
 20
453.0
 30
0.0
 11
95.0
 21
455.0
 31
0.0
  0
LINE
  5
F9
330
17
100
AcDbEntity
  8
S-HIDDEN
100
AcDbLine
 10
95.0
 20
456.4
 30
0.0
 11
95.0
 21
458.4
 31
0.0
  0
LINE
  5
FA
330
17
100
AcDbEntity
  8
S-HIDDEN
100
AcDbLine
 10
95.0
 20
459.8
 30
0.0
 11
95.0
 21
461.8
 31
0.0
  0
LINE
  5
FB
330
17
100
AcDbEntity
  8
S-HIDDEN
100
AcDbLine
 10
95.0
 20
463.2
 30
0.0
 11
95.0
 21
465.2
 31
0.0
  0
LINE
  5
FC
330
17
100
AcDbEntity
  8
S-HIDDEN
100
AcDbLine
 10
95.0
 20
466.6
 30
0.0
 11
95.0
 21
468.6
 31
0.0
  0
LINE
  5
FD
330
17
100
AcDbEntity
  8
S-HIDDEN
100
AcDbLine
 10
95.0
 20
470.0
 30
0.0
 11
95.0
 21
472.0
 31
0.0
  0
LINE
  5
FE
330
17
100
AcDbEntity
  8
S-HIDDEN
100
AcDbLine
 10
95.0
 20
473.40000000000003
 30
0.0
 11
95.0
 21
475.40000000000003
 31
0.0
  0
LINE
  5
FF
330
17
100
AcDbEntity
  8
S-HIDDEN
100
AcDbLine
 10
95.0
 20
476.8
 30
0.0
 11
95.0
 21
478.8
 31
0.0
  0
LINE
  5
100
330
17
100
AcDbEntity
  8
S-HIDDEN
100
AcDbLine
 10
95.0
 20
480.20000000000005
 30
0.0
 11
95.0
 21
482.20000000000005
 31
0.0
  0
LINE
  5
101
330
17
100
AcDbEntity
  8
S-HIDDEN
100
AcDbLine
 10
95.0
 20
483.6
 30
0.0
 11
95.0
 21
485.6
 31
0.0
  0
LINE
  5
102
330
17
100
AcDbEntity
  8
S-HIDDEN
100
AcDbLine
 10
95.0
 20
487.00000000000006
 30
0.0
 11
95.0
 21
489.00000000000006
 31
0.0
  0
LINE
  5
103
330
17
100
AcDbEntity
  8
S-HIDDEN
100
AcDbLine
 10
95.0
 20
490.40000000000003
 30
0.0
 11
95.0
 21
492.40000000000003
 31
0.0
  0
LINE
  5
104
330
17
100
AcDbEntity
  8
S-HIDDEN
100
AcDbLine
 10
95.0
 20
493.80000000000007
 30
0.0
 11
95.0
 21
495.80000000000007
 31
0.0
  0
LINE
  5
105
330
17
100
AcDbEntity
  8
S-HIDDEN
100
AcDbLine
 10
95.0
 20
497.20000000000005
 30
0.0
 11
95.0
 21
499.20000000000005
 31
0.0
  0
LINE
  5
106
330
17
100
AcDbEntity
  8
S-HIDDEN
100
AcDbLine
 10
95.0
 20
500.6000000000001
 30
0.0
 11
95.0
 21
502.6000000000001
 31
0.0
  0
LINE
  5
107
330
17
100
AcDbEntity
  8
S-HIDDEN
100
AcDbLine
 10
95.0
 20
504.00000000000006
 30
0.0
 11
95.0
 21
506.00000000000006
 31
0.0
  0
LINE
  5
108
330
17
100
AcDbEntity
  8
S-HIDDEN
100
AcDbLine
 10
95.0
 20
507.4000000000001
 30
0.0
 11
95.0
 21
509.4000000000001
 31
0.0
  0
LINE
  5
109
330
17
100
AcDbEntity
  8
S-HIDDEN
100
AcDbLine
 10
95.0
 20
510.80000000000007
 30
0.0
 11
95.0
 21
512.8000000000001
 31
0.0
  0
LINE
  5
10A
330
17
100
AcDbEntity
  8
S-HIDDEN
100
AcDbLine
 10
95.0
 20
514.2
 30
0.0
 11
95.0
 21
516.2
 31
0.0
  0
LINE
  5
10B
330
17
100
AcDbEntity
  8
S-HIDDEN
100
AcDbLine
 10
95.0
 20
517.6000000000001
 30
0.0
 11
95.0
 21
519.6000000000001
 31
0.0
  0
LINE
  5
10C
330
17
100
AcDbEntity
  8
S-HIDDEN
100
AcDbLine
 10
95.0
 20
521.0000000000001
 30
0.0
 11
95.0
 21
523.0000000000001
 31
0.0
  0
LINE
  5
10D
330
17
100
AcDbEntity
  8
S-HIDDEN
100
AcDbLine
 10
95.0
 20
524.4000000000001
 30
0.0
 11
95.0
 21
526.4000000000001
 31
0.0
  0
LINE
  5
10E
330
17
100
AcDbEntity
  8
S-HIDDEN
100
AcDbLine
 10
95.0
 20
527.8000000000001
 30
0.0
 11
95.0
 21
529.8000000000001
 31
0.0
  0
LINE
  5
10F
330
17
100
AcDbEntity
  8
S-HIDDEN
100
AcDbLine
 10
125.0
 20
385.0
 30
0.0
 11
125.0
 21
387.0
 31
0.0
  0
LINE
  5
110
330
17
100
AcDbEntity
  8
S-HIDDEN
100
AcDbLine
 10
125.0
 20
388.4
 30
0.0
 11
125.0
 21
390.4
 31
0.0
  0
LINE
  5
111
330
17
100
AcDbEntity
  8
S-HIDDEN
100
AcDbLine
 10
125.0
 20
391.8
 30
0.0
 11
125.0
 21
393.8
 31
0.0
  0
LINE
  5
112
330
17
100
AcDbEntity
  8
S-HIDDEN
100
AcDbLine
 10
125.0
 20
395.2
 30
0.0
 11
125.0
 21
397.2
 31
0.0
  0
LINE
  5
113
330
17
100
AcDbEntity
  8
S-HIDDEN
100
AcDbLine
 10
125.0
 20
398.6
 30
0.0
 11
125.0
 21
400.6
 31
0.0
  0
LINE
  5
114
330
17
100
AcDbEntity
  8
S-HIDDEN
100
AcDbLine
 10
125.0
 20
402.0
 30
0.0
 11
125.0
 21
404.0
 31
0.0
  0
LINE
  5
115
330
17
100
AcDbEntity
  8
S-HIDDEN
100
AcDbLine
 10
125.0
 20
405.4
 30
0.0
 11
125.0
 21
407.4
 31
0.0
  0
LINE
  5
116
330
17
100
AcDbEntity
  8
S-HIDDEN
100
AcDbLine
 10
125.0
 20
408.8
 30
0.0
 11
125.0
 21
410.8
 31
0.0
  0
LINE
  5
117
330
17
100
AcDbEntity
  8
S-HIDDEN
100
AcDbLine
 10
125.0
 20
412.2
 30
0.0
 11
125.0
 21
414.2
 31
0.0
  0
LINE
  5
118
330
17
100
AcDbEntity
  8
S-HIDDEN
100
AcDbLine
 10
125.0
 20
415.6
 30
0.0
 11
125.0
 21
417.6
 31
0.0
  0
LINE
  5
119
330
17
100
AcDbEntity
  8
S-HIDDEN
100
AcDbLine
 10
125.0
 20
419.0
 30
0.0
 11
125.0
 21
421.0
 31
0.0
  0
LINE
  5
11A
330
17
100
AcDbEntity
  8
S-HIDDEN
100
AcDbLine
 10
125.0
 20
422.4
 30
0.0
 11
125.0
 21
424.4
 31
0.0
  0
LINE
  5
11B
330
17
100
AcDbEntity
  8
S-HIDDEN
100
AcDbLine
 10
125.0
 20
425.8
 30
0.0
 11
125.0
 21
427.8
 31
0.0
  0
LINE
  5
11C
330
17
100
AcDbEntity
  8
S-HIDDEN
100
AcDbLine
 10
125.0
 20
429.2
 30
0.0
 11
125.0
 21
431.2
 31
0.0
  0
LINE
  5
11D
330
17
100
AcDbEntity
  8
S-HIDDEN
100
AcDbLine
 10
125.0
 20
432.59999999999997
 30
0.0
 11
125.0
 21
434.59999999999997
 31
0.0
  0
LINE
  5
11E
330
17
100
AcDbEntity
  8
S-HIDDEN
100
AcDbLine
 10
125.0
 20
436.0
 30
0.0
 11
125.0
 21
438.0
 31
0.0
  0
LINE
  5
11F
330
17
100
AcDbEntity
  8
S-HIDDEN
100
AcDbLine
 10
125.0
 20
439.4
 30
0.0
 11
125.0
 21
441.4
 31
0.0
  0
LINE
  5
120
330
17
100
AcDbEntity
  8
S-HIDDEN
100
AcDbLine
 10
125.0
 20
442.79999999999995
 30
0.0
 11
125.0
 21
444.79999999999995
 31
0.0
  0
LINE
  5
121
330
17
100
AcDbEntity
  8
S-HIDDEN
100
AcDbLine
 10
125.0
 20
446.2
 30
0.0
 11
125.0
 21
448.2
 31
0.0
  0
LINE
  5
122
330
17
100
AcDbEntity
  8
S-HIDDEN
100
AcDbLine
 10
125.0
 20
449.59999999999997
 30
0.0
 11
125.0
 21
451.59999999999997
 31
0.0
  0
LINE
  5
123
330
17
100
AcDbEntity
  8
S-HIDDEN
100
AcDbLine
 10
125.0
 20
453.0
 30
0.0
 11
125.0
 21
455.0
 31
0.0
  0
LINE
  5
124
330
17
100
AcDbEntity
  8
S-HIDDEN
100
AcDbLine
 10
125.0
 20
456.4
 30
0.0
 11
125.0
 21
458.4
 31
0.0
  0
LINE
  5
125
330
17
100
AcDbEntity
  8
S-HIDDEN
100
AcDbLine
 10
125.0
 20
459.8
 30
0.0
 11
125.0
 21
461.8
 31
0.0
  0
LINE
  5
126
330
17
100
AcDbEntity
  8
S-HIDDEN
100
AcDbLine
 10
125.0
 20
463.2
 30
0.0
 11
125.0
 21
465.2
 31
0.0
  0
LINE
  5
127
330
17
100
AcDbEntity
  8
S-HIDDEN
100
AcDbLine
 10
125.0
 20
466.6
 30
0.0
 11
125.0
 21
468.6
 31
0.0
  0
LINE
  5
128
330
17
100
AcDbEntity
  8
S-HIDDEN
100
AcDbLine
 10
125.0
 20
470.0
 30
0.0
 11
125.0
 21
472.0
 31
0.0
  0
LINE
  5
129
330
17
100
AcDbEntity
  8
S-HIDDEN
100
AcDbLine
 10
125.0
 20
473.40000000000003
 30
0.0
 11
125.0
 21
475.40000000000003
 31
0.0
  0
LINE
  5
12A
330
17
100
AcDbEntity
  8
S-HIDDEN
100
AcDbLine
 10
125.0
 20
476.8
 30
0.0
 11
125.0
 21
478.8
 31
0.0
  0
LINE
  5
12B
330
17
100
AcDbEntity
  8
S-HIDDEN
100
AcDbLine
 10
125.0
 20
480.20000000000005
 30
0.0
 11
125.0
 21
482.20000000000005
 31
0.0
  0
LINE
  5
12C
330
17
100
AcDbEntity
  8
S-HIDDEN
100
AcDbLine
 10
125.0
 20
483.6
 30
0.0
 11
125.0
 21
485.6
 31
0.0
  0
LINE
  5
12D
330
17
100
AcDbEntity
  8
S-HIDDEN
100
AcDbLine
 10
125.0
 20
487.00000000000006
 30
0.0
 11
125.0
 21
489.00000000000006
 31
0.0
  0
LINE
  5
12E
330
17
100
AcDbEntity
  8
S-HIDDEN
100
AcDbLine
 10
125.0
 20
490.40000000000003
 30
0.0
 11
125.0
 21
492.40000000000003
 31
0.0
  0
LINE
  5
12F
330
17
100
AcDbEntity
  8
S-HIDDEN
100
AcDbLine
 10
125.0
 20
493.80000000000007
 30
0.0
 11
125.0
 21
495.80000000000007
 31
0.0
  0
LINE
  5
130
330
17
100
AcDbEntity
  8
S-HIDDEN
100
AcDbLine
 10
125.0
 20
497.20000000000005
 30
0.0
 11
125.0
 21
499.20000000000005
 31
0.0
  0
LINE
  5
131
330
17
100
AcDbEntity
  8
S-HIDDEN
100
AcDbLine
 10
125.0
 20
500.6000000000001
 30
0.0
 11
125.0
 21
502.6000000000001
 31
0.0
  0
LINE
  5
132
330
17
100
AcDbEntity
  8
S-HIDDEN
100
AcDbLine
 10
125.0
 20
504.00000000000006
 30
0.0
 11
125.0
 21
506.00000000000006
 31
0.0
  0
LINE
  5
133
330
17
100
AcDbEntity
  8
S-HIDDEN
100
AcDbLine
 10
125.0
 20
507.4000000000001
 30
0.0
 11
125.0
 21
509.4000000000001
 31
0.0
  0
LINE
  5
134
330
17
100
AcDbEntity
  8
S-HIDDEN
100
AcDbLine
 10
125.0
 20
510.80000000000007
 30
0.0
 11
125.0
 21
512.8000000000001
 31
0.0
  0
LINE
  5
135
330
17
100
AcDbEntity
  8
S-HIDDEN
100
AcDbLine
 10
125.0
 20
514.2
 30
0.0
 11
125.0
 21
516.2
 31
0.0
  0
LINE
  5
136
330
17
100
AcDbEntity
  8
S-HIDDEN
100
AcDbLine
 10
125.0
 20
517.6000000000001
 30
0.0
 11
125.0
 21
519.6000000000001
 31
0.0
  0
LINE
  5
137
330
17
100
AcDbEntity
  8
S-HIDDEN
100
AcDbLine
 10
125.0
 20
521.0000000000001
 30
0.0
 11
125.0
 21
523.0000000000001
 31
0.0
  0
LINE
  5
138
330
17
100
AcDbEntity
  8
S-HIDDEN
100
AcDbLine
 10
125.0
 20
524.4000000000001
 30
0.0
 11
125.0
 21
526.4000000000001
 31
0.0
  0
LINE
  5
139
330
17
100
AcDbEntity
  8
S-HIDDEN
100
AcDbLine
 10
125.0
 20
527.8000000000001
 30
0.0
 11
125.0
 21
529.8000000000001
 31
0.0
  0
TEXT
  5
13A
330
17
100
AcDbEntity
  8
S-REBAR-SEC
100
AcDbText
 10
85.0
 20
430.0
 30
0.0
 40
1.4
  1
S16 BAND IN THE SLAB BELOW
 50
90.0
  7
OpenSans
 72
1
 11
85.0
 21
430.0
 31
0.0
100
AcDbText
 73
2
  0
DIMENSION
  5
13B
330
17
100
AcDbEntity
  8
S-DIM
100
AcDbDimension
280
0
  2
*D1
  3
SC-DIM
 10
100.0
 20
350.0
 30
0.0
 11
160.0
 21
351.7
 31
0.0
 70
32
 71
5
  1
<>
100
AcDbAlignedDimension
 13
100.0
 23
385.0
 33
0.0
 14
220.0
 24
385.0
 34
0.0
 50
0.0
100
AcDbRotatedDimension
1001
ACAD
1000
DSTYLE
1002
{
1070
144
1040
40.0
1002
}
  0
DIMENSION
  5
14A
330
17
100
AcDbEntity
  8
S-DIM
100
AcDbDimension
280
0
  2
*D2
  3
SC-DIM
 10
110.0
 20
365.0
 30
0.0
 11
160.0
 21
366.7
 31
0.0
 70
32
 71
5
  1
<>
100
AcDbAlignedDimension
 13
110.0
 23
385.0
 33
0.0
 14
210.0
 24
385.0
 34
0.0
 50
0.0
100
AcDbRotatedDimension
1001
ACAD
1000
DSTYLE
1002
{
1070
144
1040
40.0
1002
}
  0
DIMENSION
  5
159
330
17
100
AcDbEntity
  8
S-DIM
100
AcDbDimension
280
0
  2
*D3
  3
SC-DIM
 10
65.0
 20
385.0
 30
0.0
 11
63.3
 21
457.5
 31
0.0
 70
32
 71
5
  1
<>
100
AcDbAlignedDimension
 13
100.0
 23
385.0
 33
0.0
 14
100.0
 24
530.0
 34
0.0
 50
90.0
100
AcDbRotatedDimension
1001
ACAD
1000
DSTYLE
1002
{
1070
144
1040
40.0
1002
}
  0
DIMENSION
  5
168
330
17
100
AcDbEntity
  8
S-DIM
100
AcDbDimension
280
0
  2
*D4
  3
SC-DIM
 10
80.0
 20
395.0
 30
0.0
 11
78.3
 21
457.5
 31
0.0
 70
32
 71
5
  1
<>
100
AcDbAlignedDimension
 13
100.0
 23
395.0
 33
0.0
 14
100.0
 24
520.0
 34
0.0
 50
90.0
100
AcDbRotatedDimension
1001
ACAD
1000
DSTYLE
1002
{
1070
144
1040
40.0
1002
}
  0
INSERT
  5
177
330
17
100
AcDbEntity
  8
S-TITLE
100
AcDbBlockReference
  2
NORTH
 10
265.0
 20
500.0
 30
0.0
  0
TEXT
  5
179
330
17
100
AcDbEntity
  8
S-TITLE
100
AcDbText
 10
265.0
 20
514.0
 30
0.0
 40
2.0
  1
N
  7
OpenSans
 72
1
 11
265.0
 21
514.0
 31
0.0
100
AcDbText
 73
2
  0
INSERT
  5
17A
330
17
100
AcDbEntity
  8
S-CALLOUT
100
AcDbBlockReference
  2
BARMARK
 10
100.0
 20
500.0
 30
0.0
  0
TEXT
  5
17C
330
17
100
AcDbEntity
  8
S-CALLOUT
100
AcDbText
 10
100.0
 20
500.0
 30
0.0
 40
2.0
  1
H01A
  7
OpenSans
 72
1
 11
100.0
 21
500.0
 31
0.0
100
AcDbText
 73
2
  0
LEADER
  5
17D
330
17
100
AcDbEntity
  8
S-CALLOUT
100
AcDbLeader
  3
SC-DIM
 73
3
 76
2
 10
125.0
 20
515.0
 30
0.0
 10
100.0
 20
500.0
 30
0.0
  0
INSERT
  5
17E
330
17
100
AcDbEntity
  8
S-CALLOUT
100
AcDbBlockReference
  2
BARMARK
 10
240.0
 20
388.0
 30
0.0
  0
TEXT
  5
180
330
17
100
AcDbEntity
  8
S-CALLOUT
100
AcDbText
 10
240.0
 20
388.0
 30
0.0
 40
2.0
  1
H02
  7
OpenSans
 72
1
 11
240.0
 21
388.0
 31
0.0
100
AcDbText
 73
2
  0
LEADER
  5
181
330
17
100
AcDbEntity
  8
S-CALLOUT
100
AcDbLeader
  3
SC-DIM
 73
3
 76
2
 10
200.0
 20
410.0
 30
0.0
 10
240.0
 20
388.0
 30
0.0
  0
INSERT
  5
182
330
17
100
AcDbEntity
  8
S-CALLOUT
100
AcDbBlockReference
  2
BARMARK
 10
176.0
 20
500.0
 30
0.0
  0
TEXT
  5
184
330
17
100
AcDbEntity
  8
S-CALLOUT
100
AcDbText
 10
176.0
 20
500.0
 30
0.0
 40
2.0
  1
H04A
  7
OpenSans
 72
1
 11
176.0
 21
500.0
 31
0.0
100
AcDbText
 73
2
  0
LEADER
  5
185
330
17
100
AcDbEntity
  8
S-CALLOUT
100
AcDbLeader
  3
SC-DIM
 73
3
 76
2
 10
160.0
 20
527.5
 30
0.0
 10
176.0
 20
500.0
 30
0.0
  0
INSERT
  5
186
330
17
100
AcDbEntity
  8
S-SECTION
100
AcDbBlockReference
  2
SECMARK
 10
56.0
 20
430.0
 30
0.0
  0
TEXT
  5
188
330
17
100
AcDbEntity
  8
S-SECTION
100
AcDbText
 10
56.0
 20
431.4
 30
0.0
 40
2.0
  1
D
  7
OpenSans
 72
1
 11
56.0
 21
431.4
 31
0.0
100
AcDbText
 73
2
  0
LINE
  5
189
330
17
100
AcDbEntity
  8
S-SECTION
100
AcDbLine
 10
60.0
 20
430.0
 30
0.0
 11
62.0
 21
430.0
 31
0.0
  0
LWPOLYLINE
  5
18A
330
17
100
AcDbEntity
  8
S-SECTION
100
AcDbPolyline
 90
3
 70
1
 10
62.0
 20
431.4
 10
64.2
 20
430.0
 10
62.0
 20
428.6
  0
INSERT
  5
18B
330
17
100
AcDbEntity
  8
S-SECTION
100
AcDbBlockReference
  2
SECMARK
 10
240.0
 20
430.0
 30
0.0
  0
TEXT
  5
18D
330
17
100
AcDbEntity
  8
S-SECTION
100
AcDbText
 10
240.0
 20
431.4
 30
0.0
 40
2.0
  1
D
  7
OpenSans
 72
1
 11
240.0
 21
431.4
 31
0.0
100
AcDbText
 73
2
  0
LINE
  5
18E
330
17
100
AcDbEntity
  8
S-SECTION
100
AcDbLine
 10
244.0
 20
430.0
 30
0.0
 11
246.0
 21
430.0
 31
0.0
  0
LWPOLYLINE
  5
18F
330
17
100
AcDbEntity
  8
S-SECTION
100
AcDbPolyline
 90
3
 70
1
 10
246.0
 20
431.4
 10
248.2
 20
430.0
 10
246.0
 20
428.6
  0
TEXT
  5
190
330
17
100
AcDbEntity
  8
S-SECTION
100
AcDbText
 10
180.0
 20
366.0
 30
0.0
 40
1.4
  1
SECTION D-D  ->  BELOW
  7
OpenSans
 72
1
 11
180.0
 21
366.0
 31
0.0
100
AcDbText
 73
2
  0
TEXT
  5
191
330
17
100
AcDbEntity
  8
S-TITLE
100
AcDbText
 10
30.0
 20
552.0
 30
0.0
 40
3.5
  1
V1   HEADHOUSE ROOF PLAN - REINFORCEMENT
  7
OpenSans
 11
30.0
 21
552.0
 31
0.0
100
AcDbText
  0
LINE
  5
192
330
17
100
AcDbEntity
  8
S-TITLE
100
AcDbLine
 10
30.0
 20
550.2
 30
0.0
 11
146.8034159410583
 21
550.2
 31
0.0
  0
TEXT
  5
193
330
17
100
AcDbEntity
  8
S-TEXT
100
AcDbText
 10
30.0
 20
544.8
 30
0.0
 40
2.0
  1
SCALE 1:40
  7
OpenSans
 11
30.0
 21
544.8
 31
0.0
100
AcDbText
  0
TEXT
  5
194
330
17
100
AcDbEntity
  8
S-TEXT
100
AcDbText
 10
30.0
 20
358.0
 30
0.0
 40
1.4
  1
HEADHOUSE FLOOR = TOP OF THE 900 PRESSURE SLAB AT (-)2.000  ·  ROOF SOFFIT +0.400  ·  ROOF TOP +0.900  ·  NO EARTH COVER
  7
OpenSans
 11
30.0
 21
358.0
 31
0.0
100
AcDbText
  0
LWPOLYLINE
  5
195
330
17
100
AcDbEntity
  8
S-CONCRETE
100
AcDbPolyline
 90
4
 70
1
 10
70.0
 20
200.0
 10
80.0
 20
200.0
 10
80.0
 20
260.0
 10
70.0
 20
260.0
  0
LWPOLYLINE
  5
196
330
17
100
AcDbEntity
  8
S-CONCRETE
100
AcDbPolyline
 90
4
 70
1
 10
180.0
 20
200.0
 10
190.0
 20
200.0
 10
190.0
 20
260.0
 10
180.0
 20
260.0
  0
LWPOLYLINE
  5
197
330
17
100
AcDbEntity
  8
S-CONCRETE
100
AcDbPolyline
 90
4
 70
1
 10
70.0
 20
260.0
 10
190.0
 20
260.0
 10
190.0
 20
272.5
 10
70.0
 20
272.5
  0
LWPOLYLINE
  5
198
330
17
100
AcDbEntity
  8
S-CONCRETE-THIN
100
AcDbPolyline
 90
4
 70
1
 10
55.0
 20
177.5
 10
205.0
 20
177.5
 10
205.0
 20
200.0
 10
55.0
 20
200.0
  0
HATCH
  5
199
330
17
100
AcDbEntity
  8
S-HATCH
 62
7
100
AcDbHatch
 10
0.0
 20
0.0
 30
0.0
210
0.0
220
0.0
230
1.0
  2
ANSI31
 70
0
 71
0
 91
1
 92
3
 72
0
 73
1
 93
4
 10
70.0
 20
200.0
 10
80.0
 20
200.0
 10
80.0
 20
260.0
 10
70.0
 20
260.0
 97
0
 75
1
 76
1
 52
0.0
 41
1.6
 77
0
 78
1
 53
45.0
 43
0.0
 44
0.0
 45
-3.5921024485
 46
3.5921024485
 79
0
 98
0
  0
HATCH
  5
19A
330
17
100
AcDbEntity
  8
S-HATCH
 62
7
100
AcDbHatch
 10
0.0
 20
0.0
 30
0.0
210
0.0
220
0.0
230
1.0
  2
ANSI31
 70
0
 71
0
 91
1
 92
3
 72
0
 73
1
 93
4
 10
180.0
 20
200.0
 10
190.0
 20
200.0
 10
190.0
 20
260.0
 10
180.0
 20
260.0
 97
0
 75
1
 76
1
 52
0.0
 41
1.6
 77
0
 78
1
 53
45.0
 43
0.0
 44
0.0
 45
-3.5921024485
 46
3.5921024485
 79
0
 98
0
  0
HATCH
  5
19B
330
17
100
AcDbEntity
  8
S-HATCH
 62
7
100
AcDbHatch
 10
0.0
 20
0.0
 30
0.0
210
0.0
220
0.0
230
1.0
  2
ANSI31
 70
0
 71
0
 91
1
 92
3
 72
0
 73
1
 93
4
 10
70.0
 20
260.0
 10
190.0
 20
260.0
 10
190.0
 20
272.5
 10
70.0
 20
272.5
 97
0
 75
1
 76
1
 52
0.0
 41
1.6
 77
0
 78
1
 53
45.0
 43
0.0
 44
0.0
 45
-3.5921024485
 46
3.5921024485
 79
0
 98
0
  0
LWPOLYLINE
  5
19C
330
17
100
AcDbEntity
  8
S-CONCRETE
100
AcDbPolyline
 90
3
 70
0
 10
80.0
 20
260.0
 10
87.5
 20
260.0
 10
80.0
 20
252.5
  0
LWPOLYLINE
  5
19D
330
17
100
AcDbEntity
  8
S-CONCRETE
100
AcDbPolyline
 90
3
 70
0
 10
180.0
 20
260.0
 10
172.5
 20
260.0
 10
180.0
 20
252.5
  0
LINE
  5
19E
330
17
100
AcDbEntity
  8
S-REBAR-MAIN
100
AcDbLine
 10
71.45
 20
201.0
 30
0.0
 11
71.45
 21
271.5
 31
0.0
  0
LINE
  5
19F
330
17
100
AcDbEntity
  8
S-REBAR-MAIN
100
AcDbLine
 10
188.55
 20
201.0
 30
0.0
 11
188.55
 21
271.5
 31
0.0
  0
LINE
  5
1A0
330
17
100
AcDbEntity
  8
S-REBAR-MAIN
100
AcDbLine
 10
78.55
 20
201.0
 30
0.0
 11
78.55
 21
271.5
 31
0.0
  0
LINE
  5
1A1
330
17
100
AcDbEntity
  8
S-REBAR-MAIN
100
AcDbLine
 10
181.45
 20
201.0
 30
0.0
 11
181.45
 21
271.5
 31
0.0
  0
LINE
  5
1A2
330
17
100
AcDbEntity
  8
S-REBAR-MAIN
100
AcDbLine
 10
71.5
 20
270.375
 30
0.0
 11
188.5
 21
270.375
 31
0.0
  0
LINE
  5
1A3
330
17
100
AcDbEntity
  8
S-REBAR-MAIN
100
AcDbLine
 10
71.5
 20
262.125
 30
0.0
 11
188.5
 21
262.125
 31
0.0
  0
LWPOLYLINE
  5
1A4
330
17
100
AcDbEntity
  8
S-REBAR-STIRRUP
100
AcDbPolyline
 90
4
 70
1
 10
71.25
 20
202.25
 10
78.75
 20
202.25
 10
78.75
 20
205.25
 10
71.25
 20
205.25
  0
LWPOLYLINE
  5
1A5
330
17
100
AcDbEntity
  8
S-REBAR-STIRRUP
100
AcDbPolyline
 90
4
 70
1
 10
181.25
 20
202.25
 10
188.75
 20
202.25
 10
188.75
 20
205.25
 10
181.25
 20
205.25
  0
LWPOLYLINE
  5
1A6
330
17
100
AcDbEntity
  8
S-REBAR-STIRRUP
100
AcDbPolyline
 90
4
 70
1
 10
71.25
 20
208.5
 10
78.75
 20
208.5
 10
78.75
 20
211.5
 10
71.25
 20
211.5
  0
LWPOLYLINE
  5
1A7
330
17
100
AcDbEntity
  8
S-REBAR-STIRRUP
100
AcDbPolyline
 90
4
 70
1
 10
181.25
 20
208.5
 10
188.75
 20
208.5
 10
188.75
 20
211.5
 10
181.25
 20
211.5
  0
LWPOLYLINE
  5
1A8
330
17
100
AcDbEntity
  8
S-REBAR-STIRRUP
100
AcDbPolyline
 90
4
 70
1
 10
71.25
 20
214.75
 10
78.75
 20
214.75
 10
78.75
 20
217.75
 10
71.25
 20
217.75
  0
LWPOLYLINE
  5
1A9
330
17
100
AcDbEntity
  8
S-REBAR-STIRRUP
100
AcDbPolyline
 90
4
 70
1
 10
181.25
 20
214.75
 10
188.75
 20
214.75
 10
188.75
 20
217.75
 10
181.25
 20
217.75
  0
LWPOLYLINE
  5
1AA
330
17
100
AcDbEntity
  8
S-REBAR-STIRRUP
100
AcDbPolyline
 90
4
 70
1
 10
71.25
 20
221.0
 10
78.75
 20
221.0
 10
78.75
 20
224.0
 10
71.25
 20
224.0
  0
LWPOLYLINE
  5
1AB
330
17
100
AcDbEntity
  8
S-REBAR-STIRRUP
100
AcDbPolyline
 90
4
 70
1
 10
181.25
 20
221.0
 10
188.75
 20
221.0
 10
188.75
 20
224.0
 10
181.25
 20
224.0
  0
LWPOLYLINE
  5
1AC
330
17
100
AcDbEntity
  8
S-REBAR-STIRRUP
100
AcDbPolyline
 90
4
 70
1
 10
71.25
 20
227.25
 10
78.75
 20
227.25
 10
78.75
 20
230.25
 10
71.25
 20
230.25
  0
LWPOLYLINE
  5
1AD
330
17
100
AcDbEntity
  8
S-REBAR-STIRRUP
100
AcDbPolyline
 90
4
 70
1
 10
181.25
 20
227.25
 10
188.75
 20
227.25
 10
188.75
 20
230.25
 10
181.25
 20
230.25
  0
LWPOLYLINE
  5
1AE
330
17
100
AcDbEntity
  8
S-REBAR-STIRRUP
100
AcDbPolyline
 90
4
 70
1
 10
71.25
 20
233.5
 10
78.75
 20
233.5
 10
78.75
 20
236.5
 10
71.25
 20
236.5
  0
LWPOLYLINE
  5
1AF
330
17
100
AcDbEntity
  8
S-REBAR-STIRRUP
100
AcDbPolyline
 90
4
 70
1
 10
181.25
 20
233.5
 10
188.75
 20
233.5
 10
188.75
 20
236.5
 10
181.25
 20
236.5
  0
LWPOLYLINE
  5
1B0
330
17
100
AcDbEntity
  8
S-REBAR-STIRRUP
100
AcDbPolyline
 90
4
 70
1
 10
71.25
 20
239.75
 10
78.75
 20
239.75
 10
78.75
 20
242.75
 10
71.25
 20
242.75
  0
LWPOLYLINE
  5
1B1
330
17
100
AcDbEntity
  8
S-REBAR-STIRRUP
100
AcDbPolyline
 90
4
 70
1
 10
181.25
 20
239.75
 10
188.75
 20
239.75
 10
188.75
 20
242.75
 10
181.25
 20
242.75
  0
LWPOLYLINE
  5
1B2
330
17
100
AcDbEntity
  8
S-REBAR-STIRRUP
100
AcDbPolyline
 90
4
 70
1
 10
71.25
 20
246.0
 10
78.75
 20
246.0
 10
78.75
 20
249.0
 10
71.25
 20
249.0
  0
LWPOLYLINE
  5
1B3
330
17
100
AcDbEntity
  8
S-REBAR-STIRRUP
100
AcDbPolyline
 90
4
 70
1
 10
181.25
 20
246.0
 10
188.75
 20
246.0
 10
188.75
 20
249.0
 10
181.25
 20
249.0
  0
LWPOLYLINE
  5
1B4
330
17
100
AcDbEntity
  8
S-REBAR-STIRRUP
100
AcDbPolyline
 90
4
 70
1
 10
71.25
 20
252.25
 10
78.75
 20
252.25
 10
78.75
 20
255.25
 10
71.25
 20
255.25
  0
LWPOLYLINE
  5
1B5
330
17
100
AcDbEntity
  8
S-REBAR-STIRRUP
100
AcDbPolyline
 90
4
 70
1
 10
181.25
 20
252.25
 10
188.75
 20
252.25
 10
188.75
 20
255.25
 10
181.25
 20
255.25
  0
LWPOLYLINE
  5
1B6
330
17
100
AcDbEntity
  8
S-REBAR-STIRRUP
100
AcDbPolyline
 90
4
 70
1
 10
81.5
 20
261.875
 10
83.5
 20
261.875
 10
83.5
 20
270.625
 10
81.5
 20
270.625
  0
LWPOLYLINE
  5
1B7
330
17
100
AcDbEntity
  8
S-REBAR-STIRRUP
100
AcDbPolyline
 90
4
 70
1
 10
176.5
 20
261.875
 10
178.5
 20
261.875
 10
178.5
 20
270.625
 10
176.5
 20
270.625
  0
LWPOLYLINE
  5
1B8
330
17
100
AcDbEntity
  8
S-REBAR-STIRRUP
100
AcDbPolyline
 90
4
 70
1
 10
85.875
 20
261.875
 10
87.875
 20
261.875
 10
87.875
 20
270.625
 10
85.875
 20
270.625
  0
LWPOLYLINE
  5
1B9
330
17
100
AcDbEntity
  8
S-REBAR-STIRRUP
100
AcDbPolyline
 90
4
 70
1
 10
172.125
 20
261.875
 10
174.125
 20
261.875
 10
174.125
 20
270.625
 10
172.125
 20
270.625
  0
LWPOLYLINE
  5
1BA
330
17
100
AcDbEntity
  8
S-REBAR-STIRRUP
100
AcDbPolyline
 90
4
 70
1
 10
90.25
 20
261.875
 10
92.25
 20
261.875
 10
92.25
 20
270.625
 10
90.25
 20
270.625
  0
LWPOLYLINE
  5
1BB
330
17
100
AcDbEntity
  8
S-REBAR-STIRRUP
100
AcDbPolyline
 90
4
 70
1
 10
167.75
 20
261.875
 10
169.75
 20
261.875
 10
169.75
 20
270.625
 10
167.75
 20
270.625
  0
LWPOLYLINE
  5
1BC
330
17
100
AcDbEntity
  8
S-REBAR-STIRRUP
100
AcDbPolyline
 90
4
 70
1
 10
94.625
 20
261.875
 10
96.625
 20
261.875
 10
96.625
 20
270.625
 10
94.625
 20
270.625
  0
LWPOLYLINE
  5
1BD
330
17
100
AcDbEntity
  8
S-REBAR-STIRRUP
100
AcDbPolyline
 90
4
 70
1
 10
163.375
 20
261.875
 10
165.375
 20
261.875
 10
165.375
 20
270.625
 10
163.375
 20
270.625
  0
LWPOLYLINE
  5
1BE
330
17
100
AcDbEntity
  8
S-REBAR-STIRRUP
100
AcDbPolyline
 90
4
 70
1
 10
99.0
 20
261.875
 10
101.0
 20
261.875
 10
101.0
 20
270.625
 10
99.0
 20
270.625
  0
LWPOLYLINE
  5
1BF
330
17
100
AcDbEntity
  8
S-REBAR-STIRRUP
100
AcDbPolyline
 90
4
 70
1
 10
159.0
 20
261.875
 10
161.0
 20
261.875
 10
161.0
 20
270.625
 10
159.0
 20
270.625
  0
LWPOLYLINE
  5
1C0
330
17
100
AcDbEntity
  8
S-REBAR-STIRRUP
100
AcDbPolyline
 90
4
 70
1
 10
103.375
 20
261.875
 10
105.375
 20
261.875
 10
105.375
 20
270.625
 10
103.375
 20
270.625
  0
LWPOLYLINE
  5
1C1
330
17
100
AcDbEntity
  8
S-REBAR-STIRRUP
100
AcDbPolyline
 90
4
 70
1
 10
154.625
 20
261.875
 10
156.625
 20
261.875
 10
156.625
 20
270.625
 10
154.625
 20
270.625
  0
LWPOLYLINE
  5
1C2
330
17
100
AcDbEntity
  8
S-REBAR-STIRRUP
100
AcDbPolyline
 90
4
 70
1
 10
107.75
 20
261.875
 10
109.75
 20
261.875
 10
109.75
 20
270.625
 10
107.75
 20
270.625
  0
LWPOLYLINE
  5
1C3
330
17
100
AcDbEntity
  8
S-REBAR-STIRRUP
100
AcDbPolyline
 90
4
 70
1
 10
150.25
 20
261.875
 10
152.25
 20
261.875
 10
152.25
 20
270.625
 10
150.25
 20
270.625
  0
LWPOLYLINE
  5
1C4
330
17
100
AcDbEntity
  8
S-REBAR-STIRRUP
100
AcDbPolyline
 90
4
 70
1
 10
116.5
 20
261.875
 10
118.5
 20
261.875
 10
118.5
 20
270.625
 10
116.5
 20
270.625
  0
LWPOLYLINE
  5
1C5
330
17
100
AcDbEntity
  8
S-REBAR-STIRRUP
100
AcDbPolyline
 90
4
 70
1
 10
122.75
 20
261.875
 10
124.75
 20
261.875
 10
124.75
 20
270.625
 10
122.75
 20
270.625
  0
LWPOLYLINE
  5
1C6
330
17
100
AcDbEntity
  8
S-REBAR-STIRRUP
100
AcDbPolyline
 90
4
 70
1
 10
129.0
 20
261.875
 10
131.0
 20
261.875
 10
131.0
 20
270.625
 10
129.0
 20
270.625
  0
LWPOLYLINE
  5
1C7
330
17
100
AcDbEntity
  8
S-REBAR-STIRRUP
100
AcDbPolyline
 90
4
 70
1
 10
135.25
 20
261.875
 10
137.25
 20
261.875
 10
137.25
 20
270.625
 10
135.25
 20
270.625
  0
LWPOLYLINE
  5
1C8
330
17
100
AcDbEntity
  8
S-REBAR-STIRRUP
100
AcDbPolyline
 90
4
 70
1
 10
141.5
 20
261.875
 10
143.5
 20
261.875
 10
143.5
 20
270.625
 10
141.5
 20
270.625
  0
LWPOLYLINE
  5
1C9
330
17
100
AcDbEntity
  8
S-BLAST
100
AcDbPolyline
 90
2
 70
0
 10
47.5
 20
207.5
 10
67.5
 20
207.5
  0
LWPOLYLINE
  5
1CA
330
17
100
AcDbEntity
  8
S-BLAST
100
AcDbPolyline
 90
3
 70
0
 10
62.5
 20
210.5
 10
67.5
 20
207.5
 10
62.5
 20
204.5
  0
LWPOLYLINE
  5
1CB
330
17
100
AcDbEntity
  8
S-BLAST
100
AcDbPolyline
 90
2
 70
0
 10
97.5
 20
207.5
 10
82.5
 20
207.5
  0
LWPOLYLINE
  5
1CC
330
17
100
AcDbEntity
  8
S-BLAST
100
AcDbPolyline
 90
3
 70
0
 10
87.5
 20
210.5
 10
82.5
 20
207.5
 10
87.5
 20
204.5
  0
LWPOLYLINE
  5
1CD
330
17
100
AcDbEntity
  8
S-BLAST
100
AcDbPolyline
 90
2
 70
0
 10
47.5
 20
220.0
 10
67.5
 20
220.0
  0
LWPOLYLINE
  5
1CE
330
17
100
AcDbEntity
  8
S-BLAST
100
AcDbPolyline
 90
3
 70
0
 10
62.5
 20
223.0
 10
67.5
 20
220.0
 10
62.5
 20
217.0
  0
LWPOLYLINE
  5
1CF
330
17
100
AcDbEntity
  8
S-BLAST
100
AcDbPolyline
 90
2
 70
0
 10
97.5
 20
220.0
 10
82.5
 20
220.0
  0
LWPOLYLINE
  5
1D0
330
17
100
AcDbEntity
  8
S-BLAST
100
AcDbPolyline
 90
3
 70
0
 10
87.5
 20
223.0
 10
82.5
 20
220.0
 10
87.5
 20
217.0
  0
LWPOLYLINE
  5
1D1
330
17
100
AcDbEntity
  8
S-BLAST
100
AcDbPolyline
 90
2
 70
0
 10
47.5
 20
232.5
 10
67.5
 20
232.5
  0
LWPOLYLINE
  5
1D2
330
17
100
AcDbEntity
  8
S-BLAST
100
AcDbPolyline
 90
3
 70
0
 10
62.5
 20
235.5
 10
67.5
 20
232.5
 10
62.5
 20
229.5
  0
LWPOLYLINE
  5
1D3
330
17
100
AcDbEntity
  8
S-BLAST
100
AcDbPolyline
 90
2
 70
0
 10
97.5
 20
232.5
 10
82.5
 20
232.5
  0
LWPOLYLINE
  5
1D4
330
17
100
AcDbEntity
  8
S-BLAST
100
AcDbPolyline
 90
3
 70
0
 10
87.5
 20
235.5
 10
82.5
 20
232.5
 10
87.5
 20
229.5
  0
LWPOLYLINE
  5
1D5
330
17
100
AcDbEntity
  8
S-BLAST
100
AcDbPolyline
 90
2
 70
0
 10
47.5
 20
245.0
 10
67.5
 20
245.0
  0
LWPOLYLINE
  5
1D6
330
17
100
AcDbEntity
  8
S-BLAST
100
AcDbPolyline
 90
3
 70
0
 10
62.5
 20
248.0
 10
67.5
 20
245.0
 10
62.5
 20
242.0
  0
LWPOLYLINE
  5
1D7
330
17
100
AcDbEntity
  8
S-BLAST
100
AcDbPolyline
 90
2
 70
0
 10
97.5
 20
245.0
 10
82.5
 20
245.0
  0
LWPOLYLINE
  5
1D8
330
17
100
AcDbEntity
  8
S-BLAST
100
AcDbPolyline
 90
3
 70
0
 10
87.5
 20
248.0
 10
82.5
 20
245.0
 10
87.5
 20
242.0
  0
LWPOLYLINE
  5
1D9
330
17
100
AcDbEntity
  8
S-BLAST
100
AcDbPolyline
 90
2
 70
0
 10
47.5
 20
257.5
 10
67.5
 20
257.5
  0
LWPOLYLINE
  5
1DA
330
17
100
AcDbEntity
  8
S-BLAST
100
AcDbPolyline
 90
3
 70
0
 10
62.5
 20
260.5
 10
67.5
 20
257.5
 10
62.5
 20
254.5
  0
LWPOLYLINE
  5
1DB
330
17
100
AcDbEntity
  8
S-BLAST
100
AcDbPolyline
 90
2
 70
0
 10
97.5
 20
257.5
 10
82.5
 20
257.5
  0
LWPOLYLINE
  5
1DC
330
17
100
AcDbEntity
  8
S-BLAST
100
AcDbPolyline
 90
3
 70
0
 10
87.5
 20
260.5
 10
82.5
 20
257.5
 10
87.5
 20
254.5
  0
TEXT
  5
1DD
330
17
100
AcDbEntity
  8
S-BLAST
100
AcDbText
 10
47.5
 20
265.0
 30
0.0
 40
1.4
  1
383 kPa EITHER FACE
  7
OpenSans
 11
47.5
 21
265.0
 31
0.0
100
AcDbText
  0
DIMENSION
  5
1DE
330
17
100
AcDbEntity
  8
S-DIM
100
AcDbDimension
280
0
  2
*D5
  3
SC-DIM
 10
80.0
 20
162.5
 30
0.0
 11
130.0
 21
164.2
 31
0.0
 70
32
 71
5
  1
<>
100
AcDbAlignedDimension
 13
80.0
 23
200.0
 33
0.0
 14
180.0
 24
200.0
 34
0.0
 50
0.0
100
AcDbRotatedDimension
1001
ACAD
1000
DSTYLE
1002
{
1070
144
1040
40.0
1002
}
  0
DIMENSION
  5
1ED
330
17
100
AcDbEntity
  8
S-DIM
100
AcDbDimension
280
0
  2
*D6
  3
SC-DIM
 10
210.0
 20
200.0
 30
0.0
 11
208.3
 21
230.0
 31
0.0
 70
32
 71
5
  1
<>
100
AcDbAlignedDimension
 13
190.0
 23
200.0
 33
0.0
 14
190.0
 24
260.0
 34
0.0
 50
90.0
100
AcDbRotatedDimension
1001
ACAD
1000
DSTYLE
1002
{
1070
144
1040
40.0
1002
}
  0
DIMENSION
  5
1FC
330
17
100
AcDbEntity
  8
S-DIM
100
AcDbDimension
280
0
  2
*D7
  3
SC-DIM
 10
210.0
 20
260.0
 30
0.0
 11
208.3
 21
266.25
 31
0.0
 70
32
 71
5
  1
<>
100
AcDbAlignedDimension
 13
190.0
 23
260.0
 33
0.0
 14
190.0
 24
272.5
 34
0.0
 50
90.0
100
AcDbRotatedDimension
1001
ACAD
1000
DSTYLE
1002
{
1070
144
1040
40.0
1002
}
  0
INSERT
  5
20B
330
17
100
AcDbEntity
  8
S-LEVEL
100
AcDbBlockReference
  2
LEVELMK
 10
130.0
 20
272.5
 30
0.0
  0
TEXT
  5
20D
330
17
100
AcDbEntity
  8
S-LEVEL
100
AcDbText
 10
133.0
 20
275.7
 30
0.0
 40
1.8
  1
+0.900
  7
OpenSans
 11
133.0
 21
275.7
 31
0.0
100
AcDbText
  0
INSERT
  5
20E
330
17
100
AcDbEntity
  8
S-LEVEL
100
AcDbBlockReference
  2
LEVELMK
 10
130.0
 20
260.0
 30
0.0
  0
TEXT
  5
210
330
17
100
AcDbEntity
  8
S-LEVEL
100
AcDbText
 10
133.0
 20
263.2
 30
0.0
 40
1.8
  1
+0.400
  7
OpenSans
 11
133.0
 21
263.2
 31
0.0
100
AcDbText
  0
INSERT
  5
211
330
17
100
AcDbEntity
  8
S-LEVEL
100
AcDbBlockReference
  2
LEVELMK
 10
130.0
 20
200.0
 30
0.0
  0
TEXT
  5
213
330
17
100
AcDbEntity
  8
S-LEVEL
100
AcDbText
 10
133.0
 20
203.2
 30
0.0
 40
1.8
  1
(-)2.000
  7
OpenSans
 11
133.0
 21
203.2
 31
0.0
100
AcDbText
  0
INSERT
  5
214
330
17
100
AcDbEntity
  8
S-CALLOUT
100
AcDbBlockReference
  2
BARMARK
 10
48.0
 20
268.0
 30
0.0
  0
TEXT
  5
216
330
17
100
AcDbEntity
  8
S-CALLOUT
100
AcDbText
 10
48.0
 20
268.0
 30
0.0
 40
2.0
  1
H04A
  7
OpenSans
 72
1
 11
48.0
 21
268.0
 31
0.0
100
AcDbText
 73
2
  0
LEADER
  5
217
330
17
100
AcDbEntity
  8
S-CALLOUT
100
AcDbLeader
  3
SC-DIM
 73
3
 76
2
 10
71.45
 20
230.0
 30
0.0
 10
48.0
 20
268.0
 30
0.0
  0
INSERT
  5
218
330
17
100
AcDbEntity
  8
S-CALLOUT
100
AcDbBlockReference
  2
BARMARK
 10
126.0
 20
288.0
 30
0.0
  0
TEXT
  5
21A
330
17
100
AcDbEntity
  8
S-CALLOUT
100
AcDbText
 10
126.0
 20
288.0
 30
0.0
 40
2.0
  1
H05
  7
OpenSans
 72
1
 11
126.0
 21
288.0
 31
0.0
100
AcDbText
 73
2
  0
LEADER
  5
21B
330
17
100
AcDbEntity
  8
S-CALLOUT
100
AcDbLeader
  3
SC-DIM
 73
3
 76
2
 10
75.0
 20
222.5
 30
0.0
 10
126.0
 20
288.0
 30
0.0
  0
INSERT
  5
21C
330
17
100
AcDbEntity
  8
S-CALLOUT
100
AcDbBlockReference
  2
BARMARK
 10
110.0
 20
276.0
 30
0.0
  0
TEXT
  5
21E
330
17
100
AcDbEntity
  8
S-CALLOUT
100
AcDbText
 10
110.0
 20
276.0
 30
0.0
 40
2.0
  1
H01C
  7
OpenSans
 72
1
 11
110.0
 21
276.0
 31
0.0
100
AcDbText
 73
2
  0
LEADER
  5
21F
330
17
100
AcDbEntity
  8
S-CALLOUT
100
AcDbLeader
  3
SC-DIM
 73
3
 76
2
 10
110.0
 20
270.375
 30
0.0
 10
110.0
 20
276.0
 30
0.0
  0
INSERT
  5
220
330
17
100
AcDbEntity
  8
S-CALLOUT
100
AcDbBlockReference
  2
BARMARK
 10
94.0
 20
252.0
 30
0.0
  0
TEXT
  5
222
330
17
100
AcDbEntity
  8
S-CALLOUT
100
AcDbText
 10
94.0
 20
252.0
 30
0.0
 40
2.0
  1
H06
  7
OpenSans
 72
1
 11
94.0
 21
252.0
 31
0.0
100
AcDbText
 73
2
  0
LEADER
  5
223
330
17
100
AcDbEntity
  8
S-CALLOUT
100
AcDbLeader
  3
SC-DIM
 73
3
 76
2
 10
84.0
 20
257.0
 30
0.0
 10
94.0
 20
252.0
 30
0.0
  0
TEXT
  5
224
330
17
100
AcDbEntity
  8
S-TITLE
100
AcDbText
 10
30.0
 20
340.0
 30
0.0
 40
3.5
  1
V2   SECTION D-D  -  HEADHOUSE WALL AND ROOF
  7
OpenSans
 11
30.0
 21
340.0
 31
0.0
100
AcDbText
  0
LINE
  5
225
330
17
100
AcDbEntity
  8
S-TITLE
100
AcDbLine
 10
30.0
 20
338.2
 30
0.0
 11
153.3556597454789
 21
338.2
 31
0.0
  0
TEXT
  5
226
330
17
100
AcDbEntity
  8
S-TEXT
100
AcDbText
 10
30.0
 20
332.8
 30
0.0
 40
2.0
  1
SCALE 1:40
  7
OpenSans
 11
30.0
 21
332.8
 31
0.0
100
AcDbText
  0
TEXT
  5
227
330
17
100
AcDbEntity
  8
S-TITLE
100
AcDbText
 10
302.0
 20
547.5
 30
0.0
 40
2.5
  1
HEADHOUSE ROOF 500 - DESIGN BASIS
  7
OpenSans
 11
302.0
 21
547.5
 31
0.0
100
AcDbText
  0
TEXT
  5
228
330
17
100
AcDbEntity
  8
S-NOTE
100
AcDbText
 10
302.0
 20
543.375
 30
0.0
 40
2.0
  1
GOVERNING COMBINATION  103 BLAST,  w = 396.5 kPa
  7
OpenSans
 11
302.0
 21
543.375
 31
0.0
100
AcDbText
  0
TEXT
  5
229
330
17
100
AcDbEntity
  8
S-NOTE
100
AcDbText
 10
302.0
 20
540.325
 30
0.0
 40
2.0
  1
  = 383 blast + 12.5 self + 1.0 SIDL   (IS 4991 Cl. 7.2, flush at the
  7
OpenSans
 11
302.0
 21
540.325
 31
0.0
100
AcDbText
  0
TEXT
  5
22A
330
17
100
AcDbEntity
  8
S-NOTE
100
AcDbText
 10
302.0
 20
537.2750000000001
 30
0.0
 40
2.0
  1
  berm crest, NO earth cover on the headhouse roof)
  7
OpenSans
 11
302.0
 21
537.2750000000001
 31
0.0
100
AcDbText
  0
TEXT
  5
22B
330
17
100
AcDbEntity
  8
S-NOTE
100
AcDbText
 10
302.0
 20
531.1750000000002
 30
0.0
 40
2.0
  1
THREE ANALYSES RUN, THE MOST CONSERVATIVE ADOPTED
  7
OpenSans
 11
302.0
 21
531.1750000000002
 31
0.0
100
AcDbText
  0
TEXT
  5
22C
330
17
100
AcDbEntity
  8
S-NOTE
100
AcDbText
 10
302.0
 20
528.1250000000002
 30
0.0
 40
2.0
  1
  1  One-way fixed-fixed strip, Mp = w Ln2/16   =  396.5 kNm/m   <- ADOPTED
  7
OpenSans
 11
302.0
 21
528.1250000000002
 31
0.0
100
AcDbText
  0
TEXT
  5
22D
330
17
100
AcDbEntity
  8
S-NOTE
100
AcDbText
 10
302.0
 20
525.0750000000003
 30
0.0
 40
2.0
  1
  2  IS 456 Table 26 Case 1, ax- = 0.045 at 1.25 =  285.5 kNm/m
  7
OpenSans
 11
302.0
 21
525.0750000000003
 31
0.0
100
AcDbText
  0
TEXT
  5
22E
330
17
100
AcDbEntity
  8
S-NOTE
100
AcDbText
 10
302.0
 20
522.0250000000003
 30
0.0
 40
2.0
  1
  3  Yield line, fixed 4 edges, isotropic        =  162.2 kNm/m
  7
OpenSans
 11
302.0
 21
522.0250000000003
 31
0.0
100
AcDbText
  0
TEXT
  5
22F
330
17
100
AcDbEntity
  8
S-NOTE
100
AcDbText
 10
302.0
 20
515.9250000000004
 30
0.0
 40
2.0
  1
  Method 3 formula  wu = 48 m / [a2 (sqrt(3 + (a/b)2) - a/b)2]
  7
OpenSans
 11
302.0
 21
515.9250000000004
 31
0.0
100
AcDbText
  0
TEXT
  5
230
330
17
100
AcDbEntity
  8
S-NOTE
100
AcDbText
 10
302.0
 20
512.8750000000005
 30
0.0
 40
2.0
  1
  VALIDATION: as b -> infinity, 48/3 = 16 = the fixed-fixed strip w L2/16.
  7
OpenSans
 11
302.0
 21
512.8750000000005
 31
0.0
100
AcDbText
  0
TEXT
  5
231
330
17
100
AcDbEntity
  8
S-NOTE
100
AcDbText
 10
302.0
 20
509.82500000000044
 30
0.0
 40
2.0
  1
  (The 24-coefficient version gives 8 = SIMPLY SUPPORTED w L2/8.)
  7
OpenSans
 11
302.0
 21
509.82500000000044
 31
0.0
100
AcDbText
  0
TEXT
  5
232
330
17
100
AcDbEntity
  8
S-NOTE
100
AcDbText
 10
302.0
 20
506.77500000000043
 30
0.0
 40
2.0
  1
  An earlier yield-line coefficient error (324.4 -> 162.2, ERR-1) was found
  7
OpenSans
 11
302.0
 21
506.77500000000043
 31
0.0
100
AcDbText
  0
TEXT
  5
233
330
17
100
AcDbEntity
  8
S-NOTE
100
AcDbText
 10
302.0
 20
503.7250000000004
 30
0.0
 40
2.0
  1
  and corrected in the project record.  NO REINFORCEMENT CHANGED.
  7
OpenSans
 11
302.0
 21
503.7250000000004
 31
0.0
100
AcDbText
  0
TEXT
  5
234
330
17
100
AcDbEntity
  8
S-NOTE
100
AcDbText
 10
302.0
 20
497.6250000000004
 30
0.0
 40
2.0
  1
FLEXURE   d = 500 - 75 - 10 = 415 ;  Mu,lim 1002 kNm/m  OK
  7
OpenSans
 11
302.0
 21
497.6250000000004
 31
0.0
100
AcDbText
  0
TEXT
  5
235
330
17
100
AcDbEntity
  8
S-NOTE
100
AcDbText
 10
302.0
 20
494.5750000000004
 30
0.0
 40
2.0
  1
  Ast,req 1879 mm2/m ;  Cl. 26.5.2.1 min 0.12 % x 500 = 600
  7
OpenSans
 11
302.0
 21
494.5750000000004
 31
0.0
100
AcDbText
  0
TEXT
  5
236
330
17
100
AcDbEntity
  8
S-NOTE
100
AcDbText
 10
302.0
 20
491.5250000000004
 30
0.0
 40
2.0
  1
  PROVIDED T20 @ 150 EF EW = 2094  ->  Mu 438.5 kNm/m
  7
OpenSans
 11
302.0
 21
491.5250000000004
 31
0.0
100
AcDbText
  0
TEXT
  5
237
330
17
100
AcDbEntity
  8
S-NOTE
100
AcDbText
 10
302.0
 20
488.47500000000036
 30
0.0
 40
2.0
  1
  UTILISATION  90 % one-way  |  65 % Table 26  |  37 % yield line
  7
OpenSans
 11
302.0
 21
488.47500000000036
 31
0.0
100
AcDbText
  0
TEXT
  5
238
330
17
100
AcDbEntity
  8
S-NOTE
100
AcDbText
 10
302.0
 20
485.42500000000035
 30
0.0
 40
2.0
  1
  xu 72.3, x/d 0.174 << 0.46
  7
OpenSans
 11
302.0
 21
485.42500000000035
 31
0.0
100
AcDbText
  0
TEXT
  5
239
330
17
100
AcDbEntity
  8
S-NOTE
100
AcDbText
 10
302.0
 20
482.37500000000034
 30
0.0
 40
2.0
  1
  *** 90 % IS THE TIGHTEST ELEMENT IN THIS PACKAGE ***
  7
OpenSans
 11
302.0
 21
482.37500000000034
 31
0.0
100
AcDbText
  0
TEXT
  5
23A
330
17
100
AcDbEntity
  8
S-NOTE
100
AcDbText
 10
302.0
 20
476.2750000000003
 30
0.0
 40
2.0
  1
SHEAR  -  NEW AND MANDATORY, NOT IN THE PHASE 1 REPORT
  7
OpenSans
 11
302.0
 21
476.2750000000003
 31
0.0
100
AcDbText
  0
TEXT
  5
23B
330
17
100
AcDbEntity
  8
S-NOTE
100
AcDbText
 10
302.0
 20
473.2250000000003
 30
0.0
 40
2.0
  1
  V at d = 396.5 (2.000 - 0.415)             =  628.4 kN/m
  7
OpenSans
 11
302.0
 21
473.2250000000003
 31
0.0
100
AcDbText
  0
TEXT
  5
23C
330
17
100
AcDbEntity
  8
S-NOTE
100
AcDbText
 10
302.0
 20
470.1750000000003
 30
0.0
 40
2.0
  1
  tau_v 1.514 | tau_c 0.502 (pt 0.505 %, read at the STATIC M35 value -
  7
OpenSans
 11
302.0
 21
470.1750000000003
 31
0.0
100
AcDbText
  0
TEXT
  5
23D
330
17
100
AcDbEntity
  8
S-NOTE
100
AcDbText
 10
302.0
 20
467.1250000000003
 30
0.0
 40
2.0
  1
  IS 4991 Cl. 10.3.1.1) | tau_c,max 3.70  OK
  7
OpenSans
 11
302.0
 21
467.1250000000003
 31
0.0
100
AcDbText
  0
TEXT
  5
23E
330
17
100
AcDbEntity
  8
S-NOTE
100
AcDbText
 10
302.0
 20
464.0750000000003
 30
0.0
 40
2.0
  1
  Vus 420.0 ; Asv/sv 2.327  ->  T12 4-leg at 194 ; Cl. 26.5.1.5 limit 300
  7
OpenSans
 11
302.0
 21
464.0750000000003
 31
0.0
100
AcDbText
  0
TEXT
  5
23F
330
17
100
AcDbEntity
  8
S-NOTE
100
AcDbText
 10
302.0
 20
461.02500000000026
 30
0.0
 40
2.0
  1
  PROVIDED  T12 4-LEG @ 175 IN THE END 1200 EACH SIDE ; @ 250 ELSEWHERE
  7
OpenSans
 11
302.0
 21
461.02500000000026
 31
0.0
100
AcDbText
  0
TEXT
  5
240
330
17
100
AcDbEntity
  8
S-NOTE
100
AcDbText
 10
302.0
 20
454.92500000000024
 30
0.0
 40
2.0
  1
DETAILING   NO OPENING IN THE HEADHOUSE ROOF - the stair void is in the
  7
OpenSans
 11
302.0
 21
454.92500000000024
 31
0.0
100
AcDbText
  0
TEXT
  5
241
330
17
100
AcDbEntity
  8
S-NOTE
100
AcDbText
 10
302.0
 20
451.8750000000002
 30
0.0
 40
2.0
  1
FLOOR.  Corner torsion steel (Cl. D-1.8) NOT REQUIRED: all four edges carry
  7
OpenSans
 11
302.0
 21
451.8750000000002
 31
0.0
100
AcDbText
  0
TEXT
  5
242
330
17
100
AcDbEntity
  8
S-NOTE
100
AcDbText
 10
302.0
 20
448.8250000000002
 30
0.0
 40
2.0
  1
full T20 @ 150 hogging steel continuous into the walls.  Haunch 300 x 300
  7
OpenSans
 11
302.0
 21
448.8250000000002
 31
0.0
100
AcDbText
  0
TEXT
  5
243
330
17
100
AcDbEntity
  8
S-NOTE
100
AcDbText
 10
302.0
 20
445.7750000000002
 30
0.0
 40
2.0
  1
at all four wall-roof junctions, diagonal T16 @ 150.  Top steel continuous
  7
OpenSans
 11
302.0
 21
445.7750000000002
 31
0.0
100
AcDbText
  0
TEXT
  5
244
330
17
100
AcDbEntity
  8
S-NOTE
100
AcDbText
 10
302.0
 20
442.7250000000002
 30
0.0
 40
2.0
  1
over every support, anchored Ld = 800 into the wall.
  7
OpenSans
 11
302.0
 21
442.7250000000002
 31
0.0
100
AcDbText
  0
TEXT
  5
245
330
17
100
AcDbEntity
  8
S-NOTE
100
AcDbText
 10
302.0
 20
436.62500000000017
 30
0.0
 40
2.0
  1
CONFLICT C2 RESOLVED: the Phase 1 report designed this roof for a 3.0 m span
  7
OpenSans
 11
302.0
 21
436.62500000000017
 31
0.0
100
AcDbText
  0
TEXT
  5
246
330
17
100
AcDbEntity
  8
S-NOTE
100
AcDbText
 10
302.0
 20
433.57500000000016
 30
0.0
 40
2.0
  1
with 1.0 m of cover.  Rev F is 4.0 m with NO cover.  RECOMPUTED - T20 @ 150
  7
OpenSans
 11
302.0
 21
433.57500000000016
 31
0.0
100
AcDbText
  0
TEXT
  5
247
330
17
100
AcDbEntity
  8
S-NOTE
100
AcDbText
 10
302.0
 20
430.52500000000015
 30
0.0
 40
2.0
  1
survives at 90 %, but THE SHEAR LINKS ARE NEW AND MANDATORY.
  7
OpenSans
 11
302.0
 21
430.52500000000015
 31
0.0
100
AcDbText
  0
TEXT
  5
248
330
17
100
AcDbEntity
  8
S-NOTE
100
AcDbText
 10
302.0
 20
424.4250000000001
 30
0.0
 40
2.0
  1
MANUAL CALCULATION - NOT DIRECT STAAD OUTPUT.
  7
OpenSans
 11
302.0
 21
424.4250000000001
 31
0.0
100
AcDbText
  0
LWPOLYLINE
  5
249
330
17
100
AcDbEntity
  8
S-TITLE
100
AcDbPolyline
 90
4
 70
1
 10
300.0
 20
419.3750000000001
 10
638.0
 20
419.3750000000001
 10
638.0
 20
552.0
 10
300.0
 20
552.0
  0
TEXT
  5
24A
330
17
100
AcDbEntity
  8
S-TITLE
100
AcDbText
 10
302.0
 20
408.8750000000001
 30
0.0
 40
2.5
  1
HEADHOUSE WALLS 400 - CONFLICT C10
  7
OpenSans
 11
302.0
 21
408.8750000000001
 31
0.0
100
AcDbText
  0
TEXT
  5
24B
330
17
100
AcDbEntity
  8
S-NOTE
100
AcDbText
 10
302.0
 20
404.7500000000001
 30
0.0
 40
2.0
  1
                              CASE A (report)     CASE B (ADOPTED)
  7
OpenSans
 11
302.0
 21
404.7500000000001
 31
0.0
100
AcDbText
  0
TEXT
  5
24C
330
17
100
AcDbEntity
  8
S-NOTE
100
AcDbText
 10
302.0
 20
401.7000000000001
 30
0.0
 40
2.0
  1
Lateral pressure              113 kPa drag        383 kPa full envelope
  7
OpenSans
 11
302.0
 21
401.7000000000001
 31
0.0
100
AcDbText
  0
TEXT
  5
24D
330
17
100
AcDbEntity
  8
S-NOTE
100
AcDbText
 10
302.0
 20
398.6500000000001
 30
0.0
 40
2.0
  1
Mp = w x 2.400^2 / 16         40.7 kNm/m          137.9 kNm/m
  7
OpenSans
 11
302.0
 21
398.6500000000001
 31
0.0
100
AcDbText
  0
TEXT
  5
24E
330
17
100
AcDbEntity
  8
S-NOTE
100
AcDbText
 10
302.0
 20
395.6000000000001
 30
0.0
 40
2.0
  1
Ast,req                       221 mm2/m           766 mm2/m
  7
OpenSans
 11
302.0
 21
395.6000000000001
 31
0.0
100
AcDbText
  0
TEXT
  5
24F
330
17
100
AcDbEntity
  8
S-NOTE
100
AcDbText
 10
302.0
 20
392.55000000000007
 30
0.0
 40
2.0
  1
Cl. 32.5(a) min vertical      480 - governs       480
  7
OpenSans
 11
302.0
 21
392.55000000000007
 31
0.0
100
AcDbText
  0
TEXT
  5
250
330
17
100
AcDbEntity
  8
S-NOTE
100
AcDbText
 10
302.0
 20
389.50000000000006
 30
0.0
 40
2.0
  1
Cl. 32.5(b) min horizontal    800 - governs       800 - still governs
  7
OpenSans
 11
302.0
 21
389.50000000000006
 31
0.0
100
AcDbText
  0
TEXT
  5
251
330
17
100
AcDbEntity
  8
S-NOTE
100
AcDbText
 10
302.0
 20
386.45000000000005
 30
0.0
 40
2.0
  1
Utilisation on T16@150 EF EW  17 %                59 %
  7
OpenSans
 11
302.0
 21
386.45000000000005
 31
0.0
100
AcDbText
  0
TEXT
  5
252
330
17
100
AcDbEntity
  8
S-NOTE
100
AcDbText
 10
302.0
 20
383.40000000000003
 30
0.0
 40
2.0
  1
Shear V at d                  97.0 kN/m           328.6 kN/m
  7
OpenSans
 11
302.0
 21
383.40000000000003
 31
0.0
100
AcDbText
  0
TEXT
  5
253
330
17
100
AcDbEntity
  8
S-NOTE
100
AcDbText
 10
302.0
 20
380.35
 30
0.0
 40
2.0
  1
tau_v                         0.283               0.961
  7
OpenSans
 11
302.0
 21
380.35
 31
0.0
100
AcDbText
  0
TEXT
  5
254
330
17
100
AcDbEntity
  8
S-NOTE
100
AcDbText
 10
302.0
 20
377.3
 30
0.0
 40
2.0
  1
tau_c (pt 0.392 %)            0.444               0.444
  7
OpenSans
 11
302.0
 21
377.3
 31
0.0
100
AcDbText
  0
TEXT
  5
255
330
17
100
AcDbEntity
  8
S-NOTE
100
AcDbText
 10
302.0
 20
374.25
 30
0.0
 40
2.0
  1
VERDICT                       NO LINKS            LINKS REQUIRED
  7
OpenSans
 11
302.0
 21
374.25
 31
0.0
100
AcDbText
  0
TEXT
  5
256
330
17
100
AcDbEntity
  8
S-NOTE
100
AcDbText
 10
302.0
 20
368.15
 30
0.0
 40
2.0
  1
WHY CASE B - CONFLICT C10, RESOLVED
  7
OpenSans
 11
302.0
 21
368.15
 31
0.0
100
AcDbText
  0
TEXT
  5
257
330
17
100
AcDbEntity
  8
S-NOTE
100
AcDbText
 10
302.0
 20
365.09999999999997
 30
0.0
 40
2.0
  1
The walls sit behind about 2.5 m of berm and EARTH TRANSMITS PRESSURE.
  7
OpenSans
 11
302.0
 21
365.09999999999997
 31
0.0
100
AcDbText
  0
TEXT
  5
258
330
17
100
AcDbEntity
  8
S-NOTE
100
AcDbText
 10
302.0
 20
362.04999999999995
 30
0.0
 40
2.0
  1
Ka for dry compacted fill is [ASSUMED - master K.2 item A6] and cannot be
  7
OpenSans
 11
302.0
 21
362.04999999999995
 31
0.0
100
AcDbText
  0
TEXT
  5
259
330
17
100
AcDbEntity
  8
S-NOTE
100
AcDbText
 10
302.0
 20
358.99999999999994
 30
0.0
 40
2.0
  1
verified, so the walls are designed for the FULL 383 kPa UPPER BOUND.
  7
OpenSans
 11
302.0
 21
358.99999999999994
 31
0.0
100
AcDbText
  0
TEXT
  5
25A
330
17
100
AcDbEntity
  8
S-NOTE
100
AcDbText
 10
302.0
 20
355.94999999999993
 30
0.0
 40
2.0
  1
COST OF THE UPGRADE: ONE LINK CAGE (T12 4-LEG @ 250).  Utilisation rises
  7
OpenSans
 11
302.0
 21
355.94999999999993
 31
0.0
100
AcDbText
  0
TEXT
  5
25B
330
17
100
AcDbEntity
  8
S-NOTE
100
AcDbText
 10
302.0
 20
352.8999999999999
 30
0.0
 40
2.0
  1
from 17 % to 59 %.  The assumption is thereby REMOVED FROM THE CRITICAL PATH.
  7
OpenSans
 11
302.0
 21
352.8999999999999
 31
0.0
100
AcDbText
  0
TEXT
  5
25C
330
17
100
AcDbEntity
  8
S-NOTE
100
AcDbText
 10
302.0
 20
346.7999999999999
 30
0.0
 40
2.0
  1
d = 400 - 50 - 8 = 342 ; Mu,lim 681 kNm/m
  7
OpenSans
 11
302.0
 21
346.7999999999999
 31
0.0
100
AcDbText
  0
TEXT
  5
25D
330
17
100
AcDbEntity
  8
S-NOTE
100
AcDbText
 10
302.0
 20
343.7499999999999
 30
0.0
 40
2.0
  1
ADOPTED  T16 @ 150 EF EW = 1340  ->  Mu 235.2, UTIL 59 %, x/d 0.135
  7
OpenSans
 11
302.0
 21
343.7499999999999
 31
0.0
100
AcDbText
  0
TEXT
  5
25E
330
17
100
AcDbEntity
  8
S-NOTE
100
AcDbText
 10
302.0
 20
340.6999999999999
 30
0.0
 40
2.0
  1
  Vus 176.9 ; Asv/sv 1.189 -> T12 4-leg at 381 ; Cl. 26.5.1.5 limit 256 GOVERNS
  7
OpenSans
 11
302.0
 21
340.6999999999999
 31
0.0
100
AcDbText
  0
TEXT
  5
25F
330
17
100
AcDbEntity
  8
S-NOTE
100
AcDbText
 10
302.0
 20
337.64999999999986
 30
0.0
 40
2.0
  1
ADOPTED  T12 4-LEGGED LINKS @ 250 THROUGHOUT ALL FOUR WALLS
  7
OpenSans
 11
302.0
 21
337.64999999999986
 31
0.0
100
AcDbText
  0
TEXT
  5
260
330
17
100
AcDbEntity
  8
S-NOTE
100
AcDbText
 10
302.0
 20
331.54999999999984
 30
0.0
 40
2.0
  1
AXIAL  roof reaction two-way (Cl. 24.5): HW3/HW4 trapezoid 476 kN/m,
  7
OpenSans
 11
302.0
 21
331.54999999999984
 31
0.0
100
AcDbText
  0
TEXT
  5
261
330
17
100
AcDbEntity
  8
S-NOTE
100
AcDbText
 10
302.0
 20
328.49999999999983
 30
0.0
 40
2.0
  1
  HW1/HW2 triangle 396 kN/m ; one-way bound 793 kN/m ; self 29 kN/m
  7
OpenSans
 11
302.0
 21
328.49999999999983
 31
0.0
100
AcDbText
  0
TEXT
  5
262
330
17
100
AcDbEntity
  8
S-NOTE
100
AcDbText
 10
302.0
 20
325.4499999999998
 30
0.0
 40
2.0
  1
  worst N = 822 kN/m  ->  f = 2.06 N/mm2 = 12 % of 0.4 fck,dyn   NOT CRITICAL
  7
OpenSans
 11
302.0
 21
325.4499999999998
 31
0.0
100
AcDbText
  0
TEXT
  5
263
330
17
100
AcDbEntity
  8
S-NOTE
100
AcDbText
 10
302.0
 20
319.3499999999998
 30
0.0
 40
2.0
  1
*** PRESSURE ACTS FROM INSIDE TOO. ***  The inner security door is NOT blast
  7
OpenSans
 11
302.0
 21
319.3499999999998
 31
0.0
100
AcDbText
  0
TEXT
  5
264
330
17
100
AcDbEntity
  8
S-NOTE
100
AcDbText
 10
302.0
 20
316.2999999999998
 30
0.0
 40
2.0
  1
rated and the entry stairwell is expected to be lost, so the headhouse FILLS
  7
OpenSans
 11
302.0
 21
316.2999999999998
 31
0.0
100
AcDbText
  0
TEXT
  5
265
330
17
100
AcDbEntity
  8
S-NOTE
100
AcDbText
 10
302.0
 20
313.2499999999998
 30
0.0
 40
2.0
  1
and the walls are pushed OUTWARDS.  THE WALLS ARE REINFORCED SYMMETRICALLY
  7
OpenSans
 11
302.0
 21
313.2499999999998
 31
0.0
100
AcDbText
  0
TEXT
  5
266
330
17
100
AcDbEntity
  8
S-NOTE
100
AcDbText
 10
302.0
 20
310.19999999999976
 30
0.0
 40
2.0
  1
FOR 383 kPa EITHER WAY - A STATED REQUIREMENT, NOT AN ACCIDENT OF DETAILING.
  7
OpenSans
 11
302.0
 21
310.19999999999976
 31
0.0
100
AcDbText
  0
LWPOLYLINE
  5
267
330
17
100
AcDbEntity
  8
S-TITLE
100
AcDbPolyline
 90
4
 70
1
 10
300.0
 20
305.14999999999975
 10
638.0
 20
305.14999999999975
 10
638.0
 20
413.3750000000001
 10
300.0
 20
413.3750000000001
  0
TEXT
  5
268
330
17
100
AcDbEntity
  8
S-TITLE
100
AcDbText
 10
650.0
 20
548.6
 30
0.0
 40
2.5
  1
BAR MARK KEY - THIS SHEET
  7
OpenSans
 11
650.0
 21
548.6
 31
0.0
100
AcDbText
  0
CIRCLE
  5
269
330
17
100
AcDbEntity
  8
S-CALLOUT
100
AcDbCircle
 10
655.0
 20
542.1
 30
0.0
 40
2.6
  0
TEXT
  5
26A
330
17
100
AcDbEntity
  8
S-CALLOUT
100
AcDbText
 10
655.0
 20
542.1
 30
0.0
 40
1.4
  1
H01A
  7
OpenSans
 72
1
 11
655.0
 21
542.1
 31
0.0
100
AcDbText
 73
2
  0
TEXT
  5
26B
330
17
100
AcDbEntity
  8
S-NOTE
100
AcDbText
 10
660.0
 20
541.5
 30
0.0
 40
1.9
  1
T20  @ 150   BOTTOM, MAIN (SPANNING 4000 IN X)
  7
OpenSans
 11
660.0
 21
541.5
 31
0.0
100
AcDbText
  0
CIRCLE
  5
26C
330
17
100
AcDbEntity
  8
S-CALLOUT
100
AcDbCircle
 10
655.0
 20
536.1
 30
0.0
 40
2.6
  0
TEXT
  5
26D
330
17
100
AcDbEntity
  8
S-CALLOUT
100
AcDbText
 10
655.0
 20
536.1
 30
0.0
 40
1.4
  1
H01B
  7
OpenSans
 72
1
 11
655.0
 21
536.1
 31
0.0
100
AcDbText
 73
2
  0
TEXT
  5
26E
330
17
100
AcDbEntity
  8
S-NOTE
100
AcDbText
 10
660.0
 20
535.5
 30
0.0
 40
1.9
  1
T20  @ 150   BOTTOM, SECONDARY (Y)
  7
OpenSans
 11
660.0
 21
535.5
 31
0.0
100
AcDbText
  0
CIRCLE
  5
26F
330
17
100
AcDbEntity
  8
S-CALLOUT
100
AcDbCircle
 10
655.0
 20
530.1
 30
0.0
 40
2.6
  0
TEXT
  5
270
330
17
100
AcDbEntity
  8
S-CALLOUT
100
AcDbText
 10
655.0
 20
530.1
 30
0.0
 40
1.4
  1
H01C
  7
OpenSans
 72
1
 11
655.0
 21
530.1
 31
0.0
100
AcDbText
 73
2
  0
TEXT
  5
271
330
17
100
AcDbEntity
  8
S-NOTE
100
AcDbText
 10
660.0
 20
529.5
 30
0.0
 40
1.9
  1
T20  @ 150   TOP, MAIN (X)
  7
OpenSans
 11
660.0
 21
529.5
 31
0.0
100
AcDbText
  0
CIRCLE
  5
272
330
17
100
AcDbEntity
  8
S-CALLOUT
100
AcDbCircle
 10
655.0
 20
524.1
 30
0.0
 40
2.6
  0
TEXT
  5
273
330
17
100
AcDbEntity
  8
S-CALLOUT
100
AcDbText
 10
655.0
 20
524.1
 30
0.0
 40
1.4
  1
H01D
  7
OpenSans
 72
1
 11
655.0
 21
524.1
 31
0.0
100
AcDbText
 73
2
  0
TEXT
  5
274
330
17
100
AcDbEntity
  8
S-NOTE
100
AcDbText
 10
660.0
 20
523.5
 30
0.0
 40
1.9
  1
T20  @ 150   TOP, SECONDARY (Y)
  7
OpenSans
 11
660.0
 21
523.5
 31
0.0
100
AcDbText
  0
CIRCLE
  5
275
330
17
100
AcDbEntity
  8
S-CALLOUT
100
AcDbCircle
 10
655.0
 20
518.1
 30
0.0
 40
2.6
  0
TEXT
  5
276
330
17
100
AcDbEntity
  8
S-CALLOUT
100
AcDbText
 10
655.0
 20
518.1
 30
0.0
 40
1.4
  1
H02
  7
OpenSans
 72
1
 11
655.0
 21
518.1
 31
0.0
100
AcDbText
 73
2
  0
TEXT
  5
277
330
17
100
AcDbEntity
  8
S-NOTE
100
AcDbText
 10
660.0
 20
517.5
 30
0.0
 40
1.9
  1
T12  @ 175 x 175 4-LEGGED LINKS @ 175, END 1200 EACH SIDE
  7
OpenSans
 11
660.0
 21
517.5
 31
0.0
100
AcDbText
  0
CIRCLE
  5
278
330
17
100
AcDbEntity
  8
S-CALLOUT
100
AcDbCircle
 10
655.0
 20
512.1
 30
0.0
 40
2.6
  0
TEXT
  5
279
330
17
100
AcDbEntity
  8
S-CALLOUT
100
AcDbText
 10
655.0
 20
512.1
 30
0.0
 40
1.4
  1
H03
  7
OpenSans
 72
1
 11
655.0
 21
512.1
 31
0.0
100
AcDbText
 73
2
  0
TEXT
  5
27A
330
17
100
AcDbEntity
  8
S-NOTE
100
AcDbText
 10
660.0
 20
511.5
 30
0.0
 40
1.9
  1
T12  @ 250 x 250 4-LEGGED LINKS @ 250, MID ZONE
  7
OpenSans
 11
660.0
 21
511.5
 31
0.0
100
AcDbText
  0
CIRCLE
  5
27B
330
17
100
AcDbEntity
  8
S-CALLOUT
100
AcDbCircle
 10
655.0
 20
506.1
 30
0.0
 40
2.6
  0
TEXT
  5
27C
330
17
100
AcDbEntity
  8
S-CALLOUT
100
AcDbText
 10
655.0
 20
506.1
 30
0.0
 40
1.4
  1
H04A
  7
OpenSans
 72
1
 11
655.0
 21
506.1
 31
0.0
100
AcDbText
 73
2
  0
TEXT
  5
27D
330
17
100
AcDbEntity
  8
S-NOTE
100
AcDbText
 10
660.0
 20
505.5
 30
0.0
 40
1.9
  1
T16  @ 150   VERTICAL, EACH FACE
  7
OpenSans
 11
660.0
 21
505.5
 31
0.0
100
AcDbText
  0
CIRCLE
  5
27E
330
17
100
AcDbEntity
  8
S-CALLOUT
100
AcDbCircle
 10
655.0
 20
500.1
 30
0.0
 40
2.6
  0
TEXT
  5
27F
330
17
100
AcDbEntity
  8
S-CALLOUT
100
AcDbText
 10
655.0
 20
500.1
 30
0.0
 40
1.4
  1
H04B
  7
OpenSans
 72
1
 11
655.0
 21
500.1
 31
0.0
100
AcDbText
 73
2
  0
TEXT
  5
280
330
17
100
AcDbEntity
  8
S-NOTE
100
AcDbText
 10
660.0
 20
499.5
 30
0.0
 40
1.9
  1
T16  @ 150   HORIZONTAL RINGS, EACH FACE
  7
OpenSans
 11
660.0
 21
499.5
 31
0.0
100
AcDbText
  0
CIRCLE
  5
281
330
17
100
AcDbEntity
  8
S-CALLOUT
100
AcDbCircle
 10
655.0
 20
494.1
 30
0.0
 40
2.6
  0
TEXT
  5
282
330
17
100
AcDbEntity
  8
S-CALLOUT
100
AcDbText
 10
655.0
 20
494.1
 30
0.0
 40
1.4
  1
H05
  7
OpenSans
 72
1
 11
655.0
 21
494.1
 31
0.0
100
AcDbText
 73
2
  0
TEXT
  5
283
330
17
100
AcDbEntity
  8
S-NOTE
100
AcDbText
 10
660.0
 20
493.5
 30
0.0
 40
1.9
  1
T12  @ 250 x 250 4-LEGGED LINKS @ 250, ALL FOUR WALLS
  7
OpenSans
 11
660.0
 21
493.5
 31
0.0
100
AcDbText
  0
CIRCLE
  5
284
330
17
100
AcDbEntity
  8
S-CALLOUT
100
AcDbCircle
 10
655.0
 20
488.1
 30
0.0
 40
2.6
  0
TEXT
  5
285
330
17
100
AcDbEntity
  8
S-CALLOUT
100
AcDbText
 10
655.0
 20
488.1
 30
0.0
 40
1.4
  1
H06
  7
OpenSans
 72
1
 11
655.0
 21
488.1
 31
0.0
100
AcDbText
 73
2
  0
TEXT
  5
286
330
17
100
AcDbEntity
  8
S-NOTE
100
AcDbText
 10
660.0
 20
487.5
 30
0.0
 40
1.9
  1
T16  @ 150   HAUNCH DIAGONALS, 300 x 300
  7
OpenSans
 11
660.0
 21
487.5
 31
0.0
100
AcDbText
  0
CIRCLE
  5
287
330
17
100
AcDbEntity
  8
S-CALLOUT
100
AcDbCircle
 10
655.0
 20
482.1
 30
0.0
 40
2.6
  0
TEXT
  5
288
330
17
100
AcDbEntity
  8
S-CALLOUT
100
AcDbText
 10
655.0
 20
482.1
 30
0.0
 40
1.4
  1
H07
  7
OpenSans
 72
1
 11
655.0
 21
482.1
 31
0.0
100
AcDbText
 73
2
  0
TEXT
  5
289
330
17
100
AcDbEntity
  8
S-NOTE
100
AcDbText
 10
660.0
 20
481.5
 30
0.0
 40
1.9
  1
T20          JAMB BARS, 2-T20 EACH JAMB EACH FACE
  7
OpenSans
 11
660.0
 21
481.5
 31
0.0
100
AcDbText
  0
CIRCLE
  5
28A
330
17
100
AcDbEntity
  8
S-CALLOUT
100
AcDbCircle
 10
655.0
 20
476.1
 30
0.0
 40
2.6
  0
TEXT
  5
28B
330
17
100
AcDbEntity
  8
S-CALLOUT
100
AcDbText
 10
655.0
 20
476.1
 30
0.0
 40
1.4
  1
H08
  7
OpenSans
 72
1
 11
655.0
 21
476.1
 31
0.0
100
AcDbText
 73
2
  0
TEXT
  5
28C
330
17
100
AcDbEntity
  8
S-NOTE
100
AcDbText
 10
660.0
 20
475.5
 30
0.0
 40
1.9
  1
T20          4-T20 TOP + 4-T20 BOTTOM
  7
OpenSans
 11
660.0
 21
475.5
 31
0.0
100
AcDbText
  0
CIRCLE
  5
28D
330
17
100
AcDbEntity
  8
S-CALLOUT
100
AcDbCircle
 10
655.0
 20
470.1
 30
0.0
 40
2.6
  0
TEXT
  5
28E
330
17
100
AcDbEntity
  8
S-CALLOUT
100
AcDbText
 10
655.0
 20
470.1
 30
0.0
 40
1.4
  1
H09
  7
OpenSans
 72
1
 11
655.0
 21
470.1
 31
0.0
100
AcDbText
 73
2
  0
TEXT
  5
28F
330
17
100
AcDbEntity
  8
S-NOTE
100
AcDbText
 10
660.0
 20
469.5
 30
0.0
 40
1.9
  1
T12  @ 150   4-LEGGED LINKS @ 150
  7
OpenSans
 11
660.0
 21
469.5
 31
0.0
100
AcDbText
  0
CIRCLE
  5
290
330
17
100
AcDbEntity
  8
S-CALLOUT
100
AcDbCircle
 10
655.0
 20
464.1
 30
0.0
 40
2.6
  0
TEXT
  5
291
330
17
100
AcDbEntity
  8
S-CALLOUT
100
AcDbText
 10
655.0
 20
464.1
 30
0.0
 40
1.4
  1
H10
  7
OpenSans
 72
1
 11
655.0
 21
464.1
 31
0.0
100
AcDbText
 73
2
  0
TEXT
  5
292
330
17
100
AcDbEntity
  8
S-NOTE
100
AcDbText
 10
660.0
 20
463.5
 30
0.0
 40
1.9
  1
T16  @ 150   WALL STARTERS, EACH FACE
  7
OpenSans
 11
660.0
 21
463.5
 31
0.0
100
AcDbText
  0
LWPOLYLINE
  5
293
330
17
100
AcDbEntity
  8
S-TITLE
100
AcDbPolyline
 90
4
 70
1
 10
648.0
 20
455.5
 10
831.0
 20
455.5
 10
831.0
 20
552.0
 10
648.0
 20
552.0
  0
TEXT
  5
294
330
17
100
AcDbEntity
  8
S-TITLE
100
AcDbText
 10
648.0
 20
450.5
 30
0.0
 40
2.5
  1
BAR SCHEDULE EXTRACT - THIS SHEET
  7
OpenSans
 11
648.0
 21
450.5
 31
0.0
100
AcDbText
  0
LWPOLYLINE
  5
295
330
17
100
AcDbEntity
  8
S-TABLE
100
AcDbPolyline
 90
4
 70
1
 10
648.0
 20
443.3
 10
757.0
 20
443.3
 10
757.0
 20
447.5
 10
648.0
 20
447.5
  0
TEXT
  5
296
330
17
100
AcDbEntity
  8
S-TABLE
100
AcDbText
 10
649.4
 20
444.55656363636365
 30
0.0
 40
1.6868727272727269
  1
MARK
  7
OpenSans
 11
649.4
 21
444.55656363636365
 31
0.0
100
AcDbText
  0
TEXT
  5
297
330
17
100
AcDbEntity
  8
S-TABLE
100
AcDbText
 10
666.4
 20
444.55656363636365
 30
0.0
 40
1.6868727272727269
  1
DIA
  7
OpenSans
 11
666.4
 21
444.55656363636365
 31
0.0
100
AcDbText
  0
TEXT
  5
298
330
17
100
AcDbEntity
  8
S-TABLE
100
AcDbText
 10
679.4
 20
444.55656363636365
 30
0.0
 40
1.6868727272727269
  1
SHP
  7
OpenSans
 11
679.4
 21
444.55656363636365
 31
0.0
100
AcDbText
  0
TEXT
  5
299
330
17
100
AcDbEntity
  8
S-TABLE
100
AcDbText
 10
691.4
 20
444.55656363636365
 30
0.0
 40
1.6868727272727269
  1
SPAC
  7
OpenSans
 11
691.4
 21
444.55656363636365
 31
0.0
100
AcDbText
  0
TEXT
  5
29A
330
17
100
AcDbEntity
  8
S-TABLE
100
AcDbText
 10
706.4
 20
444.55656363636365
 30
0.0
 40
1.6868727272727269
  1
No.
  7
OpenSans
 11
706.4
 21
444.55656363636365
 31
0.0
100
AcDbText
  0
TEXT
  5
29B
330
17
100
AcDbEntity
  8
S-TABLE
100
AcDbText
 10
721.4
 20
444.55656363636365
 30
0.0
 40
1.6868727272727269
  1
CUT
  7
OpenSans
 11
721.4
 21
444.55656363636365
 31
0.0
100
AcDbText
  0
TEXT
  5
29C
330
17
100
AcDbEntity
  8
S-TABLE
100
AcDbText
 10
738.4
 20
444.55656363636365
 30
0.0
 40
1.6868727272727269
  1
kg
  7
OpenSans
 11
738.4
 21
444.55656363636365
 31
0.0
100
AcDbText
  0
TEXT
  5
29D
330
17
100
AcDbEntity
  8
S-TABLE
100
AcDbText
 10
649.4
 20
440.35656363636366
 30
0.0
 40
1.6868727272727269
  1
H01A
  7
OpenSans
 11
649.4
 21
440.35656363636366
 31
0.0
100
AcDbText
  0
TEXT
  5
29E
330
17
100
AcDbEntity
  8
S-TABLE
100
AcDbText
 10
666.4
 20
440.35656363636366
 30
0.0
 40
1.6868727272727269
  1
T20
  7
OpenSans
 11
666.4
 21
440.35656363636366
 31
0.0
100
AcDbText
  0
TEXT
  5
29F
330
17
100
AcDbEntity
  8
S-TABLE
100
AcDbText
 10
679.4
 20
440.35656363636366
 30
0.0
 40
1.6868727272727269
  1
00
  7
OpenSans
 11
679.4
 21
440.35656363636366
 31
0.0
100
AcDbText
  0
TEXT
  5
2A0
330
17
100
AcDbEntity
  8
S-TABLE
100
AcDbText
 10
691.4
 20
440.35656363636366
 30
0.0
 40
1.6868727272727269
  1
150
  7
OpenSans
 11
691.4
 21
440.35656363636366
 31
0.0
100
AcDbText
  0
TEXT
  5
2A1
330
17
100
AcDbEntity
  8
S-TABLE
100
AcDbText
 10
706.4
 20
440.35656363636366
 30
0.0
 40
1.6868727272727269
  1
38
  7
OpenSans
 11
706.4
 21
440.35656363636366
 31
0.0
100
AcDbText
  0
TEXT
  5
2A2
330
17
100
AcDbEntity
  8
S-TABLE
100
AcDbText
 10
721.4
 20
440.35656363636366
 30
0.0
 40
1.6868727272727269
  1
4650
  7
OpenSans
 11
721.4
 21
440.35656363636366
 31
0.0
100
AcDbText
  0
TEXT
  5
2A3
330
17
100
AcDbEntity
  8
S-TABLE
100
AcDbText
 10
738.4
 20
440.35656363636366
 30
0.0
 40
1.6868727272727269
  1
436
  7
OpenSans
 11
738.4
 21
440.35656363636366
 31
0.0
100
AcDbText
  0
LINE
  5
2A4
330
17
100
AcDbEntity
  8
S-TABLE
100
AcDbLine
 10
648.0
 20
439.1
 30
0.0
 11
757.0
 21
439.1
 31
0.0
  0
TEXT
  5
2A5
330
17
100
AcDbEntity
  8
S-TABLE
100
AcDbText
 10
649.4
 20
436.15656363636367
 30
0.0
 40
1.6868727272727269
  1
H01B
  7
OpenSans
 11
649.4
 21
436.15656363636367
 31
0.0
100
AcDbText
  0
TEXT
  5
2A6
330
17
100
AcDbEntity
  8
S-TABLE
100
AcDbText
 10
666.4
 20
436.15656363636367
 30
0.0
 40
1.6868727272727269
  1
T20
  7
OpenSans
 11
666.4
 21
436.15656363636367
 31
0.0
100
AcDbText
  0
TEXT
  5
2A7
330
17
100
AcDbEntity
  8
S-TABLE
100
AcDbText
 10
679.4
 20
436.15656363636367
 30
0.0
 40
1.6868727272727269
  1
00
  7
OpenSans
 11
679.4
 21
436.15656363636367
 31
0.0
100
AcDbText
  0
TEXT
  5
2A8
330
17
100
AcDbEntity
  8
S-TABLE
100
AcDbText
 10
691.4
 20
436.15656363636367
 30
0.0
 40
1.6868727272727269
  1
150
  7
OpenSans
 11
691.4
 21
436.15656363636367
 31
0.0
100
AcDbText
  0
TEXT
  5
2A9
330
17
100
AcDbEntity
  8
S-TABLE
100
AcDbText
 10
706.4
 20
436.15656363636367
 30
0.0
 40
1.6868727272727269
  1
32
  7
OpenSans
 11
706.4
 21
436.15656363636367
 31
0.0
100
AcDbText
  0
TEXT
  5
2AA
330
17
100
AcDbEntity
  8
S-TABLE
100
AcDbText
 10
721.4
 20
436.15656363636367
 30
0.0
 40
1.6868727272727269
  1
5650
  7
OpenSans
 11
721.4
 21
436.15656363636367
 31
0.0
100
AcDbText
  0
TEXT
  5
2AB
330
17
100
AcDbEntity
  8
S-TABLE
100
AcDbText
 10
738.4
 20
436.15656363636367
 30
0.0
 40
1.6868727272727269
  1
446
  7
OpenSans
 11
738.4
 21
436.15656363636367
 31
0.0
100
AcDbText
  0
LINE
  5
2AC
330
17
100
AcDbEntity
  8
S-TABLE
100
AcDbLine
 10
648.0
 20
434.90000000000003
 30
0.0
 11
757.0
 21
434.90000000000003
 31
0.0
  0
TEXT
  5
2AD
330
17
100
AcDbEntity
  8
S-TABLE
100
AcDbText
 10
649.4
 20
431.9565636363637
 30
0.0
 40
1.6868727272727269
  1
H01C
  7
OpenSans
 11
649.4
 21
431.9565636363637
 31
0.0
100
AcDbText
  0
TEXT
  5
2AE
330
17
100
AcDbEntity
  8
S-TABLE
100
AcDbText
 10
666.4
 20
431.9565636363637
 30
0.0
 40
1.6868727272727269
  1
T20
  7
OpenSans
 11
666.4
 21
431.9565636363637
 31
0.0
100
AcDbText
  0
TEXT
  5
2AF
330
17
100
AcDbEntity
  8
S-TABLE
100
AcDbText
 10
679.4
 20
431.9565636363637
 30
0.0
 40
1.6868727272727269
  1
00
  7
OpenSans
 11
679.4
 21
431.9565636363637
 31
0.0
100
AcDbText
  0
TEXT
  5
2B0
330
17
100
AcDbEntity
  8
S-TABLE
100
AcDbText
 10
691.4
 20
431.9565636363637
 30
0.0
 40
1.6868727272727269
  1
150
  7
OpenSans
 11
691.4
 21
431.9565636363637
 31
0.0
100
AcDbText
  0
TEXT
  5
2B1
330
17
100
AcDbEntity
  8
S-TABLE
100
AcDbText
 10
706.4
 20
431.9565636363637
 30
0.0
 40
1.6868727272727269
  1
38
  7
OpenSans
 11
706.4
 21
431.9565636363637
 31
0.0
100
AcDbText
  0
TEXT
  5
2B2
330
17
100
AcDbEntity
  8
S-TABLE
100
AcDbText
 10
721.4
 20
431.9565636363637
 30
0.0
 40
1.6868727272727269
  1
4650
  7
OpenSans
 11
721.4
 21
431.9565636363637
 31
0.0
100
AcDbText
  0
TEXT
  5
2B3
330
17
100
AcDbEntity
  8
S-TABLE
100
AcDbText
 10
738.4
 20
431.9565636363637
 30
0.0
 40
1.6868727272727269
  1
436
  7
OpenSans
 11
738.4
 21
431.9565636363637
 31
0.0
100
AcDbText
  0
LINE
  5
2B4
330
17
100
AcDbEntity
  8
S-TABLE
100
AcDbLine
 10
648.0
 20
430.70000000000005
 30
0.0
 11
757.0
 21
430.70000000000005
 31
0.0
  0
TEXT
  5
2B5
330
17
100
AcDbEntity
  8
S-TABLE
100
AcDbText
 10
649.4
 20
427.7565636363637
 30
0.0
 40
1.6868727272727269
  1
H01D
  7
OpenSans
 11
649.4
 21
427.7565636363637
 31
0.0
100
AcDbText
  0
TEXT
  5
2B6
330
17
100
AcDbEntity
  8
S-TABLE
100
AcDbText
 10
666.4
 20
427.7565636363637
 30
0.0
 40
1.6868727272727269
  1
T20
  7
OpenSans
 11
666.4
 21
427.7565636363637
 31
0.0
100
AcDbText
  0
TEXT
  5
2B7
330
17
100
AcDbEntity
  8
S-TABLE
100
AcDbText
 10
679.4
 20
427.7565636363637
 30
0.0
 40
1.6868727272727269
  1
00
  7
OpenSans
 11
679.4
 21
427.7565636363637
 31
0.0
100
AcDbText
  0
TEXT
  5
2B8
330
17
100
AcDbEntity
  8
S-TABLE
100
AcDbText
 10
691.4
 20
427.7565636363637
 30
0.0
 40
1.6868727272727269
  1
150
  7
OpenSans
 11
691.4
 21
427.7565636363637
 31
0.0
100
AcDbText
  0
TEXT
  5
2B9
330
17
100
AcDbEntity
  8
S-TABLE
100
AcDbText
 10
706.4
 20
427.7565636363637
 30
0.0
 40
1.6868727272727269
  1
32
  7
OpenSans
 11
706.4
 21
427.7565636363637
 31
0.0
100
AcDbText
  0
TEXT
  5
2BA
330
17
100
AcDbEntity
  8
S-TABLE
100
AcDbText
 10
721.4
 20
427.7565636363637
 30
0.0
 40
1.6868727272727269
  1
5650
  7
OpenSans
 11
721.4
 21
427.7565636363637
 31
0.0
100
AcDbText
  0
TEXT
  5
2BB
330
17
100
AcDbEntity
  8
S-TABLE
100
AcDbText
 10
738.4
 20
427.7565636363637
 30
0.0
 40
1.6868727272727269
  1
446
  7
OpenSans
 11
738.4
 21
427.7565636363637
 31
0.0
100
AcDbText
  0
LINE
  5
2BC
330
17
100
AcDbEntity
  8
S-TABLE
100
AcDbLine
 10
648.0
 20
426.50000000000006
 30
0.0
 11
757.0
 21
426.50000000000006
 31
0.0
  0
TEXT
  5
2BD
330
17
100
AcDbEntity
  8
S-TABLE
100
AcDbText
 10
649.4
 20
423.5565636363637
 30
0.0
 40
1.6868727272727269
  1
H02
  7
OpenSans
 11
649.4
 21
423.5565636363637
 31
0.0
100
AcDbText
  0
TEXT
  5
2BE
330
17
100
AcDbEntity
  8
S-TABLE
100
AcDbText
 10
666.4
 20
423.5565636363637
 30
0.0
 40
1.6868727272727269
  1
T12
  7
OpenSans
 11
666.4
 21
423.5565636363637
 31
0.0
100
AcDbText
  0
TEXT
  5
2BF
330
17
100
AcDbEntity
  8
S-TABLE
100
AcDbText
 10
679.4
 20
423.5565636363637
 30
0.0
 40
1.6868727272727269
  1
51
  7
OpenSans
 11
679.4
 21
423.5565636363637
 31
0.0
100
AcDbText
  0
TEXT
  5
2C0
330
17
100
AcDbEntity
  8
S-TABLE
100
AcDbText
 10
691.4
 20
423.5565636363637
 30
0.0
 40
1.6868727272727269
  1
175 x 175
  7
OpenSans
 11
691.4
 21
423.5565636363637
 31
0.0
100
AcDbText
  0
TEXT
  5
2C1
330
17
100
AcDbEntity
  8
S-TABLE
100
AcDbText
 10
706.4
 20
423.5565636363637
 30
0.0
 40
1.6868727272727269
  1
672
  7
OpenSans
 11
706.4
 21
423.5565636363637
 31
0.0
100
AcDbText
  0
TEXT
  5
2C2
330
17
100
AcDbEntity
  8
S-TABLE
100
AcDbText
 10
721.4
 20
423.5565636363637
 30
0.0
 40
1.6868727272727269
  1
1240
  7
OpenSans
 11
721.4
 21
423.5565636363637
 31
0.0
100
AcDbText
  0
TEXT
  5
2C3
330
17
100
AcDbEntity
  8
S-TABLE
100
AcDbText
 10
738.4
 20
423.5565636363637
 30
0.0
 40
1.6868727272727269
  1
740
  7
OpenSans
 11
738.4
 21
423.5565636363637
 31
0.0
100
AcDbText
  0
LINE
  5
2C4
330
17
100
AcDbEntity
  8
S-TABLE
100
AcDbLine
 10
648.0
 20
422.30000000000007
 30
0.0
 11
757.0
 21
422.30000000000007
 31
0.0
  0
TEXT
  5
2C5
330
17
100
AcDbEntity
  8
S-TABLE
100
AcDbText
 10
649.4
 20
419.3565636363637
 30
0.0
 40
1.6868727272727269
  1
H03
  7
OpenSans
 11
649.4
 21
419.3565636363637
 31
0.0
100
AcDbText
  0
TEXT
  5
2C6
330
17
100
AcDbEntity
  8
S-TABLE
100
AcDbText
 10
666.4
 20
419.3565636363637
 30
0.0
 40
1.6868727272727269
  1
T12
  7
OpenSans
 11
666.4
 21
419.3565636363637
 31
0.0
100
AcDbText
  0
TEXT
  5
2C7
330
17
100
AcDbEntity
  8
S-TABLE
100
AcDbText
 10
679.4
 20
419.3565636363637
 30
0.0
 40
1.6868727272727269
  1
51
  7
OpenSans
 11
679.4
 21
419.3565636363637
 31
0.0
100
AcDbText
  0
TEXT
  5
2C8
330
17
100
AcDbEntity
  8
S-TABLE
100
AcDbText
 10
691.4
 20
419.3565636363637
 30
0.0
 40
1.6868727272727269
  1
250 x 250
  7
OpenSans
 11
691.4
 21
419.3565636363637
 31
0.0
100
AcDbText
  0
TEXT
  5
2C9
330
17
100
AcDbEntity
  8
S-TABLE
100
AcDbText
 10
706.4
 20
419.3565636363637
 30
0.0
 40
1.6868727272727269
  1
240
  7
OpenSans
 11
706.4
 21
419.3565636363637
 31
0.0
100
AcDbText
  0
TEXT
  5
2CA
330
17
100
AcDbEntity
  8
S-TABLE
100
AcDbText
 10
721.4
 20
419.3565636363637
 30
0.0
 40
1.6868727272727269
  1
1240
  7
OpenSans
 11
721.4
 21
419.3565636363637
 31
0.0
100
AcDbText
  0
TEXT
  5
2CB
330
17
100
AcDbEntity
  8
S-TABLE
100
AcDbText
 10
738.4
 20
419.3565636363637
 30
0.0
 40
1.6868727272727269
  1
264
  7
OpenSans
 11
738.4
 21
419.3565636363637
 31
0.0
100
AcDbText
  0
LINE
  5
2CC
330
17
100
AcDbEntity
  8
S-TABLE
100
AcDbLine
 10
648.0
 20
418.1000000000001
 30
0.0
 11
757.0
 21
418.1000000000001
 31
0.0
  0
TEXT
  5
2CD
330
17
100
AcDbEntity
  8
S-TABLE
100
AcDbText
 10
649.4
 20
415.1565636363637
 30
0.0
 40
1.6868727272727269
  1
H04A
  7
OpenSans
 11
649.4
 21
415.1565636363637
 31
0.0
100
AcDbText
  0
TEXT
  5
2CE
330
17
100
AcDbEntity
  8
S-TABLE
100
AcDbText
 10
666.4
 20
415.1565636363637
 30
0.0
 40
1.6868727272727269
  1
T16
  7
OpenSans
 11
666.4
 21
415.1565636363637
 31
0.0
100
AcDbText
  0
TEXT
  5
2CF
330
17
100
AcDbEntity
  8
S-TABLE
100
AcDbText
 10
679.4
 20
415.1565636363637
 30
0.0
 40
1.6868727272727269
  1
00
  7
OpenSans
 11
679.4
 21
415.1565636363637
 31
0.0
100
AcDbText
  0
TEXT
  5
2D0
330
17
100
AcDbEntity
  8
S-TABLE
100
AcDbText
 10
691.4
 20
415.1565636363637
 30
0.0
 40
1.6868727272727269
  1
150
  7
OpenSans
 11
691.4
 21
415.1565636363637
 31
0.0
100
AcDbText
  0
TEXT
  5
2D1
330
17
100
AcDbEntity
  8
S-TABLE
100
AcDbText
 10
706.4
 20
415.1565636363637
 30
0.0
 40
1.6868727272727269
  1
260
  7
OpenSans
 11
706.4
 21
415.1565636363637
 31
0.0
100
AcDbText
  0
TEXT
  5
2D2
330
17
100
AcDbEntity
  8
S-TABLE
100
AcDbText
 10
721.4
 20
415.1565636363637
 30
0.0
 40
1.6868727272727269
  1
3825
  7
OpenSans
 11
721.4
 21
415.1565636363637
 31
0.0
100
AcDbText
  0
TEXT
  5
2D3
330
17
100
AcDbEntity
  8
S-TABLE
100
AcDbText
 10
738.4
 20
415.1565636363637
 30
0.0
 40
1.6868727272727269
  1
1570
  7
OpenSans
 11
738.4
 21
415.1565636363637
 31
0.0
100
AcDbText
  0
LINE
  5
2D4
330
17
100
AcDbEntity
  8
S-TABLE
100
AcDbLine
 10
648.0
 20
413.9000000000001
 30
0.0
 11
757.0
 21
413.9000000000001
 31
0.0
  0
TEXT
  5
2D5
330
17
100
AcDbEntity
  8
S-TABLE
100
AcDbText
 10
649.4
 20
410.95656363636374
 30
0.0
 40
1.6868727272727269
  1
H04B
  7
OpenSans
 11
649.4
 21
410.95656363636374
 31
0.0
100
AcDbText
  0
TEXT
  5
2D6
330
17
100
AcDbEntity
  8
S-TABLE
100
AcDbText
 10
666.4
 20
410.95656363636374
 30
0.0
 40
1.6868727272727269
  1
T16
  7
OpenSans
 11
666.4
 21
410.95656363636374
 31
0.0
100
AcDbText
  0
TEXT
  5
2D7
330
17
100
AcDbEntity
  8
S-TABLE
100
AcDbText
 10
679.4
 20
410.95656363636374
 30
0.0
 40
1.6868727272727269
  1
00
  7
OpenSans
 11
679.4
 21
410.95656363636374
 31
0.0
100
AcDbText
  0
TEXT
  5
2D8
330
17
100
AcDbEntity
  8
S-TABLE
100
AcDbText
 10
691.4
 20
410.95656363636374
 30
0.0
 40
1.6868727272727269
  1
150
  7
OpenSans
 11
691.4
 21
410.95656363636374
 31
0.0
100
AcDbText
  0
TEXT
  5
2D9
330
17
100
AcDbEntity
  8
S-TABLE
100
AcDbText
 10
706.4
 20
410.95656363636374
 30
0.0
 40
1.6868727272727269
  1
68
  7
OpenSans
 11
706.4
 21
410.95656363636374
 31
0.0
100
AcDbText
  0
TEXT
  5
2DA
330
17
100
AcDbEntity
  8
S-TABLE
100
AcDbText
 10
721.4
 20
410.95656363636374
 30
0.0
 40
1.6868727272727269
  1
10200
  7
OpenSans
 11
721.4
 21
410.95656363636374
 31
0.0
100
AcDbText
  0
TEXT
  5
2DB
330
17
100
AcDbEntity
  8
S-TABLE
100
AcDbText
 10
738.4
 20
410.95656363636374
 30
0.0
 40
1.6868727272727269
  1
1095
  7
OpenSans
 11
738.4
 21
410.95656363636374
 31
0.0
100
AcDbText
  0
LINE
  5
2DC
330
17
100
AcDbEntity
  8
S-TABLE
100
AcDbLine
 10
648.0
 20
409.7000000000001
 30
0.0
 11
757.0
 21
409.7000000000001
 31
0.0
  0
TEXT
  5
2DD
330
17
100
AcDbEntity
  8
S-TABLE
100
AcDbText
 10
649.4
 20
406.75656363636375
 30
0.0
 40
1.6868727272727269
  1
H05
  7
OpenSans
 11
649.4
 21
406.75656363636375
 31
0.0
100
AcDbText
  0
TEXT
  5
2DE
330
17
100
AcDbEntity
  8
S-TABLE
100
AcDbText
 10
666.4
 20
406.75656363636375
 30
0.0
 40
1.6868727272727269
  1
T12
  7
OpenSans
 11
666.4
 21
406.75656363636375
 31
0.0
100
AcDbText
  0
TEXT
  5
2DF
330
17
100
AcDbEntity
  8
S-TABLE
100
AcDbText
 10
679.4
 20
406.75656363636375
 30
0.0
 40
1.6868727272727269
  1
51
  7
OpenSans
 11
679.4
 21
406.75656363636375
 31
0.0
100
AcDbText
  0
TEXT
  5
2E0
330
17
100
AcDbEntity
  8
S-TABLE
100
AcDbText
 10
691.4
 20
406.75656363636375
 30
0.0
 40
1.6868727272727269
  1
250 x 250
  7
OpenSans
 11
691.4
 21
406.75656363636375
 31
0.0
100
AcDbText
  0
TEXT
  5
2E1
330
17
100
AcDbEntity
  8
S-TABLE
100
AcDbText
 10
706.4
 20
406.75656363636375
 30
0.0
 40
1.6868727272727269
  1
1404
  7
OpenSans
 11
706.4
 21
406.75656363636375
 31
0.0
100
AcDbText
  0
TEXT
  5
2E2
330
17
100
AcDbEntity
  8
S-TABLE
100
AcDbText
 10
721.4
 20
406.75656363636375
 30
0.0
 40
1.6868727272727269
  1
1140
  7
OpenSans
 11
721.4
 21
406.75656363636375
 31
0.0
100
AcDbText
  0
TEXT
  5
2E3
330
17
100
AcDbEntity
  8
S-TABLE
100
AcDbText
 10
738.4
 20
406.75656363636375
 30
0.0
 40
1.6868727272727269
  1
1421
  7
OpenSans
 11
738.4
 21
406.75656363636375
 31
0.0
100
AcDbText
  0
LINE
  5
2E4
330
17
100
AcDbEntity
  8
S-TABLE
100
AcDbLine
 10
648.0
 20
405.5000000000001
 30
0.0
 11
757.0
 21
405.5000000000001
 31
0.0
  0
TEXT
  5
2E5
330
17
100
AcDbEntity
  8
S-TABLE
100
AcDbText
 10
649.4
 20
402.55656363636376
 30
0.0
 40
1.6868727272727269
  1
H06
  7
OpenSans
 11
649.4
 21
402.55656363636376
 31
0.0
100
AcDbText
  0
TEXT
  5
2E6
330
17
100
AcDbEntity
  8
S-TABLE
100
AcDbText
 10
666.4
 20
402.55656363636376
 30
0.0
 40
1.6868727272727269
  1
T16
  7
OpenSans
 11
666.4
 21
402.55656363636376
 31
0.0
100
AcDbText
  0
TEXT
  5
2E7
330
17
100
AcDbEntity
  8
S-TABLE
100
AcDbText
 10
679.4
 20
402.55656363636376
 30
0.0
 40
1.6868727272727269
  1
00
  7
OpenSans
 11
679.4
 21
402.55656363636376
 31
0.0
100
AcDbText
  0
TEXT
  5
2E8
330
17
100
AcDbEntity
  8
S-TABLE
100
AcDbText
 10
691.4
 20
402.55656363636376
 30
0.0
 40
1.6868727272727269
  1
150
  7
OpenSans
 11
691.4
 21
402.55656363636376
 31
0.0
100
AcDbText
  0
TEXT
  5
2E9
330
17
100
AcDbEntity
  8
S-TABLE
100
AcDbText
 10
706.4
 20
402.55656363636376
 30
0.0
 40
1.6868727272727269
  1
130
  7
OpenSans
 11
706.4
 21
402.55656363636376
 31
0.0
100
AcDbText
  0
TEXT
  5
2EA
330
17
100
AcDbEntity
  8
S-TABLE
100
AcDbText
 10
721.4
 20
402.55656363636376
 30
0.0
 40
1.6868727272727269
  1
1704
  7
OpenSans
 11
721.4
 21
402.55656363636376
 31
0.0
100
AcDbText
  0
TEXT
  5
2EB
330
17
100
AcDbEntity
  8
S-TABLE
100
AcDbText
 10
738.4
 20
402.55656363636376
 30
0.0
 40
1.6868727272727269
  1
350
  7
OpenSans
 11
738.4
 21
402.55656363636376
 31
0.0
100
AcDbText
  0
LINE
  5
2EC
330
17
100
AcDbEntity
  8
S-TABLE
100
AcDbLine
 10
648.0
 20
401.3000000000001
 30
0.0
 11
757.0
 21
401.3000000000001
 31
0.0
  0
TEXT
  5
2ED
330
17
100
AcDbEntity
  8
S-TABLE
100
AcDbText
 10
649.4
 20
398.3565636363638
 30
0.0
 40
1.6868727272727269
  1
H10
  7
OpenSans
 11
649.4
 21
398.3565636363638
 31
0.0
100
AcDbText
  0
TEXT
  5
2EE
330
17
100
AcDbEntity
  8
S-TABLE
100
AcDbText
 10
666.4
 20
398.3565636363638
 30
0.0
 40
1.6868727272727269
  1
T16
  7
OpenSans
 11
666.4
 21
398.3565636363638
 31
0.0
100
AcDbText
  0
TEXT
  5
2EF
330
17
100
AcDbEntity
  8
S-TABLE
100
AcDbText
 10
679.4
 20
398.3565636363638
 30
0.0
 40
1.6868727272727269
  1
11
  7
OpenSans
 11
679.4
 21
398.3565636363638
 31
0.0
100
AcDbText
  0
TEXT
  5
2F0
330
17
100
AcDbEntity
  8
S-TABLE
100
AcDbText
 10
691.4
 20
398.3565636363638
 30
0.0
 40
1.6868727272727269
  1
150
  7
OpenSans
 11
691.4
 21
398.3565636363638
 31
0.0
100
AcDbText
  0
TEXT
  5
2F1
330
17
100
AcDbEntity
  8
S-TABLE
100
AcDbText
 10
706.4
 20
398.3565636363638
 30
0.0
 40
1.6868727272727269
  1
260
  7
OpenSans
 11
706.4
 21
398.3565636363638
 31
0.0
100
AcDbText
  0
TEXT
  5
2F2
330
17
100
AcDbEntity
  8
S-TABLE
100
AcDbText
 10
721.4
 20
398.3565636363638
 30
0.0
 40
1.6868727272727269
  1
2335
  7
OpenSans
 11
721.4
 21
398.3565636363638
 31
0.0
100
AcDbText
  0
TEXT
  5
2F3
330
17
100
AcDbEntity
  8
S-TABLE
100
AcDbText
 10
738.4
 20
398.3565636363638
 30
0.0
 40
1.6868727272727269
  1
958
  7
OpenSans
 11
738.4
 21
398.3565636363638
 31
0.0
100
AcDbText
  0
LINE
  5
2F4
330
17
100
AcDbEntity
  8
S-TABLE
100
AcDbLine
 10
648.0
 20
397.10000000000014
 30
0.0
 11
757.0
 21
397.10000000000014
 31
0.0
  0
LINE
  5
2F5
330
17
100
AcDbEntity
  8
S-TABLE
100
AcDbLine
 10
648.0
 20
447.5
 30
0.0
 11
757.0
 21
447.5
 31
0.0
  0
LINE
  5
2F6
330
17
100
AcDbEntity
  8
S-TABLE
100
AcDbLine
 10
648.0
 20
447.5
 30
0.0
 11
648.0
 21
397.10000000000014
 31
0.0
  0
LINE
  5
2F7
330
17
100
AcDbEntity
  8
S-TABLE
100
AcDbLine
 10
665.0
 20
447.5
 30
0.0
 11
665.0
 21
397.10000000000014
 31
0.0
  0
LINE
  5
2F8
330
17
100
AcDbEntity
  8
S-TABLE
100
AcDbLine
 10
678.0
 20
447.5
 30
0.0
 11
678.0
 21
397.10000000000014
 31
0.0
  0
LINE
  5
2F9
330
17
100
AcDbEntity
  8
S-TABLE
100
AcDbLine
 10
690.0
 20
447.5
 30
0.0
 11
690.0
 21
397.10000000000014
 31
0.0
  0
LINE
  5
2FA
330
17
100
AcDbEntity
  8
S-TABLE
100
AcDbLine
 10
705.0
 20
447.5
 30
0.0
 11
705.0
 21
397.10000000000014
 31
0.0
  0
LINE
  5
2FB
330
17
100
AcDbEntity
  8
S-TABLE
100
AcDbLine
 10
720.0
 20
447.5
 30
0.0
 11
720.0
 21
397.10000000000014
 31
0.0
  0
LINE
  5
2FC
330
17
100
AcDbEntity
  8
S-TABLE
100
AcDbLine
 10
737.0
 20
447.5
 30
0.0
 11
737.0
 21
397.10000000000014
 31
0.0
  0
LINE
  5
2FD
330
17
100
AcDbEntity
  8
S-TABLE
100
AcDbLine
 10
757.0
 20
447.5
 30
0.0
 11
757.0
 21
397.10000000000014
 31
0.0
  0
TEXT
  5
2FE
330
17
100
AcDbEntity
  8
S-TABLE
100
AcDbText
 10
648.0
 20
392.70000000000016
 30
0.0
 40
1.4
  1
SHEET SUB-TOTAL  8,161 kg     FULL SCHEDULE: R-004 and Structural CAD/Schedules/BBS_MASTER.md
  7
OpenSans
 11
648.0
 21
392.70000000000016
 31
0.0
100
AcDbText
  0
TEXT
  5
2FF
330
17
100
AcDbEntity
  8
S-TITLE
100
AcDbText
 10
650.0
 20
378.60000000000014
 30
0.0
 40
2.5
  1
HEADHOUSE LOAD PATH
  7
OpenSans
 11
650.0
 21
378.60000000000014
 31
0.0
100
AcDbText
  0
TEXT
  5
300
330
17
100
AcDbEntity
  8
S-NOTE
100
AcDbText
 10
650.0
 20
374.47500000000014
 30
0.0
 40
2.0
  1
HW1 south  runs in X, 4000, over the box south
  7
OpenSans
 11
650.0
 21
374.47500000000014
 31
0.0
100
AcDbText
  0
TEXT
  5
301
330
17
100
AcDbEntity
  8
S-NOTE
100
AcDbText
 10
650.0
 20
371.4250000000001
 30
0.0
 40
2.0
  1
           perimeter wall - DIRECT
  7
OpenSans
 11
650.0
 21
371.4250000000001
 31
0.0
100
AcDbText
  0
TEXT
  5
302
330
17
100
AcDbEntity
  8
S-NOTE
100
AcDbText
 10
650.0
 20
368.3750000000001
 30
0.0
 40
2.0
  1
HW2 north  runs in X, 4000, over the box north
  7
OpenSans
 11
650.0
 21
368.3750000000001
 31
0.0
100
AcDbText
  0
TEXT
  5
303
330
17
100
AcDbEntity
  8
S-NOTE
100
AcDbText
 10
650.0
 20
365.3250000000001
 30
0.0
 40
2.0
  1
           perimeter wall - DIRECT
  7
OpenSans
 11
650.0
 21
365.3250000000001
 31
0.0
100
AcDbText
  0
TEXT
  5
304
330
17
100
AcDbEntity
  8
S-NOTE
100
AcDbText
 10
650.0
 20
362.2750000000001
 30
0.0
 40
2.0
  1
HW3 west   runs in Y, 5000, over BAY 6, MID-SLAB.
  7
OpenSans
 11
650.0
 21
362.2750000000001
 31
0.0
100
AcDbText
  0
TEXT
  5
305
330
17
100
AcDbEntity
  8
S-NOTE
100
AcDbText
 10
650.0
 20
359.2250000000001
 30
0.0
 40
2.0
  1
           *** NO WALL BELOW *** - a line load on
  7
OpenSans
 11
650.0
 21
359.2250000000001
 31
0.0
100
AcDbText
  0
TEXT
  5
306
330
17
100
AcDbEntity
  8
S-NOTE
100
AcDbText
 10
650.0
 20
356.17500000000007
 30
0.0
 40
2.0
  1
           the pressure slab, 26 % (two-way) /
  7
OpenSans
 11
650.0
 21
356.17500000000007
 31
0.0
100
AcDbText
  0
TEXT
  5
307
330
17
100
AcDbEntity
  8
S-NOTE
100
AcDbText
 10
650.0
 20
353.12500000000006
 30
0.0
 40
2.0
  1
           41 % (one-way bound).  Band S16 - R-304.
  7
OpenSans
 11
650.0
 21
353.12500000000006
 31
0.0
100
AcDbText
  0
TEXT
  5
308
330
17
100
AcDbEntity
  8
S-NOTE
100
AcDbText
 10
650.0
 20
350.07500000000005
 30
0.0
 40
2.0
  1
HW4 east   runs in Y, 5000, over wall W7.
  7
OpenSans
 11
650.0
 21
350.07500000000005
 31
0.0
100
AcDbText
  0
TEXT
  5
309
330
17
100
AcDbEntity
  8
S-NOTE
100
AcDbText
 10
650.0
 20
347.02500000000003
 30
0.0
 40
2.0
  1
           M1 MADE THESE ALIGN EXACTLY.
  7
OpenSans
 11
650.0
 21
347.02500000000003
 31
0.0
100
AcDbText
  0
TEXT
  5
30A
330
17
100
AcDbEntity
  8
S-NOTE
100
AcDbText
 10
650.0
 20
340.925
 30
0.0
 40
2.0
  1
THE HEADHOUSE HAS NO FOUNDATION OF ITS OWN.
  7
OpenSans
 11
650.0
 21
340.925
 31
0.0
100
AcDbText
  0
TEXT
  5
30B
330
17
100
AcDbEntity
  8
S-NOTE
100
AcDbText
 10
650.0
 20
337.875
 30
0.0
 40
2.0
  1
It bears entirely on the box roof and walls.
  7
OpenSans
 11
650.0
 21
337.875
 31
0.0
100
AcDbText
  0
LWPOLYLINE
  5
30C
330
17
100
AcDbEntity
  8
S-TITLE
100
AcDbPolyline
 90
4
 70
1
 10
648.0
 20
332.825
 10
831.0
 20
332.825
 10
831.0
 20
383.10000000000014
 10
648.0
 20
383.10000000000014
  0
LWPOLYLINE
  5
30D
330
17
100
AcDbEntity
  8
S-TITLE
100
AcDbPolyline
 90
4
 70
1
 10
651.0
 20
10.0
 10
831.0
 20
10.0
 10
831.0
 20
110.0
 10
651.0
 20
110.0
  0
LINE
  5
30E
330
17
100
AcDbEntity
  8
S-TITLE
100
AcDbLine
 10
651.0
 20
30.0
 30
0.0
 11
831.0
 21
30.0
 31
0.0
  0
LINE
  5
30F
330
17
100
AcDbEntity
  8
S-TITLE
100
AcDbLine
 10
651.0
 20
42.0
 30
0.0
 11
831.0
 21
42.0
 31
0.0
  0
LINE
  5
310
330
17
100
AcDbEntity
  8
S-TITLE
100
AcDbLine
 10
651.0
 20
54.0
 30
0.0
 11
831.0
 21
54.0
 31
0.0
  0
LINE
  5
311
330
17
100
AcDbEntity
  8
S-TITLE
100
AcDbLine
 10
651.0
 20
66.0
 30
0.0
 11
831.0
 21
66.0
 31
0.0
  0
LINE
  5
312
330
17
100
AcDbEntity
  8
S-TITLE
100
AcDbLine
 10
651.0
 20
88.0
 30
0.0
 11
831.0
 21
88.0
 31
0.0
  0
LINE
  5
313
330
17
100
AcDbEntity
  8
S-TITLE
100
AcDbLine
 10
763.0
 20
10.0
 30
0.0
 11
763.0
 21
30.0
 31
0.0
  0
LINE
  5
314
330
17
100
AcDbEntity
  8
S-TITLE
100
AcDbLine
 10
797.0
 20
10.0
 30
0.0
 11
797.0
 21
30.0
 31
0.0
  0
TEXT
  5
315
330
17
100
AcDbEntity
  8
S-TITLE
100
AcDbText
 10
653.0
 20
24.6
 30
0.0
 40
1.4
  1
DRAWING No.
  7
OpenSans
 11
653.0
 21
24.6
 31
0.0
100
AcDbText
  0
TEXT
  5
316
330
17
100
AcDbEntity
  8
S-TITLE
100
AcDbText
 10
673.0
 20
14.2
 30
0.0
 40
3.5
  1
R-701
  7
OpenSans
 11
673.0
 21
14.2
 31
0.0
100
AcDbText
  0
TEXT
  5
317
330
17
100
AcDbEntity
  8
S-TITLE
100
AcDbText
 10
765.0
 20
24.6
 30
0.0
 40
1.4
  1
REV
  7
OpenSans
 11
765.0
 21
24.6
 31
0.0
100
AcDbText
  0
TEXT
  5
318
330
17
100
AcDbEntity
  8
S-TITLE
100
AcDbText
 10
769.0
 20
14.2
 30
0.0
 40
3.5
  1
SC1
  7
OpenSans
 11
769.0
 21
14.2
 31
0.0
100
AcDbText
  0
TEXT
  5
319
330
17
100
AcDbEntity
  8
S-TITLE
100
AcDbText
 10
799.0
 20
24.6
 30
0.0
 40
1.4
  1
SHEET
  7
OpenSans
 11
799.0
 21
24.6
 31
0.0
100
AcDbText
  0
TEXT
  5
31A
330
17
100
AcDbEntity
  8
S-TITLE
100
AcDbText
 10
799.0
 20
15.0
 30
0.0
 40
1.6
  1
23 OF 30
  7
OpenSans
 11
799.0
 21
15.0
 31
0.0
100
AcDbText
  0
LINE
  5
31B
330
17
100
AcDbEntity
  8
S-TITLE
100
AcDbLine
 10
747.0
 20
30.0
 30
0.0
 11
747.0
 21
42.0
 31
0.0
  0
TEXT
  5
31C
330
17
100
AcDbEntity
  8
S-TITLE
100
AcDbText
 10
653.0
 20
34.4
 30
0.0
 40
1.6
  1
SCALE   1:40
  7
OpenSans
 11
653.0
 21
34.4
 31
0.0
100
AcDbText
  0
TEXT
  5
31D
330
17
100
AcDbEntity
  8
S-TITLE
100
AcDbText
 10
749.0
 20
34.4
 30
0.0
 40
1.6
  1
DATE   04.09.2026
  7
OpenSans
 11
749.0
 21
34.4
 31
0.0
100
AcDbText
  0
TEXT
  5
31E
330
17
100
AcDbEntity
  8
S-TITLE
100
AcDbText
 10
653.0
 20
46.4
 30
0.0
 40
1.4
  1
DESIGNED  [PLACEHOLDER]
  7
OpenSans
 11
653.0
 21
46.4
 31
0.0
100
AcDbText
  0
TEXT
  5
31F
330
17
100
AcDbEntity
  8
S-TITLE
100
AcDbText
 10
713.0
 20
46.4
 30
0.0
 40
1.4
  1
CHECKED  [PLACEHOLDER]
  7
OpenSans
 11
713.0
 21
46.4
 31
0.0
100
AcDbText
  0
TEXT
  5
320
330
17
100
AcDbEntity
  8
S-TITLE
100
AcDbText
 10
773.0
 20
46.4
 30
0.0
 40
1.4
  1
APPROVED  [PLACEHOLDER]
  7
OpenSans
 11
773.0
 21
46.4
 31
0.0
100
AcDbText
  0
TEXT
  5
321
330
17
100
AcDbEntity
  8
S-TITLE
100
AcDbText
 10
653.0
 20
58.4
 30
0.0
 40
1.4
  1
STATUS
  7
OpenSans
 11
653.0
 21
58.4
 31
0.0
100
AcDbText
  0
TEXT
  5
322
330
17
100
AcDbEntity
  8
S-BLAST
100
AcDbText
 10
673.0
 20
58.0
 30
0.0
 40
1.6
  1
FOR REVIEW - NOT FOR CONSTRUCTION
  7
OpenSans
 11
673.0
 21
58.0
 31
0.0
100
AcDbText
  0
TEXT
  5
323
330
17
100
AcDbEntity
  8
S-TITLE
100
AcDbText
 10
653.0
 20
83.4
 30
0.0
 40
1.4
  1
DRAWING TITLE
  7
OpenSans
 11
653.0
 21
83.4
 31
0.0
100
AcDbText
  0
TEXT
  5
324
330
17
100
AcDbEntity
  8
S-TITLE
100
AcDbText
 10
653.0
 20
75.4
 30
0.0
 40
2.4
  1
HEADHOUSE REINFORCEMENT
  7
OpenSans
 11
653.0
 21
75.4
 31
0.0
100
AcDbText
  0
TEXT
  5
325
330
17
100
AcDbEntity
  8
S-TITLE
100
AcDbText
 10
653.0
 20
68.8
 30
0.0
 40
1.4
  1
WALLS HW1-HW4 400 · ROOF 500 · UTILISATION 90 %
  7
OpenSans
 11
653.0
 21
68.8
 31
0.0
100
AcDbText
  0
TEXT
  5
326
330
17
100
AcDbEntity
  8
S-TITLE
100
AcDbText
 10
653.0
 20
105.2
 30
0.0
 40
1.4
  1
PROJECT
  7
OpenSans
 11
653.0
 21
105.2
 31
0.0
100
AcDbText
  0
TEXT
  5
327
330
17
100
AcDbEntity
  8
S-TITLE
100
AcDbText
 10
653.0
 20
99.6
 30
0.0
 40
1.6
  1
UNDERGROUND CBRN-HARDENED BLAST-RESISTANT
  7
OpenSans
 11
653.0
 21
99.6
 31
0.0
100
AcDbText
  0
TEXT
  5
328
330
17
100
AcDbEntity
  8
S-TITLE
100
AcDbText
 10
653.0
 20
95.0
 30
0.0
 40
1.6
  1
PROTECTIVE STRUCTURE  -  PUNE, MAHARASHTRA
  7
OpenSans
 11
653.0
 21
95.0
 31
0.0
100
AcDbText
  0
TEXT
  5
329
330
17
100
AcDbEntity
  8
S-TITLE
100
AcDbText
 10
653.0
 20
90.0
 30
0.0
 40
1.4
  1
STRUCTURAL PHASE 2 REV A + M1   ·   SENTRY POST NOT IN THIS PACKAGE
  7
OpenSans
 11
653.0
 21
90.0
 31
0.0
100
AcDbText
  0
ENDSEC
  0
SECTION
  2
OBJECTS
  0
DICTIONARY
  5
A
330
0
100
AcDbDictionary
281
1
  3
ACAD_COLOR
350
B
  3
ACAD_GROUP
350
C
  3
ACAD_LAYOUT
350
D
  3
ACAD_MATERIAL
350
E
  3
ACAD_MLEADERSTYLE
350
F
  3
ACAD_MLINESTYLE
350
10
  3
ACAD_PLOTSETTINGS
350
11
  3
ACAD_PLOTSTYLENAME
350
12
  3
ACAD_SCALELIST
350
14
  3
ACAD_TABLESTYLE
350
15
  3
ACAD_VISUALSTYLE
350
16
  3
EZDXF_META
350
2D
  0
DICTIONARY
  5
B
330
A
100
AcDbDictionary
281
1
  0
DICTIONARY
  5
C
330
A
100
AcDbDictionary
281
1
  0
DICTIONARY
  5
D
330
A
100
AcDbDictionary
281
1
  3
Model
350
1A
  3
Layout1
350
1E
  0
DICTIONARY
  5
E
330
A
100
AcDbDictionary
281
1
  3
ByBlock
350
1F
  3
ByLayer
350
20
  3
Global
350
21
  0
DICTIONARY
  5
F
330
A
100
AcDbDictionary
281
1
  3
Standard
350
2C
  0
DICTIONARY
  5
10
330
A
100
AcDbDictionary
281
1
  3
Standard
350
22
  0
DICTIONARY
  5
11
330
A
100
AcDbDictionary
281
1
  0
ACDBDICTIONARYWDFLT
  5
12
330
A
100
AcDbDictionary
281
1
  3
Normal
350
13
100
AcDbDictionaryWithDefault
340
13
  0
ACDBPLACEHOLDER
  5
13
330
12
  0
DICTIONARY
  5
14
330
A
100
AcDbDictionary
281
1
  0
DICTIONARY
  5
15
330
A
100
AcDbDictionary
281
1
  0
DICTIONARY
  5
16
330
A
100
AcDbDictionary
281
1
  3
2dWireframe
350
5A
  3
Basic
350
5B
  3
Brighten
350
5C
  3
ColorChange
350
5D
  3
Conceptual
350
5E
  3
Dim
350
5F
  3
EdgeColorOff
350
60
  3
Facepattern
350
61
  3
Flat
350
62
  3
FlatWithEdges
350
63
  3
Gouraud
350
64
  3
GouraudWithEdges
350
65
  3
Hidden
350
66
  3
JitterOff
350
67
  3
Linepattern
350
68
  3
Modeling
350
69
  3
OverhangOff
350
6A
  3
Realistic
350
6B
  3
Shaded
350
6C
  3
Shaded with edges
350
6D
  3
Shades of Gray
350
6E
  3
Sketchy
350
6F
  3
Thicken
350
70
  3
Wireframe
350
71
  3
X-Ray
350
72
  0
LAYOUT
  5
1A
330
D
100
AcDbPlotSettings
  1

  4
A3
  6

 40
7.5
 41
20.0
 42
7.5
 43
20.0
 44
420.0
 45
297.0
 46
0.0
 47
0.0
 48
0.0
 49
0.0
140
0.0
141
0.0
142
1.0
143
1.0
 70
1024
 72
1
 73
0
 74
5
  7

 75
16
 76
0
 77
2
 78
300
147
1.0
148
0.0
149
0.0
100
AcDbLayout
  1
Model
 70
1
 71
0
 10
0.0
 20
0.0
 11
420.0
 21
297.0
 12
0.0
 22
0.0
 32
0.0
 14
1e+20
 24
1e+20
 34
1e+20
 15
-1e+20
 25
-1e+20
 35
-1e+20
146
0.0
 13
0.0
 23
0.0
 33
0.0
 16
1.0
 26
0.0
 36
0.0
 17
0.0
 27
1.0
 37
0.0
 76
1
330
17
  0
LAYOUT
  5
1E
330
D
100
AcDbPlotSettings
  1

  4
A3
  6

 40
7.5
 41
20.0
 42
7.5
 43
20.0
 44
420.0
 45
297.0
 46
0.0
 47
0.0
 48
0.0
 49
0.0
140
0.0
141
0.0
142
1.0
143
1.0
 70
0
 72
1
 73
0
 74
5
  7

 75
16
 76
0
 77
2
 78
300
147
1.0
148
0.0
149
0.0
100
AcDbLayout
  1
Layout1
 70
1
 71
1
 10
0.0
 20
0.0
 11
420.0
 21
297.0
 12
0.0
 22
0.0
 32
0.0
 14
1e+20
 24
1e+20
 34
1e+20
 15
-1e+20
 25
-1e+20
 35
-1e+20
146
0.0
 13
0.0
 23
0.0
 33
0.0
 16
1.0
 26
0.0
 36
0.0
 17
0.0
 27
1.0
 37
0.0
 76
1
330
1B
  0
MATERIAL
  5
1F
102
{ACAD_REACTORS
330
E
102
}
330
E
100
AcDbMaterial
  1
ByBlock
  2

 70
0
 40
1.0
 71
1
 41
1.0
 91
-1023410177
 42
1.0
 72
1
  3

 73
1
 74
1
 75
1
 44
0.5
 73
0
 45
1.0
 46
1.0
 77
1
  4

 78
1
 79
1
170
1
 48
1.0
171
1
  6

172
1
173
1
174
1
140
1.0
141
1.0
175
1
  7

176
1
177
1
178
1
143
1.0
179
1
  8

270
1
271
1
272
1
145
1.0
146
1.0
273
1
  9

274
1
275
1
276
1
 42
1.0
 72
1
  3

 73
1
 74
1
 75
1
 94
63
  0
MATERIAL
  5
20
102
{ACAD_REACTORS
330
E
102
}
330
E
100
AcDbMaterial
  1
ByLayer
  2

 70
0
 40
1.0
 71
1
 41
1.0
 91
-1023410177
 42
1.0
 72
1
  3

 73
1
 74
1
 75
1
 44
0.5
 73
0
 45
1.0
 46
1.0
 77
1
  4

 78
1
 79
1
170
1
 48
1.0
171
1
  6

172
1
173
1
174
1
140
1.0
141
1.0
175
1
  7

176
1
177
1
178
1
143
1.0
179
1
  8

270
1
271
1
272
1
145
1.0
146
1.0
273
1
  9

274
1
275
1
276
1
 42
1.0
 72
1
  3

 73
1
 74
1
 75
1
 94
63
  0
MATERIAL
  5
21
102
{ACAD_REACTORS
330
E
102
}
330
E
100
AcDbMaterial
  1
Global
  2

 70
0
 40
1.0
 71
1
 41
1.0
 91
-1023410177
 42
1.0
 72
1
  3

 73
1
 74
1
 75
1
 44
0.5
 73
0
 45
1.0
 46
1.0
 77
1
  4

 78
1
 79
1
170
1
 48
1.0
171
1
  6

172
1
173
1
174
1
140
1.0
141
1.0
175
1
  7

176
1
177
1
178
1
143
1.0
179
1
  8

270
1
271
1
272
1
145
1.0
146
1.0
273
1
  9

274
1
275
1
276
1
 42
1.0
 72
1
  3

 73
1
 74
1
 75
1
 94
63
  0
MLINESTYLE
  5
22
102
{ACAD_REACTORS
330
10
102
}
330
10
100
AcDbMlineStyle
  2
Standard
 70
0
  3

 62
256
 51
90.0
 52
90.0
 71
2
 49
0.5
 62
256
  6
BYLAYER
 49
-0.5
 62
256
  6
BYLAYER
  0
MLEADERSTYLE
  5
2C
102
{ACAD_REACTORS
330
F
102
}
330
F
100
AcDbMLeaderStyle
179
2
170
2
171
1
172
0
 90
2
 40
0.0
 41
0.0
173
1
 91
-1056964608
 92
-2
290
1
 42
2.0
291
1
 43
8.0
  3
Standard
 44
4.0
300

342
29
174
1
175
1
176
0
178
1
 93
-1056964608
 45
4.0
292
0
297
0
 46
4.0
 94
-1056964608
 47
1.0
 49
1.0
140
1.0
294
1
141
0.0
177
0
142
1.0
295
0
296
0
143
3.75
271
0
272
9
273
9
  0
DICTIONARY
  5
2D
330
A
100
AcDbDictionary
280
1
281
1
  3
CREATED_BY_EZDXF
350
2E
  3
WRITTEN_BY_EZDXF
350
32C
  0
DICTIONARYVAR
  5
2E
330
2D
100
DictionaryVariables
280
0
  1
1.4.4 @ 2026-09-10T01:42:54.489851+00:00
  0
VISUALSTYLE
  5
5A
102
{ACAD_REACTORS
330
16
102
}
330
16
100
AcDbVisualStyle
  2
2dWireframe
 70
4
 90
0
 40
0.6
 62
7
290
0
291
0
  0
VISUALSTYLE
  5
5B
102
{ACAD_REACTORS
330
16
102
}
330
16
100
AcDbVisualStyle
  2
Basic
 70
7
 90
1
 40
0.6
 62
7
290
0
291
1
  0
VISUALSTYLE
  5
5C
102
{ACAD_REACTORS
330
16
102
}
330
16
100
AcDbVisualStyle
  2
Brighten
 70
12
 90
2
 40
0.6
 62
7
290
0
291
1
  0
VISUALSTYLE
  5
5D
102
{ACAD_REACTORS
330
16
102
}
330
16
100
AcDbVisualStyle
  2
ColorChange
 70
16
 90
2
 40
0.6
 62
8
290
0
291
1
  0
VISUALSTYLE
  5
5E
102
{ACAD_REACTORS
330
16
102
}
330
16
100
AcDbVisualStyle
  2
Conceptual
 70
9
 90
3
 40
0.6
 62
7
290
0
291
0
  0
VISUALSTYLE
  5
5F
102
{ACAD_REACTORS
330
16
102
}
330
16
100
AcDbVisualStyle
  2
Dim
 70
11
 90
2
 40
0.6
 62
7
290
0
291
1
  0
VISUALSTYLE
  5
60
102
{ACAD_REACTORS
330
16
102
}
330
16
100
AcDbVisualStyle
  2
EdgeColorOff
 70
22
 90
2
 40
0.6
 62
7
290
0
291
1
  0
VISUALSTYLE
  5
61
102
{ACAD_REACTORS
330
16
102
}
330
16
100
AcDbVisualStyle
  2
Facepattern
 70
15
 90
2
 40
0.6
 62
7
290
0
291
1
  0
VISUALSTYLE
  5
62
102
{ACAD_REACTORS
330
16
102
}
330
16
100
AcDbVisualStyle
  2
Flat
 70
0
 90
2
 40
0.6
 62
7
290
0
291
1
  0
VISUALSTYLE
  5
63
102
{ACAD_REACTORS
330
16
102
}
330
16
100
AcDbVisualStyle
  2
FlatWithEdges
 70
1
 90
2
 40
0.6
 62
7
290
0
291
1
  0
VISUALSTYLE
  5
64
102
{ACAD_REACTORS
330
16
102
}
330
16
100
AcDbVisualStyle
  2
Gouraud
 70
2
 90
2
 40
0.6
 62
7
290
0
291
1
  0
VISUALSTYLE
  5
65
102
{ACAD_REACTORS
330
16
102
}
330
16
100
AcDbVisualStyle
  2
GouraudWithEdges
 70
3
 90
2
 40
0.6
 62
7
290
0
291
1
  0
VISUALSTYLE
  5
66
102
{ACAD_REACTORS
330
16
102
}
330
16
100
AcDbVisualStyle
  2
Hidden
 70
6
 90
1
 40
0.6
 62
7
290
0
291
0
  0
VISUALSTYLE
  5
67
102
{ACAD_REACTORS
330
16
102
}
330
16
100
AcDbVisualStyle
  2
JitterOff
 70
20
 90
2
 40
0.6
 62
7
290
0
291
1
  0
VISUALSTYLE
  5
68
102
{ACAD_REACTORS
330
16
102
}
330
16
100
AcDbVisualStyle
  2
Linepattern
 70
14
 90
2
 40
0.6
 62
7
290
0
291
1
  0
VISUALSTYLE
  5
69
102
{ACAD_REACTORS
330
16
102
}
330
16
100
AcDbVisualStyle
  2
Modeling
 70
10
 90
2
 40
0.6
 62
7
290
0
291
0
  0
VISUALSTYLE
  5
6A
102
{ACAD_REACTORS
330
16
102
}
330
16
100
AcDbVisualStyle
  2
OverhangOff
 70
21
 90
2
 40
0.6
 62
7
290
0
291
1
  0
VISUALSTYLE
  5
6B
102
{ACAD_REACTORS
330
16
102
}
330
16
100
AcDbVisualStyle
  2
Realistic
 70
8
 90
2
 40
0.6
 62
7
290
0
291
0
  0
VISUALSTYLE
  5
6C
102
{ACAD_REACTORS
330
16
102
}
330
16
100
AcDbVisualStyle
  2
Shaded
 70
27
 90
2
 40
0.6
 62
7
290
0
291
0
  0
VISUALSTYLE
  5
6D
102
{ACAD_REACTORS
330
16
102
}
330
16
100
AcDbVisualStyle
  2
Shaded with edges
 70
26
 90
2
 40
0.6
 62
7
290
0
291
0
  0
VISUALSTYLE
  5
6E
102
{ACAD_REACTORS
330
16
102
}
330
16
100
AcDbVisualStyle
  2
Shades of Gray
 70
23
 90
2
 40
0.6
 62
7
290
0
291
0
  0
VISUALSTYLE
  5
6F
102
{ACAD_REACTORS
330
16
102
}
330
16
100
AcDbVisualStyle
  2
Sketchy
 70
24
 90
1
 40
0.6
 62
7
290
0
291
0
  0
VISUALSTYLE
  5
70
102
{ACAD_REACTORS
330
16
102
}
330
16
100
AcDbVisualStyle
  2
Thicken
 70
13
 90
2
 40
0.6
 62
7
290
0
291
1
  0
VISUALSTYLE
  5
71
102
{ACAD_REACTORS
330
16
102
}
330
16
100
AcDbVisualStyle
  2
Wireframe
 70
5
 90
0
 40
0.6
 62
7
290
0
291
0
  0
VISUALSTYLE
  5
72
102
{ACAD_REACTORS
330
16
102
}
330
16
100
AcDbVisualStyle
  2
X-Ray
 70
25
 90
2
 40
0.5
 62
7
290
0
291
0
  0
DICTIONARYVAR
  5
32C
330
2D
100
DictionaryVariables
280
0
  1
1.4.4 @ 2026-09-10T01:42:54.549905+00:00
  0
ENDSEC
  0
EOF
