  0
SECTION
  2
HEADER
  9
$ACADVER
  1
AC1024
  9
$ACADMAINTVER
 70
6
  9
$DWGCODEPAGE
  3
ANSI_1252
  9
$LASTSAVEDBY
  1
ezdxf
  9
$INSBASE
 10
0.0
 20
0.0
 30
0.0
  9
$EXTMIN
 10
1e+20
 20
1e+20
 30
1e+20
  9
$EXTMAX
 10
-1e+20
 20
-1e+20
 30
-1e+20
  9
$LIMMIN
 10
0.0
 20
0.0
  9
$LIMMAX
 10
420.0
 20
297.0
  9
$ORTHOMODE
 70
0
  9
$REGENMODE
 70
1
  9
$FILLMODE
 70
1
  9
$QTEXTMODE
 70
0
  9
$MIRRTEXT
 70
1
  9
$LTSCALE
 40
1.0
  9
$ATTMODE
 70
1
  9
$TEXTSIZE
 40
2.5
  9
$TRACEWID
 40
1.0
  9
$TEXTSTYLE
  7
OpenSans
  9
$CLAYER
  8
0
  9
$CELTYPE
  6
ByLayer
  9
$CECOLOR
 62
256
  9
$CELTSCALE
 40
1.0
  9
$DISPSILH
 70
0
  9
$DIMSCALE
 40
1.0
  9
$DIMASZ
 40
0.175
  9
$DIMEXO
 40
0.125
  9
$DIMDLI
 40
3.75
  9
$DIMRND
 40
0.0
  9
$DIMDLE
 40
0.0
  9
$DIMEXE
 40
0.375
  9
$DIMTP
 40
0.0
  9
$DIMTM
 40
0.0
  9
$DIMTXT
 40
0.25
  9
$DIMCEN
 40
2.5
  9
$DIMTSZ
 40
0.0
  9
$DIMTOL
 70
0
  9
$DIMLIM
 70
0
  9
$DIMTIH
 70
0
  9
$DIMTOH
 70
0
  9
$DIMSE1
 70
0
  9
$DIMSE2
 70
0
  9
$DIMTAD
 70
1
  9
$DIMZIN
 70
12
  9
$DIMBLK
  1
ARCHTICK
  9
$DIMASO
 70
1
  9
$DIMSHO
 70
1
  9
$DIMPOST
  1

  9
$DIMAPOST
  1

  9
$DIMALT
 70
0
  9
$DIMALTD
 70
3
  9
$DIMALTF
 40
0.03937007874
  9
$DIMLFAC
 40
100.0
  9
$DIMTOFL
 70
1
  9
$DIMTVP
 40
0.0
  9
$DIMTIX
 70
0
  9
$DIMSOXD
 70
0
  9
$DIMSAH
 70
0
  9
$DIMBLK1
  1

  9
$DIMBLK2
  1

  9
$DIMSTYLE
  2
EZDXF
  9
$DIMCLRD
 70
0
  9
$DIMCLRE
 70
0
  9
$DIMCLRT
 70
0
  9
$DIMTFAC
 40
0.5
  9
$DIMGAP
 40
0.1
  9
$DIMJUST
 70
0
  9
$DIMSD1
 70
0
  9
$DIMSD2
 70
0
  9
$DIMTOLJ
 70
0
  9
$DIMTZIN
 70
8
  9
$DIMALTZ
 70
0
  9
$DIMALTTZ
 70
0
  9
$DIMUPT
 70
1
  9
$DIMDEC
 70
2
  9
$DIMTDEC
 70
2
  9
$DIMALTU
 70
2
  9
$DIMALTTD
 70
3
  9
$DIMTXSTY
  7
OpenSansCondensed-Light
  9
$DIMAUNIT
 70
0
  9
$DIMADEC
 70
2
  9
$DIMALTRND
 40
0.0
  9
$DIMAZIN
 70
3
  9
$DIMDSEP
 70
46
  9
$DIMATFIT
 70
3
  9
$DIMFRAC
 70
0
  9
$DIMLDRBLK
  1

  9
$DIMLUNIT
 70
2
  9
$DIMLWD
 70
-2
  9
$DIMLWE
 70
-2
  9
$DIMTMOVE
 70
2
  9
$DIMFXL
 40
1.0
  9
$DIMFXLON
 70
0
  9
$DIMJOGANG
 40
0.785398163397
  9
$DIMTFILL
 70
0
  9
$DIMTFILLCLR
 70
0
  9
$DIMARCSYM
 70
0
  9
$DIMLTYPE
  6

  9
$DIMLTEX1
  6

  9
$DIMLTEX2
  6

  9
$DIMTXTDIRECTION
 70
0
  9
$LUNITS
 70
2
  9
$LUPREC
 70
4
  9
$SKETCHINC
 40
1.0
  9
$FILLETRAD
 40
10.0
  9
$AUNITS
 70
0
  9
$AUPREC
 70
2
  9
$MENU
  1
.
  9
$ELEVATION
 40
0.0
  9
$PELEVATION
 40
0.0
  9
$THICKNESS
 40
0.0
  9
$LIMCHECK
 70
0
  9
$CHAMFERA
 40
0.0
  9
$CHAMFERB
 40
0.0
  9
$CHAMFERC
 40
0.0
  9
$CHAMFERD
 40
0.0
  9
$SKPOLY
 70
0
  9
$TDCREATE
 40
2461295.358113426
  9
$TDUCREATE
 40
2458532.153996898
  9
$TDUPDATE
 40
2461295.358113426
  9
$TDUUPDATE
 40
2458532.1544311
  9
$TDINDWG
 40
0.0
  9
$TDUSRTIMER
 40
0.0
  9
$USRTIMER
 70
1
  9
$ANGBASE
 50
0.0
  9
$ANGDIR
 70
0
  9
$PDMODE
 70
0
  9
$PDSIZE
 40
0.0
  9
$PLINEWID
 40
0.0
  9
$SPLFRAME
 70
0
  9
$SPLINETYPE
 70
6
  9
$SPLINESEGS
 70
8
  9
$HANDSEED
  5
352
  9
$SURFTAB1
 70
6
  9
$SURFTAB2
 70
6
  9
$SURFTYPE
 70
6
  9
$SURFU
 70
6
  9
$SURFV
 70
6
  9
$UCSBASE
  2

  9
$UCSNAME
  2

  9
$UCSORG
 10
0.0
 20
0.0
 30
0.0
  9
$UCSXDIR
 10
1.0
 20
0.0
 30
0.0
  9
$UCSYDIR
 10
0.0
 20
1.0
 30
0.0
  9
$UCSORTHOREF
  2

  9
$UCSORTHOVIEW
 70
0
  9
$UCSORGTOP
 10
0.0
 20
0.0
 30
0.0
  9
$UCSORGBOTTOM
 10
0.0
 20
0.0
 30
0.0
  9
$UCSORGLEFT
 10
0.0
 20
0.0
 30
0.0
  9
$UCSORGRIGHT
 10
0.0
 20
0.0
 30
0.0
  9
$UCSORGFRONT
 10
0.0
 20
0.0
 30
0.0
  9
$UCSORGBACK
 10
0.0
 20
0.0
 30
0.0
  9
$PUCSBASE
  2

  9
$PUCSNAME
  2

  9
$PUCSORG
 10
0.0
 20
0.0
 30
0.0
  9
$PUCSXDIR
 10
1.0
 20
0.0
 30
0.0
  9
$PUCSYDIR
 10
0.0
 20
1.0
 30
0.0
  9
$PUCSORTHOREF
  2

  9
$PUCSORTHOVIEW
 70
0
  9
$PUCSORGTOP
 10
0.0
 20
0.0
 30
0.0
  9
$PUCSORGBOTTOM
 10
0.0
 20
0.0
 30
0.0
  9
$PUCSORGLEFT
 10
0.0
 20
0.0
 30
0.0
  9
$PUCSORGRIGHT
 10
0.0
 20
0.0
 30
0.0
  9
$PUCSORGFRONT
 10
0.0
 20
0.0
 30
0.0
  9
$PUCSORGBACK
 10
0.0
 20
0.0
 30
0.0
  9
$USERI1
 70
0
  9
$USERI2
 70
0
  9
$USERI3
 70
0
  9
$USERI4
 70
0
  9
$USERI5
 70
0
  9
$USERR1
 40
0.0
  9
$USERR2
 40
0.0
  9
$USERR3
 40
0.0
  9
$USERR4
 40
0.0
  9
$USERR5
 40
0.0
  9
$WORLDVIEW
 70
1
  9
$SHADEDGE
 70
3
  9
$SHADEDIF
 70
70
  9
$TILEMODE
 70
1
  9
$MAXACTVP
 70
64
  9
$PINSBASE
 10
0.0
 20
0.0
 30
0.0
  9
$PLIMCHECK
 70
0
  9
$PEXTMIN
 10
1e+20
 20
1e+20
 30
1e+20
  9
$PEXTMAX
 10
-1e+20
 20
-1e+20
 30
-1e+20
  9
$PLIMMIN
 10
0.0
 20
0.0
  9
$PLIMMAX
 10
420.0
 20
297.0
  9
$UNITMODE
 70
0
  9
$VISRETAIN
 70
1
  9
$PLINEGEN
 70
0
  9
$PSLTSCALE
 70
1
  9
$TREEDEPTH
 70
3020
  9
$CMLSTYLE
  2
Standard
  9
$CMLJUST
 70
0
  9
$CMLSCALE
 40
20.0
  9
$PROXYGRAPHICS
 70
1
  9
$MEASUREMENT
 70
1
  9
$CELWEIGHT
370
-1
  9
$ENDCAPS
280
0
  9
$JOINSTYLE
280
0
  9
$LWDISPLAY
290
0
  9
$INSUNITS
 70
4
  9
$HYPERLINKBASE
  1

  9
$STYLESHEET
  1

  9
$XEDIT
290
1
  9
$CEPSNTYPE
380
0
  9
$PSTYLEMODE
290
1
  9
$FINGERPRINTGUID
  2
{3278448B-4C0B-40E8-A7E1-BC2BDD466358}
  9
$VERSIONGUID
  2
{C1E55666-7EB3-4B7E-BF74-52DCE15F6D10}
  9
$EXTNAMES
290
1
  9
$PSVPSCALE
 40
0.0
  9
$OLESTARTUP
290
0
  9
$SORTENTS
280
127
  9
$INDEXCTL
280
0
  9
$HIDETEXT
280
1
  9
$XCLIPFRAME
280
1
  9
$HALOGAP
280
0
  9
$OBSCOLOR
 70
257
  9
$OBSLTYPE
280
0
  9
$INTERSECTIONDISPLAY
280
0
  9
$INTERSECTIONCOLOR
 70
257
  9
$DIMASSOC
280
2
  9
$PROJECTNAME
  1

  9
$CAMERADISPLAY
290
0
  9
$LENSLENGTH
 40
50.0
  9
$CAMERAHEIGHT
 40
0.0
  9
$STEPSPERSEC
 40
24.0
  9
$STEPSIZE
 40
100.0
  9
$3DDWFPREC
 40
2.0
  9
$PSOLWIDTH
 40
0.005
  9
$PSOLHEIGHT
 40
0.08
  9
$LOFTANG1
 40
1.570796326795
  9
$LOFTANG2
 40
1.570796326795
  9
$LOFTMAG1
 40
0.0
  9
$LOFTMAG2
 40
0.0
  9
$LOFTPARAM
 70
7
  9
$LOFTNORMALS
280
1
  9
$LATITUDE
 40
37.795
  9
$LONGITUDE
 40
-122.394
  9
$NORTHDIRECTION
 40
0.0
  9
$TIMEZONE
 70
-8000
  9
$LIGHTGLYPHDISPLAY
280
1
  9
$TILEMODELIGHTSYNCH
280
1
  9
$CMATERIAL
347
20
  9
$SOLIDHIST
280
0
  9
$SHOWHIST
280
1
  9
$DWFFRAME
280
2
  9
$DGNFRAME
280
2
  9
$REALWORLDSCALE
290
1
  9
$INTERFERECOLOR
 62
256
  9
$CSHADOW
280
0
  9
$SHADOWPLANELOCATION
 40
0.0
  0
ENDSEC
  0
SECTION
  2
CLASSES
  0
CLASS
  1
ACDBDICTIONARYWDFLT
  2
AcDbDictionaryWithDefault
  3
ObjectDBX Classes
 90
0
 91
0
280
0
281
0
  0
CLASS
  1
SUN
  2
AcDbSun
  3
SCENEOE
 90
1153
 91
0
280
0
281
0
  0
CLASS
  1
VISUALSTYLE
  2
AcDbVisualStyle
  3
ObjectDBX Classes
 90
4095
 91
0
280
0
281
0
  0
CLASS
  1
MATERIAL
  2
AcDbMaterial
  3
ObjectDBX Classes
 90
1153
 91
0
280
0
281
0
  0
CLASS
  1
SCALE
  2
AcDbScale
  3
ObjectDBX Classes
 90
1153
 91
0
280
0
281
0
  0
CLASS
  1
TABLESTYLE
  2
AcDbTableStyle
  3
ObjectDBX Classes
 90
4095
 91
0
280
0
281
0
  0
CLASS
  1
MLEADERSTYLE
  2
AcDbMLeaderStyle
  3
ACDB_MLEADERSTYLE_CLASS
 90
4095
 91
0
280
0
281
0
  0
CLASS
  1
DICTIONARYVAR
  2
AcDbDictionaryVar
  3
ObjectDBX Classes
 90
0
 91
0
280
0
281
0
  0
CLASS
  1
CELLSTYLEMAP
  2
AcDbCellStyleMap
  3
ObjectDBX Classes
 90
1152
 91
0
280
0
281
0
  0
CLASS
  1
MENTALRAYRENDERSETTINGS
  2
AcDbMentalRayRenderSettings
  3
SCENEOE
 90
1024
 91
0
280
0
281
0
  0
CLASS
  1
ACDBDETAILVIEWSTYLE
  2
AcDbDetailViewStyle
  3
ObjectDBX Classes
 90
1025
 91
0
280
0
281
0
  0
CLASS
  1
ACDBSECTIONVIEWSTYLE
  2
AcDbSectionViewStyle
  3
ObjectDBX Classes
 90
1025
 91
0
280
0
281
0
  0
CLASS
  1
RASTERVARIABLES
  2
AcDbRasterVariables
  3
ISM
 90
0
 91
0
280
0
281
0
  0
CLASS
  1
ACDBPLACEHOLDER
  2
AcDbPlaceHolder
  3
ObjectDBX Classes
 90
0
 91
0
280
0
281
0
  0
CLASS
  1
LAYOUT
  2
AcDbLayout
  3
ObjectDBX Classes
 90
0
 91
0
280
0
281
0
  0
ENDSEC
  0
SECTION
  2
TABLES
  0
TABLE
  2
VPORT
  5
8
330
0
100
AcDbSymbolTable
 70
1
  0
VPORT
  5
23
330
8
100
AcDbSymbolTableRecord
100
AcDbViewportTableRecord
  2
*Active
 70
0
 10
0.0
 20
0.0
 11
1.0
 21
1.0
 12
0.0
 22
0.0
 13
0.0
 23
0.0
 14
0.5
 24
0.5
 15
0.5
 25
0.5
 16
0.0
 26
0.0
 36
1.0
 17
0.0
 27
0.0
 37
0.0
 40
1000.0
 41
1.34
 42
50.0
 43
0.0
 44
0.0
 50
0.0
 51
0.0
 71
0
 72
1000
 73
1
 74
3
 75
0
 76
0
 77
0
 78
0
281
0
 65
0
146
0.0
  0
ENDTAB
  0
TABLE
  2
LTYPE
  5
2
330
0
100
AcDbSymbolTable
 70
21
  0
LTYPE
  5
24
330
2
100
AcDbSymbolTableRecord
100
AcDbLinetypeTableRecord
  2
ByBlock
 70
0
  3

 72
65
 73
0
 40
0.0
  0
LTYPE
  5
25
330
2
100
AcDbSymbolTableRecord
100
AcDbLinetypeTableRecord
  2
ByLayer
 70
0
  3

 72
65
 73
0
 40
0.0
  0
LTYPE
  5
26
330
2
100
AcDbSymbolTableRecord
100
AcDbLinetypeTableRecord
  2
Continuous
 70
0
  3

 72
65
 73
0
 40
0.0
  0
LTYPE
  5
2F
330
2
100
AcDbSymbolTableRecord
100
AcDbLinetypeTableRecord
  2
CENTER
 70
0
  3
Center ____ _ ____ _ ____ _ ____ _ ____ _ ____
 72
65
 73
4
 40
5.08
 49
3.175
 74
0
 49
-0.635
 74
0
 49
0.635
 74
0
 49
-0.635
 74
0
  0
LTYPE
  5
30
330
2
100
AcDbSymbolTableRecord
100
AcDbLinetypeTableRecord
  2
CENTERX2
 70
0
  3
Center (2x) ________  __  ________  __  ________
 72
65
 73
4
 40
8.89
 49
6.35
 74
0
 49
-0.635
 74
0
 49
1.27
 74
0
 49
-0.635
 74
0
  0
LTYPE
  5
31
330
2
100
AcDbSymbolTableRecord
100
AcDbLinetypeTableRecord
  2
CENTER2
 70
0
  3
Center (.5x) ____ _ ____ _ ____ _ ____ _ ____
 72
65
 73
4
 40
2.54
 49
1.587
 74
0
 49
-0.318
 74
0
 49
0.318
 74
0
 49
-0.318
 74
0
  0
LTYPE
  5
32
330
2
100
AcDbSymbolTableRecord
100
AcDbLinetypeTableRecord
  2
DASHED
 70
0
  3
Dashed __ __ __ __ __ __ __ __ __ __ __ __ __ _
 72
65
 73
2
 40
1.524
 49
1.27
 74
0
 49
-0.254
 74
0
  0
LTYPE
  5
33
330
2
100
AcDbSymbolTableRecord
100
AcDbLinetypeTableRecord
  2
DASHEDX2
 70
0
  3
Dashed (2x) ____  ____  ____  ____  ____  ____
 72
65
 73
2
 40
3.048
 49
2.54
 74
0
 49
-0.508
 74
0
  0
LTYPE
  5
34
330
2
100
AcDbSymbolTableRecord
100
AcDbLinetypeTableRecord
  2
DASHED2
 70
0
  3
Dashed (.5x) _ _ _ _ _ _ _ _ _ _ _ _ _ _
 72
65
 73
2
 40
0.762
 49
0.635
 74
0
 49
-0.127
 74
0
  0
LTYPE
  5
35
330
2
100
AcDbSymbolTableRecord
100
AcDbLinetypeTableRecord
  2
PHANTOM
 70
0
  3
Phantom ______  __  __  ______  __  __  ______
 72
65
 73
6
 40
6.35
 49
3.175
 74
0
 49
-0.635
 74
0
 49
0.635
 74
0
 49
-0.635
 74
0
 49
0.635
 74
0
 49
-0.635
 74
0
  0
LTYPE
  5
36
330
2
100
AcDbSymbolTableRecord
100
AcDbLinetypeTableRecord
  2
PHANTOMX2
 70
0
  3
Phantom (2x)____________    ____    ____    ____________
 72
65
 73
6
 40
10.795
 49
6.35
 74
0
 49
-0.635
 74
0
 49
1.27
 74
0
 49
-0.635
 74
0
 49
1.27
 74
0
 49
-0.635
 74
0
  0
LTYPE
  5
37
330
2
100
AcDbSymbolTableRecord
100
AcDbLinetypeTableRecord
  2
PHANTOM2
 70
0
  3
Phantom (.5x) ___ _ _ ___ _ _ ___ _ _ ___ _ _ ___
 72
65
 73
6
 40
3.175
 49
1.587
 74
0
 49
-0.318
 74
0
 49
0.318
 74
0
 49
-0.318
 74
0
 49
0.318
 74
0
 49
-0.318
 74
0
  0
LTYPE
  5
38
330
2
100
AcDbSymbolTableRecord
100
AcDbLinetypeTableRecord
  2
DASHDOT
 70
0
  3
Dash dot __ . __ . __ . __ . __ . __ . __ . __
 72
65
 73
4
 40
3.556
 49
2.54
 74
0
 49
-0.508
 74
0
 49
0.0
 74
0
 49
-0.508
 74
0
  0
LTYPE
  5
39
330
2
100
AcDbSymbolTableRecord
100
AcDbLinetypeTableRecord
  2
DASHDOTX2
 70
0
  3
Dash dot (2x) ____  .  ____  .  ____  .  ____
 72
65
 73
4
 40
6.096
 49
5.08
 74
0
 49
-0.508
 74
0
 49
0.0
 74
0
 49
-0.508
 74
0
  0
LTYPE
  5
3A
330
2
100
AcDbSymbolTableRecord
100
AcDbLinetypeTableRecord
  2
DASHDOT2
 70
0
  3
Dash dot (.5x) _ . _ . _ . _ . _ . _ . _ . _
 72
65
 73
4
 40
1.778
 49
1.27
 74
0
 49
-0.254
 74
0
 49
0.0
 74
0
 49
-0.254
 74
0
  0
LTYPE
  5
3B
330
2
100
AcDbSymbolTableRecord
100
AcDbLinetypeTableRecord
  2
DOT
 70
0
  3
Dot .  .  .  .  .  .  .  .  .  .  .  .  .  .  .  .
 72
65
 73
2
 40
0.508
 49
0.0
 74
0
 49
-0.508
 74
0
  0
LTYPE
  5
3C
330
2
100
AcDbSymbolTableRecord
100
AcDbLinetypeTableRecord
  2
DOTX2
 70
0
  3
Dot (2x) .    .    .    .    .    .    .    . 
 72
65
 73
2
 40
1.016
 49
0.0
 74
0
 49
-1.016
 74
0
  0
LTYPE
  5
3D
330
2
100
AcDbSymbolTableRecord
100
AcDbLinetypeTableRecord
  2
DOT2
 70
0
  3
Dot (.5) . . . . . . . . . . . . . . . . . . . 
 72
65
 73
2
 40
0.254
 49
0.0
 74
0
 49
-0.254
 74
0
  0
LTYPE
  5
3E
330
2
100
AcDbSymbolTableRecord
100
AcDbLinetypeTableRecord
  2
DIVIDE
 70
0
  3
Divide __ . . __ . . __ . . __ . . __ . . __
 72
65
 73
6
 40
4.064
 49
2.54
 74
0
 49
-0.508
 74
0
 49
0.0
 74
0
 49
-0.508
 74
0
 49
0.0
 74
0
 49
-0.508
 74
0
  0
LTYPE
  5
3F
330
2
100
AcDbSymbolTableRecord
100
AcDbLinetypeTableRecord
  2
DIVIDEX2
 70
0
  3
Divide (2x) ____  . .  ____  . .  ____  . .  ____
 72
65
 73
6
 40
6.604
 49
5.08
 74
0
 49
-0.508
 74
0
 49
0.0
 74
0
 49
-0.508
 74
0
 49
0.0
 74
0
 49
-0.508
 74
0
  0
LTYPE
  5
40
330
2
100
AcDbSymbolTableRecord
100
AcDbLinetypeTableRecord
  2
DIVIDE2
 70
0
  3
Divide(.5x) _ . _ . _ . _ . _ . _ . _ . _
 72
65
 73
6
 40
2.032
 49
1.27
 74
0
 49
-0.254
 74
0
 49
0.0
 74
0
 49
-0.254
 74
0
 49
0.0
 74
0
 49
-0.254
 74
0
  0
ENDTAB
  0
TABLE
  2
LAYER
  5
1
330
0
100
AcDbSymbolTable
 70
75
  0
LAYER
  5
27
330
1
100
AcDbSymbolTableRecord
100
AcDbLayerTableRecord
  2
0
 70
0
 62
7
  6
Continuous
370
-3
390
13
347
21
  0
LAYER
  5
28
330
1
100
AcDbSymbolTableRecord
100
AcDbLayerTableRecord
  2
Defpoints
 70
0
 62
7
  6
Continuous
290
0
370
-3
390
13
347
21
  0
LAYER
  5
8A
330
1
100
AcDbSymbolTableRecord
100
AcDbLayerTableRecord
  2
S-CONCRETE
 70
0
 62
7
  6
Continuous
370
-3
390
13
347
21
1001
AcAecLayerStandard
1000

1000
Structural concrete outlines (cut)
  0
LAYER
  5
8C
330
1
100
AcDbSymbolTableRecord
100
AcDbLayerTableRecord
  2
S-CONCRETE-THIN
 70
0
 62
7
  6
Continuous
370
-3
390
13
347
21
1001
AcAecLayerStandard
1000

1000
Concrete beyond the cut plane
  0
LAYER
  5
8D
330
1
100
AcDbSymbolTableRecord
100
AcDbLayerTableRecord
  2
S-HIDDEN
 70
0
 62
8
  6
Continuous
370
-3
390
13
347
21
1001
AcAecLayerStandard
1000

1000
Concrete / features beyond, hidden
  0
LAYER
  5
8E
330
1
100
AcDbSymbolTableRecord
100
AcDbLayerTableRecord
  2
S-REBAR-MAIN
 70
0
 62
1
  6
Continuous
370
-3
390
13
347
21
1001
AcAecLayerStandard
1000

1000
Main reinforcement
  0
LAYER
  5
8F
330
1
100
AcDbSymbolTableRecord
100
AcDbLayerTableRecord
  2
S-REBAR-DIST
 70
0
 62
3
  6
Continuous
370
-3
390
13
347
21
1001
AcAecLayerStandard
1000

1000
Distribution reinforcement
  0
LAYER
  5
90
330
1
100
AcDbSymbolTableRecord
100
AcDbLayerTableRecord
  2
S-REBAR-STIRRUP
 70
0
 62
6
  6
Continuous
370
-3
390
13
347
21
1001
AcAecLayerStandard
1000

1000
Links and stirrups
  0
LAYER
  5
91
330
1
100
AcDbSymbolTableRecord
100
AcDbLayerTableRecord
  2
S-REBAR-TIE
 70
0
 62
6
  6
Continuous
370
-3
390
13
347
21
1001
AcAecLayerStandard
1000

1000
Ties, cross-ties, starters
  0
LAYER
  5
92
330
1
100
AcDbSymbolTableRecord
100
AcDbLayerTableRecord
  2
S-REBAR-SEC
 70
0
 62
4
  6
Continuous
370
-3
390
13
347
21
1001
AcAecLayerStandard
1000

1000
Trimmers, secondary and additional bars
  0
LAYER
  5
93
330
1
100
AcDbSymbolTableRecord
100
AcDbLayerTableRecord
  2
S-DIM
 70
0
 62
4
  6
Continuous
370
-3
390
13
347
21
1001
AcAecLayerStandard
1000

1000
Dimensions
  0
LAYER
  5
94
330
1
100
AcDbSymbolTableRecord
100
AcDbLayerTableRecord
  2
S-TEXT
 70
0
 62
7
  6
Continuous
370
-3
390
13
347
21
1001
AcAecLayerStandard
1000

1000
General annotation
  0
LAYER
  5
95
330
1
100
AcDbSymbolTableRecord
100
AcDbLayerTableRecord
  2
S-NOTE
 70
0
 62
7
  6
Continuous
370
-3
390
13
347
21
1001
AcAecLayerStandard
1000

1000
Note panels
  0
LAYER
  5
96
330
1
100
AcDbSymbolTableRecord
100
AcDbLayerTableRecord
  2
S-CALLOUT
 70
0
 62
2
  6
Continuous
370
-3
390
13
347
21
1001
AcAecLayerStandard
1000

1000
Bar-mark balloons and leaders
  0
LAYER
  5
97
330
1
100
AcDbSymbolTableRecord
100
AcDbLayerTableRecord
  2
S-SECTION
 70
0
 62
1
  6
Continuous
370
-3
390
13
347
21
1001
AcAecLayerStandard
1000

1000
Section and detail markers
  0
LAYER
  5
98
330
1
100
AcDbSymbolTableRecord
100
AcDbLayerTableRecord
  2
S-GRID
 70
0
 62
5
  6
Continuous
370
-3
390
13
347
21
1001
AcAecLayerStandard
1000

1000
Grid lines and bubbles
  0
LAYER
  5
99
330
1
100
AcDbSymbolTableRecord
100
AcDbLayerTableRecord
  2
S-CENTER
 70
0
 62
6
  6
Continuous
370
-3
390
13
347
21
1001
AcAecLayerStandard
1000

1000
Centrelines
  0
LAYER
  5
9A
330
1
100
AcDbSymbolTableRecord
100
AcDbLayerTableRecord
  2
S-HATCH
 70
0
 62
8
  6
Continuous
370
-3
390
13
347
21
1001
AcAecLayerStandard
1000

1000
Section hatch
  0
LAYER
  5
9B
330
1
100
AcDbSymbolTableRecord
100
AcDbLayerTableRecord
  2
S-TITLE
 70
0
 62
7
  6
Continuous
370
-3
390
13
347
21
1001
AcAecLayerStandard
1000

1000
Border, title block, view titles
  0
LAYER
  5
9C
330
1
100
AcDbSymbolTableRecord
100
AcDbLayerTableRecord
  2
S-EXISTING
 70
0
 62
8
  6
Continuous
370
-3
390
13
347
21
1001
AcAecLayerStandard
1000

1000
Soil, rock, berm, cover layers
  0
LAYER
  5
9D
330
1
100
AcDbSymbolTableRecord
100
AcDbLayerTableRecord
  2
S-REFERENCE
 70
0
 62
8
  6
Continuous
370
-3
390
13
347
21
1001
AcAecLayerStandard
1000

1000
Reference geometry, extents
  0
LAYER
  5
9E
330
1
100
AcDbSymbolTableRecord
100
AcDbLayerTableRecord
  2
S-WATERPROOF
 70
0
 62
30
  6
Continuous
370
-3
390
13
347
21
1001
AcAecLayerStandard
1000

1000
Membranes, waterstops, GWT
  0
LAYER
  5
9F
330
1
100
AcDbSymbolTableRecord
100
AcDbLayerTableRecord
  2
S-STEELWORK
 70
0
 62
2
  6
Continuous
370
-3
390
13
347
21
1001
AcAecLayerStandard
1000

1000
Cast-in frames, EMP straps, steel items
  0
LAYER
  5
A0
330
1
100
AcDbSymbolTableRecord
100
AcDbLayerTableRecord
  2
S-LEVEL
 70
0
 62
4
  6
Continuous
370
-3
390
13
347
21
1001
AcAecLayerStandard
1000

1000
Level markers
  0
LAYER
  5
A1
330
1
100
AcDbSymbolTableRecord
100
AcDbLayerTableRecord
  2
S-TABLE
 70
0
 62
7
  6
Continuous
370
-3
390
13
347
21
1001
AcAecLayerStandard
1000

1000
Tables and schedules
  0
LAYER
  5
A2
330
1
100
AcDbSymbolTableRecord
100
AcDbLayerTableRecord
  2
S-BLAST
 70
0
 62
1
  6
Continuous
370
-3
390
13
347
21
1001
AcAecLayerStandard
1000

1000
Blast arrows, findings, warnings
  0
LAYER
  5
B9
330
1
100
AcDbSymbolTableRecord
100
AcDbLayerTableRecord
  2
M-ARCH
 70
0
 62
8
  6
Continuous
370
-3
390
13
347
21
1001
AcAecLayerStandard
1000

1000
Architectural background, walls and slabs
  0
LAYER
  5
BA
330
1
100
AcDbSymbolTableRecord
100
AcDbLayerTableRecord
  2
M-ARCH-HIDDEN
 70
0
 62
8
  6
Continuous
370
-3
390
13
347
21
1001
AcAecLayerStandard
1000

1000
Structure and features beyond
  0
LAYER
  5
BB
330
1
100
AcDbSymbolTableRecord
100
AcDbLayerTableRecord
  2
M-STRUCT
 70
0
 62
7
  6
Continuous
370
-3
390
13
347
21
1001
AcAecLayerStandard
1000

1000
Structure cut by the view
  0
LAYER
  5
BC
330
1
100
AcDbSymbolTableRecord
100
AcDbLayerTableRecord
  2
M-GRID
 70
0
 62
5
  6
Continuous
370
-3
390
13
347
21
1001
AcAecLayerStandard
1000

1000
Grid and bay reference lines
  0
LAYER
  5
BD
330
1
100
AcDbSymbolTableRecord
100
AcDbLayerTableRecord
  2
P-DRAIN-SOIL
 70
0
 62
1
  6
Continuous
370
-3
390
13
347
21
1001
AcAecLayerStandard
1000

1000
Soil drainage - foul
  0
LAYER
  5
BE
330
1
100
AcDbSymbolTableRecord
100
AcDbLayerTableRecord
  2
P-DRAIN-WASTE
 70
0
 62
3
  6
Continuous
370
-3
390
13
347
21
1001
AcAecLayerStandard
1000

1000
Waste drainage - wastewater
  0
LAYER
  5
BF
330
1
100
AcDbSymbolTableRecord
100
AcDbLayerTableRecord
  2
P-DRAIN-STORM
 70
0
 62
5
  6
Continuous
370
-3
390
13
347
21
1001
AcAecLayerStandard
1000

1000
Storm and surface water
  0
LAYER
  5
C0
330
1
100
AcDbSymbolTableRecord
100
AcDbLayerTableRecord
  2
P-DRAIN-SEEP
 70
0
 62
4
  6
Continuous
370
-3
390
13
347
21
1001
AcAecLayerStandard
1000

1000
Groundwater, seepage and subsoil drainage
  0
LAYER
  5
C1
330
1
100
AcDbSymbolTableRecord
100
AcDbLayerTableRecord
  2
P-DRAIN-EFF
 70
0
 62
6
  6
Continuous
370
-3
390
13
347
21
1001
AcAecLayerStandard
1000

1000
Decon effluent - contaminated, segregated
  0
LAYER
  5
C2
330
1
100
AcDbSymbolTableRecord
100
AcDbLayerTableRecord
  2
P-DRAIN-RISING
 70
0
 62
2
  6
Continuous
370
-3
390
13
347
21
1001
AcAecLayerStandard
1000

1000
Pumped rising main
  0
LAYER
  5
C3
330
1
100
AcDbSymbolTableRecord
100
AcDbLayerTableRecord
  2
P-DRAIN-VENT
 70
0
 62
8
  6
Continuous
370
-3
390
13
347
21
1001
AcAecLayerStandard
1000

1000
Drainage ventilation
  0
LAYER
  5
C4
330
1
100
AcDbSymbolTableRecord
100
AcDbLayerTableRecord
  2
P-EQUIP
 70
0
 62
2
  6
Continuous
370
-3
390
13
347
21
1001
AcAecLayerStandard
1000

1000
Pumps, tanks, chambers, plant
  0
LAYER
  5
C5
330
1
100
AcDbSymbolTableRecord
100
AcDbLayerTableRecord
  2
P-FLOW
 70
0
 62
1
  6
Continuous
370
-3
390
13
347
21
1001
AcAecLayerStandard
1000

1000
Flow arrows and direction
  0
LAYER
  5
C6
330
1
100
AcDbSymbolTableRecord
100
AcDbLayerTableRecord
  2
M-DUCT-SUPPLY
 70
0
 62
5
  6
Continuous
370
-3
390
13
347
21
1001
AcAecLayerStandard
1000

1000
Supply air ductwork
  0
LAYER
  5
C7
330
1
100
AcDbSymbolTableRecord
100
AcDbLayerTableRecord
  2
M-DUCT-RETURN
 70
0
 62
3
  6
Continuous
370
-3
390
13
347
21
1001
AcAecLayerStandard
1000

1000
Return air ductwork
  0
LAYER
  5
C8
330
1
100
AcDbSymbolTableRecord
100
AcDbLayerTableRecord
  2
M-DUCT-FRESH
 70
0
 62
4
  6
Continuous
370
-3
390
13
347
21
1001
AcAecLayerStandard
1000

1000
Fresh air ductwork
  0
LAYER
  5
C9
330
1
100
AcDbSymbolTableRecord
100
AcDbLayerTableRecord
  2
M-DUCT-EXH
 70
0
 62
1
  6
Continuous
370
-3
390
13
347
21
1001
AcAecLayerStandard
1000

1000
Exhaust air ductwork
  0
LAYER
  5
CA
330
1
100
AcDbSymbolTableRecord
100
AcDbLayerTableRecord
  2
M-DUCT-CL
 70
0
 62
8
  6
Continuous
370
-3
390
13
347
21
1001
AcAecLayerStandard
1000

1000
Duct centrelines
  0
LAYER
  5
CB
330
1
100
AcDbSymbolTableRecord
100
AcDbLayerTableRecord
  2
M-TERMINAL
 70
0
 62
2
  6
Continuous
370
-3
390
13
347
21
1001
AcAecLayerStandard
1000

1000
Diffusers, grilles and terminals
  0
LAYER
  5
CC
330
1
100
AcDbSymbolTableRecord
100
AcDbLayerTableRecord
  2
M-EQUIP
 70
0
 62
2
  6
Continuous
370
-3
390
13
347
21
1001
AcAecLayerStandard
1000

1000
HVAC plant and equipment
  0
LAYER
  5
CD
330
1
100
AcDbSymbolTableRecord
100
AcDbLayerTableRecord
  2
M-DAMPER
 70
0
 62
6
  6
Continuous
370
-3
390
13
347
21
1001
AcAecLayerStandard
1000

1000
Dampers, valves and isolation devices
  0
LAYER
  5
CE
330
1
100
AcDbSymbolTableRecord
100
AcDbLayerTableRecord
  2
M-AIRFLOW
 70
0
 62
1
  6
Continuous
370
-3
390
13
347
21
1001
AcAecLayerStandard
1000

1000
Airflow arrows and quantities
  0
LAYER
  5
CF
330
1
100
AcDbSymbolTableRecord
100
AcDbLayerTableRecord
  2
A-FIN-FLOOR
 70
0
 62
4
  6
Continuous
370
-3
390
13
347
21
1001
AcAecLayerStandard
1000

1000
Floor finish zones and tags
  0
LAYER
  5
D0
330
1
100
AcDbSymbolTableRecord
100
AcDbLayerTableRecord
  2
A-FIN-WALL
 70
0
 62
3
  6
Continuous
370
-3
390
13
347
21
1001
AcAecLayerStandard
1000

1000
Wall finish zones and tags
  0
LAYER
  5
D1
330
1
100
AcDbSymbolTableRecord
100
AcDbLayerTableRecord
  2
A-FIN-CEIL
 70
0
 62
5
  6
Continuous
370
-3
390
13
347
21
1001
AcAecLayerStandard
1000

1000
Ceiling and soffit finish tags
  0
LAYER
  5
D2
330
1
100
AcDbSymbolTableRecord
100
AcDbLayerTableRecord
  2
A-FIN-WET
 70
0
 62
30
  6
Continuous
370
-3
390
13
347
21
1001
AcAecLayerStandard
1000

1000
Wet areas, tanking and falls
  0
LAYER
  5
D3
330
1
100
AcDbSymbolTableRecord
100
AcDbLayerTableRecord
  2
A-FIN-TAG
 70
0
 62
7
  6
Continuous
370
-3
390
13
347
21
1001
AcAecLayerStandard
1000

1000
Finish tag boxes and leaders
  0
LAYER
  5
D4
330
1
100
AcDbSymbolTableRecord
100
AcDbLayerTableRecord
  2
M-WATERPROOF
 70
0
 62
30
  6
Continuous
370
-3
390
13
347
21
1001
AcAecLayerStandard
1000

1000
Membranes, waterstops, tanking
  0
LAYER
  5
D5
330
1
100
AcDbSymbolTableRecord
100
AcDbLayerTableRecord
  2
M-LEVEL
 70
0
 62
4
  6
Continuous
370
-3
390
13
347
21
1001
AcAecLayerStandard
1000

1000
Level and invert markers
  0
LAYER
  5
D6
330
1
100
AcDbSymbolTableRecord
100
AcDbLayerTableRecord
  2
M-DIM
 70
0
 62
4
  6
Continuous
370
-3
390
13
347
21
1001
AcAecLayerStandard
1000

1000
Dimensions
  0
LAYER
  5
D7
330
1
100
AcDbSymbolTableRecord
100
AcDbLayerTableRecord
  2
M-TEXT
 70
0
 62
7
  6
Continuous
370
-3
390
13
347
21
1001
AcAecLayerStandard
1000

1000
General annotation
  0
LAYER
  5
D8
330
1
100
AcDbSymbolTableRecord
100
AcDbLayerTableRecord
  2
M-NOTE
 70
0
 62
7
  6
Continuous
370
-3
390
13
347
21
1001
AcAecLayerStandard
1000

1000
Note panels
  0
LAYER
  5
D9
330
1
100
AcDbSymbolTableRecord
100
AcDbLayerTableRecord
  2
M-TABLE
 70
0
 62
7
  6
Continuous
370
-3
390
13
347
21
1001
AcAecLayerStandard
1000

1000
Tables and schedules
  0
LAYER
  5
DA
330
1
100
AcDbSymbolTableRecord
100
AcDbLayerTableRecord
  2
M-CALLOUT
 70
0
 62
2
  6
Continuous
370
-3
390
13
347
21
1001
AcAecLayerStandard
1000

1000
Tags, balloons and leaders
  0
LAYER
  5
DB
330
1
100
AcDbSymbolTableRecord
100
AcDbLayerTableRecord
  2
M-SECTION
 70
0
 62
1
  6
Continuous
370
-3
390
13
347
21
1001
AcAecLayerStandard
1000

1000
Section and detail markers
  0
LAYER
  5
DC
330
1
100
AcDbSymbolTableRecord
100
AcDbLayerTableRecord
  2
M-TITLE
 70
0
 62
7
  6
Continuous
370
-3
390
13
347
21
1001
AcAecLayerStandard
1000

1000
Border, title block, view titles
  0
LAYER
  5
DD
330
1
100
AcDbSymbolTableRecord
100
AcDbLayerTableRecord
  2
M-HATCH
 70
0
 62
8
  6
Continuous
370
-3
390
13
347
21
1001
AcAecLayerStandard
1000

1000
Hatching
  0
LAYER
  5
DE
330
1
100
AcDbSymbolTableRecord
100
AcDbLayerTableRecord
  2
M-EXISTING
 70
0
 62
8
  6
Continuous
370
-3
390
13
347
21
1001
AcAecLayerStandard
1000

1000
Soil, rock, berm, cover
  0
LAYER
  5
DF
330
1
100
AcDbSymbolTableRecord
100
AcDbLayerTableRecord
  2
M-FLAG
 70
0
 62
1
  6
Continuous
370
-3
390
13
347
21
1001
AcAecLayerStandard
1000

1000
Open items, data-required flags, warnings
  0
LAYER
  5
120
330
1
100
AcDbSymbolTableRecord
100
AcDbLayerTableRecord
  2
G-TOPSOIL
 70
0
 62
30
  6
Continuous
370
-3
390
13
347
21
1001
AcAecLayerStandard
1000

1000
Black cotton soil - CH, very high swell
  0
LAYER
  5
121
330
1
100
AcDbSymbolTableRecord
100
AcDbLayerTableRecord
  2
G-MURRUM
 70
0
 62
42
  6
Continuous
370
-3
390
13
347
21
1001
AcAecLayerStandard
1000

1000
Murrum - GM / GP / SC
  0
LAYER
  5
122
330
1
100
AcDbSymbolTableRecord
100
AcDbLayerTableRecord
  2
G-BROKEN
 70
0
 62
33
  6
Continuous
370
-3
390
13
347
21
1001
AcAecLayerStandard
1000

1000
Disintegrated broken basalt
  0
LAYER
  5
123
330
1
100
AcDbSymbolTableRecord
100
AcDbLayerTableRecord
  2
G-ROCK
 70
0
 62
8
  6
Continuous
370
-3
390
13
347
21
1001
AcAecLayerStandard
1000

1000
Sound basalt
  0
LAYER
  5
124
330
1
100
AcDbSymbolTableRecord
100
AcDbLayerTableRecord
  2
G-NODATA
 70
0
 62
1
  6
Continuous
370
-3
390
13
347
21
1001
AcAecLayerStandard
1000

1000
BELOW THE INVESTIGATION - NO DATA EXISTS
  0
LAYER
  5
125
330
1
100
AcDbSymbolTableRecord
100
AcDbLayerTableRecord
  2
G-WATER
 70
0
 62
4
  6
Continuous
370
-3
390
13
347
21
1001
AcAecLayerStandard
1000

1000
Design groundwater table - ASSUMED
  0
LAYER
  5
126
330
1
100
AcDbSymbolTableRecord
100
AcDbLayerTableRecord
  2
G-STRUCT
 70
0
 62
7
  6
Continuous
370
-3
390
13
347
21
1001
AcAecLayerStandard
1000

1000
Structure, for comparison only
  0
LAYER
  5
127
330
1
100
AcDbSymbolTableRecord
100
AcDbLayerTableRecord
  2
G-LOG
 70
0
 62
7
  6
Continuous
370
-3
390
13
347
21
1001
AcAecLayerStandard
1000

1000
Trial pit log outline
  0
LAYER
  5
128
330
1
100
AcDbSymbolTableRecord
100
AcDbLayerTableRecord
  2
G-SETTING
 70
0
 62
5
  6
Continuous
370
-3
390
13
347
21
1001
AcAecLayerStandard
1000

1000
Site setting diagram - NOT a site plan
  0
LAYER
  5
129
330
1
100
AcDbSymbolTableRecord
100
AcDbLayerTableRecord
  2
G-FLAGG
 70
0
 62
1
  6
Continuous
370
-3
390
13
347
21
1001
AcAecLayerStandard
1000

1000
Open items and findings
  0
ENDTAB
  0
TABLE
  2
STYLE
  5
5
330
0
100
AcDbSymbolTable
 70
26
  0
STYLE
  5
29
330
5
100
AcDbSymbolTableRecord
100
AcDbTextStyleTableRecord
  2
Standard
 70
0
 40
0.0
 41
1.0
 50
0.0
 71
0
 42
2.5
  3
txt
  4

  0
STYLE
  5
41
330
5
100
AcDbSymbolTableRecord
100
AcDbTextStyleTableRecord
  2
OpenSans-Light
 70
0
 40
0.0
 41
1.0
 50
0.0
 71
0
 42
2.5
  3
OpenSans-Light.ttf
  4

  0
STYLE
  5
42
330
5
100
AcDbSymbolTableRecord
100
AcDbTextStyleTableRecord
  2
OpenSans-Light-Italic
 70
0
 40
0.0
 41
1.0
 50
0.0
 71
0
 42
2.5
  3
OpenSans-LightItalic.ttf
  4

  0
STYLE
  5
43
330
5
100
AcDbSymbolTableRecord
100
AcDbTextStyleTableRecord
  2
OpenSans
 70
0
 40
0.0
 41
1.0
 50
0.0
 71
0
 42
2.5
  3
OpenSans-Regular.ttf
  4

  0
STYLE
  5
44
330
5
100
AcDbSymbolTableRecord
100
AcDbTextStyleTableRecord
  2
OpenSans-Italic
 70
0
 40
0.0
 41
1.0
 50
0.0
 71
0
 42
2.5
  3
OpenSans-Italic.ttf
  4

  0
STYLE
  5
45
330
5
100
AcDbSymbolTableRecord
100
AcDbTextStyleTableRecord
  2
OpenSans-SemiBold
 70
0
 40
0.0
 41
1.0
 50
0.0
 71
0
 42
2.5
  3
OpenSans-SemiBold.ttf
  4

  0
STYLE
  5
46
330
5
100
AcDbSymbolTableRecord
100
AcDbTextStyleTableRecord
  2
OpenSans-SemiBoldItalic
 70
0
 40
0.0
 41
1.0
 50
0.0
 71
0
 42
2.5
  3
OpenSans-SemiBoldItalic.ttf
  4

  0
STYLE
  5
47
330
5
100
AcDbSymbolTableRecord
100
AcDbTextStyleTableRecord
  2
OpenSans-Bold
 70
0
 40
0.0
 41
1.0
 50
0.0
 71
0
 42
2.5
  3
OpenSans-Bold.ttf
  4

  0
STYLE
  5
48
330
5
100
AcDbSymbolTableRecord
100
AcDbTextStyleTableRecord
  2
OpenSans-BoldItalic
 70
0
 40
0.0
 41
1.0
 50
0.0
 71
0
 42
2.5
  3
OpenSans-BoldItalic.ttf
  4

  0
STYLE
  5
49
330
5
100
AcDbSymbolTableRecord
100
AcDbTextStyleTableRecord
  2
OpenSans-ExtraBold
 70
0
 40
0.0
 41
1.0
 50
0.0
 71
0
 42
2.5
  3
OpenSans-ExtraBold.ttf
  4

  0
STYLE
  5
4A
330
5
100
AcDbSymbolTableRecord
100
AcDbTextStyleTableRecord
  2
OpenSans-ExtraBoldItalic
 70
0
 40
0.0
 41
1.0
 50
0.0
 71
0
 42
2.5
  3
OpenSans-ExtraBoldItalic.ttf
  4

  0
STYLE
  5
4B
330
5
100
AcDbSymbolTableRecord
100
AcDbTextStyleTableRecord
  2
OpenSansCondensed-Bold
 70
0
 40
0.0
 41
1.0
 50
0.0
 71
0
 42
2.5
  3
OpenSansCondensed-Bold.ttf
  4

  0
STYLE
  5
4C
330
5
100
AcDbSymbolTableRecord
100
AcDbTextStyleTableRecord
  2
OpenSansCondensed-Light
 70
0
 40
0.0
 41
1.0
 50
0.0
 71
0
 42
2.5
  3
OpenSansCondensed-Light.ttf
  4

  0
STYLE
  5
4D
330
5
100
AcDbSymbolTableRecord
100
AcDbTextStyleTableRecord
  2
OpenSansCondensed-Italic
 70
0
 40
0.0
 41
1.0
 50
0.0
 71
0
 42
2.5
  3
OpenSansCondensed-LightItalic.ttf
  4

  0
STYLE
  5
4E
330
5
100
AcDbSymbolTableRecord
100
AcDbTextStyleTableRecord
  2
LiberationSans
 70
0
 40
0.0
 41
1.0
 50
0.0
 71
0
 42
2.5
  3
LiberationSans-Regular.ttf
  4

  0
STYLE
  5
4F
330
5
100
AcDbSymbolTableRecord
100
AcDbTextStyleTableRecord
  2
LiberationSans-Bold
 70
0
 40
0.0
 41
1.0
 50
0.0
 71
0
 42
2.5
  3
LiberationSans-Bold.ttf
  4

  0
STYLE
  5
50
330
5
100
AcDbSymbolTableRecord
100
AcDbTextStyleTableRecord
  2
LiberationSans-BoldItalic
 70
0
 40
0.0
 41
1.0
 50
0.0
 71
0
 42
2.5
  3
LiberationSans-BoldItalic.ttf
  4

  0
STYLE
  5
51
330
5
100
AcDbSymbolTableRecord
100
AcDbTextStyleTableRecord
  2
LiberationSans-Italic
 70
0
 40
0.0
 41
1.0
 50
0.0
 71
0
 42
2.5
  3
LiberationSans-Italic.ttf
  4

  0
STYLE
  5
52
330
5
100
AcDbSymbolTableRecord
100
AcDbTextStyleTableRecord
  2
LiberationSerif
 70
0
 40
0.0
 41
1.0
 50
0.0
 71
0
 42
2.5
  3
LiberationSerif-Regular.ttf
  4

  0
STYLE
  5
53
330
5
100
AcDbSymbolTableRecord
100
AcDbTextStyleTableRecord
  2
LiberationSerif-Bold
 70
0
 40
0.0
 41
1.0
 50
0.0
 71
0
 42
2.5
  3
LiberationSerif-Bold.ttf
  4

  0
STYLE
  5
54
330
5
100
AcDbSymbolTableRecord
100
AcDbTextStyleTableRecord
  2
LiberationSerif-BoldItalic
 70
0
 40
0.0
 41
1.0
 50
0.0
 71
0
 42
2.5
  3
LiberationSerif-BoldItalic.ttf
  4

  0
STYLE
  5
55
330
5
100
AcDbSymbolTableRecord
100
AcDbTextStyleTableRecord
  2
LiberationSerif-Italic
 70
0
 40
0.0
 41
1.0
 50
0.0
 71
0
 42
2.5
  3
LiberationSerif-Italic.ttf
  4

  0
STYLE
  5
56
330
5
100
AcDbSymbolTableRecord
100
AcDbTextStyleTableRecord
  2
LiberationMono
 70
0
 40
0.0
 41
1.0
 50
0.0
 71
0
 42
2.5
  3
LiberationMono-Regular.ttf
  4

  0
STYLE
  5
57
330
5
100
AcDbSymbolTableRecord
100
AcDbTextStyleTableRecord
  2
LiberationMono-Bold
 70
0
 40
0.0
 41
1.0
 50
0.0
 71
0
 42
2.5
  3
LiberationMono-Bold.ttf
  4

  0
STYLE
  5
58
330
5
100
AcDbSymbolTableRecord
100
AcDbTextStyleTableRecord
  2
LiberationMono-BoldItalic
 70
0
 40
0.0
 41
1.0
 50
0.0
 71
0
 42
2.5
  3
LiberationMono-BoldItalic.ttf
  4

  0
STYLE
  5
59
330
5
100
AcDbSymbolTableRecord
100
AcDbTextStyleTableRecord
  2
LiberationMono-Italic
 70
0
 40
0.0
 41
1.0
 50
0.0
 71
0
 42
2.5
  3
LiberationMono-Italic.ttf
  4

  0
ENDTAB
  0
TABLE
  2
VIEW
  5
7
330
0
100
AcDbSymbolTable
 70
0
  0
ENDTAB
  0
TABLE
  2
UCS
  5
6
330
0
100
AcDbSymbolTable
 70
0
  0
ENDTAB
  0
TABLE
  2
APPID
  5
3
330
0
100
AcDbSymbolTable
 70
4
  0
APPID
  5
2A
330
3
100
AcDbSymbolTableRecord
100
AcDbRegAppTableRecord
  2
ACAD
 70
0
  0
APPID
  5
8B
330
3
100
AcDbSymbolTableRecord
100
AcDbRegAppTableRecord
  2
AcAecLayerStandard
 70
0
  0
APPID
  5
34F
330
3
100
AcDbSymbolTableRecord
100
AcDbRegAppTableRecord
  2
HATCHBACKGROUNDCOLOR
 70
0
  0
APPID
  5
350
330
3
100
AcDbSymbolTableRecord
100
AcDbRegAppTableRecord
  2
EZDXF
 70
0
  0
ENDTAB
  0
TABLE
  2
DIMSTYLE
  5
4
330
0
100
AcDbSymbolTable
 70
14
100
AcDbDimStyleTable
  0
DIMSTYLE
105
2B
330
4
100
AcDbSymbolTableRecord
100
AcDbDimStyleTableRecord
  2
Standard
 70
0
 40
1.0
 41
2.5
 42
0.625
 43
3.75
 44
1.25
 45
0.0
 46
0.0
 47
0.0
 48
0.0
 49
2.5
140
2.5
141
2.5
142
0.0
143
0.03937007874
144
1.0
145
0.0
146
1.0
147
0.625
148
0.0
 69
0
 70
0
 71
0
 72
0
 73
0
 74
0
 75
0
 76
0
 77
1
 78
8
 79
3
170
0
171
3
172
1
173
0
174
0
175
0
176
0
177
0
178
0
179
2
271
2
272
2
273
2
274
3
275
0
276
0
277
2
278
44
279
0
280
0
281
0
282
0
283
0
284
8
285
0
286
0
288
0
289
3
290
0
371
-2
372
-2
  0
DIMSTYLE
105
73
330
4
100
AcDbSymbolTableRecord
100
AcDbDimStyleTableRecord
  2
EZDXF
 70
0
 40
1.0
 41
0.175
 42
0.125
 43
3.75
 44
0.375
 45
0.0
 46
0.0
 47
0.0
 48
0.0
 49
2.5
140
0.25
141
2.5
142
0.0
143
0.03937007874
144
100.0
145
0.0
146
0.5
147
0.1
148
0.0
 69
0
 70
0
 71
0
 72
0
 73
0
 74
0
 75
0
 76
0
 77
1
 78
12
 79
3
170
0
171
3
172
1
173
0
174
0
175
0
176
0
177
0
178
0
179
2
271
2
272
2
273
2
274
3
275
0
276
0
277
2
278
46
279
2
280
0
281
0
282
0
283
0
284
8
285
0
286
0
288
1
289
3
290
0
340
4C
342
74
371
-2
372
-2
  0
DIMSTYLE
105
7C
330
4
100
AcDbSymbolTableRecord
100
AcDbDimStyleTableRecord
  2
EZ_M_100_H25_CM
 70
0
 40
1.0
 41
0.25
 42
0.125
 43
3.75
 44
0.375
 45
0.0
 46
0.0
 47
0.0
 48
0.0
 49
2.5
140
0.25
141
2.5
142
0.125
143
0.03937007874
144
100.0
145
0.0
146
0.5
147
0.1
148
0.0
 69
0
 70
0
 71
0
 72
0
 73
0
 74
0
 75
0
 76
0
 77
1
 78
12
 79
3
170
0
171
3
172
1
173
0
174
0
175
0
176
0
177
0
178
0
179
2
271
2
272
2
273
2
274
3
275
0
276
0
277
2
278
46
279
2
280
0
281
0
282
0
283
0
284
8
285
0
286
0
288
1
289
3
290
0
340
4C
371
-2
372
-2
  0
DIMSTYLE
105
7D
330
4
100
AcDbSymbolTableRecord
100
AcDbDimStyleTableRecord
  2
EZ_M_50_H25_CM
 70
0
 40
1.0
 41
0.125
 42
0.0625
 43
3.75
 44
0.1875
 45
0.0
 46
0.0
 47
0.0
 48
0.0
 49
2.5
140
0.125
141
2.5
142
0.0625
143
0.03937007874
144
100.0
145
0.0
146
0.5
147
0.05
148
0.0
 69
0
 70
0
 71
0
 72
0
 73
0
 74
0
 75
0
 76
0
 77
1
 78
12
 79
3
170
0
171
3
172
1
173
0
174
0
175
0
176
0
177
0
178
0
179
2
271
2
272
2
273
2
274
3
275
0
276
0
277
2
278
46
279
2
280
0
281
0
282
0
283
0
284
8
285
0
286
0
288
1
289
3
290
0
340
4C
371
-2
372
-2
  0
DIMSTYLE
105
7E
330
4
100
AcDbSymbolTableRecord
100
AcDbDimStyleTableRecord
  2
EZ_M_25_H25_CM
 70
0
 40
1.0
 41
0.0625
 42
0.03125
 43
3.75
 44
0.09375
 45
0.0
 46
0.0
 47
0.0
 48
0.0
 49
2.5
140
0.0625
141
2.5
142
0.03125
143
0.03937007874
144
100.0
145
0.0
146
0.5
147
0.025
148
0.0
 69
0
 70
0
 71
0
 72
0
 73
0
 74
0
 75
0
 76
0
 77
1
 78
12
 79
3
170
0
171
3
172
1
173
0
174
0
175
0
176
0
177
0
178
0
179
2
271
2
272
2
273
2
274
3
275
0
276
0
277
2
278
46
279
2
280
0
281
0
282
0
283
0
284
8
285
0
286
0
288
1
289
3
290
0
340
4C
371
-2
372
-2
  0
DIMSTYLE
105
7F
330
4
100
AcDbSymbolTableRecord
100
AcDbDimStyleTableRecord
  2
EZ_M_20_H25_CM
 70
0
 40
1.0
 41
0.05
 42
0.025
 43
3.75
 44
0.07500000000000001
 45
0.0
 46
0.0
 47
0.0
 48
0.0
 49
2.5
140
0.05
141
2.5
142
0.025
143
0.03937007874
144
100.0
145
0.0
146
0.5
147
0.020000000000000004
148
0.0
 69
0
 70
0
 71
0
 72
0
 73
0
 74
0
 75
0
 76
0
 77
1
 78
12
 79
3
170
0
171
3
172
1
173
0
174
0
175
0
176
0
177
0
178
0
179
2
271
2
272
2
273
2
274
3
275
0
276
0
277
2
278
46
279
2
280
0
281
0
282
0
283
0
284
8
285
0
286
0
288
1
289
3
290
0
340
4C
371
-2
372
-2
  0
DIMSTYLE
105
80
330
4
100
AcDbSymbolTableRecord
100
AcDbDimStyleTableRecord
  2
EZ_M_10_H25_CM
 70
0
 40
1.0
 41
0.025
 42
0.0125
 43
3.75
 44
0.037500000000000006
 45
0.0
 46
0.0
 47
0.0
 48
0.0
 49
2.5
140
0.025
141
2.5
142
0.0125
143
0.03937007874
144
100.0
145
0.0
146
0.5
147
0.010000000000000002
148
0.0
 69
0
 70
0
 71
0
 72
0
 73
0
 74
0
 75
0
 76
0
 77
1
 78
12
 79
3
170
0
171
3
172
1
173
0
174
0
175
0
176
0
177
0
178
0
179
2
271
2
272
2
273
2
274
3
275
0
276
0
277
2
278
46
279
2
280
0
281
0
282
0
283
0
284
8
285
0
286
0
288
1
289
3
290
0
340
4C
371
-2
372
-2
  0
DIMSTYLE
105
81
330
4
100
AcDbSymbolTableRecord
100
AcDbDimStyleTableRecord
  2
EZ_M_5_H25_CM
 70
0
 40
1.0
 41
0.0125
 42
0.00625
 43
3.75
 44
0.018750000000000003
 45
0.0
 46
0.0
 47
0.0
 48
0.0
 49
2.5
140
0.0125
141
2.5
142
0.00625
143
0.03937007874
144
100.0
145
0.0
146
0.5
147
0.005000000000000001
148
0.0
 69
0
 70
0
 71
0
 72
0
 73
0
 74
0
 75
0
 76
0
 77
1
 78
12
 79
3
170
0
171
3
172
1
173
0
174
0
175
0
176
0
177
0
178
0
179
2
271
2
272
2
273
2
274
3
275
0
276
0
277
2
278
46
279
2
280
0
281
0
282
0
283
0
284
8
285
0
286
0
288
1
289
3
290
0
340
4C
371
-2
372
-2
  0
DIMSTYLE
105
82
330
4
100
AcDbSymbolTableRecord
100
AcDbDimStyleTableRecord
  2
EZ_M_1_H25_CM
 70
0
 40
1.0
 41
0.0025
 42
0.00125
 43
3.75
 44
0.00375
 45
0.0
 46
0.0
 47
0.0
 48
0.0
 49
2.5
140
0.0025
141
2.5
142
0.00125
143
0.03937007874
144
100.0
145
0.0
146
0.5
147
0.001
148
0.0
 69
0
 70
0
 71
0
 72
0
 73
0
 74
0
 75
0
 76
0
 77
1
 78
12
 79
3
170
0
171
3
172
1
173
0
174
0
175
0
176
0
177
0
178
0
179
2
271
2
272
2
273
2
274
3
275
0
276
0
277
2
278
46
279
2
280
0
281
0
282
0
283
0
284
8
285
0
286
0
288
1
289
3
290
0
340
4C
371
-2
372
-2
  0
DIMSTYLE
105
83
330
4
100
AcDbSymbolTableRecord
100
AcDbDimStyleTableRecord
  2
EZ_RADIUS
 70
0
 40
1.0
 41
0.25
 42
0.125
 43
3.75
 44
0.375
 45
0.0
 46
0.0
 47
0.0
 48
0.0
 49
2.5
140
0.25
141
0.0
142
0.0
143
0.03937007874
144
100.0
145
0.0
146
0.5
147
0.1
148
0.0
 69
0
 70
0
 71
0
 72
0
 73
0
 74
0
 75
0
 76
0
 77
1
 78
12
 79
3
170
0
171
3
172
0
173
0
174
0
175
0
176
0
177
0
178
0
179
2
271
2
272
2
273
2
274
3
275
0
276
0
277
2
278
46
279
1
280
0
281
0
282
0
283
0
284
8
285
0
286
0
288
1
289
3
290
0
340
4C
342
84
371
-2
372
-2
  0
DIMSTYLE
105
88
330
4
100
AcDbSymbolTableRecord
100
AcDbDimStyleTableRecord
  2
EZ_RADIUS_INSIDE
 70
0
 40
1.0
 41
0.25
 42
0.125
 43
3.75
 44
0.375
 45
0.0
 46
0.0
 47
0.0
 48
0.0
 49
2.5
140
0.25
141
0.0
142
0.0
143
0.03937007874
144
100.0
145
0.0
146
0.5
147
0.1
148
0.0
 69
0
 70
0
 71
0
 72
0
 73
0
 74
0
 75
0
 76
0
 77
0
 78
12
 79
3
170
0
171
3
172
0
173
0
174
1
175
0
176
0
177
0
178
0
179
2
271
2
272
2
273
2
274
3
275
0
276
0
277
2
278
46
279
0
280
0
281
0
282
0
283
0
284
8
285
0
286
0
288
1
289
0
290
0
340
4C
342
84
371
-2
372
-2
  0
DIMSTYLE
105
89
330
4
100
AcDbSymbolTableRecord
100
AcDbDimStyleTableRecord
  2
EZ_CURVED
 70
0
 40
1.0
 41
0.25
 42
0.125
 43
3.75
 44
0.375
 45
0.0
 46
0.0
 47
0.0
 48
0.0
 49
2.5
140
0.25
141
2.5
142
0.0
143
0.03937007874
144
100.0
145
0.0
146
0.5
147
0.1
148
0.0
 69
0
 70
0
 71
0
 72
0
 73
0
 74
0
 75
0
 76
0
 77
1
 78
12
 79
2
 90
2
170
0
171
3
172
1
173
0
174
0
175
0
176
0
177
0
178
0
179
2
271
2
272
2
273
2
274
3
275
0
276
0
277
2
278
46
279
2
280
0
281
0
282
0
283
0
284
8
285
0
286
0
288
1
289
3
290
0
340
4C
371
-2
372
-2
  0
DIMSTYLE
105
A3
330
4
100
AcDbSymbolTableRecord
100
AcDbDimStyleTableRecord
  2
SC-DIM
 70
0
 40
1.0
 41
1.6
 42
1.0
 43
3.75
 44
1.2
 45
0.0
 46
0.0
 47
0.0
 48
0.0
 49
2.5
140
1.8
141
2.5
142
0.0
143
0.03937007874
144
1.0
145
0.0
146
1.0
147
0.8
148
0.0
 69
0
 70
0
 71
0
 72
0
 73
0
 74
0
 75
0
 76
0
 77
1
 78
8
 79
3
170
0
171
3
172
1
173
0
174
0
175
0
176
4
177
4
178
4
179
2
271
0
272
2
273
2
274
3
275
0
276
0
277
2
278
44
279
0
280
0
281
0
282
0
283
0
284
8
285
0
286
0
288
0
289
3
290
0
342
74
371
13
372
13
  0
DIMSTYLE
105
A4
330
4
100
AcDbSymbolTableRecord
100
AcDbDimStyleTableRecord
  2
SC-DIM-S
 70
0
 40
1.0
 41
1.2
 42
1.0
 43
3.75
 44
1.2
 45
0.0
 46
0.0
 47
0.0
 48
0.0
 49
2.5
140
1.4
141
2.5
142
0.0
143
0.03937007874
144
1.0
145
0.0
146
1.0
147
0.8
148
0.0
 69
0
 70
0
 71
0
 72
0
 73
0
 74
0
 75
0
 76
0
 77
1
 78
8
 79
3
170
0
171
3
172
1
173
0
174
0
175
0
176
4
177
4
178
4
179
2
271
0
272
2
273
2
274
3
275
0
276
0
277
2
278
44
279
0
280
0
281
0
282
0
283
0
284
8
285
0
286
0
288
0
289
3
290
0
342
74
371
13
372
13
  0
ENDTAB
  0
TABLE
  2
BLOCK_RECORD
  5
9
330
0
100
AcDbSymbolTable
 70
21
  0
BLOCK_RECORD
  5
17
330
9
100
AcDbSymbolTableRecord
100
AcDbBlockTableRecord
  2
*Model_Space
340
1A
 70
0
280
1
281
0
  0
BLOCK_RECORD
  5
1B
330
9
100
AcDbSymbolTableRecord
100
AcDbBlockTableRecord
  2
*Paper_Space
340
1E
 70
0
280
1
281
0
  0
BLOCK_RECORD
  5
74
330
9
100
AcDbSymbolTableRecord
100
AcDbBlockTableRecord
  2
_ARCHTICK
340
0
 70
0
280
1
281
0
  0
BLOCK_RECORD
  5
78
330
9
100
AcDbSymbolTableRecord
100
AcDbBlockTableRecord
  2
_CLOSEDFILLED
340
0
 70
0
280
1
281
0
  0
BLOCK_RECORD
  5
84
330
9
100
AcDbSymbolTableRecord
100
AcDbBlockTableRecord
  2
_CLOSEDBLANK
340
0
 70
0
280
1
281
0
  0
BLOCK_RECORD
  5
A5
330
9
100
AcDbSymbolTableRecord
100
AcDbBlockTableRecord
  2
BARMARK
340
0
 70
0
280
1
281
0
  0
BLOCK_RECORD
  5
A9
330
9
100
AcDbSymbolTableRecord
100
AcDbBlockTableRecord
  2
SECMARK
340
0
 70
0
280
1
281
0
  0
BLOCK_RECORD
  5
AE
330
9
100
AcDbSymbolTableRecord
100
AcDbBlockTableRecord
  2
LEVELMK
340
0
 70
0
280
1
281
0
  0
BLOCK_RECORD
  5
B2
330
9
100
AcDbSymbolTableRecord
100
AcDbBlockTableRecord
  2
NORTH
340
0
 70
0
280
1
281
0
  0
BLOCK_RECORD
  5
E0
330
9
100
AcDbSymbolTableRecord
100
AcDbBlockTableRecord
  2
GULLY
340
0
 70
0
280
1
281
0
  0
BLOCK_RECORD
  5
E6
330
9
100
AcDbSymbolTableRecord
100
AcDbBlockTableRecord
  2
CHAMBER
340
0
 70
0
280
1
281
0
  0
BLOCK_RECORD
  5
EB
330
9
100
AcDbSymbolTableRecord
100
AcDbBlockTableRecord
  2
PUMP
340
0
 70
0
280
1
281
0
  0
BLOCK_RECORD
  5
F0
330
9
100
AcDbSymbolTableRecord
100
AcDbBlockTableRecord
  2
CLEANOUT
340
0
 70
0
280
1
281
0
  0
BLOCK_RECORD
  5
F5
330
9
100
AcDbSymbolTableRecord
100
AcDbBlockTableRecord
  2
NRV
340
0
 70
0
280
1
281
0
  0
BLOCK_RECORD
  5
FA
330
9
100
AcDbSymbolTableRecord
100
AcDbBlockTableRecord
  2
VALVE
340
0
 70
0
280
1
281
0
  0
BLOCK_RECORD
  5
FF
330
9
100
AcDbSymbolTableRecord
100
AcDbBlockTableRecord
  2
DIFFUSER
340
0
 70
0
280
1
281
0
  0
BLOCK_RECORD
  5
108
330
9
100
AcDbSymbolTableRecord
100
AcDbBlockTableRecord
  2
GRILLE
340
0
 70
0
280
1
281
0
  0
BLOCK_RECORD
  5
10F
330
9
100
AcDbSymbolTableRecord
100
AcDbBlockTableRecord
  2
BVALVE
340
0
 70
0
280
1
281
0
  0
BLOCK_RECORD
  5
115
330
9
100
AcDbSymbolTableRecord
100
AcDbBlockTableRecord
  2
FANSYM
340
0
 70
0
280
1
281
0
  0
BLOCK_RECORD
  5
11A
330
9
100
AcDbSymbolTableRecord
100
AcDbBlockTableRecord
  2
FINTAG
340
0
 70
0
280
1
281
0
  0
BLOCK_RECORD
  5
2B9
330
9
100
AcDbSymbolTableRecord
100
AcDbBlockTableRecord
  2
*D1
340
0
 70
0
280
1
281
0
  0
ENDTAB
  0
ENDSEC
  0
SECTION
  2
BLOCKS
  0
BLOCK
  5
18
330
17
100
AcDbEntity
  8
0
100
AcDbBlockBegin
  2
*Model_Space
 70
0
 10
0.0
 20
0.0
 30
0.0
  3
*Model_Space
  1

  0
ENDBLK
  5
19
330
17
100
AcDbEntity
  8
0
100
AcDbBlockEnd
  0
BLOCK
  5
1C
330
1B
100
AcDbEntity
  8
0
100
AcDbBlockBegin
  2
*Paper_Space
 70
0
 10
0.0
 20
0.0
 30
0.0
  3
*Paper_Space
  1

  0
ENDBLK
  5
1D
330
1B
100
AcDbEntity
  8
0
100
AcDbBlockEnd
  0
BLOCK
  5
75
330
74
100
AcDbEntity
  8
0
100
AcDbBlockBegin
  2
_ARCHTICK
 70
0
 10
0.0
 20
0.0
 30
0.0
  3
_ARCHTICK
  1

  0
LWPOLYLINE
  5
77
330
74
100
AcDbEntity
  8
0
  6
BYBLOCK
 62
0
100
AcDbPolyline
 90
2
 70
0
 43
0.15
 10
-0.5
 20
-0.5
 10
0.5
 20
0.5
  0
ENDBLK
  5
76
330
74
100
AcDbEntity
  8
0
100
AcDbBlockEnd
  0
BLOCK
  5
79
330
78
100
AcDbEntity
  8
0
100
AcDbBlockBegin
  2
_CLOSEDFILLED
 70
0
 10
0.0
 20
0.0
 30
0.0
  3
_CLOSEDFILLED
  1

  0
SOLID
  5
7B
330
78
100
AcDbEntity
  8
0
  6
BYBLOCK
 62
0
100
AcDbTrace
 10
-1.0
 20
0.16439898372402537
 30
0.0
 11
0.0
 21
0.0
 31
0.0
 12
-1.0
 22
-0.16439898372402537
 32
0.0
 13
-1.0
 23
-0.16439898372402537
 33
0.0
  0
ENDBLK
  5
7A
330
78
100
AcDbEntity
  8
0
100
AcDbBlockEnd
  0
BLOCK
  5
85
330
84
100
AcDbEntity
  8
0
100
AcDbBlockBegin
  2
_CLOSEDBLANK
 70
0
 10
0.0
 20
0.0
 30
0.0
  3
_CLOSEDBLANK
  1

  0
LWPOLYLINE
  5
87
330
84
100
AcDbEntity
  8
0
  6
BYBLOCK
 62
0
100
AcDbPolyline
 90
3
 70
1
 10
-1.0
 20
0.16439898372402537
 10
0.0
 20
0.0
 10
-1.0
 20
-0.16439898372402537
  0
ENDBLK
  5
86
330
84
100
AcDbEntity
  8
0
100
AcDbBlockEnd
  0
BLOCK
  5
A6
330
A5
100
AcDbEntity
  8
0
100
AcDbBlockBegin
  2
BARMARK
 70
0
 10
0.0
 20
0.0
 30
0.0
  3
BARMARK
  1

  0
CIRCLE
  5
A8
330
A5
100
AcDbEntity
  8
S-CALLOUT
100
AcDbCircle
 10
0.0
 20
0.0
 30
0.0
 40
3.2
  0
ENDBLK
  5
A7
330
A5
100
AcDbEntity
  8
0
100
AcDbBlockEnd
  0
BLOCK
  5
AA
330
A9
100
AcDbEntity
  8
0
100
AcDbBlockBegin
  2
SECMARK
 70
0
 10
0.0
 20
0.0
 30
0.0
  3
SECMARK
  1

  0
CIRCLE
  5
AC
330
A9
100
AcDbEntity
  8
S-SECTION
100
AcDbCircle
 10
0.0
 20
0.0
 30
0.0
 40
4.0
  0
LINE
  5
AD
330
A9
100
AcDbEntity
  8
S-SECTION
100
AcDbLine
 10
-4.0
 20
0.0
 30
0.0
 11
4.0
 21
0.0
 31
0.0
  0
ENDBLK
  5
AB
330
A9
100
AcDbEntity
  8
0
100
AcDbBlockEnd
  0
BLOCK
  5
AF
330
AE
100
AcDbEntity
  8
0
100
AcDbBlockBegin
  2
LEVELMK
 70
0
 10
0.0
 20
0.0
 30
0.0
  3
LEVELMK
  1

  0
LWPOLYLINE
  5
B1
330
AE
100
AcDbEntity
  8
S-LEVEL
100
AcDbPolyline
 90
4
 70
1
 10
0.0
 20
0.0
 10
-2.0
 20
3.0
 10
2.0
 20
3.0
 10
0.0
 20
0.0
  0
ENDBLK
  5
B0
330
AE
100
AcDbEntity
  8
0
100
AcDbBlockEnd
  0
BLOCK
  5
B3
330
B2
100
AcDbEntity
  8
0
100
AcDbBlockBegin
  2
NORTH
 70
0
 10
0.0
 20
0.0
 30
0.0
  3
NORTH
  1

  0
LWPOLYLINE
  5
B5
330
B2
100
AcDbEntity
  8
S-TITLE
100
AcDbPolyline
 90
5
 70
1
 10
0.0
 20
10.0
 10
-3.2
 20
-6.0
 10
0.0
 20
-2.4
 10
3.2
 20
-6.0
 10
0.0
 20
10.0
  0
CIRCLE
  5
B6
330
B2
100
AcDbEntity
  8
S-TITLE
100
AcDbCircle
 10
0.0
 20
0.0
 30
0.0
 40
12.0
  0
ENDBLK
  5
B4
330
B2
100
AcDbEntity
  8
0
100
AcDbBlockEnd
  0
BLOCK
  5
E1
330
E0
100
AcDbEntity
  8
0
100
AcDbBlockBegin
  2
GULLY
 70
0
 10
0.0
 20
0.0
 30
0.0
  3
GULLY
  1

  0
LWPOLYLINE
  5
E3
330
E0
100
AcDbEntity
  8
P-EQUIP
100
AcDbPolyline
 90
4
 70
1
 10
-2.2
 20
-2.2
 10
2.2
 20
-2.2
 10
2.2
 20
2.2
 10
-2.2
 20
2.2
  0
LINE
  5
E4
330
E0
100
AcDbEntity
  8
P-EQUIP
100
AcDbLine
 10
-2.2
 20
-2.2
 30
0.0
 11
2.2
 21
2.2
 31
0.0
  0
LINE
  5
E5
330
E0
100
AcDbEntity
  8
P-EQUIP
100
AcDbLine
 10
-2.2
 20
2.2
 30
0.0
 11
2.2
 21
-2.2
 31
0.0
  0
ENDBLK
  5
E2
330
E0
100
AcDbEntity
  8
0
100
AcDbBlockEnd
  0
BLOCK
  5
E7
330
E6
100
AcDbEntity
  8
0
100
AcDbBlockBegin
  2
CHAMBER
 70
0
 10
0.0
 20
0.0
 30
0.0
  3
CHAMBER
  1

  0
LWPOLYLINE
  5
E9
330
E6
100
AcDbEntity
  8
P-EQUIP
100
AcDbPolyline
 90
4
 70
1
 10
-3.0
 20
-3.0
 10
3.0
 20
-3.0
 10
3.0
 20
3.0
 10
-3.0
 20
3.0
  0
CIRCLE
  5
EA
330
E6
100
AcDbEntity
  8
P-EQUIP
100
AcDbCircle
 10
0.0
 20
0.0
 30
0.0
 40
1.9
  0
ENDBLK
  5
E8
330
E6
100
AcDbEntity
  8
0
100
AcDbBlockEnd
  0
BLOCK
  5
EC
330
EB
100
AcDbEntity
  8
0
100
AcDbBlockBegin
  2
PUMP
 70
0
 10
0.0
 20
0.0
 30
0.0
  3
PUMP
  1

  0
CIRCLE
  5
EE
330
EB
100
AcDbEntity
  8
P-EQUIP
100
AcDbCircle
 10
0.0
 20
0.0
 30
0.0
 40
2.6
  0
LWPOLYLINE
  5
EF
330
EB
100
AcDbEntity
  8
P-EQUIP
100
AcDbPolyline
 90
3
 70
1
 10
-1.5
 20
-1.5
 10
1.9
 20
0.0
 10
-1.5
 20
1.5
  0
ENDBLK
  5
ED
330
EB
100
AcDbEntity
  8
0
100
AcDbBlockEnd
  0
BLOCK
  5
F1
330
F0
100
AcDbEntity
  8
0
100
AcDbBlockBegin
  2
CLEANOUT
 70
0
 10
0.0
 20
0.0
 30
0.0
  3
CLEANOUT
  1

  0
CIRCLE
  5
F3
330
F0
100
AcDbEntity
  8
P-EQUIP
100
AcDbCircle
 10
0.0
 20
0.0
 30
0.0
 40
1.6
  0
LINE
  5
F4
330
F0
100
AcDbEntity
  8
P-EQUIP
100
AcDbLine
 10
0.0
 20
-1.6
 30
0.0
 11
0.0
 21
1.6
 31
0.0
  0
ENDBLK
  5
F2
330
F0
100
AcDbEntity
  8
0
100
AcDbBlockEnd
  0
BLOCK
  5
F6
330
F5
100
AcDbEntity
  8
0
100
AcDbBlockBegin
  2
NRV
 70
0
 10
0.0
 20
0.0
 30
0.0
  3
NRV
  1

  0
LWPOLYLINE
  5
F8
330
F5
100
AcDbEntity
  8
M-DAMPER
100
AcDbPolyline
 90
3
 70
1
 10
-2.0
 20
-1.8
 10
-2.0
 20
1.8
 10
2.0
 20
0.0
  0
LINE
  5
F9
330
F5
100
AcDbEntity
  8
M-DAMPER
100
AcDbLine
 10
2.0
 20
-1.8
 30
0.0
 11
2.0
 21
1.8
 31
0.0
  0
ENDBLK
  5
F7
330
F5
100
AcDbEntity
  8
0
100
AcDbBlockEnd
  0
BLOCK
  5
FB
330
FA
100
AcDbEntity
  8
0
100
AcDbBlockBegin
  2
VALVE
 70
0
 10
0.0
 20
0.0
 30
0.0
  3
VALVE
  1

  0
LWPOLYLINE
  5
FD
330
FA
100
AcDbEntity
  8
M-DAMPER
100
AcDbPolyline
 90
3
 70
1
 10
-2.0
 20
-1.8
 10
-2.0
 20
1.8
 10
0.0
 20
0.0
  0
LWPOLYLINE
  5
FE
330
FA
100
AcDbEntity
  8
M-DAMPER
100
AcDbPolyline
 90
3
 70
1
 10
2.0
 20
-1.8
 10
2.0
 20
1.8
 10
0.0
 20
0.0
  0
ENDBLK
  5
FC
330
FA
100
AcDbEntity
  8
0
100
AcDbBlockEnd
  0
BLOCK
  5
100
330
FF
100
AcDbEntity
  8
0
100
AcDbBlockBegin
  2
DIFFUSER
 70
0
 10
0.0
 20
0.0
 30
0.0
  3
DIFFUSER
  1

  0
LWPOLYLINE
  5
102
330
FF
100
AcDbEntity
  8
M-TERMINAL
100
AcDbPolyline
 90
4
 70
1
 10
-4.0
 20
-4.0
 10
4.0
 20
-4.0
 10
4.0
 20
4.0
 10
-4.0
 20
4.0
  0
LWPOLYLINE
  5
103
330
FF
100
AcDbEntity
  8
M-TERMINAL
100
AcDbPolyline
 90
4
 70
1
 10
-2.4
 20
-2.4
 10
2.4
 20
-2.4
 10
2.4
 20
2.4
 10
-2.4
 20
2.4
  0
LINE
  5
104
330
FF
100
AcDbEntity
  8
M-TERMINAL
100
AcDbLine
 10
-4.0
 20
-4.0
 30
0.0
 11
-2.4
 21
-2.4
 31
0.0
  0
LINE
  5
105
330
FF
100
AcDbEntity
  8
M-TERMINAL
100
AcDbLine
 10
4.0
 20
-4.0
 30
0.0
 11
2.4
 21
-2.4
 31
0.0
  0
LINE
  5
106
330
FF
100
AcDbEntity
  8
M-TERMINAL
100
AcDbLine
 10
4.0
 20
4.0
 30
0.0
 11
2.4
 21
2.4
 31
0.0
  0
LINE
  5
107
330
FF
100
AcDbEntity
  8
M-TERMINAL
100
AcDbLine
 10
-4.0
 20
4.0
 30
0.0
 11
-2.4
 21
2.4
 31
0.0
  0
ENDBLK
  5
101
330
FF
100
AcDbEntity
  8
0
100
AcDbBlockEnd
  0
BLOCK
  5
109
330
108
100
AcDbEntity
  8
0
100
AcDbBlockBegin
  2
GRILLE
 70
0
 10
0.0
 20
0.0
 30
0.0
  3
GRILLE
  1

  0
LWPOLYLINE
  5
10B
330
108
100
AcDbEntity
  8
M-TERMINAL
100
AcDbPolyline
 90
4
 70
1
 10
-4.0
 20
-2.4
 10
4.0
 20
-2.4
 10
4.0
 20
2.4
 10
-4.0
 20
2.4
  0
LINE
  5
10C
330
108
100
AcDbEntity
  8
M-TERMINAL
100
AcDbLine
 10
-2.0
 20
-2.4
 30
0.0
 11
-2.0
 21
2.4
 31
0.0
  0
LINE
  5
10D
330
108
100
AcDbEntity
  8
M-TERMINAL
100
AcDbLine
 10
0.0
 20
-2.4
 30
0.0
 11
0.0
 21
2.4
 31
0.0
  0
LINE
  5
10E
330
108
100
AcDbEntity
  8
M-TERMINAL
100
AcDbLine
 10
2.0
 20
-2.4
 30
0.0
 11
2.0
 21
2.4
 31
0.0
  0
ENDBLK
  5
10A
330
108
100
AcDbEntity
  8
0
100
AcDbBlockEnd
  0
BLOCK
  5
110
330
10F
100
AcDbEntity
  8
0
100
AcDbBlockBegin
  2
BVALVE
 70
0
 10
0.0
 20
0.0
 30
0.0
  3
BVALVE
  1

  0
CIRCLE
  5
112
330
10F
100
AcDbEntity
  8
M-DAMPER
100
AcDbCircle
 10
0.0
 20
0.0
 30
0.0
 40
3.0
  0
LINE
  5
113
330
10F
100
AcDbEntity
  8
M-DAMPER
100
AcDbLine
 10
-3.0
 20
0.0
 30
0.0
 11
3.0
 21
0.0
 31
0.0
  0
LINE
  5
114
330
10F
100
AcDbEntity
  8
M-DAMPER
100
AcDbLine
 10
-2.1
 20
-2.1
 30
0.0
 11
2.1
 21
2.1
 31
0.0
  0
ENDBLK
  5
111
330
10F
100
AcDbEntity
  8
0
100
AcDbBlockEnd
  0
BLOCK
  5
116
330
115
100
AcDbEntity
  8
0
100
AcDbBlockBegin
  2
FANSYM
 70
0
 10
0.0
 20
0.0
 30
0.0
  3
FANSYM
  1

  0
CIRCLE
  5
118
330
115
100
AcDbEntity
  8
M-EQUIP
100
AcDbCircle
 10
0.0
 20
0.0
 30
0.0
 40
3.4
  0
LWPOLYLINE
  5
119
330
115
100
AcDbEntity
  8
M-EQUIP
100
AcDbPolyline
 90
3
 70
1
 10
-2.4
 20
-1.2
 10
2.4
 20
-1.2
 10
0.0
 20
2.6
  0
ENDBLK
  5
117
330
115
100
AcDbEntity
  8
0
100
AcDbBlockEnd
  0
BLOCK
  5
11B
330
11A
100
AcDbEntity
  8
0
100
AcDbBlockBegin
  2
FINTAG
 70
0
 10
0.0
 20
0.0
 30
0.0
  3
FINTAG
  1

  0
LWPOLYLINE
  5
11D
330
11A
100
AcDbEntity
  8
A-FIN-TAG
100
AcDbPolyline
 90
4
 70
1
 10
0.0
 20
0.0
 10
16.0
 20
0.0
 10
16.0
 20
5.0
 10
0.0
 20
5.0
  0
LINE
  5
11E
330
11A
100
AcDbEntity
  8
A-FIN-TAG
100
AcDbLine
 10
0.0
 20
2.5
 30
0.0
 11
16.0
 21
2.5
 31
0.0
  0
LINE
  5
11F
330
11A
100
AcDbEntity
  8
A-FIN-TAG
100
AcDbLine
 10
8.0
 20
0.0
 30
0.0
 11
8.0
 21
5.0
 31
0.0
  0
ENDBLK
  5
11C
330
11A
100
AcDbEntity
  8
0
100
AcDbBlockEnd
  0
BLOCK
  5
2BA
330
2B9
100
AcDbEntity
  8
0
100
AcDbBlockBegin
  2
*D1
 70
1
 10
0.0
 20
0.0
 30
0.0
  3
*D1
  1

  0
LINE
  5
2BC
330
2B9
100
AcDbEntity
  8
0
 62
4
370
13
100
AcDbLine
 10
387.0
 20
405.6666666666667
 30
0.0
 11
387.0
 21
399.4666666666667
 31
0.0
  0
LINE
  5
2BD
330
2B9
100
AcDbEntity
  8
0
 62
4
370
13
100
AcDbLine
 10
423.0
 20
405.6666666666667
 30
0.0
 11
423.0
 21
399.4666666666667
 31
0.0
  0
INSERT
  5
2BE
330
2B9
100
AcDbEntity
  8
S-DIM
 62
4
100
AcDbBlockReference
  2
_ARCHTICK
 10
387.0
 20
400.6666666666667
 30
0.0
 41
1.6
 42
1.6
 50
180.0
  0
INSERT
  5
2C0
330
2B9
100
AcDbEntity
  8
S-DIM
 62
4
100
AcDbBlockReference
  2
_ARCHTICK
 10
423.0
 20
400.6666666666667
 30
0.0
 41
1.6
 42
1.6
  0
LINE
  5
2C2
330
2B9
100
AcDbEntity
  8
0
 62
4
370
13
100
AcDbLine
 10
387.0
 20
400.6666666666667
 30
0.0
 11
423.0
 21
400.6666666666667
 31
0.0
  0
MTEXT
  5
2C3
330
2B9
100
AcDbEntity
  8
S-DIM
 62
4
100
AcDbMText
 10
405.0
 20
402.3666666666667
 30
0.0
 40
1.8
 71
5
  1
36
  7
OpenSansCondensed-Light
  0
POINT
  5
2C4
330
2B9
100
AcDbEntity
  8
Defpoints
100
AcDbPoint
 10
387.0
 20
400.6666666666667
 30
0.0
  0
POINT
  5
2C5
330
2B9
100
AcDbEntity
  8
Defpoints
100
AcDbPoint
 10
387.0
 20
406.6666666666667
 30
0.0
  0
POINT
  5
2C6
330
2B9
100
AcDbEntity
  8
Defpoints
100
AcDbPoint
 10
423.0
 20
406.6666666666667
 30
0.0
  0
ENDBLK
  5
2BB
330
2B9
100
AcDbEntity
  8
0
100
AcDbBlockEnd
  0
ENDSEC
  0
SECTION
  2
ENTITIES
  0
LWPOLYLINE
  5
B7
330
17
100
AcDbEntity
  8
S-TITLE
100
AcDbPolyline
 90
4
 70
1
 10
0.0
 20
0.0
 10
841.0
 20
0.0
 10
841.0
 20
594.0
 10
0.0
 20
594.0
  0
LWPOLYLINE
  5
B8
330
17
100
AcDbEntity
  8
S-TITLE
100
AcDbPolyline
 90
4
 70
1
 10
10.0
 20
10.0
 10
831.0
 20
10.0
 10
831.0
 20
584.0
 10
10.0
 20
584.0
  0
TEXT
  5
12A
330
17
100
AcDbEntity
  8
S-TITLE
100
AcDbText
 10
14.0
 20
512.0
 30
0.0
 40
3.5
  1
V1   SITE LAYOUT PLAN
  7
OpenSans
 11
14.0
 21
512.0
 31
0.0
100
AcDbText
  0
LINE
  5
12B
330
17
100
AcDbEntity
  8
S-TITLE
100
AcDbLine
 10
14.0
 20
510.2
 30
0.0
 11
69.96249162759545
 21
510.2
 31
0.0
  0
TEXT
  5
12C
330
17
100
AcDbEntity
  8
S-TEXT
100
AcDbText
 10
14.0
 20
504.8
 30
0.0
 40
2.0
  1
SCALE 1:150.  PROJECT COORDINATES, ORIGIN AT THE SW CORNER OF THE BOX.  +X = EAST, +Y = NORTH  [A] SG2.  NO SURVEYED BOUNDARY EXISTS - SEE THE RIGHT-HAND COLUMN
  7
OpenSans
 11
14.0
 21
504.8
 31
0.0
100
AcDbText
  0
LINE
  5
12D
330
17
100
AcDbEntity
  8
G-SETTING
100
AcDbLine
 10
37.0
 20
280.0
 30
0.0
 11
39.0
 21
280.0
 31
0.0
  0
LINE
  5
12E
330
17
100
AcDbEntity
  8
G-SETTING
100
AcDbLine
 10
40.6
 20
280.0
 30
0.0
 11
42.6
 21
280.0
 31
0.0
  0
LINE
  5
12F
330
17
100
AcDbEntity
  8
G-SETTING
100
AcDbLine
 10
44.2
 20
280.0
 30
0.0
 11
46.2
 21
280.0
 31
0.0
  0
LINE
  5
130
330
17
100
AcDbEntity
  8
G-SETTING
100
AcDbLine
 10
47.8
 20
280.0
 30
0.0
 11
49.8
 21
280.0
 31
0.0
  0
LINE
  5
131
330
17
100
AcDbEntity
  8
G-SETTING
100
AcDbLine
 10
51.4
 20
280.0
 30
0.0
 11
53.4
 21
280.0
 31
0.0
  0
LINE
  5
132
330
17
100
AcDbEntity
  8
G-SETTING
100
AcDbLine
 10
55.0
 20
280.0
 30
0.0
 11
57.0
 21
280.0
 31
0.0
  0
LINE
  5
133
330
17
100
AcDbEntity
  8
G-SETTING
100
AcDbLine
 10
58.6
 20
280.0
 30
0.0
 11
60.6
 21
280.0
 31
0.0
  0
LINE
  5
134
330
17
100
AcDbEntity
  8
G-SETTING
100
AcDbLine
 10
62.2
 20
280.0
 30
0.0
 11
64.2
 21
280.0
 31
0.0
  0
LINE
  5
135
330
17
100
AcDbEntity
  8
G-SETTING
100
AcDbLine
 10
65.80000000000001
 20
280.0
 30
0.0
 11
67.80000000000001
 21
280.0
 31
0.0
  0
LINE
  5
136
330
17
100
AcDbEntity
  8
G-SETTING
100
AcDbLine
 10
69.4
 20
280.0
 30
0.0
 11
70.33333333333333
 21
280.0
 31
0.0
  0
LWPOLYLINE
  5
137
330
17
100
AcDbEntity
  8
G-SETTING
100
AcDbPolyline
 90
3
 70
1
 10
72.93333333333332
 20
280.0
 10
69.29333333333332
 20
281.17
 10
69.29333333333332
 20
278.83
  0
LINE
  5
138
330
17
100
AcDbEntity
  8
G-SETTING
100
AcDbLine
 10
37.0
 20
320.6666666666667
 30
0.0
 11
39.0
 21
320.6666666666667
 31
0.0
  0
LINE
  5
139
330
17
100
AcDbEntity
  8
G-SETTING
100
AcDbLine
 10
40.6
 20
320.6666666666667
 30
0.0
 11
42.6
 21
320.6666666666667
 31
0.0
  0
LINE
  5
13A
330
17
100
AcDbEntity
  8
G-SETTING
100
AcDbLine
 10
44.2
 20
320.6666666666667
 30
0.0
 11
46.2
 21
320.6666666666667
 31
0.0
  0
LINE
  5
13B
330
17
100
AcDbEntity
  8
G-SETTING
100
AcDbLine
 10
47.8
 20
320.6666666666667
 30
0.0
 11
49.8
 21
320.6666666666667
 31
0.0
  0
LINE
  5
13C
330
17
100
AcDbEntity
  8
G-SETTING
100
AcDbLine
 10
51.4
 20
320.6666666666667
 30
0.0
 11
53.4
 21
320.6666666666667
 31
0.0
  0
LINE
  5
13D
330
17
100
AcDbEntity
  8
G-SETTING
100
AcDbLine
 10
55.0
 20
320.6666666666667
 30
0.0
 11
57.0
 21
320.6666666666667
 31
0.0
  0
LINE
  5
13E
330
17
100
AcDbEntity
  8
G-SETTING
100
AcDbLine
 10
58.6
 20
320.6666666666667
 30
0.0
 11
60.6
 21
320.6666666666667
 31
0.0
  0
LINE
  5
13F
330
17
100
AcDbEntity
  8
G-SETTING
100
AcDbLine
 10
62.2
 20
320.6666666666667
 30
0.0
 11
64.2
 21
320.6666666666667
 31
0.0
  0
LINE
  5
140
330
17
100
AcDbEntity
  8
G-SETTING
100
AcDbLine
 10
65.80000000000001
 20
320.6666666666667
 30
0.0
 11
67.80000000000001
 21
320.6666666666667
 31
0.0
  0
LINE
  5
141
330
17
100
AcDbEntity
  8
G-SETTING
100
AcDbLine
 10
69.4
 20
320.6666666666667
 30
0.0
 11
70.33333333333333
 21
320.6666666666667
 31
0.0
  0
LWPOLYLINE
  5
142
330
17
100
AcDbEntity
  8
G-SETTING
100
AcDbPolyline
 90
3
 70
1
 10
72.93333333333332
 20
320.6666666666667
 10
69.29333333333332
 20
321.8366666666667
 10
69.29333333333332
 20
319.49666666666667
  0
LINE
  5
143
330
17
100
AcDbEntity
  8
G-SETTING
100
AcDbLine
 10
37.0
 20
360.0
 30
0.0
 11
39.0
 21
360.0
 31
0.0
  0
LINE
  5
144
330
17
100
AcDbEntity
  8
G-SETTING
100
AcDbLine
 10
40.6
 20
360.0
 30
0.0
 11
42.6
 21
360.0
 31
0.0
  0
LINE
  5
145
330
17
100
AcDbEntity
  8
G-SETTING
100
AcDbLine
 10
44.2
 20
360.0
 30
0.0
 11
46.2
 21
360.0
 31
0.0
  0
LINE
  5
146
330
17
100
AcDbEntity
  8
G-SETTING
100
AcDbLine
 10
47.8
 20
360.0
 30
0.0
 11
49.8
 21
360.0
 31
0.0
  0
LINE
  5
147
330
17
100
AcDbEntity
  8
G-SETTING
100
AcDbLine
 10
51.4
 20
360.0
 30
0.0
 11
53.4
 21
360.0
 31
0.0
  0
LINE
  5
148
330
17
100
AcDbEntity
  8
G-SETTING
100
AcDbLine
 10
55.0
 20
360.0
 30
0.0
 11
57.0
 21
360.0
 31
0.0
  0
LINE
  5
149
330
17
100
AcDbEntity
  8
G-SETTING
100
AcDbLine
 10
58.6
 20
360.0
 30
0.0
 11
60.6
 21
360.0
 31
0.0
  0
LINE
  5
14A
330
17
100
AcDbEntity
  8
G-SETTING
100
AcDbLine
 10
62.2
 20
360.0
 30
0.0
 11
64.2
 21
360.0
 31
0.0
  0
LINE
  5
14B
330
17
100
AcDbEntity
  8
G-SETTING
100
AcDbLine
 10
65.80000000000001
 20
360.0
 30
0.0
 11
67.80000000000001
 21
360.0
 31
0.0
  0
LINE
  5
14C
330
17
100
AcDbEntity
  8
G-SETTING
100
AcDbLine
 10
69.4
 20
360.0
 30
0.0
 11
70.33333333333333
 21
360.0
 31
0.0
  0
LWPOLYLINE
  5
14D
330
17
100
AcDbEntity
  8
G-SETTING
100
AcDbPolyline
 90
3
 70
1
 10
72.93333333333332
 20
360.0
 10
69.29333333333332
 20
361.17
 10
69.29333333333332
 20
358.83
  0
TEXT
  5
14E
330
17
100
AcDbEntity
  8
G-SETTING
100
AcDbText
 10
33.66666666666667
 20
374.6666666666667
 30
0.0
 40
2.0
  1
GROUND FALLS EAST
  7
OpenSans
 11
33.66666666666667
 21
374.6666666666667
 31
0.0
100
AcDbText
  0
TEXT
  5
14F
330
17
100
AcDbEntity
  8
M-TEXT
100
AcDbText
 10
33.66666666666667
 20
366.6666666666667
 30
0.0
 40
1.8
  1
580 -> 575 toward the track
  7
OpenSans
 11
33.66666666666667
 21
366.6666666666667
 31
0.0
100
AcDbText
  0
TEXT
  5
150
330
17
100
AcDbEntity
  8
M-TEXT
100
AcDbText
 10
33.66666666666667
 20
358.6666666666667
 30
0.0
 40
1.8
  1
[R] SG1, deck slide 15
  7
OpenSans
 11
33.66666666666667
 21
358.6666666666667
 31
0.0
100
AcDbText
  0
INSERT
  5
151
330
17
100
AcDbEntity
  8
S-TITLE
100
AcDbBlockReference
  2
NORTH
 10
50.33333333333333
 20
416.6666666666667
 30
0.0
  0
TEXT
  5
153
330
17
100
AcDbEntity
  8
S-TITLE
100
AcDbText
 10
50.33333333333333
 20
430.6666666666667
 30
0.0
 40
2.0
  1
N
  7
OpenSans
 72
1
 11
50.33333333333333
 21
430.6666666666667
 31
0.0
100
AcDbText
 73
2
  0
LWPOLYLINE
  5
154
330
17
100
AcDbEntity
  8
G-STRUCT
100
AcDbPolyline
 90
4
 70
1
 10
137.0
 20
300.0
 10
283.66666666666663
 20
300.0
 10
283.66666666666663
 20
341.3333333333333
 10
137.0
 20
341.3333333333333
  0
LINE
  5
155
330
17
100
AcDbEntity
  8
G-NODATA
100
AcDbLine
 10
130.33333333333334
 20
293.3333333333333
 30
0.0
 11
132.33333333333334
 21
293.3333333333333
 31
0.0
  0
LINE
  5
156
330
17
100
AcDbEntity
  8
G-NODATA
100
AcDbLine
 10
133.93333333333334
 20
293.3333333333333
 30
0.0
 11
135.93333333333334
 21
293.3333333333333
 31
0.0
  0
LINE
  5
157
330
17
100
AcDbEntity
  8
G-NODATA
100
AcDbLine
 10
137.53333333333333
 20
293.3333333333333
 30
0.0
 11
139.53333333333333
 21
293.3333333333333
 31
0.0
  0
LINE
  5
158
330
17
100
AcDbEntity
  8
G-NODATA
100
AcDbLine
 10
141.13333333333335
 20
293.3333333333333
 30
0.0
 11
143.13333333333335
 21
293.3333333333333
 31
0.0
  0
LINE
  5
159
330
17
100
AcDbEntity
  8
G-NODATA
100
AcDbLine
 10
144.73333333333335
 20
293.3333333333333
 30
0.0
 11
146.73333333333335
 21
293.3333333333333
 31
0.0
  0
LINE
  5
15A
330
17
100
AcDbEntity
  8
G-NODATA
100
AcDbLine
 10
148.33333333333334
 20
293.3333333333333
 30
0.0
 11
150.33333333333334
 21
293.3333333333333
 31
0.0
  0
LINE
  5
15B
330
17
100
AcDbEntity
  8
G-NODATA
100
AcDbLine
 10
151.93333333333334
 20
293.3333333333333
 30
0.0
 11
153.93333333333334
 21
293.3333333333333
 31
0.0
  0
LINE
  5
15C
330
17
100
AcDbEntity
  8
G-NODATA
100
AcDbLine
 10
155.53333333333336
 20
293.3333333333333
 30
0.0
 11
157.53333333333336
 21
293.3333333333333
 31
0.0
  0
LINE
  5
15D
330
17
100
AcDbEntity
  8
G-NODATA
100
AcDbLine
 10
159.13333333333335
 20
293.3333333333333
 30
0.0
 11
161.13333333333335
 21
293.3333333333333
 31
0.0
  0
LINE
  5
15E
330
17
100
AcDbEntity
  8
G-NODATA
100
AcDbLine
 10
162.73333333333335
 20
293.3333333333333
 30
0.0
 11
164.73333333333335
 21
293.3333333333333
 31
0.0
  0
LINE
  5
15F
330
17
100
AcDbEntity
  8
G-NODATA
100
AcDbLine
 10
166.33333333333334
 20
293.3333333333333
 30
0.0
 11
168.33333333333334
 21
293.3333333333333
 31
0.0
  0
LINE
  5
160
330
17
100
AcDbEntity
  8
G-NODATA
100
AcDbLine
 10
169.93333333333334
 20
293.3333333333333
 30
0.0
 11
171.93333333333334
 21
293.3333333333333
 31
0.0
  0
LINE
  5
161
330
17
100
AcDbEntity
  8
G-NODATA
100
AcDbLine
 10
173.53333333333336
 20
293.3333333333333
 30
0.0
 11
175.53333333333336
 21
293.3333333333333
 31
0.0
  0
LINE
  5
162
330
17
100
AcDbEntity
  8
G-NODATA
100
AcDbLine
 10
177.13333333333335
 20
293.3333333333333
 30
0.0
 11
179.13333333333335
 21
293.3333333333333
 31
0.0
  0
LINE
  5
163
330
17
100
AcDbEntity
  8
G-NODATA
100
AcDbLine
 10
180.73333333333335
 20
293.3333333333333
 30
0.0
 11
182.73333333333335
 21
293.3333333333333
 31
0.0
  0
LINE
  5
164
330
17
100
AcDbEntity
  8
G-NODATA
100
AcDbLine
 10
184.33333333333337
 20
293.3333333333333
 30
0.0
 11
186.33333333333337
 21
293.3333333333333
 31
0.0
  0
LINE
  5
165
330
17
100
AcDbEntity
  8
G-NODATA
100
AcDbLine
 10
187.93333333333337
 20
293.3333333333333
 30
0.0
 11
189.93333333333337
 21
293.3333333333333
 31
0.0
  0
LINE
  5
166
330
17
100
AcDbEntity
  8
G-NODATA
100
AcDbLine
 10
191.53333333333336
 20
293.3333333333333
 30
0.0
 11
193.53333333333336
 21
293.3333333333333
 31
0.0
  0
LINE
  5
167
330
17
100
AcDbEntity
  8
G-NODATA
100
AcDbLine
 10
195.13333333333335
 20
293.3333333333333
 30
0.0
 11
197.13333333333335
 21
293.3333333333333
 31
0.0
  0
LINE
  5
168
330
17
100
AcDbEntity
  8
G-NODATA
100
AcDbLine
 10
198.73333333333335
 20
293.3333333333333
 30
0.0
 11
200.73333333333335
 21
293.3333333333333
 31
0.0
  0
LINE
  5
169
330
17
100
AcDbEntity
  8
G-NODATA
100
AcDbLine
 10
202.33333333333334
 20
293.3333333333333
 30
0.0
 11
204.33333333333334
 21
293.3333333333333
 31
0.0
  0
LINE
  5
16A
330
17
100
AcDbEntity
  8
G-NODATA
100
AcDbLine
 10
205.93333333333334
 20
293.3333333333333
 30
0.0
 11
207.93333333333334
 21
293.3333333333333
 31
0.0
  0
LINE
  5
16B
330
17
100
AcDbEntity
  8
G-NODATA
100
AcDbLine
 10
209.53333333333333
 20
293.3333333333333
 30
0.0
 11
211.53333333333333
 21
293.3333333333333
 31
0.0
  0
LINE
  5
16C
330
17
100
AcDbEntity
  8
G-NODATA
100
AcDbLine
 10
213.13333333333333
 20
293.3333333333333
 30
0.0
 11
215.13333333333333
 21
293.3333333333333
 31
0.0
  0
LINE
  5
16D
330
17
100
AcDbEntity
  8
G-NODATA
100
AcDbLine
 10
216.73333333333332
 20
293.3333333333333
 30
0.0
 11
218.73333333333332
 21
293.3333333333333
 31
0.0
  0
LINE
  5
16E
330
17
100
AcDbEntity
  8
G-NODATA
100
AcDbLine
 10
220.33333333333331
 20
293.3333333333333
 30
0.0
 11
222.33333333333331
 21
293.3333333333333
 31
0.0
  0
LINE
  5
16F
330
17
100
AcDbEntity
  8
G-NODATA
100
AcDbLine
 10
223.9333333333333
 20
293.3333333333333
 30
0.0
 11
225.9333333333333
 21
293.3333333333333
 31
0.0
  0
LINE
  5
170
330
17
100
AcDbEntity
  8
G-NODATA
100
AcDbLine
 10
227.5333333333333
 20
293.3333333333333
 30
0.0
 11
229.5333333333333
 21
293.3333333333333
 31
0.0
  0
LINE
  5
171
330
17
100
AcDbEntity
  8
G-NODATA
100
AcDbLine
 10
231.1333333333333
 20
293.3333333333333
 30
0.0
 11
233.1333333333333
 21
293.3333333333333
 31
0.0
  0
LINE
  5
172
330
17
100
AcDbEntity
  8
G-NODATA
100
AcDbLine
 10
234.7333333333333
 20
293.3333333333333
 30
0.0
 11
236.7333333333333
 21
293.3333333333333
 31
0.0
  0
LINE
  5
173
330
17
100
AcDbEntity
  8
G-NODATA
100
AcDbLine
 10
238.3333333333333
 20
293.3333333333333
 30
0.0
 11
240.3333333333333
 21
293.3333333333333
 31
0.0
  0
LINE
  5
174
330
17
100
AcDbEntity
  8
G-NODATA
100
AcDbLine
 10
241.93333333333328
 20
293.3333333333333
 30
0.0
 11
243.93333333333328
 21
293.3333333333333
 31
0.0
  0
LINE
  5
175
330
17
100
AcDbEntity
  8
G-NODATA
100
AcDbLine
 10
245.53333333333327
 20
293.3333333333333
 30
0.0
 11
247.53333333333327
 21
293.3333333333333
 31
0.0
  0
LINE
  5
176
330
17
100
AcDbEntity
  8
G-NODATA
100
AcDbLine
 10
249.13333333333327
 20
293.3333333333333
 30
0.0
 11
251.13333333333327
 21
293.3333333333333
 31
0.0
  0
LINE
  5
177
330
17
100
AcDbEntity
  8
G-NODATA
100
AcDbLine
 10
252.73333333333326
 20
293.3333333333333
 30
0.0
 11
254.73333333333326
 21
293.3333333333333
 31
0.0
  0
LINE
  5
178
330
17
100
AcDbEntity
  8
G-NODATA
100
AcDbLine
 10
256.33333333333326
 20
293.3333333333333
 30
0.0
 11
258.33333333333326
 21
293.3333333333333
 31
0.0
  0
LINE
  5
179
330
17
100
AcDbEntity
  8
G-NODATA
100
AcDbLine
 10
259.9333333333333
 20
293.3333333333333
 30
0.0
 11
261.9333333333333
 21
293.3333333333333
 31
0.0
  0
LINE
  5
17A
330
17
100
AcDbEntity
  8
G-NODATA
100
AcDbLine
 10
263.53333333333325
 20
293.3333333333333
 30
0.0
 11
265.53333333333325
 21
293.3333333333333
 31
0.0
  0
LINE
  5
17B
330
17
100
AcDbEntity
  8
G-NODATA
100
AcDbLine
 10
267.1333333333332
 20
293.3333333333333
 30
0.0
 11
269.1333333333332
 21
293.3333333333333
 31
0.0
  0
LINE
  5
17C
330
17
100
AcDbEntity
  8
G-NODATA
100
AcDbLine
 10
270.73333333333323
 20
293.3333333333333
 30
0.0
 11
272.73333333333323
 21
293.3333333333333
 31
0.0
  0
LINE
  5
17D
330
17
100
AcDbEntity
  8
G-NODATA
100
AcDbLine
 10
274.33333333333326
 20
293.3333333333333
 30
0.0
 11
276.33333333333326
 21
293.3333333333333
 31
0.0
  0
LINE
  5
17E
330
17
100
AcDbEntity
  8
G-NODATA
100
AcDbLine
 10
277.9333333333332
 20
293.3333333333333
 30
0.0
 11
279.9333333333332
 21
293.3333333333333
 31
0.0
  0
LINE
  5
17F
330
17
100
AcDbEntity
  8
G-NODATA
100
AcDbLine
 10
281.5333333333332
 20
293.3333333333333
 30
0.0
 11
283.5333333333332
 21
293.3333333333333
 31
0.0
  0
LINE
  5
180
330
17
100
AcDbEntity
  8
G-NODATA
100
AcDbLine
 10
285.1333333333332
 20
293.3333333333333
 30
0.0
 11
287.1333333333332
 21
293.3333333333333
 31
0.0
  0
LINE
  5
181
330
17
100
AcDbEntity
  8
G-NODATA
100
AcDbLine
 10
288.73333333333323
 20
293.3333333333333
 30
0.0
 11
290.33333333333337
 21
293.3333333333333
 31
0.0
  0
LINE
  5
182
330
17
100
AcDbEntity
  8
G-NODATA
100
AcDbLine
 10
290.33333333333337
 20
293.3333333333333
 30
0.0
 11
290.33333333333337
 21
295.3333333333333
 31
0.0
  0
LINE
  5
183
330
17
100
AcDbEntity
  8
G-NODATA
100
AcDbLine
 10
290.33333333333337
 20
296.93333333333334
 30
0.0
 11
290.33333333333337
 21
298.93333333333334
 31
0.0
  0
LINE
  5
184
330
17
100
AcDbEntity
  8
G-NODATA
100
AcDbLine
 10
290.33333333333337
 20
300.5333333333333
 30
0.0
 11
290.33333333333337
 21
302.5333333333333
 31
0.0
  0
LINE
  5
185
330
17
100
AcDbEntity
  8
G-NODATA
100
AcDbLine
 10
290.33333333333337
 20
304.1333333333333
 30
0.0
 11
290.33333333333337
 21
306.1333333333333
 31
0.0
  0
LINE
  5
186
330
17
100
AcDbEntity
  8
G-NODATA
100
AcDbLine
 10
290.33333333333337
 20
307.7333333333333
 30
0.0
 11
290.33333333333337
 21
309.7333333333333
 31
0.0
  0
LINE
  5
187
330
17
100
AcDbEntity
  8
G-NODATA
100
AcDbLine
 10
290.33333333333337
 20
311.3333333333333
 30
0.0
 11
290.33333333333337
 21
313.3333333333333
 31
0.0
  0
LINE
  5
188
330
17
100
AcDbEntity
  8
G-NODATA
100
AcDbLine
 10
290.33333333333337
 20
314.93333333333334
 30
0.0
 11
290.33333333333337
 21
316.93333333333334
 31
0.0
  0
LINE
  5
189
330
17
100
AcDbEntity
  8
G-NODATA
100
AcDbLine
 10
290.33333333333337
 20
318.5333333333333
 30
0.0
 11
290.33333333333337
 21
320.5333333333333
 31
0.0
  0
LINE
  5
18A
330
17
100
AcDbEntity
  8
G-NODATA
100
AcDbLine
 10
290.33333333333337
 20
322.1333333333333
 30
0.0
 11
290.33333333333337
 21
324.1333333333333
 31
0.0
  0
LINE
  5
18B
330
17
100
AcDbEntity
  8
G-NODATA
100
AcDbLine
 10
290.33333333333337
 20
325.73333333333335
 30
0.0
 11
290.33333333333337
 21
327.73333333333335
 31
0.0
  0
LINE
  5
18C
330
17
100
AcDbEntity
  8
G-NODATA
100
AcDbLine
 10
290.33333333333337
 20
329.3333333333333
 30
0.0
 11
290.33333333333337
 21
331.3333333333333
 31
0.0
  0
LINE
  5
18D
330
17
100
AcDbEntity
  8
G-NODATA
100
AcDbLine
 10
290.33333333333337
 20
332.93333333333334
 30
0.0
 11
290.33333333333337
 21
334.93333333333334
 31
0.0
  0
LINE
  5
18E
330
17
100
AcDbEntity
  8
G-NODATA
100
AcDbLine
 10
290.33333333333337
 20
336.5333333333333
 30
0.0
 11
290.33333333333337
 21
338.5333333333333
 31
0.0
  0
LINE
  5
18F
330
17
100
AcDbEntity
  8
G-NODATA
100
AcDbLine
 10
290.33333333333337
 20
340.1333333333333
 30
0.0
 11
290.33333333333337
 21
342.1333333333333
 31
0.0
  0
LINE
  5
190
330
17
100
AcDbEntity
  8
G-NODATA
100
AcDbLine
 10
290.33333333333337
 20
343.73333333333335
 30
0.0
 11
290.33333333333337
 21
345.73333333333335
 31
0.0
  0
LINE
  5
191
330
17
100
AcDbEntity
  8
G-NODATA
100
AcDbLine
 10
290.33333333333337
 20
347.3333333333333
 30
0.0
 11
290.33333333333337
 21
348.0
 31
0.0
  0
LINE
  5
192
330
17
100
AcDbEntity
  8
G-NODATA
100
AcDbLine
 10
290.33333333333337
 20
348.0
 30
0.0
 11
288.33333333333337
 21
348.0
 31
0.0
  0
LINE
  5
193
330
17
100
AcDbEntity
  8
G-NODATA
100
AcDbLine
 10
286.73333333333335
 20
348.0
 30
0.0
 11
284.73333333333335
 21
348.0
 31
0.0
  0
LINE
  5
194
330
17
100
AcDbEntity
  8
G-NODATA
100
AcDbLine
 10
283.1333333333334
 20
348.0
 30
0.0
 11
281.1333333333334
 21
348.0
 31
0.0
  0
LINE
  5
195
330
17
100
AcDbEntity
  8
G-NODATA
100
AcDbLine
 10
279.53333333333336
 20
348.0
 30
0.0
 11
277.53333333333336
 21
348.0
 31
0.0
  0
LINE
  5
196
330
17
100
AcDbEntity
  8
G-NODATA
100
AcDbLine
 10
275.9333333333334
 20
348.0
 30
0.0
 11
273.9333333333334
 21
348.0
 31
0.0
  0
LINE
  5
197
330
17
100
AcDbEntity
  8
G-NODATA
100
AcDbLine
 10
272.33333333333337
 20
348.0
 30
0.0
 11
270.33333333333337
 21
348.0
 31
0.0
  0
LINE
  5
198
330
17
100
AcDbEntity
  8
G-NODATA
100
AcDbLine
 10
268.73333333333335
 20
348.0
 30
0.0
 11
266.73333333333335
 21
348.0
 31
0.0
  0
LINE
  5
199
330
17
100
AcDbEntity
  8
G-NODATA
100
AcDbLine
 10
265.1333333333334
 20
348.0
 30
0.0
 11
263.1333333333334
 21
348.0
 31
0.0
  0
LINE
  5
19A
330
17
100
AcDbEntity
  8
G-NODATA
100
AcDbLine
 10
261.53333333333336
 20
348.0
 30
0.0
 11
259.53333333333336
 21
348.0
 31
0.0
  0
LINE
  5
19B
330
17
100
AcDbEntity
  8
G-NODATA
100
AcDbLine
 10
257.9333333333334
 20
348.0
 30
0.0
 11
255.93333333333337
 21
348.0
 31
0.0
  0
LINE
  5
19C
330
17
100
AcDbEntity
  8
G-NODATA
100
AcDbLine
 10
254.33333333333337
 20
348.0
 30
0.0
 11
252.33333333333337
 21
348.0
 31
0.0
  0
LINE
  5
19D
330
17
100
AcDbEntity
  8
G-NODATA
100
AcDbLine
 10
250.73333333333335
 20
348.0
 30
0.0
 11
248.73333333333335
 21
348.0
 31
0.0
  0
LINE
  5
19E
330
17
100
AcDbEntity
  8
G-NODATA
100
AcDbLine
 10
247.13333333333335
 20
348.0
 30
0.0
 11
245.13333333333335
 21
348.0
 31
0.0
  0
LINE
  5
19F
330
17
100
AcDbEntity
  8
G-NODATA
100
AcDbLine
 10
243.53333333333336
 20
348.0
 30
0.0
 11
241.53333333333336
 21
348.0
 31
0.0
  0
LINE
  5
1A0
330
17
100
AcDbEntity
  8
G-NODATA
100
AcDbLine
 10
239.93333333333337
 20
348.0
 30
0.0
 11
237.93333333333337
 21
348.0
 31
0.0
  0
LINE
  5
1A1
330
17
100
AcDbEntity
  8
G-NODATA
100
AcDbLine
 10
236.33333333333337
 20
348.0
 30
0.0
 11
234.33333333333337
 21
348.0
 31
0.0
  0
LINE
  5
1A2
330
17
100
AcDbEntity
  8
G-NODATA
100
AcDbLine
 10
232.73333333333335
 20
348.0
 30
0.0
 11
230.73333333333335
 21
348.0
 31
0.0
  0
LINE
  5
1A3
330
17
100
AcDbEntity
  8
G-NODATA
100
AcDbLine
 10
229.13333333333335
 20
348.0
 30
0.0
 11
227.13333333333335
 21
348.0
 31
0.0
  0
LINE
  5
1A4
330
17
100
AcDbEntity
  8
G-NODATA
100
AcDbLine
 10
225.53333333333336
 20
348.0
 30
0.0
 11
223.53333333333336
 21
348.0
 31
0.0
  0
LINE
  5
1A5
330
17
100
AcDbEntity
  8
G-NODATA
100
AcDbLine
 10
221.93333333333337
 20
348.0
 30
0.0
 11
219.93333333333337
 21
348.0
 31
0.0
  0
LINE
  5
1A6
330
17
100
AcDbEntity
  8
G-NODATA
100
AcDbLine
 10
218.33333333333337
 20
348.0
 30
0.0
 11
216.33333333333337
 21
348.0
 31
0.0
  0
LINE
  5
1A7
330
17
100
AcDbEntity
  8
G-NODATA
100
AcDbLine
 10
214.73333333333338
 20
348.0
 30
0.0
 11
212.73333333333338
 21
348.0
 31
0.0
  0
LINE
  5
1A8
330
17
100
AcDbEntity
  8
G-NODATA
100
AcDbLine
 10
211.13333333333338
 20
348.0
 30
0.0
 11
209.13333333333338
 21
348.0
 31
0.0
  0
LINE
  5
1A9
330
17
100
AcDbEntity
  8
G-NODATA
100
AcDbLine
 10
207.5333333333334
 20
348.0
 30
0.0
 11
205.5333333333334
 21
348.0
 31
0.0
  0
LINE
  5
1AA
330
17
100
AcDbEntity
  8
G-NODATA
100
AcDbLine
 10
203.9333333333334
 20
348.0
 30
0.0
 11
201.9333333333334
 21
348.0
 31
0.0
  0
LINE
  5
1AB
330
17
100
AcDbEntity
  8
G-NODATA
100
AcDbLine
 10
200.3333333333334
 20
348.0
 30
0.0
 11
198.3333333333334
 21
348.0
 31
0.0
  0
LINE
  5
1AC
330
17
100
AcDbEntity
  8
G-NODATA
100
AcDbLine
 10
196.7333333333334
 20
348.0
 30
0.0
 11
194.7333333333334
 21
348.0
 31
0.0
  0
LINE
  5
1AD
330
17
100
AcDbEntity
  8
G-NODATA
100
AcDbLine
 10
193.1333333333334
 20
348.0
 30
0.0
 11
191.1333333333334
 21
348.0
 31
0.0
  0
LINE
  5
1AE
330
17
100
AcDbEntity
  8
G-NODATA
100
AcDbLine
 10
189.53333333333342
 20
348.0
 30
0.0
 11
187.53333333333342
 21
348.0
 31
0.0
  0
LINE
  5
1AF
330
17
100
AcDbEntity
  8
G-NODATA
100
AcDbLine
 10
185.93333333333342
 20
348.0
 30
0.0
 11
183.93333333333342
 21
348.0
 31
0.0
  0
LINE
  5
1B0
330
17
100
AcDbEntity
  8
G-NODATA
100
AcDbLine
 10
182.33333333333343
 20
348.0
 30
0.0
 11
180.33333333333343
 21
348.0
 31
0.0
  0
LINE
  5
1B1
330
17
100
AcDbEntity
  8
G-NODATA
100
AcDbLine
 10
178.73333333333343
 20
348.0
 30
0.0
 11
176.73333333333343
 21
348.0
 31
0.0
  0
LINE
  5
1B2
330
17
100
AcDbEntity
  8
G-NODATA
100
AcDbLine
 10
175.13333333333344
 20
348.0
 30
0.0
 11
173.13333333333344
 21
348.0
 31
0.0
  0
LINE
  5
1B3
330
17
100
AcDbEntity
  8
G-NODATA
100
AcDbLine
 10
171.53333333333345
 20
348.0
 30
0.0
 11
169.53333333333345
 21
348.0
 31
0.0
  0
LINE
  5
1B4
330
17
100
AcDbEntity
  8
G-NODATA
100
AcDbLine
 10
167.93333333333345
 20
348.0
 30
0.0
 11
165.93333333333345
 21
348.0
 31
0.0
  0
LINE
  5
1B5
330
17
100
AcDbEntity
  8
G-NODATA
100
AcDbLine
 10
164.33333333333346
 20
348.0
 30
0.0
 11
162.33333333333346
 21
348.0
 31
0.0
  0
LINE
  5
1B6
330
17
100
AcDbEntity
  8
G-NODATA
100
AcDbLine
 10
160.73333333333346
 20
348.0
 30
0.0
 11
158.73333333333346
 21
348.0
 31
0.0
  0
LINE
  5
1B7
330
17
100
AcDbEntity
  8
G-NODATA
100
AcDbLine
 10
157.13333333333347
 20
348.0
 30
0.0
 11
155.13333333333347
 21
348.0
 31
0.0
  0
LINE
  5
1B8
330
17
100
AcDbEntity
  8
G-NODATA
100
AcDbLine
 10
153.53333333333347
 20
348.0
 30
0.0
 11
151.53333333333347
 21
348.0
 31
0.0
  0
LINE
  5
1B9
330
17
100
AcDbEntity
  8
G-NODATA
100
AcDbLine
 10
149.93333333333348
 20
348.0
 30
0.0
 11
147.93333333333348
 21
348.0
 31
0.0
  0
LINE
  5
1BA
330
17
100
AcDbEntity
  8
G-NODATA
100
AcDbLine
 10
146.33333333333348
 20
348.0
 30
0.0
 11
144.33333333333348
 21
348.0
 31
0.0
  0
LINE
  5
1BB
330
17
100
AcDbEntity
  8
G-NODATA
100
AcDbLine
 10
142.7333333333335
 20
348.0
 30
0.0
 11
140.7333333333335
 21
348.0
 31
0.0
  0
LINE
  5
1BC
330
17
100
AcDbEntity
  8
G-NODATA
100
AcDbLine
 10
139.1333333333335
 20
348.0
 30
0.0
 11
137.1333333333335
 21
348.0
 31
0.0
  0
LINE
  5
1BD
330
17
100
AcDbEntity
  8
G-NODATA
100
AcDbLine
 10
135.5333333333335
 20
348.0
 30
0.0
 11
133.5333333333335
 21
348.0
 31
0.0
  0
LINE
  5
1BE
330
17
100
AcDbEntity
  8
G-NODATA
100
AcDbLine
 10
131.9333333333335
 20
348.0
 30
0.0
 11
130.33333333333334
 21
348.0
 31
0.0
  0
LINE
  5
1BF
330
17
100
AcDbEntity
  8
G-NODATA
100
AcDbLine
 10
130.33333333333334
 20
348.0
 30
0.0
 11
130.33333333333334
 21
346.0
 31
0.0
  0
LINE
  5
1C0
330
17
100
AcDbEntity
  8
G-NODATA
100
AcDbLine
 10
130.33333333333334
 20
344.4
 30
0.0
 11
130.33333333333334
 21
342.4
 31
0.0
  0
LINE
  5
1C1
330
17
100
AcDbEntity
  8
G-NODATA
100
AcDbLine
 10
130.33333333333334
 20
340.8
 30
0.0
 11
130.33333333333334
 21
338.8
 31
0.0
  0
LINE
  5
1C2
330
17
100
AcDbEntity
  8
G-NODATA
100
AcDbLine
 10
130.33333333333334
 20
337.2
 30
0.0
 11
130.33333333333334
 21
335.2
 31
0.0
  0
LINE
  5
1C3
330
17
100
AcDbEntity
  8
G-NODATA
100
AcDbLine
 10
130.33333333333334
 20
333.6
 30
0.0
 11
130.33333333333334
 21
331.6
 31
0.0
  0
LINE
  5
1C4
330
17
100
AcDbEntity
  8
G-NODATA
100
AcDbLine
 10
130.33333333333334
 20
330.0
 30
0.0
 11
130.33333333333334
 21
328.0
 31
0.0
  0
LINE
  5
1C5
330
17
100
AcDbEntity
  8
G-NODATA
100
AcDbLine
 10
130.33333333333334
 20
326.4
 30
0.0
 11
130.33333333333334
 21
324.4
 31
0.0
  0
LINE
  5
1C6
330
17
100
AcDbEntity
  8
G-NODATA
100
AcDbLine
 10
130.33333333333334
 20
322.8
 30
0.0
 11
130.33333333333334
 21
320.8
 31
0.0
  0
LINE
  5
1C7
330
17
100
AcDbEntity
  8
G-NODATA
100
AcDbLine
 10
130.33333333333334
 20
319.2
 30
0.0
 11
130.33333333333334
 21
317.2
 31
0.0
  0
LINE
  5
1C8
330
17
100
AcDbEntity
  8
G-NODATA
100
AcDbLine
 10
130.33333333333334
 20
315.6
 30
0.0
 11
130.33333333333334
 21
313.6
 31
0.0
  0
LINE
  5
1C9
330
17
100
AcDbEntity
  8
G-NODATA
100
AcDbLine
 10
130.33333333333334
 20
312.0
 30
0.0
 11
130.33333333333334
 21
310.0
 31
0.0
  0
LINE
  5
1CA
330
17
100
AcDbEntity
  8
G-NODATA
100
AcDbLine
 10
130.33333333333334
 20
308.4
 30
0.0
 11
130.33333333333334
 21
306.4
 31
0.0
  0
LINE
  5
1CB
330
17
100
AcDbEntity
  8
G-NODATA
100
AcDbLine
 10
130.33333333333334
 20
304.8
 30
0.0
 11
130.33333333333334
 21
302.8
 31
0.0
  0
LINE
  5
1CC
330
17
100
AcDbEntity
  8
G-NODATA
100
AcDbLine
 10
130.33333333333334
 20
301.2
 30
0.0
 11
130.33333333333334
 21
299.2
 31
0.0
  0
LINE
  5
1CD
330
17
100
AcDbEntity
  8
G-NODATA
100
AcDbLine
 10
130.33333333333334
 20
297.59999999999997
 30
0.0
 11
130.33333333333334
 21
295.59999999999997
 31
0.0
  0
LINE
  5
1CE
330
17
100
AcDbEntity
  8
G-NODATA
100
AcDbLine
 10
130.33333333333334
 20
294.0
 30
0.0
 11
130.33333333333334
 21
293.3333333333333
 31
0.0
  0
LWPOLYLINE
  5
1CF
330
17
100
AcDbEntity
  8
G-STRUCT
100
AcDbPolyline
 90
4
 70
1
 10
198.66666666666666
 20
338.3333333333333
 10
244.0
 20
338.3333333333333
 10
244.0
 20
351.6666666666667
 10
198.66666666666666
 20
351.6666666666667
  0
LINE
  5
1D0
330
17
100
AcDbEntity
  8
G-NODATA
100
AcDbLine
 10
192.0
 20
348.0
 30
0.0
 11
194.0
 21
348.0
 31
0.0
  0
LINE
  5
1D1
330
17
100
AcDbEntity
  8
G-NODATA
100
AcDbLine
 10
195.6
 20
348.0
 30
0.0
 11
197.6
 21
348.0
 31
0.0
  0
LINE
  5
1D2
330
17
100
AcDbEntity
  8
G-NODATA
100
AcDbLine
 10
199.2
 20
348.0
 30
0.0
 11
201.2
 21
348.0
 31
0.0
  0
LINE
  5
1D3
330
17
100
AcDbEntity
  8
G-NODATA
100
AcDbLine
 10
202.8
 20
348.0
 30
0.0
 11
204.8
 21
348.0
 31
0.0
  0
LINE
  5
1D4
330
17
100
AcDbEntity
  8
G-NODATA
100
AcDbLine
 10
206.4
 20
348.0
 30
0.0
 11
208.4
 21
348.0
 31
0.0
  0
LINE
  5
1D5
330
17
100
AcDbEntity
  8
G-NODATA
100
AcDbLine
 10
210.0
 20
348.0
 30
0.0
 11
212.0
 21
348.0
 31
0.0
  0
LINE
  5
1D6
330
17
100
AcDbEntity
  8
G-NODATA
100
AcDbLine
 10
213.6
 20
348.0
 30
0.0
 11
215.6
 21
348.0
 31
0.0
  0
LINE
  5
1D7
330
17
100
AcDbEntity
  8
G-NODATA
100
AcDbLine
 10
217.2
 20
348.0
 30
0.0
 11
219.2
 21
348.0
 31
0.0
  0
LINE
  5
1D8
330
17
100
AcDbEntity
  8
G-NODATA
100
AcDbLine
 10
220.8
 20
348.0
 30
0.0
 11
222.8
 21
348.0
 31
0.0
  0
LINE
  5
1D9
330
17
100
AcDbEntity
  8
G-NODATA
100
AcDbLine
 10
224.4
 20
348.0
 30
0.0
 11
226.4
 21
348.0
 31
0.0
  0
LINE
  5
1DA
330
17
100
AcDbEntity
  8
G-NODATA
100
AcDbLine
 10
228.0
 20
348.0
 30
0.0
 11
230.0
 21
348.0
 31
0.0
  0
LINE
  5
1DB
330
17
100
AcDbEntity
  8
G-NODATA
100
AcDbLine
 10
231.60000000000002
 20
348.0
 30
0.0
 11
233.60000000000002
 21
348.0
 31
0.0
  0
LINE
  5
1DC
330
17
100
AcDbEntity
  8
G-NODATA
100
AcDbLine
 10
235.20000000000002
 20
348.0
 30
0.0
 11
237.20000000000002
 21
348.0
 31
0.0
  0
LINE
  5
1DD
330
17
100
AcDbEntity
  8
G-NODATA
100
AcDbLine
 10
238.8
 20
348.0
 30
0.0
 11
240.8
 21
348.0
 31
0.0
  0
LINE
  5
1DE
330
17
100
AcDbEntity
  8
G-NODATA
100
AcDbLine
 10
242.4
 20
348.0
 30
0.0
 11
244.0
 21
348.0
 31
0.0
  0
LINE
  5
1DF
330
17
100
AcDbEntity
  8
G-NODATA
100
AcDbLine
 10
244.0
 20
348.0
 30
0.0
 11
244.0
 21
350.0
 31
0.0
  0
LINE
  5
1E0
330
17
100
AcDbEntity
  8
G-NODATA
100
AcDbLine
 10
244.0
 20
351.6
 30
0.0
 11
244.0
 21
353.6
 31
0.0
  0
LINE
  5
1E1
330
17
100
AcDbEntity
  8
G-NODATA
100
AcDbLine
 10
244.0
 20
355.2
 30
0.0
 11
244.0
 21
357.2
 31
0.0
  0
LINE
  5
1E2
330
17
100
AcDbEntity
  8
G-NODATA
100
AcDbLine
 10
244.0
 20
358.3333333333333
 30
0.0
 11
242.0
 21
358.3333333333333
 31
0.0
  0
LINE
  5
1E3
330
17
100
AcDbEntity
  8
G-NODATA
100
AcDbLine
 10
240.4
 20
358.3333333333333
 30
0.0
 11
238.4
 21
358.3333333333333
 31
0.0
  0
LINE
  5
1E4
330
17
100
AcDbEntity
  8
G-NODATA
100
AcDbLine
 10
236.8
 20
358.3333333333333
 30
0.0
 11
234.8
 21
358.3333333333333
 31
0.0
  0
LINE
  5
1E5
330
17
100
AcDbEntity
  8
G-NODATA
100
AcDbLine
 10
233.2
 20
358.3333333333333
 30
0.0
 11
231.2
 21
358.3333333333333
 31
0.0
  0
LINE
  5
1E6
330
17
100
AcDbEntity
  8
G-NODATA
100
AcDbLine
 10
229.6
 20
358.3333333333333
 30
0.0
 11
227.6
 21
358.3333333333333
 31
0.0
  0
LINE
  5
1E7
330
17
100
AcDbEntity
  8
G-NODATA
100
AcDbLine
 10
226.0
 20
358.3333333333333
 30
0.0
 11
224.0
 21
358.3333333333333
 31
0.0
  0
LINE
  5
1E8
330
17
100
AcDbEntity
  8
G-NODATA
100
AcDbLine
 10
222.4
 20
358.3333333333333
 30
0.0
 11
220.4
 21
358.3333333333333
 31
0.0
  0
LINE
  5
1E9
330
17
100
AcDbEntity
  8
G-NODATA
100
AcDbLine
 10
218.8
 20
358.3333333333333
 30
0.0
 11
216.8
 21
358.3333333333333
 31
0.0
  0
LINE
  5
1EA
330
17
100
AcDbEntity
  8
G-NODATA
100
AcDbLine
 10
215.2
 20
358.3333333333333
 30
0.0
 11
213.2
 21
358.3333333333333
 31
0.0
  0
LINE
  5
1EB
330
17
100
AcDbEntity
  8
G-NODATA
100
AcDbLine
 10
211.6
 20
358.3333333333333
 30
0.0
 11
209.6
 21
358.3333333333333
 31
0.0
  0
LINE
  5
1EC
330
17
100
AcDbEntity
  8
G-NODATA
100
AcDbLine
 10
208.0
 20
358.3333333333333
 30
0.0
 11
206.0
 21
358.3333333333333
 31
0.0
  0
LINE
  5
1ED
330
17
100
AcDbEntity
  8
G-NODATA
100
AcDbLine
 10
204.39999999999998
 20
358.3333333333333
 30
0.0
 11
202.39999999999998
 21
358.3333333333333
 31
0.0
  0
LINE
  5
1EE
330
17
100
AcDbEntity
  8
G-NODATA
100
AcDbLine
 10
200.79999999999998
 20
358.3333333333333
 30
0.0
 11
198.79999999999998
 21
358.3333333333333
 31
0.0
  0
LINE
  5
1EF
330
17
100
AcDbEntity
  8
G-NODATA
100
AcDbLine
 10
197.2
 20
358.3333333333333
 30
0.0
 11
195.2
 21
358.3333333333333
 31
0.0
  0
LINE
  5
1F0
330
17
100
AcDbEntity
  8
G-NODATA
100
AcDbLine
 10
193.6
 20
358.3333333333333
 30
0.0
 11
192.0
 21
358.3333333333333
 31
0.0
  0
LINE
  5
1F1
330
17
100
AcDbEntity
  8
G-NODATA
100
AcDbLine
 10
192.0
 20
358.3333333333333
 30
0.0
 11
192.0
 21
356.3333333333333
 31
0.0
  0
LINE
  5
1F2
330
17
100
AcDbEntity
  8
G-NODATA
100
AcDbLine
 10
192.0
 20
354.7333333333333
 30
0.0
 11
192.0
 21
352.7333333333333
 31
0.0
  0
LINE
  5
1F3
330
17
100
AcDbEntity
  8
G-NODATA
100
AcDbLine
 10
192.0
 20
351.1333333333333
 30
0.0
 11
192.0
 21
349.1333333333333
 31
0.0
  0
LWPOLYLINE
  5
1F4
330
17
100
AcDbEntity
  8
G-STRUCT
100
AcDbPolyline
 90
4
 70
1
 10
227.66666666666669
 20
301.3333333333333
 10
259.6666666666667
 20
301.3333333333333
 10
259.6666666666667
 20
340.0
 10
227.66666666666669
 20
340.0
  0
LWPOLYLINE
  5
1F5
330
17
100
AcDbEntity
  8
G-STRUCT
100
AcDbPolyline
 90
4
 70
1
 10
196.66666666666666
 20
340.0
 10
198.66666666666666
 20
340.0
 10
198.66666666666666
 20
350.0
 10
196.66666666666666
 20
350.0
  0
LWPOLYLINE
  5
1F6
330
17
100
AcDbEntity
  8
G-STRUCT
100
AcDbPolyline
 90
4
 70
1
 10
287.6533333333333
 20
311.6666666666667
 10
291.6533333333333
 20
311.6666666666667
 10
291.6533333333333
 20
315.6666666666667
 10
287.6533333333333
 20
315.6666666666667
  0
LWPOLYLINE
  5
1F7
330
17
100
AcDbEntity
  8
G-STRUCT
100
AcDbPolyline
 90
4
 70
1
 10
212.98666666666668
 20
337.3333333333333
 10
218.32
 20
337.3333333333333
 10
218.32
 20
341.3333333333333
 10
212.98666666666668
 20
341.3333333333333
  0
LWPOLYLINE
  5
1F8
330
17
100
AcDbEntity
  8
G-STRUCT
100
AcDbPolyline
 90
4
 70
1
 10
144.33333333333334
 20
307.3333333333333
 10
157.0
 20
307.3333333333333
 10
157.0
 20
320.0
 10
144.33333333333334
 20
320.0
  0
LWPOLYLINE
  5
1F9
330
17
100
AcDbEntity
  8
G-STRUCT
100
AcDbPolyline
 90
4
 70
1
 10
263.3333333333333
 20
307.3333333333333
 10
276.0
 20
307.3333333333333
 10
276.0
 20
320.0
 10
263.3333333333333
 20
320.0
  0
LWPOLYLINE
  5
1FA
330
17
100
AcDbEntity
  8
G-FLAGG
100
AcDbPolyline
 90
4
 70
1
 10
197.0
 20
401.6666666666667
 10
223.66666666666669
 20
401.6666666666667
 10
223.66666666666669
 20
435.0
 10
197.0
 20
435.0
  0
HATCH
  5
1FB
330
17
100
AcDbEntity
  8
M-HATCH
 62
7
100
AcDbHatch
 10
0.0
 20
0.0
 30
0.0
210
0.0
220
0.0
230
1.0
  2
ANSI31
 70
0
 71
0
 91
1
 92
3
 72
0
 73
1
 93
4
 10
137.0
 20
300.0
 10
283.66666666666663
 20
300.0
 10
283.66666666666663
 20
341.3333333333333
 10
137.0
 20
341.3333333333333
 97
0
 75
1
 76
1
 52
0.0
 41
1.6
 77
0
 78
1
 53
45.0
 43
0.0
 44
0.0
 45
-3.5921024485
 46
3.5921024485
 79
0
 98
0
  0
TEXT
  5
1FC
330
17
100
AcDbEntity
  8
G-STRUCT
100
AcDbText
 10
210.33333333333331
 20
328.0
 30
0.0
 40
2.4
  1
UNDERGROUND BOX   22 000 x 6 200
  7
OpenSans
 72
1
 11
210.33333333333331
 21
328.0
 31
0.0
100
AcDbText
 73
2
  0
TEXT
  5
1FD
330
17
100
AcDbEntity
  8
M-TEXT
100
AcDbText
 10
210.33333333333331
 20
319.3333333333333
 30
0.0
 40
1.9
  1
ROOF TOP (-)2.000 UNDER 2 000 OF ENGINEERED COVER
  7
OpenSans
 72
1
 11
210.33333333333331
 21
319.3333333333333
 31
0.0
100
AcDbText
 73
2
  0
TEXT
  5
1FE
330
17
100
AcDbEntity
  8
M-FLAG
100
AcDbText
 10
210.33333333333331
 20
310.6666666666667
 30
0.0
 40
1.9
  1
*** NO PIPE, PIT OR CHAMBER ON THE COVER ***
  7
OpenSans
 72
1
 11
210.33333333333331
 21
310.6666666666667
 31
0.0
100
AcDbText
 73
2
  0
TEXT
  5
1FF
330
17
100
AcDbEntity
  8
G-NODATA
100
AcDbText
 10
131.0
 20
350.0
 30
0.0
 40
1.8
  1
EXCAVATION + 1 000 WORKING SPACE
  7
OpenSans
 11
131.0
 21
350.0
 31
0.0
100
AcDbText
  0
TEXT
  5
200
330
17
100
AcDbEntity
  8
G-STRUCT
100
AcDbText
 10
243.66666666666669
 20
335.3333333333333
 30
0.0
 40
1.8
  1
HEADHOUSE
  7
OpenSans
 72
1
 11
243.66666666666669
 21
335.3333333333333
 31
0.0
100
AcDbText
 73
2
  0
TEXT
  5
201
330
17
100
AcDbEntity
  8
G-STRUCT
100
AcDbText
 10
221.33333333333331
 20
345.3333333333333
 30
0.0
 40
1.8
  1
ENTRY STAIRWELL
  7
OpenSans
 72
1
 11
221.33333333333331
 21
345.3333333333333
 31
0.0
100
AcDbText
 73
2
  0
TEXT
  5
202
330
17
100
AcDbEntity
  8
M-FLAG
100
AcDbText
 10
130.33333333333334
 20
344.0
 30
0.0
 40
1.8
  1
ENTRY, GRADE DOOR
  7
OpenSans
 72
2
 11
130.33333333333334
 21
344.0
 31
0.0
100
AcDbText
  0
LWPOLYLINE
  5
203
330
17
100
AcDbEntity
  8
M-FLAG
100
AcDbPolyline
 90
3
 70
1
 10
197.6
 20
345.0
 10
193.96
 20
346.17
 10
193.96
 20
343.83
  0
LINE
  5
204
330
17
100
AcDbEntity
  8
M-FLAG
100
AcDbLine
 10
131.66666666666666
 20
345.0
 30
0.0
 11
193.66666666666666
 21
345.0
 31
0.0
  0
TEXT
  5
205
330
17
100
AcDbEntity
  8
G-STRUCT
100
AcDbText
 10
289.6533333333333
 20
322.6666666666667
 30
0.0
 40
1.7
  1
SH-2
  7
OpenSans
 72
1
 11
289.6533333333333
 21
322.6666666666667
 31
0.0
100
AcDbText
 73
2
  0
TEXT
  5
206
330
17
100
AcDbEntity
  8
G-STRUCT
100
AcDbText
 10
150.66666666666666
 20
313.6666666666667
 30
0.0
 40
1.7
  1
ESC 1
  7
OpenSans
 72
1
 11
150.66666666666666
 21
313.6666666666667
 31
0.0
100
AcDbText
 73
2
  0
TEXT
  5
207
330
17
100
AcDbEntity
  8
G-STRUCT
100
AcDbText
 10
269.66666666666663
 20
313.6666666666667
 30
0.0
 40
1.7
  1
ESC 2
  7
OpenSans
 72
1
 11
269.66666666666663
 21
313.6666666666667
 31
0.0
100
AcDbText
 73
2
  0
TEXT
  5
208
330
17
100
AcDbEntity
  8
G-FLAGG
100
AcDbText
 10
210.33333333333331
 20
422.6666666666667
 30
0.0
 40
2.0
  1
SENTRY POST
  7
OpenSans
 72
1
 11
210.33333333333331
 21
422.6666666666667
 31
0.0
100
AcDbText
 73
2
  0
TEXT
  5
209
330
17
100
AcDbEntity
  8
M-FLAG
100
AcDbText
 10
210.33333333333331
 20
414.6666666666667
 30
0.0
 40
1.8
  1
POSITION ASSUMED - master U4
  7
OpenSans
 72
1
 11
210.33333333333331
 21
414.6666666666667
 31
0.0
100
AcDbText
 73
2
  0
TEXT
  5
20A
330
17
100
AcDbEntity
  8
M-FLAG
100
AcDbText
 10
210.33333333333331
 20
408.0
 30
0.0
 40
1.8
  1
NOTHING HERE IS DIMENSIONED FROM IT
  7
OpenSans
 72
1
 11
210.33333333333331
 21
408.0
 31
0.0
100
AcDbText
 73
2
  0
LINE
  5
20B
330
17
100
AcDbEntity
  8
G-FLAGG
100
AcDbLine
 10
114.33333333333333
 20
309.3333333333333
 30
0.0
 11
116.33333333333333
 21
309.3333333333333
 31
0.0
  0
LINE
  5
20C
330
17
100
AcDbEntity
  8
G-FLAGG
100
AcDbLine
 10
117.93333333333332
 20
309.3333333333333
 30
0.0
 11
119.93333333333332
 21
309.3333333333333
 31
0.0
  0
LINE
  5
20D
330
17
100
AcDbEntity
  8
G-FLAGG
100
AcDbLine
 10
121.53333333333333
 20
309.3333333333333
 30
0.0
 11
123.53333333333333
 21
309.3333333333333
 31
0.0
  0
LINE
  5
20E
330
17
100
AcDbEntity
  8
G-FLAGG
100
AcDbLine
 10
125.0
 20
309.3333333333333
 30
0.0
 11
125.0
 21
311.3333333333333
 31
0.0
  0
LINE
  5
20F
330
17
100
AcDbEntity
  8
G-FLAGG
100
AcDbLine
 10
125.0
 20
312.93333333333334
 30
0.0
 11
125.0
 21
314.93333333333334
 31
0.0
  0
LINE
  5
210
330
17
100
AcDbEntity
  8
G-FLAGG
100
AcDbLine
 10
125.0
 20
316.5333333333333
 30
0.0
 11
125.0
 21
318.0
 31
0.0
  0
LINE
  5
211
330
17
100
AcDbEntity
  8
G-FLAGG
100
AcDbLine
 10
125.0
 20
318.0
 30
0.0
 11
123.0
 21
318.0
 31
0.0
  0
LINE
  5
212
330
17
100
AcDbEntity
  8
G-FLAGG
100
AcDbLine
 10
121.4
 20
318.0
 30
0.0
 11
119.4
 21
318.0
 31
0.0
  0
LINE
  5
213
330
17
100
AcDbEntity
  8
G-FLAGG
100
AcDbLine
 10
117.8
 20
318.0
 30
0.0
 11
115.8
 21
318.0
 31
0.0
  0
LINE
  5
214
330
17
100
AcDbEntity
  8
G-FLAGG
100
AcDbLine
 10
114.33333333333333
 20
318.0
 30
0.0
 11
114.33333333333333
 21
316.0
 31
0.0
  0
LINE
  5
215
330
17
100
AcDbEntity
  8
G-FLAGG
100
AcDbLine
 10
114.33333333333333
 20
314.4
 30
0.0
 11
114.33333333333333
 21
312.4
 31
0.0
  0
LINE
  5
216
330
17
100
AcDbEntity
  8
G-FLAGG
100
AcDbLine
 10
114.33333333333333
 20
310.8
 30
0.0
 11
114.33333333333333
 21
309.3333333333333
 31
0.0
  0
TEXT
  5
217
330
17
100
AcDbEntity
  8
G-FLAGG
100
AcDbText
 10
119.66666666666667
 20
313.6666666666667
 30
0.0
 40
1.7
  1
SH-1 ?
  7
OpenSans
 72
1
 11
119.66666666666667
 21
313.6666666666667
 31
0.0
100
AcDbText
 73
2
  0
TEXT
  5
218
330
17
100
AcDbEntity
  8
M-FLAG
100
AcDbText
 10
33.66666666666667
 20
292.0
 30
0.0
 40
1.8
  1
SH-1 FRESH-AIR INTAKE.  'WEST OF THE BOX' IS THE WHOLE
  7
OpenSans
 11
33.66666666666667
 21
292.0
 31
0.0
100
AcDbText
  0
TEXT
  5
219
330
17
100
AcDbEntity
  8
M-FLAG
100
AcDbText
 10
33.66666666666667
 20
284.0
 30
0.0
 40
1.8
  1
OF WHAT THE PROJECT RECORDS.  NO X, NO Y.  SHOWN
  7
OpenSans
 11
33.66666666666667
 21
284.0
 31
0.0
100
AcDbText
  0
TEXT
  5
21A
330
17
100
AcDbEntity
  8
M-FLAG
100
AcDbText
 10
33.66666666666667
 20
276.0
 30
0.0
 40
1.8
  1
INDICATIVELY ONLY.   SG2-V3
  7
OpenSans
 11
33.66666666666667
 21
276.0
 31
0.0
100
AcDbText
  0
LWPOLYLINE
  5
21B
330
17
100
AcDbEntity
  8
G-FLAGG
100
AcDbPolyline
 90
4
 70
1
 10
357.0
 20
343.3333333333333
 10
477.0
 20
343.3333333333333
 10
477.0
 20
416.6666666666667
 10
357.0
 20
416.6666666666667
  0
TEXT
  5
21C
330
17
100
AcDbEntity
  8
G-FLAGG
100
AcDbText
 10
417.0
 20
421.6666666666667
 30
0.0
 40
2.4
  1
EXTERNAL WORKS RESERVE
  7
OpenSans
 72
1
 11
417.0
 21
421.6666666666667
 31
0.0
100
AcDbText
 73
2
  0
TEXT
  5
21D
330
17
100
AcDbEntity
  8
M-TEXT
100
AcDbText
 10
417.0
 20
418.4666666666667
 30
0.0
 40
1.8
  1
18.0 x 11.0 m  -  DOWNGRADIENT, 10 m CLEAR OF THE EXCAVATION
  7
OpenSans
 72
1
 11
417.0
 21
418.4666666666667
 31
0.0
100
AcDbText
 73
2
  0
LINE
  5
21E
330
17
100
AcDbEntity
  8
G-MURRUM
100
AcDbLine
 10
360.33333333333337
 20
370.0
 30
0.0
 11
362.53333333333336
 21
370.0
 31
0.0
  0
LINE
  5
21F
330
17
100
AcDbEntity
  8
G-MURRUM
100
AcDbLine
 10
364.73333333333335
 20
370.0
 30
0.0
 11
366.9333333333334
 21
370.0
 31
0.0
  0
LINE
  5
220
330
17
100
AcDbEntity
  8
G-MURRUM
100
AcDbLine
 10
369.1333333333334
 20
370.0
 30
0.0
 11
371.33333333333337
 21
370.0
 31
0.0
  0
LINE
  5
221
330
17
100
AcDbEntity
  8
G-MURRUM
100
AcDbLine
 10
373.53333333333336
 20
370.0
 30
0.0
 11
375.73333333333335
 21
370.0
 31
0.0
  0
LINE
  5
222
330
17
100
AcDbEntity
  8
G-MURRUM
100
AcDbLine
 10
377.9333333333334
 20
370.0
 30
0.0
 11
380.1333333333334
 21
370.0
 31
0.0
  0
LINE
  5
223
330
17
100
AcDbEntity
  8
G-MURRUM
100
AcDbLine
 10
382.33333333333337
 20
370.0
 30
0.0
 11
384.53333333333336
 21
370.0
 31
0.0
  0
LINE
  5
224
330
17
100
AcDbEntity
  8
G-MURRUM
100
AcDbLine
 10
386.73333333333335
 20
370.0
 30
0.0
 11
388.9333333333334
 21
370.0
 31
0.0
  0
LINE
  5
225
330
17
100
AcDbEntity
  8
G-MURRUM
100
AcDbLine
 10
391.1333333333334
 20
370.0
 30
0.0
 11
393.33333333333337
 21
370.0
 31
0.0
  0
LINE
  5
226
330
17
100
AcDbEntity
  8
G-MURRUM
100
AcDbLine
 10
395.53333333333336
 20
370.0
 30
0.0
 11
397.73333333333335
 21
370.0
 31
0.0
  0
LINE
  5
227
330
17
100
AcDbEntity
  8
G-MURRUM
100
AcDbLine
 10
399.9333333333334
 20
370.0
 30
0.0
 11
402.1333333333334
 21
370.0
 31
0.0
  0
LINE
  5
228
330
17
100
AcDbEntity
  8
G-MURRUM
100
AcDbLine
 10
404.33333333333337
 20
370.0
 30
0.0
 11
406.53333333333336
 21
370.0
 31
0.0
  0
LINE
  5
229
330
17
100
AcDbEntity
  8
G-MURRUM
100
AcDbLine
 10
408.7333333333334
 20
370.0
 30
0.0
 11
410.9333333333334
 21
370.0
 31
0.0
  0
LINE
  5
22A
330
17
100
AcDbEntity
  8
G-MURRUM
100
AcDbLine
 10
413.1333333333334
 20
370.0
 30
0.0
 11
415.33333333333337
 21
370.0
 31
0.0
  0
LINE
  5
22B
330
17
100
AcDbEntity
  8
G-MURRUM
100
AcDbLine
 10
417.5333333333334
 20
370.0
 30
0.0
 11
419.7333333333334
 21
370.0
 31
0.0
  0
LINE
  5
22C
330
17
100
AcDbEntity
  8
G-MURRUM
100
AcDbLine
 10
421.9333333333334
 20
370.0
 30
0.0
 11
424.1333333333334
 21
370.0
 31
0.0
  0
LINE
  5
22D
330
17
100
AcDbEntity
  8
G-MURRUM
100
AcDbLine
 10
426.33333333333337
 20
370.0
 30
0.0
 11
428.5333333333334
 21
370.0
 31
0.0
  0
LINE
  5
22E
330
17
100
AcDbEntity
  8
G-MURRUM
100
AcDbLine
 10
430.7333333333334
 20
370.0
 30
0.0
 11
432.9333333333334
 21
370.0
 31
0.0
  0
LINE
  5
22F
330
17
100
AcDbEntity
  8
G-MURRUM
100
AcDbLine
 10
435.13333333333344
 20
370.0
 30
0.0
 11
437.3333333333334
 21
370.0
 31
0.0
  0
LINE
  5
230
330
17
100
AcDbEntity
  8
G-MURRUM
100
AcDbLine
 10
439.5333333333334
 20
370.0
 30
0.0
 11
441.7333333333334
 21
370.0
 31
0.0
  0
LINE
  5
231
330
17
100
AcDbEntity
  8
G-MURRUM
100
AcDbLine
 10
443.9333333333334
 20
370.0
 30
0.0
 11
446.13333333333344
 21
370.0
 31
0.0
  0
LINE
  5
232
330
17
100
AcDbEntity
  8
G-MURRUM
100
AcDbLine
 10
448.3333333333334
 20
370.0
 30
0.0
 11
450.5333333333334
 21
370.0
 31
0.0
  0
LINE
  5
233
330
17
100
AcDbEntity
  8
G-MURRUM
100
AcDbLine
 10
452.73333333333346
 20
370.0
 30
0.0
 11
454.93333333333345
 21
370.0
 31
0.0
  0
LINE
  5
234
330
17
100
AcDbEntity
  8
G-MURRUM
100
AcDbLine
 10
457.0
 20
370.0
 30
0.0
 11
457.0
 21
372.2
 31
0.0
  0
LINE
  5
235
330
17
100
AcDbEntity
  8
G-MURRUM
100
AcDbLine
 10
457.0
 20
374.4
 30
0.0
 11
457.0
 21
376.6
 31
0.0
  0
LINE
  5
236
330
17
100
AcDbEntity
  8
G-MURRUM
100
AcDbLine
 10
457.0
 20
378.8
 30
0.0
 11
457.0
 21
381.0
 31
0.0
  0
LINE
  5
237
330
17
100
AcDbEntity
  8
G-MURRUM
100
AcDbLine
 10
457.0
 20
383.2
 30
0.0
 11
457.0
 21
385.4
 31
0.0
  0
LINE
  5
238
330
17
100
AcDbEntity
  8
G-MURRUM
100
AcDbLine
 10
457.0
 20
387.6
 30
0.0
 11
457.0
 21
389.8
 31
0.0
  0
LINE
  5
239
330
17
100
AcDbEntity
  8
G-MURRUM
100
AcDbLine
 10
457.0
 20
392.0
 30
0.0
 11
457.0
 21
394.2
 31
0.0
  0
LINE
  5
23A
330
17
100
AcDbEntity
  8
G-MURRUM
100
AcDbLine
 10
457.0
 20
396.4
 30
0.0
 11
457.0
 21
398.6
 31
0.0
  0
LINE
  5
23B
330
17
100
AcDbEntity
  8
G-MURRUM
100
AcDbLine
 10
457.0
 20
400.8
 30
0.0
 11
457.0
 21
403.0
 31
0.0
  0
LINE
  5
23C
330
17
100
AcDbEntity
  8
G-MURRUM
100
AcDbLine
 10
457.0
 20
405.2
 30
0.0
 11
457.0
 21
407.4
 31
0.0
  0
LINE
  5
23D
330
17
100
AcDbEntity
  8
G-MURRUM
100
AcDbLine
 10
457.0
 20
409.6
 30
0.0
 11
457.0
 21
411.8
 31
0.0
  0
LINE
  5
23E
330
17
100
AcDbEntity
  8
G-MURRUM
100
AcDbLine
 10
457.0
 20
413.3333333333333
 30
0.0
 11
454.8
 21
413.3333333333333
 31
0.0
  0
LINE
  5
23F
330
17
100
AcDbEntity
  8
G-MURRUM
100
AcDbLine
 10
452.6
 20
413.3333333333333
 30
0.0
 11
450.4
 21
413.3333333333333
 31
0.0
  0
LINE
  5
240
330
17
100
AcDbEntity
  8
G-MURRUM
100
AcDbLine
 10
448.2
 20
413.3333333333333
 30
0.0
 11
446.0
 21
413.3333333333333
 31
0.0
  0
LINE
  5
241
330
17
100
AcDbEntity
  8
G-MURRUM
100
AcDbLine
 10
443.8
 20
413.3333333333333
 30
0.0
 11
441.6
 21
413.3333333333333
 31
0.0
  0
LINE
  5
242
330
17
100
AcDbEntity
  8
G-MURRUM
100
AcDbLine
 10
439.4
 20
413.3333333333333
 30
0.0
 11
437.2
 21
413.3333333333333
 31
0.0
  0
LINE
  5
243
330
17
100
AcDbEntity
  8
G-MURRUM
100
AcDbLine
 10
435.0
 20
413.3333333333333
 30
0.0
 11
432.8
 21
413.3333333333333
 31
0.0
  0
LINE
  5
244
330
17
100
AcDbEntity
  8
G-MURRUM
100
AcDbLine
 10
430.6
 20
413.3333333333333
 30
0.0
 11
428.4
 21
413.3333333333333
 31
0.0
  0
LINE
  5
245
330
17
100
AcDbEntity
  8
G-MURRUM
100
AcDbLine
 10
426.2
 20
413.3333333333333
 30
0.0
 11
424.0
 21
413.3333333333333
 31
0.0
  0
LINE
  5
246
330
17
100
AcDbEntity
  8
G-MURRUM
100
AcDbLine
 10
421.8
 20
413.3333333333333
 30
0.0
 11
419.6
 21
413.3333333333333
 31
0.0
  0
LINE
  5
247
330
17
100
AcDbEntity
  8
G-MURRUM
100
AcDbLine
 10
417.4
 20
413.3333333333333
 30
0.0
 11
415.2
 21
413.3333333333333
 31
0.0
  0
LINE
  5
248
330
17
100
AcDbEntity
  8
G-MURRUM
100
AcDbLine
 10
413.0
 20
413.3333333333333
 30
0.0
 11
410.8
 21
413.3333333333333
 31
0.0
  0
LINE
  5
249
330
17
100
AcDbEntity
  8
G-MURRUM
100
AcDbLine
 10
408.59999999999997
 20
413.3333333333333
 30
0.0
 11
406.4
 21
413.3333333333333
 31
0.0
  0
LINE
  5
24A
330
17
100
AcDbEntity
  8
G-MURRUM
100
AcDbLine
 10
404.2
 20
413.3333333333333
 30
0.0
 11
402.0
 21
413.3333333333333
 31
0.0
  0
LINE
  5
24B
330
17
100
AcDbEntity
  8
G-MURRUM
100
AcDbLine
 10
399.79999999999995
 20
413.3333333333333
 30
0.0
 11
397.59999999999997
 21
413.3333333333333
 31
0.0
  0
LINE
  5
24C
330
17
100
AcDbEntity
  8
G-MURRUM
100
AcDbLine
 10
395.4
 20
413.3333333333333
 30
0.0
 11
393.2
 21
413.3333333333333
 31
0.0
  0
LINE
  5
24D
330
17
100
AcDbEntity
  8
G-MURRUM
100
AcDbLine
 10
391.0
 20
413.3333333333333
 30
0.0
 11
388.79999999999995
 21
413.3333333333333
 31
0.0
  0
LINE
  5
24E
330
17
100
AcDbEntity
  8
G-MURRUM
100
AcDbLine
 10
386.59999999999997
 20
413.3333333333333
 30
0.0
 11
384.4
 21
413.3333333333333
 31
0.0
  0
LINE
  5
24F
330
17
100
AcDbEntity
  8
G-MURRUM
100
AcDbLine
 10
382.19999999999993
 20
413.3333333333333
 30
0.0
 11
379.99999999999994
 21
413.3333333333333
 31
0.0
  0
LINE
  5
250
330
17
100
AcDbEntity
  8
G-MURRUM
100
AcDbLine
 10
377.79999999999995
 20
413.3333333333333
 30
0.0
 11
375.59999999999997
 21
413.3333333333333
 31
0.0
  0
LINE
  5
251
330
17
100
AcDbEntity
  8
G-MURRUM
100
AcDbLine
 10
373.4
 20
413.3333333333333
 30
0.0
 11
371.19999999999993
 21
413.3333333333333
 31
0.0
  0
LINE
  5
252
330
17
100
AcDbEntity
  8
G-MURRUM
100
AcDbLine
 10
368.99999999999994
 20
413.3333333333333
 30
0.0
 11
366.79999999999995
 21
413.3333333333333
 31
0.0
  0
LINE
  5
253
330
17
100
AcDbEntity
  8
G-MURRUM
100
AcDbLine
 10
364.5999999999999
 20
413.3333333333333
 30
0.0
 11
362.3999999999999
 21
413.3333333333333
 31
0.0
  0
LINE
  5
254
330
17
100
AcDbEntity
  8
G-MURRUM
100
AcDbLine
 10
360.33333333333337
 20
413.3333333333333
 30
0.0
 11
360.33333333333337
 21
411.1333333333333
 31
0.0
  0
LINE
  5
255
330
17
100
AcDbEntity
  8
G-MURRUM
100
AcDbLine
 10
360.33333333333337
 20
408.93333333333334
 30
0.0
 11
360.33333333333337
 21
406.7333333333333
 31
0.0
  0
LINE
  5
256
330
17
100
AcDbEntity
  8
G-MURRUM
100
AcDbLine
 10
360.33333333333337
 20
404.5333333333333
 30
0.0
 11
360.33333333333337
 21
402.3333333333333
 31
0.0
  0
LINE
  5
257
330
17
100
AcDbEntity
  8
G-MURRUM
100
AcDbLine
 10
360.33333333333337
 20
400.1333333333333
 30
0.0
 11
360.33333333333337
 21
397.93333333333334
 31
0.0
  0
LINE
  5
258
330
17
100
AcDbEntity
  8
G-MURRUM
100
AcDbLine
 10
360.33333333333337
 20
395.7333333333333
 30
0.0
 11
360.33333333333337
 21
393.5333333333333
 31
0.0
  0
LINE
  5
259
330
17
100
AcDbEntity
  8
G-MURRUM
100
AcDbLine
 10
360.33333333333337
 20
391.3333333333333
 30
0.0
 11
360.33333333333337
 21
389.1333333333333
 31
0.0
  0
LINE
  5
25A
330
17
100
AcDbEntity
  8
G-MURRUM
100
AcDbLine
 10
360.33333333333337
 20
386.93333333333334
 30
0.0
 11
360.33333333333337
 21
384.73333333333335
 31
0.0
  0
LINE
  5
25B
330
17
100
AcDbEntity
  8
G-MURRUM
100
AcDbLine
 10
360.33333333333337
 20
382.5333333333333
 30
0.0
 11
360.33333333333337
 21
380.3333333333333
 31
0.0
  0
LINE
  5
25C
330
17
100
AcDbEntity
  8
G-MURRUM
100
AcDbLine
 10
360.33333333333337
 20
378.1333333333333
 30
0.0
 11
360.33333333333337
 21
375.93333333333334
 31
0.0
  0
LINE
  5
25D
330
17
100
AcDbEntity
  8
G-MURRUM
100
AcDbLine
 10
360.33333333333337
 20
373.7333333333333
 30
0.0
 11
360.33333333333337
 21
371.5333333333333
 31
0.0
  0
TEXT
  5
25E
330
17
100
AcDbEntity
  8
G-MURRUM
100
AcDbText
 10
361.9333333333334
 20
371.6
 30
0.0
 40
1.8
  1
DF-1
  7
OpenSans
 11
361.9333333333334
 21
371.6
 31
0.0
100
AcDbText
  0
LINE
  5
25F
330
17
100
AcDbEntity
  8
G-MURRUM
100
AcDbLine
 10
360.33333333333337
 20
345.3333333333333
 30
0.0
 11
362.53333333333336
 21
345.3333333333333
 31
0.0
  0
LINE
  5
260
330
17
100
AcDbEntity
  8
G-MURRUM
100
AcDbLine
 10
364.73333333333335
 20
345.3333333333333
 30
0.0
 11
366.9333333333334
 21
345.3333333333333
 31
0.0
  0
LINE
  5
261
330
17
100
AcDbEntity
  8
G-MURRUM
100
AcDbLine
 10
369.1333333333334
 20
345.3333333333333
 30
0.0
 11
371.33333333333337
 21
345.3333333333333
 31
0.0
  0
LINE
  5
262
330
17
100
AcDbEntity
  8
G-MURRUM
100
AcDbLine
 10
373.53333333333336
 20
345.3333333333333
 30
0.0
 11
375.73333333333335
 21
345.3333333333333
 31
0.0
  0
LINE
  5
263
330
17
100
AcDbEntity
  8
G-MURRUM
100
AcDbLine
 10
377.9333333333334
 20
345.3333333333333
 30
0.0
 11
380.1333333333334
 21
345.3333333333333
 31
0.0
  0
LINE
  5
264
330
17
100
AcDbEntity
  8
G-MURRUM
100
AcDbLine
 10
382.33333333333337
 20
345.3333333333333
 30
0.0
 11
384.53333333333336
 21
345.3333333333333
 31
0.0
  0
LINE
  5
265
330
17
100
AcDbEntity
  8
G-MURRUM
100
AcDbLine
 10
386.73333333333335
 20
345.3333333333333
 30
0.0
 11
388.9333333333334
 21
345.3333333333333
 31
0.0
  0
LINE
  5
266
330
17
100
AcDbEntity
  8
G-MURRUM
100
AcDbLine
 10
391.1333333333334
 20
345.3333333333333
 30
0.0
 11
393.33333333333337
 21
345.3333333333333
 31
0.0
  0
LINE
  5
267
330
17
100
AcDbEntity
  8
G-MURRUM
100
AcDbLine
 10
395.53333333333336
 20
345.3333333333333
 30
0.0
 11
397.73333333333335
 21
345.3333333333333
 31
0.0
  0
LINE
  5
268
330
17
100
AcDbEntity
  8
G-MURRUM
100
AcDbLine
 10
399.9333333333334
 20
345.3333333333333
 30
0.0
 11
402.1333333333334
 21
345.3333333333333
 31
0.0
  0
LINE
  5
269
330
17
100
AcDbEntity
  8
G-MURRUM
100
AcDbLine
 10
404.33333333333337
 20
345.3333333333333
 30
0.0
 11
406.53333333333336
 21
345.3333333333333
 31
0.0
  0
LINE
  5
26A
330
17
100
AcDbEntity
  8
G-MURRUM
100
AcDbLine
 10
408.7333333333334
 20
345.3333333333333
 30
0.0
 11
410.9333333333334
 21
345.3333333333333
 31
0.0
  0
LINE
  5
26B
330
17
100
AcDbEntity
  8
G-MURRUM
100
AcDbLine
 10
413.1333333333334
 20
345.3333333333333
 30
0.0
 11
415.33333333333337
 21
345.3333333333333
 31
0.0
  0
LINE
  5
26C
330
17
100
AcDbEntity
  8
G-MURRUM
100
AcDbLine
 10
417.5333333333334
 20
345.3333333333333
 30
0.0
 11
419.7333333333334
 21
345.3333333333333
 31
0.0
  0
LINE
  5
26D
330
17
100
AcDbEntity
  8
G-MURRUM
100
AcDbLine
 10
421.9333333333334
 20
345.3333333333333
 30
0.0
 11
424.1333333333334
 21
345.3333333333333
 31
0.0
  0
LINE
  5
26E
330
17
100
AcDbEntity
  8
G-MURRUM
100
AcDbLine
 10
426.33333333333337
 20
345.3333333333333
 30
0.0
 11
428.5333333333334
 21
345.3333333333333
 31
0.0
  0
LINE
  5
26F
330
17
100
AcDbEntity
  8
G-MURRUM
100
AcDbLine
 10
430.7333333333334
 20
345.3333333333333
 30
0.0
 11
432.9333333333334
 21
345.3333333333333
 31
0.0
  0
LINE
  5
270
330
17
100
AcDbEntity
  8
G-MURRUM
100
AcDbLine
 10
435.13333333333344
 20
345.3333333333333
 30
0.0
 11
437.3333333333334
 21
345.3333333333333
 31
0.0
  0
LINE
  5
271
330
17
100
AcDbEntity
  8
G-MURRUM
100
AcDbLine
 10
439.5333333333334
 20
345.3333333333333
 30
0.0
 11
441.7333333333334
 21
345.3333333333333
 31
0.0
  0
LINE
  5
272
330
17
100
AcDbEntity
  8
G-MURRUM
100
AcDbLine
 10
443.9333333333334
 20
345.3333333333333
 30
0.0
 11
446.13333333333344
 21
345.3333333333333
 31
0.0
  0
LINE
  5
273
330
17
100
AcDbEntity
  8
G-MURRUM
100
AcDbLine
 10
448.3333333333334
 20
345.3333333333333
 30
0.0
 11
450.5333333333334
 21
345.3333333333333
 31
0.0
  0
LINE
  5
274
330
17
100
AcDbEntity
  8
G-MURRUM
100
AcDbLine
 10
452.73333333333346
 20
345.3333333333333
 30
0.0
 11
454.93333333333345
 21
345.3333333333333
 31
0.0
  0
LINE
  5
275
330
17
100
AcDbEntity
  8
G-MURRUM
100
AcDbLine
 10
457.0
 20
345.3333333333333
 30
0.0
 11
457.0
 21
347.5333333333333
 31
0.0
  0
LINE
  5
276
330
17
100
AcDbEntity
  8
G-MURRUM
100
AcDbLine
 10
457.0
 20
349.7333333333333
 30
0.0
 11
457.0
 21
351.93333333333334
 31
0.0
  0
LINE
  5
277
330
17
100
AcDbEntity
  8
G-MURRUM
100
AcDbLine
 10
457.0
 20
354.1333333333333
 30
0.0
 11
457.0
 21
356.3333333333333
 31
0.0
  0
LINE
  5
278
330
17
100
AcDbEntity
  8
G-MURRUM
100
AcDbLine
 10
457.0
 20
358.5333333333333
 30
0.0
 11
457.0
 21
360.7333333333333
 31
0.0
  0
LINE
  5
279
330
17
100
AcDbEntity
  8
G-MURRUM
100
AcDbLine
 10
457.0
 20
362.93333333333334
 30
0.0
 11
457.0
 21
365.1333333333333
 31
0.0
  0
LINE
  5
27A
330
17
100
AcDbEntity
  8
G-MURRUM
100
AcDbLine
 10
457.0
 20
367.3333333333333
 30
0.0
 11
457.0
 21
368.6666666666667
 31
0.0
  0
LINE
  5
27B
330
17
100
AcDbEntity
  8
G-MURRUM
100
AcDbLine
 10
457.0
 20
368.6666666666667
 30
0.0
 11
454.8
 21
368.6666666666667
 31
0.0
  0
LINE
  5
27C
330
17
100
AcDbEntity
  8
G-MURRUM
100
AcDbLine
 10
452.6
 20
368.6666666666667
 30
0.0
 11
450.4
 21
368.6666666666667
 31
0.0
  0
LINE
  5
27D
330
17
100
AcDbEntity
  8
G-MURRUM
100
AcDbLine
 10
448.2
 20
368.6666666666667
 30
0.0
 11
446.0
 21
368.6666666666667
 31
0.0
  0
LINE
  5
27E
330
17
100
AcDbEntity
  8
G-MURRUM
100
AcDbLine
 10
443.8
 20
368.6666666666667
 30
0.0
 11
441.6
 21
368.6666666666667
 31
0.0
  0
LINE
  5
27F
330
17
100
AcDbEntity
  8
G-MURRUM
100
AcDbLine
 10
439.4
 20
368.6666666666667
 30
0.0
 11
437.2
 21
368.6666666666667
 31
0.0
  0
LINE
  5
280
330
17
100
AcDbEntity
  8
G-MURRUM
100
AcDbLine
 10
435.0
 20
368.6666666666667
 30
0.0
 11
432.8
 21
368.6666666666667
 31
0.0
  0
LINE
  5
281
330
17
100
AcDbEntity
  8
G-MURRUM
100
AcDbLine
 10
430.6
 20
368.6666666666667
 30
0.0
 11
428.4
 21
368.6666666666667
 31
0.0
  0
LINE
  5
282
330
17
100
AcDbEntity
  8
G-MURRUM
100
AcDbLine
 10
426.2
 20
368.6666666666667
 30
0.0
 11
424.0
 21
368.6666666666667
 31
0.0
  0
LINE
  5
283
330
17
100
AcDbEntity
  8
G-MURRUM
100
AcDbLine
 10
421.8
 20
368.6666666666667
 30
0.0
 11
419.6
 21
368.6666666666667
 31
0.0
  0
LINE
  5
284
330
17
100
AcDbEntity
  8
G-MURRUM
100
AcDbLine
 10
417.4
 20
368.6666666666667
 30
0.0
 11
415.2
 21
368.6666666666667
 31
0.0
  0
LINE
  5
285
330
17
100
AcDbEntity
  8
G-MURRUM
100
AcDbLine
 10
413.0
 20
368.6666666666667
 30
0.0
 11
410.8
 21
368.6666666666667
 31
0.0
  0
LINE
  5
286
330
17
100
AcDbEntity
  8
G-MURRUM
100
AcDbLine
 10
408.59999999999997
 20
368.6666666666667
 30
0.0
 11
406.4
 21
368.6666666666667
 31
0.0
  0
LINE
  5
287
330
17
100
AcDbEntity
  8
G-MURRUM
100
AcDbLine
 10
404.2
 20
368.6666666666667
 30
0.0
 11
402.0
 21
368.6666666666667
 31
0.0
  0
LINE
  5
288
330
17
100
AcDbEntity
  8
G-MURRUM
100
AcDbLine
 10
399.79999999999995
 20
368.6666666666667
 30
0.0
 11
397.59999999999997
 21
368.6666666666667
 31
0.0
  0
LINE
  5
289
330
17
100
AcDbEntity
  8
G-MURRUM
100
AcDbLine
 10
395.4
 20
368.6666666666667
 30
0.0
 11
393.2
 21
368.6666666666667
 31
0.0
  0
LINE
  5
28A
330
17
100
AcDbEntity
  8
G-MURRUM
100
AcDbLine
 10
391.0
 20
368.6666666666667
 30
0.0
 11
388.79999999999995
 21
368.6666666666667
 31
0.0
  0
LINE
  5
28B
330
17
100
AcDbEntity
  8
G-MURRUM
100
AcDbLine
 10
386.59999999999997
 20
368.6666666666667
 30
0.0
 11
384.4
 21
368.6666666666667
 31
0.0
  0
LINE
  5
28C
330
17
100
AcDbEntity
  8
G-MURRUM
100
AcDbLine
 10
382.19999999999993
 20
368.6666666666667
 30
0.0
 11
379.99999999999994
 21
368.6666666666667
 31
0.0
  0
LINE
  5
28D
330
17
100
AcDbEntity
  8
G-MURRUM
100
AcDbLine
 10
377.79999999999995
 20
368.6666666666667
 30
0.0
 11
375.59999999999997
 21
368.6666666666667
 31
0.0
  0
LINE
  5
28E
330
17
100
AcDbEntity
  8
G-MURRUM
100
AcDbLine
 10
373.4
 20
368.6666666666667
 30
0.0
 11
371.19999999999993
 21
368.6666666666667
 31
0.0
  0
LINE
  5
28F
330
17
100
AcDbEntity
  8
G-MURRUM
100
AcDbLine
 10
368.99999999999994
 20
368.6666666666667
 30
0.0
 11
366.79999999999995
 21
368.6666666666667
 31
0.0
  0
LINE
  5
290
330
17
100
AcDbEntity
  8
G-MURRUM
100
AcDbLine
 10
364.5999999999999
 20
368.6666666666667
 30
0.0
 11
362.3999999999999
 21
368.6666666666667
 31
0.0
  0
LINE
  5
291
330
17
100
AcDbEntity
  8
G-MURRUM
100
AcDbLine
 10
360.33333333333337
 20
368.6666666666667
 30
0.0
 11
360.33333333333337
 21
366.4666666666667
 31
0.0
  0
LINE
  5
292
330
17
100
AcDbEntity
  8
G-MURRUM
100
AcDbLine
 10
360.33333333333337
 20
364.2666666666667
 30
0.0
 11
360.33333333333337
 21
362.06666666666666
 31
0.0
  0
LINE
  5
293
330
17
100
AcDbEntity
  8
G-MURRUM
100
AcDbLine
 10
360.33333333333337
 20
359.8666666666667
 30
0.0
 11
360.33333333333337
 21
357.6666666666667
 31
0.0
  0
LINE
  5
294
330
17
100
AcDbEntity
  8
G-MURRUM
100
AcDbLine
 10
360.33333333333337
 20
355.4666666666667
 30
0.0
 11
360.33333333333337
 21
353.2666666666667
 31
0.0
  0
LINE
  5
295
330
17
100
AcDbEntity
  8
G-MURRUM
100
AcDbLine
 10
360.33333333333337
 20
351.06666666666666
 30
0.0
 11
360.33333333333337
 21
348.8666666666667
 31
0.0
  0
LINE
  5
296
330
17
100
AcDbEntity
  8
G-MURRUM
100
AcDbLine
 10
360.33333333333337
 20
346.6666666666667
 30
0.0
 11
360.33333333333337
 21
345.3333333333333
 31
0.0
  0
TEXT
  5
297
330
17
100
AcDbEntity
  8
G-MURRUM
100
AcDbText
 10
361.9333333333334
 20
346.93333333333334
 30
0.0
 40
1.8
  1
DF-2
  7
OpenSans
 11
361.9333333333334
 21
346.93333333333334
 31
0.0
100
AcDbText
  0
CIRCLE
  5
298
330
17
100
AcDbEntity
  8
G-STRUCT
100
AcDbCircle
 10
370.33333333333337
 20
356.6666666666667
 30
0.0
 40
7.333333333333333
  0
CIRCLE
  5
299
330
17
100
AcDbEntity
  8
G-STRUCT
100
AcDbCircle
 10
370.33333333333337
 20
356.6666666666667
 30
0.0
 40
0.6
  0
TEXT
  5
29A
330
17
100
AcDbEntity
  8
G-STRUCT
100
AcDbText
 10
370.33333333333337
 20
365.2
 30
0.0
 40
1.9
  1
SK-02
  7
OpenSans
 72
1
 11
370.33333333333337
 21
365.2
 31
0.0
100
AcDbText
 73
2
  0
CIRCLE
  5
29B
330
17
100
AcDbEntity
  8
G-STRUCT
100
AcDbCircle
 10
413.0
 20
356.6666666666667
 30
0.0
 40
7.333333333333333
  0
CIRCLE
  5
29C
330
17
100
AcDbEntity
  8
G-STRUCT
100
AcDbCircle
 10
413.0
 20
356.6666666666667
 30
0.0
 40
0.6
  0
TEXT
  5
29D
330
17
100
AcDbEntity
  8
G-STRUCT
100
AcDbText
 10
413.0
 20
365.2
 30
0.0
 40
1.9
  1
SK-03
  7
OpenSans
 72
1
 11
413.0
 21
365.2
 31
0.0
100
AcDbText
 73
2
  0
CIRCLE
  5
29E
330
17
100
AcDbEntity
  8
G-STRUCT
100
AcDbCircle
 10
455.6666666666667
 20
356.6666666666667
 30
0.0
 40
7.333333333333333
  0
CIRCLE
  5
29F
330
17
100
AcDbEntity
  8
G-STRUCT
100
AcDbCircle
 10
455.6666666666667
 20
356.6666666666667
 30
0.0
 40
0.6
  0
TEXT
  5
2A0
330
17
100
AcDbEntity
  8
G-STRUCT
100
AcDbText
 10
455.6666666666667
 20
365.2
 30
0.0
 40
1.9
  1
SK-04
  7
OpenSans
 72
1
 11
455.6666666666667
 21
365.2
 31
0.0
100
AcDbText
 73
2
  0
CIRCLE
  5
2A1
330
17
100
AcDbEntity
  8
G-FLAGG
100
AcDbCircle
 10
430.3333333333333
 20
406.6666666666667
 30
0.0
 40
7.333333333333333
  0
CIRCLE
  5
2A2
330
17
100
AcDbEntity
  8
G-FLAGG
100
AcDbCircle
 10
430.3333333333333
 20
406.6666666666667
 30
0.0
 40
0.6
  0
TEXT
  5
2A3
330
17
100
AcDbEntity
  8
G-FLAGG
100
AcDbText
 10
430.3333333333333
 20
415.2
 30
0.0
 40
1.9
  1
SK-01
  7
OpenSans
 72
1
 11
430.3333333333333
 21
415.2
 31
0.0
100
AcDbText
 73
2
  0
LWPOLYLINE
  5
2A4
330
17
100
AcDbEntity
  8
G-STRUCT
100
AcDbPolyline
 90
4
 70
1
 10
377.0
 20
404.1666666666667
 10
387.0
 20
404.1666666666667
 10
387.0
 20
409.1666666666667
 10
377.0
 20
409.1666666666667
  0
TEXT
  5
2A5
330
17
100
AcDbEntity
  8
G-STRUCT
100
AcDbText
 10
382.0
 20
410.3666666666667
 30
0.0
 40
1.9
  1
ST-01
  7
OpenSans
 72
1
 11
382.0
 21
410.3666666666667
 31
0.0
100
AcDbText
 73
2
  0
LWPOLYLINE
  5
2A6
330
17
100
AcDbEntity
  8
G-STRUCT
100
AcDbPolyline
 90
4
 70
1
 10
403.0
 20
405.1666666666667
 10
407.0
 20
405.1666666666667
 10
407.0
 20
408.1666666666667
 10
403.0
 20
408.1666666666667
  0
TEXT
  5
2A7
330
17
100
AcDbEntity
  8
G-STRUCT
100
AcDbText
 10
405.0
 20
409.3666666666667
 30
0.0
 40
1.9
  1
IC-02
  7
OpenSans
 72
1
 11
405.0
 21
409.3666666666667
 31
0.0
100
AcDbText
 73
2
  0
LWPOLYLINE
  5
2A8
330
17
100
AcDbEntity
  8
G-STRUCT
100
AcDbPolyline
 90
4
 70
1
 10
185.0
 20
363.8333333333333
 10
189.0
 20
363.8333333333333
 10
189.0
 20
366.8333333333333
 10
185.0
 20
366.8333333333333
  0
TEXT
  5
2A9
330
17
100
AcDbEntity
  8
G-STRUCT
100
AcDbText
 10
187.0
 20
368.0333333333333
 30
0.0
 40
1.9
  1
IC-01
  7
OpenSans
 72
1
 11
187.0
 21
368.0333333333333
 31
0.0
100
AcDbText
 73
2
  0
LWPOLYLINE
  5
2AA
330
17
100
AcDbEntity
  8
P-DRAIN-SOIL
100
AcDbPolyline
 90
2
 70
0
 10
387.0
 20
406.6666666666667
 10
423.0
 20
406.6666666666667
  0
LWPOLYLINE
  5
2AB
330
17
100
AcDbEntity
  8
P-DRAIN-STORM
100
AcDbPolyline
 90
6
 70
0
 10
215.65333333333334
 20
341.3333333333333
 10
215.65333333333334
 20
344.6666666666667
 10
247.0
 20
344.6666666666667
 10
247.0
 20
365.3333333333333
 10
370.33333333333337
 20
365.3333333333333
 10
370.33333333333337
 20
364.0
  0
LWPOLYLINE
  5
2AC
330
17
100
AcDbEntity
  8
P-DRAIN-STORM
100
AcDbPolyline
 90
5
 70
0
 10
197.66666666666666
 20
345.0
 10
187.0
 20
345.0
 10
187.0
 20
365.3333333333333
 10
370.33333333333337
 20
365.3333333333333
 10
370.33333333333337
 20
364.0
  0
LWPOLYLINE
  5
2AD
330
17
100
AcDbEntity
  8
P-DRAIN-STORM
100
AcDbPolyline
 90
5
 70
0
 10
237.33333333333331
 20
345.0
 10
247.0
 20
345.0
 10
247.0
 20
365.3333333333333
 10
413.0
 20
365.3333333333333
 10
413.0
 20
364.0
  0
TEXT
  5
2AE
330
17
100
AcDbEntity
  8
P-DRAIN-STORM
100
AcDbText
 10
297.0
 20
366.7333333333333
 30
0.0
 40
1.8
  1
PD-11  32.4 m
  7
OpenSans
 11
297.0
 21
366.7333333333333
 31
0.0
100
AcDbText
  0
TEXT
  5
2AF
330
17
100
AcDbEntity
  8
P-DRAIN-SOIL
100
AcDbText
 10
387.66666666666663
 20
410.06666666666666
 30
0.0
 40
1.8
  1
PD-16  5.4 m
  7
OpenSans
 11
387.66666666666663
 21
410.06666666666666
 31
0.0
100
AcDbText
  0
TEXT
  5
2B0
330
17
100
AcDbEntity
  8
M-SECTION
100
AcDbText
 10
197.0
 20
362.1333333333333
 30
0.0
 40
1.8
  1
COMMON SERVICES TRENCH  -  PD-06 + PD-11 + PD-13 SHARE IT
  7
OpenSans
 11
197.0
 21
362.1333333333333
 31
0.0
100
AcDbText
  0
LINE
  5
2B1
330
17
100
AcDbEntity
  8
G-NODATA
100
AcDbLine
 10
427.7333333333333
 20
404.06666666666666
 30
0.0
 11
432.93333333333334
 21
409.2666666666667
 31
0.0
  0
LINE
  5
2B2
330
17
100
AcDbEntity
  8
G-NODATA
100
AcDbLine
 10
427.7333333333333
 20
409.2666666666667
 30
0.0
 11
432.93333333333334
 21
404.06666666666666
 31
0.0
  0
TEXT
  5
2B3
330
17
100
AcDbEntity
  8
G-NODATA
100
AcDbText
 10
433.7333333333333
 20
404.06666666666666
 30
0.0
 40
1.8
  1
PT-1
  7
OpenSans
 11
433.7333333333333
 21
404.06666666666666
 31
0.0
100
AcDbText
  0
LINE
  5
2B4
330
17
100
AcDbEntity
  8
G-NODATA
100
AcDbLine
 10
367.73333333333335
 20
354.06666666666666
 30
0.0
 11
372.9333333333334
 21
359.2666666666667
 31
0.0
  0
LINE
  5
2B5
330
17
100
AcDbEntity
  8
G-NODATA
100
AcDbLine
 10
367.73333333333335
 20
359.2666666666667
 30
0.0
 11
372.9333333333334
 21
354.06666666666666
 31
0.0
  0
TEXT
  5
2B6
330
17
100
AcDbEntity
  8
G-NODATA
100
AcDbText
 10
373.73333333333335
 20
354.06666666666666
 30
0.0
 40
1.8
  1
PT-2
  7
OpenSans
 11
373.73333333333335
 21
354.06666666666666
 31
0.0
100
AcDbText
  0
TEXT
  5
2B7
330
17
100
AcDbEntity
  8
G-NODATA
100
AcDbText
 10
360.33333333333337
 20
334.6666666666667
 30
0.0
 40
1.8
  1
PT-1 / PT-2  PERCOLATION TESTS, EACH AT ITS OWN PIT
  7
OpenSans
 11
360.33333333333337
 21
334.6666666666667
 31
0.0
100
AcDbText
  0
DIMENSION
  5
2B8
330
17
100
AcDbEntity
  8
S-DIM
100
AcDbDimension
280
0
  2
*D1
  3
SC-DIM
 10
387.0
 20
400.6666666666667
 30
0.0
 11
405.0
 21
402.3666666666667
 31
0.0
 70
32
 71
5
  1
<>
100
AcDbAlignedDimension
 13
387.0
 23
406.6666666666667
 33
0.0
 14
423.0
 24
406.6666666666667
 34
0.0
 50
0.0
100
AcDbRotatedDimension
1001
ACAD
1000
DSTYLE
1002
{
1070
144
1040
1.0
1002
}
  0
TEXT
  5
2C7
330
17
100
AcDbEntity
  8
G-FLAGG
100
AcDbText
 10
405.0
 20
397.06666666666666
 30
0.0
 40
1.8
  1
5.40 m  >= 5 m  IS 2470  PASS
  7
OpenSans
 72
1
 11
405.0
 21
397.06666666666666
 31
0.0
100
AcDbText
 73
2
  0
TEXT
  5
2C8
330
17
100
AcDbEntity
  8
S-TITLE
100
AcDbText
 10
14.0
 20
258.0
 30
0.0
 40
3.5
  1
V2   LOCATION KEY  -  THE 50 m ENVELOPE
  7
OpenSans
 11
14.0
 21
258.0
 31
0.0
100
AcDbText
  0
LINE
  5
2C9
330
17
100
AcDbEntity
  8
S-TITLE
100
AcDbLine
 10
14.0
 20
256.2
 30
0.0
 11
118.47019423978567
 21
256.2
 31
0.0
  0
TEXT
  5
2CA
330
17
100
AcDbEntity
  8
S-TEXT
100
AcDbText
 10
14.0
 20
250.8
 30
0.0
 40
2.0
  1
SCALE 1:900.  The envelope the owner has confirmed available, with the whole layout inside it.
  7
OpenSans
 11
14.0
 21
250.8
 31
0.0
100
AcDbText
  0
CIRCLE
  5
2CB
330
17
100
AcDbEntity
  8
G-SETTING
100
AcDbCircle
 10
300.0
 20
200.0
 30
0.0
 40
55.55555555555556
  0
CIRCLE
  5
2CC
330
17
100
AcDbEntity
  8
G-FLAGG
100
AcDbCircle
 10
300.0
 20
200.0
 30
0.0
 40
1.8
  0
LINE
  5
2CD
330
17
100
AcDbEntity
  8
G-FLAGG
100
AcDbLine
 10
297.0
 20
200.0
 30
0.0
 11
303.0
 21
200.0
 31
0.0
  0
LINE
  5
2CE
330
17
100
AcDbEntity
  8
G-FLAGG
100
AcDbLine
 10
300.0
 20
197.0
 30
0.0
 11
300.0
 21
203.0
 31
0.0
  0
LINE
  5
2CF
330
17
100
AcDbEntity
  8
G-SETTING
100
AcDbLine
 10
300.0
 20
200.0
 30
0.0
 11
302.0
 21
200.0
 31
0.0
  0
LINE
  5
2D0
330
17
100
AcDbEntity
  8
G-SETTING
100
AcDbLine
 10
303.6
 20
200.0
 30
0.0
 11
305.6
 21
200.0
 31
0.0
  0
LINE
  5
2D1
330
17
100
AcDbEntity
  8
G-SETTING
100
AcDbLine
 10
307.2
 20
200.0
 30
0.0
 11
309.2
 21
200.0
 31
0.0
  0
LINE
  5
2D2
330
17
100
AcDbEntity
  8
G-SETTING
100
AcDbLine
 10
310.8
 20
200.0
 30
0.0
 11
312.8
 21
200.0
 31
0.0
  0
LINE
  5
2D3
330
17
100
AcDbEntity
  8
G-SETTING
100
AcDbLine
 10
314.4
 20
200.0
 30
0.0
 11
316.4
 21
200.0
 31
0.0
  0
LINE
  5
2D4
330
17
100
AcDbEntity
  8
G-SETTING
100
AcDbLine
 10
318.0
 20
200.0
 30
0.0
 11
320.0
 21
200.0
 31
0.0
  0
LINE
  5
2D5
330
17
100
AcDbEntity
  8
G-SETTING
100
AcDbLine
 10
321.6
 20
200.0
 30
0.0
 11
323.6
 21
200.0
 31
0.0
  0
LINE
  5
2D6
330
17
100
AcDbEntity
  8
G-SETTING
100
AcDbLine
 10
325.2
 20
200.0
 30
0.0
 11
327.2
 21
200.0
 31
0.0
  0
LINE
  5
2D7
330
17
100
AcDbEntity
  8
G-SETTING
100
AcDbLine
 10
328.8
 20
200.0
 30
0.0
 11
330.8
 21
200.0
 31
0.0
  0
LINE
  5
2D8
330
17
100
AcDbEntity
  8
G-SETTING
100
AcDbLine
 10
332.4
 20
200.0
 30
0.0
 11
334.4
 21
200.0
 31
0.0
  0
LINE
  5
2D9
330
17
100
AcDbEntity
  8
G-SETTING
100
AcDbLine
 10
336.0
 20
200.0
 30
0.0
 11
338.0
 21
200.0
 31
0.0
  0
LINE
  5
2DA
330
17
100
AcDbEntity
  8
G-SETTING
100
AcDbLine
 10
339.6
 20
200.0
 30
0.0
 11
341.6
 21
200.0
 31
0.0
  0
LINE
  5
2DB
330
17
100
AcDbEntity
  8
G-SETTING
100
AcDbLine
 10
343.2
 20
200.0
 30
0.0
 11
345.2
 21
200.0
 31
0.0
  0
LINE
  5
2DC
330
17
100
AcDbEntity
  8
G-SETTING
100
AcDbLine
 10
346.8
 20
200.0
 30
0.0
 11
348.8
 21
200.0
 31
0.0
  0
LINE
  5
2DD
330
17
100
AcDbEntity
  8
G-SETTING
100
AcDbLine
 10
350.40000000000003
 20
200.0
 30
0.0
 11
352.40000000000003
 21
200.0
 31
0.0
  0
LINE
  5
2DE
330
17
100
AcDbEntity
  8
G-SETTING
100
AcDbLine
 10
354.0
 20
200.0
 30
0.0
 11
355.55555555555554
 21
200.0
 31
0.0
  0
TEXT
  5
2DF
330
17
100
AcDbEntity
  8
G-SETTING
100
AcDbText
 10
306.0
 20
202.0
 30
0.0
 40
2.0
  1
R 50 m  [C] OWNER
  7
OpenSans
 11
306.0
 21
202.0
 31
0.0
100
AcDbText
  0
LWPOLYLINE
  5
2E0
330
17
100
AcDbEntity
  8
G-STRUCT
100
AcDbPolyline
 90
4
 70
1
 10
287.77777777777777
 20
196.55555555555554
 10
312.22222222222223
 20
196.55555555555554
 10
312.22222222222223
 20
203.44444444444446
 10
287.77777777777777
 20
203.44444444444446
  0
LWPOLYLINE
  5
2E1
330
17
100
AcDbEntity
  8
G-FLAGG
100
AcDbPolyline
 90
4
 70
1
 10
324.44444444444446
 20
203.77777777777777
 10
344.44444444444446
 20
203.77777777777777
 10
344.44444444444446
 20
216.0
 10
324.44444444444446
 20
216.0
  0
LWPOLYLINE
  5
2E2
330
17
100
AcDbEntity
  8
G-FLAGG
100
AcDbPolyline
 90
4
 70
1
 10
297.77777777777777
 20
213.5
 10
302.22222222222223
 20
213.5
 10
302.22222222222223
 20
219.05555555555554
 10
297.77777777777777
 20
219.05555555555554
  0
TEXT
  5
2E3
330
17
100
AcDbEntity
  8
G-STRUCT
100
AcDbText
 10
300.0
 20
199.2
 30
0.0
 40
1.8
  1
BOX
  7
OpenSans
 72
1
 11
300.0
 21
199.2
 31
0.0
100
AcDbText
 73
2
  0
TEXT
  5
2E4
330
17
100
AcDbEntity
  8
G-FLAGG
100
AcDbText
 10
334.44444444444446
 20
209.08888888888887
 30
0.0
 40
1.8
  1
RESERVE
  7
OpenSans
 72
1
 11
334.44444444444446
 21
209.08888888888887
 31
0.0
100
AcDbText
 73
2
  0
TEXT
  5
2E5
330
17
100
AcDbEntity
  8
G-FLAGG
100
AcDbText
 10
300.0
 20
221.55555555555554
 30
0.0
 40
1.8
  1
SENTRY [A]
  7
OpenSans
 72
1
 11
300.0
 21
221.55555555555554
 31
0.0
100
AcDbText
 73
2
  0
TEXT
  5
2E6
330
17
100
AcDbEntity
  8
G-FLAGG
100
AcDbText
 10
300.0
 20
138.44444444444446
 30
0.0
 40
2.2
  1
18.6089876 N   73.8587287 E   [C] OWNER
  7
OpenSans
 72
1
 11
300.0
 21
138.44444444444446
 31
0.0
100
AcDbText
 73
2
  0
TEXT
  5
2E7
330
17
100
AcDbEntity
  8
M-FLAG
100
AcDbText
 10
300.0
 20
134.44444444444446
 30
0.0
 40
1.9
  1
THE PIN IS TAKEN AS THE CENTRE OF THE BOX - AN ADOPTED CONVENTION [A].
  7
OpenSans
 72
1
 11
300.0
 21
134.44444444444446
 31
0.0
100
AcDbText
 73
2
  0
TEXT
  5
2E8
330
17
100
AcDbEntity
  8
M-FLAG
100
AcDbText
 10
300.0
 20
130.84444444444446
 30
0.0
 40
1.9
  1
If it was meant as a corner, THE WHOLE LAYOUT TRANSLATES RIGIDLY and no offset changes.
  7
OpenSans
 72
1
 11
300.0
 21
130.84444444444446
 31
0.0
100
AcDbText
 73
2
  0
TEXT
  5
2E9
330
17
100
AcDbEntity
  8
M-TEXT
100
AcDbText
 10
300.0
 20
125.84444444444446
 30
0.0
 40
1.9
  1
WORST CASE 42.5 m OF THE 50 m AVAILABLE  -  AND THE BINDING
  7
OpenSans
 72
1
 11
300.0
 21
125.84444444444446
 31
0.0
100
AcDbText
 73
2
  0
TEXT
  5
2EA
330
17
100
AcDbEntity
  8
M-TEXT
100
AcDbText
 10
300.0
 20
122.24444444444445
 30
0.0
 40
1.9
  1
ELEMENT IS THE SENTRY POST, WHOSE POSITION IS ASSUMED.
  7
OpenSans
 72
1
 11
300.0
 21
122.24444444444445
 31
0.0
100
AcDbText
 73
2
  0
TEXT
  5
2EB
330
17
100
AcDbEntity
  8
S-TITLE
100
AcDbText
 10
664.0
 20
523.5
 30
0.0
 40
2.5
  1
WHAT THIS SHEET CLOSES
  7
OpenSans
 11
664.0
 21
523.5
 31
0.0
100
AcDbText
  0
TEXT
  5
2EC
330
17
100
AcDbEntity
  8
S-NOTE
100
AcDbText
 10
664.0
 20
519.175
 30
0.0
 40
2.2
  1
Master H.9 recorded the positions of the
  7
OpenSans
 11
664.0
 21
519.175
 31
0.0
100
AcDbText
  0
TEXT
  5
2ED
330
17
100
AcDbEntity
  8
S-NOTE
100
AcDbText
 10
664.0
 20
513.775
 30
0.0
 40
2.2
  1
soakaways, the septic tank and the
  7
OpenSans
 11
664.0
 21
513.775
 31
0.0
100
AcDbText
  0
TEXT
  5
2EE
330
17
100
AcDbEntity
  8
S-NOTE
100
AcDbText
 10
664.0
 20
508.375
 30
0.0
 40
2.2
  1
external chambers as NOT DETERMINABLE -
  7
OpenSans
 11
664.0
 21
508.375
 31
0.0
100
AcDbText
  0
TEXT
  5
2EF
330
17
100
AcDbEntity
  8
S-NOTE
100
AcDbText
 10
664.0
 20
502.975
 30
0.0
 40
2.2
  1
'no site plan, boundary or contour
  7
OpenSans
 11
664.0
 21
502.975
 31
0.0
100
AcDbText
  0
TEXT
  5
2F0
330
17
100
AcDbEntity
  8
S-NOTE
100
AcDbText
 10
664.0
 20
497.57500000000005
 30
0.0
 40
2.2
  1
exists' - and with them FIVE PIPE
  7
OpenSans
 11
664.0
 21
497.57500000000005
 31
0.0
100
AcDbText
  0
TEXT
  5
2F1
330
17
100
AcDbEntity
  8
S-NOTE
100
AcDbText
 10
664.0
 20
492.17500000000007
 30
0.0
 40
2.2
  1
LENGTHS and the IS 2470 OFFSETS.
  7
OpenSans
 11
664.0
 21
492.17500000000007
 31
0.0
100
AcDbText
  0
TEXT
  5
2F2
330
17
100
AcDbEntity
  8
S-NOTE
100
AcDbText
 10
664.0
 20
486.7750000000001
 30
0.0
 40
2.2
  1
Drainage D.11 ends on the same sentence.
  7
OpenSans
 11
664.0
 21
486.7750000000001
 31
0.0
100
AcDbText
  0
TEXT
  5
2F3
330
17
100
AcDbEntity
  8
S-NOTE
100
AcDbText
 10
664.0
 20
475.97500000000014
 30
0.0
 40
2.2
  1
The owner has supplied the COORDINATE
  7
OpenSans
 11
664.0
 21
475.97500000000014
 31
0.0
100
AcDbText
  0
TEXT
  5
2F4
330
17
100
AcDbEntity
  8
S-NOTE
100
AcDbText
 10
664.0
 20
470.57500000000016
 30
0.0
 40
2.2
  1
and a 50 m WORKING ENVELOPE.  With SG1's
  7
OpenSans
 11
664.0
 21
470.57500000000016
 31
0.0
100
AcDbText
  0
TEXT
  5
2F5
330
17
100
AcDbEntity
  8
S-NOTE
100
AcDbText
 10
664.0
 20
465.1750000000002
 30
0.0
 40
2.2
  1
contours and ground profile and the
  7
OpenSans
 11
664.0
 21
465.1750000000002
 31
0.0
100
AcDbText
  0
TEXT
  5
2F6
330
17
100
AcDbEntity
  8
S-NOTE
100
AcDbText
 10
664.0
 20
459.7750000000002
 30
0.0
 40
2.2
  1
project's own confirmed geometry, THE
  7
OpenSans
 11
664.0
 21
459.7750000000002
 31
0.0
100
AcDbText
  0
TEXT
  5
2F7
330
17
100
AcDbEntity
  8
S-NOTE
100
AcDbText
 10
664.0
 20
454.3750000000002
 30
0.0
 40
2.2
  1
POSITIONS CAN BE DETERMINED.
  7
OpenSans
 11
664.0
 21
454.3750000000002
 31
0.0
100
AcDbText
  0
TEXT
  5
2F8
330
17
100
AcDbEntity
  8
S-NOTE
100
AcDbText
 10
664.0
 20
443.5750000000003
 30
0.0
 40
2.2
  1
FOUR of the five pipe lengths: FIXED.
  7
OpenSans
 11
664.0
 21
443.5750000000003
 31
0.0
100
AcDbText
  0
TEXT
  5
2F9
330
17
100
AcDbEntity
  8
S-NOTE
100
AcDbText
 10
664.0
 20
438.1750000000003
 30
0.0
 40
2.2
  1
TWO of the three offsets: DEMONSTRATED.
  7
OpenSans
 11
664.0
 21
438.1750000000003
 31
0.0
100
AcDbText
  0
TEXT
  5
2FA
330
17
100
AcDbEntity
  8
S-NOTE
100
AcDbText
 10
664.0
 20
432.7750000000003
 30
0.0
 40
2.2
  1
SEVEN external structures: PLACED.
  7
OpenSans
 11
664.0
 21
432.7750000000003
 31
0.0
100
AcDbText
  0
LWPOLYLINE
  5
2FB
330
17
100
AcDbEntity
  8
S-TITLE
100
AcDbPolyline
 90
4
 70
1
 10
662.0
 20
425.37500000000034
 10
829.0
 20
425.37500000000034
 10
829.0
 20
528.0
 10
662.0
 20
528.0
  0
TEXT
  5
2FC
330
17
100
AcDbEntity
  8
S-TITLE
100
AcDbText
 10
664.0
 20
415.87500000000034
 30
0.0
 40
2.5
  1
WHAT IT DOES NOT CLOSE   [N]
  7
OpenSans
 11
664.0
 21
415.87500000000034
 31
0.0
100
AcDbText
  0
TEXT
  5
2FD
330
17
100
AcDbEntity
  8
S-NOTE
100
AcDbText
 10
664.0
 20
411.55000000000035
 30
0.0
 40
2.2
  1
a surveyed BOUNDARY
  7
OpenSans
 11
664.0
 21
411.55000000000035
 31
0.0
100
AcDbText
  0
TEXT
  5
2FE
330
17
100
AcDbEntity
  8
S-NOTE
100
AcDbText
 10
664.0
 20
406.1500000000004
 30
0.0
 40
2.2
  1
a BENCHMARK and spot levels    SG-V4
  7
OpenSans
 11
664.0
 21
406.1500000000004
 31
0.0
100
AcDbText
  0
TEXT
  5
2FF
330
17
100
AcDbEntity
  8
S-NOTE
100
AcDbText
 10
664.0
 20
400.7500000000004
 30
0.0
 40
2.2
  1
the position of any WELL       SG2-V1
  7
OpenSans
 11
664.0
 21
400.7500000000004
 31
0.0
100
AcDbText
  0
TEXT
  5
300
330
17
100
AcDbEntity
  8
S-NOTE
100
AcDbText
 10
664.0
 20
395.3500000000004
 30
0.0
 40
2.2
  1
the distance to the FENCE      SG2-V2
  7
OpenSans
 11
664.0
 21
395.3500000000004
 31
0.0
100
AcDbText
  0
TEXT
  5
301
330
17
100
AcDbEntity
  8
S-NOTE
100
AcDbText
 10
664.0
 20
389.95000000000044
 30
0.0
 40
2.2
  1
existing services on the plot
  7
OpenSans
 11
664.0
 21
389.95000000000044
 31
0.0
100
AcDbText
  0
TEXT
  5
302
330
17
100
AcDbEntity
  8
S-NOTE
100
AcDbText
 10
664.0
 20
384.55000000000047
 30
0.0
 40
2.2
  1
a WIND ROSE                    SG2-V4
  7
OpenSans
 11
664.0
 21
384.55000000000047
 31
0.0
100
AcDbText
  0
TEXT
  5
303
330
17
100
AcDbEntity
  8
S-NOTE
100
AcDbText
 10
664.0
 20
379.1500000000005
 30
0.0
 40
2.2
  1
the sentry post position       U4
  7
OpenSans
 11
664.0
 21
379.1500000000005
 31
0.0
100
AcDbText
  0
TEXT
  5
304
330
17
100
AcDbEntity
  8
S-NOTE
100
AcDbText
 10
664.0
 20
373.7500000000005
 30
0.0
 40
2.2
  1
the final discharge question   D3
  7
OpenSans
 11
664.0
 21
373.7500000000005
 31
0.0
100
AcDbText
  0
TEXT
  5
305
330
17
100
AcDbEntity
  8
S-NOTE
100
AcDbText
 10
664.0
 20
362.95000000000056
 30
0.0
 40
2.2
  1
EVERY ONE OF THOSE IS A SURVEY OUTPUT,
  7
OpenSans
 11
664.0
 21
362.95000000000056
 31
0.0
100
AcDbText
  0
TEXT
  5
306
330
17
100
AcDbEntity
  8
S-NOTE
100
AcDbText
 10
664.0
 20
357.5500000000006
 30
0.0
 40
2.2
  1
and none of them moves anything fixed
  7
OpenSans
 11
664.0
 21
357.5500000000006
 31
0.0
100
AcDbText
  0
TEXT
  5
307
330
17
100
AcDbEntity
  8
S-NOTE
100
AcDbText
 10
664.0
 20
352.1500000000006
 30
0.0
 40
2.2
  1
here: the layout is dimensioned from
  7
OpenSans
 11
664.0
 21
352.1500000000006
 31
0.0
100
AcDbText
  0
TEXT
  5
308
330
17
100
AcDbEntity
  8
S-NOTE
100
AcDbText
 10
664.0
 20
346.7500000000006
 30
0.0
 40
2.2
  1
CONFIRMED structure geometry and every
  7
OpenSans
 11
664.0
 21
346.7500000000006
 31
0.0
100
AcDbText
  0
TEXT
  5
309
330
17
100
AcDbEntity
  8
S-NOTE
100
AcDbText
 10
664.0
 20
341.35000000000065
 30
0.0
 40
2.2
  1
clearance is RELATIVE.  If the fence is
  7
OpenSans
 11
664.0
 21
341.35000000000065
 31
0.0
100
AcDbText
  0
TEXT
  5
30A
330
17
100
AcDbEntity
  8
S-NOTE
100
AcDbText
 10
664.0
 20
335.95000000000067
 30
0.0
 40
2.2
  1
closer than the reserve's east edge THE
  7
OpenSans
 11
664.0
 21
335.95000000000067
 31
0.0
100
AcDbText
  0
TEXT
  5
30B
330
17
100
AcDbEntity
  8
S-NOTE
100
AcDbText
 10
664.0
 20
330.5500000000007
 30
0.0
 40
2.2
  1
WHOLE RESERVE TRANSLATES AND NOT ONE
  7
OpenSans
 11
664.0
 21
330.5500000000007
 31
0.0
100
AcDbText
  0
TEXT
  5
30C
330
17
100
AcDbEntity
  8
S-NOTE
100
AcDbText
 10
664.0
 20
325.1500000000007
 30
0.0
 40
2.2
  1
OFFSET CHANGES.
  7
OpenSans
 11
664.0
 21
325.1500000000007
 31
0.0
100
AcDbText
  0
LWPOLYLINE
  5
30D
330
17
100
AcDbEntity
  8
S-TITLE
100
AcDbPolyline
 90
4
 70
1
 10
662.0
 20
317.75000000000074
 10
829.0
 20
317.75000000000074
 10
829.0
 20
420.37500000000034
 10
662.0
 20
420.37500000000034
  0
TEXT
  5
30E
330
17
100
AcDbEntity
  8
S-TITLE
100
AcDbText
 10
664.0
 20
308.25000000000074
 30
0.0
 40
2.5
  1
WHY EVERYTHING IS ON THE EAST SIDE
  7
OpenSans
 11
664.0
 21
308.25000000000074
 31
0.0
100
AcDbText
  0
TEXT
  5
30F
330
17
100
AcDbEntity
  8
S-NOTE
100
AcDbText
 10
664.0
 20
303.92500000000075
 30
0.0
 40
2.2
  1
1  DOWNGRADIENT.  Nothing recharges the
  7
OpenSans
 11
664.0
 21
303.92500000000075
 31
0.0
100
AcDbText
  0
TEXT
  5
310
330
17
100
AcDbEntity
  8
S-NOTE
100
AcDbText
 10
664.0
 20
298.5250000000008
 30
0.0
 40
2.2
  1
   ground upslope or alongside a box
  7
OpenSans
 11
664.0
 21
298.5250000000008
 31
0.0
100
AcDbText
  0
TEXT
  5
311
330
17
100
AcDbEntity
  8
S-NOTE
100
AcDbText
 10
664.0
 20
293.1250000000008
 30
0.0
 40
2.2
  1
   that is flotation-critical at FoS
  7
OpenSans
 11
664.0
 21
293.1250000000008
 31
0.0
100
AcDbText
  0
TEXT
  5
312
330
17
100
AcDbEntity
  8
S-NOTE
100
AcDbText
 10
664.0
 20
287.7250000000008
 30
0.0
 40
2.2
  1
   0.33 in the mat-only stage - and
  7
OpenSans
 11
664.0
 21
287.7250000000008
 31
0.0
100
AcDbText
  0
TEXT
  5
313
330
17
100
AcDbEntity
  8
S-NOTE
100
AcDbText
 10
664.0
 20
282.32500000000084
 30
0.0
 40
2.2
  1
   whose side backfill, at 95 % MDD, is
  7
OpenSans
 11
664.0
 21
282.32500000000084
 31
0.0
100
AcDbText
  0
TEXT
  5
314
330
17
100
AcDbEntity
  8
S-NOTE
100
AcDbText
 10
664.0
 20
276.92500000000086
 30
0.0
 40
2.2
  1
   MORE permeable than the basalt around
  7
OpenSans
 11
664.0
 21
276.92500000000086
 31
0.0
100
AcDbText
  0
TEXT
  5
315
330
17
100
AcDbEntity
  8
S-NOTE
100
AcDbText
 10
664.0
 20
271.5250000000009
 30
0.0
 40
2.2
  1
   it, so effluent released near it
  7
OpenSans
 11
664.0
 21
271.5250000000009
 31
0.0
100
AcDbText
  0
TEXT
  5
316
330
17
100
AcDbEntity
  8
S-NOTE
100
AcDbText
 10
664.0
 20
266.1250000000009
 30
0.0
 40
2.2
  1
   would run INTO the backfill and down
  7
OpenSans
 11
664.0
 21
266.1250000000009
 31
0.0
100
AcDbText
  0
TEXT
  5
317
330
17
100
AcDbEntity
  8
S-NOTE
100
AcDbText
 10
664.0
 20
260.72500000000093
 30
0.0
 40
2.2
  1
   the outside of the tanking.
  7
OpenSans
 11
664.0
 21
260.72500000000093
 31
0.0
100
AcDbText
  0
TEXT
  5
318
330
17
100
AcDbEntity
  8
S-NOTE
100
AcDbText
 10
664.0
 20
255.32500000000093
 30
0.0
 40
2.2
  1
2  ONE percolation-test location, ONE
  7
OpenSans
 11
664.0
 21
255.32500000000093
 31
0.0
100
AcDbText
  0
TEXT
  5
319
330
17
100
AcDbEntity
  8
S-NOTE
100
AcDbText
 10
664.0
 20
249.92500000000092
 30
0.0
 40
2.2
  1
   keep-clear zone, ONE reserved
  7
OpenSans
 11
664.0
 21
249.92500000000092
 31
0.0
100
AcDbText
  0
TEXT
  5
31A
330
17
100
AcDbEntity
  8
S-NOTE
100
AcDbText
 10
664.0
 20
244.52500000000092
 30
0.0
 40
2.2
  1
   fallback.
  7
OpenSans
 11
664.0
 21
244.52500000000092
 31
0.0
100
AcDbText
  0
TEXT
  5
31B
330
17
100
AcDbEntity
  8
S-NOTE
100
AcDbText
 10
664.0
 20
239.1250000000009
 30
0.0
 40
2.2
  1
3  ONE TRENCH.  PD-06, PD-11 and PD-13
  7
OpenSans
 11
664.0
 21
239.1250000000009
 31
0.0
100
AcDbText
  0
TEXT
  5
31C
330
17
100
AcDbEntity
  8
S-NOTE
100
AcDbText
 10
664.0
 20
233.7250000000009
 30
0.0
 40
2.2
  1
   share it.  Where rockhead is 0.9-1.5
  7
OpenSans
 11
664.0
 21
233.7250000000009
 31
0.0
100
AcDbText
  0
TEXT
  5
31D
330
17
100
AcDbEntity
  8
S-NOTE
100
AcDbText
 10
664.0
 20
228.3250000000009
 30
0.0
 40
2.2
  1
   m the cost is the trench, and the
  7
OpenSans
 11
664.0
 21
228.3250000000009
 31
0.0
100
AcDbText
  0
TEXT
  5
31E
330
17
100
AcDbEntity
  8
S-NOTE
100
AcDbText
 10
664.0
 20
222.9250000000009
 30
0.0
 40
2.2
  1
   trench is cut once.
  7
OpenSans
 11
664.0
 21
222.9250000000009
 31
0.0
100
AcDbText
  0
TEXT
  5
31F
330
17
100
AcDbEntity
  8
S-NOTE
100
AcDbText
 10
664.0
 20
217.5250000000009
 30
0.0
 40
2.2
  1
4  CONCEALMENT.  Four cover slabs and a
  7
OpenSans
 11
664.0
 21
217.5250000000009
 31
0.0
100
AcDbText
  0
TEXT
  5
320
330
17
100
AcDbEntity
  8
S-NOTE
100
AcDbText
 10
664.0
 20
212.12500000000088
 30
0.0
 40
2.2
  1
   2 m septic vent, grouped 11-22 m away
  7
OpenSans
 11
664.0
 21
212.12500000000088
 31
0.0
100
AcDbText
  0
TEXT
  5
321
330
17
100
AcDbEntity
  8
S-NOTE
100
AcDbText
 10
664.0
 20
206.72500000000088
 30
0.0
 40
2.2
  1
   and downgradient, MARK THE DRAINAGE
  7
OpenSans
 11
664.0
 21
206.72500000000088
 31
0.0
100
AcDbText
  0
TEXT
  5
322
330
17
100
AcDbEntity
  8
S-NOTE
100
AcDbText
 10
664.0
 20
201.32500000000087
 30
0.0
 40
2.2
  1
   FIELD, NOT THE SHELTER.
  7
OpenSans
 11
664.0
 21
201.32500000000087
 31
0.0
100
AcDbText
  0
LWPOLYLINE
  5
323
330
17
100
AcDbEntity
  8
S-TITLE
100
AcDbPolyline
 90
4
 70
1
 10
662.0
 20
193.92500000000086
 10
829.0
 20
193.92500000000086
 10
829.0
 20
312.75000000000074
 10
662.0
 20
312.75000000000074
  0
TEXT
  5
324
330
17
100
AcDbEntity
  8
S-TITLE
100
AcDbText
 10
422.0
 20
145.5
 30
0.0
 40
2.5
  1
EVIDENCE CLASS - APPLIED TO EVERY VALUE ON THIS SHEET
  7
OpenSans
 11
422.0
 21
145.5
 31
0.0
100
AcDbText
  0
TEXT
  5
325
330
17
100
AcDbEntity
  8
S-NOTE
100
AcDbText
 10
422.0
 20
141.375
 30
0.0
 40
2.0
  1
[C] CONFIRMED      traceable to the master, to a Rev F drawing, to sheet S-06, or read verbatim off one of the two supplied documents
  7
OpenSans
 11
422.0
 21
141.375
 31
0.0
100
AcDbText
  0
TEXT
  5
326
330
17
100
AcDbEntity
  8
S-NOTE
100
AcDbText
 10
422.0
 20
137.975
 30
0.0
 40
2.0
  1
[R] RECONSTRUCTED  computed here from confirmed values; the arithmetic is shown in full
  7
OpenSans
 11
422.0
 21
137.975
 31
0.0
100
AcDbText
  0
TEXT
  5
327
330
17
100
AcDbEntity
  8
S-NOTE
100
AcDbText
 10
422.0
 20
134.575
 30
0.0
 40
2.0
  1
[D] DERIVED        an engineering result computed by THIS package
  7
OpenSans
 11
422.0
 21
134.575
 31
0.0
100
AcDbText
  0
TEXT
  5
328
330
17
100
AcDbEntity
  8
S-NOTE
100
AcDbText
 10
422.0
 20
131.17499999999998
 30
0.0
 40
2.0
  1
[A] ASSUMED        an engineering selection made by THIS package - confirm before construction
  7
OpenSans
 11
422.0
 21
131.17499999999998
 31
0.0
100
AcDbText
  0
TEXT
  5
329
330
17
100
AcDbEntity
  8
S-NOTE
100
AcDbText
 10
422.0
 20
127.77499999999998
 30
0.0
 40
2.0
  1
[U] UNRESOLVED     the two documents disagree, or they disagree with the master
  7
OpenSans
 11
422.0
 21
127.77499999999998
 31
0.0
100
AcDbText
  0
TEXT
  5
32A
330
17
100
AcDbEntity
  8
S-NOTE
100
AcDbText
 10
422.0
 20
124.37499999999997
 30
0.0
 40
2.0
  1
[N] NOT AVAILABLE  no source exists anywhere in the project - DATA REQUIRED
  7
OpenSans
 11
422.0
 21
124.37499999999997
 31
0.0
100
AcDbText
  0
LWPOLYLINE
  5
32B
330
17
100
AcDbEntity
  8
S-TITLE
100
AcDbPolyline
 90
4
 70
1
 10
420.0
 20
118.97499999999997
 10
650.0
 20
118.97499999999997
 10
650.0
 20
150.0
 10
420.0
 20
150.0
  0
TEXT
  5
32C
330
17
100
AcDbEntity
  8
M-TITLE
100
AcDbText
 10
12.0
 20
576.5
 30
0.0
 40
5.0
  1
SITE SELECTION AND GEOTECHNICAL PACKAGE
  7
OpenSans
 11
12.0
 21
576.5
 31
0.0
100
AcDbText
  0
TEXT
  5
32D
330
17
100
AcDbEntity
  8
M-TITLE
100
AcDbText
 10
12.0
 20
569.5
 30
0.0
 40
2.4
  1
SG-102   SITE LAYOUT PLAN
  7
OpenSans
 11
12.0
 21
569.5
 31
0.0
100
AcDbText
  0
LINE
  5
32E
330
17
100
AcDbEntity
  8
M-TITLE
100
AcDbLine
 10
10.0
 20
566.5
 30
0.0
 11
831.0
 21
566.5
 31
0.0
  0
TEXT
  5
32F
330
17
100
AcDbEntity
  8
M-FLAG
100
AcDbText
 10
829.0
 20
577.0
 30
0.0
 40
2.0
  1
SENTRY POST INCLUDED - GROUND ONLY, NO STRUCTURAL VALUE
  7
OpenSans
 72
2
 11
829.0
 21
577.0
 31
0.0
100
AcDbText
  0
TEXT
  5
330
330
17
100
AcDbEntity
  8
M-FLAG
100
AcDbText
 10
829.0
 20
570.5
 30
0.0
 40
1.4
  1
THIS PACKAGE RESOLVES NOTHING - IT RECORDS PROVENANCE AND QUANTIFIES MARGIN
  7
OpenSans
 72
2
 11
829.0
 21
570.5
 31
0.0
100
AcDbText
  0
TEXT
  5
331
330
17
100
AcDbEntity
  8
M-FLAG
100
AcDbText
 10
12.0
 20
561.5
 30
0.0
 40
1.4
  1
OPEN ITEMS ON THIS SHEET:  D3   SG2-V1   SG2-V2   SG2-V3   SG-V4   U4
  7
OpenSans
 11
12.0
 21
561.5
 31
0.0
100
AcDbText
  0
LWPOLYLINE
  5
332
330
17
100
AcDbEntity
  8
M-TITLE
100
AcDbPolyline
 90
4
 70
1
 10
651.0
 20
10.0
 10
831.0
 20
10.0
 10
831.0
 20
110.0
 10
651.0
 20
110.0
  0
LINE
  5
333
330
17
100
AcDbEntity
  8
M-TITLE
100
AcDbLine
 10
651.0
 20
30.0
 30
0.0
 11
831.0
 21
30.0
 31
0.0
  0
LINE
  5
334
330
17
100
AcDbEntity
  8
M-TITLE
100
AcDbLine
 10
651.0
 20
42.0
 30
0.0
 11
831.0
 21
42.0
 31
0.0
  0
LINE
  5
335
330
17
100
AcDbEntity
  8
M-TITLE
100
AcDbLine
 10
651.0
 20
54.0
 30
0.0
 11
831.0
 21
54.0
 31
0.0
  0
LINE
  5
336
330
17
100
AcDbEntity
  8
M-TITLE
100
AcDbLine
 10
651.0
 20
66.0
 30
0.0
 11
831.0
 21
66.0
 31
0.0
  0
LINE
  5
337
330
17
100
AcDbEntity
  8
M-TITLE
100
AcDbLine
 10
651.0
 20
88.0
 30
0.0
 11
831.0
 21
88.0
 31
0.0
  0
LINE
  5
338
330
17
100
AcDbEntity
  8
M-TITLE
100
AcDbLine
 10
763.0
 20
10.0
 30
0.0
 11
763.0
 21
30.0
 31
0.0
  0
LINE
  5
339
330
17
100
AcDbEntity
  8
M-TITLE
100
AcDbLine
 10
797.0
 20
10.0
 30
0.0
 11
797.0
 21
30.0
 31
0.0
  0
TEXT
  5
33A
330
17
100
AcDbEntity
  8
M-TITLE
100
AcDbText
 10
653.0
 20
24.6
 30
0.0
 40
1.4
  1
DRAWING No.
  7
OpenSans
 11
653.0
 21
24.6
 31
0.0
100
AcDbText
  0
TEXT
  5
33B
330
17
100
AcDbEntity
  8
M-TITLE
100
AcDbText
 10
671.0
 20
14.2
 30
0.0
 40
3.5
  1
SG-102
  7
OpenSans
 11
671.0
 21
14.2
 31
0.0
100
AcDbText
  0
TEXT
  5
33C
330
17
100
AcDbEntity
  8
M-TITLE
100
AcDbText
 10
765.0
 20
24.6
 30
0.0
 40
1.4
  1
REV
  7
OpenSans
 11
765.0
 21
24.6
 31
0.0
100
AcDbText
  0
TEXT
  5
33D
330
17
100
AcDbEntity
  8
M-TITLE
100
AcDbText
 10
769.0
 20
14.2
 30
0.0
 40
3.5
  1
SG2
  7
OpenSans
 11
769.0
 21
14.2
 31
0.0
100
AcDbText
  0
TEXT
  5
33E
330
17
100
AcDbEntity
  8
M-TITLE
100
AcDbText
 10
799.0
 20
24.6
 30
0.0
 40
1.4
  1
SHEET
  7
OpenSans
 11
799.0
 21
24.6
 31
0.0
100
AcDbText
  0
TEXT
  5
33F
330
17
100
AcDbEntity
  8
M-TITLE
100
AcDbText
 10
799.0
 20
15.0
 30
0.0
 40
1.6
  1
3 OF 5
  7
OpenSans
 11
799.0
 21
15.0
 31
0.0
100
AcDbText
  0
LINE
  5
340
330
17
100
AcDbEntity
  8
M-TITLE
100
AcDbLine
 10
747.0
 20
30.0
 30
0.0
 11
747.0
 21
42.0
 31
0.0
  0
TEXT
  5
341
330
17
100
AcDbEntity
  8
M-TITLE
100
AcDbText
 10
653.0
 20
34.4
 30
0.0
 40
1.6
  1
SCALE   1:150 AND 1:900
  7
OpenSans
 11
653.0
 21
34.4
 31
0.0
100
AcDbText
  0
TEXT
  5
342
330
17
100
AcDbEntity
  8
M-TITLE
100
AcDbText
 10
749.0
 20
34.4
 30
0.0
 40
1.6
  1
DATE   11.09.2026
  7
OpenSans
 11
749.0
 21
34.4
 31
0.0
100
AcDbText
  0
TEXT
  5
343
330
17
100
AcDbEntity
  8
M-TITLE
100
AcDbText
 10
653.0
 20
46.4
 30
0.0
 40
1.4
  1
DESIGNED  [PLACEHOLDER]
  7
OpenSans
 11
653.0
 21
46.4
 31
0.0
100
AcDbText
  0
TEXT
  5
344
330
17
100
AcDbEntity
  8
M-TITLE
100
AcDbText
 10
713.0
 20
46.4
 30
0.0
 40
1.4
  1
CHECKED  [PLACEHOLDER]
  7
OpenSans
 11
713.0
 21
46.4
 31
0.0
100
AcDbText
  0
TEXT
  5
345
330
17
100
AcDbEntity
  8
M-TITLE
100
AcDbText
 10
773.0
 20
46.4
 30
0.0
 40
1.4
  1
APPROVED  [PLACEHOLDER]
  7
OpenSans
 11
773.0
 21
46.4
 31
0.0
100
AcDbText
  0
TEXT
  5
346
330
17
100
AcDbEntity
  8
M-TITLE
100
AcDbText
 10
653.0
 20
58.4
 30
0.0
 40
1.4
  1
STATUS
  7
OpenSans
 11
653.0
 21
58.4
 31
0.0
100
AcDbText
  0
TEXT
  5
347
330
17
100
AcDbEntity
  8
M-FLAG
100
AcDbText
 10
673.0
 20
58.0
 30
0.0
 40
1.6
  1
FOR REVIEW - NOT FOR CONSTRUCTION
  7
OpenSans
 11
673.0
 21
58.0
 31
0.0
100
AcDbText
  0
TEXT
  5
348
330
17
100
AcDbEntity
  8
M-TITLE
100
AcDbText
 10
653.0
 20
83.4
 30
0.0
 40
1.4
  1
DRAWING TITLE
  7
OpenSans
 11
653.0
 21
83.4
 31
0.0
100
AcDbText
  0
TEXT
  5
349
330
17
100
AcDbEntity
  8
M-TITLE
100
AcDbText
 10
653.0
 20
75.4
 30
0.0
 40
2.4
  1
SITE LAYOUT PLAN
  7
OpenSans
 11
653.0
 21
75.4
 31
0.0
100
AcDbText
  0
TEXT
  5
34A
330
17
100
AcDbEntity
  8
M-TITLE
100
AcDbText
 10
653.0
 20
68.8
 30
0.0
 40
1.4
  1
THE PROJECT'S FIRST.  EXTERNAL WORKS FIXED, DIMENSIONED FROM CONFIRMED GEO
  7
OpenSans
 11
653.0
 21
68.8
 31
0.0
100
AcDbText
  0
TEXT
  5
34B
330
17
100
AcDbEntity
  8
M-TITLE
100
AcDbText
 10
653.0
 20
105.2
 30
0.0
 40
1.4
  1
PROJECT
  7
OpenSans
 11
653.0
 21
105.2
 31
0.0
100
AcDbText
  0
TEXT
  5
34C
330
17
100
AcDbEntity
  8
M-TITLE
100
AcDbText
 10
653.0
 20
99.6
 30
0.0
 40
1.6
  1
UNDERGROUND CBRN-HARDENED BLAST-RESISTANT
  7
OpenSans
 11
653.0
 21
99.6
 31
0.0
100
AcDbText
  0
TEXT
  5
34D
330
17
100
AcDbEntity
  8
M-TITLE
100
AcDbText
 10
653.0
 20
95.0
 30
0.0
 40
1.6
  1
PROTECTIVE STRUCTURE  -  PUNE, MAHARASHTRA
  7
OpenSans
 11
653.0
 21
95.0
 31
0.0
100
AcDbText
  0
TEXT
  5
34E
330
17
100
AcDbEntity
  8
M-TITLE
100
AcDbText
 10
653.0
 20
90.0
 30
0.0
 40
1.4
  1
GEOMETRY REV F + M1   -   SITE AND GEOTECHNICAL SG2  -  GROUND ONLY
  7
OpenSans
 11
653.0
 21
90.0
 31
0.0
100
AcDbText
  0
ENDSEC
  0
SECTION
  2
OBJECTS
  0
DICTIONARY
  5
A
330
0
100
AcDbDictionary
281
1
  3
ACAD_COLOR
350
B
  3
ACAD_GROUP
350
C
  3
ACAD_LAYOUT
350
D
  3
ACAD_MATERIAL
350
E
  3
ACAD_MLEADERSTYLE
350
F
  3
ACAD_MLINESTYLE
350
10
  3
ACAD_PLOTSETTINGS
350
11
  3
ACAD_PLOTSTYLENAME
350
12
  3
ACAD_SCALELIST
350
14
  3
ACAD_TABLESTYLE
350
15
  3
ACAD_VISUALSTYLE
350
16
  3
EZDXF_META
350
2D
  0
DICTIONARY
  5
B
330
A
100
AcDbDictionary
281
1
  0
DICTIONARY
  5
C
330
A
100
AcDbDictionary
281
1
  0
DICTIONARY
  5
D
330
A
100
AcDbDictionary
281
1
  3
Model
350
1A
  3
Layout1
350
1E
  0
DICTIONARY
  5
E
330
A
100
AcDbDictionary
281
1
  3
ByBlock
350
1F
  3
ByLayer
350
20
  3
Global
350
21
  0
DICTIONARY
  5
F
330
A
100
AcDbDictionary
281
1
  3
Standard
350
2C
  0
DICTIONARY
  5
10
330
A
100
AcDbDictionary
281
1
  3
Standard
350
22
  0
DICTIONARY
  5
11
330
A
100
AcDbDictionary
281
1
  0
ACDBDICTIONARYWDFLT
  5
12
330
A
100
AcDbDictionary
281
1
  3
Normal
350
13
100
AcDbDictionaryWithDefault
340
13
  0
ACDBPLACEHOLDER
  5
13
330
12
  0
DICTIONARY
  5
14
330
A
100
AcDbDictionary
281
1
  0
DICTIONARY
  5
15
330
A
100
AcDbDictionary
281
1
  0
DICTIONARY
  5
16
330
A
100
AcDbDictionary
281
1
  3
2dWireframe
350
5A
  3
Basic
350
5B
  3
Brighten
350
5C
  3
ColorChange
350
5D
  3
Conceptual
350
5E
  3
Dim
350
5F
  3
EdgeColorOff
350
60
  3
Facepattern
350
61
  3
Flat
350
62
  3
FlatWithEdges
350
63
  3
Gouraud
350
64
  3
GouraudWithEdges
350
65
  3
Hidden
350
66
  3
JitterOff
350
67
  3
Linepattern
350
68
  3
Modeling
350
69
  3
OverhangOff
350
6A
  3
Realistic
350
6B
  3
Shaded
350
6C
  3
Shaded with edges
350
6D
  3
Shades of Gray
350
6E
  3
Sketchy
350
6F
  3
Thicken
350
70
  3
Wireframe
350
71
  3
X-Ray
350
72
  0
LAYOUT
  5
1A
330
D
100
AcDbPlotSettings
  1

  4
A3
  6

 40
7.5
 41
20.0
 42
7.5
 43
20.0
 44
420.0
 45
297.0
 46
0.0
 47
0.0
 48
0.0
 49
0.0
140
0.0
141
0.0
142
1.0
143
1.0
 70
1024
 72
1
 73
0
 74
5
  7

 75
16
 76
0
 77
2
 78
300
147
1.0
148
0.0
149
0.0
100
AcDbLayout
  1
Model
 70
1
 71
0
 10
0.0
 20
0.0
 11
420.0
 21
297.0
 12
0.0
 22
0.0
 32
0.0
 14
1e+20
 24
1e+20
 34
1e+20
 15
-1e+20
 25
-1e+20
 35
-1e+20
146
0.0
 13
0.0
 23
0.0
 33
0.0
 16
1.0
 26
0.0
 36
0.0
 17
0.0
 27
1.0
 37
0.0
 76
1
330
17
  0
LAYOUT
  5
1E
330
D
100
AcDbPlotSettings
  1

  4
A3
  6

 40
7.5
 41
20.0
 42
7.5
 43
20.0
 44
420.0
 45
297.0
 46
0.0
 47
0.0
 48
0.0
 49
0.0
140
0.0
141
0.0
142
1.0
143
1.0
 70
0
 72
1
 73
0
 74
5
  7

 75
16
 76
0
 77
2
 78
300
147
1.0
148
0.0
149
0.0
100
AcDbLayout
  1
Layout1
 70
1
 71
1
 10
0.0
 20
0.0
 11
420.0
 21
297.0
 12
0.0
 22
0.0
 32
0.0
 14
1e+20
 24
1e+20
 34
1e+20
 15
-1e+20
 25
-1e+20
 35
-1e+20
146
0.0
 13
0.0
 23
0.0
 33
0.0
 16
1.0
 26
0.0
 36
0.0
 17
0.0
 27
1.0
 37
0.0
 76
1
330
1B
  0
MATERIAL
  5
1F
102
{ACAD_REACTORS
330
E
102
}
330
E
100
AcDbMaterial
  1
ByBlock
  2

 70
0
 40
1.0
 71
1
 41
1.0
 91
-1023410177
 42
1.0
 72
1
  3

 73
1
 74
1
 75
1
 44
0.5
 73
0
 45
1.0
 46
1.0
 77
1
  4

 78
1
 79
1
170
1
 48
1.0
171
1
  6

172
1
173
1
174
1
140
1.0
141
1.0
175
1
  7

176
1
177
1
178
1
143
1.0
179
1
  8

270
1
271
1
272
1
145
1.0
146
1.0
273
1
  9

274
1
275
1
276
1
 42
1.0
 72
1
  3

 73
1
 74
1
 75
1
 94
63
  0
MATERIAL
  5
20
102
{ACAD_REACTORS
330
E
102
}
330
E
100
AcDbMaterial
  1
ByLayer
  2

 70
0
 40
1.0
 71
1
 41
1.0
 91
-1023410177
 42
1.0
 72
1
  3

 73
1
 74
1
 75
1
 44
0.5
 73
0
 45
1.0
 46
1.0
 77
1
  4

 78
1
 79
1
170
1
 48
1.0
171
1
  6

172
1
173
1
174
1
140
1.0
141
1.0
175
1
  7

176
1
177
1
178
1
143
1.0
179
1
  8

270
1
271
1
272
1
145
1.0
146
1.0
273
1
  9

274
1
275
1
276
1
 42
1.0
 72
1
  3

 73
1
 74
1
 75
1
 94
63
  0
MATERIAL
  5
21
102
{ACAD_REACTORS
330
E
102
}
330
E
100
AcDbMaterial
  1
Global
  2

 70
0
 40
1.0
 71
1
 41
1.0
 91
-1023410177
 42
1.0
 72
1
  3

 73
1
 74
1
 75
1
 44
0.5
 73
0
 45
1.0
 46
1.0
 77
1
  4

 78
1
 79
1
170
1
 48
1.0
171
1
  6

172
1
173
1
174
1
140
1.0
141
1.0
175
1
  7

176
1
177
1
178
1
143
1.0
179
1
  8

270
1
271
1
272
1
145
1.0
146
1.0
273
1
  9

274
1
275
1
276
1
 42
1.0
 72
1
  3

 73
1
 74
1
 75
1
 94
63
  0
MLINESTYLE
  5
22
102
{ACAD_REACTORS
330
10
102
}
330
10
100
AcDbMlineStyle
  2
Standard
 70
0
  3

 62
256
 51
90.0
 52
90.0
 71
2
 49
0.5
 62
256
  6
BYLAYER
 49
-0.5
 62
256
  6
BYLAYER
  0
MLEADERSTYLE
  5
2C
102
{ACAD_REACTORS
330
F
102
}
330
F
100
AcDbMLeaderStyle
179
2
170
2
171
1
172
0
 90
2
 40
0.0
 41
0.0
173
1
 91
-1056964608
 92
-2
290
1
 42
2.0
291
1
 43
8.0
  3
Standard
 44
4.0
300

342
29
174
1
175
1
176
0
178
1
 93
-1056964608
 45
4.0
292
0
297
0
 46
4.0
 94
-1056964608
 47
1.0
 49
1.0
140
1.0
294
1
141
0.0
177
0
142
1.0
295
0
296
0
143
3.75
271
0
272
9
273
9
  0
DICTIONARY
  5
2D
330
A
100
AcDbDictionary
280
1
281
1
  3
CREATED_BY_EZDXF
350
2E
  3
WRITTEN_BY_EZDXF
350
351
  0
DICTIONARYVAR
  5
2E
330
2D
100
DictionaryVariables
280
0
  1
1.4.4 @ 2026-09-11T08:35:41.001601+00:00
  0
VISUALSTYLE
  5
5A
102
{ACAD_REACTORS
330
16
102
}
330
16
100
AcDbVisualStyle
  2
2dWireframe
 70
4
 90
0
 40
0.6
 62
7
290
0
291
0
  0
VISUALSTYLE
  5
5B
102
{ACAD_REACTORS
330
16
102
}
330
16
100
AcDbVisualStyle
  2
Basic
 70
7
 90
1
 40
0.6
 62
7
290
0
291
1
  0
VISUALSTYLE
  5
5C
102
{ACAD_REACTORS
330
16
102
}
330
16
100
AcDbVisualStyle
  2
Brighten
 70
12
 90
2
 40
0.6
 62
7
290
0
291
1
  0
VISUALSTYLE
  5
5D
102
{ACAD_REACTORS
330
16
102
}
330
16
100
AcDbVisualStyle
  2
ColorChange
 70
16
 90
2
 40
0.6
 62
8
290
0
291
1
  0
VISUALSTYLE
  5
5E
102
{ACAD_REACTORS
330
16
102
}
330
16
100
AcDbVisualStyle
  2
Conceptual
 70
9
 90
3
 40
0.6
 62
7
290
0
291
0
  0
VISUALSTYLE
  5
5F
102
{ACAD_REACTORS
330
16
102
}
330
16
100
AcDbVisualStyle
  2
Dim
 70
11
 90
2
 40
0.6
 62
7
290
0
291
1
  0
VISUALSTYLE
  5
60
102
{ACAD_REACTORS
330
16
102
}
330
16
100
AcDbVisualStyle
  2
EdgeColorOff
 70
22
 90
2
 40
0.6
 62
7
290
0
291
1
  0
VISUALSTYLE
  5
61
102
{ACAD_REACTORS
330
16
102
}
330
16
100
AcDbVisualStyle
  2
Facepattern
 70
15
 90
2
 40
0.6
 62
7
290
0
291
1
  0
VISUALSTYLE
  5
62
102
{ACAD_REACTORS
330
16
102
}
330
16
100
AcDbVisualStyle
  2
Flat
 70
0
 90
2
 40
0.6
 62
7
290
0
291
1
  0
VISUALSTYLE
  5
63
102
{ACAD_REACTORS
330
16
102
}
330
16
100
AcDbVisualStyle
  2
FlatWithEdges
 70
1
 90
2
 40
0.6
 62
7
290
0
291
1
  0
VISUALSTYLE
  5
64
102
{ACAD_REACTORS
330
16
102
}
330
16
100
AcDbVisualStyle
  2
Gouraud
 70
2
 90
2
 40
0.6
 62
7
290
0
291
1
  0
VISUALSTYLE
  5
65
102
{ACAD_REACTORS
330
16
102
}
330
16
100
AcDbVisualStyle
  2
GouraudWithEdges
 70
3
 90
2
 40
0.6
 62
7
290
0
291
1
  0
VISUALSTYLE
  5
66
102
{ACAD_REACTORS
330
16
102
}
330
16
100
AcDbVisualStyle
  2
Hidden
 70
6
 90
1
 40
0.6
 62
7
290
0
291
0
  0
VISUALSTYLE
  5
67
102
{ACAD_REACTORS
330
16
102
}
330
16
100
AcDbVisualStyle
  2
JitterOff
 70
20
 90
2
 40
0.6
 62
7
290
0
291
1
  0
VISUALSTYLE
  5
68
102
{ACAD_REACTORS
330
16
102
}
330
16
100
AcDbVisualStyle
  2
Linepattern
 70
14
 90
2
 40
0.6
 62
7
290
0
291
1
  0
VISUALSTYLE
  5
69
102
{ACAD_REACTORS
330
16
102
}
330
16
100
AcDbVisualStyle
  2
Modeling
 70
10
 90
2
 40
0.6
 62
7
290
0
291
0
  0
VISUALSTYLE
  5
6A
102
{ACAD_REACTORS
330
16
102
}
330
16
100
AcDbVisualStyle
  2
OverhangOff
 70
21
 90
2
 40
0.6
 62
7
290
0
291
1
  0
VISUALSTYLE
  5
6B
102
{ACAD_REACTORS
330
16
102
}
330
16
100
AcDbVisualStyle
  2
Realistic
 70
8
 90
2
 40
0.6
 62
7
290
0
291
0
  0
VISUALSTYLE
  5
6C
102
{ACAD_REACTORS
330
16
102
}
330
16
100
AcDbVisualStyle
  2
Shaded
 70
27
 90
2
 40
0.6
 62
7
290
0
291
0
  0
VISUALSTYLE
  5
6D
102
{ACAD_REACTORS
330
16
102
}
330
16
100
AcDbVisualStyle
  2
Shaded with edges
 70
26
 90
2
 40
0.6
 62
7
290
0
291
0
  0
VISUALSTYLE
  5
6E
102
{ACAD_REACTORS
330
16
102
}
330
16
100
AcDbVisualStyle
  2
Shades of Gray
 70
23
 90
2
 40
0.6
 62
7
290
0
291
0
  0
VISUALSTYLE
  5
6F
102
{ACAD_REACTORS
330
16
102
}
330
16
100
AcDbVisualStyle
  2
Sketchy
 70
24
 90
1
 40
0.6
 62
7
290
0
291
0
  0
VISUALSTYLE
  5
70
102
{ACAD_REACTORS
330
16
102
}
330
16
100
AcDbVisualStyle
  2
Thicken
 70
13
 90
2
 40
0.6
 62
7
290
0
291
1
  0
VISUALSTYLE
  5
71
102
{ACAD_REACTORS
330
16
102
}
330
16
100
AcDbVisualStyle
  2
Wireframe
 70
5
 90
0
 40
0.6
 62
7
290
0
291
0
  0
VISUALSTYLE
  5
72
102
{ACAD_REACTORS
330
16
102
}
330
16
100
AcDbVisualStyle
  2
X-Ray
 70
25
 90
2
 40
0.5
 62
7
290
0
291
0
  0
DICTIONARYVAR
  5
351
330
2D
100
DictionaryVariables
280
0
  1
1.4.4 @ 2026-09-11T08:35:41.046769+00:00
  0
ENDSEC
  0
EOF
