  0
SECTION
  2
HEADER
  9
$ACADVER
  1
AC1024
  9
$ACADMAINTVER
 70
6
  9
$DWGCODEPAGE
  3
ANSI_1252
  9
$LASTSAVEDBY
  1
ezdxf
  9
$INSBASE
 10
0.0
 20
0.0
 30
0.0
  9
$EXTMIN
 10
1e+20
 20
1e+20
 30
1e+20
  9
$EXTMAX
 10
-1e+20
 20
-1e+20
 30
-1e+20
  9
$LIMMIN
 10
0.0
 20
0.0
  9
$LIMMAX
 10
420.0
 20
297.0
  9
$ORTHOMODE
 70
0
  9
$REGENMODE
 70
1
  9
$FILLMODE
 70
1
  9
$QTEXTMODE
 70
0
  9
$MIRRTEXT
 70
1
  9
$LTSCALE
 40
1.0
  9
$ATTMODE
 70
1
  9
$TEXTSIZE
 40
2.5
  9
$TRACEWID
 40
1.0
  9
$TEXTSTYLE
  7
OpenSans
  9
$CLAYER
  8
0
  9
$CELTYPE
  6
ByLayer
  9
$CECOLOR
 62
256
  9
$CELTSCALE
 40
1.0
  9
$DISPSILH
 70
0
  9
$DIMSCALE
 40
1.0
  9
$DIMASZ
 40
0.175
  9
$DIMEXO
 40
0.125
  9
$DIMDLI
 40
3.75
  9
$DIMRND
 40
0.0
  9
$DIMDLE
 40
0.0
  9
$DIMEXE
 40
0.375
  9
$DIMTP
 40
0.0
  9
$DIMTM
 40
0.0
  9
$DIMTXT
 40
0.25
  9
$DIMCEN
 40
2.5
  9
$DIMTSZ
 40
0.0
  9
$DIMTOL
 70
0
  9
$DIMLIM
 70
0
  9
$DIMTIH
 70
0
  9
$DIMTOH
 70
0
  9
$DIMSE1
 70
0
  9
$DIMSE2
 70
0
  9
$DIMTAD
 70
1
  9
$DIMZIN
 70
12
  9
$DIMBLK
  1
ARCHTICK
  9
$DIMASO
 70
1
  9
$DIMSHO
 70
1
  9
$DIMPOST
  1

  9
$DIMAPOST
  1

  9
$DIMALT
 70
0
  9
$DIMALTD
 70
3
  9
$DIMALTF
 40
0.03937007874
  9
$DIMLFAC
 40
100.0
  9
$DIMTOFL
 70
1
  9
$DIMTVP
 40
0.0
  9
$DIMTIX
 70
0
  9
$DIMSOXD
 70
0
  9
$DIMSAH
 70
0
  9
$DIMBLK1
  1

  9
$DIMBLK2
  1

  9
$DIMSTYLE
  2
EZDXF
  9
$DIMCLRD
 70
0
  9
$DIMCLRE
 70
0
  9
$DIMCLRT
 70
0
  9
$DIMTFAC
 40
0.5
  9
$DIMGAP
 40
0.1
  9
$DIMJUST
 70
0
  9
$DIMSD1
 70
0
  9
$DIMSD2
 70
0
  9
$DIMTOLJ
 70
0
  9
$DIMTZIN
 70
8
  9
$DIMALTZ
 70
0
  9
$DIMALTTZ
 70
0
  9
$DIMUPT
 70
1
  9
$DIMDEC
 70
2
  9
$DIMTDEC
 70
2
  9
$DIMALTU
 70
2
  9
$DIMALTTD
 70
3
  9
$DIMTXSTY
  7
OpenSansCondensed-Light
  9
$DIMAUNIT
 70
0
  9
$DIMADEC
 70
2
  9
$DIMALTRND
 40
0.0
  9
$DIMAZIN
 70
3
  9
$DIMDSEP
 70
46
  9
$DIMATFIT
 70
3
  9
$DIMFRAC
 70
0
  9
$DIMLDRBLK
  1

  9
$DIMLUNIT
 70
2
  9
$DIMLWD
 70
-2
  9
$DIMLWE
 70
-2
  9
$DIMTMOVE
 70
2
  9
$DIMFXL
 40
1.0
  9
$DIMFXLON
 70
0
  9
$DIMJOGANG
 40
0.785398163397
  9
$DIMTFILL
 70
0
  9
$DIMTFILLCLR
 70
0
  9
$DIMARCSYM
 70
0
  9
$DIMLTYPE
  6

  9
$DIMLTEX1
  6

  9
$DIMLTEX2
  6

  9
$DIMTXTDIRECTION
 70
0
  9
$LUNITS
 70
2
  9
$LUPREC
 70
4
  9
$SKETCHINC
 40
1.0
  9
$FILLETRAD
 40
10.0
  9
$AUNITS
 70
0
  9
$AUPREC
 70
2
  9
$MENU
  1
.
  9
$ELEVATION
 40
0.0
  9
$PELEVATION
 40
0.0
  9
$THICKNESS
 40
0.0
  9
$LIMCHECK
 70
0
  9
$CHAMFERA
 40
0.0
  9
$CHAMFERB
 40
0.0
  9
$CHAMFERC
 40
0.0
  9
$CHAMFERD
 40
0.0
  9
$SKPOLY
 70
0
  9
$TDCREATE
 40
2461295.329386574
  9
$TDUCREATE
 40
2458532.153996898
  9
$TDUPDATE
 40
2461295.329386574
  9
$TDUUPDATE
 40
2458532.1544311
  9
$TDINDWG
 40
0.0
  9
$TDUSRTIMER
 40
0.0
  9
$USRTIMER
 70
1
  9
$ANGBASE
 50
0.0
  9
$ANGDIR
 70
0
  9
$PDMODE
 70
0
  9
$PDSIZE
 40
0.0
  9
$PLINEWID
 40
0.0
  9
$SPLFRAME
 70
0
  9
$SPLINETYPE
 70
6
  9
$SPLINESEGS
 70
8
  9
$HANDSEED
  5
256
  9
$SURFTAB1
 70
6
  9
$SURFTAB2
 70
6
  9
$SURFTYPE
 70
6
  9
$SURFU
 70
6
  9
$SURFV
 70
6
  9
$UCSBASE
  2

  9
$UCSNAME
  2

  9
$UCSORG
 10
0.0
 20
0.0
 30
0.0
  9
$UCSXDIR
 10
1.0
 20
0.0
 30
0.0
  9
$UCSYDIR
 10
0.0
 20
1.0
 30
0.0
  9
$UCSORTHOREF
  2

  9
$UCSORTHOVIEW
 70
0
  9
$UCSORGTOP
 10
0.0
 20
0.0
 30
0.0
  9
$UCSORGBOTTOM
 10
0.0
 20
0.0
 30
0.0
  9
$UCSORGLEFT
 10
0.0
 20
0.0
 30
0.0
  9
$UCSORGRIGHT
 10
0.0
 20
0.0
 30
0.0
  9
$UCSORGFRONT
 10
0.0
 20
0.0
 30
0.0
  9
$UCSORGBACK
 10
0.0
 20
0.0
 30
0.0
  9
$PUCSBASE
  2

  9
$PUCSNAME
  2

  9
$PUCSORG
 10
0.0
 20
0.0
 30
0.0
  9
$PUCSXDIR
 10
1.0
 20
0.0
 30
0.0
  9
$PUCSYDIR
 10
0.0
 20
1.0
 30
0.0
  9
$PUCSORTHOREF
  2

  9
$PUCSORTHOVIEW
 70
0
  9
$PUCSORGTOP
 10
0.0
 20
0.0
 30
0.0
  9
$PUCSORGBOTTOM
 10
0.0
 20
0.0
 30
0.0
  9
$PUCSORGLEFT
 10
0.0
 20
0.0
 30
0.0
  9
$PUCSORGRIGHT
 10
0.0
 20
0.0
 30
0.0
  9
$PUCSORGFRONT
 10
0.0
 20
0.0
 30
0.0
  9
$PUCSORGBACK
 10
0.0
 20
0.0
 30
0.0
  9
$USERI1
 70
0
  9
$USERI2
 70
0
  9
$USERI3
 70
0
  9
$USERI4
 70
0
  9
$USERI5
 70
0
  9
$USERR1
 40
0.0
  9
$USERR2
 40
0.0
  9
$USERR3
 40
0.0
  9
$USERR4
 40
0.0
  9
$USERR5
 40
0.0
  9
$WORLDVIEW
 70
1
  9
$SHADEDGE
 70
3
  9
$SHADEDIF
 70
70
  9
$TILEMODE
 70
1
  9
$MAXACTVP
 70
64
  9
$PINSBASE
 10
0.0
 20
0.0
 30
0.0
  9
$PLIMCHECK
 70
0
  9
$PEXTMIN
 10
1e+20
 20
1e+20
 30
1e+20
  9
$PEXTMAX
 10
-1e+20
 20
-1e+20
 30
-1e+20
  9
$PLIMMIN
 10
0.0
 20
0.0
  9
$PLIMMAX
 10
420.0
 20
297.0
  9
$UNITMODE
 70
0
  9
$VISRETAIN
 70
1
  9
$PLINEGEN
 70
0
  9
$PSLTSCALE
 70
1
  9
$TREEDEPTH
 70
3020
  9
$CMLSTYLE
  2
Standard
  9
$CMLJUST
 70
0
  9
$CMLSCALE
 40
20.0
  9
$PROXYGRAPHICS
 70
1
  9
$MEASUREMENT
 70
1
  9
$CELWEIGHT
370
-1
  9
$ENDCAPS
280
0
  9
$JOINSTYLE
280
0
  9
$LWDISPLAY
290
0
  9
$INSUNITS
 70
4
  9
$HYPERLINKBASE
  1

  9
$STYLESHEET
  1

  9
$XEDIT
290
1
  9
$CEPSNTYPE
380
0
  9
$PSTYLEMODE
290
1
  9
$FINGERPRINTGUID
  2
{8F387AAA-779B-43C4-999E-B46CB2930A39}
  9
$VERSIONGUID
  2
{3EBAAC08-EE9F-4F5C-95C3-8AD74A5B51FF}
  9
$EXTNAMES
290
1
  9
$PSVPSCALE
 40
0.0
  9
$OLESTARTUP
290
0
  9
$SORTENTS
280
127
  9
$INDEXCTL
280
0
  9
$HIDETEXT
280
1
  9
$XCLIPFRAME
280
1
  9
$HALOGAP
280
0
  9
$OBSCOLOR
 70
257
  9
$OBSLTYPE
280
0
  9
$INTERSECTIONDISPLAY
280
0
  9
$INTERSECTIONCOLOR
 70
257
  9
$DIMASSOC
280
2
  9
$PROJECTNAME
  1

  9
$CAMERADISPLAY
290
0
  9
$LENSLENGTH
 40
50.0
  9
$CAMERAHEIGHT
 40
0.0
  9
$STEPSPERSEC
 40
24.0
  9
$STEPSIZE
 40
100.0
  9
$3DDWFPREC
 40
2.0
  9
$PSOLWIDTH
 40
0.005
  9
$PSOLHEIGHT
 40
0.08
  9
$LOFTANG1
 40
1.570796326795
  9
$LOFTANG2
 40
1.570796326795
  9
$LOFTMAG1
 40
0.0
  9
$LOFTMAG2
 40
0.0
  9
$LOFTPARAM
 70
7
  9
$LOFTNORMALS
280
1
  9
$LATITUDE
 40
37.795
  9
$LONGITUDE
 40
-122.394
  9
$NORTHDIRECTION
 40
0.0
  9
$TIMEZONE
 70
-8000
  9
$LIGHTGLYPHDISPLAY
280
1
  9
$TILEMODELIGHTSYNCH
280
1
  9
$CMATERIAL
347
20
  9
$SOLIDHIST
280
0
  9
$SHOWHIST
280
1
  9
$DWFFRAME
280
2
  9
$DGNFRAME
280
2
  9
$REALWORLDSCALE
290
1
  9
$INTERFERECOLOR
 62
256
  9
$CSHADOW
280
0
  9
$SHADOWPLANELOCATION
 40
0.0
  0
ENDSEC
  0
SECTION
  2
CLASSES
  0
CLASS
  1
ACDBDICTIONARYWDFLT
  2
AcDbDictionaryWithDefault
  3
ObjectDBX Classes
 90
0
 91
0
280
0
281
0
  0
CLASS
  1
SUN
  2
AcDbSun
  3
SCENEOE
 90
1153
 91
0
280
0
281
0
  0
CLASS
  1
VISUALSTYLE
  2
AcDbVisualStyle
  3
ObjectDBX Classes
 90
4095
 91
0
280
0
281
0
  0
CLASS
  1
MATERIAL
  2
AcDbMaterial
  3
ObjectDBX Classes
 90
1153
 91
0
280
0
281
0
  0
CLASS
  1
SCALE
  2
AcDbScale
  3
ObjectDBX Classes
 90
1153
 91
0
280
0
281
0
  0
CLASS
  1
TABLESTYLE
  2
AcDbTableStyle
  3
ObjectDBX Classes
 90
4095
 91
0
280
0
281
0
  0
CLASS
  1
MLEADERSTYLE
  2
AcDbMLeaderStyle
  3
ACDB_MLEADERSTYLE_CLASS
 90
4095
 91
0
280
0
281
0
  0
CLASS
  1
DICTIONARYVAR
  2
AcDbDictionaryVar
  3
ObjectDBX Classes
 90
0
 91
0
280
0
281
0
  0
CLASS
  1
CELLSTYLEMAP
  2
AcDbCellStyleMap
  3
ObjectDBX Classes
 90
1152
 91
0
280
0
281
0
  0
CLASS
  1
MENTALRAYRENDERSETTINGS
  2
AcDbMentalRayRenderSettings
  3
SCENEOE
 90
1024
 91
0
280
0
281
0
  0
CLASS
  1
ACDBDETAILVIEWSTYLE
  2
AcDbDetailViewStyle
  3
ObjectDBX Classes
 90
1025
 91
0
280
0
281
0
  0
CLASS
  1
ACDBSECTIONVIEWSTYLE
  2
AcDbSectionViewStyle
  3
ObjectDBX Classes
 90
1025
 91
0
280
0
281
0
  0
CLASS
  1
RASTERVARIABLES
  2
AcDbRasterVariables
  3
ISM
 90
0
 91
0
280
0
281
0
  0
CLASS
  1
LAYOUT
  2
AcDbLayout
  3
ObjectDBX Classes
 90
0
 91
0
280
0
281
0
  0
CLASS
  1
ACDBPLACEHOLDER
  2
AcDbPlaceHolder
  3
ObjectDBX Classes
 90
0
 91
0
280
0
281
0
  0
ENDSEC
  0
SECTION
  2
TABLES
  0
TABLE
  2
VPORT
  5
8
330
0
100
AcDbSymbolTable
 70
1
  0
VPORT
  5
23
330
8
100
AcDbSymbolTableRecord
100
AcDbViewportTableRecord
  2
*Active
 70
0
 10
0.0
 20
0.0
 11
1.0
 21
1.0
 12
0.0
 22
0.0
 13
0.0
 23
0.0
 14
0.5
 24
0.5
 15
0.5
 25
0.5
 16
0.0
 26
0.0
 36
1.0
 17
0.0
 27
0.0
 37
0.0
 40
1000.0
 41
1.34
 42
50.0
 43
0.0
 44
0.0
 50
0.0
 51
0.0
 71
0
 72
1000
 73
1
 74
3
 75
0
 76
0
 77
0
 78
0
281
0
 65
0
146
0.0
  0
ENDTAB
  0
TABLE
  2
LTYPE
  5
2
330
0
100
AcDbSymbolTable
 70
21
  0
LTYPE
  5
24
330
2
100
AcDbSymbolTableRecord
100
AcDbLinetypeTableRecord
  2
ByBlock
 70
0
  3

 72
65
 73
0
 40
0.0
  0
LTYPE
  5
25
330
2
100
AcDbSymbolTableRecord
100
AcDbLinetypeTableRecord
  2
ByLayer
 70
0
  3

 72
65
 73
0
 40
0.0
  0
LTYPE
  5
26
330
2
100
AcDbSymbolTableRecord
100
AcDbLinetypeTableRecord
  2
Continuous
 70
0
  3

 72
65
 73
0
 40
0.0
  0
LTYPE
  5
2F
330
2
100
AcDbSymbolTableRecord
100
AcDbLinetypeTableRecord
  2
CENTER
 70
0
  3
Center ____ _ ____ _ ____ _ ____ _ ____ _ ____
 72
65
 73
4
 40
5.08
 49
3.175
 74
0
 49
-0.635
 74
0
 49
0.635
 74
0
 49
-0.635
 74
0
  0
LTYPE
  5
30
330
2
100
AcDbSymbolTableRecord
100
AcDbLinetypeTableRecord
  2
CENTERX2
 70
0
  3
Center (2x) ________  __  ________  __  ________
 72
65
 73
4
 40
8.89
 49
6.35
 74
0
 49
-0.635
 74
0
 49
1.27
 74
0
 49
-0.635
 74
0
  0
LTYPE
  5
31
330
2
100
AcDbSymbolTableRecord
100
AcDbLinetypeTableRecord
  2
CENTER2
 70
0
  3
Center (.5x) ____ _ ____ _ ____ _ ____ _ ____
 72
65
 73
4
 40
2.54
 49
1.587
 74
0
 49
-0.318
 74
0
 49
0.318
 74
0
 49
-0.318
 74
0
  0
LTYPE
  5
32
330
2
100
AcDbSymbolTableRecord
100
AcDbLinetypeTableRecord
  2
DASHED
 70
0
  3
Dashed __ __ __ __ __ __ __ __ __ __ __ __ __ _
 72
65
 73
2
 40
1.524
 49
1.27
 74
0
 49
-0.254
 74
0
  0
LTYPE
  5
33
330
2
100
AcDbSymbolTableRecord
100
AcDbLinetypeTableRecord
  2
DASHEDX2
 70
0
  3
Dashed (2x) ____  ____  ____  ____  ____  ____
 72
65
 73
2
 40
3.048
 49
2.54
 74
0
 49
-0.508
 74
0
  0
LTYPE
  5
34
330
2
100
AcDbSymbolTableRecord
100
AcDbLinetypeTableRecord
  2
DASHED2
 70
0
  3
Dashed (.5x) _ _ _ _ _ _ _ _ _ _ _ _ _ _
 72
65
 73
2
 40
0.762
 49
0.635
 74
0
 49
-0.127
 74
0
  0
LTYPE
  5
35
330
2
100
AcDbSymbolTableRecord
100
AcDbLinetypeTableRecord
  2
PHANTOM
 70
0
  3
Phantom ______  __  __  ______  __  __  ______
 72
65
 73
6
 40
6.35
 49
3.175
 74
0
 49
-0.635
 74
0
 49
0.635
 74
0
 49
-0.635
 74
0
 49
0.635
 74
0
 49
-0.635
 74
0
  0
LTYPE
  5
36
330
2
100
AcDbSymbolTableRecord
100
AcDbLinetypeTableRecord
  2
PHANTOMX2
 70
0
  3
Phantom (2x)____________    ____    ____    ____________
 72
65
 73
6
 40
10.795
 49
6.35
 74
0
 49
-0.635
 74
0
 49
1.27
 74
0
 49
-0.635
 74
0
 49
1.27
 74
0
 49
-0.635
 74
0
  0
LTYPE
  5
37
330
2
100
AcDbSymbolTableRecord
100
AcDbLinetypeTableRecord
  2
PHANTOM2
 70
0
  3
Phantom (.5x) ___ _ _ ___ _ _ ___ _ _ ___ _ _ ___
 72
65
 73
6
 40
3.175
 49
1.587
 74
0
 49
-0.318
 74
0
 49
0.318
 74
0
 49
-0.318
 74
0
 49
0.318
 74
0
 49
-0.318
 74
0
  0
LTYPE
  5
38
330
2
100
AcDbSymbolTableRecord
100
AcDbLinetypeTableRecord
  2
DASHDOT
 70
0
  3
Dash dot __ . __ . __ . __ . __ . __ . __ . __
 72
65
 73
4
 40
3.556
 49
2.54
 74
0
 49
-0.508
 74
0
 49
0.0
 74
0
 49
-0.508
 74
0
  0
LTYPE
  5
39
330
2
100
AcDbSymbolTableRecord
100
AcDbLinetypeTableRecord
  2
DASHDOTX2
 70
0
  3
Dash dot (2x) ____  .  ____  .  ____  .  ____
 72
65
 73
4
 40
6.096
 49
5.08
 74
0
 49
-0.508
 74
0
 49
0.0
 74
0
 49
-0.508
 74
0
  0
LTYPE
  5
3A
330
2
100
AcDbSymbolTableRecord
100
AcDbLinetypeTableRecord
  2
DASHDOT2
 70
0
  3
Dash dot (.5x) _ . _ . _ . _ . _ . _ . _ . _
 72
65
 73
4
 40
1.778
 49
1.27
 74
0
 49
-0.254
 74
0
 49
0.0
 74
0
 49
-0.254
 74
0
  0
LTYPE
  5
3B
330
2
100
AcDbSymbolTableRecord
100
AcDbLinetypeTableRecord
  2
DOT
 70
0
  3
Dot .  .  .  .  .  .  .  .  .  .  .  .  .  .  .  .
 72
65
 73
2
 40
0.508
 49
0.0
 74
0
 49
-0.508
 74
0
  0
LTYPE
  5
3C
330
2
100
AcDbSymbolTableRecord
100
AcDbLinetypeTableRecord
  2
DOTX2
 70
0
  3
Dot (2x) .    .    .    .    .    .    .    . 
 72
65
 73
2
 40
1.016
 49
0.0
 74
0
 49
-1.016
 74
0
  0
LTYPE
  5
3D
330
2
100
AcDbSymbolTableRecord
100
AcDbLinetypeTableRecord
  2
DOT2
 70
0
  3
Dot (.5) . . . . . . . . . . . . . . . . . . . 
 72
65
 73
2
 40
0.254
 49
0.0
 74
0
 49
-0.254
 74
0
  0
LTYPE
  5
3E
330
2
100
AcDbSymbolTableRecord
100
AcDbLinetypeTableRecord
  2
DIVIDE
 70
0
  3
Divide __ . . __ . . __ . . __ . . __ . . __
 72
65
 73
6
 40
4.064
 49
2.54
 74
0
 49
-0.508
 74
0
 49
0.0
 74
0
 49
-0.508
 74
0
 49
0.0
 74
0
 49
-0.508
 74
0
  0
LTYPE
  5
3F
330
2
100
AcDbSymbolTableRecord
100
AcDbLinetypeTableRecord
  2
DIVIDEX2
 70
0
  3
Divide (2x) ____  . .  ____  . .  ____  . .  ____
 72
65
 73
6
 40
6.604
 49
5.08
 74
0
 49
-0.508
 74
0
 49
0.0
 74
0
 49
-0.508
 74
0
 49
0.0
 74
0
 49
-0.508
 74
0
  0
LTYPE
  5
40
330
2
100
AcDbSymbolTableRecord
100
AcDbLinetypeTableRecord
  2
DIVIDE2
 70
0
  3
Divide(.5x) _ . _ . _ . _ . _ . _ . _ . _
 72
65
 73
6
 40
2.032
 49
1.27
 74
0
 49
-0.254
 74
0
 49
0.0
 74
0
 49
-0.254
 74
0
 49
0.0
 74
0
 49
-0.254
 74
0
  0
ENDTAB
  0
TABLE
  2
LAYER
  5
1
330
0
100
AcDbSymbolTable
 70
75
  0
LAYER
  5
27
330
1
100
AcDbSymbolTableRecord
100
AcDbLayerTableRecord
  2
0
 70
0
 62
7
  6
Continuous
370
-3
390
13
347
21
  0
LAYER
  5
28
330
1
100
AcDbSymbolTableRecord
100
AcDbLayerTableRecord
  2
Defpoints
 70
0
 62
7
  6
Continuous
290
0
370
-3
390
13
347
21
  0
LAYER
  5
8A
330
1
100
AcDbSymbolTableRecord
100
AcDbLayerTableRecord
  2
S-CONCRETE
 70
0
 62
7
  6
Continuous
370
-3
390
13
347
21
1001
AcAecLayerStandard
1000

1000
Structural concrete outlines (cut)
  0
LAYER
  5
8C
330
1
100
AcDbSymbolTableRecord
100
AcDbLayerTableRecord
  2
S-CONCRETE-THIN
 70
0
 62
7
  6
Continuous
370
-3
390
13
347
21
1001
AcAecLayerStandard
1000

1000
Concrete beyond the cut plane
  0
LAYER
  5
8D
330
1
100
AcDbSymbolTableRecord
100
AcDbLayerTableRecord
  2
S-HIDDEN
 70
0
 62
8
  6
Continuous
370
-3
390
13
347
21
1001
AcAecLayerStandard
1000

1000
Concrete / features beyond, hidden
  0
LAYER
  5
8E
330
1
100
AcDbSymbolTableRecord
100
AcDbLayerTableRecord
  2
S-REBAR-MAIN
 70
0
 62
1
  6
Continuous
370
-3
390
13
347
21
1001
AcAecLayerStandard
1000

1000
Main reinforcement
  0
LAYER
  5
8F
330
1
100
AcDbSymbolTableRecord
100
AcDbLayerTableRecord
  2
S-REBAR-DIST
 70
0
 62
3
  6
Continuous
370
-3
390
13
347
21
1001
AcAecLayerStandard
1000

1000
Distribution reinforcement
  0
LAYER
  5
90
330
1
100
AcDbSymbolTableRecord
100
AcDbLayerTableRecord
  2
S-REBAR-STIRRUP
 70
0
 62
6
  6
Continuous
370
-3
390
13
347
21
1001
AcAecLayerStandard
1000

1000
Links and stirrups
  0
LAYER
  5
91
330
1
100
AcDbSymbolTableRecord
100
AcDbLayerTableRecord
  2
S-REBAR-TIE
 70
0
 62
6
  6
Continuous
370
-3
390
13
347
21
1001
AcAecLayerStandard
1000

1000
Ties, cross-ties, starters
  0
LAYER
  5
92
330
1
100
AcDbSymbolTableRecord
100
AcDbLayerTableRecord
  2
S-REBAR-SEC
 70
0
 62
4
  6
Continuous
370
-3
390
13
347
21
1001
AcAecLayerStandard
1000

1000
Trimmers, secondary and additional bars
  0
LAYER
  5
93
330
1
100
AcDbSymbolTableRecord
100
AcDbLayerTableRecord
  2
S-DIM
 70
0
 62
4
  6
Continuous
370
-3
390
13
347
21
1001
AcAecLayerStandard
1000

1000
Dimensions
  0
LAYER
  5
94
330
1
100
AcDbSymbolTableRecord
100
AcDbLayerTableRecord
  2
S-TEXT
 70
0
 62
7
  6
Continuous
370
-3
390
13
347
21
1001
AcAecLayerStandard
1000

1000
General annotation
  0
LAYER
  5
95
330
1
100
AcDbSymbolTableRecord
100
AcDbLayerTableRecord
  2
S-NOTE
 70
0
 62
7
  6
Continuous
370
-3
390
13
347
21
1001
AcAecLayerStandard
1000

1000
Note panels
  0
LAYER
  5
96
330
1
100
AcDbSymbolTableRecord
100
AcDbLayerTableRecord
  2
S-CALLOUT
 70
0
 62
2
  6
Continuous
370
-3
390
13
347
21
1001
AcAecLayerStandard
1000

1000
Bar-mark balloons and leaders
  0
LAYER
  5
97
330
1
100
AcDbSymbolTableRecord
100
AcDbLayerTableRecord
  2
S-SECTION
 70
0
 62
1
  6
Continuous
370
-3
390
13
347
21
1001
AcAecLayerStandard
1000

1000
Section and detail markers
  0
LAYER
  5
98
330
1
100
AcDbSymbolTableRecord
100
AcDbLayerTableRecord
  2
S-GRID
 70
0
 62
5
  6
Continuous
370
-3
390
13
347
21
1001
AcAecLayerStandard
1000

1000
Grid lines and bubbles
  0
LAYER
  5
99
330
1
100
AcDbSymbolTableRecord
100
AcDbLayerTableRecord
  2
S-CENTER
 70
0
 62
6
  6
Continuous
370
-3
390
13
347
21
1001
AcAecLayerStandard
1000

1000
Centrelines
  0
LAYER
  5
9A
330
1
100
AcDbSymbolTableRecord
100
AcDbLayerTableRecord
  2
S-HATCH
 70
0
 62
8
  6
Continuous
370
-3
390
13
347
21
1001
AcAecLayerStandard
1000

1000
Section hatch
  0
LAYER
  5
9B
330
1
100
AcDbSymbolTableRecord
100
AcDbLayerTableRecord
  2
S-TITLE
 70
0
 62
7
  6
Continuous
370
-3
390
13
347
21
1001
AcAecLayerStandard
1000

1000
Border, title block, view titles
  0
LAYER
  5
9C
330
1
100
AcDbSymbolTableRecord
100
AcDbLayerTableRecord
  2
S-EXISTING
 70
0
 62
8
  6
Continuous
370
-3
390
13
347
21
1001
AcAecLayerStandard
1000

1000
Soil, rock, berm, cover layers
  0
LAYER
  5
9D
330
1
100
AcDbSymbolTableRecord
100
AcDbLayerTableRecord
  2
S-REFERENCE
 70
0
 62
8
  6
Continuous
370
-3
390
13
347
21
1001
AcAecLayerStandard
1000

1000
Reference geometry, extents
  0
LAYER
  5
9E
330
1
100
AcDbSymbolTableRecord
100
AcDbLayerTableRecord
  2
S-WATERPROOF
 70
0
 62
30
  6
Continuous
370
-3
390
13
347
21
1001
AcAecLayerStandard
1000

1000
Membranes, waterstops, GWT
  0
LAYER
  5
9F
330
1
100
AcDbSymbolTableRecord
100
AcDbLayerTableRecord
  2
S-STEELWORK
 70
0
 62
2
  6
Continuous
370
-3
390
13
347
21
1001
AcAecLayerStandard
1000

1000
Cast-in frames, EMP straps, steel items
  0
LAYER
  5
A0
330
1
100
AcDbSymbolTableRecord
100
AcDbLayerTableRecord
  2
S-LEVEL
 70
0
 62
4
  6
Continuous
370
-3
390
13
347
21
1001
AcAecLayerStandard
1000

1000
Level markers
  0
LAYER
  5
A1
330
1
100
AcDbSymbolTableRecord
100
AcDbLayerTableRecord
  2
S-TABLE
 70
0
 62
7
  6
Continuous
370
-3
390
13
347
21
1001
AcAecLayerStandard
1000

1000
Tables and schedules
  0
LAYER
  5
A2
330
1
100
AcDbSymbolTableRecord
100
AcDbLayerTableRecord
  2
S-BLAST
 70
0
 62
1
  6
Continuous
370
-3
390
13
347
21
1001
AcAecLayerStandard
1000

1000
Blast arrows, findings, warnings
  0
LAYER
  5
B9
330
1
100
AcDbSymbolTableRecord
100
AcDbLayerTableRecord
  2
M-ARCH
 70
0
 62
8
  6
Continuous
370
-3
390
13
347
21
1001
AcAecLayerStandard
1000

1000
Architectural background, walls and slabs
  0
LAYER
  5
BA
330
1
100
AcDbSymbolTableRecord
100
AcDbLayerTableRecord
  2
M-ARCH-HIDDEN
 70
0
 62
8
  6
Continuous
370
-3
390
13
347
21
1001
AcAecLayerStandard
1000

1000
Structure and features beyond
  0
LAYER
  5
BB
330
1
100
AcDbSymbolTableRecord
100
AcDbLayerTableRecord
  2
M-STRUCT
 70
0
 62
7
  6
Continuous
370
-3
390
13
347
21
1001
AcAecLayerStandard
1000

1000
Structure cut by the view
  0
LAYER
  5
BC
330
1
100
AcDbSymbolTableRecord
100
AcDbLayerTableRecord
  2
M-GRID
 70
0
 62
5
  6
Continuous
370
-3
390
13
347
21
1001
AcAecLayerStandard
1000

1000
Grid and bay reference lines
  0
LAYER
  5
BD
330
1
100
AcDbSymbolTableRecord
100
AcDbLayerTableRecord
  2
P-DRAIN-SOIL
 70
0
 62
1
  6
Continuous
370
-3
390
13
347
21
1001
AcAecLayerStandard
1000

1000
Soil drainage - foul
  0
LAYER
  5
BE
330
1
100
AcDbSymbolTableRecord
100
AcDbLayerTableRecord
  2
P-DRAIN-WASTE
 70
0
 62
3
  6
Continuous
370
-3
390
13
347
21
1001
AcAecLayerStandard
1000

1000
Waste drainage - wastewater
  0
LAYER
  5
BF
330
1
100
AcDbSymbolTableRecord
100
AcDbLayerTableRecord
  2
P-DRAIN-STORM
 70
0
 62
5
  6
Continuous
370
-3
390
13
347
21
1001
AcAecLayerStandard
1000

1000
Storm and surface water
  0
LAYER
  5
C0
330
1
100
AcDbSymbolTableRecord
100
AcDbLayerTableRecord
  2
P-DRAIN-SEEP
 70
0
 62
4
  6
Continuous
370
-3
390
13
347
21
1001
AcAecLayerStandard
1000

1000
Groundwater, seepage and subsoil drainage
  0
LAYER
  5
C1
330
1
100
AcDbSymbolTableRecord
100
AcDbLayerTableRecord
  2
P-DRAIN-EFF
 70
0
 62
6
  6
Continuous
370
-3
390
13
347
21
1001
AcAecLayerStandard
1000

1000
Decon effluent - contaminated, segregated
  0
LAYER
  5
C2
330
1
100
AcDbSymbolTableRecord
100
AcDbLayerTableRecord
  2
P-DRAIN-RISING
 70
0
 62
2
  6
Continuous
370
-3
390
13
347
21
1001
AcAecLayerStandard
1000

1000
Pumped rising main
  0
LAYER
  5
C3
330
1
100
AcDbSymbolTableRecord
100
AcDbLayerTableRecord
  2
P-DRAIN-VENT
 70
0
 62
8
  6
Continuous
370
-3
390
13
347
21
1001
AcAecLayerStandard
1000

1000
Drainage ventilation
  0
LAYER
  5
C4
330
1
100
AcDbSymbolTableRecord
100
AcDbLayerTableRecord
  2
P-EQUIP
 70
0
 62
2
  6
Continuous
370
-3
390
13
347
21
1001
AcAecLayerStandard
1000

1000
Pumps, tanks, chambers, plant
  0
LAYER
  5
C5
330
1
100
AcDbSymbolTableRecord
100
AcDbLayerTableRecord
  2
P-FLOW
 70
0
 62
1
  6
Continuous
370
-3
390
13
347
21
1001
AcAecLayerStandard
1000

1000
Flow arrows and direction
  0
LAYER
  5
C6
330
1
100
AcDbSymbolTableRecord
100
AcDbLayerTableRecord
  2
M-DUCT-SUPPLY
 70
0
 62
5
  6
Continuous
370
-3
390
13
347
21
1001
AcAecLayerStandard
1000

1000
Supply air ductwork
  0
LAYER
  5
C7
330
1
100
AcDbSymbolTableRecord
100
AcDbLayerTableRecord
  2
M-DUCT-RETURN
 70
0
 62
3
  6
Continuous
370
-3
390
13
347
21
1001
AcAecLayerStandard
1000

1000
Return air ductwork
  0
LAYER
  5
C8
330
1
100
AcDbSymbolTableRecord
100
AcDbLayerTableRecord
  2
M-DUCT-FRESH
 70
0
 62
4
  6
Continuous
370
-3
390
13
347
21
1001
AcAecLayerStandard
1000

1000
Fresh air ductwork
  0
LAYER
  5
C9
330
1
100
AcDbSymbolTableRecord
100
AcDbLayerTableRecord
  2
M-DUCT-EXH
 70
0
 62
1
  6
Continuous
370
-3
390
13
347
21
1001
AcAecLayerStandard
1000

1000
Exhaust air ductwork
  0
LAYER
  5
CA
330
1
100
AcDbSymbolTableRecord
100
AcDbLayerTableRecord
  2
M-DUCT-CL
 70
0
 62
8
  6
Continuous
370
-3
390
13
347
21
1001
AcAecLayerStandard
1000

1000
Duct centrelines
  0
LAYER
  5
CB
330
1
100
AcDbSymbolTableRecord
100
AcDbLayerTableRecord
  2
M-TERMINAL
 70
0
 62
2
  6
Continuous
370
-3
390
13
347
21
1001
AcAecLayerStandard
1000

1000
Diffusers, grilles and terminals
  0
LAYER
  5
CC
330
1
100
AcDbSymbolTableRecord
100
AcDbLayerTableRecord
  2
M-EQUIP
 70
0
 62
2
  6
Continuous
370
-3
390
13
347
21
1001
AcAecLayerStandard
1000

1000
HVAC plant and equipment
  0
LAYER
  5
CD
330
1
100
AcDbSymbolTableRecord
100
AcDbLayerTableRecord
  2
M-DAMPER
 70
0
 62
6
  6
Continuous
370
-3
390
13
347
21
1001
AcAecLayerStandard
1000

1000
Dampers, valves and isolation devices
  0
LAYER
  5
CE
330
1
100
AcDbSymbolTableRecord
100
AcDbLayerTableRecord
  2
M-AIRFLOW
 70
0
 62
1
  6
Continuous
370
-3
390
13
347
21
1001
AcAecLayerStandard
1000

1000
Airflow arrows and quantities
  0
LAYER
  5
CF
330
1
100
AcDbSymbolTableRecord
100
AcDbLayerTableRecord
  2
A-FIN-FLOOR
 70
0
 62
4
  6
Continuous
370
-3
390
13
347
21
1001
AcAecLayerStandard
1000

1000
Floor finish zones and tags
  0
LAYER
  5
D0
330
1
100
AcDbSymbolTableRecord
100
AcDbLayerTableRecord
  2
A-FIN-WALL
 70
0
 62
3
  6
Continuous
370
-3
390
13
347
21
1001
AcAecLayerStandard
1000

1000
Wall finish zones and tags
  0
LAYER
  5
D1
330
1
100
AcDbSymbolTableRecord
100
AcDbLayerTableRecord
  2
A-FIN-CEIL
 70
0
 62
5
  6
Continuous
370
-3
390
13
347
21
1001
AcAecLayerStandard
1000

1000
Ceiling and soffit finish tags
  0
LAYER
  5
D2
330
1
100
AcDbSymbolTableRecord
100
AcDbLayerTableRecord
  2
A-FIN-WET
 70
0
 62
30
  6
Continuous
370
-3
390
13
347
21
1001
AcAecLayerStandard
1000

1000
Wet areas, tanking and falls
  0
LAYER
  5
D3
330
1
100
AcDbSymbolTableRecord
100
AcDbLayerTableRecord
  2
A-FIN-TAG
 70
0
 62
7
  6
Continuous
370
-3
390
13
347
21
1001
AcAecLayerStandard
1000

1000
Finish tag boxes and leaders
  0
LAYER
  5
D4
330
1
100
AcDbSymbolTableRecord
100
AcDbLayerTableRecord
  2
M-WATERPROOF
 70
0
 62
30
  6
Continuous
370
-3
390
13
347
21
1001
AcAecLayerStandard
1000

1000
Membranes, waterstops, tanking
  0
LAYER
  5
D5
330
1
100
AcDbSymbolTableRecord
100
AcDbLayerTableRecord
  2
M-LEVEL
 70
0
 62
4
  6
Continuous
370
-3
390
13
347
21
1001
AcAecLayerStandard
1000

1000
Level and invert markers
  0
LAYER
  5
D6
330
1
100
AcDbSymbolTableRecord
100
AcDbLayerTableRecord
  2
M-DIM
 70
0
 62
4
  6
Continuous
370
-3
390
13
347
21
1001
AcAecLayerStandard
1000

1000
Dimensions
  0
LAYER
  5
D7
330
1
100
AcDbSymbolTableRecord
100
AcDbLayerTableRecord
  2
M-TEXT
 70
0
 62
7
  6
Continuous
370
-3
390
13
347
21
1001
AcAecLayerStandard
1000

1000
General annotation
  0
LAYER
  5
D8
330
1
100
AcDbSymbolTableRecord
100
AcDbLayerTableRecord
  2
M-NOTE
 70
0
 62
7
  6
Continuous
370
-3
390
13
347
21
1001
AcAecLayerStandard
1000

1000
Note panels
  0
LAYER
  5
D9
330
1
100
AcDbSymbolTableRecord
100
AcDbLayerTableRecord
  2
M-TABLE
 70
0
 62
7
  6
Continuous
370
-3
390
13
347
21
1001
AcAecLayerStandard
1000

1000
Tables and schedules
  0
LAYER
  5
DA
330
1
100
AcDbSymbolTableRecord
100
AcDbLayerTableRecord
  2
M-CALLOUT
 70
0
 62
2
  6
Continuous
370
-3
390
13
347
21
1001
AcAecLayerStandard
1000

1000
Tags, balloons and leaders
  0
LAYER
  5
DB
330
1
100
AcDbSymbolTableRecord
100
AcDbLayerTableRecord
  2
M-SECTION
 70
0
 62
1
  6
Continuous
370
-3
390
13
347
21
1001
AcAecLayerStandard
1000

1000
Section and detail markers
  0
LAYER
  5
DC
330
1
100
AcDbSymbolTableRecord
100
AcDbLayerTableRecord
  2
M-TITLE
 70
0
 62
7
  6
Continuous
370
-3
390
13
347
21
1001
AcAecLayerStandard
1000

1000
Border, title block, view titles
  0
LAYER
  5
DD
330
1
100
AcDbSymbolTableRecord
100
AcDbLayerTableRecord
  2
M-HATCH
 70
0
 62
8
  6
Continuous
370
-3
390
13
347
21
1001
AcAecLayerStandard
1000

1000
Hatching
  0
LAYER
  5
DE
330
1
100
AcDbSymbolTableRecord
100
AcDbLayerTableRecord
  2
M-EXISTING
 70
0
 62
8
  6
Continuous
370
-3
390
13
347
21
1001
AcAecLayerStandard
1000

1000
Soil, rock, berm, cover
  0
LAYER
  5
DF
330
1
100
AcDbSymbolTableRecord
100
AcDbLayerTableRecord
  2
M-FLAG
 70
0
 62
1
  6
Continuous
370
-3
390
13
347
21
1001
AcAecLayerStandard
1000

1000
Open items, data-required flags, warnings
  0
LAYER
  5
120
330
1
100
AcDbSymbolTableRecord
100
AcDbLayerTableRecord
  2
G-TOPSOIL
 70
0
 62
30
  6
Continuous
370
-3
390
13
347
21
1001
AcAecLayerStandard
1000

1000
Black cotton soil - CH, very high swell
  0
LAYER
  5
121
330
1
100
AcDbSymbolTableRecord
100
AcDbLayerTableRecord
  2
G-MURRUM
 70
0
 62
42
  6
Continuous
370
-3
390
13
347
21
1001
AcAecLayerStandard
1000

1000
Murrum - GM / GP / SC
  0
LAYER
  5
122
330
1
100
AcDbSymbolTableRecord
100
AcDbLayerTableRecord
  2
G-BROKEN
 70
0
 62
33
  6
Continuous
370
-3
390
13
347
21
1001
AcAecLayerStandard
1000

1000
Disintegrated broken basalt
  0
LAYER
  5
123
330
1
100
AcDbSymbolTableRecord
100
AcDbLayerTableRecord
  2
G-ROCK
 70
0
 62
8
  6
Continuous
370
-3
390
13
347
21
1001
AcAecLayerStandard
1000

1000
Sound basalt
  0
LAYER
  5
124
330
1
100
AcDbSymbolTableRecord
100
AcDbLayerTableRecord
  2
G-NODATA
 70
0
 62
1
  6
Continuous
370
-3
390
13
347
21
1001
AcAecLayerStandard
1000

1000
BELOW THE INVESTIGATION - NO DATA EXISTS
  0
LAYER
  5
125
330
1
100
AcDbSymbolTableRecord
100
AcDbLayerTableRecord
  2
G-WATER
 70
0
 62
4
  6
Continuous
370
-3
390
13
347
21
1001
AcAecLayerStandard
1000

1000
Design groundwater table - ASSUMED
  0
LAYER
  5
126
330
1
100
AcDbSymbolTableRecord
100
AcDbLayerTableRecord
  2
G-STRUCT
 70
0
 62
7
  6
Continuous
370
-3
390
13
347
21
1001
AcAecLayerStandard
1000

1000
Structure, for comparison only
  0
LAYER
  5
127
330
1
100
AcDbSymbolTableRecord
100
AcDbLayerTableRecord
  2
G-LOG
 70
0
 62
7
  6
Continuous
370
-3
390
13
347
21
1001
AcAecLayerStandard
1000

1000
Trial pit log outline
  0
LAYER
  5
128
330
1
100
AcDbSymbolTableRecord
100
AcDbLayerTableRecord
  2
G-SETTING
 70
0
 62
5
  6
Continuous
370
-3
390
13
347
21
1001
AcAecLayerStandard
1000

1000
Site setting diagram - NOT a site plan
  0
LAYER
  5
129
330
1
100
AcDbSymbolTableRecord
100
AcDbLayerTableRecord
  2
G-FLAGG
 70
0
 62
1
  6
Continuous
370
-3
390
13
347
21
1001
AcAecLayerStandard
1000

1000
Open items and findings
  0
ENDTAB
  0
TABLE
  2
STYLE
  5
5
330
0
100
AcDbSymbolTable
 70
26
  0
STYLE
  5
29
330
5
100
AcDbSymbolTableRecord
100
AcDbTextStyleTableRecord
  2
Standard
 70
0
 40
0.0
 41
1.0
 50
0.0
 71
0
 42
2.5
  3
txt
  4

  0
STYLE
  5
41
330
5
100
AcDbSymbolTableRecord
100
AcDbTextStyleTableRecord
  2
OpenSans-Light
 70
0
 40
0.0
 41
1.0
 50
0.0
 71
0
 42
2.5
  3
OpenSans-Light.ttf
  4

  0
STYLE
  5
42
330
5
100
AcDbSymbolTableRecord
100
AcDbTextStyleTableRecord
  2
OpenSans-Light-Italic
 70
0
 40
0.0
 41
1.0
 50
0.0
 71
0
 42
2.5
  3
OpenSans-LightItalic.ttf
  4

  0
STYLE
  5
43
330
5
100
AcDbSymbolTableRecord
100
AcDbTextStyleTableRecord
  2
OpenSans
 70
0
 40
0.0
 41
1.0
 50
0.0
 71
0
 42
2.5
  3
OpenSans-Regular.ttf
  4

  0
STYLE
  5
44
330
5
100
AcDbSymbolTableRecord
100
AcDbTextStyleTableRecord
  2
OpenSans-Italic
 70
0
 40
0.0
 41
1.0
 50
0.0
 71
0
 42
2.5
  3
OpenSans-Italic.ttf
  4

  0
STYLE
  5
45
330
5
100
AcDbSymbolTableRecord
100
AcDbTextStyleTableRecord
  2
OpenSans-SemiBold
 70
0
 40
0.0
 41
1.0
 50
0.0
 71
0
 42
2.5
  3
OpenSans-SemiBold.ttf
  4

  0
STYLE
  5
46
330
5
100
AcDbSymbolTableRecord
100
AcDbTextStyleTableRecord
  2
OpenSans-SemiBoldItalic
 70
0
 40
0.0
 41
1.0
 50
0.0
 71
0
 42
2.5
  3
OpenSans-SemiBoldItalic.ttf
  4

  0
STYLE
  5
47
330
5
100
AcDbSymbolTableRecord
100
AcDbTextStyleTableRecord
  2
OpenSans-Bold
 70
0
 40
0.0
 41
1.0
 50
0.0
 71
0
 42
2.5
  3
OpenSans-Bold.ttf
  4

  0
STYLE
  5
48
330
5
100
AcDbSymbolTableRecord
100
AcDbTextStyleTableRecord
  2
OpenSans-BoldItalic
 70
0
 40
0.0
 41
1.0
 50
0.0
 71
0
 42
2.5
  3
OpenSans-BoldItalic.ttf
  4

  0
STYLE
  5
49
330
5
100
AcDbSymbolTableRecord
100
AcDbTextStyleTableRecord
  2
OpenSans-ExtraBold
 70
0
 40
0.0
 41
1.0
 50
0.0
 71
0
 42
2.5
  3
OpenSans-ExtraBold.ttf
  4

  0
STYLE
  5
4A
330
5
100
AcDbSymbolTableRecord
100
AcDbTextStyleTableRecord
  2
OpenSans-ExtraBoldItalic
 70
0
 40
0.0
 41
1.0
 50
0.0
 71
0
 42
2.5
  3
OpenSans-ExtraBoldItalic.ttf
  4

  0
STYLE
  5
4B
330
5
100
AcDbSymbolTableRecord
100
AcDbTextStyleTableRecord
  2
OpenSansCondensed-Bold
 70
0
 40
0.0
 41
1.0
 50
0.0
 71
0
 42
2.5
  3
OpenSansCondensed-Bold.ttf
  4

  0
STYLE
  5
4C
330
5
100
AcDbSymbolTableRecord
100
AcDbTextStyleTableRecord
  2
OpenSansCondensed-Light
 70
0
 40
0.0
 41
1.0
 50
0.0
 71
0
 42
2.5
  3
OpenSansCondensed-Light.ttf
  4

  0
STYLE
  5
4D
330
5
100
AcDbSymbolTableRecord
100
AcDbTextStyleTableRecord
  2
OpenSansCondensed-Italic
 70
0
 40
0.0
 41
1.0
 50
0.0
 71
0
 42
2.5
  3
OpenSansCondensed-LightItalic.ttf
  4

  0
STYLE
  5
4E
330
5
100
AcDbSymbolTableRecord
100
AcDbTextStyleTableRecord
  2
LiberationSans
 70
0
 40
0.0
 41
1.0
 50
0.0
 71
0
 42
2.5
  3
LiberationSans-Regular.ttf
  4

  0
STYLE
  5
4F
330
5
100
AcDbSymbolTableRecord
100
AcDbTextStyleTableRecord
  2
LiberationSans-Bold
 70
0
 40
0.0
 41
1.0
 50
0.0
 71
0
 42
2.5
  3
LiberationSans-Bold.ttf
  4

  0
STYLE
  5
50
330
5
100
AcDbSymbolTableRecord
100
AcDbTextStyleTableRecord
  2
LiberationSans-BoldItalic
 70
0
 40
0.0
 41
1.0
 50
0.0
 71
0
 42
2.5
  3
LiberationSans-BoldItalic.ttf
  4

  0
STYLE
  5
51
330
5
100
AcDbSymbolTableRecord
100
AcDbTextStyleTableRecord
  2
LiberationSans-Italic
 70
0
 40
0.0
 41
1.0
 50
0.0
 71
0
 42
2.5
  3
LiberationSans-Italic.ttf
  4

  0
STYLE
  5
52
330
5
100
AcDbSymbolTableRecord
100
AcDbTextStyleTableRecord
  2
LiberationSerif
 70
0
 40
0.0
 41
1.0
 50
0.0
 71
0
 42
2.5
  3
LiberationSerif-Regular.ttf
  4

  0
STYLE
  5
53
330
5
100
AcDbSymbolTableRecord
100
AcDbTextStyleTableRecord
  2
LiberationSerif-Bold
 70
0
 40
0.0
 41
1.0
 50
0.0
 71
0
 42
2.5
  3
LiberationSerif-Bold.ttf
  4

  0
STYLE
  5
54
330
5
100
AcDbSymbolTableRecord
100
AcDbTextStyleTableRecord
  2
LiberationSerif-BoldItalic
 70
0
 40
0.0
 41
1.0
 50
0.0
 71
0
 42
2.5
  3
LiberationSerif-BoldItalic.ttf
  4

  0
STYLE
  5
55
330
5
100
AcDbSymbolTableRecord
100
AcDbTextStyleTableRecord
  2
LiberationSerif-Italic
 70
0
 40
0.0
 41
1.0
 50
0.0
 71
0
 42
2.5
  3
LiberationSerif-Italic.ttf
  4

  0
STYLE
  5
56
330
5
100
AcDbSymbolTableRecord
100
AcDbTextStyleTableRecord
  2
LiberationMono
 70
0
 40
0.0
 41
1.0
 50
0.0
 71
0
 42
2.5
  3
LiberationMono-Regular.ttf
  4

  0
STYLE
  5
57
330
5
100
AcDbSymbolTableRecord
100
AcDbTextStyleTableRecord
  2
LiberationMono-Bold
 70
0
 40
0.0
 41
1.0
 50
0.0
 71
0
 42
2.5
  3
LiberationMono-Bold.ttf
  4

  0
STYLE
  5
58
330
5
100
AcDbSymbolTableRecord
100
AcDbTextStyleTableRecord
  2
LiberationMono-BoldItalic
 70
0
 40
0.0
 41
1.0
 50
0.0
 71
0
 42
2.5
  3
LiberationMono-BoldItalic.ttf
  4

  0
STYLE
  5
59
330
5
100
AcDbSymbolTableRecord
100
AcDbTextStyleTableRecord
  2
LiberationMono-Italic
 70
0
 40
0.0
 41
1.0
 50
0.0
 71
0
 42
2.5
  3
LiberationMono-Italic.ttf
  4

  0
ENDTAB
  0
TABLE
  2
VIEW
  5
7
330
0
100
AcDbSymbolTable
 70
0
  0
ENDTAB
  0
TABLE
  2
UCS
  5
6
330
0
100
AcDbSymbolTable
 70
0
  0
ENDTAB
  0
TABLE
  2
APPID
  5
3
330
0
100
AcDbSymbolTable
 70
4
  0
APPID
  5
2A
330
3
100
AcDbSymbolTableRecord
100
AcDbRegAppTableRecord
  2
ACAD
 70
0
  0
APPID
  5
8B
330
3
100
AcDbSymbolTableRecord
100
AcDbRegAppTableRecord
  2
AcAecLayerStandard
 70
0
  0
APPID
  5
253
330
3
100
AcDbSymbolTableRecord
100
AcDbRegAppTableRecord
  2
HATCHBACKGROUNDCOLOR
 70
0
  0
APPID
  5
254
330
3
100
AcDbSymbolTableRecord
100
AcDbRegAppTableRecord
  2
EZDXF
 70
0
  0
ENDTAB
  0
TABLE
  2
DIMSTYLE
  5
4
330
0
100
AcDbSymbolTable
 70
14
100
AcDbDimStyleTable
  0
DIMSTYLE
105
2B
330
4
100
AcDbSymbolTableRecord
100
AcDbDimStyleTableRecord
  2
Standard
 70
0
 40
1.0
 41
2.5
 42
0.625
 43
3.75
 44
1.25
 45
0.0
 46
0.0
 47
0.0
 48
0.0
 49
2.5
140
2.5
141
2.5
142
0.0
143
0.03937007874
144
1.0
145
0.0
146
1.0
147
0.625
148
0.0
 69
0
 70
0
 71
0
 72
0
 73
0
 74
0
 75
0
 76
0
 77
1
 78
8
 79
3
170
0
171
3
172
1
173
0
174
0
175
0
176
0
177
0
178
0
179
2
271
2
272
2
273
2
274
3
275
0
276
0
277
2
278
44
279
0
280
0
281
0
282
0
283
0
284
8
285
0
286
0
288
0
289
3
290
0
371
-2
372
-2
  0
DIMSTYLE
105
73
330
4
100
AcDbSymbolTableRecord
100
AcDbDimStyleTableRecord
  2
EZDXF
 70
0
 40
1.0
 41
0.175
 42
0.125
 43
3.75
 44
0.375
 45
0.0
 46
0.0
 47
0.0
 48
0.0
 49
2.5
140
0.25
141
2.5
142
0.0
143
0.03937007874
144
100.0
145
0.0
146
0.5
147
0.1
148
0.0
 69
0
 70
0
 71
0
 72
0
 73
0
 74
0
 75
0
 76
0
 77
1
 78
12
 79
3
170
0
171
3
172
1
173
0
174
0
175
0
176
0
177
0
178
0
179
2
271
2
272
2
273
2
274
3
275
0
276
0
277
2
278
46
279
2
280
0
281
0
282
0
283
0
284
8
285
0
286
0
288
1
289
3
290
0
340
4C
342
74
371
-2
372
-2
  0
DIMSTYLE
105
7C
330
4
100
AcDbSymbolTableRecord
100
AcDbDimStyleTableRecord
  2
EZ_M_100_H25_CM
 70
0
 40
1.0
 41
0.25
 42
0.125
 43
3.75
 44
0.375
 45
0.0
 46
0.0
 47
0.0
 48
0.0
 49
2.5
140
0.25
141
2.5
142
0.125
143
0.03937007874
144
100.0
145
0.0
146
0.5
147
0.1
148
0.0
 69
0
 70
0
 71
0
 72
0
 73
0
 74
0
 75
0
 76
0
 77
1
 78
12
 79
3
170
0
171
3
172
1
173
0
174
0
175
0
176
0
177
0
178
0
179
2
271
2
272
2
273
2
274
3
275
0
276
0
277
2
278
46
279
2
280
0
281
0
282
0
283
0
284
8
285
0
286
0
288
1
289
3
290
0
340
4C
371
-2
372
-2
  0
DIMSTYLE
105
7D
330
4
100
AcDbSymbolTableRecord
100
AcDbDimStyleTableRecord
  2
EZ_M_50_H25_CM
 70
0
 40
1.0
 41
0.125
 42
0.0625
 43
3.75
 44
0.1875
 45
0.0
 46
0.0
 47
0.0
 48
0.0
 49
2.5
140
0.125
141
2.5
142
0.0625
143
0.03937007874
144
100.0
145
0.0
146
0.5
147
0.05
148
0.0
 69
0
 70
0
 71
0
 72
0
 73
0
 74
0
 75
0
 76
0
 77
1
 78
12
 79
3
170
0
171
3
172
1
173
0
174
0
175
0
176
0
177
0
178
0
179
2
271
2
272
2
273
2
274
3
275
0
276
0
277
2
278
46
279
2
280
0
281
0
282
0
283
0
284
8
285
0
286
0
288
1
289
3
290
0
340
4C
371
-2
372
-2
  0
DIMSTYLE
105
7E
330
4
100
AcDbSymbolTableRecord
100
AcDbDimStyleTableRecord
  2
EZ_M_25_H25_CM
 70
0
 40
1.0
 41
0.0625
 42
0.03125
 43
3.75
 44
0.09375
 45
0.0
 46
0.0
 47
0.0
 48
0.0
 49
2.5
140
0.0625
141
2.5
142
0.03125
143
0.03937007874
144
100.0
145
0.0
146
0.5
147
0.025
148
0.0
 69
0
 70
0
 71
0
 72
0
 73
0
 74
0
 75
0
 76
0
 77
1
 78
12
 79
3
170
0
171
3
172
1
173
0
174
0
175
0
176
0
177
0
178
0
179
2
271
2
272
2
273
2
274
3
275
0
276
0
277
2
278
46
279
2
280
0
281
0
282
0
283
0
284
8
285
0
286
0
288
1
289
3
290
0
340
4C
371
-2
372
-2
  0
DIMSTYLE
105
7F
330
4
100
AcDbSymbolTableRecord
100
AcDbDimStyleTableRecord
  2
EZ_M_20_H25_CM
 70
0
 40
1.0
 41
0.05
 42
0.025
 43
3.75
 44
0.07500000000000001
 45
0.0
 46
0.0
 47
0.0
 48
0.0
 49
2.5
140
0.05
141
2.5
142
0.025
143
0.03937007874
144
100.0
145
0.0
146
0.5
147
0.020000000000000004
148
0.0
 69
0
 70
0
 71
0
 72
0
 73
0
 74
0
 75
0
 76
0
 77
1
 78
12
 79
3
170
0
171
3
172
1
173
0
174
0
175
0
176
0
177
0
178
0
179
2
271
2
272
2
273
2
274
3
275
0
276
0
277
2
278
46
279
2
280
0
281
0
282
0
283
0
284
8
285
0
286
0
288
1
289
3
290
0
340
4C
371
-2
372
-2
  0
DIMSTYLE
105
80
330
4
100
AcDbSymbolTableRecord
100
AcDbDimStyleTableRecord
  2
EZ_M_10_H25_CM
 70
0
 40
1.0
 41
0.025
 42
0.0125
 43
3.75
 44
0.037500000000000006
 45
0.0
 46
0.0
 47
0.0
 48
0.0
 49
2.5
140
0.025
141
2.5
142
0.0125
143
0.03937007874
144
100.0
145
0.0
146
0.5
147
0.010000000000000002
148
0.0
 69
0
 70
0
 71
0
 72
0
 73
0
 74
0
 75
0
 76
0
 77
1
 78
12
 79
3
170
0
171
3
172
1
173
0
174
0
175
0
176
0
177
0
178
0
179
2
271
2
272
2
273
2
274
3
275
0
276
0
277
2
278
46
279
2
280
0
281
0
282
0
283
0
284
8
285
0
286
0
288
1
289
3
290
0
340
4C
371
-2
372
-2
  0
DIMSTYLE
105
81
330
4
100
AcDbSymbolTableRecord
100
AcDbDimStyleTableRecord
  2
EZ_M_5_H25_CM
 70
0
 40
1.0
 41
0.0125
 42
0.00625
 43
3.75
 44
0.018750000000000003
 45
0.0
 46
0.0
 47
0.0
 48
0.0
 49
2.5
140
0.0125
141
2.5
142
0.00625
143
0.03937007874
144
100.0
145
0.0
146
0.5
147
0.005000000000000001
148
0.0
 69
0
 70
0
 71
0
 72
0
 73
0
 74
0
 75
0
 76
0
 77
1
 78
12
 79
3
170
0
171
3
172
1
173
0
174
0
175
0
176
0
177
0
178
0
179
2
271
2
272
2
273
2
274
3
275
0
276
0
277
2
278
46
279
2
280
0
281
0
282
0
283
0
284
8
285
0
286
0
288
1
289
3
290
0
340
4C
371
-2
372
-2
  0
DIMSTYLE
105
82
330
4
100
AcDbSymbolTableRecord
100
AcDbDimStyleTableRecord
  2
EZ_M_1_H25_CM
 70
0
 40
1.0
 41
0.0025
 42
0.00125
 43
3.75
 44
0.00375
 45
0.0
 46
0.0
 47
0.0
 48
0.0
 49
2.5
140
0.0025
141
2.5
142
0.00125
143
0.03937007874
144
100.0
145
0.0
146
0.5
147
0.001
148
0.0
 69
0
 70
0
 71
0
 72
0
 73
0
 74
0
 75
0
 76
0
 77
1
 78
12
 79
3
170
0
171
3
172
1
173
0
174
0
175
0
176
0
177
0
178
0
179
2
271
2
272
2
273
2
274
3
275
0
276
0
277
2
278
46
279
2
280
0
281
0
282
0
283
0
284
8
285
0
286
0
288
1
289
3
290
0
340
4C
371
-2
372
-2
  0
DIMSTYLE
105
83
330
4
100
AcDbSymbolTableRecord
100
AcDbDimStyleTableRecord
  2
EZ_RADIUS
 70
0
 40
1.0
 41
0.25
 42
0.125
 43
3.75
 44
0.375
 45
0.0
 46
0.0
 47
0.0
 48
0.0
 49
2.5
140
0.25
141
0.0
142
0.0
143
0.03937007874
144
100.0
145
0.0
146
0.5
147
0.1
148
0.0
 69
0
 70
0
 71
0
 72
0
 73
0
 74
0
 75
0
 76
0
 77
1
 78
12
 79
3
170
0
171
3
172
0
173
0
174
0
175
0
176
0
177
0
178
0
179
2
271
2
272
2
273
2
274
3
275
0
276
0
277
2
278
46
279
1
280
0
281
0
282
0
283
0
284
8
285
0
286
0
288
1
289
3
290
0
340
4C
342
84
371
-2
372
-2
  0
DIMSTYLE
105
88
330
4
100
AcDbSymbolTableRecord
100
AcDbDimStyleTableRecord
  2
EZ_RADIUS_INSIDE
 70
0
 40
1.0
 41
0.25
 42
0.125
 43
3.75
 44
0.375
 45
0.0
 46
0.0
 47
0.0
 48
0.0
 49
2.5
140
0.25
141
0.0
142
0.0
143
0.03937007874
144
100.0
145
0.0
146
0.5
147
0.1
148
0.0
 69
0
 70
0
 71
0
 72
0
 73
0
 74
0
 75
0
 76
0
 77
0
 78
12
 79
3
170
0
171
3
172
0
173
0
174
1
175
0
176
0
177
0
178
0
179
2
271
2
272
2
273
2
274
3
275
0
276
0
277
2
278
46
279
0
280
0
281
0
282
0
283
0
284
8
285
0
286
0
288
1
289
0
290
0
340
4C
342
84
371
-2
372
-2
  0
DIMSTYLE
105
89
330
4
100
AcDbSymbolTableRecord
100
AcDbDimStyleTableRecord
  2
EZ_CURVED
 70
0
 40
1.0
 41
0.25
 42
0.125
 43
3.75
 44
0.375
 45
0.0
 46
0.0
 47
0.0
 48
0.0
 49
2.5
140
0.25
141
2.5
142
0.0
143
0.03937007874
144
100.0
145
0.0
146
0.5
147
0.1
148
0.0
 69
0
 70
0
 71
0
 72
0
 73
0
 74
0
 75
0
 76
0
 77
1
 78
12
 79
2
 90
2
170
0
171
3
172
1
173
0
174
0
175
0
176
0
177
0
178
0
179
2
271
2
272
2
273
2
274
3
275
0
276
0
277
2
278
46
279
2
280
0
281
0
282
0
283
0
284
8
285
0
286
0
288
1
289
3
290
0
340
4C
371
-2
372
-2
  0
DIMSTYLE
105
A3
330
4
100
AcDbSymbolTableRecord
100
AcDbDimStyleTableRecord
  2
SC-DIM
 70
0
 40
1.0
 41
1.6
 42
1.0
 43
3.75
 44
1.2
 45
0.0
 46
0.0
 47
0.0
 48
0.0
 49
2.5
140
1.8
141
2.5
142
0.0
143
0.03937007874
144
1.0
145
0.0
146
1.0
147
0.8
148
0.0
 69
0
 70
0
 71
0
 72
0
 73
0
 74
0
 75
0
 76
0
 77
1
 78
8
 79
3
170
0
171
3
172
1
173
0
174
0
175
0
176
4
177
4
178
4
179
2
271
0
272
2
273
2
274
3
275
0
276
0
277
2
278
44
279
0
280
0
281
0
282
0
283
0
284
8
285
0
286
0
288
0
289
3
290
0
342
74
371
13
372
13
  0
DIMSTYLE
105
A4
330
4
100
AcDbSymbolTableRecord
100
AcDbDimStyleTableRecord
  2
SC-DIM-S
 70
0
 40
1.0
 41
1.2
 42
1.0
 43
3.75
 44
1.2
 45
0.0
 46
0.0
 47
0.0
 48
0.0
 49
2.5
140
1.4
141
2.5
142
0.0
143
0.03937007874
144
1.0
145
0.0
146
1.0
147
0.8
148
0.0
 69
0
 70
0
 71
0
 72
0
 73
0
 74
0
 75
0
 76
0
 77
1
 78
8
 79
3
170
0
171
3
172
1
173
0
174
0
175
0
176
4
177
4
178
4
179
2
271
0
272
2
273
2
274
3
275
0
276
0
277
2
278
44
279
0
280
0
281
0
282
0
283
0
284
8
285
0
286
0
288
0
289
3
290
0
342
74
371
13
372
13
  0
ENDTAB
  0
TABLE
  2
BLOCK_RECORD
  5
9
330
0
100
AcDbSymbolTable
 70
20
  0
BLOCK_RECORD
  5
17
330
9
100
AcDbSymbolTableRecord
100
AcDbBlockTableRecord
  2
*Model_Space
340
1A
 70
0
280
1
281
0
  0
BLOCK_RECORD
  5
1B
330
9
100
AcDbSymbolTableRecord
100
AcDbBlockTableRecord
  2
*Paper_Space
340
1E
 70
0
280
1
281
0
  0
BLOCK_RECORD
  5
74
330
9
100
AcDbSymbolTableRecord
100
AcDbBlockTableRecord
  2
_ARCHTICK
340
0
 70
0
280
1
281
0
  0
BLOCK_RECORD
  5
78
330
9
100
AcDbSymbolTableRecord
100
AcDbBlockTableRecord
  2
_CLOSEDFILLED
340
0
 70
0
280
1
281
0
  0
BLOCK_RECORD
  5
84
330
9
100
AcDbSymbolTableRecord
100
AcDbBlockTableRecord
  2
_CLOSEDBLANK
340
0
 70
0
280
1
281
0
  0
BLOCK_RECORD
  5
A5
330
9
100
AcDbSymbolTableRecord
100
AcDbBlockTableRecord
  2
BARMARK
340
0
 70
0
280
1
281
0
  0
BLOCK_RECORD
  5
A9
330
9
100
AcDbSymbolTableRecord
100
AcDbBlockTableRecord
  2
SECMARK
340
0
 70
0
280
1
281
0
  0
BLOCK_RECORD
  5
AE
330
9
100
AcDbSymbolTableRecord
100
AcDbBlockTableRecord
  2
LEVELMK
340
0
 70
0
280
1
281
0
  0
BLOCK_RECORD
  5
B2
330
9
100
AcDbSymbolTableRecord
100
AcDbBlockTableRecord
  2
NORTH
340
0
 70
0
280
1
281
0
  0
BLOCK_RECORD
  5
E0
330
9
100
AcDbSymbolTableRecord
100
AcDbBlockTableRecord
  2
GULLY
340
0
 70
0
280
1
281
0
  0
BLOCK_RECORD
  5
E6
330
9
100
AcDbSymbolTableRecord
100
AcDbBlockTableRecord
  2
CHAMBER
340
0
 70
0
280
1
281
0
  0
BLOCK_RECORD
  5
EB
330
9
100
AcDbSymbolTableRecord
100
AcDbBlockTableRecord
  2
PUMP
340
0
 70
0
280
1
281
0
  0
BLOCK_RECORD
  5
F0
330
9
100
AcDbSymbolTableRecord
100
AcDbBlockTableRecord
  2
CLEANOUT
340
0
 70
0
280
1
281
0
  0
BLOCK_RECORD
  5
F5
330
9
100
AcDbSymbolTableRecord
100
AcDbBlockTableRecord
  2
NRV
340
0
 70
0
280
1
281
0
  0
BLOCK_RECORD
  5
FA
330
9
100
AcDbSymbolTableRecord
100
AcDbBlockTableRecord
  2
VALVE
340
0
 70
0
280
1
281
0
  0
BLOCK_RECORD
  5
FF
330
9
100
AcDbSymbolTableRecord
100
AcDbBlockTableRecord
  2
DIFFUSER
340
0
 70
0
280
1
281
0
  0
BLOCK_RECORD
  5
108
330
9
100
AcDbSymbolTableRecord
100
AcDbBlockTableRecord
  2
GRILLE
340
0
 70
0
280
1
281
0
  0
BLOCK_RECORD
  5
10F
330
9
100
AcDbSymbolTableRecord
100
AcDbBlockTableRecord
  2
BVALVE
340
0
 70
0
280
1
281
0
  0
BLOCK_RECORD
  5
115
330
9
100
AcDbSymbolTableRecord
100
AcDbBlockTableRecord
  2
FANSYM
340
0
 70
0
280
1
281
0
  0
BLOCK_RECORD
  5
11A
330
9
100
AcDbSymbolTableRecord
100
AcDbBlockTableRecord
  2
FINTAG
340
0
 70
0
280
1
281
0
  0
ENDTAB
  0
ENDSEC
  0
SECTION
  2
BLOCKS
  0
BLOCK
  5
18
330
17
100
AcDbEntity
  8
0
100
AcDbBlockBegin
  2
*Model_Space
 70
0
 10
0.0
 20
0.0
 30
0.0
  3
*Model_Space
  1

  0
ENDBLK
  5
19
330
17
100
AcDbEntity
  8
0
100
AcDbBlockEnd
  0
BLOCK
  5
1C
330
1B
100
AcDbEntity
  8
0
100
AcDbBlockBegin
  2
*Paper_Space
 70
0
 10
0.0
 20
0.0
 30
0.0
  3
*Paper_Space
  1

  0
ENDBLK
  5
1D
330
1B
100
AcDbEntity
  8
0
100
AcDbBlockEnd
  0
BLOCK
  5
75
330
74
100
AcDbEntity
  8
0
100
AcDbBlockBegin
  2
_ARCHTICK
 70
0
 10
0.0
 20
0.0
 30
0.0
  3
_ARCHTICK
  1

  0
LWPOLYLINE
  5
77
330
74
100
AcDbEntity
  8
0
  6
BYBLOCK
 62
0
100
AcDbPolyline
 90
2
 70
0
 43
0.15
 10
-0.5
 20
-0.5
 10
0.5
 20
0.5
  0
ENDBLK
  5
76
330
74
100
AcDbEntity
  8
0
100
AcDbBlockEnd
  0
BLOCK
  5
79
330
78
100
AcDbEntity
  8
0
100
AcDbBlockBegin
  2
_CLOSEDFILLED
 70
0
 10
0.0
 20
0.0
 30
0.0
  3
_CLOSEDFILLED
  1

  0
SOLID
  5
7B
330
78
100
AcDbEntity
  8
0
  6
BYBLOCK
 62
0
100
AcDbTrace
 10
-1.0
 20
0.16439898372402537
 30
0.0
 11
0.0
 21
0.0
 31
0.0
 12
-1.0
 22
-0.16439898372402537
 32
0.0
 13
-1.0
 23
-0.16439898372402537
 33
0.0
  0
ENDBLK
  5
7A
330
78
100
AcDbEntity
  8
0
100
AcDbBlockEnd
  0
BLOCK
  5
85
330
84
100
AcDbEntity
  8
0
100
AcDbBlockBegin
  2
_CLOSEDBLANK
 70
0
 10
0.0
 20
0.0
 30
0.0
  3
_CLOSEDBLANK
  1

  0
LWPOLYLINE
  5
87
330
84
100
AcDbEntity
  8
0
  6
BYBLOCK
 62
0
100
AcDbPolyline
 90
3
 70
1
 10
-1.0
 20
0.16439898372402537
 10
0.0
 20
0.0
 10
-1.0
 20
-0.16439898372402537
  0
ENDBLK
  5
86
330
84
100
AcDbEntity
  8
0
100
AcDbBlockEnd
  0
BLOCK
  5
A6
330
A5
100
AcDbEntity
  8
0
100
AcDbBlockBegin
  2
BARMARK
 70
0
 10
0.0
 20
0.0
 30
0.0
  3
BARMARK
  1

  0
CIRCLE
  5
A8
330
A5
100
AcDbEntity
  8
S-CALLOUT
100
AcDbCircle
 10
0.0
 20
0.0
 30
0.0
 40
3.2
  0
ENDBLK
  5
A7
330
A5
100
AcDbEntity
  8
0
100
AcDbBlockEnd
  0
BLOCK
  5
AA
330
A9
100
AcDbEntity
  8
0
100
AcDbBlockBegin
  2
SECMARK
 70
0
 10
0.0
 20
0.0
 30
0.0
  3
SECMARK
  1

  0
CIRCLE
  5
AC
330
A9
100
AcDbEntity
  8
S-SECTION
100
AcDbCircle
 10
0.0
 20
0.0
 30
0.0
 40
4.0
  0
LINE
  5
AD
330
A9
100
AcDbEntity
  8
S-SECTION
100
AcDbLine
 10
-4.0
 20
0.0
 30
0.0
 11
4.0
 21
0.0
 31
0.0
  0
ENDBLK
  5
AB
330
A9
100
AcDbEntity
  8
0
100
AcDbBlockEnd
  0
BLOCK
  5
AF
330
AE
100
AcDbEntity
  8
0
100
AcDbBlockBegin
  2
LEVELMK
 70
0
 10
0.0
 20
0.0
 30
0.0
  3
LEVELMK
  1

  0
LWPOLYLINE
  5
B1
330
AE
100
AcDbEntity
  8
S-LEVEL
100
AcDbPolyline
 90
4
 70
1
 10
0.0
 20
0.0
 10
-2.0
 20
3.0
 10
2.0
 20
3.0
 10
0.0
 20
0.0
  0
ENDBLK
  5
B0
330
AE
100
AcDbEntity
  8
0
100
AcDbBlockEnd
  0
BLOCK
  5
B3
330
B2
100
AcDbEntity
  8
0
100
AcDbBlockBegin
  2
NORTH
 70
0
 10
0.0
 20
0.0
 30
0.0
  3
NORTH
  1

  0
LWPOLYLINE
  5
B5
330
B2
100
AcDbEntity
  8
S-TITLE
100
AcDbPolyline
 90
5
 70
1
 10
0.0
 20
10.0
 10
-3.2
 20
-6.0
 10
0.0
 20
-2.4
 10
3.2
 20
-6.0
 10
0.0
 20
10.0
  0
CIRCLE
  5
B6
330
B2
100
AcDbEntity
  8
S-TITLE
100
AcDbCircle
 10
0.0
 20
0.0
 30
0.0
 40
12.0
  0
ENDBLK
  5
B4
330
B2
100
AcDbEntity
  8
0
100
AcDbBlockEnd
  0
BLOCK
  5
E1
330
E0
100
AcDbEntity
  8
0
100
AcDbBlockBegin
  2
GULLY
 70
0
 10
0.0
 20
0.0
 30
0.0
  3
GULLY
  1

  0
LWPOLYLINE
  5
E3
330
E0
100
AcDbEntity
  8
P-EQUIP
100
AcDbPolyline
 90
4
 70
1
 10
-2.2
 20
-2.2
 10
2.2
 20
-2.2
 10
2.2
 20
2.2
 10
-2.2
 20
2.2
  0
LINE
  5
E4
330
E0
100
AcDbEntity
  8
P-EQUIP
100
AcDbLine
 10
-2.2
 20
-2.2
 30
0.0
 11
2.2
 21
2.2
 31
0.0
  0
LINE
  5
E5
330
E0
100
AcDbEntity
  8
P-EQUIP
100
AcDbLine
 10
-2.2
 20
2.2
 30
0.0
 11
2.2
 21
-2.2
 31
0.0
  0
ENDBLK
  5
E2
330
E0
100
AcDbEntity
  8
0
100
AcDbBlockEnd
  0
BLOCK
  5
E7
330
E6
100
AcDbEntity
  8
0
100
AcDbBlockBegin
  2
CHAMBER
 70
0
 10
0.0
 20
0.0
 30
0.0
  3
CHAMBER
  1

  0
LWPOLYLINE
  5
E9
330
E6
100
AcDbEntity
  8
P-EQUIP
100
AcDbPolyline
 90
4
 70
1
 10
-3.0
 20
-3.0
 10
3.0
 20
-3.0
 10
3.0
 20
3.0
 10
-3.0
 20
3.0
  0
CIRCLE
  5
EA
330
E6
100
AcDbEntity
  8
P-EQUIP
100
AcDbCircle
 10
0.0
 20
0.0
 30
0.0
 40
1.9
  0
ENDBLK
  5
E8
330
E6
100
AcDbEntity
  8
0
100
AcDbBlockEnd
  0
BLOCK
  5
EC
330
EB
100
AcDbEntity
  8
0
100
AcDbBlockBegin
  2
PUMP
 70
0
 10
0.0
 20
0.0
 30
0.0
  3
PUMP
  1

  0
CIRCLE
  5
EE
330
EB
100
AcDbEntity
  8
P-EQUIP
100
AcDbCircle
 10
0.0
 20
0.0
 30
0.0
 40
2.6
  0
LWPOLYLINE
  5
EF
330
EB
100
AcDbEntity
  8
P-EQUIP
100
AcDbPolyline
 90
3
 70
1
 10
-1.5
 20
-1.5
 10
1.9
 20
0.0
 10
-1.5
 20
1.5
  0
ENDBLK
  5
ED
330
EB
100
AcDbEntity
  8
0
100
AcDbBlockEnd
  0
BLOCK
  5
F1
330
F0
100
AcDbEntity
  8
0
100
AcDbBlockBegin
  2
CLEANOUT
 70
0
 10
0.0
 20
0.0
 30
0.0
  3
CLEANOUT
  1

  0
CIRCLE
  5
F3
330
F0
100
AcDbEntity
  8
P-EQUIP
100
AcDbCircle
 10
0.0
 20
0.0
 30
0.0
 40
1.6
  0
LINE
  5
F4
330
F0
100
AcDbEntity
  8
P-EQUIP
100
AcDbLine
 10
0.0
 20
-1.6
 30
0.0
 11
0.0
 21
1.6
 31
0.0
  0
ENDBLK
  5
F2
330
F0
100
AcDbEntity
  8
0
100
AcDbBlockEnd
  0
BLOCK
  5
F6
330
F5
100
AcDbEntity
  8
0
100
AcDbBlockBegin
  2
NRV
 70
0
 10
0.0
 20
0.0
 30
0.0
  3
NRV
  1

  0
LWPOLYLINE
  5
F8
330
F5
100
AcDbEntity
  8
M-DAMPER
100
AcDbPolyline
 90
3
 70
1
 10
-2.0
 20
-1.8
 10
-2.0
 20
1.8
 10
2.0
 20
0.0
  0
LINE
  5
F9
330
F5
100
AcDbEntity
  8
M-DAMPER
100
AcDbLine
 10
2.0
 20
-1.8
 30
0.0
 11
2.0
 21
1.8
 31
0.0
  0
ENDBLK
  5
F7
330
F5
100
AcDbEntity
  8
0
100
AcDbBlockEnd
  0
BLOCK
  5
FB
330
FA
100
AcDbEntity
  8
0
100
AcDbBlockBegin
  2
VALVE
 70
0
 10
0.0
 20
0.0
 30
0.0
  3
VALVE
  1

  0
LWPOLYLINE
  5
FD
330
FA
100
AcDbEntity
  8
M-DAMPER
100
AcDbPolyline
 90
3
 70
1
 10
-2.0
 20
-1.8
 10
-2.0
 20
1.8
 10
0.0
 20
0.0
  0
LWPOLYLINE
  5
FE
330
FA
100
AcDbEntity
  8
M-DAMPER
100
AcDbPolyline
 90
3
 70
1
 10
2.0
 20
-1.8
 10
2.0
 20
1.8
 10
0.0
 20
0.0
  0
ENDBLK
  5
FC
330
FA
100
AcDbEntity
  8
0
100
AcDbBlockEnd
  0
BLOCK
  5
100
330
FF
100
AcDbEntity
  8
0
100
AcDbBlockBegin
  2
DIFFUSER
 70
0
 10
0.0
 20
0.0
 30
0.0
  3
DIFFUSER
  1

  0
LWPOLYLINE
  5
102
330
FF
100
AcDbEntity
  8
M-TERMINAL
100
AcDbPolyline
 90
4
 70
1
 10
-4.0
 20
-4.0
 10
4.0
 20
-4.0
 10
4.0
 20
4.0
 10
-4.0
 20
4.0
  0
LWPOLYLINE
  5
103
330
FF
100
AcDbEntity
  8
M-TERMINAL
100
AcDbPolyline
 90
4
 70
1
 10
-2.4
 20
-2.4
 10
2.4
 20
-2.4
 10
2.4
 20
2.4
 10
-2.4
 20
2.4
  0
LINE
  5
104
330
FF
100
AcDbEntity
  8
M-TERMINAL
100
AcDbLine
 10
-4.0
 20
-4.0
 30
0.0
 11
-2.4
 21
-2.4
 31
0.0
  0
LINE
  5
105
330
FF
100
AcDbEntity
  8
M-TERMINAL
100
AcDbLine
 10
4.0
 20
-4.0
 30
0.0
 11
2.4
 21
-2.4
 31
0.0
  0
LINE
  5
106
330
FF
100
AcDbEntity
  8
M-TERMINAL
100
AcDbLine
 10
4.0
 20
4.0
 30
0.0
 11
2.4
 21
2.4
 31
0.0
  0
LINE
  5
107
330
FF
100
AcDbEntity
  8
M-TERMINAL
100
AcDbLine
 10
-4.0
 20
4.0
 30
0.0
 11
-2.4
 21
2.4
 31
0.0
  0
ENDBLK
  5
101
330
FF
100
AcDbEntity
  8
0
100
AcDbBlockEnd
  0
BLOCK
  5
109
330
108
100
AcDbEntity
  8
0
100
AcDbBlockBegin
  2
GRILLE
 70
0
 10
0.0
 20
0.0
 30
0.0
  3
GRILLE
  1

  0
LWPOLYLINE
  5
10B
330
108
100
AcDbEntity
  8
M-TERMINAL
100
AcDbPolyline
 90
4
 70
1
 10
-4.0
 20
-2.4
 10
4.0
 20
-2.4
 10
4.0
 20
2.4
 10
-4.0
 20
2.4
  0
LINE
  5
10C
330
108
100
AcDbEntity
  8
M-TERMINAL
100
AcDbLine
 10
-2.0
 20
-2.4
 30
0.0
 11
-2.0
 21
2.4
 31
0.0
  0
LINE
  5
10D
330
108
100
AcDbEntity
  8
M-TERMINAL
100
AcDbLine
 10
0.0
 20
-2.4
 30
0.0
 11
0.0
 21
2.4
 31
0.0
  0
LINE
  5
10E
330
108
100
AcDbEntity
  8
M-TERMINAL
100
AcDbLine
 10
2.0
 20
-2.4
 30
0.0
 11
2.0
 21
2.4
 31
0.0
  0
ENDBLK
  5
10A
330
108
100
AcDbEntity
  8
0
100
AcDbBlockEnd
  0
BLOCK
  5
110
330
10F
100
AcDbEntity
  8
0
100
AcDbBlockBegin
  2
BVALVE
 70
0
 10
0.0
 20
0.0
 30
0.0
  3
BVALVE
  1

  0
CIRCLE
  5
112
330
10F
100
AcDbEntity
  8
M-DAMPER
100
AcDbCircle
 10
0.0
 20
0.0
 30
0.0
 40
3.0
  0
LINE
  5
113
330
10F
100
AcDbEntity
  8
M-DAMPER
100
AcDbLine
 10
-3.0
 20
0.0
 30
0.0
 11
3.0
 21
0.0
 31
0.0
  0
LINE
  5
114
330
10F
100
AcDbEntity
  8
M-DAMPER
100
AcDbLine
 10
-2.1
 20
-2.1
 30
0.0
 11
2.1
 21
2.1
 31
0.0
  0
ENDBLK
  5
111
330
10F
100
AcDbEntity
  8
0
100
AcDbBlockEnd
  0
BLOCK
  5
116
330
115
100
AcDbEntity
  8
0
100
AcDbBlockBegin
  2
FANSYM
 70
0
 10
0.0
 20
0.0
 30
0.0
  3
FANSYM
  1

  0
CIRCLE
  5
118
330
115
100
AcDbEntity
  8
M-EQUIP
100
AcDbCircle
 10
0.0
 20
0.0
 30
0.0
 40
3.4
  0
LWPOLYLINE
  5
119
330
115
100
AcDbEntity
  8
M-EQUIP
100
AcDbPolyline
 90
3
 70
1
 10
-2.4
 20
-1.2
 10
2.4
 20
-1.2
 10
0.0
 20
2.6
  0
ENDBLK
  5
117
330
115
100
AcDbEntity
  8
0
100
AcDbBlockEnd
  0
BLOCK
  5
11B
330
11A
100
AcDbEntity
  8
0
100
AcDbBlockBegin
  2
FINTAG
 70
0
 10
0.0
 20
0.0
 30
0.0
  3
FINTAG
  1

  0
LWPOLYLINE
  5
11D
330
11A
100
AcDbEntity
  8
A-FIN-TAG
100
AcDbPolyline
 90
4
 70
1
 10
0.0
 20
0.0
 10
16.0
 20
0.0
 10
16.0
 20
5.0
 10
0.0
 20
5.0
  0
LINE
  5
11E
330
11A
100
AcDbEntity
  8
A-FIN-TAG
100
AcDbLine
 10
0.0
 20
2.5
 30
0.0
 11
16.0
 21
2.5
 31
0.0
  0
LINE
  5
11F
330
11A
100
AcDbEntity
  8
A-FIN-TAG
100
AcDbLine
 10
8.0
 20
0.0
 30
0.0
 11
8.0
 21
5.0
 31
0.0
  0
ENDBLK
  5
11C
330
11A
100
AcDbEntity
  8
0
100
AcDbBlockEnd
  0
ENDSEC
  0
SECTION
  2
ENTITIES
  0
LWPOLYLINE
  5
B7
330
17
100
AcDbEntity
  8
S-TITLE
100
AcDbPolyline
 90
4
 70
1
 10
0.0
 20
0.0
 10
841.0
 20
0.0
 10
841.0
 20
594.0
 10
0.0
 20
594.0
  0
LWPOLYLINE
  5
B8
330
17
100
AcDbEntity
  8
S-TITLE
100
AcDbPolyline
 90
4
 70
1
 10
10.0
 20
10.0
 10
831.0
 20
10.0
 10
831.0
 20
584.0
 10
10.0
 20
584.0
  0
LWPOLYLINE
  5
12A
330
17
100
AcDbEntity
  8
G-FLAGG
100
AcDbPolyline
 90
4
 70
1
 10
14.0
 20
508.0
 10
400.0
 20
508.0
 10
400.0
 20
540.0
 10
14.0
 20
540.0
  0
TEXT
  5
12B
330
17
100
AcDbEntity
  8
G-FLAGG
100
AcDbText
 10
207.0
 20
529.0
 30
0.0
 40
4.0
  1
*** THIS IS NOT A SITE PLAN ***
  7
OpenSans
 72
1
 11
207.0
 21
529.0
 31
0.0
100
AcDbText
 73
2
  0
TEXT
  5
12C
330
17
100
AcDbEntity
  8
M-TEXT
100
AcDbText
 10
207.0
 20
519.0
 30
0.0
 40
2.2
  1
No boundary, no dimension, no benchmark, no coordinate, NO SCALE.  Master gap D3 stays OPEN.
  7
OpenSans
 72
1
 11
207.0
 21
519.0
 31
0.0
100
AcDbText
 73
2
  0
TEXT
  5
12D
330
17
100
AcDbEntity
  8
M-FLAG
100
AcDbText
 10
207.0
 20
512.0
 30
0.0
 40
2.2
  1
Relative positions only, from deck slides 13, 14, 15, 17, 18 and 22.  Distances are NOT to scale.
  7
OpenSans
 72
1
 11
207.0
 21
512.0
 31
0.0
100
AcDbText
 73
2
  0
TEXT
  5
12E
330
17
100
AcDbEntity
  8
S-TITLE
100
AcDbText
 10
14.0
 20
496.0
 30
0.0
 40
3.5
  1
V1   SITE SETTING - SCHEMATIC
  7
OpenSans
 11
14.0
 21
496.0
 31
0.0
100
AcDbText
  0
LINE
  5
12F
330
17
100
AcDbEntity
  8
S-TITLE
100
AcDbLine
 10
14.0
 20
494.2
 30
0.0
 11
90.50301406563966
 21
494.2
 31
0.0
  0
TEXT
  5
130
330
17
100
AcDbEntity
  8
S-TEXT
100
AcDbText
 10
14.0
 20
488.8
 30
0.0
 40
2.0
  1
RELATIVE POSITIONS ONLY.  NOT TO SCALE.  [C] deck slides 13, 14, 15, 17, 18, 22
  7
OpenSans
 11
14.0
 21
488.8
 31
0.0
100
AcDbText
  0
LWPOLYLINE
  5
131
330
17
100
AcDbEntity
  8
G-SETTING
100
AcDbPolyline
 90
4
 70
1
 10
96.0
 20
392.0
 10
168.0
 20
392.0
 10
168.0
 20
420.0
 10
96.0
 20
420.0
  0
HATCH
  5
132
330
17
100
AcDbEntity
  8
M-HATCH
 62
7
100
AcDbHatch
 10
0.0
 20
0.0
 30
0.0
210
0.0
220
0.0
230
1.0
  2
ANSI31
 70
0
 71
0
 91
1
 92
3
 72
0
 73
1
 93
4
 10
96.0
 20
392.0
 10
168.0
 20
392.0
 10
168.0
 20
420.0
 10
96.0
 20
420.0
 97
0
 75
1
 76
1
 52
0.0
 41
2.4
 77
0
 78
1
 53
45.0
 43
0.0
 44
0.0
 45
-5.3881536727
 46
5.3881536727
 79
0
 98
0
  0
LWPOLYLINE
  5
133
330
17
100
AcDbEntity
  8
G-SETTING
100
AcDbPolyline
 90
4
 70
1
 10
96.0
 20
436.0
 10
168.0
 20
436.0
 10
168.0
 20
464.0
 10
96.0
 20
464.0
  0
HATCH
  5
134
330
17
100
AcDbEntity
  8
M-HATCH
 62
7
100
AcDbHatch
 10
0.0
 20
0.0
 30
0.0
210
0.0
220
0.0
230
1.0
  2
ANSI31
 70
0
 71
0
 91
1
 92
3
 72
0
 73
1
 93
4
 10
96.0
 20
436.0
 10
168.0
 20
436.0
 10
168.0
 20
464.0
 10
96.0
 20
464.0
 97
0
 75
1
 76
1
 52
0.0
 41
2.4
 77
0
 78
1
 53
45.0
 43
0.0
 44
0.0
 45
-5.3881536727
 46
5.3881536727
 79
0
 98
0
  0
TEXT
  5
135
330
17
100
AcDbEntity
  8
G-SETTING
100
AcDbText
 10
132.0
 20
424.0
 30
0.0
 40
2.4
  1
CTW BLOCKS
  7
OpenSans
 72
1
 11
132.0
 21
424.0
 31
0.0
100
AcDbText
 73
2
  0
LWPOLYLINE
  5
136
330
17
100
AcDbEntity
  8
G-FLAGG
100
AcDbPolyline
 90
4
 70
1
 10
206.0
 20
398.0
 10
296.0
 20
398.0
 10
296.0
 20
462.0
 10
206.0
 20
462.0
  0
TEXT
  5
137
330
17
100
AcDbEntity
  8
G-FLAGG
100
AcDbText
 10
251.0
 20
442.0
 30
0.0
 40
3.2
  1
THE PLOT
  7
OpenSans
 72
1
 11
251.0
 21
442.0
 31
0.0
100
AcDbText
 73
2
  0
TEXT
  5
138
330
17
100
AcDbEntity
  8
M-TEXT
100
AcDbText
 10
251.0
 20
434.0
 30
0.0
 40
2.0
  1
undeveloped
  7
OpenSans
 72
1
 11
251.0
 21
434.0
 31
0.0
100
AcDbText
 73
2
  0
TEXT
  5
139
330
17
100
AcDbEntity
  8
M-FLAG
100
AcDbText
 10
251.0
 20
426.0
 30
0.0
 40
2.0
  1
NOT DIMENSIONED
  7
OpenSans
 72
1
 11
251.0
 21
426.0
 31
0.0
100
AcDbText
 73
2
  0
TEXT
  5
13A
330
17
100
AcDbEntity
  8
M-FLAG
100
AcDbText
 10
251.0
 20
419.0
 30
0.0
 40
2.0
  1
ANYWHERE  [N] D3
  7
OpenSans
 72
1
 11
251.0
 21
419.0
 31
0.0
100
AcDbText
 73
2
  0
LWPOLYLINE
  5
13B
330
17
100
AcDbEntity
  8
G-SETTING
100
AcDbPolyline
 90
5
 70
0
 10
218.0
 20
386.0
 10
224.0
 20
404.0
 10
220.0
 20
428.0
 10
228.0
 20
448.0
 10
224.0
 20
470.0
  0
TEXT
  5
13C
330
17
100
AcDbEntity
  8
G-SETTING
100
AcDbText
 10
226.0
 20
474.0
 30
0.0
 40
2.0
  1
581
  7
OpenSans
 11
226.0
 21
474.0
 31
0.0
100
AcDbText
  0
LWPOLYLINE
  5
13D
330
17
100
AcDbEntity
  8
G-SETTING
100
AcDbPolyline
 90
5
 70
0
 10
270.0
 20
386.0
 10
276.0
 20
404.0
 10
272.0
 20
428.0
 10
280.0
 20
448.0
 10
276.0
 20
470.0
  0
TEXT
  5
13E
330
17
100
AcDbEntity
  8
G-SETTING
100
AcDbText
 10
278.0
 20
474.0
 30
0.0
 40
2.0
  1
580
  7
OpenSans
 11
278.0
 21
474.0
 31
0.0
100
AcDbText
  0
TEXT
  5
13F
330
17
100
AcDbEntity
  8
G-SETTING
100
AcDbText
 10
206.0
 20
482.0
 30
0.0
 40
2.0
  1
1 m CONTOURS  [C] slide 15
  7
OpenSans
 11
206.0
 21
482.0
 31
0.0
100
AcDbText
  0
LWPOLYLINE
  5
140
330
17
100
AcDbEntity
  8
G-SETTING
100
AcDbPolyline
 90
3
 70
1
 10
323.0
 20
430.0
 10
316.0
 20
432.25
 10
316.0
 20
427.75
  0
TEXT
  5
141
330
17
100
AcDbEntity
  8
G-SETTING
100
AcDbText
 10
302.0
 20
414.0
 30
0.0
 40
2.0
  1
GROUND FALLS EAST / NE
  7
OpenSans
 11
302.0
 21
414.0
 31
0.0
100
AcDbText
  0
TEXT
  5
142
330
17
100
AcDbEntity
  8
M-TEXT
100
AcDbText
 10
302.0
 20
408.0
 30
0.0
 40
2.0
  1
580 -> 575 towards the nullah
  7
OpenSans
 11
302.0
 21
408.0
 31
0.0
100
AcDbText
  0
LWPOLYLINE
  5
143
330
17
100
AcDbEntity
  8
G-SETTING
100
AcDbPolyline
 90
4
 70
0
 10
352.0
 20
372.0
 10
358.0
 20
410.0
 10
352.0
 20
446.0
 10
360.0
 20
484.0
  0
TEXT
  5
144
330
17
100
AcDbEntity
  8
G-SETTING
100
AcDbText
 10
364.0
 20
452.0
 30
0.0
 40
2.0
  1
PERIMETER TRACK
  7
OpenSans
 11
364.0
 21
452.0
 31
0.0
100
AcDbText
  0
TEXT
  5
145
330
17
100
AcDbEntity
  8
G-SETTING
100
AcDbText
 10
364.0
 20
446.0
 30
0.0
 40
2.0
  1
AND NULLAH LINE
  7
OpenSans
 11
364.0
 21
446.0
 31
0.0
100
AcDbText
  0
TEXT
  5
146
330
17
100
AcDbEntity
  8
M-FLAG
100
AcDbText
 10
364.0
 20
432.0
 30
0.0
 40
2.0
  1
WEAKNESS: 'Located near
  7
OpenSans
 11
364.0
 21
432.0
 31
0.0
100
AcDbText
  0
TEXT
  5
147
330
17
100
AcDbEntity
  8
M-FLAG
100
AcDbText
 10
364.0
 20
426.0
 30
0.0
 40
2.0
  1
Perimeter Fence'  -  and it
  7
OpenSans
 11
364.0
 21
426.0
 31
0.0
100
AcDbText
  0
TEXT
  5
148
330
17
100
AcDbEntity
  8
M-FLAG
100
AcDbText
 10
364.0
 20
420.0
 30
0.0
 40
2.0
  1
is a CONCEALMENT weakness
  7
OpenSans
 11
364.0
 21
420.0
 31
0.0
100
AcDbText
  0
TEXT
  5
149
330
17
100
AcDbEntity
  8
M-FLAG
100
AcDbText
 10
364.0
 20
414.0
 30
0.0
 40
2.0
  1
too.  CAM-V2 / D3
  7
OpenSans
 11
364.0
 21
414.0
 31
0.0
100
AcDbText
  0
LWPOLYLINE
  5
14A
330
17
100
AcDbEntity
  8
G-SETTING
100
AcDbPolyline
 90
4
 70
1
 10
150.0
 20
346.0
 10
300.0
 20
346.0
 10
300.0
 20
372.0
 10
150.0
 20
372.0
  0
TEXT
  5
14B
330
17
100
AcDbEntity
  8
G-SETTING
100
AcDbText
 10
225.0
 20
358.0
 30
0.0
 40
2.4
  1
CBRN LIVE TRAINING AREA
  7
OpenSans
 72
1
 11
225.0
 21
358.0
 31
0.0
100
AcDbText
 73
2
  0
TEXT
  5
14C
330
17
100
AcDbEntity
  8
M-TEXT
100
AcDbText
 10
225.0
 20
350.0
 30
0.0
 40
2.0
  1
STRENGTH: 'Proximity to FCBRNP'
  7
OpenSans
 72
1
 11
225.0
 21
350.0
 31
0.0
100
AcDbText
 73
2
  0
LINE
  5
14D
330
17
100
AcDbEntity
  8
M-SECTION
100
AcDbLine
 10
60.0
 20
340.0
 30
0.0
 11
60.0
 21
476.0
 31
0.0
  0
LINE
  5
14E
330
17
100
AcDbEntity
  8
M-SECTION
100
AcDbLine
 10
66.0
 20
340.0
 30
0.0
 11
66.0
 21
476.0
 31
0.0
  0
TEXT
  5
14F
330
17
100
AcDbEntity
  8
M-FLAG
100
AcDbText
 10
63.0
 20
342.0
 30
0.0
 40
2.0
  1
BREAK - DISTANCE NOT RECORDED
 50
90.0
  7
OpenSans
 11
63.0
 21
342.0
 31
0.0
100
AcDbText
  0
LWPOLYLINE
  5
150
330
17
100
AcDbEntity
  8
G-LOG
100
AcDbPolyline
 90
4
 70
1
 10
16.0
 20
452.0
 10
52.0
 20
452.0
 10
52.0
 20
472.0
 10
16.0
 20
472.0
  0
TEXT
  5
151
330
17
100
AcDbEntity
  8
G-LOG
100
AcDbText
 10
34.0
 20
464.0
 30
0.0
 40
1.9
  1
G BLDG  TP-1..4
  7
OpenSans
 72
1
 11
34.0
 21
464.0
 31
0.0
100
AcDbText
 73
2
  0
CIRCLE
  5
152
330
17
100
AcDbEntity
  8
G-FLAGG
100
AcDbCircle
 10
24.0
 20
458.0
 30
0.0
 40
1.4
  0
CIRCLE
  5
153
330
17
100
AcDbEntity
  8
G-FLAGG
100
AcDbCircle
 10
32.0
 20
458.0
 30
0.0
 40
1.4
  0
CIRCLE
  5
154
330
17
100
AcDbEntity
  8
G-FLAGG
100
AcDbCircle
 10
40.0
 20
458.0
 30
0.0
 40
1.4
  0
LWPOLYLINE
  5
155
330
17
100
AcDbEntity
  8
G-LOG
100
AcDbPolyline
 90
4
 70
1
 10
16.0
 20
422.0
 10
52.0
 20
422.0
 10
52.0
 20
442.0
 10
16.0
 20
442.0
  0
TEXT
  5
156
330
17
100
AcDbEntity
  8
G-LOG
100
AcDbText
 10
34.0
 20
434.0
 30
0.0
 40
1.9
  1
H BLDG  TP-5..8
  7
OpenSans
 72
1
 11
34.0
 21
434.0
 31
0.0
100
AcDbText
 73
2
  0
CIRCLE
  5
157
330
17
100
AcDbEntity
  8
G-FLAGG
100
AcDbCircle
 10
24.0
 20
428.0
 30
0.0
 40
1.4
  0
CIRCLE
  5
158
330
17
100
AcDbEntity
  8
G-FLAGG
100
AcDbCircle
 10
32.0
 20
428.0
 30
0.0
 40
1.4
  0
CIRCLE
  5
159
330
17
100
AcDbEntity
  8
G-FLAGG
100
AcDbCircle
 10
40.0
 20
428.0
 30
0.0
 40
1.4
  0
LWPOLYLINE
  5
15A
330
17
100
AcDbEntity
  8
G-LOG
100
AcDbPolyline
 90
4
 70
1
 10
16.0
 20
392.0
 10
52.0
 20
392.0
 10
52.0
 20
412.0
 10
16.0
 20
412.0
  0
TEXT
  5
15B
330
17
100
AcDbEntity
  8
G-LOG
100
AcDbText
 10
34.0
 20
404.0
 30
0.0
 40
1.9
  1
MESS  TP-9..11
  7
OpenSans
 72
1
 11
34.0
 21
404.0
 31
0.0
100
AcDbText
 73
2
  0
CIRCLE
  5
15C
330
17
100
AcDbEntity
  8
G-FLAGG
100
AcDbCircle
 10
24.0
 20
398.0
 30
0.0
 40
1.4
  0
CIRCLE
  5
15D
330
17
100
AcDbEntity
  8
G-FLAGG
100
AcDbCircle
 10
32.0
 20
398.0
 30
0.0
 40
1.4
  0
CIRCLE
  5
15E
330
17
100
AcDbEntity
  8
G-FLAGG
100
AcDbCircle
 10
40.0
 20
398.0
 30
0.0
 40
1.4
  0
TEXT
  5
15F
330
17
100
AcDbEntity
  8
M-FLAG
100
AcDbText
 10
16.0
 20
372.0
 30
0.0
 40
2.2
  1
THE TRIAL PITS ARE HERE,
  7
OpenSans
 11
16.0
 21
372.0
 31
0.0
100
AcDbText
  0
TEXT
  5
160
330
17
100
AcDbEntity
  8
M-FLAG
100
AcDbText
 10
16.0
 20
366.0
 30
0.0
 40
2.2
  1
NOT ON THE PLOT.  SG-V1
  7
OpenSans
 11
16.0
 21
366.0
 31
0.0
100
AcDbText
  0
INSERT
  5
161
330
17
100
AcDbEntity
  8
S-TITLE
100
AcDbBlockReference
  2
NORTH
 10
412.0
 20
352.0
 30
0.0
  0
TEXT
  5
163
330
17
100
AcDbEntity
  8
S-TITLE
100
AcDbText
 10
412.0
 20
366.0
 30
0.0
 40
2.0
  1
N
  7
OpenSans
 72
1
 11
412.0
 21
366.0
 31
0.0
100
AcDbText
 73
2
  0
TEXT
  5
164
330
17
100
AcDbEntity
  8
S-TITLE
100
AcDbText
 10
436.0
 20
496.0
 30
0.0
 40
3.5
  1
V2   METEOROLOGICAL RECORD  -  P1 DECK SLIDES 24, 25, 26
  7
OpenSans
 11
436.0
 21
496.0
 31
0.0
100
AcDbText
  0
LINE
  5
165
330
17
100
AcDbEntity
  8
S-TITLE
100
AcDbLine
 10
436.0
 20
494.2
 30
0.0
 11
586.8586738111186
 21
494.2
 31
0.0
  0
TEXT
  5
166
330
17
100
AcDbEntity
  8
S-TEXT
100
AcDbText
 10
436.0
 20
488.8
 30
0.0
 40
2.0
  1
EACH CAPTIONED 'LAST 10 YEARS AVG'.  NO STATION, NO PERIOD OF RECORD, NO SOURCE IS NAMED.  [C] / [U]
  7
OpenSans
 11
436.0
 21
488.8
 31
0.0
100
AcDbText
  0
LWPOLYLINE
  5
167
330
17
100
AcDbEntity
  8
M-TABLE
100
AcDbPolyline
 90
4
 70
1
 10
436.0
 20
473.0
 10
596.0
 20
473.0
 10
596.0
 20
478.0
 10
436.0
 20
478.0
  0
TEXT
  5
168
330
17
100
AcDbEntity
  8
M-TABLE
100
AcDbText
 10
437.4
 20
474.5
 30
0.0
 40
2.0
  1
MONTH
  7
OpenSans
 11
437.4
 21
474.5
 31
0.0
100
AcDbText
  0
TEXT
  5
169
330
17
100
AcDbEntity
  8
M-TABLE
100
AcDbText
 10
461.4
 20
474.5
 30
0.0
 40
2.0
  1
WIND km/h
  7
OpenSans
 11
461.4
 21
474.5
 31
0.0
100
AcDbText
  0
TEXT
  5
16A
330
17
100
AcDbEntity
  8
M-TABLE
100
AcDbText
 10
491.4
 20
474.5
 30
0.0
 40
2.0
  1
RAIN mm
  7
OpenSans
 11
491.4
 21
474.5
 31
0.0
100
AcDbText
  0
TEXT
  5
16B
330
17
100
AcDbEntity
  8
M-TABLE
100
AcDbText
 10
519.4
 20
474.5
 30
0.0
 40
2.0
  1
MAX C
  7
OpenSans
 11
519.4
 21
474.5
 31
0.0
100
AcDbText
  0
TEXT
  5
16C
330
17
100
AcDbEntity
  8
M-TABLE
100
AcDbText
 10
545.4
 20
474.5
 30
0.0
 40
2.0
  1
AVG C
  7
OpenSans
 11
545.4
 21
474.5
 31
0.0
100
AcDbText
  0
TEXT
  5
16D
330
17
100
AcDbEntity
  8
M-TABLE
100
AcDbText
 10
571.4
 20
474.5
 30
0.0
 40
2.0
  1
MIN C
  7
OpenSans
 11
571.4
 21
474.5
 31
0.0
100
AcDbText
  0
TEXT
  5
16E
330
17
100
AcDbEntity
  8
M-TABLE
100
AcDbText
 10
437.4
 20
469.5
 30
0.0
 40
2.0
  1
JAN
  7
OpenSans
 11
437.4
 21
469.5
 31
0.0
100
AcDbText
  0
TEXT
  5
16F
330
17
100
AcDbEntity
  8
M-TABLE
100
AcDbText
 10
461.4
 20
469.5
 30
0.0
 40
2.0
  1
1.4
  7
OpenSans
 11
461.4
 21
469.5
 31
0.0
100
AcDbText
  0
TEXT
  5
170
330
17
100
AcDbEntity
  8
M-TABLE
100
AcDbText
 10
491.4
 20
469.5
 30
0.0
 40
2.0
  1
0.1
  7
OpenSans
 11
491.4
 21
469.5
 31
0.0
100
AcDbText
  0
TEXT
  5
171
330
17
100
AcDbEntity
  8
M-TABLE
100
AcDbText
 10
519.4
 20
469.5
 30
0.0
 40
2.0
  1
29.8
  7
OpenSans
 11
519.4
 21
469.5
 31
0.0
100
AcDbText
  0
TEXT
  5
172
330
17
100
AcDbEntity
  8
M-TABLE
100
AcDbText
 10
545.4
 20
469.5
 30
0.0
 40
2.0
  1
20.7
  7
OpenSans
 11
545.4
 21
469.5
 31
0.0
100
AcDbText
  0
TEXT
  5
173
330
17
100
AcDbEntity
  8
M-TABLE
100
AcDbText
 10
571.4
 20
469.5
 30
0.0
 40
2.0
  1
11.6
  7
OpenSans
 11
571.4
 21
469.5
 31
0.0
100
AcDbText
  0
LINE
  5
174
330
17
100
AcDbEntity
  8
M-TABLE
100
AcDbLine
 10
436.0
 20
468.0
 30
0.0
 11
596.0
 21
468.0
 31
0.0
  0
TEXT
  5
175
330
17
100
AcDbEntity
  8
M-TABLE
100
AcDbText
 10
437.4
 20
464.5
 30
0.0
 40
2.0
  1
FEB
  7
OpenSans
 11
437.4
 21
464.5
 31
0.0
100
AcDbText
  0
TEXT
  5
176
330
17
100
AcDbEntity
  8
M-TABLE
100
AcDbText
 10
461.4
 20
464.5
 30
0.0
 40
2.0
  1
2.1
  7
OpenSans
 11
461.4
 21
464.5
 31
0.0
100
AcDbText
  0
TEXT
  5
177
330
17
100
AcDbEntity
  8
M-TABLE
100
AcDbText
 10
491.4
 20
464.5
 30
0.0
 40
2.0
  1
3.0
  7
OpenSans
 11
491.4
 21
464.5
 31
0.0
100
AcDbText
  0
TEXT
  5
178
330
17
100
AcDbEntity
  8
M-TABLE
100
AcDbText
 10
519.4
 20
464.5
 30
0.0
 40
2.0
  1
32.4
  7
OpenSans
 11
519.4
 21
464.5
 31
0.0
100
AcDbText
  0
TEXT
  5
179
330
17
100
AcDbEntity
  8
M-TABLE
100
AcDbText
 10
545.4
 20
464.5
 30
0.0
 40
2.0
  1
23.2
  7
OpenSans
 11
545.4
 21
464.5
 31
0.0
100
AcDbText
  0
TEXT
  5
17A
330
17
100
AcDbEntity
  8
M-TABLE
100
AcDbText
 10
571.4
 20
464.5
 30
0.0
 40
2.0
  1
13.7
  7
OpenSans
 11
571.4
 21
464.5
 31
0.0
100
AcDbText
  0
LINE
  5
17B
330
17
100
AcDbEntity
  8
M-TABLE
100
AcDbLine
 10
436.0
 20
463.0
 30
0.0
 11
596.0
 21
463.0
 31
0.0
  0
TEXT
  5
17C
330
17
100
AcDbEntity
  8
M-TABLE
100
AcDbText
 10
437.4
 20
459.5
 30
0.0
 40
2.0
  1
MAR
  7
OpenSans
 11
437.4
 21
459.5
 31
0.0
100
AcDbText
  0
TEXT
  5
17D
330
17
100
AcDbEntity
  8
M-TABLE
100
AcDbText
 10
461.4
 20
459.5
 30
0.0
 40
2.0
  1
2.5
  7
OpenSans
 11
461.4
 21
459.5
 31
0.0
100
AcDbText
  0
TEXT
  5
17E
330
17
100
AcDbEntity
  8
M-TABLE
100
AcDbText
 10
491.4
 20
459.5
 30
0.0
 40
2.0
  1
5.5
  7
OpenSans
 11
491.4
 21
459.5
 31
0.0
100
AcDbText
  0
TEXT
  5
17F
330
17
100
AcDbEntity
  8
M-TABLE
100
AcDbText
 10
519.4
 20
459.5
 30
0.0
 40
2.0
  1
35.5
  7
OpenSans
 11
519.4
 21
459.5
 31
0.0
100
AcDbText
  0
TEXT
  5
180
330
17
100
AcDbEntity
  8
M-TABLE
100
AcDbText
 10
545.4
 20
459.5
 30
0.0
 40
2.0
  1
26.0
  7
OpenSans
 11
545.4
 21
459.5
 31
0.0
100
AcDbText
  0
TEXT
  5
181
330
17
100
AcDbEntity
  8
M-TABLE
100
AcDbText
 10
571.4
 20
459.5
 30
0.0
 40
2.0
  1
16.7
  7
OpenSans
 11
571.4
 21
459.5
 31
0.0
100
AcDbText
  0
LINE
  5
182
330
17
100
AcDbEntity
  8
M-TABLE
100
AcDbLine
 10
436.0
 20
458.0
 30
0.0
 11
596.0
 21
458.0
 31
0.0
  0
TEXT
  5
183
330
17
100
AcDbEntity
  8
M-TABLE
100
AcDbText
 10
437.4
 20
454.5
 30
0.0
 40
2.0
  1
APR
  7
OpenSans
 11
437.4
 21
454.5
 31
0.0
100
AcDbText
  0
TEXT
  5
184
330
17
100
AcDbEntity
  8
M-TABLE
100
AcDbText
 10
461.4
 20
454.5
 30
0.0
 40
2.0
  1
3.6
  7
OpenSans
 11
461.4
 21
454.5
 31
0.0
100
AcDbText
  0
TEXT
  5
185
330
17
100
AcDbEntity
  8
M-TABLE
100
AcDbText
 10
491.4
 20
454.5
 30
0.0
 40
2.0
  1
3.9
  7
OpenSans
 11
491.4
 21
454.5
 31
0.0
100
AcDbText
  0
TEXT
  5
186
330
17
100
AcDbEntity
  8
M-TABLE
100
AcDbText
 10
519.4
 20
454.5
 30
0.0
 40
2.0
  1
38.3
  7
OpenSans
 11
519.4
 21
454.5
 31
0.0
100
AcDbText
  0
TEXT
  5
187
330
17
100
AcDbEntity
  8
M-TABLE
100
AcDbText
 10
545.4
 20
454.5
 30
0.0
 40
2.0
  1
29.3
  7
OpenSans
 11
545.4
 21
454.5
 31
0.0
100
AcDbText
  0
TEXT
  5
188
330
17
100
AcDbEntity
  8
M-TABLE
100
AcDbText
 10
571.4
 20
454.5
 30
0.0
 40
2.0
  1
20.2
  7
OpenSans
 11
571.4
 21
454.5
 31
0.0
100
AcDbText
  0
LINE
  5
189
330
17
100
AcDbEntity
  8
M-TABLE
100
AcDbLine
 10
436.0
 20
453.0
 30
0.0
 11
596.0
 21
453.0
 31
0.0
  0
TEXT
  5
18A
330
17
100
AcDbEntity
  8
M-TABLE
100
AcDbText
 10
437.4
 20
449.5
 30
0.0
 40
2.0
  1
MAY
  7
OpenSans
 11
437.4
 21
449.5
 31
0.0
100
AcDbText
  0
TEXT
  5
18B
330
17
100
AcDbEntity
  8
M-TABLE
100
AcDbText
 10
461.4
 20
449.5
 30
0.0
 40
2.0
  1
6.2
  7
OpenSans
 11
461.4
 21
449.5
 31
0.0
100
AcDbText
  0
TEXT
  5
18C
330
17
100
AcDbEntity
  8
M-TABLE
100
AcDbText
 10
491.4
 20
449.5
 30
0.0
 40
2.0
  1
19.0
  7
OpenSans
 11
491.4
 21
449.5
 31
0.0
100
AcDbText
  0
TEXT
  5
18D
330
17
100
AcDbEntity
  8
M-TABLE
100
AcDbText
 10
519.4
 20
449.5
 30
0.0
 40
2.0
  1
37.8
  7
OpenSans
 11
519.4
 21
449.5
 31
0.0
100
AcDbText
  0
TEXT
  5
18E
330
17
100
AcDbEntity
  8
M-TABLE
100
AcDbText
 10
545.4
 20
449.5
 30
0.0
 40
2.0
  1
30.6
  7
OpenSans
 11
545.4
 21
449.5
 31
0.0
100
AcDbText
  0
TEXT
  5
18F
330
17
100
AcDbEntity
  8
M-TABLE
100
AcDbText
 10
571.4
 20
449.5
 30
0.0
 40
2.0
  1
23.1
  7
OpenSans
 11
571.4
 21
449.5
 31
0.0
100
AcDbText
  0
LINE
  5
190
330
17
100
AcDbEntity
  8
M-TABLE
100
AcDbLine
 10
436.0
 20
448.0
 30
0.0
 11
596.0
 21
448.0
 31
0.0
  0
TEXT
  5
191
330
17
100
AcDbEntity
  8
M-TABLE
100
AcDbText
 10
437.4
 20
444.5
 30
0.0
 40
2.0
  1
JUN
  7
OpenSans
 11
437.4
 21
444.5
 31
0.0
100
AcDbText
  0
TEXT
  5
192
330
17
100
AcDbEntity
  8
M-TABLE
100
AcDbText
 10
461.4
 20
444.5
 30
0.0
 40
2.0
  1
6.6
  7
OpenSans
 11
461.4
 21
444.5
 31
0.0
100
AcDbText
  0
TEXT
  5
193
330
17
100
AcDbEntity
  8
M-TABLE
100
AcDbText
 10
491.4
 20
444.5
 30
0.0
 40
2.0
  1
137.8
  7
OpenSans
 11
491.4
 21
444.5
 31
0.0
100
AcDbText
  0
TEXT
  5
194
330
17
100
AcDbEntity
  8
M-TABLE
100
AcDbText
 10
519.4
 20
444.5
 30
0.0
 40
2.0
  1
32.1
  7
OpenSans
 11
519.4
 21
444.5
 31
0.0
100
AcDbText
  0
TEXT
  5
195
330
17
100
AcDbEntity
  8
M-TABLE
100
AcDbText
 10
545.4
 20
444.5
 30
0.0
 40
2.0
  1
27.6
  7
OpenSans
 11
545.4
 21
444.5
 31
0.0
100
AcDbText
  0
TEXT
  5
196
330
17
100
AcDbEntity
  8
M-TABLE
100
AcDbText
 10
571.4
 20
444.5
 30
0.0
 40
2.0
  1
23.1
  7
OpenSans
 11
571.4
 21
444.5
 31
0.0
100
AcDbText
  0
LINE
  5
197
330
17
100
AcDbEntity
  8
M-TABLE
100
AcDbLine
 10
436.0
 20
443.0
 30
0.0
 11
596.0
 21
443.0
 31
0.0
  0
TEXT
  5
198
330
17
100
AcDbEntity
  8
M-TABLE
100
AcDbText
 10
437.4
 20
439.5
 30
0.0
 40
2.0
  1
JUL
  7
OpenSans
 11
437.4
 21
439.5
 31
0.0
100
AcDbText
  0
TEXT
  5
199
330
17
100
AcDbEntity
  8
M-TABLE
100
AcDbText
 10
461.4
 20
439.5
 30
0.0
 40
2.0
  1
5.7
  7
OpenSans
 11
461.4
 21
439.5
 31
0.0
100
AcDbText
  0
TEXT
  5
19A
330
17
100
AcDbEntity
  8
M-TABLE
100
AcDbText
 10
491.4
 20
439.5
 30
0.0
 40
2.0
  1
166.2
  7
OpenSans
 11
491.4
 21
439.5
 31
0.0
100
AcDbText
  0
TEXT
  5
19B
330
17
100
AcDbEntity
  8
M-TABLE
100
AcDbText
 10
519.4
 20
439.5
 30
0.0
 40
2.0
  1
28.5
  7
OpenSans
 11
519.4
 21
439.5
 31
0.0
100
AcDbText
  0
TEXT
  5
19C
330
17
100
AcDbEntity
  8
M-TABLE
100
AcDbText
 10
545.4
 20
439.5
 30
0.0
 40
2.0
  1
25.4
  7
OpenSans
 11
545.4
 21
439.5
 31
0.0
100
AcDbText
  0
TEXT
  5
19D
330
17
100
AcDbEntity
  8
M-TABLE
100
AcDbText
 10
571.4
 20
439.5
 30
0.0
 40
2.0
  1
22.3
  7
OpenSans
 11
571.4
 21
439.5
 31
0.0
100
AcDbText
  0
LINE
  5
19E
330
17
100
AcDbEntity
  8
M-TABLE
100
AcDbLine
 10
436.0
 20
438.0
 30
0.0
 11
596.0
 21
438.0
 31
0.0
  0
TEXT
  5
19F
330
17
100
AcDbEntity
  8
M-TABLE
100
AcDbText
 10
437.4
 20
434.5
 30
0.0
 40
2.0
  1
AUG
  7
OpenSans
 11
437.4
 21
434.5
 31
0.0
100
AcDbText
  0
TEXT
  5
1A0
330
17
100
AcDbEntity
  8
M-TABLE
100
AcDbText
 10
461.4
 20
434.5
 30
0.0
 40
2.0
  1
5.2
  7
OpenSans
 11
461.4
 21
434.5
 31
0.0
100
AcDbText
  0
TEXT
  5
1A1
330
17
100
AcDbEntity
  8
M-TABLE
100
AcDbText
 10
491.4
 20
434.5
 30
0.0
 40
2.0
  1
120.8
  7
OpenSans
 11
491.4
 21
434.5
 31
0.0
100
AcDbText
  0
TEXT
  5
1A2
330
17
100
AcDbEntity
  8
M-TABLE
100
AcDbText
 10
519.4
 20
434.5
 30
0.0
 40
2.0
  1
28.2
  7
OpenSans
 11
519.4
 21
434.5
 31
0.0
100
AcDbText
  0
TEXT
  5
1A3
330
17
100
AcDbEntity
  8
M-TABLE
100
AcDbText
 10
545.4
 20
434.5
 30
0.0
 40
2.0
  1
24.8
  7
OpenSans
 11
545.4
 21
434.5
 31
0.0
100
AcDbText
  0
TEXT
  5
1A4
330
17
100
AcDbEntity
  8
M-TABLE
100
AcDbText
 10
571.4
 20
434.5
 30
0.0
 40
2.0
  1
21.6
  7
OpenSans
 11
571.4
 21
434.5
 31
0.0
100
AcDbText
  0
LINE
  5
1A5
330
17
100
AcDbEntity
  8
M-TABLE
100
AcDbLine
 10
436.0
 20
433.0
 30
0.0
 11
596.0
 21
433.0
 31
0.0
  0
TEXT
  5
1A6
330
17
100
AcDbEntity
  8
M-TABLE
100
AcDbText
 10
437.4
 20
429.5
 30
0.0
 40
2.0
  1
SEP
  7
OpenSans
 11
437.4
 21
429.5
 31
0.0
100
AcDbText
  0
TEXT
  5
1A7
330
17
100
AcDbEntity
  8
M-TABLE
100
AcDbText
 10
461.4
 20
429.5
 30
0.0
 40
2.0
  1
3.3
  7
OpenSans
 11
461.4
 21
429.5
 31
0.0
100
AcDbText
  0
TEXT
  5
1A8
330
17
100
AcDbEntity
  8
M-TABLE
100
AcDbText
 10
491.4
 20
429.5
 30
0.0
 40
2.0
  1
134.9
  7
OpenSans
 11
491.4
 21
429.5
 31
0.0
100
AcDbText
  0
TEXT
  5
1A9
330
17
100
AcDbEntity
  8
M-TABLE
100
AcDbText
 10
519.4
 20
429.5
 30
0.0
 40
2.0
  1
29.7
  7
OpenSans
 11
519.4
 21
429.5
 31
0.0
100
AcDbText
  0
TEXT
  5
1AA
330
17
100
AcDbEntity
  8
M-TABLE
100
AcDbText
 10
545.4
 20
429.5
 30
0.0
 40
2.0
  1
25.4
  7
OpenSans
 11
545.4
 21
429.5
 31
0.0
100
AcDbText
  0
TEXT
  5
1AB
330
17
100
AcDbEntity
  8
M-TABLE
100
AcDbText
 10
571.4
 20
429.5
 30
0.0
 40
2.0
  1
21.1
  7
OpenSans
 11
571.4
 21
429.5
 31
0.0
100
AcDbText
  0
LINE
  5
1AC
330
17
100
AcDbEntity
  8
M-TABLE
100
AcDbLine
 10
436.0
 20
428.0
 30
0.0
 11
596.0
 21
428.0
 31
0.0
  0
TEXT
  5
1AD
330
17
100
AcDbEntity
  8
M-TABLE
100
AcDbText
 10
437.4
 20
424.5
 30
0.0
 40
2.0
  1
OCT
  7
OpenSans
 11
437.4
 21
424.5
 31
0.0
100
AcDbText
  0
TEXT
  5
1AE
330
17
100
AcDbEntity
  8
M-TABLE
100
AcDbText
 10
461.4
 20
424.5
 30
0.0
 40
2.0
  1
1.6
  7
OpenSans
 11
461.4
 21
424.5
 31
0.0
100
AcDbText
  0
TEXT
  5
1AF
330
17
100
AcDbEntity
  8
M-TABLE
100
AcDbText
 10
491.4
 20
424.5
 30
0.0
 40
2.0
  1
139.8
  7
OpenSans
 11
491.4
 21
424.5
 31
0.0
100
AcDbText
  0
TEXT
  5
1B0
330
17
100
AcDbEntity
  8
M-TABLE
100
AcDbText
 10
519.4
 20
424.5
 30
0.0
 40
2.0
  1
31.6
  7
OpenSans
 11
519.4
 21
424.5
 31
0.0
100
AcDbText
  0
TEXT
  5
1B1
330
17
100
AcDbEntity
  8
M-TABLE
100
AcDbText
 10
545.4
 20
424.5
 30
0.0
 40
2.0
  1
25.6
  7
OpenSans
 11
545.4
 21
424.5
 31
0.0
100
AcDbText
  0
TEXT
  5
1B2
330
17
100
AcDbEntity
  8
M-TABLE
100
AcDbText
 10
571.4
 20
424.5
 30
0.0
 40
2.0
  1
19.7
  7
OpenSans
 11
571.4
 21
424.5
 31
0.0
100
AcDbText
  0
LINE
  5
1B3
330
17
100
AcDbEntity
  8
M-TABLE
100
AcDbLine
 10
436.0
 20
423.0
 30
0.0
 11
596.0
 21
423.0
 31
0.0
  0
TEXT
  5
1B4
330
17
100
AcDbEntity
  8
M-TABLE
100
AcDbText
 10
437.4
 20
419.5
 30
0.0
 40
2.0
  1
NOV
  7
OpenSans
 11
437.4
 21
419.5
 31
0.0
100
AcDbText
  0
TEXT
  5
1B5
330
17
100
AcDbEntity
  8
M-TABLE
100
AcDbText
 10
461.4
 20
419.5
 30
0.0
 40
2.0
  1
1.4
  7
OpenSans
 11
461.4
 21
419.5
 31
0.0
100
AcDbText
  0
TEXT
  5
1B6
330
17
100
AcDbEntity
  8
M-TABLE
100
AcDbText
 10
491.4
 20
419.5
 30
0.0
 40
2.0
  1
22.7
  7
OpenSans
 11
491.4
 21
419.5
 31
0.0
100
AcDbText
  0
TEXT
  5
1B7
330
17
100
AcDbEntity
  8
M-TABLE
100
AcDbText
 10
519.4
 20
419.5
 30
0.0
 40
2.0
  1
30.9
  7
OpenSans
 11
519.4
 21
419.5
 31
0.0
100
AcDbText
  0
TEXT
  5
1B8
330
17
100
AcDbEntity
  8
M-TABLE
100
AcDbText
 10
545.4
 20
419.5
 30
0.0
 40
2.0
  1
23.1
  7
OpenSans
 11
545.4
 21
419.5
 31
0.0
100
AcDbText
  0
TEXT
  5
1B9
330
17
100
AcDbEntity
  8
M-TABLE
100
AcDbText
 10
571.4
 20
419.5
 30
0.0
 40
2.0
  1
15.2
  7
OpenSans
 11
571.4
 21
419.5
 31
0.0
100
AcDbText
  0
LINE
  5
1BA
330
17
100
AcDbEntity
  8
M-TABLE
100
AcDbLine
 10
436.0
 20
418.0
 30
0.0
 11
596.0
 21
418.0
 31
0.0
  0
TEXT
  5
1BB
330
17
100
AcDbEntity
  8
M-TABLE
100
AcDbText
 10
437.4
 20
414.5
 30
0.0
 40
2.0
  1
DEC
  7
OpenSans
 11
437.4
 21
414.5
 31
0.0
100
AcDbText
  0
TEXT
  5
1BC
330
17
100
AcDbEntity
  8
M-TABLE
100
AcDbText
 10
461.4
 20
414.5
 30
0.0
 40
2.0
  1
1.2
  7
OpenSans
 11
461.4
 21
414.5
 31
0.0
100
AcDbText
  0
TEXT
  5
1BD
330
17
100
AcDbEntity
  8
M-TABLE
100
AcDbText
 10
491.4
 20
414.5
 30
0.0
 40
2.0
  1
5.9
  7
OpenSans
 11
491.4
 21
414.5
 31
0.0
100
AcDbText
  0
TEXT
  5
1BE
330
17
100
AcDbEntity
  8
M-TABLE
100
AcDbText
 10
519.4
 20
414.5
 30
0.0
 40
2.0
  1
29.6
  7
OpenSans
 11
519.4
 21
414.5
 31
0.0
100
AcDbText
  0
TEXT
  5
1BF
330
17
100
AcDbEntity
  8
M-TABLE
100
AcDbText
 10
545.4
 20
414.5
 30
0.0
 40
2.0
  1
21.7
  7
OpenSans
 11
545.4
 21
414.5
 31
0.0
100
AcDbText
  0
TEXT
  5
1C0
330
17
100
AcDbEntity
  8
M-TABLE
100
AcDbText
 10
571.4
 20
414.5
 30
0.0
 40
2.0
  1
13.5
  7
OpenSans
 11
571.4
 21
414.5
 31
0.0
100
AcDbText
  0
LINE
  5
1C1
330
17
100
AcDbEntity
  8
M-TABLE
100
AcDbLine
 10
436.0
 20
413.0
 30
0.0
 11
596.0
 21
413.0
 31
0.0
  0
TEXT
  5
1C2
330
17
100
AcDbEntity
  8
M-TABLE
100
AcDbText
 10
437.4
 20
409.5
 30
0.0
 40
2.0
  1
YEAR
  7
OpenSans
 11
437.4
 21
409.5
 31
0.0
100
AcDbText
  0
TEXT
  5
1C3
330
17
100
AcDbEntity
  8
M-TABLE
100
AcDbText
 10
461.4
 20
409.5
 30
0.0
 40
2.0
  1
3.4
  7
OpenSans
 11
461.4
 21
409.5
 31
0.0
100
AcDbText
  0
TEXT
  5
1C4
330
17
100
AcDbEntity
  8
M-TABLE
100
AcDbText
 10
491.4
 20
409.5
 30
0.0
 40
2.0
  1
759.6
  7
OpenSans
 11
491.4
 21
409.5
 31
0.0
100
AcDbText
  0
TEXT
  5
1C5
330
17
100
AcDbEntity
  8
M-TABLE
100
AcDbText
 10
519.4
 20
409.5
 30
0.0
 40
2.0
  1
38.3
  7
OpenSans
 11
519.4
 21
409.5
 31
0.0
100
AcDbText
  0
TEXT
  5
1C6
330
17
100
AcDbEntity
  8
M-TABLE
100
AcDbText
 10
545.4
 20
409.5
 30
0.0
 40
2.0
  1
25.3
  7
OpenSans
 11
545.4
 21
409.5
 31
0.0
100
AcDbText
  0
TEXT
  5
1C7
330
17
100
AcDbEntity
  8
M-TABLE
100
AcDbText
 10
571.4
 20
409.5
 30
0.0
 40
2.0
  1
11.6
  7
OpenSans
 11
571.4
 21
409.5
 31
0.0
100
AcDbText
  0
LINE
  5
1C8
330
17
100
AcDbEntity
  8
M-TABLE
100
AcDbLine
 10
436.0
 20
408.0
 30
0.0
 11
596.0
 21
408.0
 31
0.0
  0
LINE
  5
1C9
330
17
100
AcDbEntity
  8
M-TABLE
100
AcDbLine
 10
436.0
 20
478.0
 30
0.0
 11
596.0
 21
478.0
 31
0.0
  0
LINE
  5
1CA
330
17
100
AcDbEntity
  8
M-TABLE
100
AcDbLine
 10
436.0
 20
478.0
 30
0.0
 11
436.0
 21
408.0
 31
0.0
  0
LINE
  5
1CB
330
17
100
AcDbEntity
  8
M-TABLE
100
AcDbLine
 10
460.0
 20
478.0
 30
0.0
 11
460.0
 21
408.0
 31
0.0
  0
LINE
  5
1CC
330
17
100
AcDbEntity
  8
M-TABLE
100
AcDbLine
 10
490.0
 20
478.0
 30
0.0
 11
490.0
 21
408.0
 31
0.0
  0
LINE
  5
1CD
330
17
100
AcDbEntity
  8
M-TABLE
100
AcDbLine
 10
518.0
 20
478.0
 30
0.0
 11
518.0
 21
408.0
 31
0.0
  0
LINE
  5
1CE
330
17
100
AcDbEntity
  8
M-TABLE
100
AcDbLine
 10
544.0
 20
478.0
 30
0.0
 11
544.0
 21
408.0
 31
0.0
  0
LINE
  5
1CF
330
17
100
AcDbEntity
  8
M-TABLE
100
AcDbLine
 10
570.0
 20
478.0
 30
0.0
 11
570.0
 21
408.0
 31
0.0
  0
LINE
  5
1D0
330
17
100
AcDbEntity
  8
M-TABLE
100
AcDbLine
 10
596.0
 20
478.0
 30
0.0
 11
596.0
 21
408.0
 31
0.0
  0
TEXT
  5
1D1
330
17
100
AcDbEntity
  8
S-TITLE
100
AcDbText
 10
612.0
 20
491.5
 30
0.0
 40
2.5
  1
SITE SELECTION - THE DECK'S OWN SWOT   [C] slide 22
  7
OpenSans
 11
612.0
 21
491.5
 31
0.0
100
AcDbText
  0
TEXT
  5
1D2
330
17
100
AcDbEntity
  8
S-NOTE
100
AcDbText
 10
612.0
 20
487.175
 30
0.0
 40
2.2
  1
STRENGTH    Proximity to FCBRNP
  7
OpenSans
 11
612.0
 21
487.175
 31
0.0
100
AcDbText
  0
TEXT
  5
1D3
330
17
100
AcDbEntity
  8
S-NOTE
100
AcDbText
 10
612.0
 20
481.77500000000003
 30
0.0
 40
2.2
  1
            Availability of electric lines
  7
OpenSans
 11
612.0
 21
481.77500000000003
 31
0.0
100
AcDbText
  0
TEXT
  5
1D4
330
17
100
AcDbEntity
  8
S-NOTE
100
AcDbText
 10
612.0
 20
476.37500000000006
 30
0.0
 40
2.2
  1
            Good road connectivity
  7
OpenSans
 11
612.0
 21
476.37500000000006
 31
0.0
100
AcDbText
  0
TEXT
  5
1D5
330
17
100
AcDbEntity
  8
S-NOTE
100
AcDbText
 10
612.0
 20
470.9750000000001
 30
0.0
 40
2.2
  1
            Good water supply
  7
OpenSans
 11
612.0
 21
470.9750000000001
 31
0.0
100
AcDbText
  0
TEXT
  5
1D6
330
17
100
AcDbEntity
  8
S-NOTE
100
AcDbText
 10
612.0
 20
465.5750000000001
 30
0.0
 40
2.2
  1
            No pipelines
  7
OpenSans
 11
612.0
 21
465.5750000000001
 31
0.0
100
AcDbText
  0
TEXT
  5
1D7
330
17
100
AcDbEntity
  8
S-NOTE
100
AcDbText
 10
612.0
 20
460.1750000000001
 30
0.0
 40
2.2
  1
WEAKNESS    Located near Perimeter Fence
  7
OpenSans
 11
612.0
 21
460.1750000000001
 31
0.0
100
AcDbText
  0
TEXT
  5
1D8
330
17
100
AcDbEntity
  8
S-NOTE
100
AcDbText
 10
612.0
 20
454.77500000000015
 30
0.0
 40
2.2
  1
OPPORTUNITY Enhanced trg opportunities
  7
OpenSans
 11
612.0
 21
454.77500000000015
 31
0.0
100
AcDbText
  0
TEXT
  5
1D9
330
17
100
AcDbEntity
  8
S-NOTE
100
AcDbText
 10
612.0
 20
449.37500000000017
 30
0.0
 40
2.2
  1
            Live demo model to facilitate practical trg
  7
OpenSans
 11
612.0
 21
449.37500000000017
 31
0.0
100
AcDbText
  0
TEXT
  5
1DA
330
17
100
AcDbEntity
  8
S-NOTE
100
AcDbText
 10
612.0
 20
443.9750000000002
 30
0.0
 40
2.2
  1
            Good connectivity
  7
OpenSans
 11
612.0
 21
443.9750000000002
 31
0.0
100
AcDbText
  0
TEXT
  5
1DB
330
17
100
AcDbEntity
  8
S-NOTE
100
AcDbText
 10
612.0
 20
438.5750000000002
 30
0.0
 40
2.2
  1
THREAT      Interference with CTW schedule
  7
OpenSans
 11
612.0
 21
438.5750000000002
 31
0.0
100
AcDbText
  0
LWPOLYLINE
  5
1DC
330
17
100
AcDbEntity
  8
S-TITLE
100
AcDbPolyline
 90
4
 70
1
 10
610.0
 20
431.17500000000024
 10
826.0
 20
431.17500000000024
 10
826.0
 20
496.0
 10
610.0
 20
496.0
  0
TEXT
  5
1DD
330
17
100
AcDbEntity
  8
S-TITLE
100
AcDbText
 10
612.0
 20
420.67500000000024
 30
0.0
 40
2.5
  1
WHAT THE SELECTION GOT RIGHT, IN THIS PROJECT'S TERMS
  7
OpenSans
 11
612.0
 21
420.67500000000024
 31
0.0
100
AcDbText
  0
TEXT
  5
1DE
330
17
100
AcDbEntity
  8
S-NOTE
100
AcDbText
 10
612.0
 20
416.35000000000025
 30
0.0
 40
2.2
  1
'NO PIPELINES' is worth more here than on an ordinary
  7
OpenSans
 11
612.0
 21
416.35000000000025
 31
0.0
100
AcDbText
  0
TEXT
  5
1DF
330
17
100
AcDbEntity
  8
S-NOTE
100
AcDbText
 10
612.0
 20
410.9500000000003
 30
0.0
 40
2.2
  1
building.  A buried main crossing a 22 x 6.2 box with a
  7
OpenSans
 11
612.0
 21
410.9500000000003
 31
0.0
100
AcDbText
  0
TEXT
  5
1E0
330
17
100
AcDbEntity
  8
S-NOTE
100
AcDbText
 10
612.0
 20
405.5500000000003
 30
0.0
 40
2.2
  1
continuous gas-tight, EMP-bonded envelope would have been a
  7
OpenSans
 11
612.0
 21
405.5500000000003
 31
0.0
100
AcDbText
  0
TEXT
  5
1E1
330
17
100
AcDbEntity
  8
S-NOTE
100
AcDbText
 10
612.0
 20
400.1500000000003
 30
0.0
 40
2.2
  1
first-order problem - every penetration is a blast, gas and
  7
OpenSans
 11
612.0
 21
400.1500000000003
 31
0.0
100
AcDbText
  0
TEXT
  5
1E2
330
17
100
AcDbEntity
  8
S-NOTE
100
AcDbText
 10
612.0
 20
394.75000000000034
 30
0.0
 40
2.2
  1
EMP discontinuity.  Slide 18 draws the plot OUTSIDE the pipe
  7
OpenSans
 11
612.0
 21
394.75000000000034
 31
0.0
100
AcDbText
  0
TEXT
  5
1E3
330
17
100
AcDbEntity
  8
S-NOTE
100
AcDbText
 10
612.0
 20
389.35000000000036
 30
0.0
 40
2.2
  1
network.  [C]
  7
OpenSans
 11
612.0
 21
389.35000000000036
 31
0.0
100
AcDbText
  0
TEXT
  5
1E4
330
17
100
AcDbEntity
  8
S-NOTE
100
AcDbText
 10
612.0
 20
383.9500000000004
 30
0.0
 40
2.2
  1
'ELECTRIC LINES' is the project's EARLIEST record of a supply.
  7
OpenSans
 11
612.0
 21
383.9500000000004
 31
0.0
100
AcDbText
  0
TEXT
  5
1E5
330
17
100
AcDbEntity
  8
S-NOTE
100
AcDbText
 10
612.0
 20
378.5500000000004
 30
0.0
 40
2.2
  1
It gives no capacity - EL-V4 stays open.
  7
OpenSans
 11
612.0
 21
378.5500000000004
 31
0.0
100
AcDbText
  0
TEXT
  5
1E6
330
17
100
AcDbEntity
  8
S-NOTE
100
AcDbText
 10
612.0
 20
373.15000000000043
 30
0.0
 40
2.2
  1
'ROAD CONNECTIVITY' matches 994 m3 of rock excavated by
  7
OpenSans
 11
612.0
 21
373.15000000000043
 31
0.0
100
AcDbText
  0
TEXT
  5
1E7
330
17
100
AcDbEntity
  8
S-NOTE
100
AcDbText
 10
612.0
 20
367.75000000000045
 30
0.0
 40
2.2
  1
breaker with no blasting and hauled by tipper.  [C] WM1
  7
OpenSans
 11
612.0
 21
367.75000000000045
 31
0.0
100
AcDbText
  0
LWPOLYLINE
  5
1E8
330
17
100
AcDbEntity
  8
S-TITLE
100
AcDbPolyline
 90
4
 70
1
 10
610.0
 20
360.3500000000005
 10
826.0
 20
360.3500000000005
 10
826.0
 20
425.17500000000024
 10
610.0
 20
425.17500000000024
  0
TEXT
  5
1E9
330
17
100
AcDbEntity
  8
S-TITLE
100
AcDbText
 10
438.0
 20
325.5
 30
0.0
 40
2.5
  1
GROUND LEVEL - THE DECK CONTRADICTS ITSELF   [U] SG-V4
  7
OpenSans
 11
438.0
 21
325.5
 31
0.0
100
AcDbText
  0
TEXT
  5
1EA
330
17
100
AcDbEntity
  8
S-NOTE
100
AcDbText
 10
438.0
 20
321.175
 30
0.0
 40
2.2
  1
CONTOUR MAP slide 15   1 m contours 575 to 584.  The
  7
OpenSans
 11
438.0
 21
321.175
 31
0.0
100
AcDbText
  0
TEXT
  5
1EB
330
17
100
AcDbEntity
  8
S-NOTE
100
AcDbText
 10
438.0
 20
316.88012820512824
 30
0.0
 40
2.2
  1
  580 and 581 contours BOTH cross the plot.
  7
OpenSans
 11
438.0
 21
316.88012820512824
 31
0.0
100
AcDbText
  0
TEXT
  5
1EC
330
17
100
AcDbEntity
  8
S-NOTE
100
AcDbText
 10
438.0
 20
312.5852564102565
 30
0.0
 40
2.2
  1
  => ground level approx 580 to 582 m, fall about 1 in 40
  7
OpenSans
 11
438.0
 21
312.5852564102565
 31
0.0
100
AcDbText
  0
TEXT
  5
1ED
330
17
100
AcDbEntity
  8
S-NOTE
100
AcDbText
 10
438.0
 20
308.2903846153847
 30
0.0
 40
2.2
  1
ELEVATION PROFILE slide 21   593.9 m rising to 596.2 m
  7
OpenSans
 11
438.0
 21
308.2903846153847
 31
0.0
100
AcDbText
  0
TEXT
  5
1EE
330
17
100
AcDbEntity
  8
S-NOTE
100
AcDbText
 10
438.0
 20
303.99551282051294
 30
0.0
 40
2.2
  1
  over 26.8 m  =  1 in 11.7
  7
OpenSans
 11
438.0
 21
303.99551282051294
 31
0.0
100
AcDbText
  0
TEXT
  5
1EF
330
17
100
AcDbEntity
  8
S-NOTE
100
AcDbText
 10
438.0
 20
295.4057692307694
 30
0.0
 40
2.2
  1
THEY DISAGREE BY 12 TO 16 m ON LEVEL AND BY ABOUT FOUR
  7
OpenSans
 11
438.0
 21
295.4057692307694
 31
0.0
100
AcDbText
  0
TEXT
  5
1F0
330
17
100
AcDbEntity
  8
S-NOTE
100
AcDbText
 10
438.0
 20
291.11089743589764
 30
0.0
 40
2.2
  1
TIMES ON GRADIENT.  Neither is adopted.  Most likely a local
  7
OpenSans
 11
438.0
 21
291.11089743589764
 31
0.0
100
AcDbText
  0
TEXT
  5
1F1
330
17
100
AcDbEntity
  8
S-NOTE
100
AcDbText
 10
438.0
 20
286.8160256410259
 30
0.0
 40
2.2
  1
survey datum against a satellite MSL profile across a short
  7
OpenSans
 11
438.0
 21
286.8160256410259
 31
0.0
100
AcDbText
  0
TEXT
  5
1F2
330
17
100
AcDbEntity
  8
S-NOTE
100
AcDbText
 10
438.0
 20
282.5211538461541
 30
0.0
 40
2.2
  1
transect, BUT THAT IS A GUESS AND IT IS RECORDED AS ONE.
  7
OpenSans
 11
438.0
 21
282.5211538461541
 31
0.0
100
AcDbText
  0
TEXT
  5
1F3
330
17
100
AcDbEntity
  8
S-NOTE
100
AcDbText
 10
438.0
 20
273.9314102564106
 30
0.0
 40
2.2
  1
IT CHANGES NO CALCULATION - the project works on a LOCAL datum
  7
OpenSans
 11
438.0
 21
273.9314102564106
 31
0.0
100
AcDbText
  0
TEXT
  5
1F4
330
17
100
AcDbEntity
  8
S-NOTE
100
AcDbText
 10
438.0
 20
269.6365384615388
 30
0.0
 40
2.2
  1
with grade = 0.000 and holds no absolute reduced level at all.
  7
OpenSans
 11
438.0
 21
269.6365384615388
 31
0.0
100
AcDbText
  0
TEXT
  5
1F5
330
17
100
AcDbEntity
  8
S-NOTE
100
AcDbText
 10
438.0
 20
265.34166666666704
 30
0.0
 40
2.2
  1
IT DOES BLOCK three things: the cut and fill for a level
  7
OpenSans
 11
438.0
 21
265.34166666666704
 31
0.0
100
AcDbText
  0
TEXT
  5
1F6
330
17
100
AcDbEntity
  8
S-NOTE
100
AcDbText
 10
438.0
 20
261.04679487179527
 30
0.0
 40
2.2
  1
formation under a 22 m box, the berm toe, and where the BS1
  7
OpenSans
 11
438.0
 21
261.04679487179527
 31
0.0
100
AcDbText
  0
TEXT
  5
1F7
330
17
100
AcDbEntity
  8
S-NOTE
100
AcDbText
 10
438.0
 20
256.7519230769235
 30
0.0
 40
2.2
  1
1:50 cover crossfall daylights.  All wait on D3.
  7
OpenSans
 11
438.0
 21
256.7519230769235
 31
0.0
100
AcDbText
  0
LWPOLYLINE
  5
1F8
330
17
100
AcDbEntity
  8
S-TITLE
100
AcDbPolyline
 90
4
 70
1
 10
436.0
 20
250.4570512820517
 10
604.0
 20
250.4570512820517
 10
604.0
 20
330.0
 10
436.0
 20
330.0
  0
TEXT
  5
1F9
330
17
100
AcDbEntity
  8
S-TITLE
100
AcDbText
 10
438.0
 20
239.9570512820517
 30
0.0
 40
2.5
  1
RAINFALL - THE TWO DOCUMENTS DISAGREE   [U] SG-V5
  7
OpenSans
 11
438.0
 21
239.9570512820517
 31
0.0
100
AcDbText
  0
TEXT
  5
1FA
330
17
100
AcDbEntity
  8
S-NOTE
100
AcDbText
 10
438.0
 20
235.63205128205172
 30
0.0
 40
2.2
  1
P1 deck slide 25, summed          759.6 mm  [C]
  7
OpenSans
 11
438.0
 21
235.63205128205172
 31
0.0
100
AcDbText
  0
TEXT
  5
1FB
330
17
100
AcDbEntity
  8
S-NOTE
100
AcDbText
 10
438.0
 20
231.33717948717992
 30
0.0
 40
2.2
  1
SEMT/67/15 para 9               500 to 600 mm  [C]
  7
OpenSans
 11
438.0
 21
231.33717948717992
 31
0.0
100
AcDbText
  0
TEXT
  5
1FC
330
17
100
AcDbEntity
  8
S-NOTE
100
AcDbText
 10
438.0
 20
227.04230769230813
 30
0.0
 40
2.2
  1
DIFFERENCE                      +27% to +52%
  7
OpenSans
 11
438.0
 21
227.04230769230813
 31
0.0
100
AcDbText
  0
TEXT
  5
1FD
330
17
100
AcDbEntity
  8
S-NOTE
100
AcDbText
 10
438.0
 20
222.74743589743633
 30
0.0
 40
2.2
  1
Neither names a station, a period of record or a source.
  7
OpenSans
 11
438.0
 21
222.74743589743633
 31
0.0
100
AcDbText
  0
TEXT
  5
1FE
330
17
100
AcDbEntity
  8
S-NOTE
100
AcDbText
 10
438.0
 20
218.45256410256454
 30
0.0
 40
2.2
  1
NO THIRD FIGURE IS ADOPTED HERE - published tertiary figures
  7
OpenSans
 11
438.0
 21
218.45256410256454
 31
0.0
100
AcDbText
  0
TEXT
  5
1FF
330
17
100
AcDbEntity
  8
S-NOTE
100
AcDbText
 10
438.0
 20
214.15769230769274
 30
0.0
 40
2.2
  1
for 'Pune' themselves span 720 to over 1000 mm.
  7
OpenSans
 11
438.0
 21
214.15769230769274
 31
0.0
100
AcDbText
  0
TEXT
  5
200
330
17
100
AcDbEntity
  8
S-NOTE
100
AcDbText
 10
438.0
 20
205.56794871794915
 30
0.0
 40
2.2
  1
OCTOBER IS THE OUTLIER.  139.8 mm is 1.04 x September and above
  7
OpenSans
 11
438.0
 21
205.56794871794915
 31
0.0
100
AcDbText
  0
TEXT
  5
201
330
17
100
AcDbEntity
  8
S-NOTE
100
AcDbText
 10
438.0
 20
201.27307692307735
 30
0.0
 40
2.2
  1
August, in a month when the SW monsoon has withdrawn from
  7
OpenSans
 11
438.0
 21
201.27307692307735
 31
0.0
100
AcDbText
  0
TEXT
  5
202
330
17
100
AcDbEntity
  8
S-NOTE
100
AcDbText
 10
438.0
 20
196.97820512820556
 30
0.0
 40
2.2
  1
interior Maharashtra.  IT IS NOT CORRECTED HERE - correcting a
  7
OpenSans
 11
438.0
 21
196.97820512820556
 31
0.0
100
AcDbText
  0
TEXT
  5
203
330
17
100
AcDbEntity
  8
S-NOTE
100
AcDbText
 10
438.0
 20
192.68333333333376
 30
0.0
 40
2.2
  1
datum whose source is unknown would be inventing evidence.
  7
OpenSans
 11
438.0
 21
192.68333333333376
 31
0.0
100
AcDbText
  0
TEXT
  5
204
330
17
100
AcDbEntity
  8
S-NOTE
100
AcDbText
 10
438.0
 20
184.09358974359017
 30
0.0
 40
2.2
  1
NOTHING IN THE DESIGN USES THE ANNUAL TOTAL.  The only
  7
OpenSans
 11
438.0
 21
184.09358974359017
 31
0.0
100
AcDbText
  0
TEXT
  5
205
330
17
100
AcDbEntity
  8
S-NOTE
100
AcDbText
 10
438.0
 20
179.79871794871838
 30
0.0
 40
2.2
  1
intensity in the project is 50 mm/h, Rev F drawing 5 note 1,
  7
OpenSans
 11
438.0
 21
179.79871794871838
 31
0.0
100
AcDbText
  0
TEXT
  5
206
330
17
100
AcDbEntity
  8
S-NOTE
100
AcDbText
 10
438.0
 20
175.50384615384658
 30
0.0
 40
2.2
  1
with no return period, duration or IDF source - DR-D1, NOT
  7
OpenSans
 11
438.0
 21
175.50384615384658
 31
0.0
100
AcDbText
  0
TEXT
  5
207
330
17
100
AcDbEntity
  8
S-NOTE
100
AcDbText
 10
438.0
 20
171.20897435897479
 30
0.0
 40
2.2
  1
closed here.  The one place rainfall bites is the PROGRAMME.
  7
OpenSans
 11
438.0
 21
171.20897435897479
 31
0.0
100
AcDbText
  0
LWPOLYLINE
  5
208
330
17
100
AcDbEntity
  8
S-TITLE
100
AcDbPolyline
 90
4
 70
1
 10
436.0
 20
164.914102564103
 10
604.0
 20
164.914102564103
 10
604.0
 20
244.4570512820517
 10
436.0
 20
244.4570512820517
  0
TEXT
  5
209
330
17
100
AcDbEntity
  8
S-TITLE
100
AcDbText
 10
438.0
 20
154.414102564103
 30
0.0
 40
2.5
  1
WIND - A WARNING, BECAUSE THIS INVITES A WRONG CORRECTION
  7
OpenSans
 11
438.0
 21
154.414102564103
 31
0.0
100
AcDbText
  0
TEXT
  5
20A
330
17
100
AcDbEntity
  8
S-NOTE
100
AcDbText
 10
438.0
 20
150.089102564103
 30
0.0
 40
2.2
  1
Deck slide 24 windiest month   JUN 6.6 km/h = 1.83 m/s
  7
OpenSans
 11
438.0
 21
150.089102564103
 31
0.0
100
AcDbText
  0
TEXT
  5
20B
330
17
100
AcDbEntity
  8
S-NOTE
100
AcDbText
 10
438.0
 20
145.7942307692312
 30
0.0
 40
2.2
  1
Master A.7.8 basic wind speed          39 m/s
  7
OpenSans
 11
438.0
 21
145.7942307692312
 31
0.0
100
AcDbText
  0
TEXT
  5
20C
330
17
100
AcDbEntity
  8
S-NOTE
100
AcDbText
 10
438.0
 20
141.4993589743594
 30
0.0
 40
2.2
  1
THESE ARE NOT THE SAME QUANTITY AND THE RATIO IS NOT AN ERROR.
  7
OpenSans
 11
438.0
 21
141.4993589743594
 31
0.0
100
AcDbText
  0
TEXT
  5
20D
330
17
100
AcDbEntity
  8
S-NOTE
100
AcDbText
 10
438.0
 20
137.20448717948761
 30
0.0
 40
2.2
  1
The deck plots a MONTHLY MEAN.  IS 875 (Pt 3):2015 V_b is a
  7
OpenSans
 11
438.0
 21
137.20448717948761
 31
0.0
100
AcDbText
  0
TEXT
  5
20E
330
17
100
AcDbEntity
  8
S-NOTE
100
AcDbText
 10
438.0
 20
132.90961538461582
 30
0.0
 40
2.2
  1
3-SECOND GUST at 10 m with a 50-year return period.
  7
OpenSans
 11
438.0
 21
132.90961538461582
 31
0.0
100
AcDbText
  0
TEXT
  5
20F
330
17
100
AcDbEntity
  8
S-NOTE
100
AcDbText
 10
438.0
 20
128.61474358974402
 30
0.0
 40
2.2
  1
*** A.7.8 IS NOT TO BE REDUCED ON THE STRENGTH OF SLIDE 24 ***
  7
OpenSans
 11
438.0
 21
128.61474358974402
 31
0.0
100
AcDbText
  0
TEXT
  5
210
330
17
100
AcDbEntity
  8
S-NOTE
100
AcDbText
 10
438.0
 20
124.31987179487223
 30
0.0
 40
2.2
  1
and seismic governs the sentry post 2.4:1 in any case.
  7
OpenSans
 11
438.0
 21
124.31987179487223
 31
0.0
100
AcDbText
  0
LWPOLYLINE
  5
211
330
17
100
AcDbEntity
  8
S-TITLE
100
AcDbPolyline
 90
4
 70
1
 10
436.0
 20
118.02500000000043
 10
604.0
 20
118.02500000000043
 10
604.0
 20
158.914102564103
 10
436.0
 20
158.914102564103
  0
TEXT
  5
212
330
17
100
AcDbEntity
  8
S-TITLE
100
AcDbText
 10
16.0
 20
325.5
 30
0.0
 40
2.5
  1
EVIDENCE CLASS - APPLIED TO EVERY VALUE ON THIS SHEET
  7
OpenSans
 11
16.0
 21
325.5
 31
0.0
100
AcDbText
  0
TEXT
  5
213
330
17
100
AcDbEntity
  8
S-NOTE
100
AcDbText
 10
16.0
 20
321.375
 30
0.0
 40
2.0
  1
[C] CONFIRMED      traceable to the master, to a Rev F drawing, to sheet S-06, or read verbatim off one of the two supplied documents
  7
OpenSans
 11
16.0
 21
321.375
 31
0.0
100
AcDbText
  0
TEXT
  5
214
330
17
100
AcDbEntity
  8
S-NOTE
100
AcDbText
 10
16.0
 20
317.975
 30
0.0
 40
2.0
  1
[R] RECONSTRUCTED  computed here from confirmed values; the arithmetic is shown in full
  7
OpenSans
 11
16.0
 21
317.975
 31
0.0
100
AcDbText
  0
TEXT
  5
215
330
17
100
AcDbEntity
  8
S-NOTE
100
AcDbText
 10
16.0
 20
314.57500000000005
 30
0.0
 40
2.0
  1
[D] DERIVED        an engineering result computed by THIS package
  7
OpenSans
 11
16.0
 21
314.57500000000005
 31
0.0
100
AcDbText
  0
TEXT
  5
216
330
17
100
AcDbEntity
  8
S-NOTE
100
AcDbText
 10
16.0
 20
311.17500000000007
 30
0.0
 40
2.0
  1
[A] ASSUMED        an engineering selection made by THIS package - confirm before construction
  7
OpenSans
 11
16.0
 21
311.17500000000007
 31
0.0
100
AcDbText
  0
TEXT
  5
217
330
17
100
AcDbEntity
  8
S-NOTE
100
AcDbText
 10
16.0
 20
307.7750000000001
 30
0.0
 40
2.0
  1
[U] UNRESOLVED     the two documents disagree, or they disagree with the master
  7
OpenSans
 11
16.0
 21
307.7750000000001
 31
0.0
100
AcDbText
  0
TEXT
  5
218
330
17
100
AcDbEntity
  8
S-NOTE
100
AcDbText
 10
16.0
 20
304.3750000000001
 30
0.0
 40
2.0
  1
[N] NOT AVAILABLE  no source exists anywhere in the project - DATA REQUIRED
  7
OpenSans
 11
16.0
 21
304.3750000000001
 31
0.0
100
AcDbText
  0
LWPOLYLINE
  5
219
330
17
100
AcDbEntity
  8
S-TITLE
100
AcDbPolyline
 90
4
 70
1
 10
14.0
 20
298.97500000000014
 10
414.0
 20
298.97500000000014
 10
414.0
 20
330.0
 10
14.0
 20
330.0
  0
TEXT
  5
21A
330
17
100
AcDbEntity
  8
S-TITLE
100
AcDbText
 10
16.0
 20
283.5
 30
0.0
 40
2.5
  1
WHAT THE SELECTION DID NOT CONSIDER, AND WHAT IT COSTS
  7
OpenSans
 11
16.0
 21
283.5
 31
0.0
100
AcDbText
  0
TEXT
  5
21B
330
17
100
AcDbEntity
  8
S-NOTE
100
AcDbText
 10
16.0
 20
279.375
 30
0.0
 40
2.0
  1
GROUND CONDITIONS ON THE PLOT ITSELF.  The selection rests on a soil report for three OTHER buildings.
  7
OpenSans
 11
16.0
 21
279.375
 31
0.0
100
AcDbText
  0
TEXT
  5
21C
330
17
100
AcDbEntity
  8
S-NOTE
100
AcDbText
 10
16.0
 20
275.775
 30
0.0
 40
2.0
  1
   The confirmatory site investigation A1075 must be located ON THIS PLOT, not repeated from it.      SG-V1
  7
OpenSans
 11
16.0
 21
275.775
 31
0.0
100
AcDbText
  0
TEXT
  5
21D
330
17
100
AcDbEntity
  8
S-NOTE
100
AcDbText
 10
16.0
 20
272.17499999999995
 30
0.0
 40
2.0
  1
DEPTH OF INVESTIGATION.  Nothing is known below about 1.5 m; the structure founds at (-)6.800.       SG-V2
  7
OpenSans
 11
16.0
 21
272.17499999999995
 31
0.0
100
AcDbText
  0
TEXT
  5
21E
330
17
100
AcDbEntity
  8
S-NOTE
100
AcDbText
 10
16.0
 20
268.57499999999993
 30
0.0
 40
2.0
  1
GROUND SLOPE.  The plot is the EDGE OF A SLOPE falling east.  A 22 m box on a level formation under a
  7
OpenSans
 11
16.0
 21
268.57499999999993
 31
0.0
100
AcDbText
  0
TEXT
  5
21F
330
17
100
AcDbEntity
  8
S-NOTE
100
AcDbText
 10
16.0
 20
264.9749999999999
 30
0.0
 40
2.0
  1
   crowned grade needs CUT AND FILL, and no cut-and-fill item exists in the BOQ, because D3 does.      SG-V4
  7
OpenSans
 11
16.0
 21
264.9749999999999
 31
0.0
100
AcDbText
  0
TEXT
  5
220
330
17
100
AcDbEntity
  8
S-NOTE
100
AcDbText
 10
16.0
 20
261.3749999999999
 30
0.0
 40
2.0
  1
'LOCATED NEAR PERIMETER FENCE', the single recorded weakness, is also a CONCEALMENT weakness - and
  7
OpenSans
 11
16.0
 21
261.3749999999999
 31
0.0
100
AcDbText
  0
TEXT
  5
221
330
17
100
AcDbEntity
  8
S-NOTE
100
AcDbText
 10
16.0
 20
257.77499999999986
 30
0.0
 40
2.0
  1
   CAM2, whose finding is that THE SHELTER IS CONCEALED BUT THE INSTALLATION IS NOT, could not draw a
  7
OpenSans
 11
16.0
 21
257.77499999999986
 31
0.0
100
AcDbText
  0
TEXT
  5
222
330
17
100
AcDbEntity
  8
S-NOTE
100
AcDbText
 10
16.0
 20
254.17499999999987
 30
0.0
 40
2.0
  1
   concealment layout for exactly this reason.  The sentry post stands at +7.000 and the headhouse at
  7
OpenSans
 11
16.0
 21
254.17499999999987
 31
0.0
100
AcDbText
  0
TEXT
  5
223
330
17
100
AcDbEntity
  8
S-NOTE
100
AcDbText
 10
16.0
 20
250.57499999999987
 30
0.0
 40
2.0
  1
   +0.900 with no earth cover; how visible they are from the fence is a function of a distance nobody
  7
OpenSans
 11
16.0
 21
250.57499999999987
 31
0.0
100
AcDbText
  0
TEXT
  5
224
330
17
100
AcDbEntity
  8
S-NOTE
100
AcDbText
 10
16.0
 20
246.97499999999988
 30
0.0
 40
2.0
  1
   has recorded anywhere.                                        CAM-V2 / D3
  7
OpenSans
 11
16.0
 21
246.97499999999988
 31
0.0
100
AcDbText
  0
LWPOLYLINE
  5
225
330
17
100
AcDbEntity
  8
S-TITLE
100
AcDbPolyline
 90
4
 70
1
 10
14.0
 20
241.3749999999999
 10
414.0
 20
241.3749999999999
 10
414.0
 20
288.0
 10
14.0
 20
288.0
  0
LWPOLYLINE
  5
226
330
17
100
AcDbEntity
  8
G-FLAGG
100
AcDbPolyline
 90
4
 70
1
 10
14.0
 20
128.0
 10
414.0
 20
128.0
 10
414.0
 20
196.0
 10
14.0
 20
196.0
  0
TEXT
  5
227
330
17
100
AcDbEntity
  8
G-FLAGG
100
AcDbText
 10
214.0
 20
186.0
 30
0.0
 40
2.6
  1
SG-F7   THE MONSOON GROUNDWATER MONITORING IS PROGRAMMED OUTSIDE THE MONSOON
  7
OpenSans
 72
1
 11
214.0
 21
186.0
 31
0.0
100
AcDbText
 73
2
  0
TEXT
  5
228
330
17
100
AcDbEntity
  8
M-TEXT
100
AcDbText
 10
22.0
 20
176.0
 30
0.0
 40
2.1
  1
WBS A1080  'Monsoon groundwater monitoring - confirm the design GWT (-)2.000'
  7
OpenSans
 11
22.0
 21
176.0
 31
0.0
100
AcDbText
  0
TEXT
  5
229
330
17
100
AcDbEntity
  8
M-TEXT
100
AcDbText
 10
22.0
 20
170.0
 30
0.0
 40
2.1
  1
           20 days,  12-11-26 to 04-12-26,  TOTAL FLOAT 0,  'the single most important
  7
OpenSans
 11
22.0
 21
170.0
 31
0.0
100
AcDbText
  0
TEXT
  5
22A
330
17
100
AcDbEntity
  8
M-TEXT
100
AcDbText
 10
22.0
 20
164.0
 30
0.0
 40
2.1
  1
           assumption in the project'
  7
OpenSans
 11
22.0
 21
164.0
 31
0.0
100
AcDbText
  0
TEXT
  5
22B
330
17
100
AcDbEntity
  8
M-TEXT
100
AcDbText
 10
22.0
 20
155.0
 30
0.0
 40
2.1
  1
On the deck's own table June to September carry 559.7 mm (74% of the year);
  7
OpenSans
 11
22.0
 21
155.0
 31
0.0
100
AcDbText
  0
TEXT
  5
22C
330
17
100
AcDbEntity
  8
M-TEXT
100
AcDbText
 10
22.0
 20
149.0
 30
0.0
 40
2.1
  1
November and December carry 28.6 mm BETWEEN THEM.  A 12 Nov to 4 Dec window measures the
  7
OpenSans
 11
22.0
 21
149.0
 31
0.0
100
AcDbText
  0
TEXT
  5
22D
330
17
100
AcDbEntity
  8
M-TEXT
100
AcDbText
 10
22.0
 20
143.0
 30
0.0
 40
2.1
  1
RECESSION, NOT THE PEAK - and the peak is exactly what K.2 A2 asks for.
  7
OpenSans
 11
22.0
 21
143.0
 31
0.0
100
AcDbText
  0
TEXT
  5
22E
330
17
100
AcDbEntity
  8
M-FLAG
100
AcDbText
 10
22.0
 20
136.0
 30
0.0
 40
2.1
  1
What closes A2 is a STANDPIPE PIEZOMETER in the A1075 borehole, read through a FULL
  7
OpenSans
 11
22.0
 21
136.0
 31
0.0
100
AcDbText
  0
TEXT
  5
22F
330
17
100
AcDbEntity
  8
M-FLAG
100
AcDbText
 10
22.0
 20
130.0
 30
0.0
 40
2.1
  1
MONSOON.  NO PROGRAMME DATE IS CHANGED HERE - A1080 is on the critical path.  SG-V3
  7
OpenSans
 11
22.0
 21
130.0
 31
0.0
100
AcDbText
  0
TEXT
  5
230
330
17
100
AcDbEntity
  8
M-TITLE
100
AcDbText
 10
12.0
 20
576.5
 30
0.0
 40
5.0
  1
SITE SELECTION AND GEOTECHNICAL PACKAGE
  7
OpenSans
 11
12.0
 21
576.5
 31
0.0
100
AcDbText
  0
TEXT
  5
231
330
17
100
AcDbEntity
  8
M-TITLE
100
AcDbText
 10
12.0
 20
569.5
 30
0.0
 40
2.4
  1
SG-101   SITE SETTING, SELECTION AND METEOROLOGY
  7
OpenSans
 11
12.0
 21
569.5
 31
0.0
100
AcDbText
  0
LINE
  5
232
330
17
100
AcDbEntity
  8
M-TITLE
100
AcDbLine
 10
10.0
 20
566.5
 30
0.0
 11
831.0
 21
566.5
 31
0.0
  0
TEXT
  5
233
330
17
100
AcDbEntity
  8
M-FLAG
100
AcDbText
 10
829.0
 20
577.0
 30
0.0
 40
2.0
  1
SENTRY POST INCLUDED - GROUND ONLY, NO STRUCTURAL VALUE
  7
OpenSans
 72
2
 11
829.0
 21
577.0
 31
0.0
100
AcDbText
  0
TEXT
  5
234
330
17
100
AcDbEntity
  8
M-FLAG
100
AcDbText
 10
829.0
 20
570.5
 30
0.0
 40
1.4
  1
THIS PACKAGE RESOLVES NOTHING - IT RECORDS PROVENANCE AND QUANTIFIES MARGIN
  7
OpenSans
 72
2
 11
829.0
 21
570.5
 31
0.0
100
AcDbText
  0
TEXT
  5
235
330
17
100
AcDbEntity
  8
M-FLAG
100
AcDbText
 10
12.0
 20
561.5
 30
0.0
 40
1.4
  1
OPEN ITEMS ON THIS SHEET:  D3   SG-V1   SG-V4   SG-V5   SG-V9   CAM-V2
  7
OpenSans
 11
12.0
 21
561.5
 31
0.0
100
AcDbText
  0
LWPOLYLINE
  5
236
330
17
100
AcDbEntity
  8
M-TITLE
100
AcDbPolyline
 90
4
 70
1
 10
651.0
 20
10.0
 10
831.0
 20
10.0
 10
831.0
 20
110.0
 10
651.0
 20
110.0
  0
LINE
  5
237
330
17
100
AcDbEntity
  8
M-TITLE
100
AcDbLine
 10
651.0
 20
30.0
 30
0.0
 11
831.0
 21
30.0
 31
0.0
  0
LINE
  5
238
330
17
100
AcDbEntity
  8
M-TITLE
100
AcDbLine
 10
651.0
 20
42.0
 30
0.0
 11
831.0
 21
42.0
 31
0.0
  0
LINE
  5
239
330
17
100
AcDbEntity
  8
M-TITLE
100
AcDbLine
 10
651.0
 20
54.0
 30
0.0
 11
831.0
 21
54.0
 31
0.0
  0
LINE
  5
23A
330
17
100
AcDbEntity
  8
M-TITLE
100
AcDbLine
 10
651.0
 20
66.0
 30
0.0
 11
831.0
 21
66.0
 31
0.0
  0
LINE
  5
23B
330
17
100
AcDbEntity
  8
M-TITLE
100
AcDbLine
 10
651.0
 20
88.0
 30
0.0
 11
831.0
 21
88.0
 31
0.0
  0
LINE
  5
23C
330
17
100
AcDbEntity
  8
M-TITLE
100
AcDbLine
 10
763.0
 20
10.0
 30
0.0
 11
763.0
 21
30.0
 31
0.0
  0
LINE
  5
23D
330
17
100
AcDbEntity
  8
M-TITLE
100
AcDbLine
 10
797.0
 20
10.0
 30
0.0
 11
797.0
 21
30.0
 31
0.0
  0
TEXT
  5
23E
330
17
100
AcDbEntity
  8
M-TITLE
100
AcDbText
 10
653.0
 20
24.6
 30
0.0
 40
1.4
  1
DRAWING No.
  7
OpenSans
 11
653.0
 21
24.6
 31
0.0
100
AcDbText
  0
TEXT
  5
23F
330
17
100
AcDbEntity
  8
M-TITLE
100
AcDbText
 10
671.0
 20
14.2
 30
0.0
 40
3.5
  1
SG-101
  7
OpenSans
 11
671.0
 21
14.2
 31
0.0
100
AcDbText
  0
TEXT
  5
240
330
17
100
AcDbEntity
  8
M-TITLE
100
AcDbText
 10
765.0
 20
24.6
 30
0.0
 40
1.4
  1
REV
  7
OpenSans
 11
765.0
 21
24.6
 31
0.0
100
AcDbText
  0
TEXT
  5
241
330
17
100
AcDbEntity
  8
M-TITLE
100
AcDbText
 10
769.0
 20
14.2
 30
0.0
 40
3.5
  1
SG1
  7
OpenSans
 11
769.0
 21
14.2
 31
0.0
100
AcDbText
  0
TEXT
  5
242
330
17
100
AcDbEntity
  8
M-TITLE
100
AcDbText
 10
799.0
 20
24.6
 30
0.0
 40
1.4
  1
SHEET
  7
OpenSans
 11
799.0
 21
24.6
 31
0.0
100
AcDbText
  0
TEXT
  5
243
330
17
100
AcDbEntity
  8
M-TITLE
100
AcDbText
 10
799.0
 20
15.0
 30
0.0
 40
1.6
  1
2 OF 3
  7
OpenSans
 11
799.0
 21
15.0
 31
0.0
100
AcDbText
  0
LINE
  5
244
330
17
100
AcDbEntity
  8
M-TITLE
100
AcDbLine
 10
747.0
 20
30.0
 30
0.0
 11
747.0
 21
42.0
 31
0.0
  0
TEXT
  5
245
330
17
100
AcDbEntity
  8
M-TITLE
100
AcDbText
 10
653.0
 20
34.4
 30
0.0
 40
1.6
  1
SCALE   NOT TO SCALE
  7
OpenSans
 11
653.0
 21
34.4
 31
0.0
100
AcDbText
  0
TEXT
  5
246
330
17
100
AcDbEntity
  8
M-TITLE
100
AcDbText
 10
749.0
 20
34.4
 30
0.0
 40
1.6
  1
DATE   11.09.2026
  7
OpenSans
 11
749.0
 21
34.4
 31
0.0
100
AcDbText
  0
TEXT
  5
247
330
17
100
AcDbEntity
  8
M-TITLE
100
AcDbText
 10
653.0
 20
46.4
 30
0.0
 40
1.4
  1
DESIGNED  [PLACEHOLDER]
  7
OpenSans
 11
653.0
 21
46.4
 31
0.0
100
AcDbText
  0
TEXT
  5
248
330
17
100
AcDbEntity
  8
M-TITLE
100
AcDbText
 10
713.0
 20
46.4
 30
0.0
 40
1.4
  1
CHECKED  [PLACEHOLDER]
  7
OpenSans
 11
713.0
 21
46.4
 31
0.0
100
AcDbText
  0
TEXT
  5
249
330
17
100
AcDbEntity
  8
M-TITLE
100
AcDbText
 10
773.0
 20
46.4
 30
0.0
 40
1.4
  1
APPROVED  [PLACEHOLDER]
  7
OpenSans
 11
773.0
 21
46.4
 31
0.0
100
AcDbText
  0
TEXT
  5
24A
330
17
100
AcDbEntity
  8
M-TITLE
100
AcDbText
 10
653.0
 20
58.4
 30
0.0
 40
1.4
  1
STATUS
  7
OpenSans
 11
653.0
 21
58.4
 31
0.0
100
AcDbText
  0
TEXT
  5
24B
330
17
100
AcDbEntity
  8
M-FLAG
100
AcDbText
 10
673.0
 20
58.0
 30
0.0
 40
1.6
  1
FOR REVIEW - NOT FOR CONSTRUCTION
  7
OpenSans
 11
673.0
 21
58.0
 31
0.0
100
AcDbText
  0
TEXT
  5
24C
330
17
100
AcDbEntity
  8
M-TITLE
100
AcDbText
 10
653.0
 20
83.4
 30
0.0
 40
1.4
  1
DRAWING TITLE
  7
OpenSans
 11
653.0
 21
83.4
 31
0.0
100
AcDbText
  0
TEXT
  5
24D
330
17
100
AcDbEntity
  8
M-TITLE
100
AcDbText
 10
653.0
 20
75.4
 30
0.0
 40
2.4
  1
SITE SETTING, SELECTION AND METEOROLOGY
  7
OpenSans
 11
653.0
 21
75.4
 31
0.0
100
AcDbText
  0
TEXT
  5
24E
330
17
100
AcDbEntity
  8
M-TITLE
100
AcDbText
 10
653.0
 20
68.8
 30
0.0
 40
1.4
  1
A DIAGRAM OF THE SETTING - NOT A SITE PLAN, AND NOT CAPABLE OF BECOMING ON
  7
OpenSans
 11
653.0
 21
68.8
 31
0.0
100
AcDbText
  0
TEXT
  5
24F
330
17
100
AcDbEntity
  8
M-TITLE
100
AcDbText
 10
653.0
 20
105.2
 30
0.0
 40
1.4
  1
PROJECT
  7
OpenSans
 11
653.0
 21
105.2
 31
0.0
100
AcDbText
  0
TEXT
  5
250
330
17
100
AcDbEntity
  8
M-TITLE
100
AcDbText
 10
653.0
 20
99.6
 30
0.0
 40
1.6
  1
UNDERGROUND CBRN-HARDENED BLAST-RESISTANT
  7
OpenSans
 11
653.0
 21
99.6
 31
0.0
100
AcDbText
  0
TEXT
  5
251
330
17
100
AcDbEntity
  8
M-TITLE
100
AcDbText
 10
653.0
 20
95.0
 30
0.0
 40
1.6
  1
PROTECTIVE STRUCTURE  -  PUNE, MAHARASHTRA
  7
OpenSans
 11
653.0
 21
95.0
 31
0.0
100
AcDbText
  0
TEXT
  5
252
330
17
100
AcDbEntity
  8
M-TITLE
100
AcDbText
 10
653.0
 20
90.0
 30
0.0
 40
1.4
  1
GEOMETRY REV F + M1   -   SITE AND GEOTECHNICAL SG1  -  GROUND ONLY
  7
OpenSans
 11
653.0
 21
90.0
 31
0.0
100
AcDbText
  0
ENDSEC
  0
SECTION
  2
OBJECTS
  0
DICTIONARY
  5
A
330
0
100
AcDbDictionary
281
1
  3
ACAD_COLOR
350
B
  3
ACAD_GROUP
350
C
  3
ACAD_LAYOUT
350
D
  3
ACAD_MATERIAL
350
E
  3
ACAD_MLEADERSTYLE
350
F
  3
ACAD_MLINESTYLE
350
10
  3
ACAD_PLOTSETTINGS
350
11
  3
ACAD_PLOTSTYLENAME
350
12
  3
ACAD_SCALELIST
350
14
  3
ACAD_TABLESTYLE
350
15
  3
ACAD_VISUALSTYLE
350
16
  3
EZDXF_META
350
2D
  0
DICTIONARY
  5
B
330
A
100
AcDbDictionary
281
1
  0
DICTIONARY
  5
C
330
A
100
AcDbDictionary
281
1
  0
DICTIONARY
  5
D
330
A
100
AcDbDictionary
281
1
  3
Model
350
1A
  3
Layout1
350
1E
  0
DICTIONARY
  5
E
330
A
100
AcDbDictionary
281
1
  3
ByBlock
350
1F
  3
ByLayer
350
20
  3
Global
350
21
  0
DICTIONARY
  5
F
330
A
100
AcDbDictionary
281
1
  3
Standard
350
2C
  0
DICTIONARY
  5
10
330
A
100
AcDbDictionary
281
1
  3
Standard
350
22
  0
DICTIONARY
  5
11
330
A
100
AcDbDictionary
281
1
  0
ACDBDICTIONARYWDFLT
  5
12
330
A
100
AcDbDictionary
281
1
  3
Normal
350
13
100
AcDbDictionaryWithDefault
340
13
  0
ACDBPLACEHOLDER
  5
13
330
12
  0
DICTIONARY
  5
14
330
A
100
AcDbDictionary
281
1
  0
DICTIONARY
  5
15
330
A
100
AcDbDictionary
281
1
  0
DICTIONARY
  5
16
330
A
100
AcDbDictionary
281
1
  3
2dWireframe
350
5A
  3
Basic
350
5B
  3
Brighten
350
5C
  3
ColorChange
350
5D
  3
Conceptual
350
5E
  3
Dim
350
5F
  3
EdgeColorOff
350
60
  3
Facepattern
350
61
  3
Flat
350
62
  3
FlatWithEdges
350
63
  3
Gouraud
350
64
  3
GouraudWithEdges
350
65
  3
Hidden
350
66
  3
JitterOff
350
67
  3
Linepattern
350
68
  3
Modeling
350
69
  3
OverhangOff
350
6A
  3
Realistic
350
6B
  3
Shaded
350
6C
  3
Shaded with edges
350
6D
  3
Shades of Gray
350
6E
  3
Sketchy
350
6F
  3
Thicken
350
70
  3
Wireframe
350
71
  3
X-Ray
350
72
  0
LAYOUT
  5
1A
330
D
100
AcDbPlotSettings
  1

  4
A3
  6

 40
7.5
 41
20.0
 42
7.5
 43
20.0
 44
420.0
 45
297.0
 46
0.0
 47
0.0
 48
0.0
 49
0.0
140
0.0
141
0.0
142
1.0
143
1.0
 70
1024
 72
1
 73
0
 74
5
  7

 75
16
 76
0
 77
2
 78
300
147
1.0
148
0.0
149
0.0
100
AcDbLayout
  1
Model
 70
1
 71
0
 10
0.0
 20
0.0
 11
420.0
 21
297.0
 12
0.0
 22
0.0
 32
0.0
 14
1e+20
 24
1e+20
 34
1e+20
 15
-1e+20
 25
-1e+20
 35
-1e+20
146
0.0
 13
0.0
 23
0.0
 33
0.0
 16
1.0
 26
0.0
 36
0.0
 17
0.0
 27
1.0
 37
0.0
 76
1
330
17
  0
LAYOUT
  5
1E
330
D
100
AcDbPlotSettings
  1

  4
A3
  6

 40
7.5
 41
20.0
 42
7.5
 43
20.0
 44
420.0
 45
297.0
 46
0.0
 47
0.0
 48
0.0
 49
0.0
140
0.0
141
0.0
142
1.0
143
1.0
 70
0
 72
1
 73
0
 74
5
  7

 75
16
 76
0
 77
2
 78
300
147
1.0
148
0.0
149
0.0
100
AcDbLayout
  1
Layout1
 70
1
 71
1
 10
0.0
 20
0.0
 11
420.0
 21
297.0
 12
0.0
 22
0.0
 32
0.0
 14
1e+20
 24
1e+20
 34
1e+20
 15
-1e+20
 25
-1e+20
 35
-1e+20
146
0.0
 13
0.0
 23
0.0
 33
0.0
 16
1.0
 26
0.0
 36
0.0
 17
0.0
 27
1.0
 37
0.0
 76
1
330
1B
  0
MATERIAL
  5
1F
102
{ACAD_REACTORS
330
E
102
}
330
E
100
AcDbMaterial
  1
ByBlock
  2

 70
0
 40
1.0
 71
1
 41
1.0
 91
-1023410177
 42
1.0
 72
1
  3

 73
1
 74
1
 75
1
 44
0.5
 73
0
 45
1.0
 46
1.0
 77
1
  4

 78
1
 79
1
170
1
 48
1.0
171
1
  6

172
1
173
1
174
1
140
1.0
141
1.0
175
1
  7

176
1
177
1
178
1
143
1.0
179
1
  8

270
1
271
1
272
1
145
1.0
146
1.0
273
1
  9

274
1
275
1
276
1
 42
1.0
 72
1
  3

 73
1
 74
1
 75
1
 94
63
  0
MATERIAL
  5
20
102
{ACAD_REACTORS
330
E
102
}
330
E
100
AcDbMaterial
  1
ByLayer
  2

 70
0
 40
1.0
 71
1
 41
1.0
 91
-1023410177
 42
1.0
 72
1
  3

 73
1
 74
1
 75
1
 44
0.5
 73
0
 45
1.0
 46
1.0
 77
1
  4

 78
1
 79
1
170
1
 48
1.0
171
1
  6

172
1
173
1
174
1
140
1.0
141
1.0
175
1
  7

176
1
177
1
178
1
143
1.0
179
1
  8

270
1
271
1
272
1
145
1.0
146
1.0
273
1
  9

274
1
275
1
276
1
 42
1.0
 72
1
  3

 73
1
 74
1
 75
1
 94
63
  0
MATERIAL
  5
21
102
{ACAD_REACTORS
330
E
102
}
330
E
100
AcDbMaterial
  1
Global
  2

 70
0
 40
1.0
 71
1
 41
1.0
 91
-1023410177
 42
1.0
 72
1
  3

 73
1
 74
1
 75
1
 44
0.5
 73
0
 45
1.0
 46
1.0
 77
1
  4

 78
1
 79
1
170
1
 48
1.0
171
1
  6

172
1
173
1
174
1
140
1.0
141
1.0
175
1
  7

176
1
177
1
178
1
143
1.0
179
1
  8

270
1
271
1
272
1
145
1.0
146
1.0
273
1
  9

274
1
275
1
276
1
 42
1.0
 72
1
  3

 73
1
 74
1
 75
1
 94
63
  0
MLINESTYLE
  5
22
102
{ACAD_REACTORS
330
10
102
}
330
10
100
AcDbMlineStyle
  2
Standard
 70
0
  3

 62
256
 51
90.0
 52
90.0
 71
2
 49
0.5
 62
256
  6
BYLAYER
 49
-0.5
 62
256
  6
BYLAYER
  0
MLEADERSTYLE
  5
2C
102
{ACAD_REACTORS
330
F
102
}
330
F
100
AcDbMLeaderStyle
179
2
170
2
171
1
172
0
 90
2
 40
0.0
 41
0.0
173
1
 91
-1056964608
 92
-2
290
1
 42
2.0
291
1
 43
8.0
  3
Standard
 44
4.0
300

342
29
174
1
175
1
176
0
178
1
 93
-1056964608
 45
4.0
292
0
297
0
 46
4.0
 94
-1056964608
 47
1.0
 49
1.0
140
1.0
294
1
141
0.0
177
0
142
1.0
295
0
296
0
143
3.75
271
0
272
9
273
9
  0
DICTIONARY
  5
2D
330
A
100
AcDbDictionary
280
1
281
1
  3
CREATED_BY_EZDXF
350
2E
  3
WRITTEN_BY_EZDXF
350
255
  0
DICTIONARYVAR
  5
2E
330
2D
100
DictionaryVariables
280
0
  1
1.4.4 @ 2026-09-11T07:54:19.155727+00:00
  0
VISUALSTYLE
  5
5A
102
{ACAD_REACTORS
330
16
102
}
330
16
100
AcDbVisualStyle
  2
2dWireframe
 70
4
 90
0
 40
0.6
 62
7
290
0
291
0
  0
VISUALSTYLE
  5
5B
102
{ACAD_REACTORS
330
16
102
}
330
16
100
AcDbVisualStyle
  2
Basic
 70
7
 90
1
 40
0.6
 62
7
290
0
291
1
  0
VISUALSTYLE
  5
5C
102
{ACAD_REACTORS
330
16
102
}
330
16
100
AcDbVisualStyle
  2
Brighten
 70
12
 90
2
 40
0.6
 62
7
290
0
291
1
  0
VISUALSTYLE
  5
5D
102
{ACAD_REACTORS
330
16
102
}
330
16
100
AcDbVisualStyle
  2
ColorChange
 70
16
 90
2
 40
0.6
 62
8
290
0
291
1
  0
VISUALSTYLE
  5
5E
102
{ACAD_REACTORS
330
16
102
}
330
16
100
AcDbVisualStyle
  2
Conceptual
 70
9
 90
3
 40
0.6
 62
7
290
0
291
0
  0
VISUALSTYLE
  5
5F
102
{ACAD_REACTORS
330
16
102
}
330
16
100
AcDbVisualStyle
  2
Dim
 70
11
 90
2
 40
0.6
 62
7
290
0
291
1
  0
VISUALSTYLE
  5
60
102
{ACAD_REACTORS
330
16
102
}
330
16
100
AcDbVisualStyle
  2
EdgeColorOff
 70
22
 90
2
 40
0.6
 62
7
290
0
291
1
  0
VISUALSTYLE
  5
61
102
{ACAD_REACTORS
330
16
102
}
330
16
100
AcDbVisualStyle
  2
Facepattern
 70
15
 90
2
 40
0.6
 62
7
290
0
291
1
  0
VISUALSTYLE
  5
62
102
{ACAD_REACTORS
330
16
102
}
330
16
100
AcDbVisualStyle
  2
Flat
 70
0
 90
2
 40
0.6
 62
7
290
0
291
1
  0
VISUALSTYLE
  5
63
102
{ACAD_REACTORS
330
16
102
}
330
16
100
AcDbVisualStyle
  2
FlatWithEdges
 70
1
 90
2
 40
0.6
 62
7
290
0
291
1
  0
VISUALSTYLE
  5
64
102
{ACAD_REACTORS
330
16
102
}
330
16
100
AcDbVisualStyle
  2
Gouraud
 70
2
 90
2
 40
0.6
 62
7
290
0
291
1
  0
VISUALSTYLE
  5
65
102
{ACAD_REACTORS
330
16
102
}
330
16
100
AcDbVisualStyle
  2
GouraudWithEdges
 70
3
 90
2
 40
0.6
 62
7
290
0
291
1
  0
VISUALSTYLE
  5
66
102
{ACAD_REACTORS
330
16
102
}
330
16
100
AcDbVisualStyle
  2
Hidden
 70
6
 90
1
 40
0.6
 62
7
290
0
291
0
  0
VISUALSTYLE
  5
67
102
{ACAD_REACTORS
330
16
102
}
330
16
100
AcDbVisualStyle
  2
JitterOff
 70
20
 90
2
 40
0.6
 62
7
290
0
291
1
  0
VISUALSTYLE
  5
68
102
{ACAD_REACTORS
330
16
102
}
330
16
100
AcDbVisualStyle
  2
Linepattern
 70
14
 90
2
 40
0.6
 62
7
290
0
291
1
  0
VISUALSTYLE
  5
69
102
{ACAD_REACTORS
330
16
102
}
330
16
100
AcDbVisualStyle
  2
Modeling
 70
10
 90
2
 40
0.6
 62
7
290
0
291
0
  0
VISUALSTYLE
  5
6A
102
{ACAD_REACTORS
330
16
102
}
330
16
100
AcDbVisualStyle
  2
OverhangOff
 70
21
 90
2
 40
0.6
 62
7
290
0
291
1
  0
VISUALSTYLE
  5
6B
102
{ACAD_REACTORS
330
16
102
}
330
16
100
AcDbVisualStyle
  2
Realistic
 70
8
 90
2
 40
0.6
 62
7
290
0
291
0
  0
VISUALSTYLE
  5
6C
102
{ACAD_REACTORS
330
16
102
}
330
16
100
AcDbVisualStyle
  2
Shaded
 70
27
 90
2
 40
0.6
 62
7
290
0
291
0
  0
VISUALSTYLE
  5
6D
102
{ACAD_REACTORS
330
16
102
}
330
16
100
AcDbVisualStyle
  2
Shaded with edges
 70
26
 90
2
 40
0.6
 62
7
290
0
291
0
  0
VISUALSTYLE
  5
6E
102
{ACAD_REACTORS
330
16
102
}
330
16
100
AcDbVisualStyle
  2
Shades of Gray
 70
23
 90
2
 40
0.6
 62
7
290
0
291
0
  0
VISUALSTYLE
  5
6F
102
{ACAD_REACTORS
330
16
102
}
330
16
100
AcDbVisualStyle
  2
Sketchy
 70
24
 90
1
 40
0.6
 62
7
290
0
291
0
  0
VISUALSTYLE
  5
70
102
{ACAD_REACTORS
330
16
102
}
330
16
100
AcDbVisualStyle
  2
Thicken
 70
13
 90
2
 40
0.6
 62
7
290
0
291
1
  0
VISUALSTYLE
  5
71
102
{ACAD_REACTORS
330
16
102
}
330
16
100
AcDbVisualStyle
  2
Wireframe
 70
5
 90
0
 40
0.6
 62
7
290
0
291
0
  0
VISUALSTYLE
  5
72
102
{ACAD_REACTORS
330
16
102
}
330
16
100
AcDbVisualStyle
  2
X-Ray
 70
25
 90
2
 40
0.5
 62
7
290
0
291
0
  0
DICTIONARYVAR
  5
255
330
2D
100
DictionaryVariables
280
0
  1
1.4.4 @ 2026-09-11T07:54:19.173161+00:00
  0
ENDSEC
  0
EOF
