  0
SECTION
  2
HEADER
  9
$ACADVER
  1
AC1024
  9
$ACADMAINTVER
 70
6
  9
$DWGCODEPAGE
  3
ANSI_1252
  9
$LASTSAVEDBY
  1
ezdxf
  9
$INSBASE
 10
0.0
 20
0.0
 30
0.0
  9
$EXTMIN
 10
1e+20
 20
1e+20
 30
1e+20
  9
$EXTMAX
 10
-1e+20
 20
-1e+20
 30
-1e+20
  9
$LIMMIN
 10
0.0
 20
0.0
  9
$LIMMAX
 10
420.0
 20
297.0
  9
$ORTHOMODE
 70
0
  9
$REGENMODE
 70
1
  9
$FILLMODE
 70
1
  9
$QTEXTMODE
 70
0
  9
$MIRRTEXT
 70
1
  9
$LTSCALE
 40
1.0
  9
$ATTMODE
 70
1
  9
$TEXTSIZE
 40
2.5
  9
$TRACEWID
 40
1.0
  9
$TEXTSTYLE
  7
OpenSans
  9
$CLAYER
  8
0
  9
$CELTYPE
  6
ByLayer
  9
$CECOLOR
 62
256
  9
$CELTSCALE
 40
1.0
  9
$DISPSILH
 70
0
  9
$DIMSCALE
 40
1.0
  9
$DIMASZ
 40
0.175
  9
$DIMEXO
 40
0.125
  9
$DIMDLI
 40
3.75
  9
$DIMRND
 40
0.0
  9
$DIMDLE
 40
0.0
  9
$DIMEXE
 40
0.375
  9
$DIMTP
 40
0.0
  9
$DIMTM
 40
0.0
  9
$DIMTXT
 40
0.25
  9
$DIMCEN
 40
2.5
  9
$DIMTSZ
 40
0.0
  9
$DIMTOL
 70
0
  9
$DIMLIM
 70
0
  9
$DIMTIH
 70
0
  9
$DIMTOH
 70
0
  9
$DIMSE1
 70
0
  9
$DIMSE2
 70
0
  9
$DIMTAD
 70
1
  9
$DIMZIN
 70
12
  9
$DIMBLK
  1
ARCHTICK
  9
$DIMASO
 70
1
  9
$DIMSHO
 70
1
  9
$DIMPOST
  1

  9
$DIMAPOST
  1

  9
$DIMALT
 70
0
  9
$DIMALTD
 70
3
  9
$DIMALTF
 40
0.03937007874
  9
$DIMLFAC
 40
100.0
  9
$DIMTOFL
 70
1
  9
$DIMTVP
 40
0.0
  9
$DIMTIX
 70
0
  9
$DIMSOXD
 70
0
  9
$DIMSAH
 70
0
  9
$DIMBLK1
  1

  9
$DIMBLK2
  1

  9
$DIMSTYLE
  2
EZDXF
  9
$DIMCLRD
 70
0
  9
$DIMCLRE
 70
0
  9
$DIMCLRT
 70
0
  9
$DIMTFAC
 40
0.5
  9
$DIMGAP
 40
0.1
  9
$DIMJUST
 70
0
  9
$DIMSD1
 70
0
  9
$DIMSD2
 70
0
  9
$DIMTOLJ
 70
0
  9
$DIMTZIN
 70
8
  9
$DIMALTZ
 70
0
  9
$DIMALTTZ
 70
0
  9
$DIMUPT
 70
1
  9
$DIMDEC
 70
2
  9
$DIMTDEC
 70
2
  9
$DIMALTU
 70
2
  9
$DIMALTTD
 70
3
  9
$DIMTXSTY
  7
OpenSansCondensed-Light
  9
$DIMAUNIT
 70
0
  9
$DIMADEC
 70
2
  9
$DIMALTRND
 40
0.0
  9
$DIMAZIN
 70
3
  9
$DIMDSEP
 70
46
  9
$DIMATFIT
 70
3
  9
$DIMFRAC
 70
0
  9
$DIMLDRBLK
  1

  9
$DIMLUNIT
 70
2
  9
$DIMLWD
 70
-2
  9
$DIMLWE
 70
-2
  9
$DIMTMOVE
 70
2
  9
$DIMFXL
 40
1.0
  9
$DIMFXLON
 70
0
  9
$DIMJOGANG
 40
0.785398163397
  9
$DIMTFILL
 70
0
  9
$DIMTFILLCLR
 70
0
  9
$DIMARCSYM
 70
0
  9
$DIMLTYPE
  6

  9
$DIMLTEX1
  6

  9
$DIMLTEX2
  6

  9
$DIMTXTDIRECTION
 70
0
  9
$LUNITS
 70
2
  9
$LUPREC
 70
4
  9
$SKETCHINC
 40
1.0
  9
$FILLETRAD
 40
10.0
  9
$AUNITS
 70
0
  9
$AUPREC
 70
2
  9
$MENU
  1
.
  9
$ELEVATION
 40
0.0
  9
$PELEVATION
 40
0.0
  9
$THICKNESS
 40
0.0
  9
$LIMCHECK
 70
0
  9
$CHAMFERA
 40
0.0
  9
$CHAMFERB
 40
0.0
  9
$CHAMFERC
 40
0.0
  9
$CHAMFERD
 40
0.0
  9
$SKPOLY
 70
0
  9
$TDCREATE
 40
2461295.329386574
  9
$TDUCREATE
 40
2458532.153996898
  9
$TDUPDATE
 40
2461295.329386574
  9
$TDUUPDATE
 40
2458532.1544311
  9
$TDINDWG
 40
0.0
  9
$TDUSRTIMER
 40
0.0
  9
$USRTIMER
 70
1
  9
$ANGBASE
 50
0.0
  9
$ANGDIR
 70
0
  9
$PDMODE
 70
0
  9
$PDSIZE
 40
0.0
  9
$PLINEWID
 40
0.0
  9
$SPLFRAME
 70
0
  9
$SPLINETYPE
 70
6
  9
$SPLINESEGS
 70
8
  9
$HANDSEED
  5
353
  9
$SURFTAB1
 70
6
  9
$SURFTAB2
 70
6
  9
$SURFTYPE
 70
6
  9
$SURFU
 70
6
  9
$SURFV
 70
6
  9
$UCSBASE
  2

  9
$UCSNAME
  2

  9
$UCSORG
 10
0.0
 20
0.0
 30
0.0
  9
$UCSXDIR
 10
1.0
 20
0.0
 30
0.0
  9
$UCSYDIR
 10
0.0
 20
1.0
 30
0.0
  9
$UCSORTHOREF
  2

  9
$UCSORTHOVIEW
 70
0
  9
$UCSORGTOP
 10
0.0
 20
0.0
 30
0.0
  9
$UCSORGBOTTOM
 10
0.0
 20
0.0
 30
0.0
  9
$UCSORGLEFT
 10
0.0
 20
0.0
 30
0.0
  9
$UCSORGRIGHT
 10
0.0
 20
0.0
 30
0.0
  9
$UCSORGFRONT
 10
0.0
 20
0.0
 30
0.0
  9
$UCSORGBACK
 10
0.0
 20
0.0
 30
0.0
  9
$PUCSBASE
  2

  9
$PUCSNAME
  2

  9
$PUCSORG
 10
0.0
 20
0.0
 30
0.0
  9
$PUCSXDIR
 10
1.0
 20
0.0
 30
0.0
  9
$PUCSYDIR
 10
0.0
 20
1.0
 30
0.0
  9
$PUCSORTHOREF
  2

  9
$PUCSORTHOVIEW
 70
0
  9
$PUCSORGTOP
 10
0.0
 20
0.0
 30
0.0
  9
$PUCSORGBOTTOM
 10
0.0
 20
0.0
 30
0.0
  9
$PUCSORGLEFT
 10
0.0
 20
0.0
 30
0.0
  9
$PUCSORGRIGHT
 10
0.0
 20
0.0
 30
0.0
  9
$PUCSORGFRONT
 10
0.0
 20
0.0
 30
0.0
  9
$PUCSORGBACK
 10
0.0
 20
0.0
 30
0.0
  9
$USERI1
 70
0
  9
$USERI2
 70
0
  9
$USERI3
 70
0
  9
$USERI4
 70
0
  9
$USERI5
 70
0
  9
$USERR1
 40
0.0
  9
$USERR2
 40
0.0
  9
$USERR3
 40
0.0
  9
$USERR4
 40
0.0
  9
$USERR5
 40
0.0
  9
$WORLDVIEW
 70
1
  9
$SHADEDGE
 70
3
  9
$SHADEDIF
 70
70
  9
$TILEMODE
 70
1
  9
$MAXACTVP
 70
64
  9
$PINSBASE
 10
0.0
 20
0.0
 30
0.0
  9
$PLIMCHECK
 70
0
  9
$PEXTMIN
 10
1e+20
 20
1e+20
 30
1e+20
  9
$PEXTMAX
 10
-1e+20
 20
-1e+20
 30
-1e+20
  9
$PLIMMIN
 10
0.0
 20
0.0
  9
$PLIMMAX
 10
420.0
 20
297.0
  9
$UNITMODE
 70
0
  9
$VISRETAIN
 70
1
  9
$PLINEGEN
 70
0
  9
$PSLTSCALE
 70
1
  9
$TREEDEPTH
 70
3020
  9
$CMLSTYLE
  2
Standard
  9
$CMLJUST
 70
0
  9
$CMLSCALE
 40
20.0
  9
$PROXYGRAPHICS
 70
1
  9
$MEASUREMENT
 70
1
  9
$CELWEIGHT
370
-1
  9
$ENDCAPS
280
0
  9
$JOINSTYLE
280
0
  9
$LWDISPLAY
290
0
  9
$INSUNITS
 70
4
  9
$HYPERLINKBASE
  1

  9
$STYLESHEET
  1

  9
$XEDIT
290
1
  9
$CEPSNTYPE
380
0
  9
$PSTYLEMODE
290
1
  9
$FINGERPRINTGUID
  2
{8CB66BE8-F67B-4EAD-8910-D7131A4361FE}
  9
$VERSIONGUID
  2
{72E7830F-B6B0-46CA-B645-CF34CAED6358}
  9
$EXTNAMES
290
1
  9
$PSVPSCALE
 40
0.0
  9
$OLESTARTUP
290
0
  9
$SORTENTS
280
127
  9
$INDEXCTL
280
0
  9
$HIDETEXT
280
1
  9
$XCLIPFRAME
280
1
  9
$HALOGAP
280
0
  9
$OBSCOLOR
 70
257
  9
$OBSLTYPE
280
0
  9
$INTERSECTIONDISPLAY
280
0
  9
$INTERSECTIONCOLOR
 70
257
  9
$DIMASSOC
280
2
  9
$PROJECTNAME
  1

  9
$CAMERADISPLAY
290
0
  9
$LENSLENGTH
 40
50.0
  9
$CAMERAHEIGHT
 40
0.0
  9
$STEPSPERSEC
 40
24.0
  9
$STEPSIZE
 40
100.0
  9
$3DDWFPREC
 40
2.0
  9
$PSOLWIDTH
 40
0.005
  9
$PSOLHEIGHT
 40
0.08
  9
$LOFTANG1
 40
1.570796326795
  9
$LOFTANG2
 40
1.570796326795
  9
$LOFTMAG1
 40
0.0
  9
$LOFTMAG2
 40
0.0
  9
$LOFTPARAM
 70
7
  9
$LOFTNORMALS
280
1
  9
$LATITUDE
 40
37.795
  9
$LONGITUDE
 40
-122.394
  9
$NORTHDIRECTION
 40
0.0
  9
$TIMEZONE
 70
-8000
  9
$LIGHTGLYPHDISPLAY
280
1
  9
$TILEMODELIGHTSYNCH
280
1
  9
$CMATERIAL
347
20
  9
$SOLIDHIST
280
0
  9
$SHOWHIST
280
1
  9
$DWFFRAME
280
2
  9
$DGNFRAME
280
2
  9
$REALWORLDSCALE
290
1
  9
$INTERFERECOLOR
 62
256
  9
$CSHADOW
280
0
  9
$SHADOWPLANELOCATION
 40
0.0
  0
ENDSEC
  0
SECTION
  2
CLASSES
  0
CLASS
  1
ACDBDICTIONARYWDFLT
  2
AcDbDictionaryWithDefault
  3
ObjectDBX Classes
 90
0
 91
0
280
0
281
0
  0
CLASS
  1
SUN
  2
AcDbSun
  3
SCENEOE
 90
1153
 91
0
280
0
281
0
  0
CLASS
  1
VISUALSTYLE
  2
AcDbVisualStyle
  3
ObjectDBX Classes
 90
4095
 91
0
280
0
281
0
  0
CLASS
  1
MATERIAL
  2
AcDbMaterial
  3
ObjectDBX Classes
 90
1153
 91
0
280
0
281
0
  0
CLASS
  1
SCALE
  2
AcDbScale
  3
ObjectDBX Classes
 90
1153
 91
0
280
0
281
0
  0
CLASS
  1
TABLESTYLE
  2
AcDbTableStyle
  3
ObjectDBX Classes
 90
4095
 91
0
280
0
281
0
  0
CLASS
  1
MLEADERSTYLE
  2
AcDbMLeaderStyle
  3
ACDB_MLEADERSTYLE_CLASS
 90
4095
 91
0
280
0
281
0
  0
CLASS
  1
DICTIONARYVAR
  2
AcDbDictionaryVar
  3
ObjectDBX Classes
 90
0
 91
0
280
0
281
0
  0
CLASS
  1
CELLSTYLEMAP
  2
AcDbCellStyleMap
  3
ObjectDBX Classes
 90
1152
 91
0
280
0
281
0
  0
CLASS
  1
MENTALRAYRENDERSETTINGS
  2
AcDbMentalRayRenderSettings
  3
SCENEOE
 90
1024
 91
0
280
0
281
0
  0
CLASS
  1
ACDBDETAILVIEWSTYLE
  2
AcDbDetailViewStyle
  3
ObjectDBX Classes
 90
1025
 91
0
280
0
281
0
  0
CLASS
  1
ACDBSECTIONVIEWSTYLE
  2
AcDbSectionViewStyle
  3
ObjectDBX Classes
 90
1025
 91
0
280
0
281
0
  0
CLASS
  1
RASTERVARIABLES
  2
AcDbRasterVariables
  3
ISM
 90
0
 91
0
280
0
281
0
  0
CLASS
  1
LAYOUT
  2
AcDbLayout
  3
ObjectDBX Classes
 90
0
 91
0
280
0
281
0
  0
CLASS
  1
ACDBPLACEHOLDER
  2
AcDbPlaceHolder
  3
ObjectDBX Classes
 90
0
 91
0
280
0
281
0
  0
ENDSEC
  0
SECTION
  2
TABLES
  0
TABLE
  2
VPORT
  5
8
330
0
100
AcDbSymbolTable
 70
1
  0
VPORT
  5
23
330
8
100
AcDbSymbolTableRecord
100
AcDbViewportTableRecord
  2
*Active
 70
0
 10
0.0
 20
0.0
 11
1.0
 21
1.0
 12
0.0
 22
0.0
 13
0.0
 23
0.0
 14
0.5
 24
0.5
 15
0.5
 25
0.5
 16
0.0
 26
0.0
 36
1.0
 17
0.0
 27
0.0
 37
0.0
 40
1000.0
 41
1.34
 42
50.0
 43
0.0
 44
0.0
 50
0.0
 51
0.0
 71
0
 72
1000
 73
1
 74
3
 75
0
 76
0
 77
0
 78
0
281
0
 65
0
146
0.0
  0
ENDTAB
  0
TABLE
  2
LTYPE
  5
2
330
0
100
AcDbSymbolTable
 70
21
  0
LTYPE
  5
24
330
2
100
AcDbSymbolTableRecord
100
AcDbLinetypeTableRecord
  2
ByBlock
 70
0
  3

 72
65
 73
0
 40
0.0
  0
LTYPE
  5
25
330
2
100
AcDbSymbolTableRecord
100
AcDbLinetypeTableRecord
  2
ByLayer
 70
0
  3

 72
65
 73
0
 40
0.0
  0
LTYPE
  5
26
330
2
100
AcDbSymbolTableRecord
100
AcDbLinetypeTableRecord
  2
Continuous
 70
0
  3

 72
65
 73
0
 40
0.0
  0
LTYPE
  5
2F
330
2
100
AcDbSymbolTableRecord
100
AcDbLinetypeTableRecord
  2
CENTER
 70
0
  3
Center ____ _ ____ _ ____ _ ____ _ ____ _ ____
 72
65
 73
4
 40
5.08
 49
3.175
 74
0
 49
-0.635
 74
0
 49
0.635
 74
0
 49
-0.635
 74
0
  0
LTYPE
  5
30
330
2
100
AcDbSymbolTableRecord
100
AcDbLinetypeTableRecord
  2
CENTERX2
 70
0
  3
Center (2x) ________  __  ________  __  ________
 72
65
 73
4
 40
8.89
 49
6.35
 74
0
 49
-0.635
 74
0
 49
1.27
 74
0
 49
-0.635
 74
0
  0
LTYPE
  5
31
330
2
100
AcDbSymbolTableRecord
100
AcDbLinetypeTableRecord
  2
CENTER2
 70
0
  3
Center (.5x) ____ _ ____ _ ____ _ ____ _ ____
 72
65
 73
4
 40
2.54
 49
1.587
 74
0
 49
-0.318
 74
0
 49
0.318
 74
0
 49
-0.318
 74
0
  0
LTYPE
  5
32
330
2
100
AcDbSymbolTableRecord
100
AcDbLinetypeTableRecord
  2
DASHED
 70
0
  3
Dashed __ __ __ __ __ __ __ __ __ __ __ __ __ _
 72
65
 73
2
 40
1.524
 49
1.27
 74
0
 49
-0.254
 74
0
  0
LTYPE
  5
33
330
2
100
AcDbSymbolTableRecord
100
AcDbLinetypeTableRecord
  2
DASHEDX2
 70
0
  3
Dashed (2x) ____  ____  ____  ____  ____  ____
 72
65
 73
2
 40
3.048
 49
2.54
 74
0
 49
-0.508
 74
0
  0
LTYPE
  5
34
330
2
100
AcDbSymbolTableRecord
100
AcDbLinetypeTableRecord
  2
DASHED2
 70
0
  3
Dashed (.5x) _ _ _ _ _ _ _ _ _ _ _ _ _ _
 72
65
 73
2
 40
0.762
 49
0.635
 74
0
 49
-0.127
 74
0
  0
LTYPE
  5
35
330
2
100
AcDbSymbolTableRecord
100
AcDbLinetypeTableRecord
  2
PHANTOM
 70
0
  3
Phantom ______  __  __  ______  __  __  ______
 72
65
 73
6
 40
6.35
 49
3.175
 74
0
 49
-0.635
 74
0
 49
0.635
 74
0
 49
-0.635
 74
0
 49
0.635
 74
0
 49
-0.635
 74
0
  0
LTYPE
  5
36
330
2
100
AcDbSymbolTableRecord
100
AcDbLinetypeTableRecord
  2
PHANTOMX2
 70
0
  3
Phantom (2x)____________    ____    ____    ____________
 72
65
 73
6
 40
10.795
 49
6.35
 74
0
 49
-0.635
 74
0
 49
1.27
 74
0
 49
-0.635
 74
0
 49
1.27
 74
0
 49
-0.635
 74
0
  0
LTYPE
  5
37
330
2
100
AcDbSymbolTableRecord
100
AcDbLinetypeTableRecord
  2
PHANTOM2
 70
0
  3
Phantom (.5x) ___ _ _ ___ _ _ ___ _ _ ___ _ _ ___
 72
65
 73
6
 40
3.175
 49
1.587
 74
0
 49
-0.318
 74
0
 49
0.318
 74
0
 49
-0.318
 74
0
 49
0.318
 74
0
 49
-0.318
 74
0
  0
LTYPE
  5
38
330
2
100
AcDbSymbolTableRecord
100
AcDbLinetypeTableRecord
  2
DASHDOT
 70
0
  3
Dash dot __ . __ . __ . __ . __ . __ . __ . __
 72
65
 73
4
 40
3.556
 49
2.54
 74
0
 49
-0.508
 74
0
 49
0.0
 74
0
 49
-0.508
 74
0
  0
LTYPE
  5
39
330
2
100
AcDbSymbolTableRecord
100
AcDbLinetypeTableRecord
  2
DASHDOTX2
 70
0
  3
Dash dot (2x) ____  .  ____  .  ____  .  ____
 72
65
 73
4
 40
6.096
 49
5.08
 74
0
 49
-0.508
 74
0
 49
0.0
 74
0
 49
-0.508
 74
0
  0
LTYPE
  5
3A
330
2
100
AcDbSymbolTableRecord
100
AcDbLinetypeTableRecord
  2
DASHDOT2
 70
0
  3
Dash dot (.5x) _ . _ . _ . _ . _ . _ . _ . _
 72
65
 73
4
 40
1.778
 49
1.27
 74
0
 49
-0.254
 74
0
 49
0.0
 74
0
 49
-0.254
 74
0
  0
LTYPE
  5
3B
330
2
100
AcDbSymbolTableRecord
100
AcDbLinetypeTableRecord
  2
DOT
 70
0
  3
Dot .  .  .  .  .  .  .  .  .  .  .  .  .  .  .  .
 72
65
 73
2
 40
0.508
 49
0.0
 74
0
 49
-0.508
 74
0
  0
LTYPE
  5
3C
330
2
100
AcDbSymbolTableRecord
100
AcDbLinetypeTableRecord
  2
DOTX2
 70
0
  3
Dot (2x) .    .    .    .    .    .    .    . 
 72
65
 73
2
 40
1.016
 49
0.0
 74
0
 49
-1.016
 74
0
  0
LTYPE
  5
3D
330
2
100
AcDbSymbolTableRecord
100
AcDbLinetypeTableRecord
  2
DOT2
 70
0
  3
Dot (.5) . . . . . . . . . . . . . . . . . . . 
 72
65
 73
2
 40
0.254
 49
0.0
 74
0
 49
-0.254
 74
0
  0
LTYPE
  5
3E
330
2
100
AcDbSymbolTableRecord
100
AcDbLinetypeTableRecord
  2
DIVIDE
 70
0
  3
Divide __ . . __ . . __ . . __ . . __ . . __
 72
65
 73
6
 40
4.064
 49
2.54
 74
0
 49
-0.508
 74
0
 49
0.0
 74
0
 49
-0.508
 74
0
 49
0.0
 74
0
 49
-0.508
 74
0
  0
LTYPE
  5
3F
330
2
100
AcDbSymbolTableRecord
100
AcDbLinetypeTableRecord
  2
DIVIDEX2
 70
0
  3
Divide (2x) ____  . .  ____  . .  ____  . .  ____
 72
65
 73
6
 40
6.604
 49
5.08
 74
0
 49
-0.508
 74
0
 49
0.0
 74
0
 49
-0.508
 74
0
 49
0.0
 74
0
 49
-0.508
 74
0
  0
LTYPE
  5
40
330
2
100
AcDbSymbolTableRecord
100
AcDbLinetypeTableRecord
  2
DIVIDE2
 70
0
  3
Divide(.5x) _ . _ . _ . _ . _ . _ . _ . _
 72
65
 73
6
 40
2.032
 49
1.27
 74
0
 49
-0.254
 74
0
 49
0.0
 74
0
 49
-0.254
 74
0
 49
0.0
 74
0
 49
-0.254
 74
0
  0
ENDTAB
  0
TABLE
  2
LAYER
  5
1
330
0
100
AcDbSymbolTable
 70
75
  0
LAYER
  5
27
330
1
100
AcDbSymbolTableRecord
100
AcDbLayerTableRecord
  2
0
 70
0
 62
7
  6
Continuous
370
-3
390
13
347
21
  0
LAYER
  5
28
330
1
100
AcDbSymbolTableRecord
100
AcDbLayerTableRecord
  2
Defpoints
 70
0
 62
7
  6
Continuous
290
0
370
-3
390
13
347
21
  0
LAYER
  5
8A
330
1
100
AcDbSymbolTableRecord
100
AcDbLayerTableRecord
  2
S-CONCRETE
 70
0
 62
7
  6
Continuous
370
-3
390
13
347
21
1001
AcAecLayerStandard
1000

1000
Structural concrete outlines (cut)
  0
LAYER
  5
8C
330
1
100
AcDbSymbolTableRecord
100
AcDbLayerTableRecord
  2
S-CONCRETE-THIN
 70
0
 62
7
  6
Continuous
370
-3
390
13
347
21
1001
AcAecLayerStandard
1000

1000
Concrete beyond the cut plane
  0
LAYER
  5
8D
330
1
100
AcDbSymbolTableRecord
100
AcDbLayerTableRecord
  2
S-HIDDEN
 70
0
 62
8
  6
Continuous
370
-3
390
13
347
21
1001
AcAecLayerStandard
1000

1000
Concrete / features beyond, hidden
  0
LAYER
  5
8E
330
1
100
AcDbSymbolTableRecord
100
AcDbLayerTableRecord
  2
S-REBAR-MAIN
 70
0
 62
1
  6
Continuous
370
-3
390
13
347
21
1001
AcAecLayerStandard
1000

1000
Main reinforcement
  0
LAYER
  5
8F
330
1
100
AcDbSymbolTableRecord
100
AcDbLayerTableRecord
  2
S-REBAR-DIST
 70
0
 62
3
  6
Continuous
370
-3
390
13
347
21
1001
AcAecLayerStandard
1000

1000
Distribution reinforcement
  0
LAYER
  5
90
330
1
100
AcDbSymbolTableRecord
100
AcDbLayerTableRecord
  2
S-REBAR-STIRRUP
 70
0
 62
6
  6
Continuous
370
-3
390
13
347
21
1001
AcAecLayerStandard
1000

1000
Links and stirrups
  0
LAYER
  5
91
330
1
100
AcDbSymbolTableRecord
100
AcDbLayerTableRecord
  2
S-REBAR-TIE
 70
0
 62
6
  6
Continuous
370
-3
390
13
347
21
1001
AcAecLayerStandard
1000

1000
Ties, cross-ties, starters
  0
LAYER
  5
92
330
1
100
AcDbSymbolTableRecord
100
AcDbLayerTableRecord
  2
S-REBAR-SEC
 70
0
 62
4
  6
Continuous
370
-3
390
13
347
21
1001
AcAecLayerStandard
1000

1000
Trimmers, secondary and additional bars
  0
LAYER
  5
93
330
1
100
AcDbSymbolTableRecord
100
AcDbLayerTableRecord
  2
S-DIM
 70
0
 62
4
  6
Continuous
370
-3
390
13
347
21
1001
AcAecLayerStandard
1000

1000
Dimensions
  0
LAYER
  5
94
330
1
100
AcDbSymbolTableRecord
100
AcDbLayerTableRecord
  2
S-TEXT
 70
0
 62
7
  6
Continuous
370
-3
390
13
347
21
1001
AcAecLayerStandard
1000

1000
General annotation
  0
LAYER
  5
95
330
1
100
AcDbSymbolTableRecord
100
AcDbLayerTableRecord
  2
S-NOTE
 70
0
 62
7
  6
Continuous
370
-3
390
13
347
21
1001
AcAecLayerStandard
1000

1000
Note panels
  0
LAYER
  5
96
330
1
100
AcDbSymbolTableRecord
100
AcDbLayerTableRecord
  2
S-CALLOUT
 70
0
 62
2
  6
Continuous
370
-3
390
13
347
21
1001
AcAecLayerStandard
1000

1000
Bar-mark balloons and leaders
  0
LAYER
  5
97
330
1
100
AcDbSymbolTableRecord
100
AcDbLayerTableRecord
  2
S-SECTION
 70
0
 62
1
  6
Continuous
370
-3
390
13
347
21
1001
AcAecLayerStandard
1000

1000
Section and detail markers
  0
LAYER
  5
98
330
1
100
AcDbSymbolTableRecord
100
AcDbLayerTableRecord
  2
S-GRID
 70
0
 62
5
  6
Continuous
370
-3
390
13
347
21
1001
AcAecLayerStandard
1000

1000
Grid lines and bubbles
  0
LAYER
  5
99
330
1
100
AcDbSymbolTableRecord
100
AcDbLayerTableRecord
  2
S-CENTER
 70
0
 62
6
  6
Continuous
370
-3
390
13
347
21
1001
AcAecLayerStandard
1000

1000
Centrelines
  0
LAYER
  5
9A
330
1
100
AcDbSymbolTableRecord
100
AcDbLayerTableRecord
  2
S-HATCH
 70
0
 62
8
  6
Continuous
370
-3
390
13
347
21
1001
AcAecLayerStandard
1000

1000
Section hatch
  0
LAYER
  5
9B
330
1
100
AcDbSymbolTableRecord
100
AcDbLayerTableRecord
  2
S-TITLE
 70
0
 62
7
  6
Continuous
370
-3
390
13
347
21
1001
AcAecLayerStandard
1000

1000
Border, title block, view titles
  0
LAYER
  5
9C
330
1
100
AcDbSymbolTableRecord
100
AcDbLayerTableRecord
  2
S-EXISTING
 70
0
 62
8
  6
Continuous
370
-3
390
13
347
21
1001
AcAecLayerStandard
1000

1000
Soil, rock, berm, cover layers
  0
LAYER
  5
9D
330
1
100
AcDbSymbolTableRecord
100
AcDbLayerTableRecord
  2
S-REFERENCE
 70
0
 62
8
  6
Continuous
370
-3
390
13
347
21
1001
AcAecLayerStandard
1000

1000
Reference geometry, extents
  0
LAYER
  5
9E
330
1
100
AcDbSymbolTableRecord
100
AcDbLayerTableRecord
  2
S-WATERPROOF
 70
0
 62
30
  6
Continuous
370
-3
390
13
347
21
1001
AcAecLayerStandard
1000

1000
Membranes, waterstops, GWT
  0
LAYER
  5
9F
330
1
100
AcDbSymbolTableRecord
100
AcDbLayerTableRecord
  2
S-STEELWORK
 70
0
 62
2
  6
Continuous
370
-3
390
13
347
21
1001
AcAecLayerStandard
1000

1000
Cast-in frames, EMP straps, steel items
  0
LAYER
  5
A0
330
1
100
AcDbSymbolTableRecord
100
AcDbLayerTableRecord
  2
S-LEVEL
 70
0
 62
4
  6
Continuous
370
-3
390
13
347
21
1001
AcAecLayerStandard
1000

1000
Level markers
  0
LAYER
  5
A1
330
1
100
AcDbSymbolTableRecord
100
AcDbLayerTableRecord
  2
S-TABLE
 70
0
 62
7
  6
Continuous
370
-3
390
13
347
21
1001
AcAecLayerStandard
1000

1000
Tables and schedules
  0
LAYER
  5
A2
330
1
100
AcDbSymbolTableRecord
100
AcDbLayerTableRecord
  2
S-BLAST
 70
0
 62
1
  6
Continuous
370
-3
390
13
347
21
1001
AcAecLayerStandard
1000

1000
Blast arrows, findings, warnings
  0
LAYER
  5
B9
330
1
100
AcDbSymbolTableRecord
100
AcDbLayerTableRecord
  2
M-ARCH
 70
0
 62
8
  6
Continuous
370
-3
390
13
347
21
1001
AcAecLayerStandard
1000

1000
Architectural background, walls and slabs
  0
LAYER
  5
BA
330
1
100
AcDbSymbolTableRecord
100
AcDbLayerTableRecord
  2
M-ARCH-HIDDEN
 70
0
 62
8
  6
Continuous
370
-3
390
13
347
21
1001
AcAecLayerStandard
1000

1000
Structure and features beyond
  0
LAYER
  5
BB
330
1
100
AcDbSymbolTableRecord
100
AcDbLayerTableRecord
  2
M-STRUCT
 70
0
 62
7
  6
Continuous
370
-3
390
13
347
21
1001
AcAecLayerStandard
1000

1000
Structure cut by the view
  0
LAYER
  5
BC
330
1
100
AcDbSymbolTableRecord
100
AcDbLayerTableRecord
  2
M-GRID
 70
0
 62
5
  6
Continuous
370
-3
390
13
347
21
1001
AcAecLayerStandard
1000

1000
Grid and bay reference lines
  0
LAYER
  5
BD
330
1
100
AcDbSymbolTableRecord
100
AcDbLayerTableRecord
  2
P-DRAIN-SOIL
 70
0
 62
1
  6
Continuous
370
-3
390
13
347
21
1001
AcAecLayerStandard
1000

1000
Soil drainage - foul
  0
LAYER
  5
BE
330
1
100
AcDbSymbolTableRecord
100
AcDbLayerTableRecord
  2
P-DRAIN-WASTE
 70
0
 62
3
  6
Continuous
370
-3
390
13
347
21
1001
AcAecLayerStandard
1000

1000
Waste drainage - wastewater
  0
LAYER
  5
BF
330
1
100
AcDbSymbolTableRecord
100
AcDbLayerTableRecord
  2
P-DRAIN-STORM
 70
0
 62
5
  6
Continuous
370
-3
390
13
347
21
1001
AcAecLayerStandard
1000

1000
Storm and surface water
  0
LAYER
  5
C0
330
1
100
AcDbSymbolTableRecord
100
AcDbLayerTableRecord
  2
P-DRAIN-SEEP
 70
0
 62
4
  6
Continuous
370
-3
390
13
347
21
1001
AcAecLayerStandard
1000

1000
Groundwater, seepage and subsoil drainage
  0
LAYER
  5
C1
330
1
100
AcDbSymbolTableRecord
100
AcDbLayerTableRecord
  2
P-DRAIN-EFF
 70
0
 62
6
  6
Continuous
370
-3
390
13
347
21
1001
AcAecLayerStandard
1000

1000
Decon effluent - contaminated, segregated
  0
LAYER
  5
C2
330
1
100
AcDbSymbolTableRecord
100
AcDbLayerTableRecord
  2
P-DRAIN-RISING
 70
0
 62
2
  6
Continuous
370
-3
390
13
347
21
1001
AcAecLayerStandard
1000

1000
Pumped rising main
  0
LAYER
  5
C3
330
1
100
AcDbSymbolTableRecord
100
AcDbLayerTableRecord
  2
P-DRAIN-VENT
 70
0
 62
8
  6
Continuous
370
-3
390
13
347
21
1001
AcAecLayerStandard
1000

1000
Drainage ventilation
  0
LAYER
  5
C4
330
1
100
AcDbSymbolTableRecord
100
AcDbLayerTableRecord
  2
P-EQUIP
 70
0
 62
2
  6
Continuous
370
-3
390
13
347
21
1001
AcAecLayerStandard
1000

1000
Pumps, tanks, chambers, plant
  0
LAYER
  5
C5
330
1
100
AcDbSymbolTableRecord
100
AcDbLayerTableRecord
  2
P-FLOW
 70
0
 62
1
  6
Continuous
370
-3
390
13
347
21
1001
AcAecLayerStandard
1000

1000
Flow arrows and direction
  0
LAYER
  5
C6
330
1
100
AcDbSymbolTableRecord
100
AcDbLayerTableRecord
  2
M-DUCT-SUPPLY
 70
0
 62
5
  6
Continuous
370
-3
390
13
347
21
1001
AcAecLayerStandard
1000

1000
Supply air ductwork
  0
LAYER
  5
C7
330
1
100
AcDbSymbolTableRecord
100
AcDbLayerTableRecord
  2
M-DUCT-RETURN
 70
0
 62
3
  6
Continuous
370
-3
390
13
347
21
1001
AcAecLayerStandard
1000

1000
Return air ductwork
  0
LAYER
  5
C8
330
1
100
AcDbSymbolTableRecord
100
AcDbLayerTableRecord
  2
M-DUCT-FRESH
 70
0
 62
4
  6
Continuous
370
-3
390
13
347
21
1001
AcAecLayerStandard
1000

1000
Fresh air ductwork
  0
LAYER
  5
C9
330
1
100
AcDbSymbolTableRecord
100
AcDbLayerTableRecord
  2
M-DUCT-EXH
 70
0
 62
1
  6
Continuous
370
-3
390
13
347
21
1001
AcAecLayerStandard
1000

1000
Exhaust air ductwork
  0
LAYER
  5
CA
330
1
100
AcDbSymbolTableRecord
100
AcDbLayerTableRecord
  2
M-DUCT-CL
 70
0
 62
8
  6
Continuous
370
-3
390
13
347
21
1001
AcAecLayerStandard
1000

1000
Duct centrelines
  0
LAYER
  5
CB
330
1
100
AcDbSymbolTableRecord
100
AcDbLayerTableRecord
  2
M-TERMINAL
 70
0
 62
2
  6
Continuous
370
-3
390
13
347
21
1001
AcAecLayerStandard
1000

1000
Diffusers, grilles and terminals
  0
LAYER
  5
CC
330
1
100
AcDbSymbolTableRecord
100
AcDbLayerTableRecord
  2
M-EQUIP
 70
0
 62
2
  6
Continuous
370
-3
390
13
347
21
1001
AcAecLayerStandard
1000

1000
HVAC plant and equipment
  0
LAYER
  5
CD
330
1
100
AcDbSymbolTableRecord
100
AcDbLayerTableRecord
  2
M-DAMPER
 70
0
 62
6
  6
Continuous
370
-3
390
13
347
21
1001
AcAecLayerStandard
1000

1000
Dampers, valves and isolation devices
  0
LAYER
  5
CE
330
1
100
AcDbSymbolTableRecord
100
AcDbLayerTableRecord
  2
M-AIRFLOW
 70
0
 62
1
  6
Continuous
370
-3
390
13
347
21
1001
AcAecLayerStandard
1000

1000
Airflow arrows and quantities
  0
LAYER
  5
CF
330
1
100
AcDbSymbolTableRecord
100
AcDbLayerTableRecord
  2
A-FIN-FLOOR
 70
0
 62
4
  6
Continuous
370
-3
390
13
347
21
1001
AcAecLayerStandard
1000

1000
Floor finish zones and tags
  0
LAYER
  5
D0
330
1
100
AcDbSymbolTableRecord
100
AcDbLayerTableRecord
  2
A-FIN-WALL
 70
0
 62
3
  6
Continuous
370
-3
390
13
347
21
1001
AcAecLayerStandard
1000

1000
Wall finish zones and tags
  0
LAYER
  5
D1
330
1
100
AcDbSymbolTableRecord
100
AcDbLayerTableRecord
  2
A-FIN-CEIL
 70
0
 62
5
  6
Continuous
370
-3
390
13
347
21
1001
AcAecLayerStandard
1000

1000
Ceiling and soffit finish tags
  0
LAYER
  5
D2
330
1
100
AcDbSymbolTableRecord
100
AcDbLayerTableRecord
  2
A-FIN-WET
 70
0
 62
30
  6
Continuous
370
-3
390
13
347
21
1001
AcAecLayerStandard
1000

1000
Wet areas, tanking and falls
  0
LAYER
  5
D3
330
1
100
AcDbSymbolTableRecord
100
AcDbLayerTableRecord
  2
A-FIN-TAG
 70
0
 62
7
  6
Continuous
370
-3
390
13
347
21
1001
AcAecLayerStandard
1000

1000
Finish tag boxes and leaders
  0
LAYER
  5
D4
330
1
100
AcDbSymbolTableRecord
100
AcDbLayerTableRecord
  2
M-WATERPROOF
 70
0
 62
30
  6
Continuous
370
-3
390
13
347
21
1001
AcAecLayerStandard
1000

1000
Membranes, waterstops, tanking
  0
LAYER
  5
D5
330
1
100
AcDbSymbolTableRecord
100
AcDbLayerTableRecord
  2
M-LEVEL
 70
0
 62
4
  6
Continuous
370
-3
390
13
347
21
1001
AcAecLayerStandard
1000

1000
Level and invert markers
  0
LAYER
  5
D6
330
1
100
AcDbSymbolTableRecord
100
AcDbLayerTableRecord
  2
M-DIM
 70
0
 62
4
  6
Continuous
370
-3
390
13
347
21
1001
AcAecLayerStandard
1000

1000
Dimensions
  0
LAYER
  5
D7
330
1
100
AcDbSymbolTableRecord
100
AcDbLayerTableRecord
  2
M-TEXT
 70
0
 62
7
  6
Continuous
370
-3
390
13
347
21
1001
AcAecLayerStandard
1000

1000
General annotation
  0
LAYER
  5
D8
330
1
100
AcDbSymbolTableRecord
100
AcDbLayerTableRecord
  2
M-NOTE
 70
0
 62
7
  6
Continuous
370
-3
390
13
347
21
1001
AcAecLayerStandard
1000

1000
Note panels
  0
LAYER
  5
D9
330
1
100
AcDbSymbolTableRecord
100
AcDbLayerTableRecord
  2
M-TABLE
 70
0
 62
7
  6
Continuous
370
-3
390
13
347
21
1001
AcAecLayerStandard
1000

1000
Tables and schedules
  0
LAYER
  5
DA
330
1
100
AcDbSymbolTableRecord
100
AcDbLayerTableRecord
  2
M-CALLOUT
 70
0
 62
2
  6
Continuous
370
-3
390
13
347
21
1001
AcAecLayerStandard
1000

1000
Tags, balloons and leaders
  0
LAYER
  5
DB
330
1
100
AcDbSymbolTableRecord
100
AcDbLayerTableRecord
  2
M-SECTION
 70
0
 62
1
  6
Continuous
370
-3
390
13
347
21
1001
AcAecLayerStandard
1000

1000
Section and detail markers
  0
LAYER
  5
DC
330
1
100
AcDbSymbolTableRecord
100
AcDbLayerTableRecord
  2
M-TITLE
 70
0
 62
7
  6
Continuous
370
-3
390
13
347
21
1001
AcAecLayerStandard
1000

1000
Border, title block, view titles
  0
LAYER
  5
DD
330
1
100
AcDbSymbolTableRecord
100
AcDbLayerTableRecord
  2
M-HATCH
 70
0
 62
8
  6
Continuous
370
-3
390
13
347
21
1001
AcAecLayerStandard
1000

1000
Hatching
  0
LAYER
  5
DE
330
1
100
AcDbSymbolTableRecord
100
AcDbLayerTableRecord
  2
M-EXISTING
 70
0
 62
8
  6
Continuous
370
-3
390
13
347
21
1001
AcAecLayerStandard
1000

1000
Soil, rock, berm, cover
  0
LAYER
  5
DF
330
1
100
AcDbSymbolTableRecord
100
AcDbLayerTableRecord
  2
M-FLAG
 70
0
 62
1
  6
Continuous
370
-3
390
13
347
21
1001
AcAecLayerStandard
1000

1000
Open items, data-required flags, warnings
  0
LAYER
  5
120
330
1
100
AcDbSymbolTableRecord
100
AcDbLayerTableRecord
  2
G-TOPSOIL
 70
0
 62
30
  6
Continuous
370
-3
390
13
347
21
1001
AcAecLayerStandard
1000

1000
Black cotton soil - CH, very high swell
  0
LAYER
  5
121
330
1
100
AcDbSymbolTableRecord
100
AcDbLayerTableRecord
  2
G-MURRUM
 70
0
 62
42
  6
Continuous
370
-3
390
13
347
21
1001
AcAecLayerStandard
1000

1000
Murrum - GM / GP / SC
  0
LAYER
  5
122
330
1
100
AcDbSymbolTableRecord
100
AcDbLayerTableRecord
  2
G-BROKEN
 70
0
 62
33
  6
Continuous
370
-3
390
13
347
21
1001
AcAecLayerStandard
1000

1000
Disintegrated broken basalt
  0
LAYER
  5
123
330
1
100
AcDbSymbolTableRecord
100
AcDbLayerTableRecord
  2
G-ROCK
 70
0
 62
8
  6
Continuous
370
-3
390
13
347
21
1001
AcAecLayerStandard
1000

1000
Sound basalt
  0
LAYER
  5
124
330
1
100
AcDbSymbolTableRecord
100
AcDbLayerTableRecord
  2
G-NODATA
 70
0
 62
1
  6
Continuous
370
-3
390
13
347
21
1001
AcAecLayerStandard
1000

1000
BELOW THE INVESTIGATION - NO DATA EXISTS
  0
LAYER
  5
125
330
1
100
AcDbSymbolTableRecord
100
AcDbLayerTableRecord
  2
G-WATER
 70
0
 62
4
  6
Continuous
370
-3
390
13
347
21
1001
AcAecLayerStandard
1000

1000
Design groundwater table - ASSUMED
  0
LAYER
  5
126
330
1
100
AcDbSymbolTableRecord
100
AcDbLayerTableRecord
  2
G-STRUCT
 70
0
 62
7
  6
Continuous
370
-3
390
13
347
21
1001
AcAecLayerStandard
1000

1000
Structure, for comparison only
  0
LAYER
  5
127
330
1
100
AcDbSymbolTableRecord
100
AcDbLayerTableRecord
  2
G-LOG
 70
0
 62
7
  6
Continuous
370
-3
390
13
347
21
1001
AcAecLayerStandard
1000

1000
Trial pit log outline
  0
LAYER
  5
128
330
1
100
AcDbSymbolTableRecord
100
AcDbLayerTableRecord
  2
G-SETTING
 70
0
 62
5
  6
Continuous
370
-3
390
13
347
21
1001
AcAecLayerStandard
1000

1000
Site setting diagram - NOT a site plan
  0
LAYER
  5
129
330
1
100
AcDbSymbolTableRecord
100
AcDbLayerTableRecord
  2
G-FLAGG
 70
0
 62
1
  6
Continuous
370
-3
390
13
347
21
1001
AcAecLayerStandard
1000

1000
Open items and findings
  0
ENDTAB
  0
TABLE
  2
STYLE
  5
5
330
0
100
AcDbSymbolTable
 70
26
  0
STYLE
  5
29
330
5
100
AcDbSymbolTableRecord
100
AcDbTextStyleTableRecord
  2
Standard
 70
0
 40
0.0
 41
1.0
 50
0.0
 71
0
 42
2.5
  3
txt
  4

  0
STYLE
  5
41
330
5
100
AcDbSymbolTableRecord
100
AcDbTextStyleTableRecord
  2
OpenSans-Light
 70
0
 40
0.0
 41
1.0
 50
0.0
 71
0
 42
2.5
  3
OpenSans-Light.ttf
  4

  0
STYLE
  5
42
330
5
100
AcDbSymbolTableRecord
100
AcDbTextStyleTableRecord
  2
OpenSans-Light-Italic
 70
0
 40
0.0
 41
1.0
 50
0.0
 71
0
 42
2.5
  3
OpenSans-LightItalic.ttf
  4

  0
STYLE
  5
43
330
5
100
AcDbSymbolTableRecord
100
AcDbTextStyleTableRecord
  2
OpenSans
 70
0
 40
0.0
 41
1.0
 50
0.0
 71
0
 42
2.5
  3
OpenSans-Regular.ttf
  4

  0
STYLE
  5
44
330
5
100
AcDbSymbolTableRecord
100
AcDbTextStyleTableRecord
  2
OpenSans-Italic
 70
0
 40
0.0
 41
1.0
 50
0.0
 71
0
 42
2.5
  3
OpenSans-Italic.ttf
  4

  0
STYLE
  5
45
330
5
100
AcDbSymbolTableRecord
100
AcDbTextStyleTableRecord
  2
OpenSans-SemiBold
 70
0
 40
0.0
 41
1.0
 50
0.0
 71
0
 42
2.5
  3
OpenSans-SemiBold.ttf
  4

  0
STYLE
  5
46
330
5
100
AcDbSymbolTableRecord
100
AcDbTextStyleTableRecord
  2
OpenSans-SemiBoldItalic
 70
0
 40
0.0
 41
1.0
 50
0.0
 71
0
 42
2.5
  3
OpenSans-SemiBoldItalic.ttf
  4

  0
STYLE
  5
47
330
5
100
AcDbSymbolTableRecord
100
AcDbTextStyleTableRecord
  2
OpenSans-Bold
 70
0
 40
0.0
 41
1.0
 50
0.0
 71
0
 42
2.5
  3
OpenSans-Bold.ttf
  4

  0
STYLE
  5
48
330
5
100
AcDbSymbolTableRecord
100
AcDbTextStyleTableRecord
  2
OpenSans-BoldItalic
 70
0
 40
0.0
 41
1.0
 50
0.0
 71
0
 42
2.5
  3
OpenSans-BoldItalic.ttf
  4

  0
STYLE
  5
49
330
5
100
AcDbSymbolTableRecord
100
AcDbTextStyleTableRecord
  2
OpenSans-ExtraBold
 70
0
 40
0.0
 41
1.0
 50
0.0
 71
0
 42
2.5
  3
OpenSans-ExtraBold.ttf
  4

  0
STYLE
  5
4A
330
5
100
AcDbSymbolTableRecord
100
AcDbTextStyleTableRecord
  2
OpenSans-ExtraBoldItalic
 70
0
 40
0.0
 41
1.0
 50
0.0
 71
0
 42
2.5
  3
OpenSans-ExtraBoldItalic.ttf
  4

  0
STYLE
  5
4B
330
5
100
AcDbSymbolTableRecord
100
AcDbTextStyleTableRecord
  2
OpenSansCondensed-Bold
 70
0
 40
0.0
 41
1.0
 50
0.0
 71
0
 42
2.5
  3
OpenSansCondensed-Bold.ttf
  4

  0
STYLE
  5
4C
330
5
100
AcDbSymbolTableRecord
100
AcDbTextStyleTableRecord
  2
OpenSansCondensed-Light
 70
0
 40
0.0
 41
1.0
 50
0.0
 71
0
 42
2.5
  3
OpenSansCondensed-Light.ttf
  4

  0
STYLE
  5
4D
330
5
100
AcDbSymbolTableRecord
100
AcDbTextStyleTableRecord
  2
OpenSansCondensed-Italic
 70
0
 40
0.0
 41
1.0
 50
0.0
 71
0
 42
2.5
  3
OpenSansCondensed-LightItalic.ttf
  4

  0
STYLE
  5
4E
330
5
100
AcDbSymbolTableRecord
100
AcDbTextStyleTableRecord
  2
LiberationSans
 70
0
 40
0.0
 41
1.0
 50
0.0
 71
0
 42
2.5
  3
LiberationSans-Regular.ttf
  4

  0
STYLE
  5
4F
330
5
100
AcDbSymbolTableRecord
100
AcDbTextStyleTableRecord
  2
LiberationSans-Bold
 70
0
 40
0.0
 41
1.0
 50
0.0
 71
0
 42
2.5
  3
LiberationSans-Bold.ttf
  4

  0
STYLE
  5
50
330
5
100
AcDbSymbolTableRecord
100
AcDbTextStyleTableRecord
  2
LiberationSans-BoldItalic
 70
0
 40
0.0
 41
1.0
 50
0.0
 71
0
 42
2.5
  3
LiberationSans-BoldItalic.ttf
  4

  0
STYLE
  5
51
330
5
100
AcDbSymbolTableRecord
100
AcDbTextStyleTableRecord
  2
LiberationSans-Italic
 70
0
 40
0.0
 41
1.0
 50
0.0
 71
0
 42
2.5
  3
LiberationSans-Italic.ttf
  4

  0
STYLE
  5
52
330
5
100
AcDbSymbolTableRecord
100
AcDbTextStyleTableRecord
  2
LiberationSerif
 70
0
 40
0.0
 41
1.0
 50
0.0
 71
0
 42
2.5
  3
LiberationSerif-Regular.ttf
  4

  0
STYLE
  5
53
330
5
100
AcDbSymbolTableRecord
100
AcDbTextStyleTableRecord
  2
LiberationSerif-Bold
 70
0
 40
0.0
 41
1.0
 50
0.0
 71
0
 42
2.5
  3
LiberationSerif-Bold.ttf
  4

  0
STYLE
  5
54
330
5
100
AcDbSymbolTableRecord
100
AcDbTextStyleTableRecord
  2
LiberationSerif-BoldItalic
 70
0
 40
0.0
 41
1.0
 50
0.0
 71
0
 42
2.5
  3
LiberationSerif-BoldItalic.ttf
  4

  0
STYLE
  5
55
330
5
100
AcDbSymbolTableRecord
100
AcDbTextStyleTableRecord
  2
LiberationSerif-Italic
 70
0
 40
0.0
 41
1.0
 50
0.0
 71
0
 42
2.5
  3
LiberationSerif-Italic.ttf
  4

  0
STYLE
  5
56
330
5
100
AcDbSymbolTableRecord
100
AcDbTextStyleTableRecord
  2
LiberationMono
 70
0
 40
0.0
 41
1.0
 50
0.0
 71
0
 42
2.5
  3
LiberationMono-Regular.ttf
  4

  0
STYLE
  5
57
330
5
100
AcDbSymbolTableRecord
100
AcDbTextStyleTableRecord
  2
LiberationMono-Bold
 70
0
 40
0.0
 41
1.0
 50
0.0
 71
0
 42
2.5
  3
LiberationMono-Bold.ttf
  4

  0
STYLE
  5
58
330
5
100
AcDbSymbolTableRecord
100
AcDbTextStyleTableRecord
  2
LiberationMono-BoldItalic
 70
0
 40
0.0
 41
1.0
 50
0.0
 71
0
 42
2.5
  3
LiberationMono-BoldItalic.ttf
  4

  0
STYLE
  5
59
330
5
100
AcDbSymbolTableRecord
100
AcDbTextStyleTableRecord
  2
LiberationMono-Italic
 70
0
 40
0.0
 41
1.0
 50
0.0
 71
0
 42
2.5
  3
LiberationMono-Italic.ttf
  4

  0
ENDTAB
  0
TABLE
  2
VIEW
  5
7
330
0
100
AcDbSymbolTable
 70
0
  0
ENDTAB
  0
TABLE
  2
UCS
  5
6
330
0
100
AcDbSymbolTable
 70
0
  0
ENDTAB
  0
TABLE
  2
APPID
  5
3
330
0
100
AcDbSymbolTable
 70
4
  0
APPID
  5
2A
330
3
100
AcDbSymbolTableRecord
100
AcDbRegAppTableRecord
  2
ACAD
 70
0
  0
APPID
  5
8B
330
3
100
AcDbSymbolTableRecord
100
AcDbRegAppTableRecord
  2
AcAecLayerStandard
 70
0
  0
APPID
  5
350
330
3
100
AcDbSymbolTableRecord
100
AcDbRegAppTableRecord
  2
HATCHBACKGROUNDCOLOR
 70
0
  0
APPID
  5
351
330
3
100
AcDbSymbolTableRecord
100
AcDbRegAppTableRecord
  2
EZDXF
 70
0
  0
ENDTAB
  0
TABLE
  2
DIMSTYLE
  5
4
330
0
100
AcDbSymbolTable
 70
14
100
AcDbDimStyleTable
  0
DIMSTYLE
105
2B
330
4
100
AcDbSymbolTableRecord
100
AcDbDimStyleTableRecord
  2
Standard
 70
0
 40
1.0
 41
2.5
 42
0.625
 43
3.75
 44
1.25
 45
0.0
 46
0.0
 47
0.0
 48
0.0
 49
2.5
140
2.5
141
2.5
142
0.0
143
0.03937007874
144
1.0
145
0.0
146
1.0
147
0.625
148
0.0
 69
0
 70
0
 71
0
 72
0
 73
0
 74
0
 75
0
 76
0
 77
1
 78
8
 79
3
170
0
171
3
172
1
173
0
174
0
175
0
176
0
177
0
178
0
179
2
271
2
272
2
273
2
274
3
275
0
276
0
277
2
278
44
279
0
280
0
281
0
282
0
283
0
284
8
285
0
286
0
288
0
289
3
290
0
371
-2
372
-2
  0
DIMSTYLE
105
73
330
4
100
AcDbSymbolTableRecord
100
AcDbDimStyleTableRecord
  2
EZDXF
 70
0
 40
1.0
 41
0.175
 42
0.125
 43
3.75
 44
0.375
 45
0.0
 46
0.0
 47
0.0
 48
0.0
 49
2.5
140
0.25
141
2.5
142
0.0
143
0.03937007874
144
100.0
145
0.0
146
0.5
147
0.1
148
0.0
 69
0
 70
0
 71
0
 72
0
 73
0
 74
0
 75
0
 76
0
 77
1
 78
12
 79
3
170
0
171
3
172
1
173
0
174
0
175
0
176
0
177
0
178
0
179
2
271
2
272
2
273
2
274
3
275
0
276
0
277
2
278
46
279
2
280
0
281
0
282
0
283
0
284
8
285
0
286
0
288
1
289
3
290
0
340
4C
342
74
371
-2
372
-2
  0
DIMSTYLE
105
7C
330
4
100
AcDbSymbolTableRecord
100
AcDbDimStyleTableRecord
  2
EZ_M_100_H25_CM
 70
0
 40
1.0
 41
0.25
 42
0.125
 43
3.75
 44
0.375
 45
0.0
 46
0.0
 47
0.0
 48
0.0
 49
2.5
140
0.25
141
2.5
142
0.125
143
0.03937007874
144
100.0
145
0.0
146
0.5
147
0.1
148
0.0
 69
0
 70
0
 71
0
 72
0
 73
0
 74
0
 75
0
 76
0
 77
1
 78
12
 79
3
170
0
171
3
172
1
173
0
174
0
175
0
176
0
177
0
178
0
179
2
271
2
272
2
273
2
274
3
275
0
276
0
277
2
278
46
279
2
280
0
281
0
282
0
283
0
284
8
285
0
286
0
288
1
289
3
290
0
340
4C
371
-2
372
-2
  0
DIMSTYLE
105
7D
330
4
100
AcDbSymbolTableRecord
100
AcDbDimStyleTableRecord
  2
EZ_M_50_H25_CM
 70
0
 40
1.0
 41
0.125
 42
0.0625
 43
3.75
 44
0.1875
 45
0.0
 46
0.0
 47
0.0
 48
0.0
 49
2.5
140
0.125
141
2.5
142
0.0625
143
0.03937007874
144
100.0
145
0.0
146
0.5
147
0.05
148
0.0
 69
0
 70
0
 71
0
 72
0
 73
0
 74
0
 75
0
 76
0
 77
1
 78
12
 79
3
170
0
171
3
172
1
173
0
174
0
175
0
176
0
177
0
178
0
179
2
271
2
272
2
273
2
274
3
275
0
276
0
277
2
278
46
279
2
280
0
281
0
282
0
283
0
284
8
285
0
286
0
288
1
289
3
290
0
340
4C
371
-2
372
-2
  0
DIMSTYLE
105
7E
330
4
100
AcDbSymbolTableRecord
100
AcDbDimStyleTableRecord
  2
EZ_M_25_H25_CM
 70
0
 40
1.0
 41
0.0625
 42
0.03125
 43
3.75
 44
0.09375
 45
0.0
 46
0.0
 47
0.0
 48
0.0
 49
2.5
140
0.0625
141
2.5
142
0.03125
143
0.03937007874
144
100.0
145
0.0
146
0.5
147
0.025
148
0.0
 69
0
 70
0
 71
0
 72
0
 73
0
 74
0
 75
0
 76
0
 77
1
 78
12
 79
3
170
0
171
3
172
1
173
0
174
0
175
0
176
0
177
0
178
0
179
2
271
2
272
2
273
2
274
3
275
0
276
0
277
2
278
46
279
2
280
0
281
0
282
0
283
0
284
8
285
0
286
0
288
1
289
3
290
0
340
4C
371
-2
372
-2
  0
DIMSTYLE
105
7F
330
4
100
AcDbSymbolTableRecord
100
AcDbDimStyleTableRecord
  2
EZ_M_20_H25_CM
 70
0
 40
1.0
 41
0.05
 42
0.025
 43
3.75
 44
0.07500000000000001
 45
0.0
 46
0.0
 47
0.0
 48
0.0
 49
2.5
140
0.05
141
2.5
142
0.025
143
0.03937007874
144
100.0
145
0.0
146
0.5
147
0.020000000000000004
148
0.0
 69
0
 70
0
 71
0
 72
0
 73
0
 74
0
 75
0
 76
0
 77
1
 78
12
 79
3
170
0
171
3
172
1
173
0
174
0
175
0
176
0
177
0
178
0
179
2
271
2
272
2
273
2
274
3
275
0
276
0
277
2
278
46
279
2
280
0
281
0
282
0
283
0
284
8
285
0
286
0
288
1
289
3
290
0
340
4C
371
-2
372
-2
  0
DIMSTYLE
105
80
330
4
100
AcDbSymbolTableRecord
100
AcDbDimStyleTableRecord
  2
EZ_M_10_H25_CM
 70
0
 40
1.0
 41
0.025
 42
0.0125
 43
3.75
 44
0.037500000000000006
 45
0.0
 46
0.0
 47
0.0
 48
0.0
 49
2.5
140
0.025
141
2.5
142
0.0125
143
0.03937007874
144
100.0
145
0.0
146
0.5
147
0.010000000000000002
148
0.0
 69
0
 70
0
 71
0
 72
0
 73
0
 74
0
 75
0
 76
0
 77
1
 78
12
 79
3
170
0
171
3
172
1
173
0
174
0
175
0
176
0
177
0
178
0
179
2
271
2
272
2
273
2
274
3
275
0
276
0
277
2
278
46
279
2
280
0
281
0
282
0
283
0
284
8
285
0
286
0
288
1
289
3
290
0
340
4C
371
-2
372
-2
  0
DIMSTYLE
105
81
330
4
100
AcDbSymbolTableRecord
100
AcDbDimStyleTableRecord
  2
EZ_M_5_H25_CM
 70
0
 40
1.0
 41
0.0125
 42
0.00625
 43
3.75
 44
0.018750000000000003
 45
0.0
 46
0.0
 47
0.0
 48
0.0
 49
2.5
140
0.0125
141
2.5
142
0.00625
143
0.03937007874
144
100.0
145
0.0
146
0.5
147
0.005000000000000001
148
0.0
 69
0
 70
0
 71
0
 72
0
 73
0
 74
0
 75
0
 76
0
 77
1
 78
12
 79
3
170
0
171
3
172
1
173
0
174
0
175
0
176
0
177
0
178
0
179
2
271
2
272
2
273
2
274
3
275
0
276
0
277
2
278
46
279
2
280
0
281
0
282
0
283
0
284
8
285
0
286
0
288
1
289
3
290
0
340
4C
371
-2
372
-2
  0
DIMSTYLE
105
82
330
4
100
AcDbSymbolTableRecord
100
AcDbDimStyleTableRecord
  2
EZ_M_1_H25_CM
 70
0
 40
1.0
 41
0.0025
 42
0.00125
 43
3.75
 44
0.00375
 45
0.0
 46
0.0
 47
0.0
 48
0.0
 49
2.5
140
0.0025
141
2.5
142
0.00125
143
0.03937007874
144
100.0
145
0.0
146
0.5
147
0.001
148
0.0
 69
0
 70
0
 71
0
 72
0
 73
0
 74
0
 75
0
 76
0
 77
1
 78
12
 79
3
170
0
171
3
172
1
173
0
174
0
175
0
176
0
177
0
178
0
179
2
271
2
272
2
273
2
274
3
275
0
276
0
277
2
278
46
279
2
280
0
281
0
282
0
283
0
284
8
285
0
286
0
288
1
289
3
290
0
340
4C
371
-2
372
-2
  0
DIMSTYLE
105
83
330
4
100
AcDbSymbolTableRecord
100
AcDbDimStyleTableRecord
  2
EZ_RADIUS
 70
0
 40
1.0
 41
0.25
 42
0.125
 43
3.75
 44
0.375
 45
0.0
 46
0.0
 47
0.0
 48
0.0
 49
2.5
140
0.25
141
0.0
142
0.0
143
0.03937007874
144
100.0
145
0.0
146
0.5
147
0.1
148
0.0
 69
0
 70
0
 71
0
 72
0
 73
0
 74
0
 75
0
 76
0
 77
1
 78
12
 79
3
170
0
171
3
172
0
173
0
174
0
175
0
176
0
177
0
178
0
179
2
271
2
272
2
273
2
274
3
275
0
276
0
277
2
278
46
279
1
280
0
281
0
282
0
283
0
284
8
285
0
286
0
288
1
289
3
290
0
340
4C
342
84
371
-2
372
-2
  0
DIMSTYLE
105
88
330
4
100
AcDbSymbolTableRecord
100
AcDbDimStyleTableRecord
  2
EZ_RADIUS_INSIDE
 70
0
 40
1.0
 41
0.25
 42
0.125
 43
3.75
 44
0.375
 45
0.0
 46
0.0
 47
0.0
 48
0.0
 49
2.5
140
0.25
141
0.0
142
0.0
143
0.03937007874
144
100.0
145
0.0
146
0.5
147
0.1
148
0.0
 69
0
 70
0
 71
0
 72
0
 73
0
 74
0
 75
0
 76
0
 77
0
 78
12
 79
3
170
0
171
3
172
0
173
0
174
1
175
0
176
0
177
0
178
0
179
2
271
2
272
2
273
2
274
3
275
0
276
0
277
2
278
46
279
0
280
0
281
0
282
0
283
0
284
8
285
0
286
0
288
1
289
0
290
0
340
4C
342
84
371
-2
372
-2
  0
DIMSTYLE
105
89
330
4
100
AcDbSymbolTableRecord
100
AcDbDimStyleTableRecord
  2
EZ_CURVED
 70
0
 40
1.0
 41
0.25
 42
0.125
 43
3.75
 44
0.375
 45
0.0
 46
0.0
 47
0.0
 48
0.0
 49
2.5
140
0.25
141
2.5
142
0.0
143
0.03937007874
144
100.0
145
0.0
146
0.5
147
0.1
148
0.0
 69
0
 70
0
 71
0
 72
0
 73
0
 74
0
 75
0
 76
0
 77
1
 78
12
 79
2
 90
2
170
0
171
3
172
1
173
0
174
0
175
0
176
0
177
0
178
0
179
2
271
2
272
2
273
2
274
3
275
0
276
0
277
2
278
46
279
2
280
0
281
0
282
0
283
0
284
8
285
0
286
0
288
1
289
3
290
0
340
4C
371
-2
372
-2
  0
DIMSTYLE
105
A3
330
4
100
AcDbSymbolTableRecord
100
AcDbDimStyleTableRecord
  2
SC-DIM
 70
0
 40
1.0
 41
1.6
 42
1.0
 43
3.75
 44
1.2
 45
0.0
 46
0.0
 47
0.0
 48
0.0
 49
2.5
140
1.8
141
2.5
142
0.0
143
0.03937007874
144
1.0
145
0.0
146
1.0
147
0.8
148
0.0
 69
0
 70
0
 71
0
 72
0
 73
0
 74
0
 75
0
 76
0
 77
1
 78
8
 79
3
170
0
171
3
172
1
173
0
174
0
175
0
176
4
177
4
178
4
179
2
271
0
272
2
273
2
274
3
275
0
276
0
277
2
278
44
279
0
280
0
281
0
282
0
283
0
284
8
285
0
286
0
288
0
289
3
290
0
342
74
371
13
372
13
  0
DIMSTYLE
105
A4
330
4
100
AcDbSymbolTableRecord
100
AcDbDimStyleTableRecord
  2
SC-DIM-S
 70
0
 40
1.0
 41
1.2
 42
1.0
 43
3.75
 44
1.2
 45
0.0
 46
0.0
 47
0.0
 48
0.0
 49
2.5
140
1.4
141
2.5
142
0.0
143
0.03937007874
144
1.0
145
0.0
146
1.0
147
0.8
148
0.0
 69
0
 70
0
 71
0
 72
0
 73
0
 74
0
 75
0
 76
0
 77
1
 78
8
 79
3
170
0
171
3
172
1
173
0
174
0
175
0
176
4
177
4
178
4
179
2
271
0
272
2
273
2
274
3
275
0
276
0
277
2
278
44
279
0
280
0
281
0
282
0
283
0
284
8
285
0
286
0
288
0
289
3
290
0
342
74
371
13
372
13
  0
ENDTAB
  0
TABLE
  2
BLOCK_RECORD
  5
9
330
0
100
AcDbSymbolTable
 70
20
  0
BLOCK_RECORD
  5
17
330
9
100
AcDbSymbolTableRecord
100
AcDbBlockTableRecord
  2
*Model_Space
340
1A
 70
0
280
1
281
0
  0
BLOCK_RECORD
  5
1B
330
9
100
AcDbSymbolTableRecord
100
AcDbBlockTableRecord
  2
*Paper_Space
340
1E
 70
0
280
1
281
0
  0
BLOCK_RECORD
  5
74
330
9
100
AcDbSymbolTableRecord
100
AcDbBlockTableRecord
  2
_ARCHTICK
340
0
 70
0
280
1
281
0
  0
BLOCK_RECORD
  5
78
330
9
100
AcDbSymbolTableRecord
100
AcDbBlockTableRecord
  2
_CLOSEDFILLED
340
0
 70
0
280
1
281
0
  0
BLOCK_RECORD
  5
84
330
9
100
AcDbSymbolTableRecord
100
AcDbBlockTableRecord
  2
_CLOSEDBLANK
340
0
 70
0
280
1
281
0
  0
BLOCK_RECORD
  5
A5
330
9
100
AcDbSymbolTableRecord
100
AcDbBlockTableRecord
  2
BARMARK
340
0
 70
0
280
1
281
0
  0
BLOCK_RECORD
  5
A9
330
9
100
AcDbSymbolTableRecord
100
AcDbBlockTableRecord
  2
SECMARK
340
0
 70
0
280
1
281
0
  0
BLOCK_RECORD
  5
AE
330
9
100
AcDbSymbolTableRecord
100
AcDbBlockTableRecord
  2
LEVELMK
340
0
 70
0
280
1
281
0
  0
BLOCK_RECORD
  5
B2
330
9
100
AcDbSymbolTableRecord
100
AcDbBlockTableRecord
  2
NORTH
340
0
 70
0
280
1
281
0
  0
BLOCK_RECORD
  5
E0
330
9
100
AcDbSymbolTableRecord
100
AcDbBlockTableRecord
  2
GULLY
340
0
 70
0
280
1
281
0
  0
BLOCK_RECORD
  5
E6
330
9
100
AcDbSymbolTableRecord
100
AcDbBlockTableRecord
  2
CHAMBER
340
0
 70
0
280
1
281
0
  0
BLOCK_RECORD
  5
EB
330
9
100
AcDbSymbolTableRecord
100
AcDbBlockTableRecord
  2
PUMP
340
0
 70
0
280
1
281
0
  0
BLOCK_RECORD
  5
F0
330
9
100
AcDbSymbolTableRecord
100
AcDbBlockTableRecord
  2
CLEANOUT
340
0
 70
0
280
1
281
0
  0
BLOCK_RECORD
  5
F5
330
9
100
AcDbSymbolTableRecord
100
AcDbBlockTableRecord
  2
NRV
340
0
 70
0
280
1
281
0
  0
BLOCK_RECORD
  5
FA
330
9
100
AcDbSymbolTableRecord
100
AcDbBlockTableRecord
  2
VALVE
340
0
 70
0
280
1
281
0
  0
BLOCK_RECORD
  5
FF
330
9
100
AcDbSymbolTableRecord
100
AcDbBlockTableRecord
  2
DIFFUSER
340
0
 70
0
280
1
281
0
  0
BLOCK_RECORD
  5
108
330
9
100
AcDbSymbolTableRecord
100
AcDbBlockTableRecord
  2
GRILLE
340
0
 70
0
280
1
281
0
  0
BLOCK_RECORD
  5
10F
330
9
100
AcDbSymbolTableRecord
100
AcDbBlockTableRecord
  2
BVALVE
340
0
 70
0
280
1
281
0
  0
BLOCK_RECORD
  5
115
330
9
100
AcDbSymbolTableRecord
100
AcDbBlockTableRecord
  2
FANSYM
340
0
 70
0
280
1
281
0
  0
BLOCK_RECORD
  5
11A
330
9
100
AcDbSymbolTableRecord
100
AcDbBlockTableRecord
  2
FINTAG
340
0
 70
0
280
1
281
0
  0
ENDTAB
  0
ENDSEC
  0
SECTION
  2
BLOCKS
  0
BLOCK
  5
18
330
17
100
AcDbEntity
  8
0
100
AcDbBlockBegin
  2
*Model_Space
 70
0
 10
0.0
 20
0.0
 30
0.0
  3
*Model_Space
  1

  0
ENDBLK
  5
19
330
17
100
AcDbEntity
  8
0
100
AcDbBlockEnd
  0
BLOCK
  5
1C
330
1B
100
AcDbEntity
  8
0
100
AcDbBlockBegin
  2
*Paper_Space
 70
0
 10
0.0
 20
0.0
 30
0.0
  3
*Paper_Space
  1

  0
ENDBLK
  5
1D
330
1B
100
AcDbEntity
  8
0
100
AcDbBlockEnd
  0
BLOCK
  5
75
330
74
100
AcDbEntity
  8
0
100
AcDbBlockBegin
  2
_ARCHTICK
 70
0
 10
0.0
 20
0.0
 30
0.0
  3
_ARCHTICK
  1

  0
LWPOLYLINE
  5
77
330
74
100
AcDbEntity
  8
0
  6
BYBLOCK
 62
0
100
AcDbPolyline
 90
2
 70
0
 43
0.15
 10
-0.5
 20
-0.5
 10
0.5
 20
0.5
  0
ENDBLK
  5
76
330
74
100
AcDbEntity
  8
0
100
AcDbBlockEnd
  0
BLOCK
  5
79
330
78
100
AcDbEntity
  8
0
100
AcDbBlockBegin
  2
_CLOSEDFILLED
 70
0
 10
0.0
 20
0.0
 30
0.0
  3
_CLOSEDFILLED
  1

  0
SOLID
  5
7B
330
78
100
AcDbEntity
  8
0
  6
BYBLOCK
 62
0
100
AcDbTrace
 10
-1.0
 20
0.16439898372402537
 30
0.0
 11
0.0
 21
0.0
 31
0.0
 12
-1.0
 22
-0.16439898372402537
 32
0.0
 13
-1.0
 23
-0.16439898372402537
 33
0.0
  0
ENDBLK
  5
7A
330
78
100
AcDbEntity
  8
0
100
AcDbBlockEnd
  0
BLOCK
  5
85
330
84
100
AcDbEntity
  8
0
100
AcDbBlockBegin
  2
_CLOSEDBLANK
 70
0
 10
0.0
 20
0.0
 30
0.0
  3
_CLOSEDBLANK
  1

  0
LWPOLYLINE
  5
87
330
84
100
AcDbEntity
  8
0
  6
BYBLOCK
 62
0
100
AcDbPolyline
 90
3
 70
1
 10
-1.0
 20
0.16439898372402537
 10
0.0
 20
0.0
 10
-1.0
 20
-0.16439898372402537
  0
ENDBLK
  5
86
330
84
100
AcDbEntity
  8
0
100
AcDbBlockEnd
  0
BLOCK
  5
A6
330
A5
100
AcDbEntity
  8
0
100
AcDbBlockBegin
  2
BARMARK
 70
0
 10
0.0
 20
0.0
 30
0.0
  3
BARMARK
  1

  0
CIRCLE
  5
A8
330
A5
100
AcDbEntity
  8
S-CALLOUT
100
AcDbCircle
 10
0.0
 20
0.0
 30
0.0
 40
3.2
  0
ENDBLK
  5
A7
330
A5
100
AcDbEntity
  8
0
100
AcDbBlockEnd
  0
BLOCK
  5
AA
330
A9
100
AcDbEntity
  8
0
100
AcDbBlockBegin
  2
SECMARK
 70
0
 10
0.0
 20
0.0
 30
0.0
  3
SECMARK
  1

  0
CIRCLE
  5
AC
330
A9
100
AcDbEntity
  8
S-SECTION
100
AcDbCircle
 10
0.0
 20
0.0
 30
0.0
 40
4.0
  0
LINE
  5
AD
330
A9
100
AcDbEntity
  8
S-SECTION
100
AcDbLine
 10
-4.0
 20
0.0
 30
0.0
 11
4.0
 21
0.0
 31
0.0
  0
ENDBLK
  5
AB
330
A9
100
AcDbEntity
  8
0
100
AcDbBlockEnd
  0
BLOCK
  5
AF
330
AE
100
AcDbEntity
  8
0
100
AcDbBlockBegin
  2
LEVELMK
 70
0
 10
0.0
 20
0.0
 30
0.0
  3
LEVELMK
  1

  0
LWPOLYLINE
  5
B1
330
AE
100
AcDbEntity
  8
S-LEVEL
100
AcDbPolyline
 90
4
 70
1
 10
0.0
 20
0.0
 10
-2.0
 20
3.0
 10
2.0
 20
3.0
 10
0.0
 20
0.0
  0
ENDBLK
  5
B0
330
AE
100
AcDbEntity
  8
0
100
AcDbBlockEnd
  0
BLOCK
  5
B3
330
B2
100
AcDbEntity
  8
0
100
AcDbBlockBegin
  2
NORTH
 70
0
 10
0.0
 20
0.0
 30
0.0
  3
NORTH
  1

  0
LWPOLYLINE
  5
B5
330
B2
100
AcDbEntity
  8
S-TITLE
100
AcDbPolyline
 90
5
 70
1
 10
0.0
 20
10.0
 10
-3.2
 20
-6.0
 10
0.0
 20
-2.4
 10
3.2
 20
-6.0
 10
0.0
 20
10.0
  0
CIRCLE
  5
B6
330
B2
100
AcDbEntity
  8
S-TITLE
100
AcDbCircle
 10
0.0
 20
0.0
 30
0.0
 40
12.0
  0
ENDBLK
  5
B4
330
B2
100
AcDbEntity
  8
0
100
AcDbBlockEnd
  0
BLOCK
  5
E1
330
E0
100
AcDbEntity
  8
0
100
AcDbBlockBegin
  2
GULLY
 70
0
 10
0.0
 20
0.0
 30
0.0
  3
GULLY
  1

  0
LWPOLYLINE
  5
E3
330
E0
100
AcDbEntity
  8
P-EQUIP
100
AcDbPolyline
 90
4
 70
1
 10
-2.2
 20
-2.2
 10
2.2
 20
-2.2
 10
2.2
 20
2.2
 10
-2.2
 20
2.2
  0
LINE
  5
E4
330
E0
100
AcDbEntity
  8
P-EQUIP
100
AcDbLine
 10
-2.2
 20
-2.2
 30
0.0
 11
2.2
 21
2.2
 31
0.0
  0
LINE
  5
E5
330
E0
100
AcDbEntity
  8
P-EQUIP
100
AcDbLine
 10
-2.2
 20
2.2
 30
0.0
 11
2.2
 21
-2.2
 31
0.0
  0
ENDBLK
  5
E2
330
E0
100
AcDbEntity
  8
0
100
AcDbBlockEnd
  0
BLOCK
  5
E7
330
E6
100
AcDbEntity
  8
0
100
AcDbBlockBegin
  2
CHAMBER
 70
0
 10
0.0
 20
0.0
 30
0.0
  3
CHAMBER
  1

  0
LWPOLYLINE
  5
E9
330
E6
100
AcDbEntity
  8
P-EQUIP
100
AcDbPolyline
 90
4
 70
1
 10
-3.0
 20
-3.0
 10
3.0
 20
-3.0
 10
3.0
 20
3.0
 10
-3.0
 20
3.0
  0
CIRCLE
  5
EA
330
E6
100
AcDbEntity
  8
P-EQUIP
100
AcDbCircle
 10
0.0
 20
0.0
 30
0.0
 40
1.9
  0
ENDBLK
  5
E8
330
E6
100
AcDbEntity
  8
0
100
AcDbBlockEnd
  0
BLOCK
  5
EC
330
EB
100
AcDbEntity
  8
0
100
AcDbBlockBegin
  2
PUMP
 70
0
 10
0.0
 20
0.0
 30
0.0
  3
PUMP
  1

  0
CIRCLE
  5
EE
330
EB
100
AcDbEntity
  8
P-EQUIP
100
AcDbCircle
 10
0.0
 20
0.0
 30
0.0
 40
2.6
  0
LWPOLYLINE
  5
EF
330
EB
100
AcDbEntity
  8
P-EQUIP
100
AcDbPolyline
 90
3
 70
1
 10
-1.5
 20
-1.5
 10
1.9
 20
0.0
 10
-1.5
 20
1.5
  0
ENDBLK
  5
ED
330
EB
100
AcDbEntity
  8
0
100
AcDbBlockEnd
  0
BLOCK
  5
F1
330
F0
100
AcDbEntity
  8
0
100
AcDbBlockBegin
  2
CLEANOUT
 70
0
 10
0.0
 20
0.0
 30
0.0
  3
CLEANOUT
  1

  0
CIRCLE
  5
F3
330
F0
100
AcDbEntity
  8
P-EQUIP
100
AcDbCircle
 10
0.0
 20
0.0
 30
0.0
 40
1.6
  0
LINE
  5
F4
330
F0
100
AcDbEntity
  8
P-EQUIP
100
AcDbLine
 10
0.0
 20
-1.6
 30
0.0
 11
0.0
 21
1.6
 31
0.0
  0
ENDBLK
  5
F2
330
F0
100
AcDbEntity
  8
0
100
AcDbBlockEnd
  0
BLOCK
  5
F6
330
F5
100
AcDbEntity
  8
0
100
AcDbBlockBegin
  2
NRV
 70
0
 10
0.0
 20
0.0
 30
0.0
  3
NRV
  1

  0
LWPOLYLINE
  5
F8
330
F5
100
AcDbEntity
  8
M-DAMPER
100
AcDbPolyline
 90
3
 70
1
 10
-2.0
 20
-1.8
 10
-2.0
 20
1.8
 10
2.0
 20
0.0
  0
LINE
  5
F9
330
F5
100
AcDbEntity
  8
M-DAMPER
100
AcDbLine
 10
2.0
 20
-1.8
 30
0.0
 11
2.0
 21
1.8
 31
0.0
  0
ENDBLK
  5
F7
330
F5
100
AcDbEntity
  8
0
100
AcDbBlockEnd
  0
BLOCK
  5
FB
330
FA
100
AcDbEntity
  8
0
100
AcDbBlockBegin
  2
VALVE
 70
0
 10
0.0
 20
0.0
 30
0.0
  3
VALVE
  1

  0
LWPOLYLINE
  5
FD
330
FA
100
AcDbEntity
  8
M-DAMPER
100
AcDbPolyline
 90
3
 70
1
 10
-2.0
 20
-1.8
 10
-2.0
 20
1.8
 10
0.0
 20
0.0
  0
LWPOLYLINE
  5
FE
330
FA
100
AcDbEntity
  8
M-DAMPER
100
AcDbPolyline
 90
3
 70
1
 10
2.0
 20
-1.8
 10
2.0
 20
1.8
 10
0.0
 20
0.0
  0
ENDBLK
  5
FC
330
FA
100
AcDbEntity
  8
0
100
AcDbBlockEnd
  0
BLOCK
  5
100
330
FF
100
AcDbEntity
  8
0
100
AcDbBlockBegin
  2
DIFFUSER
 70
0
 10
0.0
 20
0.0
 30
0.0
  3
DIFFUSER
  1

  0
LWPOLYLINE
  5
102
330
FF
100
AcDbEntity
  8
M-TERMINAL
100
AcDbPolyline
 90
4
 70
1
 10
-4.0
 20
-4.0
 10
4.0
 20
-4.0
 10
4.0
 20
4.0
 10
-4.0
 20
4.0
  0
LWPOLYLINE
  5
103
330
FF
100
AcDbEntity
  8
M-TERMINAL
100
AcDbPolyline
 90
4
 70
1
 10
-2.4
 20
-2.4
 10
2.4
 20
-2.4
 10
2.4
 20
2.4
 10
-2.4
 20
2.4
  0
LINE
  5
104
330
FF
100
AcDbEntity
  8
M-TERMINAL
100
AcDbLine
 10
-4.0
 20
-4.0
 30
0.0
 11
-2.4
 21
-2.4
 31
0.0
  0
LINE
  5
105
330
FF
100
AcDbEntity
  8
M-TERMINAL
100
AcDbLine
 10
4.0
 20
-4.0
 30
0.0
 11
2.4
 21
-2.4
 31
0.0
  0
LINE
  5
106
330
FF
100
AcDbEntity
  8
M-TERMINAL
100
AcDbLine
 10
4.0
 20
4.0
 30
0.0
 11
2.4
 21
2.4
 31
0.0
  0
LINE
  5
107
330
FF
100
AcDbEntity
  8
M-TERMINAL
100
AcDbLine
 10
-4.0
 20
4.0
 30
0.0
 11
-2.4
 21
2.4
 31
0.0
  0
ENDBLK
  5
101
330
FF
100
AcDbEntity
  8
0
100
AcDbBlockEnd
  0
BLOCK
  5
109
330
108
100
AcDbEntity
  8
0
100
AcDbBlockBegin
  2
GRILLE
 70
0
 10
0.0
 20
0.0
 30
0.0
  3
GRILLE
  1

  0
LWPOLYLINE
  5
10B
330
108
100
AcDbEntity
  8
M-TERMINAL
100
AcDbPolyline
 90
4
 70
1
 10
-4.0
 20
-2.4
 10
4.0
 20
-2.4
 10
4.0
 20
2.4
 10
-4.0
 20
2.4
  0
LINE
  5
10C
330
108
100
AcDbEntity
  8
M-TERMINAL
100
AcDbLine
 10
-2.0
 20
-2.4
 30
0.0
 11
-2.0
 21
2.4
 31
0.0
  0
LINE
  5
10D
330
108
100
AcDbEntity
  8
M-TERMINAL
100
AcDbLine
 10
0.0
 20
-2.4
 30
0.0
 11
0.0
 21
2.4
 31
0.0
  0
LINE
  5
10E
330
108
100
AcDbEntity
  8
M-TERMINAL
100
AcDbLine
 10
2.0
 20
-2.4
 30
0.0
 11
2.0
 21
2.4
 31
0.0
  0
ENDBLK
  5
10A
330
108
100
AcDbEntity
  8
0
100
AcDbBlockEnd
  0
BLOCK
  5
110
330
10F
100
AcDbEntity
  8
0
100
AcDbBlockBegin
  2
BVALVE
 70
0
 10
0.0
 20
0.0
 30
0.0
  3
BVALVE
  1

  0
CIRCLE
  5
112
330
10F
100
AcDbEntity
  8
M-DAMPER
100
AcDbCircle
 10
0.0
 20
0.0
 30
0.0
 40
3.0
  0
LINE
  5
113
330
10F
100
AcDbEntity
  8
M-DAMPER
100
AcDbLine
 10
-3.0
 20
0.0
 30
0.0
 11
3.0
 21
0.0
 31
0.0
  0
LINE
  5
114
330
10F
100
AcDbEntity
  8
M-DAMPER
100
AcDbLine
 10
-2.1
 20
-2.1
 30
0.0
 11
2.1
 21
2.1
 31
0.0
  0
ENDBLK
  5
111
330
10F
100
AcDbEntity
  8
0
100
AcDbBlockEnd
  0
BLOCK
  5
116
330
115
100
AcDbEntity
  8
0
100
AcDbBlockBegin
  2
FANSYM
 70
0
 10
0.0
 20
0.0
 30
0.0
  3
FANSYM
  1

  0
CIRCLE
  5
118
330
115
100
AcDbEntity
  8
M-EQUIP
100
AcDbCircle
 10
0.0
 20
0.0
 30
0.0
 40
3.4
  0
LWPOLYLINE
  5
119
330
115
100
AcDbEntity
  8
M-EQUIP
100
AcDbPolyline
 90
3
 70
1
 10
-2.4
 20
-1.2
 10
2.4
 20
-1.2
 10
0.0
 20
2.6
  0
ENDBLK
  5
117
330
115
100
AcDbEntity
  8
0
100
AcDbBlockEnd
  0
BLOCK
  5
11B
330
11A
100
AcDbEntity
  8
0
100
AcDbBlockBegin
  2
FINTAG
 70
0
 10
0.0
 20
0.0
 30
0.0
  3
FINTAG
  1

  0
LWPOLYLINE
  5
11D
330
11A
100
AcDbEntity
  8
A-FIN-TAG
100
AcDbPolyline
 90
4
 70
1
 10
0.0
 20
0.0
 10
16.0
 20
0.0
 10
16.0
 20
5.0
 10
0.0
 20
5.0
  0
LINE
  5
11E
330
11A
100
AcDbEntity
  8
A-FIN-TAG
100
AcDbLine
 10
0.0
 20
2.5
 30
0.0
 11
16.0
 21
2.5
 31
0.0
  0
LINE
  5
11F
330
11A
100
AcDbEntity
  8
A-FIN-TAG
100
AcDbLine
 10
8.0
 20
0.0
 30
0.0
 11
8.0
 21
5.0
 31
0.0
  0
ENDBLK
  5
11C
330
11A
100
AcDbEntity
  8
0
100
AcDbBlockEnd
  0
ENDSEC
  0
SECTION
  2
ENTITIES
  0
LWPOLYLINE
  5
B7
330
17
100
AcDbEntity
  8
S-TITLE
100
AcDbPolyline
 90
4
 70
1
 10
0.0
 20
0.0
 10
841.0
 20
0.0
 10
841.0
 20
594.0
 10
0.0
 20
594.0
  0
LWPOLYLINE
  5
B8
330
17
100
AcDbEntity
  8
S-TITLE
100
AcDbPolyline
 90
4
 70
1
 10
10.0
 20
10.0
 10
831.0
 20
10.0
 10
831.0
 20
584.0
 10
10.0
 20
584.0
  0
TEXT
  5
12A
330
17
100
AcDbEntity
  8
S-TITLE
100
AcDbText
 10
14.0
 20
528.0
 30
0.0
 40
3.5
  1
V1   TRIAL PIT LOGS AND THE STRUCTURE, AT THE SAME VERTICAL SCALE
  7
OpenSans
 11
14.0
 21
528.0
 31
0.0
100
AcDbText
  0
LINE
  5
12B
330
17
100
AcDbEntity
  8
S-TITLE
100
AcDbLine
 10
14.0
 20
526.2
 30
0.0
 11
192.96885465505693
 21
526.2
 31
0.0
  0
TEXT
  5
12C
330
17
100
AcDbEntity
  8
S-TEXT
100
AcDbText
 10
14.0
 20
520.8
 30
0.0
 40
2.0
  1
SCALE 1:25, EQUAL BOTH WAYS.  TRANSVERSE SECTION THROUGH THE BOX.  THE CONTRAST IS THE DRAWING.
  7
OpenSans
 11
14.0
 21
520.8
 31
0.0
100
AcDbText
  0
TEXT
  5
12D
330
17
100
AcDbEntity
  8
G-LOG
100
AcDbText
 10
48.0
 20
505.0
 30
0.0
 40
2.2
  1
G BUILDING
  7
OpenSans
 72
1
 11
48.0
 21
505.0
 31
0.0
100
AcDbText
 73
2
  0
TEXT
  5
12E
330
17
100
AcDbEntity
  8
M-TEXT
100
AcDbText
 10
48.0
 20
500.0
 30
0.0
 40
1.8
  1
TP-1 to TP-4
  7
OpenSans
 72
1
 11
48.0
 21
500.0
 31
0.0
100
AcDbText
 73
2
  0
HATCH
  5
12F
330
17
100
AcDbEntity
  8
G-TOPSOIL
 62
7
100
AcDbHatch
 10
0.0
 20
0.0
 30
0.0
210
0.0
220
0.0
230
1.0
  2
ANSI37
 70
0
 71
0
 91
1
 92
3
 72
0
 73
1
 93
4
 10
22.0
 20
456.0
 10
74.0
 20
456.0
 10
74.0
 20
496.0
 10
22.0
 20
496.0
 97
0
 75
1
 76
1
 52
0.0
 41
1.1
 77
0
 78
2
 53
45.0
 43
0.0
 44
0.0
 45
-2.4695704333
 46
2.4695704333
 79
0
 53
135.0
 43
0.0
 44
0.0
 45
-2.4695704333
 46
-2.4695704333
 79
0
 98
0
  0
LWPOLYLINE
  5
130
330
17
100
AcDbEntity
  8
G-TOPSOIL
100
AcDbPolyline
 90
4
 70
1
 10
22.0
 20
456.0
 10
74.0
 20
456.0
 10
74.0
 20
496.0
 10
22.0
 20
496.0
  0
HATCH
  5
131
330
17
100
AcDbEntity
  8
G-MURRUM
 62
7
100
AcDbHatch
 10
0.0
 20
0.0
 30
0.0
210
0.0
220
0.0
230
1.0
  2
EARTH
 70
0
 71
0
 91
1
 92
3
 72
0
 73
1
 93
4
 10
22.0
 20
448.0
 10
74.0
 20
448.0
 10
74.0
 20
456.0
 10
22.0
 20
456.0
 97
0
 75
1
 76
1
 52
0.0
 41
0.8
 77
0
 78
6
 53
0.0
 43
0.0
 44
0.0
 45
5.08
 46
5.08
 79
2
 49
5.08
 49
-5.08
 53
0.0
 43
0.0
 44
1.905
 45
5.08
 46
5.08
 79
2
 49
5.08
 49
-5.08
 53
0.0
 43
0.0
 44
3.81
 45
5.08
 46
5.08
 79
2
 49
5.08
 49
-5.08
 53
90.0
 43
0.635
 44
4.445
 45
-5.08
 46
5.08
 79
2
 49
5.08
 49
-5.08
 53
90.0
 43
2.54
 44
4.445
 45
-5.08
 46
5.08
 79
2
 49
5.08
 49
-5.08
 53
90.0
 43
4.445
 44
4.445
 45
-5.08
 46
5.08
 79
2
 49
5.08
 49
-5.08
 98
0
  0
LWPOLYLINE
  5
132
330
17
100
AcDbEntity
  8
G-MURRUM
100
AcDbPolyline
 90
4
 70
1
 10
22.0
 20
448.0
 10
74.0
 20
448.0
 10
74.0
 20
456.0
 10
22.0
 20
456.0
  0
HATCH
  5
133
330
17
100
AcDbEntity
  8
G-BROKEN
 62
7
100
AcDbHatch
 10
0.0
 20
0.0
 30
0.0
210
0.0
220
0.0
230
1.0
  2
GRAVEL
 70
0
 71
0
 91
1
 92
3
 72
0
 73
1
 93
4
 10
22.0
 20
436.0
 10
74.0
 20
436.0
 10
74.0
 20
448.0
 10
22.0
 20
448.0
 97
0
 75
1
 76
1
 52
0.0
 41
0.5
 77
0
 78
41
 53
228.0127875
 43
9.144
 44
12.7
 45
-101.600000008
 46
-114.2999999929
 79
2
 49
1.7086072
 49
-169.1524181978
 53
184.969741
 43
8.001
 44
11.43
 45
152.3999999397
 46
12.7000007235
 79
2
 49
2.9320236
 49
-290.2702444676
 53
132.5104471
 43
5.08
 44
11.176
 45
127.0000000536
 46
-139.6999999512
 79
2
 49
2.0674076
 49
-204.6736139705
 53
267.273689
 43
0.127
 44
8.001
 45
12.7000000266
 46
253.9999999986
 79
2
 49
2.6700226
 49
-264.3321871287
 53
292.83365418
 43
0.0
 44
5.334
 45
-63.5000000053
 46
152.3999999978
 79
2
 49
2.6181685
 49
-259.1990387267
 53
357.273689
 43
1.016
 44
2.921
 45
-253.9999999986
 46
12.7000000266
 79
2
 49
2.6700226
 49
-264.3321871287
 53
37.69424047
 43
3.683
 44
2.794
 45
-165.0999999927
 46
-127.0000000095
 79
2
 49
3.5309683
 49
-349.5655765713
 53
72.25532837
 43
6.477
 44
4.953
 45
88.9000000239
 46
279.3999999924
 79
2
 49
3.3335976
 49
-330.0262830096
 53
121.42956562
 43
7.493
 44
8.128
 45
-101.6000000144
 46
165.0999999912
 79
2
 49
2.679065
 49
-265.2277284935
 53
175.2363583
 43
6.096
 44
10.414
 45
139.699999998
 46
-12.700000022
 79
2
 49
3.0585664
 49
-149.86968475
 53
222.3974378
 43
3.048
 44
10.668
 45
-152.3999999951
 46
-139.7000000053
 79
2
 49
3.9553896
 49
-391.5838625609
 53
138.81407483
 43
12.7
 44
7.874
 45
-88.8999999947
 46
76.2000000062
 79
2
 49
1.3500227
 49
-133.6528291217
 53
171.4692344
 43
11.684
 44
8.763
 45
165.1000000045
 46
-25.3999999712
 79
2
 49
2.5684099
 49
-254.2731949852
 53
225.0
 43
9.144
 44
9.144
 45
-0.0
 46
-12.7
 79
2
 49
1.7960467
 49
-16.1644655422
 53
203.19859051
 43
8.255
 44
10.668
 45
63.5000000018
 46
25.3999999956
 79
2
 49
0.9672066
 49
-95.7531118445
 53
291.80140949
 43
7.366
 44
10.287
 45
-12.7000000027
 46
38.0999999991
 79
2
 49
1.3678281
 49
-67.02376495
 53
30.96375653
 43
7.874
 44
9.017
 45
38.1000000009
 46
25.3999999986
 79
2
 49
2.2215983
 49
-71.8314907645
 53
161.56505118
 43
9.779
 44
10.16
 45
25.4000000006
 46
-12.6999999987
 79
2
 49
1.6064357
 49
-38.5544905842
 53
16.389540334
 43
0.0
 44
10.287
 45
127.0
 46
38.1
 79
2
 49
2.25044
 49
-222.7941333627
 53
70.34617594
 43
2.159
 44
10.922
 45
-50.8000000047
 46
-139.6999999983
 79
2
 49
1.8879947
 49
-186.911078391
 53
293.19859051
 43
9.779
 44
12.7
 45
-25.3999999956
 46
63.5000000018
 79
2
 49
1.9344005
 49
-94.7859179445
 53
343.61045967
 43
10.541
 44
10.922
 45
-127.0000000026
 46
38.0999999911
 79
2
 49
2.25044
 49
-222.7941333627
 53
339.44395478
 43
0.0
 44
2.413
 45
-63.5
 46
25.4
 79
2
 49
2.170176
 49
-106.3386715656
 53
294.7751406
 43
2.032
 44
1.651
 45
-63.5000000756
 46
139.6999999656
 79
2
 49
1.8183606
 49
-180.0179669036
 53
66.80140949
 43
9.906
 44
0.0
 45
25.399999996
 46
63.5000000016
 79
2
 49
1.9344005
 49
-94.7859179445
 53
17.35402464
 43
10.668
 44
1.778
 45
-165.0999999967
 46
-50.8000000107
 79
2
 49
2.1289137
 49
-210.761879901
 53
69.44395478
 43
3.683
 44
0.0
 45
-25.4000000004
 46
-63.4999999998
 79
2
 49
1.085088
 49
-107.4237595656
 53
101.309932474
 43
9.144
 44
0.0
 45
-12.7
 46
50.8
 79
2
 49
0.647573
 49
-64.1099748227
 53
165.963756532
 43
9.017
 44
0.635
 45
38.1
 46
-12.7
 79
2
 49
2.6181685
 49
-49.7452729454
 53
186.00900596
 43
6.477
 44
1.27
 45
126.9999999993
 46
12.7000000067
 79
2
 49
2.426335
 49
-240.2068243167
 53
303.69006753
 43
7.874
 44
7.874
 45
-12.7000000018
 46
25.3999999991
 79
2
 49
1.8316194
 49
-43.9588817984
 53
353.15722659
 43
8.89
 44
6.35
 45
215.9000000014
 46
-25.3999999887
 79
2
 49
3.1977838
 49
-316.5800453252
 53
60.9453959
 43
12.065
 44
5.969
 45
-50.8000000014
 46
-88.8999999992
 79
2
 49
1.3075412
 49
-129.4469615905
 53
90.0
 43
12.7
 44
7.112
 45
-12.7
 46
12.7
 79
2
 49
0.762
 49
-11.938
 53
120.25643716
 43
6.223
 44
1.651
 45
50.7999999938
 46
-88.9000000036
 79
2
 49
1.7643348
 49
-174.669703866
 53
48.0127875
 43
5.334
 44
3.175
 45
101.6000000084
 46
114.2999999925
 79
2
 49
3.4172144
 49
-167.4438109978
 53
0.0
 43
7.62
 44
5.715
 45
12.7
 46
12.7
 79
2
 49
3.302
 49
-9.398
 53
325.3048465
 43
10.922
 44
5.715
 45
127.0000000481
 46
-88.8999999312
 79
2
 49
2.0080478
 49
-198.7965836207
 53
254.0546041
 43
12.573
 44
4.572
 45
-12.6999999991
 46
-50.8000000002
 79
2
 49
1.8491454
 49
-90.6082501938
 53
207.64597536
 43
12.065
 44
2.794
 45
-241.3000000088
 46
-126.9999999832
 79
2
 49
3.0107255
 49
-298.0623221147
 53
175.42607874
 43
9.398
 44
1.397
 45
-165.1
 46
12.7
 79
2
 49
3.1851473
 49
-315.3292322812
 98
0
  0
LWPOLYLINE
  5
134
330
17
100
AcDbEntity
  8
G-BROKEN
100
AcDbPolyline
 90
4
 70
1
 10
22.0
 20
436.0
 10
74.0
 20
436.0
 10
74.0
 20
448.0
 10
22.0
 20
448.0
  0
HATCH
  5
135
330
17
100
AcDbEntity
  8
G-ROCK
 62
7
100
AcDbHatch
 10
0.0
 20
0.0
 30
0.0
210
0.0
220
0.0
230
1.0
  2
ANSI31
 70
0
 71
0
 91
1
 92
3
 72
0
 73
1
 93
4
 10
22.0
 20
421.0
 10
74.0
 20
421.0
 10
74.0
 20
436.0
 10
22.0
 20
436.0
 97
0
 75
1
 76
1
 52
0.0
 41
1.4
 77
0
 78
1
 53
45.0
 43
0.0
 44
0.0
 45
-3.1430896424
 46
3.1430896424
 79
0
 98
0
  0
LWPOLYLINE
  5
136
330
17
100
AcDbEntity
  8
G-ROCK
100
AcDbPolyline
 90
4
 70
1
 10
22.0
 20
421.0
 10
74.0
 20
421.0
 10
74.0
 20
436.0
 10
22.0
 20
436.0
  0
LWPOLYLINE
  5
137
330
17
100
AcDbEntity
  8
G-NODATA
100
AcDbPolyline
 90
9
 70
0
 10
22.0
 20
419.6
 10
28.5
 20
422.4
 10
35.0
 20
419.6
 10
41.5
 20
422.4
 10
48.0
 20
419.6
 10
54.5
 20
422.4
 10
61.0
 20
419.6
 10
67.5
 20
422.4
 10
74.0
 20
419.6
  0
TEXT
  5
138
330
17
100
AcDbEntity
  8
G-NODATA
100
AcDbText
 10
48.0
 20
430.0
 30
0.0
 40
1.8
  1
rock below (-)1.500
  7
OpenSans
 72
1
 11
48.0
 21
430.0
 31
0.0
100
AcDbText
 73
2
  0
TEXT
  5
139
330
17
100
AcDbEntity
  8
G-NODATA
100
AcDbText
 10
48.0
 20
426.6
 30
0.0
 40
1.8
  1
depth NOT investigated
  7
OpenSans
 72
1
 11
48.0
 21
426.6
 31
0.0
100
AcDbText
 73
2
  0
TEXT
  5
13A
330
17
100
AcDbEntity
  8
G-LOG
100
AcDbText
 10
114.0
 20
505.0
 30
0.0
 40
2.2
  1
H BUILDING
  7
OpenSans
 72
1
 11
114.0
 21
505.0
 31
0.0
100
AcDbText
 73
2
  0
TEXT
  5
13B
330
17
100
AcDbEntity
  8
M-TEXT
100
AcDbText
 10
114.0
 20
500.0
 30
0.0
 40
1.8
  1
TP-5 to TP-8
  7
OpenSans
 72
1
 11
114.0
 21
500.0
 31
0.0
100
AcDbText
 73
2
  0
HATCH
  5
13C
330
17
100
AcDbEntity
  8
G-TOPSOIL
 62
7
100
AcDbHatch
 10
0.0
 20
0.0
 30
0.0
210
0.0
220
0.0
230
1.0
  2
ANSI37
 70
0
 71
0
 91
1
 92
3
 72
0
 73
1
 93
4
 10
88.0
 20
488.8
 10
140.0
 20
488.8
 10
140.0
 20
496.0
 10
88.0
 20
496.0
 97
0
 75
1
 76
1
 52
0.0
 41
1.1
 77
0
 78
2
 53
45.0
 43
0.0
 44
0.0
 45
-2.4695704333
 46
2.4695704333
 79
0
 53
135.0
 43
0.0
 44
0.0
 45
-2.4695704333
 46
-2.4695704333
 79
0
 98
0
  0
LWPOLYLINE
  5
13D
330
17
100
AcDbEntity
  8
G-TOPSOIL
100
AcDbPolyline
 90
4
 70
1
 10
88.0
 20
488.8
 10
140.0
 20
488.8
 10
140.0
 20
496.0
 10
88.0
 20
496.0
  0
HATCH
  5
13E
330
17
100
AcDbEntity
  8
G-MURRUM
 62
7
100
AcDbHatch
 10
0.0
 20
0.0
 30
0.0
210
0.0
220
0.0
230
1.0
  2
EARTH
 70
0
 71
0
 91
1
 92
3
 72
0
 73
1
 93
4
 10
88.0
 20
468.0
 10
140.0
 20
468.0
 10
140.0
 20
488.8
 10
88.0
 20
488.8
 97
0
 75
1
 76
1
 52
0.0
 41
0.8
 77
0
 78
6
 53
0.0
 43
0.0
 44
0.0
 45
5.08
 46
5.08
 79
2
 49
5.08
 49
-5.08
 53
0.0
 43
0.0
 44
1.905
 45
5.08
 46
5.08
 79
2
 49
5.08
 49
-5.08
 53
0.0
 43
0.0
 44
3.81
 45
5.08
 46
5.08
 79
2
 49
5.08
 49
-5.08
 53
90.0
 43
0.635
 44
4.445
 45
-5.08
 46
5.08
 79
2
 49
5.08
 49
-5.08
 53
90.0
 43
2.54
 44
4.445
 45
-5.08
 46
5.08
 79
2
 49
5.08
 49
-5.08
 53
90.0
 43
4.445
 44
4.445
 45
-5.08
 46
5.08
 79
2
 49
5.08
 49
-5.08
 98
0
  0
LWPOLYLINE
  5
13F
330
17
100
AcDbEntity
  8
G-MURRUM
100
AcDbPolyline
 90
4
 70
1
 10
88.0
 20
468.0
 10
140.0
 20
468.0
 10
140.0
 20
488.8
 10
88.0
 20
488.8
  0
HATCH
  5
140
330
17
100
AcDbEntity
  8
G-BROKEN
 62
7
100
AcDbHatch
 10
0.0
 20
0.0
 30
0.0
210
0.0
220
0.0
230
1.0
  2
GRAVEL
 70
0
 71
0
 91
1
 92
3
 72
0
 73
1
 93
4
 10
88.0
 20
460.0
 10
140.0
 20
460.0
 10
140.0
 20
468.0
 10
88.0
 20
468.0
 97
0
 75
1
 76
1
 52
0.0
 41
0.5
 77
0
 78
41
 53
228.0127875
 43
9.144
 44
12.7
 45
-101.600000008
 46
-114.2999999929
 79
2
 49
1.7086072
 49
-169.1524181978
 53
184.969741
 43
8.001
 44
11.43
 45
152.3999999397
 46
12.7000007235
 79
2
 49
2.9320236
 49
-290.2702444676
 53
132.5104471
 43
5.08
 44
11.176
 45
127.0000000536
 46
-139.6999999512
 79
2
 49
2.0674076
 49
-204.6736139705
 53
267.273689
 43
0.127
 44
8.001
 45
12.7000000266
 46
253.9999999986
 79
2
 49
2.6700226
 49
-264.3321871287
 53
292.83365418
 43
0.0
 44
5.334
 45
-63.5000000053
 46
152.3999999978
 79
2
 49
2.6181685
 49
-259.1990387267
 53
357.273689
 43
1.016
 44
2.921
 45
-253.9999999986
 46
12.7000000266
 79
2
 49
2.6700226
 49
-264.3321871287
 53
37.69424047
 43
3.683
 44
2.794
 45
-165.0999999927
 46
-127.0000000095
 79
2
 49
3.5309683
 49
-349.5655765713
 53
72.25532837
 43
6.477
 44
4.953
 45
88.9000000239
 46
279.3999999924
 79
2
 49
3.3335976
 49
-330.0262830096
 53
121.42956562
 43
7.493
 44
8.128
 45
-101.6000000144
 46
165.0999999912
 79
2
 49
2.679065
 49
-265.2277284935
 53
175.2363583
 43
6.096
 44
10.414
 45
139.699999998
 46
-12.700000022
 79
2
 49
3.0585664
 49
-149.86968475
 53
222.3974378
 43
3.048
 44
10.668
 45
-152.3999999951
 46
-139.7000000053
 79
2
 49
3.9553896
 49
-391.5838625609
 53
138.81407483
 43
12.7
 44
7.874
 45
-88.8999999947
 46
76.2000000062
 79
2
 49
1.3500227
 49
-133.6528291217
 53
171.4692344
 43
11.684
 44
8.763
 45
165.1000000045
 46
-25.3999999712
 79
2
 49
2.5684099
 49
-254.2731949852
 53
225.0
 43
9.144
 44
9.144
 45
-0.0
 46
-12.7
 79
2
 49
1.7960467
 49
-16.1644655422
 53
203.19859051
 43
8.255
 44
10.668
 45
63.5000000018
 46
25.3999999956
 79
2
 49
0.9672066
 49
-95.7531118445
 53
291.80140949
 43
7.366
 44
10.287
 45
-12.7000000027
 46
38.0999999991
 79
2
 49
1.3678281
 49
-67.02376495
 53
30.96375653
 43
7.874
 44
9.017
 45
38.1000000009
 46
25.3999999986
 79
2
 49
2.2215983
 49
-71.8314907645
 53
161.56505118
 43
9.779
 44
10.16
 45
25.4000000006
 46
-12.6999999987
 79
2
 49
1.6064357
 49
-38.5544905842
 53
16.389540334
 43
0.0
 44
10.287
 45
127.0
 46
38.1
 79
2
 49
2.25044
 49
-222.7941333627
 53
70.34617594
 43
2.159
 44
10.922
 45
-50.8000000047
 46
-139.6999999983
 79
2
 49
1.8879947
 49
-186.911078391
 53
293.19859051
 43
9.779
 44
12.7
 45
-25.3999999956
 46
63.5000000018
 79
2
 49
1.9344005
 49
-94.7859179445
 53
343.61045967
 43
10.541
 44
10.922
 45
-127.0000000026
 46
38.0999999911
 79
2
 49
2.25044
 49
-222.7941333627
 53
339.44395478
 43
0.0
 44
2.413
 45
-63.5
 46
25.4
 79
2
 49
2.170176
 49
-106.3386715656
 53
294.7751406
 43
2.032
 44
1.651
 45
-63.5000000756
 46
139.6999999656
 79
2
 49
1.8183606
 49
-180.0179669036
 53
66.80140949
 43
9.906
 44
0.0
 45
25.399999996
 46
63.5000000016
 79
2
 49
1.9344005
 49
-94.7859179445
 53
17.35402464
 43
10.668
 44
1.778
 45
-165.0999999967
 46
-50.8000000107
 79
2
 49
2.1289137
 49
-210.761879901
 53
69.44395478
 43
3.683
 44
0.0
 45
-25.4000000004
 46
-63.4999999998
 79
2
 49
1.085088
 49
-107.4237595656
 53
101.309932474
 43
9.144
 44
0.0
 45
-12.7
 46
50.8
 79
2
 49
0.647573
 49
-64.1099748227
 53
165.963756532
 43
9.017
 44
0.635
 45
38.1
 46
-12.7
 79
2
 49
2.6181685
 49
-49.7452729454
 53
186.00900596
 43
6.477
 44
1.27
 45
126.9999999993
 46
12.7000000067
 79
2
 49
2.426335
 49
-240.2068243167
 53
303.69006753
 43
7.874
 44
7.874
 45
-12.7000000018
 46
25.3999999991
 79
2
 49
1.8316194
 49
-43.9588817984
 53
353.15722659
 43
8.89
 44
6.35
 45
215.9000000014
 46
-25.3999999887
 79
2
 49
3.1977838
 49
-316.5800453252
 53
60.9453959
 43
12.065
 44
5.969
 45
-50.8000000014
 46
-88.8999999992
 79
2
 49
1.3075412
 49
-129.4469615905
 53
90.0
 43
12.7
 44
7.112
 45
-12.7
 46
12.7
 79
2
 49
0.762
 49
-11.938
 53
120.25643716
 43
6.223
 44
1.651
 45
50.7999999938
 46
-88.9000000036
 79
2
 49
1.7643348
 49
-174.669703866
 53
48.0127875
 43
5.334
 44
3.175
 45
101.6000000084
 46
114.2999999925
 79
2
 49
3.4172144
 49
-167.4438109978
 53
0.0
 43
7.62
 44
5.715
 45
12.7
 46
12.7
 79
2
 49
3.302
 49
-9.398
 53
325.3048465
 43
10.922
 44
5.715
 45
127.0000000481
 46
-88.8999999312
 79
2
 49
2.0080478
 49
-198.7965836207
 53
254.0546041
 43
12.573
 44
4.572
 45
-12.6999999991
 46
-50.8000000002
 79
2
 49
1.8491454
 49
-90.6082501938
 53
207.64597536
 43
12.065
 44
2.794
 45
-241.3000000088
 46
-126.9999999832
 79
2
 49
3.0107255
 49
-298.0623221147
 53
175.42607874
 43
9.398
 44
1.397
 45
-165.1
 46
12.7
 79
2
 49
3.1851473
 49
-315.3292322812
 98
0
  0
LWPOLYLINE
  5
141
330
17
100
AcDbEntity
  8
G-BROKEN
100
AcDbPolyline
 90
4
 70
1
 10
88.0
 20
460.0
 10
140.0
 20
460.0
 10
140.0
 20
468.0
 10
88.0
 20
468.0
  0
HATCH
  5
142
330
17
100
AcDbEntity
  8
G-ROCK
 62
7
100
AcDbHatch
 10
0.0
 20
0.0
 30
0.0
210
0.0
220
0.0
230
1.0
  2
ANSI31
 70
0
 71
0
 91
1
 92
3
 72
0
 73
1
 93
4
 10
88.0
 20
445.0
 10
140.0
 20
445.0
 10
140.0
 20
460.0
 10
88.0
 20
460.0
 97
0
 75
1
 76
1
 52
0.0
 41
1.4
 77
0
 78
1
 53
45.0
 43
0.0
 44
0.0
 45
-3.1430896424
 46
3.1430896424
 79
0
 98
0
  0
LWPOLYLINE
  5
143
330
17
100
AcDbEntity
  8
G-ROCK
100
AcDbPolyline
 90
4
 70
1
 10
88.0
 20
445.0
 10
140.0
 20
445.0
 10
140.0
 20
460.0
 10
88.0
 20
460.0
  0
LWPOLYLINE
  5
144
330
17
100
AcDbEntity
  8
G-NODATA
100
AcDbPolyline
 90
9
 70
0
 10
88.0
 20
443.6
 10
94.5
 20
446.4
 10
101.0
 20
443.6
 10
107.5
 20
446.4
 10
114.0
 20
443.6
 10
120.5
 20
446.4
 10
127.0
 20
443.6
 10
133.5
 20
446.4
 10
140.0
 20
443.6
  0
TEXT
  5
145
330
17
100
AcDbEntity
  8
G-NODATA
100
AcDbText
 10
114.0
 20
454.0
 30
0.0
 40
1.8
  1
rock below (-)0.900
  7
OpenSans
 72
1
 11
114.0
 21
454.0
 31
0.0
100
AcDbText
 73
2
  0
TEXT
  5
146
330
17
100
AcDbEntity
  8
G-NODATA
100
AcDbText
 10
114.0
 20
450.6
 30
0.0
 40
1.8
  1
depth NOT investigated
  7
OpenSans
 72
1
 11
114.0
 21
450.6
 31
0.0
100
AcDbText
 73
2
  0
TEXT
  5
147
330
17
100
AcDbEntity
  8
G-LOG
100
AcDbText
 10
180.0
 20
505.0
 30
0.0
 40
2.2
  1
MESS BLDG
  7
OpenSans
 72
1
 11
180.0
 21
505.0
 31
0.0
100
AcDbText
 73
2
  0
TEXT
  5
148
330
17
100
AcDbEntity
  8
M-TEXT
100
AcDbText
 10
180.0
 20
500.0
 30
0.0
 40
1.8
  1
TP-9 to TP-11
  7
OpenSans
 72
1
 11
180.0
 21
500.0
 31
0.0
100
AcDbText
 73
2
  0
HATCH
  5
149
330
17
100
AcDbEntity
  8
G-MURRUM
 62
7
100
AcDbHatch
 10
0.0
 20
0.0
 30
0.0
210
0.0
220
0.0
230
1.0
  2
EARTH
 70
0
 71
0
 91
1
 92
3
 72
0
 73
1
 93
4
 10
154.0
 20
488.0
 10
206.0
 20
488.0
 10
206.0
 20
496.0
 10
154.0
 20
496.0
 97
0
 75
1
 76
1
 52
0.0
 41
0.8
 77
0
 78
6
 53
0.0
 43
0.0
 44
0.0
 45
5.08
 46
5.08
 79
2
 49
5.08
 49
-5.08
 53
0.0
 43
0.0
 44
1.905
 45
5.08
 46
5.08
 79
2
 49
5.08
 49
-5.08
 53
0.0
 43
0.0
 44
3.81
 45
5.08
 46
5.08
 79
2
 49
5.08
 49
-5.08
 53
90.0
 43
0.635
 44
4.445
 45
-5.08
 46
5.08
 79
2
 49
5.08
 49
-5.08
 53
90.0
 43
2.54
 44
4.445
 45
-5.08
 46
5.08
 79
2
 49
5.08
 49
-5.08
 53
90.0
 43
4.445
 44
4.445
 45
-5.08
 46
5.08
 79
2
 49
5.08
 49
-5.08
 98
0
  0
LWPOLYLINE
  5
14A
330
17
100
AcDbEntity
  8
G-MURRUM
100
AcDbPolyline
 90
4
 70
1
 10
154.0
 20
488.0
 10
206.0
 20
488.0
 10
206.0
 20
496.0
 10
154.0
 20
496.0
  0
HATCH
  5
14B
330
17
100
AcDbEntity
  8
G-MURRUM
 62
7
100
AcDbHatch
 10
0.0
 20
0.0
 30
0.0
210
0.0
220
0.0
230
1.0
  2
EARTH
 70
0
 71
0
 91
1
 92
3
 72
0
 73
1
 93
4
 10
154.0
 20
476.0
 10
206.0
 20
476.0
 10
206.0
 20
488.0
 10
154.0
 20
488.0
 97
0
 75
1
 76
1
 52
0.0
 41
0.8
 77
0
 78
6
 53
0.0
 43
0.0
 44
0.0
 45
5.08
 46
5.08
 79
2
 49
5.08
 49
-5.08
 53
0.0
 43
0.0
 44
1.905
 45
5.08
 46
5.08
 79
2
 49
5.08
 49
-5.08
 53
0.0
 43
0.0
 44
3.81
 45
5.08
 46
5.08
 79
2
 49
5.08
 49
-5.08
 53
90.0
 43
0.635
 44
4.445
 45
-5.08
 46
5.08
 79
2
 49
5.08
 49
-5.08
 53
90.0
 43
2.54
 44
4.445
 45
-5.08
 46
5.08
 79
2
 49
5.08
 49
-5.08
 53
90.0
 43
4.445
 44
4.445
 45
-5.08
 46
5.08
 79
2
 49
5.08
 49
-5.08
 98
0
  0
LWPOLYLINE
  5
14C
330
17
100
AcDbEntity
  8
G-MURRUM
100
AcDbPolyline
 90
4
 70
1
 10
154.0
 20
476.0
 10
206.0
 20
476.0
 10
206.0
 20
488.0
 10
154.0
 20
488.0
  0
HATCH
  5
14D
330
17
100
AcDbEntity
  8
G-BROKEN
 62
7
100
AcDbHatch
 10
0.0
 20
0.0
 30
0.0
210
0.0
220
0.0
230
1.0
  2
GRAVEL
 70
0
 71
0
 91
1
 92
3
 72
0
 73
1
 93
4
 10
154.0
 20
456.0
 10
206.0
 20
456.0
 10
206.0
 20
476.0
 10
154.0
 20
476.0
 97
0
 75
1
 76
1
 52
0.0
 41
0.5
 77
0
 78
41
 53
228.0127875
 43
9.144
 44
12.7
 45
-101.600000008
 46
-114.2999999929
 79
2
 49
1.7086072
 49
-169.1524181978
 53
184.969741
 43
8.001
 44
11.43
 45
152.3999999397
 46
12.7000007235
 79
2
 49
2.9320236
 49
-290.2702444676
 53
132.5104471
 43
5.08
 44
11.176
 45
127.0000000536
 46
-139.6999999512
 79
2
 49
2.0674076
 49
-204.6736139705
 53
267.273689
 43
0.127
 44
8.001
 45
12.7000000266
 46
253.9999999986
 79
2
 49
2.6700226
 49
-264.3321871287
 53
292.83365418
 43
0.0
 44
5.334
 45
-63.5000000053
 46
152.3999999978
 79
2
 49
2.6181685
 49
-259.1990387267
 53
357.273689
 43
1.016
 44
2.921
 45
-253.9999999986
 46
12.7000000266
 79
2
 49
2.6700226
 49
-264.3321871287
 53
37.69424047
 43
3.683
 44
2.794
 45
-165.0999999927
 46
-127.0000000095
 79
2
 49
3.5309683
 49
-349.5655765713
 53
72.25532837
 43
6.477
 44
4.953
 45
88.9000000239
 46
279.3999999924
 79
2
 49
3.3335976
 49
-330.0262830096
 53
121.42956562
 43
7.493
 44
8.128
 45
-101.6000000144
 46
165.0999999912
 79
2
 49
2.679065
 49
-265.2277284935
 53
175.2363583
 43
6.096
 44
10.414
 45
139.699999998
 46
-12.700000022
 79
2
 49
3.0585664
 49
-149.86968475
 53
222.3974378
 43
3.048
 44
10.668
 45
-152.3999999951
 46
-139.7000000053
 79
2
 49
3.9553896
 49
-391.5838625609
 53
138.81407483
 43
12.7
 44
7.874
 45
-88.8999999947
 46
76.2000000062
 79
2
 49
1.3500227
 49
-133.6528291217
 53
171.4692344
 43
11.684
 44
8.763
 45
165.1000000045
 46
-25.3999999712
 79
2
 49
2.5684099
 49
-254.2731949852
 53
225.0
 43
9.144
 44
9.144
 45
-0.0
 46
-12.7
 79
2
 49
1.7960467
 49
-16.1644655422
 53
203.19859051
 43
8.255
 44
10.668
 45
63.5000000018
 46
25.3999999956
 79
2
 49
0.9672066
 49
-95.7531118445
 53
291.80140949
 43
7.366
 44
10.287
 45
-12.7000000027
 46
38.0999999991
 79
2
 49
1.3678281
 49
-67.02376495
 53
30.96375653
 43
7.874
 44
9.017
 45
38.1000000009
 46
25.3999999986
 79
2
 49
2.2215983
 49
-71.8314907645
 53
161.56505118
 43
9.779
 44
10.16
 45
25.4000000006
 46
-12.6999999987
 79
2
 49
1.6064357
 49
-38.5544905842
 53
16.389540334
 43
0.0
 44
10.287
 45
127.0
 46
38.1
 79
2
 49
2.25044
 49
-222.7941333627
 53
70.34617594
 43
2.159
 44
10.922
 45
-50.8000000047
 46
-139.6999999983
 79
2
 49
1.8879947
 49
-186.911078391
 53
293.19859051
 43
9.779
 44
12.7
 45
-25.3999999956
 46
63.5000000018
 79
2
 49
1.9344005
 49
-94.7859179445
 53
343.61045967
 43
10.541
 44
10.922
 45
-127.0000000026
 46
38.0999999911
 79
2
 49
2.25044
 49
-222.7941333627
 53
339.44395478
 43
0.0
 44
2.413
 45
-63.5
 46
25.4
 79
2
 49
2.170176
 49
-106.3386715656
 53
294.7751406
 43
2.032
 44
1.651
 45
-63.5000000756
 46
139.6999999656
 79
2
 49
1.8183606
 49
-180.0179669036
 53
66.80140949
 43
9.906
 44
0.0
 45
25.399999996
 46
63.5000000016
 79
2
 49
1.9344005
 49
-94.7859179445
 53
17.35402464
 43
10.668
 44
1.778
 45
-165.0999999967
 46
-50.8000000107
 79
2
 49
2.1289137
 49
-210.761879901
 53
69.44395478
 43
3.683
 44
0.0
 45
-25.4000000004
 46
-63.4999999998
 79
2
 49
1.085088
 49
-107.4237595656
 53
101.309932474
 43
9.144
 44
0.0
 45
-12.7
 46
50.8
 79
2
 49
0.647573
 49
-64.1099748227
 53
165.963756532
 43
9.017
 44
0.635
 45
38.1
 46
-12.7
 79
2
 49
2.6181685
 49
-49.7452729454
 53
186.00900596
 43
6.477
 44
1.27
 45
126.9999999993
 46
12.7000000067
 79
2
 49
2.426335
 49
-240.2068243167
 53
303.69006753
 43
7.874
 44
7.874
 45
-12.7000000018
 46
25.3999999991
 79
2
 49
1.8316194
 49
-43.9588817984
 53
353.15722659
 43
8.89
 44
6.35
 45
215.9000000014
 46
-25.3999999887
 79
2
 49
3.1977838
 49
-316.5800453252
 53
60.9453959
 43
12.065
 44
5.969
 45
-50.8000000014
 46
-88.8999999992
 79
2
 49
1.3075412
 49
-129.4469615905
 53
90.0
 43
12.7
 44
7.112
 45
-12.7
 46
12.7
 79
2
 49
0.762
 49
-11.938
 53
120.25643716
 43
6.223
 44
1.651
 45
50.7999999938
 46
-88.9000000036
 79
2
 49
1.7643348
 49
-174.669703866
 53
48.0127875
 43
5.334
 44
3.175
 45
101.6000000084
 46
114.2999999925
 79
2
 49
3.4172144
 49
-167.4438109978
 53
0.0
 43
7.62
 44
5.715
 45
12.7
 46
12.7
 79
2
 49
3.302
 49
-9.398
 53
325.3048465
 43
10.922
 44
5.715
 45
127.0000000481
 46
-88.8999999312
 79
2
 49
2.0080478
 49
-198.7965836207
 53
254.0546041
 43
12.573
 44
4.572
 45
-12.6999999991
 46
-50.8000000002
 79
2
 49
1.8491454
 49
-90.6082501938
 53
207.64597536
 43
12.065
 44
2.794
 45
-241.3000000088
 46
-126.9999999832
 79
2
 49
3.0107255
 49
-298.0623221147
 53
175.42607874
 43
9.398
 44
1.397
 45
-165.1
 46
12.7
 79
2
 49
3.1851473
 49
-315.3292322812
 98
0
  0
LWPOLYLINE
  5
14E
330
17
100
AcDbEntity
  8
G-BROKEN
100
AcDbPolyline
 90
4
 70
1
 10
154.0
 20
456.0
 10
206.0
 20
456.0
 10
206.0
 20
476.0
 10
154.0
 20
476.0
  0
HATCH
  5
14F
330
17
100
AcDbEntity
  8
G-ROCK
 62
7
100
AcDbHatch
 10
0.0
 20
0.0
 30
0.0
210
0.0
220
0.0
230
1.0
  2
ANSI31
 70
0
 71
0
 91
1
 92
3
 72
0
 73
1
 93
4
 10
154.0
 20
441.0
 10
206.0
 20
441.0
 10
206.0
 20
456.0
 10
154.0
 20
456.0
 97
0
 75
1
 76
1
 52
0.0
 41
1.4
 77
0
 78
1
 53
45.0
 43
0.0
 44
0.0
 45
-3.1430896424
 46
3.1430896424
 79
0
 98
0
  0
LWPOLYLINE
  5
150
330
17
100
AcDbEntity
  8
G-ROCK
100
AcDbPolyline
 90
4
 70
1
 10
154.0
 20
441.0
 10
206.0
 20
441.0
 10
206.0
 20
456.0
 10
154.0
 20
456.0
  0
LWPOLYLINE
  5
151
330
17
100
AcDbEntity
  8
G-NODATA
100
AcDbPolyline
 90
9
 70
0
 10
154.0
 20
439.6
 10
160.5
 20
442.4
 10
167.0
 20
439.6
 10
173.5
 20
442.4
 10
180.0
 20
439.6
 10
186.5
 20
442.4
 10
193.0
 20
439.6
 10
199.5
 20
442.4
 10
206.0
 20
439.6
  0
TEXT
  5
152
330
17
100
AcDbEntity
  8
G-NODATA
100
AcDbText
 10
180.0
 20
450.0
 30
0.0
 40
1.8
  1
rock below (-)1.000
  7
OpenSans
 72
1
 11
180.0
 21
450.0
 31
0.0
100
AcDbText
 73
2
  0
TEXT
  5
153
330
17
100
AcDbEntity
  8
G-NODATA
100
AcDbText
 10
180.0
 20
446.6
 30
0.0
 40
1.8
  1
depth NOT investigated
  7
OpenSans
 72
1
 11
180.0
 21
446.6
 31
0.0
100
AcDbText
 73
2
  0
TEXT
  5
154
330
17
100
AcDbEntity
  8
G-NODATA
100
AcDbText
 10
24.0
 20
512.0
 30
0.0
 40
2.4
  1
THE ENTIRE INVESTIGATION
  7
OpenSans
 11
24.0
 21
512.0
 31
0.0
100
AcDbText
  0
TEXT
  5
155
330
17
100
AcDbEntity
  8
M-TEXT
100
AcDbText
 10
24.0
 20
507.0
 30
0.0
 40
2.0
  1
11 trial pits, JCB, open trench.  No borehole, no SPT, no plate load test, no permeability test.  [C] SEMT/67/15
  7
OpenSans
 11
24.0
 21
507.0
 31
0.0
100
AcDbText
  0
HATCH
  5
156
330
17
100
AcDbEntity
  8
G-NODATA
 62
7
100
AcDbHatch
 10
0.0
 20
0.0
 30
0.0
210
0.0
220
0.0
230
1.0
  2
ANSI31
 70
0
 71
0
 91
1
 92
3
 72
0
 73
1
 93
4
 10
18.0
 20
152.0
 10
646.0
 20
152.0
 10
646.0
 20
436.0
 10
18.0
 20
436.0
 97
0
 75
1
 76
1
 52
90.0
 41
6.0
 77
0
 78
1
 53
135.0
 43
0.0
 44
0.0
 45
-13.4703841818
 46
-13.4703841818
 79
0
 98
0
  0
LWPOLYLINE
  5
157
330
17
100
AcDbEntity
  8
G-NODATA
100
AcDbPolyline
 90
4
 70
1
 10
18.0
 20
152.0
 10
646.0
 20
152.0
 10
646.0
 20
436.0
 10
18.0
 20
436.0
  0
TEXT
  5
158
330
17
100
AcDbEntity
  8
G-NODATA
100
AcDbText
 10
332.0
 20
428.5
 30
0.0
 40
4.4
  1
N O   D A T A   E X I S T S   B E L O W   T H I S   L I N E
  7
OpenSans
 72
1
 11
332.0
 21
428.5
 31
0.0
100
AcDbText
 73
2
  0
TEXT
  5
159
330
17
100
AcDbEntity
  8
G-NODATA
100
AcDbText
 10
332.0
 20
422.0
 30
0.0
 40
2.1
  1
No borehole, no sample, no water reading, no rockhead, no red-bole seam, no k_s.  THE DEEPEST TRIAL PIT STOPPED HERE.
  7
OpenSans
 72
1
 11
332.0
 21
422.0
 31
0.0
100
AcDbText
 73
2
  0
TEXT
  5
15A
330
17
100
AcDbEntity
  8
G-NODATA
100
AcDbText
 10
24.0
 20
340.0
 30
0.0
 40
2.4
  1
WHAT A REAL INVESTIGATION WOULD HAVE HAD TO PUT IN THIS SPACE
  7
OpenSans
 11
24.0
 21
340.0
 31
0.0
100
AcDbText
  0
TEXT
  5
15B
330
17
100
AcDbEntity
  8
M-TEXT
100
AcDbText
 10
24.0
 20
334.0
 30
0.0
 40
1.9
  1
-   the rockhead surface UNDER THE BOX, not inferred from three pits at three other buildings
  7
OpenSans
 11
24.0
 21
334.0
 31
0.0
100
AcDbText
  0
TEXT
  5
15C
330
17
100
AcDbEntity
  8
M-TEXT
100
AcDbText
 10
24.0
 20
329.4
 30
0.0
 40
1.9
  1
-   EVERY FLOW CONTACT and every red-bole or vesicular seam between (-)1.500 and below (-)6.800
  7
OpenSans
 11
24.0
 21
329.4
 31
0.0
100
AcDbText
  0
TEXT
  5
15D
330
17
100
AcDbEntity
  8
M-TEXT
100
AcDbText
 10
24.0
 20
324.8
 30
0.0
 40
1.9
  1
-      - and this is the case that SIZES THE MAT: B.3 Case 2, a 3.0 m soft band, 84 % utilised
  7
OpenSans
 11
24.0
 21
324.8
 31
0.0
100
AcDbText
  0
TEXT
  5
15E
330
17
100
AcDbEntity
  8
M-TEXT
100
AcDbText
 10
24.0
 20
320.2
 30
0.0
 40
1.9
  1
-   core recovery and RQD through the founding horizon
  7
OpenSans
 11
24.0
 21
320.2
 31
0.0
100
AcDbText
  0
TEXT
  5
15F
330
17
100
AcDbEntity
  8
M-TEXT
100
AcDbText
 10
24.0
 20
315.6
 30
0.0
 40
1.9
  1
-   a PIEZOMETER reading through a full monsoon - the design GWT at (-)2.000 is [ASSUMED]
  7
OpenSans
 11
24.0
 21
315.6
 31
0.0
100
AcDbText
  0
TEXT
  5
160
330
17
100
AcDbEntity
  8
M-TEXT
100
AcDbText
 10
24.0
 20
311.0
 30
0.0
 40
1.9
  1
-   PLATE LOAD TESTS for k_s at BOTH bounds, 100 000 and 500 000 kN/m3 - only one has ever been run
  7
OpenSans
 11
24.0
 21
311.0
 31
0.0
100
AcDbText
  0
TEXT
  5
161
330
17
100
AcDbEntity
  8
M-TEXT
100
AcDbText
 10
24.0
 20
306.4
 30
0.0
 40
1.9
  1
-   PACKER PERMEABILITY at the contacts, for the 0.5 L/m2/day seepage the sump is sized on
  7
OpenSans
 11
24.0
 21
306.4
 31
0.0
100
AcDbText
  0
TEXT
  5
162
330
17
100
AcDbEntity
  8
M-TEXT
100
AcDbText
 10
24.0
 20
301.8
 30
0.0
 40
1.9
  1
-   a PERCOLATION TEST to IS 2470 (Pt 2) Cl. 4 - mandatory, and likely to fail on basalt
  7
OpenSans
 11
24.0
 21
301.8
 31
0.0
100
AcDbText
  0
TEXT
  5
163
330
17
100
AcDbEntity
  8
G-NODATA
100
AcDbText
 10
24.0
 20
295.2
 30
0.0
 40
2.0
  1
Programme activities A1075 (12 d) and A1080 (20 d).  BOTH ARE ON THE CRITICAL PATH.  SG-V2
  7
OpenSans
 11
24.0
 21
295.2
 31
0.0
100
AcDbText
  0
HATCH
  5
164
330
17
100
AcDbEntity
  8
G-MURRUM
 62
7
100
AcDbHatch
 10
0.0
 20
0.0
 30
0.0
210
0.0
220
0.0
230
1.0
  2
EARTH
 70
0
 71
0
 91
1
 92
3
 72
0
 73
1
 93
4
 10
314.0
 20
416.0
 10
598.0
 20
416.0
 10
598.0
 20
496.0
 10
314.0
 20
496.0
 97
0
 75
1
 76
1
 52
0.0
 41
0.8
 77
0
 78
6
 53
0.0
 43
0.0
 44
0.0
 45
5.08
 46
5.08
 79
2
 49
5.08
 49
-5.08
 53
0.0
 43
0.0
 44
1.905
 45
5.08
 46
5.08
 79
2
 49
5.08
 49
-5.08
 53
0.0
 43
0.0
 44
3.81
 45
5.08
 46
5.08
 79
2
 49
5.08
 49
-5.08
 53
90.0
 43
0.635
 44
4.445
 45
-5.08
 46
5.08
 79
2
 49
5.08
 49
-5.08
 53
90.0
 43
2.54
 44
4.445
 45
-5.08
 46
5.08
 79
2
 49
5.08
 49
-5.08
 53
90.0
 43
4.445
 44
4.445
 45
-5.08
 46
5.08
 79
2
 49
5.08
 49
-5.08
 98
0
  0
LWPOLYLINE
  5
165
330
17
100
AcDbEntity
  8
G-MURRUM
100
AcDbPolyline
 90
4
 70
1
 10
314.0
 20
416.0
 10
598.0
 20
416.0
 10
598.0
 20
496.0
 10
314.0
 20
496.0
  0
TEXT
  5
166
330
17
100
AcDbEntity
  8
M-TEXT
100
AcDbText
 10
456.0
 20
456.0
 30
0.0
 40
2.0
  1
ENGINEERED COVER 2000 = 40.65 kPa  [C] A.7.3  -  burster slab to a 1:50 crossfall, BS1
  7
OpenSans
 72
1
 11
456.0
 21
456.0
 31
0.0
100
AcDbText
 73
2
  0
LWPOLYLINE
  5
167
330
17
100
AcDbEntity
  8
G-STRUCT
100
AcDbPolyline
 90
4
 70
1
 10
332.0
 20
380.0
 10
580.0
 20
380.0
 10
580.0
 20
416.0
 10
332.0
 20
416.0
  0
HATCH
  5
168
330
17
100
AcDbEntity
  8
S-HATCH
 62
7
100
AcDbHatch
 10
0.0
 20
0.0
 30
0.0
210
0.0
220
0.0
230
1.0
  2
ANSI31
 70
0
 71
0
 91
1
 92
3
 72
0
 73
1
 93
4
 10
332.0
 20
380.0
 10
580.0
 20
380.0
 10
580.0
 20
416.0
 10
332.0
 20
416.0
 97
0
 75
1
 76
1
 52
0.0
 41
1.6
 77
0
 78
1
 53
45.0
 43
0.0
 44
0.0
 45
-3.5921024485
 46
3.5921024485
 79
0
 98
0
  0
TEXT
  5
169
330
17
100
AcDbEntity
  8
G-STRUCT
100
AcDbText
 10
456.0
 20
395.2
 30
0.0
 40
2.2
  1
ROOF SLAB 900
  7
OpenSans
 72
1
 11
456.0
 21
395.2
 31
0.0
100
AcDbText
 73
2
  0
LWPOLYLINE
  5
16A
330
17
100
AcDbEntity
  8
G-STRUCT
100
AcDbPolyline
 90
4
 70
1
 10
332.0
 20
252.0
 10
356.0
 20
252.0
 10
356.0
 20
380.0
 10
332.0
 20
380.0
  0
HATCH
  5
16B
330
17
100
AcDbEntity
  8
S-HATCH
 62
7
100
AcDbHatch
 10
0.0
 20
0.0
 30
0.0
210
0.0
220
0.0
230
1.0
  2
ANSI31
 70
0
 71
0
 91
1
 92
3
 72
0
 73
1
 93
4
 10
332.0
 20
252.0
 10
356.0
 20
252.0
 10
356.0
 20
380.0
 10
332.0
 20
380.0
 97
0
 75
1
 76
1
 52
0.0
 41
1.6
 77
0
 78
1
 53
45.0
 43
0.0
 44
0.0
 45
-3.5921024485
 46
3.5921024485
 79
0
 98
0
  0
LWPOLYLINE
  5
16C
330
17
100
AcDbEntity
  8
G-STRUCT
100
AcDbPolyline
 90
4
 70
1
 10
556.0
 20
252.0
 10
580.0
 20
252.0
 10
580.0
 20
380.0
 10
556.0
 20
380.0
  0
HATCH
  5
16D
330
17
100
AcDbEntity
  8
S-HATCH
 62
7
100
AcDbHatch
 10
0.0
 20
0.0
 30
0.0
210
0.0
220
0.0
230
1.0
  2
ANSI31
 70
0
 71
0
 91
1
 92
3
 72
0
 73
1
 93
4
 10
556.0
 20
252.0
 10
580.0
 20
252.0
 10
580.0
 20
380.0
 10
556.0
 20
380.0
 97
0
 75
1
 76
1
 52
0.0
 41
1.6
 77
0
 78
1
 53
45.0
 43
0.0
 44
0.0
 45
-3.5921024485
 46
3.5921024485
 79
0
 98
0
  0
LWPOLYLINE
  5
16E
330
17
100
AcDbEntity
  8
G-STRUCT
100
AcDbPolyline
 90
4
 70
1
 10
332.0
 20
228.0
 10
580.0
 20
228.0
 10
580.0
 20
252.0
 10
332.0
 20
252.0
  0
HATCH
  5
16F
330
17
100
AcDbEntity
  8
S-HATCH
 62
7
100
AcDbHatch
 10
0.0
 20
0.0
 30
0.0
210
0.0
220
0.0
230
1.0
  2
ANSI31
 70
0
 71
0
 91
1
 92
3
 72
0
 73
1
 93
4
 10
332.0
 20
228.0
 10
580.0
 20
228.0
 10
580.0
 20
252.0
 10
332.0
 20
252.0
 97
0
 75
1
 76
1
 52
0.0
 41
1.6
 77
0
 78
1
 53
45.0
 43
0.0
 44
0.0
 45
-3.5921024485
 46
3.5921024485
 79
0
 98
0
  0
TEXT
  5
170
330
17
100
AcDbEntity
  8
G-STRUCT
100
AcDbText
 10
456.0
 20
238.39999999999998
 30
0.0
 40
2.0
  1
MAT 600
  7
OpenSans
 72
1
 11
456.0
 21
238.39999999999998
 31
0.0
100
AcDbText
 73
2
  0
LWPOLYLINE
  5
171
330
17
100
AcDbEntity
  8
G-STRUCT
100
AcDbPolyline
 90
4
 70
1
 10
332.0
 20
224.0
 10
580.0
 20
224.0
 10
580.0
 20
228.0
 10
332.0
 20
228.0
  0
TEXT
  5
172
330
17
100
AcDbEntity
  8
G-STRUCT
100
AcDbText
 10
344.0
 20
312.0
 30
0.0
 40
1.9
  1
WALL 600
 50
90.0
  7
OpenSans
 72
1
 11
344.0
 21
312.0
 31
0.0
100
AcDbText
 73
2
  0
TEXT
  5
173
330
17
100
AcDbEntity
  8
M-DIM
100
AcDbText
 10
456.0
 20
312.0
 30
0.0
 40
2.4
  1
CLEAR 3200   -   INTERNAL 5000
  7
OpenSans
 72
1
 11
456.0
 21
312.0
 31
0.0
100
AcDbText
 73
2
  0
TEXT
  5
174
330
17
100
AcDbEntity
  8
G-STRUCT
100
AcDbText
 10
456.0
 20
220.20000000000002
 30
0.0
 40
1.9
  1
PCC 100 M15 ON FORMATION
  7
OpenSans
 72
1
 11
456.0
 21
220.20000000000002
 31
0.0
100
AcDbText
 73
2
  0
LWPOLYLINE
  5
175
330
17
100
AcDbEntity
  8
G-STRUCT
100
AcDbPolyline
 90
4
 70
1
 10
428.0
 20
176.0
 10
484.0
 20
176.0
 10
484.0
 20
224.0
 10
428.0
 20
224.0
  0
TEXT
  5
176
330
17
100
AcDbEntity
  8
G-STRUCT
100
AcDbText
 10
456.0
 20
202.39999999999998
 30
0.0
 40
1.9
  1
SUMP SU-01
  7
OpenSans
 72
1
 11
456.0
 21
202.39999999999998
 31
0.0
100
AcDbText
 73
2
  0
TEXT
  5
177
330
17
100
AcDbEntity
  8
G-STRUCT
100
AcDbText
 10
456.0
 20
198.2
 30
0.0
 40
1.8
  1
base (-)8.000
  7
OpenSans
 72
1
 11
456.0
 21
198.2
 31
0.0
100
AcDbText
 73
2
  0
LINE
  5
178
330
17
100
AcDbEntity
  8
M-SECTION
100
AcDbLine
 10
228.0
 20
448.0
 30
0.0
 11
228.0
 21
352.0
 31
0.0
  0
LINE
  5
179
330
17
100
AcDbEntity
  8
M-SECTION
100
AcDbLine
 10
234.0
 20
448.0
 30
0.0
 11
234.0
 21
352.0
 31
0.0
  0
LWPOLYLINE
  5
17A
330
17
100
AcDbEntity
  8
G-STRUCT
100
AcDbPolyline
 90
4
 70
1
 10
240.0
 20
392.0
 10
292.0
 20
392.0
 10
292.0
 20
416.0
 10
240.0
 20
416.0
  0
HATCH
  5
17B
330
17
100
AcDbEntity
  8
S-HATCH
 62
7
100
AcDbHatch
 10
0.0
 20
0.0
 30
0.0
210
0.0
220
0.0
230
1.0
  2
ANSI31
 70
0
 71
0
 91
1
 92
3
 72
0
 73
1
 93
4
 10
240.0
 20
392.0
 10
292.0
 20
392.0
 10
292.0
 20
416.0
 10
240.0
 20
416.0
 97
0
 75
1
 76
1
 52
0.0
 41
1.6
 77
0
 78
1
 53
45.0
 43
0.0
 44
0.0
 45
-3.5921024485
 46
3.5921024485
 79
0
 98
0
  0
TEXT
  5
17C
330
17
100
AcDbEntity
  8
G-STRUCT
100
AcDbText
 10
266.0
 20
408.8
 30
0.0
 40
1.9
  1
SENTRY F1
  7
OpenSans
 72
1
 11
266.0
 21
408.8
 31
0.0
100
AcDbText
 73
2
  0
TEXT
  5
17D
330
17
100
AcDbEntity
  8
M-TEXT
100
AcDbText
 10
22.0
 20
376.0
 30
0.0
 40
1.9
  1
1500 x 1500 x 600 on in-situ basalt at (-)2.000  [C] B.8.7
  7
OpenSans
 11
22.0
 21
376.0
 31
0.0
100
AcDbText
  0
TEXT
  5
17E
330
17
100
AcDbEntity
  8
M-FLAG
100
AcDbText
 10
22.0
 20
371.6
 30
0.0
 40
1.9
  1
BEYOND A BREAK - >= 10 m clear of the shelter excavation, and its site position is ASSUMED (master U4)
  7
OpenSans
 11
22.0
 21
371.6
 31
0.0
100
AcDbText
  0
TEXT
  5
17F
330
17
100
AcDbEntity
  8
G-FLAGG
100
AcDbText
 10
22.0
 20
367.2
 30
0.0
 40
1.9
  1
THE ONLY FOUNDED ELEMENT INSIDE THE LOGGED HORIZON - AND ONLY JUST
  7
OpenSans
 11
22.0
 21
367.2
 31
0.0
100
AcDbText
  0
LINE
  5
180
330
17
100
AcDbEntity
  8
G-WATER
100
AcDbLine
 10
20.0
 20
416.0
 30
0.0
 11
23.0
 21
416.0
 31
0.0
  0
LINE
  5
181
330
17
100
AcDbEntity
  8
G-WATER
100
AcDbLine
 10
25.0
 20
416.0
 30
0.0
 11
28.0
 21
416.0
 31
0.0
  0
LINE
  5
182
330
17
100
AcDbEntity
  8
G-WATER
100
AcDbLine
 10
30.0
 20
416.0
 30
0.0
 11
33.0
 21
416.0
 31
0.0
  0
LINE
  5
183
330
17
100
AcDbEntity
  8
G-WATER
100
AcDbLine
 10
35.0
 20
416.0
 30
0.0
 11
38.0
 21
416.0
 31
0.0
  0
LINE
  5
184
330
17
100
AcDbEntity
  8
G-WATER
100
AcDbLine
 10
40.0
 20
416.0
 30
0.0
 11
43.0
 21
416.0
 31
0.0
  0
LINE
  5
185
330
17
100
AcDbEntity
  8
G-WATER
100
AcDbLine
 10
45.0
 20
416.0
 30
0.0
 11
48.0
 21
416.0
 31
0.0
  0
LINE
  5
186
330
17
100
AcDbEntity
  8
G-WATER
100
AcDbLine
 10
50.0
 20
416.0
 30
0.0
 11
53.0
 21
416.0
 31
0.0
  0
LINE
  5
187
330
17
100
AcDbEntity
  8
G-WATER
100
AcDbLine
 10
55.0
 20
416.0
 30
0.0
 11
58.0
 21
416.0
 31
0.0
  0
LINE
  5
188
330
17
100
AcDbEntity
  8
G-WATER
100
AcDbLine
 10
60.0
 20
416.0
 30
0.0
 11
63.0
 21
416.0
 31
0.0
  0
LINE
  5
189
330
17
100
AcDbEntity
  8
G-WATER
100
AcDbLine
 10
65.0
 20
416.0
 30
0.0
 11
68.0
 21
416.0
 31
0.0
  0
LINE
  5
18A
330
17
100
AcDbEntity
  8
G-WATER
100
AcDbLine
 10
70.0
 20
416.0
 30
0.0
 11
73.0
 21
416.0
 31
0.0
  0
LINE
  5
18B
330
17
100
AcDbEntity
  8
G-WATER
100
AcDbLine
 10
75.0
 20
416.0
 30
0.0
 11
78.0
 21
416.0
 31
0.0
  0
LINE
  5
18C
330
17
100
AcDbEntity
  8
G-WATER
100
AcDbLine
 10
80.0
 20
416.0
 30
0.0
 11
83.0
 21
416.0
 31
0.0
  0
LINE
  5
18D
330
17
100
AcDbEntity
  8
G-WATER
100
AcDbLine
 10
85.0
 20
416.0
 30
0.0
 11
88.0
 21
416.0
 31
0.0
  0
LINE
  5
18E
330
17
100
AcDbEntity
  8
G-WATER
100
AcDbLine
 10
90.0
 20
416.0
 30
0.0
 11
93.0
 21
416.0
 31
0.0
  0
LINE
  5
18F
330
17
100
AcDbEntity
  8
G-WATER
100
AcDbLine
 10
95.0
 20
416.0
 30
0.0
 11
98.0
 21
416.0
 31
0.0
  0
LINE
  5
190
330
17
100
AcDbEntity
  8
G-WATER
100
AcDbLine
 10
100.0
 20
416.0
 30
0.0
 11
103.0
 21
416.0
 31
0.0
  0
LINE
  5
191
330
17
100
AcDbEntity
  8
G-WATER
100
AcDbLine
 10
105.0
 20
416.0
 30
0.0
 11
108.0
 21
416.0
 31
0.0
  0
LINE
  5
192
330
17
100
AcDbEntity
  8
G-WATER
100
AcDbLine
 10
110.0
 20
416.0
 30
0.0
 11
113.0
 21
416.0
 31
0.0
  0
LINE
  5
193
330
17
100
AcDbEntity
  8
G-WATER
100
AcDbLine
 10
115.0
 20
416.0
 30
0.0
 11
118.0
 21
416.0
 31
0.0
  0
LINE
  5
194
330
17
100
AcDbEntity
  8
G-WATER
100
AcDbLine
 10
120.0
 20
416.0
 30
0.0
 11
123.0
 21
416.0
 31
0.0
  0
LINE
  5
195
330
17
100
AcDbEntity
  8
G-WATER
100
AcDbLine
 10
125.0
 20
416.0
 30
0.0
 11
128.0
 21
416.0
 31
0.0
  0
LINE
  5
196
330
17
100
AcDbEntity
  8
G-WATER
100
AcDbLine
 10
130.0
 20
416.0
 30
0.0
 11
133.0
 21
416.0
 31
0.0
  0
LINE
  5
197
330
17
100
AcDbEntity
  8
G-WATER
100
AcDbLine
 10
135.0
 20
416.0
 30
0.0
 11
138.0
 21
416.0
 31
0.0
  0
LINE
  5
198
330
17
100
AcDbEntity
  8
G-WATER
100
AcDbLine
 10
140.0
 20
416.0
 30
0.0
 11
143.0
 21
416.0
 31
0.0
  0
LINE
  5
199
330
17
100
AcDbEntity
  8
G-WATER
100
AcDbLine
 10
145.0
 20
416.0
 30
0.0
 11
148.0
 21
416.0
 31
0.0
  0
LINE
  5
19A
330
17
100
AcDbEntity
  8
G-WATER
100
AcDbLine
 10
150.0
 20
416.0
 30
0.0
 11
153.0
 21
416.0
 31
0.0
  0
LINE
  5
19B
330
17
100
AcDbEntity
  8
G-WATER
100
AcDbLine
 10
155.0
 20
416.0
 30
0.0
 11
158.0
 21
416.0
 31
0.0
  0
LINE
  5
19C
330
17
100
AcDbEntity
  8
G-WATER
100
AcDbLine
 10
160.0
 20
416.0
 30
0.0
 11
163.0
 21
416.0
 31
0.0
  0
LINE
  5
19D
330
17
100
AcDbEntity
  8
G-WATER
100
AcDbLine
 10
165.0
 20
416.0
 30
0.0
 11
168.0
 21
416.0
 31
0.0
  0
LINE
  5
19E
330
17
100
AcDbEntity
  8
G-WATER
100
AcDbLine
 10
170.0
 20
416.0
 30
0.0
 11
173.0
 21
416.0
 31
0.0
  0
LINE
  5
19F
330
17
100
AcDbEntity
  8
G-WATER
100
AcDbLine
 10
175.0
 20
416.0
 30
0.0
 11
178.0
 21
416.0
 31
0.0
  0
LINE
  5
1A0
330
17
100
AcDbEntity
  8
G-WATER
100
AcDbLine
 10
180.0
 20
416.0
 30
0.0
 11
183.0
 21
416.0
 31
0.0
  0
LINE
  5
1A1
330
17
100
AcDbEntity
  8
G-WATER
100
AcDbLine
 10
185.0
 20
416.0
 30
0.0
 11
188.0
 21
416.0
 31
0.0
  0
LINE
  5
1A2
330
17
100
AcDbEntity
  8
G-WATER
100
AcDbLine
 10
190.0
 20
416.0
 30
0.0
 11
193.0
 21
416.0
 31
0.0
  0
LINE
  5
1A3
330
17
100
AcDbEntity
  8
G-WATER
100
AcDbLine
 10
195.0
 20
416.0
 30
0.0
 11
198.0
 21
416.0
 31
0.0
  0
LINE
  5
1A4
330
17
100
AcDbEntity
  8
G-WATER
100
AcDbLine
 10
200.0
 20
416.0
 30
0.0
 11
203.0
 21
416.0
 31
0.0
  0
LINE
  5
1A5
330
17
100
AcDbEntity
  8
G-WATER
100
AcDbLine
 10
205.0
 20
416.0
 30
0.0
 11
208.0
 21
416.0
 31
0.0
  0
LINE
  5
1A6
330
17
100
AcDbEntity
  8
G-WATER
100
AcDbLine
 10
210.0
 20
416.0
 30
0.0
 11
213.0
 21
416.0
 31
0.0
  0
LINE
  5
1A7
330
17
100
AcDbEntity
  8
G-WATER
100
AcDbLine
 10
215.0
 20
416.0
 30
0.0
 11
218.0
 21
416.0
 31
0.0
  0
LINE
  5
1A8
330
17
100
AcDbEntity
  8
G-WATER
100
AcDbLine
 10
220.0
 20
416.0
 30
0.0
 11
223.0
 21
416.0
 31
0.0
  0
LINE
  5
1A9
330
17
100
AcDbEntity
  8
G-WATER
100
AcDbLine
 10
225.0
 20
416.0
 30
0.0
 11
228.0
 21
416.0
 31
0.0
  0
LINE
  5
1AA
330
17
100
AcDbEntity
  8
G-WATER
100
AcDbLine
 10
230.0
 20
416.0
 30
0.0
 11
233.0
 21
416.0
 31
0.0
  0
LINE
  5
1AB
330
17
100
AcDbEntity
  8
G-WATER
100
AcDbLine
 10
235.0
 20
416.0
 30
0.0
 11
238.0
 21
416.0
 31
0.0
  0
LINE
  5
1AC
330
17
100
AcDbEntity
  8
G-WATER
100
AcDbLine
 10
240.0
 20
416.0
 30
0.0
 11
243.0
 21
416.0
 31
0.0
  0
LINE
  5
1AD
330
17
100
AcDbEntity
  8
G-WATER
100
AcDbLine
 10
245.0
 20
416.0
 30
0.0
 11
248.0
 21
416.0
 31
0.0
  0
LINE
  5
1AE
330
17
100
AcDbEntity
  8
G-WATER
100
AcDbLine
 10
250.0
 20
416.0
 30
0.0
 11
253.0
 21
416.0
 31
0.0
  0
LINE
  5
1AF
330
17
100
AcDbEntity
  8
G-WATER
100
AcDbLine
 10
255.0
 20
416.0
 30
0.0
 11
258.0
 21
416.0
 31
0.0
  0
LINE
  5
1B0
330
17
100
AcDbEntity
  8
G-WATER
100
AcDbLine
 10
260.0
 20
416.0
 30
0.0
 11
263.0
 21
416.0
 31
0.0
  0
LINE
  5
1B1
330
17
100
AcDbEntity
  8
G-WATER
100
AcDbLine
 10
265.0
 20
416.0
 30
0.0
 11
268.0
 21
416.0
 31
0.0
  0
LINE
  5
1B2
330
17
100
AcDbEntity
  8
G-WATER
100
AcDbLine
 10
270.0
 20
416.0
 30
0.0
 11
273.0
 21
416.0
 31
0.0
  0
LINE
  5
1B3
330
17
100
AcDbEntity
  8
G-WATER
100
AcDbLine
 10
275.0
 20
416.0
 30
0.0
 11
278.0
 21
416.0
 31
0.0
  0
LINE
  5
1B4
330
17
100
AcDbEntity
  8
G-WATER
100
AcDbLine
 10
280.0
 20
416.0
 30
0.0
 11
283.0
 21
416.0
 31
0.0
  0
LINE
  5
1B5
330
17
100
AcDbEntity
  8
G-WATER
100
AcDbLine
 10
285.0
 20
416.0
 30
0.0
 11
288.0
 21
416.0
 31
0.0
  0
LINE
  5
1B6
330
17
100
AcDbEntity
  8
G-WATER
100
AcDbLine
 10
290.0
 20
416.0
 30
0.0
 11
293.0
 21
416.0
 31
0.0
  0
LINE
  5
1B7
330
17
100
AcDbEntity
  8
G-WATER
100
AcDbLine
 10
295.0
 20
416.0
 30
0.0
 11
298.0
 21
416.0
 31
0.0
  0
LINE
  5
1B8
330
17
100
AcDbEntity
  8
G-WATER
100
AcDbLine
 10
300.0
 20
416.0
 30
0.0
 11
303.0
 21
416.0
 31
0.0
  0
LINE
  5
1B9
330
17
100
AcDbEntity
  8
G-WATER
100
AcDbLine
 10
305.0
 20
416.0
 30
0.0
 11
308.0
 21
416.0
 31
0.0
  0
LINE
  5
1BA
330
17
100
AcDbEntity
  8
G-WATER
100
AcDbLine
 10
310.0
 20
416.0
 30
0.0
 11
313.0
 21
416.0
 31
0.0
  0
LINE
  5
1BB
330
17
100
AcDbEntity
  8
G-WATER
100
AcDbLine
 10
315.0
 20
416.0
 30
0.0
 11
318.0
 21
416.0
 31
0.0
  0
LINE
  5
1BC
330
17
100
AcDbEntity
  8
G-WATER
100
AcDbLine
 10
320.0
 20
416.0
 30
0.0
 11
323.0
 21
416.0
 31
0.0
  0
LINE
  5
1BD
330
17
100
AcDbEntity
  8
G-WATER
100
AcDbLine
 10
325.0
 20
416.0
 30
0.0
 11
328.0
 21
416.0
 31
0.0
  0
LINE
  5
1BE
330
17
100
AcDbEntity
  8
G-WATER
100
AcDbLine
 10
330.0
 20
416.0
 30
0.0
 11
333.0
 21
416.0
 31
0.0
  0
LINE
  5
1BF
330
17
100
AcDbEntity
  8
G-WATER
100
AcDbLine
 10
335.0
 20
416.0
 30
0.0
 11
338.0
 21
416.0
 31
0.0
  0
LINE
  5
1C0
330
17
100
AcDbEntity
  8
G-WATER
100
AcDbLine
 10
340.0
 20
416.0
 30
0.0
 11
343.0
 21
416.0
 31
0.0
  0
LINE
  5
1C1
330
17
100
AcDbEntity
  8
G-WATER
100
AcDbLine
 10
345.0
 20
416.0
 30
0.0
 11
348.0
 21
416.0
 31
0.0
  0
LINE
  5
1C2
330
17
100
AcDbEntity
  8
G-WATER
100
AcDbLine
 10
350.0
 20
416.0
 30
0.0
 11
353.0
 21
416.0
 31
0.0
  0
LINE
  5
1C3
330
17
100
AcDbEntity
  8
G-WATER
100
AcDbLine
 10
355.0
 20
416.0
 30
0.0
 11
358.0
 21
416.0
 31
0.0
  0
LINE
  5
1C4
330
17
100
AcDbEntity
  8
G-WATER
100
AcDbLine
 10
360.0
 20
416.0
 30
0.0
 11
363.0
 21
416.0
 31
0.0
  0
LINE
  5
1C5
330
17
100
AcDbEntity
  8
G-WATER
100
AcDbLine
 10
365.0
 20
416.0
 30
0.0
 11
368.0
 21
416.0
 31
0.0
  0
LINE
  5
1C6
330
17
100
AcDbEntity
  8
G-WATER
100
AcDbLine
 10
370.0
 20
416.0
 30
0.0
 11
373.0
 21
416.0
 31
0.0
  0
LINE
  5
1C7
330
17
100
AcDbEntity
  8
G-WATER
100
AcDbLine
 10
375.0
 20
416.0
 30
0.0
 11
378.0
 21
416.0
 31
0.0
  0
LINE
  5
1C8
330
17
100
AcDbEntity
  8
G-WATER
100
AcDbLine
 10
380.0
 20
416.0
 30
0.0
 11
383.0
 21
416.0
 31
0.0
  0
LINE
  5
1C9
330
17
100
AcDbEntity
  8
G-WATER
100
AcDbLine
 10
385.0
 20
416.0
 30
0.0
 11
388.0
 21
416.0
 31
0.0
  0
LINE
  5
1CA
330
17
100
AcDbEntity
  8
G-WATER
100
AcDbLine
 10
390.0
 20
416.0
 30
0.0
 11
393.0
 21
416.0
 31
0.0
  0
LINE
  5
1CB
330
17
100
AcDbEntity
  8
G-WATER
100
AcDbLine
 10
395.0
 20
416.0
 30
0.0
 11
398.0
 21
416.0
 31
0.0
  0
LINE
  5
1CC
330
17
100
AcDbEntity
  8
G-WATER
100
AcDbLine
 10
400.0
 20
416.0
 30
0.0
 11
403.0
 21
416.0
 31
0.0
  0
LINE
  5
1CD
330
17
100
AcDbEntity
  8
G-WATER
100
AcDbLine
 10
405.0
 20
416.0
 30
0.0
 11
408.0
 21
416.0
 31
0.0
  0
LINE
  5
1CE
330
17
100
AcDbEntity
  8
G-WATER
100
AcDbLine
 10
410.0
 20
416.0
 30
0.0
 11
413.0
 21
416.0
 31
0.0
  0
LINE
  5
1CF
330
17
100
AcDbEntity
  8
G-WATER
100
AcDbLine
 10
415.0
 20
416.0
 30
0.0
 11
418.0
 21
416.0
 31
0.0
  0
LINE
  5
1D0
330
17
100
AcDbEntity
  8
G-WATER
100
AcDbLine
 10
420.0
 20
416.0
 30
0.0
 11
423.0
 21
416.0
 31
0.0
  0
LINE
  5
1D1
330
17
100
AcDbEntity
  8
G-WATER
100
AcDbLine
 10
425.0
 20
416.0
 30
0.0
 11
428.0
 21
416.0
 31
0.0
  0
LINE
  5
1D2
330
17
100
AcDbEntity
  8
G-WATER
100
AcDbLine
 10
430.0
 20
416.0
 30
0.0
 11
433.0
 21
416.0
 31
0.0
  0
LINE
  5
1D3
330
17
100
AcDbEntity
  8
G-WATER
100
AcDbLine
 10
435.0
 20
416.0
 30
0.0
 11
438.0
 21
416.0
 31
0.0
  0
LINE
  5
1D4
330
17
100
AcDbEntity
  8
G-WATER
100
AcDbLine
 10
440.0
 20
416.0
 30
0.0
 11
443.0
 21
416.0
 31
0.0
  0
LINE
  5
1D5
330
17
100
AcDbEntity
  8
G-WATER
100
AcDbLine
 10
445.0
 20
416.0
 30
0.0
 11
448.0
 21
416.0
 31
0.0
  0
LINE
  5
1D6
330
17
100
AcDbEntity
  8
G-WATER
100
AcDbLine
 10
450.0
 20
416.0
 30
0.0
 11
453.0
 21
416.0
 31
0.0
  0
LINE
  5
1D7
330
17
100
AcDbEntity
  8
G-WATER
100
AcDbLine
 10
455.0
 20
416.0
 30
0.0
 11
458.0
 21
416.0
 31
0.0
  0
LINE
  5
1D8
330
17
100
AcDbEntity
  8
G-WATER
100
AcDbLine
 10
460.0
 20
416.0
 30
0.0
 11
463.0
 21
416.0
 31
0.0
  0
LINE
  5
1D9
330
17
100
AcDbEntity
  8
G-WATER
100
AcDbLine
 10
465.0
 20
416.0
 30
0.0
 11
468.0
 21
416.0
 31
0.0
  0
LINE
  5
1DA
330
17
100
AcDbEntity
  8
G-WATER
100
AcDbLine
 10
470.0
 20
416.0
 30
0.0
 11
473.0
 21
416.0
 31
0.0
  0
LINE
  5
1DB
330
17
100
AcDbEntity
  8
G-WATER
100
AcDbLine
 10
475.0
 20
416.0
 30
0.0
 11
478.0
 21
416.0
 31
0.0
  0
LINE
  5
1DC
330
17
100
AcDbEntity
  8
G-WATER
100
AcDbLine
 10
480.0
 20
416.0
 30
0.0
 11
483.0
 21
416.0
 31
0.0
  0
LINE
  5
1DD
330
17
100
AcDbEntity
  8
G-WATER
100
AcDbLine
 10
485.0
 20
416.0
 30
0.0
 11
488.0
 21
416.0
 31
0.0
  0
LINE
  5
1DE
330
17
100
AcDbEntity
  8
G-WATER
100
AcDbLine
 10
490.0
 20
416.0
 30
0.0
 11
493.0
 21
416.0
 31
0.0
  0
LINE
  5
1DF
330
17
100
AcDbEntity
  8
G-WATER
100
AcDbLine
 10
495.0
 20
416.0
 30
0.0
 11
498.0
 21
416.0
 31
0.0
  0
LINE
  5
1E0
330
17
100
AcDbEntity
  8
G-WATER
100
AcDbLine
 10
500.0
 20
416.0
 30
0.0
 11
503.0
 21
416.0
 31
0.0
  0
LINE
  5
1E1
330
17
100
AcDbEntity
  8
G-WATER
100
AcDbLine
 10
505.0
 20
416.0
 30
0.0
 11
508.0
 21
416.0
 31
0.0
  0
LINE
  5
1E2
330
17
100
AcDbEntity
  8
G-WATER
100
AcDbLine
 10
510.0
 20
416.0
 30
0.0
 11
513.0
 21
416.0
 31
0.0
  0
LINE
  5
1E3
330
17
100
AcDbEntity
  8
G-WATER
100
AcDbLine
 10
515.0
 20
416.0
 30
0.0
 11
518.0
 21
416.0
 31
0.0
  0
LINE
  5
1E4
330
17
100
AcDbEntity
  8
G-WATER
100
AcDbLine
 10
520.0
 20
416.0
 30
0.0
 11
523.0
 21
416.0
 31
0.0
  0
LINE
  5
1E5
330
17
100
AcDbEntity
  8
G-WATER
100
AcDbLine
 10
525.0
 20
416.0
 30
0.0
 11
528.0
 21
416.0
 31
0.0
  0
LINE
  5
1E6
330
17
100
AcDbEntity
  8
G-WATER
100
AcDbLine
 10
530.0
 20
416.0
 30
0.0
 11
533.0
 21
416.0
 31
0.0
  0
LINE
  5
1E7
330
17
100
AcDbEntity
  8
G-WATER
100
AcDbLine
 10
535.0
 20
416.0
 30
0.0
 11
538.0
 21
416.0
 31
0.0
  0
LINE
  5
1E8
330
17
100
AcDbEntity
  8
G-WATER
100
AcDbLine
 10
540.0
 20
416.0
 30
0.0
 11
543.0
 21
416.0
 31
0.0
  0
LINE
  5
1E9
330
17
100
AcDbEntity
  8
G-WATER
100
AcDbLine
 10
545.0
 20
416.0
 30
0.0
 11
548.0
 21
416.0
 31
0.0
  0
LINE
  5
1EA
330
17
100
AcDbEntity
  8
G-WATER
100
AcDbLine
 10
550.0
 20
416.0
 30
0.0
 11
553.0
 21
416.0
 31
0.0
  0
LINE
  5
1EB
330
17
100
AcDbEntity
  8
G-WATER
100
AcDbLine
 10
555.0
 20
416.0
 30
0.0
 11
558.0
 21
416.0
 31
0.0
  0
LINE
  5
1EC
330
17
100
AcDbEntity
  8
G-WATER
100
AcDbLine
 10
560.0
 20
416.0
 30
0.0
 11
563.0
 21
416.0
 31
0.0
  0
LINE
  5
1ED
330
17
100
AcDbEntity
  8
G-WATER
100
AcDbLine
 10
565.0
 20
416.0
 30
0.0
 11
568.0
 21
416.0
 31
0.0
  0
LINE
  5
1EE
330
17
100
AcDbEntity
  8
G-WATER
100
AcDbLine
 10
570.0
 20
416.0
 30
0.0
 11
573.0
 21
416.0
 31
0.0
  0
LINE
  5
1EF
330
17
100
AcDbEntity
  8
G-WATER
100
AcDbLine
 10
575.0
 20
416.0
 30
0.0
 11
578.0
 21
416.0
 31
0.0
  0
LINE
  5
1F0
330
17
100
AcDbEntity
  8
G-WATER
100
AcDbLine
 10
580.0
 20
416.0
 30
0.0
 11
583.0
 21
416.0
 31
0.0
  0
LINE
  5
1F1
330
17
100
AcDbEntity
  8
G-WATER
100
AcDbLine
 10
585.0
 20
416.0
 30
0.0
 11
588.0
 21
416.0
 31
0.0
  0
LINE
  5
1F2
330
17
100
AcDbEntity
  8
G-WATER
100
AcDbLine
 10
590.0
 20
416.0
 30
0.0
 11
593.0
 21
416.0
 31
0.0
  0
LINE
  5
1F3
330
17
100
AcDbEntity
  8
G-WATER
100
AcDbLine
 10
595.0
 20
416.0
 30
0.0
 11
598.0
 21
416.0
 31
0.0
  0
LINE
  5
1F4
330
17
100
AcDbEntity
  8
G-WATER
100
AcDbLine
 10
600.0
 20
416.0
 30
0.0
 11
603.0
 21
416.0
 31
0.0
  0
LINE
  5
1F5
330
17
100
AcDbEntity
  8
G-WATER
100
AcDbLine
 10
605.0
 20
416.0
 30
0.0
 11
608.0
 21
416.0
 31
0.0
  0
LINE
  5
1F6
330
17
100
AcDbEntity
  8
G-WATER
100
AcDbLine
 10
610.0
 20
416.0
 30
0.0
 11
613.0
 21
416.0
 31
0.0
  0
LINE
  5
1F7
330
17
100
AcDbEntity
  8
G-WATER
100
AcDbLine
 10
615.0
 20
416.0
 30
0.0
 11
618.0
 21
416.0
 31
0.0
  0
LINE
  5
1F8
330
17
100
AcDbEntity
  8
G-WATER
100
AcDbLine
 10
620.0
 20
416.0
 30
0.0
 11
623.0
 21
416.0
 31
0.0
  0
LINE
  5
1F9
330
17
100
AcDbEntity
  8
G-WATER
100
AcDbLine
 10
625.0
 20
416.0
 30
0.0
 11
628.0
 21
416.0
 31
0.0
  0
LINE
  5
1FA
330
17
100
AcDbEntity
  8
G-WATER
100
AcDbLine
 10
630.0
 20
416.0
 30
0.0
 11
633.0
 21
416.0
 31
0.0
  0
LINE
  5
1FB
330
17
100
AcDbEntity
  8
G-WATER
100
AcDbLine
 10
635.0
 20
416.0
 30
0.0
 11
638.0
 21
416.0
 31
0.0
  0
LINE
  5
1FC
330
17
100
AcDbEntity
  8
G-WATER
100
AcDbLine
 10
640.0
 20
416.0
 30
0.0
 11
643.0
 21
416.0
 31
0.0
  0
TEXT
  5
1FD
330
17
100
AcDbEntity
  8
G-WATER
100
AcDbText
 10
20.0
 20
417.8
 30
0.0
 40
2.1
  1
DESIGN GWT (-)2.000   [A]  K.2 A2 - THE SINGLE MOST IMPORTANT NUMBER IN THE PROJECT, AND IT IS ASSUMED
  7
OpenSans
 11
20.0
 21
417.8
 31
0.0
100
AcDbText
  0
LINE
  5
1FE
330
17
100
AcDbEntity
  8
M-LEVEL
100
AcDbLine
 10
18.0
 20
496.0
 30
0.0
 11
646.0
 21
496.0
 31
0.0
  0
TEXT
  5
1FF
330
17
100
AcDbEntity
  8
M-LEVEL
100
AcDbText
 10
212.0
 20
498.2
 30
0.0
 40
2.0
  1
FINISHED GRADE 0.000  -  PROJECT DATUM, LOCAL  [C] A.4.1
  7
OpenSans
 11
212.0
 21
498.2
 31
0.0
100
AcDbText
  0
LINE
  5
200
330
17
100
AcDbEntity
  8
M-LEVEL
100
AcDbLine
 10
587.0
 20
496.0
 30
0.0
 11
593.0
 21
496.0
 31
0.0
  0
LWPOLYLINE
  5
201
330
17
100
AcDbEntity
  8
M-LEVEL
100
AcDbPolyline
 90
3
 70
1
 10
590.0
 20
496.0
 10
588.4
 20
498.4
 10
591.6
 20
498.4
  0
TEXT
  5
202
330
17
100
AcDbEntity
  8
M-LEVEL
100
AcDbText
 10
594.5
 20
496.8
 30
0.0
 40
1.9
  1
GRADE 0.000
  7
OpenSans
 11
594.5
 21
496.8
 31
0.0
100
AcDbText
  0
LINE
  5
203
330
17
100
AcDbEntity
  8
G-NODATA
100
AcDbLine
 10
587.0
 20
436.0
 30
0.0
 11
593.0
 21
436.0
 31
0.0
  0
LWPOLYLINE
  5
204
330
17
100
AcDbEntity
  8
G-NODATA
100
AcDbPolyline
 90
3
 70
1
 10
590.0
 20
436.0
 10
588.4
 20
438.4
 10
591.6
 20
438.4
  0
TEXT
  5
205
330
17
100
AcDbEntity
  8
G-NODATA
100
AcDbText
 10
594.5
 20
436.8
 30
0.0
 40
1.9
  1
DEEPEST TRIAL PIT (-)1.500   [C]
  7
OpenSans
 11
594.5
 21
436.8
 31
0.0
100
AcDbText
  0
LINE
  5
206
330
17
100
AcDbEntity
  8
M-LEVEL
100
AcDbLine
 10
587.0
 20
416.0
 30
0.0
 11
593.0
 21
416.0
 31
0.0
  0
LWPOLYLINE
  5
207
330
17
100
AcDbEntity
  8
M-LEVEL
100
AcDbPolyline
 90
3
 70
1
 10
590.0
 20
416.0
 10
588.4
 20
418.4
 10
591.6
 20
418.4
  0
TEXT
  5
208
330
17
100
AcDbEntity
  8
M-LEVEL
100
AcDbText
 10
594.5
 20
416.8
 30
0.0
 40
1.9
  1
SLAB TOP / DESIGN GWT (-)2.000
  7
OpenSans
 11
594.5
 21
416.8
 31
0.0
100
AcDbText
  0
LINE
  5
209
330
17
100
AcDbEntity
  8
M-LEVEL
100
AcDbLine
 10
587.0
 20
252.0
 30
0.0
 11
593.0
 21
252.0
 31
0.0
  0
LWPOLYLINE
  5
20A
330
17
100
AcDbEntity
  8
M-LEVEL
100
AcDbPolyline
 90
3
 70
1
 10
590.0
 20
252.0
 10
588.4
 20
254.4
 10
591.6
 20
254.4
  0
TEXT
  5
20B
330
17
100
AcDbEntity
  8
M-LEVEL
100
AcDbText
 10
594.5
 20
252.8
 30
0.0
 40
1.9
  1
FLOOR (-)6.100
  7
OpenSans
 11
594.5
 21
252.8
 31
0.0
100
AcDbText
  0
LINE
  5
20C
330
17
100
AcDbEntity
  8
M-LEVEL
100
AcDbLine
 10
587.0
 20
228.0
 30
0.0
 11
593.0
 21
228.0
 31
0.0
  0
LWPOLYLINE
  5
20D
330
17
100
AcDbEntity
  8
M-LEVEL
100
AcDbPolyline
 90
3
 70
1
 10
590.0
 20
228.0
 10
588.4
 20
230.4
 10
591.6
 20
230.4
  0
TEXT
  5
20E
330
17
100
AcDbEntity
  8
M-LEVEL
100
AcDbText
 10
594.5
 20
228.8
 30
0.0
 40
1.9
  1
MAT SOFFIT (-)6.700
  7
OpenSans
 11
594.5
 21
228.8
 31
0.0
100
AcDbText
  0
LINE
  5
20F
330
17
100
AcDbEntity
  8
G-NODATA
100
AcDbLine
 10
587.0
 20
224.0
 30
0.0
 11
593.0
 21
224.0
 31
0.0
  0
LWPOLYLINE
  5
210
330
17
100
AcDbEntity
  8
G-NODATA
100
AcDbPolyline
 90
3
 70
1
 10
590.0
 20
224.0
 10
588.4
 20
226.4
 10
591.6
 20
226.4
  0
TEXT
  5
211
330
17
100
AcDbEntity
  8
G-NODATA
100
AcDbText
 10
594.5
 20
221.60000000000002
 30
0.0
 40
1.9
  1
FORMATION (-)6.800  ***  THE MAT BEARS HERE
  7
OpenSans
 11
594.5
 21
221.60000000000002
 31
0.0
100
AcDbText
  0
LINE
  5
212
330
17
100
AcDbEntity
  8
M-LEVEL
100
AcDbLine
 10
587.0
 20
176.0
 30
0.0
 11
593.0
 21
176.0
 31
0.0
  0
LWPOLYLINE
  5
213
330
17
100
AcDbEntity
  8
M-LEVEL
100
AcDbPolyline
 90
3
 70
1
 10
590.0
 20
176.0
 10
588.4
 20
178.4
 10
591.6
 20
178.4
  0
TEXT
  5
214
330
17
100
AcDbEntity
  8
M-LEVEL
100
AcDbText
 10
594.5
 20
176.8
 30
0.0
 40
1.9
  1
SUMP BASE (-)8.000
  7
OpenSans
 11
594.5
 21
176.8
 31
0.0
100
AcDbText
  0
LINE
  5
215
330
17
100
AcDbEntity
  8
G-FLAGG
100
AcDbLine
 10
310.0
 20
436.0
 30
0.0
 11
310.0
 21
224.0
 31
0.0
  0
LWPOLYLINE
  5
216
330
17
100
AcDbEntity
  8
G-FLAGG
100
AcDbPolyline
 90
3
 70
1
 10
310.0
 20
436.0
 10
307.0
 20
432.0
 10
313.0
 20
432.0
  0
LWPOLYLINE
  5
217
330
17
100
AcDbEntity
  8
G-FLAGG
100
AcDbPolyline
 90
3
 70
1
 10
310.0
 20
224.0
 10
307.0
 20
228.0
 10
313.0
 20
228.0
  0
TEXT
  5
218
330
17
100
AcDbEntity
  8
G-FLAGG
100
AcDbText
 10
305.0
 20
332.0
 30
0.0
 40
3.0
  1
5.300 m
  7
OpenSans
 72
2
 11
305.0
 21
332.0
 31
0.0
100
AcDbText
  0
TEXT
  5
219
330
17
100
AcDbEntity
  8
G-FLAGG
100
AcDbText
 10
305.0
 20
326.6
 30
0.0
 40
2.2
  1
OF UNLOGGED
  7
OpenSans
 72
2
 11
305.0
 21
326.6
 31
0.0
100
AcDbText
  0
TEXT
  5
21A
330
17
100
AcDbEntity
  8
G-FLAGG
100
AcDbText
 10
305.0
 20
322.0
 30
0.0
 40
2.2
  1
GROUND
  7
OpenSans
 72
2
 11
305.0
 21
322.0
 31
0.0
100
AcDbText
  0
LINE
  5
21B
330
17
100
AcDbEntity
  8
G-ROCK
100
AcDbLine
 10
20.0
 20
460.0
 30
0.0
 11
22.0
 21
460.0
 31
0.0
  0
LINE
  5
21C
330
17
100
AcDbEntity
  8
G-ROCK
100
AcDbLine
 10
23.6
 20
460.0
 30
0.0
 11
25.6
 21
460.0
 31
0.0
  0
LINE
  5
21D
330
17
100
AcDbEntity
  8
G-ROCK
100
AcDbLine
 10
27.2
 20
460.0
 30
0.0
 11
29.2
 21
460.0
 31
0.0
  0
LINE
  5
21E
330
17
100
AcDbEntity
  8
G-ROCK
100
AcDbLine
 10
30.799999999999997
 20
460.0
 30
0.0
 11
32.8
 21
460.0
 31
0.0
  0
LINE
  5
21F
330
17
100
AcDbEntity
  8
G-ROCK
100
AcDbLine
 10
34.4
 20
460.0
 30
0.0
 11
36.4
 21
460.0
 31
0.0
  0
LINE
  5
220
330
17
100
AcDbEntity
  8
G-ROCK
100
AcDbLine
 10
38.0
 20
460.0
 30
0.0
 11
40.0
 21
460.0
 31
0.0
  0
LINE
  5
221
330
17
100
AcDbEntity
  8
G-ROCK
100
AcDbLine
 10
41.6
 20
460.0
 30
0.0
 11
43.6
 21
460.0
 31
0.0
  0
LINE
  5
222
330
17
100
AcDbEntity
  8
G-ROCK
100
AcDbLine
 10
45.2
 20
460.0
 30
0.0
 11
47.2
 21
460.0
 31
0.0
  0
LINE
  5
223
330
17
100
AcDbEntity
  8
G-ROCK
100
AcDbLine
 10
48.800000000000004
 20
460.0
 30
0.0
 11
50.800000000000004
 21
460.0
 31
0.0
  0
LINE
  5
224
330
17
100
AcDbEntity
  8
G-ROCK
100
AcDbLine
 10
52.400000000000006
 20
460.0
 30
0.0
 11
54.400000000000006
 21
460.0
 31
0.0
  0
LINE
  5
225
330
17
100
AcDbEntity
  8
G-ROCK
100
AcDbLine
 10
56.00000000000001
 20
460.0
 30
0.0
 11
58.00000000000001
 21
460.0
 31
0.0
  0
LINE
  5
226
330
17
100
AcDbEntity
  8
G-ROCK
100
AcDbLine
 10
59.60000000000001
 20
460.0
 30
0.0
 11
61.60000000000001
 21
460.0
 31
0.0
  0
LINE
  5
227
330
17
100
AcDbEntity
  8
G-ROCK
100
AcDbLine
 10
63.20000000000001
 20
460.0
 30
0.0
 11
65.20000000000002
 21
460.0
 31
0.0
  0
LINE
  5
228
330
17
100
AcDbEntity
  8
G-ROCK
100
AcDbLine
 10
66.80000000000001
 20
460.0
 30
0.0
 11
68.80000000000001
 21
460.0
 31
0.0
  0
LINE
  5
229
330
17
100
AcDbEntity
  8
G-ROCK
100
AcDbLine
 10
70.4
 20
460.0
 30
0.0
 11
72.4
 21
460.0
 31
0.0
  0
LINE
  5
22A
330
17
100
AcDbEntity
  8
G-ROCK
100
AcDbLine
 10
74.00000000000001
 20
460.0
 30
0.0
 11
76.00000000000001
 21
460.0
 31
0.0
  0
LINE
  5
22B
330
17
100
AcDbEntity
  8
G-ROCK
100
AcDbLine
 10
77.60000000000002
 20
460.0
 30
0.0
 11
79.60000000000002
 21
460.0
 31
0.0
  0
LINE
  5
22C
330
17
100
AcDbEntity
  8
G-ROCK
100
AcDbLine
 10
81.20000000000002
 20
460.0
 30
0.0
 11
83.20000000000002
 21
460.0
 31
0.0
  0
LINE
  5
22D
330
17
100
AcDbEntity
  8
G-ROCK
100
AcDbLine
 10
84.80000000000001
 20
460.0
 30
0.0
 11
86.80000000000001
 21
460.0
 31
0.0
  0
LINE
  5
22E
330
17
100
AcDbEntity
  8
G-ROCK
100
AcDbLine
 10
88.4
 20
460.0
 30
0.0
 11
90.4
 21
460.0
 31
0.0
  0
LINE
  5
22F
330
17
100
AcDbEntity
  8
G-ROCK
100
AcDbLine
 10
92.0
 20
460.0
 30
0.0
 11
94.0
 21
460.0
 31
0.0
  0
LINE
  5
230
330
17
100
AcDbEntity
  8
G-ROCK
100
AcDbLine
 10
95.6
 20
460.0
 30
0.0
 11
97.6
 21
460.0
 31
0.0
  0
LINE
  5
231
330
17
100
AcDbEntity
  8
G-ROCK
100
AcDbLine
 10
99.19999999999999
 20
460.0
 30
0.0
 11
101.19999999999999
 21
460.0
 31
0.0
  0
LINE
  5
232
330
17
100
AcDbEntity
  8
G-ROCK
100
AcDbLine
 10
102.79999999999998
 20
460.0
 30
0.0
 11
104.79999999999998
 21
460.0
 31
0.0
  0
LINE
  5
233
330
17
100
AcDbEntity
  8
G-ROCK
100
AcDbLine
 10
106.39999999999998
 20
460.0
 30
0.0
 11
108.39999999999998
 21
460.0
 31
0.0
  0
LINE
  5
234
330
17
100
AcDbEntity
  8
G-ROCK
100
AcDbLine
 10
109.99999999999997
 20
460.0
 30
0.0
 11
111.99999999999997
 21
460.0
 31
0.0
  0
LINE
  5
235
330
17
100
AcDbEntity
  8
G-ROCK
100
AcDbLine
 10
113.59999999999997
 20
460.0
 30
0.0
 11
115.59999999999997
 21
460.0
 31
0.0
  0
LINE
  5
236
330
17
100
AcDbEntity
  8
G-ROCK
100
AcDbLine
 10
117.19999999999996
 20
460.0
 30
0.0
 11
119.19999999999996
 21
460.0
 31
0.0
  0
LINE
  5
237
330
17
100
AcDbEntity
  8
G-ROCK
100
AcDbLine
 10
120.79999999999995
 20
460.0
 30
0.0
 11
122.79999999999995
 21
460.0
 31
0.0
  0
LINE
  5
238
330
17
100
AcDbEntity
  8
G-ROCK
100
AcDbLine
 10
124.39999999999995
 20
460.0
 30
0.0
 11
126.39999999999995
 21
460.0
 31
0.0
  0
LINE
  5
239
330
17
100
AcDbEntity
  8
G-ROCK
100
AcDbLine
 10
127.99999999999994
 20
460.0
 30
0.0
 11
129.99999999999994
 21
460.0
 31
0.0
  0
LINE
  5
23A
330
17
100
AcDbEntity
  8
G-ROCK
100
AcDbLine
 10
131.59999999999994
 20
460.0
 30
0.0
 11
133.59999999999994
 21
460.0
 31
0.0
  0
LINE
  5
23B
330
17
100
AcDbEntity
  8
G-ROCK
100
AcDbLine
 10
135.19999999999993
 20
460.0
 30
0.0
 11
137.19999999999993
 21
460.0
 31
0.0
  0
LINE
  5
23C
330
17
100
AcDbEntity
  8
G-ROCK
100
AcDbLine
 10
138.79999999999993
 20
460.0
 30
0.0
 11
140.79999999999993
 21
460.0
 31
0.0
  0
LINE
  5
23D
330
17
100
AcDbEntity
  8
G-ROCK
100
AcDbLine
 10
142.39999999999992
 20
460.0
 30
0.0
 11
144.39999999999992
 21
460.0
 31
0.0
  0
LINE
  5
23E
330
17
100
AcDbEntity
  8
G-ROCK
100
AcDbLine
 10
145.99999999999991
 20
460.0
 30
0.0
 11
147.99999999999991
 21
460.0
 31
0.0
  0
LINE
  5
23F
330
17
100
AcDbEntity
  8
G-ROCK
100
AcDbLine
 10
149.5999999999999
 20
460.0
 30
0.0
 11
151.5999999999999
 21
460.0
 31
0.0
  0
LINE
  5
240
330
17
100
AcDbEntity
  8
G-ROCK
100
AcDbLine
 10
153.1999999999999
 20
460.0
 30
0.0
 11
155.1999999999999
 21
460.0
 31
0.0
  0
LINE
  5
241
330
17
100
AcDbEntity
  8
G-ROCK
100
AcDbLine
 10
156.7999999999999
 20
460.0
 30
0.0
 11
158.7999999999999
 21
460.0
 31
0.0
  0
LINE
  5
242
330
17
100
AcDbEntity
  8
G-ROCK
100
AcDbLine
 10
160.3999999999999
 20
460.0
 30
0.0
 11
162.3999999999999
 21
460.0
 31
0.0
  0
LINE
  5
243
330
17
100
AcDbEntity
  8
G-ROCK
100
AcDbLine
 10
163.9999999999999
 20
460.0
 30
0.0
 11
165.9999999999999
 21
460.0
 31
0.0
  0
LINE
  5
244
330
17
100
AcDbEntity
  8
G-ROCK
100
AcDbLine
 10
167.59999999999988
 20
460.0
 30
0.0
 11
169.59999999999988
 21
460.0
 31
0.0
  0
LINE
  5
245
330
17
100
AcDbEntity
  8
G-ROCK
100
AcDbLine
 10
171.19999999999987
 20
460.0
 30
0.0
 11
173.19999999999987
 21
460.0
 31
0.0
  0
LINE
  5
246
330
17
100
AcDbEntity
  8
G-ROCK
100
AcDbLine
 10
174.79999999999987
 20
460.0
 30
0.0
 11
176.79999999999987
 21
460.0
 31
0.0
  0
LINE
  5
247
330
17
100
AcDbEntity
  8
G-ROCK
100
AcDbLine
 10
178.39999999999986
 20
460.0
 30
0.0
 11
180.39999999999986
 21
460.0
 31
0.0
  0
LINE
  5
248
330
17
100
AcDbEntity
  8
G-ROCK
100
AcDbLine
 10
181.99999999999986
 20
460.0
 30
0.0
 11
183.99999999999986
 21
460.0
 31
0.0
  0
LINE
  5
249
330
17
100
AcDbEntity
  8
G-ROCK
100
AcDbLine
 10
185.59999999999985
 20
460.0
 30
0.0
 11
187.59999999999985
 21
460.0
 31
0.0
  0
LINE
  5
24A
330
17
100
AcDbEntity
  8
G-ROCK
100
AcDbLine
 10
189.19999999999985
 20
460.0
 30
0.0
 11
191.19999999999985
 21
460.0
 31
0.0
  0
LINE
  5
24B
330
17
100
AcDbEntity
  8
G-ROCK
100
AcDbLine
 10
192.79999999999984
 20
460.0
 30
0.0
 11
194.79999999999984
 21
460.0
 31
0.0
  0
LINE
  5
24C
330
17
100
AcDbEntity
  8
G-ROCK
100
AcDbLine
 10
196.39999999999984
 20
460.0
 30
0.0
 11
198.39999999999984
 21
460.0
 31
0.0
  0
LINE
  5
24D
330
17
100
AcDbEntity
  8
G-ROCK
100
AcDbLine
 10
199.99999999999983
 20
460.0
 30
0.0
 11
201.99999999999983
 21
460.0
 31
0.0
  0
LINE
  5
24E
330
17
100
AcDbEntity
  8
G-ROCK
100
AcDbLine
 10
203.59999999999982
 20
460.0
 30
0.0
 11
205.59999999999982
 21
460.0
 31
0.0
  0
LINE
  5
24F
330
17
100
AcDbEntity
  8
G-ROCK
100
AcDbLine
 10
207.19999999999982
 20
460.0
 30
0.0
 11
209.19999999999982
 21
460.0
 31
0.0
  0
LINE
  5
250
330
17
100
AcDbEntity
  8
G-ROCK
100
AcDbLine
 10
210.7999999999998
 20
460.0
 30
0.0
 11
212.7999999999998
 21
460.0
 31
0.0
  0
LINE
  5
251
330
17
100
AcDbEntity
  8
G-ROCK
100
AcDbLine
 10
214.3999999999998
 20
460.0
 30
0.0
 11
216.3999999999998
 21
460.0
 31
0.0
  0
LINE
  5
252
330
17
100
AcDbEntity
  8
G-ROCK
100
AcDbLine
 10
217.9999999999998
 20
460.0
 30
0.0
 11
219.9999999999998
 21
460.0
 31
0.0
  0
LINE
  5
253
330
17
100
AcDbEntity
  8
G-ROCK
100
AcDbLine
 10
221.5999999999998
 20
460.0
 30
0.0
 11
222.0
 21
460.0
 31
0.0
  0
LINE
  5
254
330
17
100
AcDbEntity
  8
G-ROCK
100
AcDbLine
 10
20.0
 20
436.0
 30
0.0
 11
22.0
 21
436.0
 31
0.0
  0
LINE
  5
255
330
17
100
AcDbEntity
  8
G-ROCK
100
AcDbLine
 10
23.6
 20
436.0
 30
0.0
 11
25.6
 21
436.0
 31
0.0
  0
LINE
  5
256
330
17
100
AcDbEntity
  8
G-ROCK
100
AcDbLine
 10
27.2
 20
436.0
 30
0.0
 11
29.2
 21
436.0
 31
0.0
  0
LINE
  5
257
330
17
100
AcDbEntity
  8
G-ROCK
100
AcDbLine
 10
30.799999999999997
 20
436.0
 30
0.0
 11
32.8
 21
436.0
 31
0.0
  0
LINE
  5
258
330
17
100
AcDbEntity
  8
G-ROCK
100
AcDbLine
 10
34.4
 20
436.0
 30
0.0
 11
36.4
 21
436.0
 31
0.0
  0
LINE
  5
259
330
17
100
AcDbEntity
  8
G-ROCK
100
AcDbLine
 10
38.0
 20
436.0
 30
0.0
 11
40.0
 21
436.0
 31
0.0
  0
LINE
  5
25A
330
17
100
AcDbEntity
  8
G-ROCK
100
AcDbLine
 10
41.6
 20
436.0
 30
0.0
 11
43.6
 21
436.0
 31
0.0
  0
LINE
  5
25B
330
17
100
AcDbEntity
  8
G-ROCK
100
AcDbLine
 10
45.2
 20
436.0
 30
0.0
 11
47.2
 21
436.0
 31
0.0
  0
LINE
  5
25C
330
17
100
AcDbEntity
  8
G-ROCK
100
AcDbLine
 10
48.800000000000004
 20
436.0
 30
0.0
 11
50.800000000000004
 21
436.0
 31
0.0
  0
LINE
  5
25D
330
17
100
AcDbEntity
  8
G-ROCK
100
AcDbLine
 10
52.400000000000006
 20
436.0
 30
0.0
 11
54.400000000000006
 21
436.0
 31
0.0
  0
LINE
  5
25E
330
17
100
AcDbEntity
  8
G-ROCK
100
AcDbLine
 10
56.00000000000001
 20
436.0
 30
0.0
 11
58.00000000000001
 21
436.0
 31
0.0
  0
LINE
  5
25F
330
17
100
AcDbEntity
  8
G-ROCK
100
AcDbLine
 10
59.60000000000001
 20
436.0
 30
0.0
 11
61.60000000000001
 21
436.0
 31
0.0
  0
LINE
  5
260
330
17
100
AcDbEntity
  8
G-ROCK
100
AcDbLine
 10
63.20000000000001
 20
436.0
 30
0.0
 11
65.20000000000002
 21
436.0
 31
0.0
  0
LINE
  5
261
330
17
100
AcDbEntity
  8
G-ROCK
100
AcDbLine
 10
66.80000000000001
 20
436.0
 30
0.0
 11
68.80000000000001
 21
436.0
 31
0.0
  0
LINE
  5
262
330
17
100
AcDbEntity
  8
G-ROCK
100
AcDbLine
 10
70.4
 20
436.0
 30
0.0
 11
72.4
 21
436.0
 31
0.0
  0
LINE
  5
263
330
17
100
AcDbEntity
  8
G-ROCK
100
AcDbLine
 10
74.00000000000001
 20
436.0
 30
0.0
 11
76.00000000000001
 21
436.0
 31
0.0
  0
LINE
  5
264
330
17
100
AcDbEntity
  8
G-ROCK
100
AcDbLine
 10
77.60000000000002
 20
436.0
 30
0.0
 11
79.60000000000002
 21
436.0
 31
0.0
  0
LINE
  5
265
330
17
100
AcDbEntity
  8
G-ROCK
100
AcDbLine
 10
81.20000000000002
 20
436.0
 30
0.0
 11
83.20000000000002
 21
436.0
 31
0.0
  0
LINE
  5
266
330
17
100
AcDbEntity
  8
G-ROCK
100
AcDbLine
 10
84.80000000000001
 20
436.0
 30
0.0
 11
86.80000000000001
 21
436.0
 31
0.0
  0
LINE
  5
267
330
17
100
AcDbEntity
  8
G-ROCK
100
AcDbLine
 10
88.4
 20
436.0
 30
0.0
 11
90.4
 21
436.0
 31
0.0
  0
LINE
  5
268
330
17
100
AcDbEntity
  8
G-ROCK
100
AcDbLine
 10
92.0
 20
436.0
 30
0.0
 11
94.0
 21
436.0
 31
0.0
  0
LINE
  5
269
330
17
100
AcDbEntity
  8
G-ROCK
100
AcDbLine
 10
95.6
 20
436.0
 30
0.0
 11
97.6
 21
436.0
 31
0.0
  0
LINE
  5
26A
330
17
100
AcDbEntity
  8
G-ROCK
100
AcDbLine
 10
99.19999999999999
 20
436.0
 30
0.0
 11
101.19999999999999
 21
436.0
 31
0.0
  0
LINE
  5
26B
330
17
100
AcDbEntity
  8
G-ROCK
100
AcDbLine
 10
102.79999999999998
 20
436.0
 30
0.0
 11
104.79999999999998
 21
436.0
 31
0.0
  0
LINE
  5
26C
330
17
100
AcDbEntity
  8
G-ROCK
100
AcDbLine
 10
106.39999999999998
 20
436.0
 30
0.0
 11
108.39999999999998
 21
436.0
 31
0.0
  0
LINE
  5
26D
330
17
100
AcDbEntity
  8
G-ROCK
100
AcDbLine
 10
109.99999999999997
 20
436.0
 30
0.0
 11
111.99999999999997
 21
436.0
 31
0.0
  0
LINE
  5
26E
330
17
100
AcDbEntity
  8
G-ROCK
100
AcDbLine
 10
113.59999999999997
 20
436.0
 30
0.0
 11
115.59999999999997
 21
436.0
 31
0.0
  0
LINE
  5
26F
330
17
100
AcDbEntity
  8
G-ROCK
100
AcDbLine
 10
117.19999999999996
 20
436.0
 30
0.0
 11
119.19999999999996
 21
436.0
 31
0.0
  0
LINE
  5
270
330
17
100
AcDbEntity
  8
G-ROCK
100
AcDbLine
 10
120.79999999999995
 20
436.0
 30
0.0
 11
122.79999999999995
 21
436.0
 31
0.0
  0
LINE
  5
271
330
17
100
AcDbEntity
  8
G-ROCK
100
AcDbLine
 10
124.39999999999995
 20
436.0
 30
0.0
 11
126.39999999999995
 21
436.0
 31
0.0
  0
LINE
  5
272
330
17
100
AcDbEntity
  8
G-ROCK
100
AcDbLine
 10
127.99999999999994
 20
436.0
 30
0.0
 11
129.99999999999994
 21
436.0
 31
0.0
  0
LINE
  5
273
330
17
100
AcDbEntity
  8
G-ROCK
100
AcDbLine
 10
131.59999999999994
 20
436.0
 30
0.0
 11
133.59999999999994
 21
436.0
 31
0.0
  0
LINE
  5
274
330
17
100
AcDbEntity
  8
G-ROCK
100
AcDbLine
 10
135.19999999999993
 20
436.0
 30
0.0
 11
137.19999999999993
 21
436.0
 31
0.0
  0
LINE
  5
275
330
17
100
AcDbEntity
  8
G-ROCK
100
AcDbLine
 10
138.79999999999993
 20
436.0
 30
0.0
 11
140.79999999999993
 21
436.0
 31
0.0
  0
LINE
  5
276
330
17
100
AcDbEntity
  8
G-ROCK
100
AcDbLine
 10
142.39999999999992
 20
436.0
 30
0.0
 11
144.39999999999992
 21
436.0
 31
0.0
  0
LINE
  5
277
330
17
100
AcDbEntity
  8
G-ROCK
100
AcDbLine
 10
145.99999999999991
 20
436.0
 30
0.0
 11
147.99999999999991
 21
436.0
 31
0.0
  0
LINE
  5
278
330
17
100
AcDbEntity
  8
G-ROCK
100
AcDbLine
 10
149.5999999999999
 20
436.0
 30
0.0
 11
151.5999999999999
 21
436.0
 31
0.0
  0
LINE
  5
279
330
17
100
AcDbEntity
  8
G-ROCK
100
AcDbLine
 10
153.1999999999999
 20
436.0
 30
0.0
 11
155.1999999999999
 21
436.0
 31
0.0
  0
LINE
  5
27A
330
17
100
AcDbEntity
  8
G-ROCK
100
AcDbLine
 10
156.7999999999999
 20
436.0
 30
0.0
 11
158.7999999999999
 21
436.0
 31
0.0
  0
LINE
  5
27B
330
17
100
AcDbEntity
  8
G-ROCK
100
AcDbLine
 10
160.3999999999999
 20
436.0
 30
0.0
 11
162.3999999999999
 21
436.0
 31
0.0
  0
LINE
  5
27C
330
17
100
AcDbEntity
  8
G-ROCK
100
AcDbLine
 10
163.9999999999999
 20
436.0
 30
0.0
 11
165.9999999999999
 21
436.0
 31
0.0
  0
LINE
  5
27D
330
17
100
AcDbEntity
  8
G-ROCK
100
AcDbLine
 10
167.59999999999988
 20
436.0
 30
0.0
 11
169.59999999999988
 21
436.0
 31
0.0
  0
LINE
  5
27E
330
17
100
AcDbEntity
  8
G-ROCK
100
AcDbLine
 10
171.19999999999987
 20
436.0
 30
0.0
 11
173.19999999999987
 21
436.0
 31
0.0
  0
LINE
  5
27F
330
17
100
AcDbEntity
  8
G-ROCK
100
AcDbLine
 10
174.79999999999987
 20
436.0
 30
0.0
 11
176.79999999999987
 21
436.0
 31
0.0
  0
LINE
  5
280
330
17
100
AcDbEntity
  8
G-ROCK
100
AcDbLine
 10
178.39999999999986
 20
436.0
 30
0.0
 11
180.39999999999986
 21
436.0
 31
0.0
  0
LINE
  5
281
330
17
100
AcDbEntity
  8
G-ROCK
100
AcDbLine
 10
181.99999999999986
 20
436.0
 30
0.0
 11
183.99999999999986
 21
436.0
 31
0.0
  0
LINE
  5
282
330
17
100
AcDbEntity
  8
G-ROCK
100
AcDbLine
 10
185.59999999999985
 20
436.0
 30
0.0
 11
187.59999999999985
 21
436.0
 31
0.0
  0
LINE
  5
283
330
17
100
AcDbEntity
  8
G-ROCK
100
AcDbLine
 10
189.19999999999985
 20
436.0
 30
0.0
 11
191.19999999999985
 21
436.0
 31
0.0
  0
LINE
  5
284
330
17
100
AcDbEntity
  8
G-ROCK
100
AcDbLine
 10
192.79999999999984
 20
436.0
 30
0.0
 11
194.79999999999984
 21
436.0
 31
0.0
  0
LINE
  5
285
330
17
100
AcDbEntity
  8
G-ROCK
100
AcDbLine
 10
196.39999999999984
 20
436.0
 30
0.0
 11
198.39999999999984
 21
436.0
 31
0.0
  0
LINE
  5
286
330
17
100
AcDbEntity
  8
G-ROCK
100
AcDbLine
 10
199.99999999999983
 20
436.0
 30
0.0
 11
201.99999999999983
 21
436.0
 31
0.0
  0
LINE
  5
287
330
17
100
AcDbEntity
  8
G-ROCK
100
AcDbLine
 10
203.59999999999982
 20
436.0
 30
0.0
 11
205.59999999999982
 21
436.0
 31
0.0
  0
LINE
  5
288
330
17
100
AcDbEntity
  8
G-ROCK
100
AcDbLine
 10
207.19999999999982
 20
436.0
 30
0.0
 11
209.19999999999982
 21
436.0
 31
0.0
  0
LINE
  5
289
330
17
100
AcDbEntity
  8
G-ROCK
100
AcDbLine
 10
210.7999999999998
 20
436.0
 30
0.0
 11
212.7999999999998
 21
436.0
 31
0.0
  0
LINE
  5
28A
330
17
100
AcDbEntity
  8
G-ROCK
100
AcDbLine
 10
214.3999999999998
 20
436.0
 30
0.0
 11
216.3999999999998
 21
436.0
 31
0.0
  0
LINE
  5
28B
330
17
100
AcDbEntity
  8
G-ROCK
100
AcDbLine
 10
217.9999999999998
 20
436.0
 30
0.0
 11
219.9999999999998
 21
436.0
 31
0.0
  0
LINE
  5
28C
330
17
100
AcDbEntity
  8
G-ROCK
100
AcDbLine
 10
221.5999999999998
 20
436.0
 30
0.0
 11
222.0
 21
436.0
 31
0.0
  0
TEXT
  5
28D
330
17
100
AcDbEntity
  8
G-ROCK
100
AcDbText
 10
226.0
 20
459.0
 30
0.0
 40
1.9
  1
REPORT ROCKHEAD BAND (-)0.900 to (-)1.500   [C]
  7
OpenSans
 11
226.0
 21
459.0
 31
0.0
100
AcDbText
  0
TEXT
  5
28E
330
17
100
AcDbEntity
  8
G-FLAGG
100
AcDbText
 10
226.0
 20
454.6
 30
0.0
 40
1.9
  1
MASTER A.6 ASSUMES (-)1.500 to (-)2.000   [A]
  7
OpenSans
 11
226.0
 21
454.6
 31
0.0
100
AcDbText
  0
TEXT
  5
28F
330
17
100
AcDbEntity
  8
G-FLAGG
100
AcDbText
 10
20.0
 20
403.0
 30
0.0
 40
1.9
  1
THE TWO BANDS TOUCH AT ONE POINT.  The report's rock is at or ABOVE the master's whole range: CONSERVATIVE for founding depth,
  7
OpenSans
 11
20.0
 21
403.0
 31
0.0
100
AcDbText
  0
TEXT
  5
290
330
17
100
AcDbEntity
  8
G-FLAGG
100
AcDbText
 10
20.0
 20
398.6
 30
0.0
 40
1.9
  1
UNCONSERVATIVE for excavation quantity - +118 m3 of rock, about 2 extra days at the WBS A2050 output.   SG-F5
  7
OpenSans
 11
20.0
 21
398.6
 31
0.0
100
AcDbText
  0
TEXT
  5
291
330
17
100
AcDbEntity
  8
S-TITLE
100
AcDbText
 10
14.0
 20
142.0
 30
0.0
 40
3.5
  1
KEY   STRATUM KEY AND BEARING VALUES
  7
OpenSans
 11
14.0
 21
142.0
 31
0.0
100
AcDbText
  0
LINE
  5
292
330
17
100
AcDbEntity
  8
S-TITLE
100
AcDbLine
 10
14.0
 20
140.2
 30
0.0
 11
117.18787675820496
 21
140.2
 31
0.0
  0
TEXT
  5
293
330
17
100
AcDbEntity
  8
S-TEXT
100
AcDbText
 10
14.0
 20
134.8
 30
0.0
 40
2.0
  1
ALL VALUES [C], READ OFF SEMT/67/15 para 15.  1 kgf/cm2 = 98.0665 kPa.
  7
OpenSans
 11
14.0
 21
134.8
 31
0.0
100
AcDbText
  0
HATCH
  5
294
330
17
100
AcDbEntity
  8
G-TOPSOIL
 62
7
100
AcDbHatch
 10
0.0
 20
0.0
 30
0.0
210
0.0
220
0.0
230
1.0
  2
ANSI37
 70
0
 71
0
 91
1
 92
3
 72
0
 73
1
 93
4
 10
16.0
 20
108.0
 10
38.0
 20
108.0
 10
38.0
 20
122.0
 10
16.0
 20
122.0
 97
0
 75
1
 76
1
 52
0.0
 41
1.1
 77
0
 78
2
 53
45.0
 43
0.0
 44
0.0
 45
-2.4695704333
 46
2.4695704333
 79
0
 53
135.0
 43
0.0
 44
0.0
 45
-2.4695704333
 46
-2.4695704333
 79
0
 98
0
  0
LWPOLYLINE
  5
295
330
17
100
AcDbEntity
  8
G-TOPSOIL
100
AcDbPolyline
 90
4
 70
1
 10
16.0
 20
108.0
 10
38.0
 20
108.0
 10
38.0
 20
122.0
 10
16.0
 20
122.0
  0
TEXT
  5
296
330
17
100
AcDbEntity
  8
G-TOPSOIL
100
AcDbText
 10
41.0
 20
116.0
 30
0.0
 40
1.9
  1
BLACK COTTON - CH
  7
OpenSans
 11
41.0
 21
116.0
 31
0.0
100
AcDbText
  0
HATCH
  5
297
330
17
100
AcDbEntity
  8
G-MURRUM
 62
7
100
AcDbHatch
 10
0.0
 20
0.0
 30
0.0
210
0.0
220
0.0
230
1.0
  2
EARTH
 70
0
 71
0
 91
1
 92
3
 72
0
 73
1
 93
4
 10
108.0
 20
108.0
 10
130.0
 20
108.0
 10
130.0
 20
122.0
 10
108.0
 20
122.0
 97
0
 75
1
 76
1
 52
0.0
 41
0.8
 77
0
 78
6
 53
0.0
 43
0.0
 44
0.0
 45
5.08
 46
5.08
 79
2
 49
5.08
 49
-5.08
 53
0.0
 43
0.0
 44
1.905
 45
5.08
 46
5.08
 79
2
 49
5.08
 49
-5.08
 53
0.0
 43
0.0
 44
3.81
 45
5.08
 46
5.08
 79
2
 49
5.08
 49
-5.08
 53
90.0
 43
0.635
 44
4.445
 45
-5.08
 46
5.08
 79
2
 49
5.08
 49
-5.08
 53
90.0
 43
2.54
 44
4.445
 45
-5.08
 46
5.08
 79
2
 49
5.08
 49
-5.08
 53
90.0
 43
4.445
 44
4.445
 45
-5.08
 46
5.08
 79
2
 49
5.08
 49
-5.08
 98
0
  0
LWPOLYLINE
  5
298
330
17
100
AcDbEntity
  8
G-MURRUM
100
AcDbPolyline
 90
4
 70
1
 10
108.0
 20
108.0
 10
130.0
 20
108.0
 10
130.0
 20
122.0
 10
108.0
 20
122.0
  0
TEXT
  5
299
330
17
100
AcDbEntity
  8
G-MURRUM
100
AcDbText
 10
133.0
 20
116.0
 30
0.0
 40
1.9
  1
MURRUM - GM/GP/SC
  7
OpenSans
 11
133.0
 21
116.0
 31
0.0
100
AcDbText
  0
HATCH
  5
29A
330
17
100
AcDbEntity
  8
G-BROKEN
 62
7
100
AcDbHatch
 10
0.0
 20
0.0
 30
0.0
210
0.0
220
0.0
230
1.0
  2
GRAVEL
 70
0
 71
0
 91
1
 92
3
 72
0
 73
1
 93
4
 10
200.0
 20
108.0
 10
222.0
 20
108.0
 10
222.0
 20
122.0
 10
200.0
 20
122.0
 97
0
 75
1
 76
1
 52
0.0
 41
0.5
 77
0
 78
41
 53
228.0127875
 43
9.144
 44
12.7
 45
-101.600000008
 46
-114.2999999929
 79
2
 49
1.7086072
 49
-169.1524181978
 53
184.969741
 43
8.001
 44
11.43
 45
152.3999999397
 46
12.7000007235
 79
2
 49
2.9320236
 49
-290.2702444676
 53
132.5104471
 43
5.08
 44
11.176
 45
127.0000000536
 46
-139.6999999512
 79
2
 49
2.0674076
 49
-204.6736139705
 53
267.273689
 43
0.127
 44
8.001
 45
12.7000000266
 46
253.9999999986
 79
2
 49
2.6700226
 49
-264.3321871287
 53
292.83365418
 43
0.0
 44
5.334
 45
-63.5000000053
 46
152.3999999978
 79
2
 49
2.6181685
 49
-259.1990387267
 53
357.273689
 43
1.016
 44
2.921
 45
-253.9999999986
 46
12.7000000266
 79
2
 49
2.6700226
 49
-264.3321871287
 53
37.69424047
 43
3.683
 44
2.794
 45
-165.0999999927
 46
-127.0000000095
 79
2
 49
3.5309683
 49
-349.5655765713
 53
72.25532837
 43
6.477
 44
4.953
 45
88.9000000239
 46
279.3999999924
 79
2
 49
3.3335976
 49
-330.0262830096
 53
121.42956562
 43
7.493
 44
8.128
 45
-101.6000000144
 46
165.0999999912
 79
2
 49
2.679065
 49
-265.2277284935
 53
175.2363583
 43
6.096
 44
10.414
 45
139.699999998
 46
-12.700000022
 79
2
 49
3.0585664
 49
-149.86968475
 53
222.3974378
 43
3.048
 44
10.668
 45
-152.3999999951
 46
-139.7000000053
 79
2
 49
3.9553896
 49
-391.5838625609
 53
138.81407483
 43
12.7
 44
7.874
 45
-88.8999999947
 46
76.2000000062
 79
2
 49
1.3500227
 49
-133.6528291217
 53
171.4692344
 43
11.684
 44
8.763
 45
165.1000000045
 46
-25.3999999712
 79
2
 49
2.5684099
 49
-254.2731949852
 53
225.0
 43
9.144
 44
9.144
 45
-0.0
 46
-12.7
 79
2
 49
1.7960467
 49
-16.1644655422
 53
203.19859051
 43
8.255
 44
10.668
 45
63.5000000018
 46
25.3999999956
 79
2
 49
0.9672066
 49
-95.7531118445
 53
291.80140949
 43
7.366
 44
10.287
 45
-12.7000000027
 46
38.0999999991
 79
2
 49
1.3678281
 49
-67.02376495
 53
30.96375653
 43
7.874
 44
9.017
 45
38.1000000009
 46
25.3999999986
 79
2
 49
2.2215983
 49
-71.8314907645
 53
161.56505118
 43
9.779
 44
10.16
 45
25.4000000006
 46
-12.6999999987
 79
2
 49
1.6064357
 49
-38.5544905842
 53
16.389540334
 43
0.0
 44
10.287
 45
127.0
 46
38.1
 79
2
 49
2.25044
 49
-222.7941333627
 53
70.34617594
 43
2.159
 44
10.922
 45
-50.8000000047
 46
-139.6999999983
 79
2
 49
1.8879947
 49
-186.911078391
 53
293.19859051
 43
9.779
 44
12.7
 45
-25.3999999956
 46
63.5000000018
 79
2
 49
1.9344005
 49
-94.7859179445
 53
343.61045967
 43
10.541
 44
10.922
 45
-127.0000000026
 46
38.0999999911
 79
2
 49
2.25044
 49
-222.7941333627
 53
339.44395478
 43
0.0
 44
2.413
 45
-63.5
 46
25.4
 79
2
 49
2.170176
 49
-106.3386715656
 53
294.7751406
 43
2.032
 44
1.651
 45
-63.5000000756
 46
139.6999999656
 79
2
 49
1.8183606
 49
-180.0179669036
 53
66.80140949
 43
9.906
 44
0.0
 45
25.399999996
 46
63.5000000016
 79
2
 49
1.9344005
 49
-94.7859179445
 53
17.35402464
 43
10.668
 44
1.778
 45
-165.0999999967
 46
-50.8000000107
 79
2
 49
2.1289137
 49
-210.761879901
 53
69.44395478
 43
3.683
 44
0.0
 45
-25.4000000004
 46
-63.4999999998
 79
2
 49
1.085088
 49
-107.4237595656
 53
101.309932474
 43
9.144
 44
0.0
 45
-12.7
 46
50.8
 79
2
 49
0.647573
 49
-64.1099748227
 53
165.963756532
 43
9.017
 44
0.635
 45
38.1
 46
-12.7
 79
2
 49
2.6181685
 49
-49.7452729454
 53
186.00900596
 43
6.477
 44
1.27
 45
126.9999999993
 46
12.7000000067
 79
2
 49
2.426335
 49
-240.2068243167
 53
303.69006753
 43
7.874
 44
7.874
 45
-12.7000000018
 46
25.3999999991
 79
2
 49
1.8316194
 49
-43.9588817984
 53
353.15722659
 43
8.89
 44
6.35
 45
215.9000000014
 46
-25.3999999887
 79
2
 49
3.1977838
 49
-316.5800453252
 53
60.9453959
 43
12.065
 44
5.969
 45
-50.8000000014
 46
-88.8999999992
 79
2
 49
1.3075412
 49
-129.4469615905
 53
90.0
 43
12.7
 44
7.112
 45
-12.7
 46
12.7
 79
2
 49
0.762
 49
-11.938
 53
120.25643716
 43
6.223
 44
1.651
 45
50.7999999938
 46
-88.9000000036
 79
2
 49
1.7643348
 49
-174.669703866
 53
48.0127875
 43
5.334
 44
3.175
 45
101.6000000084
 46
114.2999999925
 79
2
 49
3.4172144
 49
-167.4438109978
 53
0.0
 43
7.62
 44
5.715
 45
12.7
 46
12.7
 79
2
 49
3.302
 49
-9.398
 53
325.3048465
 43
10.922
 44
5.715
 45
127.0000000481
 46
-88.8999999312
 79
2
 49
2.0080478
 49
-198.7965836207
 53
254.0546041
 43
12.573
 44
4.572
 45
-12.6999999991
 46
-50.8000000002
 79
2
 49
1.8491454
 49
-90.6082501938
 53
207.64597536
 43
12.065
 44
2.794
 45
-241.3000000088
 46
-126.9999999832
 79
2
 49
3.0107255
 49
-298.0623221147
 53
175.42607874
 43
9.398
 44
1.397
 45
-165.1
 46
12.7
 79
2
 49
3.1851473
 49
-315.3292322812
 98
0
  0
LWPOLYLINE
  5
29B
330
17
100
AcDbEntity
  8
G-BROKEN
100
AcDbPolyline
 90
4
 70
1
 10
200.0
 20
108.0
 10
222.0
 20
108.0
 10
222.0
 20
122.0
 10
200.0
 20
122.0
  0
TEXT
  5
29C
330
17
100
AcDbEntity
  8
G-BROKEN
100
AcDbText
 10
225.0
 20
116.0
 30
0.0
 40
1.9
  1
BROKEN BASALT
  7
OpenSans
 11
225.0
 21
116.0
 31
0.0
100
AcDbText
  0
HATCH
  5
29D
330
17
100
AcDbEntity
  8
G-ROCK
 62
7
100
AcDbHatch
 10
0.0
 20
0.0
 30
0.0
210
0.0
220
0.0
230
1.0
  2
ANSI31
 70
0
 71
0
 91
1
 92
3
 72
0
 73
1
 93
4
 10
292.0
 20
108.0
 10
314.0
 20
108.0
 10
314.0
 20
122.0
 10
292.0
 20
122.0
 97
0
 75
1
 76
1
 52
0.0
 41
1.4
 77
0
 78
1
 53
45.0
 43
0.0
 44
0.0
 45
-3.1430896424
 46
3.1430896424
 79
0
 98
0
  0
LWPOLYLINE
  5
29E
330
17
100
AcDbEntity
  8
G-ROCK
100
AcDbPolyline
 90
4
 70
1
 10
292.0
 20
108.0
 10
314.0
 20
108.0
 10
314.0
 20
122.0
 10
292.0
 20
122.0
  0
TEXT
  5
29F
330
17
100
AcDbEntity
  8
G-ROCK
100
AcDbText
 10
317.0
 20
116.0
 30
0.0
 40
1.9
  1
SOUND BASALT
  7
OpenSans
 11
317.0
 21
116.0
 31
0.0
100
AcDbText
  0
HATCH
  5
2A0
330
17
100
AcDbEntity
  8
G-NODATA
 62
7
100
AcDbHatch
 10
0.0
 20
0.0
 30
0.0
210
0.0
220
0.0
230
1.0
  2
ANSI31
 70
0
 71
0
 91
1
 92
3
 72
0
 73
1
 93
4
 10
384.0
 20
108.0
 10
406.0
 20
108.0
 10
406.0
 20
122.0
 10
384.0
 20
122.0
 97
0
 75
1
 76
1
 52
90.0
 41
5.0
 77
0
 78
1
 53
135.0
 43
0.0
 44
0.0
 45
-11.2253201515
 46
-11.2253201515
 79
0
 98
0
  0
LWPOLYLINE
  5
2A1
330
17
100
AcDbEntity
  8
G-NODATA
100
AcDbPolyline
 90
4
 70
1
 10
384.0
 20
108.0
 10
406.0
 20
108.0
 10
406.0
 20
122.0
 10
384.0
 20
122.0
  0
TEXT
  5
2A2
330
17
100
AcDbEntity
  8
G-NODATA
100
AcDbText
 10
409.0
 20
116.0
 30
0.0
 40
1.9
  1
NO DATA
  7
OpenSans
 11
409.0
 21
116.0
 31
0.0
100
AcDbText
  0
TEXT
  5
2A3
330
17
100
AcDbEntity
  8
M-TEXT
100
AcDbText
 10
41.0
 20
111.0
 30
0.0
 40
1.8
  1
0.18 - 1.0 m
  7
OpenSans
 11
41.0
 21
111.0
 31
0.0
100
AcDbText
  0
TEXT
  5
2A4
330
17
100
AcDbEntity
  8
M-TEXT
100
AcDbText
 10
133.0
 20
111.0
 30
0.0
 40
1.8
  1
to 1.2 m
  7
OpenSans
 11
133.0
 21
111.0
 31
0.0
100
AcDbText
  0
TEXT
  5
2A5
330
17
100
AcDbEntity
  8
M-TEXT
100
AcDbText
 10
225.0
 20
111.0
 30
0.0
 40
1.8
  1
0.75 - 1.6 m
  7
OpenSans
 11
225.0
 21
111.0
 31
0.0
100
AcDbText
  0
TEXT
  5
2A6
330
17
100
AcDbEntity
  8
M-TEXT
100
AcDbText
 10
317.0
 20
111.0
 30
0.0
 40
1.8
  1
below 0.9 - 1.5 m
  7
OpenSans
 11
317.0
 21
111.0
 31
0.0
100
AcDbText
  0
TEXT
  5
2A7
330
17
100
AcDbEntity
  8
M-FLAG
100
AcDbText
 10
409.0
 20
111.0
 30
0.0
 40
1.8
  1
below about 1.5 m
  7
OpenSans
 11
409.0
 21
111.0
 31
0.0
100
AcDbText
  0
LWPOLYLINE
  5
2A8
330
17
100
AcDbEntity
  8
M-TABLE
100
AcDbPolyline
 90
4
 70
1
 10
16.0
 20
99.0
 10
374.0
 20
99.0
 10
374.0
 20
104.0
 10
16.0
 20
104.0
  0
TEXT
  5
2A9
330
17
100
AcDbEntity
  8
M-TABLE
100
AcDbText
 10
17.4
 20
100.5
 30
0.0
 40
2.0
  1
STRATUM
  7
OpenSans
 11
17.4
 21
100.5
 31
0.0
100
AcDbText
  0
TEXT
  5
2AA
330
17
100
AcDbEntity
  8
M-TABLE
100
AcDbText
 10
73.4
 20
100.5
 30
0.0
 40
2.0
  1
DEPTH m
  7
OpenSans
 11
73.4
 21
100.5
 31
0.0
100
AcDbText
  0
TEXT
  5
2AB
330
17
100
AcDbEntity
  8
M-TABLE
100
AcDbText
 10
107.4
 20
100.5
 30
0.0
 40
2.0
  1
SBC kg/cm2
  7
OpenSans
 11
107.4
 21
100.5
 31
0.0
100
AcDbText
  0
TEXT
  5
2AC
330
17
100
AcDbEntity
  8
M-TABLE
100
AcDbText
 10
141.4
 20
100.5
 30
0.0
 40
2.0
  1
SBC kPa
  7
OpenSans
 11
141.4
 21
100.5
 31
0.0
100
AcDbText
  0
TEXT
  5
2AD
330
17
100
AcDbEntity
  8
M-TABLE
100
AcDbText
 10
175.4
 20
100.5
 30
0.0
 40
2.0
  1
WHAT IT MEANS FOR THIS STRUCTURE
  7
OpenSans
 11
175.4
 21
100.5
 31
0.0
100
AcDbText
  0
TEXT
  5
2AE
330
17
100
AcDbEntity
  8
M-TABLE
100
AcDbText
 10
17.4
 20
95.5
 30
0.0
 40
2.0
  1
BLACK COTTON  CH
  7
OpenSans
 11
17.4
 21
95.5
 31
0.0
100
AcDbText
  0
TEXT
  5
2AF
330
17
100
AcDbEntity
  8
M-TABLE
100
AcDbText
 10
73.4
 20
95.5
 30
0.0
 40
2.0
  1
0.18 - 1.0
  7
OpenSans
 11
73.4
 21
95.5
 31
0.0
100
AcDbText
  0
TEXT
  5
2B0
330
17
100
AcDbEntity
  8
M-TABLE
100
AcDbText
 10
107.4
 20
95.5
 30
0.0
 40
2.0
  1
0.25 - 0.27
  7
OpenSans
 11
107.4
 21
95.5
 31
0.0
100
AcDbText
  0
TEXT
  5
2B1
330
17
100
AcDbEntity
  8
M-TABLE
100
AcDbText
 10
141.4
 20
95.5
 30
0.0
 40
2.0
  1
24.5 - 26.5
  7
OpenSans
 11
141.4
 21
95.5
 31
0.0
100
AcDbText
  0
TEXT
  5
2B2
330
17
100
AcDbEntity
  8
M-TABLE
100
AcDbText
 10
175.4
 20
95.5
 30
0.0
 40
2.0
  1
FSI 60-65 %, VERY HIGH SWELL.  Nothing founds in it - but see SG-F13 and SG-F14
  7
OpenSans
 11
175.4
 21
95.5
 31
0.0
100
AcDbText
  0
LINE
  5
2B3
330
17
100
AcDbEntity
  8
M-TABLE
100
AcDbLine
 10
16.0
 20
94.0
 30
0.0
 11
374.0
 21
94.0
 31
0.0
  0
TEXT
  5
2B4
330
17
100
AcDbEntity
  8
M-TABLE
100
AcDbText
 10
17.4
 20
90.5
 30
0.0
 40
2.0
  1
MURRUM  GM / GP / SC
  7
OpenSans
 11
17.4
 21
90.5
 31
0.0
100
AcDbText
  0
TEXT
  5
2B5
330
17
100
AcDbEntity
  8
M-TABLE
100
AcDbText
 10
73.4
 20
90.5
 30
0.0
 40
2.0
  1
to 1.2
  7
OpenSans
 11
73.4
 21
90.5
 31
0.0
100
AcDbText
  0
TEXT
  5
2B6
330
17
100
AcDbEntity
  8
M-TABLE
100
AcDbText
 10
107.4
 20
90.5
 30
0.0
 40
2.0
  1
2.07 - 5.18
  7
OpenSans
 11
107.4
 21
90.5
 31
0.0
100
AcDbText
  0
TEXT
  5
2B7
330
17
100
AcDbEntity
  8
M-TABLE
100
AcDbText
 10
141.4
 20
90.5
 30
0.0
 40
2.0
  1
203 - 508
  7
OpenSans
 11
141.4
 21
90.5
 31
0.0
100
AcDbText
  0
TEXT
  5
2B8
330
17
100
AcDbEntity
  8
M-TABLE
100
AcDbText
 10
175.4
 20
90.5
 30
0.0
 40
2.0
  1
phi 27-35 deg, c = 0.  MDD 1.88-1.93, OMC 8-12 %.  This is the fill material
  7
OpenSans
 11
175.4
 21
90.5
 31
0.0
100
AcDbText
  0
LINE
  5
2B9
330
17
100
AcDbEntity
  8
M-TABLE
100
AcDbLine
 10
16.0
 20
89.0
 30
0.0
 11
374.0
 21
89.0
 31
0.0
  0
TEXT
  5
2BA
330
17
100
AcDbEntity
  8
M-TABLE
100
AcDbText
 10
17.4
 20
85.5
 30
0.0
 40
2.0
  1
BROKEN BASALT
  7
OpenSans
 11
17.4
 21
85.5
 31
0.0
100
AcDbText
  0
TEXT
  5
2BB
330
17
100
AcDbEntity
  8
M-TABLE
100
AcDbText
 10
73.4
 20
85.5
 30
0.0
 40
2.0
  1
0.75 - 1.6
  7
OpenSans
 11
73.4
 21
85.5
 31
0.0
100
AcDbText
  0
TEXT
  5
2BC
330
17
100
AcDbEntity
  8
M-TABLE
100
AcDbText
 10
107.4
 20
85.5
 30
0.0
 40
2.0
  1
10.00
  7
OpenSans
 11
107.4
 21
85.5
 31
0.0
100
AcDbText
  0
TEXT
  5
2BD
330
17
100
AcDbEntity
  8
M-TABLE
100
AcDbText
 10
141.4
 20
85.5
 30
0.0
 40
2.0
  1
981
  7
OpenSans
 11
141.4
 21
85.5
 31
0.0
100
AcDbText
  0
TEXT
  5
2BE
330
17
100
AcDbEntity
  8
M-TABLE
100
AcDbText
 10
175.4
 20
85.5
 30
0.0
 40
2.0
  1
IS 12070 Table 2.  Cracks, fissures, voids, discontinuities
  7
OpenSans
 11
175.4
 21
85.5
 31
0.0
100
AcDbText
  0
LINE
  5
2BF
330
17
100
AcDbEntity
  8
M-TABLE
100
AcDbLine
 10
16.0
 20
84.0
 30
0.0
 11
374.0
 21
84.0
 31
0.0
  0
TEXT
  5
2C0
330
17
100
AcDbEntity
  8
M-TABLE
100
AcDbText
 10
17.4
 20
80.5
 30
0.0
 40
2.0
  1
SOUND BASALT  soaked
  7
OpenSans
 11
17.4
 21
80.5
 31
0.0
100
AcDbText
  0
TEXT
  5
2C1
330
17
100
AcDbEntity
  8
M-TABLE
100
AcDbText
 10
73.4
 20
80.5
 30
0.0
 40
2.0
  1
below 0.9 - 1.5
  7
OpenSans
 11
73.4
 21
80.5
 31
0.0
100
AcDbText
  0
TEXT
  5
2C2
330
17
100
AcDbEntity
  8
M-TABLE
100
AcDbText
 10
107.4
 20
80.5
 30
0.0
 40
2.0
  1
20 - 21
  7
OpenSans
 11
107.4
 21
80.5
 31
0.0
100
AcDbText
  0
TEXT
  5
2C3
330
17
100
AcDbEntity
  8
M-TABLE
100
AcDbText
 10
141.4
 20
80.5
 30
0.0
 40
2.0
  1
1961 - 2059
  7
OpenSans
 11
141.4
 21
80.5
 31
0.0
100
AcDbText
  0
TEXT
  5
2C4
330
17
100
AcDbEntity
  8
M-TABLE
100
AcDbText
 10
175.4
 20
80.5
 30
0.0
 40
2.0
  1
*** THE APPLICABLE VALUE - the formation is 4.8 m below the design GWT ***
  7
OpenSans
 11
175.4
 21
80.5
 31
0.0
100
AcDbText
  0
LINE
  5
2C5
330
17
100
AcDbEntity
  8
M-TABLE
100
AcDbLine
 10
16.0
 20
79.0
 30
0.0
 11
374.0
 21
79.0
 31
0.0
  0
TEXT
  5
2C6
330
17
100
AcDbEntity
  8
M-TABLE
100
AcDbText
 10
17.4
 20
75.5
 30
0.0
 40
2.0
  1
SOUND BASALT  unsoaked
  7
OpenSans
 11
17.4
 21
75.5
 31
0.0
100
AcDbText
  0
TEXT
  5
2C7
330
17
100
AcDbEntity
  8
M-TABLE
100
AcDbText
 10
73.4
 20
75.5
 30
0.0
 40
2.0
  1
below 0.9 - 1.5
  7
OpenSans
 11
73.4
 21
75.5
 31
0.0
100
AcDbText
  0
TEXT
  5
2C8
330
17
100
AcDbEntity
  8
M-TABLE
100
AcDbText
 10
107.4
 20
75.5
 30
0.0
 40
2.0
  1
30 - 36
  7
OpenSans
 11
107.4
 21
75.5
 31
0.0
100
AcDbText
  0
TEXT
  5
2C9
330
17
100
AcDbEntity
  8
M-TABLE
100
AcDbText
 10
141.4
 20
75.5
 30
0.0
 40
2.0
  1
2942 - 3530
  7
OpenSans
 11
141.4
 21
75.5
 31
0.0
100
AcDbText
  0
TEXT
  5
2CA
330
17
100
AcDbEntity
  8
M-TABLE
100
AcDbText
 10
175.4
 20
75.5
 30
0.0
 40
2.0
  1
Master A.6 presumptive 3240 kPa [A] sits in THIS band, not the soaked one
  7
OpenSans
 11
175.4
 21
75.5
 31
0.0
100
AcDbText
  0
LINE
  5
2CB
330
17
100
AcDbEntity
  8
M-TABLE
100
AcDbLine
 10
16.0
 20
74.0
 30
0.0
 11
374.0
 21
74.0
 31
0.0
  0
TEXT
  5
2CC
330
17
100
AcDbEntity
  8
M-TABLE
100
AcDbText
 10
17.4
 20
70.5
 30
0.0
 40
2.0
  1
NO DATA
  7
OpenSans
 11
17.4
 21
70.5
 31
0.0
100
AcDbText
  0
TEXT
  5
2CD
330
17
100
AcDbEntity
  8
M-TABLE
100
AcDbText
 10
73.4
 20
70.5
 30
0.0
 40
2.0
  1
below about 1.5
  7
OpenSans
 11
73.4
 21
70.5
 31
0.0
100
AcDbText
  0
TEXT
  5
2CE
330
17
100
AcDbEntity
  8
M-TABLE
100
AcDbText
 10
107.4
 20
70.5
 30
0.0
 40
2.0
  1
-
  7
OpenSans
 11
107.4
 21
70.5
 31
0.0
100
AcDbText
  0
TEXT
  5
2CF
330
17
100
AcDbEntity
  8
M-TABLE
100
AcDbText
 10
141.4
 20
70.5
 30
0.0
 40
2.0
  1
-
  7
OpenSans
 11
141.4
 21
70.5
 31
0.0
100
AcDbText
  0
TEXT
  5
2D0
330
17
100
AcDbEntity
  8
M-TABLE
100
AcDbText
 10
175.4
 20
70.5
 30
0.0
 40
2.0
  1
THE FORMATION IS HERE, AT (-)6.800.  SG-F2 / SG-V2
  7
OpenSans
 11
175.4
 21
70.5
 31
0.0
100
AcDbText
  0
LINE
  5
2D1
330
17
100
AcDbEntity
  8
M-TABLE
100
AcDbLine
 10
16.0
 20
69.0
 30
0.0
 11
374.0
 21
69.0
 31
0.0
  0
LINE
  5
2D2
330
17
100
AcDbEntity
  8
M-TABLE
100
AcDbLine
 10
16.0
 20
104.0
 30
0.0
 11
374.0
 21
104.0
 31
0.0
  0
LINE
  5
2D3
330
17
100
AcDbEntity
  8
M-TABLE
100
AcDbLine
 10
16.0
 20
104.0
 30
0.0
 11
16.0
 21
69.0
 31
0.0
  0
LINE
  5
2D4
330
17
100
AcDbEntity
  8
M-TABLE
100
AcDbLine
 10
72.0
 20
104.0
 30
0.0
 11
72.0
 21
69.0
 31
0.0
  0
LINE
  5
2D5
330
17
100
AcDbEntity
  8
M-TABLE
100
AcDbLine
 10
106.0
 20
104.0
 30
0.0
 11
106.0
 21
69.0
 31
0.0
  0
LINE
  5
2D6
330
17
100
AcDbEntity
  8
M-TABLE
100
AcDbLine
 10
140.0
 20
104.0
 30
0.0
 11
140.0
 21
69.0
 31
0.0
  0
LINE
  5
2D7
330
17
100
AcDbEntity
  8
M-TABLE
100
AcDbLine
 10
174.0
 20
104.0
 30
0.0
 11
174.0
 21
69.0
 31
0.0
  0
LINE
  5
2D8
330
17
100
AcDbEntity
  8
M-TABLE
100
AcDbLine
 10
374.0
 20
104.0
 30
0.0
 11
374.0
 21
69.0
 31
0.0
  0
TEXT
  5
2D9
330
17
100
AcDbEntity
  8
S-TITLE
100
AcDbText
 10
658.0
 20
523.5
 30
0.0
 40
2.5
  1
WHAT THE LOGS ESTABLISH   SG-F2
  7
OpenSans
 11
658.0
 21
523.5
 31
0.0
100
AcDbText
  0
TEXT
  5
2DA
330
17
100
AcDbEntity
  8
S-NOTE
100
AcDbText
 10
658.0
 20
519.175
 30
0.0
 40
2.2
  1
To about 1.5 m, for the G, H and Mess
  7
OpenSans
 11
658.0
 21
519.175
 31
0.0
100
AcDbText
  0
TEXT
  5
2DB
330
17
100
AcDbEntity
  8
S-NOTE
100
AcDbText
 10
658.0
 20
513.9544117647058
 30
0.0
 40
2.2
  1
buildings - NOT for this plot (SG-V1):
  7
OpenSans
 11
658.0
 21
513.9544117647058
 31
0.0
100
AcDbText
  0
TEXT
  5
2DC
330
17
100
AcDbEntity
  8
S-NOTE
100
AcDbText
 10
658.0
 20
508.73382352941167
 30
0.0
 40
2.2
  1
  a thin BLACK COTTON cover, CH,
  7
OpenSans
 11
658.0
 21
508.73382352941167
 31
0.0
100
AcDbText
  0
TEXT
  5
2DD
330
17
100
AcDbEntity
  8
S-NOTE
100
AcDbText
 10
658.0
 20
503.5132352941175
 30
0.0
 40
2.2
  1
  FSI 60-65 %, 0.18 to 1.0 m
  7
OpenSans
 11
658.0
 21
503.5132352941175
 31
0.0
100
AcDbText
  0
TEXT
  5
2DE
330
17
100
AcDbEntity
  8
S-NOTE
100
AcDbText
 10
658.0
 20
498.2926470588234
 30
0.0
 40
2.2
  1
  MURRUM below it, phi 27-35 deg
  7
OpenSans
 11
658.0
 21
498.2926470588234
 31
0.0
100
AcDbText
  0
TEXT
  5
2DF
330
17
100
AcDbEntity
  8
S-NOTE
100
AcDbText
 10
658.0
 20
493.07205882352923
 30
0.0
 40
2.2
  1
  BROKEN BASALT below that
  7
OpenSans
 11
658.0
 21
493.07205882352923
 31
0.0
100
AcDbText
  0
TEXT
  5
2E0
330
17
100
AcDbEntity
  8
S-NOTE
100
AcDbText
 10
658.0
 20
487.8514705882351
 30
0.0
 40
2.2
  1
  SOUND BASALT, 0.9 to 1.5 m down
  7
OpenSans
 11
658.0
 21
487.8514705882351
 31
0.0
100
AcDbText
  0
LWPOLYLINE
  5
2E1
330
17
100
AcDbEntity
  8
S-TITLE
100
AcDbPolyline
 90
4
 70
1
 10
656.0
 20
480.63088235294094
 10
829.0
 20
480.63088235294094
 10
829.0
 20
528.0
 10
656.0
 20
528.0
  0
TEXT
  5
2E2
330
17
100
AcDbEntity
  8
S-TITLE
100
AcDbText
 10
658.0
 20
471.13088235294094
 30
0.0
 40
2.5
  1
WHAT THEY DO NOT   [N]
  7
OpenSans
 11
658.0
 21
471.13088235294094
 31
0.0
100
AcDbText
  0
TEXT
  5
2E3
330
17
100
AcDbEntity
  8
S-NOTE
100
AcDbText
 10
658.0
 20
466.80588235294096
 30
0.0
 40
2.2
  1
rockhead continuity under the box   A1
  7
OpenSans
 11
658.0
 21
466.80588235294096
 31
0.0
100
AcDbText
  0
TEXT
  5
2E4
330
17
100
AcDbEntity
  8
S-NOTE
100
AcDbText
 10
658.0
 20
461.5852941176468
 30
0.0
 40
2.2
  1
the groundwater table               A2
  7
OpenSans
 11
658.0
 21
461.5852941176468
 31
0.0
100
AcDbText
  0
TEXT
  5
2E5
330
17
100
AcDbEntity
  8
S-NOTE
100
AcDbText
 10
658.0
 20
456.36470588235267
 30
0.0
 40
2.2
  1
red-bole / vesicular seams at the
  7
OpenSans
 11
658.0
 21
456.36470588235267
 31
0.0
100
AcDbText
  0
TEXT
  5
2E6
330
17
100
AcDbEntity
  8
S-NOTE
100
AcDbText
 10
658.0
 20
451.1441176470585
 30
0.0
 40
2.2
  1
  flow contacts - AND THIS IS THE
  7
OpenSans
 11
658.0
 21
451.1441176470585
 31
0.0
100
AcDbText
  0
TEXT
  5
2E7
330
17
100
AcDbEntity
  8
S-NOTE
100
AcDbText
 10
658.0
 20
445.9235294117644
 30
0.0
 40
2.2
  1
  CASE THAT SIZES THE MAT, B.3
  7
OpenSans
 11
658.0
 21
445.9235294117644
 31
0.0
100
AcDbText
  0
TEXT
  5
2E8
330
17
100
AcDbEntity
  8
S-NOTE
100
AcDbText
 10
658.0
 20
440.70294117647023
 30
0.0
 40
2.2
  1
  Case 2, 84 % utilised
  7
OpenSans
 11
658.0
 21
440.70294117647023
 31
0.0
100
AcDbText
  0
TEXT
  5
2E9
330
17
100
AcDbEntity
  8
S-NOTE
100
AcDbText
 10
658.0
 20
435.4823529411761
 30
0.0
 40
2.2
  1
modulus of subgrade reaction k_s    A4
  7
OpenSans
 11
658.0
 21
435.4823529411761
 31
0.0
100
AcDbText
  0
TEXT
  5
2EA
330
17
100
AcDbEntity
  8
S-NOTE
100
AcDbText
 10
658.0
 20
430.26176470588194
 30
0.0
 40
2.2
  1
rock mass permeability              A8
  7
OpenSans
 11
658.0
 21
430.26176470588194
 31
0.0
100
AcDbText
  0
TEXT
  5
2EB
330
17
100
AcDbEntity
  8
S-NOTE
100
AcDbText
 10
658.0
 20
425.0411764705878
 30
0.0
 40
2.2
  1
Confirmatory SI A1075, 12 d, CRITICAL
  7
OpenSans
 11
658.0
 21
425.0411764705878
 31
0.0
100
AcDbText
  0
TEXT
  5
2EC
330
17
100
AcDbEntity
  8
S-NOTE
100
AcDbText
 10
658.0
 20
419.82058823529366
 30
0.0
 40
2.2
  1
PATH, remains MANDATORY IN FULL, and
  7
OpenSans
 11
658.0
 21
419.82058823529366
 31
0.0
100
AcDbText
  0
TEXT
  5
2ED
330
17
100
AcDbEntity
  8
S-NOTE
100
AcDbText
 10
658.0
 20
414.5999999999995
 30
0.0
 40
2.2
  1
must be located ON THIS PLOT.  SG-V1
  7
OpenSans
 11
658.0
 21
414.5999999999995
 31
0.0
100
AcDbText
  0
LWPOLYLINE
  5
2EE
330
17
100
AcDbEntity
  8
S-TITLE
100
AcDbPolyline
 90
4
 70
1
 10
656.0
 20
407.37941176470537
 10
829.0
 20
407.37941176470537
 10
829.0
 20
475.63088235294094
 10
656.0
 20
475.63088235294094
  0
TEXT
  5
2EF
330
17
100
AcDbEntity
  8
S-TITLE
100
AcDbText
 10
658.0
 20
397.87941176470537
 30
0.0
 40
2.5
  1
GROUNDWATER   SG-F6
  7
OpenSans
 11
658.0
 21
397.87941176470537
 31
0.0
100
AcDbText
  0
TEXT
  5
2F0
330
17
100
AcDbEntity
  8
S-NOTE
100
AcDbText
 10
658.0
 20
393.5544117647054
 30
0.0
 40
2.2
  1
SEMT para 13: 'Water table was not
  7
OpenSans
 11
658.0
 21
393.5544117647054
 31
0.0
100
AcDbText
  0
TEXT
  5
2F1
330
17
100
AcDbEntity
  8
S-NOTE
100
AcDbText
 10
658.0
 20
388.33382352941123
 30
0.0
 40
2.2
  1
encountered in any trial pit. However,
  7
OpenSans
 11
658.0
 21
388.33382352941123
 31
0.0
100
AcDbText
  0
TEXT
  5
2F2
330
17
100
AcDbEntity
  8
S-NOTE
100
AcDbText
 10
658.0
 20
383.1132352941171
 30
0.0
 40
2.2
  1
water table may raise during/after
  7
OpenSans
 11
658.0
 21
383.1132352941171
 31
0.0
100
AcDbText
  0
TEXT
  5
2F3
330
17
100
AcDbEntity
  8
S-NOTE
100
AcDbText
 10
658.0
 20
377.89264705882294
 30
0.0
 40
2.2
  1
rainy season.'
  7
OpenSans
 11
658.0
 21
377.89264705882294
 31
0.0
100
AcDbText
  0
TEXT
  5
2F4
330
17
100
AcDbEntity
  8
S-NOTE
100
AcDbText
 10
658.0
 20
372.6720588235288
 30
0.0
 40
2.2
  1
Deck slide 29: 'Proposed structure safe
  7
OpenSans
 11
658.0
 21
372.6720588235288
 31
0.0
100
AcDbText
  0
TEXT
  5
2F5
330
17
100
AcDbEntity
  8
S-NOTE
100
AcDbText
 10
658.0
 20
367.45147058823466
 30
0.0
 40
2.2
  1
for water table at depth of 2 m below
  7
OpenSans
 11
658.0
 21
367.45147058823466
 31
0.0
100
AcDbText
  0
TEXT
  5
2F6
330
17
100
AcDbEntity
  8
S-NOTE
100
AcDbText
 10
658.0
 20
362.2308823529405
 30
0.0
 40
2.2
  1
GL.'
  7
OpenSans
 11
658.0
 21
362.2308823529405
 31
0.0
100
AcDbText
  0
TEXT
  5
2F7
330
17
100
AcDbEntity
  8
S-NOTE
100
AcDbText
 10
658.0
 20
357.01029411764637
 30
0.0
 40
2.2
  1
*** THAT IS THE PROVENANCE OF (-)2.000,
  7
OpenSans
 11
658.0
 21
357.01029411764637
 31
0.0
100
AcDbText
  0
TEXT
  5
2F8
330
17
100
AcDbEntity
  8
S-NOTE
100
AcDbText
 10
658.0
 20
351.7897058823522
 30
0.0
 40
2.2
  1
RECORDED FOR THE FIRST TIME.  No water
  7
OpenSans
 11
658.0
 21
351.7897058823522
 31
0.0
100
AcDbText
  0
TEXT
  5
2F9
330
17
100
AcDbEntity
  8
S-NOTE
100
AcDbText
 10
658.0
 20
346.5691176470581
 30
0.0
 40
2.2
  1
was found, so 2 m was CHOSEN and the
  7
OpenSans
 11
658.0
 21
346.5691176470581
 31
0.0
100
AcDbText
  0
TEXT
  5
2FA
330
17
100
AcDbEntity
  8
S-NOTE
100
AcDbText
 10
658.0
 20
341.34852941176393
 30
0.0
 40
2.2
  1
structure designed safe for it.  IT IS
  7
OpenSans
 11
658.0
 21
341.34852941176393
 31
0.0
100
AcDbText
  0
TEXT
  5
2FB
330
17
100
AcDbEntity
  8
S-NOTE
100
AcDbText
 10
658.0
 20
336.1279411764698
 30
0.0
 40
2.2
  1
NOT A MEASUREMENT. ***
  7
OpenSans
 11
658.0
 21
336.1279411764698
 31
0.0
100
AcDbText
  0
TEXT
  5
2FC
330
17
100
AcDbEntity
  8
S-NOTE
100
AcDbText
 10
658.0
 20
330.90735294117565
 30
0.0
 40
2.2
  1
(1) DEPTH   the design GWT is ALREADY
  7
OpenSans
 11
658.0
 21
330.90735294117565
 31
0.0
100
AcDbText
  0
TEXT
  5
2FD
330
17
100
AcDbEntity
  8
S-NOTE
100
AcDbText
 10
658.0
 20
325.6867647058815
 30
0.0
 40
2.2
  1
    BELOW THE DEEPEST PIT.
  7
OpenSans
 11
658.0
 21
325.6867647058815
 31
0.0
100
AcDbText
  0
TEXT
  5
2FE
330
17
100
AcDbEntity
  8
S-NOTE
100
AcDbText
 10
658.0
 20
320.46617647058736
 30
0.0
 40
2.2
  1
(2) SEASON  requested 20 May 2015 - the
  7
OpenSans
 11
658.0
 21
320.46617647058736
 31
0.0
100
AcDbText
  0
TEXT
  5
2FF
330
17
100
AcDbEntity
  8
S-NOTE
100
AcDbText
 10
658.0
 20
315.2455882352932
 30
0.0
 40
2.2
  1
    pre-monsoon minimum, if the work
  7
OpenSans
 11
658.0
 21
315.2455882352932
 31
0.0
100
AcDbText
  0
TEXT
  5
300
330
17
100
AcDbEntity
  8
S-NOTE
100
AcDbText
 10
658.0
 20
310.02499999999907
 30
0.0
 40
2.2
  1
    followed promptly.  The date is
  7
OpenSans
 11
658.0
 21
310.02499999999907
 31
0.0
100
AcDbText
  0
TEXT
  5
301
330
17
100
AcDbEntity
  8
S-NOTE
100
AcDbText
 10
658.0
 20
304.8044117647049
 30
0.0
 40
2.2
  1
    never stated.   [U] SG-V10
  7
OpenSans
 11
658.0
 21
304.8044117647049
 31
0.0
100
AcDbText
  0
TEXT
  5
302
330
17
100
AcDbEntity
  8
S-NOTE
100
AcDbText
 10
658.0
 20
299.5838235294108
 30
0.0
 40
2.2
  1
(3) GROUND  Deccan Trap water sits at
  7
OpenSans
 11
658.0
 21
299.5838235294108
 31
0.0
100
AcDbText
  0
TEXT
  5
303
330
17
100
AcDbEntity
  8
S-NOTE
100
AcDbText
 10
658.0
 20
294.36323529411663
 30
0.0
 40
2.2
  1
    the FLOW CONTACTS: perched, and
  7
OpenSans
 11
658.0
 21
294.36323529411663
 31
0.0
100
AcDbText
  0
TEXT
  5
304
330
17
100
AcDbEntity
  8
S-NOTE
100
AcDbText
 10
658.0
 20
289.1426470588225
 30
0.0
 40
2.2
  1
    strongly seasonal.  A dry-season
  7
OpenSans
 11
658.0
 21
289.1426470588225
 31
0.0
100
AcDbText
  0
TEXT
  5
305
330
17
100
AcDbEntity
  8
S-NOTE
100
AcDbText
 10
658.0
 20
283.92205882352835
 30
0.0
 40
2.2
  1
    pit is close to the worst possible
  7
OpenSans
 11
658.0
 21
283.92205882352835
 31
0.0
100
AcDbText
  0
TEXT
  5
306
330
17
100
AcDbEntity
  8
S-NOTE
100
AcDbText
 10
658.0
 20
278.7014705882342
 30
0.0
 40
2.2
  1
    instrument for finding it.
  7
OpenSans
 11
658.0
 21
278.7014705882342
 31
0.0
100
AcDbText
  0
TEXT
  5
307
330
17
100
AcDbEntity
  8
S-NOTE
100
AcDbText
 10
658.0
 20
273.48088235294006
 30
0.0
 40
2.2
  1
WHY IT MATTERS MOST:  of 15.41 kPa/m,
  7
OpenSans
 11
658.0
 21
273.48088235294006
 31
0.0
100
AcDbText
  0
TEXT
  5
308
330
17
100
AcDbEntity
  8
S-NOTE
100
AcDbText
 10
658.0
 20
268.2602941176459
 30
0.0
 40
2.2
  1
9.81 IS WATER; uplift 46.11 kPa =
  7
OpenSans
 11
658.0
 21
268.2602941176459
 31
0.0
100
AcDbText
  0
TEXT
  5
309
330
17
100
AcDbEntity
  8
S-NOTE
100
AcDbText
 10
658.0
 20
263.03970588235177
 30
0.0
 40
2.2
  1
6289 kN; flotation FoS 0.33 at the
  7
OpenSans
 11
658.0
 21
263.03970588235177
 31
0.0
100
AcDbText
  0
TEXT
  5
30A
330
17
100
AcDbEntity
  8
S-NOTE
100
AcDbText
 10
658.0
 20
257.8191176470576
 30
0.0
 40
2.2
  1
mat-only stage.  K.2 A2 STAYS ASSUMED
  7
OpenSans
 11
658.0
 21
257.8191176470576
 31
0.0
100
AcDbText
  0
TEXT
  5
30B
330
17
100
AcDbEntity
  8
S-NOTE
100
AcDbText
 10
658.0
 20
252.5985294117635
 30
0.0
 40
2.2
  1
AND STAYS OPEN.
  7
OpenSans
 11
658.0
 21
252.5985294117635
 31
0.0
100
AcDbText
  0
LWPOLYLINE
  5
30C
330
17
100
AcDbEntity
  8
S-TITLE
100
AcDbPolyline
 90
4
 70
1
 10
656.0
 20
245.3779411764694
 10
829.0
 20
245.3779411764694
 10
829.0
 20
402.37941176470537
 10
656.0
 20
402.37941176470537
  0
TEXT
  5
30D
330
17
100
AcDbEntity
  8
S-TITLE
100
AcDbText
 10
658.0
 20
235.8779411764694
 30
0.0
 40
2.5
  1
THE BLACK COTTON SOIL   SG-F13 / SG-F14
  7
OpenSans
 11
658.0
 21
235.8779411764694
 31
0.0
100
AcDbText
  0
TEXT
  5
30E
330
17
100
AcDbEntity
  8
S-NOTE
100
AcDbText
 10
658.0
 20
231.5529411764694
 30
0.0
 40
2.2
  1
HARMLESS under every founded element -
  7
OpenSans
 11
658.0
 21
231.5529411764694
 31
0.0
100
AcDbText
  0
TEXT
  5
30F
330
17
100
AcDbEntity
  8
S-NOTE
100
AcDbText
 10
658.0
 20
226.3323529411753
 30
0.0
 40
2.2
  1
mat (-)6.700 and F1 (-)2.000 are both
  7
OpenSans
 11
658.0
 21
226.3323529411753
 31
0.0
100
AcDbText
  0
TEXT
  5
310
330
17
100
AcDbEntity
  8
S-NOTE
100
AcDbText
 10
658.0
 20
221.11176470588117
 30
0.0
 40
2.2
  1
in basalt.  B.8.7's 'on IN-SITU ROCK,
  7
OpenSans
 11
658.0
 21
221.11176470588117
 31
0.0
100
AcDbText
  0
TEXT
  5
311
330
17
100
AcDbEntity
  8
S-NOTE
100
AcDbText
 10
658.0
 20
215.89117647058706
 30
0.0
 40
2.2
  1
never on backfill' is now backed by a
  7
OpenSans
 11
658.0
 21
215.89117647058706
 31
0.0
100
AcDbText
  0
TEXT
  5
312
330
17
100
AcDbEntity
  8
S-NOTE
100
AcDbText
 10
658.0
 20
210.67058823529294
 30
0.0
 40
2.2
  1
measurement.
  7
OpenSans
 11
658.0
 21
210.67058823529294
 31
0.0
100
AcDbText
  0
TEXT
  5
313
330
17
100
AcDbEntity
  8
S-NOTE
100
AcDbText
 10
658.0
 20
205.44999999999882
 30
0.0
 40
2.2
  1
SG-F13  THE ENTRY STAIRWELL RAFT.  A.4.7
  7
OpenSans
 11
658.0
 21
205.44999999999882
 31
0.0
100
AcDbText
  0
TEXT
  5
314
330
17
100
AcDbEntity
  8
S-NOTE
100
AcDbText
 10
658.0
 20
200.2294117647047
 30
0.0
 40
2.2
  1
  'Stepped RC raft 300 thk ON COMPACTED
  7
OpenSans
 11
658.0
 21
200.2294117647047
 31
0.0
100
AcDbText
  0
TEXT
  5
315
330
17
100
AcDbEntity
  8
S-NOTE
100
AcDbText
 10
658.0
 20
195.0088235294106
 30
0.0
 40
2.2
  1
  FILL' - its top founds at about
  7
OpenSans
 11
658.0
 21
195.0088235294106
 31
0.0
100
AcDbText
  0
TEXT
  5
316
330
17
100
AcDbEntity
  8
S-NOTE
100
AcDbText
 10
658.0
 20
189.78823529411648
 30
0.0
 40
2.2
  1
  (-)0.300, INSIDE the CH horizon.  No
  7
OpenSans
 11
658.0
 21
189.78823529411648
 31
0.0
100
AcDbText
  0
TEXT
  5
317
330
17
100
AcDbEntity
  8
S-NOTE
100
AcDbText
 10
658.0
 20
184.56764705882236
 30
0.0
 40
2.2
  1
  strip-and-replace spec, no BOQ item.
  7
OpenSans
 11
658.0
 21
184.56764705882236
 31
0.0
100
AcDbText
  0
TEXT
  5
318
330
17
100
AcDbEntity
  8
S-NOTE
100
AcDbText
 10
658.0
 20
179.34705882352824
 30
0.0
 40
2.2
  1
  HEAVE, not bearing.  Expendable
  7
OpenSans
 11
658.0
 21
179.34705882352824
 31
0.0
100
AcDbText
  0
TEXT
  5
319
330
17
100
AcDbEntity
  8
S-NOTE
100
AcDbText
 10
658.0
 20
174.12647058823413
 30
0.0
 40
2.2
  1
  against BLAST - but heave is not a
  7
OpenSans
 11
658.0
 21
174.12647058823413
 31
0.0
100
AcDbText
  0
TEXT
  5
31A
330
17
100
AcDbEntity
  8
S-NOTE
100
AcDbText
 10
658.0
 20
168.90588235294
 30
0.0
 40
2.2
  1
  blast problem, and it is the ONLY
  7
OpenSans
 11
658.0
 21
168.90588235294
 31
0.0
100
AcDbText
  0
TEXT
  5
31B
330
17
100
AcDbEntity
  8
S-NOTE
100
AcDbText
 10
658.0
 20
163.6852941176459
 30
0.0
 40
2.2
  1
  primary access.            SG-V6
  7
OpenSans
 11
658.0
 21
163.6852941176459
 31
0.0
100
AcDbText
  0
TEXT
  5
31C
330
17
100
AcDbEntity
  8
S-NOTE
100
AcDbText
 10
658.0
 20
158.46470588235178
 30
0.0
 40
2.2
  1
SG-F14  THE CONCEALMENT TURF.  CAM2
  7
OpenSans
 11
658.0
 21
158.46470588235178
 31
0.0
100
AcDbText
  0
TEXT
  5
31D
330
17
100
AcDbEntity
  8
S-NOTE
100
AcDbText
 10
658.0
 20
153.24411764705766
 30
0.0
 40
2.2
  1
  re-lays the 300 from the site's own
  7
OpenSans
 11
658.0
 21
153.24411764705766
 31
0.0
100
AcDbText
  0
TEXT
  5
31E
330
17
100
AcDbEntity
  8
S-NOTE
100
AcDbText
 10
658.0
 20
148.02352941176355
 30
0.0
 40
2.2
  1
  stockpile.  If that is this CH clay it
  7
OpenSans
 11
658.0
 21
148.02352941176355
 31
0.0
100
AcDbText
  0
TEXT
  5
31F
330
17
100
AcDbEntity
  8
S-NOTE
100
AcDbText
 10
658.0
 20
142.80294117646943
 30
0.0
 40
2.2
  1
  cracks (a CONCEALMENT defect), feeds
  7
OpenSans
 11
658.0
 21
142.80294117646943
 31
0.0
100
AcDbText
  0
TEXT
  5
320
330
17
100
AcDbEntity
  8
S-NOTE
100
AcDbText
 10
658.0
 20
137.58235294117532
 30
0.0
 40
2.2
  1
  the 150 filter directly, and pumps
  7
OpenSans
 11
658.0
 21
137.58235294117532
 31
0.0
100
AcDbText
  0
TEXT
  5
321
330
17
100
AcDbEntity
  8
S-NOTE
100
AcDbText
 10
658.0
 20
132.3617647058812
 30
0.0
 40
2.2
  1
  fines INTO it - the one thing the
  7
OpenSans
 11
658.0
 21
132.3617647058812
 31
0.0
100
AcDbText
  0
TEXT
  5
322
330
17
100
AcDbEntity
  8
S-NOTE
100
AcDbText
 10
658.0
 20
127.14117647058708
 30
0.0
 40
2.2
  1
  filter exists to stop.  Load
  7
OpenSans
 11
658.0
 21
127.14117647058708
 31
0.0
100
AcDbText
  0
TEXT
  5
323
330
17
100
AcDbEntity
  8
S-NOTE
100
AcDbText
 10
658.0
 20
121.92058823529297
 30
0.0
 40
2.2
  1
  unaffected; SPEC missing.   SG-V7
  7
OpenSans
 11
658.0
 21
121.92058823529297
 31
0.0
100
AcDbText
  0
LWPOLYLINE
  5
324
330
17
100
AcDbEntity
  8
S-TITLE
100
AcDbPolyline
 90
4
 70
1
 10
656.0
 20
114.69999999999885
 10
829.0
 20
114.69999999999885
 10
829.0
 20
240.3779411764694
 10
656.0
 20
240.3779411764694
  0
TEXT
  5
325
330
17
100
AcDbEntity
  8
S-TITLE
100
AcDbText
 10
406.0
 20
41.5
 30
0.0
 40
2.5
  1
EVIDENCE CLASS - APPLIED TO EVERY VALUE ON THIS SHEET
  7
OpenSans
 11
406.0
 21
41.5
 31
0.0
100
AcDbText
  0
TEXT
  5
326
330
17
100
AcDbEntity
  8
S-NOTE
100
AcDbText
 10
406.0
 20
37.375
 30
0.0
 40
2.0
  1
[C] CONFIRMED      traceable to the master, to a Rev F drawing, to sheet S-06, or read verbatim off one of the two supplied documents
  7
OpenSans
 11
406.0
 21
37.375
 31
0.0
100
AcDbText
  0
TEXT
  5
327
330
17
100
AcDbEntity
  8
S-NOTE
100
AcDbText
 10
406.0
 20
33.975
 30
0.0
 40
2.0
  1
[R] RECONSTRUCTED  computed here from confirmed values; the arithmetic is shown in full
  7
OpenSans
 11
406.0
 21
33.975
 31
0.0
100
AcDbText
  0
TEXT
  5
328
330
17
100
AcDbEntity
  8
S-NOTE
100
AcDbText
 10
406.0
 20
30.575000000000003
 30
0.0
 40
2.0
  1
[D] DERIVED        an engineering result computed by THIS package
  7
OpenSans
 11
406.0
 21
30.575000000000003
 31
0.0
100
AcDbText
  0
TEXT
  5
329
330
17
100
AcDbEntity
  8
S-NOTE
100
AcDbText
 10
406.0
 20
27.175000000000004
 30
0.0
 40
2.0
  1
[A] ASSUMED        an engineering selection made by THIS package - confirm before construction
  7
OpenSans
 11
406.0
 21
27.175000000000004
 31
0.0
100
AcDbText
  0
TEXT
  5
32A
330
17
100
AcDbEntity
  8
S-NOTE
100
AcDbText
 10
406.0
 20
23.775000000000006
 30
0.0
 40
2.0
  1
[U] UNRESOLVED     the two documents disagree, or they disagree with the master
  7
OpenSans
 11
406.0
 21
23.775000000000006
 31
0.0
100
AcDbText
  0
TEXT
  5
32B
330
17
100
AcDbEntity
  8
S-NOTE
100
AcDbText
 10
406.0
 20
20.375000000000007
 30
0.0
 40
2.0
  1
[N] NOT AVAILABLE  no source exists anywhere in the project - DATA REQUIRED
  7
OpenSans
 11
406.0
 21
20.375000000000007
 31
0.0
100
AcDbText
  0
LWPOLYLINE
  5
32C
330
17
100
AcDbEntity
  8
S-TITLE
100
AcDbPolyline
 90
4
 70
1
 10
404.0
 20
14.975000000000009
 10
644.0
 20
14.975000000000009
 10
644.0
 20
46.0
 10
404.0
 20
46.0
  0
TEXT
  5
32D
330
17
100
AcDbEntity
  8
M-TITLE
100
AcDbText
 10
12.0
 20
576.5
 30
0.0
 40
5.0
  1
SITE SELECTION AND GEOTECHNICAL PACKAGE
  7
OpenSans
 11
12.0
 21
576.5
 31
0.0
100
AcDbText
  0
TEXT
  5
32E
330
17
100
AcDbEntity
  8
M-TITLE
100
AcDbText
 10
12.0
 20
569.5
 30
0.0
 40
2.4
  1
SG-201   GEOTECHNICAL PROFILE AGAINST THE STRUCTURE SECTION
  7
OpenSans
 11
12.0
 21
569.5
 31
0.0
100
AcDbText
  0
LINE
  5
32F
330
17
100
AcDbEntity
  8
M-TITLE
100
AcDbLine
 10
10.0
 20
566.5
 30
0.0
 11
831.0
 21
566.5
 31
0.0
  0
TEXT
  5
330
330
17
100
AcDbEntity
  8
M-FLAG
100
AcDbText
 10
829.0
 20
577.0
 30
0.0
 40
2.0
  1
SENTRY POST INCLUDED - GROUND ONLY, NO STRUCTURAL VALUE
  7
OpenSans
 72
2
 11
829.0
 21
577.0
 31
0.0
100
AcDbText
  0
TEXT
  5
331
330
17
100
AcDbEntity
  8
M-FLAG
100
AcDbText
 10
829.0
 20
570.5
 30
0.0
 40
1.4
  1
THIS PACKAGE RESOLVES NOTHING - IT RECORDS PROVENANCE AND QUANTIFIES MARGIN
  7
OpenSans
 72
2
 11
829.0
 21
570.5
 31
0.0
100
AcDbText
  0
TEXT
  5
332
330
17
100
AcDbEntity
  8
M-FLAG
100
AcDbText
 10
12.0
 20
561.5
 30
0.0
 40
1.4
  1
OPEN ITEMS ON THIS SHEET:  SG-V1   SG-V2   SG-V3   SG-V6   A1   A2
  7
OpenSans
 11
12.0
 21
561.5
 31
0.0
100
AcDbText
  0
LWPOLYLINE
  5
333
330
17
100
AcDbEntity
  8
M-TITLE
100
AcDbPolyline
 90
4
 70
1
 10
651.0
 20
10.0
 10
831.0
 20
10.0
 10
831.0
 20
110.0
 10
651.0
 20
110.0
  0
LINE
  5
334
330
17
100
AcDbEntity
  8
M-TITLE
100
AcDbLine
 10
651.0
 20
30.0
 30
0.0
 11
831.0
 21
30.0
 31
0.0
  0
LINE
  5
335
330
17
100
AcDbEntity
  8
M-TITLE
100
AcDbLine
 10
651.0
 20
42.0
 30
0.0
 11
831.0
 21
42.0
 31
0.0
  0
LINE
  5
336
330
17
100
AcDbEntity
  8
M-TITLE
100
AcDbLine
 10
651.0
 20
54.0
 30
0.0
 11
831.0
 21
54.0
 31
0.0
  0
LINE
  5
337
330
17
100
AcDbEntity
  8
M-TITLE
100
AcDbLine
 10
651.0
 20
66.0
 30
0.0
 11
831.0
 21
66.0
 31
0.0
  0
LINE
  5
338
330
17
100
AcDbEntity
  8
M-TITLE
100
AcDbLine
 10
651.0
 20
88.0
 30
0.0
 11
831.0
 21
88.0
 31
0.0
  0
LINE
  5
339
330
17
100
AcDbEntity
  8
M-TITLE
100
AcDbLine
 10
763.0
 20
10.0
 30
0.0
 11
763.0
 21
30.0
 31
0.0
  0
LINE
  5
33A
330
17
100
AcDbEntity
  8
M-TITLE
100
AcDbLine
 10
797.0
 20
10.0
 30
0.0
 11
797.0
 21
30.0
 31
0.0
  0
TEXT
  5
33B
330
17
100
AcDbEntity
  8
M-TITLE
100
AcDbText
 10
653.0
 20
24.6
 30
0.0
 40
1.4
  1
DRAWING No.
  7
OpenSans
 11
653.0
 21
24.6
 31
0.0
100
AcDbText
  0
TEXT
  5
33C
330
17
100
AcDbEntity
  8
M-TITLE
100
AcDbText
 10
671.0
 20
14.2
 30
0.0
 40
3.5
  1
SG-201
  7
OpenSans
 11
671.0
 21
14.2
 31
0.0
100
AcDbText
  0
TEXT
  5
33D
330
17
100
AcDbEntity
  8
M-TITLE
100
AcDbText
 10
765.0
 20
24.6
 30
0.0
 40
1.4
  1
REV
  7
OpenSans
 11
765.0
 21
24.6
 31
0.0
100
AcDbText
  0
TEXT
  5
33E
330
17
100
AcDbEntity
  8
M-TITLE
100
AcDbText
 10
769.0
 20
14.2
 30
0.0
 40
3.5
  1
SG1
  7
OpenSans
 11
769.0
 21
14.2
 31
0.0
100
AcDbText
  0
TEXT
  5
33F
330
17
100
AcDbEntity
  8
M-TITLE
100
AcDbText
 10
799.0
 20
24.6
 30
0.0
 40
1.4
  1
SHEET
  7
OpenSans
 11
799.0
 21
24.6
 31
0.0
100
AcDbText
  0
TEXT
  5
340
330
17
100
AcDbEntity
  8
M-TITLE
100
AcDbText
 10
799.0
 20
15.0
 30
0.0
 40
1.6
  1
3 OF 3
  7
OpenSans
 11
799.0
 21
15.0
 31
0.0
100
AcDbText
  0
LINE
  5
341
330
17
100
AcDbEntity
  8
M-TITLE
100
AcDbLine
 10
747.0
 20
30.0
 30
0.0
 11
747.0
 21
42.0
 31
0.0
  0
TEXT
  5
342
330
17
100
AcDbEntity
  8
M-TITLE
100
AcDbText
 10
653.0
 20
34.4
 30
0.0
 40
1.6
  1
SCALE   1:25
  7
OpenSans
 11
653.0
 21
34.4
 31
0.0
100
AcDbText
  0
TEXT
  5
343
330
17
100
AcDbEntity
  8
M-TITLE
100
AcDbText
 10
749.0
 20
34.4
 30
0.0
 40
1.6
  1
DATE   11.09.2026
  7
OpenSans
 11
749.0
 21
34.4
 31
0.0
100
AcDbText
  0
TEXT
  5
344
330
17
100
AcDbEntity
  8
M-TITLE
100
AcDbText
 10
653.0
 20
46.4
 30
0.0
 40
1.4
  1
DESIGNED  [PLACEHOLDER]
  7
OpenSans
 11
653.0
 21
46.4
 31
0.0
100
AcDbText
  0
TEXT
  5
345
330
17
100
AcDbEntity
  8
M-TITLE
100
AcDbText
 10
713.0
 20
46.4
 30
0.0
 40
1.4
  1
CHECKED  [PLACEHOLDER]
  7
OpenSans
 11
713.0
 21
46.4
 31
0.0
100
AcDbText
  0
TEXT
  5
346
330
17
100
AcDbEntity
  8
M-TITLE
100
AcDbText
 10
773.0
 20
46.4
 30
0.0
 40
1.4
  1
APPROVED  [PLACEHOLDER]
  7
OpenSans
 11
773.0
 21
46.4
 31
0.0
100
AcDbText
  0
TEXT
  5
347
330
17
100
AcDbEntity
  8
M-TITLE
100
AcDbText
 10
653.0
 20
58.4
 30
0.0
 40
1.4
  1
STATUS
  7
OpenSans
 11
653.0
 21
58.4
 31
0.0
100
AcDbText
  0
TEXT
  5
348
330
17
100
AcDbEntity
  8
M-FLAG
100
AcDbText
 10
673.0
 20
58.0
 30
0.0
 40
1.6
  1
FOR REVIEW - NOT FOR CONSTRUCTION
  7
OpenSans
 11
673.0
 21
58.0
 31
0.0
100
AcDbText
  0
TEXT
  5
349
330
17
100
AcDbEntity
  8
M-TITLE
100
AcDbText
 10
653.0
 20
83.4
 30
0.0
 40
1.4
  1
DRAWING TITLE
  7
OpenSans
 11
653.0
 21
83.4
 31
0.0
100
AcDbText
  0
TEXT
  5
34A
330
17
100
AcDbEntity
  8
M-TITLE
100
AcDbText
 10
653.0
 20
75.4
 30
0.0
 40
2.4
  1
GEOTECHNICAL PROFILE AGAINST THE STRUCTURE SECTION
  7
OpenSans
 11
653.0
 21
75.4
 31
0.0
100
AcDbText
  0
TEXT
  5
34B
330
17
100
AcDbEntity
  8
M-TITLE
100
AcDbText
 10
653.0
 20
68.8
 30
0.0
 40
1.4
  1
THE DEPTH THE INVESTIGATION REACHED, AND THE DEPTH THE STRUCTURE NEEDS, AT
  7
OpenSans
 11
653.0
 21
68.8
 31
0.0
100
AcDbText
  0
TEXT
  5
34C
330
17
100
AcDbEntity
  8
M-TITLE
100
AcDbText
 10
653.0
 20
105.2
 30
0.0
 40
1.4
  1
PROJECT
  7
OpenSans
 11
653.0
 21
105.2
 31
0.0
100
AcDbText
  0
TEXT
  5
34D
330
17
100
AcDbEntity
  8
M-TITLE
100
AcDbText
 10
653.0
 20
99.6
 30
0.0
 40
1.6
  1
UNDERGROUND CBRN-HARDENED BLAST-RESISTANT
  7
OpenSans
 11
653.0
 21
99.6
 31
0.0
100
AcDbText
  0
TEXT
  5
34E
330
17
100
AcDbEntity
  8
M-TITLE
100
AcDbText
 10
653.0
 20
95.0
 30
0.0
 40
1.6
  1
PROTECTIVE STRUCTURE  -  PUNE, MAHARASHTRA
  7
OpenSans
 11
653.0
 21
95.0
 31
0.0
100
AcDbText
  0
TEXT
  5
34F
330
17
100
AcDbEntity
  8
M-TITLE
100
AcDbText
 10
653.0
 20
90.0
 30
0.0
 40
1.4
  1
GEOMETRY REV F + M1   -   SITE AND GEOTECHNICAL SG1  -  GROUND ONLY
  7
OpenSans
 11
653.0
 21
90.0
 31
0.0
100
AcDbText
  0
ENDSEC
  0
SECTION
  2
OBJECTS
  0
DICTIONARY
  5
A
330
0
100
AcDbDictionary
281
1
  3
ACAD_COLOR
350
B
  3
ACAD_GROUP
350
C
  3
ACAD_LAYOUT
350
D
  3
ACAD_MATERIAL
350
E
  3
ACAD_MLEADERSTYLE
350
F
  3
ACAD_MLINESTYLE
350
10
  3
ACAD_PLOTSETTINGS
350
11
  3
ACAD_PLOTSTYLENAME
350
12
  3
ACAD_SCALELIST
350
14
  3
ACAD_TABLESTYLE
350
15
  3
ACAD_VISUALSTYLE
350
16
  3
EZDXF_META
350
2D
  0
DICTIONARY
  5
B
330
A
100
AcDbDictionary
281
1
  0
DICTIONARY
  5
C
330
A
100
AcDbDictionary
281
1
  0
DICTIONARY
  5
D
330
A
100
AcDbDictionary
281
1
  3
Model
350
1A
  3
Layout1
350
1E
  0
DICTIONARY
  5
E
330
A
100
AcDbDictionary
281
1
  3
ByBlock
350
1F
  3
ByLayer
350
20
  3
Global
350
21
  0
DICTIONARY
  5
F
330
A
100
AcDbDictionary
281
1
  3
Standard
350
2C
  0
DICTIONARY
  5
10
330
A
100
AcDbDictionary
281
1
  3
Standard
350
22
  0
DICTIONARY
  5
11
330
A
100
AcDbDictionary
281
1
  0
ACDBDICTIONARYWDFLT
  5
12
330
A
100
AcDbDictionary
281
1
  3
Normal
350
13
100
AcDbDictionaryWithDefault
340
13
  0
ACDBPLACEHOLDER
  5
13
330
12
  0
DICTIONARY
  5
14
330
A
100
AcDbDictionary
281
1
  0
DICTIONARY
  5
15
330
A
100
AcDbDictionary
281
1
  0
DICTIONARY
  5
16
330
A
100
AcDbDictionary
281
1
  3
2dWireframe
350
5A
  3
Basic
350
5B
  3
Brighten
350
5C
  3
ColorChange
350
5D
  3
Conceptual
350
5E
  3
Dim
350
5F
  3
EdgeColorOff
350
60
  3
Facepattern
350
61
  3
Flat
350
62
  3
FlatWithEdges
350
63
  3
Gouraud
350
64
  3
GouraudWithEdges
350
65
  3
Hidden
350
66
  3
JitterOff
350
67
  3
Linepattern
350
68
  3
Modeling
350
69
  3
OverhangOff
350
6A
  3
Realistic
350
6B
  3
Shaded
350
6C
  3
Shaded with edges
350
6D
  3
Shades of Gray
350
6E
  3
Sketchy
350
6F
  3
Thicken
350
70
  3
Wireframe
350
71
  3
X-Ray
350
72
  0
LAYOUT
  5
1A
330
D
100
AcDbPlotSettings
  1

  4
A3
  6

 40
7.5
 41
20.0
 42
7.5
 43
20.0
 44
420.0
 45
297.0
 46
0.0
 47
0.0
 48
0.0
 49
0.0
140
0.0
141
0.0
142
1.0
143
1.0
 70
1024
 72
1
 73
0
 74
5
  7

 75
16
 76
0
 77
2
 78
300
147
1.0
148
0.0
149
0.0
100
AcDbLayout
  1
Model
 70
1
 71
0
 10
0.0
 20
0.0
 11
420.0
 21
297.0
 12
0.0
 22
0.0
 32
0.0
 14
1e+20
 24
1e+20
 34
1e+20
 15
-1e+20
 25
-1e+20
 35
-1e+20
146
0.0
 13
0.0
 23
0.0
 33
0.0
 16
1.0
 26
0.0
 36
0.0
 17
0.0
 27
1.0
 37
0.0
 76
1
330
17
  0
LAYOUT
  5
1E
330
D
100
AcDbPlotSettings
  1

  4
A3
  6

 40
7.5
 41
20.0
 42
7.5
 43
20.0
 44
420.0
 45
297.0
 46
0.0
 47
0.0
 48
0.0
 49
0.0
140
0.0
141
0.0
142
1.0
143
1.0
 70
0
 72
1
 73
0
 74
5
  7

 75
16
 76
0
 77
2
 78
300
147
1.0
148
0.0
149
0.0
100
AcDbLayout
  1
Layout1
 70
1
 71
1
 10
0.0
 20
0.0
 11
420.0
 21
297.0
 12
0.0
 22
0.0
 32
0.0
 14
1e+20
 24
1e+20
 34
1e+20
 15
-1e+20
 25
-1e+20
 35
-1e+20
146
0.0
 13
0.0
 23
0.0
 33
0.0
 16
1.0
 26
0.0
 36
0.0
 17
0.0
 27
1.0
 37
0.0
 76
1
330
1B
  0
MATERIAL
  5
1F
102
{ACAD_REACTORS
330
E
102
}
330
E
100
AcDbMaterial
  1
ByBlock
  2

 70
0
 40
1.0
 71
1
 41
1.0
 91
-1023410177
 42
1.0
 72
1
  3

 73
1
 74
1
 75
1
 44
0.5
 73
0
 45
1.0
 46
1.0
 77
1
  4

 78
1
 79
1
170
1
 48
1.0
171
1
  6

172
1
173
1
174
1
140
1.0
141
1.0
175
1
  7

176
1
177
1
178
1
143
1.0
179
1
  8

270
1
271
1
272
1
145
1.0
146
1.0
273
1
  9

274
1
275
1
276
1
 42
1.0
 72
1
  3

 73
1
 74
1
 75
1
 94
63
  0
MATERIAL
  5
20
102
{ACAD_REACTORS
330
E
102
}
330
E
100
AcDbMaterial
  1
ByLayer
  2

 70
0
 40
1.0
 71
1
 41
1.0
 91
-1023410177
 42
1.0
 72
1
  3

 73
1
 74
1
 75
1
 44
0.5
 73
0
 45
1.0
 46
1.0
 77
1
  4

 78
1
 79
1
170
1
 48
1.0
171
1
  6

172
1
173
1
174
1
140
1.0
141
1.0
175
1
  7

176
1
177
1
178
1
143
1.0
179
1
  8

270
1
271
1
272
1
145
1.0
146
1.0
273
1
  9

274
1
275
1
276
1
 42
1.0
 72
1
  3

 73
1
 74
1
 75
1
 94
63
  0
MATERIAL
  5
21
102
{ACAD_REACTORS
330
E
102
}
330
E
100
AcDbMaterial
  1
Global
  2

 70
0
 40
1.0
 71
1
 41
1.0
 91
-1023410177
 42
1.0
 72
1
  3

 73
1
 74
1
 75
1
 44
0.5
 73
0
 45
1.0
 46
1.0
 77
1
  4

 78
1
 79
1
170
1
 48
1.0
171
1
  6

172
1
173
1
174
1
140
1.0
141
1.0
175
1
  7

176
1
177
1
178
1
143
1.0
179
1
  8

270
1
271
1
272
1
145
1.0
146
1.0
273
1
  9

274
1
275
1
276
1
 42
1.0
 72
1
  3

 73
1
 74
1
 75
1
 94
63
  0
MLINESTYLE
  5
22
102
{ACAD_REACTORS
330
10
102
}
330
10
100
AcDbMlineStyle
  2
Standard
 70
0
  3

 62
256
 51
90.0
 52
90.0
 71
2
 49
0.5
 62
256
  6
BYLAYER
 49
-0.5
 62
256
  6
BYLAYER
  0
MLEADERSTYLE
  5
2C
102
{ACAD_REACTORS
330
F
102
}
330
F
100
AcDbMLeaderStyle
179
2
170
2
171
1
172
0
 90
2
 40
0.0
 41
0.0
173
1
 91
-1056964608
 92
-2
290
1
 42
2.0
291
1
 43
8.0
  3
Standard
 44
4.0
300

342
29
174
1
175
1
176
0
178
1
 93
-1056964608
 45
4.0
292
0
297
0
 46
4.0
 94
-1056964608
 47
1.0
 49
1.0
140
1.0
294
1
141
0.0
177
0
142
1.0
295
0
296
0
143
3.75
271
0
272
9
273
9
  0
DICTIONARY
  5
2D
330
A
100
AcDbDictionary
280
1
281
1
  3
CREATED_BY_EZDXF
350
2E
  3
WRITTEN_BY_EZDXF
350
352
  0
DICTIONARYVAR
  5
2E
330
2D
100
DictionaryVariables
280
0
  1
1.4.4 @ 2026-09-11T07:54:19.198380+00:00
  0
VISUALSTYLE
  5
5A
102
{ACAD_REACTORS
330
16
102
}
330
16
100
AcDbVisualStyle
  2
2dWireframe
 70
4
 90
0
 40
0.6
 62
7
290
0
291
0
  0
VISUALSTYLE
  5
5B
102
{ACAD_REACTORS
330
16
102
}
330
16
100
AcDbVisualStyle
  2
Basic
 70
7
 90
1
 40
0.6
 62
7
290
0
291
1
  0
VISUALSTYLE
  5
5C
102
{ACAD_REACTORS
330
16
102
}
330
16
100
AcDbVisualStyle
  2
Brighten
 70
12
 90
2
 40
0.6
 62
7
290
0
291
1
  0
VISUALSTYLE
  5
5D
102
{ACAD_REACTORS
330
16
102
}
330
16
100
AcDbVisualStyle
  2
ColorChange
 70
16
 90
2
 40
0.6
 62
8
290
0
291
1
  0
VISUALSTYLE
  5
5E
102
{ACAD_REACTORS
330
16
102
}
330
16
100
AcDbVisualStyle
  2
Conceptual
 70
9
 90
3
 40
0.6
 62
7
290
0
291
0
  0
VISUALSTYLE
  5
5F
102
{ACAD_REACTORS
330
16
102
}
330
16
100
AcDbVisualStyle
  2
Dim
 70
11
 90
2
 40
0.6
 62
7
290
0
291
1
  0
VISUALSTYLE
  5
60
102
{ACAD_REACTORS
330
16
102
}
330
16
100
AcDbVisualStyle
  2
EdgeColorOff
 70
22
 90
2
 40
0.6
 62
7
290
0
291
1
  0
VISUALSTYLE
  5
61
102
{ACAD_REACTORS
330
16
102
}
330
16
100
AcDbVisualStyle
  2
Facepattern
 70
15
 90
2
 40
0.6
 62
7
290
0
291
1
  0
VISUALSTYLE
  5
62
102
{ACAD_REACTORS
330
16
102
}
330
16
100
AcDbVisualStyle
  2
Flat
 70
0
 90
2
 40
0.6
 62
7
290
0
291
1
  0
VISUALSTYLE
  5
63
102
{ACAD_REACTORS
330
16
102
}
330
16
100
AcDbVisualStyle
  2
FlatWithEdges
 70
1
 90
2
 40
0.6
 62
7
290
0
291
1
  0
VISUALSTYLE
  5
64
102
{ACAD_REACTORS
330
16
102
}
330
16
100
AcDbVisualStyle
  2
Gouraud
 70
2
 90
2
 40
0.6
 62
7
290
0
291
1
  0
VISUALSTYLE
  5
65
102
{ACAD_REACTORS
330
16
102
}
330
16
100
AcDbVisualStyle
  2
GouraudWithEdges
 70
3
 90
2
 40
0.6
 62
7
290
0
291
1
  0
VISUALSTYLE
  5
66
102
{ACAD_REACTORS
330
16
102
}
330
16
100
AcDbVisualStyle
  2
Hidden
 70
6
 90
1
 40
0.6
 62
7
290
0
291
0
  0
VISUALSTYLE
  5
67
102
{ACAD_REACTORS
330
16
102
}
330
16
100
AcDbVisualStyle
  2
JitterOff
 70
20
 90
2
 40
0.6
 62
7
290
0
291
1
  0
VISUALSTYLE
  5
68
102
{ACAD_REACTORS
330
16
102
}
330
16
100
AcDbVisualStyle
  2
Linepattern
 70
14
 90
2
 40
0.6
 62
7
290
0
291
1
  0
VISUALSTYLE
  5
69
102
{ACAD_REACTORS
330
16
102
}
330
16
100
AcDbVisualStyle
  2
Modeling
 70
10
 90
2
 40
0.6
 62
7
290
0
291
0
  0
VISUALSTYLE
  5
6A
102
{ACAD_REACTORS
330
16
102
}
330
16
100
AcDbVisualStyle
  2
OverhangOff
 70
21
 90
2
 40
0.6
 62
7
290
0
291
1
  0
VISUALSTYLE
  5
6B
102
{ACAD_REACTORS
330
16
102
}
330
16
100
AcDbVisualStyle
  2
Realistic
 70
8
 90
2
 40
0.6
 62
7
290
0
291
0
  0
VISUALSTYLE
  5
6C
102
{ACAD_REACTORS
330
16
102
}
330
16
100
AcDbVisualStyle
  2
Shaded
 70
27
 90
2
 40
0.6
 62
7
290
0
291
0
  0
VISUALSTYLE
  5
6D
102
{ACAD_REACTORS
330
16
102
}
330
16
100
AcDbVisualStyle
  2
Shaded with edges
 70
26
 90
2
 40
0.6
 62
7
290
0
291
0
  0
VISUALSTYLE
  5
6E
102
{ACAD_REACTORS
330
16
102
}
330
16
100
AcDbVisualStyle
  2
Shades of Gray
 70
23
 90
2
 40
0.6
 62
7
290
0
291
0
  0
VISUALSTYLE
  5
6F
102
{ACAD_REACTORS
330
16
102
}
330
16
100
AcDbVisualStyle
  2
Sketchy
 70
24
 90
1
 40
0.6
 62
7
290
0
291
0
  0
VISUALSTYLE
  5
70
102
{ACAD_REACTORS
330
16
102
}
330
16
100
AcDbVisualStyle
  2
Thicken
 70
13
 90
2
 40
0.6
 62
7
290
0
291
1
  0
VISUALSTYLE
  5
71
102
{ACAD_REACTORS
330
16
102
}
330
16
100
AcDbVisualStyle
  2
Wireframe
 70
5
 90
0
 40
0.6
 62
7
290
0
291
0
  0
VISUALSTYLE
  5
72
102
{ACAD_REACTORS
330
16
102
}
330
16
100
AcDbVisualStyle
  2
X-Ray
 70
25
 90
2
 40
0.5
 62
7
290
0
291
0
  0
DICTIONARYVAR
  5
352
330
2D
100
DictionaryVariables
280
0
  1
1.4.4 @ 2026-09-11T07:54:19.222330+00:00
  0
ENDSEC
  0
EOF
