  0
SECTION
  2
HEADER
  9
$ACADVER
  1
AC1024
  9
$ACADMAINTVER
 70
6
  9
$DWGCODEPAGE
  3
ANSI_1252
  9
$LASTSAVEDBY
  1
ezdxf
  9
$INSBASE
 10
0.0
 20
0.0
 30
0.0
  9
$EXTMIN
 10
1e+20
 20
1e+20
 30
1e+20
  9
$EXTMAX
 10
-1e+20
 20
-1e+20
 30
-1e+20
  9
$LIMMIN
 10
0.0
 20
0.0
  9
$LIMMAX
 10
420.0
 20
297.0
  9
$ORTHOMODE
 70
0
  9
$REGENMODE
 70
1
  9
$FILLMODE
 70
1
  9
$QTEXTMODE
 70
0
  9
$MIRRTEXT
 70
1
  9
$LTSCALE
 40
1.0
  9
$ATTMODE
 70
1
  9
$TEXTSIZE
 40
2.5
  9
$TRACEWID
 40
1.0
  9
$TEXTSTYLE
  7
OpenSans
  9
$CLAYER
  8
0
  9
$CELTYPE
  6
ByLayer
  9
$CECOLOR
 62
256
  9
$CELTSCALE
 40
1.0
  9
$DISPSILH
 70
0
  9
$DIMSCALE
 40
1.0
  9
$DIMASZ
 40
0.175
  9
$DIMEXO
 40
0.125
  9
$DIMDLI
 40
3.75
  9
$DIMRND
 40
0.0
  9
$DIMDLE
 40
0.0
  9
$DIMEXE
 40
0.375
  9
$DIMTP
 40
0.0
  9
$DIMTM
 40
0.0
  9
$DIMTXT
 40
0.25
  9
$DIMCEN
 40
2.5
  9
$DIMTSZ
 40
0.0
  9
$DIMTOL
 70
0
  9
$DIMLIM
 70
0
  9
$DIMTIH
 70
0
  9
$DIMTOH
 70
0
  9
$DIMSE1
 70
0
  9
$DIMSE2
 70
0
  9
$DIMTAD
 70
1
  9
$DIMZIN
 70
12
  9
$DIMBLK
  1
ARCHTICK
  9
$DIMASO
 70
1
  9
$DIMSHO
 70
1
  9
$DIMPOST
  1

  9
$DIMAPOST
  1

  9
$DIMALT
 70
0
  9
$DIMALTD
 70
3
  9
$DIMALTF
 40
0.03937007874
  9
$DIMLFAC
 40
100.0
  9
$DIMTOFL
 70
1
  9
$DIMTVP
 40
0.0
  9
$DIMTIX
 70
0
  9
$DIMSOXD
 70
0
  9
$DIMSAH
 70
0
  9
$DIMBLK1
  1

  9
$DIMBLK2
  1

  9
$DIMSTYLE
  2
EZDXF
  9
$DIMCLRD
 70
0
  9
$DIMCLRE
 70
0
  9
$DIMCLRT
 70
0
  9
$DIMTFAC
 40
0.5
  9
$DIMGAP
 40
0.1
  9
$DIMJUST
 70
0
  9
$DIMSD1
 70
0
  9
$DIMSD2
 70
0
  9
$DIMTOLJ
 70
0
  9
$DIMTZIN
 70
8
  9
$DIMALTZ
 70
0
  9
$DIMALTTZ
 70
0
  9
$DIMUPT
 70
1
  9
$DIMDEC
 70
2
  9
$DIMTDEC
 70
2
  9
$DIMALTU
 70
2
  9
$DIMALTTD
 70
3
  9
$DIMTXSTY
  7
OpenSansCondensed-Light
  9
$DIMAUNIT
 70
0
  9
$DIMADEC
 70
2
  9
$DIMALTRND
 40
0.0
  9
$DIMAZIN
 70
3
  9
$DIMDSEP
 70
46
  9
$DIMATFIT
 70
3
  9
$DIMFRAC
 70
0
  9
$DIMLDRBLK
  1

  9
$DIMLUNIT
 70
2
  9
$DIMLWD
 70
-2
  9
$DIMLWE
 70
-2
  9
$DIMTMOVE
 70
2
  9
$DIMFXL
 40
1.0
  9
$DIMFXLON
 70
0
  9
$DIMJOGANG
 40
0.785398163397
  9
$DIMTFILL
 70
0
  9
$DIMTFILLCLR
 70
0
  9
$DIMARCSYM
 70
0
  9
$DIMLTYPE
  6

  9
$DIMLTEX1
  6

  9
$DIMLTEX2
  6

  9
$DIMTXTDIRECTION
 70
0
  9
$LUNITS
 70
2
  9
$LUPREC
 70
4
  9
$SKETCHINC
 40
1.0
  9
$FILLETRAD
 40
10.0
  9
$AUNITS
 70
0
  9
$AUPREC
 70
2
  9
$MENU
  1
.
  9
$ELEVATION
 40
0.0
  9
$PELEVATION
 40
0.0
  9
$THICKNESS
 40
0.0
  9
$LIMCHECK
 70
0
  9
$CHAMFERA
 40
0.0
  9
$CHAMFERB
 40
0.0
  9
$CHAMFERC
 40
0.0
  9
$CHAMFERD
 40
0.0
  9
$SKPOLY
 70
0
  9
$TDCREATE
 40
2461294.438275463
  9
$TDUCREATE
 40
2458532.153996898
  9
$TDUPDATE
 40
2461294.438275463
  9
$TDUUPDATE
 40
2458532.1544311
  9
$TDINDWG
 40
0.0
  9
$TDUSRTIMER
 40
0.0
  9
$USRTIMER
 70
1
  9
$ANGBASE
 50
0.0
  9
$ANGDIR
 70
0
  9
$PDMODE
 70
0
  9
$PDSIZE
 40
0.0
  9
$PLINEWID
 40
0.0
  9
$SPLFRAME
 70
0
  9
$SPLINETYPE
 70
6
  9
$SPLINESEGS
 70
8
  9
$HANDSEED
  5
23D
  9
$SURFTAB1
 70
6
  9
$SURFTAB2
 70
6
  9
$SURFTYPE
 70
6
  9
$SURFU
 70
6
  9
$SURFV
 70
6
  9
$UCSBASE
  2

  9
$UCSNAME
  2

  9
$UCSORG
 10
0.0
 20
0.0
 30
0.0
  9
$UCSXDIR
 10
1.0
 20
0.0
 30
0.0
  9
$UCSYDIR
 10
0.0
 20
1.0
 30
0.0
  9
$UCSORTHOREF
  2

  9
$UCSORTHOVIEW
 70
0
  9
$UCSORGTOP
 10
0.0
 20
0.0
 30
0.0
  9
$UCSORGBOTTOM
 10
0.0
 20
0.0
 30
0.0
  9
$UCSORGLEFT
 10
0.0
 20
0.0
 30
0.0
  9
$UCSORGRIGHT
 10
0.0
 20
0.0
 30
0.0
  9
$UCSORGFRONT
 10
0.0
 20
0.0
 30
0.0
  9
$UCSORGBACK
 10
0.0
 20
0.0
 30
0.0
  9
$PUCSBASE
  2

  9
$PUCSNAME
  2

  9
$PUCSORG
 10
0.0
 20
0.0
 30
0.0
  9
$PUCSXDIR
 10
1.0
 20
0.0
 30
0.0
  9
$PUCSYDIR
 10
0.0
 20
1.0
 30
0.0
  9
$PUCSORTHOREF
  2

  9
$PUCSORTHOVIEW
 70
0
  9
$PUCSORGTOP
 10
0.0
 20
0.0
 30
0.0
  9
$PUCSORGBOTTOM
 10
0.0
 20
0.0
 30
0.0
  9
$PUCSORGLEFT
 10
0.0
 20
0.0
 30
0.0
  9
$PUCSORGRIGHT
 10
0.0
 20
0.0
 30
0.0
  9
$PUCSORGFRONT
 10
0.0
 20
0.0
 30
0.0
  9
$PUCSORGBACK
 10
0.0
 20
0.0
 30
0.0
  9
$USERI1
 70
0
  9
$USERI2
 70
0
  9
$USERI3
 70
0
  9
$USERI4
 70
0
  9
$USERI5
 70
0
  9
$USERR1
 40
0.0
  9
$USERR2
 40
0.0
  9
$USERR3
 40
0.0
  9
$USERR4
 40
0.0
  9
$USERR5
 40
0.0
  9
$WORLDVIEW
 70
1
  9
$SHADEDGE
 70
3
  9
$SHADEDIF
 70
70
  9
$TILEMODE
 70
1
  9
$MAXACTVP
 70
64
  9
$PINSBASE
 10
0.0
 20
0.0
 30
0.0
  9
$PLIMCHECK
 70
0
  9
$PEXTMIN
 10
1e+20
 20
1e+20
 30
1e+20
  9
$PEXTMAX
 10
-1e+20
 20
-1e+20
 30
-1e+20
  9
$PLIMMIN
 10
0.0
 20
0.0
  9
$PLIMMAX
 10
420.0
 20
297.0
  9
$UNITMODE
 70
0
  9
$VISRETAIN
 70
1
  9
$PLINEGEN
 70
0
  9
$PSLTSCALE
 70
1
  9
$TREEDEPTH
 70
3020
  9
$CMLSTYLE
  2
Standard
  9
$CMLJUST
 70
0
  9
$CMLSCALE
 40
20.0
  9
$PROXYGRAPHICS
 70
1
  9
$MEASUREMENT
 70
1
  9
$CELWEIGHT
370
-1
  9
$ENDCAPS
280
0
  9
$JOINSTYLE
280
0
  9
$LWDISPLAY
290
0
  9
$INSUNITS
 70
4
  9
$HYPERLINKBASE
  1

  9
$STYLESHEET
  1

  9
$XEDIT
290
1
  9
$CEPSNTYPE
380
0
  9
$PSTYLEMODE
290
1
  9
$FINGERPRINTGUID
  2
{5E0A1CCC-79FA-4AE9-9549-61140D5FA0DD}
  9
$VERSIONGUID
  2
{101FA14D-94E6-4E22-9355-6BF3B0AB9096}
  9
$EXTNAMES
290
1
  9
$PSVPSCALE
 40
0.0
  9
$OLESTARTUP
290
0
  9
$SORTENTS
280
127
  9
$INDEXCTL
280
0
  9
$HIDETEXT
280
1
  9
$XCLIPFRAME
280
1
  9
$HALOGAP
280
0
  9
$OBSCOLOR
 70
257
  9
$OBSLTYPE
280
0
  9
$INTERSECTIONDISPLAY
280
0
  9
$INTERSECTIONCOLOR
 70
257
  9
$DIMASSOC
280
2
  9
$PROJECTNAME
  1

  9
$CAMERADISPLAY
290
0
  9
$LENSLENGTH
 40
50.0
  9
$CAMERAHEIGHT
 40
0.0
  9
$STEPSPERSEC
 40
24.0
  9
$STEPSIZE
 40
100.0
  9
$3DDWFPREC
 40
2.0
  9
$PSOLWIDTH
 40
0.005
  9
$PSOLHEIGHT
 40
0.08
  9
$LOFTANG1
 40
1.570796326795
  9
$LOFTANG2
 40
1.570796326795
  9
$LOFTMAG1
 40
0.0
  9
$LOFTMAG2
 40
0.0
  9
$LOFTPARAM
 70
7
  9
$LOFTNORMALS
280
1
  9
$LATITUDE
 40
37.795
  9
$LONGITUDE
 40
-122.394
  9
$NORTHDIRECTION
 40
0.0
  9
$TIMEZONE
 70
-8000
  9
$LIGHTGLYPHDISPLAY
280
1
  9
$TILEMODELIGHTSYNCH
280
1
  9
$CMATERIAL
347
20
  9
$SOLIDHIST
280
0
  9
$SHOWHIST
280
1
  9
$DWFFRAME
280
2
  9
$DGNFRAME
280
2
  9
$REALWORLDSCALE
290
1
  9
$INTERFERECOLOR
 62
256
  9
$CSHADOW
280
0
  9
$SHADOWPLANELOCATION
 40
0.0
  0
ENDSEC
  0
SECTION
  2
CLASSES
  0
CLASS
  1
ACDBDICTIONARYWDFLT
  2
AcDbDictionaryWithDefault
  3
ObjectDBX Classes
 90
0
 91
0
280
0
281
0
  0
CLASS
  1
SUN
  2
AcDbSun
  3
SCENEOE
 90
1153
 91
0
280
0
281
0
  0
CLASS
  1
VISUALSTYLE
  2
AcDbVisualStyle
  3
ObjectDBX Classes
 90
4095
 91
0
280
0
281
0
  0
CLASS
  1
MATERIAL
  2
AcDbMaterial
  3
ObjectDBX Classes
 90
1153
 91
0
280
0
281
0
  0
CLASS
  1
SCALE
  2
AcDbScale
  3
ObjectDBX Classes
 90
1153
 91
0
280
0
281
0
  0
CLASS
  1
TABLESTYLE
  2
AcDbTableStyle
  3
ObjectDBX Classes
 90
4095
 91
0
280
0
281
0
  0
CLASS
  1
MLEADERSTYLE
  2
AcDbMLeaderStyle
  3
ACDB_MLEADERSTYLE_CLASS
 90
4095
 91
0
280
0
281
0
  0
CLASS
  1
DICTIONARYVAR
  2
AcDbDictionaryVar
  3
ObjectDBX Classes
 90
0
 91
0
280
0
281
0
  0
CLASS
  1
CELLSTYLEMAP
  2
AcDbCellStyleMap
  3
ObjectDBX Classes
 90
1152
 91
0
280
0
281
0
  0
CLASS
  1
MENTALRAYRENDERSETTINGS
  2
AcDbMentalRayRenderSettings
  3
SCENEOE
 90
1024
 91
0
280
0
281
0
  0
CLASS
  1
ACDBDETAILVIEWSTYLE
  2
AcDbDetailViewStyle
  3
ObjectDBX Classes
 90
1025
 91
0
280
0
281
0
  0
CLASS
  1
ACDBSECTIONVIEWSTYLE
  2
AcDbSectionViewStyle
  3
ObjectDBX Classes
 90
1025
 91
0
280
0
281
0
  0
CLASS
  1
RASTERVARIABLES
  2
AcDbRasterVariables
  3
ISM
 90
0
 91
0
280
0
281
0
  0
CLASS
  1
ACDBPLACEHOLDER
  2
AcDbPlaceHolder
  3
ObjectDBX Classes
 90
0
 91
0
280
0
281
0
  0
CLASS
  1
LAYOUT
  2
AcDbLayout
  3
ObjectDBX Classes
 90
0
 91
0
280
0
281
0
  0
ENDSEC
  0
SECTION
  2
TABLES
  0
TABLE
  2
VPORT
  5
8
330
0
100
AcDbSymbolTable
 70
1
  0
VPORT
  5
23
330
8
100
AcDbSymbolTableRecord
100
AcDbViewportTableRecord
  2
*Active
 70
0
 10
0.0
 20
0.0
 11
1.0
 21
1.0
 12
0.0
 22
0.0
 13
0.0
 23
0.0
 14
0.5
 24
0.5
 15
0.5
 25
0.5
 16
0.0
 26
0.0
 36
1.0
 17
0.0
 27
0.0
 37
0.0
 40
1000.0
 41
1.34
 42
50.0
 43
0.0
 44
0.0
 50
0.0
 51
0.0
 71
0
 72
1000
 73
1
 74
3
 75
0
 76
0
 77
0
 78
0
281
0
 65
0
146
0.0
  0
ENDTAB
  0
TABLE
  2
LTYPE
  5
2
330
0
100
AcDbSymbolTable
 70
21
  0
LTYPE
  5
24
330
2
100
AcDbSymbolTableRecord
100
AcDbLinetypeTableRecord
  2
ByBlock
 70
0
  3

 72
65
 73
0
 40
0.0
  0
LTYPE
  5
25
330
2
100
AcDbSymbolTableRecord
100
AcDbLinetypeTableRecord
  2
ByLayer
 70
0
  3

 72
65
 73
0
 40
0.0
  0
LTYPE
  5
26
330
2
100
AcDbSymbolTableRecord
100
AcDbLinetypeTableRecord
  2
Continuous
 70
0
  3

 72
65
 73
0
 40
0.0
  0
LTYPE
  5
2F
330
2
100
AcDbSymbolTableRecord
100
AcDbLinetypeTableRecord
  2
CENTER
 70
0
  3
Center ____ _ ____ _ ____ _ ____ _ ____ _ ____
 72
65
 73
4
 40
5.08
 49
3.175
 74
0
 49
-0.635
 74
0
 49
0.635
 74
0
 49
-0.635
 74
0
  0
LTYPE
  5
30
330
2
100
AcDbSymbolTableRecord
100
AcDbLinetypeTableRecord
  2
CENTERX2
 70
0
  3
Center (2x) ________  __  ________  __  ________
 72
65
 73
4
 40
8.89
 49
6.35
 74
0
 49
-0.635
 74
0
 49
1.27
 74
0
 49
-0.635
 74
0
  0
LTYPE
  5
31
330
2
100
AcDbSymbolTableRecord
100
AcDbLinetypeTableRecord
  2
CENTER2
 70
0
  3
Center (.5x) ____ _ ____ _ ____ _ ____ _ ____
 72
65
 73
4
 40
2.54
 49
1.587
 74
0
 49
-0.318
 74
0
 49
0.318
 74
0
 49
-0.318
 74
0
  0
LTYPE
  5
32
330
2
100
AcDbSymbolTableRecord
100
AcDbLinetypeTableRecord
  2
DASHED
 70
0
  3
Dashed __ __ __ __ __ __ __ __ __ __ __ __ __ _
 72
65
 73
2
 40
1.524
 49
1.27
 74
0
 49
-0.254
 74
0
  0
LTYPE
  5
33
330
2
100
AcDbSymbolTableRecord
100
AcDbLinetypeTableRecord
  2
DASHEDX2
 70
0
  3
Dashed (2x) ____  ____  ____  ____  ____  ____
 72
65
 73
2
 40
3.048
 49
2.54
 74
0
 49
-0.508
 74
0
  0
LTYPE
  5
34
330
2
100
AcDbSymbolTableRecord
100
AcDbLinetypeTableRecord
  2
DASHED2
 70
0
  3
Dashed (.5x) _ _ _ _ _ _ _ _ _ _ _ _ _ _
 72
65
 73
2
 40
0.762
 49
0.635
 74
0
 49
-0.127
 74
0
  0
LTYPE
  5
35
330
2
100
AcDbSymbolTableRecord
100
AcDbLinetypeTableRecord
  2
PHANTOM
 70
0
  3
Phantom ______  __  __  ______  __  __  ______
 72
65
 73
6
 40
6.35
 49
3.175
 74
0
 49
-0.635
 74
0
 49
0.635
 74
0
 49
-0.635
 74
0
 49
0.635
 74
0
 49
-0.635
 74
0
  0
LTYPE
  5
36
330
2
100
AcDbSymbolTableRecord
100
AcDbLinetypeTableRecord
  2
PHANTOMX2
 70
0
  3
Phantom (2x)____________    ____    ____    ____________
 72
65
 73
6
 40
10.795
 49
6.35
 74
0
 49
-0.635
 74
0
 49
1.27
 74
0
 49
-0.635
 74
0
 49
1.27
 74
0
 49
-0.635
 74
0
  0
LTYPE
  5
37
330
2
100
AcDbSymbolTableRecord
100
AcDbLinetypeTableRecord
  2
PHANTOM2
 70
0
  3
Phantom (.5x) ___ _ _ ___ _ _ ___ _ _ ___ _ _ ___
 72
65
 73
6
 40
3.175
 49
1.587
 74
0
 49
-0.318
 74
0
 49
0.318
 74
0
 49
-0.318
 74
0
 49
0.318
 74
0
 49
-0.318
 74
0
  0
LTYPE
  5
38
330
2
100
AcDbSymbolTableRecord
100
AcDbLinetypeTableRecord
  2
DASHDOT
 70
0
  3
Dash dot __ . __ . __ . __ . __ . __ . __ . __
 72
65
 73
4
 40
3.556
 49
2.54
 74
0
 49
-0.508
 74
0
 49
0.0
 74
0
 49
-0.508
 74
0
  0
LTYPE
  5
39
330
2
100
AcDbSymbolTableRecord
100
AcDbLinetypeTableRecord
  2
DASHDOTX2
 70
0
  3
Dash dot (2x) ____  .  ____  .  ____  .  ____
 72
65
 73
4
 40
6.096
 49
5.08
 74
0
 49
-0.508
 74
0
 49
0.0
 74
0
 49
-0.508
 74
0
  0
LTYPE
  5
3A
330
2
100
AcDbSymbolTableRecord
100
AcDbLinetypeTableRecord
  2
DASHDOT2
 70
0
  3
Dash dot (.5x) _ . _ . _ . _ . _ . _ . _ . _
 72
65
 73
4
 40
1.778
 49
1.27
 74
0
 49
-0.254
 74
0
 49
0.0
 74
0
 49
-0.254
 74
0
  0
LTYPE
  5
3B
330
2
100
AcDbSymbolTableRecord
100
AcDbLinetypeTableRecord
  2
DOT
 70
0
  3
Dot .  .  .  .  .  .  .  .  .  .  .  .  .  .  .  .
 72
65
 73
2
 40
0.508
 49
0.0
 74
0
 49
-0.508
 74
0
  0
LTYPE
  5
3C
330
2
100
AcDbSymbolTableRecord
100
AcDbLinetypeTableRecord
  2
DOTX2
 70
0
  3
Dot (2x) .    .    .    .    .    .    .    . 
 72
65
 73
2
 40
1.016
 49
0.0
 74
0
 49
-1.016
 74
0
  0
LTYPE
  5
3D
330
2
100
AcDbSymbolTableRecord
100
AcDbLinetypeTableRecord
  2
DOT2
 70
0
  3
Dot (.5) . . . . . . . . . . . . . . . . . . . 
 72
65
 73
2
 40
0.254
 49
0.0
 74
0
 49
-0.254
 74
0
  0
LTYPE
  5
3E
330
2
100
AcDbSymbolTableRecord
100
AcDbLinetypeTableRecord
  2
DIVIDE
 70
0
  3
Divide __ . . __ . . __ . . __ . . __ . . __
 72
65
 73
6
 40
4.064
 49
2.54
 74
0
 49
-0.508
 74
0
 49
0.0
 74
0
 49
-0.508
 74
0
 49
0.0
 74
0
 49
-0.508
 74
0
  0
LTYPE
  5
3F
330
2
100
AcDbSymbolTableRecord
100
AcDbLinetypeTableRecord
  2
DIVIDEX2
 70
0
  3
Divide (2x) ____  . .  ____  . .  ____  . .  ____
 72
65
 73
6
 40
6.604
 49
5.08
 74
0
 49
-0.508
 74
0
 49
0.0
 74
0
 49
-0.508
 74
0
 49
0.0
 74
0
 49
-0.508
 74
0
  0
LTYPE
  5
40
330
2
100
AcDbSymbolTableRecord
100
AcDbLinetypeTableRecord
  2
DIVIDE2
 70
0
  3
Divide(.5x) _ . _ . _ . _ . _ . _ . _ . _
 72
65
 73
6
 40
2.032
 49
1.27
 74
0
 49
-0.254
 74
0
 49
0.0
 74
0
 49
-0.254
 74
0
 49
0.0
 74
0
 49
-0.254
 74
0
  0
ENDTAB
  0
TABLE
  2
LAYER
  5
1
330
0
100
AcDbSymbolTable
 70
26
  0
LAYER
  5
27
330
1
100
AcDbSymbolTableRecord
100
AcDbLayerTableRecord
  2
0
 70
0
 62
7
  6
Continuous
370
-3
390
13
347
21
  0
LAYER
  5
28
330
1
100
AcDbSymbolTableRecord
100
AcDbLayerTableRecord
  2
Defpoints
 70
0
 62
7
  6
Continuous
290
0
370
-3
390
13
347
21
  0
LAYER
  5
8A
330
1
100
AcDbSymbolTableRecord
100
AcDbLayerTableRecord
  2
S-CONCRETE
 70
0
 62
7
  6
Continuous
370
-3
390
13
347
21
1001
AcAecLayerStandard
1000

1000
Structural concrete outlines (cut)
  0
LAYER
  5
8C
330
1
100
AcDbSymbolTableRecord
100
AcDbLayerTableRecord
  2
S-CONCRETE-THIN
 70
0
 62
7
  6
Continuous
370
-3
390
13
347
21
1001
AcAecLayerStandard
1000

1000
Concrete beyond the cut plane
  0
LAYER
  5
8D
330
1
100
AcDbSymbolTableRecord
100
AcDbLayerTableRecord
  2
S-HIDDEN
 70
0
 62
8
  6
Continuous
370
-3
390
13
347
21
1001
AcAecLayerStandard
1000

1000
Concrete / features beyond, hidden
  0
LAYER
  5
8E
330
1
100
AcDbSymbolTableRecord
100
AcDbLayerTableRecord
  2
S-REBAR-MAIN
 70
0
 62
1
  6
Continuous
370
-3
390
13
347
21
1001
AcAecLayerStandard
1000

1000
Main reinforcement
  0
LAYER
  5
8F
330
1
100
AcDbSymbolTableRecord
100
AcDbLayerTableRecord
  2
S-REBAR-DIST
 70
0
 62
3
  6
Continuous
370
-3
390
13
347
21
1001
AcAecLayerStandard
1000

1000
Distribution reinforcement
  0
LAYER
  5
90
330
1
100
AcDbSymbolTableRecord
100
AcDbLayerTableRecord
  2
S-REBAR-STIRRUP
 70
0
 62
6
  6
Continuous
370
-3
390
13
347
21
1001
AcAecLayerStandard
1000

1000
Links and stirrups
  0
LAYER
  5
91
330
1
100
AcDbSymbolTableRecord
100
AcDbLayerTableRecord
  2
S-REBAR-TIE
 70
0
 62
6
  6
Continuous
370
-3
390
13
347
21
1001
AcAecLayerStandard
1000

1000
Ties, cross-ties, starters
  0
LAYER
  5
92
330
1
100
AcDbSymbolTableRecord
100
AcDbLayerTableRecord
  2
S-REBAR-SEC
 70
0
 62
4
  6
Continuous
370
-3
390
13
347
21
1001
AcAecLayerStandard
1000

1000
Trimmers, secondary and additional bars
  0
LAYER
  5
93
330
1
100
AcDbSymbolTableRecord
100
AcDbLayerTableRecord
  2
S-DIM
 70
0
 62
4
  6
Continuous
370
-3
390
13
347
21
1001
AcAecLayerStandard
1000

1000
Dimensions
  0
LAYER
  5
94
330
1
100
AcDbSymbolTableRecord
100
AcDbLayerTableRecord
  2
S-TEXT
 70
0
 62
7
  6
Continuous
370
-3
390
13
347
21
1001
AcAecLayerStandard
1000

1000
General annotation
  0
LAYER
  5
95
330
1
100
AcDbSymbolTableRecord
100
AcDbLayerTableRecord
  2
S-NOTE
 70
0
 62
7
  6
Continuous
370
-3
390
13
347
21
1001
AcAecLayerStandard
1000

1000
Note panels
  0
LAYER
  5
96
330
1
100
AcDbSymbolTableRecord
100
AcDbLayerTableRecord
  2
S-CALLOUT
 70
0
 62
2
  6
Continuous
370
-3
390
13
347
21
1001
AcAecLayerStandard
1000

1000
Bar-mark balloons and leaders
  0
LAYER
  5
97
330
1
100
AcDbSymbolTableRecord
100
AcDbLayerTableRecord
  2
S-SECTION
 70
0
 62
1
  6
Continuous
370
-3
390
13
347
21
1001
AcAecLayerStandard
1000

1000
Section and detail markers
  0
LAYER
  5
98
330
1
100
AcDbSymbolTableRecord
100
AcDbLayerTableRecord
  2
S-GRID
 70
0
 62
5
  6
Continuous
370
-3
390
13
347
21
1001
AcAecLayerStandard
1000

1000
Grid lines and bubbles
  0
LAYER
  5
99
330
1
100
AcDbSymbolTableRecord
100
AcDbLayerTableRecord
  2
S-CENTER
 70
0
 62
6
  6
Continuous
370
-3
390
13
347
21
1001
AcAecLayerStandard
1000

1000
Centrelines
  0
LAYER
  5
9A
330
1
100
AcDbSymbolTableRecord
100
AcDbLayerTableRecord
  2
S-HATCH
 70
0
 62
8
  6
Continuous
370
-3
390
13
347
21
1001
AcAecLayerStandard
1000

1000
Section hatch
  0
LAYER
  5
9B
330
1
100
AcDbSymbolTableRecord
100
AcDbLayerTableRecord
  2
S-TITLE
 70
0
 62
7
  6
Continuous
370
-3
390
13
347
21
1001
AcAecLayerStandard
1000

1000
Border, title block, view titles
  0
LAYER
  5
9C
330
1
100
AcDbSymbolTableRecord
100
AcDbLayerTableRecord
  2
S-EXISTING
 70
0
 62
8
  6
Continuous
370
-3
390
13
347
21
1001
AcAecLayerStandard
1000

1000
Soil, rock, berm, cover layers
  0
LAYER
  5
9D
330
1
100
AcDbSymbolTableRecord
100
AcDbLayerTableRecord
  2
S-REFERENCE
 70
0
 62
8
  6
Continuous
370
-3
390
13
347
21
1001
AcAecLayerStandard
1000

1000
Reference geometry, extents
  0
LAYER
  5
9E
330
1
100
AcDbSymbolTableRecord
100
AcDbLayerTableRecord
  2
S-WATERPROOF
 70
0
 62
30
  6
Continuous
370
-3
390
13
347
21
1001
AcAecLayerStandard
1000

1000
Membranes, waterstops, GWT
  0
LAYER
  5
9F
330
1
100
AcDbSymbolTableRecord
100
AcDbLayerTableRecord
  2
S-STEELWORK
 70
0
 62
2
  6
Continuous
370
-3
390
13
347
21
1001
AcAecLayerStandard
1000

1000
Cast-in frames, EMP straps, steel items
  0
LAYER
  5
A0
330
1
100
AcDbSymbolTableRecord
100
AcDbLayerTableRecord
  2
S-LEVEL
 70
0
 62
4
  6
Continuous
370
-3
390
13
347
21
1001
AcAecLayerStandard
1000

1000
Level markers
  0
LAYER
  5
A1
330
1
100
AcDbSymbolTableRecord
100
AcDbLayerTableRecord
  2
S-TABLE
 70
0
 62
7
  6
Continuous
370
-3
390
13
347
21
1001
AcAecLayerStandard
1000

1000
Tables and schedules
  0
LAYER
  5
A2
330
1
100
AcDbSymbolTableRecord
100
AcDbLayerTableRecord
  2
S-BLAST
 70
0
 62
1
  6
Continuous
370
-3
390
13
347
21
1001
AcAecLayerStandard
1000

1000
Blast arrows, findings, warnings
  0
ENDTAB
  0
TABLE
  2
STYLE
  5
5
330
0
100
AcDbSymbolTable
 70
26
  0
STYLE
  5
29
330
5
100
AcDbSymbolTableRecord
100
AcDbTextStyleTableRecord
  2
Standard
 70
0
 40
0.0
 41
1.0
 50
0.0
 71
0
 42
2.5
  3
txt
  4

  0
STYLE
  5
41
330
5
100
AcDbSymbolTableRecord
100
AcDbTextStyleTableRecord
  2
OpenSans-Light
 70
0
 40
0.0
 41
1.0
 50
0.0
 71
0
 42
2.5
  3
OpenSans-Light.ttf
  4

  0
STYLE
  5
42
330
5
100
AcDbSymbolTableRecord
100
AcDbTextStyleTableRecord
  2
OpenSans-Light-Italic
 70
0
 40
0.0
 41
1.0
 50
0.0
 71
0
 42
2.5
  3
OpenSans-LightItalic.ttf
  4

  0
STYLE
  5
43
330
5
100
AcDbSymbolTableRecord
100
AcDbTextStyleTableRecord
  2
OpenSans
 70
0
 40
0.0
 41
1.0
 50
0.0
 71
0
 42
2.5
  3
OpenSans-Regular.ttf
  4

  0
STYLE
  5
44
330
5
100
AcDbSymbolTableRecord
100
AcDbTextStyleTableRecord
  2
OpenSans-Italic
 70
0
 40
0.0
 41
1.0
 50
0.0
 71
0
 42
2.5
  3
OpenSans-Italic.ttf
  4

  0
STYLE
  5
45
330
5
100
AcDbSymbolTableRecord
100
AcDbTextStyleTableRecord
  2
OpenSans-SemiBold
 70
0
 40
0.0
 41
1.0
 50
0.0
 71
0
 42
2.5
  3
OpenSans-SemiBold.ttf
  4

  0
STYLE
  5
46
330
5
100
AcDbSymbolTableRecord
100
AcDbTextStyleTableRecord
  2
OpenSans-SemiBoldItalic
 70
0
 40
0.0
 41
1.0
 50
0.0
 71
0
 42
2.5
  3
OpenSans-SemiBoldItalic.ttf
  4

  0
STYLE
  5
47
330
5
100
AcDbSymbolTableRecord
100
AcDbTextStyleTableRecord
  2
OpenSans-Bold
 70
0
 40
0.0
 41
1.0
 50
0.0
 71
0
 42
2.5
  3
OpenSans-Bold.ttf
  4

  0
STYLE
  5
48
330
5
100
AcDbSymbolTableRecord
100
AcDbTextStyleTableRecord
  2
OpenSans-BoldItalic
 70
0
 40
0.0
 41
1.0
 50
0.0
 71
0
 42
2.5
  3
OpenSans-BoldItalic.ttf
  4

  0
STYLE
  5
49
330
5
100
AcDbSymbolTableRecord
100
AcDbTextStyleTableRecord
  2
OpenSans-ExtraBold
 70
0
 40
0.0
 41
1.0
 50
0.0
 71
0
 42
2.5
  3
OpenSans-ExtraBold.ttf
  4

  0
STYLE
  5
4A
330
5
100
AcDbSymbolTableRecord
100
AcDbTextStyleTableRecord
  2
OpenSans-ExtraBoldItalic
 70
0
 40
0.0
 41
1.0
 50
0.0
 71
0
 42
2.5
  3
OpenSans-ExtraBoldItalic.ttf
  4

  0
STYLE
  5
4B
330
5
100
AcDbSymbolTableRecord
100
AcDbTextStyleTableRecord
  2
OpenSansCondensed-Bold
 70
0
 40
0.0
 41
1.0
 50
0.0
 71
0
 42
2.5
  3
OpenSansCondensed-Bold.ttf
  4

  0
STYLE
  5
4C
330
5
100
AcDbSymbolTableRecord
100
AcDbTextStyleTableRecord
  2
OpenSansCondensed-Light
 70
0
 40
0.0
 41
1.0
 50
0.0
 71
0
 42
2.5
  3
OpenSansCondensed-Light.ttf
  4

  0
STYLE
  5
4D
330
5
100
AcDbSymbolTableRecord
100
AcDbTextStyleTableRecord
  2
OpenSansCondensed-Italic
 70
0
 40
0.0
 41
1.0
 50
0.0
 71
0
 42
2.5
  3
OpenSansCondensed-LightItalic.ttf
  4

  0
STYLE
  5
4E
330
5
100
AcDbSymbolTableRecord
100
AcDbTextStyleTableRecord
  2
LiberationSans
 70
0
 40
0.0
 41
1.0
 50
0.0
 71
0
 42
2.5
  3
LiberationSans-Regular.ttf
  4

  0
STYLE
  5
4F
330
5
100
AcDbSymbolTableRecord
100
AcDbTextStyleTableRecord
  2
LiberationSans-Bold
 70
0
 40
0.0
 41
1.0
 50
0.0
 71
0
 42
2.5
  3
LiberationSans-Bold.ttf
  4

  0
STYLE
  5
50
330
5
100
AcDbSymbolTableRecord
100
AcDbTextStyleTableRecord
  2
LiberationSans-BoldItalic
 70
0
 40
0.0
 41
1.0
 50
0.0
 71
0
 42
2.5
  3
LiberationSans-BoldItalic.ttf
  4

  0
STYLE
  5
51
330
5
100
AcDbSymbolTableRecord
100
AcDbTextStyleTableRecord
  2
LiberationSans-Italic
 70
0
 40
0.0
 41
1.0
 50
0.0
 71
0
 42
2.5
  3
LiberationSans-Italic.ttf
  4

  0
STYLE
  5
52
330
5
100
AcDbSymbolTableRecord
100
AcDbTextStyleTableRecord
  2
LiberationSerif
 70
0
 40
0.0
 41
1.0
 50
0.0
 71
0
 42
2.5
  3
LiberationSerif-Regular.ttf
  4

  0
STYLE
  5
53
330
5
100
AcDbSymbolTableRecord
100
AcDbTextStyleTableRecord
  2
LiberationSerif-Bold
 70
0
 40
0.0
 41
1.0
 50
0.0
 71
0
 42
2.5
  3
LiberationSerif-Bold.ttf
  4

  0
STYLE
  5
54
330
5
100
AcDbSymbolTableRecord
100
AcDbTextStyleTableRecord
  2
LiberationSerif-BoldItalic
 70
0
 40
0.0
 41
1.0
 50
0.0
 71
0
 42
2.5
  3
LiberationSerif-BoldItalic.ttf
  4

  0
STYLE
  5
55
330
5
100
AcDbSymbolTableRecord
100
AcDbTextStyleTableRecord
  2
LiberationSerif-Italic
 70
0
 40
0.0
 41
1.0
 50
0.0
 71
0
 42
2.5
  3
LiberationSerif-Italic.ttf
  4

  0
STYLE
  5
56
330
5
100
AcDbSymbolTableRecord
100
AcDbTextStyleTableRecord
  2
LiberationMono
 70
0
 40
0.0
 41
1.0
 50
0.0
 71
0
 42
2.5
  3
LiberationMono-Regular.ttf
  4

  0
STYLE
  5
57
330
5
100
AcDbSymbolTableRecord
100
AcDbTextStyleTableRecord
  2
LiberationMono-Bold
 70
0
 40
0.0
 41
1.0
 50
0.0
 71
0
 42
2.5
  3
LiberationMono-Bold.ttf
  4

  0
STYLE
  5
58
330
5
100
AcDbSymbolTableRecord
100
AcDbTextStyleTableRecord
  2
LiberationMono-BoldItalic
 70
0
 40
0.0
 41
1.0
 50
0.0
 71
0
 42
2.5
  3
LiberationMono-BoldItalic.ttf
  4

  0
STYLE
  5
59
330
5
100
AcDbSymbolTableRecord
100
AcDbTextStyleTableRecord
  2
LiberationMono-Italic
 70
0
 40
0.0
 41
1.0
 50
0.0
 71
0
 42
2.5
  3
LiberationMono-Italic.ttf
  4

  0
ENDTAB
  0
TABLE
  2
VIEW
  5
7
330
0
100
AcDbSymbolTable
 70
0
  0
ENDTAB
  0
TABLE
  2
UCS
  5
6
330
0
100
AcDbSymbolTable
 70
0
  0
ENDTAB
  0
TABLE
  2
APPID
  5
3
330
0
100
AcDbSymbolTable
 70
4
  0
APPID
  5
2A
330
3
100
AcDbSymbolTableRecord
100
AcDbRegAppTableRecord
  2
ACAD
 70
0
  0
APPID
  5
8B
330
3
100
AcDbSymbolTableRecord
100
AcDbRegAppTableRecord
  2
AcAecLayerStandard
 70
0
  0
APPID
  5
23A
330
3
100
AcDbSymbolTableRecord
100
AcDbRegAppTableRecord
  2
HATCHBACKGROUNDCOLOR
 70
0
  0
APPID
  5
23B
330
3
100
AcDbSymbolTableRecord
100
AcDbRegAppTableRecord
  2
EZDXF
 70
0
  0
ENDTAB
  0
TABLE
  2
DIMSTYLE
  5
4
330
0
100
AcDbSymbolTable
 70
14
100
AcDbDimStyleTable
  0
DIMSTYLE
105
2B
330
4
100
AcDbSymbolTableRecord
100
AcDbDimStyleTableRecord
  2
Standard
 70
0
 40
1.0
 41
2.5
 42
0.625
 43
3.75
 44
1.25
 45
0.0
 46
0.0
 47
0.0
 48
0.0
 49
2.5
140
2.5
141
2.5
142
0.0
143
0.03937007874
144
1.0
145
0.0
146
1.0
147
0.625
148
0.0
 69
0
 70
0
 71
0
 72
0
 73
0
 74
0
 75
0
 76
0
 77
1
 78
8
 79
3
170
0
171
3
172
1
173
0
174
0
175
0
176
0
177
0
178
0
179
2
271
2
272
2
273
2
274
3
275
0
276
0
277
2
278
44
279
0
280
0
281
0
282
0
283
0
284
8
285
0
286
0
288
0
289
3
290
0
371
-2
372
-2
  0
DIMSTYLE
105
73
330
4
100
AcDbSymbolTableRecord
100
AcDbDimStyleTableRecord
  2
EZDXF
 70
0
 40
1.0
 41
0.175
 42
0.125
 43
3.75
 44
0.375
 45
0.0
 46
0.0
 47
0.0
 48
0.0
 49
2.5
140
0.25
141
2.5
142
0.0
143
0.03937007874
144
100.0
145
0.0
146
0.5
147
0.1
148
0.0
 69
0
 70
0
 71
0
 72
0
 73
0
 74
0
 75
0
 76
0
 77
1
 78
12
 79
3
170
0
171
3
172
1
173
0
174
0
175
0
176
0
177
0
178
0
179
2
271
2
272
2
273
2
274
3
275
0
276
0
277
2
278
46
279
2
280
0
281
0
282
0
283
0
284
8
285
0
286
0
288
1
289
3
290
0
340
4C
342
74
371
-2
372
-2
  0
DIMSTYLE
105
7C
330
4
100
AcDbSymbolTableRecord
100
AcDbDimStyleTableRecord
  2
EZ_M_100_H25_CM
 70
0
 40
1.0
 41
0.25
 42
0.125
 43
3.75
 44
0.375
 45
0.0
 46
0.0
 47
0.0
 48
0.0
 49
2.5
140
0.25
141
2.5
142
0.125
143
0.03937007874
144
100.0
145
0.0
146
0.5
147
0.1
148
0.0
 69
0
 70
0
 71
0
 72
0
 73
0
 74
0
 75
0
 76
0
 77
1
 78
12
 79
3
170
0
171
3
172
1
173
0
174
0
175
0
176
0
177
0
178
0
179
2
271
2
272
2
273
2
274
3
275
0
276
0
277
2
278
46
279
2
280
0
281
0
282
0
283
0
284
8
285
0
286
0
288
1
289
3
290
0
340
4C
371
-2
372
-2
  0
DIMSTYLE
105
7D
330
4
100
AcDbSymbolTableRecord
100
AcDbDimStyleTableRecord
  2
EZ_M_50_H25_CM
 70
0
 40
1.0
 41
0.125
 42
0.0625
 43
3.75
 44
0.1875
 45
0.0
 46
0.0
 47
0.0
 48
0.0
 49
2.5
140
0.125
141
2.5
142
0.0625
143
0.03937007874
144
100.0
145
0.0
146
0.5
147
0.05
148
0.0
 69
0
 70
0
 71
0
 72
0
 73
0
 74
0
 75
0
 76
0
 77
1
 78
12
 79
3
170
0
171
3
172
1
173
0
174
0
175
0
176
0
177
0
178
0
179
2
271
2
272
2
273
2
274
3
275
0
276
0
277
2
278
46
279
2
280
0
281
0
282
0
283
0
284
8
285
0
286
0
288
1
289
3
290
0
340
4C
371
-2
372
-2
  0
DIMSTYLE
105
7E
330
4
100
AcDbSymbolTableRecord
100
AcDbDimStyleTableRecord
  2
EZ_M_25_H25_CM
 70
0
 40
1.0
 41
0.0625
 42
0.03125
 43
3.75
 44
0.09375
 45
0.0
 46
0.0
 47
0.0
 48
0.0
 49
2.5
140
0.0625
141
2.5
142
0.03125
143
0.03937007874
144
100.0
145
0.0
146
0.5
147
0.025
148
0.0
 69
0
 70
0
 71
0
 72
0
 73
0
 74
0
 75
0
 76
0
 77
1
 78
12
 79
3
170
0
171
3
172
1
173
0
174
0
175
0
176
0
177
0
178
0
179
2
271
2
272
2
273
2
274
3
275
0
276
0
277
2
278
46
279
2
280
0
281
0
282
0
283
0
284
8
285
0
286
0
288
1
289
3
290
0
340
4C
371
-2
372
-2
  0
DIMSTYLE
105
7F
330
4
100
AcDbSymbolTableRecord
100
AcDbDimStyleTableRecord
  2
EZ_M_20_H25_CM
 70
0
 40
1.0
 41
0.05
 42
0.025
 43
3.75
 44
0.07500000000000001
 45
0.0
 46
0.0
 47
0.0
 48
0.0
 49
2.5
140
0.05
141
2.5
142
0.025
143
0.03937007874
144
100.0
145
0.0
146
0.5
147
0.020000000000000004
148
0.0
 69
0
 70
0
 71
0
 72
0
 73
0
 74
0
 75
0
 76
0
 77
1
 78
12
 79
3
170
0
171
3
172
1
173
0
174
0
175
0
176
0
177
0
178
0
179
2
271
2
272
2
273
2
274
3
275
0
276
0
277
2
278
46
279
2
280
0
281
0
282
0
283
0
284
8
285
0
286
0
288
1
289
3
290
0
340
4C
371
-2
372
-2
  0
DIMSTYLE
105
80
330
4
100
AcDbSymbolTableRecord
100
AcDbDimStyleTableRecord
  2
EZ_M_10_H25_CM
 70
0
 40
1.0
 41
0.025
 42
0.0125
 43
3.75
 44
0.037500000000000006
 45
0.0
 46
0.0
 47
0.0
 48
0.0
 49
2.5
140
0.025
141
2.5
142
0.0125
143
0.03937007874
144
100.0
145
0.0
146
0.5
147
0.010000000000000002
148
0.0
 69
0
 70
0
 71
0
 72
0
 73
0
 74
0
 75
0
 76
0
 77
1
 78
12
 79
3
170
0
171
3
172
1
173
0
174
0
175
0
176
0
177
0
178
0
179
2
271
2
272
2
273
2
274
3
275
0
276
0
277
2
278
46
279
2
280
0
281
0
282
0
283
0
284
8
285
0
286
0
288
1
289
3
290
0
340
4C
371
-2
372
-2
  0
DIMSTYLE
105
81
330
4
100
AcDbSymbolTableRecord
100
AcDbDimStyleTableRecord
  2
EZ_M_5_H25_CM
 70
0
 40
1.0
 41
0.0125
 42
0.00625
 43
3.75
 44
0.018750000000000003
 45
0.0
 46
0.0
 47
0.0
 48
0.0
 49
2.5
140
0.0125
141
2.5
142
0.00625
143
0.03937007874
144
100.0
145
0.0
146
0.5
147
0.005000000000000001
148
0.0
 69
0
 70
0
 71
0
 72
0
 73
0
 74
0
 75
0
 76
0
 77
1
 78
12
 79
3
170
0
171
3
172
1
173
0
174
0
175
0
176
0
177
0
178
0
179
2
271
2
272
2
273
2
274
3
275
0
276
0
277
2
278
46
279
2
280
0
281
0
282
0
283
0
284
8
285
0
286
0
288
1
289
3
290
0
340
4C
371
-2
372
-2
  0
DIMSTYLE
105
82
330
4
100
AcDbSymbolTableRecord
100
AcDbDimStyleTableRecord
  2
EZ_M_1_H25_CM
 70
0
 40
1.0
 41
0.0025
 42
0.00125
 43
3.75
 44
0.00375
 45
0.0
 46
0.0
 47
0.0
 48
0.0
 49
2.5
140
0.0025
141
2.5
142
0.00125
143
0.03937007874
144
100.0
145
0.0
146
0.5
147
0.001
148
0.0
 69
0
 70
0
 71
0
 72
0
 73
0
 74
0
 75
0
 76
0
 77
1
 78
12
 79
3
170
0
171
3
172
1
173
0
174
0
175
0
176
0
177
0
178
0
179
2
271
2
272
2
273
2
274
3
275
0
276
0
277
2
278
46
279
2
280
0
281
0
282
0
283
0
284
8
285
0
286
0
288
1
289
3
290
0
340
4C
371
-2
372
-2
  0
DIMSTYLE
105
83
330
4
100
AcDbSymbolTableRecord
100
AcDbDimStyleTableRecord
  2
EZ_RADIUS
 70
0
 40
1.0
 41
0.25
 42
0.125
 43
3.75
 44
0.375
 45
0.0
 46
0.0
 47
0.0
 48
0.0
 49
2.5
140
0.25
141
0.0
142
0.0
143
0.03937007874
144
100.0
145
0.0
146
0.5
147
0.1
148
0.0
 69
0
 70
0
 71
0
 72
0
 73
0
 74
0
 75
0
 76
0
 77
1
 78
12
 79
3
170
0
171
3
172
0
173
0
174
0
175
0
176
0
177
0
178
0
179
2
271
2
272
2
273
2
274
3
275
0
276
0
277
2
278
46
279
1
280
0
281
0
282
0
283
0
284
8
285
0
286
0
288
1
289
3
290
0
340
4C
342
84
371
-2
372
-2
  0
DIMSTYLE
105
88
330
4
100
AcDbSymbolTableRecord
100
AcDbDimStyleTableRecord
  2
EZ_RADIUS_INSIDE
 70
0
 40
1.0
 41
0.25
 42
0.125
 43
3.75
 44
0.375
 45
0.0
 46
0.0
 47
0.0
 48
0.0
 49
2.5
140
0.25
141
0.0
142
0.0
143
0.03937007874
144
100.0
145
0.0
146
0.5
147
0.1
148
0.0
 69
0
 70
0
 71
0
 72
0
 73
0
 74
0
 75
0
 76
0
 77
0
 78
12
 79
3
170
0
171
3
172
0
173
0
174
1
175
0
176
0
177
0
178
0
179
2
271
2
272
2
273
2
274
3
275
0
276
0
277
2
278
46
279
0
280
0
281
0
282
0
283
0
284
8
285
0
286
0
288
1
289
0
290
0
340
4C
342
84
371
-2
372
-2
  0
DIMSTYLE
105
89
330
4
100
AcDbSymbolTableRecord
100
AcDbDimStyleTableRecord
  2
EZ_CURVED
 70
0
 40
1.0
 41
0.25
 42
0.125
 43
3.75
 44
0.375
 45
0.0
 46
0.0
 47
0.0
 48
0.0
 49
2.5
140
0.25
141
2.5
142
0.0
143
0.03937007874
144
100.0
145
0.0
146
0.5
147
0.1
148
0.0
 69
0
 70
0
 71
0
 72
0
 73
0
 74
0
 75
0
 76
0
 77
1
 78
12
 79
2
 90
2
170
0
171
3
172
1
173
0
174
0
175
0
176
0
177
0
178
0
179
2
271
2
272
2
273
2
274
3
275
0
276
0
277
2
278
46
279
2
280
0
281
0
282
0
283
0
284
8
285
0
286
0
288
1
289
3
290
0
340
4C
371
-2
372
-2
  0
DIMSTYLE
105
A3
330
4
100
AcDbSymbolTableRecord
100
AcDbDimStyleTableRecord
  2
SC-DIM
 70
0
 40
1.0
 41
1.6
 42
1.0
 43
3.75
 44
1.2
 45
0.0
 46
0.0
 47
0.0
 48
0.0
 49
2.5
140
1.8
141
2.5
142
0.0
143
0.03937007874
144
1.0
145
0.0
146
1.0
147
0.8
148
0.0
 69
0
 70
0
 71
0
 72
0
 73
0
 74
0
 75
0
 76
0
 77
1
 78
8
 79
3
170
0
171
3
172
1
173
0
174
0
175
0
176
4
177
4
178
4
179
2
271
0
272
2
273
2
274
3
275
0
276
0
277
2
278
44
279
0
280
0
281
0
282
0
283
0
284
8
285
0
286
0
288
0
289
3
290
0
342
74
371
13
372
13
  0
DIMSTYLE
105
A4
330
4
100
AcDbSymbolTableRecord
100
AcDbDimStyleTableRecord
  2
SC-DIM-S
 70
0
 40
1.0
 41
1.2
 42
1.0
 43
3.75
 44
1.2
 45
0.0
 46
0.0
 47
0.0
 48
0.0
 49
2.5
140
1.4
141
2.5
142
0.0
143
0.03937007874
144
1.0
145
0.0
146
1.0
147
0.8
148
0.0
 69
0
 70
0
 71
0
 72
0
 73
0
 74
0
 75
0
 76
0
 77
1
 78
8
 79
3
170
0
171
3
172
1
173
0
174
0
175
0
176
4
177
4
178
4
179
2
271
0
272
2
273
2
274
3
275
0
276
0
277
2
278
44
279
0
280
0
281
0
282
0
283
0
284
8
285
0
286
0
288
0
289
3
290
0
342
74
371
13
372
13
  0
ENDTAB
  0
TABLE
  2
BLOCK_RECORD
  5
9
330
0
100
AcDbSymbolTable
 70
14
  0
BLOCK_RECORD
  5
17
330
9
100
AcDbSymbolTableRecord
100
AcDbBlockTableRecord
  2
*Model_Space
340
1A
 70
0
280
1
281
0
  0
BLOCK_RECORD
  5
1B
330
9
100
AcDbSymbolTableRecord
100
AcDbBlockTableRecord
  2
*Paper_Space
340
1E
 70
0
280
1
281
0
  0
BLOCK_RECORD
  5
74
330
9
100
AcDbSymbolTableRecord
100
AcDbBlockTableRecord
  2
_ARCHTICK
340
0
 70
0
280
1
281
0
  0
BLOCK_RECORD
  5
78
330
9
100
AcDbSymbolTableRecord
100
AcDbBlockTableRecord
  2
_CLOSEDFILLED
340
0
 70
0
280
1
281
0
  0
BLOCK_RECORD
  5
84
330
9
100
AcDbSymbolTableRecord
100
AcDbBlockTableRecord
  2
_CLOSEDBLANK
340
0
 70
0
280
1
281
0
  0
BLOCK_RECORD
  5
A5
330
9
100
AcDbSymbolTableRecord
100
AcDbBlockTableRecord
  2
BARMARK
340
0
 70
0
280
1
281
0
  0
BLOCK_RECORD
  5
A9
330
9
100
AcDbSymbolTableRecord
100
AcDbBlockTableRecord
  2
SECMARK
340
0
 70
0
280
1
281
0
  0
BLOCK_RECORD
  5
AE
330
9
100
AcDbSymbolTableRecord
100
AcDbBlockTableRecord
  2
LEVELMK
340
0
 70
0
280
1
281
0
  0
BLOCK_RECORD
  5
B2
330
9
100
AcDbSymbolTableRecord
100
AcDbBlockTableRecord
  2
NORTH
340
0
 70
0
280
1
281
0
  0
BLOCK_RECORD
  5
10C
330
9
100
AcDbSymbolTableRecord
100
AcDbBlockTableRecord
  2
*D1
340
0
 70
0
280
1
281
0
  0
BLOCK_RECORD
  5
11B
330
9
100
AcDbSymbolTableRecord
100
AcDbBlockTableRecord
  2
*D2
340
0
 70
0
280
1
281
0
  0
BLOCK_RECORD
  5
12A
330
9
100
AcDbSymbolTableRecord
100
AcDbBlockTableRecord
  2
*D3
340
0
 70
0
280
1
281
0
  0
BLOCK_RECORD
  5
139
330
9
100
AcDbSymbolTableRecord
100
AcDbBlockTableRecord
  2
*D4
340
0
 70
0
280
1
281
0
  0
BLOCK_RECORD
  5
189
330
9
100
AcDbSymbolTableRecord
100
AcDbBlockTableRecord
  2
*D5
340
0
 70
0
280
1
281
0
  0
ENDTAB
  0
ENDSEC
  0
SECTION
  2
BLOCKS
  0
BLOCK
  5
18
330
17
100
AcDbEntity
  8
0
100
AcDbBlockBegin
  2
*Model_Space
 70
0
 10
0.0
 20
0.0
 30
0.0
  3
*Model_Space
  1

  0
ENDBLK
  5
19
330
17
100
AcDbEntity
  8
0
100
AcDbBlockEnd
  0
BLOCK
  5
1C
330
1B
100
AcDbEntity
  8
0
100
AcDbBlockBegin
  2
*Paper_Space
 70
0
 10
0.0
 20
0.0
 30
0.0
  3
*Paper_Space
  1

  0
ENDBLK
  5
1D
330
1B
100
AcDbEntity
  8
0
100
AcDbBlockEnd
  0
BLOCK
  5
75
330
74
100
AcDbEntity
  8
0
100
AcDbBlockBegin
  2
_ARCHTICK
 70
0
 10
0.0
 20
0.0
 30
0.0
  3
_ARCHTICK
  1

  0
LWPOLYLINE
  5
77
330
74
100
AcDbEntity
  8
0
  6
BYBLOCK
 62
0
100
AcDbPolyline
 90
2
 70
0
 43
0.15
 10
-0.5
 20
-0.5
 10
0.5
 20
0.5
  0
ENDBLK
  5
76
330
74
100
AcDbEntity
  8
0
100
AcDbBlockEnd
  0
BLOCK
  5
79
330
78
100
AcDbEntity
  8
0
100
AcDbBlockBegin
  2
_CLOSEDFILLED
 70
0
 10
0.0
 20
0.0
 30
0.0
  3
_CLOSEDFILLED
  1

  0
SOLID
  5
7B
330
78
100
AcDbEntity
  8
0
  6
BYBLOCK
 62
0
100
AcDbTrace
 10
-1.0
 20
0.16439898372402537
 30
0.0
 11
0.0
 21
0.0
 31
0.0
 12
-1.0
 22
-0.16439898372402537
 32
0.0
 13
-1.0
 23
-0.16439898372402537
 33
0.0
  0
ENDBLK
  5
7A
330
78
100
AcDbEntity
  8
0
100
AcDbBlockEnd
  0
BLOCK
  5
85
330
84
100
AcDbEntity
  8
0
100
AcDbBlockBegin
  2
_CLOSEDBLANK
 70
0
 10
0.0
 20
0.0
 30
0.0
  3
_CLOSEDBLANK
  1

  0
LWPOLYLINE
  5
87
330
84
100
AcDbEntity
  8
0
  6
BYBLOCK
 62
0
100
AcDbPolyline
 90
3
 70
1
 10
-1.0
 20
0.16439898372402537
 10
0.0
 20
0.0
 10
-1.0
 20
-0.16439898372402537
  0
ENDBLK
  5
86
330
84
100
AcDbEntity
  8
0
100
AcDbBlockEnd
  0
BLOCK
  5
A6
330
A5
100
AcDbEntity
  8
0
100
AcDbBlockBegin
  2
BARMARK
 70
0
 10
0.0
 20
0.0
 30
0.0
  3
BARMARK
  1

  0
CIRCLE
  5
A8
330
A5
100
AcDbEntity
  8
S-CALLOUT
100
AcDbCircle
 10
0.0
 20
0.0
 30
0.0
 40
3.2
  0
ENDBLK
  5
A7
330
A5
100
AcDbEntity
  8
0
100
AcDbBlockEnd
  0
BLOCK
  5
AA
330
A9
100
AcDbEntity
  8
0
100
AcDbBlockBegin
  2
SECMARK
 70
0
 10
0.0
 20
0.0
 30
0.0
  3
SECMARK
  1

  0
CIRCLE
  5
AC
330
A9
100
AcDbEntity
  8
S-SECTION
100
AcDbCircle
 10
0.0
 20
0.0
 30
0.0
 40
4.0
  0
LINE
  5
AD
330
A9
100
AcDbEntity
  8
S-SECTION
100
AcDbLine
 10
-4.0
 20
0.0
 30
0.0
 11
4.0
 21
0.0
 31
0.0
  0
ENDBLK
  5
AB
330
A9
100
AcDbEntity
  8
0
100
AcDbBlockEnd
  0
BLOCK
  5
AF
330
AE
100
AcDbEntity
  8
0
100
AcDbBlockBegin
  2
LEVELMK
 70
0
 10
0.0
 20
0.0
 30
0.0
  3
LEVELMK
  1

  0
LWPOLYLINE
  5
B1
330
AE
100
AcDbEntity
  8
S-LEVEL
100
AcDbPolyline
 90
4
 70
1
 10
0.0
 20
0.0
 10
-2.0
 20
3.0
 10
2.0
 20
3.0
 10
0.0
 20
0.0
  0
ENDBLK
  5
B0
330
AE
100
AcDbEntity
  8
0
100
AcDbBlockEnd
  0
BLOCK
  5
B3
330
B2
100
AcDbEntity
  8
0
100
AcDbBlockBegin
  2
NORTH
 70
0
 10
0.0
 20
0.0
 30
0.0
  3
NORTH
  1

  0
LWPOLYLINE
  5
B5
330
B2
100
AcDbEntity
  8
S-TITLE
100
AcDbPolyline
 90
5
 70
1
 10
0.0
 20
10.0
 10
-3.2
 20
-6.0
 10
0.0
 20
-2.4
 10
3.2
 20
-6.0
 10
0.0
 20
10.0
  0
CIRCLE
  5
B6
330
B2
100
AcDbEntity
  8
S-TITLE
100
AcDbCircle
 10
0.0
 20
0.0
 30
0.0
 40
12.0
  0
ENDBLK
  5
B4
330
B2
100
AcDbEntity
  8
0
100
AcDbBlockEnd
  0
BLOCK
  5
10D
330
10C
100
AcDbEntity
  8
0
100
AcDbBlockBegin
  2
*D1
 70
1
 10
0.0
 20
0.0
 30
0.0
  3
*D1
  1

  0
LINE
  5
10F
330
10C
100
AcDbEntity
  8
0
 62
4
370
13
100
AcDbLine
 10
96.0
 20
263.0
 30
0.0
 11
96.0
 21
217.8
 31
0.0
  0
LINE
  5
110
330
10C
100
AcDbEntity
  8
0
 62
4
370
13
100
AcDbLine
 10
156.0
 20
263.0
 30
0.0
 11
156.0
 21
217.8
 31
0.0
  0
INSERT
  5
111
330
10C
100
AcDbEntity
  8
S-DIM
 62
4
100
AcDbBlockReference
  2
_ARCHTICK
 10
96.0
 20
219.0
 30
0.0
 41
1.6
 42
1.6
 50
180.0
  0
INSERT
  5
113
330
10C
100
AcDbEntity
  8
S-DIM
 62
4
100
AcDbBlockReference
  2
_ARCHTICK
 10
156.0
 20
219.0
 30
0.0
 41
1.6
 42
1.6
  0
LINE
  5
115
330
10C
100
AcDbEntity
  8
0
 62
4
370
13
100
AcDbLine
 10
96.0
 20
219.0
 30
0.0
 11
156.0
 21
219.0
 31
0.0
  0
MTEXT
  5
116
330
10C
100
AcDbEntity
  8
S-DIM
 62
4
100
AcDbMText
 10
126.0
 20
220.7
 30
0.0
 40
1.8
 71
5
  1
1200
  7
OpenSansCondensed-Light
  0
POINT
  5
117
330
10C
100
AcDbEntity
  8
Defpoints
100
AcDbPoint
 10
96.0
 20
219.0
 30
0.0
  0
POINT
  5
118
330
10C
100
AcDbEntity
  8
Defpoints
100
AcDbPoint
 10
96.0
 20
264.0
 30
0.0
  0
POINT
  5
119
330
10C
100
AcDbEntity
  8
Defpoints
100
AcDbPoint
 10
156.0
 20
264.0
 30
0.0
  0
ENDBLK
  5
10E
330
10C
100
AcDbEntity
  8
0
100
AcDbBlockEnd
  0
BLOCK
  5
11C
330
11B
100
AcDbEntity
  8
0
100
AcDbBlockBegin
  2
*D2
 70
1
 10
0.0
 20
0.0
 30
0.0
  3
*D2
  1

  0
LINE
  5
11E
330
11B
100
AcDbEntity
  8
0
 62
4
370
13
100
AcDbLine
 10
95.0
 20
264.0
 30
0.0
 11
9.8
 21
264.0
 31
0.0
  0
LINE
  5
11F
330
11B
100
AcDbEntity
  8
0
 62
4
370
13
100
AcDbLine
 10
95.0
 20
369.0
 30
0.0
 11
9.8
 21
369.0
 31
0.0
  0
INSERT
  5
120
330
11B
100
AcDbEntity
  8
S-DIM
 62
4
100
AcDbBlockReference
  2
_ARCHTICK
 10
11.0
 20
264.0
 30
0.0
 41
1.6
 42
1.6
 50
270.0
  0
INSERT
  5
122
330
11B
100
AcDbEntity
  8
S-DIM
 62
4
100
AcDbBlockReference
  2
_ARCHTICK
 10
11.0
 20
369.0
 30
0.0
 41
1.6
 42
1.6
 50
90.0
  0
LINE
  5
124
330
11B
100
AcDbEntity
  8
0
 62
4
370
13
100
AcDbLine
 10
11.0
 20
264.0
 30
0.0
 11
11.0
 21
369.0
 31
0.0
  0
MTEXT
  5
125
330
11B
100
AcDbEntity
  8
S-DIM
 62
4
100
AcDbMText
 10
9.3
 20
316.5
 30
0.0
 40
1.8
 71
5
  1
2100
  7
OpenSansCondensed-Light
 50
90.0
  0
POINT
  5
126
330
11B
100
AcDbEntity
  8
Defpoints
100
AcDbPoint
 10
11.0
 20
264.0
 30
0.0
  0
POINT
  5
127
330
11B
100
AcDbEntity
  8
Defpoints
100
AcDbPoint
 10
96.0
 20
264.0
 30
0.0
  0
POINT
  5
128
330
11B
100
AcDbEntity
  8
Defpoints
100
AcDbPoint
 10
96.0
 20
369.0
 30
0.0
  0
ENDBLK
  5
11D
330
11B
100
AcDbEntity
  8
0
100
AcDbBlockEnd
  0
BLOCK
  5
12B
330
12A
100
AcDbEntity
  8
0
100
AcDbBlockBegin
  2
*D3
 70
1
 10
0.0
 20
0.0
 30
0.0
  3
*D3
  1

  0
LINE
  5
12D
330
12A
100
AcDbEntity
  8
0
 62
4
370
13
100
AcDbLine
 10
202.0
 20
369.0
 30
0.0
 11
237.2
 21
369.0
 31
0.0
  0
LINE
  5
12E
330
12A
100
AcDbEntity
  8
0
 62
4
370
13
100
AcDbLine
 10
202.0
 20
424.0
 30
0.0
 11
237.2
 21
424.0
 31
0.0
  0
INSERT
  5
12F
330
12A
100
AcDbEntity
  8
S-DIM
 62
4
100
AcDbBlockReference
  2
_ARCHTICK
 10
236.0
 20
369.0
 30
0.0
 41
1.6
 42
1.6
 50
270.0
  0
INSERT
  5
131
330
12A
100
AcDbEntity
  8
S-DIM
 62
4
100
AcDbBlockReference
  2
_ARCHTICK
 10
236.0
 20
424.0
 30
0.0
 41
1.6
 42
1.6
 50
90.0
  0
LINE
  5
133
330
12A
100
AcDbEntity
  8
0
 62
4
370
13
100
AcDbLine
 10
236.0
 20
369.0
 30
0.0
 11
236.0
 21
424.0
 31
0.0
  0
MTEXT
  5
134
330
12A
100
AcDbEntity
  8
S-DIM
 62
4
100
AcDbMText
 10
234.3
 20
396.5
 30
0.0
 40
1.8
 71
5
  1
1100
  7
OpenSansCondensed-Light
 50
90.0
  0
POINT
  5
135
330
12A
100
AcDbEntity
  8
Defpoints
100
AcDbPoint
 10
236.0
 20
369.0
 30
0.0
  0
POINT
  5
136
330
12A
100
AcDbEntity
  8
Defpoints
100
AcDbPoint
 10
201.0
 20
369.0
 30
0.0
  0
POINT
  5
137
330
12A
100
AcDbEntity
  8
Defpoints
100
AcDbPoint
 10
201.0
 20
424.0
 30
0.0
  0
ENDBLK
  5
12C
330
12A
100
AcDbEntity
  8
0
100
AcDbBlockEnd
  0
BLOCK
  5
13A
330
139
100
AcDbEntity
  8
0
100
AcDbBlockBegin
  2
*D4
 70
1
 10
0.0
 20
0.0
 30
0.0
  3
*D4
  1

  0
LINE
  5
13C
330
139
100
AcDbEntity
  8
0
 62
4
370
13
100
AcDbLine
 10
81.25
 20
263.0
 30
0.0
 11
81.25
 21
187.8
 31
0.0
  0
LINE
  5
13D
330
139
100
AcDbEntity
  8
0
 62
4
370
13
100
AcDbLine
 10
96.0
 20
263.0
 30
0.0
 11
96.0
 21
187.8
 31
0.0
  0
INSERT
  5
13E
330
139
100
AcDbEntity
  8
S-DIM
 62
4
100
AcDbBlockReference
  2
_ARCHTICK
 10
81.25
 20
189.0
 30
0.0
 41
1.6
 42
1.6
 50
180.0
  0
INSERT
  5
140
330
139
100
AcDbEntity
  8
S-DIM
 62
4
100
AcDbBlockReference
  2
_ARCHTICK
 10
96.0
 20
189.0
 30
0.0
 41
1.6
 42
1.6
  0
LINE
  5
142
330
139
100
AcDbEntity
  8
0
 62
4
370
13
100
AcDbLine
 10
81.25
 20
189.0
 30
0.0
 11
96.0
 21
189.0
 31
0.0
  0
MTEXT
  5
143
330
139
100
AcDbEntity
  8
S-DIM
 62
4
100
AcDbMText
 10
88.625
 20
190.7
 30
0.0
 40
1.8
 71
5
  1
295
  7
OpenSansCondensed-Light
  0
POINT
  5
144
330
139
100
AcDbEntity
  8
Defpoints
100
AcDbPoint
 10
81.25
 20
189.0
 30
0.0
  0
POINT
  5
145
330
139
100
AcDbEntity
  8
Defpoints
100
AcDbPoint
 10
81.25
 20
264.0
 30
0.0
  0
POINT
  5
146
330
139
100
AcDbEntity
  8
Defpoints
100
AcDbPoint
 10
96.0
 20
264.0
 30
0.0
  0
ENDBLK
  5
13B
330
139
100
AcDbEntity
  8
0
100
AcDbBlockEnd
  0
BLOCK
  5
18A
330
189
100
AcDbEntity
  8
0
100
AcDbBlockBegin
  2
*D5
 70
1
 10
0.0
 20
0.0
 30
0.0
  3
*D5
  1

  0
LINE
  5
18C
330
189
100
AcDbEntity
  8
0
 62
4
370
13
100
AcDbLine
 10
250.0
 20
299.0
 30
0.0
 11
250.0
 21
280.8
 31
0.0
  0
LINE
  5
18D
330
189
100
AcDbEntity
  8
0
 62
4
370
13
100
AcDbLine
 10
290.0
 20
299.0
 30
0.0
 11
290.0
 21
280.8
 31
0.0
  0
INSERT
  5
18E
330
189
100
AcDbEntity
  8
S-DIM
 62
4
100
AcDbBlockReference
  2
_ARCHTICK
 10
250.0
 20
282.0
 30
0.0
 41
1.6
 42
1.6
 50
180.0
  0
INSERT
  5
190
330
189
100
AcDbEntity
  8
S-DIM
 62
4
100
AcDbBlockReference
  2
_ARCHTICK
 10
290.0
 20
282.0
 30
0.0
 41
1.6
 42
1.6
  0
LINE
  5
192
330
189
100
AcDbEntity
  8
0
 62
4
370
13
100
AcDbLine
 10
250.0
 20
282.0
 30
0.0
 11
290.0
 21
282.0
 31
0.0
  0
MTEXT
  5
193
330
189
100
AcDbEntity
  8
S-DIM
 62
4
100
AcDbMText
 10
270.0
 20
283.7
 30
0.0
 40
1.8
 71
5
  1
400
  7
OpenSansCondensed-Light
  0
POINT
  5
194
330
189
100
AcDbEntity
  8
Defpoints
100
AcDbPoint
 10
250.0
 20
282.0
 30
0.0
  0
POINT
  5
195
330
189
100
AcDbEntity
  8
Defpoints
100
AcDbPoint
 10
250.0
 20
300.0
 30
0.0
  0
POINT
  5
196
330
189
100
AcDbEntity
  8
Defpoints
100
AcDbPoint
 10
290.0
 20
300.0
 30
0.0
  0
ENDBLK
  5
18B
330
189
100
AcDbEntity
  8
0
100
AcDbBlockEnd
  0
ENDSEC
  0
SECTION
  2
ENTITIES
  0
LWPOLYLINE
  5
B7
330
17
100
AcDbEntity
  8
S-TITLE
100
AcDbPolyline
 90
4
 70
1
 10
0.0
 20
0.0
 10
841.0
 20
0.0
 10
841.0
 20
594.0
 10
0.0
 20
594.0
  0
LWPOLYLINE
  5
B8
330
17
100
AcDbEntity
  8
S-TITLE
100
AcDbPolyline
 90
4
 70
1
 10
10.0
 20
10.0
 10
831.0
 20
10.0
 10
831.0
 20
584.0
 10
10.0
 20
584.0
  0
TEXT
  5
B9
330
17
100
AcDbEntity
  8
S-TITLE
100
AcDbText
 10
12.0
 20
576.5
 30
0.0
 40
5.0
  1
STRUCTURAL CAD - REINFORCEMENT PACKAGE
  7
OpenSans
 11
12.0
 21
576.5
 31
0.0
100
AcDbText
  0
TEXT
  5
BA
330
17
100
AcDbEntity
  8
S-TITLE
100
AcDbText
 10
12.0
 20
569.5
 30
0.0
 40
2.4
  1
R-205   OPENING REINFORCEMENT DETAILS
  7
OpenSans
 11
12.0
 21
569.5
 31
0.0
100
AcDbText
  0
LINE
  5
BB
330
17
100
AcDbEntity
  8
S-TITLE
100
AcDbLine
 10
10.0
 20
566.5
 30
0.0
 11
831.0
 21
566.5
 31
0.0
  0
TEXT
  5
BC
330
17
100
AcDbEntity
  8
S-BLAST
100
AcDbText
 10
829.0
 20
577.0
 30
0.0
 40
2.0
  1
SENTRY POST EXCLUDED FROM THIS PACKAGE
  7
OpenSans
 72
2
 11
829.0
 21
577.0
 31
0.0
100
AcDbText
  0
TEXT
  5
BD
330
17
100
AcDbEntity
  8
S-BLAST
100
AcDbText
 10
829.0
 20
570.5
 30
0.0
 40
1.4
  1
ALL DESIGN ACTIONS ARE MANUAL CALCULATION - NOT DIRECT STAAD OUTPUT
  7
OpenSans
 72
2
 11
829.0
 21
570.5
 31
0.0
100
AcDbText
  0
TEXT
  5
BE
330
17
100
AcDbEntity
  8
S-BLAST
100
AcDbText
 10
12.0
 20
561.5
 30
0.0
 40
1.4
  1
OPEN ITEMS ON THIS SHEET:  VENDOR DATA NOT AVAILABLE
  7
OpenSans
 11
12.0
 21
561.5
 31
0.0
100
AcDbText
  0
LWPOLYLINE
  5
BF
330
17
100
AcDbEntity
  8
S-CONCRETE
100
AcDbPolyline
 90
4
 70
1
 10
26.0
 20
234.0
 10
226.0
 20
234.0
 10
226.0
 20
434.0
 10
26.0
 20
434.0
  0
LWPOLYLINE
  5
C0
330
17
100
AcDbEntity
  8
S-CONCRETE
100
AcDbPolyline
 90
4
 70
1
 10
96.0
 20
264.0
 10
156.0
 20
264.0
 10
156.0
 20
369.0
 10
96.0
 20
369.0
  0
HATCH
  5
C1
330
17
100
AcDbEntity
  8
S-HATCH
 62
7
100
AcDbHatch
 10
0.0
 20
0.0
 30
0.0
210
0.0
220
0.0
230
1.0
  2
ANSI31
 70
0
 71
0
 91
2
 92
3
 72
0
 73
1
 93
4
 10
26.0
 20
234.0
 10
226.0
 20
234.0
 10
226.0
 20
434.0
 10
26.0
 20
434.0
 97
0
 92
18
 72
0
 73
1
 93
4
 10
96.0
 20
264.0
 10
156.0
 20
264.0
 10
156.0
 20
369.0
 10
96.0
 20
369.0
 97
0
 75
1
 76
1
 52
0.0
 41
1.6
 77
0
 78
1
 53
45.0
 43
0.0
 44
0.0
 45
-3.5921024485
 46
3.5921024485
 79
0
 98
0
  0
LINE
  5
C2
330
17
100
AcDbEntity
  8
S-REBAR-SEC
100
AcDbLine
 10
92.5
 20
238.0
 30
0.0
 11
92.5
 21
409.0
 31
0.0
  0
LINE
  5
C3
330
17
100
AcDbEntity
  8
S-REBAR-SEC
100
AcDbLine
 10
159.5
 20
238.0
 30
0.0
 11
159.5
 21
409.0
 31
0.0
  0
LINE
  5
C4
330
17
100
AcDbEntity
  8
S-REBAR-SEC
100
AcDbLine
 10
88.75
 20
238.0
 30
0.0
 11
88.75
 21
409.0
 31
0.0
  0
LINE
  5
C5
330
17
100
AcDbEntity
  8
S-REBAR-SEC
100
AcDbLine
 10
163.25
 20
238.0
 30
0.0
 11
163.25
 21
409.0
 31
0.0
  0
LINE
  5
C6
330
17
100
AcDbEntity
  8
S-REBAR-SEC
100
AcDbLine
 10
85.0
 20
238.0
 30
0.0
 11
85.0
 21
409.0
 31
0.0
  0
LINE
  5
C7
330
17
100
AcDbEntity
  8
S-REBAR-SEC
100
AcDbLine
 10
167.0
 20
238.0
 30
0.0
 11
167.0
 21
409.0
 31
0.0
  0
LINE
  5
C8
330
17
100
AcDbEntity
  8
S-REBAR-SEC
100
AcDbLine
 10
81.25
 20
238.0
 30
0.0
 11
81.25
 21
409.0
 31
0.0
  0
LINE
  5
C9
330
17
100
AcDbEntity
  8
S-REBAR-SEC
100
AcDbLine
 10
170.75
 20
238.0
 30
0.0
 11
170.75
 21
409.0
 31
0.0
  0
LINE
  5
CA
330
17
100
AcDbEntity
  8
S-REBAR-STIRRUP
100
AcDbLine
 10
78.0
 20
241.5
 30
0.0
 11
94.0
 21
241.5
 31
0.0
  0
LINE
  5
CB
330
17
100
AcDbEntity
  8
S-REBAR-STIRRUP
100
AcDbLine
 10
158.0
 20
241.5
 30
0.0
 11
174.0
 21
241.5
 31
0.0
  0
LINE
  5
CC
330
17
100
AcDbEntity
  8
S-REBAR-STIRRUP
100
AcDbLine
 10
78.0
 20
249.0
 30
0.0
 11
94.0
 21
249.0
 31
0.0
  0
LINE
  5
CD
330
17
100
AcDbEntity
  8
S-REBAR-STIRRUP
100
AcDbLine
 10
158.0
 20
249.0
 30
0.0
 11
174.0
 21
249.0
 31
0.0
  0
LINE
  5
CE
330
17
100
AcDbEntity
  8
S-REBAR-STIRRUP
100
AcDbLine
 10
78.0
 20
256.5
 30
0.0
 11
94.0
 21
256.5
 31
0.0
  0
LINE
  5
CF
330
17
100
AcDbEntity
  8
S-REBAR-STIRRUP
100
AcDbLine
 10
158.0
 20
256.5
 30
0.0
 11
174.0
 21
256.5
 31
0.0
  0
LINE
  5
D0
330
17
100
AcDbEntity
  8
S-REBAR-STIRRUP
100
AcDbLine
 10
78.0
 20
264.0
 30
0.0
 11
94.0
 21
264.0
 31
0.0
  0
LINE
  5
D1
330
17
100
AcDbEntity
  8
S-REBAR-STIRRUP
100
AcDbLine
 10
158.0
 20
264.0
 30
0.0
 11
174.0
 21
264.0
 31
0.0
  0
LINE
  5
D2
330
17
100
AcDbEntity
  8
S-REBAR-STIRRUP
100
AcDbLine
 10
78.0
 20
271.5
 30
0.0
 11
94.0
 21
271.5
 31
0.0
  0
LINE
  5
D3
330
17
100
AcDbEntity
  8
S-REBAR-STIRRUP
100
AcDbLine
 10
158.0
 20
271.5
 30
0.0
 11
174.0
 21
271.5
 31
0.0
  0
LINE
  5
D4
330
17
100
AcDbEntity
  8
S-REBAR-STIRRUP
100
AcDbLine
 10
78.0
 20
279.0
 30
0.0
 11
94.0
 21
279.0
 31
0.0
  0
LINE
  5
D5
330
17
100
AcDbEntity
  8
S-REBAR-STIRRUP
100
AcDbLine
 10
158.0
 20
279.0
 30
0.0
 11
174.0
 21
279.0
 31
0.0
  0
LINE
  5
D6
330
17
100
AcDbEntity
  8
S-REBAR-STIRRUP
100
AcDbLine
 10
78.0
 20
286.5
 30
0.0
 11
94.0
 21
286.5
 31
0.0
  0
LINE
  5
D7
330
17
100
AcDbEntity
  8
S-REBAR-STIRRUP
100
AcDbLine
 10
158.0
 20
286.5
 30
0.0
 11
174.0
 21
286.5
 31
0.0
  0
LINE
  5
D8
330
17
100
AcDbEntity
  8
S-REBAR-STIRRUP
100
AcDbLine
 10
78.0
 20
294.0
 30
0.0
 11
94.0
 21
294.0
 31
0.0
  0
LINE
  5
D9
330
17
100
AcDbEntity
  8
S-REBAR-STIRRUP
100
AcDbLine
 10
158.0
 20
294.0
 30
0.0
 11
174.0
 21
294.0
 31
0.0
  0
LINE
  5
DA
330
17
100
AcDbEntity
  8
S-REBAR-STIRRUP
100
AcDbLine
 10
78.0
 20
301.5
 30
0.0
 11
94.0
 21
301.5
 31
0.0
  0
LINE
  5
DB
330
17
100
AcDbEntity
  8
S-REBAR-STIRRUP
100
AcDbLine
 10
158.0
 20
301.5
 30
0.0
 11
174.0
 21
301.5
 31
0.0
  0
LINE
  5
DC
330
17
100
AcDbEntity
  8
S-REBAR-STIRRUP
100
AcDbLine
 10
78.0
 20
309.0
 30
0.0
 11
94.0
 21
309.0
 31
0.0
  0
LINE
  5
DD
330
17
100
AcDbEntity
  8
S-REBAR-STIRRUP
100
AcDbLine
 10
158.0
 20
309.0
 30
0.0
 11
174.0
 21
309.0
 31
0.0
  0
LINE
  5
DE
330
17
100
AcDbEntity
  8
S-REBAR-STIRRUP
100
AcDbLine
 10
78.0
 20
316.5
 30
0.0
 11
94.0
 21
316.5
 31
0.0
  0
LINE
  5
DF
330
17
100
AcDbEntity
  8
S-REBAR-STIRRUP
100
AcDbLine
 10
158.0
 20
316.5
 30
0.0
 11
174.0
 21
316.5
 31
0.0
  0
LINE
  5
E0
330
17
100
AcDbEntity
  8
S-REBAR-STIRRUP
100
AcDbLine
 10
78.0
 20
324.0
 30
0.0
 11
94.0
 21
324.0
 31
0.0
  0
LINE
  5
E1
330
17
100
AcDbEntity
  8
S-REBAR-STIRRUP
100
AcDbLine
 10
158.0
 20
324.0
 30
0.0
 11
174.0
 21
324.0
 31
0.0
  0
LINE
  5
E2
330
17
100
AcDbEntity
  8
S-REBAR-STIRRUP
100
AcDbLine
 10
78.0
 20
331.5
 30
0.0
 11
94.0
 21
331.5
 31
0.0
  0
LINE
  5
E3
330
17
100
AcDbEntity
  8
S-REBAR-STIRRUP
100
AcDbLine
 10
158.0
 20
331.5
 30
0.0
 11
174.0
 21
331.5
 31
0.0
  0
LINE
  5
E4
330
17
100
AcDbEntity
  8
S-REBAR-STIRRUP
100
AcDbLine
 10
78.0
 20
339.0
 30
0.0
 11
94.0
 21
339.0
 31
0.0
  0
LINE
  5
E5
330
17
100
AcDbEntity
  8
S-REBAR-STIRRUP
100
AcDbLine
 10
158.0
 20
339.0
 30
0.0
 11
174.0
 21
339.0
 31
0.0
  0
LINE
  5
E6
330
17
100
AcDbEntity
  8
S-REBAR-STIRRUP
100
AcDbLine
 10
78.0
 20
346.5
 30
0.0
 11
94.0
 21
346.5
 31
0.0
  0
LINE
  5
E7
330
17
100
AcDbEntity
  8
S-REBAR-STIRRUP
100
AcDbLine
 10
158.0
 20
346.5
 30
0.0
 11
174.0
 21
346.5
 31
0.0
  0
LINE
  5
E8
330
17
100
AcDbEntity
  8
S-REBAR-STIRRUP
100
AcDbLine
 10
78.0
 20
354.0
 30
0.0
 11
94.0
 21
354.0
 31
0.0
  0
LINE
  5
E9
330
17
100
AcDbEntity
  8
S-REBAR-STIRRUP
100
AcDbLine
 10
158.0
 20
354.0
 30
0.0
 11
174.0
 21
354.0
 31
0.0
  0
LINE
  5
EA
330
17
100
AcDbEntity
  8
S-REBAR-STIRRUP
100
AcDbLine
 10
78.0
 20
361.5
 30
0.0
 11
94.0
 21
361.5
 31
0.0
  0
LINE
  5
EB
330
17
100
AcDbEntity
  8
S-REBAR-STIRRUP
100
AcDbLine
 10
158.0
 20
361.5
 30
0.0
 11
174.0
 21
361.5
 31
0.0
  0
LINE
  5
EC
330
17
100
AcDbEntity
  8
S-REBAR-STIRRUP
100
AcDbLine
 10
78.0
 20
369.0
 30
0.0
 11
94.0
 21
369.0
 31
0.0
  0
LINE
  5
ED
330
17
100
AcDbEntity
  8
S-REBAR-STIRRUP
100
AcDbLine
 10
158.0
 20
369.0
 30
0.0
 11
174.0
 21
369.0
 31
0.0
  0
LINE
  5
EE
330
17
100
AcDbEntity
  8
S-REBAR-STIRRUP
100
AcDbLine
 10
78.0
 20
376.5
 30
0.0
 11
94.0
 21
376.5
 31
0.0
  0
LINE
  5
EF
330
17
100
AcDbEntity
  8
S-REBAR-STIRRUP
100
AcDbLine
 10
158.0
 20
376.5
 30
0.0
 11
174.0
 21
376.5
 31
0.0
  0
LINE
  5
F0
330
17
100
AcDbEntity
  8
S-REBAR-STIRRUP
100
AcDbLine
 10
78.0
 20
384.0
 30
0.0
 11
94.0
 21
384.0
 31
0.0
  0
LINE
  5
F1
330
17
100
AcDbEntity
  8
S-REBAR-STIRRUP
100
AcDbLine
 10
158.0
 20
384.0
 30
0.0
 11
174.0
 21
384.0
 31
0.0
  0
LINE
  5
F2
330
17
100
AcDbEntity
  8
S-REBAR-STIRRUP
100
AcDbLine
 10
78.0
 20
391.5
 30
0.0
 11
94.0
 21
391.5
 31
0.0
  0
LINE
  5
F3
330
17
100
AcDbEntity
  8
S-REBAR-STIRRUP
100
AcDbLine
 10
158.0
 20
391.5
 30
0.0
 11
174.0
 21
391.5
 31
0.0
  0
LINE
  5
F4
330
17
100
AcDbEntity
  8
S-REBAR-STIRRUP
100
AcDbLine
 10
78.0
 20
399.0
 30
0.0
 11
94.0
 21
399.0
 31
0.0
  0
LINE
  5
F5
330
17
100
AcDbEntity
  8
S-REBAR-STIRRUP
100
AcDbLine
 10
158.0
 20
399.0
 30
0.0
 11
174.0
 21
399.0
 31
0.0
  0
LINE
  5
F6
330
17
100
AcDbEntity
  8
S-REBAR-STIRRUP
100
AcDbLine
 10
78.0
 20
406.5
 30
0.0
 11
94.0
 21
406.5
 31
0.0
  0
LINE
  5
F7
330
17
100
AcDbEntity
  8
S-REBAR-STIRRUP
100
AcDbLine
 10
158.0
 20
406.5
 30
0.0
 11
174.0
 21
406.5
 31
0.0
  0
LWPOLYLINE
  5
F8
330
17
100
AcDbEntity
  8
S-REBAR-SEC
100
AcDbPolyline
 90
4
 70
1
 10
66.0
 20
369.0
 10
186.0
 20
369.0
 10
186.0
 20
424.0
 10
66.0
 20
424.0
  0
LINE
  5
F9
330
17
100
AcDbEntity
  8
S-REBAR-MAIN
100
AcDbLine
 10
68.0
 20
374.0
 30
0.0
 11
184.0
 21
374.0
 31
0.0
  0
LINE
  5
FA
330
17
100
AcDbEntity
  8
S-REBAR-MAIN
100
AcDbLine
 10
68.0
 20
419.0
 30
0.0
 11
184.0
 21
419.0
 31
0.0
  0
LINE
  5
FB
330
17
100
AcDbEntity
  8
S-REBAR-STIRRUP
100
AcDbLine
 10
71.0
 20
373.0
 30
0.0
 11
71.0
 21
420.0
 31
0.0
  0
LINE
  5
FC
330
17
100
AcDbEntity
  8
S-REBAR-STIRRUP
100
AcDbLine
 10
78.5
 20
373.0
 30
0.0
 11
78.5
 21
420.0
 31
0.0
  0
LINE
  5
FD
330
17
100
AcDbEntity
  8
S-REBAR-STIRRUP
100
AcDbLine
 10
86.0
 20
373.0
 30
0.0
 11
86.0
 21
420.0
 31
0.0
  0
LINE
  5
FE
330
17
100
AcDbEntity
  8
S-REBAR-STIRRUP
100
AcDbLine
 10
93.5
 20
373.0
 30
0.0
 11
93.5
 21
420.0
 31
0.0
  0
LINE
  5
FF
330
17
100
AcDbEntity
  8
S-REBAR-STIRRUP
100
AcDbLine
 10
101.0
 20
373.0
 30
0.0
 11
101.0
 21
420.0
 31
0.0
  0
LINE
  5
100
330
17
100
AcDbEntity
  8
S-REBAR-STIRRUP
100
AcDbLine
 10
108.5
 20
373.0
 30
0.0
 11
108.5
 21
420.0
 31
0.0
  0
LINE
  5
101
330
17
100
AcDbEntity
  8
S-REBAR-STIRRUP
100
AcDbLine
 10
116.0
 20
373.0
 30
0.0
 11
116.0
 21
420.0
 31
0.0
  0
LINE
  5
102
330
17
100
AcDbEntity
  8
S-REBAR-STIRRUP
100
AcDbLine
 10
123.5
 20
373.0
 30
0.0
 11
123.5
 21
420.0
 31
0.0
  0
LINE
  5
103
330
17
100
AcDbEntity
  8
S-REBAR-STIRRUP
100
AcDbLine
 10
131.0
 20
373.0
 30
0.0
 11
131.0
 21
420.0
 31
0.0
  0
LINE
  5
104
330
17
100
AcDbEntity
  8
S-REBAR-STIRRUP
100
AcDbLine
 10
138.5
 20
373.0
 30
0.0
 11
138.5
 21
420.0
 31
0.0
  0
LINE
  5
105
330
17
100
AcDbEntity
  8
S-REBAR-STIRRUP
100
AcDbLine
 10
146.0
 20
373.0
 30
0.0
 11
146.0
 21
420.0
 31
0.0
  0
LINE
  5
106
330
17
100
AcDbEntity
  8
S-REBAR-STIRRUP
100
AcDbLine
 10
153.5
 20
373.0
 30
0.0
 11
153.5
 21
420.0
 31
0.0
  0
LINE
  5
107
330
17
100
AcDbEntity
  8
S-REBAR-STIRRUP
100
AcDbLine
 10
161.0
 20
373.0
 30
0.0
 11
161.0
 21
420.0
 31
0.0
  0
LINE
  5
108
330
17
100
AcDbEntity
  8
S-REBAR-STIRRUP
100
AcDbLine
 10
168.5
 20
373.0
 30
0.0
 11
168.5
 21
420.0
 31
0.0
  0
LINE
  5
109
330
17
100
AcDbEntity
  8
S-REBAR-STIRRUP
100
AcDbLine
 10
176.0
 20
373.0
 30
0.0
 11
176.0
 21
420.0
 31
0.0
  0
LINE
  5
10A
330
17
100
AcDbEntity
  8
S-REBAR-STIRRUP
100
AcDbLine
 10
183.5
 20
373.0
 30
0.0
 11
183.5
 21
420.0
 31
0.0
  0
DIMENSION
  5
10B
330
17
100
AcDbEntity
  8
S-DIM
100
AcDbDimension
280
0
  2
*D1
  3
SC-DIM
 10
96.0
 20
219.0
 30
0.0
 11
126.0
 21
220.7
 31
0.0
 70
32
 71
5
  1
<>
100
AcDbAlignedDimension
 13
96.0
 23
264.0
 33
0.0
 14
156.0
 24
264.0
 34
0.0
 50
0.0
100
AcDbRotatedDimension
1001
ACAD
1000
DSTYLE
1002
{
1070
144
1040
20.0
1002
}
  0
DIMENSION
  5
11A
330
17
100
AcDbEntity
  8
S-DIM
100
AcDbDimension
280
0
  2
*D2
  3
SC-DIM
 10
11.0
 20
264.0
 30
0.0
 11
9.3
 21
316.5
 31
0.0
 70
32
 71
5
  1
<>
100
AcDbAlignedDimension
 13
96.0
 23
264.0
 33
0.0
 14
96.0
 24
369.0
 34
0.0
 50
90.0
100
AcDbRotatedDimension
1001
ACAD
1000
DSTYLE
1002
{
1070
144
1040
20.0
1002
}
  0
DIMENSION
  5
129
330
17
100
AcDbEntity
  8
S-DIM
100
AcDbDimension
280
0
  2
*D3
  3
SC-DIM
 10
236.0
 20
369.0
 30
0.0
 11
234.3
 21
396.5
 31
0.0
 70
32
 71
5
  1
<>
100
AcDbAlignedDimension
 13
201.0
 23
369.0
 33
0.0
 14
201.0
 24
424.0
 34
0.0
 50
90.0
100
AcDbRotatedDimension
1001
ACAD
1000
DSTYLE
1002
{
1070
144
1040
20.0
1002
}
  0
DIMENSION
  5
138
330
17
100
AcDbEntity
  8
S-DIM
100
AcDbDimension
280
0
  2
*D4
  3
SC-DIM
 10
81.25
 20
189.0
 30
0.0
 11
88.625
 21
190.7
 31
0.0
 70
32
 71
5
  1
<>
100
AcDbAlignedDimension
 13
81.25
 23
264.0
 33
0.0
 14
96.0
 24
264.0
 34
0.0
 50
0.0
100
AcDbRotatedDimension
1001
ACAD
1000
DSTYLE
1002
{
1070
144
1040
20.0
1002
}
  0
INSERT
  5
147
330
17
100
AcDbEntity
  8
S-CALLOUT
100
AcDbBlockReference
  2
BARMARK
 10
36.0
 20
330.0
 30
0.0
  0
TEXT
  5
149
330
17
100
AcDbEntity
  8
S-CALLOUT
100
AcDbText
 10
36.0
 20
330.0
 30
0.0
 40
2.0
  1
W13
  7
OpenSans
 72
1
 11
36.0
 21
330.0
 31
0.0
100
AcDbText
 73
2
  0
LEADER
  5
14A
330
17
100
AcDbEntity
  8
S-CALLOUT
100
AcDbLeader
  3
SC-DIM
 73
3
 76
2
 10
87.0
 20
334.0
 30
0.0
 10
36.0
 20
330.0
 30
0.0
  0
INSERT
  5
14B
330
17
100
AcDbEntity
  8
S-CALLOUT
100
AcDbBlockReference
  2
BARMARK
 10
36.0
 20
290.0
 30
0.0
  0
TEXT
  5
14D
330
17
100
AcDbEntity
  8
S-CALLOUT
100
AcDbText
 10
36.0
 20
290.0
 30
0.0
 40
2.0
  1
W14
  7
OpenSans
 72
1
 11
36.0
 21
290.0
 31
0.0
100
AcDbText
 73
2
  0
LEADER
  5
14E
330
17
100
AcDbEntity
  8
S-CALLOUT
100
AcDbLeader
  3
SC-DIM
 73
3
 76
2
 10
86.0
 20
284.0
 30
0.0
 10
36.0
 20
290.0
 30
0.0
  0
INSERT
  5
14F
330
17
100
AcDbEntity
  8
S-CALLOUT
100
AcDbBlockReference
  2
BARMARK
 10
208.0
 20
424.0
 30
0.0
  0
TEXT
  5
151
330
17
100
AcDbEntity
  8
S-CALLOUT
100
AcDbText
 10
208.0
 20
424.0
 30
0.0
 40
2.0
  1
B01
  7
OpenSans
 72
1
 11
208.0
 21
424.0
 31
0.0
100
AcDbText
 73
2
  0
LEADER
  5
152
330
17
100
AcDbEntity
  8
S-CALLOUT
100
AcDbLeader
  3
SC-DIM
 73
3
 76
2
 10
166.0
 20
419.0
 30
0.0
 10
208.0
 20
424.0
 30
0.0
  0
INSERT
  5
153
330
17
100
AcDbEntity
  8
S-CALLOUT
100
AcDbBlockReference
  2
BARMARK
 10
208.0
 20
400.0
 30
0.0
  0
TEXT
  5
155
330
17
100
AcDbEntity
  8
S-CALLOUT
100
AcDbText
 10
208.0
 20
400.0
 30
0.0
 40
2.0
  1
B02
  7
OpenSans
 72
1
 11
208.0
 21
400.0
 31
0.0
100
AcDbText
 73
2
  0
LEADER
  5
156
330
17
100
AcDbEntity
  8
S-CALLOUT
100
AcDbLeader
  3
SC-DIM
 73
3
 76
2
 10
166.0
 20
374.0
 30
0.0
 10
208.0
 20
400.0
 30
0.0
  0
INSERT
  5
157
330
17
100
AcDbEntity
  8
S-CALLOUT
100
AcDbBlockReference
  2
BARMARK
 10
208.0
 20
412.0
 30
0.0
  0
TEXT
  5
159
330
17
100
AcDbEntity
  8
S-CALLOUT
100
AcDbText
 10
208.0
 20
412.0
 30
0.0
 40
2.0
  1
B03
  7
OpenSans
 72
1
 11
208.0
 21
412.0
 31
0.0
100
AcDbText
 73
2
  0
LEADER
  5
15A
330
17
100
AcDbEntity
  8
S-CALLOUT
100
AcDbLeader
  3
SC-DIM
 73
3
 76
2
 10
171.0
 20
396.5
 30
0.0
 10
208.0
 20
412.0
 30
0.0
  0
TEXT
  5
15B
330
17
100
AcDbEntity
  8
S-TITLE
100
AcDbText
 10
24.0
 20
452.0
 30
0.0
 40
3.5
  1
V1   BLAST DOOR OPENING 1200 x 2100 IN W6 / W7 - ELEVATION
  7
OpenSans
 11
24.0
 21
452.0
 31
0.0
100
AcDbText
  0
LINE
  5
15C
330
17
100
AcDbEntity
  8
S-TITLE
100
AcDbLine
 10
24.0
 20
450.2
 30
0.0
 11
181.8235097119893
 21
450.2
 31
0.0
  0
TEXT
  5
15D
330
17
100
AcDbEntity
  8
S-TEXT
100
AcDbText
 10
24.0
 20
444.8
 30
0.0
 40
2.0
  1
SCALE 1:20
  7
OpenSans
 11
24.0
 21
444.8
 31
0.0
100
AcDbText
  0
LWPOLYLINE
  5
15E
330
17
100
AcDbEntity
  8
S-CONCRETE
100
AcDbPolyline
 90
4
 70
1
 10
250.0
 20
300.0
 10
290.0
 20
300.0
 10
290.0
 20
400.0
 10
250.0
 20
400.0
  0
HATCH
  5
15F
330
17
100
AcDbEntity
  8
S-HATCH
 62
7
100
AcDbHatch
 10
0.0
 20
0.0
 30
0.0
210
0.0
220
0.0
230
1.0
  2
ANSI31
 70
0
 71
0
 91
1
 92
3
 72
0
 73
1
 93
4
 10
250.0
 20
300.0
 10
290.0
 20
300.0
 10
290.0
 20
400.0
 10
250.0
 20
400.0
 97
0
 75
1
 76
1
 52
0.0
 41
1.6
 77
0
 78
1
 53
45.0
 43
0.0
 44
0.0
 45
-3.5921024485
 46
3.5921024485
 79
0
 98
0
  0
CIRCLE
  5
160
330
17
100
AcDbEntity
  8
S-REBAR-SEC
100
AcDbCircle
 10
256.0
 20
307.0
 30
0.0
 40
1.2
  0
HATCH
  5
161
330
17
100
AcDbEntity
  8
S-REBAR-SEC
 62
4
100
AcDbHatch
 10
0.0
 20
0.0
 30
0.0
210
0.0
220
0.0
230
1.0
  2
SOLID
 70
1
 71
0
 91
1
 92
3
 72
0
 73
1
 93
16
 10
257.2
 20
307.0
 10
257.10865543901355
 20
307.4592201188381
 10
256.84852813742384
 20
307.84852813742384
 10
256.4592201188381
 20
308.10865543901355
 10
256.0
 20
308.2
 10
255.54077988116188
 20
308.10865543901355
 10
255.15147186257613
 20
307.84852813742384
 10
254.89134456098645
 20
307.4592201188381
 10
254.8
 20
307.0
 10
254.89134456098645
 20
306.5407798811619
 10
255.15147186257613
 20
306.15147186257616
 10
255.54077988116188
 20
305.89134456098645
 10
256.0
 20
305.8
 10
256.4592201188381
 20
305.89134456098645
 10
256.84852813742384
 20
306.15147186257616
 10
257.10865543901355
 20
306.5407798811619
 97
0
 75
0
 76
1
 98
0
  0
CIRCLE
  5
162
330
17
100
AcDbEntity
  8
S-REBAR-SEC
100
AcDbCircle
 10
256.0
 20
315.0
 30
0.0
 40
1.2
  0
HATCH
  5
163
330
17
100
AcDbEntity
  8
S-REBAR-SEC
 62
4
100
AcDbHatch
 10
0.0
 20
0.0
 30
0.0
210
0.0
220
0.0
230
1.0
  2
SOLID
 70
1
 71
0
 91
1
 92
3
 72
0
 73
1
 93
16
 10
257.2
 20
315.0
 10
257.10865543901355
 20
315.4592201188381
 10
256.84852813742384
 20
315.84852813742384
 10
256.4592201188381
 20
316.10865543901355
 10
256.0
 20
316.2
 10
255.54077988116188
 20
316.10865543901355
 10
255.15147186257613
 20
315.84852813742384
 10
254.89134456098645
 20
315.4592201188381
 10
254.8
 20
315.0
 10
254.89134456098645
 20
314.5407798811619
 10
255.15147186257613
 20
314.15147186257616
 10
255.54077988116188
 20
313.89134456098645
 10
256.0
 20
313.8
 10
256.4592201188381
 20
313.89134456098645
 10
256.84852813742384
 20
314.15147186257616
 10
257.10865543901355
 20
314.5407798811619
 97
0
 75
0
 76
1
 98
0
  0
CIRCLE
  5
164
330
17
100
AcDbEntity
  8
S-REBAR-SEC
100
AcDbCircle
 10
256.0
 20
323.0
 30
0.0
 40
1.2
  0
HATCH
  5
165
330
17
100
AcDbEntity
  8
S-REBAR-SEC
 62
4
100
AcDbHatch
 10
0.0
 20
0.0
 30
0.0
210
0.0
220
0.0
230
1.0
  2
SOLID
 70
1
 71
0
 91
1
 92
3
 72
0
 73
1
 93
16
 10
257.2
 20
323.0
 10
257.10865543901355
 20
323.4592201188381
 10
256.84852813742384
 20
323.84852813742384
 10
256.4592201188381
 20
324.10865543901355
 10
256.0
 20
324.2
 10
255.54077988116188
 20
324.10865543901355
 10
255.15147186257613
 20
323.84852813742384
 10
254.89134456098645
 20
323.4592201188381
 10
254.8
 20
323.0
 10
254.89134456098645
 20
322.5407798811619
 10
255.15147186257613
 20
322.15147186257616
 10
255.54077988116188
 20
321.89134456098645
 10
256.0
 20
321.8
 10
256.4592201188381
 20
321.89134456098645
 10
256.84852813742384
 20
322.15147186257616
 10
257.10865543901355
 20
322.5407798811619
 97
0
 75
0
 76
1
 98
0
  0
CIRCLE
  5
166
330
17
100
AcDbEntity
  8
S-REBAR-SEC
100
AcDbCircle
 10
256.0
 20
331.0
 30
0.0
 40
1.2
  0
HATCH
  5
167
330
17
100
AcDbEntity
  8
S-REBAR-SEC
 62
4
100
AcDbHatch
 10
0.0
 20
0.0
 30
0.0
210
0.0
220
0.0
230
1.0
  2
SOLID
 70
1
 71
0
 91
1
 92
3
 72
0
 73
1
 93
16
 10
257.2
 20
331.0
 10
257.10865543901355
 20
331.4592201188381
 10
256.84852813742384
 20
331.84852813742384
 10
256.4592201188381
 20
332.10865543901355
 10
256.0
 20
332.2
 10
255.54077988116188
 20
332.10865543901355
 10
255.15147186257613
 20
331.84852813742384
 10
254.89134456098645
 20
331.4592201188381
 10
254.8
 20
331.0
 10
254.89134456098645
 20
330.5407798811619
 10
255.15147186257613
 20
330.15147186257616
 10
255.54077988116188
 20
329.89134456098645
 10
256.0
 20
329.8
 10
256.4592201188381
 20
329.89134456098645
 10
256.84852813742384
 20
330.15147186257616
 10
257.10865543901355
 20
330.5407798811619
 97
0
 75
0
 76
1
 98
0
  0
CIRCLE
  5
168
330
17
100
AcDbEntity
  8
S-REBAR-MAIN
100
AcDbCircle
 10
256.0
 20
350.0
 30
0.0
 40
1.1
  0
HATCH
  5
169
330
17
100
AcDbEntity
  8
S-REBAR-MAIN
 62
1
100
AcDbHatch
 10
0.0
 20
0.0
 30
0.0
210
0.0
220
0.0
230
1.0
  2
SOLID
 70
1
 71
0
 91
1
 92
3
 72
0
 73
1
 93
16
 10
257.1
 20
350.0
 10
257.0162674857624
 20
350.4209517756016
 10
256.7778174593052
 20
350.7778174593052
 10
256.4209517756016
 20
351.0162674857624
 10
256.0
 20
351.1
 10
255.5790482243984
 20
351.0162674857624
 10
255.2221825406948
 20
350.7778174593052
 10
254.98373251423757
 20
350.4209517756016
 10
254.9
 20
350.0
 10
254.98373251423757
 20
349.5790482243984
 10
255.2221825406948
 20
349.2221825406948
 10
255.5790482243984
 20
348.9837325142376
 10
256.0
 20
348.9
 10
256.4209517756016
 20
348.9837325142376
 10
256.7778174593052
 20
349.2221825406948
 10
257.0162674857624
 20
349.5790482243984
 97
0
 75
0
 76
1
 98
0
  0
CIRCLE
  5
16A
330
17
100
AcDbEntity
  8
S-REBAR-MAIN
100
AcDbCircle
 10
256.0
 20
365.0
 30
0.0
 40
1.1
  0
HATCH
  5
16B
330
17
100
AcDbEntity
  8
S-REBAR-MAIN
 62
1
100
AcDbHatch
 10
0.0
 20
0.0
 30
0.0
210
0.0
220
0.0
230
1.0
  2
SOLID
 70
1
 71
0
 91
1
 92
3
 72
0
 73
1
 93
16
 10
257.1
 20
365.0
 10
257.0162674857624
 20
365.4209517756016
 10
256.7778174593052
 20
365.7778174593052
 10
256.4209517756016
 20
366.0162674857624
 10
256.0
 20
366.1
 10
255.5790482243984
 20
366.0162674857624
 10
255.2221825406948
 20
365.7778174593052
 10
254.98373251423757
 20
365.4209517756016
 10
254.9
 20
365.0
 10
254.98373251423757
 20
364.5790482243984
 10
255.2221825406948
 20
364.2221825406948
 10
255.5790482243984
 20
363.9837325142376
 10
256.0
 20
363.9
 10
256.4209517756016
 20
363.9837325142376
 10
256.7778174593052
 20
364.2221825406948
 10
257.0162674857624
 20
364.5790482243984
 97
0
 75
0
 76
1
 98
0
  0
CIRCLE
  5
16C
330
17
100
AcDbEntity
  8
S-REBAR-MAIN
100
AcDbCircle
 10
256.0
 20
380.0
 30
0.0
 40
1.1
  0
HATCH
  5
16D
330
17
100
AcDbEntity
  8
S-REBAR-MAIN
 62
1
100
AcDbHatch
 10
0.0
 20
0.0
 30
0.0
210
0.0
220
0.0
230
1.0
  2
SOLID
 70
1
 71
0
 91
1
 92
3
 72
0
 73
1
 93
16
 10
257.1
 20
380.0
 10
257.0162674857624
 20
380.4209517756016
 10
256.7778174593052
 20
380.7778174593052
 10
256.4209517756016
 20
381.0162674857624
 10
256.0
 20
381.1
 10
255.5790482243984
 20
381.0162674857624
 10
255.2221825406948
 20
380.7778174593052
 10
254.98373251423757
 20
380.4209517756016
 10
254.9
 20
380.0
 10
254.98373251423757
 20
379.5790482243984
 10
255.2221825406948
 20
379.2221825406948
 10
255.5790482243984
 20
378.9837325142376
 10
256.0
 20
378.9
 10
256.4209517756016
 20
378.9837325142376
 10
256.7778174593052
 20
379.2221825406948
 10
257.0162674857624
 20
379.5790482243984
 97
0
 75
0
 76
1
 98
0
  0
CIRCLE
  5
16E
330
17
100
AcDbEntity
  8
S-REBAR-MAIN
100
AcDbCircle
 10
256.0
 20
395.0
 30
0.0
 40
1.1
  0
HATCH
  5
16F
330
17
100
AcDbEntity
  8
S-REBAR-MAIN
 62
1
100
AcDbHatch
 10
0.0
 20
0.0
 30
0.0
210
0.0
220
0.0
230
1.0
  2
SOLID
 70
1
 71
0
 91
1
 92
3
 72
0
 73
1
 93
16
 10
257.1
 20
395.0
 10
257.0162674857624
 20
395.4209517756016
 10
256.7778174593052
 20
395.7778174593052
 10
256.4209517756016
 20
396.0162674857624
 10
256.0
 20
396.1
 10
255.5790482243984
 20
396.0162674857624
 10
255.2221825406948
 20
395.7778174593052
 10
254.98373251423757
 20
395.4209517756016
 10
254.9
 20
395.0
 10
254.98373251423757
 20
394.5790482243984
 10
255.2221825406948
 20
394.2221825406948
 10
255.5790482243984
 20
393.9837325142376
 10
256.0
 20
393.9
 10
256.4209517756016
 20
393.9837325142376
 10
256.7778174593052
 20
394.2221825406948
 10
257.0162674857624
 20
394.5790482243984
 97
0
 75
0
 76
1
 98
0
  0
CIRCLE
  5
170
330
17
100
AcDbEntity
  8
S-REBAR-SEC
100
AcDbCircle
 10
284.0
 20
307.0
 30
0.0
 40
1.2
  0
HATCH
  5
171
330
17
100
AcDbEntity
  8
S-REBAR-SEC
 62
4
100
AcDbHatch
 10
0.0
 20
0.0
 30
0.0
210
0.0
220
0.0
230
1.0
  2
SOLID
 70
1
 71
0
 91
1
 92
3
 72
0
 73
1
 93
16
 10
285.2
 20
307.0
 10
285.10865543901355
 20
307.4592201188381
 10
284.84852813742384
 20
307.84852813742384
 10
284.4592201188381
 20
308.10865543901355
 10
284.0
 20
308.2
 10
283.5407798811619
 20
308.10865543901355
 10
283.15147186257616
 20
307.84852813742384
 10
282.89134456098645
 20
307.4592201188381
 10
282.8
 20
307.0
 10
282.89134456098645
 20
306.5407798811619
 10
283.15147186257616
 20
306.15147186257616
 10
283.5407798811619
 20
305.89134456098645
 10
284.0
 20
305.8
 10
284.4592201188381
 20
305.89134456098645
 10
284.84852813742384
 20
306.15147186257616
 10
285.10865543901355
 20
306.5407798811619
 97
0
 75
0
 76
1
 98
0
  0
CIRCLE
  5
172
330
17
100
AcDbEntity
  8
S-REBAR-SEC
100
AcDbCircle
 10
284.0
 20
315.0
 30
0.0
 40
1.2
  0
HATCH
  5
173
330
17
100
AcDbEntity
  8
S-REBAR-SEC
 62
4
100
AcDbHatch
 10
0.0
 20
0.0
 30
0.0
210
0.0
220
0.0
230
1.0
  2
SOLID
 70
1
 71
0
 91
1
 92
3
 72
0
 73
1
 93
16
 10
285.2
 20
315.0
 10
285.10865543901355
 20
315.4592201188381
 10
284.84852813742384
 20
315.84852813742384
 10
284.4592201188381
 20
316.10865543901355
 10
284.0
 20
316.2
 10
283.5407798811619
 20
316.10865543901355
 10
283.15147186257616
 20
315.84852813742384
 10
282.89134456098645
 20
315.4592201188381
 10
282.8
 20
315.0
 10
282.89134456098645
 20
314.5407798811619
 10
283.15147186257616
 20
314.15147186257616
 10
283.5407798811619
 20
313.89134456098645
 10
284.0
 20
313.8
 10
284.4592201188381
 20
313.89134456098645
 10
284.84852813742384
 20
314.15147186257616
 10
285.10865543901355
 20
314.5407798811619
 97
0
 75
0
 76
1
 98
0
  0
CIRCLE
  5
174
330
17
100
AcDbEntity
  8
S-REBAR-SEC
100
AcDbCircle
 10
284.0
 20
323.0
 30
0.0
 40
1.2
  0
HATCH
  5
175
330
17
100
AcDbEntity
  8
S-REBAR-SEC
 62
4
100
AcDbHatch
 10
0.0
 20
0.0
 30
0.0
210
0.0
220
0.0
230
1.0
  2
SOLID
 70
1
 71
0
 91
1
 92
3
 72
0
 73
1
 93
16
 10
285.2
 20
323.0
 10
285.10865543901355
 20
323.4592201188381
 10
284.84852813742384
 20
323.84852813742384
 10
284.4592201188381
 20
324.10865543901355
 10
284.0
 20
324.2
 10
283.5407798811619
 20
324.10865543901355
 10
283.15147186257616
 20
323.84852813742384
 10
282.89134456098645
 20
323.4592201188381
 10
282.8
 20
323.0
 10
282.89134456098645
 20
322.5407798811619
 10
283.15147186257616
 20
322.15147186257616
 10
283.5407798811619
 20
321.89134456098645
 10
284.0
 20
321.8
 10
284.4592201188381
 20
321.89134456098645
 10
284.84852813742384
 20
322.15147186257616
 10
285.10865543901355
 20
322.5407798811619
 97
0
 75
0
 76
1
 98
0
  0
CIRCLE
  5
176
330
17
100
AcDbEntity
  8
S-REBAR-SEC
100
AcDbCircle
 10
284.0
 20
331.0
 30
0.0
 40
1.2
  0
HATCH
  5
177
330
17
100
AcDbEntity
  8
S-REBAR-SEC
 62
4
100
AcDbHatch
 10
0.0
 20
0.0
 30
0.0
210
0.0
220
0.0
230
1.0
  2
SOLID
 70
1
 71
0
 91
1
 92
3
 72
0
 73
1
 93
16
 10
285.2
 20
331.0
 10
285.10865543901355
 20
331.4592201188381
 10
284.84852813742384
 20
331.84852813742384
 10
284.4592201188381
 20
332.10865543901355
 10
284.0
 20
332.2
 10
283.5407798811619
 20
332.10865543901355
 10
283.15147186257616
 20
331.84852813742384
 10
282.89134456098645
 20
331.4592201188381
 10
282.8
 20
331.0
 10
282.89134456098645
 20
330.5407798811619
 10
283.15147186257616
 20
330.15147186257616
 10
283.5407798811619
 20
329.89134456098645
 10
284.0
 20
329.8
 10
284.4592201188381
 20
329.89134456098645
 10
284.84852813742384
 20
330.15147186257616
 10
285.10865543901355
 20
330.5407798811619
 97
0
 75
0
 76
1
 98
0
  0
CIRCLE
  5
178
330
17
100
AcDbEntity
  8
S-REBAR-MAIN
100
AcDbCircle
 10
284.0
 20
350.0
 30
0.0
 40
1.1
  0
HATCH
  5
179
330
17
100
AcDbEntity
  8
S-REBAR-MAIN
 62
1
100
AcDbHatch
 10
0.0
 20
0.0
 30
0.0
210
0.0
220
0.0
230
1.0
  2
SOLID
 70
1
 71
0
 91
1
 92
3
 72
0
 73
1
 93
16
 10
285.1
 20
350.0
 10
285.0162674857624
 20
350.4209517756016
 10
284.7778174593052
 20
350.7778174593052
 10
284.4209517756016
 20
351.0162674857624
 10
284.0
 20
351.1
 10
283.5790482243984
 20
351.0162674857624
 10
283.2221825406948
 20
350.7778174593052
 10
282.9837325142376
 20
350.4209517756016
 10
282.9
 20
350.0
 10
282.9837325142376
 20
349.5790482243984
 10
283.2221825406948
 20
349.2221825406948
 10
283.5790482243984
 20
348.9837325142376
 10
284.0
 20
348.9
 10
284.4209517756016
 20
348.9837325142376
 10
284.7778174593052
 20
349.2221825406948
 10
285.0162674857624
 20
349.5790482243984
 97
0
 75
0
 76
1
 98
0
  0
CIRCLE
  5
17A
330
17
100
AcDbEntity
  8
S-REBAR-MAIN
100
AcDbCircle
 10
284.0
 20
365.0
 30
0.0
 40
1.1
  0
HATCH
  5
17B
330
17
100
AcDbEntity
  8
S-REBAR-MAIN
 62
1
100
AcDbHatch
 10
0.0
 20
0.0
 30
0.0
210
0.0
220
0.0
230
1.0
  2
SOLID
 70
1
 71
0
 91
1
 92
3
 72
0
 73
1
 93
16
 10
285.1
 20
365.0
 10
285.0162674857624
 20
365.4209517756016
 10
284.7778174593052
 20
365.7778174593052
 10
284.4209517756016
 20
366.0162674857624
 10
284.0
 20
366.1
 10
283.5790482243984
 20
366.0162674857624
 10
283.2221825406948
 20
365.7778174593052
 10
282.9837325142376
 20
365.4209517756016
 10
282.9
 20
365.0
 10
282.9837325142376
 20
364.5790482243984
 10
283.2221825406948
 20
364.2221825406948
 10
283.5790482243984
 20
363.9837325142376
 10
284.0
 20
363.9
 10
284.4209517756016
 20
363.9837325142376
 10
284.7778174593052
 20
364.2221825406948
 10
285.0162674857624
 20
364.5790482243984
 97
0
 75
0
 76
1
 98
0
  0
CIRCLE
  5
17C
330
17
100
AcDbEntity
  8
S-REBAR-MAIN
100
AcDbCircle
 10
284.0
 20
380.0
 30
0.0
 40
1.1
  0
HATCH
  5
17D
330
17
100
AcDbEntity
  8
S-REBAR-MAIN
 62
1
100
AcDbHatch
 10
0.0
 20
0.0
 30
0.0
210
0.0
220
0.0
230
1.0
  2
SOLID
 70
1
 71
0
 91
1
 92
3
 72
0
 73
1
 93
16
 10
285.1
 20
380.0
 10
285.0162674857624
 20
380.4209517756016
 10
284.7778174593052
 20
380.7778174593052
 10
284.4209517756016
 20
381.0162674857624
 10
284.0
 20
381.1
 10
283.5790482243984
 20
381.0162674857624
 10
283.2221825406948
 20
380.7778174593052
 10
282.9837325142376
 20
380.4209517756016
 10
282.9
 20
380.0
 10
282.9837325142376
 20
379.5790482243984
 10
283.2221825406948
 20
379.2221825406948
 10
283.5790482243984
 20
378.9837325142376
 10
284.0
 20
378.9
 10
284.4209517756016
 20
378.9837325142376
 10
284.7778174593052
 20
379.2221825406948
 10
285.0162674857624
 20
379.5790482243984
 97
0
 75
0
 76
1
 98
0
  0
CIRCLE
  5
17E
330
17
100
AcDbEntity
  8
S-REBAR-MAIN
100
AcDbCircle
 10
284.0
 20
395.0
 30
0.0
 40
1.1
  0
HATCH
  5
17F
330
17
100
AcDbEntity
  8
S-REBAR-MAIN
 62
1
100
AcDbHatch
 10
0.0
 20
0.0
 30
0.0
210
0.0
220
0.0
230
1.0
  2
SOLID
 70
1
 71
0
 91
1
 92
3
 72
0
 73
1
 93
16
 10
285.1
 20
395.0
 10
285.0162674857624
 20
395.4209517756016
 10
284.7778174593052
 20
395.7778174593052
 10
284.4209517756016
 20
396.0162674857624
 10
284.0
 20
396.1
 10
283.5790482243984
 20
396.0162674857624
 10
283.2221825406948
 20
395.7778174593052
 10
282.9837325142376
 20
395.4209517756016
 10
282.9
 20
395.0
 10
282.9837325142376
 20
394.5790482243984
 10
283.2221825406948
 20
394.2221825406948
 10
283.5790482243984
 20
393.9837325142376
 10
284.0
 20
393.9
 10
284.4209517756016
 20
393.9837325142376
 10
284.7778174593052
 20
394.2221825406948
 10
285.0162674857624
 20
394.5790482243984
 97
0
 75
0
 76
1
 98
0
  0
LWPOLYLINE
  5
180
330
17
100
AcDbEntity
  8
S-REBAR-STIRRUP
100
AcDbPolyline
 90
4
 70
1
 10
255.0
 20
302.0
 10
285.0
 20
302.0
 10
285.0
 20
314.0
 10
255.0
 20
314.0
  0
LWPOLYLINE
  5
181
330
17
100
AcDbEntity
  8
S-REBAR-STIRRUP
100
AcDbPolyline
 90
4
 70
1
 10
255.0
 20
317.0
 10
285.0
 20
317.0
 10
285.0
 20
329.0
 10
255.0
 20
329.0
  0
LWPOLYLINE
  5
182
330
17
100
AcDbEntity
  8
S-REBAR-STIRRUP
100
AcDbPolyline
 90
4
 70
1
 10
255.0
 20
332.0
 10
285.0
 20
332.0
 10
285.0
 20
344.0
 10
255.0
 20
344.0
  0
LINE
  5
183
330
17
100
AcDbEntity
  8
S-STEELWORK
100
AcDbLine
 10
250.0
 20
300.0
 30
0.0
 11
250.0
 21
340.0
 31
0.0
  0
LINE
  5
184
330
17
100
AcDbEntity
  8
S-STEELWORK
100
AcDbLine
 10
244.0
 20
300.0
 30
0.0
 11
244.0
 21
340.0
 31
0.0
  0
LINE
  5
185
330
17
100
AcDbEntity
  8
S-STEELWORK
100
AcDbLine
 10
244.0
 20
340.0
 30
0.0
 11
250.0
 21
340.0
 31
0.0
  0
LINE
  5
186
330
17
100
AcDbEntity
  8
S-STEELWORK
100
AcDbLine
 10
244.0
 20
310.0
 30
0.0
 11
270.0
 21
310.0
 31
0.0
  0
LINE
  5
187
330
17
100
AcDbEntity
  8
S-STEELWORK
100
AcDbLine
 10
244.0
 20
325.0
 30
0.0
 11
270.0
 21
325.0
 31
0.0
  0
DIMENSION
  5
188
330
17
100
AcDbEntity
  8
S-DIM
100
AcDbDimension
280
0
  2
*D5
  3
SC-DIM
 10
250.0
 20
282.0
 30
0.0
 11
270.0
 21
283.7
 31
0.0
 70
32
 71
5
  1
<>
100
AcDbAlignedDimension
 13
250.0
 23
300.0
 33
0.0
 14
290.0
 24
300.0
 34
0.0
 50
0.0
100
AcDbRotatedDimension
1001
ACAD
1000
DSTYLE
1002
{
1070
144
1040
10.0
1002
}
  0
LEADER
  5
197
330
17
100
AcDbEntity
  8
S-CALLOUT
100
AcDbLeader
  3
SC-DIM
 73
3
 76
2
 10
247.0
 20
330.0
 30
0.0
 10
250.0
 20
350.0
 30
0.0
  0
TEXT
  5
198
330
17
100
AcDbEntity
  8
S-CALLOUT
100
AcDbText
 10
251.6
 20
349.4
 30
0.0
 40
1.8
  1
CAST-IN STEEL FRAME, WELDED TO THE CAGE (EMP)
  7
OpenSans
 11
251.6
 21
349.4
 31
0.0
100
AcDbText
  0
INSERT
  5
199
330
17
100
AcDbEntity
  8
S-CALLOUT
100
AcDbBlockReference
  2
BARMARK
 10
240.0
 20
288.0
 30
0.0
  0
TEXT
  5
19B
330
17
100
AcDbEntity
  8
S-CALLOUT
100
AcDbText
 10
240.0
 20
288.0
 30
0.0
 40
2.0
  1
W13
  7
OpenSans
 72
1
 11
240.0
 21
288.0
 31
0.0
100
AcDbText
 73
2
  0
LEADER
  5
19C
330
17
100
AcDbEntity
  8
S-CALLOUT
100
AcDbLeader
  3
SC-DIM
 73
3
 76
2
 10
256.0
 20
320.0
 30
0.0
 10
240.0
 20
288.0
 30
0.0
  0
TEXT
  5
19D
330
17
100
AcDbEntity
  8
S-TITLE
100
AcDbText
 10
250.0
 20
424.0
 30
0.0
 40
3.5
  1
V2   JAMB SECTION - PLAN CUT
  7
OpenSans
 11
250.0
 21
424.0
 31
0.0
100
AcDbText
  0
LINE
  5
19E
330
17
100
AcDbEntity
  8
S-TITLE
100
AcDbLine
 10
250.0
 20
422.2
 30
0.0
 11
324.2876758204957
 21
422.2
 31
0.0
  0
TEXT
  5
19F
330
17
100
AcDbEntity
  8
S-TEXT
100
AcDbText
 10
250.0
 20
416.8
 30
0.0
 40
2.0
  1
SCALE 1:10
  7
OpenSans
 11
250.0
 21
416.8
 31
0.0
100
AcDbText
  0
TEXT
  5
1A0
330
17
100
AcDbEntity
  8
S-TITLE
100
AcDbText
 10
332.0
 20
547.5
 30
0.0
 40
2.5
  1
BLAST DOOR OPENING - DESIGN
  7
OpenSans
 11
332.0
 21
547.5
 31
0.0
100
AcDbText
  0
TEXT
  5
1A1
330
17
100
AcDbEntity
  8
S-NOTE
100
AcDbText
 10
332.0
 20
543.375
 30
0.0
 40
2.0
  1
INTERRUPTED STEEL   2094 x 1.200 = 2513 mm2/face  ->  1256 mm2 EACH JAMB
  7
OpenSans
 11
332.0
 21
543.375
 31
0.0
100
AcDbText
  0
TEXT
  5
1A2
330
17
100
AcDbEntity
  8
S-NOTE
100
AcDbText
 10
332.0
 20
540.325
 30
0.0
 40
2.0
  1
PROVIDED  4 No. T20 EACH JAMB EACH FACE = 1257 mm2
  7
OpenSans
 11
332.0
 21
540.325
 31
0.0
100
AcDbText
  0
TEXT
  5
1A3
330
17
100
AcDbEntity
  8
S-NOTE
100
AcDbText
 10
332.0
 20
537.2750000000001
 30
0.0
 40
2.0
  1
  *** 1257 vs 1256 - THE ARRANGEMENT IS EXACT, NOT GENEROUS.  Recorded as
  7
OpenSans
 11
332.0
 21
537.2750000000001
 31
0.0
100
AcDbText
  0
TEXT
  5
1A4
330
17
100
AcDbEntity
  8
S-NOTE
100
AcDbText
 10
332.0
 20
534.2250000000001
 30
0.0
 40
2.0
  1
      such rather than presented as a comfortable margin. ***
  7
OpenSans
 11
332.0
 21
534.2250000000001
 31
0.0
100
AcDbText
  0
TEXT
  5
1A5
330
17
100
AcDbEntity
  8
S-NOTE
100
AcDbText
 10
332.0
 20
531.1750000000002
 30
0.0
 40
2.0
  1
  ANCHORED Ld = 800 BEYOND THE OPENING IN BOTH DIRECTIONS.
  7
OpenSans
 11
332.0
 21
531.1750000000002
 31
0.0
100
AcDbText
  0
TEXT
  5
1A6
330
17
100
AcDbEntity
  8
S-NOTE
100
AcDbText
 10
332.0
 20
525.0750000000003
 30
0.0
 40
2.0
  1
HEADER over the 1200 clear opening, 400 x 1100
  7
OpenSans
 11
332.0
 21
525.0750000000003
 31
0.0
100
AcDbText
  0
TEXT
  5
1A7
330
17
100
AcDbEntity
  8
S-NOTE
100
AcDbText
 10
332.0
 20
522.0250000000003
 30
0.0
 40
2.0
  1
  w = 383 x 2.100 / 2                       =  402 kN/m
  7
OpenSans
 11
332.0
 21
522.0250000000003
 31
0.0
100
AcDbText
  0
TEXT
  5
1A8
330
17
100
AcDbEntity
  8
S-NOTE
100
AcDbText
 10
332.0
 20
518.9750000000004
 30
0.0
 40
2.0
  1
  M = w L2 / 12                             =  48.2 kNm
  7
OpenSans
 11
332.0
 21
518.9750000000004
 31
0.0
100
AcDbText
  0
TEXT
  5
1A9
330
17
100
AcDbEntity
  8
S-NOTE
100
AcDbText
 10
332.0
 20
515.9250000000004
 30
0.0
 40
2.0
  1
  V = w L / 2                               =  241 kN
  7
OpenSans
 11
332.0
 21
515.9250000000004
 31
0.0
100
AcDbText
  0
TEXT
  5
1AA
330
17
100
AcDbEntity
  8
S-NOTE
100
AcDbText
 10
332.0
 20
512.8750000000005
 30
0.0
 40
2.0
  1
  tau = 0.578 N/mm2
  7
OpenSans
 11
332.0
 21
512.8750000000005
 31
0.0
100
AcDbText
  0
TEXT
  5
1AB
330
17
100
AcDbEntity
  8
S-NOTE
100
AcDbText
 10
332.0
 20
509.82500000000044
 30
0.0
 40
2.0
  1
  PROVIDED  4-T20 TOP + 4-T20 BOTTOM, T12 4-LEGGED LINKS @ 150
  7
OpenSans
 11
332.0
 21
509.82500000000044
 31
0.0
100
AcDbText
  0
TEXT
  5
1AC
330
17
100
AcDbEntity
  8
S-NOTE
100
AcDbText
 10
332.0
 20
503.7250000000004
 30
0.0
 40
2.0
  1
REVEAL   T16 @ 150 U-BARS CLOSE THE REVEAL ON BOTH FACES, ALL ROUND.
  7
OpenSans
 11
332.0
 21
503.7250000000004
 31
0.0
100
AcDbText
  0
TEXT
  5
1AD
330
17
100
AcDbEntity
  8
S-NOTE
100
AcDbText
 10
332.0
 20
497.6250000000004
 30
0.0
 40
2.0
  1
DOOR AND FRAME - WHAT IS AND IS NOT DESIGNED HERE
  7
OpenSans
 11
332.0
 21
497.6250000000004
 31
0.0
100
AcDbText
  0
TEXT
  5
1AE
330
17
100
AcDbEntity
  8
S-NOTE
100
AcDbText
 10
332.0
 20
494.5750000000004
 30
0.0
 40
2.0
  1
  The cast-in steel frame is shown ANCHORED INTO AND WELDED TO THE CAGE, for
  7
OpenSans
 11
332.0
 21
494.5750000000004
 31
0.0
100
AcDbText
  0
TEXT
  5
1AF
330
17
100
AcDbEntity
  8
S-NOTE
100
AcDbText
 10
332.0
 20
491.5250000000004
 30
0.0
 40
2.0
  1
  EMP continuity.  THE LEAF, ITS ANCHORAGE AND ITS REBOUND RATING ARE A VENDOR
  7
OpenSans
 11
332.0
 21
491.5250000000004
 31
0.0
100
AcDbText
  0
TEXT
  5
1B0
330
17
100
AcDbEntity
  8
S-NOTE
100
AcDbText
 10
332.0
 20
488.47500000000036
 30
0.0
 40
2.0
  1
  SUBMITTAL AND ARE [NOT AVAILABLE].  NO PROPRIETARY BLAST-DOOR REQUIREMENT IS
  7
OpenSans
 11
332.0
 21
488.47500000000036
 31
0.0
100
AcDbText
  0
TEXT
  5
1B1
330
17
100
AcDbEntity
  8
S-NOTE
100
AcDbText
 10
332.0
 20
485.42500000000035
 30
0.0
 40
2.0
  1
  INVENTED ON THIS SHEET.  Door: proprietary, >= 7 bar, rebound-rated, gas-tight.
  7
OpenSans
 11
332.0
 21
485.42500000000035
 31
0.0
100
AcDbText
  0
TEXT
  5
1B2
330
17
100
AcDbEntity
  8
S-NOTE
100
AcDbText
 10
332.0
 20
479.32500000000033
 30
0.0
 40
2.0
  1
MANUAL CALCULATION - NOT DIRECT STAAD OUTPUT.
  7
OpenSans
 11
332.0
 21
479.32500000000033
 31
0.0
100
AcDbText
  0
LWPOLYLINE
  5
1B3
330
17
100
AcDbEntity
  8
S-TITLE
100
AcDbPolyline
 90
4
 70
1
 10
330.0
 20
474.2750000000003
 10
640.0
 20
474.2750000000003
 10
640.0
 20
552.0
 10
330.0
 20
552.0
  0
TEXT
  5
1B4
330
17
100
AcDbEntity
  8
S-TITLE
100
AcDbText
 10
332.0
 20
464.87500000000034
 30
0.0
 40
2.5
  1
BAR MARK KEY - THIS SHEET
  7
OpenSans
 11
332.0
 21
464.87500000000034
 31
0.0
100
AcDbText
  0
CIRCLE
  5
1B5
330
17
100
AcDbEntity
  8
S-CALLOUT
100
AcDbCircle
 10
337.0
 20
458.37500000000034
 30
0.0
 40
2.6
  0
TEXT
  5
1B6
330
17
100
AcDbEntity
  8
S-CALLOUT
100
AcDbText
 10
337.0
 20
458.37500000000034
 30
0.0
 40
1.4
  1
W13
  7
OpenSans
 72
1
 11
337.0
 21
458.37500000000034
 31
0.0
100
AcDbText
 73
2
  0
TEXT
  5
1B7
330
17
100
AcDbEntity
  8
S-NOTE
100
AcDbText
 10
342.0
 20
457.7750000000003
 30
0.0
 40
1.9
  1
T20          JAMB BARS, 4-T20 EACH JAMB EACH FACE
  7
OpenSans
 11
342.0
 21
457.7750000000003
 31
0.0
100
AcDbText
  0
CIRCLE
  5
1B8
330
17
100
AcDbEntity
  8
S-CALLOUT
100
AcDbCircle
 10
337.0
 20
452.37500000000034
 30
0.0
 40
2.6
  0
TEXT
  5
1B9
330
17
100
AcDbEntity
  8
S-CALLOUT
100
AcDbText
 10
337.0
 20
452.37500000000034
 30
0.0
 40
1.4
  1
W14
  7
OpenSans
 72
1
 11
337.0
 21
452.37500000000034
 31
0.0
100
AcDbText
 73
2
  0
TEXT
  5
1BA
330
17
100
AcDbEntity
  8
S-NOTE
100
AcDbText
 10
342.0
 20
451.7750000000003
 30
0.0
 40
1.9
  1
T12  @ 150   JAMB LINKS @ 150
  7
OpenSans
 11
342.0
 21
451.7750000000003
 31
0.0
100
AcDbText
  0
CIRCLE
  5
1BB
330
17
100
AcDbEntity
  8
S-CALLOUT
100
AcDbCircle
 10
337.0
 20
446.37500000000034
 30
0.0
 40
2.6
  0
TEXT
  5
1BC
330
17
100
AcDbEntity
  8
S-CALLOUT
100
AcDbText
 10
337.0
 20
446.37500000000034
 30
0.0
 40
1.4
  1
W15
  7
OpenSans
 72
1
 11
337.0
 21
446.37500000000034
 31
0.0
100
AcDbText
 73
2
  0
TEXT
  5
1BD
330
17
100
AcDbEntity
  8
S-NOTE
100
AcDbText
 10
342.0
 20
445.7750000000003
 30
0.0
 40
1.9
  1
T16  @ 150   REVEAL U-BARS, BOTH FACES
  7
OpenSans
 11
342.0
 21
445.7750000000003
 31
0.0
100
AcDbText
  0
CIRCLE
  5
1BE
330
17
100
AcDbEntity
  8
S-CALLOUT
100
AcDbCircle
 10
337.0
 20
440.37500000000034
 30
0.0
 40
2.6
  0
TEXT
  5
1BF
330
17
100
AcDbEntity
  8
S-CALLOUT
100
AcDbText
 10
337.0
 20
440.37500000000034
 30
0.0
 40
1.4
  1
B01
  7
OpenSans
 72
1
 11
337.0
 21
440.37500000000034
 31
0.0
100
AcDbText
 73
2
  0
TEXT
  5
1C0
330
17
100
AcDbEntity
  8
S-NOTE
100
AcDbText
 10
342.0
 20
439.7750000000003
 30
0.0
 40
1.9
  1
T20          TOP, 4-T20 (x2 HEADERS)
  7
OpenSans
 11
342.0
 21
439.7750000000003
 31
0.0
100
AcDbText
  0
CIRCLE
  5
1C1
330
17
100
AcDbEntity
  8
S-CALLOUT
100
AcDbCircle
 10
337.0
 20
434.37500000000034
 30
0.0
 40
2.6
  0
TEXT
  5
1C2
330
17
100
AcDbEntity
  8
S-CALLOUT
100
AcDbText
 10
337.0
 20
434.37500000000034
 30
0.0
 40
1.4
  1
B02
  7
OpenSans
 72
1
 11
337.0
 21
434.37500000000034
 31
0.0
100
AcDbText
 73
2
  0
TEXT
  5
1C3
330
17
100
AcDbEntity
  8
S-NOTE
100
AcDbText
 10
342.0
 20
433.7750000000003
 30
0.0
 40
1.9
  1
T20          BOTTOM, 4-T20 (x2 HEADERS)
  7
OpenSans
 11
342.0
 21
433.7750000000003
 31
0.0
100
AcDbText
  0
CIRCLE
  5
1C4
330
17
100
AcDbEntity
  8
S-CALLOUT
100
AcDbCircle
 10
337.0
 20
428.37500000000034
 30
0.0
 40
2.6
  0
TEXT
  5
1C5
330
17
100
AcDbEntity
  8
S-CALLOUT
100
AcDbText
 10
337.0
 20
428.37500000000034
 30
0.0
 40
1.4
  1
B03
  7
OpenSans
 72
1
 11
337.0
 21
428.37500000000034
 31
0.0
100
AcDbText
 73
2
  0
TEXT
  5
1C6
330
17
100
AcDbEntity
  8
S-NOTE
100
AcDbText
 10
342.0
 20
427.7750000000003
 30
0.0
 40
1.9
  1
T12  @ 150   4-LEGGED LINKS @ 150
  7
OpenSans
 11
342.0
 21
427.7750000000003
 31
0.0
100
AcDbText
  0
LWPOLYLINE
  5
1C7
330
17
100
AcDbEntity
  8
S-TITLE
100
AcDbPolyline
 90
4
 70
1
 10
330.0
 20
419.7750000000003
 10
640.0
 20
419.7750000000003
 10
640.0
 20
468.2750000000003
 10
330.0
 20
468.2750000000003
  0
TEXT
  5
1C8
330
17
100
AcDbEntity
  8
S-TITLE
100
AcDbText
 10
330.0
 20
414.7750000000003
 30
0.0
 40
2.5
  1
BAR SCHEDULE EXTRACT - THIS SHEET
  7
OpenSans
 11
330.0
 21
414.7750000000003
 31
0.0
100
AcDbText
  0
LWPOLYLINE
  5
1C9
330
17
100
AcDbEntity
  8
S-TABLE
100
AcDbPolyline
 90
4
 70
1
 10
330.0
 20
407.57500000000033
 10
439.0
 20
407.57500000000033
 10
439.0
 20
411.7750000000003
 10
330.0
 20
411.7750000000003
  0
TEXT
  5
1CA
330
17
100
AcDbEntity
  8
S-TABLE
100
AcDbText
 10
331.4
 20
408.72045454545486
 30
0.0
 40
1.909090909090909
  1
MARK
  7
OpenSans
 11
331.4
 21
408.72045454545486
 31
0.0
100
AcDbText
  0
TEXT
  5
1CB
330
17
100
AcDbEntity
  8
S-TABLE
100
AcDbText
 10
348.4
 20
408.72045454545486
 30
0.0
 40
1.909090909090909
  1
DIA
  7
OpenSans
 11
348.4
 21
408.72045454545486
 31
0.0
100
AcDbText
  0
TEXT
  5
1CC
330
17
100
AcDbEntity
  8
S-TABLE
100
AcDbText
 10
361.4
 20
408.72045454545486
 30
0.0
 40
1.909090909090909
  1
SHP
  7
OpenSans
 11
361.4
 21
408.72045454545486
 31
0.0
100
AcDbText
  0
TEXT
  5
1CD
330
17
100
AcDbEntity
  8
S-TABLE
100
AcDbText
 10
373.4
 20
408.72045454545486
 30
0.0
 40
1.909090909090909
  1
SPAC
  7
OpenSans
 11
373.4
 21
408.72045454545486
 31
0.0
100
AcDbText
  0
TEXT
  5
1CE
330
17
100
AcDbEntity
  8
S-TABLE
100
AcDbText
 10
388.4
 20
408.72045454545486
 30
0.0
 40
1.909090909090909
  1
No.
  7
OpenSans
 11
388.4
 21
408.72045454545486
 31
0.0
100
AcDbText
  0
TEXT
  5
1CF
330
17
100
AcDbEntity
  8
S-TABLE
100
AcDbText
 10
403.4
 20
408.72045454545486
 30
0.0
 40
1.909090909090909
  1
CUT
  7
OpenSans
 11
403.4
 21
408.72045454545486
 31
0.0
100
AcDbText
  0
TEXT
  5
1D0
330
17
100
AcDbEntity
  8
S-TABLE
100
AcDbText
 10
420.4
 20
408.72045454545486
 30
0.0
 40
1.909090909090909
  1
kg
  7
OpenSans
 11
420.4
 21
408.72045454545486
 31
0.0
100
AcDbText
  0
TEXT
  5
1D1
330
17
100
AcDbEntity
  8
S-TABLE
100
AcDbText
 10
331.4
 20
404.52045454545487
 30
0.0
 40
1.909090909090909
  1
W13
  7
OpenSans
 11
331.4
 21
404.52045454545487
 31
0.0
100
AcDbText
  0
TEXT
  5
1D2
330
17
100
AcDbEntity
  8
S-TABLE
100
AcDbText
 10
348.4
 20
404.52045454545487
 30
0.0
 40
1.909090909090909
  1
T20
  7
OpenSans
 11
348.4
 21
404.52045454545487
 31
0.0
100
AcDbText
  0
TEXT
  5
1D3
330
17
100
AcDbEntity
  8
S-TABLE
100
AcDbText
 10
361.4
 20
404.52045454545487
 30
0.0
 40
1.909090909090909
  1
00
  7
OpenSans
 11
361.4
 21
404.52045454545487
 31
0.0
100
AcDbText
  0
TEXT
  5
1D4
330
17
100
AcDbEntity
  8
S-TABLE
100
AcDbText
 10
373.4
 20
404.52045454545487
 30
0.0
 40
1.909090909090909
  1
-
  7
OpenSans
 11
373.4
 21
404.52045454545487
 31
0.0
100
AcDbText
  0
TEXT
  5
1D5
330
17
100
AcDbEntity
  8
S-TABLE
100
AcDbText
 10
388.4
 20
404.52045454545487
 30
0.0
 40
1.909090909090909
  1
32
  7
OpenSans
 11
388.4
 21
404.52045454545487
 31
0.0
100
AcDbText
  0
TEXT
  5
1D6
330
17
100
AcDbEntity
  8
S-TABLE
100
AcDbText
 10
403.4
 20
404.52045454545487
 30
0.0
 40
1.909090909090909
  1
3700
  7
OpenSans
 11
403.4
 21
404.52045454545487
 31
0.0
100
AcDbText
  0
TEXT
  5
1D7
330
17
100
AcDbEntity
  8
S-TABLE
100
AcDbText
 10
420.4
 20
404.52045454545487
 30
0.0
 40
1.909090909090909
  1
292
  7
OpenSans
 11
420.4
 21
404.52045454545487
 31
0.0
100
AcDbText
  0
LINE
  5
1D8
330
17
100
AcDbEntity
  8
S-TABLE
100
AcDbLine
 10
330.0
 20
403.37500000000034
 30
0.0
 11
439.0
 21
403.37500000000034
 31
0.0
  0
TEXT
  5
1D9
330
17
100
AcDbEntity
  8
S-TABLE
100
AcDbText
 10
331.4
 20
400.3204545454549
 30
0.0
 40
1.909090909090909
  1
W14
  7
OpenSans
 11
331.4
 21
400.3204545454549
 31
0.0
100
AcDbText
  0
TEXT
  5
1DA
330
17
100
AcDbEntity
  8
S-TABLE
100
AcDbText
 10
348.4
 20
400.3204545454549
 30
0.0
 40
1.909090909090909
  1
T12
  7
OpenSans
 11
348.4
 21
400.3204545454549
 31
0.0
100
AcDbText
  0
TEXT
  5
1DB
330
17
100
AcDbEntity
  8
S-TABLE
100
AcDbText
 10
361.4
 20
400.3204545454549
 30
0.0
 40
1.909090909090909
  1
51
  7
OpenSans
 11
361.4
 21
400.3204545454549
 31
0.0
100
AcDbText
  0
TEXT
  5
1DC
330
17
100
AcDbEntity
  8
S-TABLE
100
AcDbText
 10
373.4
 20
400.3204545454549
 30
0.0
 40
1.909090909090909
  1
150
  7
OpenSans
 11
373.4
 21
400.3204545454549
 31
0.0
100
AcDbText
  0
TEXT
  5
1DD
330
17
100
AcDbEntity
  8
S-TABLE
100
AcDbText
 10
388.4
 20
400.3204545454549
 30
0.0
 40
1.909090909090909
  1
96
  7
OpenSans
 11
388.4
 21
400.3204545454549
 31
0.0
100
AcDbText
  0
TEXT
  5
1DE
330
17
100
AcDbEntity
  8
S-TABLE
100
AcDbText
 10
403.4
 20
400.3204545454549
 30
0.0
 40
1.909090909090909
  1
1240
  7
OpenSans
 11
403.4
 21
400.3204545454549
 31
0.0
100
AcDbText
  0
TEXT
  5
1DF
330
17
100
AcDbEntity
  8
S-TABLE
100
AcDbText
 10
420.4
 20
400.3204545454549
 30
0.0
 40
1.909090909090909
  1
106
  7
OpenSans
 11
420.4
 21
400.3204545454549
 31
0.0
100
AcDbText
  0
LINE
  5
1E0
330
17
100
AcDbEntity
  8
S-TABLE
100
AcDbLine
 10
330.0
 20
399.17500000000035
 30
0.0
 11
439.0
 21
399.17500000000035
 31
0.0
  0
TEXT
  5
1E1
330
17
100
AcDbEntity
  8
S-TABLE
100
AcDbText
 10
331.4
 20
396.1204545454549
 30
0.0
 40
1.909090909090909
  1
W15
  7
OpenSans
 11
331.4
 21
396.1204545454549
 31
0.0
100
AcDbText
  0
TEXT
  5
1E2
330
17
100
AcDbEntity
  8
S-TABLE
100
AcDbText
 10
348.4
 20
396.1204545454549
 30
0.0
 40
1.909090909090909
  1
T16
  7
OpenSans
 11
348.4
 21
396.1204545454549
 31
0.0
100
AcDbText
  0
TEXT
  5
1E3
330
17
100
AcDbEntity
  8
S-TABLE
100
AcDbText
 10
361.4
 20
396.1204545454549
 30
0.0
 40
1.909090909090909
  1
21
  7
OpenSans
 11
361.4
 21
396.1204545454549
 31
0.0
100
AcDbText
  0
TEXT
  5
1E4
330
17
100
AcDbEntity
  8
S-TABLE
100
AcDbText
 10
373.4
 20
396.1204545454549
 30
0.0
 40
1.909090909090909
  1
150
  7
OpenSans
 11
373.4
 21
396.1204545454549
 31
0.0
100
AcDbText
  0
TEXT
  5
1E5
330
17
100
AcDbEntity
  8
S-TABLE
100
AcDbText
 10
388.4
 20
396.1204545454549
 30
0.0
 40
1.909090909090909
  1
88
  7
OpenSans
 11
388.4
 21
396.1204545454549
 31
0.0
100
AcDbText
  0
TEXT
  5
1E6
330
17
100
AcDbEntity
  8
S-TABLE
100
AcDbText
 10
403.4
 20
396.1204545454549
 30
0.0
 40
1.909090909090909
  1
1580
  7
OpenSans
 11
403.4
 21
396.1204545454549
 31
0.0
100
AcDbText
  0
TEXT
  5
1E7
330
17
100
AcDbEntity
  8
S-TABLE
100
AcDbText
 10
420.4
 20
396.1204545454549
 30
0.0
 40
1.909090909090909
  1
219
  7
OpenSans
 11
420.4
 21
396.1204545454549
 31
0.0
100
AcDbText
  0
LINE
  5
1E8
330
17
100
AcDbEntity
  8
S-TABLE
100
AcDbLine
 10
330.0
 20
394.97500000000036
 30
0.0
 11
439.0
 21
394.97500000000036
 31
0.0
  0
TEXT
  5
1E9
330
17
100
AcDbEntity
  8
S-TABLE
100
AcDbText
 10
331.4
 20
391.9204545454549
 30
0.0
 40
1.909090909090909
  1
B01
  7
OpenSans
 11
331.4
 21
391.9204545454549
 31
0.0
100
AcDbText
  0
TEXT
  5
1EA
330
17
100
AcDbEntity
  8
S-TABLE
100
AcDbText
 10
348.4
 20
391.9204545454549
 30
0.0
 40
1.909090909090909
  1
T20
  7
OpenSans
 11
348.4
 21
391.9204545454549
 31
0.0
100
AcDbText
  0
TEXT
  5
1EB
330
17
100
AcDbEntity
  8
S-TABLE
100
AcDbText
 10
361.4
 20
391.9204545454549
 30
0.0
 40
1.909090909090909
  1
00
  7
OpenSans
 11
361.4
 21
391.9204545454549
 31
0.0
100
AcDbText
  0
TEXT
  5
1EC
330
17
100
AcDbEntity
  8
S-TABLE
100
AcDbText
 10
373.4
 20
391.9204545454549
 30
0.0
 40
1.909090909090909
  1
-
  7
OpenSans
 11
373.4
 21
391.9204545454549
 31
0.0
100
AcDbText
  0
TEXT
  5
1ED
330
17
100
AcDbEntity
  8
S-TABLE
100
AcDbText
 10
388.4
 20
391.9204545454549
 30
0.0
 40
1.909090909090909
  1
8
  7
OpenSans
 11
388.4
 21
391.9204545454549
 31
0.0
100
AcDbText
  0
TEXT
  5
1EE
330
17
100
AcDbEntity
  8
S-TABLE
100
AcDbText
 10
403.4
 20
391.9204545454549
 30
0.0
 40
1.909090909090909
  1
2800
  7
OpenSans
 11
403.4
 21
391.9204545454549
 31
0.0
100
AcDbText
  0
TEXT
  5
1EF
330
17
100
AcDbEntity
  8
S-TABLE
100
AcDbText
 10
420.4
 20
391.9204545454549
 30
0.0
 40
1.909090909090909
  1
55
  7
OpenSans
 11
420.4
 21
391.9204545454549
 31
0.0
100
AcDbText
  0
LINE
  5
1F0
330
17
100
AcDbEntity
  8
S-TABLE
100
AcDbLine
 10
330.0
 20
390.7750000000004
 30
0.0
 11
439.0
 21
390.7750000000004
 31
0.0
  0
TEXT
  5
1F1
330
17
100
AcDbEntity
  8
S-TABLE
100
AcDbText
 10
331.4
 20
387.7204545454549
 30
0.0
 40
1.909090909090909
  1
B02
  7
OpenSans
 11
331.4
 21
387.7204545454549
 31
0.0
100
AcDbText
  0
TEXT
  5
1F2
330
17
100
AcDbEntity
  8
S-TABLE
100
AcDbText
 10
348.4
 20
387.7204545454549
 30
0.0
 40
1.909090909090909
  1
T20
  7
OpenSans
 11
348.4
 21
387.7204545454549
 31
0.0
100
AcDbText
  0
TEXT
  5
1F3
330
17
100
AcDbEntity
  8
S-TABLE
100
AcDbText
 10
361.4
 20
387.7204545454549
 30
0.0
 40
1.909090909090909
  1
00
  7
OpenSans
 11
361.4
 21
387.7204545454549
 31
0.0
100
AcDbText
  0
TEXT
  5
1F4
330
17
100
AcDbEntity
  8
S-TABLE
100
AcDbText
 10
373.4
 20
387.7204545454549
 30
0.0
 40
1.909090909090909
  1
-
  7
OpenSans
 11
373.4
 21
387.7204545454549
 31
0.0
100
AcDbText
  0
TEXT
  5
1F5
330
17
100
AcDbEntity
  8
S-TABLE
100
AcDbText
 10
388.4
 20
387.7204545454549
 30
0.0
 40
1.909090909090909
  1
8
  7
OpenSans
 11
388.4
 21
387.7204545454549
 31
0.0
100
AcDbText
  0
TEXT
  5
1F6
330
17
100
AcDbEntity
  8
S-TABLE
100
AcDbText
 10
403.4
 20
387.7204545454549
 30
0.0
 40
1.909090909090909
  1
2800
  7
OpenSans
 11
403.4
 21
387.7204545454549
 31
0.0
100
AcDbText
  0
TEXT
  5
1F7
330
17
100
AcDbEntity
  8
S-TABLE
100
AcDbText
 10
420.4
 20
387.7204545454549
 30
0.0
 40
1.909090909090909
  1
55
  7
OpenSans
 11
420.4
 21
387.7204545454549
 31
0.0
100
AcDbText
  0
LINE
  5
1F8
330
17
100
AcDbEntity
  8
S-TABLE
100
AcDbLine
 10
330.0
 20
386.5750000000004
 30
0.0
 11
439.0
 21
386.5750000000004
 31
0.0
  0
TEXT
  5
1F9
330
17
100
AcDbEntity
  8
S-TABLE
100
AcDbText
 10
331.4
 20
383.5204545454549
 30
0.0
 40
1.909090909090909
  1
B03
  7
OpenSans
 11
331.4
 21
383.5204545454549
 31
0.0
100
AcDbText
  0
TEXT
  5
1FA
330
17
100
AcDbEntity
  8
S-TABLE
100
AcDbText
 10
348.4
 20
383.5204545454549
 30
0.0
 40
1.909090909090909
  1
T12
  7
OpenSans
 11
348.4
 21
383.5204545454549
 31
0.0
100
AcDbText
  0
TEXT
  5
1FB
330
17
100
AcDbEntity
  8
S-TABLE
100
AcDbText
 10
361.4
 20
383.5204545454549
 30
0.0
 40
1.909090909090909
  1
51
  7
OpenSans
 11
361.4
 21
383.5204545454549
 31
0.0
100
AcDbText
  0
TEXT
  5
1FC
330
17
100
AcDbEntity
  8
S-TABLE
100
AcDbText
 10
373.4
 20
383.5204545454549
 30
0.0
 40
1.909090909090909
  1
150
  7
OpenSans
 11
373.4
 21
383.5204545454549
 31
0.0
100
AcDbText
  0
TEXT
  5
1FD
330
17
100
AcDbEntity
  8
S-TABLE
100
AcDbText
 10
388.4
 20
383.5204545454549
 30
0.0
 40
1.909090909090909
  1
72
  7
OpenSans
 11
388.4
 21
383.5204545454549
 31
0.0
100
AcDbText
  0
TEXT
  5
1FE
330
17
100
AcDbEntity
  8
S-TABLE
100
AcDbText
 10
403.4
 20
383.5204545454549
 30
0.0
 40
1.909090909090909
  1
2920
  7
OpenSans
 11
403.4
 21
383.5204545454549
 31
0.0
100
AcDbText
  0
TEXT
  5
1FF
330
17
100
AcDbEntity
  8
S-TABLE
100
AcDbText
 10
420.4
 20
383.5204545454549
 30
0.0
 40
1.909090909090909
  1
187
  7
OpenSans
 11
420.4
 21
383.5204545454549
 31
0.0
100
AcDbText
  0
LINE
  5
200
330
17
100
AcDbEntity
  8
S-TABLE
100
AcDbLine
 10
330.0
 20
382.3750000000004
 30
0.0
 11
439.0
 21
382.3750000000004
 31
0.0
  0
LINE
  5
201
330
17
100
AcDbEntity
  8
S-TABLE
100
AcDbLine
 10
330.0
 20
411.7750000000003
 30
0.0
 11
439.0
 21
411.7750000000003
 31
0.0
  0
LINE
  5
202
330
17
100
AcDbEntity
  8
S-TABLE
100
AcDbLine
 10
330.0
 20
411.7750000000003
 30
0.0
 11
330.0
 21
382.3750000000004
 31
0.0
  0
LINE
  5
203
330
17
100
AcDbEntity
  8
S-TABLE
100
AcDbLine
 10
347.0
 20
411.7750000000003
 30
0.0
 11
347.0
 21
382.3750000000004
 31
0.0
  0
LINE
  5
204
330
17
100
AcDbEntity
  8
S-TABLE
100
AcDbLine
 10
360.0
 20
411.7750000000003
 30
0.0
 11
360.0
 21
382.3750000000004
 31
0.0
  0
LINE
  5
205
330
17
100
AcDbEntity
  8
S-TABLE
100
AcDbLine
 10
372.0
 20
411.7750000000003
 30
0.0
 11
372.0
 21
382.3750000000004
 31
0.0
  0
LINE
  5
206
330
17
100
AcDbEntity
  8
S-TABLE
100
AcDbLine
 10
387.0
 20
411.7750000000003
 30
0.0
 11
387.0
 21
382.3750000000004
 31
0.0
  0
LINE
  5
207
330
17
100
AcDbEntity
  8
S-TABLE
100
AcDbLine
 10
402.0
 20
411.7750000000003
 30
0.0
 11
402.0
 21
382.3750000000004
 31
0.0
  0
LINE
  5
208
330
17
100
AcDbEntity
  8
S-TABLE
100
AcDbLine
 10
419.0
 20
411.7750000000003
 30
0.0
 11
419.0
 21
382.3750000000004
 31
0.0
  0
LINE
  5
209
330
17
100
AcDbEntity
  8
S-TABLE
100
AcDbLine
 10
439.0
 20
411.7750000000003
 30
0.0
 11
439.0
 21
382.3750000000004
 31
0.0
  0
TEXT
  5
20A
330
17
100
AcDbEntity
  8
S-TABLE
100
AcDbText
 10
330.0
 20
377.9750000000004
 30
0.0
 40
1.4
  1
SHEET SUB-TOTAL  914 kg     FULL SCHEDULE: R-004 and Structural CAD/Schedules/BBS_MASTER.md
  7
OpenSans
 11
330.0
 21
377.9750000000004
 31
0.0
100
AcDbText
  0
TEXT
  5
20B
330
17
100
AcDbEntity
  8
S-TITLE
100
AcDbText
 10
650.0
 20
547.5
 30
0.0
 40
2.5
  1
OTHER OPENINGS AND WHERE THEY ARE DETAILED
  7
OpenSans
 11
650.0
 21
547.5
 31
0.0
100
AcDbText
  0
TEXT
  5
20C
330
17
100
AcDbEntity
  8
S-NOTE
100
AcDbText
 10
650.0
 20
543.375
 30
0.0
 40
2.0
  1
ESCAPE SHAFTS ESC 1 / ESC 2, 1400 dia    R-303
  7
OpenSans
 11
650.0
 21
543.375
 31
0.0
100
AcDbText
  0
TEXT
  5
20D
330
17
100
AcDbEntity
  8
S-NOTE
100
AcDbText
 10
650.0
 20
540.325
 30
0.0
 40
2.0
  1
STAIR VOID 2800 x 3160                   R-303
  7
OpenSans
 11
650.0
 21
540.325
 31
0.0
100
AcDbText
  0
TEXT
  5
20E
330
17
100
AcDbEntity
  8
S-NOTE
100
AcDbText
 10
650.0
 20
537.2750000000001
 30
0.0
 40
2.0
  1
SECURITY DOOR 900 x 2100 in HW2          R-702 / R-703
  7
OpenSans
 11
650.0
 21
537.2750000000001
 31
0.0
100
AcDbText
  0
TEXT
  5
20F
330
17
100
AcDbEntity
  8
S-NOTE
100
AcDbText
 10
650.0
 20
534.2250000000001
 30
0.0
 40
2.0
  1
ENTRY DOOR 1000 x 2100                   R-702
  7
OpenSans
 11
650.0
 21
534.2250000000001
 31
0.0
100
AcDbText
  0
TEXT
  5
210
330
17
100
AcDbEntity
  8
S-NOTE
100
AcDbText
 10
650.0
 20
531.1750000000002
 30
0.0
 40
2.0
  1
SUMP-PIT OPENING 1500 x 1500             R-101 / R-103
  7
OpenSans
 11
650.0
 21
531.1750000000002
 31
0.0
100
AcDbText
  0
TEXT
  5
211
330
17
100
AcDbEntity
  8
S-NOTE
100
AcDbText
 10
650.0
 20
528.1250000000002
 30
0.0
 40
2.0
  1
PARTITION DOOR GAPS x4  - NO TRIMMING REQUIRED
  7
OpenSans
 11
650.0
 21
528.1250000000002
 31
0.0
100
AcDbText
  0
TEXT
  5
212
330
17
100
AcDbEntity
  8
S-NOTE
100
AcDbText
 10
650.0
 20
522.0250000000003
 30
0.0
 40
2.0
  1
NOT DESIGNED - NO STRUCTURAL BASIS EXISTS.  REPORTED
  7
OpenSans
 11
650.0
 21
522.0250000000003
 31
0.0
100
AcDbText
  0
TEXT
  5
213
330
17
100
AcDbEntity
  8
S-NOTE
100
AcDbText
 10
650.0
 20
518.9750000000004
 30
0.0
 40
2.0
  1
NOT DETERMINABLE, NOT FABRICATED:
  7
OpenSans
 11
650.0
 21
518.9750000000004
 31
0.0
100
AcDbText
  0
TEXT
  5
214
330
17
100
AcDbEntity
  8
S-NOTE
100
AcDbText
 10
650.0
 20
515.9250000000004
 30
0.0
 40
2.0
  1
  ·  BLAST VALVES x5 - sizes and sleeve details are on
  7
OpenSans
 11
650.0
 21
515.9250000000004
 31
0.0
100
AcDbText
  0
TEXT
  5
215
330
17
100
AcDbEntity
  8
S-NOTE
100
AcDbText
 10
650.0
 20
512.8750000000005
 30
0.0
 40
2.0
  1
     sheet S-06 and are not in the design register
  7
OpenSans
 11
650.0
 21
512.8750000000005
 31
0.0
100
AcDbText
  0
TEXT
  5
216
330
17
100
AcDbEntity
  8
S-NOTE
100
AcDbText
 10
650.0
 20
509.82500000000044
 30
0.0
 40
2.0
  1
  ·  SERVICE-ENTRY PLATE, wall W2 at X approx 11 800 -
  7
OpenSans
 11
650.0
 21
509.82500000000044
 31
0.0
100
AcDbText
  0
TEXT
  5
217
330
17
100
AcDbEntity
  8
S-NOTE
100
AcDbText
 10
650.0
 20
506.77500000000043
 30
0.0
 40
2.0
  1
     plate size [NOT AVAILABLE]
  7
OpenSans
 11
650.0
 21
506.77500000000043
 31
0.0
100
AcDbText
  0
TEXT
  5
218
330
17
100
AcDbEntity
  8
S-NOTE
100
AcDbText
 10
650.0
 20
503.7250000000004
 30
0.0
 40
2.0
  1
  ·  VENTILATION / CBRN DUCT PENETRATIONS - no
  7
OpenSans
 11
650.0
 21
503.7250000000004
 31
0.0
100
AcDbText
  0
TEXT
  5
219
330
17
100
AcDbEntity
  8
S-NOTE
100
AcDbText
 10
650.0
 20
500.6750000000004
 30
0.0
 40
2.0
  1
     penetration schedule exists
  7
OpenSans
 11
650.0
 21
500.6750000000004
 31
0.0
100
AcDbText
  0
TEXT
  5
21A
330
17
100
AcDbEntity
  8
S-NOTE
100
AcDbText
 10
650.0
 20
494.5750000000004
 30
0.0
 40
2.0
  1
A GENERIC TRIMMING RULE IS GIVEN ON R-003 DETAIL D2.
  7
OpenSans
 11
650.0
 21
494.5750000000004
 31
0.0
100
AcDbText
  0
TEXT
  5
21B
330
17
100
AcDbEntity
  8
S-NOTE
100
AcDbText
 10
650.0
 20
491.5250000000004
 30
0.0
 40
2.0
  1
IT IS NOT A SUBSTITUTE FOR A DESIGNED DETAIL.
  7
OpenSans
 11
650.0
 21
491.5250000000004
 31
0.0
100
AcDbText
  0
LWPOLYLINE
  5
21C
330
17
100
AcDbEntity
  8
S-TITLE
100
AcDbPolyline
 90
4
 70
1
 10
648.0
 20
486.47500000000036
 10
831.0
 20
486.47500000000036
 10
831.0
 20
552.0
 10
648.0
 20
552.0
  0
LWPOLYLINE
  5
21D
330
17
100
AcDbEntity
  8
S-TITLE
100
AcDbPolyline
 90
4
 70
1
 10
651.0
 20
10.0
 10
831.0
 20
10.0
 10
831.0
 20
110.0
 10
651.0
 20
110.0
  0
LINE
  5
21E
330
17
100
AcDbEntity
  8
S-TITLE
100
AcDbLine
 10
651.0
 20
30.0
 30
0.0
 11
831.0
 21
30.0
 31
0.0
  0
LINE
  5
21F
330
17
100
AcDbEntity
  8
S-TITLE
100
AcDbLine
 10
651.0
 20
42.0
 30
0.0
 11
831.0
 21
42.0
 31
0.0
  0
LINE
  5
220
330
17
100
AcDbEntity
  8
S-TITLE
100
AcDbLine
 10
651.0
 20
54.0
 30
0.0
 11
831.0
 21
54.0
 31
0.0
  0
LINE
  5
221
330
17
100
AcDbEntity
  8
S-TITLE
100
AcDbLine
 10
651.0
 20
66.0
 30
0.0
 11
831.0
 21
66.0
 31
0.0
  0
LINE
  5
222
330
17
100
AcDbEntity
  8
S-TITLE
100
AcDbLine
 10
651.0
 20
88.0
 30
0.0
 11
831.0
 21
88.0
 31
0.0
  0
LINE
  5
223
330
17
100
AcDbEntity
  8
S-TITLE
100
AcDbLine
 10
763.0
 20
10.0
 30
0.0
 11
763.0
 21
30.0
 31
0.0
  0
LINE
  5
224
330
17
100
AcDbEntity
  8
S-TITLE
100
AcDbLine
 10
797.0
 20
10.0
 30
0.0
 11
797.0
 21
30.0
 31
0.0
  0
TEXT
  5
225
330
17
100
AcDbEntity
  8
S-TITLE
100
AcDbText
 10
653.0
 20
24.6
 30
0.0
 40
1.4
  1
DRAWING No.
  7
OpenSans
 11
653.0
 21
24.6
 31
0.0
100
AcDbText
  0
TEXT
  5
226
330
17
100
AcDbEntity
  8
S-TITLE
100
AcDbText
 10
673.0
 20
14.2
 30
0.0
 40
3.5
  1
R-205
  7
OpenSans
 11
673.0
 21
14.2
 31
0.0
100
AcDbText
  0
TEXT
  5
227
330
17
100
AcDbEntity
  8
S-TITLE
100
AcDbText
 10
765.0
 20
24.6
 30
0.0
 40
1.4
  1
REV
  7
OpenSans
 11
765.0
 21
24.6
 31
0.0
100
AcDbText
  0
TEXT
  5
228
330
17
100
AcDbEntity
  8
S-TITLE
100
AcDbText
 10
769.0
 20
14.2
 30
0.0
 40
3.5
  1
SC1
  7
OpenSans
 11
769.0
 21
14.2
 31
0.0
100
AcDbText
  0
TEXT
  5
229
330
17
100
AcDbEntity
  8
S-TITLE
100
AcDbText
 10
799.0
 20
24.6
 30
0.0
 40
1.4
  1
SHEET
  7
OpenSans
 11
799.0
 21
24.6
 31
0.0
100
AcDbText
  0
TEXT
  5
22A
330
17
100
AcDbEntity
  8
S-TITLE
100
AcDbText
 10
799.0
 20
15.0
 30
0.0
 40
1.6
  1
12 OF 30
  7
OpenSans
 11
799.0
 21
15.0
 31
0.0
100
AcDbText
  0
LINE
  5
22B
330
17
100
AcDbEntity
  8
S-TITLE
100
AcDbLine
 10
747.0
 20
30.0
 30
0.0
 11
747.0
 21
42.0
 31
0.0
  0
TEXT
  5
22C
330
17
100
AcDbEntity
  8
S-TITLE
100
AcDbText
 10
653.0
 20
34.4
 30
0.0
 40
1.6
  1
SCALE   1:20, 1:10
  7
OpenSans
 11
653.0
 21
34.4
 31
0.0
100
AcDbText
  0
TEXT
  5
22D
330
17
100
AcDbEntity
  8
S-TITLE
100
AcDbText
 10
749.0
 20
34.4
 30
0.0
 40
1.6
  1
DATE   04.09.2026
  7
OpenSans
 11
749.0
 21
34.4
 31
0.0
100
AcDbText
  0
TEXT
  5
22E
330
17
100
AcDbEntity
  8
S-TITLE
100
AcDbText
 10
653.0
 20
46.4
 30
0.0
 40
1.4
  1
DESIGNED  [PLACEHOLDER]
  7
OpenSans
 11
653.0
 21
46.4
 31
0.0
100
AcDbText
  0
TEXT
  5
22F
330
17
100
AcDbEntity
  8
S-TITLE
100
AcDbText
 10
713.0
 20
46.4
 30
0.0
 40
1.4
  1
CHECKED  [PLACEHOLDER]
  7
OpenSans
 11
713.0
 21
46.4
 31
0.0
100
AcDbText
  0
TEXT
  5
230
330
17
100
AcDbEntity
  8
S-TITLE
100
AcDbText
 10
773.0
 20
46.4
 30
0.0
 40
1.4
  1
APPROVED  [PLACEHOLDER]
  7
OpenSans
 11
773.0
 21
46.4
 31
0.0
100
AcDbText
  0
TEXT
  5
231
330
17
100
AcDbEntity
  8
S-TITLE
100
AcDbText
 10
653.0
 20
58.4
 30
0.0
 40
1.4
  1
STATUS
  7
OpenSans
 11
653.0
 21
58.4
 31
0.0
100
AcDbText
  0
TEXT
  5
232
330
17
100
AcDbEntity
  8
S-BLAST
100
AcDbText
 10
673.0
 20
58.0
 30
0.0
 40
1.6
  1
FOR REVIEW - NOT FOR CONSTRUCTION
  7
OpenSans
 11
673.0
 21
58.0
 31
0.0
100
AcDbText
  0
TEXT
  5
233
330
17
100
AcDbEntity
  8
S-TITLE
100
AcDbText
 10
653.0
 20
83.4
 30
0.0
 40
1.4
  1
DRAWING TITLE
  7
OpenSans
 11
653.0
 21
83.4
 31
0.0
100
AcDbText
  0
TEXT
  5
234
330
17
100
AcDbEntity
  8
S-TITLE
100
AcDbText
 10
653.0
 20
75.4
 30
0.0
 40
2.4
  1
OPENING REINFORCEMENT DETAILS
  7
OpenSans
 11
653.0
 21
75.4
 31
0.0
100
AcDbText
  0
TEXT
  5
235
330
17
100
AcDbEntity
  8
S-TITLE
100
AcDbText
 10
653.0
 20
68.8
 30
0.0
 40
1.4
  1
BLAST DOORS 1 AND 2 · JAMBS · HEADER · REVEAL
  7
OpenSans
 11
653.0
 21
68.8
 31
0.0
100
AcDbText
  0
TEXT
  5
236
330
17
100
AcDbEntity
  8
S-TITLE
100
AcDbText
 10
653.0
 20
105.2
 30
0.0
 40
1.4
  1
PROJECT
  7
OpenSans
 11
653.0
 21
105.2
 31
0.0
100
AcDbText
  0
TEXT
  5
237
330
17
100
AcDbEntity
  8
S-TITLE
100
AcDbText
 10
653.0
 20
99.6
 30
0.0
 40
1.6
  1
UNDERGROUND CBRN-HARDENED BLAST-RESISTANT
  7
OpenSans
 11
653.0
 21
99.6
 31
0.0
100
AcDbText
  0
TEXT
  5
238
330
17
100
AcDbEntity
  8
S-TITLE
100
AcDbText
 10
653.0
 20
95.0
 30
0.0
 40
1.6
  1
PROTECTIVE STRUCTURE  -  PUNE, MAHARASHTRA
  7
OpenSans
 11
653.0
 21
95.0
 31
0.0
100
AcDbText
  0
TEXT
  5
239
330
17
100
AcDbEntity
  8
S-TITLE
100
AcDbText
 10
653.0
 20
90.0
 30
0.0
 40
1.4
  1
STRUCTURAL PHASE 2 REV A + M1   ·   SENTRY POST NOT IN THIS PACKAGE
  7
OpenSans
 11
653.0
 21
90.0
 31
0.0
100
AcDbText
  0
ENDSEC
  0
SECTION
  2
OBJECTS
  0
DICTIONARY
  5
A
330
0
100
AcDbDictionary
281
1
  3
ACAD_COLOR
350
B
  3
ACAD_GROUP
350
C
  3
ACAD_LAYOUT
350
D
  3
ACAD_MATERIAL
350
E
  3
ACAD_MLEADERSTYLE
350
F
  3
ACAD_MLINESTYLE
350
10
  3
ACAD_PLOTSETTINGS
350
11
  3
ACAD_PLOTSTYLENAME
350
12
  3
ACAD_SCALELIST
350
14
  3
ACAD_TABLESTYLE
350
15
  3
ACAD_VISUALSTYLE
350
16
  3
EZDXF_META
350
2D
  0
DICTIONARY
  5
B
330
A
100
AcDbDictionary
281
1
  0
DICTIONARY
  5
C
330
A
100
AcDbDictionary
281
1
  0
DICTIONARY
  5
D
330
A
100
AcDbDictionary
281
1
  3
Model
350
1A
  3
Layout1
350
1E
  0
DICTIONARY
  5
E
330
A
100
AcDbDictionary
281
1
  3
ByBlock
350
1F
  3
ByLayer
350
20
  3
Global
350
21
  0
DICTIONARY
  5
F
330
A
100
AcDbDictionary
281
1
  3
Standard
350
2C
  0
DICTIONARY
  5
10
330
A
100
AcDbDictionary
281
1
  3
Standard
350
22
  0
DICTIONARY
  5
11
330
A
100
AcDbDictionary
281
1
  0
ACDBDICTIONARYWDFLT
  5
12
330
A
100
AcDbDictionary
281
1
  3
Normal
350
13
100
AcDbDictionaryWithDefault
340
13
  0
ACDBPLACEHOLDER
  5
13
330
12
  0
DICTIONARY
  5
14
330
A
100
AcDbDictionary
281
1
  0
DICTIONARY
  5
15
330
A
100
AcDbDictionary
281
1
  0
DICTIONARY
  5
16
330
A
100
AcDbDictionary
281
1
  3
2dWireframe
350
5A
  3
Basic
350
5B
  3
Brighten
350
5C
  3
ColorChange
350
5D
  3
Conceptual
350
5E
  3
Dim
350
5F
  3
EdgeColorOff
350
60
  3
Facepattern
350
61
  3
Flat
350
62
  3
FlatWithEdges
350
63
  3
Gouraud
350
64
  3
GouraudWithEdges
350
65
  3
Hidden
350
66
  3
JitterOff
350
67
  3
Linepattern
350
68
  3
Modeling
350
69
  3
OverhangOff
350
6A
  3
Realistic
350
6B
  3
Shaded
350
6C
  3
Shaded with edges
350
6D
  3
Shades of Gray
350
6E
  3
Sketchy
350
6F
  3
Thicken
350
70
  3
Wireframe
350
71
  3
X-Ray
350
72
  0
LAYOUT
  5
1A
330
D
100
AcDbPlotSettings
  1

  4
A3
  6

 40
7.5
 41
20.0
 42
7.5
 43
20.0
 44
420.0
 45
297.0
 46
0.0
 47
0.0
 48
0.0
 49
0.0
140
0.0
141
0.0
142
1.0
143
1.0
 70
1024
 72
1
 73
0
 74
5
  7

 75
16
 76
0
 77
2
 78
300
147
1.0
148
0.0
149
0.0
100
AcDbLayout
  1
Model
 70
1
 71
0
 10
0.0
 20
0.0
 11
420.0
 21
297.0
 12
0.0
 22
0.0
 32
0.0
 14
1e+20
 24
1e+20
 34
1e+20
 15
-1e+20
 25
-1e+20
 35
-1e+20
146
0.0
 13
0.0
 23
0.0
 33
0.0
 16
1.0
 26
0.0
 36
0.0
 17
0.0
 27
1.0
 37
0.0
 76
1
330
17
  0
LAYOUT
  5
1E
330
D
100
AcDbPlotSettings
  1

  4
A3
  6

 40
7.5
 41
20.0
 42
7.5
 43
20.0
 44
420.0
 45
297.0
 46
0.0
 47
0.0
 48
0.0
 49
0.0
140
0.0
141
0.0
142
1.0
143
1.0
 70
0
 72
1
 73
0
 74
5
  7

 75
16
 76
0
 77
2
 78
300
147
1.0
148
0.0
149
0.0
100
AcDbLayout
  1
Layout1
 70
1
 71
1
 10
0.0
 20
0.0
 11
420.0
 21
297.0
 12
0.0
 22
0.0
 32
0.0
 14
1e+20
 24
1e+20
 34
1e+20
 15
-1e+20
 25
-1e+20
 35
-1e+20
146
0.0
 13
0.0
 23
0.0
 33
0.0
 16
1.0
 26
0.0
 36
0.0
 17
0.0
 27
1.0
 37
0.0
 76
1
330
1B
  0
MATERIAL
  5
1F
102
{ACAD_REACTORS
330
E
102
}
330
E
100
AcDbMaterial
  1
ByBlock
  2

 70
0
 40
1.0
 71
1
 41
1.0
 91
-1023410177
 42
1.0
 72
1
  3

 73
1
 74
1
 75
1
 44
0.5
 73
0
 45
1.0
 46
1.0
 77
1
  4

 78
1
 79
1
170
1
 48
1.0
171
1
  6

172
1
173
1
174
1
140
1.0
141
1.0
175
1
  7

176
1
177
1
178
1
143
1.0
179
1
  8

270
1
271
1
272
1
145
1.0
146
1.0
273
1
  9

274
1
275
1
276
1
 42
1.0
 72
1
  3

 73
1
 74
1
 75
1
 94
63
  0
MATERIAL
  5
20
102
{ACAD_REACTORS
330
E
102
}
330
E
100
AcDbMaterial
  1
ByLayer
  2

 70
0
 40
1.0
 71
1
 41
1.0
 91
-1023410177
 42
1.0
 72
1
  3

 73
1
 74
1
 75
1
 44
0.5
 73
0
 45
1.0
 46
1.0
 77
1
  4

 78
1
 79
1
170
1
 48
1.0
171
1
  6

172
1
173
1
174
1
140
1.0
141
1.0
175
1
  7

176
1
177
1
178
1
143
1.0
179
1
  8

270
1
271
1
272
1
145
1.0
146
1.0
273
1
  9

274
1
275
1
276
1
 42
1.0
 72
1
  3

 73
1
 74
1
 75
1
 94
63
  0
MATERIAL
  5
21
102
{ACAD_REACTORS
330
E
102
}
330
E
100
AcDbMaterial
  1
Global
  2

 70
0
 40
1.0
 71
1
 41
1.0
 91
-1023410177
 42
1.0
 72
1
  3

 73
1
 74
1
 75
1
 44
0.5
 73
0
 45
1.0
 46
1.0
 77
1
  4

 78
1
 79
1
170
1
 48
1.0
171
1
  6

172
1
173
1
174
1
140
1.0
141
1.0
175
1
  7

176
1
177
1
178
1
143
1.0
179
1
  8

270
1
271
1
272
1
145
1.0
146
1.0
273
1
  9

274
1
275
1
276
1
 42
1.0
 72
1
  3

 73
1
 74
1
 75
1
 94
63
  0
MLINESTYLE
  5
22
102
{ACAD_REACTORS
330
10
102
}
330
10
100
AcDbMlineStyle
  2
Standard
 70
0
  3

 62
256
 51
90.0
 52
90.0
 71
2
 49
0.5
 62
256
  6
BYLAYER
 49
-0.5
 62
256
  6
BYLAYER
  0
MLEADERSTYLE
  5
2C
102
{ACAD_REACTORS
330
F
102
}
330
F
100
AcDbMLeaderStyle
179
2
170
2
171
1
172
0
 90
2
 40
0.0
 41
0.0
173
1
 91
-1056964608
 92
-2
290
1
 42
2.0
291
1
 43
8.0
  3
Standard
 44
4.0
300

342
29
174
1
175
1
176
0
178
1
 93
-1056964608
 45
4.0
292
0
297
0
 46
4.0
 94
-1056964608
 47
1.0
 49
1.0
140
1.0
294
1
141
0.0
177
0
142
1.0
295
0
296
0
143
3.75
271
0
272
9
273
9
  0
DICTIONARY
  5
2D
330
A
100
AcDbDictionary
280
1
281
1
  3
CREATED_BY_EZDXF
350
2E
  3
WRITTEN_BY_EZDXF
350
23C
  0
DICTIONARYVAR
  5
2E
330
2D
100
DictionaryVariables
280
0
  1
1.4.4 @ 2026-09-10T10:31:07.183895+00:00
  0
VISUALSTYLE
  5
5A
102
{ACAD_REACTORS
330
16
102
}
330
16
100
AcDbVisualStyle
  2
2dWireframe
 70
4
 90
0
 40
0.6
 62
7
290
0
291
0
  0
VISUALSTYLE
  5
5B
102
{ACAD_REACTORS
330
16
102
}
330
16
100
AcDbVisualStyle
  2
Basic
 70
7
 90
1
 40
0.6
 62
7
290
0
291
1
  0
VISUALSTYLE
  5
5C
102
{ACAD_REACTORS
330
16
102
}
330
16
100
AcDbVisualStyle
  2
Brighten
 70
12
 90
2
 40
0.6
 62
7
290
0
291
1
  0
VISUALSTYLE
  5
5D
102
{ACAD_REACTORS
330
16
102
}
330
16
100
AcDbVisualStyle
  2
ColorChange
 70
16
 90
2
 40
0.6
 62
8
290
0
291
1
  0
VISUALSTYLE
  5
5E
102
{ACAD_REACTORS
330
16
102
}
330
16
100
AcDbVisualStyle
  2
Conceptual
 70
9
 90
3
 40
0.6
 62
7
290
0
291
0
  0
VISUALSTYLE
  5
5F
102
{ACAD_REACTORS
330
16
102
}
330
16
100
AcDbVisualStyle
  2
Dim
 70
11
 90
2
 40
0.6
 62
7
290
0
291
1
  0
VISUALSTYLE
  5
60
102
{ACAD_REACTORS
330
16
102
}
330
16
100
AcDbVisualStyle
  2
EdgeColorOff
 70
22
 90
2
 40
0.6
 62
7
290
0
291
1
  0
VISUALSTYLE
  5
61
102
{ACAD_REACTORS
330
16
102
}
330
16
100
AcDbVisualStyle
  2
Facepattern
 70
15
 90
2
 40
0.6
 62
7
290
0
291
1
  0
VISUALSTYLE
  5
62
102
{ACAD_REACTORS
330
16
102
}
330
16
100
AcDbVisualStyle
  2
Flat
 70
0
 90
2
 40
0.6
 62
7
290
0
291
1
  0
VISUALSTYLE
  5
63
102
{ACAD_REACTORS
330
16
102
}
330
16
100
AcDbVisualStyle
  2
FlatWithEdges
 70
1
 90
2
 40
0.6
 62
7
290
0
291
1
  0
VISUALSTYLE
  5
64
102
{ACAD_REACTORS
330
16
102
}
330
16
100
AcDbVisualStyle
  2
Gouraud
 70
2
 90
2
 40
0.6
 62
7
290
0
291
1
  0
VISUALSTYLE
  5
65
102
{ACAD_REACTORS
330
16
102
}
330
16
100
AcDbVisualStyle
  2
GouraudWithEdges
 70
3
 90
2
 40
0.6
 62
7
290
0
291
1
  0
VISUALSTYLE
  5
66
102
{ACAD_REACTORS
330
16
102
}
330
16
100
AcDbVisualStyle
  2
Hidden
 70
6
 90
1
 40
0.6
 62
7
290
0
291
0
  0
VISUALSTYLE
  5
67
102
{ACAD_REACTORS
330
16
102
}
330
16
100
AcDbVisualStyle
  2
JitterOff
 70
20
 90
2
 40
0.6
 62
7
290
0
291
1
  0
VISUALSTYLE
  5
68
102
{ACAD_REACTORS
330
16
102
}
330
16
100
AcDbVisualStyle
  2
Linepattern
 70
14
 90
2
 40
0.6
 62
7
290
0
291
1
  0
VISUALSTYLE
  5
69
102
{ACAD_REACTORS
330
16
102
}
330
16
100
AcDbVisualStyle
  2
Modeling
 70
10
 90
2
 40
0.6
 62
7
290
0
291
0
  0
VISUALSTYLE
  5
6A
102
{ACAD_REACTORS
330
16
102
}
330
16
100
AcDbVisualStyle
  2
OverhangOff
 70
21
 90
2
 40
0.6
 62
7
290
0
291
1
  0
VISUALSTYLE
  5
6B
102
{ACAD_REACTORS
330
16
102
}
330
16
100
AcDbVisualStyle
  2
Realistic
 70
8
 90
2
 40
0.6
 62
7
290
0
291
0
  0
VISUALSTYLE
  5
6C
102
{ACAD_REACTORS
330
16
102
}
330
16
100
AcDbVisualStyle
  2
Shaded
 70
27
 90
2
 40
0.6
 62
7
290
0
291
0
  0
VISUALSTYLE
  5
6D
102
{ACAD_REACTORS
330
16
102
}
330
16
100
AcDbVisualStyle
  2
Shaded with edges
 70
26
 90
2
 40
0.6
 62
7
290
0
291
0
  0
VISUALSTYLE
  5
6E
102
{ACAD_REACTORS
330
16
102
}
330
16
100
AcDbVisualStyle
  2
Shades of Gray
 70
23
 90
2
 40
0.6
 62
7
290
0
291
0
  0
VISUALSTYLE
  5
6F
102
{ACAD_REACTORS
330
16
102
}
330
16
100
AcDbVisualStyle
  2
Sketchy
 70
24
 90
1
 40
0.6
 62
7
290
0
291
0
  0
VISUALSTYLE
  5
70
102
{ACAD_REACTORS
330
16
102
}
330
16
100
AcDbVisualStyle
  2
Thicken
 70
13
 90
2
 40
0.6
 62
7
290
0
291
1
  0
VISUALSTYLE
  5
71
102
{ACAD_REACTORS
330
16
102
}
330
16
100
AcDbVisualStyle
  2
Wireframe
 70
5
 90
0
 40
0.6
 62
7
290
0
291
0
  0
VISUALSTYLE
  5
72
102
{ACAD_REACTORS
330
16
102
}
330
16
100
AcDbVisualStyle
  2
X-Ray
 70
25
 90
2
 40
0.5
 62
7
290
0
291
0
  0
DICTIONARYVAR
  5
23C
330
2D
100
DictionaryVariables
280
0
  1
1.4.4 @ 2026-09-10T10:31:07.198514+00:00
  0
ENDSEC
  0
EOF
