  0
SECTION
  2
HEADER
  9
$ACADVER
  1
AC1024
  9
$ACADMAINTVER
 70
6
  9
$DWGCODEPAGE
  3
ANSI_1252
  9
$LASTSAVEDBY
  1
ezdxf
  9
$INSBASE
 10
0.0
 20
0.0
 30
0.0
  9
$EXTMIN
 10
1e+20
 20
1e+20
 30
1e+20
  9
$EXTMAX
 10
-1e+20
 20
-1e+20
 30
-1e+20
  9
$LIMMIN
 10
0.0
 20
0.0
  9
$LIMMAX
 10
420.0
 20
297.0
  9
$ORTHOMODE
 70
0
  9
$REGENMODE
 70
1
  9
$FILLMODE
 70
1
  9
$QTEXTMODE
 70
0
  9
$MIRRTEXT
 70
1
  9
$LTSCALE
 40
1.0
  9
$ATTMODE
 70
1
  9
$TEXTSIZE
 40
2.5
  9
$TRACEWID
 40
1.0
  9
$TEXTSTYLE
  7
OpenSans
  9
$CLAYER
  8
0
  9
$CELTYPE
  6
ByLayer
  9
$CECOLOR
 62
256
  9
$CELTSCALE
 40
1.0
  9
$DISPSILH
 70
0
  9
$DIMSCALE
 40
1.0
  9
$DIMASZ
 40
0.175
  9
$DIMEXO
 40
0.125
  9
$DIMDLI
 40
3.75
  9
$DIMRND
 40
0.0
  9
$DIMDLE
 40
0.0
  9
$DIMEXE
 40
0.375
  9
$DIMTP
 40
0.0
  9
$DIMTM
 40
0.0
  9
$DIMTXT
 40
0.25
  9
$DIMCEN
 40
2.5
  9
$DIMTSZ
 40
0.0
  9
$DIMTOL
 70
0
  9
$DIMLIM
 70
0
  9
$DIMTIH
 70
0
  9
$DIMTOH
 70
0
  9
$DIMSE1
 70
0
  9
$DIMSE2
 70
0
  9
$DIMTAD
 70
1
  9
$DIMZIN
 70
12
  9
$DIMBLK
  1
ARCHTICK
  9
$DIMASO
 70
1
  9
$DIMSHO
 70
1
  9
$DIMPOST
  1

  9
$DIMAPOST
  1

  9
$DIMALT
 70
0
  9
$DIMALTD
 70
3
  9
$DIMALTF
 40
0.03937007874
  9
$DIMLFAC
 40
100.0
  9
$DIMTOFL
 70
1
  9
$DIMTVP
 40
0.0
  9
$DIMTIX
 70
0
  9
$DIMSOXD
 70
0
  9
$DIMSAH
 70
0
  9
$DIMBLK1
  1

  9
$DIMBLK2
  1

  9
$DIMSTYLE
  2
EZDXF
  9
$DIMCLRD
 70
0
  9
$DIMCLRE
 70
0
  9
$DIMCLRT
 70
0
  9
$DIMTFAC
 40
0.5
  9
$DIMGAP
 40
0.1
  9
$DIMJUST
 70
0
  9
$DIMSD1
 70
0
  9
$DIMSD2
 70
0
  9
$DIMTOLJ
 70
0
  9
$DIMTZIN
 70
8
  9
$DIMALTZ
 70
0
  9
$DIMALTTZ
 70
0
  9
$DIMUPT
 70
1
  9
$DIMDEC
 70
2
  9
$DIMTDEC
 70
2
  9
$DIMALTU
 70
2
  9
$DIMALTTD
 70
3
  9
$DIMTXSTY
  7
OpenSansCondensed-Light
  9
$DIMAUNIT
 70
0
  9
$DIMADEC
 70
2
  9
$DIMALTRND
 40
0.0
  9
$DIMAZIN
 70
3
  9
$DIMDSEP
 70
46
  9
$DIMATFIT
 70
3
  9
$DIMFRAC
 70
0
  9
$DIMLDRBLK
  1

  9
$DIMLUNIT
 70
2
  9
$DIMLWD
 70
-2
  9
$DIMLWE
 70
-2
  9
$DIMTMOVE
 70
2
  9
$DIMFXL
 40
1.0
  9
$DIMFXLON
 70
0
  9
$DIMJOGANG
 40
0.785398163397
  9
$DIMTFILL
 70
0
  9
$DIMTFILLCLR
 70
0
  9
$DIMARCSYM
 70
0
  9
$DIMLTYPE
  6

  9
$DIMLTEX1
  6

  9
$DIMLTEX2
  6

  9
$DIMTXTDIRECTION
 70
0
  9
$LUNITS
 70
2
  9
$LUPREC
 70
4
  9
$SKETCHINC
 40
1.0
  9
$FILLETRAD
 40
10.0
  9
$AUNITS
 70
0
  9
$AUPREC
 70
2
  9
$MENU
  1
.
  9
$ELEVATION
 40
0.0
  9
$PELEVATION
 40
0.0
  9
$THICKNESS
 40
0.0
  9
$LIMCHECK
 70
0
  9
$CHAMFERA
 40
0.0
  9
$CHAMFERB
 40
0.0
  9
$CHAMFERC
 40
0.0
  9
$CHAMFERD
 40
0.0
  9
$SKPOLY
 70
0
  9
$TDCREATE
 40
2461289.097974537
  9
$TDUCREATE
 40
2458532.153996898
  9
$TDUPDATE
 40
2461289.097974537
  9
$TDUUPDATE
 40
2458532.1544311
  9
$TDINDWG
 40
0.0
  9
$TDUSRTIMER
 40
0.0
  9
$USRTIMER
 70
1
  9
$ANGBASE
 50
0.0
  9
$ANGDIR
 70
0
  9
$PDMODE
 70
0
  9
$PDSIZE
 40
0.0
  9
$PLINEWID
 40
0.0
  9
$SPLFRAME
 70
0
  9
$SPLINETYPE
 70
6
  9
$SPLINESEGS
 70
8
  9
$HANDSEED
  5
2C2
  9
$SURFTAB1
 70
6
  9
$SURFTAB2
 70
6
  9
$SURFTYPE
 70
6
  9
$SURFU
 70
6
  9
$SURFV
 70
6
  9
$UCSBASE
  2

  9
$UCSNAME
  2

  9
$UCSORG
 10
0.0
 20
0.0
 30
0.0
  9
$UCSXDIR
 10
1.0
 20
0.0
 30
0.0
  9
$UCSYDIR
 10
0.0
 20
1.0
 30
0.0
  9
$UCSORTHOREF
  2

  9
$UCSORTHOVIEW
 70
0
  9
$UCSORGTOP
 10
0.0
 20
0.0
 30
0.0
  9
$UCSORGBOTTOM
 10
0.0
 20
0.0
 30
0.0
  9
$UCSORGLEFT
 10
0.0
 20
0.0
 30
0.0
  9
$UCSORGRIGHT
 10
0.0
 20
0.0
 30
0.0
  9
$UCSORGFRONT
 10
0.0
 20
0.0
 30
0.0
  9
$UCSORGBACK
 10
0.0
 20
0.0
 30
0.0
  9
$PUCSBASE
  2

  9
$PUCSNAME
  2

  9
$PUCSORG
 10
0.0
 20
0.0
 30
0.0
  9
$PUCSXDIR
 10
1.0
 20
0.0
 30
0.0
  9
$PUCSYDIR
 10
0.0
 20
1.0
 30
0.0
  9
$PUCSORTHOREF
  2

  9
$PUCSORTHOVIEW
 70
0
  9
$PUCSORGTOP
 10
0.0
 20
0.0
 30
0.0
  9
$PUCSORGBOTTOM
 10
0.0
 20
0.0
 30
0.0
  9
$PUCSORGLEFT
 10
0.0
 20
0.0
 30
0.0
  9
$PUCSORGRIGHT
 10
0.0
 20
0.0
 30
0.0
  9
$PUCSORGFRONT
 10
0.0
 20
0.0
 30
0.0
  9
$PUCSORGBACK
 10
0.0
 20
0.0
 30
0.0
  9
$USERI1
 70
0
  9
$USERI2
 70
0
  9
$USERI3
 70
0
  9
$USERI4
 70
0
  9
$USERI5
 70
0
  9
$USERR1
 40
0.0
  9
$USERR2
 40
0.0
  9
$USERR3
 40
0.0
  9
$USERR4
 40
0.0
  9
$USERR5
 40
0.0
  9
$WORLDVIEW
 70
1
  9
$SHADEDGE
 70
3
  9
$SHADEDIF
 70
70
  9
$TILEMODE
 70
1
  9
$MAXACTVP
 70
64
  9
$PINSBASE
 10
0.0
 20
0.0
 30
0.0
  9
$PLIMCHECK
 70
0
  9
$PEXTMIN
 10
1e+20
 20
1e+20
 30
1e+20
  9
$PEXTMAX
 10
-1e+20
 20
-1e+20
 30
-1e+20
  9
$PLIMMIN
 10
0.0
 20
0.0
  9
$PLIMMAX
 10
420.0
 20
297.0
  9
$UNITMODE
 70
0
  9
$VISRETAIN
 70
1
  9
$PLINEGEN
 70
0
  9
$PSLTSCALE
 70
1
  9
$TREEDEPTH
 70
3020
  9
$CMLSTYLE
  2
Standard
  9
$CMLJUST
 70
0
  9
$CMLSCALE
 40
20.0
  9
$PROXYGRAPHICS
 70
1
  9
$MEASUREMENT
 70
1
  9
$CELWEIGHT
370
-1
  9
$ENDCAPS
280
0
  9
$JOINSTYLE
280
0
  9
$LWDISPLAY
290
0
  9
$INSUNITS
 70
4
  9
$HYPERLINKBASE
  1

  9
$STYLESHEET
  1

  9
$XEDIT
290
1
  9
$CEPSNTYPE
380
0
  9
$PSTYLEMODE
290
1
  9
$FINGERPRINTGUID
  2
{94D1430A-BB6B-43D5-8FD2-FC567D897203}
  9
$VERSIONGUID
  2
{D0BE1C5F-2B3D-4C57-9CD6-16002BA22D3F}
  9
$EXTNAMES
290
1
  9
$PSVPSCALE
 40
0.0
  9
$OLESTARTUP
290
0
  9
$SORTENTS
280
127
  9
$INDEXCTL
280
0
  9
$HIDETEXT
280
1
  9
$XCLIPFRAME
280
1
  9
$HALOGAP
280
0
  9
$OBSCOLOR
 70
257
  9
$OBSLTYPE
280
0
  9
$INTERSECTIONDISPLAY
280
0
  9
$INTERSECTIONCOLOR
 70
257
  9
$DIMASSOC
280
2
  9
$PROJECTNAME
  1

  9
$CAMERADISPLAY
290
0
  9
$LENSLENGTH
 40
50.0
  9
$CAMERAHEIGHT
 40
0.0
  9
$STEPSPERSEC
 40
24.0
  9
$STEPSIZE
 40
100.0
  9
$3DDWFPREC
 40
2.0
  9
$PSOLWIDTH
 40
0.005
  9
$PSOLHEIGHT
 40
0.08
  9
$LOFTANG1
 40
1.570796326795
  9
$LOFTANG2
 40
1.570796326795
  9
$LOFTMAG1
 40
0.0
  9
$LOFTMAG2
 40
0.0
  9
$LOFTPARAM
 70
7
  9
$LOFTNORMALS
280
1
  9
$LATITUDE
 40
37.795
  9
$LONGITUDE
 40
-122.394
  9
$NORTHDIRECTION
 40
0.0
  9
$TIMEZONE
 70
-8000
  9
$LIGHTGLYPHDISPLAY
280
1
  9
$TILEMODELIGHTSYNCH
280
1
  9
$CMATERIAL
347
20
  9
$SOLIDHIST
280
0
  9
$SHOWHIST
280
1
  9
$DWFFRAME
280
2
  9
$DGNFRAME
280
2
  9
$REALWORLDSCALE
290
1
  9
$INTERFERECOLOR
 62
256
  9
$CSHADOW
280
0
  9
$SHADOWPLANELOCATION
 40
0.0
  0
ENDSEC
  0
SECTION
  2
CLASSES
  0
CLASS
  1
ACDBDICTIONARYWDFLT
  2
AcDbDictionaryWithDefault
  3
ObjectDBX Classes
 90
0
 91
0
280
0
281
0
  0
CLASS
  1
SUN
  2
AcDbSun
  3
SCENEOE
 90
1153
 91
0
280
0
281
0
  0
CLASS
  1
VISUALSTYLE
  2
AcDbVisualStyle
  3
ObjectDBX Classes
 90
4095
 91
0
280
0
281
0
  0
CLASS
  1
MATERIAL
  2
AcDbMaterial
  3
ObjectDBX Classes
 90
1153
 91
0
280
0
281
0
  0
CLASS
  1
SCALE
  2
AcDbScale
  3
ObjectDBX Classes
 90
1153
 91
0
280
0
281
0
  0
CLASS
  1
TABLESTYLE
  2
AcDbTableStyle
  3
ObjectDBX Classes
 90
4095
 91
0
280
0
281
0
  0
CLASS
  1
MLEADERSTYLE
  2
AcDbMLeaderStyle
  3
ACDB_MLEADERSTYLE_CLASS
 90
4095
 91
0
280
0
281
0
  0
CLASS
  1
DICTIONARYVAR
  2
AcDbDictionaryVar
  3
ObjectDBX Classes
 90
0
 91
0
280
0
281
0
  0
CLASS
  1
CELLSTYLEMAP
  2
AcDbCellStyleMap
  3
ObjectDBX Classes
 90
1152
 91
0
280
0
281
0
  0
CLASS
  1
MENTALRAYRENDERSETTINGS
  2
AcDbMentalRayRenderSettings
  3
SCENEOE
 90
1024
 91
0
280
0
281
0
  0
CLASS
  1
ACDBDETAILVIEWSTYLE
  2
AcDbDetailViewStyle
  3
ObjectDBX Classes
 90
1025
 91
0
280
0
281
0
  0
CLASS
  1
ACDBSECTIONVIEWSTYLE
  2
AcDbSectionViewStyle
  3
ObjectDBX Classes
 90
1025
 91
0
280
0
281
0
  0
CLASS
  1
RASTERVARIABLES
  2
AcDbRasterVariables
  3
ISM
 90
0
 91
0
280
0
281
0
  0
CLASS
  1
ACDBPLACEHOLDER
  2
AcDbPlaceHolder
  3
ObjectDBX Classes
 90
0
 91
0
280
0
281
0
  0
CLASS
  1
LAYOUT
  2
AcDbLayout
  3
ObjectDBX Classes
 90
0
 91
0
280
0
281
0
  0
ENDSEC
  0
SECTION
  2
TABLES
  0
TABLE
  2
VPORT
  5
8
330
0
100
AcDbSymbolTable
 70
1
  0
VPORT
  5
23
330
8
100
AcDbSymbolTableRecord
100
AcDbViewportTableRecord
  2
*Active
 70
0
 10
0.0
 20
0.0
 11
1.0
 21
1.0
 12
0.0
 22
0.0
 13
0.0
 23
0.0
 14
0.5
 24
0.5
 15
0.5
 25
0.5
 16
0.0
 26
0.0
 36
1.0
 17
0.0
 27
0.0
 37
0.0
 40
1000.0
 41
1.34
 42
50.0
 43
0.0
 44
0.0
 50
0.0
 51
0.0
 71
0
 72
1000
 73
1
 74
3
 75
0
 76
0
 77
0
 78
0
281
0
 65
0
146
0.0
  0
ENDTAB
  0
TABLE
  2
LTYPE
  5
2
330
0
100
AcDbSymbolTable
 70
21
  0
LTYPE
  5
24
330
2
100
AcDbSymbolTableRecord
100
AcDbLinetypeTableRecord
  2
ByBlock
 70
0
  3

 72
65
 73
0
 40
0.0
  0
LTYPE
  5
25
330
2
100
AcDbSymbolTableRecord
100
AcDbLinetypeTableRecord
  2
ByLayer
 70
0
  3

 72
65
 73
0
 40
0.0
  0
LTYPE
  5
26
330
2
100
AcDbSymbolTableRecord
100
AcDbLinetypeTableRecord
  2
Continuous
 70
0
  3

 72
65
 73
0
 40
0.0
  0
LTYPE
  5
2F
330
2
100
AcDbSymbolTableRecord
100
AcDbLinetypeTableRecord
  2
CENTER
 70
0
  3
Center ____ _ ____ _ ____ _ ____ _ ____ _ ____
 72
65
 73
4
 40
5.08
 49
3.175
 74
0
 49
-0.635
 74
0
 49
0.635
 74
0
 49
-0.635
 74
0
  0
LTYPE
  5
30
330
2
100
AcDbSymbolTableRecord
100
AcDbLinetypeTableRecord
  2
CENTERX2
 70
0
  3
Center (2x) ________  __  ________  __  ________
 72
65
 73
4
 40
8.89
 49
6.35
 74
0
 49
-0.635
 74
0
 49
1.27
 74
0
 49
-0.635
 74
0
  0
LTYPE
  5
31
330
2
100
AcDbSymbolTableRecord
100
AcDbLinetypeTableRecord
  2
CENTER2
 70
0
  3
Center (.5x) ____ _ ____ _ ____ _ ____ _ ____
 72
65
 73
4
 40
2.54
 49
1.587
 74
0
 49
-0.318
 74
0
 49
0.318
 74
0
 49
-0.318
 74
0
  0
LTYPE
  5
32
330
2
100
AcDbSymbolTableRecord
100
AcDbLinetypeTableRecord
  2
DASHED
 70
0
  3
Dashed __ __ __ __ __ __ __ __ __ __ __ __ __ _
 72
65
 73
2
 40
1.524
 49
1.27
 74
0
 49
-0.254
 74
0
  0
LTYPE
  5
33
330
2
100
AcDbSymbolTableRecord
100
AcDbLinetypeTableRecord
  2
DASHEDX2
 70
0
  3
Dashed (2x) ____  ____  ____  ____  ____  ____
 72
65
 73
2
 40
3.048
 49
2.54
 74
0
 49
-0.508
 74
0
  0
LTYPE
  5
34
330
2
100
AcDbSymbolTableRecord
100
AcDbLinetypeTableRecord
  2
DASHED2
 70
0
  3
Dashed (.5x) _ _ _ _ _ _ _ _ _ _ _ _ _ _
 72
65
 73
2
 40
0.762
 49
0.635
 74
0
 49
-0.127
 74
0
  0
LTYPE
  5
35
330
2
100
AcDbSymbolTableRecord
100
AcDbLinetypeTableRecord
  2
PHANTOM
 70
0
  3
Phantom ______  __  __  ______  __  __  ______
 72
65
 73
6
 40
6.35
 49
3.175
 74
0
 49
-0.635
 74
0
 49
0.635
 74
0
 49
-0.635
 74
0
 49
0.635
 74
0
 49
-0.635
 74
0
  0
LTYPE
  5
36
330
2
100
AcDbSymbolTableRecord
100
AcDbLinetypeTableRecord
  2
PHANTOMX2
 70
0
  3
Phantom (2x)____________    ____    ____    ____________
 72
65
 73
6
 40
10.795
 49
6.35
 74
0
 49
-0.635
 74
0
 49
1.27
 74
0
 49
-0.635
 74
0
 49
1.27
 74
0
 49
-0.635
 74
0
  0
LTYPE
  5
37
330
2
100
AcDbSymbolTableRecord
100
AcDbLinetypeTableRecord
  2
PHANTOM2
 70
0
  3
Phantom (.5x) ___ _ _ ___ _ _ ___ _ _ ___ _ _ ___
 72
65
 73
6
 40
3.175
 49
1.587
 74
0
 49
-0.318
 74
0
 49
0.318
 74
0
 49
-0.318
 74
0
 49
0.318
 74
0
 49
-0.318
 74
0
  0
LTYPE
  5
38
330
2
100
AcDbSymbolTableRecord
100
AcDbLinetypeTableRecord
  2
DASHDOT
 70
0
  3
Dash dot __ . __ . __ . __ . __ . __ . __ . __
 72
65
 73
4
 40
3.556
 49
2.54
 74
0
 49
-0.508
 74
0
 49
0.0
 74
0
 49
-0.508
 74
0
  0
LTYPE
  5
39
330
2
100
AcDbSymbolTableRecord
100
AcDbLinetypeTableRecord
  2
DASHDOTX2
 70
0
  3
Dash dot (2x) ____  .  ____  .  ____  .  ____
 72
65
 73
4
 40
6.096
 49
5.08
 74
0
 49
-0.508
 74
0
 49
0.0
 74
0
 49
-0.508
 74
0
  0
LTYPE
  5
3A
330
2
100
AcDbSymbolTableRecord
100
AcDbLinetypeTableRecord
  2
DASHDOT2
 70
0
  3
Dash dot (.5x) _ . _ . _ . _ . _ . _ . _ . _
 72
65
 73
4
 40
1.778
 49
1.27
 74
0
 49
-0.254
 74
0
 49
0.0
 74
0
 49
-0.254
 74
0
  0
LTYPE
  5
3B
330
2
100
AcDbSymbolTableRecord
100
AcDbLinetypeTableRecord
  2
DOT
 70
0
  3
Dot .  .  .  .  .  .  .  .  .  .  .  .  .  .  .  .
 72
65
 73
2
 40
0.508
 49
0.0
 74
0
 49
-0.508
 74
0
  0
LTYPE
  5
3C
330
2
100
AcDbSymbolTableRecord
100
AcDbLinetypeTableRecord
  2
DOTX2
 70
0
  3
Dot (2x) .    .    .    .    .    .    .    . 
 72
65
 73
2
 40
1.016
 49
0.0
 74
0
 49
-1.016
 74
0
  0
LTYPE
  5
3D
330
2
100
AcDbSymbolTableRecord
100
AcDbLinetypeTableRecord
  2
DOT2
 70
0
  3
Dot (.5) . . . . . . . . . . . . . . . . . . . 
 72
65
 73
2
 40
0.254
 49
0.0
 74
0
 49
-0.254
 74
0
  0
LTYPE
  5
3E
330
2
100
AcDbSymbolTableRecord
100
AcDbLinetypeTableRecord
  2
DIVIDE
 70
0
  3
Divide __ . . __ . . __ . . __ . . __ . . __
 72
65
 73
6
 40
4.064
 49
2.54
 74
0
 49
-0.508
 74
0
 49
0.0
 74
0
 49
-0.508
 74
0
 49
0.0
 74
0
 49
-0.508
 74
0
  0
LTYPE
  5
3F
330
2
100
AcDbSymbolTableRecord
100
AcDbLinetypeTableRecord
  2
DIVIDEX2
 70
0
  3
Divide (2x) ____  . .  ____  . .  ____  . .  ____
 72
65
 73
6
 40
6.604
 49
5.08
 74
0
 49
-0.508
 74
0
 49
0.0
 74
0
 49
-0.508
 74
0
 49
0.0
 74
0
 49
-0.508
 74
0
  0
LTYPE
  5
40
330
2
100
AcDbSymbolTableRecord
100
AcDbLinetypeTableRecord
  2
DIVIDE2
 70
0
  3
Divide(.5x) _ . _ . _ . _ . _ . _ . _ . _
 72
65
 73
6
 40
2.032
 49
1.27
 74
0
 49
-0.254
 74
0
 49
0.0
 74
0
 49
-0.254
 74
0
 49
0.0
 74
0
 49
-0.254
 74
0
  0
ENDTAB
  0
TABLE
  2
LAYER
  5
1
330
0
100
AcDbSymbolTable
 70
26
  0
LAYER
  5
27
330
1
100
AcDbSymbolTableRecord
100
AcDbLayerTableRecord
  2
0
 70
0
 62
7
  6
Continuous
370
-3
390
13
347
21
  0
LAYER
  5
28
330
1
100
AcDbSymbolTableRecord
100
AcDbLayerTableRecord
  2
Defpoints
 70
0
 62
7
  6
Continuous
290
0
370
-3
390
13
347
21
  0
LAYER
  5
8A
330
1
100
AcDbSymbolTableRecord
100
AcDbLayerTableRecord
  2
S-CONCRETE
 70
0
 62
7
  6
Continuous
370
-3
390
13
347
21
1001
AcAecLayerStandard
1000

1000
Structural concrete outlines (cut)
  0
LAYER
  5
8C
330
1
100
AcDbSymbolTableRecord
100
AcDbLayerTableRecord
  2
S-CONCRETE-THIN
 70
0
 62
7
  6
Continuous
370
-3
390
13
347
21
1001
AcAecLayerStandard
1000

1000
Concrete beyond the cut plane
  0
LAYER
  5
8D
330
1
100
AcDbSymbolTableRecord
100
AcDbLayerTableRecord
  2
S-HIDDEN
 70
0
 62
8
  6
Continuous
370
-3
390
13
347
21
1001
AcAecLayerStandard
1000

1000
Concrete / features beyond, hidden
  0
LAYER
  5
8E
330
1
100
AcDbSymbolTableRecord
100
AcDbLayerTableRecord
  2
S-REBAR-MAIN
 70
0
 62
1
  6
Continuous
370
-3
390
13
347
21
1001
AcAecLayerStandard
1000

1000
Main reinforcement
  0
LAYER
  5
8F
330
1
100
AcDbSymbolTableRecord
100
AcDbLayerTableRecord
  2
S-REBAR-DIST
 70
0
 62
3
  6
Continuous
370
-3
390
13
347
21
1001
AcAecLayerStandard
1000

1000
Distribution reinforcement
  0
LAYER
  5
90
330
1
100
AcDbSymbolTableRecord
100
AcDbLayerTableRecord
  2
S-REBAR-STIRRUP
 70
0
 62
6
  6
Continuous
370
-3
390
13
347
21
1001
AcAecLayerStandard
1000

1000
Links and stirrups
  0
LAYER
  5
91
330
1
100
AcDbSymbolTableRecord
100
AcDbLayerTableRecord
  2
S-REBAR-TIE
 70
0
 62
6
  6
Continuous
370
-3
390
13
347
21
1001
AcAecLayerStandard
1000

1000
Ties, cross-ties, starters
  0
LAYER
  5
92
330
1
100
AcDbSymbolTableRecord
100
AcDbLayerTableRecord
  2
S-REBAR-SEC
 70
0
 62
4
  6
Continuous
370
-3
390
13
347
21
1001
AcAecLayerStandard
1000

1000
Trimmers, secondary and additional bars
  0
LAYER
  5
93
330
1
100
AcDbSymbolTableRecord
100
AcDbLayerTableRecord
  2
S-DIM
 70
0
 62
4
  6
Continuous
370
-3
390
13
347
21
1001
AcAecLayerStandard
1000

1000
Dimensions
  0
LAYER
  5
94
330
1
100
AcDbSymbolTableRecord
100
AcDbLayerTableRecord
  2
S-TEXT
 70
0
 62
7
  6
Continuous
370
-3
390
13
347
21
1001
AcAecLayerStandard
1000

1000
General annotation
  0
LAYER
  5
95
330
1
100
AcDbSymbolTableRecord
100
AcDbLayerTableRecord
  2
S-NOTE
 70
0
 62
7
  6
Continuous
370
-3
390
13
347
21
1001
AcAecLayerStandard
1000

1000
Note panels
  0
LAYER
  5
96
330
1
100
AcDbSymbolTableRecord
100
AcDbLayerTableRecord
  2
S-CALLOUT
 70
0
 62
2
  6
Continuous
370
-3
390
13
347
21
1001
AcAecLayerStandard
1000

1000
Bar-mark balloons and leaders
  0
LAYER
  5
97
330
1
100
AcDbSymbolTableRecord
100
AcDbLayerTableRecord
  2
S-SECTION
 70
0
 62
1
  6
Continuous
370
-3
390
13
347
21
1001
AcAecLayerStandard
1000

1000
Section and detail markers
  0
LAYER
  5
98
330
1
100
AcDbSymbolTableRecord
100
AcDbLayerTableRecord
  2
S-GRID
 70
0
 62
5
  6
Continuous
370
-3
390
13
347
21
1001
AcAecLayerStandard
1000

1000
Grid lines and bubbles
  0
LAYER
  5
99
330
1
100
AcDbSymbolTableRecord
100
AcDbLayerTableRecord
  2
S-CENTER
 70
0
 62
6
  6
Continuous
370
-3
390
13
347
21
1001
AcAecLayerStandard
1000

1000
Centrelines
  0
LAYER
  5
9A
330
1
100
AcDbSymbolTableRecord
100
AcDbLayerTableRecord
  2
S-HATCH
 70
0
 62
8
  6
Continuous
370
-3
390
13
347
21
1001
AcAecLayerStandard
1000

1000
Section hatch
  0
LAYER
  5
9B
330
1
100
AcDbSymbolTableRecord
100
AcDbLayerTableRecord
  2
S-TITLE
 70
0
 62
7
  6
Continuous
370
-3
390
13
347
21
1001
AcAecLayerStandard
1000

1000
Border, title block, view titles
  0
LAYER
  5
9C
330
1
100
AcDbSymbolTableRecord
100
AcDbLayerTableRecord
  2
S-EXISTING
 70
0
 62
8
  6
Continuous
370
-3
390
13
347
21
1001
AcAecLayerStandard
1000

1000
Soil, rock, berm, cover layers
  0
LAYER
  5
9D
330
1
100
AcDbSymbolTableRecord
100
AcDbLayerTableRecord
  2
S-REFERENCE
 70
0
 62
8
  6
Continuous
370
-3
390
13
347
21
1001
AcAecLayerStandard
1000

1000
Reference geometry, extents
  0
LAYER
  5
9E
330
1
100
AcDbSymbolTableRecord
100
AcDbLayerTableRecord
  2
S-WATERPROOF
 70
0
 62
30
  6
Continuous
370
-3
390
13
347
21
1001
AcAecLayerStandard
1000

1000
Membranes, waterstops, GWT
  0
LAYER
  5
9F
330
1
100
AcDbSymbolTableRecord
100
AcDbLayerTableRecord
  2
S-STEELWORK
 70
0
 62
2
  6
Continuous
370
-3
390
13
347
21
1001
AcAecLayerStandard
1000

1000
Cast-in frames, EMP straps, steel items
  0
LAYER
  5
A0
330
1
100
AcDbSymbolTableRecord
100
AcDbLayerTableRecord
  2
S-LEVEL
 70
0
 62
4
  6
Continuous
370
-3
390
13
347
21
1001
AcAecLayerStandard
1000

1000
Level markers
  0
LAYER
  5
A1
330
1
100
AcDbSymbolTableRecord
100
AcDbLayerTableRecord
  2
S-TABLE
 70
0
 62
7
  6
Continuous
370
-3
390
13
347
21
1001
AcAecLayerStandard
1000

1000
Tables and schedules
  0
LAYER
  5
A2
330
1
100
AcDbSymbolTableRecord
100
AcDbLayerTableRecord
  2
S-BLAST
 70
0
 62
1
  6
Continuous
370
-3
390
13
347
21
1001
AcAecLayerStandard
1000

1000
Blast arrows, findings, warnings
  0
ENDTAB
  0
TABLE
  2
STYLE
  5
5
330
0
100
AcDbSymbolTable
 70
26
  0
STYLE
  5
29
330
5
100
AcDbSymbolTableRecord
100
AcDbTextStyleTableRecord
  2
Standard
 70
0
 40
0.0
 41
1.0
 50
0.0
 71
0
 42
2.5
  3
txt
  4

  0
STYLE
  5
41
330
5
100
AcDbSymbolTableRecord
100
AcDbTextStyleTableRecord
  2
OpenSans-Light
 70
0
 40
0.0
 41
1.0
 50
0.0
 71
0
 42
2.5
  3
OpenSans-Light.ttf
  4

  0
STYLE
  5
42
330
5
100
AcDbSymbolTableRecord
100
AcDbTextStyleTableRecord
  2
OpenSans-Light-Italic
 70
0
 40
0.0
 41
1.0
 50
0.0
 71
0
 42
2.5
  3
OpenSans-LightItalic.ttf
  4

  0
STYLE
  5
43
330
5
100
AcDbSymbolTableRecord
100
AcDbTextStyleTableRecord
  2
OpenSans
 70
0
 40
0.0
 41
1.0
 50
0.0
 71
0
 42
2.5
  3
OpenSans-Regular.ttf
  4

  0
STYLE
  5
44
330
5
100
AcDbSymbolTableRecord
100
AcDbTextStyleTableRecord
  2
OpenSans-Italic
 70
0
 40
0.0
 41
1.0
 50
0.0
 71
0
 42
2.5
  3
OpenSans-Italic.ttf
  4

  0
STYLE
  5
45
330
5
100
AcDbSymbolTableRecord
100
AcDbTextStyleTableRecord
  2
OpenSans-SemiBold
 70
0
 40
0.0
 41
1.0
 50
0.0
 71
0
 42
2.5
  3
OpenSans-SemiBold.ttf
  4

  0
STYLE
  5
46
330
5
100
AcDbSymbolTableRecord
100
AcDbTextStyleTableRecord
  2
OpenSans-SemiBoldItalic
 70
0
 40
0.0
 41
1.0
 50
0.0
 71
0
 42
2.5
  3
OpenSans-SemiBoldItalic.ttf
  4

  0
STYLE
  5
47
330
5
100
AcDbSymbolTableRecord
100
AcDbTextStyleTableRecord
  2
OpenSans-Bold
 70
0
 40
0.0
 41
1.0
 50
0.0
 71
0
 42
2.5
  3
OpenSans-Bold.ttf
  4

  0
STYLE
  5
48
330
5
100
AcDbSymbolTableRecord
100
AcDbTextStyleTableRecord
  2
OpenSans-BoldItalic
 70
0
 40
0.0
 41
1.0
 50
0.0
 71
0
 42
2.5
  3
OpenSans-BoldItalic.ttf
  4

  0
STYLE
  5
49
330
5
100
AcDbSymbolTableRecord
100
AcDbTextStyleTableRecord
  2
OpenSans-ExtraBold
 70
0
 40
0.0
 41
1.0
 50
0.0
 71
0
 42
2.5
  3
OpenSans-ExtraBold.ttf
  4

  0
STYLE
  5
4A
330
5
100
AcDbSymbolTableRecord
100
AcDbTextStyleTableRecord
  2
OpenSans-ExtraBoldItalic
 70
0
 40
0.0
 41
1.0
 50
0.0
 71
0
 42
2.5
  3
OpenSans-ExtraBoldItalic.ttf
  4

  0
STYLE
  5
4B
330
5
100
AcDbSymbolTableRecord
100
AcDbTextStyleTableRecord
  2
OpenSansCondensed-Bold
 70
0
 40
0.0
 41
1.0
 50
0.0
 71
0
 42
2.5
  3
OpenSansCondensed-Bold.ttf
  4

  0
STYLE
  5
4C
330
5
100
AcDbSymbolTableRecord
100
AcDbTextStyleTableRecord
  2
OpenSansCondensed-Light
 70
0
 40
0.0
 41
1.0
 50
0.0
 71
0
 42
2.5
  3
OpenSansCondensed-Light.ttf
  4

  0
STYLE
  5
4D
330
5
100
AcDbSymbolTableRecord
100
AcDbTextStyleTableRecord
  2
OpenSansCondensed-Italic
 70
0
 40
0.0
 41
1.0
 50
0.0
 71
0
 42
2.5
  3
OpenSansCondensed-LightItalic.ttf
  4

  0
STYLE
  5
4E
330
5
100
AcDbSymbolTableRecord
100
AcDbTextStyleTableRecord
  2
LiberationSans
 70
0
 40
0.0
 41
1.0
 50
0.0
 71
0
 42
2.5
  3
LiberationSans-Regular.ttf
  4

  0
STYLE
  5
4F
330
5
100
AcDbSymbolTableRecord
100
AcDbTextStyleTableRecord
  2
LiberationSans-Bold
 70
0
 40
0.0
 41
1.0
 50
0.0
 71
0
 42
2.5
  3
LiberationSans-Bold.ttf
  4

  0
STYLE
  5
50
330
5
100
AcDbSymbolTableRecord
100
AcDbTextStyleTableRecord
  2
LiberationSans-BoldItalic
 70
0
 40
0.0
 41
1.0
 50
0.0
 71
0
 42
2.5
  3
LiberationSans-BoldItalic.ttf
  4

  0
STYLE
  5
51
330
5
100
AcDbSymbolTableRecord
100
AcDbTextStyleTableRecord
  2
LiberationSans-Italic
 70
0
 40
0.0
 41
1.0
 50
0.0
 71
0
 42
2.5
  3
LiberationSans-Italic.ttf
  4

  0
STYLE
  5
52
330
5
100
AcDbSymbolTableRecord
100
AcDbTextStyleTableRecord
  2
LiberationSerif
 70
0
 40
0.0
 41
1.0
 50
0.0
 71
0
 42
2.5
  3
LiberationSerif-Regular.ttf
  4

  0
STYLE
  5
53
330
5
100
AcDbSymbolTableRecord
100
AcDbTextStyleTableRecord
  2
LiberationSerif-Bold
 70
0
 40
0.0
 41
1.0
 50
0.0
 71
0
 42
2.5
  3
LiberationSerif-Bold.ttf
  4

  0
STYLE
  5
54
330
5
100
AcDbSymbolTableRecord
100
AcDbTextStyleTableRecord
  2
LiberationSerif-BoldItalic
 70
0
 40
0.0
 41
1.0
 50
0.0
 71
0
 42
2.5
  3
LiberationSerif-BoldItalic.ttf
  4

  0
STYLE
  5
55
330
5
100
AcDbSymbolTableRecord
100
AcDbTextStyleTableRecord
  2
LiberationSerif-Italic
 70
0
 40
0.0
 41
1.0
 50
0.0
 71
0
 42
2.5
  3
LiberationSerif-Italic.ttf
  4

  0
STYLE
  5
56
330
5
100
AcDbSymbolTableRecord
100
AcDbTextStyleTableRecord
  2
LiberationMono
 70
0
 40
0.0
 41
1.0
 50
0.0
 71
0
 42
2.5
  3
LiberationMono-Regular.ttf
  4

  0
STYLE
  5
57
330
5
100
AcDbSymbolTableRecord
100
AcDbTextStyleTableRecord
  2
LiberationMono-Bold
 70
0
 40
0.0
 41
1.0
 50
0.0
 71
0
 42
2.5
  3
LiberationMono-Bold.ttf
  4

  0
STYLE
  5
58
330
5
100
AcDbSymbolTableRecord
100
AcDbTextStyleTableRecord
  2
LiberationMono-BoldItalic
 70
0
 40
0.0
 41
1.0
 50
0.0
 71
0
 42
2.5
  3
LiberationMono-BoldItalic.ttf
  4

  0
STYLE
  5
59
330
5
100
AcDbSymbolTableRecord
100
AcDbTextStyleTableRecord
  2
LiberationMono-Italic
 70
0
 40
0.0
 41
1.0
 50
0.0
 71
0
 42
2.5
  3
LiberationMono-Italic.ttf
  4

  0
ENDTAB
  0
TABLE
  2
VIEW
  5
7
330
0
100
AcDbSymbolTable
 70
0
  0
ENDTAB
  0
TABLE
  2
UCS
  5
6
330
0
100
AcDbSymbolTable
 70
0
  0
ENDTAB
  0
TABLE
  2
APPID
  5
3
330
0
100
AcDbSymbolTable
 70
4
  0
APPID
  5
2A
330
3
100
AcDbSymbolTableRecord
100
AcDbRegAppTableRecord
  2
ACAD
 70
0
  0
APPID
  5
8B
330
3
100
AcDbSymbolTableRecord
100
AcDbRegAppTableRecord
  2
AcAecLayerStandard
 70
0
  0
APPID
  5
2BF
330
3
100
AcDbSymbolTableRecord
100
AcDbRegAppTableRecord
  2
HATCHBACKGROUNDCOLOR
 70
0
  0
APPID
  5
2C0
330
3
100
AcDbSymbolTableRecord
100
AcDbRegAppTableRecord
  2
EZDXF
 70
0
  0
ENDTAB
  0
TABLE
  2
DIMSTYLE
  5
4
330
0
100
AcDbSymbolTable
 70
14
100
AcDbDimStyleTable
  0
DIMSTYLE
105
2B
330
4
100
AcDbSymbolTableRecord
100
AcDbDimStyleTableRecord
  2
Standard
 70
0
 40
1.0
 41
2.5
 42
0.625
 43
3.75
 44
1.25
 45
0.0
 46
0.0
 47
0.0
 48
0.0
 49
2.5
140
2.5
141
2.5
142
0.0
143
0.03937007874
144
1.0
145
0.0
146
1.0
147
0.625
148
0.0
 69
0
 70
0
 71
0
 72
0
 73
0
 74
0
 75
0
 76
0
 77
1
 78
8
 79
3
170
0
171
3
172
1
173
0
174
0
175
0
176
0
177
0
178
0
179
2
271
2
272
2
273
2
274
3
275
0
276
0
277
2
278
44
279
0
280
0
281
0
282
0
283
0
284
8
285
0
286
0
288
0
289
3
290
0
371
-2
372
-2
  0
DIMSTYLE
105
73
330
4
100
AcDbSymbolTableRecord
100
AcDbDimStyleTableRecord
  2
EZDXF
 70
0
 40
1.0
 41
0.175
 42
0.125
 43
3.75
 44
0.375
 45
0.0
 46
0.0
 47
0.0
 48
0.0
 49
2.5
140
0.25
141
2.5
142
0.0
143
0.03937007874
144
100.0
145
0.0
146
0.5
147
0.1
148
0.0
 69
0
 70
0
 71
0
 72
0
 73
0
 74
0
 75
0
 76
0
 77
1
 78
12
 79
3
170
0
171
3
172
1
173
0
174
0
175
0
176
0
177
0
178
0
179
2
271
2
272
2
273
2
274
3
275
0
276
0
277
2
278
46
279
2
280
0
281
0
282
0
283
0
284
8
285
0
286
0
288
1
289
3
290
0
340
4C
342
74
371
-2
372
-2
  0
DIMSTYLE
105
7C
330
4
100
AcDbSymbolTableRecord
100
AcDbDimStyleTableRecord
  2
EZ_M_100_H25_CM
 70
0
 40
1.0
 41
0.25
 42
0.125
 43
3.75
 44
0.375
 45
0.0
 46
0.0
 47
0.0
 48
0.0
 49
2.5
140
0.25
141
2.5
142
0.125
143
0.03937007874
144
100.0
145
0.0
146
0.5
147
0.1
148
0.0
 69
0
 70
0
 71
0
 72
0
 73
0
 74
0
 75
0
 76
0
 77
1
 78
12
 79
3
170
0
171
3
172
1
173
0
174
0
175
0
176
0
177
0
178
0
179
2
271
2
272
2
273
2
274
3
275
0
276
0
277
2
278
46
279
2
280
0
281
0
282
0
283
0
284
8
285
0
286
0
288
1
289
3
290
0
340
4C
371
-2
372
-2
  0
DIMSTYLE
105
7D
330
4
100
AcDbSymbolTableRecord
100
AcDbDimStyleTableRecord
  2
EZ_M_50_H25_CM
 70
0
 40
1.0
 41
0.125
 42
0.0625
 43
3.75
 44
0.1875
 45
0.0
 46
0.0
 47
0.0
 48
0.0
 49
2.5
140
0.125
141
2.5
142
0.0625
143
0.03937007874
144
100.0
145
0.0
146
0.5
147
0.05
148
0.0
 69
0
 70
0
 71
0
 72
0
 73
0
 74
0
 75
0
 76
0
 77
1
 78
12
 79
3
170
0
171
3
172
1
173
0
174
0
175
0
176
0
177
0
178
0
179
2
271
2
272
2
273
2
274
3
275
0
276
0
277
2
278
46
279
2
280
0
281
0
282
0
283
0
284
8
285
0
286
0
288
1
289
3
290
0
340
4C
371
-2
372
-2
  0
DIMSTYLE
105
7E
330
4
100
AcDbSymbolTableRecord
100
AcDbDimStyleTableRecord
  2
EZ_M_25_H25_CM
 70
0
 40
1.0
 41
0.0625
 42
0.03125
 43
3.75
 44
0.09375
 45
0.0
 46
0.0
 47
0.0
 48
0.0
 49
2.5
140
0.0625
141
2.5
142
0.03125
143
0.03937007874
144
100.0
145
0.0
146
0.5
147
0.025
148
0.0
 69
0
 70
0
 71
0
 72
0
 73
0
 74
0
 75
0
 76
0
 77
1
 78
12
 79
3
170
0
171
3
172
1
173
0
174
0
175
0
176
0
177
0
178
0
179
2
271
2
272
2
273
2
274
3
275
0
276
0
277
2
278
46
279
2
280
0
281
0
282
0
283
0
284
8
285
0
286
0
288
1
289
3
290
0
340
4C
371
-2
372
-2
  0
DIMSTYLE
105
7F
330
4
100
AcDbSymbolTableRecord
100
AcDbDimStyleTableRecord
  2
EZ_M_20_H25_CM
 70
0
 40
1.0
 41
0.05
 42
0.025
 43
3.75
 44
0.07500000000000001
 45
0.0
 46
0.0
 47
0.0
 48
0.0
 49
2.5
140
0.05
141
2.5
142
0.025
143
0.03937007874
144
100.0
145
0.0
146
0.5
147
0.020000000000000004
148
0.0
 69
0
 70
0
 71
0
 72
0
 73
0
 74
0
 75
0
 76
0
 77
1
 78
12
 79
3
170
0
171
3
172
1
173
0
174
0
175
0
176
0
177
0
178
0
179
2
271
2
272
2
273
2
274
3
275
0
276
0
277
2
278
46
279
2
280
0
281
0
282
0
283
0
284
8
285
0
286
0
288
1
289
3
290
0
340
4C
371
-2
372
-2
  0
DIMSTYLE
105
80
330
4
100
AcDbSymbolTableRecord
100
AcDbDimStyleTableRecord
  2
EZ_M_10_H25_CM
 70
0
 40
1.0
 41
0.025
 42
0.0125
 43
3.75
 44
0.037500000000000006
 45
0.0
 46
0.0
 47
0.0
 48
0.0
 49
2.5
140
0.025
141
2.5
142
0.0125
143
0.03937007874
144
100.0
145
0.0
146
0.5
147
0.010000000000000002
148
0.0
 69
0
 70
0
 71
0
 72
0
 73
0
 74
0
 75
0
 76
0
 77
1
 78
12
 79
3
170
0
171
3
172
1
173
0
174
0
175
0
176
0
177
0
178
0
179
2
271
2
272
2
273
2
274
3
275
0
276
0
277
2
278
46
279
2
280
0
281
0
282
0
283
0
284
8
285
0
286
0
288
1
289
3
290
0
340
4C
371
-2
372
-2
  0
DIMSTYLE
105
81
330
4
100
AcDbSymbolTableRecord
100
AcDbDimStyleTableRecord
  2
EZ_M_5_H25_CM
 70
0
 40
1.0
 41
0.0125
 42
0.00625
 43
3.75
 44
0.018750000000000003
 45
0.0
 46
0.0
 47
0.0
 48
0.0
 49
2.5
140
0.0125
141
2.5
142
0.00625
143
0.03937007874
144
100.0
145
0.0
146
0.5
147
0.005000000000000001
148
0.0
 69
0
 70
0
 71
0
 72
0
 73
0
 74
0
 75
0
 76
0
 77
1
 78
12
 79
3
170
0
171
3
172
1
173
0
174
0
175
0
176
0
177
0
178
0
179
2
271
2
272
2
273
2
274
3
275
0
276
0
277
2
278
46
279
2
280
0
281
0
282
0
283
0
284
8
285
0
286
0
288
1
289
3
290
0
340
4C
371
-2
372
-2
  0
DIMSTYLE
105
82
330
4
100
AcDbSymbolTableRecord
100
AcDbDimStyleTableRecord
  2
EZ_M_1_H25_CM
 70
0
 40
1.0
 41
0.0025
 42
0.00125
 43
3.75
 44
0.00375
 45
0.0
 46
0.0
 47
0.0
 48
0.0
 49
2.5
140
0.0025
141
2.5
142
0.00125
143
0.03937007874
144
100.0
145
0.0
146
0.5
147
0.001
148
0.0
 69
0
 70
0
 71
0
 72
0
 73
0
 74
0
 75
0
 76
0
 77
1
 78
12
 79
3
170
0
171
3
172
1
173
0
174
0
175
0
176
0
177
0
178
0
179
2
271
2
272
2
273
2
274
3
275
0
276
0
277
2
278
46
279
2
280
0
281
0
282
0
283
0
284
8
285
0
286
0
288
1
289
3
290
0
340
4C
371
-2
372
-2
  0
DIMSTYLE
105
83
330
4
100
AcDbSymbolTableRecord
100
AcDbDimStyleTableRecord
  2
EZ_RADIUS
 70
0
 40
1.0
 41
0.25
 42
0.125
 43
3.75
 44
0.375
 45
0.0
 46
0.0
 47
0.0
 48
0.0
 49
2.5
140
0.25
141
0.0
142
0.0
143
0.03937007874
144
100.0
145
0.0
146
0.5
147
0.1
148
0.0
 69
0
 70
0
 71
0
 72
0
 73
0
 74
0
 75
0
 76
0
 77
1
 78
12
 79
3
170
0
171
3
172
0
173
0
174
0
175
0
176
0
177
0
178
0
179
2
271
2
272
2
273
2
274
3
275
0
276
0
277
2
278
46
279
1
280
0
281
0
282
0
283
0
284
8
285
0
286
0
288
1
289
3
290
0
340
4C
342
84
371
-2
372
-2
  0
DIMSTYLE
105
88
330
4
100
AcDbSymbolTableRecord
100
AcDbDimStyleTableRecord
  2
EZ_RADIUS_INSIDE
 70
0
 40
1.0
 41
0.25
 42
0.125
 43
3.75
 44
0.375
 45
0.0
 46
0.0
 47
0.0
 48
0.0
 49
2.5
140
0.25
141
0.0
142
0.0
143
0.03937007874
144
100.0
145
0.0
146
0.5
147
0.1
148
0.0
 69
0
 70
0
 71
0
 72
0
 73
0
 74
0
 75
0
 76
0
 77
0
 78
12
 79
3
170
0
171
3
172
0
173
0
174
1
175
0
176
0
177
0
178
0
179
2
271
2
272
2
273
2
274
3
275
0
276
0
277
2
278
46
279
0
280
0
281
0
282
0
283
0
284
8
285
0
286
0
288
1
289
0
290
0
340
4C
342
84
371
-2
372
-2
  0
DIMSTYLE
105
89
330
4
100
AcDbSymbolTableRecord
100
AcDbDimStyleTableRecord
  2
EZ_CURVED
 70
0
 40
1.0
 41
0.25
 42
0.125
 43
3.75
 44
0.375
 45
0.0
 46
0.0
 47
0.0
 48
0.0
 49
2.5
140
0.25
141
2.5
142
0.0
143
0.03937007874
144
100.0
145
0.0
146
0.5
147
0.1
148
0.0
 69
0
 70
0
 71
0
 72
0
 73
0
 74
0
 75
0
 76
0
 77
1
 78
12
 79
2
 90
2
170
0
171
3
172
1
173
0
174
0
175
0
176
0
177
0
178
0
179
2
271
2
272
2
273
2
274
3
275
0
276
0
277
2
278
46
279
2
280
0
281
0
282
0
283
0
284
8
285
0
286
0
288
1
289
3
290
0
340
4C
371
-2
372
-2
  0
DIMSTYLE
105
A3
330
4
100
AcDbSymbolTableRecord
100
AcDbDimStyleTableRecord
  2
SC-DIM
 70
0
 40
1.0
 41
1.6
 42
1.0
 43
3.75
 44
1.2
 45
0.0
 46
0.0
 47
0.0
 48
0.0
 49
2.5
140
1.8
141
2.5
142
0.0
143
0.03937007874
144
1.0
145
0.0
146
1.0
147
0.8
148
0.0
 69
0
 70
0
 71
0
 72
0
 73
0
 74
0
 75
0
 76
0
 77
1
 78
8
 79
3
170
0
171
3
172
1
173
0
174
0
175
0
176
4
177
4
178
4
179
2
271
0
272
2
273
2
274
3
275
0
276
0
277
2
278
44
279
0
280
0
281
0
282
0
283
0
284
8
285
0
286
0
288
0
289
3
290
0
342
74
371
13
372
13
  0
DIMSTYLE
105
A4
330
4
100
AcDbSymbolTableRecord
100
AcDbDimStyleTableRecord
  2
SC-DIM-S
 70
0
 40
1.0
 41
1.2
 42
1.0
 43
3.75
 44
1.2
 45
0.0
 46
0.0
 47
0.0
 48
0.0
 49
2.5
140
1.4
141
2.5
142
0.0
143
0.03937007874
144
1.0
145
0.0
146
1.0
147
0.8
148
0.0
 69
0
 70
0
 71
0
 72
0
 73
0
 74
0
 75
0
 76
0
 77
1
 78
8
 79
3
170
0
171
3
172
1
173
0
174
0
175
0
176
4
177
4
178
4
179
2
271
0
272
2
273
2
274
3
275
0
276
0
277
2
278
44
279
0
280
0
281
0
282
0
283
0
284
8
285
0
286
0
288
0
289
3
290
0
342
74
371
13
372
13
  0
ENDTAB
  0
TABLE
  2
BLOCK_RECORD
  5
9
330
0
100
AcDbSymbolTable
 70
13
  0
BLOCK_RECORD
  5
17
330
9
100
AcDbSymbolTableRecord
100
AcDbBlockTableRecord
  2
*Model_Space
340
1A
 70
0
280
1
281
0
  0
BLOCK_RECORD
  5
1B
330
9
100
AcDbSymbolTableRecord
100
AcDbBlockTableRecord
  2
*Paper_Space
340
1E
 70
0
280
1
281
0
  0
BLOCK_RECORD
  5
74
330
9
100
AcDbSymbolTableRecord
100
AcDbBlockTableRecord
  2
_ARCHTICK
340
0
 70
0
280
1
281
0
  0
BLOCK_RECORD
  5
78
330
9
100
AcDbSymbolTableRecord
100
AcDbBlockTableRecord
  2
_CLOSEDFILLED
340
0
 70
0
280
1
281
0
  0
BLOCK_RECORD
  5
84
330
9
100
AcDbSymbolTableRecord
100
AcDbBlockTableRecord
  2
_CLOSEDBLANK
340
0
 70
0
280
1
281
0
  0
BLOCK_RECORD
  5
A5
330
9
100
AcDbSymbolTableRecord
100
AcDbBlockTableRecord
  2
BARMARK
340
0
 70
0
280
1
281
0
  0
BLOCK_RECORD
  5
A9
330
9
100
AcDbSymbolTableRecord
100
AcDbBlockTableRecord
  2
SECMARK
340
0
 70
0
280
1
281
0
  0
BLOCK_RECORD
  5
AE
330
9
100
AcDbSymbolTableRecord
100
AcDbBlockTableRecord
  2
LEVELMK
340
0
 70
0
280
1
281
0
  0
BLOCK_RECORD
  5
B2
330
9
100
AcDbSymbolTableRecord
100
AcDbBlockTableRecord
  2
NORTH
340
0
 70
0
280
1
281
0
  0
BLOCK_RECORD
  5
134
330
9
100
AcDbSymbolTableRecord
100
AcDbBlockTableRecord
  2
*D1
340
0
 70
0
280
1
281
0
  0
BLOCK_RECORD
  5
143
330
9
100
AcDbSymbolTableRecord
100
AcDbBlockTableRecord
  2
*D2
340
0
 70
0
280
1
281
0
  0
BLOCK_RECORD
  5
1D2
330
9
100
AcDbSymbolTableRecord
100
AcDbBlockTableRecord
  2
*D3
340
0
 70
0
280
1
281
0
  0
BLOCK_RECORD
  5
1E1
330
9
100
AcDbSymbolTableRecord
100
AcDbBlockTableRecord
  2
*D4
340
0
 70
0
280
1
281
0
  0
ENDTAB
  0
ENDSEC
  0
SECTION
  2
BLOCKS
  0
BLOCK
  5
18
330
17
100
AcDbEntity
  8
0
100
AcDbBlockBegin
  2
*Model_Space
 70
0
 10
0.0
 20
0.0
 30
0.0
  3
*Model_Space
  1

  0
ENDBLK
  5
19
330
17
100
AcDbEntity
  8
0
100
AcDbBlockEnd
  0
BLOCK
  5
1C
330
1B
100
AcDbEntity
  8
0
100
AcDbBlockBegin
  2
*Paper_Space
 70
0
 10
0.0
 20
0.0
 30
0.0
  3
*Paper_Space
  1

  0
ENDBLK
  5
1D
330
1B
100
AcDbEntity
  8
0
100
AcDbBlockEnd
  0
BLOCK
  5
75
330
74
100
AcDbEntity
  8
0
100
AcDbBlockBegin
  2
_ARCHTICK
 70
0
 10
0.0
 20
0.0
 30
0.0
  3
_ARCHTICK
  1

  0
LWPOLYLINE
  5
77
330
74
100
AcDbEntity
  8
0
  6
BYBLOCK
 62
0
100
AcDbPolyline
 90
2
 70
0
 43
0.15
 10
-0.5
 20
-0.5
 10
0.5
 20
0.5
  0
ENDBLK
  5
76
330
74
100
AcDbEntity
  8
0
100
AcDbBlockEnd
  0
BLOCK
  5
79
330
78
100
AcDbEntity
  8
0
100
AcDbBlockBegin
  2
_CLOSEDFILLED
 70
0
 10
0.0
 20
0.0
 30
0.0
  3
_CLOSEDFILLED
  1

  0
SOLID
  5
7B
330
78
100
AcDbEntity
  8
0
  6
BYBLOCK
 62
0
100
AcDbTrace
 10
-1.0
 20
0.16439898372402537
 30
0.0
 11
0.0
 21
0.0
 31
0.0
 12
-1.0
 22
-0.16439898372402537
 32
0.0
 13
-1.0
 23
-0.16439898372402537
 33
0.0
  0
ENDBLK
  5
7A
330
78
100
AcDbEntity
  8
0
100
AcDbBlockEnd
  0
BLOCK
  5
85
330
84
100
AcDbEntity
  8
0
100
AcDbBlockBegin
  2
_CLOSEDBLANK
 70
0
 10
0.0
 20
0.0
 30
0.0
  3
_CLOSEDBLANK
  1

  0
LWPOLYLINE
  5
87
330
84
100
AcDbEntity
  8
0
  6
BYBLOCK
 62
0
100
AcDbPolyline
 90
3
 70
1
 10
-1.0
 20
0.16439898372402537
 10
0.0
 20
0.0
 10
-1.0
 20
-0.16439898372402537
  0
ENDBLK
  5
86
330
84
100
AcDbEntity
  8
0
100
AcDbBlockEnd
  0
BLOCK
  5
A6
330
A5
100
AcDbEntity
  8
0
100
AcDbBlockBegin
  2
BARMARK
 70
0
 10
0.0
 20
0.0
 30
0.0
  3
BARMARK
  1

  0
CIRCLE
  5
A8
330
A5
100
AcDbEntity
  8
S-CALLOUT
100
AcDbCircle
 10
0.0
 20
0.0
 30
0.0
 40
3.2
  0
ENDBLK
  5
A7
330
A5
100
AcDbEntity
  8
0
100
AcDbBlockEnd
  0
BLOCK
  5
AA
330
A9
100
AcDbEntity
  8
0
100
AcDbBlockBegin
  2
SECMARK
 70
0
 10
0.0
 20
0.0
 30
0.0
  3
SECMARK
  1

  0
CIRCLE
  5
AC
330
A9
100
AcDbEntity
  8
S-SECTION
100
AcDbCircle
 10
0.0
 20
0.0
 30
0.0
 40
4.0
  0
LINE
  5
AD
330
A9
100
AcDbEntity
  8
S-SECTION
100
AcDbLine
 10
-4.0
 20
0.0
 30
0.0
 11
4.0
 21
0.0
 31
0.0
  0
ENDBLK
  5
AB
330
A9
100
AcDbEntity
  8
0
100
AcDbBlockEnd
  0
BLOCK
  5
AF
330
AE
100
AcDbEntity
  8
0
100
AcDbBlockBegin
  2
LEVELMK
 70
0
 10
0.0
 20
0.0
 30
0.0
  3
LEVELMK
  1

  0
LWPOLYLINE
  5
B1
330
AE
100
AcDbEntity
  8
S-LEVEL
100
AcDbPolyline
 90
4
 70
1
 10
0.0
 20
0.0
 10
-2.0
 20
3.0
 10
2.0
 20
3.0
 10
0.0
 20
0.0
  0
ENDBLK
  5
B0
330
AE
100
AcDbEntity
  8
0
100
AcDbBlockEnd
  0
BLOCK
  5
B3
330
B2
100
AcDbEntity
  8
0
100
AcDbBlockBegin
  2
NORTH
 70
0
 10
0.0
 20
0.0
 30
0.0
  3
NORTH
  1

  0
LWPOLYLINE
  5
B5
330
B2
100
AcDbEntity
  8
S-TITLE
100
AcDbPolyline
 90
5
 70
1
 10
0.0
 20
10.0
 10
-3.2
 20
-6.0
 10
0.0
 20
-2.4
 10
3.2
 20
-6.0
 10
0.0
 20
10.0
  0
CIRCLE
  5
B6
330
B2
100
AcDbEntity
  8
S-TITLE
100
AcDbCircle
 10
0.0
 20
0.0
 30
0.0
 40
12.0
  0
ENDBLK
  5
B4
330
B2
100
AcDbEntity
  8
0
100
AcDbBlockEnd
  0
BLOCK
  5
135
330
134
100
AcDbEntity
  8
0
100
AcDbBlockBegin
  2
*D1
 70
1
 10
0.0
 20
0.0
 30
0.0
  3
*D1
  1

  0
LINE
  5
137
330
134
100
AcDbEntity
  8
0
 62
4
370
13
100
AcDbLine
 10
70.0
 20
355.0
 30
0.0
 11
70.0
 21
309.8
 31
0.0
  0
LINE
  5
138
330
134
100
AcDbEntity
  8
0
 62
4
370
13
100
AcDbLine
 10
100.0
 20
355.0
 30
0.0
 11
100.0
 21
309.8
 31
0.0
  0
INSERT
  5
139
330
134
100
AcDbEntity
  8
S-DIM
 62
4
100
AcDbBlockReference
  2
_ARCHTICK
 10
70.0
 20
311.0
 30
0.0
 41
1.6
 42
1.6
 50
180.0
  0
INSERT
  5
13B
330
134
100
AcDbEntity
  8
S-DIM
 62
4
100
AcDbBlockReference
  2
_ARCHTICK
 10
100.0
 20
311.0
 30
0.0
 41
1.6
 42
1.6
  0
LINE
  5
13D
330
134
100
AcDbEntity
  8
0
 62
4
370
13
100
AcDbLine
 10
70.0
 20
311.0
 30
0.0
 11
100.0
 21
311.0
 31
0.0
  0
MTEXT
  5
13E
330
134
100
AcDbEntity
  8
S-DIM
 62
4
100
AcDbMText
 10
85.0
 20
312.7
 30
0.0
 40
1.8
 71
5
  1
600
  7
OpenSansCondensed-Light
  0
POINT
  5
13F
330
134
100
AcDbEntity
  8
Defpoints
100
AcDbPoint
 10
70.0
 20
311.0
 30
0.0
  0
POINT
  5
140
330
134
100
AcDbEntity
  8
Defpoints
100
AcDbPoint
 10
70.0
 20
356.0
 30
0.0
  0
POINT
  5
141
330
134
100
AcDbEntity
  8
Defpoints
100
AcDbPoint
 10
100.0
 20
356.0
 30
0.0
  0
ENDBLK
  5
136
330
134
100
AcDbEntity
  8
0
100
AcDbBlockEnd
  0
BLOCK
  5
144
330
143
100
AcDbEntity
  8
0
100
AcDbBlockBegin
  2
*D2
 70
1
 10
0.0
 20
0.0
 30
0.0
  3
*D2
  1

  0
LINE
  5
146
330
143
100
AcDbEntity
  8
0
 62
4
370
13
100
AcDbLine
 10
69.0
 20
356.0
 30
0.0
 11
33.8
 21
356.0
 31
0.0
  0
LINE
  5
147
330
143
100
AcDbEntity
  8
0
 62
4
370
13
100
AcDbLine
 10
69.0
 20
516.0
 30
0.0
 11
33.8
 21
516.0
 31
0.0
  0
INSERT
  5
148
330
143
100
AcDbEntity
  8
S-DIM
 62
4
100
AcDbBlockReference
  2
_ARCHTICK
 10
35.0
 20
356.0
 30
0.0
 41
1.6
 42
1.6
 50
270.0
  0
INSERT
  5
14A
330
143
100
AcDbEntity
  8
S-DIM
 62
4
100
AcDbBlockReference
  2
_ARCHTICK
 10
35.0
 20
516.0
 30
0.0
 41
1.6
 42
1.6
 50
90.0
  0
LINE
  5
14C
330
143
100
AcDbEntity
  8
0
 62
4
370
13
100
AcDbLine
 10
35.0
 20
356.0
 30
0.0
 11
35.0
 21
516.0
 31
0.0
  0
MTEXT
  5
14D
330
143
100
AcDbEntity
  8
S-DIM
 62
4
100
AcDbMText
 10
33.3
 20
436.0
 30
0.0
 40
1.8
 71
5
  1
3200
  7
OpenSansCondensed-Light
 50
90.0
  0
POINT
  5
14E
330
143
100
AcDbEntity
  8
Defpoints
100
AcDbPoint
 10
35.0
 20
356.0
 30
0.0
  0
POINT
  5
14F
330
143
100
AcDbEntity
  8
Defpoints
100
AcDbPoint
 10
70.0
 20
356.0
 30
0.0
  0
POINT
  5
150
330
143
100
AcDbEntity
  8
Defpoints
100
AcDbPoint
 10
70.0
 20
516.0
 30
0.0
  0
ENDBLK
  5
145
330
143
100
AcDbEntity
  8
0
100
AcDbBlockEnd
  0
BLOCK
  5
1D3
330
1D2
100
AcDbEntity
  8
0
100
AcDbBlockBegin
  2
*D3
 70
1
 10
0.0
 20
0.0
 30
0.0
  3
*D3
  1

  0
LINE
  5
1D5
330
1D2
100
AcDbEntity
  8
0
 62
4
370
13
100
AcDbLine
 10
190.0
 20
379.0
 30
0.0
 11
190.0
 21
358.8
 31
0.0
  0
LINE
  5
1D6
330
1D2
100
AcDbEntity
  8
0
 62
4
370
13
100
AcDbLine
 10
220.0
 20
379.0
 30
0.0
 11
220.0
 21
358.8
 31
0.0
  0
INSERT
  5
1D7
330
1D2
100
AcDbEntity
  8
S-DIM
 62
4
100
AcDbBlockReference
  2
_ARCHTICK
 10
190.0
 20
360.0
 30
0.0
 41
1.6
 42
1.6
 50
180.0
  0
INSERT
  5
1D9
330
1D2
100
AcDbEntity
  8
S-DIM
 62
4
100
AcDbBlockReference
  2
_ARCHTICK
 10
220.0
 20
360.0
 30
0.0
 41
1.6
 42
1.6
  0
LINE
  5
1DB
330
1D2
100
AcDbEntity
  8
0
 62
4
370
13
100
AcDbLine
 10
190.0
 20
360.0
 30
0.0
 11
220.0
 21
360.0
 31
0.0
  0
MTEXT
  5
1DC
330
1D2
100
AcDbEntity
  8
S-DIM
 62
4
100
AcDbMText
 10
205.0
 20
361.7
 30
0.0
 40
1.8
 71
5
  1
600
  7
OpenSansCondensed-Light
  0
POINT
  5
1DD
330
1D2
100
AcDbEntity
  8
Defpoints
100
AcDbPoint
 10
190.0
 20
360.0
 30
0.0
  0
POINT
  5
1DE
330
1D2
100
AcDbEntity
  8
Defpoints
100
AcDbPoint
 10
190.0
 20
380.0
 30
0.0
  0
POINT
  5
1DF
330
1D2
100
AcDbEntity
  8
Defpoints
100
AcDbPoint
 10
220.0
 20
380.0
 30
0.0
  0
ENDBLK
  5
1D4
330
1D2
100
AcDbEntity
  8
0
100
AcDbBlockEnd
  0
BLOCK
  5
1E2
330
1E1
100
AcDbEntity
  8
0
100
AcDbBlockBegin
  2
*D4
 70
1
 10
0.0
 20
0.0
 30
0.0
  3
*D4
  1

  0
LINE
  5
1E4
330
1E1
100
AcDbEntity
  8
0
 62
4
370
13
100
AcDbLine
 10
221.0
 20
425.0
 30
0.0
 11
229.2
 21
425.0
 31
0.0
  0
LINE
  5
1E5
330
1E1
100
AcDbEntity
  8
0
 62
4
370
13
100
AcDbLine
 10
221.0
 20
432.5
 30
0.0
 11
229.2
 21
432.5
 31
0.0
  0
INSERT
  5
1E6
330
1E1
100
AcDbEntity
  8
S-DIM
 62
4
100
AcDbBlockReference
  2
_ARCHTICK
 10
228.0
 20
425.0
 30
0.0
 41
1.6
 42
1.6
 50
270.0
  0
INSERT
  5
1E8
330
1E1
100
AcDbEntity
  8
S-DIM
 62
4
100
AcDbBlockReference
  2
_ARCHTICK
 10
228.0
 20
432.5
 30
0.0
 41
1.6
 42
1.6
 50
90.0
  0
LINE
  5
1EA
330
1E1
100
AcDbEntity
  8
0
 62
4
370
13
100
AcDbLine
 10
228.0
 20
425.0
 30
0.0
 11
228.0
 21
432.5
 31
0.0
  0
MTEXT
  5
1EB
330
1E1
100
AcDbEntity
  8
S-DIM
 62
4
100
AcDbMText
 10
226.3
 20
428.75
 30
0.0
 40
1.8
 71
5
  1
150
  7
OpenSansCondensed-Light
 50
90.0
  0
POINT
  5
1EC
330
1E1
100
AcDbEntity
  8
Defpoints
100
AcDbPoint
 10
228.0
 20
425.0
 30
0.0
  0
POINT
  5
1ED
330
1E1
100
AcDbEntity
  8
Defpoints
100
AcDbPoint
 10
220.0
 20
425.0
 30
0.0
  0
POINT
  5
1EE
330
1E1
100
AcDbEntity
  8
Defpoints
100
AcDbPoint
 10
220.0
 20
432.5
 30
0.0
  0
ENDBLK
  5
1E3
330
1E1
100
AcDbEntity
  8
0
100
AcDbBlockEnd
  0
ENDSEC
  0
SECTION
  2
ENTITIES
  0
LWPOLYLINE
  5
B7
330
17
100
AcDbEntity
  8
S-TITLE
100
AcDbPolyline
 90
4
 70
1
 10
0.0
 20
0.0
 10
841.0
 20
0.0
 10
841.0
 20
594.0
 10
0.0
 20
594.0
  0
LWPOLYLINE
  5
B8
330
17
100
AcDbEntity
  8
S-TITLE
100
AcDbPolyline
 90
4
 70
1
 10
10.0
 20
10.0
 10
831.0
 20
10.0
 10
831.0
 20
584.0
 10
10.0
 20
584.0
  0
TEXT
  5
B9
330
17
100
AcDbEntity
  8
S-TITLE
100
AcDbText
 10
12.0
 20
576.5
 30
0.0
 40
5.0
  1
STRUCTURAL CAD - REINFORCEMENT PACKAGE
  7
OpenSans
 11
12.0
 21
576.5
 31
0.0
100
AcDbText
  0
TEXT
  5
BA
330
17
100
AcDbEntity
  8
S-TITLE
100
AcDbText
 10
12.0
 20
569.5
 30
0.0
 40
2.4
  1
R-201   EXTERNAL WALL REINFORCEMENT
  7
OpenSans
 11
12.0
 21
569.5
 31
0.0
100
AcDbText
  0
LINE
  5
BB
330
17
100
AcDbEntity
  8
S-TITLE
100
AcDbLine
 10
10.0
 20
566.5
 30
0.0
 11
831.0
 21
566.5
 31
0.0
  0
TEXT
  5
BC
330
17
100
AcDbEntity
  8
S-BLAST
100
AcDbText
 10
829.0
 20
577.0
 30
0.0
 40
2.0
  1
SENTRY POST EXCLUDED FROM THIS PACKAGE
  7
OpenSans
 72
2
 11
829.0
 21
577.0
 31
0.0
100
AcDbText
  0
TEXT
  5
BD
330
17
100
AcDbEntity
  8
S-BLAST
100
AcDbText
 10
829.0
 20
570.5
 30
0.0
 40
1.4
  1
ALL DESIGN ACTIONS ARE MANUAL CALCULATION - NOT DIRECT STAAD OUTPUT
  7
OpenSans
 72
2
 11
829.0
 21
570.5
 31
0.0
100
AcDbText
  0
TEXT
  5
BE
330
17
100
AcDbEntity
  8
S-BLAST
100
AcDbText
 10
12.0
 20
561.5
 30
0.0
 40
1.4
  1
OPEN ITEMS ON THIS SHEET:  A2 GWT ASSUMED
  7
OpenSans
 11
12.0
 21
561.5
 31
0.0
100
AcDbText
  0
LWPOLYLINE
  5
BF
330
17
100
AcDbEntity
  8
S-CONCRETE
100
AcDbPolyline
 90
4
 70
1
 10
70.0
 20
356.0
 10
100.0
 20
356.0
 10
100.0
 20
516.0
 10
70.0
 20
516.0
  0
HATCH
  5
C0
330
17
100
AcDbEntity
  8
S-HATCH
 62
7
100
AcDbHatch
 10
0.0
 20
0.0
 30
0.0
210
0.0
220
0.0
230
1.0
  2
ANSI31
 70
0
 71
0
 91
1
 92
3
 72
0
 73
1
 93
4
 10
70.0
 20
356.0
 10
100.0
 20
356.0
 10
100.0
 20
516.0
 10
70.0
 20
516.0
 97
0
 75
1
 76
1
 52
0.0
 41
1.6
 77
0
 78
1
 53
45.0
 43
0.0
 44
0.0
 45
-3.5921024485
 46
3.5921024485
 79
0
 98
0
  0
LINE
  5
C1
330
17
100
AcDbEntity
  8
S-REBAR-MAIN
100
AcDbLine
 10
72.9
 20
358.0
 30
0.0
 11
72.9
 21
514.0
 31
0.0
  0
LINE
  5
C2
330
17
100
AcDbEntity
  8
S-REBAR-MAIN
100
AcDbLine
 10
97.6
 20
358.0
 30
0.0
 11
97.6
 21
514.0
 31
0.0
  0
CIRCLE
  5
C3
330
17
100
AcDbEntity
  8
S-REBAR-MAIN
100
AcDbCircle
 10
72.9
 20
359.75
 30
0.0
 40
0.6
  0
HATCH
  5
C4
330
17
100
AcDbEntity
  8
S-REBAR-MAIN
 62
1
100
AcDbHatch
 10
0.0
 20
0.0
 30
0.0
210
0.0
220
0.0
230
1.0
  2
SOLID
 70
1
 71
0
 91
1
 92
3
 72
0
 73
1
 93
16
 10
73.5
 20
359.75
 10
73.45432771950678
 20
359.97961005941903
 10
73.32426406871194
 20
360.1742640687119
 10
73.12961005941906
 20
360.3043277195068
 10
72.9
 20
360.35
 10
72.67038994058095
 20
360.3043277195068
 10
72.47573593128807
 20
360.1742640687119
 10
72.34567228049323
 20
359.97961005941903
 10
72.30000000000001
 20
359.75
 10
72.34567228049323
 20
359.52038994058097
 10
72.47573593128807
 20
359.3257359312881
 10
72.67038994058095
 20
359.1956722804932
 10
72.9
 20
359.15
 10
73.12961005941906
 20
359.1956722804932
 10
73.32426406871194
 20
359.3257359312881
 10
73.45432771950678
 20
359.52038994058097
 97
0
 75
0
 76
1
 98
0
  0
CIRCLE
  5
C5
330
17
100
AcDbEntity
  8
S-REBAR-MAIN
100
AcDbCircle
 10
72.9
 20
367.25
 30
0.0
 40
0.6
  0
HATCH
  5
C6
330
17
100
AcDbEntity
  8
S-REBAR-MAIN
 62
1
100
AcDbHatch
 10
0.0
 20
0.0
 30
0.0
210
0.0
220
0.0
230
1.0
  2
SOLID
 70
1
 71
0
 91
1
 92
3
 72
0
 73
1
 93
16
 10
73.5
 20
367.25
 10
73.45432771950678
 20
367.47961005941903
 10
73.32426406871194
 20
367.6742640687119
 10
73.12961005941906
 20
367.8043277195068
 10
72.9
 20
367.85
 10
72.67038994058095
 20
367.8043277195068
 10
72.47573593128807
 20
367.6742640687119
 10
72.34567228049323
 20
367.47961005941903
 10
72.30000000000001
 20
367.25
 10
72.34567228049323
 20
367.02038994058097
 10
72.47573593128807
 20
366.8257359312881
 10
72.67038994058095
 20
366.6956722804932
 10
72.9
 20
366.65
 10
73.12961005941906
 20
366.6956722804932
 10
73.32426406871194
 20
366.8257359312881
 10
73.45432771950678
 20
367.02038994058097
 97
0
 75
0
 76
1
 98
0
  0
CIRCLE
  5
C7
330
17
100
AcDbEntity
  8
S-REBAR-MAIN
100
AcDbCircle
 10
72.9
 20
374.75
 30
0.0
 40
0.6
  0
HATCH
  5
C8
330
17
100
AcDbEntity
  8
S-REBAR-MAIN
 62
1
100
AcDbHatch
 10
0.0
 20
0.0
 30
0.0
210
0.0
220
0.0
230
1.0
  2
SOLID
 70
1
 71
0
 91
1
 92
3
 72
0
 73
1
 93
16
 10
73.5
 20
374.75
 10
73.45432771950678
 20
374.97961005941903
 10
73.32426406871194
 20
375.1742640687119
 10
73.12961005941906
 20
375.3043277195068
 10
72.9
 20
375.35
 10
72.67038994058095
 20
375.3043277195068
 10
72.47573593128807
 20
375.1742640687119
 10
72.34567228049323
 20
374.97961005941903
 10
72.30000000000001
 20
374.75
 10
72.34567228049323
 20
374.52038994058097
 10
72.47573593128807
 20
374.3257359312881
 10
72.67038994058095
 20
374.1956722804932
 10
72.9
 20
374.15
 10
73.12961005941906
 20
374.1956722804932
 10
73.32426406871194
 20
374.3257359312881
 10
73.45432771950678
 20
374.52038994058097
 97
0
 75
0
 76
1
 98
0
  0
CIRCLE
  5
C9
330
17
100
AcDbEntity
  8
S-REBAR-MAIN
100
AcDbCircle
 10
72.9
 20
382.25
 30
0.0
 40
0.6
  0
HATCH
  5
CA
330
17
100
AcDbEntity
  8
S-REBAR-MAIN
 62
1
100
AcDbHatch
 10
0.0
 20
0.0
 30
0.0
210
0.0
220
0.0
230
1.0
  2
SOLID
 70
1
 71
0
 91
1
 92
3
 72
0
 73
1
 93
16
 10
73.5
 20
382.25
 10
73.45432771950678
 20
382.47961005941903
 10
73.32426406871194
 20
382.6742640687119
 10
73.12961005941906
 20
382.8043277195068
 10
72.9
 20
382.85
 10
72.67038994058095
 20
382.8043277195068
 10
72.47573593128807
 20
382.6742640687119
 10
72.34567228049323
 20
382.47961005941903
 10
72.30000000000001
 20
382.25
 10
72.34567228049323
 20
382.02038994058097
 10
72.47573593128807
 20
381.8257359312881
 10
72.67038994058095
 20
381.6956722804932
 10
72.9
 20
381.65
 10
73.12961005941906
 20
381.6956722804932
 10
73.32426406871194
 20
381.8257359312881
 10
73.45432771950678
 20
382.02038994058097
 97
0
 75
0
 76
1
 98
0
  0
CIRCLE
  5
CB
330
17
100
AcDbEntity
  8
S-REBAR-MAIN
100
AcDbCircle
 10
72.9
 20
389.75
 30
0.0
 40
0.6
  0
HATCH
  5
CC
330
17
100
AcDbEntity
  8
S-REBAR-MAIN
 62
1
100
AcDbHatch
 10
0.0
 20
0.0
 30
0.0
210
0.0
220
0.0
230
1.0
  2
SOLID
 70
1
 71
0
 91
1
 92
3
 72
0
 73
1
 93
16
 10
73.5
 20
389.75
 10
73.45432771950678
 20
389.97961005941903
 10
73.32426406871194
 20
390.1742640687119
 10
73.12961005941906
 20
390.3043277195068
 10
72.9
 20
390.35
 10
72.67038994058095
 20
390.3043277195068
 10
72.47573593128807
 20
390.1742640687119
 10
72.34567228049323
 20
389.97961005941903
 10
72.30000000000001
 20
389.75
 10
72.34567228049323
 20
389.52038994058097
 10
72.47573593128807
 20
389.3257359312881
 10
72.67038994058095
 20
389.1956722804932
 10
72.9
 20
389.15
 10
73.12961005941906
 20
389.1956722804932
 10
73.32426406871194
 20
389.3257359312881
 10
73.45432771950678
 20
389.52038994058097
 97
0
 75
0
 76
1
 98
0
  0
CIRCLE
  5
CD
330
17
100
AcDbEntity
  8
S-REBAR-MAIN
100
AcDbCircle
 10
72.9
 20
397.25
 30
0.0
 40
0.6
  0
HATCH
  5
CE
330
17
100
AcDbEntity
  8
S-REBAR-MAIN
 62
1
100
AcDbHatch
 10
0.0
 20
0.0
 30
0.0
210
0.0
220
0.0
230
1.0
  2
SOLID
 70
1
 71
0
 91
1
 92
3
 72
0
 73
1
 93
16
 10
73.5
 20
397.25
 10
73.45432771950678
 20
397.47961005941903
 10
73.32426406871194
 20
397.6742640687119
 10
73.12961005941906
 20
397.8043277195068
 10
72.9
 20
397.85
 10
72.67038994058095
 20
397.8043277195068
 10
72.47573593128807
 20
397.6742640687119
 10
72.34567228049323
 20
397.47961005941903
 10
72.30000000000001
 20
397.25
 10
72.34567228049323
 20
397.02038994058097
 10
72.47573593128807
 20
396.8257359312881
 10
72.67038994058095
 20
396.6956722804932
 10
72.9
 20
396.65
 10
73.12961005941906
 20
396.6956722804932
 10
73.32426406871194
 20
396.8257359312881
 10
73.45432771950678
 20
397.02038994058097
 97
0
 75
0
 76
1
 98
0
  0
CIRCLE
  5
CF
330
17
100
AcDbEntity
  8
S-REBAR-MAIN
100
AcDbCircle
 10
72.9
 20
404.75
 30
0.0
 40
0.6
  0
HATCH
  5
D0
330
17
100
AcDbEntity
  8
S-REBAR-MAIN
 62
1
100
AcDbHatch
 10
0.0
 20
0.0
 30
0.0
210
0.0
220
0.0
230
1.0
  2
SOLID
 70
1
 71
0
 91
1
 92
3
 72
0
 73
1
 93
16
 10
73.5
 20
404.75
 10
73.45432771950678
 20
404.97961005941903
 10
73.32426406871194
 20
405.1742640687119
 10
73.12961005941906
 20
405.3043277195068
 10
72.9
 20
405.35
 10
72.67038994058095
 20
405.3043277195068
 10
72.47573593128807
 20
405.1742640687119
 10
72.34567228049323
 20
404.97961005941903
 10
72.30000000000001
 20
404.75
 10
72.34567228049323
 20
404.52038994058097
 10
72.47573593128807
 20
404.3257359312881
 10
72.67038994058095
 20
404.1956722804932
 10
72.9
 20
404.15
 10
73.12961005941906
 20
404.1956722804932
 10
73.32426406871194
 20
404.3257359312881
 10
73.45432771950678
 20
404.52038994058097
 97
0
 75
0
 76
1
 98
0
  0
CIRCLE
  5
D1
330
17
100
AcDbEntity
  8
S-REBAR-MAIN
100
AcDbCircle
 10
72.9
 20
412.25
 30
0.0
 40
0.6
  0
HATCH
  5
D2
330
17
100
AcDbEntity
  8
S-REBAR-MAIN
 62
1
100
AcDbHatch
 10
0.0
 20
0.0
 30
0.0
210
0.0
220
0.0
230
1.0
  2
SOLID
 70
1
 71
0
 91
1
 92
3
 72
0
 73
1
 93
16
 10
73.5
 20
412.25
 10
73.45432771950678
 20
412.47961005941903
 10
73.32426406871194
 20
412.6742640687119
 10
73.12961005941906
 20
412.8043277195068
 10
72.9
 20
412.85
 10
72.67038994058095
 20
412.8043277195068
 10
72.47573593128807
 20
412.6742640687119
 10
72.34567228049323
 20
412.47961005941903
 10
72.30000000000001
 20
412.25
 10
72.34567228049323
 20
412.02038994058097
 10
72.47573593128807
 20
411.8257359312881
 10
72.67038994058095
 20
411.6956722804932
 10
72.9
 20
411.65
 10
73.12961005941906
 20
411.6956722804932
 10
73.32426406871194
 20
411.8257359312881
 10
73.45432771950678
 20
412.02038994058097
 97
0
 75
0
 76
1
 98
0
  0
CIRCLE
  5
D3
330
17
100
AcDbEntity
  8
S-REBAR-MAIN
100
AcDbCircle
 10
72.9
 20
419.75
 30
0.0
 40
0.6
  0
HATCH
  5
D4
330
17
100
AcDbEntity
  8
S-REBAR-MAIN
 62
1
100
AcDbHatch
 10
0.0
 20
0.0
 30
0.0
210
0.0
220
0.0
230
1.0
  2
SOLID
 70
1
 71
0
 91
1
 92
3
 72
0
 73
1
 93
16
 10
73.5
 20
419.75
 10
73.45432771950678
 20
419.97961005941903
 10
73.32426406871194
 20
420.1742640687119
 10
73.12961005941906
 20
420.3043277195068
 10
72.9
 20
420.35
 10
72.67038994058095
 20
420.3043277195068
 10
72.47573593128807
 20
420.1742640687119
 10
72.34567228049323
 20
419.97961005941903
 10
72.30000000000001
 20
419.75
 10
72.34567228049323
 20
419.52038994058097
 10
72.47573593128807
 20
419.3257359312881
 10
72.67038994058095
 20
419.1956722804932
 10
72.9
 20
419.15
 10
73.12961005941906
 20
419.1956722804932
 10
73.32426406871194
 20
419.3257359312881
 10
73.45432771950678
 20
419.52038994058097
 97
0
 75
0
 76
1
 98
0
  0
CIRCLE
  5
D5
330
17
100
AcDbEntity
  8
S-REBAR-MAIN
100
AcDbCircle
 10
72.9
 20
427.25
 30
0.0
 40
0.6
  0
HATCH
  5
D6
330
17
100
AcDbEntity
  8
S-REBAR-MAIN
 62
1
100
AcDbHatch
 10
0.0
 20
0.0
 30
0.0
210
0.0
220
0.0
230
1.0
  2
SOLID
 70
1
 71
0
 91
1
 92
3
 72
0
 73
1
 93
16
 10
73.5
 20
427.25
 10
73.45432771950678
 20
427.47961005941903
 10
73.32426406871194
 20
427.6742640687119
 10
73.12961005941906
 20
427.8043277195068
 10
72.9
 20
427.85
 10
72.67038994058095
 20
427.8043277195068
 10
72.47573593128807
 20
427.6742640687119
 10
72.34567228049323
 20
427.47961005941903
 10
72.30000000000001
 20
427.25
 10
72.34567228049323
 20
427.02038994058097
 10
72.47573593128807
 20
426.8257359312881
 10
72.67038994058095
 20
426.6956722804932
 10
72.9
 20
426.65
 10
73.12961005941906
 20
426.6956722804932
 10
73.32426406871194
 20
426.8257359312881
 10
73.45432771950678
 20
427.02038994058097
 97
0
 75
0
 76
1
 98
0
  0
CIRCLE
  5
D7
330
17
100
AcDbEntity
  8
S-REBAR-MAIN
100
AcDbCircle
 10
72.9
 20
434.75
 30
0.0
 40
0.6
  0
HATCH
  5
D8
330
17
100
AcDbEntity
  8
S-REBAR-MAIN
 62
1
100
AcDbHatch
 10
0.0
 20
0.0
 30
0.0
210
0.0
220
0.0
230
1.0
  2
SOLID
 70
1
 71
0
 91
1
 92
3
 72
0
 73
1
 93
16
 10
73.5
 20
434.75
 10
73.45432771950678
 20
434.97961005941903
 10
73.32426406871194
 20
435.1742640687119
 10
73.12961005941906
 20
435.3043277195068
 10
72.9
 20
435.35
 10
72.67038994058095
 20
435.3043277195068
 10
72.47573593128807
 20
435.1742640687119
 10
72.34567228049323
 20
434.97961005941903
 10
72.30000000000001
 20
434.75
 10
72.34567228049323
 20
434.52038994058097
 10
72.47573593128807
 20
434.3257359312881
 10
72.67038994058095
 20
434.1956722804932
 10
72.9
 20
434.15
 10
73.12961005941906
 20
434.1956722804932
 10
73.32426406871194
 20
434.3257359312881
 10
73.45432771950678
 20
434.52038994058097
 97
0
 75
0
 76
1
 98
0
  0
CIRCLE
  5
D9
330
17
100
AcDbEntity
  8
S-REBAR-MAIN
100
AcDbCircle
 10
72.9
 20
442.25
 30
0.0
 40
0.6
  0
HATCH
  5
DA
330
17
100
AcDbEntity
  8
S-REBAR-MAIN
 62
1
100
AcDbHatch
 10
0.0
 20
0.0
 30
0.0
210
0.0
220
0.0
230
1.0
  2
SOLID
 70
1
 71
0
 91
1
 92
3
 72
0
 73
1
 93
16
 10
73.5
 20
442.25
 10
73.45432771950678
 20
442.47961005941903
 10
73.32426406871194
 20
442.6742640687119
 10
73.12961005941906
 20
442.8043277195068
 10
72.9
 20
442.85
 10
72.67038994058095
 20
442.8043277195068
 10
72.47573593128807
 20
442.6742640687119
 10
72.34567228049323
 20
442.47961005941903
 10
72.30000000000001
 20
442.25
 10
72.34567228049323
 20
442.02038994058097
 10
72.47573593128807
 20
441.8257359312881
 10
72.67038994058095
 20
441.6956722804932
 10
72.9
 20
441.65
 10
73.12961005941906
 20
441.6956722804932
 10
73.32426406871194
 20
441.8257359312881
 10
73.45432771950678
 20
442.02038994058097
 97
0
 75
0
 76
1
 98
0
  0
CIRCLE
  5
DB
330
17
100
AcDbEntity
  8
S-REBAR-MAIN
100
AcDbCircle
 10
72.9
 20
449.75
 30
0.0
 40
0.6
  0
HATCH
  5
DC
330
17
100
AcDbEntity
  8
S-REBAR-MAIN
 62
1
100
AcDbHatch
 10
0.0
 20
0.0
 30
0.0
210
0.0
220
0.0
230
1.0
  2
SOLID
 70
1
 71
0
 91
1
 92
3
 72
0
 73
1
 93
16
 10
73.5
 20
449.75
 10
73.45432771950678
 20
449.97961005941903
 10
73.32426406871194
 20
450.1742640687119
 10
73.12961005941906
 20
450.3043277195068
 10
72.9
 20
450.35
 10
72.67038994058095
 20
450.3043277195068
 10
72.47573593128807
 20
450.1742640687119
 10
72.34567228049323
 20
449.97961005941903
 10
72.30000000000001
 20
449.75
 10
72.34567228049323
 20
449.52038994058097
 10
72.47573593128807
 20
449.3257359312881
 10
72.67038994058095
 20
449.1956722804932
 10
72.9
 20
449.15
 10
73.12961005941906
 20
449.1956722804932
 10
73.32426406871194
 20
449.3257359312881
 10
73.45432771950678
 20
449.52038994058097
 97
0
 75
0
 76
1
 98
0
  0
CIRCLE
  5
DD
330
17
100
AcDbEntity
  8
S-REBAR-MAIN
100
AcDbCircle
 10
72.9
 20
457.25
 30
0.0
 40
0.6
  0
HATCH
  5
DE
330
17
100
AcDbEntity
  8
S-REBAR-MAIN
 62
1
100
AcDbHatch
 10
0.0
 20
0.0
 30
0.0
210
0.0
220
0.0
230
1.0
  2
SOLID
 70
1
 71
0
 91
1
 92
3
 72
0
 73
1
 93
16
 10
73.5
 20
457.25
 10
73.45432771950678
 20
457.47961005941903
 10
73.32426406871194
 20
457.6742640687119
 10
73.12961005941906
 20
457.8043277195068
 10
72.9
 20
457.85
 10
72.67038994058095
 20
457.8043277195068
 10
72.47573593128807
 20
457.6742640687119
 10
72.34567228049323
 20
457.47961005941903
 10
72.30000000000001
 20
457.25
 10
72.34567228049323
 20
457.02038994058097
 10
72.47573593128807
 20
456.8257359312881
 10
72.67038994058095
 20
456.6956722804932
 10
72.9
 20
456.65
 10
73.12961005941906
 20
456.6956722804932
 10
73.32426406871194
 20
456.8257359312881
 10
73.45432771950678
 20
457.02038994058097
 97
0
 75
0
 76
1
 98
0
  0
CIRCLE
  5
DF
330
17
100
AcDbEntity
  8
S-REBAR-MAIN
100
AcDbCircle
 10
72.9
 20
464.75
 30
0.0
 40
0.6
  0
HATCH
  5
E0
330
17
100
AcDbEntity
  8
S-REBAR-MAIN
 62
1
100
AcDbHatch
 10
0.0
 20
0.0
 30
0.0
210
0.0
220
0.0
230
1.0
  2
SOLID
 70
1
 71
0
 91
1
 92
3
 72
0
 73
1
 93
16
 10
73.5
 20
464.75
 10
73.45432771950678
 20
464.97961005941903
 10
73.32426406871194
 20
465.1742640687119
 10
73.12961005941906
 20
465.3043277195068
 10
72.9
 20
465.35
 10
72.67038994058095
 20
465.3043277195068
 10
72.47573593128807
 20
465.1742640687119
 10
72.34567228049323
 20
464.97961005941903
 10
72.30000000000001
 20
464.75
 10
72.34567228049323
 20
464.52038994058097
 10
72.47573593128807
 20
464.3257359312881
 10
72.67038994058095
 20
464.1956722804932
 10
72.9
 20
464.15
 10
73.12961005941906
 20
464.1956722804932
 10
73.32426406871194
 20
464.3257359312881
 10
73.45432771950678
 20
464.52038994058097
 97
0
 75
0
 76
1
 98
0
  0
CIRCLE
  5
E1
330
17
100
AcDbEntity
  8
S-REBAR-MAIN
100
AcDbCircle
 10
72.9
 20
472.25
 30
0.0
 40
0.6
  0
HATCH
  5
E2
330
17
100
AcDbEntity
  8
S-REBAR-MAIN
 62
1
100
AcDbHatch
 10
0.0
 20
0.0
 30
0.0
210
0.0
220
0.0
230
1.0
  2
SOLID
 70
1
 71
0
 91
1
 92
3
 72
0
 73
1
 93
16
 10
73.5
 20
472.25
 10
73.45432771950678
 20
472.47961005941903
 10
73.32426406871194
 20
472.6742640687119
 10
73.12961005941906
 20
472.8043277195068
 10
72.9
 20
472.85
 10
72.67038994058095
 20
472.8043277195068
 10
72.47573593128807
 20
472.6742640687119
 10
72.34567228049323
 20
472.47961005941903
 10
72.30000000000001
 20
472.25
 10
72.34567228049323
 20
472.02038994058097
 10
72.47573593128807
 20
471.8257359312881
 10
72.67038994058095
 20
471.6956722804932
 10
72.9
 20
471.65
 10
73.12961005941906
 20
471.6956722804932
 10
73.32426406871194
 20
471.8257359312881
 10
73.45432771950678
 20
472.02038994058097
 97
0
 75
0
 76
1
 98
0
  0
CIRCLE
  5
E3
330
17
100
AcDbEntity
  8
S-REBAR-MAIN
100
AcDbCircle
 10
72.9
 20
479.75
 30
0.0
 40
0.6
  0
HATCH
  5
E4
330
17
100
AcDbEntity
  8
S-REBAR-MAIN
 62
1
100
AcDbHatch
 10
0.0
 20
0.0
 30
0.0
210
0.0
220
0.0
230
1.0
  2
SOLID
 70
1
 71
0
 91
1
 92
3
 72
0
 73
1
 93
16
 10
73.5
 20
479.75
 10
73.45432771950678
 20
479.97961005941903
 10
73.32426406871194
 20
480.1742640687119
 10
73.12961005941906
 20
480.3043277195068
 10
72.9
 20
480.35
 10
72.67038994058095
 20
480.3043277195068
 10
72.47573593128807
 20
480.1742640687119
 10
72.34567228049323
 20
479.97961005941903
 10
72.30000000000001
 20
479.75
 10
72.34567228049323
 20
479.52038994058097
 10
72.47573593128807
 20
479.3257359312881
 10
72.67038994058095
 20
479.1956722804932
 10
72.9
 20
479.15
 10
73.12961005941906
 20
479.1956722804932
 10
73.32426406871194
 20
479.3257359312881
 10
73.45432771950678
 20
479.52038994058097
 97
0
 75
0
 76
1
 98
0
  0
CIRCLE
  5
E5
330
17
100
AcDbEntity
  8
S-REBAR-MAIN
100
AcDbCircle
 10
72.9
 20
487.25
 30
0.0
 40
0.6
  0
HATCH
  5
E6
330
17
100
AcDbEntity
  8
S-REBAR-MAIN
 62
1
100
AcDbHatch
 10
0.0
 20
0.0
 30
0.0
210
0.0
220
0.0
230
1.0
  2
SOLID
 70
1
 71
0
 91
1
 92
3
 72
0
 73
1
 93
16
 10
73.5
 20
487.25
 10
73.45432771950678
 20
487.47961005941903
 10
73.32426406871194
 20
487.6742640687119
 10
73.12961005941906
 20
487.8043277195068
 10
72.9
 20
487.85
 10
72.67038994058095
 20
487.8043277195068
 10
72.47573593128807
 20
487.6742640687119
 10
72.34567228049323
 20
487.47961005941903
 10
72.30000000000001
 20
487.25
 10
72.34567228049323
 20
487.02038994058097
 10
72.47573593128807
 20
486.8257359312881
 10
72.67038994058095
 20
486.6956722804932
 10
72.9
 20
486.65
 10
73.12961005941906
 20
486.6956722804932
 10
73.32426406871194
 20
486.8257359312881
 10
73.45432771950678
 20
487.02038994058097
 97
0
 75
0
 76
1
 98
0
  0
CIRCLE
  5
E7
330
17
100
AcDbEntity
  8
S-REBAR-MAIN
100
AcDbCircle
 10
72.9
 20
494.75
 30
0.0
 40
0.6
  0
HATCH
  5
E8
330
17
100
AcDbEntity
  8
S-REBAR-MAIN
 62
1
100
AcDbHatch
 10
0.0
 20
0.0
 30
0.0
210
0.0
220
0.0
230
1.0
  2
SOLID
 70
1
 71
0
 91
1
 92
3
 72
0
 73
1
 93
16
 10
73.5
 20
494.75
 10
73.45432771950678
 20
494.97961005941903
 10
73.32426406871194
 20
495.1742640687119
 10
73.12961005941906
 20
495.3043277195068
 10
72.9
 20
495.35
 10
72.67038994058095
 20
495.3043277195068
 10
72.47573593128807
 20
495.1742640687119
 10
72.34567228049323
 20
494.97961005941903
 10
72.30000000000001
 20
494.75
 10
72.34567228049323
 20
494.52038994058097
 10
72.47573593128807
 20
494.3257359312881
 10
72.67038994058095
 20
494.1956722804932
 10
72.9
 20
494.15
 10
73.12961005941906
 20
494.1956722804932
 10
73.32426406871194
 20
494.3257359312881
 10
73.45432771950678
 20
494.52038994058097
 97
0
 75
0
 76
1
 98
0
  0
CIRCLE
  5
E9
330
17
100
AcDbEntity
  8
S-REBAR-MAIN
100
AcDbCircle
 10
72.9
 20
502.25
 30
0.0
 40
0.6
  0
HATCH
  5
EA
330
17
100
AcDbEntity
  8
S-REBAR-MAIN
 62
1
100
AcDbHatch
 10
0.0
 20
0.0
 30
0.0
210
0.0
220
0.0
230
1.0
  2
SOLID
 70
1
 71
0
 91
1
 92
3
 72
0
 73
1
 93
16
 10
73.5
 20
502.25
 10
73.45432771950678
 20
502.47961005941903
 10
73.32426406871194
 20
502.6742640687119
 10
73.12961005941906
 20
502.8043277195068
 10
72.9
 20
502.85
 10
72.67038994058095
 20
502.8043277195068
 10
72.47573593128807
 20
502.6742640687119
 10
72.34567228049323
 20
502.47961005941903
 10
72.30000000000001
 20
502.25
 10
72.34567228049323
 20
502.02038994058097
 10
72.47573593128807
 20
501.8257359312881
 10
72.67038994058095
 20
501.6956722804932
 10
72.9
 20
501.65
 10
73.12961005941906
 20
501.6956722804932
 10
73.32426406871194
 20
501.8257359312881
 10
73.45432771950678
 20
502.02038994058097
 97
0
 75
0
 76
1
 98
0
  0
CIRCLE
  5
EB
330
17
100
AcDbEntity
  8
S-REBAR-MAIN
100
AcDbCircle
 10
72.9
 20
509.75
 30
0.0
 40
0.6
  0
HATCH
  5
EC
330
17
100
AcDbEntity
  8
S-REBAR-MAIN
 62
1
100
AcDbHatch
 10
0.0
 20
0.0
 30
0.0
210
0.0
220
0.0
230
1.0
  2
SOLID
 70
1
 71
0
 91
1
 92
3
 72
0
 73
1
 93
16
 10
73.5
 20
509.75
 10
73.45432771950678
 20
509.97961005941903
 10
73.32426406871194
 20
510.1742640687119
 10
73.12961005941906
 20
510.3043277195068
 10
72.9
 20
510.35
 10
72.67038994058095
 20
510.3043277195068
 10
72.47573593128807
 20
510.1742640687119
 10
72.34567228049323
 20
509.97961005941903
 10
72.30000000000001
 20
509.75
 10
72.34567228049323
 20
509.52038994058097
 10
72.47573593128807
 20
509.3257359312881
 10
72.67038994058095
 20
509.1956722804932
 10
72.9
 20
509.15
 10
73.12961005941906
 20
509.1956722804932
 10
73.32426406871194
 20
509.3257359312881
 10
73.45432771950678
 20
509.52038994058097
 97
0
 75
0
 76
1
 98
0
  0
CIRCLE
  5
ED
330
17
100
AcDbEntity
  8
S-REBAR-MAIN
100
AcDbCircle
 10
97.6
 20
359.75
 30
0.0
 40
0.6
  0
HATCH
  5
EE
330
17
100
AcDbEntity
  8
S-REBAR-MAIN
 62
1
100
AcDbHatch
 10
0.0
 20
0.0
 30
0.0
210
0.0
220
0.0
230
1.0
  2
SOLID
 70
1
 71
0
 91
1
 92
3
 72
0
 73
1
 93
16
 10
98.19999999999999
 20
359.75
 10
98.15432771950677
 20
359.97961005941903
 10
98.02426406871193
 20
360.1742640687119
 10
97.82961005941905
 20
360.3043277195068
 10
97.6
 20
360.35
 10
97.37038994058094
 20
360.3043277195068
 10
97.17573593128806
 20
360.1742640687119
 10
97.04567228049322
 20
359.97961005941903
 10
97.0
 20
359.75
 10
97.04567228049322
 20
359.52038994058097
 10
97.17573593128806
 20
359.3257359312881
 10
97.37038994058094
 20
359.1956722804932
 10
97.6
 20
359.15
 10
97.82961005941905
 20
359.1956722804932
 10
98.02426406871193
 20
359.3257359312881
 10
98.15432771950677
 20
359.52038994058097
 97
0
 75
0
 76
1
 98
0
  0
CIRCLE
  5
EF
330
17
100
AcDbEntity
  8
S-REBAR-MAIN
100
AcDbCircle
 10
97.6
 20
367.25
 30
0.0
 40
0.6
  0
HATCH
  5
F0
330
17
100
AcDbEntity
  8
S-REBAR-MAIN
 62
1
100
AcDbHatch
 10
0.0
 20
0.0
 30
0.0
210
0.0
220
0.0
230
1.0
  2
SOLID
 70
1
 71
0
 91
1
 92
3
 72
0
 73
1
 93
16
 10
98.19999999999999
 20
367.25
 10
98.15432771950677
 20
367.47961005941903
 10
98.02426406871193
 20
367.6742640687119
 10
97.82961005941905
 20
367.8043277195068
 10
97.6
 20
367.85
 10
97.37038994058094
 20
367.8043277195068
 10
97.17573593128806
 20
367.6742640687119
 10
97.04567228049322
 20
367.47961005941903
 10
97.0
 20
367.25
 10
97.04567228049322
 20
367.02038994058097
 10
97.17573593128806
 20
366.8257359312881
 10
97.37038994058094
 20
366.6956722804932
 10
97.6
 20
366.65
 10
97.82961005941905
 20
366.6956722804932
 10
98.02426406871193
 20
366.8257359312881
 10
98.15432771950677
 20
367.02038994058097
 97
0
 75
0
 76
1
 98
0
  0
CIRCLE
  5
F1
330
17
100
AcDbEntity
  8
S-REBAR-MAIN
100
AcDbCircle
 10
97.6
 20
374.75
 30
0.0
 40
0.6
  0
HATCH
  5
F2
330
17
100
AcDbEntity
  8
S-REBAR-MAIN
 62
1
100
AcDbHatch
 10
0.0
 20
0.0
 30
0.0
210
0.0
220
0.0
230
1.0
  2
SOLID
 70
1
 71
0
 91
1
 92
3
 72
0
 73
1
 93
16
 10
98.19999999999999
 20
374.75
 10
98.15432771950677
 20
374.97961005941903
 10
98.02426406871193
 20
375.1742640687119
 10
97.82961005941905
 20
375.3043277195068
 10
97.6
 20
375.35
 10
97.37038994058094
 20
375.3043277195068
 10
97.17573593128806
 20
375.1742640687119
 10
97.04567228049322
 20
374.97961005941903
 10
97.0
 20
374.75
 10
97.04567228049322
 20
374.52038994058097
 10
97.17573593128806
 20
374.3257359312881
 10
97.37038994058094
 20
374.1956722804932
 10
97.6
 20
374.15
 10
97.82961005941905
 20
374.1956722804932
 10
98.02426406871193
 20
374.3257359312881
 10
98.15432771950677
 20
374.52038994058097
 97
0
 75
0
 76
1
 98
0
  0
CIRCLE
  5
F3
330
17
100
AcDbEntity
  8
S-REBAR-MAIN
100
AcDbCircle
 10
97.6
 20
382.25
 30
0.0
 40
0.6
  0
HATCH
  5
F4
330
17
100
AcDbEntity
  8
S-REBAR-MAIN
 62
1
100
AcDbHatch
 10
0.0
 20
0.0
 30
0.0
210
0.0
220
0.0
230
1.0
  2
SOLID
 70
1
 71
0
 91
1
 92
3
 72
0
 73
1
 93
16
 10
98.19999999999999
 20
382.25
 10
98.15432771950677
 20
382.47961005941903
 10
98.02426406871193
 20
382.6742640687119
 10
97.82961005941905
 20
382.8043277195068
 10
97.6
 20
382.85
 10
97.37038994058094
 20
382.8043277195068
 10
97.17573593128806
 20
382.6742640687119
 10
97.04567228049322
 20
382.47961005941903
 10
97.0
 20
382.25
 10
97.04567228049322
 20
382.02038994058097
 10
97.17573593128806
 20
381.8257359312881
 10
97.37038994058094
 20
381.6956722804932
 10
97.6
 20
381.65
 10
97.82961005941905
 20
381.6956722804932
 10
98.02426406871193
 20
381.8257359312881
 10
98.15432771950677
 20
382.02038994058097
 97
0
 75
0
 76
1
 98
0
  0
CIRCLE
  5
F5
330
17
100
AcDbEntity
  8
S-REBAR-MAIN
100
AcDbCircle
 10
97.6
 20
389.75
 30
0.0
 40
0.6
  0
HATCH
  5
F6
330
17
100
AcDbEntity
  8
S-REBAR-MAIN
 62
1
100
AcDbHatch
 10
0.0
 20
0.0
 30
0.0
210
0.0
220
0.0
230
1.0
  2
SOLID
 70
1
 71
0
 91
1
 92
3
 72
0
 73
1
 93
16
 10
98.19999999999999
 20
389.75
 10
98.15432771950677
 20
389.97961005941903
 10
98.02426406871193
 20
390.1742640687119
 10
97.82961005941905
 20
390.3043277195068
 10
97.6
 20
390.35
 10
97.37038994058094
 20
390.3043277195068
 10
97.17573593128806
 20
390.1742640687119
 10
97.04567228049322
 20
389.97961005941903
 10
97.0
 20
389.75
 10
97.04567228049322
 20
389.52038994058097
 10
97.17573593128806
 20
389.3257359312881
 10
97.37038994058094
 20
389.1956722804932
 10
97.6
 20
389.15
 10
97.82961005941905
 20
389.1956722804932
 10
98.02426406871193
 20
389.3257359312881
 10
98.15432771950677
 20
389.52038994058097
 97
0
 75
0
 76
1
 98
0
  0
CIRCLE
  5
F7
330
17
100
AcDbEntity
  8
S-REBAR-MAIN
100
AcDbCircle
 10
97.6
 20
397.25
 30
0.0
 40
0.6
  0
HATCH
  5
F8
330
17
100
AcDbEntity
  8
S-REBAR-MAIN
 62
1
100
AcDbHatch
 10
0.0
 20
0.0
 30
0.0
210
0.0
220
0.0
230
1.0
  2
SOLID
 70
1
 71
0
 91
1
 92
3
 72
0
 73
1
 93
16
 10
98.19999999999999
 20
397.25
 10
98.15432771950677
 20
397.47961005941903
 10
98.02426406871193
 20
397.6742640687119
 10
97.82961005941905
 20
397.8043277195068
 10
97.6
 20
397.85
 10
97.37038994058094
 20
397.8043277195068
 10
97.17573593128806
 20
397.6742640687119
 10
97.04567228049322
 20
397.47961005941903
 10
97.0
 20
397.25
 10
97.04567228049322
 20
397.02038994058097
 10
97.17573593128806
 20
396.8257359312881
 10
97.37038994058094
 20
396.6956722804932
 10
97.6
 20
396.65
 10
97.82961005941905
 20
396.6956722804932
 10
98.02426406871193
 20
396.8257359312881
 10
98.15432771950677
 20
397.02038994058097
 97
0
 75
0
 76
1
 98
0
  0
CIRCLE
  5
F9
330
17
100
AcDbEntity
  8
S-REBAR-MAIN
100
AcDbCircle
 10
97.6
 20
404.75
 30
0.0
 40
0.6
  0
HATCH
  5
FA
330
17
100
AcDbEntity
  8
S-REBAR-MAIN
 62
1
100
AcDbHatch
 10
0.0
 20
0.0
 30
0.0
210
0.0
220
0.0
230
1.0
  2
SOLID
 70
1
 71
0
 91
1
 92
3
 72
0
 73
1
 93
16
 10
98.19999999999999
 20
404.75
 10
98.15432771950677
 20
404.97961005941903
 10
98.02426406871193
 20
405.1742640687119
 10
97.82961005941905
 20
405.3043277195068
 10
97.6
 20
405.35
 10
97.37038994058094
 20
405.3043277195068
 10
97.17573593128806
 20
405.1742640687119
 10
97.04567228049322
 20
404.97961005941903
 10
97.0
 20
404.75
 10
97.04567228049322
 20
404.52038994058097
 10
97.17573593128806
 20
404.3257359312881
 10
97.37038994058094
 20
404.1956722804932
 10
97.6
 20
404.15
 10
97.82961005941905
 20
404.1956722804932
 10
98.02426406871193
 20
404.3257359312881
 10
98.15432771950677
 20
404.52038994058097
 97
0
 75
0
 76
1
 98
0
  0
CIRCLE
  5
FB
330
17
100
AcDbEntity
  8
S-REBAR-MAIN
100
AcDbCircle
 10
97.6
 20
412.25
 30
0.0
 40
0.6
  0
HATCH
  5
FC
330
17
100
AcDbEntity
  8
S-REBAR-MAIN
 62
1
100
AcDbHatch
 10
0.0
 20
0.0
 30
0.0
210
0.0
220
0.0
230
1.0
  2
SOLID
 70
1
 71
0
 91
1
 92
3
 72
0
 73
1
 93
16
 10
98.19999999999999
 20
412.25
 10
98.15432771950677
 20
412.47961005941903
 10
98.02426406871193
 20
412.6742640687119
 10
97.82961005941905
 20
412.8043277195068
 10
97.6
 20
412.85
 10
97.37038994058094
 20
412.8043277195068
 10
97.17573593128806
 20
412.6742640687119
 10
97.04567228049322
 20
412.47961005941903
 10
97.0
 20
412.25
 10
97.04567228049322
 20
412.02038994058097
 10
97.17573593128806
 20
411.8257359312881
 10
97.37038994058094
 20
411.6956722804932
 10
97.6
 20
411.65
 10
97.82961005941905
 20
411.6956722804932
 10
98.02426406871193
 20
411.8257359312881
 10
98.15432771950677
 20
412.02038994058097
 97
0
 75
0
 76
1
 98
0
  0
CIRCLE
  5
FD
330
17
100
AcDbEntity
  8
S-REBAR-MAIN
100
AcDbCircle
 10
97.6
 20
419.75
 30
0.0
 40
0.6
  0
HATCH
  5
FE
330
17
100
AcDbEntity
  8
S-REBAR-MAIN
 62
1
100
AcDbHatch
 10
0.0
 20
0.0
 30
0.0
210
0.0
220
0.0
230
1.0
  2
SOLID
 70
1
 71
0
 91
1
 92
3
 72
0
 73
1
 93
16
 10
98.19999999999999
 20
419.75
 10
98.15432771950677
 20
419.97961005941903
 10
98.02426406871193
 20
420.1742640687119
 10
97.82961005941905
 20
420.3043277195068
 10
97.6
 20
420.35
 10
97.37038994058094
 20
420.3043277195068
 10
97.17573593128806
 20
420.1742640687119
 10
97.04567228049322
 20
419.97961005941903
 10
97.0
 20
419.75
 10
97.04567228049322
 20
419.52038994058097
 10
97.17573593128806
 20
419.3257359312881
 10
97.37038994058094
 20
419.1956722804932
 10
97.6
 20
419.15
 10
97.82961005941905
 20
419.1956722804932
 10
98.02426406871193
 20
419.3257359312881
 10
98.15432771950677
 20
419.52038994058097
 97
0
 75
0
 76
1
 98
0
  0
CIRCLE
  5
FF
330
17
100
AcDbEntity
  8
S-REBAR-MAIN
100
AcDbCircle
 10
97.6
 20
427.25
 30
0.0
 40
0.6
  0
HATCH
  5
100
330
17
100
AcDbEntity
  8
S-REBAR-MAIN
 62
1
100
AcDbHatch
 10
0.0
 20
0.0
 30
0.0
210
0.0
220
0.0
230
1.0
  2
SOLID
 70
1
 71
0
 91
1
 92
3
 72
0
 73
1
 93
16
 10
98.19999999999999
 20
427.25
 10
98.15432771950677
 20
427.47961005941903
 10
98.02426406871193
 20
427.6742640687119
 10
97.82961005941905
 20
427.8043277195068
 10
97.6
 20
427.85
 10
97.37038994058094
 20
427.8043277195068
 10
97.17573593128806
 20
427.6742640687119
 10
97.04567228049322
 20
427.47961005941903
 10
97.0
 20
427.25
 10
97.04567228049322
 20
427.02038994058097
 10
97.17573593128806
 20
426.8257359312881
 10
97.37038994058094
 20
426.6956722804932
 10
97.6
 20
426.65
 10
97.82961005941905
 20
426.6956722804932
 10
98.02426406871193
 20
426.8257359312881
 10
98.15432771950677
 20
427.02038994058097
 97
0
 75
0
 76
1
 98
0
  0
CIRCLE
  5
101
330
17
100
AcDbEntity
  8
S-REBAR-MAIN
100
AcDbCircle
 10
97.6
 20
434.75
 30
0.0
 40
0.6
  0
HATCH
  5
102
330
17
100
AcDbEntity
  8
S-REBAR-MAIN
 62
1
100
AcDbHatch
 10
0.0
 20
0.0
 30
0.0
210
0.0
220
0.0
230
1.0
  2
SOLID
 70
1
 71
0
 91
1
 92
3
 72
0
 73
1
 93
16
 10
98.19999999999999
 20
434.75
 10
98.15432771950677
 20
434.97961005941903
 10
98.02426406871193
 20
435.1742640687119
 10
97.82961005941905
 20
435.3043277195068
 10
97.6
 20
435.35
 10
97.37038994058094
 20
435.3043277195068
 10
97.17573593128806
 20
435.1742640687119
 10
97.04567228049322
 20
434.97961005941903
 10
97.0
 20
434.75
 10
97.04567228049322
 20
434.52038994058097
 10
97.17573593128806
 20
434.3257359312881
 10
97.37038994058094
 20
434.1956722804932
 10
97.6
 20
434.15
 10
97.82961005941905
 20
434.1956722804932
 10
98.02426406871193
 20
434.3257359312881
 10
98.15432771950677
 20
434.52038994058097
 97
0
 75
0
 76
1
 98
0
  0
CIRCLE
  5
103
330
17
100
AcDbEntity
  8
S-REBAR-MAIN
100
AcDbCircle
 10
97.6
 20
442.25
 30
0.0
 40
0.6
  0
HATCH
  5
104
330
17
100
AcDbEntity
  8
S-REBAR-MAIN
 62
1
100
AcDbHatch
 10
0.0
 20
0.0
 30
0.0
210
0.0
220
0.0
230
1.0
  2
SOLID
 70
1
 71
0
 91
1
 92
3
 72
0
 73
1
 93
16
 10
98.19999999999999
 20
442.25
 10
98.15432771950677
 20
442.47961005941903
 10
98.02426406871193
 20
442.6742640687119
 10
97.82961005941905
 20
442.8043277195068
 10
97.6
 20
442.85
 10
97.37038994058094
 20
442.8043277195068
 10
97.17573593128806
 20
442.6742640687119
 10
97.04567228049322
 20
442.47961005941903
 10
97.0
 20
442.25
 10
97.04567228049322
 20
442.02038994058097
 10
97.17573593128806
 20
441.8257359312881
 10
97.37038994058094
 20
441.6956722804932
 10
97.6
 20
441.65
 10
97.82961005941905
 20
441.6956722804932
 10
98.02426406871193
 20
441.8257359312881
 10
98.15432771950677
 20
442.02038994058097
 97
0
 75
0
 76
1
 98
0
  0
CIRCLE
  5
105
330
17
100
AcDbEntity
  8
S-REBAR-MAIN
100
AcDbCircle
 10
97.6
 20
449.75
 30
0.0
 40
0.6
  0
HATCH
  5
106
330
17
100
AcDbEntity
  8
S-REBAR-MAIN
 62
1
100
AcDbHatch
 10
0.0
 20
0.0
 30
0.0
210
0.0
220
0.0
230
1.0
  2
SOLID
 70
1
 71
0
 91
1
 92
3
 72
0
 73
1
 93
16
 10
98.19999999999999
 20
449.75
 10
98.15432771950677
 20
449.97961005941903
 10
98.02426406871193
 20
450.1742640687119
 10
97.82961005941905
 20
450.3043277195068
 10
97.6
 20
450.35
 10
97.37038994058094
 20
450.3043277195068
 10
97.17573593128806
 20
450.1742640687119
 10
97.04567228049322
 20
449.97961005941903
 10
97.0
 20
449.75
 10
97.04567228049322
 20
449.52038994058097
 10
97.17573593128806
 20
449.3257359312881
 10
97.37038994058094
 20
449.1956722804932
 10
97.6
 20
449.15
 10
97.82961005941905
 20
449.1956722804932
 10
98.02426406871193
 20
449.3257359312881
 10
98.15432771950677
 20
449.52038994058097
 97
0
 75
0
 76
1
 98
0
  0
CIRCLE
  5
107
330
17
100
AcDbEntity
  8
S-REBAR-MAIN
100
AcDbCircle
 10
97.6
 20
457.25
 30
0.0
 40
0.6
  0
HATCH
  5
108
330
17
100
AcDbEntity
  8
S-REBAR-MAIN
 62
1
100
AcDbHatch
 10
0.0
 20
0.0
 30
0.0
210
0.0
220
0.0
230
1.0
  2
SOLID
 70
1
 71
0
 91
1
 92
3
 72
0
 73
1
 93
16
 10
98.19999999999999
 20
457.25
 10
98.15432771950677
 20
457.47961005941903
 10
98.02426406871193
 20
457.6742640687119
 10
97.82961005941905
 20
457.8043277195068
 10
97.6
 20
457.85
 10
97.37038994058094
 20
457.8043277195068
 10
97.17573593128806
 20
457.6742640687119
 10
97.04567228049322
 20
457.47961005941903
 10
97.0
 20
457.25
 10
97.04567228049322
 20
457.02038994058097
 10
97.17573593128806
 20
456.8257359312881
 10
97.37038994058094
 20
456.6956722804932
 10
97.6
 20
456.65
 10
97.82961005941905
 20
456.6956722804932
 10
98.02426406871193
 20
456.8257359312881
 10
98.15432771950677
 20
457.02038994058097
 97
0
 75
0
 76
1
 98
0
  0
CIRCLE
  5
109
330
17
100
AcDbEntity
  8
S-REBAR-MAIN
100
AcDbCircle
 10
97.6
 20
464.75
 30
0.0
 40
0.6
  0
HATCH
  5
10A
330
17
100
AcDbEntity
  8
S-REBAR-MAIN
 62
1
100
AcDbHatch
 10
0.0
 20
0.0
 30
0.0
210
0.0
220
0.0
230
1.0
  2
SOLID
 70
1
 71
0
 91
1
 92
3
 72
0
 73
1
 93
16
 10
98.19999999999999
 20
464.75
 10
98.15432771950677
 20
464.97961005941903
 10
98.02426406871193
 20
465.1742640687119
 10
97.82961005941905
 20
465.3043277195068
 10
97.6
 20
465.35
 10
97.37038994058094
 20
465.3043277195068
 10
97.17573593128806
 20
465.1742640687119
 10
97.04567228049322
 20
464.97961005941903
 10
97.0
 20
464.75
 10
97.04567228049322
 20
464.52038994058097
 10
97.17573593128806
 20
464.3257359312881
 10
97.37038994058094
 20
464.1956722804932
 10
97.6
 20
464.15
 10
97.82961005941905
 20
464.1956722804932
 10
98.02426406871193
 20
464.3257359312881
 10
98.15432771950677
 20
464.52038994058097
 97
0
 75
0
 76
1
 98
0
  0
CIRCLE
  5
10B
330
17
100
AcDbEntity
  8
S-REBAR-MAIN
100
AcDbCircle
 10
97.6
 20
472.25
 30
0.0
 40
0.6
  0
HATCH
  5
10C
330
17
100
AcDbEntity
  8
S-REBAR-MAIN
 62
1
100
AcDbHatch
 10
0.0
 20
0.0
 30
0.0
210
0.0
220
0.0
230
1.0
  2
SOLID
 70
1
 71
0
 91
1
 92
3
 72
0
 73
1
 93
16
 10
98.19999999999999
 20
472.25
 10
98.15432771950677
 20
472.47961005941903
 10
98.02426406871193
 20
472.6742640687119
 10
97.82961005941905
 20
472.8043277195068
 10
97.6
 20
472.85
 10
97.37038994058094
 20
472.8043277195068
 10
97.17573593128806
 20
472.6742640687119
 10
97.04567228049322
 20
472.47961005941903
 10
97.0
 20
472.25
 10
97.04567228049322
 20
472.02038994058097
 10
97.17573593128806
 20
471.8257359312881
 10
97.37038994058094
 20
471.6956722804932
 10
97.6
 20
471.65
 10
97.82961005941905
 20
471.6956722804932
 10
98.02426406871193
 20
471.8257359312881
 10
98.15432771950677
 20
472.02038994058097
 97
0
 75
0
 76
1
 98
0
  0
CIRCLE
  5
10D
330
17
100
AcDbEntity
  8
S-REBAR-MAIN
100
AcDbCircle
 10
97.6
 20
479.75
 30
0.0
 40
0.6
  0
HATCH
  5
10E
330
17
100
AcDbEntity
  8
S-REBAR-MAIN
 62
1
100
AcDbHatch
 10
0.0
 20
0.0
 30
0.0
210
0.0
220
0.0
230
1.0
  2
SOLID
 70
1
 71
0
 91
1
 92
3
 72
0
 73
1
 93
16
 10
98.19999999999999
 20
479.75
 10
98.15432771950677
 20
479.97961005941903
 10
98.02426406871193
 20
480.1742640687119
 10
97.82961005941905
 20
480.3043277195068
 10
97.6
 20
480.35
 10
97.37038994058094
 20
480.3043277195068
 10
97.17573593128806
 20
480.1742640687119
 10
97.04567228049322
 20
479.97961005941903
 10
97.0
 20
479.75
 10
97.04567228049322
 20
479.52038994058097
 10
97.17573593128806
 20
479.3257359312881
 10
97.37038994058094
 20
479.1956722804932
 10
97.6
 20
479.15
 10
97.82961005941905
 20
479.1956722804932
 10
98.02426406871193
 20
479.3257359312881
 10
98.15432771950677
 20
479.52038994058097
 97
0
 75
0
 76
1
 98
0
  0
CIRCLE
  5
10F
330
17
100
AcDbEntity
  8
S-REBAR-MAIN
100
AcDbCircle
 10
97.6
 20
487.25
 30
0.0
 40
0.6
  0
HATCH
  5
110
330
17
100
AcDbEntity
  8
S-REBAR-MAIN
 62
1
100
AcDbHatch
 10
0.0
 20
0.0
 30
0.0
210
0.0
220
0.0
230
1.0
  2
SOLID
 70
1
 71
0
 91
1
 92
3
 72
0
 73
1
 93
16
 10
98.19999999999999
 20
487.25
 10
98.15432771950677
 20
487.47961005941903
 10
98.02426406871193
 20
487.6742640687119
 10
97.82961005941905
 20
487.8043277195068
 10
97.6
 20
487.85
 10
97.37038994058094
 20
487.8043277195068
 10
97.17573593128806
 20
487.6742640687119
 10
97.04567228049322
 20
487.47961005941903
 10
97.0
 20
487.25
 10
97.04567228049322
 20
487.02038994058097
 10
97.17573593128806
 20
486.8257359312881
 10
97.37038994058094
 20
486.6956722804932
 10
97.6
 20
486.65
 10
97.82961005941905
 20
486.6956722804932
 10
98.02426406871193
 20
486.8257359312881
 10
98.15432771950677
 20
487.02038994058097
 97
0
 75
0
 76
1
 98
0
  0
CIRCLE
  5
111
330
17
100
AcDbEntity
  8
S-REBAR-MAIN
100
AcDbCircle
 10
97.6
 20
494.75
 30
0.0
 40
0.6
  0
HATCH
  5
112
330
17
100
AcDbEntity
  8
S-REBAR-MAIN
 62
1
100
AcDbHatch
 10
0.0
 20
0.0
 30
0.0
210
0.0
220
0.0
230
1.0
  2
SOLID
 70
1
 71
0
 91
1
 92
3
 72
0
 73
1
 93
16
 10
98.19999999999999
 20
494.75
 10
98.15432771950677
 20
494.97961005941903
 10
98.02426406871193
 20
495.1742640687119
 10
97.82961005941905
 20
495.3043277195068
 10
97.6
 20
495.35
 10
97.37038994058094
 20
495.3043277195068
 10
97.17573593128806
 20
495.1742640687119
 10
97.04567228049322
 20
494.97961005941903
 10
97.0
 20
494.75
 10
97.04567228049322
 20
494.52038994058097
 10
97.17573593128806
 20
494.3257359312881
 10
97.37038994058094
 20
494.1956722804932
 10
97.6
 20
494.15
 10
97.82961005941905
 20
494.1956722804932
 10
98.02426406871193
 20
494.3257359312881
 10
98.15432771950677
 20
494.52038994058097
 97
0
 75
0
 76
1
 98
0
  0
CIRCLE
  5
113
330
17
100
AcDbEntity
  8
S-REBAR-MAIN
100
AcDbCircle
 10
97.6
 20
502.25
 30
0.0
 40
0.6
  0
HATCH
  5
114
330
17
100
AcDbEntity
  8
S-REBAR-MAIN
 62
1
100
AcDbHatch
 10
0.0
 20
0.0
 30
0.0
210
0.0
220
0.0
230
1.0
  2
SOLID
 70
1
 71
0
 91
1
 92
3
 72
0
 73
1
 93
16
 10
98.19999999999999
 20
502.25
 10
98.15432771950677
 20
502.47961005941903
 10
98.02426406871193
 20
502.6742640687119
 10
97.82961005941905
 20
502.8043277195068
 10
97.6
 20
502.85
 10
97.37038994058094
 20
502.8043277195068
 10
97.17573593128806
 20
502.6742640687119
 10
97.04567228049322
 20
502.47961005941903
 10
97.0
 20
502.25
 10
97.04567228049322
 20
502.02038994058097
 10
97.17573593128806
 20
501.8257359312881
 10
97.37038994058094
 20
501.6956722804932
 10
97.6
 20
501.65
 10
97.82961005941905
 20
501.6956722804932
 10
98.02426406871193
 20
501.8257359312881
 10
98.15432771950677
 20
502.02038994058097
 97
0
 75
0
 76
1
 98
0
  0
CIRCLE
  5
115
330
17
100
AcDbEntity
  8
S-REBAR-MAIN
100
AcDbCircle
 10
97.6
 20
509.75
 30
0.0
 40
0.6
  0
HATCH
  5
116
330
17
100
AcDbEntity
  8
S-REBAR-MAIN
 62
1
100
AcDbHatch
 10
0.0
 20
0.0
 30
0.0
210
0.0
220
0.0
230
1.0
  2
SOLID
 70
1
 71
0
 91
1
 92
3
 72
0
 73
1
 93
16
 10
98.19999999999999
 20
509.75
 10
98.15432771950677
 20
509.97961005941903
 10
98.02426406871193
 20
510.1742640687119
 10
97.82961005941905
 20
510.3043277195068
 10
97.6
 20
510.35
 10
97.37038994058094
 20
510.3043277195068
 10
97.17573593128806
 20
510.1742640687119
 10
97.04567228049322
 20
509.97961005941903
 10
97.0
 20
509.75
 10
97.04567228049322
 20
509.52038994058097
 10
97.17573593128806
 20
509.3257359312881
 10
97.37038994058094
 20
509.1956722804932
 10
97.6
 20
509.15
 10
97.82961005941905
 20
509.1956722804932
 10
98.02426406871193
 20
509.3257359312881
 10
98.15432771950677
 20
509.52038994058097
 97
0
 75
0
 76
1
 98
0
  0
LWPOLYLINE
  5
117
330
17
100
AcDbEntity
  8
S-REBAR-STIRRUP
100
AcDbPolyline
 90
4
 70
1
 10
72.5
 20
358.8
 10
98.0
 20
358.8
 10
98.0
 20
363.2
 10
72.5
 20
363.2
  0
LWPOLYLINE
  5
118
330
17
100
AcDbEntity
  8
S-REBAR-STIRRUP
100
AcDbPolyline
 90
4
 70
1
 10
72.5
 20
368.8
 10
98.0
 20
368.8
 10
98.0
 20
373.2
 10
72.5
 20
373.2
  0
LWPOLYLINE
  5
119
330
17
100
AcDbEntity
  8
S-REBAR-STIRRUP
100
AcDbPolyline
 90
4
 70
1
 10
72.5
 20
378.8
 10
98.0
 20
378.8
 10
98.0
 20
383.2
 10
72.5
 20
383.2
  0
LWPOLYLINE
  5
11A
330
17
100
AcDbEntity
  8
S-REBAR-STIRRUP
100
AcDbPolyline
 90
4
 70
1
 10
72.5
 20
388.8
 10
98.0
 20
388.8
 10
98.0
 20
393.2
 10
72.5
 20
393.2
  0
LWPOLYLINE
  5
11B
330
17
100
AcDbEntity
  8
S-REBAR-STIRRUP
100
AcDbPolyline
 90
4
 70
1
 10
72.5
 20
398.8
 10
98.0
 20
398.8
 10
98.0
 20
403.2
 10
72.5
 20
403.2
  0
LWPOLYLINE
  5
11C
330
17
100
AcDbEntity
  8
S-REBAR-STIRRUP
100
AcDbPolyline
 90
4
 70
1
 10
72.5
 20
408.8
 10
98.0
 20
408.8
 10
98.0
 20
413.2
 10
72.5
 20
413.2
  0
LWPOLYLINE
  5
11D
330
17
100
AcDbEntity
  8
S-REBAR-STIRRUP
100
AcDbPolyline
 90
4
 70
1
 10
72.5
 20
418.8
 10
98.0
 20
418.8
 10
98.0
 20
423.2
 10
72.5
 20
423.2
  0
LWPOLYLINE
  5
11E
330
17
100
AcDbEntity
  8
S-REBAR-STIRRUP
100
AcDbPolyline
 90
4
 70
1
 10
72.5
 20
428.8
 10
98.0
 20
428.8
 10
98.0
 20
433.2
 10
72.5
 20
433.2
  0
LWPOLYLINE
  5
11F
330
17
100
AcDbEntity
  8
S-REBAR-STIRRUP
100
AcDbPolyline
 90
4
 70
1
 10
72.5
 20
438.8
 10
98.0
 20
438.8
 10
98.0
 20
443.2
 10
72.5
 20
443.2
  0
LWPOLYLINE
  5
120
330
17
100
AcDbEntity
  8
S-REBAR-STIRRUP
100
AcDbPolyline
 90
4
 70
1
 10
72.5
 20
448.8
 10
98.0
 20
448.8
 10
98.0
 20
453.2
 10
72.5
 20
453.2
  0
LWPOLYLINE
  5
121
330
17
100
AcDbEntity
  8
S-REBAR-STIRRUP
100
AcDbPolyline
 90
4
 70
1
 10
72.5
 20
458.8
 10
98.0
 20
458.8
 10
98.0
 20
463.2
 10
72.5
 20
463.2
  0
LWPOLYLINE
  5
122
330
17
100
AcDbEntity
  8
S-REBAR-STIRRUP
100
AcDbPolyline
 90
4
 70
1
 10
72.5
 20
468.8
 10
98.0
 20
468.8
 10
98.0
 20
473.2
 10
72.5
 20
473.2
  0
LWPOLYLINE
  5
123
330
17
100
AcDbEntity
  8
S-REBAR-STIRRUP
100
AcDbPolyline
 90
4
 70
1
 10
72.5
 20
478.8
 10
98.0
 20
478.8
 10
98.0
 20
483.2
 10
72.5
 20
483.2
  0
LWPOLYLINE
  5
124
330
17
100
AcDbEntity
  8
S-REBAR-STIRRUP
100
AcDbPolyline
 90
4
 70
1
 10
72.5
 20
488.8
 10
98.0
 20
488.8
 10
98.0
 20
493.2
 10
72.5
 20
493.2
  0
LWPOLYLINE
  5
125
330
17
100
AcDbEntity
  8
S-REBAR-STIRRUP
100
AcDbPolyline
 90
4
 70
1
 10
72.5
 20
498.8
 10
98.0
 20
498.8
 10
98.0
 20
503.2
 10
72.5
 20
503.2
  0
LWPOLYLINE
  5
126
330
17
100
AcDbEntity
  8
S-REBAR-STIRRUP
100
AcDbPolyline
 90
4
 70
1
 10
72.5
 20
508.8
 10
98.0
 20
508.8
 10
98.0
 20
513.2
 10
72.5
 20
513.2
  0
LWPOLYLINE
  5
127
330
17
100
AcDbEntity
  8
S-CONCRETE-THIN
100
AcDbPolyline
 90
4
 70
1
 10
60.0
 20
516.0
 10
110.0
 20
516.0
 10
110.0
 20
536.0
 10
60.0
 20
536.0
  0
LWPOLYLINE
  5
128
330
17
100
AcDbEntity
  8
S-CONCRETE-THIN
100
AcDbPolyline
 90
4
 70
1
 10
60.0
 20
336.0
 10
110.0
 20
336.0
 10
110.0
 20
356.0
 10
60.0
 20
356.0
  0
LWPOLYLINE
  5
129
330
17
100
AcDbEntity
  8
S-CONCRETE
100
AcDbPolyline
 90
3
 70
0
 10
100.0
 20
356.0
 10
125.0
 20
356.0
 10
100.0
 20
381.0
  0
LWPOLYLINE
  5
12A
330
17
100
AcDbEntity
  8
S-CONCRETE
100
AcDbPolyline
 90
3
 70
0
 10
100.0
 20
516.0
 10
125.0
 20
516.0
 10
100.0
 20
491.0
  0
LINE
  5
12B
330
17
100
AcDbEntity
  8
S-REBAR-SEC
100
AcDbLine
 10
100.0
 20
359.0
 30
0.0
 11
103.0
 21
359.0
 31
0.0
  0
LINE
  5
12C
330
17
100
AcDbEntity
  8
S-REBAR-SEC
100
AcDbLine
 10
100.0
 20
513.0
 30
0.0
 11
103.0
 21
513.0
 31
0.0
  0
LINE
  5
12D
330
17
100
AcDbEntity
  8
S-REBAR-SEC
100
AcDbLine
 10
107.5
 20
359.0
 30
0.0
 11
103.0
 21
366.5
 31
0.0
  0
LINE
  5
12E
330
17
100
AcDbEntity
  8
S-REBAR-SEC
100
AcDbLine
 10
107.5
 20
513.0
 30
0.0
 11
103.0
 21
505.5
 31
0.0
  0
LINE
  5
12F
330
17
100
AcDbEntity
  8
S-REBAR-SEC
100
AcDbLine
 10
115.0
 20
359.0
 30
0.0
 11
103.0
 21
374.0
 31
0.0
  0
LINE
  5
130
330
17
100
AcDbEntity
  8
S-REBAR-SEC
100
AcDbLine
 10
115.0
 20
513.0
 30
0.0
 11
103.0
 21
498.0
 31
0.0
  0
LINE
  5
131
330
17
100
AcDbEntity
  8
S-REBAR-SEC
100
AcDbLine
 10
122.5
 20
359.0
 30
0.0
 11
103.0
 21
381.5
 31
0.0
  0
LINE
  5
132
330
17
100
AcDbEntity
  8
S-REBAR-SEC
100
AcDbLine
 10
122.5
 20
513.0
 30
0.0
 11
103.0
 21
490.5
 31
0.0
  0
DIMENSION
  5
133
330
17
100
AcDbEntity
  8
S-DIM
100
AcDbDimension
280
0
  2
*D1
  3
SC-DIM
 10
70.0
 20
311.0
 30
0.0
 11
85.0
 21
312.7
 31
0.0
 70
32
 71
5
  1
<>
100
AcDbAlignedDimension
 13
70.0
 23
356.0
 33
0.0
 14
100.0
 24
356.0
 34
0.0
 50
0.0
100
AcDbRotatedDimension
1001
ACAD
1000
DSTYLE
1002
{
1070
144
1040
20.0
1002
}
  0
DIMENSION
  5
142
330
17
100
AcDbEntity
  8
S-DIM
100
AcDbDimension
280
0
  2
*D2
  3
SC-DIM
 10
35.0
 20
356.0
 30
0.0
 11
33.3
 21
436.0
 31
0.0
 70
32
 71
5
  1
<>
100
AcDbAlignedDimension
 13
70.0
 23
356.0
 33
0.0
 14
70.0
 24
516.0
 34
0.0
 50
90.0
100
AcDbRotatedDimension
1001
ACAD
1000
DSTYLE
1002
{
1070
144
1040
20.0
1002
}
  0
INSERT
  5
151
330
17
100
AcDbEntity
  8
S-LEVEL
100
AcDbBlockReference
  2
LEVELMK
 10
62.5
 20
516.0
 30
0.0
  0
TEXT
  5
153
330
17
100
AcDbEntity
  8
S-LEVEL
100
AcDbText
 10
65.5
 20
519.2
 30
0.0
 40
1.8
  1
(-)2.900
  7
OpenSans
 11
65.5
 21
519.2
 31
0.0
100
AcDbText
  0
INSERT
  5
154
330
17
100
AcDbEntity
  8
S-LEVEL
100
AcDbBlockReference
  2
LEVELMK
 10
62.5
 20
356.0
 30
0.0
  0
TEXT
  5
156
330
17
100
AcDbEntity
  8
S-LEVEL
100
AcDbText
 10
65.5
 20
359.2
 30
0.0
 40
1.8
  1
(-)6.100
  7
OpenSans
 11
65.5
 21
359.2
 31
0.0
100
AcDbText
  0
TEXT
  5
157
330
17
100
AcDbEntity
  8
S-TEXT
100
AcDbText
 10
64.0
 20
436.0
 30
0.0
 40
1.4
  1
EARTH FACE
 50
90.0
  7
OpenSans
 72
1
 11
64.0
 21
436.0
 31
0.0
100
AcDbText
 73
2
  0
TEXT
  5
158
330
17
100
AcDbEntity
  8
S-TEXT
100
AcDbText
 10
106.0
 20
436.0
 30
0.0
 40
1.4
  1
INTERNAL FACE
 50
90.0
  7
OpenSans
 72
1
 11
106.0
 21
436.0
 31
0.0
100
AcDbText
 73
2
  0
INSERT
  5
159
330
17
100
AcDbEntity
  8
S-CALLOUT
100
AcDbBlockReference
  2
BARMARK
 10
40.0
 20
470.0
 30
0.0
  0
TEXT
  5
15B
330
17
100
AcDbEntity
  8
S-CALLOUT
100
AcDbText
 10
40.0
 20
470.0
 30
0.0
 40
2.0
  1
W01
  7
OpenSans
 72
1
 11
40.0
 21
470.0
 31
0.0
100
AcDbText
 73
2
  0
LEADER
  5
15C
330
17
100
AcDbEntity
  8
S-CALLOUT
100
AcDbLeader
  3
SC-DIM
 73
3
 76
2
 10
72.9
 20
476.0
 30
0.0
 10
40.0
 20
470.0
 30
0.0
  0
INSERT
  5
15D
330
17
100
AcDbEntity
  8
S-CALLOUT
100
AcDbBlockReference
  2
BARMARK
 10
120.0
 20
500.0
 30
0.0
  0
TEXT
  5
15F
330
17
100
AcDbEntity
  8
S-CALLOUT
100
AcDbText
 10
120.0
 20
500.0
 30
0.0
 40
2.0
  1
W02
  7
OpenSans
 72
1
 11
120.0
 21
500.0
 31
0.0
100
AcDbText
 73
2
  0
LEADER
  5
160
330
17
100
AcDbEntity
  8
S-CALLOUT
100
AcDbLeader
  3
SC-DIM
 73
3
 76
2
 10
97.1
 20
486.0
 30
0.0
 10
120.0
 20
500.0
 30
0.0
  0
INSERT
  5
161
330
17
100
AcDbEntity
  8
S-CALLOUT
100
AcDbBlockReference
  2
BARMARK
 10
40.0
 20
410.0
 30
0.0
  0
TEXT
  5
163
330
17
100
AcDbEntity
  8
S-CALLOUT
100
AcDbText
 10
40.0
 20
410.0
 30
0.0
 40
2.0
  1
W05
  7
OpenSans
 72
1
 11
40.0
 21
410.0
 31
0.0
100
AcDbText
 73
2
  0
LEADER
  5
164
330
17
100
AcDbEntity
  8
S-CALLOUT
100
AcDbLeader
  3
SC-DIM
 73
3
 76
2
 10
85.0
 20
406.0
 30
0.0
 10
40.0
 20
410.0
 30
0.0
  0
INSERT
  5
165
330
17
100
AcDbEntity
  8
S-CALLOUT
100
AcDbBlockReference
  2
BARMARK
 10
128.0
 20
460.0
 30
0.0
  0
TEXT
  5
167
330
17
100
AcDbEntity
  8
S-CALLOUT
100
AcDbText
 10
128.0
 20
460.0
 30
0.0
 40
2.0
  1
W06
  7
OpenSans
 72
1
 11
128.0
 21
460.0
 31
0.0
100
AcDbText
 73
2
  0
LEADER
  5
168
330
17
100
AcDbEntity
  8
S-CALLOUT
100
AcDbLeader
  3
SC-DIM
 73
3
 76
2
 10
111.0
 20
501.0
 30
0.0
 10
128.0
 20
460.0
 30
0.0
  0
TEXT
  5
169
330
17
100
AcDbEntity
  8
S-TITLE
100
AcDbText
 10
70.0
 20
552.0
 30
0.0
 40
3.5
  1
V1   TYPICAL PERIMETER WALL SECTION W1 - W4
  7
OpenSans
 11
70.0
 21
552.0
 31
0.0
100
AcDbText
  0
LINE
  5
16A
330
17
100
AcDbEntity
  8
S-TITLE
100
AcDbLine
 10
70.0
 20
550.2
 30
0.0
 11
169.32999999999998
 21
550.2
 31
0.0
  0
TEXT
  5
16B
330
17
100
AcDbEntity
  8
S-TEXT
100
AcDbText
 10
70.0
 20
544.8
 30
0.0
 40
2.0
  1
SCALE 1:20
  7
OpenSans
 11
70.0
 21
544.8
 31
0.0
100
AcDbText
  0
TEXT
  5
16C
330
17
100
AcDbEntity
  8
S-TEXT
100
AcDbText
 10
30.0
 20
316.0
 30
0.0
 40
1.4
  1
COVER  50 EARTH FACE  ·  40 INTERNAL FACE  ·  75 AT THE MAT
  7
OpenSans
 11
30.0
 21
316.0
 31
0.0
100
AcDbText
  0
TEXT
  5
16D
330
17
100
AcDbEntity
  8
S-BLAST
100
AcDbText
 10
30.0
 20
311.0
 30
0.0
 40
1.4
  1
BOTH CURTAINS AT 150 BOTH WAYS - EMP MAXIMUM, NOT A STRENGTH SPACING
  7
OpenSans
 11
30.0
 21
311.0
 31
0.0
100
AcDbText
  0
LWPOLYLINE
  5
16E
330
17
100
AcDbEntity
  8
S-CONCRETE
100
AcDbPolyline
 90
4
 70
1
 10
190.0
 20
380.0
 10
220.0
 20
380.0
 10
220.0
 20
530.0
 10
190.0
 20
530.0
  0
HATCH
  5
16F
330
17
100
AcDbEntity
  8
S-HATCH
 62
7
100
AcDbHatch
 10
0.0
 20
0.0
 30
0.0
210
0.0
220
0.0
230
1.0
  2
ANSI31
 70
0
 71
0
 91
1
 92
3
 72
0
 73
1
 93
4
 10
190.0
 20
380.0
 10
220.0
 20
380.0
 10
220.0
 20
530.0
 10
190.0
 20
530.0
 97
0
 75
1
 76
1
 52
0.0
 41
1.6
 77
0
 78
1
 53
45.0
 43
0.0
 44
0.0
 45
-3.5921024485
 46
3.5921024485
 79
0
 98
0
  0
CIRCLE
  5
170
330
17
100
AcDbEntity
  8
S-REBAR-MAIN
100
AcDbCircle
 10
192.9
 20
383.75
 30
0.0
 40
0.6
  0
HATCH
  5
171
330
17
100
AcDbEntity
  8
S-REBAR-MAIN
 62
1
100
AcDbHatch
 10
0.0
 20
0.0
 30
0.0
210
0.0
220
0.0
230
1.0
  2
SOLID
 70
1
 71
0
 91
1
 92
3
 72
0
 73
1
 93
16
 10
193.5
 20
383.75
 10
193.45432771950678
 20
383.97961005941903
 10
193.32426406871193
 20
384.1742640687119
 10
193.12961005941906
 20
384.3043277195068
 10
192.9
 20
384.35
 10
192.67038994058095
 20
384.3043277195068
 10
192.47573593128809
 20
384.1742640687119
 10
192.34567228049323
 20
383.97961005941903
 10
192.3
 20
383.75
 10
192.34567228049323
 20
383.52038994058097
 10
192.47573593128809
 20
383.3257359312881
 10
192.67038994058095
 20
383.1956722804932
 10
192.9
 20
383.15
 10
193.12961005941906
 20
383.1956722804932
 10
193.32426406871193
 20
383.3257359312881
 10
193.45432771950678
 20
383.52038994058097
 97
0
 75
0
 76
1
 98
0
  0
CIRCLE
  5
172
330
17
100
AcDbEntity
  8
S-REBAR-MAIN
100
AcDbCircle
 10
192.9
 20
391.25
 30
0.0
 40
0.6
  0
HATCH
  5
173
330
17
100
AcDbEntity
  8
S-REBAR-MAIN
 62
1
100
AcDbHatch
 10
0.0
 20
0.0
 30
0.0
210
0.0
220
0.0
230
1.0
  2
SOLID
 70
1
 71
0
 91
1
 92
3
 72
0
 73
1
 93
16
 10
193.5
 20
391.25
 10
193.45432771950678
 20
391.47961005941903
 10
193.32426406871193
 20
391.6742640687119
 10
193.12961005941906
 20
391.8043277195068
 10
192.9
 20
391.85
 10
192.67038994058095
 20
391.8043277195068
 10
192.47573593128809
 20
391.6742640687119
 10
192.34567228049323
 20
391.47961005941903
 10
192.3
 20
391.25
 10
192.34567228049323
 20
391.02038994058097
 10
192.47573593128809
 20
390.8257359312881
 10
192.67038994058095
 20
390.6956722804932
 10
192.9
 20
390.65
 10
193.12961005941906
 20
390.6956722804932
 10
193.32426406871193
 20
390.8257359312881
 10
193.45432771950678
 20
391.02038994058097
 97
0
 75
0
 76
1
 98
0
  0
CIRCLE
  5
174
330
17
100
AcDbEntity
  8
S-REBAR-MAIN
100
AcDbCircle
 10
192.9
 20
398.75
 30
0.0
 40
0.6
  0
HATCH
  5
175
330
17
100
AcDbEntity
  8
S-REBAR-MAIN
 62
1
100
AcDbHatch
 10
0.0
 20
0.0
 30
0.0
210
0.0
220
0.0
230
1.0
  2
SOLID
 70
1
 71
0
 91
1
 92
3
 72
0
 73
1
 93
16
 10
193.5
 20
398.75
 10
193.45432771950678
 20
398.97961005941903
 10
193.32426406871193
 20
399.1742640687119
 10
193.12961005941906
 20
399.3043277195068
 10
192.9
 20
399.35
 10
192.67038994058095
 20
399.3043277195068
 10
192.47573593128809
 20
399.1742640687119
 10
192.34567228049323
 20
398.97961005941903
 10
192.3
 20
398.75
 10
192.34567228049323
 20
398.52038994058097
 10
192.47573593128809
 20
398.3257359312881
 10
192.67038994058095
 20
398.1956722804932
 10
192.9
 20
398.15
 10
193.12961005941906
 20
398.1956722804932
 10
193.32426406871193
 20
398.3257359312881
 10
193.45432771950678
 20
398.52038994058097
 97
0
 75
0
 76
1
 98
0
  0
CIRCLE
  5
176
330
17
100
AcDbEntity
  8
S-REBAR-MAIN
100
AcDbCircle
 10
192.9
 20
406.25
 30
0.0
 40
0.6
  0
HATCH
  5
177
330
17
100
AcDbEntity
  8
S-REBAR-MAIN
 62
1
100
AcDbHatch
 10
0.0
 20
0.0
 30
0.0
210
0.0
220
0.0
230
1.0
  2
SOLID
 70
1
 71
0
 91
1
 92
3
 72
0
 73
1
 93
16
 10
193.5
 20
406.25
 10
193.45432771950678
 20
406.47961005941903
 10
193.32426406871193
 20
406.6742640687119
 10
193.12961005941906
 20
406.8043277195068
 10
192.9
 20
406.85
 10
192.67038994058095
 20
406.8043277195068
 10
192.47573593128809
 20
406.6742640687119
 10
192.34567228049323
 20
406.47961005941903
 10
192.3
 20
406.25
 10
192.34567228049323
 20
406.02038994058097
 10
192.47573593128809
 20
405.8257359312881
 10
192.67038994058095
 20
405.6956722804932
 10
192.9
 20
405.65
 10
193.12961005941906
 20
405.6956722804932
 10
193.32426406871193
 20
405.8257359312881
 10
193.45432771950678
 20
406.02038994058097
 97
0
 75
0
 76
1
 98
0
  0
CIRCLE
  5
178
330
17
100
AcDbEntity
  8
S-REBAR-MAIN
100
AcDbCircle
 10
192.9
 20
413.75
 30
0.0
 40
0.6
  0
HATCH
  5
179
330
17
100
AcDbEntity
  8
S-REBAR-MAIN
 62
1
100
AcDbHatch
 10
0.0
 20
0.0
 30
0.0
210
0.0
220
0.0
230
1.0
  2
SOLID
 70
1
 71
0
 91
1
 92
3
 72
0
 73
1
 93
16
 10
193.5
 20
413.75
 10
193.45432771950678
 20
413.97961005941903
 10
193.32426406871193
 20
414.1742640687119
 10
193.12961005941906
 20
414.3043277195068
 10
192.9
 20
414.35
 10
192.67038994058095
 20
414.3043277195068
 10
192.47573593128809
 20
414.1742640687119
 10
192.34567228049323
 20
413.97961005941903
 10
192.3
 20
413.75
 10
192.34567228049323
 20
413.52038994058097
 10
192.47573593128809
 20
413.3257359312881
 10
192.67038994058095
 20
413.1956722804932
 10
192.9
 20
413.15
 10
193.12961005941906
 20
413.1956722804932
 10
193.32426406871193
 20
413.3257359312881
 10
193.45432771950678
 20
413.52038994058097
 97
0
 75
0
 76
1
 98
0
  0
CIRCLE
  5
17A
330
17
100
AcDbEntity
  8
S-REBAR-MAIN
100
AcDbCircle
 10
192.9
 20
421.25
 30
0.0
 40
0.6
  0
HATCH
  5
17B
330
17
100
AcDbEntity
  8
S-REBAR-MAIN
 62
1
100
AcDbHatch
 10
0.0
 20
0.0
 30
0.0
210
0.0
220
0.0
230
1.0
  2
SOLID
 70
1
 71
0
 91
1
 92
3
 72
0
 73
1
 93
16
 10
193.5
 20
421.25
 10
193.45432771950678
 20
421.47961005941903
 10
193.32426406871193
 20
421.6742640687119
 10
193.12961005941906
 20
421.8043277195068
 10
192.9
 20
421.85
 10
192.67038994058095
 20
421.8043277195068
 10
192.47573593128809
 20
421.6742640687119
 10
192.34567228049323
 20
421.47961005941903
 10
192.3
 20
421.25
 10
192.34567228049323
 20
421.02038994058097
 10
192.47573593128809
 20
420.8257359312881
 10
192.67038994058095
 20
420.6956722804932
 10
192.9
 20
420.65
 10
193.12961005941906
 20
420.6956722804932
 10
193.32426406871193
 20
420.8257359312881
 10
193.45432771950678
 20
421.02038994058097
 97
0
 75
0
 76
1
 98
0
  0
CIRCLE
  5
17C
330
17
100
AcDbEntity
  8
S-REBAR-MAIN
100
AcDbCircle
 10
192.9
 20
428.75
 30
0.0
 40
0.6
  0
HATCH
  5
17D
330
17
100
AcDbEntity
  8
S-REBAR-MAIN
 62
1
100
AcDbHatch
 10
0.0
 20
0.0
 30
0.0
210
0.0
220
0.0
230
1.0
  2
SOLID
 70
1
 71
0
 91
1
 92
3
 72
0
 73
1
 93
16
 10
193.5
 20
428.75
 10
193.45432771950678
 20
428.97961005941903
 10
193.32426406871193
 20
429.1742640687119
 10
193.12961005941906
 20
429.3043277195068
 10
192.9
 20
429.35
 10
192.67038994058095
 20
429.3043277195068
 10
192.47573593128809
 20
429.1742640687119
 10
192.34567228049323
 20
428.97961005941903
 10
192.3
 20
428.75
 10
192.34567228049323
 20
428.52038994058097
 10
192.47573593128809
 20
428.3257359312881
 10
192.67038994058095
 20
428.1956722804932
 10
192.9
 20
428.15
 10
193.12961005941906
 20
428.1956722804932
 10
193.32426406871193
 20
428.3257359312881
 10
193.45432771950678
 20
428.52038994058097
 97
0
 75
0
 76
1
 98
0
  0
CIRCLE
  5
17E
330
17
100
AcDbEntity
  8
S-REBAR-MAIN
100
AcDbCircle
 10
192.9
 20
436.25
 30
0.0
 40
0.6
  0
HATCH
  5
17F
330
17
100
AcDbEntity
  8
S-REBAR-MAIN
 62
1
100
AcDbHatch
 10
0.0
 20
0.0
 30
0.0
210
0.0
220
0.0
230
1.0
  2
SOLID
 70
1
 71
0
 91
1
 92
3
 72
0
 73
1
 93
16
 10
193.5
 20
436.25
 10
193.45432771950678
 20
436.47961005941903
 10
193.32426406871193
 20
436.6742640687119
 10
193.12961005941906
 20
436.8043277195068
 10
192.9
 20
436.85
 10
192.67038994058095
 20
436.8043277195068
 10
192.47573593128809
 20
436.6742640687119
 10
192.34567228049323
 20
436.47961005941903
 10
192.3
 20
436.25
 10
192.34567228049323
 20
436.02038994058097
 10
192.47573593128809
 20
435.8257359312881
 10
192.67038994058095
 20
435.6956722804932
 10
192.9
 20
435.65
 10
193.12961005941906
 20
435.6956722804932
 10
193.32426406871193
 20
435.8257359312881
 10
193.45432771950678
 20
436.02038994058097
 97
0
 75
0
 76
1
 98
0
  0
CIRCLE
  5
180
330
17
100
AcDbEntity
  8
S-REBAR-MAIN
100
AcDbCircle
 10
192.9
 20
443.75
 30
0.0
 40
0.6
  0
HATCH
  5
181
330
17
100
AcDbEntity
  8
S-REBAR-MAIN
 62
1
100
AcDbHatch
 10
0.0
 20
0.0
 30
0.0
210
0.0
220
0.0
230
1.0
  2
SOLID
 70
1
 71
0
 91
1
 92
3
 72
0
 73
1
 93
16
 10
193.5
 20
443.75
 10
193.45432771950678
 20
443.97961005941903
 10
193.32426406871193
 20
444.1742640687119
 10
193.12961005941906
 20
444.3043277195068
 10
192.9
 20
444.35
 10
192.67038994058095
 20
444.3043277195068
 10
192.47573593128809
 20
444.1742640687119
 10
192.34567228049323
 20
443.97961005941903
 10
192.3
 20
443.75
 10
192.34567228049323
 20
443.52038994058097
 10
192.47573593128809
 20
443.3257359312881
 10
192.67038994058095
 20
443.1956722804932
 10
192.9
 20
443.15
 10
193.12961005941906
 20
443.1956722804932
 10
193.32426406871193
 20
443.3257359312881
 10
193.45432771950678
 20
443.52038994058097
 97
0
 75
0
 76
1
 98
0
  0
CIRCLE
  5
182
330
17
100
AcDbEntity
  8
S-REBAR-MAIN
100
AcDbCircle
 10
192.9
 20
451.25
 30
0.0
 40
0.6
  0
HATCH
  5
183
330
17
100
AcDbEntity
  8
S-REBAR-MAIN
 62
1
100
AcDbHatch
 10
0.0
 20
0.0
 30
0.0
210
0.0
220
0.0
230
1.0
  2
SOLID
 70
1
 71
0
 91
1
 92
3
 72
0
 73
1
 93
16
 10
193.5
 20
451.25
 10
193.45432771950678
 20
451.47961005941903
 10
193.32426406871193
 20
451.6742640687119
 10
193.12961005941906
 20
451.8043277195068
 10
192.9
 20
451.85
 10
192.67038994058095
 20
451.8043277195068
 10
192.47573593128809
 20
451.6742640687119
 10
192.34567228049323
 20
451.47961005941903
 10
192.3
 20
451.25
 10
192.34567228049323
 20
451.02038994058097
 10
192.47573593128809
 20
450.8257359312881
 10
192.67038994058095
 20
450.6956722804932
 10
192.9
 20
450.65
 10
193.12961005941906
 20
450.6956722804932
 10
193.32426406871193
 20
450.8257359312881
 10
193.45432771950678
 20
451.02038994058097
 97
0
 75
0
 76
1
 98
0
  0
CIRCLE
  5
184
330
17
100
AcDbEntity
  8
S-REBAR-MAIN
100
AcDbCircle
 10
192.9
 20
458.75
 30
0.0
 40
0.6
  0
HATCH
  5
185
330
17
100
AcDbEntity
  8
S-REBAR-MAIN
 62
1
100
AcDbHatch
 10
0.0
 20
0.0
 30
0.0
210
0.0
220
0.0
230
1.0
  2
SOLID
 70
1
 71
0
 91
1
 92
3
 72
0
 73
1
 93
16
 10
193.5
 20
458.75
 10
193.45432771950678
 20
458.97961005941903
 10
193.32426406871193
 20
459.1742640687119
 10
193.12961005941906
 20
459.3043277195068
 10
192.9
 20
459.35
 10
192.67038994058095
 20
459.3043277195068
 10
192.47573593128809
 20
459.1742640687119
 10
192.34567228049323
 20
458.97961005941903
 10
192.3
 20
458.75
 10
192.34567228049323
 20
458.52038994058097
 10
192.47573593128809
 20
458.3257359312881
 10
192.67038994058095
 20
458.1956722804932
 10
192.9
 20
458.15
 10
193.12961005941906
 20
458.1956722804932
 10
193.32426406871193
 20
458.3257359312881
 10
193.45432771950678
 20
458.52038994058097
 97
0
 75
0
 76
1
 98
0
  0
CIRCLE
  5
186
330
17
100
AcDbEntity
  8
S-REBAR-MAIN
100
AcDbCircle
 10
192.9
 20
466.25
 30
0.0
 40
0.6
  0
HATCH
  5
187
330
17
100
AcDbEntity
  8
S-REBAR-MAIN
 62
1
100
AcDbHatch
 10
0.0
 20
0.0
 30
0.0
210
0.0
220
0.0
230
1.0
  2
SOLID
 70
1
 71
0
 91
1
 92
3
 72
0
 73
1
 93
16
 10
193.5
 20
466.25
 10
193.45432771950678
 20
466.47961005941903
 10
193.32426406871193
 20
466.6742640687119
 10
193.12961005941906
 20
466.8043277195068
 10
192.9
 20
466.85
 10
192.67038994058095
 20
466.8043277195068
 10
192.47573593128809
 20
466.6742640687119
 10
192.34567228049323
 20
466.47961005941903
 10
192.3
 20
466.25
 10
192.34567228049323
 20
466.02038994058097
 10
192.47573593128809
 20
465.8257359312881
 10
192.67038994058095
 20
465.6956722804932
 10
192.9
 20
465.65
 10
193.12961005941906
 20
465.6956722804932
 10
193.32426406871193
 20
465.8257359312881
 10
193.45432771950678
 20
466.02038994058097
 97
0
 75
0
 76
1
 98
0
  0
CIRCLE
  5
188
330
17
100
AcDbEntity
  8
S-REBAR-MAIN
100
AcDbCircle
 10
192.9
 20
473.75
 30
0.0
 40
0.6
  0
HATCH
  5
189
330
17
100
AcDbEntity
  8
S-REBAR-MAIN
 62
1
100
AcDbHatch
 10
0.0
 20
0.0
 30
0.0
210
0.0
220
0.0
230
1.0
  2
SOLID
 70
1
 71
0
 91
1
 92
3
 72
0
 73
1
 93
16
 10
193.5
 20
473.75
 10
193.45432771950678
 20
473.97961005941903
 10
193.32426406871193
 20
474.1742640687119
 10
193.12961005941906
 20
474.3043277195068
 10
192.9
 20
474.35
 10
192.67038994058095
 20
474.3043277195068
 10
192.47573593128809
 20
474.1742640687119
 10
192.34567228049323
 20
473.97961005941903
 10
192.3
 20
473.75
 10
192.34567228049323
 20
473.52038994058097
 10
192.47573593128809
 20
473.3257359312881
 10
192.67038994058095
 20
473.1956722804932
 10
192.9
 20
473.15
 10
193.12961005941906
 20
473.1956722804932
 10
193.32426406871193
 20
473.3257359312881
 10
193.45432771950678
 20
473.52038994058097
 97
0
 75
0
 76
1
 98
0
  0
CIRCLE
  5
18A
330
17
100
AcDbEntity
  8
S-REBAR-MAIN
100
AcDbCircle
 10
192.9
 20
481.25
 30
0.0
 40
0.6
  0
HATCH
  5
18B
330
17
100
AcDbEntity
  8
S-REBAR-MAIN
 62
1
100
AcDbHatch
 10
0.0
 20
0.0
 30
0.0
210
0.0
220
0.0
230
1.0
  2
SOLID
 70
1
 71
0
 91
1
 92
3
 72
0
 73
1
 93
16
 10
193.5
 20
481.25
 10
193.45432771950678
 20
481.47961005941903
 10
193.32426406871193
 20
481.6742640687119
 10
193.12961005941906
 20
481.8043277195068
 10
192.9
 20
481.85
 10
192.67038994058095
 20
481.8043277195068
 10
192.47573593128809
 20
481.6742640687119
 10
192.34567228049323
 20
481.47961005941903
 10
192.3
 20
481.25
 10
192.34567228049323
 20
481.02038994058097
 10
192.47573593128809
 20
480.8257359312881
 10
192.67038994058095
 20
480.6956722804932
 10
192.9
 20
480.65
 10
193.12961005941906
 20
480.6956722804932
 10
193.32426406871193
 20
480.8257359312881
 10
193.45432771950678
 20
481.02038994058097
 97
0
 75
0
 76
1
 98
0
  0
CIRCLE
  5
18C
330
17
100
AcDbEntity
  8
S-REBAR-MAIN
100
AcDbCircle
 10
192.9
 20
488.75
 30
0.0
 40
0.6
  0
HATCH
  5
18D
330
17
100
AcDbEntity
  8
S-REBAR-MAIN
 62
1
100
AcDbHatch
 10
0.0
 20
0.0
 30
0.0
210
0.0
220
0.0
230
1.0
  2
SOLID
 70
1
 71
0
 91
1
 92
3
 72
0
 73
1
 93
16
 10
193.5
 20
488.75
 10
193.45432771950678
 20
488.97961005941903
 10
193.32426406871193
 20
489.1742640687119
 10
193.12961005941906
 20
489.3043277195068
 10
192.9
 20
489.35
 10
192.67038994058095
 20
489.3043277195068
 10
192.47573593128809
 20
489.1742640687119
 10
192.34567228049323
 20
488.97961005941903
 10
192.3
 20
488.75
 10
192.34567228049323
 20
488.52038994058097
 10
192.47573593128809
 20
488.3257359312881
 10
192.67038994058095
 20
488.1956722804932
 10
192.9
 20
488.15
 10
193.12961005941906
 20
488.1956722804932
 10
193.32426406871193
 20
488.3257359312881
 10
193.45432771950678
 20
488.52038994058097
 97
0
 75
0
 76
1
 98
0
  0
CIRCLE
  5
18E
330
17
100
AcDbEntity
  8
S-REBAR-MAIN
100
AcDbCircle
 10
192.9
 20
496.25
 30
0.0
 40
0.6
  0
HATCH
  5
18F
330
17
100
AcDbEntity
  8
S-REBAR-MAIN
 62
1
100
AcDbHatch
 10
0.0
 20
0.0
 30
0.0
210
0.0
220
0.0
230
1.0
  2
SOLID
 70
1
 71
0
 91
1
 92
3
 72
0
 73
1
 93
16
 10
193.5
 20
496.25
 10
193.45432771950678
 20
496.47961005941903
 10
193.32426406871193
 20
496.6742640687119
 10
193.12961005941906
 20
496.8043277195068
 10
192.9
 20
496.85
 10
192.67038994058095
 20
496.8043277195068
 10
192.47573593128809
 20
496.6742640687119
 10
192.34567228049323
 20
496.47961005941903
 10
192.3
 20
496.25
 10
192.34567228049323
 20
496.02038994058097
 10
192.47573593128809
 20
495.8257359312881
 10
192.67038994058095
 20
495.6956722804932
 10
192.9
 20
495.65
 10
193.12961005941906
 20
495.6956722804932
 10
193.32426406871193
 20
495.8257359312881
 10
193.45432771950678
 20
496.02038994058097
 97
0
 75
0
 76
1
 98
0
  0
CIRCLE
  5
190
330
17
100
AcDbEntity
  8
S-REBAR-MAIN
100
AcDbCircle
 10
192.9
 20
503.75
 30
0.0
 40
0.6
  0
HATCH
  5
191
330
17
100
AcDbEntity
  8
S-REBAR-MAIN
 62
1
100
AcDbHatch
 10
0.0
 20
0.0
 30
0.0
210
0.0
220
0.0
230
1.0
  2
SOLID
 70
1
 71
0
 91
1
 92
3
 72
0
 73
1
 93
16
 10
193.5
 20
503.75
 10
193.45432771950678
 20
503.97961005941903
 10
193.32426406871193
 20
504.1742640687119
 10
193.12961005941906
 20
504.3043277195068
 10
192.9
 20
504.35
 10
192.67038994058095
 20
504.3043277195068
 10
192.47573593128809
 20
504.1742640687119
 10
192.34567228049323
 20
503.97961005941903
 10
192.3
 20
503.75
 10
192.34567228049323
 20
503.52038994058097
 10
192.47573593128809
 20
503.3257359312881
 10
192.67038994058095
 20
503.1956722804932
 10
192.9
 20
503.15
 10
193.12961005941906
 20
503.1956722804932
 10
193.32426406871193
 20
503.3257359312881
 10
193.45432771950678
 20
503.52038994058097
 97
0
 75
0
 76
1
 98
0
  0
CIRCLE
  5
192
330
17
100
AcDbEntity
  8
S-REBAR-MAIN
100
AcDbCircle
 10
192.9
 20
511.25
 30
0.0
 40
0.6
  0
HATCH
  5
193
330
17
100
AcDbEntity
  8
S-REBAR-MAIN
 62
1
100
AcDbHatch
 10
0.0
 20
0.0
 30
0.0
210
0.0
220
0.0
230
1.0
  2
SOLID
 70
1
 71
0
 91
1
 92
3
 72
0
 73
1
 93
16
 10
193.5
 20
511.25
 10
193.45432771950678
 20
511.47961005941903
 10
193.32426406871193
 20
511.6742640687119
 10
193.12961005941906
 20
511.8043277195068
 10
192.9
 20
511.85
 10
192.67038994058095
 20
511.8043277195068
 10
192.47573593128809
 20
511.6742640687119
 10
192.34567228049323
 20
511.47961005941903
 10
192.3
 20
511.25
 10
192.34567228049323
 20
511.02038994058097
 10
192.47573593128809
 20
510.8257359312881
 10
192.67038994058095
 20
510.6956722804932
 10
192.9
 20
510.65
 10
193.12961005941906
 20
510.6956722804932
 10
193.32426406871193
 20
510.8257359312881
 10
193.45432771950678
 20
511.02038994058097
 97
0
 75
0
 76
1
 98
0
  0
CIRCLE
  5
194
330
17
100
AcDbEntity
  8
S-REBAR-MAIN
100
AcDbCircle
 10
192.9
 20
518.75
 30
0.0
 40
0.6
  0
HATCH
  5
195
330
17
100
AcDbEntity
  8
S-REBAR-MAIN
 62
1
100
AcDbHatch
 10
0.0
 20
0.0
 30
0.0
210
0.0
220
0.0
230
1.0
  2
SOLID
 70
1
 71
0
 91
1
 92
3
 72
0
 73
1
 93
16
 10
193.5
 20
518.75
 10
193.45432771950678
 20
518.9796100594191
 10
193.32426406871193
 20
519.174264068712
 10
193.12961005941906
 20
519.3043277195068
 10
192.9
 20
519.35
 10
192.67038994058095
 20
519.3043277195068
 10
192.47573593128809
 20
519.174264068712
 10
192.34567228049323
 20
518.9796100594191
 10
192.3
 20
518.75
 10
192.34567228049323
 20
518.5203899405809
 10
192.47573593128809
 20
518.325735931288
 10
192.67038994058095
 20
518.1956722804932
 10
192.9
 20
518.15
 10
193.12961005941906
 20
518.1956722804932
 10
193.32426406871193
 20
518.325735931288
 10
193.45432771950678
 20
518.5203899405809
 97
0
 75
0
 76
1
 98
0
  0
CIRCLE
  5
196
330
17
100
AcDbEntity
  8
S-REBAR-MAIN
100
AcDbCircle
 10
192.9
 20
526.25
 30
0.0
 40
0.6
  0
HATCH
  5
197
330
17
100
AcDbEntity
  8
S-REBAR-MAIN
 62
1
100
AcDbHatch
 10
0.0
 20
0.0
 30
0.0
210
0.0
220
0.0
230
1.0
  2
SOLID
 70
1
 71
0
 91
1
 92
3
 72
0
 73
1
 93
16
 10
193.5
 20
526.25
 10
193.45432771950678
 20
526.4796100594191
 10
193.32426406871193
 20
526.674264068712
 10
193.12961005941906
 20
526.8043277195068
 10
192.9
 20
526.85
 10
192.67038994058095
 20
526.8043277195068
 10
192.47573593128809
 20
526.674264068712
 10
192.34567228049323
 20
526.4796100594191
 10
192.3
 20
526.25
 10
192.34567228049323
 20
526.0203899405809
 10
192.47573593128809
 20
525.825735931288
 10
192.67038994058095
 20
525.6956722804932
 10
192.9
 20
525.65
 10
193.12961005941906
 20
525.6956722804932
 10
193.32426406871193
 20
525.825735931288
 10
193.45432771950678
 20
526.0203899405809
 97
0
 75
0
 76
1
 98
0
  0
CIRCLE
  5
198
330
17
100
AcDbEntity
  8
S-REBAR-MAIN
100
AcDbCircle
 10
217.1
 20
383.75
 30
0.0
 40
0.6
  0
HATCH
  5
199
330
17
100
AcDbEntity
  8
S-REBAR-MAIN
 62
1
100
AcDbHatch
 10
0.0
 20
0.0
 30
0.0
210
0.0
220
0.0
230
1.0
  2
SOLID
 70
1
 71
0
 91
1
 92
3
 72
0
 73
1
 93
16
 10
217.7
 20
383.75
 10
217.65432771950677
 20
383.97961005941903
 10
217.52426406871191
 20
384.1742640687119
 10
217.32961005941905
 20
384.3043277195068
 10
217.1
 20
384.35
 10
216.87038994058094
 20
384.3043277195068
 10
216.67573593128807
 20
384.1742640687119
 10
216.54567228049322
 20
383.97961005941903
 10
216.5
 20
383.75
 10
216.54567228049322
 20
383.52038994058097
 10
216.67573593128807
 20
383.3257359312881
 10
216.87038994058094
 20
383.1956722804932
 10
217.1
 20
383.15
 10
217.32961005941905
 20
383.1956722804932
 10
217.52426406871191
 20
383.3257359312881
 10
217.65432771950677
 20
383.52038994058097
 97
0
 75
0
 76
1
 98
0
  0
CIRCLE
  5
19A
330
17
100
AcDbEntity
  8
S-REBAR-MAIN
100
AcDbCircle
 10
217.1
 20
391.25
 30
0.0
 40
0.6
  0
HATCH
  5
19B
330
17
100
AcDbEntity
  8
S-REBAR-MAIN
 62
1
100
AcDbHatch
 10
0.0
 20
0.0
 30
0.0
210
0.0
220
0.0
230
1.0
  2
SOLID
 70
1
 71
0
 91
1
 92
3
 72
0
 73
1
 93
16
 10
217.7
 20
391.25
 10
217.65432771950677
 20
391.47961005941903
 10
217.52426406871191
 20
391.6742640687119
 10
217.32961005941905
 20
391.8043277195068
 10
217.1
 20
391.85
 10
216.87038994058094
 20
391.8043277195068
 10
216.67573593128807
 20
391.6742640687119
 10
216.54567228049322
 20
391.47961005941903
 10
216.5
 20
391.25
 10
216.54567228049322
 20
391.02038994058097
 10
216.67573593128807
 20
390.8257359312881
 10
216.87038994058094
 20
390.6956722804932
 10
217.1
 20
390.65
 10
217.32961005941905
 20
390.6956722804932
 10
217.52426406871191
 20
390.8257359312881
 10
217.65432771950677
 20
391.02038994058097
 97
0
 75
0
 76
1
 98
0
  0
CIRCLE
  5
19C
330
17
100
AcDbEntity
  8
S-REBAR-MAIN
100
AcDbCircle
 10
217.1
 20
398.75
 30
0.0
 40
0.6
  0
HATCH
  5
19D
330
17
100
AcDbEntity
  8
S-REBAR-MAIN
 62
1
100
AcDbHatch
 10
0.0
 20
0.0
 30
0.0
210
0.0
220
0.0
230
1.0
  2
SOLID
 70
1
 71
0
 91
1
 92
3
 72
0
 73
1
 93
16
 10
217.7
 20
398.75
 10
217.65432771950677
 20
398.97961005941903
 10
217.52426406871191
 20
399.1742640687119
 10
217.32961005941905
 20
399.3043277195068
 10
217.1
 20
399.35
 10
216.87038994058094
 20
399.3043277195068
 10
216.67573593128807
 20
399.1742640687119
 10
216.54567228049322
 20
398.97961005941903
 10
216.5
 20
398.75
 10
216.54567228049322
 20
398.52038994058097
 10
216.67573593128807
 20
398.3257359312881
 10
216.87038994058094
 20
398.1956722804932
 10
217.1
 20
398.15
 10
217.32961005941905
 20
398.1956722804932
 10
217.52426406871191
 20
398.3257359312881
 10
217.65432771950677
 20
398.52038994058097
 97
0
 75
0
 76
1
 98
0
  0
CIRCLE
  5
19E
330
17
100
AcDbEntity
  8
S-REBAR-MAIN
100
AcDbCircle
 10
217.1
 20
406.25
 30
0.0
 40
0.6
  0
HATCH
  5
19F
330
17
100
AcDbEntity
  8
S-REBAR-MAIN
 62
1
100
AcDbHatch
 10
0.0
 20
0.0
 30
0.0
210
0.0
220
0.0
230
1.0
  2
SOLID
 70
1
 71
0
 91
1
 92
3
 72
0
 73
1
 93
16
 10
217.7
 20
406.25
 10
217.65432771950677
 20
406.47961005941903
 10
217.52426406871191
 20
406.6742640687119
 10
217.32961005941905
 20
406.8043277195068
 10
217.1
 20
406.85
 10
216.87038994058094
 20
406.8043277195068
 10
216.67573593128807
 20
406.6742640687119
 10
216.54567228049322
 20
406.47961005941903
 10
216.5
 20
406.25
 10
216.54567228049322
 20
406.02038994058097
 10
216.67573593128807
 20
405.8257359312881
 10
216.87038994058094
 20
405.6956722804932
 10
217.1
 20
405.65
 10
217.32961005941905
 20
405.6956722804932
 10
217.52426406871191
 20
405.8257359312881
 10
217.65432771950677
 20
406.02038994058097
 97
0
 75
0
 76
1
 98
0
  0
CIRCLE
  5
1A0
330
17
100
AcDbEntity
  8
S-REBAR-MAIN
100
AcDbCircle
 10
217.1
 20
413.75
 30
0.0
 40
0.6
  0
HATCH
  5
1A1
330
17
100
AcDbEntity
  8
S-REBAR-MAIN
 62
1
100
AcDbHatch
 10
0.0
 20
0.0
 30
0.0
210
0.0
220
0.0
230
1.0
  2
SOLID
 70
1
 71
0
 91
1
 92
3
 72
0
 73
1
 93
16
 10
217.7
 20
413.75
 10
217.65432771950677
 20
413.97961005941903
 10
217.52426406871191
 20
414.1742640687119
 10
217.32961005941905
 20
414.3043277195068
 10
217.1
 20
414.35
 10
216.87038994058094
 20
414.3043277195068
 10
216.67573593128807
 20
414.1742640687119
 10
216.54567228049322
 20
413.97961005941903
 10
216.5
 20
413.75
 10
216.54567228049322
 20
413.52038994058097
 10
216.67573593128807
 20
413.3257359312881
 10
216.87038994058094
 20
413.1956722804932
 10
217.1
 20
413.15
 10
217.32961005941905
 20
413.1956722804932
 10
217.52426406871191
 20
413.3257359312881
 10
217.65432771950677
 20
413.52038994058097
 97
0
 75
0
 76
1
 98
0
  0
CIRCLE
  5
1A2
330
17
100
AcDbEntity
  8
S-REBAR-MAIN
100
AcDbCircle
 10
217.1
 20
421.25
 30
0.0
 40
0.6
  0
HATCH
  5
1A3
330
17
100
AcDbEntity
  8
S-REBAR-MAIN
 62
1
100
AcDbHatch
 10
0.0
 20
0.0
 30
0.0
210
0.0
220
0.0
230
1.0
  2
SOLID
 70
1
 71
0
 91
1
 92
3
 72
0
 73
1
 93
16
 10
217.7
 20
421.25
 10
217.65432771950677
 20
421.47961005941903
 10
217.52426406871191
 20
421.6742640687119
 10
217.32961005941905
 20
421.8043277195068
 10
217.1
 20
421.85
 10
216.87038994058094
 20
421.8043277195068
 10
216.67573593128807
 20
421.6742640687119
 10
216.54567228049322
 20
421.47961005941903
 10
216.5
 20
421.25
 10
216.54567228049322
 20
421.02038994058097
 10
216.67573593128807
 20
420.8257359312881
 10
216.87038994058094
 20
420.6956722804932
 10
217.1
 20
420.65
 10
217.32961005941905
 20
420.6956722804932
 10
217.52426406871191
 20
420.8257359312881
 10
217.65432771950677
 20
421.02038994058097
 97
0
 75
0
 76
1
 98
0
  0
CIRCLE
  5
1A4
330
17
100
AcDbEntity
  8
S-REBAR-MAIN
100
AcDbCircle
 10
217.1
 20
428.75
 30
0.0
 40
0.6
  0
HATCH
  5
1A5
330
17
100
AcDbEntity
  8
S-REBAR-MAIN
 62
1
100
AcDbHatch
 10
0.0
 20
0.0
 30
0.0
210
0.0
220
0.0
230
1.0
  2
SOLID
 70
1
 71
0
 91
1
 92
3
 72
0
 73
1
 93
16
 10
217.7
 20
428.75
 10
217.65432771950677
 20
428.97961005941903
 10
217.52426406871191
 20
429.1742640687119
 10
217.32961005941905
 20
429.3043277195068
 10
217.1
 20
429.35
 10
216.87038994058094
 20
429.3043277195068
 10
216.67573593128807
 20
429.1742640687119
 10
216.54567228049322
 20
428.97961005941903
 10
216.5
 20
428.75
 10
216.54567228049322
 20
428.52038994058097
 10
216.67573593128807
 20
428.3257359312881
 10
216.87038994058094
 20
428.1956722804932
 10
217.1
 20
428.15
 10
217.32961005941905
 20
428.1956722804932
 10
217.52426406871191
 20
428.3257359312881
 10
217.65432771950677
 20
428.52038994058097
 97
0
 75
0
 76
1
 98
0
  0
CIRCLE
  5
1A6
330
17
100
AcDbEntity
  8
S-REBAR-MAIN
100
AcDbCircle
 10
217.1
 20
436.25
 30
0.0
 40
0.6
  0
HATCH
  5
1A7
330
17
100
AcDbEntity
  8
S-REBAR-MAIN
 62
1
100
AcDbHatch
 10
0.0
 20
0.0
 30
0.0
210
0.0
220
0.0
230
1.0
  2
SOLID
 70
1
 71
0
 91
1
 92
3
 72
0
 73
1
 93
16
 10
217.7
 20
436.25
 10
217.65432771950677
 20
436.47961005941903
 10
217.52426406871191
 20
436.6742640687119
 10
217.32961005941905
 20
436.8043277195068
 10
217.1
 20
436.85
 10
216.87038994058094
 20
436.8043277195068
 10
216.67573593128807
 20
436.6742640687119
 10
216.54567228049322
 20
436.47961005941903
 10
216.5
 20
436.25
 10
216.54567228049322
 20
436.02038994058097
 10
216.67573593128807
 20
435.8257359312881
 10
216.87038994058094
 20
435.6956722804932
 10
217.1
 20
435.65
 10
217.32961005941905
 20
435.6956722804932
 10
217.52426406871191
 20
435.8257359312881
 10
217.65432771950677
 20
436.02038994058097
 97
0
 75
0
 76
1
 98
0
  0
CIRCLE
  5
1A8
330
17
100
AcDbEntity
  8
S-REBAR-MAIN
100
AcDbCircle
 10
217.1
 20
443.75
 30
0.0
 40
0.6
  0
HATCH
  5
1A9
330
17
100
AcDbEntity
  8
S-REBAR-MAIN
 62
1
100
AcDbHatch
 10
0.0
 20
0.0
 30
0.0
210
0.0
220
0.0
230
1.0
  2
SOLID
 70
1
 71
0
 91
1
 92
3
 72
0
 73
1
 93
16
 10
217.7
 20
443.75
 10
217.65432771950677
 20
443.97961005941903
 10
217.52426406871191
 20
444.1742640687119
 10
217.32961005941905
 20
444.3043277195068
 10
217.1
 20
444.35
 10
216.87038994058094
 20
444.3043277195068
 10
216.67573593128807
 20
444.1742640687119
 10
216.54567228049322
 20
443.97961005941903
 10
216.5
 20
443.75
 10
216.54567228049322
 20
443.52038994058097
 10
216.67573593128807
 20
443.3257359312881
 10
216.87038994058094
 20
443.1956722804932
 10
217.1
 20
443.15
 10
217.32961005941905
 20
443.1956722804932
 10
217.52426406871191
 20
443.3257359312881
 10
217.65432771950677
 20
443.52038994058097
 97
0
 75
0
 76
1
 98
0
  0
CIRCLE
  5
1AA
330
17
100
AcDbEntity
  8
S-REBAR-MAIN
100
AcDbCircle
 10
217.1
 20
451.25
 30
0.0
 40
0.6
  0
HATCH
  5
1AB
330
17
100
AcDbEntity
  8
S-REBAR-MAIN
 62
1
100
AcDbHatch
 10
0.0
 20
0.0
 30
0.0
210
0.0
220
0.0
230
1.0
  2
SOLID
 70
1
 71
0
 91
1
 92
3
 72
0
 73
1
 93
16
 10
217.7
 20
451.25
 10
217.65432771950677
 20
451.47961005941903
 10
217.52426406871191
 20
451.6742640687119
 10
217.32961005941905
 20
451.8043277195068
 10
217.1
 20
451.85
 10
216.87038994058094
 20
451.8043277195068
 10
216.67573593128807
 20
451.6742640687119
 10
216.54567228049322
 20
451.47961005941903
 10
216.5
 20
451.25
 10
216.54567228049322
 20
451.02038994058097
 10
216.67573593128807
 20
450.8257359312881
 10
216.87038994058094
 20
450.6956722804932
 10
217.1
 20
450.65
 10
217.32961005941905
 20
450.6956722804932
 10
217.52426406871191
 20
450.8257359312881
 10
217.65432771950677
 20
451.02038994058097
 97
0
 75
0
 76
1
 98
0
  0
CIRCLE
  5
1AC
330
17
100
AcDbEntity
  8
S-REBAR-MAIN
100
AcDbCircle
 10
217.1
 20
458.75
 30
0.0
 40
0.6
  0
HATCH
  5
1AD
330
17
100
AcDbEntity
  8
S-REBAR-MAIN
 62
1
100
AcDbHatch
 10
0.0
 20
0.0
 30
0.0
210
0.0
220
0.0
230
1.0
  2
SOLID
 70
1
 71
0
 91
1
 92
3
 72
0
 73
1
 93
16
 10
217.7
 20
458.75
 10
217.65432771950677
 20
458.97961005941903
 10
217.52426406871191
 20
459.1742640687119
 10
217.32961005941905
 20
459.3043277195068
 10
217.1
 20
459.35
 10
216.87038994058094
 20
459.3043277195068
 10
216.67573593128807
 20
459.1742640687119
 10
216.54567228049322
 20
458.97961005941903
 10
216.5
 20
458.75
 10
216.54567228049322
 20
458.52038994058097
 10
216.67573593128807
 20
458.3257359312881
 10
216.87038994058094
 20
458.1956722804932
 10
217.1
 20
458.15
 10
217.32961005941905
 20
458.1956722804932
 10
217.52426406871191
 20
458.3257359312881
 10
217.65432771950677
 20
458.52038994058097
 97
0
 75
0
 76
1
 98
0
  0
CIRCLE
  5
1AE
330
17
100
AcDbEntity
  8
S-REBAR-MAIN
100
AcDbCircle
 10
217.1
 20
466.25
 30
0.0
 40
0.6
  0
HATCH
  5
1AF
330
17
100
AcDbEntity
  8
S-REBAR-MAIN
 62
1
100
AcDbHatch
 10
0.0
 20
0.0
 30
0.0
210
0.0
220
0.0
230
1.0
  2
SOLID
 70
1
 71
0
 91
1
 92
3
 72
0
 73
1
 93
16
 10
217.7
 20
466.25
 10
217.65432771950677
 20
466.47961005941903
 10
217.52426406871191
 20
466.6742640687119
 10
217.32961005941905
 20
466.8043277195068
 10
217.1
 20
466.85
 10
216.87038994058094
 20
466.8043277195068
 10
216.67573593128807
 20
466.6742640687119
 10
216.54567228049322
 20
466.47961005941903
 10
216.5
 20
466.25
 10
216.54567228049322
 20
466.02038994058097
 10
216.67573593128807
 20
465.8257359312881
 10
216.87038994058094
 20
465.6956722804932
 10
217.1
 20
465.65
 10
217.32961005941905
 20
465.6956722804932
 10
217.52426406871191
 20
465.8257359312881
 10
217.65432771950677
 20
466.02038994058097
 97
0
 75
0
 76
1
 98
0
  0
CIRCLE
  5
1B0
330
17
100
AcDbEntity
  8
S-REBAR-MAIN
100
AcDbCircle
 10
217.1
 20
473.75
 30
0.0
 40
0.6
  0
HATCH
  5
1B1
330
17
100
AcDbEntity
  8
S-REBAR-MAIN
 62
1
100
AcDbHatch
 10
0.0
 20
0.0
 30
0.0
210
0.0
220
0.0
230
1.0
  2
SOLID
 70
1
 71
0
 91
1
 92
3
 72
0
 73
1
 93
16
 10
217.7
 20
473.75
 10
217.65432771950677
 20
473.97961005941903
 10
217.52426406871191
 20
474.1742640687119
 10
217.32961005941905
 20
474.3043277195068
 10
217.1
 20
474.35
 10
216.87038994058094
 20
474.3043277195068
 10
216.67573593128807
 20
474.1742640687119
 10
216.54567228049322
 20
473.97961005941903
 10
216.5
 20
473.75
 10
216.54567228049322
 20
473.52038994058097
 10
216.67573593128807
 20
473.3257359312881
 10
216.87038994058094
 20
473.1956722804932
 10
217.1
 20
473.15
 10
217.32961005941905
 20
473.1956722804932
 10
217.52426406871191
 20
473.3257359312881
 10
217.65432771950677
 20
473.52038994058097
 97
0
 75
0
 76
1
 98
0
  0
CIRCLE
  5
1B2
330
17
100
AcDbEntity
  8
S-REBAR-MAIN
100
AcDbCircle
 10
217.1
 20
481.25
 30
0.0
 40
0.6
  0
HATCH
  5
1B3
330
17
100
AcDbEntity
  8
S-REBAR-MAIN
 62
1
100
AcDbHatch
 10
0.0
 20
0.0
 30
0.0
210
0.0
220
0.0
230
1.0
  2
SOLID
 70
1
 71
0
 91
1
 92
3
 72
0
 73
1
 93
16
 10
217.7
 20
481.25
 10
217.65432771950677
 20
481.47961005941903
 10
217.52426406871191
 20
481.6742640687119
 10
217.32961005941905
 20
481.8043277195068
 10
217.1
 20
481.85
 10
216.87038994058094
 20
481.8043277195068
 10
216.67573593128807
 20
481.6742640687119
 10
216.54567228049322
 20
481.47961005941903
 10
216.5
 20
481.25
 10
216.54567228049322
 20
481.02038994058097
 10
216.67573593128807
 20
480.8257359312881
 10
216.87038994058094
 20
480.6956722804932
 10
217.1
 20
480.65
 10
217.32961005941905
 20
480.6956722804932
 10
217.52426406871191
 20
480.8257359312881
 10
217.65432771950677
 20
481.02038994058097
 97
0
 75
0
 76
1
 98
0
  0
CIRCLE
  5
1B4
330
17
100
AcDbEntity
  8
S-REBAR-MAIN
100
AcDbCircle
 10
217.1
 20
488.75
 30
0.0
 40
0.6
  0
HATCH
  5
1B5
330
17
100
AcDbEntity
  8
S-REBAR-MAIN
 62
1
100
AcDbHatch
 10
0.0
 20
0.0
 30
0.0
210
0.0
220
0.0
230
1.0
  2
SOLID
 70
1
 71
0
 91
1
 92
3
 72
0
 73
1
 93
16
 10
217.7
 20
488.75
 10
217.65432771950677
 20
488.97961005941903
 10
217.52426406871191
 20
489.1742640687119
 10
217.32961005941905
 20
489.3043277195068
 10
217.1
 20
489.35
 10
216.87038994058094
 20
489.3043277195068
 10
216.67573593128807
 20
489.1742640687119
 10
216.54567228049322
 20
488.97961005941903
 10
216.5
 20
488.75
 10
216.54567228049322
 20
488.52038994058097
 10
216.67573593128807
 20
488.3257359312881
 10
216.87038994058094
 20
488.1956722804932
 10
217.1
 20
488.15
 10
217.32961005941905
 20
488.1956722804932
 10
217.52426406871191
 20
488.3257359312881
 10
217.65432771950677
 20
488.52038994058097
 97
0
 75
0
 76
1
 98
0
  0
CIRCLE
  5
1B6
330
17
100
AcDbEntity
  8
S-REBAR-MAIN
100
AcDbCircle
 10
217.1
 20
496.25
 30
0.0
 40
0.6
  0
HATCH
  5
1B7
330
17
100
AcDbEntity
  8
S-REBAR-MAIN
 62
1
100
AcDbHatch
 10
0.0
 20
0.0
 30
0.0
210
0.0
220
0.0
230
1.0
  2
SOLID
 70
1
 71
0
 91
1
 92
3
 72
0
 73
1
 93
16
 10
217.7
 20
496.25
 10
217.65432771950677
 20
496.47961005941903
 10
217.52426406871191
 20
496.6742640687119
 10
217.32961005941905
 20
496.8043277195068
 10
217.1
 20
496.85
 10
216.87038994058094
 20
496.8043277195068
 10
216.67573593128807
 20
496.6742640687119
 10
216.54567228049322
 20
496.47961005941903
 10
216.5
 20
496.25
 10
216.54567228049322
 20
496.02038994058097
 10
216.67573593128807
 20
495.8257359312881
 10
216.87038994058094
 20
495.6956722804932
 10
217.1
 20
495.65
 10
217.32961005941905
 20
495.6956722804932
 10
217.52426406871191
 20
495.8257359312881
 10
217.65432771950677
 20
496.02038994058097
 97
0
 75
0
 76
1
 98
0
  0
CIRCLE
  5
1B8
330
17
100
AcDbEntity
  8
S-REBAR-MAIN
100
AcDbCircle
 10
217.1
 20
503.75
 30
0.0
 40
0.6
  0
HATCH
  5
1B9
330
17
100
AcDbEntity
  8
S-REBAR-MAIN
 62
1
100
AcDbHatch
 10
0.0
 20
0.0
 30
0.0
210
0.0
220
0.0
230
1.0
  2
SOLID
 70
1
 71
0
 91
1
 92
3
 72
0
 73
1
 93
16
 10
217.7
 20
503.75
 10
217.65432771950677
 20
503.97961005941903
 10
217.52426406871191
 20
504.1742640687119
 10
217.32961005941905
 20
504.3043277195068
 10
217.1
 20
504.35
 10
216.87038994058094
 20
504.3043277195068
 10
216.67573593128807
 20
504.1742640687119
 10
216.54567228049322
 20
503.97961005941903
 10
216.5
 20
503.75
 10
216.54567228049322
 20
503.52038994058097
 10
216.67573593128807
 20
503.3257359312881
 10
216.87038994058094
 20
503.1956722804932
 10
217.1
 20
503.15
 10
217.32961005941905
 20
503.1956722804932
 10
217.52426406871191
 20
503.3257359312881
 10
217.65432771950677
 20
503.52038994058097
 97
0
 75
0
 76
1
 98
0
  0
CIRCLE
  5
1BA
330
17
100
AcDbEntity
  8
S-REBAR-MAIN
100
AcDbCircle
 10
217.1
 20
511.25
 30
0.0
 40
0.6
  0
HATCH
  5
1BB
330
17
100
AcDbEntity
  8
S-REBAR-MAIN
 62
1
100
AcDbHatch
 10
0.0
 20
0.0
 30
0.0
210
0.0
220
0.0
230
1.0
  2
SOLID
 70
1
 71
0
 91
1
 92
3
 72
0
 73
1
 93
16
 10
217.7
 20
511.25
 10
217.65432771950677
 20
511.47961005941903
 10
217.52426406871191
 20
511.6742640687119
 10
217.32961005941905
 20
511.8043277195068
 10
217.1
 20
511.85
 10
216.87038994058094
 20
511.8043277195068
 10
216.67573593128807
 20
511.6742640687119
 10
216.54567228049322
 20
511.47961005941903
 10
216.5
 20
511.25
 10
216.54567228049322
 20
511.02038994058097
 10
216.67573593128807
 20
510.8257359312881
 10
216.87038994058094
 20
510.6956722804932
 10
217.1
 20
510.65
 10
217.32961005941905
 20
510.6956722804932
 10
217.52426406871191
 20
510.8257359312881
 10
217.65432771950677
 20
511.02038994058097
 97
0
 75
0
 76
1
 98
0
  0
CIRCLE
  5
1BC
330
17
100
AcDbEntity
  8
S-REBAR-MAIN
100
AcDbCircle
 10
217.1
 20
518.75
 30
0.0
 40
0.6
  0
HATCH
  5
1BD
330
17
100
AcDbEntity
  8
S-REBAR-MAIN
 62
1
100
AcDbHatch
 10
0.0
 20
0.0
 30
0.0
210
0.0
220
0.0
230
1.0
  2
SOLID
 70
1
 71
0
 91
1
 92
3
 72
0
 73
1
 93
16
 10
217.7
 20
518.75
 10
217.65432771950677
 20
518.9796100594191
 10
217.52426406871191
 20
519.174264068712
 10
217.32961005941905
 20
519.3043277195068
 10
217.1
 20
519.35
 10
216.87038994058094
 20
519.3043277195068
 10
216.67573593128807
 20
519.174264068712
 10
216.54567228049322
 20
518.9796100594191
 10
216.5
 20
518.75
 10
216.54567228049322
 20
518.5203899405809
 10
216.67573593128807
 20
518.325735931288
 10
216.87038994058094
 20
518.1956722804932
 10
217.1
 20
518.15
 10
217.32961005941905
 20
518.1956722804932
 10
217.52426406871191
 20
518.325735931288
 10
217.65432771950677
 20
518.5203899405809
 97
0
 75
0
 76
1
 98
0
  0
CIRCLE
  5
1BE
330
17
100
AcDbEntity
  8
S-REBAR-MAIN
100
AcDbCircle
 10
217.1
 20
526.25
 30
0.0
 40
0.6
  0
HATCH
  5
1BF
330
17
100
AcDbEntity
  8
S-REBAR-MAIN
 62
1
100
AcDbHatch
 10
0.0
 20
0.0
 30
0.0
210
0.0
220
0.0
230
1.0
  2
SOLID
 70
1
 71
0
 91
1
 92
3
 72
0
 73
1
 93
16
 10
217.7
 20
526.25
 10
217.65432771950677
 20
526.4796100594191
 10
217.52426406871191
 20
526.674264068712
 10
217.32961005941905
 20
526.8043277195068
 10
217.1
 20
526.85
 10
216.87038994058094
 20
526.8043277195068
 10
216.67573593128807
 20
526.674264068712
 10
216.54567228049322
 20
526.4796100594191
 10
216.5
 20
526.25
 10
216.54567228049322
 20
526.0203899405809
 10
216.67573593128807
 20
525.825735931288
 10
216.87038994058094
 20
525.6956722804932
 10
217.1
 20
525.65
 10
217.32961005941905
 20
525.6956722804932
 10
217.52426406871191
 20
525.825735931288
 10
217.65432771950677
 20
526.0203899405809
 97
0
 75
0
 76
1
 98
0
  0
LINE
  5
1C0
330
17
100
AcDbEntity
  8
S-REBAR-MAIN
100
AcDbLine
 10
194.15
 20
381.0
 30
0.0
 11
194.15
 21
529.0
 31
0.0
  0
LINE
  5
1C1
330
17
100
AcDbEntity
  8
S-REBAR-MAIN
100
AcDbLine
 10
215.85
 20
381.0
 30
0.0
 11
215.85
 21
529.0
 31
0.0
  0
LWPOLYLINE
  5
1C2
330
17
100
AcDbEntity
  8
S-REBAR-STIRRUP
100
AcDbPolyline
 90
4
 70
1
 10
192.5
 20
382.8
 10
217.5
 20
382.8
 10
217.5
 20
387.2
 10
192.5
 20
387.2
  0
LWPOLYLINE
  5
1C3
330
17
100
AcDbEntity
  8
S-REBAR-STIRRUP
100
AcDbPolyline
 90
4
 70
1
 10
192.5
 20
392.8
 10
217.5
 20
392.8
 10
217.5
 20
397.2
 10
192.5
 20
397.2
  0
LWPOLYLINE
  5
1C4
330
17
100
AcDbEntity
  8
S-REBAR-STIRRUP
100
AcDbPolyline
 90
4
 70
1
 10
192.5
 20
402.8
 10
217.5
 20
402.8
 10
217.5
 20
407.2
 10
192.5
 20
407.2
  0
LWPOLYLINE
  5
1C5
330
17
100
AcDbEntity
  8
S-REBAR-STIRRUP
100
AcDbPolyline
 90
4
 70
1
 10
192.5
 20
412.8
 10
217.5
 20
412.8
 10
217.5
 20
417.2
 10
192.5
 20
417.2
  0
LWPOLYLINE
  5
1C6
330
17
100
AcDbEntity
  8
S-REBAR-STIRRUP
100
AcDbPolyline
 90
4
 70
1
 10
192.5
 20
422.8
 10
217.5
 20
422.8
 10
217.5
 20
427.2
 10
192.5
 20
427.2
  0
LWPOLYLINE
  5
1C7
330
17
100
AcDbEntity
  8
S-REBAR-STIRRUP
100
AcDbPolyline
 90
4
 70
1
 10
192.5
 20
432.8
 10
217.5
 20
432.8
 10
217.5
 20
437.2
 10
192.5
 20
437.2
  0
LWPOLYLINE
  5
1C8
330
17
100
AcDbEntity
  8
S-REBAR-STIRRUP
100
AcDbPolyline
 90
4
 70
1
 10
192.5
 20
442.8
 10
217.5
 20
442.8
 10
217.5
 20
447.2
 10
192.5
 20
447.2
  0
LWPOLYLINE
  5
1C9
330
17
100
AcDbEntity
  8
S-REBAR-STIRRUP
100
AcDbPolyline
 90
4
 70
1
 10
192.5
 20
452.8
 10
217.5
 20
452.8
 10
217.5
 20
457.2
 10
192.5
 20
457.2
  0
LWPOLYLINE
  5
1CA
330
17
100
AcDbEntity
  8
S-REBAR-STIRRUP
100
AcDbPolyline
 90
4
 70
1
 10
192.5
 20
462.8
 10
217.5
 20
462.8
 10
217.5
 20
467.2
 10
192.5
 20
467.2
  0
LWPOLYLINE
  5
1CB
330
17
100
AcDbEntity
  8
S-REBAR-STIRRUP
100
AcDbPolyline
 90
4
 70
1
 10
192.5
 20
472.8
 10
217.5
 20
472.8
 10
217.5
 20
477.2
 10
192.5
 20
477.2
  0
LWPOLYLINE
  5
1CC
330
17
100
AcDbEntity
  8
S-REBAR-STIRRUP
100
AcDbPolyline
 90
4
 70
1
 10
192.5
 20
482.8
 10
217.5
 20
482.8
 10
217.5
 20
487.2
 10
192.5
 20
487.2
  0
LWPOLYLINE
  5
1CD
330
17
100
AcDbEntity
  8
S-REBAR-STIRRUP
100
AcDbPolyline
 90
4
 70
1
 10
192.5
 20
492.8
 10
217.5
 20
492.8
 10
217.5
 20
497.2
 10
192.5
 20
497.2
  0
LWPOLYLINE
  5
1CE
330
17
100
AcDbEntity
  8
S-REBAR-STIRRUP
100
AcDbPolyline
 90
4
 70
1
 10
192.5
 20
502.8
 10
217.5
 20
502.8
 10
217.5
 20
507.2
 10
192.5
 20
507.2
  0
LWPOLYLINE
  5
1CF
330
17
100
AcDbEntity
  8
S-REBAR-STIRRUP
100
AcDbPolyline
 90
4
 70
1
 10
192.5
 20
512.8
 10
217.5
 20
512.8
 10
217.5
 20
517.2
 10
192.5
 20
517.2
  0
LWPOLYLINE
  5
1D0
330
17
100
AcDbEntity
  8
S-REBAR-STIRRUP
100
AcDbPolyline
 90
4
 70
1
 10
192.5
 20
522.8
 10
217.5
 20
522.8
 10
217.5
 20
527.2
 10
192.5
 20
527.2
  0
DIMENSION
  5
1D1
330
17
100
AcDbEntity
  8
S-DIM
100
AcDbDimension
280
0
  2
*D3
  3
SC-DIM
 10
190.0
 20
360.0
 30
0.0
 11
205.0
 21
361.7
 31
0.0
 70
32
 71
5
  1
<>
100
AcDbAlignedDimension
 13
190.0
 23
380.0
 33
0.0
 14
220.0
 24
380.0
 34
0.0
 50
0.0
100
AcDbRotatedDimension
1001
ACAD
1000
DSTYLE
1002
{
1070
144
1040
20.0
1002
}
  0
DIMENSION
  5
1E0
330
17
100
AcDbEntity
  8
S-DIM
100
AcDbDimension
280
0
  2
*D4
  3
SC-DIM
 10
228.0
 20
425.0
 30
0.0
 11
226.3
 21
428.75
 31
0.0
 70
32
 71
5
  1
<>
100
AcDbAlignedDimension
 13
220.0
 23
425.0
 33
0.0
 14
220.0
 24
432.5
 34
0.0
 50
90.0
100
AcDbRotatedDimension
1001
ACAD
1000
DSTYLE
1002
{
1070
144
1040
20.0
1002
}
  0
TEXT
  5
1EF
330
17
100
AcDbEntity
  8
S-TEXT
100
AcDbText
 10
231.0
 20
428.75
 30
0.0
 40
1.4
  1
150
  7
OpenSans
 11
231.0
 21
428.75
 31
0.0
100
AcDbText
  0
TEXT
  5
1F0
330
17
100
AcDbEntity
  8
S-TITLE
100
AcDbText
 10
190.0
 20
552.0
 30
0.0
 40
3.5
  1
V2   HORIZONTAL SECTION - PLAN CUT ON THE WALL
  7
OpenSans
 11
190.0
 21
552.0
 31
0.0
100
AcDbText
  0
LINE
  5
1F1
330
17
100
AcDbEntity
  8
S-TITLE
100
AcDbLine
 10
190.0
 20
550.2
 30
0.0
 11
296.26
 21
550.2
 31
0.0
  0
TEXT
  5
1F2
330
17
100
AcDbEntity
  8
S-TEXT
100
AcDbText
 10
190.0
 20
544.8
 30
0.0
 40
2.0
  1
SCALE 1:20
  7
OpenSans
 11
190.0
 21
544.8
 31
0.0
100
AcDbText
  0
TEXT
  5
1F3
330
17
100
AcDbEntity
  8
S-TITLE
100
AcDbText
 10
302.0
 20
548.6
 30
0.0
 40
2.5
  1
PERIMETER WALLS - DESIGN BASIS
  7
OpenSans
 11
302.0
 21
548.6
 31
0.0
100
AcDbText
  0
TEXT
  5
1F4
330
17
100
AcDbEntity
  8
S-NOTE
100
AcDbText
 10
302.0
 20
544.6
 30
0.0
 40
1.4
  1
GOVERNING COMBINATION   103 BLAST
  7
OpenSans
 11
302.0
 21
544.6
 31
0.0
100
AcDbText
  0
TEXT
  5
1F5
330
17
100
AcDbEntity
  8
S-NOTE
100
AcDbText
 10
302.0
 20
541.5500000000001
 30
0.0
 40
1.4
  1
Blast 383 kPa (Ka = 1.0, saturated) vs static earth + water 83.2 kPa at
  7
OpenSans
 11
302.0
 21
541.5500000000001
 31
0.0
100
AcDbText
  0
TEXT
  5
1F6
330
17
100
AcDbEntity
  8
S-NOTE
100
AcDbText
 10
302.0
 20
538.5000000000001
 30
0.0
 40
1.4
  1
the base  ->  BLAST GOVERNS 4.6 : 1
  7
OpenSans
 11
302.0
 21
538.5000000000001
 31
0.0
100
AcDbText
  0
TEXT
  5
1F7
330
17
100
AcDbEntity
  8
S-NOTE
100
AcDbText
 10
302.0
 20
535.4500000000002
 30
0.0
 40
1.4
  1

  7
OpenSans
 11
302.0
 21
535.4500000000002
 31
0.0
100
AcDbText
  0
TEXT
  5
1F8
330
17
100
AcDbEntity
  8
S-NOTE
100
AcDbText
 10
302.0
 20
532.4000000000002
 30
0.0
 40
1.4
  1
MECHANISM   fixed-fixed one-way vertical strip, Ln = 3200
  7
OpenSans
 11
302.0
 21
532.4000000000002
 31
0.0
100
AcDbText
  0
TEXT
  5
1F9
330
17
100
AcDbEntity
  8
S-NOTE
100
AcDbText
 10
302.0
 20
529.3500000000003
 30
0.0
 40
1.4
  1
  Mp = w Ln2 / 16 = 383 x 3.200^2 / 16       =  245.1 kNm/m
  7
OpenSans
 11
302.0
 21
529.3500000000003
 31
0.0
100
AcDbText
  0
TEXT
  5
1FA
330
17
100
AcDbEntity
  8
S-NOTE
100
AcDbText
 10
302.0
 20
526.3000000000003
 30
0.0
 40
1.4
  1
  d  = 600 - 75 - 8                          =  517 mm
  7
OpenSans
 11
302.0
 21
526.3000000000003
 31
0.0
100
AcDbText
  0
TEXT
  5
1FB
330
17
100
AcDbEntity
  8
S-NOTE
100
AcDbText
 10
302.0
 20
523.2500000000003
 30
0.0
 40
1.4
  1
  Mu,lim = 0.133 x 43.75 x 1000 x 517^2      =  1556 kNm/m  SINGLY REINFORCED
  7
OpenSans
 11
302.0
 21
523.2500000000003
 31
0.0
100
AcDbText
  0
TEXT
  5
1FC
330
17
100
AcDbEntity
  8
S-NOTE
100
AcDbText
 10
302.0
 20
520.2000000000004
 30
0.0
 40
1.4
  1
  Ast,req (fck,dyn 43.75 / fy,dyn 625)       =  894 mm2/m
  7
OpenSans
 11
302.0
 21
520.2000000000004
 31
0.0
100
AcDbText
  0
TEXT
  5
1FD
330
17
100
AcDbEntity
  8
S-NOTE
100
AcDbText
 10
302.0
 20
517.1500000000004
 30
0.0
 40
1.4
  1

  7
OpenSans
 11
302.0
 21
517.1500000000004
 31
0.0
100
AcDbText
  0
TEXT
  5
1FE
330
17
100
AcDbEntity
  8
S-NOTE
100
AcDbText
 10
302.0
 20
514.1000000000005
 30
0.0
 40
1.4
  1
MINIMUM STEEL
  7
OpenSans
 11
302.0
 21
514.1000000000005
 31
0.0
100
AcDbText
  0
TEXT
  5
1FF
330
17
100
AcDbEntity
  8
S-NOTE
100
AcDbText
 10
302.0
 20
511.05000000000047
 30
0.0
 40
1.4
  1
  IS 456 Cl. 32.5(a) vertical  0.0012 x 600  =  720 mm2/m
  7
OpenSans
 11
302.0
 21
511.05000000000047
 31
0.0
100
AcDbText
  0
TEXT
  5
200
330
17
100
AcDbEntity
  8
S-NOTE
100
AcDbText
 10
302.0
 20
508.00000000000045
 30
0.0
 40
1.4
  1
  IS 456 Cl. 32.5(b) horizontal 0.0020 x 600 =  1200 mm2/m   GOVERNS
  7
OpenSans
 11
302.0
 21
508.00000000000045
 31
0.0
100
AcDbText
  0
TEXT
  5
201
330
17
100
AcDbEntity
  8
S-NOTE
100
AcDbText
 10
302.0
 20
504.95000000000044
 30
0.0
 40
1.4
  1
  IS 3370 Pt 2 surface zone 0.35 % x 250     =  875 mm2/m/face
  7
OpenSans
 11
302.0
 21
504.95000000000044
 31
0.0
100
AcDbText
  0
TEXT
  5
202
330
17
100
AcDbEntity
  8
S-NOTE
100
AcDbText
 10
302.0
 20
501.90000000000043
 30
0.0
 40
1.4
  1
  IS 456 Cl. 32.5(c) two curtains required (t > 200)   PROVIDED
  7
OpenSans
 11
302.0
 21
501.90000000000043
 31
0.0
100
AcDbText
  0
TEXT
  5
203
330
17
100
AcDbEntity
  8
S-NOTE
100
AcDbText
 10
302.0
 20
498.8500000000004
 30
0.0
 40
1.4
  1

  7
OpenSans
 11
302.0
 21
498.8500000000004
 31
0.0
100
AcDbText
  0
TEXT
  5
204
330
17
100
AcDbEntity
  8
S-NOTE
100
AcDbText
 10
302.0
 20
495.8000000000004
 30
0.0
 40
1.4
  1
PROVIDED  T16 @ 150 EF EW = 1340 mm2/m/face
  7
OpenSans
 11
302.0
 21
495.8000000000004
 31
0.0
100
AcDbText
  0
TEXT
  5
205
330
17
100
AcDbEntity
  8
S-NOTE
100
AcDbText
 10
302.0
 20
492.7500000000004
 30
0.0
 40
1.4
  1
  Mu = 362.8 kNm/m   ->  UTILISATION 68 %   ·  xu/d = 0.089 << 0.46
  7
OpenSans
 11
302.0
 21
492.7500000000004
 31
0.0
100
AcDbText
  0
TEXT
  5
206
330
17
100
AcDbEntity
  8
S-NOTE
100
AcDbText
 10
302.0
 20
489.7000000000004
 30
0.0
 40
1.4
  1

  7
OpenSans
 11
302.0
 21
489.7000000000004
 31
0.0
100
AcDbText
  0
TEXT
  5
207
330
17
100
AcDbEntity
  8
S-NOTE
100
AcDbText
 10
302.0
 20
486.6500000000004
 30
0.0
 40
1.4
  1
SHEAR   V at d = 383 (1.600 - 0.517)         =  414.8 kN/m
  7
OpenSans
 11
302.0
 21
486.6500000000004
 31
0.0
100
AcDbText
  0
TEXT
  5
208
330
17
100
AcDbEntity
  8
S-NOTE
100
AcDbText
 10
302.0
 20
483.60000000000036
 30
0.0
 40
1.4
  1
  tau_v 0.802 | tau_c 0.375 (pt 0.259 %, STATIC M35 - IS 4991 Cl. 10.3.1.1)
  7
OpenSans
 11
302.0
 21
483.60000000000036
 31
0.0
100
AcDbText
  0
TEXT
  5
209
330
17
100
AcDbEntity
  8
S-NOTE
100
AcDbText
 10
302.0
 20
480.55000000000035
 30
0.0
 40
1.4
  1
  tau_c,max 3.70 OK   Vus 220.8   Asv/sv 0.982  ->  T12 2-leg at 230
  7
OpenSans
 11
302.0
 21
480.55000000000035
 31
0.0
100
AcDbText
  0
TEXT
  5
20A
330
17
100
AcDbEntity
  8
S-NOTE
100
AcDbText
 10
302.0
 20
477.50000000000034
 30
0.0
 40
1.4
  1
  IS 456 Cl. 26.5.1.5 limit min(0.75d 388, 300) = 300
  7
OpenSans
 11
302.0
 21
477.50000000000034
 31
0.0
100
AcDbText
  0
TEXT
  5
20B
330
17
100
AcDbEntity
  8
S-NOTE
100
AcDbText
 10
302.0
 20
474.45000000000033
 30
0.0
 40
1.4
  1
  PROVIDED  T12 CLOSED LINKS @ 200  (Asv/sv 1.131)
  7
OpenSans
 11
302.0
 21
474.45000000000033
 31
0.0
100
AcDbText
  0
TEXT
  5
20C
330
17
100
AcDbEntity
  8
S-NOTE
100
AcDbText
 10
302.0
 20
471.4000000000003
 30
0.0
 40
1.4
  1

  7
OpenSans
 11
302.0
 21
471.4000000000003
 31
0.0
100
AcDbText
  0
TEXT
  5
20D
330
17
100
AcDbEntity
  8
S-NOTE
100
AcDbText
 10
302.0
 20
468.3500000000003
 30
0.0
 40
1.4
  1
AXIAL   N = 448.15 x 2.50 + 3.2 x 0.6 x 25   =  1168 kN/m
  7
OpenSans
 11
302.0
 21
468.3500000000003
 31
0.0
100
AcDbText
  0
TEXT
  5
20E
330
17
100
AcDbEntity
  8
S-NOTE
100
AcDbText
 10
302.0
 20
465.3000000000003
 30
0.0
 40
1.4
  1
  f = 1.95 N/mm2 = 11 % of 0.4 fck,dyn  ->  P-M NOT CRITICAL
  7
OpenSans
 11
302.0
 21
465.3000000000003
 31
0.0
100
AcDbText
  0
TEXT
  5
20F
330
17
100
AcDbEntity
  8
S-NOTE
100
AcDbText
 10
302.0
 20
462.2500000000003
 30
0.0
 40
1.4
  1
CRACK   IS 3370 Pt 2, 0.2 mm limit; surface steel 875 < 1340 provided  OK
  7
OpenSans
 11
302.0
 21
462.2500000000003
 31
0.0
100
AcDbText
  0
TEXT
  5
210
330
17
100
AcDbEntity
  8
S-NOTE
100
AcDbText
 10
302.0
 20
459.2000000000003
 30
0.0
 40
1.4
  1

  7
OpenSans
 11
302.0
 21
459.2000000000003
 31
0.0
100
AcDbText
  0
TEXT
  5
211
330
17
100
AcDbEntity
  8
S-NOTE
100
AcDbText
 10
302.0
 20
456.15000000000026
 30
0.0
 40
1.4
  1
MANUAL CALCULATION - NOT DIRECT STAAD OUTPUT.
  7
OpenSans
 11
302.0
 21
456.15000000000026
 31
0.0
100
AcDbText
  0
LWPOLYLINE
  5
212
330
17
100
AcDbEntity
  8
S-TITLE
100
AcDbPolyline
 90
4
 70
1
 10
300.0
 20
451.10000000000025
 10
500.0
 20
451.10000000000025
 10
500.0
 20
552.0
 10
300.0
 20
552.0
  0
TEXT
  5
213
330
17
100
AcDbEntity
  8
S-TITLE
100
AcDbText
 10
302.0
 20
441.7000000000003
 30
0.0
 40
2.5
  1
BAR MARK KEY - THIS SHEET
  7
OpenSans
 11
302.0
 21
441.7000000000003
 31
0.0
100
AcDbText
  0
CIRCLE
  5
214
330
17
100
AcDbEntity
  8
S-CALLOUT
100
AcDbCircle
 10
307.0
 20
435.2000000000003
 30
0.0
 40
2.6
  0
TEXT
  5
215
330
17
100
AcDbEntity
  8
S-CALLOUT
100
AcDbText
 10
307.0
 20
435.2000000000003
 30
0.0
 40
1.4
  1
W01
  7
OpenSans
 72
1
 11
307.0
 21
435.2000000000003
 31
0.0
100
AcDbText
 73
2
  0
TEXT
  5
216
330
17
100
AcDbEntity
  8
S-NOTE
100
AcDbText
 10
312.0
 20
434.60000000000025
 30
0.0
 40
1.4
  1
T16  @ 150   VERTICAL, EARTH FACE
  7
OpenSans
 11
312.0
 21
434.60000000000025
 31
0.0
100
AcDbText
  0
CIRCLE
  5
217
330
17
100
AcDbEntity
  8
S-CALLOUT
100
AcDbCircle
 10
307.0
 20
429.2000000000003
 30
0.0
 40
2.6
  0
TEXT
  5
218
330
17
100
AcDbEntity
  8
S-CALLOUT
100
AcDbText
 10
307.0
 20
429.2000000000003
 30
0.0
 40
1.4
  1
W02
  7
OpenSans
 72
1
 11
307.0
 21
429.2000000000003
 31
0.0
100
AcDbText
 73
2
  0
TEXT
  5
219
330
17
100
AcDbEntity
  8
S-NOTE
100
AcDbText
 10
312.0
 20
428.60000000000025
 30
0.0
 40
1.4
  1
T16  @ 150   VERTICAL, INTERNAL FACE
  7
OpenSans
 11
312.0
 21
428.60000000000025
 31
0.0
100
AcDbText
  0
CIRCLE
  5
21A
330
17
100
AcDbEntity
  8
S-CALLOUT
100
AcDbCircle
 10
307.0
 20
423.2000000000003
 30
0.0
 40
2.6
  0
TEXT
  5
21B
330
17
100
AcDbEntity
  8
S-CALLOUT
100
AcDbText
 10
307.0
 20
423.2000000000003
 30
0.0
 40
1.4
  1
W03
  7
OpenSans
 72
1
 11
307.0
 21
423.2000000000003
 31
0.0
100
AcDbText
 73
2
  0
TEXT
  5
21C
330
17
100
AcDbEntity
  8
S-NOTE
100
AcDbText
 10
312.0
 20
422.60000000000025
 30
0.0
 40
1.4
  1
T16  @ 150   HORIZONTAL, EACH FACE
  7
OpenSans
 11
312.0
 21
422.60000000000025
 31
0.0
100
AcDbText
  0
CIRCLE
  5
21D
330
17
100
AcDbEntity
  8
S-CALLOUT
100
AcDbCircle
 10
307.0
 20
417.2000000000003
 30
0.0
 40
2.6
  0
TEXT
  5
21E
330
17
100
AcDbEntity
  8
S-CALLOUT
100
AcDbText
 10
307.0
 20
417.2000000000003
 30
0.0
 40
1.4
  1
W04
  7
OpenSans
 72
1
 11
307.0
 21
417.2000000000003
 31
0.0
100
AcDbText
 73
2
  0
TEXT
  5
21F
330
17
100
AcDbEntity
  8
S-NOTE
100
AcDbText
 10
312.0
 20
416.60000000000025
 30
0.0
 40
1.4
  1
T16  @ 150   HORIZONTAL, EACH FACE
  7
OpenSans
 11
312.0
 21
416.60000000000025
 31
0.0
100
AcDbText
  0
CIRCLE
  5
220
330
17
100
AcDbEntity
  8
S-CALLOUT
100
AcDbCircle
 10
307.0
 20
411.2000000000003
 30
0.0
 40
2.6
  0
TEXT
  5
221
330
17
100
AcDbEntity
  8
S-CALLOUT
100
AcDbText
 10
307.0
 20
411.2000000000003
 30
0.0
 40
1.4
  1
W05
  7
OpenSans
 72
1
 11
307.0
 21
411.2000000000003
 31
0.0
100
AcDbText
 73
2
  0
TEXT
  5
222
330
17
100
AcDbEntity
  8
S-NOTE
100
AcDbText
 10
312.0
 20
410.60000000000025
 30
0.0
 40
1.4
  1
T12  @ 200 x 200 CLOSED LINKS, 200 x 200 GRID
  7
OpenSans
 11
312.0
 21
410.60000000000025
 31
0.0
100
AcDbText
  0
CIRCLE
  5
223
330
17
100
AcDbEntity
  8
S-CALLOUT
100
AcDbCircle
 10
307.0
 20
405.2000000000003
 30
0.0
 40
2.6
  0
TEXT
  5
224
330
17
100
AcDbEntity
  8
S-CALLOUT
100
AcDbText
 10
307.0
 20
405.2000000000003
 30
0.0
 40
1.4
  1
W06
  7
OpenSans
 72
1
 11
307.0
 21
405.2000000000003
 31
0.0
100
AcDbText
 73
2
  0
TEXT
  5
225
330
17
100
AcDbEntity
  8
S-NOTE
100
AcDbText
 10
312.0
 20
404.60000000000025
 30
0.0
 40
1.4
  1
T20  @ 150   HAUNCH DIAGONALS, WALL/ROOF + WALL/MAT
  7
OpenSans
 11
312.0
 21
404.60000000000025
 31
0.0
100
AcDbText
  0
LWPOLYLINE
  5
226
330
17
100
AcDbEntity
  8
S-TITLE
100
AcDbPolyline
 90
4
 70
1
 10
300.0
 20
396.60000000000025
 10
500.0
 20
396.60000000000025
 10
500.0
 20
445.10000000000025
 10
300.0
 20
445.10000000000025
  0
TEXT
  5
227
330
17
100
AcDbEntity
  8
S-TITLE
100
AcDbText
 10
512.0
 20
548.6
 30
0.0
 40
2.5
  1
WHY 600 mm - STATED HONESTLY
  7
OpenSans
 11
512.0
 21
548.6
 31
0.0
100
AcDbText
  0
TEXT
  5
228
330
17
100
AcDbEntity
  8
S-NOTE
100
AcDbText
 10
512.0
 20
544.6
 30
0.0
 40
1.4
  1
The wall is NOT strength-governed.
  7
OpenSans
 11
512.0
 21
544.6
 31
0.0
100
AcDbText
  0
TEXT
  5
229
330
17
100
AcDbEntity
  8
S-NOTE
100
AcDbText
 10
512.0
 20
541.5500000000001
 30
0.0
 40
1.4
  1
It is 68 % utilised.  600 is set by:
  7
OpenSans
 11
512.0
 21
541.5500000000001
 31
0.0
100
AcDbText
  0
TEXT
  5
22A
330
17
100
AcDbEntity
  8
S-NOTE
100
AcDbText
 10
512.0
 20
538.5000000000001
 30
0.0
 40
1.4
  1

  7
OpenSans
 11
512.0
 21
538.5000000000001
 31
0.0
100
AcDbText
  0
TEXT
  5
22B
330
17
100
AcDbEntity
  8
S-NOTE
100
AcDbText
 10
512.0
 20
535.4500000000002
 30
0.0
 40
1.4
  1
(i)   75 mm cover
  7
OpenSans
 11
512.0
 21
535.4500000000002
 31
0.0
100
AcDbText
  0
TEXT
  5
22C
330
17
100
AcDbEntity
  8
S-NOTE
100
AcDbText
 10
512.0
 20
532.4000000000002
 30
0.0
 40
1.4
  1
(ii)  CONGESTION - two curtains,
  7
OpenSans
 11
512.0
 21
532.4000000000002
 31
0.0
100
AcDbText
  0
TEXT
  5
22D
330
17
100
AcDbEntity
  8
S-NOTE
100
AcDbText
 10
512.0
 20
529.3500000000003
 30
0.0
 40
1.4
  1
      closed links, waterstops and
  7
OpenSans
 11
512.0
 21
529.3500000000003
 31
0.0
100
AcDbText
  0
TEXT
  5
22E
330
17
100
AcDbEntity
  8
S-NOTE
100
AcDbText
 10
512.0
 20
526.3000000000003
 30
0.0
 40
1.4
  1
      cast-in frames
  7
OpenSans
 11
512.0
 21
526.3000000000003
 31
0.0
100
AcDbText
  0
TEXT
  5
22F
330
17
100
AcDbEntity
  8
S-NOTE
100
AcDbText
 10
512.0
 20
523.2500000000003
 30
0.0
 40
1.4
  1
(iii) IS 3370 crack control under
  7
OpenSans
 11
512.0
 21
523.2500000000003
 31
0.0
100
AcDbText
  0
TEXT
  5
230
330
17
100
AcDbEntity
  8
S-NOTE
100
AcDbText
 10
512.0
 20
520.2000000000004
 30
0.0
 40
1.4
  1
      sustained hydrostatic load
  7
OpenSans
 11
512.0
 21
520.2000000000004
 31
0.0
100
AcDbText
  0
TEXT
  5
231
330
17
100
AcDbEntity
  8
S-NOTE
100
AcDbText
 10
512.0
 20
517.1500000000004
 30
0.0
 40
1.4
  1
(iv)  the EMP double curtain at 150
  7
OpenSans
 11
512.0
 21
517.1500000000004
 31
0.0
100
AcDbText
  0
TEXT
  5
232
330
17
100
AcDbEntity
  8
S-NOTE
100
AcDbText
 10
512.0
 20
514.1000000000005
 30
0.0
 40
1.4
  1
(v)   the 1168 kN/m axial path
  7
OpenSans
 11
512.0
 21
514.1000000000005
 31
0.0
100
AcDbText
  0
TEXT
  5
233
330
17
100
AcDbEntity
  8
S-NOTE
100
AcDbText
 10
512.0
 20
511.05000000000047
 30
0.0
 40
1.4
  1

  7
OpenSans
 11
512.0
 21
511.05000000000047
 31
0.0
100
AcDbText
  0
TEXT
  5
234
330
17
100
AcDbEntity
  8
S-NOTE
100
AcDbText
 10
512.0
 20
508.00000000000045
 30
0.0
 40
1.4
  1
Presenting 600 as a strength result
  7
OpenSans
 11
512.0
 21
508.00000000000045
 31
0.0
100
AcDbText
  0
TEXT
  5
235
330
17
100
AcDbEntity
  8
S-NOTE
100
AcDbText
 10
512.0
 20
504.95000000000044
 30
0.0
 40
1.4
  1
would be false.  It is a detailing,
  7
OpenSans
 11
512.0
 21
504.95000000000044
 31
0.0
100
AcDbText
  0
TEXT
  5
236
330
17
100
AcDbEntity
  8
S-NOTE
100
AcDbText
 10
512.0
 20
501.90000000000043
 30
0.0
 40
1.4
  1
durability and hardening thickness.
  7
OpenSans
 11
512.0
 21
501.90000000000043
 31
0.0
100
AcDbText
  0
LWPOLYLINE
  5
237
330
17
100
AcDbEntity
  8
S-TITLE
100
AcDbPolyline
 90
4
 70
1
 10
510.0
 20
496.8500000000004
 10
640.0
 20
496.8500000000004
 10
640.0
 20
552.0
 10
510.0
 20
552.0
  0
TEXT
  5
238
330
17
100
AcDbEntity
  8
S-TITLE
100
AcDbText
 10
510.0
 20
493.0
 30
0.0
 40
2.5
  1
BAR SCHEDULE EXTRACT - THIS SHEET
  7
OpenSans
 11
510.0
 21
493.0
 31
0.0
100
AcDbText
  0
LWPOLYLINE
  5
239
330
17
100
AcDbEntity
  8
S-TABLE
100
AcDbPolyline
 90
4
 70
1
 10
510.0
 20
485.8
 10
619.0
 20
485.8
 10
619.0
 20
490.0
 10
510.0
 20
490.0
  0
TEXT
  5
23A
330
17
100
AcDbEntity
  8
S-TABLE
100
AcDbText
 10
511.4
 20
487.1
 30
0.0
 40
1.4
  1
MARK
  7
OpenSans
 11
511.4
 21
487.1
 31
0.0
100
AcDbText
  0
TEXT
  5
23B
330
17
100
AcDbEntity
  8
S-TABLE
100
AcDbText
 10
528.4
 20
487.1
 30
0.0
 40
1.4
  1
DIA
  7
OpenSans
 11
528.4
 21
487.1
 31
0.0
100
AcDbText
  0
TEXT
  5
23C
330
17
100
AcDbEntity
  8
S-TABLE
100
AcDbText
 10
541.4
 20
487.1
 30
0.0
 40
1.4
  1
SHP
  7
OpenSans
 11
541.4
 21
487.1
 31
0.0
100
AcDbText
  0
TEXT
  5
23D
330
17
100
AcDbEntity
  8
S-TABLE
100
AcDbText
 10
553.4
 20
487.1
 30
0.0
 40
1.4
  1
SPAC
  7
OpenSans
 11
553.4
 21
487.1
 31
0.0
100
AcDbText
  0
TEXT
  5
23E
330
17
100
AcDbEntity
  8
S-TABLE
100
AcDbText
 10
568.4
 20
487.1
 30
0.0
 40
1.4
  1
No.
  7
OpenSans
 11
568.4
 21
487.1
 31
0.0
100
AcDbText
  0
TEXT
  5
23F
330
17
100
AcDbEntity
  8
S-TABLE
100
AcDbText
 10
583.4
 20
487.1
 30
0.0
 40
1.4
  1
CUT
  7
OpenSans
 11
583.4
 21
487.1
 31
0.0
100
AcDbText
  0
TEXT
  5
240
330
17
100
AcDbEntity
  8
S-TABLE
100
AcDbText
 10
600.4
 20
487.1
 30
0.0
 40
1.4
  1
kg
  7
OpenSans
 11
600.4
 21
487.1
 31
0.0
100
AcDbText
  0
TEXT
  5
241
330
17
100
AcDbEntity
  8
S-TABLE
100
AcDbText
 10
511.4
 20
482.90000000000003
 30
0.0
 40
1.4
  1
W01
  7
OpenSans
 11
511.4
 21
482.90000000000003
 31
0.0
100
AcDbText
  0
TEXT
  5
242
330
17
100
AcDbEntity
  8
S-TABLE
100
AcDbText
 10
528.4
 20
482.90000000000003
 30
0.0
 40
1.4
  1
T16
  7
OpenSans
 11
528.4
 21
482.90000000000003
 31
0.0
100
AcDbText
  0
TEXT
  5
243
330
17
100
AcDbEntity
  8
S-TABLE
100
AcDbText
 10
541.4
 20
482.90000000000003
 30
0.0
 40
1.4
  1
00
  7
OpenSans
 11
541.4
 21
482.90000000000003
 31
0.0
100
AcDbText
  0
TEXT
  5
244
330
17
100
AcDbEntity
  8
S-TABLE
100
AcDbText
 10
553.4
 20
482.90000000000003
 30
0.0
 40
1.4
  1
150
  7
OpenSans
 11
553.4
 21
482.90000000000003
 31
0.0
100
AcDbText
  0
TEXT
  5
245
330
17
100
AcDbEntity
  8
S-TABLE
100
AcDbText
 10
568.4
 20
482.90000000000003
 30
0.0
 40
1.4
  1
360
  7
OpenSans
 11
568.4
 21
482.90000000000003
 31
0.0
100
AcDbText
  0
TEXT
  5
246
330
17
100
AcDbEntity
  8
S-TABLE
100
AcDbText
 10
583.4
 20
482.90000000000003
 30
0.0
 40
1.4
  1
3875
  7
OpenSans
 11
583.4
 21
482.90000000000003
 31
0.0
100
AcDbText
  0
TEXT
  5
247
330
17
100
AcDbEntity
  8
S-TABLE
100
AcDbText
 10
600.4
 20
482.90000000000003
 30
0.0
 40
1.4
  1
2202
  7
OpenSans
 11
600.4
 21
482.90000000000003
 31
0.0
100
AcDbText
  0
LINE
  5
248
330
17
100
AcDbEntity
  8
S-TABLE
100
AcDbLine
 10
510.0
 20
481.6
 30
0.0
 11
619.0
 21
481.6
 31
0.0
  0
TEXT
  5
249
330
17
100
AcDbEntity
  8
S-TABLE
100
AcDbText
 10
511.4
 20
478.70000000000005
 30
0.0
 40
1.4
  1
W02
  7
OpenSans
 11
511.4
 21
478.70000000000005
 31
0.0
100
AcDbText
  0
TEXT
  5
24A
330
17
100
AcDbEntity
  8
S-TABLE
100
AcDbText
 10
528.4
 20
478.70000000000005
 30
0.0
 40
1.4
  1
T16
  7
OpenSans
 11
528.4
 21
478.70000000000005
 31
0.0
100
AcDbText
  0
TEXT
  5
24B
330
17
100
AcDbEntity
  8
S-TABLE
100
AcDbText
 10
541.4
 20
478.70000000000005
 30
0.0
 40
1.4
  1
00
  7
OpenSans
 11
541.4
 21
478.70000000000005
 31
0.0
100
AcDbText
  0
TEXT
  5
24C
330
17
100
AcDbEntity
  8
S-TABLE
100
AcDbText
 10
553.4
 20
478.70000000000005
 30
0.0
 40
1.4
  1
150
  7
OpenSans
 11
553.4
 21
478.70000000000005
 31
0.0
100
AcDbText
  0
TEXT
  5
24D
330
17
100
AcDbEntity
  8
S-TABLE
100
AcDbText
 10
568.4
 20
478.70000000000005
 30
0.0
 40
1.4
  1
360
  7
OpenSans
 11
568.4
 21
478.70000000000005
 31
0.0
100
AcDbText
  0
TEXT
  5
24E
330
17
100
AcDbEntity
  8
S-TABLE
100
AcDbText
 10
583.4
 20
478.70000000000005
 30
0.0
 40
1.4
  1
3875
  7
OpenSans
 11
583.4
 21
478.70000000000005
 31
0.0
100
AcDbText
  0
TEXT
  5
24F
330
17
100
AcDbEntity
  8
S-TABLE
100
AcDbText
 10
600.4
 20
478.70000000000005
 30
0.0
 40
1.4
  1
2202
  7
OpenSans
 11
600.4
 21
478.70000000000005
 31
0.0
100
AcDbText
  0
LINE
  5
250
330
17
100
AcDbEntity
  8
S-TABLE
100
AcDbLine
 10
510.0
 20
477.40000000000003
 30
0.0
 11
619.0
 21
477.40000000000003
 31
0.0
  0
TEXT
  5
251
330
17
100
AcDbEntity
  8
S-TABLE
100
AcDbText
 10
511.4
 20
474.50000000000006
 30
0.0
 40
1.4
  1
W03
  7
OpenSans
 11
511.4
 21
474.50000000000006
 31
0.0
100
AcDbText
  0
TEXT
  5
252
330
17
100
AcDbEntity
  8
S-TABLE
100
AcDbText
 10
528.4
 20
474.50000000000006
 30
0.0
 40
1.4
  1
T16
  7
OpenSans
 11
528.4
 21
474.50000000000006
 31
0.0
100
AcDbText
  0
TEXT
  5
253
330
17
100
AcDbEntity
  8
S-TABLE
100
AcDbText
 10
541.4
 20
474.50000000000006
 30
0.0
 40
1.4
  1
00
  7
OpenSans
 11
541.4
 21
474.50000000000006
 31
0.0
100
AcDbText
  0
TEXT
  5
254
330
17
100
AcDbEntity
  8
S-TABLE
100
AcDbText
 10
553.4
 20
474.50000000000006
 30
0.0
 40
1.4
  1
150
  7
OpenSans
 11
553.4
 21
474.50000000000006
 31
0.0
100
AcDbText
  0
TEXT
  5
255
330
17
100
AcDbEntity
  8
S-TABLE
100
AcDbText
 10
568.4
 20
474.50000000000006
 30
0.0
 40
1.4
  1
176
  7
OpenSans
 11
568.4
 21
474.50000000000006
 31
0.0
100
AcDbText
  0
TEXT
  5
256
330
17
100
AcDbEntity
  8
S-TABLE
100
AcDbText
 10
583.4
 20
474.50000000000006
 30
0.0
 40
1.4
  1
11350
  7
OpenSans
 11
583.4
 21
474.50000000000006
 31
0.0
100
AcDbText
  0
TEXT
  5
257
330
17
100
AcDbEntity
  8
S-TABLE
100
AcDbText
 10
600.4
 20
474.50000000000006
 30
0.0
 40
1.4
  1
3153
  7
OpenSans
 11
600.4
 21
474.50000000000006
 31
0.0
100
AcDbText
  0
LINE
  5
258
330
17
100
AcDbEntity
  8
S-TABLE
100
AcDbLine
 10
510.0
 20
473.20000000000005
 30
0.0
 11
619.0
 21
473.20000000000005
 31
0.0
  0
TEXT
  5
259
330
17
100
AcDbEntity
  8
S-TABLE
100
AcDbText
 10
511.4
 20
470.30000000000007
 30
0.0
 40
1.4
  1
W04
  7
OpenSans
 11
511.4
 21
470.30000000000007
 31
0.0
100
AcDbText
  0
TEXT
  5
25A
330
17
100
AcDbEntity
  8
S-TABLE
100
AcDbText
 10
528.4
 20
470.30000000000007
 30
0.0
 40
1.4
  1
T16
  7
OpenSans
 11
528.4
 21
470.30000000000007
 31
0.0
100
AcDbText
  0
TEXT
  5
25B
330
17
100
AcDbEntity
  8
S-TABLE
100
AcDbText
 10
541.4
 20
470.30000000000007
 30
0.0
 40
1.4
  1
21
  7
OpenSans
 11
541.4
 21
470.30000000000007
 31
0.0
100
AcDbText
  0
TEXT
  5
25C
330
17
100
AcDbEntity
  8
S-TABLE
100
AcDbText
 10
553.4
 20
470.30000000000007
 30
0.0
 40
1.4
  1
150
  7
OpenSans
 11
553.4
 21
470.30000000000007
 31
0.0
100
AcDbText
  0
TEXT
  5
25D
330
17
100
AcDbEntity
  8
S-TABLE
100
AcDbText
 10
568.4
 20
470.30000000000007
 30
0.0
 40
1.4
  1
88
  7
OpenSans
 11
568.4
 21
470.30000000000007
 31
0.0
100
AcDbText
  0
TEXT
  5
25E
330
17
100
AcDbEntity
  8
S-TABLE
100
AcDbText
 10
583.4
 20
470.30000000000007
 30
0.0
 40
1.4
  1
7380
  7
OpenSans
 11
583.4
 21
470.30000000000007
 31
0.0
100
AcDbText
  0
TEXT
  5
25F
330
17
100
AcDbEntity
  8
S-TABLE
100
AcDbText
 10
600.4
 20
470.30000000000007
 30
0.0
 40
1.4
  1
1025
  7
OpenSans
 11
600.4
 21
470.30000000000007
 31
0.0
100
AcDbText
  0
LINE
  5
260
330
17
100
AcDbEntity
  8
S-TABLE
100
AcDbLine
 10
510.0
 20
469.00000000000006
 30
0.0
 11
619.0
 21
469.00000000000006
 31
0.0
  0
TEXT
  5
261
330
17
100
AcDbEntity
  8
S-TABLE
100
AcDbText
 10
511.4
 20
466.1000000000001
 30
0.0
 40
1.4
  1
W05
  7
OpenSans
 11
511.4
 21
466.1000000000001
 31
0.0
100
AcDbText
  0
TEXT
  5
262
330
17
100
AcDbEntity
  8
S-TABLE
100
AcDbText
 10
528.4
 20
466.1000000000001
 30
0.0
 40
1.4
  1
T12
  7
OpenSans
 11
528.4
 21
466.1000000000001
 31
0.0
100
AcDbText
  0
TEXT
  5
263
330
17
100
AcDbEntity
  8
S-TABLE
100
AcDbText
 10
541.4
 20
466.1000000000001
 30
0.0
 40
1.4
  1
51
  7
OpenSans
 11
541.4
 21
466.1000000000001
 31
0.0
100
AcDbText
  0
TEXT
  5
264
330
17
100
AcDbEntity
  8
S-TABLE
100
AcDbText
 10
553.4
 20
466.1000000000001
 30
0.0
 40
1.4
  1
200 x 200
  7
OpenSans
 11
553.4
 21
466.1000000000001
 31
0.0
100
AcDbText
  0
TEXT
  5
265
330
17
100
AcDbEntity
  8
S-TABLE
100
AcDbText
 10
568.4
 20
466.1000000000001
 30
0.0
 40
1.4
  1
4320
  7
OpenSans
 11
568.4
 21
466.1000000000001
 31
0.0
100
AcDbText
  0
TEXT
  5
266
330
17
100
AcDbEntity
  8
S-TABLE
100
AcDbText
 10
583.4
 20
466.1000000000001
 30
0.0
 40
1.4
  1
1540
  7
OpenSans
 11
583.4
 21
466.1000000000001
 31
0.0
100
AcDbText
  0
TEXT
  5
267
330
17
100
AcDbEntity
  8
S-TABLE
100
AcDbText
 10
600.4
 20
466.1000000000001
 30
0.0
 40
1.4
  1
5906
  7
OpenSans
 11
600.4
 21
466.1000000000001
 31
0.0
100
AcDbText
  0
LINE
  5
268
330
17
100
AcDbEntity
  8
S-TABLE
100
AcDbLine
 10
510.0
 20
464.80000000000007
 30
0.0
 11
619.0
 21
464.80000000000007
 31
0.0
  0
TEXT
  5
269
330
17
100
AcDbEntity
  8
S-TABLE
100
AcDbText
 10
511.4
 20
461.9000000000001
 30
0.0
 40
1.4
  1
W06
  7
OpenSans
 11
511.4
 21
461.9000000000001
 31
0.0
100
AcDbText
  0
TEXT
  5
26A
330
17
100
AcDbEntity
  8
S-TABLE
100
AcDbText
 10
528.4
 20
461.9000000000001
 30
0.0
 40
1.4
  1
T20
  7
OpenSans
 11
528.4
 21
461.9000000000001
 31
0.0
100
AcDbText
  0
TEXT
  5
26B
330
17
100
AcDbEntity
  8
S-TABLE
100
AcDbText
 10
541.4
 20
461.9000000000001
 30
0.0
 40
1.4
  1
00
  7
OpenSans
 11
541.4
 21
461.9000000000001
 31
0.0
100
AcDbText
  0
TEXT
  5
26C
330
17
100
AcDbEntity
  8
S-TABLE
100
AcDbText
 10
553.4
 20
461.9000000000001
 30
0.0
 40
1.4
  1
150
  7
OpenSans
 11
553.4
 21
461.9000000000001
 31
0.0
100
AcDbText
  0
TEXT
  5
26D
330
17
100
AcDbEntity
  8
S-TABLE
100
AcDbText
 10
568.4
 20
461.9000000000001
 30
0.0
 40
1.4
  1
720
  7
OpenSans
 11
568.4
 21
461.9000000000001
 31
0.0
100
AcDbText
  0
TEXT
  5
26E
330
17
100
AcDbEntity
  8
S-TABLE
100
AcDbText
 10
583.4
 20
461.9000000000001
 30
0.0
 40
1.4
  1
2307
  7
OpenSans
 11
583.4
 21
461.9000000000001
 31
0.0
100
AcDbText
  0
TEXT
  5
26F
330
17
100
AcDbEntity
  8
S-TABLE
100
AcDbText
 10
600.4
 20
461.9000000000001
 30
0.0
 40
1.4
  1
4096
  7
OpenSans
 11
600.4
 21
461.9000000000001
 31
0.0
100
AcDbText
  0
LINE
  5
270
330
17
100
AcDbEntity
  8
S-TABLE
100
AcDbLine
 10
510.0
 20
460.6000000000001
 30
0.0
 11
619.0
 21
460.6000000000001
 31
0.0
  0
LINE
  5
271
330
17
100
AcDbEntity
  8
S-TABLE
100
AcDbLine
 10
510.0
 20
490.0
 30
0.0
 11
619.0
 21
490.0
 31
0.0
  0
LINE
  5
272
330
17
100
AcDbEntity
  8
S-TABLE
100
AcDbLine
 10
510.0
 20
490.0
 30
0.0
 11
510.0
 21
460.6000000000001
 31
0.0
  0
LINE
  5
273
330
17
100
AcDbEntity
  8
S-TABLE
100
AcDbLine
 10
527.0
 20
490.0
 30
0.0
 11
527.0
 21
460.6000000000001
 31
0.0
  0
LINE
  5
274
330
17
100
AcDbEntity
  8
S-TABLE
100
AcDbLine
 10
540.0
 20
490.0
 30
0.0
 11
540.0
 21
460.6000000000001
 31
0.0
  0
LINE
  5
275
330
17
100
AcDbEntity
  8
S-TABLE
100
AcDbLine
 10
552.0
 20
490.0
 30
0.0
 11
552.0
 21
460.6000000000001
 31
0.0
  0
LINE
  5
276
330
17
100
AcDbEntity
  8
S-TABLE
100
AcDbLine
 10
567.0
 20
490.0
 30
0.0
 11
567.0
 21
460.6000000000001
 31
0.0
  0
LINE
  5
277
330
17
100
AcDbEntity
  8
S-TABLE
100
AcDbLine
 10
582.0
 20
490.0
 30
0.0
 11
582.0
 21
460.6000000000001
 31
0.0
  0
LINE
  5
278
330
17
100
AcDbEntity
  8
S-TABLE
100
AcDbLine
 10
599.0
 20
490.0
 30
0.0
 11
599.0
 21
460.6000000000001
 31
0.0
  0
LINE
  5
279
330
17
100
AcDbEntity
  8
S-TABLE
100
AcDbLine
 10
619.0
 20
490.0
 30
0.0
 11
619.0
 21
460.6000000000001
 31
0.0
  0
TEXT
  5
27A
330
17
100
AcDbEntity
  8
S-TABLE
100
AcDbText
 10
510.0
 20
456.2000000000001
 30
0.0
 40
1.4
  1
SHEET SUB-TOTAL  18,584 kg     FULL SCHEDULE: R-004 and Structural CAD/Schedules/BBS_MASTER.md
  7
OpenSans
 11
510.0
 21
456.2000000000001
 31
0.0
100
AcDbText
  0
TEXT
  5
27B
330
17
100
AcDbEntity
  8
S-TITLE
100
AcDbText
 10
650.0
 20
548.6
 30
0.0
 40
2.5
  1
MATERIALS, COVER AND ANCHORAGE
  7
OpenSans
 11
650.0
 21
548.6
 31
0.0
100
AcDbText
  0
TEXT
  5
27C
330
17
100
AcDbEntity
  8
S-NOTE
100
AcDbText
 10
650.0
 20
544.6
 30
0.0
 40
1.4
  1
CONCRETE          M35 to IS 456 Table 5.  w/c <= 0.45, cement >= 340 kg/m3.
  7
OpenSans
 11
650.0
 21
544.6
 31
0.0
100
AcDbText
  0
TEXT
  5
27D
330
17
100
AcDbEntity
  8
S-NOTE
100
AcDbText
 10
650.0
 20
541.6
 30
0.0
 40
1.4
  1
                  Integral crystalline waterproofing admixture.
  7
OpenSans
 11
650.0
 21
541.6
 31
0.0
100
AcDbText
  0
TEXT
  5
27E
330
17
100
AcDbEntity
  8
S-NOTE
100
AcDbText
 10
650.0
 20
538.6
 30
0.0
 40
1.4
  1
                  Blinding M15, 100 thk.
  7
OpenSans
 11
650.0
 21
538.6
 31
0.0
100
AcDbText
  0
TEXT
  5
27F
330
17
100
AcDbEntity
  8
S-NOTE
100
AcDbText
 10
650.0
 20
535.6
 30
0.0
 40
1.4
  1
REINFORCEMENT     Fe500D to IS 1786:2008.
  7
OpenSans
 11
650.0
 21
535.6
 31
0.0
100
AcDbText
  0
TEXT
  5
280
330
17
100
AcDbEntity
  8
S-NOTE
100
AcDbText
 10
650.0
 20
532.6
 30
0.0
 40
1.4
  1
Ec = 5000 sqrt(fck) = 29 580 N/mm2   (IS 456 Cl. 6.2.3.1)
  7
OpenSans
 11
650.0
 21
532.6
 31
0.0
100
AcDbText
  0
TEXT
  5
281
330
17
100
AcDbEntity
  8
S-NOTE
100
AcDbText
 10
650.0
 20
529.6
 30
0.0
 40
1.4
  1
gamma_m           1.5 concrete / 1.15 steel  (IS 456 Cl. 36.4.2)
  7
OpenSans
 11
650.0
 21
529.6
 31
0.0
100
AcDbText
  0
TEXT
  5
282
330
17
100
AcDbEntity
  8
S-NOTE
100
AcDbText
 10
650.0
 20
526.6
 30
0.0
 40
1.4
  1

  7
OpenSans
 11
650.0
 21
526.6
 31
0.0
100
AcDbText
  0
TEXT
  5
283
330
17
100
AcDbEntity
  8
S-NOTE
100
AcDbText
 10
650.0
 20
523.6
 30
0.0
 40
1.4
  1
BLAST CASE ONLY   IS 4991 Cl. 10.3.1:  fck,dyn 43.75  ·  fy,dyn 625
  7
OpenSans
 11
650.0
 21
523.6
 31
0.0
100
AcDbText
  0
TEXT
  5
284
330
17
100
AcDbEntity
  8
S-NOTE
100
AcDbText
 10
650.0
 20
520.6
 30
0.0
 40
1.4
  1
*** NO DYNAMIC INCREASE ON SHEAR - IS 4991 Cl. 10.3.1.1 ***
  7
OpenSans
 11
650.0
 21
520.6
 31
0.0
100
AcDbText
  0
TEXT
  5
285
330
17
100
AcDbEntity
  8
S-NOTE
100
AcDbText
 10
650.0
 20
517.6
 30
0.0
 40
1.4
  1
tau_c and tau_c,max are read at the STATIC M35 value in every check.
  7
OpenSans
 11
650.0
 21
517.6
 31
0.0
100
AcDbText
  0
TEXT
  5
286
330
17
100
AcDbEntity
  8
S-NOTE
100
AcDbText
 10
650.0
 20
514.6
 30
0.0
 40
1.4
  1

  7
OpenSans
 11
650.0
 21
514.6
 31
0.0
100
AcDbText
  0
TEXT
  5
287
330
17
100
AcDbEntity
  8
S-NOTE
100
AcDbText
 10
650.0
 20
511.6
 30
0.0
 40
1.4
  1
COVER   75 cast against blinding · 50 formed earth face
  7
OpenSans
 11
650.0
 21
511.6
 31
0.0
100
AcDbText
  0
TEXT
  5
288
330
17
100
AcDbEntity
  8
S-NOTE
100
AcDbText
 10
650.0
 20
508.6
 30
0.0
 40
1.4
  1
        40 internal · 30 stair-shaft faces
  7
OpenSans
 11
650.0
 21
508.6
 31
0.0
100
AcDbText
  0
TEXT
  5
289
330
17
100
AcDbEntity
  8
S-NOTE
100
AcDbText
 10
650.0
 20
505.6
 30
0.0
 40
1.4
  1
        The 5 mm reduction IS 456 Table 16 permits for M35 is NOT taken.
  7
OpenSans
 11
650.0
 21
505.6
 31
0.0
100
AcDbText
  0
TEXT
  5
28A
330
17
100
AcDbEntity
  8
S-NOTE
100
AcDbText
 10
650.0
 20
502.6
 30
0.0
 40
1.4
  1

  7
OpenSans
 11
650.0
 21
502.6
 31
0.0
100
AcDbText
  0
TEXT
  5
28B
330
17
100
AcDbEntity
  8
S-NOTE
100
AcDbText
 10
650.0
 20
499.6
 30
0.0
 40
1.4
  1
Ld TENSION 40 phi  ·  Ld COMPRESSION 32 phi  ·  LAP 50 phi STAGGERED
  7
OpenSans
 11
650.0
 21
499.6
 31
0.0
100
AcDbText
  0
TEXT
  5
28C
330
17
100
AcDbEntity
  8
S-NOTE
100
AcDbText
 10
650.0
 20
496.6
 30
0.0
 40
1.4
  1
T8 320/400 · T10 400/500 · T12 480/600 · T16 640/800
  7
OpenSans
 11
650.0
 21
496.6
 31
0.0
100
AcDbText
  0
TEXT
  5
28D
330
17
100
AcDbEntity
  8
S-NOTE
100
AcDbText
 10
650.0
 20
493.6
 30
0.0
 40
1.4
  1
T20 800/1000 · T25 1000/1250        (Ld / lap, mm)
  7
OpenSans
 11
650.0
 21
493.6
 31
0.0
100
AcDbText
  0
TEXT
  5
28E
330
17
100
AcDbEntity
  8
S-NOTE
100
AcDbText
 10
650.0
 20
490.6
 30
0.0
 40
1.4
  1
The IS 4991 Cl. 10.3.1.1 +25 % blast bond allowance is NOT taken.
  7
OpenSans
 11
650.0
 21
490.6
 31
0.0
100
AcDbText
  0
TEXT
  5
28F
330
17
100
AcDbEntity
  8
S-NOTE
100
AcDbText
 10
650.0
 20
487.6
 30
0.0
 40
1.4
  1

  7
OpenSans
 11
650.0
 21
487.6
 31
0.0
100
AcDbText
  0
TEXT
  5
290
330
17
100
AcDbEntity
  8
S-NOTE
100
AcDbText
 10
650.0
 20
484.6
 30
0.0
 40
1.4
  1
*** MAXIMUM BAR SPACING 150 BOTH CURTAINS - EMP REQUIREMENT ***
  7
OpenSans
 11
650.0
 21
484.6
 31
0.0
100
AcDbText
  0
TEXT
  5
291
330
17
100
AcDbEntity
  8
S-NOTE
100
AcDbText
 10
650.0
 20
481.6
 30
0.0
 40
1.4
  1
    stricter than IS 456 Cl. 26.3.3 and than every code minimum.
  7
OpenSans
 11
650.0
 21
481.6
 31
0.0
100
AcDbText
  0
LWPOLYLINE
  5
292
330
17
100
AcDbEntity
  8
S-TITLE
100
AcDbPolyline
 90
4
 70
1
 10
648.0
 20
476.6
 10
831.0
 20
476.6
 10
831.0
 20
552.0
 10
648.0
 20
552.0
  0
TEXT
  5
293
330
17
100
AcDbEntity
  8
S-TITLE
100
AcDbText
 10
32.0
 20
292.6
 30
0.0
 40
2.5
  1
PERIMETER WALL DETAILING
  7
OpenSans
 11
32.0
 21
292.6
 31
0.0
100
AcDbText
  0
TEXT
  5
294
330
17
100
AcDbEntity
  8
S-NOTE
100
AcDbText
 10
32.0
 20
288.6
 30
0.0
 40
1.4
  1
1  VERTICAL BARS W01 / W02 run continuously from the mat starters F07 to the
  7
OpenSans
 11
32.0
 21
288.6
 31
0.0
100
AcDbText
  0
TEXT
  5
295
330
17
100
AcDbEntity
  8
S-NOTE
100
AcDbText
 10
32.0
 20
285.55
 30
0.0
 40
1.4
  1
   pressure slab, lapped 800 (50 phi) STAGGERED above a 150 kicker, and are
  7
OpenSans
 11
32.0
 21
285.55
 31
0.0
100
AcDbText
  0
TEXT
  5
296
330
17
100
AcDbEntity
  8
S-NOTE
100
AcDbText
 10
32.0
 20
282.5
 30
0.0
 40
1.4
  1
   carried 825 into the 900 slab - more than the 640 Ld required.
  7
OpenSans
 11
32.0
 21
282.5
 31
0.0
100
AcDbText
  0
TEXT
  5
297
330
17
100
AcDbEntity
  8
S-NOTE
100
AcDbText
 10
32.0
 20
279.45
 30
0.0
 40
1.4
  1
2  HORIZONTAL BARS lie OUTSIDE the verticals on the earth face.  W03 (long walls
  7
OpenSans
 11
32.0
 21
279.45
 31
0.0
100
AcDbText
  0
TEXT
  5
298
330
17
100
AcDbEntity
  8
S-NOTE
100
AcDbText
 10
32.0
 20
276.4
 30
0.0
 40
1.4
  1
   W1 / W2) are full-length bars in 2 pieces of 11 350 with staggered 800 laps;
  7
OpenSans
 11
32.0
 21
276.4
 31
0.0
100
AcDbText
  0
TEXT
  5
299
330
17
100
AcDbEntity
  8
S-NOTE
100
AcDbText
 10
32.0
 20
273.34999999999997
 30
0.0
 40
1.4
  1
   W04 (end walls W3 / W4) are U-bars whose 640 legs turn into W1 and W2 at
  7
OpenSans
 11
32.0
 21
273.34999999999997
 31
0.0
100
AcDbText
  0
TEXT
  5
29A
330
17
100
AcDbEntity
  8
S-NOTE
100
AcDbText
 10
32.0
 20
270.29999999999995
 30
0.0
 40
1.4
  1
   every corner, so the horizontal steel is continuous around the box.
  7
OpenSans
 11
32.0
 21
270.29999999999995
 31
0.0
100
AcDbText
  0
TEXT
  5
29B
330
17
100
AcDbEntity
  8
S-NOTE
100
AcDbText
 10
32.0
 20
267.24999999999994
 30
0.0
 40
1.4
  1
3  T12 CLOSED LINKS @ 200 BOTH WAYS tie the two curtains.  They are a SHEAR
  7
OpenSans
 11
32.0
 21
267.24999999999994
 31
0.0
100
AcDbText
  0
TEXT
  5
29C
330
17
100
AcDbEntity
  8
S-NOTE
100
AcDbText
 10
32.0
 20
264.19999999999993
 30
0.0
 40
1.4
  1
   requirement (Vus 220.8 kN/m), not a spacer.
  7
OpenSans
 11
32.0
 21
264.19999999999993
 31
0.0
100
AcDbText
  0
TEXT
  5
29D
330
17
100
AcDbEntity
  8
S-NOTE
100
AcDbText
 10
32.0
 20
261.1499999999999
 30
0.0
 40
1.4
  1
4  500 x 500 HAUNCH WITH T20 @ 150 DIAGONALS at the wall/mat and wall/roof
  7
OpenSans
 11
32.0
 21
261.1499999999999
 31
0.0
100
AcDbText
  0
TEXT
  5
29E
330
17
100
AcDbEntity
  8
S-NOTE
100
AcDbText
 10
32.0
 20
258.0999999999999
 30
0.0
 40
1.4
  1
   junctions - R-103 D2 and R-304.
  7
OpenSans
 11
32.0
 21
258.0999999999999
 31
0.0
100
AcDbText
  0
TEXT
  5
29F
330
17
100
AcDbEntity
  8
S-NOTE
100
AcDbText
 10
32.0
 20
255.0499999999999
 30
0.0
 40
1.4
  1
5  NO MOVEMENT JOINT.  Construction joints only, with full bar continuity, two
  7
OpenSans
 11
32.0
 21
255.0499999999999
 31
0.0
100
AcDbText
  0
TEXT
  5
2A0
330
17
100
AcDbEntity
  8
S-NOTE
100
AcDbText
 10
32.0
 20
251.9999999999999
 30
0.0
 40
1.4
  1
   waterstops and a welded EMP strap - R-804.
  7
OpenSans
 11
32.0
 21
251.9999999999999
 31
0.0
100
AcDbText
  0
LWPOLYLINE
  5
2A1
330
17
100
AcDbEntity
  8
S-TITLE
100
AcDbPolyline
 90
4
 70
1
 10
30.0
 20
246.94999999999987
 10
500.0
 20
246.94999999999987
 10
500.0
 20
296.0
 10
30.0
 20
296.0
  0
LWPOLYLINE
  5
2A2
330
17
100
AcDbEntity
  8
S-TITLE
100
AcDbPolyline
 90
4
 70
1
 10
651.0
 20
10.0
 10
831.0
 20
10.0
 10
831.0
 20
110.0
 10
651.0
 20
110.0
  0
LINE
  5
2A3
330
17
100
AcDbEntity
  8
S-TITLE
100
AcDbLine
 10
651.0
 20
30.0
 30
0.0
 11
831.0
 21
30.0
 31
0.0
  0
LINE
  5
2A4
330
17
100
AcDbEntity
  8
S-TITLE
100
AcDbLine
 10
651.0
 20
42.0
 30
0.0
 11
831.0
 21
42.0
 31
0.0
  0
LINE
  5
2A5
330
17
100
AcDbEntity
  8
S-TITLE
100
AcDbLine
 10
651.0
 20
54.0
 30
0.0
 11
831.0
 21
54.0
 31
0.0
  0
LINE
  5
2A6
330
17
100
AcDbEntity
  8
S-TITLE
100
AcDbLine
 10
651.0
 20
66.0
 30
0.0
 11
831.0
 21
66.0
 31
0.0
  0
LINE
  5
2A7
330
17
100
AcDbEntity
  8
S-TITLE
100
AcDbLine
 10
651.0
 20
88.0
 30
0.0
 11
831.0
 21
88.0
 31
0.0
  0
LINE
  5
2A8
330
17
100
AcDbEntity
  8
S-TITLE
100
AcDbLine
 10
763.0
 20
10.0
 30
0.0
 11
763.0
 21
30.0
 31
0.0
  0
LINE
  5
2A9
330
17
100
AcDbEntity
  8
S-TITLE
100
AcDbLine
 10
797.0
 20
10.0
 30
0.0
 11
797.0
 21
30.0
 31
0.0
  0
TEXT
  5
2AA
330
17
100
AcDbEntity
  8
S-TITLE
100
AcDbText
 10
653.0
 20
24.6
 30
0.0
 40
1.4
  1
DRAWING No.
  7
OpenSans
 11
653.0
 21
24.6
 31
0.0
100
AcDbText
  0
TEXT
  5
2AB
330
17
100
AcDbEntity
  8
S-TITLE
100
AcDbText
 10
673.0
 20
14.2
 30
0.0
 40
3.5
  1
R-201
  7
OpenSans
 11
673.0
 21
14.2
 31
0.0
100
AcDbText
  0
TEXT
  5
2AC
330
17
100
AcDbEntity
  8
S-TITLE
100
AcDbText
 10
765.0
 20
24.6
 30
0.0
 40
1.4
  1
REV
  7
OpenSans
 11
765.0
 21
24.6
 31
0.0
100
AcDbText
  0
TEXT
  5
2AD
330
17
100
AcDbEntity
  8
S-TITLE
100
AcDbText
 10
769.0
 20
14.2
 30
0.0
 40
3.5
  1
SC1
  7
OpenSans
 11
769.0
 21
14.2
 31
0.0
100
AcDbText
  0
TEXT
  5
2AE
330
17
100
AcDbEntity
  8
S-TITLE
100
AcDbText
 10
799.0
 20
24.6
 30
0.0
 40
1.4
  1
SHEET
  7
OpenSans
 11
799.0
 21
24.6
 31
0.0
100
AcDbText
  0
TEXT
  5
2AF
330
17
100
AcDbEntity
  8
S-TITLE
100
AcDbText
 10
799.0
 20
15.0
 30
0.0
 40
1.6
  1
8 OF 30
  7
OpenSans
 11
799.0
 21
15.0
 31
0.0
100
AcDbText
  0
LINE
  5
2B0
330
17
100
AcDbEntity
  8
S-TITLE
100
AcDbLine
 10
747.0
 20
30.0
 30
0.0
 11
747.0
 21
42.0
 31
0.0
  0
TEXT
  5
2B1
330
17
100
AcDbEntity
  8
S-TITLE
100
AcDbText
 10
653.0
 20
34.4
 30
0.0
 40
1.6
  1
SCALE   1:20
  7
OpenSans
 11
653.0
 21
34.4
 31
0.0
100
AcDbText
  0
TEXT
  5
2B2
330
17
100
AcDbEntity
  8
S-TITLE
100
AcDbText
 10
749.0
 20
34.4
 30
0.0
 40
1.6
  1
DATE   04.09.2026
  7
OpenSans
 11
749.0
 21
34.4
 31
0.0
100
AcDbText
  0
TEXT
  5
2B3
330
17
100
AcDbEntity
  8
S-TITLE
100
AcDbText
 10
653.0
 20
46.4
 30
0.0
 40
1.4
  1
DESIGNED  [PLACEHOLDER]
  7
OpenSans
 11
653.0
 21
46.4
 31
0.0
100
AcDbText
  0
TEXT
  5
2B4
330
17
100
AcDbEntity
  8
S-TITLE
100
AcDbText
 10
713.0
 20
46.4
 30
0.0
 40
1.4
  1
CHECKED  [PLACEHOLDER]
  7
OpenSans
 11
713.0
 21
46.4
 31
0.0
100
AcDbText
  0
TEXT
  5
2B5
330
17
100
AcDbEntity
  8
S-TITLE
100
AcDbText
 10
773.0
 20
46.4
 30
0.0
 40
1.4
  1
APPROVED  [PLACEHOLDER]
  7
OpenSans
 11
773.0
 21
46.4
 31
0.0
100
AcDbText
  0
TEXT
  5
2B6
330
17
100
AcDbEntity
  8
S-TITLE
100
AcDbText
 10
653.0
 20
58.4
 30
0.0
 40
1.4
  1
STATUS
  7
OpenSans
 11
653.0
 21
58.4
 31
0.0
100
AcDbText
  0
TEXT
  5
2B7
330
17
100
AcDbEntity
  8
S-BLAST
100
AcDbText
 10
673.0
 20
58.0
 30
0.0
 40
1.6
  1
FOR REVIEW - NOT FOR CONSTRUCTION
  7
OpenSans
 11
673.0
 21
58.0
 31
0.0
100
AcDbText
  0
TEXT
  5
2B8
330
17
100
AcDbEntity
  8
S-TITLE
100
AcDbText
 10
653.0
 20
83.4
 30
0.0
 40
1.4
  1
DRAWING TITLE
  7
OpenSans
 11
653.0
 21
83.4
 31
0.0
100
AcDbText
  0
TEXT
  5
2B9
330
17
100
AcDbEntity
  8
S-TITLE
100
AcDbText
 10
653.0
 20
75.4
 30
0.0
 40
2.4
  1
EXTERNAL WALL REINFORCEMENT
  7
OpenSans
 11
653.0
 21
75.4
 31
0.0
100
AcDbText
  0
TEXT
  5
2BA
330
17
100
AcDbEntity
  8
S-TITLE
100
AcDbText
 10
653.0
 20
68.8
 30
0.0
 40
1.4
  1
PERIMETER WALLS W1-W4, 600 THK · T16 @ 150 EF EW · T12 CLOSED LINKS @ 200
  7
OpenSans
 11
653.0
 21
68.8
 31
0.0
100
AcDbText
  0
TEXT
  5
2BB
330
17
100
AcDbEntity
  8
S-TITLE
100
AcDbText
 10
653.0
 20
105.2
 30
0.0
 40
1.4
  1
PROJECT
  7
OpenSans
 11
653.0
 21
105.2
 31
0.0
100
AcDbText
  0
TEXT
  5
2BC
330
17
100
AcDbEntity
  8
S-TITLE
100
AcDbText
 10
653.0
 20
99.6
 30
0.0
 40
1.6
  1
UNDERGROUND CBRN-HARDENED BLAST-RESISTANT
  7
OpenSans
 11
653.0
 21
99.6
 31
0.0
100
AcDbText
  0
TEXT
  5
2BD
330
17
100
AcDbEntity
  8
S-TITLE
100
AcDbText
 10
653.0
 20
95.0
 30
0.0
 40
1.6
  1
PROTECTIVE STRUCTURE  -  PUNE, MAHARASHTRA
  7
OpenSans
 11
653.0
 21
95.0
 31
0.0
100
AcDbText
  0
TEXT
  5
2BE
330
17
100
AcDbEntity
  8
S-TITLE
100
AcDbText
 10
653.0
 20
90.0
 30
0.0
 40
1.4
  1
STRUCTURAL PHASE 2 REV A + M1   ·   SENTRY POST NOT IN THIS PACKAGE
  7
OpenSans
 11
653.0
 21
90.0
 31
0.0
100
AcDbText
  0
ENDSEC
  0
SECTION
  2
OBJECTS
  0
DICTIONARY
  5
A
330
0
100
AcDbDictionary
281
1
  3
ACAD_COLOR
350
B
  3
ACAD_GROUP
350
C
  3
ACAD_LAYOUT
350
D
  3
ACAD_MATERIAL
350
E
  3
ACAD_MLEADERSTYLE
350
F
  3
ACAD_MLINESTYLE
350
10
  3
ACAD_PLOTSETTINGS
350
11
  3
ACAD_PLOTSTYLENAME
350
12
  3
ACAD_SCALELIST
350
14
  3
ACAD_TABLESTYLE
350
15
  3
ACAD_VISUALSTYLE
350
16
  3
EZDXF_META
350
2D
  0
DICTIONARY
  5
B
330
A
100
AcDbDictionary
281
1
  0
DICTIONARY
  5
C
330
A
100
AcDbDictionary
281
1
  0
DICTIONARY
  5
D
330
A
100
AcDbDictionary
281
1
  3
Model
350
1A
  3
Layout1
350
1E
  0
DICTIONARY
  5
E
330
A
100
AcDbDictionary
281
1
  3
ByBlock
350
1F
  3
ByLayer
350
20
  3
Global
350
21
  0
DICTIONARY
  5
F
330
A
100
AcDbDictionary
281
1
  3
Standard
350
2C
  0
DICTIONARY
  5
10
330
A
100
AcDbDictionary
281
1
  3
Standard
350
22
  0
DICTIONARY
  5
11
330
A
100
AcDbDictionary
281
1
  0
ACDBDICTIONARYWDFLT
  5
12
330
A
100
AcDbDictionary
281
1
  3
Normal
350
13
100
AcDbDictionaryWithDefault
340
13
  0
ACDBPLACEHOLDER
  5
13
330
12
  0
DICTIONARY
  5
14
330
A
100
AcDbDictionary
281
1
  0
DICTIONARY
  5
15
330
A
100
AcDbDictionary
281
1
  0
DICTIONARY
  5
16
330
A
100
AcDbDictionary
281
1
  3
2dWireframe
350
5A
  3
Basic
350
5B
  3
Brighten
350
5C
  3
ColorChange
350
5D
  3
Conceptual
350
5E
  3
Dim
350
5F
  3
EdgeColorOff
350
60
  3
Facepattern
350
61
  3
Flat
350
62
  3
FlatWithEdges
350
63
  3
Gouraud
350
64
  3
GouraudWithEdges
350
65
  3
Hidden
350
66
  3
JitterOff
350
67
  3
Linepattern
350
68
  3
Modeling
350
69
  3
OverhangOff
350
6A
  3
Realistic
350
6B
  3
Shaded
350
6C
  3
Shaded with edges
350
6D
  3
Shades of Gray
350
6E
  3
Sketchy
350
6F
  3
Thicken
350
70
  3
Wireframe
350
71
  3
X-Ray
350
72
  0
LAYOUT
  5
1A
330
D
100
AcDbPlotSettings
  1

  4
A3
  6

 40
7.5
 41
20.0
 42
7.5
 43
20.0
 44
420.0
 45
297.0
 46
0.0
 47
0.0
 48
0.0
 49
0.0
140
0.0
141
0.0
142
1.0
143
1.0
 70
1024
 72
1
 73
0
 74
5
  7

 75
16
 76
0
 77
2
 78
300
147
1.0
148
0.0
149
0.0
100
AcDbLayout
  1
Model
 70
1
 71
0
 10
0.0
 20
0.0
 11
420.0
 21
297.0
 12
0.0
 22
0.0
 32
0.0
 14
1e+20
 24
1e+20
 34
1e+20
 15
-1e+20
 25
-1e+20
 35
-1e+20
146
0.0
 13
0.0
 23
0.0
 33
0.0
 16
1.0
 26
0.0
 36
0.0
 17
0.0
 27
1.0
 37
0.0
 76
1
330
17
  0
LAYOUT
  5
1E
330
D
100
AcDbPlotSettings
  1

  4
A3
  6

 40
7.5
 41
20.0
 42
7.5
 43
20.0
 44
420.0
 45
297.0
 46
0.0
 47
0.0
 48
0.0
 49
0.0
140
0.0
141
0.0
142
1.0
143
1.0
 70
0
 72
1
 73
0
 74
5
  7

 75
16
 76
0
 77
2
 78
300
147
1.0
148
0.0
149
0.0
100
AcDbLayout
  1
Layout1
 70
1
 71
1
 10
0.0
 20
0.0
 11
420.0
 21
297.0
 12
0.0
 22
0.0
 32
0.0
 14
1e+20
 24
1e+20
 34
1e+20
 15
-1e+20
 25
-1e+20
 35
-1e+20
146
0.0
 13
0.0
 23
0.0
 33
0.0
 16
1.0
 26
0.0
 36
0.0
 17
0.0
 27
1.0
 37
0.0
 76
1
330
1B
  0
MATERIAL
  5
1F
102
{ACAD_REACTORS
330
E
102
}
330
E
100
AcDbMaterial
  1
ByBlock
  2

 70
0
 40
1.0
 71
1
 41
1.0
 91
-1023410177
 42
1.0
 72
1
  3

 73
1
 74
1
 75
1
 44
0.5
 73
0
 45
1.0
 46
1.0
 77
1
  4

 78
1
 79
1
170
1
 48
1.0
171
1
  6

172
1
173
1
174
1
140
1.0
141
1.0
175
1
  7

176
1
177
1
178
1
143
1.0
179
1
  8

270
1
271
1
272
1
145
1.0
146
1.0
273
1
  9

274
1
275
1
276
1
 42
1.0
 72
1
  3

 73
1
 74
1
 75
1
 94
63
  0
MATERIAL
  5
20
102
{ACAD_REACTORS
330
E
102
}
330
E
100
AcDbMaterial
  1
ByLayer
  2

 70
0
 40
1.0
 71
1
 41
1.0
 91
-1023410177
 42
1.0
 72
1
  3

 73
1
 74
1
 75
1
 44
0.5
 73
0
 45
1.0
 46
1.0
 77
1
  4

 78
1
 79
1
170
1
 48
1.0
171
1
  6

172
1
173
1
174
1
140
1.0
141
1.0
175
1
  7

176
1
177
1
178
1
143
1.0
179
1
  8

270
1
271
1
272
1
145
1.0
146
1.0
273
1
  9

274
1
275
1
276
1
 42
1.0
 72
1
  3

 73
1
 74
1
 75
1
 94
63
  0
MATERIAL
  5
21
102
{ACAD_REACTORS
330
E
102
}
330
E
100
AcDbMaterial
  1
Global
  2

 70
0
 40
1.0
 71
1
 41
1.0
 91
-1023410177
 42
1.0
 72
1
  3

 73
1
 74
1
 75
1
 44
0.5
 73
0
 45
1.0
 46
1.0
 77
1
  4

 78
1
 79
1
170
1
 48
1.0
171
1
  6

172
1
173
1
174
1
140
1.0
141
1.0
175
1
  7

176
1
177
1
178
1
143
1.0
179
1
  8

270
1
271
1
272
1
145
1.0
146
1.0
273
1
  9

274
1
275
1
276
1
 42
1.0
 72
1
  3

 73
1
 74
1
 75
1
 94
63
  0
MLINESTYLE
  5
22
102
{ACAD_REACTORS
330
10
102
}
330
10
100
AcDbMlineStyle
  2
Standard
 70
0
  3

 62
256
 51
90.0
 52
90.0
 71
2
 49
0.5
 62
256
  6
BYLAYER
 49
-0.5
 62
256
  6
BYLAYER
  0
MLEADERSTYLE
  5
2C
102
{ACAD_REACTORS
330
F
102
}
330
F
100
AcDbMLeaderStyle
179
2
170
2
171
1
172
0
 90
2
 40
0.0
 41
0.0
173
1
 91
-1056964608
 92
-2
290
1
 42
2.0
291
1
 43
8.0
  3
Standard
 44
4.0
300

342
29
174
1
175
1
176
0
178
1
 93
-1056964608
 45
4.0
292
0
297
0
 46
4.0
 94
-1056964608
 47
1.0
 49
1.0
140
1.0
294
1
141
0.0
177
0
142
1.0
295
0
296
0
143
3.75
271
0
272
9
273
9
  0
DICTIONARY
  5
2D
330
A
100
AcDbDictionary
280
1
281
1
  3
CREATED_BY_EZDXF
350
2E
  3
WRITTEN_BY_EZDXF
350
2C1
  0
DICTIONARYVAR
  5
2E
330
2D
100
DictionaryVariables
280
0
  1
1.4.4 @ 2026-09-05T02:21:05.114006+00:00
  0
VISUALSTYLE
  5
5A
102
{ACAD_REACTORS
330
16
102
}
330
16
100
AcDbVisualStyle
  2
2dWireframe
 70
4
 90
0
 40
0.6
 62
7
290
0
291
0
  0
VISUALSTYLE
  5
5B
102
{ACAD_REACTORS
330
16
102
}
330
16
100
AcDbVisualStyle
  2
Basic
 70
7
 90
1
 40
0.6
 62
7
290
0
291
1
  0
VISUALSTYLE
  5
5C
102
{ACAD_REACTORS
330
16
102
}
330
16
100
AcDbVisualStyle
  2
Brighten
 70
12
 90
2
 40
0.6
 62
7
290
0
291
1
  0
VISUALSTYLE
  5
5D
102
{ACAD_REACTORS
330
16
102
}
330
16
100
AcDbVisualStyle
  2
ColorChange
 70
16
 90
2
 40
0.6
 62
8
290
0
291
1
  0
VISUALSTYLE
  5
5E
102
{ACAD_REACTORS
330
16
102
}
330
16
100
AcDbVisualStyle
  2
Conceptual
 70
9
 90
3
 40
0.6
 62
7
290
0
291
0
  0
VISUALSTYLE
  5
5F
102
{ACAD_REACTORS
330
16
102
}
330
16
100
AcDbVisualStyle
  2
Dim
 70
11
 90
2
 40
0.6
 62
7
290
0
291
1
  0
VISUALSTYLE
  5
60
102
{ACAD_REACTORS
330
16
102
}
330
16
100
AcDbVisualStyle
  2
EdgeColorOff
 70
22
 90
2
 40
0.6
 62
7
290
0
291
1
  0
VISUALSTYLE
  5
61
102
{ACAD_REACTORS
330
16
102
}
330
16
100
AcDbVisualStyle
  2
Facepattern
 70
15
 90
2
 40
0.6
 62
7
290
0
291
1
  0
VISUALSTYLE
  5
62
102
{ACAD_REACTORS
330
16
102
}
330
16
100
AcDbVisualStyle
  2
Flat
 70
0
 90
2
 40
0.6
 62
7
290
0
291
1
  0
VISUALSTYLE
  5
63
102
{ACAD_REACTORS
330
16
102
}
330
16
100
AcDbVisualStyle
  2
FlatWithEdges
 70
1
 90
2
 40
0.6
 62
7
290
0
291
1
  0
VISUALSTYLE
  5
64
102
{ACAD_REACTORS
330
16
102
}
330
16
100
AcDbVisualStyle
  2
Gouraud
 70
2
 90
2
 40
0.6
 62
7
290
0
291
1
  0
VISUALSTYLE
  5
65
102
{ACAD_REACTORS
330
16
102
}
330
16
100
AcDbVisualStyle
  2
GouraudWithEdges
 70
3
 90
2
 40
0.6
 62
7
290
0
291
1
  0
VISUALSTYLE
  5
66
102
{ACAD_REACTORS
330
16
102
}
330
16
100
AcDbVisualStyle
  2
Hidden
 70
6
 90
1
 40
0.6
 62
7
290
0
291
0
  0
VISUALSTYLE
  5
67
102
{ACAD_REACTORS
330
16
102
}
330
16
100
AcDbVisualStyle
  2
JitterOff
 70
20
 90
2
 40
0.6
 62
7
290
0
291
1
  0
VISUALSTYLE
  5
68
102
{ACAD_REACTORS
330
16
102
}
330
16
100
AcDbVisualStyle
  2
Linepattern
 70
14
 90
2
 40
0.6
 62
7
290
0
291
1
  0
VISUALSTYLE
  5
69
102
{ACAD_REACTORS
330
16
102
}
330
16
100
AcDbVisualStyle
  2
Modeling
 70
10
 90
2
 40
0.6
 62
7
290
0
291
0
  0
VISUALSTYLE
  5
6A
102
{ACAD_REACTORS
330
16
102
}
330
16
100
AcDbVisualStyle
  2
OverhangOff
 70
21
 90
2
 40
0.6
 62
7
290
0
291
1
  0
VISUALSTYLE
  5
6B
102
{ACAD_REACTORS
330
16
102
}
330
16
100
AcDbVisualStyle
  2
Realistic
 70
8
 90
2
 40
0.6
 62
7
290
0
291
0
  0
VISUALSTYLE
  5
6C
102
{ACAD_REACTORS
330
16
102
}
330
16
100
AcDbVisualStyle
  2
Shaded
 70
27
 90
2
 40
0.6
 62
7
290
0
291
0
  0
VISUALSTYLE
  5
6D
102
{ACAD_REACTORS
330
16
102
}
330
16
100
AcDbVisualStyle
  2
Shaded with edges
 70
26
 90
2
 40
0.6
 62
7
290
0
291
0
  0
VISUALSTYLE
  5
6E
102
{ACAD_REACTORS
330
16
102
}
330
16
100
AcDbVisualStyle
  2
Shades of Gray
 70
23
 90
2
 40
0.6
 62
7
290
0
291
0
  0
VISUALSTYLE
  5
6F
102
{ACAD_REACTORS
330
16
102
}
330
16
100
AcDbVisualStyle
  2
Sketchy
 70
24
 90
1
 40
0.6
 62
7
290
0
291
0
  0
VISUALSTYLE
  5
70
102
{ACAD_REACTORS
330
16
102
}
330
16
100
AcDbVisualStyle
  2
Thicken
 70
13
 90
2
 40
0.6
 62
7
290
0
291
1
  0
VISUALSTYLE
  5
71
102
{ACAD_REACTORS
330
16
102
}
330
16
100
AcDbVisualStyle
  2
Wireframe
 70
5
 90
0
 40
0.6
 62
7
290
0
291
0
  0
VISUALSTYLE
  5
72
102
{ACAD_REACTORS
330
16
102
}
330
16
100
AcDbVisualStyle
  2
X-Ray
 70
25
 90
2
 40
0.5
 62
7
290
0
291
0
  0
DICTIONARYVAR
  5
2C1
330
2D
100
DictionaryVariables
280
0
  1
1.4.4 @ 2026-09-05T02:21:05.146505+00:00
  0
ENDSEC
  0
EOF
