  0
SECTION
  2
HEADER
  9
$ACADVER
  1
AC1024
  9
$ACADMAINTVER
 70
6
  9
$DWGCODEPAGE
  3
ANSI_1252
  9
$LASTSAVEDBY
  1
ezdxf
  9
$INSBASE
 10
0.0
 20
0.0
 30
0.0
  9
$EXTMIN
 10
1e+20
 20
1e+20
 30
1e+20
  9
$EXTMAX
 10
-1e+20
 20
-1e+20
 30
-1e+20
  9
$LIMMIN
 10
0.0
 20
0.0
  9
$LIMMAX
 10
420.0
 20
297.0
  9
$ORTHOMODE
 70
0
  9
$REGENMODE
 70
1
  9
$FILLMODE
 70
1
  9
$QTEXTMODE
 70
0
  9
$MIRRTEXT
 70
1
  9
$LTSCALE
 40
1.0
  9
$ATTMODE
 70
1
  9
$TEXTSIZE
 40
2.5
  9
$TRACEWID
 40
1.0
  9
$TEXTSTYLE
  7
OpenSans
  9
$CLAYER
  8
0
  9
$CELTYPE
  6
ByLayer
  9
$CECOLOR
 62
256
  9
$CELTSCALE
 40
1.0
  9
$DISPSILH
 70
0
  9
$DIMSCALE
 40
1.0
  9
$DIMASZ
 40
0.175
  9
$DIMEXO
 40
0.125
  9
$DIMDLI
 40
3.75
  9
$DIMRND
 40
0.0
  9
$DIMDLE
 40
0.0
  9
$DIMEXE
 40
0.375
  9
$DIMTP
 40
0.0
  9
$DIMTM
 40
0.0
  9
$DIMTXT
 40
0.25
  9
$DIMCEN
 40
2.5
  9
$DIMTSZ
 40
0.0
  9
$DIMTOL
 70
0
  9
$DIMLIM
 70
0
  9
$DIMTIH
 70
0
  9
$DIMTOH
 70
0
  9
$DIMSE1
 70
0
  9
$DIMSE2
 70
0
  9
$DIMTAD
 70
1
  9
$DIMZIN
 70
12
  9
$DIMBLK
  1
ARCHTICK
  9
$DIMASO
 70
1
  9
$DIMSHO
 70
1
  9
$DIMPOST
  1

  9
$DIMAPOST
  1

  9
$DIMALT
 70
0
  9
$DIMALTD
 70
3
  9
$DIMALTF
 40
0.03937007874
  9
$DIMLFAC
 40
100.0
  9
$DIMTOFL
 70
1
  9
$DIMTVP
 40
0.0
  9
$DIMTIX
 70
0
  9
$DIMSOXD
 70
0
  9
$DIMSAH
 70
0
  9
$DIMBLK1
  1

  9
$DIMBLK2
  1

  9
$DIMSTYLE
  2
EZDXF
  9
$DIMCLRD
 70
0
  9
$DIMCLRE
 70
0
  9
$DIMCLRT
 70
0
  9
$DIMTFAC
 40
0.5
  9
$DIMGAP
 40
0.1
  9
$DIMJUST
 70
0
  9
$DIMSD1
 70
0
  9
$DIMSD2
 70
0
  9
$DIMTOLJ
 70
0
  9
$DIMTZIN
 70
8
  9
$DIMALTZ
 70
0
  9
$DIMALTTZ
 70
0
  9
$DIMUPT
 70
1
  9
$DIMDEC
 70
2
  9
$DIMTDEC
 70
2
  9
$DIMALTU
 70
2
  9
$DIMALTTD
 70
3
  9
$DIMTXSTY
  7
OpenSansCondensed-Light
  9
$DIMAUNIT
 70
0
  9
$DIMADEC
 70
2
  9
$DIMALTRND
 40
0.0
  9
$DIMAZIN
 70
3
  9
$DIMDSEP
 70
46
  9
$DIMATFIT
 70
3
  9
$DIMFRAC
 70
0
  9
$DIMLDRBLK
  1

  9
$DIMLUNIT
 70
2
  9
$DIMLWD
 70
-2
  9
$DIMLWE
 70
-2
  9
$DIMTMOVE
 70
2
  9
$DIMFXL
 40
1.0
  9
$DIMFXLON
 70
0
  9
$DIMJOGANG
 40
0.785398163397
  9
$DIMTFILL
 70
0
  9
$DIMTFILLCLR
 70
0
  9
$DIMARCSYM
 70
0
  9
$DIMLTYPE
  6

  9
$DIMLTEX1
  6

  9
$DIMLTEX2
  6

  9
$DIMTXTDIRECTION
 70
0
  9
$LUNITS
 70
2
  9
$LUPREC
 70
4
  9
$SKETCHINC
 40
1.0
  9
$FILLETRAD
 40
10.0
  9
$AUNITS
 70
0
  9
$AUPREC
 70
2
  9
$MENU
  1
.
  9
$ELEVATION
 40
0.0
  9
$PELEVATION
 40
0.0
  9
$THICKNESS
 40
0.0
  9
$LIMCHECK
 70
0
  9
$CHAMFERA
 40
0.0
  9
$CHAMFERB
 40
0.0
  9
$CHAMFERC
 40
0.0
  9
$CHAMFERD
 40
0.0
  9
$SKPOLY
 70
0
  9
$TDCREATE
 40
2461294.438275463
  9
$TDUCREATE
 40
2458532.153996898
  9
$TDUPDATE
 40
2461294.438275463
  9
$TDUUPDATE
 40
2458532.1544311
  9
$TDINDWG
 40
0.0
  9
$TDUSRTIMER
 40
0.0
  9
$USRTIMER
 70
1
  9
$ANGBASE
 50
0.0
  9
$ANGDIR
 70
0
  9
$PDMODE
 70
0
  9
$PDSIZE
 40
0.0
  9
$PLINEWID
 40
0.0
  9
$SPLFRAME
 70
0
  9
$SPLINETYPE
 70
6
  9
$SPLINESEGS
 70
8
  9
$HANDSEED
  5
23A
  9
$SURFTAB1
 70
6
  9
$SURFTAB2
 70
6
  9
$SURFTYPE
 70
6
  9
$SURFU
 70
6
  9
$SURFV
 70
6
  9
$UCSBASE
  2

  9
$UCSNAME
  2

  9
$UCSORG
 10
0.0
 20
0.0
 30
0.0
  9
$UCSXDIR
 10
1.0
 20
0.0
 30
0.0
  9
$UCSYDIR
 10
0.0
 20
1.0
 30
0.0
  9
$UCSORTHOREF
  2

  9
$UCSORTHOVIEW
 70
0
  9
$UCSORGTOP
 10
0.0
 20
0.0
 30
0.0
  9
$UCSORGBOTTOM
 10
0.0
 20
0.0
 30
0.0
  9
$UCSORGLEFT
 10
0.0
 20
0.0
 30
0.0
  9
$UCSORGRIGHT
 10
0.0
 20
0.0
 30
0.0
  9
$UCSORGFRONT
 10
0.0
 20
0.0
 30
0.0
  9
$UCSORGBACK
 10
0.0
 20
0.0
 30
0.0
  9
$PUCSBASE
  2

  9
$PUCSNAME
  2

  9
$PUCSORG
 10
0.0
 20
0.0
 30
0.0
  9
$PUCSXDIR
 10
1.0
 20
0.0
 30
0.0
  9
$PUCSYDIR
 10
0.0
 20
1.0
 30
0.0
  9
$PUCSORTHOREF
  2

  9
$PUCSORTHOVIEW
 70
0
  9
$PUCSORGTOP
 10
0.0
 20
0.0
 30
0.0
  9
$PUCSORGBOTTOM
 10
0.0
 20
0.0
 30
0.0
  9
$PUCSORGLEFT
 10
0.0
 20
0.0
 30
0.0
  9
$PUCSORGRIGHT
 10
0.0
 20
0.0
 30
0.0
  9
$PUCSORGFRONT
 10
0.0
 20
0.0
 30
0.0
  9
$PUCSORGBACK
 10
0.0
 20
0.0
 30
0.0
  9
$USERI1
 70
0
  9
$USERI2
 70
0
  9
$USERI3
 70
0
  9
$USERI4
 70
0
  9
$USERI5
 70
0
  9
$USERR1
 40
0.0
  9
$USERR2
 40
0.0
  9
$USERR3
 40
0.0
  9
$USERR4
 40
0.0
  9
$USERR5
 40
0.0
  9
$WORLDVIEW
 70
1
  9
$SHADEDGE
 70
3
  9
$SHADEDIF
 70
70
  9
$TILEMODE
 70
1
  9
$MAXACTVP
 70
64
  9
$PINSBASE
 10
0.0
 20
0.0
 30
0.0
  9
$PLIMCHECK
 70
0
  9
$PEXTMIN
 10
1e+20
 20
1e+20
 30
1e+20
  9
$PEXTMAX
 10
-1e+20
 20
-1e+20
 30
-1e+20
  9
$PLIMMIN
 10
0.0
 20
0.0
  9
$PLIMMAX
 10
420.0
 20
297.0
  9
$UNITMODE
 70
0
  9
$VISRETAIN
 70
1
  9
$PLINEGEN
 70
0
  9
$PSLTSCALE
 70
1
  9
$TREEDEPTH
 70
3020
  9
$CMLSTYLE
  2
Standard
  9
$CMLJUST
 70
0
  9
$CMLSCALE
 40
20.0
  9
$PROXYGRAPHICS
 70
1
  9
$MEASUREMENT
 70
1
  9
$CELWEIGHT
370
-1
  9
$ENDCAPS
280
0
  9
$JOINSTYLE
280
0
  9
$LWDISPLAY
290
0
  9
$INSUNITS
 70
4
  9
$HYPERLINKBASE
  1

  9
$STYLESHEET
  1

  9
$XEDIT
290
1
  9
$CEPSNTYPE
380
0
  9
$PSTYLEMODE
290
1
  9
$FINGERPRINTGUID
  2
{7126CC2B-F45B-4706-A917-2C9177BB4D59}
  9
$VERSIONGUID
  2
{ED499745-4414-4E79-BDF7-EB2D684B465E}
  9
$EXTNAMES
290
1
  9
$PSVPSCALE
 40
0.0
  9
$OLESTARTUP
290
0
  9
$SORTENTS
280
127
  9
$INDEXCTL
280
0
  9
$HIDETEXT
280
1
  9
$XCLIPFRAME
280
1
  9
$HALOGAP
280
0
  9
$OBSCOLOR
 70
257
  9
$OBSLTYPE
280
0
  9
$INTERSECTIONDISPLAY
280
0
  9
$INTERSECTIONCOLOR
 70
257
  9
$DIMASSOC
280
2
  9
$PROJECTNAME
  1

  9
$CAMERADISPLAY
290
0
  9
$LENSLENGTH
 40
50.0
  9
$CAMERAHEIGHT
 40
0.0
  9
$STEPSPERSEC
 40
24.0
  9
$STEPSIZE
 40
100.0
  9
$3DDWFPREC
 40
2.0
  9
$PSOLWIDTH
 40
0.005
  9
$PSOLHEIGHT
 40
0.08
  9
$LOFTANG1
 40
1.570796326795
  9
$LOFTANG2
 40
1.570796326795
  9
$LOFTMAG1
 40
0.0
  9
$LOFTMAG2
 40
0.0
  9
$LOFTPARAM
 70
7
  9
$LOFTNORMALS
280
1
  9
$LATITUDE
 40
37.795
  9
$LONGITUDE
 40
-122.394
  9
$NORTHDIRECTION
 40
0.0
  9
$TIMEZONE
 70
-8000
  9
$LIGHTGLYPHDISPLAY
280
1
  9
$TILEMODELIGHTSYNCH
280
1
  9
$CMATERIAL
347
20
  9
$SOLIDHIST
280
0
  9
$SHOWHIST
280
1
  9
$DWFFRAME
280
2
  9
$DGNFRAME
280
2
  9
$REALWORLDSCALE
290
1
  9
$INTERFERECOLOR
 62
256
  9
$CSHADOW
280
0
  9
$SHADOWPLANELOCATION
 40
0.0
  0
ENDSEC
  0
SECTION
  2
CLASSES
  0
CLASS
  1
ACDBDICTIONARYWDFLT
  2
AcDbDictionaryWithDefault
  3
ObjectDBX Classes
 90
0
 91
0
280
0
281
0
  0
CLASS
  1
SUN
  2
AcDbSun
  3
SCENEOE
 90
1153
 91
0
280
0
281
0
  0
CLASS
  1
VISUALSTYLE
  2
AcDbVisualStyle
  3
ObjectDBX Classes
 90
4095
 91
0
280
0
281
0
  0
CLASS
  1
MATERIAL
  2
AcDbMaterial
  3
ObjectDBX Classes
 90
1153
 91
0
280
0
281
0
  0
CLASS
  1
SCALE
  2
AcDbScale
  3
ObjectDBX Classes
 90
1153
 91
0
280
0
281
0
  0
CLASS
  1
TABLESTYLE
  2
AcDbTableStyle
  3
ObjectDBX Classes
 90
4095
 91
0
280
0
281
0
  0
CLASS
  1
MLEADERSTYLE
  2
AcDbMLeaderStyle
  3
ACDB_MLEADERSTYLE_CLASS
 90
4095
 91
0
280
0
281
0
  0
CLASS
  1
DICTIONARYVAR
  2
AcDbDictionaryVar
  3
ObjectDBX Classes
 90
0
 91
0
280
0
281
0
  0
CLASS
  1
CELLSTYLEMAP
  2
AcDbCellStyleMap
  3
ObjectDBX Classes
 90
1152
 91
0
280
0
281
0
  0
CLASS
  1
MENTALRAYRENDERSETTINGS
  2
AcDbMentalRayRenderSettings
  3
SCENEOE
 90
1024
 91
0
280
0
281
0
  0
CLASS
  1
ACDBDETAILVIEWSTYLE
  2
AcDbDetailViewStyle
  3
ObjectDBX Classes
 90
1025
 91
0
280
0
281
0
  0
CLASS
  1
ACDBSECTIONVIEWSTYLE
  2
AcDbSectionViewStyle
  3
ObjectDBX Classes
 90
1025
 91
0
280
0
281
0
  0
CLASS
  1
RASTERVARIABLES
  2
AcDbRasterVariables
  3
ISM
 90
0
 91
0
280
0
281
0
  0
CLASS
  1
ACDBPLACEHOLDER
  2
AcDbPlaceHolder
  3
ObjectDBX Classes
 90
0
 91
0
280
0
281
0
  0
CLASS
  1
LAYOUT
  2
AcDbLayout
  3
ObjectDBX Classes
 90
0
 91
0
280
0
281
0
  0
ENDSEC
  0
SECTION
  2
TABLES
  0
TABLE
  2
VPORT
  5
8
330
0
100
AcDbSymbolTable
 70
1
  0
VPORT
  5
23
330
8
100
AcDbSymbolTableRecord
100
AcDbViewportTableRecord
  2
*Active
 70
0
 10
0.0
 20
0.0
 11
1.0
 21
1.0
 12
0.0
 22
0.0
 13
0.0
 23
0.0
 14
0.5
 24
0.5
 15
0.5
 25
0.5
 16
0.0
 26
0.0
 36
1.0
 17
0.0
 27
0.0
 37
0.0
 40
1000.0
 41
1.34
 42
50.0
 43
0.0
 44
0.0
 50
0.0
 51
0.0
 71
0
 72
1000
 73
1
 74
3
 75
0
 76
0
 77
0
 78
0
281
0
 65
0
146
0.0
  0
ENDTAB
  0
TABLE
  2
LTYPE
  5
2
330
0
100
AcDbSymbolTable
 70
21
  0
LTYPE
  5
24
330
2
100
AcDbSymbolTableRecord
100
AcDbLinetypeTableRecord
  2
ByBlock
 70
0
  3

 72
65
 73
0
 40
0.0
  0
LTYPE
  5
25
330
2
100
AcDbSymbolTableRecord
100
AcDbLinetypeTableRecord
  2
ByLayer
 70
0
  3

 72
65
 73
0
 40
0.0
  0
LTYPE
  5
26
330
2
100
AcDbSymbolTableRecord
100
AcDbLinetypeTableRecord
  2
Continuous
 70
0
  3

 72
65
 73
0
 40
0.0
  0
LTYPE
  5
2F
330
2
100
AcDbSymbolTableRecord
100
AcDbLinetypeTableRecord
  2
CENTER
 70
0
  3
Center ____ _ ____ _ ____ _ ____ _ ____ _ ____
 72
65
 73
4
 40
5.08
 49
3.175
 74
0
 49
-0.635
 74
0
 49
0.635
 74
0
 49
-0.635
 74
0
  0
LTYPE
  5
30
330
2
100
AcDbSymbolTableRecord
100
AcDbLinetypeTableRecord
  2
CENTERX2
 70
0
  3
Center (2x) ________  __  ________  __  ________
 72
65
 73
4
 40
8.89
 49
6.35
 74
0
 49
-0.635
 74
0
 49
1.27
 74
0
 49
-0.635
 74
0
  0
LTYPE
  5
31
330
2
100
AcDbSymbolTableRecord
100
AcDbLinetypeTableRecord
  2
CENTER2
 70
0
  3
Center (.5x) ____ _ ____ _ ____ _ ____ _ ____
 72
65
 73
4
 40
2.54
 49
1.587
 74
0
 49
-0.318
 74
0
 49
0.318
 74
0
 49
-0.318
 74
0
  0
LTYPE
  5
32
330
2
100
AcDbSymbolTableRecord
100
AcDbLinetypeTableRecord
  2
DASHED
 70
0
  3
Dashed __ __ __ __ __ __ __ __ __ __ __ __ __ _
 72
65
 73
2
 40
1.524
 49
1.27
 74
0
 49
-0.254
 74
0
  0
LTYPE
  5
33
330
2
100
AcDbSymbolTableRecord
100
AcDbLinetypeTableRecord
  2
DASHEDX2
 70
0
  3
Dashed (2x) ____  ____  ____  ____  ____  ____
 72
65
 73
2
 40
3.048
 49
2.54
 74
0
 49
-0.508
 74
0
  0
LTYPE
  5
34
330
2
100
AcDbSymbolTableRecord
100
AcDbLinetypeTableRecord
  2
DASHED2
 70
0
  3
Dashed (.5x) _ _ _ _ _ _ _ _ _ _ _ _ _ _
 72
65
 73
2
 40
0.762
 49
0.635
 74
0
 49
-0.127
 74
0
  0
LTYPE
  5
35
330
2
100
AcDbSymbolTableRecord
100
AcDbLinetypeTableRecord
  2
PHANTOM
 70
0
  3
Phantom ______  __  __  ______  __  __  ______
 72
65
 73
6
 40
6.35
 49
3.175
 74
0
 49
-0.635
 74
0
 49
0.635
 74
0
 49
-0.635
 74
0
 49
0.635
 74
0
 49
-0.635
 74
0
  0
LTYPE
  5
36
330
2
100
AcDbSymbolTableRecord
100
AcDbLinetypeTableRecord
  2
PHANTOMX2
 70
0
  3
Phantom (2x)____________    ____    ____    ____________
 72
65
 73
6
 40
10.795
 49
6.35
 74
0
 49
-0.635
 74
0
 49
1.27
 74
0
 49
-0.635
 74
0
 49
1.27
 74
0
 49
-0.635
 74
0
  0
LTYPE
  5
37
330
2
100
AcDbSymbolTableRecord
100
AcDbLinetypeTableRecord
  2
PHANTOM2
 70
0
  3
Phantom (.5x) ___ _ _ ___ _ _ ___ _ _ ___ _ _ ___
 72
65
 73
6
 40
3.175
 49
1.587
 74
0
 49
-0.318
 74
0
 49
0.318
 74
0
 49
-0.318
 74
0
 49
0.318
 74
0
 49
-0.318
 74
0
  0
LTYPE
  5
38
330
2
100
AcDbSymbolTableRecord
100
AcDbLinetypeTableRecord
  2
DASHDOT
 70
0
  3
Dash dot __ . __ . __ . __ . __ . __ . __ . __
 72
65
 73
4
 40
3.556
 49
2.54
 74
0
 49
-0.508
 74
0
 49
0.0
 74
0
 49
-0.508
 74
0
  0
LTYPE
  5
39
330
2
100
AcDbSymbolTableRecord
100
AcDbLinetypeTableRecord
  2
DASHDOTX2
 70
0
  3
Dash dot (2x) ____  .  ____  .  ____  .  ____
 72
65
 73
4
 40
6.096
 49
5.08
 74
0
 49
-0.508
 74
0
 49
0.0
 74
0
 49
-0.508
 74
0
  0
LTYPE
  5
3A
330
2
100
AcDbSymbolTableRecord
100
AcDbLinetypeTableRecord
  2
DASHDOT2
 70
0
  3
Dash dot (.5x) _ . _ . _ . _ . _ . _ . _ . _
 72
65
 73
4
 40
1.778
 49
1.27
 74
0
 49
-0.254
 74
0
 49
0.0
 74
0
 49
-0.254
 74
0
  0
LTYPE
  5
3B
330
2
100
AcDbSymbolTableRecord
100
AcDbLinetypeTableRecord
  2
DOT
 70
0
  3
Dot .  .  .  .  .  .  .  .  .  .  .  .  .  .  .  .
 72
65
 73
2
 40
0.508
 49
0.0
 74
0
 49
-0.508
 74
0
  0
LTYPE
  5
3C
330
2
100
AcDbSymbolTableRecord
100
AcDbLinetypeTableRecord
  2
DOTX2
 70
0
  3
Dot (2x) .    .    .    .    .    .    .    . 
 72
65
 73
2
 40
1.016
 49
0.0
 74
0
 49
-1.016
 74
0
  0
LTYPE
  5
3D
330
2
100
AcDbSymbolTableRecord
100
AcDbLinetypeTableRecord
  2
DOT2
 70
0
  3
Dot (.5) . . . . . . . . . . . . . . . . . . . 
 72
65
 73
2
 40
0.254
 49
0.0
 74
0
 49
-0.254
 74
0
  0
LTYPE
  5
3E
330
2
100
AcDbSymbolTableRecord
100
AcDbLinetypeTableRecord
  2
DIVIDE
 70
0
  3
Divide __ . . __ . . __ . . __ . . __ . . __
 72
65
 73
6
 40
4.064
 49
2.54
 74
0
 49
-0.508
 74
0
 49
0.0
 74
0
 49
-0.508
 74
0
 49
0.0
 74
0
 49
-0.508
 74
0
  0
LTYPE
  5
3F
330
2
100
AcDbSymbolTableRecord
100
AcDbLinetypeTableRecord
  2
DIVIDEX2
 70
0
  3
Divide (2x) ____  . .  ____  . .  ____  . .  ____
 72
65
 73
6
 40
6.604
 49
5.08
 74
0
 49
-0.508
 74
0
 49
0.0
 74
0
 49
-0.508
 74
0
 49
0.0
 74
0
 49
-0.508
 74
0
  0
LTYPE
  5
40
330
2
100
AcDbSymbolTableRecord
100
AcDbLinetypeTableRecord
  2
DIVIDE2
 70
0
  3
Divide(.5x) _ . _ . _ . _ . _ . _ . _ . _
 72
65
 73
6
 40
2.032
 49
1.27
 74
0
 49
-0.254
 74
0
 49
0.0
 74
0
 49
-0.254
 74
0
 49
0.0
 74
0
 49
-0.254
 74
0
  0
ENDTAB
  0
TABLE
  2
LAYER
  5
1
330
0
100
AcDbSymbolTable
 70
26
  0
LAYER
  5
27
330
1
100
AcDbSymbolTableRecord
100
AcDbLayerTableRecord
  2
0
 70
0
 62
7
  6
Continuous
370
-3
390
13
347
21
  0
LAYER
  5
28
330
1
100
AcDbSymbolTableRecord
100
AcDbLayerTableRecord
  2
Defpoints
 70
0
 62
7
  6
Continuous
290
0
370
-3
390
13
347
21
  0
LAYER
  5
8A
330
1
100
AcDbSymbolTableRecord
100
AcDbLayerTableRecord
  2
S-CONCRETE
 70
0
 62
7
  6
Continuous
370
-3
390
13
347
21
1001
AcAecLayerStandard
1000

1000
Structural concrete outlines (cut)
  0
LAYER
  5
8C
330
1
100
AcDbSymbolTableRecord
100
AcDbLayerTableRecord
  2
S-CONCRETE-THIN
 70
0
 62
7
  6
Continuous
370
-3
390
13
347
21
1001
AcAecLayerStandard
1000

1000
Concrete beyond the cut plane
  0
LAYER
  5
8D
330
1
100
AcDbSymbolTableRecord
100
AcDbLayerTableRecord
  2
S-HIDDEN
 70
0
 62
8
  6
Continuous
370
-3
390
13
347
21
1001
AcAecLayerStandard
1000

1000
Concrete / features beyond, hidden
  0
LAYER
  5
8E
330
1
100
AcDbSymbolTableRecord
100
AcDbLayerTableRecord
  2
S-REBAR-MAIN
 70
0
 62
1
  6
Continuous
370
-3
390
13
347
21
1001
AcAecLayerStandard
1000

1000
Main reinforcement
  0
LAYER
  5
8F
330
1
100
AcDbSymbolTableRecord
100
AcDbLayerTableRecord
  2
S-REBAR-DIST
 70
0
 62
3
  6
Continuous
370
-3
390
13
347
21
1001
AcAecLayerStandard
1000

1000
Distribution reinforcement
  0
LAYER
  5
90
330
1
100
AcDbSymbolTableRecord
100
AcDbLayerTableRecord
  2
S-REBAR-STIRRUP
 70
0
 62
6
  6
Continuous
370
-3
390
13
347
21
1001
AcAecLayerStandard
1000

1000
Links and stirrups
  0
LAYER
  5
91
330
1
100
AcDbSymbolTableRecord
100
AcDbLayerTableRecord
  2
S-REBAR-TIE
 70
0
 62
6
  6
Continuous
370
-3
390
13
347
21
1001
AcAecLayerStandard
1000

1000
Ties, cross-ties, starters
  0
LAYER
  5
92
330
1
100
AcDbSymbolTableRecord
100
AcDbLayerTableRecord
  2
S-REBAR-SEC
 70
0
 62
4
  6
Continuous
370
-3
390
13
347
21
1001
AcAecLayerStandard
1000

1000
Trimmers, secondary and additional bars
  0
LAYER
  5
93
330
1
100
AcDbSymbolTableRecord
100
AcDbLayerTableRecord
  2
S-DIM
 70
0
 62
4
  6
Continuous
370
-3
390
13
347
21
1001
AcAecLayerStandard
1000

1000
Dimensions
  0
LAYER
  5
94
330
1
100
AcDbSymbolTableRecord
100
AcDbLayerTableRecord
  2
S-TEXT
 70
0
 62
7
  6
Continuous
370
-3
390
13
347
21
1001
AcAecLayerStandard
1000

1000
General annotation
  0
LAYER
  5
95
330
1
100
AcDbSymbolTableRecord
100
AcDbLayerTableRecord
  2
S-NOTE
 70
0
 62
7
  6
Continuous
370
-3
390
13
347
21
1001
AcAecLayerStandard
1000

1000
Note panels
  0
LAYER
  5
96
330
1
100
AcDbSymbolTableRecord
100
AcDbLayerTableRecord
  2
S-CALLOUT
 70
0
 62
2
  6
Continuous
370
-3
390
13
347
21
1001
AcAecLayerStandard
1000

1000
Bar-mark balloons and leaders
  0
LAYER
  5
97
330
1
100
AcDbSymbolTableRecord
100
AcDbLayerTableRecord
  2
S-SECTION
 70
0
 62
1
  6
Continuous
370
-3
390
13
347
21
1001
AcAecLayerStandard
1000

1000
Section and detail markers
  0
LAYER
  5
98
330
1
100
AcDbSymbolTableRecord
100
AcDbLayerTableRecord
  2
S-GRID
 70
0
 62
5
  6
Continuous
370
-3
390
13
347
21
1001
AcAecLayerStandard
1000

1000
Grid lines and bubbles
  0
LAYER
  5
99
330
1
100
AcDbSymbolTableRecord
100
AcDbLayerTableRecord
  2
S-CENTER
 70
0
 62
6
  6
Continuous
370
-3
390
13
347
21
1001
AcAecLayerStandard
1000

1000
Centrelines
  0
LAYER
  5
9A
330
1
100
AcDbSymbolTableRecord
100
AcDbLayerTableRecord
  2
S-HATCH
 70
0
 62
8
  6
Continuous
370
-3
390
13
347
21
1001
AcAecLayerStandard
1000

1000
Section hatch
  0
LAYER
  5
9B
330
1
100
AcDbSymbolTableRecord
100
AcDbLayerTableRecord
  2
S-TITLE
 70
0
 62
7
  6
Continuous
370
-3
390
13
347
21
1001
AcAecLayerStandard
1000

1000
Border, title block, view titles
  0
LAYER
  5
9C
330
1
100
AcDbSymbolTableRecord
100
AcDbLayerTableRecord
  2
S-EXISTING
 70
0
 62
8
  6
Continuous
370
-3
390
13
347
21
1001
AcAecLayerStandard
1000

1000
Soil, rock, berm, cover layers
  0
LAYER
  5
9D
330
1
100
AcDbSymbolTableRecord
100
AcDbLayerTableRecord
  2
S-REFERENCE
 70
0
 62
8
  6
Continuous
370
-3
390
13
347
21
1001
AcAecLayerStandard
1000

1000
Reference geometry, extents
  0
LAYER
  5
9E
330
1
100
AcDbSymbolTableRecord
100
AcDbLayerTableRecord
  2
S-WATERPROOF
 70
0
 62
30
  6
Continuous
370
-3
390
13
347
21
1001
AcAecLayerStandard
1000

1000
Membranes, waterstops, GWT
  0
LAYER
  5
9F
330
1
100
AcDbSymbolTableRecord
100
AcDbLayerTableRecord
  2
S-STEELWORK
 70
0
 62
2
  6
Continuous
370
-3
390
13
347
21
1001
AcAecLayerStandard
1000

1000
Cast-in frames, EMP straps, steel items
  0
LAYER
  5
A0
330
1
100
AcDbSymbolTableRecord
100
AcDbLayerTableRecord
  2
S-LEVEL
 70
0
 62
4
  6
Continuous
370
-3
390
13
347
21
1001
AcAecLayerStandard
1000

1000
Level markers
  0
LAYER
  5
A1
330
1
100
AcDbSymbolTableRecord
100
AcDbLayerTableRecord
  2
S-TABLE
 70
0
 62
7
  6
Continuous
370
-3
390
13
347
21
1001
AcAecLayerStandard
1000

1000
Tables and schedules
  0
LAYER
  5
A2
330
1
100
AcDbSymbolTableRecord
100
AcDbLayerTableRecord
  2
S-BLAST
 70
0
 62
1
  6
Continuous
370
-3
390
13
347
21
1001
AcAecLayerStandard
1000

1000
Blast arrows, findings, warnings
  0
ENDTAB
  0
TABLE
  2
STYLE
  5
5
330
0
100
AcDbSymbolTable
 70
26
  0
STYLE
  5
29
330
5
100
AcDbSymbolTableRecord
100
AcDbTextStyleTableRecord
  2
Standard
 70
0
 40
0.0
 41
1.0
 50
0.0
 71
0
 42
2.5
  3
txt
  4

  0
STYLE
  5
41
330
5
100
AcDbSymbolTableRecord
100
AcDbTextStyleTableRecord
  2
OpenSans-Light
 70
0
 40
0.0
 41
1.0
 50
0.0
 71
0
 42
2.5
  3
OpenSans-Light.ttf
  4

  0
STYLE
  5
42
330
5
100
AcDbSymbolTableRecord
100
AcDbTextStyleTableRecord
  2
OpenSans-Light-Italic
 70
0
 40
0.0
 41
1.0
 50
0.0
 71
0
 42
2.5
  3
OpenSans-LightItalic.ttf
  4

  0
STYLE
  5
43
330
5
100
AcDbSymbolTableRecord
100
AcDbTextStyleTableRecord
  2
OpenSans
 70
0
 40
0.0
 41
1.0
 50
0.0
 71
0
 42
2.5
  3
OpenSans-Regular.ttf
  4

  0
STYLE
  5
44
330
5
100
AcDbSymbolTableRecord
100
AcDbTextStyleTableRecord
  2
OpenSans-Italic
 70
0
 40
0.0
 41
1.0
 50
0.0
 71
0
 42
2.5
  3
OpenSans-Italic.ttf
  4

  0
STYLE
  5
45
330
5
100
AcDbSymbolTableRecord
100
AcDbTextStyleTableRecord
  2
OpenSans-SemiBold
 70
0
 40
0.0
 41
1.0
 50
0.0
 71
0
 42
2.5
  3
OpenSans-SemiBold.ttf
  4

  0
STYLE
  5
46
330
5
100
AcDbSymbolTableRecord
100
AcDbTextStyleTableRecord
  2
OpenSans-SemiBoldItalic
 70
0
 40
0.0
 41
1.0
 50
0.0
 71
0
 42
2.5
  3
OpenSans-SemiBoldItalic.ttf
  4

  0
STYLE
  5
47
330
5
100
AcDbSymbolTableRecord
100
AcDbTextStyleTableRecord
  2
OpenSans-Bold
 70
0
 40
0.0
 41
1.0
 50
0.0
 71
0
 42
2.5
  3
OpenSans-Bold.ttf
  4

  0
STYLE
  5
48
330
5
100
AcDbSymbolTableRecord
100
AcDbTextStyleTableRecord
  2
OpenSans-BoldItalic
 70
0
 40
0.0
 41
1.0
 50
0.0
 71
0
 42
2.5
  3
OpenSans-BoldItalic.ttf
  4

  0
STYLE
  5
49
330
5
100
AcDbSymbolTableRecord
100
AcDbTextStyleTableRecord
  2
OpenSans-ExtraBold
 70
0
 40
0.0
 41
1.0
 50
0.0
 71
0
 42
2.5
  3
OpenSans-ExtraBold.ttf
  4

  0
STYLE
  5
4A
330
5
100
AcDbSymbolTableRecord
100
AcDbTextStyleTableRecord
  2
OpenSans-ExtraBoldItalic
 70
0
 40
0.0
 41
1.0
 50
0.0
 71
0
 42
2.5
  3
OpenSans-ExtraBoldItalic.ttf
  4

  0
STYLE
  5
4B
330
5
100
AcDbSymbolTableRecord
100
AcDbTextStyleTableRecord
  2
OpenSansCondensed-Bold
 70
0
 40
0.0
 41
1.0
 50
0.0
 71
0
 42
2.5
  3
OpenSansCondensed-Bold.ttf
  4

  0
STYLE
  5
4C
330
5
100
AcDbSymbolTableRecord
100
AcDbTextStyleTableRecord
  2
OpenSansCondensed-Light
 70
0
 40
0.0
 41
1.0
 50
0.0
 71
0
 42
2.5
  3
OpenSansCondensed-Light.ttf
  4

  0
STYLE
  5
4D
330
5
100
AcDbSymbolTableRecord
100
AcDbTextStyleTableRecord
  2
OpenSansCondensed-Italic
 70
0
 40
0.0
 41
1.0
 50
0.0
 71
0
 42
2.5
  3
OpenSansCondensed-LightItalic.ttf
  4

  0
STYLE
  5
4E
330
5
100
AcDbSymbolTableRecord
100
AcDbTextStyleTableRecord
  2
LiberationSans
 70
0
 40
0.0
 41
1.0
 50
0.0
 71
0
 42
2.5
  3
LiberationSans-Regular.ttf
  4

  0
STYLE
  5
4F
330
5
100
AcDbSymbolTableRecord
100
AcDbTextStyleTableRecord
  2
LiberationSans-Bold
 70
0
 40
0.0
 41
1.0
 50
0.0
 71
0
 42
2.5
  3
LiberationSans-Bold.ttf
  4

  0
STYLE
  5
50
330
5
100
AcDbSymbolTableRecord
100
AcDbTextStyleTableRecord
  2
LiberationSans-BoldItalic
 70
0
 40
0.0
 41
1.0
 50
0.0
 71
0
 42
2.5
  3
LiberationSans-BoldItalic.ttf
  4

  0
STYLE
  5
51
330
5
100
AcDbSymbolTableRecord
100
AcDbTextStyleTableRecord
  2
LiberationSans-Italic
 70
0
 40
0.0
 41
1.0
 50
0.0
 71
0
 42
2.5
  3
LiberationSans-Italic.ttf
  4

  0
STYLE
  5
52
330
5
100
AcDbSymbolTableRecord
100
AcDbTextStyleTableRecord
  2
LiberationSerif
 70
0
 40
0.0
 41
1.0
 50
0.0
 71
0
 42
2.5
  3
LiberationSerif-Regular.ttf
  4

  0
STYLE
  5
53
330
5
100
AcDbSymbolTableRecord
100
AcDbTextStyleTableRecord
  2
LiberationSerif-Bold
 70
0
 40
0.0
 41
1.0
 50
0.0
 71
0
 42
2.5
  3
LiberationSerif-Bold.ttf
  4

  0
STYLE
  5
54
330
5
100
AcDbSymbolTableRecord
100
AcDbTextStyleTableRecord
  2
LiberationSerif-BoldItalic
 70
0
 40
0.0
 41
1.0
 50
0.0
 71
0
 42
2.5
  3
LiberationSerif-BoldItalic.ttf
  4

  0
STYLE
  5
55
330
5
100
AcDbSymbolTableRecord
100
AcDbTextStyleTableRecord
  2
LiberationSerif-Italic
 70
0
 40
0.0
 41
1.0
 50
0.0
 71
0
 42
2.5
  3
LiberationSerif-Italic.ttf
  4

  0
STYLE
  5
56
330
5
100
AcDbSymbolTableRecord
100
AcDbTextStyleTableRecord
  2
LiberationMono
 70
0
 40
0.0
 41
1.0
 50
0.0
 71
0
 42
2.5
  3
LiberationMono-Regular.ttf
  4

  0
STYLE
  5
57
330
5
100
AcDbSymbolTableRecord
100
AcDbTextStyleTableRecord
  2
LiberationMono-Bold
 70
0
 40
0.0
 41
1.0
 50
0.0
 71
0
 42
2.5
  3
LiberationMono-Bold.ttf
  4

  0
STYLE
  5
58
330
5
100
AcDbSymbolTableRecord
100
AcDbTextStyleTableRecord
  2
LiberationMono-BoldItalic
 70
0
 40
0.0
 41
1.0
 50
0.0
 71
0
 42
2.5
  3
LiberationMono-BoldItalic.ttf
  4

  0
STYLE
  5
59
330
5
100
AcDbSymbolTableRecord
100
AcDbTextStyleTableRecord
  2
LiberationMono-Italic
 70
0
 40
0.0
 41
1.0
 50
0.0
 71
0
 42
2.5
  3
LiberationMono-Italic.ttf
  4

  0
ENDTAB
  0
TABLE
  2
VIEW
  5
7
330
0
100
AcDbSymbolTable
 70
0
  0
ENDTAB
  0
TABLE
  2
UCS
  5
6
330
0
100
AcDbSymbolTable
 70
0
  0
ENDTAB
  0
TABLE
  2
APPID
  5
3
330
0
100
AcDbSymbolTable
 70
4
  0
APPID
  5
2A
330
3
100
AcDbSymbolTableRecord
100
AcDbRegAppTableRecord
  2
ACAD
 70
0
  0
APPID
  5
8B
330
3
100
AcDbSymbolTableRecord
100
AcDbRegAppTableRecord
  2
AcAecLayerStandard
 70
0
  0
APPID
  5
237
330
3
100
AcDbSymbolTableRecord
100
AcDbRegAppTableRecord
  2
HATCHBACKGROUNDCOLOR
 70
0
  0
APPID
  5
238
330
3
100
AcDbSymbolTableRecord
100
AcDbRegAppTableRecord
  2
EZDXF
 70
0
  0
ENDTAB
  0
TABLE
  2
DIMSTYLE
  5
4
330
0
100
AcDbSymbolTable
 70
14
100
AcDbDimStyleTable
  0
DIMSTYLE
105
2B
330
4
100
AcDbSymbolTableRecord
100
AcDbDimStyleTableRecord
  2
Standard
 70
0
 40
1.0
 41
2.5
 42
0.625
 43
3.75
 44
1.25
 45
0.0
 46
0.0
 47
0.0
 48
0.0
 49
2.5
140
2.5
141
2.5
142
0.0
143
0.03937007874
144
1.0
145
0.0
146
1.0
147
0.625
148
0.0
 69
0
 70
0
 71
0
 72
0
 73
0
 74
0
 75
0
 76
0
 77
1
 78
8
 79
3
170
0
171
3
172
1
173
0
174
0
175
0
176
0
177
0
178
0
179
2
271
2
272
2
273
2
274
3
275
0
276
0
277
2
278
44
279
0
280
0
281
0
282
0
283
0
284
8
285
0
286
0
288
0
289
3
290
0
371
-2
372
-2
  0
DIMSTYLE
105
73
330
4
100
AcDbSymbolTableRecord
100
AcDbDimStyleTableRecord
  2
EZDXF
 70
0
 40
1.0
 41
0.175
 42
0.125
 43
3.75
 44
0.375
 45
0.0
 46
0.0
 47
0.0
 48
0.0
 49
2.5
140
0.25
141
2.5
142
0.0
143
0.03937007874
144
100.0
145
0.0
146
0.5
147
0.1
148
0.0
 69
0
 70
0
 71
0
 72
0
 73
0
 74
0
 75
0
 76
0
 77
1
 78
12
 79
3
170
0
171
3
172
1
173
0
174
0
175
0
176
0
177
0
178
0
179
2
271
2
272
2
273
2
274
3
275
0
276
0
277
2
278
46
279
2
280
0
281
0
282
0
283
0
284
8
285
0
286
0
288
1
289
3
290
0
340
4C
342
74
371
-2
372
-2
  0
DIMSTYLE
105
7C
330
4
100
AcDbSymbolTableRecord
100
AcDbDimStyleTableRecord
  2
EZ_M_100_H25_CM
 70
0
 40
1.0
 41
0.25
 42
0.125
 43
3.75
 44
0.375
 45
0.0
 46
0.0
 47
0.0
 48
0.0
 49
2.5
140
0.25
141
2.5
142
0.125
143
0.03937007874
144
100.0
145
0.0
146
0.5
147
0.1
148
0.0
 69
0
 70
0
 71
0
 72
0
 73
0
 74
0
 75
0
 76
0
 77
1
 78
12
 79
3
170
0
171
3
172
1
173
0
174
0
175
0
176
0
177
0
178
0
179
2
271
2
272
2
273
2
274
3
275
0
276
0
277
2
278
46
279
2
280
0
281
0
282
0
283
0
284
8
285
0
286
0
288
1
289
3
290
0
340
4C
371
-2
372
-2
  0
DIMSTYLE
105
7D
330
4
100
AcDbSymbolTableRecord
100
AcDbDimStyleTableRecord
  2
EZ_M_50_H25_CM
 70
0
 40
1.0
 41
0.125
 42
0.0625
 43
3.75
 44
0.1875
 45
0.0
 46
0.0
 47
0.0
 48
0.0
 49
2.5
140
0.125
141
2.5
142
0.0625
143
0.03937007874
144
100.0
145
0.0
146
0.5
147
0.05
148
0.0
 69
0
 70
0
 71
0
 72
0
 73
0
 74
0
 75
0
 76
0
 77
1
 78
12
 79
3
170
0
171
3
172
1
173
0
174
0
175
0
176
0
177
0
178
0
179
2
271
2
272
2
273
2
274
3
275
0
276
0
277
2
278
46
279
2
280
0
281
0
282
0
283
0
284
8
285
0
286
0
288
1
289
3
290
0
340
4C
371
-2
372
-2
  0
DIMSTYLE
105
7E
330
4
100
AcDbSymbolTableRecord
100
AcDbDimStyleTableRecord
  2
EZ_M_25_H25_CM
 70
0
 40
1.0
 41
0.0625
 42
0.03125
 43
3.75
 44
0.09375
 45
0.0
 46
0.0
 47
0.0
 48
0.0
 49
2.5
140
0.0625
141
2.5
142
0.03125
143
0.03937007874
144
100.0
145
0.0
146
0.5
147
0.025
148
0.0
 69
0
 70
0
 71
0
 72
0
 73
0
 74
0
 75
0
 76
0
 77
1
 78
12
 79
3
170
0
171
3
172
1
173
0
174
0
175
0
176
0
177
0
178
0
179
2
271
2
272
2
273
2
274
3
275
0
276
0
277
2
278
46
279
2
280
0
281
0
282
0
283
0
284
8
285
0
286
0
288
1
289
3
290
0
340
4C
371
-2
372
-2
  0
DIMSTYLE
105
7F
330
4
100
AcDbSymbolTableRecord
100
AcDbDimStyleTableRecord
  2
EZ_M_20_H25_CM
 70
0
 40
1.0
 41
0.05
 42
0.025
 43
3.75
 44
0.07500000000000001
 45
0.0
 46
0.0
 47
0.0
 48
0.0
 49
2.5
140
0.05
141
2.5
142
0.025
143
0.03937007874
144
100.0
145
0.0
146
0.5
147
0.020000000000000004
148
0.0
 69
0
 70
0
 71
0
 72
0
 73
0
 74
0
 75
0
 76
0
 77
1
 78
12
 79
3
170
0
171
3
172
1
173
0
174
0
175
0
176
0
177
0
178
0
179
2
271
2
272
2
273
2
274
3
275
0
276
0
277
2
278
46
279
2
280
0
281
0
282
0
283
0
284
8
285
0
286
0
288
1
289
3
290
0
340
4C
371
-2
372
-2
  0
DIMSTYLE
105
80
330
4
100
AcDbSymbolTableRecord
100
AcDbDimStyleTableRecord
  2
EZ_M_10_H25_CM
 70
0
 40
1.0
 41
0.025
 42
0.0125
 43
3.75
 44
0.037500000000000006
 45
0.0
 46
0.0
 47
0.0
 48
0.0
 49
2.5
140
0.025
141
2.5
142
0.0125
143
0.03937007874
144
100.0
145
0.0
146
0.5
147
0.010000000000000002
148
0.0
 69
0
 70
0
 71
0
 72
0
 73
0
 74
0
 75
0
 76
0
 77
1
 78
12
 79
3
170
0
171
3
172
1
173
0
174
0
175
0
176
0
177
0
178
0
179
2
271
2
272
2
273
2
274
3
275
0
276
0
277
2
278
46
279
2
280
0
281
0
282
0
283
0
284
8
285
0
286
0
288
1
289
3
290
0
340
4C
371
-2
372
-2
  0
DIMSTYLE
105
81
330
4
100
AcDbSymbolTableRecord
100
AcDbDimStyleTableRecord
  2
EZ_M_5_H25_CM
 70
0
 40
1.0
 41
0.0125
 42
0.00625
 43
3.75
 44
0.018750000000000003
 45
0.0
 46
0.0
 47
0.0
 48
0.0
 49
2.5
140
0.0125
141
2.5
142
0.00625
143
0.03937007874
144
100.0
145
0.0
146
0.5
147
0.005000000000000001
148
0.0
 69
0
 70
0
 71
0
 72
0
 73
0
 74
0
 75
0
 76
0
 77
1
 78
12
 79
3
170
0
171
3
172
1
173
0
174
0
175
0
176
0
177
0
178
0
179
2
271
2
272
2
273
2
274
3
275
0
276
0
277
2
278
46
279
2
280
0
281
0
282
0
283
0
284
8
285
0
286
0
288
1
289
3
290
0
340
4C
371
-2
372
-2
  0
DIMSTYLE
105
82
330
4
100
AcDbSymbolTableRecord
100
AcDbDimStyleTableRecord
  2
EZ_M_1_H25_CM
 70
0
 40
1.0
 41
0.0025
 42
0.00125
 43
3.75
 44
0.00375
 45
0.0
 46
0.0
 47
0.0
 48
0.0
 49
2.5
140
0.0025
141
2.5
142
0.00125
143
0.03937007874
144
100.0
145
0.0
146
0.5
147
0.001
148
0.0
 69
0
 70
0
 71
0
 72
0
 73
0
 74
0
 75
0
 76
0
 77
1
 78
12
 79
3
170
0
171
3
172
1
173
0
174
0
175
0
176
0
177
0
178
0
179
2
271
2
272
2
273
2
274
3
275
0
276
0
277
2
278
46
279
2
280
0
281
0
282
0
283
0
284
8
285
0
286
0
288
1
289
3
290
0
340
4C
371
-2
372
-2
  0
DIMSTYLE
105
83
330
4
100
AcDbSymbolTableRecord
100
AcDbDimStyleTableRecord
  2
EZ_RADIUS
 70
0
 40
1.0
 41
0.25
 42
0.125
 43
3.75
 44
0.375
 45
0.0
 46
0.0
 47
0.0
 48
0.0
 49
2.5
140
0.25
141
0.0
142
0.0
143
0.03937007874
144
100.0
145
0.0
146
0.5
147
0.1
148
0.0
 69
0
 70
0
 71
0
 72
0
 73
0
 74
0
 75
0
 76
0
 77
1
 78
12
 79
3
170
0
171
3
172
0
173
0
174
0
175
0
176
0
177
0
178
0
179
2
271
2
272
2
273
2
274
3
275
0
276
0
277
2
278
46
279
1
280
0
281
0
282
0
283
0
284
8
285
0
286
0
288
1
289
3
290
0
340
4C
342
84
371
-2
372
-2
  0
DIMSTYLE
105
88
330
4
100
AcDbSymbolTableRecord
100
AcDbDimStyleTableRecord
  2
EZ_RADIUS_INSIDE
 70
0
 40
1.0
 41
0.25
 42
0.125
 43
3.75
 44
0.375
 45
0.0
 46
0.0
 47
0.0
 48
0.0
 49
2.5
140
0.25
141
0.0
142
0.0
143
0.03937007874
144
100.0
145
0.0
146
0.5
147
0.1
148
0.0
 69
0
 70
0
 71
0
 72
0
 73
0
 74
0
 75
0
 76
0
 77
0
 78
12
 79
3
170
0
171
3
172
0
173
0
174
1
175
0
176
0
177
0
178
0
179
2
271
2
272
2
273
2
274
3
275
0
276
0
277
2
278
46
279
0
280
0
281
0
282
0
283
0
284
8
285
0
286
0
288
1
289
0
290
0
340
4C
342
84
371
-2
372
-2
  0
DIMSTYLE
105
89
330
4
100
AcDbSymbolTableRecord
100
AcDbDimStyleTableRecord
  2
EZ_CURVED
 70
0
 40
1.0
 41
0.25
 42
0.125
 43
3.75
 44
0.375
 45
0.0
 46
0.0
 47
0.0
 48
0.0
 49
2.5
140
0.25
141
2.5
142
0.0
143
0.03937007874
144
100.0
145
0.0
146
0.5
147
0.1
148
0.0
 69
0
 70
0
 71
0
 72
0
 73
0
 74
0
 75
0
 76
0
 77
1
 78
12
 79
2
 90
2
170
0
171
3
172
1
173
0
174
0
175
0
176
0
177
0
178
0
179
2
271
2
272
2
273
2
274
3
275
0
276
0
277
2
278
46
279
2
280
0
281
0
282
0
283
0
284
8
285
0
286
0
288
1
289
3
290
0
340
4C
371
-2
372
-2
  0
DIMSTYLE
105
A3
330
4
100
AcDbSymbolTableRecord
100
AcDbDimStyleTableRecord
  2
SC-DIM
 70
0
 40
1.0
 41
1.6
 42
1.0
 43
3.75
 44
1.2
 45
0.0
 46
0.0
 47
0.0
 48
0.0
 49
2.5
140
1.8
141
2.5
142
0.0
143
0.03937007874
144
1.0
145
0.0
146
1.0
147
0.8
148
0.0
 69
0
 70
0
 71
0
 72
0
 73
0
 74
0
 75
0
 76
0
 77
1
 78
8
 79
3
170
0
171
3
172
1
173
0
174
0
175
0
176
4
177
4
178
4
179
2
271
0
272
2
273
2
274
3
275
0
276
0
277
2
278
44
279
0
280
0
281
0
282
0
283
0
284
8
285
0
286
0
288
0
289
3
290
0
342
74
371
13
372
13
  0
DIMSTYLE
105
A4
330
4
100
AcDbSymbolTableRecord
100
AcDbDimStyleTableRecord
  2
SC-DIM-S
 70
0
 40
1.0
 41
1.2
 42
1.0
 43
3.75
 44
1.2
 45
0.0
 46
0.0
 47
0.0
 48
0.0
 49
2.5
140
1.4
141
2.5
142
0.0
143
0.03937007874
144
1.0
145
0.0
146
1.0
147
0.8
148
0.0
 69
0
 70
0
 71
0
 72
0
 73
0
 74
0
 75
0
 76
0
 77
1
 78
8
 79
3
170
0
171
3
172
1
173
0
174
0
175
0
176
4
177
4
178
4
179
2
271
0
272
2
273
2
274
3
275
0
276
0
277
2
278
44
279
0
280
0
281
0
282
0
283
0
284
8
285
0
286
0
288
0
289
3
290
0
342
74
371
13
372
13
  0
ENDTAB
  0
TABLE
  2
BLOCK_RECORD
  5
9
330
0
100
AcDbSymbolTable
 70
15
  0
BLOCK_RECORD
  5
17
330
9
100
AcDbSymbolTableRecord
100
AcDbBlockTableRecord
  2
*Model_Space
340
1A
 70
0
280
1
281
0
  0
BLOCK_RECORD
  5
1B
330
9
100
AcDbSymbolTableRecord
100
AcDbBlockTableRecord
  2
*Paper_Space
340
1E
 70
0
280
1
281
0
  0
BLOCK_RECORD
  5
74
330
9
100
AcDbSymbolTableRecord
100
AcDbBlockTableRecord
  2
_ARCHTICK
340
0
 70
0
280
1
281
0
  0
BLOCK_RECORD
  5
78
330
9
100
AcDbSymbolTableRecord
100
AcDbBlockTableRecord
  2
_CLOSEDFILLED
340
0
 70
0
280
1
281
0
  0
BLOCK_RECORD
  5
84
330
9
100
AcDbSymbolTableRecord
100
AcDbBlockTableRecord
  2
_CLOSEDBLANK
340
0
 70
0
280
1
281
0
  0
BLOCK_RECORD
  5
A5
330
9
100
AcDbSymbolTableRecord
100
AcDbBlockTableRecord
  2
BARMARK
340
0
 70
0
280
1
281
0
  0
BLOCK_RECORD
  5
A9
330
9
100
AcDbSymbolTableRecord
100
AcDbBlockTableRecord
  2
SECMARK
340
0
 70
0
280
1
281
0
  0
BLOCK_RECORD
  5
AE
330
9
100
AcDbSymbolTableRecord
100
AcDbBlockTableRecord
  2
LEVELMK
340
0
 70
0
280
1
281
0
  0
BLOCK_RECORD
  5
B2
330
9
100
AcDbSymbolTableRecord
100
AcDbBlockTableRecord
  2
NORTH
340
0
 70
0
280
1
281
0
  0
BLOCK_RECORD
  5
F6
330
9
100
AcDbSymbolTableRecord
100
AcDbBlockTableRecord
  2
*D1
340
0
 70
0
280
1
281
0
  0
BLOCK_RECORD
  5
105
330
9
100
AcDbSymbolTableRecord
100
AcDbBlockTableRecord
  2
*D2
340
0
 70
0
280
1
281
0
  0
BLOCK_RECORD
  5
114
330
9
100
AcDbSymbolTableRecord
100
AcDbBlockTableRecord
  2
*D3
340
0
 70
0
280
1
281
0
  0
BLOCK_RECORD
  5
158
330
9
100
AcDbSymbolTableRecord
100
AcDbBlockTableRecord
  2
*D4
340
0
 70
0
280
1
281
0
  0
BLOCK_RECORD
  5
167
330
9
100
AcDbSymbolTableRecord
100
AcDbBlockTableRecord
  2
*D5
340
0
 70
0
280
1
281
0
  0
BLOCK_RECORD
  5
1A2
330
9
100
AcDbSymbolTableRecord
100
AcDbBlockTableRecord
  2
*D6
340
0
 70
0
280
1
281
0
  0
ENDTAB
  0
ENDSEC
  0
SECTION
  2
BLOCKS
  0
BLOCK
  5
18
330
17
100
AcDbEntity
  8
0
100
AcDbBlockBegin
  2
*Model_Space
 70
0
 10
0.0
 20
0.0
 30
0.0
  3
*Model_Space
  1

  0
ENDBLK
  5
19
330
17
100
AcDbEntity
  8
0
100
AcDbBlockEnd
  0
BLOCK
  5
1C
330
1B
100
AcDbEntity
  8
0
100
AcDbBlockBegin
  2
*Paper_Space
 70
0
 10
0.0
 20
0.0
 30
0.0
  3
*Paper_Space
  1

  0
ENDBLK
  5
1D
330
1B
100
AcDbEntity
  8
0
100
AcDbBlockEnd
  0
BLOCK
  5
75
330
74
100
AcDbEntity
  8
0
100
AcDbBlockBegin
  2
_ARCHTICK
 70
0
 10
0.0
 20
0.0
 30
0.0
  3
_ARCHTICK
  1

  0
LWPOLYLINE
  5
77
330
74
100
AcDbEntity
  8
0
  6
BYBLOCK
 62
0
100
AcDbPolyline
 90
2
 70
0
 43
0.15
 10
-0.5
 20
-0.5
 10
0.5
 20
0.5
  0
ENDBLK
  5
76
330
74
100
AcDbEntity
  8
0
100
AcDbBlockEnd
  0
BLOCK
  5
79
330
78
100
AcDbEntity
  8
0
100
AcDbBlockBegin
  2
_CLOSEDFILLED
 70
0
 10
0.0
 20
0.0
 30
0.0
  3
_CLOSEDFILLED
  1

  0
SOLID
  5
7B
330
78
100
AcDbEntity
  8
0
  6
BYBLOCK
 62
0
100
AcDbTrace
 10
-1.0
 20
0.16439898372402537
 30
0.0
 11
0.0
 21
0.0
 31
0.0
 12
-1.0
 22
-0.16439898372402537
 32
0.0
 13
-1.0
 23
-0.16439898372402537
 33
0.0
  0
ENDBLK
  5
7A
330
78
100
AcDbEntity
  8
0
100
AcDbBlockEnd
  0
BLOCK
  5
85
330
84
100
AcDbEntity
  8
0
100
AcDbBlockBegin
  2
_CLOSEDBLANK
 70
0
 10
0.0
 20
0.0
 30
0.0
  3
_CLOSEDBLANK
  1

  0
LWPOLYLINE
  5
87
330
84
100
AcDbEntity
  8
0
  6
BYBLOCK
 62
0
100
AcDbPolyline
 90
3
 70
1
 10
-1.0
 20
0.16439898372402537
 10
0.0
 20
0.0
 10
-1.0
 20
-0.16439898372402537
  0
ENDBLK
  5
86
330
84
100
AcDbEntity
  8
0
100
AcDbBlockEnd
  0
BLOCK
  5
A6
330
A5
100
AcDbEntity
  8
0
100
AcDbBlockBegin
  2
BARMARK
 70
0
 10
0.0
 20
0.0
 30
0.0
  3
BARMARK
  1

  0
CIRCLE
  5
A8
330
A5
100
AcDbEntity
  8
S-CALLOUT
100
AcDbCircle
 10
0.0
 20
0.0
 30
0.0
 40
3.2
  0
ENDBLK
  5
A7
330
A5
100
AcDbEntity
  8
0
100
AcDbBlockEnd
  0
BLOCK
  5
AA
330
A9
100
AcDbEntity
  8
0
100
AcDbBlockBegin
  2
SECMARK
 70
0
 10
0.0
 20
0.0
 30
0.0
  3
SECMARK
  1

  0
CIRCLE
  5
AC
330
A9
100
AcDbEntity
  8
S-SECTION
100
AcDbCircle
 10
0.0
 20
0.0
 30
0.0
 40
4.0
  0
LINE
  5
AD
330
A9
100
AcDbEntity
  8
S-SECTION
100
AcDbLine
 10
-4.0
 20
0.0
 30
0.0
 11
4.0
 21
0.0
 31
0.0
  0
ENDBLK
  5
AB
330
A9
100
AcDbEntity
  8
0
100
AcDbBlockEnd
  0
BLOCK
  5
AF
330
AE
100
AcDbEntity
  8
0
100
AcDbBlockBegin
  2
LEVELMK
 70
0
 10
0.0
 20
0.0
 30
0.0
  3
LEVELMK
  1

  0
LWPOLYLINE
  5
B1
330
AE
100
AcDbEntity
  8
S-LEVEL
100
AcDbPolyline
 90
4
 70
1
 10
0.0
 20
0.0
 10
-2.0
 20
3.0
 10
2.0
 20
3.0
 10
0.0
 20
0.0
  0
ENDBLK
  5
B0
330
AE
100
AcDbEntity
  8
0
100
AcDbBlockEnd
  0
BLOCK
  5
B3
330
B2
100
AcDbEntity
  8
0
100
AcDbBlockBegin
  2
NORTH
 70
0
 10
0.0
 20
0.0
 30
0.0
  3
NORTH
  1

  0
LWPOLYLINE
  5
B5
330
B2
100
AcDbEntity
  8
S-TITLE
100
AcDbPolyline
 90
5
 70
1
 10
0.0
 20
10.0
 10
-3.2
 20
-6.0
 10
0.0
 20
-2.4
 10
3.2
 20
-6.0
 10
0.0
 20
10.0
  0
CIRCLE
  5
B6
330
B2
100
AcDbEntity
  8
S-TITLE
100
AcDbCircle
 10
0.0
 20
0.0
 30
0.0
 40
12.0
  0
ENDBLK
  5
B4
330
B2
100
AcDbEntity
  8
0
100
AcDbBlockEnd
  0
BLOCK
  5
F7
330
F6
100
AcDbEntity
  8
0
100
AcDbBlockBegin
  2
*D1
 70
1
 10
0.0
 20
0.0
 30
0.0
  3
*D1
  1

  0
LINE
  5
F9
330
F6
100
AcDbEntity
  8
0
 62
4
370
13
100
AcDbLine
 10
50.0
 20
299.0
 30
0.0
 11
50.0
 21
276.8
 31
0.0
  0
LINE
  5
FA
330
F6
100
AcDbEntity
  8
0
 62
4
370
13
100
AcDbLine
 10
110.0
 20
299.0
 30
0.0
 11
110.0
 21
276.8
 31
0.0
  0
INSERT
  5
FB
330
F6
100
AcDbEntity
  8
S-DIM
 62
4
100
AcDbBlockReference
  2
_ARCHTICK
 10
50.0
 20
278.0
 30
0.0
 41
1.6
 42
1.6
 50
180.0
  0
INSERT
  5
FD
330
F6
100
AcDbEntity
  8
S-DIM
 62
4
100
AcDbBlockReference
  2
_ARCHTICK
 10
110.0
 20
278.0
 30
0.0
 41
1.6
 42
1.6
  0
LINE
  5
FF
330
F6
100
AcDbEntity
  8
0
 62
4
370
13
100
AcDbLine
 10
50.0
 20
278.0
 30
0.0
 11
110.0
 21
278.0
 31
0.0
  0
MTEXT
  5
100
330
F6
100
AcDbEntity
  8
S-DIM
 62
4
100
AcDbMText
 10
80.0
 20
279.7
 30
0.0
 40
1.8
 71
5
  1
600
  7
OpenSansCondensed-Light
  0
POINT
  5
101
330
F6
100
AcDbEntity
  8
Defpoints
100
AcDbPoint
 10
50.0
 20
278.0
 30
0.0
  0
POINT
  5
102
330
F6
100
AcDbEntity
  8
Defpoints
100
AcDbPoint
 10
50.0
 20
300.0
 30
0.0
  0
POINT
  5
103
330
F6
100
AcDbEntity
  8
Defpoints
100
AcDbPoint
 10
110.0
 20
300.0
 30
0.0
  0
ENDBLK
  5
F8
330
F6
100
AcDbEntity
  8
0
100
AcDbBlockEnd
  0
BLOCK
  5
106
330
105
100
AcDbEntity
  8
0
100
AcDbBlockBegin
  2
*D2
 70
1
 10
0.0
 20
0.0
 30
0.0
  3
*D2
  1

  0
LINE
  5
108
330
105
100
AcDbEntity
  8
0
 62
4
370
13
100
AcDbLine
 10
50.0
 20
299.0
 30
0.0
 11
50.0
 21
253.8
 31
0.0
  0
LINE
  5
109
330
105
100
AcDbEntity
  8
0
 62
4
370
13
100
AcDbLine
 10
55.0
 20
299.0
 30
0.0
 11
55.0
 21
253.8
 31
0.0
  0
INSERT
  5
10A
330
105
100
AcDbEntity
  8
S-DIM
 62
4
100
AcDbBlockReference
  2
_ARCHTICK
 10
50.0
 20
255.0
 30
0.0
 41
1.6
 42
1.6
 50
180.0
  0
INSERT
  5
10C
330
105
100
AcDbEntity
  8
S-DIM
 62
4
100
AcDbBlockReference
  2
_ARCHTICK
 10
55.0
 20
255.0
 30
0.0
 41
1.6
 42
1.6
  0
LINE
  5
10E
330
105
100
AcDbEntity
  8
0
 62
4
370
13
100
AcDbLine
 10
50.0
 20
255.0
 30
0.0
 11
55.0
 21
255.0
 31
0.0
  0
MTEXT
  5
10F
330
105
100
AcDbEntity
  8
S-DIM
 62
4
100
AcDbMText
 10
52.5
 20
256.7
 30
0.0
 40
1.8
 71
5
  1
50
  7
OpenSansCondensed-Light
  0
POINT
  5
110
330
105
100
AcDbEntity
  8
Defpoints
100
AcDbPoint
 10
50.0
 20
255.0
 30
0.0
  0
POINT
  5
111
330
105
100
AcDbEntity
  8
Defpoints
100
AcDbPoint
 10
50.0
 20
300.0
 30
0.0
  0
POINT
  5
112
330
105
100
AcDbEntity
  8
Defpoints
100
AcDbPoint
 10
55.0
 20
300.0
 30
0.0
  0
ENDBLK
  5
107
330
105
100
AcDbEntity
  8
0
100
AcDbBlockEnd
  0
BLOCK
  5
115
330
114
100
AcDbEntity
  8
0
100
AcDbBlockBegin
  2
*D3
 70
1
 10
0.0
 20
0.0
 30
0.0
  3
*D3
  1

  0
LINE
  5
117
330
114
100
AcDbEntity
  8
0
 62
4
370
13
100
AcDbLine
 10
111.0
 20
307.5
 30
0.0
 11
127.2
 21
307.5
 31
0.0
  0
LINE
  5
118
330
114
100
AcDbEntity
  8
0
 62
4
370
13
100
AcDbLine
 10
111.0
 20
322.5
 30
0.0
 11
127.2
 21
322.5
 31
0.0
  0
INSERT
  5
119
330
114
100
AcDbEntity
  8
S-DIM
 62
4
100
AcDbBlockReference
  2
_ARCHTICK
 10
126.0
 20
307.5
 30
0.0
 41
1.6
 42
1.6
 50
270.0
  0
INSERT
  5
11B
330
114
100
AcDbEntity
  8
S-DIM
 62
4
100
AcDbBlockReference
  2
_ARCHTICK
 10
126.0
 20
322.5
 30
0.0
 41
1.6
 42
1.6
 50
90.0
  0
LINE
  5
11D
330
114
100
AcDbEntity
  8
0
 62
4
370
13
100
AcDbLine
 10
126.0
 20
307.5
 30
0.0
 11
126.0
 21
322.5
 31
0.0
  0
MTEXT
  5
11E
330
114
100
AcDbEntity
  8
S-DIM
 62
4
100
AcDbMText
 10
124.3
 20
315.0
 30
0.0
 40
1.8
 71
5
  1
150
  7
OpenSansCondensed-Light
 50
90.0
  0
POINT
  5
11F
330
114
100
AcDbEntity
  8
Defpoints
100
AcDbPoint
 10
126.0
 20
307.5
 30
0.0
  0
POINT
  5
120
330
114
100
AcDbEntity
  8
Defpoints
100
AcDbPoint
 10
110.0
 20
307.5
 30
0.0
  0
POINT
  5
121
330
114
100
AcDbEntity
  8
Defpoints
100
AcDbPoint
 10
110.0
 20
322.5
 30
0.0
  0
ENDBLK
  5
116
330
114
100
AcDbEntity
  8
0
100
AcDbBlockEnd
  0
BLOCK
  5
159
330
158
100
AcDbEntity
  8
0
100
AcDbBlockBegin
  2
*D4
 70
1
 10
0.0
 20
0.0
 30
0.0
  3
*D4
  1

  0
LINE
  5
15B
330
158
100
AcDbEntity
  8
0
 62
4
370
13
100
AcDbLine
 10
190.0
 20
299.0
 30
0.0
 11
190.0
 21
276.8
 31
0.0
  0
LINE
  5
15C
330
158
100
AcDbEntity
  8
0
 62
4
370
13
100
AcDbLine
 10
230.0
 20
299.0
 30
0.0
 11
230.0
 21
276.8
 31
0.0
  0
INSERT
  5
15D
330
158
100
AcDbEntity
  8
S-DIM
 62
4
100
AcDbBlockReference
  2
_ARCHTICK
 10
190.0
 20
278.0
 30
0.0
 41
1.6
 42
1.6
 50
180.0
  0
INSERT
  5
15F
330
158
100
AcDbEntity
  8
S-DIM
 62
4
100
AcDbBlockReference
  2
_ARCHTICK
 10
230.0
 20
278.0
 30
0.0
 41
1.6
 42
1.6
  0
LINE
  5
161
330
158
100
AcDbEntity
  8
0
 62
4
370
13
100
AcDbLine
 10
190.0
 20
278.0
 30
0.0
 11
230.0
 21
278.0
 31
0.0
  0
MTEXT
  5
162
330
158
100
AcDbEntity
  8
S-DIM
 62
4
100
AcDbMText
 10
210.0
 20
279.7
 30
0.0
 40
1.8
 71
5
  1
400
  7
OpenSansCondensed-Light
  0
POINT
  5
163
330
158
100
AcDbEntity
  8
Defpoints
100
AcDbPoint
 10
190.0
 20
278.0
 30
0.0
  0
POINT
  5
164
330
158
100
AcDbEntity
  8
Defpoints
100
AcDbPoint
 10
190.0
 20
300.0
 30
0.0
  0
POINT
  5
165
330
158
100
AcDbEntity
  8
Defpoints
100
AcDbPoint
 10
230.0
 20
300.0
 30
0.0
  0
ENDBLK
  5
15A
330
158
100
AcDbEntity
  8
0
100
AcDbBlockEnd
  0
BLOCK
  5
168
330
167
100
AcDbEntity
  8
0
100
AcDbBlockBegin
  2
*D5
 70
1
 10
0.0
 20
0.0
 30
0.0
  3
*D5
  1

  0
LINE
  5
16A
330
167
100
AcDbEntity
  8
0
 62
4
370
13
100
AcDbLine
 10
231.0
 20
307.5
 30
0.0
 11
247.2
 21
307.5
 31
0.0
  0
LINE
  5
16B
330
167
100
AcDbEntity
  8
0
 62
4
370
13
100
AcDbLine
 10
231.0
 20
322.5
 30
0.0
 11
247.2
 21
322.5
 31
0.0
  0
INSERT
  5
16C
330
167
100
AcDbEntity
  8
S-DIM
 62
4
100
AcDbBlockReference
  2
_ARCHTICK
 10
246.0
 20
307.5
 30
0.0
 41
1.6
 42
1.6
 50
270.0
  0
INSERT
  5
16E
330
167
100
AcDbEntity
  8
S-DIM
 62
4
100
AcDbBlockReference
  2
_ARCHTICK
 10
246.0
 20
322.5
 30
0.0
 41
1.6
 42
1.6
 50
90.0
  0
LINE
  5
170
330
167
100
AcDbEntity
  8
0
 62
4
370
13
100
AcDbLine
 10
246.0
 20
307.5
 30
0.0
 11
246.0
 21
322.5
 31
0.0
  0
MTEXT
  5
171
330
167
100
AcDbEntity
  8
S-DIM
 62
4
100
AcDbMText
 10
244.3
 20
315.0
 30
0.0
 40
1.8
 71
5
  1
150
  7
OpenSansCondensed-Light
 50
90.0
  0
POINT
  5
172
330
167
100
AcDbEntity
  8
Defpoints
100
AcDbPoint
 10
246.0
 20
307.5
 30
0.0
  0
POINT
  5
173
330
167
100
AcDbEntity
  8
Defpoints
100
AcDbPoint
 10
230.0
 20
307.5
 30
0.0
  0
POINT
  5
174
330
167
100
AcDbEntity
  8
Defpoints
100
AcDbPoint
 10
230.0
 20
322.5
 30
0.0
  0
ENDBLK
  5
169
330
167
100
AcDbEntity
  8
0
100
AcDbBlockEnd
  0
BLOCK
  5
1A3
330
1A2
100
AcDbEntity
  8
0
100
AcDbBlockBegin
  2
*D6
 70
1
 10
0.0
 20
0.0
 30
0.0
  3
*D6
  1

  0
LINE
  5
1A5
330
1A2
100
AcDbEntity
  8
0
 62
4
370
13
100
AcDbLine
 10
300.0
 20
299.0
 30
0.0
 11
300.0
 21
276.8
 31
0.0
  0
LINE
  5
1A6
330
1A2
100
AcDbEntity
  8
0
 62
4
370
13
100
AcDbLine
 10
320.0
 20
299.0
 30
0.0
 11
320.0
 21
276.8
 31
0.0
  0
INSERT
  5
1A7
330
1A2
100
AcDbEntity
  8
S-DIM
 62
4
100
AcDbBlockReference
  2
_ARCHTICK
 10
300.0
 20
278.0
 30
0.0
 41
1.6
 42
1.6
 50
180.0
  0
INSERT
  5
1A9
330
1A2
100
AcDbEntity
  8
S-DIM
 62
4
100
AcDbBlockReference
  2
_ARCHTICK
 10
320.0
 20
278.0
 30
0.0
 41
1.6
 42
1.6
  0
LINE
  5
1AB
330
1A2
100
AcDbEntity
  8
0
 62
4
370
13
100
AcDbLine
 10
300.0
 20
278.0
 30
0.0
 11
320.0
 21
278.0
 31
0.0
  0
MTEXT
  5
1AC
330
1A2
100
AcDbEntity
  8
S-DIM
 62
4
100
AcDbMText
 10
310.0
 20
279.7
 30
0.0
 40
1.8
 71
5
  1
200
  7
OpenSansCondensed-Light
  0
POINT
  5
1AD
330
1A2
100
AcDbEntity
  8
Defpoints
100
AcDbPoint
 10
300.0
 20
278.0
 30
0.0
  0
POINT
  5
1AE
330
1A2
100
AcDbEntity
  8
Defpoints
100
AcDbPoint
 10
300.0
 20
300.0
 30
0.0
  0
POINT
  5
1AF
330
1A2
100
AcDbEntity
  8
Defpoints
100
AcDbPoint
 10
320.0
 20
300.0
 30
0.0
  0
ENDBLK
  5
1A4
330
1A2
100
AcDbEntity
  8
0
100
AcDbBlockEnd
  0
ENDSEC
  0
SECTION
  2
ENTITIES
  0
LWPOLYLINE
  5
B7
330
17
100
AcDbEntity
  8
S-TITLE
100
AcDbPolyline
 90
4
 70
1
 10
0.0
 20
0.0
 10
841.0
 20
0.0
 10
841.0
 20
594.0
 10
0.0
 20
594.0
  0
LWPOLYLINE
  5
B8
330
17
100
AcDbEntity
  8
S-TITLE
100
AcDbPolyline
 90
4
 70
1
 10
10.0
 20
10.0
 10
831.0
 20
10.0
 10
831.0
 20
584.0
 10
10.0
 20
584.0
  0
TEXT
  5
B9
330
17
100
AcDbEntity
  8
S-TITLE
100
AcDbText
 10
12.0
 20
576.5
 30
0.0
 40
5.0
  1
STRUCTURAL CAD - REINFORCEMENT PACKAGE
  7
OpenSans
 11
12.0
 21
576.5
 31
0.0
100
AcDbText
  0
TEXT
  5
BA
330
17
100
AcDbEntity
  8
S-TITLE
100
AcDbText
 10
12.0
 20
569.5
 30
0.0
 40
2.4
  1
R-204   WALL SECTIONS
  7
OpenSans
 11
12.0
 21
569.5
 31
0.0
100
AcDbText
  0
LINE
  5
BB
330
17
100
AcDbEntity
  8
S-TITLE
100
AcDbLine
 10
10.0
 20
566.5
 30
0.0
 11
831.0
 21
566.5
 31
0.0
  0
TEXT
  5
BC
330
17
100
AcDbEntity
  8
S-BLAST
100
AcDbText
 10
829.0
 20
577.0
 30
0.0
 40
2.0
  1
SENTRY POST EXCLUDED FROM THIS PACKAGE
  7
OpenSans
 72
2
 11
829.0
 21
577.0
 31
0.0
100
AcDbText
  0
TEXT
  5
BD
330
17
100
AcDbEntity
  8
S-BLAST
100
AcDbText
 10
829.0
 20
570.5
 30
0.0
 40
1.4
  1
ALL DESIGN ACTIONS ARE MANUAL CALCULATION - NOT DIRECT STAAD OUTPUT
  7
OpenSans
 72
2
 11
829.0
 21
570.5
 31
0.0
100
AcDbText
  0
LWPOLYLINE
  5
BE
330
17
100
AcDbEntity
  8
S-CONCRETE
100
AcDbPolyline
 90
4
 70
1
 10
50.0
 20
300.0
 10
110.0
 20
300.0
 10
110.0
 20
390.0
 10
50.0
 20
390.0
  0
HATCH
  5
BF
330
17
100
AcDbEntity
  8
S-HATCH
 62
7
100
AcDbHatch
 10
0.0
 20
0.0
 30
0.0
210
0.0
220
0.0
230
1.0
  2
ANSI31
 70
0
 71
0
 91
1
 92
3
 72
0
 73
1
 93
4
 10
50.0
 20
300.0
 10
110.0
 20
300.0
 10
110.0
 20
390.0
 10
50.0
 20
390.0
 97
0
 75
1
 76
1
 52
0.0
 41
1.6
 77
0
 78
1
 53
45.0
 43
0.0
 44
0.0
 45
-3.5921024485
 46
3.5921024485
 79
0
 98
0
  0
CIRCLE
  5
C0
330
17
100
AcDbEntity
  8
S-REBAR-MAIN
100
AcDbCircle
 10
55.8
 20
307.5
 30
0.0
 40
1.0
  0
HATCH
  5
C1
330
17
100
AcDbEntity
  8
S-REBAR-MAIN
 62
1
100
AcDbHatch
 10
0.0
 20
0.0
 30
0.0
210
0.0
220
0.0
230
1.0
  2
SOLID
 70
1
 71
0
 91
1
 92
3
 72
0
 73
1
 93
16
 10
56.8
 20
307.5
 10
56.72387953251128
 20
307.88268343236507
 10
56.50710678118654
 20
308.20710678118655
 10
56.18268343236509
 20
308.4238795325113
 10
55.8
 20
308.5
 10
55.417316567634906
 20
308.4238795325113
 10
55.09289321881345
 20
308.20710678118655
 10
54.87612046748871
 20
307.88268343236507
 10
54.8
 20
307.5
 10
54.87612046748871
 20
307.11731656763493
 10
55.09289321881345
 20
306.79289321881345
 10
55.417316567634906
 20
306.5761204674887
 10
55.8
 20
306.5
 10
56.18268343236509
 20
306.5761204674887
 10
56.50710678118654
 20
306.79289321881345
 10
56.72387953251128
 20
307.11731656763493
 97
0
 75
0
 76
1
 98
0
  0
CIRCLE
  5
C2
330
17
100
AcDbEntity
  8
S-REBAR-MAIN
100
AcDbCircle
 10
55.8
 20
322.5
 30
0.0
 40
1.0
  0
HATCH
  5
C3
330
17
100
AcDbEntity
  8
S-REBAR-MAIN
 62
1
100
AcDbHatch
 10
0.0
 20
0.0
 30
0.0
210
0.0
220
0.0
230
1.0
  2
SOLID
 70
1
 71
0
 91
1
 92
3
 72
0
 73
1
 93
16
 10
56.8
 20
322.5
 10
56.72387953251128
 20
322.88268343236507
 10
56.50710678118654
 20
323.20710678118655
 10
56.18268343236509
 20
323.4238795325113
 10
55.8
 20
323.5
 10
55.417316567634906
 20
323.4238795325113
 10
55.09289321881345
 20
323.20710678118655
 10
54.87612046748871
 20
322.88268343236507
 10
54.8
 20
322.5
 10
54.87612046748871
 20
322.11731656763493
 10
55.09289321881345
 20
321.79289321881345
 10
55.417316567634906
 20
321.5761204674887
 10
55.8
 20
321.5
 10
56.18268343236509
 20
321.5761204674887
 10
56.50710678118654
 20
321.79289321881345
 10
56.72387953251128
 20
322.11731656763493
 97
0
 75
0
 76
1
 98
0
  0
CIRCLE
  5
C4
330
17
100
AcDbEntity
  8
S-REBAR-MAIN
100
AcDbCircle
 10
55.8
 20
337.5
 30
0.0
 40
1.0
  0
HATCH
  5
C5
330
17
100
AcDbEntity
  8
S-REBAR-MAIN
 62
1
100
AcDbHatch
 10
0.0
 20
0.0
 30
0.0
210
0.0
220
0.0
230
1.0
  2
SOLID
 70
1
 71
0
 91
1
 92
3
 72
0
 73
1
 93
16
 10
56.8
 20
337.5
 10
56.72387953251128
 20
337.88268343236507
 10
56.50710678118654
 20
338.20710678118655
 10
56.18268343236509
 20
338.4238795325113
 10
55.8
 20
338.5
 10
55.417316567634906
 20
338.4238795325113
 10
55.09289321881345
 20
338.20710678118655
 10
54.87612046748871
 20
337.88268343236507
 10
54.8
 20
337.5
 10
54.87612046748871
 20
337.11731656763493
 10
55.09289321881345
 20
336.79289321881345
 10
55.417316567634906
 20
336.5761204674887
 10
55.8
 20
336.5
 10
56.18268343236509
 20
336.5761204674887
 10
56.50710678118654
 20
336.79289321881345
 10
56.72387953251128
 20
337.11731656763493
 97
0
 75
0
 76
1
 98
0
  0
CIRCLE
  5
C6
330
17
100
AcDbEntity
  8
S-REBAR-MAIN
100
AcDbCircle
 10
55.8
 20
352.5
 30
0.0
 40
1.0
  0
HATCH
  5
C7
330
17
100
AcDbEntity
  8
S-REBAR-MAIN
 62
1
100
AcDbHatch
 10
0.0
 20
0.0
 30
0.0
210
0.0
220
0.0
230
1.0
  2
SOLID
 70
1
 71
0
 91
1
 92
3
 72
0
 73
1
 93
16
 10
56.8
 20
352.5
 10
56.72387953251128
 20
352.88268343236507
 10
56.50710678118654
 20
353.20710678118655
 10
56.18268343236509
 20
353.4238795325113
 10
55.8
 20
353.5
 10
55.417316567634906
 20
353.4238795325113
 10
55.09289321881345
 20
353.20710678118655
 10
54.87612046748871
 20
352.88268343236507
 10
54.8
 20
352.5
 10
54.87612046748871
 20
352.11731656763493
 10
55.09289321881345
 20
351.79289321881345
 10
55.417316567634906
 20
351.5761204674887
 10
55.8
 20
351.5
 10
56.18268343236509
 20
351.5761204674887
 10
56.50710678118654
 20
351.79289321881345
 10
56.72387953251128
 20
352.11731656763493
 97
0
 75
0
 76
1
 98
0
  0
CIRCLE
  5
C8
330
17
100
AcDbEntity
  8
S-REBAR-MAIN
100
AcDbCircle
 10
55.8
 20
367.5
 30
0.0
 40
1.0
  0
HATCH
  5
C9
330
17
100
AcDbEntity
  8
S-REBAR-MAIN
 62
1
100
AcDbHatch
 10
0.0
 20
0.0
 30
0.0
210
0.0
220
0.0
230
1.0
  2
SOLID
 70
1
 71
0
 91
1
 92
3
 72
0
 73
1
 93
16
 10
56.8
 20
367.5
 10
56.72387953251128
 20
367.88268343236507
 10
56.50710678118654
 20
368.20710678118655
 10
56.18268343236509
 20
368.4238795325113
 10
55.8
 20
368.5
 10
55.417316567634906
 20
368.4238795325113
 10
55.09289321881345
 20
368.20710678118655
 10
54.87612046748871
 20
367.88268343236507
 10
54.8
 20
367.5
 10
54.87612046748871
 20
367.11731656763493
 10
55.09289321881345
 20
366.79289321881345
 10
55.417316567634906
 20
366.5761204674887
 10
55.8
 20
366.5
 10
56.18268343236509
 20
366.5761204674887
 10
56.50710678118654
 20
366.79289321881345
 10
56.72387953251128
 20
367.11731656763493
 97
0
 75
0
 76
1
 98
0
  0
CIRCLE
  5
CA
330
17
100
AcDbEntity
  8
S-REBAR-MAIN
100
AcDbCircle
 10
55.8
 20
382.5
 30
0.0
 40
1.0
  0
HATCH
  5
CB
330
17
100
AcDbEntity
  8
S-REBAR-MAIN
 62
1
100
AcDbHatch
 10
0.0
 20
0.0
 30
0.0
210
0.0
220
0.0
230
1.0
  2
SOLID
 70
1
 71
0
 91
1
 92
3
 72
0
 73
1
 93
16
 10
56.8
 20
382.5
 10
56.72387953251128
 20
382.88268343236507
 10
56.50710678118654
 20
383.20710678118655
 10
56.18268343236509
 20
383.4238795325113
 10
55.8
 20
383.5
 10
55.417316567634906
 20
383.4238795325113
 10
55.09289321881345
 20
383.20710678118655
 10
54.87612046748871
 20
382.88268343236507
 10
54.8
 20
382.5
 10
54.87612046748871
 20
382.11731656763493
 10
55.09289321881345
 20
381.79289321881345
 10
55.417316567634906
 20
381.5761204674887
 10
55.8
 20
381.5
 10
56.18268343236509
 20
381.5761204674887
 10
56.50710678118654
 20
381.79289321881345
 10
56.72387953251128
 20
382.11731656763493
 97
0
 75
0
 76
1
 98
0
  0
CIRCLE
  5
CC
330
17
100
AcDbEntity
  8
S-REBAR-MAIN
100
AcDbCircle
 10
104.2
 20
307.5
 30
0.0
 40
1.0
  0
HATCH
  5
CD
330
17
100
AcDbEntity
  8
S-REBAR-MAIN
 62
1
100
AcDbHatch
 10
0.0
 20
0.0
 30
0.0
210
0.0
220
0.0
230
1.0
  2
SOLID
 70
1
 71
0
 91
1
 92
3
 72
0
 73
1
 93
16
 10
105.2
 20
307.5
 10
105.1238795325113
 20
307.88268343236507
 10
104.90710678118656
 20
308.20710678118655
 10
104.58268343236509
 20
308.4238795325113
 10
104.2
 20
308.5
 10
103.81731656763492
 20
308.4238795325113
 10
103.49289321881345
 20
308.20710678118655
 10
103.27612046748871
 20
307.88268343236507
 10
103.2
 20
307.5
 10
103.27612046748871
 20
307.11731656763493
 10
103.49289321881345
 20
306.79289321881345
 10
103.81731656763492
 20
306.5761204674887
 10
104.2
 20
306.5
 10
104.58268343236509
 20
306.5761204674887
 10
104.90710678118656
 20
306.79289321881345
 10
105.1238795325113
 20
307.11731656763493
 97
0
 75
0
 76
1
 98
0
  0
CIRCLE
  5
CE
330
17
100
AcDbEntity
  8
S-REBAR-MAIN
100
AcDbCircle
 10
104.2
 20
322.5
 30
0.0
 40
1.0
  0
HATCH
  5
CF
330
17
100
AcDbEntity
  8
S-REBAR-MAIN
 62
1
100
AcDbHatch
 10
0.0
 20
0.0
 30
0.0
210
0.0
220
0.0
230
1.0
  2
SOLID
 70
1
 71
0
 91
1
 92
3
 72
0
 73
1
 93
16
 10
105.2
 20
322.5
 10
105.1238795325113
 20
322.88268343236507
 10
104.90710678118656
 20
323.20710678118655
 10
104.58268343236509
 20
323.4238795325113
 10
104.2
 20
323.5
 10
103.81731656763492
 20
323.4238795325113
 10
103.49289321881345
 20
323.20710678118655
 10
103.27612046748871
 20
322.88268343236507
 10
103.2
 20
322.5
 10
103.27612046748871
 20
322.11731656763493
 10
103.49289321881345
 20
321.79289321881345
 10
103.81731656763492
 20
321.5761204674887
 10
104.2
 20
321.5
 10
104.58268343236509
 20
321.5761204674887
 10
104.90710678118656
 20
321.79289321881345
 10
105.1238795325113
 20
322.11731656763493
 97
0
 75
0
 76
1
 98
0
  0
CIRCLE
  5
D0
330
17
100
AcDbEntity
  8
S-REBAR-MAIN
100
AcDbCircle
 10
104.2
 20
337.5
 30
0.0
 40
1.0
  0
HATCH
  5
D1
330
17
100
AcDbEntity
  8
S-REBAR-MAIN
 62
1
100
AcDbHatch
 10
0.0
 20
0.0
 30
0.0
210
0.0
220
0.0
230
1.0
  2
SOLID
 70
1
 71
0
 91
1
 92
3
 72
0
 73
1
 93
16
 10
105.2
 20
337.5
 10
105.1238795325113
 20
337.88268343236507
 10
104.90710678118656
 20
338.20710678118655
 10
104.58268343236509
 20
338.4238795325113
 10
104.2
 20
338.5
 10
103.81731656763492
 20
338.4238795325113
 10
103.49289321881345
 20
338.20710678118655
 10
103.27612046748871
 20
337.88268343236507
 10
103.2
 20
337.5
 10
103.27612046748871
 20
337.11731656763493
 10
103.49289321881345
 20
336.79289321881345
 10
103.81731656763492
 20
336.5761204674887
 10
104.2
 20
336.5
 10
104.58268343236509
 20
336.5761204674887
 10
104.90710678118656
 20
336.79289321881345
 10
105.1238795325113
 20
337.11731656763493
 97
0
 75
0
 76
1
 98
0
  0
CIRCLE
  5
D2
330
17
100
AcDbEntity
  8
S-REBAR-MAIN
100
AcDbCircle
 10
104.2
 20
352.5
 30
0.0
 40
1.0
  0
HATCH
  5
D3
330
17
100
AcDbEntity
  8
S-REBAR-MAIN
 62
1
100
AcDbHatch
 10
0.0
 20
0.0
 30
0.0
210
0.0
220
0.0
230
1.0
  2
SOLID
 70
1
 71
0
 91
1
 92
3
 72
0
 73
1
 93
16
 10
105.2
 20
352.5
 10
105.1238795325113
 20
352.88268343236507
 10
104.90710678118656
 20
353.20710678118655
 10
104.58268343236509
 20
353.4238795325113
 10
104.2
 20
353.5
 10
103.81731656763492
 20
353.4238795325113
 10
103.49289321881345
 20
353.20710678118655
 10
103.27612046748871
 20
352.88268343236507
 10
103.2
 20
352.5
 10
103.27612046748871
 20
352.11731656763493
 10
103.49289321881345
 20
351.79289321881345
 10
103.81731656763492
 20
351.5761204674887
 10
104.2
 20
351.5
 10
104.58268343236509
 20
351.5761204674887
 10
104.90710678118656
 20
351.79289321881345
 10
105.1238795325113
 20
352.11731656763493
 97
0
 75
0
 76
1
 98
0
  0
CIRCLE
  5
D4
330
17
100
AcDbEntity
  8
S-REBAR-MAIN
100
AcDbCircle
 10
104.2
 20
367.5
 30
0.0
 40
1.0
  0
HATCH
  5
D5
330
17
100
AcDbEntity
  8
S-REBAR-MAIN
 62
1
100
AcDbHatch
 10
0.0
 20
0.0
 30
0.0
210
0.0
220
0.0
230
1.0
  2
SOLID
 70
1
 71
0
 91
1
 92
3
 72
0
 73
1
 93
16
 10
105.2
 20
367.5
 10
105.1238795325113
 20
367.88268343236507
 10
104.90710678118656
 20
368.20710678118655
 10
104.58268343236509
 20
368.4238795325113
 10
104.2
 20
368.5
 10
103.81731656763492
 20
368.4238795325113
 10
103.49289321881345
 20
368.20710678118655
 10
103.27612046748871
 20
367.88268343236507
 10
103.2
 20
367.5
 10
103.27612046748871
 20
367.11731656763493
 10
103.49289321881345
 20
366.79289321881345
 10
103.81731656763492
 20
366.5761204674887
 10
104.2
 20
366.5
 10
104.58268343236509
 20
366.5761204674887
 10
104.90710678118656
 20
366.79289321881345
 10
105.1238795325113
 20
367.11731656763493
 97
0
 75
0
 76
1
 98
0
  0
CIRCLE
  5
D6
330
17
100
AcDbEntity
  8
S-REBAR-MAIN
100
AcDbCircle
 10
104.2
 20
382.5
 30
0.0
 40
1.0
  0
HATCH
  5
D7
330
17
100
AcDbEntity
  8
S-REBAR-MAIN
 62
1
100
AcDbHatch
 10
0.0
 20
0.0
 30
0.0
210
0.0
220
0.0
230
1.0
  2
SOLID
 70
1
 71
0
 91
1
 92
3
 72
0
 73
1
 93
16
 10
105.2
 20
382.5
 10
105.1238795325113
 20
382.88268343236507
 10
104.90710678118656
 20
383.20710678118655
 10
104.58268343236509
 20
383.4238795325113
 10
104.2
 20
383.5
 10
103.81731656763492
 20
383.4238795325113
 10
103.49289321881345
 20
383.20710678118655
 10
103.27612046748871
 20
382.88268343236507
 10
103.2
 20
382.5
 10
103.27612046748871
 20
382.11731656763493
 10
103.49289321881345
 20
381.79289321881345
 10
103.81731656763492
 20
381.5761204674887
 10
104.2
 20
381.5
 10
104.58268343236509
 20
381.5761204674887
 10
104.90710678118656
 20
381.79289321881345
 10
105.1238795325113
 20
382.11731656763493
 97
0
 75
0
 76
1
 98
0
  0
CIRCLE
  5
D8
330
17
100
AcDbEntity
  8
S-REBAR-MAIN
100
AcDbCircle
 10
58.3
 20
307.5
 30
0.0
 40
1.0
  0
HATCH
  5
D9
330
17
100
AcDbEntity
  8
S-REBAR-MAIN
 62
1
100
AcDbHatch
 10
0.0
 20
0.0
 30
0.0
210
0.0
220
0.0
230
1.0
  2
SOLID
 70
1
 71
0
 91
1
 92
3
 72
0
 73
1
 93
16
 10
59.3
 20
307.5
 10
59.22387953251128
 20
307.88268343236507
 10
59.00710678118654
 20
308.20710678118655
 10
58.68268343236509
 20
308.4238795325113
 10
58.3
 20
308.5
 10
57.917316567634906
 20
308.4238795325113
 10
57.59289321881345
 20
308.20710678118655
 10
57.37612046748871
 20
307.88268343236507
 10
57.3
 20
307.5
 10
57.37612046748871
 20
307.11731656763493
 10
57.59289321881345
 20
306.79289321881345
 10
57.917316567634906
 20
306.5761204674887
 10
58.3
 20
306.5
 10
58.68268343236509
 20
306.5761204674887
 10
59.00710678118654
 20
306.79289321881345
 10
59.22387953251128
 20
307.11731656763493
 97
0
 75
0
 76
1
 98
0
  0
CIRCLE
  5
DA
330
17
100
AcDbEntity
  8
S-REBAR-MAIN
100
AcDbCircle
 10
58.3
 20
322.5
 30
0.0
 40
1.0
  0
HATCH
  5
DB
330
17
100
AcDbEntity
  8
S-REBAR-MAIN
 62
1
100
AcDbHatch
 10
0.0
 20
0.0
 30
0.0
210
0.0
220
0.0
230
1.0
  2
SOLID
 70
1
 71
0
 91
1
 92
3
 72
0
 73
1
 93
16
 10
59.3
 20
322.5
 10
59.22387953251128
 20
322.88268343236507
 10
59.00710678118654
 20
323.20710678118655
 10
58.68268343236509
 20
323.4238795325113
 10
58.3
 20
323.5
 10
57.917316567634906
 20
323.4238795325113
 10
57.59289321881345
 20
323.20710678118655
 10
57.37612046748871
 20
322.88268343236507
 10
57.3
 20
322.5
 10
57.37612046748871
 20
322.11731656763493
 10
57.59289321881345
 20
321.79289321881345
 10
57.917316567634906
 20
321.5761204674887
 10
58.3
 20
321.5
 10
58.68268343236509
 20
321.5761204674887
 10
59.00710678118654
 20
321.79289321881345
 10
59.22387953251128
 20
322.11731656763493
 97
0
 75
0
 76
1
 98
0
  0
CIRCLE
  5
DC
330
17
100
AcDbEntity
  8
S-REBAR-MAIN
100
AcDbCircle
 10
58.3
 20
337.5
 30
0.0
 40
1.0
  0
HATCH
  5
DD
330
17
100
AcDbEntity
  8
S-REBAR-MAIN
 62
1
100
AcDbHatch
 10
0.0
 20
0.0
 30
0.0
210
0.0
220
0.0
230
1.0
  2
SOLID
 70
1
 71
0
 91
1
 92
3
 72
0
 73
1
 93
16
 10
59.3
 20
337.5
 10
59.22387953251128
 20
337.88268343236507
 10
59.00710678118654
 20
338.20710678118655
 10
58.68268343236509
 20
338.4238795325113
 10
58.3
 20
338.5
 10
57.917316567634906
 20
338.4238795325113
 10
57.59289321881345
 20
338.20710678118655
 10
57.37612046748871
 20
337.88268343236507
 10
57.3
 20
337.5
 10
57.37612046748871
 20
337.11731656763493
 10
57.59289321881345
 20
336.79289321881345
 10
57.917316567634906
 20
336.5761204674887
 10
58.3
 20
336.5
 10
58.68268343236509
 20
336.5761204674887
 10
59.00710678118654
 20
336.79289321881345
 10
59.22387953251128
 20
337.11731656763493
 97
0
 75
0
 76
1
 98
0
  0
CIRCLE
  5
DE
330
17
100
AcDbEntity
  8
S-REBAR-MAIN
100
AcDbCircle
 10
58.3
 20
352.5
 30
0.0
 40
1.0
  0
HATCH
  5
DF
330
17
100
AcDbEntity
  8
S-REBAR-MAIN
 62
1
100
AcDbHatch
 10
0.0
 20
0.0
 30
0.0
210
0.0
220
0.0
230
1.0
  2
SOLID
 70
1
 71
0
 91
1
 92
3
 72
0
 73
1
 93
16
 10
59.3
 20
352.5
 10
59.22387953251128
 20
352.88268343236507
 10
59.00710678118654
 20
353.20710678118655
 10
58.68268343236509
 20
353.4238795325113
 10
58.3
 20
353.5
 10
57.917316567634906
 20
353.4238795325113
 10
57.59289321881345
 20
353.20710678118655
 10
57.37612046748871
 20
352.88268343236507
 10
57.3
 20
352.5
 10
57.37612046748871
 20
352.11731656763493
 10
57.59289321881345
 20
351.79289321881345
 10
57.917316567634906
 20
351.5761204674887
 10
58.3
 20
351.5
 10
58.68268343236509
 20
351.5761204674887
 10
59.00710678118654
 20
351.79289321881345
 10
59.22387953251128
 20
352.11731656763493
 97
0
 75
0
 76
1
 98
0
  0
CIRCLE
  5
E0
330
17
100
AcDbEntity
  8
S-REBAR-MAIN
100
AcDbCircle
 10
58.3
 20
367.5
 30
0.0
 40
1.0
  0
HATCH
  5
E1
330
17
100
AcDbEntity
  8
S-REBAR-MAIN
 62
1
100
AcDbHatch
 10
0.0
 20
0.0
 30
0.0
210
0.0
220
0.0
230
1.0
  2
SOLID
 70
1
 71
0
 91
1
 92
3
 72
0
 73
1
 93
16
 10
59.3
 20
367.5
 10
59.22387953251128
 20
367.88268343236507
 10
59.00710678118654
 20
368.20710678118655
 10
58.68268343236509
 20
368.4238795325113
 10
58.3
 20
368.5
 10
57.917316567634906
 20
368.4238795325113
 10
57.59289321881345
 20
368.20710678118655
 10
57.37612046748871
 20
367.88268343236507
 10
57.3
 20
367.5
 10
57.37612046748871
 20
367.11731656763493
 10
57.59289321881345
 20
366.79289321881345
 10
57.917316567634906
 20
366.5761204674887
 10
58.3
 20
366.5
 10
58.68268343236509
 20
366.5761204674887
 10
59.00710678118654
 20
366.79289321881345
 10
59.22387953251128
 20
367.11731656763493
 97
0
 75
0
 76
1
 98
0
  0
CIRCLE
  5
E2
330
17
100
AcDbEntity
  8
S-REBAR-MAIN
100
AcDbCircle
 10
58.3
 20
382.5
 30
0.0
 40
1.0
  0
HATCH
  5
E3
330
17
100
AcDbEntity
  8
S-REBAR-MAIN
 62
1
100
AcDbHatch
 10
0.0
 20
0.0
 30
0.0
210
0.0
220
0.0
230
1.0
  2
SOLID
 70
1
 71
0
 91
1
 92
3
 72
0
 73
1
 93
16
 10
59.3
 20
382.5
 10
59.22387953251128
 20
382.88268343236507
 10
59.00710678118654
 20
383.20710678118655
 10
58.68268343236509
 20
383.4238795325113
 10
58.3
 20
383.5
 10
57.917316567634906
 20
383.4238795325113
 10
57.59289321881345
 20
383.20710678118655
 10
57.37612046748871
 20
382.88268343236507
 10
57.3
 20
382.5
 10
57.37612046748871
 20
382.11731656763493
 10
57.59289321881345
 20
381.79289321881345
 10
57.917316567634906
 20
381.5761204674887
 10
58.3
 20
381.5
 10
58.68268343236509
 20
381.5761204674887
 10
59.00710678118654
 20
381.79289321881345
 10
59.22387953251128
 20
382.11731656763493
 97
0
 75
0
 76
1
 98
0
  0
CIRCLE
  5
E4
330
17
100
AcDbEntity
  8
S-REBAR-MAIN
100
AcDbCircle
 10
101.7
 20
307.5
 30
0.0
 40
1.0
  0
HATCH
  5
E5
330
17
100
AcDbEntity
  8
S-REBAR-MAIN
 62
1
100
AcDbHatch
 10
0.0
 20
0.0
 30
0.0
210
0.0
220
0.0
230
1.0
  2
SOLID
 70
1
 71
0
 91
1
 92
3
 72
0
 73
1
 93
16
 10
102.7
 20
307.5
 10
102.6238795325113
 20
307.88268343236507
 10
102.40710678118656
 20
308.20710678118655
 10
102.08268343236509
 20
308.4238795325113
 10
101.7
 20
308.5
 10
101.31731656763492
 20
308.4238795325113
 10
100.99289321881345
 20
308.20710678118655
 10
100.77612046748871
 20
307.88268343236507
 10
100.7
 20
307.5
 10
100.77612046748871
 20
307.11731656763493
 10
100.99289321881345
 20
306.79289321881345
 10
101.31731656763492
 20
306.5761204674887
 10
101.7
 20
306.5
 10
102.08268343236509
 20
306.5761204674887
 10
102.40710678118656
 20
306.79289321881345
 10
102.6238795325113
 20
307.11731656763493
 97
0
 75
0
 76
1
 98
0
  0
CIRCLE
  5
E6
330
17
100
AcDbEntity
  8
S-REBAR-MAIN
100
AcDbCircle
 10
101.7
 20
322.5
 30
0.0
 40
1.0
  0
HATCH
  5
E7
330
17
100
AcDbEntity
  8
S-REBAR-MAIN
 62
1
100
AcDbHatch
 10
0.0
 20
0.0
 30
0.0
210
0.0
220
0.0
230
1.0
  2
SOLID
 70
1
 71
0
 91
1
 92
3
 72
0
 73
1
 93
16
 10
102.7
 20
322.5
 10
102.6238795325113
 20
322.88268343236507
 10
102.40710678118656
 20
323.20710678118655
 10
102.08268343236509
 20
323.4238795325113
 10
101.7
 20
323.5
 10
101.31731656763492
 20
323.4238795325113
 10
100.99289321881345
 20
323.20710678118655
 10
100.77612046748871
 20
322.88268343236507
 10
100.7
 20
322.5
 10
100.77612046748871
 20
322.11731656763493
 10
100.99289321881345
 20
321.79289321881345
 10
101.31731656763492
 20
321.5761204674887
 10
101.7
 20
321.5
 10
102.08268343236509
 20
321.5761204674887
 10
102.40710678118656
 20
321.79289321881345
 10
102.6238795325113
 20
322.11731656763493
 97
0
 75
0
 76
1
 98
0
  0
CIRCLE
  5
E8
330
17
100
AcDbEntity
  8
S-REBAR-MAIN
100
AcDbCircle
 10
101.7
 20
337.5
 30
0.0
 40
1.0
  0
HATCH
  5
E9
330
17
100
AcDbEntity
  8
S-REBAR-MAIN
 62
1
100
AcDbHatch
 10
0.0
 20
0.0
 30
0.0
210
0.0
220
0.0
230
1.0
  2
SOLID
 70
1
 71
0
 91
1
 92
3
 72
0
 73
1
 93
16
 10
102.7
 20
337.5
 10
102.6238795325113
 20
337.88268343236507
 10
102.40710678118656
 20
338.20710678118655
 10
102.08268343236509
 20
338.4238795325113
 10
101.7
 20
338.5
 10
101.31731656763492
 20
338.4238795325113
 10
100.99289321881345
 20
338.20710678118655
 10
100.77612046748871
 20
337.88268343236507
 10
100.7
 20
337.5
 10
100.77612046748871
 20
337.11731656763493
 10
100.99289321881345
 20
336.79289321881345
 10
101.31731656763492
 20
336.5761204674887
 10
101.7
 20
336.5
 10
102.08268343236509
 20
336.5761204674887
 10
102.40710678118656
 20
336.79289321881345
 10
102.6238795325113
 20
337.11731656763493
 97
0
 75
0
 76
1
 98
0
  0
CIRCLE
  5
EA
330
17
100
AcDbEntity
  8
S-REBAR-MAIN
100
AcDbCircle
 10
101.7
 20
352.5
 30
0.0
 40
1.0
  0
HATCH
  5
EB
330
17
100
AcDbEntity
  8
S-REBAR-MAIN
 62
1
100
AcDbHatch
 10
0.0
 20
0.0
 30
0.0
210
0.0
220
0.0
230
1.0
  2
SOLID
 70
1
 71
0
 91
1
 92
3
 72
0
 73
1
 93
16
 10
102.7
 20
352.5
 10
102.6238795325113
 20
352.88268343236507
 10
102.40710678118656
 20
353.20710678118655
 10
102.08268343236509
 20
353.4238795325113
 10
101.7
 20
353.5
 10
101.31731656763492
 20
353.4238795325113
 10
100.99289321881345
 20
353.20710678118655
 10
100.77612046748871
 20
352.88268343236507
 10
100.7
 20
352.5
 10
100.77612046748871
 20
352.11731656763493
 10
100.99289321881345
 20
351.79289321881345
 10
101.31731656763492
 20
351.5761204674887
 10
101.7
 20
351.5
 10
102.08268343236509
 20
351.5761204674887
 10
102.40710678118656
 20
351.79289321881345
 10
102.6238795325113
 20
352.11731656763493
 97
0
 75
0
 76
1
 98
0
  0
CIRCLE
  5
EC
330
17
100
AcDbEntity
  8
S-REBAR-MAIN
100
AcDbCircle
 10
101.7
 20
367.5
 30
0.0
 40
1.0
  0
HATCH
  5
ED
330
17
100
AcDbEntity
  8
S-REBAR-MAIN
 62
1
100
AcDbHatch
 10
0.0
 20
0.0
 30
0.0
210
0.0
220
0.0
230
1.0
  2
SOLID
 70
1
 71
0
 91
1
 92
3
 72
0
 73
1
 93
16
 10
102.7
 20
367.5
 10
102.6238795325113
 20
367.88268343236507
 10
102.40710678118656
 20
368.20710678118655
 10
102.08268343236509
 20
368.4238795325113
 10
101.7
 20
368.5
 10
101.31731656763492
 20
368.4238795325113
 10
100.99289321881345
 20
368.20710678118655
 10
100.77612046748871
 20
367.88268343236507
 10
100.7
 20
367.5
 10
100.77612046748871
 20
367.11731656763493
 10
100.99289321881345
 20
366.79289321881345
 10
101.31731656763492
 20
366.5761204674887
 10
101.7
 20
366.5
 10
102.08268343236509
 20
366.5761204674887
 10
102.40710678118656
 20
366.79289321881345
 10
102.6238795325113
 20
367.11731656763493
 97
0
 75
0
 76
1
 98
0
  0
CIRCLE
  5
EE
330
17
100
AcDbEntity
  8
S-REBAR-MAIN
100
AcDbCircle
 10
101.7
 20
382.5
 30
0.0
 40
1.0
  0
HATCH
  5
EF
330
17
100
AcDbEntity
  8
S-REBAR-MAIN
 62
1
100
AcDbHatch
 10
0.0
 20
0.0
 30
0.0
210
0.0
220
0.0
230
1.0
  2
SOLID
 70
1
 71
0
 91
1
 92
3
 72
0
 73
1
 93
16
 10
102.7
 20
382.5
 10
102.6238795325113
 20
382.88268343236507
 10
102.40710678118656
 20
383.20710678118655
 10
102.08268343236509
 20
383.4238795325113
 10
101.7
 20
383.5
 10
101.31731656763492
 20
383.4238795325113
 10
100.99289321881345
 20
383.20710678118655
 10
100.77612046748871
 20
382.88268343236507
 10
100.7
 20
382.5
 10
100.77612046748871
 20
382.11731656763493
 10
100.99289321881345
 20
381.79289321881345
 10
101.31731656763492
 20
381.5761204674887
 10
101.7
 20
381.5
 10
102.08268343236509
 20
381.5761204674887
 10
102.40710678118656
 20
381.79289321881345
 10
102.6238795325113
 20
382.11731656763493
 97
0
 75
0
 76
1
 98
0
  0
LWPOLYLINE
  5
F0
330
17
100
AcDbEntity
  8
S-REBAR-STIRRUP
100
AcDbPolyline
 90
4
 70
1
 10
55.0
 20
300.0
 10
105.0
 20
300.0
 10
105.0
 20
310.0
 10
55.0
 20
310.0
  0
LWPOLYLINE
  5
F1
330
17
100
AcDbEntity
  8
S-REBAR-STIRRUP
100
AcDbPolyline
 90
4
 70
1
 10
55.0
 20
320.0
 10
105.0
 20
320.0
 10
105.0
 20
330.0
 10
55.0
 20
330.0
  0
LWPOLYLINE
  5
F2
330
17
100
AcDbEntity
  8
S-REBAR-STIRRUP
100
AcDbPolyline
 90
4
 70
1
 10
55.0
 20
340.0
 10
105.0
 20
340.0
 10
105.0
 20
350.0
 10
55.0
 20
350.0
  0
LWPOLYLINE
  5
F3
330
17
100
AcDbEntity
  8
S-REBAR-STIRRUP
100
AcDbPolyline
 90
4
 70
1
 10
55.0
 20
360.0
 10
105.0
 20
360.0
 10
105.0
 20
370.0
 10
55.0
 20
370.0
  0
LWPOLYLINE
  5
F4
330
17
100
AcDbEntity
  8
S-REBAR-STIRRUP
100
AcDbPolyline
 90
4
 70
1
 10
55.0
 20
380.0
 10
105.0
 20
380.0
 10
105.0
 20
390.0
 10
55.0
 20
390.0
  0
DIMENSION
  5
F5
330
17
100
AcDbEntity
  8
S-DIM
100
AcDbDimension
280
0
  2
*D1
  3
SC-DIM
 10
50.0
 20
278.0
 30
0.0
 11
80.0
 21
279.7
 31
0.0
 70
32
 71
5
  1
<>
100
AcDbAlignedDimension
 13
50.0
 23
300.0
 33
0.0
 14
110.0
 24
300.0
 34
0.0
 50
0.0
100
AcDbRotatedDimension
1001
ACAD
1000
DSTYLE
1002
{
1070
144
1040
10.0
1002
}
  0
DIMENSION
  5
104
330
17
100
AcDbEntity
  8
S-DIM
100
AcDbDimension
280
0
  2
*D2
  3
SC-DIM
 10
50.0
 20
255.0
 30
0.0
 11
52.5
 21
256.7
 31
0.0
 70
32
 71
5
  1
<>
100
AcDbAlignedDimension
 13
50.0
 23
300.0
 33
0.0
 14
55.0
 24
300.0
 34
0.0
 50
0.0
100
AcDbRotatedDimension
1001
ACAD
1000
DSTYLE
1002
{
1070
144
1040
10.0
1002
}
  0
DIMENSION
  5
113
330
17
100
AcDbEntity
  8
S-DIM
100
AcDbDimension
280
0
  2
*D3
  3
SC-DIM
 10
126.0
 20
307.5
 30
0.0
 11
124.3
 21
315.0
 31
0.0
 70
32
 71
5
  1
<>
100
AcDbAlignedDimension
 13
110.0
 23
307.5
 33
0.0
 14
110.0
 24
322.5
 34
0.0
 50
90.0
100
AcDbRotatedDimension
1001
ACAD
1000
DSTYLE
1002
{
1070
144
1040
10.0
1002
}
  0
TEXT
  5
122
330
17
100
AcDbEntity
  8
S-TEXT
100
AcDbText
 10
132.0
 20
314.0
 30
0.0
 40
1.4
  1
150
  7
OpenSans
 11
132.0
 21
314.0
 31
0.0
100
AcDbText
  0
TEXT
  5
123
330
17
100
AcDbEntity
  8
S-TEXT
100
AcDbText
 10
46.0
 20
244.0
 30
0.0
 40
1.4
  1
50 COVER
  7
OpenSans
 11
46.0
 21
244.0
 31
0.0
100
AcDbText
  0
INSERT
  5
124
330
17
100
AcDbEntity
  8
S-CALLOUT
100
AcDbBlockReference
  2
BARMARK
 10
34.0
 20
404.0
 30
0.0
  0
TEXT
  5
126
330
17
100
AcDbEntity
  8
S-CALLOUT
100
AcDbText
 10
34.0
 20
404.0
 30
0.0
 40
2.0
  1
W01
  7
OpenSans
 72
1
 11
34.0
 21
404.0
 31
0.0
100
AcDbText
 73
2
  0
LEADER
  5
127
330
17
100
AcDbEntity
  8
S-CALLOUT
100
AcDbLeader
  3
SC-DIM
 73
3
 76
2
 10
58.3
 20
380.0
 30
0.0
 10
34.0
 20
404.0
 30
0.0
  0
INSERT
  5
128
330
17
100
AcDbEntity
  8
S-CALLOUT
100
AcDbBlockReference
  2
BARMARK
 10
118.0
 20
404.0
 30
0.0
  0
TEXT
  5
12A
330
17
100
AcDbEntity
  8
S-CALLOUT
100
AcDbText
 10
118.0
 20
404.0
 30
0.0
 40
2.0
  1
W02
  7
OpenSans
 72
1
 11
118.0
 21
404.0
 31
0.0
100
AcDbText
 73
2
  0
LEADER
  5
12B
330
17
100
AcDbEntity
  8
S-CALLOUT
100
AcDbLeader
  3
SC-DIM
 73
3
 76
2
 10
101.7
 20
380.0
 30
0.0
 10
118.0
 20
404.0
 30
0.0
  0
INSERT
  5
12C
330
17
100
AcDbEntity
  8
S-CALLOUT
100
AcDbBlockReference
  2
BARMARK
 10
34.0
 20
268.0
 30
0.0
  0
TEXT
  5
12E
330
17
100
AcDbEntity
  8
S-CALLOUT
100
AcDbText
 10
34.0
 20
268.0
 30
0.0
 40
2.0
  1
W05
  7
OpenSans
 72
1
 11
34.0
 21
268.0
 31
0.0
100
AcDbText
 73
2
  0
LEADER
  5
12F
330
17
100
AcDbEntity
  8
S-CALLOUT
100
AcDbLeader
  3
SC-DIM
 73
3
 76
2
 10
80.0
 20
320.0
 30
0.0
 10
34.0
 20
268.0
 30
0.0
  0
TEXT
  5
130
330
17
100
AcDbEntity
  8
S-TITLE
100
AcDbText
 10
50.0
 20
424.0
 30
0.0
 40
3.5
  1
V1   PERIMETER WALL 600 - ENLARGED SECTION
  7
OpenSans
 11
50.0
 21
424.0
 31
0.0
100
AcDbText
  0
LINE
  5
131
330
17
100
AcDbEntity
  8
S-TITLE
100
AcDbLine
 10
50.0
 20
422.2
 30
0.0
 11
167.50669792364369
 21
422.2
 31
0.0
  0
TEXT
  5
132
330
17
100
AcDbEntity
  8
S-TEXT
100
AcDbText
 10
50.0
 20
416.8
 30
0.0
 40
2.0
  1
SCALE 1:10
  7
OpenSans
 11
50.0
 21
416.8
 31
0.0
100
AcDbText
  0
LWPOLYLINE
  5
133
330
17
100
AcDbEntity
  8
S-CONCRETE
100
AcDbPolyline
 90
4
 70
1
 10
190.0
 20
300.0
 10
230.0
 20
300.0
 10
230.0
 20
390.0
 10
190.0
 20
390.0
  0
HATCH
  5
134
330
17
100
AcDbEntity
  8
S-HATCH
 62
7
100
AcDbHatch
 10
0.0
 20
0.0
 30
0.0
210
0.0
220
0.0
230
1.0
  2
ANSI31
 70
0
 71
0
 91
1
 92
3
 72
0
 73
1
 93
4
 10
190.0
 20
300.0
 10
230.0
 20
300.0
 10
230.0
 20
390.0
 10
190.0
 20
390.0
 97
0
 75
1
 76
1
 52
0.0
 41
1.6
 77
0
 78
1
 53
45.0
 43
0.0
 44
0.0
 45
-3.5921024485
 46
3.5921024485
 79
0
 98
0
  0
CIRCLE
  5
135
330
17
100
AcDbEntity
  8
S-REBAR-MAIN
100
AcDbCircle
 10
196.0
 20
307.5
 30
0.0
 40
1.1
  0
HATCH
  5
136
330
17
100
AcDbEntity
  8
S-REBAR-MAIN
 62
1
100
AcDbHatch
 10
0.0
 20
0.0
 30
0.0
210
0.0
220
0.0
230
1.0
  2
SOLID
 70
1
 71
0
 91
1
 92
3
 72
0
 73
1
 93
16
 10
197.1
 20
307.5
 10
197.01626748576243
 20
307.9209517756016
 10
196.7778174593052
 20
308.2778174593052
 10
196.4209517756016
 20
308.5162674857624
 10
196.0
 20
308.6
 10
195.5790482243984
 20
308.5162674857624
 10
195.2221825406948
 20
308.2778174593052
 10
194.98373251423757
 20
307.9209517756016
 10
194.9
 20
307.5
 10
194.98373251423757
 20
307.0790482243984
 10
195.2221825406948
 20
306.7221825406948
 10
195.5790482243984
 20
306.4837325142376
 10
196.0
 20
306.4
 10
196.4209517756016
 20
306.4837325142376
 10
196.7778174593052
 20
306.7221825406948
 10
197.01626748576243
 20
307.0790482243984
 97
0
 75
0
 76
1
 98
0
  0
CIRCLE
  5
137
330
17
100
AcDbEntity
  8
S-REBAR-MAIN
100
AcDbCircle
 10
196.0
 20
322.5
 30
0.0
 40
1.1
  0
HATCH
  5
138
330
17
100
AcDbEntity
  8
S-REBAR-MAIN
 62
1
100
AcDbHatch
 10
0.0
 20
0.0
 30
0.0
210
0.0
220
0.0
230
1.0
  2
SOLID
 70
1
 71
0
 91
1
 92
3
 72
0
 73
1
 93
16
 10
197.1
 20
322.5
 10
197.01626748576243
 20
322.9209517756016
 10
196.7778174593052
 20
323.2778174593052
 10
196.4209517756016
 20
323.5162674857624
 10
196.0
 20
323.6
 10
195.5790482243984
 20
323.5162674857624
 10
195.2221825406948
 20
323.2778174593052
 10
194.98373251423757
 20
322.9209517756016
 10
194.9
 20
322.5
 10
194.98373251423757
 20
322.0790482243984
 10
195.2221825406948
 20
321.7221825406948
 10
195.5790482243984
 20
321.4837325142376
 10
196.0
 20
321.4
 10
196.4209517756016
 20
321.4837325142376
 10
196.7778174593052
 20
321.7221825406948
 10
197.01626748576243
 20
322.0790482243984
 97
0
 75
0
 76
1
 98
0
  0
CIRCLE
  5
139
330
17
100
AcDbEntity
  8
S-REBAR-MAIN
100
AcDbCircle
 10
196.0
 20
337.5
 30
0.0
 40
1.1
  0
HATCH
  5
13A
330
17
100
AcDbEntity
  8
S-REBAR-MAIN
 62
1
100
AcDbHatch
 10
0.0
 20
0.0
 30
0.0
210
0.0
220
0.0
230
1.0
  2
SOLID
 70
1
 71
0
 91
1
 92
3
 72
0
 73
1
 93
16
 10
197.1
 20
337.5
 10
197.01626748576243
 20
337.9209517756016
 10
196.7778174593052
 20
338.2778174593052
 10
196.4209517756016
 20
338.5162674857624
 10
196.0
 20
338.6
 10
195.5790482243984
 20
338.5162674857624
 10
195.2221825406948
 20
338.2778174593052
 10
194.98373251423757
 20
337.9209517756016
 10
194.9
 20
337.5
 10
194.98373251423757
 20
337.0790482243984
 10
195.2221825406948
 20
336.7221825406948
 10
195.5790482243984
 20
336.4837325142376
 10
196.0
 20
336.4
 10
196.4209517756016
 20
336.4837325142376
 10
196.7778174593052
 20
336.7221825406948
 10
197.01626748576243
 20
337.0790482243984
 97
0
 75
0
 76
1
 98
0
  0
CIRCLE
  5
13B
330
17
100
AcDbEntity
  8
S-REBAR-MAIN
100
AcDbCircle
 10
196.0
 20
352.5
 30
0.0
 40
1.1
  0
HATCH
  5
13C
330
17
100
AcDbEntity
  8
S-REBAR-MAIN
 62
1
100
AcDbHatch
 10
0.0
 20
0.0
 30
0.0
210
0.0
220
0.0
230
1.0
  2
SOLID
 70
1
 71
0
 91
1
 92
3
 72
0
 73
1
 93
16
 10
197.1
 20
352.5
 10
197.01626748576243
 20
352.9209517756016
 10
196.7778174593052
 20
353.2778174593052
 10
196.4209517756016
 20
353.5162674857624
 10
196.0
 20
353.6
 10
195.5790482243984
 20
353.5162674857624
 10
195.2221825406948
 20
353.2778174593052
 10
194.98373251423757
 20
352.9209517756016
 10
194.9
 20
352.5
 10
194.98373251423757
 20
352.0790482243984
 10
195.2221825406948
 20
351.7221825406948
 10
195.5790482243984
 20
351.4837325142376
 10
196.0
 20
351.4
 10
196.4209517756016
 20
351.4837325142376
 10
196.7778174593052
 20
351.7221825406948
 10
197.01626748576243
 20
352.0790482243984
 97
0
 75
0
 76
1
 98
0
  0
CIRCLE
  5
13D
330
17
100
AcDbEntity
  8
S-REBAR-MAIN
100
AcDbCircle
 10
196.0
 20
367.5
 30
0.0
 40
1.1
  0
HATCH
  5
13E
330
17
100
AcDbEntity
  8
S-REBAR-MAIN
 62
1
100
AcDbHatch
 10
0.0
 20
0.0
 30
0.0
210
0.0
220
0.0
230
1.0
  2
SOLID
 70
1
 71
0
 91
1
 92
3
 72
0
 73
1
 93
16
 10
197.1
 20
367.5
 10
197.01626748576243
 20
367.9209517756016
 10
196.7778174593052
 20
368.2778174593052
 10
196.4209517756016
 20
368.5162674857624
 10
196.0
 20
368.6
 10
195.5790482243984
 20
368.5162674857624
 10
195.2221825406948
 20
368.2778174593052
 10
194.98373251423757
 20
367.9209517756016
 10
194.9
 20
367.5
 10
194.98373251423757
 20
367.0790482243984
 10
195.2221825406948
 20
366.7221825406948
 10
195.5790482243984
 20
366.4837325142376
 10
196.0
 20
366.4
 10
196.4209517756016
 20
366.4837325142376
 10
196.7778174593052
 20
366.7221825406948
 10
197.01626748576243
 20
367.0790482243984
 97
0
 75
0
 76
1
 98
0
  0
CIRCLE
  5
13F
330
17
100
AcDbEntity
  8
S-REBAR-MAIN
100
AcDbCircle
 10
196.0
 20
382.5
 30
0.0
 40
1.1
  0
HATCH
  5
140
330
17
100
AcDbEntity
  8
S-REBAR-MAIN
 62
1
100
AcDbHatch
 10
0.0
 20
0.0
 30
0.0
210
0.0
220
0.0
230
1.0
  2
SOLID
 70
1
 71
0
 91
1
 92
3
 72
0
 73
1
 93
16
 10
197.1
 20
382.5
 10
197.01626748576243
 20
382.9209517756016
 10
196.7778174593052
 20
383.2778174593052
 10
196.4209517756016
 20
383.5162674857624
 10
196.0
 20
383.6
 10
195.5790482243984
 20
383.5162674857624
 10
195.2221825406948
 20
383.2778174593052
 10
194.98373251423757
 20
382.9209517756016
 10
194.9
 20
382.5
 10
194.98373251423757
 20
382.0790482243984
 10
195.2221825406948
 20
381.7221825406948
 10
195.5790482243984
 20
381.4837325142376
 10
196.0
 20
381.4
 10
196.4209517756016
 20
381.4837325142376
 10
196.7778174593052
 20
381.7221825406948
 10
197.01626748576243
 20
382.0790482243984
 97
0
 75
0
 76
1
 98
0
  0
CIRCLE
  5
141
330
17
100
AcDbEntity
  8
S-REBAR-MAIN
100
AcDbCircle
 10
224.0
 20
307.5
 30
0.0
 40
1.1
  0
HATCH
  5
142
330
17
100
AcDbEntity
  8
S-REBAR-MAIN
 62
1
100
AcDbHatch
 10
0.0
 20
0.0
 30
0.0
210
0.0
220
0.0
230
1.0
  2
SOLID
 70
1
 71
0
 91
1
 92
3
 72
0
 73
1
 93
16
 10
225.1
 20
307.5
 10
225.01626748576243
 20
307.9209517756016
 10
224.7778174593052
 20
308.2778174593052
 10
224.4209517756016
 20
308.5162674857624
 10
224.0
 20
308.6
 10
223.5790482243984
 20
308.5162674857624
 10
223.2221825406948
 20
308.2778174593052
 10
222.98373251423757
 20
307.9209517756016
 10
222.9
 20
307.5
 10
222.98373251423757
 20
307.0790482243984
 10
223.2221825406948
 20
306.7221825406948
 10
223.5790482243984
 20
306.4837325142376
 10
224.0
 20
306.4
 10
224.4209517756016
 20
306.4837325142376
 10
224.7778174593052
 20
306.7221825406948
 10
225.01626748576243
 20
307.0790482243984
 97
0
 75
0
 76
1
 98
0
  0
CIRCLE
  5
143
330
17
100
AcDbEntity
  8
S-REBAR-MAIN
100
AcDbCircle
 10
224.0
 20
322.5
 30
0.0
 40
1.1
  0
HATCH
  5
144
330
17
100
AcDbEntity
  8
S-REBAR-MAIN
 62
1
100
AcDbHatch
 10
0.0
 20
0.0
 30
0.0
210
0.0
220
0.0
230
1.0
  2
SOLID
 70
1
 71
0
 91
1
 92
3
 72
0
 73
1
 93
16
 10
225.1
 20
322.5
 10
225.01626748576243
 20
322.9209517756016
 10
224.7778174593052
 20
323.2778174593052
 10
224.4209517756016
 20
323.5162674857624
 10
224.0
 20
323.6
 10
223.5790482243984
 20
323.5162674857624
 10
223.2221825406948
 20
323.2778174593052
 10
222.98373251423757
 20
322.9209517756016
 10
222.9
 20
322.5
 10
222.98373251423757
 20
322.0790482243984
 10
223.2221825406948
 20
321.7221825406948
 10
223.5790482243984
 20
321.4837325142376
 10
224.0
 20
321.4
 10
224.4209517756016
 20
321.4837325142376
 10
224.7778174593052
 20
321.7221825406948
 10
225.01626748576243
 20
322.0790482243984
 97
0
 75
0
 76
1
 98
0
  0
CIRCLE
  5
145
330
17
100
AcDbEntity
  8
S-REBAR-MAIN
100
AcDbCircle
 10
224.0
 20
337.5
 30
0.0
 40
1.1
  0
HATCH
  5
146
330
17
100
AcDbEntity
  8
S-REBAR-MAIN
 62
1
100
AcDbHatch
 10
0.0
 20
0.0
 30
0.0
210
0.0
220
0.0
230
1.0
  2
SOLID
 70
1
 71
0
 91
1
 92
3
 72
0
 73
1
 93
16
 10
225.1
 20
337.5
 10
225.01626748576243
 20
337.9209517756016
 10
224.7778174593052
 20
338.2778174593052
 10
224.4209517756016
 20
338.5162674857624
 10
224.0
 20
338.6
 10
223.5790482243984
 20
338.5162674857624
 10
223.2221825406948
 20
338.2778174593052
 10
222.98373251423757
 20
337.9209517756016
 10
222.9
 20
337.5
 10
222.98373251423757
 20
337.0790482243984
 10
223.2221825406948
 20
336.7221825406948
 10
223.5790482243984
 20
336.4837325142376
 10
224.0
 20
336.4
 10
224.4209517756016
 20
336.4837325142376
 10
224.7778174593052
 20
336.7221825406948
 10
225.01626748576243
 20
337.0790482243984
 97
0
 75
0
 76
1
 98
0
  0
CIRCLE
  5
147
330
17
100
AcDbEntity
  8
S-REBAR-MAIN
100
AcDbCircle
 10
224.0
 20
352.5
 30
0.0
 40
1.1
  0
HATCH
  5
148
330
17
100
AcDbEntity
  8
S-REBAR-MAIN
 62
1
100
AcDbHatch
 10
0.0
 20
0.0
 30
0.0
210
0.0
220
0.0
230
1.0
  2
SOLID
 70
1
 71
0
 91
1
 92
3
 72
0
 73
1
 93
16
 10
225.1
 20
352.5
 10
225.01626748576243
 20
352.9209517756016
 10
224.7778174593052
 20
353.2778174593052
 10
224.4209517756016
 20
353.5162674857624
 10
224.0
 20
353.6
 10
223.5790482243984
 20
353.5162674857624
 10
223.2221825406948
 20
353.2778174593052
 10
222.98373251423757
 20
352.9209517756016
 10
222.9
 20
352.5
 10
222.98373251423757
 20
352.0790482243984
 10
223.2221825406948
 20
351.7221825406948
 10
223.5790482243984
 20
351.4837325142376
 10
224.0
 20
351.4
 10
224.4209517756016
 20
351.4837325142376
 10
224.7778174593052
 20
351.7221825406948
 10
225.01626748576243
 20
352.0790482243984
 97
0
 75
0
 76
1
 98
0
  0
CIRCLE
  5
149
330
17
100
AcDbEntity
  8
S-REBAR-MAIN
100
AcDbCircle
 10
224.0
 20
367.5
 30
0.0
 40
1.1
  0
HATCH
  5
14A
330
17
100
AcDbEntity
  8
S-REBAR-MAIN
 62
1
100
AcDbHatch
 10
0.0
 20
0.0
 30
0.0
210
0.0
220
0.0
230
1.0
  2
SOLID
 70
1
 71
0
 91
1
 92
3
 72
0
 73
1
 93
16
 10
225.1
 20
367.5
 10
225.01626748576243
 20
367.9209517756016
 10
224.7778174593052
 20
368.2778174593052
 10
224.4209517756016
 20
368.5162674857624
 10
224.0
 20
368.6
 10
223.5790482243984
 20
368.5162674857624
 10
223.2221825406948
 20
368.2778174593052
 10
222.98373251423757
 20
367.9209517756016
 10
222.9
 20
367.5
 10
222.98373251423757
 20
367.0790482243984
 10
223.2221825406948
 20
366.7221825406948
 10
223.5790482243984
 20
366.4837325142376
 10
224.0
 20
366.4
 10
224.4209517756016
 20
366.4837325142376
 10
224.7778174593052
 20
366.7221825406948
 10
225.01626748576243
 20
367.0790482243984
 97
0
 75
0
 76
1
 98
0
  0
CIRCLE
  5
14B
330
17
100
AcDbEntity
  8
S-REBAR-MAIN
100
AcDbCircle
 10
224.0
 20
382.5
 30
0.0
 40
1.1
  0
HATCH
  5
14C
330
17
100
AcDbEntity
  8
S-REBAR-MAIN
 62
1
100
AcDbHatch
 10
0.0
 20
0.0
 30
0.0
210
0.0
220
0.0
230
1.0
  2
SOLID
 70
1
 71
0
 91
1
 92
3
 72
0
 73
1
 93
16
 10
225.1
 20
382.5
 10
225.01626748576243
 20
382.9209517756016
 10
224.7778174593052
 20
383.2778174593052
 10
224.4209517756016
 20
383.5162674857624
 10
224.0
 20
383.6
 10
223.5790482243984
 20
383.5162674857624
 10
223.2221825406948
 20
383.2778174593052
 10
222.98373251423757
 20
382.9209517756016
 10
222.9
 20
382.5
 10
222.98373251423757
 20
382.0790482243984
 10
223.2221825406948
 20
381.7221825406948
 10
223.5790482243984
 20
381.4837325142376
 10
224.0
 20
381.4
 10
224.4209517756016
 20
381.4837325142376
 10
224.7778174593052
 20
381.7221825406948
 10
225.01626748576243
 20
382.0790482243984
 97
0
 75
0
 76
1
 98
0
  0
LWPOLYLINE
  5
14D
330
17
100
AcDbEntity
  8
S-REBAR-STIRRUP
100
AcDbPolyline
 90
4
 70
1
 10
195.0
 20
300.0
 10
225.0
 20
300.0
 10
225.0
 20
310.0
 10
195.0
 20
310.0
  0
LINE
  5
14E
330
17
100
AcDbEntity
  8
S-REBAR-STIRRUP
100
AcDbLine
 10
210.0
 20
300.0
 30
0.0
 11
210.0
 21
310.0
 31
0.0
  0
LWPOLYLINE
  5
14F
330
17
100
AcDbEntity
  8
S-REBAR-STIRRUP
100
AcDbPolyline
 90
4
 70
1
 10
195.0
 20
320.0
 10
225.0
 20
320.0
 10
225.0
 20
330.0
 10
195.0
 20
330.0
  0
LINE
  5
150
330
17
100
AcDbEntity
  8
S-REBAR-STIRRUP
100
AcDbLine
 10
210.0
 20
320.0
 30
0.0
 11
210.0
 21
330.0
 31
0.0
  0
LWPOLYLINE
  5
151
330
17
100
AcDbEntity
  8
S-REBAR-STIRRUP
100
AcDbPolyline
 90
4
 70
1
 10
195.0
 20
340.0
 10
225.0
 20
340.0
 10
225.0
 20
350.0
 10
195.0
 20
350.0
  0
LINE
  5
152
330
17
100
AcDbEntity
  8
S-REBAR-STIRRUP
100
AcDbLine
 10
210.0
 20
340.0
 30
0.0
 11
210.0
 21
350.0
 31
0.0
  0
LWPOLYLINE
  5
153
330
17
100
AcDbEntity
  8
S-REBAR-STIRRUP
100
AcDbPolyline
 90
4
 70
1
 10
195.0
 20
360.0
 10
225.0
 20
360.0
 10
225.0
 20
370.0
 10
195.0
 20
370.0
  0
LINE
  5
154
330
17
100
AcDbEntity
  8
S-REBAR-STIRRUP
100
AcDbLine
 10
210.0
 20
360.0
 30
0.0
 11
210.0
 21
370.0
 31
0.0
  0
LWPOLYLINE
  5
155
330
17
100
AcDbEntity
  8
S-REBAR-STIRRUP
100
AcDbPolyline
 90
4
 70
1
 10
195.0
 20
380.0
 10
225.0
 20
380.0
 10
225.0
 20
390.0
 10
195.0
 20
390.0
  0
LINE
  5
156
330
17
100
AcDbEntity
  8
S-REBAR-STIRRUP
100
AcDbLine
 10
210.0
 20
380.0
 30
0.0
 11
210.0
 21
390.0
 31
0.0
  0
DIMENSION
  5
157
330
17
100
AcDbEntity
  8
S-DIM
100
AcDbDimension
280
0
  2
*D4
  3
SC-DIM
 10
190.0
 20
278.0
 30
0.0
 11
210.0
 21
279.7
 31
0.0
 70
32
 71
5
  1
<>
100
AcDbAlignedDimension
 13
190.0
 23
300.0
 33
0.0
 14
230.0
 24
300.0
 34
0.0
 50
0.0
100
AcDbRotatedDimension
1001
ACAD
1000
DSTYLE
1002
{
1070
144
1040
10.0
1002
}
  0
DIMENSION
  5
166
330
17
100
AcDbEntity
  8
S-DIM
100
AcDbDimension
280
0
  2
*D5
  3
SC-DIM
 10
246.0
 20
307.5
 30
0.0
 11
244.3
 21
315.0
 31
0.0
 70
32
 71
5
  1
<>
100
AcDbAlignedDimension
 13
230.0
 23
307.5
 33
0.0
 14
230.0
 24
322.5
 34
0.0
 50
90.0
100
AcDbRotatedDimension
1001
ACAD
1000
DSTYLE
1002
{
1070
144
1040
10.0
1002
}
  0
TEXT
  5
175
330
17
100
AcDbEntity
  8
S-TEXT
100
AcDbText
 10
252.0
 20
314.0
 30
0.0
 40
1.4
  1
150
  7
OpenSans
 11
252.0
 21
314.0
 31
0.0
100
AcDbText
  0
INSERT
  5
176
330
17
100
AcDbEntity
  8
S-CALLOUT
100
AcDbBlockReference
  2
BARMARK
 10
174.0
 20
404.0
 30
0.0
  0
TEXT
  5
178
330
17
100
AcDbEntity
  8
S-CALLOUT
100
AcDbText
 10
174.0
 20
404.0
 30
0.0
 40
2.0
  1
W07
  7
OpenSans
 72
1
 11
174.0
 21
404.0
 31
0.0
100
AcDbText
 73
2
  0
LEADER
  5
179
330
17
100
AcDbEntity
  8
S-CALLOUT
100
AcDbLeader
  3
SC-DIM
 73
3
 76
2
 10
196.0
 20
380.0
 30
0.0
 10
174.0
 20
404.0
 30
0.0
  0
INSERT
  5
17A
330
17
100
AcDbEntity
  8
S-CALLOUT
100
AcDbBlockReference
  2
BARMARK
 10
234.0
 20
404.0
 30
0.0
  0
TEXT
  5
17C
330
17
100
AcDbEntity
  8
S-CALLOUT
100
AcDbText
 10
234.0
 20
404.0
 30
0.0
 40
2.0
  1
W08
  7
OpenSans
 72
1
 11
234.0
 21
404.0
 31
0.0
100
AcDbText
 73
2
  0
LEADER
  5
17D
330
17
100
AcDbEntity
  8
S-CALLOUT
100
AcDbLeader
  3
SC-DIM
 73
3
 76
2
 10
224.0
 20
380.0
 30
0.0
 10
234.0
 20
404.0
 30
0.0
  0
INSERT
  5
17E
330
17
100
AcDbEntity
  8
S-CALLOUT
100
AcDbBlockReference
  2
BARMARK
 10
174.0
 20
268.0
 30
0.0
  0
TEXT
  5
180
330
17
100
AcDbEntity
  8
S-CALLOUT
100
AcDbText
 10
174.0
 20
268.0
 30
0.0
 40
2.0
  1
W11
  7
OpenSans
 72
1
 11
174.0
 21
268.0
 31
0.0
100
AcDbText
 73
2
  0
LEADER
  5
181
330
17
100
AcDbEntity
  8
S-CALLOUT
100
AcDbLeader
  3
SC-DIM
 73
3
 76
2
 10
210.0
 20
320.0
 30
0.0
 10
174.0
 20
268.0
 30
0.0
  0
TEXT
  5
182
330
17
100
AcDbEntity
  8
S-TITLE
100
AcDbText
 10
190.0
 20
424.0
 30
0.0
 40
3.5
  1
V2   WALLS W6 / W7 400 - ENLARGED SECTION
  7
OpenSans
 11
190.0
 21
424.0
 31
0.0
100
AcDbText
  0
LINE
  5
183
330
17
100
AcDbEntity
  8
S-TITLE
100
AcDbLine
 10
190.0
 20
422.2
 30
0.0
 11
303.66912257200266
 21
422.2
 31
0.0
  0
TEXT
  5
184
330
17
100
AcDbEntity
  8
S-TEXT
100
AcDbText
 10
190.0
 20
416.8
 30
0.0
 40
2.0
  1
SCALE 1:10
  7
OpenSans
 11
190.0
 21
416.8
 31
0.0
100
AcDbText
  0
TEXT
  5
185
330
17
100
AcDbEntity
  8
S-TEXT
100
AcDbText
 10
190.0
 20
268.0
 30
0.0
 40
1.4
  1
4-LEGGED LINK = A CLOSED LINK PLUS AN
  7
OpenSans
 11
190.0
 21
268.0
 31
0.0
100
AcDbText
  0
TEXT
  5
186
330
17
100
AcDbEntity
  8
S-TEXT
100
AcDbText
 10
190.0
 20
263.0
 30
0.0
 40
1.4
  1
INTERNAL LEG EACH WAY (PBR-2).
  7
OpenSans
 11
190.0
 21
263.0
 31
0.0
100
AcDbText
  0
LWPOLYLINE
  5
187
330
17
100
AcDbEntity
  8
S-CONCRETE
100
AcDbPolyline
 90
4
 70
1
 10
300.0
 20
300.0
 10
320.0
 20
300.0
 10
320.0
 20
390.0
 10
300.0
 20
390.0
  0
HATCH
  5
188
330
17
100
AcDbEntity
  8
S-HATCH
 62
7
100
AcDbHatch
 10
0.0
 20
0.0
 30
0.0
210
0.0
220
0.0
230
1.0
  2
ANSI31
 70
0
 71
0
 91
1
 92
3
 72
0
 73
1
 93
4
 10
300.0
 20
300.0
 10
320.0
 20
300.0
 10
320.0
 20
390.0
 10
300.0
 20
390.0
 97
0
 75
1
 76
1
 52
0.0
 41
1.6
 77
0
 78
1
 53
45.0
 43
0.0
 44
0.0
 45
-3.5921024485
 46
3.5921024485
 79
0
 98
0
  0
CIRCLE
  5
189
330
17
100
AcDbEntity
  8
S-REBAR-MAIN
100
AcDbCircle
 10
304.6
 20
307.5
 30
0.0
 40
0.9
  0
HATCH
  5
18A
330
17
100
AcDbEntity
  8
S-REBAR-MAIN
 62
1
100
AcDbHatch
 10
0.0
 20
0.0
 30
0.0
210
0.0
220
0.0
230
1.0
  2
SOLID
 70
1
 71
0
 91
1
 92
3
 72
0
 73
1
 93
16
 10
305.5
 20
307.5
 10
305.4314915792602
 20
307.8444150891286
 10
305.23639610306793
 20
308.1363961030679
 10
304.9444150891286
 20
308.33149157926016
 10
304.6
 20
308.4
 10
304.25558491087145
 20
308.33149157926016
 10
303.9636038969321
 20
308.1363961030679
 10
303.76850842073986
 20
307.8444150891286
 10
303.70000000000005
 20
307.5
 10
303.76850842073986
 20
307.1555849108714
 10
303.9636038969321
 20
306.8636038969321
 10
304.25558491087145
 20
306.66850842073984
 10
304.6
 20
306.6
 10
304.9444150891286
 20
306.66850842073984
 10
305.23639610306793
 20
306.8636038969321
 10
305.4314915792602
 20
307.1555849108714
 97
0
 75
0
 76
1
 98
0
  0
CIRCLE
  5
18B
330
17
100
AcDbEntity
  8
S-REBAR-MAIN
100
AcDbCircle
 10
304.6
 20
322.5
 30
0.0
 40
0.9
  0
HATCH
  5
18C
330
17
100
AcDbEntity
  8
S-REBAR-MAIN
 62
1
100
AcDbHatch
 10
0.0
 20
0.0
 30
0.0
210
0.0
220
0.0
230
1.0
  2
SOLID
 70
1
 71
0
 91
1
 92
3
 72
0
 73
1
 93
16
 10
305.5
 20
322.5
 10
305.4314915792602
 20
322.8444150891286
 10
305.23639610306793
 20
323.1363961030679
 10
304.9444150891286
 20
323.33149157926016
 10
304.6
 20
323.4
 10
304.25558491087145
 20
323.33149157926016
 10
303.9636038969321
 20
323.1363961030679
 10
303.76850842073986
 20
322.8444150891286
 10
303.70000000000005
 20
322.5
 10
303.76850842073986
 20
322.1555849108714
 10
303.9636038969321
 20
321.8636038969321
 10
304.25558491087145
 20
321.66850842073984
 10
304.6
 20
321.6
 10
304.9444150891286
 20
321.66850842073984
 10
305.23639610306793
 20
321.8636038969321
 10
305.4314915792602
 20
322.1555849108714
 97
0
 75
0
 76
1
 98
0
  0
CIRCLE
  5
18D
330
17
100
AcDbEntity
  8
S-REBAR-MAIN
100
AcDbCircle
 10
304.6
 20
337.5
 30
0.0
 40
0.9
  0
HATCH
  5
18E
330
17
100
AcDbEntity
  8
S-REBAR-MAIN
 62
1
100
AcDbHatch
 10
0.0
 20
0.0
 30
0.0
210
0.0
220
0.0
230
1.0
  2
SOLID
 70
1
 71
0
 91
1
 92
3
 72
0
 73
1
 93
16
 10
305.5
 20
337.5
 10
305.4314915792602
 20
337.8444150891286
 10
305.23639610306793
 20
338.1363961030679
 10
304.9444150891286
 20
338.33149157926016
 10
304.6
 20
338.4
 10
304.25558491087145
 20
338.33149157926016
 10
303.9636038969321
 20
338.1363961030679
 10
303.76850842073986
 20
337.8444150891286
 10
303.70000000000005
 20
337.5
 10
303.76850842073986
 20
337.1555849108714
 10
303.9636038969321
 20
336.8636038969321
 10
304.25558491087145
 20
336.66850842073984
 10
304.6
 20
336.6
 10
304.9444150891286
 20
336.66850842073984
 10
305.23639610306793
 20
336.8636038969321
 10
305.4314915792602
 20
337.1555849108714
 97
0
 75
0
 76
1
 98
0
  0
CIRCLE
  5
18F
330
17
100
AcDbEntity
  8
S-REBAR-MAIN
100
AcDbCircle
 10
304.6
 20
352.5
 30
0.0
 40
0.9
  0
HATCH
  5
190
330
17
100
AcDbEntity
  8
S-REBAR-MAIN
 62
1
100
AcDbHatch
 10
0.0
 20
0.0
 30
0.0
210
0.0
220
0.0
230
1.0
  2
SOLID
 70
1
 71
0
 91
1
 92
3
 72
0
 73
1
 93
16
 10
305.5
 20
352.5
 10
305.4314915792602
 20
352.8444150891286
 10
305.23639610306793
 20
353.1363961030679
 10
304.9444150891286
 20
353.33149157926016
 10
304.6
 20
353.4
 10
304.25558491087145
 20
353.33149157926016
 10
303.9636038969321
 20
353.1363961030679
 10
303.76850842073986
 20
352.8444150891286
 10
303.70000000000005
 20
352.5
 10
303.76850842073986
 20
352.1555849108714
 10
303.9636038969321
 20
351.8636038969321
 10
304.25558491087145
 20
351.66850842073984
 10
304.6
 20
351.6
 10
304.9444150891286
 20
351.66850842073984
 10
305.23639610306793
 20
351.8636038969321
 10
305.4314915792602
 20
352.1555849108714
 97
0
 75
0
 76
1
 98
0
  0
CIRCLE
  5
191
330
17
100
AcDbEntity
  8
S-REBAR-MAIN
100
AcDbCircle
 10
304.6
 20
367.5
 30
0.0
 40
0.9
  0
HATCH
  5
192
330
17
100
AcDbEntity
  8
S-REBAR-MAIN
 62
1
100
AcDbHatch
 10
0.0
 20
0.0
 30
0.0
210
0.0
220
0.0
230
1.0
  2
SOLID
 70
1
 71
0
 91
1
 92
3
 72
0
 73
1
 93
16
 10
305.5
 20
367.5
 10
305.4314915792602
 20
367.8444150891286
 10
305.23639610306793
 20
368.1363961030679
 10
304.9444150891286
 20
368.33149157926016
 10
304.6
 20
368.4
 10
304.25558491087145
 20
368.33149157926016
 10
303.9636038969321
 20
368.1363961030679
 10
303.76850842073986
 20
367.8444150891286
 10
303.70000000000005
 20
367.5
 10
303.76850842073986
 20
367.1555849108714
 10
303.9636038969321
 20
366.8636038969321
 10
304.25558491087145
 20
366.66850842073984
 10
304.6
 20
366.6
 10
304.9444150891286
 20
366.66850842073984
 10
305.23639610306793
 20
366.8636038969321
 10
305.4314915792602
 20
367.1555849108714
 97
0
 75
0
 76
1
 98
0
  0
CIRCLE
  5
193
330
17
100
AcDbEntity
  8
S-REBAR-MAIN
100
AcDbCircle
 10
304.6
 20
382.5
 30
0.0
 40
0.9
  0
HATCH
  5
194
330
17
100
AcDbEntity
  8
S-REBAR-MAIN
 62
1
100
AcDbHatch
 10
0.0
 20
0.0
 30
0.0
210
0.0
220
0.0
230
1.0
  2
SOLID
 70
1
 71
0
 91
1
 92
3
 72
0
 73
1
 93
16
 10
305.5
 20
382.5
 10
305.4314915792602
 20
382.8444150891286
 10
305.23639610306793
 20
383.1363961030679
 10
304.9444150891286
 20
383.33149157926016
 10
304.6
 20
383.4
 10
304.25558491087145
 20
383.33149157926016
 10
303.9636038969321
 20
383.1363961030679
 10
303.76850842073986
 20
382.8444150891286
 10
303.70000000000005
 20
382.5
 10
303.76850842073986
 20
382.1555849108714
 10
303.9636038969321
 20
381.8636038969321
 10
304.25558491087145
 20
381.66850842073984
 10
304.6
 20
381.6
 10
304.9444150891286
 20
381.66850842073984
 10
305.23639610306793
 20
381.8636038969321
 10
305.4314915792602
 20
382.1555849108714
 97
0
 75
0
 76
1
 98
0
  0
CIRCLE
  5
195
330
17
100
AcDbEntity
  8
S-REBAR-MAIN
100
AcDbCircle
 10
315.4
 20
307.5
 30
0.0
 40
0.9
  0
HATCH
  5
196
330
17
100
AcDbEntity
  8
S-REBAR-MAIN
 62
1
100
AcDbHatch
 10
0.0
 20
0.0
 30
0.0
210
0.0
220
0.0
230
1.0
  2
SOLID
 70
1
 71
0
 91
1
 92
3
 72
0
 73
1
 93
16
 10
316.29999999999995
 20
307.5
 10
316.23149157926014
 20
307.8444150891286
 10
316.0363961030679
 20
308.1363961030679
 10
315.74441508912855
 20
308.33149157926016
 10
315.4
 20
308.4
 10
315.0555849108714
 20
308.33149157926016
 10
314.76360389693207
 20
308.1363961030679
 10
314.5685084207398
 20
307.8444150891286
 10
314.5
 20
307.5
 10
314.5685084207398
 20
307.1555849108714
 10
314.76360389693207
 20
306.8636038969321
 10
315.0555849108714
 20
306.66850842073984
 10
315.4
 20
306.6
 10
315.74441508912855
 20
306.66850842073984
 10
316.0363961030679
 20
306.8636038969321
 10
316.23149157926014
 20
307.1555849108714
 97
0
 75
0
 76
1
 98
0
  0
CIRCLE
  5
197
330
17
100
AcDbEntity
  8
S-REBAR-MAIN
100
AcDbCircle
 10
315.4
 20
322.5
 30
0.0
 40
0.9
  0
HATCH
  5
198
330
17
100
AcDbEntity
  8
S-REBAR-MAIN
 62
1
100
AcDbHatch
 10
0.0
 20
0.0
 30
0.0
210
0.0
220
0.0
230
1.0
  2
SOLID
 70
1
 71
0
 91
1
 92
3
 72
0
 73
1
 93
16
 10
316.29999999999995
 20
322.5
 10
316.23149157926014
 20
322.8444150891286
 10
316.0363961030679
 20
323.1363961030679
 10
315.74441508912855
 20
323.33149157926016
 10
315.4
 20
323.4
 10
315.0555849108714
 20
323.33149157926016
 10
314.76360389693207
 20
323.1363961030679
 10
314.5685084207398
 20
322.8444150891286
 10
314.5
 20
322.5
 10
314.5685084207398
 20
322.1555849108714
 10
314.76360389693207
 20
321.8636038969321
 10
315.0555849108714
 20
321.66850842073984
 10
315.4
 20
321.6
 10
315.74441508912855
 20
321.66850842073984
 10
316.0363961030679
 20
321.8636038969321
 10
316.23149157926014
 20
322.1555849108714
 97
0
 75
0
 76
1
 98
0
  0
CIRCLE
  5
199
330
17
100
AcDbEntity
  8
S-REBAR-MAIN
100
AcDbCircle
 10
315.4
 20
337.5
 30
0.0
 40
0.9
  0
HATCH
  5
19A
330
17
100
AcDbEntity
  8
S-REBAR-MAIN
 62
1
100
AcDbHatch
 10
0.0
 20
0.0
 30
0.0
210
0.0
220
0.0
230
1.0
  2
SOLID
 70
1
 71
0
 91
1
 92
3
 72
0
 73
1
 93
16
 10
316.29999999999995
 20
337.5
 10
316.23149157926014
 20
337.8444150891286
 10
316.0363961030679
 20
338.1363961030679
 10
315.74441508912855
 20
338.33149157926016
 10
315.4
 20
338.4
 10
315.0555849108714
 20
338.33149157926016
 10
314.76360389693207
 20
338.1363961030679
 10
314.5685084207398
 20
337.8444150891286
 10
314.5
 20
337.5
 10
314.5685084207398
 20
337.1555849108714
 10
314.76360389693207
 20
336.8636038969321
 10
315.0555849108714
 20
336.66850842073984
 10
315.4
 20
336.6
 10
315.74441508912855
 20
336.66850842073984
 10
316.0363961030679
 20
336.8636038969321
 10
316.23149157926014
 20
337.1555849108714
 97
0
 75
0
 76
1
 98
0
  0
CIRCLE
  5
19B
330
17
100
AcDbEntity
  8
S-REBAR-MAIN
100
AcDbCircle
 10
315.4
 20
352.5
 30
0.0
 40
0.9
  0
HATCH
  5
19C
330
17
100
AcDbEntity
  8
S-REBAR-MAIN
 62
1
100
AcDbHatch
 10
0.0
 20
0.0
 30
0.0
210
0.0
220
0.0
230
1.0
  2
SOLID
 70
1
 71
0
 91
1
 92
3
 72
0
 73
1
 93
16
 10
316.29999999999995
 20
352.5
 10
316.23149157926014
 20
352.8444150891286
 10
316.0363961030679
 20
353.1363961030679
 10
315.74441508912855
 20
353.33149157926016
 10
315.4
 20
353.4
 10
315.0555849108714
 20
353.33149157926016
 10
314.76360389693207
 20
353.1363961030679
 10
314.5685084207398
 20
352.8444150891286
 10
314.5
 20
352.5
 10
314.5685084207398
 20
352.1555849108714
 10
314.76360389693207
 20
351.8636038969321
 10
315.0555849108714
 20
351.66850842073984
 10
315.4
 20
351.6
 10
315.74441508912855
 20
351.66850842073984
 10
316.0363961030679
 20
351.8636038969321
 10
316.23149157926014
 20
352.1555849108714
 97
0
 75
0
 76
1
 98
0
  0
CIRCLE
  5
19D
330
17
100
AcDbEntity
  8
S-REBAR-MAIN
100
AcDbCircle
 10
315.4
 20
367.5
 30
0.0
 40
0.9
  0
HATCH
  5
19E
330
17
100
AcDbEntity
  8
S-REBAR-MAIN
 62
1
100
AcDbHatch
 10
0.0
 20
0.0
 30
0.0
210
0.0
220
0.0
230
1.0
  2
SOLID
 70
1
 71
0
 91
1
 92
3
 72
0
 73
1
 93
16
 10
316.29999999999995
 20
367.5
 10
316.23149157926014
 20
367.8444150891286
 10
316.0363961030679
 20
368.1363961030679
 10
315.74441508912855
 20
368.33149157926016
 10
315.4
 20
368.4
 10
315.0555849108714
 20
368.33149157926016
 10
314.76360389693207
 20
368.1363961030679
 10
314.5685084207398
 20
367.8444150891286
 10
314.5
 20
367.5
 10
314.5685084207398
 20
367.1555849108714
 10
314.76360389693207
 20
366.8636038969321
 10
315.0555849108714
 20
366.66850842073984
 10
315.4
 20
366.6
 10
315.74441508912855
 20
366.66850842073984
 10
316.0363961030679
 20
366.8636038969321
 10
316.23149157926014
 20
367.1555849108714
 97
0
 75
0
 76
1
 98
0
  0
CIRCLE
  5
19F
330
17
100
AcDbEntity
  8
S-REBAR-MAIN
100
AcDbCircle
 10
315.4
 20
382.5
 30
0.0
 40
0.9
  0
HATCH
  5
1A0
330
17
100
AcDbEntity
  8
S-REBAR-MAIN
 62
1
100
AcDbHatch
 10
0.0
 20
0.0
 30
0.0
210
0.0
220
0.0
230
1.0
  2
SOLID
 70
1
 71
0
 91
1
 92
3
 72
0
 73
1
 93
16
 10
316.29999999999995
 20
382.5
 10
316.23149157926014
 20
382.8444150891286
 10
316.0363961030679
 20
383.1363961030679
 10
315.74441508912855
 20
383.33149157926016
 10
315.4
 20
383.4
 10
315.0555849108714
 20
383.33149157926016
 10
314.76360389693207
 20
383.1363961030679
 10
314.5685084207398
 20
382.8444150891286
 10
314.5
 20
382.5
 10
314.5685084207398
 20
382.1555849108714
 10
314.76360389693207
 20
381.8636038969321
 10
315.0555849108714
 20
381.66850842073984
 10
315.4
 20
381.6
 10
315.74441508912855
 20
381.66850842073984
 10
316.0363961030679
 20
381.8636038969321
 10
316.23149157926014
 20
382.1555849108714
 97
0
 75
0
 76
1
 98
0
  0
DIMENSION
  5
1A1
330
17
100
AcDbEntity
  8
S-DIM
100
AcDbDimension
280
0
  2
*D6
  3
SC-DIM
 10
300.0
 20
278.0
 30
0.0
 11
310.0
 21
279.7
 31
0.0
 70
32
 71
5
  1
<>
100
AcDbAlignedDimension
 13
300.0
 23
300.0
 33
0.0
 14
320.0
 24
300.0
 34
0.0
 50
0.0
100
AcDbRotatedDimension
1001
ACAD
1000
DSTYLE
1002
{
1070
144
1040
10.0
1002
}
  0
INSERT
  5
1B0
330
17
100
AcDbEntity
  8
S-CALLOUT
100
AcDbBlockReference
  2
BARMARK
 10
294.0
 20
404.0
 30
0.0
  0
TEXT
  5
1B2
330
17
100
AcDbEntity
  8
S-CALLOUT
100
AcDbText
 10
294.0
 20
404.0
 30
0.0
 40
2.0
  1
W16
  7
OpenSans
 72
1
 11
294.0
 21
404.0
 31
0.0
100
AcDbText
 73
2
  0
LEADER
  5
1B3
330
17
100
AcDbEntity
  8
S-CALLOUT
100
AcDbLeader
  3
SC-DIM
 73
3
 76
2
 10
304.6
 20
380.0
 30
0.0
 10
294.0
 20
404.0
 30
0.0
  0
TEXT
  5
1B4
330
17
100
AcDbEntity
  8
S-TITLE
100
AcDbText
 10
300.0
 20
424.0
 30
0.0
 40
3.5
  1
V3   WALL W5 200
  7
OpenSans
 11
300.0
 21
424.0
 31
0.0
100
AcDbText
  0
LINE
  5
1B5
330
17
100
AcDbEntity
  8
S-TITLE
100
AcDbLine
 10
300.0
 20
422.2
 30
0.0
 11
344.31614199598124
 21
422.2
 31
0.0
  0
TEXT
  5
1B6
330
17
100
AcDbEntity
  8
S-TEXT
100
AcDbText
 10
300.0
 20
416.8
 30
0.0
 40
2.0
  1
SCALE 1:10
  7
OpenSans
 11
300.0
 21
416.8
 31
0.0
100
AcDbText
  0
TEXT
  5
1B7
330
17
100
AcDbEntity
  8
S-TITLE
100
AcDbText
 10
350.0
 20
547.5
 30
0.0
 40
2.5
  1
LINK REQUIREMENTS - WHY THEY EXIST
  7
OpenSans
 11
350.0
 21
547.5
 31
0.0
100
AcDbText
  0
TEXT
  5
1B8
330
17
100
AcDbEntity
  8
S-NOTE
100
AcDbText
 10
350.0
 20
543.375
 30
0.0
 40
2.0
  1
IS 4991 Cl. 10.3.1.1 ALLOWS NO DYNAMIC INCREASE ON SHEAR.  tau_c and
  7
OpenSans
 11
350.0
 21
543.375
 31
0.0
100
AcDbText
  0
TEXT
  5
1B9
330
17
100
AcDbEntity
  8
S-NOTE
100
AcDbText
 10
350.0
 20
540.325
 30
0.0
 40
2.0
  1
tau_c,max are therefore read at the STATIC M35 value while the flexural
  7
OpenSans
 11
350.0
 21
540.325
 31
0.0
100
AcDbText
  0
TEXT
  5
1BA
330
17
100
AcDbEntity
  8
S-NOTE
100
AcDbText
 10
350.0
 20
537.2750000000001
 30
0.0
 40
2.0
  1
capacity uses fck,dyn 43.75 and fy,dyn 625.  This single rule is why the
  7
OpenSans
 11
350.0
 21
537.2750000000001
 31
0.0
100
AcDbText
  0
TEXT
  5
1BB
330
17
100
AcDbEntity
  8
S-NOTE
100
AcDbText
 10
350.0
 20
534.2250000000001
 30
0.0
 40
2.0
  1
perimeter walls, W6/W7, the mat, the roof, the headhouse roof and the
  7
OpenSans
 11
350.0
 21
534.2250000000001
 31
0.0
100
AcDbText
  0
TEXT
  5
1BC
330
17
100
AcDbEntity
  8
S-NOTE
100
AcDbText
 10
350.0
 20
531.1750000000002
 30
0.0
 40
2.0
  1
headhouse walls all carry links they would not otherwise need.
  7
OpenSans
 11
350.0
 21
531.1750000000002
 31
0.0
100
AcDbText
  0
TEXT
  5
1BD
330
17
100
AcDbEntity
  8
S-NOTE
100
AcDbText
 10
350.0
 20
525.0750000000003
 30
0.0
 40
2.0
  1
ELEMENT            tau_v    tau_c    Vus      Asv/sv   PROVIDED
  7
OpenSans
 11
350.0
 21
525.0750000000003
 31
0.0
100
AcDbText
  0
TEXT
  5
1BE
330
17
100
AcDbEntity
  8
S-NOTE
100
AcDbText
 10
350.0
 20
522.0250000000003
 30
0.0
 40
2.0
  1
Perimeter 600      0.802    0.375    220.8    0.982    T12 closed @ 200
  7
OpenSans
 11
350.0
 21
522.0250000000003
 31
0.0
100
AcDbText
  0
TEXT
  5
1BF
330
17
100
AcDbEntity
  8
S-NOTE
100
AcDbText
 10
350.0
 20
518.9750000000004
 30
0.0
 40
2.0
  1
W6 / W7 400        1.409    0.540    297.2    1.998    T12 4-leg  @ 200
  7
OpenSans
 11
350.0
 21
518.9750000000004
 31
0.0
100
AcDbText
  0
TEXT
  5
1C0
330
17
100
AcDbEntity
  8
S-NOTE
100
AcDbText
 10
350.0
 20
515.9250000000004
 30
0.0
 40
2.0
  1
Mat 600            0.770    0.375    204.2    0.908    T12 @ 250 x 250 grid
  7
OpenSans
 11
350.0
 21
515.9250000000004
 31
0.0
100
AcDbText
  0
TEXT
  5
1C1
330
17
100
AcDbEntity
  8
S-NOTE
100
AcDbText
 10
350.0
 20
512.8750000000005
 30
0.0
 40
2.0
  1
Roof 900           0.931    0.450    390.8    1.106    T12 4-leg  @ 250 end
  7
OpenSans
 11
350.0
 21
512.8750000000005
 31
0.0
100
AcDbText
  0
TEXT
  5
1C2
330
17
100
AcDbEntity
  8
S-NOTE
100
AcDbText
 10
350.0
 20
509.82500000000044
 30
0.0
 40
2.0
  1
Roof pad           1.015    0.450    459.4    1.300    T12 4-leg  @ 250
  7
OpenSans
 11
350.0
 21
509.82500000000044
 31
0.0
100
AcDbText
  0
TEXT
  5
1C3
330
17
100
AcDbEntity
  8
S-NOTE
100
AcDbText
 10
350.0
 20
506.77500000000043
 30
0.0
 40
2.0
  1
Headhouse roof     1.514    0.502    420.0    2.327    T12 4-leg  @ 175 end
  7
OpenSans
 11
350.0
 21
506.77500000000043
 31
0.0
100
AcDbText
  0
TEXT
  5
1C4
330
17
100
AcDbEntity
  8
S-NOTE
100
AcDbText
 10
350.0
 20
503.7250000000004
 30
0.0
 40
2.0
  1
Headhouse walls    0.961    0.444    176.9    1.189    T12 4-leg  @ 250
  7
OpenSans
 11
350.0
 21
503.7250000000004
 31
0.0
100
AcDbText
  0
TEXT
  5
1C5
330
17
100
AcDbEntity
  8
S-NOTE
100
AcDbText
 10
350.0
 20
497.6250000000004
 30
0.0
 40
2.0
  1
IS 456 Cl. 26.5.1.5 limits link spacing to min(0.75 d, 300).  For the
  7
OpenSans
 11
350.0
 21
497.6250000000004
 31
0.0
100
AcDbText
  0
TEXT
  5
1C6
330
17
100
AcDbEntity
  8
S-NOTE
100
AcDbText
 10
350.0
 20
494.5750000000004
 30
0.0
 40
2.0
  1
perimeter wall that is 300; for W6/W7 257; for the headhouse walls 256.
  7
OpenSans
 11
350.0
 21
494.5750000000004
 31
0.0
100
AcDbText
  0
TEXT
  5
1C7
330
17
100
AcDbEntity
  8
S-NOTE
100
AcDbText
 10
350.0
 20
491.5250000000004
 30
0.0
 40
2.0
  1
In every case the SPACING LIMIT, not the shear demand, sets the final
  7
OpenSans
 11
350.0
 21
491.5250000000004
 31
0.0
100
AcDbText
  0
TEXT
  5
1C8
330
17
100
AcDbEntity
  8
S-NOTE
100
AcDbText
 10
350.0
 20
488.47500000000036
 30
0.0
 40
2.0
  1
spacing adopted.
  7
OpenSans
 11
350.0
 21
488.47500000000036
 31
0.0
100
AcDbText
  0
TEXT
  5
1C9
330
17
100
AcDbEntity
  8
S-NOTE
100
AcDbText
 10
350.0
 20
482.37500000000034
 30
0.0
 40
2.0
  1
tau_c,max (IS 456 Table 20, M35) = 3.70 N/mm2.  NO SECTION APPROACHES IT.
  7
OpenSans
 11
350.0
 21
482.37500000000034
 31
0.0
100
AcDbText
  0
LWPOLYLINE
  5
1CA
330
17
100
AcDbEntity
  8
S-TITLE
100
AcDbPolyline
 90
4
 70
1
 10
348.0
 20
477.32500000000033
 10
640.0
 20
477.32500000000033
 10
640.0
 20
552.0
 10
348.0
 20
552.0
  0
TEXT
  5
1CB
330
17
100
AcDbEntity
  8
S-TITLE
100
AcDbText
 10
348.0
 20
472.32500000000033
 30
0.0
 40
2.5
  1
BAR SCHEDULE EXTRACT - THIS SHEET
  7
OpenSans
 11
348.0
 21
472.32500000000033
 31
0.0
100
AcDbText
  0
LWPOLYLINE
  5
1CC
330
17
100
AcDbEntity
  8
S-TABLE
100
AcDbPolyline
 90
4
 70
1
 10
348.0
 20
465.12500000000034
 10
457.0
 20
465.12500000000034
 10
457.0
 20
469.32500000000033
 10
348.0
 20
469.32500000000033
  0
TEXT
  5
1CD
330
17
100
AcDbEntity
  8
S-TABLE
100
AcDbText
 10
349.4
 20
466.381563636364
 30
0.0
 40
1.6868727272727269
  1
MARK
  7
OpenSans
 11
349.4
 21
466.381563636364
 31
0.0
100
AcDbText
  0
TEXT
  5
1CE
330
17
100
AcDbEntity
  8
S-TABLE
100
AcDbText
 10
366.4
 20
466.381563636364
 30
0.0
 40
1.6868727272727269
  1
DIA
  7
OpenSans
 11
366.4
 21
466.381563636364
 31
0.0
100
AcDbText
  0
TEXT
  5
1CF
330
17
100
AcDbEntity
  8
S-TABLE
100
AcDbText
 10
379.4
 20
466.381563636364
 30
0.0
 40
1.6868727272727269
  1
SHP
  7
OpenSans
 11
379.4
 21
466.381563636364
 31
0.0
100
AcDbText
  0
TEXT
  5
1D0
330
17
100
AcDbEntity
  8
S-TABLE
100
AcDbText
 10
391.4
 20
466.381563636364
 30
0.0
 40
1.6868727272727269
  1
SPAC
  7
OpenSans
 11
391.4
 21
466.381563636364
 31
0.0
100
AcDbText
  0
TEXT
  5
1D1
330
17
100
AcDbEntity
  8
S-TABLE
100
AcDbText
 10
406.4
 20
466.381563636364
 30
0.0
 40
1.6868727272727269
  1
No.
  7
OpenSans
 11
406.4
 21
466.381563636364
 31
0.0
100
AcDbText
  0
TEXT
  5
1D2
330
17
100
AcDbEntity
  8
S-TABLE
100
AcDbText
 10
421.4
 20
466.381563636364
 30
0.0
 40
1.6868727272727269
  1
CUT
  7
OpenSans
 11
421.4
 21
466.381563636364
 31
0.0
100
AcDbText
  0
TEXT
  5
1D3
330
17
100
AcDbEntity
  8
S-TABLE
100
AcDbText
 10
438.4
 20
466.381563636364
 30
0.0
 40
1.6868727272727269
  1
kg
  7
OpenSans
 11
438.4
 21
466.381563636364
 31
0.0
100
AcDbText
  0
TEXT
  5
1D4
330
17
100
AcDbEntity
  8
S-TABLE
100
AcDbText
 10
349.4
 20
462.181563636364
 30
0.0
 40
1.6868727272727269
  1
W05
  7
OpenSans
 11
349.4
 21
462.181563636364
 31
0.0
100
AcDbText
  0
TEXT
  5
1D5
330
17
100
AcDbEntity
  8
S-TABLE
100
AcDbText
 10
366.4
 20
462.181563636364
 30
0.0
 40
1.6868727272727269
  1
T12
  7
OpenSans
 11
366.4
 21
462.181563636364
 31
0.0
100
AcDbText
  0
TEXT
  5
1D6
330
17
100
AcDbEntity
  8
S-TABLE
100
AcDbText
 10
379.4
 20
462.181563636364
 30
0.0
 40
1.6868727272727269
  1
51
  7
OpenSans
 11
379.4
 21
462.181563636364
 31
0.0
100
AcDbText
  0
TEXT
  5
1D7
330
17
100
AcDbEntity
  8
S-TABLE
100
AcDbText
 10
391.4
 20
462.181563636364
 30
0.0
 40
1.6868727272727269
  1
200 x 200
  7
OpenSans
 11
391.4
 21
462.181563636364
 31
0.0
100
AcDbText
  0
TEXT
  5
1D8
330
17
100
AcDbEntity
  8
S-TABLE
100
AcDbText
 10
406.4
 20
462.181563636364
 30
0.0
 40
1.6868727272727269
  1
4320
  7
OpenSans
 11
406.4
 21
462.181563636364
 31
0.0
100
AcDbText
  0
TEXT
  5
1D9
330
17
100
AcDbEntity
  8
S-TABLE
100
AcDbText
 10
421.4
 20
462.181563636364
 30
0.0
 40
1.6868727272727269
  1
1540
  7
OpenSans
 11
421.4
 21
462.181563636364
 31
0.0
100
AcDbText
  0
TEXT
  5
1DA
330
17
100
AcDbEntity
  8
S-TABLE
100
AcDbText
 10
438.4
 20
462.181563636364
 30
0.0
 40
1.6868727272727269
  1
5906
  7
OpenSans
 11
438.4
 21
462.181563636364
 31
0.0
100
AcDbText
  0
LINE
  5
1DB
330
17
100
AcDbEntity
  8
S-TABLE
100
AcDbLine
 10
348.0
 20
460.92500000000035
 30
0.0
 11
457.0
 21
460.92500000000035
 31
0.0
  0
TEXT
  5
1DC
330
17
100
AcDbEntity
  8
S-TABLE
100
AcDbText
 10
349.4
 20
457.981563636364
 30
0.0
 40
1.6868727272727269
  1
W11
  7
OpenSans
 11
349.4
 21
457.981563636364
 31
0.0
100
AcDbText
  0
TEXT
  5
1DD
330
17
100
AcDbEntity
  8
S-TABLE
100
AcDbText
 10
366.4
 20
457.981563636364
 30
0.0
 40
1.6868727272727269
  1
T12
  7
OpenSans
 11
366.4
 21
457.981563636364
 31
0.0
100
AcDbText
  0
TEXT
  5
1DE
330
17
100
AcDbEntity
  8
S-TABLE
100
AcDbText
 10
379.4
 20
457.981563636364
 30
0.0
 40
1.6868727272727269
  1
51
  7
OpenSans
 11
379.4
 21
457.981563636364
 31
0.0
100
AcDbText
  0
TEXT
  5
1DF
330
17
100
AcDbEntity
  8
S-TABLE
100
AcDbText
 10
391.4
 20
457.981563636364
 30
0.0
 40
1.6868727272727269
  1
200 x 200
  7
OpenSans
 11
391.4
 21
457.981563636364
 31
0.0
100
AcDbText
  0
TEXT
  5
1E0
330
17
100
AcDbEntity
  8
S-TABLE
100
AcDbText
 10
406.4
 20
457.981563636364
 30
0.0
 40
1.6868727272727269
  1
1600
  7
OpenSans
 11
406.4
 21
457.981563636364
 31
0.0
100
AcDbText
  0
TEXT
  5
1E1
330
17
100
AcDbEntity
  8
S-TABLE
100
AcDbText
 10
421.4
 20
457.981563636364
 30
0.0
 40
1.6868727272727269
  1
1140
  7
OpenSans
 11
421.4
 21
457.981563636364
 31
0.0
100
AcDbText
  0
TEXT
  5
1E2
330
17
100
AcDbEntity
  8
S-TABLE
100
AcDbText
 10
438.4
 20
457.981563636364
 30
0.0
 40
1.6868727272727269
  1
1619
  7
OpenSans
 11
438.4
 21
457.981563636364
 31
0.0
100
AcDbText
  0
LINE
  5
1E3
330
17
100
AcDbEntity
  8
S-TABLE
100
AcDbLine
 10
348.0
 20
456.72500000000036
 30
0.0
 11
457.0
 21
456.72500000000036
 31
0.0
  0
TEXT
  5
1E4
330
17
100
AcDbEntity
  8
S-TABLE
100
AcDbText
 10
349.4
 20
453.781563636364
 30
0.0
 40
1.6868727272727269
  1
W14
  7
OpenSans
 11
349.4
 21
453.781563636364
 31
0.0
100
AcDbText
  0
TEXT
  5
1E5
330
17
100
AcDbEntity
  8
S-TABLE
100
AcDbText
 10
366.4
 20
453.781563636364
 30
0.0
 40
1.6868727272727269
  1
T12
  7
OpenSans
 11
366.4
 21
453.781563636364
 31
0.0
100
AcDbText
  0
TEXT
  5
1E6
330
17
100
AcDbEntity
  8
S-TABLE
100
AcDbText
 10
379.4
 20
453.781563636364
 30
0.0
 40
1.6868727272727269
  1
51
  7
OpenSans
 11
379.4
 21
453.781563636364
 31
0.0
100
AcDbText
  0
TEXT
  5
1E7
330
17
100
AcDbEntity
  8
S-TABLE
100
AcDbText
 10
391.4
 20
453.781563636364
 30
0.0
 40
1.6868727272727269
  1
150
  7
OpenSans
 11
391.4
 21
453.781563636364
 31
0.0
100
AcDbText
  0
TEXT
  5
1E8
330
17
100
AcDbEntity
  8
S-TABLE
100
AcDbText
 10
406.4
 20
453.781563636364
 30
0.0
 40
1.6868727272727269
  1
96
  7
OpenSans
 11
406.4
 21
453.781563636364
 31
0.0
100
AcDbText
  0
TEXT
  5
1E9
330
17
100
AcDbEntity
  8
S-TABLE
100
AcDbText
 10
421.4
 20
453.781563636364
 30
0.0
 40
1.6868727272727269
  1
1240
  7
OpenSans
 11
421.4
 21
453.781563636364
 31
0.0
100
AcDbText
  0
TEXT
  5
1EA
330
17
100
AcDbEntity
  8
S-TABLE
100
AcDbText
 10
438.4
 20
453.781563636364
 30
0.0
 40
1.6868727272727269
  1
106
  7
OpenSans
 11
438.4
 21
453.781563636364
 31
0.0
100
AcDbText
  0
LINE
  5
1EB
330
17
100
AcDbEntity
  8
S-TABLE
100
AcDbLine
 10
348.0
 20
452.5250000000004
 30
0.0
 11
457.0
 21
452.5250000000004
 31
0.0
  0
TEXT
  5
1EC
330
17
100
AcDbEntity
  8
S-TABLE
100
AcDbText
 10
349.4
 20
449.581563636364
 30
0.0
 40
1.6868727272727269
  1
W15
  7
OpenSans
 11
349.4
 21
449.581563636364
 31
0.0
100
AcDbText
  0
TEXT
  5
1ED
330
17
100
AcDbEntity
  8
S-TABLE
100
AcDbText
 10
366.4
 20
449.581563636364
 30
0.0
 40
1.6868727272727269
  1
T16
  7
OpenSans
 11
366.4
 21
449.581563636364
 31
0.0
100
AcDbText
  0
TEXT
  5
1EE
330
17
100
AcDbEntity
  8
S-TABLE
100
AcDbText
 10
379.4
 20
449.581563636364
 30
0.0
 40
1.6868727272727269
  1
21
  7
OpenSans
 11
379.4
 21
449.581563636364
 31
0.0
100
AcDbText
  0
TEXT
  5
1EF
330
17
100
AcDbEntity
  8
S-TABLE
100
AcDbText
 10
391.4
 20
449.581563636364
 30
0.0
 40
1.6868727272727269
  1
150
  7
OpenSans
 11
391.4
 21
449.581563636364
 31
0.0
100
AcDbText
  0
TEXT
  5
1F0
330
17
100
AcDbEntity
  8
S-TABLE
100
AcDbText
 10
406.4
 20
449.581563636364
 30
0.0
 40
1.6868727272727269
  1
88
  7
OpenSans
 11
406.4
 21
449.581563636364
 31
0.0
100
AcDbText
  0
TEXT
  5
1F1
330
17
100
AcDbEntity
  8
S-TABLE
100
AcDbText
 10
421.4
 20
449.581563636364
 30
0.0
 40
1.6868727272727269
  1
1580
  7
OpenSans
 11
421.4
 21
449.581563636364
 31
0.0
100
AcDbText
  0
TEXT
  5
1F2
330
17
100
AcDbEntity
  8
S-TABLE
100
AcDbText
 10
438.4
 20
449.581563636364
 30
0.0
 40
1.6868727272727269
  1
219
  7
OpenSans
 11
438.4
 21
449.581563636364
 31
0.0
100
AcDbText
  0
LINE
  5
1F3
330
17
100
AcDbEntity
  8
S-TABLE
100
AcDbLine
 10
348.0
 20
448.3250000000004
 30
0.0
 11
457.0
 21
448.3250000000004
 31
0.0
  0
TEXT
  5
1F4
330
17
100
AcDbEntity
  8
S-TABLE
100
AcDbText
 10
349.4
 20
445.38156363636404
 30
0.0
 40
1.6868727272727269
  1
W17
  7
OpenSans
 11
349.4
 21
445.38156363636404
 31
0.0
100
AcDbText
  0
TEXT
  5
1F5
330
17
100
AcDbEntity
  8
S-TABLE
100
AcDbText
 10
366.4
 20
445.38156363636404
 30
0.0
 40
1.6868727272727269
  1
T12
  7
OpenSans
 11
366.4
 21
445.38156363636404
 31
0.0
100
AcDbText
  0
TEXT
  5
1F6
330
17
100
AcDbEntity
  8
S-TABLE
100
AcDbText
 10
379.4
 20
445.38156363636404
 30
0.0
 40
1.6868727272727269
  1
21
  7
OpenSans
 11
379.4
 21
445.38156363636404
 31
0.0
100
AcDbText
  0
TEXT
  5
1F7
330
17
100
AcDbEntity
  8
S-TABLE
100
AcDbText
 10
391.4
 20
445.38156363636404
 30
0.0
 40
1.6868727272727269
  1
150
  7
OpenSans
 11
391.4
 21
445.38156363636404
 31
0.0
100
AcDbText
  0
TEXT
  5
1F8
330
17
100
AcDbEntity
  8
S-TABLE
100
AcDbText
 10
406.4
 20
445.38156363636404
 30
0.0
 40
1.6868727272727269
  1
44
  7
OpenSans
 11
406.4
 21
445.38156363636404
 31
0.0
100
AcDbText
  0
TEXT
  5
1F9
330
17
100
AcDbEntity
  8
S-TABLE
100
AcDbText
 10
421.4
 20
445.38156363636404
 30
0.0
 40
1.6868727272727269
  1
5960
  7
OpenSans
 11
421.4
 21
445.38156363636404
 31
0.0
100
AcDbText
  0
TEXT
  5
1FA
330
17
100
AcDbEntity
  8
S-TABLE
100
AcDbText
 10
438.4
 20
445.38156363636404
 30
0.0
 40
1.6868727272727269
  1
233
  7
OpenSans
 11
438.4
 21
445.38156363636404
 31
0.0
100
AcDbText
  0
LINE
  5
1FB
330
17
100
AcDbEntity
  8
S-TABLE
100
AcDbLine
 10
348.0
 20
444.1250000000004
 30
0.0
 11
457.0
 21
444.1250000000004
 31
0.0
  0
LINE
  5
1FC
330
17
100
AcDbEntity
  8
S-TABLE
100
AcDbLine
 10
348.0
 20
469.32500000000033
 30
0.0
 11
457.0
 21
469.32500000000033
 31
0.0
  0
LINE
  5
1FD
330
17
100
AcDbEntity
  8
S-TABLE
100
AcDbLine
 10
348.0
 20
469.32500000000033
 30
0.0
 11
348.0
 21
444.1250000000004
 31
0.0
  0
LINE
  5
1FE
330
17
100
AcDbEntity
  8
S-TABLE
100
AcDbLine
 10
365.0
 20
469.32500000000033
 30
0.0
 11
365.0
 21
444.1250000000004
 31
0.0
  0
LINE
  5
1FF
330
17
100
AcDbEntity
  8
S-TABLE
100
AcDbLine
 10
378.0
 20
469.32500000000033
 30
0.0
 11
378.0
 21
444.1250000000004
 31
0.0
  0
LINE
  5
200
330
17
100
AcDbEntity
  8
S-TABLE
100
AcDbLine
 10
390.0
 20
469.32500000000033
 30
0.0
 11
390.0
 21
444.1250000000004
 31
0.0
  0
LINE
  5
201
330
17
100
AcDbEntity
  8
S-TABLE
100
AcDbLine
 10
405.0
 20
469.32500000000033
 30
0.0
 11
405.0
 21
444.1250000000004
 31
0.0
  0
LINE
  5
202
330
17
100
AcDbEntity
  8
S-TABLE
100
AcDbLine
 10
420.0
 20
469.32500000000033
 30
0.0
 11
420.0
 21
444.1250000000004
 31
0.0
  0
LINE
  5
203
330
17
100
AcDbEntity
  8
S-TABLE
100
AcDbLine
 10
437.0
 20
469.32500000000033
 30
0.0
 11
437.0
 21
444.1250000000004
 31
0.0
  0
LINE
  5
204
330
17
100
AcDbEntity
  8
S-TABLE
100
AcDbLine
 10
457.0
 20
469.32500000000033
 30
0.0
 11
457.0
 21
444.1250000000004
 31
0.0
  0
TEXT
  5
205
330
17
100
AcDbEntity
  8
S-TABLE
100
AcDbText
 10
348.0
 20
439.7250000000004
 30
0.0
 40
1.4
  1
SHEET SUB-TOTAL  8,084 kg     FULL SCHEDULE: R-004 and Structural CAD/Schedules/BBS_MASTER.md
  7
OpenSans
 11
348.0
 21
439.7250000000004
 31
0.0
100
AcDbText
  0
TEXT
  5
206
330
17
100
AcDbEntity
  8
S-TITLE
100
AcDbText
 10
650.0
 20
547.5
 30
0.0
 40
2.5
  1
MATERIALS, COVER AND ANCHORAGE
  7
OpenSans
 11
650.0
 21
547.5
 31
0.0
100
AcDbText
  0
TEXT
  5
207
330
17
100
AcDbEntity
  8
S-NOTE
100
AcDbText
 10
650.0
 20
543.375
 30
0.0
 40
2.0
  1
CONCRETE          M35 to IS 456 Table 5.  w/c <= 0.45, cement >= 340 kg/m3.
  7
OpenSans
 11
650.0
 21
543.375
 31
0.0
100
AcDbText
  0
TEXT
  5
208
330
17
100
AcDbEntity
  8
S-NOTE
100
AcDbText
 10
650.0
 20
540.375
 30
0.0
 40
2.0
  1
                  Integral crystalline waterproofing admixture.
  7
OpenSans
 11
650.0
 21
540.375
 31
0.0
100
AcDbText
  0
TEXT
  5
209
330
17
100
AcDbEntity
  8
S-NOTE
100
AcDbText
 10
650.0
 20
537.375
 30
0.0
 40
2.0
  1
                  Blinding M15, 100 thk.
  7
OpenSans
 11
650.0
 21
537.375
 31
0.0
100
AcDbText
  0
TEXT
  5
20A
330
17
100
AcDbEntity
  8
S-NOTE
100
AcDbText
 10
650.0
 20
534.375
 30
0.0
 40
2.0
  1
REINFORCEMENT     Fe500D to IS 1786:2008.
  7
OpenSans
 11
650.0
 21
534.375
 31
0.0
100
AcDbText
  0
TEXT
  5
20B
330
17
100
AcDbEntity
  8
S-NOTE
100
AcDbText
 10
650.0
 20
531.375
 30
0.0
 40
2.0
  1
Ec = 5000 sqrt(fck) = 29 580 N/mm2   (IS 456 Cl. 6.2.3.1)
  7
OpenSans
 11
650.0
 21
531.375
 31
0.0
100
AcDbText
  0
TEXT
  5
20C
330
17
100
AcDbEntity
  8
S-NOTE
100
AcDbText
 10
650.0
 20
528.375
 30
0.0
 40
2.0
  1
gamma_m           1.5 concrete / 1.15 steel  (IS 456 Cl. 36.4.2)
  7
OpenSans
 11
650.0
 21
528.375
 31
0.0
100
AcDbText
  0
TEXT
  5
20D
330
17
100
AcDbEntity
  8
S-NOTE
100
AcDbText
 10
650.0
 20
522.375
 30
0.0
 40
2.0
  1
BLAST CASE ONLY   IS 4991 Cl. 10.3.1:  fck,dyn 43.75  ·  fy,dyn 625
  7
OpenSans
 11
650.0
 21
522.375
 31
0.0
100
AcDbText
  0
TEXT
  5
20E
330
17
100
AcDbEntity
  8
S-NOTE
100
AcDbText
 10
650.0
 20
519.375
 30
0.0
 40
2.0
  1
*** NO DYNAMIC INCREASE ON SHEAR - IS 4991 Cl. 10.3.1.1 ***
  7
OpenSans
 11
650.0
 21
519.375
 31
0.0
100
AcDbText
  0
TEXT
  5
20F
330
17
100
AcDbEntity
  8
S-NOTE
100
AcDbText
 10
650.0
 20
516.375
 30
0.0
 40
2.0
  1
tau_c and tau_c,max are read at the STATIC M35 value in every check.
  7
OpenSans
 11
650.0
 21
516.375
 31
0.0
100
AcDbText
  0
TEXT
  5
210
330
17
100
AcDbEntity
  8
S-NOTE
100
AcDbText
 10
650.0
 20
510.375
 30
0.0
 40
2.0
  1
COVER   75 cast against blinding · 50 formed earth face
  7
OpenSans
 11
650.0
 21
510.375
 31
0.0
100
AcDbText
  0
TEXT
  5
211
330
17
100
AcDbEntity
  8
S-NOTE
100
AcDbText
 10
650.0
 20
507.375
 30
0.0
 40
2.0
  1
        40 internal · 30 stair-shaft faces
  7
OpenSans
 11
650.0
 21
507.375
 31
0.0
100
AcDbText
  0
TEXT
  5
212
330
17
100
AcDbEntity
  8
S-NOTE
100
AcDbText
 10
650.0
 20
504.375
 30
0.0
 40
2.0
  1
        The 5 mm reduction IS 456 Table 16 permits for M35 is NOT taken.
  7
OpenSans
 11
650.0
 21
504.375
 31
0.0
100
AcDbText
  0
TEXT
  5
213
330
17
100
AcDbEntity
  8
S-NOTE
100
AcDbText
 10
650.0
 20
498.375
 30
0.0
 40
2.0
  1
Ld TENSION 40 phi  ·  Ld COMPRESSION 32 phi  ·  LAP 50 phi STAGGERED
  7
OpenSans
 11
650.0
 21
498.375
 31
0.0
100
AcDbText
  0
TEXT
  5
214
330
17
100
AcDbEntity
  8
S-NOTE
100
AcDbText
 10
650.0
 20
495.375
 30
0.0
 40
2.0
  1
T8 320/400 · T10 400/500 · T12 480/600 · T16 640/800
  7
OpenSans
 11
650.0
 21
495.375
 31
0.0
100
AcDbText
  0
TEXT
  5
215
330
17
100
AcDbEntity
  8
S-NOTE
100
AcDbText
 10
650.0
 20
492.375
 30
0.0
 40
2.0
  1
T20 800/1000 · T25 1000/1250        (Ld / lap, mm)
  7
OpenSans
 11
650.0
 21
492.375
 31
0.0
100
AcDbText
  0
TEXT
  5
216
330
17
100
AcDbEntity
  8
S-NOTE
100
AcDbText
 10
650.0
 20
489.375
 30
0.0
 40
2.0
  1
The IS 4991 Cl. 10.3.1.1 +25 % blast bond allowance is NOT taken.
  7
OpenSans
 11
650.0
 21
489.375
 31
0.0
100
AcDbText
  0
TEXT
  5
217
330
17
100
AcDbEntity
  8
S-NOTE
100
AcDbText
 10
650.0
 20
483.375
 30
0.0
 40
2.0
  1
*** MAXIMUM BAR SPACING 150 BOTH CURTAINS - EMP REQUIREMENT ***
  7
OpenSans
 11
650.0
 21
483.375
 31
0.0
100
AcDbText
  0
TEXT
  5
218
330
17
100
AcDbEntity
  8
S-NOTE
100
AcDbText
 10
650.0
 20
480.375
 30
0.0
 40
2.0
  1
    stricter than IS 456 Cl. 26.3.3 and than every code minimum.
  7
OpenSans
 11
650.0
 21
480.375
 31
0.0
100
AcDbText
  0
LWPOLYLINE
  5
219
330
17
100
AcDbEntity
  8
S-TITLE
100
AcDbPolyline
 90
4
 70
1
 10
648.0
 20
475.375
 10
831.0
 20
475.375
 10
831.0
 20
552.0
 10
648.0
 20
552.0
  0
LWPOLYLINE
  5
21A
330
17
100
AcDbEntity
  8
S-TITLE
100
AcDbPolyline
 90
4
 70
1
 10
651.0
 20
10.0
 10
831.0
 20
10.0
 10
831.0
 20
110.0
 10
651.0
 20
110.0
  0
LINE
  5
21B
330
17
100
AcDbEntity
  8
S-TITLE
100
AcDbLine
 10
651.0
 20
30.0
 30
0.0
 11
831.0
 21
30.0
 31
0.0
  0
LINE
  5
21C
330
17
100
AcDbEntity
  8
S-TITLE
100
AcDbLine
 10
651.0
 20
42.0
 30
0.0
 11
831.0
 21
42.0
 31
0.0
  0
LINE
  5
21D
330
17
100
AcDbEntity
  8
S-TITLE
100
AcDbLine
 10
651.0
 20
54.0
 30
0.0
 11
831.0
 21
54.0
 31
0.0
  0
LINE
  5
21E
330
17
100
AcDbEntity
  8
S-TITLE
100
AcDbLine
 10
651.0
 20
66.0
 30
0.0
 11
831.0
 21
66.0
 31
0.0
  0
LINE
  5
21F
330
17
100
AcDbEntity
  8
S-TITLE
100
AcDbLine
 10
651.0
 20
88.0
 30
0.0
 11
831.0
 21
88.0
 31
0.0
  0
LINE
  5
220
330
17
100
AcDbEntity
  8
S-TITLE
100
AcDbLine
 10
763.0
 20
10.0
 30
0.0
 11
763.0
 21
30.0
 31
0.0
  0
LINE
  5
221
330
17
100
AcDbEntity
  8
S-TITLE
100
AcDbLine
 10
797.0
 20
10.0
 30
0.0
 11
797.0
 21
30.0
 31
0.0
  0
TEXT
  5
222
330
17
100
AcDbEntity
  8
S-TITLE
100
AcDbText
 10
653.0
 20
24.6
 30
0.0
 40
1.4
  1
DRAWING No.
  7
OpenSans
 11
653.0
 21
24.6
 31
0.0
100
AcDbText
  0
TEXT
  5
223
330
17
100
AcDbEntity
  8
S-TITLE
100
AcDbText
 10
673.0
 20
14.2
 30
0.0
 40
3.5
  1
R-204
  7
OpenSans
 11
673.0
 21
14.2
 31
0.0
100
AcDbText
  0
TEXT
  5
224
330
17
100
AcDbEntity
  8
S-TITLE
100
AcDbText
 10
765.0
 20
24.6
 30
0.0
 40
1.4
  1
REV
  7
OpenSans
 11
765.0
 21
24.6
 31
0.0
100
AcDbText
  0
TEXT
  5
225
330
17
100
AcDbEntity
  8
S-TITLE
100
AcDbText
 10
769.0
 20
14.2
 30
0.0
 40
3.5
  1
SC1
  7
OpenSans
 11
769.0
 21
14.2
 31
0.0
100
AcDbText
  0
TEXT
  5
226
330
17
100
AcDbEntity
  8
S-TITLE
100
AcDbText
 10
799.0
 20
24.6
 30
0.0
 40
1.4
  1
SHEET
  7
OpenSans
 11
799.0
 21
24.6
 31
0.0
100
AcDbText
  0
TEXT
  5
227
330
17
100
AcDbEntity
  8
S-TITLE
100
AcDbText
 10
799.0
 20
15.0
 30
0.0
 40
1.6
  1
11 OF 30
  7
OpenSans
 11
799.0
 21
15.0
 31
0.0
100
AcDbText
  0
LINE
  5
228
330
17
100
AcDbEntity
  8
S-TITLE
100
AcDbLine
 10
747.0
 20
30.0
 30
0.0
 11
747.0
 21
42.0
 31
0.0
  0
TEXT
  5
229
330
17
100
AcDbEntity
  8
S-TITLE
100
AcDbText
 10
653.0
 20
34.4
 30
0.0
 40
1.6
  1
SCALE   1:10
  7
OpenSans
 11
653.0
 21
34.4
 31
0.0
100
AcDbText
  0
TEXT
  5
22A
330
17
100
AcDbEntity
  8
S-TITLE
100
AcDbText
 10
749.0
 20
34.4
 30
0.0
 40
1.6
  1
DATE   04.09.2026
  7
OpenSans
 11
749.0
 21
34.4
 31
0.0
100
AcDbText
  0
TEXT
  5
22B
330
17
100
AcDbEntity
  8
S-TITLE
100
AcDbText
 10
653.0
 20
46.4
 30
0.0
 40
1.4
  1
DESIGNED  [PLACEHOLDER]
  7
OpenSans
 11
653.0
 21
46.4
 31
0.0
100
AcDbText
  0
TEXT
  5
22C
330
17
100
AcDbEntity
  8
S-TITLE
100
AcDbText
 10
713.0
 20
46.4
 30
0.0
 40
1.4
  1
CHECKED  [PLACEHOLDER]
  7
OpenSans
 11
713.0
 21
46.4
 31
0.0
100
AcDbText
  0
TEXT
  5
22D
330
17
100
AcDbEntity
  8
S-TITLE
100
AcDbText
 10
773.0
 20
46.4
 30
0.0
 40
1.4
  1
APPROVED  [PLACEHOLDER]
  7
OpenSans
 11
773.0
 21
46.4
 31
0.0
100
AcDbText
  0
TEXT
  5
22E
330
17
100
AcDbEntity
  8
S-TITLE
100
AcDbText
 10
653.0
 20
58.4
 30
0.0
 40
1.4
  1
STATUS
  7
OpenSans
 11
653.0
 21
58.4
 31
0.0
100
AcDbText
  0
TEXT
  5
22F
330
17
100
AcDbEntity
  8
S-BLAST
100
AcDbText
 10
673.0
 20
58.0
 30
0.0
 40
1.6
  1
FOR REVIEW - NOT FOR CONSTRUCTION
  7
OpenSans
 11
673.0
 21
58.0
 31
0.0
100
AcDbText
  0
TEXT
  5
230
330
17
100
AcDbEntity
  8
S-TITLE
100
AcDbText
 10
653.0
 20
83.4
 30
0.0
 40
1.4
  1
DRAWING TITLE
  7
OpenSans
 11
653.0
 21
83.4
 31
0.0
100
AcDbText
  0
TEXT
  5
231
330
17
100
AcDbEntity
  8
S-TITLE
100
AcDbText
 10
653.0
 20
75.4
 30
0.0
 40
2.4
  1
WALL SECTIONS
  7
OpenSans
 11
653.0
 21
75.4
 31
0.0
100
AcDbText
  0
TEXT
  5
232
330
17
100
AcDbEntity
  8
S-TITLE
100
AcDbText
 10
653.0
 20
68.8
 30
0.0
 40
1.4
  1
PERIMETER 600 · W6 / W7 400 · W5 200 · LINK ARRANGEMENTS
  7
OpenSans
 11
653.0
 21
68.8
 31
0.0
100
AcDbText
  0
TEXT
  5
233
330
17
100
AcDbEntity
  8
S-TITLE
100
AcDbText
 10
653.0
 20
105.2
 30
0.0
 40
1.4
  1
PROJECT
  7
OpenSans
 11
653.0
 21
105.2
 31
0.0
100
AcDbText
  0
TEXT
  5
234
330
17
100
AcDbEntity
  8
S-TITLE
100
AcDbText
 10
653.0
 20
99.6
 30
0.0
 40
1.6
  1
UNDERGROUND CBRN-HARDENED BLAST-RESISTANT
  7
OpenSans
 11
653.0
 21
99.6
 31
0.0
100
AcDbText
  0
TEXT
  5
235
330
17
100
AcDbEntity
  8
S-TITLE
100
AcDbText
 10
653.0
 20
95.0
 30
0.0
 40
1.6
  1
PROTECTIVE STRUCTURE  -  PUNE, MAHARASHTRA
  7
OpenSans
 11
653.0
 21
95.0
 31
0.0
100
AcDbText
  0
TEXT
  5
236
330
17
100
AcDbEntity
  8
S-TITLE
100
AcDbText
 10
653.0
 20
90.0
 30
0.0
 40
1.4
  1
STRUCTURAL PHASE 2 REV A + M1   ·   SENTRY POST NOT IN THIS PACKAGE
  7
OpenSans
 11
653.0
 21
90.0
 31
0.0
100
AcDbText
  0
ENDSEC
  0
SECTION
  2
OBJECTS
  0
DICTIONARY
  5
A
330
0
100
AcDbDictionary
281
1
  3
ACAD_COLOR
350
B
  3
ACAD_GROUP
350
C
  3
ACAD_LAYOUT
350
D
  3
ACAD_MATERIAL
350
E
  3
ACAD_MLEADERSTYLE
350
F
  3
ACAD_MLINESTYLE
350
10
  3
ACAD_PLOTSETTINGS
350
11
  3
ACAD_PLOTSTYLENAME
350
12
  3
ACAD_SCALELIST
350
14
  3
ACAD_TABLESTYLE
350
15
  3
ACAD_VISUALSTYLE
350
16
  3
EZDXF_META
350
2D
  0
DICTIONARY
  5
B
330
A
100
AcDbDictionary
281
1
  0
DICTIONARY
  5
C
330
A
100
AcDbDictionary
281
1
  0
DICTIONARY
  5
D
330
A
100
AcDbDictionary
281
1
  3
Model
350
1A
  3
Layout1
350
1E
  0
DICTIONARY
  5
E
330
A
100
AcDbDictionary
281
1
  3
ByBlock
350
1F
  3
ByLayer
350
20
  3
Global
350
21
  0
DICTIONARY
  5
F
330
A
100
AcDbDictionary
281
1
  3
Standard
350
2C
  0
DICTIONARY
  5
10
330
A
100
AcDbDictionary
281
1
  3
Standard
350
22
  0
DICTIONARY
  5
11
330
A
100
AcDbDictionary
281
1
  0
ACDBDICTIONARYWDFLT
  5
12
330
A
100
AcDbDictionary
281
1
  3
Normal
350
13
100
AcDbDictionaryWithDefault
340
13
  0
ACDBPLACEHOLDER
  5
13
330
12
  0
DICTIONARY
  5
14
330
A
100
AcDbDictionary
281
1
  0
DICTIONARY
  5
15
330
A
100
AcDbDictionary
281
1
  0
DICTIONARY
  5
16
330
A
100
AcDbDictionary
281
1
  3
2dWireframe
350
5A
  3
Basic
350
5B
  3
Brighten
350
5C
  3
ColorChange
350
5D
  3
Conceptual
350
5E
  3
Dim
350
5F
  3
EdgeColorOff
350
60
  3
Facepattern
350
61
  3
Flat
350
62
  3
FlatWithEdges
350
63
  3
Gouraud
350
64
  3
GouraudWithEdges
350
65
  3
Hidden
350
66
  3
JitterOff
350
67
  3
Linepattern
350
68
  3
Modeling
350
69
  3
OverhangOff
350
6A
  3
Realistic
350
6B
  3
Shaded
350
6C
  3
Shaded with edges
350
6D
  3
Shades of Gray
350
6E
  3
Sketchy
350
6F
  3
Thicken
350
70
  3
Wireframe
350
71
  3
X-Ray
350
72
  0
LAYOUT
  5
1A
330
D
100
AcDbPlotSettings
  1

  4
A3
  6

 40
7.5
 41
20.0
 42
7.5
 43
20.0
 44
420.0
 45
297.0
 46
0.0
 47
0.0
 48
0.0
 49
0.0
140
0.0
141
0.0
142
1.0
143
1.0
 70
1024
 72
1
 73
0
 74
5
  7

 75
16
 76
0
 77
2
 78
300
147
1.0
148
0.0
149
0.0
100
AcDbLayout
  1
Model
 70
1
 71
0
 10
0.0
 20
0.0
 11
420.0
 21
297.0
 12
0.0
 22
0.0
 32
0.0
 14
1e+20
 24
1e+20
 34
1e+20
 15
-1e+20
 25
-1e+20
 35
-1e+20
146
0.0
 13
0.0
 23
0.0
 33
0.0
 16
1.0
 26
0.0
 36
0.0
 17
0.0
 27
1.0
 37
0.0
 76
1
330
17
  0
LAYOUT
  5
1E
330
D
100
AcDbPlotSettings
  1

  4
A3
  6

 40
7.5
 41
20.0
 42
7.5
 43
20.0
 44
420.0
 45
297.0
 46
0.0
 47
0.0
 48
0.0
 49
0.0
140
0.0
141
0.0
142
1.0
143
1.0
 70
0
 72
1
 73
0
 74
5
  7

 75
16
 76
0
 77
2
 78
300
147
1.0
148
0.0
149
0.0
100
AcDbLayout
  1
Layout1
 70
1
 71
1
 10
0.0
 20
0.0
 11
420.0
 21
297.0
 12
0.0
 22
0.0
 32
0.0
 14
1e+20
 24
1e+20
 34
1e+20
 15
-1e+20
 25
-1e+20
 35
-1e+20
146
0.0
 13
0.0
 23
0.0
 33
0.0
 16
1.0
 26
0.0
 36
0.0
 17
0.0
 27
1.0
 37
0.0
 76
1
330
1B
  0
MATERIAL
  5
1F
102
{ACAD_REACTORS
330
E
102
}
330
E
100
AcDbMaterial
  1
ByBlock
  2

 70
0
 40
1.0
 71
1
 41
1.0
 91
-1023410177
 42
1.0
 72
1
  3

 73
1
 74
1
 75
1
 44
0.5
 73
0
 45
1.0
 46
1.0
 77
1
  4

 78
1
 79
1
170
1
 48
1.0
171
1
  6

172
1
173
1
174
1
140
1.0
141
1.0
175
1
  7

176
1
177
1
178
1
143
1.0
179
1
  8

270
1
271
1
272
1
145
1.0
146
1.0
273
1
  9

274
1
275
1
276
1
 42
1.0
 72
1
  3

 73
1
 74
1
 75
1
 94
63
  0
MATERIAL
  5
20
102
{ACAD_REACTORS
330
E
102
}
330
E
100
AcDbMaterial
  1
ByLayer
  2

 70
0
 40
1.0
 71
1
 41
1.0
 91
-1023410177
 42
1.0
 72
1
  3

 73
1
 74
1
 75
1
 44
0.5
 73
0
 45
1.0
 46
1.0
 77
1
  4

 78
1
 79
1
170
1
 48
1.0
171
1
  6

172
1
173
1
174
1
140
1.0
141
1.0
175
1
  7

176
1
177
1
178
1
143
1.0
179
1
  8

270
1
271
1
272
1
145
1.0
146
1.0
273
1
  9

274
1
275
1
276
1
 42
1.0
 72
1
  3

 73
1
 74
1
 75
1
 94
63
  0
MATERIAL
  5
21
102
{ACAD_REACTORS
330
E
102
}
330
E
100
AcDbMaterial
  1
Global
  2

 70
0
 40
1.0
 71
1
 41
1.0
 91
-1023410177
 42
1.0
 72
1
  3

 73
1
 74
1
 75
1
 44
0.5
 73
0
 45
1.0
 46
1.0
 77
1
  4

 78
1
 79
1
170
1
 48
1.0
171
1
  6

172
1
173
1
174
1
140
1.0
141
1.0
175
1
  7

176
1
177
1
178
1
143
1.0
179
1
  8

270
1
271
1
272
1
145
1.0
146
1.0
273
1
  9

274
1
275
1
276
1
 42
1.0
 72
1
  3

 73
1
 74
1
 75
1
 94
63
  0
MLINESTYLE
  5
22
102
{ACAD_REACTORS
330
10
102
}
330
10
100
AcDbMlineStyle
  2
Standard
 70
0
  3

 62
256
 51
90.0
 52
90.0
 71
2
 49
0.5
 62
256
  6
BYLAYER
 49
-0.5
 62
256
  6
BYLAYER
  0
MLEADERSTYLE
  5
2C
102
{ACAD_REACTORS
330
F
102
}
330
F
100
AcDbMLeaderStyle
179
2
170
2
171
1
172
0
 90
2
 40
0.0
 41
0.0
173
1
 91
-1056964608
 92
-2
290
1
 42
2.0
291
1
 43
8.0
  3
Standard
 44
4.0
300

342
29
174
1
175
1
176
0
178
1
 93
-1056964608
 45
4.0
292
0
297
0
 46
4.0
 94
-1056964608
 47
1.0
 49
1.0
140
1.0
294
1
141
0.0
177
0
142
1.0
295
0
296
0
143
3.75
271
0
272
9
273
9
  0
DICTIONARY
  5
2D
330
A
100
AcDbDictionary
280
1
281
1
  3
CREATED_BY_EZDXF
350
2E
  3
WRITTEN_BY_EZDXF
350
239
  0
DICTIONARYVAR
  5
2E
330
2D
100
DictionaryVariables
280
0
  1
1.4.4 @ 2026-09-10T10:31:07.144144+00:00
  0
VISUALSTYLE
  5
5A
102
{ACAD_REACTORS
330
16
102
}
330
16
100
AcDbVisualStyle
  2
2dWireframe
 70
4
 90
0
 40
0.6
 62
7
290
0
291
0
  0
VISUALSTYLE
  5
5B
102
{ACAD_REACTORS
330
16
102
}
330
16
100
AcDbVisualStyle
  2
Basic
 70
7
 90
1
 40
0.6
 62
7
290
0
291
1
  0
VISUALSTYLE
  5
5C
102
{ACAD_REACTORS
330
16
102
}
330
16
100
AcDbVisualStyle
  2
Brighten
 70
12
 90
2
 40
0.6
 62
7
290
0
291
1
  0
VISUALSTYLE
  5
5D
102
{ACAD_REACTORS
330
16
102
}
330
16
100
AcDbVisualStyle
  2
ColorChange
 70
16
 90
2
 40
0.6
 62
8
290
0
291
1
  0
VISUALSTYLE
  5
5E
102
{ACAD_REACTORS
330
16
102
}
330
16
100
AcDbVisualStyle
  2
Conceptual
 70
9
 90
3
 40
0.6
 62
7
290
0
291
0
  0
VISUALSTYLE
  5
5F
102
{ACAD_REACTORS
330
16
102
}
330
16
100
AcDbVisualStyle
  2
Dim
 70
11
 90
2
 40
0.6
 62
7
290
0
291
1
  0
VISUALSTYLE
  5
60
102
{ACAD_REACTORS
330
16
102
}
330
16
100
AcDbVisualStyle
  2
EdgeColorOff
 70
22
 90
2
 40
0.6
 62
7
290
0
291
1
  0
VISUALSTYLE
  5
61
102
{ACAD_REACTORS
330
16
102
}
330
16
100
AcDbVisualStyle
  2
Facepattern
 70
15
 90
2
 40
0.6
 62
7
290
0
291
1
  0
VISUALSTYLE
  5
62
102
{ACAD_REACTORS
330
16
102
}
330
16
100
AcDbVisualStyle
  2
Flat
 70
0
 90
2
 40
0.6
 62
7
290
0
291
1
  0
VISUALSTYLE
  5
63
102
{ACAD_REACTORS
330
16
102
}
330
16
100
AcDbVisualStyle
  2
FlatWithEdges
 70
1
 90
2
 40
0.6
 62
7
290
0
291
1
  0
VISUALSTYLE
  5
64
102
{ACAD_REACTORS
330
16
102
}
330
16
100
AcDbVisualStyle
  2
Gouraud
 70
2
 90
2
 40
0.6
 62
7
290
0
291
1
  0
VISUALSTYLE
  5
65
102
{ACAD_REACTORS
330
16
102
}
330
16
100
AcDbVisualStyle
  2
GouraudWithEdges
 70
3
 90
2
 40
0.6
 62
7
290
0
291
1
  0
VISUALSTYLE
  5
66
102
{ACAD_REACTORS
330
16
102
}
330
16
100
AcDbVisualStyle
  2
Hidden
 70
6
 90
1
 40
0.6
 62
7
290
0
291
0
  0
VISUALSTYLE
  5
67
102
{ACAD_REACTORS
330
16
102
}
330
16
100
AcDbVisualStyle
  2
JitterOff
 70
20
 90
2
 40
0.6
 62
7
290
0
291
1
  0
VISUALSTYLE
  5
68
102
{ACAD_REACTORS
330
16
102
}
330
16
100
AcDbVisualStyle
  2
Linepattern
 70
14
 90
2
 40
0.6
 62
7
290
0
291
1
  0
VISUALSTYLE
  5
69
102
{ACAD_REACTORS
330
16
102
}
330
16
100
AcDbVisualStyle
  2
Modeling
 70
10
 90
2
 40
0.6
 62
7
290
0
291
0
  0
VISUALSTYLE
  5
6A
102
{ACAD_REACTORS
330
16
102
}
330
16
100
AcDbVisualStyle
  2
OverhangOff
 70
21
 90
2
 40
0.6
 62
7
290
0
291
1
  0
VISUALSTYLE
  5
6B
102
{ACAD_REACTORS
330
16
102
}
330
16
100
AcDbVisualStyle
  2
Realistic
 70
8
 90
2
 40
0.6
 62
7
290
0
291
0
  0
VISUALSTYLE
  5
6C
102
{ACAD_REACTORS
330
16
102
}
330
16
100
AcDbVisualStyle
  2
Shaded
 70
27
 90
2
 40
0.6
 62
7
290
0
291
0
  0
VISUALSTYLE
  5
6D
102
{ACAD_REACTORS
330
16
102
}
330
16
100
AcDbVisualStyle
  2
Shaded with edges
 70
26
 90
2
 40
0.6
 62
7
290
0
291
0
  0
VISUALSTYLE
  5
6E
102
{ACAD_REACTORS
330
16
102
}
330
16
100
AcDbVisualStyle
  2
Shades of Gray
 70
23
 90
2
 40
0.6
 62
7
290
0
291
0
  0
VISUALSTYLE
  5
6F
102
{ACAD_REACTORS
330
16
102
}
330
16
100
AcDbVisualStyle
  2
Sketchy
 70
24
 90
1
 40
0.6
 62
7
290
0
291
0
  0
VISUALSTYLE
  5
70
102
{ACAD_REACTORS
330
16
102
}
330
16
100
AcDbVisualStyle
  2
Thicken
 70
13
 90
2
 40
0.6
 62
7
290
0
291
1
  0
VISUALSTYLE
  5
71
102
{ACAD_REACTORS
330
16
102
}
330
16
100
AcDbVisualStyle
  2
Wireframe
 70
5
 90
0
 40
0.6
 62
7
290
0
291
0
  0
VISUALSTYLE
  5
72
102
{ACAD_REACTORS
330
16
102
}
330
16
100
AcDbVisualStyle
  2
X-Ray
 70
25
 90
2
 40
0.5
 62
7
290
0
291
0
  0
DICTIONARYVAR
  5
239
330
2D
100
DictionaryVariables
280
0
  1
1.4.4 @ 2026-09-10T10:31:07.160852+00:00
  0
ENDSEC
  0
EOF
