  0
SECTION
  2
HEADER
  9
$ACADVER
  1
AC1024
  9
$ACADMAINTVER
 70
6
  9
$DWGCODEPAGE
  3
ANSI_1252
  9
$LASTSAVEDBY
  1
ezdxf
  9
$INSBASE
 10
0.0
 20
0.0
 30
0.0
  9
$EXTMIN
 10
1e+20
 20
1e+20
 30
1e+20
  9
$EXTMAX
 10
-1e+20
 20
-1e+20
 30
-1e+20
  9
$LIMMIN
 10
0.0
 20
0.0
  9
$LIMMAX
 10
420.0
 20
297.0
  9
$ORTHOMODE
 70
0
  9
$REGENMODE
 70
1
  9
$FILLMODE
 70
1
  9
$QTEXTMODE
 70
0
  9
$MIRRTEXT
 70
1
  9
$LTSCALE
 40
1.0
  9
$ATTMODE
 70
1
  9
$TEXTSIZE
 40
2.5
  9
$TRACEWID
 40
1.0
  9
$TEXTSTYLE
  7
OpenSans
  9
$CLAYER
  8
0
  9
$CELTYPE
  6
ByLayer
  9
$CECOLOR
 62
256
  9
$CELTSCALE
 40
1.0
  9
$DISPSILH
 70
0
  9
$DIMSCALE
 40
1.0
  9
$DIMASZ
 40
0.175
  9
$DIMEXO
 40
0.125
  9
$DIMDLI
 40
3.75
  9
$DIMRND
 40
0.0
  9
$DIMDLE
 40
0.0
  9
$DIMEXE
 40
0.375
  9
$DIMTP
 40
0.0
  9
$DIMTM
 40
0.0
  9
$DIMTXT
 40
0.25
  9
$DIMCEN
 40
2.5
  9
$DIMTSZ
 40
0.0
  9
$DIMTOL
 70
0
  9
$DIMLIM
 70
0
  9
$DIMTIH
 70
0
  9
$DIMTOH
 70
0
  9
$DIMSE1
 70
0
  9
$DIMSE2
 70
0
  9
$DIMTAD
 70
1
  9
$DIMZIN
 70
12
  9
$DIMBLK
  1
ARCHTICK
  9
$DIMASO
 70
1
  9
$DIMSHO
 70
1
  9
$DIMPOST
  1

  9
$DIMAPOST
  1

  9
$DIMALT
 70
0
  9
$DIMALTD
 70
3
  9
$DIMALTF
 40
0.03937007874
  9
$DIMLFAC
 40
100.0
  9
$DIMTOFL
 70
1
  9
$DIMTVP
 40
0.0
  9
$DIMTIX
 70
0
  9
$DIMSOXD
 70
0
  9
$DIMSAH
 70
0
  9
$DIMBLK1
  1

  9
$DIMBLK2
  1

  9
$DIMSTYLE
  2
EZDXF
  9
$DIMCLRD
 70
0
  9
$DIMCLRE
 70
0
  9
$DIMCLRT
 70
0
  9
$DIMTFAC
 40
0.5
  9
$DIMGAP
 40
0.1
  9
$DIMJUST
 70
0
  9
$DIMSD1
 70
0
  9
$DIMSD2
 70
0
  9
$DIMTOLJ
 70
0
  9
$DIMTZIN
 70
8
  9
$DIMALTZ
 70
0
  9
$DIMALTTZ
 70
0
  9
$DIMUPT
 70
1
  9
$DIMDEC
 70
2
  9
$DIMTDEC
 70
2
  9
$DIMALTU
 70
2
  9
$DIMALTTD
 70
3
  9
$DIMTXSTY
  7
OpenSansCondensed-Light
  9
$DIMAUNIT
 70
0
  9
$DIMADEC
 70
2
  9
$DIMALTRND
 40
0.0
  9
$DIMAZIN
 70
3
  9
$DIMDSEP
 70
46
  9
$DIMATFIT
 70
3
  9
$DIMFRAC
 70
0
  9
$DIMLDRBLK
  1

  9
$DIMLUNIT
 70
2
  9
$DIMLWD
 70
-2
  9
$DIMLWE
 70
-2
  9
$DIMTMOVE
 70
2
  9
$DIMFXL
 40
1.0
  9
$DIMFXLON
 70
0
  9
$DIMJOGANG
 40
0.785398163397
  9
$DIMTFILL
 70
0
  9
$DIMTFILLCLR
 70
0
  9
$DIMARCSYM
 70
0
  9
$DIMLTYPE
  6

  9
$DIMLTEX1
  6

  9
$DIMLTEX2
  6

  9
$DIMTXTDIRECTION
 70
0
  9
$LUNITS
 70
2
  9
$LUPREC
 70
4
  9
$SKETCHINC
 40
1.0
  9
$FILLETRAD
 40
10.0
  9
$AUNITS
 70
0
  9
$AUPREC
 70
2
  9
$MENU
  1
.
  9
$ELEVATION
 40
0.0
  9
$PELEVATION
 40
0.0
  9
$THICKNESS
 40
0.0
  9
$LIMCHECK
 70
0
  9
$CHAMFERA
 40
0.0
  9
$CHAMFERB
 40
0.0
  9
$CHAMFERC
 40
0.0
  9
$CHAMFERD
 40
0.0
  9
$SKPOLY
 70
0
  9
$TDCREATE
 40
2461294.071469907
  9
$TDUCREATE
 40
2458532.153996898
  9
$TDUPDATE
 40
2461294.071469907
  9
$TDUUPDATE
 40
2458532.1544311
  9
$TDINDWG
 40
0.0
  9
$TDUSRTIMER
 40
0.0
  9
$USRTIMER
 70
1
  9
$ANGBASE
 50
0.0
  9
$ANGDIR
 70
0
  9
$PDMODE
 70
0
  9
$PDSIZE
 40
0.0
  9
$PLINEWID
 40
0.0
  9
$SPLFRAME
 70
0
  9
$SPLINETYPE
 70
6
  9
$SPLINESEGS
 70
8
  9
$HANDSEED
  5
254
  9
$SURFTAB1
 70
6
  9
$SURFTAB2
 70
6
  9
$SURFTYPE
 70
6
  9
$SURFU
 70
6
  9
$SURFV
 70
6
  9
$UCSBASE
  2

  9
$UCSNAME
  2

  9
$UCSORG
 10
0.0
 20
0.0
 30
0.0
  9
$UCSXDIR
 10
1.0
 20
0.0
 30
0.0
  9
$UCSYDIR
 10
0.0
 20
1.0
 30
0.0
  9
$UCSORTHOREF
  2

  9
$UCSORTHOVIEW
 70
0
  9
$UCSORGTOP
 10
0.0
 20
0.0
 30
0.0
  9
$UCSORGBOTTOM
 10
0.0
 20
0.0
 30
0.0
  9
$UCSORGLEFT
 10
0.0
 20
0.0
 30
0.0
  9
$UCSORGRIGHT
 10
0.0
 20
0.0
 30
0.0
  9
$UCSORGFRONT
 10
0.0
 20
0.0
 30
0.0
  9
$UCSORGBACK
 10
0.0
 20
0.0
 30
0.0
  9
$PUCSBASE
  2

  9
$PUCSNAME
  2

  9
$PUCSORG
 10
0.0
 20
0.0
 30
0.0
  9
$PUCSXDIR
 10
1.0
 20
0.0
 30
0.0
  9
$PUCSYDIR
 10
0.0
 20
1.0
 30
0.0
  9
$PUCSORTHOREF
  2

  9
$PUCSORTHOVIEW
 70
0
  9
$PUCSORGTOP
 10
0.0
 20
0.0
 30
0.0
  9
$PUCSORGBOTTOM
 10
0.0
 20
0.0
 30
0.0
  9
$PUCSORGLEFT
 10
0.0
 20
0.0
 30
0.0
  9
$PUCSORGRIGHT
 10
0.0
 20
0.0
 30
0.0
  9
$PUCSORGFRONT
 10
0.0
 20
0.0
 30
0.0
  9
$PUCSORGBACK
 10
0.0
 20
0.0
 30
0.0
  9
$USERI1
 70
0
  9
$USERI2
 70
0
  9
$USERI3
 70
0
  9
$USERI4
 70
0
  9
$USERI5
 70
0
  9
$USERR1
 40
0.0
  9
$USERR2
 40
0.0
  9
$USERR3
 40
0.0
  9
$USERR4
 40
0.0
  9
$USERR5
 40
0.0
  9
$WORLDVIEW
 70
1
  9
$SHADEDGE
 70
3
  9
$SHADEDIF
 70
70
  9
$TILEMODE
 70
1
  9
$MAXACTVP
 70
64
  9
$PINSBASE
 10
0.0
 20
0.0
 30
0.0
  9
$PLIMCHECK
 70
0
  9
$PEXTMIN
 10
1e+20
 20
1e+20
 30
1e+20
  9
$PEXTMAX
 10
-1e+20
 20
-1e+20
 30
-1e+20
  9
$PLIMMIN
 10
0.0
 20
0.0
  9
$PLIMMAX
 10
420.0
 20
297.0
  9
$UNITMODE
 70
0
  9
$VISRETAIN
 70
1
  9
$PLINEGEN
 70
0
  9
$PSLTSCALE
 70
1
  9
$TREEDEPTH
 70
3020
  9
$CMLSTYLE
  2
Standard
  9
$CMLJUST
 70
0
  9
$CMLSCALE
 40
20.0
  9
$PROXYGRAPHICS
 70
1
  9
$MEASUREMENT
 70
1
  9
$CELWEIGHT
370
-1
  9
$ENDCAPS
280
0
  9
$JOINSTYLE
280
0
  9
$LWDISPLAY
290
0
  9
$INSUNITS
 70
4
  9
$HYPERLINKBASE
  1

  9
$STYLESHEET
  1

  9
$XEDIT
290
1
  9
$CEPSNTYPE
380
0
  9
$PSTYLEMODE
290
1
  9
$FINGERPRINTGUID
  2
{703D0C28-E2F7-4774-A1CD-979B30A3F7F5}
  9
$VERSIONGUID
  2
{F996E017-F982-4170-A8B3-97A328E21556}
  9
$EXTNAMES
290
1
  9
$PSVPSCALE
 40
0.0
  9
$OLESTARTUP
290
0
  9
$SORTENTS
280
127
  9
$INDEXCTL
280
0
  9
$HIDETEXT
280
1
  9
$XCLIPFRAME
280
1
  9
$HALOGAP
280
0
  9
$OBSCOLOR
 70
257
  9
$OBSLTYPE
280
0
  9
$INTERSECTIONDISPLAY
280
0
  9
$INTERSECTIONCOLOR
 70
257
  9
$DIMASSOC
280
2
  9
$PROJECTNAME
  1

  9
$CAMERADISPLAY
290
0
  9
$LENSLENGTH
 40
50.0
  9
$CAMERAHEIGHT
 40
0.0
  9
$STEPSPERSEC
 40
24.0
  9
$STEPSIZE
 40
100.0
  9
$3DDWFPREC
 40
2.0
  9
$PSOLWIDTH
 40
0.005
  9
$PSOLHEIGHT
 40
0.08
  9
$LOFTANG1
 40
1.570796326795
  9
$LOFTANG2
 40
1.570796326795
  9
$LOFTMAG1
 40
0.0
  9
$LOFTMAG2
 40
0.0
  9
$LOFTPARAM
 70
7
  9
$LOFTNORMALS
280
1
  9
$LATITUDE
 40
37.795
  9
$LONGITUDE
 40
-122.394
  9
$NORTHDIRECTION
 40
0.0
  9
$TIMEZONE
 70
-8000
  9
$LIGHTGLYPHDISPLAY
280
1
  9
$TILEMODELIGHTSYNCH
280
1
  9
$CMATERIAL
347
20
  9
$SOLIDHIST
280
0
  9
$SHOWHIST
280
1
  9
$DWFFRAME
280
2
  9
$DGNFRAME
280
2
  9
$REALWORLDSCALE
290
1
  9
$INTERFERECOLOR
 62
256
  9
$CSHADOW
280
0
  9
$SHADOWPLANELOCATION
 40
0.0
  0
ENDSEC
  0
SECTION
  2
CLASSES
  0
CLASS
  1
ACDBDICTIONARYWDFLT
  2
AcDbDictionaryWithDefault
  3
ObjectDBX Classes
 90
0
 91
0
280
0
281
0
  0
CLASS
  1
SUN
  2
AcDbSun
  3
SCENEOE
 90
1153
 91
0
280
0
281
0
  0
CLASS
  1
VISUALSTYLE
  2
AcDbVisualStyle
  3
ObjectDBX Classes
 90
4095
 91
0
280
0
281
0
  0
CLASS
  1
MATERIAL
  2
AcDbMaterial
  3
ObjectDBX Classes
 90
1153
 91
0
280
0
281
0
  0
CLASS
  1
SCALE
  2
AcDbScale
  3
ObjectDBX Classes
 90
1153
 91
0
280
0
281
0
  0
CLASS
  1
TABLESTYLE
  2
AcDbTableStyle
  3
ObjectDBX Classes
 90
4095
 91
0
280
0
281
0
  0
CLASS
  1
MLEADERSTYLE
  2
AcDbMLeaderStyle
  3
ACDB_MLEADERSTYLE_CLASS
 90
4095
 91
0
280
0
281
0
  0
CLASS
  1
DICTIONARYVAR
  2
AcDbDictionaryVar
  3
ObjectDBX Classes
 90
0
 91
0
280
0
281
0
  0
CLASS
  1
CELLSTYLEMAP
  2
AcDbCellStyleMap
  3
ObjectDBX Classes
 90
1152
 91
0
280
0
281
0
  0
CLASS
  1
MENTALRAYRENDERSETTINGS
  2
AcDbMentalRayRenderSettings
  3
SCENEOE
 90
1024
 91
0
280
0
281
0
  0
CLASS
  1
ACDBDETAILVIEWSTYLE
  2
AcDbDetailViewStyle
  3
ObjectDBX Classes
 90
1025
 91
0
280
0
281
0
  0
CLASS
  1
ACDBSECTIONVIEWSTYLE
  2
AcDbSectionViewStyle
  3
ObjectDBX Classes
 90
1025
 91
0
280
0
281
0
  0
CLASS
  1
RASTERVARIABLES
  2
AcDbRasterVariables
  3
ISM
 90
0
 91
0
280
0
281
0
  0
CLASS
  1
LAYOUT
  2
AcDbLayout
  3
ObjectDBX Classes
 90
0
 91
0
280
0
281
0
  0
CLASS
  1
ACDBPLACEHOLDER
  2
AcDbPlaceHolder
  3
ObjectDBX Classes
 90
0
 91
0
280
0
281
0
  0
ENDSEC
  0
SECTION
  2
TABLES
  0
TABLE
  2
VPORT
  5
8
330
0
100
AcDbSymbolTable
 70
1
  0
VPORT
  5
23
330
8
100
AcDbSymbolTableRecord
100
AcDbViewportTableRecord
  2
*Active
 70
0
 10
0.0
 20
0.0
 11
1.0
 21
1.0
 12
0.0
 22
0.0
 13
0.0
 23
0.0
 14
0.5
 24
0.5
 15
0.5
 25
0.5
 16
0.0
 26
0.0
 36
1.0
 17
0.0
 27
0.0
 37
0.0
 40
1000.0
 41
1.34
 42
50.0
 43
0.0
 44
0.0
 50
0.0
 51
0.0
 71
0
 72
1000
 73
1
 74
3
 75
0
 76
0
 77
0
 78
0
281
0
 65
0
146
0.0
  0
ENDTAB
  0
TABLE
  2
LTYPE
  5
2
330
0
100
AcDbSymbolTable
 70
21
  0
LTYPE
  5
24
330
2
100
AcDbSymbolTableRecord
100
AcDbLinetypeTableRecord
  2
ByBlock
 70
0
  3

 72
65
 73
0
 40
0.0
  0
LTYPE
  5
25
330
2
100
AcDbSymbolTableRecord
100
AcDbLinetypeTableRecord
  2
ByLayer
 70
0
  3

 72
65
 73
0
 40
0.0
  0
LTYPE
  5
26
330
2
100
AcDbSymbolTableRecord
100
AcDbLinetypeTableRecord
  2
Continuous
 70
0
  3

 72
65
 73
0
 40
0.0
  0
LTYPE
  5
2F
330
2
100
AcDbSymbolTableRecord
100
AcDbLinetypeTableRecord
  2
CENTER
 70
0
  3
Center ____ _ ____ _ ____ _ ____ _ ____ _ ____
 72
65
 73
4
 40
5.08
 49
3.175
 74
0
 49
-0.635
 74
0
 49
0.635
 74
0
 49
-0.635
 74
0
  0
LTYPE
  5
30
330
2
100
AcDbSymbolTableRecord
100
AcDbLinetypeTableRecord
  2
CENTERX2
 70
0
  3
Center (2x) ________  __  ________  __  ________
 72
65
 73
4
 40
8.89
 49
6.35
 74
0
 49
-0.635
 74
0
 49
1.27
 74
0
 49
-0.635
 74
0
  0
LTYPE
  5
31
330
2
100
AcDbSymbolTableRecord
100
AcDbLinetypeTableRecord
  2
CENTER2
 70
0
  3
Center (.5x) ____ _ ____ _ ____ _ ____ _ ____
 72
65
 73
4
 40
2.54
 49
1.587
 74
0
 49
-0.318
 74
0
 49
0.318
 74
0
 49
-0.318
 74
0
  0
LTYPE
  5
32
330
2
100
AcDbSymbolTableRecord
100
AcDbLinetypeTableRecord
  2
DASHED
 70
0
  3
Dashed __ __ __ __ __ __ __ __ __ __ __ __ __ _
 72
65
 73
2
 40
1.524
 49
1.27
 74
0
 49
-0.254
 74
0
  0
LTYPE
  5
33
330
2
100
AcDbSymbolTableRecord
100
AcDbLinetypeTableRecord
  2
DASHEDX2
 70
0
  3
Dashed (2x) ____  ____  ____  ____  ____  ____
 72
65
 73
2
 40
3.048
 49
2.54
 74
0
 49
-0.508
 74
0
  0
LTYPE
  5
34
330
2
100
AcDbSymbolTableRecord
100
AcDbLinetypeTableRecord
  2
DASHED2
 70
0
  3
Dashed (.5x) _ _ _ _ _ _ _ _ _ _ _ _ _ _
 72
65
 73
2
 40
0.762
 49
0.635
 74
0
 49
-0.127
 74
0
  0
LTYPE
  5
35
330
2
100
AcDbSymbolTableRecord
100
AcDbLinetypeTableRecord
  2
PHANTOM
 70
0
  3
Phantom ______  __  __  ______  __  __  ______
 72
65
 73
6
 40
6.35
 49
3.175
 74
0
 49
-0.635
 74
0
 49
0.635
 74
0
 49
-0.635
 74
0
 49
0.635
 74
0
 49
-0.635
 74
0
  0
LTYPE
  5
36
330
2
100
AcDbSymbolTableRecord
100
AcDbLinetypeTableRecord
  2
PHANTOMX2
 70
0
  3
Phantom (2x)____________    ____    ____    ____________
 72
65
 73
6
 40
10.795
 49
6.35
 74
0
 49
-0.635
 74
0
 49
1.27
 74
0
 49
-0.635
 74
0
 49
1.27
 74
0
 49
-0.635
 74
0
  0
LTYPE
  5
37
330
2
100
AcDbSymbolTableRecord
100
AcDbLinetypeTableRecord
  2
PHANTOM2
 70
0
  3
Phantom (.5x) ___ _ _ ___ _ _ ___ _ _ ___ _ _ ___
 72
65
 73
6
 40
3.175
 49
1.587
 74
0
 49
-0.318
 74
0
 49
0.318
 74
0
 49
-0.318
 74
0
 49
0.318
 74
0
 49
-0.318
 74
0
  0
LTYPE
  5
38
330
2
100
AcDbSymbolTableRecord
100
AcDbLinetypeTableRecord
  2
DASHDOT
 70
0
  3
Dash dot __ . __ . __ . __ . __ . __ . __ . __
 72
65
 73
4
 40
3.556
 49
2.54
 74
0
 49
-0.508
 74
0
 49
0.0
 74
0
 49
-0.508
 74
0
  0
LTYPE
  5
39
330
2
100
AcDbSymbolTableRecord
100
AcDbLinetypeTableRecord
  2
DASHDOTX2
 70
0
  3
Dash dot (2x) ____  .  ____  .  ____  .  ____
 72
65
 73
4
 40
6.096
 49
5.08
 74
0
 49
-0.508
 74
0
 49
0.0
 74
0
 49
-0.508
 74
0
  0
LTYPE
  5
3A
330
2
100
AcDbSymbolTableRecord
100
AcDbLinetypeTableRecord
  2
DASHDOT2
 70
0
  3
Dash dot (.5x) _ . _ . _ . _ . _ . _ . _ . _
 72
65
 73
4
 40
1.778
 49
1.27
 74
0
 49
-0.254
 74
0
 49
0.0
 74
0
 49
-0.254
 74
0
  0
LTYPE
  5
3B
330
2
100
AcDbSymbolTableRecord
100
AcDbLinetypeTableRecord
  2
DOT
 70
0
  3
Dot .  .  .  .  .  .  .  .  .  .  .  .  .  .  .  .
 72
65
 73
2
 40
0.508
 49
0.0
 74
0
 49
-0.508
 74
0
  0
LTYPE
  5
3C
330
2
100
AcDbSymbolTableRecord
100
AcDbLinetypeTableRecord
  2
DOTX2
 70
0
  3
Dot (2x) .    .    .    .    .    .    .    . 
 72
65
 73
2
 40
1.016
 49
0.0
 74
0
 49
-1.016
 74
0
  0
LTYPE
  5
3D
330
2
100
AcDbSymbolTableRecord
100
AcDbLinetypeTableRecord
  2
DOT2
 70
0
  3
Dot (.5) . . . . . . . . . . . . . . . . . . . 
 72
65
 73
2
 40
0.254
 49
0.0
 74
0
 49
-0.254
 74
0
  0
LTYPE
  5
3E
330
2
100
AcDbSymbolTableRecord
100
AcDbLinetypeTableRecord
  2
DIVIDE
 70
0
  3
Divide __ . . __ . . __ . . __ . . __ . . __
 72
65
 73
6
 40
4.064
 49
2.54
 74
0
 49
-0.508
 74
0
 49
0.0
 74
0
 49
-0.508
 74
0
 49
0.0
 74
0
 49
-0.508
 74
0
  0
LTYPE
  5
3F
330
2
100
AcDbSymbolTableRecord
100
AcDbLinetypeTableRecord
  2
DIVIDEX2
 70
0
  3
Divide (2x) ____  . .  ____  . .  ____  . .  ____
 72
65
 73
6
 40
6.604
 49
5.08
 74
0
 49
-0.508
 74
0
 49
0.0
 74
0
 49
-0.508
 74
0
 49
0.0
 74
0
 49
-0.508
 74
0
  0
LTYPE
  5
40
330
2
100
AcDbSymbolTableRecord
100
AcDbLinetypeTableRecord
  2
DIVIDE2
 70
0
  3
Divide(.5x) _ . _ . _ . _ . _ . _ . _ . _
 72
65
 73
6
 40
2.032
 49
1.27
 74
0
 49
-0.254
 74
0
 49
0.0
 74
0
 49
-0.254
 74
0
 49
0.0
 74
0
 49
-0.254
 74
0
  0
ENDTAB
  0
TABLE
  2
LAYER
  5
1
330
0
100
AcDbSymbolTable
 70
26
  0
LAYER
  5
27
330
1
100
AcDbSymbolTableRecord
100
AcDbLayerTableRecord
  2
0
 70
0
 62
7
  6
Continuous
370
-3
390
13
347
21
  0
LAYER
  5
28
330
1
100
AcDbSymbolTableRecord
100
AcDbLayerTableRecord
  2
Defpoints
 70
0
 62
7
  6
Continuous
290
0
370
-3
390
13
347
21
  0
LAYER
  5
8A
330
1
100
AcDbSymbolTableRecord
100
AcDbLayerTableRecord
  2
S-CONCRETE
 70
0
 62
7
  6
Continuous
370
-3
390
13
347
21
1001
AcAecLayerStandard
1000

1000
Structural concrete outlines (cut)
  0
LAYER
  5
8C
330
1
100
AcDbSymbolTableRecord
100
AcDbLayerTableRecord
  2
S-CONCRETE-THIN
 70
0
 62
7
  6
Continuous
370
-3
390
13
347
21
1001
AcAecLayerStandard
1000

1000
Concrete beyond the cut plane
  0
LAYER
  5
8D
330
1
100
AcDbSymbolTableRecord
100
AcDbLayerTableRecord
  2
S-HIDDEN
 70
0
 62
8
  6
Continuous
370
-3
390
13
347
21
1001
AcAecLayerStandard
1000

1000
Concrete / features beyond, hidden
  0
LAYER
  5
8E
330
1
100
AcDbSymbolTableRecord
100
AcDbLayerTableRecord
  2
S-REBAR-MAIN
 70
0
 62
1
  6
Continuous
370
-3
390
13
347
21
1001
AcAecLayerStandard
1000

1000
Main reinforcement
  0
LAYER
  5
8F
330
1
100
AcDbSymbolTableRecord
100
AcDbLayerTableRecord
  2
S-REBAR-DIST
 70
0
 62
3
  6
Continuous
370
-3
390
13
347
21
1001
AcAecLayerStandard
1000

1000
Distribution reinforcement
  0
LAYER
  5
90
330
1
100
AcDbSymbolTableRecord
100
AcDbLayerTableRecord
  2
S-REBAR-STIRRUP
 70
0
 62
6
  6
Continuous
370
-3
390
13
347
21
1001
AcAecLayerStandard
1000

1000
Links and stirrups
  0
LAYER
  5
91
330
1
100
AcDbSymbolTableRecord
100
AcDbLayerTableRecord
  2
S-REBAR-TIE
 70
0
 62
6
  6
Continuous
370
-3
390
13
347
21
1001
AcAecLayerStandard
1000

1000
Ties, cross-ties, starters
  0
LAYER
  5
92
330
1
100
AcDbSymbolTableRecord
100
AcDbLayerTableRecord
  2
S-REBAR-SEC
 70
0
 62
4
  6
Continuous
370
-3
390
13
347
21
1001
AcAecLayerStandard
1000

1000
Trimmers, secondary and additional bars
  0
LAYER
  5
93
330
1
100
AcDbSymbolTableRecord
100
AcDbLayerTableRecord
  2
S-DIM
 70
0
 62
4
  6
Continuous
370
-3
390
13
347
21
1001
AcAecLayerStandard
1000

1000
Dimensions
  0
LAYER
  5
94
330
1
100
AcDbSymbolTableRecord
100
AcDbLayerTableRecord
  2
S-TEXT
 70
0
 62
7
  6
Continuous
370
-3
390
13
347
21
1001
AcAecLayerStandard
1000

1000
General annotation
  0
LAYER
  5
95
330
1
100
AcDbSymbolTableRecord
100
AcDbLayerTableRecord
  2
S-NOTE
 70
0
 62
7
  6
Continuous
370
-3
390
13
347
21
1001
AcAecLayerStandard
1000

1000
Note panels
  0
LAYER
  5
96
330
1
100
AcDbSymbolTableRecord
100
AcDbLayerTableRecord
  2
S-CALLOUT
 70
0
 62
2
  6
Continuous
370
-3
390
13
347
21
1001
AcAecLayerStandard
1000

1000
Bar-mark balloons and leaders
  0
LAYER
  5
97
330
1
100
AcDbSymbolTableRecord
100
AcDbLayerTableRecord
  2
S-SECTION
 70
0
 62
1
  6
Continuous
370
-3
390
13
347
21
1001
AcAecLayerStandard
1000

1000
Section and detail markers
  0
LAYER
  5
98
330
1
100
AcDbSymbolTableRecord
100
AcDbLayerTableRecord
  2
S-GRID
 70
0
 62
5
  6
Continuous
370
-3
390
13
347
21
1001
AcAecLayerStandard
1000

1000
Grid lines and bubbles
  0
LAYER
  5
99
330
1
100
AcDbSymbolTableRecord
100
AcDbLayerTableRecord
  2
S-CENTER
 70
0
 62
6
  6
Continuous
370
-3
390
13
347
21
1001
AcAecLayerStandard
1000

1000
Centrelines
  0
LAYER
  5
9A
330
1
100
AcDbSymbolTableRecord
100
AcDbLayerTableRecord
  2
S-HATCH
 70
0
 62
8
  6
Continuous
370
-3
390
13
347
21
1001
AcAecLayerStandard
1000

1000
Section hatch
  0
LAYER
  5
9B
330
1
100
AcDbSymbolTableRecord
100
AcDbLayerTableRecord
  2
S-TITLE
 70
0
 62
7
  6
Continuous
370
-3
390
13
347
21
1001
AcAecLayerStandard
1000

1000
Border, title block, view titles
  0
LAYER
  5
9C
330
1
100
AcDbSymbolTableRecord
100
AcDbLayerTableRecord
  2
S-EXISTING
 70
0
 62
8
  6
Continuous
370
-3
390
13
347
21
1001
AcAecLayerStandard
1000

1000
Soil, rock, berm, cover layers
  0
LAYER
  5
9D
330
1
100
AcDbSymbolTableRecord
100
AcDbLayerTableRecord
  2
S-REFERENCE
 70
0
 62
8
  6
Continuous
370
-3
390
13
347
21
1001
AcAecLayerStandard
1000

1000
Reference geometry, extents
  0
LAYER
  5
9E
330
1
100
AcDbSymbolTableRecord
100
AcDbLayerTableRecord
  2
S-WATERPROOF
 70
0
 62
30
  6
Continuous
370
-3
390
13
347
21
1001
AcAecLayerStandard
1000

1000
Membranes, waterstops, GWT
  0
LAYER
  5
9F
330
1
100
AcDbSymbolTableRecord
100
AcDbLayerTableRecord
  2
S-STEELWORK
 70
0
 62
2
  6
Continuous
370
-3
390
13
347
21
1001
AcAecLayerStandard
1000

1000
Cast-in frames, EMP straps, steel items
  0
LAYER
  5
A0
330
1
100
AcDbSymbolTableRecord
100
AcDbLayerTableRecord
  2
S-LEVEL
 70
0
 62
4
  6
Continuous
370
-3
390
13
347
21
1001
AcAecLayerStandard
1000

1000
Level markers
  0
LAYER
  5
A1
330
1
100
AcDbSymbolTableRecord
100
AcDbLayerTableRecord
  2
S-TABLE
 70
0
 62
7
  6
Continuous
370
-3
390
13
347
21
1001
AcAecLayerStandard
1000

1000
Tables and schedules
  0
LAYER
  5
A2
330
1
100
AcDbSymbolTableRecord
100
AcDbLayerTableRecord
  2
S-BLAST
 70
0
 62
1
  6
Continuous
370
-3
390
13
347
21
1001
AcAecLayerStandard
1000

1000
Blast arrows, findings, warnings
  0
ENDTAB
  0
TABLE
  2
STYLE
  5
5
330
0
100
AcDbSymbolTable
 70
26
  0
STYLE
  5
29
330
5
100
AcDbSymbolTableRecord
100
AcDbTextStyleTableRecord
  2
Standard
 70
0
 40
0.0
 41
1.0
 50
0.0
 71
0
 42
2.5
  3
txt
  4

  0
STYLE
  5
41
330
5
100
AcDbSymbolTableRecord
100
AcDbTextStyleTableRecord
  2
OpenSans-Light
 70
0
 40
0.0
 41
1.0
 50
0.0
 71
0
 42
2.5
  3
OpenSans-Light.ttf
  4

  0
STYLE
  5
42
330
5
100
AcDbSymbolTableRecord
100
AcDbTextStyleTableRecord
  2
OpenSans-Light-Italic
 70
0
 40
0.0
 41
1.0
 50
0.0
 71
0
 42
2.5
  3
OpenSans-LightItalic.ttf
  4

  0
STYLE
  5
43
330
5
100
AcDbSymbolTableRecord
100
AcDbTextStyleTableRecord
  2
OpenSans
 70
0
 40
0.0
 41
1.0
 50
0.0
 71
0
 42
2.5
  3
OpenSans-Regular.ttf
  4

  0
STYLE
  5
44
330
5
100
AcDbSymbolTableRecord
100
AcDbTextStyleTableRecord
  2
OpenSans-Italic
 70
0
 40
0.0
 41
1.0
 50
0.0
 71
0
 42
2.5
  3
OpenSans-Italic.ttf
  4

  0
STYLE
  5
45
330
5
100
AcDbSymbolTableRecord
100
AcDbTextStyleTableRecord
  2
OpenSans-SemiBold
 70
0
 40
0.0
 41
1.0
 50
0.0
 71
0
 42
2.5
  3
OpenSans-SemiBold.ttf
  4

  0
STYLE
  5
46
330
5
100
AcDbSymbolTableRecord
100
AcDbTextStyleTableRecord
  2
OpenSans-SemiBoldItalic
 70
0
 40
0.0
 41
1.0
 50
0.0
 71
0
 42
2.5
  3
OpenSans-SemiBoldItalic.ttf
  4

  0
STYLE
  5
47
330
5
100
AcDbSymbolTableRecord
100
AcDbTextStyleTableRecord
  2
OpenSans-Bold
 70
0
 40
0.0
 41
1.0
 50
0.0
 71
0
 42
2.5
  3
OpenSans-Bold.ttf
  4

  0
STYLE
  5
48
330
5
100
AcDbSymbolTableRecord
100
AcDbTextStyleTableRecord
  2
OpenSans-BoldItalic
 70
0
 40
0.0
 41
1.0
 50
0.0
 71
0
 42
2.5
  3
OpenSans-BoldItalic.ttf
  4

  0
STYLE
  5
49
330
5
100
AcDbSymbolTableRecord
100
AcDbTextStyleTableRecord
  2
OpenSans-ExtraBold
 70
0
 40
0.0
 41
1.0
 50
0.0
 71
0
 42
2.5
  3
OpenSans-ExtraBold.ttf
  4

  0
STYLE
  5
4A
330
5
100
AcDbSymbolTableRecord
100
AcDbTextStyleTableRecord
  2
OpenSans-ExtraBoldItalic
 70
0
 40
0.0
 41
1.0
 50
0.0
 71
0
 42
2.5
  3
OpenSans-ExtraBoldItalic.ttf
  4

  0
STYLE
  5
4B
330
5
100
AcDbSymbolTableRecord
100
AcDbTextStyleTableRecord
  2
OpenSansCondensed-Bold
 70
0
 40
0.0
 41
1.0
 50
0.0
 71
0
 42
2.5
  3
OpenSansCondensed-Bold.ttf
  4

  0
STYLE
  5
4C
330
5
100
AcDbSymbolTableRecord
100
AcDbTextStyleTableRecord
  2
OpenSansCondensed-Light
 70
0
 40
0.0
 41
1.0
 50
0.0
 71
0
 42
2.5
  3
OpenSansCondensed-Light.ttf
  4

  0
STYLE
  5
4D
330
5
100
AcDbSymbolTableRecord
100
AcDbTextStyleTableRecord
  2
OpenSansCondensed-Italic
 70
0
 40
0.0
 41
1.0
 50
0.0
 71
0
 42
2.5
  3
OpenSansCondensed-LightItalic.ttf
  4

  0
STYLE
  5
4E
330
5
100
AcDbSymbolTableRecord
100
AcDbTextStyleTableRecord
  2
LiberationSans
 70
0
 40
0.0
 41
1.0
 50
0.0
 71
0
 42
2.5
  3
LiberationSans-Regular.ttf
  4

  0
STYLE
  5
4F
330
5
100
AcDbSymbolTableRecord
100
AcDbTextStyleTableRecord
  2
LiberationSans-Bold
 70
0
 40
0.0
 41
1.0
 50
0.0
 71
0
 42
2.5
  3
LiberationSans-Bold.ttf
  4

  0
STYLE
  5
50
330
5
100
AcDbSymbolTableRecord
100
AcDbTextStyleTableRecord
  2
LiberationSans-BoldItalic
 70
0
 40
0.0
 41
1.0
 50
0.0
 71
0
 42
2.5
  3
LiberationSans-BoldItalic.ttf
  4

  0
STYLE
  5
51
330
5
100
AcDbSymbolTableRecord
100
AcDbTextStyleTableRecord
  2
LiberationSans-Italic
 70
0
 40
0.0
 41
1.0
 50
0.0
 71
0
 42
2.5
  3
LiberationSans-Italic.ttf
  4

  0
STYLE
  5
52
330
5
100
AcDbSymbolTableRecord
100
AcDbTextStyleTableRecord
  2
LiberationSerif
 70
0
 40
0.0
 41
1.0
 50
0.0
 71
0
 42
2.5
  3
LiberationSerif-Regular.ttf
  4

  0
STYLE
  5
53
330
5
100
AcDbSymbolTableRecord
100
AcDbTextStyleTableRecord
  2
LiberationSerif-Bold
 70
0
 40
0.0
 41
1.0
 50
0.0
 71
0
 42
2.5
  3
LiberationSerif-Bold.ttf
  4

  0
STYLE
  5
54
330
5
100
AcDbSymbolTableRecord
100
AcDbTextStyleTableRecord
  2
LiberationSerif-BoldItalic
 70
0
 40
0.0
 41
1.0
 50
0.0
 71
0
 42
2.5
  3
LiberationSerif-BoldItalic.ttf
  4

  0
STYLE
  5
55
330
5
100
AcDbSymbolTableRecord
100
AcDbTextStyleTableRecord
  2
LiberationSerif-Italic
 70
0
 40
0.0
 41
1.0
 50
0.0
 71
0
 42
2.5
  3
LiberationSerif-Italic.ttf
  4

  0
STYLE
  5
56
330
5
100
AcDbSymbolTableRecord
100
AcDbTextStyleTableRecord
  2
LiberationMono
 70
0
 40
0.0
 41
1.0
 50
0.0
 71
0
 42
2.5
  3
LiberationMono-Regular.ttf
  4

  0
STYLE
  5
57
330
5
100
AcDbSymbolTableRecord
100
AcDbTextStyleTableRecord
  2
LiberationMono-Bold
 70
0
 40
0.0
 41
1.0
 50
0.0
 71
0
 42
2.5
  3
LiberationMono-Bold.ttf
  4

  0
STYLE
  5
58
330
5
100
AcDbSymbolTableRecord
100
AcDbTextStyleTableRecord
  2
LiberationMono-BoldItalic
 70
0
 40
0.0
 41
1.0
 50
0.0
 71
0
 42
2.5
  3
LiberationMono-BoldItalic.ttf
  4

  0
STYLE
  5
59
330
5
100
AcDbSymbolTableRecord
100
AcDbTextStyleTableRecord
  2
LiberationMono-Italic
 70
0
 40
0.0
 41
1.0
 50
0.0
 71
0
 42
2.5
  3
LiberationMono-Italic.ttf
  4

  0
ENDTAB
  0
TABLE
  2
VIEW
  5
7
330
0
100
AcDbSymbolTable
 70
0
  0
ENDTAB
  0
TABLE
  2
UCS
  5
6
330
0
100
AcDbSymbolTable
 70
0
  0
ENDTAB
  0
TABLE
  2
APPID
  5
3
330
0
100
AcDbSymbolTable
 70
4
  0
APPID
  5
2A
330
3
100
AcDbSymbolTableRecord
100
AcDbRegAppTableRecord
  2
ACAD
 70
0
  0
APPID
  5
8B
330
3
100
AcDbSymbolTableRecord
100
AcDbRegAppTableRecord
  2
AcAecLayerStandard
 70
0
  0
APPID
  5
251
330
3
100
AcDbSymbolTableRecord
100
AcDbRegAppTableRecord
  2
HATCHBACKGROUNDCOLOR
 70
0
  0
APPID
  5
252
330
3
100
AcDbSymbolTableRecord
100
AcDbRegAppTableRecord
  2
EZDXF
 70
0
  0
ENDTAB
  0
TABLE
  2
DIMSTYLE
  5
4
330
0
100
AcDbSymbolTable
 70
14
100
AcDbDimStyleTable
  0
DIMSTYLE
105
2B
330
4
100
AcDbSymbolTableRecord
100
AcDbDimStyleTableRecord
  2
Standard
 70
0
 40
1.0
 41
2.5
 42
0.625
 43
3.75
 44
1.25
 45
0.0
 46
0.0
 47
0.0
 48
0.0
 49
2.5
140
2.5
141
2.5
142
0.0
143
0.03937007874
144
1.0
145
0.0
146
1.0
147
0.625
148
0.0
 69
0
 70
0
 71
0
 72
0
 73
0
 74
0
 75
0
 76
0
 77
1
 78
8
 79
3
170
0
171
3
172
1
173
0
174
0
175
0
176
0
177
0
178
0
179
2
271
2
272
2
273
2
274
3
275
0
276
0
277
2
278
44
279
0
280
0
281
0
282
0
283
0
284
8
285
0
286
0
288
0
289
3
290
0
371
-2
372
-2
  0
DIMSTYLE
105
73
330
4
100
AcDbSymbolTableRecord
100
AcDbDimStyleTableRecord
  2
EZDXF
 70
0
 40
1.0
 41
0.175
 42
0.125
 43
3.75
 44
0.375
 45
0.0
 46
0.0
 47
0.0
 48
0.0
 49
2.5
140
0.25
141
2.5
142
0.0
143
0.03937007874
144
100.0
145
0.0
146
0.5
147
0.1
148
0.0
 69
0
 70
0
 71
0
 72
0
 73
0
 74
0
 75
0
 76
0
 77
1
 78
12
 79
3
170
0
171
3
172
1
173
0
174
0
175
0
176
0
177
0
178
0
179
2
271
2
272
2
273
2
274
3
275
0
276
0
277
2
278
46
279
2
280
0
281
0
282
0
283
0
284
8
285
0
286
0
288
1
289
3
290
0
340
4C
342
74
371
-2
372
-2
  0
DIMSTYLE
105
7C
330
4
100
AcDbSymbolTableRecord
100
AcDbDimStyleTableRecord
  2
EZ_M_100_H25_CM
 70
0
 40
1.0
 41
0.25
 42
0.125
 43
3.75
 44
0.375
 45
0.0
 46
0.0
 47
0.0
 48
0.0
 49
2.5
140
0.25
141
2.5
142
0.125
143
0.03937007874
144
100.0
145
0.0
146
0.5
147
0.1
148
0.0
 69
0
 70
0
 71
0
 72
0
 73
0
 74
0
 75
0
 76
0
 77
1
 78
12
 79
3
170
0
171
3
172
1
173
0
174
0
175
0
176
0
177
0
178
0
179
2
271
2
272
2
273
2
274
3
275
0
276
0
277
2
278
46
279
2
280
0
281
0
282
0
283
0
284
8
285
0
286
0
288
1
289
3
290
0
340
4C
371
-2
372
-2
  0
DIMSTYLE
105
7D
330
4
100
AcDbSymbolTableRecord
100
AcDbDimStyleTableRecord
  2
EZ_M_50_H25_CM
 70
0
 40
1.0
 41
0.125
 42
0.0625
 43
3.75
 44
0.1875
 45
0.0
 46
0.0
 47
0.0
 48
0.0
 49
2.5
140
0.125
141
2.5
142
0.0625
143
0.03937007874
144
100.0
145
0.0
146
0.5
147
0.05
148
0.0
 69
0
 70
0
 71
0
 72
0
 73
0
 74
0
 75
0
 76
0
 77
1
 78
12
 79
3
170
0
171
3
172
1
173
0
174
0
175
0
176
0
177
0
178
0
179
2
271
2
272
2
273
2
274
3
275
0
276
0
277
2
278
46
279
2
280
0
281
0
282
0
283
0
284
8
285
0
286
0
288
1
289
3
290
0
340
4C
371
-2
372
-2
  0
DIMSTYLE
105
7E
330
4
100
AcDbSymbolTableRecord
100
AcDbDimStyleTableRecord
  2
EZ_M_25_H25_CM
 70
0
 40
1.0
 41
0.0625
 42
0.03125
 43
3.75
 44
0.09375
 45
0.0
 46
0.0
 47
0.0
 48
0.0
 49
2.5
140
0.0625
141
2.5
142
0.03125
143
0.03937007874
144
100.0
145
0.0
146
0.5
147
0.025
148
0.0
 69
0
 70
0
 71
0
 72
0
 73
0
 74
0
 75
0
 76
0
 77
1
 78
12
 79
3
170
0
171
3
172
1
173
0
174
0
175
0
176
0
177
0
178
0
179
2
271
2
272
2
273
2
274
3
275
0
276
0
277
2
278
46
279
2
280
0
281
0
282
0
283
0
284
8
285
0
286
0
288
1
289
3
290
0
340
4C
371
-2
372
-2
  0
DIMSTYLE
105
7F
330
4
100
AcDbSymbolTableRecord
100
AcDbDimStyleTableRecord
  2
EZ_M_20_H25_CM
 70
0
 40
1.0
 41
0.05
 42
0.025
 43
3.75
 44
0.07500000000000001
 45
0.0
 46
0.0
 47
0.0
 48
0.0
 49
2.5
140
0.05
141
2.5
142
0.025
143
0.03937007874
144
100.0
145
0.0
146
0.5
147
0.020000000000000004
148
0.0
 69
0
 70
0
 71
0
 72
0
 73
0
 74
0
 75
0
 76
0
 77
1
 78
12
 79
3
170
0
171
3
172
1
173
0
174
0
175
0
176
0
177
0
178
0
179
2
271
2
272
2
273
2
274
3
275
0
276
0
277
2
278
46
279
2
280
0
281
0
282
0
283
0
284
8
285
0
286
0
288
1
289
3
290
0
340
4C
371
-2
372
-2
  0
DIMSTYLE
105
80
330
4
100
AcDbSymbolTableRecord
100
AcDbDimStyleTableRecord
  2
EZ_M_10_H25_CM
 70
0
 40
1.0
 41
0.025
 42
0.0125
 43
3.75
 44
0.037500000000000006
 45
0.0
 46
0.0
 47
0.0
 48
0.0
 49
2.5
140
0.025
141
2.5
142
0.0125
143
0.03937007874
144
100.0
145
0.0
146
0.5
147
0.010000000000000002
148
0.0
 69
0
 70
0
 71
0
 72
0
 73
0
 74
0
 75
0
 76
0
 77
1
 78
12
 79
3
170
0
171
3
172
1
173
0
174
0
175
0
176
0
177
0
178
0
179
2
271
2
272
2
273
2
274
3
275
0
276
0
277
2
278
46
279
2
280
0
281
0
282
0
283
0
284
8
285
0
286
0
288
1
289
3
290
0
340
4C
371
-2
372
-2
  0
DIMSTYLE
105
81
330
4
100
AcDbSymbolTableRecord
100
AcDbDimStyleTableRecord
  2
EZ_M_5_H25_CM
 70
0
 40
1.0
 41
0.0125
 42
0.00625
 43
3.75
 44
0.018750000000000003
 45
0.0
 46
0.0
 47
0.0
 48
0.0
 49
2.5
140
0.0125
141
2.5
142
0.00625
143
0.03937007874
144
100.0
145
0.0
146
0.5
147
0.005000000000000001
148
0.0
 69
0
 70
0
 71
0
 72
0
 73
0
 74
0
 75
0
 76
0
 77
1
 78
12
 79
3
170
0
171
3
172
1
173
0
174
0
175
0
176
0
177
0
178
0
179
2
271
2
272
2
273
2
274
3
275
0
276
0
277
2
278
46
279
2
280
0
281
0
282
0
283
0
284
8
285
0
286
0
288
1
289
3
290
0
340
4C
371
-2
372
-2
  0
DIMSTYLE
105
82
330
4
100
AcDbSymbolTableRecord
100
AcDbDimStyleTableRecord
  2
EZ_M_1_H25_CM
 70
0
 40
1.0
 41
0.0025
 42
0.00125
 43
3.75
 44
0.00375
 45
0.0
 46
0.0
 47
0.0
 48
0.0
 49
2.5
140
0.0025
141
2.5
142
0.00125
143
0.03937007874
144
100.0
145
0.0
146
0.5
147
0.001
148
0.0
 69
0
 70
0
 71
0
 72
0
 73
0
 74
0
 75
0
 76
0
 77
1
 78
12
 79
3
170
0
171
3
172
1
173
0
174
0
175
0
176
0
177
0
178
0
179
2
271
2
272
2
273
2
274
3
275
0
276
0
277
2
278
46
279
2
280
0
281
0
282
0
283
0
284
8
285
0
286
0
288
1
289
3
290
0
340
4C
371
-2
372
-2
  0
DIMSTYLE
105
83
330
4
100
AcDbSymbolTableRecord
100
AcDbDimStyleTableRecord
  2
EZ_RADIUS
 70
0
 40
1.0
 41
0.25
 42
0.125
 43
3.75
 44
0.375
 45
0.0
 46
0.0
 47
0.0
 48
0.0
 49
2.5
140
0.25
141
0.0
142
0.0
143
0.03937007874
144
100.0
145
0.0
146
0.5
147
0.1
148
0.0
 69
0
 70
0
 71
0
 72
0
 73
0
 74
0
 75
0
 76
0
 77
1
 78
12
 79
3
170
0
171
3
172
0
173
0
174
0
175
0
176
0
177
0
178
0
179
2
271
2
272
2
273
2
274
3
275
0
276
0
277
2
278
46
279
1
280
0
281
0
282
0
283
0
284
8
285
0
286
0
288
1
289
3
290
0
340
4C
342
84
371
-2
372
-2
  0
DIMSTYLE
105
88
330
4
100
AcDbSymbolTableRecord
100
AcDbDimStyleTableRecord
  2
EZ_RADIUS_INSIDE
 70
0
 40
1.0
 41
0.25
 42
0.125
 43
3.75
 44
0.375
 45
0.0
 46
0.0
 47
0.0
 48
0.0
 49
2.5
140
0.25
141
0.0
142
0.0
143
0.03937007874
144
100.0
145
0.0
146
0.5
147
0.1
148
0.0
 69
0
 70
0
 71
0
 72
0
 73
0
 74
0
 75
0
 76
0
 77
0
 78
12
 79
3
170
0
171
3
172
0
173
0
174
1
175
0
176
0
177
0
178
0
179
2
271
2
272
2
273
2
274
3
275
0
276
0
277
2
278
46
279
0
280
0
281
0
282
0
283
0
284
8
285
0
286
0
288
1
289
0
290
0
340
4C
342
84
371
-2
372
-2
  0
DIMSTYLE
105
89
330
4
100
AcDbSymbolTableRecord
100
AcDbDimStyleTableRecord
  2
EZ_CURVED
 70
0
 40
1.0
 41
0.25
 42
0.125
 43
3.75
 44
0.375
 45
0.0
 46
0.0
 47
0.0
 48
0.0
 49
2.5
140
0.25
141
2.5
142
0.0
143
0.03937007874
144
100.0
145
0.0
146
0.5
147
0.1
148
0.0
 69
0
 70
0
 71
0
 72
0
 73
0
 74
0
 75
0
 76
0
 77
1
 78
12
 79
2
 90
2
170
0
171
3
172
1
173
0
174
0
175
0
176
0
177
0
178
0
179
2
271
2
272
2
273
2
274
3
275
0
276
0
277
2
278
46
279
2
280
0
281
0
282
0
283
0
284
8
285
0
286
0
288
1
289
3
290
0
340
4C
371
-2
372
-2
  0
DIMSTYLE
105
A3
330
4
100
AcDbSymbolTableRecord
100
AcDbDimStyleTableRecord
  2
SC-DIM
 70
0
 40
1.0
 41
1.6
 42
1.0
 43
3.75
 44
1.2
 45
0.0
 46
0.0
 47
0.0
 48
0.0
 49
2.5
140
1.8
141
2.5
142
0.0
143
0.03937007874
144
1.0
145
0.0
146
1.0
147
0.8
148
0.0
 69
0
 70
0
 71
0
 72
0
 73
0
 74
0
 75
0
 76
0
 77
1
 78
8
 79
3
170
0
171
3
172
1
173
0
174
0
175
0
176
4
177
4
178
4
179
2
271
0
272
2
273
2
274
3
275
0
276
0
277
2
278
44
279
0
280
0
281
0
282
0
283
0
284
8
285
0
286
0
288
0
289
3
290
0
342
74
371
13
372
13
  0
DIMSTYLE
105
A4
330
4
100
AcDbSymbolTableRecord
100
AcDbDimStyleTableRecord
  2
SC-DIM-S
 70
0
 40
1.0
 41
1.2
 42
1.0
 43
3.75
 44
1.2
 45
0.0
 46
0.0
 47
0.0
 48
0.0
 49
2.5
140
1.4
141
2.5
142
0.0
143
0.03937007874
144
1.0
145
0.0
146
1.0
147
0.8
148
0.0
 69
0
 70
0
 71
0
 72
0
 73
0
 74
0
 75
0
 76
0
 77
1
 78
8
 79
3
170
0
171
3
172
1
173
0
174
0
175
0
176
4
177
4
178
4
179
2
271
0
272
2
273
2
274
3
275
0
276
0
277
2
278
44
279
0
280
0
281
0
282
0
283
0
284
8
285
0
286
0
288
0
289
3
290
0
342
74
371
13
372
13
  0
ENDTAB
  0
TABLE
  2
BLOCK_RECORD
  5
9
330
0
100
AcDbSymbolTable
 70
12
  0
BLOCK_RECORD
  5
17
330
9
100
AcDbSymbolTableRecord
100
AcDbBlockTableRecord
  2
*Model_Space
340
1A
 70
0
280
1
281
0
  0
BLOCK_RECORD
  5
1B
330
9
100
AcDbSymbolTableRecord
100
AcDbBlockTableRecord
  2
*Paper_Space
340
1E
 70
0
280
1
281
0
  0
BLOCK_RECORD
  5
74
330
9
100
AcDbSymbolTableRecord
100
AcDbBlockTableRecord
  2
_ARCHTICK
340
0
 70
0
280
1
281
0
  0
BLOCK_RECORD
  5
78
330
9
100
AcDbSymbolTableRecord
100
AcDbBlockTableRecord
  2
_CLOSEDFILLED
340
0
 70
0
280
1
281
0
  0
BLOCK_RECORD
  5
84
330
9
100
AcDbSymbolTableRecord
100
AcDbBlockTableRecord
  2
_CLOSEDBLANK
340
0
 70
0
280
1
281
0
  0
BLOCK_RECORD
  5
A5
330
9
100
AcDbSymbolTableRecord
100
AcDbBlockTableRecord
  2
BARMARK
340
0
 70
0
280
1
281
0
  0
BLOCK_RECORD
  5
A9
330
9
100
AcDbSymbolTableRecord
100
AcDbBlockTableRecord
  2
SECMARK
340
0
 70
0
280
1
281
0
  0
BLOCK_RECORD
  5
AE
330
9
100
AcDbSymbolTableRecord
100
AcDbBlockTableRecord
  2
LEVELMK
340
0
 70
0
280
1
281
0
  0
BLOCK_RECORD
  5
B2
330
9
100
AcDbSymbolTableRecord
100
AcDbBlockTableRecord
  2
NORTH
340
0
 70
0
280
1
281
0
  0
BLOCK_RECORD
  5
112
330
9
100
AcDbSymbolTableRecord
100
AcDbBlockTableRecord
  2
*D1
340
0
 70
0
280
1
281
0
  0
BLOCK_RECORD
  5
13A
330
9
100
AcDbSymbolTableRecord
100
AcDbBlockTableRecord
  2
*D2
340
0
 70
0
280
1
281
0
  0
BLOCK_RECORD
  5
1B4
330
9
100
AcDbSymbolTableRecord
100
AcDbBlockTableRecord
  2
*D3
340
0
 70
0
280
1
281
0
  0
ENDTAB
  0
ENDSEC
  0
SECTION
  2
BLOCKS
  0
BLOCK
  5
18
330
17
100
AcDbEntity
  8
0
100
AcDbBlockBegin
  2
*Model_Space
 70
0
 10
0.0
 20
0.0
 30
0.0
  3
*Model_Space
  1

  0
ENDBLK
  5
19
330
17
100
AcDbEntity
  8
0
100
AcDbBlockEnd
  0
BLOCK
  5
1C
330
1B
100
AcDbEntity
  8
0
100
AcDbBlockBegin
  2
*Paper_Space
 70
0
 10
0.0
 20
0.0
 30
0.0
  3
*Paper_Space
  1

  0
ENDBLK
  5
1D
330
1B
100
AcDbEntity
  8
0
100
AcDbBlockEnd
  0
BLOCK
  5
75
330
74
100
AcDbEntity
  8
0
100
AcDbBlockBegin
  2
_ARCHTICK
 70
0
 10
0.0
 20
0.0
 30
0.0
  3
_ARCHTICK
  1

  0
LWPOLYLINE
  5
77
330
74
100
AcDbEntity
  8
0
  6
BYBLOCK
 62
0
100
AcDbPolyline
 90
2
 70
0
 43
0.15
 10
-0.5
 20
-0.5
 10
0.5
 20
0.5
  0
ENDBLK
  5
76
330
74
100
AcDbEntity
  8
0
100
AcDbBlockEnd
  0
BLOCK
  5
79
330
78
100
AcDbEntity
  8
0
100
AcDbBlockBegin
  2
_CLOSEDFILLED
 70
0
 10
0.0
 20
0.0
 30
0.0
  3
_CLOSEDFILLED
  1

  0
SOLID
  5
7B
330
78
100
AcDbEntity
  8
0
  6
BYBLOCK
 62
0
100
AcDbTrace
 10
-1.0
 20
0.16439898372402537
 30
0.0
 11
0.0
 21
0.0
 31
0.0
 12
-1.0
 22
-0.16439898372402537
 32
0.0
 13
-1.0
 23
-0.16439898372402537
 33
0.0
  0
ENDBLK
  5
7A
330
78
100
AcDbEntity
  8
0
100
AcDbBlockEnd
  0
BLOCK
  5
85
330
84
100
AcDbEntity
  8
0
100
AcDbBlockBegin
  2
_CLOSEDBLANK
 70
0
 10
0.0
 20
0.0
 30
0.0
  3
_CLOSEDBLANK
  1

  0
LWPOLYLINE
  5
87
330
84
100
AcDbEntity
  8
0
  6
BYBLOCK
 62
0
100
AcDbPolyline
 90
3
 70
1
 10
-1.0
 20
0.16439898372402537
 10
0.0
 20
0.0
 10
-1.0
 20
-0.16439898372402537
  0
ENDBLK
  5
86
330
84
100
AcDbEntity
  8
0
100
AcDbBlockEnd
  0
BLOCK
  5
A6
330
A5
100
AcDbEntity
  8
0
100
AcDbBlockBegin
  2
BARMARK
 70
0
 10
0.0
 20
0.0
 30
0.0
  3
BARMARK
  1

  0
CIRCLE
  5
A8
330
A5
100
AcDbEntity
  8
S-CALLOUT
100
AcDbCircle
 10
0.0
 20
0.0
 30
0.0
 40
3.2
  0
ENDBLK
  5
A7
330
A5
100
AcDbEntity
  8
0
100
AcDbBlockEnd
  0
BLOCK
  5
AA
330
A9
100
AcDbEntity
  8
0
100
AcDbBlockBegin
  2
SECMARK
 70
0
 10
0.0
 20
0.0
 30
0.0
  3
SECMARK
  1

  0
CIRCLE
  5
AC
330
A9
100
AcDbEntity
  8
S-SECTION
100
AcDbCircle
 10
0.0
 20
0.0
 30
0.0
 40
4.0
  0
LINE
  5
AD
330
A9
100
AcDbEntity
  8
S-SECTION
100
AcDbLine
 10
-4.0
 20
0.0
 30
0.0
 11
4.0
 21
0.0
 31
0.0
  0
ENDBLK
  5
AB
330
A9
100
AcDbEntity
  8
0
100
AcDbBlockEnd
  0
BLOCK
  5
AF
330
AE
100
AcDbEntity
  8
0
100
AcDbBlockBegin
  2
LEVELMK
 70
0
 10
0.0
 20
0.0
 30
0.0
  3
LEVELMK
  1

  0
LWPOLYLINE
  5
B1
330
AE
100
AcDbEntity
  8
S-LEVEL
100
AcDbPolyline
 90
4
 70
1
 10
0.0
 20
0.0
 10
-2.0
 20
3.0
 10
2.0
 20
3.0
 10
0.0
 20
0.0
  0
ENDBLK
  5
B0
330
AE
100
AcDbEntity
  8
0
100
AcDbBlockEnd
  0
BLOCK
  5
B3
330
B2
100
AcDbEntity
  8
0
100
AcDbBlockBegin
  2
NORTH
 70
0
 10
0.0
 20
0.0
 30
0.0
  3
NORTH
  1

  0
LWPOLYLINE
  5
B5
330
B2
100
AcDbEntity
  8
S-TITLE
100
AcDbPolyline
 90
5
 70
1
 10
0.0
 20
10.0
 10
-3.2
 20
-6.0
 10
0.0
 20
-2.4
 10
3.2
 20
-6.0
 10
0.0
 20
10.0
  0
CIRCLE
  5
B6
330
B2
100
AcDbEntity
  8
S-TITLE
100
AcDbCircle
 10
0.0
 20
0.0
 30
0.0
 40
12.0
  0
ENDBLK
  5
B4
330
B2
100
AcDbEntity
  8
0
100
AcDbBlockEnd
  0
BLOCK
  5
113
330
112
100
AcDbEntity
  8
0
100
AcDbBlockBegin
  2
*D1
 70
1
 10
0.0
 20
0.0
 30
0.0
  3
*D1
  1

  0
LINE
  5
115
330
112
100
AcDbEntity
  8
0
 62
4
370
13
100
AcDbLine
 10
100.0
 20
341.0
 30
0.0
 11
100.0
 21
467.8666666666666
 31
0.0
  0
LINE
  5
116
330
112
100
AcDbEntity
  8
0
 62
4
370
13
100
AcDbLine
 10
133.33333333333331
 20
341.0
 30
0.0
 11
133.33333333333331
 21
467.8666666666666
 31
0.0
  0
INSERT
  5
117
330
112
100
AcDbEntity
  8
S-DIM
 62
4
100
AcDbBlockReference
  2
_ARCHTICK
 10
100.0
 20
466.66666666666663
 30
0.0
 41
1.6
 42
1.6
 50
180.0
  0
INSERT
  5
119
330
112
100
AcDbEntity
  8
S-DIM
 62
4
100
AcDbBlockReference
  2
_ARCHTICK
 10
133.33333333333331
 20
466.66666666666663
 30
0.0
 41
1.6
 42
1.6
  0
LINE
  5
11B
330
112
100
AcDbEntity
  8
0
 62
4
370
13
100
AcDbLine
 10
100.0
 20
466.66666666666663
 30
0.0
 11
133.33333333333331
 21
466.66666666666663
 31
0.0
  0
MTEXT
  5
11C
330
112
100
AcDbEntity
  8
S-DIM
 62
4
100
AcDbMText
 10
116.66666666666666
 20
468.3666666666666
 30
0.0
 40
1.8
 71
5
  1
500
  7
OpenSansCondensed-Light
  0
POINT
  5
11D
330
112
100
AcDbEntity
  8
Defpoints
100
AcDbPoint
 10
100.0
 20
466.66666666666663
 30
0.0
  0
POINT
  5
11E
330
112
100
AcDbEntity
  8
Defpoints
100
AcDbPoint
 10
100.0
 20
340.0
 30
0.0
  0
POINT
  5
11F
330
112
100
AcDbEntity
  8
Defpoints
100
AcDbPoint
 10
133.33333333333331
 20
340.0
 30
0.0
  0
ENDBLK
  5
114
330
112
100
AcDbEntity
  8
0
100
AcDbBlockEnd
  0
BLOCK
  5
13B
330
13A
100
AcDbEntity
  8
0
100
AcDbBlockBegin
  2
*D2
 70
1
 10
0.0
 20
0.0
 30
0.0
  3
*D2
  1

  0
LINE
  5
13D
330
13A
100
AcDbEntity
  8
0
 62
4
370
13
100
AcDbLine
 10
245.86666666666667
 20
461.8666666666667
 30
0.0
 11
245.86666666666667
 21
494.53333333333336
 31
0.0
  0
LINE
  5
13E
330
13A
100
AcDbEntity
  8
0
 62
4
370
13
100
AcDbLine
 10
312.5333333333333
 20
461.8666666666667
 30
0.0
 11
312.5333333333333
 21
494.53333333333336
 31
0.0
  0
INSERT
  5
13F
330
13A
100
AcDbEntity
  8
S-DIM
 62
4
100
AcDbBlockReference
  2
_ARCHTICK
 10
245.86666666666667
 20
493.33333333333337
 30
0.0
 41
1.6
 42
1.6
 50
180.0
  0
INSERT
  5
141
330
13A
100
AcDbEntity
  8
S-DIM
 62
4
100
AcDbBlockReference
  2
_ARCHTICK
 10
312.5333333333333
 20
493.33333333333337
 30
0.0
 41
1.6
 42
1.6
  0
LINE
  5
143
330
13A
100
AcDbEntity
  8
0
 62
4
370
13
100
AcDbLine
 10
245.86666666666667
 20
493.33333333333337
 30
0.0
 11
312.5333333333333
 21
493.33333333333337
 31
0.0
  0
MTEXT
  5
144
330
13A
100
AcDbEntity
  8
S-DIM
 62
4
100
AcDbMText
 10
279.2
 20
495.03333333333336
 30
0.0
 40
1.8
 71
5
  1
1000
  7
OpenSansCondensed-Light
  0
POINT
  5
145
330
13A
100
AcDbEntity
  8
Defpoints
100
AcDbPoint
 10
245.86666666666667
 20
493.33333333333337
 30
0.0
  0
POINT
  5
146
330
13A
100
AcDbEntity
  8
Defpoints
100
AcDbPoint
 10
245.86666666666667
 20
460.8666666666667
 30
0.0
  0
POINT
  5
147
330
13A
100
AcDbEntity
  8
Defpoints
100
AcDbPoint
 10
312.5333333333333
 20
460.8666666666667
 30
0.0
  0
ENDBLK
  5
13C
330
13A
100
AcDbEntity
  8
0
100
AcDbBlockEnd
  0
BLOCK
  5
1B5
330
1B4
100
AcDbEntity
  8
0
100
AcDbBlockBegin
  2
*D3
 70
1
 10
0.0
 20
0.0
 30
0.0
  3
*D3
  1

  0
LINE
  5
1B7
330
1B4
100
AcDbEntity
  8
0
 62
4
370
13
100
AcDbLine
 10
591.0
 20
300.0
 30
0.0
 11
617.8666666666667
 21
300.0
 31
0.0
  0
LINE
  5
1B8
330
1B4
100
AcDbEntity
  8
0
 62
4
370
13
100
AcDbLine
 10
591.0
 20
360.0
 30
0.0
 11
617.8666666666667
 21
360.0
 31
0.0
  0
INSERT
  5
1B9
330
1B4
100
AcDbEntity
  8
S-DIM
 62
4
100
AcDbBlockReference
  2
_ARCHTICK
 10
616.6666666666666
 20
300.0
 30
0.0
 41
1.6
 42
1.6
 50
270.0
  0
INSERT
  5
1BB
330
1B4
100
AcDbEntity
  8
S-DIM
 62
4
100
AcDbBlockReference
  2
_ARCHTICK
 10
616.6666666666666
 20
360.0
 30
0.0
 41
1.6
 42
1.6
 50
90.0
  0
LINE
  5
1BD
330
1B4
100
AcDbEntity
  8
0
 62
4
370
13
100
AcDbLine
 10
616.6666666666666
 20
300.0
 30
0.0
 11
616.6666666666666
 21
360.0
 31
0.0
  0
MTEXT
  5
1BE
330
1B4
100
AcDbEntity
  8
S-DIM
 62
4
100
AcDbMText
 10
614.9666666666666
 20
330.0
 30
0.0
 40
1.8
 71
5
  1
900
  7
OpenSansCondensed-Light
 50
90.0
  0
POINT
  5
1BF
330
1B4
100
AcDbEntity
  8
Defpoints
100
AcDbPoint
 10
616.6666666666666
 20
300.0
 30
0.0
  0
POINT
  5
1C0
330
1B4
100
AcDbEntity
  8
Defpoints
100
AcDbPoint
 10
590.0
 20
300.0
 30
0.0
  0
POINT
  5
1C1
330
1B4
100
AcDbEntity
  8
Defpoints
100
AcDbPoint
 10
590.0
 20
360.0
 30
0.0
  0
ENDBLK
  5
1B6
330
1B4
100
AcDbEntity
  8
0
100
AcDbBlockEnd
  0
ENDSEC
  0
SECTION
  2
ENTITIES
  0
LWPOLYLINE
  5
B7
330
17
100
AcDbEntity
  8
S-TITLE
100
AcDbPolyline
 90
4
 70
1
 10
0.0
 20
0.0
 10
841.0
 20
0.0
 10
841.0
 20
594.0
 10
0.0
 20
594.0
  0
LWPOLYLINE
  5
B8
330
17
100
AcDbEntity
  8
S-TITLE
100
AcDbPolyline
 90
4
 70
1
 10
10.0
 20
10.0
 10
831.0
 20
10.0
 10
831.0
 20
584.0
 10
10.0
 20
584.0
  0
TEXT
  5
B9
330
17
100
AcDbEntity
  8
S-TITLE
100
AcDbText
 10
12.0
 20
576.5
 30
0.0
 40
5.0
  1
STRUCTURAL CAD - REINFORCEMENT PACKAGE
  7
OpenSans
 11
12.0
 21
576.5
 31
0.0
100
AcDbText
  0
TEXT
  5
BA
330
17
100
AcDbEntity
  8
S-TITLE
100
AcDbText
 10
12.0
 20
569.5
 30
0.0
 40
2.4
  1
R-803   WALL / SLAB CONNECTIONS
  7
OpenSans
 11
12.0
 21
569.5
 31
0.0
100
AcDbText
  0
LINE
  5
BB
330
17
100
AcDbEntity
  8
S-TITLE
100
AcDbLine
 10
10.0
 20
566.5
 30
0.0
 11
831.0
 21
566.5
 31
0.0
  0
TEXT
  5
BC
330
17
100
AcDbEntity
  8
S-BLAST
100
AcDbText
 10
829.0
 20
577.0
 30
0.0
 40
2.0
  1
SENTRY POST EXCLUDED FROM THIS PACKAGE
  7
OpenSans
 72
2
 11
829.0
 21
577.0
 31
0.0
100
AcDbText
  0
TEXT
  5
BD
330
17
100
AcDbEntity
  8
S-BLAST
100
AcDbText
 10
829.0
 20
570.5
 30
0.0
 40
1.4
  1
ALL DESIGN ACTIONS ARE MANUAL CALCULATION - NOT DIRECT STAAD OUTPUT
  7
OpenSans
 72
2
 11
829.0
 21
570.5
 31
0.0
100
AcDbText
  0
TEXT
  5
BE
330
17
100
AcDbEntity
  8
S-BLAST
100
AcDbText
 10
12.0
 20
561.5
 30
0.0
 40
1.4
  1
OPEN ITEMS ON THIS SHEET:  C16 OPEN
  7
OpenSans
 11
12.0
 21
561.5
 31
0.0
100
AcDbText
  0
LWPOLYLINE
  5
BF
330
17
100
AcDbEntity
  8
S-CONCRETE
100
AcDbPolyline
 90
4
 70
1
 10
60.0
 20
300.0
 10
206.66666666666666
 20
300.0
 10
206.66666666666666
 20
340.0
 10
60.0
 20
340.0
  0
LWPOLYLINE
  5
C0
330
17
100
AcDbEntity
  8
S-CONCRETE
100
AcDbPolyline
 90
4
 70
1
 10
60.0
 20
340.0
 10
100.0
 20
340.0
 10
100.0
 20
446.66666666666663
 10
60.0
 20
446.66666666666663
  0
LWPOLYLINE
  5
C1
330
17
100
AcDbEntity
  8
S-CONCRETE
100
AcDbPolyline
 90
3
 70
0
 10
100.0
 20
340.0
 10
133.33333333333331
 20
340.0
 10
100.0
 20
373.3333333333333
  0
HATCH
  5
C2
330
17
100
AcDbEntity
  8
S-HATCH
 62
7
100
AcDbHatch
 10
0.0
 20
0.0
 30
0.0
210
0.0
220
0.0
230
1.0
  2
ANSI31
 70
0
 71
0
 91
1
 92
3
 72
0
 73
1
 93
4
 10
60.0
 20
300.0
 10
206.66666666666666
 20
300.0
 10
206.66666666666666
 20
340.0
 10
60.0
 20
340.0
 97
0
 75
1
 76
1
 52
0.0
 41
1.6
 77
0
 78
1
 53
45.0
 43
0.0
 44
0.0
 45
-3.5921024485
 46
3.5921024485
 79
0
 98
0
  0
HATCH
  5
C3
330
17
100
AcDbEntity
  8
S-HATCH
 62
7
100
AcDbHatch
 10
0.0
 20
0.0
 30
0.0
210
0.0
220
0.0
230
1.0
  2
ANSI31
 70
0
 71
0
 91
1
 92
3
 72
0
 73
1
 93
4
 10
60.0
 20
340.0
 10
100.0
 20
340.0
 10
100.0
 20
446.66666666666663
 10
60.0
 20
446.66666666666663
 97
0
 75
1
 76
1
 52
0.0
 41
1.6
 77
0
 78
1
 53
45.0
 43
0.0
 44
0.0
 45
-3.5921024485
 46
3.5921024485
 79
0
 98
0
  0
HATCH
  5
C4
330
17
100
AcDbEntity
  8
S-HATCH
 62
7
100
AcDbHatch
 10
0.0
 20
0.0
 30
0.0
210
0.0
220
0.0
230
1.0
  2
ANSI31
 70
0
 71
0
 91
1
 92
3
 72
0
 73
1
 93
3
 10
100.0
 20
340.0
 10
133.33333333333331
 20
340.0
 10
100.0
 20
373.3333333333333
 97
0
 75
1
 76
1
 52
0.0
 41
1.6
 77
0
 78
1
 53
45.0
 43
0.0
 44
0.0
 45
-3.5921024485
 46
3.5921024485
 79
0
 98
0
  0
LWPOLYLINE
  5
C5
330
17
100
AcDbEntity
  8
S-REBAR-TIE
100
AcDbPolyline
 90
3
 70
0
 10
125.53333333333333
 20
305.53333333333336
 10
65.53333333333333
 20
305.53333333333336
 10
65.53333333333333
 20
403.3333333333333
  0
LINE
  5
C6
330
17
100
AcDbEntity
  8
S-REBAR-MAIN
100
AcDbLine
 10
65.53333333333333
 20
350.0
 30
0.0
 11
65.53333333333333
 21
446.66666666666663
 31
0.0
  0
LWPOLYLINE
  5
C7
330
17
100
AcDbEntity
  8
S-REBAR-TIE
100
AcDbPolyline
 90
3
 70
0
 10
154.46666666666667
 20
305.53333333333336
 10
94.46666666666667
 20
305.53333333333336
 10
94.46666666666667
 20
403.3333333333333
  0
LINE
  5
C8
330
17
100
AcDbEntity
  8
S-REBAR-MAIN
100
AcDbLine
 10
94.46666666666667
 20
350.0
 30
0.0
 11
94.46666666666667
 21
446.66666666666663
 31
0.0
  0
CIRCLE
  5
C9
330
17
100
AcDbEntity
  8
S-REBAR-MAIN
100
AcDbCircle
 10
70.0
 20
305.53333333333336
 30
0.0
 40
0.7
  0
HATCH
  5
CA
330
17
100
AcDbEntity
  8
S-REBAR-MAIN
 62
1
100
AcDbHatch
 10
0.0
 20
0.0
 30
0.0
210
0.0
220
0.0
230
1.0
  2
SOLID
 70
1
 71
0
 91
1
 92
3
 72
0
 73
1
 93
16
 10
70.7
 20
305.53333333333336
 10
70.6467156727579
 20
305.80121173598894
 10
70.49497474683058
 20
306.0283080801639
 10
70.26787840265557
 20
306.1800490060913
 10
70.0
 20
306.23333333333335
 10
69.73212159734443
 20
306.1800490060913
 10
69.50502525316942
 20
306.0283080801639
 10
69.3532843272421
 20
305.80121173598894
 10
69.3
 20
305.53333333333336
 10
69.3532843272421
 20
305.2654549306778
 10
69.50502525316942
 20
305.0383585865028
 10
69.73212159734443
 20
304.88661766057544
 10
70.0
 20
304.83333333333337
 10
70.26787840265557
 20
304.88661766057544
 10
70.49497474683058
 20
305.0383585865028
 10
70.6467156727579
 20
305.2654549306778
 97
0
 75
0
 76
1
 98
0
  0
CIRCLE
  5
CB
330
17
100
AcDbEntity
  8
S-REBAR-MAIN
100
AcDbCircle
 10
80.0
 20
305.53333333333336
 30
0.0
 40
0.7
  0
HATCH
  5
CC
330
17
100
AcDbEntity
  8
S-REBAR-MAIN
 62
1
100
AcDbHatch
 10
0.0
 20
0.0
 30
0.0
210
0.0
220
0.0
230
1.0
  2
SOLID
 70
1
 71
0
 91
1
 92
3
 72
0
 73
1
 93
16
 10
80.7
 20
305.53333333333336
 10
80.6467156727579
 20
305.80121173598894
 10
80.49497474683058
 20
306.0283080801639
 10
80.26787840265557
 20
306.1800490060913
 10
80.0
 20
306.23333333333335
 10
79.73212159734443
 20
306.1800490060913
 10
79.50502525316942
 20
306.0283080801639
 10
79.3532843272421
 20
305.80121173598894
 10
79.3
 20
305.53333333333336
 10
79.3532843272421
 20
305.2654549306778
 10
79.50502525316942
 20
305.0383585865028
 10
79.73212159734443
 20
304.88661766057544
 10
80.0
 20
304.83333333333337
 10
80.26787840265557
 20
304.88661766057544
 10
80.49497474683058
 20
305.0383585865028
 10
80.6467156727579
 20
305.2654549306778
 97
0
 75
0
 76
1
 98
0
  0
CIRCLE
  5
CD
330
17
100
AcDbEntity
  8
S-REBAR-MAIN
100
AcDbCircle
 10
90.0
 20
305.53333333333336
 30
0.0
 40
0.7
  0
HATCH
  5
CE
330
17
100
AcDbEntity
  8
S-REBAR-MAIN
 62
1
100
AcDbHatch
 10
0.0
 20
0.0
 30
0.0
210
0.0
220
0.0
230
1.0
  2
SOLID
 70
1
 71
0
 91
1
 92
3
 72
0
 73
1
 93
16
 10
90.7
 20
305.53333333333336
 10
90.6467156727579
 20
305.80121173598894
 10
90.49497474683058
 20
306.0283080801639
 10
90.26787840265557
 20
306.1800490060913
 10
90.0
 20
306.23333333333335
 10
89.73212159734443
 20
306.1800490060913
 10
89.50502525316942
 20
306.0283080801639
 10
89.3532843272421
 20
305.80121173598894
 10
89.3
 20
305.53333333333336
 10
89.3532843272421
 20
305.2654549306778
 10
89.50502525316942
 20
305.0383585865028
 10
89.73212159734443
 20
304.88661766057544
 10
90.0
 20
304.83333333333337
 10
90.26787840265557
 20
304.88661766057544
 10
90.49497474683058
 20
305.0383585865028
 10
90.6467156727579
 20
305.2654549306778
 97
0
 75
0
 76
1
 98
0
  0
CIRCLE
  5
CF
330
17
100
AcDbEntity
  8
S-REBAR-MAIN
100
AcDbCircle
 10
100.0
 20
305.53333333333336
 30
0.0
 40
0.7
  0
HATCH
  5
D0
330
17
100
AcDbEntity
  8
S-REBAR-MAIN
 62
1
100
AcDbHatch
 10
0.0
 20
0.0
 30
0.0
210
0.0
220
0.0
230
1.0
  2
SOLID
 70
1
 71
0
 91
1
 92
3
 72
0
 73
1
 93
16
 10
100.7
 20
305.53333333333336
 10
100.6467156727579
 20
305.80121173598894
 10
100.49497474683058
 20
306.0283080801639
 10
100.26787840265557
 20
306.1800490060913
 10
100.0
 20
306.23333333333335
 10
99.73212159734443
 20
306.1800490060913
 10
99.50502525316942
 20
306.0283080801639
 10
99.3532843272421
 20
305.80121173598894
 10
99.3
 20
305.53333333333336
 10
99.3532843272421
 20
305.2654549306778
 10
99.50502525316942
 20
305.0383585865028
 10
99.73212159734443
 20
304.88661766057544
 10
100.0
 20
304.83333333333337
 10
100.26787840265557
 20
304.88661766057544
 10
100.49497474683058
 20
305.0383585865028
 10
100.6467156727579
 20
305.2654549306778
 97
0
 75
0
 76
1
 98
0
  0
CIRCLE
  5
D1
330
17
100
AcDbEntity
  8
S-REBAR-MAIN
100
AcDbCircle
 10
110.0
 20
305.53333333333336
 30
0.0
 40
0.7
  0
HATCH
  5
D2
330
17
100
AcDbEntity
  8
S-REBAR-MAIN
 62
1
100
AcDbHatch
 10
0.0
 20
0.0
 30
0.0
210
0.0
220
0.0
230
1.0
  2
SOLID
 70
1
 71
0
 91
1
 92
3
 72
0
 73
1
 93
16
 10
110.7
 20
305.53333333333336
 10
110.6467156727579
 20
305.80121173598894
 10
110.49497474683058
 20
306.0283080801639
 10
110.26787840265557
 20
306.1800490060913
 10
110.0
 20
306.23333333333335
 10
109.73212159734443
 20
306.1800490060913
 10
109.50502525316942
 20
306.0283080801639
 10
109.3532843272421
 20
305.80121173598894
 10
109.3
 20
305.53333333333336
 10
109.3532843272421
 20
305.2654549306778
 10
109.50502525316942
 20
305.0383585865028
 10
109.73212159734443
 20
304.88661766057544
 10
110.0
 20
304.83333333333337
 10
110.26787840265557
 20
304.88661766057544
 10
110.49497474683058
 20
305.0383585865028
 10
110.6467156727579
 20
305.2654549306778
 97
0
 75
0
 76
1
 98
0
  0
CIRCLE
  5
D3
330
17
100
AcDbEntity
  8
S-REBAR-MAIN
100
AcDbCircle
 10
120.0
 20
305.53333333333336
 30
0.0
 40
0.7
  0
HATCH
  5
D4
330
17
100
AcDbEntity
  8
S-REBAR-MAIN
 62
1
100
AcDbHatch
 10
0.0
 20
0.0
 30
0.0
210
0.0
220
0.0
230
1.0
  2
SOLID
 70
1
 71
0
 91
1
 92
3
 72
0
 73
1
 93
16
 10
120.7
 20
305.53333333333336
 10
120.6467156727579
 20
305.80121173598894
 10
120.49497474683058
 20
306.0283080801639
 10
120.26787840265557
 20
306.1800490060913
 10
120.0
 20
306.23333333333335
 10
119.73212159734443
 20
306.1800490060913
 10
119.50502525316942
 20
306.0283080801639
 10
119.3532843272421
 20
305.80121173598894
 10
119.3
 20
305.53333333333336
 10
119.3532843272421
 20
305.2654549306778
 10
119.50502525316942
 20
305.0383585865028
 10
119.73212159734443
 20
304.88661766057544
 10
120.0
 20
304.83333333333337
 10
120.26787840265557
 20
304.88661766057544
 10
120.49497474683058
 20
305.0383585865028
 10
120.6467156727579
 20
305.2654549306778
 97
0
 75
0
 76
1
 98
0
  0
CIRCLE
  5
D5
330
17
100
AcDbEntity
  8
S-REBAR-MAIN
100
AcDbCircle
 10
130.0
 20
305.53333333333336
 30
0.0
 40
0.7
  0
HATCH
  5
D6
330
17
100
AcDbEntity
  8
S-REBAR-MAIN
 62
1
100
AcDbHatch
 10
0.0
 20
0.0
 30
0.0
210
0.0
220
0.0
230
1.0
  2
SOLID
 70
1
 71
0
 91
1
 92
3
 72
0
 73
1
 93
16
 10
130.7
 20
305.53333333333336
 10
130.6467156727579
 20
305.80121173598894
 10
130.4949747468306
 20
306.0283080801639
 10
130.26787840265555
 20
306.1800490060913
 10
130.0
 20
306.23333333333335
 10
129.73212159734445
 20
306.1800490060913
 10
129.5050252531694
 20
306.0283080801639
 10
129.3532843272421
 20
305.80121173598894
 10
129.3
 20
305.53333333333336
 10
129.3532843272421
 20
305.2654549306778
 10
129.5050252531694
 20
305.0383585865028
 10
129.73212159734445
 20
304.88661766057544
 10
130.0
 20
304.83333333333337
 10
130.26787840265555
 20
304.88661766057544
 10
130.4949747468306
 20
305.0383585865028
 10
130.6467156727579
 20
305.2654549306778
 97
0
 75
0
 76
1
 98
0
  0
CIRCLE
  5
D7
330
17
100
AcDbEntity
  8
S-REBAR-MAIN
100
AcDbCircle
 10
140.0
 20
305.53333333333336
 30
0.0
 40
0.7
  0
HATCH
  5
D8
330
17
100
AcDbEntity
  8
S-REBAR-MAIN
 62
1
100
AcDbHatch
 10
0.0
 20
0.0
 30
0.0
210
0.0
220
0.0
230
1.0
  2
SOLID
 70
1
 71
0
 91
1
 92
3
 72
0
 73
1
 93
16
 10
140.7
 20
305.53333333333336
 10
140.6467156727579
 20
305.80121173598894
 10
140.4949747468306
 20
306.0283080801639
 10
140.26787840265555
 20
306.1800490060913
 10
140.0
 20
306.23333333333335
 10
139.73212159734445
 20
306.1800490060913
 10
139.5050252531694
 20
306.0283080801639
 10
139.3532843272421
 20
305.80121173598894
 10
139.3
 20
305.53333333333336
 10
139.3532843272421
 20
305.2654549306778
 10
139.5050252531694
 20
305.0383585865028
 10
139.73212159734445
 20
304.88661766057544
 10
140.0
 20
304.83333333333337
 10
140.26787840265555
 20
304.88661766057544
 10
140.4949747468306
 20
305.0383585865028
 10
140.6467156727579
 20
305.2654549306778
 97
0
 75
0
 76
1
 98
0
  0
CIRCLE
  5
D9
330
17
100
AcDbEntity
  8
S-REBAR-MAIN
100
AcDbCircle
 10
150.0
 20
305.53333333333336
 30
0.0
 40
0.7
  0
HATCH
  5
DA
330
17
100
AcDbEntity
  8
S-REBAR-MAIN
 62
1
100
AcDbHatch
 10
0.0
 20
0.0
 30
0.0
210
0.0
220
0.0
230
1.0
  2
SOLID
 70
1
 71
0
 91
1
 92
3
 72
0
 73
1
 93
16
 10
150.7
 20
305.53333333333336
 10
150.6467156727579
 20
305.80121173598894
 10
150.4949747468306
 20
306.0283080801639
 10
150.26787840265555
 20
306.1800490060913
 10
150.0
 20
306.23333333333335
 10
149.73212159734445
 20
306.1800490060913
 10
149.5050252531694
 20
306.0283080801639
 10
149.3532843272421
 20
305.80121173598894
 10
149.3
 20
305.53333333333336
 10
149.3532843272421
 20
305.2654549306778
 10
149.5050252531694
 20
305.0383585865028
 10
149.73212159734445
 20
304.88661766057544
 10
150.0
 20
304.83333333333337
 10
150.26787840265555
 20
304.88661766057544
 10
150.4949747468306
 20
305.0383585865028
 10
150.6467156727579
 20
305.2654549306778
 97
0
 75
0
 76
1
 98
0
  0
CIRCLE
  5
DB
330
17
100
AcDbEntity
  8
S-REBAR-MAIN
100
AcDbCircle
 10
160.0
 20
305.53333333333336
 30
0.0
 40
0.7
  0
HATCH
  5
DC
330
17
100
AcDbEntity
  8
S-REBAR-MAIN
 62
1
100
AcDbHatch
 10
0.0
 20
0.0
 30
0.0
210
0.0
220
0.0
230
1.0
  2
SOLID
 70
1
 71
0
 91
1
 92
3
 72
0
 73
1
 93
16
 10
160.7
 20
305.53333333333336
 10
160.6467156727579
 20
305.80121173598894
 10
160.4949747468306
 20
306.0283080801639
 10
160.26787840265555
 20
306.1800490060913
 10
160.0
 20
306.23333333333335
 10
159.73212159734445
 20
306.1800490060913
 10
159.5050252531694
 20
306.0283080801639
 10
159.3532843272421
 20
305.80121173598894
 10
159.3
 20
305.53333333333336
 10
159.3532843272421
 20
305.2654549306778
 10
159.5050252531694
 20
305.0383585865028
 10
159.73212159734445
 20
304.88661766057544
 10
160.0
 20
304.83333333333337
 10
160.26787840265555
 20
304.88661766057544
 10
160.4949747468306
 20
305.0383585865028
 10
160.6467156727579
 20
305.2654549306778
 97
0
 75
0
 76
1
 98
0
  0
CIRCLE
  5
DD
330
17
100
AcDbEntity
  8
S-REBAR-MAIN
100
AcDbCircle
 10
170.0
 20
305.53333333333336
 30
0.0
 40
0.7
  0
HATCH
  5
DE
330
17
100
AcDbEntity
  8
S-REBAR-MAIN
 62
1
100
AcDbHatch
 10
0.0
 20
0.0
 30
0.0
210
0.0
220
0.0
230
1.0
  2
SOLID
 70
1
 71
0
 91
1
 92
3
 72
0
 73
1
 93
16
 10
170.7
 20
305.53333333333336
 10
170.6467156727579
 20
305.80121173598894
 10
170.4949747468306
 20
306.0283080801639
 10
170.26787840265555
 20
306.1800490060913
 10
170.0
 20
306.23333333333335
 10
169.73212159734445
 20
306.1800490060913
 10
169.5050252531694
 20
306.0283080801639
 10
169.3532843272421
 20
305.80121173598894
 10
169.3
 20
305.53333333333336
 10
169.3532843272421
 20
305.2654549306778
 10
169.5050252531694
 20
305.0383585865028
 10
169.73212159734445
 20
304.88661766057544
 10
170.0
 20
304.83333333333337
 10
170.26787840265555
 20
304.88661766057544
 10
170.4949747468306
 20
305.0383585865028
 10
170.6467156727579
 20
305.2654549306778
 97
0
 75
0
 76
1
 98
0
  0
CIRCLE
  5
DF
330
17
100
AcDbEntity
  8
S-REBAR-MAIN
100
AcDbCircle
 10
180.0
 20
305.53333333333336
 30
0.0
 40
0.7
  0
HATCH
  5
E0
330
17
100
AcDbEntity
  8
S-REBAR-MAIN
 62
1
100
AcDbHatch
 10
0.0
 20
0.0
 30
0.0
210
0.0
220
0.0
230
1.0
  2
SOLID
 70
1
 71
0
 91
1
 92
3
 72
0
 73
1
 93
16
 10
180.7
 20
305.53333333333336
 10
180.6467156727579
 20
305.80121173598894
 10
180.4949747468306
 20
306.0283080801639
 10
180.26787840265555
 20
306.1800490060913
 10
180.0
 20
306.23333333333335
 10
179.73212159734445
 20
306.1800490060913
 10
179.5050252531694
 20
306.0283080801639
 10
179.3532843272421
 20
305.80121173598894
 10
179.3
 20
305.53333333333336
 10
179.3532843272421
 20
305.2654549306778
 10
179.5050252531694
 20
305.0383585865028
 10
179.73212159734445
 20
304.88661766057544
 10
180.0
 20
304.83333333333337
 10
180.26787840265555
 20
304.88661766057544
 10
180.4949747468306
 20
305.0383585865028
 10
180.6467156727579
 20
305.2654549306778
 97
0
 75
0
 76
1
 98
0
  0
CIRCLE
  5
E1
330
17
100
AcDbEntity
  8
S-REBAR-MAIN
100
AcDbCircle
 10
190.0
 20
305.53333333333336
 30
0.0
 40
0.7
  0
HATCH
  5
E2
330
17
100
AcDbEntity
  8
S-REBAR-MAIN
 62
1
100
AcDbHatch
 10
0.0
 20
0.0
 30
0.0
210
0.0
220
0.0
230
1.0
  2
SOLID
 70
1
 71
0
 91
1
 92
3
 72
0
 73
1
 93
16
 10
190.7
 20
305.53333333333336
 10
190.6467156727579
 20
305.80121173598894
 10
190.4949747468306
 20
306.0283080801639
 10
190.26787840265555
 20
306.1800490060913
 10
190.0
 20
306.23333333333335
 10
189.73212159734445
 20
306.1800490060913
 10
189.5050252531694
 20
306.0283080801639
 10
189.3532843272421
 20
305.80121173598894
 10
189.3
 20
305.53333333333336
 10
189.3532843272421
 20
305.2654549306778
 10
189.5050252531694
 20
305.0383585865028
 10
189.73212159734445
 20
304.88661766057544
 10
190.0
 20
304.83333333333337
 10
190.26787840265555
 20
304.88661766057544
 10
190.4949747468306
 20
305.0383585865028
 10
190.6467156727579
 20
305.2654549306778
 97
0
 75
0
 76
1
 98
0
  0
CIRCLE
  5
E3
330
17
100
AcDbEntity
  8
S-REBAR-MAIN
100
AcDbCircle
 10
200.0
 20
305.53333333333336
 30
0.0
 40
0.7
  0
HATCH
  5
E4
330
17
100
AcDbEntity
  8
S-REBAR-MAIN
 62
1
100
AcDbHatch
 10
0.0
 20
0.0
 30
0.0
210
0.0
220
0.0
230
1.0
  2
SOLID
 70
1
 71
0
 91
1
 92
3
 72
0
 73
1
 93
16
 10
200.7
 20
305.53333333333336
 10
200.6467156727579
 20
305.80121173598894
 10
200.4949747468306
 20
306.0283080801639
 10
200.26787840265555
 20
306.1800490060913
 10
200.0
 20
306.23333333333335
 10
199.73212159734445
 20
306.1800490060913
 10
199.5050252531694
 20
306.0283080801639
 10
199.3532843272421
 20
305.80121173598894
 10
199.3
 20
305.53333333333336
 10
199.3532843272421
 20
305.2654549306778
 10
199.5050252531694
 20
305.0383585865028
 10
199.73212159734445
 20
304.88661766057544
 10
200.0
 20
304.83333333333337
 10
200.26787840265555
 20
304.88661766057544
 10
200.4949747468306
 20
305.0383585865028
 10
200.6467156727579
 20
305.2654549306778
 97
0
 75
0
 76
1
 98
0
  0
CIRCLE
  5
E5
330
17
100
AcDbEntity
  8
S-REBAR-MAIN
100
AcDbCircle
 10
70.0
 20
336.8
 30
0.0
 40
0.7
  0
HATCH
  5
E6
330
17
100
AcDbEntity
  8
S-REBAR-MAIN
 62
1
100
AcDbHatch
 10
0.0
 20
0.0
 30
0.0
210
0.0
220
0.0
230
1.0
  2
SOLID
 70
1
 71
0
 91
1
 92
3
 72
0
 73
1
 93
16
 10
70.7
 20
336.8
 10
70.6467156727579
 20
337.0678784026556
 10
70.49497474683058
 20
337.2949747468306
 10
70.26787840265557
 20
337.44671567275793
 10
70.0
 20
337.5
 10
69.73212159734443
 20
337.44671567275793
 10
69.50502525316942
 20
337.2949747468306
 10
69.3532843272421
 20
337.0678784026556
 10
69.3
 20
336.8
 10
69.3532843272421
 20
336.5321215973444
 10
69.50502525316942
 20
336.30502525316945
 10
69.73212159734443
 20
336.1532843272421
 10
70.0
 20
336.1
 10
70.26787840265557
 20
336.1532843272421
 10
70.49497474683058
 20
336.30502525316945
 10
70.6467156727579
 20
336.5321215973444
 97
0
 75
0
 76
1
 98
0
  0
CIRCLE
  5
E7
330
17
100
AcDbEntity
  8
S-REBAR-MAIN
100
AcDbCircle
 10
80.0
 20
336.8
 30
0.0
 40
0.7
  0
HATCH
  5
E8
330
17
100
AcDbEntity
  8
S-REBAR-MAIN
 62
1
100
AcDbHatch
 10
0.0
 20
0.0
 30
0.0
210
0.0
220
0.0
230
1.0
  2
SOLID
 70
1
 71
0
 91
1
 92
3
 72
0
 73
1
 93
16
 10
80.7
 20
336.8
 10
80.6467156727579
 20
337.0678784026556
 10
80.49497474683058
 20
337.2949747468306
 10
80.26787840265557
 20
337.44671567275793
 10
80.0
 20
337.5
 10
79.73212159734443
 20
337.44671567275793
 10
79.50502525316942
 20
337.2949747468306
 10
79.3532843272421
 20
337.0678784026556
 10
79.3
 20
336.8
 10
79.3532843272421
 20
336.5321215973444
 10
79.50502525316942
 20
336.30502525316945
 10
79.73212159734443
 20
336.1532843272421
 10
80.0
 20
336.1
 10
80.26787840265557
 20
336.1532843272421
 10
80.49497474683058
 20
336.30502525316945
 10
80.6467156727579
 20
336.5321215973444
 97
0
 75
0
 76
1
 98
0
  0
CIRCLE
  5
E9
330
17
100
AcDbEntity
  8
S-REBAR-MAIN
100
AcDbCircle
 10
90.0
 20
336.8
 30
0.0
 40
0.7
  0
HATCH
  5
EA
330
17
100
AcDbEntity
  8
S-REBAR-MAIN
 62
1
100
AcDbHatch
 10
0.0
 20
0.0
 30
0.0
210
0.0
220
0.0
230
1.0
  2
SOLID
 70
1
 71
0
 91
1
 92
3
 72
0
 73
1
 93
16
 10
90.7
 20
336.8
 10
90.6467156727579
 20
337.0678784026556
 10
90.49497474683058
 20
337.2949747468306
 10
90.26787840265557
 20
337.44671567275793
 10
90.0
 20
337.5
 10
89.73212159734443
 20
337.44671567275793
 10
89.50502525316942
 20
337.2949747468306
 10
89.3532843272421
 20
337.0678784026556
 10
89.3
 20
336.8
 10
89.3532843272421
 20
336.5321215973444
 10
89.50502525316942
 20
336.30502525316945
 10
89.73212159734443
 20
336.1532843272421
 10
90.0
 20
336.1
 10
90.26787840265557
 20
336.1532843272421
 10
90.49497474683058
 20
336.30502525316945
 10
90.6467156727579
 20
336.5321215973444
 97
0
 75
0
 76
1
 98
0
  0
CIRCLE
  5
EB
330
17
100
AcDbEntity
  8
S-REBAR-MAIN
100
AcDbCircle
 10
100.0
 20
336.8
 30
0.0
 40
0.7
  0
HATCH
  5
EC
330
17
100
AcDbEntity
  8
S-REBAR-MAIN
 62
1
100
AcDbHatch
 10
0.0
 20
0.0
 30
0.0
210
0.0
220
0.0
230
1.0
  2
SOLID
 70
1
 71
0
 91
1
 92
3
 72
0
 73
1
 93
16
 10
100.7
 20
336.8
 10
100.6467156727579
 20
337.0678784026556
 10
100.49497474683058
 20
337.2949747468306
 10
100.26787840265557
 20
337.44671567275793
 10
100.0
 20
337.5
 10
99.73212159734443
 20
337.44671567275793
 10
99.50502525316942
 20
337.2949747468306
 10
99.3532843272421
 20
337.0678784026556
 10
99.3
 20
336.8
 10
99.3532843272421
 20
336.5321215973444
 10
99.50502525316942
 20
336.30502525316945
 10
99.73212159734443
 20
336.1532843272421
 10
100.0
 20
336.1
 10
100.26787840265557
 20
336.1532843272421
 10
100.49497474683058
 20
336.30502525316945
 10
100.6467156727579
 20
336.5321215973444
 97
0
 75
0
 76
1
 98
0
  0
CIRCLE
  5
ED
330
17
100
AcDbEntity
  8
S-REBAR-MAIN
100
AcDbCircle
 10
110.0
 20
336.8
 30
0.0
 40
0.7
  0
HATCH
  5
EE
330
17
100
AcDbEntity
  8
S-REBAR-MAIN
 62
1
100
AcDbHatch
 10
0.0
 20
0.0
 30
0.0
210
0.0
220
0.0
230
1.0
  2
SOLID
 70
1
 71
0
 91
1
 92
3
 72
0
 73
1
 93
16
 10
110.7
 20
336.8
 10
110.6467156727579
 20
337.0678784026556
 10
110.49497474683058
 20
337.2949747468306
 10
110.26787840265557
 20
337.44671567275793
 10
110.0
 20
337.5
 10
109.73212159734443
 20
337.44671567275793
 10
109.50502525316942
 20
337.2949747468306
 10
109.3532843272421
 20
337.0678784026556
 10
109.3
 20
336.8
 10
109.3532843272421
 20
336.5321215973444
 10
109.50502525316942
 20
336.30502525316945
 10
109.73212159734443
 20
336.1532843272421
 10
110.0
 20
336.1
 10
110.26787840265557
 20
336.1532843272421
 10
110.49497474683058
 20
336.30502525316945
 10
110.6467156727579
 20
336.5321215973444
 97
0
 75
0
 76
1
 98
0
  0
CIRCLE
  5
EF
330
17
100
AcDbEntity
  8
S-REBAR-MAIN
100
AcDbCircle
 10
120.0
 20
336.8
 30
0.0
 40
0.7
  0
HATCH
  5
F0
330
17
100
AcDbEntity
  8
S-REBAR-MAIN
 62
1
100
AcDbHatch
 10
0.0
 20
0.0
 30
0.0
210
0.0
220
0.0
230
1.0
  2
SOLID
 70
1
 71
0
 91
1
 92
3
 72
0
 73
1
 93
16
 10
120.7
 20
336.8
 10
120.6467156727579
 20
337.0678784026556
 10
120.49497474683058
 20
337.2949747468306
 10
120.26787840265557
 20
337.44671567275793
 10
120.0
 20
337.5
 10
119.73212159734443
 20
337.44671567275793
 10
119.50502525316942
 20
337.2949747468306
 10
119.3532843272421
 20
337.0678784026556
 10
119.3
 20
336.8
 10
119.3532843272421
 20
336.5321215973444
 10
119.50502525316942
 20
336.30502525316945
 10
119.73212159734443
 20
336.1532843272421
 10
120.0
 20
336.1
 10
120.26787840265557
 20
336.1532843272421
 10
120.49497474683058
 20
336.30502525316945
 10
120.6467156727579
 20
336.5321215973444
 97
0
 75
0
 76
1
 98
0
  0
CIRCLE
  5
F1
330
17
100
AcDbEntity
  8
S-REBAR-MAIN
100
AcDbCircle
 10
130.0
 20
336.8
 30
0.0
 40
0.7
  0
HATCH
  5
F2
330
17
100
AcDbEntity
  8
S-REBAR-MAIN
 62
1
100
AcDbHatch
 10
0.0
 20
0.0
 30
0.0
210
0.0
220
0.0
230
1.0
  2
SOLID
 70
1
 71
0
 91
1
 92
3
 72
0
 73
1
 93
16
 10
130.7
 20
336.8
 10
130.6467156727579
 20
337.0678784026556
 10
130.4949747468306
 20
337.2949747468306
 10
130.26787840265555
 20
337.44671567275793
 10
130.0
 20
337.5
 10
129.73212159734445
 20
337.44671567275793
 10
129.5050252531694
 20
337.2949747468306
 10
129.3532843272421
 20
337.0678784026556
 10
129.3
 20
336.8
 10
129.3532843272421
 20
336.5321215973444
 10
129.5050252531694
 20
336.30502525316945
 10
129.73212159734445
 20
336.1532843272421
 10
130.0
 20
336.1
 10
130.26787840265555
 20
336.1532843272421
 10
130.4949747468306
 20
336.30502525316945
 10
130.6467156727579
 20
336.5321215973444
 97
0
 75
0
 76
1
 98
0
  0
CIRCLE
  5
F3
330
17
100
AcDbEntity
  8
S-REBAR-MAIN
100
AcDbCircle
 10
140.0
 20
336.8
 30
0.0
 40
0.7
  0
HATCH
  5
F4
330
17
100
AcDbEntity
  8
S-REBAR-MAIN
 62
1
100
AcDbHatch
 10
0.0
 20
0.0
 30
0.0
210
0.0
220
0.0
230
1.0
  2
SOLID
 70
1
 71
0
 91
1
 92
3
 72
0
 73
1
 93
16
 10
140.7
 20
336.8
 10
140.6467156727579
 20
337.0678784026556
 10
140.4949747468306
 20
337.2949747468306
 10
140.26787840265555
 20
337.44671567275793
 10
140.0
 20
337.5
 10
139.73212159734445
 20
337.44671567275793
 10
139.5050252531694
 20
337.2949747468306
 10
139.3532843272421
 20
337.0678784026556
 10
139.3
 20
336.8
 10
139.3532843272421
 20
336.5321215973444
 10
139.5050252531694
 20
336.30502525316945
 10
139.73212159734445
 20
336.1532843272421
 10
140.0
 20
336.1
 10
140.26787840265555
 20
336.1532843272421
 10
140.4949747468306
 20
336.30502525316945
 10
140.6467156727579
 20
336.5321215973444
 97
0
 75
0
 76
1
 98
0
  0
CIRCLE
  5
F5
330
17
100
AcDbEntity
  8
S-REBAR-MAIN
100
AcDbCircle
 10
150.0
 20
336.8
 30
0.0
 40
0.7
  0
HATCH
  5
F6
330
17
100
AcDbEntity
  8
S-REBAR-MAIN
 62
1
100
AcDbHatch
 10
0.0
 20
0.0
 30
0.0
210
0.0
220
0.0
230
1.0
  2
SOLID
 70
1
 71
0
 91
1
 92
3
 72
0
 73
1
 93
16
 10
150.7
 20
336.8
 10
150.6467156727579
 20
337.0678784026556
 10
150.4949747468306
 20
337.2949747468306
 10
150.26787840265555
 20
337.44671567275793
 10
150.0
 20
337.5
 10
149.73212159734445
 20
337.44671567275793
 10
149.5050252531694
 20
337.2949747468306
 10
149.3532843272421
 20
337.0678784026556
 10
149.3
 20
336.8
 10
149.3532843272421
 20
336.5321215973444
 10
149.5050252531694
 20
336.30502525316945
 10
149.73212159734445
 20
336.1532843272421
 10
150.0
 20
336.1
 10
150.26787840265555
 20
336.1532843272421
 10
150.4949747468306
 20
336.30502525316945
 10
150.6467156727579
 20
336.5321215973444
 97
0
 75
0
 76
1
 98
0
  0
CIRCLE
  5
F7
330
17
100
AcDbEntity
  8
S-REBAR-MAIN
100
AcDbCircle
 10
160.0
 20
336.8
 30
0.0
 40
0.7
  0
HATCH
  5
F8
330
17
100
AcDbEntity
  8
S-REBAR-MAIN
 62
1
100
AcDbHatch
 10
0.0
 20
0.0
 30
0.0
210
0.0
220
0.0
230
1.0
  2
SOLID
 70
1
 71
0
 91
1
 92
3
 72
0
 73
1
 93
16
 10
160.7
 20
336.8
 10
160.6467156727579
 20
337.0678784026556
 10
160.4949747468306
 20
337.2949747468306
 10
160.26787840265555
 20
337.44671567275793
 10
160.0
 20
337.5
 10
159.73212159734445
 20
337.44671567275793
 10
159.5050252531694
 20
337.2949747468306
 10
159.3532843272421
 20
337.0678784026556
 10
159.3
 20
336.8
 10
159.3532843272421
 20
336.5321215973444
 10
159.5050252531694
 20
336.30502525316945
 10
159.73212159734445
 20
336.1532843272421
 10
160.0
 20
336.1
 10
160.26787840265555
 20
336.1532843272421
 10
160.4949747468306
 20
336.30502525316945
 10
160.6467156727579
 20
336.5321215973444
 97
0
 75
0
 76
1
 98
0
  0
CIRCLE
  5
F9
330
17
100
AcDbEntity
  8
S-REBAR-MAIN
100
AcDbCircle
 10
170.0
 20
336.8
 30
0.0
 40
0.7
  0
HATCH
  5
FA
330
17
100
AcDbEntity
  8
S-REBAR-MAIN
 62
1
100
AcDbHatch
 10
0.0
 20
0.0
 30
0.0
210
0.0
220
0.0
230
1.0
  2
SOLID
 70
1
 71
0
 91
1
 92
3
 72
0
 73
1
 93
16
 10
170.7
 20
336.8
 10
170.6467156727579
 20
337.0678784026556
 10
170.4949747468306
 20
337.2949747468306
 10
170.26787840265555
 20
337.44671567275793
 10
170.0
 20
337.5
 10
169.73212159734445
 20
337.44671567275793
 10
169.5050252531694
 20
337.2949747468306
 10
169.3532843272421
 20
337.0678784026556
 10
169.3
 20
336.8
 10
169.3532843272421
 20
336.5321215973444
 10
169.5050252531694
 20
336.30502525316945
 10
169.73212159734445
 20
336.1532843272421
 10
170.0
 20
336.1
 10
170.26787840265555
 20
336.1532843272421
 10
170.4949747468306
 20
336.30502525316945
 10
170.6467156727579
 20
336.5321215973444
 97
0
 75
0
 76
1
 98
0
  0
CIRCLE
  5
FB
330
17
100
AcDbEntity
  8
S-REBAR-MAIN
100
AcDbCircle
 10
180.0
 20
336.8
 30
0.0
 40
0.7
  0
HATCH
  5
FC
330
17
100
AcDbEntity
  8
S-REBAR-MAIN
 62
1
100
AcDbHatch
 10
0.0
 20
0.0
 30
0.0
210
0.0
220
0.0
230
1.0
  2
SOLID
 70
1
 71
0
 91
1
 92
3
 72
0
 73
1
 93
16
 10
180.7
 20
336.8
 10
180.6467156727579
 20
337.0678784026556
 10
180.4949747468306
 20
337.2949747468306
 10
180.26787840265555
 20
337.44671567275793
 10
180.0
 20
337.5
 10
179.73212159734445
 20
337.44671567275793
 10
179.5050252531694
 20
337.2949747468306
 10
179.3532843272421
 20
337.0678784026556
 10
179.3
 20
336.8
 10
179.3532843272421
 20
336.5321215973444
 10
179.5050252531694
 20
336.30502525316945
 10
179.73212159734445
 20
336.1532843272421
 10
180.0
 20
336.1
 10
180.26787840265555
 20
336.1532843272421
 10
180.4949747468306
 20
336.30502525316945
 10
180.6467156727579
 20
336.5321215973444
 97
0
 75
0
 76
1
 98
0
  0
CIRCLE
  5
FD
330
17
100
AcDbEntity
  8
S-REBAR-MAIN
100
AcDbCircle
 10
190.0
 20
336.8
 30
0.0
 40
0.7
  0
HATCH
  5
FE
330
17
100
AcDbEntity
  8
S-REBAR-MAIN
 62
1
100
AcDbHatch
 10
0.0
 20
0.0
 30
0.0
210
0.0
220
0.0
230
1.0
  2
SOLID
 70
1
 71
0
 91
1
 92
3
 72
0
 73
1
 93
16
 10
190.7
 20
336.8
 10
190.6467156727579
 20
337.0678784026556
 10
190.4949747468306
 20
337.2949747468306
 10
190.26787840265555
 20
337.44671567275793
 10
190.0
 20
337.5
 10
189.73212159734445
 20
337.44671567275793
 10
189.5050252531694
 20
337.2949747468306
 10
189.3532843272421
 20
337.0678784026556
 10
189.3
 20
336.8
 10
189.3532843272421
 20
336.5321215973444
 10
189.5050252531694
 20
336.30502525316945
 10
189.73212159734445
 20
336.1532843272421
 10
190.0
 20
336.1
 10
190.26787840265555
 20
336.1532843272421
 10
190.4949747468306
 20
336.30502525316945
 10
190.6467156727579
 20
336.5321215973444
 97
0
 75
0
 76
1
 98
0
  0
CIRCLE
  5
FF
330
17
100
AcDbEntity
  8
S-REBAR-MAIN
100
AcDbCircle
 10
200.0
 20
336.8
 30
0.0
 40
0.7
  0
HATCH
  5
100
330
17
100
AcDbEntity
  8
S-REBAR-MAIN
 62
1
100
AcDbHatch
 10
0.0
 20
0.0
 30
0.0
210
0.0
220
0.0
230
1.0
  2
SOLID
 70
1
 71
0
 91
1
 92
3
 72
0
 73
1
 93
16
 10
200.7
 20
336.8
 10
200.6467156727579
 20
337.0678784026556
 10
200.4949747468306
 20
337.2949747468306
 10
200.26787840265555
 20
337.44671567275793
 10
200.0
 20
337.5
 10
199.73212159734445
 20
337.44671567275793
 10
199.5050252531694
 20
337.2949747468306
 10
199.3532843272421
 20
337.0678784026556
 10
199.3
 20
336.8
 10
199.3532843272421
 20
336.5321215973444
 10
199.5050252531694
 20
336.30502525316945
 10
199.73212159734445
 20
336.1532843272421
 10
200.0
 20
336.1
 10
200.26787840265555
 20
336.1532843272421
 10
200.4949747468306
 20
336.30502525316945
 10
200.6467156727579
 20
336.5321215973444
 97
0
 75
0
 76
1
 98
0
  0
LINE
  5
101
330
17
100
AcDbEntity
  8
S-REBAR-SEC
100
AcDbLine
 10
100.0
 20
336.0
 30
0.0
 11
96.0
 21
340.0
 31
0.0
  0
LINE
  5
102
330
17
100
AcDbEntity
  8
S-REBAR-SEC
100
AcDbLine
 10
110.0
 20
336.0
 30
0.0
 11
96.0
 21
350.0
 31
0.0
  0
LINE
  5
103
330
17
100
AcDbEntity
  8
S-REBAR-SEC
100
AcDbLine
 10
120.0
 20
336.0
 30
0.0
 11
96.0
 21
360.0
 31
0.0
  0
LINE
  5
104
330
17
100
AcDbEntity
  8
S-REBAR-SEC
100
AcDbLine
 10
130.0
 20
336.0
 30
0.0
 11
96.0
 21
370.0
 31
0.0
  0
LINE
  5
105
330
17
100
AcDbEntity
  8
S-HIDDEN
100
AcDbLine
 10
60.0
 20
350.0
 30
0.0
 11
62.0
 21
350.0
 31
0.0
  0
LINE
  5
106
330
17
100
AcDbEntity
  8
S-HIDDEN
100
AcDbLine
 10
63.4
 20
350.0
 30
0.0
 11
65.4
 21
350.0
 31
0.0
  0
LINE
  5
107
330
17
100
AcDbEntity
  8
S-HIDDEN
100
AcDbLine
 10
66.8
 20
350.0
 30
0.0
 11
68.8
 21
350.0
 31
0.0
  0
LINE
  5
108
330
17
100
AcDbEntity
  8
S-HIDDEN
100
AcDbLine
 10
70.2
 20
350.0
 30
0.0
 11
72.2
 21
350.0
 31
0.0
  0
LINE
  5
109
330
17
100
AcDbEntity
  8
S-HIDDEN
100
AcDbLine
 10
73.6
 20
350.0
 30
0.0
 11
75.6
 21
350.0
 31
0.0
  0
LINE
  5
10A
330
17
100
AcDbEntity
  8
S-HIDDEN
100
AcDbLine
 10
77.0
 20
350.0
 30
0.0
 11
79.0
 21
350.0
 31
0.0
  0
LINE
  5
10B
330
17
100
AcDbEntity
  8
S-HIDDEN
100
AcDbLine
 10
80.4
 20
350.0
 30
0.0
 11
82.4
 21
350.0
 31
0.0
  0
LINE
  5
10C
330
17
100
AcDbEntity
  8
S-HIDDEN
100
AcDbLine
 10
83.8
 20
350.0
 30
0.0
 11
85.8
 21
350.0
 31
0.0
  0
LINE
  5
10D
330
17
100
AcDbEntity
  8
S-HIDDEN
100
AcDbLine
 10
87.19999999999999
 20
350.0
 30
0.0
 11
89.19999999999999
 21
350.0
 31
0.0
  0
LINE
  5
10E
330
17
100
AcDbEntity
  8
S-HIDDEN
100
AcDbLine
 10
90.6
 20
350.0
 30
0.0
 11
92.6
 21
350.0
 31
0.0
  0
LINE
  5
10F
330
17
100
AcDbEntity
  8
S-HIDDEN
100
AcDbLine
 10
94.0
 20
350.0
 30
0.0
 11
96.0
 21
350.0
 31
0.0
  0
LINE
  5
110
330
17
100
AcDbEntity
  8
S-HIDDEN
100
AcDbLine
 10
97.39999999999999
 20
350.0
 30
0.0
 11
99.39999999999999
 21
350.0
 31
0.0
  0
DIMENSION
  5
111
330
17
100
AcDbEntity
  8
S-DIM
100
AcDbDimension
280
0
  2
*D1
  3
SC-DIM
 10
100.0
 20
466.66666666666663
 30
0.0
 11
116.66666666666666
 21
468.3666666666666
 31
0.0
 70
32
 71
5
  1
<>
100
AcDbAlignedDimension
 13
100.0
 23
340.0
 33
0.0
 14
133.33333333333331
 24
340.0
 34
0.0
 50
0.0
100
AcDbRotatedDimension
1001
ACAD
1000
DSTYLE
1002
{
1070
144
1040
15.0
1002
}
  0
TEXT
  5
120
330
17
100
AcDbEntity
  8
S-TITLE
100
AcDbText
 10
30.0
 20
552.0
 30
0.0
 40
3.5
  1
D1   WALL / MAT - STARTER, KICKER AND 500 HAUNCH
  7
OpenSans
 11
30.0
 21
552.0
 31
0.0
100
AcDbText
  0
LINE
  5
121
330
17
100
AcDbEntity
  8
S-TITLE
100
AcDbLine
 10
30.0
 20
550.2
 30
0.0
 11
162.1912257200268
 21
550.2
 31
0.0
  0
TEXT
  5
122
330
17
100
AcDbEntity
  8
S-TEXT
100
AcDbText
 10
30.0
 20
544.8
 30
0.0
 40
2.0
  1
SCALE 1:15
  7
OpenSans
 11
30.0
 21
544.8
 31
0.0
100
AcDbText
  0
INSERT
  5
123
330
17
100
AcDbEntity
  8
S-CALLOUT
100
AcDbBlockReference
  2
BARMARK
 10
36.0
 20
380.0
 30
0.0
  0
TEXT
  5
125
330
17
100
AcDbEntity
  8
S-CALLOUT
100
AcDbText
 10
36.0
 20
380.0
 30
0.0
 40
2.0
  1
F07
  7
OpenSans
 72
1
 11
36.0
 21
380.0
 31
0.0
100
AcDbText
 73
2
  0
LEADER
  5
126
330
17
100
AcDbEntity
  8
S-CALLOUT
100
AcDbLeader
  3
SC-DIM
 73
3
 76
2
 10
73.33333333333333
 20
373.3333333333333
 30
0.0
 10
36.0
 20
380.0
 30
0.0
  0
INSERT
  5
127
330
17
100
AcDbEntity
  8
S-CALLOUT
100
AcDbBlockReference
  2
BARMARK
 10
128.0
 20
350.0
 30
0.0
  0
TEXT
  5
129
330
17
100
AcDbEntity
  8
S-CALLOUT
100
AcDbText
 10
128.0
 20
350.0
 30
0.0
 40
2.0
  1
W06
  7
OpenSans
 72
1
 11
128.0
 21
350.0
 31
0.0
100
AcDbText
 73
2
  0
LEADER
  5
12A
330
17
100
AcDbEntity
  8
S-CALLOUT
100
AcDbLeader
  3
SC-DIM
 73
3
 76
2
 10
113.33333333333334
 20
353.3333333333333
 30
0.0
 10
128.0
 20
350.0
 30
0.0
  0
LWPOLYLINE
  5
12B
330
17
100
AcDbEntity
  8
S-CONCRETE
100
AcDbPolyline
 90
4
 70
1
 10
240.0
 20
300.0
 10
280.0
 20
300.0
 10
280.0
 20
406.6666666666667
 10
240.0
 20
406.6666666666667
  0
LWPOLYLINE
  5
12C
330
17
100
AcDbEntity
  8
S-CONCRETE
100
AcDbPolyline
 90
4
 70
1
 10
240.0
 20
406.6666666666667
 10
386.66666666666663
 20
406.6666666666667
 10
386.66666666666663
 20
466.66666666666663
 10
240.0
 20
466.66666666666663
  0
LWPOLYLINE
  5
12D
330
17
100
AcDbEntity
  8
S-CONCRETE
100
AcDbPolyline
 90
3
 70
0
 10
280.0
 20
406.6666666666667
 10
313.3333333333333
 20
406.6666666666667
 10
280.0
 20
373.3333333333333
  0
HATCH
  5
12E
330
17
100
AcDbEntity
  8
S-HATCH
 62
7
100
AcDbHatch
 10
0.0
 20
0.0
 30
0.0
210
0.0
220
0.0
230
1.0
  2
ANSI31
 70
0
 71
0
 91
1
 92
3
 72
0
 73
1
 93
4
 10
240.0
 20
300.0
 10
280.0
 20
300.0
 10
280.0
 20
406.6666666666667
 10
240.0
 20
406.6666666666667
 97
0
 75
1
 76
1
 52
0.0
 41
1.6
 77
0
 78
1
 53
45.0
 43
0.0
 44
0.0
 45
-3.5921024485
 46
3.5921024485
 79
0
 98
0
  0
HATCH
  5
12F
330
17
100
AcDbEntity
  8
S-HATCH
 62
7
100
AcDbHatch
 10
0.0
 20
0.0
 30
0.0
210
0.0
220
0.0
230
1.0
  2
ANSI31
 70
0
 71
0
 91
1
 92
3
 72
0
 73
1
 93
4
 10
240.0
 20
406.6666666666667
 10
386.66666666666663
 20
406.6666666666667
 10
386.66666666666663
 20
466.66666666666663
 10
240.0
 20
466.66666666666663
 97
0
 75
1
 76
1
 52
0.0
 41
1.6
 77
0
 78
1
 53
45.0
 43
0.0
 44
0.0
 45
-3.5921024485
 46
3.5921024485
 79
0
 98
0
  0
HATCH
  5
130
330
17
100
AcDbEntity
  8
S-HATCH
 62
7
100
AcDbHatch
 10
0.0
 20
0.0
 30
0.0
210
0.0
220
0.0
230
1.0
  2
ANSI31
 70
0
 71
0
 91
1
 92
3
 72
0
 73
1
 93
3
 10
280.0
 20
406.6666666666667
 10
313.3333333333333
 20
406.6666666666667
 10
280.0
 20
373.3333333333333
 97
0
 75
1
 76
1
 52
0.0
 41
1.6
 77
0
 78
1
 53
45.0
 43
0.0
 44
0.0
 45
-3.5921024485
 46
3.5921024485
 79
0
 98
0
  0
LINE
  5
131
330
17
100
AcDbEntity
  8
S-REBAR-MAIN
100
AcDbLine
 10
245.53333333333333
 20
302.6666666666667
 30
0.0
 11
245.53333333333333
 21
460.0
 31
0.0
  0
LINE
  5
132
330
17
100
AcDbEntity
  8
S-REBAR-MAIN
100
AcDbLine
 10
274.4666666666667
 20
302.6666666666667
 30
0.0
 11
274.4666666666667
 21
460.0
 31
0.0
  0
LWPOLYLINE
  5
133
330
17
100
AcDbEntity
  8
S-REBAR-MAIN
100
AcDbPolyline
 90
2
 70
0
 10
383.33333333333337
 20
460.8666666666667
 10
245.86666666666667
 20
460.8666666666667
  0
LWPOLYLINE
  5
134
330
17
100
AcDbEntity
  8
S-REBAR-MAIN
100
AcDbPolyline
 90
2
 70
0
 10
383.33333333333337
 20
412.5333333333333
 10
266.6666666666667
 20
412.5333333333333
  0
LINE
  5
135
330
17
100
AcDbEntity
  8
S-REBAR-SEC
100
AcDbLine
 10
280.0
 20
410.6666666666667
 30
0.0
 11
284.0
 21
410.6666666666667
 31
0.0
  0
LINE
  5
136
330
17
100
AcDbEntity
  8
S-REBAR-SEC
100
AcDbLine
 10
290.0
 20
410.6666666666667
 30
0.0
 11
284.0
 21
400.6666666666667
 31
0.0
  0
LINE
  5
137
330
17
100
AcDbEntity
  8
S-REBAR-SEC
100
AcDbLine
 10
300.0
 20
410.6666666666667
 30
0.0
 11
284.0
 21
390.6666666666667
 31
0.0
  0
LINE
  5
138
330
17
100
AcDbEntity
  8
S-REBAR-SEC
100
AcDbLine
 10
310.0
 20
410.6666666666667
 30
0.0
 11
284.0
 21
380.6666666666667
 31
0.0
  0
DIMENSION
  5
139
330
17
100
AcDbEntity
  8
S-DIM
100
AcDbDimension
280
0
  2
*D2
  3
SC-DIM
 10
245.86666666666667
 20
493.33333333333337
 30
0.0
 11
279.2
 21
495.03333333333336
 31
0.0
 70
32
 71
5
  1
<>
100
AcDbAlignedDimension
 13
245.86666666666667
 23
460.8666666666667
 33
0.0
 14
312.5333333333333
 24
460.8666666666667
 34
0.0
 50
0.0
100
AcDbRotatedDimension
1001
ACAD
1000
DSTYLE
1002
{
1070
144
1040
15.0
1002
}
  0
TEXT
  5
148
330
17
100
AcDbEntity
  8
S-TEXT
100
AcDbText
 10
320.0
 20
490.66666666666663
 30
0.0
 40
1.4
  1
Ld 1000
  7
OpenSans
 11
320.0
 21
490.66666666666663
 31
0.0
100
AcDbText
  0
TEXT
  5
149
330
17
100
AcDbEntity
  8
S-TITLE
100
AcDbText
 10
215.0
 20
552.0
 30
0.0
 40
3.5
  1
D2   WALL / ROOF - 500 HAUNCH AND TOP-STEEL ANCHORAGE
  7
OpenSans
 11
215.0
 21
552.0
 31
0.0
100
AcDbText
  0
LINE
  5
14A
330
17
100
AcDbEntity
  8
S-TITLE
100
AcDbLine
 10
215.0
 20
550.2
 30
0.0
 11
366.6768251841929
 21
550.2
 31
0.0
  0
TEXT
  5
14B
330
17
100
AcDbEntity
  8
S-TEXT
100
AcDbText
 10
215.0
 20
544.8
 30
0.0
 40
2.0
  1
SCALE 1:15
  7
OpenSans
 11
215.0
 21
544.8
 31
0.0
100
AcDbText
  0
INSERT
  5
14C
330
17
100
AcDbEntity
  8
S-CALLOUT
100
AcDbBlockReference
  2
BARMARK
 10
300.0
 20
468.0
 30
0.0
  0
TEXT
  5
14E
330
17
100
AcDbEntity
  8
S-CALLOUT
100
AcDbText
 10
300.0
 20
468.0
 30
0.0
 40
2.0
  1
S03A
  7
OpenSans
 72
1
 11
300.0
 21
468.0
 31
0.0
100
AcDbText
 73
2
  0
LEADER
  5
14F
330
17
100
AcDbEntity
  8
S-CALLOUT
100
AcDbLeader
  3
SC-DIM
 73
3
 76
2
 10
333.3333333333333
 20
460.8666666666667
 30
0.0
 10
300.0
 20
468.0
 30
0.0
  0
INSERT
  5
150
330
17
100
AcDbEntity
  8
S-CALLOUT
100
AcDbBlockReference
  2
BARMARK
 10
232.0
 20
380.0
 30
0.0
  0
TEXT
  5
152
330
17
100
AcDbEntity
  8
S-CALLOUT
100
AcDbText
 10
232.0
 20
380.0
 30
0.0
 40
2.0
  1
W01
  7
OpenSans
 72
1
 11
232.0
 21
380.0
 31
0.0
100
AcDbText
 73
2
  0
LEADER
  5
153
330
17
100
AcDbEntity
  8
S-CALLOUT
100
AcDbLeader
  3
SC-DIM
 73
3
 76
2
 10
245.53333333333333
 20
360.0
 30
0.0
 10
232.0
 20
380.0
 30
0.0
  0
LWPOLYLINE
  5
154
330
17
100
AcDbEntity
  8
S-CONCRETE
100
AcDbPolyline
 90
4
 70
1
 10
390.0
 20
300.0
 10
590.0
 20
300.0
 10
590.0
 20
360.0
 10
390.0
 20
360.0
  0
LWPOLYLINE
  5
155
330
17
100
AcDbEntity
  8
S-CONCRETE
100
AcDbPolyline
 90
4
 70
1
 10
430.0
 20
360.0
 10
456.6666666666667
 20
360.0
 10
456.6666666666667
 20
460.0
 10
430.0
 20
460.0
  0
HATCH
  5
156
330
17
100
AcDbEntity
  8
S-HATCH
 62
7
100
AcDbHatch
 10
0.0
 20
0.0
 30
0.0
210
0.0
220
0.0
230
1.0
  2
ANSI31
 70
0
 71
0
 91
1
 92
3
 72
0
 73
1
 93
4
 10
390.0
 20
300.0
 10
590.0
 20
300.0
 10
590.0
 20
360.0
 10
390.0
 20
360.0
 97
0
 75
1
 76
1
 52
0.0
 41
1.6
 77
0
 78
1
 53
45.0
 43
0.0
 44
0.0
 45
-3.5921024485
 46
3.5921024485
 79
0
 98
0
  0
HATCH
  5
157
330
17
100
AcDbEntity
  8
S-HATCH
 62
7
100
AcDbHatch
 10
0.0
 20
0.0
 30
0.0
210
0.0
220
0.0
230
1.0
  2
ANSI31
 70
0
 71
0
 91
1
 92
3
 72
0
 73
1
 93
4
 10
430.0
 20
360.0
 10
456.6666666666667
 20
360.0
 10
456.6666666666667
 20
460.0
 10
430.0
 20
460.0
 97
0
 75
1
 76
1
 52
0.0
 41
1.6
 77
0
 78
1
 53
45.0
 43
0.0
 44
0.0
 45
-3.5921024485
 46
3.5921024485
 79
0
 98
0
  0
LINE
  5
158
330
17
100
AcDbEntity
  8
S-HIDDEN
100
AcDbLine
 10
430.0
 20
370.0
 30
0.0
 11
432.0
 21
370.0
 31
0.0
  0
LINE
  5
159
330
17
100
AcDbEntity
  8
S-HIDDEN
100
AcDbLine
 10
433.4
 20
370.0
 30
0.0
 11
435.4
 21
370.0
 31
0.0
  0
LINE
  5
15A
330
17
100
AcDbEntity
  8
S-HIDDEN
100
AcDbLine
 10
436.8
 20
370.0
 30
0.0
 11
438.8
 21
370.0
 31
0.0
  0
LINE
  5
15B
330
17
100
AcDbEntity
  8
S-HIDDEN
100
AcDbLine
 10
440.2
 20
370.0
 30
0.0
 11
442.2
 21
370.0
 31
0.0
  0
LINE
  5
15C
330
17
100
AcDbEntity
  8
S-HIDDEN
100
AcDbLine
 10
443.6
 20
370.0
 30
0.0
 11
445.6
 21
370.0
 31
0.0
  0
LINE
  5
15D
330
17
100
AcDbEntity
  8
S-HIDDEN
100
AcDbLine
 10
447.0
 20
370.0
 30
0.0
 11
449.0
 21
370.0
 31
0.0
  0
LINE
  5
15E
330
17
100
AcDbEntity
  8
S-HIDDEN
100
AcDbLine
 10
450.4
 20
370.0
 30
0.0
 11
452.4
 21
370.0
 31
0.0
  0
LINE
  5
15F
330
17
100
AcDbEntity
  8
S-HIDDEN
100
AcDbLine
 10
453.8
 20
370.0
 30
0.0
 11
455.8
 21
370.0
 31
0.0
  0
LWPOLYLINE
  5
160
330
17
100
AcDbEntity
  8
S-REBAR-TIE
100
AcDbPolyline
 90
3
 70
0
 10
393.8666666666667
 20
305.8666666666667
 10
433.8666666666667
 20
305.8666666666667
 10
433.8666666666667
 20
423.3333333333333
  0
LINE
  5
161
330
17
100
AcDbEntity
  8
S-REBAR-MAIN
100
AcDbLine
 10
433.8666666666667
 20
370.0
 30
0.0
 11
433.8666666666667
 21
460.0
 31
0.0
  0
LWPOLYLINE
  5
162
330
17
100
AcDbEntity
  8
S-REBAR-TIE
100
AcDbPolyline
 90
3
 70
0
 10
492.8
 20
305.8666666666667
 10
452.8
 20
305.8666666666667
 10
452.8
 20
423.3333333333333
  0
LINE
  5
163
330
17
100
AcDbEntity
  8
S-REBAR-MAIN
100
AcDbLine
 10
452.8
 20
370.0
 30
0.0
 11
452.8
 21
460.0
 31
0.0
  0
CIRCLE
  5
164
330
17
100
AcDbEntity
  8
S-REBAR-MAIN
100
AcDbCircle
 10
396.6666666666667
 20
305.8666666666667
 30
0.0
 40
0.6
  0
HATCH
  5
165
330
17
100
AcDbEntity
  8
S-REBAR-MAIN
 62
1
100
AcDbHatch
 10
0.0
 20
0.0
 30
0.0
210
0.0
220
0.0
230
1.0
  2
SOLID
 70
1
 71
0
 91
1
 92
3
 72
0
 73
1
 93
16
 10
397.2666666666667
 20
305.8666666666667
 10
397.22099438617346
 20
306.0962767260857
 10
397.0909307353786
 20
306.2909307353786
 10
396.8962767260857
 20
306.42099438617345
 10
396.6666666666667
 20
306.4666666666667
 10
396.43705660724765
 20
306.42099438617345
 10
396.24240259795477
 20
306.2909307353786
 10
396.1123389471599
 20
306.0962767260857
 10
396.06666666666666
 20
305.8666666666667
 10
396.1123389471599
 20
305.63705660724764
 10
396.24240259795477
 20
305.44240259795475
 10
396.43705660724765
 20
305.3123389471599
 10
396.6666666666667
 20
305.26666666666665
 10
396.8962767260857
 20
305.3123389471599
 10
397.0909307353786
 20
305.44240259795475
 10
397.22099438617346
 20
305.63705660724764
 97
0
 75
0
 76
1
 98
0
  0
CIRCLE
  5
166
330
17
100
AcDbEntity
  8
S-REBAR-MAIN
100
AcDbCircle
 10
406.6666666666667
 20
305.8666666666667
 30
0.0
 40
0.6
  0
HATCH
  5
167
330
17
100
AcDbEntity
  8
S-REBAR-MAIN
 62
1
100
AcDbHatch
 10
0.0
 20
0.0
 30
0.0
210
0.0
220
0.0
230
1.0
  2
SOLID
 70
1
 71
0
 91
1
 92
3
 72
0
 73
1
 93
16
 10
407.2666666666667
 20
305.8666666666667
 10
407.22099438617346
 20
306.0962767260857
 10
407.0909307353786
 20
306.2909307353786
 10
406.8962767260857
 20
306.42099438617345
 10
406.6666666666667
 20
306.4666666666667
 10
406.43705660724765
 20
306.42099438617345
 10
406.24240259795477
 20
306.2909307353786
 10
406.1123389471599
 20
306.0962767260857
 10
406.06666666666666
 20
305.8666666666667
 10
406.1123389471599
 20
305.63705660724764
 10
406.24240259795477
 20
305.44240259795475
 10
406.43705660724765
 20
305.3123389471599
 10
406.6666666666667
 20
305.26666666666665
 10
406.8962767260857
 20
305.3123389471599
 10
407.0909307353786
 20
305.44240259795475
 10
407.22099438617346
 20
305.63705660724764
 97
0
 75
0
 76
1
 98
0
  0
CIRCLE
  5
168
330
17
100
AcDbEntity
  8
S-REBAR-MAIN
100
AcDbCircle
 10
416.6666666666667
 20
305.8666666666667
 30
0.0
 40
0.6
  0
HATCH
  5
169
330
17
100
AcDbEntity
  8
S-REBAR-MAIN
 62
1
100
AcDbHatch
 10
0.0
 20
0.0
 30
0.0
210
0.0
220
0.0
230
1.0
  2
SOLID
 70
1
 71
0
 91
1
 92
3
 72
0
 73
1
 93
16
 10
417.2666666666667
 20
305.8666666666667
 10
417.22099438617346
 20
306.0962767260857
 10
417.0909307353786
 20
306.2909307353786
 10
416.8962767260857
 20
306.42099438617345
 10
416.6666666666667
 20
306.4666666666667
 10
416.43705660724765
 20
306.42099438617345
 10
416.24240259795477
 20
306.2909307353786
 10
416.1123389471599
 20
306.0962767260857
 10
416.06666666666666
 20
305.8666666666667
 10
416.1123389471599
 20
305.63705660724764
 10
416.24240259795477
 20
305.44240259795475
 10
416.43705660724765
 20
305.3123389471599
 10
416.6666666666667
 20
305.26666666666665
 10
416.8962767260857
 20
305.3123389471599
 10
417.0909307353786
 20
305.44240259795475
 10
417.22099438617346
 20
305.63705660724764
 97
0
 75
0
 76
1
 98
0
  0
CIRCLE
  5
16A
330
17
100
AcDbEntity
  8
S-REBAR-MAIN
100
AcDbCircle
 10
426.6666666666667
 20
305.8666666666667
 30
0.0
 40
0.6
  0
HATCH
  5
16B
330
17
100
AcDbEntity
  8
S-REBAR-MAIN
 62
1
100
AcDbHatch
 10
0.0
 20
0.0
 30
0.0
210
0.0
220
0.0
230
1.0
  2
SOLID
 70
1
 71
0
 91
1
 92
3
 72
0
 73
1
 93
16
 10
427.2666666666667
 20
305.8666666666667
 10
427.22099438617346
 20
306.0962767260857
 10
427.0909307353786
 20
306.2909307353786
 10
426.8962767260857
 20
306.42099438617345
 10
426.6666666666667
 20
306.4666666666667
 10
426.43705660724765
 20
306.42099438617345
 10
426.24240259795477
 20
306.2909307353786
 10
426.1123389471599
 20
306.0962767260857
 10
426.06666666666666
 20
305.8666666666667
 10
426.1123389471599
 20
305.63705660724764
 10
426.24240259795477
 20
305.44240259795475
 10
426.43705660724765
 20
305.3123389471599
 10
426.6666666666667
 20
305.26666666666665
 10
426.8962767260857
 20
305.3123389471599
 10
427.0909307353786
 20
305.44240259795475
 10
427.22099438617346
 20
305.63705660724764
 97
0
 75
0
 76
1
 98
0
  0
CIRCLE
  5
16C
330
17
100
AcDbEntity
  8
S-REBAR-MAIN
100
AcDbCircle
 10
436.6666666666667
 20
305.8666666666667
 30
0.0
 40
0.6
  0
HATCH
  5
16D
330
17
100
AcDbEntity
  8
S-REBAR-MAIN
 62
1
100
AcDbHatch
 10
0.0
 20
0.0
 30
0.0
210
0.0
220
0.0
230
1.0
  2
SOLID
 70
1
 71
0
 91
1
 92
3
 72
0
 73
1
 93
16
 10
437.2666666666667
 20
305.8666666666667
 10
437.22099438617346
 20
306.0962767260857
 10
437.0909307353786
 20
306.2909307353786
 10
436.8962767260857
 20
306.42099438617345
 10
436.6666666666667
 20
306.4666666666667
 10
436.43705660724765
 20
306.42099438617345
 10
436.24240259795477
 20
306.2909307353786
 10
436.1123389471599
 20
306.0962767260857
 10
436.06666666666666
 20
305.8666666666667
 10
436.1123389471599
 20
305.63705660724764
 10
436.24240259795477
 20
305.44240259795475
 10
436.43705660724765
 20
305.3123389471599
 10
436.6666666666667
 20
305.26666666666665
 10
436.8962767260857
 20
305.3123389471599
 10
437.0909307353786
 20
305.44240259795475
 10
437.22099438617346
 20
305.63705660724764
 97
0
 75
0
 76
1
 98
0
  0
CIRCLE
  5
16E
330
17
100
AcDbEntity
  8
S-REBAR-MAIN
100
AcDbCircle
 10
446.6666666666667
 20
305.8666666666667
 30
0.0
 40
0.6
  0
HATCH
  5
16F
330
17
100
AcDbEntity
  8
S-REBAR-MAIN
 62
1
100
AcDbHatch
 10
0.0
 20
0.0
 30
0.0
210
0.0
220
0.0
230
1.0
  2
SOLID
 70
1
 71
0
 91
1
 92
3
 72
0
 73
1
 93
16
 10
447.2666666666667
 20
305.8666666666667
 10
447.22099438617346
 20
306.0962767260857
 10
447.0909307353786
 20
306.2909307353786
 10
446.8962767260857
 20
306.42099438617345
 10
446.6666666666667
 20
306.4666666666667
 10
446.43705660724765
 20
306.42099438617345
 10
446.24240259795477
 20
306.2909307353786
 10
446.1123389471599
 20
306.0962767260857
 10
446.06666666666666
 20
305.8666666666667
 10
446.1123389471599
 20
305.63705660724764
 10
446.24240259795477
 20
305.44240259795475
 10
446.43705660724765
 20
305.3123389471599
 10
446.6666666666667
 20
305.26666666666665
 10
446.8962767260857
 20
305.3123389471599
 10
447.0909307353786
 20
305.44240259795475
 10
447.22099438617346
 20
305.63705660724764
 97
0
 75
0
 76
1
 98
0
  0
CIRCLE
  5
170
330
17
100
AcDbEntity
  8
S-REBAR-MAIN
100
AcDbCircle
 10
456.6666666666667
 20
305.8666666666667
 30
0.0
 40
0.6
  0
HATCH
  5
171
330
17
100
AcDbEntity
  8
S-REBAR-MAIN
 62
1
100
AcDbHatch
 10
0.0
 20
0.0
 30
0.0
210
0.0
220
0.0
230
1.0
  2
SOLID
 70
1
 71
0
 91
1
 92
3
 72
0
 73
1
 93
16
 10
457.2666666666667
 20
305.8666666666667
 10
457.22099438617346
 20
306.0962767260857
 10
457.0909307353786
 20
306.2909307353786
 10
456.8962767260857
 20
306.42099438617345
 10
456.6666666666667
 20
306.4666666666667
 10
456.43705660724765
 20
306.42099438617345
 10
456.24240259795477
 20
306.2909307353786
 10
456.1123389471599
 20
306.0962767260857
 10
456.06666666666666
 20
305.8666666666667
 10
456.1123389471599
 20
305.63705660724764
 10
456.24240259795477
 20
305.44240259795475
 10
456.43705660724765
 20
305.3123389471599
 10
456.6666666666667
 20
305.26666666666665
 10
456.8962767260857
 20
305.3123389471599
 10
457.0909307353786
 20
305.44240259795475
 10
457.22099438617346
 20
305.63705660724764
 97
0
 75
0
 76
1
 98
0
  0
CIRCLE
  5
172
330
17
100
AcDbEntity
  8
S-REBAR-MAIN
100
AcDbCircle
 10
466.6666666666667
 20
305.8666666666667
 30
0.0
 40
0.6
  0
HATCH
  5
173
330
17
100
AcDbEntity
  8
S-REBAR-MAIN
 62
1
100
AcDbHatch
 10
0.0
 20
0.0
 30
0.0
210
0.0
220
0.0
230
1.0
  2
SOLID
 70
1
 71
0
 91
1
 92
3
 72
0
 73
1
 93
16
 10
467.2666666666667
 20
305.8666666666667
 10
467.22099438617346
 20
306.0962767260857
 10
467.0909307353786
 20
306.2909307353786
 10
466.8962767260857
 20
306.42099438617345
 10
466.6666666666667
 20
306.4666666666667
 10
466.43705660724765
 20
306.42099438617345
 10
466.24240259795477
 20
306.2909307353786
 10
466.1123389471599
 20
306.0962767260857
 10
466.06666666666666
 20
305.8666666666667
 10
466.1123389471599
 20
305.63705660724764
 10
466.24240259795477
 20
305.44240259795475
 10
466.43705660724765
 20
305.3123389471599
 10
466.6666666666667
 20
305.26666666666665
 10
466.8962767260857
 20
305.3123389471599
 10
467.0909307353786
 20
305.44240259795475
 10
467.22099438617346
 20
305.63705660724764
 97
0
 75
0
 76
1
 98
0
  0
CIRCLE
  5
174
330
17
100
AcDbEntity
  8
S-REBAR-MAIN
100
AcDbCircle
 10
476.6666666666667
 20
305.8666666666667
 30
0.0
 40
0.6
  0
HATCH
  5
175
330
17
100
AcDbEntity
  8
S-REBAR-MAIN
 62
1
100
AcDbHatch
 10
0.0
 20
0.0
 30
0.0
210
0.0
220
0.0
230
1.0
  2
SOLID
 70
1
 71
0
 91
1
 92
3
 72
0
 73
1
 93
16
 10
477.2666666666667
 20
305.8666666666667
 10
477.22099438617346
 20
306.0962767260857
 10
477.0909307353786
 20
306.2909307353786
 10
476.8962767260857
 20
306.42099438617345
 10
476.6666666666667
 20
306.4666666666667
 10
476.43705660724765
 20
306.42099438617345
 10
476.24240259795477
 20
306.2909307353786
 10
476.1123389471599
 20
306.0962767260857
 10
476.06666666666666
 20
305.8666666666667
 10
476.1123389471599
 20
305.63705660724764
 10
476.24240259795477
 20
305.44240259795475
 10
476.43705660724765
 20
305.3123389471599
 10
476.6666666666667
 20
305.26666666666665
 10
476.8962767260857
 20
305.3123389471599
 10
477.0909307353786
 20
305.44240259795475
 10
477.22099438617346
 20
305.63705660724764
 97
0
 75
0
 76
1
 98
0
  0
CIRCLE
  5
176
330
17
100
AcDbEntity
  8
S-REBAR-MAIN
100
AcDbCircle
 10
486.6666666666667
 20
305.8666666666667
 30
0.0
 40
0.6
  0
HATCH
  5
177
330
17
100
AcDbEntity
  8
S-REBAR-MAIN
 62
1
100
AcDbHatch
 10
0.0
 20
0.0
 30
0.0
210
0.0
220
0.0
230
1.0
  2
SOLID
 70
1
 71
0
 91
1
 92
3
 72
0
 73
1
 93
16
 10
487.2666666666667
 20
305.8666666666667
 10
487.22099438617346
 20
306.0962767260857
 10
487.0909307353786
 20
306.2909307353786
 10
486.8962767260857
 20
306.42099438617345
 10
486.6666666666667
 20
306.4666666666667
 10
486.43705660724765
 20
306.42099438617345
 10
486.24240259795477
 20
306.2909307353786
 10
486.1123389471599
 20
306.0962767260857
 10
486.06666666666666
 20
305.8666666666667
 10
486.1123389471599
 20
305.63705660724764
 10
486.24240259795477
 20
305.44240259795475
 10
486.43705660724765
 20
305.3123389471599
 10
486.6666666666667
 20
305.26666666666665
 10
486.8962767260857
 20
305.3123389471599
 10
487.0909307353786
 20
305.44240259795475
 10
487.22099438617346
 20
305.63705660724764
 97
0
 75
0
 76
1
 98
0
  0
CIRCLE
  5
178
330
17
100
AcDbEntity
  8
S-REBAR-MAIN
100
AcDbCircle
 10
496.6666666666667
 20
305.8666666666667
 30
0.0
 40
0.6
  0
HATCH
  5
179
330
17
100
AcDbEntity
  8
S-REBAR-MAIN
 62
1
100
AcDbHatch
 10
0.0
 20
0.0
 30
0.0
210
0.0
220
0.0
230
1.0
  2
SOLID
 70
1
 71
0
 91
1
 92
3
 72
0
 73
1
 93
16
 10
497.2666666666667
 20
305.8666666666667
 10
497.22099438617346
 20
306.0962767260857
 10
497.0909307353786
 20
306.2909307353786
 10
496.8962767260857
 20
306.42099438617345
 10
496.6666666666667
 20
306.4666666666667
 10
496.43705660724765
 20
306.42099438617345
 10
496.24240259795477
 20
306.2909307353786
 10
496.1123389471599
 20
306.0962767260857
 10
496.06666666666666
 20
305.8666666666667
 10
496.1123389471599
 20
305.63705660724764
 10
496.24240259795477
 20
305.44240259795475
 10
496.43705660724765
 20
305.3123389471599
 10
496.6666666666667
 20
305.26666666666665
 10
496.8962767260857
 20
305.3123389471599
 10
497.0909307353786
 20
305.44240259795475
 10
497.22099438617346
 20
305.63705660724764
 97
0
 75
0
 76
1
 98
0
  0
CIRCLE
  5
17A
330
17
100
AcDbEntity
  8
S-REBAR-MAIN
100
AcDbCircle
 10
506.6666666666667
 20
305.8666666666667
 30
0.0
 40
0.6
  0
HATCH
  5
17B
330
17
100
AcDbEntity
  8
S-REBAR-MAIN
 62
1
100
AcDbHatch
 10
0.0
 20
0.0
 30
0.0
210
0.0
220
0.0
230
1.0
  2
SOLID
 70
1
 71
0
 91
1
 92
3
 72
0
 73
1
 93
16
 10
507.2666666666667
 20
305.8666666666667
 10
507.22099438617346
 20
306.0962767260857
 10
507.0909307353786
 20
306.2909307353786
 10
506.8962767260857
 20
306.42099438617345
 10
506.6666666666667
 20
306.4666666666667
 10
506.43705660724765
 20
306.42099438617345
 10
506.24240259795477
 20
306.2909307353786
 10
506.1123389471599
 20
306.0962767260857
 10
506.06666666666666
 20
305.8666666666667
 10
506.1123389471599
 20
305.63705660724764
 10
506.24240259795477
 20
305.44240259795475
 10
506.43705660724765
 20
305.3123389471599
 10
506.6666666666667
 20
305.26666666666665
 10
506.8962767260857
 20
305.3123389471599
 10
507.0909307353786
 20
305.44240259795475
 10
507.22099438617346
 20
305.63705660724764
 97
0
 75
0
 76
1
 98
0
  0
CIRCLE
  5
17C
330
17
100
AcDbEntity
  8
S-REBAR-MAIN
100
AcDbCircle
 10
516.6666666666667
 20
305.8666666666667
 30
0.0
 40
0.6
  0
HATCH
  5
17D
330
17
100
AcDbEntity
  8
S-REBAR-MAIN
 62
1
100
AcDbHatch
 10
0.0
 20
0.0
 30
0.0
210
0.0
220
0.0
230
1.0
  2
SOLID
 70
1
 71
0
 91
1
 92
3
 72
0
 73
1
 93
16
 10
517.2666666666668
 20
305.8666666666667
 10
517.2209943861735
 20
306.0962767260857
 10
517.0909307353787
 20
306.2909307353786
 10
516.8962767260858
 20
306.42099438617345
 10
516.6666666666667
 20
306.4666666666667
 10
516.4370566072477
 20
306.42099438617345
 10
516.2424025979548
 20
306.2909307353786
 10
516.11233894716
 20
306.0962767260857
 10
516.0666666666667
 20
305.8666666666667
 10
516.11233894716
 20
305.63705660724764
 10
516.2424025979548
 20
305.44240259795475
 10
516.4370566072477
 20
305.3123389471599
 10
516.6666666666667
 20
305.26666666666665
 10
516.8962767260858
 20
305.3123389471599
 10
517.0909307353787
 20
305.44240259795475
 10
517.2209943861735
 20
305.63705660724764
 97
0
 75
0
 76
1
 98
0
  0
CIRCLE
  5
17E
330
17
100
AcDbEntity
  8
S-REBAR-MAIN
100
AcDbCircle
 10
526.6666666666667
 20
305.8666666666667
 30
0.0
 40
0.6
  0
HATCH
  5
17F
330
17
100
AcDbEntity
  8
S-REBAR-MAIN
 62
1
100
AcDbHatch
 10
0.0
 20
0.0
 30
0.0
210
0.0
220
0.0
230
1.0
  2
SOLID
 70
1
 71
0
 91
1
 92
3
 72
0
 73
1
 93
16
 10
527.2666666666668
 20
305.8666666666667
 10
527.2209943861735
 20
306.0962767260857
 10
527.0909307353787
 20
306.2909307353786
 10
526.8962767260858
 20
306.42099438617345
 10
526.6666666666667
 20
306.4666666666667
 10
526.4370566072477
 20
306.42099438617345
 10
526.2424025979548
 20
306.2909307353786
 10
526.11233894716
 20
306.0962767260857
 10
526.0666666666667
 20
305.8666666666667
 10
526.11233894716
 20
305.63705660724764
 10
526.2424025979548
 20
305.44240259795475
 10
526.4370566072477
 20
305.3123389471599
 10
526.6666666666667
 20
305.26666666666665
 10
526.8962767260858
 20
305.3123389471599
 10
527.0909307353787
 20
305.44240259795475
 10
527.2209943861735
 20
305.63705660724764
 97
0
 75
0
 76
1
 98
0
  0
CIRCLE
  5
180
330
17
100
AcDbEntity
  8
S-REBAR-MAIN
100
AcDbCircle
 10
536.6666666666667
 20
305.8666666666667
 30
0.0
 40
0.6
  0
HATCH
  5
181
330
17
100
AcDbEntity
  8
S-REBAR-MAIN
 62
1
100
AcDbHatch
 10
0.0
 20
0.0
 30
0.0
210
0.0
220
0.0
230
1.0
  2
SOLID
 70
1
 71
0
 91
1
 92
3
 72
0
 73
1
 93
16
 10
537.2666666666668
 20
305.8666666666667
 10
537.2209943861735
 20
306.0962767260857
 10
537.0909307353787
 20
306.2909307353786
 10
536.8962767260858
 20
306.42099438617345
 10
536.6666666666667
 20
306.4666666666667
 10
536.4370566072477
 20
306.42099438617345
 10
536.2424025979548
 20
306.2909307353786
 10
536.11233894716
 20
306.0962767260857
 10
536.0666666666667
 20
305.8666666666667
 10
536.11233894716
 20
305.63705660724764
 10
536.2424025979548
 20
305.44240259795475
 10
536.4370566072477
 20
305.3123389471599
 10
536.6666666666667
 20
305.26666666666665
 10
536.8962767260858
 20
305.3123389471599
 10
537.0909307353787
 20
305.44240259795475
 10
537.2209943861735
 20
305.63705660724764
 97
0
 75
0
 76
1
 98
0
  0
CIRCLE
  5
182
330
17
100
AcDbEntity
  8
S-REBAR-MAIN
100
AcDbCircle
 10
546.6666666666667
 20
305.8666666666667
 30
0.0
 40
0.6
  0
HATCH
  5
183
330
17
100
AcDbEntity
  8
S-REBAR-MAIN
 62
1
100
AcDbHatch
 10
0.0
 20
0.0
 30
0.0
210
0.0
220
0.0
230
1.0
  2
SOLID
 70
1
 71
0
 91
1
 92
3
 72
0
 73
1
 93
16
 10
547.2666666666668
 20
305.8666666666667
 10
547.2209943861735
 20
306.0962767260857
 10
547.0909307353787
 20
306.2909307353786
 10
546.8962767260858
 20
306.42099438617345
 10
546.6666666666667
 20
306.4666666666667
 10
546.4370566072477
 20
306.42099438617345
 10
546.2424025979548
 20
306.2909307353786
 10
546.11233894716
 20
306.0962767260857
 10
546.0666666666667
 20
305.8666666666667
 10
546.11233894716
 20
305.63705660724764
 10
546.2424025979548
 20
305.44240259795475
 10
546.4370566072477
 20
305.3123389471599
 10
546.6666666666667
 20
305.26666666666665
 10
546.8962767260858
 20
305.3123389471599
 10
547.0909307353787
 20
305.44240259795475
 10
547.2209943861735
 20
305.63705660724764
 97
0
 75
0
 76
1
 98
0
  0
CIRCLE
  5
184
330
17
100
AcDbEntity
  8
S-REBAR-MAIN
100
AcDbCircle
 10
556.6666666666667
 20
305.8666666666667
 30
0.0
 40
0.6
  0
HATCH
  5
185
330
17
100
AcDbEntity
  8
S-REBAR-MAIN
 62
1
100
AcDbHatch
 10
0.0
 20
0.0
 30
0.0
210
0.0
220
0.0
230
1.0
  2
SOLID
 70
1
 71
0
 91
1
 92
3
 72
0
 73
1
 93
16
 10
557.2666666666668
 20
305.8666666666667
 10
557.2209943861735
 20
306.0962767260857
 10
557.0909307353787
 20
306.2909307353786
 10
556.8962767260858
 20
306.42099438617345
 10
556.6666666666667
 20
306.4666666666667
 10
556.4370566072477
 20
306.42099438617345
 10
556.2424025979548
 20
306.2909307353786
 10
556.11233894716
 20
306.0962767260857
 10
556.0666666666667
 20
305.8666666666667
 10
556.11233894716
 20
305.63705660724764
 10
556.2424025979548
 20
305.44240259795475
 10
556.4370566072477
 20
305.3123389471599
 10
556.6666666666667
 20
305.26666666666665
 10
556.8962767260858
 20
305.3123389471599
 10
557.0909307353787
 20
305.44240259795475
 10
557.2209943861735
 20
305.63705660724764
 97
0
 75
0
 76
1
 98
0
  0
CIRCLE
  5
186
330
17
100
AcDbEntity
  8
S-REBAR-MAIN
100
AcDbCircle
 10
566.6666666666667
 20
305.8666666666667
 30
0.0
 40
0.6
  0
HATCH
  5
187
330
17
100
AcDbEntity
  8
S-REBAR-MAIN
 62
1
100
AcDbHatch
 10
0.0
 20
0.0
 30
0.0
210
0.0
220
0.0
230
1.0
  2
SOLID
 70
1
 71
0
 91
1
 92
3
 72
0
 73
1
 93
16
 10
567.2666666666668
 20
305.8666666666667
 10
567.2209943861735
 20
306.0962767260857
 10
567.0909307353787
 20
306.2909307353786
 10
566.8962767260858
 20
306.42099438617345
 10
566.6666666666667
 20
306.4666666666667
 10
566.4370566072477
 20
306.42099438617345
 10
566.2424025979548
 20
306.2909307353786
 10
566.11233894716
 20
306.0962767260857
 10
566.0666666666667
 20
305.8666666666667
 10
566.11233894716
 20
305.63705660724764
 10
566.2424025979548
 20
305.44240259795475
 10
566.4370566072477
 20
305.3123389471599
 10
566.6666666666667
 20
305.26666666666665
 10
566.8962767260858
 20
305.3123389471599
 10
567.0909307353787
 20
305.44240259795475
 10
567.2209943861735
 20
305.63705660724764
 97
0
 75
0
 76
1
 98
0
  0
CIRCLE
  5
188
330
17
100
AcDbEntity
  8
S-REBAR-MAIN
100
AcDbCircle
 10
576.6666666666667
 20
305.8666666666667
 30
0.0
 40
0.6
  0
HATCH
  5
189
330
17
100
AcDbEntity
  8
S-REBAR-MAIN
 62
1
100
AcDbHatch
 10
0.0
 20
0.0
 30
0.0
210
0.0
220
0.0
230
1.0
  2
SOLID
 70
1
 71
0
 91
1
 92
3
 72
0
 73
1
 93
16
 10
577.2666666666668
 20
305.8666666666667
 10
577.2209943861735
 20
306.0962767260857
 10
577.0909307353787
 20
306.2909307353786
 10
576.8962767260858
 20
306.42099438617345
 10
576.6666666666667
 20
306.4666666666667
 10
576.4370566072477
 20
306.42099438617345
 10
576.2424025979548
 20
306.2909307353786
 10
576.11233894716
 20
306.0962767260857
 10
576.0666666666667
 20
305.8666666666667
 10
576.11233894716
 20
305.63705660724764
 10
576.2424025979548
 20
305.44240259795475
 10
576.4370566072477
 20
305.3123389471599
 10
576.6666666666667
 20
305.26666666666665
 10
576.8962767260858
 20
305.3123389471599
 10
577.0909307353787
 20
305.44240259795475
 10
577.2209943861735
 20
305.63705660724764
 97
0
 75
0
 76
1
 98
0
  0
CIRCLE
  5
18A
330
17
100
AcDbEntity
  8
S-REBAR-MAIN
100
AcDbCircle
 10
396.6666666666667
 20
354.2
 30
0.0
 40
0.6
  0
HATCH
  5
18B
330
17
100
AcDbEntity
  8
S-REBAR-MAIN
 62
1
100
AcDbHatch
 10
0.0
 20
0.0
 30
0.0
210
0.0
220
0.0
230
1.0
  2
SOLID
 70
1
 71
0
 91
1
 92
3
 72
0
 73
1
 93
16
 10
397.2666666666667
 20
354.2
 10
397.22099438617346
 20
354.429610059419
 10
397.0909307353786
 20
354.6242640687119
 10
396.8962767260857
 20
354.75432771950676
 10
396.6666666666667
 20
354.8
 10
396.43705660724765
 20
354.75432771950676
 10
396.24240259795477
 20
354.6242640687119
 10
396.1123389471599
 20
354.429610059419
 10
396.06666666666666
 20
354.2
 10
396.1123389471599
 20
353.97038994058096
 10
396.24240259795477
 20
353.77573593128807
 10
396.43705660724765
 20
353.6456722804932
 10
396.6666666666667
 20
353.59999999999997
 10
396.8962767260857
 20
353.6456722804932
 10
397.0909307353786
 20
353.77573593128807
 10
397.22099438617346
 20
353.97038994058096
 97
0
 75
0
 76
1
 98
0
  0
CIRCLE
  5
18C
330
17
100
AcDbEntity
  8
S-REBAR-MAIN
100
AcDbCircle
 10
406.6666666666667
 20
354.2
 30
0.0
 40
0.6
  0
HATCH
  5
18D
330
17
100
AcDbEntity
  8
S-REBAR-MAIN
 62
1
100
AcDbHatch
 10
0.0
 20
0.0
 30
0.0
210
0.0
220
0.0
230
1.0
  2
SOLID
 70
1
 71
0
 91
1
 92
3
 72
0
 73
1
 93
16
 10
407.2666666666667
 20
354.2
 10
407.22099438617346
 20
354.429610059419
 10
407.0909307353786
 20
354.6242640687119
 10
406.8962767260857
 20
354.75432771950676
 10
406.6666666666667
 20
354.8
 10
406.43705660724765
 20
354.75432771950676
 10
406.24240259795477
 20
354.6242640687119
 10
406.1123389471599
 20
354.429610059419
 10
406.06666666666666
 20
354.2
 10
406.1123389471599
 20
353.97038994058096
 10
406.24240259795477
 20
353.77573593128807
 10
406.43705660724765
 20
353.6456722804932
 10
406.6666666666667
 20
353.59999999999997
 10
406.8962767260857
 20
353.6456722804932
 10
407.0909307353786
 20
353.77573593128807
 10
407.22099438617346
 20
353.97038994058096
 97
0
 75
0
 76
1
 98
0
  0
CIRCLE
  5
18E
330
17
100
AcDbEntity
  8
S-REBAR-MAIN
100
AcDbCircle
 10
416.6666666666667
 20
354.2
 30
0.0
 40
0.6
  0
HATCH
  5
18F
330
17
100
AcDbEntity
  8
S-REBAR-MAIN
 62
1
100
AcDbHatch
 10
0.0
 20
0.0
 30
0.0
210
0.0
220
0.0
230
1.0
  2
SOLID
 70
1
 71
0
 91
1
 92
3
 72
0
 73
1
 93
16
 10
417.2666666666667
 20
354.2
 10
417.22099438617346
 20
354.429610059419
 10
417.0909307353786
 20
354.6242640687119
 10
416.8962767260857
 20
354.75432771950676
 10
416.6666666666667
 20
354.8
 10
416.43705660724765
 20
354.75432771950676
 10
416.24240259795477
 20
354.6242640687119
 10
416.1123389471599
 20
354.429610059419
 10
416.06666666666666
 20
354.2
 10
416.1123389471599
 20
353.97038994058096
 10
416.24240259795477
 20
353.77573593128807
 10
416.43705660724765
 20
353.6456722804932
 10
416.6666666666667
 20
353.59999999999997
 10
416.8962767260857
 20
353.6456722804932
 10
417.0909307353786
 20
353.77573593128807
 10
417.22099438617346
 20
353.97038994058096
 97
0
 75
0
 76
1
 98
0
  0
CIRCLE
  5
190
330
17
100
AcDbEntity
  8
S-REBAR-MAIN
100
AcDbCircle
 10
426.6666666666667
 20
354.2
 30
0.0
 40
0.6
  0
HATCH
  5
191
330
17
100
AcDbEntity
  8
S-REBAR-MAIN
 62
1
100
AcDbHatch
 10
0.0
 20
0.0
 30
0.0
210
0.0
220
0.0
230
1.0
  2
SOLID
 70
1
 71
0
 91
1
 92
3
 72
0
 73
1
 93
16
 10
427.2666666666667
 20
354.2
 10
427.22099438617346
 20
354.429610059419
 10
427.0909307353786
 20
354.6242640687119
 10
426.8962767260857
 20
354.75432771950676
 10
426.6666666666667
 20
354.8
 10
426.43705660724765
 20
354.75432771950676
 10
426.24240259795477
 20
354.6242640687119
 10
426.1123389471599
 20
354.429610059419
 10
426.06666666666666
 20
354.2
 10
426.1123389471599
 20
353.97038994058096
 10
426.24240259795477
 20
353.77573593128807
 10
426.43705660724765
 20
353.6456722804932
 10
426.6666666666667
 20
353.59999999999997
 10
426.8962767260857
 20
353.6456722804932
 10
427.0909307353786
 20
353.77573593128807
 10
427.22099438617346
 20
353.97038994058096
 97
0
 75
0
 76
1
 98
0
  0
CIRCLE
  5
192
330
17
100
AcDbEntity
  8
S-REBAR-MAIN
100
AcDbCircle
 10
436.6666666666667
 20
354.2
 30
0.0
 40
0.6
  0
HATCH
  5
193
330
17
100
AcDbEntity
  8
S-REBAR-MAIN
 62
1
100
AcDbHatch
 10
0.0
 20
0.0
 30
0.0
210
0.0
220
0.0
230
1.0
  2
SOLID
 70
1
 71
0
 91
1
 92
3
 72
0
 73
1
 93
16
 10
437.2666666666667
 20
354.2
 10
437.22099438617346
 20
354.429610059419
 10
437.0909307353786
 20
354.6242640687119
 10
436.8962767260857
 20
354.75432771950676
 10
436.6666666666667
 20
354.8
 10
436.43705660724765
 20
354.75432771950676
 10
436.24240259795477
 20
354.6242640687119
 10
436.1123389471599
 20
354.429610059419
 10
436.06666666666666
 20
354.2
 10
436.1123389471599
 20
353.97038994058096
 10
436.24240259795477
 20
353.77573593128807
 10
436.43705660724765
 20
353.6456722804932
 10
436.6666666666667
 20
353.59999999999997
 10
436.8962767260857
 20
353.6456722804932
 10
437.0909307353786
 20
353.77573593128807
 10
437.22099438617346
 20
353.97038994058096
 97
0
 75
0
 76
1
 98
0
  0
CIRCLE
  5
194
330
17
100
AcDbEntity
  8
S-REBAR-MAIN
100
AcDbCircle
 10
446.6666666666667
 20
354.2
 30
0.0
 40
0.6
  0
HATCH
  5
195
330
17
100
AcDbEntity
  8
S-REBAR-MAIN
 62
1
100
AcDbHatch
 10
0.0
 20
0.0
 30
0.0
210
0.0
220
0.0
230
1.0
  2
SOLID
 70
1
 71
0
 91
1
 92
3
 72
0
 73
1
 93
16
 10
447.2666666666667
 20
354.2
 10
447.22099438617346
 20
354.429610059419
 10
447.0909307353786
 20
354.6242640687119
 10
446.8962767260857
 20
354.75432771950676
 10
446.6666666666667
 20
354.8
 10
446.43705660724765
 20
354.75432771950676
 10
446.24240259795477
 20
354.6242640687119
 10
446.1123389471599
 20
354.429610059419
 10
446.06666666666666
 20
354.2
 10
446.1123389471599
 20
353.97038994058096
 10
446.24240259795477
 20
353.77573593128807
 10
446.43705660724765
 20
353.6456722804932
 10
446.6666666666667
 20
353.59999999999997
 10
446.8962767260857
 20
353.6456722804932
 10
447.0909307353786
 20
353.77573593128807
 10
447.22099438617346
 20
353.97038994058096
 97
0
 75
0
 76
1
 98
0
  0
CIRCLE
  5
196
330
17
100
AcDbEntity
  8
S-REBAR-MAIN
100
AcDbCircle
 10
456.6666666666667
 20
354.2
 30
0.0
 40
0.6
  0
HATCH
  5
197
330
17
100
AcDbEntity
  8
S-REBAR-MAIN
 62
1
100
AcDbHatch
 10
0.0
 20
0.0
 30
0.0
210
0.0
220
0.0
230
1.0
  2
SOLID
 70
1
 71
0
 91
1
 92
3
 72
0
 73
1
 93
16
 10
457.2666666666667
 20
354.2
 10
457.22099438617346
 20
354.429610059419
 10
457.0909307353786
 20
354.6242640687119
 10
456.8962767260857
 20
354.75432771950676
 10
456.6666666666667
 20
354.8
 10
456.43705660724765
 20
354.75432771950676
 10
456.24240259795477
 20
354.6242640687119
 10
456.1123389471599
 20
354.429610059419
 10
456.06666666666666
 20
354.2
 10
456.1123389471599
 20
353.97038994058096
 10
456.24240259795477
 20
353.77573593128807
 10
456.43705660724765
 20
353.6456722804932
 10
456.6666666666667
 20
353.59999999999997
 10
456.8962767260857
 20
353.6456722804932
 10
457.0909307353786
 20
353.77573593128807
 10
457.22099438617346
 20
353.97038994058096
 97
0
 75
0
 76
1
 98
0
  0
CIRCLE
  5
198
330
17
100
AcDbEntity
  8
S-REBAR-MAIN
100
AcDbCircle
 10
466.6666666666667
 20
354.2
 30
0.0
 40
0.6
  0
HATCH
  5
199
330
17
100
AcDbEntity
  8
S-REBAR-MAIN
 62
1
100
AcDbHatch
 10
0.0
 20
0.0
 30
0.0
210
0.0
220
0.0
230
1.0
  2
SOLID
 70
1
 71
0
 91
1
 92
3
 72
0
 73
1
 93
16
 10
467.2666666666667
 20
354.2
 10
467.22099438617346
 20
354.429610059419
 10
467.0909307353786
 20
354.6242640687119
 10
466.8962767260857
 20
354.75432771950676
 10
466.6666666666667
 20
354.8
 10
466.43705660724765
 20
354.75432771950676
 10
466.24240259795477
 20
354.6242640687119
 10
466.1123389471599
 20
354.429610059419
 10
466.06666666666666
 20
354.2
 10
466.1123389471599
 20
353.97038994058096
 10
466.24240259795477
 20
353.77573593128807
 10
466.43705660724765
 20
353.6456722804932
 10
466.6666666666667
 20
353.59999999999997
 10
466.8962767260857
 20
353.6456722804932
 10
467.0909307353786
 20
353.77573593128807
 10
467.22099438617346
 20
353.97038994058096
 97
0
 75
0
 76
1
 98
0
  0
CIRCLE
  5
19A
330
17
100
AcDbEntity
  8
S-REBAR-MAIN
100
AcDbCircle
 10
476.6666666666667
 20
354.2
 30
0.0
 40
0.6
  0
HATCH
  5
19B
330
17
100
AcDbEntity
  8
S-REBAR-MAIN
 62
1
100
AcDbHatch
 10
0.0
 20
0.0
 30
0.0
210
0.0
220
0.0
230
1.0
  2
SOLID
 70
1
 71
0
 91
1
 92
3
 72
0
 73
1
 93
16
 10
477.2666666666667
 20
354.2
 10
477.22099438617346
 20
354.429610059419
 10
477.0909307353786
 20
354.6242640687119
 10
476.8962767260857
 20
354.75432771950676
 10
476.6666666666667
 20
354.8
 10
476.43705660724765
 20
354.75432771950676
 10
476.24240259795477
 20
354.6242640687119
 10
476.1123389471599
 20
354.429610059419
 10
476.06666666666666
 20
354.2
 10
476.1123389471599
 20
353.97038994058096
 10
476.24240259795477
 20
353.77573593128807
 10
476.43705660724765
 20
353.6456722804932
 10
476.6666666666667
 20
353.59999999999997
 10
476.8962767260857
 20
353.6456722804932
 10
477.0909307353786
 20
353.77573593128807
 10
477.22099438617346
 20
353.97038994058096
 97
0
 75
0
 76
1
 98
0
  0
CIRCLE
  5
19C
330
17
100
AcDbEntity
  8
S-REBAR-MAIN
100
AcDbCircle
 10
486.6666666666667
 20
354.2
 30
0.0
 40
0.6
  0
HATCH
  5
19D
330
17
100
AcDbEntity
  8
S-REBAR-MAIN
 62
1
100
AcDbHatch
 10
0.0
 20
0.0
 30
0.0
210
0.0
220
0.0
230
1.0
  2
SOLID
 70
1
 71
0
 91
1
 92
3
 72
0
 73
1
 93
16
 10
487.2666666666667
 20
354.2
 10
487.22099438617346
 20
354.429610059419
 10
487.0909307353786
 20
354.6242640687119
 10
486.8962767260857
 20
354.75432771950676
 10
486.6666666666667
 20
354.8
 10
486.43705660724765
 20
354.75432771950676
 10
486.24240259795477
 20
354.6242640687119
 10
486.1123389471599
 20
354.429610059419
 10
486.06666666666666
 20
354.2
 10
486.1123389471599
 20
353.97038994058096
 10
486.24240259795477
 20
353.77573593128807
 10
486.43705660724765
 20
353.6456722804932
 10
486.6666666666667
 20
353.59999999999997
 10
486.8962767260857
 20
353.6456722804932
 10
487.0909307353786
 20
353.77573593128807
 10
487.22099438617346
 20
353.97038994058096
 97
0
 75
0
 76
1
 98
0
  0
CIRCLE
  5
19E
330
17
100
AcDbEntity
  8
S-REBAR-MAIN
100
AcDbCircle
 10
496.6666666666667
 20
354.2
 30
0.0
 40
0.6
  0
HATCH
  5
19F
330
17
100
AcDbEntity
  8
S-REBAR-MAIN
 62
1
100
AcDbHatch
 10
0.0
 20
0.0
 30
0.0
210
0.0
220
0.0
230
1.0
  2
SOLID
 70
1
 71
0
 91
1
 92
3
 72
0
 73
1
 93
16
 10
497.2666666666667
 20
354.2
 10
497.22099438617346
 20
354.429610059419
 10
497.0909307353786
 20
354.6242640687119
 10
496.8962767260857
 20
354.75432771950676
 10
496.6666666666667
 20
354.8
 10
496.43705660724765
 20
354.75432771950676
 10
496.24240259795477
 20
354.6242640687119
 10
496.1123389471599
 20
354.429610059419
 10
496.06666666666666
 20
354.2
 10
496.1123389471599
 20
353.97038994058096
 10
496.24240259795477
 20
353.77573593128807
 10
496.43705660724765
 20
353.6456722804932
 10
496.6666666666667
 20
353.59999999999997
 10
496.8962767260857
 20
353.6456722804932
 10
497.0909307353786
 20
353.77573593128807
 10
497.22099438617346
 20
353.97038994058096
 97
0
 75
0
 76
1
 98
0
  0
CIRCLE
  5
1A0
330
17
100
AcDbEntity
  8
S-REBAR-MAIN
100
AcDbCircle
 10
506.6666666666667
 20
354.2
 30
0.0
 40
0.6
  0
HATCH
  5
1A1
330
17
100
AcDbEntity
  8
S-REBAR-MAIN
 62
1
100
AcDbHatch
 10
0.0
 20
0.0
 30
0.0
210
0.0
220
0.0
230
1.0
  2
SOLID
 70
1
 71
0
 91
1
 92
3
 72
0
 73
1
 93
16
 10
507.2666666666667
 20
354.2
 10
507.22099438617346
 20
354.429610059419
 10
507.0909307353786
 20
354.6242640687119
 10
506.8962767260857
 20
354.75432771950676
 10
506.6666666666667
 20
354.8
 10
506.43705660724765
 20
354.75432771950676
 10
506.24240259795477
 20
354.6242640687119
 10
506.1123389471599
 20
354.429610059419
 10
506.06666666666666
 20
354.2
 10
506.1123389471599
 20
353.97038994058096
 10
506.24240259795477
 20
353.77573593128807
 10
506.43705660724765
 20
353.6456722804932
 10
506.6666666666667
 20
353.59999999999997
 10
506.8962767260857
 20
353.6456722804932
 10
507.0909307353786
 20
353.77573593128807
 10
507.22099438617346
 20
353.97038994058096
 97
0
 75
0
 76
1
 98
0
  0
CIRCLE
  5
1A2
330
17
100
AcDbEntity
  8
S-REBAR-MAIN
100
AcDbCircle
 10
516.6666666666667
 20
354.2
 30
0.0
 40
0.6
  0
HATCH
  5
1A3
330
17
100
AcDbEntity
  8
S-REBAR-MAIN
 62
1
100
AcDbHatch
 10
0.0
 20
0.0
 30
0.0
210
0.0
220
0.0
230
1.0
  2
SOLID
 70
1
 71
0
 91
1
 92
3
 72
0
 73
1
 93
16
 10
517.2666666666668
 20
354.2
 10
517.2209943861735
 20
354.429610059419
 10
517.0909307353787
 20
354.6242640687119
 10
516.8962767260858
 20
354.75432771950676
 10
516.6666666666667
 20
354.8
 10
516.4370566072477
 20
354.75432771950676
 10
516.2424025979548
 20
354.6242640687119
 10
516.11233894716
 20
354.429610059419
 10
516.0666666666667
 20
354.2
 10
516.11233894716
 20
353.97038994058096
 10
516.2424025979548
 20
353.77573593128807
 10
516.4370566072477
 20
353.6456722804932
 10
516.6666666666667
 20
353.59999999999997
 10
516.8962767260858
 20
353.6456722804932
 10
517.0909307353787
 20
353.77573593128807
 10
517.2209943861735
 20
353.97038994058096
 97
0
 75
0
 76
1
 98
0
  0
CIRCLE
  5
1A4
330
17
100
AcDbEntity
  8
S-REBAR-MAIN
100
AcDbCircle
 10
526.6666666666667
 20
354.2
 30
0.0
 40
0.6
  0
HATCH
  5
1A5
330
17
100
AcDbEntity
  8
S-REBAR-MAIN
 62
1
100
AcDbHatch
 10
0.0
 20
0.0
 30
0.0
210
0.0
220
0.0
230
1.0
  2
SOLID
 70
1
 71
0
 91
1
 92
3
 72
0
 73
1
 93
16
 10
527.2666666666668
 20
354.2
 10
527.2209943861735
 20
354.429610059419
 10
527.0909307353787
 20
354.6242640687119
 10
526.8962767260858
 20
354.75432771950676
 10
526.6666666666667
 20
354.8
 10
526.4370566072477
 20
354.75432771950676
 10
526.2424025979548
 20
354.6242640687119
 10
526.11233894716
 20
354.429610059419
 10
526.0666666666667
 20
354.2
 10
526.11233894716
 20
353.97038994058096
 10
526.2424025979548
 20
353.77573593128807
 10
526.4370566072477
 20
353.6456722804932
 10
526.6666666666667
 20
353.59999999999997
 10
526.8962767260858
 20
353.6456722804932
 10
527.0909307353787
 20
353.77573593128807
 10
527.2209943861735
 20
353.97038994058096
 97
0
 75
0
 76
1
 98
0
  0
CIRCLE
  5
1A6
330
17
100
AcDbEntity
  8
S-REBAR-MAIN
100
AcDbCircle
 10
536.6666666666667
 20
354.2
 30
0.0
 40
0.6
  0
HATCH
  5
1A7
330
17
100
AcDbEntity
  8
S-REBAR-MAIN
 62
1
100
AcDbHatch
 10
0.0
 20
0.0
 30
0.0
210
0.0
220
0.0
230
1.0
  2
SOLID
 70
1
 71
0
 91
1
 92
3
 72
0
 73
1
 93
16
 10
537.2666666666668
 20
354.2
 10
537.2209943861735
 20
354.429610059419
 10
537.0909307353787
 20
354.6242640687119
 10
536.8962767260858
 20
354.75432771950676
 10
536.6666666666667
 20
354.8
 10
536.4370566072477
 20
354.75432771950676
 10
536.2424025979548
 20
354.6242640687119
 10
536.11233894716
 20
354.429610059419
 10
536.0666666666667
 20
354.2
 10
536.11233894716
 20
353.97038994058096
 10
536.2424025979548
 20
353.77573593128807
 10
536.4370566072477
 20
353.6456722804932
 10
536.6666666666667
 20
353.59999999999997
 10
536.8962767260858
 20
353.6456722804932
 10
537.0909307353787
 20
353.77573593128807
 10
537.2209943861735
 20
353.97038994058096
 97
0
 75
0
 76
1
 98
0
  0
CIRCLE
  5
1A8
330
17
100
AcDbEntity
  8
S-REBAR-MAIN
100
AcDbCircle
 10
546.6666666666667
 20
354.2
 30
0.0
 40
0.6
  0
HATCH
  5
1A9
330
17
100
AcDbEntity
  8
S-REBAR-MAIN
 62
1
100
AcDbHatch
 10
0.0
 20
0.0
 30
0.0
210
0.0
220
0.0
230
1.0
  2
SOLID
 70
1
 71
0
 91
1
 92
3
 72
0
 73
1
 93
16
 10
547.2666666666668
 20
354.2
 10
547.2209943861735
 20
354.429610059419
 10
547.0909307353787
 20
354.6242640687119
 10
546.8962767260858
 20
354.75432771950676
 10
546.6666666666667
 20
354.8
 10
546.4370566072477
 20
354.75432771950676
 10
546.2424025979548
 20
354.6242640687119
 10
546.11233894716
 20
354.429610059419
 10
546.0666666666667
 20
354.2
 10
546.11233894716
 20
353.97038994058096
 10
546.2424025979548
 20
353.77573593128807
 10
546.4370566072477
 20
353.6456722804932
 10
546.6666666666667
 20
353.59999999999997
 10
546.8962767260858
 20
353.6456722804932
 10
547.0909307353787
 20
353.77573593128807
 10
547.2209943861735
 20
353.97038994058096
 97
0
 75
0
 76
1
 98
0
  0
CIRCLE
  5
1AA
330
17
100
AcDbEntity
  8
S-REBAR-MAIN
100
AcDbCircle
 10
556.6666666666667
 20
354.2
 30
0.0
 40
0.6
  0
HATCH
  5
1AB
330
17
100
AcDbEntity
  8
S-REBAR-MAIN
 62
1
100
AcDbHatch
 10
0.0
 20
0.0
 30
0.0
210
0.0
220
0.0
230
1.0
  2
SOLID
 70
1
 71
0
 91
1
 92
3
 72
0
 73
1
 93
16
 10
557.2666666666668
 20
354.2
 10
557.2209943861735
 20
354.429610059419
 10
557.0909307353787
 20
354.6242640687119
 10
556.8962767260858
 20
354.75432771950676
 10
556.6666666666667
 20
354.8
 10
556.4370566072477
 20
354.75432771950676
 10
556.2424025979548
 20
354.6242640687119
 10
556.11233894716
 20
354.429610059419
 10
556.0666666666667
 20
354.2
 10
556.11233894716
 20
353.97038994058096
 10
556.2424025979548
 20
353.77573593128807
 10
556.4370566072477
 20
353.6456722804932
 10
556.6666666666667
 20
353.59999999999997
 10
556.8962767260858
 20
353.6456722804932
 10
557.0909307353787
 20
353.77573593128807
 10
557.2209943861735
 20
353.97038994058096
 97
0
 75
0
 76
1
 98
0
  0
CIRCLE
  5
1AC
330
17
100
AcDbEntity
  8
S-REBAR-MAIN
100
AcDbCircle
 10
566.6666666666667
 20
354.2
 30
0.0
 40
0.6
  0
HATCH
  5
1AD
330
17
100
AcDbEntity
  8
S-REBAR-MAIN
 62
1
100
AcDbHatch
 10
0.0
 20
0.0
 30
0.0
210
0.0
220
0.0
230
1.0
  2
SOLID
 70
1
 71
0
 91
1
 92
3
 72
0
 73
1
 93
16
 10
567.2666666666668
 20
354.2
 10
567.2209943861735
 20
354.429610059419
 10
567.0909307353787
 20
354.6242640687119
 10
566.8962767260858
 20
354.75432771950676
 10
566.6666666666667
 20
354.8
 10
566.4370566072477
 20
354.75432771950676
 10
566.2424025979548
 20
354.6242640687119
 10
566.11233894716
 20
354.429610059419
 10
566.0666666666667
 20
354.2
 10
566.11233894716
 20
353.97038994058096
 10
566.2424025979548
 20
353.77573593128807
 10
566.4370566072477
 20
353.6456722804932
 10
566.6666666666667
 20
353.59999999999997
 10
566.8962767260858
 20
353.6456722804932
 10
567.0909307353787
 20
353.77573593128807
 10
567.2209943861735
 20
353.97038994058096
 97
0
 75
0
 76
1
 98
0
  0
CIRCLE
  5
1AE
330
17
100
AcDbEntity
  8
S-REBAR-MAIN
100
AcDbCircle
 10
576.6666666666667
 20
354.2
 30
0.0
 40
0.6
  0
HATCH
  5
1AF
330
17
100
AcDbEntity
  8
S-REBAR-MAIN
 62
1
100
AcDbHatch
 10
0.0
 20
0.0
 30
0.0
210
0.0
220
0.0
230
1.0
  2
SOLID
 70
1
 71
0
 91
1
 92
3
 72
0
 73
1
 93
16
 10
577.2666666666668
 20
354.2
 10
577.2209943861735
 20
354.429610059419
 10
577.0909307353787
 20
354.6242640687119
 10
576.8962767260858
 20
354.75432771950676
 10
576.6666666666667
 20
354.8
 10
576.4370566072477
 20
354.75432771950676
 10
576.2424025979548
 20
354.6242640687119
 10
576.11233894716
 20
354.429610059419
 10
576.0666666666667
 20
354.2
 10
576.11233894716
 20
353.97038994058096
 10
576.2424025979548
 20
353.77573593128807
 10
576.4370566072477
 20
353.6456722804932
 10
576.6666666666667
 20
353.59999999999997
 10
576.8962767260858
 20
353.6456722804932
 10
577.0909307353787
 20
353.77573593128807
 10
577.2209943861735
 20
353.97038994058096
 97
0
 75
0
 76
1
 98
0
  0
INSERT
  5
1B0
330
17
100
AcDbEntity
  8
S-LEVEL
100
AcDbBlockReference
  2
LEVELMK
 10
523.3333333333334
 20
360.0
 30
0.0
  0
TEXT
  5
1B2
330
17
100
AcDbEntity
  8
S-LEVEL
100
AcDbText
 10
526.3333333333334
 20
363.2
 30
0.0
 40
1.8
  1
(-)2.000
  7
OpenSans
 11
526.3333333333334
 21
363.2
 31
0.0
100
AcDbText
  0
DIMENSION
  5
1B3
330
17
100
AcDbEntity
  8
S-DIM
100
AcDbDimension
280
0
  2
*D3
  3
SC-DIM
 10
616.6666666666666
 20
300.0
 30
0.0
 11
614.9666666666666
 21
330.0
 31
0.0
 70
32
 71
5
  1
<>
100
AcDbAlignedDimension
 13
590.0
 23
300.0
 33
0.0
 14
590.0
 24
360.0
 34
0.0
 50
90.0
100
AcDbRotatedDimension
1001
ACAD
1000
DSTYLE
1002
{
1070
144
1040
15.0
1002
}
  0
TEXT
  5
1C2
330
17
100
AcDbEntity
  8
S-TITLE
100
AcDbText
 10
400.0
 20
552.0
 30
0.0
 40
3.5
  1
D3   HEADHOUSE WALL ON THE PRESSURE SLAB
  7
OpenSans
 11
400.0
 21
552.0
 31
0.0
100
AcDbText
  0
LINE
  5
1C3
330
17
100
AcDbEntity
  8
S-TITLE
100
AcDbLine
 10
400.0
 20
550.2
 30
0.0
 11
517.4410582719357
 21
550.2
 31
0.0
  0
TEXT
  5
1C4
330
17
100
AcDbEntity
  8
S-TEXT
100
AcDbText
 10
400.0
 20
544.8
 30
0.0
 40
2.0
  1
SCALE 1:15
  7
OpenSans
 11
400.0
 21
544.8
 31
0.0
100
AcDbText
  0
INSERT
  5
1C5
330
17
100
AcDbEntity
  8
S-CALLOUT
100
AcDbBlockReference
  2
BARMARK
 10
410.0
 20
380.0
 30
0.0
  0
TEXT
  5
1C7
330
17
100
AcDbEntity
  8
S-CALLOUT
100
AcDbText
 10
410.0
 20
380.0
 30
0.0
 40
2.0
  1
H10
  7
OpenSans
 72
1
 11
410.0
 21
380.0
 31
0.0
100
AcDbText
 73
2
  0
LEADER
  5
1C8
330
17
100
AcDbEntity
  8
S-CALLOUT
100
AcDbLeader
  3
SC-DIM
 73
3
 76
2
 10
433.8666666666667
 20
386.6666666666667
 30
0.0
 10
410.0
 20
380.0
 30
0.0
  0
TEXT
  5
1C9
330
17
100
AcDbEntity
  8
S-TITLE
100
AcDbText
 10
32.0
 20
255.5
 30
0.0
 40
2.5
  1
CONNECTION FAMILIES USED IN THIS PACKAGE
  7
OpenSans
 11
32.0
 21
255.5
 31
0.0
100
AcDbText
  0
TEXT
  5
1CA
330
17
100
AcDbEntity
  8
S-NOTE
100
AcDbText
 10
32.0
 20
251.375
 30
0.0
 40
2.0
  1
THE HAUNCH FAMILY
  7
OpenSans
 11
32.0
 21
251.375
 31
0.0
100
AcDbText
  0
TEXT
  5
1CB
330
17
100
AcDbEntity
  8
S-NOTE
100
AcDbText
 10
32.0
 20
248.325
 30
0.0
 40
2.0
  1
  BOX, wall/mat and wall/roof     500 x 500, diagonal T20 @ 150
  7
OpenSans
 11
32.0
 21
248.325
 31
0.0
100
AcDbText
  0
TEXT
  5
1CC
330
17
100
AcDbEntity
  8
S-NOTE
100
AcDbText
 10
32.0
 20
245.27499999999998
 30
0.0
 40
2.0
  1
  HEADHOUSE, wall/roof            300 x 300, diagonal T16 @ 150
  7
OpenSans
 11
32.0
 21
245.27499999999998
 31
0.0
100
AcDbText
  0
TEXT
  5
1CD
330
17
100
AcDbEntity
  8
S-NOTE
100
AcDbText
 10
32.0
 20
239.17499999999995
 30
0.0
 40
2.0
  1
THE HAUNCH IS A LOAD-PATH ELEMENT, NOT A FILLET.  It shortens the shear
  7
OpenSans
 11
32.0
 21
239.17499999999995
 31
0.0
100
AcDbText
  0
TEXT
  5
1CE
330
17
100
AcDbEntity
  8
S-NOTE
100
AcDbText
 10
32.0
 20
236.12499999999994
 30
0.0
 40
2.0
  1
span at the corner of the box and controls cracking at the re-entrant
  7
OpenSans
 11
32.0
 21
236.12499999999994
 31
0.0
100
AcDbText
  0
TEXT
  5
1CF
330
17
100
AcDbEntity
  8
S-NOTE
100
AcDbText
 10
32.0
 20
233.07499999999993
 30
0.0
 40
2.0
  1
angle, which is where a monolithic box first distresses under an
  7
OpenSans
 11
32.0
 21
233.07499999999993
 31
0.0
100
AcDbText
  0
TEXT
  5
1D0
330
17
100
AcDbEntity
  8
S-NOTE
100
AcDbText
 10
32.0
 20
230.02499999999992
 30
0.0
 40
2.0
  1
internal-to-external pressure reversal.
  7
OpenSans
 11
32.0
 21
230.02499999999992
 31
0.0
100
AcDbText
  0
TEXT
  5
1D1
330
17
100
AcDbEntity
  8
S-NOTE
100
AcDbText
 10
32.0
 20
223.9249999999999
 30
0.0
 40
2.0
  1
THE STARTER FAMILY
  7
OpenSans
 11
32.0
 21
223.9249999999999
 31
0.0
100
AcDbText
  0
TEXT
  5
1D2
330
17
100
AcDbEntity
  8
S-NOTE
100
AcDbText
 10
32.0
 20
220.8749999999999
 30
0.0
 40
2.0
  1
  W1-W4 from the mat     F07  T16 @ 150 EF, 900 leg,  lap  800
  7
OpenSans
 11
32.0
 21
220.8749999999999
 31
0.0
100
AcDbText
  0
TEXT
  5
1D3
330
17
100
AcDbEntity
  8
S-NOTE
100
AcDbText
 10
32.0
 20
217.82499999999987
 30
0.0
 40
2.0
  1
  W6 / W7 from the mat   F08  T20 @ 150 EF, 900 leg,  lap 1000
  7
OpenSans
 11
32.0
 21
217.82499999999987
 31
0.0
100
AcDbText
  0
TEXT
  5
1D4
330
17
100
AcDbEntity
  8
S-NOTE
100
AcDbText
 10
32.0
 20
214.77499999999986
 30
0.0
 40
2.0
  1
  W5 from the mat        F09  T12 @ 150 EF, 600 leg,  lap  600
  7
OpenSans
 11
32.0
 21
214.77499999999986
 31
0.0
100
AcDbText
  0
TEXT
  5
1D5
330
17
100
AcDbEntity
  8
S-NOTE
100
AcDbText
 10
32.0
 20
211.72499999999985
 30
0.0
 40
2.0
  1
  HW1-HW4 from the slab  H10  T16 @ 150 EF, 600 leg,  lap  800
  7
OpenSans
 11
32.0
 21
211.72499999999985
 31
0.0
100
AcDbText
  0
TEXT
  5
1D6
330
17
100
AcDbEntity
  8
S-NOTE
100
AcDbText
 10
32.0
 20
208.67499999999984
 30
0.0
 40
2.0
  1
  Every starter projects its lap length ABOVE A 150 KICKER.
  7
OpenSans
 11
32.0
 21
208.67499999999984
 31
0.0
100
AcDbText
  0
TEXT
  5
1D7
330
17
100
AcDbEntity
  8
S-NOTE
100
AcDbText
 10
32.0
 20
202.57499999999982
 30
0.0
 40
2.0
  1
CONTINUITY RULE, APPLIED EVERYWHERE
  7
OpenSans
 11
32.0
 21
202.57499999999982
 31
0.0
100
AcDbText
  0
TEXT
  5
1D8
330
17
100
AcDbEntity
  8
S-NOTE
100
AcDbText
 10
32.0
 20
199.5249999999998
 30
0.0
 40
2.0
  1
  NO REINFORCEMENT IS STOPPED AT A JUNCTION OR AT A CONSTRUCTION JOINT.
  7
OpenSans
 11
32.0
 21
199.5249999999998
 31
0.0
100
AcDbText
  0
TEXT
  5
1D9
330
17
100
AcDbEntity
  8
S-NOTE
100
AcDbText
 10
32.0
 20
196.4749999999998
 30
0.0
 40
2.0
  1
  Anchorage is used only where the geometry genuinely terminates a bar.
  7
OpenSans
 11
32.0
 21
196.4749999999998
 31
0.0
100
AcDbText
  0
LWPOLYLINE
  5
1DA
330
17
100
AcDbEntity
  8
S-TITLE
100
AcDbPolyline
 90
4
 70
1
 10
30.0
 20
191.42499999999978
 10
330.0
 20
191.42499999999978
 10
330.0
 20
260.0
 10
30.0
 20
260.0
  0
TEXT
  5
1DB
330
17
100
AcDbEntity
  8
S-TITLE
100
AcDbText
 10
342.0
 20
255.5
 30
0.0
 40
2.5
  1
*** C16 OPEN - AFFECTS THIS SHEET ***
  7
OpenSans
 11
342.0
 21
255.5
 31
0.0
100
AcDbText
  0
TEXT
  5
1DC
330
17
100
AcDbEntity
  8
S-NOTE
100
AcDbText
 10
342.0
 20
251.375
 30
0.0
 40
2.0
  1
The roof / platform junction of the entry stairwell is NOT resolved.
  7
OpenSans
 11
342.0
 21
251.375
 31
0.0
100
AcDbText
  0
TEXT
  5
1DD
330
17
100
AcDbEntity
  8
S-NOTE
100
AcDbText
 10
342.0
 20
248.325
 30
0.0
 40
2.0
  1
Master A.4.7 says the roof over the platform becomes the 500 headhouse
  7
OpenSans
 11
342.0
 21
248.325
 31
0.0
100
AcDbText
  0
TEXT
  5
1DE
330
17
100
AcDbEntity
  8
S-NOTE
100
AcDbText
 10
342.0
 20
245.27499999999998
 30
0.0
 40
2.0
  1
roof; master B.6 / A.7.6 / F.2 design, load and register a 250 roof, and
  7
OpenSans
 11
342.0
 21
245.27499999999998
 31
0.0
100
AcDbText
  0
TEXT
  5
1DF
330
17
100
AcDbEntity
  8
S-NOTE
100
AcDbText
 10
342.0
 20
242.22499999999997
 30
0.0
 40
2.0
  1
the headhouse footprint does not overlap the platform.
  7
OpenSans
 11
342.0
 21
242.22499999999997
 31
0.0
100
AcDbText
  0
TEXT
  5
1E0
330
17
100
AcDbEntity
  8
S-NOTE
100
AcDbText
 10
342.0
 20
236.12499999999994
 30
0.0
 40
2.0
  1
NO CONNECTION DETAIL BETWEEN THE STAIRWELL ROOF AND THE HEADHOUSE ROOF
  7
OpenSans
 11
342.0
 21
236.12499999999994
 31
0.0
100
AcDbText
  0
TEXT
  5
1E1
330
17
100
AcDbEntity
  8
S-NOTE
100
AcDbText
 10
342.0
 20
233.07499999999993
 30
0.0
 40
2.0
  1
IS DRAWN ON THIS SHEET, because the two documents do not agree on what
  7
OpenSans
 11
342.0
 21
233.07499999999993
 31
0.0
100
AcDbText
  0
TEXT
  5
1E2
330
17
100
AcDbEntity
  8
S-NOTE
100
AcDbText
 10
342.0
 20
230.02499999999992
 30
0.0
 40
2.0
  1
is being connected.
  7
OpenSans
 11
342.0
 21
230.02499999999992
 31
0.0
100
AcDbText
  0
TEXT
  5
1E3
330
17
100
AcDbEntity
  8
S-NOTE
100
AcDbText
 10
342.0
 20
223.9249999999999
 30
0.0
 40
2.0
  1
WHAT IS FIXED AND NOT AFFECTED BY C16:
  7
OpenSans
 11
342.0
 21
223.9249999999999
 31
0.0
100
AcDbText
  0
TEXT
  5
1E4
330
17
100
AcDbEntity
  8
S-NOTE
100
AcDbText
 10
342.0
 20
220.8749999999999
 30
0.0
 40
2.0
  1
  ·  the wall/mat and wall/roof haunches of the box,
  7
OpenSans
 11
342.0
 21
220.8749999999999
 31
0.0
100
AcDbText
  0
TEXT
  5
1E5
330
17
100
AcDbEntity
  8
S-NOTE
100
AcDbText
 10
342.0
 20
217.82499999999987
 30
0.0
 40
2.0
  1
  ·  the headhouse wall on the pressure slab (D3 above),
  7
OpenSans
 11
342.0
 21
217.82499999999987
 31
0.0
100
AcDbText
  0
TEXT
  5
1E6
330
17
100
AcDbEntity
  8
S-NOTE
100
AcDbText
 10
342.0
 20
214.77499999999986
 30
0.0
 40
2.0
  1
  ·  the movement joint at the stairwell raft (R-702, R-804).
  7
OpenSans
 11
342.0
 21
214.77499999999986
 31
0.0
100
AcDbText
  0
TEXT
  5
1E7
330
17
100
AcDbEntity
  8
S-NOTE
100
AcDbText
 10
342.0
 20
208.67499999999984
 30
0.0
 40
2.0
  1
A USER RULING IS REQUIRED BEFORE THE JUNCTION CAN BE DETAILED.
  7
OpenSans
 11
342.0
 21
208.67499999999984
 31
0.0
100
AcDbText
  0
LWPOLYLINE
  5
1E8
330
17
100
AcDbEntity
  8
S-TITLE
100
AcDbPolyline
 90
4
 70
1
 10
340.0
 20
203.62499999999983
 10
638.0
 20
203.62499999999983
 10
638.0
 20
260.0
 10
340.0
 20
260.0
  0
TEXT
  5
1E9
330
17
100
AcDbEntity
  8
S-TITLE
100
AcDbText
 10
648.0
 20
555.0
 30
0.0
 40
2.5
  1
BAR SCHEDULE EXTRACT - THIS SHEET
  7
OpenSans
 11
648.0
 21
555.0
 31
0.0
100
AcDbText
  0
LWPOLYLINE
  5
1EA
330
17
100
AcDbEntity
  8
S-TABLE
100
AcDbPolyline
 90
4
 70
1
 10
648.0
 20
547.8
 10
757.0
 20
547.8
 10
757.0
 20
552.0
 10
648.0
 20
552.0
  0
TEXT
  5
1EB
330
17
100
AcDbEntity
  8
S-TABLE
100
AcDbText
 10
649.4
 20
548.9454545454545
 30
0.0
 40
1.909090909090909
  1
MARK
  7
OpenSans
 11
649.4
 21
548.9454545454545
 31
0.0
100
AcDbText
  0
TEXT
  5
1EC
330
17
100
AcDbEntity
  8
S-TABLE
100
AcDbText
 10
666.4
 20
548.9454545454545
 30
0.0
 40
1.909090909090909
  1
DIA
  7
OpenSans
 11
666.4
 21
548.9454545454545
 31
0.0
100
AcDbText
  0
TEXT
  5
1ED
330
17
100
AcDbEntity
  8
S-TABLE
100
AcDbText
 10
679.4
 20
548.9454545454545
 30
0.0
 40
1.909090909090909
  1
SHP
  7
OpenSans
 11
679.4
 21
548.9454545454545
 31
0.0
100
AcDbText
  0
TEXT
  5
1EE
330
17
100
AcDbEntity
  8
S-TABLE
100
AcDbText
 10
691.4
 20
548.9454545454545
 30
0.0
 40
1.909090909090909
  1
SPAC
  7
OpenSans
 11
691.4
 21
548.9454545454545
 31
0.0
100
AcDbText
  0
TEXT
  5
1EF
330
17
100
AcDbEntity
  8
S-TABLE
100
AcDbText
 10
706.4
 20
548.9454545454545
 30
0.0
 40
1.909090909090909
  1
No.
  7
OpenSans
 11
706.4
 21
548.9454545454545
 31
0.0
100
AcDbText
  0
TEXT
  5
1F0
330
17
100
AcDbEntity
  8
S-TABLE
100
AcDbText
 10
721.4
 20
548.9454545454545
 30
0.0
 40
1.909090909090909
  1
CUT
  7
OpenSans
 11
721.4
 21
548.9454545454545
 31
0.0
100
AcDbText
  0
TEXT
  5
1F1
330
17
100
AcDbEntity
  8
S-TABLE
100
AcDbText
 10
738.4
 20
548.9454545454545
 30
0.0
 40
1.909090909090909
  1
kg
  7
OpenSans
 11
738.4
 21
548.9454545454545
 31
0.0
100
AcDbText
  0
TEXT
  5
1F2
330
17
100
AcDbEntity
  8
S-TABLE
100
AcDbText
 10
649.4
 20
544.7454545454544
 30
0.0
 40
1.909090909090909
  1
F07
  7
OpenSans
 11
649.4
 21
544.7454545454544
 31
0.0
100
AcDbText
  0
TEXT
  5
1F3
330
17
100
AcDbEntity
  8
S-TABLE
100
AcDbText
 10
666.4
 20
544.7454545454544
 30
0.0
 40
1.909090909090909
  1
T16
  7
OpenSans
 11
666.4
 21
544.7454545454544
 31
0.0
100
AcDbText
  0
TEXT
  5
1F4
330
17
100
AcDbEntity
  8
S-TABLE
100
AcDbText
 10
679.4
 20
544.7454545454544
 30
0.0
 40
1.909090909090909
  1
11
  7
OpenSans
 11
679.4
 21
544.7454545454544
 31
0.0
100
AcDbText
  0
TEXT
  5
1F5
330
17
100
AcDbEntity
  8
S-TABLE
100
AcDbText
 10
691.4
 20
544.7454545454544
 30
0.0
 40
1.909090909090909
  1
150
  7
OpenSans
 11
691.4
 21
544.7454545454544
 31
0.0
100
AcDbText
  0
TEXT
  5
1F6
330
17
100
AcDbEntity
  8
S-TABLE
100
AcDbText
 10
706.4
 20
544.7454545454544
 30
0.0
 40
1.909090909090909
  1
720
  7
OpenSans
 11
706.4
 21
544.7454545454544
 31
0.0
100
AcDbText
  0
TEXT
  5
1F7
330
17
100
AcDbEntity
  8
S-TABLE
100
AcDbText
 10
721.4
 20
544.7454545454544
 30
0.0
 40
1.909090909090909
  1
2335
  7
OpenSans
 11
721.4
 21
544.7454545454544
 31
0.0
100
AcDbText
  0
TEXT
  5
1F8
330
17
100
AcDbEntity
  8
S-TABLE
100
AcDbText
 10
738.4
 20
544.7454545454544
 30
0.0
 40
1.909090909090909
  1
2654
  7
OpenSans
 11
738.4
 21
544.7454545454544
 31
0.0
100
AcDbText
  0
LINE
  5
1F9
330
17
100
AcDbEntity
  8
S-TABLE
100
AcDbLine
 10
648.0
 20
543.5999999999999
 30
0.0
 11
757.0
 21
543.5999999999999
 31
0.0
  0
TEXT
  5
1FA
330
17
100
AcDbEntity
  8
S-TABLE
100
AcDbText
 10
649.4
 20
540.5454545454544
 30
0.0
 40
1.909090909090909
  1
F08
  7
OpenSans
 11
649.4
 21
540.5454545454544
 31
0.0
100
AcDbText
  0
TEXT
  5
1FB
330
17
100
AcDbEntity
  8
S-TABLE
100
AcDbText
 10
666.4
 20
540.5454545454544
 30
0.0
 40
1.909090909090909
  1
T20
  7
OpenSans
 11
666.4
 21
540.5454545454544
 31
0.0
100
AcDbText
  0
TEXT
  5
1FC
330
17
100
AcDbEntity
  8
S-TABLE
100
AcDbText
 10
679.4
 20
540.5454545454544
 30
0.0
 40
1.909090909090909
  1
11
  7
OpenSans
 11
679.4
 21
540.5454545454544
 31
0.0
100
AcDbText
  0
TEXT
  5
1FD
330
17
100
AcDbEntity
  8
S-TABLE
100
AcDbText
 10
691.4
 20
540.5454545454544
 30
0.0
 40
1.909090909090909
  1
150
  7
OpenSans
 11
691.4
 21
540.5454545454544
 31
0.0
100
AcDbText
  0
TEXT
  5
1FE
330
17
100
AcDbEntity
  8
S-TABLE
100
AcDbText
 10
706.4
 20
540.5454545454544
 30
0.0
 40
1.909090909090909
  1
132
  7
OpenSans
 11
706.4
 21
540.5454545454544
 31
0.0
100
AcDbText
  0
TEXT
  5
1FF
330
17
100
AcDbEntity
  8
S-TABLE
100
AcDbText
 10
721.4
 20
540.5454545454544
 30
0.0
 40
1.909090909090909
  1
2535
  7
OpenSans
 11
721.4
 21
540.5454545454544
 31
0.0
100
AcDbText
  0
TEXT
  5
200
330
17
100
AcDbEntity
  8
S-TABLE
100
AcDbText
 10
738.4
 20
540.5454545454544
 30
0.0
 40
1.909090909090909
  1
825
  7
OpenSans
 11
738.4
 21
540.5454545454544
 31
0.0
100
AcDbText
  0
LINE
  5
201
330
17
100
AcDbEntity
  8
S-TABLE
100
AcDbLine
 10
648.0
 20
539.3999999999999
 30
0.0
 11
757.0
 21
539.3999999999999
 31
0.0
  0
TEXT
  5
202
330
17
100
AcDbEntity
  8
S-TABLE
100
AcDbText
 10
649.4
 20
536.3454545454543
 30
0.0
 40
1.909090909090909
  1
F09
  7
OpenSans
 11
649.4
 21
536.3454545454543
 31
0.0
100
AcDbText
  0
TEXT
  5
203
330
17
100
AcDbEntity
  8
S-TABLE
100
AcDbText
 10
666.4
 20
536.3454545454543
 30
0.0
 40
1.909090909090909
  1
T12
  7
OpenSans
 11
666.4
 21
536.3454545454543
 31
0.0
100
AcDbText
  0
TEXT
  5
204
330
17
100
AcDbEntity
  8
S-TABLE
100
AcDbText
 10
679.4
 20
536.3454545454543
 30
0.0
 40
1.909090909090909
  1
11
  7
OpenSans
 11
679.4
 21
536.3454545454543
 31
0.0
100
AcDbText
  0
TEXT
  5
205
330
17
100
AcDbEntity
  8
S-TABLE
100
AcDbText
 10
691.4
 20
536.3454545454543
 30
0.0
 40
1.909090909090909
  1
150
  7
OpenSans
 11
691.4
 21
536.3454545454543
 31
0.0
100
AcDbText
  0
TEXT
  5
206
330
17
100
AcDbEntity
  8
S-TABLE
100
AcDbText
 10
706.4
 20
536.3454545454543
 30
0.0
 40
1.909090909090909
  1
66
  7
OpenSans
 11
706.4
 21
536.3454545454543
 31
0.0
100
AcDbText
  0
TEXT
  5
207
330
17
100
AcDbEntity
  8
S-TABLE
100
AcDbText
 10
721.4
 20
536.3454545454543
 30
0.0
 40
1.909090909090909
  1
1835
  7
OpenSans
 11
721.4
 21
536.3454545454543
 31
0.0
100
AcDbText
  0
TEXT
  5
208
330
17
100
AcDbEntity
  8
S-TABLE
100
AcDbText
 10
738.4
 20
536.3454545454543
 30
0.0
 40
1.909090909090909
  1
108
  7
OpenSans
 11
738.4
 21
536.3454545454543
 31
0.0
100
AcDbText
  0
LINE
  5
209
330
17
100
AcDbEntity
  8
S-TABLE
100
AcDbLine
 10
648.0
 20
535.1999999999998
 30
0.0
 11
757.0
 21
535.1999999999998
 31
0.0
  0
TEXT
  5
20A
330
17
100
AcDbEntity
  8
S-TABLE
100
AcDbText
 10
649.4
 20
532.1454545454543
 30
0.0
 40
1.909090909090909
  1
H10
  7
OpenSans
 11
649.4
 21
532.1454545454543
 31
0.0
100
AcDbText
  0
TEXT
  5
20B
330
17
100
AcDbEntity
  8
S-TABLE
100
AcDbText
 10
666.4
 20
532.1454545454543
 30
0.0
 40
1.909090909090909
  1
T16
  7
OpenSans
 11
666.4
 21
532.1454545454543
 31
0.0
100
AcDbText
  0
TEXT
  5
20C
330
17
100
AcDbEntity
  8
S-TABLE
100
AcDbText
 10
679.4
 20
532.1454545454543
 30
0.0
 40
1.909090909090909
  1
11
  7
OpenSans
 11
679.4
 21
532.1454545454543
 31
0.0
100
AcDbText
  0
TEXT
  5
20D
330
17
100
AcDbEntity
  8
S-TABLE
100
AcDbText
 10
691.4
 20
532.1454545454543
 30
0.0
 40
1.909090909090909
  1
150
  7
OpenSans
 11
691.4
 21
532.1454545454543
 31
0.0
100
AcDbText
  0
TEXT
  5
20E
330
17
100
AcDbEntity
  8
S-TABLE
100
AcDbText
 10
706.4
 20
532.1454545454543
 30
0.0
 40
1.909090909090909
  1
260
  7
OpenSans
 11
706.4
 21
532.1454545454543
 31
0.0
100
AcDbText
  0
TEXT
  5
20F
330
17
100
AcDbEntity
  8
S-TABLE
100
AcDbText
 10
721.4
 20
532.1454545454543
 30
0.0
 40
1.909090909090909
  1
2335
  7
OpenSans
 11
721.4
 21
532.1454545454543
 31
0.0
100
AcDbText
  0
TEXT
  5
210
330
17
100
AcDbEntity
  8
S-TABLE
100
AcDbText
 10
738.4
 20
532.1454545454543
 30
0.0
 40
1.909090909090909
  1
958
  7
OpenSans
 11
738.4
 21
532.1454545454543
 31
0.0
100
AcDbText
  0
LINE
  5
211
330
17
100
AcDbEntity
  8
S-TABLE
100
AcDbLine
 10
648.0
 20
530.9999999999998
 30
0.0
 11
757.0
 21
530.9999999999998
 31
0.0
  0
TEXT
  5
212
330
17
100
AcDbEntity
  8
S-TABLE
100
AcDbText
 10
649.4
 20
527.9454545454543
 30
0.0
 40
1.909090909090909
  1
W06
  7
OpenSans
 11
649.4
 21
527.9454545454543
 31
0.0
100
AcDbText
  0
TEXT
  5
213
330
17
100
AcDbEntity
  8
S-TABLE
100
AcDbText
 10
666.4
 20
527.9454545454543
 30
0.0
 40
1.909090909090909
  1
T20
  7
OpenSans
 11
666.4
 21
527.9454545454543
 31
0.0
100
AcDbText
  0
TEXT
  5
214
330
17
100
AcDbEntity
  8
S-TABLE
100
AcDbText
 10
679.4
 20
527.9454545454543
 30
0.0
 40
1.909090909090909
  1
00
  7
OpenSans
 11
679.4
 21
527.9454545454543
 31
0.0
100
AcDbText
  0
TEXT
  5
215
330
17
100
AcDbEntity
  8
S-TABLE
100
AcDbText
 10
691.4
 20
527.9454545454543
 30
0.0
 40
1.909090909090909
  1
150
  7
OpenSans
 11
691.4
 21
527.9454545454543
 31
0.0
100
AcDbText
  0
TEXT
  5
216
330
17
100
AcDbEntity
  8
S-TABLE
100
AcDbText
 10
706.4
 20
527.9454545454543
 30
0.0
 40
1.909090909090909
  1
720
  7
OpenSans
 11
706.4
 21
527.9454545454543
 31
0.0
100
AcDbText
  0
TEXT
  5
217
330
17
100
AcDbEntity
  8
S-TABLE
100
AcDbText
 10
721.4
 20
527.9454545454543
 30
0.0
 40
1.909090909090909
  1
2307
  7
OpenSans
 11
721.4
 21
527.9454545454543
 31
0.0
100
AcDbText
  0
TEXT
  5
218
330
17
100
AcDbEntity
  8
S-TABLE
100
AcDbText
 10
738.4
 20
527.9454545454543
 30
0.0
 40
1.909090909090909
  1
4096
  7
OpenSans
 11
738.4
 21
527.9454545454543
 31
0.0
100
AcDbText
  0
LINE
  5
219
330
17
100
AcDbEntity
  8
S-TABLE
100
AcDbLine
 10
648.0
 20
526.7999999999997
 30
0.0
 11
757.0
 21
526.7999999999997
 31
0.0
  0
TEXT
  5
21A
330
17
100
AcDbEntity
  8
S-TABLE
100
AcDbText
 10
649.4
 20
523.7454545454542
 30
0.0
 40
1.909090909090909
  1
W12
  7
OpenSans
 11
649.4
 21
523.7454545454542
 31
0.0
100
AcDbText
  0
TEXT
  5
21B
330
17
100
AcDbEntity
  8
S-TABLE
100
AcDbText
 10
666.4
 20
523.7454545454542
 30
0.0
 40
1.909090909090909
  1
T20
  7
OpenSans
 11
666.4
 21
523.7454545454542
 31
0.0
100
AcDbText
  0
TEXT
  5
21C
330
17
100
AcDbEntity
  8
S-TABLE
100
AcDbText
 10
679.4
 20
523.7454545454542
 30
0.0
 40
1.909090909090909
  1
00
  7
OpenSans
 11
679.4
 21
523.7454545454542
 31
0.0
100
AcDbText
  0
TEXT
  5
21D
330
17
100
AcDbEntity
  8
S-TABLE
100
AcDbText
 10
691.4
 20
523.7454545454542
 30
0.0
 40
1.909090909090909
  1
150
  7
OpenSans
 11
691.4
 21
523.7454545454542
 31
0.0
100
AcDbText
  0
TEXT
  5
21E
330
17
100
AcDbEntity
  8
S-TABLE
100
AcDbText
 10
706.4
 20
523.7454545454542
 30
0.0
 40
1.909090909090909
  1
132
  7
OpenSans
 11
706.4
 21
523.7454545454542
 31
0.0
100
AcDbText
  0
TEXT
  5
21F
330
17
100
AcDbEntity
  8
S-TABLE
100
AcDbText
 10
721.4
 20
523.7454545454542
 30
0.0
 40
1.909090909090909
  1
2307
  7
OpenSans
 11
721.4
 21
523.7454545454542
 31
0.0
100
AcDbText
  0
TEXT
  5
220
330
17
100
AcDbEntity
  8
S-TABLE
100
AcDbText
 10
738.4
 20
523.7454545454542
 30
0.0
 40
1.909090909090909
  1
751
  7
OpenSans
 11
738.4
 21
523.7454545454542
 31
0.0
100
AcDbText
  0
LINE
  5
221
330
17
100
AcDbEntity
  8
S-TABLE
100
AcDbLine
 10
648.0
 20
522.5999999999997
 30
0.0
 11
757.0
 21
522.5999999999997
 31
0.0
  0
TEXT
  5
222
330
17
100
AcDbEntity
  8
S-TABLE
100
AcDbText
 10
649.4
 20
519.5454545454542
 30
0.0
 40
1.909090909090909
  1
H06
  7
OpenSans
 11
649.4
 21
519.5454545454542
 31
0.0
100
AcDbText
  0
TEXT
  5
223
330
17
100
AcDbEntity
  8
S-TABLE
100
AcDbText
 10
666.4
 20
519.5454545454542
 30
0.0
 40
1.909090909090909
  1
T16
  7
OpenSans
 11
666.4
 21
519.5454545454542
 31
0.0
100
AcDbText
  0
TEXT
  5
224
330
17
100
AcDbEntity
  8
S-TABLE
100
AcDbText
 10
679.4
 20
519.5454545454542
 30
0.0
 40
1.909090909090909
  1
00
  7
OpenSans
 11
679.4
 21
519.5454545454542
 31
0.0
100
AcDbText
  0
TEXT
  5
225
330
17
100
AcDbEntity
  8
S-TABLE
100
AcDbText
 10
691.4
 20
519.5454545454542
 30
0.0
 40
1.909090909090909
  1
150
  7
OpenSans
 11
691.4
 21
519.5454545454542
 31
0.0
100
AcDbText
  0
TEXT
  5
226
330
17
100
AcDbEntity
  8
S-TABLE
100
AcDbText
 10
706.4
 20
519.5454545454542
 30
0.0
 40
1.909090909090909
  1
130
  7
OpenSans
 11
706.4
 21
519.5454545454542
 31
0.0
100
AcDbText
  0
TEXT
  5
227
330
17
100
AcDbEntity
  8
S-TABLE
100
AcDbText
 10
721.4
 20
519.5454545454542
 30
0.0
 40
1.909090909090909
  1
1704
  7
OpenSans
 11
721.4
 21
519.5454545454542
 31
0.0
100
AcDbText
  0
TEXT
  5
228
330
17
100
AcDbEntity
  8
S-TABLE
100
AcDbText
 10
738.4
 20
519.5454545454542
 30
0.0
 40
1.909090909090909
  1
350
  7
OpenSans
 11
738.4
 21
519.5454545454542
 31
0.0
100
AcDbText
  0
LINE
  5
229
330
17
100
AcDbEntity
  8
S-TABLE
100
AcDbLine
 10
648.0
 20
518.3999999999996
 30
0.0
 11
757.0
 21
518.3999999999996
 31
0.0
  0
LINE
  5
22A
330
17
100
AcDbEntity
  8
S-TABLE
100
AcDbLine
 10
648.0
 20
552.0
 30
0.0
 11
757.0
 21
552.0
 31
0.0
  0
LINE
  5
22B
330
17
100
AcDbEntity
  8
S-TABLE
100
AcDbLine
 10
648.0
 20
552.0
 30
0.0
 11
648.0
 21
518.3999999999996
 31
0.0
  0
LINE
  5
22C
330
17
100
AcDbEntity
  8
S-TABLE
100
AcDbLine
 10
665.0
 20
552.0
 30
0.0
 11
665.0
 21
518.3999999999996
 31
0.0
  0
LINE
  5
22D
330
17
100
AcDbEntity
  8
S-TABLE
100
AcDbLine
 10
678.0
 20
552.0
 30
0.0
 11
678.0
 21
518.3999999999996
 31
0.0
  0
LINE
  5
22E
330
17
100
AcDbEntity
  8
S-TABLE
100
AcDbLine
 10
690.0
 20
552.0
 30
0.0
 11
690.0
 21
518.3999999999996
 31
0.0
  0
LINE
  5
22F
330
17
100
AcDbEntity
  8
S-TABLE
100
AcDbLine
 10
705.0
 20
552.0
 30
0.0
 11
705.0
 21
518.3999999999996
 31
0.0
  0
LINE
  5
230
330
17
100
AcDbEntity
  8
S-TABLE
100
AcDbLine
 10
720.0
 20
552.0
 30
0.0
 11
720.0
 21
518.3999999999996
 31
0.0
  0
LINE
  5
231
330
17
100
AcDbEntity
  8
S-TABLE
100
AcDbLine
 10
737.0
 20
552.0
 30
0.0
 11
737.0
 21
518.3999999999996
 31
0.0
  0
LINE
  5
232
330
17
100
AcDbEntity
  8
S-TABLE
100
AcDbLine
 10
757.0
 20
552.0
 30
0.0
 11
757.0
 21
518.3999999999996
 31
0.0
  0
TEXT
  5
233
330
17
100
AcDbEntity
  8
S-TABLE
100
AcDbText
 10
648.0
 20
513.9999999999997
 30
0.0
 40
1.4
  1
SHEET SUB-TOTAL  9,742 kg     FULL SCHEDULE: R-004 and Structural CAD/Schedules/BBS_MASTER.md
  7
OpenSans
 11
648.0
 21
513.9999999999997
 31
0.0
100
AcDbText
  0
LWPOLYLINE
  5
234
330
17
100
AcDbEntity
  8
S-TITLE
100
AcDbPolyline
 90
4
 70
1
 10
651.0
 20
10.0
 10
831.0
 20
10.0
 10
831.0
 20
110.0
 10
651.0
 20
110.0
  0
LINE
  5
235
330
17
100
AcDbEntity
  8
S-TITLE
100
AcDbLine
 10
651.0
 20
30.0
 30
0.0
 11
831.0
 21
30.0
 31
0.0
  0
LINE
  5
236
330
17
100
AcDbEntity
  8
S-TITLE
100
AcDbLine
 10
651.0
 20
42.0
 30
0.0
 11
831.0
 21
42.0
 31
0.0
  0
LINE
  5
237
330
17
100
AcDbEntity
  8
S-TITLE
100
AcDbLine
 10
651.0
 20
54.0
 30
0.0
 11
831.0
 21
54.0
 31
0.0
  0
LINE
  5
238
330
17
100
AcDbEntity
  8
S-TITLE
100
AcDbLine
 10
651.0
 20
66.0
 30
0.0
 11
831.0
 21
66.0
 31
0.0
  0
LINE
  5
239
330
17
100
AcDbEntity
  8
S-TITLE
100
AcDbLine
 10
651.0
 20
88.0
 30
0.0
 11
831.0
 21
88.0
 31
0.0
  0
LINE
  5
23A
330
17
100
AcDbEntity
  8
S-TITLE
100
AcDbLine
 10
763.0
 20
10.0
 30
0.0
 11
763.0
 21
30.0
 31
0.0
  0
LINE
  5
23B
330
17
100
AcDbEntity
  8
S-TITLE
100
AcDbLine
 10
797.0
 20
10.0
 30
0.0
 11
797.0
 21
30.0
 31
0.0
  0
TEXT
  5
23C
330
17
100
AcDbEntity
  8
S-TITLE
100
AcDbText
 10
653.0
 20
24.6
 30
0.0
 40
1.4
  1
DRAWING No.
  7
OpenSans
 11
653.0
 21
24.6
 31
0.0
100
AcDbText
  0
TEXT
  5
23D
330
17
100
AcDbEntity
  8
S-TITLE
100
AcDbText
 10
673.0
 20
14.2
 30
0.0
 40
3.5
  1
R-803
  7
OpenSans
 11
673.0
 21
14.2
 31
0.0
100
AcDbText
  0
TEXT
  5
23E
330
17
100
AcDbEntity
  8
S-TITLE
100
AcDbText
 10
765.0
 20
24.6
 30
0.0
 40
1.4
  1
REV
  7
OpenSans
 11
765.0
 21
24.6
 31
0.0
100
AcDbText
  0
TEXT
  5
23F
330
17
100
AcDbEntity
  8
S-TITLE
100
AcDbText
 10
769.0
 20
14.2
 30
0.0
 40
3.5
  1
SC1
  7
OpenSans
 11
769.0
 21
14.2
 31
0.0
100
AcDbText
  0
TEXT
  5
240
330
17
100
AcDbEntity
  8
S-TITLE
100
AcDbText
 10
799.0
 20
24.6
 30
0.0
 40
1.4
  1
SHEET
  7
OpenSans
 11
799.0
 21
24.6
 31
0.0
100
AcDbText
  0
TEXT
  5
241
330
17
100
AcDbEntity
  8
S-TITLE
100
AcDbText
 10
799.0
 20
15.0
 30
0.0
 40
1.6
  1
28 OF 30
  7
OpenSans
 11
799.0
 21
15.0
 31
0.0
100
AcDbText
  0
LINE
  5
242
330
17
100
AcDbEntity
  8
S-TITLE
100
AcDbLine
 10
747.0
 20
30.0
 30
0.0
 11
747.0
 21
42.0
 31
0.0
  0
TEXT
  5
243
330
17
100
AcDbEntity
  8
S-TITLE
100
AcDbText
 10
653.0
 20
34.4
 30
0.0
 40
1.6
  1
SCALE   1:15
  7
OpenSans
 11
653.0
 21
34.4
 31
0.0
100
AcDbText
  0
TEXT
  5
244
330
17
100
AcDbEntity
  8
S-TITLE
100
AcDbText
 10
749.0
 20
34.4
 30
0.0
 40
1.6
  1
DATE   04.09.2026
  7
OpenSans
 11
749.0
 21
34.4
 31
0.0
100
AcDbText
  0
TEXT
  5
245
330
17
100
AcDbEntity
  8
S-TITLE
100
AcDbText
 10
653.0
 20
46.4
 30
0.0
 40
1.4
  1
DESIGNED  [PLACEHOLDER]
  7
OpenSans
 11
653.0
 21
46.4
 31
0.0
100
AcDbText
  0
TEXT
  5
246
330
17
100
AcDbEntity
  8
S-TITLE
100
AcDbText
 10
713.0
 20
46.4
 30
0.0
 40
1.4
  1
CHECKED  [PLACEHOLDER]
  7
OpenSans
 11
713.0
 21
46.4
 31
0.0
100
AcDbText
  0
TEXT
  5
247
330
17
100
AcDbEntity
  8
S-TITLE
100
AcDbText
 10
773.0
 20
46.4
 30
0.0
 40
1.4
  1
APPROVED  [PLACEHOLDER]
  7
OpenSans
 11
773.0
 21
46.4
 31
0.0
100
AcDbText
  0
TEXT
  5
248
330
17
100
AcDbEntity
  8
S-TITLE
100
AcDbText
 10
653.0
 20
58.4
 30
0.0
 40
1.4
  1
STATUS
  7
OpenSans
 11
653.0
 21
58.4
 31
0.0
100
AcDbText
  0
TEXT
  5
249
330
17
100
AcDbEntity
  8
S-BLAST
100
AcDbText
 10
673.0
 20
58.0
 30
0.0
 40
1.6
  1
FOR REVIEW - NOT FOR CONSTRUCTION
  7
OpenSans
 11
673.0
 21
58.0
 31
0.0
100
AcDbText
  0
TEXT
  5
24A
330
17
100
AcDbEntity
  8
S-TITLE
100
AcDbText
 10
653.0
 20
83.4
 30
0.0
 40
1.4
  1
DRAWING TITLE
  7
OpenSans
 11
653.0
 21
83.4
 31
0.0
100
AcDbText
  0
TEXT
  5
24B
330
17
100
AcDbEntity
  8
S-TITLE
100
AcDbText
 10
653.0
 20
75.4
 30
0.0
 40
2.4
  1
WALL / SLAB CONNECTIONS
  7
OpenSans
 11
653.0
 21
75.4
 31
0.0
100
AcDbText
  0
TEXT
  5
24C
330
17
100
AcDbEntity
  8
S-TITLE
100
AcDbText
 10
653.0
 20
68.8
 30
0.0
 40
1.4
  1
WALL-MAT · WALL-ROOF · HEADHOUSE WALL-SLAB · HAUNCH FAMILY
  7
OpenSans
 11
653.0
 21
68.8
 31
0.0
100
AcDbText
  0
TEXT
  5
24D
330
17
100
AcDbEntity
  8
S-TITLE
100
AcDbText
 10
653.0
 20
105.2
 30
0.0
 40
1.4
  1
PROJECT
  7
OpenSans
 11
653.0
 21
105.2
 31
0.0
100
AcDbText
  0
TEXT
  5
24E
330
17
100
AcDbEntity
  8
S-TITLE
100
AcDbText
 10
653.0
 20
99.6
 30
0.0
 40
1.6
  1
UNDERGROUND CBRN-HARDENED BLAST-RESISTANT
  7
OpenSans
 11
653.0
 21
99.6
 31
0.0
100
AcDbText
  0
TEXT
  5
24F
330
17
100
AcDbEntity
  8
S-TITLE
100
AcDbText
 10
653.0
 20
95.0
 30
0.0
 40
1.6
  1
PROTECTIVE STRUCTURE  -  PUNE, MAHARASHTRA
  7
OpenSans
 11
653.0
 21
95.0
 31
0.0
100
AcDbText
  0
TEXT
  5
250
330
17
100
AcDbEntity
  8
S-TITLE
100
AcDbText
 10
653.0
 20
90.0
 30
0.0
 40
1.4
  1
STRUCTURAL PHASE 2 REV A + M1   ·   SENTRY POST NOT IN THIS PACKAGE
  7
OpenSans
 11
653.0
 21
90.0
 31
0.0
100
AcDbText
  0
ENDSEC
  0
SECTION
  2
OBJECTS
  0
DICTIONARY
  5
A
330
0
100
AcDbDictionary
281
1
  3
ACAD_COLOR
350
B
  3
ACAD_GROUP
350
C
  3
ACAD_LAYOUT
350
D
  3
ACAD_MATERIAL
350
E
  3
ACAD_MLEADERSTYLE
350
F
  3
ACAD_MLINESTYLE
350
10
  3
ACAD_PLOTSETTINGS
350
11
  3
ACAD_PLOTSTYLENAME
350
12
  3
ACAD_SCALELIST
350
14
  3
ACAD_TABLESTYLE
350
15
  3
ACAD_VISUALSTYLE
350
16
  3
EZDXF_META
350
2D
  0
DICTIONARY
  5
B
330
A
100
AcDbDictionary
281
1
  0
DICTIONARY
  5
C
330
A
100
AcDbDictionary
281
1
  0
DICTIONARY
  5
D
330
A
100
AcDbDictionary
281
1
  3
Model
350
1A
  3
Layout1
350
1E
  0
DICTIONARY
  5
E
330
A
100
AcDbDictionary
281
1
  3
ByBlock
350
1F
  3
ByLayer
350
20
  3
Global
350
21
  0
DICTIONARY
  5
F
330
A
100
AcDbDictionary
281
1
  3
Standard
350
2C
  0
DICTIONARY
  5
10
330
A
100
AcDbDictionary
281
1
  3
Standard
350
22
  0
DICTIONARY
  5
11
330
A
100
AcDbDictionary
281
1
  0
ACDBDICTIONARYWDFLT
  5
12
330
A
100
AcDbDictionary
281
1
  3
Normal
350
13
100
AcDbDictionaryWithDefault
340
13
  0
ACDBPLACEHOLDER
  5
13
330
12
  0
DICTIONARY
  5
14
330
A
100
AcDbDictionary
281
1
  0
DICTIONARY
  5
15
330
A
100
AcDbDictionary
281
1
  0
DICTIONARY
  5
16
330
A
100
AcDbDictionary
281
1
  3
2dWireframe
350
5A
  3
Basic
350
5B
  3
Brighten
350
5C
  3
ColorChange
350
5D
  3
Conceptual
350
5E
  3
Dim
350
5F
  3
EdgeColorOff
350
60
  3
Facepattern
350
61
  3
Flat
350
62
  3
FlatWithEdges
350
63
  3
Gouraud
350
64
  3
GouraudWithEdges
350
65
  3
Hidden
350
66
  3
JitterOff
350
67
  3
Linepattern
350
68
  3
Modeling
350
69
  3
OverhangOff
350
6A
  3
Realistic
350
6B
  3
Shaded
350
6C
  3
Shaded with edges
350
6D
  3
Shades of Gray
350
6E
  3
Sketchy
350
6F
  3
Thicken
350
70
  3
Wireframe
350
71
  3
X-Ray
350
72
  0
LAYOUT
  5
1A
330
D
100
AcDbPlotSettings
  1

  4
A3
  6

 40
7.5
 41
20.0
 42
7.5
 43
20.0
 44
420.0
 45
297.0
 46
0.0
 47
0.0
 48
0.0
 49
0.0
140
0.0
141
0.0
142
1.0
143
1.0
 70
1024
 72
1
 73
0
 74
5
  7

 75
16
 76
0
 77
2
 78
300
147
1.0
148
0.0
149
0.0
100
AcDbLayout
  1
Model
 70
1
 71
0
 10
0.0
 20
0.0
 11
420.0
 21
297.0
 12
0.0
 22
0.0
 32
0.0
 14
1e+20
 24
1e+20
 34
1e+20
 15
-1e+20
 25
-1e+20
 35
-1e+20
146
0.0
 13
0.0
 23
0.0
 33
0.0
 16
1.0
 26
0.0
 36
0.0
 17
0.0
 27
1.0
 37
0.0
 76
1
330
17
  0
LAYOUT
  5
1E
330
D
100
AcDbPlotSettings
  1

  4
A3
  6

 40
7.5
 41
20.0
 42
7.5
 43
20.0
 44
420.0
 45
297.0
 46
0.0
 47
0.0
 48
0.0
 49
0.0
140
0.0
141
0.0
142
1.0
143
1.0
 70
0
 72
1
 73
0
 74
5
  7

 75
16
 76
0
 77
2
 78
300
147
1.0
148
0.0
149
0.0
100
AcDbLayout
  1
Layout1
 70
1
 71
1
 10
0.0
 20
0.0
 11
420.0
 21
297.0
 12
0.0
 22
0.0
 32
0.0
 14
1e+20
 24
1e+20
 34
1e+20
 15
-1e+20
 25
-1e+20
 35
-1e+20
146
0.0
 13
0.0
 23
0.0
 33
0.0
 16
1.0
 26
0.0
 36
0.0
 17
0.0
 27
1.0
 37
0.0
 76
1
330
1B
  0
MATERIAL
  5
1F
102
{ACAD_REACTORS
330
E
102
}
330
E
100
AcDbMaterial
  1
ByBlock
  2

 70
0
 40
1.0
 71
1
 41
1.0
 91
-1023410177
 42
1.0
 72
1
  3

 73
1
 74
1
 75
1
 44
0.5
 73
0
 45
1.0
 46
1.0
 77
1
  4

 78
1
 79
1
170
1
 48
1.0
171
1
  6

172
1
173
1
174
1
140
1.0
141
1.0
175
1
  7

176
1
177
1
178
1
143
1.0
179
1
  8

270
1
271
1
272
1
145
1.0
146
1.0
273
1
  9

274
1
275
1
276
1
 42
1.0
 72
1
  3

 73
1
 74
1
 75
1
 94
63
  0
MATERIAL
  5
20
102
{ACAD_REACTORS
330
E
102
}
330
E
100
AcDbMaterial
  1
ByLayer
  2

 70
0
 40
1.0
 71
1
 41
1.0
 91
-1023410177
 42
1.0
 72
1
  3

 73
1
 74
1
 75
1
 44
0.5
 73
0
 45
1.0
 46
1.0
 77
1
  4

 78
1
 79
1
170
1
 48
1.0
171
1
  6

172
1
173
1
174
1
140
1.0
141
1.0
175
1
  7

176
1
177
1
178
1
143
1.0
179
1
  8

270
1
271
1
272
1
145
1.0
146
1.0
273
1
  9

274
1
275
1
276
1
 42
1.0
 72
1
  3

 73
1
 74
1
 75
1
 94
63
  0
MATERIAL
  5
21
102
{ACAD_REACTORS
330
E
102
}
330
E
100
AcDbMaterial
  1
Global
  2

 70
0
 40
1.0
 71
1
 41
1.0
 91
-1023410177
 42
1.0
 72
1
  3

 73
1
 74
1
 75
1
 44
0.5
 73
0
 45
1.0
 46
1.0
 77
1
  4

 78
1
 79
1
170
1
 48
1.0
171
1
  6

172
1
173
1
174
1
140
1.0
141
1.0
175
1
  7

176
1
177
1
178
1
143
1.0
179
1
  8

270
1
271
1
272
1
145
1.0
146
1.0
273
1
  9

274
1
275
1
276
1
 42
1.0
 72
1
  3

 73
1
 74
1
 75
1
 94
63
  0
MLINESTYLE
  5
22
102
{ACAD_REACTORS
330
10
102
}
330
10
100
AcDbMlineStyle
  2
Standard
 70
0
  3

 62
256
 51
90.0
 52
90.0
 71
2
 49
0.5
 62
256
  6
BYLAYER
 49
-0.5
 62
256
  6
BYLAYER
  0
MLEADERSTYLE
  5
2C
102
{ACAD_REACTORS
330
F
102
}
330
F
100
AcDbMLeaderStyle
179
2
170
2
171
1
172
0
 90
2
 40
0.0
 41
0.0
173
1
 91
-1056964608
 92
-2
290
1
 42
2.0
291
1
 43
8.0
  3
Standard
 44
4.0
300

342
29
174
1
175
1
176
0
178
1
 93
-1056964608
 45
4.0
292
0
297
0
 46
4.0
 94
-1056964608
 47
1.0
 49
1.0
140
1.0
294
1
141
0.0
177
0
142
1.0
295
0
296
0
143
3.75
271
0
272
9
273
9
  0
DICTIONARY
  5
2D
330
A
100
AcDbDictionary
280
1
281
1
  3
CREATED_BY_EZDXF
350
2E
  3
WRITTEN_BY_EZDXF
350
253
  0
DICTIONARYVAR
  5
2E
330
2D
100
DictionaryVariables
280
0
  1
1.4.4 @ 2026-09-10T01:42:55.196812+00:00
  0
VISUALSTYLE
  5
5A
102
{ACAD_REACTORS
330
16
102
}
330
16
100
AcDbVisualStyle
  2
2dWireframe
 70
4
 90
0
 40
0.6
 62
7
290
0
291
0
  0
VISUALSTYLE
  5
5B
102
{ACAD_REACTORS
330
16
102
}
330
16
100
AcDbVisualStyle
  2
Basic
 70
7
 90
1
 40
0.6
 62
7
290
0
291
1
  0
VISUALSTYLE
  5
5C
102
{ACAD_REACTORS
330
16
102
}
330
16
100
AcDbVisualStyle
  2
Brighten
 70
12
 90
2
 40
0.6
 62
7
290
0
291
1
  0
VISUALSTYLE
  5
5D
102
{ACAD_REACTORS
330
16
102
}
330
16
100
AcDbVisualStyle
  2
ColorChange
 70
16
 90
2
 40
0.6
 62
8
290
0
291
1
  0
VISUALSTYLE
  5
5E
102
{ACAD_REACTORS
330
16
102
}
330
16
100
AcDbVisualStyle
  2
Conceptual
 70
9
 90
3
 40
0.6
 62
7
290
0
291
0
  0
VISUALSTYLE
  5
5F
102
{ACAD_REACTORS
330
16
102
}
330
16
100
AcDbVisualStyle
  2
Dim
 70
11
 90
2
 40
0.6
 62
7
290
0
291
1
  0
VISUALSTYLE
  5
60
102
{ACAD_REACTORS
330
16
102
}
330
16
100
AcDbVisualStyle
  2
EdgeColorOff
 70
22
 90
2
 40
0.6
 62
7
290
0
291
1
  0
VISUALSTYLE
  5
61
102
{ACAD_REACTORS
330
16
102
}
330
16
100
AcDbVisualStyle
  2
Facepattern
 70
15
 90
2
 40
0.6
 62
7
290
0
291
1
  0
VISUALSTYLE
  5
62
102
{ACAD_REACTORS
330
16
102
}
330
16
100
AcDbVisualStyle
  2
Flat
 70
0
 90
2
 40
0.6
 62
7
290
0
291
1
  0
VISUALSTYLE
  5
63
102
{ACAD_REACTORS
330
16
102
}
330
16
100
AcDbVisualStyle
  2
FlatWithEdges
 70
1
 90
2
 40
0.6
 62
7
290
0
291
1
  0
VISUALSTYLE
  5
64
102
{ACAD_REACTORS
330
16
102
}
330
16
100
AcDbVisualStyle
  2
Gouraud
 70
2
 90
2
 40
0.6
 62
7
290
0
291
1
  0
VISUALSTYLE
  5
65
102
{ACAD_REACTORS
330
16
102
}
330
16
100
AcDbVisualStyle
  2
GouraudWithEdges
 70
3
 90
2
 40
0.6
 62
7
290
0
291
1
  0
VISUALSTYLE
  5
66
102
{ACAD_REACTORS
330
16
102
}
330
16
100
AcDbVisualStyle
  2
Hidden
 70
6
 90
1
 40
0.6
 62
7
290
0
291
0
  0
VISUALSTYLE
  5
67
102
{ACAD_REACTORS
330
16
102
}
330
16
100
AcDbVisualStyle
  2
JitterOff
 70
20
 90
2
 40
0.6
 62
7
290
0
291
1
  0
VISUALSTYLE
  5
68
102
{ACAD_REACTORS
330
16
102
}
330
16
100
AcDbVisualStyle
  2
Linepattern
 70
14
 90
2
 40
0.6
 62
7
290
0
291
1
  0
VISUALSTYLE
  5
69
102
{ACAD_REACTORS
330
16
102
}
330
16
100
AcDbVisualStyle
  2
Modeling
 70
10
 90
2
 40
0.6
 62
7
290
0
291
0
  0
VISUALSTYLE
  5
6A
102
{ACAD_REACTORS
330
16
102
}
330
16
100
AcDbVisualStyle
  2
OverhangOff
 70
21
 90
2
 40
0.6
 62
7
290
0
291
1
  0
VISUALSTYLE
  5
6B
102
{ACAD_REACTORS
330
16
102
}
330
16
100
AcDbVisualStyle
  2
Realistic
 70
8
 90
2
 40
0.6
 62
7
290
0
291
0
  0
VISUALSTYLE
  5
6C
102
{ACAD_REACTORS
330
16
102
}
330
16
100
AcDbVisualStyle
  2
Shaded
 70
27
 90
2
 40
0.6
 62
7
290
0
291
0
  0
VISUALSTYLE
  5
6D
102
{ACAD_REACTORS
330
16
102
}
330
16
100
AcDbVisualStyle
  2
Shaded with edges
 70
26
 90
2
 40
0.6
 62
7
290
0
291
0
  0
VISUALSTYLE
  5
6E
102
{ACAD_REACTORS
330
16
102
}
330
16
100
AcDbVisualStyle
  2
Shades of Gray
 70
23
 90
2
 40
0.6
 62
7
290
0
291
0
  0
VISUALSTYLE
  5
6F
102
{ACAD_REACTORS
330
16
102
}
330
16
100
AcDbVisualStyle
  2
Sketchy
 70
24
 90
1
 40
0.6
 62
7
290
0
291
0
  0
VISUALSTYLE
  5
70
102
{ACAD_REACTORS
330
16
102
}
330
16
100
AcDbVisualStyle
  2
Thicken
 70
13
 90
2
 40
0.6
 62
7
290
0
291
1
  0
VISUALSTYLE
  5
71
102
{ACAD_REACTORS
330
16
102
}
330
16
100
AcDbVisualStyle
  2
Wireframe
 70
5
 90
0
 40
0.6
 62
7
290
0
291
0
  0
VISUALSTYLE
  5
72
102
{ACAD_REACTORS
330
16
102
}
330
16
100
AcDbVisualStyle
  2
X-Ray
 70
25
 90
2
 40
0.5
 62
7
290
0
291
0
  0
DICTIONARYVAR
  5
253
330
2D
100
DictionaryVariables
280
0
  1
1.4.4 @ 2026-09-10T01:42:55.219248+00:00
  0
ENDSEC
  0
EOF
