  0
SECTION
  2
HEADER
  9
$ACADVER
  1
AC1024
  9
$ACADMAINTVER
 70
6
  9
$DWGCODEPAGE
  3
ANSI_1252
  9
$LASTSAVEDBY
  1
ezdxf
  9
$INSBASE
 10
0.0
 20
0.0
 30
0.0
  9
$EXTMIN
 10
1e+20
 20
1e+20
 30
1e+20
  9
$EXTMAX
 10
-1e+20
 20
-1e+20
 30
-1e+20
  9
$LIMMIN
 10
0.0
 20
0.0
  9
$LIMMAX
 10
420.0
 20
297.0
  9
$ORTHOMODE
 70
0
  9
$REGENMODE
 70
1
  9
$FILLMODE
 70
1
  9
$QTEXTMODE
 70
0
  9
$MIRRTEXT
 70
1
  9
$LTSCALE
 40
1.0
  9
$ATTMODE
 70
1
  9
$TEXTSIZE
 40
2.5
  9
$TRACEWID
 40
1.0
  9
$TEXTSTYLE
  7
OpenSans
  9
$CLAYER
  8
0
  9
$CELTYPE
  6
ByLayer
  9
$CECOLOR
 62
256
  9
$CELTSCALE
 40
1.0
  9
$DISPSILH
 70
0
  9
$DIMSCALE
 40
1.0
  9
$DIMASZ
 40
0.175
  9
$DIMEXO
 40
0.125
  9
$DIMDLI
 40
3.75
  9
$DIMRND
 40
0.0
  9
$DIMDLE
 40
0.0
  9
$DIMEXE
 40
0.375
  9
$DIMTP
 40
0.0
  9
$DIMTM
 40
0.0
  9
$DIMTXT
 40
0.25
  9
$DIMCEN
 40
2.5
  9
$DIMTSZ
 40
0.0
  9
$DIMTOL
 70
0
  9
$DIMLIM
 70
0
  9
$DIMTIH
 70
0
  9
$DIMTOH
 70
0
  9
$DIMSE1
 70
0
  9
$DIMSE2
 70
0
  9
$DIMTAD
 70
1
  9
$DIMZIN
 70
12
  9
$DIMBLK
  1
ARCHTICK
  9
$DIMASO
 70
1
  9
$DIMSHO
 70
1
  9
$DIMPOST
  1

  9
$DIMAPOST
  1

  9
$DIMALT
 70
0
  9
$DIMALTD
 70
3
  9
$DIMALTF
 40
0.03937007874
  9
$DIMLFAC
 40
100.0
  9
$DIMTOFL
 70
1
  9
$DIMTVP
 40
0.0
  9
$DIMTIX
 70
0
  9
$DIMSOXD
 70
0
  9
$DIMSAH
 70
0
  9
$DIMBLK1
  1

  9
$DIMBLK2
  1

  9
$DIMSTYLE
  2
EZDXF
  9
$DIMCLRD
 70
0
  9
$DIMCLRE
 70
0
  9
$DIMCLRT
 70
0
  9
$DIMTFAC
 40
0.5
  9
$DIMGAP
 40
0.1
  9
$DIMJUST
 70
0
  9
$DIMSD1
 70
0
  9
$DIMSD2
 70
0
  9
$DIMTOLJ
 70
0
  9
$DIMTZIN
 70
8
  9
$DIMALTZ
 70
0
  9
$DIMALTTZ
 70
0
  9
$DIMUPT
 70
1
  9
$DIMDEC
 70
2
  9
$DIMTDEC
 70
2
  9
$DIMALTU
 70
2
  9
$DIMALTTD
 70
3
  9
$DIMTXSTY
  7
OpenSansCondensed-Light
  9
$DIMAUNIT
 70
0
  9
$DIMADEC
 70
2
  9
$DIMALTRND
 40
0.0
  9
$DIMAZIN
 70
3
  9
$DIMDSEP
 70
46
  9
$DIMATFIT
 70
3
  9
$DIMFRAC
 70
0
  9
$DIMLDRBLK
  1

  9
$DIMLUNIT
 70
2
  9
$DIMLWD
 70
-2
  9
$DIMLWE
 70
-2
  9
$DIMTMOVE
 70
2
  9
$DIMFXL
 40
1.0
  9
$DIMFXLON
 70
0
  9
$DIMJOGANG
 40
0.785398163397
  9
$DIMTFILL
 70
0
  9
$DIMTFILLCLR
 70
0
  9
$DIMARCSYM
 70
0
  9
$DIMLTYPE
  6

  9
$DIMLTEX1
  6

  9
$DIMLTEX2
  6

  9
$DIMTXTDIRECTION
 70
0
  9
$LUNITS
 70
2
  9
$LUPREC
 70
4
  9
$SKETCHINC
 40
1.0
  9
$FILLETRAD
 40
10.0
  9
$AUNITS
 70
0
  9
$AUPREC
 70
2
  9
$MENU
  1
.
  9
$ELEVATION
 40
0.0
  9
$PELEVATION
 40
0.0
  9
$THICKNESS
 40
0.0
  9
$LIMCHECK
 70
0
  9
$CHAMFERA
 40
0.0
  9
$CHAMFERB
 40
0.0
  9
$CHAMFERC
 40
0.0
  9
$CHAMFERD
 40
0.0
  9
$SKPOLY
 70
0
  9
$TDCREATE
 40
2461289.0980092594
  9
$TDUCREATE
 40
2458532.153996898
  9
$TDUPDATE
 40
2461289.0980092594
  9
$TDUUPDATE
 40
2458532.1544311
  9
$TDINDWG
 40
0.0
  9
$TDUSRTIMER
 40
0.0
  9
$USRTIMER
 70
1
  9
$ANGBASE
 50
0.0
  9
$ANGDIR
 70
0
  9
$PDMODE
 70
0
  9
$PDSIZE
 40
0.0
  9
$PLINEWID
 40
0.0
  9
$SPLFRAME
 70
0
  9
$SPLINETYPE
 70
6
  9
$SPLINESEGS
 70
8
  9
$HANDSEED
  5
1FC
  9
$SURFTAB1
 70
6
  9
$SURFTAB2
 70
6
  9
$SURFTYPE
 70
6
  9
$SURFU
 70
6
  9
$SURFV
 70
6
  9
$UCSBASE
  2

  9
$UCSNAME
  2

  9
$UCSORG
 10
0.0
 20
0.0
 30
0.0
  9
$UCSXDIR
 10
1.0
 20
0.0
 30
0.0
  9
$UCSYDIR
 10
0.0
 20
1.0
 30
0.0
  9
$UCSORTHOREF
  2

  9
$UCSORTHOVIEW
 70
0
  9
$UCSORGTOP
 10
0.0
 20
0.0
 30
0.0
  9
$UCSORGBOTTOM
 10
0.0
 20
0.0
 30
0.0
  9
$UCSORGLEFT
 10
0.0
 20
0.0
 30
0.0
  9
$UCSORGRIGHT
 10
0.0
 20
0.0
 30
0.0
  9
$UCSORGFRONT
 10
0.0
 20
0.0
 30
0.0
  9
$UCSORGBACK
 10
0.0
 20
0.0
 30
0.0
  9
$PUCSBASE
  2

  9
$PUCSNAME
  2

  9
$PUCSORG
 10
0.0
 20
0.0
 30
0.0
  9
$PUCSXDIR
 10
1.0
 20
0.0
 30
0.0
  9
$PUCSYDIR
 10
0.0
 20
1.0
 30
0.0
  9
$PUCSORTHOREF
  2

  9
$PUCSORTHOVIEW
 70
0
  9
$PUCSORGTOP
 10
0.0
 20
0.0
 30
0.0
  9
$PUCSORGBOTTOM
 10
0.0
 20
0.0
 30
0.0
  9
$PUCSORGLEFT
 10
0.0
 20
0.0
 30
0.0
  9
$PUCSORGRIGHT
 10
0.0
 20
0.0
 30
0.0
  9
$PUCSORGFRONT
 10
0.0
 20
0.0
 30
0.0
  9
$PUCSORGBACK
 10
0.0
 20
0.0
 30
0.0
  9
$USERI1
 70
0
  9
$USERI2
 70
0
  9
$USERI3
 70
0
  9
$USERI4
 70
0
  9
$USERI5
 70
0
  9
$USERR1
 40
0.0
  9
$USERR2
 40
0.0
  9
$USERR3
 40
0.0
  9
$USERR4
 40
0.0
  9
$USERR5
 40
0.0
  9
$WORLDVIEW
 70
1
  9
$SHADEDGE
 70
3
  9
$SHADEDIF
 70
70
  9
$TILEMODE
 70
1
  9
$MAXACTVP
 70
64
  9
$PINSBASE
 10
0.0
 20
0.0
 30
0.0
  9
$PLIMCHECK
 70
0
  9
$PEXTMIN
 10
1e+20
 20
1e+20
 30
1e+20
  9
$PEXTMAX
 10
-1e+20
 20
-1e+20
 30
-1e+20
  9
$PLIMMIN
 10
0.0
 20
0.0
  9
$PLIMMAX
 10
420.0
 20
297.0
  9
$UNITMODE
 70
0
  9
$VISRETAIN
 70
1
  9
$PLINEGEN
 70
0
  9
$PSLTSCALE
 70
1
  9
$TREEDEPTH
 70
3020
  9
$CMLSTYLE
  2
Standard
  9
$CMLJUST
 70
0
  9
$CMLSCALE
 40
20.0
  9
$PROXYGRAPHICS
 70
1
  9
$MEASUREMENT
 70
1
  9
$CELWEIGHT
370
-1
  9
$ENDCAPS
280
0
  9
$JOINSTYLE
280
0
  9
$LWDISPLAY
290
0
  9
$INSUNITS
 70
4
  9
$HYPERLINKBASE
  1

  9
$STYLESHEET
  1

  9
$XEDIT
290
1
  9
$CEPSNTYPE
380
0
  9
$PSTYLEMODE
290
1
  9
$FINGERPRINTGUID
  2
{213BAFF7-2883-40AB-AFB1-366DB75C7386}
  9
$VERSIONGUID
  2
{EC3E1ABB-E3E3-494A-8DB9-957A4CACB38D}
  9
$EXTNAMES
290
1
  9
$PSVPSCALE
 40
0.0
  9
$OLESTARTUP
290
0
  9
$SORTENTS
280
127
  9
$INDEXCTL
280
0
  9
$HIDETEXT
280
1
  9
$XCLIPFRAME
280
1
  9
$HALOGAP
280
0
  9
$OBSCOLOR
 70
257
  9
$OBSLTYPE
280
0
  9
$INTERSECTIONDISPLAY
280
0
  9
$INTERSECTIONCOLOR
 70
257
  9
$DIMASSOC
280
2
  9
$PROJECTNAME
  1

  9
$CAMERADISPLAY
290
0
  9
$LENSLENGTH
 40
50.0
  9
$CAMERAHEIGHT
 40
0.0
  9
$STEPSPERSEC
 40
24.0
  9
$STEPSIZE
 40
100.0
  9
$3DDWFPREC
 40
2.0
  9
$PSOLWIDTH
 40
0.005
  9
$PSOLHEIGHT
 40
0.08
  9
$LOFTANG1
 40
1.570796326795
  9
$LOFTANG2
 40
1.570796326795
  9
$LOFTMAG1
 40
0.0
  9
$LOFTMAG2
 40
0.0
  9
$LOFTPARAM
 70
7
  9
$LOFTNORMALS
280
1
  9
$LATITUDE
 40
37.795
  9
$LONGITUDE
 40
-122.394
  9
$NORTHDIRECTION
 40
0.0
  9
$TIMEZONE
 70
-8000
  9
$LIGHTGLYPHDISPLAY
280
1
  9
$TILEMODELIGHTSYNCH
280
1
  9
$CMATERIAL
347
20
  9
$SOLIDHIST
280
0
  9
$SHOWHIST
280
1
  9
$DWFFRAME
280
2
  9
$DGNFRAME
280
2
  9
$REALWORLDSCALE
290
1
  9
$INTERFERECOLOR
 62
256
  9
$CSHADOW
280
0
  9
$SHADOWPLANELOCATION
 40
0.0
  0
ENDSEC
  0
SECTION
  2
CLASSES
  0
CLASS
  1
ACDBDICTIONARYWDFLT
  2
AcDbDictionaryWithDefault
  3
ObjectDBX Classes
 90
0
 91
0
280
0
281
0
  0
CLASS
  1
SUN
  2
AcDbSun
  3
SCENEOE
 90
1153
 91
0
280
0
281
0
  0
CLASS
  1
VISUALSTYLE
  2
AcDbVisualStyle
  3
ObjectDBX Classes
 90
4095
 91
0
280
0
281
0
  0
CLASS
  1
MATERIAL
  2
AcDbMaterial
  3
ObjectDBX Classes
 90
1153
 91
0
280
0
281
0
  0
CLASS
  1
SCALE
  2
AcDbScale
  3
ObjectDBX Classes
 90
1153
 91
0
280
0
281
0
  0
CLASS
  1
TABLESTYLE
  2
AcDbTableStyle
  3
ObjectDBX Classes
 90
4095
 91
0
280
0
281
0
  0
CLASS
  1
MLEADERSTYLE
  2
AcDbMLeaderStyle
  3
ACDB_MLEADERSTYLE_CLASS
 90
4095
 91
0
280
0
281
0
  0
CLASS
  1
DICTIONARYVAR
  2
AcDbDictionaryVar
  3
ObjectDBX Classes
 90
0
 91
0
280
0
281
0
  0
CLASS
  1
CELLSTYLEMAP
  2
AcDbCellStyleMap
  3
ObjectDBX Classes
 90
1152
 91
0
280
0
281
0
  0
CLASS
  1
MENTALRAYRENDERSETTINGS
  2
AcDbMentalRayRenderSettings
  3
SCENEOE
 90
1024
 91
0
280
0
281
0
  0
CLASS
  1
ACDBDETAILVIEWSTYLE
  2
AcDbDetailViewStyle
  3
ObjectDBX Classes
 90
1025
 91
0
280
0
281
0
  0
CLASS
  1
ACDBSECTIONVIEWSTYLE
  2
AcDbSectionViewStyle
  3
ObjectDBX Classes
 90
1025
 91
0
280
0
281
0
  0
CLASS
  1
RASTERVARIABLES
  2
AcDbRasterVariables
  3
ISM
 90
0
 91
0
280
0
281
0
  0
CLASS
  1
ACDBPLACEHOLDER
  2
AcDbPlaceHolder
  3
ObjectDBX Classes
 90
0
 91
0
280
0
281
0
  0
CLASS
  1
LAYOUT
  2
AcDbLayout
  3
ObjectDBX Classes
 90
0
 91
0
280
0
281
0
  0
ENDSEC
  0
SECTION
  2
TABLES
  0
TABLE
  2
VPORT
  5
8
330
0
100
AcDbSymbolTable
 70
1
  0
VPORT
  5
23
330
8
100
AcDbSymbolTableRecord
100
AcDbViewportTableRecord
  2
*Active
 70
0
 10
0.0
 20
0.0
 11
1.0
 21
1.0
 12
0.0
 22
0.0
 13
0.0
 23
0.0
 14
0.5
 24
0.5
 15
0.5
 25
0.5
 16
0.0
 26
0.0
 36
1.0
 17
0.0
 27
0.0
 37
0.0
 40
1000.0
 41
1.34
 42
50.0
 43
0.0
 44
0.0
 50
0.0
 51
0.0
 71
0
 72
1000
 73
1
 74
3
 75
0
 76
0
 77
0
 78
0
281
0
 65
0
146
0.0
  0
ENDTAB
  0
TABLE
  2
LTYPE
  5
2
330
0
100
AcDbSymbolTable
 70
21
  0
LTYPE
  5
24
330
2
100
AcDbSymbolTableRecord
100
AcDbLinetypeTableRecord
  2
ByBlock
 70
0
  3

 72
65
 73
0
 40
0.0
  0
LTYPE
  5
25
330
2
100
AcDbSymbolTableRecord
100
AcDbLinetypeTableRecord
  2
ByLayer
 70
0
  3

 72
65
 73
0
 40
0.0
  0
LTYPE
  5
26
330
2
100
AcDbSymbolTableRecord
100
AcDbLinetypeTableRecord
  2
Continuous
 70
0
  3

 72
65
 73
0
 40
0.0
  0
LTYPE
  5
2F
330
2
100
AcDbSymbolTableRecord
100
AcDbLinetypeTableRecord
  2
CENTER
 70
0
  3
Center ____ _ ____ _ ____ _ ____ _ ____ _ ____
 72
65
 73
4
 40
5.08
 49
3.175
 74
0
 49
-0.635
 74
0
 49
0.635
 74
0
 49
-0.635
 74
0
  0
LTYPE
  5
30
330
2
100
AcDbSymbolTableRecord
100
AcDbLinetypeTableRecord
  2
CENTERX2
 70
0
  3
Center (2x) ________  __  ________  __  ________
 72
65
 73
4
 40
8.89
 49
6.35
 74
0
 49
-0.635
 74
0
 49
1.27
 74
0
 49
-0.635
 74
0
  0
LTYPE
  5
31
330
2
100
AcDbSymbolTableRecord
100
AcDbLinetypeTableRecord
  2
CENTER2
 70
0
  3
Center (.5x) ____ _ ____ _ ____ _ ____ _ ____
 72
65
 73
4
 40
2.54
 49
1.587
 74
0
 49
-0.318
 74
0
 49
0.318
 74
0
 49
-0.318
 74
0
  0
LTYPE
  5
32
330
2
100
AcDbSymbolTableRecord
100
AcDbLinetypeTableRecord
  2
DASHED
 70
0
  3
Dashed __ __ __ __ __ __ __ __ __ __ __ __ __ _
 72
65
 73
2
 40
1.524
 49
1.27
 74
0
 49
-0.254
 74
0
  0
LTYPE
  5
33
330
2
100
AcDbSymbolTableRecord
100
AcDbLinetypeTableRecord
  2
DASHEDX2
 70
0
  3
Dashed (2x) ____  ____  ____  ____  ____  ____
 72
65
 73
2
 40
3.048
 49
2.54
 74
0
 49
-0.508
 74
0
  0
LTYPE
  5
34
330
2
100
AcDbSymbolTableRecord
100
AcDbLinetypeTableRecord
  2
DASHED2
 70
0
  3
Dashed (.5x) _ _ _ _ _ _ _ _ _ _ _ _ _ _
 72
65
 73
2
 40
0.762
 49
0.635
 74
0
 49
-0.127
 74
0
  0
LTYPE
  5
35
330
2
100
AcDbSymbolTableRecord
100
AcDbLinetypeTableRecord
  2
PHANTOM
 70
0
  3
Phantom ______  __  __  ______  __  __  ______
 72
65
 73
6
 40
6.35
 49
3.175
 74
0
 49
-0.635
 74
0
 49
0.635
 74
0
 49
-0.635
 74
0
 49
0.635
 74
0
 49
-0.635
 74
0
  0
LTYPE
  5
36
330
2
100
AcDbSymbolTableRecord
100
AcDbLinetypeTableRecord
  2
PHANTOMX2
 70
0
  3
Phantom (2x)____________    ____    ____    ____________
 72
65
 73
6
 40
10.795
 49
6.35
 74
0
 49
-0.635
 74
0
 49
1.27
 74
0
 49
-0.635
 74
0
 49
1.27
 74
0
 49
-0.635
 74
0
  0
LTYPE
  5
37
330
2
100
AcDbSymbolTableRecord
100
AcDbLinetypeTableRecord
  2
PHANTOM2
 70
0
  3
Phantom (.5x) ___ _ _ ___ _ _ ___ _ _ ___ _ _ ___
 72
65
 73
6
 40
3.175
 49
1.587
 74
0
 49
-0.318
 74
0
 49
0.318
 74
0
 49
-0.318
 74
0
 49
0.318
 74
0
 49
-0.318
 74
0
  0
LTYPE
  5
38
330
2
100
AcDbSymbolTableRecord
100
AcDbLinetypeTableRecord
  2
DASHDOT
 70
0
  3
Dash dot __ . __ . __ . __ . __ . __ . __ . __
 72
65
 73
4
 40
3.556
 49
2.54
 74
0
 49
-0.508
 74
0
 49
0.0
 74
0
 49
-0.508
 74
0
  0
LTYPE
  5
39
330
2
100
AcDbSymbolTableRecord
100
AcDbLinetypeTableRecord
  2
DASHDOTX2
 70
0
  3
Dash dot (2x) ____  .  ____  .  ____  .  ____
 72
65
 73
4
 40
6.096
 49
5.08
 74
0
 49
-0.508
 74
0
 49
0.0
 74
0
 49
-0.508
 74
0
  0
LTYPE
  5
3A
330
2
100
AcDbSymbolTableRecord
100
AcDbLinetypeTableRecord
  2
DASHDOT2
 70
0
  3
Dash dot (.5x) _ . _ . _ . _ . _ . _ . _ . _
 72
65
 73
4
 40
1.778
 49
1.27
 74
0
 49
-0.254
 74
0
 49
0.0
 74
0
 49
-0.254
 74
0
  0
LTYPE
  5
3B
330
2
100
AcDbSymbolTableRecord
100
AcDbLinetypeTableRecord
  2
DOT
 70
0
  3
Dot .  .  .  .  .  .  .  .  .  .  .  .  .  .  .  .
 72
65
 73
2
 40
0.508
 49
0.0
 74
0
 49
-0.508
 74
0
  0
LTYPE
  5
3C
330
2
100
AcDbSymbolTableRecord
100
AcDbLinetypeTableRecord
  2
DOTX2
 70
0
  3
Dot (2x) .    .    .    .    .    .    .    . 
 72
65
 73
2
 40
1.016
 49
0.0
 74
0
 49
-1.016
 74
0
  0
LTYPE
  5
3D
330
2
100
AcDbSymbolTableRecord
100
AcDbLinetypeTableRecord
  2
DOT2
 70
0
  3
Dot (.5) . . . . . . . . . . . . . . . . . . . 
 72
65
 73
2
 40
0.254
 49
0.0
 74
0
 49
-0.254
 74
0
  0
LTYPE
  5
3E
330
2
100
AcDbSymbolTableRecord
100
AcDbLinetypeTableRecord
  2
DIVIDE
 70
0
  3
Divide __ . . __ . . __ . . __ . . __ . . __
 72
65
 73
6
 40
4.064
 49
2.54
 74
0
 49
-0.508
 74
0
 49
0.0
 74
0
 49
-0.508
 74
0
 49
0.0
 74
0
 49
-0.508
 74
0
  0
LTYPE
  5
3F
330
2
100
AcDbSymbolTableRecord
100
AcDbLinetypeTableRecord
  2
DIVIDEX2
 70
0
  3
Divide (2x) ____  . .  ____  . .  ____  . .  ____
 72
65
 73
6
 40
6.604
 49
5.08
 74
0
 49
-0.508
 74
0
 49
0.0
 74
0
 49
-0.508
 74
0
 49
0.0
 74
0
 49
-0.508
 74
0
  0
LTYPE
  5
40
330
2
100
AcDbSymbolTableRecord
100
AcDbLinetypeTableRecord
  2
DIVIDE2
 70
0
  3
Divide(.5x) _ . _ . _ . _ . _ . _ . _ . _
 72
65
 73
6
 40
2.032
 49
1.27
 74
0
 49
-0.254
 74
0
 49
0.0
 74
0
 49
-0.254
 74
0
 49
0.0
 74
0
 49
-0.254
 74
0
  0
ENDTAB
  0
TABLE
  2
LAYER
  5
1
330
0
100
AcDbSymbolTable
 70
26
  0
LAYER
  5
27
330
1
100
AcDbSymbolTableRecord
100
AcDbLayerTableRecord
  2
0
 70
0
 62
7
  6
Continuous
370
-3
390
13
347
21
  0
LAYER
  5
28
330
1
100
AcDbSymbolTableRecord
100
AcDbLayerTableRecord
  2
Defpoints
 70
0
 62
7
  6
Continuous
290
0
370
-3
390
13
347
21
  0
LAYER
  5
8A
330
1
100
AcDbSymbolTableRecord
100
AcDbLayerTableRecord
  2
S-CONCRETE
 70
0
 62
7
  6
Continuous
370
-3
390
13
347
21
1001
AcAecLayerStandard
1000

1000
Structural concrete outlines (cut)
  0
LAYER
  5
8C
330
1
100
AcDbSymbolTableRecord
100
AcDbLayerTableRecord
  2
S-CONCRETE-THIN
 70
0
 62
7
  6
Continuous
370
-3
390
13
347
21
1001
AcAecLayerStandard
1000

1000
Concrete beyond the cut plane
  0
LAYER
  5
8D
330
1
100
AcDbSymbolTableRecord
100
AcDbLayerTableRecord
  2
S-HIDDEN
 70
0
 62
8
  6
Continuous
370
-3
390
13
347
21
1001
AcAecLayerStandard
1000

1000
Concrete / features beyond, hidden
  0
LAYER
  5
8E
330
1
100
AcDbSymbolTableRecord
100
AcDbLayerTableRecord
  2
S-REBAR-MAIN
 70
0
 62
1
  6
Continuous
370
-3
390
13
347
21
1001
AcAecLayerStandard
1000

1000
Main reinforcement
  0
LAYER
  5
8F
330
1
100
AcDbSymbolTableRecord
100
AcDbLayerTableRecord
  2
S-REBAR-DIST
 70
0
 62
3
  6
Continuous
370
-3
390
13
347
21
1001
AcAecLayerStandard
1000

1000
Distribution reinforcement
  0
LAYER
  5
90
330
1
100
AcDbSymbolTableRecord
100
AcDbLayerTableRecord
  2
S-REBAR-STIRRUP
 70
0
 62
6
  6
Continuous
370
-3
390
13
347
21
1001
AcAecLayerStandard
1000

1000
Links and stirrups
  0
LAYER
  5
91
330
1
100
AcDbSymbolTableRecord
100
AcDbLayerTableRecord
  2
S-REBAR-TIE
 70
0
 62
6
  6
Continuous
370
-3
390
13
347
21
1001
AcAecLayerStandard
1000

1000
Ties, cross-ties, starters
  0
LAYER
  5
92
330
1
100
AcDbSymbolTableRecord
100
AcDbLayerTableRecord
  2
S-REBAR-SEC
 70
0
 62
4
  6
Continuous
370
-3
390
13
347
21
1001
AcAecLayerStandard
1000

1000
Trimmers, secondary and additional bars
  0
LAYER
  5
93
330
1
100
AcDbSymbolTableRecord
100
AcDbLayerTableRecord
  2
S-DIM
 70
0
 62
4
  6
Continuous
370
-3
390
13
347
21
1001
AcAecLayerStandard
1000

1000
Dimensions
  0
LAYER
  5
94
330
1
100
AcDbSymbolTableRecord
100
AcDbLayerTableRecord
  2
S-TEXT
 70
0
 62
7
  6
Continuous
370
-3
390
13
347
21
1001
AcAecLayerStandard
1000

1000
General annotation
  0
LAYER
  5
95
330
1
100
AcDbSymbolTableRecord
100
AcDbLayerTableRecord
  2
S-NOTE
 70
0
 62
7
  6
Continuous
370
-3
390
13
347
21
1001
AcAecLayerStandard
1000

1000
Note panels
  0
LAYER
  5
96
330
1
100
AcDbSymbolTableRecord
100
AcDbLayerTableRecord
  2
S-CALLOUT
 70
0
 62
2
  6
Continuous
370
-3
390
13
347
21
1001
AcAecLayerStandard
1000

1000
Bar-mark balloons and leaders
  0
LAYER
  5
97
330
1
100
AcDbSymbolTableRecord
100
AcDbLayerTableRecord
  2
S-SECTION
 70
0
 62
1
  6
Continuous
370
-3
390
13
347
21
1001
AcAecLayerStandard
1000

1000
Section and detail markers
  0
LAYER
  5
98
330
1
100
AcDbSymbolTableRecord
100
AcDbLayerTableRecord
  2
S-GRID
 70
0
 62
5
  6
Continuous
370
-3
390
13
347
21
1001
AcAecLayerStandard
1000

1000
Grid lines and bubbles
  0
LAYER
  5
99
330
1
100
AcDbSymbolTableRecord
100
AcDbLayerTableRecord
  2
S-CENTER
 70
0
 62
6
  6
Continuous
370
-3
390
13
347
21
1001
AcAecLayerStandard
1000

1000
Centrelines
  0
LAYER
  5
9A
330
1
100
AcDbSymbolTableRecord
100
AcDbLayerTableRecord
  2
S-HATCH
 70
0
 62
8
  6
Continuous
370
-3
390
13
347
21
1001
AcAecLayerStandard
1000

1000
Section hatch
  0
LAYER
  5
9B
330
1
100
AcDbSymbolTableRecord
100
AcDbLayerTableRecord
  2
S-TITLE
 70
0
 62
7
  6
Continuous
370
-3
390
13
347
21
1001
AcAecLayerStandard
1000

1000
Border, title block, view titles
  0
LAYER
  5
9C
330
1
100
AcDbSymbolTableRecord
100
AcDbLayerTableRecord
  2
S-EXISTING
 70
0
 62
8
  6
Continuous
370
-3
390
13
347
21
1001
AcAecLayerStandard
1000

1000
Soil, rock, berm, cover layers
  0
LAYER
  5
9D
330
1
100
AcDbSymbolTableRecord
100
AcDbLayerTableRecord
  2
S-REFERENCE
 70
0
 62
8
  6
Continuous
370
-3
390
13
347
21
1001
AcAecLayerStandard
1000

1000
Reference geometry, extents
  0
LAYER
  5
9E
330
1
100
AcDbSymbolTableRecord
100
AcDbLayerTableRecord
  2
S-WATERPROOF
 70
0
 62
30
  6
Continuous
370
-3
390
13
347
21
1001
AcAecLayerStandard
1000

1000
Membranes, waterstops, GWT
  0
LAYER
  5
9F
330
1
100
AcDbSymbolTableRecord
100
AcDbLayerTableRecord
  2
S-STEELWORK
 70
0
 62
2
  6
Continuous
370
-3
390
13
347
21
1001
AcAecLayerStandard
1000

1000
Cast-in frames, EMP straps, steel items
  0
LAYER
  5
A0
330
1
100
AcDbSymbolTableRecord
100
AcDbLayerTableRecord
  2
S-LEVEL
 70
0
 62
4
  6
Continuous
370
-3
390
13
347
21
1001
AcAecLayerStandard
1000

1000
Level markers
  0
LAYER
  5
A1
330
1
100
AcDbSymbolTableRecord
100
AcDbLayerTableRecord
  2
S-TABLE
 70
0
 62
7
  6
Continuous
370
-3
390
13
347
21
1001
AcAecLayerStandard
1000

1000
Tables and schedules
  0
LAYER
  5
A2
330
1
100
AcDbSymbolTableRecord
100
AcDbLayerTableRecord
  2
S-BLAST
 70
0
 62
1
  6
Continuous
370
-3
390
13
347
21
1001
AcAecLayerStandard
1000

1000
Blast arrows, findings, warnings
  0
ENDTAB
  0
TABLE
  2
STYLE
  5
5
330
0
100
AcDbSymbolTable
 70
26
  0
STYLE
  5
29
330
5
100
AcDbSymbolTableRecord
100
AcDbTextStyleTableRecord
  2
Standard
 70
0
 40
0.0
 41
1.0
 50
0.0
 71
0
 42
2.5
  3
txt
  4

  0
STYLE
  5
41
330
5
100
AcDbSymbolTableRecord
100
AcDbTextStyleTableRecord
  2
OpenSans-Light
 70
0
 40
0.0
 41
1.0
 50
0.0
 71
0
 42
2.5
  3
OpenSans-Light.ttf
  4

  0
STYLE
  5
42
330
5
100
AcDbSymbolTableRecord
100
AcDbTextStyleTableRecord
  2
OpenSans-Light-Italic
 70
0
 40
0.0
 41
1.0
 50
0.0
 71
0
 42
2.5
  3
OpenSans-LightItalic.ttf
  4

  0
STYLE
  5
43
330
5
100
AcDbSymbolTableRecord
100
AcDbTextStyleTableRecord
  2
OpenSans
 70
0
 40
0.0
 41
1.0
 50
0.0
 71
0
 42
2.5
  3
OpenSans-Regular.ttf
  4

  0
STYLE
  5
44
330
5
100
AcDbSymbolTableRecord
100
AcDbTextStyleTableRecord
  2
OpenSans-Italic
 70
0
 40
0.0
 41
1.0
 50
0.0
 71
0
 42
2.5
  3
OpenSans-Italic.ttf
  4

  0
STYLE
  5
45
330
5
100
AcDbSymbolTableRecord
100
AcDbTextStyleTableRecord
  2
OpenSans-SemiBold
 70
0
 40
0.0
 41
1.0
 50
0.0
 71
0
 42
2.5
  3
OpenSans-SemiBold.ttf
  4

  0
STYLE
  5
46
330
5
100
AcDbSymbolTableRecord
100
AcDbTextStyleTableRecord
  2
OpenSans-SemiBoldItalic
 70
0
 40
0.0
 41
1.0
 50
0.0
 71
0
 42
2.5
  3
OpenSans-SemiBoldItalic.ttf
  4

  0
STYLE
  5
47
330
5
100
AcDbSymbolTableRecord
100
AcDbTextStyleTableRecord
  2
OpenSans-Bold
 70
0
 40
0.0
 41
1.0
 50
0.0
 71
0
 42
2.5
  3
OpenSans-Bold.ttf
  4

  0
STYLE
  5
48
330
5
100
AcDbSymbolTableRecord
100
AcDbTextStyleTableRecord
  2
OpenSans-BoldItalic
 70
0
 40
0.0
 41
1.0
 50
0.0
 71
0
 42
2.5
  3
OpenSans-BoldItalic.ttf
  4

  0
STYLE
  5
49
330
5
100
AcDbSymbolTableRecord
100
AcDbTextStyleTableRecord
  2
OpenSans-ExtraBold
 70
0
 40
0.0
 41
1.0
 50
0.0
 71
0
 42
2.5
  3
OpenSans-ExtraBold.ttf
  4

  0
STYLE
  5
4A
330
5
100
AcDbSymbolTableRecord
100
AcDbTextStyleTableRecord
  2
OpenSans-ExtraBoldItalic
 70
0
 40
0.0
 41
1.0
 50
0.0
 71
0
 42
2.5
  3
OpenSans-ExtraBoldItalic.ttf
  4

  0
STYLE
  5
4B
330
5
100
AcDbSymbolTableRecord
100
AcDbTextStyleTableRecord
  2
OpenSansCondensed-Bold
 70
0
 40
0.0
 41
1.0
 50
0.0
 71
0
 42
2.5
  3
OpenSansCondensed-Bold.ttf
  4

  0
STYLE
  5
4C
330
5
100
AcDbSymbolTableRecord
100
AcDbTextStyleTableRecord
  2
OpenSansCondensed-Light
 70
0
 40
0.0
 41
1.0
 50
0.0
 71
0
 42
2.5
  3
OpenSansCondensed-Light.ttf
  4

  0
STYLE
  5
4D
330
5
100
AcDbSymbolTableRecord
100
AcDbTextStyleTableRecord
  2
OpenSansCondensed-Italic
 70
0
 40
0.0
 41
1.0
 50
0.0
 71
0
 42
2.5
  3
OpenSansCondensed-LightItalic.ttf
  4

  0
STYLE
  5
4E
330
5
100
AcDbSymbolTableRecord
100
AcDbTextStyleTableRecord
  2
LiberationSans
 70
0
 40
0.0
 41
1.0
 50
0.0
 71
0
 42
2.5
  3
LiberationSans-Regular.ttf
  4

  0
STYLE
  5
4F
330
5
100
AcDbSymbolTableRecord
100
AcDbTextStyleTableRecord
  2
LiberationSans-Bold
 70
0
 40
0.0
 41
1.0
 50
0.0
 71
0
 42
2.5
  3
LiberationSans-Bold.ttf
  4

  0
STYLE
  5
50
330
5
100
AcDbSymbolTableRecord
100
AcDbTextStyleTableRecord
  2
LiberationSans-BoldItalic
 70
0
 40
0.0
 41
1.0
 50
0.0
 71
0
 42
2.5
  3
LiberationSans-BoldItalic.ttf
  4

  0
STYLE
  5
51
330
5
100
AcDbSymbolTableRecord
100
AcDbTextStyleTableRecord
  2
LiberationSans-Italic
 70
0
 40
0.0
 41
1.0
 50
0.0
 71
0
 42
2.5
  3
LiberationSans-Italic.ttf
  4

  0
STYLE
  5
52
330
5
100
AcDbSymbolTableRecord
100
AcDbTextStyleTableRecord
  2
LiberationSerif
 70
0
 40
0.0
 41
1.0
 50
0.0
 71
0
 42
2.5
  3
LiberationSerif-Regular.ttf
  4

  0
STYLE
  5
53
330
5
100
AcDbSymbolTableRecord
100
AcDbTextStyleTableRecord
  2
LiberationSerif-Bold
 70
0
 40
0.0
 41
1.0
 50
0.0
 71
0
 42
2.5
  3
LiberationSerif-Bold.ttf
  4

  0
STYLE
  5
54
330
5
100
AcDbSymbolTableRecord
100
AcDbTextStyleTableRecord
  2
LiberationSerif-BoldItalic
 70
0
 40
0.0
 41
1.0
 50
0.0
 71
0
 42
2.5
  3
LiberationSerif-BoldItalic.ttf
  4

  0
STYLE
  5
55
330
5
100
AcDbSymbolTableRecord
100
AcDbTextStyleTableRecord
  2
LiberationSerif-Italic
 70
0
 40
0.0
 41
1.0
 50
0.0
 71
0
 42
2.5
  3
LiberationSerif-Italic.ttf
  4

  0
STYLE
  5
56
330
5
100
AcDbSymbolTableRecord
100
AcDbTextStyleTableRecord
  2
LiberationMono
 70
0
 40
0.0
 41
1.0
 50
0.0
 71
0
 42
2.5
  3
LiberationMono-Regular.ttf
  4

  0
STYLE
  5
57
330
5
100
AcDbSymbolTableRecord
100
AcDbTextStyleTableRecord
  2
LiberationMono-Bold
 70
0
 40
0.0
 41
1.0
 50
0.0
 71
0
 42
2.5
  3
LiberationMono-Bold.ttf
  4

  0
STYLE
  5
58
330
5
100
AcDbSymbolTableRecord
100
AcDbTextStyleTableRecord
  2
LiberationMono-BoldItalic
 70
0
 40
0.0
 41
1.0
 50
0.0
 71
0
 42
2.5
  3
LiberationMono-BoldItalic.ttf
  4

  0
STYLE
  5
59
330
5
100
AcDbSymbolTableRecord
100
AcDbTextStyleTableRecord
  2
LiberationMono-Italic
 70
0
 40
0.0
 41
1.0
 50
0.0
 71
0
 42
2.5
  3
LiberationMono-Italic.ttf
  4

  0
ENDTAB
  0
TABLE
  2
VIEW
  5
7
330
0
100
AcDbSymbolTable
 70
0
  0
ENDTAB
  0
TABLE
  2
UCS
  5
6
330
0
100
AcDbSymbolTable
 70
0
  0
ENDTAB
  0
TABLE
  2
APPID
  5
3
330
0
100
AcDbSymbolTable
 70
4
  0
APPID
  5
2A
330
3
100
AcDbSymbolTableRecord
100
AcDbRegAppTableRecord
  2
ACAD
 70
0
  0
APPID
  5
8B
330
3
100
AcDbSymbolTableRecord
100
AcDbRegAppTableRecord
  2
AcAecLayerStandard
 70
0
  0
APPID
  5
1F9
330
3
100
AcDbSymbolTableRecord
100
AcDbRegAppTableRecord
  2
HATCHBACKGROUNDCOLOR
 70
0
  0
APPID
  5
1FA
330
3
100
AcDbSymbolTableRecord
100
AcDbRegAppTableRecord
  2
EZDXF
 70
0
  0
ENDTAB
  0
TABLE
  2
DIMSTYLE
  5
4
330
0
100
AcDbSymbolTable
 70
14
100
AcDbDimStyleTable
  0
DIMSTYLE
105
2B
330
4
100
AcDbSymbolTableRecord
100
AcDbDimStyleTableRecord
  2
Standard
 70
0
 40
1.0
 41
2.5
 42
0.625
 43
3.75
 44
1.25
 45
0.0
 46
0.0
 47
0.0
 48
0.0
 49
2.5
140
2.5
141
2.5
142
0.0
143
0.03937007874
144
1.0
145
0.0
146
1.0
147
0.625
148
0.0
 69
0
 70
0
 71
0
 72
0
 73
0
 74
0
 75
0
 76
0
 77
1
 78
8
 79
3
170
0
171
3
172
1
173
0
174
0
175
0
176
0
177
0
178
0
179
2
271
2
272
2
273
2
274
3
275
0
276
0
277
2
278
44
279
0
280
0
281
0
282
0
283
0
284
8
285
0
286
0
288
0
289
3
290
0
371
-2
372
-2
  0
DIMSTYLE
105
73
330
4
100
AcDbSymbolTableRecord
100
AcDbDimStyleTableRecord
  2
EZDXF
 70
0
 40
1.0
 41
0.175
 42
0.125
 43
3.75
 44
0.375
 45
0.0
 46
0.0
 47
0.0
 48
0.0
 49
2.5
140
0.25
141
2.5
142
0.0
143
0.03937007874
144
100.0
145
0.0
146
0.5
147
0.1
148
0.0
 69
0
 70
0
 71
0
 72
0
 73
0
 74
0
 75
0
 76
0
 77
1
 78
12
 79
3
170
0
171
3
172
1
173
0
174
0
175
0
176
0
177
0
178
0
179
2
271
2
272
2
273
2
274
3
275
0
276
0
277
2
278
46
279
2
280
0
281
0
282
0
283
0
284
8
285
0
286
0
288
1
289
3
290
0
340
4C
342
74
371
-2
372
-2
  0
DIMSTYLE
105
7C
330
4
100
AcDbSymbolTableRecord
100
AcDbDimStyleTableRecord
  2
EZ_M_100_H25_CM
 70
0
 40
1.0
 41
0.25
 42
0.125
 43
3.75
 44
0.375
 45
0.0
 46
0.0
 47
0.0
 48
0.0
 49
2.5
140
0.25
141
2.5
142
0.125
143
0.03937007874
144
100.0
145
0.0
146
0.5
147
0.1
148
0.0
 69
0
 70
0
 71
0
 72
0
 73
0
 74
0
 75
0
 76
0
 77
1
 78
12
 79
3
170
0
171
3
172
1
173
0
174
0
175
0
176
0
177
0
178
0
179
2
271
2
272
2
273
2
274
3
275
0
276
0
277
2
278
46
279
2
280
0
281
0
282
0
283
0
284
8
285
0
286
0
288
1
289
3
290
0
340
4C
371
-2
372
-2
  0
DIMSTYLE
105
7D
330
4
100
AcDbSymbolTableRecord
100
AcDbDimStyleTableRecord
  2
EZ_M_50_H25_CM
 70
0
 40
1.0
 41
0.125
 42
0.0625
 43
3.75
 44
0.1875
 45
0.0
 46
0.0
 47
0.0
 48
0.0
 49
2.5
140
0.125
141
2.5
142
0.0625
143
0.03937007874
144
100.0
145
0.0
146
0.5
147
0.05
148
0.0
 69
0
 70
0
 71
0
 72
0
 73
0
 74
0
 75
0
 76
0
 77
1
 78
12
 79
3
170
0
171
3
172
1
173
0
174
0
175
0
176
0
177
0
178
0
179
2
271
2
272
2
273
2
274
3
275
0
276
0
277
2
278
46
279
2
280
0
281
0
282
0
283
0
284
8
285
0
286
0
288
1
289
3
290
0
340
4C
371
-2
372
-2
  0
DIMSTYLE
105
7E
330
4
100
AcDbSymbolTableRecord
100
AcDbDimStyleTableRecord
  2
EZ_M_25_H25_CM
 70
0
 40
1.0
 41
0.0625
 42
0.03125
 43
3.75
 44
0.09375
 45
0.0
 46
0.0
 47
0.0
 48
0.0
 49
2.5
140
0.0625
141
2.5
142
0.03125
143
0.03937007874
144
100.0
145
0.0
146
0.5
147
0.025
148
0.0
 69
0
 70
0
 71
0
 72
0
 73
0
 74
0
 75
0
 76
0
 77
1
 78
12
 79
3
170
0
171
3
172
1
173
0
174
0
175
0
176
0
177
0
178
0
179
2
271
2
272
2
273
2
274
3
275
0
276
0
277
2
278
46
279
2
280
0
281
0
282
0
283
0
284
8
285
0
286
0
288
1
289
3
290
0
340
4C
371
-2
372
-2
  0
DIMSTYLE
105
7F
330
4
100
AcDbSymbolTableRecord
100
AcDbDimStyleTableRecord
  2
EZ_M_20_H25_CM
 70
0
 40
1.0
 41
0.05
 42
0.025
 43
3.75
 44
0.07500000000000001
 45
0.0
 46
0.0
 47
0.0
 48
0.0
 49
2.5
140
0.05
141
2.5
142
0.025
143
0.03937007874
144
100.0
145
0.0
146
0.5
147
0.020000000000000004
148
0.0
 69
0
 70
0
 71
0
 72
0
 73
0
 74
0
 75
0
 76
0
 77
1
 78
12
 79
3
170
0
171
3
172
1
173
0
174
0
175
0
176
0
177
0
178
0
179
2
271
2
272
2
273
2
274
3
275
0
276
0
277
2
278
46
279
2
280
0
281
0
282
0
283
0
284
8
285
0
286
0
288
1
289
3
290
0
340
4C
371
-2
372
-2
  0
DIMSTYLE
105
80
330
4
100
AcDbSymbolTableRecord
100
AcDbDimStyleTableRecord
  2
EZ_M_10_H25_CM
 70
0
 40
1.0
 41
0.025
 42
0.0125
 43
3.75
 44
0.037500000000000006
 45
0.0
 46
0.0
 47
0.0
 48
0.0
 49
2.5
140
0.025
141
2.5
142
0.0125
143
0.03937007874
144
100.0
145
0.0
146
0.5
147
0.010000000000000002
148
0.0
 69
0
 70
0
 71
0
 72
0
 73
0
 74
0
 75
0
 76
0
 77
1
 78
12
 79
3
170
0
171
3
172
1
173
0
174
0
175
0
176
0
177
0
178
0
179
2
271
2
272
2
273
2
274
3
275
0
276
0
277
2
278
46
279
2
280
0
281
0
282
0
283
0
284
8
285
0
286
0
288
1
289
3
290
0
340
4C
371
-2
372
-2
  0
DIMSTYLE
105
81
330
4
100
AcDbSymbolTableRecord
100
AcDbDimStyleTableRecord
  2
EZ_M_5_H25_CM
 70
0
 40
1.0
 41
0.0125
 42
0.00625
 43
3.75
 44
0.018750000000000003
 45
0.0
 46
0.0
 47
0.0
 48
0.0
 49
2.5
140
0.0125
141
2.5
142
0.00625
143
0.03937007874
144
100.0
145
0.0
146
0.5
147
0.005000000000000001
148
0.0
 69
0
 70
0
 71
0
 72
0
 73
0
 74
0
 75
0
 76
0
 77
1
 78
12
 79
3
170
0
171
3
172
1
173
0
174
0
175
0
176
0
177
0
178
0
179
2
271
2
272
2
273
2
274
3
275
0
276
0
277
2
278
46
279
2
280
0
281
0
282
0
283
0
284
8
285
0
286
0
288
1
289
3
290
0
340
4C
371
-2
372
-2
  0
DIMSTYLE
105
82
330
4
100
AcDbSymbolTableRecord
100
AcDbDimStyleTableRecord
  2
EZ_M_1_H25_CM
 70
0
 40
1.0
 41
0.0025
 42
0.00125
 43
3.75
 44
0.00375
 45
0.0
 46
0.0
 47
0.0
 48
0.0
 49
2.5
140
0.0025
141
2.5
142
0.00125
143
0.03937007874
144
100.0
145
0.0
146
0.5
147
0.001
148
0.0
 69
0
 70
0
 71
0
 72
0
 73
0
 74
0
 75
0
 76
0
 77
1
 78
12
 79
3
170
0
171
3
172
1
173
0
174
0
175
0
176
0
177
0
178
0
179
2
271
2
272
2
273
2
274
3
275
0
276
0
277
2
278
46
279
2
280
0
281
0
282
0
283
0
284
8
285
0
286
0
288
1
289
3
290
0
340
4C
371
-2
372
-2
  0
DIMSTYLE
105
83
330
4
100
AcDbSymbolTableRecord
100
AcDbDimStyleTableRecord
  2
EZ_RADIUS
 70
0
 40
1.0
 41
0.25
 42
0.125
 43
3.75
 44
0.375
 45
0.0
 46
0.0
 47
0.0
 48
0.0
 49
2.5
140
0.25
141
0.0
142
0.0
143
0.03937007874
144
100.0
145
0.0
146
0.5
147
0.1
148
0.0
 69
0
 70
0
 71
0
 72
0
 73
0
 74
0
 75
0
 76
0
 77
1
 78
12
 79
3
170
0
171
3
172
0
173
0
174
0
175
0
176
0
177
0
178
0
179
2
271
2
272
2
273
2
274
3
275
0
276
0
277
2
278
46
279
1
280
0
281
0
282
0
283
0
284
8
285
0
286
0
288
1
289
3
290
0
340
4C
342
84
371
-2
372
-2
  0
DIMSTYLE
105
88
330
4
100
AcDbSymbolTableRecord
100
AcDbDimStyleTableRecord
  2
EZ_RADIUS_INSIDE
 70
0
 40
1.0
 41
0.25
 42
0.125
 43
3.75
 44
0.375
 45
0.0
 46
0.0
 47
0.0
 48
0.0
 49
2.5
140
0.25
141
0.0
142
0.0
143
0.03937007874
144
100.0
145
0.0
146
0.5
147
0.1
148
0.0
 69
0
 70
0
 71
0
 72
0
 73
0
 74
0
 75
0
 76
0
 77
0
 78
12
 79
3
170
0
171
3
172
0
173
0
174
1
175
0
176
0
177
0
178
0
179
2
271
2
272
2
273
2
274
3
275
0
276
0
277
2
278
46
279
0
280
0
281
0
282
0
283
0
284
8
285
0
286
0
288
1
289
0
290
0
340
4C
342
84
371
-2
372
-2
  0
DIMSTYLE
105
89
330
4
100
AcDbSymbolTableRecord
100
AcDbDimStyleTableRecord
  2
EZ_CURVED
 70
0
 40
1.0
 41
0.25
 42
0.125
 43
3.75
 44
0.375
 45
0.0
 46
0.0
 47
0.0
 48
0.0
 49
2.5
140
0.25
141
2.5
142
0.0
143
0.03937007874
144
100.0
145
0.0
146
0.5
147
0.1
148
0.0
 69
0
 70
0
 71
0
 72
0
 73
0
 74
0
 75
0
 76
0
 77
1
 78
12
 79
2
 90
2
170
0
171
3
172
1
173
0
174
0
175
0
176
0
177
0
178
0
179
2
271
2
272
2
273
2
274
3
275
0
276
0
277
2
278
46
279
2
280
0
281
0
282
0
283
0
284
8
285
0
286
0
288
1
289
3
290
0
340
4C
371
-2
372
-2
  0
DIMSTYLE
105
A3
330
4
100
AcDbSymbolTableRecord
100
AcDbDimStyleTableRecord
  2
SC-DIM
 70
0
 40
1.0
 41
1.6
 42
1.0
 43
3.75
 44
1.2
 45
0.0
 46
0.0
 47
0.0
 48
0.0
 49
2.5
140
1.8
141
2.5
142
0.0
143
0.03937007874
144
1.0
145
0.0
146
1.0
147
0.8
148
0.0
 69
0
 70
0
 71
0
 72
0
 73
0
 74
0
 75
0
 76
0
 77
1
 78
8
 79
3
170
0
171
3
172
1
173
0
174
0
175
0
176
4
177
4
178
4
179
2
271
0
272
2
273
2
274
3
275
0
276
0
277
2
278
44
279
0
280
0
281
0
282
0
283
0
284
8
285
0
286
0
288
0
289
3
290
0
342
74
371
13
372
13
  0
DIMSTYLE
105
A4
330
4
100
AcDbSymbolTableRecord
100
AcDbDimStyleTableRecord
  2
SC-DIM-S
 70
0
 40
1.0
 41
1.2
 42
1.0
 43
3.75
 44
1.2
 45
0.0
 46
0.0
 47
0.0
 48
0.0
 49
2.5
140
1.4
141
2.5
142
0.0
143
0.03937007874
144
1.0
145
0.0
146
1.0
147
0.8
148
0.0
 69
0
 70
0
 71
0
 72
0
 73
0
 74
0
 75
0
 76
0
 77
1
 78
8
 79
3
170
0
171
3
172
1
173
0
174
0
175
0
176
4
177
4
178
4
179
2
271
0
272
2
273
2
274
3
275
0
276
0
277
2
278
44
279
0
280
0
281
0
282
0
283
0
284
8
285
0
286
0
288
0
289
3
290
0
342
74
371
13
372
13
  0
ENDTAB
  0
TABLE
  2
BLOCK_RECORD
  5
9
330
0
100
AcDbSymbolTable
 70
11
  0
BLOCK_RECORD
  5
17
330
9
100
AcDbSymbolTableRecord
100
AcDbBlockTableRecord
  2
*Model_Space
340
1A
 70
0
280
1
281
0
  0
BLOCK_RECORD
  5
1B
330
9
100
AcDbSymbolTableRecord
100
AcDbBlockTableRecord
  2
*Paper_Space
340
1E
 70
0
280
1
281
0
  0
BLOCK_RECORD
  5
74
330
9
100
AcDbSymbolTableRecord
100
AcDbBlockTableRecord
  2
_ARCHTICK
340
0
 70
0
280
1
281
0
  0
BLOCK_RECORD
  5
78
330
9
100
AcDbSymbolTableRecord
100
AcDbBlockTableRecord
  2
_CLOSEDFILLED
340
0
 70
0
280
1
281
0
  0
BLOCK_RECORD
  5
84
330
9
100
AcDbSymbolTableRecord
100
AcDbBlockTableRecord
  2
_CLOSEDBLANK
340
0
 70
0
280
1
281
0
  0
BLOCK_RECORD
  5
A5
330
9
100
AcDbSymbolTableRecord
100
AcDbBlockTableRecord
  2
BARMARK
340
0
 70
0
280
1
281
0
  0
BLOCK_RECORD
  5
A9
330
9
100
AcDbSymbolTableRecord
100
AcDbBlockTableRecord
  2
SECMARK
340
0
 70
0
280
1
281
0
  0
BLOCK_RECORD
  5
AE
330
9
100
AcDbSymbolTableRecord
100
AcDbBlockTableRecord
  2
LEVELMK
340
0
 70
0
280
1
281
0
  0
BLOCK_RECORD
  5
B2
330
9
100
AcDbSymbolTableRecord
100
AcDbBlockTableRecord
  2
NORTH
340
0
 70
0
280
1
281
0
  0
BLOCK_RECORD
  5
127
330
9
100
AcDbSymbolTableRecord
100
AcDbBlockTableRecord
  2
*D1
340
0
 70
0
280
1
281
0
  0
BLOCK_RECORD
  5
183
330
9
100
AcDbSymbolTableRecord
100
AcDbBlockTableRecord
  2
*D2
340
0
 70
0
280
1
281
0
  0
ENDTAB
  0
ENDSEC
  0
SECTION
  2
BLOCKS
  0
BLOCK
  5
18
330
17
100
AcDbEntity
  8
0
100
AcDbBlockBegin
  2
*Model_Space
 70
0
 10
0.0
 20
0.0
 30
0.0
  3
*Model_Space
  1

  0
ENDBLK
  5
19
330
17
100
AcDbEntity
  8
0
100
AcDbBlockEnd
  0
BLOCK
  5
1C
330
1B
100
AcDbEntity
  8
0
100
AcDbBlockBegin
  2
*Paper_Space
 70
0
 10
0.0
 20
0.0
 30
0.0
  3
*Paper_Space
  1

  0
ENDBLK
  5
1D
330
1B
100
AcDbEntity
  8
0
100
AcDbBlockEnd
  0
BLOCK
  5
75
330
74
100
AcDbEntity
  8
0
100
AcDbBlockBegin
  2
_ARCHTICK
 70
0
 10
0.0
 20
0.0
 30
0.0
  3
_ARCHTICK
  1

  0
LWPOLYLINE
  5
77
330
74
100
AcDbEntity
  8
0
  6
BYBLOCK
 62
0
100
AcDbPolyline
 90
2
 70
0
 43
0.15
 10
-0.5
 20
-0.5
 10
0.5
 20
0.5
  0
ENDBLK
  5
76
330
74
100
AcDbEntity
  8
0
100
AcDbBlockEnd
  0
BLOCK
  5
79
330
78
100
AcDbEntity
  8
0
100
AcDbBlockBegin
  2
_CLOSEDFILLED
 70
0
 10
0.0
 20
0.0
 30
0.0
  3
_CLOSEDFILLED
  1

  0
SOLID
  5
7B
330
78
100
AcDbEntity
  8
0
  6
BYBLOCK
 62
0
100
AcDbTrace
 10
-1.0
 20
0.16439898372402537
 30
0.0
 11
0.0
 21
0.0
 31
0.0
 12
-1.0
 22
-0.16439898372402537
 32
0.0
 13
-1.0
 23
-0.16439898372402537
 33
0.0
  0
ENDBLK
  5
7A
330
78
100
AcDbEntity
  8
0
100
AcDbBlockEnd
  0
BLOCK
  5
85
330
84
100
AcDbEntity
  8
0
100
AcDbBlockBegin
  2
_CLOSEDBLANK
 70
0
 10
0.0
 20
0.0
 30
0.0
  3
_CLOSEDBLANK
  1

  0
LWPOLYLINE
  5
87
330
84
100
AcDbEntity
  8
0
  6
BYBLOCK
 62
0
100
AcDbPolyline
 90
3
 70
1
 10
-1.0
 20
0.16439898372402537
 10
0.0
 20
0.0
 10
-1.0
 20
-0.16439898372402537
  0
ENDBLK
  5
86
330
84
100
AcDbEntity
  8
0
100
AcDbBlockEnd
  0
BLOCK
  5
A6
330
A5
100
AcDbEntity
  8
0
100
AcDbBlockBegin
  2
BARMARK
 70
0
 10
0.0
 20
0.0
 30
0.0
  3
BARMARK
  1

  0
CIRCLE
  5
A8
330
A5
100
AcDbEntity
  8
S-CALLOUT
100
AcDbCircle
 10
0.0
 20
0.0
 30
0.0
 40
3.2
  0
ENDBLK
  5
A7
330
A5
100
AcDbEntity
  8
0
100
AcDbBlockEnd
  0
BLOCK
  5
AA
330
A9
100
AcDbEntity
  8
0
100
AcDbBlockBegin
  2
SECMARK
 70
0
 10
0.0
 20
0.0
 30
0.0
  3
SECMARK
  1

  0
CIRCLE
  5
AC
330
A9
100
AcDbEntity
  8
S-SECTION
100
AcDbCircle
 10
0.0
 20
0.0
 30
0.0
 40
4.0
  0
LINE
  5
AD
330
A9
100
AcDbEntity
  8
S-SECTION
100
AcDbLine
 10
-4.0
 20
0.0
 30
0.0
 11
4.0
 21
0.0
 31
0.0
  0
ENDBLK
  5
AB
330
A9
100
AcDbEntity
  8
0
100
AcDbBlockEnd
  0
BLOCK
  5
AF
330
AE
100
AcDbEntity
  8
0
100
AcDbBlockBegin
  2
LEVELMK
 70
0
 10
0.0
 20
0.0
 30
0.0
  3
LEVELMK
  1

  0
LWPOLYLINE
  5
B1
330
AE
100
AcDbEntity
  8
S-LEVEL
100
AcDbPolyline
 90
4
 70
1
 10
0.0
 20
0.0
 10
-2.0
 20
3.0
 10
2.0
 20
3.0
 10
0.0
 20
0.0
  0
ENDBLK
  5
B0
330
AE
100
AcDbEntity
  8
0
100
AcDbBlockEnd
  0
BLOCK
  5
B3
330
B2
100
AcDbEntity
  8
0
100
AcDbBlockBegin
  2
NORTH
 70
0
 10
0.0
 20
0.0
 30
0.0
  3
NORTH
  1

  0
LWPOLYLINE
  5
B5
330
B2
100
AcDbEntity
  8
S-TITLE
100
AcDbPolyline
 90
5
 70
1
 10
0.0
 20
10.0
 10
-3.2
 20
-6.0
 10
0.0
 20
-2.4
 10
3.2
 20
-6.0
 10
0.0
 20
10.0
  0
CIRCLE
  5
B6
330
B2
100
AcDbEntity
  8
S-TITLE
100
AcDbCircle
 10
0.0
 20
0.0
 30
0.0
 40
12.0
  0
ENDBLK
  5
B4
330
B2
100
AcDbEntity
  8
0
100
AcDbBlockEnd
  0
BLOCK
  5
128
330
127
100
AcDbEntity
  8
0
100
AcDbBlockBegin
  2
*D1
 70
1
 10
0.0
 20
0.0
 30
0.0
  3
*D1
  1

  0
LINE
  5
12A
330
127
100
AcDbEntity
  8
0
 62
4
370
13
100
AcDbLine
 10
221.0
 20
300.0
 30
0.0
 11
241.2
 21
300.0
 31
0.0
  0
LINE
  5
12B
330
127
100
AcDbEntity
  8
0
 62
4
370
13
100
AcDbLine
 10
221.0
 20
330.0
 30
0.0
 11
241.2
 21
330.0
 31
0.0
  0
INSERT
  5
12C
330
127
100
AcDbEntity
  8
S-DIM
 62
4
100
AcDbBlockReference
  2
_ARCHTICK
 10
240.0
 20
300.0
 30
0.0
 41
1.6
 42
1.6
 50
270.0
  0
INSERT
  5
12E
330
127
100
AcDbEntity
  8
S-DIM
 62
4
100
AcDbBlockReference
  2
_ARCHTICK
 10
240.0
 20
330.0
 30
0.0
 41
1.6
 42
1.6
 50
90.0
  0
LINE
  5
130
330
127
100
AcDbEntity
  8
0
 62
4
370
13
100
AcDbLine
 10
240.0
 20
300.0
 30
0.0
 11
240.0
 21
330.0
 31
0.0
  0
MTEXT
  5
131
330
127
100
AcDbEntity
  8
S-DIM
 62
4
100
AcDbMText
 10
238.3
 20
315.0
 30
0.0
 40
1.8
 71
5
  1
600
  7
OpenSansCondensed-Light
 50
90.0
  0
POINT
  5
132
330
127
100
AcDbEntity
  8
Defpoints
100
AcDbPoint
 10
240.0
 20
300.0
 30
0.0
  0
POINT
  5
133
330
127
100
AcDbEntity
  8
Defpoints
100
AcDbPoint
 10
220.0
 20
300.0
 30
0.0
  0
POINT
  5
134
330
127
100
AcDbEntity
  8
Defpoints
100
AcDbPoint
 10
220.0
 20
330.0
 30
0.0
  0
ENDBLK
  5
129
330
127
100
AcDbEntity
  8
0
100
AcDbBlockEnd
  0
BLOCK
  5
184
330
183
100
AcDbEntity
  8
0
100
AcDbBlockBegin
  2
*D2
 70
1
 10
0.0
 20
0.0
 30
0.0
  3
*D2
  1

  0
LINE
  5
186
330
183
100
AcDbEntity
  8
0
 62
4
370
13
100
AcDbLine
 10
399.0
 20
340.0
 30
0.0
 11
378.8
 21
340.0
 31
0.0
  0
LINE
  5
187
330
183
100
AcDbEntity
  8
0
 62
4
370
13
100
AcDbLine
 10
399.0
 20
385.0
 30
0.0
 11
378.8
 21
385.0
 31
0.0
  0
INSERT
  5
188
330
183
100
AcDbEntity
  8
S-DIM
 62
4
100
AcDbBlockReference
  2
_ARCHTICK
 10
380.0
 20
340.0
 30
0.0
 41
1.6
 42
1.6
 50
270.0
  0
INSERT
  5
18A
330
183
100
AcDbEntity
  8
S-DIM
 62
4
100
AcDbBlockReference
  2
_ARCHTICK
 10
380.0
 20
385.0
 30
0.0
 41
1.6
 42
1.6
 50
90.0
  0
LINE
  5
18C
330
183
100
AcDbEntity
  8
0
 62
4
370
13
100
AcDbLine
 10
380.0
 20
340.0
 30
0.0
 11
380.0
 21
385.0
 31
0.0
  0
MTEXT
  5
18D
330
183
100
AcDbEntity
  8
S-DIM
 62
4
100
AcDbMText
 10
378.3
 20
362.5
 30
0.0
 40
1.8
 71
5
  1
900
  7
OpenSansCondensed-Light
 50
90.0
  0
POINT
  5
18E
330
183
100
AcDbEntity
  8
Defpoints
100
AcDbPoint
 10
380.0
 20
340.0
 30
0.0
  0
POINT
  5
18F
330
183
100
AcDbEntity
  8
Defpoints
100
AcDbPoint
 10
400.0
 20
340.0
 30
0.0
  0
POINT
  5
190
330
183
100
AcDbEntity
  8
Defpoints
100
AcDbPoint
 10
400.0
 20
385.0
 30
0.0
  0
ENDBLK
  5
185
330
183
100
AcDbEntity
  8
0
100
AcDbBlockEnd
  0
ENDSEC
  0
SECTION
  2
ENTITIES
  0
LWPOLYLINE
  5
B7
330
17
100
AcDbEntity
  8
S-TITLE
100
AcDbPolyline
 90
4
 70
1
 10
0.0
 20
0.0
 10
841.0
 20
0.0
 10
841.0
 20
594.0
 10
0.0
 20
594.0
  0
LWPOLYLINE
  5
B8
330
17
100
AcDbEntity
  8
S-TITLE
100
AcDbPolyline
 90
4
 70
1
 10
10.0
 20
10.0
 10
831.0
 20
10.0
 10
831.0
 20
584.0
 10
10.0
 20
584.0
  0
TEXT
  5
B9
330
17
100
AcDbEntity
  8
S-TITLE
100
AcDbText
 10
12.0
 20
576.5
 30
0.0
 40
5.0
  1
STRUCTURAL CAD - REINFORCEMENT PACKAGE
  7
OpenSans
 11
12.0
 21
576.5
 31
0.0
100
AcDbText
  0
TEXT
  5
BA
330
17
100
AcDbEntity
  8
S-TITLE
100
AcDbText
 10
12.0
 20
569.5
 30
0.0
 40
2.4
  1
R-805   WATERPROOFING / STRUCTURAL INTERFACE
  7
OpenSans
 11
12.0
 21
569.5
 31
0.0
100
AcDbText
  0
LINE
  5
BB
330
17
100
AcDbEntity
  8
S-TITLE
100
AcDbLine
 10
10.0
 20
566.5
 30
0.0
 11
831.0
 21
566.5
 31
0.0
  0
TEXT
  5
BC
330
17
100
AcDbEntity
  8
S-BLAST
100
AcDbText
 10
829.0
 20
577.0
 30
0.0
 40
2.0
  1
SENTRY POST EXCLUDED FROM THIS PACKAGE
  7
OpenSans
 72
2
 11
829.0
 21
577.0
 31
0.0
100
AcDbText
  0
TEXT
  5
BD
330
17
100
AcDbEntity
  8
S-BLAST
100
AcDbText
 10
829.0
 20
570.5
 30
0.0
 40
1.4
  1
ALL DESIGN ACTIONS ARE MANUAL CALCULATION - NOT DIRECT STAAD OUTPUT
  7
OpenSans
 72
2
 11
829.0
 21
570.5
 31
0.0
100
AcDbText
  0
TEXT
  5
BE
330
17
100
AcDbEntity
  8
S-BLAST
100
AcDbText
 10
12.0
 20
561.5
 30
0.0
 40
1.4
  1
OPEN ITEMS ON THIS SHEET:  A2 GWT ASSUMED
  7
OpenSans
 11
12.0
 21
561.5
 31
0.0
100
AcDbText
  0
LWPOLYLINE
  5
BF
330
17
100
AcDbEntity
  8
S-CONCRETE-THIN
100
AcDbPolyline
 90
4
 70
1
 10
40.0
 20
295.0
 10
220.0
 20
295.0
 10
220.0
 20
300.0
 10
40.0
 20
300.0
  0
HATCH
  5
C0
330
17
100
AcDbEntity
  8
S-HATCH
 62
7
100
AcDbHatch
 10
0.0
 20
0.0
 30
0.0
210
0.0
220
0.0
230
1.0
  2
ANSI31
 70
0
 71
0
 91
1
 92
3
 72
0
 73
1
 93
4
 10
40.0
 20
295.0
 10
220.0
 20
295.0
 10
220.0
 20
300.0
 10
40.0
 20
300.0
 97
0
 75
1
 76
1
 52
45.0
 41
1.0
 77
0
 78
1
 53
90.0
 43
0.0
 44
0.0
 45
-3.175
 46
0.0
 79
0
 98
0
  0
LWPOLYLINE
  5
C1
330
17
100
AcDbEntity
  8
S-CONCRETE
100
AcDbPolyline
 90
4
 70
1
 10
70.0
 20
300.0
 10
220.0
 20
300.0
 10
220.0
 20
330.0
 10
70.0
 20
330.0
  0
HATCH
  5
C2
330
17
100
AcDbEntity
  8
S-HATCH
 62
7
100
AcDbHatch
 10
0.0
 20
0.0
 30
0.0
210
0.0
220
0.0
230
1.0
  2
ANSI31
 70
0
 71
0
 91
1
 92
3
 72
0
 73
1
 93
4
 10
70.0
 20
300.0
 10
220.0
 20
300.0
 10
220.0
 20
330.0
 10
70.0
 20
330.0
 97
0
 75
1
 76
1
 52
0.0
 41
1.6
 77
0
 78
1
 53
45.0
 43
0.0
 44
0.0
 45
-3.5921024485
 46
3.5921024485
 79
0
 98
0
  0
LWPOLYLINE
  5
C3
330
17
100
AcDbEntity
  8
S-CONCRETE
100
AcDbPolyline
 90
4
 70
1
 10
70.0
 20
330.0
 10
100.0
 20
330.0
 10
100.0
 20
430.0
 10
70.0
 20
430.0
  0
HATCH
  5
C4
330
17
100
AcDbEntity
  8
S-HATCH
 62
7
100
AcDbHatch
 10
0.0
 20
0.0
 30
0.0
210
0.0
220
0.0
230
1.0
  2
ANSI31
 70
0
 71
0
 91
1
 92
3
 72
0
 73
1
 93
4
 10
70.0
 20
330.0
 10
100.0
 20
330.0
 10
100.0
 20
430.0
 10
70.0
 20
430.0
 97
0
 75
1
 76
1
 52
0.0
 41
1.6
 77
0
 78
1
 53
45.0
 43
0.0
 44
0.0
 45
-3.5921024485
 46
3.5921024485
 79
0
 98
0
  0
LINE
  5
C5
330
17
100
AcDbEntity
  8
S-WATERPROOF
100
AcDbLine
 10
40.0
 20
298.5
 30
0.0
 11
220.0
 21
298.5
 31
0.0
  0
LWPOLYLINE
  5
C6
330
17
100
AcDbEntity
  8
S-WATERPROOF
100
AcDbPolyline
 90
3
 70
0
 10
70.0
 20
298.5
 10
65.0
 20
298.5
 10
65.0
 20
430.0
  0
TEXT
  5
C7
330
17
100
AcDbEntity
  8
S-WATERPROOF
100
AcDbText
 10
40.0
 20
265.0
 30
0.0
 40
1.4
  1
TANKING MEMBRANE ON THE BLINDING, TURNED UP THE EXTERNAL FACE
  7
OpenSans
 11
40.0
 21
265.0
 31
0.0
100
AcDbText
  0
TEXT
  5
C8
330
17
100
AcDbEntity
  8
S-TEXT
100
AcDbText
 10
130.0
 20
282.5
 30
0.0
 40
1.4
  1
100 M15 BLINDING
  7
OpenSans
 11
130.0
 21
282.5
 31
0.0
100
AcDbText
  0
LWPOLYLINE
  5
C9
330
17
100
AcDbEntity
  8
S-BLAST
100
AcDbPolyline
 90
2
 70
0
 10
85.0
 20
255.0
 10
85.0
 20
290.0
  0
LWPOLYLINE
  5
CA
330
17
100
AcDbEntity
  8
S-BLAST
100
AcDbPolyline
 90
3
 70
0
 10
80.5
 20
277.5
 10
85.0
 20
290.0
 10
89.5
 20
277.5
  0
LWPOLYLINE
  5
CB
330
17
100
AcDbEntity
  8
S-BLAST
100
AcDbPolyline
 90
2
 70
0
 10
110.0
 20
255.0
 10
110.0
 20
290.0
  0
LWPOLYLINE
  5
CC
330
17
100
AcDbEntity
  8
S-BLAST
100
AcDbPolyline
 90
3
 70
0
 10
105.5
 20
277.5
 10
110.0
 20
290.0
 10
114.5
 20
277.5
  0
LWPOLYLINE
  5
CD
330
17
100
AcDbEntity
  8
S-BLAST
100
AcDbPolyline
 90
2
 70
0
 10
135.0
 20
255.0
 10
135.0
 20
290.0
  0
LWPOLYLINE
  5
CE
330
17
100
AcDbEntity
  8
S-BLAST
100
AcDbPolyline
 90
3
 70
0
 10
130.5
 20
277.5
 10
135.0
 20
290.0
 10
139.5
 20
277.5
  0
LWPOLYLINE
  5
CF
330
17
100
AcDbEntity
  8
S-BLAST
100
AcDbPolyline
 90
2
 70
0
 10
160.0
 20
255.0
 10
160.0
 20
290.0
  0
LWPOLYLINE
  5
D0
330
17
100
AcDbEntity
  8
S-BLAST
100
AcDbPolyline
 90
3
 70
0
 10
155.5
 20
277.5
 10
160.0
 20
290.0
 10
164.5
 20
277.5
  0
LWPOLYLINE
  5
D1
330
17
100
AcDbEntity
  8
S-BLAST
100
AcDbPolyline
 90
2
 70
0
 10
185.0
 20
255.0
 10
185.0
 20
290.0
  0
LWPOLYLINE
  5
D2
330
17
100
AcDbEntity
  8
S-BLAST
100
AcDbPolyline
 90
3
 70
0
 10
180.5
 20
277.5
 10
185.0
 20
290.0
 10
189.5
 20
277.5
  0
LWPOLYLINE
  5
D3
330
17
100
AcDbEntity
  8
S-BLAST
100
AcDbPolyline
 90
2
 70
0
 10
210.0
 20
255.0
 10
210.0
 20
290.0
  0
LWPOLYLINE
  5
D4
330
17
100
AcDbEntity
  8
S-BLAST
100
AcDbPolyline
 90
3
 70
0
 10
205.5
 20
277.5
 10
210.0
 20
290.0
 10
214.5
 20
277.5
  0
TEXT
  5
D5
330
17
100
AcDbEntity
  8
S-BLAST
100
AcDbText
 10
85.0
 20
240.0
 30
0.0
 40
1.4
  1
HYDROSTATIC UPLIFT 46.11 kPa  =  6289 kN OVER 136.4 m2
  7
OpenSans
 11
85.0
 21
240.0
 31
0.0
100
AcDbText
  0
LINE
  5
D6
330
17
100
AcDbEntity
  8
S-WATERPROOF
100
AcDbLine
 10
30.0
 20
422.5
 30
0.0
 11
230.0
 21
422.5
 31
0.0
  0
TEXT
  5
D7
330
17
100
AcDbEntity
  8
S-WATERPROOF
100
AcDbText
 10
140.0
 20
426.0
 30
0.0
 40
1.4
  1
DESIGN GWT (-)2.000  [ASSUMED - A2]
  7
OpenSans
 11
140.0
 21
426.0
 31
0.0
100
AcDbText
  0
CIRCLE
  5
D8
330
17
100
AcDbEntity
  8
S-REBAR-MAIN
100
AcDbCircle
 10
77.5
 20
304.15
 30
0.0
 40
0.6
  0
HATCH
  5
D9
330
17
100
AcDbEntity
  8
S-REBAR-MAIN
 62
1
100
AcDbHatch
 10
0.0
 20
0.0
 30
0.0
210
0.0
220
0.0
230
1.0
  2
SOLID
 70
1
 71
0
 91
1
 92
3
 72
0
 73
1
 93
16
 10
78.1
 20
304.15
 10
78.05432771950677
 20
304.379610059419
 10
77.92426406871193
 20
304.5742640687119
 10
77.72961005941906
 20
304.70432771950675
 10
77.5
 20
304.75
 10
77.27038994058094
 20
304.70432771950675
 10
77.07573593128807
 20
304.5742640687119
 10
76.94567228049323
 20
304.379610059419
 10
76.9
 20
304.15
 10
76.94567228049323
 20
303.92038994058095
 10
77.07573593128807
 20
303.72573593128806
 10
77.27038994058094
 20
303.5956722804932
 10
77.5
 20
303.54999999999995
 10
77.72961005941906
 20
303.5956722804932
 10
77.92426406871193
 20
303.72573593128806
 10
78.05432771950677
 20
303.92038994058095
 97
0
 75
0
 76
1
 98
0
  0
CIRCLE
  5
DA
330
17
100
AcDbEntity
  8
S-REBAR-MAIN
100
AcDbCircle
 10
85.0
 20
304.15
 30
0.0
 40
0.6
  0
HATCH
  5
DB
330
17
100
AcDbEntity
  8
S-REBAR-MAIN
 62
1
100
AcDbHatch
 10
0.0
 20
0.0
 30
0.0
210
0.0
220
0.0
230
1.0
  2
SOLID
 70
1
 71
0
 91
1
 92
3
 72
0
 73
1
 93
16
 10
85.6
 20
304.15
 10
85.55432771950677
 20
304.379610059419
 10
85.42426406871193
 20
304.5742640687119
 10
85.22961005941906
 20
304.70432771950675
 10
85.0
 20
304.75
 10
84.77038994058094
 20
304.70432771950675
 10
84.57573593128807
 20
304.5742640687119
 10
84.44567228049323
 20
304.379610059419
 10
84.4
 20
304.15
 10
84.44567228049323
 20
303.92038994058095
 10
84.57573593128807
 20
303.72573593128806
 10
84.77038994058094
 20
303.5956722804932
 10
85.0
 20
303.54999999999995
 10
85.22961005941906
 20
303.5956722804932
 10
85.42426406871193
 20
303.72573593128806
 10
85.55432771950677
 20
303.92038994058095
 97
0
 75
0
 76
1
 98
0
  0
CIRCLE
  5
DC
330
17
100
AcDbEntity
  8
S-REBAR-MAIN
100
AcDbCircle
 10
92.5
 20
304.15
 30
0.0
 40
0.6
  0
HATCH
  5
DD
330
17
100
AcDbEntity
  8
S-REBAR-MAIN
 62
1
100
AcDbHatch
 10
0.0
 20
0.0
 30
0.0
210
0.0
220
0.0
230
1.0
  2
SOLID
 70
1
 71
0
 91
1
 92
3
 72
0
 73
1
 93
16
 10
93.1
 20
304.15
 10
93.05432771950677
 20
304.379610059419
 10
92.92426406871193
 20
304.5742640687119
 10
92.72961005941906
 20
304.70432771950675
 10
92.5
 20
304.75
 10
92.27038994058094
 20
304.70432771950675
 10
92.07573593128807
 20
304.5742640687119
 10
91.94567228049323
 20
304.379610059419
 10
91.9
 20
304.15
 10
91.94567228049323
 20
303.92038994058095
 10
92.07573593128807
 20
303.72573593128806
 10
92.27038994058094
 20
303.5956722804932
 10
92.5
 20
303.54999999999995
 10
92.72961005941906
 20
303.5956722804932
 10
92.92426406871193
 20
303.72573593128806
 10
93.05432771950677
 20
303.92038994058095
 97
0
 75
0
 76
1
 98
0
  0
CIRCLE
  5
DE
330
17
100
AcDbEntity
  8
S-REBAR-MAIN
100
AcDbCircle
 10
100.0
 20
304.15
 30
0.0
 40
0.6
  0
HATCH
  5
DF
330
17
100
AcDbEntity
  8
S-REBAR-MAIN
 62
1
100
AcDbHatch
 10
0.0
 20
0.0
 30
0.0
210
0.0
220
0.0
230
1.0
  2
SOLID
 70
1
 71
0
 91
1
 92
3
 72
0
 73
1
 93
16
 10
100.6
 20
304.15
 10
100.55432771950677
 20
304.379610059419
 10
100.42426406871193
 20
304.5742640687119
 10
100.22961005941906
 20
304.70432771950675
 10
100.0
 20
304.75
 10
99.77038994058094
 20
304.70432771950675
 10
99.57573593128807
 20
304.5742640687119
 10
99.44567228049323
 20
304.379610059419
 10
99.4
 20
304.15
 10
99.44567228049323
 20
303.92038994058095
 10
99.57573593128807
 20
303.72573593128806
 10
99.77038994058094
 20
303.5956722804932
 10
100.0
 20
303.54999999999995
 10
100.22961005941906
 20
303.5956722804932
 10
100.42426406871193
 20
303.72573593128806
 10
100.55432771950677
 20
303.92038994058095
 97
0
 75
0
 76
1
 98
0
  0
CIRCLE
  5
E0
330
17
100
AcDbEntity
  8
S-REBAR-MAIN
100
AcDbCircle
 10
107.5
 20
304.15
 30
0.0
 40
0.6
  0
HATCH
  5
E1
330
17
100
AcDbEntity
  8
S-REBAR-MAIN
 62
1
100
AcDbHatch
 10
0.0
 20
0.0
 30
0.0
210
0.0
220
0.0
230
1.0
  2
SOLID
 70
1
 71
0
 91
1
 92
3
 72
0
 73
1
 93
16
 10
108.1
 20
304.15
 10
108.05432771950677
 20
304.379610059419
 10
107.92426406871193
 20
304.5742640687119
 10
107.72961005941906
 20
304.70432771950675
 10
107.5
 20
304.75
 10
107.27038994058094
 20
304.70432771950675
 10
107.07573593128807
 20
304.5742640687119
 10
106.94567228049323
 20
304.379610059419
 10
106.9
 20
304.15
 10
106.94567228049323
 20
303.92038994058095
 10
107.07573593128807
 20
303.72573593128806
 10
107.27038994058094
 20
303.5956722804932
 10
107.5
 20
303.54999999999995
 10
107.72961005941906
 20
303.5956722804932
 10
107.92426406871193
 20
303.72573593128806
 10
108.05432771950677
 20
303.92038994058095
 97
0
 75
0
 76
1
 98
0
  0
CIRCLE
  5
E2
330
17
100
AcDbEntity
  8
S-REBAR-MAIN
100
AcDbCircle
 10
115.0
 20
304.15
 30
0.0
 40
0.6
  0
HATCH
  5
E3
330
17
100
AcDbEntity
  8
S-REBAR-MAIN
 62
1
100
AcDbHatch
 10
0.0
 20
0.0
 30
0.0
210
0.0
220
0.0
230
1.0
  2
SOLID
 70
1
 71
0
 91
1
 92
3
 72
0
 73
1
 93
16
 10
115.6
 20
304.15
 10
115.55432771950677
 20
304.379610059419
 10
115.42426406871193
 20
304.5742640687119
 10
115.22961005941906
 20
304.70432771950675
 10
115.0
 20
304.75
 10
114.77038994058094
 20
304.70432771950675
 10
114.57573593128807
 20
304.5742640687119
 10
114.44567228049323
 20
304.379610059419
 10
114.4
 20
304.15
 10
114.44567228049323
 20
303.92038994058095
 10
114.57573593128807
 20
303.72573593128806
 10
114.77038994058094
 20
303.5956722804932
 10
115.0
 20
303.54999999999995
 10
115.22961005941906
 20
303.5956722804932
 10
115.42426406871193
 20
303.72573593128806
 10
115.55432771950677
 20
303.92038994058095
 97
0
 75
0
 76
1
 98
0
  0
CIRCLE
  5
E4
330
17
100
AcDbEntity
  8
S-REBAR-MAIN
100
AcDbCircle
 10
122.5
 20
304.15
 30
0.0
 40
0.6
  0
HATCH
  5
E5
330
17
100
AcDbEntity
  8
S-REBAR-MAIN
 62
1
100
AcDbHatch
 10
0.0
 20
0.0
 30
0.0
210
0.0
220
0.0
230
1.0
  2
SOLID
 70
1
 71
0
 91
1
 92
3
 72
0
 73
1
 93
16
 10
123.1
 20
304.15
 10
123.05432771950677
 20
304.379610059419
 10
122.92426406871193
 20
304.5742640687119
 10
122.72961005941906
 20
304.70432771950675
 10
122.5
 20
304.75
 10
122.27038994058094
 20
304.70432771950675
 10
122.07573593128807
 20
304.5742640687119
 10
121.94567228049323
 20
304.379610059419
 10
121.9
 20
304.15
 10
121.94567228049323
 20
303.92038994058095
 10
122.07573593128807
 20
303.72573593128806
 10
122.27038994058094
 20
303.5956722804932
 10
122.5
 20
303.54999999999995
 10
122.72961005941906
 20
303.5956722804932
 10
122.92426406871193
 20
303.72573593128806
 10
123.05432771950677
 20
303.92038994058095
 97
0
 75
0
 76
1
 98
0
  0
CIRCLE
  5
E6
330
17
100
AcDbEntity
  8
S-REBAR-MAIN
100
AcDbCircle
 10
130.0
 20
304.15
 30
0.0
 40
0.6
  0
HATCH
  5
E7
330
17
100
AcDbEntity
  8
S-REBAR-MAIN
 62
1
100
AcDbHatch
 10
0.0
 20
0.0
 30
0.0
210
0.0
220
0.0
230
1.0
  2
SOLID
 70
1
 71
0
 91
1
 92
3
 72
0
 73
1
 93
16
 10
130.6
 20
304.15
 10
130.55432771950677
 20
304.379610059419
 10
130.42426406871192
 20
304.5742640687119
 10
130.22961005941906
 20
304.70432771950675
 10
130.0
 20
304.75
 10
129.77038994058094
 20
304.70432771950675
 10
129.57573593128808
 20
304.5742640687119
 10
129.44567228049323
 20
304.379610059419
 10
129.4
 20
304.15
 10
129.44567228049323
 20
303.92038994058095
 10
129.57573593128808
 20
303.72573593128806
 10
129.77038994058094
 20
303.5956722804932
 10
130.0
 20
303.54999999999995
 10
130.22961005941906
 20
303.5956722804932
 10
130.42426406871192
 20
303.72573593128806
 10
130.55432771950677
 20
303.92038994058095
 97
0
 75
0
 76
1
 98
0
  0
CIRCLE
  5
E8
330
17
100
AcDbEntity
  8
S-REBAR-MAIN
100
AcDbCircle
 10
137.5
 20
304.15
 30
0.0
 40
0.6
  0
HATCH
  5
E9
330
17
100
AcDbEntity
  8
S-REBAR-MAIN
 62
1
100
AcDbHatch
 10
0.0
 20
0.0
 30
0.0
210
0.0
220
0.0
230
1.0
  2
SOLID
 70
1
 71
0
 91
1
 92
3
 72
0
 73
1
 93
16
 10
138.1
 20
304.15
 10
138.05432771950677
 20
304.379610059419
 10
137.92426406871192
 20
304.5742640687119
 10
137.72961005941906
 20
304.70432771950675
 10
137.5
 20
304.75
 10
137.27038994058094
 20
304.70432771950675
 10
137.07573593128808
 20
304.5742640687119
 10
136.94567228049323
 20
304.379610059419
 10
136.9
 20
304.15
 10
136.94567228049323
 20
303.92038994058095
 10
137.07573593128808
 20
303.72573593128806
 10
137.27038994058094
 20
303.5956722804932
 10
137.5
 20
303.54999999999995
 10
137.72961005941906
 20
303.5956722804932
 10
137.92426406871192
 20
303.72573593128806
 10
138.05432771950677
 20
303.92038994058095
 97
0
 75
0
 76
1
 98
0
  0
CIRCLE
  5
EA
330
17
100
AcDbEntity
  8
S-REBAR-MAIN
100
AcDbCircle
 10
145.0
 20
304.15
 30
0.0
 40
0.6
  0
HATCH
  5
EB
330
17
100
AcDbEntity
  8
S-REBAR-MAIN
 62
1
100
AcDbHatch
 10
0.0
 20
0.0
 30
0.0
210
0.0
220
0.0
230
1.0
  2
SOLID
 70
1
 71
0
 91
1
 92
3
 72
0
 73
1
 93
16
 10
145.6
 20
304.15
 10
145.55432771950677
 20
304.379610059419
 10
145.42426406871192
 20
304.5742640687119
 10
145.22961005941906
 20
304.70432771950675
 10
145.0
 20
304.75
 10
144.77038994058094
 20
304.70432771950675
 10
144.57573593128808
 20
304.5742640687119
 10
144.44567228049323
 20
304.379610059419
 10
144.4
 20
304.15
 10
144.44567228049323
 20
303.92038994058095
 10
144.57573593128808
 20
303.72573593128806
 10
144.77038994058094
 20
303.5956722804932
 10
145.0
 20
303.54999999999995
 10
145.22961005941906
 20
303.5956722804932
 10
145.42426406871192
 20
303.72573593128806
 10
145.55432771950677
 20
303.92038994058095
 97
0
 75
0
 76
1
 98
0
  0
CIRCLE
  5
EC
330
17
100
AcDbEntity
  8
S-REBAR-MAIN
100
AcDbCircle
 10
152.5
 20
304.15
 30
0.0
 40
0.6
  0
HATCH
  5
ED
330
17
100
AcDbEntity
  8
S-REBAR-MAIN
 62
1
100
AcDbHatch
 10
0.0
 20
0.0
 30
0.0
210
0.0
220
0.0
230
1.0
  2
SOLID
 70
1
 71
0
 91
1
 92
3
 72
0
 73
1
 93
16
 10
153.1
 20
304.15
 10
153.05432771950677
 20
304.379610059419
 10
152.92426406871192
 20
304.5742640687119
 10
152.72961005941906
 20
304.70432771950675
 10
152.5
 20
304.75
 10
152.27038994058094
 20
304.70432771950675
 10
152.07573593128808
 20
304.5742640687119
 10
151.94567228049323
 20
304.379610059419
 10
151.9
 20
304.15
 10
151.94567228049323
 20
303.92038994058095
 10
152.07573593128808
 20
303.72573593128806
 10
152.27038994058094
 20
303.5956722804932
 10
152.5
 20
303.54999999999995
 10
152.72961005941906
 20
303.5956722804932
 10
152.92426406871192
 20
303.72573593128806
 10
153.05432771950677
 20
303.92038994058095
 97
0
 75
0
 76
1
 98
0
  0
CIRCLE
  5
EE
330
17
100
AcDbEntity
  8
S-REBAR-MAIN
100
AcDbCircle
 10
160.0
 20
304.15
 30
0.0
 40
0.6
  0
HATCH
  5
EF
330
17
100
AcDbEntity
  8
S-REBAR-MAIN
 62
1
100
AcDbHatch
 10
0.0
 20
0.0
 30
0.0
210
0.0
220
0.0
230
1.0
  2
SOLID
 70
1
 71
0
 91
1
 92
3
 72
0
 73
1
 93
16
 10
160.6
 20
304.15
 10
160.55432771950677
 20
304.379610059419
 10
160.42426406871192
 20
304.5742640687119
 10
160.22961005941906
 20
304.70432771950675
 10
160.0
 20
304.75
 10
159.77038994058094
 20
304.70432771950675
 10
159.57573593128808
 20
304.5742640687119
 10
159.44567228049323
 20
304.379610059419
 10
159.4
 20
304.15
 10
159.44567228049323
 20
303.92038994058095
 10
159.57573593128808
 20
303.72573593128806
 10
159.77038994058094
 20
303.5956722804932
 10
160.0
 20
303.54999999999995
 10
160.22961005941906
 20
303.5956722804932
 10
160.42426406871192
 20
303.72573593128806
 10
160.55432771950677
 20
303.92038994058095
 97
0
 75
0
 76
1
 98
0
  0
CIRCLE
  5
F0
330
17
100
AcDbEntity
  8
S-REBAR-MAIN
100
AcDbCircle
 10
167.5
 20
304.15
 30
0.0
 40
0.6
  0
HATCH
  5
F1
330
17
100
AcDbEntity
  8
S-REBAR-MAIN
 62
1
100
AcDbHatch
 10
0.0
 20
0.0
 30
0.0
210
0.0
220
0.0
230
1.0
  2
SOLID
 70
1
 71
0
 91
1
 92
3
 72
0
 73
1
 93
16
 10
168.1
 20
304.15
 10
168.05432771950677
 20
304.379610059419
 10
167.92426406871192
 20
304.5742640687119
 10
167.72961005941906
 20
304.70432771950675
 10
167.5
 20
304.75
 10
167.27038994058094
 20
304.70432771950675
 10
167.07573593128808
 20
304.5742640687119
 10
166.94567228049323
 20
304.379610059419
 10
166.9
 20
304.15
 10
166.94567228049323
 20
303.92038994058095
 10
167.07573593128808
 20
303.72573593128806
 10
167.27038994058094
 20
303.5956722804932
 10
167.5
 20
303.54999999999995
 10
167.72961005941906
 20
303.5956722804932
 10
167.92426406871192
 20
303.72573593128806
 10
168.05432771950677
 20
303.92038994058095
 97
0
 75
0
 76
1
 98
0
  0
CIRCLE
  5
F2
330
17
100
AcDbEntity
  8
S-REBAR-MAIN
100
AcDbCircle
 10
175.0
 20
304.15
 30
0.0
 40
0.6
  0
HATCH
  5
F3
330
17
100
AcDbEntity
  8
S-REBAR-MAIN
 62
1
100
AcDbHatch
 10
0.0
 20
0.0
 30
0.0
210
0.0
220
0.0
230
1.0
  2
SOLID
 70
1
 71
0
 91
1
 92
3
 72
0
 73
1
 93
16
 10
175.6
 20
304.15
 10
175.55432771950677
 20
304.379610059419
 10
175.42426406871192
 20
304.5742640687119
 10
175.22961005941906
 20
304.70432771950675
 10
175.0
 20
304.75
 10
174.77038994058094
 20
304.70432771950675
 10
174.57573593128808
 20
304.5742640687119
 10
174.44567228049323
 20
304.379610059419
 10
174.4
 20
304.15
 10
174.44567228049323
 20
303.92038994058095
 10
174.57573593128808
 20
303.72573593128806
 10
174.77038994058094
 20
303.5956722804932
 10
175.0
 20
303.54999999999995
 10
175.22961005941906
 20
303.5956722804932
 10
175.42426406871192
 20
303.72573593128806
 10
175.55432771950677
 20
303.92038994058095
 97
0
 75
0
 76
1
 98
0
  0
CIRCLE
  5
F4
330
17
100
AcDbEntity
  8
S-REBAR-MAIN
100
AcDbCircle
 10
182.5
 20
304.15
 30
0.0
 40
0.6
  0
HATCH
  5
F5
330
17
100
AcDbEntity
  8
S-REBAR-MAIN
 62
1
100
AcDbHatch
 10
0.0
 20
0.0
 30
0.0
210
0.0
220
0.0
230
1.0
  2
SOLID
 70
1
 71
0
 91
1
 92
3
 72
0
 73
1
 93
16
 10
183.1
 20
304.15
 10
183.05432771950677
 20
304.379610059419
 10
182.92426406871192
 20
304.5742640687119
 10
182.72961005941906
 20
304.70432771950675
 10
182.5
 20
304.75
 10
182.27038994058094
 20
304.70432771950675
 10
182.07573593128808
 20
304.5742640687119
 10
181.94567228049323
 20
304.379610059419
 10
181.9
 20
304.15
 10
181.94567228049323
 20
303.92038994058095
 10
182.07573593128808
 20
303.72573593128806
 10
182.27038994058094
 20
303.5956722804932
 10
182.5
 20
303.54999999999995
 10
182.72961005941906
 20
303.5956722804932
 10
182.92426406871192
 20
303.72573593128806
 10
183.05432771950677
 20
303.92038994058095
 97
0
 75
0
 76
1
 98
0
  0
CIRCLE
  5
F6
330
17
100
AcDbEntity
  8
S-REBAR-MAIN
100
AcDbCircle
 10
190.0
 20
304.15
 30
0.0
 40
0.6
  0
HATCH
  5
F7
330
17
100
AcDbEntity
  8
S-REBAR-MAIN
 62
1
100
AcDbHatch
 10
0.0
 20
0.0
 30
0.0
210
0.0
220
0.0
230
1.0
  2
SOLID
 70
1
 71
0
 91
1
 92
3
 72
0
 73
1
 93
16
 10
190.6
 20
304.15
 10
190.55432771950677
 20
304.379610059419
 10
190.42426406871192
 20
304.5742640687119
 10
190.22961005941906
 20
304.70432771950675
 10
190.0
 20
304.75
 10
189.77038994058094
 20
304.70432771950675
 10
189.57573593128808
 20
304.5742640687119
 10
189.44567228049323
 20
304.379610059419
 10
189.4
 20
304.15
 10
189.44567228049323
 20
303.92038994058095
 10
189.57573593128808
 20
303.72573593128806
 10
189.77038994058094
 20
303.5956722804932
 10
190.0
 20
303.54999999999995
 10
190.22961005941906
 20
303.5956722804932
 10
190.42426406871192
 20
303.72573593128806
 10
190.55432771950677
 20
303.92038994058095
 97
0
 75
0
 76
1
 98
0
  0
CIRCLE
  5
F8
330
17
100
AcDbEntity
  8
S-REBAR-MAIN
100
AcDbCircle
 10
197.5
 20
304.15
 30
0.0
 40
0.6
  0
HATCH
  5
F9
330
17
100
AcDbEntity
  8
S-REBAR-MAIN
 62
1
100
AcDbHatch
 10
0.0
 20
0.0
 30
0.0
210
0.0
220
0.0
230
1.0
  2
SOLID
 70
1
 71
0
 91
1
 92
3
 72
0
 73
1
 93
16
 10
198.1
 20
304.15
 10
198.05432771950677
 20
304.379610059419
 10
197.92426406871192
 20
304.5742640687119
 10
197.72961005941906
 20
304.70432771950675
 10
197.5
 20
304.75
 10
197.27038994058094
 20
304.70432771950675
 10
197.07573593128808
 20
304.5742640687119
 10
196.94567228049323
 20
304.379610059419
 10
196.9
 20
304.15
 10
196.94567228049323
 20
303.92038994058095
 10
197.07573593128808
 20
303.72573593128806
 10
197.27038994058094
 20
303.5956722804932
 10
197.5
 20
303.54999999999995
 10
197.72961005941906
 20
303.5956722804932
 10
197.92426406871192
 20
303.72573593128806
 10
198.05432771950677
 20
303.92038994058095
 97
0
 75
0
 76
1
 98
0
  0
CIRCLE
  5
FA
330
17
100
AcDbEntity
  8
S-REBAR-MAIN
100
AcDbCircle
 10
205.0
 20
304.15
 30
0.0
 40
0.6
  0
HATCH
  5
FB
330
17
100
AcDbEntity
  8
S-REBAR-MAIN
 62
1
100
AcDbHatch
 10
0.0
 20
0.0
 30
0.0
210
0.0
220
0.0
230
1.0
  2
SOLID
 70
1
 71
0
 91
1
 92
3
 72
0
 73
1
 93
16
 10
205.6
 20
304.15
 10
205.55432771950677
 20
304.379610059419
 10
205.42426406871192
 20
304.5742640687119
 10
205.22961005941906
 20
304.70432771950675
 10
205.0
 20
304.75
 10
204.77038994058094
 20
304.70432771950675
 10
204.57573593128808
 20
304.5742640687119
 10
204.44567228049323
 20
304.379610059419
 10
204.4
 20
304.15
 10
204.44567228049323
 20
303.92038994058095
 10
204.57573593128808
 20
303.72573593128806
 10
204.77038994058094
 20
303.5956722804932
 10
205.0
 20
303.54999999999995
 10
205.22961005941906
 20
303.5956722804932
 10
205.42426406871192
 20
303.72573593128806
 10
205.55432771950677
 20
303.92038994058095
 97
0
 75
0
 76
1
 98
0
  0
CIRCLE
  5
FC
330
17
100
AcDbEntity
  8
S-REBAR-MAIN
100
AcDbCircle
 10
212.5
 20
304.15
 30
0.0
 40
0.6
  0
HATCH
  5
FD
330
17
100
AcDbEntity
  8
S-REBAR-MAIN
 62
1
100
AcDbHatch
 10
0.0
 20
0.0
 30
0.0
210
0.0
220
0.0
230
1.0
  2
SOLID
 70
1
 71
0
 91
1
 92
3
 72
0
 73
1
 93
16
 10
213.1
 20
304.15
 10
213.05432771950677
 20
304.379610059419
 10
212.92426406871192
 20
304.5742640687119
 10
212.72961005941906
 20
304.70432771950675
 10
212.5
 20
304.75
 10
212.27038994058094
 20
304.70432771950675
 10
212.07573593128808
 20
304.5742640687119
 10
211.94567228049323
 20
304.379610059419
 10
211.9
 20
304.15
 10
211.94567228049323
 20
303.92038994058095
 10
212.07573593128808
 20
303.72573593128806
 10
212.27038994058094
 20
303.5956722804932
 10
212.5
 20
303.54999999999995
 10
212.72961005941906
 20
303.5956722804932
 10
212.92426406871192
 20
303.72573593128806
 10
213.05432771950677
 20
303.92038994058095
 97
0
 75
0
 76
1
 98
0
  0
CIRCLE
  5
FE
330
17
100
AcDbEntity
  8
S-REBAR-MAIN
100
AcDbCircle
 10
77.5
 20
327.6
 30
0.0
 40
0.6
  0
HATCH
  5
FF
330
17
100
AcDbEntity
  8
S-REBAR-MAIN
 62
1
100
AcDbHatch
 10
0.0
 20
0.0
 30
0.0
210
0.0
220
0.0
230
1.0
  2
SOLID
 70
1
 71
0
 91
1
 92
3
 72
0
 73
1
 93
16
 10
78.1
 20
327.6
 10
78.05432771950677
 20
327.82961005941905
 10
77.92426406871193
 20
328.02426406871194
 10
77.72961005941906
 20
328.1543277195068
 10
77.5
 20
328.20000000000005
 10
77.27038994058094
 20
328.1543277195068
 10
77.07573593128807
 20
328.02426406871194
 10
76.94567228049323
 20
327.82961005941905
 10
76.9
 20
327.6
 10
76.94567228049323
 20
327.370389940581
 10
77.07573593128807
 20
327.1757359312881
 10
77.27038994058094
 20
327.04567228049325
 10
77.5
 20
327.0
 10
77.72961005941906
 20
327.04567228049325
 10
77.92426406871193
 20
327.1757359312881
 10
78.05432771950677
 20
327.370389940581
 97
0
 75
0
 76
1
 98
0
  0
CIRCLE
  5
100
330
17
100
AcDbEntity
  8
S-REBAR-MAIN
100
AcDbCircle
 10
85.0
 20
327.6
 30
0.0
 40
0.6
  0
HATCH
  5
101
330
17
100
AcDbEntity
  8
S-REBAR-MAIN
 62
1
100
AcDbHatch
 10
0.0
 20
0.0
 30
0.0
210
0.0
220
0.0
230
1.0
  2
SOLID
 70
1
 71
0
 91
1
 92
3
 72
0
 73
1
 93
16
 10
85.6
 20
327.6
 10
85.55432771950677
 20
327.82961005941905
 10
85.42426406871193
 20
328.02426406871194
 10
85.22961005941906
 20
328.1543277195068
 10
85.0
 20
328.20000000000005
 10
84.77038994058094
 20
328.1543277195068
 10
84.57573593128807
 20
328.02426406871194
 10
84.44567228049323
 20
327.82961005941905
 10
84.4
 20
327.6
 10
84.44567228049323
 20
327.370389940581
 10
84.57573593128807
 20
327.1757359312881
 10
84.77038994058094
 20
327.04567228049325
 10
85.0
 20
327.0
 10
85.22961005941906
 20
327.04567228049325
 10
85.42426406871193
 20
327.1757359312881
 10
85.55432771950677
 20
327.370389940581
 97
0
 75
0
 76
1
 98
0
  0
CIRCLE
  5
102
330
17
100
AcDbEntity
  8
S-REBAR-MAIN
100
AcDbCircle
 10
92.5
 20
327.6
 30
0.0
 40
0.6
  0
HATCH
  5
103
330
17
100
AcDbEntity
  8
S-REBAR-MAIN
 62
1
100
AcDbHatch
 10
0.0
 20
0.0
 30
0.0
210
0.0
220
0.0
230
1.0
  2
SOLID
 70
1
 71
0
 91
1
 92
3
 72
0
 73
1
 93
16
 10
93.1
 20
327.6
 10
93.05432771950677
 20
327.82961005941905
 10
92.92426406871193
 20
328.02426406871194
 10
92.72961005941906
 20
328.1543277195068
 10
92.5
 20
328.20000000000005
 10
92.27038994058094
 20
328.1543277195068
 10
92.07573593128807
 20
328.02426406871194
 10
91.94567228049323
 20
327.82961005941905
 10
91.9
 20
327.6
 10
91.94567228049323
 20
327.370389940581
 10
92.07573593128807
 20
327.1757359312881
 10
92.27038994058094
 20
327.04567228049325
 10
92.5
 20
327.0
 10
92.72961005941906
 20
327.04567228049325
 10
92.92426406871193
 20
327.1757359312881
 10
93.05432771950677
 20
327.370389940581
 97
0
 75
0
 76
1
 98
0
  0
CIRCLE
  5
104
330
17
100
AcDbEntity
  8
S-REBAR-MAIN
100
AcDbCircle
 10
100.0
 20
327.6
 30
0.0
 40
0.6
  0
HATCH
  5
105
330
17
100
AcDbEntity
  8
S-REBAR-MAIN
 62
1
100
AcDbHatch
 10
0.0
 20
0.0
 30
0.0
210
0.0
220
0.0
230
1.0
  2
SOLID
 70
1
 71
0
 91
1
 92
3
 72
0
 73
1
 93
16
 10
100.6
 20
327.6
 10
100.55432771950677
 20
327.82961005941905
 10
100.42426406871193
 20
328.02426406871194
 10
100.22961005941906
 20
328.1543277195068
 10
100.0
 20
328.20000000000005
 10
99.77038994058094
 20
328.1543277195068
 10
99.57573593128807
 20
328.02426406871194
 10
99.44567228049323
 20
327.82961005941905
 10
99.4
 20
327.6
 10
99.44567228049323
 20
327.370389940581
 10
99.57573593128807
 20
327.1757359312881
 10
99.77038994058094
 20
327.04567228049325
 10
100.0
 20
327.0
 10
100.22961005941906
 20
327.04567228049325
 10
100.42426406871193
 20
327.1757359312881
 10
100.55432771950677
 20
327.370389940581
 97
0
 75
0
 76
1
 98
0
  0
CIRCLE
  5
106
330
17
100
AcDbEntity
  8
S-REBAR-MAIN
100
AcDbCircle
 10
107.5
 20
327.6
 30
0.0
 40
0.6
  0
HATCH
  5
107
330
17
100
AcDbEntity
  8
S-REBAR-MAIN
 62
1
100
AcDbHatch
 10
0.0
 20
0.0
 30
0.0
210
0.0
220
0.0
230
1.0
  2
SOLID
 70
1
 71
0
 91
1
 92
3
 72
0
 73
1
 93
16
 10
108.1
 20
327.6
 10
108.05432771950677
 20
327.82961005941905
 10
107.92426406871193
 20
328.02426406871194
 10
107.72961005941906
 20
328.1543277195068
 10
107.5
 20
328.20000000000005
 10
107.27038994058094
 20
328.1543277195068
 10
107.07573593128807
 20
328.02426406871194
 10
106.94567228049323
 20
327.82961005941905
 10
106.9
 20
327.6
 10
106.94567228049323
 20
327.370389940581
 10
107.07573593128807
 20
327.1757359312881
 10
107.27038994058094
 20
327.04567228049325
 10
107.5
 20
327.0
 10
107.72961005941906
 20
327.04567228049325
 10
107.92426406871193
 20
327.1757359312881
 10
108.05432771950677
 20
327.370389940581
 97
0
 75
0
 76
1
 98
0
  0
CIRCLE
  5
108
330
17
100
AcDbEntity
  8
S-REBAR-MAIN
100
AcDbCircle
 10
115.0
 20
327.6
 30
0.0
 40
0.6
  0
HATCH
  5
109
330
17
100
AcDbEntity
  8
S-REBAR-MAIN
 62
1
100
AcDbHatch
 10
0.0
 20
0.0
 30
0.0
210
0.0
220
0.0
230
1.0
  2
SOLID
 70
1
 71
0
 91
1
 92
3
 72
0
 73
1
 93
16
 10
115.6
 20
327.6
 10
115.55432771950677
 20
327.82961005941905
 10
115.42426406871193
 20
328.02426406871194
 10
115.22961005941906
 20
328.1543277195068
 10
115.0
 20
328.20000000000005
 10
114.77038994058094
 20
328.1543277195068
 10
114.57573593128807
 20
328.02426406871194
 10
114.44567228049323
 20
327.82961005941905
 10
114.4
 20
327.6
 10
114.44567228049323
 20
327.370389940581
 10
114.57573593128807
 20
327.1757359312881
 10
114.77038994058094
 20
327.04567228049325
 10
115.0
 20
327.0
 10
115.22961005941906
 20
327.04567228049325
 10
115.42426406871193
 20
327.1757359312881
 10
115.55432771950677
 20
327.370389940581
 97
0
 75
0
 76
1
 98
0
  0
CIRCLE
  5
10A
330
17
100
AcDbEntity
  8
S-REBAR-MAIN
100
AcDbCircle
 10
122.5
 20
327.6
 30
0.0
 40
0.6
  0
HATCH
  5
10B
330
17
100
AcDbEntity
  8
S-REBAR-MAIN
 62
1
100
AcDbHatch
 10
0.0
 20
0.0
 30
0.0
210
0.0
220
0.0
230
1.0
  2
SOLID
 70
1
 71
0
 91
1
 92
3
 72
0
 73
1
 93
16
 10
123.1
 20
327.6
 10
123.05432771950677
 20
327.82961005941905
 10
122.92426406871193
 20
328.02426406871194
 10
122.72961005941906
 20
328.1543277195068
 10
122.5
 20
328.20000000000005
 10
122.27038994058094
 20
328.1543277195068
 10
122.07573593128807
 20
328.02426406871194
 10
121.94567228049323
 20
327.82961005941905
 10
121.9
 20
327.6
 10
121.94567228049323
 20
327.370389940581
 10
122.07573593128807
 20
327.1757359312881
 10
122.27038994058094
 20
327.04567228049325
 10
122.5
 20
327.0
 10
122.72961005941906
 20
327.04567228049325
 10
122.92426406871193
 20
327.1757359312881
 10
123.05432771950677
 20
327.370389940581
 97
0
 75
0
 76
1
 98
0
  0
CIRCLE
  5
10C
330
17
100
AcDbEntity
  8
S-REBAR-MAIN
100
AcDbCircle
 10
130.0
 20
327.6
 30
0.0
 40
0.6
  0
HATCH
  5
10D
330
17
100
AcDbEntity
  8
S-REBAR-MAIN
 62
1
100
AcDbHatch
 10
0.0
 20
0.0
 30
0.0
210
0.0
220
0.0
230
1.0
  2
SOLID
 70
1
 71
0
 91
1
 92
3
 72
0
 73
1
 93
16
 10
130.6
 20
327.6
 10
130.55432771950677
 20
327.82961005941905
 10
130.42426406871192
 20
328.02426406871194
 10
130.22961005941906
 20
328.1543277195068
 10
130.0
 20
328.20000000000005
 10
129.77038994058094
 20
328.1543277195068
 10
129.57573593128808
 20
328.02426406871194
 10
129.44567228049323
 20
327.82961005941905
 10
129.4
 20
327.6
 10
129.44567228049323
 20
327.370389940581
 10
129.57573593128808
 20
327.1757359312881
 10
129.77038994058094
 20
327.04567228049325
 10
130.0
 20
327.0
 10
130.22961005941906
 20
327.04567228049325
 10
130.42426406871192
 20
327.1757359312881
 10
130.55432771950677
 20
327.370389940581
 97
0
 75
0
 76
1
 98
0
  0
CIRCLE
  5
10E
330
17
100
AcDbEntity
  8
S-REBAR-MAIN
100
AcDbCircle
 10
137.5
 20
327.6
 30
0.0
 40
0.6
  0
HATCH
  5
10F
330
17
100
AcDbEntity
  8
S-REBAR-MAIN
 62
1
100
AcDbHatch
 10
0.0
 20
0.0
 30
0.0
210
0.0
220
0.0
230
1.0
  2
SOLID
 70
1
 71
0
 91
1
 92
3
 72
0
 73
1
 93
16
 10
138.1
 20
327.6
 10
138.05432771950677
 20
327.82961005941905
 10
137.92426406871192
 20
328.02426406871194
 10
137.72961005941906
 20
328.1543277195068
 10
137.5
 20
328.20000000000005
 10
137.27038994058094
 20
328.1543277195068
 10
137.07573593128808
 20
328.02426406871194
 10
136.94567228049323
 20
327.82961005941905
 10
136.9
 20
327.6
 10
136.94567228049323
 20
327.370389940581
 10
137.07573593128808
 20
327.1757359312881
 10
137.27038994058094
 20
327.04567228049325
 10
137.5
 20
327.0
 10
137.72961005941906
 20
327.04567228049325
 10
137.92426406871192
 20
327.1757359312881
 10
138.05432771950677
 20
327.370389940581
 97
0
 75
0
 76
1
 98
0
  0
CIRCLE
  5
110
330
17
100
AcDbEntity
  8
S-REBAR-MAIN
100
AcDbCircle
 10
145.0
 20
327.6
 30
0.0
 40
0.6
  0
HATCH
  5
111
330
17
100
AcDbEntity
  8
S-REBAR-MAIN
 62
1
100
AcDbHatch
 10
0.0
 20
0.0
 30
0.0
210
0.0
220
0.0
230
1.0
  2
SOLID
 70
1
 71
0
 91
1
 92
3
 72
0
 73
1
 93
16
 10
145.6
 20
327.6
 10
145.55432771950677
 20
327.82961005941905
 10
145.42426406871192
 20
328.02426406871194
 10
145.22961005941906
 20
328.1543277195068
 10
145.0
 20
328.20000000000005
 10
144.77038994058094
 20
328.1543277195068
 10
144.57573593128808
 20
328.02426406871194
 10
144.44567228049323
 20
327.82961005941905
 10
144.4
 20
327.6
 10
144.44567228049323
 20
327.370389940581
 10
144.57573593128808
 20
327.1757359312881
 10
144.77038994058094
 20
327.04567228049325
 10
145.0
 20
327.0
 10
145.22961005941906
 20
327.04567228049325
 10
145.42426406871192
 20
327.1757359312881
 10
145.55432771950677
 20
327.370389940581
 97
0
 75
0
 76
1
 98
0
  0
CIRCLE
  5
112
330
17
100
AcDbEntity
  8
S-REBAR-MAIN
100
AcDbCircle
 10
152.5
 20
327.6
 30
0.0
 40
0.6
  0
HATCH
  5
113
330
17
100
AcDbEntity
  8
S-REBAR-MAIN
 62
1
100
AcDbHatch
 10
0.0
 20
0.0
 30
0.0
210
0.0
220
0.0
230
1.0
  2
SOLID
 70
1
 71
0
 91
1
 92
3
 72
0
 73
1
 93
16
 10
153.1
 20
327.6
 10
153.05432771950677
 20
327.82961005941905
 10
152.92426406871192
 20
328.02426406871194
 10
152.72961005941906
 20
328.1543277195068
 10
152.5
 20
328.20000000000005
 10
152.27038994058094
 20
328.1543277195068
 10
152.07573593128808
 20
328.02426406871194
 10
151.94567228049323
 20
327.82961005941905
 10
151.9
 20
327.6
 10
151.94567228049323
 20
327.370389940581
 10
152.07573593128808
 20
327.1757359312881
 10
152.27038994058094
 20
327.04567228049325
 10
152.5
 20
327.0
 10
152.72961005941906
 20
327.04567228049325
 10
152.92426406871192
 20
327.1757359312881
 10
153.05432771950677
 20
327.370389940581
 97
0
 75
0
 76
1
 98
0
  0
CIRCLE
  5
114
330
17
100
AcDbEntity
  8
S-REBAR-MAIN
100
AcDbCircle
 10
160.0
 20
327.6
 30
0.0
 40
0.6
  0
HATCH
  5
115
330
17
100
AcDbEntity
  8
S-REBAR-MAIN
 62
1
100
AcDbHatch
 10
0.0
 20
0.0
 30
0.0
210
0.0
220
0.0
230
1.0
  2
SOLID
 70
1
 71
0
 91
1
 92
3
 72
0
 73
1
 93
16
 10
160.6
 20
327.6
 10
160.55432771950677
 20
327.82961005941905
 10
160.42426406871192
 20
328.02426406871194
 10
160.22961005941906
 20
328.1543277195068
 10
160.0
 20
328.20000000000005
 10
159.77038994058094
 20
328.1543277195068
 10
159.57573593128808
 20
328.02426406871194
 10
159.44567228049323
 20
327.82961005941905
 10
159.4
 20
327.6
 10
159.44567228049323
 20
327.370389940581
 10
159.57573593128808
 20
327.1757359312881
 10
159.77038994058094
 20
327.04567228049325
 10
160.0
 20
327.0
 10
160.22961005941906
 20
327.04567228049325
 10
160.42426406871192
 20
327.1757359312881
 10
160.55432771950677
 20
327.370389940581
 97
0
 75
0
 76
1
 98
0
  0
CIRCLE
  5
116
330
17
100
AcDbEntity
  8
S-REBAR-MAIN
100
AcDbCircle
 10
167.5
 20
327.6
 30
0.0
 40
0.6
  0
HATCH
  5
117
330
17
100
AcDbEntity
  8
S-REBAR-MAIN
 62
1
100
AcDbHatch
 10
0.0
 20
0.0
 30
0.0
210
0.0
220
0.0
230
1.0
  2
SOLID
 70
1
 71
0
 91
1
 92
3
 72
0
 73
1
 93
16
 10
168.1
 20
327.6
 10
168.05432771950677
 20
327.82961005941905
 10
167.92426406871192
 20
328.02426406871194
 10
167.72961005941906
 20
328.1543277195068
 10
167.5
 20
328.20000000000005
 10
167.27038994058094
 20
328.1543277195068
 10
167.07573593128808
 20
328.02426406871194
 10
166.94567228049323
 20
327.82961005941905
 10
166.9
 20
327.6
 10
166.94567228049323
 20
327.370389940581
 10
167.07573593128808
 20
327.1757359312881
 10
167.27038994058094
 20
327.04567228049325
 10
167.5
 20
327.0
 10
167.72961005941906
 20
327.04567228049325
 10
167.92426406871192
 20
327.1757359312881
 10
168.05432771950677
 20
327.370389940581
 97
0
 75
0
 76
1
 98
0
  0
CIRCLE
  5
118
330
17
100
AcDbEntity
  8
S-REBAR-MAIN
100
AcDbCircle
 10
175.0
 20
327.6
 30
0.0
 40
0.6
  0
HATCH
  5
119
330
17
100
AcDbEntity
  8
S-REBAR-MAIN
 62
1
100
AcDbHatch
 10
0.0
 20
0.0
 30
0.0
210
0.0
220
0.0
230
1.0
  2
SOLID
 70
1
 71
0
 91
1
 92
3
 72
0
 73
1
 93
16
 10
175.6
 20
327.6
 10
175.55432771950677
 20
327.82961005941905
 10
175.42426406871192
 20
328.02426406871194
 10
175.22961005941906
 20
328.1543277195068
 10
175.0
 20
328.20000000000005
 10
174.77038994058094
 20
328.1543277195068
 10
174.57573593128808
 20
328.02426406871194
 10
174.44567228049323
 20
327.82961005941905
 10
174.4
 20
327.6
 10
174.44567228049323
 20
327.370389940581
 10
174.57573593128808
 20
327.1757359312881
 10
174.77038994058094
 20
327.04567228049325
 10
175.0
 20
327.0
 10
175.22961005941906
 20
327.04567228049325
 10
175.42426406871192
 20
327.1757359312881
 10
175.55432771950677
 20
327.370389940581
 97
0
 75
0
 76
1
 98
0
  0
CIRCLE
  5
11A
330
17
100
AcDbEntity
  8
S-REBAR-MAIN
100
AcDbCircle
 10
182.5
 20
327.6
 30
0.0
 40
0.6
  0
HATCH
  5
11B
330
17
100
AcDbEntity
  8
S-REBAR-MAIN
 62
1
100
AcDbHatch
 10
0.0
 20
0.0
 30
0.0
210
0.0
220
0.0
230
1.0
  2
SOLID
 70
1
 71
0
 91
1
 92
3
 72
0
 73
1
 93
16
 10
183.1
 20
327.6
 10
183.05432771950677
 20
327.82961005941905
 10
182.92426406871192
 20
328.02426406871194
 10
182.72961005941906
 20
328.1543277195068
 10
182.5
 20
328.20000000000005
 10
182.27038994058094
 20
328.1543277195068
 10
182.07573593128808
 20
328.02426406871194
 10
181.94567228049323
 20
327.82961005941905
 10
181.9
 20
327.6
 10
181.94567228049323
 20
327.370389940581
 10
182.07573593128808
 20
327.1757359312881
 10
182.27038994058094
 20
327.04567228049325
 10
182.5
 20
327.0
 10
182.72961005941906
 20
327.04567228049325
 10
182.92426406871192
 20
327.1757359312881
 10
183.05432771950677
 20
327.370389940581
 97
0
 75
0
 76
1
 98
0
  0
CIRCLE
  5
11C
330
17
100
AcDbEntity
  8
S-REBAR-MAIN
100
AcDbCircle
 10
190.0
 20
327.6
 30
0.0
 40
0.6
  0
HATCH
  5
11D
330
17
100
AcDbEntity
  8
S-REBAR-MAIN
 62
1
100
AcDbHatch
 10
0.0
 20
0.0
 30
0.0
210
0.0
220
0.0
230
1.0
  2
SOLID
 70
1
 71
0
 91
1
 92
3
 72
0
 73
1
 93
16
 10
190.6
 20
327.6
 10
190.55432771950677
 20
327.82961005941905
 10
190.42426406871192
 20
328.02426406871194
 10
190.22961005941906
 20
328.1543277195068
 10
190.0
 20
328.20000000000005
 10
189.77038994058094
 20
328.1543277195068
 10
189.57573593128808
 20
328.02426406871194
 10
189.44567228049323
 20
327.82961005941905
 10
189.4
 20
327.6
 10
189.44567228049323
 20
327.370389940581
 10
189.57573593128808
 20
327.1757359312881
 10
189.77038994058094
 20
327.04567228049325
 10
190.0
 20
327.0
 10
190.22961005941906
 20
327.04567228049325
 10
190.42426406871192
 20
327.1757359312881
 10
190.55432771950677
 20
327.370389940581
 97
0
 75
0
 76
1
 98
0
  0
CIRCLE
  5
11E
330
17
100
AcDbEntity
  8
S-REBAR-MAIN
100
AcDbCircle
 10
197.5
 20
327.6
 30
0.0
 40
0.6
  0
HATCH
  5
11F
330
17
100
AcDbEntity
  8
S-REBAR-MAIN
 62
1
100
AcDbHatch
 10
0.0
 20
0.0
 30
0.0
210
0.0
220
0.0
230
1.0
  2
SOLID
 70
1
 71
0
 91
1
 92
3
 72
0
 73
1
 93
16
 10
198.1
 20
327.6
 10
198.05432771950677
 20
327.82961005941905
 10
197.92426406871192
 20
328.02426406871194
 10
197.72961005941906
 20
328.1543277195068
 10
197.5
 20
328.20000000000005
 10
197.27038994058094
 20
328.1543277195068
 10
197.07573593128808
 20
328.02426406871194
 10
196.94567228049323
 20
327.82961005941905
 10
196.9
 20
327.6
 10
196.94567228049323
 20
327.370389940581
 10
197.07573593128808
 20
327.1757359312881
 10
197.27038994058094
 20
327.04567228049325
 10
197.5
 20
327.0
 10
197.72961005941906
 20
327.04567228049325
 10
197.92426406871192
 20
327.1757359312881
 10
198.05432771950677
 20
327.370389940581
 97
0
 75
0
 76
1
 98
0
  0
CIRCLE
  5
120
330
17
100
AcDbEntity
  8
S-REBAR-MAIN
100
AcDbCircle
 10
205.0
 20
327.6
 30
0.0
 40
0.6
  0
HATCH
  5
121
330
17
100
AcDbEntity
  8
S-REBAR-MAIN
 62
1
100
AcDbHatch
 10
0.0
 20
0.0
 30
0.0
210
0.0
220
0.0
230
1.0
  2
SOLID
 70
1
 71
0
 91
1
 92
3
 72
0
 73
1
 93
16
 10
205.6
 20
327.6
 10
205.55432771950677
 20
327.82961005941905
 10
205.42426406871192
 20
328.02426406871194
 10
205.22961005941906
 20
328.1543277195068
 10
205.0
 20
328.20000000000005
 10
204.77038994058094
 20
328.1543277195068
 10
204.57573593128808
 20
328.02426406871194
 10
204.44567228049323
 20
327.82961005941905
 10
204.4
 20
327.6
 10
204.44567228049323
 20
327.370389940581
 10
204.57573593128808
 20
327.1757359312881
 10
204.77038994058094
 20
327.04567228049325
 10
205.0
 20
327.0
 10
205.22961005941906
 20
327.04567228049325
 10
205.42426406871192
 20
327.1757359312881
 10
205.55432771950677
 20
327.370389940581
 97
0
 75
0
 76
1
 98
0
  0
CIRCLE
  5
122
330
17
100
AcDbEntity
  8
S-REBAR-MAIN
100
AcDbCircle
 10
212.5
 20
327.6
 30
0.0
 40
0.6
  0
HATCH
  5
123
330
17
100
AcDbEntity
  8
S-REBAR-MAIN
 62
1
100
AcDbHatch
 10
0.0
 20
0.0
 30
0.0
210
0.0
220
0.0
230
1.0
  2
SOLID
 70
1
 71
0
 91
1
 92
3
 72
0
 73
1
 93
16
 10
213.1
 20
327.6
 10
213.05432771950677
 20
327.82961005941905
 10
212.92426406871192
 20
328.02426406871194
 10
212.72961005941906
 20
328.1543277195068
 10
212.5
 20
328.20000000000005
 10
212.27038994058094
 20
328.1543277195068
 10
212.07573593128808
 20
328.02426406871194
 10
211.94567228049323
 20
327.82961005941905
 10
211.9
 20
327.6
 10
211.94567228049323
 20
327.370389940581
 10
212.07573593128808
 20
327.1757359312881
 10
212.27038994058094
 20
327.04567228049325
 10
212.5
 20
327.0
 10
212.72961005941906
 20
327.04567228049325
 10
212.92426406871192
 20
327.1757359312881
 10
213.05432771950677
 20
327.370389940581
 97
0
 75
0
 76
1
 98
0
  0
LINE
  5
124
330
17
100
AcDbEntity
  8
S-REBAR-MAIN
100
AcDbLine
 10
74.15
 20
335.0
 30
0.0
 11
74.15
 21
430.0
 31
0.0
  0
LINE
  5
125
330
17
100
AcDbEntity
  8
S-REBAR-MAIN
100
AcDbLine
 10
95.85
 20
335.0
 30
0.0
 11
95.85
 21
430.0
 31
0.0
  0
DIMENSION
  5
126
330
17
100
AcDbEntity
  8
S-DIM
100
AcDbDimension
280
0
  2
*D1
  3
SC-DIM
 10
240.0
 20
300.0
 30
0.0
 11
238.3
 21
315.0
 31
0.0
 70
32
 71
5
  1
<>
100
AcDbAlignedDimension
 13
220.0
 23
300.0
 33
0.0
 14
220.0
 24
330.0
 34
0.0
 50
90.0
100
AcDbRotatedDimension
1001
ACAD
1000
DSTYLE
1002
{
1070
144
1040
20.0
1002
}
  0
TEXT
  5
135
330
17
100
AcDbEntity
  8
S-TITLE
100
AcDbText
 10
30.0
 20
552.0
 30
0.0
 40
3.5
  1
D1   TANKING AT THE MAT / WALL / BLINDING INTERFACE
  7
OpenSans
 11
30.0
 21
552.0
 31
0.0
100
AcDbText
  0
LINE
  5
136
330
17
100
AcDbEntity
  8
S-TITLE
100
AcDbLine
 10
30.0
 20
550.2
 30
0.0
 11
147.81
 21
550.2
 31
0.0
  0
TEXT
  5
137
330
17
100
AcDbEntity
  8
S-TEXT
100
AcDbText
 10
30.0
 20
544.8
 30
0.0
 40
2.0
  1
SCALE 1:20
  7
OpenSans
 11
30.0
 21
544.8
 31
0.0
100
AcDbText
  0
LWPOLYLINE
  5
138
330
17
100
AcDbEntity
  8
S-CONCRETE
100
AcDbPolyline
 90
4
 70
1
 10
400.0
 20
340.0
 10
530.0
 20
340.0
 10
530.0
 20
385.0
 10
400.0
 20
385.0
  0
HATCH
  5
139
330
17
100
AcDbEntity
  8
S-HATCH
 62
7
100
AcDbHatch
 10
0.0
 20
0.0
 30
0.0
210
0.0
220
0.0
230
1.0
  2
ANSI31
 70
0
 71
0
 91
1
 92
3
 72
0
 73
1
 93
4
 10
400.0
 20
340.0
 10
530.0
 20
340.0
 10
530.0
 20
385.0
 10
400.0
 20
385.0
 97
0
 75
1
 76
1
 52
0.0
 41
1.6
 77
0
 78
1
 53
45.0
 43
0.0
 44
0.0
 45
-3.5921024485
 46
3.5921024485
 79
0
 98
0
  0
LINE
  5
13A
330
17
100
AcDbEntity
  8
S-WATERPROOF
100
AcDbLine
 10
400.0
 20
386.5
 30
0.0
 11
530.0
 21
386.5
 31
0.0
  0
LWPOLYLINE
  5
13B
330
17
100
AcDbEntity
  8
S-CONCRETE-THIN
100
AcDbPolyline
 90
4
 70
1
 10
400.0
 20
386.5
 10
530.0
 20
386.5
 10
530.0
 20
391.5
 10
400.0
 20
391.5
  0
LINE
  5
13C
330
17
100
AcDbEntity
  8
S-EXISTING
100
AcDbLine
 10
400.0
 20
391.5
 30
0.0
 11
530.0
 21
391.5
 31
0.0
  0
LINE
  5
13D
330
17
100
AcDbEntity
  8
S-EXISTING
100
AcDbLine
 10
400.0
 20
429.0
 30
0.0
 11
530.0
 21
429.0
 31
0.0
  0
HATCH
  5
13E
330
17
100
AcDbEntity
  8
S-EXISTING
 62
7
100
AcDbHatch
 10
0.0
 20
0.0
 30
0.0
210
0.0
220
0.0
230
1.0
  2
EARTH
 70
0
 71
0
 91
1
 92
3
 72
0
 73
1
 93
4
 10
400.0
 20
391.5
 10
530.0
 20
391.5
 10
530.0
 20
429.0
 10
400.0
 20
429.0
 97
0
 75
1
 76
1
 52
0.0
 41
1.0
 77
0
 78
6
 53
0.0
 43
0.0
 44
0.0
 45
6.35
 46
6.35
 79
2
 49
6.35
 49
-6.35
 53
0.0
 43
0.0
 44
2.38125
 45
6.35
 46
6.35
 79
2
 49
6.35
 49
-6.35
 53
0.0
 43
0.0
 44
4.7625
 45
6.35
 46
6.35
 79
2
 49
6.35
 49
-6.35
 53
90.0
 43
0.79375
 44
5.55625
 45
-6.35
 46
6.35
 79
2
 49
6.35
 49
-6.35
 53
90.0
 43
3.175
 44
5.55625
 45
-6.35
 46
6.35
 79
2
 49
6.35
 49
-6.35
 53
90.0
 43
5.55625
 44
5.55625
 45
-6.35
 46
6.35
 79
2
 49
6.35
 49
-6.35
 98
0
  0
TEXT
  5
13F
330
17
100
AcDbEntity
  8
S-WATERPROOF
100
AcDbText
 10
535.0
 20
385.0
 30
0.0
 40
1.4
  1
MEMBRANE ON THE SLAB
  7
OpenSans
 11
535.0
 21
385.0
 31
0.0
100
AcDbText
  0
TEXT
  5
140
330
17
100
AcDbEntity
  8
S-TEXT
100
AcDbText
 10
535.0
 20
387.5
 30
0.0
 40
1.4
  1
100 PROTECTION SCREED
  7
OpenSans
 11
535.0
 21
387.5
 31
0.0
100
AcDbText
  0
TEXT
  5
141
330
17
100
AcDbEntity
  8
S-EXISTING
100
AcDbText
 10
535.0
 20
405.0
 30
0.0
 40
1.4
  1
ENGINEERED COVER OVER - R-302
  7
OpenSans
 11
535.0
 21
405.0
 31
0.0
100
AcDbText
  0
CIRCLE
  5
142
330
17
100
AcDbEntity
  8
S-REBAR-MAIN
100
AcDbCircle
 10
407.5
 20
380.65
 30
0.0
 40
0.6
  0
HATCH
  5
143
330
17
100
AcDbEntity
  8
S-REBAR-MAIN
 62
1
100
AcDbHatch
 10
0.0
 20
0.0
 30
0.0
210
0.0
220
0.0
230
1.0
  2
SOLID
 70
1
 71
0
 91
1
 92
3
 72
0
 73
1
 93
16
 10
408.1
 20
380.65
 10
408.0543277195068
 20
380.879610059419
 10
407.9242640687119
 20
381.0742640687119
 10
407.72961005941903
 20
381.20432771950675
 10
407.5
 20
381.25
 10
407.27038994058097
 20
381.20432771950675
 10
407.0757359312881
 20
381.0742640687119
 10
406.9456722804932
 20
380.879610059419
 10
406.9
 20
380.65
 10
406.9456722804932
 20
380.42038994058095
 10
407.0757359312881
 20
380.22573593128806
 10
407.27038994058097
 20
380.0956722804932
 10
407.5
 20
380.04999999999995
 10
407.72961005941903
 20
380.0956722804932
 10
407.9242640687119
 20
380.22573593128806
 10
408.0543277195068
 20
380.42038994058095
 97
0
 75
0
 76
1
 98
0
  0
CIRCLE
  5
144
330
17
100
AcDbEntity
  8
S-REBAR-MAIN
100
AcDbCircle
 10
415.0
 20
380.65
 30
0.0
 40
0.6
  0
HATCH
  5
145
330
17
100
AcDbEntity
  8
S-REBAR-MAIN
 62
1
100
AcDbHatch
 10
0.0
 20
0.0
 30
0.0
210
0.0
220
0.0
230
1.0
  2
SOLID
 70
1
 71
0
 91
1
 92
3
 72
0
 73
1
 93
16
 10
415.6
 20
380.65
 10
415.5543277195068
 20
380.879610059419
 10
415.4242640687119
 20
381.0742640687119
 10
415.22961005941903
 20
381.20432771950675
 10
415.0
 20
381.25
 10
414.77038994058097
 20
381.20432771950675
 10
414.5757359312881
 20
381.0742640687119
 10
414.4456722804932
 20
380.879610059419
 10
414.4
 20
380.65
 10
414.4456722804932
 20
380.42038994058095
 10
414.5757359312881
 20
380.22573593128806
 10
414.77038994058097
 20
380.0956722804932
 10
415.0
 20
380.04999999999995
 10
415.22961005941903
 20
380.0956722804932
 10
415.4242640687119
 20
380.22573593128806
 10
415.5543277195068
 20
380.42038994058095
 97
0
 75
0
 76
1
 98
0
  0
CIRCLE
  5
146
330
17
100
AcDbEntity
  8
S-REBAR-MAIN
100
AcDbCircle
 10
422.5
 20
380.65
 30
0.0
 40
0.6
  0
HATCH
  5
147
330
17
100
AcDbEntity
  8
S-REBAR-MAIN
 62
1
100
AcDbHatch
 10
0.0
 20
0.0
 30
0.0
210
0.0
220
0.0
230
1.0
  2
SOLID
 70
1
 71
0
 91
1
 92
3
 72
0
 73
1
 93
16
 10
423.1
 20
380.65
 10
423.0543277195068
 20
380.879610059419
 10
422.9242640687119
 20
381.0742640687119
 10
422.72961005941903
 20
381.20432771950675
 10
422.5
 20
381.25
 10
422.27038994058097
 20
381.20432771950675
 10
422.0757359312881
 20
381.0742640687119
 10
421.9456722804932
 20
380.879610059419
 10
421.9
 20
380.65
 10
421.9456722804932
 20
380.42038994058095
 10
422.0757359312881
 20
380.22573593128806
 10
422.27038994058097
 20
380.0956722804932
 10
422.5
 20
380.04999999999995
 10
422.72961005941903
 20
380.0956722804932
 10
422.9242640687119
 20
380.22573593128806
 10
423.0543277195068
 20
380.42038994058095
 97
0
 75
0
 76
1
 98
0
  0
CIRCLE
  5
148
330
17
100
AcDbEntity
  8
S-REBAR-MAIN
100
AcDbCircle
 10
430.0
 20
380.65
 30
0.0
 40
0.6
  0
HATCH
  5
149
330
17
100
AcDbEntity
  8
S-REBAR-MAIN
 62
1
100
AcDbHatch
 10
0.0
 20
0.0
 30
0.0
210
0.0
220
0.0
230
1.0
  2
SOLID
 70
1
 71
0
 91
1
 92
3
 72
0
 73
1
 93
16
 10
430.6
 20
380.65
 10
430.5543277195068
 20
380.879610059419
 10
430.4242640687119
 20
381.0742640687119
 10
430.22961005941903
 20
381.20432771950675
 10
430.0
 20
381.25
 10
429.77038994058097
 20
381.20432771950675
 10
429.5757359312881
 20
381.0742640687119
 10
429.4456722804932
 20
380.879610059419
 10
429.4
 20
380.65
 10
429.4456722804932
 20
380.42038994058095
 10
429.5757359312881
 20
380.22573593128806
 10
429.77038994058097
 20
380.0956722804932
 10
430.0
 20
380.04999999999995
 10
430.22961005941903
 20
380.0956722804932
 10
430.4242640687119
 20
380.22573593128806
 10
430.5543277195068
 20
380.42038994058095
 97
0
 75
0
 76
1
 98
0
  0
CIRCLE
  5
14A
330
17
100
AcDbEntity
  8
S-REBAR-MAIN
100
AcDbCircle
 10
437.5
 20
380.65
 30
0.0
 40
0.6
  0
HATCH
  5
14B
330
17
100
AcDbEntity
  8
S-REBAR-MAIN
 62
1
100
AcDbHatch
 10
0.0
 20
0.0
 30
0.0
210
0.0
220
0.0
230
1.0
  2
SOLID
 70
1
 71
0
 91
1
 92
3
 72
0
 73
1
 93
16
 10
438.1
 20
380.65
 10
438.0543277195068
 20
380.879610059419
 10
437.9242640687119
 20
381.0742640687119
 10
437.72961005941903
 20
381.20432771950675
 10
437.5
 20
381.25
 10
437.27038994058097
 20
381.20432771950675
 10
437.0757359312881
 20
381.0742640687119
 10
436.9456722804932
 20
380.879610059419
 10
436.9
 20
380.65
 10
436.9456722804932
 20
380.42038994058095
 10
437.0757359312881
 20
380.22573593128806
 10
437.27038994058097
 20
380.0956722804932
 10
437.5
 20
380.04999999999995
 10
437.72961005941903
 20
380.0956722804932
 10
437.9242640687119
 20
380.22573593128806
 10
438.0543277195068
 20
380.42038994058095
 97
0
 75
0
 76
1
 98
0
  0
CIRCLE
  5
14C
330
17
100
AcDbEntity
  8
S-REBAR-MAIN
100
AcDbCircle
 10
445.0
 20
380.65
 30
0.0
 40
0.6
  0
HATCH
  5
14D
330
17
100
AcDbEntity
  8
S-REBAR-MAIN
 62
1
100
AcDbHatch
 10
0.0
 20
0.0
 30
0.0
210
0.0
220
0.0
230
1.0
  2
SOLID
 70
1
 71
0
 91
1
 92
3
 72
0
 73
1
 93
16
 10
445.6
 20
380.65
 10
445.5543277195068
 20
380.879610059419
 10
445.4242640687119
 20
381.0742640687119
 10
445.22961005941903
 20
381.20432771950675
 10
445.0
 20
381.25
 10
444.77038994058097
 20
381.20432771950675
 10
444.5757359312881
 20
381.0742640687119
 10
444.4456722804932
 20
380.879610059419
 10
444.4
 20
380.65
 10
444.4456722804932
 20
380.42038994058095
 10
444.5757359312881
 20
380.22573593128806
 10
444.77038994058097
 20
380.0956722804932
 10
445.0
 20
380.04999999999995
 10
445.22961005941903
 20
380.0956722804932
 10
445.4242640687119
 20
380.22573593128806
 10
445.5543277195068
 20
380.42038994058095
 97
0
 75
0
 76
1
 98
0
  0
CIRCLE
  5
14E
330
17
100
AcDbEntity
  8
S-REBAR-MAIN
100
AcDbCircle
 10
452.5
 20
380.65
 30
0.0
 40
0.6
  0
HATCH
  5
14F
330
17
100
AcDbEntity
  8
S-REBAR-MAIN
 62
1
100
AcDbHatch
 10
0.0
 20
0.0
 30
0.0
210
0.0
220
0.0
230
1.0
  2
SOLID
 70
1
 71
0
 91
1
 92
3
 72
0
 73
1
 93
16
 10
453.1
 20
380.65
 10
453.0543277195068
 20
380.879610059419
 10
452.9242640687119
 20
381.0742640687119
 10
452.72961005941903
 20
381.20432771950675
 10
452.5
 20
381.25
 10
452.27038994058097
 20
381.20432771950675
 10
452.0757359312881
 20
381.0742640687119
 10
451.9456722804932
 20
380.879610059419
 10
451.9
 20
380.65
 10
451.9456722804932
 20
380.42038994058095
 10
452.0757359312881
 20
380.22573593128806
 10
452.27038994058097
 20
380.0956722804932
 10
452.5
 20
380.04999999999995
 10
452.72961005941903
 20
380.0956722804932
 10
452.9242640687119
 20
380.22573593128806
 10
453.0543277195068
 20
380.42038994058095
 97
0
 75
0
 76
1
 98
0
  0
CIRCLE
  5
150
330
17
100
AcDbEntity
  8
S-REBAR-MAIN
100
AcDbCircle
 10
460.0
 20
380.65
 30
0.0
 40
0.6
  0
HATCH
  5
151
330
17
100
AcDbEntity
  8
S-REBAR-MAIN
 62
1
100
AcDbHatch
 10
0.0
 20
0.0
 30
0.0
210
0.0
220
0.0
230
1.0
  2
SOLID
 70
1
 71
0
 91
1
 92
3
 72
0
 73
1
 93
16
 10
460.6
 20
380.65
 10
460.5543277195068
 20
380.879610059419
 10
460.4242640687119
 20
381.0742640687119
 10
460.22961005941903
 20
381.20432771950675
 10
460.0
 20
381.25
 10
459.77038994058097
 20
381.20432771950675
 10
459.5757359312881
 20
381.0742640687119
 10
459.4456722804932
 20
380.879610059419
 10
459.4
 20
380.65
 10
459.4456722804932
 20
380.42038994058095
 10
459.5757359312881
 20
380.22573593128806
 10
459.77038994058097
 20
380.0956722804932
 10
460.0
 20
380.04999999999995
 10
460.22961005941903
 20
380.0956722804932
 10
460.4242640687119
 20
380.22573593128806
 10
460.5543277195068
 20
380.42038994058095
 97
0
 75
0
 76
1
 98
0
  0
CIRCLE
  5
152
330
17
100
AcDbEntity
  8
S-REBAR-MAIN
100
AcDbCircle
 10
467.5
 20
380.65
 30
0.0
 40
0.6
  0
HATCH
  5
153
330
17
100
AcDbEntity
  8
S-REBAR-MAIN
 62
1
100
AcDbHatch
 10
0.0
 20
0.0
 30
0.0
210
0.0
220
0.0
230
1.0
  2
SOLID
 70
1
 71
0
 91
1
 92
3
 72
0
 73
1
 93
16
 10
468.1
 20
380.65
 10
468.0543277195068
 20
380.879610059419
 10
467.9242640687119
 20
381.0742640687119
 10
467.72961005941903
 20
381.20432771950675
 10
467.5
 20
381.25
 10
467.27038994058097
 20
381.20432771950675
 10
467.0757359312881
 20
381.0742640687119
 10
466.9456722804932
 20
380.879610059419
 10
466.9
 20
380.65
 10
466.9456722804932
 20
380.42038994058095
 10
467.0757359312881
 20
380.22573593128806
 10
467.27038994058097
 20
380.0956722804932
 10
467.5
 20
380.04999999999995
 10
467.72961005941903
 20
380.0956722804932
 10
467.9242640687119
 20
380.22573593128806
 10
468.0543277195068
 20
380.42038994058095
 97
0
 75
0
 76
1
 98
0
  0
CIRCLE
  5
154
330
17
100
AcDbEntity
  8
S-REBAR-MAIN
100
AcDbCircle
 10
475.0
 20
380.65
 30
0.0
 40
0.6
  0
HATCH
  5
155
330
17
100
AcDbEntity
  8
S-REBAR-MAIN
 62
1
100
AcDbHatch
 10
0.0
 20
0.0
 30
0.0
210
0.0
220
0.0
230
1.0
  2
SOLID
 70
1
 71
0
 91
1
 92
3
 72
0
 73
1
 93
16
 10
475.6
 20
380.65
 10
475.5543277195068
 20
380.879610059419
 10
475.4242640687119
 20
381.0742640687119
 10
475.22961005941903
 20
381.20432771950675
 10
475.0
 20
381.25
 10
474.77038994058097
 20
381.20432771950675
 10
474.5757359312881
 20
381.0742640687119
 10
474.4456722804932
 20
380.879610059419
 10
474.4
 20
380.65
 10
474.4456722804932
 20
380.42038994058095
 10
474.5757359312881
 20
380.22573593128806
 10
474.77038994058097
 20
380.0956722804932
 10
475.0
 20
380.04999999999995
 10
475.22961005941903
 20
380.0956722804932
 10
475.4242640687119
 20
380.22573593128806
 10
475.5543277195068
 20
380.42038994058095
 97
0
 75
0
 76
1
 98
0
  0
CIRCLE
  5
156
330
17
100
AcDbEntity
  8
S-REBAR-MAIN
100
AcDbCircle
 10
482.5
 20
380.65
 30
0.0
 40
0.6
  0
HATCH
  5
157
330
17
100
AcDbEntity
  8
S-REBAR-MAIN
 62
1
100
AcDbHatch
 10
0.0
 20
0.0
 30
0.0
210
0.0
220
0.0
230
1.0
  2
SOLID
 70
1
 71
0
 91
1
 92
3
 72
0
 73
1
 93
16
 10
483.1
 20
380.65
 10
483.0543277195068
 20
380.879610059419
 10
482.9242640687119
 20
381.0742640687119
 10
482.72961005941903
 20
381.20432771950675
 10
482.5
 20
381.25
 10
482.27038994058097
 20
381.20432771950675
 10
482.0757359312881
 20
381.0742640687119
 10
481.9456722804932
 20
380.879610059419
 10
481.9
 20
380.65
 10
481.9456722804932
 20
380.42038994058095
 10
482.0757359312881
 20
380.22573593128806
 10
482.27038994058097
 20
380.0956722804932
 10
482.5
 20
380.04999999999995
 10
482.72961005941903
 20
380.0956722804932
 10
482.9242640687119
 20
380.22573593128806
 10
483.0543277195068
 20
380.42038994058095
 97
0
 75
0
 76
1
 98
0
  0
CIRCLE
  5
158
330
17
100
AcDbEntity
  8
S-REBAR-MAIN
100
AcDbCircle
 10
490.0
 20
380.65
 30
0.0
 40
0.6
  0
HATCH
  5
159
330
17
100
AcDbEntity
  8
S-REBAR-MAIN
 62
1
100
AcDbHatch
 10
0.0
 20
0.0
 30
0.0
210
0.0
220
0.0
230
1.0
  2
SOLID
 70
1
 71
0
 91
1
 92
3
 72
0
 73
1
 93
16
 10
490.6
 20
380.65
 10
490.5543277195068
 20
380.879610059419
 10
490.4242640687119
 20
381.0742640687119
 10
490.22961005941903
 20
381.20432771950675
 10
490.0
 20
381.25
 10
489.77038994058097
 20
381.20432771950675
 10
489.5757359312881
 20
381.0742640687119
 10
489.4456722804932
 20
380.879610059419
 10
489.4
 20
380.65
 10
489.4456722804932
 20
380.42038994058095
 10
489.5757359312881
 20
380.22573593128806
 10
489.77038994058097
 20
380.0956722804932
 10
490.0
 20
380.04999999999995
 10
490.22961005941903
 20
380.0956722804932
 10
490.4242640687119
 20
380.22573593128806
 10
490.5543277195068
 20
380.42038994058095
 97
0
 75
0
 76
1
 98
0
  0
CIRCLE
  5
15A
330
17
100
AcDbEntity
  8
S-REBAR-MAIN
100
AcDbCircle
 10
497.5
 20
380.65
 30
0.0
 40
0.6
  0
HATCH
  5
15B
330
17
100
AcDbEntity
  8
S-REBAR-MAIN
 62
1
100
AcDbHatch
 10
0.0
 20
0.0
 30
0.0
210
0.0
220
0.0
230
1.0
  2
SOLID
 70
1
 71
0
 91
1
 92
3
 72
0
 73
1
 93
16
 10
498.1
 20
380.65
 10
498.0543277195068
 20
380.879610059419
 10
497.9242640687119
 20
381.0742640687119
 10
497.72961005941903
 20
381.20432771950675
 10
497.5
 20
381.25
 10
497.27038994058097
 20
381.20432771950675
 10
497.0757359312881
 20
381.0742640687119
 10
496.9456722804932
 20
380.879610059419
 10
496.9
 20
380.65
 10
496.9456722804932
 20
380.42038994058095
 10
497.0757359312881
 20
380.22573593128806
 10
497.27038994058097
 20
380.0956722804932
 10
497.5
 20
380.04999999999995
 10
497.72961005941903
 20
380.0956722804932
 10
497.9242640687119
 20
380.22573593128806
 10
498.0543277195068
 20
380.42038994058095
 97
0
 75
0
 76
1
 98
0
  0
CIRCLE
  5
15C
330
17
100
AcDbEntity
  8
S-REBAR-MAIN
100
AcDbCircle
 10
505.0
 20
380.65
 30
0.0
 40
0.6
  0
HATCH
  5
15D
330
17
100
AcDbEntity
  8
S-REBAR-MAIN
 62
1
100
AcDbHatch
 10
0.0
 20
0.0
 30
0.0
210
0.0
220
0.0
230
1.0
  2
SOLID
 70
1
 71
0
 91
1
 92
3
 72
0
 73
1
 93
16
 10
505.6
 20
380.65
 10
505.5543277195068
 20
380.879610059419
 10
505.4242640687119
 20
381.0742640687119
 10
505.22961005941903
 20
381.20432771950675
 10
505.0
 20
381.25
 10
504.77038994058097
 20
381.20432771950675
 10
504.5757359312881
 20
381.0742640687119
 10
504.4456722804932
 20
380.879610059419
 10
504.4
 20
380.65
 10
504.4456722804932
 20
380.42038994058095
 10
504.5757359312881
 20
380.22573593128806
 10
504.77038994058097
 20
380.0956722804932
 10
505.0
 20
380.04999999999995
 10
505.22961005941903
 20
380.0956722804932
 10
505.4242640687119
 20
380.22573593128806
 10
505.5543277195068
 20
380.42038994058095
 97
0
 75
0
 76
1
 98
0
  0
CIRCLE
  5
15E
330
17
100
AcDbEntity
  8
S-REBAR-MAIN
100
AcDbCircle
 10
512.5
 20
380.65
 30
0.0
 40
0.6
  0
HATCH
  5
15F
330
17
100
AcDbEntity
  8
S-REBAR-MAIN
 62
1
100
AcDbHatch
 10
0.0
 20
0.0
 30
0.0
210
0.0
220
0.0
230
1.0
  2
SOLID
 70
1
 71
0
 91
1
 92
3
 72
0
 73
1
 93
16
 10
513.1
 20
380.65
 10
513.0543277195068
 20
380.879610059419
 10
512.924264068712
 20
381.0742640687119
 10
512.7296100594191
 20
381.20432771950675
 10
512.5
 20
381.25
 10
512.2703899405809
 20
381.20432771950675
 10
512.075735931288
 20
381.0742640687119
 10
511.9456722804932
 20
380.879610059419
 10
511.9
 20
380.65
 10
511.9456722804932
 20
380.42038994058095
 10
512.075735931288
 20
380.22573593128806
 10
512.2703899405809
 20
380.0956722804932
 10
512.5
 20
380.04999999999995
 10
512.7296100594191
 20
380.0956722804932
 10
512.924264068712
 20
380.22573593128806
 10
513.0543277195068
 20
380.42038994058095
 97
0
 75
0
 76
1
 98
0
  0
CIRCLE
  5
160
330
17
100
AcDbEntity
  8
S-REBAR-MAIN
100
AcDbCircle
 10
520.0
 20
380.65
 30
0.0
 40
0.6
  0
HATCH
  5
161
330
17
100
AcDbEntity
  8
S-REBAR-MAIN
 62
1
100
AcDbHatch
 10
0.0
 20
0.0
 30
0.0
210
0.0
220
0.0
230
1.0
  2
SOLID
 70
1
 71
0
 91
1
 92
3
 72
0
 73
1
 93
16
 10
520.6
 20
380.65
 10
520.5543277195068
 20
380.879610059419
 10
520.424264068712
 20
381.0742640687119
 10
520.2296100594191
 20
381.20432771950675
 10
520.0
 20
381.25
 10
519.7703899405809
 20
381.20432771950675
 10
519.575735931288
 20
381.0742640687119
 10
519.4456722804932
 20
380.879610059419
 10
519.4
 20
380.65
 10
519.4456722804932
 20
380.42038994058095
 10
519.575735931288
 20
380.22573593128806
 10
519.7703899405809
 20
380.0956722804932
 10
520.0
 20
380.04999999999995
 10
520.2296100594191
 20
380.0956722804932
 10
520.424264068712
 20
380.22573593128806
 10
520.5543277195068
 20
380.42038994058095
 97
0
 75
0
 76
1
 98
0
  0
CIRCLE
  5
162
330
17
100
AcDbEntity
  8
S-REBAR-MAIN
100
AcDbCircle
 10
407.5
 20
344.4
 30
0.0
 40
0.6
  0
HATCH
  5
163
330
17
100
AcDbEntity
  8
S-REBAR-MAIN
 62
1
100
AcDbHatch
 10
0.0
 20
0.0
 30
0.0
210
0.0
220
0.0
230
1.0
  2
SOLID
 70
1
 71
0
 91
1
 92
3
 72
0
 73
1
 93
16
 10
408.1
 20
344.4
 10
408.0543277195068
 20
344.629610059419
 10
407.9242640687119
 20
344.8242640687119
 10
407.72961005941903
 20
344.95432771950675
 10
407.5
 20
345.0
 10
407.27038994058097
 20
344.95432771950675
 10
407.0757359312881
 20
344.8242640687119
 10
406.9456722804932
 20
344.629610059419
 10
406.9
 20
344.4
 10
406.9456722804932
 20
344.17038994058095
 10
407.0757359312881
 20
343.97573593128806
 10
407.27038994058097
 20
343.8456722804932
 10
407.5
 20
343.79999999999995
 10
407.72961005941903
 20
343.8456722804932
 10
407.9242640687119
 20
343.97573593128806
 10
408.0543277195068
 20
344.17038994058095
 97
0
 75
0
 76
1
 98
0
  0
CIRCLE
  5
164
330
17
100
AcDbEntity
  8
S-REBAR-MAIN
100
AcDbCircle
 10
415.0
 20
344.4
 30
0.0
 40
0.6
  0
HATCH
  5
165
330
17
100
AcDbEntity
  8
S-REBAR-MAIN
 62
1
100
AcDbHatch
 10
0.0
 20
0.0
 30
0.0
210
0.0
220
0.0
230
1.0
  2
SOLID
 70
1
 71
0
 91
1
 92
3
 72
0
 73
1
 93
16
 10
415.6
 20
344.4
 10
415.5543277195068
 20
344.629610059419
 10
415.4242640687119
 20
344.8242640687119
 10
415.22961005941903
 20
344.95432771950675
 10
415.0
 20
345.0
 10
414.77038994058097
 20
344.95432771950675
 10
414.5757359312881
 20
344.8242640687119
 10
414.4456722804932
 20
344.629610059419
 10
414.4
 20
344.4
 10
414.4456722804932
 20
344.17038994058095
 10
414.5757359312881
 20
343.97573593128806
 10
414.77038994058097
 20
343.8456722804932
 10
415.0
 20
343.79999999999995
 10
415.22961005941903
 20
343.8456722804932
 10
415.4242640687119
 20
343.97573593128806
 10
415.5543277195068
 20
344.17038994058095
 97
0
 75
0
 76
1
 98
0
  0
CIRCLE
  5
166
330
17
100
AcDbEntity
  8
S-REBAR-MAIN
100
AcDbCircle
 10
422.5
 20
344.4
 30
0.0
 40
0.6
  0
HATCH
  5
167
330
17
100
AcDbEntity
  8
S-REBAR-MAIN
 62
1
100
AcDbHatch
 10
0.0
 20
0.0
 30
0.0
210
0.0
220
0.0
230
1.0
  2
SOLID
 70
1
 71
0
 91
1
 92
3
 72
0
 73
1
 93
16
 10
423.1
 20
344.4
 10
423.0543277195068
 20
344.629610059419
 10
422.9242640687119
 20
344.8242640687119
 10
422.72961005941903
 20
344.95432771950675
 10
422.5
 20
345.0
 10
422.27038994058097
 20
344.95432771950675
 10
422.0757359312881
 20
344.8242640687119
 10
421.9456722804932
 20
344.629610059419
 10
421.9
 20
344.4
 10
421.9456722804932
 20
344.17038994058095
 10
422.0757359312881
 20
343.97573593128806
 10
422.27038994058097
 20
343.8456722804932
 10
422.5
 20
343.79999999999995
 10
422.72961005941903
 20
343.8456722804932
 10
422.9242640687119
 20
343.97573593128806
 10
423.0543277195068
 20
344.17038994058095
 97
0
 75
0
 76
1
 98
0
  0
CIRCLE
  5
168
330
17
100
AcDbEntity
  8
S-REBAR-MAIN
100
AcDbCircle
 10
430.0
 20
344.4
 30
0.0
 40
0.6
  0
HATCH
  5
169
330
17
100
AcDbEntity
  8
S-REBAR-MAIN
 62
1
100
AcDbHatch
 10
0.0
 20
0.0
 30
0.0
210
0.0
220
0.0
230
1.0
  2
SOLID
 70
1
 71
0
 91
1
 92
3
 72
0
 73
1
 93
16
 10
430.6
 20
344.4
 10
430.5543277195068
 20
344.629610059419
 10
430.4242640687119
 20
344.8242640687119
 10
430.22961005941903
 20
344.95432771950675
 10
430.0
 20
345.0
 10
429.77038994058097
 20
344.95432771950675
 10
429.5757359312881
 20
344.8242640687119
 10
429.4456722804932
 20
344.629610059419
 10
429.4
 20
344.4
 10
429.4456722804932
 20
344.17038994058095
 10
429.5757359312881
 20
343.97573593128806
 10
429.77038994058097
 20
343.8456722804932
 10
430.0
 20
343.79999999999995
 10
430.22961005941903
 20
343.8456722804932
 10
430.4242640687119
 20
343.97573593128806
 10
430.5543277195068
 20
344.17038994058095
 97
0
 75
0
 76
1
 98
0
  0
CIRCLE
  5
16A
330
17
100
AcDbEntity
  8
S-REBAR-MAIN
100
AcDbCircle
 10
437.5
 20
344.4
 30
0.0
 40
0.6
  0
HATCH
  5
16B
330
17
100
AcDbEntity
  8
S-REBAR-MAIN
 62
1
100
AcDbHatch
 10
0.0
 20
0.0
 30
0.0
210
0.0
220
0.0
230
1.0
  2
SOLID
 70
1
 71
0
 91
1
 92
3
 72
0
 73
1
 93
16
 10
438.1
 20
344.4
 10
438.0543277195068
 20
344.629610059419
 10
437.9242640687119
 20
344.8242640687119
 10
437.72961005941903
 20
344.95432771950675
 10
437.5
 20
345.0
 10
437.27038994058097
 20
344.95432771950675
 10
437.0757359312881
 20
344.8242640687119
 10
436.9456722804932
 20
344.629610059419
 10
436.9
 20
344.4
 10
436.9456722804932
 20
344.17038994058095
 10
437.0757359312881
 20
343.97573593128806
 10
437.27038994058097
 20
343.8456722804932
 10
437.5
 20
343.79999999999995
 10
437.72961005941903
 20
343.8456722804932
 10
437.9242640687119
 20
343.97573593128806
 10
438.0543277195068
 20
344.17038994058095
 97
0
 75
0
 76
1
 98
0
  0
CIRCLE
  5
16C
330
17
100
AcDbEntity
  8
S-REBAR-MAIN
100
AcDbCircle
 10
445.0
 20
344.4
 30
0.0
 40
0.6
  0
HATCH
  5
16D
330
17
100
AcDbEntity
  8
S-REBAR-MAIN
 62
1
100
AcDbHatch
 10
0.0
 20
0.0
 30
0.0
210
0.0
220
0.0
230
1.0
  2
SOLID
 70
1
 71
0
 91
1
 92
3
 72
0
 73
1
 93
16
 10
445.6
 20
344.4
 10
445.5543277195068
 20
344.629610059419
 10
445.4242640687119
 20
344.8242640687119
 10
445.22961005941903
 20
344.95432771950675
 10
445.0
 20
345.0
 10
444.77038994058097
 20
344.95432771950675
 10
444.5757359312881
 20
344.8242640687119
 10
444.4456722804932
 20
344.629610059419
 10
444.4
 20
344.4
 10
444.4456722804932
 20
344.17038994058095
 10
444.5757359312881
 20
343.97573593128806
 10
444.77038994058097
 20
343.8456722804932
 10
445.0
 20
343.79999999999995
 10
445.22961005941903
 20
343.8456722804932
 10
445.4242640687119
 20
343.97573593128806
 10
445.5543277195068
 20
344.17038994058095
 97
0
 75
0
 76
1
 98
0
  0
CIRCLE
  5
16E
330
17
100
AcDbEntity
  8
S-REBAR-MAIN
100
AcDbCircle
 10
452.5
 20
344.4
 30
0.0
 40
0.6
  0
HATCH
  5
16F
330
17
100
AcDbEntity
  8
S-REBAR-MAIN
 62
1
100
AcDbHatch
 10
0.0
 20
0.0
 30
0.0
210
0.0
220
0.0
230
1.0
  2
SOLID
 70
1
 71
0
 91
1
 92
3
 72
0
 73
1
 93
16
 10
453.1
 20
344.4
 10
453.0543277195068
 20
344.629610059419
 10
452.9242640687119
 20
344.8242640687119
 10
452.72961005941903
 20
344.95432771950675
 10
452.5
 20
345.0
 10
452.27038994058097
 20
344.95432771950675
 10
452.0757359312881
 20
344.8242640687119
 10
451.9456722804932
 20
344.629610059419
 10
451.9
 20
344.4
 10
451.9456722804932
 20
344.17038994058095
 10
452.0757359312881
 20
343.97573593128806
 10
452.27038994058097
 20
343.8456722804932
 10
452.5
 20
343.79999999999995
 10
452.72961005941903
 20
343.8456722804932
 10
452.9242640687119
 20
343.97573593128806
 10
453.0543277195068
 20
344.17038994058095
 97
0
 75
0
 76
1
 98
0
  0
CIRCLE
  5
170
330
17
100
AcDbEntity
  8
S-REBAR-MAIN
100
AcDbCircle
 10
460.0
 20
344.4
 30
0.0
 40
0.6
  0
HATCH
  5
171
330
17
100
AcDbEntity
  8
S-REBAR-MAIN
 62
1
100
AcDbHatch
 10
0.0
 20
0.0
 30
0.0
210
0.0
220
0.0
230
1.0
  2
SOLID
 70
1
 71
0
 91
1
 92
3
 72
0
 73
1
 93
16
 10
460.6
 20
344.4
 10
460.5543277195068
 20
344.629610059419
 10
460.4242640687119
 20
344.8242640687119
 10
460.22961005941903
 20
344.95432771950675
 10
460.0
 20
345.0
 10
459.77038994058097
 20
344.95432771950675
 10
459.5757359312881
 20
344.8242640687119
 10
459.4456722804932
 20
344.629610059419
 10
459.4
 20
344.4
 10
459.4456722804932
 20
344.17038994058095
 10
459.5757359312881
 20
343.97573593128806
 10
459.77038994058097
 20
343.8456722804932
 10
460.0
 20
343.79999999999995
 10
460.22961005941903
 20
343.8456722804932
 10
460.4242640687119
 20
343.97573593128806
 10
460.5543277195068
 20
344.17038994058095
 97
0
 75
0
 76
1
 98
0
  0
CIRCLE
  5
172
330
17
100
AcDbEntity
  8
S-REBAR-MAIN
100
AcDbCircle
 10
467.5
 20
344.4
 30
0.0
 40
0.6
  0
HATCH
  5
173
330
17
100
AcDbEntity
  8
S-REBAR-MAIN
 62
1
100
AcDbHatch
 10
0.0
 20
0.0
 30
0.0
210
0.0
220
0.0
230
1.0
  2
SOLID
 70
1
 71
0
 91
1
 92
3
 72
0
 73
1
 93
16
 10
468.1
 20
344.4
 10
468.0543277195068
 20
344.629610059419
 10
467.9242640687119
 20
344.8242640687119
 10
467.72961005941903
 20
344.95432771950675
 10
467.5
 20
345.0
 10
467.27038994058097
 20
344.95432771950675
 10
467.0757359312881
 20
344.8242640687119
 10
466.9456722804932
 20
344.629610059419
 10
466.9
 20
344.4
 10
466.9456722804932
 20
344.17038994058095
 10
467.0757359312881
 20
343.97573593128806
 10
467.27038994058097
 20
343.8456722804932
 10
467.5
 20
343.79999999999995
 10
467.72961005941903
 20
343.8456722804932
 10
467.9242640687119
 20
343.97573593128806
 10
468.0543277195068
 20
344.17038994058095
 97
0
 75
0
 76
1
 98
0
  0
CIRCLE
  5
174
330
17
100
AcDbEntity
  8
S-REBAR-MAIN
100
AcDbCircle
 10
475.0
 20
344.4
 30
0.0
 40
0.6
  0
HATCH
  5
175
330
17
100
AcDbEntity
  8
S-REBAR-MAIN
 62
1
100
AcDbHatch
 10
0.0
 20
0.0
 30
0.0
210
0.0
220
0.0
230
1.0
  2
SOLID
 70
1
 71
0
 91
1
 92
3
 72
0
 73
1
 93
16
 10
475.6
 20
344.4
 10
475.5543277195068
 20
344.629610059419
 10
475.4242640687119
 20
344.8242640687119
 10
475.22961005941903
 20
344.95432771950675
 10
475.0
 20
345.0
 10
474.77038994058097
 20
344.95432771950675
 10
474.5757359312881
 20
344.8242640687119
 10
474.4456722804932
 20
344.629610059419
 10
474.4
 20
344.4
 10
474.4456722804932
 20
344.17038994058095
 10
474.5757359312881
 20
343.97573593128806
 10
474.77038994058097
 20
343.8456722804932
 10
475.0
 20
343.79999999999995
 10
475.22961005941903
 20
343.8456722804932
 10
475.4242640687119
 20
343.97573593128806
 10
475.5543277195068
 20
344.17038994058095
 97
0
 75
0
 76
1
 98
0
  0
CIRCLE
  5
176
330
17
100
AcDbEntity
  8
S-REBAR-MAIN
100
AcDbCircle
 10
482.5
 20
344.4
 30
0.0
 40
0.6
  0
HATCH
  5
177
330
17
100
AcDbEntity
  8
S-REBAR-MAIN
 62
1
100
AcDbHatch
 10
0.0
 20
0.0
 30
0.0
210
0.0
220
0.0
230
1.0
  2
SOLID
 70
1
 71
0
 91
1
 92
3
 72
0
 73
1
 93
16
 10
483.1
 20
344.4
 10
483.0543277195068
 20
344.629610059419
 10
482.9242640687119
 20
344.8242640687119
 10
482.72961005941903
 20
344.95432771950675
 10
482.5
 20
345.0
 10
482.27038994058097
 20
344.95432771950675
 10
482.0757359312881
 20
344.8242640687119
 10
481.9456722804932
 20
344.629610059419
 10
481.9
 20
344.4
 10
481.9456722804932
 20
344.17038994058095
 10
482.0757359312881
 20
343.97573593128806
 10
482.27038994058097
 20
343.8456722804932
 10
482.5
 20
343.79999999999995
 10
482.72961005941903
 20
343.8456722804932
 10
482.9242640687119
 20
343.97573593128806
 10
483.0543277195068
 20
344.17038994058095
 97
0
 75
0
 76
1
 98
0
  0
CIRCLE
  5
178
330
17
100
AcDbEntity
  8
S-REBAR-MAIN
100
AcDbCircle
 10
490.0
 20
344.4
 30
0.0
 40
0.6
  0
HATCH
  5
179
330
17
100
AcDbEntity
  8
S-REBAR-MAIN
 62
1
100
AcDbHatch
 10
0.0
 20
0.0
 30
0.0
210
0.0
220
0.0
230
1.0
  2
SOLID
 70
1
 71
0
 91
1
 92
3
 72
0
 73
1
 93
16
 10
490.6
 20
344.4
 10
490.5543277195068
 20
344.629610059419
 10
490.4242640687119
 20
344.8242640687119
 10
490.22961005941903
 20
344.95432771950675
 10
490.0
 20
345.0
 10
489.77038994058097
 20
344.95432771950675
 10
489.5757359312881
 20
344.8242640687119
 10
489.4456722804932
 20
344.629610059419
 10
489.4
 20
344.4
 10
489.4456722804932
 20
344.17038994058095
 10
489.5757359312881
 20
343.97573593128806
 10
489.77038994058097
 20
343.8456722804932
 10
490.0
 20
343.79999999999995
 10
490.22961005941903
 20
343.8456722804932
 10
490.4242640687119
 20
343.97573593128806
 10
490.5543277195068
 20
344.17038994058095
 97
0
 75
0
 76
1
 98
0
  0
CIRCLE
  5
17A
330
17
100
AcDbEntity
  8
S-REBAR-MAIN
100
AcDbCircle
 10
497.5
 20
344.4
 30
0.0
 40
0.6
  0
HATCH
  5
17B
330
17
100
AcDbEntity
  8
S-REBAR-MAIN
 62
1
100
AcDbHatch
 10
0.0
 20
0.0
 30
0.0
210
0.0
220
0.0
230
1.0
  2
SOLID
 70
1
 71
0
 91
1
 92
3
 72
0
 73
1
 93
16
 10
498.1
 20
344.4
 10
498.0543277195068
 20
344.629610059419
 10
497.9242640687119
 20
344.8242640687119
 10
497.72961005941903
 20
344.95432771950675
 10
497.5
 20
345.0
 10
497.27038994058097
 20
344.95432771950675
 10
497.0757359312881
 20
344.8242640687119
 10
496.9456722804932
 20
344.629610059419
 10
496.9
 20
344.4
 10
496.9456722804932
 20
344.17038994058095
 10
497.0757359312881
 20
343.97573593128806
 10
497.27038994058097
 20
343.8456722804932
 10
497.5
 20
343.79999999999995
 10
497.72961005941903
 20
343.8456722804932
 10
497.9242640687119
 20
343.97573593128806
 10
498.0543277195068
 20
344.17038994058095
 97
0
 75
0
 76
1
 98
0
  0
CIRCLE
  5
17C
330
17
100
AcDbEntity
  8
S-REBAR-MAIN
100
AcDbCircle
 10
505.0
 20
344.4
 30
0.0
 40
0.6
  0
HATCH
  5
17D
330
17
100
AcDbEntity
  8
S-REBAR-MAIN
 62
1
100
AcDbHatch
 10
0.0
 20
0.0
 30
0.0
210
0.0
220
0.0
230
1.0
  2
SOLID
 70
1
 71
0
 91
1
 92
3
 72
0
 73
1
 93
16
 10
505.6
 20
344.4
 10
505.5543277195068
 20
344.629610059419
 10
505.4242640687119
 20
344.8242640687119
 10
505.22961005941903
 20
344.95432771950675
 10
505.0
 20
345.0
 10
504.77038994058097
 20
344.95432771950675
 10
504.5757359312881
 20
344.8242640687119
 10
504.4456722804932
 20
344.629610059419
 10
504.4
 20
344.4
 10
504.4456722804932
 20
344.17038994058095
 10
504.5757359312881
 20
343.97573593128806
 10
504.77038994058097
 20
343.8456722804932
 10
505.0
 20
343.79999999999995
 10
505.22961005941903
 20
343.8456722804932
 10
505.4242640687119
 20
343.97573593128806
 10
505.5543277195068
 20
344.17038994058095
 97
0
 75
0
 76
1
 98
0
  0
CIRCLE
  5
17E
330
17
100
AcDbEntity
  8
S-REBAR-MAIN
100
AcDbCircle
 10
512.5
 20
344.4
 30
0.0
 40
0.6
  0
HATCH
  5
17F
330
17
100
AcDbEntity
  8
S-REBAR-MAIN
 62
1
100
AcDbHatch
 10
0.0
 20
0.0
 30
0.0
210
0.0
220
0.0
230
1.0
  2
SOLID
 70
1
 71
0
 91
1
 92
3
 72
0
 73
1
 93
16
 10
513.1
 20
344.4
 10
513.0543277195068
 20
344.629610059419
 10
512.924264068712
 20
344.8242640687119
 10
512.7296100594191
 20
344.95432771950675
 10
512.5
 20
345.0
 10
512.2703899405809
 20
344.95432771950675
 10
512.075735931288
 20
344.8242640687119
 10
511.9456722804932
 20
344.629610059419
 10
511.9
 20
344.4
 10
511.9456722804932
 20
344.17038994058095
 10
512.075735931288
 20
343.97573593128806
 10
512.2703899405809
 20
343.8456722804932
 10
512.5
 20
343.79999999999995
 10
512.7296100594191
 20
343.8456722804932
 10
512.924264068712
 20
343.97573593128806
 10
513.0543277195068
 20
344.17038994058095
 97
0
 75
0
 76
1
 98
0
  0
CIRCLE
  5
180
330
17
100
AcDbEntity
  8
S-REBAR-MAIN
100
AcDbCircle
 10
520.0
 20
344.4
 30
0.0
 40
0.6
  0
HATCH
  5
181
330
17
100
AcDbEntity
  8
S-REBAR-MAIN
 62
1
100
AcDbHatch
 10
0.0
 20
0.0
 30
0.0
210
0.0
220
0.0
230
1.0
  2
SOLID
 70
1
 71
0
 91
1
 92
3
 72
0
 73
1
 93
16
 10
520.6
 20
344.4
 10
520.5543277195068
 20
344.629610059419
 10
520.424264068712
 20
344.8242640687119
 10
520.2296100594191
 20
344.95432771950675
 10
520.0
 20
345.0
 10
519.7703899405809
 20
344.95432771950675
 10
519.575735931288
 20
344.8242640687119
 10
519.4456722804932
 20
344.629610059419
 10
519.4
 20
344.4
 10
519.4456722804932
 20
344.17038994058095
 10
519.575735931288
 20
343.97573593128806
 10
519.7703899405809
 20
343.8456722804932
 10
520.0
 20
343.79999999999995
 10
520.2296100594191
 20
343.8456722804932
 10
520.424264068712
 20
343.97573593128806
 10
520.5543277195068
 20
344.17038994058095
 97
0
 75
0
 76
1
 98
0
  0
DIMENSION
  5
182
330
17
100
AcDbEntity
  8
S-DIM
100
AcDbDimension
280
0
  2
*D2
  3
SC-DIM
 10
380.0
 20
340.0
 30
0.0
 11
378.3
 21
362.5
 31
0.0
 70
32
 71
5
  1
<>
100
AcDbAlignedDimension
 13
400.0
 23
340.0
 33
0.0
 14
400.0
 24
385.0
 34
0.0
 50
90.0
100
AcDbRotatedDimension
1001
ACAD
1000
DSTYLE
1002
{
1070
144
1040
20.0
1002
}
  0
TEXT
  5
191
330
17
100
AcDbEntity
  8
S-TITLE
100
AcDbText
 10
370.0
 20
552.0
 30
0.0
 40
3.5
  1
D2   ROOF WATERPROOFING AND THE SCREED
  7
OpenSans
 11
370.0
 21
552.0
 31
0.0
100
AcDbText
  0
LINE
  5
192
330
17
100
AcDbEntity
  8
S-TITLE
100
AcDbLine
 10
370.0
 20
550.2
 30
0.0
 11
457.78
 21
550.2
 31
0.0
  0
TEXT
  5
193
330
17
100
AcDbEntity
  8
S-TEXT
100
AcDbText
 10
370.0
 20
544.8
 30
0.0
 40
2.0
  1
SCALE 1:20
  7
OpenSans
 11
370.0
 21
544.8
 31
0.0
100
AcDbText
  0
TEXT
  5
194
330
17
100
AcDbEntity
  8
S-TITLE
100
AcDbText
 10
32.0
 20
236.6
 30
0.0
 40
2.5
  1
THE INTERFACE THE REINFORCEMENT DEPENDS ON
  7
OpenSans
 11
32.0
 21
236.6
 31
0.0
100
AcDbText
  0
TEXT
  5
195
330
17
100
AcDbEntity
  8
S-NOTE
100
AcDbText
 10
32.0
 20
232.6
 30
0.0
 40
1.4
  1
WHY A WATERPROOFING SHEET SITS IN A REINFORCEMENT PACKAGE
  7
OpenSans
 11
32.0
 21
232.6
 31
0.0
100
AcDbText
  0
TEXT
  5
196
330
17
100
AcDbEntity
  8
S-NOTE
100
AcDbText
 10
32.0
 20
229.54999999999998
 30
0.0
 40
1.4
  1

  7
OpenSans
 11
32.0
 21
229.54999999999998
 31
0.0
100
AcDbText
  0
TEXT
  5
197
330
17
100
AcDbEntity
  8
S-NOTE
100
AcDbText
 10
32.0
 20
226.49999999999997
 30
0.0
 40
1.4
  1
THE WATER IS NOT AN ARCHITECTURAL PROBLEM HERE - IT IS THE LOAD.
  7
OpenSans
 11
32.0
 21
226.49999999999997
 31
0.0
100
AcDbText
  0
TEXT
  5
198
330
17
100
AcDbEntity
  8
S-NOTE
100
AcDbText
 10
32.0
 20
223.44999999999996
 30
0.0
 40
1.4
  1
  ·  Of the 15.41 kPa/m lateral gradient on the walls, 9.81 IS WATER and
  7
OpenSans
 11
32.0
 21
223.44999999999996
 31
0.0
100
AcDbText
  0
TEXT
  5
199
330
17
100
AcDbEntity
  8
S-NOTE
100
AcDbText
 10
32.0
 20
220.39999999999995
 30
0.0
 40
1.4
  1
     only 5.60 is soil.  WATER IS NEARLY TWO-THIRDS OF THE LATERAL LOAD.
  7
OpenSans
 11
32.0
 21
220.39999999999995
 31
0.0
100
AcDbText
  0
TEXT
  5
19A
330
17
100
AcDbEntity
  8
S-NOTE
100
AcDbText
 10
32.0
 20
217.34999999999994
 30
0.0
 40
1.4
  1
  ·  The whole 46.11 kPa uplift on the mat is water.
  7
OpenSans
 11
32.0
 21
217.34999999999994
 31
0.0
100
AcDbText
  0
TEXT
  5
19B
330
17
100
AcDbEntity
  8
S-NOTE
100
AcDbText
 10
32.0
 20
214.29999999999993
 30
0.0
 40
1.4
  1
  ·  Both depend entirely on A2: DESIGN GWT (-)2.000, WHICH IS [ASSUMED]
  7
OpenSans
 11
32.0
 21
214.29999999999993
 31
0.0
100
AcDbText
  0
TEXT
  5
19C
330
17
100
AcDbEntity
  8
S-NOTE
100
AcDbText
 10
32.0
 20
211.24999999999991
 30
0.0
 40
1.4
  1
     AND REQUIRES MONSOON-SEASON MONITORING.
  7
OpenSans
 11
32.0
 21
211.24999999999991
 31
0.0
100
AcDbText
  0
TEXT
  5
19D
330
17
100
AcDbEntity
  8
S-NOTE
100
AcDbText
 10
32.0
 20
208.1999999999999
 30
0.0
 40
1.4
  1

  7
OpenSans
 11
32.0
 21
208.1999999999999
 31
0.0
100
AcDbText
  0
TEXT
  5
19E
330
17
100
AcDbEntity
  8
S-NOTE
100
AcDbText
 10
32.0
 20
205.1499999999999
 30
0.0
 40
1.4
  1
THE STEEL IN THIS PACKAGE IS SIZED ON THAT ASSUMPTION.  If the monsoon
  7
OpenSans
 11
32.0
 21
205.1499999999999
 31
0.0
100
AcDbText
  0
TEXT
  5
19F
330
17
100
AcDbEntity
  8
S-NOTE
100
AcDbText
 10
32.0
 20
202.09999999999988
 30
0.0
 40
1.4
  1
groundwater level is higher than (-)2.000, the wall moments, the mat
  7
OpenSans
 11
32.0
 21
202.09999999999988
 31
0.0
100
AcDbText
  0
TEXT
  5
1A0
330
17
100
AcDbEntity
  8
S-NOTE
100
AcDbText
 10
32.0
 20
199.04999999999987
 30
0.0
 40
1.4
  1
case and the flotation factors all move.
  7
OpenSans
 11
32.0
 21
199.04999999999987
 31
0.0
100
AcDbText
  0
TEXT
  5
1A1
330
17
100
AcDbEntity
  8
S-NOTE
100
AcDbText
 10
32.0
 20
195.99999999999986
 30
0.0
 40
1.4
  1

  7
OpenSans
 11
32.0
 21
195.99999999999986
 31
0.0
100
AcDbText
  0
TEXT
  5
1A2
330
17
100
AcDbEntity
  8
S-NOTE
100
AcDbText
 10
32.0
 20
192.94999999999985
 30
0.0
 40
1.4
  1
INTERFACE REQUIREMENTS
  7
OpenSans
 11
32.0
 21
192.94999999999985
 31
0.0
100
AcDbText
  0
TEXT
  5
1A3
330
17
100
AcDbEntity
  8
S-NOTE
100
AcDbText
 10
32.0
 20
189.89999999999984
 30
0.0
 40
1.4
  1
  1  Tanking membrane on the blinding, turned up the external face and
  7
OpenSans
 11
32.0
 21
189.89999999999984
 31
0.0
100
AcDbText
  0
TEXT
  5
1A4
330
17
100
AcDbEntity
  8
S-NOTE
100
AcDbText
 10
32.0
 20
186.84999999999982
 30
0.0
 40
1.4
  1
     lapped to the roof membrane - a continuous tank.
  7
OpenSans
 11
32.0
 21
186.84999999999982
 31
0.0
100
AcDbText
  0
TEXT
  5
1A5
330
17
100
AcDbEntity
  8
S-NOTE
100
AcDbText
 10
32.0
 20
183.7999999999998
 30
0.0
 40
1.4
  1
  2  100 mm protection screed over the roof membrane; it is also the
  7
OpenSans
 11
32.0
 21
183.7999999999998
 31
0.0
100
AcDbText
  0
TEXT
  5
1A6
330
17
100
AcDbEntity
  8
S-NOTE
100
AcDbText
 10
32.0
 20
180.7499999999998
 30
0.0
 40
1.4
  1
     first layer of the engineered cover.
  7
OpenSans
 11
32.0
 21
180.7499999999998
 31
0.0
100
AcDbText
  0
TEXT
  5
1A7
330
17
100
AcDbEntity
  8
S-NOTE
100
AcDbText
 10
32.0
 20
177.6999999999998
 30
0.0
 40
1.4
  1
  3  TWO WATERSTOPS AT EVERY CONSTRUCTION JOINT - R-804.
  7
OpenSans
 11
32.0
 21
177.6999999999998
 31
0.0
100
AcDbText
  0
TEXT
  5
1A8
330
17
100
AcDbEntity
  8
S-NOTE
100
AcDbText
 10
32.0
 20
174.64999999999978
 30
0.0
 40
1.4
  1
  4  INTEGRAL CRYSTALLINE WATERPROOFING ADMIXTURE in the concrete; the
  7
OpenSans
 11
32.0
 21
174.64999999999978
 31
0.0
100
AcDbText
  0
TEXT
  5
1A9
330
17
100
AcDbEntity
  8
S-NOTE
100
AcDbText
 10
32.0
 20
171.59999999999977
 30
0.0
 40
1.4
  1
     membrane is not the only line of defence.
  7
OpenSans
 11
32.0
 21
171.59999999999977
 31
0.0
100
AcDbText
  0
TEXT
  5
1AA
330
17
100
AcDbEntity
  8
S-NOTE
100
AcDbText
 10
32.0
 20
168.54999999999976
 30
0.0
 40
1.4
  1
  5  IS 3370 crack control: 0.2 mm limit, satisfied by the 0.35 % surface-
  7
OpenSans
 11
32.0
 21
168.54999999999976
 31
0.0
100
AcDbText
  0
TEXT
  5
1AB
330
17
100
AcDbEntity
  8
S-NOTE
100
AcDbText
 10
32.0
 20
165.49999999999974
 30
0.0
 40
1.4
  1
     zone steel over a 250 mm zone, NOT BY CALCULATION - see QA/QC R-11.
  7
OpenSans
 11
32.0
 21
165.49999999999974
 31
0.0
100
AcDbText
  0
TEXT
  5
1AC
330
17
100
AcDbEntity
  8
S-NOTE
100
AcDbText
 10
32.0
 20
162.44999999999973
 30
0.0
 40
1.4
  1
  6  NO COVER IS REDUCED FOR WATERPROOFING.  The membrane is outside the
  7
OpenSans
 11
32.0
 21
162.44999999999973
 31
0.0
100
AcDbText
  0
TEXT
  5
1AD
330
17
100
AcDbEntity
  8
S-NOTE
100
AcDbText
 10
32.0
 20
159.39999999999972
 30
0.0
 40
1.4
  1
     structural section and adds nothing to the cover.
  7
OpenSans
 11
32.0
 21
159.39999999999972
 31
0.0
100
AcDbText
  0
LWPOLYLINE
  5
1AE
330
17
100
AcDbEntity
  8
S-TITLE
100
AcDbPolyline
 90
4
 70
1
 10
30.0
 20
154.3499999999997
 10
330.0
 20
154.3499999999997
 10
330.0
 20
240.0
 10
30.0
 20
240.0
  0
TEXT
  5
1AF
330
17
100
AcDbEntity
  8
S-TITLE
100
AcDbText
 10
342.0
 20
236.6
 30
0.0
 40
2.5
  1
FLOTATION - THE CONSTRUCTION STAGE GOVERNS
  7
OpenSans
 11
342.0
 21
236.6
 31
0.0
100
AcDbText
  0
TEXT
  5
1B0
330
17
100
AcDbEntity
  8
S-NOTE
100
AcDbText
 10
342.0
 20
232.6
 30
0.0
 40
1.4
  1
STAGE                       WEIGHT  UPLIFT  FoS @(-)2.000  FLOODED
  7
OpenSans
 11
342.0
 21
232.6
 31
0.0
100
AcDbText
  0
TEXT
  5
1B1
330
17
100
AcDbEntity
  8
S-NOTE
100
AcDbText
 10
342.0
 20
229.54999999999998
 30
0.0
 40
1.4
  1
1 mat cast only              2 009   6 175    0.33 FAIL     0.23 FAIL
  7
OpenSans
 11
342.0
 21
229.54999999999998
 31
0.0
100
AcDbText
  0
TEXT
  5
1B2
330
17
100
AcDbEntity
  8
S-NOTE
100
AcDbText
 10
342.0
 20
226.49999999999997
 30
0.0
 40
1.4
  1
2 mat + walls, no roof       4 802   6 175    0.78 FAIL     0.55 FAIL
  7
OpenSans
 11
342.0
 21
226.49999999999997
 31
0.0
100
AcDbText
  0
TEXT
  5
1B3
330
17
100
AcDbEntity
  8
S-NOTE
100
AcDbText
 10
342.0
 20
223.44999999999996
 30
0.0
 40
1.4
  1
3 box complete, no backfill  7 528   6 175    1.22 MARGINAL 0.86 FLOATS
  7
OpenSans
 11
342.0
 21
223.44999999999996
 31
0.0
100
AcDbText
  0
TEXT
  5
1B4
330
17
100
AcDbEntity
  8
S-NOTE
100
AcDbText
 10
342.0
 20
220.39999999999995
 30
0.0
 40
1.4
  1
4 backfilled + cover        12 453   6 175    2.02 OK       1.41 OK
  7
OpenSans
 11
342.0
 21
220.39999999999995
 31
0.0
100
AcDbText
  0
TEXT
  5
1B5
330
17
100
AcDbEntity
  8
S-NOTE
100
AcDbText
 10
342.0
 20
217.34999999999994
 30
0.0
 40
1.4
  1

  7
OpenSans
 11
342.0
 21
217.34999999999994
 31
0.0
100
AcDbText
  0
TEXT
  5
1B6
330
17
100
AcDbEntity
  8
S-NOTE
100
AcDbText
 10
342.0
 20
214.29999999999993
 30
0.0
 40
1.4
  1
MANDATORY MITIGATION - A DESIGN OUTPUT, NOT A CONTRACTOR'S PROBLEM
  7
OpenSans
 11
342.0
 21
214.29999999999993
 31
0.0
100
AcDbText
  0
TEXT
  5
1B7
330
17
100
AcDbEntity
  8
S-NOTE
100
AcDbText
 10
342.0
 20
211.24999999999991
 30
0.0
 40
1.4
  1
  1  Continuous dewatering from the start of excavation until backfill
  7
OpenSans
 11
342.0
 21
211.24999999999991
 31
0.0
100
AcDbText
  0
TEXT
  5
1B8
330
17
100
AcDbEntity
  8
S-NOTE
100
AcDbText
 10
342.0
 20
208.1999999999999
 30
0.0
 40
1.4
  1
     and cover are complete.
  7
OpenSans
 11
342.0
 21
208.1999999999999
 31
0.0
100
AcDbText
  0
TEXT
  5
1B9
330
17
100
AcDbEntity
  8
S-NOTE
100
AcDbText
 10
342.0
 20
205.1499999999999
 30
0.0
 40
1.4
  1
  2  Temporary pressure-relief valves / knock-out plugs in the mat,
  7
OpenSans
 11
342.0
 21
205.1499999999999
 31
0.0
100
AcDbText
  0
TEXT
  5
1BA
330
17
100
AcDbEntity
  8
S-NOTE
100
AcDbText
 10
342.0
 20
202.09999999999988
 30
0.0
 40
1.4
  1
     6 No., grouted up ONLY AFTER backfill.
  7
OpenSans
 11
342.0
 21
202.09999999999988
 31
0.0
100
AcDbText
  0
TEXT
  5
1BB
330
17
100
AcDbEntity
  8
S-NOTE
100
AcDbText
 10
342.0
 20
199.04999999999987
 30
0.0
 40
1.4
  1
  3  Programme the sub-structure to complete before the monsoon, or bund
  7
OpenSans
 11
342.0
 21
199.04999999999987
 31
0.0
100
AcDbText
  0
TEXT
  5
1BC
330
17
100
AcDbEntity
  8
S-NOTE
100
AcDbText
 10
342.0
 20
195.99999999999986
 30
0.0
 40
1.4
  1
     and positively drain with standby pumping and generator back-up.
  7
OpenSans
 11
342.0
 21
195.99999999999986
 31
0.0
100
AcDbText
  0
TEXT
  5
1BD
330
17
100
AcDbEntity
  8
S-NOTE
100
AcDbText
 10
342.0
 20
192.94999999999985
 30
0.0
 40
1.4
  1
  4  Backfill SYMMETRICALLY, in layers.
  7
OpenSans
 11
342.0
 21
192.94999999999985
 31
0.0
100
AcDbText
  0
TEXT
  5
1BE
330
17
100
AcDbEntity
  8
S-NOTE
100
AcDbText
 10
342.0
 20
189.89999999999984
 30
0.0
 40
1.4
  1

  7
OpenSans
 11
342.0
 21
189.89999999999984
 31
0.0
100
AcDbText
  0
TEXT
  5
1BF
330
17
100
AcDbEntity
  8
S-NOTE
100
AcDbText
 10
342.0
 20
186.84999999999982
 30
0.0
 40
1.4
  1
FLOTATION CANNOT BE READ OFF THE STAAD MODEL.  The elastic-mat springs
  7
OpenSans
 11
342.0
 21
186.84999999999982
 31
0.0
100
AcDbText
  0
TEXT
  5
1C0
330
17
100
AcDbEntity
  8
S-NOTE
100
AcDbText
 10
342.0
 20
183.7999999999998
 30
0.0
 40
1.4
  1
TAKE TENSION, so the mat never lifts in the model.  It is a HAND CHECK
  7
OpenSans
 11
342.0
 21
183.7999999999998
 31
0.0
100
AcDbText
  0
TEXT
  5
1C1
330
17
100
AcDbEntity
  8
S-NOTE
100
AcDbText
 10
342.0
 20
180.7499999999998
 30
0.0
 40
1.4
  1
on real dimensions and real weights.  Anyone who says the analysis shows
  7
OpenSans
 11
342.0
 21
180.7499999999998
 31
0.0
100
AcDbText
  0
TEXT
  5
1C2
330
17
100
AcDbEntity
  8
S-NOTE
100
AcDbText
 10
342.0
 20
177.6999999999998
 30
0.0
 40
1.4
  1
no uplift has misunderstood their own model.
  7
OpenSans
 11
342.0
 21
177.6999999999998
 31
0.0
100
AcDbText
  0
LWPOLYLINE
  5
1C3
330
17
100
AcDbEntity
  8
S-TITLE
100
AcDbPolyline
 90
4
 70
1
 10
340.0
 20
172.64999999999978
 10
638.0
 20
172.64999999999978
 10
638.0
 20
240.0
 10
340.0
 20
240.0
  0
TEXT
  5
1C4
330
17
100
AcDbEntity
  8
S-TITLE
100
AcDbText
 10
650.0
 20
548.6
 30
0.0
 40
2.5
  1
MATERIALS, COVER AND ANCHORAGE
  7
OpenSans
 11
650.0
 21
548.6
 31
0.0
100
AcDbText
  0
TEXT
  5
1C5
330
17
100
AcDbEntity
  8
S-NOTE
100
AcDbText
 10
650.0
 20
544.6
 30
0.0
 40
1.4
  1
CONCRETE          M35 to IS 456 Table 5.  w/c <= 0.45, cement >= 340 kg/m3.
  7
OpenSans
 11
650.0
 21
544.6
 31
0.0
100
AcDbText
  0
TEXT
  5
1C6
330
17
100
AcDbEntity
  8
S-NOTE
100
AcDbText
 10
650.0
 20
541.6
 30
0.0
 40
1.4
  1
                  Integral crystalline waterproofing admixture.
  7
OpenSans
 11
650.0
 21
541.6
 31
0.0
100
AcDbText
  0
TEXT
  5
1C7
330
17
100
AcDbEntity
  8
S-NOTE
100
AcDbText
 10
650.0
 20
538.6
 30
0.0
 40
1.4
  1
                  Blinding M15, 100 thk.
  7
OpenSans
 11
650.0
 21
538.6
 31
0.0
100
AcDbText
  0
TEXT
  5
1C8
330
17
100
AcDbEntity
  8
S-NOTE
100
AcDbText
 10
650.0
 20
535.6
 30
0.0
 40
1.4
  1
REINFORCEMENT     Fe500D to IS 1786:2008.
  7
OpenSans
 11
650.0
 21
535.6
 31
0.0
100
AcDbText
  0
TEXT
  5
1C9
330
17
100
AcDbEntity
  8
S-NOTE
100
AcDbText
 10
650.0
 20
532.6
 30
0.0
 40
1.4
  1
Ec = 5000 sqrt(fck) = 29 580 N/mm2   (IS 456 Cl. 6.2.3.1)
  7
OpenSans
 11
650.0
 21
532.6
 31
0.0
100
AcDbText
  0
TEXT
  5
1CA
330
17
100
AcDbEntity
  8
S-NOTE
100
AcDbText
 10
650.0
 20
529.6
 30
0.0
 40
1.4
  1
gamma_m           1.5 concrete / 1.15 steel  (IS 456 Cl. 36.4.2)
  7
OpenSans
 11
650.0
 21
529.6
 31
0.0
100
AcDbText
  0
TEXT
  5
1CB
330
17
100
AcDbEntity
  8
S-NOTE
100
AcDbText
 10
650.0
 20
526.6
 30
0.0
 40
1.4
  1

  7
OpenSans
 11
650.0
 21
526.6
 31
0.0
100
AcDbText
  0
TEXT
  5
1CC
330
17
100
AcDbEntity
  8
S-NOTE
100
AcDbText
 10
650.0
 20
523.6
 30
0.0
 40
1.4
  1
BLAST CASE ONLY   IS 4991 Cl. 10.3.1:  fck,dyn 43.75  ·  fy,dyn 625
  7
OpenSans
 11
650.0
 21
523.6
 31
0.0
100
AcDbText
  0
TEXT
  5
1CD
330
17
100
AcDbEntity
  8
S-NOTE
100
AcDbText
 10
650.0
 20
520.6
 30
0.0
 40
1.4
  1
*** NO DYNAMIC INCREASE ON SHEAR - IS 4991 Cl. 10.3.1.1 ***
  7
OpenSans
 11
650.0
 21
520.6
 31
0.0
100
AcDbText
  0
TEXT
  5
1CE
330
17
100
AcDbEntity
  8
S-NOTE
100
AcDbText
 10
650.0
 20
517.6
 30
0.0
 40
1.4
  1
tau_c and tau_c,max are read at the STATIC M35 value in every check.
  7
OpenSans
 11
650.0
 21
517.6
 31
0.0
100
AcDbText
  0
TEXT
  5
1CF
330
17
100
AcDbEntity
  8
S-NOTE
100
AcDbText
 10
650.0
 20
514.6
 30
0.0
 40
1.4
  1

  7
OpenSans
 11
650.0
 21
514.6
 31
0.0
100
AcDbText
  0
TEXT
  5
1D0
330
17
100
AcDbEntity
  8
S-NOTE
100
AcDbText
 10
650.0
 20
511.6
 30
0.0
 40
1.4
  1
COVER   75 cast against blinding · 50 formed earth face
  7
OpenSans
 11
650.0
 21
511.6
 31
0.0
100
AcDbText
  0
TEXT
  5
1D1
330
17
100
AcDbEntity
  8
S-NOTE
100
AcDbText
 10
650.0
 20
508.6
 30
0.0
 40
1.4
  1
        40 internal · 30 stair-shaft faces
  7
OpenSans
 11
650.0
 21
508.6
 31
0.0
100
AcDbText
  0
TEXT
  5
1D2
330
17
100
AcDbEntity
  8
S-NOTE
100
AcDbText
 10
650.0
 20
505.6
 30
0.0
 40
1.4
  1
        The 5 mm reduction IS 456 Table 16 permits for M35 is NOT taken.
  7
OpenSans
 11
650.0
 21
505.6
 31
0.0
100
AcDbText
  0
TEXT
  5
1D3
330
17
100
AcDbEntity
  8
S-NOTE
100
AcDbText
 10
650.0
 20
502.6
 30
0.0
 40
1.4
  1

  7
OpenSans
 11
650.0
 21
502.6
 31
0.0
100
AcDbText
  0
TEXT
  5
1D4
330
17
100
AcDbEntity
  8
S-NOTE
100
AcDbText
 10
650.0
 20
499.6
 30
0.0
 40
1.4
  1
Ld TENSION 40 phi  ·  Ld COMPRESSION 32 phi  ·  LAP 50 phi STAGGERED
  7
OpenSans
 11
650.0
 21
499.6
 31
0.0
100
AcDbText
  0
TEXT
  5
1D5
330
17
100
AcDbEntity
  8
S-NOTE
100
AcDbText
 10
650.0
 20
496.6
 30
0.0
 40
1.4
  1
T8 320/400 · T10 400/500 · T12 480/600 · T16 640/800
  7
OpenSans
 11
650.0
 21
496.6
 31
0.0
100
AcDbText
  0
TEXT
  5
1D6
330
17
100
AcDbEntity
  8
S-NOTE
100
AcDbText
 10
650.0
 20
493.6
 30
0.0
 40
1.4
  1
T20 800/1000 · T25 1000/1250        (Ld / lap, mm)
  7
OpenSans
 11
650.0
 21
493.6
 31
0.0
100
AcDbText
  0
TEXT
  5
1D7
330
17
100
AcDbEntity
  8
S-NOTE
100
AcDbText
 10
650.0
 20
490.6
 30
0.0
 40
1.4
  1
The IS 4991 Cl. 10.3.1.1 +25 % blast bond allowance is NOT taken.
  7
OpenSans
 11
650.0
 21
490.6
 31
0.0
100
AcDbText
  0
TEXT
  5
1D8
330
17
100
AcDbEntity
  8
S-NOTE
100
AcDbText
 10
650.0
 20
487.6
 30
0.0
 40
1.4
  1

  7
OpenSans
 11
650.0
 21
487.6
 31
0.0
100
AcDbText
  0
TEXT
  5
1D9
330
17
100
AcDbEntity
  8
S-NOTE
100
AcDbText
 10
650.0
 20
484.6
 30
0.0
 40
1.4
  1
*** MAXIMUM BAR SPACING 150 BOTH CURTAINS - EMP REQUIREMENT ***
  7
OpenSans
 11
650.0
 21
484.6
 31
0.0
100
AcDbText
  0
TEXT
  5
1DA
330
17
100
AcDbEntity
  8
S-NOTE
100
AcDbText
 10
650.0
 20
481.6
 30
0.0
 40
1.4
  1
    stricter than IS 456 Cl. 26.3.3 and than every code minimum.
  7
OpenSans
 11
650.0
 21
481.6
 31
0.0
100
AcDbText
  0
LWPOLYLINE
  5
1DB
330
17
100
AcDbEntity
  8
S-TITLE
100
AcDbPolyline
 90
4
 70
1
 10
648.0
 20
476.6
 10
831.0
 20
476.6
 10
831.0
 20
552.0
 10
648.0
 20
552.0
  0
LWPOLYLINE
  5
1DC
330
17
100
AcDbEntity
  8
S-TITLE
100
AcDbPolyline
 90
4
 70
1
 10
651.0
 20
10.0
 10
831.0
 20
10.0
 10
831.0
 20
110.0
 10
651.0
 20
110.0
  0
LINE
  5
1DD
330
17
100
AcDbEntity
  8
S-TITLE
100
AcDbLine
 10
651.0
 20
30.0
 30
0.0
 11
831.0
 21
30.0
 31
0.0
  0
LINE
  5
1DE
330
17
100
AcDbEntity
  8
S-TITLE
100
AcDbLine
 10
651.0
 20
42.0
 30
0.0
 11
831.0
 21
42.0
 31
0.0
  0
LINE
  5
1DF
330
17
100
AcDbEntity
  8
S-TITLE
100
AcDbLine
 10
651.0
 20
54.0
 30
0.0
 11
831.0
 21
54.0
 31
0.0
  0
LINE
  5
1E0
330
17
100
AcDbEntity
  8
S-TITLE
100
AcDbLine
 10
651.0
 20
66.0
 30
0.0
 11
831.0
 21
66.0
 31
0.0
  0
LINE
  5
1E1
330
17
100
AcDbEntity
  8
S-TITLE
100
AcDbLine
 10
651.0
 20
88.0
 30
0.0
 11
831.0
 21
88.0
 31
0.0
  0
LINE
  5
1E2
330
17
100
AcDbEntity
  8
S-TITLE
100
AcDbLine
 10
763.0
 20
10.0
 30
0.0
 11
763.0
 21
30.0
 31
0.0
  0
LINE
  5
1E3
330
17
100
AcDbEntity
  8
S-TITLE
100
AcDbLine
 10
797.0
 20
10.0
 30
0.0
 11
797.0
 21
30.0
 31
0.0
  0
TEXT
  5
1E4
330
17
100
AcDbEntity
  8
S-TITLE
100
AcDbText
 10
653.0
 20
24.6
 30
0.0
 40
1.4
  1
DRAWING No.
  7
OpenSans
 11
653.0
 21
24.6
 31
0.0
100
AcDbText
  0
TEXT
  5
1E5
330
17
100
AcDbEntity
  8
S-TITLE
100
AcDbText
 10
673.0
 20
14.2
 30
0.0
 40
3.5
  1
R-805
  7
OpenSans
 11
673.0
 21
14.2
 31
0.0
100
AcDbText
  0
TEXT
  5
1E6
330
17
100
AcDbEntity
  8
S-TITLE
100
AcDbText
 10
765.0
 20
24.6
 30
0.0
 40
1.4
  1
REV
  7
OpenSans
 11
765.0
 21
24.6
 31
0.0
100
AcDbText
  0
TEXT
  5
1E7
330
17
100
AcDbEntity
  8
S-TITLE
100
AcDbText
 10
769.0
 20
14.2
 30
0.0
 40
3.5
  1
SC1
  7
OpenSans
 11
769.0
 21
14.2
 31
0.0
100
AcDbText
  0
TEXT
  5
1E8
330
17
100
AcDbEntity
  8
S-TITLE
100
AcDbText
 10
799.0
 20
24.6
 30
0.0
 40
1.4
  1
SHEET
  7
OpenSans
 11
799.0
 21
24.6
 31
0.0
100
AcDbText
  0
TEXT
  5
1E9
330
17
100
AcDbEntity
  8
S-TITLE
100
AcDbText
 10
799.0
 20
15.0
 30
0.0
 40
1.6
  1
30 OF 30
  7
OpenSans
 11
799.0
 21
15.0
 31
0.0
100
AcDbText
  0
LINE
  5
1EA
330
17
100
AcDbEntity
  8
S-TITLE
100
AcDbLine
 10
747.0
 20
30.0
 30
0.0
 11
747.0
 21
42.0
 31
0.0
  0
TEXT
  5
1EB
330
17
100
AcDbEntity
  8
S-TITLE
100
AcDbText
 10
653.0
 20
34.4
 30
0.0
 40
1.6
  1
SCALE   1:20
  7
OpenSans
 11
653.0
 21
34.4
 31
0.0
100
AcDbText
  0
TEXT
  5
1EC
330
17
100
AcDbEntity
  8
S-TITLE
100
AcDbText
 10
749.0
 20
34.4
 30
0.0
 40
1.6
  1
DATE   04.09.2026
  7
OpenSans
 11
749.0
 21
34.4
 31
0.0
100
AcDbText
  0
TEXT
  5
1ED
330
17
100
AcDbEntity
  8
S-TITLE
100
AcDbText
 10
653.0
 20
46.4
 30
0.0
 40
1.4
  1
DESIGNED  [PLACEHOLDER]
  7
OpenSans
 11
653.0
 21
46.4
 31
0.0
100
AcDbText
  0
TEXT
  5
1EE
330
17
100
AcDbEntity
  8
S-TITLE
100
AcDbText
 10
713.0
 20
46.4
 30
0.0
 40
1.4
  1
CHECKED  [PLACEHOLDER]
  7
OpenSans
 11
713.0
 21
46.4
 31
0.0
100
AcDbText
  0
TEXT
  5
1EF
330
17
100
AcDbEntity
  8
S-TITLE
100
AcDbText
 10
773.0
 20
46.4
 30
0.0
 40
1.4
  1
APPROVED  [PLACEHOLDER]
  7
OpenSans
 11
773.0
 21
46.4
 31
0.0
100
AcDbText
  0
TEXT
  5
1F0
330
17
100
AcDbEntity
  8
S-TITLE
100
AcDbText
 10
653.0
 20
58.4
 30
0.0
 40
1.4
  1
STATUS
  7
OpenSans
 11
653.0
 21
58.4
 31
0.0
100
AcDbText
  0
TEXT
  5
1F1
330
17
100
AcDbEntity
  8
S-BLAST
100
AcDbText
 10
673.0
 20
58.0
 30
0.0
 40
1.6
  1
FOR REVIEW - NOT FOR CONSTRUCTION
  7
OpenSans
 11
673.0
 21
58.0
 31
0.0
100
AcDbText
  0
TEXT
  5
1F2
330
17
100
AcDbEntity
  8
S-TITLE
100
AcDbText
 10
653.0
 20
83.4
 30
0.0
 40
1.4
  1
DRAWING TITLE
  7
OpenSans
 11
653.0
 21
83.4
 31
0.0
100
AcDbText
  0
TEXT
  5
1F3
330
17
100
AcDbEntity
  8
S-TITLE
100
AcDbText
 10
653.0
 20
75.4
 30
0.0
 40
2.4
  1
WATERPROOFING / STRUCTURAL INTERFACE
  7
OpenSans
 11
653.0
 21
75.4
 31
0.0
100
AcDbText
  0
TEXT
  5
1F4
330
17
100
AcDbEntity
  8
S-TITLE
100
AcDbText
 10
653.0
 20
68.8
 30
0.0
 40
1.4
  1
TANKING · WATERSTOPS · UPLIFT · THE INTERFACE THE STEEL DEPENDS ON
  7
OpenSans
 11
653.0
 21
68.8
 31
0.0
100
AcDbText
  0
TEXT
  5
1F5
330
17
100
AcDbEntity
  8
S-TITLE
100
AcDbText
 10
653.0
 20
105.2
 30
0.0
 40
1.4
  1
PROJECT
  7
OpenSans
 11
653.0
 21
105.2
 31
0.0
100
AcDbText
  0
TEXT
  5
1F6
330
17
100
AcDbEntity
  8
S-TITLE
100
AcDbText
 10
653.0
 20
99.6
 30
0.0
 40
1.6
  1
UNDERGROUND CBRN-HARDENED BLAST-RESISTANT
  7
OpenSans
 11
653.0
 21
99.6
 31
0.0
100
AcDbText
  0
TEXT
  5
1F7
330
17
100
AcDbEntity
  8
S-TITLE
100
AcDbText
 10
653.0
 20
95.0
 30
0.0
 40
1.6
  1
PROTECTIVE STRUCTURE  -  PUNE, MAHARASHTRA
  7
OpenSans
 11
653.0
 21
95.0
 31
0.0
100
AcDbText
  0
TEXT
  5
1F8
330
17
100
AcDbEntity
  8
S-TITLE
100
AcDbText
 10
653.0
 20
90.0
 30
0.0
 40
1.4
  1
STRUCTURAL PHASE 2 REV A + M1   ·   SENTRY POST NOT IN THIS PACKAGE
  7
OpenSans
 11
653.0
 21
90.0
 31
0.0
100
AcDbText
  0
ENDSEC
  0
SECTION
  2
OBJECTS
  0
DICTIONARY
  5
A
330
0
100
AcDbDictionary
281
1
  3
ACAD_COLOR
350
B
  3
ACAD_GROUP
350
C
  3
ACAD_LAYOUT
350
D
  3
ACAD_MATERIAL
350
E
  3
ACAD_MLEADERSTYLE
350
F
  3
ACAD_MLINESTYLE
350
10
  3
ACAD_PLOTSETTINGS
350
11
  3
ACAD_PLOTSTYLENAME
350
12
  3
ACAD_SCALELIST
350
14
  3
ACAD_TABLESTYLE
350
15
  3
ACAD_VISUALSTYLE
350
16
  3
EZDXF_META
350
2D
  0
DICTIONARY
  5
B
330
A
100
AcDbDictionary
281
1
  0
DICTIONARY
  5
C
330
A
100
AcDbDictionary
281
1
  0
DICTIONARY
  5
D
330
A
100
AcDbDictionary
281
1
  3
Model
350
1A
  3
Layout1
350
1E
  0
DICTIONARY
  5
E
330
A
100
AcDbDictionary
281
1
  3
ByBlock
350
1F
  3
ByLayer
350
20
  3
Global
350
21
  0
DICTIONARY
  5
F
330
A
100
AcDbDictionary
281
1
  3
Standard
350
2C
  0
DICTIONARY
  5
10
330
A
100
AcDbDictionary
281
1
  3
Standard
350
22
  0
DICTIONARY
  5
11
330
A
100
AcDbDictionary
281
1
  0
ACDBDICTIONARYWDFLT
  5
12
330
A
100
AcDbDictionary
281
1
  3
Normal
350
13
100
AcDbDictionaryWithDefault
340
13
  0
ACDBPLACEHOLDER
  5
13
330
12
  0
DICTIONARY
  5
14
330
A
100
AcDbDictionary
281
1
  0
DICTIONARY
  5
15
330
A
100
AcDbDictionary
281
1
  0
DICTIONARY
  5
16
330
A
100
AcDbDictionary
281
1
  3
2dWireframe
350
5A
  3
Basic
350
5B
  3
Brighten
350
5C
  3
ColorChange
350
5D
  3
Conceptual
350
5E
  3
Dim
350
5F
  3
EdgeColorOff
350
60
  3
Facepattern
350
61
  3
Flat
350
62
  3
FlatWithEdges
350
63
  3
Gouraud
350
64
  3
GouraudWithEdges
350
65
  3
Hidden
350
66
  3
JitterOff
350
67
  3
Linepattern
350
68
  3
Modeling
350
69
  3
OverhangOff
350
6A
  3
Realistic
350
6B
  3
Shaded
350
6C
  3
Shaded with edges
350
6D
  3
Shades of Gray
350
6E
  3
Sketchy
350
6F
  3
Thicken
350
70
  3
Wireframe
350
71
  3
X-Ray
350
72
  0
LAYOUT
  5
1A
330
D
100
AcDbPlotSettings
  1

  4
A3
  6

 40
7.5
 41
20.0
 42
7.5
 43
20.0
 44
420.0
 45
297.0
 46
0.0
 47
0.0
 48
0.0
 49
0.0
140
0.0
141
0.0
142
1.0
143
1.0
 70
1024
 72
1
 73
0
 74
5
  7

 75
16
 76
0
 77
2
 78
300
147
1.0
148
0.0
149
0.0
100
AcDbLayout
  1
Model
 70
1
 71
0
 10
0.0
 20
0.0
 11
420.0
 21
297.0
 12
0.0
 22
0.0
 32
0.0
 14
1e+20
 24
1e+20
 34
1e+20
 15
-1e+20
 25
-1e+20
 35
-1e+20
146
0.0
 13
0.0
 23
0.0
 33
0.0
 16
1.0
 26
0.0
 36
0.0
 17
0.0
 27
1.0
 37
0.0
 76
1
330
17
  0
LAYOUT
  5
1E
330
D
100
AcDbPlotSettings
  1

  4
A3
  6

 40
7.5
 41
20.0
 42
7.5
 43
20.0
 44
420.0
 45
297.0
 46
0.0
 47
0.0
 48
0.0
 49
0.0
140
0.0
141
0.0
142
1.0
143
1.0
 70
0
 72
1
 73
0
 74
5
  7

 75
16
 76
0
 77
2
 78
300
147
1.0
148
0.0
149
0.0
100
AcDbLayout
  1
Layout1
 70
1
 71
1
 10
0.0
 20
0.0
 11
420.0
 21
297.0
 12
0.0
 22
0.0
 32
0.0
 14
1e+20
 24
1e+20
 34
1e+20
 15
-1e+20
 25
-1e+20
 35
-1e+20
146
0.0
 13
0.0
 23
0.0
 33
0.0
 16
1.0
 26
0.0
 36
0.0
 17
0.0
 27
1.0
 37
0.0
 76
1
330
1B
  0
MATERIAL
  5
1F
102
{ACAD_REACTORS
330
E
102
}
330
E
100
AcDbMaterial
  1
ByBlock
  2

 70
0
 40
1.0
 71
1
 41
1.0
 91
-1023410177
 42
1.0
 72
1
  3

 73
1
 74
1
 75
1
 44
0.5
 73
0
 45
1.0
 46
1.0
 77
1
  4

 78
1
 79
1
170
1
 48
1.0
171
1
  6

172
1
173
1
174
1
140
1.0
141
1.0
175
1
  7

176
1
177
1
178
1
143
1.0
179
1
  8

270
1
271
1
272
1
145
1.0
146
1.0
273
1
  9

274
1
275
1
276
1
 42
1.0
 72
1
  3

 73
1
 74
1
 75
1
 94
63
  0
MATERIAL
  5
20
102
{ACAD_REACTORS
330
E
102
}
330
E
100
AcDbMaterial
  1
ByLayer
  2

 70
0
 40
1.0
 71
1
 41
1.0
 91
-1023410177
 42
1.0
 72
1
  3

 73
1
 74
1
 75
1
 44
0.5
 73
0
 45
1.0
 46
1.0
 77
1
  4

 78
1
 79
1
170
1
 48
1.0
171
1
  6

172
1
173
1
174
1
140
1.0
141
1.0
175
1
  7

176
1
177
1
178
1
143
1.0
179
1
  8

270
1
271
1
272
1
145
1.0
146
1.0
273
1
  9

274
1
275
1
276
1
 42
1.0
 72
1
  3

 73
1
 74
1
 75
1
 94
63
  0
MATERIAL
  5
21
102
{ACAD_REACTORS
330
E
102
}
330
E
100
AcDbMaterial
  1
Global
  2

 70
0
 40
1.0
 71
1
 41
1.0
 91
-1023410177
 42
1.0
 72
1
  3

 73
1
 74
1
 75
1
 44
0.5
 73
0
 45
1.0
 46
1.0
 77
1
  4

 78
1
 79
1
170
1
 48
1.0
171
1
  6

172
1
173
1
174
1
140
1.0
141
1.0
175
1
  7

176
1
177
1
178
1
143
1.0
179
1
  8

270
1
271
1
272
1
145
1.0
146
1.0
273
1
  9

274
1
275
1
276
1
 42
1.0
 72
1
  3

 73
1
 74
1
 75
1
 94
63
  0
MLINESTYLE
  5
22
102
{ACAD_REACTORS
330
10
102
}
330
10
100
AcDbMlineStyle
  2
Standard
 70
0
  3

 62
256
 51
90.0
 52
90.0
 71
2
 49
0.5
 62
256
  6
BYLAYER
 49
-0.5
 62
256
  6
BYLAYER
  0
MLEADERSTYLE
  5
2C
102
{ACAD_REACTORS
330
F
102
}
330
F
100
AcDbMLeaderStyle
179
2
170
2
171
1
172
0
 90
2
 40
0.0
 41
0.0
173
1
 91
-1056964608
 92
-2
290
1
 42
2.0
291
1
 43
8.0
  3
Standard
 44
4.0
300

342
29
174
1
175
1
176
0
178
1
 93
-1056964608
 45
4.0
292
0
297
0
 46
4.0
 94
-1056964608
 47
1.0
 49
1.0
140
1.0
294
1
141
0.0
177
0
142
1.0
295
0
296
0
143
3.75
271
0
272
9
273
9
  0
DICTIONARY
  5
2D
330
A
100
AcDbDictionary
280
1
281
1
  3
CREATED_BY_EZDXF
350
2E
  3
WRITTEN_BY_EZDXF
350
1FB
  0
DICTIONARYVAR
  5
2E
330
2D
100
DictionaryVariables
280
0
  1
1.4.4 @ 2026-09-05T02:21:08.138712+00:00
  0
VISUALSTYLE
  5
5A
102
{ACAD_REACTORS
330
16
102
}
330
16
100
AcDbVisualStyle
  2
2dWireframe
 70
4
 90
0
 40
0.6
 62
7
290
0
291
0
  0
VISUALSTYLE
  5
5B
102
{ACAD_REACTORS
330
16
102
}
330
16
100
AcDbVisualStyle
  2
Basic
 70
7
 90
1
 40
0.6
 62
7
290
0
291
1
  0
VISUALSTYLE
  5
5C
102
{ACAD_REACTORS
330
16
102
}
330
16
100
AcDbVisualStyle
  2
Brighten
 70
12
 90
2
 40
0.6
 62
7
290
0
291
1
  0
VISUALSTYLE
  5
5D
102
{ACAD_REACTORS
330
16
102
}
330
16
100
AcDbVisualStyle
  2
ColorChange
 70
16
 90
2
 40
0.6
 62
8
290
0
291
1
  0
VISUALSTYLE
  5
5E
102
{ACAD_REACTORS
330
16
102
}
330
16
100
AcDbVisualStyle
  2
Conceptual
 70
9
 90
3
 40
0.6
 62
7
290
0
291
0
  0
VISUALSTYLE
  5
5F
102
{ACAD_REACTORS
330
16
102
}
330
16
100
AcDbVisualStyle
  2
Dim
 70
11
 90
2
 40
0.6
 62
7
290
0
291
1
  0
VISUALSTYLE
  5
60
102
{ACAD_REACTORS
330
16
102
}
330
16
100
AcDbVisualStyle
  2
EdgeColorOff
 70
22
 90
2
 40
0.6
 62
7
290
0
291
1
  0
VISUALSTYLE
  5
61
102
{ACAD_REACTORS
330
16
102
}
330
16
100
AcDbVisualStyle
  2
Facepattern
 70
15
 90
2
 40
0.6
 62
7
290
0
291
1
  0
VISUALSTYLE
  5
62
102
{ACAD_REACTORS
330
16
102
}
330
16
100
AcDbVisualStyle
  2
Flat
 70
0
 90
2
 40
0.6
 62
7
290
0
291
1
  0
VISUALSTYLE
  5
63
102
{ACAD_REACTORS
330
16
102
}
330
16
100
AcDbVisualStyle
  2
FlatWithEdges
 70
1
 90
2
 40
0.6
 62
7
290
0
291
1
  0
VISUALSTYLE
  5
64
102
{ACAD_REACTORS
330
16
102
}
330
16
100
AcDbVisualStyle
  2
Gouraud
 70
2
 90
2
 40
0.6
 62
7
290
0
291
1
  0
VISUALSTYLE
  5
65
102
{ACAD_REACTORS
330
16
102
}
330
16
100
AcDbVisualStyle
  2
GouraudWithEdges
 70
3
 90
2
 40
0.6
 62
7
290
0
291
1
  0
VISUALSTYLE
  5
66
102
{ACAD_REACTORS
330
16
102
}
330
16
100
AcDbVisualStyle
  2
Hidden
 70
6
 90
1
 40
0.6
 62
7
290
0
291
0
  0
VISUALSTYLE
  5
67
102
{ACAD_REACTORS
330
16
102
}
330
16
100
AcDbVisualStyle
  2
JitterOff
 70
20
 90
2
 40
0.6
 62
7
290
0
291
1
  0
VISUALSTYLE
  5
68
102
{ACAD_REACTORS
330
16
102
}
330
16
100
AcDbVisualStyle
  2
Linepattern
 70
14
 90
2
 40
0.6
 62
7
290
0
291
1
  0
VISUALSTYLE
  5
69
102
{ACAD_REACTORS
330
16
102
}
330
16
100
AcDbVisualStyle
  2
Modeling
 70
10
 90
2
 40
0.6
 62
7
290
0
291
0
  0
VISUALSTYLE
  5
6A
102
{ACAD_REACTORS
330
16
102
}
330
16
100
AcDbVisualStyle
  2
OverhangOff
 70
21
 90
2
 40
0.6
 62
7
290
0
291
1
  0
VISUALSTYLE
  5
6B
102
{ACAD_REACTORS
330
16
102
}
330
16
100
AcDbVisualStyle
  2
Realistic
 70
8
 90
2
 40
0.6
 62
7
290
0
291
0
  0
VISUALSTYLE
  5
6C
102
{ACAD_REACTORS
330
16
102
}
330
16
100
AcDbVisualStyle
  2
Shaded
 70
27
 90
2
 40
0.6
 62
7
290
0
291
0
  0
VISUALSTYLE
  5
6D
102
{ACAD_REACTORS
330
16
102
}
330
16
100
AcDbVisualStyle
  2
Shaded with edges
 70
26
 90
2
 40
0.6
 62
7
290
0
291
0
  0
VISUALSTYLE
  5
6E
102
{ACAD_REACTORS
330
16
102
}
330
16
100
AcDbVisualStyle
  2
Shades of Gray
 70
23
 90
2
 40
0.6
 62
7
290
0
291
0
  0
VISUALSTYLE
  5
6F
102
{ACAD_REACTORS
330
16
102
}
330
16
100
AcDbVisualStyle
  2
Sketchy
 70
24
 90
1
 40
0.6
 62
7
290
0
291
0
  0
VISUALSTYLE
  5
70
102
{ACAD_REACTORS
330
16
102
}
330
16
100
AcDbVisualStyle
  2
Thicken
 70
13
 90
2
 40
0.6
 62
7
290
0
291
1
  0
VISUALSTYLE
  5
71
102
{ACAD_REACTORS
330
16
102
}
330
16
100
AcDbVisualStyle
  2
Wireframe
 70
5
 90
0
 40
0.6
 62
7
290
0
291
0
  0
VISUALSTYLE
  5
72
102
{ACAD_REACTORS
330
16
102
}
330
16
100
AcDbVisualStyle
  2
X-Ray
 70
25
 90
2
 40
0.5
 62
7
290
0
291
0
  0
DICTIONARYVAR
  5
1FB
330
2D
100
DictionaryVariables
280
0
  1
1.4.4 @ 2026-09-05T02:21:08.155860+00:00
  0
ENDSEC
  0
EOF
