  0
SECTION
  2
HEADER
  9
$ACADVER
  1
AC1024
  9
$ACADMAINTVER
 70
6
  9
$DWGCODEPAGE
  3
ANSI_1252
  9
$LASTSAVEDBY
  1
ezdxf
  9
$INSBASE
 10
0.0
 20
0.0
 30
0.0
  9
$EXTMIN
 10
1e+20
 20
1e+20
 30
1e+20
  9
$EXTMAX
 10
-1e+20
 20
-1e+20
 30
-1e+20
  9
$LIMMIN
 10
0.0
 20
0.0
  9
$LIMMAX
 10
420.0
 20
297.0
  9
$ORTHOMODE
 70
0
  9
$REGENMODE
 70
1
  9
$FILLMODE
 70
1
  9
$QTEXTMODE
 70
0
  9
$MIRRTEXT
 70
1
  9
$LTSCALE
 40
1.0
  9
$ATTMODE
 70
1
  9
$TEXTSIZE
 40
2.5
  9
$TRACEWID
 40
1.0
  9
$TEXTSTYLE
  7
OpenSans
  9
$CLAYER
  8
0
  9
$CELTYPE
  6
ByLayer
  9
$CECOLOR
 62
256
  9
$CELTSCALE
 40
1.0
  9
$DISPSILH
 70
0
  9
$DIMSCALE
 40
1.0
  9
$DIMASZ
 40
0.175
  9
$DIMEXO
 40
0.125
  9
$DIMDLI
 40
3.75
  9
$DIMRND
 40
0.0
  9
$DIMDLE
 40
0.0
  9
$DIMEXE
 40
0.375
  9
$DIMTP
 40
0.0
  9
$DIMTM
 40
0.0
  9
$DIMTXT
 40
0.25
  9
$DIMCEN
 40
2.5
  9
$DIMTSZ
 40
0.0
  9
$DIMTOL
 70
0
  9
$DIMLIM
 70
0
  9
$DIMTIH
 70
0
  9
$DIMTOH
 70
0
  9
$DIMSE1
 70
0
  9
$DIMSE2
 70
0
  9
$DIMTAD
 70
1
  9
$DIMZIN
 70
12
  9
$DIMBLK
  1
ARCHTICK
  9
$DIMASO
 70
1
  9
$DIMSHO
 70
1
  9
$DIMPOST
  1

  9
$DIMAPOST
  1

  9
$DIMALT
 70
0
  9
$DIMALTD
 70
3
  9
$DIMALTF
 40
0.03937007874
  9
$DIMLFAC
 40
100.0
  9
$DIMTOFL
 70
1
  9
$DIMTVP
 40
0.0
  9
$DIMTIX
 70
0
  9
$DIMSOXD
 70
0
  9
$DIMSAH
 70
0
  9
$DIMBLK1
  1

  9
$DIMBLK2
  1

  9
$DIMSTYLE
  2
EZDXF
  9
$DIMCLRD
 70
0
  9
$DIMCLRE
 70
0
  9
$DIMCLRT
 70
0
  9
$DIMTFAC
 40
0.5
  9
$DIMGAP
 40
0.1
  9
$DIMJUST
 70
0
  9
$DIMSD1
 70
0
  9
$DIMSD2
 70
0
  9
$DIMTOLJ
 70
0
  9
$DIMTZIN
 70
8
  9
$DIMALTZ
 70
0
  9
$DIMALTTZ
 70
0
  9
$DIMUPT
 70
1
  9
$DIMDEC
 70
2
  9
$DIMTDEC
 70
2
  9
$DIMALTU
 70
2
  9
$DIMALTTD
 70
3
  9
$DIMTXSTY
  7
OpenSansCondensed-Light
  9
$DIMAUNIT
 70
0
  9
$DIMADEC
 70
2
  9
$DIMALTRND
 40
0.0
  9
$DIMAZIN
 70
3
  9
$DIMDSEP
 70
46
  9
$DIMATFIT
 70
3
  9
$DIMFRAC
 70
0
  9
$DIMLDRBLK
  1

  9
$DIMLUNIT
 70
2
  9
$DIMLWD
 70
-2
  9
$DIMLWE
 70
-2
  9
$DIMTMOVE
 70
2
  9
$DIMFXL
 40
1.0
  9
$DIMFXLON
 70
0
  9
$DIMJOGANG
 40
0.785398163397
  9
$DIMTFILL
 70
0
  9
$DIMTFILLCLR
 70
0
  9
$DIMARCSYM
 70
0
  9
$DIMLTYPE
  6

  9
$DIMLTEX1
  6

  9
$DIMLTEX2
  6

  9
$DIMTXTDIRECTION
 70
0
  9
$LUNITS
 70
2
  9
$LUPREC
 70
4
  9
$SKETCHINC
 40
1.0
  9
$FILLETRAD
 40
10.0
  9
$AUNITS
 70
0
  9
$AUPREC
 70
2
  9
$MENU
  1
.
  9
$ELEVATION
 40
0.0
  9
$PELEVATION
 40
0.0
  9
$THICKNESS
 40
0.0
  9
$LIMCHECK
 70
0
  9
$CHAMFERA
 40
0.0
  9
$CHAMFERB
 40
0.0
  9
$CHAMFERC
 40
0.0
  9
$CHAMFERD
 40
0.0
  9
$SKPOLY
 70
0
  9
$TDCREATE
 40
2461293.6972685186
  9
$TDUCREATE
 40
2458532.153996898
  9
$TDUPDATE
 40
2461293.6972685186
  9
$TDUUPDATE
 40
2458532.1544311
  9
$TDINDWG
 40
0.0
  9
$TDUSRTIMER
 40
0.0
  9
$USRTIMER
 70
1
  9
$ANGBASE
 50
0.0
  9
$ANGDIR
 70
0
  9
$PDMODE
 70
0
  9
$PDSIZE
 40
0.0
  9
$PLINEWID
 40
0.0
  9
$SPLFRAME
 70
0
  9
$SPLINETYPE
 70
6
  9
$SPLINESEGS
 70
8
  9
$HANDSEED
  5
1CA
  9
$SURFTAB1
 70
6
  9
$SURFTAB2
 70
6
  9
$SURFTYPE
 70
6
  9
$SURFU
 70
6
  9
$SURFV
 70
6
  9
$UCSBASE
  2

  9
$UCSNAME
  2

  9
$UCSORG
 10
0.0
 20
0.0
 30
0.0
  9
$UCSXDIR
 10
1.0
 20
0.0
 30
0.0
  9
$UCSYDIR
 10
0.0
 20
1.0
 30
0.0
  9
$UCSORTHOREF
  2

  9
$UCSORTHOVIEW
 70
0
  9
$UCSORGTOP
 10
0.0
 20
0.0
 30
0.0
  9
$UCSORGBOTTOM
 10
0.0
 20
0.0
 30
0.0
  9
$UCSORGLEFT
 10
0.0
 20
0.0
 30
0.0
  9
$UCSORGRIGHT
 10
0.0
 20
0.0
 30
0.0
  9
$UCSORGFRONT
 10
0.0
 20
0.0
 30
0.0
  9
$UCSORGBACK
 10
0.0
 20
0.0
 30
0.0
  9
$PUCSBASE
  2

  9
$PUCSNAME
  2

  9
$PUCSORG
 10
0.0
 20
0.0
 30
0.0
  9
$PUCSXDIR
 10
1.0
 20
0.0
 30
0.0
  9
$PUCSYDIR
 10
0.0
 20
1.0
 30
0.0
  9
$PUCSORTHOREF
  2

  9
$PUCSORTHOVIEW
 70
0
  9
$PUCSORGTOP
 10
0.0
 20
0.0
 30
0.0
  9
$PUCSORGBOTTOM
 10
0.0
 20
0.0
 30
0.0
  9
$PUCSORGLEFT
 10
0.0
 20
0.0
 30
0.0
  9
$PUCSORGRIGHT
 10
0.0
 20
0.0
 30
0.0
  9
$PUCSORGFRONT
 10
0.0
 20
0.0
 30
0.0
  9
$PUCSORGBACK
 10
0.0
 20
0.0
 30
0.0
  9
$USERI1
 70
0
  9
$USERI2
 70
0
  9
$USERI3
 70
0
  9
$USERI4
 70
0
  9
$USERI5
 70
0
  9
$USERR1
 40
0.0
  9
$USERR2
 40
0.0
  9
$USERR3
 40
0.0
  9
$USERR4
 40
0.0
  9
$USERR5
 40
0.0
  9
$WORLDVIEW
 70
1
  9
$SHADEDGE
 70
3
  9
$SHADEDIF
 70
70
  9
$TILEMODE
 70
1
  9
$MAXACTVP
 70
64
  9
$PINSBASE
 10
0.0
 20
0.0
 30
0.0
  9
$PLIMCHECK
 70
0
  9
$PEXTMIN
 10
1e+20
 20
1e+20
 30
1e+20
  9
$PEXTMAX
 10
-1e+20
 20
-1e+20
 30
-1e+20
  9
$PLIMMIN
 10
0.0
 20
0.0
  9
$PLIMMAX
 10
420.0
 20
297.0
  9
$UNITMODE
 70
0
  9
$VISRETAIN
 70
1
  9
$PLINEGEN
 70
0
  9
$PSLTSCALE
 70
1
  9
$TREEDEPTH
 70
3020
  9
$CMLSTYLE
  2
Standard
  9
$CMLJUST
 70
0
  9
$CMLSCALE
 40
20.0
  9
$PROXYGRAPHICS
 70
1
  9
$MEASUREMENT
 70
1
  9
$CELWEIGHT
370
-1
  9
$ENDCAPS
280
0
  9
$JOINSTYLE
280
0
  9
$LWDISPLAY
290
0
  9
$INSUNITS
 70
4
  9
$HYPERLINKBASE
  1

  9
$STYLESHEET
  1

  9
$XEDIT
290
1
  9
$CEPSNTYPE
380
0
  9
$PSTYLEMODE
290
1
  9
$FINGERPRINTGUID
  2
{E000CBFF-8B4B-4222-A0AA-CAEE495D19AD}
  9
$VERSIONGUID
  2
{7E320020-4A9A-4540-8516-084DEAFC801A}
  9
$EXTNAMES
290
1
  9
$PSVPSCALE
 40
0.0
  9
$OLESTARTUP
290
0
  9
$SORTENTS
280
127
  9
$INDEXCTL
280
0
  9
$HIDETEXT
280
1
  9
$XCLIPFRAME
280
1
  9
$HALOGAP
280
0
  9
$OBSCOLOR
 70
257
  9
$OBSLTYPE
280
0
  9
$INTERSECTIONDISPLAY
280
0
  9
$INTERSECTIONCOLOR
 70
257
  9
$DIMASSOC
280
2
  9
$PROJECTNAME
  1

  9
$CAMERADISPLAY
290
0
  9
$LENSLENGTH
 40
50.0
  9
$CAMERAHEIGHT
 40
0.0
  9
$STEPSPERSEC
 40
24.0
  9
$STEPSIZE
 40
100.0
  9
$3DDWFPREC
 40
2.0
  9
$PSOLWIDTH
 40
0.005
  9
$PSOLHEIGHT
 40
0.08
  9
$LOFTANG1
 40
1.570796326795
  9
$LOFTANG2
 40
1.570796326795
  9
$LOFTMAG1
 40
0.0
  9
$LOFTMAG2
 40
0.0
  9
$LOFTPARAM
 70
7
  9
$LOFTNORMALS
280
1
  9
$LATITUDE
 40
37.795
  9
$LONGITUDE
 40
-122.394
  9
$NORTHDIRECTION
 40
0.0
  9
$TIMEZONE
 70
-8000
  9
$LIGHTGLYPHDISPLAY
280
1
  9
$TILEMODELIGHTSYNCH
280
1
  9
$CMATERIAL
347
20
  9
$SOLIDHIST
280
0
  9
$SHOWHIST
280
1
  9
$DWFFRAME
280
2
  9
$DGNFRAME
280
2
  9
$REALWORLDSCALE
290
1
  9
$INTERFERECOLOR
 62
256
  9
$CSHADOW
280
0
  9
$SHADOWPLANELOCATION
 40
0.0
  0
ENDSEC
  0
SECTION
  2
CLASSES
  0
CLASS
  1
ACDBDICTIONARYWDFLT
  2
AcDbDictionaryWithDefault
  3
ObjectDBX Classes
 90
0
 91
0
280
0
281
0
  0
CLASS
  1
SUN
  2
AcDbSun
  3
SCENEOE
 90
1153
 91
0
280
0
281
0
  0
CLASS
  1
VISUALSTYLE
  2
AcDbVisualStyle
  3
ObjectDBX Classes
 90
4095
 91
0
280
0
281
0
  0
CLASS
  1
MATERIAL
  2
AcDbMaterial
  3
ObjectDBX Classes
 90
1153
 91
0
280
0
281
0
  0
CLASS
  1
SCALE
  2
AcDbScale
  3
ObjectDBX Classes
 90
1153
 91
0
280
0
281
0
  0
CLASS
  1
TABLESTYLE
  2
AcDbTableStyle
  3
ObjectDBX Classes
 90
4095
 91
0
280
0
281
0
  0
CLASS
  1
MLEADERSTYLE
  2
AcDbMLeaderStyle
  3
ACDB_MLEADERSTYLE_CLASS
 90
4095
 91
0
280
0
281
0
  0
CLASS
  1
DICTIONARYVAR
  2
AcDbDictionaryVar
  3
ObjectDBX Classes
 90
0
 91
0
280
0
281
0
  0
CLASS
  1
CELLSTYLEMAP
  2
AcDbCellStyleMap
  3
ObjectDBX Classes
 90
1152
 91
0
280
0
281
0
  0
CLASS
  1
MENTALRAYRENDERSETTINGS
  2
AcDbMentalRayRenderSettings
  3
SCENEOE
 90
1024
 91
0
280
0
281
0
  0
CLASS
  1
ACDBDETAILVIEWSTYLE
  2
AcDbDetailViewStyle
  3
ObjectDBX Classes
 90
1025
 91
0
280
0
281
0
  0
CLASS
  1
ACDBSECTIONVIEWSTYLE
  2
AcDbSectionViewStyle
  3
ObjectDBX Classes
 90
1025
 91
0
280
0
281
0
  0
CLASS
  1
RASTERVARIABLES
  2
AcDbRasterVariables
  3
ISM
 90
0
 91
0
280
0
281
0
  0
CLASS
  1
LAYOUT
  2
AcDbLayout
  3
ObjectDBX Classes
 90
0
 91
0
280
0
281
0
  0
CLASS
  1
ACDBPLACEHOLDER
  2
AcDbPlaceHolder
  3
ObjectDBX Classes
 90
0
 91
0
280
0
281
0
  0
ENDSEC
  0
SECTION
  2
TABLES
  0
TABLE
  2
VPORT
  5
8
330
0
100
AcDbSymbolTable
 70
1
  0
VPORT
  5
23
330
8
100
AcDbSymbolTableRecord
100
AcDbViewportTableRecord
  2
*Active
 70
0
 10
0.0
 20
0.0
 11
1.0
 21
1.0
 12
0.0
 22
0.0
 13
0.0
 23
0.0
 14
0.5
 24
0.5
 15
0.5
 25
0.5
 16
0.0
 26
0.0
 36
1.0
 17
0.0
 27
0.0
 37
0.0
 40
1000.0
 41
1.34
 42
50.0
 43
0.0
 44
0.0
 50
0.0
 51
0.0
 71
0
 72
1000
 73
1
 74
3
 75
0
 76
0
 77
0
 78
0
281
0
 65
0
146
0.0
  0
ENDTAB
  0
TABLE
  2
LTYPE
  5
2
330
0
100
AcDbSymbolTable
 70
21
  0
LTYPE
  5
24
330
2
100
AcDbSymbolTableRecord
100
AcDbLinetypeTableRecord
  2
ByBlock
 70
0
  3

 72
65
 73
0
 40
0.0
  0
LTYPE
  5
25
330
2
100
AcDbSymbolTableRecord
100
AcDbLinetypeTableRecord
  2
ByLayer
 70
0
  3

 72
65
 73
0
 40
0.0
  0
LTYPE
  5
26
330
2
100
AcDbSymbolTableRecord
100
AcDbLinetypeTableRecord
  2
Continuous
 70
0
  3

 72
65
 73
0
 40
0.0
  0
LTYPE
  5
2F
330
2
100
AcDbSymbolTableRecord
100
AcDbLinetypeTableRecord
  2
CENTER
 70
0
  3
Center ____ _ ____ _ ____ _ ____ _ ____ _ ____
 72
65
 73
4
 40
5.08
 49
3.175
 74
0
 49
-0.635
 74
0
 49
0.635
 74
0
 49
-0.635
 74
0
  0
LTYPE
  5
30
330
2
100
AcDbSymbolTableRecord
100
AcDbLinetypeTableRecord
  2
CENTERX2
 70
0
  3
Center (2x) ________  __  ________  __  ________
 72
65
 73
4
 40
8.89
 49
6.35
 74
0
 49
-0.635
 74
0
 49
1.27
 74
0
 49
-0.635
 74
0
  0
LTYPE
  5
31
330
2
100
AcDbSymbolTableRecord
100
AcDbLinetypeTableRecord
  2
CENTER2
 70
0
  3
Center (.5x) ____ _ ____ _ ____ _ ____ _ ____
 72
65
 73
4
 40
2.54
 49
1.587
 74
0
 49
-0.318
 74
0
 49
0.318
 74
0
 49
-0.318
 74
0
  0
LTYPE
  5
32
330
2
100
AcDbSymbolTableRecord
100
AcDbLinetypeTableRecord
  2
DASHED
 70
0
  3
Dashed __ __ __ __ __ __ __ __ __ __ __ __ __ _
 72
65
 73
2
 40
1.524
 49
1.27
 74
0
 49
-0.254
 74
0
  0
LTYPE
  5
33
330
2
100
AcDbSymbolTableRecord
100
AcDbLinetypeTableRecord
  2
DASHEDX2
 70
0
  3
Dashed (2x) ____  ____  ____  ____  ____  ____
 72
65
 73
2
 40
3.048
 49
2.54
 74
0
 49
-0.508
 74
0
  0
LTYPE
  5
34
330
2
100
AcDbSymbolTableRecord
100
AcDbLinetypeTableRecord
  2
DASHED2
 70
0
  3
Dashed (.5x) _ _ _ _ _ _ _ _ _ _ _ _ _ _
 72
65
 73
2
 40
0.762
 49
0.635
 74
0
 49
-0.127
 74
0
  0
LTYPE
  5
35
330
2
100
AcDbSymbolTableRecord
100
AcDbLinetypeTableRecord
  2
PHANTOM
 70
0
  3
Phantom ______  __  __  ______  __  __  ______
 72
65
 73
6
 40
6.35
 49
3.175
 74
0
 49
-0.635
 74
0
 49
0.635
 74
0
 49
-0.635
 74
0
 49
0.635
 74
0
 49
-0.635
 74
0
  0
LTYPE
  5
36
330
2
100
AcDbSymbolTableRecord
100
AcDbLinetypeTableRecord
  2
PHANTOMX2
 70
0
  3
Phantom (2x)____________    ____    ____    ____________
 72
65
 73
6
 40
10.795
 49
6.35
 74
0
 49
-0.635
 74
0
 49
1.27
 74
0
 49
-0.635
 74
0
 49
1.27
 74
0
 49
-0.635
 74
0
  0
LTYPE
  5
37
330
2
100
AcDbSymbolTableRecord
100
AcDbLinetypeTableRecord
  2
PHANTOM2
 70
0
  3
Phantom (.5x) ___ _ _ ___ _ _ ___ _ _ ___ _ _ ___
 72
65
 73
6
 40
3.175
 49
1.587
 74
0
 49
-0.318
 74
0
 49
0.318
 74
0
 49
-0.318
 74
0
 49
0.318
 74
0
 49
-0.318
 74
0
  0
LTYPE
  5
38
330
2
100
AcDbSymbolTableRecord
100
AcDbLinetypeTableRecord
  2
DASHDOT
 70
0
  3
Dash dot __ . __ . __ . __ . __ . __ . __ . __
 72
65
 73
4
 40
3.556
 49
2.54
 74
0
 49
-0.508
 74
0
 49
0.0
 74
0
 49
-0.508
 74
0
  0
LTYPE
  5
39
330
2
100
AcDbSymbolTableRecord
100
AcDbLinetypeTableRecord
  2
DASHDOTX2
 70
0
  3
Dash dot (2x) ____  .  ____  .  ____  .  ____
 72
65
 73
4
 40
6.096
 49
5.08
 74
0
 49
-0.508
 74
0
 49
0.0
 74
0
 49
-0.508
 74
0
  0
LTYPE
  5
3A
330
2
100
AcDbSymbolTableRecord
100
AcDbLinetypeTableRecord
  2
DASHDOT2
 70
0
  3
Dash dot (.5x) _ . _ . _ . _ . _ . _ . _ . _
 72
65
 73
4
 40
1.778
 49
1.27
 74
0
 49
-0.254
 74
0
 49
0.0
 74
0
 49
-0.254
 74
0
  0
LTYPE
  5
3B
330
2
100
AcDbSymbolTableRecord
100
AcDbLinetypeTableRecord
  2
DOT
 70
0
  3
Dot .  .  .  .  .  .  .  .  .  .  .  .  .  .  .  .
 72
65
 73
2
 40
0.508
 49
0.0
 74
0
 49
-0.508
 74
0
  0
LTYPE
  5
3C
330
2
100
AcDbSymbolTableRecord
100
AcDbLinetypeTableRecord
  2
DOTX2
 70
0
  3
Dot (2x) .    .    .    .    .    .    .    . 
 72
65
 73
2
 40
1.016
 49
0.0
 74
0
 49
-1.016
 74
0
  0
LTYPE
  5
3D
330
2
100
AcDbSymbolTableRecord
100
AcDbLinetypeTableRecord
  2
DOT2
 70
0
  3
Dot (.5) . . . . . . . . . . . . . . . . . . . 
 72
65
 73
2
 40
0.254
 49
0.0
 74
0
 49
-0.254
 74
0
  0
LTYPE
  5
3E
330
2
100
AcDbSymbolTableRecord
100
AcDbLinetypeTableRecord
  2
DIVIDE
 70
0
  3
Divide __ . . __ . . __ . . __ . . __ . . __
 72
65
 73
6
 40
4.064
 49
2.54
 74
0
 49
-0.508
 74
0
 49
0.0
 74
0
 49
-0.508
 74
0
 49
0.0
 74
0
 49
-0.508
 74
0
  0
LTYPE
  5
3F
330
2
100
AcDbSymbolTableRecord
100
AcDbLinetypeTableRecord
  2
DIVIDEX2
 70
0
  3
Divide (2x) ____  . .  ____  . .  ____  . .  ____
 72
65
 73
6
 40
6.604
 49
5.08
 74
0
 49
-0.508
 74
0
 49
0.0
 74
0
 49
-0.508
 74
0
 49
0.0
 74
0
 49
-0.508
 74
0
  0
LTYPE
  5
40
330
2
100
AcDbSymbolTableRecord
100
AcDbLinetypeTableRecord
  2
DIVIDE2
 70
0
  3
Divide(.5x) _ . _ . _ . _ . _ . _ . _ . _
 72
65
 73
6
 40
2.032
 49
1.27
 74
0
 49
-0.254
 74
0
 49
0.0
 74
0
 49
-0.254
 74
0
 49
0.0
 74
0
 49
-0.254
 74
0
  0
ENDTAB
  0
TABLE
  2
LAYER
  5
1
330
0
100
AcDbSymbolTable
 70
26
  0
LAYER
  5
27
330
1
100
AcDbSymbolTableRecord
100
AcDbLayerTableRecord
  2
0
 70
0
 62
7
  6
Continuous
370
-3
390
13
347
21
  0
LAYER
  5
28
330
1
100
AcDbSymbolTableRecord
100
AcDbLayerTableRecord
  2
Defpoints
 70
0
 62
7
  6
Continuous
290
0
370
-3
390
13
347
21
  0
LAYER
  5
8A
330
1
100
AcDbSymbolTableRecord
100
AcDbLayerTableRecord
  2
S-CONCRETE
 70
0
 62
7
  6
Continuous
370
-3
390
13
347
21
1001
AcAecLayerStandard
1000

1000
Structural concrete outlines (cut)
  0
LAYER
  5
8C
330
1
100
AcDbSymbolTableRecord
100
AcDbLayerTableRecord
  2
S-CONCRETE-THIN
 70
0
 62
7
  6
Continuous
370
-3
390
13
347
21
1001
AcAecLayerStandard
1000

1000
Concrete beyond the cut plane
  0
LAYER
  5
8D
330
1
100
AcDbSymbolTableRecord
100
AcDbLayerTableRecord
  2
S-HIDDEN
 70
0
 62
8
  6
Continuous
370
-3
390
13
347
21
1001
AcAecLayerStandard
1000

1000
Concrete / features beyond, hidden
  0
LAYER
  5
8E
330
1
100
AcDbSymbolTableRecord
100
AcDbLayerTableRecord
  2
S-REBAR-MAIN
 70
0
 62
1
  6
Continuous
370
-3
390
13
347
21
1001
AcAecLayerStandard
1000

1000
Main reinforcement
  0
LAYER
  5
8F
330
1
100
AcDbSymbolTableRecord
100
AcDbLayerTableRecord
  2
S-REBAR-DIST
 70
0
 62
3
  6
Continuous
370
-3
390
13
347
21
1001
AcAecLayerStandard
1000

1000
Distribution reinforcement
  0
LAYER
  5
90
330
1
100
AcDbSymbolTableRecord
100
AcDbLayerTableRecord
  2
S-REBAR-STIRRUP
 70
0
 62
6
  6
Continuous
370
-3
390
13
347
21
1001
AcAecLayerStandard
1000

1000
Links and stirrups
  0
LAYER
  5
91
330
1
100
AcDbSymbolTableRecord
100
AcDbLayerTableRecord
  2
S-REBAR-TIE
 70
0
 62
6
  6
Continuous
370
-3
390
13
347
21
1001
AcAecLayerStandard
1000

1000
Ties, cross-ties, starters
  0
LAYER
  5
92
330
1
100
AcDbSymbolTableRecord
100
AcDbLayerTableRecord
  2
S-REBAR-SEC
 70
0
 62
4
  6
Continuous
370
-3
390
13
347
21
1001
AcAecLayerStandard
1000

1000
Trimmers, secondary and additional bars
  0
LAYER
  5
93
330
1
100
AcDbSymbolTableRecord
100
AcDbLayerTableRecord
  2
S-DIM
 70
0
 62
4
  6
Continuous
370
-3
390
13
347
21
1001
AcAecLayerStandard
1000

1000
Dimensions
  0
LAYER
  5
94
330
1
100
AcDbSymbolTableRecord
100
AcDbLayerTableRecord
  2
S-TEXT
 70
0
 62
7
  6
Continuous
370
-3
390
13
347
21
1001
AcAecLayerStandard
1000

1000
General annotation
  0
LAYER
  5
95
330
1
100
AcDbSymbolTableRecord
100
AcDbLayerTableRecord
  2
S-NOTE
 70
0
 62
7
  6
Continuous
370
-3
390
13
347
21
1001
AcAecLayerStandard
1000

1000
Note panels
  0
LAYER
  5
96
330
1
100
AcDbSymbolTableRecord
100
AcDbLayerTableRecord
  2
S-CALLOUT
 70
0
 62
2
  6
Continuous
370
-3
390
13
347
21
1001
AcAecLayerStandard
1000

1000
Bar-mark balloons and leaders
  0
LAYER
  5
97
330
1
100
AcDbSymbolTableRecord
100
AcDbLayerTableRecord
  2
S-SECTION
 70
0
 62
1
  6
Continuous
370
-3
390
13
347
21
1001
AcAecLayerStandard
1000

1000
Section and detail markers
  0
LAYER
  5
98
330
1
100
AcDbSymbolTableRecord
100
AcDbLayerTableRecord
  2
S-GRID
 70
0
 62
5
  6
Continuous
370
-3
390
13
347
21
1001
AcAecLayerStandard
1000

1000
Grid lines and bubbles
  0
LAYER
  5
99
330
1
100
AcDbSymbolTableRecord
100
AcDbLayerTableRecord
  2
S-CENTER
 70
0
 62
6
  6
Continuous
370
-3
390
13
347
21
1001
AcAecLayerStandard
1000

1000
Centrelines
  0
LAYER
  5
9A
330
1
100
AcDbSymbolTableRecord
100
AcDbLayerTableRecord
  2
S-HATCH
 70
0
 62
8
  6
Continuous
370
-3
390
13
347
21
1001
AcAecLayerStandard
1000

1000
Section hatch
  0
LAYER
  5
9B
330
1
100
AcDbSymbolTableRecord
100
AcDbLayerTableRecord
  2
S-TITLE
 70
0
 62
7
  6
Continuous
370
-3
390
13
347
21
1001
AcAecLayerStandard
1000

1000
Border, title block, view titles
  0
LAYER
  5
9C
330
1
100
AcDbSymbolTableRecord
100
AcDbLayerTableRecord
  2
S-EXISTING
 70
0
 62
8
  6
Continuous
370
-3
390
13
347
21
1001
AcAecLayerStandard
1000

1000
Soil, rock, berm, cover layers
  0
LAYER
  5
9D
330
1
100
AcDbSymbolTableRecord
100
AcDbLayerTableRecord
  2
S-REFERENCE
 70
0
 62
8
  6
Continuous
370
-3
390
13
347
21
1001
AcAecLayerStandard
1000

1000
Reference geometry, extents
  0
LAYER
  5
9E
330
1
100
AcDbSymbolTableRecord
100
AcDbLayerTableRecord
  2
S-WATERPROOF
 70
0
 62
30
  6
Continuous
370
-3
390
13
347
21
1001
AcAecLayerStandard
1000

1000
Membranes, waterstops, GWT
  0
LAYER
  5
9F
330
1
100
AcDbSymbolTableRecord
100
AcDbLayerTableRecord
  2
S-STEELWORK
 70
0
 62
2
  6
Continuous
370
-3
390
13
347
21
1001
AcAecLayerStandard
1000

1000
Cast-in frames, EMP straps, steel items
  0
LAYER
  5
A0
330
1
100
AcDbSymbolTableRecord
100
AcDbLayerTableRecord
  2
S-LEVEL
 70
0
 62
4
  6
Continuous
370
-3
390
13
347
21
1001
AcAecLayerStandard
1000

1000
Level markers
  0
LAYER
  5
A1
330
1
100
AcDbSymbolTableRecord
100
AcDbLayerTableRecord
  2
S-TABLE
 70
0
 62
7
  6
Continuous
370
-3
390
13
347
21
1001
AcAecLayerStandard
1000

1000
Tables and schedules
  0
LAYER
  5
A2
330
1
100
AcDbSymbolTableRecord
100
AcDbLayerTableRecord
  2
S-BLAST
 70
0
 62
1
  6
Continuous
370
-3
390
13
347
21
1001
AcAecLayerStandard
1000

1000
Blast arrows, findings, warnings
  0
ENDTAB
  0
TABLE
  2
STYLE
  5
5
330
0
100
AcDbSymbolTable
 70
26
  0
STYLE
  5
29
330
5
100
AcDbSymbolTableRecord
100
AcDbTextStyleTableRecord
  2
Standard
 70
0
 40
0.0
 41
1.0
 50
0.0
 71
0
 42
2.5
  3
txt
  4

  0
STYLE
  5
41
330
5
100
AcDbSymbolTableRecord
100
AcDbTextStyleTableRecord
  2
OpenSans-Light
 70
0
 40
0.0
 41
1.0
 50
0.0
 71
0
 42
2.5
  3
OpenSans-Light.ttf
  4

  0
STYLE
  5
42
330
5
100
AcDbSymbolTableRecord
100
AcDbTextStyleTableRecord
  2
OpenSans-Light-Italic
 70
0
 40
0.0
 41
1.0
 50
0.0
 71
0
 42
2.5
  3
OpenSans-LightItalic.ttf
  4

  0
STYLE
  5
43
330
5
100
AcDbSymbolTableRecord
100
AcDbTextStyleTableRecord
  2
OpenSans
 70
0
 40
0.0
 41
1.0
 50
0.0
 71
0
 42
2.5
  3
OpenSans-Regular.ttf
  4

  0
STYLE
  5
44
330
5
100
AcDbSymbolTableRecord
100
AcDbTextStyleTableRecord
  2
OpenSans-Italic
 70
0
 40
0.0
 41
1.0
 50
0.0
 71
0
 42
2.5
  3
OpenSans-Italic.ttf
  4

  0
STYLE
  5
45
330
5
100
AcDbSymbolTableRecord
100
AcDbTextStyleTableRecord
  2
OpenSans-SemiBold
 70
0
 40
0.0
 41
1.0
 50
0.0
 71
0
 42
2.5
  3
OpenSans-SemiBold.ttf
  4

  0
STYLE
  5
46
330
5
100
AcDbSymbolTableRecord
100
AcDbTextStyleTableRecord
  2
OpenSans-SemiBoldItalic
 70
0
 40
0.0
 41
1.0
 50
0.0
 71
0
 42
2.5
  3
OpenSans-SemiBoldItalic.ttf
  4

  0
STYLE
  5
47
330
5
100
AcDbSymbolTableRecord
100
AcDbTextStyleTableRecord
  2
OpenSans-Bold
 70
0
 40
0.0
 41
1.0
 50
0.0
 71
0
 42
2.5
  3
OpenSans-Bold.ttf
  4

  0
STYLE
  5
48
330
5
100
AcDbSymbolTableRecord
100
AcDbTextStyleTableRecord
  2
OpenSans-BoldItalic
 70
0
 40
0.0
 41
1.0
 50
0.0
 71
0
 42
2.5
  3
OpenSans-BoldItalic.ttf
  4

  0
STYLE
  5
49
330
5
100
AcDbSymbolTableRecord
100
AcDbTextStyleTableRecord
  2
OpenSans-ExtraBold
 70
0
 40
0.0
 41
1.0
 50
0.0
 71
0
 42
2.5
  3
OpenSans-ExtraBold.ttf
  4

  0
STYLE
  5
4A
330
5
100
AcDbSymbolTableRecord
100
AcDbTextStyleTableRecord
  2
OpenSans-ExtraBoldItalic
 70
0
 40
0.0
 41
1.0
 50
0.0
 71
0
 42
2.5
  3
OpenSans-ExtraBoldItalic.ttf
  4

  0
STYLE
  5
4B
330
5
100
AcDbSymbolTableRecord
100
AcDbTextStyleTableRecord
  2
OpenSansCondensed-Bold
 70
0
 40
0.0
 41
1.0
 50
0.0
 71
0
 42
2.5
  3
OpenSansCondensed-Bold.ttf
  4

  0
STYLE
  5
4C
330
5
100
AcDbSymbolTableRecord
100
AcDbTextStyleTableRecord
  2
OpenSansCondensed-Light
 70
0
 40
0.0
 41
1.0
 50
0.0
 71
0
 42
2.5
  3
OpenSansCondensed-Light.ttf
  4

  0
STYLE
  5
4D
330
5
100
AcDbSymbolTableRecord
100
AcDbTextStyleTableRecord
  2
OpenSansCondensed-Italic
 70
0
 40
0.0
 41
1.0
 50
0.0
 71
0
 42
2.5
  3
OpenSansCondensed-LightItalic.ttf
  4

  0
STYLE
  5
4E
330
5
100
AcDbSymbolTableRecord
100
AcDbTextStyleTableRecord
  2
LiberationSans
 70
0
 40
0.0
 41
1.0
 50
0.0
 71
0
 42
2.5
  3
LiberationSans-Regular.ttf
  4

  0
STYLE
  5
4F
330
5
100
AcDbSymbolTableRecord
100
AcDbTextStyleTableRecord
  2
LiberationSans-Bold
 70
0
 40
0.0
 41
1.0
 50
0.0
 71
0
 42
2.5
  3
LiberationSans-Bold.ttf
  4

  0
STYLE
  5
50
330
5
100
AcDbSymbolTableRecord
100
AcDbTextStyleTableRecord
  2
LiberationSans-BoldItalic
 70
0
 40
0.0
 41
1.0
 50
0.0
 71
0
 42
2.5
  3
LiberationSans-BoldItalic.ttf
  4

  0
STYLE
  5
51
330
5
100
AcDbSymbolTableRecord
100
AcDbTextStyleTableRecord
  2
LiberationSans-Italic
 70
0
 40
0.0
 41
1.0
 50
0.0
 71
0
 42
2.5
  3
LiberationSans-Italic.ttf
  4

  0
STYLE
  5
52
330
5
100
AcDbSymbolTableRecord
100
AcDbTextStyleTableRecord
  2
LiberationSerif
 70
0
 40
0.0
 41
1.0
 50
0.0
 71
0
 42
2.5
  3
LiberationSerif-Regular.ttf
  4

  0
STYLE
  5
53
330
5
100
AcDbSymbolTableRecord
100
AcDbTextStyleTableRecord
  2
LiberationSerif-Bold
 70
0
 40
0.0
 41
1.0
 50
0.0
 71
0
 42
2.5
  3
LiberationSerif-Bold.ttf
  4

  0
STYLE
  5
54
330
5
100
AcDbSymbolTableRecord
100
AcDbTextStyleTableRecord
  2
LiberationSerif-BoldItalic
 70
0
 40
0.0
 41
1.0
 50
0.0
 71
0
 42
2.5
  3
LiberationSerif-BoldItalic.ttf
  4

  0
STYLE
  5
55
330
5
100
AcDbSymbolTableRecord
100
AcDbTextStyleTableRecord
  2
LiberationSerif-Italic
 70
0
 40
0.0
 41
1.0
 50
0.0
 71
0
 42
2.5
  3
LiberationSerif-Italic.ttf
  4

  0
STYLE
  5
56
330
5
100
AcDbSymbolTableRecord
100
AcDbTextStyleTableRecord
  2
LiberationMono
 70
0
 40
0.0
 41
1.0
 50
0.0
 71
0
 42
2.5
  3
LiberationMono-Regular.ttf
  4

  0
STYLE
  5
57
330
5
100
AcDbSymbolTableRecord
100
AcDbTextStyleTableRecord
  2
LiberationMono-Bold
 70
0
 40
0.0
 41
1.0
 50
0.0
 71
0
 42
2.5
  3
LiberationMono-Bold.ttf
  4

  0
STYLE
  5
58
330
5
100
AcDbSymbolTableRecord
100
AcDbTextStyleTableRecord
  2
LiberationMono-BoldItalic
 70
0
 40
0.0
 41
1.0
 50
0.0
 71
0
 42
2.5
  3
LiberationMono-BoldItalic.ttf
  4

  0
STYLE
  5
59
330
5
100
AcDbSymbolTableRecord
100
AcDbTextStyleTableRecord
  2
LiberationMono-Italic
 70
0
 40
0.0
 41
1.0
 50
0.0
 71
0
 42
2.5
  3
LiberationMono-Italic.ttf
  4

  0
ENDTAB
  0
TABLE
  2
VIEW
  5
7
330
0
100
AcDbSymbolTable
 70
0
  0
ENDTAB
  0
TABLE
  2
UCS
  5
6
330
0
100
AcDbSymbolTable
 70
0
  0
ENDTAB
  0
TABLE
  2
APPID
  5
3
330
0
100
AcDbSymbolTable
 70
4
  0
APPID
  5
2A
330
3
100
AcDbSymbolTableRecord
100
AcDbRegAppTableRecord
  2
ACAD
 70
0
  0
APPID
  5
8B
330
3
100
AcDbSymbolTableRecord
100
AcDbRegAppTableRecord
  2
AcAecLayerStandard
 70
0
  0
APPID
  5
1C7
330
3
100
AcDbSymbolTableRecord
100
AcDbRegAppTableRecord
  2
HATCHBACKGROUNDCOLOR
 70
0
  0
APPID
  5
1C8
330
3
100
AcDbSymbolTableRecord
100
AcDbRegAppTableRecord
  2
EZDXF
 70
0
  0
ENDTAB
  0
TABLE
  2
DIMSTYLE
  5
4
330
0
100
AcDbSymbolTable
 70
14
100
AcDbDimStyleTable
  0
DIMSTYLE
105
2B
330
4
100
AcDbSymbolTableRecord
100
AcDbDimStyleTableRecord
  2
Standard
 70
0
 40
1.0
 41
2.5
 42
0.625
 43
3.75
 44
1.25
 45
0.0
 46
0.0
 47
0.0
 48
0.0
 49
2.5
140
2.5
141
2.5
142
0.0
143
0.03937007874
144
1.0
145
0.0
146
1.0
147
0.625
148
0.0
 69
0
 70
0
 71
0
 72
0
 73
0
 74
0
 75
0
 76
0
 77
1
 78
8
 79
3
170
0
171
3
172
1
173
0
174
0
175
0
176
0
177
0
178
0
179
2
271
2
272
2
273
2
274
3
275
0
276
0
277
2
278
44
279
0
280
0
281
0
282
0
283
0
284
8
285
0
286
0
288
0
289
3
290
0
371
-2
372
-2
  0
DIMSTYLE
105
73
330
4
100
AcDbSymbolTableRecord
100
AcDbDimStyleTableRecord
  2
EZDXF
 70
0
 40
1.0
 41
0.175
 42
0.125
 43
3.75
 44
0.375
 45
0.0
 46
0.0
 47
0.0
 48
0.0
 49
2.5
140
0.25
141
2.5
142
0.0
143
0.03937007874
144
100.0
145
0.0
146
0.5
147
0.1
148
0.0
 69
0
 70
0
 71
0
 72
0
 73
0
 74
0
 75
0
 76
0
 77
1
 78
12
 79
3
170
0
171
3
172
1
173
0
174
0
175
0
176
0
177
0
178
0
179
2
271
2
272
2
273
2
274
3
275
0
276
0
277
2
278
46
279
2
280
0
281
0
282
0
283
0
284
8
285
0
286
0
288
1
289
3
290
0
340
4C
342
74
371
-2
372
-2
  0
DIMSTYLE
105
7C
330
4
100
AcDbSymbolTableRecord
100
AcDbDimStyleTableRecord
  2
EZ_M_100_H25_CM
 70
0
 40
1.0
 41
0.25
 42
0.125
 43
3.75
 44
0.375
 45
0.0
 46
0.0
 47
0.0
 48
0.0
 49
2.5
140
0.25
141
2.5
142
0.125
143
0.03937007874
144
100.0
145
0.0
146
0.5
147
0.1
148
0.0
 69
0
 70
0
 71
0
 72
0
 73
0
 74
0
 75
0
 76
0
 77
1
 78
12
 79
3
170
0
171
3
172
1
173
0
174
0
175
0
176
0
177
0
178
0
179
2
271
2
272
2
273
2
274
3
275
0
276
0
277
2
278
46
279
2
280
0
281
0
282
0
283
0
284
8
285
0
286
0
288
1
289
3
290
0
340
4C
371
-2
372
-2
  0
DIMSTYLE
105
7D
330
4
100
AcDbSymbolTableRecord
100
AcDbDimStyleTableRecord
  2
EZ_M_50_H25_CM
 70
0
 40
1.0
 41
0.125
 42
0.0625
 43
3.75
 44
0.1875
 45
0.0
 46
0.0
 47
0.0
 48
0.0
 49
2.5
140
0.125
141
2.5
142
0.0625
143
0.03937007874
144
100.0
145
0.0
146
0.5
147
0.05
148
0.0
 69
0
 70
0
 71
0
 72
0
 73
0
 74
0
 75
0
 76
0
 77
1
 78
12
 79
3
170
0
171
3
172
1
173
0
174
0
175
0
176
0
177
0
178
0
179
2
271
2
272
2
273
2
274
3
275
0
276
0
277
2
278
46
279
2
280
0
281
0
282
0
283
0
284
8
285
0
286
0
288
1
289
3
290
0
340
4C
371
-2
372
-2
  0
DIMSTYLE
105
7E
330
4
100
AcDbSymbolTableRecord
100
AcDbDimStyleTableRecord
  2
EZ_M_25_H25_CM
 70
0
 40
1.0
 41
0.0625
 42
0.03125
 43
3.75
 44
0.09375
 45
0.0
 46
0.0
 47
0.0
 48
0.0
 49
2.5
140
0.0625
141
2.5
142
0.03125
143
0.03937007874
144
100.0
145
0.0
146
0.5
147
0.025
148
0.0
 69
0
 70
0
 71
0
 72
0
 73
0
 74
0
 75
0
 76
0
 77
1
 78
12
 79
3
170
0
171
3
172
1
173
0
174
0
175
0
176
0
177
0
178
0
179
2
271
2
272
2
273
2
274
3
275
0
276
0
277
2
278
46
279
2
280
0
281
0
282
0
283
0
284
8
285
0
286
0
288
1
289
3
290
0
340
4C
371
-2
372
-2
  0
DIMSTYLE
105
7F
330
4
100
AcDbSymbolTableRecord
100
AcDbDimStyleTableRecord
  2
EZ_M_20_H25_CM
 70
0
 40
1.0
 41
0.05
 42
0.025
 43
3.75
 44
0.07500000000000001
 45
0.0
 46
0.0
 47
0.0
 48
0.0
 49
2.5
140
0.05
141
2.5
142
0.025
143
0.03937007874
144
100.0
145
0.0
146
0.5
147
0.020000000000000004
148
0.0
 69
0
 70
0
 71
0
 72
0
 73
0
 74
0
 75
0
 76
0
 77
1
 78
12
 79
3
170
0
171
3
172
1
173
0
174
0
175
0
176
0
177
0
178
0
179
2
271
2
272
2
273
2
274
3
275
0
276
0
277
2
278
46
279
2
280
0
281
0
282
0
283
0
284
8
285
0
286
0
288
1
289
3
290
0
340
4C
371
-2
372
-2
  0
DIMSTYLE
105
80
330
4
100
AcDbSymbolTableRecord
100
AcDbDimStyleTableRecord
  2
EZ_M_10_H25_CM
 70
0
 40
1.0
 41
0.025
 42
0.0125
 43
3.75
 44
0.037500000000000006
 45
0.0
 46
0.0
 47
0.0
 48
0.0
 49
2.5
140
0.025
141
2.5
142
0.0125
143
0.03937007874
144
100.0
145
0.0
146
0.5
147
0.010000000000000002
148
0.0
 69
0
 70
0
 71
0
 72
0
 73
0
 74
0
 75
0
 76
0
 77
1
 78
12
 79
3
170
0
171
3
172
1
173
0
174
0
175
0
176
0
177
0
178
0
179
2
271
2
272
2
273
2
274
3
275
0
276
0
277
2
278
46
279
2
280
0
281
0
282
0
283
0
284
8
285
0
286
0
288
1
289
3
290
0
340
4C
371
-2
372
-2
  0
DIMSTYLE
105
81
330
4
100
AcDbSymbolTableRecord
100
AcDbDimStyleTableRecord
  2
EZ_M_5_H25_CM
 70
0
 40
1.0
 41
0.0125
 42
0.00625
 43
3.75
 44
0.018750000000000003
 45
0.0
 46
0.0
 47
0.0
 48
0.0
 49
2.5
140
0.0125
141
2.5
142
0.00625
143
0.03937007874
144
100.0
145
0.0
146
0.5
147
0.005000000000000001
148
0.0
 69
0
 70
0
 71
0
 72
0
 73
0
 74
0
 75
0
 76
0
 77
1
 78
12
 79
3
170
0
171
3
172
1
173
0
174
0
175
0
176
0
177
0
178
0
179
2
271
2
272
2
273
2
274
3
275
0
276
0
277
2
278
46
279
2
280
0
281
0
282
0
283
0
284
8
285
0
286
0
288
1
289
3
290
0
340
4C
371
-2
372
-2
  0
DIMSTYLE
105
82
330
4
100
AcDbSymbolTableRecord
100
AcDbDimStyleTableRecord
  2
EZ_M_1_H25_CM
 70
0
 40
1.0
 41
0.0025
 42
0.00125
 43
3.75
 44
0.00375
 45
0.0
 46
0.0
 47
0.0
 48
0.0
 49
2.5
140
0.0025
141
2.5
142
0.00125
143
0.03937007874
144
100.0
145
0.0
146
0.5
147
0.001
148
0.0
 69
0
 70
0
 71
0
 72
0
 73
0
 74
0
 75
0
 76
0
 77
1
 78
12
 79
3
170
0
171
3
172
1
173
0
174
0
175
0
176
0
177
0
178
0
179
2
271
2
272
2
273
2
274
3
275
0
276
0
277
2
278
46
279
2
280
0
281
0
282
0
283
0
284
8
285
0
286
0
288
1
289
3
290
0
340
4C
371
-2
372
-2
  0
DIMSTYLE
105
83
330
4
100
AcDbSymbolTableRecord
100
AcDbDimStyleTableRecord
  2
EZ_RADIUS
 70
0
 40
1.0
 41
0.25
 42
0.125
 43
3.75
 44
0.375
 45
0.0
 46
0.0
 47
0.0
 48
0.0
 49
2.5
140
0.25
141
0.0
142
0.0
143
0.03937007874
144
100.0
145
0.0
146
0.5
147
0.1
148
0.0
 69
0
 70
0
 71
0
 72
0
 73
0
 74
0
 75
0
 76
0
 77
1
 78
12
 79
3
170
0
171
3
172
0
173
0
174
0
175
0
176
0
177
0
178
0
179
2
271
2
272
2
273
2
274
3
275
0
276
0
277
2
278
46
279
1
280
0
281
0
282
0
283
0
284
8
285
0
286
0
288
1
289
3
290
0
340
4C
342
84
371
-2
372
-2
  0
DIMSTYLE
105
88
330
4
100
AcDbSymbolTableRecord
100
AcDbDimStyleTableRecord
  2
EZ_RADIUS_INSIDE
 70
0
 40
1.0
 41
0.25
 42
0.125
 43
3.75
 44
0.375
 45
0.0
 46
0.0
 47
0.0
 48
0.0
 49
2.5
140
0.25
141
0.0
142
0.0
143
0.03937007874
144
100.0
145
0.0
146
0.5
147
0.1
148
0.0
 69
0
 70
0
 71
0
 72
0
 73
0
 74
0
 75
0
 76
0
 77
0
 78
12
 79
3
170
0
171
3
172
0
173
0
174
1
175
0
176
0
177
0
178
0
179
2
271
2
272
2
273
2
274
3
275
0
276
0
277
2
278
46
279
0
280
0
281
0
282
0
283
0
284
8
285
0
286
0
288
1
289
0
290
0
340
4C
342
84
371
-2
372
-2
  0
DIMSTYLE
105
89
330
4
100
AcDbSymbolTableRecord
100
AcDbDimStyleTableRecord
  2
EZ_CURVED
 70
0
 40
1.0
 41
0.25
 42
0.125
 43
3.75
 44
0.375
 45
0.0
 46
0.0
 47
0.0
 48
0.0
 49
2.5
140
0.25
141
2.5
142
0.0
143
0.03937007874
144
100.0
145
0.0
146
0.5
147
0.1
148
0.0
 69
0
 70
0
 71
0
 72
0
 73
0
 74
0
 75
0
 76
0
 77
1
 78
12
 79
2
 90
2
170
0
171
3
172
1
173
0
174
0
175
0
176
0
177
0
178
0
179
2
271
2
272
2
273
2
274
3
275
0
276
0
277
2
278
46
279
2
280
0
281
0
282
0
283
0
284
8
285
0
286
0
288
1
289
3
290
0
340
4C
371
-2
372
-2
  0
DIMSTYLE
105
A3
330
4
100
AcDbSymbolTableRecord
100
AcDbDimStyleTableRecord
  2
SC-DIM
 70
0
 40
1.0
 41
1.6
 42
1.0
 43
3.75
 44
1.2
 45
0.0
 46
0.0
 47
0.0
 48
0.0
 49
2.5
140
1.8
141
2.5
142
0.0
143
0.03937007874
144
1.0
145
0.0
146
1.0
147
0.8
148
0.0
 69
0
 70
0
 71
0
 72
0
 73
0
 74
0
 75
0
 76
0
 77
1
 78
8
 79
3
170
0
171
3
172
1
173
0
174
0
175
0
176
4
177
4
178
4
179
2
271
0
272
2
273
2
274
3
275
0
276
0
277
2
278
44
279
0
280
0
281
0
282
0
283
0
284
8
285
0
286
0
288
0
289
3
290
0
342
74
371
13
372
13
  0
DIMSTYLE
105
A4
330
4
100
AcDbSymbolTableRecord
100
AcDbDimStyleTableRecord
  2
SC-DIM-S
 70
0
 40
1.0
 41
1.2
 42
1.0
 43
3.75
 44
1.2
 45
0.0
 46
0.0
 47
0.0
 48
0.0
 49
2.5
140
1.4
141
2.5
142
0.0
143
0.03937007874
144
1.0
145
0.0
146
1.0
147
0.8
148
0.0
 69
0
 70
0
 71
0
 72
0
 73
0
 74
0
 75
0
 76
0
 77
1
 78
8
 79
3
170
0
171
3
172
1
173
0
174
0
175
0
176
4
177
4
178
4
179
2
271
0
272
2
273
2
274
3
275
0
276
0
277
2
278
44
279
0
280
0
281
0
282
0
283
0
284
8
285
0
286
0
288
0
289
3
290
0
342
74
371
13
372
13
  0
ENDTAB
  0
TABLE
  2
BLOCK_RECORD
  5
9
330
0
100
AcDbSymbolTable
 70
11
  0
BLOCK_RECORD
  5
17
330
9
100
AcDbSymbolTableRecord
100
AcDbBlockTableRecord
  2
*Model_Space
340
1A
 70
0
280
1
281
0
  0
BLOCK_RECORD
  5
1B
330
9
100
AcDbSymbolTableRecord
100
AcDbBlockTableRecord
  2
*Paper_Space
340
1E
 70
0
280
1
281
0
  0
BLOCK_RECORD
  5
74
330
9
100
AcDbSymbolTableRecord
100
AcDbBlockTableRecord
  2
_ARCHTICK
340
0
 70
0
280
1
281
0
  0
BLOCK_RECORD
  5
78
330
9
100
AcDbSymbolTableRecord
100
AcDbBlockTableRecord
  2
_CLOSEDFILLED
340
0
 70
0
280
1
281
0
  0
BLOCK_RECORD
  5
84
330
9
100
AcDbSymbolTableRecord
100
AcDbBlockTableRecord
  2
_CLOSEDBLANK
340
0
 70
0
280
1
281
0
  0
BLOCK_RECORD
  5
A5
330
9
100
AcDbSymbolTableRecord
100
AcDbBlockTableRecord
  2
BARMARK
340
0
 70
0
280
1
281
0
  0
BLOCK_RECORD
  5
A9
330
9
100
AcDbSymbolTableRecord
100
AcDbBlockTableRecord
  2
SECMARK
340
0
 70
0
280
1
281
0
  0
BLOCK_RECORD
  5
AE
330
9
100
AcDbSymbolTableRecord
100
AcDbBlockTableRecord
  2
LEVELMK
340
0
 70
0
280
1
281
0
  0
BLOCK_RECORD
  5
B2
330
9
100
AcDbSymbolTableRecord
100
AcDbBlockTableRecord
  2
NORTH
340
0
 70
0
280
1
281
0
  0
BLOCK_RECORD
  5
124
330
9
100
AcDbSymbolTableRecord
100
AcDbBlockTableRecord
  2
*D1
340
0
 70
0
280
1
281
0
  0
BLOCK_RECORD
  5
15E
330
9
100
AcDbSymbolTableRecord
100
AcDbBlockTableRecord
  2
*D2
340
0
 70
0
280
1
281
0
  0
ENDTAB
  0
ENDSEC
  0
SECTION
  2
BLOCKS
  0
BLOCK
  5
18
330
17
100
AcDbEntity
  8
0
100
AcDbBlockBegin
  2
*Model_Space
 70
0
 10
0.0
 20
0.0
 30
0.0
  3
*Model_Space
  1

  0
ENDBLK
  5
19
330
17
100
AcDbEntity
  8
0
100
AcDbBlockEnd
  0
BLOCK
  5
1C
330
1B
100
AcDbEntity
  8
0
100
AcDbBlockBegin
  2
*Paper_Space
 70
0
 10
0.0
 20
0.0
 30
0.0
  3
*Paper_Space
  1

  0
ENDBLK
  5
1D
330
1B
100
AcDbEntity
  8
0
100
AcDbBlockEnd
  0
BLOCK
  5
75
330
74
100
AcDbEntity
  8
0
100
AcDbBlockBegin
  2
_ARCHTICK
 70
0
 10
0.0
 20
0.0
 30
0.0
  3
_ARCHTICK
  1

  0
LWPOLYLINE
  5
77
330
74
100
AcDbEntity
  8
0
  6
BYBLOCK
 62
0
100
AcDbPolyline
 90
2
 70
0
 43
0.15
 10
-0.5
 20
-0.5
 10
0.5
 20
0.5
  0
ENDBLK
  5
76
330
74
100
AcDbEntity
  8
0
100
AcDbBlockEnd
  0
BLOCK
  5
79
330
78
100
AcDbEntity
  8
0
100
AcDbBlockBegin
  2
_CLOSEDFILLED
 70
0
 10
0.0
 20
0.0
 30
0.0
  3
_CLOSEDFILLED
  1

  0
SOLID
  5
7B
330
78
100
AcDbEntity
  8
0
  6
BYBLOCK
 62
0
100
AcDbTrace
 10
-1.0
 20
0.16439898372402537
 30
0.0
 11
0.0
 21
0.0
 31
0.0
 12
-1.0
 22
-0.16439898372402537
 32
0.0
 13
-1.0
 23
-0.16439898372402537
 33
0.0
  0
ENDBLK
  5
7A
330
78
100
AcDbEntity
  8
0
100
AcDbBlockEnd
  0
BLOCK
  5
85
330
84
100
AcDbEntity
  8
0
100
AcDbBlockBegin
  2
_CLOSEDBLANK
 70
0
 10
0.0
 20
0.0
 30
0.0
  3
_CLOSEDBLANK
  1

  0
LWPOLYLINE
  5
87
330
84
100
AcDbEntity
  8
0
  6
BYBLOCK
 62
0
100
AcDbPolyline
 90
3
 70
1
 10
-1.0
 20
0.16439898372402537
 10
0.0
 20
0.0
 10
-1.0
 20
-0.16439898372402537
  0
ENDBLK
  5
86
330
84
100
AcDbEntity
  8
0
100
AcDbBlockEnd
  0
BLOCK
  5
A6
330
A5
100
AcDbEntity
  8
0
100
AcDbBlockBegin
  2
BARMARK
 70
0
 10
0.0
 20
0.0
 30
0.0
  3
BARMARK
  1

  0
CIRCLE
  5
A8
330
A5
100
AcDbEntity
  8
S-CALLOUT
100
AcDbCircle
 10
0.0
 20
0.0
 30
0.0
 40
3.2
  0
ENDBLK
  5
A7
330
A5
100
AcDbEntity
  8
0
100
AcDbBlockEnd
  0
BLOCK
  5
AA
330
A9
100
AcDbEntity
  8
0
100
AcDbBlockBegin
  2
SECMARK
 70
0
 10
0.0
 20
0.0
 30
0.0
  3
SECMARK
  1

  0
CIRCLE
  5
AC
330
A9
100
AcDbEntity
  8
S-SECTION
100
AcDbCircle
 10
0.0
 20
0.0
 30
0.0
 40
4.0
  0
LINE
  5
AD
330
A9
100
AcDbEntity
  8
S-SECTION
100
AcDbLine
 10
-4.0
 20
0.0
 30
0.0
 11
4.0
 21
0.0
 31
0.0
  0
ENDBLK
  5
AB
330
A9
100
AcDbEntity
  8
0
100
AcDbBlockEnd
  0
BLOCK
  5
AF
330
AE
100
AcDbEntity
  8
0
100
AcDbBlockBegin
  2
LEVELMK
 70
0
 10
0.0
 20
0.0
 30
0.0
  3
LEVELMK
  1

  0
LWPOLYLINE
  5
B1
330
AE
100
AcDbEntity
  8
S-LEVEL
100
AcDbPolyline
 90
4
 70
1
 10
0.0
 20
0.0
 10
-2.0
 20
3.0
 10
2.0
 20
3.0
 10
0.0
 20
0.0
  0
ENDBLK
  5
B0
330
AE
100
AcDbEntity
  8
0
100
AcDbBlockEnd
  0
BLOCK
  5
B3
330
B2
100
AcDbEntity
  8
0
100
AcDbBlockBegin
  2
NORTH
 70
0
 10
0.0
 20
0.0
 30
0.0
  3
NORTH
  1

  0
LWPOLYLINE
  5
B5
330
B2
100
AcDbEntity
  8
S-TITLE
100
AcDbPolyline
 90
5
 70
1
 10
0.0
 20
10.0
 10
-3.2
 20
-6.0
 10
0.0
 20
-2.4
 10
3.2
 20
-6.0
 10
0.0
 20
10.0
  0
CIRCLE
  5
B6
330
B2
100
AcDbEntity
  8
S-TITLE
100
AcDbCircle
 10
0.0
 20
0.0
 30
0.0
 40
12.0
  0
ENDBLK
  5
B4
330
B2
100
AcDbEntity
  8
0
100
AcDbBlockEnd
  0
BLOCK
  5
125
330
124
100
AcDbEntity
  8
0
100
AcDbBlockBegin
  2
*D1
 70
1
 10
0.0
 20
0.0
 30
0.0
  3
*D1
  1

  0
LINE
  5
127
330
124
100
AcDbEntity
  8
0
 62
4
370
13
100
AcDbLine
 10
70.0
 20
339.0
 30
0.0
 11
70.0
 21
308.8
 31
0.0
  0
LINE
  5
128
330
124
100
AcDbEntity
  8
0
 62
4
370
13
100
AcDbLine
 10
130.0
 20
339.0
 30
0.0
 11
130.0
 21
308.8
 31
0.0
  0
INSERT
  5
129
330
124
100
AcDbEntity
  8
S-DIM
 62
4
100
AcDbBlockReference
  2
_ARCHTICK
 10
70.0
 20
310.0
 30
0.0
 41
1.6
 42
1.6
 50
180.0
  0
INSERT
  5
12B
330
124
100
AcDbEntity
  8
S-DIM
 62
4
100
AcDbBlockReference
  2
_ARCHTICK
 10
130.0
 20
310.0
 30
0.0
 41
1.6
 42
1.6
  0
LINE
  5
12D
330
124
100
AcDbEntity
  8
0
 62
4
370
13
100
AcDbLine
 10
70.0
 20
310.0
 30
0.0
 11
130.0
 21
310.0
 31
0.0
  0
MTEXT
  5
12E
330
124
100
AcDbEntity
  8
S-DIM
 62
4
100
AcDbMText
 10
100.0
 20
311.7
 30
0.0
 40
1.8
 71
5
  1
600
  7
OpenSansCondensed-Light
  0
POINT
  5
12F
330
124
100
AcDbEntity
  8
Defpoints
100
AcDbPoint
 10
70.0
 20
310.0
 30
0.0
  0
POINT
  5
130
330
124
100
AcDbEntity
  8
Defpoints
100
AcDbPoint
 10
70.0
 20
340.0
 30
0.0
  0
POINT
  5
131
330
124
100
AcDbEntity
  8
Defpoints
100
AcDbPoint
 10
130.0
 20
340.0
 30
0.0
  0
ENDBLK
  5
126
330
124
100
AcDbEntity
  8
0
100
AcDbBlockEnd
  0
BLOCK
  5
15F
330
15E
100
AcDbEntity
  8
0
100
AcDbBlockBegin
  2
*D2
 70
1
 10
0.0
 20
0.0
 30
0.0
  3
*D2
  1

  0
LINE
  5
161
330
15E
100
AcDbEntity
  8
0
 62
4
370
13
100
AcDbLine
 10
390.0
 20
386.0
 30
0.0
 11
390.0
 21
406.2
 31
0.0
  0
LINE
  5
162
330
15E
100
AcDbEntity
  8
0
 62
4
370
13
100
AcDbLine
 10
395.0
 20
386.0
 30
0.0
 11
395.0
 21
406.2
 31
0.0
  0
INSERT
  5
163
330
15E
100
AcDbEntity
  8
S-DIM
 62
4
100
AcDbBlockReference
  2
_ARCHTICK
 10
390.0
 20
405.0
 30
0.0
 41
1.6
 42
1.6
 50
180.0
  0
INSERT
  5
165
330
15E
100
AcDbEntity
  8
S-DIM
 62
4
100
AcDbBlockReference
  2
_ARCHTICK
 10
395.0
 20
405.0
 30
0.0
 41
1.6
 42
1.6
  0
LINE
  5
167
330
15E
100
AcDbEntity
  8
0
 62
4
370
13
100
AcDbLine
 10
390.0
 20
405.0
 30
0.0
 11
395.0
 21
405.0
 31
0.0
  0
MTEXT
  5
168
330
15E
100
AcDbEntity
  8
S-DIM
 62
4
100
AcDbMText
 10
392.5
 20
407.9
 30
0.0
 40
1.8
 71
5
  1
100
  7
OpenSansCondensed-Light
  0
POINT
  5
169
330
15E
100
AcDbEntity
  8
Defpoints
100
AcDbPoint
 10
390.0
 20
405.0
 30
0.0
  0
POINT
  5
16A
330
15E
100
AcDbEntity
  8
Defpoints
100
AcDbPoint
 10
390.0
 20
385.0
 30
0.0
  0
POINT
  5
16B
330
15E
100
AcDbEntity
  8
Defpoints
100
AcDbPoint
 10
395.0
 20
385.0
 30
0.0
  0
ENDBLK
  5
160
330
15E
100
AcDbEntity
  8
0
100
AcDbBlockEnd
  0
ENDSEC
  0
SECTION
  2
ENTITIES
  0
LWPOLYLINE
  5
B7
330
17
100
AcDbEntity
  8
S-TITLE
100
AcDbPolyline
 90
4
 70
1
 10
0.0
 20
0.0
 10
841.0
 20
0.0
 10
841.0
 20
594.0
 10
0.0
 20
594.0
  0
LWPOLYLINE
  5
B8
330
17
100
AcDbEntity
  8
S-TITLE
100
AcDbPolyline
 90
4
 70
1
 10
10.0
 20
10.0
 10
831.0
 20
10.0
 10
831.0
 20
584.0
 10
10.0
 20
584.0
  0
TEXT
  5
B9
330
17
100
AcDbEntity
  8
S-TITLE
100
AcDbText
 10
12.0
 20
576.5
 30
0.0
 40
5.0
  1
STRUCTURAL CAD - REINFORCEMENT PACKAGE
  7
OpenSans
 11
12.0
 21
576.5
 31
0.0
100
AcDbText
  0
TEXT
  5
BA
330
17
100
AcDbEntity
  8
S-TITLE
100
AcDbText
 10
12.0
 20
569.5
 30
0.0
 40
2.4
  1
R-804   CONSTRUCTION JOINTS
  7
OpenSans
 11
12.0
 21
569.5
 31
0.0
100
AcDbText
  0
LINE
  5
BB
330
17
100
AcDbEntity
  8
S-TITLE
100
AcDbLine
 10
10.0
 20
566.5
 30
0.0
 11
831.0
 21
566.5
 31
0.0
  0
TEXT
  5
BC
330
17
100
AcDbEntity
  8
S-BLAST
100
AcDbText
 10
829.0
 20
577.0
 30
0.0
 40
2.0
  1
SENTRY POST EXCLUDED FROM THIS PACKAGE
  7
OpenSans
 72
2
 11
829.0
 21
577.0
 31
0.0
100
AcDbText
  0
TEXT
  5
BD
330
17
100
AcDbEntity
  8
S-BLAST
100
AcDbText
 10
829.0
 20
570.5
 30
0.0
 40
1.4
  1
ALL DESIGN ACTIONS ARE MANUAL CALCULATION - NOT DIRECT STAAD OUTPUT
  7
OpenSans
 72
2
 11
829.0
 21
570.5
 31
0.0
100
AcDbText
  0
TEXT
  5
BE
330
17
100
AcDbEntity
  8
S-BLAST
100
AcDbText
 10
12.0
 20
561.5
 30
0.0
 40
1.4
  1
OPEN ITEMS ON THIS SHEET:  C16 OPEN
  7
OpenSans
 11
12.0
 21
561.5
 31
0.0
100
AcDbText
  0
LWPOLYLINE
  5
BF
330
17
100
AcDbEntity
  8
S-CONCRETE
100
AcDbPolyline
 90
4
 70
1
 10
70.0
 20
340.0
 10
130.0
 20
340.0
 10
130.0
 20
580.0
 10
70.0
 20
580.0
  0
HATCH
  5
C0
330
17
100
AcDbEntity
  8
S-HATCH
 62
7
100
AcDbHatch
 10
0.0
 20
0.0
 30
0.0
210
0.0
220
0.0
230
1.0
  2
ANSI31
 70
0
 71
0
 91
1
 92
3
 72
0
 73
1
 93
4
 10
70.0
 20
340.0
 10
130.0
 20
340.0
 10
130.0
 20
460.0
 10
70.0
 20
460.0
 97
0
 75
1
 76
1
 52
0.0
 41
1.6
 77
0
 78
1
 53
45.0
 43
0.0
 44
0.0
 45
-3.5921024485
 46
3.5921024485
 79
0
 98
0
  0
HATCH
  5
C1
330
17
100
AcDbEntity
  8
S-HATCH
 62
7
100
AcDbHatch
 10
0.0
 20
0.0
 30
0.0
210
0.0
220
0.0
230
1.0
  2
ANSI31
 70
0
 71
0
 91
1
 92
3
 72
0
 73
1
 93
4
 10
70.0
 20
460.0
 10
130.0
 20
460.0
 10
130.0
 20
580.0
 10
70.0
 20
580.0
 97
0
 75
1
 76
1
 52
0.0
 41
1.6
 77
0
 78
1
 53
45.0
 43
0.0
 44
0.0
 45
-3.5921024485
 46
3.5921024485
 79
0
 98
0
  0
LINE
  5
C2
330
17
100
AcDbEntity
  8
S-CONCRETE
100
AcDbLine
 10
70.0
 20
460.0
 30
0.0
 11
130.0
 21
460.0
 31
0.0
  0
LINE
  5
C3
330
17
100
AcDbEntity
  8
S-CONCRETE-THIN
100
AcDbLine
 10
70.0
 20
460.0
 30
0.0
 11
73.0
 21
464.0
 31
0.0
  0
LINE
  5
C4
330
17
100
AcDbEntity
  8
S-CONCRETE-THIN
100
AcDbLine
 10
76.0
 20
460.0
 30
0.0
 11
79.0
 21
464.0
 31
0.0
  0
LINE
  5
C5
330
17
100
AcDbEntity
  8
S-CONCRETE-THIN
100
AcDbLine
 10
82.0
 20
460.0
 30
0.0
 11
85.0
 21
464.0
 31
0.0
  0
LINE
  5
C6
330
17
100
AcDbEntity
  8
S-CONCRETE-THIN
100
AcDbLine
 10
88.0
 20
460.0
 30
0.0
 11
91.0
 21
464.0
 31
0.0
  0
LINE
  5
C7
330
17
100
AcDbEntity
  8
S-CONCRETE-THIN
100
AcDbLine
 10
94.0
 20
460.0
 30
0.0
 11
97.0
 21
464.0
 31
0.0
  0
LINE
  5
C8
330
17
100
AcDbEntity
  8
S-CONCRETE-THIN
100
AcDbLine
 10
100.0
 20
460.0
 30
0.0
 11
103.0
 21
464.0
 31
0.0
  0
LINE
  5
C9
330
17
100
AcDbEntity
  8
S-CONCRETE-THIN
100
AcDbLine
 10
106.0
 20
460.0
 30
0.0
 11
109.0
 21
464.0
 31
0.0
  0
LINE
  5
CA
330
17
100
AcDbEntity
  8
S-CONCRETE-THIN
100
AcDbLine
 10
112.0
 20
460.0
 30
0.0
 11
115.0
 21
464.0
 31
0.0
  0
LINE
  5
CB
330
17
100
AcDbEntity
  8
S-CONCRETE-THIN
100
AcDbLine
 10
118.0
 20
460.0
 30
0.0
 11
121.0
 21
464.0
 31
0.0
  0
LINE
  5
CC
330
17
100
AcDbEntity
  8
S-CONCRETE-THIN
100
AcDbLine
 10
124.0
 20
460.0
 30
0.0
 11
127.0
 21
464.0
 31
0.0
  0
LINE
  5
CD
330
17
100
AcDbEntity
  8
S-REBAR-MAIN
100
AcDbLine
 10
78.3
 20
346.0
 30
0.0
 11
78.3
 21
574.0
 31
0.0
  0
LINE
  5
CE
330
17
100
AcDbEntity
  8
S-REBAR-MAIN
100
AcDbLine
 10
121.7
 20
346.0
 30
0.0
 11
121.7
 21
574.0
 31
0.0
  0
CIRCLE
  5
CF
330
17
100
AcDbEntity
  8
S-REBAR-MAIN
100
AcDbCircle
 10
78.3
 20
355.0
 30
0.0
 40
0.9
  0
HATCH
  5
D0
330
17
100
AcDbEntity
  8
S-REBAR-MAIN
 62
1
100
AcDbHatch
 10
0.0
 20
0.0
 30
0.0
210
0.0
220
0.0
230
1.0
  2
SOLID
 70
1
 71
0
 91
1
 92
3
 72
0
 73
1
 93
16
 10
79.2
 20
355.0
 10
79.13149157926016
 20
355.3444150891286
 10
78.93639610306789
 20
355.6363961030679
 10
78.64441508912857
 20
355.83149157926016
 10
78.3
 20
355.9
 10
77.95558491087142
 20
355.83149157926016
 10
77.6636038969321
 20
355.6363961030679
 10
77.46850842073984
 20
355.3444150891286
 10
77.39999999999999
 20
355.0
 10
77.46850842073984
 20
354.6555849108714
 10
77.6636038969321
 20
354.3636038969321
 10
77.95558491087142
 20
354.16850842073984
 10
78.3
 20
354.1
 10
78.64441508912857
 20
354.16850842073984
 10
78.93639610306789
 20
354.3636038969321
 10
79.13149157926016
 20
354.6555849108714
 97
0
 75
0
 76
1
 98
0
  0
CIRCLE
  5
D1
330
17
100
AcDbEntity
  8
S-REBAR-MAIN
100
AcDbCircle
 10
78.3
 20
370.0
 30
0.0
 40
0.9
  0
HATCH
  5
D2
330
17
100
AcDbEntity
  8
S-REBAR-MAIN
 62
1
100
AcDbHatch
 10
0.0
 20
0.0
 30
0.0
210
0.0
220
0.0
230
1.0
  2
SOLID
 70
1
 71
0
 91
1
 92
3
 72
0
 73
1
 93
16
 10
79.2
 20
370.0
 10
79.13149157926016
 20
370.3444150891286
 10
78.93639610306789
 20
370.6363961030679
 10
78.64441508912857
 20
370.83149157926016
 10
78.3
 20
370.9
 10
77.95558491087142
 20
370.83149157926016
 10
77.6636038969321
 20
370.6363961030679
 10
77.46850842073984
 20
370.3444150891286
 10
77.39999999999999
 20
370.0
 10
77.46850842073984
 20
369.6555849108714
 10
77.6636038969321
 20
369.3636038969321
 10
77.95558491087142
 20
369.16850842073984
 10
78.3
 20
369.1
 10
78.64441508912857
 20
369.16850842073984
 10
78.93639610306789
 20
369.3636038969321
 10
79.13149157926016
 20
369.6555849108714
 97
0
 75
0
 76
1
 98
0
  0
CIRCLE
  5
D3
330
17
100
AcDbEntity
  8
S-REBAR-MAIN
100
AcDbCircle
 10
78.3
 20
385.0
 30
0.0
 40
0.9
  0
HATCH
  5
D4
330
17
100
AcDbEntity
  8
S-REBAR-MAIN
 62
1
100
AcDbHatch
 10
0.0
 20
0.0
 30
0.0
210
0.0
220
0.0
230
1.0
  2
SOLID
 70
1
 71
0
 91
1
 92
3
 72
0
 73
1
 93
16
 10
79.2
 20
385.0
 10
79.13149157926016
 20
385.3444150891286
 10
78.93639610306789
 20
385.6363961030679
 10
78.64441508912857
 20
385.83149157926016
 10
78.3
 20
385.9
 10
77.95558491087142
 20
385.83149157926016
 10
77.6636038969321
 20
385.6363961030679
 10
77.46850842073984
 20
385.3444150891286
 10
77.39999999999999
 20
385.0
 10
77.46850842073984
 20
384.6555849108714
 10
77.6636038969321
 20
384.3636038969321
 10
77.95558491087142
 20
384.16850842073984
 10
78.3
 20
384.1
 10
78.64441508912857
 20
384.16850842073984
 10
78.93639610306789
 20
384.3636038969321
 10
79.13149157926016
 20
384.6555849108714
 97
0
 75
0
 76
1
 98
0
  0
CIRCLE
  5
D5
330
17
100
AcDbEntity
  8
S-REBAR-MAIN
100
AcDbCircle
 10
78.3
 20
400.0
 30
0.0
 40
0.9
  0
HATCH
  5
D6
330
17
100
AcDbEntity
  8
S-REBAR-MAIN
 62
1
100
AcDbHatch
 10
0.0
 20
0.0
 30
0.0
210
0.0
220
0.0
230
1.0
  2
SOLID
 70
1
 71
0
 91
1
 92
3
 72
0
 73
1
 93
16
 10
79.2
 20
400.0
 10
79.13149157926016
 20
400.3444150891286
 10
78.93639610306789
 20
400.6363961030679
 10
78.64441508912857
 20
400.83149157926016
 10
78.3
 20
400.9
 10
77.95558491087142
 20
400.83149157926016
 10
77.6636038969321
 20
400.6363961030679
 10
77.46850842073984
 20
400.3444150891286
 10
77.39999999999999
 20
400.0
 10
77.46850842073984
 20
399.6555849108714
 10
77.6636038969321
 20
399.3636038969321
 10
77.95558491087142
 20
399.16850842073984
 10
78.3
 20
399.1
 10
78.64441508912857
 20
399.16850842073984
 10
78.93639610306789
 20
399.3636038969321
 10
79.13149157926016
 20
399.6555849108714
 97
0
 75
0
 76
1
 98
0
  0
CIRCLE
  5
D7
330
17
100
AcDbEntity
  8
S-REBAR-MAIN
100
AcDbCircle
 10
78.3
 20
415.0
 30
0.0
 40
0.9
  0
HATCH
  5
D8
330
17
100
AcDbEntity
  8
S-REBAR-MAIN
 62
1
100
AcDbHatch
 10
0.0
 20
0.0
 30
0.0
210
0.0
220
0.0
230
1.0
  2
SOLID
 70
1
 71
0
 91
1
 92
3
 72
0
 73
1
 93
16
 10
79.2
 20
415.0
 10
79.13149157926016
 20
415.3444150891286
 10
78.93639610306789
 20
415.6363961030679
 10
78.64441508912857
 20
415.83149157926016
 10
78.3
 20
415.9
 10
77.95558491087142
 20
415.83149157926016
 10
77.6636038969321
 20
415.6363961030679
 10
77.46850842073984
 20
415.3444150891286
 10
77.39999999999999
 20
415.0
 10
77.46850842073984
 20
414.6555849108714
 10
77.6636038969321
 20
414.3636038969321
 10
77.95558491087142
 20
414.16850842073984
 10
78.3
 20
414.1
 10
78.64441508912857
 20
414.16850842073984
 10
78.93639610306789
 20
414.3636038969321
 10
79.13149157926016
 20
414.6555849108714
 97
0
 75
0
 76
1
 98
0
  0
CIRCLE
  5
D9
330
17
100
AcDbEntity
  8
S-REBAR-MAIN
100
AcDbCircle
 10
78.3
 20
430.0
 30
0.0
 40
0.9
  0
HATCH
  5
DA
330
17
100
AcDbEntity
  8
S-REBAR-MAIN
 62
1
100
AcDbHatch
 10
0.0
 20
0.0
 30
0.0
210
0.0
220
0.0
230
1.0
  2
SOLID
 70
1
 71
0
 91
1
 92
3
 72
0
 73
1
 93
16
 10
79.2
 20
430.0
 10
79.13149157926016
 20
430.3444150891286
 10
78.93639610306789
 20
430.6363961030679
 10
78.64441508912857
 20
430.83149157926016
 10
78.3
 20
430.9
 10
77.95558491087142
 20
430.83149157926016
 10
77.6636038969321
 20
430.6363961030679
 10
77.46850842073984
 20
430.3444150891286
 10
77.39999999999999
 20
430.0
 10
77.46850842073984
 20
429.6555849108714
 10
77.6636038969321
 20
429.3636038969321
 10
77.95558491087142
 20
429.16850842073984
 10
78.3
 20
429.1
 10
78.64441508912857
 20
429.16850842073984
 10
78.93639610306789
 20
429.3636038969321
 10
79.13149157926016
 20
429.6555849108714
 97
0
 75
0
 76
1
 98
0
  0
CIRCLE
  5
DB
330
17
100
AcDbEntity
  8
S-REBAR-MAIN
100
AcDbCircle
 10
78.3
 20
445.0
 30
0.0
 40
0.9
  0
HATCH
  5
DC
330
17
100
AcDbEntity
  8
S-REBAR-MAIN
 62
1
100
AcDbHatch
 10
0.0
 20
0.0
 30
0.0
210
0.0
220
0.0
230
1.0
  2
SOLID
 70
1
 71
0
 91
1
 92
3
 72
0
 73
1
 93
16
 10
79.2
 20
445.0
 10
79.13149157926016
 20
445.3444150891286
 10
78.93639610306789
 20
445.6363961030679
 10
78.64441508912857
 20
445.83149157926016
 10
78.3
 20
445.9
 10
77.95558491087142
 20
445.83149157926016
 10
77.6636038969321
 20
445.6363961030679
 10
77.46850842073984
 20
445.3444150891286
 10
77.39999999999999
 20
445.0
 10
77.46850842073984
 20
444.6555849108714
 10
77.6636038969321
 20
444.3636038969321
 10
77.95558491087142
 20
444.16850842073984
 10
78.3
 20
444.1
 10
78.64441508912857
 20
444.16850842073984
 10
78.93639610306789
 20
444.3636038969321
 10
79.13149157926016
 20
444.6555849108714
 97
0
 75
0
 76
1
 98
0
  0
CIRCLE
  5
DD
330
17
100
AcDbEntity
  8
S-REBAR-MAIN
100
AcDbCircle
 10
78.3
 20
460.0
 30
0.0
 40
0.9
  0
HATCH
  5
DE
330
17
100
AcDbEntity
  8
S-REBAR-MAIN
 62
1
100
AcDbHatch
 10
0.0
 20
0.0
 30
0.0
210
0.0
220
0.0
230
1.0
  2
SOLID
 70
1
 71
0
 91
1
 92
3
 72
0
 73
1
 93
16
 10
79.2
 20
460.0
 10
79.13149157926016
 20
460.3444150891286
 10
78.93639610306789
 20
460.6363961030679
 10
78.64441508912857
 20
460.83149157926016
 10
78.3
 20
460.9
 10
77.95558491087142
 20
460.83149157926016
 10
77.6636038969321
 20
460.6363961030679
 10
77.46850842073984
 20
460.3444150891286
 10
77.39999999999999
 20
460.0
 10
77.46850842073984
 20
459.6555849108714
 10
77.6636038969321
 20
459.3636038969321
 10
77.95558491087142
 20
459.16850842073984
 10
78.3
 20
459.1
 10
78.64441508912857
 20
459.16850842073984
 10
78.93639610306789
 20
459.3636038969321
 10
79.13149157926016
 20
459.6555849108714
 97
0
 75
0
 76
1
 98
0
  0
CIRCLE
  5
DF
330
17
100
AcDbEntity
  8
S-REBAR-MAIN
100
AcDbCircle
 10
78.3
 20
475.0
 30
0.0
 40
0.9
  0
HATCH
  5
E0
330
17
100
AcDbEntity
  8
S-REBAR-MAIN
 62
1
100
AcDbHatch
 10
0.0
 20
0.0
 30
0.0
210
0.0
220
0.0
230
1.0
  2
SOLID
 70
1
 71
0
 91
1
 92
3
 72
0
 73
1
 93
16
 10
79.2
 20
475.0
 10
79.13149157926016
 20
475.3444150891286
 10
78.93639610306789
 20
475.6363961030679
 10
78.64441508912857
 20
475.83149157926016
 10
78.3
 20
475.9
 10
77.95558491087142
 20
475.83149157926016
 10
77.6636038969321
 20
475.6363961030679
 10
77.46850842073984
 20
475.3444150891286
 10
77.39999999999999
 20
475.0
 10
77.46850842073984
 20
474.6555849108714
 10
77.6636038969321
 20
474.3636038969321
 10
77.95558491087142
 20
474.16850842073984
 10
78.3
 20
474.1
 10
78.64441508912857
 20
474.16850842073984
 10
78.93639610306789
 20
474.3636038969321
 10
79.13149157926016
 20
474.6555849108714
 97
0
 75
0
 76
1
 98
0
  0
CIRCLE
  5
E1
330
17
100
AcDbEntity
  8
S-REBAR-MAIN
100
AcDbCircle
 10
78.3
 20
490.0
 30
0.0
 40
0.9
  0
HATCH
  5
E2
330
17
100
AcDbEntity
  8
S-REBAR-MAIN
 62
1
100
AcDbHatch
 10
0.0
 20
0.0
 30
0.0
210
0.0
220
0.0
230
1.0
  2
SOLID
 70
1
 71
0
 91
1
 92
3
 72
0
 73
1
 93
16
 10
79.2
 20
490.0
 10
79.13149157926016
 20
490.3444150891286
 10
78.93639610306789
 20
490.6363961030679
 10
78.64441508912857
 20
490.83149157926016
 10
78.3
 20
490.9
 10
77.95558491087142
 20
490.83149157926016
 10
77.6636038969321
 20
490.6363961030679
 10
77.46850842073984
 20
490.3444150891286
 10
77.39999999999999
 20
490.0
 10
77.46850842073984
 20
489.6555849108714
 10
77.6636038969321
 20
489.3636038969321
 10
77.95558491087142
 20
489.16850842073984
 10
78.3
 20
489.1
 10
78.64441508912857
 20
489.16850842073984
 10
78.93639610306789
 20
489.3636038969321
 10
79.13149157926016
 20
489.6555849108714
 97
0
 75
0
 76
1
 98
0
  0
CIRCLE
  5
E3
330
17
100
AcDbEntity
  8
S-REBAR-MAIN
100
AcDbCircle
 10
78.3
 20
505.0
 30
0.0
 40
0.9
  0
HATCH
  5
E4
330
17
100
AcDbEntity
  8
S-REBAR-MAIN
 62
1
100
AcDbHatch
 10
0.0
 20
0.0
 30
0.0
210
0.0
220
0.0
230
1.0
  2
SOLID
 70
1
 71
0
 91
1
 92
3
 72
0
 73
1
 93
16
 10
79.2
 20
505.0
 10
79.13149157926016
 20
505.3444150891286
 10
78.93639610306789
 20
505.6363961030679
 10
78.64441508912857
 20
505.83149157926016
 10
78.3
 20
505.9
 10
77.95558491087142
 20
505.83149157926016
 10
77.6636038969321
 20
505.6363961030679
 10
77.46850842073984
 20
505.3444150891286
 10
77.39999999999999
 20
505.0
 10
77.46850842073984
 20
504.6555849108714
 10
77.6636038969321
 20
504.3636038969321
 10
77.95558491087142
 20
504.16850842073984
 10
78.3
 20
504.1
 10
78.64441508912857
 20
504.16850842073984
 10
78.93639610306789
 20
504.3636038969321
 10
79.13149157926016
 20
504.6555849108714
 97
0
 75
0
 76
1
 98
0
  0
CIRCLE
  5
E5
330
17
100
AcDbEntity
  8
S-REBAR-MAIN
100
AcDbCircle
 10
78.3
 20
520.0
 30
0.0
 40
0.9
  0
HATCH
  5
E6
330
17
100
AcDbEntity
  8
S-REBAR-MAIN
 62
1
100
AcDbHatch
 10
0.0
 20
0.0
 30
0.0
210
0.0
220
0.0
230
1.0
  2
SOLID
 70
1
 71
0
 91
1
 92
3
 72
0
 73
1
 93
16
 10
79.2
 20
520.0
 10
79.13149157926016
 20
520.3444150891286
 10
78.93639610306789
 20
520.6363961030679
 10
78.64441508912857
 20
520.8314915792602
 10
78.3
 20
520.9
 10
77.95558491087142
 20
520.8314915792602
 10
77.6636038969321
 20
520.6363961030679
 10
77.46850842073984
 20
520.3444150891286
 10
77.39999999999999
 20
520.0
 10
77.46850842073984
 20
519.6555849108714
 10
77.6636038969321
 20
519.3636038969321
 10
77.95558491087142
 20
519.1685084207398
 10
78.3
 20
519.1
 10
78.64441508912857
 20
519.1685084207398
 10
78.93639610306789
 20
519.3636038969321
 10
79.13149157926016
 20
519.6555849108714
 97
0
 75
0
 76
1
 98
0
  0
CIRCLE
  5
E7
330
17
100
AcDbEntity
  8
S-REBAR-MAIN
100
AcDbCircle
 10
78.3
 20
535.0
 30
0.0
 40
0.9
  0
HATCH
  5
E8
330
17
100
AcDbEntity
  8
S-REBAR-MAIN
 62
1
100
AcDbHatch
 10
0.0
 20
0.0
 30
0.0
210
0.0
220
0.0
230
1.0
  2
SOLID
 70
1
 71
0
 91
1
 92
3
 72
0
 73
1
 93
16
 10
79.2
 20
535.0
 10
79.13149157926016
 20
535.3444150891286
 10
78.93639610306789
 20
535.6363961030679
 10
78.64441508912857
 20
535.8314915792602
 10
78.3
 20
535.9
 10
77.95558491087142
 20
535.8314915792602
 10
77.6636038969321
 20
535.6363961030679
 10
77.46850842073984
 20
535.3444150891286
 10
77.39999999999999
 20
535.0
 10
77.46850842073984
 20
534.6555849108714
 10
77.6636038969321
 20
534.3636038969321
 10
77.95558491087142
 20
534.1685084207398
 10
78.3
 20
534.1
 10
78.64441508912857
 20
534.1685084207398
 10
78.93639610306789
 20
534.3636038969321
 10
79.13149157926016
 20
534.6555849108714
 97
0
 75
0
 76
1
 98
0
  0
CIRCLE
  5
E9
330
17
100
AcDbEntity
  8
S-REBAR-MAIN
100
AcDbCircle
 10
78.3
 20
550.0
 30
0.0
 40
0.9
  0
HATCH
  5
EA
330
17
100
AcDbEntity
  8
S-REBAR-MAIN
 62
1
100
AcDbHatch
 10
0.0
 20
0.0
 30
0.0
210
0.0
220
0.0
230
1.0
  2
SOLID
 70
1
 71
0
 91
1
 92
3
 72
0
 73
1
 93
16
 10
79.2
 20
550.0
 10
79.13149157926016
 20
550.3444150891286
 10
78.93639610306789
 20
550.6363961030679
 10
78.64441508912857
 20
550.8314915792602
 10
78.3
 20
550.9
 10
77.95558491087142
 20
550.8314915792602
 10
77.6636038969321
 20
550.6363961030679
 10
77.46850842073984
 20
550.3444150891286
 10
77.39999999999999
 20
550.0
 10
77.46850842073984
 20
549.6555849108714
 10
77.6636038969321
 20
549.3636038969321
 10
77.95558491087142
 20
549.1685084207398
 10
78.3
 20
549.1
 10
78.64441508912857
 20
549.1685084207398
 10
78.93639610306789
 20
549.3636038969321
 10
79.13149157926016
 20
549.6555849108714
 97
0
 75
0
 76
1
 98
0
  0
CIRCLE
  5
EB
330
17
100
AcDbEntity
  8
S-REBAR-MAIN
100
AcDbCircle
 10
78.3
 20
565.0
 30
0.0
 40
0.9
  0
HATCH
  5
EC
330
17
100
AcDbEntity
  8
S-REBAR-MAIN
 62
1
100
AcDbHatch
 10
0.0
 20
0.0
 30
0.0
210
0.0
220
0.0
230
1.0
  2
SOLID
 70
1
 71
0
 91
1
 92
3
 72
0
 73
1
 93
16
 10
79.2
 20
565.0
 10
79.13149157926016
 20
565.3444150891286
 10
78.93639610306789
 20
565.6363961030679
 10
78.64441508912857
 20
565.8314915792602
 10
78.3
 20
565.9
 10
77.95558491087142
 20
565.8314915792602
 10
77.6636038969321
 20
565.6363961030679
 10
77.46850842073984
 20
565.3444150891286
 10
77.39999999999999
 20
565.0
 10
77.46850842073984
 20
564.6555849108714
 10
77.6636038969321
 20
564.3636038969321
 10
77.95558491087142
 20
564.1685084207398
 10
78.3
 20
564.1
 10
78.64441508912857
 20
564.1685084207398
 10
78.93639610306789
 20
564.3636038969321
 10
79.13149157926016
 20
564.6555849108714
 97
0
 75
0
 76
1
 98
0
  0
CIRCLE
  5
ED
330
17
100
AcDbEntity
  8
S-REBAR-MAIN
100
AcDbCircle
 10
121.7
 20
355.0
 30
0.0
 40
0.9
  0
HATCH
  5
EE
330
17
100
AcDbEntity
  8
S-REBAR-MAIN
 62
1
100
AcDbHatch
 10
0.0
 20
0.0
 30
0.0
210
0.0
220
0.0
230
1.0
  2
SOLID
 70
1
 71
0
 91
1
 92
3
 72
0
 73
1
 93
16
 10
122.60000000000001
 20
355.0
 10
122.53149157926016
 20
355.3444150891286
 10
122.3363961030679
 20
355.6363961030679
 10
122.04441508912858
 20
355.83149157926016
 10
121.7
 20
355.9
 10
121.35558491087143
 20
355.83149157926016
 10
121.06360389693211
 20
355.6363961030679
 10
120.86850842073984
 20
355.3444150891286
 10
120.8
 20
355.0
 10
120.86850842073984
 20
354.6555849108714
 10
121.06360389693211
 20
354.3636038969321
 10
121.35558491087143
 20
354.16850842073984
 10
121.7
 20
354.1
 10
122.04441508912858
 20
354.16850842073984
 10
122.3363961030679
 20
354.3636038969321
 10
122.53149157926016
 20
354.6555849108714
 97
0
 75
0
 76
1
 98
0
  0
CIRCLE
  5
EF
330
17
100
AcDbEntity
  8
S-REBAR-MAIN
100
AcDbCircle
 10
121.7
 20
370.0
 30
0.0
 40
0.9
  0
HATCH
  5
F0
330
17
100
AcDbEntity
  8
S-REBAR-MAIN
 62
1
100
AcDbHatch
 10
0.0
 20
0.0
 30
0.0
210
0.0
220
0.0
230
1.0
  2
SOLID
 70
1
 71
0
 91
1
 92
3
 72
0
 73
1
 93
16
 10
122.60000000000001
 20
370.0
 10
122.53149157926016
 20
370.3444150891286
 10
122.3363961030679
 20
370.6363961030679
 10
122.04441508912858
 20
370.83149157926016
 10
121.7
 20
370.9
 10
121.35558491087143
 20
370.83149157926016
 10
121.06360389693211
 20
370.6363961030679
 10
120.86850842073984
 20
370.3444150891286
 10
120.8
 20
370.0
 10
120.86850842073984
 20
369.6555849108714
 10
121.06360389693211
 20
369.3636038969321
 10
121.35558491087143
 20
369.16850842073984
 10
121.7
 20
369.1
 10
122.04441508912858
 20
369.16850842073984
 10
122.3363961030679
 20
369.3636038969321
 10
122.53149157926016
 20
369.6555849108714
 97
0
 75
0
 76
1
 98
0
  0
CIRCLE
  5
F1
330
17
100
AcDbEntity
  8
S-REBAR-MAIN
100
AcDbCircle
 10
121.7
 20
385.0
 30
0.0
 40
0.9
  0
HATCH
  5
F2
330
17
100
AcDbEntity
  8
S-REBAR-MAIN
 62
1
100
AcDbHatch
 10
0.0
 20
0.0
 30
0.0
210
0.0
220
0.0
230
1.0
  2
SOLID
 70
1
 71
0
 91
1
 92
3
 72
0
 73
1
 93
16
 10
122.60000000000001
 20
385.0
 10
122.53149157926016
 20
385.3444150891286
 10
122.3363961030679
 20
385.6363961030679
 10
122.04441508912858
 20
385.83149157926016
 10
121.7
 20
385.9
 10
121.35558491087143
 20
385.83149157926016
 10
121.06360389693211
 20
385.6363961030679
 10
120.86850842073984
 20
385.3444150891286
 10
120.8
 20
385.0
 10
120.86850842073984
 20
384.6555849108714
 10
121.06360389693211
 20
384.3636038969321
 10
121.35558491087143
 20
384.16850842073984
 10
121.7
 20
384.1
 10
122.04441508912858
 20
384.16850842073984
 10
122.3363961030679
 20
384.3636038969321
 10
122.53149157926016
 20
384.6555849108714
 97
0
 75
0
 76
1
 98
0
  0
CIRCLE
  5
F3
330
17
100
AcDbEntity
  8
S-REBAR-MAIN
100
AcDbCircle
 10
121.7
 20
400.0
 30
0.0
 40
0.9
  0
HATCH
  5
F4
330
17
100
AcDbEntity
  8
S-REBAR-MAIN
 62
1
100
AcDbHatch
 10
0.0
 20
0.0
 30
0.0
210
0.0
220
0.0
230
1.0
  2
SOLID
 70
1
 71
0
 91
1
 92
3
 72
0
 73
1
 93
16
 10
122.60000000000001
 20
400.0
 10
122.53149157926016
 20
400.3444150891286
 10
122.3363961030679
 20
400.6363961030679
 10
122.04441508912858
 20
400.83149157926016
 10
121.7
 20
400.9
 10
121.35558491087143
 20
400.83149157926016
 10
121.06360389693211
 20
400.6363961030679
 10
120.86850842073984
 20
400.3444150891286
 10
120.8
 20
400.0
 10
120.86850842073984
 20
399.6555849108714
 10
121.06360389693211
 20
399.3636038969321
 10
121.35558491087143
 20
399.16850842073984
 10
121.7
 20
399.1
 10
122.04441508912858
 20
399.16850842073984
 10
122.3363961030679
 20
399.3636038969321
 10
122.53149157926016
 20
399.6555849108714
 97
0
 75
0
 76
1
 98
0
  0
CIRCLE
  5
F5
330
17
100
AcDbEntity
  8
S-REBAR-MAIN
100
AcDbCircle
 10
121.7
 20
415.0
 30
0.0
 40
0.9
  0
HATCH
  5
F6
330
17
100
AcDbEntity
  8
S-REBAR-MAIN
 62
1
100
AcDbHatch
 10
0.0
 20
0.0
 30
0.0
210
0.0
220
0.0
230
1.0
  2
SOLID
 70
1
 71
0
 91
1
 92
3
 72
0
 73
1
 93
16
 10
122.60000000000001
 20
415.0
 10
122.53149157926016
 20
415.3444150891286
 10
122.3363961030679
 20
415.6363961030679
 10
122.04441508912858
 20
415.83149157926016
 10
121.7
 20
415.9
 10
121.35558491087143
 20
415.83149157926016
 10
121.06360389693211
 20
415.6363961030679
 10
120.86850842073984
 20
415.3444150891286
 10
120.8
 20
415.0
 10
120.86850842073984
 20
414.6555849108714
 10
121.06360389693211
 20
414.3636038969321
 10
121.35558491087143
 20
414.16850842073984
 10
121.7
 20
414.1
 10
122.04441508912858
 20
414.16850842073984
 10
122.3363961030679
 20
414.3636038969321
 10
122.53149157926016
 20
414.6555849108714
 97
0
 75
0
 76
1
 98
0
  0
CIRCLE
  5
F7
330
17
100
AcDbEntity
  8
S-REBAR-MAIN
100
AcDbCircle
 10
121.7
 20
430.0
 30
0.0
 40
0.9
  0
HATCH
  5
F8
330
17
100
AcDbEntity
  8
S-REBAR-MAIN
 62
1
100
AcDbHatch
 10
0.0
 20
0.0
 30
0.0
210
0.0
220
0.0
230
1.0
  2
SOLID
 70
1
 71
0
 91
1
 92
3
 72
0
 73
1
 93
16
 10
122.60000000000001
 20
430.0
 10
122.53149157926016
 20
430.3444150891286
 10
122.3363961030679
 20
430.6363961030679
 10
122.04441508912858
 20
430.83149157926016
 10
121.7
 20
430.9
 10
121.35558491087143
 20
430.83149157926016
 10
121.06360389693211
 20
430.6363961030679
 10
120.86850842073984
 20
430.3444150891286
 10
120.8
 20
430.0
 10
120.86850842073984
 20
429.6555849108714
 10
121.06360389693211
 20
429.3636038969321
 10
121.35558491087143
 20
429.16850842073984
 10
121.7
 20
429.1
 10
122.04441508912858
 20
429.16850842073984
 10
122.3363961030679
 20
429.3636038969321
 10
122.53149157926016
 20
429.6555849108714
 97
0
 75
0
 76
1
 98
0
  0
CIRCLE
  5
F9
330
17
100
AcDbEntity
  8
S-REBAR-MAIN
100
AcDbCircle
 10
121.7
 20
445.0
 30
0.0
 40
0.9
  0
HATCH
  5
FA
330
17
100
AcDbEntity
  8
S-REBAR-MAIN
 62
1
100
AcDbHatch
 10
0.0
 20
0.0
 30
0.0
210
0.0
220
0.0
230
1.0
  2
SOLID
 70
1
 71
0
 91
1
 92
3
 72
0
 73
1
 93
16
 10
122.60000000000001
 20
445.0
 10
122.53149157926016
 20
445.3444150891286
 10
122.3363961030679
 20
445.6363961030679
 10
122.04441508912858
 20
445.83149157926016
 10
121.7
 20
445.9
 10
121.35558491087143
 20
445.83149157926016
 10
121.06360389693211
 20
445.6363961030679
 10
120.86850842073984
 20
445.3444150891286
 10
120.8
 20
445.0
 10
120.86850842073984
 20
444.6555849108714
 10
121.06360389693211
 20
444.3636038969321
 10
121.35558491087143
 20
444.16850842073984
 10
121.7
 20
444.1
 10
122.04441508912858
 20
444.16850842073984
 10
122.3363961030679
 20
444.3636038969321
 10
122.53149157926016
 20
444.6555849108714
 97
0
 75
0
 76
1
 98
0
  0
CIRCLE
  5
FB
330
17
100
AcDbEntity
  8
S-REBAR-MAIN
100
AcDbCircle
 10
121.7
 20
460.0
 30
0.0
 40
0.9
  0
HATCH
  5
FC
330
17
100
AcDbEntity
  8
S-REBAR-MAIN
 62
1
100
AcDbHatch
 10
0.0
 20
0.0
 30
0.0
210
0.0
220
0.0
230
1.0
  2
SOLID
 70
1
 71
0
 91
1
 92
3
 72
0
 73
1
 93
16
 10
122.60000000000001
 20
460.0
 10
122.53149157926016
 20
460.3444150891286
 10
122.3363961030679
 20
460.6363961030679
 10
122.04441508912858
 20
460.83149157926016
 10
121.7
 20
460.9
 10
121.35558491087143
 20
460.83149157926016
 10
121.06360389693211
 20
460.6363961030679
 10
120.86850842073984
 20
460.3444150891286
 10
120.8
 20
460.0
 10
120.86850842073984
 20
459.6555849108714
 10
121.06360389693211
 20
459.3636038969321
 10
121.35558491087143
 20
459.16850842073984
 10
121.7
 20
459.1
 10
122.04441508912858
 20
459.16850842073984
 10
122.3363961030679
 20
459.3636038969321
 10
122.53149157926016
 20
459.6555849108714
 97
0
 75
0
 76
1
 98
0
  0
CIRCLE
  5
FD
330
17
100
AcDbEntity
  8
S-REBAR-MAIN
100
AcDbCircle
 10
121.7
 20
475.0
 30
0.0
 40
0.9
  0
HATCH
  5
FE
330
17
100
AcDbEntity
  8
S-REBAR-MAIN
 62
1
100
AcDbHatch
 10
0.0
 20
0.0
 30
0.0
210
0.0
220
0.0
230
1.0
  2
SOLID
 70
1
 71
0
 91
1
 92
3
 72
0
 73
1
 93
16
 10
122.60000000000001
 20
475.0
 10
122.53149157926016
 20
475.3444150891286
 10
122.3363961030679
 20
475.6363961030679
 10
122.04441508912858
 20
475.83149157926016
 10
121.7
 20
475.9
 10
121.35558491087143
 20
475.83149157926016
 10
121.06360389693211
 20
475.6363961030679
 10
120.86850842073984
 20
475.3444150891286
 10
120.8
 20
475.0
 10
120.86850842073984
 20
474.6555849108714
 10
121.06360389693211
 20
474.3636038969321
 10
121.35558491087143
 20
474.16850842073984
 10
121.7
 20
474.1
 10
122.04441508912858
 20
474.16850842073984
 10
122.3363961030679
 20
474.3636038969321
 10
122.53149157926016
 20
474.6555849108714
 97
0
 75
0
 76
1
 98
0
  0
CIRCLE
  5
FF
330
17
100
AcDbEntity
  8
S-REBAR-MAIN
100
AcDbCircle
 10
121.7
 20
490.0
 30
0.0
 40
0.9
  0
HATCH
  5
100
330
17
100
AcDbEntity
  8
S-REBAR-MAIN
 62
1
100
AcDbHatch
 10
0.0
 20
0.0
 30
0.0
210
0.0
220
0.0
230
1.0
  2
SOLID
 70
1
 71
0
 91
1
 92
3
 72
0
 73
1
 93
16
 10
122.60000000000001
 20
490.0
 10
122.53149157926016
 20
490.3444150891286
 10
122.3363961030679
 20
490.6363961030679
 10
122.04441508912858
 20
490.83149157926016
 10
121.7
 20
490.9
 10
121.35558491087143
 20
490.83149157926016
 10
121.06360389693211
 20
490.6363961030679
 10
120.86850842073984
 20
490.3444150891286
 10
120.8
 20
490.0
 10
120.86850842073984
 20
489.6555849108714
 10
121.06360389693211
 20
489.3636038969321
 10
121.35558491087143
 20
489.16850842073984
 10
121.7
 20
489.1
 10
122.04441508912858
 20
489.16850842073984
 10
122.3363961030679
 20
489.3636038969321
 10
122.53149157926016
 20
489.6555849108714
 97
0
 75
0
 76
1
 98
0
  0
CIRCLE
  5
101
330
17
100
AcDbEntity
  8
S-REBAR-MAIN
100
AcDbCircle
 10
121.7
 20
505.0
 30
0.0
 40
0.9
  0
HATCH
  5
102
330
17
100
AcDbEntity
  8
S-REBAR-MAIN
 62
1
100
AcDbHatch
 10
0.0
 20
0.0
 30
0.0
210
0.0
220
0.0
230
1.0
  2
SOLID
 70
1
 71
0
 91
1
 92
3
 72
0
 73
1
 93
16
 10
122.60000000000001
 20
505.0
 10
122.53149157926016
 20
505.3444150891286
 10
122.3363961030679
 20
505.6363961030679
 10
122.04441508912858
 20
505.83149157926016
 10
121.7
 20
505.9
 10
121.35558491087143
 20
505.83149157926016
 10
121.06360389693211
 20
505.6363961030679
 10
120.86850842073984
 20
505.3444150891286
 10
120.8
 20
505.0
 10
120.86850842073984
 20
504.6555849108714
 10
121.06360389693211
 20
504.3636038969321
 10
121.35558491087143
 20
504.16850842073984
 10
121.7
 20
504.1
 10
122.04441508912858
 20
504.16850842073984
 10
122.3363961030679
 20
504.3636038969321
 10
122.53149157926016
 20
504.6555849108714
 97
0
 75
0
 76
1
 98
0
  0
CIRCLE
  5
103
330
17
100
AcDbEntity
  8
S-REBAR-MAIN
100
AcDbCircle
 10
121.7
 20
520.0
 30
0.0
 40
0.9
  0
HATCH
  5
104
330
17
100
AcDbEntity
  8
S-REBAR-MAIN
 62
1
100
AcDbHatch
 10
0.0
 20
0.0
 30
0.0
210
0.0
220
0.0
230
1.0
  2
SOLID
 70
1
 71
0
 91
1
 92
3
 72
0
 73
1
 93
16
 10
122.60000000000001
 20
520.0
 10
122.53149157926016
 20
520.3444150891286
 10
122.3363961030679
 20
520.6363961030679
 10
122.04441508912858
 20
520.8314915792602
 10
121.7
 20
520.9
 10
121.35558491087143
 20
520.8314915792602
 10
121.06360389693211
 20
520.6363961030679
 10
120.86850842073984
 20
520.3444150891286
 10
120.8
 20
520.0
 10
120.86850842073984
 20
519.6555849108714
 10
121.06360389693211
 20
519.3636038969321
 10
121.35558491087143
 20
519.1685084207398
 10
121.7
 20
519.1
 10
122.04441508912858
 20
519.1685084207398
 10
122.3363961030679
 20
519.3636038969321
 10
122.53149157926016
 20
519.6555849108714
 97
0
 75
0
 76
1
 98
0
  0
CIRCLE
  5
105
330
17
100
AcDbEntity
  8
S-REBAR-MAIN
100
AcDbCircle
 10
121.7
 20
535.0
 30
0.0
 40
0.9
  0
HATCH
  5
106
330
17
100
AcDbEntity
  8
S-REBAR-MAIN
 62
1
100
AcDbHatch
 10
0.0
 20
0.0
 30
0.0
210
0.0
220
0.0
230
1.0
  2
SOLID
 70
1
 71
0
 91
1
 92
3
 72
0
 73
1
 93
16
 10
122.60000000000001
 20
535.0
 10
122.53149157926016
 20
535.3444150891286
 10
122.3363961030679
 20
535.6363961030679
 10
122.04441508912858
 20
535.8314915792602
 10
121.7
 20
535.9
 10
121.35558491087143
 20
535.8314915792602
 10
121.06360389693211
 20
535.6363961030679
 10
120.86850842073984
 20
535.3444150891286
 10
120.8
 20
535.0
 10
120.86850842073984
 20
534.6555849108714
 10
121.06360389693211
 20
534.3636038969321
 10
121.35558491087143
 20
534.1685084207398
 10
121.7
 20
534.1
 10
122.04441508912858
 20
534.1685084207398
 10
122.3363961030679
 20
534.3636038969321
 10
122.53149157926016
 20
534.6555849108714
 97
0
 75
0
 76
1
 98
0
  0
CIRCLE
  5
107
330
17
100
AcDbEntity
  8
S-REBAR-MAIN
100
AcDbCircle
 10
121.7
 20
550.0
 30
0.0
 40
0.9
  0
HATCH
  5
108
330
17
100
AcDbEntity
  8
S-REBAR-MAIN
 62
1
100
AcDbHatch
 10
0.0
 20
0.0
 30
0.0
210
0.0
220
0.0
230
1.0
  2
SOLID
 70
1
 71
0
 91
1
 92
3
 72
0
 73
1
 93
16
 10
122.60000000000001
 20
550.0
 10
122.53149157926016
 20
550.3444150891286
 10
122.3363961030679
 20
550.6363961030679
 10
122.04441508912858
 20
550.8314915792602
 10
121.7
 20
550.9
 10
121.35558491087143
 20
550.8314915792602
 10
121.06360389693211
 20
550.6363961030679
 10
120.86850842073984
 20
550.3444150891286
 10
120.8
 20
550.0
 10
120.86850842073984
 20
549.6555849108714
 10
121.06360389693211
 20
549.3636038969321
 10
121.35558491087143
 20
549.1685084207398
 10
121.7
 20
549.1
 10
122.04441508912858
 20
549.1685084207398
 10
122.3363961030679
 20
549.3636038969321
 10
122.53149157926016
 20
549.6555849108714
 97
0
 75
0
 76
1
 98
0
  0
CIRCLE
  5
109
330
17
100
AcDbEntity
  8
S-REBAR-MAIN
100
AcDbCircle
 10
121.7
 20
565.0
 30
0.0
 40
0.9
  0
HATCH
  5
10A
330
17
100
AcDbEntity
  8
S-REBAR-MAIN
 62
1
100
AcDbHatch
 10
0.0
 20
0.0
 30
0.0
210
0.0
220
0.0
230
1.0
  2
SOLID
 70
1
 71
0
 91
1
 92
3
 72
0
 73
1
 93
16
 10
122.60000000000001
 20
565.0
 10
122.53149157926016
 20
565.3444150891286
 10
122.3363961030679
 20
565.6363961030679
 10
122.04441508912858
 20
565.8314915792602
 10
121.7
 20
565.9
 10
121.35558491087143
 20
565.8314915792602
 10
121.06360389693211
 20
565.6363961030679
 10
120.86850842073984
 20
565.3444150891286
 10
120.8
 20
565.0
 10
120.86850842073984
 20
564.6555849108714
 10
121.06360389693211
 20
564.3636038969321
 10
121.35558491087143
 20
564.1685084207398
 10
121.7
 20
564.1
 10
122.04441508912858
 20
564.1685084207398
 10
122.3363961030679
 20
564.3636038969321
 10
122.53149157926016
 20
564.6555849108714
 97
0
 75
0
 76
1
 98
0
  0
LWPOLYLINE
  5
10B
330
17
100
AcDbEntity
  8
S-REBAR-STIRRUP
100
AcDbPolyline
 90
4
 70
1
 10
75.0
 20
354.5
 10
125.0
 20
354.5
 10
125.0
 20
365.5
 10
75.0
 20
365.5
  0
LWPOLYLINE
  5
10C
330
17
100
AcDbEntity
  8
S-REBAR-STIRRUP
100
AcDbPolyline
 90
4
 70
1
 10
75.0
 20
374.5
 10
125.0
 20
374.5
 10
125.0
 20
385.5
 10
75.0
 20
385.5
  0
LWPOLYLINE
  5
10D
330
17
100
AcDbEntity
  8
S-REBAR-STIRRUP
100
AcDbPolyline
 90
4
 70
1
 10
75.0
 20
394.5
 10
125.0
 20
394.5
 10
125.0
 20
405.5
 10
75.0
 20
405.5
  0
LWPOLYLINE
  5
10E
330
17
100
AcDbEntity
  8
S-REBAR-STIRRUP
100
AcDbPolyline
 90
4
 70
1
 10
75.0
 20
414.5
 10
125.0
 20
414.5
 10
125.0
 20
425.5
 10
75.0
 20
425.5
  0
LWPOLYLINE
  5
10F
330
17
100
AcDbEntity
  8
S-REBAR-STIRRUP
100
AcDbPolyline
 90
4
 70
1
 10
75.0
 20
434.5
 10
125.0
 20
434.5
 10
125.0
 20
445.5
 10
75.0
 20
445.5
  0
LWPOLYLINE
  5
110
330
17
100
AcDbEntity
  8
S-REBAR-STIRRUP
100
AcDbPolyline
 90
4
 70
1
 10
75.0
 20
474.5
 10
125.0
 20
474.5
 10
125.0
 20
485.5
 10
75.0
 20
485.5
  0
LWPOLYLINE
  5
111
330
17
100
AcDbEntity
  8
S-REBAR-STIRRUP
100
AcDbPolyline
 90
4
 70
1
 10
75.0
 20
494.5
 10
125.0
 20
494.5
 10
125.0
 20
505.5
 10
75.0
 20
505.5
  0
LWPOLYLINE
  5
112
330
17
100
AcDbEntity
  8
S-REBAR-STIRRUP
100
AcDbPolyline
 90
4
 70
1
 10
75.0
 20
514.5
 10
125.0
 20
514.5
 10
125.0
 20
525.5
 10
75.0
 20
525.5
  0
LWPOLYLINE
  5
113
330
17
100
AcDbEntity
  8
S-REBAR-STIRRUP
100
AcDbPolyline
 90
4
 70
1
 10
75.0
 20
534.5
 10
125.0
 20
534.5
 10
125.0
 20
545.5
 10
75.0
 20
545.5
  0
LWPOLYLINE
  5
114
330
17
100
AcDbEntity
  8
S-REBAR-STIRRUP
100
AcDbPolyline
 90
4
 70
1
 10
75.0
 20
554.5
 10
125.0
 20
554.5
 10
125.0
 20
565.5
 10
75.0
 20
565.5
  0
LWPOLYLINE
  5
115
330
17
100
AcDbEntity
  8
S-WATERPROOF
100
AcDbPolyline
 90
2
 70
0
 10
84.0
 20
452.0
 10
84.0
 20
468.0
  0
LWPOLYLINE
  5
116
330
17
100
AcDbEntity
  8
S-WATERPROOF
100
AcDbPolyline
 90
2
 70
0
 10
79.0
 20
452.0
 10
89.0
 20
452.0
  0
LWPOLYLINE
  5
117
330
17
100
AcDbEntity
  8
S-WATERPROOF
100
AcDbPolyline
 90
2
 70
0
 10
79.0
 20
468.0
 10
89.0
 20
468.0
  0
LWPOLYLINE
  5
118
330
17
100
AcDbEntity
  8
S-WATERPROOF
100
AcDbPolyline
 90
2
 70
0
 10
116.0
 20
452.0
 10
116.0
 20
468.0
  0
LWPOLYLINE
  5
119
330
17
100
AcDbEntity
  8
S-WATERPROOF
100
AcDbPolyline
 90
2
 70
0
 10
111.0
 20
452.0
 10
121.0
 20
452.0
  0
LWPOLYLINE
  5
11A
330
17
100
AcDbEntity
  8
S-WATERPROOF
100
AcDbPolyline
 90
2
 70
0
 10
111.0
 20
468.0
 10
121.0
 20
468.0
  0
LWPOLYLINE
  5
11B
330
17
100
AcDbEntity
  8
S-STEELWORK
100
AcDbPolyline
 90
2
 70
0
 10
90.0
 20
460.0
 10
110.0
 20
460.0
  0
CIRCLE
  5
11C
330
17
100
AcDbEntity
  8
S-STEELWORK
100
AcDbCircle
 10
100.0
 20
460.0
 30
0.0
 40
0.9
  0
LEADER
  5
11D
330
17
100
AcDbEntity
  8
S-CALLOUT
100
AcDbLeader
  3
SC-DIM
 73
3
 76
2
 10
100.0
 20
460.0
 30
0.0
 10
200.0
 20
420.0
 30
0.0
  0
TEXT
  5
11E
330
17
100
AcDbEntity
  8
S-CALLOUT
100
AcDbText
 10
201.6
 20
419.4
 30
0.0
 40
1.8
  1
WELDED Cu / GALV EMP STRAP
  7
OpenSans
 11
201.6
 21
419.4
 31
0.0
100
AcDbText
  0
LEADER
  5
11F
330
17
100
AcDbEntity
  8
S-CALLOUT
100
AcDbLeader
  3
SC-DIM
 73
3
 76
2
 10
84.0
 20
460.0
 30
0.0
 10
200.0
 20
400.0
 30
0.0
  0
TEXT
  5
120
330
17
100
AcDbEntity
  8
S-CALLOUT
100
AcDbText
 10
201.6
 20
399.4
 30
0.0
 40
1.8
  1
TWO WATERSTOPS - ONE EACH CURTAIN
  7
OpenSans
 11
201.6
 21
399.4
 31
0.0
100
AcDbText
  0
LEADER
  5
121
330
17
100
AcDbEntity
  8
S-CALLOUT
100
AcDbLeader
  3
SC-DIM
 73
3
 76
2
 10
78.3
 20
500.0
 30
0.0
 10
200.0
 20
380.0
 30
0.0
  0
TEXT
  5
122
330
17
100
AcDbEntity
  8
S-CALLOUT
100
AcDbText
 10
201.6
 20
379.4
 30
0.0
 40
1.8
  1
REINFORCEMENT FULLY CONTINUOUS
  7
OpenSans
 11
201.6
 21
379.4
 31
0.0
100
AcDbText
  0
DIMENSION
  5
123
330
17
100
AcDbEntity
  8
S-DIM
100
AcDbDimension
280
0
  2
*D1
  3
SC-DIM
 10
70.0
 20
310.0
 30
0.0
 11
100.0
 21
311.7
 31
0.0
 70
32
 71
5
  1
<>
100
AcDbAlignedDimension
 13
70.0
 23
340.0
 33
0.0
 14
130.0
 24
340.0
 34
0.0
 50
0.0
100
AcDbRotatedDimension
1001
ACAD
1000
DSTYLE
1002
{
1070
144
1040
10.0
1002
}
  0
TEXT
  5
132
330
17
100
AcDbEntity
  8
S-TITLE
100
AcDbText
 10
30.0
 20
552.0
 30
0.0
 40
3.5
  1
D1   CONSTRUCTION JOINT IN A 600 WALL - TYPICAL
  7
OpenSans
 11
30.0
 21
552.0
 31
0.0
100
AcDbText
  0
LINE
  5
133
330
17
100
AcDbEntity
  8
S-TITLE
100
AcDbLine
 10
30.0
 20
550.2
 30
0.0
 11
155.82886805090422
 21
550.2
 31
0.0
  0
TEXT
  5
134
330
17
100
AcDbEntity
  8
S-TEXT
100
AcDbText
 10
30.0
 20
544.8
 30
0.0
 40
2.0
  1
SCALE 1:10
  7
OpenSans
 11
30.0
 21
544.8
 31
0.0
100
AcDbText
  0
TEXT
  5
135
330
17
100
AcDbEntity
  8
S-TEXT
100
AcDbText
 10
30.0
 20
300.0
 30
0.0
 40
1.4
  1
JOINT SURFACE ROUGHENED TO EXPOSE THE COARSE AGGREGATE, CLEANED AND
  7
OpenSans
 11
30.0
 21
300.0
 31
0.0
100
AcDbText
  0
TEXT
  5
136
330
17
100
AcDbEntity
  8
S-TEXT
100
AcDbText
 10
30.0
 20
295.0
 30
0.0
 40
1.4
  1
SATURATED SURFACE-DRY BEFORE THE NEXT POUR.  IS 456 Cl. 13.4.
  7
OpenSans
 11
30.0
 21
295.0
 31
0.0
100
AcDbText
  0
LWPOLYLINE
  5
137
330
17
100
AcDbEntity
  8
S-CONCRETE
100
AcDbPolyline
 90
4
 70
1
 10
320.0
 20
340.0
 10
390.0
 20
340.0
 10
390.0
 20
355.0
 10
320.0
 20
355.0
  0
LWPOLYLINE
  5
138
330
17
100
AcDbEntity
  8
S-CONCRETE
100
AcDbPolyline
 90
4
 70
1
 10
395.0
 20
340.0
 10
465.0
 20
340.0
 10
465.0
 20
385.0
 10
395.0
 20
385.0
  0
HATCH
  5
139
330
17
100
AcDbEntity
  8
S-HATCH
 62
7
100
AcDbHatch
 10
0.0
 20
0.0
 30
0.0
210
0.0
220
0.0
230
1.0
  2
ANSI31
 70
0
 71
0
 91
1
 92
3
 72
0
 73
1
 93
4
 10
320.0
 20
340.0
 10
390.0
 20
340.0
 10
390.0
 20
355.0
 10
320.0
 20
355.0
 97
0
 75
1
 76
1
 52
0.0
 41
1.6
 77
0
 78
1
 53
45.0
 43
0.0
 44
0.0
 45
-3.5921024485
 46
3.5921024485
 79
0
 98
0
  0
HATCH
  5
13A
330
17
100
AcDbEntity
  8
S-HATCH
 62
7
100
AcDbHatch
 10
0.0
 20
0.0
 30
0.0
210
0.0
220
0.0
230
1.0
  2
ANSI31
 70
0
 71
0
 91
1
 92
3
 72
0
 73
1
 93
4
 10
395.0
 20
340.0
 10
465.0
 20
340.0
 10
465.0
 20
385.0
 10
395.0
 20
385.0
 97
0
 75
1
 76
1
 52
0.0
 41
1.6
 77
0
 78
1
 53
45.0
 43
0.0
 44
0.0
 45
-3.5921024485
 46
3.5921024485
 79
0
 98
0
  0
LWPOLYLINE
  5
13B
330
17
100
AcDbEntity
  8
S-BLAST
100
AcDbPolyline
 90
4
 70
1
 10
390.0
 20
335.0
 10
395.0
 20
335.0
 10
395.0
 20
385.0
 10
390.0
 20
385.0
  0
CIRCLE
  5
13C
330
17
100
AcDbEntity
  8
S-REBAR-MAIN
100
AcDbCircle
 10
325.0
 20
342.8
 30
0.0
 40
0.7
  0
HATCH
  5
13D
330
17
100
AcDbEntity
  8
S-REBAR-MAIN
 62
1
100
AcDbHatch
 10
0.0
 20
0.0
 30
0.0
210
0.0
220
0.0
230
1.0
  2
SOLID
 70
1
 71
0
 91
1
 92
3
 72
0
 73
1
 93
16
 10
325.7
 20
342.8
 10
325.6467156727579
 20
343.0678784026556
 10
325.49497474683056
 20
343.2949747468306
 10
325.2678784026556
 20
343.44671567275793
 10
325.0
 20
343.5
 10
324.7321215973444
 20
343.44671567275793
 10
324.50502525316944
 20
343.2949747468306
 10
324.3532843272421
 20
343.0678784026556
 10
324.3
 20
342.8
 10
324.3532843272421
 20
342.5321215973444
 10
324.50502525316944
 20
342.30502525316945
 10
324.7321215973444
 20
342.1532843272421
 10
325.0
 20
342.1
 10
325.2678784026556
 20
342.1532843272421
 10
325.49497474683056
 20
342.30502525316945
 10
325.6467156727579
 20
342.5321215973444
 97
0
 75
0
 76
1
 98
0
  0
CIRCLE
  5
13E
330
17
100
AcDbEntity
  8
S-REBAR-MAIN
100
AcDbCircle
 10
335.0
 20
342.8
 30
0.0
 40
0.7
  0
HATCH
  5
13F
330
17
100
AcDbEntity
  8
S-REBAR-MAIN
 62
1
100
AcDbHatch
 10
0.0
 20
0.0
 30
0.0
210
0.0
220
0.0
230
1.0
  2
SOLID
 70
1
 71
0
 91
1
 92
3
 72
0
 73
1
 93
16
 10
335.7
 20
342.8
 10
335.6467156727579
 20
343.0678784026556
 10
335.49497474683056
 20
343.2949747468306
 10
335.2678784026556
 20
343.44671567275793
 10
335.0
 20
343.5
 10
334.7321215973444
 20
343.44671567275793
 10
334.50502525316944
 20
343.2949747468306
 10
334.3532843272421
 20
343.0678784026556
 10
334.3
 20
342.8
 10
334.3532843272421
 20
342.5321215973444
 10
334.50502525316944
 20
342.30502525316945
 10
334.7321215973444
 20
342.1532843272421
 10
335.0
 20
342.1
 10
335.2678784026556
 20
342.1532843272421
 10
335.49497474683056
 20
342.30502525316945
 10
335.6467156727579
 20
342.5321215973444
 97
0
 75
0
 76
1
 98
0
  0
CIRCLE
  5
140
330
17
100
AcDbEntity
  8
S-REBAR-MAIN
100
AcDbCircle
 10
345.0
 20
342.8
 30
0.0
 40
0.7
  0
HATCH
  5
141
330
17
100
AcDbEntity
  8
S-REBAR-MAIN
 62
1
100
AcDbHatch
 10
0.0
 20
0.0
 30
0.0
210
0.0
220
0.0
230
1.0
  2
SOLID
 70
1
 71
0
 91
1
 92
3
 72
0
 73
1
 93
16
 10
345.7
 20
342.8
 10
345.6467156727579
 20
343.0678784026556
 10
345.49497474683056
 20
343.2949747468306
 10
345.2678784026556
 20
343.44671567275793
 10
345.0
 20
343.5
 10
344.7321215973444
 20
343.44671567275793
 10
344.50502525316944
 20
343.2949747468306
 10
344.3532843272421
 20
343.0678784026556
 10
344.3
 20
342.8
 10
344.3532843272421
 20
342.5321215973444
 10
344.50502525316944
 20
342.30502525316945
 10
344.7321215973444
 20
342.1532843272421
 10
345.0
 20
342.1
 10
345.2678784026556
 20
342.1532843272421
 10
345.49497474683056
 20
342.30502525316945
 10
345.6467156727579
 20
342.5321215973444
 97
0
 75
0
 76
1
 98
0
  0
CIRCLE
  5
142
330
17
100
AcDbEntity
  8
S-REBAR-MAIN
100
AcDbCircle
 10
355.0
 20
342.8
 30
0.0
 40
0.7
  0
HATCH
  5
143
330
17
100
AcDbEntity
  8
S-REBAR-MAIN
 62
1
100
AcDbHatch
 10
0.0
 20
0.0
 30
0.0
210
0.0
220
0.0
230
1.0
  2
SOLID
 70
1
 71
0
 91
1
 92
3
 72
0
 73
1
 93
16
 10
355.7
 20
342.8
 10
355.6467156727579
 20
343.0678784026556
 10
355.49497474683056
 20
343.2949747468306
 10
355.2678784026556
 20
343.44671567275793
 10
355.0
 20
343.5
 10
354.7321215973444
 20
343.44671567275793
 10
354.50502525316944
 20
343.2949747468306
 10
354.3532843272421
 20
343.0678784026556
 10
354.3
 20
342.8
 10
354.3532843272421
 20
342.5321215973444
 10
354.50502525316944
 20
342.30502525316945
 10
354.7321215973444
 20
342.1532843272421
 10
355.0
 20
342.1
 10
355.2678784026556
 20
342.1532843272421
 10
355.49497474683056
 20
342.30502525316945
 10
355.6467156727579
 20
342.5321215973444
 97
0
 75
0
 76
1
 98
0
  0
CIRCLE
  5
144
330
17
100
AcDbEntity
  8
S-REBAR-MAIN
100
AcDbCircle
 10
365.0
 20
342.8
 30
0.0
 40
0.7
  0
HATCH
  5
145
330
17
100
AcDbEntity
  8
S-REBAR-MAIN
 62
1
100
AcDbHatch
 10
0.0
 20
0.0
 30
0.0
210
0.0
220
0.0
230
1.0
  2
SOLID
 70
1
 71
0
 91
1
 92
3
 72
0
 73
1
 93
16
 10
365.7
 20
342.8
 10
365.6467156727579
 20
343.0678784026556
 10
365.49497474683056
 20
343.2949747468306
 10
365.2678784026556
 20
343.44671567275793
 10
365.0
 20
343.5
 10
364.7321215973444
 20
343.44671567275793
 10
364.50502525316944
 20
343.2949747468306
 10
364.3532843272421
 20
343.0678784026556
 10
364.3
 20
342.8
 10
364.3532843272421
 20
342.5321215973444
 10
364.50502525316944
 20
342.30502525316945
 10
364.7321215973444
 20
342.1532843272421
 10
365.0
 20
342.1
 10
365.2678784026556
 20
342.1532843272421
 10
365.49497474683056
 20
342.30502525316945
 10
365.6467156727579
 20
342.5321215973444
 97
0
 75
0
 76
1
 98
0
  0
CIRCLE
  5
146
330
17
100
AcDbEntity
  8
S-REBAR-MAIN
100
AcDbCircle
 10
375.0
 20
342.8
 30
0.0
 40
0.7
  0
HATCH
  5
147
330
17
100
AcDbEntity
  8
S-REBAR-MAIN
 62
1
100
AcDbHatch
 10
0.0
 20
0.0
 30
0.0
210
0.0
220
0.0
230
1.0
  2
SOLID
 70
1
 71
0
 91
1
 92
3
 72
0
 73
1
 93
16
 10
375.7
 20
342.8
 10
375.6467156727579
 20
343.0678784026556
 10
375.49497474683056
 20
343.2949747468306
 10
375.2678784026556
 20
343.44671567275793
 10
375.0
 20
343.5
 10
374.7321215973444
 20
343.44671567275793
 10
374.50502525316944
 20
343.2949747468306
 10
374.3532843272421
 20
343.0678784026556
 10
374.3
 20
342.8
 10
374.3532843272421
 20
342.5321215973444
 10
374.50502525316944
 20
342.30502525316945
 10
374.7321215973444
 20
342.1532843272421
 10
375.0
 20
342.1
 10
375.2678784026556
 20
342.1532843272421
 10
375.49497474683056
 20
342.30502525316945
 10
375.6467156727579
 20
342.5321215973444
 97
0
 75
0
 76
1
 98
0
  0
CIRCLE
  5
148
330
17
100
AcDbEntity
  8
S-REBAR-MAIN
100
AcDbCircle
 10
385.0
 20
342.8
 30
0.0
 40
0.7
  0
HATCH
  5
149
330
17
100
AcDbEntity
  8
S-REBAR-MAIN
 62
1
100
AcDbHatch
 10
0.0
 20
0.0
 30
0.0
210
0.0
220
0.0
230
1.0
  2
SOLID
 70
1
 71
0
 91
1
 92
3
 72
0
 73
1
 93
16
 10
385.7
 20
342.8
 10
385.6467156727579
 20
343.0678784026556
 10
385.49497474683056
 20
343.2949747468306
 10
385.2678784026556
 20
343.44671567275793
 10
385.0
 20
343.5
 10
384.7321215973444
 20
343.44671567275793
 10
384.50502525316944
 20
343.2949747468306
 10
384.3532843272421
 20
343.0678784026556
 10
384.3
 20
342.8
 10
384.3532843272421
 20
342.5321215973444
 10
384.50502525316944
 20
342.30502525316945
 10
384.7321215973444
 20
342.1532843272421
 10
385.0
 20
342.1
 10
385.2678784026556
 20
342.1532843272421
 10
385.49497474683056
 20
342.30502525316945
 10
385.6467156727579
 20
342.5321215973444
 97
0
 75
0
 76
1
 98
0
  0
CIRCLE
  5
14A
330
17
100
AcDbEntity
  8
S-REBAR-MAIN
100
AcDbCircle
 10
400.0
 20
342.8
 30
0.0
 40
0.7
  0
HATCH
  5
14B
330
17
100
AcDbEntity
  8
S-REBAR-MAIN
 62
1
100
AcDbHatch
 10
0.0
 20
0.0
 30
0.0
210
0.0
220
0.0
230
1.0
  2
SOLID
 70
1
 71
0
 91
1
 92
3
 72
0
 73
1
 93
16
 10
400.7
 20
342.8
 10
400.6467156727579
 20
343.0678784026556
 10
400.49497474683056
 20
343.2949747468306
 10
400.2678784026556
 20
343.44671567275793
 10
400.0
 20
343.5
 10
399.7321215973444
 20
343.44671567275793
 10
399.50502525316944
 20
343.2949747468306
 10
399.3532843272421
 20
343.0678784026556
 10
399.3
 20
342.8
 10
399.3532843272421
 20
342.5321215973444
 10
399.50502525316944
 20
342.30502525316945
 10
399.7321215973444
 20
342.1532843272421
 10
400.0
 20
342.1
 10
400.2678784026556
 20
342.1532843272421
 10
400.49497474683056
 20
342.30502525316945
 10
400.6467156727579
 20
342.5321215973444
 97
0
 75
0
 76
1
 98
0
  0
CIRCLE
  5
14C
330
17
100
AcDbEntity
  8
S-REBAR-MAIN
100
AcDbCircle
 10
407.5
 20
342.8
 30
0.0
 40
0.7
  0
HATCH
  5
14D
330
17
100
AcDbEntity
  8
S-REBAR-MAIN
 62
1
100
AcDbHatch
 10
0.0
 20
0.0
 30
0.0
210
0.0
220
0.0
230
1.0
  2
SOLID
 70
1
 71
0
 91
1
 92
3
 72
0
 73
1
 93
16
 10
408.2
 20
342.8
 10
408.1467156727579
 20
343.0678784026556
 10
407.99497474683056
 20
343.2949747468306
 10
407.7678784026556
 20
343.44671567275793
 10
407.5
 20
343.5
 10
407.2321215973444
 20
343.44671567275793
 10
407.00502525316944
 20
343.2949747468306
 10
406.8532843272421
 20
343.0678784026556
 10
406.8
 20
342.8
 10
406.8532843272421
 20
342.5321215973444
 10
407.00502525316944
 20
342.30502525316945
 10
407.2321215973444
 20
342.1532843272421
 10
407.5
 20
342.1
 10
407.7678784026556
 20
342.1532843272421
 10
407.99497474683056
 20
342.30502525316945
 10
408.1467156727579
 20
342.5321215973444
 97
0
 75
0
 76
1
 98
0
  0
CIRCLE
  5
14E
330
17
100
AcDbEntity
  8
S-REBAR-MAIN
100
AcDbCircle
 10
415.0
 20
342.8
 30
0.0
 40
0.7
  0
HATCH
  5
14F
330
17
100
AcDbEntity
  8
S-REBAR-MAIN
 62
1
100
AcDbHatch
 10
0.0
 20
0.0
 30
0.0
210
0.0
220
0.0
230
1.0
  2
SOLID
 70
1
 71
0
 91
1
 92
3
 72
0
 73
1
 93
16
 10
415.7
 20
342.8
 10
415.6467156727579
 20
343.0678784026556
 10
415.49497474683056
 20
343.2949747468306
 10
415.2678784026556
 20
343.44671567275793
 10
415.0
 20
343.5
 10
414.7321215973444
 20
343.44671567275793
 10
414.50502525316944
 20
343.2949747468306
 10
414.3532843272421
 20
343.0678784026556
 10
414.3
 20
342.8
 10
414.3532843272421
 20
342.5321215973444
 10
414.50502525316944
 20
342.30502525316945
 10
414.7321215973444
 20
342.1532843272421
 10
415.0
 20
342.1
 10
415.2678784026556
 20
342.1532843272421
 10
415.49497474683056
 20
342.30502525316945
 10
415.6467156727579
 20
342.5321215973444
 97
0
 75
0
 76
1
 98
0
  0
CIRCLE
  5
150
330
17
100
AcDbEntity
  8
S-REBAR-MAIN
100
AcDbCircle
 10
422.5
 20
342.8
 30
0.0
 40
0.7
  0
HATCH
  5
151
330
17
100
AcDbEntity
  8
S-REBAR-MAIN
 62
1
100
AcDbHatch
 10
0.0
 20
0.0
 30
0.0
210
0.0
220
0.0
230
1.0
  2
SOLID
 70
1
 71
0
 91
1
 92
3
 72
0
 73
1
 93
16
 10
423.2
 20
342.8
 10
423.1467156727579
 20
343.0678784026556
 10
422.99497474683056
 20
343.2949747468306
 10
422.7678784026556
 20
343.44671567275793
 10
422.5
 20
343.5
 10
422.2321215973444
 20
343.44671567275793
 10
422.00502525316944
 20
343.2949747468306
 10
421.8532843272421
 20
343.0678784026556
 10
421.8
 20
342.8
 10
421.8532843272421
 20
342.5321215973444
 10
422.00502525316944
 20
342.30502525316945
 10
422.2321215973444
 20
342.1532843272421
 10
422.5
 20
342.1
 10
422.7678784026556
 20
342.1532843272421
 10
422.99497474683056
 20
342.30502525316945
 10
423.1467156727579
 20
342.5321215973444
 97
0
 75
0
 76
1
 98
0
  0
CIRCLE
  5
152
330
17
100
AcDbEntity
  8
S-REBAR-MAIN
100
AcDbCircle
 10
430.0
 20
342.8
 30
0.0
 40
0.7
  0
HATCH
  5
153
330
17
100
AcDbEntity
  8
S-REBAR-MAIN
 62
1
100
AcDbHatch
 10
0.0
 20
0.0
 30
0.0
210
0.0
220
0.0
230
1.0
  2
SOLID
 70
1
 71
0
 91
1
 92
3
 72
0
 73
1
 93
16
 10
430.7
 20
342.8
 10
430.6467156727579
 20
343.0678784026556
 10
430.49497474683056
 20
343.2949747468306
 10
430.2678784026556
 20
343.44671567275793
 10
430.0
 20
343.5
 10
429.7321215973444
 20
343.44671567275793
 10
429.50502525316944
 20
343.2949747468306
 10
429.3532843272421
 20
343.0678784026556
 10
429.3
 20
342.8
 10
429.3532843272421
 20
342.5321215973444
 10
429.50502525316944
 20
342.30502525316945
 10
429.7321215973444
 20
342.1532843272421
 10
430.0
 20
342.1
 10
430.2678784026556
 20
342.1532843272421
 10
430.49497474683056
 20
342.30502525316945
 10
430.6467156727579
 20
342.5321215973444
 97
0
 75
0
 76
1
 98
0
  0
CIRCLE
  5
154
330
17
100
AcDbEntity
  8
S-REBAR-MAIN
100
AcDbCircle
 10
437.5
 20
342.8
 30
0.0
 40
0.7
  0
HATCH
  5
155
330
17
100
AcDbEntity
  8
S-REBAR-MAIN
 62
1
100
AcDbHatch
 10
0.0
 20
0.0
 30
0.0
210
0.0
220
0.0
230
1.0
  2
SOLID
 70
1
 71
0
 91
1
 92
3
 72
0
 73
1
 93
16
 10
438.2
 20
342.8
 10
438.1467156727579
 20
343.0678784026556
 10
437.99497474683056
 20
343.2949747468306
 10
437.7678784026556
 20
343.44671567275793
 10
437.5
 20
343.5
 10
437.2321215973444
 20
343.44671567275793
 10
437.00502525316944
 20
343.2949747468306
 10
436.8532843272421
 20
343.0678784026556
 10
436.8
 20
342.8
 10
436.8532843272421
 20
342.5321215973444
 10
437.00502525316944
 20
342.30502525316945
 10
437.2321215973444
 20
342.1532843272421
 10
437.5
 20
342.1
 10
437.7678784026556
 20
342.1532843272421
 10
437.99497474683056
 20
342.30502525316945
 10
438.1467156727579
 20
342.5321215973444
 97
0
 75
0
 76
1
 98
0
  0
CIRCLE
  5
156
330
17
100
AcDbEntity
  8
S-REBAR-MAIN
100
AcDbCircle
 10
445.0
 20
342.8
 30
0.0
 40
0.7
  0
HATCH
  5
157
330
17
100
AcDbEntity
  8
S-REBAR-MAIN
 62
1
100
AcDbHatch
 10
0.0
 20
0.0
 30
0.0
210
0.0
220
0.0
230
1.0
  2
SOLID
 70
1
 71
0
 91
1
 92
3
 72
0
 73
1
 93
16
 10
445.7
 20
342.8
 10
445.6467156727579
 20
343.0678784026556
 10
445.49497474683056
 20
343.2949747468306
 10
445.2678784026556
 20
343.44671567275793
 10
445.0
 20
343.5
 10
444.7321215973444
 20
343.44671567275793
 10
444.50502525316944
 20
343.2949747468306
 10
444.3532843272421
 20
343.0678784026556
 10
444.3
 20
342.8
 10
444.3532843272421
 20
342.5321215973444
 10
444.50502525316944
 20
342.30502525316945
 10
444.7321215973444
 20
342.1532843272421
 10
445.0
 20
342.1
 10
445.2678784026556
 20
342.1532843272421
 10
445.49497474683056
 20
342.30502525316945
 10
445.6467156727579
 20
342.5321215973444
 97
0
 75
0
 76
1
 98
0
  0
CIRCLE
  5
158
330
17
100
AcDbEntity
  8
S-REBAR-MAIN
100
AcDbCircle
 10
452.5
 20
342.8
 30
0.0
 40
0.7
  0
HATCH
  5
159
330
17
100
AcDbEntity
  8
S-REBAR-MAIN
 62
1
100
AcDbHatch
 10
0.0
 20
0.0
 30
0.0
210
0.0
220
0.0
230
1.0
  2
SOLID
 70
1
 71
0
 91
1
 92
3
 72
0
 73
1
 93
16
 10
453.2
 20
342.8
 10
453.1467156727579
 20
343.0678784026556
 10
452.99497474683056
 20
343.2949747468306
 10
452.7678784026556
 20
343.44671567275793
 10
452.5
 20
343.5
 10
452.2321215973444
 20
343.44671567275793
 10
452.00502525316944
 20
343.2949747468306
 10
451.8532843272421
 20
343.0678784026556
 10
451.8
 20
342.8
 10
451.8532843272421
 20
342.5321215973444
 10
452.00502525316944
 20
342.30502525316945
 10
452.2321215973444
 20
342.1532843272421
 10
452.5
 20
342.1
 10
452.7678784026556
 20
342.1532843272421
 10
452.99497474683056
 20
342.30502525316945
 10
453.1467156727579
 20
342.5321215973444
 97
0
 75
0
 76
1
 98
0
  0
CIRCLE
  5
15A
330
17
100
AcDbEntity
  8
S-REBAR-MAIN
100
AcDbCircle
 10
460.0
 20
342.8
 30
0.0
 40
0.7
  0
HATCH
  5
15B
330
17
100
AcDbEntity
  8
S-REBAR-MAIN
 62
1
100
AcDbHatch
 10
0.0
 20
0.0
 30
0.0
210
0.0
220
0.0
230
1.0
  2
SOLID
 70
1
 71
0
 91
1
 92
3
 72
0
 73
1
 93
16
 10
460.7
 20
342.8
 10
460.6467156727579
 20
343.0678784026556
 10
460.49497474683056
 20
343.2949747468306
 10
460.2678784026556
 20
343.44671567275793
 10
460.0
 20
343.5
 10
459.7321215973444
 20
343.44671567275793
 10
459.50502525316944
 20
343.2949747468306
 10
459.3532843272421
 20
343.0678784026556
 10
459.3
 20
342.8
 10
459.3532843272421
 20
342.5321215973444
 10
459.50502525316944
 20
342.30502525316945
 10
459.7321215973444
 20
342.1532843272421
 10
460.0
 20
342.1
 10
460.2678784026556
 20
342.1532843272421
 10
460.49497474683056
 20
342.30502525316945
 10
460.6467156727579
 20
342.5321215973444
 97
0
 75
0
 76
1
 98
0
  0
TEXT
  5
15C
330
17
100
AcDbEntity
  8
S-BLAST
100
AcDbText
 10
320.0
 20
305.0
 30
0.0
 40
1.4
  1
NO BAR CROSSES THE JOINT
  7
OpenSans
 11
320.0
 21
305.0
 31
0.0
100
AcDbText
  0
DIMENSION
  5
15D
330
17
100
AcDbEntity
  8
S-DIM
100
AcDbDimension
280
0
  2
*D2
  3
SC-DIM
 10
390.0
 20
405.0
 30
0.0
 11
392.5
 21
407.9
 31
0.0
 70
32
 71
5
  1
<>
100
AcDbAlignedDimension
 13
390.0
 23
385.0
 33
0.0
 14
395.0
 24
385.0
 34
0.0
 50
0.0
100
AcDbRotatedDimension
1001
ACAD
1000
DSTYLE
1002
{
1070
144
1040
20.0
1002
}
  0
TEXT
  5
16C
330
17
100
AcDbEntity
  8
S-TITLE
100
AcDbText
 10
300.0
 20
552.0
 30
0.0
 40
3.5
  1
D2   MOVEMENT JOINT - STAIRWELL RAFT / HEADHOUSE
  7
OpenSans
 11
300.0
 21
552.0
 31
0.0
100
AcDbText
  0
LINE
  5
16D
330
17
100
AcDbEntity
  8
S-TITLE
100
AcDbLine
 10
300.0
 20
550.2
 30
0.0
 11
434.9809109176156
 21
550.2
 31
0.0
  0
TEXT
  5
16E
330
17
100
AcDbEntity
  8
S-TEXT
100
AcDbText
 10
300.0
 20
544.8
 30
0.0
 40
2.0
  1
SCALE 1:20
  7
OpenSans
 11
300.0
 21
544.8
 31
0.0
100
AcDbText
  0
TEXT
  5
16F
330
17
100
AcDbEntity
  8
S-BLAST
100
AcDbText
 10
300.0
 20
300.0
 30
0.0
 40
1.4
  1
THE ONLY MOVEMENT JOINT ON THE PROJECT.
  7
OpenSans
 11
300.0
 21
300.0
 31
0.0
100
AcDbText
  0
TEXT
  5
170
330
17
100
AcDbEntity
  8
S-TITLE
100
AcDbText
 10
32.0
 20
257.5
 30
0.0
 40
2.5
  1
JOINT POLICY
  7
OpenSans
 11
32.0
 21
257.5
 31
0.0
100
AcDbText
  0
TEXT
  5
171
330
17
100
AcDbEntity
  8
S-NOTE
100
AcDbText
 10
32.0
 20
253.375
 30
0.0
 40
2.0
  1
CONSTRUCTION JOINTS - APPROXIMATELY 6 m CENTRES
  7
OpenSans
 11
32.0
 21
253.375
 31
0.0
100
AcDbText
  0
TEXT
  5
172
330
17
100
AcDbEntity
  8
S-NOTE
100
AcDbText
 10
32.0
 20
250.325
 30
0.0
 40
2.0
  1
  1  REINFORCEMENT IS FULLY CONTINUOUS ACROSS EVERY CONSTRUCTION JOINT.
  7
OpenSans
 11
32.0
 21
250.325
 31
0.0
100
AcDbText
  0
TEXT
  5
173
330
17
100
AcDbEntity
  8
S-NOTE
100
AcDbText
 10
32.0
 20
247.27499999999998
 30
0.0
 40
2.0
  1
     No bar is lapped at a joint unless the lap is separately staggered.
  7
OpenSans
 11
32.0
 21
247.27499999999998
 31
0.0
100
AcDbText
  0
TEXT
  5
174
330
17
100
AcDbEntity
  8
S-NOTE
100
AcDbText
 10
32.0
 20
244.22499999999997
 30
0.0
 40
2.0
  1
  2  TWO WATERSTOPS - one in each curtain zone, centre-bulb type, on both
  7
OpenSans
 11
32.0
 21
244.22499999999997
 31
0.0
100
AcDbText
  0
TEXT
  5
175
330
17
100
AcDbEntity
  8
S-NOTE
100
AcDbText
 10
32.0
 20
241.17499999999995
 30
0.0
 40
2.0
  1
     the earth face and the internal face of the section.
  7
OpenSans
 11
32.0
 21
241.17499999999995
 31
0.0
100
AcDbText
  0
TEXT
  5
176
330
17
100
AcDbEntity
  8
S-NOTE
100
AcDbText
 10
32.0
 20
238.12499999999994
 30
0.0
 40
2.0
  1
  3  A WELDED Cu / GALVANISED EMP STRAP bridges the joint and is welded to
  7
OpenSans
 11
32.0
 21
238.12499999999994
 31
0.0
100
AcDbText
  0
TEXT
  5
177
330
17
100
AcDbEntity
  8
S-NOTE
100
AcDbText
 10
32.0
 20
235.07499999999993
 30
0.0
 40
2.0
  1
     the cage on both sides, so that the reinforcement shield remains
  7
OpenSans
 11
32.0
 21
235.07499999999993
 31
0.0
100
AcDbText
  0
TEXT
  5
178
330
17
100
AcDbEntity
  8
S-NOTE
100
AcDbText
 10
32.0
 20
232.02499999999992
 30
0.0
 40
2.0
  1
     electrically continuous across the pour break.
  7
OpenSans
 11
32.0
 21
232.02499999999992
 31
0.0
100
AcDbText
  0
TEXT
  5
179
330
17
100
AcDbEntity
  8
S-NOTE
100
AcDbText
 10
32.0
 20
228.9749999999999
 30
0.0
 40
2.0
  1
  4  Joint surface roughened to expose the coarse aggregate, cleaned and
  7
OpenSans
 11
32.0
 21
228.9749999999999
 31
0.0
100
AcDbText
  0
TEXT
  5
17A
330
17
100
AcDbEntity
  8
S-NOTE
100
AcDbText
 10
32.0
 20
225.9249999999999
 30
0.0
 40
2.0
  1
     brought to a saturated surface-dry condition (IS 456 Cl. 13.4).
  7
OpenSans
 11
32.0
 21
225.9249999999999
 31
0.0
100
AcDbText
  0
TEXT
  5
17B
330
17
100
AcDbEntity
  8
S-NOTE
100
AcDbText
 10
32.0
 20
222.8749999999999
 30
0.0
 40
2.0
  1
  5  Joints are located AWAY from the blast-door openings, the escape-shaft
  7
OpenSans
 11
32.0
 21
222.8749999999999
 31
0.0
100
AcDbText
  0
TEXT
  5
17C
330
17
100
AcDbEntity
  8
S-NOTE
100
AcDbText
 10
32.0
 20
219.82499999999987
 30
0.0
 40
2.0
  1
     collars and the stair-void re-entrant corners.
  7
OpenSans
 11
32.0
 21
219.82499999999987
 31
0.0
100
AcDbText
  0
TEXT
  5
17D
330
17
100
AcDbEntity
  8
S-NOTE
100
AcDbText
 10
32.0
 20
213.72499999999985
 30
0.0
 40
2.0
  1
*** NO MOVEMENT JOINT ANYWHERE INSIDE THE PROTECTIVE ENVELOPE. ***
  7
OpenSans
 11
32.0
 21
213.72499999999985
 31
0.0
100
AcDbText
  0
TEXT
  5
17E
330
17
100
AcDbEntity
  8
S-NOTE
100
AcDbText
 10
32.0
 20
210.67499999999984
 30
0.0
 40
2.0
  1
A movement joint is a GUARANTEED BLAST, GAS AND EMP DISCONTINUITY.  The
  7
OpenSans
 11
32.0
 21
210.67499999999984
 31
0.0
100
AcDbText
  0
TEXT
  5
17F
330
17
100
AcDbEntity
  8
S-NOTE
100
AcDbText
 10
32.0
 20
207.62499999999983
 30
0.0
 40
2.0
  1
only movement joint on the project is where the entry-stairwell raft meets
  7
OpenSans
 11
32.0
 21
207.62499999999983
 31
0.0
100
AcDbText
  0
TEXT
  5
180
330
17
100
AcDbEntity
  8
S-NOTE
100
AcDbText
 10
32.0
 20
204.57499999999982
 30
0.0
 40
2.0
  1
the headhouse - and that raft is OUTSIDE the protective boundary and is
  7
OpenSans
 11
32.0
 21
204.57499999999982
 31
0.0
100
AcDbText
  0
TEXT
  5
181
330
17
100
AcDbEntity
  8
S-NOTE
100
AcDbText
 10
32.0
 20
201.5249999999998
 30
0.0
 40
2.0
  1
declared expendable.
  7
OpenSans
 11
32.0
 21
201.5249999999998
 31
0.0
100
AcDbText
  0
TEXT
  5
182
330
17
100
AcDbEntity
  8
S-NOTE
100
AcDbText
 10
32.0
 20
195.42499999999978
 30
0.0
 40
2.0
  1
*** C16 OPEN ***  The roof / platform junction at that same location is not
  7
OpenSans
 11
32.0
 21
195.42499999999978
 31
0.0
100
AcDbText
  0
TEXT
  5
183
330
17
100
AcDbEntity
  8
S-NOTE
100
AcDbText
 10
32.0
 20
192.37499999999977
 30
0.0
 40
2.0
  1
resolved.  The MOVEMENT JOINT IN THE RAFT is fixed and is not affected;
  7
OpenSans
 11
32.0
 21
192.37499999999977
 31
0.0
100
AcDbText
  0
TEXT
  5
184
330
17
100
AcDbEntity
  8
S-NOTE
100
AcDbText
 10
32.0
 20
189.32499999999976
 30
0.0
 40
2.0
  1
the ROOF junction above it cannot be detailed until C16 is ruled on.
  7
OpenSans
 11
32.0
 21
189.32499999999976
 31
0.0
100
AcDbText
  0
LWPOLYLINE
  5
185
330
17
100
AcDbEntity
  8
S-TITLE
100
AcDbPolyline
 90
4
 70
1
 10
30.0
 20
184.27499999999975
 10
330.0
 20
184.27499999999975
 10
330.0
 20
262.0
 10
30.0
 20
262.0
  0
TEXT
  5
186
330
17
100
AcDbEntity
  8
S-TITLE
100
AcDbText
 10
342.0
 20
257.5
 30
0.0
 40
2.5
  1
WHY THE EMP STRAP MATTERS
  7
OpenSans
 11
342.0
 21
257.5
 31
0.0
100
AcDbText
  0
TEXT
  5
187
330
17
100
AcDbEntity
  8
S-NOTE
100
AcDbText
 10
342.0
 20
253.375
 30
0.0
 40
2.0
  1
The reinforcement cage is the primary EMP shield for the shelter, which
  7
OpenSans
 11
342.0
 21
253.375
 31
0.0
100
AcDbText
  0
TEXT
  5
188
330
17
100
AcDbEntity
  8
S-NOTE
100
AcDbText
 10
342.0
 20
250.325
 30
0.0
 40
2.0
  1
is why the bar spacing is capped at 150 mm both curtains - a limit that
  7
OpenSans
 11
342.0
 21
250.325
 31
0.0
100
AcDbText
  0
TEXT
  5
189
330
17
100
AcDbEntity
  8
S-NOTE
100
AcDbText
 10
342.0
 20
247.27499999999998
 30
0.0
 40
2.0
  1
is stricter than any IS 456 requirement and that governs the main steel
  7
OpenSans
 11
342.0
 21
247.27499999999998
 31
0.0
100
AcDbText
  0
TEXT
  5
18A
330
17
100
AcDbEntity
  8
S-NOTE
100
AcDbText
 10
342.0
 20
244.22499999999997
 30
0.0
 40
2.0
  1
spacing of every element in this package.
  7
OpenSans
 11
342.0
 21
244.22499999999997
 31
0.0
100
AcDbText
  0
TEXT
  5
18B
330
17
100
AcDbEntity
  8
S-NOTE
100
AcDbText
 10
342.0
 20
238.12499999999994
 30
0.0
 40
2.0
  1
A pour break is a discontinuity in that shield.  A welded strap restores
  7
OpenSans
 11
342.0
 21
238.12499999999994
 31
0.0
100
AcDbText
  0
TEXT
  5
18C
330
17
100
AcDbEntity
  8
S-NOTE
100
AcDbText
 10
342.0
 20
235.07499999999993
 30
0.0
 40
2.0
  1
it.  Reinforcement that is merely lapped across a joint is a structural
  7
OpenSans
 11
342.0
 21
235.07499999999993
 31
0.0
100
AcDbText
  0
TEXT
  5
18D
330
17
100
AcDbEntity
  8
S-NOTE
100
AcDbText
 10
342.0
 20
232.02499999999992
 30
0.0
 40
2.0
  1
connection but NOT a reliable electrical one.
  7
OpenSans
 11
342.0
 21
232.02499999999992
 31
0.0
100
AcDbText
  0
TEXT
  5
18E
330
17
100
AcDbEntity
  8
S-NOTE
100
AcDbText
 10
342.0
 20
225.9249999999999
 30
0.0
 40
2.0
  1
THE HONEST LIMIT, STATED BEFORE A REVIEWER FINDS IT:  a rebar cage at
  7
OpenSans
 11
342.0
 21
225.9249999999999
 31
0.0
100
AcDbText
  0
TEXT
  5
18F
330
17
100
AcDbEntity
  8
S-NOTE
100
AcDbText
 10
342.0
 20
222.8749999999999
 30
0.0
 40
2.0
  1
150 mm centres gives essentially 0 dB of attenuation at 1 GHz.  The
  7
OpenSans
 11
342.0
 21
222.8749999999999
 31
0.0
100
AcDbText
  0
TEXT
  5
190
330
17
100
AcDbEntity
  8
S-NOTE
100
AcDbText
 10
342.0
 20
219.82499999999987
 30
0.0
 40
2.0
  1
answer in this project is the EMP Zone 2 welded steel room in Bay 3, not
  7
OpenSans
 11
342.0
 21
219.82499999999987
 31
0.0
100
AcDbText
  0
TEXT
  5
191
330
17
100
AcDbEntity
  8
S-NOTE
100
AcDbText
 10
342.0
 20
216.77499999999986
 30
0.0
 40
2.0
  1
the cage.  The cage and its straps handle the low-frequency content and
  7
OpenSans
 11
342.0
 21
216.77499999999986
 31
0.0
100
AcDbText
  0
TEXT
  5
192
330
17
100
AcDbEntity
  8
S-NOTE
100
AcDbText
 10
342.0
 20
213.72499999999985
 30
0.0
 40
2.0
  1
the bonding path; they are not the shield.
  7
OpenSans
 11
342.0
 21
213.72499999999985
 31
0.0
100
AcDbText
  0
TEXT
  5
193
330
17
100
AcDbEntity
  8
S-NOTE
100
AcDbText
 10
342.0
 20
207.62499999999983
 30
0.0
 40
2.0
  1
The same reasoning is why every cast-in door frame is WELDED to the cage
  7
OpenSans
 11
342.0
 21
207.62499999999983
 31
0.0
100
AcDbText
  0
TEXT
  5
194
330
17
100
AcDbEntity
  8
S-NOTE
100
AcDbText
 10
342.0
 20
204.57499999999982
 30
0.0
 40
2.0
  1
rather than simply embedded - R-703.
  7
OpenSans
 11
342.0
 21
204.57499999999982
 31
0.0
100
AcDbText
  0
LWPOLYLINE
  5
195
330
17
100
AcDbEntity
  8
S-TITLE
100
AcDbPolyline
 90
4
 70
1
 10
340.0
 20
199.5249999999998
 10
638.0
 20
199.5249999999998
 10
638.0
 20
262.0
 10
340.0
 20
262.0
  0
TEXT
  5
196
330
17
100
AcDbEntity
  8
S-TITLE
100
AcDbText
 10
650.0
 20
547.5
 30
0.0
 40
2.5
  1
MATERIALS, COVER AND ANCHORAGE
  7
OpenSans
 11
650.0
 21
547.5
 31
0.0
100
AcDbText
  0
TEXT
  5
197
330
17
100
AcDbEntity
  8
S-NOTE
100
AcDbText
 10
650.0
 20
543.375
 30
0.0
 40
2.0
  1
CONCRETE          M35 to IS 456 Table 5.  w/c <= 0.45, cement >= 340 kg/m3.
  7
OpenSans
 11
650.0
 21
543.375
 31
0.0
100
AcDbText
  0
TEXT
  5
198
330
17
100
AcDbEntity
  8
S-NOTE
100
AcDbText
 10
650.0
 20
540.375
 30
0.0
 40
2.0
  1
                  Integral crystalline waterproofing admixture.
  7
OpenSans
 11
650.0
 21
540.375
 31
0.0
100
AcDbText
  0
TEXT
  5
199
330
17
100
AcDbEntity
  8
S-NOTE
100
AcDbText
 10
650.0
 20
537.375
 30
0.0
 40
2.0
  1
                  Blinding M15, 100 thk.
  7
OpenSans
 11
650.0
 21
537.375
 31
0.0
100
AcDbText
  0
TEXT
  5
19A
330
17
100
AcDbEntity
  8
S-NOTE
100
AcDbText
 10
650.0
 20
534.375
 30
0.0
 40
2.0
  1
REINFORCEMENT     Fe500D to IS 1786:2008.
  7
OpenSans
 11
650.0
 21
534.375
 31
0.0
100
AcDbText
  0
TEXT
  5
19B
330
17
100
AcDbEntity
  8
S-NOTE
100
AcDbText
 10
650.0
 20
531.375
 30
0.0
 40
2.0
  1
Ec = 5000 sqrt(fck) = 29 580 N/mm2   (IS 456 Cl. 6.2.3.1)
  7
OpenSans
 11
650.0
 21
531.375
 31
0.0
100
AcDbText
  0
TEXT
  5
19C
330
17
100
AcDbEntity
  8
S-NOTE
100
AcDbText
 10
650.0
 20
528.375
 30
0.0
 40
2.0
  1
gamma_m           1.5 concrete / 1.15 steel  (IS 456 Cl. 36.4.2)
  7
OpenSans
 11
650.0
 21
528.375
 31
0.0
100
AcDbText
  0
TEXT
  5
19D
330
17
100
AcDbEntity
  8
S-NOTE
100
AcDbText
 10
650.0
 20
522.375
 30
0.0
 40
2.0
  1
BLAST CASE ONLY   IS 4991 Cl. 10.3.1:  fck,dyn 43.75  ·  fy,dyn 625
  7
OpenSans
 11
650.0
 21
522.375
 31
0.0
100
AcDbText
  0
TEXT
  5
19E
330
17
100
AcDbEntity
  8
S-NOTE
100
AcDbText
 10
650.0
 20
519.375
 30
0.0
 40
2.0
  1
*** NO DYNAMIC INCREASE ON SHEAR - IS 4991 Cl. 10.3.1.1 ***
  7
OpenSans
 11
650.0
 21
519.375
 31
0.0
100
AcDbText
  0
TEXT
  5
19F
330
17
100
AcDbEntity
  8
S-NOTE
100
AcDbText
 10
650.0
 20
516.375
 30
0.0
 40
2.0
  1
tau_c and tau_c,max are read at the STATIC M35 value in every check.
  7
OpenSans
 11
650.0
 21
516.375
 31
0.0
100
AcDbText
  0
TEXT
  5
1A0
330
17
100
AcDbEntity
  8
S-NOTE
100
AcDbText
 10
650.0
 20
510.375
 30
0.0
 40
2.0
  1
COVER   75 cast against blinding · 50 formed earth face
  7
OpenSans
 11
650.0
 21
510.375
 31
0.0
100
AcDbText
  0
TEXT
  5
1A1
330
17
100
AcDbEntity
  8
S-NOTE
100
AcDbText
 10
650.0
 20
507.375
 30
0.0
 40
2.0
  1
        40 internal · 30 stair-shaft faces
  7
OpenSans
 11
650.0
 21
507.375
 31
0.0
100
AcDbText
  0
TEXT
  5
1A2
330
17
100
AcDbEntity
  8
S-NOTE
100
AcDbText
 10
650.0
 20
504.375
 30
0.0
 40
2.0
  1
        The 5 mm reduction IS 456 Table 16 permits for M35 is NOT taken.
  7
OpenSans
 11
650.0
 21
504.375
 31
0.0
100
AcDbText
  0
TEXT
  5
1A3
330
17
100
AcDbEntity
  8
S-NOTE
100
AcDbText
 10
650.0
 20
498.375
 30
0.0
 40
2.0
  1
Ld TENSION 40 phi  ·  Ld COMPRESSION 32 phi  ·  LAP 50 phi STAGGERED
  7
OpenSans
 11
650.0
 21
498.375
 31
0.0
100
AcDbText
  0
TEXT
  5
1A4
330
17
100
AcDbEntity
  8
S-NOTE
100
AcDbText
 10
650.0
 20
495.375
 30
0.0
 40
2.0
  1
T8 320/400 · T10 400/500 · T12 480/600 · T16 640/800
  7
OpenSans
 11
650.0
 21
495.375
 31
0.0
100
AcDbText
  0
TEXT
  5
1A5
330
17
100
AcDbEntity
  8
S-NOTE
100
AcDbText
 10
650.0
 20
492.375
 30
0.0
 40
2.0
  1
T20 800/1000 · T25 1000/1250        (Ld / lap, mm)
  7
OpenSans
 11
650.0
 21
492.375
 31
0.0
100
AcDbText
  0
TEXT
  5
1A6
330
17
100
AcDbEntity
  8
S-NOTE
100
AcDbText
 10
650.0
 20
489.375
 30
0.0
 40
2.0
  1
The IS 4991 Cl. 10.3.1.1 +25 % blast bond allowance is NOT taken.
  7
OpenSans
 11
650.0
 21
489.375
 31
0.0
100
AcDbText
  0
TEXT
  5
1A7
330
17
100
AcDbEntity
  8
S-NOTE
100
AcDbText
 10
650.0
 20
483.375
 30
0.0
 40
2.0
  1
*** MAXIMUM BAR SPACING 150 BOTH CURTAINS - EMP REQUIREMENT ***
  7
OpenSans
 11
650.0
 21
483.375
 31
0.0
100
AcDbText
  0
TEXT
  5
1A8
330
17
100
AcDbEntity
  8
S-NOTE
100
AcDbText
 10
650.0
 20
480.375
 30
0.0
 40
2.0
  1
    stricter than IS 456 Cl. 26.3.3 and than every code minimum.
  7
OpenSans
 11
650.0
 21
480.375
 31
0.0
100
AcDbText
  0
LWPOLYLINE
  5
1A9
330
17
100
AcDbEntity
  8
S-TITLE
100
AcDbPolyline
 90
4
 70
1
 10
648.0
 20
475.375
 10
831.0
 20
475.375
 10
831.0
 20
552.0
 10
648.0
 20
552.0
  0
LWPOLYLINE
  5
1AA
330
17
100
AcDbEntity
  8
S-TITLE
100
AcDbPolyline
 90
4
 70
1
 10
651.0
 20
10.0
 10
831.0
 20
10.0
 10
831.0
 20
110.0
 10
651.0
 20
110.0
  0
LINE
  5
1AB
330
17
100
AcDbEntity
  8
S-TITLE
100
AcDbLine
 10
651.0
 20
30.0
 30
0.0
 11
831.0
 21
30.0
 31
0.0
  0
LINE
  5
1AC
330
17
100
AcDbEntity
  8
S-TITLE
100
AcDbLine
 10
651.0
 20
42.0
 30
0.0
 11
831.0
 21
42.0
 31
0.0
  0
LINE
  5
1AD
330
17
100
AcDbEntity
  8
S-TITLE
100
AcDbLine
 10
651.0
 20
54.0
 30
0.0
 11
831.0
 21
54.0
 31
0.0
  0
LINE
  5
1AE
330
17
100
AcDbEntity
  8
S-TITLE
100
AcDbLine
 10
651.0
 20
66.0
 30
0.0
 11
831.0
 21
66.0
 31
0.0
  0
LINE
  5
1AF
330
17
100
AcDbEntity
  8
S-TITLE
100
AcDbLine
 10
651.0
 20
88.0
 30
0.0
 11
831.0
 21
88.0
 31
0.0
  0
LINE
  5
1B0
330
17
100
AcDbEntity
  8
S-TITLE
100
AcDbLine
 10
763.0
 20
10.0
 30
0.0
 11
763.0
 21
30.0
 31
0.0
  0
LINE
  5
1B1
330
17
100
AcDbEntity
  8
S-TITLE
100
AcDbLine
 10
797.0
 20
10.0
 30
0.0
 11
797.0
 21
30.0
 31
0.0
  0
TEXT
  5
1B2
330
17
100
AcDbEntity
  8
S-TITLE
100
AcDbText
 10
653.0
 20
24.6
 30
0.0
 40
1.4
  1
DRAWING No.
  7
OpenSans
 11
653.0
 21
24.6
 31
0.0
100
AcDbText
  0
TEXT
  5
1B3
330
17
100
AcDbEntity
  8
S-TITLE
100
AcDbText
 10
673.0
 20
14.2
 30
0.0
 40
3.5
  1
R-804
  7
OpenSans
 11
673.0
 21
14.2
 31
0.0
100
AcDbText
  0
TEXT
  5
1B4
330
17
100
AcDbEntity
  8
S-TITLE
100
AcDbText
 10
765.0
 20
24.6
 30
0.0
 40
1.4
  1
REV
  7
OpenSans
 11
765.0
 21
24.6
 31
0.0
100
AcDbText
  0
TEXT
  5
1B5
330
17
100
AcDbEntity
  8
S-TITLE
100
AcDbText
 10
769.0
 20
14.2
 30
0.0
 40
3.5
  1
SC1
  7
OpenSans
 11
769.0
 21
14.2
 31
0.0
100
AcDbText
  0
TEXT
  5
1B6
330
17
100
AcDbEntity
  8
S-TITLE
100
AcDbText
 10
799.0
 20
24.6
 30
0.0
 40
1.4
  1
SHEET
  7
OpenSans
 11
799.0
 21
24.6
 31
0.0
100
AcDbText
  0
TEXT
  5
1B7
330
17
100
AcDbEntity
  8
S-TITLE
100
AcDbText
 10
799.0
 20
15.0
 30
0.0
 40
1.6
  1
29 OF 30
  7
OpenSans
 11
799.0
 21
15.0
 31
0.0
100
AcDbText
  0
LINE
  5
1B8
330
17
100
AcDbEntity
  8
S-TITLE
100
AcDbLine
 10
747.0
 20
30.0
 30
0.0
 11
747.0
 21
42.0
 31
0.0
  0
TEXT
  5
1B9
330
17
100
AcDbEntity
  8
S-TITLE
100
AcDbText
 10
653.0
 20
34.4
 30
0.0
 40
1.6
  1
SCALE   1:10, 1:20
  7
OpenSans
 11
653.0
 21
34.4
 31
0.0
100
AcDbText
  0
TEXT
  5
1BA
330
17
100
AcDbEntity
  8
S-TITLE
100
AcDbText
 10
749.0
 20
34.4
 30
0.0
 40
1.6
  1
DATE   04.09.2026
  7
OpenSans
 11
749.0
 21
34.4
 31
0.0
100
AcDbText
  0
TEXT
  5
1BB
330
17
100
AcDbEntity
  8
S-TITLE
100
AcDbText
 10
653.0
 20
46.4
 30
0.0
 40
1.4
  1
DESIGNED  [PLACEHOLDER]
  7
OpenSans
 11
653.0
 21
46.4
 31
0.0
100
AcDbText
  0
TEXT
  5
1BC
330
17
100
AcDbEntity
  8
S-TITLE
100
AcDbText
 10
713.0
 20
46.4
 30
0.0
 40
1.4
  1
CHECKED  [PLACEHOLDER]
  7
OpenSans
 11
713.0
 21
46.4
 31
0.0
100
AcDbText
  0
TEXT
  5
1BD
330
17
100
AcDbEntity
  8
S-TITLE
100
AcDbText
 10
773.0
 20
46.4
 30
0.0
 40
1.4
  1
APPROVED  [PLACEHOLDER]
  7
OpenSans
 11
773.0
 21
46.4
 31
0.0
100
AcDbText
  0
TEXT
  5
1BE
330
17
100
AcDbEntity
  8
S-TITLE
100
AcDbText
 10
653.0
 20
58.4
 30
0.0
 40
1.4
  1
STATUS
  7
OpenSans
 11
653.0
 21
58.4
 31
0.0
100
AcDbText
  0
TEXT
  5
1BF
330
17
100
AcDbEntity
  8
S-BLAST
100
AcDbText
 10
673.0
 20
58.0
 30
0.0
 40
1.6
  1
FOR REVIEW - NOT FOR CONSTRUCTION
  7
OpenSans
 11
673.0
 21
58.0
 31
0.0
100
AcDbText
  0
TEXT
  5
1C0
330
17
100
AcDbEntity
  8
S-TITLE
100
AcDbText
 10
653.0
 20
83.4
 30
0.0
 40
1.4
  1
DRAWING TITLE
  7
OpenSans
 11
653.0
 21
83.4
 31
0.0
100
AcDbText
  0
TEXT
  5
1C1
330
17
100
AcDbEntity
  8
S-TITLE
100
AcDbText
 10
653.0
 20
75.4
 30
0.0
 40
2.4
  1
CONSTRUCTION JOINTS
  7
OpenSans
 11
653.0
 21
75.4
 31
0.0
100
AcDbText
  0
TEXT
  5
1C2
330
17
100
AcDbEntity
  8
S-TITLE
100
AcDbText
 10
653.0
 20
68.8
 30
0.0
 40
1.4
  1
FULL BAR CONTINUITY · TWO WATERSTOPS · WELDED EMP STRAP
  7
OpenSans
 11
653.0
 21
68.8
 31
0.0
100
AcDbText
  0
TEXT
  5
1C3
330
17
100
AcDbEntity
  8
S-TITLE
100
AcDbText
 10
653.0
 20
105.2
 30
0.0
 40
1.4
  1
PROJECT
  7
OpenSans
 11
653.0
 21
105.2
 31
0.0
100
AcDbText
  0
TEXT
  5
1C4
330
17
100
AcDbEntity
  8
S-TITLE
100
AcDbText
 10
653.0
 20
99.6
 30
0.0
 40
1.6
  1
UNDERGROUND CBRN-HARDENED BLAST-RESISTANT
  7
OpenSans
 11
653.0
 21
99.6
 31
0.0
100
AcDbText
  0
TEXT
  5
1C5
330
17
100
AcDbEntity
  8
S-TITLE
100
AcDbText
 10
653.0
 20
95.0
 30
0.0
 40
1.6
  1
PROTECTIVE STRUCTURE  -  PUNE, MAHARASHTRA
  7
OpenSans
 11
653.0
 21
95.0
 31
0.0
100
AcDbText
  0
TEXT
  5
1C6
330
17
100
AcDbEntity
  8
S-TITLE
100
AcDbText
 10
653.0
 20
90.0
 30
0.0
 40
1.4
  1
STRUCTURAL PHASE 2 REV A + M1   ·   SENTRY POST NOT IN THIS PACKAGE
  7
OpenSans
 11
653.0
 21
90.0
 31
0.0
100
AcDbText
  0
ENDSEC
  0
SECTION
  2
OBJECTS
  0
DICTIONARY
  5
A
330
0
100
AcDbDictionary
281
1
  3
ACAD_COLOR
350
B
  3
ACAD_GROUP
350
C
  3
ACAD_LAYOUT
350
D
  3
ACAD_MATERIAL
350
E
  3
ACAD_MLEADERSTYLE
350
F
  3
ACAD_MLINESTYLE
350
10
  3
ACAD_PLOTSETTINGS
350
11
  3
ACAD_PLOTSTYLENAME
350
12
  3
ACAD_SCALELIST
350
14
  3
ACAD_TABLESTYLE
350
15
  3
ACAD_VISUALSTYLE
350
16
  3
EZDXF_META
350
2D
  0
DICTIONARY
  5
B
330
A
100
AcDbDictionary
281
1
  0
DICTIONARY
  5
C
330
A
100
AcDbDictionary
281
1
  0
DICTIONARY
  5
D
330
A
100
AcDbDictionary
281
1
  3
Model
350
1A
  3
Layout1
350
1E
  0
DICTIONARY
  5
E
330
A
100
AcDbDictionary
281
1
  3
ByBlock
350
1F
  3
ByLayer
350
20
  3
Global
350
21
  0
DICTIONARY
  5
F
330
A
100
AcDbDictionary
281
1
  3
Standard
350
2C
  0
DICTIONARY
  5
10
330
A
100
AcDbDictionary
281
1
  3
Standard
350
22
  0
DICTIONARY
  5
11
330
A
100
AcDbDictionary
281
1
  0
ACDBDICTIONARYWDFLT
  5
12
330
A
100
AcDbDictionary
281
1
  3
Normal
350
13
100
AcDbDictionaryWithDefault
340
13
  0
ACDBPLACEHOLDER
  5
13
330
12
  0
DICTIONARY
  5
14
330
A
100
AcDbDictionary
281
1
  0
DICTIONARY
  5
15
330
A
100
AcDbDictionary
281
1
  0
DICTIONARY
  5
16
330
A
100
AcDbDictionary
281
1
  3
2dWireframe
350
5A
  3
Basic
350
5B
  3
Brighten
350
5C
  3
ColorChange
350
5D
  3
Conceptual
350
5E
  3
Dim
350
5F
  3
EdgeColorOff
350
60
  3
Facepattern
350
61
  3
Flat
350
62
  3
FlatWithEdges
350
63
  3
Gouraud
350
64
  3
GouraudWithEdges
350
65
  3
Hidden
350
66
  3
JitterOff
350
67
  3
Linepattern
350
68
  3
Modeling
350
69
  3
OverhangOff
350
6A
  3
Realistic
350
6B
  3
Shaded
350
6C
  3
Shaded with edges
350
6D
  3
Shades of Gray
350
6E
  3
Sketchy
350
6F
  3
Thicken
350
70
  3
Wireframe
350
71
  3
X-Ray
350
72
  0
LAYOUT
  5
1A
330
D
100
AcDbPlotSettings
  1

  4
A3
  6

 40
7.5
 41
20.0
 42
7.5
 43
20.0
 44
420.0
 45
297.0
 46
0.0
 47
0.0
 48
0.0
 49
0.0
140
0.0
141
0.0
142
1.0
143
1.0
 70
1024
 72
1
 73
0
 74
5
  7

 75
16
 76
0
 77
2
 78
300
147
1.0
148
0.0
149
0.0
100
AcDbLayout
  1
Model
 70
1
 71
0
 10
0.0
 20
0.0
 11
420.0
 21
297.0
 12
0.0
 22
0.0
 32
0.0
 14
1e+20
 24
1e+20
 34
1e+20
 15
-1e+20
 25
-1e+20
 35
-1e+20
146
0.0
 13
0.0
 23
0.0
 33
0.0
 16
1.0
 26
0.0
 36
0.0
 17
0.0
 27
1.0
 37
0.0
 76
1
330
17
  0
LAYOUT
  5
1E
330
D
100
AcDbPlotSettings
  1

  4
A3
  6

 40
7.5
 41
20.0
 42
7.5
 43
20.0
 44
420.0
 45
297.0
 46
0.0
 47
0.0
 48
0.0
 49
0.0
140
0.0
141
0.0
142
1.0
143
1.0
 70
0
 72
1
 73
0
 74
5
  7

 75
16
 76
0
 77
2
 78
300
147
1.0
148
0.0
149
0.0
100
AcDbLayout
  1
Layout1
 70
1
 71
1
 10
0.0
 20
0.0
 11
420.0
 21
297.0
 12
0.0
 22
0.0
 32
0.0
 14
1e+20
 24
1e+20
 34
1e+20
 15
-1e+20
 25
-1e+20
 35
-1e+20
146
0.0
 13
0.0
 23
0.0
 33
0.0
 16
1.0
 26
0.0
 36
0.0
 17
0.0
 27
1.0
 37
0.0
 76
1
330
1B
  0
MATERIAL
  5
1F
102
{ACAD_REACTORS
330
E
102
}
330
E
100
AcDbMaterial
  1
ByBlock
  2

 70
0
 40
1.0
 71
1
 41
1.0
 91
-1023410177
 42
1.0
 72
1
  3

 73
1
 74
1
 75
1
 44
0.5
 73
0
 45
1.0
 46
1.0
 77
1
  4

 78
1
 79
1
170
1
 48
1.0
171
1
  6

172
1
173
1
174
1
140
1.0
141
1.0
175
1
  7

176
1
177
1
178
1
143
1.0
179
1
  8

270
1
271
1
272
1
145
1.0
146
1.0
273
1
  9

274
1
275
1
276
1
 42
1.0
 72
1
  3

 73
1
 74
1
 75
1
 94
63
  0
MATERIAL
  5
20
102
{ACAD_REACTORS
330
E
102
}
330
E
100
AcDbMaterial
  1
ByLayer
  2

 70
0
 40
1.0
 71
1
 41
1.0
 91
-1023410177
 42
1.0
 72
1
  3

 73
1
 74
1
 75
1
 44
0.5
 73
0
 45
1.0
 46
1.0
 77
1
  4

 78
1
 79
1
170
1
 48
1.0
171
1
  6

172
1
173
1
174
1
140
1.0
141
1.0
175
1
  7

176
1
177
1
178
1
143
1.0
179
1
  8

270
1
271
1
272
1
145
1.0
146
1.0
273
1
  9

274
1
275
1
276
1
 42
1.0
 72
1
  3

 73
1
 74
1
 75
1
 94
63
  0
MATERIAL
  5
21
102
{ACAD_REACTORS
330
E
102
}
330
E
100
AcDbMaterial
  1
Global
  2

 70
0
 40
1.0
 71
1
 41
1.0
 91
-1023410177
 42
1.0
 72
1
  3

 73
1
 74
1
 75
1
 44
0.5
 73
0
 45
1.0
 46
1.0
 77
1
  4

 78
1
 79
1
170
1
 48
1.0
171
1
  6

172
1
173
1
174
1
140
1.0
141
1.0
175
1
  7

176
1
177
1
178
1
143
1.0
179
1
  8

270
1
271
1
272
1
145
1.0
146
1.0
273
1
  9

274
1
275
1
276
1
 42
1.0
 72
1
  3

 73
1
 74
1
 75
1
 94
63
  0
MLINESTYLE
  5
22
102
{ACAD_REACTORS
330
10
102
}
330
10
100
AcDbMlineStyle
  2
Standard
 70
0
  3

 62
256
 51
90.0
 52
90.0
 71
2
 49
0.5
 62
256
  6
BYLAYER
 49
-0.5
 62
256
  6
BYLAYER
  0
MLEADERSTYLE
  5
2C
102
{ACAD_REACTORS
330
F
102
}
330
F
100
AcDbMLeaderStyle
179
2
170
2
171
1
172
0
 90
2
 40
0.0
 41
0.0
173
1
 91
-1056964608
 92
-2
290
1
 42
2.0
291
1
 43
8.0
  3
Standard
 44
4.0
300

342
29
174
1
175
1
176
0
178
1
 93
-1056964608
 45
4.0
292
0
297
0
 46
4.0
 94
-1056964608
 47
1.0
 49
1.0
140
1.0
294
1
141
0.0
177
0
142
1.0
295
0
296
0
143
3.75
271
0
272
9
273
9
  0
DICTIONARY
  5
2D
330
A
100
AcDbDictionary
280
1
281
1
  3
CREATED_BY_EZDXF
350
2E
  3
WRITTEN_BY_EZDXF
350
1C9
  0
DICTIONARYVAR
  5
2E
330
2D
100
DictionaryVariables
280
0
  1
1.4.4 @ 2026-09-09T16:44:04.561975+00:00
  0
VISUALSTYLE
  5
5A
102
{ACAD_REACTORS
330
16
102
}
330
16
100
AcDbVisualStyle
  2
2dWireframe
 70
4
 90
0
 40
0.6
 62
7
290
0
291
0
  0
VISUALSTYLE
  5
5B
102
{ACAD_REACTORS
330
16
102
}
330
16
100
AcDbVisualStyle
  2
Basic
 70
7
 90
1
 40
0.6
 62
7
290
0
291
1
  0
VISUALSTYLE
  5
5C
102
{ACAD_REACTORS
330
16
102
}
330
16
100
AcDbVisualStyle
  2
Brighten
 70
12
 90
2
 40
0.6
 62
7
290
0
291
1
  0
VISUALSTYLE
  5
5D
102
{ACAD_REACTORS
330
16
102
}
330
16
100
AcDbVisualStyle
  2
ColorChange
 70
16
 90
2
 40
0.6
 62
8
290
0
291
1
  0
VISUALSTYLE
  5
5E
102
{ACAD_REACTORS
330
16
102
}
330
16
100
AcDbVisualStyle
  2
Conceptual
 70
9
 90
3
 40
0.6
 62
7
290
0
291
0
  0
VISUALSTYLE
  5
5F
102
{ACAD_REACTORS
330
16
102
}
330
16
100
AcDbVisualStyle
  2
Dim
 70
11
 90
2
 40
0.6
 62
7
290
0
291
1
  0
VISUALSTYLE
  5
60
102
{ACAD_REACTORS
330
16
102
}
330
16
100
AcDbVisualStyle
  2
EdgeColorOff
 70
22
 90
2
 40
0.6
 62
7
290
0
291
1
  0
VISUALSTYLE
  5
61
102
{ACAD_REACTORS
330
16
102
}
330
16
100
AcDbVisualStyle
  2
Facepattern
 70
15
 90
2
 40
0.6
 62
7
290
0
291
1
  0
VISUALSTYLE
  5
62
102
{ACAD_REACTORS
330
16
102
}
330
16
100
AcDbVisualStyle
  2
Flat
 70
0
 90
2
 40
0.6
 62
7
290
0
291
1
  0
VISUALSTYLE
  5
63
102
{ACAD_REACTORS
330
16
102
}
330
16
100
AcDbVisualStyle
  2
FlatWithEdges
 70
1
 90
2
 40
0.6
 62
7
290
0
291
1
  0
VISUALSTYLE
  5
64
102
{ACAD_REACTORS
330
16
102
}
330
16
100
AcDbVisualStyle
  2
Gouraud
 70
2
 90
2
 40
0.6
 62
7
290
0
291
1
  0
VISUALSTYLE
  5
65
102
{ACAD_REACTORS
330
16
102
}
330
16
100
AcDbVisualStyle
  2
GouraudWithEdges
 70
3
 90
2
 40
0.6
 62
7
290
0
291
1
  0
VISUALSTYLE
  5
66
102
{ACAD_REACTORS
330
16
102
}
330
16
100
AcDbVisualStyle
  2
Hidden
 70
6
 90
1
 40
0.6
 62
7
290
0
291
0
  0
VISUALSTYLE
  5
67
102
{ACAD_REACTORS
330
16
102
}
330
16
100
AcDbVisualStyle
  2
JitterOff
 70
20
 90
2
 40
0.6
 62
7
290
0
291
1
  0
VISUALSTYLE
  5
68
102
{ACAD_REACTORS
330
16
102
}
330
16
100
AcDbVisualStyle
  2
Linepattern
 70
14
 90
2
 40
0.6
 62
7
290
0
291
1
  0
VISUALSTYLE
  5
69
102
{ACAD_REACTORS
330
16
102
}
330
16
100
AcDbVisualStyle
  2
Modeling
 70
10
 90
2
 40
0.6
 62
7
290
0
291
0
  0
VISUALSTYLE
  5
6A
102
{ACAD_REACTORS
330
16
102
}
330
16
100
AcDbVisualStyle
  2
OverhangOff
 70
21
 90
2
 40
0.6
 62
7
290
0
291
1
  0
VISUALSTYLE
  5
6B
102
{ACAD_REACTORS
330
16
102
}
330
16
100
AcDbVisualStyle
  2
Realistic
 70
8
 90
2
 40
0.6
 62
7
290
0
291
0
  0
VISUALSTYLE
  5
6C
102
{ACAD_REACTORS
330
16
102
}
330
16
100
AcDbVisualStyle
  2
Shaded
 70
27
 90
2
 40
0.6
 62
7
290
0
291
0
  0
VISUALSTYLE
  5
6D
102
{ACAD_REACTORS
330
16
102
}
330
16
100
AcDbVisualStyle
  2
Shaded with edges
 70
26
 90
2
 40
0.6
 62
7
290
0
291
0
  0
VISUALSTYLE
  5
6E
102
{ACAD_REACTORS
330
16
102
}
330
16
100
AcDbVisualStyle
  2
Shades of Gray
 70
23
 90
2
 40
0.6
 62
7
290
0
291
0
  0
VISUALSTYLE
  5
6F
102
{ACAD_REACTORS
330
16
102
}
330
16
100
AcDbVisualStyle
  2
Sketchy
 70
24
 90
1
 40
0.6
 62
7
290
0
291
0
  0
VISUALSTYLE
  5
70
102
{ACAD_REACTORS
330
16
102
}
330
16
100
AcDbVisualStyle
  2
Thicken
 70
13
 90
2
 40
0.6
 62
7
290
0
291
1
  0
VISUALSTYLE
  5
71
102
{ACAD_REACTORS
330
16
102
}
330
16
100
AcDbVisualStyle
  2
Wireframe
 70
5
 90
0
 40
0.6
 62
7
290
0
291
0
  0
VISUALSTYLE
  5
72
102
{ACAD_REACTORS
330
16
102
}
330
16
100
AcDbVisualStyle
  2
X-Ray
 70
25
 90
2
 40
0.5
 62
7
290
0
291
0
  0
DICTIONARYVAR
  5
1C9
330
2D
100
DictionaryVariables
280
0
  1
1.4.4 @ 2026-09-09T16:44:04.576135+00:00
  0
ENDSEC
  0
EOF
