  0
SECTION
  2
HEADER
  9
$ACADVER
  1
AC1024
  9
$ACADMAINTVER
 70
6
  9
$DWGCODEPAGE
  3
ANSI_1252
  9
$LASTSAVEDBY
  1
ezdxf
  9
$INSBASE
 10
0.0
 20
0.0
 30
0.0
  9
$EXTMIN
 10
1e+20
 20
1e+20
 30
1e+20
  9
$EXTMAX
 10
-1e+20
 20
-1e+20
 30
-1e+20
  9
$LIMMIN
 10
0.0
 20
0.0
  9
$LIMMAX
 10
420.0
 20
297.0
  9
$ORTHOMODE
 70
0
  9
$REGENMODE
 70
1
  9
$FILLMODE
 70
1
  9
$QTEXTMODE
 70
0
  9
$MIRRTEXT
 70
1
  9
$LTSCALE
 40
1.0
  9
$ATTMODE
 70
1
  9
$TEXTSIZE
 40
2.5
  9
$TRACEWID
 40
1.0
  9
$TEXTSTYLE
  7
OpenSans
  9
$CLAYER
  8
0
  9
$CELTYPE
  6
ByLayer
  9
$CECOLOR
 62
256
  9
$CELTSCALE
 40
1.0
  9
$DISPSILH
 70
0
  9
$DIMSCALE
 40
1.0
  9
$DIMASZ
 40
0.175
  9
$DIMEXO
 40
0.125
  9
$DIMDLI
 40
3.75
  9
$DIMRND
 40
0.0
  9
$DIMDLE
 40
0.0
  9
$DIMEXE
 40
0.375
  9
$DIMTP
 40
0.0
  9
$DIMTM
 40
0.0
  9
$DIMTXT
 40
0.25
  9
$DIMCEN
 40
2.5
  9
$DIMTSZ
 40
0.0
  9
$DIMTOL
 70
0
  9
$DIMLIM
 70
0
  9
$DIMTIH
 70
0
  9
$DIMTOH
 70
0
  9
$DIMSE1
 70
0
  9
$DIMSE2
 70
0
  9
$DIMTAD
 70
1
  9
$DIMZIN
 70
12
  9
$DIMBLK
  1
ARCHTICK
  9
$DIMASO
 70
1
  9
$DIMSHO
 70
1
  9
$DIMPOST
  1

  9
$DIMAPOST
  1

  9
$DIMALT
 70
0
  9
$DIMALTD
 70
3
  9
$DIMALTF
 40
0.03937007874
  9
$DIMLFAC
 40
100.0
  9
$DIMTOFL
 70
1
  9
$DIMTVP
 40
0.0
  9
$DIMTIX
 70
0
  9
$DIMSOXD
 70
0
  9
$DIMSAH
 70
0
  9
$DIMBLK1
  1

  9
$DIMBLK2
  1

  9
$DIMSTYLE
  2
EZDXF
  9
$DIMCLRD
 70
0
  9
$DIMCLRE
 70
0
  9
$DIMCLRT
 70
0
  9
$DIMTFAC
 40
0.5
  9
$DIMGAP
 40
0.1
  9
$DIMJUST
 70
0
  9
$DIMSD1
 70
0
  9
$DIMSD2
 70
0
  9
$DIMTOLJ
 70
0
  9
$DIMTZIN
 70
8
  9
$DIMALTZ
 70
0
  9
$DIMALTTZ
 70
0
  9
$DIMUPT
 70
1
  9
$DIMDEC
 70
2
  9
$DIMTDEC
 70
2
  9
$DIMALTU
 70
2
  9
$DIMALTTD
 70
3
  9
$DIMTXSTY
  7
OpenSansCondensed-Light
  9
$DIMAUNIT
 70
0
  9
$DIMADEC
 70
2
  9
$DIMALTRND
 40
0.0
  9
$DIMAZIN
 70
3
  9
$DIMDSEP
 70
46
  9
$DIMATFIT
 70
3
  9
$DIMFRAC
 70
0
  9
$DIMLDRBLK
  1

  9
$DIMLUNIT
 70
2
  9
$DIMLWD
 70
-2
  9
$DIMLWE
 70
-2
  9
$DIMTMOVE
 70
2
  9
$DIMFXL
 40
1.0
  9
$DIMFXLON
 70
0
  9
$DIMJOGANG
 40
0.785398163397
  9
$DIMTFILL
 70
0
  9
$DIMTFILLCLR
 70
0
  9
$DIMARCSYM
 70
0
  9
$DIMLTYPE
  6

  9
$DIMLTEX1
  6

  9
$DIMLTEX2
  6

  9
$DIMTXTDIRECTION
 70
0
  9
$LUNITS
 70
2
  9
$LUPREC
 70
4
  9
$SKETCHINC
 40
1.0
  9
$FILLETRAD
 40
10.0
  9
$AUNITS
 70
0
  9
$AUPREC
 70
2
  9
$MENU
  1
.
  9
$ELEVATION
 40
0.0
  9
$PELEVATION
 40
0.0
  9
$THICKNESS
 40
0.0
  9
$LIMCHECK
 70
0
  9
$CHAMFERA
 40
0.0
  9
$CHAMFERB
 40
0.0
  9
$CHAMFERC
 40
0.0
  9
$CHAMFERD
 40
0.0
  9
$SKPOLY
 70
0
  9
$TDCREATE
 40
2461293.697349537
  9
$TDUCREATE
 40
2458532.153996898
  9
$TDUPDATE
 40
2461293.697349537
  9
$TDUUPDATE
 40
2458532.1544311
  9
$TDINDWG
 40
0.0
  9
$TDUSRTIMER
 40
0.0
  9
$USRTIMER
 70
1
  9
$ANGBASE
 50
0.0
  9
$ANGDIR
 70
0
  9
$PDMODE
 70
0
  9
$PDSIZE
 40
0.0
  9
$PLINEWID
 40
0.0
  9
$SPLFRAME
 70
0
  9
$SPLINETYPE
 70
6
  9
$SPLINESEGS
 70
8
  9
$HANDSEED
  5
387
  9
$SURFTAB1
 70
6
  9
$SURFTAB2
 70
6
  9
$SURFTYPE
 70
6
  9
$SURFU
 70
6
  9
$SURFV
 70
6
  9
$UCSBASE
  2

  9
$UCSNAME
  2

  9
$UCSORG
 10
0.0
 20
0.0
 30
0.0
  9
$UCSXDIR
 10
1.0
 20
0.0
 30
0.0
  9
$UCSYDIR
 10
0.0
 20
1.0
 30
0.0
  9
$UCSORTHOREF
  2

  9
$UCSORTHOVIEW
 70
0
  9
$UCSORGTOP
 10
0.0
 20
0.0
 30
0.0
  9
$UCSORGBOTTOM
 10
0.0
 20
0.0
 30
0.0
  9
$UCSORGLEFT
 10
0.0
 20
0.0
 30
0.0
  9
$UCSORGRIGHT
 10
0.0
 20
0.0
 30
0.0
  9
$UCSORGFRONT
 10
0.0
 20
0.0
 30
0.0
  9
$UCSORGBACK
 10
0.0
 20
0.0
 30
0.0
  9
$PUCSBASE
  2

  9
$PUCSNAME
  2

  9
$PUCSORG
 10
0.0
 20
0.0
 30
0.0
  9
$PUCSXDIR
 10
1.0
 20
0.0
 30
0.0
  9
$PUCSYDIR
 10
0.0
 20
1.0
 30
0.0
  9
$PUCSORTHOREF
  2

  9
$PUCSORTHOVIEW
 70
0
  9
$PUCSORGTOP
 10
0.0
 20
0.0
 30
0.0
  9
$PUCSORGBOTTOM
 10
0.0
 20
0.0
 30
0.0
  9
$PUCSORGLEFT
 10
0.0
 20
0.0
 30
0.0
  9
$PUCSORGRIGHT
 10
0.0
 20
0.0
 30
0.0
  9
$PUCSORGFRONT
 10
0.0
 20
0.0
 30
0.0
  9
$PUCSORGBACK
 10
0.0
 20
0.0
 30
0.0
  9
$USERI1
 70
0
  9
$USERI2
 70
0
  9
$USERI3
 70
0
  9
$USERI4
 70
0
  9
$USERI5
 70
0
  9
$USERR1
 40
0.0
  9
$USERR2
 40
0.0
  9
$USERR3
 40
0.0
  9
$USERR4
 40
0.0
  9
$USERR5
 40
0.0
  9
$WORLDVIEW
 70
1
  9
$SHADEDGE
 70
3
  9
$SHADEDIF
 70
70
  9
$TILEMODE
 70
1
  9
$MAXACTVP
 70
64
  9
$PINSBASE
 10
0.0
 20
0.0
 30
0.0
  9
$PLIMCHECK
 70
0
  9
$PEXTMIN
 10
1e+20
 20
1e+20
 30
1e+20
  9
$PEXTMAX
 10
-1e+20
 20
-1e+20
 30
-1e+20
  9
$PLIMMIN
 10
0.0
 20
0.0
  9
$PLIMMAX
 10
420.0
 20
297.0
  9
$UNITMODE
 70
0
  9
$VISRETAIN
 70
1
  9
$PLINEGEN
 70
0
  9
$PSLTSCALE
 70
1
  9
$TREEDEPTH
 70
3020
  9
$CMLSTYLE
  2
Standard
  9
$CMLJUST
 70
0
  9
$CMLSCALE
 40
20.0
  9
$PROXYGRAPHICS
 70
1
  9
$MEASUREMENT
 70
1
  9
$CELWEIGHT
370
-1
  9
$ENDCAPS
280
0
  9
$JOINSTYLE
280
0
  9
$LWDISPLAY
290
0
  9
$INSUNITS
 70
4
  9
$HYPERLINKBASE
  1

  9
$STYLESHEET
  1

  9
$XEDIT
290
1
  9
$CEPSNTYPE
380
0
  9
$PSTYLEMODE
290
1
  9
$FINGERPRINTGUID
  2
{0FA08808-08EC-4AE5-A1BA-2CF2107801CC}
  9
$VERSIONGUID
  2
{E3A59F19-F36B-4F23-9478-DC8C1610A34C}
  9
$EXTNAMES
290
1
  9
$PSVPSCALE
 40
0.0
  9
$OLESTARTUP
290
0
  9
$SORTENTS
280
127
  9
$INDEXCTL
280
0
  9
$HIDETEXT
280
1
  9
$XCLIPFRAME
280
1
  9
$HALOGAP
280
0
  9
$OBSCOLOR
 70
257
  9
$OBSLTYPE
280
0
  9
$INTERSECTIONDISPLAY
280
0
  9
$INTERSECTIONCOLOR
 70
257
  9
$DIMASSOC
280
2
  9
$PROJECTNAME
  1

  9
$CAMERADISPLAY
290
0
  9
$LENSLENGTH
 40
50.0
  9
$CAMERAHEIGHT
 40
0.0
  9
$STEPSPERSEC
 40
24.0
  9
$STEPSIZE
 40
100.0
  9
$3DDWFPREC
 40
2.0
  9
$PSOLWIDTH
 40
0.005
  9
$PSOLHEIGHT
 40
0.08
  9
$LOFTANG1
 40
1.570796326795
  9
$LOFTANG2
 40
1.570796326795
  9
$LOFTMAG1
 40
0.0
  9
$LOFTMAG2
 40
0.0
  9
$LOFTPARAM
 70
7
  9
$LOFTNORMALS
280
1
  9
$LATITUDE
 40
37.795
  9
$LONGITUDE
 40
-122.394
  9
$NORTHDIRECTION
 40
0.0
  9
$TIMEZONE
 70
-8000
  9
$LIGHTGLYPHDISPLAY
280
1
  9
$TILEMODELIGHTSYNCH
280
1
  9
$CMATERIAL
347
20
  9
$SOLIDHIST
280
0
  9
$SHOWHIST
280
1
  9
$DWFFRAME
280
2
  9
$DGNFRAME
280
2
  9
$REALWORLDSCALE
290
1
  9
$INTERFERECOLOR
 62
256
  9
$CSHADOW
280
0
  9
$SHADOWPLANELOCATION
 40
0.0
  0
ENDSEC
  0
SECTION
  2
CLASSES
  0
CLASS
  1
ACDBDICTIONARYWDFLT
  2
AcDbDictionaryWithDefault
  3
ObjectDBX Classes
 90
0
 91
0
280
0
281
0
  0
CLASS
  1
SUN
  2
AcDbSun
  3
SCENEOE
 90
1153
 91
0
280
0
281
0
  0
CLASS
  1
VISUALSTYLE
  2
AcDbVisualStyle
  3
ObjectDBX Classes
 90
4095
 91
0
280
0
281
0
  0
CLASS
  1
MATERIAL
  2
AcDbMaterial
  3
ObjectDBX Classes
 90
1153
 91
0
280
0
281
0
  0
CLASS
  1
SCALE
  2
AcDbScale
  3
ObjectDBX Classes
 90
1153
 91
0
280
0
281
0
  0
CLASS
  1
TABLESTYLE
  2
AcDbTableStyle
  3
ObjectDBX Classes
 90
4095
 91
0
280
0
281
0
  0
CLASS
  1
MLEADERSTYLE
  2
AcDbMLeaderStyle
  3
ACDB_MLEADERSTYLE_CLASS
 90
4095
 91
0
280
0
281
0
  0
CLASS
  1
DICTIONARYVAR
  2
AcDbDictionaryVar
  3
ObjectDBX Classes
 90
0
 91
0
280
0
281
0
  0
CLASS
  1
CELLSTYLEMAP
  2
AcDbCellStyleMap
  3
ObjectDBX Classes
 90
1152
 91
0
280
0
281
0
  0
CLASS
  1
MENTALRAYRENDERSETTINGS
  2
AcDbMentalRayRenderSettings
  3
SCENEOE
 90
1024
 91
0
280
0
281
0
  0
CLASS
  1
ACDBDETAILVIEWSTYLE
  2
AcDbDetailViewStyle
  3
ObjectDBX Classes
 90
1025
 91
0
280
0
281
0
  0
CLASS
  1
ACDBSECTIONVIEWSTYLE
  2
AcDbSectionViewStyle
  3
ObjectDBX Classes
 90
1025
 91
0
280
0
281
0
  0
CLASS
  1
RASTERVARIABLES
  2
AcDbRasterVariables
  3
ISM
 90
0
 91
0
280
0
281
0
  0
CLASS
  1
LAYOUT
  2
AcDbLayout
  3
ObjectDBX Classes
 90
0
 91
0
280
0
281
0
  0
CLASS
  1
ACDBPLACEHOLDER
  2
AcDbPlaceHolder
  3
ObjectDBX Classes
 90
0
 91
0
280
0
281
0
  0
ENDSEC
  0
SECTION
  2
TABLES
  0
TABLE
  2
VPORT
  5
8
330
0
100
AcDbSymbolTable
 70
1
  0
VPORT
  5
23
330
8
100
AcDbSymbolTableRecord
100
AcDbViewportTableRecord
  2
*Active
 70
0
 10
0.0
 20
0.0
 11
1.0
 21
1.0
 12
0.0
 22
0.0
 13
0.0
 23
0.0
 14
0.5
 24
0.5
 15
0.5
 25
0.5
 16
0.0
 26
0.0
 36
1.0
 17
0.0
 27
0.0
 37
0.0
 40
1000.0
 41
1.34
 42
50.0
 43
0.0
 44
0.0
 50
0.0
 51
0.0
 71
0
 72
1000
 73
1
 74
3
 75
0
 76
0
 77
0
 78
0
281
0
 65
0
146
0.0
  0
ENDTAB
  0
TABLE
  2
LTYPE
  5
2
330
0
100
AcDbSymbolTable
 70
21
  0
LTYPE
  5
24
330
2
100
AcDbSymbolTableRecord
100
AcDbLinetypeTableRecord
  2
ByBlock
 70
0
  3

 72
65
 73
0
 40
0.0
  0
LTYPE
  5
25
330
2
100
AcDbSymbolTableRecord
100
AcDbLinetypeTableRecord
  2
ByLayer
 70
0
  3

 72
65
 73
0
 40
0.0
  0
LTYPE
  5
26
330
2
100
AcDbSymbolTableRecord
100
AcDbLinetypeTableRecord
  2
Continuous
 70
0
  3

 72
65
 73
0
 40
0.0
  0
LTYPE
  5
2F
330
2
100
AcDbSymbolTableRecord
100
AcDbLinetypeTableRecord
  2
CENTER
 70
0
  3
Center ____ _ ____ _ ____ _ ____ _ ____ _ ____
 72
65
 73
4
 40
5.08
 49
3.175
 74
0
 49
-0.635
 74
0
 49
0.635
 74
0
 49
-0.635
 74
0
  0
LTYPE
  5
30
330
2
100
AcDbSymbolTableRecord
100
AcDbLinetypeTableRecord
  2
CENTERX2
 70
0
  3
Center (2x) ________  __  ________  __  ________
 72
65
 73
4
 40
8.89
 49
6.35
 74
0
 49
-0.635
 74
0
 49
1.27
 74
0
 49
-0.635
 74
0
  0
LTYPE
  5
31
330
2
100
AcDbSymbolTableRecord
100
AcDbLinetypeTableRecord
  2
CENTER2
 70
0
  3
Center (.5x) ____ _ ____ _ ____ _ ____ _ ____
 72
65
 73
4
 40
2.54
 49
1.587
 74
0
 49
-0.318
 74
0
 49
0.318
 74
0
 49
-0.318
 74
0
  0
LTYPE
  5
32
330
2
100
AcDbSymbolTableRecord
100
AcDbLinetypeTableRecord
  2
DASHED
 70
0
  3
Dashed __ __ __ __ __ __ __ __ __ __ __ __ __ _
 72
65
 73
2
 40
1.524
 49
1.27
 74
0
 49
-0.254
 74
0
  0
LTYPE
  5
33
330
2
100
AcDbSymbolTableRecord
100
AcDbLinetypeTableRecord
  2
DASHEDX2
 70
0
  3
Dashed (2x) ____  ____  ____  ____  ____  ____
 72
65
 73
2
 40
3.048
 49
2.54
 74
0
 49
-0.508
 74
0
  0
LTYPE
  5
34
330
2
100
AcDbSymbolTableRecord
100
AcDbLinetypeTableRecord
  2
DASHED2
 70
0
  3
Dashed (.5x) _ _ _ _ _ _ _ _ _ _ _ _ _ _
 72
65
 73
2
 40
0.762
 49
0.635
 74
0
 49
-0.127
 74
0
  0
LTYPE
  5
35
330
2
100
AcDbSymbolTableRecord
100
AcDbLinetypeTableRecord
  2
PHANTOM
 70
0
  3
Phantom ______  __  __  ______  __  __  ______
 72
65
 73
6
 40
6.35
 49
3.175
 74
0
 49
-0.635
 74
0
 49
0.635
 74
0
 49
-0.635
 74
0
 49
0.635
 74
0
 49
-0.635
 74
0
  0
LTYPE
  5
36
330
2
100
AcDbSymbolTableRecord
100
AcDbLinetypeTableRecord
  2
PHANTOMX2
 70
0
  3
Phantom (2x)____________    ____    ____    ____________
 72
65
 73
6
 40
10.795
 49
6.35
 74
0
 49
-0.635
 74
0
 49
1.27
 74
0
 49
-0.635
 74
0
 49
1.27
 74
0
 49
-0.635
 74
0
  0
LTYPE
  5
37
330
2
100
AcDbSymbolTableRecord
100
AcDbLinetypeTableRecord
  2
PHANTOM2
 70
0
  3
Phantom (.5x) ___ _ _ ___ _ _ ___ _ _ ___ _ _ ___
 72
65
 73
6
 40
3.175
 49
1.587
 74
0
 49
-0.318
 74
0
 49
0.318
 74
0
 49
-0.318
 74
0
 49
0.318
 74
0
 49
-0.318
 74
0
  0
LTYPE
  5
38
330
2
100
AcDbSymbolTableRecord
100
AcDbLinetypeTableRecord
  2
DASHDOT
 70
0
  3
Dash dot __ . __ . __ . __ . __ . __ . __ . __
 72
65
 73
4
 40
3.556
 49
2.54
 74
0
 49
-0.508
 74
0
 49
0.0
 74
0
 49
-0.508
 74
0
  0
LTYPE
  5
39
330
2
100
AcDbSymbolTableRecord
100
AcDbLinetypeTableRecord
  2
DASHDOTX2
 70
0
  3
Dash dot (2x) ____  .  ____  .  ____  .  ____
 72
65
 73
4
 40
6.096
 49
5.08
 74
0
 49
-0.508
 74
0
 49
0.0
 74
0
 49
-0.508
 74
0
  0
LTYPE
  5
3A
330
2
100
AcDbSymbolTableRecord
100
AcDbLinetypeTableRecord
  2
DASHDOT2
 70
0
  3
Dash dot (.5x) _ . _ . _ . _ . _ . _ . _ . _
 72
65
 73
4
 40
1.778
 49
1.27
 74
0
 49
-0.254
 74
0
 49
0.0
 74
0
 49
-0.254
 74
0
  0
LTYPE
  5
3B
330
2
100
AcDbSymbolTableRecord
100
AcDbLinetypeTableRecord
  2
DOT
 70
0
  3
Dot .  .  .  .  .  .  .  .  .  .  .  .  .  .  .  .
 72
65
 73
2
 40
0.508
 49
0.0
 74
0
 49
-0.508
 74
0
  0
LTYPE
  5
3C
330
2
100
AcDbSymbolTableRecord
100
AcDbLinetypeTableRecord
  2
DOTX2
 70
0
  3
Dot (2x) .    .    .    .    .    .    .    . 
 72
65
 73
2
 40
1.016
 49
0.0
 74
0
 49
-1.016
 74
0
  0
LTYPE
  5
3D
330
2
100
AcDbSymbolTableRecord
100
AcDbLinetypeTableRecord
  2
DOT2
 70
0
  3
Dot (.5) . . . . . . . . . . . . . . . . . . . 
 72
65
 73
2
 40
0.254
 49
0.0
 74
0
 49
-0.254
 74
0
  0
LTYPE
  5
3E
330
2
100
AcDbSymbolTableRecord
100
AcDbLinetypeTableRecord
  2
DIVIDE
 70
0
  3
Divide __ . . __ . . __ . . __ . . __ . . __
 72
65
 73
6
 40
4.064
 49
2.54
 74
0
 49
-0.508
 74
0
 49
0.0
 74
0
 49
-0.508
 74
0
 49
0.0
 74
0
 49
-0.508
 74
0
  0
LTYPE
  5
3F
330
2
100
AcDbSymbolTableRecord
100
AcDbLinetypeTableRecord
  2
DIVIDEX2
 70
0
  3
Divide (2x) ____  . .  ____  . .  ____  . .  ____
 72
65
 73
6
 40
6.604
 49
5.08
 74
0
 49
-0.508
 74
0
 49
0.0
 74
0
 49
-0.508
 74
0
 49
0.0
 74
0
 49
-0.508
 74
0
  0
LTYPE
  5
40
330
2
100
AcDbSymbolTableRecord
100
AcDbLinetypeTableRecord
  2
DIVIDE2
 70
0
  3
Divide(.5x) _ . _ . _ . _ . _ . _ . _ . _
 72
65
 73
6
 40
2.032
 49
1.27
 74
0
 49
-0.254
 74
0
 49
0.0
 74
0
 49
-0.254
 74
0
 49
0.0
 74
0
 49
-0.254
 74
0
  0
ENDTAB
  0
TABLE
  2
LAYER
  5
1
330
0
100
AcDbSymbolTable
 70
65
  0
LAYER
  5
27
330
1
100
AcDbSymbolTableRecord
100
AcDbLayerTableRecord
  2
0
 70
0
 62
7
  6
Continuous
370
-3
390
13
347
21
  0
LAYER
  5
28
330
1
100
AcDbSymbolTableRecord
100
AcDbLayerTableRecord
  2
Defpoints
 70
0
 62
7
  6
Continuous
290
0
370
-3
390
13
347
21
  0
LAYER
  5
8A
330
1
100
AcDbSymbolTableRecord
100
AcDbLayerTableRecord
  2
S-CONCRETE
 70
0
 62
7
  6
Continuous
370
-3
390
13
347
21
1001
AcAecLayerStandard
1000

1000
Structural concrete outlines (cut)
  0
LAYER
  5
8C
330
1
100
AcDbSymbolTableRecord
100
AcDbLayerTableRecord
  2
S-CONCRETE-THIN
 70
0
 62
7
  6
Continuous
370
-3
390
13
347
21
1001
AcAecLayerStandard
1000

1000
Concrete beyond the cut plane
  0
LAYER
  5
8D
330
1
100
AcDbSymbolTableRecord
100
AcDbLayerTableRecord
  2
S-HIDDEN
 70
0
 62
8
  6
Continuous
370
-3
390
13
347
21
1001
AcAecLayerStandard
1000

1000
Concrete / features beyond, hidden
  0
LAYER
  5
8E
330
1
100
AcDbSymbolTableRecord
100
AcDbLayerTableRecord
  2
S-REBAR-MAIN
 70
0
 62
1
  6
Continuous
370
-3
390
13
347
21
1001
AcAecLayerStandard
1000

1000
Main reinforcement
  0
LAYER
  5
8F
330
1
100
AcDbSymbolTableRecord
100
AcDbLayerTableRecord
  2
S-REBAR-DIST
 70
0
 62
3
  6
Continuous
370
-3
390
13
347
21
1001
AcAecLayerStandard
1000

1000
Distribution reinforcement
  0
LAYER
  5
90
330
1
100
AcDbSymbolTableRecord
100
AcDbLayerTableRecord
  2
S-REBAR-STIRRUP
 70
0
 62
6
  6
Continuous
370
-3
390
13
347
21
1001
AcAecLayerStandard
1000

1000
Links and stirrups
  0
LAYER
  5
91
330
1
100
AcDbSymbolTableRecord
100
AcDbLayerTableRecord
  2
S-REBAR-TIE
 70
0
 62
6
  6
Continuous
370
-3
390
13
347
21
1001
AcAecLayerStandard
1000

1000
Ties, cross-ties, starters
  0
LAYER
  5
92
330
1
100
AcDbSymbolTableRecord
100
AcDbLayerTableRecord
  2
S-REBAR-SEC
 70
0
 62
4
  6
Continuous
370
-3
390
13
347
21
1001
AcAecLayerStandard
1000

1000
Trimmers, secondary and additional bars
  0
LAYER
  5
93
330
1
100
AcDbSymbolTableRecord
100
AcDbLayerTableRecord
  2
S-DIM
 70
0
 62
4
  6
Continuous
370
-3
390
13
347
21
1001
AcAecLayerStandard
1000

1000
Dimensions
  0
LAYER
  5
94
330
1
100
AcDbSymbolTableRecord
100
AcDbLayerTableRecord
  2
S-TEXT
 70
0
 62
7
  6
Continuous
370
-3
390
13
347
21
1001
AcAecLayerStandard
1000

1000
General annotation
  0
LAYER
  5
95
330
1
100
AcDbSymbolTableRecord
100
AcDbLayerTableRecord
  2
S-NOTE
 70
0
 62
7
  6
Continuous
370
-3
390
13
347
21
1001
AcAecLayerStandard
1000

1000
Note panels
  0
LAYER
  5
96
330
1
100
AcDbSymbolTableRecord
100
AcDbLayerTableRecord
  2
S-CALLOUT
 70
0
 62
2
  6
Continuous
370
-3
390
13
347
21
1001
AcAecLayerStandard
1000

1000
Bar-mark balloons and leaders
  0
LAYER
  5
97
330
1
100
AcDbSymbolTableRecord
100
AcDbLayerTableRecord
  2
S-SECTION
 70
0
 62
1
  6
Continuous
370
-3
390
13
347
21
1001
AcAecLayerStandard
1000

1000
Section and detail markers
  0
LAYER
  5
98
330
1
100
AcDbSymbolTableRecord
100
AcDbLayerTableRecord
  2
S-GRID
 70
0
 62
5
  6
Continuous
370
-3
390
13
347
21
1001
AcAecLayerStandard
1000

1000
Grid lines and bubbles
  0
LAYER
  5
99
330
1
100
AcDbSymbolTableRecord
100
AcDbLayerTableRecord
  2
S-CENTER
 70
0
 62
6
  6
Continuous
370
-3
390
13
347
21
1001
AcAecLayerStandard
1000

1000
Centrelines
  0
LAYER
  5
9A
330
1
100
AcDbSymbolTableRecord
100
AcDbLayerTableRecord
  2
S-HATCH
 70
0
 62
8
  6
Continuous
370
-3
390
13
347
21
1001
AcAecLayerStandard
1000

1000
Section hatch
  0
LAYER
  5
9B
330
1
100
AcDbSymbolTableRecord
100
AcDbLayerTableRecord
  2
S-TITLE
 70
0
 62
7
  6
Continuous
370
-3
390
13
347
21
1001
AcAecLayerStandard
1000

1000
Border, title block, view titles
  0
LAYER
  5
9C
330
1
100
AcDbSymbolTableRecord
100
AcDbLayerTableRecord
  2
S-EXISTING
 70
0
 62
8
  6
Continuous
370
-3
390
13
347
21
1001
AcAecLayerStandard
1000

1000
Soil, rock, berm, cover layers
  0
LAYER
  5
9D
330
1
100
AcDbSymbolTableRecord
100
AcDbLayerTableRecord
  2
S-REFERENCE
 70
0
 62
8
  6
Continuous
370
-3
390
13
347
21
1001
AcAecLayerStandard
1000

1000
Reference geometry, extents
  0
LAYER
  5
9E
330
1
100
AcDbSymbolTableRecord
100
AcDbLayerTableRecord
  2
S-WATERPROOF
 70
0
 62
30
  6
Continuous
370
-3
390
13
347
21
1001
AcAecLayerStandard
1000

1000
Membranes, waterstops, GWT
  0
LAYER
  5
9F
330
1
100
AcDbSymbolTableRecord
100
AcDbLayerTableRecord
  2
S-STEELWORK
 70
0
 62
2
  6
Continuous
370
-3
390
13
347
21
1001
AcAecLayerStandard
1000

1000
Cast-in frames, EMP straps, steel items
  0
LAYER
  5
A0
330
1
100
AcDbSymbolTableRecord
100
AcDbLayerTableRecord
  2
S-LEVEL
 70
0
 62
4
  6
Continuous
370
-3
390
13
347
21
1001
AcAecLayerStandard
1000

1000
Level markers
  0
LAYER
  5
A1
330
1
100
AcDbSymbolTableRecord
100
AcDbLayerTableRecord
  2
S-TABLE
 70
0
 62
7
  6
Continuous
370
-3
390
13
347
21
1001
AcAecLayerStandard
1000

1000
Tables and schedules
  0
LAYER
  5
A2
330
1
100
AcDbSymbolTableRecord
100
AcDbLayerTableRecord
  2
S-BLAST
 70
0
 62
1
  6
Continuous
370
-3
390
13
347
21
1001
AcAecLayerStandard
1000

1000
Blast arrows, findings, warnings
  0
LAYER
  5
B9
330
1
100
AcDbSymbolTableRecord
100
AcDbLayerTableRecord
  2
M-ARCH
 70
0
 62
8
  6
Continuous
370
-3
390
13
347
21
1001
AcAecLayerStandard
1000

1000
Architectural background, walls and slabs
  0
LAYER
  5
BA
330
1
100
AcDbSymbolTableRecord
100
AcDbLayerTableRecord
  2
M-ARCH-HIDDEN
 70
0
 62
8
  6
Continuous
370
-3
390
13
347
21
1001
AcAecLayerStandard
1000

1000
Structure and features beyond
  0
LAYER
  5
BB
330
1
100
AcDbSymbolTableRecord
100
AcDbLayerTableRecord
  2
M-STRUCT
 70
0
 62
7
  6
Continuous
370
-3
390
13
347
21
1001
AcAecLayerStandard
1000

1000
Structure cut by the view
  0
LAYER
  5
BC
330
1
100
AcDbSymbolTableRecord
100
AcDbLayerTableRecord
  2
M-GRID
 70
0
 62
5
  6
Continuous
370
-3
390
13
347
21
1001
AcAecLayerStandard
1000

1000
Grid and bay reference lines
  0
LAYER
  5
BD
330
1
100
AcDbSymbolTableRecord
100
AcDbLayerTableRecord
  2
P-DRAIN-SOIL
 70
0
 62
1
  6
Continuous
370
-3
390
13
347
21
1001
AcAecLayerStandard
1000

1000
Soil drainage - foul
  0
LAYER
  5
BE
330
1
100
AcDbSymbolTableRecord
100
AcDbLayerTableRecord
  2
P-DRAIN-WASTE
 70
0
 62
3
  6
Continuous
370
-3
390
13
347
21
1001
AcAecLayerStandard
1000

1000
Waste drainage - wastewater
  0
LAYER
  5
BF
330
1
100
AcDbSymbolTableRecord
100
AcDbLayerTableRecord
  2
P-DRAIN-STORM
 70
0
 62
5
  6
Continuous
370
-3
390
13
347
21
1001
AcAecLayerStandard
1000

1000
Storm and surface water
  0
LAYER
  5
C0
330
1
100
AcDbSymbolTableRecord
100
AcDbLayerTableRecord
  2
P-DRAIN-SEEP
 70
0
 62
4
  6
Continuous
370
-3
390
13
347
21
1001
AcAecLayerStandard
1000

1000
Groundwater, seepage and subsoil drainage
  0
LAYER
  5
C1
330
1
100
AcDbSymbolTableRecord
100
AcDbLayerTableRecord
  2
P-DRAIN-EFF
 70
0
 62
6
  6
Continuous
370
-3
390
13
347
21
1001
AcAecLayerStandard
1000

1000
Decon effluent - contaminated, segregated
  0
LAYER
  5
C2
330
1
100
AcDbSymbolTableRecord
100
AcDbLayerTableRecord
  2
P-DRAIN-RISING
 70
0
 62
2
  6
Continuous
370
-3
390
13
347
21
1001
AcAecLayerStandard
1000

1000
Pumped rising main
  0
LAYER
  5
C3
330
1
100
AcDbSymbolTableRecord
100
AcDbLayerTableRecord
  2
P-DRAIN-VENT
 70
0
 62
8
  6
Continuous
370
-3
390
13
347
21
1001
AcAecLayerStandard
1000

1000
Drainage ventilation
  0
LAYER
  5
C4
330
1
100
AcDbSymbolTableRecord
100
AcDbLayerTableRecord
  2
P-EQUIP
 70
0
 62
2
  6
Continuous
370
-3
390
13
347
21
1001
AcAecLayerStandard
1000

1000
Pumps, tanks, chambers, plant
  0
LAYER
  5
C5
330
1
100
AcDbSymbolTableRecord
100
AcDbLayerTableRecord
  2
P-FLOW
 70
0
 62
1
  6
Continuous
370
-3
390
13
347
21
1001
AcAecLayerStandard
1000

1000
Flow arrows and direction
  0
LAYER
  5
C6
330
1
100
AcDbSymbolTableRecord
100
AcDbLayerTableRecord
  2
M-DUCT-SUPPLY
 70
0
 62
5
  6
Continuous
370
-3
390
13
347
21
1001
AcAecLayerStandard
1000

1000
Supply air ductwork
  0
LAYER
  5
C7
330
1
100
AcDbSymbolTableRecord
100
AcDbLayerTableRecord
  2
M-DUCT-RETURN
 70
0
 62
3
  6
Continuous
370
-3
390
13
347
21
1001
AcAecLayerStandard
1000

1000
Return air ductwork
  0
LAYER
  5
C8
330
1
100
AcDbSymbolTableRecord
100
AcDbLayerTableRecord
  2
M-DUCT-FRESH
 70
0
 62
4
  6
Continuous
370
-3
390
13
347
21
1001
AcAecLayerStandard
1000

1000
Fresh air ductwork
  0
LAYER
  5
C9
330
1
100
AcDbSymbolTableRecord
100
AcDbLayerTableRecord
  2
M-DUCT-EXH
 70
0
 62
1
  6
Continuous
370
-3
390
13
347
21
1001
AcAecLayerStandard
1000

1000
Exhaust air ductwork
  0
LAYER
  5
CA
330
1
100
AcDbSymbolTableRecord
100
AcDbLayerTableRecord
  2
M-DUCT-CL
 70
0
 62
8
  6
Continuous
370
-3
390
13
347
21
1001
AcAecLayerStandard
1000

1000
Duct centrelines
  0
LAYER
  5
CB
330
1
100
AcDbSymbolTableRecord
100
AcDbLayerTableRecord
  2
M-TERMINAL
 70
0
 62
2
  6
Continuous
370
-3
390
13
347
21
1001
AcAecLayerStandard
1000

1000
Diffusers, grilles and terminals
  0
LAYER
  5
CC
330
1
100
AcDbSymbolTableRecord
100
AcDbLayerTableRecord
  2
M-EQUIP
 70
0
 62
2
  6
Continuous
370
-3
390
13
347
21
1001
AcAecLayerStandard
1000

1000
HVAC plant and equipment
  0
LAYER
  5
CD
330
1
100
AcDbSymbolTableRecord
100
AcDbLayerTableRecord
  2
M-DAMPER
 70
0
 62
6
  6
Continuous
370
-3
390
13
347
21
1001
AcAecLayerStandard
1000

1000
Dampers, valves and isolation devices
  0
LAYER
  5
CE
330
1
100
AcDbSymbolTableRecord
100
AcDbLayerTableRecord
  2
M-AIRFLOW
 70
0
 62
1
  6
Continuous
370
-3
390
13
347
21
1001
AcAecLayerStandard
1000

1000
Airflow arrows and quantities
  0
LAYER
  5
CF
330
1
100
AcDbSymbolTableRecord
100
AcDbLayerTableRecord
  2
A-FIN-FLOOR
 70
0
 62
4
  6
Continuous
370
-3
390
13
347
21
1001
AcAecLayerStandard
1000

1000
Floor finish zones and tags
  0
LAYER
  5
D0
330
1
100
AcDbSymbolTableRecord
100
AcDbLayerTableRecord
  2
A-FIN-WALL
 70
0
 62
3
  6
Continuous
370
-3
390
13
347
21
1001
AcAecLayerStandard
1000

1000
Wall finish zones and tags
  0
LAYER
  5
D1
330
1
100
AcDbSymbolTableRecord
100
AcDbLayerTableRecord
  2
A-FIN-CEIL
 70
0
 62
5
  6
Continuous
370
-3
390
13
347
21
1001
AcAecLayerStandard
1000

1000
Ceiling and soffit finish tags
  0
LAYER
  5
D2
330
1
100
AcDbSymbolTableRecord
100
AcDbLayerTableRecord
  2
A-FIN-WET
 70
0
 62
30
  6
Continuous
370
-3
390
13
347
21
1001
AcAecLayerStandard
1000

1000
Wet areas, tanking and falls
  0
LAYER
  5
D3
330
1
100
AcDbSymbolTableRecord
100
AcDbLayerTableRecord
  2
A-FIN-TAG
 70
0
 62
7
  6
Continuous
370
-3
390
13
347
21
1001
AcAecLayerStandard
1000

1000
Finish tag boxes and leaders
  0
LAYER
  5
D4
330
1
100
AcDbSymbolTableRecord
100
AcDbLayerTableRecord
  2
M-WATERPROOF
 70
0
 62
30
  6
Continuous
370
-3
390
13
347
21
1001
AcAecLayerStandard
1000

1000
Membranes, waterstops, tanking
  0
LAYER
  5
D5
330
1
100
AcDbSymbolTableRecord
100
AcDbLayerTableRecord
  2
M-LEVEL
 70
0
 62
4
  6
Continuous
370
-3
390
13
347
21
1001
AcAecLayerStandard
1000

1000
Level and invert markers
  0
LAYER
  5
D6
330
1
100
AcDbSymbolTableRecord
100
AcDbLayerTableRecord
  2
M-DIM
 70
0
 62
4
  6
Continuous
370
-3
390
13
347
21
1001
AcAecLayerStandard
1000

1000
Dimensions
  0
LAYER
  5
D7
330
1
100
AcDbSymbolTableRecord
100
AcDbLayerTableRecord
  2
M-TEXT
 70
0
 62
7
  6
Continuous
370
-3
390
13
347
21
1001
AcAecLayerStandard
1000

1000
General annotation
  0
LAYER
  5
D8
330
1
100
AcDbSymbolTableRecord
100
AcDbLayerTableRecord
  2
M-NOTE
 70
0
 62
7
  6
Continuous
370
-3
390
13
347
21
1001
AcAecLayerStandard
1000

1000
Note panels
  0
LAYER
  5
D9
330
1
100
AcDbSymbolTableRecord
100
AcDbLayerTableRecord
  2
M-TABLE
 70
0
 62
7
  6
Continuous
370
-3
390
13
347
21
1001
AcAecLayerStandard
1000

1000
Tables and schedules
  0
LAYER
  5
DA
330
1
100
AcDbSymbolTableRecord
100
AcDbLayerTableRecord
  2
M-CALLOUT
 70
0
 62
2
  6
Continuous
370
-3
390
13
347
21
1001
AcAecLayerStandard
1000

1000
Tags, balloons and leaders
  0
LAYER
  5
DB
330
1
100
AcDbSymbolTableRecord
100
AcDbLayerTableRecord
  2
M-SECTION
 70
0
 62
1
  6
Continuous
370
-3
390
13
347
21
1001
AcAecLayerStandard
1000

1000
Section and detail markers
  0
LAYER
  5
DC
330
1
100
AcDbSymbolTableRecord
100
AcDbLayerTableRecord
  2
M-TITLE
 70
0
 62
7
  6
Continuous
370
-3
390
13
347
21
1001
AcAecLayerStandard
1000

1000
Border, title block, view titles
  0
LAYER
  5
DD
330
1
100
AcDbSymbolTableRecord
100
AcDbLayerTableRecord
  2
M-HATCH
 70
0
 62
8
  6
Continuous
370
-3
390
13
347
21
1001
AcAecLayerStandard
1000

1000
Hatching
  0
LAYER
  5
DE
330
1
100
AcDbSymbolTableRecord
100
AcDbLayerTableRecord
  2
M-EXISTING
 70
0
 62
8
  6
Continuous
370
-3
390
13
347
21
1001
AcAecLayerStandard
1000

1000
Soil, rock, berm, cover
  0
LAYER
  5
DF
330
1
100
AcDbSymbolTableRecord
100
AcDbLayerTableRecord
  2
M-FLAG
 70
0
 62
1
  6
Continuous
370
-3
390
13
347
21
1001
AcAecLayerStandard
1000

1000
Open items, data-required flags, warnings
  0
ENDTAB
  0
TABLE
  2
STYLE
  5
5
330
0
100
AcDbSymbolTable
 70
26
  0
STYLE
  5
29
330
5
100
AcDbSymbolTableRecord
100
AcDbTextStyleTableRecord
  2
Standard
 70
0
 40
0.0
 41
1.0
 50
0.0
 71
0
 42
2.5
  3
txt
  4

  0
STYLE
  5
41
330
5
100
AcDbSymbolTableRecord
100
AcDbTextStyleTableRecord
  2
OpenSans-Light
 70
0
 40
0.0
 41
1.0
 50
0.0
 71
0
 42
2.5
  3
OpenSans-Light.ttf
  4

  0
STYLE
  5
42
330
5
100
AcDbSymbolTableRecord
100
AcDbTextStyleTableRecord
  2
OpenSans-Light-Italic
 70
0
 40
0.0
 41
1.0
 50
0.0
 71
0
 42
2.5
  3
OpenSans-LightItalic.ttf
  4

  0
STYLE
  5
43
330
5
100
AcDbSymbolTableRecord
100
AcDbTextStyleTableRecord
  2
OpenSans
 70
0
 40
0.0
 41
1.0
 50
0.0
 71
0
 42
2.5
  3
OpenSans-Regular.ttf
  4

  0
STYLE
  5
44
330
5
100
AcDbSymbolTableRecord
100
AcDbTextStyleTableRecord
  2
OpenSans-Italic
 70
0
 40
0.0
 41
1.0
 50
0.0
 71
0
 42
2.5
  3
OpenSans-Italic.ttf
  4

  0
STYLE
  5
45
330
5
100
AcDbSymbolTableRecord
100
AcDbTextStyleTableRecord
  2
OpenSans-SemiBold
 70
0
 40
0.0
 41
1.0
 50
0.0
 71
0
 42
2.5
  3
OpenSans-SemiBold.ttf
  4

  0
STYLE
  5
46
330
5
100
AcDbSymbolTableRecord
100
AcDbTextStyleTableRecord
  2
OpenSans-SemiBoldItalic
 70
0
 40
0.0
 41
1.0
 50
0.0
 71
0
 42
2.5
  3
OpenSans-SemiBoldItalic.ttf
  4

  0
STYLE
  5
47
330
5
100
AcDbSymbolTableRecord
100
AcDbTextStyleTableRecord
  2
OpenSans-Bold
 70
0
 40
0.0
 41
1.0
 50
0.0
 71
0
 42
2.5
  3
OpenSans-Bold.ttf
  4

  0
STYLE
  5
48
330
5
100
AcDbSymbolTableRecord
100
AcDbTextStyleTableRecord
  2
OpenSans-BoldItalic
 70
0
 40
0.0
 41
1.0
 50
0.0
 71
0
 42
2.5
  3
OpenSans-BoldItalic.ttf
  4

  0
STYLE
  5
49
330
5
100
AcDbSymbolTableRecord
100
AcDbTextStyleTableRecord
  2
OpenSans-ExtraBold
 70
0
 40
0.0
 41
1.0
 50
0.0
 71
0
 42
2.5
  3
OpenSans-ExtraBold.ttf
  4

  0
STYLE
  5
4A
330
5
100
AcDbSymbolTableRecord
100
AcDbTextStyleTableRecord
  2
OpenSans-ExtraBoldItalic
 70
0
 40
0.0
 41
1.0
 50
0.0
 71
0
 42
2.5
  3
OpenSans-ExtraBoldItalic.ttf
  4

  0
STYLE
  5
4B
330
5
100
AcDbSymbolTableRecord
100
AcDbTextStyleTableRecord
  2
OpenSansCondensed-Bold
 70
0
 40
0.0
 41
1.0
 50
0.0
 71
0
 42
2.5
  3
OpenSansCondensed-Bold.ttf
  4

  0
STYLE
  5
4C
330
5
100
AcDbSymbolTableRecord
100
AcDbTextStyleTableRecord
  2
OpenSansCondensed-Light
 70
0
 40
0.0
 41
1.0
 50
0.0
 71
0
 42
2.5
  3
OpenSansCondensed-Light.ttf
  4

  0
STYLE
  5
4D
330
5
100
AcDbSymbolTableRecord
100
AcDbTextStyleTableRecord
  2
OpenSansCondensed-Italic
 70
0
 40
0.0
 41
1.0
 50
0.0
 71
0
 42
2.5
  3
OpenSansCondensed-LightItalic.ttf
  4

  0
STYLE
  5
4E
330
5
100
AcDbSymbolTableRecord
100
AcDbTextStyleTableRecord
  2
LiberationSans
 70
0
 40
0.0
 41
1.0
 50
0.0
 71
0
 42
2.5
  3
LiberationSans-Regular.ttf
  4

  0
STYLE
  5
4F
330
5
100
AcDbSymbolTableRecord
100
AcDbTextStyleTableRecord
  2
LiberationSans-Bold
 70
0
 40
0.0
 41
1.0
 50
0.0
 71
0
 42
2.5
  3
LiberationSans-Bold.ttf
  4

  0
STYLE
  5
50
330
5
100
AcDbSymbolTableRecord
100
AcDbTextStyleTableRecord
  2
LiberationSans-BoldItalic
 70
0
 40
0.0
 41
1.0
 50
0.0
 71
0
 42
2.5
  3
LiberationSans-BoldItalic.ttf
  4

  0
STYLE
  5
51
330
5
100
AcDbSymbolTableRecord
100
AcDbTextStyleTableRecord
  2
LiberationSans-Italic
 70
0
 40
0.0
 41
1.0
 50
0.0
 71
0
 42
2.5
  3
LiberationSans-Italic.ttf
  4

  0
STYLE
  5
52
330
5
100
AcDbSymbolTableRecord
100
AcDbTextStyleTableRecord
  2
LiberationSerif
 70
0
 40
0.0
 41
1.0
 50
0.0
 71
0
 42
2.5
  3
LiberationSerif-Regular.ttf
  4

  0
STYLE
  5
53
330
5
100
AcDbSymbolTableRecord
100
AcDbTextStyleTableRecord
  2
LiberationSerif-Bold
 70
0
 40
0.0
 41
1.0
 50
0.0
 71
0
 42
2.5
  3
LiberationSerif-Bold.ttf
  4

  0
STYLE
  5
54
330
5
100
AcDbSymbolTableRecord
100
AcDbTextStyleTableRecord
  2
LiberationSerif-BoldItalic
 70
0
 40
0.0
 41
1.0
 50
0.0
 71
0
 42
2.5
  3
LiberationSerif-BoldItalic.ttf
  4

  0
STYLE
  5
55
330
5
100
AcDbSymbolTableRecord
100
AcDbTextStyleTableRecord
  2
LiberationSerif-Italic
 70
0
 40
0.0
 41
1.0
 50
0.0
 71
0
 42
2.5
  3
LiberationSerif-Italic.ttf
  4

  0
STYLE
  5
56
330
5
100
AcDbSymbolTableRecord
100
AcDbTextStyleTableRecord
  2
LiberationMono
 70
0
 40
0.0
 41
1.0
 50
0.0
 71
0
 42
2.5
  3
LiberationMono-Regular.ttf
  4

  0
STYLE
  5
57
330
5
100
AcDbSymbolTableRecord
100
AcDbTextStyleTableRecord
  2
LiberationMono-Bold
 70
0
 40
0.0
 41
1.0
 50
0.0
 71
0
 42
2.5
  3
LiberationMono-Bold.ttf
  4

  0
STYLE
  5
58
330
5
100
AcDbSymbolTableRecord
100
AcDbTextStyleTableRecord
  2
LiberationMono-BoldItalic
 70
0
 40
0.0
 41
1.0
 50
0.0
 71
0
 42
2.5
  3
LiberationMono-BoldItalic.ttf
  4

  0
STYLE
  5
59
330
5
100
AcDbSymbolTableRecord
100
AcDbTextStyleTableRecord
  2
LiberationMono-Italic
 70
0
 40
0.0
 41
1.0
 50
0.0
 71
0
 42
2.5
  3
LiberationMono-Italic.ttf
  4

  0
ENDTAB
  0
TABLE
  2
VIEW
  5
7
330
0
100
AcDbSymbolTable
 70
0
  0
ENDTAB
  0
TABLE
  2
UCS
  5
6
330
0
100
AcDbSymbolTable
 70
0
  0
ENDTAB
  0
TABLE
  2
APPID
  5
3
330
0
100
AcDbSymbolTable
 70
4
  0
APPID
  5
2A
330
3
100
AcDbSymbolTableRecord
100
AcDbRegAppTableRecord
  2
ACAD
 70
0
  0
APPID
  5
8B
330
3
100
AcDbSymbolTableRecord
100
AcDbRegAppTableRecord
  2
AcAecLayerStandard
 70
0
  0
APPID
  5
384
330
3
100
AcDbSymbolTableRecord
100
AcDbRegAppTableRecord
  2
HATCHBACKGROUNDCOLOR
 70
0
  0
APPID
  5
385
330
3
100
AcDbSymbolTableRecord
100
AcDbRegAppTableRecord
  2
EZDXF
 70
0
  0
ENDTAB
  0
TABLE
  2
DIMSTYLE
  5
4
330
0
100
AcDbSymbolTable
 70
14
100
AcDbDimStyleTable
  0
DIMSTYLE
105
2B
330
4
100
AcDbSymbolTableRecord
100
AcDbDimStyleTableRecord
  2
Standard
 70
0
 40
1.0
 41
2.5
 42
0.625
 43
3.75
 44
1.25
 45
0.0
 46
0.0
 47
0.0
 48
0.0
 49
2.5
140
2.5
141
2.5
142
0.0
143
0.03937007874
144
1.0
145
0.0
146
1.0
147
0.625
148
0.0
 69
0
 70
0
 71
0
 72
0
 73
0
 74
0
 75
0
 76
0
 77
1
 78
8
 79
3
170
0
171
3
172
1
173
0
174
0
175
0
176
0
177
0
178
0
179
2
271
2
272
2
273
2
274
3
275
0
276
0
277
2
278
44
279
0
280
0
281
0
282
0
283
0
284
8
285
0
286
0
288
0
289
3
290
0
371
-2
372
-2
  0
DIMSTYLE
105
73
330
4
100
AcDbSymbolTableRecord
100
AcDbDimStyleTableRecord
  2
EZDXF
 70
0
 40
1.0
 41
0.175
 42
0.125
 43
3.75
 44
0.375
 45
0.0
 46
0.0
 47
0.0
 48
0.0
 49
2.5
140
0.25
141
2.5
142
0.0
143
0.03937007874
144
100.0
145
0.0
146
0.5
147
0.1
148
0.0
 69
0
 70
0
 71
0
 72
0
 73
0
 74
0
 75
0
 76
0
 77
1
 78
12
 79
3
170
0
171
3
172
1
173
0
174
0
175
0
176
0
177
0
178
0
179
2
271
2
272
2
273
2
274
3
275
0
276
0
277
2
278
46
279
2
280
0
281
0
282
0
283
0
284
8
285
0
286
0
288
1
289
3
290
0
340
4C
342
74
371
-2
372
-2
  0
DIMSTYLE
105
7C
330
4
100
AcDbSymbolTableRecord
100
AcDbDimStyleTableRecord
  2
EZ_M_100_H25_CM
 70
0
 40
1.0
 41
0.25
 42
0.125
 43
3.75
 44
0.375
 45
0.0
 46
0.0
 47
0.0
 48
0.0
 49
2.5
140
0.25
141
2.5
142
0.125
143
0.03937007874
144
100.0
145
0.0
146
0.5
147
0.1
148
0.0
 69
0
 70
0
 71
0
 72
0
 73
0
 74
0
 75
0
 76
0
 77
1
 78
12
 79
3
170
0
171
3
172
1
173
0
174
0
175
0
176
0
177
0
178
0
179
2
271
2
272
2
273
2
274
3
275
0
276
0
277
2
278
46
279
2
280
0
281
0
282
0
283
0
284
8
285
0
286
0
288
1
289
3
290
0
340
4C
371
-2
372
-2
  0
DIMSTYLE
105
7D
330
4
100
AcDbSymbolTableRecord
100
AcDbDimStyleTableRecord
  2
EZ_M_50_H25_CM
 70
0
 40
1.0
 41
0.125
 42
0.0625
 43
3.75
 44
0.1875
 45
0.0
 46
0.0
 47
0.0
 48
0.0
 49
2.5
140
0.125
141
2.5
142
0.0625
143
0.03937007874
144
100.0
145
0.0
146
0.5
147
0.05
148
0.0
 69
0
 70
0
 71
0
 72
0
 73
0
 74
0
 75
0
 76
0
 77
1
 78
12
 79
3
170
0
171
3
172
1
173
0
174
0
175
0
176
0
177
0
178
0
179
2
271
2
272
2
273
2
274
3
275
0
276
0
277
2
278
46
279
2
280
0
281
0
282
0
283
0
284
8
285
0
286
0
288
1
289
3
290
0
340
4C
371
-2
372
-2
  0
DIMSTYLE
105
7E
330
4
100
AcDbSymbolTableRecord
100
AcDbDimStyleTableRecord
  2
EZ_M_25_H25_CM
 70
0
 40
1.0
 41
0.0625
 42
0.03125
 43
3.75
 44
0.09375
 45
0.0
 46
0.0
 47
0.0
 48
0.0
 49
2.5
140
0.0625
141
2.5
142
0.03125
143
0.03937007874
144
100.0
145
0.0
146
0.5
147
0.025
148
0.0
 69
0
 70
0
 71
0
 72
0
 73
0
 74
0
 75
0
 76
0
 77
1
 78
12
 79
3
170
0
171
3
172
1
173
0
174
0
175
0
176
0
177
0
178
0
179
2
271
2
272
2
273
2
274
3
275
0
276
0
277
2
278
46
279
2
280
0
281
0
282
0
283
0
284
8
285
0
286
0
288
1
289
3
290
0
340
4C
371
-2
372
-2
  0
DIMSTYLE
105
7F
330
4
100
AcDbSymbolTableRecord
100
AcDbDimStyleTableRecord
  2
EZ_M_20_H25_CM
 70
0
 40
1.0
 41
0.05
 42
0.025
 43
3.75
 44
0.07500000000000001
 45
0.0
 46
0.0
 47
0.0
 48
0.0
 49
2.5
140
0.05
141
2.5
142
0.025
143
0.03937007874
144
100.0
145
0.0
146
0.5
147
0.020000000000000004
148
0.0
 69
0
 70
0
 71
0
 72
0
 73
0
 74
0
 75
0
 76
0
 77
1
 78
12
 79
3
170
0
171
3
172
1
173
0
174
0
175
0
176
0
177
0
178
0
179
2
271
2
272
2
273
2
274
3
275
0
276
0
277
2
278
46
279
2
280
0
281
0
282
0
283
0
284
8
285
0
286
0
288
1
289
3
290
0
340
4C
371
-2
372
-2
  0
DIMSTYLE
105
80
330
4
100
AcDbSymbolTableRecord
100
AcDbDimStyleTableRecord
  2
EZ_M_10_H25_CM
 70
0
 40
1.0
 41
0.025
 42
0.0125
 43
3.75
 44
0.037500000000000006
 45
0.0
 46
0.0
 47
0.0
 48
0.0
 49
2.5
140
0.025
141
2.5
142
0.0125
143
0.03937007874
144
100.0
145
0.0
146
0.5
147
0.010000000000000002
148
0.0
 69
0
 70
0
 71
0
 72
0
 73
0
 74
0
 75
0
 76
0
 77
1
 78
12
 79
3
170
0
171
3
172
1
173
0
174
0
175
0
176
0
177
0
178
0
179
2
271
2
272
2
273
2
274
3
275
0
276
0
277
2
278
46
279
2
280
0
281
0
282
0
283
0
284
8
285
0
286
0
288
1
289
3
290
0
340
4C
371
-2
372
-2
  0
DIMSTYLE
105
81
330
4
100
AcDbSymbolTableRecord
100
AcDbDimStyleTableRecord
  2
EZ_M_5_H25_CM
 70
0
 40
1.0
 41
0.0125
 42
0.00625
 43
3.75
 44
0.018750000000000003
 45
0.0
 46
0.0
 47
0.0
 48
0.0
 49
2.5
140
0.0125
141
2.5
142
0.00625
143
0.03937007874
144
100.0
145
0.0
146
0.5
147
0.005000000000000001
148
0.0
 69
0
 70
0
 71
0
 72
0
 73
0
 74
0
 75
0
 76
0
 77
1
 78
12
 79
3
170
0
171
3
172
1
173
0
174
0
175
0
176
0
177
0
178
0
179
2
271
2
272
2
273
2
274
3
275
0
276
0
277
2
278
46
279
2
280
0
281
0
282
0
283
0
284
8
285
0
286
0
288
1
289
3
290
0
340
4C
371
-2
372
-2
  0
DIMSTYLE
105
82
330
4
100
AcDbSymbolTableRecord
100
AcDbDimStyleTableRecord
  2
EZ_M_1_H25_CM
 70
0
 40
1.0
 41
0.0025
 42
0.00125
 43
3.75
 44
0.00375
 45
0.0
 46
0.0
 47
0.0
 48
0.0
 49
2.5
140
0.0025
141
2.5
142
0.00125
143
0.03937007874
144
100.0
145
0.0
146
0.5
147
0.001
148
0.0
 69
0
 70
0
 71
0
 72
0
 73
0
 74
0
 75
0
 76
0
 77
1
 78
12
 79
3
170
0
171
3
172
1
173
0
174
0
175
0
176
0
177
0
178
0
179
2
271
2
272
2
273
2
274
3
275
0
276
0
277
2
278
46
279
2
280
0
281
0
282
0
283
0
284
8
285
0
286
0
288
1
289
3
290
0
340
4C
371
-2
372
-2
  0
DIMSTYLE
105
83
330
4
100
AcDbSymbolTableRecord
100
AcDbDimStyleTableRecord
  2
EZ_RADIUS
 70
0
 40
1.0
 41
0.25
 42
0.125
 43
3.75
 44
0.375
 45
0.0
 46
0.0
 47
0.0
 48
0.0
 49
2.5
140
0.25
141
0.0
142
0.0
143
0.03937007874
144
100.0
145
0.0
146
0.5
147
0.1
148
0.0
 69
0
 70
0
 71
0
 72
0
 73
0
 74
0
 75
0
 76
0
 77
1
 78
12
 79
3
170
0
171
3
172
0
173
0
174
0
175
0
176
0
177
0
178
0
179
2
271
2
272
2
273
2
274
3
275
0
276
0
277
2
278
46
279
1
280
0
281
0
282
0
283
0
284
8
285
0
286
0
288
1
289
3
290
0
340
4C
342
84
371
-2
372
-2
  0
DIMSTYLE
105
88
330
4
100
AcDbSymbolTableRecord
100
AcDbDimStyleTableRecord
  2
EZ_RADIUS_INSIDE
 70
0
 40
1.0
 41
0.25
 42
0.125
 43
3.75
 44
0.375
 45
0.0
 46
0.0
 47
0.0
 48
0.0
 49
2.5
140
0.25
141
0.0
142
0.0
143
0.03937007874
144
100.0
145
0.0
146
0.5
147
0.1
148
0.0
 69
0
 70
0
 71
0
 72
0
 73
0
 74
0
 75
0
 76
0
 77
0
 78
12
 79
3
170
0
171
3
172
0
173
0
174
1
175
0
176
0
177
0
178
0
179
2
271
2
272
2
273
2
274
3
275
0
276
0
277
2
278
46
279
0
280
0
281
0
282
0
283
0
284
8
285
0
286
0
288
1
289
0
290
0
340
4C
342
84
371
-2
372
-2
  0
DIMSTYLE
105
89
330
4
100
AcDbSymbolTableRecord
100
AcDbDimStyleTableRecord
  2
EZ_CURVED
 70
0
 40
1.0
 41
0.25
 42
0.125
 43
3.75
 44
0.375
 45
0.0
 46
0.0
 47
0.0
 48
0.0
 49
2.5
140
0.25
141
2.5
142
0.0
143
0.03937007874
144
100.0
145
0.0
146
0.5
147
0.1
148
0.0
 69
0
 70
0
 71
0
 72
0
 73
0
 74
0
 75
0
 76
0
 77
1
 78
12
 79
2
 90
2
170
0
171
3
172
1
173
0
174
0
175
0
176
0
177
0
178
0
179
2
271
2
272
2
273
2
274
3
275
0
276
0
277
2
278
46
279
2
280
0
281
0
282
0
283
0
284
8
285
0
286
0
288
1
289
3
290
0
340
4C
371
-2
372
-2
  0
DIMSTYLE
105
A3
330
4
100
AcDbSymbolTableRecord
100
AcDbDimStyleTableRecord
  2
SC-DIM
 70
0
 40
1.0
 41
1.6
 42
1.0
 43
3.75
 44
1.2
 45
0.0
 46
0.0
 47
0.0
 48
0.0
 49
2.5
140
1.8
141
2.5
142
0.0
143
0.03937007874
144
1.0
145
0.0
146
1.0
147
0.8
148
0.0
 69
0
 70
0
 71
0
 72
0
 73
0
 74
0
 75
0
 76
0
 77
1
 78
8
 79
3
170
0
171
3
172
1
173
0
174
0
175
0
176
4
177
4
178
4
179
2
271
0
272
2
273
2
274
3
275
0
276
0
277
2
278
44
279
0
280
0
281
0
282
0
283
0
284
8
285
0
286
0
288
0
289
3
290
0
342
74
371
13
372
13
  0
DIMSTYLE
105
A4
330
4
100
AcDbSymbolTableRecord
100
AcDbDimStyleTableRecord
  2
SC-DIM-S
 70
0
 40
1.0
 41
1.2
 42
1.0
 43
3.75
 44
1.2
 45
0.0
 46
0.0
 47
0.0
 48
0.0
 49
2.5
140
1.4
141
2.5
142
0.0
143
0.03937007874
144
1.0
145
0.0
146
1.0
147
0.8
148
0.0
 69
0
 70
0
 71
0
 72
0
 73
0
 74
0
 75
0
 76
0
 77
1
 78
8
 79
3
170
0
171
3
172
1
173
0
174
0
175
0
176
4
177
4
178
4
179
2
271
0
272
2
273
2
274
3
275
0
276
0
277
2
278
44
279
0
280
0
281
0
282
0
283
0
284
8
285
0
286
0
288
0
289
3
290
0
342
74
371
13
372
13
  0
ENDTAB
  0
TABLE
  2
BLOCK_RECORD
  5
9
330
0
100
AcDbSymbolTable
 70
21
  0
BLOCK_RECORD
  5
17
330
9
100
AcDbSymbolTableRecord
100
AcDbBlockTableRecord
  2
*Model_Space
340
1A
 70
0
280
1
281
0
  0
BLOCK_RECORD
  5
1B
330
9
100
AcDbSymbolTableRecord
100
AcDbBlockTableRecord
  2
*Paper_Space
340
1E
 70
0
280
1
281
0
  0
BLOCK_RECORD
  5
74
330
9
100
AcDbSymbolTableRecord
100
AcDbBlockTableRecord
  2
_ARCHTICK
340
0
 70
0
280
1
281
0
  0
BLOCK_RECORD
  5
78
330
9
100
AcDbSymbolTableRecord
100
AcDbBlockTableRecord
  2
_CLOSEDFILLED
340
0
 70
0
280
1
281
0
  0
BLOCK_RECORD
  5
84
330
9
100
AcDbSymbolTableRecord
100
AcDbBlockTableRecord
  2
_CLOSEDBLANK
340
0
 70
0
280
1
281
0
  0
BLOCK_RECORD
  5
A5
330
9
100
AcDbSymbolTableRecord
100
AcDbBlockTableRecord
  2
BARMARK
340
0
 70
0
280
1
281
0
  0
BLOCK_RECORD
  5
A9
330
9
100
AcDbSymbolTableRecord
100
AcDbBlockTableRecord
  2
SECMARK
340
0
 70
0
280
1
281
0
  0
BLOCK_RECORD
  5
AE
330
9
100
AcDbSymbolTableRecord
100
AcDbBlockTableRecord
  2
LEVELMK
340
0
 70
0
280
1
281
0
  0
BLOCK_RECORD
  5
B2
330
9
100
AcDbSymbolTableRecord
100
AcDbBlockTableRecord
  2
NORTH
340
0
 70
0
280
1
281
0
  0
BLOCK_RECORD
  5
E0
330
9
100
AcDbSymbolTableRecord
100
AcDbBlockTableRecord
  2
GULLY
340
0
 70
0
280
1
281
0
  0
BLOCK_RECORD
  5
E6
330
9
100
AcDbSymbolTableRecord
100
AcDbBlockTableRecord
  2
CHAMBER
340
0
 70
0
280
1
281
0
  0
BLOCK_RECORD
  5
EB
330
9
100
AcDbSymbolTableRecord
100
AcDbBlockTableRecord
  2
PUMP
340
0
 70
0
280
1
281
0
  0
BLOCK_RECORD
  5
F0
330
9
100
AcDbSymbolTableRecord
100
AcDbBlockTableRecord
  2
CLEANOUT
340
0
 70
0
280
1
281
0
  0
BLOCK_RECORD
  5
F5
330
9
100
AcDbSymbolTableRecord
100
AcDbBlockTableRecord
  2
NRV
340
0
 70
0
280
1
281
0
  0
BLOCK_RECORD
  5
FA
330
9
100
AcDbSymbolTableRecord
100
AcDbBlockTableRecord
  2
VALVE
340
0
 70
0
280
1
281
0
  0
BLOCK_RECORD
  5
FF
330
9
100
AcDbSymbolTableRecord
100
AcDbBlockTableRecord
  2
DIFFUSER
340
0
 70
0
280
1
281
0
  0
BLOCK_RECORD
  5
108
330
9
100
AcDbSymbolTableRecord
100
AcDbBlockTableRecord
  2
GRILLE
340
0
 70
0
280
1
281
0
  0
BLOCK_RECORD
  5
10F
330
9
100
AcDbSymbolTableRecord
100
AcDbBlockTableRecord
  2
BVALVE
340
0
 70
0
280
1
281
0
  0
BLOCK_RECORD
  5
115
330
9
100
AcDbSymbolTableRecord
100
AcDbBlockTableRecord
  2
FANSYM
340
0
 70
0
280
1
281
0
  0
BLOCK_RECORD
  5
11A
330
9
100
AcDbSymbolTableRecord
100
AcDbBlockTableRecord
  2
FINTAG
340
0
 70
0
280
1
281
0
  0
BLOCK_RECORD
  5
332
330
9
100
AcDbSymbolTableRecord
100
AcDbBlockTableRecord
  2
*D1
340
0
 70
0
280
1
281
0
  0
ENDTAB
  0
ENDSEC
  0
SECTION
  2
BLOCKS
  0
BLOCK
  5
18
330
17
100
AcDbEntity
  8
0
100
AcDbBlockBegin
  2
*Model_Space
 70
0
 10
0.0
 20
0.0
 30
0.0
  3
*Model_Space
  1

  0
ENDBLK
  5
19
330
17
100
AcDbEntity
  8
0
100
AcDbBlockEnd
  0
BLOCK
  5
1C
330
1B
100
AcDbEntity
  8
0
100
AcDbBlockBegin
  2
*Paper_Space
 70
0
 10
0.0
 20
0.0
 30
0.0
  3
*Paper_Space
  1

  0
ENDBLK
  5
1D
330
1B
100
AcDbEntity
  8
0
100
AcDbBlockEnd
  0
BLOCK
  5
75
330
74
100
AcDbEntity
  8
0
100
AcDbBlockBegin
  2
_ARCHTICK
 70
0
 10
0.0
 20
0.0
 30
0.0
  3
_ARCHTICK
  1

  0
LWPOLYLINE
  5
77
330
74
100
AcDbEntity
  8
0
  6
BYBLOCK
 62
0
100
AcDbPolyline
 90
2
 70
0
 43
0.15
 10
-0.5
 20
-0.5
 10
0.5
 20
0.5
  0
ENDBLK
  5
76
330
74
100
AcDbEntity
  8
0
100
AcDbBlockEnd
  0
BLOCK
  5
79
330
78
100
AcDbEntity
  8
0
100
AcDbBlockBegin
  2
_CLOSEDFILLED
 70
0
 10
0.0
 20
0.0
 30
0.0
  3
_CLOSEDFILLED
  1

  0
SOLID
  5
7B
330
78
100
AcDbEntity
  8
0
  6
BYBLOCK
 62
0
100
AcDbTrace
 10
-1.0
 20
0.16439898372402537
 30
0.0
 11
0.0
 21
0.0
 31
0.0
 12
-1.0
 22
-0.16439898372402537
 32
0.0
 13
-1.0
 23
-0.16439898372402537
 33
0.0
  0
ENDBLK
  5
7A
330
78
100
AcDbEntity
  8
0
100
AcDbBlockEnd
  0
BLOCK
  5
85
330
84
100
AcDbEntity
  8
0
100
AcDbBlockBegin
  2
_CLOSEDBLANK
 70
0
 10
0.0
 20
0.0
 30
0.0
  3
_CLOSEDBLANK
  1

  0
LWPOLYLINE
  5
87
330
84
100
AcDbEntity
  8
0
  6
BYBLOCK
 62
0
100
AcDbPolyline
 90
3
 70
1
 10
-1.0
 20
0.16439898372402537
 10
0.0
 20
0.0
 10
-1.0
 20
-0.16439898372402537
  0
ENDBLK
  5
86
330
84
100
AcDbEntity
  8
0
100
AcDbBlockEnd
  0
BLOCK
  5
A6
330
A5
100
AcDbEntity
  8
0
100
AcDbBlockBegin
  2
BARMARK
 70
0
 10
0.0
 20
0.0
 30
0.0
  3
BARMARK
  1

  0
CIRCLE
  5
A8
330
A5
100
AcDbEntity
  8
S-CALLOUT
100
AcDbCircle
 10
0.0
 20
0.0
 30
0.0
 40
3.2
  0
ENDBLK
  5
A7
330
A5
100
AcDbEntity
  8
0
100
AcDbBlockEnd
  0
BLOCK
  5
AA
330
A9
100
AcDbEntity
  8
0
100
AcDbBlockBegin
  2
SECMARK
 70
0
 10
0.0
 20
0.0
 30
0.0
  3
SECMARK
  1

  0
CIRCLE
  5
AC
330
A9
100
AcDbEntity
  8
S-SECTION
100
AcDbCircle
 10
0.0
 20
0.0
 30
0.0
 40
4.0
  0
LINE
  5
AD
330
A9
100
AcDbEntity
  8
S-SECTION
100
AcDbLine
 10
-4.0
 20
0.0
 30
0.0
 11
4.0
 21
0.0
 31
0.0
  0
ENDBLK
  5
AB
330
A9
100
AcDbEntity
  8
0
100
AcDbBlockEnd
  0
BLOCK
  5
AF
330
AE
100
AcDbEntity
  8
0
100
AcDbBlockBegin
  2
LEVELMK
 70
0
 10
0.0
 20
0.0
 30
0.0
  3
LEVELMK
  1

  0
LWPOLYLINE
  5
B1
330
AE
100
AcDbEntity
  8
S-LEVEL
100
AcDbPolyline
 90
4
 70
1
 10
0.0
 20
0.0
 10
-2.0
 20
3.0
 10
2.0
 20
3.0
 10
0.0
 20
0.0
  0
ENDBLK
  5
B0
330
AE
100
AcDbEntity
  8
0
100
AcDbBlockEnd
  0
BLOCK
  5
B3
330
B2
100
AcDbEntity
  8
0
100
AcDbBlockBegin
  2
NORTH
 70
0
 10
0.0
 20
0.0
 30
0.0
  3
NORTH
  1

  0
LWPOLYLINE
  5
B5
330
B2
100
AcDbEntity
  8
S-TITLE
100
AcDbPolyline
 90
5
 70
1
 10
0.0
 20
10.0
 10
-3.2
 20
-6.0
 10
0.0
 20
-2.4
 10
3.2
 20
-6.0
 10
0.0
 20
10.0
  0
CIRCLE
  5
B6
330
B2
100
AcDbEntity
  8
S-TITLE
100
AcDbCircle
 10
0.0
 20
0.0
 30
0.0
 40
12.0
  0
ENDBLK
  5
B4
330
B2
100
AcDbEntity
  8
0
100
AcDbBlockEnd
  0
BLOCK
  5
E1
330
E0
100
AcDbEntity
  8
0
100
AcDbBlockBegin
  2
GULLY
 70
0
 10
0.0
 20
0.0
 30
0.0
  3
GULLY
  1

  0
LWPOLYLINE
  5
E3
330
E0
100
AcDbEntity
  8
P-EQUIP
100
AcDbPolyline
 90
4
 70
1
 10
-2.2
 20
-2.2
 10
2.2
 20
-2.2
 10
2.2
 20
2.2
 10
-2.2
 20
2.2
  0
LINE
  5
E4
330
E0
100
AcDbEntity
  8
P-EQUIP
100
AcDbLine
 10
-2.2
 20
-2.2
 30
0.0
 11
2.2
 21
2.2
 31
0.0
  0
LINE
  5
E5
330
E0
100
AcDbEntity
  8
P-EQUIP
100
AcDbLine
 10
-2.2
 20
2.2
 30
0.0
 11
2.2
 21
-2.2
 31
0.0
  0
ENDBLK
  5
E2
330
E0
100
AcDbEntity
  8
0
100
AcDbBlockEnd
  0
BLOCK
  5
E7
330
E6
100
AcDbEntity
  8
0
100
AcDbBlockBegin
  2
CHAMBER
 70
0
 10
0.0
 20
0.0
 30
0.0
  3
CHAMBER
  1

  0
LWPOLYLINE
  5
E9
330
E6
100
AcDbEntity
  8
P-EQUIP
100
AcDbPolyline
 90
4
 70
1
 10
-3.0
 20
-3.0
 10
3.0
 20
-3.0
 10
3.0
 20
3.0
 10
-3.0
 20
3.0
  0
CIRCLE
  5
EA
330
E6
100
AcDbEntity
  8
P-EQUIP
100
AcDbCircle
 10
0.0
 20
0.0
 30
0.0
 40
1.9
  0
ENDBLK
  5
E8
330
E6
100
AcDbEntity
  8
0
100
AcDbBlockEnd
  0
BLOCK
  5
EC
330
EB
100
AcDbEntity
  8
0
100
AcDbBlockBegin
  2
PUMP
 70
0
 10
0.0
 20
0.0
 30
0.0
  3
PUMP
  1

  0
CIRCLE
  5
EE
330
EB
100
AcDbEntity
  8
P-EQUIP
100
AcDbCircle
 10
0.0
 20
0.0
 30
0.0
 40
2.6
  0
LWPOLYLINE
  5
EF
330
EB
100
AcDbEntity
  8
P-EQUIP
100
AcDbPolyline
 90
3
 70
1
 10
-1.5
 20
-1.5
 10
1.9
 20
0.0
 10
-1.5
 20
1.5
  0
ENDBLK
  5
ED
330
EB
100
AcDbEntity
  8
0
100
AcDbBlockEnd
  0
BLOCK
  5
F1
330
F0
100
AcDbEntity
  8
0
100
AcDbBlockBegin
  2
CLEANOUT
 70
0
 10
0.0
 20
0.0
 30
0.0
  3
CLEANOUT
  1

  0
CIRCLE
  5
F3
330
F0
100
AcDbEntity
  8
P-EQUIP
100
AcDbCircle
 10
0.0
 20
0.0
 30
0.0
 40
1.6
  0
LINE
  5
F4
330
F0
100
AcDbEntity
  8
P-EQUIP
100
AcDbLine
 10
0.0
 20
-1.6
 30
0.0
 11
0.0
 21
1.6
 31
0.0
  0
ENDBLK
  5
F2
330
F0
100
AcDbEntity
  8
0
100
AcDbBlockEnd
  0
BLOCK
  5
F6
330
F5
100
AcDbEntity
  8
0
100
AcDbBlockBegin
  2
NRV
 70
0
 10
0.0
 20
0.0
 30
0.0
  3
NRV
  1

  0
LWPOLYLINE
  5
F8
330
F5
100
AcDbEntity
  8
M-DAMPER
100
AcDbPolyline
 90
3
 70
1
 10
-2.0
 20
-1.8
 10
-2.0
 20
1.8
 10
2.0
 20
0.0
  0
LINE
  5
F9
330
F5
100
AcDbEntity
  8
M-DAMPER
100
AcDbLine
 10
2.0
 20
-1.8
 30
0.0
 11
2.0
 21
1.8
 31
0.0
  0
ENDBLK
  5
F7
330
F5
100
AcDbEntity
  8
0
100
AcDbBlockEnd
  0
BLOCK
  5
FB
330
FA
100
AcDbEntity
  8
0
100
AcDbBlockBegin
  2
VALVE
 70
0
 10
0.0
 20
0.0
 30
0.0
  3
VALVE
  1

  0
LWPOLYLINE
  5
FD
330
FA
100
AcDbEntity
  8
M-DAMPER
100
AcDbPolyline
 90
3
 70
1
 10
-2.0
 20
-1.8
 10
-2.0
 20
1.8
 10
0.0
 20
0.0
  0
LWPOLYLINE
  5
FE
330
FA
100
AcDbEntity
  8
M-DAMPER
100
AcDbPolyline
 90
3
 70
1
 10
2.0
 20
-1.8
 10
2.0
 20
1.8
 10
0.0
 20
0.0
  0
ENDBLK
  5
FC
330
FA
100
AcDbEntity
  8
0
100
AcDbBlockEnd
  0
BLOCK
  5
100
330
FF
100
AcDbEntity
  8
0
100
AcDbBlockBegin
  2
DIFFUSER
 70
0
 10
0.0
 20
0.0
 30
0.0
  3
DIFFUSER
  1

  0
LWPOLYLINE
  5
102
330
FF
100
AcDbEntity
  8
M-TERMINAL
100
AcDbPolyline
 90
4
 70
1
 10
-4.0
 20
-4.0
 10
4.0
 20
-4.0
 10
4.0
 20
4.0
 10
-4.0
 20
4.0
  0
LWPOLYLINE
  5
103
330
FF
100
AcDbEntity
  8
M-TERMINAL
100
AcDbPolyline
 90
4
 70
1
 10
-2.4
 20
-2.4
 10
2.4
 20
-2.4
 10
2.4
 20
2.4
 10
-2.4
 20
2.4
  0
LINE
  5
104
330
FF
100
AcDbEntity
  8
M-TERMINAL
100
AcDbLine
 10
-4.0
 20
-4.0
 30
0.0
 11
-2.4
 21
-2.4
 31
0.0
  0
LINE
  5
105
330
FF
100
AcDbEntity
  8
M-TERMINAL
100
AcDbLine
 10
4.0
 20
-4.0
 30
0.0
 11
2.4
 21
-2.4
 31
0.0
  0
LINE
  5
106
330
FF
100
AcDbEntity
  8
M-TERMINAL
100
AcDbLine
 10
4.0
 20
4.0
 30
0.0
 11
2.4
 21
2.4
 31
0.0
  0
LINE
  5
107
330
FF
100
AcDbEntity
  8
M-TERMINAL
100
AcDbLine
 10
-4.0
 20
4.0
 30
0.0
 11
-2.4
 21
2.4
 31
0.0
  0
ENDBLK
  5
101
330
FF
100
AcDbEntity
  8
0
100
AcDbBlockEnd
  0
BLOCK
  5
109
330
108
100
AcDbEntity
  8
0
100
AcDbBlockBegin
  2
GRILLE
 70
0
 10
0.0
 20
0.0
 30
0.0
  3
GRILLE
  1

  0
LWPOLYLINE
  5
10B
330
108
100
AcDbEntity
  8
M-TERMINAL
100
AcDbPolyline
 90
4
 70
1
 10
-4.0
 20
-2.4
 10
4.0
 20
-2.4
 10
4.0
 20
2.4
 10
-4.0
 20
2.4
  0
LINE
  5
10C
330
108
100
AcDbEntity
  8
M-TERMINAL
100
AcDbLine
 10
-2.0
 20
-2.4
 30
0.0
 11
-2.0
 21
2.4
 31
0.0
  0
LINE
  5
10D
330
108
100
AcDbEntity
  8
M-TERMINAL
100
AcDbLine
 10
0.0
 20
-2.4
 30
0.0
 11
0.0
 21
2.4
 31
0.0
  0
LINE
  5
10E
330
108
100
AcDbEntity
  8
M-TERMINAL
100
AcDbLine
 10
2.0
 20
-2.4
 30
0.0
 11
2.0
 21
2.4
 31
0.0
  0
ENDBLK
  5
10A
330
108
100
AcDbEntity
  8
0
100
AcDbBlockEnd
  0
BLOCK
  5
110
330
10F
100
AcDbEntity
  8
0
100
AcDbBlockBegin
  2
BVALVE
 70
0
 10
0.0
 20
0.0
 30
0.0
  3
BVALVE
  1

  0
CIRCLE
  5
112
330
10F
100
AcDbEntity
  8
M-DAMPER
100
AcDbCircle
 10
0.0
 20
0.0
 30
0.0
 40
3.0
  0
LINE
  5
113
330
10F
100
AcDbEntity
  8
M-DAMPER
100
AcDbLine
 10
-3.0
 20
0.0
 30
0.0
 11
3.0
 21
0.0
 31
0.0
  0
LINE
  5
114
330
10F
100
AcDbEntity
  8
M-DAMPER
100
AcDbLine
 10
-2.1
 20
-2.1
 30
0.0
 11
2.1
 21
2.1
 31
0.0
  0
ENDBLK
  5
111
330
10F
100
AcDbEntity
  8
0
100
AcDbBlockEnd
  0
BLOCK
  5
116
330
115
100
AcDbEntity
  8
0
100
AcDbBlockBegin
  2
FANSYM
 70
0
 10
0.0
 20
0.0
 30
0.0
  3
FANSYM
  1

  0
CIRCLE
  5
118
330
115
100
AcDbEntity
  8
M-EQUIP
100
AcDbCircle
 10
0.0
 20
0.0
 30
0.0
 40
3.4
  0
LWPOLYLINE
  5
119
330
115
100
AcDbEntity
  8
M-EQUIP
100
AcDbPolyline
 90
3
 70
1
 10
-2.4
 20
-1.2
 10
2.4
 20
-1.2
 10
0.0
 20
2.6
  0
ENDBLK
  5
117
330
115
100
AcDbEntity
  8
0
100
AcDbBlockEnd
  0
BLOCK
  5
11B
330
11A
100
AcDbEntity
  8
0
100
AcDbBlockBegin
  2
FINTAG
 70
0
 10
0.0
 20
0.0
 30
0.0
  3
FINTAG
  1

  0
LWPOLYLINE
  5
11D
330
11A
100
AcDbEntity
  8
A-FIN-TAG
100
AcDbPolyline
 90
4
 70
1
 10
0.0
 20
0.0
 10
16.0
 20
0.0
 10
16.0
 20
5.0
 10
0.0
 20
5.0
  0
LINE
  5
11E
330
11A
100
AcDbEntity
  8
A-FIN-TAG
100
AcDbLine
 10
0.0
 20
2.5
 30
0.0
 11
16.0
 21
2.5
 31
0.0
  0
LINE
  5
11F
330
11A
100
AcDbEntity
  8
A-FIN-TAG
100
AcDbLine
 10
8.0
 20
0.0
 30
0.0
 11
8.0
 21
5.0
 31
0.0
  0
ENDBLK
  5
11C
330
11A
100
AcDbEntity
  8
0
100
AcDbBlockEnd
  0
BLOCK
  5
333
330
332
100
AcDbEntity
  8
0
100
AcDbBlockBegin
  2
*D1
 70
1
 10
0.0
 20
0.0
 30
0.0
  3
*D1
  1

  0
LINE
  5
335
330
332
100
AcDbEntity
  8
0
 62
4
370
13
100
AcDbLine
 10
28.0
 20
158.15000000000015
 30
0.0
 11
28.0
 21
149.95000000000016
 31
0.0
  0
LINE
  5
336
330
332
100
AcDbEntity
  8
0
 62
4
370
13
100
AcDbLine
 10
248.0
 20
158.15000000000015
 30
0.0
 11
248.0
 21
149.95000000000016
 31
0.0
  0
INSERT
  5
337
330
332
100
AcDbEntity
  8
S-DIM
 62
4
100
AcDbBlockReference
  2
_ARCHTICK
 10
28.0
 20
151.15000000000015
 30
0.0
 41
1.6
 42
1.6
 50
180.0
  0
INSERT
  5
339
330
332
100
AcDbEntity
  8
S-DIM
 62
4
100
AcDbBlockReference
  2
_ARCHTICK
 10
248.0
 20
151.15000000000015
 30
0.0
 41
1.6
 42
1.6
  0
LINE
  5
33B
330
332
100
AcDbEntity
  8
0
 62
4
370
13
100
AcDbLine
 10
28.0
 20
151.15000000000015
 30
0.0
 11
248.0
 21
151.15000000000015
 31
0.0
  0
MTEXT
  5
33C
330
332
100
AcDbEntity
  8
S-DIM
 62
4
100
AcDbMText
 10
138.0
 20
152.85000000000014
 30
0.0
 40
1.8
 71
5
  1
22000
  7
OpenSansCondensed-Light
  0
POINT
  5
33D
330
332
100
AcDbEntity
  8
Defpoints
100
AcDbPoint
 10
28.0
 20
151.15000000000015
 30
0.0
  0
POINT
  5
33E
330
332
100
AcDbEntity
  8
Defpoints
100
AcDbPoint
 10
28.0
 20
159.15000000000015
 30
0.0
  0
POINT
  5
33F
330
332
100
AcDbEntity
  8
Defpoints
100
AcDbPoint
 10
248.0
 20
159.15000000000015
 30
0.0
  0
ENDBLK
  5
334
330
332
100
AcDbEntity
  8
0
100
AcDbBlockEnd
  0
ENDSEC
  0
SECTION
  2
ENTITIES
  0
LWPOLYLINE
  5
B7
330
17
100
AcDbEntity
  8
S-TITLE
100
AcDbPolyline
 90
4
 70
1
 10
0.0
 20
0.0
 10
841.0
 20
0.0
 10
841.0
 20
594.0
 10
0.0
 20
594.0
  0
LWPOLYLINE
  5
B8
330
17
100
AcDbEntity
  8
S-TITLE
100
AcDbPolyline
 90
4
 70
1
 10
10.0
 20
10.0
 10
831.0
 20
10.0
 10
831.0
 20
584.0
 10
10.0
 20
584.0
  0
TEXT
  5
120
330
17
100
AcDbEntity
  8
S-TITLE
100
AcDbText
 10
16.0
 20
547.5
 30
0.0
 40
2.5
  1
1   DRAINAGE CONCEPT
  7
OpenSans
 11
16.0
 21
547.5
 31
0.0
100
AcDbText
  0
TEXT
  5
121
330
17
100
AcDbEntity
  8
S-NOTE
100
AcDbText
 10
16.0
 20
542.975
 30
0.0
 40
2.4
  1
THE STRUCTURE IS A TANKED BOX, NOT A DRAINED ONE.  That single decision
  7
OpenSans
 11
16.0
 21
542.975
 31
0.0
100
AcDbText
  0
TEXT
  5
122
330
17
100
AcDbEntity
  8
S-NOTE
100
AcDbText
 10
16.0
 20
538.6750000000001
 30
0.0
 40
2.4
  1
sets the whole strategy, and every sheet in this set obeys four rules.
  7
OpenSans
 11
16.0
 21
538.6750000000001
 31
0.0
100
AcDbText
  0
TEXT
  5
123
330
17
100
AcDbEntity
  8
S-NOTE
100
AcDbText
 10
16.0
 20
530.0750000000002
 30
0.0
 40
2.4
  1
1  NOTHING PENETRATES THE ROOF.  The 900 pressure slab carries 2.0 m of
  7
OpenSans
 11
16.0
 21
530.0750000000002
 31
0.0
100
AcDbText
  0
TEXT
  5
124
330
17
100
AcDbEntity
  8
S-NOTE
100
AcDbText
 10
16.0
 20
525.7750000000002
 30
0.0
 40
2.4
  1
   engineered cover whose second metre is bought for prompt neutron and
  7
OpenSans
 11
16.0
 21
525.7750000000002
 31
0.0
100
AcDbText
  0
TEXT
  5
125
330
17
100
AcDbEntity
  8
S-NOTE
100
AcDbText
 10
16.0
 20
521.4750000000003
 30
0.0
 40
2.4
  1
   gamma attenuation (master A.7.3).  A rainwater outlet, a vent stack or
  7
OpenSans
 11
16.0
 21
521.4750000000003
 31
0.0
100
AcDbText
  0
TEXT
  5
126
330
17
100
AcDbEntity
  8
S-NOTE
100
AcDbText
 10
16.0
 20
517.1750000000003
 30
0.0
 40
2.4
  1
   a soil stack through that cover would breach both the radiation mass
  7
OpenSans
 11
16.0
 21
517.1750000000003
 31
0.0
100
AcDbText
  0
TEXT
  5
127
330
17
100
AcDbEntity
  8
S-NOTE
100
AcDbText
 10
16.0
 20
512.8750000000003
 30
0.0
 40
2.4
  1
   and the roof membrane.  There is no downpipe on the buried roof and
  7
OpenSans
 11
16.0
 21
512.8750000000003
 31
0.0
100
AcDbText
  0
TEXT
  5
128
330
17
100
AcDbEntity
  8
S-NOTE
100
AcDbText
 10
16.0
 20
508.57500000000033
 30
0.0
 40
2.4
  1
   none is added by this package.
  7
OpenSans
 11
16.0
 21
508.57500000000033
 31
0.0
100
AcDbText
  0
TEXT
  5
129
330
17
100
AcDbEntity
  8
S-NOTE
100
AcDbText
 10
16.0
 20
499.9750000000003
 30
0.0
 40
2.4
  1
2  ONE ENVELOPE CROSSING.  Sheet S-06 records the service entry plate as
  7
OpenSans
 11
16.0
 21
499.9750000000003
 31
0.0
100
AcDbText
  0
TEXT
  5
12A
330
17
100
AcDbEntity
  8
S-NOTE
100
AcDbText
 10
16.0
 20
495.6750000000003
 30
0.0
 40
2.4
  1
   'the only penetration of the envelope'.  The sump rising main uses it.
  7
OpenSans
 11
16.0
 21
495.6750000000003
 31
0.0
100
AcDbText
  0
TEXT
  5
12B
330
17
100
AcDbEntity
  8
S-NOTE
100
AcDbText
 10
16.0
 20
491.3750000000003
 30
0.0
 40
2.4
  1
   No second drainage penetration is created.
  7
OpenSans
 11
16.0
 21
491.3750000000003
 31
0.0
100
AcDbText
  0
TEXT
  5
12C
330
17
100
AcDbEntity
  8
S-NOTE
100
AcDbText
 10
16.0
 20
482.77500000000026
 30
0.0
 40
2.4
  1
3  THREE STREAMS, NEVER COMBINED.  See the schematic below.
  7
OpenSans
 11
16.0
 21
482.77500000000026
 31
0.0
100
AcDbText
  0
TEXT
  5
12D
330
17
100
AcDbEntity
  8
S-NOTE
100
AcDbText
 10
16.0
 20
474.17500000000024
 30
0.0
 40
2.4
  1
4  DRAINAGE IS NOT IN THE SAFETY PATH.  Rev F drawing 5 note 9 states this
  7
OpenSans
 11
16.0
 21
474.17500000000024
 31
0.0
100
AcDbText
  0
TEXT
  5
12E
330
17
100
AcDbEntity
  8
S-NOTE
100
AcDbText
 10
16.0
 20
469.8750000000002
 30
0.0
 40
2.4
  1
   for the entry stairwell and it is held for the whole system: no
  7
OpenSans
 11
16.0
 21
469.8750000000002
 31
0.0
100
AcDbText
  0
TEXT
  5
12F
330
17
100
AcDbEntity
  8
S-NOTE
100
AcDbText
 10
16.0
 20
465.5750000000002
 30
0.0
 40
2.4
  1
   drainage failure may block egress, breach the envelope or flood an
  7
OpenSans
 11
16.0
 21
465.5750000000002
 31
0.0
100
AcDbText
  0
TEXT
  5
130
330
17
100
AcDbEntity
  8
S-NOTE
100
AcDbText
 10
16.0
 20
461.2750000000002
 30
0.0
 40
2.4
  1
   entrance.
  7
OpenSans
 11
16.0
 21
461.2750000000002
 31
0.0
100
AcDbText
  0
LWPOLYLINE
  5
131
330
17
100
AcDbEntity
  8
S-TITLE
100
AcDbPolyline
 90
4
 70
1
 10
14.0
 20
454.9750000000002
 10
278.0
 20
454.9750000000002
 10
278.0
 20
552.0
 10
14.0
 20
552.0
  0
TEXT
  5
132
330
17
100
AcDbEntity
  8
M-TITLE
100
AcDbText
 10
14.0
 20
446.9750000000002
 30
0.0
 40
2.5
  1
2   SYSTEM SCHEMATIC   -   SOURCE / COLLECTION / CONVEYANCE / DISCHARGE
  7
OpenSans
 11
14.0
 21
446.9750000000002
 31
0.0
100
AcDbText
  0
LWPOLYLINE
  5
133
330
17
100
AcDbEntity
  8
P-DRAIN-STORM
100
AcDbPolyline
 90
4
 70
1
 10
20.0
 20
421.9750000000002
 10
96.0
 20
421.9750000000002
 10
96.0
 20
438.9750000000002
 10
20.0
 20
438.9750000000002
  0
TEXT
  5
134
330
17
100
AcDbEntity
  8
M-TEXT
100
AcDbText
 10
58.0
 20
430.5100000000002
 30
0.0
 40
1.4
  1
RAIN  50 mm/h  [C]
  7
OpenSans
 72
1
 11
58.0
 21
430.5100000000002
 31
0.0
100
AcDbText
 73
2
  0
TEXT
  5
135
330
17
100
AcDbEntity
  8
M-TEXT
100
AcDbText
 10
58.0
 20
428.1300000000002
 30
0.0
 40
1.4
  1
roofs 41.4 m2 + cover 136.4 m2
  7
OpenSans
 72
1
 11
58.0
 21
428.1300000000002
 31
0.0
100
AcDbText
 73
2
  0
LWPOLYLINE
  5
136
330
17
100
AcDbEntity
  8
P-DRAIN-STORM
100
AcDbPolyline
 90
4
 70
1
 10
110.0
 20
421.9750000000002
 10
186.0
 20
421.9750000000002
 10
186.0
 20
438.9750000000002
 10
110.0
 20
438.9750000000002
  0
TEXT
  5
137
330
17
100
AcDbEntity
  8
M-TEXT
100
AcDbText
 10
148.0
 20
430.5100000000002
 30
0.0
 40
1.4
  1
GRADE 0.000 CROWNED
  7
OpenSans
 72
1
 11
148.0
 21
430.5100000000002
 31
0.0
100
AcDbText
 73
2
  0
TEXT
  5
138
330
17
100
AcDbEntity
  8
M-TEXT
100
AcDbText
 10
148.0
 20
428.1300000000002
 30
0.0
 40
1.4
  1
FALLS 1:50 AWAY  [C]
  7
OpenSans
 72
1
 11
148.0
 21
428.1300000000002
 31
0.0
100
AcDbText
 73
2
  0
LWPOLYLINE
  5
139
330
17
100
AcDbEntity
  8
P-DRAIN-STORM
100
AcDbPolyline
 90
4
 70
1
 10
200.0
 20
421.9750000000002
 10
276.0
 20
421.9750000000002
 10
276.0
 20
438.9750000000002
 10
200.0
 20
438.9750000000002
  0
TEXT
  5
13A
330
17
100
AcDbEntity
  8
M-TEXT
100
AcDbText
 10
238.0
 20
430.5100000000002
 30
0.0
 40
1.4
  1
SHEDS AT THE SURFACE
  7
OpenSans
 72
1
 11
238.0
 21
430.5100000000002
 31
0.0
100
AcDbText
 73
2
  0
TEXT
  5
13B
330
17
100
AcDbEntity
  8
M-TEXT
100
AcDbText
 10
238.0
 20
428.1300000000002
 30
0.0
 40
1.4
  1
TO THE BERM TOE
  7
OpenSans
 72
1
 11
238.0
 21
428.1300000000002
 31
0.0
100
AcDbText
 73
2
  0
LINE
  5
13C
330
17
100
AcDbEntity
  8
P-DRAIN-STORM
100
AcDbLine
 10
96.0
 20
430.4750000000002
 30
0.0
 11
110.0
 21
430.4750000000002
 31
0.0
  0
LWPOLYLINE
  5
13D
330
17
100
AcDbEntity
  8
P-DRAIN-STORM
100
AcDbPolyline
 90
3
 70
1
 10
104.0
 20
430.4750000000002
 10
100.92
 20
431.4650000000002
 10
100.92
 20
429.4850000000002
  0
LINE
  5
13E
330
17
100
AcDbEntity
  8
P-DRAIN-STORM
100
AcDbLine
 10
186.0
 20
430.4750000000002
 30
0.0
 11
200.0
 21
430.4750000000002
 31
0.0
  0
LWPOLYLINE
  5
13F
330
17
100
AcDbEntity
  8
P-DRAIN-STORM
100
AcDbPolyline
 90
3
 70
1
 10
194.0
 20
430.4750000000002
 10
190.92000000000002
 20
431.4650000000002
 10
190.92000000000002
 20
429.4850000000002
  0
LINE
  5
140
330
17
100
AcDbEntity
  8
M-WATERPROOF
100
AcDbLine
 10
20.0
 20
417.9750000000002
 30
0.0
 11
272.0
 21
417.9750000000002
 31
0.0
  0
TEXT
  5
141
330
17
100
AcDbEntity
  8
M-WATERPROOF
100
AcDbText
 10
146.0
 20
419.5750000000002
 30
0.0
 40
1.4
  1
CONTINUOUS TANKING MEMBRANE  -  R-805  -  THE ENVELOPE
  7
OpenSans
 72
1
 11
146.0
 21
419.5750000000002
 31
0.0
100
AcDbText
 73
1
  0
LWPOLYLINE
  5
142
330
17
100
AcDbEntity
  8
P-DRAIN-SEEP
100
AcDbPolyline
 90
4
 70
1
 10
20.0
 20
389.9750000000002
 10
96.0
 20
389.9750000000002
 10
96.0
 20
406.9750000000002
 10
20.0
 20
406.9750000000002
  0
TEXT
  5
143
330
17
100
AcDbEntity
  8
M-TEXT
100
AcDbText
 10
58.0
 20
398.5100000000002
 30
0.0
 40
1.4
  1
SEEPAGE 200 L/d  [C]
  7
OpenSans
 72
1
 11
58.0
 21
398.5100000000002
 31
0.0
100
AcDbText
 73
2
  0
TEXT
  5
144
330
17
100
AcDbEntity
  8
M-TEXT
100
AcDbText
 10
58.0
 20
396.1300000000002
 30
0.0
 40
1.4
  1
0.5 L/m2/d x 401 m2
  7
OpenSans
 72
1
 11
58.0
 21
396.1300000000002
 31
0.0
100
AcDbText
 73
2
  0
LWPOLYLINE
  5
145
330
17
100
AcDbEntity
  8
P-DRAIN-WASTE
100
AcDbPolyline
 90
4
 70
1
 10
110.0
 20
389.9750000000002
 10
186.0
 20
389.9750000000002
 10
186.0
 20
406.9750000000002
 10
110.0
 20
406.9750000000002
  0
TEXT
  5
146
330
17
100
AcDbEntity
  8
M-TEXT
100
AcDbText
 10
148.0
 20
398.5100000000002
 30
0.0
 40
1.4
  1
FLOOR FALLS + GULLIES
  7
OpenSans
 72
1
 11
148.0
 21
398.5100000000002
 31
0.0
100
AcDbText
 73
2
  0
TEXT
  5
147
330
17
100
AcDbEntity
  8
M-TEXT
100
AcDbText
 10
148.0
 20
396.1300000000002
 30
0.0
 40
1.4
  1
1:400 spine, 1:80 / 1:100
  7
OpenSans
 72
1
 11
148.0
 21
396.1300000000002
 31
0.0
100
AcDbText
 73
2
  0
LWPOLYLINE
  5
148
330
17
100
AcDbEntity
  8
P-EQUIP
100
AcDbPolyline
 90
4
 70
1
 10
200.0
 20
389.9750000000002
 10
276.0
 20
389.9750000000002
 10
276.0
 20
406.9750000000002
 10
200.0
 20
406.9750000000002
  0
TEXT
  5
149
330
17
100
AcDbEntity
  8
M-TEXT
100
AcDbText
 10
238.0
 20
398.5100000000002
 30
0.0
 40
1.4
  1
CLEAN SUMP  3.375 m3
  7
OpenSans
 72
1
 11
238.0
 21
398.5100000000002
 31
0.0
100
AcDbText
 73
2
  0
TEXT
  5
14A
330
17
100
AcDbEntity
  8
M-TEXT
100
AcDbText
 10
238.0
 20
396.1300000000002
 30
0.0
 40
1.4
  1
INVERT (-)7.600  [C]
  7
OpenSans
 72
1
 11
238.0
 21
396.1300000000002
 31
0.0
100
AcDbText
 73
2
  0
LINE
  5
14B
330
17
100
AcDbEntity
  8
P-DRAIN-SEEP
100
AcDbLine
 10
96.0
 20
398.4750000000002
 30
0.0
 11
110.0
 21
398.4750000000002
 31
0.0
  0
LWPOLYLINE
  5
14C
330
17
100
AcDbEntity
  8
P-DRAIN-SEEP
100
AcDbPolyline
 90
3
 70
1
 10
104.0
 20
398.4750000000002
 10
100.92
 20
399.4650000000002
 10
100.92
 20
397.4850000000002
  0
LINE
  5
14D
330
17
100
AcDbEntity
  8
P-DRAIN-WASTE
100
AcDbLine
 10
186.0
 20
398.4750000000002
 30
0.0
 11
200.0
 21
398.4750000000002
 31
0.0
  0
LWPOLYLINE
  5
14E
330
17
100
AcDbEntity
  8
P-DRAIN-WASTE
100
AcDbPolyline
 90
3
 70
1
 10
194.0
 20
398.4750000000002
 10
190.92000000000002
 20
399.4650000000002
 10
190.92000000000002
 20
397.4850000000002
  0
LWPOLYLINE
  5
14F
330
17
100
AcDbEntity
  8
P-DRAIN-WASTE
100
AcDbPolyline
 90
4
 70
1
 10
20.0
 20
367.9750000000002
 10
96.0
 20
367.9750000000002
 10
96.0
 20
384.9750000000002
 10
20.0
 20
384.9750000000002
  0
TEXT
  5
150
330
17
100
AcDbEntity
  8
M-TEXT
100
AcDbText
 10
58.0
 20
376.5100000000002
 30
0.0
 40
1.4
  1
CONDENSATE + WASHDOWN
  7
OpenSans
 72
1
 11
58.0
 21
376.5100000000002
 31
0.0
100
AcDbText
 73
2
  0
TEXT
  5
151
330
17
100
AcDbEntity
  8
M-TEXT
100
AcDbText
 10
58.0
 20
374.1300000000002
 30
0.0
 40
1.4
  1
200 L/d  [C]
  7
OpenSans
 72
1
 11
58.0
 21
374.1300000000002
 31
0.0
100
AcDbText
 73
2
  0
LINE
  5
152
330
17
100
AcDbEntity
  8
P-DRAIN-WASTE
100
AcDbLine
 10
58.0
 20
384.9750000000002
 30
0.0
 11
58.0
 21
391.9750000000002
 31
0.0
  0
LWPOLYLINE
  5
153
330
17
100
AcDbEntity
  8
P-DRAIN-WASTE
100
AcDbPolyline
 90
3
 70
1
 10
58.0
 20
389.4750000000002
 10
57.01
 20
386.3950000000002
 10
58.99
 20
386.3950000000002
  0
LINE
  5
154
330
17
100
AcDbEntity
  8
P-DRAIN-RISING
100
AcDbLine
 10
238.0
 20
389.9750000000002
 30
0.0
 11
238.0
 21
381.9750000000002
 31
0.0
  0
LWPOLYLINE
  5
155
330
17
100
AcDbEntity
  8
P-DRAIN-RISING
100
AcDbPolyline
 90
3
 70
1
 10
238.0
 20
384.9750000000002
 10
238.99
 20
388.0550000000002
 10
237.01
 20
388.0550000000002
  0
LWPOLYLINE
  5
156
330
17
100
AcDbEntity
  8
P-EQUIP
100
AcDbPolyline
 90
4
 70
1
 10
200.0
 20
364.9750000000002
 10
276.0
 20
364.9750000000002
 10
276.0
 20
381.9750000000002
 10
200.0
 20
381.9750000000002
  0
TEXT
  5
157
330
17
100
AcDbEntity
  8
M-TEXT
100
AcDbText
 10
238.0
 20
373.5100000000002
 30
0.0
 40
1.4
  1
2 x 1.5 L/s + HAND PUMP
  7
OpenSans
 72
1
 11
238.0
 21
373.5100000000002
 31
0.0
100
AcDbText
 73
2
  0
TEXT
  5
158
330
17
100
AcDbEntity
  8
M-TEXT
100
AcDbText
 10
238.0
 20
371.1300000000002
 30
0.0
 40
1.4
  1
ISOL / NRV / BCV / TRAP
  7
OpenSans
 72
1
 11
238.0
 21
371.1300000000002
 31
0.0
100
AcDbText
 73
2
  0
LWPOLYLINE
  5
159
330
17
100
AcDbEntity
  8
P-DRAIN-RISING
100
AcDbPolyline
 90
4
 70
1
 10
200.0
 20
341.9750000000002
 10
276.0
 20
341.9750000000002
 10
276.0
 20
358.9750000000002
 10
200.0
 20
358.9750000000002
  0
TEXT
  5
15A
330
17
100
AcDbEntity
  8
M-TEXT
100
AcDbText
 10
238.0
 20
350.5100000000002
 30
0.0
 40
1.4
  1
DN50 RISING MAIN
  7
OpenSans
 72
1
 11
238.0
 21
350.5100000000002
 31
0.0
100
AcDbText
 73
2
  0
TEXT
  5
15B
330
17
100
AcDbEntity
  8
M-TEXT
100
AcDbText
 10
238.0
 20
348.1300000000002
 30
0.0
 40
1.4
  1
SERVICE ENTRY PLATE
  7
OpenSans
 72
1
 11
238.0
 21
348.1300000000002
 31
0.0
100
AcDbText
 73
2
  0
LINE
  5
15C
330
17
100
AcDbEntity
  8
P-DRAIN-RISING
100
AcDbLine
 10
238.0
 20
341.9750000000002
 30
0.0
 11
238.0
 21
336.9750000000002
 31
0.0
  0
LWPOLYLINE
  5
15D
330
17
100
AcDbEntity
  8
P-DRAIN-RISING
100
AcDbPolyline
 90
3
 70
1
 10
238.0
 20
338.4750000000002
 10
238.99
 20
341.5550000000002
 10
237.01
 20
341.5550000000002
  0
LWPOLYLINE
  5
15E
330
17
100
AcDbEntity
  8
P-EQUIP
100
AcDbPolyline
 90
4
 70
1
 10
200.0
 20
319.9750000000002
 10
276.0
 20
319.9750000000002
 10
276.0
 20
336.9750000000002
 10
200.0
 20
336.9750000000002
  0
TEXT
  5
15F
330
17
100
AcDbEntity
  8
M-TEXT
100
AcDbText
 10
238.0
 20
328.5100000000002
 30
0.0
 40
1.4
  1
STORM SOAKAWAY  SK-02
  7
OpenSans
 72
1
 11
238.0
 21
328.5100000000002
 31
0.0
100
AcDbText
 73
2
  0
TEXT
  5
160
330
17
100
AcDbEntity
  8
M-TEXT
100
AcDbText
 10
238.0
 20
326.1300000000002
 30
0.0
 40
1.4
  1
21.99 m2  [A]  D3 OPEN
  7
OpenSans
 72
1
 11
238.0
 21
326.1300000000002
 31
0.0
100
AcDbText
 73
2
  0
LWPOLYLINE
  5
161
330
17
100
AcDbEntity
  8
P-DRAIN-EFF
100
AcDbPolyline
 90
4
 70
1
 10
20.0
 20
343.9750000000002
 10
96.0
 20
343.9750000000002
 10
96.0
 20
360.9750000000002
 10
20.0
 20
360.9750000000002
  0
TEXT
  5
162
330
17
100
AcDbEntity
  8
M-TEXT
100
AcDbText
 10
58.0
 20
352.5100000000002
 30
0.0
 40
1.4
  1
DECON EFFLUENT  [C]
  7
OpenSans
 72
1
 11
58.0
 21
352.5100000000002
 31
0.0
100
AcDbText
 73
2
  0
TEXT
  5
163
330
17
100
AcDbEntity
  8
M-TEXT
100
AcDbText
 10
58.0
 20
350.1300000000002
 30
0.0
 40
1.4
  1
airlock stages 1 + 2
  7
OpenSans
 72
1
 11
58.0
 21
350.1300000000002
 31
0.0
100
AcDbText
 73
2
  0
LWPOLYLINE
  5
164
330
17
100
AcDbEntity
  8
P-DRAIN-EFF
100
AcDbPolyline
 90
4
 70
1
 10
110.0
 20
343.9750000000002
 10
186.0
 20
343.9750000000002
 10
186.0
 20
360.9750000000002
 10
110.0
 20
360.9750000000002
  0
TEXT
  5
165
330
17
100
AcDbEntity
  8
M-TEXT
100
AcDbText
 10
148.0
 20
352.5100000000002
 30
0.0
 40
1.4
  1
1000 L TANK TK-01
  7
OpenSans
 72
1
 11
148.0
 21
352.5100000000002
 31
0.0
100
AcDbText
 73
2
  0
TEXT
  5
166
330
17
100
AcDbEntity
  8
M-TEXT
100
AcDbText
 10
148.0
 20
350.1300000000002
 30
0.0
 40
1.4
  1
*** ROUTE UNDEFINED ***
  7
OpenSans
 72
1
 11
148.0
 21
350.1300000000002
 31
0.0
100
AcDbText
 73
2
  0
LINE
  5
167
330
17
100
AcDbEntity
  8
P-DRAIN-EFF
100
AcDbLine
 10
96.0
 20
352.4750000000002
 30
0.0
 11
110.0
 21
352.4750000000002
 31
0.0
  0
LWPOLYLINE
  5
168
330
17
100
AcDbEntity
  8
P-DRAIN-EFF
100
AcDbPolyline
 90
3
 70
1
 10
104.0
 20
352.4750000000002
 10
100.92
 20
353.4650000000002
 10
100.92
 20
351.4850000000002
  0
TEXT
  5
169
330
17
100
AcDbEntity
  8
M-FLAG
100
AcDbText
 10
190.0
 20
352.4750000000002
 30
0.0
 40
1.4
  1
TANKER ONLY  -  NEVER TO THE CLEAN SUMP
  7
OpenSans
 11
190.0
 21
352.4750000000002
 31
0.0
100
AcDbText
 73
2
  0
LWPOLYLINE
  5
16A
330
17
100
AcDbEntity
  8
P-DRAIN-SOIL
100
AcDbPolyline
 90
4
 70
1
 10
20.0
 20
319.9750000000002
 10
96.0
 20
319.9750000000002
 10
96.0
 20
336.9750000000002
 10
20.0
 20
336.9750000000002
  0
TEXT
  5
16B
330
17
100
AcDbEntity
  8
M-TEXT
100
AcDbText
 10
58.0
 20
328.5100000000002
 30
0.0
 40
1.4
  1
FOUL, PEACETIME  [C]
  7
OpenSans
 72
1
 11
58.0
 21
328.5100000000002
 31
0.0
100
AcDbText
 73
2
  0
TEXT
  5
16C
330
17
100
AcDbEntity
  8
M-TEXT
100
AcDbText
 10
58.0
 20
326.1300000000002
 30
0.0
 40
1.4
  1
450 L/d, 10 users
  7
OpenSans
 72
1
 11
58.0
 21
326.1300000000002
 31
0.0
100
AcDbText
 73
2
  0
LWPOLYLINE
  5
16D
330
17
100
AcDbEntity
  8
P-DRAIN-SOIL
100
AcDbPolyline
 90
4
 70
1
 10
110.0
 20
319.9750000000002
 10
186.0
 20
319.9750000000002
 10
186.0
 20
336.9750000000002
 10
110.0
 20
336.9750000000002
  0
TEXT
  5
16E
330
17
100
AcDbEntity
  8
M-TEXT
100
AcDbText
 10
148.0
 20
328.5100000000002
 30
0.0
 40
1.4
  1
SEPTIC TANK  1.125 m3
  7
OpenSans
 72
1
 11
148.0
 21
328.5100000000002
 31
0.0
100
AcDbText
 73
2
  0
TEXT
  5
16F
330
17
100
AcDbEntity
  8
M-TEXT
100
AcDbText
 10
148.0
 20
326.1300000000002
 30
0.0
 40
1.4
  1
IS 2470 Pt 1 Table 1
  7
OpenSans
 72
1
 11
148.0
 21
326.1300000000002
 31
0.0
100
AcDbText
 73
2
  0
LINE
  5
170
330
17
100
AcDbEntity
  8
P-DRAIN-SOIL
100
AcDbLine
 10
96.0
 20
328.4750000000002
 30
0.0
 11
110.0
 21
328.4750000000002
 31
0.0
  0
LWPOLYLINE
  5
171
330
17
100
AcDbEntity
  8
P-DRAIN-SOIL
100
AcDbPolyline
 90
3
 70
1
 10
104.0
 20
328.4750000000002
 10
100.92
 20
329.4650000000002
 10
100.92
 20
327.4850000000002
  0
LWPOLYLINE
  5
172
330
17
100
AcDbEntity
  8
M-FLAG
100
AcDbPolyline
 90
4
 70
1
 10
110.0
 20
297.9750000000002
 10
186.0
 20
297.9750000000002
 10
186.0
 20
314.9750000000002
 10
110.0
 20
314.9750000000002
  0
TEXT
  5
173
330
17
100
AcDbEntity
  8
M-TEXT
100
AcDbText
 10
148.0
 20
306.5100000000002
 30
0.0
 40
1.4
  1
SOAK PIT  SK-01
  7
OpenSans
 72
1
 11
148.0
 21
306.5100000000002
 31
0.0
100
AcDbText
 73
2
  0
TEXT
  5
174
330
17
100
AcDbEntity
  8
M-TEXT
100
AcDbText
 10
148.0
 20
304.1300000000002
 30
0.0
 40
1.4
  1
*** 2.3 % SHORT - DR-C2 ***
  7
OpenSans
 72
1
 11
148.0
 21
304.1300000000002
 31
0.0
100
AcDbText
 73
2
  0
LINE
  5
175
330
17
100
AcDbEntity
  8
P-DRAIN-SOIL
100
AcDbLine
 10
148.0
 20
319.9750000000002
 30
0.0
 11
148.0
 21
314.9750000000002
 31
0.0
  0
LWPOLYLINE
  5
176
330
17
100
AcDbEntity
  8
P-DRAIN-SOIL
100
AcDbPolyline
 90
3
 70
1
 10
148.0
 20
316.4750000000002
 10
148.99
 20
319.5550000000002
 10
147.01
 20
319.5550000000002
  0
LWPOLYLINE
  5
177
330
17
100
AcDbEntity
  8
M-TITLE
100
AcDbPolyline
 90
4
 70
1
 10
14.0
 20
308.9750000000002
 10
278.0
 20
308.9750000000002
 10
278.0
 20
442.9750000000002
 10
14.0
 20
442.9750000000002
  0
TEXT
  5
178
330
17
100
AcDbEntity
  8
S-TITLE
100
AcDbText
 10
16.0
 20
300.4750000000002
 30
0.0
 40
2.5
  1
3   FINAL DISCHARGE
  7
OpenSans
 11
16.0
 21
300.4750000000002
 31
0.0
100
AcDbText
  0
TEXT
  5
179
330
17
100
AcDbEntity
  8
S-NOTE
100
AcDbText
 10
16.0
 20
295.9500000000002
 30
0.0
 40
2.4
  1
*** THE FINAL DISCHARGE OF THE WHOLE SITE IS TO GROUND, ON SITE. ***
  7
OpenSans
 11
16.0
 21
295.9500000000002
 31
0.0
100
AcDbText
  0
TEXT
  5
17A
330
17
100
AcDbEntity
  8
S-NOTE
100
AcDbText
 10
16.0
 20
291.6500000000002
 30
0.0
 40
2.4
  1
No municipal sewer connection, no municipal storm connection, no outfall
  7
OpenSans
 11
16.0
 21
291.6500000000002
 31
0.0
100
AcDbText
  0
TEXT
  5
17B
330
17
100
AcDbEntity
  8
S-NOTE
100
AcDbText
 10
16.0
 20
287.3500000000002
 30
0.0
 40
2.4
  1
and no receiving watercourse appears anywhere in the project.  Whether
  7
OpenSans
 11
16.0
 21
287.3500000000002
 31
0.0
100
AcDbText
  0
TEXT
  5
17C
330
17
100
AcDbEntity
  8
S-NOTE
100
AcDbText
 10
16.0
 20
283.0500000000002
 30
0.0
 40
2.4
  1
any is available at this site is OPEN ITEM D3 - DATA REQUIRED.  Every
  7
OpenSans
 11
16.0
 21
283.0500000000002
 31
0.0
100
AcDbText
  0
TEXT
  5
17D
330
17
100
AcDbEntity
  8
S-NOTE
100
AcDbText
 10
16.0
 20
278.75000000000017
 30
0.0
 40
2.4
  1
discharge shown above therefore rests on the PERCOLATION TEST that
  7
OpenSans
 11
16.0
 21
278.75000000000017
 31
0.0
100
AcDbText
  0
TEXT
  5
17E
330
17
100
AcDbEntity
  8
S-NOTE
100
AcDbText
 10
16.0
 20
274.45000000000016
 30
0.0
 40
2.4
  1
master K.2 A7 already makes mandatory (IS 2470 Pt 2 Cl. 4).
  7
OpenSans
 11
16.0
 21
274.45000000000016
 31
0.0
100
AcDbText
  0
LWPOLYLINE
  5
17F
330
17
100
AcDbEntity
  8
S-TITLE
100
AcDbPolyline
 90
4
 70
1
 10
14.0
 20
268.15000000000015
 10
278.0
 20
268.15000000000015
 10
278.0
 20
304.9750000000002
 10
14.0
 20
304.9750000000002
  0
TEXT
  5
180
330
17
100
AcDbEntity
  8
S-TITLE
100
AcDbText
 10
288.0
 20
547.5
 30
0.0
 40
2.5
  1
5   GENERAL NOTES
  7
OpenSans
 11
288.0
 21
547.5
 31
0.0
100
AcDbText
  0
TEXT
  5
181
330
17
100
AcDbEntity
  8
S-NOTE
100
AcDbText
 10
288.0
 20
542.975
 30
0.0
 40
2.4
  1
 1  ALL DIMENSIONS IN MILLIMETRES.  ALL LEVELS IN METRES RELATIVE TO
  7
OpenSans
 11
288.0
 21
542.975
 31
0.0
100
AcDbText
  0
TEXT
  5
182
330
17
100
AcDbEntity
  8
S-NOTE
100
AcDbText
 10
288.0
 20
538.6750000000001
 30
0.0
 40
2.4
  1
    FINISHED SITE GRADE 0.000, NEGATIVE DOWNWARDS.  The coordinate origin
  7
OpenSans
 11
288.0
 21
538.6750000000001
 31
0.0
100
AcDbText
  0
TEXT
  5
183
330
17
100
AcDbEntity
  8
S-NOTE
100
AcDbText
 10
288.0
 20
534.3750000000001
 30
0.0
 40
2.4
  1
    is the south-west EXTERNAL corner of the underground box at grade
  7
OpenSans
 11
288.0
 21
534.3750000000001
 31
0.0
100
AcDbText
  0
TEXT
  5
184
330
17
100
AcDbEntity
  8
S-NOTE
100
AcDbText
 10
288.0
 20
530.0750000000002
 30
0.0
 40
2.4
  1
    (master A.4.1);  X east 0-22000, Y north 0-6200.
  7
OpenSans
 11
288.0
 21
530.0750000000002
 31
0.0
100
AcDbText
  0
TEXT
  5
185
330
17
100
AcDbEntity
  8
S-NOTE
100
AcDbText
 10
288.0
 20
525.7750000000002
 30
0.0
 40
2.4
  1
 2  READ WITH  master/MASTER_PROJECT_STATE.md,  sheet S-06,  the ten Rev F
  7
OpenSans
 11
288.0
 21
525.7750000000002
 31
0.0
100
AcDbText
  0
TEXT
  5
186
330
17
100
AcDbEntity
  8
S-NOTE
100
AcDbText
 10
288.0
 20
521.4750000000003
 30
0.0
 40
2.4
  1
    architectural drawings, and R-805 waterproofing / structural interface.
  7
OpenSans
 11
288.0
 21
521.4750000000003
 31
0.0
100
AcDbText
  0
TEXT
  5
187
330
17
100
AcDbEntity
  8
S-NOTE
100
AcDbText
 10
288.0
 20
517.1750000000003
 30
0.0
 40
2.4
  1
 3  DO NOT SCALE.  Work to figured dimensions and to the schedules.
  7
OpenSans
 11
288.0
 21
517.1750000000003
 31
0.0
100
AcDbText
  0
TEXT
  5
188
330
17
100
AcDbEntity
  8
S-NOTE
100
AcDbText
 10
288.0
 20
512.8750000000003
 30
0.0
 40
2.4
  1
 4  EVERY VALUE ON THIS SET CARRIES AN EVIDENCE CLASS.  Nothing marked
  7
OpenSans
 11
288.0
 21
512.8750000000003
 31
0.0
100
AcDbText
  0
TEXT
  5
189
330
17
100
AcDbEntity
  8
S-NOTE
100
AcDbText
 10
288.0
 20
508.57500000000033
 30
0.0
 40
2.4
  1
    [A], [U] or [N] may be built from without written confirmation.
  7
OpenSans
 11
288.0
 21
508.57500000000033
 31
0.0
100
AcDbText
  0
TEXT
  5
18A
330
17
100
AcDbEntity
  8
S-NOTE
100
AcDbText
 10
288.0
 20
504.2750000000003
 30
0.0
 40
2.4
  1
 5  THE 600 MAT AND THE 900 ROOF SLAB SHALL NOT BE CUT, CHASED OR CORED
  7
OpenSans
 11
288.0
 21
504.2750000000003
 31
0.0
100
AcDbText
  0
TEXT
  5
18B
330
17
100
AcDbEntity
  8
S-NOTE
100
AcDbText
 10
288.0
 20
499.9750000000003
 30
0.0
 40
2.4
  1
    for drainage.  The one exception requested is BW-01, note 12.
  7
OpenSans
 11
288.0
 21
499.9750000000003
 31
0.0
100
AcDbText
  0
TEXT
  5
18C
330
17
100
AcDbEntity
  8
S-NOTE
100
AcDbText
 10
288.0
 20
495.6750000000003
 30
0.0
 40
2.4
  1
 6  ALL TRAPS INSIDE THE GAS-TIGHT ENVELOPE: 75 mm DEEP SEAL, PRIMED.  An
  7
OpenSans
 11
288.0
 21
495.6750000000003
 31
0.0
100
AcDbText
  0
TEXT
  5
18D
330
17
100
AcDbEntity
  8
S-NOTE
100
AcDbText
 10
288.0
 20
491.3750000000003
 30
0.0
 40
2.4
  1
    evaporated seal is an envelope breach, not a smell.  Trap primers or
  7
OpenSans
 11
288.0
 21
491.3750000000003
 31
0.0
100
AcDbText
  0
TEXT
  5
18E
330
17
100
AcDbEntity
  8
S-NOTE
100
AcDbText
 10
288.0
 20
487.0750000000003
 30
0.0
 40
2.4
  1
    a written weekly priming task are mandatory.
  7
OpenSans
 11
288.0
 21
487.0750000000003
 31
0.0
100
AcDbText
  0
TEXT
  5
18F
330
17
100
AcDbEntity
  8
S-NOTE
100
AcDbText
 10
288.0
 20
482.77500000000026
 30
0.0
 40
2.4
  1
 7  THRESHOLD UPSTANDS 50 mm AT W5 AND AT BLAST DOOR 1.  No water may run
  7
OpenSans
 11
288.0
 21
482.77500000000026
 31
0.0
100
AcDbText
  0
TEXT
  5
190
330
17
100
AcDbEntity
  8
S-NOTE
100
AcDbText
 10
288.0
 20
478.47500000000025
 30
0.0
 40
2.4
  1
    from the decon airlock or the stair shaft into the clean zone.
  7
OpenSans
 11
288.0
 21
478.47500000000025
 31
0.0
100
AcDbText
  0
TEXT
  5
191
330
17
100
AcDbEntity
  8
S-NOTE
100
AcDbText
 10
288.0
 20
474.17500000000024
 30
0.0
 40
2.4
  1
 8  DECON EFFLUENT IS SEGREGATED THROUGHOUT and is never connected to the
  7
OpenSans
 11
288.0
 21
474.17500000000024
 31
0.0
100
AcDbText
  0
TEXT
  5
192
330
17
100
AcDbEntity
  8
S-NOTE
100
AcDbText
 10
288.0
 20
469.8750000000002
 30
0.0
 40
2.4
  1
    clean sump or to any clean drain, anywhere, under any circumstance.
  7
OpenSans
 11
288.0
 21
469.8750000000002
 31
0.0
100
AcDbText
  0
TEXT
  5
193
330
17
100
AcDbEntity
  8
S-NOTE
100
AcDbText
 10
288.0
 20
465.5750000000002
 30
0.0
 40
2.4
  1
 9  EVERY PIPE CROSSING THE TANK requires a puddle flange welded to the
  7
OpenSans
 11
288.0
 21
465.5750000000002
 31
0.0
100
AcDbText
  0
TEXT
  5
194
330
17
100
AcDbEntity
  8
S-NOTE
100
AcDbText
 10
288.0
 20
461.2750000000002
 30
0.0
 40
2.4
  1
    sleeve with the membrane dressed and clamped to it - see D-304.
  7
OpenSans
 11
288.0
 21
461.2750000000002
 31
0.0
100
AcDbText
  0
TEXT
  5
195
330
17
100
AcDbEntity
  8
S-NOTE
100
AcDbText
 10
288.0
 20
456.9750000000002
 30
0.0
 40
2.4
  1
10  RODDING ACCESS at every change of direction and at every gully.
  7
OpenSans
 11
288.0
 21
456.9750000000002
 31
0.0
100
AcDbText
  0
TEXT
  5
196
330
17
100
AcDbEntity
  8
S-NOTE
100
AcDbText
 10
288.0
 20
452.6750000000002
 30
0.0
 40
2.4
  1
11  NO DRAINAGE ELEMENT IS PLACED IN THE MAIN STAIRCASE - not in the
  7
OpenSans
 11
288.0
 21
452.6750000000002
 31
0.0
100
AcDbText
  0
TEXT
  5
197
330
17
100
AcDbEntity
  8
S-NOTE
100
AcDbText
 10
288.0
 20
448.37500000000017
 30
0.0
 40
2.4
  1
    flights, not in the well, not on the landings.  Its geometry is frozen.
  7
OpenSans
 11
288.0
 21
448.37500000000017
 31
0.0
100
AcDbText
  0
TEXT
  5
198
330
17
100
AcDbEntity
  8
S-NOTE
100
AcDbText
 10
288.0
 20
444.07500000000016
 30
0.0
 40
2.4
  1
12  BUILDER'S WORK BW-01 - REQUESTED, NOT ACCEPTED.  PD-01 needs a 300 wide
  7
OpenSans
 11
288.0
 21
444.07500000000016
 31
0.0
100
AcDbText
  0
TEXT
  5
199
330
17
100
AcDbEntity
  8
S-NOTE
100
AcDbText
 10
288.0
 20
439.77500000000015
 30
0.0
 40
2.4
  1
    recess in the top of the mat, 216 deep at the sump end, leaving 384 of
  7
OpenSans
 11
288.0
 21
439.77500000000015
 31
0.0
100
AcDbText
  0
TEXT
  5
19A
330
17
100
AcDbEntity
  8
S-NOTE
100
AcDbText
 10
288.0
 20
435.47500000000014
 30
0.0
 40
2.4
  1
    the 600 mat locally.  The mat is the most heavily utilised element in
  7
OpenSans
 11
288.0
 21
435.47500000000014
 31
0.0
100
AcDbText
  0
TEXT
  5
19B
330
17
100
AcDbEntity
  8
S-NOTE
100
AcDbText
 10
288.0
 20
431.1750000000001
 30
0.0
 40
2.4
  1
    the project at 84 % (master B.3).  STRUCTURAL ENGINEER TO ACCEPT OR
  7
OpenSans
 11
288.0
 21
431.1750000000001
 31
0.0
100
AcDbText
  0
TEXT
  5
19C
330
17
100
AcDbEntity
  8
S-NOTE
100
AcDbText
 10
288.0
 20
426.8750000000001
 30
0.0
 40
2.4
  1
    REFUSE.  If refused, D-201 note 6 applies and there is no buried drain
  7
OpenSans
 11
288.0
 21
426.8750000000001
 31
0.0
100
AcDbText
  0
TEXT
  5
19D
330
17
100
AcDbEntity
  8
S-NOTE
100
AcDbText
 10
288.0
 20
422.5750000000001
 30
0.0
 40
2.4
  1
    inside the envelope at all.
  7
OpenSans
 11
288.0
 21
422.5750000000001
 31
0.0
100
AcDbText
  0
LWPOLYLINE
  5
19E
330
17
100
AcDbEntity
  8
S-TITLE
100
AcDbPolyline
 90
4
 70
1
 10
286.0
 20
416.2750000000001
 10
550.0
 20
416.2750000000001
 10
550.0
 20
552.0
 10
286.0
 20
552.0
  0
TEXT
  5
19F
330
17
100
AcDbEntity
  8
S-TITLE
100
AcDbText
 10
288.0
 20
405.7750000000001
 30
0.0
 40
2.5
  1
6   TESTING AND COMMISSIONING
  7
OpenSans
 11
288.0
 21
405.7750000000001
 31
0.0
100
AcDbText
  0
TEXT
  5
1A0
330
17
100
AcDbEntity
  8
S-NOTE
100
AcDbText
 10
288.0
 20
401.2500000000001
 30
0.0
 40
2.4
  1
1  All gravity drains: water test before covering, and a rodding test
  7
OpenSans
 11
288.0
 21
401.2500000000001
 31
0.0
100
AcDbText
  0
TEXT
  5
1A1
330
17
100
AcDbEntity
  8
S-NOTE
100
AcDbText
 10
288.0
 20
396.9500000000001
 30
0.0
 40
2.4
  1
   over the full length of every run.
  7
OpenSans
 11
288.0
 21
396.9500000000001
 31
0.0
100
AcDbText
  0
TEXT
  5
1A2
330
17
100
AcDbEntity
  8
S-NOTE
100
AcDbText
 10
288.0
 20
392.6500000000001
 30
0.0
 40
2.4
  1
2  All rising mains: hydraulic test to 1.5 x the working pressure, held
  7
OpenSans
 11
288.0
 21
392.6500000000001
 31
0.0
100
AcDbText
  0
TEXT
  5
1A3
330
17
100
AcDbEntity
  8
S-NOTE
100
AcDbText
 10
288.0
 20
388.3500000000001
 30
0.0
 40
2.4
  1
   for 30 minutes with no measurable drop.
  7
OpenSans
 11
288.0
 21
388.3500000000001
 31
0.0
100
AcDbText
  0
TEXT
  5
1A4
330
17
100
AcDbEntity
  8
S-NOTE
100
AcDbText
 10
288.0
 20
384.05000000000007
 30
0.0
 40
2.4
  1
3  Every sleeve and puddle flange through the tank: witnessed by the
  7
OpenSans
 11
288.0
 21
384.05000000000007
 31
0.0
100
AcDbText
  0
TEXT
  5
1A5
330
17
100
AcDbEntity
  8
S-NOTE
100
AcDbText
 10
288.0
 20
379.75000000000006
 30
0.0
 40
2.4
  1
   waterproofing installer BEFORE the membrane is dressed to it.  A
  7
OpenSans
 11
288.0
 21
379.75000000000006
 31
0.0
100
AcDbText
  0
TEXT
  5
1A6
330
17
100
AcDbEntity
  8
S-NOTE
100
AcDbText
 10
288.0
 20
375.45000000000005
 30
0.0
 40
2.4
  1
   penetration that fails after tanking cannot be reworked from inside.
  7
OpenSans
 11
288.0
 21
375.45000000000005
 31
0.0
100
AcDbText
  0
TEXT
  5
1A7
330
17
100
AcDbEntity
  8
S-NOTE
100
AcDbText
 10
288.0
 20
371.15000000000003
 30
0.0
 40
2.4
  1
4  Clean sump: prove level control, duty/standby auto-alternation, the
  7
OpenSans
 11
288.0
 21
371.15000000000003
 31
0.0
100
AcDbText
  0
TEXT
  5
1A8
330
17
100
AcDbEntity
  8
S-NOTE
100
AcDbText
 10
288.0
 20
366.85
 30
0.0
 40
2.4
  1
   high-level alarm at +1200, AND the hand pump, each independently.
  7
OpenSans
 11
288.0
 21
366.85
 31
0.0
100
AcDbText
  0
TEXT
  5
1A9
330
17
100
AcDbEntity
  8
S-NOTE
100
AcDbText
 10
288.0
 20
362.55
 30
0.0
 40
2.4
  1
5  Trap seals: fill, then re-check after the envelope leak test at
  7
OpenSans
 11
288.0
 21
362.55
 31
0.0
100
AcDbText
  0
TEXT
  5
1AA
330
17
100
AcDbEntity
  8
S-NOTE
100
AcDbText
 10
288.0
 20
358.25
 30
0.0
 40
2.4
  1
   +300 Pa.  A trap that has blown is a failed envelope test, not a
  7
OpenSans
 11
288.0
 21
358.25
 31
0.0
100
AcDbText
  0
TEXT
  5
1AB
330
17
100
AcDbEntity
  8
S-NOTE
100
AcDbText
 10
288.0
 20
353.95
 30
0.0
 40
2.4
  1
   drainage snag.
  7
OpenSans
 11
288.0
 21
353.95
 31
0.0
100
AcDbText
  0
TEXT
  5
1AC
330
17
100
AcDbEntity
  8
S-NOTE
100
AcDbText
 10
288.0
 20
349.65
 30
0.0
 40
2.4
  1
6  Record the AS-BUILT invert of every drain.  The design inverts on
  7
OpenSans
 11
288.0
 21
349.65
 31
0.0
100
AcDbText
  0
TEXT
  5
1AD
330
17
100
AcDbEntity
  8
S-NOTE
100
AcDbText
 10
288.0
 20
345.34999999999997
 30
0.0
 40
2.4
  1
   this set are calculated, not surveyed.
  7
OpenSans
 11
288.0
 21
345.34999999999997
 31
0.0
100
AcDbText
  0
LWPOLYLINE
  5
1AE
330
17
100
AcDbEntity
  8
S-TITLE
100
AcDbPolyline
 90
4
 70
1
 10
286.0
 20
339.04999999999995
 10
550.0
 20
339.04999999999995
 10
550.0
 20
410.2750000000001
 10
286.0
 20
410.2750000000001
  0
TEXT
  5
1AF
330
17
100
AcDbEntity
  8
S-TITLE
100
AcDbText
 10
288.0
 20
328.54999999999995
 30
0.0
 40
2.5
  1
7   OPERATION AND MAINTENANCE
  7
OpenSans
 11
288.0
 21
328.54999999999995
 31
0.0
100
AcDbText
  0
TEXT
  5
1B0
330
17
100
AcDbEntity
  8
S-NOTE
100
AcDbText
 10
288.0
 20
324.025
 30
0.0
 40
2.4
  1
WEEKLY   prime every trap inside the gas-tight envelope, or prove the
  7
OpenSans
 11
288.0
 21
324.025
 31
0.0
100
AcDbText
  0
TEXT
  5
1B1
330
17
100
AcDbEntity
  8
S-NOTE
100
AcDbText
 10
288.0
 20
319.72499999999997
 30
0.0
 40
2.4
  1
         automatic primers.  An evaporated seal is an envelope breach.
  7
OpenSans
 11
288.0
 21
319.72499999999997
 31
0.0
100
AcDbText
  0
TEXT
  5
1B2
330
17
100
AcDbEntity
  8
S-NOTE
100
AcDbText
 10
288.0
 20
315.42499999999995
 30
0.0
 40
2.4
  1
MONTHLY  witnessed test of the STANDBY pump path and of the hand pump.
  7
OpenSans
 11
288.0
 21
315.42499999999995
 31
0.0
100
AcDbText
  0
TEXT
  5
1B3
330
17
100
AcDbEntity
  8
S-NOTE
100
AcDbText
 10
288.0
 20
311.12499999999994
 30
0.0
 40
2.4
  1
         At a 0.31 % duty ratio a failed standby is never discovered by
  7
OpenSans
 11
288.0
 21
311.12499999999994
 31
0.0
100
AcDbText
  0
TEXT
  5
1B4
330
17
100
AcDbEntity
  8
S-NOTE
100
AcDbText
 10
288.0
 20
306.82499999999993
 30
0.0
 40
2.4
  1
         use (finding DR-F1).  Test the high-level alarm at the panel.
  7
OpenSans
 11
288.0
 21
306.82499999999993
 31
0.0
100
AcDbText
  0
TEXT
  5
1B5
330
17
100
AcDbEntity
  8
S-NOTE
100
AcDbText
 10
288.0
 20
302.5249999999999
 30
0.0
 40
2.4
  1
QUARTERLY  empty the silt bucket in CP-10 and rod the threshold channel.
  7
OpenSans
 11
288.0
 21
302.5249999999999
 31
0.0
100
AcDbText
  0
TEXT
  5
1B6
330
17
100
AcDbEntity
  8
S-NOTE
100
AcDbText
 10
288.0
 20
298.2249999999999
 30
0.0
 40
2.4
  1
ANNUAL   de-sludge the septic tank (IS 2470 Pt 1 Cl. 6.3 sizes it for a
  7
OpenSans
 11
288.0
 21
298.2249999999999
 31
0.0
100
AcDbText
  0
TEXT
  5
1B7
330
17
100
AcDbEntity
  8
S-NOTE
100
AcDbText
 10
288.0
 20
293.9249999999999
 30
0.0
 40
2.4
  1
         2-year sludge interval; annual inspection, 2-yearly removal).
  7
OpenSans
 11
288.0
 21
293.9249999999999
 31
0.0
100
AcDbText
  0
TEXT
  5
1B8
330
17
100
AcDbEntity
  8
S-NOTE
100
AcDbText
 10
288.0
 20
289.6249999999999
 30
0.0
 40
2.4
  1
         Inspect the soakaway and the soak pit for ponding - ponding is
  7
OpenSans
 11
288.0
 21
289.6249999999999
 31
0.0
100
AcDbText
  0
TEXT
  5
1B9
330
17
100
AcDbEntity
  8
S-NOTE
100
AcDbText
 10
288.0
 20
285.3249999999999
 30
0.0
 40
2.4
  1
         the first sign that the absorption assumption A7 was optimistic.
  7
OpenSans
 11
288.0
 21
285.3249999999999
 31
0.0
100
AcDbText
  0
TEXT
  5
1BA
330
17
100
AcDbEntity
  8
S-NOTE
100
AcDbText
 10
288.0
 20
281.02499999999986
 30
0.0
 40
2.4
  1
ON USE   decon effluent tank TK-01 is tankered out AFTER THE ALL-CLEAR.
  7
OpenSans
 11
288.0
 21
281.02499999999986
 31
0.0
100
AcDbText
  0
TEXT
  5
1BB
330
17
100
AcDbEntity
  8
S-NOTE
100
AcDbText
 10
288.0
 20
276.72499999999985
 30
0.0
 40
2.4
  1
         It is never emptied to any drain on this site.
  7
OpenSans
 11
288.0
 21
276.72499999999985
 31
0.0
100
AcDbText
  0
LWPOLYLINE
  5
1BC
330
17
100
AcDbEntity
  8
S-TITLE
100
AcDbPolyline
 90
4
 70
1
 10
286.0
 20
270.42499999999984
 10
550.0
 20
270.42499999999984
 10
550.0
 20
333.04999999999995
 10
286.0
 20
333.04999999999995
  0
TEXT
  5
1BD
330
17
100
AcDbEntity
  8
S-TITLE
100
AcDbText
 10
288.0
 20
259.92499999999984
 30
0.0
 40
2.5
  1
8   CONSTRUCTION-STAGE DRAINAGE  -  master B.3 mitigation
  7
OpenSans
 11
288.0
 21
259.92499999999984
 31
0.0
100
AcDbText
  0
TEXT
  5
1BE
330
17
100
AcDbEntity
  8
S-NOTE
100
AcDbText
 10
288.0
 20
255.39999999999984
 30
0.0
 40
2.4
  1
The permanent drainage above does not operate during construction, and
  7
OpenSans
 11
288.0
 21
255.39999999999984
 31
0.0
100
AcDbText
  0
TEXT
  5
1BF
330
17
100
AcDbEntity
  8
S-NOTE
100
AcDbText
 10
288.0
 20
251.09999999999982
 30
0.0
 40
2.4
  1
the flotation case governs then.  Master B.3 already makes these
  7
OpenSans
 11
288.0
 21
251.09999999999982
 31
0.0
100
AcDbText
  0
TEXT
  5
1C0
330
17
100
AcDbEntity
  8
S-NOTE
100
AcDbText
 10
288.0
 20
246.7999999999998
 30
0.0
 40
2.4
  1
mandatory; they are repeated here because they are drainage work:
  7
OpenSans
 11
288.0
 21
246.7999999999998
 31
0.0
100
AcDbText
  0
TEXT
  5
1C1
330
17
100
AcDbEntity
  8
S-NOTE
100
AcDbText
 10
288.0
 20
242.4999999999998
 30
0.0
 40
2.4
  1
  1  CONTINUOUS DEWATERING from the start of excavation until backfill
  7
OpenSans
 11
288.0
 21
242.4999999999998
 31
0.0
100
AcDbText
  0
TEXT
  5
1C2
330
17
100
AcDbEntity
  8
S-NOTE
100
AcDbText
 10
288.0
 20
238.1999999999998
 30
0.0
 40
2.4
  1
     and cover are complete.  FoS against flotation is 0.33 at the
  7
OpenSans
 11
288.0
 21
238.1999999999998
 31
0.0
100
AcDbText
  0
TEXT
  5
1C3
330
17
100
AcDbEntity
  8
S-NOTE
100
AcDbText
 10
288.0
 20
233.89999999999978
 30
0.0
 40
2.4
  1
     mat-only stage and 0.78 with the walls up.
  7
OpenSans
 11
288.0
 21
233.89999999999978
 31
0.0
100
AcDbText
  0
TEXT
  5
1C4
330
17
100
AcDbEntity
  8
S-NOTE
100
AcDbText
 10
288.0
 20
229.59999999999977
 30
0.0
 40
2.4
  1
  2  SIX TEMPORARY PRESSURE-RELIEF VALVES / KNOCK-OUT PLUGS in the mat
  7
OpenSans
 11
288.0
 21
229.59999999999977
 31
0.0
100
AcDbText
  0
TEXT
  5
1C5
330
17
100
AcDbEntity
  8
S-NOTE
100
AcDbText
 10
288.0
 20
225.29999999999976
 30
0.0
 40
2.4
  1
     (shown on S-02), GROUTED UP ONLY AFTER BACKFILL.
  7
OpenSans
 11
288.0
 21
225.29999999999976
 31
0.0
100
AcDbText
  0
TEXT
  5
1C6
330
17
100
AcDbEntity
  8
S-NOTE
100
AcDbText
 10
288.0
 20
220.99999999999974
 30
0.0
 40
2.4
  1
  3  Programme the sub-structure to complete before the monsoon, or bund
  7
OpenSans
 11
288.0
 21
220.99999999999974
 31
0.0
100
AcDbText
  0
TEXT
  5
1C7
330
17
100
AcDbEntity
  8
S-NOTE
100
AcDbText
 10
288.0
 20
216.69999999999973
 30
0.0
 40
2.4
  1
     and positively drain with standby pumping and generator back-up.
  7
OpenSans
 11
288.0
 21
216.69999999999973
 31
0.0
100
AcDbText
  0
TEXT
  5
1C8
330
17
100
AcDbEntity
  8
S-NOTE
100
AcDbText
 10
288.0
 20
212.39999999999972
 30
0.0
 40
2.4
  1
  4  Backfill SYMMETRICALLY, in layers.
  7
OpenSans
 11
288.0
 21
212.39999999999972
 31
0.0
100
AcDbText
  0
TEXT
  5
1C9
330
17
100
AcDbEntity
  8
S-NOTE
100
AcDbText
 10
288.0
 20
208.0999999999997
 30
0.0
 40
2.4
  1
The permanent sump and its pumps are NOT a construction dewatering
  7
OpenSans
 11
288.0
 21
208.0999999999997
 31
0.0
100
AcDbText
  0
TEXT
  5
1CA
330
17
100
AcDbEntity
  8
S-NOTE
100
AcDbText
 10
288.0
 20
203.7999999999997
 30
0.0
 40
2.4
  1
system and shall not be used as one.
  7
OpenSans
 11
288.0
 21
203.7999999999997
 31
0.0
100
AcDbText
  0
LWPOLYLINE
  5
1CB
330
17
100
AcDbEntity
  8
S-TITLE
100
AcDbPolyline
 90
4
 70
1
 10
286.0
 20
197.4999999999997
 10
550.0
 20
197.4999999999997
 10
550.0
 20
264.42499999999984
 10
286.0
 20
264.42499999999984
  0
TEXT
  5
1CC
330
17
100
AcDbEntity
  8
S-TITLE
100
AcDbText
 10
288.0
 20
186.9999999999997
 30
0.0
 40
2.5
  1
9   CODES AND STANDARDS
  7
OpenSans
 11
288.0
 21
186.9999999999997
 31
0.0
100
AcDbText
  0
TEXT
  5
1CD
330
17
100
AcDbEntity
  8
S-NOTE
100
AcDbText
 10
288.0
 20
182.47499999999968
 30
0.0
 40
2.4
  1
IN THE MASTER PART G REGISTER  -  clauses quoted:
  7
OpenSans
 11
288.0
 21
182.47499999999968
 31
0.0
100
AcDbText
  0
TEXT
  5
1CE
330
17
100
AcDbEntity
  8
S-NOTE
100
AcDbText
 10
288.0
 20
178.17499999999967
 30
0.0
 40
2.4
  1
    IS 2470 (Pt 1):1985   septic tank - Cl. 6.2, 6.3, 6.5, 6.6, 6.9, Table 1
  7
OpenSans
 11
288.0
 21
178.17499999999967
 31
0.0
100
AcDbText
  0
TEXT
  5
1CF
330
17
100
AcDbEntity
  8
S-NOTE
100
AcDbText
 10
288.0
 20
173.87499999999966
 30
0.0
 40
2.4
  1
    IS 2470 (Pt 2):1985   soak pit - Cl. 4 percolation test, Cl. 5 dispersion
  7
OpenSans
 11
288.0
 21
173.87499999999966
 31
0.0
100
AcDbText
  0
TEXT
  5
1D0
330
17
100
AcDbEntity
  8
S-NOTE
100
AcDbText
 10
288.0
 20
169.57499999999965
 30
0.0
 40
2.4
  1
    IS 456:2000           RC, cover, construction joints
  7
OpenSans
 11
288.0
 21
169.57499999999965
 31
0.0
100
AcDbText
  0
TEXT
  5
1D1
330
17
100
AcDbEntity
  8
S-NOTE
100
AcDbText
 10
288.0
 20
165.27499999999964
 30
0.0
 40
2.4
  1
    IS 3370 (Pts 1, 2)    crack control 0.2 mm, liquid-retaining
  7
OpenSans
 11
288.0
 21
165.27499999999964
 31
0.0
100
AcDbText
  0
TEXT
  5
1D2
330
17
100
AcDbEntity
  8
S-NOTE
100
AcDbText
 10
288.0
 20
160.97499999999962
 30
0.0
 40
2.4
  1
    IS 4991:1968          Cl. 6.2.1 recessing, Cl. 7.2 buried surfaces
  7
OpenSans
 11
288.0
 21
160.97499999999962
 31
0.0
100
AcDbText
  0
TEXT
  5
1D3
330
17
100
AcDbEntity
  8
S-NOTE
100
AcDbText
 10
288.0
 20
156.6749999999996
 30
0.0
 40
2.4
  1
    NBC 2016 Part 4       means of escape, guarding
  7
OpenSans
 11
288.0
 21
156.6749999999996
 31
0.0
100
AcDbText
  0
TEXT
  5
1D4
330
17
100
AcDbEntity
  8
S-NOTE
100
AcDbText
 10
288.0
 20
148.0749999999996
 30
0.0
 40
2.4
  1
NOT IN THE REGISTER  -  cited BY TITLE ONLY, no clause quoted:
  7
OpenSans
 11
288.0
 21
148.0749999999996
 31
0.0
100
AcDbText
  0
TEXT
  5
1D5
330
17
100
AcDbEntity
  8
S-NOTE
100
AcDbText
 10
288.0
 20
143.77499999999958
 30
0.0
 40
2.4
  1
    IS 1742  building drainage        IS 5329  sanitary pipework
  7
OpenSans
 11
288.0
 21
143.77499999999958
 31
0.0
100
AcDbText
  0
TEXT
  5
1D6
330
17
100
AcDbEntity
  8
S-NOTE
100
AcDbText
 10
288.0
 20
139.47499999999957
 30
0.0
 40
2.4
  1
    NBC 2016 Part 9  plumbing services
  7
OpenSans
 11
288.0
 21
139.47499999999957
 31
0.0
100
AcDbText
  0
TEXT
  5
1D7
330
17
100
AcDbEntity
  8
S-NOTE
100
AcDbText
 10
288.0
 20
130.87499999999955
 30
0.0
 40
2.4
  1
*** NO CODE DOCUMENT IS IN THE WORKSPACE (master open item M2).  No
  7
OpenSans
 11
288.0
 21
130.87499999999955
 31
0.0
100
AcDbText
  0
TEXT
  5
1D8
330
17
100
AcDbEntity
  8
S-NOTE
100
AcDbText
 10
288.0
 20
126.57499999999955
 30
0.0
 40
2.4
  1
    clause number outside the Part G register appears on this set. ***
  7
OpenSans
 11
288.0
 21
126.57499999999955
 31
0.0
100
AcDbText
  0
LWPOLYLINE
  5
1D9
330
17
100
AcDbEntity
  8
S-TITLE
100
AcDbPolyline
 90
4
 70
1
 10
286.0
 20
120.27499999999955
 10
550.0
 20
120.27499999999955
 10
550.0
 20
191.4999999999997
 10
286.0
 20
191.4999999999997
  0
TEXT
  5
1DA
330
17
100
AcDbEntity
  8
M-TITLE
100
AcDbText
 10
558.0
 20
548.6
 30
0.0
 40
2.5
  1
10   DESIGN FLOWS   -   reproduced from sheet S-06 for a line-by-line check
  7
OpenSans
 11
558.0
 21
548.6
 31
0.0
100
AcDbText
  0
LWPOLYLINE
  5
1DB
330
17
100
AcDbEntity
  8
M-TABLE
100
AcDbPolyline
 90
4
 70
1
 10
558.0
 20
537.8
 10
800.0
 20
537.8
 10
800.0
 20
544.0
 10
558.0
 20
544.0
  0
TEXT
  5
1DC
330
17
100
AcDbEntity
  8
M-TABLE
100
AcDbText
 10
559.4
 20
539.8499999999999
 30
0.0
 40
2.1
  1
ITEM
  7
OpenSans
 11
559.4
 21
539.8499999999999
 31
0.0
100
AcDbText
  0
TEXT
  5
1DD
330
17
100
AcDbEntity
  8
M-TABLE
100
AcDbText
 10
669.4
 20
539.8499999999999
 30
0.0
 40
2.1
  1
FLOW
  7
OpenSans
 11
669.4
 21
539.8499999999999
 31
0.0
100
AcDbText
  0
TEXT
  5
1DE
330
17
100
AcDbEntity
  8
M-TABLE
100
AcDbText
 10
705.4
 20
539.8499999999999
 30
0.0
 40
2.1
  1
STORE
  7
OpenSans
 11
705.4
 21
539.8499999999999
 31
0.0
100
AcDbText
  0
TEXT
  5
1DF
330
17
100
AcDbEntity
  8
M-TABLE
100
AcDbText
 10
749.4
 20
539.8499999999999
 30
0.0
 40
2.1
  1
DISCHARGES TO
  7
OpenSans
 11
749.4
 21
539.8499999999999
 31
0.0
100
AcDbText
  0
TEXT
  5
1E0
330
17
100
AcDbEntity
  8
M-TABLE
100
AcDbText
 10
559.4
 20
533.6499999999999
 30
0.0
 40
2.1
  1
Structural seepage  0.5 L/m2/day x 401 m2
  7
OpenSans
 11
559.4
 21
533.6499999999999
 31
0.0
100
AcDbText
  0
TEXT
  5
1E1
330
17
100
AcDbEntity
  8
M-TABLE
100
AcDbText
 10
669.4
 20
533.6499999999999
 30
0.0
 40
2.1
  1
200 L/day
  7
OpenSans
 11
669.4
 21
533.6499999999999
 31
0.0
100
AcDbText
  0
TEXT
  5
1E2
330
17
100
AcDbEntity
  8
M-TABLE
100
AcDbText
 10
705.4
 20
533.6499999999999
 30
0.0
 40
2.1
  1
sump 3375 L
  7
OpenSans
 11
705.4
 21
533.6499999999999
 31
0.0
100
AcDbText
  0
TEXT
  5
1E3
330
17
100
AcDbEntity
  8
M-TABLE
100
AcDbText
 10
749.4
 20
533.6499999999999
 30
0.0
 40
2.1
  1
storm soakaway
  7
OpenSans
 11
749.4
 21
533.6499999999999
 31
0.0
100
AcDbText
  0
LINE
  5
1E4
330
17
100
AcDbEntity
  8
M-TABLE
100
AcDbLine
 10
558.0
 20
531.5999999999999
 30
0.0
 11
800.0
 21
531.5999999999999
 31
0.0
  0
TEXT
  5
1E5
330
17
100
AcDbEntity
  8
M-TABLE
100
AcDbText
 10
559.4
 20
527.4499999999998
 30
0.0
 40
2.1
  1
Condensate + washdown
  7
OpenSans
 11
559.4
 21
527.4499999999998
 31
0.0
100
AcDbText
  0
TEXT
  5
1E6
330
17
100
AcDbEntity
  8
M-TABLE
100
AcDbText
 10
669.4
 20
527.4499999999998
 30
0.0
 40
2.1
  1
200 L/day
  7
OpenSans
 11
669.4
 21
527.4499999999998
 31
0.0
100
AcDbText
  0
TEXT
  5
1E7
330
17
100
AcDbEntity
  8
M-TABLE
100
AcDbText
 10
705.4
 20
527.4499999999998
 30
0.0
 40
2.1
  1
= 8 days store
  7
OpenSans
 11
705.4
 21
527.4499999999998
 31
0.0
100
AcDbText
  0
TEXT
  5
1E8
330
17
100
AcDbEntity
  8
M-TABLE
100
AcDbText
 10
749.4
 20
527.4499999999998
 30
0.0
 40
2.1
  1
storm soakaway
  7
OpenSans
 11
749.4
 21
527.4499999999998
 31
0.0
100
AcDbText
  0
LINE
  5
1E9
330
17
100
AcDbEntity
  8
M-TABLE
100
AcDbLine
 10
558.0
 20
525.3999999999999
 30
0.0
 11
800.0
 21
525.3999999999999
 31
0.0
  0
TEXT
  5
1EA
330
17
100
AcDbEntity
  8
M-TABLE
100
AcDbText
 10
559.4
 20
521.2499999999998
 30
0.0
 40
2.1
  1
Decon effluent, airlock stages 1 + 2
  7
OpenSans
 11
559.4
 21
521.2499999999998
 31
0.0
100
AcDbText
  0
TEXT
  5
1EB
330
17
100
AcDbEntity
  8
M-TABLE
100
AcDbText
 10
669.4
 20
521.2499999999998
 30
0.0
 40
2.1
  1
on use
  7
OpenSans
 11
669.4
 21
521.2499999999998
 31
0.0
100
AcDbText
  0
TEXT
  5
1EC
330
17
100
AcDbEntity
  8
M-TABLE
100
AcDbText
 10
705.4
 20
521.2499999999998
 30
0.0
 40
2.1
  1
1000 L tank
  7
OpenSans
 11
705.4
 21
521.2499999999998
 31
0.0
100
AcDbText
  0
TEXT
  5
1ED
330
17
100
AcDbEntity
  8
M-TABLE
100
AcDbText
 10
749.4
 20
521.2499999999998
 30
0.0
 40
2.1
  1
TANKER ONLY
  7
OpenSans
 11
749.4
 21
521.2499999999998
 31
0.0
100
AcDbText
  0
LINE
  5
1EE
330
17
100
AcDbEntity
  8
M-TABLE
100
AcDbLine
 10
558.0
 20
519.1999999999998
 30
0.0
 11
800.0
 21
519.1999999999998
 31
0.0
  0
TEXT
  5
1EF
330
17
100
AcDbEntity
  8
M-TABLE
100
AcDbText
 10
559.4
 20
515.0499999999997
 30
0.0
 40
2.1
  1
Foul, peacetime, 10 users x 45 lpcd
  7
OpenSans
 11
559.4
 21
515.0499999999997
 31
0.0
100
AcDbText
  0
TEXT
  5
1F0
330
17
100
AcDbEntity
  8
M-TABLE
100
AcDbText
 10
669.4
 20
515.0499999999997
 30
0.0
 40
2.1
  1
450 L/day
  7
OpenSans
 11
669.4
 21
515.0499999999997
 31
0.0
100
AcDbText
  0
TEXT
  5
1F1
330
17
100
AcDbEntity
  8
M-TABLE
100
AcDbText
 10
705.4
 20
515.0499999999997
 30
0.0
 40
2.1
  1
septic 1.125 m3
  7
OpenSans
 11
705.4
 21
515.0499999999997
 31
0.0
100
AcDbText
  0
TEXT
  5
1F2
330
17
100
AcDbEntity
  8
M-TABLE
100
AcDbText
 10
749.4
 20
515.0499999999997
 30
0.0
 40
2.1
  1
soak pit
  7
OpenSans
 11
749.4
 21
515.0499999999997
 31
0.0
100
AcDbText
  0
LINE
  5
1F3
330
17
100
AcDbEntity
  8
M-TABLE
100
AcDbLine
 10
558.0
 20
512.9999999999998
 30
0.0
 11
800.0
 21
512.9999999999998
 31
0.0
  0
TEXT
  5
1F4
330
17
100
AcDbEntity
  8
M-TABLE
100
AcDbText
 10
559.4
 20
508.8499999999998
 30
0.0
 40
2.1
  1
Stairwell / approach surface water
  7
OpenSans
 11
559.4
 21
508.8499999999998
 31
0.0
100
AcDbText
  0
TEXT
  5
1F5
330
17
100
AcDbEntity
  8
M-TABLE
100
AcDbText
 10
669.4
 20
508.8499999999998
 30
0.0
 40
2.1
  1
0.10 L/s
  7
OpenSans
 11
669.4
 21
508.8499999999998
 31
0.0
100
AcDbText
  0
TEXT
  5
1F6
330
17
100
AcDbEntity
  8
M-TABLE
100
AcDbText
 10
705.4
 20
508.8499999999998
 30
0.0
 40
2.1
  1
1.0 m3 sump
  7
OpenSans
 11
705.4
 21
508.8499999999998
 31
0.0
100
AcDbText
  0
TEXT
  5
1F7
330
17
100
AcDbEntity
  8
M-TABLE
100
AcDbText
 10
749.4
 20
508.8499999999998
 30
0.0
 40
2.1
  1
own soakaway
  7
OpenSans
 11
749.4
 21
508.8499999999998
 31
0.0
100
AcDbText
  0
LINE
  5
1F8
330
17
100
AcDbEntity
  8
M-TABLE
100
AcDbLine
 10
558.0
 20
506.7999999999998
 30
0.0
 11
800.0
 21
506.7999999999998
 31
0.0
  0
LINE
  5
1F9
330
17
100
AcDbEntity
  8
M-TABLE
100
AcDbLine
 10
558.0
 20
544.0
 30
0.0
 11
800.0
 21
544.0
 31
0.0
  0
LINE
  5
1FA
330
17
100
AcDbEntity
  8
M-TABLE
100
AcDbLine
 10
558.0
 20
544.0
 30
0.0
 11
558.0
 21
506.7999999999998
 31
0.0
  0
LINE
  5
1FB
330
17
100
AcDbEntity
  8
M-TABLE
100
AcDbLine
 10
668.0
 20
544.0
 30
0.0
 11
668.0
 21
506.7999999999998
 31
0.0
  0
LINE
  5
1FC
330
17
100
AcDbEntity
  8
M-TABLE
100
AcDbLine
 10
704.0
 20
544.0
 30
0.0
 11
704.0
 21
506.7999999999998
 31
0.0
  0
LINE
  5
1FD
330
17
100
AcDbEntity
  8
M-TABLE
100
AcDbLine
 10
748.0
 20
544.0
 30
0.0
 11
748.0
 21
506.7999999999998
 31
0.0
  0
LINE
  5
1FE
330
17
100
AcDbEntity
  8
M-TABLE
100
AcDbLine
 10
800.0
 20
544.0
 30
0.0
 11
800.0
 21
506.7999999999998
 31
0.0
  0
TEXT
  5
1FF
330
17
100
AcDbEntity
  8
M-TITLE
100
AcDbText
 10
558.0
 20
498.7999999999998
 30
0.0
 40
2.5
  1
11   DESIGN BASIS   -   the numbers and where they come from
  7
OpenSans
 11
558.0
 21
498.7999999999998
 31
0.0
100
AcDbText
  0
LWPOLYLINE
  5
200
330
17
100
AcDbEntity
  8
M-TABLE
100
AcDbPolyline
 90
4
 70
1
 10
558.0
 20
488.7999999999998
 10
800.0
 20
488.7999999999998
 10
800.0
 20
493.7999999999998
 10
558.0
 20
493.7999999999998
  0
TEXT
  5
201
330
17
100
AcDbEntity
  8
M-TABLE
100
AcDbText
 10
559.4
 20
490.2999999999998
 30
0.0
 40
2.0
  1
PARAMETER
  7
OpenSans
 11
559.4
 21
490.2999999999998
 31
0.0
100
AcDbText
  0
TEXT
  5
202
330
17
100
AcDbEntity
  8
M-TABLE
100
AcDbText
 10
659.4
 20
490.2999999999998
 30
0.0
 40
2.0
  1
VALUE
  7
OpenSans
 11
659.4
 21
490.2999999999998
 31
0.0
100
AcDbText
  0
TEXT
  5
203
330
17
100
AcDbEntity
  8
M-TABLE
100
AcDbText
 10
721.4
 20
490.2999999999998
 30
0.0
 40
2.0
  1
CLASS AND SOURCE
  7
OpenSans
 11
721.4
 21
490.2999999999998
 31
0.0
100
AcDbText
  0
TEXT
  5
204
330
17
100
AcDbEntity
  8
M-TABLE
100
AcDbText
 10
559.4
 20
485.2999999999998
 30
0.0
 40
2.0
  1
DESIGN GROUNDWATER TABLE
  7
OpenSans
 11
559.4
 21
485.2999999999998
 31
0.0
100
AcDbText
  0
TEXT
  5
205
330
17
100
AcDbEntity
  8
M-TABLE
100
AcDbText
 10
659.4
 20
485.2999999999998
 30
0.0
 40
2.0
  1
(-)2.000 monsoon
  7
OpenSans
 11
659.4
 21
485.2999999999998
 31
0.0
100
AcDbText
  0
TEXT
  5
206
330
17
100
AcDbEntity
  8
M-TABLE
100
AcDbText
 10
721.4
 20
485.2999999999998
 30
0.0
 40
2.0
  1
[A]  master A2
  7
OpenSans
 11
721.4
 21
485.2999999999998
 31
0.0
100
AcDbText
  0
LINE
  5
207
330
17
100
AcDbEntity
  8
M-TABLE
100
AcDbLine
 10
558.0
 20
483.7999999999998
 30
0.0
 11
800.0
 21
483.7999999999998
 31
0.0
  0
TEXT
  5
208
330
17
100
AcDbEntity
  8
M-TABLE
100
AcDbText
 10
559.4
 20
480.2999999999998
 30
0.0
 40
2.0
  1
STRUCTURAL SEEPAGE RATE
  7
OpenSans
 11
559.4
 21
480.2999999999998
 31
0.0
100
AcDbText
  0
TEXT
  5
209
330
17
100
AcDbEntity
  8
M-TABLE
100
AcDbText
 10
659.4
 20
480.2999999999998
 30
0.0
 40
2.0
  1
0.5 L/m2/day
  7
OpenSans
 11
659.4
 21
480.2999999999998
 31
0.0
100
AcDbText
  0
TEXT
  5
20A
330
17
100
AcDbEntity
  8
M-TABLE
100
AcDbText
 10
721.4
 20
480.2999999999998
 30
0.0
 40
2.0
  1
[A]  master A8
  7
OpenSans
 11
721.4
 21
480.2999999999998
 31
0.0
100
AcDbText
  0
LINE
  5
20B
330
17
100
AcDbEntity
  8
M-TABLE
100
AcDbLine
 10
558.0
 20
478.7999999999998
 30
0.0
 11
800.0
 21
478.7999999999998
 31
0.0
  0
TEXT
  5
20C
330
17
100
AcDbEntity
  8
M-TABLE
100
AcDbText
 10
559.4
 20
475.2999999999998
 30
0.0
 40
2.0
  1
WETTED EXTERNAL ENVELOPE
  7
OpenSans
 11
559.4
 21
475.2999999999998
 31
0.0
100
AcDbText
  0
TEXT
  5
20D
330
17
100
AcDbEntity
  8
M-TABLE
100
AcDbText
 10
659.4
 20
475.2999999999998
 30
0.0
 40
2.0
  1
401 m2
  7
OpenSans
 11
659.4
 21
475.2999999999998
 31
0.0
100
AcDbText
  0
TEXT
  5
20E
330
17
100
AcDbEntity
  8
M-TABLE
100
AcDbText
 10
721.4
 20
475.2999999999998
 30
0.0
 40
2.0
  1
[R]  verified, calc D.1
  7
OpenSans
 11
721.4
 21
475.2999999999998
 31
0.0
100
AcDbText
  0
LINE
  5
20F
330
17
100
AcDbEntity
  8
M-TABLE
100
AcDbLine
 10
558.0
 20
473.7999999999998
 30
0.0
 11
800.0
 21
473.7999999999998
 31
0.0
  0
TEXT
  5
210
330
17
100
AcDbEntity
  8
M-TABLE
100
AcDbText
 10
559.4
 20
470.2999999999998
 30
0.0
 40
2.0
  1
   = 56.40 perim x 4.700 sub
  7
OpenSans
 11
559.4
 21
470.2999999999998
 31
0.0
100
AcDbText
  0
TEXT
  5
211
330
17
100
AcDbEntity
  8
M-TABLE
100
AcDbText
 10
659.4
 20
470.2999999999998
 30
0.0
 40
2.0
  1
+ 136.40 mat
  7
OpenSans
 11
659.4
 21
470.2999999999998
 31
0.0
100
AcDbText
  0
TEXT
  5
212
330
17
100
AcDbEntity
  8
M-TABLE
100
AcDbText
 10
721.4
 20
470.2999999999998
 30
0.0
 40
2.0
  1
[R]  = 401.48 m2
  7
OpenSans
 11
721.4
 21
470.2999999999998
 31
0.0
100
AcDbText
  0
LINE
  5
213
330
17
100
AcDbEntity
  8
M-TABLE
100
AcDbLine
 10
558.0
 20
468.7999999999998
 30
0.0
 11
800.0
 21
468.7999999999998
 31
0.0
  0
TEXT
  5
214
330
17
100
AcDbEntity
  8
M-TABLE
100
AcDbText
 10
559.4
 20
465.2999999999998
 30
0.0
 40
2.0
  1
SEEPAGE INFLOW
  7
OpenSans
 11
559.4
 21
465.2999999999998
 31
0.0
100
AcDbText
  0
TEXT
  5
215
330
17
100
AcDbEntity
  8
M-TABLE
100
AcDbText
 10
659.4
 20
465.2999999999998
 30
0.0
 40
2.0
  1
200 L/day
  7
OpenSans
 11
659.4
 21
465.2999999999998
 31
0.0
100
AcDbText
  0
TEXT
  5
216
330
17
100
AcDbEntity
  8
M-TABLE
100
AcDbText
 10
721.4
 20
465.2999999999998
 30
0.0
 40
2.0
  1
[C]  S-06
  7
OpenSans
 11
721.4
 21
465.2999999999998
 31
0.0
100
AcDbText
  0
LINE
  5
217
330
17
100
AcDbEntity
  8
M-TABLE
100
AcDbLine
 10
558.0
 20
463.7999999999998
 30
0.0
 11
800.0
 21
463.7999999999998
 31
0.0
  0
TEXT
  5
218
330
17
100
AcDbEntity
  8
M-TABLE
100
AcDbText
 10
559.4
 20
460.2999999999998
 30
0.0
 40
2.0
  1
CONDENSATE + WASHDOWN
  7
OpenSans
 11
559.4
 21
460.2999999999998
 31
0.0
100
AcDbText
  0
TEXT
  5
219
330
17
100
AcDbEntity
  8
M-TABLE
100
AcDbText
 10
659.4
 20
460.2999999999998
 30
0.0
 40
2.0
  1
200 L/day
  7
OpenSans
 11
659.4
 21
460.2999999999998
 31
0.0
100
AcDbText
  0
TEXT
  5
21A
330
17
100
AcDbEntity
  8
M-TABLE
100
AcDbText
 10
721.4
 20
460.2999999999998
 30
0.0
 40
2.0
  1
[C]  S-06
  7
OpenSans
 11
721.4
 21
460.2999999999998
 31
0.0
100
AcDbText
  0
LINE
  5
21B
330
17
100
AcDbEntity
  8
M-TABLE
100
AcDbLine
 10
558.0
 20
458.7999999999998
 30
0.0
 11
800.0
 21
458.7999999999998
 31
0.0
  0
TEXT
  5
21C
330
17
100
AcDbEntity
  8
M-TABLE
100
AcDbText
 10
559.4
 20
455.2999999999998
 30
0.0
 40
2.0
  1
TOTAL TO THE CLEAN SUMP
  7
OpenSans
 11
559.4
 21
455.2999999999998
 31
0.0
100
AcDbText
  0
TEXT
  5
21D
330
17
100
AcDbEntity
  8
M-TABLE
100
AcDbText
 10
659.4
 20
455.2999999999998
 30
0.0
 40
2.0
  1
400 L/day = 0.00463 L/s
  7
OpenSans
 11
659.4
 21
455.2999999999998
 31
0.0
100
AcDbText
  0
TEXT
  5
21E
330
17
100
AcDbEntity
  8
M-TABLE
100
AcDbText
 10
721.4
 20
455.2999999999998
 30
0.0
 40
2.0
  1
[R]  calc D.2
  7
OpenSans
 11
721.4
 21
455.2999999999998
 31
0.0
100
AcDbText
  0
LINE
  5
21F
330
17
100
AcDbEntity
  8
M-TABLE
100
AcDbLine
 10
558.0
 20
453.7999999999998
 30
0.0
 11
800.0
 21
453.7999999999998
 31
0.0
  0
TEXT
  5
220
330
17
100
AcDbEntity
  8
M-TABLE
100
AcDbText
 10
559.4
 20
450.2999999999998
 30
0.0
 40
2.0
  1
SUMP STORE
  7
OpenSans
 11
559.4
 21
450.2999999999998
 31
0.0
100
AcDbText
  0
TEXT
  5
221
330
17
100
AcDbEntity
  8
M-TABLE
100
AcDbText
 10
659.4
 20
450.2999999999998
 30
0.0
 40
2.0
  1
3.375 m3 = 8.44 days
  7
OpenSans
 11
659.4
 21
450.2999999999998
 31
0.0
100
AcDbText
  0
TEXT
  5
222
330
17
100
AcDbEntity
  8
M-TABLE
100
AcDbText
 10
721.4
 20
450.2999999999998
 30
0.0
 40
2.0
  1
[R]  calc D.2
  7
OpenSans
 11
721.4
 21
450.2999999999998
 31
0.0
100
AcDbText
  0
LINE
  5
223
330
17
100
AcDbEntity
  8
M-TABLE
100
AcDbLine
 10
558.0
 20
448.7999999999998
 30
0.0
 11
800.0
 21
448.7999999999998
 31
0.0
  0
TEXT
  5
224
330
17
100
AcDbEntity
  8
M-TABLE
100
AcDbText
 10
559.4
 20
445.2999999999998
 30
0.0
 40
2.0
  1
RAINFALL INTENSITY
  7
OpenSans
 11
559.4
 21
445.2999999999998
 31
0.0
100
AcDbText
  0
TEXT
  5
225
330
17
100
AcDbEntity
  8
M-TABLE
100
AcDbText
 10
659.4
 20
445.2999999999998
 30
0.0
 40
2.0
  1
50 mm/h
  7
OpenSans
 11
659.4
 21
445.2999999999998
 31
0.0
100
AcDbText
  0
TEXT
  5
226
330
17
100
AcDbEntity
  8
M-TABLE
100
AcDbText
 10
721.4
 20
445.2999999999998
 30
0.0
 40
2.0
  1
[C]  Rev F drg 5 note 1
  7
OpenSans
 11
721.4
 21
445.2999999999998
 31
0.0
100
AcDbText
  0
LINE
  5
227
330
17
100
AcDbEntity
  8
M-TABLE
100
AcDbLine
 10
558.0
 20
443.7999999999998
 30
0.0
 11
800.0
 21
443.7999999999998
 31
0.0
  0
TEXT
  5
228
330
17
100
AcDbEntity
  8
M-TABLE
100
AcDbText
 10
559.4
 20
440.2999999999998
 30
0.0
 40
2.0
  1
   no return period or IDF
  7
OpenSans
 11
559.4
 21
440.2999999999998
 31
0.0
100
AcDbText
  0
TEXT
  5
229
330
17
100
AcDbEntity
  8
M-TABLE
100
AcDbText
 10
659.4
 20
440.2999999999998
 30
0.0
 40
2.0
  1
*** OPEN ITEM D1 ***
  7
OpenSans
 11
659.4
 21
440.2999999999998
 31
0.0
100
AcDbText
  0
TEXT
  5
22A
330
17
100
AcDbEntity
  8
M-TABLE
100
AcDbText
 10
721.4
 20
440.2999999999998
 30
0.0
 40
2.0
  1
[U]
  7
OpenSans
 11
721.4
 21
440.2999999999998
 31
0.0
100
AcDbText
  0
LINE
  5
22B
330
17
100
AcDbEntity
  8
M-TABLE
100
AcDbLine
 10
558.0
 20
438.7999999999998
 30
0.0
 11
800.0
 21
438.7999999999998
 31
0.0
  0
TEXT
  5
22C
330
17
100
AcDbEntity
  8
M-TABLE
100
AcDbText
 10
559.4
 20
435.2999999999998
 30
0.0
 40
2.0
  1
SOAK-PIT ABSORPTION
  7
OpenSans
 11
559.4
 21
435.2999999999998
 31
0.0
100
AcDbText
  0
TEXT
  5
22D
330
17
100
AcDbEntity
  8
M-TABLE
100
AcDbText
 10
659.4
 20
435.2999999999998
 30
0.0
 40
2.0
  1
20 L/m2/day
  7
OpenSans
 11
659.4
 21
435.2999999999998
 31
0.0
100
AcDbText
  0
TEXT
  5
22E
330
17
100
AcDbEntity
  8
M-TABLE
100
AcDbText
 10
721.4
 20
435.2999999999998
 30
0.0
 40
2.0
  1
[A]  master A7
  7
OpenSans
 11
721.4
 21
435.2999999999998
 31
0.0
100
AcDbText
  0
LINE
  5
22F
330
17
100
AcDbEntity
  8
M-TABLE
100
AcDbLine
 10
558.0
 20
433.7999999999998
 30
0.0
 11
800.0
 21
433.7999999999998
 31
0.0
  0
TEXT
  5
230
330
17
100
AcDbEntity
  8
M-TABLE
100
AcDbText
 10
559.4
 20
430.2999999999998
 30
0.0
 40
2.0
  1
   percolation test
  7
OpenSans
 11
559.4
 21
430.2999999999998
 31
0.0
100
AcDbText
  0
TEXT
  5
231
330
17
100
AcDbEntity
  8
M-TABLE
100
AcDbText
 10
659.4
 20
430.2999999999998
 30
0.0
 40
2.0
  1
*** MANDATORY ***
  7
OpenSans
 11
659.4
 21
430.2999999999998
 31
0.0
100
AcDbText
  0
TEXT
  5
232
330
17
100
AcDbEntity
  8
M-TABLE
100
AcDbText
 10
721.4
 20
430.2999999999998
 30
0.0
 40
2.0
  1
IS 2470 Pt 2 Cl. 4
  7
OpenSans
 11
721.4
 21
430.2999999999998
 31
0.0
100
AcDbText
  0
LINE
  5
233
330
17
100
AcDbEntity
  8
M-TABLE
100
AcDbLine
 10
558.0
 20
428.7999999999998
 30
0.0
 11
800.0
 21
428.7999999999998
 31
0.0
  0
TEXT
  5
234
330
17
100
AcDbEntity
  8
M-TABLE
100
AcDbText
 10
559.4
 20
425.2999999999998
 30
0.0
 40
2.0
  1
FOUL, PEACETIME
  7
OpenSans
 11
559.4
 21
425.2999999999998
 31
0.0
100
AcDbText
  0
TEXT
  5
235
330
17
100
AcDbEntity
  8
M-TABLE
100
AcDbText
 10
659.4
 20
425.2999999999998
 30
0.0
 40
2.0
  1
450 L/day, 10 x 45 lpcd
  7
OpenSans
 11
659.4
 21
425.2999999999998
 31
0.0
100
AcDbText
  0
TEXT
  5
236
330
17
100
AcDbEntity
  8
M-TABLE
100
AcDbText
 10
721.4
 20
425.2999999999998
 30
0.0
 40
2.0
  1
[C]  S-06
  7
OpenSans
 11
721.4
 21
425.2999999999998
 31
0.0
100
AcDbText
  0
LINE
  5
237
330
17
100
AcDbEntity
  8
M-TABLE
100
AcDbLine
 10
558.0
 20
423.7999999999998
 30
0.0
 11
800.0
 21
423.7999999999998
 31
0.0
  0
TEXT
  5
238
330
17
100
AcDbEntity
  8
M-TABLE
100
AcDbText
 10
559.4
 20
420.2999999999998
 30
0.0
 40
2.0
  1
SHELTER OVERPRESSURE
  7
OpenSans
 11
559.4
 21
420.2999999999998
 31
0.0
100
AcDbText
  0
TEXT
  5
239
330
17
100
AcDbEntity
  8
M-TABLE
100
AcDbText
 10
659.4
 20
420.2999999999998
 30
0.0
 40
2.0
  1
+50 to +100 Pa, test +300
  7
OpenSans
 11
659.4
 21
420.2999999999998
 31
0.0
100
AcDbText
  0
TEXT
  5
23A
330
17
100
AcDbEntity
  8
M-TABLE
100
AcDbText
 10
721.4
 20
420.2999999999998
 30
0.0
 40
2.0
  1
[C]  S-06
  7
OpenSans
 11
721.4
 21
420.2999999999998
 31
0.0
100
AcDbText
  0
LINE
  5
23B
330
17
100
AcDbEntity
  8
M-TABLE
100
AcDbLine
 10
558.0
 20
418.7999999999998
 30
0.0
 11
800.0
 21
418.7999999999998
 31
0.0
  0
TEXT
  5
23C
330
17
100
AcDbEntity
  8
M-TABLE
100
AcDbText
 10
559.4
 20
415.2999999999998
 30
0.0
 40
2.0
  1
TRAP SEAL ADOPTED
  7
OpenSans
 11
559.4
 21
415.2999999999998
 31
0.0
100
AcDbText
  0
TEXT
  5
23D
330
17
100
AcDbEntity
  8
M-TABLE
100
AcDbText
 10
659.4
 20
415.2999999999998
 30
0.0
 40
2.0
  1
75 mm = 736 Pa = 2.5 x test
  7
OpenSans
 11
659.4
 21
415.2999999999998
 31
0.0
100
AcDbText
  0
TEXT
  5
23E
330
17
100
AcDbEntity
  8
M-TABLE
100
AcDbText
 10
721.4
 20
415.2999999999998
 30
0.0
 40
2.0
  1
[A]  calc D.6
  7
OpenSans
 11
721.4
 21
415.2999999999998
 31
0.0
100
AcDbText
  0
LINE
  5
23F
330
17
100
AcDbEntity
  8
M-TABLE
100
AcDbLine
 10
558.0
 20
413.7999999999998
 30
0.0
 11
800.0
 21
413.7999999999998
 31
0.0
  0
TEXT
  5
240
330
17
100
AcDbEntity
  8
M-TABLE
100
AcDbText
 10
559.4
 20
410.2999999999998
 30
0.0
 40
2.0
  1
MAT SIDL ALLOWANCE
  7
OpenSans
 11
559.4
 21
410.2999999999998
 31
0.0
100
AcDbText
  0
TEXT
  5
241
330
17
100
AcDbEntity
  8
M-TABLE
100
AcDbText
 10
659.4
 20
410.2999999999998
 30
0.0
 40
2.0
  1
1.0 kPa = 42 mm of screed
  7
OpenSans
 11
659.4
 21
410.2999999999998
 31
0.0
100
AcDbText
  0
TEXT
  5
242
330
17
100
AcDbEntity
  8
M-TABLE
100
AcDbText
 10
721.4
 20
410.2999999999998
 30
0.0
 40
2.0
  1
[C]  master A.7.2
  7
OpenSans
 11
721.4
 21
410.2999999999998
 31
0.0
100
AcDbText
  0
LINE
  5
243
330
17
100
AcDbEntity
  8
M-TABLE
100
AcDbLine
 10
558.0
 20
408.7999999999998
 30
0.0
 11
800.0
 21
408.7999999999998
 31
0.0
  0
TEXT
  5
244
330
17
100
AcDbEntity
  8
M-TABLE
100
AcDbText
 10
559.4
 20
405.2999999999998
 30
0.0
 40
2.0
  1
SCREED ADOPTED, AREA MEAN
  7
OpenSans
 11
559.4
 21
405.2999999999998
 31
0.0
100
AcDbText
  0
TEXT
  5
245
330
17
100
AcDbEntity
  8
M-TABLE
100
AcDbText
 10
659.4
 20
405.2999999999998
 30
0.0
 40
2.0
  1
52 mm = 1.24 kPa
  7
OpenSans
 11
659.4
 21
405.2999999999998
 31
0.0
100
AcDbText
  0
TEXT
  5
246
330
17
100
AcDbEntity
  8
M-TABLE
100
AcDbText
 10
721.4
 20
405.2999999999998
 30
0.0
 40
2.0
  1
[R]  DR-F4, referred
  7
OpenSans
 11
721.4
 21
405.2999999999998
 31
0.0
100
AcDbText
  0
LINE
  5
247
330
17
100
AcDbEntity
  8
M-TABLE
100
AcDbLine
 10
558.0
 20
403.7999999999998
 30
0.0
 11
800.0
 21
403.7999999999998
 31
0.0
  0
TEXT
  5
248
330
17
100
AcDbEntity
  8
M-TABLE
100
AcDbText
 10
559.4
 20
400.2999999999998
 30
0.0
 40
2.0
  1
PIPE CAPACITY DN100 1:100
  7
OpenSans
 11
559.4
 21
400.2999999999998
 31
0.0
100
AcDbText
  0
TEXT
  5
249
330
17
100
AcDbEntity
  8
M-TABLE
100
AcDbText
 10
659.4
 20
400.2999999999998
 30
0.0
 40
2.0
  1
6.72 L/s at 0.85 m/s
  7
OpenSans
 11
659.4
 21
400.2999999999998
 31
0.0
100
AcDbText
  0
TEXT
  5
24A
330
17
100
AcDbEntity
  8
M-TABLE
100
AcDbText
 10
721.4
 20
400.2999999999998
 30
0.0
 40
2.0
  1
[R]  calc D.4
  7
OpenSans
 11
721.4
 21
400.2999999999998
 31
0.0
100
AcDbText
  0
LINE
  5
24B
330
17
100
AcDbEntity
  8
M-TABLE
100
AcDbLine
 10
558.0
 20
398.7999999999998
 30
0.0
 11
800.0
 21
398.7999999999998
 31
0.0
  0
TEXT
  5
24C
330
17
100
AcDbEntity
  8
M-TABLE
100
AcDbText
 10
559.4
 20
395.2999999999998
 30
0.0
 40
2.0
  1
CAPACITY RATIO ON DESIGN Q
  7
OpenSans
 11
559.4
 21
395.2999999999998
 31
0.0
100
AcDbText
  0
TEXT
  5
24D
330
17
100
AcDbEntity
  8
M-TABLE
100
AcDbText
 10
659.4
 20
395.2999999999998
 30
0.0
 40
2.0
  1
1450 : 1
  7
OpenSans
 11
659.4
 21
395.2999999999998
 31
0.0
100
AcDbText
  0
TEXT
  5
24E
330
17
100
AcDbEntity
  8
M-TABLE
100
AcDbText
 10
721.4
 20
395.2999999999998
 30
0.0
 40
2.0
  1
[R]  size is not flow-driven
  7
OpenSans
 11
721.4
 21
395.2999999999998
 31
0.0
100
AcDbText
  0
LINE
  5
24F
330
17
100
AcDbEntity
  8
M-TABLE
100
AcDbLine
 10
558.0
 20
393.7999999999998
 30
0.0
 11
800.0
 21
393.7999999999998
 31
0.0
  0
LINE
  5
250
330
17
100
AcDbEntity
  8
M-TABLE
100
AcDbLine
 10
558.0
 20
493.7999999999998
 30
0.0
 11
800.0
 21
493.7999999999998
 31
0.0
  0
LINE
  5
251
330
17
100
AcDbEntity
  8
M-TABLE
100
AcDbLine
 10
558.0
 20
493.7999999999998
 30
0.0
 11
558.0
 21
393.7999999999998
 31
0.0
  0
LINE
  5
252
330
17
100
AcDbEntity
  8
M-TABLE
100
AcDbLine
 10
658.0
 20
493.7999999999998
 30
0.0
 11
658.0
 21
393.7999999999998
 31
0.0
  0
LINE
  5
253
330
17
100
AcDbEntity
  8
M-TABLE
100
AcDbLine
 10
720.0
 20
493.7999999999998
 30
0.0
 11
720.0
 21
393.7999999999998
 31
0.0
  0
LINE
  5
254
330
17
100
AcDbEntity
  8
M-TABLE
100
AcDbLine
 10
800.0
 20
493.7999999999998
 30
0.0
 11
800.0
 21
393.7999999999998
 31
0.0
  0
TEXT
  5
255
330
17
100
AcDbEntity
  8
M-TITLE
100
AcDbText
 10
558.0
 20
385.7999999999998
 30
0.0
 40
2.5
  1
12   OPEN ITEMS CARRIED ON THIS SET   -   none of them is resolved here
  7
OpenSans
 11
558.0
 21
385.7999999999998
 31
0.0
100
AcDbText
  0
LWPOLYLINE
  5
256
330
17
100
AcDbEntity
  8
M-TABLE
100
AcDbPolyline
 90
4
 70
1
 10
558.0
 20
374.9999999999998
 10
800.0
 20
374.9999999999998
 10
800.0
 20
380.7999999999998
 10
558.0
 20
380.7999999999998
  0
TEXT
  5
257
330
17
100
AcDbEntity
  8
M-TABLE
100
AcDbText
 10
559.4
 20
376.8499999999998
 30
0.0
 40
2.1
  1
REF
  7
OpenSans
 11
559.4
 21
376.8499999999998
 31
0.0
100
AcDbText
  0
TEXT
  5
258
330
17
100
AcDbEntity
  8
M-TABLE
100
AcDbText
 10
589.4
 20
376.8499999999998
 30
0.0
 40
2.1
  1
ITEM
  7
OpenSans
 11
589.4
 21
376.8499999999998
 31
0.0
100
AcDbText
  0
TEXT
  5
259
330
17
100
AcDbEntity
  8
M-TABLE
100
AcDbText
 10
559.4
 20
371.0499999999998
 30
0.0
 40
2.1
  1
C16
  7
OpenSans
 11
559.4
 21
371.0499999999998
 31
0.0
100
AcDbText
  0
TEXT
  5
25A
330
17
100
AcDbEntity
  8
M-TABLE
100
AcDbText
 10
589.4
 20
371.0499999999998
 30
0.0
 40
2.1
  1
ROOF / PLATFORM JUNCTION, master, unresolved.  Affects only which roof a
  7
OpenSans
 11
589.4
 21
371.0499999999998
 31
0.0
100
AcDbText
  0
LINE
  5
25B
330
17
100
AcDbEntity
  8
M-TABLE
100
AcDbLine
 10
558.0
 20
369.19999999999976
 30
0.0
 11
800.0
 21
369.19999999999976
 31
0.0
  0
TEXT
  5
25C
330
17
100
AcDbEntity
  8
M-TABLE
100
AcDbText
 10
559.4
 20
365.2499999999998
 30
0.0
 40
2.1
  1

  7
OpenSans
 11
559.4
 21
365.2499999999998
 31
0.0
100
AcDbText
  0
TEXT
  5
25D
330
17
100
AcDbEntity
  8
M-TABLE
100
AcDbText
 10
589.4
 20
365.2499999999998
 30
0.0
 40
2.1
  1
     2.25 m2 catchment belongs to; the TOTAL catchment is unchanged
  7
OpenSans
 11
589.4
 21
365.2499999999998
 31
0.0
100
AcDbText
  0
LINE
  5
25E
330
17
100
AcDbEntity
  8
M-TABLE
100
AcDbLine
 10
558.0
 20
363.39999999999975
 30
0.0
 11
800.0
 21
363.39999999999975
 31
0.0
  0
TEXT
  5
25F
330
17
100
AcDbEntity
  8
M-TABLE
100
AcDbText
 10
559.4
 20
359.44999999999976
 30
0.0
 40
2.1
  1
C18
  7
OpenSans
 11
559.4
 21
359.44999999999976
 31
0.0
100
AcDbText
  0
TEXT
  5
260
330
17
100
AcDbEntity
  8
M-TABLE
100
AcDbText
 10
589.4
 20
359.44999999999976
 30
0.0
 40
2.1
  1
SUMP PIT BASE 300 vs 400, master, unresolved.  400 HELD.  No drainage
  7
OpenSans
 11
589.4
 21
359.44999999999976
 31
0.0
100
AcDbText
  0
LINE
  5
261
330
17
100
AcDbEntity
  8
M-TABLE
100
AcDbLine
 10
558.0
 20
357.59999999999974
 30
0.0
 11
800.0
 21
357.59999999999974
 31
0.0
  0
TEXT
  5
262
330
17
100
AcDbEntity
  8
M-TABLE
100
AcDbText
 10
559.4
 20
353.64999999999975
 30
0.0
 40
2.1
  1

  7
OpenSans
 11
559.4
 21
353.64999999999975
 31
0.0
100
AcDbText
  0
TEXT
  5
263
330
17
100
AcDbEntity
  8
M-TABLE
100
AcDbText
 10
589.4
 20
353.64999999999975
 30
0.0
 40
2.1
  1
     effect - the invert is fixed at (-)7.600 and storage is measured from it
  7
OpenSans
 11
589.4
 21
353.64999999999975
 31
0.0
100
AcDbText
  0
LINE
  5
264
330
17
100
AcDbEntity
  8
M-TABLE
100
AcDbLine
 10
558.0
 20
351.7999999999997
 30
0.0
 11
800.0
 21
351.7999999999997
 31
0.0
  0
TEXT
  5
265
330
17
100
AcDbEntity
  8
M-TABLE
100
AcDbText
 10
559.4
 20
347.84999999999974
 30
0.0
 40
2.1
  1
A2
  7
OpenSans
 11
559.4
 21
347.84999999999974
 31
0.0
100
AcDbText
  0
TEXT
  5
266
330
17
100
AcDbEntity
  8
M-TABLE
100
AcDbText
 10
589.4
 20
347.84999999999974
 30
0.0
 40
2.1
  1
DESIGN GWT (-)2.000 [ASSUMED].  Sets the wetted area and the seepage
  7
OpenSans
 11
589.4
 21
347.84999999999974
 31
0.0
100
AcDbText
  0
LINE
  5
267
330
17
100
AcDbEntity
  8
M-TABLE
100
AcDbLine
 10
558.0
 20
345.9999999999997
 30
0.0
 11
800.0
 21
345.9999999999997
 31
0.0
  0
TEXT
  5
268
330
17
100
AcDbEntity
  8
M-TABLE
100
AcDbText
 10
559.4
 20
342.0499999999997
 30
0.0
 40
2.1
  1
A7
  7
OpenSans
 11
559.4
 21
342.0499999999997
 31
0.0
100
AcDbText
  0
TEXT
  5
269
330
17
100
AcDbEntity
  8
M-TABLE
100
AcDbText
 10
589.4
 20
342.0499999999997
 30
0.0
 40
2.1
  1
SOAK-PIT ABSORPTION 20 L/m2/day [ASSUMED].  PERCOLATION TEST MANDATORY
  7
OpenSans
 11
589.4
 21
342.0499999999997
 31
0.0
100
AcDbText
  0
LINE
  5
26A
330
17
100
AcDbEntity
  8
M-TABLE
100
AcDbLine
 10
558.0
 20
340.1999999999997
 30
0.0
 11
800.0
 21
340.1999999999997
 31
0.0
  0
TEXT
  5
26B
330
17
100
AcDbEntity
  8
M-TABLE
100
AcDbText
 10
559.4
 20
336.2499999999997
 30
0.0
 40
2.1
  1
A8
  7
OpenSans
 11
559.4
 21
336.2499999999997
 31
0.0
100
AcDbText
  0
TEXT
  5
26C
330
17
100
AcDbEntity
  8
M-TABLE
100
AcDbText
 10
589.4
 20
336.2499999999997
 30
0.0
 40
2.1
  1
SEEPAGE 0.5 L/m2/day [ASSUMED].  Sets the 8.44-day sump store
  7
OpenSans
 11
589.4
 21
336.2499999999997
 31
0.0
100
AcDbText
  0
LINE
  5
26D
330
17
100
AcDbEntity
  8
M-TABLE
100
AcDbLine
 10
558.0
 20
334.3999999999997
 30
0.0
 11
800.0
 21
334.3999999999997
 31
0.0
  0
TEXT
  5
26E
330
17
100
AcDbEntity
  8
M-TABLE
100
AcDbText
 10
559.4
 20
330.4499999999997
 30
0.0
 40
2.1
  1
DR-C1
  7
OpenSans
 11
559.4
 21
330.4499999999997
 31
0.0
100
AcDbText
  0
TEXT
  5
26F
330
17
100
AcDbEntity
  8
M-TABLE
100
AcDbText
 10
589.4
 20
330.4499999999997
 30
0.0
 40
2.1
  1
S-06 carries the REV E open-cut catchment 0.10 L/s for the stairwell.
  7
OpenSans
 11
589.4
 21
330.4499999999997
 31
0.0
100
AcDbText
  0
LINE
  5
270
330
17
100
AcDbEntity
  8
M-TABLE
100
AcDbLine
 10
558.0
 20
328.5999999999997
 30
0.0
 11
800.0
 21
328.5999999999997
 31
0.0
  0
TEXT
  5
271
330
17
100
AcDbEntity
  8
M-TABLE
100
AcDbText
 10
559.4
 20
324.6499999999997
 30
0.0
 40
2.1
  1

  7
OpenSans
 11
559.4
 21
324.6499999999997
 31
0.0
100
AcDbText
  0
TEXT
  5
272
330
17
100
AcDbEntity
  8
M-TABLE
100
AcDbText
 10
589.4
 20
324.6499999999997
 30
0.0
 40
2.1
  1
     Conservative and superseded.  NOT corrected here - ruling required
  7
OpenSans
 11
589.4
 21
324.6499999999997
 31
0.0
100
AcDbText
  0
LINE
  5
273
330
17
100
AcDbEntity
  8
M-TABLE
100
AcDbLine
 10
558.0
 20
322.79999999999967
 30
0.0
 11
800.0
 21
322.79999999999967
 31
0.0
  0
TEXT
  5
274
330
17
100
AcDbEntity
  8
M-TABLE
100
AcDbText
 10
559.4
 20
318.8499999999997
 30
0.0
 40
2.1
  1
DR-C2
  7
OpenSans
 11
559.4
 21
318.8499999999997
 31
0.0
100
AcDbText
  0
TEXT
  5
275
330
17
100
AcDbEntity
  8
M-TABLE
100
AcDbText
 10
589.4
 20
318.8499999999997
 30
0.0
 40
2.1
  1
SOAK PIT 21.99 m2 against 22.50 m2 REQUIRED - SHORT BY 2.3 %.
  7
OpenSans
 11
589.4
 21
318.8499999999997
 31
0.0
100
AcDbText
  0
LINE
  5
276
330
17
100
AcDbEntity
  8
M-TABLE
100
AcDbLine
 10
558.0
 20
316.99999999999966
 30
0.0
 11
800.0
 21
316.99999999999966
 31
0.0
  0
TEXT
  5
277
330
17
100
AcDbEntity
  8
M-TABLE
100
AcDbText
 10
559.4
 20
313.04999999999967
 30
0.0
 40
2.1
  1

  7
OpenSans
 11
559.4
 21
313.04999999999967
 31
0.0
100
AcDbText
  0
TEXT
  5
278
330
17
100
AcDbEntity
  8
M-TABLE
100
AcDbText
 10
589.4
 20
313.04999999999967
 30
0.0
 40
2.1
  1
     Arithmetic, not judgement.  NOT resized here - ruling required
  7
OpenSans
 11
589.4
 21
313.04999999999967
 31
0.0
100
AcDbText
  0
LINE
  5
279
330
17
100
AcDbEntity
  8
M-TABLE
100
AcDbLine
 10
558.0
 20
311.19999999999965
 30
0.0
 11
800.0
 21
311.19999999999965
 31
0.0
  0
TEXT
  5
27A
330
17
100
AcDbEntity
  8
M-TABLE
100
AcDbText
 10
559.4
 20
307.24999999999966
 30
0.0
 40
2.1
  1
DR-D1
  7
OpenSans
 11
559.4
 21
307.24999999999966
 31
0.0
100
AcDbText
  0
TEXT
  5
27B
330
17
100
AcDbEntity
  8
M-TABLE
100
AcDbText
 10
589.4
 20
307.24999999999966
 30
0.0
 40
2.1
  1
RAINFALL 50 mm/h has no return period, duration or IDF source
  7
OpenSans
 11
589.4
 21
307.24999999999966
 31
0.0
100
AcDbText
  0
LINE
  5
27C
330
17
100
AcDbEntity
  8
M-TABLE
100
AcDbLine
 10
558.0
 20
305.39999999999964
 30
0.0
 11
800.0
 21
305.39999999999964
 31
0.0
  0
TEXT
  5
27D
330
17
100
AcDbEntity
  8
M-TABLE
100
AcDbText
 10
559.4
 20
301.44999999999965
 30
0.0
 40
2.1
  1
DR-D2
  7
OpenSans
 11
559.4
 21
301.44999999999965
 31
0.0
100
AcDbText
  0
TEXT
  5
27E
330
17
100
AcDbEntity
  8
M-TABLE
100
AcDbText
 10
589.4
 20
301.44999999999965
 30
0.0
 40
2.1
  1
PEACETIME FOUL ROUTE FROM THE BAY 2 LAVATORY IS UNDEFINED
  7
OpenSans
 11
589.4
 21
301.44999999999965
 31
0.0
100
AcDbText
  0
LINE
  5
27F
330
17
100
AcDbEntity
  8
M-TABLE
100
AcDbLine
 10
558.0
 20
299.5999999999996
 30
0.0
 11
800.0
 21
299.5999999999996
 31
0.0
  0
TEXT
  5
280
330
17
100
AcDbEntity
  8
M-TABLE
100
AcDbText
 10
559.4
 20
295.64999999999964
 30
0.0
 40
2.1
  1
DR-D3
  7
OpenSans
 11
559.4
 21
295.64999999999964
 31
0.0
100
AcDbText
  0
TEXT
  5
281
330
17
100
AcDbEntity
  8
M-TABLE
100
AcDbText
 10
589.4
 20
295.64999999999964
 30
0.0
 40
2.1
  1
NO SITE PLAN, BOUNDARY, CONTOUR, WELL OR OUTFALL EXISTS
  7
OpenSans
 11
589.4
 21
295.64999999999964
 31
0.0
100
AcDbText
  0
LINE
  5
282
330
17
100
AcDbEntity
  8
M-TABLE
100
AcDbLine
 10
558.0
 20
293.7999999999996
 30
0.0
 11
800.0
 21
293.7999999999996
 31
0.0
  0
TEXT
  5
283
330
17
100
AcDbEntity
  8
M-TABLE
100
AcDbText
 10
559.4
 20
289.8499999999996
 30
0.0
 40
2.1
  1
DR-D4
  7
OpenSans
 11
559.4
 21
289.8499999999996
 31
0.0
100
AcDbText
  0
TEXT
  5
284
330
17
100
AcDbEntity
  8
M-TABLE
100
AcDbText
 10
589.4
 20
289.8499999999996
 30
0.0
 40
2.1
  1
DECON EFFLUENT TANK EMPTYING ROUTE IS UNDEFINED
  7
OpenSans
 11
589.4
 21
289.8499999999996
 31
0.0
100
AcDbText
  0
LINE
  5
285
330
17
100
AcDbEntity
  8
M-TABLE
100
AcDbLine
 10
558.0
 20
287.9999999999996
 30
0.0
 11
800.0
 21
287.9999999999996
 31
0.0
  0
TEXT
  5
286
330
17
100
AcDbEntity
  8
M-TABLE
100
AcDbText
 10
559.4
 20
284.0499999999996
 30
0.0
 40
2.1
  1
DR-F1
  7
OpenSans
 11
559.4
 21
284.0499999999996
 31
0.0
100
AcDbText
  0
TEXT
  5
287
330
17
100
AcDbEntity
  8
M-TABLE
100
AcDbText
 10
589.4
 20
284.0499999999996
 30
0.0
 40
2.1
  1
Sump duty ratio 0.31 % - monthly witnessed standby test required
  7
OpenSans
 11
589.4
 21
284.0499999999996
 31
0.0
100
AcDbText
  0
LINE
  5
288
330
17
100
AcDbEntity
  8
M-TABLE
100
AcDbLine
 10
558.0
 20
282.1999999999996
 30
0.0
 11
800.0
 21
282.1999999999996
 31
0.0
  0
TEXT
  5
289
330
17
100
AcDbEntity
  8
M-TABLE
100
AcDbText
 10
559.4
 20
278.2499999999996
 30
0.0
 40
2.1
  1
DR-F2
  7
OpenSans
 11
559.4
 21
278.2499999999996
 31
0.0
100
AcDbText
  0
TEXT
  5
28A
330
17
100
AcDbEntity
  8
M-TABLE
100
AcDbText
 10
589.4
 20
278.2499999999996
 30
0.0
 40
2.1
  1
Screed reduces the FINISHED clear height 25-78 mm below the 3200
  7
OpenSans
 11
589.4
 21
278.2499999999996
 31
0.0
100
AcDbText
  0
LINE
  5
28B
330
17
100
AcDbEntity
  8
M-TABLE
100
AcDbLine
 10
558.0
 20
276.3999999999996
 30
0.0
 11
800.0
 21
276.3999999999996
 31
0.0
  0
TEXT
  5
28C
330
17
100
AcDbEntity
  8
M-TABLE
100
AcDbText
 10
559.4
 20
272.4499999999996
 30
0.0
 40
2.1
  1
DR-F3
  7
OpenSans
 11
559.4
 21
272.4499999999996
 31
0.0
100
AcDbText
  0
TEXT
  5
28D
330
17
100
AcDbEntity
  8
M-TABLE
100
AcDbText
 10
589.4
 20
272.4499999999996
 30
0.0
 40
2.1
  1
Stairwell soakaway needs 54.6 h to recover from one sump-full
  7
OpenSans
 11
589.4
 21
272.4499999999996
 31
0.0
100
AcDbText
  0
LINE
  5
28E
330
17
100
AcDbEntity
  8
M-TABLE
100
AcDbLine
 10
558.0
 20
270.59999999999957
 30
0.0
 11
800.0
 21
270.59999999999957
 31
0.0
  0
TEXT
  5
28F
330
17
100
AcDbEntity
  8
M-TABLE
100
AcDbText
 10
559.4
 20
266.6499999999996
 30
0.0
 40
2.1
  1
DR-F4
  7
OpenSans
 11
559.4
 21
266.6499999999996
 31
0.0
100
AcDbText
  0
TEXT
  5
290
330
17
100
AcDbEntity
  8
M-TABLE
100
AcDbText
 10
589.4
 20
266.6499999999996
 30
0.0
 40
2.1
  1
SCREED EXCEEDS THE 1.0 kPa MAT SIDL BY 0.24 kPa - REFERRED
  7
OpenSans
 11
589.4
 21
266.6499999999996
 31
0.0
100
AcDbText
  0
LINE
  5
291
330
17
100
AcDbEntity
  8
M-TABLE
100
AcDbLine
 10
558.0
 20
264.79999999999956
 30
0.0
 11
800.0
 21
264.79999999999956
 31
0.0
  0
TEXT
  5
292
330
17
100
AcDbEntity
  8
M-TABLE
100
AcDbText
 10
559.4
 20
260.84999999999957
 30
0.0
 40
2.1
  1
DR-F5
  7
OpenSans
 11
559.4
 21
260.84999999999957
 31
0.0
100
AcDbText
  0
TEXT
  5
293
330
17
100
AcDbEntity
  8
M-TABLE
100
AcDbText
 10
589.4
 20
260.84999999999957
 30
0.0
 40
2.1
  1
TWO OF THE THREE HYDRAULIC ZONES HAVE NO DRAINAGE DESTINATION
  7
OpenSans
 11
589.4
 21
260.84999999999957
 31
0.0
100
AcDbText
  0
LINE
  5
294
330
17
100
AcDbEntity
  8
M-TABLE
100
AcDbLine
 10
558.0
 20
258.99999999999955
 30
0.0
 11
800.0
 21
258.99999999999955
 31
0.0
  0
LINE
  5
295
330
17
100
AcDbEntity
  8
M-TABLE
100
AcDbLine
 10
558.0
 20
380.7999999999998
 30
0.0
 11
800.0
 21
380.7999999999998
 31
0.0
  0
LINE
  5
296
330
17
100
AcDbEntity
  8
M-TABLE
100
AcDbLine
 10
558.0
 20
380.7999999999998
 30
0.0
 11
558.0
 21
258.99999999999955
 31
0.0
  0
LINE
  5
297
330
17
100
AcDbEntity
  8
M-TABLE
100
AcDbLine
 10
588.0
 20
380.7999999999998
 30
0.0
 11
588.0
 21
258.99999999999955
 31
0.0
  0
LINE
  5
298
330
17
100
AcDbEntity
  8
M-TABLE
100
AcDbLine
 10
800.0
 20
380.7999999999998
 30
0.0
 11
800.0
 21
258.99999999999955
 31
0.0
  0
TEXT
  5
299
330
17
100
AcDbEntity
  8
S-TITLE
100
AcDbText
 10
14.0
 20
260.15000000000015
 30
0.0
 40
3.5
  1
V1   KEY PLAN  -  THE THREE STRUCTURES
  7
OpenSans
 11
14.0
 21
260.15000000000015
 31
0.0
100
AcDbText
  0
LINE
  5
29A
330
17
100
AcDbEntity
  8
S-TITLE
100
AcDbLine
 10
14.0
 20
258.35000000000014
 30
0.0
 11
116.46115204286671
 21
258.35000000000014
 31
0.0
  0
TEXT
  5
29B
330
17
100
AcDbEntity
  8
S-TEXT
100
AcDbText
 10
14.0
 20
252.95000000000016
 30
0.0
 40
2.0
  1
SCALE 1:100    SENTRY POST IS NOT SHOWN - IT IS OUTSIDE THIS PACKAGE
  7
OpenSans
 11
14.0
 21
252.95000000000016
 31
0.0
100
AcDbText
  0
LWPOLYLINE
  5
29C
330
17
100
AcDbEntity
  8
M-STRUCT
100
AcDbPolyline
 90
4
 70
1
 10
28.0
 20
168.15000000000015
 10
248.0
 20
168.15000000000015
 10
248.0
 20
230.15000000000015
 10
28.0
 20
230.15000000000015
  0
LWPOLYLINE
  5
29D
330
17
100
AcDbEntity
  8
M-STRUCT
100
AcDbPolyline
 90
4
 70
1
 10
34.0
 20
174.15000000000015
 10
242.0
 20
174.15000000000015
 10
242.0
 20
224.15000000000015
 10
34.0
 20
224.15000000000015
  0
LWPOLYLINE
  5
29E
330
17
100
AcDbEntity
  8
M-STRUCT
100
AcDbPolyline
 90
4
 70
1
 10
154.0
 20
174.15000000000015
 10
156.0
 20
174.15000000000015
 10
156.0
 20
224.15000000000015
 10
154.0
 20
224.15000000000015
  0
TEXT
  5
29F
330
17
100
AcDbEntity
  8
M-TEXT
100
AcDbText
 10
155.0
 20
225.65000000000015
 30
0.0
 40
2.4
  1
W5
  7
OpenSans
 72
1
 11
155.0
 21
225.65000000000015
 31
0.0
100
AcDbText
 73
1
  0
LWPOLYLINE
  5
2A0
330
17
100
AcDbEntity
  8
M-STRUCT
100
AcDbPolyline
 90
4
 70
1
 10
176.0
 20
174.15000000000015
 10
180.0
 20
174.15000000000015
 10
180.0
 20
224.15000000000015
 10
176.0
 20
224.15000000000015
  0
TEXT
  5
2A1
330
17
100
AcDbEntity
  8
M-TEXT
100
AcDbText
 10
178.0
 20
225.65000000000015
 30
0.0
 40
2.4
  1
W6
  7
OpenSans
 72
1
 11
178.0
 21
225.65000000000015
 31
0.0
100
AcDbText
 73
1
  0
LWPOLYLINE
  5
2A2
330
17
100
AcDbEntity
  8
M-STRUCT
100
AcDbPolyline
 90
4
 70
1
 10
208.0
 20
174.15000000000015
 10
212.0
 20
174.15000000000015
 10
212.0
 20
224.15000000000015
 10
208.0
 20
224.15000000000015
  0
TEXT
  5
2A3
330
17
100
AcDbEntity
  8
M-TEXT
100
AcDbText
 10
210.0
 20
225.65000000000015
 30
0.0
 40
2.4
  1
W7
  7
OpenSans
 72
1
 11
210.0
 21
225.65000000000015
 31
0.0
100
AcDbText
 73
1
  0
LWPOLYLINE
  5
2A4
330
17
100
AcDbEntity
  8
M-STRUCT
100
AcDbPolyline
 90
4
 70
1
 10
63.0
 20
174.15000000000015
 10
64.1
 20
174.15000000000015
 10
64.1
 20
193.15000000000015
 10
63.0
 20
193.15000000000015
  0
LWPOLYLINE
  5
2A5
330
17
100
AcDbEntity
  8
M-STRUCT
100
AcDbPolyline
 90
4
 70
1
 10
63.0
 20
202.15000000000015
 10
64.1
 20
202.15000000000015
 10
64.1
 20
224.15000000000015
 10
63.0
 20
224.15000000000015
  0
LWPOLYLINE
  5
2A6
330
17
100
AcDbEntity
  8
M-STRUCT
100
AcDbPolyline
 90
4
 70
1
 10
82.1
 20
174.15000000000015
 10
83.2
 20
174.15000000000015
 10
83.2
 20
193.15000000000015
 10
82.1
 20
193.15000000000015
  0
LWPOLYLINE
  5
2A7
330
17
100
AcDbEntity
  8
M-STRUCT
100
AcDbPolyline
 90
4
 70
1
 10
82.1
 20
202.15000000000015
 10
83.2
 20
202.15000000000015
 10
83.2
 20
224.15000000000015
 10
82.1
 20
224.15000000000015
  0
LWPOLYLINE
  5
2A8
330
17
100
AcDbEntity
  8
M-STRUCT
100
AcDbPolyline
 90
4
 70
1
 10
118.2
 20
174.15000000000015
 10
119.3
 20
174.15000000000015
 10
119.3
 20
193.15000000000015
 10
118.2
 20
193.15000000000015
  0
LWPOLYLINE
  5
2A9
330
17
100
AcDbEntity
  8
M-STRUCT
100
AcDbPolyline
 90
4
 70
1
 10
118.2
 20
202.15000000000015
 10
119.3
 20
202.15000000000015
 10
119.3
 20
224.15000000000015
 10
118.2
 20
224.15000000000015
  0
LWPOLYLINE
  5
2AA
330
17
100
AcDbEntity
  8
M-STRUCT
100
AcDbPolyline
 90
4
 70
1
 10
137.3
 20
174.15000000000015
 10
138.4
 20
174.15000000000015
 10
138.4
 20
193.15000000000015
 10
137.3
 20
193.15000000000015
  0
LWPOLYLINE
  5
2AB
330
17
100
AcDbEntity
  8
M-STRUCT
100
AcDbPolyline
 90
4
 70
1
 10
137.3
 20
202.15000000000015
 10
138.4
 20
202.15000000000015
 10
138.4
 20
224.15000000000015
 10
137.3
 20
224.15000000000015
  0
LWPOLYLINE
  5
2AC
330
17
100
AcDbEntity
  8
M-FLAG
100
AcDbPolyline
 90
4
 70
1
 10
176.0
 20
174.15000000000015
 10
180.0
 20
174.15000000000015
 10
180.0
 20
186.15000000000015
 10
176.0
 20
186.15000000000015
  0
LWPOLYLINE
  5
2AD
330
17
100
AcDbEntity
  8
M-FLAG
100
AcDbPolyline
 90
4
 70
1
 10
208.0
 20
174.15000000000015
 10
212.0
 20
174.15000000000015
 10
212.0
 20
186.15000000000015
 10
208.0
 20
186.15000000000015
  0
CIRCLE
  5
2AE
330
17
100
AcDbEntity
  8
M-ARCH
100
AcDbCircle
 10
48.5
 20
188.65000000000015
 30
0.0
 40
7.0
  0
CIRCLE
  5
2AF
330
17
100
AcDbEntity
  8
M-ARCH
100
AcDbCircle
 10
48.5
 20
188.65000000000015
 30
0.0
 40
9.5
  0
TEXT
  5
2B0
330
17
100
AcDbEntity
  8
M-TEXT
100
AcDbText
 10
48.5
 20
177.15000000000015
 30
0.0
 40
2.4
  1
ESC 1
  7
OpenSans
 72
1
 11
48.5
 21
177.15000000000015
 31
0.0
100
AcDbText
 73
1
  0
CIRCLE
  5
2B1
330
17
100
AcDbEntity
  8
M-ARCH
100
AcDbCircle
 10
227.0
 20
188.65000000000015
 30
0.0
 40
7.0
  0
CIRCLE
  5
2B2
330
17
100
AcDbEntity
  8
M-ARCH
100
AcDbCircle
 10
227.0
 20
188.65000000000015
 30
0.0
 40
9.5
  0
TEXT
  5
2B3
330
17
100
AcDbEntity
  8
M-TEXT
100
AcDbText
 10
227.0
 20
177.15000000000015
 30
0.0
 40
2.4
  1
ESC 2
  7
OpenSans
 72
1
 11
227.0
 21
177.15000000000015
 31
0.0
100
AcDbText
 73
1
  0
LWPOLYLINE
  5
2B4
330
17
100
AcDbEntity
  8
M-ARCH-HIDDEN
100
AcDbPolyline
 90
4
 70
1
 10
180.0
 20
174.15000000000015
 10
208.0
 20
174.15000000000015
 10
208.0
 20
205.75000000000014
 10
180.0
 20
205.75000000000014
  0
LWPOLYLINE
  5
2B5
330
17
100
AcDbEntity
  8
M-ARCH
100
AcDbPolyline
 90
4
 70
1
 10
181.0
 20
174.15000000000015
 10
193.0
 20
174.15000000000015
 10
193.0
 20
217.75000000000014
 10
181.0
 20
217.75000000000014
  0
LWPOLYLINE
  5
2B6
330
17
100
AcDbEntity
  8
M-ARCH
100
AcDbPolyline
 90
4
 70
1
 10
195.0
 20
174.15000000000015
 10
207.0
 20
174.15000000000015
 10
207.0
 20
217.75000000000014
 10
195.0
 20
217.75000000000014
  0
TEXT
  5
2B7
330
17
100
AcDbEntity
  8
M-TEXT
100
AcDbText
 10
194.0
 20
209.65000000000015
 30
0.0
 40
2.4
  1
STAIR SHAFT - FROZEN GEOMETRY
  7
OpenSans
 72
1
 11
194.0
 21
209.65000000000015
 31
0.0
100
AcDbText
 73
1
  0
CIRCLE
  5
2B8
330
17
100
AcDbEntity
  8
M-GRID
100
AcDbCircle
 10
48.5
 20
235.35000000000014
 30
0.0
 40
2.6
  0
TEXT
  5
2B9
330
17
100
AcDbEntity
  8
M-GRID
100
AcDbText
 10
48.5
 20
235.35000000000014
 30
0.0
 40
2.4
  1
1
  7
OpenSans
 72
1
 11
48.5
 21
235.35000000000014
 31
0.0
100
AcDbText
 73
2
  0
CIRCLE
  5
2BA
330
17
100
AcDbEntity
  8
M-GRID
100
AcDbCircle
 10
73.1
 20
235.35000000000014
 30
0.0
 40
2.6
  0
TEXT
  5
2BB
330
17
100
AcDbEntity
  8
M-GRID
100
AcDbText
 10
73.1
 20
235.35000000000014
 30
0.0
 40
2.4
  1
2
  7
OpenSans
 72
1
 11
73.1
 21
235.35000000000014
 31
0.0
100
AcDbText
 73
2
  0
CIRCLE
  5
2BC
330
17
100
AcDbEntity
  8
M-GRID
100
AcDbCircle
 10
100.7
 20
235.35000000000014
 30
0.0
 40
2.6
  0
TEXT
  5
2BD
330
17
100
AcDbEntity
  8
M-GRID
100
AcDbText
 10
100.7
 20
235.35000000000014
 30
0.0
 40
2.4
  1
3
  7
OpenSans
 72
1
 11
100.7
 21
235.35000000000014
 31
0.0
100
AcDbText
 73
2
  0
CIRCLE
  5
2BE
330
17
100
AcDbEntity
  8
M-GRID
100
AcDbCircle
 10
128.3
 20
235.35000000000014
 30
0.0
 40
2.6
  0
TEXT
  5
2BF
330
17
100
AcDbEntity
  8
M-GRID
100
AcDbText
 10
128.3
 20
235.35000000000014
 30
0.0
 40
2.4
  1
4
  7
OpenSans
 72
1
 11
128.3
 21
235.35000000000014
 31
0.0
100
AcDbText
 73
2
  0
CIRCLE
  5
2C0
330
17
100
AcDbEntity
  8
M-GRID
100
AcDbCircle
 10
146.2
 20
235.35000000000014
 30
0.0
 40
2.6
  0
TEXT
  5
2C1
330
17
100
AcDbEntity
  8
M-GRID
100
AcDbText
 10
146.2
 20
235.35000000000014
 30
0.0
 40
2.4
  1
5
  7
OpenSans
 72
1
 11
146.2
 21
235.35000000000014
 31
0.0
100
AcDbText
 73
2
  0
CIRCLE
  5
2C2
330
17
100
AcDbEntity
  8
M-GRID
100
AcDbCircle
 10
166.0
 20
235.35000000000014
 30
0.0
 40
2.6
  0
TEXT
  5
2C3
330
17
100
AcDbEntity
  8
M-GRID
100
AcDbText
 10
166.0
 20
235.35000000000014
 30
0.0
 40
2.4
  1
6
  7
OpenSans
 72
1
 11
166.0
 21
235.35000000000014
 31
0.0
100
AcDbText
 73
2
  0
CIRCLE
  5
2C4
330
17
100
AcDbEntity
  8
M-GRID
100
AcDbCircle
 10
194.0
 20
235.35000000000014
 30
0.0
 40
2.6
  0
TEXT
  5
2C5
330
17
100
AcDbEntity
  8
M-GRID
100
AcDbText
 10
194.0
 20
235.35000000000014
 30
0.0
 40
2.4
  1
7
  7
OpenSans
 72
1
 11
194.0
 21
235.35000000000014
 31
0.0
100
AcDbText
 73
2
  0
CIRCLE
  5
2C6
330
17
100
AcDbEntity
  8
M-GRID
100
AcDbCircle
 10
227.0
 20
235.35000000000014
 30
0.0
 40
2.6
  0
TEXT
  5
2C7
330
17
100
AcDbEntity
  8
M-GRID
100
AcDbText
 10
227.0
 20
235.35000000000014
 30
0.0
 40
2.4
  1
8
  7
OpenSans
 72
1
 11
227.0
 21
235.35000000000014
 31
0.0
100
AcDbText
 73
2
  0
LWPOLYLINE
  5
2C8
330
17
100
AcDbEntity
  8
M-STRUCT
100
AcDbPolyline
 90
4
 70
1
 10
164.0
 20
170.15000000000015
 10
212.0
 20
170.15000000000015
 10
212.0
 20
228.15000000000015
 10
164.0
 20
228.15000000000015
  0
LWPOLYLINE
  5
2C9
330
17
100
AcDbEntity
  8
M-STRUCT
100
AcDbPolyline
 90
4
 70
1
 10
168.0
 20
174.15000000000015
 10
208.0
 20
174.15000000000015
 10
208.0
 20
224.15000000000015
 10
168.0
 20
224.15000000000015
  0
LWPOLYLINE
  5
2CA
330
17
100
AcDbEntity
  8
M-STRUCT
100
AcDbPolyline
 90
4
 70
1
 10
120.5
 20
225.65000000000015
 10
188.5
 20
225.65000000000015
 10
188.5
 20
245.65000000000015
 10
120.5
 20
245.65000000000015
  0
LWPOLYLINE
  5
2CB
330
17
100
AcDbEntity
  8
M-STRUCT
100
AcDbPolyline
 90
4
 70
1
 10
123.0
 20
228.15000000000015
 10
186.0
 20
228.15000000000015
 10
186.0
 20
243.15000000000015
 10
123.0
 20
243.15000000000015
  0
LINE
  5
2CC
330
17
100
AcDbEntity
  8
M-ARCH
100
AcDbLine
 10
141.0
 20
228.15000000000015
 30
0.0
 11
141.0
 21
243.15000000000015
 31
0.0
  0
LINE
  5
2CD
330
17
100
AcDbEntity
  8
M-ARCH
100
AcDbLine
 10
144.0
 20
228.15000000000015
 30
0.0
 11
144.0
 21
243.15000000000015
 31
0.0
  0
LINE
  5
2CE
330
17
100
AcDbEntity
  8
M-ARCH
100
AcDbLine
 10
147.0
 20
228.15000000000015
 30
0.0
 11
147.0
 21
243.15000000000015
 31
0.0
  0
LINE
  5
2CF
330
17
100
AcDbEntity
  8
M-ARCH
100
AcDbLine
 10
150.0
 20
228.15000000000015
 30
0.0
 11
150.0
 21
243.15000000000015
 31
0.0
  0
LINE
  5
2D0
330
17
100
AcDbEntity
  8
M-ARCH
100
AcDbLine
 10
153.0
 20
228.15000000000015
 30
0.0
 11
153.0
 21
243.15000000000015
 31
0.0
  0
LINE
  5
2D1
330
17
100
AcDbEntity
  8
M-ARCH
100
AcDbLine
 10
156.0
 20
228.15000000000015
 30
0.0
 11
156.0
 21
243.15000000000015
 31
0.0
  0
LINE
  5
2D2
330
17
100
AcDbEntity
  8
M-ARCH
100
AcDbLine
 10
159.0
 20
228.15000000000015
 30
0.0
 11
159.0
 21
243.15000000000015
 31
0.0
  0
LINE
  5
2D3
330
17
100
AcDbEntity
  8
M-ARCH
100
AcDbLine
 10
162.0
 20
228.15000000000015
 30
0.0
 11
162.0
 21
243.15000000000015
 31
0.0
  0
LINE
  5
2D4
330
17
100
AcDbEntity
  8
M-ARCH
100
AcDbLine
 10
165.0
 20
228.15000000000015
 30
0.0
 11
165.0
 21
243.15000000000015
 31
0.0
  0
LINE
  5
2D5
330
17
100
AcDbEntity
  8
M-ARCH
100
AcDbLine
 10
168.0
 20
228.15000000000015
 30
0.0
 11
168.0
 21
243.15000000000015
 31
0.0
  0
LINE
  5
2D6
330
17
100
AcDbEntity
  8
M-ARCH
100
AcDbLine
 10
138.0
 20
228.15000000000015
 30
0.0
 11
138.0
 21
243.15000000000015
 31
0.0
  0
LINE
  5
2D7
330
17
100
AcDbEntity
  8
M-ARCH
100
AcDbLine
 10
171.0
 20
228.15000000000015
 30
0.0
 11
171.0
 21
243.15000000000015
 31
0.0
  0
LWPOLYLINE
  5
2D8
330
17
100
AcDbEntity
  8
M-FLAG
100
AcDbPolyline
 90
4
 70
1
 10
120.5
 20
230.65000000000015
 10
123.0
 20
230.65000000000015
 10
123.0
 20
240.65000000000015
 10
120.5
 20
240.65000000000015
  0
LWPOLYLINE
  5
2D9
330
17
100
AcDbEntity
  8
M-FLAG
100
AcDbPolyline
 90
4
 70
1
 10
172.5
 20
224.15000000000015
 10
181.5
 20
224.15000000000015
 10
181.5
 20
228.15000000000015
 10
172.5
 20
228.15000000000015
  0
LWPOLYLINE
  5
2DA
330
17
100
AcDbEntity
  8
P-DRAIN-STORM
100
AcDbPolyline
 90
4
 70
1
 10
117.5
 20
228.15000000000015
 10
120.5
 20
228.15000000000015
 10
120.5
 20
243.15000000000015
 10
117.5
 20
243.15000000000015
  0
LINE
  5
2DB
330
17
100
AcDbEntity
  8
M-EXISTING
100
AcDbLine
 10
107.0
 20
212.15000000000015
 30
0.0
 11
109.0
 21
212.15000000000015
 31
0.0
  0
LINE
  5
2DC
330
17
100
AcDbEntity
  8
M-EXISTING
100
AcDbLine
 10
110.4
 20
212.15000000000015
 30
0.0
 11
112.4
 21
212.15000000000015
 31
0.0
  0
LINE
  5
2DD
330
17
100
AcDbEntity
  8
M-EXISTING
100
AcDbLine
 10
113.8
 20
212.15000000000015
 30
0.0
 11
115.8
 21
212.15000000000015
 31
0.0
  0
LINE
  5
2DE
330
17
100
AcDbEntity
  8
M-EXISTING
100
AcDbLine
 10
117.2
 20
212.15000000000015
 30
0.0
 11
119.2
 21
212.15000000000015
 31
0.0
  0
LINE
  5
2DF
330
17
100
AcDbEntity
  8
M-EXISTING
100
AcDbLine
 10
120.6
 20
212.15000000000015
 30
0.0
 11
122.6
 21
212.15000000000015
 31
0.0
  0
LINE
  5
2E0
330
17
100
AcDbEntity
  8
M-EXISTING
100
AcDbLine
 10
124.0
 20
212.15000000000015
 30
0.0
 11
126.0
 21
212.15000000000015
 31
0.0
  0
LINE
  5
2E1
330
17
100
AcDbEntity
  8
M-EXISTING
100
AcDbLine
 10
127.4
 20
212.15000000000015
 30
0.0
 11
129.4
 21
212.15000000000015
 31
0.0
  0
LINE
  5
2E2
330
17
100
AcDbEntity
  8
M-EXISTING
100
AcDbLine
 10
130.8
 20
212.15000000000015
 30
0.0
 11
132.8
 21
212.15000000000015
 31
0.0
  0
LINE
  5
2E3
330
17
100
AcDbEntity
  8
M-EXISTING
100
AcDbLine
 10
134.2
 20
212.15000000000015
 30
0.0
 11
136.2
 21
212.15000000000015
 31
0.0
  0
LINE
  5
2E4
330
17
100
AcDbEntity
  8
M-EXISTING
100
AcDbLine
 10
137.6
 20
212.15000000000015
 30
0.0
 11
139.6
 21
212.15000000000015
 31
0.0
  0
LINE
  5
2E5
330
17
100
AcDbEntity
  8
M-EXISTING
100
AcDbLine
 10
141.0
 20
212.15000000000015
 30
0.0
 11
143.0
 21
212.15000000000015
 31
0.0
  0
LINE
  5
2E6
330
17
100
AcDbEntity
  8
M-EXISTING
100
AcDbLine
 10
144.39999999999998
 20
212.15000000000015
 30
0.0
 11
146.39999999999998
 21
212.15000000000015
 31
0.0
  0
LINE
  5
2E7
330
17
100
AcDbEntity
  8
M-EXISTING
100
AcDbLine
 10
147.79999999999998
 20
212.15000000000015
 30
0.0
 11
149.79999999999998
 21
212.15000000000015
 31
0.0
  0
LINE
  5
2E8
330
17
100
AcDbEntity
  8
M-EXISTING
100
AcDbLine
 10
151.2
 20
212.15000000000015
 30
0.0
 11
153.2
 21
212.15000000000015
 31
0.0
  0
LINE
  5
2E9
330
17
100
AcDbEntity
  8
M-EXISTING
100
AcDbLine
 10
154.6
 20
212.15000000000015
 30
0.0
 11
156.6
 21
212.15000000000015
 31
0.0
  0
LINE
  5
2EA
330
17
100
AcDbEntity
  8
M-EXISTING
100
AcDbLine
 10
158.0
 20
212.15000000000015
 30
0.0
 11
160.0
 21
212.15000000000015
 31
0.0
  0
LINE
  5
2EB
330
17
100
AcDbEntity
  8
M-EXISTING
100
AcDbLine
 10
161.39999999999998
 20
212.15000000000015
 30
0.0
 11
163.39999999999998
 21
212.15000000000015
 31
0.0
  0
LINE
  5
2EC
330
17
100
AcDbEntity
  8
M-EXISTING
100
AcDbLine
 10
164.79999999999998
 20
212.15000000000015
 30
0.0
 11
166.79999999999998
 21
212.15000000000015
 31
0.0
  0
LINE
  5
2ED
330
17
100
AcDbEntity
  8
M-EXISTING
100
AcDbLine
 10
168.2
 20
212.15000000000015
 30
0.0
 11
170.2
 21
212.15000000000015
 31
0.0
  0
LINE
  5
2EE
330
17
100
AcDbEntity
  8
M-EXISTING
100
AcDbLine
 10
171.59999999999997
 20
212.15000000000015
 30
0.0
 11
173.59999999999997
 21
212.15000000000015
 31
0.0
  0
LINE
  5
2EF
330
17
100
AcDbEntity
  8
M-EXISTING
100
AcDbLine
 10
175.0
 20
212.15000000000015
 30
0.0
 11
177.0
 21
212.15000000000015
 31
0.0
  0
LINE
  5
2F0
330
17
100
AcDbEntity
  8
M-EXISTING
100
AcDbLine
 10
178.39999999999998
 20
212.15000000000015
 30
0.0
 11
180.39999999999998
 21
212.15000000000015
 31
0.0
  0
LINE
  5
2F1
330
17
100
AcDbEntity
  8
M-EXISTING
100
AcDbLine
 10
181.8
 20
212.15000000000015
 30
0.0
 11
183.8
 21
212.15000000000015
 31
0.0
  0
LINE
  5
2F2
330
17
100
AcDbEntity
  8
M-EXISTING
100
AcDbLine
 10
185.2
 20
212.15000000000015
 30
0.0
 11
187.2
 21
212.15000000000015
 31
0.0
  0
LINE
  5
2F3
330
17
100
AcDbEntity
  8
M-EXISTING
100
AcDbLine
 10
188.60000000000002
 20
212.15000000000015
 30
0.0
 11
190.60000000000002
 21
212.15000000000015
 31
0.0
  0
LINE
  5
2F4
330
17
100
AcDbEntity
  8
M-EXISTING
100
AcDbLine
 10
192.0
 20
212.15000000000015
 30
0.0
 11
194.0
 21
212.15000000000015
 31
0.0
  0
LINE
  5
2F5
330
17
100
AcDbEntity
  8
M-EXISTING
100
AcDbLine
 10
195.40000000000003
 20
212.15000000000015
 30
0.0
 11
197.40000000000003
 21
212.15000000000015
 31
0.0
  0
LINE
  5
2F6
330
17
100
AcDbEntity
  8
M-EXISTING
100
AcDbLine
 10
198.8
 20
212.15000000000015
 30
0.0
 11
200.8
 21
212.15000000000015
 31
0.0
  0
LINE
  5
2F7
330
17
100
AcDbEntity
  8
M-EXISTING
100
AcDbLine
 10
107.0
 20
259.15000000000015
 30
0.0
 11
109.0
 21
259.15000000000015
 31
0.0
  0
LINE
  5
2F8
330
17
100
AcDbEntity
  8
M-EXISTING
100
AcDbLine
 10
110.4
 20
259.15000000000015
 30
0.0
 11
112.4
 21
259.15000000000015
 31
0.0
  0
LINE
  5
2F9
330
17
100
AcDbEntity
  8
M-EXISTING
100
AcDbLine
 10
113.8
 20
259.15000000000015
 30
0.0
 11
115.8
 21
259.15000000000015
 31
0.0
  0
LINE
  5
2FA
330
17
100
AcDbEntity
  8
M-EXISTING
100
AcDbLine
 10
117.2
 20
259.15000000000015
 30
0.0
 11
119.2
 21
259.15000000000015
 31
0.0
  0
LINE
  5
2FB
330
17
100
AcDbEntity
  8
M-EXISTING
100
AcDbLine
 10
120.6
 20
259.15000000000015
 30
0.0
 11
122.6
 21
259.15000000000015
 31
0.0
  0
LINE
  5
2FC
330
17
100
AcDbEntity
  8
M-EXISTING
100
AcDbLine
 10
124.0
 20
259.15000000000015
 30
0.0
 11
126.0
 21
259.15000000000015
 31
0.0
  0
LINE
  5
2FD
330
17
100
AcDbEntity
  8
M-EXISTING
100
AcDbLine
 10
127.4
 20
259.15000000000015
 30
0.0
 11
129.4
 21
259.15000000000015
 31
0.0
  0
LINE
  5
2FE
330
17
100
AcDbEntity
  8
M-EXISTING
100
AcDbLine
 10
130.8
 20
259.15000000000015
 30
0.0
 11
132.8
 21
259.15000000000015
 31
0.0
  0
LINE
  5
2FF
330
17
100
AcDbEntity
  8
M-EXISTING
100
AcDbLine
 10
134.2
 20
259.15000000000015
 30
0.0
 11
136.2
 21
259.15000000000015
 31
0.0
  0
LINE
  5
300
330
17
100
AcDbEntity
  8
M-EXISTING
100
AcDbLine
 10
137.6
 20
259.15000000000015
 30
0.0
 11
139.6
 21
259.15000000000015
 31
0.0
  0
LINE
  5
301
330
17
100
AcDbEntity
  8
M-EXISTING
100
AcDbLine
 10
141.0
 20
259.15000000000015
 30
0.0
 11
143.0
 21
259.15000000000015
 31
0.0
  0
LINE
  5
302
330
17
100
AcDbEntity
  8
M-EXISTING
100
AcDbLine
 10
144.39999999999998
 20
259.15000000000015
 30
0.0
 11
146.39999999999998
 21
259.15000000000015
 31
0.0
  0
LINE
  5
303
330
17
100
AcDbEntity
  8
M-EXISTING
100
AcDbLine
 10
147.79999999999998
 20
259.15000000000015
 30
0.0
 11
149.79999999999998
 21
259.15000000000015
 31
0.0
  0
LINE
  5
304
330
17
100
AcDbEntity
  8
M-EXISTING
100
AcDbLine
 10
151.2
 20
259.15000000000015
 30
0.0
 11
153.2
 21
259.15000000000015
 31
0.0
  0
LINE
  5
305
330
17
100
AcDbEntity
  8
M-EXISTING
100
AcDbLine
 10
154.6
 20
259.15000000000015
 30
0.0
 11
156.6
 21
259.15000000000015
 31
0.0
  0
LINE
  5
306
330
17
100
AcDbEntity
  8
M-EXISTING
100
AcDbLine
 10
158.0
 20
259.15000000000015
 30
0.0
 11
160.0
 21
259.15000000000015
 31
0.0
  0
LINE
  5
307
330
17
100
AcDbEntity
  8
M-EXISTING
100
AcDbLine
 10
161.39999999999998
 20
259.15000000000015
 30
0.0
 11
163.39999999999998
 21
259.15000000000015
 31
0.0
  0
LINE
  5
308
330
17
100
AcDbEntity
  8
M-EXISTING
100
AcDbLine
 10
164.79999999999998
 20
259.15000000000015
 30
0.0
 11
166.79999999999998
 21
259.15000000000015
 31
0.0
  0
LINE
  5
309
330
17
100
AcDbEntity
  8
M-EXISTING
100
AcDbLine
 10
168.2
 20
259.15000000000015
 30
0.0
 11
170.2
 21
259.15000000000015
 31
0.0
  0
LINE
  5
30A
330
17
100
AcDbEntity
  8
M-EXISTING
100
AcDbLine
 10
171.59999999999997
 20
259.15000000000015
 30
0.0
 11
173.59999999999997
 21
259.15000000000015
 31
0.0
  0
LINE
  5
30B
330
17
100
AcDbEntity
  8
M-EXISTING
100
AcDbLine
 10
175.0
 20
259.15000000000015
 30
0.0
 11
177.0
 21
259.15000000000015
 31
0.0
  0
LINE
  5
30C
330
17
100
AcDbEntity
  8
M-EXISTING
100
AcDbLine
 10
178.39999999999998
 20
259.15000000000015
 30
0.0
 11
180.39999999999998
 21
259.15000000000015
 31
0.0
  0
LINE
  5
30D
330
17
100
AcDbEntity
  8
M-EXISTING
100
AcDbLine
 10
181.8
 20
259.15000000000015
 30
0.0
 11
183.8
 21
259.15000000000015
 31
0.0
  0
LINE
  5
30E
330
17
100
AcDbEntity
  8
M-EXISTING
100
AcDbLine
 10
185.2
 20
259.15000000000015
 30
0.0
 11
187.2
 21
259.15000000000015
 31
0.0
  0
LINE
  5
30F
330
17
100
AcDbEntity
  8
M-EXISTING
100
AcDbLine
 10
188.60000000000002
 20
259.15000000000015
 30
0.0
 11
190.60000000000002
 21
259.15000000000015
 31
0.0
  0
LINE
  5
310
330
17
100
AcDbEntity
  8
M-EXISTING
100
AcDbLine
 10
192.0
 20
259.15000000000015
 30
0.0
 11
194.0
 21
259.15000000000015
 31
0.0
  0
LINE
  5
311
330
17
100
AcDbEntity
  8
M-EXISTING
100
AcDbLine
 10
195.40000000000003
 20
259.15000000000015
 30
0.0
 11
197.40000000000003
 21
259.15000000000015
 31
0.0
  0
LINE
  5
312
330
17
100
AcDbEntity
  8
M-EXISTING
100
AcDbLine
 10
198.8
 20
259.15000000000015
 30
0.0
 11
200.8
 21
259.15000000000015
 31
0.0
  0
INSERT
  5
313
330
17
100
AcDbEntity
  8
0
100
AcDbBlockReference
  2
GULLY
 10
48.5
 20
199.15000000000015
 30
0.0
 41
0.55
 42
0.55
  0
INSERT
  5
315
330
17
100
AcDbEntity
  8
0
100
AcDbBlockReference
  2
GULLY
 10
73.1
 20
199.15000000000015
 30
0.0
 41
0.55
 42
0.55
  0
INSERT
  5
317
330
17
100
AcDbEntity
  8
0
100
AcDbBlockReference
  2
GULLY
 10
100.7
 20
199.15000000000015
 30
0.0
 41
0.55
 42
0.55
  0
INSERT
  5
319
330
17
100
AcDbEntity
  8
0
100
AcDbBlockReference
  2
GULLY
 10
128.3
 20
199.15000000000015
 30
0.0
 41
0.55
 42
0.55
  0
INSERT
  5
31B
330
17
100
AcDbEntity
  8
0
100
AcDbBlockReference
  2
GULLY
 10
146.2
 20
194.15000000000015
 30
0.0
 41
0.55
 42
0.55
  0
INSERT
  5
31D
330
17
100
AcDbEntity
  8
0
100
AcDbBlockReference
  2
GULLY
 10
166.0
 20
214.15000000000015
 30
0.0
 41
0.55
 42
0.55
  0
INSERT
  5
31F
330
17
100
AcDbEntity
  8
0
100
AcDbBlockReference
  2
GULLY
 10
166.0
 20
196.65000000000015
 30
0.0
 41
0.55
 42
0.55
  0
INSERT
  5
321
330
17
100
AcDbEntity
  8
0
100
AcDbBlockReference
  2
GULLY
 10
166.0
 20
181.65000000000015
 30
0.0
 41
0.55
 42
0.55
  0
INSERT
  5
323
330
17
100
AcDbEntity
  8
0
100
AcDbBlockReference
  2
GULLY
 10
227.0
 20
199.15000000000015
 30
0.0
 41
0.55
 42
0.55
  0
INSERT
  5
325
330
17
100
AcDbEntity
  8
0
100
AcDbBlockReference
  2
GULLY
 10
178.5
 20
235.65000000000015
 30
0.0
 41
0.55
 42
0.55
  0
INSERT
  5
327
330
17
100
AcDbEntity
  8
0
100
AcDbBlockReference
  2
GULLY
 10
175.0
 20
187.75000000000014
 30
0.0
 41
0.55
 42
0.55
  0
INSERT
  5
329
330
17
100
AcDbEntity
  8
0
100
AcDbBlockReference
  2
GULLY
 10
119.0
 20
235.65000000000015
 30
0.0
 41
0.55
 42
0.55
  0
LWPOLYLINE
  5
32B
330
17
100
AcDbEntity
  8
P-EQUIP
100
AcDbPolyline
 90
4
 70
1
 10
138.68
 20
177.15000000000015
 10
153.68
 20
177.15000000000015
 10
153.68
 20
192.15000000000015
 10
138.68
 20
192.15000000000015
  0
TEXT
  5
32C
330
17
100
AcDbEntity
  8
M-TEXT
100
AcDbText
 10
146.0
 20
171.15000000000015
 30
0.0
 40
1.4
  1
CLEAN SUMP
  7
OpenSans
 72
1
 11
146.0
 21
171.15000000000015
 31
0.0
100
AcDbText
 73
1
  0
LWPOLYLINE
  5
32D
330
17
100
AcDbEntity
  8
P-DRAIN-RISING
100
AcDbPolyline
 90
4
 70
1
 10
141.98000000000002
 20
224.15000000000015
 10
149.98000000000002
 20
224.15000000000015
 10
149.98000000000002
 20
230.15000000000015
 10
141.98000000000002
 20
230.15000000000015
  0
TEXT
  5
32E
330
17
100
AcDbEntity
  8
M-FLAG
100
AcDbText
 10
146.0
 20
230.65000000000015
 30
0.0
 40
1.4
  1
SERVICE ENTRY PLATE - THE ONLY ENVELOPE PENETRATION
  7
OpenSans
 72
1
 11
146.0
 21
230.65000000000015
 31
0.0
100
AcDbText
 73
1
  0
LWPOLYLINE
  5
32F
330
17
100
AcDbEntity
  8
P-DRAIN-EFF
100
AcDbPolyline
 90
4
 70
1
 10
229.98
 20
212.15000000000015
 10
241.98
 20
212.15000000000015
 10
241.98
 20
224.15000000000015
 10
229.98
 20
224.15000000000015
  0
TEXT
  5
330
330
17
100
AcDbEntity
  8
M-TEXT
100
AcDbText
 10
236.0
 20
217.15000000000015
 30
0.0
 40
1.4
  1
TK-01
  7
OpenSans
 72
1
 11
236.0
 21
217.15000000000015
 31
0.0
100
AcDbText
 73
2
  0
DIMENSION
  5
331
330
17
100
AcDbEntity
  8
S-DIM
100
AcDbDimension
280
0
  2
*D1
  3
SC-DIM
 10
28.0
 20
151.15000000000015
 30
0.0
 11
138.0
 21
152.85000000000014
 31
0.0
 70
32
 71
5
  1
<>
100
AcDbAlignedDimension
 13
28.0
 23
159.15000000000015
 33
0.0
 14
248.0
 24
159.15000000000015
 34
0.0
 50
0.0
100
AcDbRotatedDimension
1001
ACAD
1000
DSTYLE
1002
{
1070
144
1040
100.0
1002
}
  0
TEXT
  5
340
330
17
100
AcDbEntity
  8
M-CALLOUT
100
AcDbText
 10
68.0
 20
138.15000000000015
 30
0.0
 40
1.4
  1
D-201 / D-203  UNDERGROUND
  7
OpenSans
 72
1
 11
68.0
 21
138.15000000000015
 31
0.0
100
AcDbText
 73
1
  0
TEXT
  5
341
330
17
100
AcDbEntity
  8
M-CALLOUT
100
AcDbText
 10
158.0
 20
257.15000000000015
 30
0.0
 40
1.4
  1
D-101 / D-102 / D-103  ABOVE GROUND AND ENTRY
  7
OpenSans
 72
1
 11
158.0
 21
257.15000000000015
 31
0.0
100
AcDbText
 73
1
  0
TEXT
  5
342
330
17
100
AcDbEntity
  8
S-TITLE
100
AcDbText
 10
16.0
 20
135.65000000000015
 30
0.0
 40
2.5
  1
4   WHAT THIS PACKAGE DOES NOT CALCULATE, AND WHY
  7
OpenSans
 11
16.0
 21
135.65000000000015
 31
0.0
100
AcDbText
  0
TEXT
  5
343
330
17
100
AcDbEntity
  8
S-NOTE
100
AcDbText
 10
16.0
 20
131.12500000000014
 30
0.0
 40
2.4
  1
SITE-WIDE STORM RUNOFF         no site plan, boundary, contour or
  7
OpenSans
 11
16.0
 21
131.12500000000014
 31
0.0
100
AcDbText
  0
TEXT
  5
344
330
17
100
AcDbEntity
  8
S-NOTE
100
AcDbText
 10
16.0
 20
126.82500000000014
 30
0.0
 40
2.4
  1
                               external paved area exists          [N]
  7
OpenSans
 11
16.0
 21
126.82500000000014
 31
0.0
100
AcDbText
  0
TEXT
  5
345
330
17
100
AcDbEntity
  8
S-NOTE
100
AcDbText
 10
16.0
 20
122.52500000000015
 30
0.0
 40
2.4
  1
RETURN PERIOD / IDF CURVE      only a bare 50 mm/h is recorded      [U]
  7
OpenSans
 11
16.0
 21
122.52500000000015
 31
0.0
100
AcDbText
  0
TEXT
  5
346
330
17
100
AcDbEntity
  8
S-NOTE
100
AcDbText
 10
16.0
 20
118.22500000000015
 30
0.0
 40
2.4
  1
RUNOFF COEFFICIENT FOR TURF    no infiltration data; C = 1.00 used
  7
OpenSans
 11
16.0
 21
118.22500000000015
 31
0.0
100
AcDbText
  0
TEXT
  5
347
330
17
100
AcDbEntity
  8
S-NOTE
100
AcDbText
 10
16.0
 20
113.92500000000015
 30
0.0
 40
2.4
  1
                               as the conservative bound           [A]
  7
OpenSans
 11
16.0
 21
113.92500000000015
 31
0.0
100
AcDbText
  0
TEXT
  5
348
330
17
100
AcDbEntity
  8
S-NOTE
100
AcDbText
 10
16.0
 20
109.62500000000016
 30
0.0
 40
2.4
  1
TOTAL PUMP HEAD, EITHER SUMP   route length not fixed and no
  7
OpenSans
 11
16.0
 21
109.62500000000016
 31
0.0
100
AcDbText
  0
TEXT
  5
349
330
17
100
AcDbEntity
  8
S-NOTE
100
AcDbText
 10
16.0
 20
105.32500000000016
 30
0.0
 40
2.4
  1
                               discharge level recorded            [N]
  7
OpenSans
 11
16.0
 21
105.32500000000016
 31
0.0
100
AcDbText
  0
TEXT
  5
34A
330
17
100
AcDbEntity
  8
S-NOTE
100
AcDbText
 10
16.0
 20
101.02500000000016
 30
0.0
 40
2.4
  1
FOUL FROM THE BAY 2 LAVATORY   no route exists - open item D2       [U]
  7
OpenSans
 11
16.0
 21
101.02500000000016
 31
0.0
100
AcDbText
  0
TEXT
  5
34B
330
17
100
AcDbEntity
  8
S-NOTE
100
AcDbText
 10
16.0
 20
96.72500000000016
 30
0.0
 40
2.4
  1
WASHDOWN / HOSE DESIGN FLOW    no washdown regime is specified      [N]
  7
OpenSans
 11
16.0
 21
96.72500000000016
 31
0.0
100
AcDbText
  0
TEXT
  5
34C
330
17
100
AcDbEntity
  8
S-NOTE
100
AcDbText
 10
16.0
 20
92.42500000000017
 30
0.0
 40
2.4
  1
UPLIFT AND FLOTATION           already designed in master B.3.  A
  7
OpenSans
 11
16.0
 21
92.42500000000017
 31
0.0
100
AcDbText
  0
TEXT
  5
34D
330
17
100
AcDbEntity
  8
S-NOTE
100
AcDbText
 10
16.0
 20
88.12500000000017
 30
0.0
 40
2.4
  1
                               drainage package does not re-open it
  7
OpenSans
 11
16.0
 21
88.12500000000017
 31
0.0
100
AcDbText
  0
TEXT
  5
34E
330
17
100
AcDbEntity
  8
S-NOTE
100
AcDbText
 10
16.0
 20
83.82500000000017
 30
0.0
 40
2.4
  1
PERMANENT GROUNDWATER LOWERING the box is a TANK, not a drained
  7
OpenSans
 11
16.0
 21
83.82500000000017
 31
0.0
100
AcDbText
  0
TEXT
  5
34F
330
17
100
AcDbEntity
  8
S-NOTE
100
AcDbText
 10
16.0
 20
79.52500000000018
 30
0.0
 40
2.4
  1
                               structure - by design               [C]
  7
OpenSans
 11
16.0
 21
79.52500000000018
 31
0.0
100
AcDbText
  0
LWPOLYLINE
  5
350
330
17
100
AcDbEntity
  8
S-TITLE
100
AcDbPolyline
 90
4
 70
1
 10
14.0
 20
73.22500000000018
 10
278.0
 20
73.22500000000018
 10
278.0
 20
140.15000000000015
 10
14.0
 20
140.15000000000015
  0
TEXT
  5
351
330
17
100
AcDbEntity
  8
S-TITLE
100
AcDbText
 10
560.0
 20
246.49999999999955
 30
0.0
 40
2.5
  1
SCOPE AND STATUS
  7
OpenSans
 11
560.0
 21
246.49999999999955
 31
0.0
100
AcDbText
  0
TEXT
  5
352
330
17
100
AcDbEntity
  8
S-NOTE
100
AcDbText
 10
560.0
 20
242.37499999999955
 30
0.0
 40
2.0
  1
SENTRY POST IS EXCLUDED from this package - no sentry post element is
  7
OpenSans
 11
560.0
 21
242.37499999999955
 31
0.0
100
AcDbText
  0
TEXT
  5
353
330
17
100
AcDbEntity
  8
S-NOTE
100
AcDbText
 10
560.0
 20
238.97499999999954
 30
0.0
 40
2.0
  1
drawn, scheduled or quantified here.  Historical sentry post information
  7
OpenSans
 11
560.0
 21
238.97499999999954
 31
0.0
100
AcDbText
  0
TEXT
  5
354
330
17
100
AcDbEntity
  8
S-NOTE
100
AcDbText
 10
560.0
 20
235.57499999999953
 30
0.0
 40
2.0
  1
elsewhere in the project is untouched.
  7
OpenSans
 11
560.0
 21
235.57499999999953
 31
0.0
100
AcDbText
  0
TEXT
  5
355
330
17
100
AcDbEntity
  8
S-NOTE
100
AcDbText
 10
560.0
 20
228.77499999999952
 30
0.0
 40
2.0
  1
MAIN STAIRCASE GEOMETRY IS FROZEN.  24R @ 170.8333 / 280, 3 flights x 8,
  7
OpenSans
 11
560.0
 21
228.77499999999952
 31
0.0
100
AcDbText
  0
TEXT
  5
356
330
17
100
AcDbEntity
  8
S-NOTE
100
AcDbText
 10
560.0
 20
225.37499999999952
 30
0.0
 40
2.0
  1
total rise 4100.  It is annotated on these sheets and never altered.
  7
OpenSans
 11
560.0
 21
225.37499999999952
 31
0.0
100
AcDbText
  0
TEXT
  5
357
330
17
100
AcDbEntity
  8
S-NOTE
100
AcDbText
 10
560.0
 20
218.5749999999995
 30
0.0
 40
2.0
  1
DEVELOPED FOR PROJECT COORDINATION.  Design basis established.  Pending
  7
OpenSans
 11
560.0
 21
218.5749999999995
 31
0.0
100
AcDbText
  0
TEXT
  5
358
330
17
100
AcDbEntity
  8
S-NOTE
100
AcDbText
 10
560.0
 20
215.1749999999995
 30
0.0
 40
2.0
  1
engineering verification.  NOT construction ready, NOT a final design.
  7
OpenSans
 11
560.0
 21
215.1749999999995
 31
0.0
100
AcDbText
  0
LWPOLYLINE
  5
359
330
17
100
AcDbEntity
  8
S-TITLE
100
AcDbPolyline
 90
4
 70
1
 10
558.0
 20
209.7749999999995
 10
800.0
 20
209.7749999999995
 10
800.0
 20
250.99999999999955
 10
558.0
 20
250.99999999999955
  0
TEXT
  5
35A
330
17
100
AcDbEntity
  8
S-TITLE
100
AcDbText
 10
560.0
 20
196.49999999999955
 30
0.0
 40
2.5
  1
EVIDENCE CLASS - APPLIED TO EVERY VALUE ON THIS SHEET
  7
OpenSans
 11
560.0
 21
196.49999999999955
 31
0.0
100
AcDbText
  0
TEXT
  5
35B
330
17
100
AcDbEntity
  8
S-NOTE
100
AcDbText
 10
560.0
 20
192.37499999999955
 30
0.0
 40
2.0
  1
[C] CONFIRMED       traceable to the master, to a Rev F drawing or to sheet S-06
  7
OpenSans
 11
560.0
 21
192.37499999999955
 31
0.0
100
AcDbText
  0
TEXT
  5
35C
330
17
100
AcDbEntity
  8
S-NOTE
100
AcDbText
 10
560.0
 20
188.97499999999954
 30
0.0
 40
2.0
  1
[R] RECONSTRUCTED   computed here from confirmed values; the arithmetic is shown
  7
OpenSans
 11
560.0
 21
188.97499999999954
 31
0.0
100
AcDbText
  0
TEXT
  5
35D
330
17
100
AcDbEntity
  8
S-NOTE
100
AcDbText
 10
560.0
 20
185.57499999999953
 30
0.0
 40
2.0
  1
[A] ASSUMED         an engineering selection made by this package - confirm before construction
  7
OpenSans
 11
560.0
 21
185.57499999999953
 31
0.0
100
AcDbText
  0
TEXT
  5
35E
330
17
100
AcDbEntity
  8
S-NOTE
100
AcDbText
 10
560.0
 20
182.17499999999953
 30
0.0
 40
2.0
  1
[U] UNRESOLVED      competing values exist in the project, or the input does not
  7
OpenSans
 11
560.0
 21
182.17499999999953
 31
0.0
100
AcDbText
  0
TEXT
  5
35F
330
17
100
AcDbEntity
  8
S-NOTE
100
AcDbText
 10
560.0
 20
178.77499999999952
 30
0.0
 40
2.0
  1
[N] NOT AVAILABLE   no source exists anywhere in the project - DATA REQUIRED
  7
OpenSans
 11
560.0
 21
178.77499999999952
 31
0.0
100
AcDbText
  0
LWPOLYLINE
  5
360
330
17
100
AcDbEntity
  8
S-TITLE
100
AcDbPolyline
 90
4
 70
1
 10
558.0
 20
173.37499999999952
 10
726.0
 20
173.37499999999952
 10
726.0
 20
200.99999999999955
 10
558.0
 20
200.99999999999955
  0
TEXT
  5
361
330
17
100
AcDbEntity
  8
M-TITLE
100
AcDbText
 10
12.0
 20
576.5
 30
0.0
 40
5.0
  1
DRAINAGE PACKAGE
  7
OpenSans
 11
12.0
 21
576.5
 31
0.0
100
AcDbText
  0
TEXT
  5
362
330
17
100
AcDbEntity
  8
M-TITLE
100
AcDbText
 10
12.0
 20
569.5
 30
0.0
 40
2.4
  1
D-001   GENERAL DRAINAGE NOTES, LEGEND AND DESIGN BASIS
  7
OpenSans
 11
12.0
 21
569.5
 31
0.0
100
AcDbText
  0
LINE
  5
363
330
17
100
AcDbEntity
  8
M-TITLE
100
AcDbLine
 10
10.0
 20
566.5
 30
0.0
 11
831.0
 21
566.5
 31
0.0
  0
TEXT
  5
364
330
17
100
AcDbEntity
  8
M-FLAG
100
AcDbText
 10
829.0
 20
577.0
 30
0.0
 40
2.0
  1
SENTRY POST EXCLUDED FROM THIS PACKAGE
  7
OpenSans
 72
2
 11
829.0
 21
577.0
 31
0.0
100
AcDbText
  0
TEXT
  5
365
330
17
100
AcDbEntity
  8
M-FLAG
100
AcDbText
 10
829.0
 20
570.5
 30
0.0
 40
1.4
  1
DEVELOPED FOR PROJECT COORDINATION - PENDING ENGINEERING VERIFICATION
  7
OpenSans
 72
2
 11
829.0
 21
570.5
 31
0.0
100
AcDbText
  0
TEXT
  5
366
330
17
100
AcDbEntity
  8
M-FLAG
100
AcDbText
 10
12.0
 20
561.5
 30
0.0
 40
1.4
  1
OPEN ITEMS ON THIS SHEET:  C16   C18   A2   A7   A8   DR-C1   DR-C2   DR-D1   DR-D2   DR-D3   DR-D4   DR-F4   DR-F5
  7
OpenSans
 11
12.0
 21
561.5
 31
0.0
100
AcDbText
  0
LWPOLYLINE
  5
367
330
17
100
AcDbEntity
  8
M-TITLE
100
AcDbPolyline
 90
4
 70
1
 10
651.0
 20
10.0
 10
831.0
 20
10.0
 10
831.0
 20
110.0
 10
651.0
 20
110.0
  0
LINE
  5
368
330
17
100
AcDbEntity
  8
M-TITLE
100
AcDbLine
 10
651.0
 20
30.0
 30
0.0
 11
831.0
 21
30.0
 31
0.0
  0
LINE
  5
369
330
17
100
AcDbEntity
  8
M-TITLE
100
AcDbLine
 10
651.0
 20
42.0
 30
0.0
 11
831.0
 21
42.0
 31
0.0
  0
LINE
  5
36A
330
17
100
AcDbEntity
  8
M-TITLE
100
AcDbLine
 10
651.0
 20
54.0
 30
0.0
 11
831.0
 21
54.0
 31
0.0
  0
LINE
  5
36B
330
17
100
AcDbEntity
  8
M-TITLE
100
AcDbLine
 10
651.0
 20
66.0
 30
0.0
 11
831.0
 21
66.0
 31
0.0
  0
LINE
  5
36C
330
17
100
AcDbEntity
  8
M-TITLE
100
AcDbLine
 10
651.0
 20
88.0
 30
0.0
 11
831.0
 21
88.0
 31
0.0
  0
LINE
  5
36D
330
17
100
AcDbEntity
  8
M-TITLE
100
AcDbLine
 10
763.0
 20
10.0
 30
0.0
 11
763.0
 21
30.0
 31
0.0
  0
LINE
  5
36E
330
17
100
AcDbEntity
  8
M-TITLE
100
AcDbLine
 10
797.0
 20
10.0
 30
0.0
 11
797.0
 21
30.0
 31
0.0
  0
TEXT
  5
36F
330
17
100
AcDbEntity
  8
M-TITLE
100
AcDbText
 10
653.0
 20
24.6
 30
0.0
 40
1.4
  1
DRAWING No.
  7
OpenSans
 11
653.0
 21
24.6
 31
0.0
100
AcDbText
  0
TEXT
  5
370
330
17
100
AcDbEntity
  8
M-TITLE
100
AcDbText
 10
671.0
 20
14.2
 30
0.0
 40
3.5
  1
D-001
  7
OpenSans
 11
671.0
 21
14.2
 31
0.0
100
AcDbText
  0
TEXT
  5
371
330
17
100
AcDbEntity
  8
M-TITLE
100
AcDbText
 10
765.0
 20
24.6
 30
0.0
 40
1.4
  1
REV
  7
OpenSans
 11
765.0
 21
24.6
 31
0.0
100
AcDbText
  0
TEXT
  5
372
330
17
100
AcDbEntity
  8
M-TITLE
100
AcDbText
 10
769.0
 20
14.2
 30
0.0
 40
3.5
  1
DR1
  7
OpenSans
 11
769.0
 21
14.2
 31
0.0
100
AcDbText
  0
TEXT
  5
373
330
17
100
AcDbEntity
  8
M-TITLE
100
AcDbText
 10
799.0
 20
24.6
 30
0.0
 40
1.4
  1
SHEET
  7
OpenSans
 11
799.0
 21
24.6
 31
0.0
100
AcDbText
  0
TEXT
  5
374
330
17
100
AcDbEntity
  8
M-TITLE
100
AcDbText
 10
799.0
 20
15.0
 30
0.0
 40
1.6
  1
1 OF 11
  7
OpenSans
 11
799.0
 21
15.0
 31
0.0
100
AcDbText
  0
LINE
  5
375
330
17
100
AcDbEntity
  8
M-TITLE
100
AcDbLine
 10
747.0
 20
30.0
 30
0.0
 11
747.0
 21
42.0
 31
0.0
  0
TEXT
  5
376
330
17
100
AcDbEntity
  8
M-TITLE
100
AcDbText
 10
653.0
 20
34.4
 30
0.0
 40
1.6
  1
SCALE   NOT TO SCALE
  7
OpenSans
 11
653.0
 21
34.4
 31
0.0
100
AcDbText
  0
TEXT
  5
377
330
17
100
AcDbEntity
  8
M-TITLE
100
AcDbText
 10
749.0
 20
34.4
 30
0.0
 40
1.6
  1
DATE   05.09.2026
  7
OpenSans
 11
749.0
 21
34.4
 31
0.0
100
AcDbText
  0
TEXT
  5
378
330
17
100
AcDbEntity
  8
M-TITLE
100
AcDbText
 10
653.0
 20
46.4
 30
0.0
 40
1.4
  1
DESIGNED  [PLACEHOLDER]
  7
OpenSans
 11
653.0
 21
46.4
 31
0.0
100
AcDbText
  0
TEXT
  5
379
330
17
100
AcDbEntity
  8
M-TITLE
100
AcDbText
 10
713.0
 20
46.4
 30
0.0
 40
1.4
  1
CHECKED  [PLACEHOLDER]
  7
OpenSans
 11
713.0
 21
46.4
 31
0.0
100
AcDbText
  0
TEXT
  5
37A
330
17
100
AcDbEntity
  8
M-TITLE
100
AcDbText
 10
773.0
 20
46.4
 30
0.0
 40
1.4
  1
APPROVED  [PLACEHOLDER]
  7
OpenSans
 11
773.0
 21
46.4
 31
0.0
100
AcDbText
  0
TEXT
  5
37B
330
17
100
AcDbEntity
  8
M-TITLE
100
AcDbText
 10
653.0
 20
58.4
 30
0.0
 40
1.4
  1
STATUS
  7
OpenSans
 11
653.0
 21
58.4
 31
0.0
100
AcDbText
  0
TEXT
  5
37C
330
17
100
AcDbEntity
  8
M-FLAG
100
AcDbText
 10
673.0
 20
58.0
 30
0.0
 40
1.6
  1
FOR REVIEW - NOT FOR CONSTRUCTION
  7
OpenSans
 11
673.0
 21
58.0
 31
0.0
100
AcDbText
  0
TEXT
  5
37D
330
17
100
AcDbEntity
  8
M-TITLE
100
AcDbText
 10
653.0
 20
83.4
 30
0.0
 40
1.4
  1
DRAWING TITLE
  7
OpenSans
 11
653.0
 21
83.4
 31
0.0
100
AcDbText
  0
TEXT
  5
37E
330
17
100
AcDbEntity
  8
M-TITLE
100
AcDbText
 10
653.0
 20
75.4
 30
0.0
 40
2.4
  1
GENERAL DRAINAGE NOTES, LEGEND AND DESIGN BASIS
  7
OpenSans
 11
653.0
 21
75.4
 31
0.0
100
AcDbText
  0
TEXT
  5
37F
330
17
100
AcDbEntity
  8
M-TITLE
100
AcDbText
 10
653.0
 20
68.8
 30
0.0
 40
1.4
  1
TANKED ENVELOPE - THREE SEGREGATED STREAMS - ONE ENVELOPE PENETRATION
  7
OpenSans
 11
653.0
 21
68.8
 31
0.0
100
AcDbText
  0
TEXT
  5
380
330
17
100
AcDbEntity
  8
M-TITLE
100
AcDbText
 10
653.0
 20
105.2
 30
0.0
 40
1.4
  1
PROJECT
  7
OpenSans
 11
653.0
 21
105.2
 31
0.0
100
AcDbText
  0
TEXT
  5
381
330
17
100
AcDbEntity
  8
M-TITLE
100
AcDbText
 10
653.0
 20
99.6
 30
0.0
 40
1.6
  1
UNDERGROUND CBRN-HARDENED BLAST-RESISTANT
  7
OpenSans
 11
653.0
 21
99.6
 31
0.0
100
AcDbText
  0
TEXT
  5
382
330
17
100
AcDbEntity
  8
M-TITLE
100
AcDbText
 10
653.0
 20
95.0
 30
0.0
 40
1.6
  1
PROTECTIVE STRUCTURE  -  PUNE, MAHARASHTRA
  7
OpenSans
 11
653.0
 21
95.0
 31
0.0
100
AcDbText
  0
TEXT
  5
383
330
17
100
AcDbEntity
  8
M-TITLE
100
AcDbText
 10
653.0
 20
90.0
 30
0.0
 40
1.4
  1
GEOMETRY REV F + M1   -   SENTRY POST NOT IN THIS PACKAGE
  7
OpenSans
 11
653.0
 21
90.0
 31
0.0
100
AcDbText
  0
ENDSEC
  0
SECTION
  2
OBJECTS
  0
DICTIONARY
  5
A
330
0
100
AcDbDictionary
281
1
  3
ACAD_COLOR
350
B
  3
ACAD_GROUP
350
C
  3
ACAD_LAYOUT
350
D
  3
ACAD_MATERIAL
350
E
  3
ACAD_MLEADERSTYLE
350
F
  3
ACAD_MLINESTYLE
350
10
  3
ACAD_PLOTSETTINGS
350
11
  3
ACAD_PLOTSTYLENAME
350
12
  3
ACAD_SCALELIST
350
14
  3
ACAD_TABLESTYLE
350
15
  3
ACAD_VISUALSTYLE
350
16
  3
EZDXF_META
350
2D
  0
DICTIONARY
  5
B
330
A
100
AcDbDictionary
281
1
  0
DICTIONARY
  5
C
330
A
100
AcDbDictionary
281
1
  0
DICTIONARY
  5
D
330
A
100
AcDbDictionary
281
1
  3
Model
350
1A
  3
Layout1
350
1E
  0
DICTIONARY
  5
E
330
A
100
AcDbDictionary
281
1
  3
ByBlock
350
1F
  3
ByLayer
350
20
  3
Global
350
21
  0
DICTIONARY
  5
F
330
A
100
AcDbDictionary
281
1
  3
Standard
350
2C
  0
DICTIONARY
  5
10
330
A
100
AcDbDictionary
281
1
  3
Standard
350
22
  0
DICTIONARY
  5
11
330
A
100
AcDbDictionary
281
1
  0
ACDBDICTIONARYWDFLT
  5
12
330
A
100
AcDbDictionary
281
1
  3
Normal
350
13
100
AcDbDictionaryWithDefault
340
13
  0
ACDBPLACEHOLDER
  5
13
330
12
  0
DICTIONARY
  5
14
330
A
100
AcDbDictionary
281
1
  0
DICTIONARY
  5
15
330
A
100
AcDbDictionary
281
1
  0
DICTIONARY
  5
16
330
A
100
AcDbDictionary
281
1
  3
2dWireframe
350
5A
  3
Basic
350
5B
  3
Brighten
350
5C
  3
ColorChange
350
5D
  3
Conceptual
350
5E
  3
Dim
350
5F
  3
EdgeColorOff
350
60
  3
Facepattern
350
61
  3
Flat
350
62
  3
FlatWithEdges
350
63
  3
Gouraud
350
64
  3
GouraudWithEdges
350
65
  3
Hidden
350
66
  3
JitterOff
350
67
  3
Linepattern
350
68
  3
Modeling
350
69
  3
OverhangOff
350
6A
  3
Realistic
350
6B
  3
Shaded
350
6C
  3
Shaded with edges
350
6D
  3
Shades of Gray
350
6E
  3
Sketchy
350
6F
  3
Thicken
350
70
  3
Wireframe
350
71
  3
X-Ray
350
72
  0
LAYOUT
  5
1A
330
D
100
AcDbPlotSettings
  1

  4
A3
  6

 40
7.5
 41
20.0
 42
7.5
 43
20.0
 44
420.0
 45
297.0
 46
0.0
 47
0.0
 48
0.0
 49
0.0
140
0.0
141
0.0
142
1.0
143
1.0
 70
1024
 72
1
 73
0
 74
5
  7

 75
16
 76
0
 77
2
 78
300
147
1.0
148
0.0
149
0.0
100
AcDbLayout
  1
Model
 70
1
 71
0
 10
0.0
 20
0.0
 11
420.0
 21
297.0
 12
0.0
 22
0.0
 32
0.0
 14
1e+20
 24
1e+20
 34
1e+20
 15
-1e+20
 25
-1e+20
 35
-1e+20
146
0.0
 13
0.0
 23
0.0
 33
0.0
 16
1.0
 26
0.0
 36
0.0
 17
0.0
 27
1.0
 37
0.0
 76
1
330
17
  0
LAYOUT
  5
1E
330
D
100
AcDbPlotSettings
  1

  4
A3
  6

 40
7.5
 41
20.0
 42
7.5
 43
20.0
 44
420.0
 45
297.0
 46
0.0
 47
0.0
 48
0.0
 49
0.0
140
0.0
141
0.0
142
1.0
143
1.0
 70
0
 72
1
 73
0
 74
5
  7

 75
16
 76
0
 77
2
 78
300
147
1.0
148
0.0
149
0.0
100
AcDbLayout
  1
Layout1
 70
1
 71
1
 10
0.0
 20
0.0
 11
420.0
 21
297.0
 12
0.0
 22
0.0
 32
0.0
 14
1e+20
 24
1e+20
 34
1e+20
 15
-1e+20
 25
-1e+20
 35
-1e+20
146
0.0
 13
0.0
 23
0.0
 33
0.0
 16
1.0
 26
0.0
 36
0.0
 17
0.0
 27
1.0
 37
0.0
 76
1
330
1B
  0
MATERIAL
  5
1F
102
{ACAD_REACTORS
330
E
102
}
330
E
100
AcDbMaterial
  1
ByBlock
  2

 70
0
 40
1.0
 71
1
 41
1.0
 91
-1023410177
 42
1.0
 72
1
  3

 73
1
 74
1
 75
1
 44
0.5
 73
0
 45
1.0
 46
1.0
 77
1
  4

 78
1
 79
1
170
1
 48
1.0
171
1
  6

172
1
173
1
174
1
140
1.0
141
1.0
175
1
  7

176
1
177
1
178
1
143
1.0
179
1
  8

270
1
271
1
272
1
145
1.0
146
1.0
273
1
  9

274
1
275
1
276
1
 42
1.0
 72
1
  3

 73
1
 74
1
 75
1
 94
63
  0
MATERIAL
  5
20
102
{ACAD_REACTORS
330
E
102
}
330
E
100
AcDbMaterial
  1
ByLayer
  2

 70
0
 40
1.0
 71
1
 41
1.0
 91
-1023410177
 42
1.0
 72
1
  3

 73
1
 74
1
 75
1
 44
0.5
 73
0
 45
1.0
 46
1.0
 77
1
  4

 78
1
 79
1
170
1
 48
1.0
171
1
  6

172
1
173
1
174
1
140
1.0
141
1.0
175
1
  7

176
1
177
1
178
1
143
1.0
179
1
  8

270
1
271
1
272
1
145
1.0
146
1.0
273
1
  9

274
1
275
1
276
1
 42
1.0
 72
1
  3

 73
1
 74
1
 75
1
 94
63
  0
MATERIAL
  5
21
102
{ACAD_REACTORS
330
E
102
}
330
E
100
AcDbMaterial
  1
Global
  2

 70
0
 40
1.0
 71
1
 41
1.0
 91
-1023410177
 42
1.0
 72
1
  3

 73
1
 74
1
 75
1
 44
0.5
 73
0
 45
1.0
 46
1.0
 77
1
  4

 78
1
 79
1
170
1
 48
1.0
171
1
  6

172
1
173
1
174
1
140
1.0
141
1.0
175
1
  7

176
1
177
1
178
1
143
1.0
179
1
  8

270
1
271
1
272
1
145
1.0
146
1.0
273
1
  9

274
1
275
1
276
1
 42
1.0
 72
1
  3

 73
1
 74
1
 75
1
 94
63
  0
MLINESTYLE
  5
22
102
{ACAD_REACTORS
330
10
102
}
330
10
100
AcDbMlineStyle
  2
Standard
 70
0
  3

 62
256
 51
90.0
 52
90.0
 71
2
 49
0.5
 62
256
  6
BYLAYER
 49
-0.5
 62
256
  6
BYLAYER
  0
MLEADERSTYLE
  5
2C
102
{ACAD_REACTORS
330
F
102
}
330
F
100
AcDbMLeaderStyle
179
2
170
2
171
1
172
0
 90
2
 40
0.0
 41
0.0
173
1
 91
-1056964608
 92
-2
290
1
 42
2.0
291
1
 43
8.0
  3
Standard
 44
4.0
300

342
29
174
1
175
1
176
0
178
1
 93
-1056964608
 45
4.0
292
0
297
0
 46
4.0
 94
-1056964608
 47
1.0
 49
1.0
140
1.0
294
1
141
0.0
177
0
142
1.0
295
0
296
0
143
3.75
271
0
272
9
273
9
  0
DICTIONARY
  5
2D
330
A
100
AcDbDictionary
280
1
281
1
  3
CREATED_BY_EZDXF
350
2E
  3
WRITTEN_BY_EZDXF
350
386
  0
DICTIONARYVAR
  5
2E
330
2D
100
DictionaryVariables
280
0
  1
1.4.4 @ 2026-09-09T16:44:11.792798+00:00
  0
VISUALSTYLE
  5
5A
102
{ACAD_REACTORS
330
16
102
}
330
16
100
AcDbVisualStyle
  2
2dWireframe
 70
4
 90
0
 40
0.6
 62
7
290
0
291
0
  0
VISUALSTYLE
  5
5B
102
{ACAD_REACTORS
330
16
102
}
330
16
100
AcDbVisualStyle
  2
Basic
 70
7
 90
1
 40
0.6
 62
7
290
0
291
1
  0
VISUALSTYLE
  5
5C
102
{ACAD_REACTORS
330
16
102
}
330
16
100
AcDbVisualStyle
  2
Brighten
 70
12
 90
2
 40
0.6
 62
7
290
0
291
1
  0
VISUALSTYLE
  5
5D
102
{ACAD_REACTORS
330
16
102
}
330
16
100
AcDbVisualStyle
  2
ColorChange
 70
16
 90
2
 40
0.6
 62
8
290
0
291
1
  0
VISUALSTYLE
  5
5E
102
{ACAD_REACTORS
330
16
102
}
330
16
100
AcDbVisualStyle
  2
Conceptual
 70
9
 90
3
 40
0.6
 62
7
290
0
291
0
  0
VISUALSTYLE
  5
5F
102
{ACAD_REACTORS
330
16
102
}
330
16
100
AcDbVisualStyle
  2
Dim
 70
11
 90
2
 40
0.6
 62
7
290
0
291
1
  0
VISUALSTYLE
  5
60
102
{ACAD_REACTORS
330
16
102
}
330
16
100
AcDbVisualStyle
  2
EdgeColorOff
 70
22
 90
2
 40
0.6
 62
7
290
0
291
1
  0
VISUALSTYLE
  5
61
102
{ACAD_REACTORS
330
16
102
}
330
16
100
AcDbVisualStyle
  2
Facepattern
 70
15
 90
2
 40
0.6
 62
7
290
0
291
1
  0
VISUALSTYLE
  5
62
102
{ACAD_REACTORS
330
16
102
}
330
16
100
AcDbVisualStyle
  2
Flat
 70
0
 90
2
 40
0.6
 62
7
290
0
291
1
  0
VISUALSTYLE
  5
63
102
{ACAD_REACTORS
330
16
102
}
330
16
100
AcDbVisualStyle
  2
FlatWithEdges
 70
1
 90
2
 40
0.6
 62
7
290
0
291
1
  0
VISUALSTYLE
  5
64
102
{ACAD_REACTORS
330
16
102
}
330
16
100
AcDbVisualStyle
  2
Gouraud
 70
2
 90
2
 40
0.6
 62
7
290
0
291
1
  0
VISUALSTYLE
  5
65
102
{ACAD_REACTORS
330
16
102
}
330
16
100
AcDbVisualStyle
  2
GouraudWithEdges
 70
3
 90
2
 40
0.6
 62
7
290
0
291
1
  0
VISUALSTYLE
  5
66
102
{ACAD_REACTORS
330
16
102
}
330
16
100
AcDbVisualStyle
  2
Hidden
 70
6
 90
1
 40
0.6
 62
7
290
0
291
0
  0
VISUALSTYLE
  5
67
102
{ACAD_REACTORS
330
16
102
}
330
16
100
AcDbVisualStyle
  2
JitterOff
 70
20
 90
2
 40
0.6
 62
7
290
0
291
1
  0
VISUALSTYLE
  5
68
102
{ACAD_REACTORS
330
16
102
}
330
16
100
AcDbVisualStyle
  2
Linepattern
 70
14
 90
2
 40
0.6
 62
7
290
0
291
1
  0
VISUALSTYLE
  5
69
102
{ACAD_REACTORS
330
16
102
}
330
16
100
AcDbVisualStyle
  2
Modeling
 70
10
 90
2
 40
0.6
 62
7
290
0
291
0
  0
VISUALSTYLE
  5
6A
102
{ACAD_REACTORS
330
16
102
}
330
16
100
AcDbVisualStyle
  2
OverhangOff
 70
21
 90
2
 40
0.6
 62
7
290
0
291
1
  0
VISUALSTYLE
  5
6B
102
{ACAD_REACTORS
330
16
102
}
330
16
100
AcDbVisualStyle
  2
Realistic
 70
8
 90
2
 40
0.6
 62
7
290
0
291
0
  0
VISUALSTYLE
  5
6C
102
{ACAD_REACTORS
330
16
102
}
330
16
100
AcDbVisualStyle
  2
Shaded
 70
27
 90
2
 40
0.6
 62
7
290
0
291
0
  0
VISUALSTYLE
  5
6D
102
{ACAD_REACTORS
330
16
102
}
330
16
100
AcDbVisualStyle
  2
Shaded with edges
 70
26
 90
2
 40
0.6
 62
7
290
0
291
0
  0
VISUALSTYLE
  5
6E
102
{ACAD_REACTORS
330
16
102
}
330
16
100
AcDbVisualStyle
  2
Shades of Gray
 70
23
 90
2
 40
0.6
 62
7
290
0
291
0
  0
VISUALSTYLE
  5
6F
102
{ACAD_REACTORS
330
16
102
}
330
16
100
AcDbVisualStyle
  2
Sketchy
 70
24
 90
1
 40
0.6
 62
7
290
0
291
0
  0
VISUALSTYLE
  5
70
102
{ACAD_REACTORS
330
16
102
}
330
16
100
AcDbVisualStyle
  2
Thicken
 70
13
 90
2
 40
0.6
 62
7
290
0
291
1
  0
VISUALSTYLE
  5
71
102
{ACAD_REACTORS
330
16
102
}
330
16
100
AcDbVisualStyle
  2
Wireframe
 70
5
 90
0
 40
0.6
 62
7
290
0
291
0
  0
VISUALSTYLE
  5
72
102
{ACAD_REACTORS
330
16
102
}
330
16
100
AcDbVisualStyle
  2
X-Ray
 70
25
 90
2
 40
0.5
 62
7
290
0
291
0
  0
DICTIONARYVAR
  5
386
330
2D
100
DictionaryVariables
280
0
  1
1.4.4 @ 2026-09-09T16:44:11.844583+00:00
  0
ENDSEC
  0
EOF
