  0
SECTION
  2
HEADER
  9
$ACADVER
  1
AC1024
  9
$ACADMAINTVER
 70
6
  9
$DWGCODEPAGE
  3
ANSI_1252
  9
$LASTSAVEDBY
  1
ezdxf
  9
$INSBASE
 10
0.0
 20
0.0
 30
0.0
  9
$EXTMIN
 10
1e+20
 20
1e+20
 30
1e+20
  9
$EXTMAX
 10
-1e+20
 20
-1e+20
 30
-1e+20
  9
$LIMMIN
 10
0.0
 20
0.0
  9
$LIMMAX
 10
420.0
 20
297.0
  9
$ORTHOMODE
 70
0
  9
$REGENMODE
 70
1
  9
$FILLMODE
 70
1
  9
$QTEXTMODE
 70
0
  9
$MIRRTEXT
 70
1
  9
$LTSCALE
 40
1.0
  9
$ATTMODE
 70
1
  9
$TEXTSIZE
 40
2.5
  9
$TRACEWID
 40
1.0
  9
$TEXTSTYLE
  7
OpenSans
  9
$CLAYER
  8
0
  9
$CELTYPE
  6
ByLayer
  9
$CECOLOR
 62
256
  9
$CELTSCALE
 40
1.0
  9
$DISPSILH
 70
0
  9
$DIMSCALE
 40
1.0
  9
$DIMASZ
 40
0.175
  9
$DIMEXO
 40
0.125
  9
$DIMDLI
 40
3.75
  9
$DIMRND
 40
0.0
  9
$DIMDLE
 40
0.0
  9
$DIMEXE
 40
0.375
  9
$DIMTP
 40
0.0
  9
$DIMTM
 40
0.0
  9
$DIMTXT
 40
0.25
  9
$DIMCEN
 40
2.5
  9
$DIMTSZ
 40
0.0
  9
$DIMTOL
 70
0
  9
$DIMLIM
 70
0
  9
$DIMTIH
 70
0
  9
$DIMTOH
 70
0
  9
$DIMSE1
 70
0
  9
$DIMSE2
 70
0
  9
$DIMTAD
 70
1
  9
$DIMZIN
 70
12
  9
$DIMBLK
  1
ARCHTICK
  9
$DIMASO
 70
1
  9
$DIMSHO
 70
1
  9
$DIMPOST
  1

  9
$DIMAPOST
  1

  9
$DIMALT
 70
0
  9
$DIMALTD
 70
3
  9
$DIMALTF
 40
0.03937007874
  9
$DIMLFAC
 40
100.0
  9
$DIMTOFL
 70
1
  9
$DIMTVP
 40
0.0
  9
$DIMTIX
 70
0
  9
$DIMSOXD
 70
0
  9
$DIMSAH
 70
0
  9
$DIMBLK1
  1

  9
$DIMBLK2
  1

  9
$DIMSTYLE
  2
EZDXF
  9
$DIMCLRD
 70
0
  9
$DIMCLRE
 70
0
  9
$DIMCLRT
 70
0
  9
$DIMTFAC
 40
0.5
  9
$DIMGAP
 40
0.1
  9
$DIMJUST
 70
0
  9
$DIMSD1
 70
0
  9
$DIMSD2
 70
0
  9
$DIMTOLJ
 70
0
  9
$DIMTZIN
 70
8
  9
$DIMALTZ
 70
0
  9
$DIMALTTZ
 70
0
  9
$DIMUPT
 70
1
  9
$DIMDEC
 70
2
  9
$DIMTDEC
 70
2
  9
$DIMALTU
 70
2
  9
$DIMALTTD
 70
3
  9
$DIMTXSTY
  7
OpenSansCondensed-Light
  9
$DIMAUNIT
 70
0
  9
$DIMADEC
 70
2
  9
$DIMALTRND
 40
0.0
  9
$DIMAZIN
 70
3
  9
$DIMDSEP
 70
46
  9
$DIMATFIT
 70
3
  9
$DIMFRAC
 70
0
  9
$DIMLDRBLK
  1

  9
$DIMLUNIT
 70
2
  9
$DIMLWD
 70
-2
  9
$DIMLWE
 70
-2
  9
$DIMTMOVE
 70
2
  9
$DIMFXL
 40
1.0
  9
$DIMFXLON
 70
0
  9
$DIMJOGANG
 40
0.785398163397
  9
$DIMTFILL
 70
0
  9
$DIMTFILLCLR
 70
0
  9
$DIMARCSYM
 70
0
  9
$DIMLTYPE
  6

  9
$DIMLTEX1
  6

  9
$DIMLTEX2
  6

  9
$DIMTXTDIRECTION
 70
0
  9
$LUNITS
 70
2
  9
$LUPREC
 70
4
  9
$SKETCHINC
 40
1.0
  9
$FILLETRAD
 40
10.0
  9
$AUNITS
 70
0
  9
$AUPREC
 70
2
  9
$MENU
  1
.
  9
$ELEVATION
 40
0.0
  9
$PELEVATION
 40
0.0
  9
$THICKNESS
 40
0.0
  9
$LIMCHECK
 70
0
  9
$CHAMFERA
 40
0.0
  9
$CHAMFERB
 40
0.0
  9
$CHAMFERC
 40
0.0
  9
$CHAMFERD
 40
0.0
  9
$SKPOLY
 70
0
  9
$TDCREATE
 40
2461289.6731134257
  9
$TDUCREATE
 40
2458532.153996898
  9
$TDUPDATE
 40
2461289.6731134257
  9
$TDUUPDATE
 40
2458532.1544311
  9
$TDINDWG
 40
0.0
  9
$TDUSRTIMER
 40
0.0
  9
$USRTIMER
 70
1
  9
$ANGBASE
 50
0.0
  9
$ANGDIR
 70
0
  9
$PDMODE
 70
0
  9
$PDSIZE
 40
0.0
  9
$PLINEWID
 40
0.0
  9
$SPLFRAME
 70
0
  9
$SPLINETYPE
 70
6
  9
$SPLINESEGS
 70
8
  9
$HANDSEED
  5
386
  9
$SURFTAB1
 70
6
  9
$SURFTAB2
 70
6
  9
$SURFTYPE
 70
6
  9
$SURFU
 70
6
  9
$SURFV
 70
6
  9
$UCSBASE
  2

  9
$UCSNAME
  2

  9
$UCSORG
 10
0.0
 20
0.0
 30
0.0
  9
$UCSXDIR
 10
1.0
 20
0.0
 30
0.0
  9
$UCSYDIR
 10
0.0
 20
1.0
 30
0.0
  9
$UCSORTHOREF
  2

  9
$UCSORTHOVIEW
 70
0
  9
$UCSORGTOP
 10
0.0
 20
0.0
 30
0.0
  9
$UCSORGBOTTOM
 10
0.0
 20
0.0
 30
0.0
  9
$UCSORGLEFT
 10
0.0
 20
0.0
 30
0.0
  9
$UCSORGRIGHT
 10
0.0
 20
0.0
 30
0.0
  9
$UCSORGFRONT
 10
0.0
 20
0.0
 30
0.0
  9
$UCSORGBACK
 10
0.0
 20
0.0
 30
0.0
  9
$PUCSBASE
  2

  9
$PUCSNAME
  2

  9
$PUCSORG
 10
0.0
 20
0.0
 30
0.0
  9
$PUCSXDIR
 10
1.0
 20
0.0
 30
0.0
  9
$PUCSYDIR
 10
0.0
 20
1.0
 30
0.0
  9
$PUCSORTHOREF
  2

  9
$PUCSORTHOVIEW
 70
0
  9
$PUCSORGTOP
 10
0.0
 20
0.0
 30
0.0
  9
$PUCSORGBOTTOM
 10
0.0
 20
0.0
 30
0.0
  9
$PUCSORGLEFT
 10
0.0
 20
0.0
 30
0.0
  9
$PUCSORGRIGHT
 10
0.0
 20
0.0
 30
0.0
  9
$PUCSORGFRONT
 10
0.0
 20
0.0
 30
0.0
  9
$PUCSORGBACK
 10
0.0
 20
0.0
 30
0.0
  9
$USERI1
 70
0
  9
$USERI2
 70
0
  9
$USERI3
 70
0
  9
$USERI4
 70
0
  9
$USERI5
 70
0
  9
$USERR1
 40
0.0
  9
$USERR2
 40
0.0
  9
$USERR3
 40
0.0
  9
$USERR4
 40
0.0
  9
$USERR5
 40
0.0
  9
$WORLDVIEW
 70
1
  9
$SHADEDGE
 70
3
  9
$SHADEDIF
 70
70
  9
$TILEMODE
 70
1
  9
$MAXACTVP
 70
64
  9
$PINSBASE
 10
0.0
 20
0.0
 30
0.0
  9
$PLIMCHECK
 70
0
  9
$PEXTMIN
 10
1e+20
 20
1e+20
 30
1e+20
  9
$PEXTMAX
 10
-1e+20
 20
-1e+20
 30
-1e+20
  9
$PLIMMIN
 10
0.0
 20
0.0
  9
$PLIMMAX
 10
420.0
 20
297.0
  9
$UNITMODE
 70
0
  9
$VISRETAIN
 70
1
  9
$PLINEGEN
 70
0
  9
$PSLTSCALE
 70
1
  9
$TREEDEPTH
 70
3020
  9
$CMLSTYLE
  2
Standard
  9
$CMLJUST
 70
0
  9
$CMLSCALE
 40
20.0
  9
$PROXYGRAPHICS
 70
1
  9
$MEASUREMENT
 70
1
  9
$CELWEIGHT
370
-1
  9
$ENDCAPS
280
0
  9
$JOINSTYLE
280
0
  9
$LWDISPLAY
290
0
  9
$INSUNITS
 70
4
  9
$HYPERLINKBASE
  1

  9
$STYLESHEET
  1

  9
$XEDIT
290
1
  9
$CEPSNTYPE
380
0
  9
$PSTYLEMODE
290
1
  9
$FINGERPRINTGUID
  2
{702AD2EC-3FF5-495F-8982-4B7EACAE65A9}
  9
$VERSIONGUID
  2
{B3BCB3D3-0E63-4054-A385-4F122FA7B419}
  9
$EXTNAMES
290
1
  9
$PSVPSCALE
 40
0.0
  9
$OLESTARTUP
290
0
  9
$SORTENTS
280
127
  9
$INDEXCTL
280
0
  9
$HIDETEXT
280
1
  9
$XCLIPFRAME
280
1
  9
$HALOGAP
280
0
  9
$OBSCOLOR
 70
257
  9
$OBSLTYPE
280
0
  9
$INTERSECTIONDISPLAY
280
0
  9
$INTERSECTIONCOLOR
 70
257
  9
$DIMASSOC
280
2
  9
$PROJECTNAME
  1

  9
$CAMERADISPLAY
290
0
  9
$LENSLENGTH
 40
50.0
  9
$CAMERAHEIGHT
 40
0.0
  9
$STEPSPERSEC
 40
24.0
  9
$STEPSIZE
 40
100.0
  9
$3DDWFPREC
 40
2.0
  9
$PSOLWIDTH
 40
0.005
  9
$PSOLHEIGHT
 40
0.08
  9
$LOFTANG1
 40
1.570796326795
  9
$LOFTANG2
 40
1.570796326795
  9
$LOFTMAG1
 40
0.0
  9
$LOFTMAG2
 40
0.0
  9
$LOFTPARAM
 70
7
  9
$LOFTNORMALS
280
1
  9
$LATITUDE
 40
37.795
  9
$LONGITUDE
 40
-122.394
  9
$NORTHDIRECTION
 40
0.0
  9
$TIMEZONE
 70
-8000
  9
$LIGHTGLYPHDISPLAY
280
1
  9
$TILEMODELIGHTSYNCH
280
1
  9
$CMATERIAL
347
20
  9
$SOLIDHIST
280
0
  9
$SHOWHIST
280
1
  9
$DWFFRAME
280
2
  9
$DGNFRAME
280
2
  9
$REALWORLDSCALE
290
1
  9
$INTERFERECOLOR
 62
256
  9
$CSHADOW
280
0
  9
$SHADOWPLANELOCATION
 40
0.0
  0
ENDSEC
  0
SECTION
  2
CLASSES
  0
CLASS
  1
ACDBDICTIONARYWDFLT
  2
AcDbDictionaryWithDefault
  3
ObjectDBX Classes
 90
0
 91
0
280
0
281
0
  0
CLASS
  1
SUN
  2
AcDbSun
  3
SCENEOE
 90
1153
 91
0
280
0
281
0
  0
CLASS
  1
VISUALSTYLE
  2
AcDbVisualStyle
  3
ObjectDBX Classes
 90
4095
 91
0
280
0
281
0
  0
CLASS
  1
MATERIAL
  2
AcDbMaterial
  3
ObjectDBX Classes
 90
1153
 91
0
280
0
281
0
  0
CLASS
  1
SCALE
  2
AcDbScale
  3
ObjectDBX Classes
 90
1153
 91
0
280
0
281
0
  0
CLASS
  1
TABLESTYLE
  2
AcDbTableStyle
  3
ObjectDBX Classes
 90
4095
 91
0
280
0
281
0
  0
CLASS
  1
MLEADERSTYLE
  2
AcDbMLeaderStyle
  3
ACDB_MLEADERSTYLE_CLASS
 90
4095
 91
0
280
0
281
0
  0
CLASS
  1
DICTIONARYVAR
  2
AcDbDictionaryVar
  3
ObjectDBX Classes
 90
0
 91
0
280
0
281
0
  0
CLASS
  1
CELLSTYLEMAP
  2
AcDbCellStyleMap
  3
ObjectDBX Classes
 90
1152
 91
0
280
0
281
0
  0
CLASS
  1
MENTALRAYRENDERSETTINGS
  2
AcDbMentalRayRenderSettings
  3
SCENEOE
 90
1024
 91
0
280
0
281
0
  0
CLASS
  1
ACDBDETAILVIEWSTYLE
  2
AcDbDetailViewStyle
  3
ObjectDBX Classes
 90
1025
 91
0
280
0
281
0
  0
CLASS
  1
ACDBSECTIONVIEWSTYLE
  2
AcDbSectionViewStyle
  3
ObjectDBX Classes
 90
1025
 91
0
280
0
281
0
  0
CLASS
  1
RASTERVARIABLES
  2
AcDbRasterVariables
  3
ISM
 90
0
 91
0
280
0
281
0
  0
CLASS
  1
LAYOUT
  2
AcDbLayout
  3
ObjectDBX Classes
 90
0
 91
0
280
0
281
0
  0
CLASS
  1
ACDBPLACEHOLDER
  2
AcDbPlaceHolder
  3
ObjectDBX Classes
 90
0
 91
0
280
0
281
0
  0
ENDSEC
  0
SECTION
  2
TABLES
  0
TABLE
  2
VPORT
  5
8
330
0
100
AcDbSymbolTable
 70
1
  0
VPORT
  5
23
330
8
100
AcDbSymbolTableRecord
100
AcDbViewportTableRecord
  2
*Active
 70
0
 10
0.0
 20
0.0
 11
1.0
 21
1.0
 12
0.0
 22
0.0
 13
0.0
 23
0.0
 14
0.5
 24
0.5
 15
0.5
 25
0.5
 16
0.0
 26
0.0
 36
1.0
 17
0.0
 27
0.0
 37
0.0
 40
1000.0
 41
1.34
 42
50.0
 43
0.0
 44
0.0
 50
0.0
 51
0.0
 71
0
 72
1000
 73
1
 74
3
 75
0
 76
0
 77
0
 78
0
281
0
 65
0
146
0.0
  0
ENDTAB
  0
TABLE
  2
LTYPE
  5
2
330
0
100
AcDbSymbolTable
 70
21
  0
LTYPE
  5
24
330
2
100
AcDbSymbolTableRecord
100
AcDbLinetypeTableRecord
  2
ByBlock
 70
0
  3

 72
65
 73
0
 40
0.0
  0
LTYPE
  5
25
330
2
100
AcDbSymbolTableRecord
100
AcDbLinetypeTableRecord
  2
ByLayer
 70
0
  3

 72
65
 73
0
 40
0.0
  0
LTYPE
  5
26
330
2
100
AcDbSymbolTableRecord
100
AcDbLinetypeTableRecord
  2
Continuous
 70
0
  3

 72
65
 73
0
 40
0.0
  0
LTYPE
  5
2F
330
2
100
AcDbSymbolTableRecord
100
AcDbLinetypeTableRecord
  2
CENTER
 70
0
  3
Center ____ _ ____ _ ____ _ ____ _ ____ _ ____
 72
65
 73
4
 40
5.08
 49
3.175
 74
0
 49
-0.635
 74
0
 49
0.635
 74
0
 49
-0.635
 74
0
  0
LTYPE
  5
30
330
2
100
AcDbSymbolTableRecord
100
AcDbLinetypeTableRecord
  2
CENTERX2
 70
0
  3
Center (2x) ________  __  ________  __  ________
 72
65
 73
4
 40
8.89
 49
6.35
 74
0
 49
-0.635
 74
0
 49
1.27
 74
0
 49
-0.635
 74
0
  0
LTYPE
  5
31
330
2
100
AcDbSymbolTableRecord
100
AcDbLinetypeTableRecord
  2
CENTER2
 70
0
  3
Center (.5x) ____ _ ____ _ ____ _ ____ _ ____
 72
65
 73
4
 40
2.54
 49
1.587
 74
0
 49
-0.318
 74
0
 49
0.318
 74
0
 49
-0.318
 74
0
  0
LTYPE
  5
32
330
2
100
AcDbSymbolTableRecord
100
AcDbLinetypeTableRecord
  2
DASHED
 70
0
  3
Dashed __ __ __ __ __ __ __ __ __ __ __ __ __ _
 72
65
 73
2
 40
1.524
 49
1.27
 74
0
 49
-0.254
 74
0
  0
LTYPE
  5
33
330
2
100
AcDbSymbolTableRecord
100
AcDbLinetypeTableRecord
  2
DASHEDX2
 70
0
  3
Dashed (2x) ____  ____  ____  ____  ____  ____
 72
65
 73
2
 40
3.048
 49
2.54
 74
0
 49
-0.508
 74
0
  0
LTYPE
  5
34
330
2
100
AcDbSymbolTableRecord
100
AcDbLinetypeTableRecord
  2
DASHED2
 70
0
  3
Dashed (.5x) _ _ _ _ _ _ _ _ _ _ _ _ _ _
 72
65
 73
2
 40
0.762
 49
0.635
 74
0
 49
-0.127
 74
0
  0
LTYPE
  5
35
330
2
100
AcDbSymbolTableRecord
100
AcDbLinetypeTableRecord
  2
PHANTOM
 70
0
  3
Phantom ______  __  __  ______  __  __  ______
 72
65
 73
6
 40
6.35
 49
3.175
 74
0
 49
-0.635
 74
0
 49
0.635
 74
0
 49
-0.635
 74
0
 49
0.635
 74
0
 49
-0.635
 74
0
  0
LTYPE
  5
36
330
2
100
AcDbSymbolTableRecord
100
AcDbLinetypeTableRecord
  2
PHANTOMX2
 70
0
  3
Phantom (2x)____________    ____    ____    ____________
 72
65
 73
6
 40
10.795
 49
6.35
 74
0
 49
-0.635
 74
0
 49
1.27
 74
0
 49
-0.635
 74
0
 49
1.27
 74
0
 49
-0.635
 74
0
  0
LTYPE
  5
37
330
2
100
AcDbSymbolTableRecord
100
AcDbLinetypeTableRecord
  2
PHANTOM2
 70
0
  3
Phantom (.5x) ___ _ _ ___ _ _ ___ _ _ ___ _ _ ___
 72
65
 73
6
 40
3.175
 49
1.587
 74
0
 49
-0.318
 74
0
 49
0.318
 74
0
 49
-0.318
 74
0
 49
0.318
 74
0
 49
-0.318
 74
0
  0
LTYPE
  5
38
330
2
100
AcDbSymbolTableRecord
100
AcDbLinetypeTableRecord
  2
DASHDOT
 70
0
  3
Dash dot __ . __ . __ . __ . __ . __ . __ . __
 72
65
 73
4
 40
3.556
 49
2.54
 74
0
 49
-0.508
 74
0
 49
0.0
 74
0
 49
-0.508
 74
0
  0
LTYPE
  5
39
330
2
100
AcDbSymbolTableRecord
100
AcDbLinetypeTableRecord
  2
DASHDOTX2
 70
0
  3
Dash dot (2x) ____  .  ____  .  ____  .  ____
 72
65
 73
4
 40
6.096
 49
5.08
 74
0
 49
-0.508
 74
0
 49
0.0
 74
0
 49
-0.508
 74
0
  0
LTYPE
  5
3A
330
2
100
AcDbSymbolTableRecord
100
AcDbLinetypeTableRecord
  2
DASHDOT2
 70
0
  3
Dash dot (.5x) _ . _ . _ . _ . _ . _ . _ . _
 72
65
 73
4
 40
1.778
 49
1.27
 74
0
 49
-0.254
 74
0
 49
0.0
 74
0
 49
-0.254
 74
0
  0
LTYPE
  5
3B
330
2
100
AcDbSymbolTableRecord
100
AcDbLinetypeTableRecord
  2
DOT
 70
0
  3
Dot .  .  .  .  .  .  .  .  .  .  .  .  .  .  .  .
 72
65
 73
2
 40
0.508
 49
0.0
 74
0
 49
-0.508
 74
0
  0
LTYPE
  5
3C
330
2
100
AcDbSymbolTableRecord
100
AcDbLinetypeTableRecord
  2
DOTX2
 70
0
  3
Dot (2x) .    .    .    .    .    .    .    . 
 72
65
 73
2
 40
1.016
 49
0.0
 74
0
 49
-1.016
 74
0
  0
LTYPE
  5
3D
330
2
100
AcDbSymbolTableRecord
100
AcDbLinetypeTableRecord
  2
DOT2
 70
0
  3
Dot (.5) . . . . . . . . . . . . . . . . . . . 
 72
65
 73
2
 40
0.254
 49
0.0
 74
0
 49
-0.254
 74
0
  0
LTYPE
  5
3E
330
2
100
AcDbSymbolTableRecord
100
AcDbLinetypeTableRecord
  2
DIVIDE
 70
0
  3
Divide __ . . __ . . __ . . __ . . __ . . __
 72
65
 73
6
 40
4.064
 49
2.54
 74
0
 49
-0.508
 74
0
 49
0.0
 74
0
 49
-0.508
 74
0
 49
0.0
 74
0
 49
-0.508
 74
0
  0
LTYPE
  5
3F
330
2
100
AcDbSymbolTableRecord
100
AcDbLinetypeTableRecord
  2
DIVIDEX2
 70
0
  3
Divide (2x) ____  . .  ____  . .  ____  . .  ____
 72
65
 73
6
 40
6.604
 49
5.08
 74
0
 49
-0.508
 74
0
 49
0.0
 74
0
 49
-0.508
 74
0
 49
0.0
 74
0
 49
-0.508
 74
0
  0
LTYPE
  5
40
330
2
100
AcDbSymbolTableRecord
100
AcDbLinetypeTableRecord
  2
DIVIDE2
 70
0
  3
Divide(.5x) _ . _ . _ . _ . _ . _ . _ . _
 72
65
 73
6
 40
2.032
 49
1.27
 74
0
 49
-0.254
 74
0
 49
0.0
 74
0
 49
-0.254
 74
0
 49
0.0
 74
0
 49
-0.254
 74
0
  0
ENDTAB
  0
TABLE
  2
LAYER
  5
1
330
0
100
AcDbSymbolTable
 70
65
  0
LAYER
  5
27
330
1
100
AcDbSymbolTableRecord
100
AcDbLayerTableRecord
  2
0
 70
0
 62
7
  6
Continuous
370
-3
390
13
347
21
  0
LAYER
  5
28
330
1
100
AcDbSymbolTableRecord
100
AcDbLayerTableRecord
  2
Defpoints
 70
0
 62
7
  6
Continuous
290
0
370
-3
390
13
347
21
  0
LAYER
  5
8A
330
1
100
AcDbSymbolTableRecord
100
AcDbLayerTableRecord
  2
S-CONCRETE
 70
0
 62
7
  6
Continuous
370
-3
390
13
347
21
1001
AcAecLayerStandard
1000

1000
Structural concrete outlines (cut)
  0
LAYER
  5
8C
330
1
100
AcDbSymbolTableRecord
100
AcDbLayerTableRecord
  2
S-CONCRETE-THIN
 70
0
 62
7
  6
Continuous
370
-3
390
13
347
21
1001
AcAecLayerStandard
1000

1000
Concrete beyond the cut plane
  0
LAYER
  5
8D
330
1
100
AcDbSymbolTableRecord
100
AcDbLayerTableRecord
  2
S-HIDDEN
 70
0
 62
8
  6
Continuous
370
-3
390
13
347
21
1001
AcAecLayerStandard
1000

1000
Concrete / features beyond, hidden
  0
LAYER
  5
8E
330
1
100
AcDbSymbolTableRecord
100
AcDbLayerTableRecord
  2
S-REBAR-MAIN
 70
0
 62
1
  6
Continuous
370
-3
390
13
347
21
1001
AcAecLayerStandard
1000

1000
Main reinforcement
  0
LAYER
  5
8F
330
1
100
AcDbSymbolTableRecord
100
AcDbLayerTableRecord
  2
S-REBAR-DIST
 70
0
 62
3
  6
Continuous
370
-3
390
13
347
21
1001
AcAecLayerStandard
1000

1000
Distribution reinforcement
  0
LAYER
  5
90
330
1
100
AcDbSymbolTableRecord
100
AcDbLayerTableRecord
  2
S-REBAR-STIRRUP
 70
0
 62
6
  6
Continuous
370
-3
390
13
347
21
1001
AcAecLayerStandard
1000

1000
Links and stirrups
  0
LAYER
  5
91
330
1
100
AcDbSymbolTableRecord
100
AcDbLayerTableRecord
  2
S-REBAR-TIE
 70
0
 62
6
  6
Continuous
370
-3
390
13
347
21
1001
AcAecLayerStandard
1000

1000
Ties, cross-ties, starters
  0
LAYER
  5
92
330
1
100
AcDbSymbolTableRecord
100
AcDbLayerTableRecord
  2
S-REBAR-SEC
 70
0
 62
4
  6
Continuous
370
-3
390
13
347
21
1001
AcAecLayerStandard
1000

1000
Trimmers, secondary and additional bars
  0
LAYER
  5
93
330
1
100
AcDbSymbolTableRecord
100
AcDbLayerTableRecord
  2
S-DIM
 70
0
 62
4
  6
Continuous
370
-3
390
13
347
21
1001
AcAecLayerStandard
1000

1000
Dimensions
  0
LAYER
  5
94
330
1
100
AcDbSymbolTableRecord
100
AcDbLayerTableRecord
  2
S-TEXT
 70
0
 62
7
  6
Continuous
370
-3
390
13
347
21
1001
AcAecLayerStandard
1000

1000
General annotation
  0
LAYER
  5
95
330
1
100
AcDbSymbolTableRecord
100
AcDbLayerTableRecord
  2
S-NOTE
 70
0
 62
7
  6
Continuous
370
-3
390
13
347
21
1001
AcAecLayerStandard
1000

1000
Note panels
  0
LAYER
  5
96
330
1
100
AcDbSymbolTableRecord
100
AcDbLayerTableRecord
  2
S-CALLOUT
 70
0
 62
2
  6
Continuous
370
-3
390
13
347
21
1001
AcAecLayerStandard
1000

1000
Bar-mark balloons and leaders
  0
LAYER
  5
97
330
1
100
AcDbSymbolTableRecord
100
AcDbLayerTableRecord
  2
S-SECTION
 70
0
 62
1
  6
Continuous
370
-3
390
13
347
21
1001
AcAecLayerStandard
1000

1000
Section and detail markers
  0
LAYER
  5
98
330
1
100
AcDbSymbolTableRecord
100
AcDbLayerTableRecord
  2
S-GRID
 70
0
 62
5
  6
Continuous
370
-3
390
13
347
21
1001
AcAecLayerStandard
1000

1000
Grid lines and bubbles
  0
LAYER
  5
99
330
1
100
AcDbSymbolTableRecord
100
AcDbLayerTableRecord
  2
S-CENTER
 70
0
 62
6
  6
Continuous
370
-3
390
13
347
21
1001
AcAecLayerStandard
1000

1000
Centrelines
  0
LAYER
  5
9A
330
1
100
AcDbSymbolTableRecord
100
AcDbLayerTableRecord
  2
S-HATCH
 70
0
 62
8
  6
Continuous
370
-3
390
13
347
21
1001
AcAecLayerStandard
1000

1000
Section hatch
  0
LAYER
  5
9B
330
1
100
AcDbSymbolTableRecord
100
AcDbLayerTableRecord
  2
S-TITLE
 70
0
 62
7
  6
Continuous
370
-3
390
13
347
21
1001
AcAecLayerStandard
1000

1000
Border, title block, view titles
  0
LAYER
  5
9C
330
1
100
AcDbSymbolTableRecord
100
AcDbLayerTableRecord
  2
S-EXISTING
 70
0
 62
8
  6
Continuous
370
-3
390
13
347
21
1001
AcAecLayerStandard
1000

1000
Soil, rock, berm, cover layers
  0
LAYER
  5
9D
330
1
100
AcDbSymbolTableRecord
100
AcDbLayerTableRecord
  2
S-REFERENCE
 70
0
 62
8
  6
Continuous
370
-3
390
13
347
21
1001
AcAecLayerStandard
1000

1000
Reference geometry, extents
  0
LAYER
  5
9E
330
1
100
AcDbSymbolTableRecord
100
AcDbLayerTableRecord
  2
S-WATERPROOF
 70
0
 62
30
  6
Continuous
370
-3
390
13
347
21
1001
AcAecLayerStandard
1000

1000
Membranes, waterstops, GWT
  0
LAYER
  5
9F
330
1
100
AcDbSymbolTableRecord
100
AcDbLayerTableRecord
  2
S-STEELWORK
 70
0
 62
2
  6
Continuous
370
-3
390
13
347
21
1001
AcAecLayerStandard
1000

1000
Cast-in frames, EMP straps, steel items
  0
LAYER
  5
A0
330
1
100
AcDbSymbolTableRecord
100
AcDbLayerTableRecord
  2
S-LEVEL
 70
0
 62
4
  6
Continuous
370
-3
390
13
347
21
1001
AcAecLayerStandard
1000

1000
Level markers
  0
LAYER
  5
A1
330
1
100
AcDbSymbolTableRecord
100
AcDbLayerTableRecord
  2
S-TABLE
 70
0
 62
7
  6
Continuous
370
-3
390
13
347
21
1001
AcAecLayerStandard
1000

1000
Tables and schedules
  0
LAYER
  5
A2
330
1
100
AcDbSymbolTableRecord
100
AcDbLayerTableRecord
  2
S-BLAST
 70
0
 62
1
  6
Continuous
370
-3
390
13
347
21
1001
AcAecLayerStandard
1000

1000
Blast arrows, findings, warnings
  0
LAYER
  5
B9
330
1
100
AcDbSymbolTableRecord
100
AcDbLayerTableRecord
  2
M-ARCH
 70
0
 62
8
  6
Continuous
370
-3
390
13
347
21
1001
AcAecLayerStandard
1000

1000
Architectural background, walls and slabs
  0
LAYER
  5
BA
330
1
100
AcDbSymbolTableRecord
100
AcDbLayerTableRecord
  2
M-ARCH-HIDDEN
 70
0
 62
8
  6
Continuous
370
-3
390
13
347
21
1001
AcAecLayerStandard
1000

1000
Structure and features beyond
  0
LAYER
  5
BB
330
1
100
AcDbSymbolTableRecord
100
AcDbLayerTableRecord
  2
M-STRUCT
 70
0
 62
7
  6
Continuous
370
-3
390
13
347
21
1001
AcAecLayerStandard
1000

1000
Structure cut by the view
  0
LAYER
  5
BC
330
1
100
AcDbSymbolTableRecord
100
AcDbLayerTableRecord
  2
M-GRID
 70
0
 62
5
  6
Continuous
370
-3
390
13
347
21
1001
AcAecLayerStandard
1000

1000
Grid and bay reference lines
  0
LAYER
  5
BD
330
1
100
AcDbSymbolTableRecord
100
AcDbLayerTableRecord
  2
P-DRAIN-SOIL
 70
0
 62
1
  6
Continuous
370
-3
390
13
347
21
1001
AcAecLayerStandard
1000

1000
Soil drainage - foul
  0
LAYER
  5
BE
330
1
100
AcDbSymbolTableRecord
100
AcDbLayerTableRecord
  2
P-DRAIN-WASTE
 70
0
 62
3
  6
Continuous
370
-3
390
13
347
21
1001
AcAecLayerStandard
1000

1000
Waste drainage - wastewater
  0
LAYER
  5
BF
330
1
100
AcDbSymbolTableRecord
100
AcDbLayerTableRecord
  2
P-DRAIN-STORM
 70
0
 62
5
  6
Continuous
370
-3
390
13
347
21
1001
AcAecLayerStandard
1000

1000
Storm and surface water
  0
LAYER
  5
C0
330
1
100
AcDbSymbolTableRecord
100
AcDbLayerTableRecord
  2
P-DRAIN-SEEP
 70
0
 62
4
  6
Continuous
370
-3
390
13
347
21
1001
AcAecLayerStandard
1000

1000
Groundwater, seepage and subsoil drainage
  0
LAYER
  5
C1
330
1
100
AcDbSymbolTableRecord
100
AcDbLayerTableRecord
  2
P-DRAIN-EFF
 70
0
 62
6
  6
Continuous
370
-3
390
13
347
21
1001
AcAecLayerStandard
1000

1000
Decon effluent - contaminated, segregated
  0
LAYER
  5
C2
330
1
100
AcDbSymbolTableRecord
100
AcDbLayerTableRecord
  2
P-DRAIN-RISING
 70
0
 62
2
  6
Continuous
370
-3
390
13
347
21
1001
AcAecLayerStandard
1000

1000
Pumped rising main
  0
LAYER
  5
C3
330
1
100
AcDbSymbolTableRecord
100
AcDbLayerTableRecord
  2
P-DRAIN-VENT
 70
0
 62
8
  6
Continuous
370
-3
390
13
347
21
1001
AcAecLayerStandard
1000

1000
Drainage ventilation
  0
LAYER
  5
C4
330
1
100
AcDbSymbolTableRecord
100
AcDbLayerTableRecord
  2
P-EQUIP
 70
0
 62
2
  6
Continuous
370
-3
390
13
347
21
1001
AcAecLayerStandard
1000

1000
Pumps, tanks, chambers, plant
  0
LAYER
  5
C5
330
1
100
AcDbSymbolTableRecord
100
AcDbLayerTableRecord
  2
P-FLOW
 70
0
 62
1
  6
Continuous
370
-3
390
13
347
21
1001
AcAecLayerStandard
1000

1000
Flow arrows and direction
  0
LAYER
  5
C6
330
1
100
AcDbSymbolTableRecord
100
AcDbLayerTableRecord
  2
M-DUCT-SUPPLY
 70
0
 62
5
  6
Continuous
370
-3
390
13
347
21
1001
AcAecLayerStandard
1000

1000
Supply air ductwork
  0
LAYER
  5
C7
330
1
100
AcDbSymbolTableRecord
100
AcDbLayerTableRecord
  2
M-DUCT-RETURN
 70
0
 62
3
  6
Continuous
370
-3
390
13
347
21
1001
AcAecLayerStandard
1000

1000
Return air ductwork
  0
LAYER
  5
C8
330
1
100
AcDbSymbolTableRecord
100
AcDbLayerTableRecord
  2
M-DUCT-FRESH
 70
0
 62
4
  6
Continuous
370
-3
390
13
347
21
1001
AcAecLayerStandard
1000

1000
Fresh air ductwork
  0
LAYER
  5
C9
330
1
100
AcDbSymbolTableRecord
100
AcDbLayerTableRecord
  2
M-DUCT-EXH
 70
0
 62
1
  6
Continuous
370
-3
390
13
347
21
1001
AcAecLayerStandard
1000

1000
Exhaust air ductwork
  0
LAYER
  5
CA
330
1
100
AcDbSymbolTableRecord
100
AcDbLayerTableRecord
  2
M-DUCT-CL
 70
0
 62
8
  6
Continuous
370
-3
390
13
347
21
1001
AcAecLayerStandard
1000

1000
Duct centrelines
  0
LAYER
  5
CB
330
1
100
AcDbSymbolTableRecord
100
AcDbLayerTableRecord
  2
M-TERMINAL
 70
0
 62
2
  6
Continuous
370
-3
390
13
347
21
1001
AcAecLayerStandard
1000

1000
Diffusers, grilles and terminals
  0
LAYER
  5
CC
330
1
100
AcDbSymbolTableRecord
100
AcDbLayerTableRecord
  2
M-EQUIP
 70
0
 62
2
  6
Continuous
370
-3
390
13
347
21
1001
AcAecLayerStandard
1000

1000
HVAC plant and equipment
  0
LAYER
  5
CD
330
1
100
AcDbSymbolTableRecord
100
AcDbLayerTableRecord
  2
M-DAMPER
 70
0
 62
6
  6
Continuous
370
-3
390
13
347
21
1001
AcAecLayerStandard
1000

1000
Dampers, valves and isolation devices
  0
LAYER
  5
CE
330
1
100
AcDbSymbolTableRecord
100
AcDbLayerTableRecord
  2
M-AIRFLOW
 70
0
 62
1
  6
Continuous
370
-3
390
13
347
21
1001
AcAecLayerStandard
1000

1000
Airflow arrows and quantities
  0
LAYER
  5
CF
330
1
100
AcDbSymbolTableRecord
100
AcDbLayerTableRecord
  2
A-FIN-FLOOR
 70
0
 62
4
  6
Continuous
370
-3
390
13
347
21
1001
AcAecLayerStandard
1000

1000
Floor finish zones and tags
  0
LAYER
  5
D0
330
1
100
AcDbSymbolTableRecord
100
AcDbLayerTableRecord
  2
A-FIN-WALL
 70
0
 62
3
  6
Continuous
370
-3
390
13
347
21
1001
AcAecLayerStandard
1000

1000
Wall finish zones and tags
  0
LAYER
  5
D1
330
1
100
AcDbSymbolTableRecord
100
AcDbLayerTableRecord
  2
A-FIN-CEIL
 70
0
 62
5
  6
Continuous
370
-3
390
13
347
21
1001
AcAecLayerStandard
1000

1000
Ceiling and soffit finish tags
  0
LAYER
  5
D2
330
1
100
AcDbSymbolTableRecord
100
AcDbLayerTableRecord
  2
A-FIN-WET
 70
0
 62
30
  6
Continuous
370
-3
390
13
347
21
1001
AcAecLayerStandard
1000

1000
Wet areas, tanking and falls
  0
LAYER
  5
D3
330
1
100
AcDbSymbolTableRecord
100
AcDbLayerTableRecord
  2
A-FIN-TAG
 70
0
 62
7
  6
Continuous
370
-3
390
13
347
21
1001
AcAecLayerStandard
1000

1000
Finish tag boxes and leaders
  0
LAYER
  5
D4
330
1
100
AcDbSymbolTableRecord
100
AcDbLayerTableRecord
  2
M-WATERPROOF
 70
0
 62
30
  6
Continuous
370
-3
390
13
347
21
1001
AcAecLayerStandard
1000

1000
Membranes, waterstops, tanking
  0
LAYER
  5
D5
330
1
100
AcDbSymbolTableRecord
100
AcDbLayerTableRecord
  2
M-LEVEL
 70
0
 62
4
  6
Continuous
370
-3
390
13
347
21
1001
AcAecLayerStandard
1000

1000
Level and invert markers
  0
LAYER
  5
D6
330
1
100
AcDbSymbolTableRecord
100
AcDbLayerTableRecord
  2
M-DIM
 70
0
 62
4
  6
Continuous
370
-3
390
13
347
21
1001
AcAecLayerStandard
1000

1000
Dimensions
  0
LAYER
  5
D7
330
1
100
AcDbSymbolTableRecord
100
AcDbLayerTableRecord
  2
M-TEXT
 70
0
 62
7
  6
Continuous
370
-3
390
13
347
21
1001
AcAecLayerStandard
1000

1000
General annotation
  0
LAYER
  5
D8
330
1
100
AcDbSymbolTableRecord
100
AcDbLayerTableRecord
  2
M-NOTE
 70
0
 62
7
  6
Continuous
370
-3
390
13
347
21
1001
AcAecLayerStandard
1000

1000
Note panels
  0
LAYER
  5
D9
330
1
100
AcDbSymbolTableRecord
100
AcDbLayerTableRecord
  2
M-TABLE
 70
0
 62
7
  6
Continuous
370
-3
390
13
347
21
1001
AcAecLayerStandard
1000

1000
Tables and schedules
  0
LAYER
  5
DA
330
1
100
AcDbSymbolTableRecord
100
AcDbLayerTableRecord
  2
M-CALLOUT
 70
0
 62
2
  6
Continuous
370
-3
390
13
347
21
1001
AcAecLayerStandard
1000

1000
Tags, balloons and leaders
  0
LAYER
  5
DB
330
1
100
AcDbSymbolTableRecord
100
AcDbLayerTableRecord
  2
M-SECTION
 70
0
 62
1
  6
Continuous
370
-3
390
13
347
21
1001
AcAecLayerStandard
1000

1000
Section and detail markers
  0
LAYER
  5
DC
330
1
100
AcDbSymbolTableRecord
100
AcDbLayerTableRecord
  2
M-TITLE
 70
0
 62
7
  6
Continuous
370
-3
390
13
347
21
1001
AcAecLayerStandard
1000

1000
Border, title block, view titles
  0
LAYER
  5
DD
330
1
100
AcDbSymbolTableRecord
100
AcDbLayerTableRecord
  2
M-HATCH
 70
0
 62
8
  6
Continuous
370
-3
390
13
347
21
1001
AcAecLayerStandard
1000

1000
Hatching
  0
LAYER
  5
DE
330
1
100
AcDbSymbolTableRecord
100
AcDbLayerTableRecord
  2
M-EXISTING
 70
0
 62
8
  6
Continuous
370
-3
390
13
347
21
1001
AcAecLayerStandard
1000

1000
Soil, rock, berm, cover
  0
LAYER
  5
DF
330
1
100
AcDbSymbolTableRecord
100
AcDbLayerTableRecord
  2
M-FLAG
 70
0
 62
1
  6
Continuous
370
-3
390
13
347
21
1001
AcAecLayerStandard
1000

1000
Open items, data-required flags, warnings
  0
ENDTAB
  0
TABLE
  2
STYLE
  5
5
330
0
100
AcDbSymbolTable
 70
26
  0
STYLE
  5
29
330
5
100
AcDbSymbolTableRecord
100
AcDbTextStyleTableRecord
  2
Standard
 70
0
 40
0.0
 41
1.0
 50
0.0
 71
0
 42
2.5
  3
txt
  4

  0
STYLE
  5
41
330
5
100
AcDbSymbolTableRecord
100
AcDbTextStyleTableRecord
  2
OpenSans-Light
 70
0
 40
0.0
 41
1.0
 50
0.0
 71
0
 42
2.5
  3
OpenSans-Light.ttf
  4

  0
STYLE
  5
42
330
5
100
AcDbSymbolTableRecord
100
AcDbTextStyleTableRecord
  2
OpenSans-Light-Italic
 70
0
 40
0.0
 41
1.0
 50
0.0
 71
0
 42
2.5
  3
OpenSans-LightItalic.ttf
  4

  0
STYLE
  5
43
330
5
100
AcDbSymbolTableRecord
100
AcDbTextStyleTableRecord
  2
OpenSans
 70
0
 40
0.0
 41
1.0
 50
0.0
 71
0
 42
2.5
  3
OpenSans-Regular.ttf
  4

  0
STYLE
  5
44
330
5
100
AcDbSymbolTableRecord
100
AcDbTextStyleTableRecord
  2
OpenSans-Italic
 70
0
 40
0.0
 41
1.0
 50
0.0
 71
0
 42
2.5
  3
OpenSans-Italic.ttf
  4

  0
STYLE
  5
45
330
5
100
AcDbSymbolTableRecord
100
AcDbTextStyleTableRecord
  2
OpenSans-SemiBold
 70
0
 40
0.0
 41
1.0
 50
0.0
 71
0
 42
2.5
  3
OpenSans-SemiBold.ttf
  4

  0
STYLE
  5
46
330
5
100
AcDbSymbolTableRecord
100
AcDbTextStyleTableRecord
  2
OpenSans-SemiBoldItalic
 70
0
 40
0.0
 41
1.0
 50
0.0
 71
0
 42
2.5
  3
OpenSans-SemiBoldItalic.ttf
  4

  0
STYLE
  5
47
330
5
100
AcDbSymbolTableRecord
100
AcDbTextStyleTableRecord
  2
OpenSans-Bold
 70
0
 40
0.0
 41
1.0
 50
0.0
 71
0
 42
2.5
  3
OpenSans-Bold.ttf
  4

  0
STYLE
  5
48
330
5
100
AcDbSymbolTableRecord
100
AcDbTextStyleTableRecord
  2
OpenSans-BoldItalic
 70
0
 40
0.0
 41
1.0
 50
0.0
 71
0
 42
2.5
  3
OpenSans-BoldItalic.ttf
  4

  0
STYLE
  5
49
330
5
100
AcDbSymbolTableRecord
100
AcDbTextStyleTableRecord
  2
OpenSans-ExtraBold
 70
0
 40
0.0
 41
1.0
 50
0.0
 71
0
 42
2.5
  3
OpenSans-ExtraBold.ttf
  4

  0
STYLE
  5
4A
330
5
100
AcDbSymbolTableRecord
100
AcDbTextStyleTableRecord
  2
OpenSans-ExtraBoldItalic
 70
0
 40
0.0
 41
1.0
 50
0.0
 71
0
 42
2.5
  3
OpenSans-ExtraBoldItalic.ttf
  4

  0
STYLE
  5
4B
330
5
100
AcDbSymbolTableRecord
100
AcDbTextStyleTableRecord
  2
OpenSansCondensed-Bold
 70
0
 40
0.0
 41
1.0
 50
0.0
 71
0
 42
2.5
  3
OpenSansCondensed-Bold.ttf
  4

  0
STYLE
  5
4C
330
5
100
AcDbSymbolTableRecord
100
AcDbTextStyleTableRecord
  2
OpenSansCondensed-Light
 70
0
 40
0.0
 41
1.0
 50
0.0
 71
0
 42
2.5
  3
OpenSansCondensed-Light.ttf
  4

  0
STYLE
  5
4D
330
5
100
AcDbSymbolTableRecord
100
AcDbTextStyleTableRecord
  2
OpenSansCondensed-Italic
 70
0
 40
0.0
 41
1.0
 50
0.0
 71
0
 42
2.5
  3
OpenSansCondensed-LightItalic.ttf
  4

  0
STYLE
  5
4E
330
5
100
AcDbSymbolTableRecord
100
AcDbTextStyleTableRecord
  2
LiberationSans
 70
0
 40
0.0
 41
1.0
 50
0.0
 71
0
 42
2.5
  3
LiberationSans-Regular.ttf
  4

  0
STYLE
  5
4F
330
5
100
AcDbSymbolTableRecord
100
AcDbTextStyleTableRecord
  2
LiberationSans-Bold
 70
0
 40
0.0
 41
1.0
 50
0.0
 71
0
 42
2.5
  3
LiberationSans-Bold.ttf
  4

  0
STYLE
  5
50
330
5
100
AcDbSymbolTableRecord
100
AcDbTextStyleTableRecord
  2
LiberationSans-BoldItalic
 70
0
 40
0.0
 41
1.0
 50
0.0
 71
0
 42
2.5
  3
LiberationSans-BoldItalic.ttf
  4

  0
STYLE
  5
51
330
5
100
AcDbSymbolTableRecord
100
AcDbTextStyleTableRecord
  2
LiberationSans-Italic
 70
0
 40
0.0
 41
1.0
 50
0.0
 71
0
 42
2.5
  3
LiberationSans-Italic.ttf
  4

  0
STYLE
  5
52
330
5
100
AcDbSymbolTableRecord
100
AcDbTextStyleTableRecord
  2
LiberationSerif
 70
0
 40
0.0
 41
1.0
 50
0.0
 71
0
 42
2.5
  3
LiberationSerif-Regular.ttf
  4

  0
STYLE
  5
53
330
5
100
AcDbSymbolTableRecord
100
AcDbTextStyleTableRecord
  2
LiberationSerif-Bold
 70
0
 40
0.0
 41
1.0
 50
0.0
 71
0
 42
2.5
  3
LiberationSerif-Bold.ttf
  4

  0
STYLE
  5
54
330
5
100
AcDbSymbolTableRecord
100
AcDbTextStyleTableRecord
  2
LiberationSerif-BoldItalic
 70
0
 40
0.0
 41
1.0
 50
0.0
 71
0
 42
2.5
  3
LiberationSerif-BoldItalic.ttf
  4

  0
STYLE
  5
55
330
5
100
AcDbSymbolTableRecord
100
AcDbTextStyleTableRecord
  2
LiberationSerif-Italic
 70
0
 40
0.0
 41
1.0
 50
0.0
 71
0
 42
2.5
  3
LiberationSerif-Italic.ttf
  4

  0
STYLE
  5
56
330
5
100
AcDbSymbolTableRecord
100
AcDbTextStyleTableRecord
  2
LiberationMono
 70
0
 40
0.0
 41
1.0
 50
0.0
 71
0
 42
2.5
  3
LiberationMono-Regular.ttf
  4

  0
STYLE
  5
57
330
5
100
AcDbSymbolTableRecord
100
AcDbTextStyleTableRecord
  2
LiberationMono-Bold
 70
0
 40
0.0
 41
1.0
 50
0.0
 71
0
 42
2.5
  3
LiberationMono-Bold.ttf
  4

  0
STYLE
  5
58
330
5
100
AcDbSymbolTableRecord
100
AcDbTextStyleTableRecord
  2
LiberationMono-BoldItalic
 70
0
 40
0.0
 41
1.0
 50
0.0
 71
0
 42
2.5
  3
LiberationMono-BoldItalic.ttf
  4

  0
STYLE
  5
59
330
5
100
AcDbSymbolTableRecord
100
AcDbTextStyleTableRecord
  2
LiberationMono-Italic
 70
0
 40
0.0
 41
1.0
 50
0.0
 71
0
 42
2.5
  3
LiberationMono-Italic.ttf
  4

  0
ENDTAB
  0
TABLE
  2
VIEW
  5
7
330
0
100
AcDbSymbolTable
 70
0
  0
ENDTAB
  0
TABLE
  2
UCS
  5
6
330
0
100
AcDbSymbolTable
 70
0
  0
ENDTAB
  0
TABLE
  2
APPID
  5
3
330
0
100
AcDbSymbolTable
 70
4
  0
APPID
  5
2A
330
3
100
AcDbSymbolTableRecord
100
AcDbRegAppTableRecord
  2
ACAD
 70
0
  0
APPID
  5
8B
330
3
100
AcDbSymbolTableRecord
100
AcDbRegAppTableRecord
  2
AcAecLayerStandard
 70
0
  0
APPID
  5
383
330
3
100
AcDbSymbolTableRecord
100
AcDbRegAppTableRecord
  2
HATCHBACKGROUNDCOLOR
 70
0
  0
APPID
  5
384
330
3
100
AcDbSymbolTableRecord
100
AcDbRegAppTableRecord
  2
EZDXF
 70
0
  0
ENDTAB
  0
TABLE
  2
DIMSTYLE
  5
4
330
0
100
AcDbSymbolTable
 70
14
100
AcDbDimStyleTable
  0
DIMSTYLE
105
2B
330
4
100
AcDbSymbolTableRecord
100
AcDbDimStyleTableRecord
  2
Standard
 70
0
 40
1.0
 41
2.5
 42
0.625
 43
3.75
 44
1.25
 45
0.0
 46
0.0
 47
0.0
 48
0.0
 49
2.5
140
2.5
141
2.5
142
0.0
143
0.03937007874
144
1.0
145
0.0
146
1.0
147
0.625
148
0.0
 69
0
 70
0
 71
0
 72
0
 73
0
 74
0
 75
0
 76
0
 77
1
 78
8
 79
3
170
0
171
3
172
1
173
0
174
0
175
0
176
0
177
0
178
0
179
2
271
2
272
2
273
2
274
3
275
0
276
0
277
2
278
44
279
0
280
0
281
0
282
0
283
0
284
8
285
0
286
0
288
0
289
3
290
0
371
-2
372
-2
  0
DIMSTYLE
105
73
330
4
100
AcDbSymbolTableRecord
100
AcDbDimStyleTableRecord
  2
EZDXF
 70
0
 40
1.0
 41
0.175
 42
0.125
 43
3.75
 44
0.375
 45
0.0
 46
0.0
 47
0.0
 48
0.0
 49
2.5
140
0.25
141
2.5
142
0.0
143
0.03937007874
144
100.0
145
0.0
146
0.5
147
0.1
148
0.0
 69
0
 70
0
 71
0
 72
0
 73
0
 74
0
 75
0
 76
0
 77
1
 78
12
 79
3
170
0
171
3
172
1
173
0
174
0
175
0
176
0
177
0
178
0
179
2
271
2
272
2
273
2
274
3
275
0
276
0
277
2
278
46
279
2
280
0
281
0
282
0
283
0
284
8
285
0
286
0
288
1
289
3
290
0
340
4C
342
74
371
-2
372
-2
  0
DIMSTYLE
105
7C
330
4
100
AcDbSymbolTableRecord
100
AcDbDimStyleTableRecord
  2
EZ_M_100_H25_CM
 70
0
 40
1.0
 41
0.25
 42
0.125
 43
3.75
 44
0.375
 45
0.0
 46
0.0
 47
0.0
 48
0.0
 49
2.5
140
0.25
141
2.5
142
0.125
143
0.03937007874
144
100.0
145
0.0
146
0.5
147
0.1
148
0.0
 69
0
 70
0
 71
0
 72
0
 73
0
 74
0
 75
0
 76
0
 77
1
 78
12
 79
3
170
0
171
3
172
1
173
0
174
0
175
0
176
0
177
0
178
0
179
2
271
2
272
2
273
2
274
3
275
0
276
0
277
2
278
46
279
2
280
0
281
0
282
0
283
0
284
8
285
0
286
0
288
1
289
3
290
0
340
4C
371
-2
372
-2
  0
DIMSTYLE
105
7D
330
4
100
AcDbSymbolTableRecord
100
AcDbDimStyleTableRecord
  2
EZ_M_50_H25_CM
 70
0
 40
1.0
 41
0.125
 42
0.0625
 43
3.75
 44
0.1875
 45
0.0
 46
0.0
 47
0.0
 48
0.0
 49
2.5
140
0.125
141
2.5
142
0.0625
143
0.03937007874
144
100.0
145
0.0
146
0.5
147
0.05
148
0.0
 69
0
 70
0
 71
0
 72
0
 73
0
 74
0
 75
0
 76
0
 77
1
 78
12
 79
3
170
0
171
3
172
1
173
0
174
0
175
0
176
0
177
0
178
0
179
2
271
2
272
2
273
2
274
3
275
0
276
0
277
2
278
46
279
2
280
0
281
0
282
0
283
0
284
8
285
0
286
0
288
1
289
3
290
0
340
4C
371
-2
372
-2
  0
DIMSTYLE
105
7E
330
4
100
AcDbSymbolTableRecord
100
AcDbDimStyleTableRecord
  2
EZ_M_25_H25_CM
 70
0
 40
1.0
 41
0.0625
 42
0.03125
 43
3.75
 44
0.09375
 45
0.0
 46
0.0
 47
0.0
 48
0.0
 49
2.5
140
0.0625
141
2.5
142
0.03125
143
0.03937007874
144
100.0
145
0.0
146
0.5
147
0.025
148
0.0
 69
0
 70
0
 71
0
 72
0
 73
0
 74
0
 75
0
 76
0
 77
1
 78
12
 79
3
170
0
171
3
172
1
173
0
174
0
175
0
176
0
177
0
178
0
179
2
271
2
272
2
273
2
274
3
275
0
276
0
277
2
278
46
279
2
280
0
281
0
282
0
283
0
284
8
285
0
286
0
288
1
289
3
290
0
340
4C
371
-2
372
-2
  0
DIMSTYLE
105
7F
330
4
100
AcDbSymbolTableRecord
100
AcDbDimStyleTableRecord
  2
EZ_M_20_H25_CM
 70
0
 40
1.0
 41
0.05
 42
0.025
 43
3.75
 44
0.07500000000000001
 45
0.0
 46
0.0
 47
0.0
 48
0.0
 49
2.5
140
0.05
141
2.5
142
0.025
143
0.03937007874
144
100.0
145
0.0
146
0.5
147
0.020000000000000004
148
0.0
 69
0
 70
0
 71
0
 72
0
 73
0
 74
0
 75
0
 76
0
 77
1
 78
12
 79
3
170
0
171
3
172
1
173
0
174
0
175
0
176
0
177
0
178
0
179
2
271
2
272
2
273
2
274
3
275
0
276
0
277
2
278
46
279
2
280
0
281
0
282
0
283
0
284
8
285
0
286
0
288
1
289
3
290
0
340
4C
371
-2
372
-2
  0
DIMSTYLE
105
80
330
4
100
AcDbSymbolTableRecord
100
AcDbDimStyleTableRecord
  2
EZ_M_10_H25_CM
 70
0
 40
1.0
 41
0.025
 42
0.0125
 43
3.75
 44
0.037500000000000006
 45
0.0
 46
0.0
 47
0.0
 48
0.0
 49
2.5
140
0.025
141
2.5
142
0.0125
143
0.03937007874
144
100.0
145
0.0
146
0.5
147
0.010000000000000002
148
0.0
 69
0
 70
0
 71
0
 72
0
 73
0
 74
0
 75
0
 76
0
 77
1
 78
12
 79
3
170
0
171
3
172
1
173
0
174
0
175
0
176
0
177
0
178
0
179
2
271
2
272
2
273
2
274
3
275
0
276
0
277
2
278
46
279
2
280
0
281
0
282
0
283
0
284
8
285
0
286
0
288
1
289
3
290
0
340
4C
371
-2
372
-2
  0
DIMSTYLE
105
81
330
4
100
AcDbSymbolTableRecord
100
AcDbDimStyleTableRecord
  2
EZ_M_5_H25_CM
 70
0
 40
1.0
 41
0.0125
 42
0.00625
 43
3.75
 44
0.018750000000000003
 45
0.0
 46
0.0
 47
0.0
 48
0.0
 49
2.5
140
0.0125
141
2.5
142
0.00625
143
0.03937007874
144
100.0
145
0.0
146
0.5
147
0.005000000000000001
148
0.0
 69
0
 70
0
 71
0
 72
0
 73
0
 74
0
 75
0
 76
0
 77
1
 78
12
 79
3
170
0
171
3
172
1
173
0
174
0
175
0
176
0
177
0
178
0
179
2
271
2
272
2
273
2
274
3
275
0
276
0
277
2
278
46
279
2
280
0
281
0
282
0
283
0
284
8
285
0
286
0
288
1
289
3
290
0
340
4C
371
-2
372
-2
  0
DIMSTYLE
105
82
330
4
100
AcDbSymbolTableRecord
100
AcDbDimStyleTableRecord
  2
EZ_M_1_H25_CM
 70
0
 40
1.0
 41
0.0025
 42
0.00125
 43
3.75
 44
0.00375
 45
0.0
 46
0.0
 47
0.0
 48
0.0
 49
2.5
140
0.0025
141
2.5
142
0.00125
143
0.03937007874
144
100.0
145
0.0
146
0.5
147
0.001
148
0.0
 69
0
 70
0
 71
0
 72
0
 73
0
 74
0
 75
0
 76
0
 77
1
 78
12
 79
3
170
0
171
3
172
1
173
0
174
0
175
0
176
0
177
0
178
0
179
2
271
2
272
2
273
2
274
3
275
0
276
0
277
2
278
46
279
2
280
0
281
0
282
0
283
0
284
8
285
0
286
0
288
1
289
3
290
0
340
4C
371
-2
372
-2
  0
DIMSTYLE
105
83
330
4
100
AcDbSymbolTableRecord
100
AcDbDimStyleTableRecord
  2
EZ_RADIUS
 70
0
 40
1.0
 41
0.25
 42
0.125
 43
3.75
 44
0.375
 45
0.0
 46
0.0
 47
0.0
 48
0.0
 49
2.5
140
0.25
141
0.0
142
0.0
143
0.03937007874
144
100.0
145
0.0
146
0.5
147
0.1
148
0.0
 69
0
 70
0
 71
0
 72
0
 73
0
 74
0
 75
0
 76
0
 77
1
 78
12
 79
3
170
0
171
3
172
0
173
0
174
0
175
0
176
0
177
0
178
0
179
2
271
2
272
2
273
2
274
3
275
0
276
0
277
2
278
46
279
1
280
0
281
0
282
0
283
0
284
8
285
0
286
0
288
1
289
3
290
0
340
4C
342
84
371
-2
372
-2
  0
DIMSTYLE
105
88
330
4
100
AcDbSymbolTableRecord
100
AcDbDimStyleTableRecord
  2
EZ_RADIUS_INSIDE
 70
0
 40
1.0
 41
0.25
 42
0.125
 43
3.75
 44
0.375
 45
0.0
 46
0.0
 47
0.0
 48
0.0
 49
2.5
140
0.25
141
0.0
142
0.0
143
0.03937007874
144
100.0
145
0.0
146
0.5
147
0.1
148
0.0
 69
0
 70
0
 71
0
 72
0
 73
0
 74
0
 75
0
 76
0
 77
0
 78
12
 79
3
170
0
171
3
172
0
173
0
174
1
175
0
176
0
177
0
178
0
179
2
271
2
272
2
273
2
274
3
275
0
276
0
277
2
278
46
279
0
280
0
281
0
282
0
283
0
284
8
285
0
286
0
288
1
289
0
290
0
340
4C
342
84
371
-2
372
-2
  0
DIMSTYLE
105
89
330
4
100
AcDbSymbolTableRecord
100
AcDbDimStyleTableRecord
  2
EZ_CURVED
 70
0
 40
1.0
 41
0.25
 42
0.125
 43
3.75
 44
0.375
 45
0.0
 46
0.0
 47
0.0
 48
0.0
 49
2.5
140
0.25
141
2.5
142
0.0
143
0.03937007874
144
100.0
145
0.0
146
0.5
147
0.1
148
0.0
 69
0
 70
0
 71
0
 72
0
 73
0
 74
0
 75
0
 76
0
 77
1
 78
12
 79
2
 90
2
170
0
171
3
172
1
173
0
174
0
175
0
176
0
177
0
178
0
179
2
271
2
272
2
273
2
274
3
275
0
276
0
277
2
278
46
279
2
280
0
281
0
282
0
283
0
284
8
285
0
286
0
288
1
289
3
290
0
340
4C
371
-2
372
-2
  0
DIMSTYLE
105
A3
330
4
100
AcDbSymbolTableRecord
100
AcDbDimStyleTableRecord
  2
SC-DIM
 70
0
 40
1.0
 41
1.6
 42
1.0
 43
3.75
 44
1.2
 45
0.0
 46
0.0
 47
0.0
 48
0.0
 49
2.5
140
1.8
141
2.5
142
0.0
143
0.03937007874
144
1.0
145
0.0
146
1.0
147
0.8
148
0.0
 69
0
 70
0
 71
0
 72
0
 73
0
 74
0
 75
0
 76
0
 77
1
 78
8
 79
3
170
0
171
3
172
1
173
0
174
0
175
0
176
4
177
4
178
4
179
2
271
0
272
2
273
2
274
3
275
0
276
0
277
2
278
44
279
0
280
0
281
0
282
0
283
0
284
8
285
0
286
0
288
0
289
3
290
0
342
74
371
13
372
13
  0
DIMSTYLE
105
A4
330
4
100
AcDbSymbolTableRecord
100
AcDbDimStyleTableRecord
  2
SC-DIM-S
 70
0
 40
1.0
 41
1.2
 42
1.0
 43
3.75
 44
1.2
 45
0.0
 46
0.0
 47
0.0
 48
0.0
 49
2.5
140
1.4
141
2.5
142
0.0
143
0.03937007874
144
1.0
145
0.0
146
1.0
147
0.8
148
0.0
 69
0
 70
0
 71
0
 72
0
 73
0
 74
0
 75
0
 76
0
 77
1
 78
8
 79
3
170
0
171
3
172
1
173
0
174
0
175
0
176
4
177
4
178
4
179
2
271
0
272
2
273
2
274
3
275
0
276
0
277
2
278
44
279
0
280
0
281
0
282
0
283
0
284
8
285
0
286
0
288
0
289
3
290
0
342
74
371
13
372
13
  0
ENDTAB
  0
TABLE
  2
BLOCK_RECORD
  5
9
330
0
100
AcDbSymbolTable
 70
22
  0
BLOCK_RECORD
  5
17
330
9
100
AcDbSymbolTableRecord
100
AcDbBlockTableRecord
  2
*Model_Space
340
1A
 70
0
280
1
281
0
  0
BLOCK_RECORD
  5
1B
330
9
100
AcDbSymbolTableRecord
100
AcDbBlockTableRecord
  2
*Paper_Space
340
1E
 70
0
280
1
281
0
  0
BLOCK_RECORD
  5
74
330
9
100
AcDbSymbolTableRecord
100
AcDbBlockTableRecord
  2
_ARCHTICK
340
0
 70
0
280
1
281
0
  0
BLOCK_RECORD
  5
78
330
9
100
AcDbSymbolTableRecord
100
AcDbBlockTableRecord
  2
_CLOSEDFILLED
340
0
 70
0
280
1
281
0
  0
BLOCK_RECORD
  5
84
330
9
100
AcDbSymbolTableRecord
100
AcDbBlockTableRecord
  2
_CLOSEDBLANK
340
0
 70
0
280
1
281
0
  0
BLOCK_RECORD
  5
A5
330
9
100
AcDbSymbolTableRecord
100
AcDbBlockTableRecord
  2
BARMARK
340
0
 70
0
280
1
281
0
  0
BLOCK_RECORD
  5
A9
330
9
100
AcDbSymbolTableRecord
100
AcDbBlockTableRecord
  2
SECMARK
340
0
 70
0
280
1
281
0
  0
BLOCK_RECORD
  5
AE
330
9
100
AcDbSymbolTableRecord
100
AcDbBlockTableRecord
  2
LEVELMK
340
0
 70
0
280
1
281
0
  0
BLOCK_RECORD
  5
B2
330
9
100
AcDbSymbolTableRecord
100
AcDbBlockTableRecord
  2
NORTH
340
0
 70
0
280
1
281
0
  0
BLOCK_RECORD
  5
E0
330
9
100
AcDbSymbolTableRecord
100
AcDbBlockTableRecord
  2
GULLY
340
0
 70
0
280
1
281
0
  0
BLOCK_RECORD
  5
E6
330
9
100
AcDbSymbolTableRecord
100
AcDbBlockTableRecord
  2
CHAMBER
340
0
 70
0
280
1
281
0
  0
BLOCK_RECORD
  5
EB
330
9
100
AcDbSymbolTableRecord
100
AcDbBlockTableRecord
  2
PUMP
340
0
 70
0
280
1
281
0
  0
BLOCK_RECORD
  5
F0
330
9
100
AcDbSymbolTableRecord
100
AcDbBlockTableRecord
  2
CLEANOUT
340
0
 70
0
280
1
281
0
  0
BLOCK_RECORD
  5
F5
330
9
100
AcDbSymbolTableRecord
100
AcDbBlockTableRecord
  2
NRV
340
0
 70
0
280
1
281
0
  0
BLOCK_RECORD
  5
FA
330
9
100
AcDbSymbolTableRecord
100
AcDbBlockTableRecord
  2
VALVE
340
0
 70
0
280
1
281
0
  0
BLOCK_RECORD
  5
FF
330
9
100
AcDbSymbolTableRecord
100
AcDbBlockTableRecord
  2
DIFFUSER
340
0
 70
0
280
1
281
0
  0
BLOCK_RECORD
  5
108
330
9
100
AcDbSymbolTableRecord
100
AcDbBlockTableRecord
  2
GRILLE
340
0
 70
0
280
1
281
0
  0
BLOCK_RECORD
  5
10F
330
9
100
AcDbSymbolTableRecord
100
AcDbBlockTableRecord
  2
BVALVE
340
0
 70
0
280
1
281
0
  0
BLOCK_RECORD
  5
115
330
9
100
AcDbSymbolTableRecord
100
AcDbBlockTableRecord
  2
FANSYM
340
0
 70
0
280
1
281
0
  0
BLOCK_RECORD
  5
11A
330
9
100
AcDbSymbolTableRecord
100
AcDbBlockTableRecord
  2
FINTAG
340
0
 70
0
280
1
281
0
  0
BLOCK_RECORD
  5
2F5
330
9
100
AcDbSymbolTableRecord
100
AcDbBlockTableRecord
  2
*D1
340
0
 70
0
280
1
281
0
  0
BLOCK_RECORD
  5
304
330
9
100
AcDbSymbolTableRecord
100
AcDbBlockTableRecord
  2
*D2
340
0
 70
0
280
1
281
0
  0
ENDTAB
  0
ENDSEC
  0
SECTION
  2
BLOCKS
  0
BLOCK
  5
18
330
17
100
AcDbEntity
  8
0
100
AcDbBlockBegin
  2
*Model_Space
 70
0
 10
0.0
 20
0.0
 30
0.0
  3
*Model_Space
  1

  0
ENDBLK
  5
19
330
17
100
AcDbEntity
  8
0
100
AcDbBlockEnd
  0
BLOCK
  5
1C
330
1B
100
AcDbEntity
  8
0
100
AcDbBlockBegin
  2
*Paper_Space
 70
0
 10
0.0
 20
0.0
 30
0.0
  3
*Paper_Space
  1

  0
ENDBLK
  5
1D
330
1B
100
AcDbEntity
  8
0
100
AcDbBlockEnd
  0
BLOCK
  5
75
330
74
100
AcDbEntity
  8
0
100
AcDbBlockBegin
  2
_ARCHTICK
 70
0
 10
0.0
 20
0.0
 30
0.0
  3
_ARCHTICK
  1

  0
LWPOLYLINE
  5
77
330
74
100
AcDbEntity
  8
0
  6
BYBLOCK
 62
0
100
AcDbPolyline
 90
2
 70
0
 43
0.15
 10
-0.5
 20
-0.5
 10
0.5
 20
0.5
  0
ENDBLK
  5
76
330
74
100
AcDbEntity
  8
0
100
AcDbBlockEnd
  0
BLOCK
  5
79
330
78
100
AcDbEntity
  8
0
100
AcDbBlockBegin
  2
_CLOSEDFILLED
 70
0
 10
0.0
 20
0.0
 30
0.0
  3
_CLOSEDFILLED
  1

  0
SOLID
  5
7B
330
78
100
AcDbEntity
  8
0
  6
BYBLOCK
 62
0
100
AcDbTrace
 10
-1.0
 20
0.16439898372402537
 30
0.0
 11
0.0
 21
0.0
 31
0.0
 12
-1.0
 22
-0.16439898372402537
 32
0.0
 13
-1.0
 23
-0.16439898372402537
 33
0.0
  0
ENDBLK
  5
7A
330
78
100
AcDbEntity
  8
0
100
AcDbBlockEnd
  0
BLOCK
  5
85
330
84
100
AcDbEntity
  8
0
100
AcDbBlockBegin
  2
_CLOSEDBLANK
 70
0
 10
0.0
 20
0.0
 30
0.0
  3
_CLOSEDBLANK
  1

  0
LWPOLYLINE
  5
87
330
84
100
AcDbEntity
  8
0
  6
BYBLOCK
 62
0
100
AcDbPolyline
 90
3
 70
1
 10
-1.0
 20
0.16439898372402537
 10
0.0
 20
0.0
 10
-1.0
 20
-0.16439898372402537
  0
ENDBLK
  5
86
330
84
100
AcDbEntity
  8
0
100
AcDbBlockEnd
  0
BLOCK
  5
A6
330
A5
100
AcDbEntity
  8
0
100
AcDbBlockBegin
  2
BARMARK
 70
0
 10
0.0
 20
0.0
 30
0.0
  3
BARMARK
  1

  0
CIRCLE
  5
A8
330
A5
100
AcDbEntity
  8
S-CALLOUT
100
AcDbCircle
 10
0.0
 20
0.0
 30
0.0
 40
3.2
  0
ENDBLK
  5
A7
330
A5
100
AcDbEntity
  8
0
100
AcDbBlockEnd
  0
BLOCK
  5
AA
330
A9
100
AcDbEntity
  8
0
100
AcDbBlockBegin
  2
SECMARK
 70
0
 10
0.0
 20
0.0
 30
0.0
  3
SECMARK
  1

  0
CIRCLE
  5
AC
330
A9
100
AcDbEntity
  8
S-SECTION
100
AcDbCircle
 10
0.0
 20
0.0
 30
0.0
 40
4.0
  0
LINE
  5
AD
330
A9
100
AcDbEntity
  8
S-SECTION
100
AcDbLine
 10
-4.0
 20
0.0
 30
0.0
 11
4.0
 21
0.0
 31
0.0
  0
ENDBLK
  5
AB
330
A9
100
AcDbEntity
  8
0
100
AcDbBlockEnd
  0
BLOCK
  5
AF
330
AE
100
AcDbEntity
  8
0
100
AcDbBlockBegin
  2
LEVELMK
 70
0
 10
0.0
 20
0.0
 30
0.0
  3
LEVELMK
  1

  0
LWPOLYLINE
  5
B1
330
AE
100
AcDbEntity
  8
S-LEVEL
100
AcDbPolyline
 90
4
 70
1
 10
0.0
 20
0.0
 10
-2.0
 20
3.0
 10
2.0
 20
3.0
 10
0.0
 20
0.0
  0
ENDBLK
  5
B0
330
AE
100
AcDbEntity
  8
0
100
AcDbBlockEnd
  0
BLOCK
  5
B3
330
B2
100
AcDbEntity
  8
0
100
AcDbBlockBegin
  2
NORTH
 70
0
 10
0.0
 20
0.0
 30
0.0
  3
NORTH
  1

  0
LWPOLYLINE
  5
B5
330
B2
100
AcDbEntity
  8
S-TITLE
100
AcDbPolyline
 90
5
 70
1
 10
0.0
 20
10.0
 10
-3.2
 20
-6.0
 10
0.0
 20
-2.4
 10
3.2
 20
-6.0
 10
0.0
 20
10.0
  0
CIRCLE
  5
B6
330
B2
100
AcDbEntity
  8
S-TITLE
100
AcDbCircle
 10
0.0
 20
0.0
 30
0.0
 40
12.0
  0
ENDBLK
  5
B4
330
B2
100
AcDbEntity
  8
0
100
AcDbBlockEnd
  0
BLOCK
  5
E1
330
E0
100
AcDbEntity
  8
0
100
AcDbBlockBegin
  2
GULLY
 70
0
 10
0.0
 20
0.0
 30
0.0
  3
GULLY
  1

  0
LWPOLYLINE
  5
E3
330
E0
100
AcDbEntity
  8
P-EQUIP
100
AcDbPolyline
 90
4
 70
1
 10
-2.2
 20
-2.2
 10
2.2
 20
-2.2
 10
2.2
 20
2.2
 10
-2.2
 20
2.2
  0
LINE
  5
E4
330
E0
100
AcDbEntity
  8
P-EQUIP
100
AcDbLine
 10
-2.2
 20
-2.2
 30
0.0
 11
2.2
 21
2.2
 31
0.0
  0
LINE
  5
E5
330
E0
100
AcDbEntity
  8
P-EQUIP
100
AcDbLine
 10
-2.2
 20
2.2
 30
0.0
 11
2.2
 21
-2.2
 31
0.0
  0
ENDBLK
  5
E2
330
E0
100
AcDbEntity
  8
0
100
AcDbBlockEnd
  0
BLOCK
  5
E7
330
E6
100
AcDbEntity
  8
0
100
AcDbBlockBegin
  2
CHAMBER
 70
0
 10
0.0
 20
0.0
 30
0.0
  3
CHAMBER
  1

  0
LWPOLYLINE
  5
E9
330
E6
100
AcDbEntity
  8
P-EQUIP
100
AcDbPolyline
 90
4
 70
1
 10
-3.0
 20
-3.0
 10
3.0
 20
-3.0
 10
3.0
 20
3.0
 10
-3.0
 20
3.0
  0
CIRCLE
  5
EA
330
E6
100
AcDbEntity
  8
P-EQUIP
100
AcDbCircle
 10
0.0
 20
0.0
 30
0.0
 40
1.9
  0
ENDBLK
  5
E8
330
E6
100
AcDbEntity
  8
0
100
AcDbBlockEnd
  0
BLOCK
  5
EC
330
EB
100
AcDbEntity
  8
0
100
AcDbBlockBegin
  2
PUMP
 70
0
 10
0.0
 20
0.0
 30
0.0
  3
PUMP
  1

  0
CIRCLE
  5
EE
330
EB
100
AcDbEntity
  8
P-EQUIP
100
AcDbCircle
 10
0.0
 20
0.0
 30
0.0
 40
2.6
  0
LWPOLYLINE
  5
EF
330
EB
100
AcDbEntity
  8
P-EQUIP
100
AcDbPolyline
 90
3
 70
1
 10
-1.5
 20
-1.5
 10
1.9
 20
0.0
 10
-1.5
 20
1.5
  0
ENDBLK
  5
ED
330
EB
100
AcDbEntity
  8
0
100
AcDbBlockEnd
  0
BLOCK
  5
F1
330
F0
100
AcDbEntity
  8
0
100
AcDbBlockBegin
  2
CLEANOUT
 70
0
 10
0.0
 20
0.0
 30
0.0
  3
CLEANOUT
  1

  0
CIRCLE
  5
F3
330
F0
100
AcDbEntity
  8
P-EQUIP
100
AcDbCircle
 10
0.0
 20
0.0
 30
0.0
 40
1.6
  0
LINE
  5
F4
330
F0
100
AcDbEntity
  8
P-EQUIP
100
AcDbLine
 10
0.0
 20
-1.6
 30
0.0
 11
0.0
 21
1.6
 31
0.0
  0
ENDBLK
  5
F2
330
F0
100
AcDbEntity
  8
0
100
AcDbBlockEnd
  0
BLOCK
  5
F6
330
F5
100
AcDbEntity
  8
0
100
AcDbBlockBegin
  2
NRV
 70
0
 10
0.0
 20
0.0
 30
0.0
  3
NRV
  1

  0
LWPOLYLINE
  5
F8
330
F5
100
AcDbEntity
  8
M-DAMPER
100
AcDbPolyline
 90
3
 70
1
 10
-2.0
 20
-1.8
 10
-2.0
 20
1.8
 10
2.0
 20
0.0
  0
LINE
  5
F9
330
F5
100
AcDbEntity
  8
M-DAMPER
100
AcDbLine
 10
2.0
 20
-1.8
 30
0.0
 11
2.0
 21
1.8
 31
0.0
  0
ENDBLK
  5
F7
330
F5
100
AcDbEntity
  8
0
100
AcDbBlockEnd
  0
BLOCK
  5
FB
330
FA
100
AcDbEntity
  8
0
100
AcDbBlockBegin
  2
VALVE
 70
0
 10
0.0
 20
0.0
 30
0.0
  3
VALVE
  1

  0
LWPOLYLINE
  5
FD
330
FA
100
AcDbEntity
  8
M-DAMPER
100
AcDbPolyline
 90
3
 70
1
 10
-2.0
 20
-1.8
 10
-2.0
 20
1.8
 10
0.0
 20
0.0
  0
LWPOLYLINE
  5
FE
330
FA
100
AcDbEntity
  8
M-DAMPER
100
AcDbPolyline
 90
3
 70
1
 10
2.0
 20
-1.8
 10
2.0
 20
1.8
 10
0.0
 20
0.0
  0
ENDBLK
  5
FC
330
FA
100
AcDbEntity
  8
0
100
AcDbBlockEnd
  0
BLOCK
  5
100
330
FF
100
AcDbEntity
  8
0
100
AcDbBlockBegin
  2
DIFFUSER
 70
0
 10
0.0
 20
0.0
 30
0.0
  3
DIFFUSER
  1

  0
LWPOLYLINE
  5
102
330
FF
100
AcDbEntity
  8
M-TERMINAL
100
AcDbPolyline
 90
4
 70
1
 10
-4.0
 20
-4.0
 10
4.0
 20
-4.0
 10
4.0
 20
4.0
 10
-4.0
 20
4.0
  0
LWPOLYLINE
  5
103
330
FF
100
AcDbEntity
  8
M-TERMINAL
100
AcDbPolyline
 90
4
 70
1
 10
-2.4
 20
-2.4
 10
2.4
 20
-2.4
 10
2.4
 20
2.4
 10
-2.4
 20
2.4
  0
LINE
  5
104
330
FF
100
AcDbEntity
  8
M-TERMINAL
100
AcDbLine
 10
-4.0
 20
-4.0
 30
0.0
 11
-2.4
 21
-2.4
 31
0.0
  0
LINE
  5
105
330
FF
100
AcDbEntity
  8
M-TERMINAL
100
AcDbLine
 10
4.0
 20
-4.0
 30
0.0
 11
2.4
 21
-2.4
 31
0.0
  0
LINE
  5
106
330
FF
100
AcDbEntity
  8
M-TERMINAL
100
AcDbLine
 10
4.0
 20
4.0
 30
0.0
 11
2.4
 21
2.4
 31
0.0
  0
LINE
  5
107
330
FF
100
AcDbEntity
  8
M-TERMINAL
100
AcDbLine
 10
-4.0
 20
4.0
 30
0.0
 11
-2.4
 21
2.4
 31
0.0
  0
ENDBLK
  5
101
330
FF
100
AcDbEntity
  8
0
100
AcDbBlockEnd
  0
BLOCK
  5
109
330
108
100
AcDbEntity
  8
0
100
AcDbBlockBegin
  2
GRILLE
 70
0
 10
0.0
 20
0.0
 30
0.0
  3
GRILLE
  1

  0
LWPOLYLINE
  5
10B
330
108
100
AcDbEntity
  8
M-TERMINAL
100
AcDbPolyline
 90
4
 70
1
 10
-4.0
 20
-2.4
 10
4.0
 20
-2.4
 10
4.0
 20
2.4
 10
-4.0
 20
2.4
  0
LINE
  5
10C
330
108
100
AcDbEntity
  8
M-TERMINAL
100
AcDbLine
 10
-2.0
 20
-2.4
 30
0.0
 11
-2.0
 21
2.4
 31
0.0
  0
LINE
  5
10D
330
108
100
AcDbEntity
  8
M-TERMINAL
100
AcDbLine
 10
0.0
 20
-2.4
 30
0.0
 11
0.0
 21
2.4
 31
0.0
  0
LINE
  5
10E
330
108
100
AcDbEntity
  8
M-TERMINAL
100
AcDbLine
 10
2.0
 20
-2.4
 30
0.0
 11
2.0
 21
2.4
 31
0.0
  0
ENDBLK
  5
10A
330
108
100
AcDbEntity
  8
0
100
AcDbBlockEnd
  0
BLOCK
  5
110
330
10F
100
AcDbEntity
  8
0
100
AcDbBlockBegin
  2
BVALVE
 70
0
 10
0.0
 20
0.0
 30
0.0
  3
BVALVE
  1

  0
CIRCLE
  5
112
330
10F
100
AcDbEntity
  8
M-DAMPER
100
AcDbCircle
 10
0.0
 20
0.0
 30
0.0
 40
3.0
  0
LINE
  5
113
330
10F
100
AcDbEntity
  8
M-DAMPER
100
AcDbLine
 10
-3.0
 20
0.0
 30
0.0
 11
3.0
 21
0.0
 31
0.0
  0
LINE
  5
114
330
10F
100
AcDbEntity
  8
M-DAMPER
100
AcDbLine
 10
-2.1
 20
-2.1
 30
0.0
 11
2.1
 21
2.1
 31
0.0
  0
ENDBLK
  5
111
330
10F
100
AcDbEntity
  8
0
100
AcDbBlockEnd
  0
BLOCK
  5
116
330
115
100
AcDbEntity
  8
0
100
AcDbBlockBegin
  2
FANSYM
 70
0
 10
0.0
 20
0.0
 30
0.0
  3
FANSYM
  1

  0
CIRCLE
  5
118
330
115
100
AcDbEntity
  8
M-EQUIP
100
AcDbCircle
 10
0.0
 20
0.0
 30
0.0
 40
3.4
  0
LWPOLYLINE
  5
119
330
115
100
AcDbEntity
  8
M-EQUIP
100
AcDbPolyline
 90
3
 70
1
 10
-2.4
 20
-1.2
 10
2.4
 20
-1.2
 10
0.0
 20
2.6
  0
ENDBLK
  5
117
330
115
100
AcDbEntity
  8
0
100
AcDbBlockEnd
  0
BLOCK
  5
11B
330
11A
100
AcDbEntity
  8
0
100
AcDbBlockBegin
  2
FINTAG
 70
0
 10
0.0
 20
0.0
 30
0.0
  3
FINTAG
  1

  0
LWPOLYLINE
  5
11D
330
11A
100
AcDbEntity
  8
A-FIN-TAG
100
AcDbPolyline
 90
4
 70
1
 10
0.0
 20
0.0
 10
16.0
 20
0.0
 10
16.0
 20
5.0
 10
0.0
 20
5.0
  0
LINE
  5
11E
330
11A
100
AcDbEntity
  8
A-FIN-TAG
100
AcDbLine
 10
0.0
 20
2.5
 30
0.0
 11
16.0
 21
2.5
 31
0.0
  0
LINE
  5
11F
330
11A
100
AcDbEntity
  8
A-FIN-TAG
100
AcDbLine
 10
8.0
 20
0.0
 30
0.0
 11
8.0
 21
5.0
 31
0.0
  0
ENDBLK
  5
11C
330
11A
100
AcDbEntity
  8
0
100
AcDbBlockEnd
  0
BLOCK
  5
2F6
330
2F5
100
AcDbEntity
  8
0
100
AcDbBlockBegin
  2
*D1
 70
1
 10
0.0
 20
0.0
 30
0.0
  3
*D1
  1

  0
LINE
  5
2F8
330
2F5
100
AcDbEntity
  8
0
 62
4
370
13
100
AcDbLine
 10
194.16666666666666
 20
375.6666666666667
 30
0.0
 11
194.16666666666666
 21
365.4666666666667
 31
0.0
  0
LINE
  5
2F9
330
2F5
100
AcDbEntity
  8
0
 62
4
370
13
100
AcDbLine
 10
307.5
 20
375.6666666666667
 30
0.0
 11
307.5
 21
365.4666666666667
 31
0.0
  0
INSERT
  5
2FA
330
2F5
100
AcDbEntity
  8
S-DIM
 62
4
100
AcDbBlockReference
  2
_ARCHTICK
 10
194.16666666666666
 20
366.6666666666667
 30
0.0
 41
1.6
 42
1.6
 50
180.0
  0
INSERT
  5
2FC
330
2F5
100
AcDbEntity
  8
S-DIM
 62
4
100
AcDbBlockReference
  2
_ARCHTICK
 10
307.5
 20
366.6666666666667
 30
0.0
 41
1.6
 42
1.6
  0
LINE
  5
2FE
330
2F5
100
AcDbEntity
  8
0
 62
4
370
13
100
AcDbLine
 10
194.16666666666666
 20
366.6666666666667
 30
0.0
 11
307.5
 21
366.6666666666667
 31
0.0
  0
MTEXT
  5
2FF
330
2F5
100
AcDbEntity
  8
S-DIM
 62
4
100
AcDbMText
 10
250.83333333333331
 20
368.3666666666667
 30
0.0
 40
1.8
 71
5
  1
6800
  7
OpenSansCondensed-Light
  0
POINT
  5
300
330
2F5
100
AcDbEntity
  8
Defpoints
100
AcDbPoint
 10
194.16666666666666
 20
366.6666666666667
 30
0.0
  0
POINT
  5
301
330
2F5
100
AcDbEntity
  8
Defpoints
100
AcDbPoint
 10
194.16666666666666
 20
376.6666666666667
 30
0.0
  0
POINT
  5
302
330
2F5
100
AcDbEntity
  8
Defpoints
100
AcDbPoint
 10
307.5
 20
376.6666666666667
 30
0.0
  0
ENDBLK
  5
2F7
330
2F5
100
AcDbEntity
  8
0
100
AcDbBlockEnd
  0
BLOCK
  5
305
330
304
100
AcDbEntity
  8
0
100
AcDbBlockBegin
  2
*D2
 70
1
 10
0.0
 20
0.0
 30
0.0
  3
*D2
  1

  0
LINE
  5
307
330
304
100
AcDbEntity
  8
0
 62
4
370
13
100
AcDbLine
 10
266.66666666666663
 20
352.3333333333333
 30
0.0
 11
266.66666666666663
 21
342.1333333333333
 31
0.0
  0
LINE
  5
308
330
304
100
AcDbEntity
  8
0
 62
4
370
13
100
AcDbLine
 10
346.6666666666667
 20
352.3333333333333
 30
0.0
 11
346.6666666666667
 21
342.1333333333333
 31
0.0
  0
INSERT
  5
309
330
304
100
AcDbEntity
  8
S-DIM
 62
4
100
AcDbBlockReference
  2
_ARCHTICK
 10
266.66666666666663
 20
343.3333333333333
 30
0.0
 41
1.6
 42
1.6
 50
180.0
  0
INSERT
  5
30B
330
304
100
AcDbEntity
  8
S-DIM
 62
4
100
AcDbBlockReference
  2
_ARCHTICK
 10
346.6666666666667
 20
343.3333333333333
 30
0.0
 41
1.6
 42
1.6
  0
LINE
  5
30D
330
304
100
AcDbEntity
  8
0
 62
4
370
13
100
AcDbLine
 10
266.66666666666663
 20
343.3333333333333
 30
0.0
 11
346.6666666666667
 21
343.3333333333333
 31
0.0
  0
MTEXT
  5
30E
330
304
100
AcDbEntity
  8
S-DIM
 62
4
100
AcDbMText
 10
306.66666666666663
 20
345.0333333333333
 30
0.0
 40
1.8
 71
5
  1
4800
  7
OpenSansCondensed-Light
  0
POINT
  5
30F
330
304
100
AcDbEntity
  8
Defpoints
100
AcDbPoint
 10
266.66666666666663
 20
343.3333333333333
 30
0.0
  0
POINT
  5
310
330
304
100
AcDbEntity
  8
Defpoints
100
AcDbPoint
 10
266.66666666666663
 20
353.3333333333333
 30
0.0
  0
POINT
  5
311
330
304
100
AcDbEntity
  8
Defpoints
100
AcDbPoint
 10
346.6666666666667
 20
353.3333333333333
 30
0.0
  0
ENDBLK
  5
306
330
304
100
AcDbEntity
  8
0
100
AcDbBlockEnd
  0
ENDSEC
  0
SECTION
  2
ENTITIES
  0
LWPOLYLINE
  5
B7
330
17
100
AcDbEntity
  8
S-TITLE
100
AcDbPolyline
 90
4
 70
1
 10
0.0
 20
0.0
 10
841.0
 20
0.0
 10
841.0
 20
594.0
 10
0.0
 20
594.0
  0
LWPOLYLINE
  5
B8
330
17
100
AcDbEntity
  8
S-TITLE
100
AcDbPolyline
 90
4
 70
1
 10
10.0
 20
10.0
 10
831.0
 20
10.0
 10
831.0
 20
584.0
 10
10.0
 20
584.0
  0
TEXT
  5
120
330
17
100
AcDbEntity
  8
S-TITLE
100
AcDbText
 10
20.0
 20
548.0
 30
0.0
 40
3.5
  1
V1   ENTRY LEVEL DRAINAGE PLAN
  7
OpenSans
 11
20.0
 21
548.0
 31
0.0
100
AcDbText
  0
LINE
  5
121
330
17
100
AcDbEntity
  8
S-TITLE
100
AcDbLine
 10
20.0
 20
546.2
 30
0.0
 11
89.30000000000001
 21
546.2
 31
0.0
  0
TEXT
  5
122
330
17
100
AcDbEntity
  8
S-TEXT
100
AcDbText
 10
20.0
 20
540.8
 30
0.0
 40
2.0
  1
SCALE 1:60   LEVELS 0.000 AND (-)2.000   ALL DIMENSIONS mm
  7
OpenSans
 11
20.0
 21
540.8
 31
0.0
100
AcDbText
  0
LINE
  5
123
330
17
100
AcDbEntity
  8
M-ARCH-HIDDEN
100
AcDbLine
 10
40.0
 20
300.0
 30
0.0
 11
42.0
 21
300.0
 31
0.0
  0
LINE
  5
124
330
17
100
AcDbEntity
  8
M-ARCH-HIDDEN
100
AcDbLine
 10
43.4
 20
300.0
 30
0.0
 11
45.4
 21
300.0
 31
0.0
  0
LINE
  5
125
330
17
100
AcDbEntity
  8
M-ARCH-HIDDEN
100
AcDbLine
 10
46.8
 20
300.0
 30
0.0
 11
48.8
 21
300.0
 31
0.0
  0
LINE
  5
126
330
17
100
AcDbEntity
  8
M-ARCH-HIDDEN
100
AcDbLine
 10
50.2
 20
300.0
 30
0.0
 11
52.2
 21
300.0
 31
0.0
  0
LINE
  5
127
330
17
100
AcDbEntity
  8
M-ARCH-HIDDEN
100
AcDbLine
 10
53.6
 20
300.0
 30
0.0
 11
55.6
 21
300.0
 31
0.0
  0
LINE
  5
128
330
17
100
AcDbEntity
  8
M-ARCH-HIDDEN
100
AcDbLine
 10
57.0
 20
300.0
 30
0.0
 11
59.0
 21
300.0
 31
0.0
  0
LINE
  5
129
330
17
100
AcDbEntity
  8
M-ARCH-HIDDEN
100
AcDbLine
 10
60.4
 20
300.0
 30
0.0
 11
62.4
 21
300.0
 31
0.0
  0
LINE
  5
12A
330
17
100
AcDbEntity
  8
M-ARCH-HIDDEN
100
AcDbLine
 10
63.8
 20
300.0
 30
0.0
 11
65.8
 21
300.0
 31
0.0
  0
LINE
  5
12B
330
17
100
AcDbEntity
  8
M-ARCH-HIDDEN
100
AcDbLine
 10
67.19999999999999
 20
300.0
 30
0.0
 11
69.19999999999999
 21
300.0
 31
0.0
  0
LINE
  5
12C
330
17
100
AcDbEntity
  8
M-ARCH-HIDDEN
100
AcDbLine
 10
70.6
 20
300.0
 30
0.0
 11
72.6
 21
300.0
 31
0.0
  0
LINE
  5
12D
330
17
100
AcDbEntity
  8
M-ARCH-HIDDEN
100
AcDbLine
 10
74.0
 20
300.0
 30
0.0
 11
76.0
 21
300.0
 31
0.0
  0
LINE
  5
12E
330
17
100
AcDbEntity
  8
M-ARCH-HIDDEN
100
AcDbLine
 10
77.39999999999999
 20
300.0
 30
0.0
 11
79.39999999999999
 21
300.0
 31
0.0
  0
LINE
  5
12F
330
17
100
AcDbEntity
  8
M-ARCH-HIDDEN
100
AcDbLine
 10
80.79999999999998
 20
300.0
 30
0.0
 11
82.79999999999998
 21
300.0
 31
0.0
  0
LINE
  5
130
330
17
100
AcDbEntity
  8
M-ARCH-HIDDEN
100
AcDbLine
 10
84.19999999999999
 20
300.0
 30
0.0
 11
86.19999999999999
 21
300.0
 31
0.0
  0
LINE
  5
131
330
17
100
AcDbEntity
  8
M-ARCH-HIDDEN
100
AcDbLine
 10
87.6
 20
300.0
 30
0.0
 11
89.6
 21
300.0
 31
0.0
  0
LINE
  5
132
330
17
100
AcDbEntity
  8
M-ARCH-HIDDEN
100
AcDbLine
 10
90.99999999999999
 20
300.0
 30
0.0
 11
92.99999999999999
 21
300.0
 31
0.0
  0
LINE
  5
133
330
17
100
AcDbEntity
  8
M-ARCH-HIDDEN
100
AcDbLine
 10
94.39999999999998
 20
300.0
 30
0.0
 11
96.39999999999998
 21
300.0
 31
0.0
  0
LINE
  5
134
330
17
100
AcDbEntity
  8
M-ARCH-HIDDEN
100
AcDbLine
 10
97.79999999999998
 20
300.0
 30
0.0
 11
99.79999999999998
 21
300.0
 31
0.0
  0
LINE
  5
135
330
17
100
AcDbEntity
  8
M-ARCH-HIDDEN
100
AcDbLine
 10
101.19999999999999
 20
300.0
 30
0.0
 11
103.19999999999999
 21
300.0
 31
0.0
  0
LINE
  5
136
330
17
100
AcDbEntity
  8
M-ARCH-HIDDEN
100
AcDbLine
 10
104.59999999999998
 20
300.0
 30
0.0
 11
106.59999999999998
 21
300.0
 31
0.0
  0
LINE
  5
137
330
17
100
AcDbEntity
  8
M-ARCH-HIDDEN
100
AcDbLine
 10
107.99999999999999
 20
300.0
 30
0.0
 11
109.99999999999999
 21
300.0
 31
0.0
  0
LINE
  5
138
330
17
100
AcDbEntity
  8
M-ARCH-HIDDEN
100
AcDbLine
 10
111.39999999999999
 20
300.0
 30
0.0
 11
113.39999999999999
 21
300.0
 31
0.0
  0
LINE
  5
139
330
17
100
AcDbEntity
  8
M-ARCH-HIDDEN
100
AcDbLine
 10
114.8
 20
300.0
 30
0.0
 11
116.8
 21
300.0
 31
0.0
  0
LINE
  5
13A
330
17
100
AcDbEntity
  8
M-ARCH-HIDDEN
100
AcDbLine
 10
118.2
 20
300.0
 30
0.0
 11
120.2
 21
300.0
 31
0.0
  0
LINE
  5
13B
330
17
100
AcDbEntity
  8
M-ARCH-HIDDEN
100
AcDbLine
 10
121.60000000000001
 20
300.0
 30
0.0
 11
123.60000000000001
 21
300.0
 31
0.0
  0
LINE
  5
13C
330
17
100
AcDbEntity
  8
M-ARCH-HIDDEN
100
AcDbLine
 10
125.00000000000001
 20
300.0
 30
0.0
 11
127.00000000000001
 21
300.0
 31
0.0
  0
LINE
  5
13D
330
17
100
AcDbEntity
  8
M-ARCH-HIDDEN
100
AcDbLine
 10
128.40000000000003
 20
300.0
 30
0.0
 11
130.40000000000003
 21
300.0
 31
0.0
  0
LINE
  5
13E
330
17
100
AcDbEntity
  8
M-ARCH-HIDDEN
100
AcDbLine
 10
131.8
 20
300.0
 30
0.0
 11
133.8
 21
300.0
 31
0.0
  0
LINE
  5
13F
330
17
100
AcDbEntity
  8
M-ARCH-HIDDEN
100
AcDbLine
 10
135.20000000000005
 20
300.0
 30
0.0
 11
137.20000000000005
 21
300.0
 31
0.0
  0
LINE
  5
140
330
17
100
AcDbEntity
  8
M-ARCH-HIDDEN
100
AcDbLine
 10
138.60000000000002
 20
300.0
 30
0.0
 11
140.60000000000002
 21
300.0
 31
0.0
  0
LINE
  5
141
330
17
100
AcDbEntity
  8
M-ARCH-HIDDEN
100
AcDbLine
 10
142.00000000000006
 20
300.0
 30
0.0
 11
144.00000000000006
 21
300.0
 31
0.0
  0
LINE
  5
142
330
17
100
AcDbEntity
  8
M-ARCH-HIDDEN
100
AcDbLine
 10
145.40000000000003
 20
300.0
 30
0.0
 11
147.40000000000003
 21
300.0
 31
0.0
  0
LINE
  5
143
330
17
100
AcDbEntity
  8
M-ARCH-HIDDEN
100
AcDbLine
 10
148.80000000000007
 20
300.0
 30
0.0
 11
150.80000000000007
 21
300.0
 31
0.0
  0
LINE
  5
144
330
17
100
AcDbEntity
  8
M-ARCH-HIDDEN
100
AcDbLine
 10
152.20000000000005
 20
300.0
 30
0.0
 11
154.20000000000005
 21
300.0
 31
0.0
  0
LINE
  5
145
330
17
100
AcDbEntity
  8
M-ARCH-HIDDEN
100
AcDbLine
 10
155.60000000000008
 20
300.0
 30
0.0
 11
157.60000000000008
 21
300.0
 31
0.0
  0
LINE
  5
146
330
17
100
AcDbEntity
  8
M-ARCH-HIDDEN
100
AcDbLine
 10
159.00000000000006
 20
300.0
 30
0.0
 11
161.00000000000006
 21
300.0
 31
0.0
  0
LINE
  5
147
330
17
100
AcDbEntity
  8
M-ARCH-HIDDEN
100
AcDbLine
 10
162.4000000000001
 20
300.0
 30
0.0
 11
164.4000000000001
 21
300.0
 31
0.0
  0
LINE
  5
148
330
17
100
AcDbEntity
  8
M-ARCH-HIDDEN
100
AcDbLine
 10
165.80000000000007
 20
300.0
 30
0.0
 11
167.80000000000007
 21
300.0
 31
0.0
  0
LINE
  5
149
330
17
100
AcDbEntity
  8
M-ARCH-HIDDEN
100
AcDbLine
 10
169.20000000000007
 20
300.0
 30
0.0
 11
171.20000000000007
 21
300.0
 31
0.0
  0
LINE
  5
14A
330
17
100
AcDbEntity
  8
M-ARCH-HIDDEN
100
AcDbLine
 10
172.60000000000008
 20
300.0
 30
0.0
 11
174.60000000000008
 21
300.0
 31
0.0
  0
LINE
  5
14B
330
17
100
AcDbEntity
  8
M-ARCH-HIDDEN
100
AcDbLine
 10
176.00000000000009
 20
300.0
 30
0.0
 11
178.00000000000009
 21
300.0
 31
0.0
  0
LINE
  5
14C
330
17
100
AcDbEntity
  8
M-ARCH-HIDDEN
100
AcDbLine
 10
179.4000000000001
 20
300.0
 30
0.0
 11
181.4000000000001
 21
300.0
 31
0.0
  0
LINE
  5
14D
330
17
100
AcDbEntity
  8
M-ARCH-HIDDEN
100
AcDbLine
 10
182.8000000000001
 20
300.0
 30
0.0
 11
184.8000000000001
 21
300.0
 31
0.0
  0
LINE
  5
14E
330
17
100
AcDbEntity
  8
M-ARCH-HIDDEN
100
AcDbLine
 10
186.2000000000001
 20
300.0
 30
0.0
 11
188.2000000000001
 21
300.0
 31
0.0
  0
LINE
  5
14F
330
17
100
AcDbEntity
  8
M-ARCH-HIDDEN
100
AcDbLine
 10
189.6000000000001
 20
300.0
 30
0.0
 11
191.6000000000001
 21
300.0
 31
0.0
  0
LINE
  5
150
330
17
100
AcDbEntity
  8
M-ARCH-HIDDEN
100
AcDbLine
 10
193.0000000000001
 20
300.0
 30
0.0
 11
195.0000000000001
 21
300.0
 31
0.0
  0
LINE
  5
151
330
17
100
AcDbEntity
  8
M-ARCH-HIDDEN
100
AcDbLine
 10
196.40000000000012
 20
300.0
 30
0.0
 11
198.40000000000012
 21
300.0
 31
0.0
  0
LINE
  5
152
330
17
100
AcDbEntity
  8
M-ARCH-HIDDEN
100
AcDbLine
 10
199.80000000000013
 20
300.0
 30
0.0
 11
201.80000000000013
 21
300.0
 31
0.0
  0
LINE
  5
153
330
17
100
AcDbEntity
  8
M-ARCH-HIDDEN
100
AcDbLine
 10
203.20000000000013
 20
300.0
 30
0.0
 11
205.20000000000013
 21
300.0
 31
0.0
  0
LINE
  5
154
330
17
100
AcDbEntity
  8
M-ARCH-HIDDEN
100
AcDbLine
 10
206.60000000000014
 20
300.0
 30
0.0
 11
208.60000000000014
 21
300.0
 31
0.0
  0
LINE
  5
155
330
17
100
AcDbEntity
  8
M-ARCH-HIDDEN
100
AcDbLine
 10
210.00000000000014
 20
300.0
 30
0.0
 11
212.00000000000014
 21
300.0
 31
0.0
  0
LINE
  5
156
330
17
100
AcDbEntity
  8
M-ARCH-HIDDEN
100
AcDbLine
 10
213.40000000000015
 20
300.0
 30
0.0
 11
215.40000000000015
 21
300.0
 31
0.0
  0
LINE
  5
157
330
17
100
AcDbEntity
  8
M-ARCH-HIDDEN
100
AcDbLine
 10
216.80000000000015
 20
300.0
 30
0.0
 11
218.80000000000015
 21
300.0
 31
0.0
  0
LINE
  5
158
330
17
100
AcDbEntity
  8
M-ARCH-HIDDEN
100
AcDbLine
 10
220.20000000000016
 20
300.0
 30
0.0
 11
222.20000000000016
 21
300.0
 31
0.0
  0
LINE
  5
159
330
17
100
AcDbEntity
  8
M-ARCH-HIDDEN
100
AcDbLine
 10
223.60000000000016
 20
300.0
 30
0.0
 11
225.60000000000016
 21
300.0
 31
0.0
  0
LINE
  5
15A
330
17
100
AcDbEntity
  8
M-ARCH-HIDDEN
100
AcDbLine
 10
227.00000000000017
 20
300.0
 30
0.0
 11
229.00000000000017
 21
300.0
 31
0.0
  0
LINE
  5
15B
330
17
100
AcDbEntity
  8
M-ARCH-HIDDEN
100
AcDbLine
 10
230.40000000000018
 20
300.0
 30
0.0
 11
232.40000000000018
 21
300.0
 31
0.0
  0
LINE
  5
15C
330
17
100
AcDbEntity
  8
M-ARCH-HIDDEN
100
AcDbLine
 10
233.80000000000018
 20
300.0
 30
0.0
 11
235.80000000000018
 21
300.0
 31
0.0
  0
LINE
  5
15D
330
17
100
AcDbEntity
  8
M-ARCH-HIDDEN
100
AcDbLine
 10
237.2000000000002
 20
300.0
 30
0.0
 11
239.2000000000002
 21
300.0
 31
0.0
  0
LINE
  5
15E
330
17
100
AcDbEntity
  8
M-ARCH-HIDDEN
100
AcDbLine
 10
240.6000000000002
 20
300.0
 30
0.0
 11
242.6000000000002
 21
300.0
 31
0.0
  0
LINE
  5
15F
330
17
100
AcDbEntity
  8
M-ARCH-HIDDEN
100
AcDbLine
 10
244.0000000000002
 20
300.0
 30
0.0
 11
246.0000000000002
 21
300.0
 31
0.0
  0
LINE
  5
160
330
17
100
AcDbEntity
  8
M-ARCH-HIDDEN
100
AcDbLine
 10
247.4000000000002
 20
300.0
 30
0.0
 11
249.4000000000002
 21
300.0
 31
0.0
  0
LINE
  5
161
330
17
100
AcDbEntity
  8
M-ARCH-HIDDEN
100
AcDbLine
 10
250.8000000000002
 20
300.0
 30
0.0
 11
252.8000000000002
 21
300.0
 31
0.0
  0
LINE
  5
162
330
17
100
AcDbEntity
  8
M-ARCH-HIDDEN
100
AcDbLine
 10
254.20000000000022
 20
300.0
 30
0.0
 11
256.2000000000002
 21
300.0
 31
0.0
  0
LINE
  5
163
330
17
100
AcDbEntity
  8
M-ARCH-HIDDEN
100
AcDbLine
 10
257.60000000000025
 20
300.0
 30
0.0
 11
259.60000000000025
 21
300.0
 31
0.0
  0
LINE
  5
164
330
17
100
AcDbEntity
  8
M-ARCH-HIDDEN
100
AcDbLine
 10
261.0000000000002
 20
300.0
 30
0.0
 11
263.0000000000002
 21
300.0
 31
0.0
  0
LINE
  5
165
330
17
100
AcDbEntity
  8
M-ARCH-HIDDEN
100
AcDbLine
 10
264.4000000000002
 20
300.0
 30
0.0
 11
266.4000000000002
 21
300.0
 31
0.0
  0
LINE
  5
166
330
17
100
AcDbEntity
  8
M-ARCH-HIDDEN
100
AcDbLine
 10
267.80000000000024
 20
300.0
 30
0.0
 11
269.80000000000024
 21
300.0
 31
0.0
  0
LINE
  5
167
330
17
100
AcDbEntity
  8
M-ARCH-HIDDEN
100
AcDbLine
 10
271.2000000000003
 20
300.0
 30
0.0
 11
273.2000000000003
 21
300.0
 31
0.0
  0
LINE
  5
168
330
17
100
AcDbEntity
  8
M-ARCH-HIDDEN
100
AcDbLine
 10
274.60000000000025
 20
300.0
 30
0.0
 11
276.60000000000025
 21
300.0
 31
0.0
  0
LINE
  5
169
330
17
100
AcDbEntity
  8
M-ARCH-HIDDEN
100
AcDbLine
 10
278.0000000000002
 20
300.0
 30
0.0
 11
280.0000000000002
 21
300.0
 31
0.0
  0
LINE
  5
16A
330
17
100
AcDbEntity
  8
M-ARCH-HIDDEN
100
AcDbLine
 10
281.40000000000026
 20
300.0
 30
0.0
 11
283.40000000000026
 21
300.0
 31
0.0
  0
LINE
  5
16B
330
17
100
AcDbEntity
  8
M-ARCH-HIDDEN
100
AcDbLine
 10
284.8000000000003
 20
300.0
 30
0.0
 11
286.8000000000003
 21
300.0
 31
0.0
  0
LINE
  5
16C
330
17
100
AcDbEntity
  8
M-ARCH-HIDDEN
100
AcDbLine
 10
288.2000000000003
 20
300.0
 30
0.0
 11
290.2000000000003
 21
300.0
 31
0.0
  0
LINE
  5
16D
330
17
100
AcDbEntity
  8
M-ARCH-HIDDEN
100
AcDbLine
 10
291.60000000000025
 20
300.0
 30
0.0
 11
293.60000000000025
 21
300.0
 31
0.0
  0
LINE
  5
16E
330
17
100
AcDbEntity
  8
M-ARCH-HIDDEN
100
AcDbLine
 10
295.0000000000003
 20
300.0
 30
0.0
 11
297.0000000000003
 21
300.0
 31
0.0
  0
LINE
  5
16F
330
17
100
AcDbEntity
  8
M-ARCH-HIDDEN
100
AcDbLine
 10
298.40000000000026
 20
300.0
 30
0.0
 11
300.40000000000026
 21
300.0
 31
0.0
  0
LINE
  5
170
330
17
100
AcDbEntity
  8
M-ARCH-HIDDEN
100
AcDbLine
 10
301.80000000000024
 20
300.0
 30
0.0
 11
303.80000000000024
 21
300.0
 31
0.0
  0
LINE
  5
171
330
17
100
AcDbEntity
  8
M-ARCH-HIDDEN
100
AcDbLine
 10
305.2000000000002
 20
300.0
 30
0.0
 11
307.2000000000002
 21
300.0
 31
0.0
  0
LINE
  5
172
330
17
100
AcDbEntity
  8
M-ARCH-HIDDEN
100
AcDbLine
 10
308.6000000000002
 20
300.0
 30
0.0
 11
310.6000000000002
 21
300.0
 31
0.0
  0
LINE
  5
173
330
17
100
AcDbEntity
  8
M-ARCH-HIDDEN
100
AcDbLine
 10
312.00000000000017
 20
300.0
 30
0.0
 11
314.00000000000017
 21
300.0
 31
0.0
  0
LINE
  5
174
330
17
100
AcDbEntity
  8
M-ARCH-HIDDEN
100
AcDbLine
 10
315.40000000000015
 20
300.0
 30
0.0
 11
317.40000000000015
 21
300.0
 31
0.0
  0
LINE
  5
175
330
17
100
AcDbEntity
  8
M-ARCH-HIDDEN
100
AcDbLine
 10
318.8000000000001
 20
300.0
 30
0.0
 11
320.8000000000001
 21
300.0
 31
0.0
  0
LINE
  5
176
330
17
100
AcDbEntity
  8
M-ARCH-HIDDEN
100
AcDbLine
 10
322.2000000000001
 20
300.0
 30
0.0
 11
324.2000000000001
 21
300.0
 31
0.0
  0
LINE
  5
177
330
17
100
AcDbEntity
  8
M-ARCH-HIDDEN
100
AcDbLine
 10
325.6000000000001
 20
300.0
 30
0.0
 11
327.6000000000001
 21
300.0
 31
0.0
  0
LINE
  5
178
330
17
100
AcDbEntity
  8
M-ARCH-HIDDEN
100
AcDbLine
 10
329.00000000000006
 20
300.0
 30
0.0
 11
331.00000000000006
 21
300.0
 31
0.0
  0
LINE
  5
179
330
17
100
AcDbEntity
  8
M-ARCH-HIDDEN
100
AcDbLine
 10
332.40000000000003
 20
300.0
 30
0.0
 11
334.40000000000003
 21
300.0
 31
0.0
  0
LINE
  5
17A
330
17
100
AcDbEntity
  8
M-ARCH-HIDDEN
100
AcDbLine
 10
335.8
 20
300.0
 30
0.0
 11
337.8
 21
300.0
 31
0.0
  0
LINE
  5
17B
330
17
100
AcDbEntity
  8
M-ARCH-HIDDEN
100
AcDbLine
 10
339.2
 20
300.0
 30
0.0
 11
341.2
 21
300.0
 31
0.0
  0
LINE
  5
17C
330
17
100
AcDbEntity
  8
M-ARCH-HIDDEN
100
AcDbLine
 10
342.59999999999997
 20
300.0
 30
0.0
 11
344.59999999999997
 21
300.0
 31
0.0
  0
LINE
  5
17D
330
17
100
AcDbEntity
  8
M-ARCH-HIDDEN
100
AcDbLine
 10
345.99999999999994
 20
300.0
 30
0.0
 11
347.99999999999994
 21
300.0
 31
0.0
  0
LINE
  5
17E
330
17
100
AcDbEntity
  8
M-ARCH-HIDDEN
100
AcDbLine
 10
349.3999999999999
 20
300.0
 30
0.0
 11
351.3999999999999
 21
300.0
 31
0.0
  0
LINE
  5
17F
330
17
100
AcDbEntity
  8
M-ARCH-HIDDEN
100
AcDbLine
 10
352.7999999999999
 20
300.0
 30
0.0
 11
354.7999999999999
 21
300.0
 31
0.0
  0
LINE
  5
180
330
17
100
AcDbEntity
  8
M-ARCH-HIDDEN
100
AcDbLine
 10
356.1999999999999
 20
300.0
 30
0.0
 11
358.1999999999999
 21
300.0
 31
0.0
  0
LINE
  5
181
330
17
100
AcDbEntity
  8
M-ARCH-HIDDEN
100
AcDbLine
 10
359.59999999999985
 20
300.0
 30
0.0
 11
361.59999999999985
 21
300.0
 31
0.0
  0
LINE
  5
182
330
17
100
AcDbEntity
  8
M-ARCH-HIDDEN
100
AcDbLine
 10
362.99999999999983
 20
300.0
 30
0.0
 11
364.99999999999983
 21
300.0
 31
0.0
  0
LINE
  5
183
330
17
100
AcDbEntity
  8
M-ARCH-HIDDEN
100
AcDbLine
 10
366.3999999999998
 20
300.0
 30
0.0
 11
368.3999999999998
 21
300.0
 31
0.0
  0
LINE
  5
184
330
17
100
AcDbEntity
  8
M-ARCH-HIDDEN
100
AcDbLine
 10
369.7999999999998
 20
300.0
 30
0.0
 11
371.7999999999998
 21
300.0
 31
0.0
  0
LINE
  5
185
330
17
100
AcDbEntity
  8
M-ARCH-HIDDEN
100
AcDbLine
 10
373.19999999999976
 20
300.0
 30
0.0
 11
375.19999999999976
 21
300.0
 31
0.0
  0
LINE
  5
186
330
17
100
AcDbEntity
  8
M-ARCH-HIDDEN
100
AcDbLine
 10
376.59999999999974
 20
300.0
 30
0.0
 11
378.59999999999974
 21
300.0
 31
0.0
  0
LINE
  5
187
330
17
100
AcDbEntity
  8
M-ARCH-HIDDEN
100
AcDbLine
 10
379.9999999999997
 20
300.0
 30
0.0
 11
381.9999999999997
 21
300.0
 31
0.0
  0
LINE
  5
188
330
17
100
AcDbEntity
  8
M-ARCH-HIDDEN
100
AcDbLine
 10
383.3999999999997
 20
300.0
 30
0.0
 11
385.3999999999997
 21
300.0
 31
0.0
  0
LINE
  5
189
330
17
100
AcDbEntity
  8
M-ARCH-HIDDEN
100
AcDbLine
 10
386.79999999999967
 20
300.0
 30
0.0
 11
388.79999999999967
 21
300.0
 31
0.0
  0
LINE
  5
18A
330
17
100
AcDbEntity
  8
M-ARCH-HIDDEN
100
AcDbLine
 10
390.19999999999965
 20
300.0
 30
0.0
 11
392.19999999999965
 21
300.0
 31
0.0
  0
LINE
  5
18B
330
17
100
AcDbEntity
  8
M-ARCH-HIDDEN
100
AcDbLine
 10
393.5999999999996
 20
300.0
 30
0.0
 11
395.5999999999996
 21
300.0
 31
0.0
  0
LINE
  5
18C
330
17
100
AcDbEntity
  8
M-ARCH-HIDDEN
100
AcDbLine
 10
396.9999999999996
 20
300.0
 30
0.0
 11
398.9999999999996
 21
300.0
 31
0.0
  0
LINE
  5
18D
330
17
100
AcDbEntity
  8
M-ARCH-HIDDEN
100
AcDbLine
 10
400.3999999999996
 20
300.0
 30
0.0
 11
402.3999999999996
 21
300.0
 31
0.0
  0
LINE
  5
18E
330
17
100
AcDbEntity
  8
M-ARCH-HIDDEN
100
AcDbLine
 10
403.79999999999956
 20
300.0
 30
0.0
 11
405.79999999999956
 21
300.0
 31
0.0
  0
LINE
  5
18F
330
17
100
AcDbEntity
  8
M-ARCH-HIDDEN
100
AcDbLine
 10
406.6666666666667
 20
300.0
 30
0.0
 11
406.6666666666667
 21
302.0
 31
0.0
  0
LINE
  5
190
330
17
100
AcDbEntity
  8
M-ARCH-HIDDEN
100
AcDbLine
 10
406.6666666666667
 20
303.4
 30
0.0
 11
406.6666666666667
 21
305.4
 31
0.0
  0
LINE
  5
191
330
17
100
AcDbEntity
  8
M-ARCH-HIDDEN
100
AcDbLine
 10
406.6666666666667
 20
306.8
 30
0.0
 11
406.6666666666667
 21
308.8
 31
0.0
  0
LINE
  5
192
330
17
100
AcDbEntity
  8
M-ARCH-HIDDEN
100
AcDbLine
 10
406.6666666666667
 20
310.2
 30
0.0
 11
406.6666666666667
 21
312.2
 31
0.0
  0
LINE
  5
193
330
17
100
AcDbEntity
  8
M-ARCH-HIDDEN
100
AcDbLine
 10
406.6666666666667
 20
313.6
 30
0.0
 11
406.6666666666667
 21
315.6
 31
0.0
  0
LINE
  5
194
330
17
100
AcDbEntity
  8
M-ARCH-HIDDEN
100
AcDbLine
 10
406.6666666666667
 20
317.0
 30
0.0
 11
406.6666666666667
 21
319.0
 31
0.0
  0
LINE
  5
195
330
17
100
AcDbEntity
  8
M-ARCH-HIDDEN
100
AcDbLine
 10
406.6666666666667
 20
320.4
 30
0.0
 11
406.6666666666667
 21
322.4
 31
0.0
  0
LINE
  5
196
330
17
100
AcDbEntity
  8
M-ARCH-HIDDEN
100
AcDbLine
 10
406.6666666666667
 20
323.8
 30
0.0
 11
406.6666666666667
 21
325.8
 31
0.0
  0
LINE
  5
197
330
17
100
AcDbEntity
  8
M-ARCH-HIDDEN
100
AcDbLine
 10
406.6666666666667
 20
327.2
 30
0.0
 11
406.6666666666667
 21
329.2
 31
0.0
  0
LINE
  5
198
330
17
100
AcDbEntity
  8
M-ARCH-HIDDEN
100
AcDbLine
 10
406.6666666666667
 20
330.6
 30
0.0
 11
406.6666666666667
 21
332.6
 31
0.0
  0
LINE
  5
199
330
17
100
AcDbEntity
  8
M-ARCH-HIDDEN
100
AcDbLine
 10
406.6666666666667
 20
334.0
 30
0.0
 11
406.6666666666667
 21
336.0
 31
0.0
  0
LINE
  5
19A
330
17
100
AcDbEntity
  8
M-ARCH-HIDDEN
100
AcDbLine
 10
406.6666666666667
 20
337.4
 30
0.0
 11
406.6666666666667
 21
339.4
 31
0.0
  0
LINE
  5
19B
330
17
100
AcDbEntity
  8
M-ARCH-HIDDEN
100
AcDbLine
 10
406.6666666666667
 20
340.8
 30
0.0
 11
406.6666666666667
 21
342.8
 31
0.0
  0
LINE
  5
19C
330
17
100
AcDbEntity
  8
M-ARCH-HIDDEN
100
AcDbLine
 10
406.6666666666667
 20
344.2
 30
0.0
 11
406.6666666666667
 21
346.2
 31
0.0
  0
LINE
  5
19D
330
17
100
AcDbEntity
  8
M-ARCH-HIDDEN
100
AcDbLine
 10
406.6666666666667
 20
347.59999999999997
 30
0.0
 11
406.6666666666667
 21
349.59999999999997
 31
0.0
  0
LINE
  5
19E
330
17
100
AcDbEntity
  8
M-ARCH-HIDDEN
100
AcDbLine
 10
406.6666666666667
 20
351.0
 30
0.0
 11
406.6666666666667
 21
353.0
 31
0.0
  0
LINE
  5
19F
330
17
100
AcDbEntity
  8
M-ARCH-HIDDEN
100
AcDbLine
 10
406.6666666666667
 20
354.4
 30
0.0
 11
406.6666666666667
 21
356.4
 31
0.0
  0
LINE
  5
1A0
330
17
100
AcDbEntity
  8
M-ARCH-HIDDEN
100
AcDbLine
 10
406.6666666666667
 20
357.79999999999995
 30
0.0
 11
406.6666666666667
 21
359.79999999999995
 31
0.0
  0
LINE
  5
1A1
330
17
100
AcDbEntity
  8
M-ARCH-HIDDEN
100
AcDbLine
 10
406.6666666666667
 20
361.2
 30
0.0
 11
406.6666666666667
 21
363.2
 31
0.0
  0
LINE
  5
1A2
330
17
100
AcDbEntity
  8
M-ARCH-HIDDEN
100
AcDbLine
 10
406.6666666666667
 20
364.59999999999997
 30
0.0
 11
406.6666666666667
 21
366.59999999999997
 31
0.0
  0
LINE
  5
1A3
330
17
100
AcDbEntity
  8
M-ARCH-HIDDEN
100
AcDbLine
 10
406.6666666666667
 20
368.0
 30
0.0
 11
406.6666666666667
 21
370.0
 31
0.0
  0
LINE
  5
1A4
330
17
100
AcDbEntity
  8
M-ARCH-HIDDEN
100
AcDbLine
 10
406.6666666666667
 20
371.4
 30
0.0
 11
406.6666666666667
 21
373.4
 31
0.0
  0
LINE
  5
1A5
330
17
100
AcDbEntity
  8
M-ARCH-HIDDEN
100
AcDbLine
 10
406.6666666666667
 20
374.8
 30
0.0
 11
406.6666666666667
 21
376.8
 31
0.0
  0
LINE
  5
1A6
330
17
100
AcDbEntity
  8
M-ARCH-HIDDEN
100
AcDbLine
 10
406.6666666666667
 20
378.2
 30
0.0
 11
406.6666666666667
 21
380.2
 31
0.0
  0
LINE
  5
1A7
330
17
100
AcDbEntity
  8
M-ARCH-HIDDEN
100
AcDbLine
 10
406.6666666666667
 20
381.6
 30
0.0
 11
406.6666666666667
 21
383.6
 31
0.0
  0
LINE
  5
1A8
330
17
100
AcDbEntity
  8
M-ARCH-HIDDEN
100
AcDbLine
 10
406.6666666666667
 20
385.0
 30
0.0
 11
406.6666666666667
 21
387.0
 31
0.0
  0
LINE
  5
1A9
330
17
100
AcDbEntity
  8
M-ARCH-HIDDEN
100
AcDbLine
 10
406.6666666666667
 20
388.40000000000003
 30
0.0
 11
406.6666666666667
 21
390.40000000000003
 31
0.0
  0
LINE
  5
1AA
330
17
100
AcDbEntity
  8
M-ARCH-HIDDEN
100
AcDbLine
 10
406.6666666666667
 20
391.8
 30
0.0
 11
406.6666666666667
 21
393.8
 31
0.0
  0
LINE
  5
1AB
330
17
100
AcDbEntity
  8
M-ARCH-HIDDEN
100
AcDbLine
 10
406.6666666666667
 20
395.20000000000005
 30
0.0
 11
406.6666666666667
 21
397.20000000000005
 31
0.0
  0
LINE
  5
1AC
330
17
100
AcDbEntity
  8
M-ARCH-HIDDEN
100
AcDbLine
 10
406.6666666666667
 20
398.6
 30
0.0
 11
406.6666666666667
 21
400.6
 31
0.0
  0
LINE
  5
1AD
330
17
100
AcDbEntity
  8
M-ARCH-HIDDEN
100
AcDbLine
 10
406.6666666666667
 20
402.00000000000006
 30
0.0
 11
406.6666666666667
 21
403.3333333333333
 31
0.0
  0
LINE
  5
1AE
330
17
100
AcDbEntity
  8
M-ARCH-HIDDEN
100
AcDbLine
 10
406.6666666666667
 20
403.3333333333333
 30
0.0
 11
404.6666666666667
 21
403.3333333333333
 31
0.0
  0
LINE
  5
1AF
330
17
100
AcDbEntity
  8
M-ARCH-HIDDEN
100
AcDbLine
 10
403.2666666666667
 20
403.3333333333333
 30
0.0
 11
401.2666666666667
 21
403.3333333333333
 31
0.0
  0
LINE
  5
1B0
330
17
100
AcDbEntity
  8
M-ARCH-HIDDEN
100
AcDbLine
 10
399.8666666666667
 20
403.3333333333333
 30
0.0
 11
397.8666666666667
 21
403.3333333333333
 31
0.0
  0
LINE
  5
1B1
330
17
100
AcDbEntity
  8
M-ARCH-HIDDEN
100
AcDbLine
 10
396.4666666666667
 20
403.3333333333333
 30
0.0
 11
394.4666666666667
 21
403.3333333333333
 31
0.0
  0
LINE
  5
1B2
330
17
100
AcDbEntity
  8
M-ARCH-HIDDEN
100
AcDbLine
 10
393.06666666666666
 20
403.3333333333333
 30
0.0
 11
391.06666666666666
 21
403.3333333333333
 31
0.0
  0
LINE
  5
1B3
330
17
100
AcDbEntity
  8
M-ARCH-HIDDEN
100
AcDbLine
 10
389.6666666666667
 20
403.3333333333333
 30
0.0
 11
387.6666666666667
 21
403.3333333333333
 31
0.0
  0
LINE
  5
1B4
330
17
100
AcDbEntity
  8
M-ARCH-HIDDEN
100
AcDbLine
 10
386.2666666666667
 20
403.3333333333333
 30
0.0
 11
384.2666666666667
 21
403.3333333333333
 31
0.0
  0
LINE
  5
1B5
330
17
100
AcDbEntity
  8
M-ARCH-HIDDEN
100
AcDbLine
 10
382.8666666666667
 20
403.3333333333333
 30
0.0
 11
380.8666666666667
 21
403.3333333333333
 31
0.0
  0
LINE
  5
1B6
330
17
100
AcDbEntity
  8
M-ARCH-HIDDEN
100
AcDbLine
 10
379.4666666666667
 20
403.3333333333333
 30
0.0
 11
377.4666666666667
 21
403.3333333333333
 31
0.0
  0
LINE
  5
1B7
330
17
100
AcDbEntity
  8
M-ARCH-HIDDEN
100
AcDbLine
 10
376.0666666666667
 20
403.3333333333333
 30
0.0
 11
374.0666666666667
 21
403.3333333333333
 31
0.0
  0
LINE
  5
1B8
330
17
100
AcDbEntity
  8
M-ARCH-HIDDEN
100
AcDbLine
 10
372.6666666666667
 20
403.3333333333333
 30
0.0
 11
370.6666666666667
 21
403.3333333333333
 31
0.0
  0
LINE
  5
1B9
330
17
100
AcDbEntity
  8
M-ARCH-HIDDEN
100
AcDbLine
 10
369.2666666666667
 20
403.3333333333333
 30
0.0
 11
367.2666666666667
 21
403.3333333333333
 31
0.0
  0
LINE
  5
1BA
330
17
100
AcDbEntity
  8
M-ARCH-HIDDEN
100
AcDbLine
 10
365.8666666666667
 20
403.3333333333333
 30
0.0
 11
363.8666666666667
 21
403.3333333333333
 31
0.0
  0
LINE
  5
1BB
330
17
100
AcDbEntity
  8
M-ARCH-HIDDEN
100
AcDbLine
 10
362.4666666666667
 20
403.3333333333333
 30
0.0
 11
360.4666666666667
 21
403.3333333333333
 31
0.0
  0
LINE
  5
1BC
330
17
100
AcDbEntity
  8
M-ARCH-HIDDEN
100
AcDbLine
 10
359.0666666666667
 20
403.3333333333333
 30
0.0
 11
357.0666666666667
 21
403.3333333333333
 31
0.0
  0
LINE
  5
1BD
330
17
100
AcDbEntity
  8
M-ARCH-HIDDEN
100
AcDbLine
 10
355.6666666666667
 20
403.3333333333333
 30
0.0
 11
353.6666666666667
 21
403.3333333333333
 31
0.0
  0
LINE
  5
1BE
330
17
100
AcDbEntity
  8
M-ARCH-HIDDEN
100
AcDbLine
 10
352.2666666666667
 20
403.3333333333333
 30
0.0
 11
350.2666666666667
 21
403.3333333333333
 31
0.0
  0
LINE
  5
1BF
330
17
100
AcDbEntity
  8
M-ARCH-HIDDEN
100
AcDbLine
 10
348.8666666666667
 20
403.3333333333333
 30
0.0
 11
346.8666666666667
 21
403.3333333333333
 31
0.0
  0
LINE
  5
1C0
330
17
100
AcDbEntity
  8
M-ARCH-HIDDEN
100
AcDbLine
 10
345.4666666666667
 20
403.3333333333333
 30
0.0
 11
343.4666666666667
 21
403.3333333333333
 31
0.0
  0
LINE
  5
1C1
330
17
100
AcDbEntity
  8
M-ARCH-HIDDEN
100
AcDbLine
 10
342.0666666666667
 20
403.3333333333333
 30
0.0
 11
340.0666666666667
 21
403.3333333333333
 31
0.0
  0
LINE
  5
1C2
330
17
100
AcDbEntity
  8
M-ARCH-HIDDEN
100
AcDbLine
 10
338.6666666666667
 20
403.3333333333333
 30
0.0
 11
336.6666666666667
 21
403.3333333333333
 31
0.0
  0
LINE
  5
1C3
330
17
100
AcDbEntity
  8
M-ARCH-HIDDEN
100
AcDbLine
 10
335.2666666666667
 20
403.3333333333333
 30
0.0
 11
333.2666666666667
 21
403.3333333333333
 31
0.0
  0
LINE
  5
1C4
330
17
100
AcDbEntity
  8
M-ARCH-HIDDEN
100
AcDbLine
 10
331.8666666666667
 20
403.3333333333333
 30
0.0
 11
329.8666666666667
 21
403.3333333333333
 31
0.0
  0
LINE
  5
1C5
330
17
100
AcDbEntity
  8
M-ARCH-HIDDEN
100
AcDbLine
 10
328.4666666666667
 20
403.3333333333333
 30
0.0
 11
326.4666666666667
 21
403.3333333333333
 31
0.0
  0
LINE
  5
1C6
330
17
100
AcDbEntity
  8
M-ARCH-HIDDEN
100
AcDbLine
 10
325.06666666666666
 20
403.3333333333333
 30
0.0
 11
323.06666666666666
 21
403.3333333333333
 31
0.0
  0
LINE
  5
1C7
330
17
100
AcDbEntity
  8
M-ARCH-HIDDEN
100
AcDbLine
 10
321.6666666666667
 20
403.3333333333333
 30
0.0
 11
319.6666666666667
 21
403.3333333333333
 31
0.0
  0
LINE
  5
1C8
330
17
100
AcDbEntity
  8
M-ARCH-HIDDEN
100
AcDbLine
 10
318.26666666666665
 20
403.3333333333333
 30
0.0
 11
316.26666666666665
 21
403.3333333333333
 31
0.0
  0
LINE
  5
1C9
330
17
100
AcDbEntity
  8
M-ARCH-HIDDEN
100
AcDbLine
 10
314.8666666666667
 20
403.3333333333333
 30
0.0
 11
312.8666666666667
 21
403.3333333333333
 31
0.0
  0
LINE
  5
1CA
330
17
100
AcDbEntity
  8
M-ARCH-HIDDEN
100
AcDbLine
 10
311.46666666666664
 20
403.3333333333333
 30
0.0
 11
309.46666666666664
 21
403.3333333333333
 31
0.0
  0
LINE
  5
1CB
330
17
100
AcDbEntity
  8
M-ARCH-HIDDEN
100
AcDbLine
 10
308.06666666666666
 20
403.3333333333333
 30
0.0
 11
306.06666666666666
 21
403.3333333333333
 31
0.0
  0
LINE
  5
1CC
330
17
100
AcDbEntity
  8
M-ARCH-HIDDEN
100
AcDbLine
 10
304.66666666666663
 20
403.3333333333333
 30
0.0
 11
302.66666666666663
 21
403.3333333333333
 31
0.0
  0
LINE
  5
1CD
330
17
100
AcDbEntity
  8
M-ARCH-HIDDEN
100
AcDbLine
 10
301.26666666666665
 20
403.3333333333333
 30
0.0
 11
299.26666666666665
 21
403.3333333333333
 31
0.0
  0
LINE
  5
1CE
330
17
100
AcDbEntity
  8
M-ARCH-HIDDEN
100
AcDbLine
 10
297.8666666666666
 20
403.3333333333333
 30
0.0
 11
295.8666666666666
 21
403.3333333333333
 31
0.0
  0
LINE
  5
1CF
330
17
100
AcDbEntity
  8
M-ARCH-HIDDEN
100
AcDbLine
 10
294.46666666666664
 20
403.3333333333333
 30
0.0
 11
292.46666666666664
 21
403.3333333333333
 31
0.0
  0
LINE
  5
1D0
330
17
100
AcDbEntity
  8
M-ARCH-HIDDEN
100
AcDbLine
 10
291.0666666666666
 20
403.3333333333333
 30
0.0
 11
289.0666666666666
 21
403.3333333333333
 31
0.0
  0
LINE
  5
1D1
330
17
100
AcDbEntity
  8
M-ARCH-HIDDEN
100
AcDbLine
 10
287.66666666666663
 20
403.3333333333333
 30
0.0
 11
285.66666666666663
 21
403.3333333333333
 31
0.0
  0
LINE
  5
1D2
330
17
100
AcDbEntity
  8
M-ARCH-HIDDEN
100
AcDbLine
 10
284.2666666666666
 20
403.3333333333333
 30
0.0
 11
282.2666666666666
 21
403.3333333333333
 31
0.0
  0
LINE
  5
1D3
330
17
100
AcDbEntity
  8
M-ARCH-HIDDEN
100
AcDbLine
 10
280.8666666666666
 20
403.3333333333333
 30
0.0
 11
278.8666666666666
 21
403.3333333333333
 31
0.0
  0
LINE
  5
1D4
330
17
100
AcDbEntity
  8
M-ARCH-HIDDEN
100
AcDbLine
 10
277.4666666666666
 20
403.3333333333333
 30
0.0
 11
275.4666666666666
 21
403.3333333333333
 31
0.0
  0
LINE
  5
1D5
330
17
100
AcDbEntity
  8
M-ARCH-HIDDEN
100
AcDbLine
 10
274.0666666666666
 20
403.3333333333333
 30
0.0
 11
272.0666666666666
 21
403.3333333333333
 31
0.0
  0
LINE
  5
1D6
330
17
100
AcDbEntity
  8
M-ARCH-HIDDEN
100
AcDbLine
 10
270.66666666666663
 20
403.3333333333333
 30
0.0
 11
268.66666666666663
 21
403.3333333333333
 31
0.0
  0
LINE
  5
1D7
330
17
100
AcDbEntity
  8
M-ARCH-HIDDEN
100
AcDbLine
 10
267.2666666666666
 20
403.3333333333333
 30
0.0
 11
265.2666666666666
 21
403.3333333333333
 31
0.0
  0
LINE
  5
1D8
330
17
100
AcDbEntity
  8
M-ARCH-HIDDEN
100
AcDbLine
 10
263.86666666666656
 20
403.3333333333333
 30
0.0
 11
261.86666666666656
 21
403.3333333333333
 31
0.0
  0
LINE
  5
1D9
330
17
100
AcDbEntity
  8
M-ARCH-HIDDEN
100
AcDbLine
 10
260.4666666666666
 20
403.3333333333333
 30
0.0
 11
258.4666666666666
 21
403.3333333333333
 31
0.0
  0
LINE
  5
1DA
330
17
100
AcDbEntity
  8
M-ARCH-HIDDEN
100
AcDbLine
 10
257.0666666666666
 20
403.3333333333333
 30
0.0
 11
255.06666666666658
 21
403.3333333333333
 31
0.0
  0
LINE
  5
1DB
330
17
100
AcDbEntity
  8
M-ARCH-HIDDEN
100
AcDbLine
 10
253.66666666666657
 20
403.3333333333333
 30
0.0
 11
251.66666666666657
 21
403.3333333333333
 31
0.0
  0
LINE
  5
1DC
330
17
100
AcDbEntity
  8
M-ARCH-HIDDEN
100
AcDbLine
 10
250.26666666666657
 20
403.3333333333333
 30
0.0
 11
248.26666666666657
 21
403.3333333333333
 31
0.0
  0
LINE
  5
1DD
330
17
100
AcDbEntity
  8
M-ARCH-HIDDEN
100
AcDbLine
 10
246.86666666666656
 20
403.3333333333333
 30
0.0
 11
244.86666666666656
 21
403.3333333333333
 31
0.0
  0
LINE
  5
1DE
330
17
100
AcDbEntity
  8
M-ARCH-HIDDEN
100
AcDbLine
 10
243.46666666666655
 20
403.3333333333333
 30
0.0
 11
241.46666666666655
 21
403.3333333333333
 31
0.0
  0
LINE
  5
1DF
330
17
100
AcDbEntity
  8
M-ARCH-HIDDEN
100
AcDbLine
 10
240.06666666666655
 20
403.3333333333333
 30
0.0
 11
238.06666666666655
 21
403.3333333333333
 31
0.0
  0
LINE
  5
1E0
330
17
100
AcDbEntity
  8
M-ARCH-HIDDEN
100
AcDbLine
 10
236.66666666666654
 20
403.3333333333333
 30
0.0
 11
234.66666666666654
 21
403.3333333333333
 31
0.0
  0
LINE
  5
1E1
330
17
100
AcDbEntity
  8
M-ARCH-HIDDEN
100
AcDbLine
 10
233.26666666666654
 20
403.3333333333333
 30
0.0
 11
231.26666666666654
 21
403.3333333333333
 31
0.0
  0
LINE
  5
1E2
330
17
100
AcDbEntity
  8
M-ARCH-HIDDEN
100
AcDbLine
 10
229.86666666666653
 20
403.3333333333333
 30
0.0
 11
227.86666666666653
 21
403.3333333333333
 31
0.0
  0
LINE
  5
1E3
330
17
100
AcDbEntity
  8
M-ARCH-HIDDEN
100
AcDbLine
 10
226.46666666666653
 20
403.3333333333333
 30
0.0
 11
224.46666666666653
 21
403.3333333333333
 31
0.0
  0
LINE
  5
1E4
330
17
100
AcDbEntity
  8
M-ARCH-HIDDEN
100
AcDbLine
 10
223.06666666666652
 20
403.3333333333333
 30
0.0
 11
221.06666666666652
 21
403.3333333333333
 31
0.0
  0
LINE
  5
1E5
330
17
100
AcDbEntity
  8
M-ARCH-HIDDEN
100
AcDbLine
 10
219.66666666666652
 20
403.3333333333333
 30
0.0
 11
217.66666666666652
 21
403.3333333333333
 31
0.0
  0
LINE
  5
1E6
330
17
100
AcDbEntity
  8
M-ARCH-HIDDEN
100
AcDbLine
 10
216.2666666666665
 20
403.3333333333333
 30
0.0
 11
214.2666666666665
 21
403.3333333333333
 31
0.0
  0
LINE
  5
1E7
330
17
100
AcDbEntity
  8
M-ARCH-HIDDEN
100
AcDbLine
 10
212.8666666666665
 20
403.3333333333333
 30
0.0
 11
210.8666666666665
 21
403.3333333333333
 31
0.0
  0
LINE
  5
1E8
330
17
100
AcDbEntity
  8
M-ARCH-HIDDEN
100
AcDbLine
 10
209.4666666666665
 20
403.3333333333333
 30
0.0
 11
207.4666666666665
 21
403.3333333333333
 31
0.0
  0
LINE
  5
1E9
330
17
100
AcDbEntity
  8
M-ARCH-HIDDEN
100
AcDbLine
 10
206.0666666666665
 20
403.3333333333333
 30
0.0
 11
204.0666666666665
 21
403.3333333333333
 31
0.0
  0
LINE
  5
1EA
330
17
100
AcDbEntity
  8
M-ARCH-HIDDEN
100
AcDbLine
 10
202.6666666666665
 20
403.3333333333333
 30
0.0
 11
200.6666666666665
 21
403.3333333333333
 31
0.0
  0
LINE
  5
1EB
330
17
100
AcDbEntity
  8
M-ARCH-HIDDEN
100
AcDbLine
 10
199.26666666666648
 20
403.3333333333333
 30
0.0
 11
197.26666666666648
 21
403.3333333333333
 31
0.0
  0
LINE
  5
1EC
330
17
100
AcDbEntity
  8
M-ARCH-HIDDEN
100
AcDbLine
 10
195.86666666666648
 20
403.3333333333333
 30
0.0
 11
193.86666666666648
 21
403.3333333333333
 31
0.0
  0
LINE
  5
1ED
330
17
100
AcDbEntity
  8
M-ARCH-HIDDEN
100
AcDbLine
 10
192.46666666666647
 20
403.3333333333333
 30
0.0
 11
190.46666666666647
 21
403.3333333333333
 31
0.0
  0
LINE
  5
1EE
330
17
100
AcDbEntity
  8
M-ARCH-HIDDEN
100
AcDbLine
 10
189.06666666666646
 20
403.3333333333333
 30
0.0
 11
187.06666666666646
 21
403.3333333333333
 31
0.0
  0
LINE
  5
1EF
330
17
100
AcDbEntity
  8
M-ARCH-HIDDEN
100
AcDbLine
 10
185.66666666666646
 20
403.3333333333333
 30
0.0
 11
183.66666666666646
 21
403.3333333333333
 31
0.0
  0
LINE
  5
1F0
330
17
100
AcDbEntity
  8
M-ARCH-HIDDEN
100
AcDbLine
 10
182.26666666666645
 20
403.3333333333333
 30
0.0
 11
180.26666666666645
 21
403.3333333333333
 31
0.0
  0
LINE
  5
1F1
330
17
100
AcDbEntity
  8
M-ARCH-HIDDEN
100
AcDbLine
 10
178.86666666666645
 20
403.3333333333333
 30
0.0
 11
176.86666666666645
 21
403.3333333333333
 31
0.0
  0
LINE
  5
1F2
330
17
100
AcDbEntity
  8
M-ARCH-HIDDEN
100
AcDbLine
 10
175.46666666666644
 20
403.3333333333333
 30
0.0
 11
173.46666666666644
 21
403.3333333333333
 31
0.0
  0
LINE
  5
1F3
330
17
100
AcDbEntity
  8
M-ARCH-HIDDEN
100
AcDbLine
 10
172.06666666666644
 20
403.3333333333333
 30
0.0
 11
170.06666666666644
 21
403.3333333333333
 31
0.0
  0
LINE
  5
1F4
330
17
100
AcDbEntity
  8
M-ARCH-HIDDEN
100
AcDbLine
 10
168.66666666666643
 20
403.3333333333333
 30
0.0
 11
166.66666666666643
 21
403.3333333333333
 31
0.0
  0
LINE
  5
1F5
330
17
100
AcDbEntity
  8
M-ARCH-HIDDEN
100
AcDbLine
 10
165.26666666666642
 20
403.3333333333333
 30
0.0
 11
163.26666666666642
 21
403.3333333333333
 31
0.0
  0
LINE
  5
1F6
330
17
100
AcDbEntity
  8
M-ARCH-HIDDEN
100
AcDbLine
 10
161.86666666666642
 20
403.3333333333333
 30
0.0
 11
159.86666666666642
 21
403.3333333333333
 31
0.0
  0
LINE
  5
1F7
330
17
100
AcDbEntity
  8
M-ARCH-HIDDEN
100
AcDbLine
 10
158.4666666666664
 20
403.3333333333333
 30
0.0
 11
156.4666666666664
 21
403.3333333333333
 31
0.0
  0
LINE
  5
1F8
330
17
100
AcDbEntity
  8
M-ARCH-HIDDEN
100
AcDbLine
 10
155.0666666666664
 20
403.3333333333333
 30
0.0
 11
153.0666666666664
 21
403.3333333333333
 31
0.0
  0
LINE
  5
1F9
330
17
100
AcDbEntity
  8
M-ARCH-HIDDEN
100
AcDbLine
 10
151.6666666666664
 20
403.3333333333333
 30
0.0
 11
149.6666666666664
 21
403.3333333333333
 31
0.0
  0
LINE
  5
1FA
330
17
100
AcDbEntity
  8
M-ARCH-HIDDEN
100
AcDbLine
 10
148.26666666666642
 20
403.3333333333333
 30
0.0
 11
146.26666666666642
 21
403.3333333333333
 31
0.0
  0
LINE
  5
1FB
330
17
100
AcDbEntity
  8
M-ARCH-HIDDEN
100
AcDbLine
 10
144.86666666666645
 20
403.3333333333333
 30
0.0
 11
142.86666666666645
 21
403.3333333333333
 31
0.0
  0
LINE
  5
1FC
330
17
100
AcDbEntity
  8
M-ARCH-HIDDEN
100
AcDbLine
 10
141.46666666666647
 20
403.3333333333333
 30
0.0
 11
139.46666666666647
 21
403.3333333333333
 31
0.0
  0
LINE
  5
1FD
330
17
100
AcDbEntity
  8
M-ARCH-HIDDEN
100
AcDbLine
 10
138.0666666666665
 20
403.3333333333333
 30
0.0
 11
136.0666666666665
 21
403.3333333333333
 31
0.0
  0
LINE
  5
1FE
330
17
100
AcDbEntity
  8
M-ARCH-HIDDEN
100
AcDbLine
 10
134.66666666666652
 20
403.3333333333333
 30
0.0
 11
132.66666666666652
 21
403.3333333333333
 31
0.0
  0
LINE
  5
1FF
330
17
100
AcDbEntity
  8
M-ARCH-HIDDEN
100
AcDbLine
 10
131.26666666666654
 20
403.3333333333333
 30
0.0
 11
129.26666666666654
 21
403.3333333333333
 31
0.0
  0
LINE
  5
200
330
17
100
AcDbEntity
  8
M-ARCH-HIDDEN
100
AcDbLine
 10
127.86666666666656
 20
403.3333333333333
 30
0.0
 11
125.86666666666656
 21
403.3333333333333
 31
0.0
  0
LINE
  5
201
330
17
100
AcDbEntity
  8
M-ARCH-HIDDEN
100
AcDbLine
 10
124.46666666666658
 20
403.3333333333333
 30
0.0
 11
122.46666666666658
 21
403.3333333333333
 31
0.0
  0
LINE
  5
202
330
17
100
AcDbEntity
  8
M-ARCH-HIDDEN
100
AcDbLine
 10
121.0666666666666
 20
403.3333333333333
 30
0.0
 11
119.0666666666666
 21
403.3333333333333
 31
0.0
  0
LINE
  5
203
330
17
100
AcDbEntity
  8
M-ARCH-HIDDEN
100
AcDbLine
 10
117.66666666666663
 20
403.3333333333333
 30
0.0
 11
115.66666666666663
 21
403.3333333333333
 31
0.0
  0
LINE
  5
204
330
17
100
AcDbEntity
  8
M-ARCH-HIDDEN
100
AcDbLine
 10
114.26666666666665
 20
403.3333333333333
 30
0.0
 11
112.26666666666665
 21
403.3333333333333
 31
0.0
  0
LINE
  5
205
330
17
100
AcDbEntity
  8
M-ARCH-HIDDEN
100
AcDbLine
 10
110.86666666666667
 20
403.3333333333333
 30
0.0
 11
108.86666666666667
 21
403.3333333333333
 31
0.0
  0
LINE
  5
206
330
17
100
AcDbEntity
  8
M-ARCH-HIDDEN
100
AcDbLine
 10
107.4666666666667
 20
403.3333333333333
 30
0.0
 11
105.4666666666667
 21
403.3333333333333
 31
0.0
  0
LINE
  5
207
330
17
100
AcDbEntity
  8
M-ARCH-HIDDEN
100
AcDbLine
 10
104.06666666666672
 20
403.3333333333333
 30
0.0
 11
102.06666666666672
 21
403.3333333333333
 31
0.0
  0
LINE
  5
208
330
17
100
AcDbEntity
  8
M-ARCH-HIDDEN
100
AcDbLine
 10
100.66666666666674
 20
403.3333333333333
 30
0.0
 11
98.66666666666674
 21
403.3333333333333
 31
0.0
  0
LINE
  5
209
330
17
100
AcDbEntity
  8
M-ARCH-HIDDEN
100
AcDbLine
 10
97.26666666666677
 20
403.3333333333333
 30
0.0
 11
95.26666666666677
 21
403.3333333333333
 31
0.0
  0
LINE
  5
20A
330
17
100
AcDbEntity
  8
M-ARCH-HIDDEN
100
AcDbLine
 10
93.86666666666679
 20
403.3333333333333
 30
0.0
 11
91.86666666666679
 21
403.3333333333333
 31
0.0
  0
LINE
  5
20B
330
17
100
AcDbEntity
  8
M-ARCH-HIDDEN
100
AcDbLine
 10
90.46666666666681
 20
403.3333333333333
 30
0.0
 11
88.46666666666681
 21
403.3333333333333
 31
0.0
  0
LINE
  5
20C
330
17
100
AcDbEntity
  8
M-ARCH-HIDDEN
100
AcDbLine
 10
87.06666666666683
 20
403.3333333333333
 30
0.0
 11
85.06666666666683
 21
403.3333333333333
 31
0.0
  0
LINE
  5
20D
330
17
100
AcDbEntity
  8
M-ARCH-HIDDEN
100
AcDbLine
 10
83.66666666666686
 20
403.3333333333333
 30
0.0
 11
81.66666666666686
 21
403.3333333333333
 31
0.0
  0
LINE
  5
20E
330
17
100
AcDbEntity
  8
M-ARCH-HIDDEN
100
AcDbLine
 10
80.26666666666688
 20
403.3333333333333
 30
0.0
 11
78.26666666666688
 21
403.3333333333333
 31
0.0
  0
LINE
  5
20F
330
17
100
AcDbEntity
  8
M-ARCH-HIDDEN
100
AcDbLine
 10
76.8666666666669
 20
403.3333333333333
 30
0.0
 11
74.8666666666669
 21
403.3333333333333
 31
0.0
  0
LINE
  5
210
330
17
100
AcDbEntity
  8
M-ARCH-HIDDEN
100
AcDbLine
 10
73.46666666666692
 20
403.3333333333333
 30
0.0
 11
71.46666666666692
 21
403.3333333333333
 31
0.0
  0
LINE
  5
211
330
17
100
AcDbEntity
  8
M-ARCH-HIDDEN
100
AcDbLine
 10
70.06666666666695
 20
403.3333333333333
 30
0.0
 11
68.06666666666695
 21
403.3333333333333
 31
0.0
  0
LINE
  5
212
330
17
100
AcDbEntity
  8
M-ARCH-HIDDEN
100
AcDbLine
 10
66.66666666666697
 20
403.3333333333333
 30
0.0
 11
64.66666666666697
 21
403.3333333333333
 31
0.0
  0
LINE
  5
213
330
17
100
AcDbEntity
  8
M-ARCH-HIDDEN
100
AcDbLine
 10
63.26666666666699
 20
403.3333333333333
 30
0.0
 11
61.26666666666699
 21
403.3333333333333
 31
0.0
  0
LINE
  5
214
330
17
100
AcDbEntity
  8
M-ARCH-HIDDEN
100
AcDbLine
 10
59.866666666667015
 20
403.3333333333333
 30
0.0
 11
57.866666666667015
 21
403.3333333333333
 31
0.0
  0
LINE
  5
215
330
17
100
AcDbEntity
  8
M-ARCH-HIDDEN
100
AcDbLine
 10
56.46666666666704
 20
403.3333333333333
 30
0.0
 11
54.46666666666704
 21
403.3333333333333
 31
0.0
  0
LINE
  5
216
330
17
100
AcDbEntity
  8
M-ARCH-HIDDEN
100
AcDbLine
 10
53.06666666666706
 20
403.3333333333333
 30
0.0
 11
51.06666666666706
 21
403.3333333333333
 31
0.0
  0
LINE
  5
217
330
17
100
AcDbEntity
  8
M-ARCH-HIDDEN
100
AcDbLine
 10
49.66666666666708
 20
403.3333333333333
 30
0.0
 11
47.66666666666708
 21
403.3333333333333
 31
0.0
  0
LINE
  5
218
330
17
100
AcDbEntity
  8
M-ARCH-HIDDEN
100
AcDbLine
 10
46.266666666667106
 20
403.3333333333333
 30
0.0
 11
44.266666666667106
 21
403.3333333333333
 31
0.0
  0
LINE
  5
219
330
17
100
AcDbEntity
  8
M-ARCH-HIDDEN
100
AcDbLine
 10
42.86666666666713
 20
403.3333333333333
 30
0.0
 11
40.86666666666713
 21
403.3333333333333
 31
0.0
  0
LINE
  5
21A
330
17
100
AcDbEntity
  8
M-ARCH-HIDDEN
100
AcDbLine
 10
40.0
 20
403.3333333333333
 30
0.0
 11
40.0
 21
401.3333333333333
 31
0.0
  0
LINE
  5
21B
330
17
100
AcDbEntity
  8
M-ARCH-HIDDEN
100
AcDbLine
 10
40.0
 20
399.93333333333334
 30
0.0
 11
40.0
 21
397.93333333333334
 31
0.0
  0
LINE
  5
21C
330
17
100
AcDbEntity
  8
M-ARCH-HIDDEN
100
AcDbLine
 10
40.0
 20
396.5333333333333
 30
0.0
 11
40.0
 21
394.5333333333333
 31
0.0
  0
LINE
  5
21D
330
17
100
AcDbEntity
  8
M-ARCH-HIDDEN
100
AcDbLine
 10
40.0
 20
393.1333333333333
 30
0.0
 11
40.0
 21
391.1333333333333
 31
0.0
  0
LINE
  5
21E
330
17
100
AcDbEntity
  8
M-ARCH-HIDDEN
100
AcDbLine
 10
40.0
 20
389.7333333333333
 30
0.0
 11
40.0
 21
387.7333333333333
 31
0.0
  0
LINE
  5
21F
330
17
100
AcDbEntity
  8
M-ARCH-HIDDEN
100
AcDbLine
 10
40.0
 20
386.3333333333333
 30
0.0
 11
40.0
 21
384.3333333333333
 31
0.0
  0
LINE
  5
220
330
17
100
AcDbEntity
  8
M-ARCH-HIDDEN
100
AcDbLine
 10
40.0
 20
382.93333333333334
 30
0.0
 11
40.0
 21
380.93333333333334
 31
0.0
  0
LINE
  5
221
330
17
100
AcDbEntity
  8
M-ARCH-HIDDEN
100
AcDbLine
 10
40.0
 20
379.5333333333333
 30
0.0
 11
40.0
 21
377.5333333333333
 31
0.0
  0
LINE
  5
222
330
17
100
AcDbEntity
  8
M-ARCH-HIDDEN
100
AcDbLine
 10
40.0
 20
376.1333333333333
 30
0.0
 11
40.0
 21
374.1333333333333
 31
0.0
  0
LINE
  5
223
330
17
100
AcDbEntity
  8
M-ARCH-HIDDEN
100
AcDbLine
 10
40.0
 20
372.73333333333335
 30
0.0
 11
40.0
 21
370.73333333333335
 31
0.0
  0
LINE
  5
224
330
17
100
AcDbEntity
  8
M-ARCH-HIDDEN
100
AcDbLine
 10
40.0
 20
369.3333333333333
 30
0.0
 11
40.0
 21
367.3333333333333
 31
0.0
  0
LINE
  5
225
330
17
100
AcDbEntity
  8
M-ARCH-HIDDEN
100
AcDbLine
 10
40.0
 20
365.93333333333334
 30
0.0
 11
40.0
 21
363.93333333333334
 31
0.0
  0
LINE
  5
226
330
17
100
AcDbEntity
  8
M-ARCH-HIDDEN
100
AcDbLine
 10
40.0
 20
362.5333333333333
 30
0.0
 11
40.0
 21
360.5333333333333
 31
0.0
  0
LINE
  5
227
330
17
100
AcDbEntity
  8
M-ARCH-HIDDEN
100
AcDbLine
 10
40.0
 20
359.1333333333333
 30
0.0
 11
40.0
 21
357.1333333333333
 31
0.0
  0
LINE
  5
228
330
17
100
AcDbEntity
  8
M-ARCH-HIDDEN
100
AcDbLine
 10
40.0
 20
355.73333333333335
 30
0.0
 11
40.0
 21
353.73333333333335
 31
0.0
  0
LINE
  5
229
330
17
100
AcDbEntity
  8
M-ARCH-HIDDEN
100
AcDbLine
 10
40.0
 20
352.3333333333333
 30
0.0
 11
40.0
 21
350.3333333333333
 31
0.0
  0
LINE
  5
22A
330
17
100
AcDbEntity
  8
M-ARCH-HIDDEN
100
AcDbLine
 10
40.0
 20
348.93333333333334
 30
0.0
 11
40.0
 21
346.93333333333334
 31
0.0
  0
LINE
  5
22B
330
17
100
AcDbEntity
  8
M-ARCH-HIDDEN
100
AcDbLine
 10
40.0
 20
345.5333333333333
 30
0.0
 11
40.0
 21
343.5333333333333
 31
0.0
  0
LINE
  5
22C
330
17
100
AcDbEntity
  8
M-ARCH-HIDDEN
100
AcDbLine
 10
40.0
 20
342.1333333333333
 30
0.0
 11
40.0
 21
340.1333333333333
 31
0.0
  0
LINE
  5
22D
330
17
100
AcDbEntity
  8
M-ARCH-HIDDEN
100
AcDbLine
 10
40.0
 20
338.73333333333335
 30
0.0
 11
40.0
 21
336.73333333333335
 31
0.0
  0
LINE
  5
22E
330
17
100
AcDbEntity
  8
M-ARCH-HIDDEN
100
AcDbLine
 10
40.0
 20
335.3333333333333
 30
0.0
 11
40.0
 21
333.3333333333333
 31
0.0
  0
LINE
  5
22F
330
17
100
AcDbEntity
  8
M-ARCH-HIDDEN
100
AcDbLine
 10
40.0
 20
331.93333333333334
 30
0.0
 11
40.0
 21
329.93333333333334
 31
0.0
  0
LINE
  5
230
330
17
100
AcDbEntity
  8
M-ARCH-HIDDEN
100
AcDbLine
 10
40.0
 20
328.5333333333333
 30
0.0
 11
40.0
 21
326.5333333333333
 31
0.0
  0
LINE
  5
231
330
17
100
AcDbEntity
  8
M-ARCH-HIDDEN
100
AcDbLine
 10
40.0
 20
325.1333333333333
 30
0.0
 11
40.0
 21
323.1333333333333
 31
0.0
  0
LINE
  5
232
330
17
100
AcDbEntity
  8
M-ARCH-HIDDEN
100
AcDbLine
 10
40.0
 20
321.7333333333333
 30
0.0
 11
40.0
 21
319.7333333333333
 31
0.0
  0
LINE
  5
233
330
17
100
AcDbEntity
  8
M-ARCH-HIDDEN
100
AcDbLine
 10
40.0
 20
318.3333333333333
 30
0.0
 11
40.0
 21
316.3333333333333
 31
0.0
  0
LINE
  5
234
330
17
100
AcDbEntity
  8
M-ARCH-HIDDEN
100
AcDbLine
 10
40.0
 20
314.9333333333333
 30
0.0
 11
40.0
 21
312.9333333333333
 31
0.0
  0
LINE
  5
235
330
17
100
AcDbEntity
  8
M-ARCH-HIDDEN
100
AcDbLine
 10
40.0
 20
311.5333333333333
 30
0.0
 11
40.0
 21
309.5333333333333
 31
0.0
  0
LINE
  5
236
330
17
100
AcDbEntity
  8
M-ARCH-HIDDEN
100
AcDbLine
 10
40.0
 20
308.13333333333327
 30
0.0
 11
40.0
 21
306.13333333333327
 31
0.0
  0
LINE
  5
237
330
17
100
AcDbEntity
  8
M-ARCH-HIDDEN
100
AcDbLine
 10
40.0
 20
304.7333333333333
 30
0.0
 11
40.0
 21
302.7333333333333
 31
0.0
  0
LINE
  5
238
330
17
100
AcDbEntity
  8
M-ARCH-HIDDEN
100
AcDbLine
 10
40.0
 20
301.33333333333326
 30
0.0
 11
40.0
 21
300.0
 31
0.0
  0
LWPOLYLINE
  5
239
330
17
100
AcDbEntity
  8
M-STRUCT
100
AcDbPolyline
 90
4
 70
1
 10
266.66666666666663
 20
303.3333333333333
 10
346.6666666666667
 20
303.3333333333333
 10
346.6666666666667
 20
400.0
 10
266.66666666666663
 20
400.0
  0
LWPOLYLINE
  5
23A
330
17
100
AcDbEntity
  8
M-STRUCT
100
AcDbPolyline
 90
4
 70
1
 10
273.33333333333337
 20
310.0
 10
340.0
 20
310.0
 10
340.0
 20
393.3333333333333
 10
273.33333333333337
 20
393.3333333333333
  0
LWPOLYLINE
  5
23B
330
17
100
AcDbEntity
  8
M-STRUCT
100
AcDbPolyline
 90
4
 70
1
 10
194.16666666666666
 20
395.8333333333333
 10
307.5
 20
395.8333333333333
 10
307.5
 20
429.16666666666663
 10
194.16666666666666
 20
429.16666666666663
  0
LWPOLYLINE
  5
23C
330
17
100
AcDbEntity
  8
M-STRUCT
100
AcDbPolyline
 90
4
 70
1
 10
198.33333333333334
 20
400.0
 10
303.3333333333333
 20
400.0
 10
303.3333333333333
 20
425.0
 10
198.33333333333334
 20
425.0
  0
LINE
  5
23D
330
17
100
AcDbEntity
  8
M-ARCH
100
AcDbLine
 10
228.33333333333334
 20
400.0
 30
0.0
 11
228.33333333333334
 21
425.0
 31
0.0
  0
LINE
  5
23E
330
17
100
AcDbEntity
  8
M-ARCH
100
AcDbLine
 10
233.33333333333334
 20
400.0
 30
0.0
 11
233.33333333333334
 21
425.0
 31
0.0
  0
LINE
  5
23F
330
17
100
AcDbEntity
  8
M-ARCH
100
AcDbLine
 10
238.33333333333334
 20
400.0
 30
0.0
 11
238.33333333333334
 21
425.0
 31
0.0
  0
LINE
  5
240
330
17
100
AcDbEntity
  8
M-ARCH
100
AcDbLine
 10
243.33333333333334
 20
400.0
 30
0.0
 11
243.33333333333334
 21
425.0
 31
0.0
  0
LINE
  5
241
330
17
100
AcDbEntity
  8
M-ARCH
100
AcDbLine
 10
248.33333333333334
 20
400.0
 30
0.0
 11
248.33333333333334
 21
425.0
 31
0.0
  0
LINE
  5
242
330
17
100
AcDbEntity
  8
M-ARCH
100
AcDbLine
 10
253.33333333333334
 20
400.0
 30
0.0
 11
253.33333333333334
 21
425.0
 31
0.0
  0
LINE
  5
243
330
17
100
AcDbEntity
  8
M-ARCH
100
AcDbLine
 10
258.33333333333337
 20
400.0
 30
0.0
 11
258.33333333333337
 21
425.0
 31
0.0
  0
LINE
  5
244
330
17
100
AcDbEntity
  8
M-ARCH
100
AcDbLine
 10
263.33333333333337
 20
400.0
 30
0.0
 11
263.33333333333337
 21
425.0
 31
0.0
  0
LINE
  5
245
330
17
100
AcDbEntity
  8
M-ARCH
100
AcDbLine
 10
268.33333333333337
 20
400.0
 30
0.0
 11
268.33333333333337
 21
425.0
 31
0.0
  0
LINE
  5
246
330
17
100
AcDbEntity
  8
M-ARCH
100
AcDbLine
 10
273.33333333333337
 20
400.0
 30
0.0
 11
273.33333333333337
 21
425.0
 31
0.0
  0
LINE
  5
247
330
17
100
AcDbEntity
  8
M-ARCH
100
AcDbLine
 10
223.33333333333334
 20
400.0
 30
0.0
 11
223.33333333333334
 21
425.0
 31
0.0
  0
LINE
  5
248
330
17
100
AcDbEntity
  8
M-ARCH
100
AcDbLine
 10
278.33333333333337
 20
400.0
 30
0.0
 11
278.33333333333337
 21
425.0
 31
0.0
  0
LWPOLYLINE
  5
249
330
17
100
AcDbEntity
  8
M-FLAG
100
AcDbPolyline
 90
4
 70
1
 10
194.16666666666666
 20
404.1666666666667
 10
198.33333333333334
 20
404.1666666666667
 10
198.33333333333334
 20
420.8333333333333
 10
194.16666666666666
 20
420.8333333333333
  0
LWPOLYLINE
  5
24A
330
17
100
AcDbEntity
  8
M-FLAG
100
AcDbPolyline
 90
4
 70
1
 10
280.83333333333337
 20
393.3333333333333
 10
295.83333333333337
 20
393.3333333333333
 10
295.83333333333337
 20
400.0
 10
280.83333333333337
 20
400.0
  0
LWPOLYLINE
  5
24B
330
17
100
AcDbEntity
  8
P-DRAIN-STORM
100
AcDbPolyline
 90
4
 70
1
 10
189.16666666666666
 20
400.0
 10
194.16666666666666
 20
400.0
 10
194.16666666666666
 20
425.0
 10
189.16666666666666
 20
425.0
  0
LINE
  5
24C
330
17
100
AcDbEntity
  8
M-EXISTING
100
AcDbLine
 10
171.66666666666666
 20
373.3333333333333
 30
0.0
 11
173.66666666666666
 21
373.3333333333333
 31
0.0
  0
LINE
  5
24D
330
17
100
AcDbEntity
  8
M-EXISTING
100
AcDbLine
 10
175.06666666666666
 20
373.3333333333333
 30
0.0
 11
177.06666666666666
 21
373.3333333333333
 31
0.0
  0
LINE
  5
24E
330
17
100
AcDbEntity
  8
M-EXISTING
100
AcDbLine
 10
178.46666666666667
 20
373.3333333333333
 30
0.0
 11
180.46666666666667
 21
373.3333333333333
 31
0.0
  0
LINE
  5
24F
330
17
100
AcDbEntity
  8
M-EXISTING
100
AcDbLine
 10
181.86666666666665
 20
373.3333333333333
 30
0.0
 11
183.86666666666665
 21
373.3333333333333
 31
0.0
  0
LINE
  5
250
330
17
100
AcDbEntity
  8
M-EXISTING
100
AcDbLine
 10
185.26666666666665
 20
373.3333333333333
 30
0.0
 11
187.26666666666665
 21
373.3333333333333
 31
0.0
  0
LINE
  5
251
330
17
100
AcDbEntity
  8
M-EXISTING
100
AcDbLine
 10
188.66666666666666
 20
373.3333333333333
 30
0.0
 11
190.66666666666666
 21
373.3333333333333
 31
0.0
  0
LINE
  5
252
330
17
100
AcDbEntity
  8
M-EXISTING
100
AcDbLine
 10
192.06666666666666
 20
373.3333333333333
 30
0.0
 11
194.06666666666666
 21
373.3333333333333
 31
0.0
  0
LINE
  5
253
330
17
100
AcDbEntity
  8
M-EXISTING
100
AcDbLine
 10
195.46666666666664
 20
373.3333333333333
 30
0.0
 11
197.46666666666664
 21
373.3333333333333
 31
0.0
  0
LINE
  5
254
330
17
100
AcDbEntity
  8
M-EXISTING
100
AcDbLine
 10
198.86666666666665
 20
373.3333333333333
 30
0.0
 11
200.86666666666665
 21
373.3333333333333
 31
0.0
  0
LINE
  5
255
330
17
100
AcDbEntity
  8
M-EXISTING
100
AcDbLine
 10
202.26666666666665
 20
373.3333333333333
 30
0.0
 11
204.26666666666665
 21
373.3333333333333
 31
0.0
  0
LINE
  5
256
330
17
100
AcDbEntity
  8
M-EXISTING
100
AcDbLine
 10
205.66666666666666
 20
373.3333333333333
 30
0.0
 11
207.66666666666666
 21
373.3333333333333
 31
0.0
  0
LINE
  5
257
330
17
100
AcDbEntity
  8
M-EXISTING
100
AcDbLine
 10
209.06666666666666
 20
373.3333333333333
 30
0.0
 11
211.06666666666666
 21
373.3333333333333
 31
0.0
  0
LINE
  5
258
330
17
100
AcDbEntity
  8
M-EXISTING
100
AcDbLine
 10
212.46666666666664
 20
373.3333333333333
 30
0.0
 11
214.46666666666664
 21
373.3333333333333
 31
0.0
  0
LINE
  5
259
330
17
100
AcDbEntity
  8
M-EXISTING
100
AcDbLine
 10
215.86666666666665
 20
373.3333333333333
 30
0.0
 11
217.86666666666665
 21
373.3333333333333
 31
0.0
  0
LINE
  5
25A
330
17
100
AcDbEntity
  8
M-EXISTING
100
AcDbLine
 10
219.26666666666665
 20
373.3333333333333
 30
0.0
 11
221.26666666666665
 21
373.3333333333333
 31
0.0
  0
LINE
  5
25B
330
17
100
AcDbEntity
  8
M-EXISTING
100
AcDbLine
 10
222.66666666666663
 20
373.3333333333333
 30
0.0
 11
224.66666666666663
 21
373.3333333333333
 31
0.0
  0
LINE
  5
25C
330
17
100
AcDbEntity
  8
M-EXISTING
100
AcDbLine
 10
226.06666666666663
 20
373.3333333333333
 30
0.0
 11
228.06666666666663
 21
373.3333333333333
 31
0.0
  0
LINE
  5
25D
330
17
100
AcDbEntity
  8
M-EXISTING
100
AcDbLine
 10
229.46666666666664
 20
373.3333333333333
 30
0.0
 11
231.46666666666664
 21
373.3333333333333
 31
0.0
  0
LINE
  5
25E
330
17
100
AcDbEntity
  8
M-EXISTING
100
AcDbLine
 10
232.86666666666665
 20
373.3333333333333
 30
0.0
 11
234.86666666666665
 21
373.3333333333333
 31
0.0
  0
LINE
  5
25F
330
17
100
AcDbEntity
  8
M-EXISTING
100
AcDbLine
 10
236.26666666666665
 20
373.3333333333333
 30
0.0
 11
238.26666666666665
 21
373.3333333333333
 31
0.0
  0
LINE
  5
260
330
17
100
AcDbEntity
  8
M-EXISTING
100
AcDbLine
 10
239.66666666666663
 20
373.3333333333333
 30
0.0
 11
241.66666666666663
 21
373.3333333333333
 31
0.0
  0
LINE
  5
261
330
17
100
AcDbEntity
  8
M-EXISTING
100
AcDbLine
 10
243.06666666666666
 20
373.3333333333333
 30
0.0
 11
245.06666666666666
 21
373.3333333333333
 31
0.0
  0
LINE
  5
262
330
17
100
AcDbEntity
  8
M-EXISTING
100
AcDbLine
 10
246.46666666666664
 20
373.3333333333333
 30
0.0
 11
248.46666666666664
 21
373.3333333333333
 31
0.0
  0
LINE
  5
263
330
17
100
AcDbEntity
  8
M-EXISTING
100
AcDbLine
 10
249.86666666666667
 20
373.3333333333333
 30
0.0
 11
251.86666666666667
 21
373.3333333333333
 31
0.0
  0
LINE
  5
264
330
17
100
AcDbEntity
  8
M-EXISTING
100
AcDbLine
 10
253.26666666666665
 20
373.3333333333333
 30
0.0
 11
255.26666666666665
 21
373.3333333333333
 31
0.0
  0
LINE
  5
265
330
17
100
AcDbEntity
  8
M-EXISTING
100
AcDbLine
 10
256.6666666666667
 20
373.3333333333333
 30
0.0
 11
258.6666666666667
 21
373.3333333333333
 31
0.0
  0
LINE
  5
266
330
17
100
AcDbEntity
  8
M-EXISTING
100
AcDbLine
 10
260.06666666666666
 20
373.3333333333333
 30
0.0
 11
262.06666666666666
 21
373.3333333333333
 31
0.0
  0
LINE
  5
267
330
17
100
AcDbEntity
  8
M-EXISTING
100
AcDbLine
 10
263.4666666666667
 20
373.3333333333333
 30
0.0
 11
265.4666666666667
 21
373.3333333333333
 31
0.0
  0
LINE
  5
268
330
17
100
AcDbEntity
  8
M-EXISTING
100
AcDbLine
 10
266.8666666666667
 20
373.3333333333333
 30
0.0
 11
268.8666666666667
 21
373.3333333333333
 31
0.0
  0
LINE
  5
269
330
17
100
AcDbEntity
  8
M-EXISTING
100
AcDbLine
 10
270.2666666666667
 20
373.3333333333333
 30
0.0
 11
272.2666666666667
 21
373.3333333333333
 31
0.0
  0
LINE
  5
26A
330
17
100
AcDbEntity
  8
M-EXISTING
100
AcDbLine
 10
273.6666666666667
 20
373.3333333333333
 30
0.0
 11
275.6666666666667
 21
373.3333333333333
 31
0.0
  0
LINE
  5
26B
330
17
100
AcDbEntity
  8
M-EXISTING
100
AcDbLine
 10
277.0666666666667
 20
373.3333333333333
 30
0.0
 11
279.0666666666667
 21
373.3333333333333
 31
0.0
  0
LINE
  5
26C
330
17
100
AcDbEntity
  8
M-EXISTING
100
AcDbLine
 10
280.4666666666667
 20
373.3333333333333
 30
0.0
 11
282.4666666666667
 21
373.3333333333333
 31
0.0
  0
LINE
  5
26D
330
17
100
AcDbEntity
  8
M-EXISTING
100
AcDbLine
 10
283.86666666666673
 20
373.3333333333333
 30
0.0
 11
285.86666666666673
 21
373.3333333333333
 31
0.0
  0
LINE
  5
26E
330
17
100
AcDbEntity
  8
M-EXISTING
100
AcDbLine
 10
287.2666666666667
 20
373.3333333333333
 30
0.0
 11
289.2666666666667
 21
373.3333333333333
 31
0.0
  0
LINE
  5
26F
330
17
100
AcDbEntity
  8
M-EXISTING
100
AcDbLine
 10
290.66666666666674
 20
373.3333333333333
 30
0.0
 11
292.66666666666674
 21
373.3333333333333
 31
0.0
  0
LINE
  5
270
330
17
100
AcDbEntity
  8
M-EXISTING
100
AcDbLine
 10
294.0666666666667
 20
373.3333333333333
 30
0.0
 11
296.0666666666667
 21
373.3333333333333
 31
0.0
  0
LINE
  5
271
330
17
100
AcDbEntity
  8
M-EXISTING
100
AcDbLine
 10
297.46666666666675
 20
373.3333333333333
 30
0.0
 11
299.46666666666675
 21
373.3333333333333
 31
0.0
  0
LINE
  5
272
330
17
100
AcDbEntity
  8
M-EXISTING
100
AcDbLine
 10
300.86666666666673
 20
373.3333333333333
 30
0.0
 11
302.86666666666673
 21
373.3333333333333
 31
0.0
  0
LINE
  5
273
330
17
100
AcDbEntity
  8
M-EXISTING
100
AcDbLine
 10
304.26666666666677
 20
373.3333333333333
 30
0.0
 11
306.26666666666677
 21
373.3333333333333
 31
0.0
  0
LINE
  5
274
330
17
100
AcDbEntity
  8
M-EXISTING
100
AcDbLine
 10
307.66666666666674
 20
373.3333333333333
 30
0.0
 11
309.66666666666674
 21
373.3333333333333
 31
0.0
  0
LINE
  5
275
330
17
100
AcDbEntity
  8
M-EXISTING
100
AcDbLine
 10
311.0666666666667
 20
373.3333333333333
 30
0.0
 11
313.0666666666667
 21
373.3333333333333
 31
0.0
  0
LINE
  5
276
330
17
100
AcDbEntity
  8
M-EXISTING
100
AcDbLine
 10
314.46666666666675
 20
373.3333333333333
 30
0.0
 11
316.46666666666675
 21
373.3333333333333
 31
0.0
  0
LINE
  5
277
330
17
100
AcDbEntity
  8
M-EXISTING
100
AcDbLine
 10
317.8666666666668
 20
373.3333333333333
 30
0.0
 11
319.8666666666668
 21
373.3333333333333
 31
0.0
  0
LINE
  5
278
330
17
100
AcDbEntity
  8
M-EXISTING
100
AcDbLine
 10
321.26666666666677
 20
373.3333333333333
 30
0.0
 11
323.26666666666677
 21
373.3333333333333
 31
0.0
  0
LINE
  5
279
330
17
100
AcDbEntity
  8
M-EXISTING
100
AcDbLine
 10
324.66666666666674
 20
373.3333333333333
 30
0.0
 11
326.66666666666674
 21
373.3333333333333
 31
0.0
  0
LINE
  5
27A
330
17
100
AcDbEntity
  8
M-EXISTING
100
AcDbLine
 10
328.0666666666668
 20
373.3333333333333
 30
0.0
 11
330.0
 21
373.3333333333333
 31
0.0
  0
LINE
  5
27B
330
17
100
AcDbEntity
  8
M-EXISTING
100
AcDbLine
 10
171.66666666666666
 20
451.66666666666663
 30
0.0
 11
173.66666666666666
 21
451.66666666666663
 31
0.0
  0
LINE
  5
27C
330
17
100
AcDbEntity
  8
M-EXISTING
100
AcDbLine
 10
175.06666666666666
 20
451.66666666666663
 30
0.0
 11
177.06666666666666
 21
451.66666666666663
 31
0.0
  0
LINE
  5
27D
330
17
100
AcDbEntity
  8
M-EXISTING
100
AcDbLine
 10
178.46666666666667
 20
451.66666666666663
 30
0.0
 11
180.46666666666667
 21
451.66666666666663
 31
0.0
  0
LINE
  5
27E
330
17
100
AcDbEntity
  8
M-EXISTING
100
AcDbLine
 10
181.86666666666665
 20
451.66666666666663
 30
0.0
 11
183.86666666666665
 21
451.66666666666663
 31
0.0
  0
LINE
  5
27F
330
17
100
AcDbEntity
  8
M-EXISTING
100
AcDbLine
 10
185.26666666666665
 20
451.66666666666663
 30
0.0
 11
187.26666666666665
 21
451.66666666666663
 31
0.0
  0
LINE
  5
280
330
17
100
AcDbEntity
  8
M-EXISTING
100
AcDbLine
 10
188.66666666666666
 20
451.66666666666663
 30
0.0
 11
190.66666666666666
 21
451.66666666666663
 31
0.0
  0
LINE
  5
281
330
17
100
AcDbEntity
  8
M-EXISTING
100
AcDbLine
 10
192.06666666666666
 20
451.66666666666663
 30
0.0
 11
194.06666666666666
 21
451.66666666666663
 31
0.0
  0
LINE
  5
282
330
17
100
AcDbEntity
  8
M-EXISTING
100
AcDbLine
 10
195.46666666666664
 20
451.66666666666663
 30
0.0
 11
197.46666666666664
 21
451.66666666666663
 31
0.0
  0
LINE
  5
283
330
17
100
AcDbEntity
  8
M-EXISTING
100
AcDbLine
 10
198.86666666666665
 20
451.66666666666663
 30
0.0
 11
200.86666666666665
 21
451.66666666666663
 31
0.0
  0
LINE
  5
284
330
17
100
AcDbEntity
  8
M-EXISTING
100
AcDbLine
 10
202.26666666666665
 20
451.66666666666663
 30
0.0
 11
204.26666666666665
 21
451.66666666666663
 31
0.0
  0
LINE
  5
285
330
17
100
AcDbEntity
  8
M-EXISTING
100
AcDbLine
 10
205.66666666666666
 20
451.66666666666663
 30
0.0
 11
207.66666666666666
 21
451.66666666666663
 31
0.0
  0
LINE
  5
286
330
17
100
AcDbEntity
  8
M-EXISTING
100
AcDbLine
 10
209.06666666666666
 20
451.66666666666663
 30
0.0
 11
211.06666666666666
 21
451.66666666666663
 31
0.0
  0
LINE
  5
287
330
17
100
AcDbEntity
  8
M-EXISTING
100
AcDbLine
 10
212.46666666666664
 20
451.66666666666663
 30
0.0
 11
214.46666666666664
 21
451.66666666666663
 31
0.0
  0
LINE
  5
288
330
17
100
AcDbEntity
  8
M-EXISTING
100
AcDbLine
 10
215.86666666666665
 20
451.66666666666663
 30
0.0
 11
217.86666666666665
 21
451.66666666666663
 31
0.0
  0
LINE
  5
289
330
17
100
AcDbEntity
  8
M-EXISTING
100
AcDbLine
 10
219.26666666666665
 20
451.66666666666663
 30
0.0
 11
221.26666666666665
 21
451.66666666666663
 31
0.0
  0
LINE
  5
28A
330
17
100
AcDbEntity
  8
M-EXISTING
100
AcDbLine
 10
222.66666666666663
 20
451.66666666666663
 30
0.0
 11
224.66666666666663
 21
451.66666666666663
 31
0.0
  0
LINE
  5
28B
330
17
100
AcDbEntity
  8
M-EXISTING
100
AcDbLine
 10
226.06666666666663
 20
451.66666666666663
 30
0.0
 11
228.06666666666663
 21
451.66666666666663
 31
0.0
  0
LINE
  5
28C
330
17
100
AcDbEntity
  8
M-EXISTING
100
AcDbLine
 10
229.46666666666664
 20
451.66666666666663
 30
0.0
 11
231.46666666666664
 21
451.66666666666663
 31
0.0
  0
LINE
  5
28D
330
17
100
AcDbEntity
  8
M-EXISTING
100
AcDbLine
 10
232.86666666666665
 20
451.66666666666663
 30
0.0
 11
234.86666666666665
 21
451.66666666666663
 31
0.0
  0
LINE
  5
28E
330
17
100
AcDbEntity
  8
M-EXISTING
100
AcDbLine
 10
236.26666666666665
 20
451.66666666666663
 30
0.0
 11
238.26666666666665
 21
451.66666666666663
 31
0.0
  0
LINE
  5
28F
330
17
100
AcDbEntity
  8
M-EXISTING
100
AcDbLine
 10
239.66666666666663
 20
451.66666666666663
 30
0.0
 11
241.66666666666663
 21
451.66666666666663
 31
0.0
  0
LINE
  5
290
330
17
100
AcDbEntity
  8
M-EXISTING
100
AcDbLine
 10
243.06666666666666
 20
451.66666666666663
 30
0.0
 11
245.06666666666666
 21
451.66666666666663
 31
0.0
  0
LINE
  5
291
330
17
100
AcDbEntity
  8
M-EXISTING
100
AcDbLine
 10
246.46666666666664
 20
451.66666666666663
 30
0.0
 11
248.46666666666664
 21
451.66666666666663
 31
0.0
  0
LINE
  5
292
330
17
100
AcDbEntity
  8
M-EXISTING
100
AcDbLine
 10
249.86666666666667
 20
451.66666666666663
 30
0.0
 11
251.86666666666667
 21
451.66666666666663
 31
0.0
  0
LINE
  5
293
330
17
100
AcDbEntity
  8
M-EXISTING
100
AcDbLine
 10
253.26666666666665
 20
451.66666666666663
 30
0.0
 11
255.26666666666665
 21
451.66666666666663
 31
0.0
  0
LINE
  5
294
330
17
100
AcDbEntity
  8
M-EXISTING
100
AcDbLine
 10
256.6666666666667
 20
451.66666666666663
 30
0.0
 11
258.6666666666667
 21
451.66666666666663
 31
0.0
  0
LINE
  5
295
330
17
100
AcDbEntity
  8
M-EXISTING
100
AcDbLine
 10
260.06666666666666
 20
451.66666666666663
 30
0.0
 11
262.06666666666666
 21
451.66666666666663
 31
0.0
  0
LINE
  5
296
330
17
100
AcDbEntity
  8
M-EXISTING
100
AcDbLine
 10
263.4666666666667
 20
451.66666666666663
 30
0.0
 11
265.4666666666667
 21
451.66666666666663
 31
0.0
  0
LINE
  5
297
330
17
100
AcDbEntity
  8
M-EXISTING
100
AcDbLine
 10
266.8666666666667
 20
451.66666666666663
 30
0.0
 11
268.8666666666667
 21
451.66666666666663
 31
0.0
  0
LINE
  5
298
330
17
100
AcDbEntity
  8
M-EXISTING
100
AcDbLine
 10
270.2666666666667
 20
451.66666666666663
 30
0.0
 11
272.2666666666667
 21
451.66666666666663
 31
0.0
  0
LINE
  5
299
330
17
100
AcDbEntity
  8
M-EXISTING
100
AcDbLine
 10
273.6666666666667
 20
451.66666666666663
 30
0.0
 11
275.6666666666667
 21
451.66666666666663
 31
0.0
  0
LINE
  5
29A
330
17
100
AcDbEntity
  8
M-EXISTING
100
AcDbLine
 10
277.0666666666667
 20
451.66666666666663
 30
0.0
 11
279.0666666666667
 21
451.66666666666663
 31
0.0
  0
LINE
  5
29B
330
17
100
AcDbEntity
  8
M-EXISTING
100
AcDbLine
 10
280.4666666666667
 20
451.66666666666663
 30
0.0
 11
282.4666666666667
 21
451.66666666666663
 31
0.0
  0
LINE
  5
29C
330
17
100
AcDbEntity
  8
M-EXISTING
100
AcDbLine
 10
283.86666666666673
 20
451.66666666666663
 30
0.0
 11
285.86666666666673
 21
451.66666666666663
 31
0.0
  0
LINE
  5
29D
330
17
100
AcDbEntity
  8
M-EXISTING
100
AcDbLine
 10
287.2666666666667
 20
451.66666666666663
 30
0.0
 11
289.2666666666667
 21
451.66666666666663
 31
0.0
  0
LINE
  5
29E
330
17
100
AcDbEntity
  8
M-EXISTING
100
AcDbLine
 10
290.66666666666674
 20
451.66666666666663
 30
0.0
 11
292.66666666666674
 21
451.66666666666663
 31
0.0
  0
LINE
  5
29F
330
17
100
AcDbEntity
  8
M-EXISTING
100
AcDbLine
 10
294.0666666666667
 20
451.66666666666663
 30
0.0
 11
296.0666666666667
 21
451.66666666666663
 31
0.0
  0
LINE
  5
2A0
330
17
100
AcDbEntity
  8
M-EXISTING
100
AcDbLine
 10
297.46666666666675
 20
451.66666666666663
 30
0.0
 11
299.46666666666675
 21
451.66666666666663
 31
0.0
  0
LINE
  5
2A1
330
17
100
AcDbEntity
  8
M-EXISTING
100
AcDbLine
 10
300.86666666666673
 20
451.66666666666663
 30
0.0
 11
302.86666666666673
 21
451.66666666666663
 31
0.0
  0
LINE
  5
2A2
330
17
100
AcDbEntity
  8
M-EXISTING
100
AcDbLine
 10
304.26666666666677
 20
451.66666666666663
 30
0.0
 11
306.26666666666677
 21
451.66666666666663
 31
0.0
  0
LINE
  5
2A3
330
17
100
AcDbEntity
  8
M-EXISTING
100
AcDbLine
 10
307.66666666666674
 20
451.66666666666663
 30
0.0
 11
309.66666666666674
 21
451.66666666666663
 31
0.0
  0
LINE
  5
2A4
330
17
100
AcDbEntity
  8
M-EXISTING
100
AcDbLine
 10
311.0666666666667
 20
451.66666666666663
 30
0.0
 11
313.0666666666667
 21
451.66666666666663
 31
0.0
  0
LINE
  5
2A5
330
17
100
AcDbEntity
  8
M-EXISTING
100
AcDbLine
 10
314.46666666666675
 20
451.66666666666663
 30
0.0
 11
316.46666666666675
 21
451.66666666666663
 31
0.0
  0
LINE
  5
2A6
330
17
100
AcDbEntity
  8
M-EXISTING
100
AcDbLine
 10
317.8666666666668
 20
451.66666666666663
 30
0.0
 11
319.8666666666668
 21
451.66666666666663
 31
0.0
  0
LINE
  5
2A7
330
17
100
AcDbEntity
  8
M-EXISTING
100
AcDbLine
 10
321.26666666666677
 20
451.66666666666663
 30
0.0
 11
323.26666666666677
 21
451.66666666666663
 31
0.0
  0
LINE
  5
2A8
330
17
100
AcDbEntity
  8
M-EXISTING
100
AcDbLine
 10
324.66666666666674
 20
451.66666666666663
 30
0.0
 11
326.66666666666674
 21
451.66666666666663
 31
0.0
  0
LINE
  5
2A9
330
17
100
AcDbEntity
  8
M-EXISTING
100
AcDbLine
 10
328.0666666666668
 20
451.66666666666663
 30
0.0
 11
330.0
 21
451.66666666666663
 31
0.0
  0
LWPOLYLINE
  5
2AA
330
17
100
AcDbEntity
  8
M-ARCH-HIDDEN
100
AcDbPolyline
 90
4
 70
1
 10
40.0
 20
300.0
 10
406.6666666666667
 20
300.0
 10
406.6666666666667
 20
403.3333333333333
 10
40.0
 20
403.3333333333333
  0
LWPOLYLINE
  5
2AB
330
17
100
AcDbEntity
  8
M-ARCH-HIDDEN
100
AcDbPolyline
 90
4
 70
1
 10
50.0
 20
310.0
 10
396.6666666666667
 20
310.0
 10
396.6666666666667
 20
393.3333333333333
 10
50.0
 20
393.3333333333333
  0
LWPOLYLINE
  5
2AC
330
17
100
AcDbEntity
  8
M-ARCH-HIDDEN
100
AcDbPolyline
 90
4
 70
1
 10
250.0
 20
310.0
 10
253.33333333333334
 20
310.0
 10
253.33333333333334
 20
393.3333333333333
 10
250.0
 20
393.3333333333333
  0
TEXT
  5
2AD
330
17
100
AcDbEntity
  8
M-TEXT
100
AcDbText
 10
251.66666666666666
 20
395.8333333333333
 30
0.0
 40
2.4
  1
W5
  7
OpenSans
 72
1
 11
251.66666666666666
 21
395.8333333333333
 31
0.0
100
AcDbText
 73
1
  0
LWPOLYLINE
  5
2AE
330
17
100
AcDbEntity
  8
M-ARCH-HIDDEN
100
AcDbPolyline
 90
4
 70
1
 10
286.66666666666663
 20
310.0
 10
293.33333333333337
 20
310.0
 10
293.33333333333337
 20
393.3333333333333
 10
286.66666666666663
 20
393.3333333333333
  0
TEXT
  5
2AF
330
17
100
AcDbEntity
  8
M-TEXT
100
AcDbText
 10
290.0
 20
395.8333333333333
 30
0.0
 40
2.4
  1
W6
  7
OpenSans
 72
1
 11
290.0
 21
395.8333333333333
 31
0.0
100
AcDbText
 73
1
  0
LWPOLYLINE
  5
2B0
330
17
100
AcDbEntity
  8
M-ARCH-HIDDEN
100
AcDbPolyline
 90
4
 70
1
 10
340.0
 20
310.0
 10
346.6666666666667
 20
310.0
 10
346.6666666666667
 20
393.3333333333333
 10
340.0
 20
393.3333333333333
  0
TEXT
  5
2B1
330
17
100
AcDbEntity
  8
M-TEXT
100
AcDbText
 10
343.3333333333333
 20
395.8333333333333
 30
0.0
 40
2.4
  1
W7
  7
OpenSans
 72
1
 11
343.3333333333333
 21
395.8333333333333
 31
0.0
100
AcDbText
 73
1
  0
LWPOLYLINE
  5
2B2
330
17
100
AcDbEntity
  8
M-ARCH-HIDDEN
100
AcDbPolyline
 90
4
 70
1
 10
98.33333333333334
 20
310.0
 10
100.16666666666666
 20
310.0
 10
100.16666666666666
 20
341.6666666666667
 10
98.33333333333334
 20
341.6666666666667
  0
LWPOLYLINE
  5
2B3
330
17
100
AcDbEntity
  8
M-ARCH-HIDDEN
100
AcDbPolyline
 90
4
 70
1
 10
98.33333333333334
 20
356.6666666666667
 10
100.16666666666666
 20
356.6666666666667
 10
100.16666666666666
 20
393.3333333333333
 10
98.33333333333334
 20
393.3333333333333
  0
LWPOLYLINE
  5
2B4
330
17
100
AcDbEntity
  8
M-ARCH-HIDDEN
100
AcDbPolyline
 90
4
 70
1
 10
130.16666666666669
 20
310.0
 10
132.0
 20
310.0
 10
132.0
 20
341.6666666666667
 10
130.16666666666669
 20
341.6666666666667
  0
LWPOLYLINE
  5
2B5
330
17
100
AcDbEntity
  8
M-ARCH-HIDDEN
100
AcDbPolyline
 90
4
 70
1
 10
130.16666666666669
 20
356.6666666666667
 10
132.0
 20
356.6666666666667
 10
132.0
 20
393.3333333333333
 10
130.16666666666669
 20
393.3333333333333
  0
LWPOLYLINE
  5
2B6
330
17
100
AcDbEntity
  8
M-ARCH-HIDDEN
100
AcDbPolyline
 90
4
 70
1
 10
190.33333333333334
 20
310.0
 10
192.16666666666666
 20
310.0
 10
192.16666666666666
 20
341.6666666666667
 10
190.33333333333334
 20
341.6666666666667
  0
LWPOLYLINE
  5
2B7
330
17
100
AcDbEntity
  8
M-ARCH-HIDDEN
100
AcDbPolyline
 90
4
 70
1
 10
190.33333333333334
 20
356.6666666666667
 10
192.16666666666666
 20
356.6666666666667
 10
192.16666666666666
 20
393.3333333333333
 10
190.33333333333334
 20
393.3333333333333
  0
LWPOLYLINE
  5
2B8
330
17
100
AcDbEntity
  8
M-ARCH-HIDDEN
100
AcDbPolyline
 90
4
 70
1
 10
222.16666666666666
 20
310.0
 10
224.0
 20
310.0
 10
224.0
 20
341.6666666666667
 10
222.16666666666666
 20
341.6666666666667
  0
LWPOLYLINE
  5
2B9
330
17
100
AcDbEntity
  8
M-ARCH-HIDDEN
100
AcDbPolyline
 90
4
 70
1
 10
222.16666666666666
 20
356.6666666666667
 10
224.0
 20
356.6666666666667
 10
224.0
 20
393.3333333333333
 10
222.16666666666666
 20
393.3333333333333
  0
LWPOLYLINE
  5
2BA
330
17
100
AcDbEntity
  8
M-FLAG
100
AcDbPolyline
 90
4
 70
1
 10
286.66666666666663
 20
310.0
 10
293.33333333333337
 20
310.0
 10
293.33333333333337
 20
330.0
 10
286.66666666666663
 20
330.0
  0
LWPOLYLINE
  5
2BB
330
17
100
AcDbEntity
  8
M-FLAG
100
AcDbPolyline
 90
4
 70
1
 10
340.0
 20
310.0
 10
346.6666666666667
 20
310.0
 10
346.6666666666667
 20
330.0
 10
340.0
 20
330.0
  0
LWPOLYLINE
  5
2BC
330
17
100
AcDbEntity
  8
M-ARCH-HIDDEN
100
AcDbPolyline
 90
4
 70
1
 10
293.33333333333337
 20
310.0
 10
340.0
 20
310.0
 10
340.0
 20
362.6666666666667
 10
293.33333333333337
 20
362.6666666666667
  0
LWPOLYLINE
  5
2BD
330
17
100
AcDbEntity
  8
M-ARCH-HIDDEN
100
AcDbPolyline
 90
4
 70
1
 10
295.0
 20
310.0
 10
315.0
 20
310.0
 10
315.0
 20
382.6666666666667
 10
295.0
 20
382.6666666666667
  0
LWPOLYLINE
  5
2BE
330
17
100
AcDbEntity
  8
M-ARCH-HIDDEN
100
AcDbPolyline
 90
4
 70
1
 10
318.3333333333333
 20
310.0
 10
338.3333333333333
 20
310.0
 10
338.3333333333333
 20
382.6666666666667
 10
318.3333333333333
 20
382.6666666666667
  0
TEXT
  5
2BF
330
17
100
AcDbEntity
  8
M-TEXT
100
AcDbText
 10
316.6666666666667
 20
369.1666666666667
 30
0.0
 40
2.4
  1
STAIR SHAFT - FROZEN GEOMETRY
  7
OpenSans
 72
1
 11
316.6666666666667
 21
369.1666666666667
 31
0.0
100
AcDbText
 73
1
  0
CIRCLE
  5
2C0
330
17
100
AcDbEntity
  8
M-GRID
100
AcDbCircle
 10
74.16666666666666
 20
412.0
 30
0.0
 40
2.6
  0
TEXT
  5
2C1
330
17
100
AcDbEntity
  8
M-GRID
100
AcDbText
 10
74.16666666666666
 20
412.0
 30
0.0
 40
2.4
  1
1
  7
OpenSans
 72
1
 11
74.16666666666666
 21
412.0
 31
0.0
100
AcDbText
 73
2
  0
CIRCLE
  5
2C2
330
17
100
AcDbEntity
  8
M-GRID
100
AcDbCircle
 10
115.16666666666667
 20
412.0
 30
0.0
 40
2.6
  0
TEXT
  5
2C3
330
17
100
AcDbEntity
  8
M-GRID
100
AcDbText
 10
115.16666666666667
 20
412.0
 30
0.0
 40
2.4
  1
2
  7
OpenSans
 72
1
 11
115.16666666666667
 21
412.0
 31
0.0
100
AcDbText
 73
2
  0
CIRCLE
  5
2C4
330
17
100
AcDbEntity
  8
M-GRID
100
AcDbCircle
 10
161.16666666666669
 20
412.0
 30
0.0
 40
2.6
  0
TEXT
  5
2C5
330
17
100
AcDbEntity
  8
M-GRID
100
AcDbText
 10
161.16666666666669
 20
412.0
 30
0.0
 40
2.4
  1
3
  7
OpenSans
 72
1
 11
161.16666666666669
 21
412.0
 31
0.0
100
AcDbText
 73
2
  0
CIRCLE
  5
2C6
330
17
100
AcDbEntity
  8
M-GRID
100
AcDbCircle
 10
207.16666666666666
 20
412.0
 30
0.0
 40
2.6
  0
TEXT
  5
2C7
330
17
100
AcDbEntity
  8
M-GRID
100
AcDbText
 10
207.16666666666666
 20
412.0
 30
0.0
 40
2.4
  1
4
  7
OpenSans
 72
1
 11
207.16666666666666
 21
412.0
 31
0.0
100
AcDbText
 73
2
  0
CIRCLE
  5
2C8
330
17
100
AcDbEntity
  8
M-GRID
100
AcDbCircle
 10
237.0
 20
412.0
 30
0.0
 40
2.6
  0
TEXT
  5
2C9
330
17
100
AcDbEntity
  8
M-GRID
100
AcDbText
 10
237.0
 20
412.0
 30
0.0
 40
2.4
  1
5
  7
OpenSans
 72
1
 11
237.0
 21
412.0
 31
0.0
100
AcDbText
 73
2
  0
CIRCLE
  5
2CA
330
17
100
AcDbEntity
  8
M-GRID
100
AcDbCircle
 10
270.0
 20
412.0
 30
0.0
 40
2.6
  0
TEXT
  5
2CB
330
17
100
AcDbEntity
  8
M-GRID
100
AcDbText
 10
270.0
 20
412.0
 30
0.0
 40
2.4
  1
6
  7
OpenSans
 72
1
 11
270.0
 21
412.0
 31
0.0
100
AcDbText
 73
2
  0
CIRCLE
  5
2CC
330
17
100
AcDbEntity
  8
M-GRID
100
AcDbCircle
 10
316.6666666666667
 20
412.0
 30
0.0
 40
2.6
  0
TEXT
  5
2CD
330
17
100
AcDbEntity
  8
M-GRID
100
AcDbText
 10
316.6666666666667
 20
412.0
 30
0.0
 40
2.4
  1
7
  7
OpenSans
 72
1
 11
316.6666666666667
 21
412.0
 31
0.0
100
AcDbText
 73
2
  0
CIRCLE
  5
2CE
330
17
100
AcDbEntity
  8
M-GRID
100
AcDbCircle
 10
371.6666666666667
 20
412.0
 30
0.0
 40
2.6
  0
TEXT
  5
2CF
330
17
100
AcDbEntity
  8
M-GRID
100
AcDbText
 10
371.6666666666667
 20
412.0
 30
0.0
 40
2.4
  1
8
  7
OpenSans
 72
1
 11
371.6666666666667
 21
412.0
 31
0.0
100
AcDbText
 73
2
  0
TEXT
  5
2D0
330
17
100
AcDbEntity
  8
P-DRAIN-STORM
100
AcDbText
 10
186.66666666666666
 20
435.0
 30
0.0
 40
2.4
  1
CH-10  300 CHANNEL + GRATING, FULL 1500 WIDTH  [C]
  7
OpenSans
 72
1
 11
186.66666666666666
 21
435.0
 31
0.0
100
AcDbText
 73
1
  0
LEADER
  5
2D1
330
17
100
AcDbEntity
  8
S-CALLOUT
100
AcDbLeader
  3
SC-DIM
 73
3
 76
2
 10
191.66666666666666
 20
425.0
 30
0.0
 10
182.5
 20
433.33333333333337
 30
0.0
  0
INSERT
  5
2D2
330
17
100
AcDbEntity
  8
0
100
AcDbBlockReference
  2
CHAMBER
 10
178.33333333333334
 20
386.6666666666667
 30
0.0
 41
0.9
 42
0.9
  0
TEXT
  5
2D4
330
17
100
AcDbEntity
  8
P-EQUIP
100
AcDbText
 10
178.33333333333334
 20
373.3333333333333
 30
0.0
 40
2.4
  1
CP-10  TRAPPED CATCHPIT, SILT BUCKET  [A]
  7
OpenSans
 72
1
 11
178.33333333333334
 21
373.3333333333333
 31
0.0
100
AcDbText
 73
1
  0
LWPOLYLINE
  5
2D5
330
17
100
AcDbEntity
  8
P-DRAIN-STORM
100
AcDbPolyline
 90
3
 70
0
 10
191.66666666666666
 20
400.0
 10
191.66666666666666
 20
390.0
 10
178.33333333333334
 20
386.6666666666667
  0
LWPOLYLINE
  5
2D6
330
17
100
AcDbEntity
  8
P-FLOW
100
AcDbPolyline
 90
3
 70
1
 10
182.6716579996512
 20
387.75124783324617
 10
186.19327527517876
 20
387.51841363321125
 10
185.66939832510027
 20
389.6139214335252
  0
TEXT
  5
2D7
330
17
100
AcDbEntity
  8
M-CALLOUT
100
AcDbText
 10
185.0
 20
390.1333333333334
 30
0.0
 40
1.4
  1
PD-10  DN100  1:100
 50
-345.9637565320736
  7
OpenSans
 72
1
 11
185.0
 21
390.1333333333334
 31
0.0
100
AcDbText
 73
1
  0
LWPOLYLINE
  5
2D8
330
17
100
AcDbEntity
  8
P-DRAIN-STORM
100
AcDbPolyline
 90
2
 70
0
 10
178.33333333333334
 20
381.6666666666667
 10
143.33333333333331
 20
360.0
  0
LWPOLYLINE
  5
2D9
330
17
100
AcDbEntity
  8
P-FLOW
100
AcDbPolyline
 90
3
 70
1
 10
158.79269698128243
 20
369.5700822582543
 10
162.21805085793926
 20
370.4203474049421
 10
161.08112489036807
 20
372.2569201217879
  0
TEXT
  5
2DA
330
17
100
AcDbEntity
  8
M-CALLOUT
100
AcDbText
 10
160.83333333333331
 20
372.6333333333334
 30
0.0
 40
1.4
  1
PD-11 DN100
 50
-328.2405199151872
  7
OpenSans
 72
1
 11
160.83333333333331
 21
372.6333333333334
 31
0.0
100
AcDbText
 73
1
  0
TEXT
  5
2DB
330
17
100
AcDbEntity
  8
M-FLAG
100
AcDbText
 10
133.33333333333331
 20
351.6666666666667
 30
0.0
 40
2.4
  1
TO SK-02 STORM SOAKAWAY - POSITION NOT FIXED, D3  [N]
  7
OpenSans
 72
1
 11
133.33333333333331
 21
351.6666666666667
 31
0.0
100
AcDbText
 73
1
  0
INSERT
  5
2DC
330
17
100
AcDbEntity
  8
0
100
AcDbBlockReference
  2
GULLY
 10
290.83333333333337
 20
412.5
 30
0.0
 41
0.9
 42
0.9
  0
TEXT
  5
2DE
330
17
100
AcDbEntity
  8
P-EQUIP
100
AcDbText
 10
290.83333333333337
 20
417.5
 30
0.0
 40
2.4
  1
GY-10
  7
OpenSans
 72
1
 11
290.83333333333337
 21
417.5
 31
0.0
100
AcDbText
 73
1
  0
INSERT
  5
2DF
330
17
100
AcDbEntity
  8
0
100
AcDbBlockReference
  2
PUMP
 10
298.3333333333333
 20
406.6666666666667
 30
0.0
 41
0.9
 42
0.9
  0
TEXT
  5
2E1
330
17
100
AcDbEntity
  8
P-EQUIP
100
AcDbText
 10
310.0
 20
404.1666666666667
 30
0.0
 40
2.4
  1
SU-02  1.0 m3 SUMP + 2 x 2 L/s, NRV ON THE RISING MAIN  [C]
  7
OpenSans
 11
310.0
 21
404.1666666666667
 31
0.0
100
AcDbText
 73
2
  0
LWPOLYLINE
  5
2E2
330
17
100
AcDbEntity
  8
P-DRAIN-STORM
100
AcDbPolyline
 90
2
 70
0
 10
290.83333333333337
 20
412.5
 10
298.3333333333333
 20
406.6666666666667
  0
LWPOLYLINE
  5
2E3
330
17
100
AcDbEntity
  8
P-FLOW
100
AcDbPolyline
 90
3
 70
1
 10
296.47777865503656
 20
408.10987586089755
 10
294.48861106724826
 20
411.0252167170741
 10
293.162499342056
 20
409.32021592754126
  0
TEXT
  5
2E4
330
17
100
AcDbEntity
  8
M-CALLOUT
100
AcDbText
 10
294.58333333333337
 20
411.3833333333334
 30
0.0
 40
1.4
  1
PD-12 1:80
 50
-37.87498365109832
  7
OpenSans
 72
1
 11
294.58333333333337
 21
411.3833333333334
 31
0.0
100
AcDbText
 73
1
  0
LWPOLYLINE
  5
2E5
330
17
100
AcDbEntity
  8
P-DRAIN-RISING
100
AcDbPolyline
 90
2
 70
0
 10
300.0
 20
401.6666666666667
 10
330.0
 20
383.3333333333333
  0
LWPOLYLINE
  5
2E6
330
17
100
AcDbEntity
  8
P-FLOW
100
AcDbPolyline
 90
3
 70
1
 10
317.0478764007647
 20
391.2485199773105
 10
314.7440154499044
 20
393.92213638941996
 10
313.6176834294838
 20
392.0790476287317
  0
TEXT
  5
2E7
330
17
100
AcDbEntity
  8
M-CALLOUT
100
AcDbText
 10
315.0
 20
394.3
 30
0.0
 40
1.4
  1
PD-13
 50
-31.429565614838566
  7
OpenSans
 72
1
 11
315.0
 21
394.3
 31
0.0
100
AcDbText
 73
1
  0
TEXT
  5
2E8
330
17
100
AcDbEntity
  8
M-FLAG
100
AcDbText
 10
333.3333333333333
 20
378.3333333333333
 30
0.0
 40
2.4
  1
TO SK-03, THE STAIRWELL'S OWN SOAKAWAY  [C] / SIZE [N]
  7
OpenSans
 11
333.3333333333333
 21
378.3333333333333
 31
0.0
100
AcDbText
 73
2
  0
INSERT
  5
2E9
330
17
100
AcDbEntity
  8
0
100
AcDbBlockReference
  2
GULLY
 10
285.0
 20
332.6666666666667
 30
0.0
 41
0.9
 42
0.9
  0
TEXT
  5
2EB
330
17
100
AcDbEntity
  8
P-EQUIP
100
AcDbText
 10
285.0
 20
325.0
 30
0.0
 40
2.4
  1
GY-11  FALL 1:80  [C]
  7
OpenSans
 72
1
 11
285.0
 21
325.0
 31
0.0
100
AcDbText
 73
1
  0
TEXT
  5
2EC
330
17
100
AcDbEntity
  8
M-TEXT
100
AcDbText
 10
285.0
 20
342.6666666666667
 30
0.0
 40
2.4
  1
HOSE-DOWN POINT  [C]
  7
OpenSans
 72
1
 11
285.0
 21
342.6666666666667
 31
0.0
100
AcDbText
 73
1
  0
LWPOLYLINE
  5
2ED
330
17
100
AcDbEntity
  8
P-DRAIN-WASTE
100
AcDbPolyline
 90
2
 70
0
 10
285.0
 20
332.6666666666667
 10
256.66666666666663
 20
321.6666666666667
  0
LWPOLYLINE
  5
2EE
330
17
100
AcDbEntity
  8
P-FLOW
100
AcDbPolyline
 90
3
 70
1
 10
268.5960285181193
 20
326.2980659737012
 10
272.1191255712534
 20
326.50731977700656
 10
271.33738494758444
 20
328.5208941106992
  0
TEXT
  5
2EF
330
17
100
AcDbEntity
  8
M-CALLOUT
100
AcDbText
 10
270.8333333333333
 20
328.9666666666667
 30
0.0
 40
1.4
  1
PD-14 DN100 1:80
 50
-338.7820304232214
  7
OpenSans
 72
1
 11
270.8333333333333
 21
328.9666666666667
 31
0.0
100
AcDbText
 73
1
  0
TEXT
  5
2F0
330
17
100
AcDbEntity
  8
M-FLAG
100
AcDbText
 10
253.33333333333334
 20
315.0
 30
0.0
 40
2.4
  1
TRAPPED GULLY -> EXTERNAL SOAKAWAY SK-04.
  7
OpenSans
 72
2
 11
253.33333333333334
 21
315.0
 31
0.0
100
AcDbText
  0
TEXT
  5
2F1
330
17
100
AcDbEntity
  8
M-FLAG
100
AcDbText
 10
253.33333333333334
 20
308.3333333333333
 30
0.0
 40
2.4
  1
*** NEVER TO THE CLEAN SUMP ***  [C]
  7
OpenSans
 72
2
 11
253.33333333333334
 21
308.3333333333333
 31
0.0
100
AcDbText
  0
LWPOLYLINE
  5
2F2
330
17
100
AcDbEntity
  8
P-DRAIN-RISING
100
AcDbPolyline
 90
4
 70
1
 10
229.96666666666667
 20
393.3333333333333
 10
243.3
 20
393.3333333333333
 10
243.3
 20
403.3333333333333
 10
229.96666666666667
 20
403.3333333333333
  0
TEXT
  5
2F3
330
17
100
AcDbEntity
  8
M-FLAG
100
AcDbText
 10
236.66666666666666
 20
408.3333333333333
 30
0.0
 40
2.4
  1
SERVICE ENTRY PLATE - THE ONLY ENVELOPE PENETRATION  [C]
  7
OpenSans
 72
1
 11
236.66666666666666
 21
408.3333333333333
 31
0.0
100
AcDbText
 73
1
  0
DIMENSION
  5
2F4
330
17
100
AcDbEntity
  8
S-DIM
100
AcDbDimension
280
0
  2
*D1
  3
SC-DIM
 10
194.16666666666666
 20
366.6666666666667
 30
0.0
 11
250.83333333333331
 21
368.3666666666667
 31
0.0
 70
32
 71
5
  1
<>
100
AcDbAlignedDimension
 13
194.16666666666666
 23
376.6666666666667
 33
0.0
 14
307.5
 24
376.6666666666667
 34
0.0
 50
0.0
100
AcDbRotatedDimension
1001
ACAD
1000
DSTYLE
1002
{
1070
144
1040
60.0
1002
}
  0
DIMENSION
  5
303
330
17
100
AcDbEntity
  8
S-DIM
100
AcDbDimension
280
0
  2
*D2
  3
SC-DIM
 10
266.66666666666663
 20
343.3333333333333
 30
0.0
 11
306.66666666666663
 21
345.0333333333333
 31
0.0
 70
32
 71
5
  1
<>
100
AcDbAlignedDimension
 13
266.66666666666663
 23
353.3333333333333
 33
0.0
 14
346.6666666666667
 24
353.3333333333333
 34
0.0
 50
0.0
100
AcDbRotatedDimension
1001
ACAD
1000
DSTYLE
1002
{
1070
144
1040
60.0
1002
}
  0
INSERT
  5
312
330
17
100
AcDbEntity
  8
M-TITLE
100
AcDbBlockReference
  2
NORTH
 10
600.0
 20
470.0
 30
0.0
  0
TEXT
  5
314
330
17
100
AcDbEntity
  8
M-TITLE
100
AcDbText
 10
600.0
 20
484.0
 30
0.0
 40
2.0
  1
N
  7
OpenSans
 72
1
 11
600.0
 21
484.0
 31
0.0
100
AcDbText
 73
2
  0
TEXT
  5
315
330
17
100
AcDbEntity
  8
S-TITLE
100
AcDbText
 10
16.0
 20
264.6
 30
0.0
 40
2.5
  1
NOTES  -  ABOVE GROUND AND ENTRY
  7
OpenSans
 11
16.0
 21
264.6
 31
0.0
100
AcDbText
  0
TEXT
  5
316
330
17
100
AcDbEntity
  8
S-NOTE
100
AcDbText
 10
16.0
 20
260.6
 30
0.0
 40
2.4
  1
1  THE ENTRY THRESHOLD IS PROTECTED BY THREE INDEPENDENT MEASURES ALREADY IN THE ARCHITECTURE:
  7
OpenSans
 11
16.0
 21
260.6
 31
0.0
100
AcDbText
  0
TEXT
  5
317
330
17
100
AcDbEntity
  8
S-NOTE
100
AcDbText
 10
16.0
 20
256.3
 30
0.0
 40
2.4
  1
   the door is at grade rather than at the foot of a pit; the ground falls away 1:50 for 2000; and a
  7
OpenSans
 11
16.0
 21
256.3
 31
0.0
100
AcDbText
  0
TEXT
  5
318
330
17
100
AcDbEntity
  8
S-NOTE
100
AcDbText
 10
16.0
 20
252.0
 30
0.0
 40
2.4
  1
   300 channel with grating crosses the full 1500 width.  Rev F drawing 5 note 5: 'WITH THE DOOR SHUT
  7
OpenSans
 11
16.0
 21
252.0
 31
0.0
100
AcDbText
  0
TEXT
  5
319
330
17
100
AcDbEntity
  8
S-NOTE
100
AcDbText
 10
16.0
 20
247.7
 30
0.0
 40
2.4
  1
   THE CATCHMENT IS ZERO'.  CH-10 is an INTERCEPTION, not a collection - it discharges AWAY from the
  7
OpenSans
 11
16.0
 21
247.7
 31
0.0
100
AcDbText
  0
TEXT
  5
31A
330
17
100
AcDbEntity
  8
S-NOTE
100
AcDbText
 10
16.0
 20
243.39999999999998
 30
0.0
 40
2.4
  1
   entry, never into the stairwell.
  7
OpenSans
 11
16.0
 21
243.39999999999998
 31
0.0
100
AcDbText
  0
TEXT
  5
31B
330
17
100
AcDbEntity
  8
S-NOTE
100
AcDbText
 10
16.0
 20
239.09999999999997
 30
0.0
 40
2.4
  1
2  THE HEADHOUSE FLOOR GULLY GY-11 DISCHARGES TO AN EXTERNAL SOAKAWAY AND NEVER TO THE CLEAN SUMP.
  7
OpenSans
 11
16.0
 21
239.09999999999997
 31
0.0
100
AcDbText
  0
TEXT
  5
31C
330
17
100
AcDbEntity
  8
S-NOTE
100
AcDbText
 10
16.0
 20
234.79999999999995
 30
0.0
 40
2.4
  1
   This is a confirmed instruction on the Rev F ground plan, not a preference: the headhouse is outside
  7
OpenSans
 11
16.0
 21
234.79999999999995
 31
0.0
100
AcDbText
  0
TEXT
  5
31D
330
17
100
AcDbEntity
  8
S-NOTE
100
AcDbText
 10
16.0
 20
230.49999999999994
 30
0.0
 40
2.4
  1
   the gas-tight envelope and its washdown water is not clean-zone water.
  7
OpenSans
 11
16.0
 21
230.49999999999994
 31
0.0
100
AcDbText
  0
TEXT
  5
31E
330
17
100
AcDbEntity
  8
S-NOTE
100
AcDbText
 10
16.0
 20
226.19999999999993
 30
0.0
 40
2.4
  1
3  SK-02, SK-03 and SK-04 EXIST IN THE PROJECT BUT NONE OF THEM IS POSITIONED.  There is no site plan,
  7
OpenSans
 11
16.0
 21
226.19999999999993
 31
0.0
100
AcDbText
  0
TEXT
  5
31F
330
17
100
AcDbEntity
  8
S-NOTE
100
AcDbText
 10
16.0
 20
221.89999999999992
 30
0.0
 40
2.4
  1
   boundary or contour anywhere in the project (open item D3).  Their pipe runs are therefore shown
  7
OpenSans
 11
16.0
 21
221.89999999999992
 31
0.0
100
AcDbText
  0
TEXT
  5
320
330
17
100
AcDbEntity
  8
S-NOTE
100
AcDbText
 10
16.0
 20
217.5999999999999
 30
0.0
 40
2.4
  1
   with direction and gradient but WITHOUT length - the schedules record 'not determinable'.
  7
OpenSans
 11
16.0
 21
217.5999999999999
 31
0.0
100
AcDbText
  0
TEXT
  5
321
330
17
100
AcDbEntity
  8
S-NOTE
100
AcDbText
 10
16.0
 20
213.2999999999999
 30
0.0
 40
2.4
  1
4  IS 2470 (Pt 2) OFFSETS FOR THE FOUL SOAK PIT - at least 15 m from any well, 5 m from the septic tank
  7
OpenSans
 11
16.0
 21
213.2999999999999
 31
0.0
100
AcDbText
  0
TEXT
  5
322
330
17
100
AcDbEntity
  8
S-NOTE
100
AcDbText
 10
16.0
 20
208.9999999999999
 30
0.0
 40
2.4
  1
   and 2 m from any building - CANNOT BE DEMONSTRATED for the same reason.  DATA REQUIRED.
  7
OpenSans
 11
16.0
 21
208.9999999999999
 31
0.0
100
AcDbText
  0
TEXT
  5
323
330
17
100
AcDbEntity
  8
S-NOTE
100
AcDbText
 10
16.0
 20
204.69999999999987
 30
0.0
 40
2.4
  1
5  C16 - THE ROOF / PLATFORM JUNCTION IS UNRESOLVED.  It is shown at 250 to match the model and the
  7
OpenSans
 11
16.0
 21
204.69999999999987
 31
0.0
100
AcDbText
  0
TEXT
  5
324
330
17
100
AcDbEntity
  8
S-NOTE
100
AcDbText
 10
16.0
 20
200.39999999999986
 30
0.0
 40
2.4
  1
   structural register.  It does not change any flow, pipe or pit on this sheet - see D-102 note 3.
  7
OpenSans
 11
16.0
 21
200.39999999999986
 31
0.0
100
AcDbText
  0
LWPOLYLINE
  5
325
330
17
100
AcDbEntity
  8
S-TITLE
100
AcDbPolyline
 90
4
 70
1
 10
14.0
 20
194.09999999999985
 10
410.0
 20
194.09999999999985
 10
410.0
 20
268.0
 10
14.0
 20
268.0
  0
LWPOLYLINE
  5
326
330
17
100
AcDbEntity
  8
M-TABLE
100
AcDbPolyline
 90
4
 70
1
 10
14.0
 20
179.89999999999986
 10
410.0
 20
179.89999999999986
 10
410.0
 20
186.09999999999985
 10
14.0
 20
186.09999999999985
  0
TEXT
  5
327
330
17
100
AcDbEntity
  8
M-TABLE
100
AcDbText
 10
15.4
 20
181.19999999999987
 30
0.0
 40
2.1
  1
TAG
  7
OpenSans
 11
15.4
 21
181.19999999999987
 31
0.0
100
AcDbText
  0
TEXT
  5
328
330
17
100
AcDbEntity
  8
M-TABLE
100
AcDbText
 10
49.4
 20
181.19999999999987
 30
0.0
 40
2.1
  1
ITEM
  7
OpenSans
 11
49.4
 21
181.19999999999987
 31
0.0
100
AcDbText
  0
TEXT
  5
329
330
17
100
AcDbEntity
  8
M-TABLE
100
AcDbText
 10
157.4
 20
181.19999999999987
 30
0.0
 40
2.1
  1
LEVEL
  7
OpenSans
 11
157.4
 21
181.19999999999987
 31
0.0
100
AcDbText
  0
TEXT
  5
32A
330
17
100
AcDbEntity
  8
M-TABLE
100
AcDbText
 10
197.4
 20
181.19999999999987
 30
0.0
 40
2.1
  1
NOTE AND EVIDENCE CLASS
  7
OpenSans
 11
197.4
 21
181.19999999999987
 31
0.0
100
AcDbText
  0
TEXT
  5
32B
330
17
100
AcDbEntity
  8
M-TABLE
100
AcDbText
 10
15.4
 20
174.9999999999999
 30
0.0
 40
2.1
  1
CH-10
  7
OpenSans
 11
15.4
 21
174.9999999999999
 31
0.0
100
AcDbText
  0
TEXT
  5
32C
330
17
100
AcDbEntity
  8
M-TABLE
100
AcDbText
 10
49.4
 20
174.9999999999999
 30
0.0
 40
2.1
  1
300 CHANNEL + GRATING
  7
OpenSans
 11
49.4
 21
174.9999999999999
 31
0.0
100
AcDbText
  0
TEXT
  5
32D
330
17
100
AcDbEntity
  8
M-TABLE
100
AcDbText
 10
157.4
 20
174.9999999999999
 30
0.0
 40
2.1
  1
(+0.000)
  7
OpenSans
 11
157.4
 21
174.9999999999999
 31
0.0
100
AcDbText
  0
TEXT
  5
32E
330
17
100
AcDbEntity
  8
M-TABLE
100
AcDbText
 10
197.4
 20
174.9999999999999
 30
0.0
 40
2.1
  1
Full 1500 width, X 8950-9250.  Confirmed Rev F  [C]
  7
OpenSans
 11
197.4
 21
174.9999999999999
 31
0.0
100
AcDbText
  0
LINE
  5
32F
330
17
100
AcDbEntity
  8
M-TABLE
100
AcDbLine
 10
14.0
 20
173.69999999999987
 30
0.0
 11
410.0
 21
173.69999999999987
 31
0.0
  0
TEXT
  5
330
330
17
100
AcDbEntity
  8
M-TABLE
100
AcDbText
 10
15.4
 20
168.7999999999999
 30
0.0
 40
2.1
  1
CP-10
  7
OpenSans
 11
15.4
 21
168.7999999999999
 31
0.0
100
AcDbText
  0
TEXT
  5
331
330
17
100
AcDbEntity
  8
M-TABLE
100
AcDbText
 10
49.4
 20
168.7999999999999
 30
0.0
 40
2.1
  1
TRAPPED CATCHPIT 450 x 450
  7
OpenSans
 11
49.4
 21
168.7999999999999
 31
0.0
100
AcDbText
  0
TEXT
  5
332
330
17
100
AcDbEntity
  8
M-TABLE
100
AcDbText
 10
157.4
 20
168.7999999999999
 30
0.0
 40
2.1
  1
(+0.000)
  7
OpenSans
 11
157.4
 21
168.7999999999999
 31
0.0
100
AcDbText
  0
TEXT
  5
333
330
17
100
AcDbEntity
  8
M-TABLE
100
AcDbText
 10
197.4
 20
168.7999999999999
 30
0.0
 40
2.1
  1
75 deep seal + silt bucket.  Position by this package  [A]
  7
OpenSans
 11
197.4
 21
168.7999999999999
 31
0.0
100
AcDbText
  0
LINE
  5
334
330
17
100
AcDbEntity
  8
M-TABLE
100
AcDbLine
 10
14.0
 20
167.4999999999999
 30
0.0
 11
410.0
 21
167.4999999999999
 31
0.0
  0
TEXT
  5
335
330
17
100
AcDbEntity
  8
M-TABLE
100
AcDbText
 10
15.4
 20
162.5999999999999
 30
0.0
 40
2.1
  1
GY-10
  7
OpenSans
 11
15.4
 21
162.5999999999999
 31
0.0
100
AcDbText
  0
TEXT
  5
336
330
17
100
AcDbEntity
  8
M-TABLE
100
AcDbText
 10
49.4
 20
162.5999999999999
 30
0.0
 40
2.1
  1
TRAPPED GULLY DN100
  7
OpenSans
 11
49.4
 21
162.5999999999999
 31
0.0
100
AcDbText
  0
TEXT
  5
337
330
17
100
AcDbEntity
  8
M-TABLE
100
AcDbText
 10
157.4
 20
162.5999999999999
 30
0.0
 40
2.1
  1
(-2.000)
  7
OpenSans
 11
157.4
 21
162.5999999999999
 31
0.0
100
AcDbText
  0
TEXT
  5
338
330
17
100
AcDbEntity
  8
M-TABLE
100
AcDbText
 10
197.4
 20
162.5999999999999
 30
0.0
 40
2.1
  1
Platform 1500 x 1500.  Confirmed Rev F drawing 5  [C]
  7
OpenSans
 11
197.4
 21
162.5999999999999
 31
0.0
100
AcDbText
  0
LINE
  5
339
330
17
100
AcDbEntity
  8
M-TABLE
100
AcDbLine
 10
14.0
 20
161.2999999999999
 30
0.0
 11
410.0
 21
161.2999999999999
 31
0.0
  0
TEXT
  5
33A
330
17
100
AcDbEntity
  8
M-TABLE
100
AcDbText
 10
15.4
 20
156.39999999999992
 30
0.0
 40
2.1
  1
GY-11
  7
OpenSans
 11
15.4
 21
156.39999999999992
 31
0.0
100
AcDbText
  0
TEXT
  5
33B
330
17
100
AcDbEntity
  8
M-TABLE
100
AcDbText
 10
49.4
 20
156.39999999999992
 30
0.0
 40
2.1
  1
TRAPPED GULLY DN100, FALL 1:80
  7
OpenSans
 11
49.4
 21
156.39999999999992
 31
0.0
100
AcDbText
  0
TEXT
  5
33C
330
17
100
AcDbEntity
  8
M-TABLE
100
AcDbText
 10
157.4
 20
156.39999999999992
 30
0.0
 40
2.1
  1
(-2.000)
  7
OpenSans
 11
157.4
 21
156.39999999999992
 31
0.0
100
AcDbText
  0
TEXT
  5
33D
330
17
100
AcDbEntity
  8
M-TABLE
100
AcDbText
 10
197.4
 20
156.39999999999992
 30
0.0
 40
2.1
  1
Headhouse hose-down point.  Confirmed Rev F ground plan  [C]
  7
OpenSans
 11
197.4
 21
156.39999999999992
 31
0.0
100
AcDbText
  0
LINE
  5
33E
330
17
100
AcDbEntity
  8
M-TABLE
100
AcDbLine
 10
14.0
 20
155.0999999999999
 30
0.0
 11
410.0
 21
155.0999999999999
 31
0.0
  0
TEXT
  5
33F
330
17
100
AcDbEntity
  8
M-TABLE
100
AcDbText
 10
15.4
 20
150.19999999999993
 30
0.0
 40
2.1
  1
SU-02
  7
OpenSans
 11
15.4
 21
150.19999999999993
 31
0.0
100
AcDbText
  0
TEXT
  5
340
330
17
100
AcDbEntity
  8
M-TABLE
100
AcDbText
 10
49.4
 20
150.19999999999993
 30
0.0
 40
2.1
  1
STAIRWELL SUMP 1.0 m3
  7
OpenSans
 11
49.4
 21
150.19999999999993
 31
0.0
100
AcDbText
  0
TEXT
  5
341
330
17
100
AcDbEntity
  8
M-TABLE
100
AcDbText
 10
157.4
 20
150.19999999999993
 30
0.0
 40
2.1
  1
(-2.000)
  7
OpenSans
 11
157.4
 21
150.19999999999993
 31
0.0
100
AcDbText
  0
TEXT
  5
342
330
17
100
AcDbEntity
  8
M-TABLE
100
AcDbText
 10
197.4
 20
150.19999999999993
 30
0.0
 40
2.1
  1
2 x 2 L/s duty + standby, NRV on the rising main  [C]
  7
OpenSans
 11
197.4
 21
150.19999999999993
 31
0.0
100
AcDbText
  0
LINE
  5
343
330
17
100
AcDbEntity
  8
M-TABLE
100
AcDbLine
 10
14.0
 20
148.89999999999992
 30
0.0
 11
410.0
 21
148.89999999999992
 31
0.0
  0
TEXT
  5
344
330
17
100
AcDbEntity
  8
M-TABLE
100
AcDbText
 10
15.4
 20
143.99999999999994
 30
0.0
 40
2.1
  1
SK-02
  7
OpenSans
 11
15.4
 21
143.99999999999994
 31
0.0
100
AcDbText
  0
TEXT
  5
345
330
17
100
AcDbEntity
  8
M-TABLE
100
AcDbText
 10
49.4
 20
143.99999999999994
 30
0.0
 40
2.1
  1
STORM SOAKAWAY
  7
OpenSans
 11
49.4
 21
143.99999999999994
 31
0.0
100
AcDbText
  0
TEXT
  5
346
330
17
100
AcDbEntity
  8
M-TABLE
100
AcDbText
 10
157.4
 20
143.99999999999994
 30
0.0
 40
2.1
  1
-
  7
OpenSans
 11
157.4
 21
143.99999999999994
 31
0.0
100
AcDbText
  0
TEXT
  5
347
330
17
100
AcDbEntity
  8
M-TABLE
100
AcDbText
 10
197.4
 20
143.99999999999994
 30
0.0
 40
2.1
  1
2.0 dia x 3.5 effective, 21.99 m2.  POSITION NOT FIXED  [A]/[N]
  7
OpenSans
 11
197.4
 21
143.99999999999994
 31
0.0
100
AcDbText
  0
LINE
  5
348
330
17
100
AcDbEntity
  8
M-TABLE
100
AcDbLine
 10
14.0
 20
142.69999999999993
 30
0.0
 11
410.0
 21
142.69999999999993
 31
0.0
  0
TEXT
  5
349
330
17
100
AcDbEntity
  8
M-TABLE
100
AcDbText
 10
15.4
 20
137.79999999999995
 30
0.0
 40
2.1
  1
SK-03
  7
OpenSans
 11
15.4
 21
137.79999999999995
 31
0.0
100
AcDbText
  0
TEXT
  5
34A
330
17
100
AcDbEntity
  8
M-TABLE
100
AcDbText
 10
49.4
 20
137.79999999999995
 30
0.0
 40
2.1
  1
STAIRWELL SOAKAWAY
  7
OpenSans
 11
49.4
 21
137.79999999999995
 31
0.0
100
AcDbText
  0
TEXT
  5
34B
330
17
100
AcDbEntity
  8
M-TABLE
100
AcDbText
 10
157.4
 20
137.79999999999995
 30
0.0
 40
2.1
  1
-
  7
OpenSans
 11
157.4
 21
137.79999999999995
 31
0.0
100
AcDbText
  0
TEXT
  5
34C
330
17
100
AcDbEntity
  8
M-TABLE
100
AcDbText
 10
197.4
 20
137.79999999999995
 30
0.0
 40
2.1
  1
Exists in the project; SIZE AND POSITION NOT RECORDED  [C]/[N]
  7
OpenSans
 11
197.4
 21
137.79999999999995
 31
0.0
100
AcDbText
  0
LINE
  5
34D
330
17
100
AcDbEntity
  8
M-TABLE
100
AcDbLine
 10
14.0
 20
136.49999999999994
 30
0.0
 11
410.0
 21
136.49999999999994
 31
0.0
  0
TEXT
  5
34E
330
17
100
AcDbEntity
  8
M-TABLE
100
AcDbText
 10
15.4
 20
131.59999999999997
 30
0.0
 40
2.1
  1
SK-04
  7
OpenSans
 11
15.4
 21
131.59999999999997
 31
0.0
100
AcDbText
  0
TEXT
  5
34F
330
17
100
AcDbEntity
  8
M-TABLE
100
AcDbText
 10
49.4
 20
131.59999999999997
 30
0.0
 40
2.1
  1
HEADHOUSE EXTERNAL SOAKAWAY
  7
OpenSans
 11
49.4
 21
131.59999999999997
 31
0.0
100
AcDbText
  0
TEXT
  5
350
330
17
100
AcDbEntity
  8
M-TABLE
100
AcDbText
 10
157.4
 20
131.59999999999997
 30
0.0
 40
2.1
  1
-
  7
OpenSans
 11
157.4
 21
131.59999999999997
 31
0.0
100
AcDbText
  0
TEXT
  5
351
330
17
100
AcDbEntity
  8
M-TABLE
100
AcDbText
 10
197.4
 20
131.59999999999997
 30
0.0
 40
2.1
  1
Exists on the Rev F ground plan; NOT SIZED  [C]/[N]
  7
OpenSans
 11
197.4
 21
131.59999999999997
 31
0.0
100
AcDbText
  0
LINE
  5
352
330
17
100
AcDbEntity
  8
M-TABLE
100
AcDbLine
 10
14.0
 20
130.29999999999995
 30
0.0
 11
410.0
 21
130.29999999999995
 31
0.0
  0
LINE
  5
353
330
17
100
AcDbEntity
  8
M-TABLE
100
AcDbLine
 10
14.0
 20
186.09999999999985
 30
0.0
 11
410.0
 21
186.09999999999985
 31
0.0
  0
LINE
  5
354
330
17
100
AcDbEntity
  8
M-TABLE
100
AcDbLine
 10
14.0
 20
186.09999999999985
 30
0.0
 11
14.0
 21
130.29999999999995
 31
0.0
  0
LINE
  5
355
330
17
100
AcDbEntity
  8
M-TABLE
100
AcDbLine
 10
48.0
 20
186.09999999999985
 30
0.0
 11
48.0
 21
130.29999999999995
 31
0.0
  0
LINE
  5
356
330
17
100
AcDbEntity
  8
M-TABLE
100
AcDbLine
 10
156.0
 20
186.09999999999985
 30
0.0
 11
156.0
 21
130.29999999999995
 31
0.0
  0
LINE
  5
357
330
17
100
AcDbEntity
  8
M-TABLE
100
AcDbLine
 10
196.0
 20
186.09999999999985
 30
0.0
 11
196.0
 21
130.29999999999995
 31
0.0
  0
LINE
  5
358
330
17
100
AcDbEntity
  8
M-TABLE
100
AcDbLine
 10
410.0
 20
186.09999999999985
 30
0.0
 11
410.0
 21
130.29999999999995
 31
0.0
  0
TEXT
  5
359
330
17
100
AcDbEntity
  8
S-TITLE
100
AcDbText
 10
16.0
 20
80.6
 30
0.0
 40
2.5
  1
EVIDENCE CLASS - APPLIED TO EVERY VALUE ON THIS SHEET
  7
OpenSans
 11
16.0
 21
80.6
 31
0.0
100
AcDbText
  0
TEXT
  5
35A
330
17
100
AcDbEntity
  8
S-NOTE
100
AcDbText
 10
16.0
 20
76.6
 30
0.0
 40
2.0
  1
[C] CONFIRMED       traceable to the master, to a Rev F drawing or to sheet S-06
  7
OpenSans
 11
16.0
 21
76.6
 31
0.0
100
AcDbText
  0
TEXT
  5
35B
330
17
100
AcDbEntity
  8
S-NOTE
100
AcDbText
 10
16.0
 20
73.19999999999999
 30
0.0
 40
2.0
  1
[R] RECONSTRUCTED   computed here from confirmed values; the arithmetic is shown
  7
OpenSans
 11
16.0
 21
73.19999999999999
 31
0.0
100
AcDbText
  0
TEXT
  5
35C
330
17
100
AcDbEntity
  8
S-NOTE
100
AcDbText
 10
16.0
 20
69.79999999999998
 30
0.0
 40
2.0
  1
[A] ASSUMED         an engineering selection made by this package - confirm before construction
  7
OpenSans
 11
16.0
 21
69.79999999999998
 31
0.0
100
AcDbText
  0
TEXT
  5
35D
330
17
100
AcDbEntity
  8
S-NOTE
100
AcDbText
 10
16.0
 20
66.39999999999998
 30
0.0
 40
2.0
  1
[U] UNRESOLVED      competing values exist in the project, or the input does not
  7
OpenSans
 11
16.0
 21
66.39999999999998
 31
0.0
100
AcDbText
  0
TEXT
  5
35E
330
17
100
AcDbEntity
  8
S-NOTE
100
AcDbText
 10
16.0
 20
62.99999999999998
 30
0.0
 40
2.0
  1
[N] NOT AVAILABLE   no source exists anywhere in the project - DATA REQUIRED
  7
OpenSans
 11
16.0
 21
62.99999999999998
 31
0.0
100
AcDbText
  0
LWPOLYLINE
  5
35F
330
17
100
AcDbEntity
  8
S-TITLE
100
AcDbPolyline
 90
4
 70
1
 10
14.0
 20
57.59999999999998
 10
182.0
 20
57.59999999999998
 10
182.0
 20
84.0
 10
14.0
 20
84.0
  0
TEXT
  5
360
330
17
100
AcDbEntity
  8
M-TITLE
100
AcDbText
 10
12.0
 20
576.5
 30
0.0
 40
5.0
  1
DRAINAGE PACKAGE
  7
OpenSans
 11
12.0
 21
576.5
 31
0.0
100
AcDbText
  0
TEXT
  5
361
330
17
100
AcDbEntity
  8
M-TITLE
100
AcDbText
 10
12.0
 20
569.5
 30
0.0
 40
2.4
  1
D-101   ABOVE-GROUND AND ENTRY LEVEL DRAINAGE PLAN
  7
OpenSans
 11
12.0
 21
569.5
 31
0.0
100
AcDbText
  0
LINE
  5
362
330
17
100
AcDbEntity
  8
M-TITLE
100
AcDbLine
 10
10.0
 20
566.5
 30
0.0
 11
831.0
 21
566.5
 31
0.0
  0
TEXT
  5
363
330
17
100
AcDbEntity
  8
M-FLAG
100
AcDbText
 10
829.0
 20
577.0
 30
0.0
 40
2.0
  1
SENTRY POST EXCLUDED FROM THIS PACKAGE
  7
OpenSans
 72
2
 11
829.0
 21
577.0
 31
0.0
100
AcDbText
  0
TEXT
  5
364
330
17
100
AcDbEntity
  8
M-FLAG
100
AcDbText
 10
829.0
 20
570.5
 30
0.0
 40
1.4
  1
DEVELOPED FOR PROJECT COORDINATION - PENDING ENGINEERING VERIFICATION
  7
OpenSans
 72
2
 11
829.0
 21
570.5
 31
0.0
100
AcDbText
  0
TEXT
  5
365
330
17
100
AcDbEntity
  8
M-FLAG
100
AcDbText
 10
12.0
 20
561.5
 30
0.0
 40
1.4
  1
OPEN ITEMS ON THIS SHEET:  C16   DR-C1   DR-D3   DR-D4
  7
OpenSans
 11
12.0
 21
561.5
 31
0.0
100
AcDbText
  0
LWPOLYLINE
  5
366
330
17
100
AcDbEntity
  8
M-TITLE
100
AcDbPolyline
 90
4
 70
1
 10
651.0
 20
10.0
 10
831.0
 20
10.0
 10
831.0
 20
110.0
 10
651.0
 20
110.0
  0
LINE
  5
367
330
17
100
AcDbEntity
  8
M-TITLE
100
AcDbLine
 10
651.0
 20
30.0
 30
0.0
 11
831.0
 21
30.0
 31
0.0
  0
LINE
  5
368
330
17
100
AcDbEntity
  8
M-TITLE
100
AcDbLine
 10
651.0
 20
42.0
 30
0.0
 11
831.0
 21
42.0
 31
0.0
  0
LINE
  5
369
330
17
100
AcDbEntity
  8
M-TITLE
100
AcDbLine
 10
651.0
 20
54.0
 30
0.0
 11
831.0
 21
54.0
 31
0.0
  0
LINE
  5
36A
330
17
100
AcDbEntity
  8
M-TITLE
100
AcDbLine
 10
651.0
 20
66.0
 30
0.0
 11
831.0
 21
66.0
 31
0.0
  0
LINE
  5
36B
330
17
100
AcDbEntity
  8
M-TITLE
100
AcDbLine
 10
651.0
 20
88.0
 30
0.0
 11
831.0
 21
88.0
 31
0.0
  0
LINE
  5
36C
330
17
100
AcDbEntity
  8
M-TITLE
100
AcDbLine
 10
763.0
 20
10.0
 30
0.0
 11
763.0
 21
30.0
 31
0.0
  0
LINE
  5
36D
330
17
100
AcDbEntity
  8
M-TITLE
100
AcDbLine
 10
797.0
 20
10.0
 30
0.0
 11
797.0
 21
30.0
 31
0.0
  0
TEXT
  5
36E
330
17
100
AcDbEntity
  8
M-TITLE
100
AcDbText
 10
653.0
 20
24.6
 30
0.0
 40
1.4
  1
DRAWING No.
  7
OpenSans
 11
653.0
 21
24.6
 31
0.0
100
AcDbText
  0
TEXT
  5
36F
330
17
100
AcDbEntity
  8
M-TITLE
100
AcDbText
 10
671.0
 20
14.2
 30
0.0
 40
3.5
  1
D-101
  7
OpenSans
 11
671.0
 21
14.2
 31
0.0
100
AcDbText
  0
TEXT
  5
370
330
17
100
AcDbEntity
  8
M-TITLE
100
AcDbText
 10
765.0
 20
24.6
 30
0.0
 40
1.4
  1
REV
  7
OpenSans
 11
765.0
 21
24.6
 31
0.0
100
AcDbText
  0
TEXT
  5
371
330
17
100
AcDbEntity
  8
M-TITLE
100
AcDbText
 10
769.0
 20
14.2
 30
0.0
 40
3.5
  1
DR1
  7
OpenSans
 11
769.0
 21
14.2
 31
0.0
100
AcDbText
  0
TEXT
  5
372
330
17
100
AcDbEntity
  8
M-TITLE
100
AcDbText
 10
799.0
 20
24.6
 30
0.0
 40
1.4
  1
SHEET
  7
OpenSans
 11
799.0
 21
24.6
 31
0.0
100
AcDbText
  0
TEXT
  5
373
330
17
100
AcDbEntity
  8
M-TITLE
100
AcDbText
 10
799.0
 20
15.0
 30
0.0
 40
1.6
  1
3 OF 11
  7
OpenSans
 11
799.0
 21
15.0
 31
0.0
100
AcDbText
  0
LINE
  5
374
330
17
100
AcDbEntity
  8
M-TITLE
100
AcDbLine
 10
747.0
 20
30.0
 30
0.0
 11
747.0
 21
42.0
 31
0.0
  0
TEXT
  5
375
330
17
100
AcDbEntity
  8
M-TITLE
100
AcDbText
 10
653.0
 20
34.4
 30
0.0
 40
1.6
  1
SCALE   1:60
  7
OpenSans
 11
653.0
 21
34.4
 31
0.0
100
AcDbText
  0
TEXT
  5
376
330
17
100
AcDbEntity
  8
M-TITLE
100
AcDbText
 10
749.0
 20
34.4
 30
0.0
 40
1.6
  1
DATE   05.09.2026
  7
OpenSans
 11
749.0
 21
34.4
 31
0.0
100
AcDbText
  0
TEXT
  5
377
330
17
100
AcDbEntity
  8
M-TITLE
100
AcDbText
 10
653.0
 20
46.4
 30
0.0
 40
1.4
  1
DESIGNED  [PLACEHOLDER]
  7
OpenSans
 11
653.0
 21
46.4
 31
0.0
100
AcDbText
  0
TEXT
  5
378
330
17
100
AcDbEntity
  8
M-TITLE
100
AcDbText
 10
713.0
 20
46.4
 30
0.0
 40
1.4
  1
CHECKED  [PLACEHOLDER]
  7
OpenSans
 11
713.0
 21
46.4
 31
0.0
100
AcDbText
  0
TEXT
  5
379
330
17
100
AcDbEntity
  8
M-TITLE
100
AcDbText
 10
773.0
 20
46.4
 30
0.0
 40
1.4
  1
APPROVED  [PLACEHOLDER]
  7
OpenSans
 11
773.0
 21
46.4
 31
0.0
100
AcDbText
  0
TEXT
  5
37A
330
17
100
AcDbEntity
  8
M-TITLE
100
AcDbText
 10
653.0
 20
58.4
 30
0.0
 40
1.4
  1
STATUS
  7
OpenSans
 11
653.0
 21
58.4
 31
0.0
100
AcDbText
  0
TEXT
  5
37B
330
17
100
AcDbEntity
  8
M-FLAG
100
AcDbText
 10
673.0
 20
58.0
 30
0.0
 40
1.6
  1
FOR REVIEW - NOT FOR CONSTRUCTION
  7
OpenSans
 11
673.0
 21
58.0
 31
0.0
100
AcDbText
  0
TEXT
  5
37C
330
17
100
AcDbEntity
  8
M-TITLE
100
AcDbText
 10
653.0
 20
83.4
 30
0.0
 40
1.4
  1
DRAWING TITLE
  7
OpenSans
 11
653.0
 21
83.4
 31
0.0
100
AcDbText
  0
TEXT
  5
37D
330
17
100
AcDbEntity
  8
M-TITLE
100
AcDbText
 10
653.0
 20
75.4
 30
0.0
 40
2.4
  1
ABOVE-GROUND AND ENTRY LEVEL DRAINAGE PLAN
  7
OpenSans
 11
653.0
 21
75.4
 31
0.0
100
AcDbText
  0
TEXT
  5
37E
330
17
100
AcDbEntity
  8
M-TITLE
100
AcDbText
 10
653.0
 20
68.8
 30
0.0
 40
1.4
  1
HEADHOUSE (-)2.000 - COVERED STAIRWELL - THRESHOLD - EXTERNAL DISPOSAL
  7
OpenSans
 11
653.0
 21
68.8
 31
0.0
100
AcDbText
  0
TEXT
  5
37F
330
17
100
AcDbEntity
  8
M-TITLE
100
AcDbText
 10
653.0
 20
105.2
 30
0.0
 40
1.4
  1
PROJECT
  7
OpenSans
 11
653.0
 21
105.2
 31
0.0
100
AcDbText
  0
TEXT
  5
380
330
17
100
AcDbEntity
  8
M-TITLE
100
AcDbText
 10
653.0
 20
99.6
 30
0.0
 40
1.6
  1
UNDERGROUND CBRN-HARDENED BLAST-RESISTANT
  7
OpenSans
 11
653.0
 21
99.6
 31
0.0
100
AcDbText
  0
TEXT
  5
381
330
17
100
AcDbEntity
  8
M-TITLE
100
AcDbText
 10
653.0
 20
95.0
 30
0.0
 40
1.6
  1
PROTECTIVE STRUCTURE  -  PUNE, MAHARASHTRA
  7
OpenSans
 11
653.0
 21
95.0
 31
0.0
100
AcDbText
  0
TEXT
  5
382
330
17
100
AcDbEntity
  8
M-TITLE
100
AcDbText
 10
653.0
 20
90.0
 30
0.0
 40
1.4
  1
GEOMETRY REV F + M1   -   SENTRY POST NOT IN THIS PACKAGE
  7
OpenSans
 11
653.0
 21
90.0
 31
0.0
100
AcDbText
  0
ENDSEC
  0
SECTION
  2
OBJECTS
  0
DICTIONARY
  5
A
330
0
100
AcDbDictionary
281
1
  3
ACAD_COLOR
350
B
  3
ACAD_GROUP
350
C
  3
ACAD_LAYOUT
350
D
  3
ACAD_MATERIAL
350
E
  3
ACAD_MLEADERSTYLE
350
F
  3
ACAD_MLINESTYLE
350
10
  3
ACAD_PLOTSETTINGS
350
11
  3
ACAD_PLOTSTYLENAME
350
12
  3
ACAD_SCALELIST
350
14
  3
ACAD_TABLESTYLE
350
15
  3
ACAD_VISUALSTYLE
350
16
  3
EZDXF_META
350
2D
  0
DICTIONARY
  5
B
330
A
100
AcDbDictionary
281
1
  0
DICTIONARY
  5
C
330
A
100
AcDbDictionary
281
1
  0
DICTIONARY
  5
D
330
A
100
AcDbDictionary
281
1
  3
Model
350
1A
  3
Layout1
350
1E
  0
DICTIONARY
  5
E
330
A
100
AcDbDictionary
281
1
  3
ByBlock
350
1F
  3
ByLayer
350
20
  3
Global
350
21
  0
DICTIONARY
  5
F
330
A
100
AcDbDictionary
281
1
  3
Standard
350
2C
  0
DICTIONARY
  5
10
330
A
100
AcDbDictionary
281
1
  3
Standard
350
22
  0
DICTIONARY
  5
11
330
A
100
AcDbDictionary
281
1
  0
ACDBDICTIONARYWDFLT
  5
12
330
A
100
AcDbDictionary
281
1
  3
Normal
350
13
100
AcDbDictionaryWithDefault
340
13
  0
ACDBPLACEHOLDER
  5
13
330
12
  0
DICTIONARY
  5
14
330
A
100
AcDbDictionary
281
1
  0
DICTIONARY
  5
15
330
A
100
AcDbDictionary
281
1
  0
DICTIONARY
  5
16
330
A
100
AcDbDictionary
281
1
  3
2dWireframe
350
5A
  3
Basic
350
5B
  3
Brighten
350
5C
  3
ColorChange
350
5D
  3
Conceptual
350
5E
  3
Dim
350
5F
  3
EdgeColorOff
350
60
  3
Facepattern
350
61
  3
Flat
350
62
  3
FlatWithEdges
350
63
  3
Gouraud
350
64
  3
GouraudWithEdges
350
65
  3
Hidden
350
66
  3
JitterOff
350
67
  3
Linepattern
350
68
  3
Modeling
350
69
  3
OverhangOff
350
6A
  3
Realistic
350
6B
  3
Shaded
350
6C
  3
Shaded with edges
350
6D
  3
Shades of Gray
350
6E
  3
Sketchy
350
6F
  3
Thicken
350
70
  3
Wireframe
350
71
  3
X-Ray
350
72
  0
LAYOUT
  5
1A
330
D
100
AcDbPlotSettings
  1

  4
A3
  6

 40
7.5
 41
20.0
 42
7.5
 43
20.0
 44
420.0
 45
297.0
 46
0.0
 47
0.0
 48
0.0
 49
0.0
140
0.0
141
0.0
142
1.0
143
1.0
 70
1024
 72
1
 73
0
 74
5
  7

 75
16
 76
0
 77
2
 78
300
147
1.0
148
0.0
149
0.0
100
AcDbLayout
  1
Model
 70
1
 71
0
 10
0.0
 20
0.0
 11
420.0
 21
297.0
 12
0.0
 22
0.0
 32
0.0
 14
1e+20
 24
1e+20
 34
1e+20
 15
-1e+20
 25
-1e+20
 35
-1e+20
146
0.0
 13
0.0
 23
0.0
 33
0.0
 16
1.0
 26
0.0
 36
0.0
 17
0.0
 27
1.0
 37
0.0
 76
1
330
17
  0
LAYOUT
  5
1E
330
D
100
AcDbPlotSettings
  1

  4
A3
  6

 40
7.5
 41
20.0
 42
7.5
 43
20.0
 44
420.0
 45
297.0
 46
0.0
 47
0.0
 48
0.0
 49
0.0
140
0.0
141
0.0
142
1.0
143
1.0
 70
0
 72
1
 73
0
 74
5
  7

 75
16
 76
0
 77
2
 78
300
147
1.0
148
0.0
149
0.0
100
AcDbLayout
  1
Layout1
 70
1
 71
1
 10
0.0
 20
0.0
 11
420.0
 21
297.0
 12
0.0
 22
0.0
 32
0.0
 14
1e+20
 24
1e+20
 34
1e+20
 15
-1e+20
 25
-1e+20
 35
-1e+20
146
0.0
 13
0.0
 23
0.0
 33
0.0
 16
1.0
 26
0.0
 36
0.0
 17
0.0
 27
1.0
 37
0.0
 76
1
330
1B
  0
MATERIAL
  5
1F
102
{ACAD_REACTORS
330
E
102
}
330
E
100
AcDbMaterial
  1
ByBlock
  2

 70
0
 40
1.0
 71
1
 41
1.0
 91
-1023410177
 42
1.0
 72
1
  3

 73
1
 74
1
 75
1
 44
0.5
 73
0
 45
1.0
 46
1.0
 77
1
  4

 78
1
 79
1
170
1
 48
1.0
171
1
  6

172
1
173
1
174
1
140
1.0
141
1.0
175
1
  7

176
1
177
1
178
1
143
1.0
179
1
  8

270
1
271
1
272
1
145
1.0
146
1.0
273
1
  9

274
1
275
1
276
1
 42
1.0
 72
1
  3

 73
1
 74
1
 75
1
 94
63
  0
MATERIAL
  5
20
102
{ACAD_REACTORS
330
E
102
}
330
E
100
AcDbMaterial
  1
ByLayer
  2

 70
0
 40
1.0
 71
1
 41
1.0
 91
-1023410177
 42
1.0
 72
1
  3

 73
1
 74
1
 75
1
 44
0.5
 73
0
 45
1.0
 46
1.0
 77
1
  4

 78
1
 79
1
170
1
 48
1.0
171
1
  6

172
1
173
1
174
1
140
1.0
141
1.0
175
1
  7

176
1
177
1
178
1
143
1.0
179
1
  8

270
1
271
1
272
1
145
1.0
146
1.0
273
1
  9

274
1
275
1
276
1
 42
1.0
 72
1
  3

 73
1
 74
1
 75
1
 94
63
  0
MATERIAL
  5
21
102
{ACAD_REACTORS
330
E
102
}
330
E
100
AcDbMaterial
  1
Global
  2

 70
0
 40
1.0
 71
1
 41
1.0
 91
-1023410177
 42
1.0
 72
1
  3

 73
1
 74
1
 75
1
 44
0.5
 73
0
 45
1.0
 46
1.0
 77
1
  4

 78
1
 79
1
170
1
 48
1.0
171
1
  6

172
1
173
1
174
1
140
1.0
141
1.0
175
1
  7

176
1
177
1
178
1
143
1.0
179
1
  8

270
1
271
1
272
1
145
1.0
146
1.0
273
1
  9

274
1
275
1
276
1
 42
1.0
 72
1
  3

 73
1
 74
1
 75
1
 94
63
  0
MLINESTYLE
  5
22
102
{ACAD_REACTORS
330
10
102
}
330
10
100
AcDbMlineStyle
  2
Standard
 70
0
  3

 62
256
 51
90.0
 52
90.0
 71
2
 49
0.5
 62
256
  6
BYLAYER
 49
-0.5
 62
256
  6
BYLAYER
  0
MLEADERSTYLE
  5
2C
102
{ACAD_REACTORS
330
F
102
}
330
F
100
AcDbMLeaderStyle
179
2
170
2
171
1
172
0
 90
2
 40
0.0
 41
0.0
173
1
 91
-1056964608
 92
-2
290
1
 42
2.0
291
1
 43
8.0
  3
Standard
 44
4.0
300

342
29
174
1
175
1
176
0
178
1
 93
-1056964608
 45
4.0
292
0
297
0
 46
4.0
 94
-1056964608
 47
1.0
 49
1.0
140
1.0
294
1
141
0.0
177
0
142
1.0
295
0
296
0
143
3.75
271
0
272
9
273
9
  0
DICTIONARY
  5
2D
330
A
100
AcDbDictionary
280
1
281
1
  3
CREATED_BY_EZDXF
350
2E
  3
WRITTEN_BY_EZDXF
350
385
  0
DICTIONARYVAR
  5
2E
330
2D
100
DictionaryVariables
280
0
  1
1.4.4 @ 2026-09-05T16:09:17.384524+00:00
  0
VISUALSTYLE
  5
5A
102
{ACAD_REACTORS
330
16
102
}
330
16
100
AcDbVisualStyle
  2
2dWireframe
 70
4
 90
0
 40
0.6
 62
7
290
0
291
0
  0
VISUALSTYLE
  5
5B
102
{ACAD_REACTORS
330
16
102
}
330
16
100
AcDbVisualStyle
  2
Basic
 70
7
 90
1
 40
0.6
 62
7
290
0
291
1
  0
VISUALSTYLE
  5
5C
102
{ACAD_REACTORS
330
16
102
}
330
16
100
AcDbVisualStyle
  2
Brighten
 70
12
 90
2
 40
0.6
 62
7
290
0
291
1
  0
VISUALSTYLE
  5
5D
102
{ACAD_REACTORS
330
16
102
}
330
16
100
AcDbVisualStyle
  2
ColorChange
 70
16
 90
2
 40
0.6
 62
8
290
0
291
1
  0
VISUALSTYLE
  5
5E
102
{ACAD_REACTORS
330
16
102
}
330
16
100
AcDbVisualStyle
  2
Conceptual
 70
9
 90
3
 40
0.6
 62
7
290
0
291
0
  0
VISUALSTYLE
  5
5F
102
{ACAD_REACTORS
330
16
102
}
330
16
100
AcDbVisualStyle
  2
Dim
 70
11
 90
2
 40
0.6
 62
7
290
0
291
1
  0
VISUALSTYLE
  5
60
102
{ACAD_REACTORS
330
16
102
}
330
16
100
AcDbVisualStyle
  2
EdgeColorOff
 70
22
 90
2
 40
0.6
 62
7
290
0
291
1
  0
VISUALSTYLE
  5
61
102
{ACAD_REACTORS
330
16
102
}
330
16
100
AcDbVisualStyle
  2
Facepattern
 70
15
 90
2
 40
0.6
 62
7
290
0
291
1
  0
VISUALSTYLE
  5
62
102
{ACAD_REACTORS
330
16
102
}
330
16
100
AcDbVisualStyle
  2
Flat
 70
0
 90
2
 40
0.6
 62
7
290
0
291
1
  0
VISUALSTYLE
  5
63
102
{ACAD_REACTORS
330
16
102
}
330
16
100
AcDbVisualStyle
  2
FlatWithEdges
 70
1
 90
2
 40
0.6
 62
7
290
0
291
1
  0
VISUALSTYLE
  5
64
102
{ACAD_REACTORS
330
16
102
}
330
16
100
AcDbVisualStyle
  2
Gouraud
 70
2
 90
2
 40
0.6
 62
7
290
0
291
1
  0
VISUALSTYLE
  5
65
102
{ACAD_REACTORS
330
16
102
}
330
16
100
AcDbVisualStyle
  2
GouraudWithEdges
 70
3
 90
2
 40
0.6
 62
7
290
0
291
1
  0
VISUALSTYLE
  5
66
102
{ACAD_REACTORS
330
16
102
}
330
16
100
AcDbVisualStyle
  2
Hidden
 70
6
 90
1
 40
0.6
 62
7
290
0
291
0
  0
VISUALSTYLE
  5
67
102
{ACAD_REACTORS
330
16
102
}
330
16
100
AcDbVisualStyle
  2
JitterOff
 70
20
 90
2
 40
0.6
 62
7
290
0
291
1
  0
VISUALSTYLE
  5
68
102
{ACAD_REACTORS
330
16
102
}
330
16
100
AcDbVisualStyle
  2
Linepattern
 70
14
 90
2
 40
0.6
 62
7
290
0
291
1
  0
VISUALSTYLE
  5
69
102
{ACAD_REACTORS
330
16
102
}
330
16
100
AcDbVisualStyle
  2
Modeling
 70
10
 90
2
 40
0.6
 62
7
290
0
291
0
  0
VISUALSTYLE
  5
6A
102
{ACAD_REACTORS
330
16
102
}
330
16
100
AcDbVisualStyle
  2
OverhangOff
 70
21
 90
2
 40
0.6
 62
7
290
0
291
1
  0
VISUALSTYLE
  5
6B
102
{ACAD_REACTORS
330
16
102
}
330
16
100
AcDbVisualStyle
  2
Realistic
 70
8
 90
2
 40
0.6
 62
7
290
0
291
0
  0
VISUALSTYLE
  5
6C
102
{ACAD_REACTORS
330
16
102
}
330
16
100
AcDbVisualStyle
  2
Shaded
 70
27
 90
2
 40
0.6
 62
7
290
0
291
0
  0
VISUALSTYLE
  5
6D
102
{ACAD_REACTORS
330
16
102
}
330
16
100
AcDbVisualStyle
  2
Shaded with edges
 70
26
 90
2
 40
0.6
 62
7
290
0
291
0
  0
VISUALSTYLE
  5
6E
102
{ACAD_REACTORS
330
16
102
}
330
16
100
AcDbVisualStyle
  2
Shades of Gray
 70
23
 90
2
 40
0.6
 62
7
290
0
291
0
  0
VISUALSTYLE
  5
6F
102
{ACAD_REACTORS
330
16
102
}
330
16
100
AcDbVisualStyle
  2
Sketchy
 70
24
 90
1
 40
0.6
 62
7
290
0
291
0
  0
VISUALSTYLE
  5
70
102
{ACAD_REACTORS
330
16
102
}
330
16
100
AcDbVisualStyle
  2
Thicken
 70
13
 90
2
 40
0.6
 62
7
290
0
291
1
  0
VISUALSTYLE
  5
71
102
{ACAD_REACTORS
330
16
102
}
330
16
100
AcDbVisualStyle
  2
Wireframe
 70
5
 90
0
 40
0.6
 62
7
290
0
291
0
  0
VISUALSTYLE
  5
72
102
{ACAD_REACTORS
330
16
102
}
330
16
100
AcDbVisualStyle
  2
X-Ray
 70
25
 90
2
 40
0.5
 62
7
290
0
291
0
  0
DICTIONARYVAR
  5
385
330
2D
100
DictionaryVariables
280
0
  1
1.4.4 @ 2026-09-05T16:09:17.411166+00:00
  0
ENDSEC
  0
EOF
