  0
SECTION
  2
HEADER
  9
$ACADVER
  1
AC1024
  9
$ACADMAINTVER
 70
6
  9
$DWGCODEPAGE
  3
ANSI_1252
  9
$LASTSAVEDBY
  1
ezdxf
  9
$INSBASE
 10
0.0
 20
0.0
 30
0.0
  9
$EXTMIN
 10
1e+20
 20
1e+20
 30
1e+20
  9
$EXTMAX
 10
-1e+20
 20
-1e+20
 30
-1e+20
  9
$LIMMIN
 10
0.0
 20
0.0
  9
$LIMMAX
 10
420.0
 20
297.0
  9
$ORTHOMODE
 70
0
  9
$REGENMODE
 70
1
  9
$FILLMODE
 70
1
  9
$QTEXTMODE
 70
0
  9
$MIRRTEXT
 70
1
  9
$LTSCALE
 40
1.0
  9
$ATTMODE
 70
1
  9
$TEXTSIZE
 40
2.5
  9
$TRACEWID
 40
1.0
  9
$TEXTSTYLE
  7
OpenSans
  9
$CLAYER
  8
0
  9
$CELTYPE
  6
ByLayer
  9
$CECOLOR
 62
256
  9
$CELTSCALE
 40
1.0
  9
$DISPSILH
 70
0
  9
$DIMSCALE
 40
1.0
  9
$DIMASZ
 40
0.175
  9
$DIMEXO
 40
0.125
  9
$DIMDLI
 40
3.75
  9
$DIMRND
 40
0.0
  9
$DIMDLE
 40
0.0
  9
$DIMEXE
 40
0.375
  9
$DIMTP
 40
0.0
  9
$DIMTM
 40
0.0
  9
$DIMTXT
 40
0.25
  9
$DIMCEN
 40
2.5
  9
$DIMTSZ
 40
0.0
  9
$DIMTOL
 70
0
  9
$DIMLIM
 70
0
  9
$DIMTIH
 70
0
  9
$DIMTOH
 70
0
  9
$DIMSE1
 70
0
  9
$DIMSE2
 70
0
  9
$DIMTAD
 70
1
  9
$DIMZIN
 70
12
  9
$DIMBLK
  1
ARCHTICK
  9
$DIMASO
 70
1
  9
$DIMSHO
 70
1
  9
$DIMPOST
  1

  9
$DIMAPOST
  1

  9
$DIMALT
 70
0
  9
$DIMALTD
 70
3
  9
$DIMALTF
 40
0.03937007874
  9
$DIMLFAC
 40
100.0
  9
$DIMTOFL
 70
1
  9
$DIMTVP
 40
0.0
  9
$DIMTIX
 70
0
  9
$DIMSOXD
 70
0
  9
$DIMSAH
 70
0
  9
$DIMBLK1
  1

  9
$DIMBLK2
  1

  9
$DIMSTYLE
  2
EZDXF
  9
$DIMCLRD
 70
0
  9
$DIMCLRE
 70
0
  9
$DIMCLRT
 70
0
  9
$DIMTFAC
 40
0.5
  9
$DIMGAP
 40
0.1
  9
$DIMJUST
 70
0
  9
$DIMSD1
 70
0
  9
$DIMSD2
 70
0
  9
$DIMTOLJ
 70
0
  9
$DIMTZIN
 70
8
  9
$DIMALTZ
 70
0
  9
$DIMALTTZ
 70
0
  9
$DIMUPT
 70
1
  9
$DIMDEC
 70
2
  9
$DIMTDEC
 70
2
  9
$DIMALTU
 70
2
  9
$DIMALTTD
 70
3
  9
$DIMTXSTY
  7
OpenSansCondensed-Light
  9
$DIMAUNIT
 70
0
  9
$DIMADEC
 70
2
  9
$DIMALTRND
 40
0.0
  9
$DIMAZIN
 70
3
  9
$DIMDSEP
 70
46
  9
$DIMATFIT
 70
3
  9
$DIMFRAC
 70
0
  9
$DIMLDRBLK
  1

  9
$DIMLUNIT
 70
2
  9
$DIMLWD
 70
-2
  9
$DIMLWE
 70
-2
  9
$DIMTMOVE
 70
2
  9
$DIMFXL
 40
1.0
  9
$DIMFXLON
 70
0
  9
$DIMJOGANG
 40
0.785398163397
  9
$DIMTFILL
 70
0
  9
$DIMTFILLCLR
 70
0
  9
$DIMARCSYM
 70
0
  9
$DIMLTYPE
  6

  9
$DIMLTEX1
  6

  9
$DIMLTEX2
  6

  9
$DIMTXTDIRECTION
 70
0
  9
$LUNITS
 70
2
  9
$LUPREC
 70
4
  9
$SKETCHINC
 40
1.0
  9
$FILLETRAD
 40
10.0
  9
$AUNITS
 70
0
  9
$AUPREC
 70
2
  9
$MENU
  1
.
  9
$ELEVATION
 40
0.0
  9
$PELEVATION
 40
0.0
  9
$THICKNESS
 40
0.0
  9
$LIMCHECK
 70
0
  9
$CHAMFERA
 40
0.0
  9
$CHAMFERB
 40
0.0
  9
$CHAMFERC
 40
0.0
  9
$CHAMFERD
 40
0.0
  9
$SKPOLY
 70
0
  9
$TDCREATE
 40
2461294.071446759
  9
$TDUCREATE
 40
2458532.153996898
  9
$TDUPDATE
 40
2461294.071446759
  9
$TDUUPDATE
 40
2458532.1544311
  9
$TDINDWG
 40
0.0
  9
$TDUSRTIMER
 40
0.0
  9
$USRTIMER
 70
1
  9
$ANGBASE
 50
0.0
  9
$ANGDIR
 70
0
  9
$PDMODE
 70
0
  9
$PDSIZE
 40
0.0
  9
$PLINEWID
 40
0.0
  9
$SPLFRAME
 70
0
  9
$SPLINETYPE
 70
6
  9
$SPLINESEGS
 70
8
  9
$HANDSEED
  5
2A5
  9
$SURFTAB1
 70
6
  9
$SURFTAB2
 70
6
  9
$SURFTYPE
 70
6
  9
$SURFU
 70
6
  9
$SURFV
 70
6
  9
$UCSBASE
  2

  9
$UCSNAME
  2

  9
$UCSORG
 10
0.0
 20
0.0
 30
0.0
  9
$UCSXDIR
 10
1.0
 20
0.0
 30
0.0
  9
$UCSYDIR
 10
0.0
 20
1.0
 30
0.0
  9
$UCSORTHOREF
  2

  9
$UCSORTHOVIEW
 70
0
  9
$UCSORGTOP
 10
0.0
 20
0.0
 30
0.0
  9
$UCSORGBOTTOM
 10
0.0
 20
0.0
 30
0.0
  9
$UCSORGLEFT
 10
0.0
 20
0.0
 30
0.0
  9
$UCSORGRIGHT
 10
0.0
 20
0.0
 30
0.0
  9
$UCSORGFRONT
 10
0.0
 20
0.0
 30
0.0
  9
$UCSORGBACK
 10
0.0
 20
0.0
 30
0.0
  9
$PUCSBASE
  2

  9
$PUCSNAME
  2

  9
$PUCSORG
 10
0.0
 20
0.0
 30
0.0
  9
$PUCSXDIR
 10
1.0
 20
0.0
 30
0.0
  9
$PUCSYDIR
 10
0.0
 20
1.0
 30
0.0
  9
$PUCSORTHOREF
  2

  9
$PUCSORTHOVIEW
 70
0
  9
$PUCSORGTOP
 10
0.0
 20
0.0
 30
0.0
  9
$PUCSORGBOTTOM
 10
0.0
 20
0.0
 30
0.0
  9
$PUCSORGLEFT
 10
0.0
 20
0.0
 30
0.0
  9
$PUCSORGRIGHT
 10
0.0
 20
0.0
 30
0.0
  9
$PUCSORGFRONT
 10
0.0
 20
0.0
 30
0.0
  9
$PUCSORGBACK
 10
0.0
 20
0.0
 30
0.0
  9
$USERI1
 70
0
  9
$USERI2
 70
0
  9
$USERI3
 70
0
  9
$USERI4
 70
0
  9
$USERI5
 70
0
  9
$USERR1
 40
0.0
  9
$USERR2
 40
0.0
  9
$USERR3
 40
0.0
  9
$USERR4
 40
0.0
  9
$USERR5
 40
0.0
  9
$WORLDVIEW
 70
1
  9
$SHADEDGE
 70
3
  9
$SHADEDIF
 70
70
  9
$TILEMODE
 70
1
  9
$MAXACTVP
 70
64
  9
$PINSBASE
 10
0.0
 20
0.0
 30
0.0
  9
$PLIMCHECK
 70
0
  9
$PEXTMIN
 10
1e+20
 20
1e+20
 30
1e+20
  9
$PEXTMAX
 10
-1e+20
 20
-1e+20
 30
-1e+20
  9
$PLIMMIN
 10
0.0
 20
0.0
  9
$PLIMMAX
 10
420.0
 20
297.0
  9
$UNITMODE
 70
0
  9
$VISRETAIN
 70
1
  9
$PLINEGEN
 70
0
  9
$PSLTSCALE
 70
1
  9
$TREEDEPTH
 70
3020
  9
$CMLSTYLE
  2
Standard
  9
$CMLJUST
 70
0
  9
$CMLSCALE
 40
20.0
  9
$PROXYGRAPHICS
 70
1
  9
$MEASUREMENT
 70
1
  9
$CELWEIGHT
370
-1
  9
$ENDCAPS
280
0
  9
$JOINSTYLE
280
0
  9
$LWDISPLAY
290
0
  9
$INSUNITS
 70
4
  9
$HYPERLINKBASE
  1

  9
$STYLESHEET
  1

  9
$XEDIT
290
1
  9
$CEPSNTYPE
380
0
  9
$PSTYLEMODE
290
1
  9
$FINGERPRINTGUID
  2
{9A7121F9-B489-4417-B747-DBEE84C98D55}
  9
$VERSIONGUID
  2
{584D757D-08F1-4854-9107-D511E424C1F8}
  9
$EXTNAMES
290
1
  9
$PSVPSCALE
 40
0.0
  9
$OLESTARTUP
290
0
  9
$SORTENTS
280
127
  9
$INDEXCTL
280
0
  9
$HIDETEXT
280
1
  9
$XCLIPFRAME
280
1
  9
$HALOGAP
280
0
  9
$OBSCOLOR
 70
257
  9
$OBSLTYPE
280
0
  9
$INTERSECTIONDISPLAY
280
0
  9
$INTERSECTIONCOLOR
 70
257
  9
$DIMASSOC
280
2
  9
$PROJECTNAME
  1

  9
$CAMERADISPLAY
290
0
  9
$LENSLENGTH
 40
50.0
  9
$CAMERAHEIGHT
 40
0.0
  9
$STEPSPERSEC
 40
24.0
  9
$STEPSIZE
 40
100.0
  9
$3DDWFPREC
 40
2.0
  9
$PSOLWIDTH
 40
0.005
  9
$PSOLHEIGHT
 40
0.08
  9
$LOFTANG1
 40
1.570796326795
  9
$LOFTANG2
 40
1.570796326795
  9
$LOFTMAG1
 40
0.0
  9
$LOFTMAG2
 40
0.0
  9
$LOFTPARAM
 70
7
  9
$LOFTNORMALS
280
1
  9
$LATITUDE
 40
37.795
  9
$LONGITUDE
 40
-122.394
  9
$NORTHDIRECTION
 40
0.0
  9
$TIMEZONE
 70
-8000
  9
$LIGHTGLYPHDISPLAY
280
1
  9
$TILEMODELIGHTSYNCH
280
1
  9
$CMATERIAL
347
20
  9
$SOLIDHIST
280
0
  9
$SHOWHIST
280
1
  9
$DWFFRAME
280
2
  9
$DGNFRAME
280
2
  9
$REALWORLDSCALE
290
1
  9
$INTERFERECOLOR
 62
256
  9
$CSHADOW
280
0
  9
$SHADOWPLANELOCATION
 40
0.0
  0
ENDSEC
  0
SECTION
  2
CLASSES
  0
CLASS
  1
ACDBDICTIONARYWDFLT
  2
AcDbDictionaryWithDefault
  3
ObjectDBX Classes
 90
0
 91
0
280
0
281
0
  0
CLASS
  1
SUN
  2
AcDbSun
  3
SCENEOE
 90
1153
 91
0
280
0
281
0
  0
CLASS
  1
VISUALSTYLE
  2
AcDbVisualStyle
  3
ObjectDBX Classes
 90
4095
 91
0
280
0
281
0
  0
CLASS
  1
MATERIAL
  2
AcDbMaterial
  3
ObjectDBX Classes
 90
1153
 91
0
280
0
281
0
  0
CLASS
  1
SCALE
  2
AcDbScale
  3
ObjectDBX Classes
 90
1153
 91
0
280
0
281
0
  0
CLASS
  1
TABLESTYLE
  2
AcDbTableStyle
  3
ObjectDBX Classes
 90
4095
 91
0
280
0
281
0
  0
CLASS
  1
MLEADERSTYLE
  2
AcDbMLeaderStyle
  3
ACDB_MLEADERSTYLE_CLASS
 90
4095
 91
0
280
0
281
0
  0
CLASS
  1
DICTIONARYVAR
  2
AcDbDictionaryVar
  3
ObjectDBX Classes
 90
0
 91
0
280
0
281
0
  0
CLASS
  1
CELLSTYLEMAP
  2
AcDbCellStyleMap
  3
ObjectDBX Classes
 90
1152
 91
0
280
0
281
0
  0
CLASS
  1
MENTALRAYRENDERSETTINGS
  2
AcDbMentalRayRenderSettings
  3
SCENEOE
 90
1024
 91
0
280
0
281
0
  0
CLASS
  1
ACDBDETAILVIEWSTYLE
  2
AcDbDetailViewStyle
  3
ObjectDBX Classes
 90
1025
 91
0
280
0
281
0
  0
CLASS
  1
ACDBSECTIONVIEWSTYLE
  2
AcDbSectionViewStyle
  3
ObjectDBX Classes
 90
1025
 91
0
280
0
281
0
  0
CLASS
  1
RASTERVARIABLES
  2
AcDbRasterVariables
  3
ISM
 90
0
 91
0
280
0
281
0
  0
CLASS
  1
ACDBPLACEHOLDER
  2
AcDbPlaceHolder
  3
ObjectDBX Classes
 90
0
 91
0
280
0
281
0
  0
CLASS
  1
LAYOUT
  2
AcDbLayout
  3
ObjectDBX Classes
 90
0
 91
0
280
0
281
0
  0
ENDSEC
  0
SECTION
  2
TABLES
  0
TABLE
  2
VPORT
  5
8
330
0
100
AcDbSymbolTable
 70
1
  0
VPORT
  5
23
330
8
100
AcDbSymbolTableRecord
100
AcDbViewportTableRecord
  2
*Active
 70
0
 10
0.0
 20
0.0
 11
1.0
 21
1.0
 12
0.0
 22
0.0
 13
0.0
 23
0.0
 14
0.5
 24
0.5
 15
0.5
 25
0.5
 16
0.0
 26
0.0
 36
1.0
 17
0.0
 27
0.0
 37
0.0
 40
1000.0
 41
1.34
 42
50.0
 43
0.0
 44
0.0
 50
0.0
 51
0.0
 71
0
 72
1000
 73
1
 74
3
 75
0
 76
0
 77
0
 78
0
281
0
 65
0
146
0.0
  0
ENDTAB
  0
TABLE
  2
LTYPE
  5
2
330
0
100
AcDbSymbolTable
 70
21
  0
LTYPE
  5
24
330
2
100
AcDbSymbolTableRecord
100
AcDbLinetypeTableRecord
  2
ByBlock
 70
0
  3

 72
65
 73
0
 40
0.0
  0
LTYPE
  5
25
330
2
100
AcDbSymbolTableRecord
100
AcDbLinetypeTableRecord
  2
ByLayer
 70
0
  3

 72
65
 73
0
 40
0.0
  0
LTYPE
  5
26
330
2
100
AcDbSymbolTableRecord
100
AcDbLinetypeTableRecord
  2
Continuous
 70
0
  3

 72
65
 73
0
 40
0.0
  0
LTYPE
  5
2F
330
2
100
AcDbSymbolTableRecord
100
AcDbLinetypeTableRecord
  2
CENTER
 70
0
  3
Center ____ _ ____ _ ____ _ ____ _ ____ _ ____
 72
65
 73
4
 40
5.08
 49
3.175
 74
0
 49
-0.635
 74
0
 49
0.635
 74
0
 49
-0.635
 74
0
  0
LTYPE
  5
30
330
2
100
AcDbSymbolTableRecord
100
AcDbLinetypeTableRecord
  2
CENTERX2
 70
0
  3
Center (2x) ________  __  ________  __  ________
 72
65
 73
4
 40
8.89
 49
6.35
 74
0
 49
-0.635
 74
0
 49
1.27
 74
0
 49
-0.635
 74
0
  0
LTYPE
  5
31
330
2
100
AcDbSymbolTableRecord
100
AcDbLinetypeTableRecord
  2
CENTER2
 70
0
  3
Center (.5x) ____ _ ____ _ ____ _ ____ _ ____
 72
65
 73
4
 40
2.54
 49
1.587
 74
0
 49
-0.318
 74
0
 49
0.318
 74
0
 49
-0.318
 74
0
  0
LTYPE
  5
32
330
2
100
AcDbSymbolTableRecord
100
AcDbLinetypeTableRecord
  2
DASHED
 70
0
  3
Dashed __ __ __ __ __ __ __ __ __ __ __ __ __ _
 72
65
 73
2
 40
1.524
 49
1.27
 74
0
 49
-0.254
 74
0
  0
LTYPE
  5
33
330
2
100
AcDbSymbolTableRecord
100
AcDbLinetypeTableRecord
  2
DASHEDX2
 70
0
  3
Dashed (2x) ____  ____  ____  ____  ____  ____
 72
65
 73
2
 40
3.048
 49
2.54
 74
0
 49
-0.508
 74
0
  0
LTYPE
  5
34
330
2
100
AcDbSymbolTableRecord
100
AcDbLinetypeTableRecord
  2
DASHED2
 70
0
  3
Dashed (.5x) _ _ _ _ _ _ _ _ _ _ _ _ _ _
 72
65
 73
2
 40
0.762
 49
0.635
 74
0
 49
-0.127
 74
0
  0
LTYPE
  5
35
330
2
100
AcDbSymbolTableRecord
100
AcDbLinetypeTableRecord
  2
PHANTOM
 70
0
  3
Phantom ______  __  __  ______  __  __  ______
 72
65
 73
6
 40
6.35
 49
3.175
 74
0
 49
-0.635
 74
0
 49
0.635
 74
0
 49
-0.635
 74
0
 49
0.635
 74
0
 49
-0.635
 74
0
  0
LTYPE
  5
36
330
2
100
AcDbSymbolTableRecord
100
AcDbLinetypeTableRecord
  2
PHANTOMX2
 70
0
  3
Phantom (2x)____________    ____    ____    ____________
 72
65
 73
6
 40
10.795
 49
6.35
 74
0
 49
-0.635
 74
0
 49
1.27
 74
0
 49
-0.635
 74
0
 49
1.27
 74
0
 49
-0.635
 74
0
  0
LTYPE
  5
37
330
2
100
AcDbSymbolTableRecord
100
AcDbLinetypeTableRecord
  2
PHANTOM2
 70
0
  3
Phantom (.5x) ___ _ _ ___ _ _ ___ _ _ ___ _ _ ___
 72
65
 73
6
 40
3.175
 49
1.587
 74
0
 49
-0.318
 74
0
 49
0.318
 74
0
 49
-0.318
 74
0
 49
0.318
 74
0
 49
-0.318
 74
0
  0
LTYPE
  5
38
330
2
100
AcDbSymbolTableRecord
100
AcDbLinetypeTableRecord
  2
DASHDOT
 70
0
  3
Dash dot __ . __ . __ . __ . __ . __ . __ . __
 72
65
 73
4
 40
3.556
 49
2.54
 74
0
 49
-0.508
 74
0
 49
0.0
 74
0
 49
-0.508
 74
0
  0
LTYPE
  5
39
330
2
100
AcDbSymbolTableRecord
100
AcDbLinetypeTableRecord
  2
DASHDOTX2
 70
0
  3
Dash dot (2x) ____  .  ____  .  ____  .  ____
 72
65
 73
4
 40
6.096
 49
5.08
 74
0
 49
-0.508
 74
0
 49
0.0
 74
0
 49
-0.508
 74
0
  0
LTYPE
  5
3A
330
2
100
AcDbSymbolTableRecord
100
AcDbLinetypeTableRecord
  2
DASHDOT2
 70
0
  3
Dash dot (.5x) _ . _ . _ . _ . _ . _ . _ . _
 72
65
 73
4
 40
1.778
 49
1.27
 74
0
 49
-0.254
 74
0
 49
0.0
 74
0
 49
-0.254
 74
0
  0
LTYPE
  5
3B
330
2
100
AcDbSymbolTableRecord
100
AcDbLinetypeTableRecord
  2
DOT
 70
0
  3
Dot .  .  .  .  .  .  .  .  .  .  .  .  .  .  .  .
 72
65
 73
2
 40
0.508
 49
0.0
 74
0
 49
-0.508
 74
0
  0
LTYPE
  5
3C
330
2
100
AcDbSymbolTableRecord
100
AcDbLinetypeTableRecord
  2
DOTX2
 70
0
  3
Dot (2x) .    .    .    .    .    .    .    . 
 72
65
 73
2
 40
1.016
 49
0.0
 74
0
 49
-1.016
 74
0
  0
LTYPE
  5
3D
330
2
100
AcDbSymbolTableRecord
100
AcDbLinetypeTableRecord
  2
DOT2
 70
0
  3
Dot (.5) . . . . . . . . . . . . . . . . . . . 
 72
65
 73
2
 40
0.254
 49
0.0
 74
0
 49
-0.254
 74
0
  0
LTYPE
  5
3E
330
2
100
AcDbSymbolTableRecord
100
AcDbLinetypeTableRecord
  2
DIVIDE
 70
0
  3
Divide __ . . __ . . __ . . __ . . __ . . __
 72
65
 73
6
 40
4.064
 49
2.54
 74
0
 49
-0.508
 74
0
 49
0.0
 74
0
 49
-0.508
 74
0
 49
0.0
 74
0
 49
-0.508
 74
0
  0
LTYPE
  5
3F
330
2
100
AcDbSymbolTableRecord
100
AcDbLinetypeTableRecord
  2
DIVIDEX2
 70
0
  3
Divide (2x) ____  . .  ____  . .  ____  . .  ____
 72
65
 73
6
 40
6.604
 49
5.08
 74
0
 49
-0.508
 74
0
 49
0.0
 74
0
 49
-0.508
 74
0
 49
0.0
 74
0
 49
-0.508
 74
0
  0
LTYPE
  5
40
330
2
100
AcDbSymbolTableRecord
100
AcDbLinetypeTableRecord
  2
DIVIDE2
 70
0
  3
Divide(.5x) _ . _ . _ . _ . _ . _ . _ . _
 72
65
 73
6
 40
2.032
 49
1.27
 74
0
 49
-0.254
 74
0
 49
0.0
 74
0
 49
-0.254
 74
0
 49
0.0
 74
0
 49
-0.254
 74
0
  0
ENDTAB
  0
TABLE
  2
LAYER
  5
1
330
0
100
AcDbSymbolTable
 70
26
  0
LAYER
  5
27
330
1
100
AcDbSymbolTableRecord
100
AcDbLayerTableRecord
  2
0
 70
0
 62
7
  6
Continuous
370
-3
390
13
347
21
  0
LAYER
  5
28
330
1
100
AcDbSymbolTableRecord
100
AcDbLayerTableRecord
  2
Defpoints
 70
0
 62
7
  6
Continuous
290
0
370
-3
390
13
347
21
  0
LAYER
  5
8A
330
1
100
AcDbSymbolTableRecord
100
AcDbLayerTableRecord
  2
S-CONCRETE
 70
0
 62
7
  6
Continuous
370
-3
390
13
347
21
1001
AcAecLayerStandard
1000

1000
Structural concrete outlines (cut)
  0
LAYER
  5
8C
330
1
100
AcDbSymbolTableRecord
100
AcDbLayerTableRecord
  2
S-CONCRETE-THIN
 70
0
 62
7
  6
Continuous
370
-3
390
13
347
21
1001
AcAecLayerStandard
1000

1000
Concrete beyond the cut plane
  0
LAYER
  5
8D
330
1
100
AcDbSymbolTableRecord
100
AcDbLayerTableRecord
  2
S-HIDDEN
 70
0
 62
8
  6
Continuous
370
-3
390
13
347
21
1001
AcAecLayerStandard
1000

1000
Concrete / features beyond, hidden
  0
LAYER
  5
8E
330
1
100
AcDbSymbolTableRecord
100
AcDbLayerTableRecord
  2
S-REBAR-MAIN
 70
0
 62
1
  6
Continuous
370
-3
390
13
347
21
1001
AcAecLayerStandard
1000

1000
Main reinforcement
  0
LAYER
  5
8F
330
1
100
AcDbSymbolTableRecord
100
AcDbLayerTableRecord
  2
S-REBAR-DIST
 70
0
 62
3
  6
Continuous
370
-3
390
13
347
21
1001
AcAecLayerStandard
1000

1000
Distribution reinforcement
  0
LAYER
  5
90
330
1
100
AcDbSymbolTableRecord
100
AcDbLayerTableRecord
  2
S-REBAR-STIRRUP
 70
0
 62
6
  6
Continuous
370
-3
390
13
347
21
1001
AcAecLayerStandard
1000

1000
Links and stirrups
  0
LAYER
  5
91
330
1
100
AcDbSymbolTableRecord
100
AcDbLayerTableRecord
  2
S-REBAR-TIE
 70
0
 62
6
  6
Continuous
370
-3
390
13
347
21
1001
AcAecLayerStandard
1000

1000
Ties, cross-ties, starters
  0
LAYER
  5
92
330
1
100
AcDbSymbolTableRecord
100
AcDbLayerTableRecord
  2
S-REBAR-SEC
 70
0
 62
4
  6
Continuous
370
-3
390
13
347
21
1001
AcAecLayerStandard
1000

1000
Trimmers, secondary and additional bars
  0
LAYER
  5
93
330
1
100
AcDbSymbolTableRecord
100
AcDbLayerTableRecord
  2
S-DIM
 70
0
 62
4
  6
Continuous
370
-3
390
13
347
21
1001
AcAecLayerStandard
1000

1000
Dimensions
  0
LAYER
  5
94
330
1
100
AcDbSymbolTableRecord
100
AcDbLayerTableRecord
  2
S-TEXT
 70
0
 62
7
  6
Continuous
370
-3
390
13
347
21
1001
AcAecLayerStandard
1000

1000
General annotation
  0
LAYER
  5
95
330
1
100
AcDbSymbolTableRecord
100
AcDbLayerTableRecord
  2
S-NOTE
 70
0
 62
7
  6
Continuous
370
-3
390
13
347
21
1001
AcAecLayerStandard
1000

1000
Note panels
  0
LAYER
  5
96
330
1
100
AcDbSymbolTableRecord
100
AcDbLayerTableRecord
  2
S-CALLOUT
 70
0
 62
2
  6
Continuous
370
-3
390
13
347
21
1001
AcAecLayerStandard
1000

1000
Bar-mark balloons and leaders
  0
LAYER
  5
97
330
1
100
AcDbSymbolTableRecord
100
AcDbLayerTableRecord
  2
S-SECTION
 70
0
 62
1
  6
Continuous
370
-3
390
13
347
21
1001
AcAecLayerStandard
1000

1000
Section and detail markers
  0
LAYER
  5
98
330
1
100
AcDbSymbolTableRecord
100
AcDbLayerTableRecord
  2
S-GRID
 70
0
 62
5
  6
Continuous
370
-3
390
13
347
21
1001
AcAecLayerStandard
1000

1000
Grid lines and bubbles
  0
LAYER
  5
99
330
1
100
AcDbSymbolTableRecord
100
AcDbLayerTableRecord
  2
S-CENTER
 70
0
 62
6
  6
Continuous
370
-3
390
13
347
21
1001
AcAecLayerStandard
1000

1000
Centrelines
  0
LAYER
  5
9A
330
1
100
AcDbSymbolTableRecord
100
AcDbLayerTableRecord
  2
S-HATCH
 70
0
 62
8
  6
Continuous
370
-3
390
13
347
21
1001
AcAecLayerStandard
1000

1000
Section hatch
  0
LAYER
  5
9B
330
1
100
AcDbSymbolTableRecord
100
AcDbLayerTableRecord
  2
S-TITLE
 70
0
 62
7
  6
Continuous
370
-3
390
13
347
21
1001
AcAecLayerStandard
1000

1000
Border, title block, view titles
  0
LAYER
  5
9C
330
1
100
AcDbSymbolTableRecord
100
AcDbLayerTableRecord
  2
S-EXISTING
 70
0
 62
8
  6
Continuous
370
-3
390
13
347
21
1001
AcAecLayerStandard
1000

1000
Soil, rock, berm, cover layers
  0
LAYER
  5
9D
330
1
100
AcDbSymbolTableRecord
100
AcDbLayerTableRecord
  2
S-REFERENCE
 70
0
 62
8
  6
Continuous
370
-3
390
13
347
21
1001
AcAecLayerStandard
1000

1000
Reference geometry, extents
  0
LAYER
  5
9E
330
1
100
AcDbSymbolTableRecord
100
AcDbLayerTableRecord
  2
S-WATERPROOF
 70
0
 62
30
  6
Continuous
370
-3
390
13
347
21
1001
AcAecLayerStandard
1000

1000
Membranes, waterstops, GWT
  0
LAYER
  5
9F
330
1
100
AcDbSymbolTableRecord
100
AcDbLayerTableRecord
  2
S-STEELWORK
 70
0
 62
2
  6
Continuous
370
-3
390
13
347
21
1001
AcAecLayerStandard
1000

1000
Cast-in frames, EMP straps, steel items
  0
LAYER
  5
A0
330
1
100
AcDbSymbolTableRecord
100
AcDbLayerTableRecord
  2
S-LEVEL
 70
0
 62
4
  6
Continuous
370
-3
390
13
347
21
1001
AcAecLayerStandard
1000

1000
Level markers
  0
LAYER
  5
A1
330
1
100
AcDbSymbolTableRecord
100
AcDbLayerTableRecord
  2
S-TABLE
 70
0
 62
7
  6
Continuous
370
-3
390
13
347
21
1001
AcAecLayerStandard
1000

1000
Tables and schedules
  0
LAYER
  5
A2
330
1
100
AcDbSymbolTableRecord
100
AcDbLayerTableRecord
  2
S-BLAST
 70
0
 62
1
  6
Continuous
370
-3
390
13
347
21
1001
AcAecLayerStandard
1000

1000
Blast arrows, findings, warnings
  0
ENDTAB
  0
TABLE
  2
STYLE
  5
5
330
0
100
AcDbSymbolTable
 70
26
  0
STYLE
  5
29
330
5
100
AcDbSymbolTableRecord
100
AcDbTextStyleTableRecord
  2
Standard
 70
0
 40
0.0
 41
1.0
 50
0.0
 71
0
 42
2.5
  3
txt
  4

  0
STYLE
  5
41
330
5
100
AcDbSymbolTableRecord
100
AcDbTextStyleTableRecord
  2
OpenSans-Light
 70
0
 40
0.0
 41
1.0
 50
0.0
 71
0
 42
2.5
  3
OpenSans-Light.ttf
  4

  0
STYLE
  5
42
330
5
100
AcDbSymbolTableRecord
100
AcDbTextStyleTableRecord
  2
OpenSans-Light-Italic
 70
0
 40
0.0
 41
1.0
 50
0.0
 71
0
 42
2.5
  3
OpenSans-LightItalic.ttf
  4

  0
STYLE
  5
43
330
5
100
AcDbSymbolTableRecord
100
AcDbTextStyleTableRecord
  2
OpenSans
 70
0
 40
0.0
 41
1.0
 50
0.0
 71
0
 42
2.5
  3
OpenSans-Regular.ttf
  4

  0
STYLE
  5
44
330
5
100
AcDbSymbolTableRecord
100
AcDbTextStyleTableRecord
  2
OpenSans-Italic
 70
0
 40
0.0
 41
1.0
 50
0.0
 71
0
 42
2.5
  3
OpenSans-Italic.ttf
  4

  0
STYLE
  5
45
330
5
100
AcDbSymbolTableRecord
100
AcDbTextStyleTableRecord
  2
OpenSans-SemiBold
 70
0
 40
0.0
 41
1.0
 50
0.0
 71
0
 42
2.5
  3
OpenSans-SemiBold.ttf
  4

  0
STYLE
  5
46
330
5
100
AcDbSymbolTableRecord
100
AcDbTextStyleTableRecord
  2
OpenSans-SemiBoldItalic
 70
0
 40
0.0
 41
1.0
 50
0.0
 71
0
 42
2.5
  3
OpenSans-SemiBoldItalic.ttf
  4

  0
STYLE
  5
47
330
5
100
AcDbSymbolTableRecord
100
AcDbTextStyleTableRecord
  2
OpenSans-Bold
 70
0
 40
0.0
 41
1.0
 50
0.0
 71
0
 42
2.5
  3
OpenSans-Bold.ttf
  4

  0
STYLE
  5
48
330
5
100
AcDbSymbolTableRecord
100
AcDbTextStyleTableRecord
  2
OpenSans-BoldItalic
 70
0
 40
0.0
 41
1.0
 50
0.0
 71
0
 42
2.5
  3
OpenSans-BoldItalic.ttf
  4

  0
STYLE
  5
49
330
5
100
AcDbSymbolTableRecord
100
AcDbTextStyleTableRecord
  2
OpenSans-ExtraBold
 70
0
 40
0.0
 41
1.0
 50
0.0
 71
0
 42
2.5
  3
OpenSans-ExtraBold.ttf
  4

  0
STYLE
  5
4A
330
5
100
AcDbSymbolTableRecord
100
AcDbTextStyleTableRecord
  2
OpenSans-ExtraBoldItalic
 70
0
 40
0.0
 41
1.0
 50
0.0
 71
0
 42
2.5
  3
OpenSans-ExtraBoldItalic.ttf
  4

  0
STYLE
  5
4B
330
5
100
AcDbSymbolTableRecord
100
AcDbTextStyleTableRecord
  2
OpenSansCondensed-Bold
 70
0
 40
0.0
 41
1.0
 50
0.0
 71
0
 42
2.5
  3
OpenSansCondensed-Bold.ttf
  4

  0
STYLE
  5
4C
330
5
100
AcDbSymbolTableRecord
100
AcDbTextStyleTableRecord
  2
OpenSansCondensed-Light
 70
0
 40
0.0
 41
1.0
 50
0.0
 71
0
 42
2.5
  3
OpenSansCondensed-Light.ttf
  4

  0
STYLE
  5
4D
330
5
100
AcDbSymbolTableRecord
100
AcDbTextStyleTableRecord
  2
OpenSansCondensed-Italic
 70
0
 40
0.0
 41
1.0
 50
0.0
 71
0
 42
2.5
  3
OpenSansCondensed-LightItalic.ttf
  4

  0
STYLE
  5
4E
330
5
100
AcDbSymbolTableRecord
100
AcDbTextStyleTableRecord
  2
LiberationSans
 70
0
 40
0.0
 41
1.0
 50
0.0
 71
0
 42
2.5
  3
LiberationSans-Regular.ttf
  4

  0
STYLE
  5
4F
330
5
100
AcDbSymbolTableRecord
100
AcDbTextStyleTableRecord
  2
LiberationSans-Bold
 70
0
 40
0.0
 41
1.0
 50
0.0
 71
0
 42
2.5
  3
LiberationSans-Bold.ttf
  4

  0
STYLE
  5
50
330
5
100
AcDbSymbolTableRecord
100
AcDbTextStyleTableRecord
  2
LiberationSans-BoldItalic
 70
0
 40
0.0
 41
1.0
 50
0.0
 71
0
 42
2.5
  3
LiberationSans-BoldItalic.ttf
  4

  0
STYLE
  5
51
330
5
100
AcDbSymbolTableRecord
100
AcDbTextStyleTableRecord
  2
LiberationSans-Italic
 70
0
 40
0.0
 41
1.0
 50
0.0
 71
0
 42
2.5
  3
LiberationSans-Italic.ttf
  4

  0
STYLE
  5
52
330
5
100
AcDbSymbolTableRecord
100
AcDbTextStyleTableRecord
  2
LiberationSerif
 70
0
 40
0.0
 41
1.0
 50
0.0
 71
0
 42
2.5
  3
LiberationSerif-Regular.ttf
  4

  0
STYLE
  5
53
330
5
100
AcDbSymbolTableRecord
100
AcDbTextStyleTableRecord
  2
LiberationSerif-Bold
 70
0
 40
0.0
 41
1.0
 50
0.0
 71
0
 42
2.5
  3
LiberationSerif-Bold.ttf
  4

  0
STYLE
  5
54
330
5
100
AcDbSymbolTableRecord
100
AcDbTextStyleTableRecord
  2
LiberationSerif-BoldItalic
 70
0
 40
0.0
 41
1.0
 50
0.0
 71
0
 42
2.5
  3
LiberationSerif-BoldItalic.ttf
  4

  0
STYLE
  5
55
330
5
100
AcDbSymbolTableRecord
100
AcDbTextStyleTableRecord
  2
LiberationSerif-Italic
 70
0
 40
0.0
 41
1.0
 50
0.0
 71
0
 42
2.5
  3
LiberationSerif-Italic.ttf
  4

  0
STYLE
  5
56
330
5
100
AcDbSymbolTableRecord
100
AcDbTextStyleTableRecord
  2
LiberationMono
 70
0
 40
0.0
 41
1.0
 50
0.0
 71
0
 42
2.5
  3
LiberationMono-Regular.ttf
  4

  0
STYLE
  5
57
330
5
100
AcDbSymbolTableRecord
100
AcDbTextStyleTableRecord
  2
LiberationMono-Bold
 70
0
 40
0.0
 41
1.0
 50
0.0
 71
0
 42
2.5
  3
LiberationMono-Bold.ttf
  4

  0
STYLE
  5
58
330
5
100
AcDbSymbolTableRecord
100
AcDbTextStyleTableRecord
  2
LiberationMono-BoldItalic
 70
0
 40
0.0
 41
1.0
 50
0.0
 71
0
 42
2.5
  3
LiberationMono-BoldItalic.ttf
  4

  0
STYLE
  5
59
330
5
100
AcDbSymbolTableRecord
100
AcDbTextStyleTableRecord
  2
LiberationMono-Italic
 70
0
 40
0.0
 41
1.0
 50
0.0
 71
0
 42
2.5
  3
LiberationMono-Italic.ttf
  4

  0
ENDTAB
  0
TABLE
  2
VIEW
  5
7
330
0
100
AcDbSymbolTable
 70
0
  0
ENDTAB
  0
TABLE
  2
UCS
  5
6
330
0
100
AcDbSymbolTable
 70
0
  0
ENDTAB
  0
TABLE
  2
APPID
  5
3
330
0
100
AcDbSymbolTable
 70
4
  0
APPID
  5
2A
330
3
100
AcDbSymbolTableRecord
100
AcDbRegAppTableRecord
  2
ACAD
 70
0
  0
APPID
  5
8B
330
3
100
AcDbSymbolTableRecord
100
AcDbRegAppTableRecord
  2
AcAecLayerStandard
 70
0
  0
APPID
  5
2A2
330
3
100
AcDbSymbolTableRecord
100
AcDbRegAppTableRecord
  2
HATCHBACKGROUNDCOLOR
 70
0
  0
APPID
  5
2A3
330
3
100
AcDbSymbolTableRecord
100
AcDbRegAppTableRecord
  2
EZDXF
 70
0
  0
ENDTAB
  0
TABLE
  2
DIMSTYLE
  5
4
330
0
100
AcDbSymbolTable
 70
14
100
AcDbDimStyleTable
  0
DIMSTYLE
105
2B
330
4
100
AcDbSymbolTableRecord
100
AcDbDimStyleTableRecord
  2
Standard
 70
0
 40
1.0
 41
2.5
 42
0.625
 43
3.75
 44
1.25
 45
0.0
 46
0.0
 47
0.0
 48
0.0
 49
2.5
140
2.5
141
2.5
142
0.0
143
0.03937007874
144
1.0
145
0.0
146
1.0
147
0.625
148
0.0
 69
0
 70
0
 71
0
 72
0
 73
0
 74
0
 75
0
 76
0
 77
1
 78
8
 79
3
170
0
171
3
172
1
173
0
174
0
175
0
176
0
177
0
178
0
179
2
271
2
272
2
273
2
274
3
275
0
276
0
277
2
278
44
279
0
280
0
281
0
282
0
283
0
284
8
285
0
286
0
288
0
289
3
290
0
371
-2
372
-2
  0
DIMSTYLE
105
73
330
4
100
AcDbSymbolTableRecord
100
AcDbDimStyleTableRecord
  2
EZDXF
 70
0
 40
1.0
 41
0.175
 42
0.125
 43
3.75
 44
0.375
 45
0.0
 46
0.0
 47
0.0
 48
0.0
 49
2.5
140
0.25
141
2.5
142
0.0
143
0.03937007874
144
100.0
145
0.0
146
0.5
147
0.1
148
0.0
 69
0
 70
0
 71
0
 72
0
 73
0
 74
0
 75
0
 76
0
 77
1
 78
12
 79
3
170
0
171
3
172
1
173
0
174
0
175
0
176
0
177
0
178
0
179
2
271
2
272
2
273
2
274
3
275
0
276
0
277
2
278
46
279
2
280
0
281
0
282
0
283
0
284
8
285
0
286
0
288
1
289
3
290
0
340
4C
342
74
371
-2
372
-2
  0
DIMSTYLE
105
7C
330
4
100
AcDbSymbolTableRecord
100
AcDbDimStyleTableRecord
  2
EZ_M_100_H25_CM
 70
0
 40
1.0
 41
0.25
 42
0.125
 43
3.75
 44
0.375
 45
0.0
 46
0.0
 47
0.0
 48
0.0
 49
2.5
140
0.25
141
2.5
142
0.125
143
0.03937007874
144
100.0
145
0.0
146
0.5
147
0.1
148
0.0
 69
0
 70
0
 71
0
 72
0
 73
0
 74
0
 75
0
 76
0
 77
1
 78
12
 79
3
170
0
171
3
172
1
173
0
174
0
175
0
176
0
177
0
178
0
179
2
271
2
272
2
273
2
274
3
275
0
276
0
277
2
278
46
279
2
280
0
281
0
282
0
283
0
284
8
285
0
286
0
288
1
289
3
290
0
340
4C
371
-2
372
-2
  0
DIMSTYLE
105
7D
330
4
100
AcDbSymbolTableRecord
100
AcDbDimStyleTableRecord
  2
EZ_M_50_H25_CM
 70
0
 40
1.0
 41
0.125
 42
0.0625
 43
3.75
 44
0.1875
 45
0.0
 46
0.0
 47
0.0
 48
0.0
 49
2.5
140
0.125
141
2.5
142
0.0625
143
0.03937007874
144
100.0
145
0.0
146
0.5
147
0.05
148
0.0
 69
0
 70
0
 71
0
 72
0
 73
0
 74
0
 75
0
 76
0
 77
1
 78
12
 79
3
170
0
171
3
172
1
173
0
174
0
175
0
176
0
177
0
178
0
179
2
271
2
272
2
273
2
274
3
275
0
276
0
277
2
278
46
279
2
280
0
281
0
282
0
283
0
284
8
285
0
286
0
288
1
289
3
290
0
340
4C
371
-2
372
-2
  0
DIMSTYLE
105
7E
330
4
100
AcDbSymbolTableRecord
100
AcDbDimStyleTableRecord
  2
EZ_M_25_H25_CM
 70
0
 40
1.0
 41
0.0625
 42
0.03125
 43
3.75
 44
0.09375
 45
0.0
 46
0.0
 47
0.0
 48
0.0
 49
2.5
140
0.0625
141
2.5
142
0.03125
143
0.03937007874
144
100.0
145
0.0
146
0.5
147
0.025
148
0.0
 69
0
 70
0
 71
0
 72
0
 73
0
 74
0
 75
0
 76
0
 77
1
 78
12
 79
3
170
0
171
3
172
1
173
0
174
0
175
0
176
0
177
0
178
0
179
2
271
2
272
2
273
2
274
3
275
0
276
0
277
2
278
46
279
2
280
0
281
0
282
0
283
0
284
8
285
0
286
0
288
1
289
3
290
0
340
4C
371
-2
372
-2
  0
DIMSTYLE
105
7F
330
4
100
AcDbSymbolTableRecord
100
AcDbDimStyleTableRecord
  2
EZ_M_20_H25_CM
 70
0
 40
1.0
 41
0.05
 42
0.025
 43
3.75
 44
0.07500000000000001
 45
0.0
 46
0.0
 47
0.0
 48
0.0
 49
2.5
140
0.05
141
2.5
142
0.025
143
0.03937007874
144
100.0
145
0.0
146
0.5
147
0.020000000000000004
148
0.0
 69
0
 70
0
 71
0
 72
0
 73
0
 74
0
 75
0
 76
0
 77
1
 78
12
 79
3
170
0
171
3
172
1
173
0
174
0
175
0
176
0
177
0
178
0
179
2
271
2
272
2
273
2
274
3
275
0
276
0
277
2
278
46
279
2
280
0
281
0
282
0
283
0
284
8
285
0
286
0
288
1
289
3
290
0
340
4C
371
-2
372
-2
  0
DIMSTYLE
105
80
330
4
100
AcDbSymbolTableRecord
100
AcDbDimStyleTableRecord
  2
EZ_M_10_H25_CM
 70
0
 40
1.0
 41
0.025
 42
0.0125
 43
3.75
 44
0.037500000000000006
 45
0.0
 46
0.0
 47
0.0
 48
0.0
 49
2.5
140
0.025
141
2.5
142
0.0125
143
0.03937007874
144
100.0
145
0.0
146
0.5
147
0.010000000000000002
148
0.0
 69
0
 70
0
 71
0
 72
0
 73
0
 74
0
 75
0
 76
0
 77
1
 78
12
 79
3
170
0
171
3
172
1
173
0
174
0
175
0
176
0
177
0
178
0
179
2
271
2
272
2
273
2
274
3
275
0
276
0
277
2
278
46
279
2
280
0
281
0
282
0
283
0
284
8
285
0
286
0
288
1
289
3
290
0
340
4C
371
-2
372
-2
  0
DIMSTYLE
105
81
330
4
100
AcDbSymbolTableRecord
100
AcDbDimStyleTableRecord
  2
EZ_M_5_H25_CM
 70
0
 40
1.0
 41
0.0125
 42
0.00625
 43
3.75
 44
0.018750000000000003
 45
0.0
 46
0.0
 47
0.0
 48
0.0
 49
2.5
140
0.0125
141
2.5
142
0.00625
143
0.03937007874
144
100.0
145
0.0
146
0.5
147
0.005000000000000001
148
0.0
 69
0
 70
0
 71
0
 72
0
 73
0
 74
0
 75
0
 76
0
 77
1
 78
12
 79
3
170
0
171
3
172
1
173
0
174
0
175
0
176
0
177
0
178
0
179
2
271
2
272
2
273
2
274
3
275
0
276
0
277
2
278
46
279
2
280
0
281
0
282
0
283
0
284
8
285
0
286
0
288
1
289
3
290
0
340
4C
371
-2
372
-2
  0
DIMSTYLE
105
82
330
4
100
AcDbSymbolTableRecord
100
AcDbDimStyleTableRecord
  2
EZ_M_1_H25_CM
 70
0
 40
1.0
 41
0.0025
 42
0.00125
 43
3.75
 44
0.00375
 45
0.0
 46
0.0
 47
0.0
 48
0.0
 49
2.5
140
0.0025
141
2.5
142
0.00125
143
0.03937007874
144
100.0
145
0.0
146
0.5
147
0.001
148
0.0
 69
0
 70
0
 71
0
 72
0
 73
0
 74
0
 75
0
 76
0
 77
1
 78
12
 79
3
170
0
171
3
172
1
173
0
174
0
175
0
176
0
177
0
178
0
179
2
271
2
272
2
273
2
274
3
275
0
276
0
277
2
278
46
279
2
280
0
281
0
282
0
283
0
284
8
285
0
286
0
288
1
289
3
290
0
340
4C
371
-2
372
-2
  0
DIMSTYLE
105
83
330
4
100
AcDbSymbolTableRecord
100
AcDbDimStyleTableRecord
  2
EZ_RADIUS
 70
0
 40
1.0
 41
0.25
 42
0.125
 43
3.75
 44
0.375
 45
0.0
 46
0.0
 47
0.0
 48
0.0
 49
2.5
140
0.25
141
0.0
142
0.0
143
0.03937007874
144
100.0
145
0.0
146
0.5
147
0.1
148
0.0
 69
0
 70
0
 71
0
 72
0
 73
0
 74
0
 75
0
 76
0
 77
1
 78
12
 79
3
170
0
171
3
172
0
173
0
174
0
175
0
176
0
177
0
178
0
179
2
271
2
272
2
273
2
274
3
275
0
276
0
277
2
278
46
279
1
280
0
281
0
282
0
283
0
284
8
285
0
286
0
288
1
289
3
290
0
340
4C
342
84
371
-2
372
-2
  0
DIMSTYLE
105
88
330
4
100
AcDbSymbolTableRecord
100
AcDbDimStyleTableRecord
  2
EZ_RADIUS_INSIDE
 70
0
 40
1.0
 41
0.25
 42
0.125
 43
3.75
 44
0.375
 45
0.0
 46
0.0
 47
0.0
 48
0.0
 49
2.5
140
0.25
141
0.0
142
0.0
143
0.03937007874
144
100.0
145
0.0
146
0.5
147
0.1
148
0.0
 69
0
 70
0
 71
0
 72
0
 73
0
 74
0
 75
0
 76
0
 77
0
 78
12
 79
3
170
0
171
3
172
0
173
0
174
1
175
0
176
0
177
0
178
0
179
2
271
2
272
2
273
2
274
3
275
0
276
0
277
2
278
46
279
0
280
0
281
0
282
0
283
0
284
8
285
0
286
0
288
1
289
0
290
0
340
4C
342
84
371
-2
372
-2
  0
DIMSTYLE
105
89
330
4
100
AcDbSymbolTableRecord
100
AcDbDimStyleTableRecord
  2
EZ_CURVED
 70
0
 40
1.0
 41
0.25
 42
0.125
 43
3.75
 44
0.375
 45
0.0
 46
0.0
 47
0.0
 48
0.0
 49
2.5
140
0.25
141
2.5
142
0.0
143
0.03937007874
144
100.0
145
0.0
146
0.5
147
0.1
148
0.0
 69
0
 70
0
 71
0
 72
0
 73
0
 74
0
 75
0
 76
0
 77
1
 78
12
 79
2
 90
2
170
0
171
3
172
1
173
0
174
0
175
0
176
0
177
0
178
0
179
2
271
2
272
2
273
2
274
3
275
0
276
0
277
2
278
46
279
2
280
0
281
0
282
0
283
0
284
8
285
0
286
0
288
1
289
3
290
0
340
4C
371
-2
372
-2
  0
DIMSTYLE
105
A3
330
4
100
AcDbSymbolTableRecord
100
AcDbDimStyleTableRecord
  2
SC-DIM
 70
0
 40
1.0
 41
1.6
 42
1.0
 43
3.75
 44
1.2
 45
0.0
 46
0.0
 47
0.0
 48
0.0
 49
2.5
140
1.8
141
2.5
142
0.0
143
0.03937007874
144
1.0
145
0.0
146
1.0
147
0.8
148
0.0
 69
0
 70
0
 71
0
 72
0
 73
0
 74
0
 75
0
 76
0
 77
1
 78
8
 79
3
170
0
171
3
172
1
173
0
174
0
175
0
176
4
177
4
178
4
179
2
271
0
272
2
273
2
274
3
275
0
276
0
277
2
278
44
279
0
280
0
281
0
282
0
283
0
284
8
285
0
286
0
288
0
289
3
290
0
342
74
371
13
372
13
  0
DIMSTYLE
105
A4
330
4
100
AcDbSymbolTableRecord
100
AcDbDimStyleTableRecord
  2
SC-DIM-S
 70
0
 40
1.0
 41
1.2
 42
1.0
 43
3.75
 44
1.2
 45
0.0
 46
0.0
 47
0.0
 48
0.0
 49
2.5
140
1.4
141
2.5
142
0.0
143
0.03937007874
144
1.0
145
0.0
146
1.0
147
0.8
148
0.0
 69
0
 70
0
 71
0
 72
0
 73
0
 74
0
 75
0
 76
0
 77
1
 78
8
 79
3
170
0
171
3
172
1
173
0
174
0
175
0
176
4
177
4
178
4
179
2
271
0
272
2
273
2
274
3
275
0
276
0
277
2
278
44
279
0
280
0
281
0
282
0
283
0
284
8
285
0
286
0
288
0
289
3
290
0
342
74
371
13
372
13
  0
ENDTAB
  0
TABLE
  2
BLOCK_RECORD
  5
9
330
0
100
AcDbSymbolTable
 70
23
  0
BLOCK_RECORD
  5
17
330
9
100
AcDbSymbolTableRecord
100
AcDbBlockTableRecord
  2
*Model_Space
340
1A
 70
0
280
1
281
0
  0
BLOCK_RECORD
  5
1B
330
9
100
AcDbSymbolTableRecord
100
AcDbBlockTableRecord
  2
*Paper_Space
340
1E
 70
0
280
1
281
0
  0
BLOCK_RECORD
  5
74
330
9
100
AcDbSymbolTableRecord
100
AcDbBlockTableRecord
  2
_ARCHTICK
340
0
 70
0
280
1
281
0
  0
BLOCK_RECORD
  5
78
330
9
100
AcDbSymbolTableRecord
100
AcDbBlockTableRecord
  2
_CLOSEDFILLED
340
0
 70
0
280
1
281
0
  0
BLOCK_RECORD
  5
84
330
9
100
AcDbSymbolTableRecord
100
AcDbBlockTableRecord
  2
_CLOSEDBLANK
340
0
 70
0
280
1
281
0
  0
BLOCK_RECORD
  5
A5
330
9
100
AcDbSymbolTableRecord
100
AcDbBlockTableRecord
  2
BARMARK
340
0
 70
0
280
1
281
0
  0
BLOCK_RECORD
  5
A9
330
9
100
AcDbSymbolTableRecord
100
AcDbBlockTableRecord
  2
SECMARK
340
0
 70
0
280
1
281
0
  0
BLOCK_RECORD
  5
AE
330
9
100
AcDbSymbolTableRecord
100
AcDbBlockTableRecord
  2
LEVELMK
340
0
 70
0
280
1
281
0
  0
BLOCK_RECORD
  5
B2
330
9
100
AcDbSymbolTableRecord
100
AcDbBlockTableRecord
  2
NORTH
340
0
 70
0
280
1
281
0
  0
BLOCK_RECORD
  5
11E
330
9
100
AcDbSymbolTableRecord
100
AcDbBlockTableRecord
  2
*D1
340
0
 70
0
280
1
281
0
  0
BLOCK_RECORD
  5
12D
330
9
100
AcDbSymbolTableRecord
100
AcDbBlockTableRecord
  2
*D2
340
0
 70
0
280
1
281
0
  0
BLOCK_RECORD
  5
13C
330
9
100
AcDbSymbolTableRecord
100
AcDbBlockTableRecord
  2
*D3
340
0
 70
0
280
1
281
0
  0
BLOCK_RECORD
  5
14B
330
9
100
AcDbSymbolTableRecord
100
AcDbBlockTableRecord
  2
*D4
340
0
 70
0
280
1
281
0
  0
BLOCK_RECORD
  5
15A
330
9
100
AcDbSymbolTableRecord
100
AcDbBlockTableRecord
  2
*D5
340
0
 70
0
280
1
281
0
  0
BLOCK_RECORD
  5
169
330
9
100
AcDbSymbolTableRecord
100
AcDbBlockTableRecord
  2
*D6
340
0
 70
0
280
1
281
0
  0
BLOCK_RECORD
  5
178
330
9
100
AcDbSymbolTableRecord
100
AcDbBlockTableRecord
  2
*D7
340
0
 70
0
280
1
281
0
  0
BLOCK_RECORD
  5
187
330
9
100
AcDbSymbolTableRecord
100
AcDbBlockTableRecord
  2
*D8
340
0
 70
0
280
1
281
0
  0
BLOCK_RECORD
  5
196
330
9
100
AcDbSymbolTableRecord
100
AcDbBlockTableRecord
  2
*D9
340
0
 70
0
280
1
281
0
  0
BLOCK_RECORD
  5
1A5
330
9
100
AcDbSymbolTableRecord
100
AcDbBlockTableRecord
  2
*D10
340
0
 70
0
280
1
281
0
  0
BLOCK_RECORD
  5
1B4
330
9
100
AcDbSymbolTableRecord
100
AcDbBlockTableRecord
  2
*D11
340
0
 70
0
280
1
281
0
  0
BLOCK_RECORD
  5
1C3
330
9
100
AcDbSymbolTableRecord
100
AcDbBlockTableRecord
  2
*D12
340
0
 70
0
280
1
281
0
  0
BLOCK_RECORD
  5
1D2
330
9
100
AcDbSymbolTableRecord
100
AcDbBlockTableRecord
  2
*D13
340
0
 70
0
280
1
281
0
  0
BLOCK_RECORD
  5
1E1
330
9
100
AcDbSymbolTableRecord
100
AcDbBlockTableRecord
  2
*D14
340
0
 70
0
280
1
281
0
  0
ENDTAB
  0
ENDSEC
  0
SECTION
  2
BLOCKS
  0
BLOCK
  5
18
330
17
100
AcDbEntity
  8
0
100
AcDbBlockBegin
  2
*Model_Space
 70
0
 10
0.0
 20
0.0
 30
0.0
  3
*Model_Space
  1

  0
ENDBLK
  5
19
330
17
100
AcDbEntity
  8
0
100
AcDbBlockEnd
  0
BLOCK
  5
1C
330
1B
100
AcDbEntity
  8
0
100
AcDbBlockBegin
  2
*Paper_Space
 70
0
 10
0.0
 20
0.0
 30
0.0
  3
*Paper_Space
  1

  0
ENDBLK
  5
1D
330
1B
100
AcDbEntity
  8
0
100
AcDbBlockEnd
  0
BLOCK
  5
75
330
74
100
AcDbEntity
  8
0
100
AcDbBlockBegin
  2
_ARCHTICK
 70
0
 10
0.0
 20
0.0
 30
0.0
  3
_ARCHTICK
  1

  0
LWPOLYLINE
  5
77
330
74
100
AcDbEntity
  8
0
  6
BYBLOCK
 62
0
100
AcDbPolyline
 90
2
 70
0
 43
0.15
 10
-0.5
 20
-0.5
 10
0.5
 20
0.5
  0
ENDBLK
  5
76
330
74
100
AcDbEntity
  8
0
100
AcDbBlockEnd
  0
BLOCK
  5
79
330
78
100
AcDbEntity
  8
0
100
AcDbBlockBegin
  2
_CLOSEDFILLED
 70
0
 10
0.0
 20
0.0
 30
0.0
  3
_CLOSEDFILLED
  1

  0
SOLID
  5
7B
330
78
100
AcDbEntity
  8
0
  6
BYBLOCK
 62
0
100
AcDbTrace
 10
-1.0
 20
0.16439898372402537
 30
0.0
 11
0.0
 21
0.0
 31
0.0
 12
-1.0
 22
-0.16439898372402537
 32
0.0
 13
-1.0
 23
-0.16439898372402537
 33
0.0
  0
ENDBLK
  5
7A
330
78
100
AcDbEntity
  8
0
100
AcDbBlockEnd
  0
BLOCK
  5
85
330
84
100
AcDbEntity
  8
0
100
AcDbBlockBegin
  2
_CLOSEDBLANK
 70
0
 10
0.0
 20
0.0
 30
0.0
  3
_CLOSEDBLANK
  1

  0
LWPOLYLINE
  5
87
330
84
100
AcDbEntity
  8
0
  6
BYBLOCK
 62
0
100
AcDbPolyline
 90
3
 70
1
 10
-1.0
 20
0.16439898372402537
 10
0.0
 20
0.0
 10
-1.0
 20
-0.16439898372402537
  0
ENDBLK
  5
86
330
84
100
AcDbEntity
  8
0
100
AcDbBlockEnd
  0
BLOCK
  5
A6
330
A5
100
AcDbEntity
  8
0
100
AcDbBlockBegin
  2
BARMARK
 70
0
 10
0.0
 20
0.0
 30
0.0
  3
BARMARK
  1

  0
CIRCLE
  5
A8
330
A5
100
AcDbEntity
  8
S-CALLOUT
100
AcDbCircle
 10
0.0
 20
0.0
 30
0.0
 40
3.2
  0
ENDBLK
  5
A7
330
A5
100
AcDbEntity
  8
0
100
AcDbBlockEnd
  0
BLOCK
  5
AA
330
A9
100
AcDbEntity
  8
0
100
AcDbBlockBegin
  2
SECMARK
 70
0
 10
0.0
 20
0.0
 30
0.0
  3
SECMARK
  1

  0
CIRCLE
  5
AC
330
A9
100
AcDbEntity
  8
S-SECTION
100
AcDbCircle
 10
0.0
 20
0.0
 30
0.0
 40
4.0
  0
LINE
  5
AD
330
A9
100
AcDbEntity
  8
S-SECTION
100
AcDbLine
 10
-4.0
 20
0.0
 30
0.0
 11
4.0
 21
0.0
 31
0.0
  0
ENDBLK
  5
AB
330
A9
100
AcDbEntity
  8
0
100
AcDbBlockEnd
  0
BLOCK
  5
AF
330
AE
100
AcDbEntity
  8
0
100
AcDbBlockBegin
  2
LEVELMK
 70
0
 10
0.0
 20
0.0
 30
0.0
  3
LEVELMK
  1

  0
LWPOLYLINE
  5
B1
330
AE
100
AcDbEntity
  8
S-LEVEL
100
AcDbPolyline
 90
4
 70
1
 10
0.0
 20
0.0
 10
-2.0
 20
3.0
 10
2.0
 20
3.0
 10
0.0
 20
0.0
  0
ENDBLK
  5
B0
330
AE
100
AcDbEntity
  8
0
100
AcDbBlockEnd
  0
BLOCK
  5
B3
330
B2
100
AcDbEntity
  8
0
100
AcDbBlockBegin
  2
NORTH
 70
0
 10
0.0
 20
0.0
 30
0.0
  3
NORTH
  1

  0
LWPOLYLINE
  5
B5
330
B2
100
AcDbEntity
  8
S-TITLE
100
AcDbPolyline
 90
5
 70
1
 10
0.0
 20
10.0
 10
-3.2
 20
-6.0
 10
0.0
 20
-2.4
 10
3.2
 20
-6.0
 10
0.0
 20
10.0
  0
CIRCLE
  5
B6
330
B2
100
AcDbEntity
  8
S-TITLE
100
AcDbCircle
 10
0.0
 20
0.0
 30
0.0
 40
12.0
  0
ENDBLK
  5
B4
330
B2
100
AcDbEntity
  8
0
100
AcDbBlockEnd
  0
BLOCK
  5
11F
330
11E
100
AcDbEntity
  8
0
100
AcDbBlockBegin
  2
*D1
 70
1
 10
0.0
 20
0.0
 30
0.0
  3
*D1
  1

  0
LINE
  5
121
330
11E
100
AcDbEntity
  8
0
 62
4
370
13
100
AcDbLine
 10
66.0
 20
399.0
 30
0.0
 11
66.0
 21
356.8
 31
0.0
  0
LINE
  5
122
330
11E
100
AcDbEntity
  8
0
 62
4
370
13
100
AcDbLine
 10
78.0
 20
399.0
 30
0.0
 11
78.0
 21
356.8
 31
0.0
  0
INSERT
  5
123
330
11E
100
AcDbEntity
  8
S-DIM
 62
4
100
AcDbBlockReference
  2
_ARCHTICK
 10
66.0
 20
358.0
 30
0.0
 41
1.6
 42
1.6
 50
180.0
  0
INSERT
  5
125
330
11E
100
AcDbEntity
  8
S-DIM
 62
4
100
AcDbBlockReference
  2
_ARCHTICK
 10
78.0
 20
358.0
 30
0.0
 41
1.6
 42
1.6
  0
LINE
  5
127
330
11E
100
AcDbEntity
  8
0
 62
4
370
13
100
AcDbLine
 10
66.0
 20
358.0
 30
0.0
 11
78.0
 21
358.0
 31
0.0
  0
MTEXT
  5
128
330
11E
100
AcDbEntity
  8
S-DIM
 62
4
100
AcDbMText
 10
72.0
 20
359.7
 30
0.0
 40
1.8
 71
5
  1
600
  7
OpenSansCondensed-Light
  0
POINT
  5
129
330
11E
100
AcDbEntity
  8
Defpoints
100
AcDbPoint
 10
66.0
 20
358.0
 30
0.0
  0
POINT
  5
12A
330
11E
100
AcDbEntity
  8
Defpoints
100
AcDbPoint
 10
66.0
 20
400.0
 30
0.0
  0
POINT
  5
12B
330
11E
100
AcDbEntity
  8
Defpoints
100
AcDbPoint
 10
78.0
 20
400.0
 30
0.0
  0
ENDBLK
  5
120
330
11E
100
AcDbEntity
  8
0
100
AcDbBlockEnd
  0
BLOCK
  5
12E
330
12D
100
AcDbEntity
  8
0
100
AcDbBlockBegin
  2
*D2
 70
1
 10
0.0
 20
0.0
 30
0.0
  3
*D2
  1

  0
LINE
  5
130
330
12D
100
AcDbEntity
  8
0
 62
4
370
13
100
AcDbLine
 10
78.0
 20
399.0
 30
0.0
 11
78.0
 21
356.8
 31
0.0
  0
LINE
  5
131
330
12D
100
AcDbEntity
  8
0
 62
4
370
13
100
AcDbLine
 10
318.0
 20
399.0
 30
0.0
 11
318.0
 21
356.8
 31
0.0
  0
INSERT
  5
132
330
12D
100
AcDbEntity
  8
S-DIM
 62
4
100
AcDbBlockReference
  2
_ARCHTICK
 10
78.0
 20
358.0
 30
0.0
 41
1.6
 42
1.6
 50
180.0
  0
INSERT
  5
134
330
12D
100
AcDbEntity
  8
S-DIM
 62
4
100
AcDbBlockReference
  2
_ARCHTICK
 10
318.0
 20
358.0
 30
0.0
 41
1.6
 42
1.6
  0
LINE
  5
136
330
12D
100
AcDbEntity
  8
0
 62
4
370
13
100
AcDbLine
 10
78.0
 20
358.0
 30
0.0
 11
318.0
 21
358.0
 31
0.0
  0
MTEXT
  5
137
330
12D
100
AcDbEntity
  8
S-DIM
 62
4
100
AcDbMText
 10
198.0
 20
359.7
 30
0.0
 40
1.8
 71
5
  1
12000
  7
OpenSansCondensed-Light
  0
POINT
  5
138
330
12D
100
AcDbEntity
  8
Defpoints
100
AcDbPoint
 10
78.0
 20
358.0
 30
0.0
  0
POINT
  5
139
330
12D
100
AcDbEntity
  8
Defpoints
100
AcDbPoint
 10
78.0
 20
400.0
 30
0.0
  0
POINT
  5
13A
330
12D
100
AcDbEntity
  8
Defpoints
100
AcDbPoint
 10
318.0
 20
400.0
 30
0.0
  0
ENDBLK
  5
12F
330
12D
100
AcDbEntity
  8
0
100
AcDbBlockEnd
  0
BLOCK
  5
13D
330
13C
100
AcDbEntity
  8
0
100
AcDbBlockBegin
  2
*D3
 70
1
 10
0.0
 20
0.0
 30
0.0
  3
*D3
  1

  0
LINE
  5
13F
330
13C
100
AcDbEntity
  8
0
 62
4
370
13
100
AcDbLine
 10
318.0
 20
399.0
 30
0.0
 11
318.0
 21
356.8
 31
0.0
  0
LINE
  5
140
330
13C
100
AcDbEntity
  8
0
 62
4
370
13
100
AcDbLine
 10
322.0
 20
399.0
 30
0.0
 11
322.0
 21
356.8
 31
0.0
  0
INSERT
  5
141
330
13C
100
AcDbEntity
  8
S-DIM
 62
4
100
AcDbBlockReference
  2
_ARCHTICK
 10
318.0
 20
358.0
 30
0.0
 41
1.6
 42
1.6
 50
180.0
  0
INSERT
  5
143
330
13C
100
AcDbEntity
  8
S-DIM
 62
4
100
AcDbBlockReference
  2
_ARCHTICK
 10
322.0
 20
358.0
 30
0.0
 41
1.6
 42
1.6
  0
LINE
  5
145
330
13C
100
AcDbEntity
  8
0
 62
4
370
13
100
AcDbLine
 10
318.0
 20
358.0
 30
0.0
 11
322.0
 21
358.0
 31
0.0
  0
MTEXT
  5
146
330
13C
100
AcDbEntity
  8
S-DIM
 62
4
100
AcDbMText
 10
320.0
 20
360.9
 30
0.0
 40
1.8
 71
5
  1
200
  7
OpenSansCondensed-Light
  0
POINT
  5
147
330
13C
100
AcDbEntity
  8
Defpoints
100
AcDbPoint
 10
318.0
 20
358.0
 30
0.0
  0
POINT
  5
148
330
13C
100
AcDbEntity
  8
Defpoints
100
AcDbPoint
 10
318.0
 20
400.0
 30
0.0
  0
POINT
  5
149
330
13C
100
AcDbEntity
  8
Defpoints
100
AcDbPoint
 10
322.0
 20
400.0
 30
0.0
  0
ENDBLK
  5
13E
330
13C
100
AcDbEntity
  8
0
100
AcDbBlockEnd
  0
BLOCK
  5
14C
330
14B
100
AcDbEntity
  8
0
100
AcDbBlockBegin
  2
*D4
 70
1
 10
0.0
 20
0.0
 30
0.0
  3
*D4
  1

  0
LINE
  5
14E
330
14B
100
AcDbEntity
  8
0
 62
4
370
13
100
AcDbLine
 10
322.0
 20
399.0
 30
0.0
 11
322.0
 21
356.8
 31
0.0
  0
LINE
  5
14F
330
14B
100
AcDbEntity
  8
0
 62
4
370
13
100
AcDbLine
 10
362.0
 20
399.0
 30
0.0
 11
362.0
 21
356.8
 31
0.0
  0
INSERT
  5
150
330
14B
100
AcDbEntity
  8
S-DIM
 62
4
100
AcDbBlockReference
  2
_ARCHTICK
 10
322.0
 20
358.0
 30
0.0
 41
1.6
 42
1.6
 50
180.0
  0
INSERT
  5
152
330
14B
100
AcDbEntity
  8
S-DIM
 62
4
100
AcDbBlockReference
  2
_ARCHTICK
 10
362.0
 20
358.0
 30
0.0
 41
1.6
 42
1.6
  0
LINE
  5
154
330
14B
100
AcDbEntity
  8
0
 62
4
370
13
100
AcDbLine
 10
322.0
 20
358.0
 30
0.0
 11
362.0
 21
358.0
 31
0.0
  0
MTEXT
  5
155
330
14B
100
AcDbEntity
  8
S-DIM
 62
4
100
AcDbMText
 10
342.0
 20
359.7
 30
0.0
 40
1.8
 71
5
  1
2000
  7
OpenSansCondensed-Light
  0
POINT
  5
156
330
14B
100
AcDbEntity
  8
Defpoints
100
AcDbPoint
 10
322.0
 20
358.0
 30
0.0
  0
POINT
  5
157
330
14B
100
AcDbEntity
  8
Defpoints
100
AcDbPoint
 10
322.0
 20
400.0
 30
0.0
  0
POINT
  5
158
330
14B
100
AcDbEntity
  8
Defpoints
100
AcDbPoint
 10
362.0
 20
400.0
 30
0.0
  0
ENDBLK
  5
14D
330
14B
100
AcDbEntity
  8
0
100
AcDbBlockEnd
  0
BLOCK
  5
15B
330
15A
100
AcDbEntity
  8
0
100
AcDbBlockBegin
  2
*D5
 70
1
 10
0.0
 20
0.0
 30
0.0
  3
*D5
  1

  0
LINE
  5
15D
330
15A
100
AcDbEntity
  8
0
 62
4
370
13
100
AcDbLine
 10
362.0
 20
399.0
 30
0.0
 11
362.0
 21
356.8
 31
0.0
  0
LINE
  5
15E
330
15A
100
AcDbEntity
  8
0
 62
4
370
13
100
AcDbLine
 10
370.0
 20
399.0
 30
0.0
 11
370.0
 21
356.8
 31
0.0
  0
INSERT
  5
15F
330
15A
100
AcDbEntity
  8
S-DIM
 62
4
100
AcDbBlockReference
  2
_ARCHTICK
 10
362.0
 20
358.0
 30
0.0
 41
1.6
 42
1.6
 50
180.0
  0
INSERT
  5
161
330
15A
100
AcDbEntity
  8
S-DIM
 62
4
100
AcDbBlockReference
  2
_ARCHTICK
 10
370.0
 20
358.0
 30
0.0
 41
1.6
 42
1.6
  0
LINE
  5
163
330
15A
100
AcDbEntity
  8
0
 62
4
370
13
100
AcDbLine
 10
362.0
 20
358.0
 30
0.0
 11
370.0
 21
358.0
 31
0.0
  0
MTEXT
  5
164
330
15A
100
AcDbEntity
  8
S-DIM
 62
4
100
AcDbMText
 10
366.0
 20
359.7
 30
0.0
 40
1.8
 71
5
  1
400
  7
OpenSansCondensed-Light
  0
POINT
  5
165
330
15A
100
AcDbEntity
  8
Defpoints
100
AcDbPoint
 10
362.0
 20
358.0
 30
0.0
  0
POINT
  5
166
330
15A
100
AcDbEntity
  8
Defpoints
100
AcDbPoint
 10
362.0
 20
400.0
 30
0.0
  0
POINT
  5
167
330
15A
100
AcDbEntity
  8
Defpoints
100
AcDbPoint
 10
370.0
 20
400.0
 30
0.0
  0
ENDBLK
  5
15C
330
15A
100
AcDbEntity
  8
0
100
AcDbBlockEnd
  0
BLOCK
  5
16A
330
169
100
AcDbEntity
  8
0
100
AcDbBlockBegin
  2
*D6
 70
1
 10
0.0
 20
0.0
 30
0.0
  3
*D6
  1

  0
LINE
  5
16C
330
169
100
AcDbEntity
  8
0
 62
4
370
13
100
AcDbLine
 10
370.0
 20
399.0
 30
0.0
 11
370.0
 21
356.8
 31
0.0
  0
LINE
  5
16D
330
169
100
AcDbEntity
  8
0
 62
4
370
13
100
AcDbLine
 10
426.0
 20
399.0
 30
0.0
 11
426.0
 21
356.8
 31
0.0
  0
INSERT
  5
16E
330
169
100
AcDbEntity
  8
S-DIM
 62
4
100
AcDbBlockReference
  2
_ARCHTICK
 10
370.0
 20
358.0
 30
0.0
 41
1.6
 42
1.6
 50
180.0
  0
INSERT
  5
170
330
169
100
AcDbEntity
  8
S-DIM
 62
4
100
AcDbBlockReference
  2
_ARCHTICK
 10
426.0
 20
358.0
 30
0.0
 41
1.6
 42
1.6
  0
LINE
  5
172
330
169
100
AcDbEntity
  8
0
 62
4
370
13
100
AcDbLine
 10
370.0
 20
358.0
 30
0.0
 11
426.0
 21
358.0
 31
0.0
  0
MTEXT
  5
173
330
169
100
AcDbEntity
  8
S-DIM
 62
4
100
AcDbMText
 10
398.0
 20
359.7
 30
0.0
 40
1.8
 71
5
  1
2800
  7
OpenSansCondensed-Light
  0
POINT
  5
174
330
169
100
AcDbEntity
  8
Defpoints
100
AcDbPoint
 10
370.0
 20
358.0
 30
0.0
  0
POINT
  5
175
330
169
100
AcDbEntity
  8
Defpoints
100
AcDbPoint
 10
370.0
 20
400.0
 30
0.0
  0
POINT
  5
176
330
169
100
AcDbEntity
  8
Defpoints
100
AcDbPoint
 10
426.0
 20
400.0
 30
0.0
  0
ENDBLK
  5
16B
330
169
100
AcDbEntity
  8
0
100
AcDbBlockEnd
  0
BLOCK
  5
179
330
178
100
AcDbEntity
  8
0
100
AcDbBlockBegin
  2
*D7
 70
1
 10
0.0
 20
0.0
 30
0.0
  3
*D7
  1

  0
LINE
  5
17B
330
178
100
AcDbEntity
  8
0
 62
4
370
13
100
AcDbLine
 10
426.0
 20
399.0
 30
0.0
 11
426.0
 21
356.8
 31
0.0
  0
LINE
  5
17C
330
178
100
AcDbEntity
  8
0
 62
4
370
13
100
AcDbLine
 10
434.0
 20
399.0
 30
0.0
 11
434.0
 21
356.8
 31
0.0
  0
INSERT
  5
17D
330
178
100
AcDbEntity
  8
S-DIM
 62
4
100
AcDbBlockReference
  2
_ARCHTICK
 10
426.0
 20
358.0
 30
0.0
 41
1.6
 42
1.6
 50
180.0
  0
INSERT
  5
17F
330
178
100
AcDbEntity
  8
S-DIM
 62
4
100
AcDbBlockReference
  2
_ARCHTICK
 10
434.0
 20
358.0
 30
0.0
 41
1.6
 42
1.6
  0
LINE
  5
181
330
178
100
AcDbEntity
  8
0
 62
4
370
13
100
AcDbLine
 10
426.0
 20
358.0
 30
0.0
 11
434.0
 21
358.0
 31
0.0
  0
MTEXT
  5
182
330
178
100
AcDbEntity
  8
S-DIM
 62
4
100
AcDbMText
 10
430.0
 20
359.7
 30
0.0
 40
1.8
 71
5
  1
400
  7
OpenSansCondensed-Light
  0
POINT
  5
183
330
178
100
AcDbEntity
  8
Defpoints
100
AcDbPoint
 10
426.0
 20
358.0
 30
0.0
  0
POINT
  5
184
330
178
100
AcDbEntity
  8
Defpoints
100
AcDbPoint
 10
426.0
 20
400.0
 30
0.0
  0
POINT
  5
185
330
178
100
AcDbEntity
  8
Defpoints
100
AcDbPoint
 10
434.0
 20
400.0
 30
0.0
  0
ENDBLK
  5
17A
330
178
100
AcDbEntity
  8
0
100
AcDbBlockEnd
  0
BLOCK
  5
188
330
187
100
AcDbEntity
  8
0
100
AcDbBlockBegin
  2
*D8
 70
1
 10
0.0
 20
0.0
 30
0.0
  3
*D8
  1

  0
LINE
  5
18A
330
187
100
AcDbEntity
  8
0
 62
4
370
13
100
AcDbLine
 10
434.0
 20
399.0
 30
0.0
 11
434.0
 21
356.8
 31
0.0
  0
LINE
  5
18B
330
187
100
AcDbEntity
  8
0
 62
4
370
13
100
AcDbLine
 10
494.0
 20
399.0
 30
0.0
 11
494.0
 21
356.8
 31
0.0
  0
INSERT
  5
18C
330
187
100
AcDbEntity
  8
S-DIM
 62
4
100
AcDbBlockReference
  2
_ARCHTICK
 10
434.0
 20
358.0
 30
0.0
 41
1.6
 42
1.6
 50
180.0
  0
INSERT
  5
18E
330
187
100
AcDbEntity
  8
S-DIM
 62
4
100
AcDbBlockReference
  2
_ARCHTICK
 10
494.0
 20
358.0
 30
0.0
 41
1.6
 42
1.6
  0
LINE
  5
190
330
187
100
AcDbEntity
  8
0
 62
4
370
13
100
AcDbLine
 10
434.0
 20
358.0
 30
0.0
 11
494.0
 21
358.0
 31
0.0
  0
MTEXT
  5
191
330
187
100
AcDbEntity
  8
S-DIM
 62
4
100
AcDbMText
 10
464.0
 20
359.7
 30
0.0
 40
1.8
 71
5
  1
3000
  7
OpenSansCondensed-Light
  0
POINT
  5
192
330
187
100
AcDbEntity
  8
Defpoints
100
AcDbPoint
 10
434.0
 20
358.0
 30
0.0
  0
POINT
  5
193
330
187
100
AcDbEntity
  8
Defpoints
100
AcDbPoint
 10
434.0
 20
400.0
 30
0.0
  0
POINT
  5
194
330
187
100
AcDbEntity
  8
Defpoints
100
AcDbPoint
 10
494.0
 20
400.0
 30
0.0
  0
ENDBLK
  5
189
330
187
100
AcDbEntity
  8
0
100
AcDbBlockEnd
  0
BLOCK
  5
197
330
196
100
AcDbEntity
  8
0
100
AcDbBlockBegin
  2
*D9
 70
1
 10
0.0
 20
0.0
 30
0.0
  3
*D9
  1

  0
LINE
  5
199
330
196
100
AcDbEntity
  8
0
 62
4
370
13
100
AcDbLine
 10
494.0
 20
399.0
 30
0.0
 11
494.0
 21
356.8
 31
0.0
  0
LINE
  5
19A
330
196
100
AcDbEntity
  8
0
 62
4
370
13
100
AcDbLine
 10
506.0
 20
399.0
 30
0.0
 11
506.0
 21
356.8
 31
0.0
  0
INSERT
  5
19B
330
196
100
AcDbEntity
  8
S-DIM
 62
4
100
AcDbBlockReference
  2
_ARCHTICK
 10
494.0
 20
358.0
 30
0.0
 41
1.6
 42
1.6
 50
180.0
  0
INSERT
  5
19D
330
196
100
AcDbEntity
  8
S-DIM
 62
4
100
AcDbBlockReference
  2
_ARCHTICK
 10
506.0
 20
358.0
 30
0.0
 41
1.6
 42
1.6
  0
LINE
  5
19F
330
196
100
AcDbEntity
  8
0
 62
4
370
13
100
AcDbLine
 10
494.0
 20
358.0
 30
0.0
 11
506.0
 21
358.0
 31
0.0
  0
MTEXT
  5
1A0
330
196
100
AcDbEntity
  8
S-DIM
 62
4
100
AcDbMText
 10
500.0
 20
359.7
 30
0.0
 40
1.8
 71
5
  1
600
  7
OpenSansCondensed-Light
  0
POINT
  5
1A1
330
196
100
AcDbEntity
  8
Defpoints
100
AcDbPoint
 10
494.0
 20
358.0
 30
0.0
  0
POINT
  5
1A2
330
196
100
AcDbEntity
  8
Defpoints
100
AcDbPoint
 10
494.0
 20
400.0
 30
0.0
  0
POINT
  5
1A3
330
196
100
AcDbEntity
  8
Defpoints
100
AcDbPoint
 10
506.0
 20
400.0
 30
0.0
  0
ENDBLK
  5
198
330
196
100
AcDbEntity
  8
0
100
AcDbBlockEnd
  0
BLOCK
  5
1A6
330
1A5
100
AcDbEntity
  8
0
100
AcDbBlockBegin
  2
*D10
 70
1
 10
0.0
 20
0.0
 30
0.0
  3
*D10
  1

  0
LINE
  5
1A8
330
1A5
100
AcDbEntity
  8
0
 62
4
370
13
100
AcDbLine
 10
66.0
 20
399.0
 30
0.0
 11
66.0
 21
347.8
 31
0.0
  0
LINE
  5
1A9
330
1A5
100
AcDbEntity
  8
0
 62
4
370
13
100
AcDbLine
 10
506.0
 20
399.0
 30
0.0
 11
506.0
 21
347.8
 31
0.0
  0
INSERT
  5
1AA
330
1A5
100
AcDbEntity
  8
S-DIM
 62
4
100
AcDbBlockReference
  2
_ARCHTICK
 10
66.0
 20
349.0
 30
0.0
 41
1.6
 42
1.6
 50
180.0
  0
INSERT
  5
1AC
330
1A5
100
AcDbEntity
  8
S-DIM
 62
4
100
AcDbBlockReference
  2
_ARCHTICK
 10
506.0
 20
349.0
 30
0.0
 41
1.6
 42
1.6
  0
LINE
  5
1AE
330
1A5
100
AcDbEntity
  8
0
 62
4
370
13
100
AcDbLine
 10
66.0
 20
349.0
 30
0.0
 11
506.0
 21
349.0
 31
0.0
  0
MTEXT
  5
1AF
330
1A5
100
AcDbEntity
  8
S-DIM
 62
4
100
AcDbMText
 10
286.0
 20
350.7
 30
0.0
 40
1.8
 71
5
  1
22000
  7
OpenSansCondensed-Light
  0
POINT
  5
1B0
330
1A5
100
AcDbEntity
  8
Defpoints
100
AcDbPoint
 10
66.0
 20
349.0
 30
0.0
  0
POINT
  5
1B1
330
1A5
100
AcDbEntity
  8
Defpoints
100
AcDbPoint
 10
66.0
 20
400.0
 30
0.0
  0
POINT
  5
1B2
330
1A5
100
AcDbEntity
  8
Defpoints
100
AcDbPoint
 10
506.0
 20
400.0
 30
0.0
  0
ENDBLK
  5
1A7
330
1A5
100
AcDbEntity
  8
0
100
AcDbBlockEnd
  0
BLOCK
  5
1B5
330
1B4
100
AcDbEntity
  8
0
100
AcDbBlockBegin
  2
*D11
 70
1
 10
0.0
 20
0.0
 30
0.0
  3
*D11
  1

  0
LINE
  5
1B7
330
1B4
100
AcDbEntity
  8
0
 62
4
370
13
100
AcDbLine
 10
65.0
 20
400.0
 30
0.0
 11
28.8
 21
400.0
 31
0.0
  0
LINE
  5
1B8
330
1B4
100
AcDbEntity
  8
0
 62
4
370
13
100
AcDbLine
 10
65.0
 20
412.0
 30
0.0
 11
28.8
 21
412.0
 31
0.0
  0
INSERT
  5
1B9
330
1B4
100
AcDbEntity
  8
S-DIM
 62
4
100
AcDbBlockReference
  2
_ARCHTICK
 10
30.0
 20
400.0
 30
0.0
 41
1.6
 42
1.6
 50
270.0
  0
INSERT
  5
1BB
330
1B4
100
AcDbEntity
  8
S-DIM
 62
4
100
AcDbBlockReference
  2
_ARCHTICK
 10
30.0
 20
412.0
 30
0.0
 41
1.6
 42
1.6
 50
90.0
  0
LINE
  5
1BD
330
1B4
100
AcDbEntity
  8
0
 62
4
370
13
100
AcDbLine
 10
30.0
 20
400.0
 30
0.0
 11
30.0
 21
412.0
 31
0.0
  0
MTEXT
  5
1BE
330
1B4
100
AcDbEntity
  8
S-DIM
 62
4
100
AcDbMText
 10
28.3
 20
406.0
 30
0.0
 40
1.8
 71
5
  1
600
  7
OpenSansCondensed-Light
 50
90.0
  0
POINT
  5
1BF
330
1B4
100
AcDbEntity
  8
Defpoints
100
AcDbPoint
 10
30.0
 20
400.0
 30
0.0
  0
POINT
  5
1C0
330
1B4
100
AcDbEntity
  8
Defpoints
100
AcDbPoint
 10
66.0
 20
400.0
 30
0.0
  0
POINT
  5
1C1
330
1B4
100
AcDbEntity
  8
Defpoints
100
AcDbPoint
 10
66.0
 20
412.0
 30
0.0
  0
ENDBLK
  5
1B6
330
1B4
100
AcDbEntity
  8
0
100
AcDbBlockEnd
  0
BLOCK
  5
1C4
330
1C3
100
AcDbEntity
  8
0
100
AcDbBlockBegin
  2
*D12
 70
1
 10
0.0
 20
0.0
 30
0.0
  3
*D12
  1

  0
LINE
  5
1C6
330
1C3
100
AcDbEntity
  8
0
 62
4
370
13
100
AcDbLine
 10
65.0
 20
412.0
 30
0.0
 11
28.8
 21
412.0
 31
0.0
  0
LINE
  5
1C7
330
1C3
100
AcDbEntity
  8
0
 62
4
370
13
100
AcDbLine
 10
65.0
 20
512.0
 30
0.0
 11
28.8
 21
512.0
 31
0.0
  0
INSERT
  5
1C8
330
1C3
100
AcDbEntity
  8
S-DIM
 62
4
100
AcDbBlockReference
  2
_ARCHTICK
 10
30.0
 20
412.0
 30
0.0
 41
1.6
 42
1.6
 50
270.0
  0
INSERT
  5
1CA
330
1C3
100
AcDbEntity
  8
S-DIM
 62
4
100
AcDbBlockReference
  2
_ARCHTICK
 10
30.0
 20
512.0
 30
0.0
 41
1.6
 42
1.6
 50
90.0
  0
LINE
  5
1CC
330
1C3
100
AcDbEntity
  8
0
 62
4
370
13
100
AcDbLine
 10
30.0
 20
412.0
 30
0.0
 11
30.0
 21
512.0
 31
0.0
  0
MTEXT
  5
1CD
330
1C3
100
AcDbEntity
  8
S-DIM
 62
4
100
AcDbMText
 10
28.3
 20
462.0
 30
0.0
 40
1.8
 71
5
  1
5000
  7
OpenSansCondensed-Light
 50
90.0
  0
POINT
  5
1CE
330
1C3
100
AcDbEntity
  8
Defpoints
100
AcDbPoint
 10
30.0
 20
412.0
 30
0.0
  0
POINT
  5
1CF
330
1C3
100
AcDbEntity
  8
Defpoints
100
AcDbPoint
 10
66.0
 20
412.0
 30
0.0
  0
POINT
  5
1D0
330
1C3
100
AcDbEntity
  8
Defpoints
100
AcDbPoint
 10
66.0
 20
512.0
 30
0.0
  0
ENDBLK
  5
1C5
330
1C3
100
AcDbEntity
  8
0
100
AcDbBlockEnd
  0
BLOCK
  5
1D3
330
1D2
100
AcDbEntity
  8
0
100
AcDbBlockBegin
  2
*D13
 70
1
 10
0.0
 20
0.0
 30
0.0
  3
*D13
  1

  0
LINE
  5
1D5
330
1D2
100
AcDbEntity
  8
0
 62
4
370
13
100
AcDbLine
 10
65.0
 20
512.0
 30
0.0
 11
28.8
 21
512.0
 31
0.0
  0
LINE
  5
1D6
330
1D2
100
AcDbEntity
  8
0
 62
4
370
13
100
AcDbLine
 10
65.0
 20
524.0
 30
0.0
 11
28.8
 21
524.0
 31
0.0
  0
INSERT
  5
1D7
330
1D2
100
AcDbEntity
  8
S-DIM
 62
4
100
AcDbBlockReference
  2
_ARCHTICK
 10
30.0
 20
512.0
 30
0.0
 41
1.6
 42
1.6
 50
270.0
  0
INSERT
  5
1D9
330
1D2
100
AcDbEntity
  8
S-DIM
 62
4
100
AcDbBlockReference
  2
_ARCHTICK
 10
30.0
 20
524.0
 30
0.0
 41
1.6
 42
1.6
 50
90.0
  0
LINE
  5
1DB
330
1D2
100
AcDbEntity
  8
0
 62
4
370
13
100
AcDbLine
 10
30.0
 20
512.0
 30
0.0
 11
30.0
 21
524.0
 31
0.0
  0
MTEXT
  5
1DC
330
1D2
100
AcDbEntity
  8
S-DIM
 62
4
100
AcDbMText
 10
28.3
 20
518.0
 30
0.0
 40
1.8
 71
5
  1
600
  7
OpenSansCondensed-Light
 50
90.0
  0
POINT
  5
1DD
330
1D2
100
AcDbEntity
  8
Defpoints
100
AcDbPoint
 10
30.0
 20
512.0
 30
0.0
  0
POINT
  5
1DE
330
1D2
100
AcDbEntity
  8
Defpoints
100
AcDbPoint
 10
66.0
 20
512.0
 30
0.0
  0
POINT
  5
1DF
330
1D2
100
AcDbEntity
  8
Defpoints
100
AcDbPoint
 10
66.0
 20
524.0
 30
0.0
  0
ENDBLK
  5
1D4
330
1D2
100
AcDbEntity
  8
0
100
AcDbBlockEnd
  0
BLOCK
  5
1E2
330
1E1
100
AcDbEntity
  8
0
100
AcDbBlockBegin
  2
*D14
 70
1
 10
0.0
 20
0.0
 30
0.0
  3
*D14
  1

  0
LINE
  5
1E4
330
1E1
100
AcDbEntity
  8
0
 62
4
370
13
100
AcDbLine
 10
65.0
 20
400.0
 30
0.0
 11
19.8
 21
400.0
 31
0.0
  0
LINE
  5
1E5
330
1E1
100
AcDbEntity
  8
0
 62
4
370
13
100
AcDbLine
 10
65.0
 20
524.0
 30
0.0
 11
19.8
 21
524.0
 31
0.0
  0
INSERT
  5
1E6
330
1E1
100
AcDbEntity
  8
S-DIM
 62
4
100
AcDbBlockReference
  2
_ARCHTICK
 10
21.0
 20
400.0
 30
0.0
 41
1.6
 42
1.6
 50
270.0
  0
INSERT
  5
1E8
330
1E1
100
AcDbEntity
  8
S-DIM
 62
4
100
AcDbBlockReference
  2
_ARCHTICK
 10
21.0
 20
524.0
 30
0.0
 41
1.6
 42
1.6
 50
90.0
  0
LINE
  5
1EA
330
1E1
100
AcDbEntity
  8
0
 62
4
370
13
100
AcDbLine
 10
21.0
 20
400.0
 30
0.0
 11
21.0
 21
524.0
 31
0.0
  0
MTEXT
  5
1EB
330
1E1
100
AcDbEntity
  8
S-DIM
 62
4
100
AcDbMText
 10
19.3
 20
462.0
 30
0.0
 40
1.8
 71
5
  1
6200
  7
OpenSansCondensed-Light
 50
90.0
  0
POINT
  5
1EC
330
1E1
100
AcDbEntity
  8
Defpoints
100
AcDbPoint
 10
21.0
 20
400.0
 30
0.0
  0
POINT
  5
1ED
330
1E1
100
AcDbEntity
  8
Defpoints
100
AcDbPoint
 10
66.0
 20
400.0
 30
0.0
  0
POINT
  5
1EE
330
1E1
100
AcDbEntity
  8
Defpoints
100
AcDbPoint
 10
66.0
 20
524.0
 30
0.0
  0
ENDBLK
  5
1E3
330
1E1
100
AcDbEntity
  8
0
100
AcDbBlockEnd
  0
ENDSEC
  0
SECTION
  2
ENTITIES
  0
LWPOLYLINE
  5
B7
330
17
100
AcDbEntity
  8
S-TITLE
100
AcDbPolyline
 90
4
 70
1
 10
0.0
 20
0.0
 10
841.0
 20
0.0
 10
841.0
 20
594.0
 10
0.0
 20
594.0
  0
LWPOLYLINE
  5
B8
330
17
100
AcDbEntity
  8
S-TITLE
100
AcDbPolyline
 90
4
 70
1
 10
10.0
 20
10.0
 10
831.0
 20
10.0
 10
831.0
 20
584.0
 10
10.0
 20
584.0
  0
TEXT
  5
B9
330
17
100
AcDbEntity
  8
S-TITLE
100
AcDbText
 10
12.0
 20
576.5
 30
0.0
 40
5.0
  1
STRUCTURAL CAD - REINFORCEMENT PACKAGE
  7
OpenSans
 11
12.0
 21
576.5
 31
0.0
100
AcDbText
  0
TEXT
  5
BA
330
17
100
AcDbEntity
  8
S-TITLE
100
AcDbText
 10
12.0
 20
569.5
 30
0.0
 40
2.4
  1
R-401   BEAM-TYPE ELEMENT LOCATION PLAN
  7
OpenSans
 11
12.0
 21
569.5
 31
0.0
100
AcDbText
  0
LINE
  5
BB
330
17
100
AcDbEntity
  8
S-TITLE
100
AcDbLine
 10
10.0
 20
566.5
 30
0.0
 11
831.0
 21
566.5
 31
0.0
  0
TEXT
  5
BC
330
17
100
AcDbEntity
  8
S-BLAST
100
AcDbText
 10
829.0
 20
577.0
 30
0.0
 40
2.0
  1
SENTRY POST EXCLUDED FROM THIS PACKAGE
  7
OpenSans
 72
2
 11
829.0
 21
577.0
 31
0.0
100
AcDbText
  0
TEXT
  5
BD
330
17
100
AcDbEntity
  8
S-BLAST
100
AcDbText
 10
829.0
 20
570.5
 30
0.0
 40
1.4
  1
ALL DESIGN ACTIONS ARE MANUAL CALCULATION - NOT DIRECT STAAD OUTPUT
  7
OpenSans
 72
2
 11
829.0
 21
570.5
 31
0.0
100
AcDbText
  0
TEXT
  5
BE
330
17
100
AcDbEntity
  8
S-BLAST
100
AcDbText
 10
12.0
 20
561.5
 30
0.0
 40
1.4
  1
OPEN ITEMS ON THIS SHEET:  NO COLUMNS EXIST
  7
OpenSans
 11
12.0
 21
561.5
 31
0.0
100
AcDbText
  0
LWPOLYLINE
  5
BF
330
17
100
AcDbEntity
  8
S-CONCRETE
100
AcDbPolyline
 90
4
 70
1
 10
66.0
 20
400.0
 10
506.0
 20
400.0
 10
506.0
 20
524.0
 10
66.0
 20
524.0
  0
LWPOLYLINE
  5
C0
330
17
100
AcDbEntity
  8
S-CONCRETE
100
AcDbPolyline
 90
4
 70
1
 10
78.0
 20
412.0
 10
494.0
 20
412.0
 10
494.0
 20
512.0
 10
78.0
 20
512.0
  0
HATCH
  5
C1
330
17
100
AcDbEntity
  8
S-HATCH
 62
7
100
AcDbHatch
 10
0.0
 20
0.0
 30
0.0
210
0.0
220
0.0
230
1.0
  2
ANSI31
 70
0
 71
0
 91
2
 92
3
 72
0
 73
1
 93
4
 10
66.0
 20
400.0
 10
506.0
 20
400.0
 10
506.0
 20
524.0
 10
66.0
 20
524.0
 97
0
 92
18
 72
0
 73
1
 93
4
 10
78.0
 20
412.0
 10
494.0
 20
412.0
 10
494.0
 20
512.0
 10
78.0
 20
512.0
 97
0
 75
1
 76
1
 52
0.0
 41
1.6
 77
0
 78
1
 53
45.0
 43
0.0
 44
0.0
 45
-3.5921024485
 46
3.5921024485
 79
0
 98
0
  0
LWPOLYLINE
  5
C2
330
17
100
AcDbEntity
  8
S-CONCRETE
100
AcDbPolyline
 90
4
 70
1
 10
318.0
 20
412.0
 10
322.0
 20
412.0
 10
322.0
 20
512.0
 10
318.0
 20
512.0
  0
HATCH
  5
C3
330
17
100
AcDbEntity
  8
S-HATCH
 62
7
100
AcDbHatch
 10
0.0
 20
0.0
 30
0.0
210
0.0
220
0.0
230
1.0
  2
ANSI31
 70
0
 71
0
 91
1
 92
3
 72
0
 73
1
 93
4
 10
318.0
 20
412.0
 10
322.0
 20
412.0
 10
322.0
 20
512.0
 10
318.0
 20
512.0
 97
0
 75
1
 76
1
 52
0.0
 41
1.6
 77
0
 78
1
 53
45.0
 43
0.0
 44
0.0
 45
-3.5921024485
 46
3.5921024485
 79
0
 98
0
  0
TEXT
  5
C4
330
17
100
AcDbEntity
  8
S-TEXT
100
AcDbText
 10
320.0
 20
530.0
 30
0.0
 40
1.4
  1
W5
  7
OpenSans
 72
1
 11
320.0
 21
530.0
 31
0.0
100
AcDbText
 73
2
  0
LWPOLYLINE
  5
C5
330
17
100
AcDbEntity
  8
S-CONCRETE
100
AcDbPolyline
 90
4
 70
1
 10
362.0
 20
412.0
 10
370.0
 20
412.0
 10
370.0
 20
512.0
 10
362.0
 20
512.0
  0
HATCH
  5
C6
330
17
100
AcDbEntity
  8
S-HATCH
 62
7
100
AcDbHatch
 10
0.0
 20
0.0
 30
0.0
210
0.0
220
0.0
230
1.0
  2
ANSI31
 70
0
 71
0
 91
1
 92
3
 72
0
 73
1
 93
4
 10
362.0
 20
412.0
 10
370.0
 20
412.0
 10
370.0
 20
512.0
 10
362.0
 20
512.0
 97
0
 75
1
 76
1
 52
0.0
 41
1.6
 77
0
 78
1
 53
45.0
 43
0.0
 44
0.0
 45
-3.5921024485
 46
3.5921024485
 79
0
 98
0
  0
TEXT
  5
C7
330
17
100
AcDbEntity
  8
S-TEXT
100
AcDbText
 10
366.0
 20
530.0
 30
0.0
 40
1.4
  1
W6
  7
OpenSans
 72
1
 11
366.0
 21
530.0
 31
0.0
100
AcDbText
 73
2
  0
LWPOLYLINE
  5
C8
330
17
100
AcDbEntity
  8
S-CONCRETE
100
AcDbPolyline
 90
4
 70
1
 10
426.0
 20
412.0
 10
434.0
 20
412.0
 10
434.0
 20
512.0
 10
426.0
 20
512.0
  0
HATCH
  5
C9
330
17
100
AcDbEntity
  8
S-HATCH
 62
7
100
AcDbHatch
 10
0.0
 20
0.0
 30
0.0
210
0.0
220
0.0
230
1.0
  2
ANSI31
 70
0
 71
0
 91
1
 92
3
 72
0
 73
1
 93
4
 10
426.0
 20
412.0
 10
434.0
 20
412.0
 10
434.0
 20
512.0
 10
426.0
 20
512.0
 97
0
 75
1
 76
1
 52
0.0
 41
1.6
 77
0
 78
1
 53
45.0
 43
0.0
 44
0.0
 45
-3.5921024485
 46
3.5921024485
 79
0
 98
0
  0
TEXT
  5
CA
330
17
100
AcDbEntity
  8
S-TEXT
100
AcDbText
 10
430.0
 20
530.0
 30
0.0
 40
1.4
  1
W7
  7
OpenSans
 72
1
 11
430.0
 21
530.0
 31
0.0
100
AcDbText
 73
2
  0
LWPOLYLINE
  5
CB
330
17
100
AcDbEntity
  8
S-CONCRETE-THIN
100
AcDbPolyline
 90
4
 70
1
 10
136.0
 20
412.0
 10
138.2
 20
412.0
 10
138.2
 20
450.0
 10
136.0
 20
450.0
  0
LWPOLYLINE
  5
CC
330
17
100
AcDbEntity
  8
S-CONCRETE-THIN
100
AcDbPolyline
 90
4
 70
1
 10
136.0
 20
468.0
 10
138.2
 20
468.0
 10
138.2
 20
512.0
 10
136.0
 20
512.0
  0
LWPOLYLINE
  5
CD
330
17
100
AcDbEntity
  8
S-CONCRETE-THIN
100
AcDbPolyline
 90
4
 70
1
 10
174.2
 20
412.0
 10
176.4
 20
412.0
 10
176.4
 20
450.0
 10
174.2
 20
450.0
  0
LWPOLYLINE
  5
CE
330
17
100
AcDbEntity
  8
S-CONCRETE-THIN
100
AcDbPolyline
 90
4
 70
1
 10
174.2
 20
468.0
 10
176.4
 20
468.0
 10
176.4
 20
512.0
 10
174.2
 20
512.0
  0
LWPOLYLINE
  5
CF
330
17
100
AcDbEntity
  8
S-CONCRETE-THIN
100
AcDbPolyline
 90
4
 70
1
 10
246.4
 20
412.0
 10
248.6
 20
412.0
 10
248.6
 20
450.0
 10
246.4
 20
450.0
  0
LWPOLYLINE
  5
D0
330
17
100
AcDbEntity
  8
S-CONCRETE-THIN
100
AcDbPolyline
 90
4
 70
1
 10
246.4
 20
468.0
 10
248.6
 20
468.0
 10
248.6
 20
512.0
 10
246.4
 20
512.0
  0
LWPOLYLINE
  5
D1
330
17
100
AcDbEntity
  8
S-CONCRETE-THIN
100
AcDbPolyline
 90
4
 70
1
 10
284.6
 20
412.0
 10
286.8
 20
412.0
 10
286.8
 20
450.0
 10
284.6
 20
450.0
  0
LWPOLYLINE
  5
D2
330
17
100
AcDbEntity
  8
S-CONCRETE-THIN
100
AcDbPolyline
 90
4
 70
1
 10
284.6
 20
468.0
 10
286.8
 20
468.0
 10
286.8
 20
512.0
 10
284.6
 20
512.0
  0
CIRCLE
  5
D3
330
17
100
AcDbEntity
  8
S-CONCRETE
100
AcDbCircle
 10
107.0
 20
441.0
 30
0.0
 40
14.0
  0
CIRCLE
  5
D4
330
17
100
AcDbEntity
  8
S-HIDDEN
100
AcDbCircle
 10
107.0
 20
441.0
 30
0.0
 40
19.0
  0
LINE
  5
D5
330
17
100
AcDbEntity
  8
S-CENTER
100
AcDbLine
 10
81.0
 20
441.0
 30
0.0
 11
87.0
 21
441.0
 31
0.0
  0
LINE
  5
D6
330
17
100
AcDbEntity
  8
S-CENTER
100
AcDbLine
 10
88.6
 20
441.0
 30
0.0
 11
89.6
 21
441.0
 31
0.0
  0
LINE
  5
D7
330
17
100
AcDbEntity
  8
S-CENTER
100
AcDbLine
 10
91.2
 20
441.0
 30
0.0
 11
97.2
 21
441.0
 31
0.0
  0
LINE
  5
D8
330
17
100
AcDbEntity
  8
S-CENTER
100
AcDbLine
 10
98.8
 20
441.0
 30
0.0
 11
99.8
 21
441.0
 31
0.0
  0
LINE
  5
D9
330
17
100
AcDbEntity
  8
S-CENTER
100
AcDbLine
 10
101.4
 20
441.0
 30
0.0
 11
107.4
 21
441.0
 31
0.0
  0
LINE
  5
DA
330
17
100
AcDbEntity
  8
S-CENTER
100
AcDbLine
 10
109.0
 20
441.0
 30
0.0
 11
110.0
 21
441.0
 31
0.0
  0
LINE
  5
DB
330
17
100
AcDbEntity
  8
S-CENTER
100
AcDbLine
 10
111.60000000000001
 20
441.0
 30
0.0
 11
117.60000000000001
 21
441.0
 31
0.0
  0
LINE
  5
DC
330
17
100
AcDbEntity
  8
S-CENTER
100
AcDbLine
 10
119.20000000000002
 20
441.0
 30
0.0
 11
120.20000000000002
 21
441.0
 31
0.0
  0
LINE
  5
DD
330
17
100
AcDbEntity
  8
S-CENTER
100
AcDbLine
 10
121.80000000000001
 20
441.0
 30
0.0
 11
127.80000000000001
 21
441.0
 31
0.0
  0
LINE
  5
DE
330
17
100
AcDbEntity
  8
S-CENTER
100
AcDbLine
 10
129.4
 20
441.0
 30
0.0
 11
130.4
 21
441.0
 31
0.0
  0
LINE
  5
DF
330
17
100
AcDbEntity
  8
S-CENTER
100
AcDbLine
 10
132.0
 20
441.0
 30
0.0
 11
133.0
 21
441.0
 31
0.0
  0
LINE
  5
E0
330
17
100
AcDbEntity
  8
S-CENTER
100
AcDbLine
 10
107.0
 20
415.0
 30
0.0
 11
107.0
 21
421.0
 31
0.0
  0
LINE
  5
E1
330
17
100
AcDbEntity
  8
S-CENTER
100
AcDbLine
 10
107.0
 20
422.6
 30
0.0
 11
107.0
 21
423.6
 31
0.0
  0
LINE
  5
E2
330
17
100
AcDbEntity
  8
S-CENTER
100
AcDbLine
 10
107.0
 20
425.2
 30
0.0
 11
107.0
 21
431.2
 31
0.0
  0
LINE
  5
E3
330
17
100
AcDbEntity
  8
S-CENTER
100
AcDbLine
 10
107.0
 20
432.8
 30
0.0
 11
107.0
 21
433.8
 31
0.0
  0
LINE
  5
E4
330
17
100
AcDbEntity
  8
S-CENTER
100
AcDbLine
 10
107.0
 20
435.4
 30
0.0
 11
107.0
 21
441.4
 31
0.0
  0
LINE
  5
E5
330
17
100
AcDbEntity
  8
S-CENTER
100
AcDbLine
 10
107.0
 20
443.0
 30
0.0
 11
107.0
 21
444.0
 31
0.0
  0
LINE
  5
E6
330
17
100
AcDbEntity
  8
S-CENTER
100
AcDbLine
 10
107.0
 20
445.6
 30
0.0
 11
107.0
 21
451.6
 31
0.0
  0
LINE
  5
E7
330
17
100
AcDbEntity
  8
S-CENTER
100
AcDbLine
 10
107.0
 20
453.2
 30
0.0
 11
107.0
 21
454.2
 31
0.0
  0
LINE
  5
E8
330
17
100
AcDbEntity
  8
S-CENTER
100
AcDbLine
 10
107.0
 20
455.8
 30
0.0
 11
107.0
 21
461.8
 31
0.0
  0
LINE
  5
E9
330
17
100
AcDbEntity
  8
S-CENTER
100
AcDbLine
 10
107.0
 20
463.40000000000003
 30
0.0
 11
107.0
 21
464.40000000000003
 31
0.0
  0
LINE
  5
EA
330
17
100
AcDbEntity
  8
S-CENTER
100
AcDbLine
 10
107.0
 20
466.0
 30
0.0
 11
107.0
 21
467.0
 31
0.0
  0
CIRCLE
  5
EB
330
17
100
AcDbEntity
  8
S-CONCRETE
100
AcDbCircle
 10
464.0
 20
441.0
 30
0.0
 40
14.0
  0
CIRCLE
  5
EC
330
17
100
AcDbEntity
  8
S-HIDDEN
100
AcDbCircle
 10
464.0
 20
441.0
 30
0.0
 40
19.0
  0
LINE
  5
ED
330
17
100
AcDbEntity
  8
S-CENTER
100
AcDbLine
 10
438.0
 20
441.0
 30
0.0
 11
444.0
 21
441.0
 31
0.0
  0
LINE
  5
EE
330
17
100
AcDbEntity
  8
S-CENTER
100
AcDbLine
 10
445.6
 20
441.0
 30
0.0
 11
446.6
 21
441.0
 31
0.0
  0
LINE
  5
EF
330
17
100
AcDbEntity
  8
S-CENTER
100
AcDbLine
 10
448.2
 20
441.0
 30
0.0
 11
454.2
 21
441.0
 31
0.0
  0
LINE
  5
F0
330
17
100
AcDbEntity
  8
S-CENTER
100
AcDbLine
 10
455.8
 20
441.0
 30
0.0
 11
456.8
 21
441.0
 31
0.0
  0
LINE
  5
F1
330
17
100
AcDbEntity
  8
S-CENTER
100
AcDbLine
 10
458.4
 20
441.0
 30
0.0
 11
464.4
 21
441.0
 31
0.0
  0
LINE
  5
F2
330
17
100
AcDbEntity
  8
S-CENTER
100
AcDbLine
 10
466.0
 20
441.0
 30
0.0
 11
467.0
 21
441.0
 31
0.0
  0
LINE
  5
F3
330
17
100
AcDbEntity
  8
S-CENTER
100
AcDbLine
 10
468.6
 20
441.0
 30
0.0
 11
474.6
 21
441.0
 31
0.0
  0
LINE
  5
F4
330
17
100
AcDbEntity
  8
S-CENTER
100
AcDbLine
 10
476.2
 20
441.0
 30
0.0
 11
477.2
 21
441.0
 31
0.0
  0
LINE
  5
F5
330
17
100
AcDbEntity
  8
S-CENTER
100
AcDbLine
 10
478.8
 20
441.0
 30
0.0
 11
484.8
 21
441.0
 31
0.0
  0
LINE
  5
F6
330
17
100
AcDbEntity
  8
S-CENTER
100
AcDbLine
 10
486.40000000000003
 20
441.0
 30
0.0
 11
487.40000000000003
 21
441.0
 31
0.0
  0
LINE
  5
F7
330
17
100
AcDbEntity
  8
S-CENTER
100
AcDbLine
 10
489.0
 20
441.0
 30
0.0
 11
490.0
 21
441.0
 31
0.0
  0
LINE
  5
F8
330
17
100
AcDbEntity
  8
S-CENTER
100
AcDbLine
 10
464.0
 20
415.0
 30
0.0
 11
464.0
 21
421.0
 31
0.0
  0
LINE
  5
F9
330
17
100
AcDbEntity
  8
S-CENTER
100
AcDbLine
 10
464.0
 20
422.6
 30
0.0
 11
464.0
 21
423.6
 31
0.0
  0
LINE
  5
FA
330
17
100
AcDbEntity
  8
S-CENTER
100
AcDbLine
 10
464.0
 20
425.2
 30
0.0
 11
464.0
 21
431.2
 31
0.0
  0
LINE
  5
FB
330
17
100
AcDbEntity
  8
S-CENTER
100
AcDbLine
 10
464.0
 20
432.8
 30
0.0
 11
464.0
 21
433.8
 31
0.0
  0
LINE
  5
FC
330
17
100
AcDbEntity
  8
S-CENTER
100
AcDbLine
 10
464.0
 20
435.4
 30
0.0
 11
464.0
 21
441.4
 31
0.0
  0
LINE
  5
FD
330
17
100
AcDbEntity
  8
S-CENTER
100
AcDbLine
 10
464.0
 20
443.0
 30
0.0
 11
464.0
 21
444.0
 31
0.0
  0
LINE
  5
FE
330
17
100
AcDbEntity
  8
S-CENTER
100
AcDbLine
 10
464.0
 20
445.6
 30
0.0
 11
464.0
 21
451.6
 31
0.0
  0
LINE
  5
FF
330
17
100
AcDbEntity
  8
S-CENTER
100
AcDbLine
 10
464.0
 20
453.2
 30
0.0
 11
464.0
 21
454.2
 31
0.0
  0
LINE
  5
100
330
17
100
AcDbEntity
  8
S-CENTER
100
AcDbLine
 10
464.0
 20
455.8
 30
0.0
 11
464.0
 21
461.8
 31
0.0
  0
LINE
  5
101
330
17
100
AcDbEntity
  8
S-CENTER
100
AcDbLine
 10
464.0
 20
463.40000000000003
 30
0.0
 11
464.0
 21
464.40000000000003
 31
0.0
  0
LINE
  5
102
330
17
100
AcDbEntity
  8
S-CENTER
100
AcDbLine
 10
464.0
 20
466.0
 30
0.0
 11
464.0
 21
467.0
 31
0.0
  0
LWPOLYLINE
  5
103
330
17
100
AcDbEntity
  8
S-CONCRETE
100
AcDbPolyline
 90
4
 70
1
 10
370.0
 20
412.0
 10
426.0
 20
412.0
 10
426.0
 20
475.2
 10
370.0
 20
475.2
  0
LINE
  5
104
330
17
100
AcDbEntity
  8
S-CENTER
100
AcDbLine
 10
370.0
 20
412.0
 30
0.0
 11
426.0
 21
475.2
 31
0.0
  0
LINE
  5
105
330
17
100
AcDbEntity
  8
S-CENTER
100
AcDbLine
 10
370.0
 20
475.2
 30
0.0
 11
426.0
 21
412.0
 31
0.0
  0
LWPOLYLINE
  5
106
330
17
100
AcDbEntity
  8
S-STEELWORK
100
AcDbPolyline
 90
4
 70
1
 10
362.0
 20
412.0
 10
370.0
 20
412.0
 10
370.0
 20
436.0
 10
362.0
 20
436.0
  0
LWPOLYLINE
  5
107
330
17
100
AcDbEntity
  8
S-STEELWORK
100
AcDbPolyline
 90
4
 70
1
 10
426.0
 20
412.0
 10
434.0
 20
412.0
 10
434.0
 20
436.0
 10
426.0
 20
436.0
  0
TEXT
  5
108
330
17
100
AcDbEntity
  8
S-GRID
100
AcDbText
 10
107.0
 20
394.0
 30
0.0
 40
2.0
  1
1
  7
OpenSans
 72
1
 11
107.0
 21
394.0
 31
0.0
100
AcDbText
 73
2
  0
CIRCLE
  5
109
330
17
100
AcDbEntity
  8
S-GRID
100
AcDbCircle
 10
107.0
 20
394.0
 30
0.0
 40
2.6
  0
TEXT
  5
10A
330
17
100
AcDbEntity
  8
S-GRID
100
AcDbText
 10
156.2
 20
394.0
 30
0.0
 40
2.0
  1
2
  7
OpenSans
 72
1
 11
156.2
 21
394.0
 31
0.0
100
AcDbText
 73
2
  0
CIRCLE
  5
10B
330
17
100
AcDbEntity
  8
S-GRID
100
AcDbCircle
 10
156.2
 20
394.0
 30
0.0
 40
2.6
  0
TEXT
  5
10C
330
17
100
AcDbEntity
  8
S-GRID
100
AcDbText
 10
211.4
 20
394.0
 30
0.0
 40
2.0
  1
3
  7
OpenSans
 72
1
 11
211.4
 21
394.0
 31
0.0
100
AcDbText
 73
2
  0
CIRCLE
  5
10D
330
17
100
AcDbEntity
  8
S-GRID
100
AcDbCircle
 10
211.4
 20
394.0
 30
0.0
 40
2.6
  0
TEXT
  5
10E
330
17
100
AcDbEntity
  8
S-GRID
100
AcDbText
 10
266.6
 20
394.0
 30
0.0
 40
2.0
  1
4
  7
OpenSans
 72
1
 11
266.6
 21
394.0
 31
0.0
100
AcDbText
 73
2
  0
CIRCLE
  5
10F
330
17
100
AcDbEntity
  8
S-GRID
100
AcDbCircle
 10
266.6
 20
394.0
 30
0.0
 40
2.6
  0
TEXT
  5
110
330
17
100
AcDbEntity
  8
S-GRID
100
AcDbText
 10
302.4
 20
394.0
 30
0.0
 40
2.0
  1
5
  7
OpenSans
 72
1
 11
302.4
 21
394.0
 31
0.0
100
AcDbText
 73
2
  0
CIRCLE
  5
111
330
17
100
AcDbEntity
  8
S-GRID
100
AcDbCircle
 10
302.4
 20
394.0
 30
0.0
 40
2.6
  0
TEXT
  5
112
330
17
100
AcDbEntity
  8
S-GRID
100
AcDbText
 10
342.0
 20
394.0
 30
0.0
 40
2.0
  1
6
  7
OpenSans
 72
1
 11
342.0
 21
394.0
 31
0.0
100
AcDbText
 73
2
  0
CIRCLE
  5
113
330
17
100
AcDbEntity
  8
S-GRID
100
AcDbCircle
 10
342.0
 20
394.0
 30
0.0
 40
2.6
  0
TEXT
  5
114
330
17
100
AcDbEntity
  8
S-GRID
100
AcDbText
 10
398.0
 20
394.0
 30
0.0
 40
2.0
  1
7
  7
OpenSans
 72
1
 11
398.0
 21
394.0
 31
0.0
100
AcDbText
 73
2
  0
CIRCLE
  5
115
330
17
100
AcDbEntity
  8
S-GRID
100
AcDbCircle
 10
398.0
 20
394.0
 30
0.0
 40
2.6
  0
TEXT
  5
116
330
17
100
AcDbEntity
  8
S-GRID
100
AcDbText
 10
464.0
 20
394.0
 30
0.0
 40
2.0
  1
8
  7
OpenSans
 72
1
 11
464.0
 21
394.0
 31
0.0
100
AcDbText
 73
2
  0
CIRCLE
  5
117
330
17
100
AcDbEntity
  8
S-GRID
100
AcDbCircle
 10
464.0
 20
394.0
 30
0.0
 40
2.6
  0
LWPOLYLINE
  5
118
330
17
100
AcDbEntity
  8
S-REBAR-SEC
100
AcDbPolyline
 90
4
 70
1
 10
358.0
 20
406.0
 10
374.0
 20
406.0
 10
374.0
 20
464.0
 10
358.0
 20
464.0
  0
LWPOLYLINE
  5
119
330
17
100
AcDbEntity
  8
S-REBAR-SEC
100
AcDbPolyline
 90
4
 70
1
 10
422.0
 20
406.0
 10
438.0
 20
406.0
 10
438.0
 20
464.0
 10
422.0
 20
464.0
  0
LWPOLYLINE
  5
11A
330
17
100
AcDbEntity
  8
S-REFERENCE
100
AcDbPolyline
 90
4
 70
1
 10
338.0
 20
404.0
 10
434.0
 20
404.0
 10
434.0
 20
520.0
 10
338.0
 20
520.0
  0
TEXT
  5
11B
330
17
100
AcDbEntity
  8
S-REFERENCE
100
AcDbText
 10
386.0
 20
518.0
 30
0.0
 40
1.4
  1
HEADHOUSE OVER
  7
OpenSans
 72
1
 11
386.0
 21
518.0
 31
0.0
100
AcDbText
 73
2
  0
LWPOLYLINE
  5
11C
330
17
100
AcDbEntity
  8
S-REBAR-SEC
100
AcDbPolyline
 90
4
 70
1
 10
355.0
 20
508.0
 10
373.0
 20
508.0
 10
373.0
 20
524.0
 10
355.0
 20
524.0
  0
DIMENSION
  5
11D
330
17
100
AcDbEntity
  8
S-DIM
100
AcDbDimension
280
0
  2
*D1
  3
SC-DIM
 10
66.0
 20
358.0
 30
0.0
 11
72.0
 21
359.7
 31
0.0
 70
32
 71
5
  1
<>
100
AcDbAlignedDimension
 13
66.0
 23
400.0
 33
0.0
 14
78.0
 24
400.0
 34
0.0
 50
0.0
100
AcDbRotatedDimension
1001
ACAD
1000
DSTYLE
1002
{
1070
144
1040
50.0
1002
}
  0
DIMENSION
  5
12C
330
17
100
AcDbEntity
  8
S-DIM
100
AcDbDimension
280
0
  2
*D2
  3
SC-DIM
 10
78.0
 20
358.0
 30
0.0
 11
198.0
 21
359.7
 31
0.0
 70
32
 71
5
  1
<>
100
AcDbAlignedDimension
 13
78.0
 23
400.0
 33
0.0
 14
318.0
 24
400.0
 34
0.0
 50
0.0
100
AcDbRotatedDimension
1001
ACAD
1000
DSTYLE
1002
{
1070
144
1040
50.0
1002
}
  0
DIMENSION
  5
13B
330
17
100
AcDbEntity
  8
S-DIM
100
AcDbDimension
280
0
  2
*D3
  3
SC-DIM
 10
318.0
 20
358.0
 30
0.0
 11
320.0
 21
360.9
 31
0.0
 70
32
 71
5
  1
<>
100
AcDbAlignedDimension
 13
318.0
 23
400.0
 33
0.0
 14
322.0
 24
400.0
 34
0.0
 50
0.0
100
AcDbRotatedDimension
1001
ACAD
1000
DSTYLE
1002
{
1070
144
1040
50.0
1002
}
  0
DIMENSION
  5
14A
330
17
100
AcDbEntity
  8
S-DIM
100
AcDbDimension
280
0
  2
*D4
  3
SC-DIM
 10
322.0
 20
358.0
 30
0.0
 11
342.0
 21
359.7
 31
0.0
 70
32
 71
5
  1
<>
100
AcDbAlignedDimension
 13
322.0
 23
400.0
 33
0.0
 14
362.0
 24
400.0
 34
0.0
 50
0.0
100
AcDbRotatedDimension
1001
ACAD
1000
DSTYLE
1002
{
1070
144
1040
50.0
1002
}
  0
DIMENSION
  5
159
330
17
100
AcDbEntity
  8
S-DIM
100
AcDbDimension
280
0
  2
*D5
  3
SC-DIM
 10
362.0
 20
358.0
 30
0.0
 11
366.0
 21
359.7
 31
0.0
 70
32
 71
5
  1
<>
100
AcDbAlignedDimension
 13
362.0
 23
400.0
 33
0.0
 14
370.0
 24
400.0
 34
0.0
 50
0.0
100
AcDbRotatedDimension
1001
ACAD
1000
DSTYLE
1002
{
1070
144
1040
50.0
1002
}
  0
DIMENSION
  5
168
330
17
100
AcDbEntity
  8
S-DIM
100
AcDbDimension
280
0
  2
*D6
  3
SC-DIM
 10
370.0
 20
358.0
 30
0.0
 11
398.0
 21
359.7
 31
0.0
 70
32
 71
5
  1
<>
100
AcDbAlignedDimension
 13
370.0
 23
400.0
 33
0.0
 14
426.0
 24
400.0
 34
0.0
 50
0.0
100
AcDbRotatedDimension
1001
ACAD
1000
DSTYLE
1002
{
1070
144
1040
50.0
1002
}
  0
DIMENSION
  5
177
330
17
100
AcDbEntity
  8
S-DIM
100
AcDbDimension
280
0
  2
*D7
  3
SC-DIM
 10
426.0
 20
358.0
 30
0.0
 11
430.0
 21
359.7
 31
0.0
 70
32
 71
5
  1
<>
100
AcDbAlignedDimension
 13
426.0
 23
400.0
 33
0.0
 14
434.0
 24
400.0
 34
0.0
 50
0.0
100
AcDbRotatedDimension
1001
ACAD
1000
DSTYLE
1002
{
1070
144
1040
50.0
1002
}
  0
DIMENSION
  5
186
330
17
100
AcDbEntity
  8
S-DIM
100
AcDbDimension
280
0
  2
*D8
  3
SC-DIM
 10
434.0
 20
358.0
 30
0.0
 11
464.0
 21
359.7
 31
0.0
 70
32
 71
5
  1
<>
100
AcDbAlignedDimension
 13
434.0
 23
400.0
 33
0.0
 14
494.0
 24
400.0
 34
0.0
 50
0.0
100
AcDbRotatedDimension
1001
ACAD
1000
DSTYLE
1002
{
1070
144
1040
50.0
1002
}
  0
DIMENSION
  5
195
330
17
100
AcDbEntity
  8
S-DIM
100
AcDbDimension
280
0
  2
*D9
  3
SC-DIM
 10
494.0
 20
358.0
 30
0.0
 11
500.0
 21
359.7
 31
0.0
 70
32
 71
5
  1
<>
100
AcDbAlignedDimension
 13
494.0
 23
400.0
 33
0.0
 14
506.0
 24
400.0
 34
0.0
 50
0.0
100
AcDbRotatedDimension
1001
ACAD
1000
DSTYLE
1002
{
1070
144
1040
50.0
1002
}
  0
DIMENSION
  5
1A4
330
17
100
AcDbEntity
  8
S-DIM
100
AcDbDimension
280
0
  2
*D10
  3
SC-DIM
 10
66.0
 20
349.0
 30
0.0
 11
286.0
 21
350.7
 31
0.0
 70
32
 71
5
  1
<>
100
AcDbAlignedDimension
 13
66.0
 23
400.0
 33
0.0
 14
506.0
 24
400.0
 34
0.0
 50
0.0
100
AcDbRotatedDimension
1001
ACAD
1000
DSTYLE
1002
{
1070
144
1040
50.0
1002
}
  0
DIMENSION
  5
1B3
330
17
100
AcDbEntity
  8
S-DIM
100
AcDbDimension
280
0
  2
*D11
  3
SC-DIM
 10
30.0
 20
400.0
 30
0.0
 11
28.3
 21
406.0
 31
0.0
 70
32
 71
5
  1
<>
100
AcDbAlignedDimension
 13
66.0
 23
400.0
 33
0.0
 14
66.0
 24
412.0
 34
0.0
 50
90.0
100
AcDbRotatedDimension
1001
ACAD
1000
DSTYLE
1002
{
1070
144
1040
50.0
1002
}
  0
DIMENSION
  5
1C2
330
17
100
AcDbEntity
  8
S-DIM
100
AcDbDimension
280
0
  2
*D12
  3
SC-DIM
 10
30.0
 20
412.0
 30
0.0
 11
28.3
 21
462.0
 31
0.0
 70
32
 71
5
  1
<>
100
AcDbAlignedDimension
 13
66.0
 23
412.0
 33
0.0
 14
66.0
 24
512.0
 34
0.0
 50
90.0
100
AcDbRotatedDimension
1001
ACAD
1000
DSTYLE
1002
{
1070
144
1040
50.0
1002
}
  0
DIMENSION
  5
1D1
330
17
100
AcDbEntity
  8
S-DIM
100
AcDbDimension
280
0
  2
*D13
  3
SC-DIM
 10
30.0
 20
512.0
 30
0.0
 11
28.3
 21
518.0
 31
0.0
 70
32
 71
5
  1
<>
100
AcDbAlignedDimension
 13
66.0
 23
512.0
 33
0.0
 14
66.0
 24
524.0
 34
0.0
 50
90.0
100
AcDbRotatedDimension
1001
ACAD
1000
DSTYLE
1002
{
1070
144
1040
50.0
1002
}
  0
DIMENSION
  5
1E0
330
17
100
AcDbEntity
  8
S-DIM
100
AcDbDimension
280
0
  2
*D14
  3
SC-DIM
 10
21.0
 20
400.0
 30
0.0
 11
19.3
 21
462.0
 31
0.0
 70
32
 71
5
  1
<>
100
AcDbAlignedDimension
 13
66.0
 23
400.0
 33
0.0
 14
66.0
 24
524.0
 34
0.0
 50
90.0
100
AcDbRotatedDimension
1001
ACAD
1000
DSTYLE
1002
{
1070
144
1040
50.0
1002
}
  0
INSERT
  5
1EF
330
17
100
AcDbEntity
  8
S-TITLE
100
AcDbBlockReference
  2
NORTH
 10
560.0
 20
456.0
 30
0.0
  0
TEXT
  5
1F1
330
17
100
AcDbEntity
  8
S-TITLE
100
AcDbText
 10
560.0
 20
470.0
 30
0.0
 40
2.0
  1
N
  7
OpenSans
 72
1
 11
560.0
 21
470.0
 31
0.0
100
AcDbText
 73
2
  0
LEADER
  5
1F2
330
17
100
AcDbEntity
  8
S-CALLOUT
100
AcDbLeader
  3
SC-DIM
 73
3
 76
2
 10
366.0
 20
448.0
 30
0.0
 10
250.0
 20
540.0
 30
0.0
  0
TEXT
  5
1F3
330
17
100
AcDbEntity
  8
S-CALLOUT
100
AcDbText
 10
248.4
 20
539.4
 30
0.0
 40
1.8
  1
B01-B03  BLAST-DOOR HEADER 400 x 1100 (x2)
  7
OpenSans
 72
2
 11
248.4
 21
539.4
 31
0.0
100
AcDbText
  0
LEADER
  5
1F4
330
17
100
AcDbEntity
  8
S-CALLOUT
100
AcDbLeader
  3
SC-DIM
 73
3
 76
2
 10
364.0
 20
516.0
 30
0.0
 10
420.0
 20
514.0
 30
0.0
  0
TEXT
  5
1F5
330
17
100
AcDbEntity
  8
S-CALLOUT
100
AcDbText
 10
421.6
 20
513.4
 30
0.0
 40
1.8
  1
H08-H09  HEADHOUSE DOOR-HEAD EDGE BAND
  7
OpenSans
 11
421.6
 21
513.4
 31
0.0
100
AcDbText
  0
TEXT
  5
1F6
330
17
100
AcDbEntity
  8
S-TITLE
100
AcDbText
 10
66.0
 20
552.0
 30
0.0
 40
3.5
  1
V1   BEAM-TYPE ELEMENT LOCATIONS - UNDERGROUND LEVEL
  7
OpenSans
 11
66.0
 21
552.0
 31
0.0
100
AcDbText
  0
LINE
  5
1F7
330
17
100
AcDbEntity
  8
S-TITLE
100
AcDbLine
 10
66.0
 20
550.2
 30
0.0
 11
217.3697253851306
 21
550.2
 31
0.0
  0
TEXT
  5
1F8
330
17
100
AcDbEntity
  8
S-TEXT
100
AcDbText
 10
66.0
 20
544.8
 30
0.0
 40
2.0
  1
SCALE 1:50
  7
OpenSans
 11
66.0
 21
544.8
 31
0.0
100
AcDbText
  0
TEXT
  5
1F9
330
17
100
AcDbEntity
  8
S-BLAST
100
AcDbText
 10
66.0
 20
372.0
 30
0.0
 40
1.4
  1
THE ONLY BEAM-TYPE ELEMENTS IN THE STRUCTURE ARE LOCAL BANDS OVER OPENINGS.
  7
OpenSans
 11
66.0
 21
372.0
 31
0.0
100
AcDbText
  0
TEXT
  5
1FA
330
17
100
AcDbEntity
  8
S-TITLE
100
AcDbText
 10
68.0
 20
347.5
 30
0.0
 40
2.5
  1
WHY THERE IS NO COLUMN SHEET IN THIS PACKAGE
  7
OpenSans
 11
68.0
 21
347.5
 31
0.0
100
AcDbText
  0
TEXT
  5
1FB
330
17
100
AcDbEntity
  8
S-NOTE
100
AcDbText
 10
68.0
 20
343.375
 30
0.0
 40
2.0
  1
*** THERE ARE NO RC COLUMNS, NO FRAMED BEAMS AND NO BEAM-COLUMN JOINTS
  7
OpenSans
 11
68.0
 21
343.375
 31
0.0
100
AcDbText
  0
TEXT
  5
1FC
330
17
100
AcDbEntity
  8
S-NOTE
100
AcDbText
 10
68.0
 20
340.325
 30
0.0
 40
2.0
  1
    IN THE UNDERGROUND SHELTER. ***
  7
OpenSans
 11
68.0
 21
340.325
 31
0.0
100
AcDbText
  0
TEXT
  5
1FD
330
17
100
AcDbEntity
  8
S-NOTE
100
AcDbText
 10
68.0
 20
334.22499999999997
 30
0.0
 40
2.0
  1
The box is a MONOLITHIC PLATE STRUCTURE - mat, walls and pressure slab.
  7
OpenSans
 11
68.0
 21
334.22499999999997
 31
0.0
100
AcDbText
  0
TEXT
  5
1FE
330
17
100
AcDbEntity
  8
S-NOTE
100
AcDbText
 10
68.0
 20
331.17499999999995
 30
0.0
 40
2.0
  1
Master B.3 declares punching shear (IS 456 Cl. 31.6) NOT APPLICABLE for
  7
OpenSans
 11
68.0
 21
331.17499999999995
 31
0.0
100
AcDbText
  0
TEXT
  5
1FF
330
17
100
AcDbEntity
  8
S-NOTE
100
AcDbText
 10
68.0
 20
328.12499999999994
 30
0.0
 40
2.0
  1
exactly this reason: no column or pedestal bears on the mat, and the
  7
OpenSans
 11
68.0
 21
328.12499999999994
 31
0.0
100
AcDbText
  0
TEXT
  5
200
330
17
100
AcDbEntity
  8
S-NOTE
100
AcDbText
 10
68.0
 20
325.07499999999993
 30
0.0
 40
2.0
  1
headhouse walls bear on the ROOF, not on the foundation.
  7
OpenSans
 11
68.0
 21
325.07499999999993
 31
0.0
100
AcDbText
  0
TEXT
  5
201
330
17
100
AcDbEntity
  8
S-NOTE
100
AcDbText
 10
68.0
 20
318.9749999999999
 30
0.0
 40
2.0
  1
CONSEQUENCES, STATED RATHER THAN LEFT IMPLICIT:
  7
OpenSans
 11
68.0
 21
318.9749999999999
 31
0.0
100
AcDbText
  0
TEXT
  5
202
330
17
100
AcDbEntity
  8
S-NOTE
100
AcDbText
 10
68.0
 20
315.9249999999999
 30
0.0
 40
2.0
  1
  ·  NO R-501 / R-502 / R-503 COLUMN SHEET IS ISSUED.
  7
OpenSans
 11
68.0
 21
315.9249999999999
 31
0.0
100
AcDbText
  0
TEXT
  5
203
330
17
100
AcDbEntity
  8
S-NOTE
100
AcDbText
 10
68.0
 20
312.8749999999999
 30
0.0
 40
2.0
  1
  ·  NO BEAM-COLUMN JOINT DETAIL IS DRAWN.
  7
OpenSans
 11
68.0
 21
312.8749999999999
 31
0.0
100
AcDbText
  0
TEXT
  5
204
330
17
100
AcDbEntity
  8
S-NOTE
100
AcDbText
 10
68.0
 20
309.8249999999999
 30
0.0
 40
2.0
  1
  ·  BAR-MARK PREFIX C IS RESERVED AND DELIBERATELY UNUSED.
  7
OpenSans
 11
68.0
 21
309.8249999999999
 31
0.0
100
AcDbText
  0
TEXT
  5
205
330
17
100
AcDbEntity
  8
S-NOTE
100
AcDbText
 10
68.0
 20
306.77499999999986
 30
0.0
 40
2.0
  1
  ·  IS 13920 Cl. 6 (beams), Cl. 7 (columns), Cl. 8 (confinement) and the
  7
OpenSans
 11
68.0
 21
306.77499999999986
 31
0.0
100
AcDbText
  0
TEXT
  5
206
330
17
100
AcDbEntity
  8
S-NOTE
100
AcDbText
 10
68.0
 20
303.72499999999985
 30
0.0
 40
2.0
  1
     joint provisions HAVE NO MEMBER TO APPLY TO in this package.  This is
  7
OpenSans
 11
68.0
 21
303.72499999999985
 31
0.0
100
AcDbText
  0
TEXT
  5
207
330
17
100
AcDbEntity
  8
S-NOTE
100
AcDbText
 10
68.0
 20
300.67499999999984
 30
0.0
 40
2.0
  1
     a determination, not an omission - see QAQC/IS13920_Compliance_Matrix.md.
  7
OpenSans
 11
68.0
 21
300.67499999999984
 31
0.0
100
AcDbText
  0
TEXT
  5
208
330
17
100
AcDbEntity
  8
S-NOTE
100
AcDbText
 10
68.0
 20
294.5749999999998
 30
0.0
 40
2.0
  1
Drawing a column that does not exist would be fabrication.  It is not done.
  7
OpenSans
 11
68.0
 21
294.5749999999998
 31
0.0
100
AcDbText
  0
TEXT
  5
209
330
17
100
AcDbEntity
  8
S-NOTE
100
AcDbText
 10
68.0
 20
288.4749999999998
 30
0.0
 40
2.0
  1
THREE LOCAL BAND MEMBERS DO EXIST AND ARE DETAILED ON THIS SHEET AND R-402:
  7
OpenSans
 11
68.0
 21
288.4749999999998
 31
0.0
100
AcDbText
  0
TEXT
  5
20A
330
17
100
AcDbEntity
  8
S-NOTE
100
AcDbText
 10
68.0
 20
285.4249999999998
 30
0.0
 40
2.0
  1
  B01-B03  BLAST-DOOR HEADER 400 x 1100, x2 (over Blast Doors 1 and 2)
  7
OpenSans
 11
68.0
 21
285.4249999999998
 31
0.0
100
AcDbText
  0
TEXT
  5
20B
330
17
100
AcDbEntity
  8
S-NOTE
100
AcDbText
 10
68.0
 20
282.3749999999998
 30
0.0
 40
2.0
  1
  H08-H09  HEADHOUSE DOOR-HEAD EDGE BAND 400 x 800
  7
OpenSans
 11
68.0
 21
282.3749999999998
 31
0.0
100
AcDbText
  0
TEXT
  5
20C
330
17
100
AcDbEntity
  8
S-NOTE
100
AcDbText
 10
68.0
 20
279.32499999999976
 30
0.0
 40
2.0
  1
  E10-E11  ENTRY-DOOR LINTEL 250 x 350
  7
OpenSans
 11
68.0
 21
279.32499999999976
 31
0.0
100
AcDbText
  0
TEXT
  5
20D
330
17
100
AcDbEntity
  8
S-NOTE
100
AcDbText
 10
68.0
 20
273.22499999999974
 30
0.0
 40
2.0
  1
They are LOCAL BANDS spanning over openings, not part of any lateral-force-
  7
OpenSans
 11
68.0
 21
273.22499999999974
 31
0.0
100
AcDbText
  0
TEXT
  5
20E
330
17
100
AcDbEntity
  8
S-NOTE
100
AcDbText
 10
68.0
 20
270.1749999999997
 30
0.0
 40
2.0
  1
resisting frame.  The governing action on the first two is BLAST, not seismic.
  7
OpenSans
 11
68.0
 21
270.1749999999997
 31
0.0
100
AcDbText
  0
LWPOLYLINE
  5
20F
330
17
100
AcDbEntity
  8
S-TITLE
100
AcDbPolyline
 90
4
 70
1
 10
66.0
 20
265.1249999999997
 10
366.0
 20
265.1249999999997
 10
366.0
 20
352.0
 10
66.0
 20
352.0
  0
TEXT
  5
210
330
17
100
AcDbEntity
  8
S-TITLE
100
AcDbText
 10
378.0
 20
347.5
 30
0.0
 40
2.5
  1
BEAM-TYPE ELEMENT SCHEDULE
  7
OpenSans
 11
378.0
 21
347.5
 31
0.0
100
AcDbText
  0
TEXT
  5
211
330
17
100
AcDbEntity
  8
S-NOTE
100
AcDbText
 10
378.0
 20
343.375
 30
0.0
 40
2.0
  1
ELEMENT                        SIZE        SPAN   ACTION
  7
OpenSans
 11
378.0
 21
343.375
 31
0.0
100
AcDbText
  0
TEXT
  5
212
330
17
100
AcDbEntity
  8
S-NOTE
100
AcDbText
 10
378.0
 20
340.325
 30
0.0
 40
2.0
  1
BLAST-DOOR HEADER x2        400 x 1100     1200   w 402 kN/m
  7
OpenSans
 11
378.0
 21
340.325
 31
0.0
100
AcDbText
  0
TEXT
  5
213
330
17
100
AcDbEntity
  8
S-NOTE
100
AcDbText
 10
378.0
 20
337.275
 30
0.0
 40
2.0
  1
  M = w L2 / 12 = 48.2 kNm  ·  V = 241 kN  ·  tau 0.578 N/mm2
  7
OpenSans
 11
378.0
 21
337.275
 31
0.0
100
AcDbText
  0
TEXT
  5
214
330
17
100
AcDbEntity
  8
S-NOTE
100
AcDbText
 10
378.0
 20
334.22499999999997
 30
0.0
 40
2.0
  1
  4-T20 TOP + 4-T20 BOTTOM · T12 4-LEGGED LINKS @ 150
  7
OpenSans
 11
378.0
 21
334.22499999999997
 31
0.0
100
AcDbText
  0
TEXT
  5
215
330
17
100
AcDbEntity
  8
S-NOTE
100
AcDbText
 10
378.0
 20
331.17499999999995
 30
0.0
 40
2.0
  1
  GOVERNING: COMB 103 BLAST
  7
OpenSans
 11
378.0
 21
331.17499999999995
 31
0.0
100
AcDbText
  0
TEXT
  5
216
330
17
100
AcDbEntity
  8
S-NOTE
100
AcDbText
 10
378.0
 20
325.07499999999993
 30
0.0
 40
2.0
  1
HEADHOUSE DOOR-HEAD BAND    400 x 800       900   w 402 kN/m
  7
OpenSans
 11
378.0
 21
325.07499999999993
 31
0.0
100
AcDbText
  0
TEXT
  5
217
330
17
100
AcDbEntity
  8
S-NOTE
100
AcDbText
 10
378.0
 20
322.0249999999999
 30
0.0
 40
2.0
  1
  M = w L2 / 12 = 27.1 kNm  ·  V = 181 kN  ·  d 742 · tau_v 0.610
  7
OpenSans
 11
378.0
 21
322.0249999999999
 31
0.0
100
AcDbText
  0
TEXT
  5
218
330
17
100
AcDbEntity
  8
S-NOTE
100
AcDbText
 10
378.0
 20
318.9749999999999
 30
0.0
 40
2.0
  1
  4-T20 TOP + 4-T20 BOTTOM · T12 4-LEGGED LINKS @ 150
  7
OpenSans
 11
378.0
 21
318.9749999999999
 31
0.0
100
AcDbText
  0
TEXT
  5
219
330
17
100
AcDbEntity
  8
S-NOTE
100
AcDbText
 10
378.0
 20
315.9249999999999
 30
0.0
 40
2.0
  1
  over the opening AND 600 mm each side
  7
OpenSans
 11
378.0
 21
315.9249999999999
 31
0.0
100
AcDbText
  0
TEXT
  5
21A
330
17
100
AcDbEntity
  8
S-NOTE
100
AcDbText
 10
378.0
 20
312.8749999999999
 30
0.0
 40
2.0
  1
  GOVERNING: COMB 103 BLAST, acting on EITHER FACE
  7
OpenSans
 11
378.0
 21
312.8749999999999
 31
0.0
100
AcDbText
  0
TEXT
  5
21B
330
17
100
AcDbEntity
  8
S-NOTE
100
AcDbText
 10
378.0
 20
306.77499999999986
 30
0.0
 40
2.0
  1
  A GEOMETRIC TRAP, RECORDED RATHER THAN HIDDEN:  the door head is at
  7
OpenSans
 11
378.0
 21
306.77499999999986
 31
0.0
100
AcDbText
  0
TEXT
  5
21C
330
17
100
AcDbEntity
  8
S-NOTE
100
AcDbText
 10
378.0
 20
303.72499999999985
 30
0.0
 40
2.0
  1
  (-)2.000 + 2.100 = +0.100 and the roof soffit is at +0.400, leaving
  7
OpenSans
 11
378.0
 21
303.72499999999985
 31
0.0
100
AcDbText
  0
TEXT
  5
21D
330
17
100
AcDbEntity
  8
S-NOTE
100
AcDbText
 10
378.0
 20
300.67499999999984
 30
0.0
 40
2.0
  1
  ONLY 300 mm OF WALL ABOVE THE DOOR - too shallow for a lintel.  The
  7
OpenSans
 11
378.0
 21
300.67499999999984
 31
0.0
100
AcDbText
  0
TEXT
  5
21E
330
17
100
AcDbEntity
  8
S-NOTE
100
AcDbText
 10
378.0
 20
297.62499999999983
 30
0.0
 40
2.0
  1
  300 wall and the 500 roof are therefore detailed to act TOGETHER as
  7
OpenSans
 11
378.0
 21
297.62499999999983
 31
0.0
100
AcDbText
  0
TEXT
  5
21F
330
17
100
AcDbEntity
  8
S-NOTE
100
AcDbText
 10
378.0
 20
294.5749999999998
 30
0.0
 40
2.0
  1
  an 800 mm deep edge band.
  7
OpenSans
 11
378.0
 21
294.5749999999998
 31
0.0
100
AcDbText
  0
TEXT
  5
220
330
17
100
AcDbEntity
  8
S-NOTE
100
AcDbText
 10
378.0
 20
288.4749999999998
 30
0.0
 40
2.0
  1
ENTRY-DOOR LINTEL           250 x 350      1000   nominal
  7
OpenSans
 11
378.0
 21
288.4749999999998
 31
0.0
100
AcDbText
  0
TEXT
  5
221
330
17
100
AcDbEntity
  8
S-NOTE
100
AcDbText
 10
378.0
 20
285.4249999999998
 30
0.0
 40
2.0
  1
  3-T12 TOP + 3-T12 BOTTOM · T8 LINKS @ 150
  7
OpenSans
 11
378.0
 21
285.4249999999998
 31
0.0
100
AcDbText
  0
TEXT
  5
222
330
17
100
AcDbEntity
  8
S-NOTE
100
AcDbText
 10
378.0
 20
282.3749999999998
 30
0.0
 40
2.0
  1
  GOVERNING: IS 456 ULS, normal partial factors.  The entry stairwell
  7
OpenSans
 11
378.0
 21
282.3749999999998
 31
0.0
100
AcDbText
  0
TEXT
  5
223
330
17
100
AcDbEntity
  8
S-NOTE
100
AcDbText
 10
378.0
 20
279.32499999999976
 30
0.0
 40
2.0
  1
  is OUTSIDE the protective boundary and is NOT blast rated.
  7
OpenSans
 11
378.0
 21
279.32499999999976
 31
0.0
100
AcDbText
  0
TEXT
  5
224
330
17
100
AcDbEntity
  8
S-NOTE
100
AcDbText
 10
378.0
 20
273.22499999999974
 30
0.0
 40
2.0
  1
MANUAL CALCULATION - NOT DIRECT STAAD OUTPUT.
  7
OpenSans
 11
378.0
 21
273.22499999999974
 31
0.0
100
AcDbText
  0
LWPOLYLINE
  5
225
330
17
100
AcDbEntity
  8
S-TITLE
100
AcDbPolyline
 90
4
 70
1
 10
376.0
 20
268.1749999999997
 10
638.0
 20
268.1749999999997
 10
638.0
 20
352.0
 10
376.0
 20
352.0
  0
TEXT
  5
226
330
17
100
AcDbEntity
  8
S-TITLE
100
AcDbText
 10
376.0
 20
263.1749999999997
 30
0.0
 40
2.5
  1
BAR SCHEDULE EXTRACT - THIS SHEET
  7
OpenSans
 11
376.0
 21
263.1749999999997
 31
0.0
100
AcDbText
  0
LWPOLYLINE
  5
227
330
17
100
AcDbEntity
  8
S-TABLE
100
AcDbPolyline
 90
4
 70
1
 10
376.0
 20
255.97499999999974
 10
485.0
 20
255.97499999999974
 10
485.0
 20
260.1749999999997
 10
376.0
 20
260.1749999999997
  0
TEXT
  5
228
330
17
100
AcDbEntity
  8
S-TABLE
100
AcDbText
 10
377.4
 20
257.12045454545427
 30
0.0
 40
1.909090909090909
  1
MARK
  7
OpenSans
 11
377.4
 21
257.12045454545427
 31
0.0
100
AcDbText
  0
TEXT
  5
229
330
17
100
AcDbEntity
  8
S-TABLE
100
AcDbText
 10
394.4
 20
257.12045454545427
 30
0.0
 40
1.909090909090909
  1
DIA
  7
OpenSans
 11
394.4
 21
257.12045454545427
 31
0.0
100
AcDbText
  0
TEXT
  5
22A
330
17
100
AcDbEntity
  8
S-TABLE
100
AcDbText
 10
407.4
 20
257.12045454545427
 30
0.0
 40
1.909090909090909
  1
SHP
  7
OpenSans
 11
407.4
 21
257.12045454545427
 31
0.0
100
AcDbText
  0
TEXT
  5
22B
330
17
100
AcDbEntity
  8
S-TABLE
100
AcDbText
 10
419.4
 20
257.12045454545427
 30
0.0
 40
1.909090909090909
  1
SPAC
  7
OpenSans
 11
419.4
 21
257.12045454545427
 31
0.0
100
AcDbText
  0
TEXT
  5
22C
330
17
100
AcDbEntity
  8
S-TABLE
100
AcDbText
 10
434.4
 20
257.12045454545427
 30
0.0
 40
1.909090909090909
  1
No.
  7
OpenSans
 11
434.4
 21
257.12045454545427
 31
0.0
100
AcDbText
  0
TEXT
  5
22D
330
17
100
AcDbEntity
  8
S-TABLE
100
AcDbText
 10
449.4
 20
257.12045454545427
 30
0.0
 40
1.909090909090909
  1
CUT
  7
OpenSans
 11
449.4
 21
257.12045454545427
 31
0.0
100
AcDbText
  0
TEXT
  5
22E
330
17
100
AcDbEntity
  8
S-TABLE
100
AcDbText
 10
466.4
 20
257.12045454545427
 30
0.0
 40
1.909090909090909
  1
kg
  7
OpenSans
 11
466.4
 21
257.12045454545427
 31
0.0
100
AcDbText
  0
TEXT
  5
22F
330
17
100
AcDbEntity
  8
S-TABLE
100
AcDbText
 10
377.4
 20
252.9204545454543
 30
0.0
 40
1.909090909090909
  1
B01
  7
OpenSans
 11
377.4
 21
252.9204545454543
 31
0.0
100
AcDbText
  0
TEXT
  5
230
330
17
100
AcDbEntity
  8
S-TABLE
100
AcDbText
 10
394.4
 20
252.9204545454543
 30
0.0
 40
1.909090909090909
  1
T20
  7
OpenSans
 11
394.4
 21
252.9204545454543
 31
0.0
100
AcDbText
  0
TEXT
  5
231
330
17
100
AcDbEntity
  8
S-TABLE
100
AcDbText
 10
407.4
 20
252.9204545454543
 30
0.0
 40
1.909090909090909
  1
00
  7
OpenSans
 11
407.4
 21
252.9204545454543
 31
0.0
100
AcDbText
  0
TEXT
  5
232
330
17
100
AcDbEntity
  8
S-TABLE
100
AcDbText
 10
419.4
 20
252.9204545454543
 30
0.0
 40
1.909090909090909
  1
-
  7
OpenSans
 11
419.4
 21
252.9204545454543
 31
0.0
100
AcDbText
  0
TEXT
  5
233
330
17
100
AcDbEntity
  8
S-TABLE
100
AcDbText
 10
434.4
 20
252.9204545454543
 30
0.0
 40
1.909090909090909
  1
8
  7
OpenSans
 11
434.4
 21
252.9204545454543
 31
0.0
100
AcDbText
  0
TEXT
  5
234
330
17
100
AcDbEntity
  8
S-TABLE
100
AcDbText
 10
449.4
 20
252.9204545454543
 30
0.0
 40
1.909090909090909
  1
2800
  7
OpenSans
 11
449.4
 21
252.9204545454543
 31
0.0
100
AcDbText
  0
TEXT
  5
235
330
17
100
AcDbEntity
  8
S-TABLE
100
AcDbText
 10
466.4
 20
252.9204545454543
 30
0.0
 40
1.909090909090909
  1
55
  7
OpenSans
 11
466.4
 21
252.9204545454543
 31
0.0
100
AcDbText
  0
LINE
  5
236
330
17
100
AcDbEntity
  8
S-TABLE
100
AcDbLine
 10
376.0
 20
251.77499999999975
 30
0.0
 11
485.0
 21
251.77499999999975
 31
0.0
  0
TEXT
  5
237
330
17
100
AcDbEntity
  8
S-TABLE
100
AcDbText
 10
377.4
 20
248.72045454545432
 30
0.0
 40
1.909090909090909
  1
B02
  7
OpenSans
 11
377.4
 21
248.72045454545432
 31
0.0
100
AcDbText
  0
TEXT
  5
238
330
17
100
AcDbEntity
  8
S-TABLE
100
AcDbText
 10
394.4
 20
248.72045454545432
 30
0.0
 40
1.909090909090909
  1
T20
  7
OpenSans
 11
394.4
 21
248.72045454545432
 31
0.0
100
AcDbText
  0
TEXT
  5
239
330
17
100
AcDbEntity
  8
S-TABLE
100
AcDbText
 10
407.4
 20
248.72045454545432
 30
0.0
 40
1.909090909090909
  1
00
  7
OpenSans
 11
407.4
 21
248.72045454545432
 31
0.0
100
AcDbText
  0
TEXT
  5
23A
330
17
100
AcDbEntity
  8
S-TABLE
100
AcDbText
 10
419.4
 20
248.72045454545432
 30
0.0
 40
1.909090909090909
  1
-
  7
OpenSans
 11
419.4
 21
248.72045454545432
 31
0.0
100
AcDbText
  0
TEXT
  5
23B
330
17
100
AcDbEntity
  8
S-TABLE
100
AcDbText
 10
434.4
 20
248.72045454545432
 30
0.0
 40
1.909090909090909
  1
8
  7
OpenSans
 11
434.4
 21
248.72045454545432
 31
0.0
100
AcDbText
  0
TEXT
  5
23C
330
17
100
AcDbEntity
  8
S-TABLE
100
AcDbText
 10
449.4
 20
248.72045454545432
 30
0.0
 40
1.909090909090909
  1
2800
  7
OpenSans
 11
449.4
 21
248.72045454545432
 31
0.0
100
AcDbText
  0
TEXT
  5
23D
330
17
100
AcDbEntity
  8
S-TABLE
100
AcDbText
 10
466.4
 20
248.72045454545432
 30
0.0
 40
1.909090909090909
  1
55
  7
OpenSans
 11
466.4
 21
248.72045454545432
 31
0.0
100
AcDbText
  0
LINE
  5
23E
330
17
100
AcDbEntity
  8
S-TABLE
100
AcDbLine
 10
376.0
 20
247.57499999999976
 30
0.0
 11
485.0
 21
247.57499999999976
 31
0.0
  0
TEXT
  5
23F
330
17
100
AcDbEntity
  8
S-TABLE
100
AcDbText
 10
377.4
 20
244.52045454545433
 30
0.0
 40
1.909090909090909
  1
B03
  7
OpenSans
 11
377.4
 21
244.52045454545433
 31
0.0
100
AcDbText
  0
TEXT
  5
240
330
17
100
AcDbEntity
  8
S-TABLE
100
AcDbText
 10
394.4
 20
244.52045454545433
 30
0.0
 40
1.909090909090909
  1
T12
  7
OpenSans
 11
394.4
 21
244.52045454545433
 31
0.0
100
AcDbText
  0
TEXT
  5
241
330
17
100
AcDbEntity
  8
S-TABLE
100
AcDbText
 10
407.4
 20
244.52045454545433
 30
0.0
 40
1.909090909090909
  1
51
  7
OpenSans
 11
407.4
 21
244.52045454545433
 31
0.0
100
AcDbText
  0
TEXT
  5
242
330
17
100
AcDbEntity
  8
S-TABLE
100
AcDbText
 10
419.4
 20
244.52045454545433
 30
0.0
 40
1.909090909090909
  1
150
  7
OpenSans
 11
419.4
 21
244.52045454545433
 31
0.0
100
AcDbText
  0
TEXT
  5
243
330
17
100
AcDbEntity
  8
S-TABLE
100
AcDbText
 10
434.4
 20
244.52045454545433
 30
0.0
 40
1.909090909090909
  1
72
  7
OpenSans
 11
434.4
 21
244.52045454545433
 31
0.0
100
AcDbText
  0
TEXT
  5
244
330
17
100
AcDbEntity
  8
S-TABLE
100
AcDbText
 10
449.4
 20
244.52045454545433
 30
0.0
 40
1.909090909090909
  1
2920
  7
OpenSans
 11
449.4
 21
244.52045454545433
 31
0.0
100
AcDbText
  0
TEXT
  5
245
330
17
100
AcDbEntity
  8
S-TABLE
100
AcDbText
 10
466.4
 20
244.52045454545433
 30
0.0
 40
1.909090909090909
  1
187
  7
OpenSans
 11
466.4
 21
244.52045454545433
 31
0.0
100
AcDbText
  0
LINE
  5
246
330
17
100
AcDbEntity
  8
S-TABLE
100
AcDbLine
 10
376.0
 20
243.37499999999977
 30
0.0
 11
485.0
 21
243.37499999999977
 31
0.0
  0
TEXT
  5
247
330
17
100
AcDbEntity
  8
S-TABLE
100
AcDbText
 10
377.4
 20
240.32045454545434
 30
0.0
 40
1.909090909090909
  1
H08
  7
OpenSans
 11
377.4
 21
240.32045454545434
 31
0.0
100
AcDbText
  0
TEXT
  5
248
330
17
100
AcDbEntity
  8
S-TABLE
100
AcDbText
 10
394.4
 20
240.32045454545434
 30
0.0
 40
1.909090909090909
  1
T20
  7
OpenSans
 11
394.4
 21
240.32045454545434
 31
0.0
100
AcDbText
  0
TEXT
  5
249
330
17
100
AcDbEntity
  8
S-TABLE
100
AcDbText
 10
407.4
 20
240.32045454545434
 30
0.0
 40
1.909090909090909
  1
00
  7
OpenSans
 11
407.4
 21
240.32045454545434
 31
0.0
100
AcDbText
  0
TEXT
  5
24A
330
17
100
AcDbEntity
  8
S-TABLE
100
AcDbText
 10
419.4
 20
240.32045454545434
 30
0.0
 40
1.909090909090909
  1
-
  7
OpenSans
 11
419.4
 21
240.32045454545434
 31
0.0
100
AcDbText
  0
TEXT
  5
24B
330
17
100
AcDbEntity
  8
S-TABLE
100
AcDbText
 10
434.4
 20
240.32045454545434
 30
0.0
 40
1.909090909090909
  1
8
  7
OpenSans
 11
434.4
 21
240.32045454545434
 31
0.0
100
AcDbText
  0
TEXT
  5
24C
330
17
100
AcDbEntity
  8
S-TABLE
100
AcDbText
 10
449.4
 20
240.32045454545434
 30
0.0
 40
1.909090909090909
  1
3700
  7
OpenSans
 11
449.4
 21
240.32045454545434
 31
0.0
100
AcDbText
  0
TEXT
  5
24D
330
17
100
AcDbEntity
  8
S-TABLE
100
AcDbText
 10
466.4
 20
240.32045454545434
 30
0.0
 40
1.909090909090909
  1
73
  7
OpenSans
 11
466.4
 21
240.32045454545434
 31
0.0
100
AcDbText
  0
LINE
  5
24E
330
17
100
AcDbEntity
  8
S-TABLE
100
AcDbLine
 10
376.0
 20
239.17499999999978
 30
0.0
 11
485.0
 21
239.17499999999978
 31
0.0
  0
TEXT
  5
24F
330
17
100
AcDbEntity
  8
S-TABLE
100
AcDbText
 10
377.4
 20
236.12045454545435
 30
0.0
 40
1.909090909090909
  1
H09
  7
OpenSans
 11
377.4
 21
236.12045454545435
 31
0.0
100
AcDbText
  0
TEXT
  5
250
330
17
100
AcDbEntity
  8
S-TABLE
100
AcDbText
 10
394.4
 20
236.12045454545435
 30
0.0
 40
1.909090909090909
  1
T12
  7
OpenSans
 11
394.4
 21
236.12045454545435
 31
0.0
100
AcDbText
  0
TEXT
  5
251
330
17
100
AcDbEntity
  8
S-TABLE
100
AcDbText
 10
407.4
 20
236.12045454545435
 30
0.0
 40
1.909090909090909
  1
51
  7
OpenSans
 11
407.4
 21
236.12045454545435
 31
0.0
100
AcDbText
  0
TEXT
  5
252
330
17
100
AcDbEntity
  8
S-TABLE
100
AcDbText
 10
419.4
 20
236.12045454545435
 30
0.0
 40
1.909090909090909
  1
150
  7
OpenSans
 11
419.4
 21
236.12045454545435
 31
0.0
100
AcDbText
  0
TEXT
  5
253
330
17
100
AcDbEntity
  8
S-TABLE
100
AcDbText
 10
434.4
 20
236.12045454545435
 30
0.0
 40
1.909090909090909
  1
28
  7
OpenSans
 11
434.4
 21
236.12045454545435
 31
0.0
100
AcDbText
  0
TEXT
  5
254
330
17
100
AcDbEntity
  8
S-TABLE
100
AcDbText
 10
449.4
 20
236.12045454545435
 30
0.0
 40
1.909090909090909
  1
2320
  7
OpenSans
 11
449.4
 21
236.12045454545435
 31
0.0
100
AcDbText
  0
TEXT
  5
255
330
17
100
AcDbEntity
  8
S-TABLE
100
AcDbText
 10
466.4
 20
236.12045454545435
 30
0.0
 40
1.909090909090909
  1
58
  7
OpenSans
 11
466.4
 21
236.12045454545435
 31
0.0
100
AcDbText
  0
LINE
  5
256
330
17
100
AcDbEntity
  8
S-TABLE
100
AcDbLine
 10
376.0
 20
234.9749999999998
 30
0.0
 11
485.0
 21
234.9749999999998
 31
0.0
  0
TEXT
  5
257
330
17
100
AcDbEntity
  8
S-TABLE
100
AcDbText
 10
377.4
 20
231.92045454545436
 30
0.0
 40
1.909090909090909
  1
E10
  7
OpenSans
 11
377.4
 21
231.92045454545436
 31
0.0
100
AcDbText
  0
TEXT
  5
258
330
17
100
AcDbEntity
  8
S-TABLE
100
AcDbText
 10
394.4
 20
231.92045454545436
 30
0.0
 40
1.909090909090909
  1
T12
  7
OpenSans
 11
394.4
 21
231.92045454545436
 31
0.0
100
AcDbText
  0
TEXT
  5
259
330
17
100
AcDbEntity
  8
S-TABLE
100
AcDbText
 10
407.4
 20
231.92045454545436
 30
0.0
 40
1.909090909090909
  1
00
  7
OpenSans
 11
407.4
 21
231.92045454545436
 31
0.0
100
AcDbText
  0
TEXT
  5
25A
330
17
100
AcDbEntity
  8
S-TABLE
100
AcDbText
 10
419.4
 20
231.92045454545436
 30
0.0
 40
1.909090909090909
  1
-
  7
OpenSans
 11
419.4
 21
231.92045454545436
 31
0.0
100
AcDbText
  0
TEXT
  5
25B
330
17
100
AcDbEntity
  8
S-TABLE
100
AcDbText
 10
434.4
 20
231.92045454545436
 30
0.0
 40
1.909090909090909
  1
6
  7
OpenSans
 11
434.4
 21
231.92045454545436
 31
0.0
100
AcDbText
  0
TEXT
  5
25C
330
17
100
AcDbEntity
  8
S-TABLE
100
AcDbText
 10
449.4
 20
231.92045454545436
 30
0.0
 40
1.909090909090909
  1
1960
  7
OpenSans
 11
449.4
 21
231.92045454545436
 31
0.0
100
AcDbText
  0
TEXT
  5
25D
330
17
100
AcDbEntity
  8
S-TABLE
100
AcDbText
 10
466.4
 20
231.92045454545436
 30
0.0
 40
1.909090909090909
  1
10
  7
OpenSans
 11
466.4
 21
231.92045454545436
 31
0.0
100
AcDbText
  0
LINE
  5
25E
330
17
100
AcDbEntity
  8
S-TABLE
100
AcDbLine
 10
376.0
 20
230.7749999999998
 30
0.0
 11
485.0
 21
230.7749999999998
 31
0.0
  0
TEXT
  5
25F
330
17
100
AcDbEntity
  8
S-TABLE
100
AcDbText
 10
377.4
 20
227.72045454545437
 30
0.0
 40
1.909090909090909
  1
E11
  7
OpenSans
 11
377.4
 21
227.72045454545437
 31
0.0
100
AcDbText
  0
TEXT
  5
260
330
17
100
AcDbEntity
  8
S-TABLE
100
AcDbText
 10
394.4
 20
227.72045454545437
 30
0.0
 40
1.909090909090909
  1
T8
  7
OpenSans
 11
394.4
 21
227.72045454545437
 31
0.0
100
AcDbText
  0
TEXT
  5
261
330
17
100
AcDbEntity
  8
S-TABLE
100
AcDbText
 10
407.4
 20
227.72045454545437
 30
0.0
 40
1.909090909090909
  1
51
  7
OpenSans
 11
407.4
 21
227.72045454545437
 31
0.0
100
AcDbText
  0
TEXT
  5
262
330
17
100
AcDbEntity
  8
S-TABLE
100
AcDbText
 10
419.4
 20
227.72045454545437
 30
0.0
 40
1.909090909090909
  1
150
  7
OpenSans
 11
419.4
 21
227.72045454545437
 31
0.0
100
AcDbText
  0
TEXT
  5
263
330
17
100
AcDbEntity
  8
S-TABLE
100
AcDbText
 10
434.4
 20
227.72045454545437
 30
0.0
 40
1.909090909090909
  1
13
  7
OpenSans
 11
434.4
 21
227.72045454545437
 31
0.0
100
AcDbText
  0
TEXT
  5
264
330
17
100
AcDbEntity
  8
S-TABLE
100
AcDbText
 10
449.4
 20
227.72045454545437
 30
0.0
 40
1.909090909090909
  1
1120
  7
OpenSans
 11
449.4
 21
227.72045454545437
 31
0.0
100
AcDbText
  0
TEXT
  5
265
330
17
100
AcDbEntity
  8
S-TABLE
100
AcDbText
 10
466.4
 20
227.72045454545437
 30
0.0
 40
1.909090909090909
  1
6
  7
OpenSans
 11
466.4
 21
227.72045454545437
 31
0.0
100
AcDbText
  0
LINE
  5
266
330
17
100
AcDbEntity
  8
S-TABLE
100
AcDbLine
 10
376.0
 20
226.57499999999982
 30
0.0
 11
485.0
 21
226.57499999999982
 31
0.0
  0
LINE
  5
267
330
17
100
AcDbEntity
  8
S-TABLE
100
AcDbLine
 10
376.0
 20
260.1749999999997
 30
0.0
 11
485.0
 21
260.1749999999997
 31
0.0
  0
LINE
  5
268
330
17
100
AcDbEntity
  8
S-TABLE
100
AcDbLine
 10
376.0
 20
260.1749999999997
 30
0.0
 11
376.0
 21
226.57499999999982
 31
0.0
  0
LINE
  5
269
330
17
100
AcDbEntity
  8
S-TABLE
100
AcDbLine
 10
393.0
 20
260.1749999999997
 30
0.0
 11
393.0
 21
226.57499999999982
 31
0.0
  0
LINE
  5
26A
330
17
100
AcDbEntity
  8
S-TABLE
100
AcDbLine
 10
406.0
 20
260.1749999999997
 30
0.0
 11
406.0
 21
226.57499999999982
 31
0.0
  0
LINE
  5
26B
330
17
100
AcDbEntity
  8
S-TABLE
100
AcDbLine
 10
418.0
 20
260.1749999999997
 30
0.0
 11
418.0
 21
226.57499999999982
 31
0.0
  0
LINE
  5
26C
330
17
100
AcDbEntity
  8
S-TABLE
100
AcDbLine
 10
433.0
 20
260.1749999999997
 30
0.0
 11
433.0
 21
226.57499999999982
 31
0.0
  0
LINE
  5
26D
330
17
100
AcDbEntity
  8
S-TABLE
100
AcDbLine
 10
448.0
 20
260.1749999999997
 30
0.0
 11
448.0
 21
226.57499999999982
 31
0.0
  0
LINE
  5
26E
330
17
100
AcDbEntity
  8
S-TABLE
100
AcDbLine
 10
465.0
 20
260.1749999999997
 30
0.0
 11
465.0
 21
226.57499999999982
 31
0.0
  0
LINE
  5
26F
330
17
100
AcDbEntity
  8
S-TABLE
100
AcDbLine
 10
485.0
 20
260.1749999999997
 30
0.0
 11
485.0
 21
226.57499999999982
 31
0.0
  0
TEXT
  5
270
330
17
100
AcDbEntity
  8
S-TABLE
100
AcDbText
 10
376.0
 20
222.1749999999998
 30
0.0
 40
1.4
  1
SHEET SUB-TOTAL  444 kg     FULL SCHEDULE: R-004 and Structural CAD/Schedules/BBS_MASTER.md
  7
OpenSans
 11
376.0
 21
222.1749999999998
 31
0.0
100
AcDbText
  0
TEXT
  5
271
330
17
100
AcDbEntity
  8
S-TITLE
100
AcDbText
 10
650.0
 20
547.5
 30
0.0
 40
2.5
  1
MATERIALS, COVER AND ANCHORAGE
  7
OpenSans
 11
650.0
 21
547.5
 31
0.0
100
AcDbText
  0
TEXT
  5
272
330
17
100
AcDbEntity
  8
S-NOTE
100
AcDbText
 10
650.0
 20
543.375
 30
0.0
 40
2.0
  1
CONCRETE          M35 to IS 456 Table 5.  w/c <= 0.45, cement >= 340 kg/m3.
  7
OpenSans
 11
650.0
 21
543.375
 31
0.0
100
AcDbText
  0
TEXT
  5
273
330
17
100
AcDbEntity
  8
S-NOTE
100
AcDbText
 10
650.0
 20
540.375
 30
0.0
 40
2.0
  1
                  Integral crystalline waterproofing admixture.
  7
OpenSans
 11
650.0
 21
540.375
 31
0.0
100
AcDbText
  0
TEXT
  5
274
330
17
100
AcDbEntity
  8
S-NOTE
100
AcDbText
 10
650.0
 20
537.375
 30
0.0
 40
2.0
  1
                  Blinding M15, 100 thk.
  7
OpenSans
 11
650.0
 21
537.375
 31
0.0
100
AcDbText
  0
TEXT
  5
275
330
17
100
AcDbEntity
  8
S-NOTE
100
AcDbText
 10
650.0
 20
534.375
 30
0.0
 40
2.0
  1
REINFORCEMENT     Fe500D to IS 1786:2008.
  7
OpenSans
 11
650.0
 21
534.375
 31
0.0
100
AcDbText
  0
TEXT
  5
276
330
17
100
AcDbEntity
  8
S-NOTE
100
AcDbText
 10
650.0
 20
531.375
 30
0.0
 40
2.0
  1
Ec = 5000 sqrt(fck) = 29 580 N/mm2   (IS 456 Cl. 6.2.3.1)
  7
OpenSans
 11
650.0
 21
531.375
 31
0.0
100
AcDbText
  0
TEXT
  5
277
330
17
100
AcDbEntity
  8
S-NOTE
100
AcDbText
 10
650.0
 20
528.375
 30
0.0
 40
2.0
  1
gamma_m           1.5 concrete / 1.15 steel  (IS 456 Cl. 36.4.2)
  7
OpenSans
 11
650.0
 21
528.375
 31
0.0
100
AcDbText
  0
TEXT
  5
278
330
17
100
AcDbEntity
  8
S-NOTE
100
AcDbText
 10
650.0
 20
522.375
 30
0.0
 40
2.0
  1
BLAST CASE ONLY   IS 4991 Cl. 10.3.1:  fck,dyn 43.75  ·  fy,dyn 625
  7
OpenSans
 11
650.0
 21
522.375
 31
0.0
100
AcDbText
  0
TEXT
  5
279
330
17
100
AcDbEntity
  8
S-NOTE
100
AcDbText
 10
650.0
 20
519.375
 30
0.0
 40
2.0
  1
*** NO DYNAMIC INCREASE ON SHEAR - IS 4991 Cl. 10.3.1.1 ***
  7
OpenSans
 11
650.0
 21
519.375
 31
0.0
100
AcDbText
  0
TEXT
  5
27A
330
17
100
AcDbEntity
  8
S-NOTE
100
AcDbText
 10
650.0
 20
516.375
 30
0.0
 40
2.0
  1
tau_c and tau_c,max are read at the STATIC M35 value in every check.
  7
OpenSans
 11
650.0
 21
516.375
 31
0.0
100
AcDbText
  0
TEXT
  5
27B
330
17
100
AcDbEntity
  8
S-NOTE
100
AcDbText
 10
650.0
 20
510.375
 30
0.0
 40
2.0
  1
COVER   75 cast against blinding · 50 formed earth face
  7
OpenSans
 11
650.0
 21
510.375
 31
0.0
100
AcDbText
  0
TEXT
  5
27C
330
17
100
AcDbEntity
  8
S-NOTE
100
AcDbText
 10
650.0
 20
507.375
 30
0.0
 40
2.0
  1
        40 internal · 30 stair-shaft faces
  7
OpenSans
 11
650.0
 21
507.375
 31
0.0
100
AcDbText
  0
TEXT
  5
27D
330
17
100
AcDbEntity
  8
S-NOTE
100
AcDbText
 10
650.0
 20
504.375
 30
0.0
 40
2.0
  1
        The 5 mm reduction IS 456 Table 16 permits for M35 is NOT taken.
  7
OpenSans
 11
650.0
 21
504.375
 31
0.0
100
AcDbText
  0
TEXT
  5
27E
330
17
100
AcDbEntity
  8
S-NOTE
100
AcDbText
 10
650.0
 20
498.375
 30
0.0
 40
2.0
  1
Ld TENSION 40 phi  ·  Ld COMPRESSION 32 phi  ·  LAP 50 phi STAGGERED
  7
OpenSans
 11
650.0
 21
498.375
 31
0.0
100
AcDbText
  0
TEXT
  5
27F
330
17
100
AcDbEntity
  8
S-NOTE
100
AcDbText
 10
650.0
 20
495.375
 30
0.0
 40
2.0
  1
T8 320/400 · T10 400/500 · T12 480/600 · T16 640/800
  7
OpenSans
 11
650.0
 21
495.375
 31
0.0
100
AcDbText
  0
TEXT
  5
280
330
17
100
AcDbEntity
  8
S-NOTE
100
AcDbText
 10
650.0
 20
492.375
 30
0.0
 40
2.0
  1
T20 800/1000 · T25 1000/1250        (Ld / lap, mm)
  7
OpenSans
 11
650.0
 21
492.375
 31
0.0
100
AcDbText
  0
TEXT
  5
281
330
17
100
AcDbEntity
  8
S-NOTE
100
AcDbText
 10
650.0
 20
489.375
 30
0.0
 40
2.0
  1
The IS 4991 Cl. 10.3.1.1 +25 % blast bond allowance is NOT taken.
  7
OpenSans
 11
650.0
 21
489.375
 31
0.0
100
AcDbText
  0
TEXT
  5
282
330
17
100
AcDbEntity
  8
S-NOTE
100
AcDbText
 10
650.0
 20
483.375
 30
0.0
 40
2.0
  1
*** MAXIMUM BAR SPACING 150 BOTH CURTAINS - EMP REQUIREMENT ***
  7
OpenSans
 11
650.0
 21
483.375
 31
0.0
100
AcDbText
  0
TEXT
  5
283
330
17
100
AcDbEntity
  8
S-NOTE
100
AcDbText
 10
650.0
 20
480.375
 30
0.0
 40
2.0
  1
    stricter than IS 456 Cl. 26.3.3 and than every code minimum.
  7
OpenSans
 11
650.0
 21
480.375
 31
0.0
100
AcDbText
  0
LWPOLYLINE
  5
284
330
17
100
AcDbEntity
  8
S-TITLE
100
AcDbPolyline
 90
4
 70
1
 10
648.0
 20
475.375
 10
831.0
 20
475.375
 10
831.0
 20
552.0
 10
648.0
 20
552.0
  0
LWPOLYLINE
  5
285
330
17
100
AcDbEntity
  8
S-TITLE
100
AcDbPolyline
 90
4
 70
1
 10
651.0
 20
10.0
 10
831.0
 20
10.0
 10
831.0
 20
110.0
 10
651.0
 20
110.0
  0
LINE
  5
286
330
17
100
AcDbEntity
  8
S-TITLE
100
AcDbLine
 10
651.0
 20
30.0
 30
0.0
 11
831.0
 21
30.0
 31
0.0
  0
LINE
  5
287
330
17
100
AcDbEntity
  8
S-TITLE
100
AcDbLine
 10
651.0
 20
42.0
 30
0.0
 11
831.0
 21
42.0
 31
0.0
  0
LINE
  5
288
330
17
100
AcDbEntity
  8
S-TITLE
100
AcDbLine
 10
651.0
 20
54.0
 30
0.0
 11
831.0
 21
54.0
 31
0.0
  0
LINE
  5
289
330
17
100
AcDbEntity
  8
S-TITLE
100
AcDbLine
 10
651.0
 20
66.0
 30
0.0
 11
831.0
 21
66.0
 31
0.0
  0
LINE
  5
28A
330
17
100
AcDbEntity
  8
S-TITLE
100
AcDbLine
 10
651.0
 20
88.0
 30
0.0
 11
831.0
 21
88.0
 31
0.0
  0
LINE
  5
28B
330
17
100
AcDbEntity
  8
S-TITLE
100
AcDbLine
 10
763.0
 20
10.0
 30
0.0
 11
763.0
 21
30.0
 31
0.0
  0
LINE
  5
28C
330
17
100
AcDbEntity
  8
S-TITLE
100
AcDbLine
 10
797.0
 20
10.0
 30
0.0
 11
797.0
 21
30.0
 31
0.0
  0
TEXT
  5
28D
330
17
100
AcDbEntity
  8
S-TITLE
100
AcDbText
 10
653.0
 20
24.6
 30
0.0
 40
1.4
  1
DRAWING No.
  7
OpenSans
 11
653.0
 21
24.6
 31
0.0
100
AcDbText
  0
TEXT
  5
28E
330
17
100
AcDbEntity
  8
S-TITLE
100
AcDbText
 10
673.0
 20
14.2
 30
0.0
 40
3.5
  1
R-401
  7
OpenSans
 11
673.0
 21
14.2
 31
0.0
100
AcDbText
  0
TEXT
  5
28F
330
17
100
AcDbEntity
  8
S-TITLE
100
AcDbText
 10
765.0
 20
24.6
 30
0.0
 40
1.4
  1
REV
  7
OpenSans
 11
765.0
 21
24.6
 31
0.0
100
AcDbText
  0
TEXT
  5
290
330
17
100
AcDbEntity
  8
S-TITLE
100
AcDbText
 10
769.0
 20
14.2
 30
0.0
 40
3.5
  1
SC1
  7
OpenSans
 11
769.0
 21
14.2
 31
0.0
100
AcDbText
  0
TEXT
  5
291
330
17
100
AcDbEntity
  8
S-TITLE
100
AcDbText
 10
799.0
 20
24.6
 30
0.0
 40
1.4
  1
SHEET
  7
OpenSans
 11
799.0
 21
24.6
 31
0.0
100
AcDbText
  0
TEXT
  5
292
330
17
100
AcDbEntity
  8
S-TITLE
100
AcDbText
 10
799.0
 20
15.0
 30
0.0
 40
1.6
  1
17 OF 30
  7
OpenSans
 11
799.0
 21
15.0
 31
0.0
100
AcDbText
  0
LINE
  5
293
330
17
100
AcDbEntity
  8
S-TITLE
100
AcDbLine
 10
747.0
 20
30.0
 30
0.0
 11
747.0
 21
42.0
 31
0.0
  0
TEXT
  5
294
330
17
100
AcDbEntity
  8
S-TITLE
100
AcDbText
 10
653.0
 20
34.4
 30
0.0
 40
1.6
  1
SCALE   1:50
  7
OpenSans
 11
653.0
 21
34.4
 31
0.0
100
AcDbText
  0
TEXT
  5
295
330
17
100
AcDbEntity
  8
S-TITLE
100
AcDbText
 10
749.0
 20
34.4
 30
0.0
 40
1.6
  1
DATE   04.09.2026
  7
OpenSans
 11
749.0
 21
34.4
 31
0.0
100
AcDbText
  0
TEXT
  5
296
330
17
100
AcDbEntity
  8
S-TITLE
100
AcDbText
 10
653.0
 20
46.4
 30
0.0
 40
1.4
  1
DESIGNED  [PLACEHOLDER]
  7
OpenSans
 11
653.0
 21
46.4
 31
0.0
100
AcDbText
  0
TEXT
  5
297
330
17
100
AcDbEntity
  8
S-TITLE
100
AcDbText
 10
713.0
 20
46.4
 30
0.0
 40
1.4
  1
CHECKED  [PLACEHOLDER]
  7
OpenSans
 11
713.0
 21
46.4
 31
0.0
100
AcDbText
  0
TEXT
  5
298
330
17
100
AcDbEntity
  8
S-TITLE
100
AcDbText
 10
773.0
 20
46.4
 30
0.0
 40
1.4
  1
APPROVED  [PLACEHOLDER]
  7
OpenSans
 11
773.0
 21
46.4
 31
0.0
100
AcDbText
  0
TEXT
  5
299
330
17
100
AcDbEntity
  8
S-TITLE
100
AcDbText
 10
653.0
 20
58.4
 30
0.0
 40
1.4
  1
STATUS
  7
OpenSans
 11
653.0
 21
58.4
 31
0.0
100
AcDbText
  0
TEXT
  5
29A
330
17
100
AcDbEntity
  8
S-BLAST
100
AcDbText
 10
673.0
 20
58.0
 30
0.0
 40
1.6
  1
FOR REVIEW - NOT FOR CONSTRUCTION
  7
OpenSans
 11
673.0
 21
58.0
 31
0.0
100
AcDbText
  0
TEXT
  5
29B
330
17
100
AcDbEntity
  8
S-TITLE
100
AcDbText
 10
653.0
 20
83.4
 30
0.0
 40
1.4
  1
DRAWING TITLE
  7
OpenSans
 11
653.0
 21
83.4
 31
0.0
100
AcDbText
  0
TEXT
  5
29C
330
17
100
AcDbEntity
  8
S-TITLE
100
AcDbText
 10
653.0
 20
75.4
 30
0.0
 40
2.4
  1
BEAM-TYPE ELEMENT LOCATION PLAN
  7
OpenSans
 11
653.0
 21
75.4
 31
0.0
100
AcDbText
  0
TEXT
  5
29D
330
17
100
AcDbEntity
  8
S-TITLE
100
AcDbText
 10
653.0
 20
68.8
 30
0.0
 40
1.4
  1
HEADERS · EDGE BANDS · LINTELS  -  NO FRAMED BEAM OR COLUMN EXISTS
  7
OpenSans
 11
653.0
 21
68.8
 31
0.0
100
AcDbText
  0
TEXT
  5
29E
330
17
100
AcDbEntity
  8
S-TITLE
100
AcDbText
 10
653.0
 20
105.2
 30
0.0
 40
1.4
  1
PROJECT
  7
OpenSans
 11
653.0
 21
105.2
 31
0.0
100
AcDbText
  0
TEXT
  5
29F
330
17
100
AcDbEntity
  8
S-TITLE
100
AcDbText
 10
653.0
 20
99.6
 30
0.0
 40
1.6
  1
UNDERGROUND CBRN-HARDENED BLAST-RESISTANT
  7
OpenSans
 11
653.0
 21
99.6
 31
0.0
100
AcDbText
  0
TEXT
  5
2A0
330
17
100
AcDbEntity
  8
S-TITLE
100
AcDbText
 10
653.0
 20
95.0
 30
0.0
 40
1.6
  1
PROTECTIVE STRUCTURE  -  PUNE, MAHARASHTRA
  7
OpenSans
 11
653.0
 21
95.0
 31
0.0
100
AcDbText
  0
TEXT
  5
2A1
330
17
100
AcDbEntity
  8
S-TITLE
100
AcDbText
 10
653.0
 20
90.0
 30
0.0
 40
1.4
  1
STRUCTURAL PHASE 2 REV A + M1   ·   SENTRY POST NOT IN THIS PACKAGE
  7
OpenSans
 11
653.0
 21
90.0
 31
0.0
100
AcDbText
  0
ENDSEC
  0
SECTION
  2
OBJECTS
  0
DICTIONARY
  5
A
330
0
100
AcDbDictionary
281
1
  3
ACAD_COLOR
350
B
  3
ACAD_GROUP
350
C
  3
ACAD_LAYOUT
350
D
  3
ACAD_MATERIAL
350
E
  3
ACAD_MLEADERSTYLE
350
F
  3
ACAD_MLINESTYLE
350
10
  3
ACAD_PLOTSETTINGS
350
11
  3
ACAD_PLOTSTYLENAME
350
12
  3
ACAD_SCALELIST
350
14
  3
ACAD_TABLESTYLE
350
15
  3
ACAD_VISUALSTYLE
350
16
  3
EZDXF_META
350
2D
  0
DICTIONARY
  5
B
330
A
100
AcDbDictionary
281
1
  0
DICTIONARY
  5
C
330
A
100
AcDbDictionary
281
1
  0
DICTIONARY
  5
D
330
A
100
AcDbDictionary
281
1
  3
Model
350
1A
  3
Layout1
350
1E
  0
DICTIONARY
  5
E
330
A
100
AcDbDictionary
281
1
  3
ByBlock
350
1F
  3
ByLayer
350
20
  3
Global
350
21
  0
DICTIONARY
  5
F
330
A
100
AcDbDictionary
281
1
  3
Standard
350
2C
  0
DICTIONARY
  5
10
330
A
100
AcDbDictionary
281
1
  3
Standard
350
22
  0
DICTIONARY
  5
11
330
A
100
AcDbDictionary
281
1
  0
ACDBDICTIONARYWDFLT
  5
12
330
A
100
AcDbDictionary
281
1
  3
Normal
350
13
100
AcDbDictionaryWithDefault
340
13
  0
ACDBPLACEHOLDER
  5
13
330
12
  0
DICTIONARY
  5
14
330
A
100
AcDbDictionary
281
1
  0
DICTIONARY
  5
15
330
A
100
AcDbDictionary
281
1
  0
DICTIONARY
  5
16
330
A
100
AcDbDictionary
281
1
  3
2dWireframe
350
5A
  3
Basic
350
5B
  3
Brighten
350
5C
  3
ColorChange
350
5D
  3
Conceptual
350
5E
  3
Dim
350
5F
  3
EdgeColorOff
350
60
  3
Facepattern
350
61
  3
Flat
350
62
  3
FlatWithEdges
350
63
  3
Gouraud
350
64
  3
GouraudWithEdges
350
65
  3
Hidden
350
66
  3
JitterOff
350
67
  3
Linepattern
350
68
  3
Modeling
350
69
  3
OverhangOff
350
6A
  3
Realistic
350
6B
  3
Shaded
350
6C
  3
Shaded with edges
350
6D
  3
Shades of Gray
350
6E
  3
Sketchy
350
6F
  3
Thicken
350
70
  3
Wireframe
350
71
  3
X-Ray
350
72
  0
LAYOUT
  5
1A
330
D
100
AcDbPlotSettings
  1

  4
A3
  6

 40
7.5
 41
20.0
 42
7.5
 43
20.0
 44
420.0
 45
297.0
 46
0.0
 47
0.0
 48
0.0
 49
0.0
140
0.0
141
0.0
142
1.0
143
1.0
 70
1024
 72
1
 73
0
 74
5
  7

 75
16
 76
0
 77
2
 78
300
147
1.0
148
0.0
149
0.0
100
AcDbLayout
  1
Model
 70
1
 71
0
 10
0.0
 20
0.0
 11
420.0
 21
297.0
 12
0.0
 22
0.0
 32
0.0
 14
1e+20
 24
1e+20
 34
1e+20
 15
-1e+20
 25
-1e+20
 35
-1e+20
146
0.0
 13
0.0
 23
0.0
 33
0.0
 16
1.0
 26
0.0
 36
0.0
 17
0.0
 27
1.0
 37
0.0
 76
1
330
17
  0
LAYOUT
  5
1E
330
D
100
AcDbPlotSettings
  1

  4
A3
  6

 40
7.5
 41
20.0
 42
7.5
 43
20.0
 44
420.0
 45
297.0
 46
0.0
 47
0.0
 48
0.0
 49
0.0
140
0.0
141
0.0
142
1.0
143
1.0
 70
0
 72
1
 73
0
 74
5
  7

 75
16
 76
0
 77
2
 78
300
147
1.0
148
0.0
149
0.0
100
AcDbLayout
  1
Layout1
 70
1
 71
1
 10
0.0
 20
0.0
 11
420.0
 21
297.0
 12
0.0
 22
0.0
 32
0.0
 14
1e+20
 24
1e+20
 34
1e+20
 15
-1e+20
 25
-1e+20
 35
-1e+20
146
0.0
 13
0.0
 23
0.0
 33
0.0
 16
1.0
 26
0.0
 36
0.0
 17
0.0
 27
1.0
 37
0.0
 76
1
330
1B
  0
MATERIAL
  5
1F
102
{ACAD_REACTORS
330
E
102
}
330
E
100
AcDbMaterial
  1
ByBlock
  2

 70
0
 40
1.0
 71
1
 41
1.0
 91
-1023410177
 42
1.0
 72
1
  3

 73
1
 74
1
 75
1
 44
0.5
 73
0
 45
1.0
 46
1.0
 77
1
  4

 78
1
 79
1
170
1
 48
1.0
171
1
  6

172
1
173
1
174
1
140
1.0
141
1.0
175
1
  7

176
1
177
1
178
1
143
1.0
179
1
  8

270
1
271
1
272
1
145
1.0
146
1.0
273
1
  9

274
1
275
1
276
1
 42
1.0
 72
1
  3

 73
1
 74
1
 75
1
 94
63
  0
MATERIAL
  5
20
102
{ACAD_REACTORS
330
E
102
}
330
E
100
AcDbMaterial
  1
ByLayer
  2

 70
0
 40
1.0
 71
1
 41
1.0
 91
-1023410177
 42
1.0
 72
1
  3

 73
1
 74
1
 75
1
 44
0.5
 73
0
 45
1.0
 46
1.0
 77
1
  4

 78
1
 79
1
170
1
 48
1.0
171
1
  6

172
1
173
1
174
1
140
1.0
141
1.0
175
1
  7

176
1
177
1
178
1
143
1.0
179
1
  8

270
1
271
1
272
1
145
1.0
146
1.0
273
1
  9

274
1
275
1
276
1
 42
1.0
 72
1
  3

 73
1
 74
1
 75
1
 94
63
  0
MATERIAL
  5
21
102
{ACAD_REACTORS
330
E
102
}
330
E
100
AcDbMaterial
  1
Global
  2

 70
0
 40
1.0
 71
1
 41
1.0
 91
-1023410177
 42
1.0
 72
1
  3

 73
1
 74
1
 75
1
 44
0.5
 73
0
 45
1.0
 46
1.0
 77
1
  4

 78
1
 79
1
170
1
 48
1.0
171
1
  6

172
1
173
1
174
1
140
1.0
141
1.0
175
1
  7

176
1
177
1
178
1
143
1.0
179
1
  8

270
1
271
1
272
1
145
1.0
146
1.0
273
1
  9

274
1
275
1
276
1
 42
1.0
 72
1
  3

 73
1
 74
1
 75
1
 94
63
  0
MLINESTYLE
  5
22
102
{ACAD_REACTORS
330
10
102
}
330
10
100
AcDbMlineStyle
  2
Standard
 70
0
  3

 62
256
 51
90.0
 52
90.0
 71
2
 49
0.5
 62
256
  6
BYLAYER
 49
-0.5
 62
256
  6
BYLAYER
  0
MLEADERSTYLE
  5
2C
102
{ACAD_REACTORS
330
F
102
}
330
F
100
AcDbMLeaderStyle
179
2
170
2
171
1
172
0
 90
2
 40
0.0
 41
0.0
173
1
 91
-1056964608
 92
-2
290
1
 42
2.0
291
1
 43
8.0
  3
Standard
 44
4.0
300

342
29
174
1
175
1
176
0
178
1
 93
-1056964608
 45
4.0
292
0
297
0
 46
4.0
 94
-1056964608
 47
1.0
 49
1.0
140
1.0
294
1
141
0.0
177
0
142
1.0
295
0
296
0
143
3.75
271
0
272
9
273
9
  0
DICTIONARY
  5
2D
330
A
100
AcDbDictionary
280
1
281
1
  3
CREATED_BY_EZDXF
350
2E
  3
WRITTEN_BY_EZDXF
350
2A4
  0
DICTIONARYVAR
  5
2E
330
2D
100
DictionaryVariables
280
0
  1
1.4.4 @ 2026-09-10T01:42:53.342178+00:00
  0
VISUALSTYLE
  5
5A
102
{ACAD_REACTORS
330
16
102
}
330
16
100
AcDbVisualStyle
  2
2dWireframe
 70
4
 90
0
 40
0.6
 62
7
290
0
291
0
  0
VISUALSTYLE
  5
5B
102
{ACAD_REACTORS
330
16
102
}
330
16
100
AcDbVisualStyle
  2
Basic
 70
7
 90
1
 40
0.6
 62
7
290
0
291
1
  0
VISUALSTYLE
  5
5C
102
{ACAD_REACTORS
330
16
102
}
330
16
100
AcDbVisualStyle
  2
Brighten
 70
12
 90
2
 40
0.6
 62
7
290
0
291
1
  0
VISUALSTYLE
  5
5D
102
{ACAD_REACTORS
330
16
102
}
330
16
100
AcDbVisualStyle
  2
ColorChange
 70
16
 90
2
 40
0.6
 62
8
290
0
291
1
  0
VISUALSTYLE
  5
5E
102
{ACAD_REACTORS
330
16
102
}
330
16
100
AcDbVisualStyle
  2
Conceptual
 70
9
 90
3
 40
0.6
 62
7
290
0
291
0
  0
VISUALSTYLE
  5
5F
102
{ACAD_REACTORS
330
16
102
}
330
16
100
AcDbVisualStyle
  2
Dim
 70
11
 90
2
 40
0.6
 62
7
290
0
291
1
  0
VISUALSTYLE
  5
60
102
{ACAD_REACTORS
330
16
102
}
330
16
100
AcDbVisualStyle
  2
EdgeColorOff
 70
22
 90
2
 40
0.6
 62
7
290
0
291
1
  0
VISUALSTYLE
  5
61
102
{ACAD_REACTORS
330
16
102
}
330
16
100
AcDbVisualStyle
  2
Facepattern
 70
15
 90
2
 40
0.6
 62
7
290
0
291
1
  0
VISUALSTYLE
  5
62
102
{ACAD_REACTORS
330
16
102
}
330
16
100
AcDbVisualStyle
  2
Flat
 70
0
 90
2
 40
0.6
 62
7
290
0
291
1
  0
VISUALSTYLE
  5
63
102
{ACAD_REACTORS
330
16
102
}
330
16
100
AcDbVisualStyle
  2
FlatWithEdges
 70
1
 90
2
 40
0.6
 62
7
290
0
291
1
  0
VISUALSTYLE
  5
64
102
{ACAD_REACTORS
330
16
102
}
330
16
100
AcDbVisualStyle
  2
Gouraud
 70
2
 90
2
 40
0.6
 62
7
290
0
291
1
  0
VISUALSTYLE
  5
65
102
{ACAD_REACTORS
330
16
102
}
330
16
100
AcDbVisualStyle
  2
GouraudWithEdges
 70
3
 90
2
 40
0.6
 62
7
290
0
291
1
  0
VISUALSTYLE
  5
66
102
{ACAD_REACTORS
330
16
102
}
330
16
100
AcDbVisualStyle
  2
Hidden
 70
6
 90
1
 40
0.6
 62
7
290
0
291
0
  0
VISUALSTYLE
  5
67
102
{ACAD_REACTORS
330
16
102
}
330
16
100
AcDbVisualStyle
  2
JitterOff
 70
20
 90
2
 40
0.6
 62
7
290
0
291
1
  0
VISUALSTYLE
  5
68
102
{ACAD_REACTORS
330
16
102
}
330
16
100
AcDbVisualStyle
  2
Linepattern
 70
14
 90
2
 40
0.6
 62
7
290
0
291
1
  0
VISUALSTYLE
  5
69
102
{ACAD_REACTORS
330
16
102
}
330
16
100
AcDbVisualStyle
  2
Modeling
 70
10
 90
2
 40
0.6
 62
7
290
0
291
0
  0
VISUALSTYLE
  5
6A
102
{ACAD_REACTORS
330
16
102
}
330
16
100
AcDbVisualStyle
  2
OverhangOff
 70
21
 90
2
 40
0.6
 62
7
290
0
291
1
  0
VISUALSTYLE
  5
6B
102
{ACAD_REACTORS
330
16
102
}
330
16
100
AcDbVisualStyle
  2
Realistic
 70
8
 90
2
 40
0.6
 62
7
290
0
291
0
  0
VISUALSTYLE
  5
6C
102
{ACAD_REACTORS
330
16
102
}
330
16
100
AcDbVisualStyle
  2
Shaded
 70
27
 90
2
 40
0.6
 62
7
290
0
291
0
  0
VISUALSTYLE
  5
6D
102
{ACAD_REACTORS
330
16
102
}
330
16
100
AcDbVisualStyle
  2
Shaded with edges
 70
26
 90
2
 40
0.6
 62
7
290
0
291
0
  0
VISUALSTYLE
  5
6E
102
{ACAD_REACTORS
330
16
102
}
330
16
100
AcDbVisualStyle
  2
Shades of Gray
 70
23
 90
2
 40
0.6
 62
7
290
0
291
0
  0
VISUALSTYLE
  5
6F
102
{ACAD_REACTORS
330
16
102
}
330
16
100
AcDbVisualStyle
  2
Sketchy
 70
24
 90
1
 40
0.6
 62
7
290
0
291
0
  0
VISUALSTYLE
  5
70
102
{ACAD_REACTORS
330
16
102
}
330
16
100
AcDbVisualStyle
  2
Thicken
 70
13
 90
2
 40
0.6
 62
7
290
0
291
1
  0
VISUALSTYLE
  5
71
102
{ACAD_REACTORS
330
16
102
}
330
16
100
AcDbVisualStyle
  2
Wireframe
 70
5
 90
0
 40
0.6
 62
7
290
0
291
0
  0
VISUALSTYLE
  5
72
102
{ACAD_REACTORS
330
16
102
}
330
16
100
AcDbVisualStyle
  2
X-Ray
 70
25
 90
2
 40
0.5
 62
7
290
0
291
0
  0
DICTIONARYVAR
  5
2A4
330
2D
100
DictionaryVariables
280
0
  1
1.4.4 @ 2026-09-10T01:42:53.398863+00:00
  0
ENDSEC
  0
EOF
