  0
SECTION
  2
HEADER
  9
$ACADVER
  1
AC1024
  9
$ACADMAINTVER
 70
6
  9
$DWGCODEPAGE
  3
ANSI_1252
  9
$LASTSAVEDBY
  1
ezdxf
  9
$INSBASE
 10
0.0
 20
0.0
 30
0.0
  9
$EXTMIN
 10
1e+20
 20
1e+20
 30
1e+20
  9
$EXTMAX
 10
-1e+20
 20
-1e+20
 30
-1e+20
  9
$LIMMIN
 10
0.0
 20
0.0
  9
$LIMMAX
 10
420.0
 20
297.0
  9
$ORTHOMODE
 70
0
  9
$REGENMODE
 70
1
  9
$FILLMODE
 70
1
  9
$QTEXTMODE
 70
0
  9
$MIRRTEXT
 70
1
  9
$LTSCALE
 40
1.0
  9
$ATTMODE
 70
1
  9
$TEXTSIZE
 40
2.5
  9
$TRACEWID
 40
1.0
  9
$TEXTSTYLE
  7
OpenSans
  9
$CLAYER
  8
0
  9
$CELTYPE
  6
ByLayer
  9
$CECOLOR
 62
256
  9
$CELTSCALE
 40
1.0
  9
$DISPSILH
 70
0
  9
$DIMSCALE
 40
1.0
  9
$DIMASZ
 40
0.175
  9
$DIMEXO
 40
0.125
  9
$DIMDLI
 40
3.75
  9
$DIMRND
 40
0.0
  9
$DIMDLE
 40
0.0
  9
$DIMEXE
 40
0.375
  9
$DIMTP
 40
0.0
  9
$DIMTM
 40
0.0
  9
$DIMTXT
 40
0.25
  9
$DIMCEN
 40
2.5
  9
$DIMTSZ
 40
0.0
  9
$DIMTOL
 70
0
  9
$DIMLIM
 70
0
  9
$DIMTIH
 70
0
  9
$DIMTOH
 70
0
  9
$DIMSE1
 70
0
  9
$DIMSE2
 70
0
  9
$DIMTAD
 70
1
  9
$DIMZIN
 70
12
  9
$DIMBLK
  1
ARCHTICK
  9
$DIMASO
 70
1
  9
$DIMSHO
 70
1
  9
$DIMPOST
  1

  9
$DIMAPOST
  1

  9
$DIMALT
 70
0
  9
$DIMALTD
 70
3
  9
$DIMALTF
 40
0.03937007874
  9
$DIMLFAC
 40
100.0
  9
$DIMTOFL
 70
1
  9
$DIMTVP
 40
0.0
  9
$DIMTIX
 70
0
  9
$DIMSOXD
 70
0
  9
$DIMSAH
 70
0
  9
$DIMBLK1
  1

  9
$DIMBLK2
  1

  9
$DIMSTYLE
  2
EZDXF
  9
$DIMCLRD
 70
0
  9
$DIMCLRE
 70
0
  9
$DIMCLRT
 70
0
  9
$DIMTFAC
 40
0.5
  9
$DIMGAP
 40
0.1
  9
$DIMJUST
 70
0
  9
$DIMSD1
 70
0
  9
$DIMSD2
 70
0
  9
$DIMTOLJ
 70
0
  9
$DIMTZIN
 70
8
  9
$DIMALTZ
 70
0
  9
$DIMALTTZ
 70
0
  9
$DIMUPT
 70
1
  9
$DIMDEC
 70
2
  9
$DIMTDEC
 70
2
  9
$DIMALTU
 70
2
  9
$DIMALTTD
 70
3
  9
$DIMTXSTY
  7
OpenSansCondensed-Light
  9
$DIMAUNIT
 70
0
  9
$DIMADEC
 70
2
  9
$DIMALTRND
 40
0.0
  9
$DIMAZIN
 70
3
  9
$DIMDSEP
 70
46
  9
$DIMATFIT
 70
3
  9
$DIMFRAC
 70
0
  9
$DIMLDRBLK
  1

  9
$DIMLUNIT
 70
2
  9
$DIMLWD
 70
-2
  9
$DIMLWE
 70
-2
  9
$DIMTMOVE
 70
2
  9
$DIMFXL
 40
1.0
  9
$DIMFXLON
 70
0
  9
$DIMJOGANG
 40
0.785398163397
  9
$DIMTFILL
 70
0
  9
$DIMTFILLCLR
 70
0
  9
$DIMARCSYM
 70
0
  9
$DIMLTYPE
  6

  9
$DIMLTEX1
  6

  9
$DIMLTEX2
  6

  9
$DIMTXTDIRECTION
 70
0
  9
$LUNITS
 70
2
  9
$LUPREC
 70
4
  9
$SKETCHINC
 40
1.0
  9
$FILLETRAD
 40
10.0
  9
$AUNITS
 70
0
  9
$AUPREC
 70
2
  9
$MENU
  1
.
  9
$ELEVATION
 40
0.0
  9
$PELEVATION
 40
0.0
  9
$THICKNESS
 40
0.0
  9
$LIMCHECK
 70
0
  9
$CHAMFERA
 40
0.0
  9
$CHAMFERB
 40
0.0
  9
$CHAMFERC
 40
0.0
  9
$CHAMFERD
 40
0.0
  9
$SKPOLY
 70
0
  9
$TDCREATE
 40
2461293.710925926
  9
$TDUCREATE
 40
2458532.153996898
  9
$TDUPDATE
 40
2461293.710925926
  9
$TDUUPDATE
 40
2458532.1544311
  9
$TDINDWG
 40
0.0
  9
$TDUSRTIMER
 40
0.0
  9
$USRTIMER
 70
1
  9
$ANGBASE
 50
0.0
  9
$ANGDIR
 70
0
  9
$PDMODE
 70
0
  9
$PDSIZE
 40
0.0
  9
$PLINEWID
 40
0.0
  9
$SPLFRAME
 70
0
  9
$SPLINETYPE
 70
6
  9
$SPLINESEGS
 70
8
  9
$HANDSEED
  5
244
  9
$SURFTAB1
 70
6
  9
$SURFTAB2
 70
6
  9
$SURFTYPE
 70
6
  9
$SURFU
 70
6
  9
$SURFV
 70
6
  9
$UCSBASE
  2

  9
$UCSNAME
  2

  9
$UCSORG
 10
0.0
 20
0.0
 30
0.0
  9
$UCSXDIR
 10
1.0
 20
0.0
 30
0.0
  9
$UCSYDIR
 10
0.0
 20
1.0
 30
0.0
  9
$UCSORTHOREF
  2

  9
$UCSORTHOVIEW
 70
0
  9
$UCSORGTOP
 10
0.0
 20
0.0
 30
0.0
  9
$UCSORGBOTTOM
 10
0.0
 20
0.0
 30
0.0
  9
$UCSORGLEFT
 10
0.0
 20
0.0
 30
0.0
  9
$UCSORGRIGHT
 10
0.0
 20
0.0
 30
0.0
  9
$UCSORGFRONT
 10
0.0
 20
0.0
 30
0.0
  9
$UCSORGBACK
 10
0.0
 20
0.0
 30
0.0
  9
$PUCSBASE
  2

  9
$PUCSNAME
  2

  9
$PUCSORG
 10
0.0
 20
0.0
 30
0.0
  9
$PUCSXDIR
 10
1.0
 20
0.0
 30
0.0
  9
$PUCSYDIR
 10
0.0
 20
1.0
 30
0.0
  9
$PUCSORTHOREF
  2

  9
$PUCSORTHOVIEW
 70
0
  9
$PUCSORGTOP
 10
0.0
 20
0.0
 30
0.0
  9
$PUCSORGBOTTOM
 10
0.0
 20
0.0
 30
0.0
  9
$PUCSORGLEFT
 10
0.0
 20
0.0
 30
0.0
  9
$PUCSORGRIGHT
 10
0.0
 20
0.0
 30
0.0
  9
$PUCSORGFRONT
 10
0.0
 20
0.0
 30
0.0
  9
$PUCSORGBACK
 10
0.0
 20
0.0
 30
0.0
  9
$USERI1
 70
0
  9
$USERI2
 70
0
  9
$USERI3
 70
0
  9
$USERI4
 70
0
  9
$USERI5
 70
0
  9
$USERR1
 40
0.0
  9
$USERR2
 40
0.0
  9
$USERR3
 40
0.0
  9
$USERR4
 40
0.0
  9
$USERR5
 40
0.0
  9
$WORLDVIEW
 70
1
  9
$SHADEDGE
 70
3
  9
$SHADEDIF
 70
70
  9
$TILEMODE
 70
1
  9
$MAXACTVP
 70
64
  9
$PINSBASE
 10
0.0
 20
0.0
 30
0.0
  9
$PLIMCHECK
 70
0
  9
$PEXTMIN
 10
1e+20
 20
1e+20
 30
1e+20
  9
$PEXTMAX
 10
-1e+20
 20
-1e+20
 30
-1e+20
  9
$PLIMMIN
 10
0.0
 20
0.0
  9
$PLIMMAX
 10
420.0
 20
297.0
  9
$UNITMODE
 70
0
  9
$VISRETAIN
 70
1
  9
$PLINEGEN
 70
0
  9
$PSLTSCALE
 70
1
  9
$TREEDEPTH
 70
3020
  9
$CMLSTYLE
  2
Standard
  9
$CMLJUST
 70
0
  9
$CMLSCALE
 40
20.0
  9
$PROXYGRAPHICS
 70
1
  9
$MEASUREMENT
 70
1
  9
$CELWEIGHT
370
-1
  9
$ENDCAPS
280
0
  9
$JOINSTYLE
280
0
  9
$LWDISPLAY
290
0
  9
$INSUNITS
 70
4
  9
$HYPERLINKBASE
  1

  9
$STYLESHEET
  1

  9
$XEDIT
290
1
  9
$CEPSNTYPE
380
0
  9
$PSTYLEMODE
290
1
  9
$FINGERPRINTGUID
  2
{6141921C-2473-482D-9B91-9D4D3BDF71C3}
  9
$VERSIONGUID
  2
{8E774265-0EF8-46F4-AD0C-A60EE3DE1AFD}
  9
$EXTNAMES
290
1
  9
$PSVPSCALE
 40
0.0
  9
$OLESTARTUP
290
0
  9
$SORTENTS
280
127
  9
$INDEXCTL
280
0
  9
$HIDETEXT
280
1
  9
$XCLIPFRAME
280
1
  9
$HALOGAP
280
0
  9
$OBSCOLOR
 70
257
  9
$OBSLTYPE
280
0
  9
$INTERSECTIONDISPLAY
280
0
  9
$INTERSECTIONCOLOR
 70
257
  9
$DIMASSOC
280
2
  9
$PROJECTNAME
  1

  9
$CAMERADISPLAY
290
0
  9
$LENSLENGTH
 40
50.0
  9
$CAMERAHEIGHT
 40
0.0
  9
$STEPSPERSEC
 40
24.0
  9
$STEPSIZE
 40
100.0
  9
$3DDWFPREC
 40
2.0
  9
$PSOLWIDTH
 40
0.005
  9
$PSOLHEIGHT
 40
0.08
  9
$LOFTANG1
 40
1.570796326795
  9
$LOFTANG2
 40
1.570796326795
  9
$LOFTMAG1
 40
0.0
  9
$LOFTMAG2
 40
0.0
  9
$LOFTPARAM
 70
7
  9
$LOFTNORMALS
280
1
  9
$LATITUDE
 40
37.795
  9
$LONGITUDE
 40
-122.394
  9
$NORTHDIRECTION
 40
0.0
  9
$TIMEZONE
 70
-8000
  9
$LIGHTGLYPHDISPLAY
280
1
  9
$TILEMODELIGHTSYNCH
280
1
  9
$CMATERIAL
347
20
  9
$SOLIDHIST
280
0
  9
$SHOWHIST
280
1
  9
$DWFFRAME
280
2
  9
$DGNFRAME
280
2
  9
$REALWORLDSCALE
290
1
  9
$INTERFERECOLOR
 62
256
  9
$CSHADOW
280
0
  9
$SHADOWPLANELOCATION
 40
0.0
  0
ENDSEC
  0
SECTION
  2
CLASSES
  0
CLASS
  1
ACDBDICTIONARYWDFLT
  2
AcDbDictionaryWithDefault
  3
ObjectDBX Classes
 90
0
 91
0
280
0
281
0
  0
CLASS
  1
SUN
  2
AcDbSun
  3
SCENEOE
 90
1153
 91
0
280
0
281
0
  0
CLASS
  1
VISUALSTYLE
  2
AcDbVisualStyle
  3
ObjectDBX Classes
 90
4095
 91
0
280
0
281
0
  0
CLASS
  1
MATERIAL
  2
AcDbMaterial
  3
ObjectDBX Classes
 90
1153
 91
0
280
0
281
0
  0
CLASS
  1
SCALE
  2
AcDbScale
  3
ObjectDBX Classes
 90
1153
 91
0
280
0
281
0
  0
CLASS
  1
TABLESTYLE
  2
AcDbTableStyle
  3
ObjectDBX Classes
 90
4095
 91
0
280
0
281
0
  0
CLASS
  1
MLEADERSTYLE
  2
AcDbMLeaderStyle
  3
ACDB_MLEADERSTYLE_CLASS
 90
4095
 91
0
280
0
281
0
  0
CLASS
  1
DICTIONARYVAR
  2
AcDbDictionaryVar
  3
ObjectDBX Classes
 90
0
 91
0
280
0
281
0
  0
CLASS
  1
CELLSTYLEMAP
  2
AcDbCellStyleMap
  3
ObjectDBX Classes
 90
1152
 91
0
280
0
281
0
  0
CLASS
  1
MENTALRAYRENDERSETTINGS
  2
AcDbMentalRayRenderSettings
  3
SCENEOE
 90
1024
 91
0
280
0
281
0
  0
CLASS
  1
ACDBDETAILVIEWSTYLE
  2
AcDbDetailViewStyle
  3
ObjectDBX Classes
 90
1025
 91
0
280
0
281
0
  0
CLASS
  1
ACDBSECTIONVIEWSTYLE
  2
AcDbSectionViewStyle
  3
ObjectDBX Classes
 90
1025
 91
0
280
0
281
0
  0
CLASS
  1
RASTERVARIABLES
  2
AcDbRasterVariables
  3
ISM
 90
0
 91
0
280
0
281
0
  0
CLASS
  1
ACDBPLACEHOLDER
  2
AcDbPlaceHolder
  3
ObjectDBX Classes
 90
0
 91
0
280
0
281
0
  0
CLASS
  1
LAYOUT
  2
AcDbLayout
  3
ObjectDBX Classes
 90
0
 91
0
280
0
281
0
  0
ENDSEC
  0
SECTION
  2
TABLES
  0
TABLE
  2
VPORT
  5
8
330
0
100
AcDbSymbolTable
 70
1
  0
VPORT
  5
23
330
8
100
AcDbSymbolTableRecord
100
AcDbViewportTableRecord
  2
*Active
 70
0
 10
0.0
 20
0.0
 11
1.0
 21
1.0
 12
0.0
 22
0.0
 13
0.0
 23
0.0
 14
0.5
 24
0.5
 15
0.5
 25
0.5
 16
0.0
 26
0.0
 36
1.0
 17
0.0
 27
0.0
 37
0.0
 40
1000.0
 41
1.34
 42
50.0
 43
0.0
 44
0.0
 50
0.0
 51
0.0
 71
0
 72
1000
 73
1
 74
3
 75
0
 76
0
 77
0
 78
0
281
0
 65
0
146
0.0
  0
ENDTAB
  0
TABLE
  2
LTYPE
  5
2
330
0
100
AcDbSymbolTable
 70
21
  0
LTYPE
  5
24
330
2
100
AcDbSymbolTableRecord
100
AcDbLinetypeTableRecord
  2
ByBlock
 70
0
  3

 72
65
 73
0
 40
0.0
  0
LTYPE
  5
25
330
2
100
AcDbSymbolTableRecord
100
AcDbLinetypeTableRecord
  2
ByLayer
 70
0
  3

 72
65
 73
0
 40
0.0
  0
LTYPE
  5
26
330
2
100
AcDbSymbolTableRecord
100
AcDbLinetypeTableRecord
  2
Continuous
 70
0
  3

 72
65
 73
0
 40
0.0
  0
LTYPE
  5
2F
330
2
100
AcDbSymbolTableRecord
100
AcDbLinetypeTableRecord
  2
CENTER
 70
0
  3
Center ____ _ ____ _ ____ _ ____ _ ____ _ ____
 72
65
 73
4
 40
5.08
 49
3.175
 74
0
 49
-0.635
 74
0
 49
0.635
 74
0
 49
-0.635
 74
0
  0
LTYPE
  5
30
330
2
100
AcDbSymbolTableRecord
100
AcDbLinetypeTableRecord
  2
CENTERX2
 70
0
  3
Center (2x) ________  __  ________  __  ________
 72
65
 73
4
 40
8.89
 49
6.35
 74
0
 49
-0.635
 74
0
 49
1.27
 74
0
 49
-0.635
 74
0
  0
LTYPE
  5
31
330
2
100
AcDbSymbolTableRecord
100
AcDbLinetypeTableRecord
  2
CENTER2
 70
0
  3
Center (.5x) ____ _ ____ _ ____ _ ____ _ ____
 72
65
 73
4
 40
2.54
 49
1.587
 74
0
 49
-0.318
 74
0
 49
0.318
 74
0
 49
-0.318
 74
0
  0
LTYPE
  5
32
330
2
100
AcDbSymbolTableRecord
100
AcDbLinetypeTableRecord
  2
DASHED
 70
0
  3
Dashed __ __ __ __ __ __ __ __ __ __ __ __ __ _
 72
65
 73
2
 40
1.524
 49
1.27
 74
0
 49
-0.254
 74
0
  0
LTYPE
  5
33
330
2
100
AcDbSymbolTableRecord
100
AcDbLinetypeTableRecord
  2
DASHEDX2
 70
0
  3
Dashed (2x) ____  ____  ____  ____  ____  ____
 72
65
 73
2
 40
3.048
 49
2.54
 74
0
 49
-0.508
 74
0
  0
LTYPE
  5
34
330
2
100
AcDbSymbolTableRecord
100
AcDbLinetypeTableRecord
  2
DASHED2
 70
0
  3
Dashed (.5x) _ _ _ _ _ _ _ _ _ _ _ _ _ _
 72
65
 73
2
 40
0.762
 49
0.635
 74
0
 49
-0.127
 74
0
  0
LTYPE
  5
35
330
2
100
AcDbSymbolTableRecord
100
AcDbLinetypeTableRecord
  2
PHANTOM
 70
0
  3
Phantom ______  __  __  ______  __  __  ______
 72
65
 73
6
 40
6.35
 49
3.175
 74
0
 49
-0.635
 74
0
 49
0.635
 74
0
 49
-0.635
 74
0
 49
0.635
 74
0
 49
-0.635
 74
0
  0
LTYPE
  5
36
330
2
100
AcDbSymbolTableRecord
100
AcDbLinetypeTableRecord
  2
PHANTOMX2
 70
0
  3
Phantom (2x)____________    ____    ____    ____________
 72
65
 73
6
 40
10.795
 49
6.35
 74
0
 49
-0.635
 74
0
 49
1.27
 74
0
 49
-0.635
 74
0
 49
1.27
 74
0
 49
-0.635
 74
0
  0
LTYPE
  5
37
330
2
100
AcDbSymbolTableRecord
100
AcDbLinetypeTableRecord
  2
PHANTOM2
 70
0
  3
Phantom (.5x) ___ _ _ ___ _ _ ___ _ _ ___ _ _ ___
 72
65
 73
6
 40
3.175
 49
1.587
 74
0
 49
-0.318
 74
0
 49
0.318
 74
0
 49
-0.318
 74
0
 49
0.318
 74
0
 49
-0.318
 74
0
  0
LTYPE
  5
38
330
2
100
AcDbSymbolTableRecord
100
AcDbLinetypeTableRecord
  2
DASHDOT
 70
0
  3
Dash dot __ . __ . __ . __ . __ . __ . __ . __
 72
65
 73
4
 40
3.556
 49
2.54
 74
0
 49
-0.508
 74
0
 49
0.0
 74
0
 49
-0.508
 74
0
  0
LTYPE
  5
39
330
2
100
AcDbSymbolTableRecord
100
AcDbLinetypeTableRecord
  2
DASHDOTX2
 70
0
  3
Dash dot (2x) ____  .  ____  .  ____  .  ____
 72
65
 73
4
 40
6.096
 49
5.08
 74
0
 49
-0.508
 74
0
 49
0.0
 74
0
 49
-0.508
 74
0
  0
LTYPE
  5
3A
330
2
100
AcDbSymbolTableRecord
100
AcDbLinetypeTableRecord
  2
DASHDOT2
 70
0
  3
Dash dot (.5x) _ . _ . _ . _ . _ . _ . _ . _
 72
65
 73
4
 40
1.778
 49
1.27
 74
0
 49
-0.254
 74
0
 49
0.0
 74
0
 49
-0.254
 74
0
  0
LTYPE
  5
3B
330
2
100
AcDbSymbolTableRecord
100
AcDbLinetypeTableRecord
  2
DOT
 70
0
  3
Dot .  .  .  .  .  .  .  .  .  .  .  .  .  .  .  .
 72
65
 73
2
 40
0.508
 49
0.0
 74
0
 49
-0.508
 74
0
  0
LTYPE
  5
3C
330
2
100
AcDbSymbolTableRecord
100
AcDbLinetypeTableRecord
  2
DOTX2
 70
0
  3
Dot (2x) .    .    .    .    .    .    .    . 
 72
65
 73
2
 40
1.016
 49
0.0
 74
0
 49
-1.016
 74
0
  0
LTYPE
  5
3D
330
2
100
AcDbSymbolTableRecord
100
AcDbLinetypeTableRecord
  2
DOT2
 70
0
  3
Dot (.5) . . . . . . . . . . . . . . . . . . . 
 72
65
 73
2
 40
0.254
 49
0.0
 74
0
 49
-0.254
 74
0
  0
LTYPE
  5
3E
330
2
100
AcDbSymbolTableRecord
100
AcDbLinetypeTableRecord
  2
DIVIDE
 70
0
  3
Divide __ . . __ . . __ . . __ . . __ . . __
 72
65
 73
6
 40
4.064
 49
2.54
 74
0
 49
-0.508
 74
0
 49
0.0
 74
0
 49
-0.508
 74
0
 49
0.0
 74
0
 49
-0.508
 74
0
  0
LTYPE
  5
3F
330
2
100
AcDbSymbolTableRecord
100
AcDbLinetypeTableRecord
  2
DIVIDEX2
 70
0
  3
Divide (2x) ____  . .  ____  . .  ____  . .  ____
 72
65
 73
6
 40
6.604
 49
5.08
 74
0
 49
-0.508
 74
0
 49
0.0
 74
0
 49
-0.508
 74
0
 49
0.0
 74
0
 49
-0.508
 74
0
  0
LTYPE
  5
40
330
2
100
AcDbSymbolTableRecord
100
AcDbLinetypeTableRecord
  2
DIVIDE2
 70
0
  3
Divide(.5x) _ . _ . _ . _ . _ . _ . _ . _
 72
65
 73
6
 40
2.032
 49
1.27
 74
0
 49
-0.254
 74
0
 49
0.0
 74
0
 49
-0.254
 74
0
 49
0.0
 74
0
 49
-0.254
 74
0
  0
ENDTAB
  0
TABLE
  2
LAYER
  5
1
330
0
100
AcDbSymbolTable
 70
26
  0
LAYER
  5
27
330
1
100
AcDbSymbolTableRecord
100
AcDbLayerTableRecord
  2
0
 70
0
 62
7
  6
Continuous
370
-3
390
13
347
21
  0
LAYER
  5
28
330
1
100
AcDbSymbolTableRecord
100
AcDbLayerTableRecord
  2
Defpoints
 70
0
 62
7
  6
Continuous
290
0
370
-3
390
13
347
21
  0
LAYER
  5
8A
330
1
100
AcDbSymbolTableRecord
100
AcDbLayerTableRecord
  2
S-CONCRETE
 70
0
 62
7
  6
Continuous
370
-3
390
13
347
21
1001
AcAecLayerStandard
1000

1000
Structural concrete outlines (cut)
  0
LAYER
  5
8C
330
1
100
AcDbSymbolTableRecord
100
AcDbLayerTableRecord
  2
S-CONCRETE-THIN
 70
0
 62
7
  6
Continuous
370
-3
390
13
347
21
1001
AcAecLayerStandard
1000

1000
Concrete beyond the cut plane
  0
LAYER
  5
8D
330
1
100
AcDbSymbolTableRecord
100
AcDbLayerTableRecord
  2
S-HIDDEN
 70
0
 62
8
  6
Continuous
370
-3
390
13
347
21
1001
AcAecLayerStandard
1000

1000
Concrete / features beyond, hidden
  0
LAYER
  5
8E
330
1
100
AcDbSymbolTableRecord
100
AcDbLayerTableRecord
  2
S-REBAR-MAIN
 70
0
 62
1
  6
Continuous
370
-3
390
13
347
21
1001
AcAecLayerStandard
1000

1000
Main reinforcement
  0
LAYER
  5
8F
330
1
100
AcDbSymbolTableRecord
100
AcDbLayerTableRecord
  2
S-REBAR-DIST
 70
0
 62
3
  6
Continuous
370
-3
390
13
347
21
1001
AcAecLayerStandard
1000

1000
Distribution reinforcement
  0
LAYER
  5
90
330
1
100
AcDbSymbolTableRecord
100
AcDbLayerTableRecord
  2
S-REBAR-STIRRUP
 70
0
 62
6
  6
Continuous
370
-3
390
13
347
21
1001
AcAecLayerStandard
1000

1000
Links and stirrups
  0
LAYER
  5
91
330
1
100
AcDbSymbolTableRecord
100
AcDbLayerTableRecord
  2
S-REBAR-TIE
 70
0
 62
6
  6
Continuous
370
-3
390
13
347
21
1001
AcAecLayerStandard
1000

1000
Ties, cross-ties, starters
  0
LAYER
  5
92
330
1
100
AcDbSymbolTableRecord
100
AcDbLayerTableRecord
  2
S-REBAR-SEC
 70
0
 62
4
  6
Continuous
370
-3
390
13
347
21
1001
AcAecLayerStandard
1000

1000
Trimmers, secondary and additional bars
  0
LAYER
  5
93
330
1
100
AcDbSymbolTableRecord
100
AcDbLayerTableRecord
  2
S-DIM
 70
0
 62
4
  6
Continuous
370
-3
390
13
347
21
1001
AcAecLayerStandard
1000

1000
Dimensions
  0
LAYER
  5
94
330
1
100
AcDbSymbolTableRecord
100
AcDbLayerTableRecord
  2
S-TEXT
 70
0
 62
7
  6
Continuous
370
-3
390
13
347
21
1001
AcAecLayerStandard
1000

1000
General annotation
  0
LAYER
  5
95
330
1
100
AcDbSymbolTableRecord
100
AcDbLayerTableRecord
  2
S-NOTE
 70
0
 62
7
  6
Continuous
370
-3
390
13
347
21
1001
AcAecLayerStandard
1000

1000
Note panels
  0
LAYER
  5
96
330
1
100
AcDbSymbolTableRecord
100
AcDbLayerTableRecord
  2
S-CALLOUT
 70
0
 62
2
  6
Continuous
370
-3
390
13
347
21
1001
AcAecLayerStandard
1000

1000
Bar-mark balloons and leaders
  0
LAYER
  5
97
330
1
100
AcDbSymbolTableRecord
100
AcDbLayerTableRecord
  2
S-SECTION
 70
0
 62
1
  6
Continuous
370
-3
390
13
347
21
1001
AcAecLayerStandard
1000

1000
Section and detail markers
  0
LAYER
  5
98
330
1
100
AcDbSymbolTableRecord
100
AcDbLayerTableRecord
  2
S-GRID
 70
0
 62
5
  6
Continuous
370
-3
390
13
347
21
1001
AcAecLayerStandard
1000

1000
Grid lines and bubbles
  0
LAYER
  5
99
330
1
100
AcDbSymbolTableRecord
100
AcDbLayerTableRecord
  2
S-CENTER
 70
0
 62
6
  6
Continuous
370
-3
390
13
347
21
1001
AcAecLayerStandard
1000

1000
Centrelines
  0
LAYER
  5
9A
330
1
100
AcDbSymbolTableRecord
100
AcDbLayerTableRecord
  2
S-HATCH
 70
0
 62
8
  6
Continuous
370
-3
390
13
347
21
1001
AcAecLayerStandard
1000

1000
Section hatch
  0
LAYER
  5
9B
330
1
100
AcDbSymbolTableRecord
100
AcDbLayerTableRecord
  2
S-TITLE
 70
0
 62
7
  6
Continuous
370
-3
390
13
347
21
1001
AcAecLayerStandard
1000

1000
Border, title block, view titles
  0
LAYER
  5
9C
330
1
100
AcDbSymbolTableRecord
100
AcDbLayerTableRecord
  2
S-EXISTING
 70
0
 62
8
  6
Continuous
370
-3
390
13
347
21
1001
AcAecLayerStandard
1000

1000
Soil, rock, berm, cover layers
  0
LAYER
  5
9D
330
1
100
AcDbSymbolTableRecord
100
AcDbLayerTableRecord
  2
S-REFERENCE
 70
0
 62
8
  6
Continuous
370
-3
390
13
347
21
1001
AcAecLayerStandard
1000

1000
Reference geometry, extents
  0
LAYER
  5
9E
330
1
100
AcDbSymbolTableRecord
100
AcDbLayerTableRecord
  2
S-WATERPROOF
 70
0
 62
30
  6
Continuous
370
-3
390
13
347
21
1001
AcAecLayerStandard
1000

1000
Membranes, waterstops, GWT
  0
LAYER
  5
9F
330
1
100
AcDbSymbolTableRecord
100
AcDbLayerTableRecord
  2
S-STEELWORK
 70
0
 62
2
  6
Continuous
370
-3
390
13
347
21
1001
AcAecLayerStandard
1000

1000
Cast-in frames, EMP straps, steel items
  0
LAYER
  5
A0
330
1
100
AcDbSymbolTableRecord
100
AcDbLayerTableRecord
  2
S-LEVEL
 70
0
 62
4
  6
Continuous
370
-3
390
13
347
21
1001
AcAecLayerStandard
1000

1000
Level markers
  0
LAYER
  5
A1
330
1
100
AcDbSymbolTableRecord
100
AcDbLayerTableRecord
  2
S-TABLE
 70
0
 62
7
  6
Continuous
370
-3
390
13
347
21
1001
AcAecLayerStandard
1000

1000
Tables and schedules
  0
LAYER
  5
A2
330
1
100
AcDbSymbolTableRecord
100
AcDbLayerTableRecord
  2
S-BLAST
 70
0
 62
1
  6
Continuous
370
-3
390
13
347
21
1001
AcAecLayerStandard
1000

1000
Blast arrows, findings, warnings
  0
ENDTAB
  0
TABLE
  2
STYLE
  5
5
330
0
100
AcDbSymbolTable
 70
26
  0
STYLE
  5
29
330
5
100
AcDbSymbolTableRecord
100
AcDbTextStyleTableRecord
  2
Standard
 70
0
 40
0.0
 41
1.0
 50
0.0
 71
0
 42
2.5
  3
txt
  4

  0
STYLE
  5
41
330
5
100
AcDbSymbolTableRecord
100
AcDbTextStyleTableRecord
  2
OpenSans-Light
 70
0
 40
0.0
 41
1.0
 50
0.0
 71
0
 42
2.5
  3
OpenSans-Light.ttf
  4

  0
STYLE
  5
42
330
5
100
AcDbSymbolTableRecord
100
AcDbTextStyleTableRecord
  2
OpenSans-Light-Italic
 70
0
 40
0.0
 41
1.0
 50
0.0
 71
0
 42
2.5
  3
OpenSans-LightItalic.ttf
  4

  0
STYLE
  5
43
330
5
100
AcDbSymbolTableRecord
100
AcDbTextStyleTableRecord
  2
OpenSans
 70
0
 40
0.0
 41
1.0
 50
0.0
 71
0
 42
2.5
  3
OpenSans-Regular.ttf
  4

  0
STYLE
  5
44
330
5
100
AcDbSymbolTableRecord
100
AcDbTextStyleTableRecord
  2
OpenSans-Italic
 70
0
 40
0.0
 41
1.0
 50
0.0
 71
0
 42
2.5
  3
OpenSans-Italic.ttf
  4

  0
STYLE
  5
45
330
5
100
AcDbSymbolTableRecord
100
AcDbTextStyleTableRecord
  2
OpenSans-SemiBold
 70
0
 40
0.0
 41
1.0
 50
0.0
 71
0
 42
2.5
  3
OpenSans-SemiBold.ttf
  4

  0
STYLE
  5
46
330
5
100
AcDbSymbolTableRecord
100
AcDbTextStyleTableRecord
  2
OpenSans-SemiBoldItalic
 70
0
 40
0.0
 41
1.0
 50
0.0
 71
0
 42
2.5
  3
OpenSans-SemiBoldItalic.ttf
  4

  0
STYLE
  5
47
330
5
100
AcDbSymbolTableRecord
100
AcDbTextStyleTableRecord
  2
OpenSans-Bold
 70
0
 40
0.0
 41
1.0
 50
0.0
 71
0
 42
2.5
  3
OpenSans-Bold.ttf
  4

  0
STYLE
  5
48
330
5
100
AcDbSymbolTableRecord
100
AcDbTextStyleTableRecord
  2
OpenSans-BoldItalic
 70
0
 40
0.0
 41
1.0
 50
0.0
 71
0
 42
2.5
  3
OpenSans-BoldItalic.ttf
  4

  0
STYLE
  5
49
330
5
100
AcDbSymbolTableRecord
100
AcDbTextStyleTableRecord
  2
OpenSans-ExtraBold
 70
0
 40
0.0
 41
1.0
 50
0.0
 71
0
 42
2.5
  3
OpenSans-ExtraBold.ttf
  4

  0
STYLE
  5
4A
330
5
100
AcDbSymbolTableRecord
100
AcDbTextStyleTableRecord
  2
OpenSans-ExtraBoldItalic
 70
0
 40
0.0
 41
1.0
 50
0.0
 71
0
 42
2.5
  3
OpenSans-ExtraBoldItalic.ttf
  4

  0
STYLE
  5
4B
330
5
100
AcDbSymbolTableRecord
100
AcDbTextStyleTableRecord
  2
OpenSansCondensed-Bold
 70
0
 40
0.0
 41
1.0
 50
0.0
 71
0
 42
2.5
  3
OpenSansCondensed-Bold.ttf
  4

  0
STYLE
  5
4C
330
5
100
AcDbSymbolTableRecord
100
AcDbTextStyleTableRecord
  2
OpenSansCondensed-Light
 70
0
 40
0.0
 41
1.0
 50
0.0
 71
0
 42
2.5
  3
OpenSansCondensed-Light.ttf
  4

  0
STYLE
  5
4D
330
5
100
AcDbSymbolTableRecord
100
AcDbTextStyleTableRecord
  2
OpenSansCondensed-Italic
 70
0
 40
0.0
 41
1.0
 50
0.0
 71
0
 42
2.5
  3
OpenSansCondensed-LightItalic.ttf
  4

  0
STYLE
  5
4E
330
5
100
AcDbSymbolTableRecord
100
AcDbTextStyleTableRecord
  2
LiberationSans
 70
0
 40
0.0
 41
1.0
 50
0.0
 71
0
 42
2.5
  3
LiberationSans-Regular.ttf
  4

  0
STYLE
  5
4F
330
5
100
AcDbSymbolTableRecord
100
AcDbTextStyleTableRecord
  2
LiberationSans-Bold
 70
0
 40
0.0
 41
1.0
 50
0.0
 71
0
 42
2.5
  3
LiberationSans-Bold.ttf
  4

  0
STYLE
  5
50
330
5
100
AcDbSymbolTableRecord
100
AcDbTextStyleTableRecord
  2
LiberationSans-BoldItalic
 70
0
 40
0.0
 41
1.0
 50
0.0
 71
0
 42
2.5
  3
LiberationSans-BoldItalic.ttf
  4

  0
STYLE
  5
51
330
5
100
AcDbSymbolTableRecord
100
AcDbTextStyleTableRecord
  2
LiberationSans-Italic
 70
0
 40
0.0
 41
1.0
 50
0.0
 71
0
 42
2.5
  3
LiberationSans-Italic.ttf
  4

  0
STYLE
  5
52
330
5
100
AcDbSymbolTableRecord
100
AcDbTextStyleTableRecord
  2
LiberationSerif
 70
0
 40
0.0
 41
1.0
 50
0.0
 71
0
 42
2.5
  3
LiberationSerif-Regular.ttf
  4

  0
STYLE
  5
53
330
5
100
AcDbSymbolTableRecord
100
AcDbTextStyleTableRecord
  2
LiberationSerif-Bold
 70
0
 40
0.0
 41
1.0
 50
0.0
 71
0
 42
2.5
  3
LiberationSerif-Bold.ttf
  4

  0
STYLE
  5
54
330
5
100
AcDbSymbolTableRecord
100
AcDbTextStyleTableRecord
  2
LiberationSerif-BoldItalic
 70
0
 40
0.0
 41
1.0
 50
0.0
 71
0
 42
2.5
  3
LiberationSerif-BoldItalic.ttf
  4

  0
STYLE
  5
55
330
5
100
AcDbSymbolTableRecord
100
AcDbTextStyleTableRecord
  2
LiberationSerif-Italic
 70
0
 40
0.0
 41
1.0
 50
0.0
 71
0
 42
2.5
  3
LiberationSerif-Italic.ttf
  4

  0
STYLE
  5
56
330
5
100
AcDbSymbolTableRecord
100
AcDbTextStyleTableRecord
  2
LiberationMono
 70
0
 40
0.0
 41
1.0
 50
0.0
 71
0
 42
2.5
  3
LiberationMono-Regular.ttf
  4

  0
STYLE
  5
57
330
5
100
AcDbSymbolTableRecord
100
AcDbTextStyleTableRecord
  2
LiberationMono-Bold
 70
0
 40
0.0
 41
1.0
 50
0.0
 71
0
 42
2.5
  3
LiberationMono-Bold.ttf
  4

  0
STYLE
  5
58
330
5
100
AcDbSymbolTableRecord
100
AcDbTextStyleTableRecord
  2
LiberationMono-BoldItalic
 70
0
 40
0.0
 41
1.0
 50
0.0
 71
0
 42
2.5
  3
LiberationMono-BoldItalic.ttf
  4

  0
STYLE
  5
59
330
5
100
AcDbSymbolTableRecord
100
AcDbTextStyleTableRecord
  2
LiberationMono-Italic
 70
0
 40
0.0
 41
1.0
 50
0.0
 71
0
 42
2.5
  3
LiberationMono-Italic.ttf
  4

  0
ENDTAB
  0
TABLE
  2
VIEW
  5
7
330
0
100
AcDbSymbolTable
 70
0
  0
ENDTAB
  0
TABLE
  2
UCS
  5
6
330
0
100
AcDbSymbolTable
 70
0
  0
ENDTAB
  0
TABLE
  2
APPID
  5
3
330
0
100
AcDbSymbolTable
 70
4
  0
APPID
  5
2A
330
3
100
AcDbSymbolTableRecord
100
AcDbRegAppTableRecord
  2
ACAD
 70
0
  0
APPID
  5
8B
330
3
100
AcDbSymbolTableRecord
100
AcDbRegAppTableRecord
  2
AcAecLayerStandard
 70
0
  0
APPID
  5
241
330
3
100
AcDbSymbolTableRecord
100
AcDbRegAppTableRecord
  2
HATCHBACKGROUNDCOLOR
 70
0
  0
APPID
  5
242
330
3
100
AcDbSymbolTableRecord
100
AcDbRegAppTableRecord
  2
EZDXF
 70
0
  0
ENDTAB
  0
TABLE
  2
DIMSTYLE
  5
4
330
0
100
AcDbSymbolTable
 70
14
100
AcDbDimStyleTable
  0
DIMSTYLE
105
2B
330
4
100
AcDbSymbolTableRecord
100
AcDbDimStyleTableRecord
  2
Standard
 70
0
 40
1.0
 41
2.5
 42
0.625
 43
3.75
 44
1.25
 45
0.0
 46
0.0
 47
0.0
 48
0.0
 49
2.5
140
2.5
141
2.5
142
0.0
143
0.03937007874
144
1.0
145
0.0
146
1.0
147
0.625
148
0.0
 69
0
 70
0
 71
0
 72
0
 73
0
 74
0
 75
0
 76
0
 77
1
 78
8
 79
3
170
0
171
3
172
1
173
0
174
0
175
0
176
0
177
0
178
0
179
2
271
2
272
2
273
2
274
3
275
0
276
0
277
2
278
44
279
0
280
0
281
0
282
0
283
0
284
8
285
0
286
0
288
0
289
3
290
0
371
-2
372
-2
  0
DIMSTYLE
105
73
330
4
100
AcDbSymbolTableRecord
100
AcDbDimStyleTableRecord
  2
EZDXF
 70
0
 40
1.0
 41
0.175
 42
0.125
 43
3.75
 44
0.375
 45
0.0
 46
0.0
 47
0.0
 48
0.0
 49
2.5
140
0.25
141
2.5
142
0.0
143
0.03937007874
144
100.0
145
0.0
146
0.5
147
0.1
148
0.0
 69
0
 70
0
 71
0
 72
0
 73
0
 74
0
 75
0
 76
0
 77
1
 78
12
 79
3
170
0
171
3
172
1
173
0
174
0
175
0
176
0
177
0
178
0
179
2
271
2
272
2
273
2
274
3
275
0
276
0
277
2
278
46
279
2
280
0
281
0
282
0
283
0
284
8
285
0
286
0
288
1
289
3
290
0
340
4C
342
74
371
-2
372
-2
  0
DIMSTYLE
105
7C
330
4
100
AcDbSymbolTableRecord
100
AcDbDimStyleTableRecord
  2
EZ_M_100_H25_CM
 70
0
 40
1.0
 41
0.25
 42
0.125
 43
3.75
 44
0.375
 45
0.0
 46
0.0
 47
0.0
 48
0.0
 49
2.5
140
0.25
141
2.5
142
0.125
143
0.03937007874
144
100.0
145
0.0
146
0.5
147
0.1
148
0.0
 69
0
 70
0
 71
0
 72
0
 73
0
 74
0
 75
0
 76
0
 77
1
 78
12
 79
3
170
0
171
3
172
1
173
0
174
0
175
0
176
0
177
0
178
0
179
2
271
2
272
2
273
2
274
3
275
0
276
0
277
2
278
46
279
2
280
0
281
0
282
0
283
0
284
8
285
0
286
0
288
1
289
3
290
0
340
4C
371
-2
372
-2
  0
DIMSTYLE
105
7D
330
4
100
AcDbSymbolTableRecord
100
AcDbDimStyleTableRecord
  2
EZ_M_50_H25_CM
 70
0
 40
1.0
 41
0.125
 42
0.0625
 43
3.75
 44
0.1875
 45
0.0
 46
0.0
 47
0.0
 48
0.0
 49
2.5
140
0.125
141
2.5
142
0.0625
143
0.03937007874
144
100.0
145
0.0
146
0.5
147
0.05
148
0.0
 69
0
 70
0
 71
0
 72
0
 73
0
 74
0
 75
0
 76
0
 77
1
 78
12
 79
3
170
0
171
3
172
1
173
0
174
0
175
0
176
0
177
0
178
0
179
2
271
2
272
2
273
2
274
3
275
0
276
0
277
2
278
46
279
2
280
0
281
0
282
0
283
0
284
8
285
0
286
0
288
1
289
3
290
0
340
4C
371
-2
372
-2
  0
DIMSTYLE
105
7E
330
4
100
AcDbSymbolTableRecord
100
AcDbDimStyleTableRecord
  2
EZ_M_25_H25_CM
 70
0
 40
1.0
 41
0.0625
 42
0.03125
 43
3.75
 44
0.09375
 45
0.0
 46
0.0
 47
0.0
 48
0.0
 49
2.5
140
0.0625
141
2.5
142
0.03125
143
0.03937007874
144
100.0
145
0.0
146
0.5
147
0.025
148
0.0
 69
0
 70
0
 71
0
 72
0
 73
0
 74
0
 75
0
 76
0
 77
1
 78
12
 79
3
170
0
171
3
172
1
173
0
174
0
175
0
176
0
177
0
178
0
179
2
271
2
272
2
273
2
274
3
275
0
276
0
277
2
278
46
279
2
280
0
281
0
282
0
283
0
284
8
285
0
286
0
288
1
289
3
290
0
340
4C
371
-2
372
-2
  0
DIMSTYLE
105
7F
330
4
100
AcDbSymbolTableRecord
100
AcDbDimStyleTableRecord
  2
EZ_M_20_H25_CM
 70
0
 40
1.0
 41
0.05
 42
0.025
 43
3.75
 44
0.07500000000000001
 45
0.0
 46
0.0
 47
0.0
 48
0.0
 49
2.5
140
0.05
141
2.5
142
0.025
143
0.03937007874
144
100.0
145
0.0
146
0.5
147
0.020000000000000004
148
0.0
 69
0
 70
0
 71
0
 72
0
 73
0
 74
0
 75
0
 76
0
 77
1
 78
12
 79
3
170
0
171
3
172
1
173
0
174
0
175
0
176
0
177
0
178
0
179
2
271
2
272
2
273
2
274
3
275
0
276
0
277
2
278
46
279
2
280
0
281
0
282
0
283
0
284
8
285
0
286
0
288
1
289
3
290
0
340
4C
371
-2
372
-2
  0
DIMSTYLE
105
80
330
4
100
AcDbSymbolTableRecord
100
AcDbDimStyleTableRecord
  2
EZ_M_10_H25_CM
 70
0
 40
1.0
 41
0.025
 42
0.0125
 43
3.75
 44
0.037500000000000006
 45
0.0
 46
0.0
 47
0.0
 48
0.0
 49
2.5
140
0.025
141
2.5
142
0.0125
143
0.03937007874
144
100.0
145
0.0
146
0.5
147
0.010000000000000002
148
0.0
 69
0
 70
0
 71
0
 72
0
 73
0
 74
0
 75
0
 76
0
 77
1
 78
12
 79
3
170
0
171
3
172
1
173
0
174
0
175
0
176
0
177
0
178
0
179
2
271
2
272
2
273
2
274
3
275
0
276
0
277
2
278
46
279
2
280
0
281
0
282
0
283
0
284
8
285
0
286
0
288
1
289
3
290
0
340
4C
371
-2
372
-2
  0
DIMSTYLE
105
81
330
4
100
AcDbSymbolTableRecord
100
AcDbDimStyleTableRecord
  2
EZ_M_5_H25_CM
 70
0
 40
1.0
 41
0.0125
 42
0.00625
 43
3.75
 44
0.018750000000000003
 45
0.0
 46
0.0
 47
0.0
 48
0.0
 49
2.5
140
0.0125
141
2.5
142
0.00625
143
0.03937007874
144
100.0
145
0.0
146
0.5
147
0.005000000000000001
148
0.0
 69
0
 70
0
 71
0
 72
0
 73
0
 74
0
 75
0
 76
0
 77
1
 78
12
 79
3
170
0
171
3
172
1
173
0
174
0
175
0
176
0
177
0
178
0
179
2
271
2
272
2
273
2
274
3
275
0
276
0
277
2
278
46
279
2
280
0
281
0
282
0
283
0
284
8
285
0
286
0
288
1
289
3
290
0
340
4C
371
-2
372
-2
  0
DIMSTYLE
105
82
330
4
100
AcDbSymbolTableRecord
100
AcDbDimStyleTableRecord
  2
EZ_M_1_H25_CM
 70
0
 40
1.0
 41
0.0025
 42
0.00125
 43
3.75
 44
0.00375
 45
0.0
 46
0.0
 47
0.0
 48
0.0
 49
2.5
140
0.0025
141
2.5
142
0.00125
143
0.03937007874
144
100.0
145
0.0
146
0.5
147
0.001
148
0.0
 69
0
 70
0
 71
0
 72
0
 73
0
 74
0
 75
0
 76
0
 77
1
 78
12
 79
3
170
0
171
3
172
1
173
0
174
0
175
0
176
0
177
0
178
0
179
2
271
2
272
2
273
2
274
3
275
0
276
0
277
2
278
46
279
2
280
0
281
0
282
0
283
0
284
8
285
0
286
0
288
1
289
3
290
0
340
4C
371
-2
372
-2
  0
DIMSTYLE
105
83
330
4
100
AcDbSymbolTableRecord
100
AcDbDimStyleTableRecord
  2
EZ_RADIUS
 70
0
 40
1.0
 41
0.25
 42
0.125
 43
3.75
 44
0.375
 45
0.0
 46
0.0
 47
0.0
 48
0.0
 49
2.5
140
0.25
141
0.0
142
0.0
143
0.03937007874
144
100.0
145
0.0
146
0.5
147
0.1
148
0.0
 69
0
 70
0
 71
0
 72
0
 73
0
 74
0
 75
0
 76
0
 77
1
 78
12
 79
3
170
0
171
3
172
0
173
0
174
0
175
0
176
0
177
0
178
0
179
2
271
2
272
2
273
2
274
3
275
0
276
0
277
2
278
46
279
1
280
0
281
0
282
0
283
0
284
8
285
0
286
0
288
1
289
3
290
0
340
4C
342
84
371
-2
372
-2
  0
DIMSTYLE
105
88
330
4
100
AcDbSymbolTableRecord
100
AcDbDimStyleTableRecord
  2
EZ_RADIUS_INSIDE
 70
0
 40
1.0
 41
0.25
 42
0.125
 43
3.75
 44
0.375
 45
0.0
 46
0.0
 47
0.0
 48
0.0
 49
2.5
140
0.25
141
0.0
142
0.0
143
0.03937007874
144
100.0
145
0.0
146
0.5
147
0.1
148
0.0
 69
0
 70
0
 71
0
 72
0
 73
0
 74
0
 75
0
 76
0
 77
0
 78
12
 79
3
170
0
171
3
172
0
173
0
174
1
175
0
176
0
177
0
178
0
179
2
271
2
272
2
273
2
274
3
275
0
276
0
277
2
278
46
279
0
280
0
281
0
282
0
283
0
284
8
285
0
286
0
288
1
289
0
290
0
340
4C
342
84
371
-2
372
-2
  0
DIMSTYLE
105
89
330
4
100
AcDbSymbolTableRecord
100
AcDbDimStyleTableRecord
  2
EZ_CURVED
 70
0
 40
1.0
 41
0.25
 42
0.125
 43
3.75
 44
0.375
 45
0.0
 46
0.0
 47
0.0
 48
0.0
 49
2.5
140
0.25
141
2.5
142
0.0
143
0.03937007874
144
100.0
145
0.0
146
0.5
147
0.1
148
0.0
 69
0
 70
0
 71
0
 72
0
 73
0
 74
0
 75
0
 76
0
 77
1
 78
12
 79
2
 90
2
170
0
171
3
172
1
173
0
174
0
175
0
176
0
177
0
178
0
179
2
271
2
272
2
273
2
274
3
275
0
276
0
277
2
278
46
279
2
280
0
281
0
282
0
283
0
284
8
285
0
286
0
288
1
289
3
290
0
340
4C
371
-2
372
-2
  0
DIMSTYLE
105
A3
330
4
100
AcDbSymbolTableRecord
100
AcDbDimStyleTableRecord
  2
SC-DIM
 70
0
 40
1.0
 41
1.6
 42
1.0
 43
3.75
 44
1.2
 45
0.0
 46
0.0
 47
0.0
 48
0.0
 49
2.5
140
1.8
141
2.5
142
0.0
143
0.03937007874
144
1.0
145
0.0
146
1.0
147
0.8
148
0.0
 69
0
 70
0
 71
0
 72
0
 73
0
 74
0
 75
0
 76
0
 77
1
 78
8
 79
3
170
0
171
3
172
1
173
0
174
0
175
0
176
4
177
4
178
4
179
2
271
0
272
2
273
2
274
3
275
0
276
0
277
2
278
44
279
0
280
0
281
0
282
0
283
0
284
8
285
0
286
0
288
0
289
3
290
0
342
74
371
13
372
13
  0
DIMSTYLE
105
A4
330
4
100
AcDbSymbolTableRecord
100
AcDbDimStyleTableRecord
  2
SC-DIM-S
 70
0
 40
1.0
 41
1.2
 42
1.0
 43
3.75
 44
1.2
 45
0.0
 46
0.0
 47
0.0
 48
0.0
 49
2.5
140
1.4
141
2.5
142
0.0
143
0.03937007874
144
1.0
145
0.0
146
1.0
147
0.8
148
0.0
 69
0
 70
0
 71
0
 72
0
 73
0
 74
0
 75
0
 76
0
 77
1
 78
8
 79
3
170
0
171
3
172
1
173
0
174
0
175
0
176
4
177
4
178
4
179
2
271
0
272
2
273
2
274
3
275
0
276
0
277
2
278
44
279
0
280
0
281
0
282
0
283
0
284
8
285
0
286
0
288
0
289
3
290
0
342
74
371
13
372
13
  0
ENDTAB
  0
TABLE
  2
BLOCK_RECORD
  5
9
330
0
100
AcDbSymbolTable
 70
14
  0
BLOCK_RECORD
  5
17
330
9
100
AcDbSymbolTableRecord
100
AcDbBlockTableRecord
  2
*Model_Space
340
1A
 70
0
280
1
281
0
  0
BLOCK_RECORD
  5
1B
330
9
100
AcDbSymbolTableRecord
100
AcDbBlockTableRecord
  2
*Paper_Space
340
1E
 70
0
280
1
281
0
  0
BLOCK_RECORD
  5
74
330
9
100
AcDbSymbolTableRecord
100
AcDbBlockTableRecord
  2
_ARCHTICK
340
0
 70
0
280
1
281
0
  0
BLOCK_RECORD
  5
78
330
9
100
AcDbSymbolTableRecord
100
AcDbBlockTableRecord
  2
_CLOSEDFILLED
340
0
 70
0
280
1
281
0
  0
BLOCK_RECORD
  5
84
330
9
100
AcDbSymbolTableRecord
100
AcDbBlockTableRecord
  2
_CLOSEDBLANK
340
0
 70
0
280
1
281
0
  0
BLOCK_RECORD
  5
A5
330
9
100
AcDbSymbolTableRecord
100
AcDbBlockTableRecord
  2
BARMARK
340
0
 70
0
280
1
281
0
  0
BLOCK_RECORD
  5
A9
330
9
100
AcDbSymbolTableRecord
100
AcDbBlockTableRecord
  2
SECMARK
340
0
 70
0
280
1
281
0
  0
BLOCK_RECORD
  5
AE
330
9
100
AcDbSymbolTableRecord
100
AcDbBlockTableRecord
  2
LEVELMK
340
0
 70
0
280
1
281
0
  0
BLOCK_RECORD
  5
B2
330
9
100
AcDbSymbolTableRecord
100
AcDbBlockTableRecord
  2
NORTH
340
0
 70
0
280
1
281
0
  0
BLOCK_RECORD
  5
105
330
9
100
AcDbSymbolTableRecord
100
AcDbBlockTableRecord
  2
*D1
340
0
 70
0
280
1
281
0
  0
BLOCK_RECORD
  5
115
330
9
100
AcDbSymbolTableRecord
100
AcDbBlockTableRecord
  2
*D2
340
0
 70
0
280
1
281
0
  0
BLOCK_RECORD
  5
14E
330
9
100
AcDbSymbolTableRecord
100
AcDbBlockTableRecord
  2
*D3
340
0
 70
0
280
1
281
0
  0
BLOCK_RECORD
  5
15D
330
9
100
AcDbSymbolTableRecord
100
AcDbBlockTableRecord
  2
*D4
340
0
 70
0
280
1
281
0
  0
BLOCK_RECORD
  5
1A4
330
9
100
AcDbSymbolTableRecord
100
AcDbBlockTableRecord
  2
*D5
340
0
 70
0
280
1
281
0
  0
ENDTAB
  0
ENDSEC
  0
SECTION
  2
BLOCKS
  0
BLOCK
  5
18
330
17
100
AcDbEntity
  8
0
100
AcDbBlockBegin
  2
*Model_Space
 70
0
 10
0.0
 20
0.0
 30
0.0
  3
*Model_Space
  1

  0
ENDBLK
  5
19
330
17
100
AcDbEntity
  8
0
100
AcDbBlockEnd
  0
BLOCK
  5
1C
330
1B
100
AcDbEntity
  8
0
100
AcDbBlockBegin
  2
*Paper_Space
 70
0
 10
0.0
 20
0.0
 30
0.0
  3
*Paper_Space
  1

  0
ENDBLK
  5
1D
330
1B
100
AcDbEntity
  8
0
100
AcDbBlockEnd
  0
BLOCK
  5
75
330
74
100
AcDbEntity
  8
0
100
AcDbBlockBegin
  2
_ARCHTICK
 70
0
 10
0.0
 20
0.0
 30
0.0
  3
_ARCHTICK
  1

  0
LWPOLYLINE
  5
77
330
74
100
AcDbEntity
  8
0
  6
BYBLOCK
 62
0
100
AcDbPolyline
 90
2
 70
0
 43
0.15
 10
-0.5
 20
-0.5
 10
0.5
 20
0.5
  0
ENDBLK
  5
76
330
74
100
AcDbEntity
  8
0
100
AcDbBlockEnd
  0
BLOCK
  5
79
330
78
100
AcDbEntity
  8
0
100
AcDbBlockBegin
  2
_CLOSEDFILLED
 70
0
 10
0.0
 20
0.0
 30
0.0
  3
_CLOSEDFILLED
  1

  0
SOLID
  5
7B
330
78
100
AcDbEntity
  8
0
  6
BYBLOCK
 62
0
100
AcDbTrace
 10
-1.0
 20
0.16439898372402537
 30
0.0
 11
0.0
 21
0.0
 31
0.0
 12
-1.0
 22
-0.16439898372402537
 32
0.0
 13
-1.0
 23
-0.16439898372402537
 33
0.0
  0
ENDBLK
  5
7A
330
78
100
AcDbEntity
  8
0
100
AcDbBlockEnd
  0
BLOCK
  5
85
330
84
100
AcDbEntity
  8
0
100
AcDbBlockBegin
  2
_CLOSEDBLANK
 70
0
 10
0.0
 20
0.0
 30
0.0
  3
_CLOSEDBLANK
  1

  0
LWPOLYLINE
  5
87
330
84
100
AcDbEntity
  8
0
  6
BYBLOCK
 62
0
100
AcDbPolyline
 90
3
 70
1
 10
-1.0
 20
0.16439898372402537
 10
0.0
 20
0.0
 10
-1.0
 20
-0.16439898372402537
  0
ENDBLK
  5
86
330
84
100
AcDbEntity
  8
0
100
AcDbBlockEnd
  0
BLOCK
  5
A6
330
A5
100
AcDbEntity
  8
0
100
AcDbBlockBegin
  2
BARMARK
 70
0
 10
0.0
 20
0.0
 30
0.0
  3
BARMARK
  1

  0
CIRCLE
  5
A8
330
A5
100
AcDbEntity
  8
S-CALLOUT
100
AcDbCircle
 10
0.0
 20
0.0
 30
0.0
 40
3.2
  0
ENDBLK
  5
A7
330
A5
100
AcDbEntity
  8
0
100
AcDbBlockEnd
  0
BLOCK
  5
AA
330
A9
100
AcDbEntity
  8
0
100
AcDbBlockBegin
  2
SECMARK
 70
0
 10
0.0
 20
0.0
 30
0.0
  3
SECMARK
  1

  0
CIRCLE
  5
AC
330
A9
100
AcDbEntity
  8
S-SECTION
100
AcDbCircle
 10
0.0
 20
0.0
 30
0.0
 40
4.0
  0
LINE
  5
AD
330
A9
100
AcDbEntity
  8
S-SECTION
100
AcDbLine
 10
-4.0
 20
0.0
 30
0.0
 11
4.0
 21
0.0
 31
0.0
  0
ENDBLK
  5
AB
330
A9
100
AcDbEntity
  8
0
100
AcDbBlockEnd
  0
BLOCK
  5
AF
330
AE
100
AcDbEntity
  8
0
100
AcDbBlockBegin
  2
LEVELMK
 70
0
 10
0.0
 20
0.0
 30
0.0
  3
LEVELMK
  1

  0
LWPOLYLINE
  5
B1
330
AE
100
AcDbEntity
  8
S-LEVEL
100
AcDbPolyline
 90
4
 70
1
 10
0.0
 20
0.0
 10
-2.0
 20
3.0
 10
2.0
 20
3.0
 10
0.0
 20
0.0
  0
ENDBLK
  5
B0
330
AE
100
AcDbEntity
  8
0
100
AcDbBlockEnd
  0
BLOCK
  5
B3
330
B2
100
AcDbEntity
  8
0
100
AcDbBlockBegin
  2
NORTH
 70
0
 10
0.0
 20
0.0
 30
0.0
  3
NORTH
  1

  0
LWPOLYLINE
  5
B5
330
B2
100
AcDbEntity
  8
S-TITLE
100
AcDbPolyline
 90
5
 70
1
 10
0.0
 20
10.0
 10
-3.2
 20
-6.0
 10
0.0
 20
-2.4
 10
3.2
 20
-6.0
 10
0.0
 20
10.0
  0
CIRCLE
  5
B6
330
B2
100
AcDbEntity
  8
S-TITLE
100
AcDbCircle
 10
0.0
 20
0.0
 30
0.0
 40
12.0
  0
ENDBLK
  5
B4
330
B2
100
AcDbEntity
  8
0
100
AcDbBlockEnd
  0
BLOCK
  5
106
330
105
100
AcDbEntity
  8
0
100
AcDbBlockBegin
  2
*D1
 70
1
 10
0.0
 20
0.0
 30
0.0
  3
*D1
  1

  0
LINE
  5
108
330
105
100
AcDbEntity
  8
0
 62
4
370
13
100
AcDbLine
 10
63.3
 20
337.3
 30
0.0
 11
63.3
 21
310.8
 31
0.0
  0
LINE
  5
109
330
105
100
AcDbEntity
  8
0
 62
4
370
13
100
AcDbLine
 10
153.3
 20
337.3
 30
0.0
 11
153.3
 21
310.8
 31
0.0
  0
INSERT
  5
10A
330
105
100
AcDbEntity
  8
S-DIM
 62
4
100
AcDbBlockReference
  2
_ARCHTICK
 10
63.3
 20
312.0
 30
0.0
 41
1.6
 42
1.6
 50
180.0
  0
INSERT
  5
10C
330
105
100
AcDbEntity
  8
S-DIM
 62
4
100
AcDbBlockReference
  2
_ARCHTICK
 10
153.3
 20
312.0
 30
0.0
 41
1.6
 42
1.6
  0
LINE
  5
10E
330
105
100
AcDbEntity
  8
0
 62
4
370
13
100
AcDbLine
 10
63.3
 20
312.0
 30
0.0
 11
153.3
 21
312.0
 31
0.0
  0
MTEXT
  5
10F
330
105
100
AcDbEntity
  8
S-DIM
 62
4
100
AcDbMText
 10
108.30000000000001
 20
313.7
 30
0.0
 40
1.8
 71
5
  1
900
  7
OpenSansCondensed-Light
  0
POINT
  5
110
330
105
100
AcDbEntity
  8
Defpoints
100
AcDbPoint
 10
63.3
 20
312.0
 30
0.0
  0
POINT
  5
111
330
105
100
AcDbEntity
  8
Defpoints
100
AcDbPoint
 10
63.3
 20
338.3
 30
0.0
  0
POINT
  5
112
330
105
100
AcDbEntity
  8
Defpoints
100
AcDbPoint
 10
153.3
 20
338.3
 30
0.0
  0
ENDBLK
  5
107
330
105
100
AcDbEntity
  8
0
100
AcDbBlockEnd
  0
BLOCK
  5
116
330
115
100
AcDbEntity
  8
0
100
AcDbBlockBegin
  2
*D2
 70
1
 10
0.0
 20
0.0
 30
0.0
  3
*D2
  1

  0
LINE
  5
118
330
115
100
AcDbEntity
  8
0
 62
4
370
13
100
AcDbLine
 10
116.0
 20
405.0
 30
0.0
 11
156.2
 21
405.0
 31
0.0
  0
LINE
  5
119
330
115
100
AcDbEntity
  8
0
 62
4
370
13
100
AcDbLine
 10
116.0
 20
485.0
 30
0.0
 11
156.2
 21
485.0
 31
0.0
  0
INSERT
  5
11A
330
115
100
AcDbEntity
  8
S-DIM
 62
4
100
AcDbBlockReference
  2
_ARCHTICK
 10
155.0
 20
405.0
 30
0.0
 41
1.6
 42
1.6
 50
270.0
  0
INSERT
  5
11C
330
115
100
AcDbEntity
  8
S-DIM
 62
4
100
AcDbBlockReference
  2
_ARCHTICK
 10
155.0
 20
485.0
 30
0.0
 41
1.6
 42
1.6
 50
90.0
  0
LINE
  5
11E
330
115
100
AcDbEntity
  8
0
 62
4
370
13
100
AcDbLine
 10
155.0
 20
405.0
 30
0.0
 11
155.0
 21
485.0
 31
0.0
  0
MTEXT
  5
11F
330
115
100
AcDbEntity
  8
S-DIM
 62
4
100
AcDbMText
 10
153.3
 20
445.0
 30
0.0
 40
1.8
 71
5
  1
800
  7
OpenSansCondensed-Light
 50
90.0
  0
POINT
  5
120
330
115
100
AcDbEntity
  8
Defpoints
100
AcDbPoint
 10
155.0
 20
405.0
 30
0.0
  0
POINT
  5
121
330
115
100
AcDbEntity
  8
Defpoints
100
AcDbPoint
 10
115.0
 20
405.0
 30
0.0
  0
POINT
  5
122
330
115
100
AcDbEntity
  8
Defpoints
100
AcDbPoint
 10
115.0
 20
485.0
 30
0.0
  0
ENDBLK
  5
117
330
115
100
AcDbEntity
  8
0
100
AcDbBlockEnd
  0
BLOCK
  5
14F
330
14E
100
AcDbEntity
  8
0
100
AcDbBlockBegin
  2
*D3
 70
1
 10
0.0
 20
0.0
 30
0.0
  3
*D3
  1

  0
LINE
  5
151
330
14E
100
AcDbEntity
  8
0
 62
4
370
13
100
AcDbLine
 10
310.0
 20
389.0
 30
0.0
 11
310.0
 21
310.8
 31
0.0
  0
LINE
  5
152
330
14E
100
AcDbEntity
  8
0
 62
4
370
13
100
AcDbLine
 10
360.0
 20
389.0
 30
0.0
 11
360.0
 21
310.8
 31
0.0
  0
INSERT
  5
153
330
14E
100
AcDbEntity
  8
S-DIM
 62
4
100
AcDbBlockReference
  2
_ARCHTICK
 10
310.0
 20
312.0
 30
0.0
 41
1.6
 42
1.6
 50
180.0
  0
INSERT
  5
155
330
14E
100
AcDbEntity
  8
S-DIM
 62
4
100
AcDbBlockReference
  2
_ARCHTICK
 10
360.0
 20
312.0
 30
0.0
 41
1.6
 42
1.6
  0
LINE
  5
157
330
14E
100
AcDbEntity
  8
0
 62
4
370
13
100
AcDbLine
 10
310.0
 20
312.0
 30
0.0
 11
360.0
 21
312.0
 31
0.0
  0
MTEXT
  5
158
330
14E
100
AcDbEntity
  8
S-DIM
 62
4
100
AcDbMText
 10
335.0
 20
313.7
 30
0.0
 40
1.8
 71
5
  1
500
  7
OpenSansCondensed-Light
  0
POINT
  5
159
330
14E
100
AcDbEntity
  8
Defpoints
100
AcDbPoint
 10
310.0
 20
312.0
 30
0.0
  0
POINT
  5
15A
330
14E
100
AcDbEntity
  8
Defpoints
100
AcDbPoint
 10
310.0
 20
390.0
 30
0.0
  0
POINT
  5
15B
330
14E
100
AcDbEntity
  8
Defpoints
100
AcDbPoint
 10
360.0
 20
390.0
 30
0.0
  0
ENDBLK
  5
150
330
14E
100
AcDbEntity
  8
0
100
AcDbBlockEnd
  0
BLOCK
  5
15E
330
15D
100
AcDbEntity
  8
0
100
AcDbBlockBegin
  2
*D4
 70
1
 10
0.0
 20
0.0
 30
0.0
  3
*D4
  1

  0
LINE
  5
160
330
15D
100
AcDbEntity
  8
0
 62
4
370
13
100
AcDbLine
 10
381.0
 20
390.0
 30
0.0
 11
391.2
 21
390.0
 31
0.0
  0
LINE
  5
161
330
15D
100
AcDbEntity
  8
0
 62
4
370
13
100
AcDbLine
 10
381.0
 20
440.0
 30
0.0
 11
391.2
 21
440.0
 31
0.0
  0
INSERT
  5
162
330
15D
100
AcDbEntity
  8
S-DIM
 62
4
100
AcDbBlockReference
  2
_ARCHTICK
 10
390.0
 20
390.0
 30
0.0
 41
1.6
 42
1.6
 50
270.0
  0
INSERT
  5
164
330
15D
100
AcDbEntity
  8
S-DIM
 62
4
100
AcDbBlockReference
  2
_ARCHTICK
 10
390.0
 20
440.0
 30
0.0
 41
1.6
 42
1.6
 50
90.0
  0
LINE
  5
166
330
15D
100
AcDbEntity
  8
0
 62
4
370
13
100
AcDbLine
 10
390.0
 20
390.0
 30
0.0
 11
390.0
 21
440.0
 31
0.0
  0
MTEXT
  5
167
330
15D
100
AcDbEntity
  8
S-DIM
 62
4
100
AcDbMText
 10
388.3
 20
415.0
 30
0.0
 40
1.8
 71
5
  1
500
  7
OpenSansCondensed-Light
 50
90.0
  0
POINT
  5
168
330
15D
100
AcDbEntity
  8
Defpoints
100
AcDbPoint
 10
390.0
 20
390.0
 30
0.0
  0
POINT
  5
169
330
15D
100
AcDbEntity
  8
Defpoints
100
AcDbPoint
 10
380.0
 20
390.0
 30
0.0
  0
POINT
  5
16A
330
15D
100
AcDbEntity
  8
Defpoints
100
AcDbPoint
 10
380.0
 20
440.0
 30
0.0
  0
ENDBLK
  5
15F
330
15D
100
AcDbEntity
  8
0
100
AcDbBlockEnd
  0
BLOCK
  5
1A5
330
1A4
100
AcDbEntity
  8
0
100
AcDbBlockBegin
  2
*D5
 70
1
 10
0.0
 20
0.0
 30
0.0
  3
*D5
  1

  0
LINE
  5
1A7
330
1A4
100
AcDbEntity
  8
0
 62
4
370
13
100
AcDbLine
 10
490.0
 20
391.0
 30
0.0
 11
490.0
 21
421.2
 31
0.0
  0
LINE
  5
1A8
330
1A4
100
AcDbEntity
  8
0
 62
4
370
13
100
AcDbLine
 10
530.0
 20
391.0
 30
0.0
 11
530.0
 21
421.2
 31
0.0
  0
INSERT
  5
1A9
330
1A4
100
AcDbEntity
  8
S-DIM
 62
4
100
AcDbBlockReference
  2
_ARCHTICK
 10
490.0
 20
420.0
 30
0.0
 41
1.6
 42
1.6
 50
180.0
  0
INSERT
  5
1AB
330
1A4
100
AcDbEntity
  8
S-DIM
 62
4
100
AcDbBlockReference
  2
_ARCHTICK
 10
530.0
 20
420.0
 30
0.0
 41
1.6
 42
1.6
  0
LINE
  5
1AD
330
1A4
100
AcDbEntity
  8
0
 62
4
370
13
100
AcDbLine
 10
490.0
 20
420.0
 30
0.0
 11
530.0
 21
420.0
 31
0.0
  0
MTEXT
  5
1AE
330
1A4
100
AcDbEntity
  8
S-DIM
 62
4
100
AcDbMText
 10
510.0
 20
421.7
 30
0.0
 40
1.8
 71
5
  1
400
  7
OpenSansCondensed-Light
  0
POINT
  5
1AF
330
1A4
100
AcDbEntity
  8
Defpoints
100
AcDbPoint
 10
490.0
 20
420.0
 30
0.0
  0
POINT
  5
1B0
330
1A4
100
AcDbEntity
  8
Defpoints
100
AcDbPoint
 10
490.0
 20
390.0
 30
0.0
  0
POINT
  5
1B1
330
1A4
100
AcDbEntity
  8
Defpoints
100
AcDbPoint
 10
530.0
 20
390.0
 30
0.0
  0
ENDBLK
  5
1A6
330
1A4
100
AcDbEntity
  8
0
100
AcDbBlockEnd
  0
ENDSEC
  0
SECTION
  2
ENTITIES
  0
LWPOLYLINE
  5
B7
330
17
100
AcDbEntity
  8
S-TITLE
100
AcDbPolyline
 90
4
 70
1
 10
0.0
 20
0.0
 10
841.0
 20
0.0
 10
841.0
 20
594.0
 10
0.0
 20
594.0
  0
LWPOLYLINE
  5
B8
330
17
100
AcDbEntity
  8
S-TITLE
100
AcDbPolyline
 90
4
 70
1
 10
10.0
 20
10.0
 10
831.0
 20
10.0
 10
831.0
 20
584.0
 10
10.0
 20
584.0
  0
TEXT
  5
B9
330
17
100
AcDbEntity
  8
S-TITLE
100
AcDbText
 10
12.0
 20
576.5
 30
0.0
 40
5.0
  1
STRUCTURAL CAD - REINFORCEMENT PACKAGE
  7
OpenSans
 11
12.0
 21
576.5
 31
0.0
100
AcDbText
  0
TEXT
  5
BA
330
17
100
AcDbEntity
  8
S-TITLE
100
AcDbText
 10
12.0
 20
569.5
 30
0.0
 40
2.4
  1
R-103   FOUNDATION / WALL JUNCTION DETAILS
  7
OpenSans
 11
12.0
 21
569.5
 31
0.0
100
AcDbText
  0
LINE
  5
BB
330
17
100
AcDbEntity
  8
S-TITLE
100
AcDbLine
 10
10.0
 20
566.5
 30
0.0
 11
831.0
 21
566.5
 31
0.0
  0
TEXT
  5
BC
330
17
100
AcDbEntity
  8
S-BLAST
100
AcDbText
 10
829.0
 20
577.0
 30
0.0
 40
2.0
  1
SENTRY POST EXCLUDED FROM THIS PACKAGE
  7
OpenSans
 72
2
 11
829.0
 21
577.0
 31
0.0
100
AcDbText
  0
TEXT
  5
BD
330
17
100
AcDbEntity
  8
S-BLAST
100
AcDbText
 10
829.0
 20
570.5
 30
0.0
 40
1.4
  1
ALL DESIGN ACTIONS ARE MANUAL CALCULATION - NOT DIRECT STAAD OUTPUT
  7
OpenSans
 72
2
 11
829.0
 21
570.5
 31
0.0
100
AcDbText
  0
LWPOLYLINE
  5
BE
330
17
100
AcDbEntity
  8
S-CONCRETE
100
AcDbPolyline
 90
4
 70
1
 10
55.0
 20
330.0
 10
235.0
 20
330.0
 10
235.0
 20
390.0
 10
55.0
 20
390.0
  0
HATCH
  5
BF
330
17
100
AcDbEntity
  8
S-HATCH
 62
7
100
AcDbHatch
 10
0.0
 20
0.0
 30
0.0
210
0.0
220
0.0
230
1.0
  2
ANSI31
 70
0
 71
0
 91
1
 92
3
 72
0
 73
1
 93
4
 10
55.0
 20
330.0
 10
235.0
 20
330.0
 10
235.0
 20
390.0
 10
55.0
 20
390.0
 97
0
 75
1
 76
1
 52
0.0
 41
1.6
 77
0
 78
1
 53
45.0
 43
0.0
 44
0.0
 45
-3.5921024485
 46
3.5921024485
 79
0
 98
0
  0
LWPOLYLINE
  5
C0
330
17
100
AcDbEntity
  8
S-CONCRETE
100
AcDbPolyline
 90
4
 70
1
 10
55.0
 20
390.0
 10
115.0
 20
390.0
 10
115.0
 20
510.0
 10
55.0
 20
510.0
  0
HATCH
  5
C1
330
17
100
AcDbEntity
  8
S-HATCH
 62
7
100
AcDbHatch
 10
0.0
 20
0.0
 30
0.0
210
0.0
220
0.0
230
1.0
  2
ANSI31
 70
0
 71
0
 91
1
 92
3
 72
0
 73
1
 93
4
 10
55.0
 20
390.0
 10
115.0
 20
390.0
 10
115.0
 20
510.0
 10
55.0
 20
510.0
 97
0
 75
1
 76
1
 52
0.0
 41
1.6
 77
0
 78
1
 53
45.0
 43
0.0
 44
0.0
 45
-3.5921024485
 46
3.5921024485
 79
0
 98
0
  0
LINE
  5
C2
330
17
100
AcDbEntity
  8
S-HIDDEN
100
AcDbLine
 10
55.0
 20
405.0
 30
0.0
 11
57.0
 21
405.0
 31
0.0
  0
LINE
  5
C3
330
17
100
AcDbEntity
  8
S-HIDDEN
100
AcDbLine
 10
58.4
 20
405.0
 30
0.0
 11
60.4
 21
405.0
 31
0.0
  0
LINE
  5
C4
330
17
100
AcDbEntity
  8
S-HIDDEN
100
AcDbLine
 10
61.8
 20
405.0
 30
0.0
 11
63.8
 21
405.0
 31
0.0
  0
LINE
  5
C5
330
17
100
AcDbEntity
  8
S-HIDDEN
100
AcDbLine
 10
65.2
 20
405.0
 30
0.0
 11
67.2
 21
405.0
 31
0.0
  0
LINE
  5
C6
330
17
100
AcDbEntity
  8
S-HIDDEN
100
AcDbLine
 10
68.6
 20
405.0
 30
0.0
 11
70.6
 21
405.0
 31
0.0
  0
LINE
  5
C7
330
17
100
AcDbEntity
  8
S-HIDDEN
100
AcDbLine
 10
72.0
 20
405.0
 30
0.0
 11
74.0
 21
405.0
 31
0.0
  0
LINE
  5
C8
330
17
100
AcDbEntity
  8
S-HIDDEN
100
AcDbLine
 10
75.4
 20
405.0
 30
0.0
 11
77.4
 21
405.0
 31
0.0
  0
LINE
  5
C9
330
17
100
AcDbEntity
  8
S-HIDDEN
100
AcDbLine
 10
78.8
 20
405.0
 30
0.0
 11
80.8
 21
405.0
 31
0.0
  0
LINE
  5
CA
330
17
100
AcDbEntity
  8
S-HIDDEN
100
AcDbLine
 10
82.19999999999999
 20
405.0
 30
0.0
 11
84.19999999999999
 21
405.0
 31
0.0
  0
LINE
  5
CB
330
17
100
AcDbEntity
  8
S-HIDDEN
100
AcDbLine
 10
85.6
 20
405.0
 30
0.0
 11
87.6
 21
405.0
 31
0.0
  0
LINE
  5
CC
330
17
100
AcDbEntity
  8
S-HIDDEN
100
AcDbLine
 10
89.0
 20
405.0
 30
0.0
 11
91.0
 21
405.0
 31
0.0
  0
LINE
  5
CD
330
17
100
AcDbEntity
  8
S-HIDDEN
100
AcDbLine
 10
92.39999999999999
 20
405.0
 30
0.0
 11
94.39999999999999
 21
405.0
 31
0.0
  0
LINE
  5
CE
330
17
100
AcDbEntity
  8
S-HIDDEN
100
AcDbLine
 10
95.79999999999998
 20
405.0
 30
0.0
 11
97.79999999999998
 21
405.0
 31
0.0
  0
LINE
  5
CF
330
17
100
AcDbEntity
  8
S-HIDDEN
100
AcDbLine
 10
99.19999999999999
 20
405.0
 30
0.0
 11
101.19999999999999
 21
405.0
 31
0.0
  0
LINE
  5
D0
330
17
100
AcDbEntity
  8
S-HIDDEN
100
AcDbLine
 10
102.6
 20
405.0
 30
0.0
 11
104.6
 21
405.0
 31
0.0
  0
LINE
  5
D1
330
17
100
AcDbEntity
  8
S-HIDDEN
100
AcDbLine
 10
105.99999999999999
 20
405.0
 30
0.0
 11
107.99999999999999
 21
405.0
 31
0.0
  0
LINE
  5
D2
330
17
100
AcDbEntity
  8
S-HIDDEN
100
AcDbLine
 10
109.39999999999998
 20
405.0
 30
0.0
 11
111.39999999999998
 21
405.0
 31
0.0
  0
LINE
  5
D3
330
17
100
AcDbEntity
  8
S-HIDDEN
100
AcDbLine
 10
112.79999999999998
 20
405.0
 30
0.0
 11
114.79999999999998
 21
405.0
 31
0.0
  0
LWPOLYLINE
  5
D4
330
17
100
AcDbEntity
  8
S-REBAR-TIE
100
AcDbPolyline
 90
3
 70
0
 10
153.3
 20
338.3
 10
63.3
 20
338.3
 10
63.3
 20
485.0
  0
LINE
  5
D5
330
17
100
AcDbEntity
  8
S-REBAR-MAIN
100
AcDbLine
 10
63.3
 20
405.0
 30
0.0
 11
63.3
 21
510.0
 31
0.0
  0
LWPOLYLINE
  5
D6
330
17
100
AcDbEntity
  8
S-REBAR-TIE
100
AcDbPolyline
 90
3
 70
0
 10
196.7
 20
338.3
 10
106.7
 20
338.3
 10
106.7
 20
485.0
  0
LINE
  5
D7
330
17
100
AcDbEntity
  8
S-REBAR-MAIN
100
AcDbLine
 10
106.7
 20
405.0
 30
0.0
 11
106.7
 21
510.0
 31
0.0
  0
CIRCLE
  5
D8
330
17
100
AcDbEntity
  8
S-REBAR-MAIN
100
AcDbCircle
 10
70.0
 20
338.3
 30
0.0
 40
0.8
  0
HATCH
  5
D9
330
17
100
AcDbEntity
  8
S-REBAR-MAIN
 62
1
100
AcDbHatch
 10
0.0
 20
0.0
 30
0.0
210
0.0
220
0.0
230
1.0
  2
SOLID
 70
1
 71
0
 91
1
 92
3
 72
0
 73
1
 93
16
 10
70.8
 20
338.3
 10
70.73910362600903
 20
338.6061467458921
 10
70.56568542494924
 20
338.8656854249493
 10
70.30614674589208
 20
339.039103626009
 10
70.0
 20
339.1
 10
69.69385325410792
 20
339.039103626009
 10
69.43431457505076
 20
338.8656854249493
 10
69.26089637399097
 20
338.6061467458921
 10
69.2
 20
338.3
 10
69.26089637399097
 20
337.99385325410793
 10
69.43431457505076
 20
337.73431457505075
 10
69.69385325410792
 20
337.560896373991
 10
70.0
 20
337.5
 10
70.30614674589208
 20
337.560896373991
 10
70.56568542494924
 20
337.73431457505075
 10
70.73910362600903
 20
337.99385325410793
 97
0
 75
0
 76
1
 98
0
  0
CIRCLE
  5
DA
330
17
100
AcDbEntity
  8
S-REBAR-MAIN
100
AcDbCircle
 10
85.0
 20
338.3
 30
0.0
 40
0.8
  0
HATCH
  5
DB
330
17
100
AcDbEntity
  8
S-REBAR-MAIN
 62
1
100
AcDbHatch
 10
0.0
 20
0.0
 30
0.0
210
0.0
220
0.0
230
1.0
  2
SOLID
 70
1
 71
0
 91
1
 92
3
 72
0
 73
1
 93
16
 10
85.8
 20
338.3
 10
85.73910362600903
 20
338.6061467458921
 10
85.56568542494924
 20
338.8656854249493
 10
85.30614674589208
 20
339.039103626009
 10
85.0
 20
339.1
 10
84.69385325410792
 20
339.039103626009
 10
84.43431457505076
 20
338.8656854249493
 10
84.26089637399097
 20
338.6061467458921
 10
84.2
 20
338.3
 10
84.26089637399097
 20
337.99385325410793
 10
84.43431457505076
 20
337.73431457505075
 10
84.69385325410792
 20
337.560896373991
 10
85.0
 20
337.5
 10
85.30614674589208
 20
337.560896373991
 10
85.56568542494924
 20
337.73431457505075
 10
85.73910362600903
 20
337.99385325410793
 97
0
 75
0
 76
1
 98
0
  0
CIRCLE
  5
DC
330
17
100
AcDbEntity
  8
S-REBAR-MAIN
100
AcDbCircle
 10
100.0
 20
338.3
 30
0.0
 40
0.8
  0
HATCH
  5
DD
330
17
100
AcDbEntity
  8
S-REBAR-MAIN
 62
1
100
AcDbHatch
 10
0.0
 20
0.0
 30
0.0
210
0.0
220
0.0
230
1.0
  2
SOLID
 70
1
 71
0
 91
1
 92
3
 72
0
 73
1
 93
16
 10
100.8
 20
338.3
 10
100.73910362600903
 20
338.6061467458921
 10
100.56568542494924
 20
338.8656854249493
 10
100.30614674589208
 20
339.039103626009
 10
100.0
 20
339.1
 10
99.69385325410792
 20
339.039103626009
 10
99.43431457505076
 20
338.8656854249493
 10
99.26089637399097
 20
338.6061467458921
 10
99.2
 20
338.3
 10
99.26089637399097
 20
337.99385325410793
 10
99.43431457505076
 20
337.73431457505075
 10
99.69385325410792
 20
337.560896373991
 10
100.0
 20
337.5
 10
100.30614674589208
 20
337.560896373991
 10
100.56568542494924
 20
337.73431457505075
 10
100.73910362600903
 20
337.99385325410793
 97
0
 75
0
 76
1
 98
0
  0
CIRCLE
  5
DE
330
17
100
AcDbEntity
  8
S-REBAR-MAIN
100
AcDbCircle
 10
115.0
 20
338.3
 30
0.0
 40
0.8
  0
HATCH
  5
DF
330
17
100
AcDbEntity
  8
S-REBAR-MAIN
 62
1
100
AcDbHatch
 10
0.0
 20
0.0
 30
0.0
210
0.0
220
0.0
230
1.0
  2
SOLID
 70
1
 71
0
 91
1
 92
3
 72
0
 73
1
 93
16
 10
115.8
 20
338.3
 10
115.73910362600903
 20
338.6061467458921
 10
115.56568542494924
 20
338.8656854249493
 10
115.30614674589208
 20
339.039103626009
 10
115.0
 20
339.1
 10
114.69385325410792
 20
339.039103626009
 10
114.43431457505076
 20
338.8656854249493
 10
114.26089637399097
 20
338.6061467458921
 10
114.2
 20
338.3
 10
114.26089637399097
 20
337.99385325410793
 10
114.43431457505076
 20
337.73431457505075
 10
114.69385325410792
 20
337.560896373991
 10
115.0
 20
337.5
 10
115.30614674589208
 20
337.560896373991
 10
115.56568542494924
 20
337.73431457505075
 10
115.73910362600903
 20
337.99385325410793
 97
0
 75
0
 76
1
 98
0
  0
CIRCLE
  5
E0
330
17
100
AcDbEntity
  8
S-REBAR-MAIN
100
AcDbCircle
 10
130.0
 20
338.3
 30
0.0
 40
0.8
  0
HATCH
  5
E1
330
17
100
AcDbEntity
  8
S-REBAR-MAIN
 62
1
100
AcDbHatch
 10
0.0
 20
0.0
 30
0.0
210
0.0
220
0.0
230
1.0
  2
SOLID
 70
1
 71
0
 91
1
 92
3
 72
0
 73
1
 93
16
 10
130.8
 20
338.3
 10
130.73910362600904
 20
338.6061467458921
 10
130.56568542494924
 20
338.8656854249493
 10
130.30614674589208
 20
339.039103626009
 10
130.0
 20
339.1
 10
129.69385325410792
 20
339.039103626009
 10
129.43431457505076
 20
338.8656854249493
 10
129.26089637399096
 20
338.6061467458921
 10
129.2
 20
338.3
 10
129.26089637399096
 20
337.99385325410793
 10
129.43431457505076
 20
337.73431457505075
 10
129.69385325410792
 20
337.560896373991
 10
130.0
 20
337.5
 10
130.30614674589208
 20
337.560896373991
 10
130.56568542494924
 20
337.73431457505075
 10
130.73910362600904
 20
337.99385325410793
 97
0
 75
0
 76
1
 98
0
  0
CIRCLE
  5
E2
330
17
100
AcDbEntity
  8
S-REBAR-MAIN
100
AcDbCircle
 10
145.0
 20
338.3
 30
0.0
 40
0.8
  0
HATCH
  5
E3
330
17
100
AcDbEntity
  8
S-REBAR-MAIN
 62
1
100
AcDbHatch
 10
0.0
 20
0.0
 30
0.0
210
0.0
220
0.0
230
1.0
  2
SOLID
 70
1
 71
0
 91
1
 92
3
 72
0
 73
1
 93
16
 10
145.8
 20
338.3
 10
145.73910362600904
 20
338.6061467458921
 10
145.56568542494924
 20
338.8656854249493
 10
145.30614674589208
 20
339.039103626009
 10
145.0
 20
339.1
 10
144.69385325410792
 20
339.039103626009
 10
144.43431457505076
 20
338.8656854249493
 10
144.26089637399096
 20
338.6061467458921
 10
144.2
 20
338.3
 10
144.26089637399096
 20
337.99385325410793
 10
144.43431457505076
 20
337.73431457505075
 10
144.69385325410792
 20
337.560896373991
 10
145.0
 20
337.5
 10
145.30614674589208
 20
337.560896373991
 10
145.56568542494924
 20
337.73431457505075
 10
145.73910362600904
 20
337.99385325410793
 97
0
 75
0
 76
1
 98
0
  0
CIRCLE
  5
E4
330
17
100
AcDbEntity
  8
S-REBAR-MAIN
100
AcDbCircle
 10
160.0
 20
338.3
 30
0.0
 40
0.8
  0
HATCH
  5
E5
330
17
100
AcDbEntity
  8
S-REBAR-MAIN
 62
1
100
AcDbHatch
 10
0.0
 20
0.0
 30
0.0
210
0.0
220
0.0
230
1.0
  2
SOLID
 70
1
 71
0
 91
1
 92
3
 72
0
 73
1
 93
16
 10
160.8
 20
338.3
 10
160.73910362600904
 20
338.6061467458921
 10
160.56568542494924
 20
338.8656854249493
 10
160.30614674589208
 20
339.039103626009
 10
160.0
 20
339.1
 10
159.69385325410792
 20
339.039103626009
 10
159.43431457505076
 20
338.8656854249493
 10
159.26089637399096
 20
338.6061467458921
 10
159.2
 20
338.3
 10
159.26089637399096
 20
337.99385325410793
 10
159.43431457505076
 20
337.73431457505075
 10
159.69385325410792
 20
337.560896373991
 10
160.0
 20
337.5
 10
160.30614674589208
 20
337.560896373991
 10
160.56568542494924
 20
337.73431457505075
 10
160.73910362600904
 20
337.99385325410793
 97
0
 75
0
 76
1
 98
0
  0
CIRCLE
  5
E6
330
17
100
AcDbEntity
  8
S-REBAR-MAIN
100
AcDbCircle
 10
175.0
 20
338.3
 30
0.0
 40
0.8
  0
HATCH
  5
E7
330
17
100
AcDbEntity
  8
S-REBAR-MAIN
 62
1
100
AcDbHatch
 10
0.0
 20
0.0
 30
0.0
210
0.0
220
0.0
230
1.0
  2
SOLID
 70
1
 71
0
 91
1
 92
3
 72
0
 73
1
 93
16
 10
175.8
 20
338.3
 10
175.73910362600904
 20
338.6061467458921
 10
175.56568542494924
 20
338.8656854249493
 10
175.30614674589208
 20
339.039103626009
 10
175.0
 20
339.1
 10
174.69385325410792
 20
339.039103626009
 10
174.43431457505076
 20
338.8656854249493
 10
174.26089637399096
 20
338.6061467458921
 10
174.2
 20
338.3
 10
174.26089637399096
 20
337.99385325410793
 10
174.43431457505076
 20
337.73431457505075
 10
174.69385325410792
 20
337.560896373991
 10
175.0
 20
337.5
 10
175.30614674589208
 20
337.560896373991
 10
175.56568542494924
 20
337.73431457505075
 10
175.73910362600904
 20
337.99385325410793
 97
0
 75
0
 76
1
 98
0
  0
CIRCLE
  5
E8
330
17
100
AcDbEntity
  8
S-REBAR-MAIN
100
AcDbCircle
 10
190.0
 20
338.3
 30
0.0
 40
0.8
  0
HATCH
  5
E9
330
17
100
AcDbEntity
  8
S-REBAR-MAIN
 62
1
100
AcDbHatch
 10
0.0
 20
0.0
 30
0.0
210
0.0
220
0.0
230
1.0
  2
SOLID
 70
1
 71
0
 91
1
 92
3
 72
0
 73
1
 93
16
 10
190.8
 20
338.3
 10
190.73910362600904
 20
338.6061467458921
 10
190.56568542494924
 20
338.8656854249493
 10
190.30614674589208
 20
339.039103626009
 10
190.0
 20
339.1
 10
189.69385325410792
 20
339.039103626009
 10
189.43431457505076
 20
338.8656854249493
 10
189.26089637399096
 20
338.6061467458921
 10
189.2
 20
338.3
 10
189.26089637399096
 20
337.99385325410793
 10
189.43431457505076
 20
337.73431457505075
 10
189.69385325410792
 20
337.560896373991
 10
190.0
 20
337.5
 10
190.30614674589208
 20
337.560896373991
 10
190.56568542494924
 20
337.73431457505075
 10
190.73910362600904
 20
337.99385325410793
 97
0
 75
0
 76
1
 98
0
  0
CIRCLE
  5
EA
330
17
100
AcDbEntity
  8
S-REBAR-MAIN
100
AcDbCircle
 10
205.0
 20
338.3
 30
0.0
 40
0.8
  0
HATCH
  5
EB
330
17
100
AcDbEntity
  8
S-REBAR-MAIN
 62
1
100
AcDbHatch
 10
0.0
 20
0.0
 30
0.0
210
0.0
220
0.0
230
1.0
  2
SOLID
 70
1
 71
0
 91
1
 92
3
 72
0
 73
1
 93
16
 10
205.8
 20
338.3
 10
205.73910362600904
 20
338.6061467458921
 10
205.56568542494924
 20
338.8656854249493
 10
205.30614674589208
 20
339.039103626009
 10
205.0
 20
339.1
 10
204.69385325410792
 20
339.039103626009
 10
204.43431457505076
 20
338.8656854249493
 10
204.26089637399096
 20
338.6061467458921
 10
204.2
 20
338.3
 10
204.26089637399096
 20
337.99385325410793
 10
204.43431457505076
 20
337.73431457505075
 10
204.69385325410792
 20
337.560896373991
 10
205.0
 20
337.5
 10
205.30614674589208
 20
337.560896373991
 10
205.56568542494924
 20
337.73431457505075
 10
205.73910362600904
 20
337.99385325410793
 97
0
 75
0
 76
1
 98
0
  0
CIRCLE
  5
EC
330
17
100
AcDbEntity
  8
S-REBAR-MAIN
100
AcDbCircle
 10
220.0
 20
338.3
 30
0.0
 40
0.8
  0
HATCH
  5
ED
330
17
100
AcDbEntity
  8
S-REBAR-MAIN
 62
1
100
AcDbHatch
 10
0.0
 20
0.0
 30
0.0
210
0.0
220
0.0
230
1.0
  2
SOLID
 70
1
 71
0
 91
1
 92
3
 72
0
 73
1
 93
16
 10
220.8
 20
338.3
 10
220.73910362600904
 20
338.6061467458921
 10
220.56568542494924
 20
338.8656854249493
 10
220.30614674589208
 20
339.039103626009
 10
220.0
 20
339.1
 10
219.69385325410792
 20
339.039103626009
 10
219.43431457505076
 20
338.8656854249493
 10
219.26089637399096
 20
338.6061467458921
 10
219.2
 20
338.3
 10
219.26089637399096
 20
337.99385325410793
 10
219.43431457505076
 20
337.73431457505075
 10
219.69385325410792
 20
337.560896373991
 10
220.0
 20
337.5
 10
220.30614674589208
 20
337.560896373991
 10
220.56568542494924
 20
337.73431457505075
 10
220.73910362600904
 20
337.99385325410793
 97
0
 75
0
 76
1
 98
0
  0
CIRCLE
  5
EE
330
17
100
AcDbEntity
  8
S-REBAR-MAIN
100
AcDbCircle
 10
70.0
 20
385.2
 30
0.0
 40
0.8
  0
HATCH
  5
EF
330
17
100
AcDbEntity
  8
S-REBAR-MAIN
 62
1
100
AcDbHatch
 10
0.0
 20
0.0
 30
0.0
210
0.0
220
0.0
230
1.0
  2
SOLID
 70
1
 71
0
 91
1
 92
3
 72
0
 73
1
 93
16
 10
70.8
 20
385.2
 10
70.73910362600903
 20
385.50614674589207
 10
70.56568542494924
 20
385.76568542494925
 10
70.30614674589208
 20
385.939103626009
 10
70.0
 20
386.0
 10
69.69385325410792
 20
385.939103626009
 10
69.43431457505076
 20
385.76568542494925
 10
69.26089637399097
 20
385.50614674589207
 10
69.2
 20
385.2
 10
69.26089637399097
 20
384.8938532541079
 10
69.43431457505076
 20
384.6343145750507
 10
69.69385325410792
 20
384.460896373991
 10
70.0
 20
384.4
 10
70.30614674589208
 20
384.460896373991
 10
70.56568542494924
 20
384.6343145750507
 10
70.73910362600903
 20
384.8938532541079
 97
0
 75
0
 76
1
 98
0
  0
CIRCLE
  5
F0
330
17
100
AcDbEntity
  8
S-REBAR-MAIN
100
AcDbCircle
 10
85.0
 20
385.2
 30
0.0
 40
0.8
  0
HATCH
  5
F1
330
17
100
AcDbEntity
  8
S-REBAR-MAIN
 62
1
100
AcDbHatch
 10
0.0
 20
0.0
 30
0.0
210
0.0
220
0.0
230
1.0
  2
SOLID
 70
1
 71
0
 91
1
 92
3
 72
0
 73
1
 93
16
 10
85.8
 20
385.2
 10
85.73910362600903
 20
385.50614674589207
 10
85.56568542494924
 20
385.76568542494925
 10
85.30614674589208
 20
385.939103626009
 10
85.0
 20
386.0
 10
84.69385325410792
 20
385.939103626009
 10
84.43431457505076
 20
385.76568542494925
 10
84.26089637399097
 20
385.50614674589207
 10
84.2
 20
385.2
 10
84.26089637399097
 20
384.8938532541079
 10
84.43431457505076
 20
384.6343145750507
 10
84.69385325410792
 20
384.460896373991
 10
85.0
 20
384.4
 10
85.30614674589208
 20
384.460896373991
 10
85.56568542494924
 20
384.6343145750507
 10
85.73910362600903
 20
384.8938532541079
 97
0
 75
0
 76
1
 98
0
  0
CIRCLE
  5
F2
330
17
100
AcDbEntity
  8
S-REBAR-MAIN
100
AcDbCircle
 10
100.0
 20
385.2
 30
0.0
 40
0.8
  0
HATCH
  5
F3
330
17
100
AcDbEntity
  8
S-REBAR-MAIN
 62
1
100
AcDbHatch
 10
0.0
 20
0.0
 30
0.0
210
0.0
220
0.0
230
1.0
  2
SOLID
 70
1
 71
0
 91
1
 92
3
 72
0
 73
1
 93
16
 10
100.8
 20
385.2
 10
100.73910362600903
 20
385.50614674589207
 10
100.56568542494924
 20
385.76568542494925
 10
100.30614674589208
 20
385.939103626009
 10
100.0
 20
386.0
 10
99.69385325410792
 20
385.939103626009
 10
99.43431457505076
 20
385.76568542494925
 10
99.26089637399097
 20
385.50614674589207
 10
99.2
 20
385.2
 10
99.26089637399097
 20
384.8938532541079
 10
99.43431457505076
 20
384.6343145750507
 10
99.69385325410792
 20
384.460896373991
 10
100.0
 20
384.4
 10
100.30614674589208
 20
384.460896373991
 10
100.56568542494924
 20
384.6343145750507
 10
100.73910362600903
 20
384.8938532541079
 97
0
 75
0
 76
1
 98
0
  0
CIRCLE
  5
F4
330
17
100
AcDbEntity
  8
S-REBAR-MAIN
100
AcDbCircle
 10
115.0
 20
385.2
 30
0.0
 40
0.8
  0
HATCH
  5
F5
330
17
100
AcDbEntity
  8
S-REBAR-MAIN
 62
1
100
AcDbHatch
 10
0.0
 20
0.0
 30
0.0
210
0.0
220
0.0
230
1.0
  2
SOLID
 70
1
 71
0
 91
1
 92
3
 72
0
 73
1
 93
16
 10
115.8
 20
385.2
 10
115.73910362600903
 20
385.50614674589207
 10
115.56568542494924
 20
385.76568542494925
 10
115.30614674589208
 20
385.939103626009
 10
115.0
 20
386.0
 10
114.69385325410792
 20
385.939103626009
 10
114.43431457505076
 20
385.76568542494925
 10
114.26089637399097
 20
385.50614674589207
 10
114.2
 20
385.2
 10
114.26089637399097
 20
384.8938532541079
 10
114.43431457505076
 20
384.6343145750507
 10
114.69385325410792
 20
384.460896373991
 10
115.0
 20
384.4
 10
115.30614674589208
 20
384.460896373991
 10
115.56568542494924
 20
384.6343145750507
 10
115.73910362600903
 20
384.8938532541079
 97
0
 75
0
 76
1
 98
0
  0
CIRCLE
  5
F6
330
17
100
AcDbEntity
  8
S-REBAR-MAIN
100
AcDbCircle
 10
130.0
 20
385.2
 30
0.0
 40
0.8
  0
HATCH
  5
F7
330
17
100
AcDbEntity
  8
S-REBAR-MAIN
 62
1
100
AcDbHatch
 10
0.0
 20
0.0
 30
0.0
210
0.0
220
0.0
230
1.0
  2
SOLID
 70
1
 71
0
 91
1
 92
3
 72
0
 73
1
 93
16
 10
130.8
 20
385.2
 10
130.73910362600904
 20
385.50614674589207
 10
130.56568542494924
 20
385.76568542494925
 10
130.30614674589208
 20
385.939103626009
 10
130.0
 20
386.0
 10
129.69385325410792
 20
385.939103626009
 10
129.43431457505076
 20
385.76568542494925
 10
129.26089637399096
 20
385.50614674589207
 10
129.2
 20
385.2
 10
129.26089637399096
 20
384.8938532541079
 10
129.43431457505076
 20
384.6343145750507
 10
129.69385325410792
 20
384.460896373991
 10
130.0
 20
384.4
 10
130.30614674589208
 20
384.460896373991
 10
130.56568542494924
 20
384.6343145750507
 10
130.73910362600904
 20
384.8938532541079
 97
0
 75
0
 76
1
 98
0
  0
CIRCLE
  5
F8
330
17
100
AcDbEntity
  8
S-REBAR-MAIN
100
AcDbCircle
 10
145.0
 20
385.2
 30
0.0
 40
0.8
  0
HATCH
  5
F9
330
17
100
AcDbEntity
  8
S-REBAR-MAIN
 62
1
100
AcDbHatch
 10
0.0
 20
0.0
 30
0.0
210
0.0
220
0.0
230
1.0
  2
SOLID
 70
1
 71
0
 91
1
 92
3
 72
0
 73
1
 93
16
 10
145.8
 20
385.2
 10
145.73910362600904
 20
385.50614674589207
 10
145.56568542494924
 20
385.76568542494925
 10
145.30614674589208
 20
385.939103626009
 10
145.0
 20
386.0
 10
144.69385325410792
 20
385.939103626009
 10
144.43431457505076
 20
385.76568542494925
 10
144.26089637399096
 20
385.50614674589207
 10
144.2
 20
385.2
 10
144.26089637399096
 20
384.8938532541079
 10
144.43431457505076
 20
384.6343145750507
 10
144.69385325410792
 20
384.460896373991
 10
145.0
 20
384.4
 10
145.30614674589208
 20
384.460896373991
 10
145.56568542494924
 20
384.6343145750507
 10
145.73910362600904
 20
384.8938532541079
 97
0
 75
0
 76
1
 98
0
  0
CIRCLE
  5
FA
330
17
100
AcDbEntity
  8
S-REBAR-MAIN
100
AcDbCircle
 10
160.0
 20
385.2
 30
0.0
 40
0.8
  0
HATCH
  5
FB
330
17
100
AcDbEntity
  8
S-REBAR-MAIN
 62
1
100
AcDbHatch
 10
0.0
 20
0.0
 30
0.0
210
0.0
220
0.0
230
1.0
  2
SOLID
 70
1
 71
0
 91
1
 92
3
 72
0
 73
1
 93
16
 10
160.8
 20
385.2
 10
160.73910362600904
 20
385.50614674589207
 10
160.56568542494924
 20
385.76568542494925
 10
160.30614674589208
 20
385.939103626009
 10
160.0
 20
386.0
 10
159.69385325410792
 20
385.939103626009
 10
159.43431457505076
 20
385.76568542494925
 10
159.26089637399096
 20
385.50614674589207
 10
159.2
 20
385.2
 10
159.26089637399096
 20
384.8938532541079
 10
159.43431457505076
 20
384.6343145750507
 10
159.69385325410792
 20
384.460896373991
 10
160.0
 20
384.4
 10
160.30614674589208
 20
384.460896373991
 10
160.56568542494924
 20
384.6343145750507
 10
160.73910362600904
 20
384.8938532541079
 97
0
 75
0
 76
1
 98
0
  0
CIRCLE
  5
FC
330
17
100
AcDbEntity
  8
S-REBAR-MAIN
100
AcDbCircle
 10
175.0
 20
385.2
 30
0.0
 40
0.8
  0
HATCH
  5
FD
330
17
100
AcDbEntity
  8
S-REBAR-MAIN
 62
1
100
AcDbHatch
 10
0.0
 20
0.0
 30
0.0
210
0.0
220
0.0
230
1.0
  2
SOLID
 70
1
 71
0
 91
1
 92
3
 72
0
 73
1
 93
16
 10
175.8
 20
385.2
 10
175.73910362600904
 20
385.50614674589207
 10
175.56568542494924
 20
385.76568542494925
 10
175.30614674589208
 20
385.939103626009
 10
175.0
 20
386.0
 10
174.69385325410792
 20
385.939103626009
 10
174.43431457505076
 20
385.76568542494925
 10
174.26089637399096
 20
385.50614674589207
 10
174.2
 20
385.2
 10
174.26089637399096
 20
384.8938532541079
 10
174.43431457505076
 20
384.6343145750507
 10
174.69385325410792
 20
384.460896373991
 10
175.0
 20
384.4
 10
175.30614674589208
 20
384.460896373991
 10
175.56568542494924
 20
384.6343145750507
 10
175.73910362600904
 20
384.8938532541079
 97
0
 75
0
 76
1
 98
0
  0
CIRCLE
  5
FE
330
17
100
AcDbEntity
  8
S-REBAR-MAIN
100
AcDbCircle
 10
190.0
 20
385.2
 30
0.0
 40
0.8
  0
HATCH
  5
FF
330
17
100
AcDbEntity
  8
S-REBAR-MAIN
 62
1
100
AcDbHatch
 10
0.0
 20
0.0
 30
0.0
210
0.0
220
0.0
230
1.0
  2
SOLID
 70
1
 71
0
 91
1
 92
3
 72
0
 73
1
 93
16
 10
190.8
 20
385.2
 10
190.73910362600904
 20
385.50614674589207
 10
190.56568542494924
 20
385.76568542494925
 10
190.30614674589208
 20
385.939103626009
 10
190.0
 20
386.0
 10
189.69385325410792
 20
385.939103626009
 10
189.43431457505076
 20
385.76568542494925
 10
189.26089637399096
 20
385.50614674589207
 10
189.2
 20
385.2
 10
189.26089637399096
 20
384.8938532541079
 10
189.43431457505076
 20
384.6343145750507
 10
189.69385325410792
 20
384.460896373991
 10
190.0
 20
384.4
 10
190.30614674589208
 20
384.460896373991
 10
190.56568542494924
 20
384.6343145750507
 10
190.73910362600904
 20
384.8938532541079
 97
0
 75
0
 76
1
 98
0
  0
CIRCLE
  5
100
330
17
100
AcDbEntity
  8
S-REBAR-MAIN
100
AcDbCircle
 10
205.0
 20
385.2
 30
0.0
 40
0.8
  0
HATCH
  5
101
330
17
100
AcDbEntity
  8
S-REBAR-MAIN
 62
1
100
AcDbHatch
 10
0.0
 20
0.0
 30
0.0
210
0.0
220
0.0
230
1.0
  2
SOLID
 70
1
 71
0
 91
1
 92
3
 72
0
 73
1
 93
16
 10
205.8
 20
385.2
 10
205.73910362600904
 20
385.50614674589207
 10
205.56568542494924
 20
385.76568542494925
 10
205.30614674589208
 20
385.939103626009
 10
205.0
 20
386.0
 10
204.69385325410792
 20
385.939103626009
 10
204.43431457505076
 20
385.76568542494925
 10
204.26089637399096
 20
385.50614674589207
 10
204.2
 20
385.2
 10
204.26089637399096
 20
384.8938532541079
 10
204.43431457505076
 20
384.6343145750507
 10
204.69385325410792
 20
384.460896373991
 10
205.0
 20
384.4
 10
205.30614674589208
 20
384.460896373991
 10
205.56568542494924
 20
384.6343145750507
 10
205.73910362600904
 20
384.8938532541079
 97
0
 75
0
 76
1
 98
0
  0
CIRCLE
  5
102
330
17
100
AcDbEntity
  8
S-REBAR-MAIN
100
AcDbCircle
 10
220.0
 20
385.2
 30
0.0
 40
0.8
  0
HATCH
  5
103
330
17
100
AcDbEntity
  8
S-REBAR-MAIN
 62
1
100
AcDbHatch
 10
0.0
 20
0.0
 30
0.0
210
0.0
220
0.0
230
1.0
  2
SOLID
 70
1
 71
0
 91
1
 92
3
 72
0
 73
1
 93
16
 10
220.8
 20
385.2
 10
220.73910362600904
 20
385.50614674589207
 10
220.56568542494924
 20
385.76568542494925
 10
220.30614674589208
 20
385.939103626009
 10
220.0
 20
386.0
 10
219.69385325410792
 20
385.939103626009
 10
219.43431457505076
 20
385.76568542494925
 10
219.26089637399096
 20
385.50614674589207
 10
219.2
 20
385.2
 10
219.26089637399096
 20
384.8938532541079
 10
219.43431457505076
 20
384.6343145750507
 10
219.69385325410792
 20
384.460896373991
 10
220.0
 20
384.4
 10
220.30614674589208
 20
384.460896373991
 10
220.56568542494924
 20
384.6343145750507
 10
220.73910362600904
 20
384.8938532541079
 97
0
 75
0
 76
1
 98
0
  0
DIMENSION
  5
104
330
17
100
AcDbEntity
  8
S-DIM
100
AcDbDimension
280
0
  2
*D1
  3
SC-DIM
 10
63.3
 20
312.0
 30
0.0
 11
108.30000000000001
 21
313.7
 31
0.0
 70
32
 71
5
  1
<>
100
AcDbAlignedDimension
 13
63.3
 23
338.3
 33
0.0
 14
153.3
 24
338.3
 34
0.0
 50
0.0
100
AcDbRotatedDimension
1001
ACAD
1000
DSTYLE
1002
{
1070
144
1040
10.0
1002
}
  0
TEXT
  5
113
330
17
100
AcDbEntity
  8
S-TEXT
100
AcDbText
 10
75.0
 20
298.0
 30
0.0
 40
1.4
  1
900 HORIZONTAL LEG
  7
OpenSans
 11
75.0
 21
298.0
 31
0.0
100
AcDbText
  0
DIMENSION
  5
114
330
17
100
AcDbEntity
  8
S-DIM
100
AcDbDimension
280
0
  2
*D2
  3
SC-DIM
 10
155.0
 20
405.0
 30
0.0
 11
153.3
 21
445.0
 31
0.0
 70
32
 71
5
  1
<>
100
AcDbAlignedDimension
 13
115.0
 23
405.0
 33
0.0
 14
115.0
 24
485.0
 34
0.0
 50
90.0
100
AcDbRotatedDimension
1001
ACAD
1000
DSTYLE
1002
{
1070
144
1040
10.0
1002
}
  0
TEXT
  5
123
330
17
100
AcDbEntity
  8
S-TEXT
100
AcDbText
 10
165.0
 20
440.0
 30
0.0
 40
1.4
  1
LAP 800 = 50 phi
  7
OpenSans
 11
165.0
 21
440.0
 31
0.0
100
AcDbText
  0
TEXT
  5
124
330
17
100
AcDbEntity
  8
S-TEXT
100
AcDbText
 10
125.0
 20
396.0
 30
0.0
 40
1.4
  1
150 KICKER
  7
OpenSans
 11
125.0
 21
396.0
 31
0.0
100
AcDbText
  0
INSERT
  5
125
330
17
100
AcDbEntity
  8
S-CALLOUT
100
AcDbBlockReference
  2
BARMARK
 10
150.0
 20
300.0
 30
0.0
  0
TEXT
  5
127
330
17
100
AcDbEntity
  8
S-CALLOUT
100
AcDbText
 10
150.0
 20
300.0
 30
0.0
 40
2.0
  1
F07
  7
OpenSans
 72
1
 11
150.0
 21
300.0
 31
0.0
100
AcDbText
 73
2
  0
LEADER
  5
128
330
17
100
AcDbEntity
  8
S-CALLOUT
100
AcDbLeader
  3
SC-DIM
 73
3
 76
2
 10
85.0
 20
420.0
 30
0.0
 10
150.0
 20
300.0
 30
0.0
  0
TEXT
  5
129
330
17
100
AcDbEntity
  8
S-CALLOUT
100
AcDbText
 10
154.6
 20
299.3
 30
0.0
 40
1.8
  1
T16 @ 150 EACH FACE
  7
OpenSans
 11
154.6
 21
299.3
 31
0.0
100
AcDbText
  0
TEXT
  5
12A
330
17
100
AcDbEntity
  8
S-TITLE
100
AcDbText
 10
55.0
 20
548.0
 30
0.0
 40
3.5
  1
D1   PERIMETER WALL STARTER AND KICKER
  7
OpenSans
 11
55.0
 21
548.0
 31
0.0
100
AcDbText
  0
LINE
  5
12B
330
17
100
AcDbEntity
  8
S-TITLE
100
AcDbLine
 10
55.0
 20
546.2
 30
0.0
 11
162.88345612860013
 21
546.2
 31
0.0
  0
TEXT
  5
12C
330
17
100
AcDbEntity
  8
S-TEXT
100
AcDbText
 10
55.0
 20
540.8
 30
0.0
 40
2.0
  1
SCALE 1:10
  7
OpenSans
 11
55.0
 21
540.8
 31
0.0
100
AcDbText
  0
LWPOLYLINE
  5
12D
330
17
100
AcDbEntity
  8
S-CONCRETE
100
AcDbPolyline
 90
4
 70
1
 10
250.0
 20
330.0
 10
410.0
 20
330.0
 10
410.0
 20
390.0
 10
250.0
 20
390.0
  0
LWPOLYLINE
  5
12E
330
17
100
AcDbEntity
  8
S-CONCRETE
100
AcDbPolyline
 90
4
 70
1
 10
250.0
 20
390.0
 10
310.0
 20
390.0
 10
310.0
 20
510.0
 10
250.0
 20
510.0
  0
LWPOLYLINE
  5
12F
330
17
100
AcDbEntity
  8
S-CONCRETE
100
AcDbPolyline
 90
3
 70
0
 10
310.0
 20
390.0
 10
360.0
 20
390.0
 10
310.0
 20
440.0
  0
HATCH
  5
130
330
17
100
AcDbEntity
  8
S-HATCH
 62
7
100
AcDbHatch
 10
0.0
 20
0.0
 30
0.0
210
0.0
220
0.0
230
1.0
  2
ANSI31
 70
0
 71
0
 91
1
 92
3
 72
0
 73
1
 93
4
 10
250.0
 20
330.0
 10
410.0
 20
330.0
 10
410.0
 20
390.0
 10
250.0
 20
390.0
 97
0
 75
1
 76
1
 52
0.0
 41
1.6
 77
0
 78
1
 53
45.0
 43
0.0
 44
0.0
 45
-3.5921024485
 46
3.5921024485
 79
0
 98
0
  0
HATCH
  5
131
330
17
100
AcDbEntity
  8
S-HATCH
 62
7
100
AcDbHatch
 10
0.0
 20
0.0
 30
0.0
210
0.0
220
0.0
230
1.0
  2
ANSI31
 70
0
 71
0
 91
1
 92
3
 72
0
 73
1
 93
4
 10
250.0
 20
390.0
 10
310.0
 20
390.0
 10
310.0
 20
510.0
 10
250.0
 20
510.0
 97
0
 75
1
 76
1
 52
0.0
 41
1.6
 77
0
 78
1
 53
45.0
 43
0.0
 44
0.0
 45
-3.5921024485
 46
3.5921024485
 79
0
 98
0
  0
HATCH
  5
132
330
17
100
AcDbEntity
  8
S-HATCH
 62
7
100
AcDbHatch
 10
0.0
 20
0.0
 30
0.0
210
0.0
220
0.0
230
1.0
  2
ANSI31
 70
0
 71
0
 91
1
 92
3
 72
0
 73
1
 93
3
 10
310.0
 20
390.0
 10
360.0
 20
390.0
 10
310.0
 20
440.0
 97
0
 75
1
 76
1
 52
0.0
 41
1.6
 77
0
 78
1
 53
45.0
 43
0.0
 44
0.0
 45
-3.5921024485
 46
3.5921024485
 79
0
 98
0
  0
LINE
  5
133
330
17
100
AcDbEntity
  8
S-REBAR-SEC
100
AcDbLine
 10
310.0
 20
384.0
 30
0.0
 11
304.0
 21
390.0
 31
0.0
  0
LINE
  5
134
330
17
100
AcDbEntity
  8
S-REBAR-SEC
100
AcDbLine
 10
325.0
 20
384.0
 30
0.0
 11
304.0
 21
405.0
 31
0.0
  0
LINE
  5
135
330
17
100
AcDbEntity
  8
S-REBAR-SEC
100
AcDbLine
 10
340.0
 20
384.0
 30
0.0
 11
304.0
 21
420.0
 31
0.0
  0
LINE
  5
136
330
17
100
AcDbEntity
  8
S-REBAR-SEC
100
AcDbLine
 10
355.0
 20
384.0
 30
0.0
 11
304.0
 21
435.0
 31
0.0
  0
CIRCLE
  5
137
330
17
100
AcDbEntity
  8
S-REBAR-MAIN
100
AcDbCircle
 10
265.0
 20
385.2
 30
0.0
 40
0.8
  0
HATCH
  5
138
330
17
100
AcDbEntity
  8
S-REBAR-MAIN
 62
1
100
AcDbHatch
 10
0.0
 20
0.0
 30
0.0
210
0.0
220
0.0
230
1.0
  2
SOLID
 70
1
 71
0
 91
1
 92
3
 72
0
 73
1
 93
16
 10
265.8
 20
385.2
 10
265.739103626009
 20
385.50614674589207
 10
265.56568542494927
 20
385.76568542494925
 10
265.3061467458921
 20
385.939103626009
 10
265.0
 20
386.0
 10
264.6938532541079
 20
385.939103626009
 10
264.43431457505073
 20
385.76568542494925
 10
264.260896373991
 20
385.50614674589207
 10
264.2
 20
385.2
 10
264.260896373991
 20
384.8938532541079
 10
264.43431457505073
 20
384.6343145750507
 10
264.6938532541079
 20
384.460896373991
 10
265.0
 20
384.4
 10
265.3061467458921
 20
384.460896373991
 10
265.56568542494927
 20
384.6343145750507
 10
265.739103626009
 20
384.8938532541079
 97
0
 75
0
 76
1
 98
0
  0
CIRCLE
  5
139
330
17
100
AcDbEntity
  8
S-REBAR-MAIN
100
AcDbCircle
 10
280.0
 20
385.2
 30
0.0
 40
0.8
  0
HATCH
  5
13A
330
17
100
AcDbEntity
  8
S-REBAR-MAIN
 62
1
100
AcDbHatch
 10
0.0
 20
0.0
 30
0.0
210
0.0
220
0.0
230
1.0
  2
SOLID
 70
1
 71
0
 91
1
 92
3
 72
0
 73
1
 93
16
 10
280.8
 20
385.2
 10
280.739103626009
 20
385.50614674589207
 10
280.56568542494927
 20
385.76568542494925
 10
280.3061467458921
 20
385.939103626009
 10
280.0
 20
386.0
 10
279.6938532541079
 20
385.939103626009
 10
279.43431457505073
 20
385.76568542494925
 10
279.260896373991
 20
385.50614674589207
 10
279.2
 20
385.2
 10
279.260896373991
 20
384.8938532541079
 10
279.43431457505073
 20
384.6343145750507
 10
279.6938532541079
 20
384.460896373991
 10
280.0
 20
384.4
 10
280.3061467458921
 20
384.460896373991
 10
280.56568542494927
 20
384.6343145750507
 10
280.739103626009
 20
384.8938532541079
 97
0
 75
0
 76
1
 98
0
  0
CIRCLE
  5
13B
330
17
100
AcDbEntity
  8
S-REBAR-MAIN
100
AcDbCircle
 10
295.0
 20
385.2
 30
0.0
 40
0.8
  0
HATCH
  5
13C
330
17
100
AcDbEntity
  8
S-REBAR-MAIN
 62
1
100
AcDbHatch
 10
0.0
 20
0.0
 30
0.0
210
0.0
220
0.0
230
1.0
  2
SOLID
 70
1
 71
0
 91
1
 92
3
 72
0
 73
1
 93
16
 10
295.8
 20
385.2
 10
295.739103626009
 20
385.50614674589207
 10
295.56568542494927
 20
385.76568542494925
 10
295.3061467458921
 20
385.939103626009
 10
295.0
 20
386.0
 10
294.6938532541079
 20
385.939103626009
 10
294.43431457505073
 20
385.76568542494925
 10
294.260896373991
 20
385.50614674589207
 10
294.2
 20
385.2
 10
294.260896373991
 20
384.8938532541079
 10
294.43431457505073
 20
384.6343145750507
 10
294.6938532541079
 20
384.460896373991
 10
295.0
 20
384.4
 10
295.3061467458921
 20
384.460896373991
 10
295.56568542494927
 20
384.6343145750507
 10
295.739103626009
 20
384.8938532541079
 97
0
 75
0
 76
1
 98
0
  0
CIRCLE
  5
13D
330
17
100
AcDbEntity
  8
S-REBAR-MAIN
100
AcDbCircle
 10
310.0
 20
385.2
 30
0.0
 40
0.8
  0
HATCH
  5
13E
330
17
100
AcDbEntity
  8
S-REBAR-MAIN
 62
1
100
AcDbHatch
 10
0.0
 20
0.0
 30
0.0
210
0.0
220
0.0
230
1.0
  2
SOLID
 70
1
 71
0
 91
1
 92
3
 72
0
 73
1
 93
16
 10
310.8
 20
385.2
 10
310.739103626009
 20
385.50614674589207
 10
310.56568542494927
 20
385.76568542494925
 10
310.3061467458921
 20
385.939103626009
 10
310.0
 20
386.0
 10
309.6938532541079
 20
385.939103626009
 10
309.43431457505073
 20
385.76568542494925
 10
309.260896373991
 20
385.50614674589207
 10
309.2
 20
385.2
 10
309.260896373991
 20
384.8938532541079
 10
309.43431457505073
 20
384.6343145750507
 10
309.6938532541079
 20
384.460896373991
 10
310.0
 20
384.4
 10
310.3061467458921
 20
384.460896373991
 10
310.56568542494927
 20
384.6343145750507
 10
310.739103626009
 20
384.8938532541079
 97
0
 75
0
 76
1
 98
0
  0
CIRCLE
  5
13F
330
17
100
AcDbEntity
  8
S-REBAR-MAIN
100
AcDbCircle
 10
325.0
 20
385.2
 30
0.0
 40
0.8
  0
HATCH
  5
140
330
17
100
AcDbEntity
  8
S-REBAR-MAIN
 62
1
100
AcDbHatch
 10
0.0
 20
0.0
 30
0.0
210
0.0
220
0.0
230
1.0
  2
SOLID
 70
1
 71
0
 91
1
 92
3
 72
0
 73
1
 93
16
 10
325.8
 20
385.2
 10
325.739103626009
 20
385.50614674589207
 10
325.56568542494927
 20
385.76568542494925
 10
325.3061467458921
 20
385.939103626009
 10
325.0
 20
386.0
 10
324.6938532541079
 20
385.939103626009
 10
324.43431457505073
 20
385.76568542494925
 10
324.260896373991
 20
385.50614674589207
 10
324.2
 20
385.2
 10
324.260896373991
 20
384.8938532541079
 10
324.43431457505073
 20
384.6343145750507
 10
324.6938532541079
 20
384.460896373991
 10
325.0
 20
384.4
 10
325.3061467458921
 20
384.460896373991
 10
325.56568542494927
 20
384.6343145750507
 10
325.739103626009
 20
384.8938532541079
 97
0
 75
0
 76
1
 98
0
  0
CIRCLE
  5
141
330
17
100
AcDbEntity
  8
S-REBAR-MAIN
100
AcDbCircle
 10
340.0
 20
385.2
 30
0.0
 40
0.8
  0
HATCH
  5
142
330
17
100
AcDbEntity
  8
S-REBAR-MAIN
 62
1
100
AcDbHatch
 10
0.0
 20
0.0
 30
0.0
210
0.0
220
0.0
230
1.0
  2
SOLID
 70
1
 71
0
 91
1
 92
3
 72
0
 73
1
 93
16
 10
340.8
 20
385.2
 10
340.739103626009
 20
385.50614674589207
 10
340.56568542494927
 20
385.76568542494925
 10
340.3061467458921
 20
385.939103626009
 10
340.0
 20
386.0
 10
339.6938532541079
 20
385.939103626009
 10
339.43431457505073
 20
385.76568542494925
 10
339.260896373991
 20
385.50614674589207
 10
339.2
 20
385.2
 10
339.260896373991
 20
384.8938532541079
 10
339.43431457505073
 20
384.6343145750507
 10
339.6938532541079
 20
384.460896373991
 10
340.0
 20
384.4
 10
340.3061467458921
 20
384.460896373991
 10
340.56568542494927
 20
384.6343145750507
 10
340.739103626009
 20
384.8938532541079
 97
0
 75
0
 76
1
 98
0
  0
CIRCLE
  5
143
330
17
100
AcDbEntity
  8
S-REBAR-MAIN
100
AcDbCircle
 10
355.0
 20
385.2
 30
0.0
 40
0.8
  0
HATCH
  5
144
330
17
100
AcDbEntity
  8
S-REBAR-MAIN
 62
1
100
AcDbHatch
 10
0.0
 20
0.0
 30
0.0
210
0.0
220
0.0
230
1.0
  2
SOLID
 70
1
 71
0
 91
1
 92
3
 72
0
 73
1
 93
16
 10
355.8
 20
385.2
 10
355.739103626009
 20
385.50614674589207
 10
355.56568542494927
 20
385.76568542494925
 10
355.3061467458921
 20
385.939103626009
 10
355.0
 20
386.0
 10
354.6938532541079
 20
385.939103626009
 10
354.43431457505073
 20
385.76568542494925
 10
354.260896373991
 20
385.50614674589207
 10
354.2
 20
385.2
 10
354.260896373991
 20
384.8938532541079
 10
354.43431457505073
 20
384.6343145750507
 10
354.6938532541079
 20
384.460896373991
 10
355.0
 20
384.4
 10
355.3061467458921
 20
384.460896373991
 10
355.56568542494927
 20
384.6343145750507
 10
355.739103626009
 20
384.8938532541079
 97
0
 75
0
 76
1
 98
0
  0
CIRCLE
  5
145
330
17
100
AcDbEntity
  8
S-REBAR-MAIN
100
AcDbCircle
 10
370.0
 20
385.2
 30
0.0
 40
0.8
  0
HATCH
  5
146
330
17
100
AcDbEntity
  8
S-REBAR-MAIN
 62
1
100
AcDbHatch
 10
0.0
 20
0.0
 30
0.0
210
0.0
220
0.0
230
1.0
  2
SOLID
 70
1
 71
0
 91
1
 92
3
 72
0
 73
1
 93
16
 10
370.8
 20
385.2
 10
370.739103626009
 20
385.50614674589207
 10
370.56568542494927
 20
385.76568542494925
 10
370.3061467458921
 20
385.939103626009
 10
370.0
 20
386.0
 10
369.6938532541079
 20
385.939103626009
 10
369.43431457505073
 20
385.76568542494925
 10
369.260896373991
 20
385.50614674589207
 10
369.2
 20
385.2
 10
369.260896373991
 20
384.8938532541079
 10
369.43431457505073
 20
384.6343145750507
 10
369.6938532541079
 20
384.460896373991
 10
370.0
 20
384.4
 10
370.3061467458921
 20
384.460896373991
 10
370.56568542494927
 20
384.6343145750507
 10
370.739103626009
 20
384.8938532541079
 97
0
 75
0
 76
1
 98
0
  0
CIRCLE
  5
147
330
17
100
AcDbEntity
  8
S-REBAR-MAIN
100
AcDbCircle
 10
385.0
 20
385.2
 30
0.0
 40
0.8
  0
HATCH
  5
148
330
17
100
AcDbEntity
  8
S-REBAR-MAIN
 62
1
100
AcDbHatch
 10
0.0
 20
0.0
 30
0.0
210
0.0
220
0.0
230
1.0
  2
SOLID
 70
1
 71
0
 91
1
 92
3
 72
0
 73
1
 93
16
 10
385.8
 20
385.2
 10
385.739103626009
 20
385.50614674589207
 10
385.56568542494927
 20
385.76568542494925
 10
385.3061467458921
 20
385.939103626009
 10
385.0
 20
386.0
 10
384.6938532541079
 20
385.939103626009
 10
384.43431457505073
 20
385.76568542494925
 10
384.260896373991
 20
385.50614674589207
 10
384.2
 20
385.2
 10
384.260896373991
 20
384.8938532541079
 10
384.43431457505073
 20
384.6343145750507
 10
384.6938532541079
 20
384.460896373991
 10
385.0
 20
384.4
 10
385.3061467458921
 20
384.460896373991
 10
385.56568542494927
 20
384.6343145750507
 10
385.739103626009
 20
384.8938532541079
 97
0
 75
0
 76
1
 98
0
  0
CIRCLE
  5
149
330
17
100
AcDbEntity
  8
S-REBAR-MAIN
100
AcDbCircle
 10
400.0
 20
385.2
 30
0.0
 40
0.8
  0
HATCH
  5
14A
330
17
100
AcDbEntity
  8
S-REBAR-MAIN
 62
1
100
AcDbHatch
 10
0.0
 20
0.0
 30
0.0
210
0.0
220
0.0
230
1.0
  2
SOLID
 70
1
 71
0
 91
1
 92
3
 72
0
 73
1
 93
16
 10
400.8
 20
385.2
 10
400.739103626009
 20
385.50614674589207
 10
400.56568542494927
 20
385.76568542494925
 10
400.3061467458921
 20
385.939103626009
 10
400.0
 20
386.0
 10
399.6938532541079
 20
385.939103626009
 10
399.43431457505073
 20
385.76568542494925
 10
399.260896373991
 20
385.50614674589207
 10
399.2
 20
385.2
 10
399.260896373991
 20
384.8938532541079
 10
399.43431457505073
 20
384.6343145750507
 10
399.6938532541079
 20
384.460896373991
 10
400.0
 20
384.4
 10
400.3061467458921
 20
384.460896373991
 10
400.56568542494927
 20
384.6343145750507
 10
400.739103626009
 20
384.8938532541079
 97
0
 75
0
 76
1
 98
0
  0
LINE
  5
14B
330
17
100
AcDbEntity
  8
S-REBAR-MAIN
100
AcDbLine
 10
258.3
 20
400.0
 30
0.0
 11
258.3
 21
510.0
 31
0.0
  0
LINE
  5
14C
330
17
100
AcDbEntity
  8
S-REBAR-MAIN
100
AcDbLine
 10
301.7
 20
400.0
 30
0.0
 11
301.7
 21
510.0
 31
0.0
  0
DIMENSION
  5
14D
330
17
100
AcDbEntity
  8
S-DIM
100
AcDbDimension
280
0
  2
*D3
  3
SC-DIM
 10
310.0
 20
312.0
 30
0.0
 11
335.0
 21
313.7
 31
0.0
 70
32
 71
5
  1
<>
100
AcDbAlignedDimension
 13
310.0
 23
390.0
 33
0.0
 14
360.0
 24
390.0
 34
0.0
 50
0.0
100
AcDbRotatedDimension
1001
ACAD
1000
DSTYLE
1002
{
1070
144
1040
10.0
1002
}
  0
DIMENSION
  5
15C
330
17
100
AcDbEntity
  8
S-DIM
100
AcDbDimension
280
0
  2
*D4
  3
SC-DIM
 10
390.0
 20
390.0
 30
0.0
 11
388.3
 21
415.0
 31
0.0
 70
32
 71
5
  1
<>
100
AcDbAlignedDimension
 13
380.0
 23
390.0
 33
0.0
 14
380.0
 24
440.0
 34
0.0
 50
90.0
100
AcDbRotatedDimension
1001
ACAD
1000
DSTYLE
1002
{
1070
144
1040
10.0
1002
}
  0
INSERT
  5
16B
330
17
100
AcDbEntity
  8
S-CALLOUT
100
AcDbBlockReference
  2
BARMARK
 10
330.0
 20
300.0
 30
0.0
  0
TEXT
  5
16D
330
17
100
AcDbEntity
  8
S-CALLOUT
100
AcDbText
 10
330.0
 20
300.0
 30
0.0
 40
2.0
  1
W06
  7
OpenSans
 72
1
 11
330.0
 21
300.0
 31
0.0
100
AcDbText
 73
2
  0
LEADER
  5
16E
330
17
100
AcDbEntity
  8
S-CALLOUT
100
AcDbLeader
  3
SC-DIM
 73
3
 76
2
 10
330.0
 20
410.0
 30
0.0
 10
330.0
 20
300.0
 30
0.0
  0
TEXT
  5
16F
330
17
100
AcDbEntity
  8
S-CALLOUT
100
AcDbText
 10
334.6
 20
299.3
 30
0.0
 40
1.8
  1
T20 @ 150 DIAGONALS
  7
OpenSans
 11
334.6
 21
299.3
 31
0.0
100
AcDbText
  0
TEXT
  5
170
330
17
100
AcDbEntity
  8
S-TITLE
100
AcDbText
 10
250.0
 20
548.0
 30
0.0
 40
3.5
  1
D2   500 x 500 HAUNCH - WALL / MAT AND WALL / ROOF
  7
OpenSans
 11
250.0
 21
548.0
 31
0.0
100
AcDbText
  0
LINE
  5
171
330
17
100
AcDbEntity
  8
S-TITLE
100
AcDbLine
 10
250.0
 20
546.2
 30
0.0
 11
386.565639651708
 21
546.2
 31
0.0
  0
TEXT
  5
172
330
17
100
AcDbEntity
  8
S-TEXT
100
AcDbText
 10
250.0
 20
540.8
 30
0.0
 40
2.0
  1
SCALE 1:10
  7
OpenSans
 11
250.0
 21
540.8
 31
0.0
100
AcDbText
  0
LWPOLYLINE
  5
173
330
17
100
AcDbEntity
  8
S-CONCRETE
100
AcDbPolyline
 90
4
 70
1
 10
440.0
 20
330.0
 10
600.0
 20
330.0
 10
600.0
 20
390.0
 10
440.0
 20
390.0
  0
LWPOLYLINE
  5
174
330
17
100
AcDbEntity
  8
S-CONCRETE
100
AcDbPolyline
 90
4
 70
1
 10
490.0
 20
390.0
 10
530.0
 20
390.0
 10
530.0
 20
510.0
 10
490.0
 20
510.0
  0
HATCH
  5
175
330
17
100
AcDbEntity
  8
S-HATCH
 62
7
100
AcDbHatch
 10
0.0
 20
0.0
 30
0.0
210
0.0
220
0.0
230
1.0
  2
ANSI31
 70
0
 71
0
 91
1
 92
3
 72
0
 73
1
 93
4
 10
440.0
 20
330.0
 10
600.0
 20
330.0
 10
600.0
 20
390.0
 10
440.0
 20
390.0
 97
0
 75
1
 76
1
 52
0.0
 41
1.6
 77
0
 78
1
 53
45.0
 43
0.0
 44
0.0
 45
-3.5921024485
 46
3.5921024485
 79
0
 98
0
  0
HATCH
  5
176
330
17
100
AcDbEntity
  8
S-HATCH
 62
7
100
AcDbHatch
 10
0.0
 20
0.0
 30
0.0
210
0.0
220
0.0
230
1.0
  2
ANSI31
 70
0
 71
0
 91
1
 92
3
 72
0
 73
1
 93
4
 10
490.0
 20
390.0
 10
530.0
 20
390.0
 10
530.0
 20
510.0
 10
490.0
 20
510.0
 97
0
 75
1
 76
1
 52
0.0
 41
1.6
 77
0
 78
1
 53
45.0
 43
0.0
 44
0.0
 45
-3.5921024485
 46
3.5921024485
 79
0
 98
0
  0
LWPOLYLINE
  5
177
330
17
100
AcDbEntity
  8
S-REBAR-TIE
100
AcDbPolyline
 90
3
 70
0
 10
405.8
 20
338.3
 10
495.8
 20
338.3
 10
495.8
 20
505.0
  0
LINE
  5
178
330
17
100
AcDbEntity
  8
S-REBAR-MAIN
100
AcDbLine
 10
495.8
 20
405.0
 30
0.0
 11
495.8
 21
510.0
 31
0.0
  0
LWPOLYLINE
  5
179
330
17
100
AcDbEntity
  8
S-REBAR-TIE
100
AcDbPolyline
 90
3
 70
0
 10
614.2
 20
338.3
 10
524.2
 20
338.3
 10
524.2
 20
505.0
  0
LINE
  5
17A
330
17
100
AcDbEntity
  8
S-REBAR-MAIN
100
AcDbLine
 10
524.2
 20
405.0
 30
0.0
 11
524.2
 21
510.0
 31
0.0
  0
CIRCLE
  5
17B
330
17
100
AcDbEntity
  8
S-REBAR-MAIN
100
AcDbCircle
 10
455.0
 20
338.3
 30
0.0
 40
0.8
  0
HATCH
  5
17C
330
17
100
AcDbEntity
  8
S-REBAR-MAIN
 62
1
100
AcDbHatch
 10
0.0
 20
0.0
 30
0.0
210
0.0
220
0.0
230
1.0
  2
SOLID
 70
1
 71
0
 91
1
 92
3
 72
0
 73
1
 93
16
 10
455.8
 20
338.3
 10
455.739103626009
 20
338.6061467458921
 10
455.56568542494927
 20
338.8656854249493
 10
455.3061467458921
 20
339.039103626009
 10
455.0
 20
339.1
 10
454.6938532541079
 20
339.039103626009
 10
454.43431457505073
 20
338.8656854249493
 10
454.260896373991
 20
338.6061467458921
 10
454.2
 20
338.3
 10
454.260896373991
 20
337.99385325410793
 10
454.43431457505073
 20
337.73431457505075
 10
454.6938532541079
 20
337.560896373991
 10
455.0
 20
337.5
 10
455.3061467458921
 20
337.560896373991
 10
455.56568542494927
 20
337.73431457505075
 10
455.739103626009
 20
337.99385325410793
 97
0
 75
0
 76
1
 98
0
  0
CIRCLE
  5
17D
330
17
100
AcDbEntity
  8
S-REBAR-MAIN
100
AcDbCircle
 10
470.0
 20
338.3
 30
0.0
 40
0.8
  0
HATCH
  5
17E
330
17
100
AcDbEntity
  8
S-REBAR-MAIN
 62
1
100
AcDbHatch
 10
0.0
 20
0.0
 30
0.0
210
0.0
220
0.0
230
1.0
  2
SOLID
 70
1
 71
0
 91
1
 92
3
 72
0
 73
1
 93
16
 10
470.8
 20
338.3
 10
470.739103626009
 20
338.6061467458921
 10
470.56568542494927
 20
338.8656854249493
 10
470.3061467458921
 20
339.039103626009
 10
470.0
 20
339.1
 10
469.6938532541079
 20
339.039103626009
 10
469.43431457505073
 20
338.8656854249493
 10
469.260896373991
 20
338.6061467458921
 10
469.2
 20
338.3
 10
469.260896373991
 20
337.99385325410793
 10
469.43431457505073
 20
337.73431457505075
 10
469.6938532541079
 20
337.560896373991
 10
470.0
 20
337.5
 10
470.3061467458921
 20
337.560896373991
 10
470.56568542494927
 20
337.73431457505075
 10
470.739103626009
 20
337.99385325410793
 97
0
 75
0
 76
1
 98
0
  0
CIRCLE
  5
17F
330
17
100
AcDbEntity
  8
S-REBAR-MAIN
100
AcDbCircle
 10
485.0
 20
338.3
 30
0.0
 40
0.8
  0
HATCH
  5
180
330
17
100
AcDbEntity
  8
S-REBAR-MAIN
 62
1
100
AcDbHatch
 10
0.0
 20
0.0
 30
0.0
210
0.0
220
0.0
230
1.0
  2
SOLID
 70
1
 71
0
 91
1
 92
3
 72
0
 73
1
 93
16
 10
485.8
 20
338.3
 10
485.739103626009
 20
338.6061467458921
 10
485.56568542494927
 20
338.8656854249493
 10
485.3061467458921
 20
339.039103626009
 10
485.0
 20
339.1
 10
484.6938532541079
 20
339.039103626009
 10
484.43431457505073
 20
338.8656854249493
 10
484.260896373991
 20
338.6061467458921
 10
484.2
 20
338.3
 10
484.260896373991
 20
337.99385325410793
 10
484.43431457505073
 20
337.73431457505075
 10
484.6938532541079
 20
337.560896373991
 10
485.0
 20
337.5
 10
485.3061467458921
 20
337.560896373991
 10
485.56568542494927
 20
337.73431457505075
 10
485.739103626009
 20
337.99385325410793
 97
0
 75
0
 76
1
 98
0
  0
CIRCLE
  5
181
330
17
100
AcDbEntity
  8
S-REBAR-MAIN
100
AcDbCircle
 10
500.0
 20
338.3
 30
0.0
 40
0.8
  0
HATCH
  5
182
330
17
100
AcDbEntity
  8
S-REBAR-MAIN
 62
1
100
AcDbHatch
 10
0.0
 20
0.0
 30
0.0
210
0.0
220
0.0
230
1.0
  2
SOLID
 70
1
 71
0
 91
1
 92
3
 72
0
 73
1
 93
16
 10
500.8
 20
338.3
 10
500.739103626009
 20
338.6061467458921
 10
500.56568542494927
 20
338.8656854249493
 10
500.3061467458921
 20
339.039103626009
 10
500.0
 20
339.1
 10
499.6938532541079
 20
339.039103626009
 10
499.43431457505073
 20
338.8656854249493
 10
499.260896373991
 20
338.6061467458921
 10
499.2
 20
338.3
 10
499.260896373991
 20
337.99385325410793
 10
499.43431457505073
 20
337.73431457505075
 10
499.6938532541079
 20
337.560896373991
 10
500.0
 20
337.5
 10
500.3061467458921
 20
337.560896373991
 10
500.56568542494927
 20
337.73431457505075
 10
500.739103626009
 20
337.99385325410793
 97
0
 75
0
 76
1
 98
0
  0
CIRCLE
  5
183
330
17
100
AcDbEntity
  8
S-REBAR-MAIN
100
AcDbCircle
 10
515.0
 20
338.3
 30
0.0
 40
0.8
  0
HATCH
  5
184
330
17
100
AcDbEntity
  8
S-REBAR-MAIN
 62
1
100
AcDbHatch
 10
0.0
 20
0.0
 30
0.0
210
0.0
220
0.0
230
1.0
  2
SOLID
 70
1
 71
0
 91
1
 92
3
 72
0
 73
1
 93
16
 10
515.8
 20
338.3
 10
515.7391036260091
 20
338.6061467458921
 10
515.5656854249493
 20
338.8656854249493
 10
515.3061467458921
 20
339.039103626009
 10
515.0
 20
339.1
 10
514.6938532541079
 20
339.039103626009
 10
514.4343145750507
 20
338.8656854249493
 10
514.2608963739909
 20
338.6061467458921
 10
514.2
 20
338.3
 10
514.2608963739909
 20
337.99385325410793
 10
514.4343145750507
 20
337.73431457505075
 10
514.6938532541079
 20
337.560896373991
 10
515.0
 20
337.5
 10
515.3061467458921
 20
337.560896373991
 10
515.5656854249493
 20
337.73431457505075
 10
515.7391036260091
 20
337.99385325410793
 97
0
 75
0
 76
1
 98
0
  0
CIRCLE
  5
185
330
17
100
AcDbEntity
  8
S-REBAR-MAIN
100
AcDbCircle
 10
530.0
 20
338.3
 30
0.0
 40
0.8
  0
HATCH
  5
186
330
17
100
AcDbEntity
  8
S-REBAR-MAIN
 62
1
100
AcDbHatch
 10
0.0
 20
0.0
 30
0.0
210
0.0
220
0.0
230
1.0
  2
SOLID
 70
1
 71
0
 91
1
 92
3
 72
0
 73
1
 93
16
 10
530.8
 20
338.3
 10
530.7391036260091
 20
338.6061467458921
 10
530.5656854249493
 20
338.8656854249493
 10
530.3061467458921
 20
339.039103626009
 10
530.0
 20
339.1
 10
529.6938532541079
 20
339.039103626009
 10
529.4343145750507
 20
338.8656854249493
 10
529.2608963739909
 20
338.6061467458921
 10
529.2
 20
338.3
 10
529.2608963739909
 20
337.99385325410793
 10
529.4343145750507
 20
337.73431457505075
 10
529.6938532541079
 20
337.560896373991
 10
530.0
 20
337.5
 10
530.3061467458921
 20
337.560896373991
 10
530.5656854249493
 20
337.73431457505075
 10
530.7391036260091
 20
337.99385325410793
 97
0
 75
0
 76
1
 98
0
  0
CIRCLE
  5
187
330
17
100
AcDbEntity
  8
S-REBAR-MAIN
100
AcDbCircle
 10
545.0
 20
338.3
 30
0.0
 40
0.8
  0
HATCH
  5
188
330
17
100
AcDbEntity
  8
S-REBAR-MAIN
 62
1
100
AcDbHatch
 10
0.0
 20
0.0
 30
0.0
210
0.0
220
0.0
230
1.0
  2
SOLID
 70
1
 71
0
 91
1
 92
3
 72
0
 73
1
 93
16
 10
545.8
 20
338.3
 10
545.7391036260091
 20
338.6061467458921
 10
545.5656854249493
 20
338.8656854249493
 10
545.3061467458921
 20
339.039103626009
 10
545.0
 20
339.1
 10
544.6938532541079
 20
339.039103626009
 10
544.4343145750507
 20
338.8656854249493
 10
544.2608963739909
 20
338.6061467458921
 10
544.2
 20
338.3
 10
544.2608963739909
 20
337.99385325410793
 10
544.4343145750507
 20
337.73431457505075
 10
544.6938532541079
 20
337.560896373991
 10
545.0
 20
337.5
 10
545.3061467458921
 20
337.560896373991
 10
545.5656854249493
 20
337.73431457505075
 10
545.7391036260091
 20
337.99385325410793
 97
0
 75
0
 76
1
 98
0
  0
CIRCLE
  5
189
330
17
100
AcDbEntity
  8
S-REBAR-MAIN
100
AcDbCircle
 10
560.0
 20
338.3
 30
0.0
 40
0.8
  0
HATCH
  5
18A
330
17
100
AcDbEntity
  8
S-REBAR-MAIN
 62
1
100
AcDbHatch
 10
0.0
 20
0.0
 30
0.0
210
0.0
220
0.0
230
1.0
  2
SOLID
 70
1
 71
0
 91
1
 92
3
 72
0
 73
1
 93
16
 10
560.8
 20
338.3
 10
560.7391036260091
 20
338.6061467458921
 10
560.5656854249493
 20
338.8656854249493
 10
560.3061467458921
 20
339.039103626009
 10
560.0
 20
339.1
 10
559.6938532541079
 20
339.039103626009
 10
559.4343145750507
 20
338.8656854249493
 10
559.2608963739909
 20
338.6061467458921
 10
559.2
 20
338.3
 10
559.2608963739909
 20
337.99385325410793
 10
559.4343145750507
 20
337.73431457505075
 10
559.6938532541079
 20
337.560896373991
 10
560.0
 20
337.5
 10
560.3061467458921
 20
337.560896373991
 10
560.5656854249493
 20
337.73431457505075
 10
560.7391036260091
 20
337.99385325410793
 97
0
 75
0
 76
1
 98
0
  0
CIRCLE
  5
18B
330
17
100
AcDbEntity
  8
S-REBAR-MAIN
100
AcDbCircle
 10
575.0
 20
338.3
 30
0.0
 40
0.8
  0
HATCH
  5
18C
330
17
100
AcDbEntity
  8
S-REBAR-MAIN
 62
1
100
AcDbHatch
 10
0.0
 20
0.0
 30
0.0
210
0.0
220
0.0
230
1.0
  2
SOLID
 70
1
 71
0
 91
1
 92
3
 72
0
 73
1
 93
16
 10
575.8
 20
338.3
 10
575.7391036260091
 20
338.6061467458921
 10
575.5656854249493
 20
338.8656854249493
 10
575.3061467458921
 20
339.039103626009
 10
575.0
 20
339.1
 10
574.6938532541079
 20
339.039103626009
 10
574.4343145750507
 20
338.8656854249493
 10
574.2608963739909
 20
338.6061467458921
 10
574.2
 20
338.3
 10
574.2608963739909
 20
337.99385325410793
 10
574.4343145750507
 20
337.73431457505075
 10
574.6938532541079
 20
337.560896373991
 10
575.0
 20
337.5
 10
575.3061467458921
 20
337.560896373991
 10
575.5656854249493
 20
337.73431457505075
 10
575.7391036260091
 20
337.99385325410793
 97
0
 75
0
 76
1
 98
0
  0
CIRCLE
  5
18D
330
17
100
AcDbEntity
  8
S-REBAR-MAIN
100
AcDbCircle
 10
590.0
 20
338.3
 30
0.0
 40
0.8
  0
HATCH
  5
18E
330
17
100
AcDbEntity
  8
S-REBAR-MAIN
 62
1
100
AcDbHatch
 10
0.0
 20
0.0
 30
0.0
210
0.0
220
0.0
230
1.0
  2
SOLID
 70
1
 71
0
 91
1
 92
3
 72
0
 73
1
 93
16
 10
590.8
 20
338.3
 10
590.7391036260091
 20
338.6061467458921
 10
590.5656854249493
 20
338.8656854249493
 10
590.3061467458921
 20
339.039103626009
 10
590.0
 20
339.1
 10
589.6938532541079
 20
339.039103626009
 10
589.4343145750507
 20
338.8656854249493
 10
589.2608963739909
 20
338.6061467458921
 10
589.2
 20
338.3
 10
589.2608963739909
 20
337.99385325410793
 10
589.4343145750507
 20
337.73431457505075
 10
589.6938532541079
 20
337.560896373991
 10
590.0
 20
337.5
 10
590.3061467458921
 20
337.560896373991
 10
590.5656854249493
 20
337.73431457505075
 10
590.7391036260091
 20
337.99385325410793
 97
0
 75
0
 76
1
 98
0
  0
CIRCLE
  5
18F
330
17
100
AcDbEntity
  8
S-REBAR-MAIN
100
AcDbCircle
 10
455.0
 20
385.2
 30
0.0
 40
0.8
  0
HATCH
  5
190
330
17
100
AcDbEntity
  8
S-REBAR-MAIN
 62
1
100
AcDbHatch
 10
0.0
 20
0.0
 30
0.0
210
0.0
220
0.0
230
1.0
  2
SOLID
 70
1
 71
0
 91
1
 92
3
 72
0
 73
1
 93
16
 10
455.8
 20
385.2
 10
455.739103626009
 20
385.50614674589207
 10
455.56568542494927
 20
385.76568542494925
 10
455.3061467458921
 20
385.939103626009
 10
455.0
 20
386.0
 10
454.6938532541079
 20
385.939103626009
 10
454.43431457505073
 20
385.76568542494925
 10
454.260896373991
 20
385.50614674589207
 10
454.2
 20
385.2
 10
454.260896373991
 20
384.8938532541079
 10
454.43431457505073
 20
384.6343145750507
 10
454.6938532541079
 20
384.460896373991
 10
455.0
 20
384.4
 10
455.3061467458921
 20
384.460896373991
 10
455.56568542494927
 20
384.6343145750507
 10
455.739103626009
 20
384.8938532541079
 97
0
 75
0
 76
1
 98
0
  0
CIRCLE
  5
191
330
17
100
AcDbEntity
  8
S-REBAR-MAIN
100
AcDbCircle
 10
470.0
 20
385.2
 30
0.0
 40
0.8
  0
HATCH
  5
192
330
17
100
AcDbEntity
  8
S-REBAR-MAIN
 62
1
100
AcDbHatch
 10
0.0
 20
0.0
 30
0.0
210
0.0
220
0.0
230
1.0
  2
SOLID
 70
1
 71
0
 91
1
 92
3
 72
0
 73
1
 93
16
 10
470.8
 20
385.2
 10
470.739103626009
 20
385.50614674589207
 10
470.56568542494927
 20
385.76568542494925
 10
470.3061467458921
 20
385.939103626009
 10
470.0
 20
386.0
 10
469.6938532541079
 20
385.939103626009
 10
469.43431457505073
 20
385.76568542494925
 10
469.260896373991
 20
385.50614674589207
 10
469.2
 20
385.2
 10
469.260896373991
 20
384.8938532541079
 10
469.43431457505073
 20
384.6343145750507
 10
469.6938532541079
 20
384.460896373991
 10
470.0
 20
384.4
 10
470.3061467458921
 20
384.460896373991
 10
470.56568542494927
 20
384.6343145750507
 10
470.739103626009
 20
384.8938532541079
 97
0
 75
0
 76
1
 98
0
  0
CIRCLE
  5
193
330
17
100
AcDbEntity
  8
S-REBAR-MAIN
100
AcDbCircle
 10
485.0
 20
385.2
 30
0.0
 40
0.8
  0
HATCH
  5
194
330
17
100
AcDbEntity
  8
S-REBAR-MAIN
 62
1
100
AcDbHatch
 10
0.0
 20
0.0
 30
0.0
210
0.0
220
0.0
230
1.0
  2
SOLID
 70
1
 71
0
 91
1
 92
3
 72
0
 73
1
 93
16
 10
485.8
 20
385.2
 10
485.739103626009
 20
385.50614674589207
 10
485.56568542494927
 20
385.76568542494925
 10
485.3061467458921
 20
385.939103626009
 10
485.0
 20
386.0
 10
484.6938532541079
 20
385.939103626009
 10
484.43431457505073
 20
385.76568542494925
 10
484.260896373991
 20
385.50614674589207
 10
484.2
 20
385.2
 10
484.260896373991
 20
384.8938532541079
 10
484.43431457505073
 20
384.6343145750507
 10
484.6938532541079
 20
384.460896373991
 10
485.0
 20
384.4
 10
485.3061467458921
 20
384.460896373991
 10
485.56568542494927
 20
384.6343145750507
 10
485.739103626009
 20
384.8938532541079
 97
0
 75
0
 76
1
 98
0
  0
CIRCLE
  5
195
330
17
100
AcDbEntity
  8
S-REBAR-MAIN
100
AcDbCircle
 10
500.0
 20
385.2
 30
0.0
 40
0.8
  0
HATCH
  5
196
330
17
100
AcDbEntity
  8
S-REBAR-MAIN
 62
1
100
AcDbHatch
 10
0.0
 20
0.0
 30
0.0
210
0.0
220
0.0
230
1.0
  2
SOLID
 70
1
 71
0
 91
1
 92
3
 72
0
 73
1
 93
16
 10
500.8
 20
385.2
 10
500.739103626009
 20
385.50614674589207
 10
500.56568542494927
 20
385.76568542494925
 10
500.3061467458921
 20
385.939103626009
 10
500.0
 20
386.0
 10
499.6938532541079
 20
385.939103626009
 10
499.43431457505073
 20
385.76568542494925
 10
499.260896373991
 20
385.50614674589207
 10
499.2
 20
385.2
 10
499.260896373991
 20
384.8938532541079
 10
499.43431457505073
 20
384.6343145750507
 10
499.6938532541079
 20
384.460896373991
 10
500.0
 20
384.4
 10
500.3061467458921
 20
384.460896373991
 10
500.56568542494927
 20
384.6343145750507
 10
500.739103626009
 20
384.8938532541079
 97
0
 75
0
 76
1
 98
0
  0
CIRCLE
  5
197
330
17
100
AcDbEntity
  8
S-REBAR-MAIN
100
AcDbCircle
 10
515.0
 20
385.2
 30
0.0
 40
0.8
  0
HATCH
  5
198
330
17
100
AcDbEntity
  8
S-REBAR-MAIN
 62
1
100
AcDbHatch
 10
0.0
 20
0.0
 30
0.0
210
0.0
220
0.0
230
1.0
  2
SOLID
 70
1
 71
0
 91
1
 92
3
 72
0
 73
1
 93
16
 10
515.8
 20
385.2
 10
515.7391036260091
 20
385.50614674589207
 10
515.5656854249493
 20
385.76568542494925
 10
515.3061467458921
 20
385.939103626009
 10
515.0
 20
386.0
 10
514.6938532541079
 20
385.939103626009
 10
514.4343145750507
 20
385.76568542494925
 10
514.2608963739909
 20
385.50614674589207
 10
514.2
 20
385.2
 10
514.2608963739909
 20
384.8938532541079
 10
514.4343145750507
 20
384.6343145750507
 10
514.6938532541079
 20
384.460896373991
 10
515.0
 20
384.4
 10
515.3061467458921
 20
384.460896373991
 10
515.5656854249493
 20
384.6343145750507
 10
515.7391036260091
 20
384.8938532541079
 97
0
 75
0
 76
1
 98
0
  0
CIRCLE
  5
199
330
17
100
AcDbEntity
  8
S-REBAR-MAIN
100
AcDbCircle
 10
530.0
 20
385.2
 30
0.0
 40
0.8
  0
HATCH
  5
19A
330
17
100
AcDbEntity
  8
S-REBAR-MAIN
 62
1
100
AcDbHatch
 10
0.0
 20
0.0
 30
0.0
210
0.0
220
0.0
230
1.0
  2
SOLID
 70
1
 71
0
 91
1
 92
3
 72
0
 73
1
 93
16
 10
530.8
 20
385.2
 10
530.7391036260091
 20
385.50614674589207
 10
530.5656854249493
 20
385.76568542494925
 10
530.3061467458921
 20
385.939103626009
 10
530.0
 20
386.0
 10
529.6938532541079
 20
385.939103626009
 10
529.4343145750507
 20
385.76568542494925
 10
529.2608963739909
 20
385.50614674589207
 10
529.2
 20
385.2
 10
529.2608963739909
 20
384.8938532541079
 10
529.4343145750507
 20
384.6343145750507
 10
529.6938532541079
 20
384.460896373991
 10
530.0
 20
384.4
 10
530.3061467458921
 20
384.460896373991
 10
530.5656854249493
 20
384.6343145750507
 10
530.7391036260091
 20
384.8938532541079
 97
0
 75
0
 76
1
 98
0
  0
CIRCLE
  5
19B
330
17
100
AcDbEntity
  8
S-REBAR-MAIN
100
AcDbCircle
 10
545.0
 20
385.2
 30
0.0
 40
0.8
  0
HATCH
  5
19C
330
17
100
AcDbEntity
  8
S-REBAR-MAIN
 62
1
100
AcDbHatch
 10
0.0
 20
0.0
 30
0.0
210
0.0
220
0.0
230
1.0
  2
SOLID
 70
1
 71
0
 91
1
 92
3
 72
0
 73
1
 93
16
 10
545.8
 20
385.2
 10
545.7391036260091
 20
385.50614674589207
 10
545.5656854249493
 20
385.76568542494925
 10
545.3061467458921
 20
385.939103626009
 10
545.0
 20
386.0
 10
544.6938532541079
 20
385.939103626009
 10
544.4343145750507
 20
385.76568542494925
 10
544.2608963739909
 20
385.50614674589207
 10
544.2
 20
385.2
 10
544.2608963739909
 20
384.8938532541079
 10
544.4343145750507
 20
384.6343145750507
 10
544.6938532541079
 20
384.460896373991
 10
545.0
 20
384.4
 10
545.3061467458921
 20
384.460896373991
 10
545.5656854249493
 20
384.6343145750507
 10
545.7391036260091
 20
384.8938532541079
 97
0
 75
0
 76
1
 98
0
  0
CIRCLE
  5
19D
330
17
100
AcDbEntity
  8
S-REBAR-MAIN
100
AcDbCircle
 10
560.0
 20
385.2
 30
0.0
 40
0.8
  0
HATCH
  5
19E
330
17
100
AcDbEntity
  8
S-REBAR-MAIN
 62
1
100
AcDbHatch
 10
0.0
 20
0.0
 30
0.0
210
0.0
220
0.0
230
1.0
  2
SOLID
 70
1
 71
0
 91
1
 92
3
 72
0
 73
1
 93
16
 10
560.8
 20
385.2
 10
560.7391036260091
 20
385.50614674589207
 10
560.5656854249493
 20
385.76568542494925
 10
560.3061467458921
 20
385.939103626009
 10
560.0
 20
386.0
 10
559.6938532541079
 20
385.939103626009
 10
559.4343145750507
 20
385.76568542494925
 10
559.2608963739909
 20
385.50614674589207
 10
559.2
 20
385.2
 10
559.2608963739909
 20
384.8938532541079
 10
559.4343145750507
 20
384.6343145750507
 10
559.6938532541079
 20
384.460896373991
 10
560.0
 20
384.4
 10
560.3061467458921
 20
384.460896373991
 10
560.5656854249493
 20
384.6343145750507
 10
560.7391036260091
 20
384.8938532541079
 97
0
 75
0
 76
1
 98
0
  0
CIRCLE
  5
19F
330
17
100
AcDbEntity
  8
S-REBAR-MAIN
100
AcDbCircle
 10
575.0
 20
385.2
 30
0.0
 40
0.8
  0
HATCH
  5
1A0
330
17
100
AcDbEntity
  8
S-REBAR-MAIN
 62
1
100
AcDbHatch
 10
0.0
 20
0.0
 30
0.0
210
0.0
220
0.0
230
1.0
  2
SOLID
 70
1
 71
0
 91
1
 92
3
 72
0
 73
1
 93
16
 10
575.8
 20
385.2
 10
575.7391036260091
 20
385.50614674589207
 10
575.5656854249493
 20
385.76568542494925
 10
575.3061467458921
 20
385.939103626009
 10
575.0
 20
386.0
 10
574.6938532541079
 20
385.939103626009
 10
574.4343145750507
 20
385.76568542494925
 10
574.2608963739909
 20
385.50614674589207
 10
574.2
 20
385.2
 10
574.2608963739909
 20
384.8938532541079
 10
574.4343145750507
 20
384.6343145750507
 10
574.6938532541079
 20
384.460896373991
 10
575.0
 20
384.4
 10
575.3061467458921
 20
384.460896373991
 10
575.5656854249493
 20
384.6343145750507
 10
575.7391036260091
 20
384.8938532541079
 97
0
 75
0
 76
1
 98
0
  0
CIRCLE
  5
1A1
330
17
100
AcDbEntity
  8
S-REBAR-MAIN
100
AcDbCircle
 10
590.0
 20
385.2
 30
0.0
 40
0.8
  0
HATCH
  5
1A2
330
17
100
AcDbEntity
  8
S-REBAR-MAIN
 62
1
100
AcDbHatch
 10
0.0
 20
0.0
 30
0.0
210
0.0
220
0.0
230
1.0
  2
SOLID
 70
1
 71
0
 91
1
 92
3
 72
0
 73
1
 93
16
 10
590.8
 20
385.2
 10
590.7391036260091
 20
385.50614674589207
 10
590.5656854249493
 20
385.76568542494925
 10
590.3061467458921
 20
385.939103626009
 10
590.0
 20
386.0
 10
589.6938532541079
 20
385.939103626009
 10
589.4343145750507
 20
385.76568542494925
 10
589.2608963739909
 20
385.50614674589207
 10
589.2
 20
385.2
 10
589.2608963739909
 20
384.8938532541079
 10
589.4343145750507
 20
384.6343145750507
 10
589.6938532541079
 20
384.460896373991
 10
590.0
 20
384.4
 10
590.3061467458921
 20
384.460896373991
 10
590.5656854249493
 20
384.6343145750507
 10
590.7391036260091
 20
384.8938532541079
 97
0
 75
0
 76
1
 98
0
  0
DIMENSION
  5
1A3
330
17
100
AcDbEntity
  8
S-DIM
100
AcDbDimension
280
0
  2
*D5
  3
SC-DIM
 10
490.0
 20
420.0
 30
0.0
 11
510.0
 21
421.7
 31
0.0
 70
32
 71
5
  1
<>
100
AcDbAlignedDimension
 13
490.0
 23
390.0
 33
0.0
 14
530.0
 24
390.0
 34
0.0
 50
0.0
100
AcDbRotatedDimension
1001
ACAD
1000
DSTYLE
1002
{
1070
144
1040
10.0
1002
}
  0
TEXT
  5
1B2
330
17
100
AcDbEntity
  8
S-BLAST
100
AcDbText
 10
535.0
 20
420.0
 30
0.0
 40
1.4
  1
400 - MOD M1
  7
OpenSans
 11
535.0
 21
420.0
 31
0.0
100
AcDbText
  0
INSERT
  5
1B3
330
17
100
AcDbEntity
  8
S-CALLOUT
100
AcDbBlockReference
  2
BARMARK
 10
520.0
 20
300.0
 30
0.0
  0
TEXT
  5
1B5
330
17
100
AcDbEntity
  8
S-CALLOUT
100
AcDbText
 10
520.0
 20
300.0
 30
0.0
 40
2.0
  1
F08
  7
OpenSans
 72
1
 11
520.0
 21
300.0
 31
0.0
100
AcDbText
 73
2
  0
LEADER
  5
1B6
330
17
100
AcDbEntity
  8
S-CALLOUT
100
AcDbLeader
  3
SC-DIM
 73
3
 76
2
 10
500.0
 20
430.0
 30
0.0
 10
520.0
 20
300.0
 30
0.0
  0
TEXT
  5
1B7
330
17
100
AcDbEntity
  8
S-CALLOUT
100
AcDbText
 10
524.6
 20
299.3
 30
0.0
 40
1.8
  1
T20 @ 150 EF, LAP 1000
  7
OpenSans
 11
524.6
 21
299.3
 31
0.0
100
AcDbText
  0
TEXT
  5
1B8
330
17
100
AcDbEntity
  8
S-TITLE
100
AcDbText
 10
440.0
 20
548.0
 30
0.0
 40
3.5
  1
D3   STARTER TO WALLS W6 / W7 (400, MOD M1)
  7
OpenSans
 11
440.0
 21
548.0
 31
0.0
100
AcDbText
  0
LINE
  5
1B9
330
17
100
AcDbEntity
  8
S-TITLE
100
AcDbLine
 10
440.0
 20
546.2
 30
0.0
 11
559.0539182853315
 21
546.2
 31
0.0
  0
TEXT
  5
1BA
330
17
100
AcDbEntity
  8
S-TEXT
100
AcDbText
 10
440.0
 20
540.8
 30
0.0
 40
2.0
  1
SCALE 1:10
  7
OpenSans
 11
440.0
 21
540.8
 31
0.0
100
AcDbText
  0
TEXT
  5
1BB
330
17
100
AcDbEntity
  8
S-TITLE
100
AcDbText
 10
57.0
 20
285.5
 30
0.0
 40
2.5
  1
JUNCTION DETAILING RULES
  7
OpenSans
 11
57.0
 21
285.5
 31
0.0
100
AcDbText
  0
TEXT
  5
1BC
330
17
100
AcDbEntity
  8
S-NOTE
100
AcDbText
 10
57.0
 20
281.375
 30
0.0
 40
2.0
  1
1  EVERY WALL SPRINGS FROM A STARTER CAST INTO THE MAT.  The starter's
  7
OpenSans
 11
57.0
 21
281.375
 31
0.0
100
AcDbText
  0
TEXT
  5
1BD
330
17
100
AcDbEntity
  8
S-NOTE
100
AcDbText
 10
57.0
 20
278.275
 30
0.0
 40
2.0
  1
   horizontal leg lies IN THE BOTTOM CURTAIN, 900 long (600 for W5), and
  7
OpenSans
 11
57.0
 21
278.275
 31
0.0
100
AcDbText
  0
TEXT
  5
1BE
330
17
100
AcDbEntity
  8
S-NOTE
100
AcDbText
 10
57.0
 20
275.17499999999995
 30
0.0
 40
2.0
  1
   is turned up to project 800 (50 phi) above a 150 kicker.
  7
OpenSans
 11
57.0
 21
275.17499999999995
 31
0.0
100
AcDbText
  0
TEXT
  5
1BF
330
17
100
AcDbEntity
  8
S-NOTE
100
AcDbText
 10
57.0
 20
272.07499999999993
 30
0.0
 40
2.0
  1
2  THE LAP IS 50 phi, NOT 40 phi.  IS 456 Cl. 26.2.5.1(c) requires Ld or
  7
OpenSans
 11
57.0
 21
272.07499999999993
 31
0.0
100
AcDbText
  0
TEXT
  5
1C0
330
17
100
AcDbEntity
  8
S-NOTE
100
AcDbText
 10
57.0
 20
268.9749999999999
 30
0.0
 40
2.0
  1
   30 phi, whichever is greater = 40 phi; Cl. 26.2.5.1 requires x1.4 if
  7
OpenSans
 11
57.0
 21
268.9749999999999
 31
0.0
100
AcDbText
  0
TEXT
  5
1C1
330
17
100
AcDbEntity
  8
S-NOTE
100
AcDbText
 10
57.0
 20
265.8749999999999
 30
0.0
 40
2.0
  1
   more than 50 % of bars are lapped at one section.  ALL LAPS ARE
  7
OpenSans
 11
57.0
 21
265.8749999999999
 31
0.0
100
AcDbText
  0
TEXT
  5
1C2
330
17
100
AcDbEntity
  8
S-NOTE
100
AcDbText
 10
57.0
 20
262.77499999999986
 30
0.0
 40
2.0
  1
   STAGGERED so that <= 50 % are spliced at any section, AND the lap is
  7
OpenSans
 11
57.0
 21
262.77499999999986
 31
0.0
100
AcDbText
  0
TEXT
  5
1C3
330
17
100
AcDbEntity
  8
S-NOTE
100
AcDbText
 10
57.0
 20
259.67499999999984
 30
0.0
 40
2.0
  1
   specified at 50 phi - 25 % above requirement.  The x1.4 factor is
  7
OpenSans
 11
57.0
 21
259.67499999999984
 31
0.0
100
AcDbText
  0
TEXT
  5
1C4
330
17
100
AcDbEntity
  8
S-NOTE
100
AcDbText
 10
57.0
 20
256.5749999999998
 30
0.0
 40
2.0
  1
   therefore not triggered.
  7
OpenSans
 11
57.0
 21
256.5749999999998
 31
0.0
100
AcDbText
  0
TEXT
  5
1C5
330
17
100
AcDbEntity
  8
S-NOTE
100
AcDbText
 10
57.0
 20
253.47499999999982
 30
0.0
 40
2.0
  1
3  IS 4991 Cl. 10.3.1.1 PERMITS +25 % ON BOND FOR THE BLAST CASE
  7
OpenSans
 11
57.0
 21
253.47499999999982
 31
0.0
100
AcDbText
  0
TEXT
  5
1C6
330
17
100
AcDbEntity
  8
S-NOTE
100
AcDbText
 10
57.0
 20
250.37499999999983
 30
0.0
 40
2.0
  1
   (Ld -> 32 phi).  IT IS NOT TAKEN.  All detailing uses the static 40 phi.
  7
OpenSans
 11
57.0
 21
250.37499999999983
 31
0.0
100
AcDbText
  0
TEXT
  5
1C7
330
17
100
AcDbEntity
  8
S-NOTE
100
AcDbText
 10
57.0
 20
247.27499999999984
 30
0.0
 40
2.0
  1
4  A 500 x 500 HAUNCH WITH T20 @ 150 DIAGONALS IS PROVIDED AT EVERY
  7
OpenSans
 11
57.0
 21
247.27499999999984
 31
0.0
100
AcDbText
  0
TEXT
  5
1C8
330
17
100
AcDbEntity
  8
S-NOTE
100
AcDbText
 10
57.0
 20
244.17499999999984
 30
0.0
 40
2.0
  1
   WALL / MAT AND WALL / ROOF JUNCTION OF THE BOX (300 x 300 with
  7
OpenSans
 11
57.0
 21
244.17499999999984
 31
0.0
100
AcDbText
  0
TEXT
  5
1C9
330
17
100
AcDbEntity
  8
S-NOTE
100
AcDbText
 10
57.0
 20
241.07499999999985
 30
0.0
 40
2.0
  1
   T16 @ 150 at the headhouse - R-304).
  7
OpenSans
 11
57.0
 21
241.07499999999985
 31
0.0
100
AcDbText
  0
TEXT
  5
1CA
330
17
100
AcDbEntity
  8
S-NOTE
100
AcDbText
 10
57.0
 20
237.97499999999985
 30
0.0
 40
2.0
  1
5  NO REINFORCEMENT IS STOPPED AT A CONSTRUCTION JOINT.
  7
OpenSans
 11
57.0
 21
237.97499999999985
 31
0.0
100
AcDbText
  0
LWPOLYLINE
  5
1CB
330
17
100
AcDbEntity
  8
S-TITLE
100
AcDbPolyline
 90
4
 70
1
 10
55.0
 20
232.87499999999986
 10
435.0
 20
232.87499999999986
 10
435.0
 20
290.0
 10
55.0
 20
290.0
  0
TEXT
  5
1CC
330
17
100
AcDbEntity
  8
S-TITLE
100
AcDbText
 10
57.0
 20
222.37499999999986
 30
0.0
 40
2.5
  1
WHY THE MAT IS 600 AND THE WALLS ARE 600
  7
OpenSans
 11
57.0
 21
222.37499999999986
 31
0.0
100
AcDbText
  0
TEXT
  5
1CD
330
17
100
AcDbEntity
  8
S-NOTE
100
AcDbText
 10
57.0
 20
218.24999999999986
 30
0.0
 40
2.0
  1
The perimeter wall is NOT strength-governed - it is 68 % utilised.  600 mm
  7
OpenSans
 11
57.0
 21
218.24999999999986
 31
0.0
100
AcDbText
  0
TEXT
  5
1CE
330
17
100
AcDbEntity
  8
S-NOTE
100
AcDbText
 10
57.0
 20
215.14999999999986
 30
0.0
 40
2.0
  1
is set by (i) 75 mm cover, (ii) CONGESTION - two curtains plus closed links
  7
OpenSans
 11
57.0
 21
215.14999999999986
 31
0.0
100
AcDbText
  0
TEXT
  5
1CF
330
17
100
AcDbEntity
  8
S-NOTE
100
AcDbText
 10
57.0
 20
212.04999999999987
 30
0.0
 40
2.0
  1
plus waterstops plus cast-in frames, (iii) IS 3370 crack control under
  7
OpenSans
 11
57.0
 21
212.04999999999987
 31
0.0
100
AcDbText
  0
TEXT
  5
1D0
330
17
100
AcDbEntity
  8
S-NOTE
100
AcDbText
 10
57.0
 20
208.94999999999987
 30
0.0
 40
2.0
  1
sustained hydrostatic load, (iv) the EMP double curtain at 150 centres, and
  7
OpenSans
 11
57.0
 21
208.94999999999987
 31
0.0
100
AcDbText
  0
TEXT
  5
1D1
330
17
100
AcDbEntity
  8
S-NOTE
100
AcDbText
 10
57.0
 20
205.84999999999988
 30
0.0
 40
2.0
  1
(v) the 1 168 kN/m axial path.  Stated honestly rather than presented as a
  7
OpenSans
 11
57.0
 21
205.84999999999988
 31
0.0
100
AcDbText
  0
TEXT
  5
1D2
330
17
100
AcDbEntity
  8
S-NOTE
100
AcDbText
 10
57.0
 20
202.7499999999999
 30
0.0
 40
2.0
  1
strength result.
  7
OpenSans
 11
57.0
 21
202.7499999999999
 31
0.0
100
AcDbText
  0
TEXT
  5
1D3
330
17
100
AcDbEntity
  8
S-NOTE
100
AcDbText
 10
57.0
 20
196.5499999999999
 30
0.0
 40
2.0
  1
The mat at 600 IS strength-governed - 84 % on the soft-band case.  At 500 mm
  7
OpenSans
 11
57.0
 21
196.5499999999999
 31
0.0
100
AcDbText
  0
TEXT
  5
1D4
330
17
100
AcDbEntity
  8
S-NOTE
100
AcDbText
 10
57.0
 20
193.4499999999999
 30
0.0
 40
2.0
  1
the required steel is 105 % of that provided: it FAILS.
  7
OpenSans
 11
57.0
 21
193.4499999999999
 31
0.0
100
AcDbText
  0
LWPOLYLINE
  5
1D5
330
17
100
AcDbEntity
  8
S-TITLE
100
AcDbPolyline
 90
4
 70
1
 10
55.0
 20
188.3499999999999
 10
435.0
 20
188.3499999999999
 10
435.0
 20
226.87499999999986
 10
55.0
 20
226.87499999999986
  0
TEXT
  5
1D6
330
17
100
AcDbEntity
  8
S-TITLE
100
AcDbText
 10
448.0
 20
303.0
 30
0.0
 40
2.5
  1
BAR SCHEDULE EXTRACT - THIS SHEET
  7
OpenSans
 11
448.0
 21
303.0
 31
0.0
100
AcDbText
  0
LWPOLYLINE
  5
1D7
330
17
100
AcDbEntity
  8
S-TABLE
100
AcDbPolyline
 90
4
 70
1
 10
448.0
 20
295.8
 10
557.0
 20
295.8
 10
557.0
 20
300.0
 10
448.0
 20
300.0
  0
TEXT
  5
1D8
330
17
100
AcDbEntity
  8
S-TABLE
100
AcDbText
 10
449.4
 20
296.94545454545454
 30
0.0
 40
1.909090909090909
  1
MARK
  7
OpenSans
 11
449.4
 21
296.94545454545454
 31
0.0
100
AcDbText
  0
TEXT
  5
1D9
330
17
100
AcDbEntity
  8
S-TABLE
100
AcDbText
 10
466.4
 20
296.94545454545454
 30
0.0
 40
1.909090909090909
  1
DIA
  7
OpenSans
 11
466.4
 21
296.94545454545454
 31
0.0
100
AcDbText
  0
TEXT
  5
1DA
330
17
100
AcDbEntity
  8
S-TABLE
100
AcDbText
 10
479.4
 20
296.94545454545454
 30
0.0
 40
1.909090909090909
  1
SHP
  7
OpenSans
 11
479.4
 21
296.94545454545454
 31
0.0
100
AcDbText
  0
TEXT
  5
1DB
330
17
100
AcDbEntity
  8
S-TABLE
100
AcDbText
 10
491.4
 20
296.94545454545454
 30
0.0
 40
1.909090909090909
  1
SPAC
  7
OpenSans
 11
491.4
 21
296.94545454545454
 31
0.0
100
AcDbText
  0
TEXT
  5
1DC
330
17
100
AcDbEntity
  8
S-TABLE
100
AcDbText
 10
506.4
 20
296.94545454545454
 30
0.0
 40
1.909090909090909
  1
No.
  7
OpenSans
 11
506.4
 21
296.94545454545454
 31
0.0
100
AcDbText
  0
TEXT
  5
1DD
330
17
100
AcDbEntity
  8
S-TABLE
100
AcDbText
 10
521.4
 20
296.94545454545454
 30
0.0
 40
1.909090909090909
  1
CUT
  7
OpenSans
 11
521.4
 21
296.94545454545454
 31
0.0
100
AcDbText
  0
TEXT
  5
1DE
330
17
100
AcDbEntity
  8
S-TABLE
100
AcDbText
 10
538.4
 20
296.94545454545454
 30
0.0
 40
1.909090909090909
  1
kg
  7
OpenSans
 11
538.4
 21
296.94545454545454
 31
0.0
100
AcDbText
  0
TEXT
  5
1DF
330
17
100
AcDbEntity
  8
S-TABLE
100
AcDbText
 10
449.4
 20
292.74545454545455
 30
0.0
 40
1.909090909090909
  1
F07
  7
OpenSans
 11
449.4
 21
292.74545454545455
 31
0.0
100
AcDbText
  0
TEXT
  5
1E0
330
17
100
AcDbEntity
  8
S-TABLE
100
AcDbText
 10
466.4
 20
292.74545454545455
 30
0.0
 40
1.909090909090909
  1
T16
  7
OpenSans
 11
466.4
 21
292.74545454545455
 31
0.0
100
AcDbText
  0
TEXT
  5
1E1
330
17
100
AcDbEntity
  8
S-TABLE
100
AcDbText
 10
479.4
 20
292.74545454545455
 30
0.0
 40
1.909090909090909
  1
11
  7
OpenSans
 11
479.4
 21
292.74545454545455
 31
0.0
100
AcDbText
  0
TEXT
  5
1E2
330
17
100
AcDbEntity
  8
S-TABLE
100
AcDbText
 10
491.4
 20
292.74545454545455
 30
0.0
 40
1.909090909090909
  1
150
  7
OpenSans
 11
491.4
 21
292.74545454545455
 31
0.0
100
AcDbText
  0
TEXT
  5
1E3
330
17
100
AcDbEntity
  8
S-TABLE
100
AcDbText
 10
506.4
 20
292.74545454545455
 30
0.0
 40
1.909090909090909
  1
720
  7
OpenSans
 11
506.4
 21
292.74545454545455
 31
0.0
100
AcDbText
  0
TEXT
  5
1E4
330
17
100
AcDbEntity
  8
S-TABLE
100
AcDbText
 10
521.4
 20
292.74545454545455
 30
0.0
 40
1.909090909090909
  1
2335
  7
OpenSans
 11
521.4
 21
292.74545454545455
 31
0.0
100
AcDbText
  0
TEXT
  5
1E5
330
17
100
AcDbEntity
  8
S-TABLE
100
AcDbText
 10
538.4
 20
292.74545454545455
 30
0.0
 40
1.909090909090909
  1
2654
  7
OpenSans
 11
538.4
 21
292.74545454545455
 31
0.0
100
AcDbText
  0
LINE
  5
1E6
330
17
100
AcDbEntity
  8
S-TABLE
100
AcDbLine
 10
448.0
 20
291.6
 30
0.0
 11
557.0
 21
291.6
 31
0.0
  0
TEXT
  5
1E7
330
17
100
AcDbEntity
  8
S-TABLE
100
AcDbText
 10
449.4
 20
288.54545454545456
 30
0.0
 40
1.909090909090909
  1
F08
  7
OpenSans
 11
449.4
 21
288.54545454545456
 31
0.0
100
AcDbText
  0
TEXT
  5
1E8
330
17
100
AcDbEntity
  8
S-TABLE
100
AcDbText
 10
466.4
 20
288.54545454545456
 30
0.0
 40
1.909090909090909
  1
T20
  7
OpenSans
 11
466.4
 21
288.54545454545456
 31
0.0
100
AcDbText
  0
TEXT
  5
1E9
330
17
100
AcDbEntity
  8
S-TABLE
100
AcDbText
 10
479.4
 20
288.54545454545456
 30
0.0
 40
1.909090909090909
  1
11
  7
OpenSans
 11
479.4
 21
288.54545454545456
 31
0.0
100
AcDbText
  0
TEXT
  5
1EA
330
17
100
AcDbEntity
  8
S-TABLE
100
AcDbText
 10
491.4
 20
288.54545454545456
 30
0.0
 40
1.909090909090909
  1
150
  7
OpenSans
 11
491.4
 21
288.54545454545456
 31
0.0
100
AcDbText
  0
TEXT
  5
1EB
330
17
100
AcDbEntity
  8
S-TABLE
100
AcDbText
 10
506.4
 20
288.54545454545456
 30
0.0
 40
1.909090909090909
  1
132
  7
OpenSans
 11
506.4
 21
288.54545454545456
 31
0.0
100
AcDbText
  0
TEXT
  5
1EC
330
17
100
AcDbEntity
  8
S-TABLE
100
AcDbText
 10
521.4
 20
288.54545454545456
 30
0.0
 40
1.909090909090909
  1
2535
  7
OpenSans
 11
521.4
 21
288.54545454545456
 31
0.0
100
AcDbText
  0
TEXT
  5
1ED
330
17
100
AcDbEntity
  8
S-TABLE
100
AcDbText
 10
538.4
 20
288.54545454545456
 30
0.0
 40
1.909090909090909
  1
825
  7
OpenSans
 11
538.4
 21
288.54545454545456
 31
0.0
100
AcDbText
  0
LINE
  5
1EE
330
17
100
AcDbEntity
  8
S-TABLE
100
AcDbLine
 10
448.0
 20
287.40000000000003
 30
0.0
 11
557.0
 21
287.40000000000003
 31
0.0
  0
TEXT
  5
1EF
330
17
100
AcDbEntity
  8
S-TABLE
100
AcDbText
 10
449.4
 20
284.3454545454546
 30
0.0
 40
1.909090909090909
  1
F09
  7
OpenSans
 11
449.4
 21
284.3454545454546
 31
0.0
100
AcDbText
  0
TEXT
  5
1F0
330
17
100
AcDbEntity
  8
S-TABLE
100
AcDbText
 10
466.4
 20
284.3454545454546
 30
0.0
 40
1.909090909090909
  1
T12
  7
OpenSans
 11
466.4
 21
284.3454545454546
 31
0.0
100
AcDbText
  0
TEXT
  5
1F1
330
17
100
AcDbEntity
  8
S-TABLE
100
AcDbText
 10
479.4
 20
284.3454545454546
 30
0.0
 40
1.909090909090909
  1
11
  7
OpenSans
 11
479.4
 21
284.3454545454546
 31
0.0
100
AcDbText
  0
TEXT
  5
1F2
330
17
100
AcDbEntity
  8
S-TABLE
100
AcDbText
 10
491.4
 20
284.3454545454546
 30
0.0
 40
1.909090909090909
  1
150
  7
OpenSans
 11
491.4
 21
284.3454545454546
 31
0.0
100
AcDbText
  0
TEXT
  5
1F3
330
17
100
AcDbEntity
  8
S-TABLE
100
AcDbText
 10
506.4
 20
284.3454545454546
 30
0.0
 40
1.909090909090909
  1
66
  7
OpenSans
 11
506.4
 21
284.3454545454546
 31
0.0
100
AcDbText
  0
TEXT
  5
1F4
330
17
100
AcDbEntity
  8
S-TABLE
100
AcDbText
 10
521.4
 20
284.3454545454546
 30
0.0
 40
1.909090909090909
  1
1835
  7
OpenSans
 11
521.4
 21
284.3454545454546
 31
0.0
100
AcDbText
  0
TEXT
  5
1F5
330
17
100
AcDbEntity
  8
S-TABLE
100
AcDbText
 10
538.4
 20
284.3454545454546
 30
0.0
 40
1.909090909090909
  1
108
  7
OpenSans
 11
538.4
 21
284.3454545454546
 31
0.0
100
AcDbText
  0
LINE
  5
1F6
330
17
100
AcDbEntity
  8
S-TABLE
100
AcDbLine
 10
448.0
 20
283.20000000000005
 30
0.0
 11
557.0
 21
283.20000000000005
 31
0.0
  0
TEXT
  5
1F7
330
17
100
AcDbEntity
  8
S-TABLE
100
AcDbText
 10
449.4
 20
280.1454545454546
 30
0.0
 40
1.909090909090909
  1
F06
  7
OpenSans
 11
449.4
 21
280.1454545454546
 31
0.0
100
AcDbText
  0
TEXT
  5
1F8
330
17
100
AcDbEntity
  8
S-TABLE
100
AcDbText
 10
466.4
 20
280.1454545454546
 30
0.0
 40
1.909090909090909
  1
T16
  7
OpenSans
 11
466.4
 21
280.1454545454546
 31
0.0
100
AcDbText
  0
TEXT
  5
1F9
330
17
100
AcDbEntity
  8
S-TABLE
100
AcDbText
 10
479.4
 20
280.1454545454546
 30
0.0
 40
1.909090909090909
  1
21
  7
OpenSans
 11
479.4
 21
280.1454545454546
 31
0.0
100
AcDbText
  0
TEXT
  5
1FA
330
17
100
AcDbEntity
  8
S-TABLE
100
AcDbText
 10
491.4
 20
280.1454545454546
 30
0.0
 40
1.909090909090909
  1
150
  7
OpenSans
 11
491.4
 21
280.1454545454546
 31
0.0
100
AcDbText
  0
TEXT
  5
1FB
330
17
100
AcDbEntity
  8
S-TABLE
100
AcDbText
 10
506.4
 20
280.1454545454546
 30
0.0
 40
1.909090909090909
  1
376
  7
OpenSans
 11
506.4
 21
280.1454545454546
 31
0.0
100
AcDbText
  0
TEXT
  5
1FC
330
17
100
AcDbEntity
  8
S-TABLE
100
AcDbText
 10
521.4
 20
280.1454545454546
 30
0.0
 40
1.909090909090909
  1
1780
  7
OpenSans
 11
521.4
 21
280.1454545454546
 31
0.0
100
AcDbText
  0
TEXT
  5
1FD
330
17
100
AcDbEntity
  8
S-TABLE
100
AcDbText
 10
538.4
 20
280.1454545454546
 30
0.0
 40
1.909090909090909
  1
1056
  7
OpenSans
 11
538.4
 21
280.1454545454546
 31
0.0
100
AcDbText
  0
LINE
  5
1FE
330
17
100
AcDbEntity
  8
S-TABLE
100
AcDbLine
 10
448.0
 20
279.00000000000006
 30
0.0
 11
557.0
 21
279.00000000000006
 31
0.0
  0
TEXT
  5
1FF
330
17
100
AcDbEntity
  8
S-TABLE
100
AcDbText
 10
449.4
 20
275.9454545454546
 30
0.0
 40
1.909090909090909
  1
F10
  7
OpenSans
 11
449.4
 21
275.9454545454546
 31
0.0
100
AcDbText
  0
TEXT
  5
200
330
17
100
AcDbEntity
  8
S-TABLE
100
AcDbText
 10
466.4
 20
275.9454545454546
 30
0.0
 40
1.909090909090909
  1
T20
  7
OpenSans
 11
466.4
 21
275.9454545454546
 31
0.0
100
AcDbText
  0
TEXT
  5
201
330
17
100
AcDbEntity
  8
S-TABLE
100
AcDbText
 10
479.4
 20
275.9454545454546
 30
0.0
 40
1.909090909090909
  1
00
  7
OpenSans
 11
479.4
 21
275.9454545454546
 31
0.0
100
AcDbText
  0
TEXT
  5
202
330
17
100
AcDbEntity
  8
S-TABLE
100
AcDbText
 10
491.4
 20
275.9454545454546
 30
0.0
 40
1.909090909090909
  1
-
  7
OpenSans
 11
491.4
 21
275.9454545454546
 31
0.0
100
AcDbText
  0
TEXT
  5
203
330
17
100
AcDbEntity
  8
S-TABLE
100
AcDbText
 10
506.4
 20
275.9454545454546
 30
0.0
 40
1.909090909090909
  1
32
  7
OpenSans
 11
506.4
 21
275.9454545454546
 31
0.0
100
AcDbText
  0
TEXT
  5
204
330
17
100
AcDbEntity
  8
S-TABLE
100
AcDbText
 10
521.4
 20
275.9454545454546
 30
0.0
 40
1.909090909090909
  1
3100
  7
OpenSans
 11
521.4
 21
275.9454545454546
 31
0.0
100
AcDbText
  0
TEXT
  5
205
330
17
100
AcDbEntity
  8
S-TABLE
100
AcDbText
 10
538.4
 20
275.9454545454546
 30
0.0
 40
1.909090909090909
  1
245
  7
OpenSans
 11
538.4
 21
275.9454545454546
 31
0.0
100
AcDbText
  0
LINE
  5
206
330
17
100
AcDbEntity
  8
S-TABLE
100
AcDbLine
 10
448.0
 20
274.80000000000007
 30
0.0
 11
557.0
 21
274.80000000000007
 31
0.0
  0
TEXT
  5
207
330
17
100
AcDbEntity
  8
S-TABLE
100
AcDbText
 10
449.4
 20
271.7454545454546
 30
0.0
 40
1.909090909090909
  1
W06
  7
OpenSans
 11
449.4
 21
271.7454545454546
 31
0.0
100
AcDbText
  0
TEXT
  5
208
330
17
100
AcDbEntity
  8
S-TABLE
100
AcDbText
 10
466.4
 20
271.7454545454546
 30
0.0
 40
1.909090909090909
  1
T20
  7
OpenSans
 11
466.4
 21
271.7454545454546
 31
0.0
100
AcDbText
  0
TEXT
  5
209
330
17
100
AcDbEntity
  8
S-TABLE
100
AcDbText
 10
479.4
 20
271.7454545454546
 30
0.0
 40
1.909090909090909
  1
00
  7
OpenSans
 11
479.4
 21
271.7454545454546
 31
0.0
100
AcDbText
  0
TEXT
  5
20A
330
17
100
AcDbEntity
  8
S-TABLE
100
AcDbText
 10
491.4
 20
271.7454545454546
 30
0.0
 40
1.909090909090909
  1
150
  7
OpenSans
 11
491.4
 21
271.7454545454546
 31
0.0
100
AcDbText
  0
TEXT
  5
20B
330
17
100
AcDbEntity
  8
S-TABLE
100
AcDbText
 10
506.4
 20
271.7454545454546
 30
0.0
 40
1.909090909090909
  1
720
  7
OpenSans
 11
506.4
 21
271.7454545454546
 31
0.0
100
AcDbText
  0
TEXT
  5
20C
330
17
100
AcDbEntity
  8
S-TABLE
100
AcDbText
 10
521.4
 20
271.7454545454546
 30
0.0
 40
1.909090909090909
  1
2307
  7
OpenSans
 11
521.4
 21
271.7454545454546
 31
0.0
100
AcDbText
  0
TEXT
  5
20D
330
17
100
AcDbEntity
  8
S-TABLE
100
AcDbText
 10
538.4
 20
271.7454545454546
 30
0.0
 40
1.909090909090909
  1
4096
  7
OpenSans
 11
538.4
 21
271.7454545454546
 31
0.0
100
AcDbText
  0
LINE
  5
20E
330
17
100
AcDbEntity
  8
S-TABLE
100
AcDbLine
 10
448.0
 20
270.6000000000001
 30
0.0
 11
557.0
 21
270.6000000000001
 31
0.0
  0
LINE
  5
20F
330
17
100
AcDbEntity
  8
S-TABLE
100
AcDbLine
 10
448.0
 20
300.0
 30
0.0
 11
557.0
 21
300.0
 31
0.0
  0
LINE
  5
210
330
17
100
AcDbEntity
  8
S-TABLE
100
AcDbLine
 10
448.0
 20
300.0
 30
0.0
 11
448.0
 21
270.6000000000001
 31
0.0
  0
LINE
  5
211
330
17
100
AcDbEntity
  8
S-TABLE
100
AcDbLine
 10
465.0
 20
300.0
 30
0.0
 11
465.0
 21
270.6000000000001
 31
0.0
  0
LINE
  5
212
330
17
100
AcDbEntity
  8
S-TABLE
100
AcDbLine
 10
478.0
 20
300.0
 30
0.0
 11
478.0
 21
270.6000000000001
 31
0.0
  0
LINE
  5
213
330
17
100
AcDbEntity
  8
S-TABLE
100
AcDbLine
 10
490.0
 20
300.0
 30
0.0
 11
490.0
 21
270.6000000000001
 31
0.0
  0
LINE
  5
214
330
17
100
AcDbEntity
  8
S-TABLE
100
AcDbLine
 10
505.0
 20
300.0
 30
0.0
 11
505.0
 21
270.6000000000001
 31
0.0
  0
LINE
  5
215
330
17
100
AcDbEntity
  8
S-TABLE
100
AcDbLine
 10
520.0
 20
300.0
 30
0.0
 11
520.0
 21
270.6000000000001
 31
0.0
  0
LINE
  5
216
330
17
100
AcDbEntity
  8
S-TABLE
100
AcDbLine
 10
537.0
 20
300.0
 30
0.0
 11
537.0
 21
270.6000000000001
 31
0.0
  0
LINE
  5
217
330
17
100
AcDbEntity
  8
S-TABLE
100
AcDbLine
 10
557.0
 20
300.0
 30
0.0
 11
557.0
 21
270.6000000000001
 31
0.0
  0
TEXT
  5
218
330
17
100
AcDbEntity
  8
S-TABLE
100
AcDbText
 10
448.0
 20
266.2000000000001
 30
0.0
 40
1.4
  1
SHEET SUB-TOTAL  8,984 kg     FULL SCHEDULE: R-004 and Structural CAD/Schedules/BBS_MASTER.md
  7
OpenSans
 11
448.0
 21
266.2000000000001
 31
0.0
100
AcDbText
  0
TEXT
  5
219
330
17
100
AcDbEntity
  8
S-TITLE
100
AcDbText
 10
650.0
 20
543.5
 30
0.0
 40
2.5
  1
THE HAZARD IS NOT THE BASALT - IT IS THE FLOW CONTACTS
  7
OpenSans
 11
650.0
 21
543.5
 31
0.0
100
AcDbText
  0
TEXT
  5
21A
330
17
100
AcDbEntity
  8
S-NOTE
100
AcDbText
 10
650.0
 20
539.375
 30
0.0
 40
2.0
  1
A single red-bole or vesicular seam under the mat produces the
  7
OpenSans
 11
650.0
 21
539.375
 31
0.0
100
AcDbText
  0
TEXT
  5
21B
330
17
100
AcDbEntity
  8
S-NOTE
100
AcDbText
 10
650.0
 20
536.275
 30
0.0
 40
2.0
  1
DIFFERENTIAL-SUPPORT CASE THAT SIZES THE MAT.
  7
OpenSans
 11
650.0
 21
536.275
 31
0.0
100
AcDbText
  0
TEXT
  5
21C
330
17
100
AcDbEntity
  8
S-NOTE
100
AcDbText
 10
650.0
 20
530.0749999999999
 30
0.0
 40
2.0
  1
OVER-EXCAVATE ANY RED-BOLE OR VESICULAR SEAM AT FOUNDING LEVEL
  7
OpenSans
 11
650.0
 21
530.0749999999999
 31
0.0
100
AcDbText
  0
TEXT
  5
21D
330
17
100
AcDbEntity
  8
S-NOTE
100
AcDbText
 10
650.0
 20
526.9749999999999
 30
0.0
 40
2.0
  1
AND REPLACE WITH M15 LEAN CONCRETE.
  7
OpenSans
 11
650.0
 21
526.9749999999999
 31
0.0
100
AcDbText
  0
TEXT
  5
21E
330
17
100
AcDbEntity
  8
S-NOTE
100
AcDbText
 10
650.0
 20
520.7749999999999
 30
0.0
 40
2.0
  1
This is a construction requirement of the design, not an option.
  7
OpenSans
 11
650.0
 21
520.7749999999999
 31
0.0
100
AcDbText
  0
TEXT
  5
21F
330
17
100
AcDbEntity
  8
S-NOTE
100
AcDbText
 10
650.0
 20
517.6749999999998
 30
0.0
 40
2.0
  1
The 3.0 m unsupported band assumed in the mat design is the
  7
OpenSans
 11
650.0
 21
517.6749999999998
 31
0.0
100
AcDbText
  0
TEXT
  5
220
330
17
100
AcDbEntity
  8
S-NOTE
100
AcDbText
 10
650.0
 20
514.5749999999998
 30
0.0
 40
2.0
  1
worst-position idealisation of exactly this condition.
  7
OpenSans
 11
650.0
 21
514.5749999999998
 31
0.0
100
AcDbText
  0
TEXT
  5
221
330
17
100
AcDbEntity
  8
S-NOTE
100
AcDbText
 10
650.0
 20
508.3749999999998
 30
0.0
 40
2.0
  1
GROUND, ROCKHEAD, SBC, K0 AND ks ARE ALL [ASSUMED].  A site
  7
OpenSans
 11
650.0
 21
508.3749999999998
 31
0.0
100
AcDbText
  0
TEXT
  5
222
330
17
100
AcDbEntity
  8
S-NOTE
100
AcDbText
 10
650.0
 20
505.27499999999975
 30
0.0
 40
2.0
  1
investigation is required before construction.
  7
OpenSans
 11
650.0
 21
505.27499999999975
 31
0.0
100
AcDbText
  0
LWPOLYLINE
  5
223
330
17
100
AcDbEntity
  8
S-TITLE
100
AcDbPolyline
 90
4
 70
1
 10
648.0
 20
500.1749999999997
 10
831.0
 20
500.1749999999997
 10
831.0
 20
548.0
 10
648.0
 20
548.0
  0
LWPOLYLINE
  5
224
330
17
100
AcDbEntity
  8
S-TITLE
100
AcDbPolyline
 90
4
 70
1
 10
651.0
 20
10.0
 10
831.0
 20
10.0
 10
831.0
 20
110.0
 10
651.0
 20
110.0
  0
LINE
  5
225
330
17
100
AcDbEntity
  8
S-TITLE
100
AcDbLine
 10
651.0
 20
30.0
 30
0.0
 11
831.0
 21
30.0
 31
0.0
  0
LINE
  5
226
330
17
100
AcDbEntity
  8
S-TITLE
100
AcDbLine
 10
651.0
 20
42.0
 30
0.0
 11
831.0
 21
42.0
 31
0.0
  0
LINE
  5
227
330
17
100
AcDbEntity
  8
S-TITLE
100
AcDbLine
 10
651.0
 20
54.0
 30
0.0
 11
831.0
 21
54.0
 31
0.0
  0
LINE
  5
228
330
17
100
AcDbEntity
  8
S-TITLE
100
AcDbLine
 10
651.0
 20
66.0
 30
0.0
 11
831.0
 21
66.0
 31
0.0
  0
LINE
  5
229
330
17
100
AcDbEntity
  8
S-TITLE
100
AcDbLine
 10
651.0
 20
88.0
 30
0.0
 11
831.0
 21
88.0
 31
0.0
  0
LINE
  5
22A
330
17
100
AcDbEntity
  8
S-TITLE
100
AcDbLine
 10
763.0
 20
10.0
 30
0.0
 11
763.0
 21
30.0
 31
0.0
  0
LINE
  5
22B
330
17
100
AcDbEntity
  8
S-TITLE
100
AcDbLine
 10
797.0
 20
10.0
 30
0.0
 11
797.0
 21
30.0
 31
0.0
  0
TEXT
  5
22C
330
17
100
AcDbEntity
  8
S-TITLE
100
AcDbText
 10
653.0
 20
24.6
 30
0.0
 40
1.4
  1
DRAWING No.
  7
OpenSans
 11
653.0
 21
24.6
 31
0.0
100
AcDbText
  0
TEXT
  5
22D
330
17
100
AcDbEntity
  8
S-TITLE
100
AcDbText
 10
673.0
 20
14.2
 30
0.0
 40
3.5
  1
R-103
  7
OpenSans
 11
673.0
 21
14.2
 31
0.0
100
AcDbText
  0
TEXT
  5
22E
330
17
100
AcDbEntity
  8
S-TITLE
100
AcDbText
 10
765.0
 20
24.6
 30
0.0
 40
1.4
  1
REV
  7
OpenSans
 11
765.0
 21
24.6
 31
0.0
100
AcDbText
  0
TEXT
  5
22F
330
17
100
AcDbEntity
  8
S-TITLE
100
AcDbText
 10
769.0
 20
14.2
 30
0.0
 40
3.5
  1
SC1
  7
OpenSans
 11
769.0
 21
14.2
 31
0.0
100
AcDbText
  0
TEXT
  5
230
330
17
100
AcDbEntity
  8
S-TITLE
100
AcDbText
 10
799.0
 20
24.6
 30
0.0
 40
1.4
  1
SHEET
  7
OpenSans
 11
799.0
 21
24.6
 31
0.0
100
AcDbText
  0
TEXT
  5
231
330
17
100
AcDbEntity
  8
S-TITLE
100
AcDbText
 10
799.0
 20
15.0
 30
0.0
 40
1.6
  1
7 OF 30
  7
OpenSans
 11
799.0
 21
15.0
 31
0.0
100
AcDbText
  0
LINE
  5
232
330
17
100
AcDbEntity
  8
S-TITLE
100
AcDbLine
 10
747.0
 20
30.0
 30
0.0
 11
747.0
 21
42.0
 31
0.0
  0
TEXT
  5
233
330
17
100
AcDbEntity
  8
S-TITLE
100
AcDbText
 10
653.0
 20
34.4
 30
0.0
 40
1.6
  1
SCALE   1:10
  7
OpenSans
 11
653.0
 21
34.4
 31
0.0
100
AcDbText
  0
TEXT
  5
234
330
17
100
AcDbEntity
  8
S-TITLE
100
AcDbText
 10
749.0
 20
34.4
 30
0.0
 40
1.6
  1
DATE   04.09.2026
  7
OpenSans
 11
749.0
 21
34.4
 31
0.0
100
AcDbText
  0
TEXT
  5
235
330
17
100
AcDbEntity
  8
S-TITLE
100
AcDbText
 10
653.0
 20
46.4
 30
0.0
 40
1.4
  1
DESIGNED  [PLACEHOLDER]
  7
OpenSans
 11
653.0
 21
46.4
 31
0.0
100
AcDbText
  0
TEXT
  5
236
330
17
100
AcDbEntity
  8
S-TITLE
100
AcDbText
 10
713.0
 20
46.4
 30
0.0
 40
1.4
  1
CHECKED  [PLACEHOLDER]
  7
OpenSans
 11
713.0
 21
46.4
 31
0.0
100
AcDbText
  0
TEXT
  5
237
330
17
100
AcDbEntity
  8
S-TITLE
100
AcDbText
 10
773.0
 20
46.4
 30
0.0
 40
1.4
  1
APPROVED  [PLACEHOLDER]
  7
OpenSans
 11
773.0
 21
46.4
 31
0.0
100
AcDbText
  0
TEXT
  5
238
330
17
100
AcDbEntity
  8
S-TITLE
100
AcDbText
 10
653.0
 20
58.4
 30
0.0
 40
1.4
  1
STATUS
  7
OpenSans
 11
653.0
 21
58.4
 31
0.0
100
AcDbText
  0
TEXT
  5
239
330
17
100
AcDbEntity
  8
S-BLAST
100
AcDbText
 10
673.0
 20
58.0
 30
0.0
 40
1.6
  1
FOR REVIEW - NOT FOR CONSTRUCTION
  7
OpenSans
 11
673.0
 21
58.0
 31
0.0
100
AcDbText
  0
TEXT
  5
23A
330
17
100
AcDbEntity
  8
S-TITLE
100
AcDbText
 10
653.0
 20
83.4
 30
0.0
 40
1.4
  1
DRAWING TITLE
  7
OpenSans
 11
653.0
 21
83.4
 31
0.0
100
AcDbText
  0
TEXT
  5
23B
330
17
100
AcDbEntity
  8
S-TITLE
100
AcDbText
 10
653.0
 20
75.4
 30
0.0
 40
2.4
  1
FOUNDATION / WALL JUNCTION DETAILS
  7
OpenSans
 11
653.0
 21
75.4
 31
0.0
100
AcDbText
  0
TEXT
  5
23C
330
17
100
AcDbEntity
  8
S-TITLE
100
AcDbText
 10
653.0
 20
68.8
 30
0.0
 40
1.4
  1
STARTERS · HAUNCHES · EDGE U-BARS · SUMP TRIMMERS
  7
OpenSans
 11
653.0
 21
68.8
 31
0.0
100
AcDbText
  0
TEXT
  5
23D
330
17
100
AcDbEntity
  8
S-TITLE
100
AcDbText
 10
653.0
 20
105.2
 30
0.0
 40
1.4
  1
PROJECT
  7
OpenSans
 11
653.0
 21
105.2
 31
0.0
100
AcDbText
  0
TEXT
  5
23E
330
17
100
AcDbEntity
  8
S-TITLE
100
AcDbText
 10
653.0
 20
99.6
 30
0.0
 40
1.6
  1
UNDERGROUND CBRN-HARDENED BLAST-RESISTANT
  7
OpenSans
 11
653.0
 21
99.6
 31
0.0
100
AcDbText
  0
TEXT
  5
23F
330
17
100
AcDbEntity
  8
S-TITLE
100
AcDbText
 10
653.0
 20
95.0
 30
0.0
 40
1.6
  1
PROTECTIVE STRUCTURE  -  PUNE, MAHARASHTRA
  7
OpenSans
 11
653.0
 21
95.0
 31
0.0
100
AcDbText
  0
TEXT
  5
240
330
17
100
AcDbEntity
  8
S-TITLE
100
AcDbText
 10
653.0
 20
90.0
 30
0.0
 40
1.4
  1
STRUCTURAL PHASE 2 REV A + M1   ·   SENTRY POST NOT IN THIS PACKAGE
  7
OpenSans
 11
653.0
 21
90.0
 31
0.0
100
AcDbText
  0
ENDSEC
  0
SECTION
  2
OBJECTS
  0
DICTIONARY
  5
A
330
0
100
AcDbDictionary
281
1
  3
ACAD_COLOR
350
B
  3
ACAD_GROUP
350
C
  3
ACAD_LAYOUT
350
D
  3
ACAD_MATERIAL
350
E
  3
ACAD_MLEADERSTYLE
350
F
  3
ACAD_MLINESTYLE
350
10
  3
ACAD_PLOTSETTINGS
350
11
  3
ACAD_PLOTSTYLENAME
350
12
  3
ACAD_SCALELIST
350
14
  3
ACAD_TABLESTYLE
350
15
  3
ACAD_VISUALSTYLE
350
16
  3
EZDXF_META
350
2D
  0
DICTIONARY
  5
B
330
A
100
AcDbDictionary
281
1
  0
DICTIONARY
  5
C
330
A
100
AcDbDictionary
281
1
  0
DICTIONARY
  5
D
330
A
100
AcDbDictionary
281
1
  3
Model
350
1A
  3
Layout1
350
1E
  0
DICTIONARY
  5
E
330
A
100
AcDbDictionary
281
1
  3
ByBlock
350
1F
  3
ByLayer
350
20
  3
Global
350
21
  0
DICTIONARY
  5
F
330
A
100
AcDbDictionary
281
1
  3
Standard
350
2C
  0
DICTIONARY
  5
10
330
A
100
AcDbDictionary
281
1
  3
Standard
350
22
  0
DICTIONARY
  5
11
330
A
100
AcDbDictionary
281
1
  0
ACDBDICTIONARYWDFLT
  5
12
330
A
100
AcDbDictionary
281
1
  3
Normal
350
13
100
AcDbDictionaryWithDefault
340
13
  0
ACDBPLACEHOLDER
  5
13
330
12
  0
DICTIONARY
  5
14
330
A
100
AcDbDictionary
281
1
  0
DICTIONARY
  5
15
330
A
100
AcDbDictionary
281
1
  0
DICTIONARY
  5
16
330
A
100
AcDbDictionary
281
1
  3
2dWireframe
350
5A
  3
Basic
350
5B
  3
Brighten
350
5C
  3
ColorChange
350
5D
  3
Conceptual
350
5E
  3
Dim
350
5F
  3
EdgeColorOff
350
60
  3
Facepattern
350
61
  3
Flat
350
62
  3
FlatWithEdges
350
63
  3
Gouraud
350
64
  3
GouraudWithEdges
350
65
  3
Hidden
350
66
  3
JitterOff
350
67
  3
Linepattern
350
68
  3
Modeling
350
69
  3
OverhangOff
350
6A
  3
Realistic
350
6B
  3
Shaded
350
6C
  3
Shaded with edges
350
6D
  3
Shades of Gray
350
6E
  3
Sketchy
350
6F
  3
Thicken
350
70
  3
Wireframe
350
71
  3
X-Ray
350
72
  0
LAYOUT
  5
1A
330
D
100
AcDbPlotSettings
  1

  4
A3
  6

 40
7.5
 41
20.0
 42
7.5
 43
20.0
 44
420.0
 45
297.0
 46
0.0
 47
0.0
 48
0.0
 49
0.0
140
0.0
141
0.0
142
1.0
143
1.0
 70
1024
 72
1
 73
0
 74
5
  7

 75
16
 76
0
 77
2
 78
300
147
1.0
148
0.0
149
0.0
100
AcDbLayout
  1
Model
 70
1
 71
0
 10
0.0
 20
0.0
 11
420.0
 21
297.0
 12
0.0
 22
0.0
 32
0.0
 14
1e+20
 24
1e+20
 34
1e+20
 15
-1e+20
 25
-1e+20
 35
-1e+20
146
0.0
 13
0.0
 23
0.0
 33
0.0
 16
1.0
 26
0.0
 36
0.0
 17
0.0
 27
1.0
 37
0.0
 76
1
330
17
  0
LAYOUT
  5
1E
330
D
100
AcDbPlotSettings
  1

  4
A3
  6

 40
7.5
 41
20.0
 42
7.5
 43
20.0
 44
420.0
 45
297.0
 46
0.0
 47
0.0
 48
0.0
 49
0.0
140
0.0
141
0.0
142
1.0
143
1.0
 70
0
 72
1
 73
0
 74
5
  7

 75
16
 76
0
 77
2
 78
300
147
1.0
148
0.0
149
0.0
100
AcDbLayout
  1
Layout1
 70
1
 71
1
 10
0.0
 20
0.0
 11
420.0
 21
297.0
 12
0.0
 22
0.0
 32
0.0
 14
1e+20
 24
1e+20
 34
1e+20
 15
-1e+20
 25
-1e+20
 35
-1e+20
146
0.0
 13
0.0
 23
0.0
 33
0.0
 16
1.0
 26
0.0
 36
0.0
 17
0.0
 27
1.0
 37
0.0
 76
1
330
1B
  0
MATERIAL
  5
1F
102
{ACAD_REACTORS
330
E
102
}
330
E
100
AcDbMaterial
  1
ByBlock
  2

 70
0
 40
1.0
 71
1
 41
1.0
 91
-1023410177
 42
1.0
 72
1
  3

 73
1
 74
1
 75
1
 44
0.5
 73
0
 45
1.0
 46
1.0
 77
1
  4

 78
1
 79
1
170
1
 48
1.0
171
1
  6

172
1
173
1
174
1
140
1.0
141
1.0
175
1
  7

176
1
177
1
178
1
143
1.0
179
1
  8

270
1
271
1
272
1
145
1.0
146
1.0
273
1
  9

274
1
275
1
276
1
 42
1.0
 72
1
  3

 73
1
 74
1
 75
1
 94
63
  0
MATERIAL
  5
20
102
{ACAD_REACTORS
330
E
102
}
330
E
100
AcDbMaterial
  1
ByLayer
  2

 70
0
 40
1.0
 71
1
 41
1.0
 91
-1023410177
 42
1.0
 72
1
  3

 73
1
 74
1
 75
1
 44
0.5
 73
0
 45
1.0
 46
1.0
 77
1
  4

 78
1
 79
1
170
1
 48
1.0
171
1
  6

172
1
173
1
174
1
140
1.0
141
1.0
175
1
  7

176
1
177
1
178
1
143
1.0
179
1
  8

270
1
271
1
272
1
145
1.0
146
1.0
273
1
  9

274
1
275
1
276
1
 42
1.0
 72
1
  3

 73
1
 74
1
 75
1
 94
63
  0
MATERIAL
  5
21
102
{ACAD_REACTORS
330
E
102
}
330
E
100
AcDbMaterial
  1
Global
  2

 70
0
 40
1.0
 71
1
 41
1.0
 91
-1023410177
 42
1.0
 72
1
  3

 73
1
 74
1
 75
1
 44
0.5
 73
0
 45
1.0
 46
1.0
 77
1
  4

 78
1
 79
1
170
1
 48
1.0
171
1
  6

172
1
173
1
174
1
140
1.0
141
1.0
175
1
  7

176
1
177
1
178
1
143
1.0
179
1
  8

270
1
271
1
272
1
145
1.0
146
1.0
273
1
  9

274
1
275
1
276
1
 42
1.0
 72
1
  3

 73
1
 74
1
 75
1
 94
63
  0
MLINESTYLE
  5
22
102
{ACAD_REACTORS
330
10
102
}
330
10
100
AcDbMlineStyle
  2
Standard
 70
0
  3

 62
256
 51
90.0
 52
90.0
 71
2
 49
0.5
 62
256
  6
BYLAYER
 49
-0.5
 62
256
  6
BYLAYER
  0
MLEADERSTYLE
  5
2C
102
{ACAD_REACTORS
330
F
102
}
330
F
100
AcDbMLeaderStyle
179
2
170
2
171
1
172
0
 90
2
 40
0.0
 41
0.0
173
1
 91
-1056964608
 92
-2
290
1
 42
2.0
291
1
 43
8.0
  3
Standard
 44
4.0
300

342
29
174
1
175
1
176
0
178
1
 93
-1056964608
 45
4.0
292
0
297
0
 46
4.0
 94
-1056964608
 47
1.0
 49
1.0
140
1.0
294
1
141
0.0
177
0
142
1.0
295
0
296
0
143
3.75
271
0
272
9
273
9
  0
DICTIONARY
  5
2D
330
A
100
AcDbDictionary
280
1
281
1
  3
CREATED_BY_EZDXF
350
2E
  3
WRITTEN_BY_EZDXF
350
243
  0
DICTIONARYVAR
  5
2E
330
2D
100
DictionaryVariables
280
0
  1
1.4.4 @ 2026-09-09T17:03:44.740032+00:00
  0
VISUALSTYLE
  5
5A
102
{ACAD_REACTORS
330
16
102
}
330
16
100
AcDbVisualStyle
  2
2dWireframe
 70
4
 90
0
 40
0.6
 62
7
290
0
291
0
  0
VISUALSTYLE
  5
5B
102
{ACAD_REACTORS
330
16
102
}
330
16
100
AcDbVisualStyle
  2
Basic
 70
7
 90
1
 40
0.6
 62
7
290
0
291
1
  0
VISUALSTYLE
  5
5C
102
{ACAD_REACTORS
330
16
102
}
330
16
100
AcDbVisualStyle
  2
Brighten
 70
12
 90
2
 40
0.6
 62
7
290
0
291
1
  0
VISUALSTYLE
  5
5D
102
{ACAD_REACTORS
330
16
102
}
330
16
100
AcDbVisualStyle
  2
ColorChange
 70
16
 90
2
 40
0.6
 62
8
290
0
291
1
  0
VISUALSTYLE
  5
5E
102
{ACAD_REACTORS
330
16
102
}
330
16
100
AcDbVisualStyle
  2
Conceptual
 70
9
 90
3
 40
0.6
 62
7
290
0
291
0
  0
VISUALSTYLE
  5
5F
102
{ACAD_REACTORS
330
16
102
}
330
16
100
AcDbVisualStyle
  2
Dim
 70
11
 90
2
 40
0.6
 62
7
290
0
291
1
  0
VISUALSTYLE
  5
60
102
{ACAD_REACTORS
330
16
102
}
330
16
100
AcDbVisualStyle
  2
EdgeColorOff
 70
22
 90
2
 40
0.6
 62
7
290
0
291
1
  0
VISUALSTYLE
  5
61
102
{ACAD_REACTORS
330
16
102
}
330
16
100
AcDbVisualStyle
  2
Facepattern
 70
15
 90
2
 40
0.6
 62
7
290
0
291
1
  0
VISUALSTYLE
  5
62
102
{ACAD_REACTORS
330
16
102
}
330
16
100
AcDbVisualStyle
  2
Flat
 70
0
 90
2
 40
0.6
 62
7
290
0
291
1
  0
VISUALSTYLE
  5
63
102
{ACAD_REACTORS
330
16
102
}
330
16
100
AcDbVisualStyle
  2
FlatWithEdges
 70
1
 90
2
 40
0.6
 62
7
290
0
291
1
  0
VISUALSTYLE
  5
64
102
{ACAD_REACTORS
330
16
102
}
330
16
100
AcDbVisualStyle
  2
Gouraud
 70
2
 90
2
 40
0.6
 62
7
290
0
291
1
  0
VISUALSTYLE
  5
65
102
{ACAD_REACTORS
330
16
102
}
330
16
100
AcDbVisualStyle
  2
GouraudWithEdges
 70
3
 90
2
 40
0.6
 62
7
290
0
291
1
  0
VISUALSTYLE
  5
66
102
{ACAD_REACTORS
330
16
102
}
330
16
100
AcDbVisualStyle
  2
Hidden
 70
6
 90
1
 40
0.6
 62
7
290
0
291
0
  0
VISUALSTYLE
  5
67
102
{ACAD_REACTORS
330
16
102
}
330
16
100
AcDbVisualStyle
  2
JitterOff
 70
20
 90
2
 40
0.6
 62
7
290
0
291
1
  0
VISUALSTYLE
  5
68
102
{ACAD_REACTORS
330
16
102
}
330
16
100
AcDbVisualStyle
  2
Linepattern
 70
14
 90
2
 40
0.6
 62
7
290
0
291
1
  0
VISUALSTYLE
  5
69
102
{ACAD_REACTORS
330
16
102
}
330
16
100
AcDbVisualStyle
  2
Modeling
 70
10
 90
2
 40
0.6
 62
7
290
0
291
0
  0
VISUALSTYLE
  5
6A
102
{ACAD_REACTORS
330
16
102
}
330
16
100
AcDbVisualStyle
  2
OverhangOff
 70
21
 90
2
 40
0.6
 62
7
290
0
291
1
  0
VISUALSTYLE
  5
6B
102
{ACAD_REACTORS
330
16
102
}
330
16
100
AcDbVisualStyle
  2
Realistic
 70
8
 90
2
 40
0.6
 62
7
290
0
291
0
  0
VISUALSTYLE
  5
6C
102
{ACAD_REACTORS
330
16
102
}
330
16
100
AcDbVisualStyle
  2
Shaded
 70
27
 90
2
 40
0.6
 62
7
290
0
291
0
  0
VISUALSTYLE
  5
6D
102
{ACAD_REACTORS
330
16
102
}
330
16
100
AcDbVisualStyle
  2
Shaded with edges
 70
26
 90
2
 40
0.6
 62
7
290
0
291
0
  0
VISUALSTYLE
  5
6E
102
{ACAD_REACTORS
330
16
102
}
330
16
100
AcDbVisualStyle
  2
Shades of Gray
 70
23
 90
2
 40
0.6
 62
7
290
0
291
0
  0
VISUALSTYLE
  5
6F
102
{ACAD_REACTORS
330
16
102
}
330
16
100
AcDbVisualStyle
  2
Sketchy
 70
24
 90
1
 40
0.6
 62
7
290
0
291
0
  0
VISUALSTYLE
  5
70
102
{ACAD_REACTORS
330
16
102
}
330
16
100
AcDbVisualStyle
  2
Thicken
 70
13
 90
2
 40
0.6
 62
7
290
0
291
1
  0
VISUALSTYLE
  5
71
102
{ACAD_REACTORS
330
16
102
}
330
16
100
AcDbVisualStyle
  2
Wireframe
 70
5
 90
0
 40
0.6
 62
7
290
0
291
0
  0
VISUALSTYLE
  5
72
102
{ACAD_REACTORS
330
16
102
}
330
16
100
AcDbVisualStyle
  2
X-Ray
 70
25
 90
2
 40
0.5
 62
7
290
0
291
0
  0
DICTIONARYVAR
  5
243
330
2D
100
DictionaryVariables
280
0
  1
1.4.4 @ 2026-09-09T17:03:44.759382+00:00
  0
ENDSEC
  0
EOF
